<?xml version="1.0" encoding="utf-8"?>
<!-- Generator: Adobe Illustrator 28.2.0, SVG Export Plug-In . SVG Version: 6.00 Build 0)  -->
<svg version="1.1" id="图层_1" xmlns="http://www.w3.org/2000/svg" xmlns:xlink="http://www.w3.org/1999/xlink" x="0px" y="0px"
	 width="511.236px" height="51.904px" viewBox="0 0 511.236 51.904" style="enable-background:new 0 0 511.236 51.904;"
	 xml:space="preserve">
<style type="text/css">
	.st0{fill:none;stroke:#000000;}
	.st1{fill:#FFFFFF;}
	.st2{fill:#FFFFFF;stroke:#FFFFFF;}
	.st3{fill:#231815;}
	.st4{fill:#FFFFFF;stroke:#000000;}
</style>
<line class="st0" x1="0.5" y1="24.222" x2="510.736" y2="24.222"/>
<line class="st0" x1="510.736" y1="0" x2="510.736" y2="51.904"/>
<g>
	<rect x="31.032" y="17.301" class="st1" width="13.843" height="13.843"/>
	<line class="st0" x1="44.875" y1="17.301" x2="44.875" y2="31.143"/>
	<line class="st0" x1="31.032" y1="31.143" x2="31.032" y2="17.301"/>
</g>
<rect x="457.76" y="15.947" class="st2" width="34.604" height="17.301"/>
<g>
	<path d="M469.29,6.266h2.327c1.495,0,2.414,1.135,2.414,2.791c0,1.287-0.56,2.95-2.446,2.95h-2.295V6.266z M470.065,11.344h1.504
		c1.007,0,1.663-0.792,1.663-2.239s-0.664-2.175-1.72-2.175h-1.447V11.344z"/>
	<path d="M477.312,9.017c-0.008-0.264-0.104-0.704-0.991-0.704c-0.216,0-0.832,0.072-0.832,0.591c0,0.344,0.216,0.424,0.76,0.56
		l0.703,0.176c0.872,0.216,1.176,0.536,1.176,1.104c0,0.863-0.712,1.383-1.655,1.383c-1.655,0-1.774-0.959-1.799-1.463h0.68
		c0.023,0.328,0.12,0.855,1.111,0.855c0.504,0,0.959-0.2,0.959-0.664c0-0.336-0.231-0.448-0.831-0.6l-0.815-0.2
		c-0.584-0.144-0.968-0.439-0.968-1.015c0-0.919,0.76-1.335,1.583-1.335c1.495,0,1.6,1.104,1.6,1.312H477.312z"/>
	<path d="M479.8,8.409v2.719c0,0.328,0.28,0.328,0.424,0.328h0.248v0.552c-0.256,0.024-0.455,0.056-0.527,0.056
		c-0.695,0-0.848-0.392-0.848-0.896V8.409h-0.567V7.826h0.567V6.658h0.703v1.167h0.672v0.583H479.8z"/>
</g>
<g>
	<path class="st3" d="M25.817,6.266h4.662v0.688h-1.943v5.053H27.76V6.954h-1.943V6.266z"/>
	<path class="st3" d="M30.953,12.007h-0.704V7.826h0.664v0.695h0.016c0.28-0.487,0.647-0.815,1.175-0.815
		c0.088,0,0.128,0.008,0.184,0.024v0.728h-0.264c-0.656,0-1.071,0.512-1.071,1.119V12.007z"/>
	<path class="st3" d="M32.953,7.066V6.266h0.704v0.799H32.953z M33.657,12.007h-0.704V7.826h0.704V12.007z"/>
	<path class="st3" d="M38.183,11.663c0,0.6-0.008,2.103-1.943,2.103c-0.496,0-1.463-0.136-1.599-1.247h0.704
		c0.128,0.664,0.775,0.664,0.943,0.664c1.215,0,1.191-0.976,1.191-1.471v-0.176h-0.016v0.032c-0.184,0.296-0.552,0.56-1.111,0.56
		c-1.423,0-1.839-1.335-1.839-2.335c0-1.175,0.632-2.087,1.743-2.087c0.759,0,1.079,0.472,1.247,0.712h0.016V7.826h0.664V11.663z
		 M36.368,11.519c0.448,0,1.144-0.296,1.144-1.407c0-0.68-0.112-1.775-1.127-1.775c-1.087,0-1.144,1.031-1.144,1.567
		C35.241,10.824,35.601,11.519,36.368,11.519z"/>
	<path class="st3" d="M42.631,11.663c0,0.6-0.008,2.103-1.943,2.103c-0.496,0-1.463-0.136-1.599-1.247h0.704
		c0.128,0.664,0.775,0.664,0.943,0.664c1.215,0,1.191-0.976,1.191-1.471v-0.176h-0.016v0.032c-0.184,0.296-0.551,0.56-1.111,0.56
		c-1.423,0-1.839-1.335-1.839-2.335c0-1.175,0.632-2.087,1.743-2.087c0.759,0,1.079,0.472,1.247,0.712h0.016V7.826h0.664V11.663z
		 M40.816,11.519c0.448,0,1.144-0.296,1.144-1.407c0-0.68-0.112-1.775-1.127-1.775c-1.087,0-1.144,1.031-1.144,1.567
		C39.688,10.824,40.048,11.519,40.816,11.519z"/>
	<path class="st3" d="M47.159,10.696c-0.024,0.2-0.216,0.792-0.744,1.144c-0.192,0.128-0.464,0.288-1.135,0.288
		c-1.175,0-1.871-0.888-1.871-2.095c0-1.295,0.624-2.327,2.007-2.327c1.208,0,1.799,0.959,1.799,2.439h-3.055
		c0,0.872,0.408,1.375,1.215,1.375c0.664,0,1.056-0.512,1.08-0.824H47.159z M46.487,9.584c-0.04-0.647-0.312-1.247-1.167-1.247
		c-0.648,0-1.16,0.6-1.16,1.247H46.487z"/>
	<path class="st3" d="M48.857,12.007h-0.704V7.826h0.664v0.695h0.016c0.28-0.487,0.647-0.815,1.175-0.815
		c0.088,0,0.128,0.008,0.184,0.024v0.728h-0.264c-0.656,0-1.071,0.512-1.071,1.119V12.007z"/>
</g>
<g>
	<path class="st3" d="M469.258,29.737l-0.6,1.671h-0.799l2.158-5.741h0.88l2.079,5.741h-0.848l-0.568-1.671H469.258z M471.282,29.05
		l-0.848-2.527h-0.016l-0.92,2.527H471.282z"/>
	<path class="st3" d="M474.466,30.721h2.911v0.688h-3.687v-5.741h0.775V30.721z"/>
	<path class="st3" d="M476.764,25.667h4.661v0.688h-1.943v5.053h-0.775v-5.053h-1.942V25.667z"/>
</g>
<rect x="450.819" y="17.676" class="st4" width="48.444" height="13.842"/>
<rect x="457.76" y="16.348" class="st2" width="34.604" height="16.499"/>
<g>
	<path class="st3" d="M469.565,25.379l-0.6,1.671h-0.799l2.158-5.741h0.88l2.079,5.741h-0.848l-0.568-1.671H469.565z
		 M471.588,24.691l-0.848-2.527h-0.016l-0.92,2.527H471.588z"/>
	<path class="st3" d="M474.773,26.362h2.911v0.688h-3.687v-5.741h0.775V26.362z"/>
	<path class="st3" d="M477.071,21.308h4.661v0.688h-1.943v5.054h-0.775v-5.054h-1.942V21.308z"/>
</g>
<line class="st0" x1="0.5" y1="0" x2="0.5" y2="51.904"/>
<g>
</g>
<g>
</g>
<g>
</g>
<g>
</g>
<g>
</g>
</svg>
