<?xml version="1.0" encoding="utf-8"?>
<!-- Generator: Adobe Illustrator 28.2.0, SVG Export Plug-In . SVG Version: 6.00 Build 0)  -->
<svg version="1.1" id="儗僀儎_xFF0D__1" xmlns="http://www.w3.org/2000/svg" xmlns:xlink="http://www.w3.org/1999/xlink" x="0px"
	 y="0px" width="511.236px" height="124.149px" viewBox="0 0 511.236 124.149" style="enable-background:new 0 0 511.236 124.149;"
	 xml:space="preserve">
<style type="text/css">
	.st0{fill:none;stroke:#000000;stroke-width:2;}
	.st1{fill:none;stroke:#000000;}
	.st2{fill:#FFFFFF;stroke:#000000;}
	.st3{fill:#FFFFFF;}
	.st4{fill:none;stroke:#000000;stroke-width:0.5;}
	.st5{stroke:#000000;stroke-width:0.5;}
	.st6{fill:none;stroke:#CCCCCC;}
</style>
<line class="st0" x1="68.885" y1="38.402" x2="78.918" y2="38.402"/>
<line class="st1" x1="7.336" y1="38.175" x2="241.445" y2="38.175"/>
<g>
	<path d="M67.634,4.969l-0.6,1.671h-0.8l2.159-5.741h0.88l2.079,5.741h-0.847l-0.568-1.671H67.634z M69.656,4.281l-0.848-2.526
		h-0.016l-0.919,2.526H69.656z"/>
	<path d="M75.872,0.899h0.751V6.64h-0.872l-2.918-4.638h-0.016V6.64h-0.752V0.899h0.92l2.87,4.637h0.016V0.899z"/>
	<path d="M78.617,5.953h2.91V6.64h-3.686V0.899h0.775V5.953z"/>
</g>
<g>
	<path d="M28.911,116.609h2.526c1.071,0,1.623,0.664,1.623,1.447c0,0.375-0.136,0.903-0.768,1.199
		c0.376,0.152,1.04,0.416,1.04,1.399c0,0.92-0.68,1.695-1.951,1.695h-2.471V116.609z M29.687,119.04h1.399
		c0.744,0,1.199-0.224,1.199-0.928c0-0.536-0.328-0.839-1.191-0.839h-1.407V119.04z M29.687,121.686h1.655
		c0.808,0,1.215-0.408,1.215-1.047c0-0.808-0.712-0.968-1.343-0.968h-1.527V121.686z"/>
	<path d="M34.895,122.35h-0.704v-5.741h0.704V122.35z"/>
	<path d="M37.654,118.048c1.335,0,1.943,1.127,1.943,2.207c0,1.079-0.607,2.207-1.943,2.207c-1.335,0-1.943-1.127-1.943-2.207
		C35.711,119.175,36.319,118.048,37.654,118.048z M37.654,121.854c1.007,0,1.215-1.04,1.215-1.599s-0.208-1.599-1.215-1.599
		s-1.215,1.04-1.215,1.599S36.647,121.854,37.654,121.854z"/>
	<path d="M43.013,119.575c-0.088-0.56-0.4-0.896-0.992-0.896c-0.871,0-1.151,0.832-1.151,1.575c0,0.72,0.176,1.607,1.144,1.607
		c0.472,0,0.879-0.352,1-0.991h0.68c-0.072,0.664-0.48,1.599-1.703,1.599c-1.175,0-1.871-0.888-1.871-2.095
		c0-1.295,0.624-2.327,2.007-2.327c1.096,0,1.511,0.8,1.567,1.527H43.013z"/>
	<path d="M47.725,122.35h-0.904l-1.303-2.111l-0.583,0.528v1.583h-0.68v-5.741h0.68v3.326l1.799-1.767h0.896l-1.599,1.559
		L47.725,122.35z"/>
</g>
<g>
	<path d="M105.083,116.609h2.526c1.071,0,1.623,0.664,1.623,1.447c0,0.375-0.136,0.903-0.768,1.199
		c0.376,0.152,1.04,0.416,1.04,1.399c0,0.92-0.68,1.695-1.951,1.695h-2.471V116.609z M105.859,119.04h1.399
		c0.744,0,1.199-0.224,1.199-0.928c0-0.536-0.328-0.839-1.191-0.839h-1.407V119.04z M105.859,121.686h1.655
		c0.808,0,1.215-0.408,1.215-1.047c0-0.808-0.712-0.968-1.343-0.968h-1.527V121.686z"/>
	<path d="M111.067,122.35h-0.704v-5.741h0.704V122.35z"/>
	<path d="M113.826,118.048c1.335,0,1.943,1.127,1.943,2.207c0,1.079-0.607,2.207-1.943,2.207c-1.335,0-1.943-1.127-1.943-2.207
		C111.883,119.175,112.491,118.048,113.826,118.048z M113.826,121.854c1.007,0,1.215-1.04,1.215-1.599s-0.208-1.599-1.215-1.599
		s-1.215,1.04-1.215,1.599S112.819,121.854,113.826,121.854z"/>
	<path d="M119.185,119.575c-0.088-0.56-0.4-0.896-0.992-0.896c-0.871,0-1.151,0.832-1.151,1.575c0,0.72,0.176,1.607,1.144,1.607
		c0.472,0,0.879-0.352,1-0.991h0.68c-0.072,0.664-0.48,1.599-1.703,1.599c-1.175,0-1.871-0.888-1.871-2.095
		c0-1.295,0.624-2.327,2.007-2.327c1.096,0,1.511,0.8,1.567,1.527H119.185z"/>
	<path d="M123.897,122.35h-0.904l-1.303-2.111l-0.583,0.528v1.583h-0.68v-5.741h0.68v3.326l1.799-1.767h0.896l-1.599,1.559
		L123.897,122.35z"/>
</g>
<line class="st1" x1="7.336" y1="23.527" x2="7.336" y2="107.511"/>
<line class="st1" x1="241.445" y1="23.527" x2="241.445" y2="107.511"/>
<path class="st2" d="M210.195,45.988c3.813,0,6.904-3.092,6.904-6.905c0-3.814-3.092-6.906-6.904-6.906
	c-3.813,0-6.905,3.092-6.905,6.906C203.29,42.896,206.382,45.988,210.195,45.988z"/>
<g>
	<rect x="32.482" y="31.339" class="st3" width="11.073" height="13.841"/>
	<line class="st2" x1="43.555" y1="45.18" x2="43.555" y2="31.339"/>
	<line class="st2" x1="32.482" y1="31.339" x2="32.482" y2="45.18"/>
</g>
<polyline class="st1" points="7.336,89.933 65.93,89.933 65.93,38.175 "/>
<g>
	<rect x="32.482" y="83.097" class="st3" width="11.073" height="13.841"/>
	<line class="st2" x1="43.555" y1="96.938" x2="43.555" y2="83.097"/>
	<line class="st2" x1="32.482" y1="83.097" x2="32.482" y2="96.938"/>
</g>
<polyline class="st1" points="144.055,38.175 144.055,89.933 81.555,89.933 81.555,38.175 "/>
<g>
	<rect x="108.654" y="83.097" class="st3" width="11.073" height="13.841"/>
	<line class="st2" x1="119.727" y1="96.938" x2="119.727" y2="83.097"/>
	<line class="st2" x1="108.654" y1="83.097" x2="108.654" y2="96.938"/>
</g>
<g>
	<rect x="108.654" y="31.376" class="st3" width="11.073" height="13.842"/>
	<line class="st2" x1="119.727" y1="45.218" x2="119.727" y2="31.376"/>
	<line class="st2" x1="108.654" y1="31.376" x2="108.654" y2="45.218"/>
</g>
<g>
	<g>
		<line class="st4" x1="74.238" y1="29.38" x2="74.238" y2="10.151"/>
		<path class="st5" d="M75.039,31.224c0.389-1.291,0.749-2.13,1.165-3.167h-3.941c0.176,0.371,0.775,1.876,1.165,3.167
			c0.418,1.383,0.704,2.636,0.806,3.449C74.335,33.86,74.621,32.607,75.039,31.224z"/>
	</g>
	<path class="st5" d="M74.238,31.737c-0.412-1.109-1.114-2.485-1.858-3.339l1.858,0.671l1.857-0.671
		C75.352,29.252,74.65,30.628,74.238,31.737z"/>
</g>
<rect x="0.5" y="16.691" class="st6" width="68.359" height="93.75"/>
<rect x="78.625" y="16.691" class="st6" width="70.312" height="93.75"/>
<line class="st1" x1="269.791" y1="38.175" x2="510.736" y2="38.175"/>
<g>
	<path d="M411.171,6.792c-2.143,0-2.799-1.783-2.799-3.022c0-1.239,0.656-3.022,2.799-3.022s2.799,1.783,2.799,3.022
		C413.97,5.009,413.314,6.792,411.171,6.792z M411.171,1.435c-1.247,0-1.999,0.983-1.999,2.334c0,1.352,0.752,2.335,1.999,2.335
		s1.999-0.983,1.999-2.335C413.17,2.418,412.418,1.435,411.171,1.435z"/>
	<path d="M415.764,6.64h-0.776V0.899h2.655c0.943,0,1.887,0.328,1.887,1.543c0,0.848-0.432,1.16-0.8,1.375
		c0.328,0.136,0.656,0.28,0.688,1.079l0.049,1.04c0.008,0.32,0.048,0.44,0.287,0.576V6.64h-0.951
		c-0.112-0.352-0.136-1.223-0.136-1.439c0-0.472-0.097-1.023-1.023-1.023h-1.879V6.64z M415.764,3.514h1.799
		c0.567,0,1.167-0.144,1.167-0.991c0-0.888-0.647-0.959-1.031-0.959h-1.935V3.514z"/>
	<path d="M421.444,5.953h2.911V6.64h-3.687V0.899h0.775V5.953z"/>
</g>
<g>
	<path d="M333.926,12.903h2.526c1.071,0,1.623,0.664,1.623,1.447c0,0.375-0.136,0.903-0.768,1.199
		c0.376,0.152,1.04,0.416,1.04,1.399c0,0.92-0.68,1.695-1.951,1.695h-2.471V12.903z M334.701,15.334h1.399
		c0.743,0,1.199-0.224,1.199-0.928c0-0.536-0.328-0.839-1.191-0.839h-1.407V15.334z M334.701,17.98h1.655
		c0.808,0,1.215-0.408,1.215-1.047c0-0.808-0.711-0.968-1.343-0.968h-1.527V17.98z"/>
	<path d="M339.909,18.644h-0.703v-5.741h0.703V18.644z"/>
	<path d="M342.669,14.342c1.335,0,1.943,1.127,1.943,2.207c0,1.079-0.608,2.207-1.943,2.207s-1.942-1.127-1.942-2.207
		C340.727,15.47,341.334,14.342,342.669,14.342z M342.669,18.148c1.008,0,1.216-1.04,1.216-1.599s-0.208-1.599-1.216-1.599
		s-1.215,1.04-1.215,1.599S341.661,18.148,342.669,18.148z"/>
	<path d="M348.029,15.87c-0.089-0.56-0.4-0.896-0.992-0.896c-0.871,0-1.151,0.832-1.151,1.575c0,0.72,0.176,1.607,1.144,1.607
		c0.472,0,0.88-0.352,1-0.991h0.679c-0.071,0.664-0.479,1.599-1.702,1.599c-1.176,0-1.871-0.888-1.871-2.095
		c0-1.295,0.623-2.327,2.007-2.327c1.095,0,1.511,0.8,1.566,1.527H348.029z"/>
	<path d="M352.739,18.644h-0.903l-1.304-2.111l-0.584,0.528v1.583h-0.679v-5.741h0.679v3.326l1.8-1.767h0.896l-1.6,1.559
		L352.739,18.644z"/>
</g>
<g>
	<path d="M333.926,110.261h2.526c1.071,0,1.623,0.664,1.623,1.447c0,0.375-0.136,0.903-0.768,1.199
		c0.376,0.152,1.04,0.416,1.04,1.399c0,0.92-0.68,1.695-1.951,1.695h-2.471V110.261z M334.701,112.692h1.399
		c0.743,0,1.199-0.224,1.199-0.928c0-0.536-0.328-0.839-1.191-0.839h-1.407V112.692z M334.701,115.338h1.655
		c0.808,0,1.215-0.408,1.215-1.047c0-0.808-0.711-0.968-1.343-0.968h-1.527V115.338z"/>
	<path d="M339.909,116.002h-0.703v-5.741h0.703V116.002z"/>
	<path d="M342.669,111.7c1.335,0,1.943,1.127,1.943,2.207c0,1.079-0.608,2.207-1.943,2.207s-1.942-1.127-1.942-2.207
		C340.727,112.828,341.334,111.7,342.669,111.7z M342.669,115.506c1.008,0,1.216-1.04,1.216-1.599s-0.208-1.599-1.216-1.599
		s-1.215,1.04-1.215,1.599S341.661,115.506,342.669,115.506z"/>
	<path d="M348.029,113.228c-0.089-0.56-0.4-0.896-0.992-0.896c-0.871,0-1.151,0.832-1.151,1.575c0,0.72,0.176,1.607,1.144,1.607
		c0.472,0,0.88-0.352,1-0.991h0.679c-0.071,0.664-0.479,1.599-1.702,1.599c-1.176,0-1.871-0.888-1.871-2.095
		c0-1.295,0.623-2.327,2.007-2.327c1.095,0,1.511,0.8,1.566,1.527H348.029z"/>
	<path d="M352.739,116.002h-0.903l-1.304-2.111l-0.584,0.528v1.583h-0.679v-5.741h0.679v3.326l1.8-1.767h0.896l-1.6,1.559
		L352.739,116.002z"/>
</g>
<line class="st1" x1="269.791" y1="23.527" x2="269.791" y2="107.511"/>
<line class="st1" x1="510.736" y1="23.527" x2="510.736" y2="107.511"/>
<path class="st2" d="M479.486,45.988c3.813,0,6.905-3.092,6.905-6.905c0-3.814-3.092-6.906-6.905-6.906
	c-3.813,0-6.904,3.092-6.904,6.906C472.582,42.896,475.674,45.988,479.486,45.988z"/>
<g>
	<rect x="294.938" y="31.339" class="st3" width="11.074" height="13.841"/>
	<line class="st2" x1="306.012" y1="45.18" x2="306.012" y2="31.339"/>
	<line class="st2" x1="294.938" y1="31.339" x2="294.938" y2="45.18"/>
</g>
<line class="st1" x1="269.791" y1="89.933" x2="416.276" y2="89.933"/>
<line class="st0" x1="415.917" y1="91.008" x2="415.917" y2="38.175"/>
<g>
	<rect x="294.938" y="83.097" class="st3" width="11.074" height="13.841"/>
	<line class="st2" x1="306.012" y1="96.938" x2="306.012" y2="83.097"/>
	<line class="st2" x1="294.938" y1="83.097" x2="294.938" y2="96.938"/>
</g>
<g>
	<rect x="371.11" y="83.097" class="st3" width="11.074" height="13.841"/>
	<line class="st2" x1="382.184" y1="96.938" x2="382.184" y2="83.097"/>
	<line class="st2" x1="371.11" y1="83.097" x2="371.11" y2="96.938"/>
</g>
<g>
	<rect x="371.11" y="31.376" class="st3" width="11.074" height="13.842"/>
	<line class="st2" x1="382.184" y1="45.218" x2="382.184" y2="31.376"/>
	<line class="st2" x1="371.11" y1="31.376" x2="371.11" y2="45.218"/>
</g>
<g>
	<g>
		<line class="st4" x1="416.283" y1="30.928" x2="416.283" y2="9.57"/>
		<path class="st5" d="M417.085,32.774c0.391-1.292,0.75-2.131,1.167-3.168h-3.943c0.177,0.371,0.776,1.876,1.165,3.168
			c0.418,1.382,0.704,2.635,0.805,3.448C416.383,35.409,416.669,34.156,417.085,32.774z"/>
	</g>
	<path class="st5" d="M416.283,33.286c-0.41-1.109-1.114-2.486-1.856-3.339l1.856,0.671l1.858-0.671
		C417.397,30.8,416.695,32.177,416.283,33.286z"/>
</g>
<rect x="276.627" y="24.503" class="st6" width="132.812" height="27.344"/>
<rect x="276.627" y="76.261" class="st6" width="132.812" height="27.344"/>
</svg>
