<?xml version="1.0" encoding="utf-8"?>
<!-- Generator: Adobe Illustrator 28.2.0, SVG Export Plug-In . SVG Version: 6.00 Build 0)  -->
<svg version="1.1" id="レイヤー_1" xmlns="http://www.w3.org/2000/svg" xmlns:xlink="http://www.w3.org/1999/xlink" x="0px"
	 y="0px" width="224.793px" height="104.75px" viewBox="0 0 224.793 104.75" style="enable-background:new 0 0 224.793 104.75;"
	 xml:space="preserve">
<style type="text/css">
	.st0{fill:none;stroke:#000000;stroke-width:0.5;stroke-miterlimit:8;}
	.st1{fill:none;stroke:#000000;stroke-width:0.75;stroke-miterlimit:8;}
	.st2{fill-rule:evenodd;clip-rule:evenodd;}
	.st3{fill:none;stroke:#666666;stroke-width:0.5;stroke-miterlimit:10;stroke-dasharray:1;}
</style>
<g>
	<g>
		<g>
			<polyline class="st0" points="26.835,5.406 26.835,91.174 224.251,91.174 			"/>
			<g>
				<polygon points="24.79,7.063 25.156,7.404 26.834,5.598 28.513,7.404 28.879,7.063 26.834,4.864 				"/>
			</g>
			<g>
				<polygon points="222.594,93.219 222.253,92.853 224.059,91.175 222.253,89.496 222.594,89.13 224.793,91.175 				"/>
			</g>
		</g>
	</g>
	<line class="st1" x1="28.71" y1="66.056" x2="72.556" y2="53.434"/>
	<path class="st2" d="M69.531,53.434c0,1.657,1.354,3,3.025,3c1.671,0,3.025-1.343,3.025-3s-1.354-3-3.025-3
		S69.531,51.777,69.531,53.434L69.531,53.434z"/>
	<path class="st2" d="M31.736,66.056c0-1.657-1.354-3-3.025-3s-3.025,1.343-3.025,3s1.354,3,3.025,3S31.736,67.713,31.736,66.056
		L31.736,66.056z"/>
	<line class="st1" x1="72.576" y1="53.427" x2="90.963" y2="17.434"/>
	<path class="st2" d="M87.938,17.434c0,1.657,1.354,3,3.025,3c1.671,0,3.025-1.343,3.025-3c0-1.657-1.354-3-3.025-3
		C89.293,14.434,87.938,15.777,87.938,17.434L87.938,17.434z"/>
	<path class="st2" d="M75.601,53.427c0-1.657-1.354-3-3.025-3s-3.025,1.343-3.025,3s1.354,3,3.025,3S75.601,55.084,75.601,53.427
		L75.601,53.427z"/>
	<line class="st1" x1="90.969" y1="16.944" x2="131.986" y2="12.274"/>
	<path class="st2" d="M128.961,12.274c0,1.657,1.354,3,3.025,3c1.671,0,3.025-1.343,3.025-3c0-1.657-1.354-3-3.025-3
		C130.316,9.274,128.961,10.617,128.961,12.274L128.961,12.274z"/>
	<path class="st2" d="M93.995,16.944c0-1.657-1.354-3-3.025-3s-3.025,1.343-3.025,3s1.354,3,3.025,3S93.995,18.6,93.995,16.944
		L93.995,16.944z"/>
	<line class="st1" x1="131.507" y1="12.274" x2="156.023" y2="34.251"/>
	<path class="st2" d="M152.998,34.252c0-1.657,1.354-3,3.025-3c1.671,0,3.025,1.343,3.025,3c0,1.657-1.354,3-3.025,3
		C154.353,37.252,152.998,35.909,152.998,34.252L152.998,34.252z"/>
	<path class="st2" d="M134.532,12.274c0,1.657-1.354,3-3.025,3s-3.025-1.343-3.025-3s1.354-3,3.025-3S134.532,10.617,134.532,12.274
		L134.532,12.274z"/>
	<line class="st1" x1="155.527" y1="34.234" x2="173.915" y2="40.788"/>
	<path class="st2" d="M170.889,40.789c0-1.657,1.354-3,3.025-3c1.671,0,3.025,1.343,3.025,3s-1.354,3-3.025,3
		C172.244,43.788,170.889,42.445,170.889,40.789L170.889,40.789z"/>
	<path class="st2" d="M158.553,34.234c0,1.657-1.354,3-3.025,3s-3.025-1.343-3.025-3s1.354-3,3.025-3S158.553,32.577,158.553,34.234
		L158.553,34.234z"/>
	<line class="st1" x1="173.921" y1="40.774" x2="180.05" y2="89.394"/>
	<path class="st2" d="M177.024,89.394c0-1.657,1.354-3,3.025-3s3.025,1.343,3.025,3s-1.354,3-3.025,3S177.024,91.051,177.024,89.394
		L177.024,89.394z"/>
	<path class="st2" d="M176.946,40.774c0,1.657-1.354,3-3.025,3s-3.025-1.343-3.025-3c0-1.657,1.354-3,3.025-3
		S176.946,39.117,176.946,40.774L176.946,40.774z"/>
	<line class="st3" x1="26.835" y1="34.003" x2="82.499" y2="34.003"/>
	<line class="st3" x1="82.499" y1="34.003" x2="82.499" y2="91.174"/>
</g>
<g>
	<g>
		<path d="M2.951,34.052v2.615H2.408V30.91h2.255c1.263,0,1.959,0.448,1.959,1.511c0,0.728-0.272,1.111-0.936,1.407
			c0.68,0.232,0.719,0.952,0.735,1.559c0.024,0.872,0.096,1.111,0.24,1.223v0.056h-0.6c-0.224-0.392-0.168-1.471-0.256-1.911
			c-0.128-0.624-0.6-0.704-1.143-0.704H2.951z M4.646,33.588c0.808,0,1.431-0.336,1.431-1.144c0-0.863-0.671-1.071-1.399-1.071
			H2.951v2.215H4.646z"/>
		<path d="M7.976,34.708c-0.008,0.896,0.472,1.639,1.391,1.639c0.624,0,1.111-0.344,1.255-0.952h0.536
			c-0.24,0.784-0.735,1.383-1.791,1.383c-1.327,0-1.903-0.943-1.903-2.167c0-1.208,0.72-2.199,1.903-2.199
			c1.135,0,1.831,0.808,1.823,2.295H7.976z M10.678,34.308c0-0.807-0.448-1.463-1.312-1.463c-0.848,0-1.295,0.68-1.391,1.463H10.678
			z"/>
		<path d="M12.407,35.371c0.152,0.712,0.52,0.976,1.239,0.976c0.696,0,1.023-0.368,1.023-0.768c0-1.199-2.654-0.352-2.654-1.983
			c0-0.688,0.536-1.184,1.455-1.184c0.896,0,1.479,0.368,1.599,1.304h-0.488c-0.088-0.64-0.52-0.872-1.119-0.872
			c-0.608,0-0.936,0.288-0.936,0.711c0,1.127,2.654,0.424,2.654,2.015c0,0.792-0.711,1.207-1.687,1.207s-1.535-0.624-1.575-1.407
			H12.407z"/>
		<path d="M18.934,32.525h0.479v4.142h-0.479v-0.576c-0.256,0.288-0.608,0.688-1.335,0.688c-1.104,0-1.471-0.664-1.471-1.527v-2.727
			h0.48v2.718c0,0.712,0.312,1.104,1.063,1.104c0.792,0,1.264-0.656,1.264-1.567V32.525z"/>
		<path d="M20.647,36.667V30.91h0.48v5.757H20.647z"/>
		<path d="M23.807,36.683c-0.112,0.024-0.32,0.096-0.552,0.096c-0.472,0-0.735-0.208-0.735-0.823v-3.031h-0.584v-0.399h0.584v-1.151
			h0.479v1.151h0.776v0.399h-0.776v2.839c0,0.408,0.016,0.583,0.416,0.583c0.128,0,0.264-0.024,0.392-0.056V36.683z"/>
	</g>
</g>
<g>
	<g>
		<path d="M2.215,63.016c-0.76,1.104-1.224,2.398-1.224,3.741c0,1.328,0.488,2.599,1.224,3.694H1.807
			c-0.879-1.215-1.367-2.215-1.367-3.734c0-1.463,0.503-2.55,1.367-3.701H2.215z"/>
		<path d="M5.095,66.382l-1.671,2.542H2.808l1.983-2.958l-1.903-2.799H3.52l1.575,2.423l1.583-2.423H7.31l-1.887,2.799l1.975,2.958
			H6.774L5.095,66.382z"/>
		<path d="M9.615,67.946c0,0.748-0.176,1.416-0.952,1.416c-0.779,0-0.956-0.664-0.956-1.443c0-0.712,0.144-1.432,0.956-1.432
			C9.499,66.487,9.615,67.291,9.615,67.946z M8.655,66.703c-0.56,0-0.692,0.62-0.692,1.243c0,0.724,0.16,1.199,0.7,1.199
			c0.608,0,0.696-0.659,0.696-1.227C9.359,67.31,9.251,66.703,8.655,66.703z"/>
		<path d="M11.176,69.165c0,0.464-0.248,0.751-0.584,0.855v-0.296c0.128-0.08,0.272-0.208,0.272-0.527v-0.272h-0.272v-0.703h0.584
			V69.165z"/>
		<path d="M16.639,65.942l1.735-2.774h0.631l-2.087,3.246v2.511h-0.543v-2.471l-2.055-3.286h0.624L16.639,65.942z"/>
		<path d="M21.175,67.946c0,0.748-0.176,1.416-0.952,1.416c-0.779,0-0.956-0.664-0.956-1.443c0-0.712,0.144-1.432,0.956-1.432
			C21.059,66.487,21.175,67.291,21.175,67.946z M20.216,66.703c-0.56,0-0.692,0.62-0.692,1.243c0,0.724,0.16,1.199,0.7,1.199
			c0.608,0,0.696-0.659,0.696-1.227C20.919,67.31,20.812,66.703,20.216,66.703z"/>
		<path d="M21.784,70.452c0.76-1.104,1.223-2.398,1.223-3.742c0-1.327-0.487-2.599-1.223-3.693h0.408
			c0.879,1.215,1.367,2.215,1.367,3.733c0,1.464-0.503,2.551-1.367,3.702H21.784z"/>
	</g>
</g>
<g>
	<g>
		<path d="M45.765,44.519c-0.76,1.104-1.224,2.398-1.224,3.742c0,1.328,0.488,2.599,1.224,3.694h-0.408
			c-0.879-1.215-1.367-2.215-1.367-3.734c0-1.463,0.503-2.55,1.367-3.702H45.765z"/>
		<path d="M48.645,47.885l-1.671,2.542h-0.616l1.983-2.958l-1.903-2.798h0.632l1.575,2.423l1.583-2.423h0.632l-1.887,2.798
			l1.975,2.958h-0.624L48.645,47.885z"/>
		<path d="M52.309,48.713h-0.728v-0.168c0.428-0.028,0.696-0.072,0.78-0.556h0.204v2.818h-0.256V48.713z"/>
		<path d="M54.726,50.667c0,0.464-0.248,0.751-0.584,0.855v-0.295c0.128-0.08,0.272-0.208,0.272-0.528v-0.272h-0.272v-0.704h0.584
			V50.667z"/>
		<path d="M60.189,47.445l1.735-2.774h0.631l-2.087,3.246v2.511h-0.543v-2.471L57.87,44.67h0.624L60.189,47.445z"/>
		<path d="M63.87,48.713h-0.728v-0.168c0.428-0.028,0.696-0.072,0.78-0.556h0.204v2.818H63.87V48.713z"/>
		<path d="M65.333,51.955c0.76-1.104,1.223-2.399,1.223-3.742c0-1.327-0.487-2.599-1.223-3.694h0.408
			c0.879,1.215,1.367,2.215,1.367,3.734c0,1.463-0.503,2.551-1.367,3.702H65.333z"/>
	</g>
</g>
<g>
	<g>
		<path d="M63.614,9.365c-0.76,1.104-1.224,2.398-1.224,3.742c0,1.328,0.488,2.599,1.224,3.694h-0.408
			c-0.879-1.215-1.367-2.215-1.367-3.734c0-1.463,0.503-2.55,1.367-3.702H63.614z"/>
		<path d="M66.494,12.731l-1.671,2.542h-0.616l1.983-2.958l-1.903-2.798h0.632l1.575,2.423l1.583-2.423h0.632l-1.887,2.798
			l1.975,2.958h-0.624L66.494,12.731z"/>
		<path d="M69.227,13.76c0-0.556,0.36-0.923,0.916-0.923c0.567,0,0.868,0.348,0.868,0.779c0,0.748-0.808,0.936-1.228,1.255
			c-0.184,0.14-0.356,0.3-0.368,0.568h1.571v0.216h-1.843c0.004-0.268,0.04-0.479,0.22-0.688c0.588-0.68,1.367-0.672,1.367-1.335
			c0-0.368-0.271-0.58-0.62-0.58c-0.368,0-0.627,0.328-0.611,0.708H69.227z"/>
		<path d="M72.575,15.514c0,0.464-0.248,0.751-0.584,0.855v-0.295c0.128-0.08,0.272-0.208,0.272-0.528v-0.272h-0.272V14.57h0.584
			V15.514z"/>
		<path d="M78.038,12.292l1.735-2.774h0.631l-2.087,3.246v2.511h-0.543v-2.471l-2.055-3.286h0.624L78.038,12.292z"/>
		<path d="M80.787,13.76c0-0.556,0.36-0.923,0.916-0.923c0.567,0,0.868,0.348,0.868,0.779c0,0.748-0.808,0.936-1.228,1.255
			c-0.184,0.14-0.356,0.3-0.368,0.568h1.571v0.216h-1.843c0.004-0.268,0.04-0.479,0.22-0.688c0.588-0.68,1.367-0.672,1.367-1.335
			c0-0.368-0.271-0.58-0.62-0.58c-0.368,0-0.627,0.328-0.611,0.708H80.787z"/>
		<path d="M83.183,16.801c0.76-1.104,1.223-2.399,1.223-3.742c0-1.327-0.487-2.599-1.223-3.694h0.408
			c0.879,1.215,1.367,2.215,1.367,3.734c0,1.463-0.503,2.551-1.367,3.702H83.183z"/>
	</g>
</g>
<g>
	<g>
		<path d="M107.176,0.731c-0.76,1.104-1.224,2.398-1.224,3.742c0,1.328,0.488,2.599,1.224,3.694h-0.408
			c-0.879-1.215-1.367-2.215-1.367-3.734c0-1.463,0.503-2.55,1.367-3.702H107.176z"/>
		<path d="M110.056,4.098l-1.671,2.542h-0.616l1.983-2.958l-1.903-2.798h0.632l1.575,2.423l1.583-2.423h0.632l-1.887,2.798
			l1.975,2.958h-0.624L110.056,4.098z"/>
		<path d="M113.396,5.454c0.476,0.004,0.808-0.108,0.808-0.54c0-0.348-0.276-0.496-0.6-0.496c-0.36,0-0.604,0.252-0.604,0.604
			h-0.256c0-0.252,0.084-0.456,0.272-0.631c0.176-0.16,0.408-0.188,0.64-0.188c0.443,0,0.803,0.224,0.803,0.695
			c0,0.292-0.128,0.512-0.399,0.628c0.408,0.128,0.5,0.436,0.5,0.695c0,0.464-0.328,0.84-0.908,0.856
			c-0.651,0-0.943-0.216-1.003-0.872h0.256c0,0.428,0.284,0.655,0.7,0.655c0.408,0,0.716-0.304,0.7-0.635
			c-0.016-0.456-0.412-0.6-0.908-0.564V5.454z"/>
		<path d="M116.137,6.88c0,0.464-0.248,0.751-0.584,0.855V7.44c0.128-0.08,0.272-0.208,0.272-0.528V6.64h-0.272V5.937h0.584V6.88z"
			/>
		<path d="M121.601,3.658l1.735-2.774h0.631l-2.087,3.246V6.64h-0.543V4.169l-2.055-3.286h0.624L121.601,3.658z"/>
		<path d="M124.957,5.454c0.476,0.004,0.808-0.108,0.808-0.54c0-0.348-0.276-0.496-0.6-0.496c-0.36,0-0.604,0.252-0.604,0.604
			h-0.256c0-0.252,0.084-0.456,0.272-0.631c0.176-0.16,0.408-0.188,0.64-0.188c0.443,0,0.803,0.224,0.803,0.695
			c0,0.292-0.128,0.512-0.399,0.628c0.408,0.128,0.5,0.436,0.5,0.695c0,0.464-0.328,0.84-0.908,0.856
			c-0.651,0-0.943-0.216-1.003-0.872h0.256c0,0.428,0.284,0.655,0.7,0.655c0.408,0,0.716-0.304,0.7-0.635
			c-0.016-0.456-0.412-0.6-0.908-0.564V5.454z"/>
		<path d="M126.745,8.167c0.76-1.104,1.223-2.399,1.223-3.742c0-1.327-0.487-2.599-1.223-3.694h0.408
			c0.879,1.215,1.367,2.215,1.367,3.734c0,1.463-0.503,2.551-1.367,3.702H126.745z"/>
	</g>
</g>
<g>
	<g>
		<path d="M128.994,36.358c-0.76,1.104-1.224,2.398-1.224,3.742c0,1.328,0.488,2.599,1.224,3.694h-0.408
			c-0.879-1.215-1.367-2.215-1.367-3.734c0-1.463,0.503-2.55,1.367-3.702H128.994z"/>
		<path d="M131.874,39.725l-1.671,2.542h-0.616l1.983-2.958l-1.903-2.798h0.632l1.575,2.423l1.583-2.423h0.632l-1.887,2.798
			l1.975,2.958h-0.624L131.874,39.725z"/>
		<path d="M135.762,41.952h-1.287v-0.22l1.311-1.875h0.232v1.879h0.392v0.216h-0.392v0.696h-0.256V41.952z M134.727,41.736h1.035
			v-1.495L134.727,41.736z"/>
		<path d="M137.955,42.507c0,0.464-0.248,0.751-0.584,0.855v-0.295c0.128-0.08,0.272-0.208,0.272-0.528v-0.272h-0.272v-0.704h0.584
			V42.507z"/>
		<path d="M143.418,39.285l1.735-2.774h0.631l-2.087,3.246v2.511h-0.543v-2.471l-2.055-3.286h0.624L143.418,39.285z"/>
		<path d="M147.322,41.952h-1.287v-0.22l1.311-1.875h0.232v1.879h0.392v0.216h-0.392v0.696h-0.256V41.952z M146.287,41.736h1.035
			v-1.495L146.287,41.736z"/>
		<path d="M148.562,43.794c0.76-1.104,1.223-2.399,1.223-3.742c0-1.327-0.487-2.599-1.223-3.694h0.408
			c0.879,1.215,1.367,2.215,1.367,3.734c0,1.463-0.503,2.551-1.367,3.702H148.562z"/>
	</g>
</g>
<g>
	<g>
		<path d="M182.264,34.879c-0.76,1.104-1.224,2.398-1.224,3.742c0,1.328,0.488,2.599,1.224,3.694h-0.408
			c-0.879-1.215-1.367-2.215-1.367-3.734c0-1.463,0.503-2.55,1.367-3.702H182.264z"/>
		<path d="M185.144,38.246l-1.671,2.542h-0.616l1.983-2.958l-1.903-2.798h0.632l1.575,2.423l1.583-2.423h0.632l-1.887,2.798
			l1.975,2.958h-0.624L185.144,38.246z"/>
		<path d="M187.997,40.438c0.052,0.38,0.328,0.571,0.695,0.571c0.42,0,0.676-0.319,0.676-0.719c0-0.42-0.272-0.716-0.7-0.716
			c-0.252,0-0.456,0.088-0.612,0.292l-0.212-0.028l0.228-1.459h1.399v0.216h-1.184l-0.176,0.948c0.22-0.144,0.364-0.184,0.62-0.184
			c0.516,0,0.892,0.352,0.892,0.932c0,0.591-0.428,0.936-0.892,0.936c-0.532,0-0.947-0.204-0.991-0.788H187.997z"/>
		<path d="M191.225,41.028c0,0.464-0.248,0.751-0.584,0.855v-0.295c0.128-0.08,0.272-0.208,0.272-0.528v-0.272h-0.272v-0.704h0.584
			V41.028z"/>
		<path d="M196.688,37.806l1.735-2.774h0.631l-2.087,3.246v2.511h-0.543v-2.471l-2.055-3.286h0.624L196.688,37.806z"/>
		<path d="M199.558,40.438c0.052,0.38,0.328,0.571,0.695,0.571c0.42,0,0.676-0.319,0.676-0.719c0-0.42-0.272-0.716-0.7-0.716
			c-0.252,0-0.456,0.088-0.612,0.292l-0.212-0.028l0.228-1.459h1.399v0.216h-1.184l-0.176,0.948c0.22-0.144,0.364-0.184,0.62-0.184
			c0.516,0,0.892,0.352,0.892,0.932c0,0.591-0.428,0.936-0.892,0.936c-0.532,0-0.947-0.204-0.991-0.788H199.558z"/>
		<path d="M201.833,42.315c0.76-1.104,1.223-2.399,1.223-3.742c0-1.327-0.488-2.599-1.223-3.694h0.408
			c0.879,1.215,1.367,2.215,1.367,3.734c0,1.463-0.503,2.551-1.367,3.702H201.833z"/>
	</g>
</g>
<g>
	<g>
		<path d="M182.264,95.14c-0.76,1.104-1.224,2.398-1.224,3.741c0,1.328,0.488,2.599,1.224,3.694h-0.408
			c-0.879-1.215-1.367-2.215-1.367-3.734c0-1.463,0.503-2.55,1.367-3.701H182.264z"/>
		<path d="M185.144,98.506l-1.671,2.542h-0.616l1.983-2.958l-1.903-2.799h0.632l1.575,2.423l1.583-2.423h0.632l-1.887,2.799
			l1.975,2.958h-0.624L185.144,98.506z"/>
		<path d="M189.348,99.302c-0.056-0.287-0.236-0.476-0.536-0.476c-0.692,0-0.751,0.744-0.792,1.275
			c0.16-0.216,0.328-0.439,0.739-0.439c0.568,0,0.896,0.344,0.896,0.907c0,0.567-0.332,0.916-0.903,0.916
			c-0.563,0-0.987-0.353-0.987-1.348c0-0.668,0.196-1.527,1.023-1.527c0.443,0,0.771,0.24,0.823,0.691H189.348z M188.117,100.578
			c0,0.316,0.176,0.691,0.64,0.691c0.476,0,0.644-0.367,0.644-0.707c0-0.436-0.208-0.684-0.647-0.684
			C188.356,99.878,188.117,100.198,188.117,100.578z"/>
		<path d="M191.225,101.289c0,0.464-0.248,0.751-0.584,0.855v-0.296c0.128-0.08,0.272-0.208,0.272-0.527v-0.272h-0.272v-0.703h0.584
			V101.289z"/>
		<path d="M196.688,98.066l1.735-2.774h0.631l-2.087,3.246v2.511h-0.543v-2.471l-2.055-3.286h0.624L196.688,98.066z"/>
		<path d="M200.909,99.302c-0.056-0.287-0.236-0.476-0.536-0.476c-0.692,0-0.751,0.744-0.792,1.275
			c0.16-0.216,0.328-0.439,0.739-0.439c0.568,0,0.896,0.344,0.896,0.907c0,0.567-0.332,0.916-0.903,0.916
			c-0.563,0-0.987-0.353-0.987-1.348c0-0.668,0.196-1.527,1.023-1.527c0.443,0,0.771,0.24,0.823,0.691H200.909z M199.677,100.578
			c0,0.316,0.176,0.691,0.64,0.691c0.476,0,0.644-0.367,0.644-0.707c0-0.436-0.208-0.684-0.647-0.684
			C199.917,99.878,199.677,100.198,199.677,100.578z"/>
		<path d="M201.833,102.576c0.76-1.104,1.223-2.398,1.223-3.742c0-1.327-0.488-2.599-1.223-3.693h0.408
			c0.879,1.215,1.367,2.215,1.367,3.733c0,1.464-0.503,2.551-1.367,3.702H201.833z"/>
	</g>
</g>
<g>
	<g>
		<path d="M80.002,101.048v-5.757h0.544v5.757H80.002z"/>
		<path d="M82.442,101.048h-0.479v-4.142h0.479v0.575c0.384-0.407,0.76-0.688,1.335-0.688c0.504,0,0.967,0.16,1.263,0.592
			c0.2,0.296,0.208,0.607,0.208,0.951v2.711H84.77v-2.703c0-0.743-0.304-1.119-1.072-1.119c-0.591,0-1,0.384-1.151,0.808
			c-0.096,0.264-0.104,0.496-0.104,0.783V101.048z"/>
	</g>
</g>
<g>
</g>
<g>
</g>
<g>
</g>
<g>
</g>
<g>
</g>
<g>
</g>
<g>
</g>
<g>
</g>
<g>
</g>
<g>
</g>
<g>
</g>
<g>
</g>
<g>
</g>
<g>
</g>
<g>
</g>
<g>
</g>
</svg>
