<?xml version="1.0" encoding="utf-8"?>
<!-- Generator: Adobe Illustrator 28.2.0, SVG Export Plug-In . SVG Version: 6.00 Build 0)  -->
<svg version="1.1" xmlns="http://www.w3.org/2000/svg" xmlns:xlink="http://www.w3.org/1999/xlink" x="0px" y="0px"
	 width="269.003px" height="67.992px" viewBox="0 0 269.003 67.992" style="enable-background:new 0 0 269.003 67.992;"
	 xml:space="preserve">
<style type="text/css">
	.st0{fill:none;stroke:#000000;stroke-width:0.5;stroke-miterlimit:10;}
	.st1{fill:none;stroke:#000000;stroke-width:1.5;stroke-miterlimit:10;}
</style>
<g id="レイヤー_1">
	<g>
		<g>
			<path d="M267.753,50.026v16.716H34.894V50.026H267.753 M268.253,49.526H34.394v17.716h233.858V49.526L268.253,49.526z"/>
		</g>
		<line class="st0" x1="55.654" y1="67.242" x2="55.654" y2="49.526"/>
		<line class="st0" x1="76.914" y1="67.242" x2="76.914" y2="49.526"/>
		<line class="st0" x1="98.174" y1="67.242" x2="98.174" y2="49.526"/>
		<line class="st0" x1="119.434" y1="67.242" x2="119.434" y2="49.526"/>
		<line class="st0" x1="140.694" y1="67.242" x2="140.694" y2="49.526"/>
		<line class="st0" x1="161.953" y1="67.242" x2="161.953" y2="49.526"/>
		<line class="st0" x1="183.213" y1="67.242" x2="183.213" y2="49.526"/>
		<line class="st0" x1="204.473" y1="67.242" x2="204.473" y2="49.526"/>
		<line class="st0" x1="225.733" y1="67.242" x2="225.733" y2="49.526"/>
		<line class="st0" x1="246.993" y1="67.242" x2="246.993" y2="49.526"/>
	</g>
	<g>
		<g>
			<path d="M267.753,9.341v16.716H34.894V9.341H267.753 M268.253,8.841H34.394v17.716h233.858V8.841L268.253,8.841z"/>
		</g>
		<line class="st0" x1="55.654" y1="26.558" x2="55.654" y2="8.841"/>
		<line class="st0" x1="76.914" y1="26.558" x2="76.914" y2="8.841"/>
		<line class="st0" x1="98.174" y1="26.558" x2="98.174" y2="8.841"/>
		<line class="st0" x1="119.434" y1="26.558" x2="119.434" y2="8.841"/>
		<line class="st0" x1="140.694" y1="26.558" x2="140.694" y2="8.841"/>
		<line class="st0" x1="161.953" y1="26.558" x2="161.953" y2="8.841"/>
		<line class="st0" x1="183.213" y1="26.558" x2="183.213" y2="8.841"/>
		<line class="st0" x1="204.473" y1="26.558" x2="204.473" y2="8.841"/>
		<line class="st0" x1="225.733" y1="26.558" x2="225.733" y2="8.841"/>
		<line class="st0" x1="246.993" y1="26.558" x2="246.993" y2="8.841"/>
	</g>
</g>
<g id="レイヤー_2">
	<g>
		<g>
			<path d="M40.767,16.776h-1.455V16.44c0.855-0.056,1.391-0.144,1.559-1.111h0.408v5.637h-0.512V16.776z"/>
			<path d="M46.927,18.248c0,1.495-0.352,2.83-1.903,2.83c-1.559,0-1.911-1.327-1.911-2.886c0-1.423,0.288-2.862,1.911-2.862
				C46.695,15.329,46.927,16.936,46.927,18.248z M45.008,15.761c-1.12,0-1.383,1.239-1.383,2.487c0,1.447,0.32,2.398,1.399,2.398
				c1.215,0,1.392-1.319,1.392-2.455C46.415,16.976,46.199,15.761,45.008,15.761z"/>
			<path d="M51.374,18.248c0,1.495-0.352,2.83-1.903,2.83c-1.559,0-1.911-1.327-1.911-2.886c0-1.423,0.288-2.862,1.911-2.862
				C51.143,15.329,51.374,16.936,51.374,18.248z M49.455,15.761c-1.119,0-1.383,1.239-1.383,2.487c0,1.447,0.32,2.398,1.399,2.398
				c1.215,0,1.391-1.319,1.391-2.455C50.862,16.976,50.647,15.761,49.455,15.761z"/>
		</g>
		<g>
			<path d="M25.648,4.98V0.663h0.408V4.98H25.648z"/>
			<path d="M27.477,4.98h-0.36V1.874h0.36v0.432C27.765,2,28.047,1.79,28.479,1.79c0.378,0,0.726,0.12,0.948,0.444
				c0.15,0.222,0.156,0.456,0.156,0.714V4.98h-0.36V2.953c0-0.558-0.228-0.839-0.804-0.839c-0.444,0-0.75,0.288-0.863,0.605
				c-0.072,0.198-0.078,0.372-0.078,0.588V4.98z"/>
			<path d="M32.33,0.548c1.35,0,2.033,1.014,2.033,2.279c0,1.241-0.684,2.267-2.015,2.267c-1.331,0-2.009-1.025-2.009-2.267
				C30.334,1.568,31.041,0.548,32.33,0.548z M33.955,2.827c0-1.199-0.617-1.931-1.613-1.931c-1.109,0-1.595,0.93-1.595,1.931
				c0,1.02,0.48,1.919,1.607,1.919C33.476,4.746,33.955,3.834,33.955,2.827z"/>
			<path d="M37.226,1.874h0.36V4.98h-0.36V4.548c-0.192,0.216-0.456,0.516-1.001,0.516c-0.828,0-1.104-0.498-1.104-1.146V1.874h0.36
				v2.039c0,0.534,0.234,0.828,0.798,0.828c0.593,0,0.947-0.492,0.947-1.175V1.874z"/>
			<path d="M39.548,4.992c-0.083,0.018-0.24,0.072-0.414,0.072c-0.354,0-0.552-0.156-0.552-0.618V2.173h-0.438v-0.3h0.438V1.01h0.36
				v0.863h0.582v0.3h-0.582v2.129c0,0.306,0.012,0.438,0.312,0.438c0.096,0,0.198-0.018,0.293-0.042V4.992z"/>
			<path d="M40.239,6.125V0.548h1.145v0.3h-0.761v4.978h0.75v0.3H40.239z"/>
			<path d="M45.241,1.916c-0.167-0.737-0.624-1.02-1.361-1.02c-1.043,0-1.493,0.894-1.493,1.913c0,0.965,0.354,1.937,1.529,1.937
				c0.744,0,1.206-0.504,1.367-1.188h0.426c-0.192,0.833-0.713,1.535-1.871,1.535c-1.332,0-1.859-1.049-1.859-2.272
				c0-1.649,0.863-2.273,2.009-2.273c0.887,0,1.535,0.474,1.673,1.367H45.241z"/>
			<path d="M46.252,3.427c0-0.905,0.479-1.637,1.439-1.637c0.972,0,1.439,0.726,1.439,1.637c0,0.983-0.57,1.637-1.439,1.637
				C46.899,5.052,46.252,4.512,46.252,3.427z M47.691,2.114c-0.755,0-1.055,0.642-1.055,1.313c0,0.773,0.366,1.313,1.055,1.313
				c0.756,0,1.056-0.648,1.056-1.313C48.74,2.695,48.452,2.114,47.691,2.114z"/>
			<path d="M51.896,1.874h0.36V4.98h-0.36V4.548c-0.192,0.216-0.456,0.516-1.001,0.516c-0.828,0-1.104-0.498-1.104-1.146V1.874h0.36
				v2.039c0,0.534,0.234,0.828,0.798,0.828c0.593,0,0.947-0.492,0.947-1.175V1.874z"/>
			<path d="M53.487,4.98h-0.36V1.874h0.36v0.432C53.775,2,54.057,1.79,54.488,1.79c0.378,0,0.726,0.12,0.948,0.444
				c0.15,0.222,0.156,0.456,0.156,0.714V4.98h-0.36V2.953c0-0.558-0.228-0.839-0.804-0.839c-0.444,0-0.75,0.288-0.863,0.605
				c-0.072,0.198-0.078,0.372-0.078,0.588V4.98z"/>
			<path d="M57.554,4.992c-0.083,0.018-0.24,0.072-0.414,0.072c-0.354,0-0.552-0.156-0.552-0.618V2.173h-0.438v-0.3h0.438V1.01h0.36
				v0.863h0.582v0.3h-0.582v2.129c0,0.306,0.012,0.438,0.312,0.438c0.096,0,0.198-0.018,0.293-0.042V4.992z"/>
			<path d="M59.456,3.235v0.372h-1.517V3.235H59.456z"/>
			<path d="M61.508,1.838h-1.091V1.586c0.642-0.042,1.043-0.108,1.169-0.833h0.306V4.98h-0.384V1.838z"/>
			<path d="M64.484,6.125h-1.146v-0.3h0.762V0.848h-0.75v-0.3h1.133V6.125z"/>
		</g>
		<g>
			<path d="M247.249,4.98V0.663h0.407V4.98H247.249z"/>
			<path d="M249.079,4.98h-0.36V1.874h0.36v0.432C249.366,2,249.649,1.79,250.08,1.79c0.378,0,0.726,0.12,0.947,0.444
				c0.15,0.222,0.156,0.456,0.156,0.714V4.98h-0.36V2.953c0-0.558-0.228-0.839-0.803-0.839c-0.444,0-0.75,0.288-0.864,0.605
				c-0.071,0.198-0.077,0.372-0.077,0.588V4.98z"/>
			<path d="M253.932,0.548c1.35,0,2.033,1.014,2.033,2.279c0,1.241-0.684,2.267-2.015,2.267c-1.332,0-2.01-1.025-2.01-2.267
				C251.935,1.568,252.643,0.548,253.932,0.548z M255.557,2.827c0-1.199-0.617-1.931-1.613-1.931c-1.109,0-1.595,0.93-1.595,1.931
				c0,1.02,0.479,1.919,1.607,1.919C255.077,4.746,255.557,3.834,255.557,2.827z"/>
			<path d="M258.827,1.874h0.36V4.98h-0.36V4.548c-0.191,0.216-0.455,0.516-1.001,0.516c-0.827,0-1.104-0.498-1.104-1.146V1.874
				h0.36v2.039c0,0.534,0.233,0.828,0.797,0.828c0.594,0,0.947-0.492,0.947-1.175V1.874z"/>
			<path d="M261.151,4.992c-0.084,0.018-0.24,0.072-0.414,0.072c-0.354,0-0.552-0.156-0.552-0.618V2.173h-0.438v-0.3h0.438V1.01
				h0.36v0.863h0.581v0.3h-0.581v2.129c0,0.306,0.012,0.438,0.312,0.438c0.096,0,0.197-0.018,0.294-0.042V4.992z"/>
			<path d="M261.841,6.125V0.548h1.146v0.3h-0.762v4.978h0.749v0.3H261.841z"/>
			<path d="M266.388,2.941c0,1.122-0.265,2.123-1.428,2.123c-1.169,0-1.434-0.996-1.434-2.165c0-1.067,0.217-2.146,1.434-2.146
				C266.213,0.752,266.388,1.958,266.388,2.941z M264.948,1.076c-0.84,0-1.038,0.929-1.038,1.865c0,1.085,0.24,1.799,1.05,1.799
				c0.911,0,1.044-0.99,1.044-1.841C266.004,1.988,265.842,1.076,264.948,1.076z"/>
			<path d="M268.08,6.125h-1.146v-0.3h0.762V0.848h-0.75v-0.3h1.134V6.125z"/>
		</g>
		<g>
			<path d="M62.779,19.727c0.12,0.6,0.472,0.919,1.096,0.919c1.335,0,1.519-1.487,1.567-2.502l-0.016-0.016
				c-0.344,0.567-0.847,0.879-1.519,0.879c-1.055,0-1.743-0.72-1.743-1.815c0-1.063,0.584-1.863,1.815-1.863
				c1.52,0,1.975,1.271,1.975,2.846c0,1.911-0.863,2.902-2.055,2.902c-0.879,0-1.551-0.432-1.639-1.351H62.779z M62.675,17.208
				c0,0.855,0.48,1.367,1.303,1.367c0.8,0,1.264-0.64,1.264-1.399c0-0.832-0.472-1.399-1.264-1.415
				C63.115,15.777,62.675,16.329,62.675,17.208z"/>
			<path d="M67.076,19.502c0.104,0.76,0.656,1.144,1.391,1.144c0.84,0,1.352-0.64,1.352-1.439c0-0.839-0.544-1.431-1.399-1.431
				c-0.504,0-0.912,0.176-1.223,0.584l-0.424-0.056l0.456-2.918h2.799v0.432h-2.367l-0.352,1.895
				c0.44-0.288,0.728-0.368,1.239-0.368c1.031,0,1.783,0.704,1.783,1.863c0,1.184-0.855,1.871-1.783,1.871
				c-1.063,0-1.895-0.408-1.983-1.575H67.076z"/>
		</g>
		<g>
			<path d="M84.039,19.727c0.12,0.6,0.472,0.919,1.096,0.919c1.335,0,1.519-1.487,1.567-2.502l-0.016-0.016
				c-0.344,0.567-0.847,0.879-1.519,0.879c-1.055,0-1.743-0.72-1.743-1.815c0-1.063,0.584-1.863,1.815-1.863
				c1.52,0,1.975,1.271,1.975,2.846c0,1.911-0.863,2.902-2.055,2.902c-0.879,0-1.551-0.432-1.639-1.351H84.039z M83.935,17.208
				c0,0.855,0.48,1.367,1.303,1.367c0.8,0,1.264-0.64,1.264-1.399c0-0.832-0.472-1.399-1.264-1.415
				C84.375,15.777,83.935,16.329,83.935,17.208z"/>
			<path d="M91.67,18.248c0,1.495-0.352,2.83-1.903,2.83c-1.559,0-1.911-1.327-1.911-2.886c0-1.423,0.288-2.862,1.911-2.862
				C91.438,15.329,91.67,16.936,91.67,18.248z M89.751,15.761c-1.12,0-1.383,1.239-1.383,2.487c0,1.447,0.32,2.398,1.399,2.398
				c1.215,0,1.392-1.319,1.392-2.455C91.158,16.976,90.942,15.761,89.751,15.761z"/>
		</g>
		<g>
			<path d="M104.907,16.704c0-0.775,0.72-1.407,1.607-1.375c0.864,0,1.703,0.408,1.703,1.375c0,0.583-0.232,1-0.768,1.263
				c0.616,0.224,1,0.744,1,1.399c0,1.104-0.784,1.711-1.983,1.711c-0.815,0-1.759-0.56-1.759-1.663c0-0.671,0.344-1.231,0.984-1.479
				C105.147,17.592,104.907,17.376,104.907,16.704z M105.219,19.415c0,0.696,0.544,1.231,1.399,1.231
				c0.744,0,1.319-0.512,1.319-1.263c0-0.792-0.6-1.175-1.351-1.175C105.803,18.208,105.219,18.583,105.219,19.415z M105.419,16.776
				c0,0.696,0.576,1,1.199,1c0.616,0,1.087-0.312,1.087-1.111c0-0.567-0.368-0.903-1.143-0.903
				C105.931,15.761,105.419,16.112,105.419,16.776z"/>
			<path d="M109.595,19.502c0.104,0.76,0.656,1.144,1.391,1.144c0.84,0,1.352-0.64,1.352-1.439c0-0.839-0.544-1.431-1.399-1.431
				c-0.504,0-0.912,0.176-1.223,0.584l-0.424-0.056l0.456-2.918h2.799v0.432h-2.367l-0.352,1.895
				c0.44-0.288,0.728-0.368,1.239-0.368c1.031,0,1.783,0.704,1.783,1.863c0,1.184-0.855,1.871-1.783,1.871
				c-1.063,0-1.895-0.408-1.983-1.575H109.595z"/>
		</g>
		<g>
			<path d="M127.11,17.884c0,0.208-0.168,0.392-0.384,0.392s-0.392-0.184-0.392-0.392s0.192-0.384,0.392-0.384
				C126.935,17.5,127.11,17.676,127.11,17.884z"/>
			<path d="M133.782,17.884c0,0.208-0.168,0.392-0.384,0.392s-0.392-0.184-0.392-0.392s0.192-0.384,0.392-0.384
				C133.607,17.5,133.782,17.676,133.782,17.884z"/>
		</g>
		<g>
			<path d="M148.37,17.884c0,0.208-0.168,0.392-0.384,0.392s-0.392-0.184-0.392-0.392s0.192-0.384,0.392-0.384
				C148.194,17.5,148.37,17.676,148.37,17.884z"/>
			<path d="M155.042,17.884c0,0.208-0.168,0.392-0.384,0.392s-0.392-0.184-0.392-0.392s0.192-0.384,0.392-0.384
				C154.866,17.5,155.042,17.676,155.042,17.884z"/>
		</g>
		<g>
			<path d="M169.63,17.884c0,0.208-0.168,0.392-0.384,0.392s-0.392-0.184-0.392-0.392s0.192-0.384,0.392-0.384
				C169.455,17.5,169.63,17.676,169.63,17.884z"/>
			<path d="M176.302,17.884c0,0.208-0.168,0.392-0.384,0.392s-0.392-0.184-0.392-0.392s0.192-0.384,0.392-0.384
				C176.127,17.5,176.302,17.676,176.302,17.884z"/>
		</g>
		<g>
			<path d="M189.947,17.176c0-1.111,0.72-1.847,1.831-1.847c1.136,0,1.735,0.695,1.735,1.559c0,1.495-1.615,1.871-2.455,2.511
				c-0.368,0.28-0.712,0.6-0.735,1.135h3.142v0.432h-3.686c0.008-0.536,0.08-0.959,0.439-1.375c1.176-1.359,2.734-1.343,2.734-2.67
				c0-0.735-0.543-1.159-1.239-1.159c-0.735,0-1.255,0.656-1.223,1.415H189.947z"/>
			<path d="M194.636,19.502c0.104,0.76,0.655,1.144,1.391,1.144c0.84,0,1.352-0.64,1.352-1.439c0-0.839-0.544-1.431-1.399-1.431
				c-0.504,0-0.911,0.176-1.224,0.584l-0.424-0.056l0.456-2.918h2.799v0.432h-2.367l-0.352,1.895
				c0.439-0.288,0.728-0.368,1.239-0.368c1.031,0,1.783,0.704,1.783,1.863c0,1.184-0.855,1.871-1.783,1.871
				c-1.063,0-1.895-0.408-1.982-1.575H194.636z"/>
		</g>
		<g>
			<path d="M211.207,17.176c0-1.111,0.72-1.847,1.831-1.847c1.136,0,1.735,0.695,1.735,1.559c0,1.495-1.615,1.871-2.455,2.511
				c-0.368,0.28-0.712,0.6-0.735,1.135h3.142v0.432h-3.686c0.008-0.536,0.08-0.959,0.439-1.375c1.176-1.359,2.734-1.343,2.734-2.67
				c0-0.735-0.543-1.159-1.239-1.159c-0.735,0-1.255,0.656-1.223,1.415H211.207z"/>
			<path d="M219.23,18.248c0,1.495-0.353,2.83-1.903,2.83c-1.559,0-1.911-1.327-1.911-2.886c0-1.423,0.288-2.862,1.911-2.862
				C218.997,15.329,219.23,16.936,219.23,18.248z M217.311,15.761c-1.119,0-1.384,1.239-1.384,2.487c0,1.447,0.32,2.398,1.399,2.398
				c1.216,0,1.392-1.319,1.392-2.455C218.718,16.976,218.502,15.761,217.311,15.761z"/>
		</g>
		<g>
			<path d="M234.33,16.776h-1.455V16.44c0.855-0.056,1.391-0.144,1.559-1.111h0.408v5.637h-0.512V16.776z"/>
			<path d="M237.155,19.502c0.104,0.76,0.655,1.144,1.391,1.144c0.84,0,1.352-0.64,1.352-1.439c0-0.839-0.544-1.431-1.399-1.431
				c-0.504,0-0.911,0.176-1.224,0.584l-0.424-0.056l0.456-2.918h2.799v0.432h-2.367l-0.352,1.895
				c0.439-0.288,0.728-0.368,1.239-0.368c1.031,0,1.783,0.704,1.783,1.863c0,1.184-0.855,1.871-1.783,1.871
				c-1.063,0-1.895-0.408-1.982-1.575H237.155z"/>
		</g>
		<g>
			<path d="M255.59,16.776h-1.455V16.44c0.855-0.056,1.391-0.144,1.559-1.111h0.408v5.637h-0.512V16.776z"/>
			<path d="M261.749,18.248c0,1.495-0.353,2.83-1.903,2.83c-1.559,0-1.911-1.327-1.911-2.886c0-1.423,0.288-2.862,1.911-2.862
				C261.517,15.329,261.749,16.936,261.749,18.248z M259.83,15.761c-1.119,0-1.384,1.239-1.384,2.487
				c0,1.447,0.32,2.398,1.399,2.398c1.216,0,1.392-1.319,1.392-2.455C261.237,16.976,261.022,15.761,259.83,15.761z"/>
		</g>
		<g>
			<path d="M41.52,60.076c0.12,0.6,0.472,0.919,1.096,0.919c1.335,0,1.519-1.487,1.567-2.502l-0.016-0.016
				c-0.344,0.567-0.847,0.879-1.519,0.879c-1.055,0-1.743-0.72-1.743-1.815c0-1.063,0.584-1.863,1.815-1.863
				c1.52,0,1.975,1.271,1.975,2.846c0,1.911-0.863,2.902-2.055,2.902c-0.879,0-1.551-0.432-1.639-1.351H41.52z M41.416,57.557
				c0,0.855,0.48,1.367,1.303,1.367c0.8,0,1.264-0.64,1.264-1.399c0-0.832-0.472-1.399-1.264-1.415
				C41.856,56.126,41.416,56.678,41.416,57.557z"/>
			<path d="M49.151,58.597c0,1.495-0.352,2.83-1.903,2.83c-1.559,0-1.911-1.327-1.911-2.886c0-1.423,0.288-2.862,1.911-2.862
				C48.919,55.678,49.151,57.285,49.151,58.597z M47.232,56.11c-1.12,0-1.383,1.239-1.383,2.487c0,1.447,0.32,2.398,1.399,2.398
				c1.215,0,1.392-1.319,1.392-2.455C48.639,57.325,48.422,56.11,47.232,56.11z"/>
		</g>
		<g>
			<path d="M62.388,57.053c0-0.775,0.72-1.407,1.607-1.375c0.864,0,1.703,0.408,1.703,1.375c0,0.583-0.232,1-0.768,1.263
				c0.616,0.224,1,0.744,1,1.399c0,1.104-0.784,1.711-1.983,1.711c-0.815,0-1.759-0.56-1.759-1.663c0-0.671,0.344-1.231,0.984-1.479
				C62.628,57.941,62.388,57.725,62.388,57.053z M62.699,59.764c0,0.696,0.544,1.231,1.399,1.231c0.744,0,1.319-0.512,1.319-1.263
				c0-0.792-0.6-1.175-1.351-1.175C63.283,58.557,62.699,58.932,62.699,59.764z M62.9,57.125c0,0.696,0.576,1,1.199,1
				c0.616,0,1.087-0.312,1.087-1.111c0-0.567-0.368-0.903-1.143-0.903C63.411,56.11,62.9,56.461,62.9,57.125z"/>
			<path d="M67.076,59.852c0.104,0.76,0.656,1.144,1.391,1.144c0.84,0,1.352-0.64,1.352-1.439c0-0.839-0.544-1.431-1.399-1.431
				c-0.504,0-0.912,0.176-1.223,0.584l-0.424-0.056l0.456-2.918h2.799v0.432h-2.367l-0.352,1.895
				c0.44-0.288,0.728-0.368,1.239-0.368c1.031,0,1.783,0.704,1.783,1.863c0,1.184-0.855,1.871-1.783,1.871
				c-1.063,0-1.895-0.408-1.983-1.575H67.076z"/>
		</g>
		<g>
			<path d="M84.591,58.233c0,0.208-0.168,0.392-0.384,0.392s-0.392-0.184-0.392-0.392s0.192-0.384,0.392-0.384
				C84.415,57.849,84.591,58.025,84.591,58.233z"/>
			<path d="M91.263,58.233c0,0.208-0.168,0.392-0.384,0.392s-0.392-0.184-0.392-0.392s0.192-0.384,0.392-0.384
				C91.087,57.849,91.263,58.025,91.263,58.233z"/>
		</g>
		<g>
			<path d="M105.851,58.233c0,0.208-0.168,0.392-0.384,0.392s-0.392-0.184-0.392-0.392s0.192-0.384,0.392-0.384
				C105.675,57.849,105.851,58.025,105.851,58.233z"/>
			<path d="M112.523,58.233c0,0.208-0.168,0.392-0.384,0.392s-0.392-0.184-0.392-0.392s0.192-0.384,0.392-0.384
				C112.347,57.849,112.523,58.025,112.523,58.233z"/>
		</g>
		<g>
			<path d="M127.111,58.233c0,0.208-0.168,0.392-0.384,0.392s-0.392-0.184-0.392-0.392s0.192-0.384,0.392-0.384
				C126.935,57.849,127.111,58.025,127.111,58.233z"/>
			<path d="M133.783,58.233c0,0.208-0.168,0.392-0.384,0.392s-0.392-0.184-0.392-0.392s0.192-0.384,0.392-0.384
				C133.607,57.849,133.783,58.025,133.783,58.233z"/>
		</g>
		<g>
			<path d="M147.428,57.525c0-1.111,0.72-1.847,1.831-1.847c1.136,0,1.735,0.695,1.735,1.559c0,1.495-1.615,1.871-2.455,2.511
				c-0.368,0.28-0.712,0.6-0.735,1.135h3.142v0.432h-3.686c0.008-0.536,0.08-0.959,0.439-1.375c1.176-1.359,2.734-1.343,2.734-2.67
				c0-0.735-0.543-1.159-1.239-1.159c-0.735,0-1.255,0.656-1.223,1.415H147.428z"/>
			<path d="M152.116,59.852c0.104,0.76,0.655,1.144,1.391,1.144c0.84,0,1.352-0.64,1.352-1.439c0-0.839-0.544-1.431-1.399-1.431
				c-0.504,0-0.911,0.176-1.224,0.584l-0.424-0.056l0.456-2.918h2.799v0.432h-2.367l-0.352,1.895
				c0.439-0.288,0.728-0.368,1.239-0.368c1.031,0,1.783,0.704,1.783,1.863c0,1.184-0.855,1.871-1.783,1.871
				c-1.063,0-1.895-0.408-1.982-1.575H152.116z"/>
		</g>
		<g>
			<path d="M168.688,57.525c0-1.111,0.72-1.847,1.831-1.847c1.136,0,1.735,0.695,1.735,1.559c0,1.495-1.615,1.871-2.455,2.511
				c-0.368,0.28-0.712,0.6-0.735,1.135h3.142v0.432h-3.686c0.008-0.536,0.08-0.959,0.439-1.375c1.176-1.359,2.734-1.343,2.734-2.67
				c0-0.735-0.543-1.159-1.239-1.159c-0.735,0-1.255,0.656-1.223,1.415H168.688z"/>
			<path d="M176.71,58.597c0,1.495-0.353,2.83-1.903,2.83c-1.559,0-1.911-1.327-1.911-2.886c0-1.423,0.288-2.862,1.911-2.862
				C176.478,55.678,176.71,57.285,176.71,58.597z M174.791,56.11c-1.119,0-1.384,1.239-1.384,2.487c0,1.447,0.32,2.398,1.399,2.398
				c1.216,0,1.392-1.319,1.392-2.455C176.198,57.325,175.983,56.11,174.791,56.11z"/>
		</g>
		<g>
			<path d="M191.811,57.125h-1.455V56.79c0.855-0.056,1.391-0.144,1.559-1.111h0.408v5.637h-0.512V57.125z"/>
			<path d="M194.636,59.852c0.104,0.76,0.655,1.144,1.391,1.144c0.84,0,1.352-0.64,1.352-1.439c0-0.839-0.544-1.431-1.399-1.431
				c-0.504,0-0.911,0.176-1.224,0.584l-0.424-0.056l0.456-2.918h2.799v0.432h-2.367l-0.352,1.895
				c0.439-0.288,0.728-0.368,1.239-0.368c1.031,0,1.783,0.704,1.783,1.863c0,1.184-0.855,1.871-1.783,1.871
				c-1.063,0-1.895-0.408-1.982-1.575H194.636z"/>
		</g>
		<g>
			<path d="M213.07,57.125h-1.455V56.79c0.855-0.056,1.391-0.144,1.559-1.111h0.408v5.637h-0.512V57.125z"/>
			<path d="M219.23,58.597c0,1.495-0.353,2.83-1.903,2.83c-1.559,0-1.911-1.327-1.911-2.886c0-1.423,0.288-2.862,1.911-2.862
				C218.997,55.678,219.23,57.285,219.23,58.597z M217.311,56.11c-1.119,0-1.384,1.239-1.384,2.487c0,1.447,0.32,2.398,1.399,2.398
				c1.216,0,1.392-1.319,1.392-2.455C218.718,57.325,218.502,56.11,217.311,56.11z"/>
		</g>
		<g>
			<path d="M238.266,58.597c0,1.495-0.352,2.83-1.903,2.83c-1.559,0-1.911-1.327-1.911-2.886c0-1.423,0.288-2.862,1.911-2.862
				C238.033,55.678,238.266,57.285,238.266,58.597z M236.347,56.11c-1.12,0-1.384,1.239-1.384,2.487c0,1.447,0.32,2.398,1.399,2.398
				c1.216,0,1.392-1.319,1.392-2.455C237.754,57.325,237.538,56.11,236.347,56.11z"/>
		</g>
		<g>
			<path d="M259.526,58.597c0,1.495-0.352,2.83-1.903,2.83c-1.559,0-1.911-1.327-1.911-2.886c0-1.423,0.288-2.862,1.911-2.862
				C259.293,55.678,259.526,57.285,259.526,58.597z M257.607,56.11c-1.12,0-1.384,1.239-1.384,2.487c0,1.447,0.32,2.398,1.399,2.398
				c1.216,0,1.392-1.319,1.392-2.455C259.014,57.325,258.798,56.11,257.607,56.11z"/>
		</g>
	</g>
	<g>
		<g>
			<path d="M11.392,20.966v-5.757h0.544v5.757H11.392z"/>
			<path d="M13.832,20.966h-0.48v-4.142h0.48V17.4c0.384-0.408,0.759-0.688,1.335-0.688c0.504,0,0.968,0.16,1.263,0.591
				c0.2,0.296,0.208,0.608,0.208,0.952v2.71h-0.479v-2.703c0-0.744-0.304-1.119-1.072-1.119c-0.591,0-0.999,0.384-1.151,0.808
				c-0.096,0.264-0.104,0.496-0.104,0.783V20.966z"/>
		</g>
		<g>
			<path d="M3.955,59.109v2.615H3.412v-5.757h2.255c1.263,0,1.959,0.448,1.959,1.511c0,0.728-0.272,1.111-0.936,1.407
				c0.68,0.232,0.719,0.952,0.735,1.559c0.024,0.872,0.096,1.111,0.24,1.223v0.056h-0.6c-0.224-0.392-0.168-1.471-0.256-1.911
				c-0.128-0.624-0.6-0.704-1.143-0.704H3.955z M5.651,58.646c0.808,0,1.431-0.336,1.431-1.144c0-0.863-0.671-1.071-1.399-1.071
				H3.955v2.215H5.651z"/>
			<path d="M8.98,59.765c-0.008,0.896,0.472,1.639,1.391,1.639c0.624,0,1.111-0.344,1.255-0.952h0.536
				c-0.24,0.784-0.735,1.383-1.791,1.383c-1.327,0-1.903-0.943-1.903-2.167c0-1.208,0.72-2.199,1.903-2.199
				c1.135,0,1.831,0.808,1.823,2.295H8.98z M11.682,59.365c0-0.807-0.448-1.463-1.312-1.463c-0.848,0-1.295,0.68-1.391,1.463H11.682
				z"/>
			<path d="M13.412,60.429c0.152,0.712,0.52,0.976,1.239,0.976c0.696,0,1.023-0.368,1.023-0.768c0-1.199-2.654-0.352-2.654-1.983
				c0-0.688,0.536-1.184,1.455-1.184c0.896,0,1.479,0.368,1.599,1.304h-0.488c-0.088-0.64-0.52-0.872-1.119-0.872
				c-0.608,0-0.936,0.288-0.936,0.711c0,1.127,2.654,0.424,2.654,2.015c0,0.792-0.711,1.207-1.687,1.207s-1.535-0.624-1.575-1.407
				H13.412z"/>
			<path d="M19.939,57.583h0.479v4.142h-0.479v-0.576c-0.256,0.288-0.608,0.688-1.335,0.688c-1.104,0-1.471-0.664-1.471-1.527
				v-2.727h0.479v2.718c0,0.712,0.312,1.104,1.063,1.104c0.792,0,1.264-0.656,1.264-1.567V57.583z"/>
			<path d="M21.651,61.724v-5.757h0.48v5.757H21.651z"/>
			<path d="M24.811,61.74c-0.112,0.024-0.32,0.096-0.552,0.096c-0.472,0-0.735-0.208-0.735-0.823v-3.031H22.94v-0.399h0.584v-1.151
				h0.479v1.151h0.776v0.399h-0.776v2.839c0,0.408,0.016,0.583,0.416,0.583c0.128,0,0.264-0.024,0.392-0.056V61.74z"/>
		</g>
	</g>
	<rect x="76.914" y="8.841" class="st1" width="191.339" height="17.716"/>
	<rect x="34.394" y="49.526" class="st1" width="191.339" height="17.716"/>
	<g>
		<g>
			<line class="st0" x1="130.064" y1="26.541" x2="99.32" y2="48.711"/>
			<g>
				<polygon points="100.787,45.692 101.201,45.974 99.36,48.682 102.511,47.791 102.647,48.272 98.174,49.537 				"/>
			</g>
		</g>
	</g>
	<g>
	</g>
	<g>
	</g>
	<g>
	</g>
	<g>
	</g>
	<g>
	</g>
	<g>
	</g>
	<g>
	</g>
	<g>
	</g>
	<g>
	</g>
	<g>
	</g>
	<g>
	</g>
	<g>
	</g>
	<g>
	</g>
	<g>
	</g>
	<g>
	</g>
	<g>
	</g>
</g>
</svg>
