<?xml version="1.0" encoding="utf-8"?>
<!-- Generator: Adobe Illustrator 28.2.0, SVG Export Plug-In . SVG Version: 6.00 Build 0)  -->
<svg version="1.1" xmlns="http://www.w3.org/2000/svg" xmlns:xlink="http://www.w3.org/1999/xlink" x="0px" y="0px"
	 width="284.819px" height="79.216px" viewBox="0 0 284.819 79.216" style="enable-background:new 0 0 284.819 79.216;"
	 xml:space="preserve">
<style type="text/css">
	.st0{fill:none;stroke:#000000;stroke-width:0.5;stroke-miterlimit:10;}
	.st1{fill:#FF0000;}
	.st2{fill:#008DFF;}
	.st3{fill:#00B300;}
</style>
<g id="レイヤー_1">
	<g>
		<g>
			<path d="M220.264,61.999v16.716H8.666V61.999H220.264 M220.764,61.499H8.166v17.716h212.598V61.499L220.764,61.499z"/>
		</g>
		<line class="st0" x1="29.426" y1="79.216" x2="29.426" y2="61.499"/>
		<line class="st0" x1="50.685" y1="79.216" x2="50.685" y2="61.499"/>
		<line class="st0" x1="71.945" y1="79.216" x2="71.945" y2="61.499"/>
		<line class="st0" x1="93.205" y1="79.216" x2="93.205" y2="61.499"/>
		<line class="st0" x1="114.465" y1="79.216" x2="114.465" y2="61.499"/>
		<line class="st0" x1="135.725" y1="79.216" x2="135.725" y2="61.499"/>
		<line class="st0" x1="156.985" y1="79.216" x2="156.985" y2="61.499"/>
		<line class="st0" x1="178.245" y1="79.216" x2="178.245" y2="61.499"/>
		<line class="st0" x1="199.504" y1="79.216" x2="199.504" y2="61.499"/>
	</g>
	<g>
		<g>
			<path d="M220.264,21.315v16.716H8.666V21.315H220.264 M220.764,20.815H8.166v17.716h212.598V20.815L220.764,20.815z"/>
		</g>
		<line class="st0" x1="29.426" y1="38.531" x2="29.426" y2="20.815"/>
		<line class="st0" x1="50.685" y1="38.531" x2="50.685" y2="20.815"/>
		<line class="st0" x1="71.945" y1="38.531" x2="71.945" y2="20.815"/>
		<line class="st0" x1="93.205" y1="38.531" x2="93.205" y2="20.815"/>
		<line class="st0" x1="114.465" y1="38.531" x2="114.465" y2="20.815"/>
		<line class="st0" x1="135.725" y1="38.531" x2="135.725" y2="20.815"/>
		<line class="st0" x1="156.985" y1="38.531" x2="156.985" y2="20.815"/>
		<line class="st0" x1="178.245" y1="38.531" x2="178.245" y2="20.815"/>
		<line class="st0" x1="199.504" y1="38.531" x2="199.504" y2="20.815"/>
	</g>
	<g>
		<g>
			<line class="st0" x1="221.306" y1="29.673" x2="237.774" y2="29.673"/>
			<g>
				<polygon points="222.963,31.718 223.304,31.352 221.498,29.674 223.304,27.995 222.963,27.629 220.764,29.674 				"/>
			</g>
		</g>
	</g>
	<g>
		<g>
			<line class="st0" x1="221.306" y1="70.369" x2="237.774" y2="70.369"/>
			<g>
				<polygon points="222.963,72.414 223.304,72.048 221.498,70.369 223.304,68.691 222.963,68.325 220.764,70.369 				"/>
			</g>
		</g>
	</g>
	<g>
		<g>
			<line class="st0" x1="114.465" y1="17.438" x2="114.465" y2="9.475"/>
			<g>
				<polygon points="116.51,15.781 116.144,15.44 114.466,17.246 112.787,15.44 112.421,15.781 114.466,17.98 				"/>
			</g>
		</g>
	</g>
</g>
<g id="レイヤー_2">
	<g>
		<g>
			<path d="M18.986,28.75h-1.455v-0.335c0.855-0.056,1.391-0.144,1.559-1.111h0.408v5.637h-0.512V28.75z"/>
		</g>
		<g>
			<path d="M0.708,15.665c0.066,0.773,0.582,1.055,1.241,1.055c0.773,0,1.097-0.42,1.097-0.894c0-1.337-2.632-0.45-2.632-2.147
				c0-0.6,0.498-1.157,1.463-1.157c0.972,0,1.458,0.588,1.452,1.29h-0.39c0-0.66-0.51-0.942-1.062-0.942
				c-0.827,0-1.127,0.51-1.055,0.954c0.186,1.116,2.632,0.312,2.632,1.985c0,0.792-0.582,1.259-1.577,1.259
				c-0.899,0-1.565-0.468-1.565-1.403H0.708z"/>
			<path d="M4.53,16.954H4.17v-3.106h0.36v0.582h0.012c0.198-0.498,0.492-0.666,1.013-0.666v0.39
				c-0.81-0.018-1.025,0.582-1.025,1.277V16.954z"/>
			<path d="M8.243,14.825c-0.125-0.462-0.443-0.737-0.923-0.737c-0.737,0-1.043,0.671-1.043,1.319c0,0.654,0.3,1.308,1.043,1.308
				c0.534,0,0.87-0.318,0.954-0.833h0.384c-0.126,0.689-0.558,1.157-1.337,1.157c-0.989,0-1.427-0.714-1.427-1.631
				c0-0.863,0.498-1.643,1.427-1.643c0.714,0,1.182,0.342,1.29,1.062H8.243z"/>
			<path d="M9.492,18.099v-5.577h1.145v0.3H9.876v4.978h0.75v0.3H9.492z"/>
			<path d="M11.652,16.024c0.09,0.45,0.354,0.69,0.822,0.69c1.001,0,1.139-1.116,1.175-1.877l-0.012-0.012
				c-0.258,0.426-0.636,0.66-1.139,0.66c-0.792,0-1.307-0.54-1.307-1.361c0-0.797,0.438-1.397,1.361-1.397
				c1.14,0,1.481,0.953,1.481,2.135c0,1.433-0.648,2.177-1.541,2.177c-0.66,0-1.164-0.324-1.229-1.014H11.652z M11.574,14.135
				c0,0.642,0.359,1.025,0.977,1.025c0.6,0,0.948-0.48,0.948-1.049c0-0.624-0.354-1.05-0.948-1.062
				C11.904,13.062,11.574,13.476,11.574,14.135z"/>
			<path d="M15.731,18.099h-1.146v-0.3h0.762v-4.978h-0.75v-0.3h1.133V18.099z"/>
		</g>
		<g>
			<path d="M213.305,15.665c0.066,0.773,0.582,1.055,1.241,1.055c0.774,0,1.098-0.42,1.098-0.894c0-1.337-2.633-0.45-2.633-2.147
				c0-0.6,0.498-1.157,1.464-1.157c0.972,0,1.457,0.588,1.451,1.29h-0.39c0-0.66-0.51-0.942-1.062-0.942
				c-0.828,0-1.128,0.51-1.056,0.954c0.186,1.116,2.633,0.312,2.633,1.985c0,0.792-0.582,1.259-1.577,1.259
				c-0.899,0-1.565-0.468-1.565-1.403H213.305z"/>
			<path d="M217.127,16.954h-0.359v-3.106h0.359v0.582h0.012c0.198-0.498,0.492-0.666,1.014-0.666v0.39
				c-0.81-0.018-1.025,0.582-1.025,1.277V16.954z"/>
			<path d="M220.84,14.825c-0.126-0.462-0.444-0.737-0.924-0.737c-0.737,0-1.043,0.671-1.043,1.319c0,0.654,0.3,1.308,1.043,1.308
				c0.534,0,0.869-0.318,0.953-0.833h0.384c-0.126,0.689-0.558,1.157-1.337,1.157c-0.989,0-1.427-0.714-1.427-1.631
				c0-0.863,0.497-1.643,1.427-1.643c0.714,0,1.182,0.342,1.289,1.062H220.84z"/>
			<path d="M222.089,18.099v-5.577h1.146v0.3h-0.762v4.978h0.749v0.3H222.089z"/>
			<path d="M226.636,14.915c0,1.122-0.265,2.123-1.428,2.123c-1.169,0-1.434-0.996-1.434-2.165c0-1.067,0.217-2.146,1.434-2.146
				C226.461,12.726,226.636,13.931,226.636,14.915z M225.196,13.05c-0.84,0-1.038,0.929-1.038,1.865c0,1.085,0.24,1.799,1.05,1.799
				c0.911,0,1.044-0.99,1.044-1.841C226.252,13.961,226.09,13.05,225.196,13.05z"/>
			<path d="M228.328,18.099h-1.146v-0.3h0.762v-4.978h-0.75v-0.3h1.134V18.099z"/>
		</g>
		<g>
			<path d="M0.486,58.665v-4.317h1.475c0.479,0,0.93,0.03,1.331,0.324c0.57,0.414,0.72,1.253,0.72,1.829
				c0,0.57-0.126,1.206-0.521,1.637c-0.396,0.444-0.959,0.528-1.529,0.528H0.486z M0.894,58.317h0.978
				c0.366,0,0.684-0.024,1.013-0.198c0.576-0.293,0.72-1.031,0.72-1.619c0-0.629-0.138-1.319-0.744-1.643
				c-0.258-0.138-0.629-0.162-0.989-0.162H0.894V58.317z"/>
			<path d="M4.974,57.693c0.114,0.534,0.39,0.732,0.93,0.732c0.521,0,0.768-0.276,0.768-0.576c0-0.899-1.991-0.264-1.991-1.487
				c0-0.516,0.402-0.888,1.092-0.888c0.671,0,1.109,0.276,1.199,0.978H6.605c-0.066-0.479-0.39-0.653-0.84-0.653
				c-0.456,0-0.702,0.216-0.702,0.534c0,0.845,1.991,0.318,1.991,1.511c0,0.594-0.534,0.906-1.266,0.906
				c-0.731,0-1.151-0.468-1.181-1.056H4.974z"/>
			<path d="M8.855,58.677c-0.083,0.018-0.24,0.072-0.414,0.072c-0.354,0-0.552-0.156-0.552-0.618v-2.273H7.452v-0.3H7.89v-0.863
				h0.36v0.863h0.582v0.3H8.25v2.129c0,0.306,0.012,0.438,0.312,0.438c0.096,0,0.198-0.018,0.293-0.042V58.677z"/>
			<path d="M9.546,59.81v-5.577h1.145v0.3H9.93v4.978h0.75v0.3H9.546z"/>
			<path d="M11.706,57.735c0.09,0.45,0.354,0.69,0.822,0.69c1.001,0,1.139-1.116,1.175-1.877l-0.012-0.012
				c-0.258,0.426-0.636,0.66-1.139,0.66c-0.792,0-1.307-0.54-1.307-1.361c0-0.797,0.438-1.397,1.361-1.397
				c1.14,0,1.481,0.953,1.481,2.135c0,1.433-0.648,2.177-1.541,2.177c-0.66,0-1.164-0.324-1.229-1.014H11.706z M11.628,55.846
				c0,0.642,0.359,1.025,0.977,1.025c0.6,0,0.948-0.48,0.948-1.049c0-0.624-0.354-1.05-0.948-1.062
				C11.958,54.772,11.628,55.187,11.628,55.846z"/>
			<path d="M15.785,59.81H14.64v-0.3h0.762v-4.978h-0.75v-0.3h1.133V59.81z"/>
		</g>
		<g>
			<path d="M213.083,58.665v-4.317h1.476c0.479,0,0.93,0.03,1.331,0.324c0.57,0.414,0.72,1.253,0.72,1.829
				c0,0.57-0.126,1.206-0.521,1.637c-0.396,0.444-0.96,0.528-1.529,0.528H213.083z M213.491,58.317h0.978
				c0.365,0,0.684-0.024,1.014-0.198c0.575-0.293,0.72-1.031,0.72-1.619c0-0.629-0.139-1.319-0.744-1.643
				c-0.258-0.138-0.63-0.162-0.989-0.162h-0.978V58.317z"/>
			<path d="M217.571,57.693c0.114,0.534,0.39,0.732,0.93,0.732c0.521,0,0.768-0.276,0.768-0.576c0-0.899-1.991-0.264-1.991-1.487
				c0-0.516,0.402-0.888,1.092-0.888c0.672,0,1.109,0.276,1.199,0.978h-0.366c-0.065-0.479-0.39-0.653-0.839-0.653
				c-0.456,0-0.702,0.216-0.702,0.534c0,0.845,1.991,0.318,1.991,1.511c0,0.594-0.534,0.906-1.266,0.906s-1.151-0.468-1.182-1.056
				H217.571z"/>
			<path d="M221.453,58.677c-0.084,0.018-0.24,0.072-0.414,0.072c-0.354,0-0.552-0.156-0.552-0.618v-2.273h-0.438v-0.3h0.438v-0.863
				h0.36v0.863h0.581v0.3h-0.581v2.129c0,0.306,0.012,0.438,0.312,0.438c0.096,0,0.197-0.018,0.294-0.042V58.677z"/>
			<path d="M222.144,59.81v-5.577h1.146v0.3h-0.762v4.978h0.749v0.3H222.144z"/>
			<path d="M226.69,56.625c0,1.122-0.265,2.123-1.428,2.123c-1.169,0-1.434-0.996-1.434-2.165c0-1.067,0.217-2.146,1.434-2.146
				C226.516,54.437,226.69,55.642,226.69,56.625z M225.251,54.761c-0.84,0-1.038,0.929-1.038,1.865c0,1.085,0.24,1.799,1.05,1.799
				c0.911,0,1.044-0.99,1.044-1.841C226.307,55.672,226.145,54.761,225.251,54.761z"/>
			<path d="M228.383,59.81h-1.146v-0.3h0.762v-4.978h-0.75v-0.3h1.134V59.81z"/>
		</g>
		<g>
			<path d="M40.246,28.75h-1.455v-0.335c0.855-0.056,1.391-0.144,1.559-1.111h0.408v5.637h-0.512V28.75z"/>
		</g>
		<g>
			<path d="M61.506,28.75h-1.455v-0.335c0.855-0.056,1.391-0.144,1.559-1.111h0.408v5.637h-0.512V28.75z"/>
		</g>
		<g>
			<path d="M84.477,30.221c0,1.495-0.352,2.83-1.903,2.83c-1.559,0-1.911-1.327-1.911-2.886c0-1.423,0.288-2.862,1.911-2.862
				C84.245,27.303,84.477,28.91,84.477,30.221z M82.558,27.734c-1.119,0-1.383,1.239-1.383,2.487c0,1.447,0.32,2.398,1.399,2.398
				c1.215,0,1.391-1.319,1.391-2.455C83.965,28.95,83.749,27.734,82.558,27.734z"/>
		</g>
		<g>
			<path d="M105.736,29.938c0,1.495-0.352,2.83-1.903,2.83c-1.559,0-1.911-1.327-1.911-2.886c0-1.423,0.288-2.862,1.911-2.862
				C105.505,27.019,105.736,28.626,105.736,29.938z M103.817,27.451c-1.119,0-1.383,1.239-1.383,2.487
				c0,1.447,0.32,2.398,1.399,2.398c1.215,0,1.391-1.319,1.391-2.455C105.225,28.666,105.009,27.451,103.817,27.451z"/>
		</g>
		<g>
			<path d="M125.285,28.466h-1.455V28.13c0.855-0.056,1.391-0.144,1.559-1.111h0.408v5.637h-0.512V28.466z"/>
		</g>
		<g>
			<path d="M148.256,29.938c0,1.495-0.352,2.83-1.903,2.83c-1.559,0-1.911-1.327-1.911-2.886c0-1.423,0.288-2.862,1.911-2.862
				C148.025,27.019,148.256,28.626,148.256,29.938z M146.337,27.451c-1.119,0-1.383,1.239-1.383,2.487
				c0,1.447,0.32,2.398,1.399,2.398c1.215,0,1.391-1.319,1.391-2.455C147.745,28.666,147.529,27.451,146.337,27.451z"/>
		</g>
		<g>
			<path d="M167.807,28.75h-1.455v-0.335c0.855-0.056,1.391-0.144,1.559-1.111h0.408v5.637h-0.512V28.75z"/>
		</g>
		<g>
			<path d="M190.777,30.221c0,1.495-0.352,2.83-1.903,2.83c-1.559,0-1.911-1.327-1.911-2.886c0-1.423,0.288-2.862,1.911-2.862
				C190.545,27.303,190.777,28.91,190.777,30.221z M188.858,27.734c-1.12,0-1.384,1.239-1.384,2.487c0,1.447,0.32,2.398,1.399,2.398
				c1.216,0,1.392-1.319,1.392-2.455C190.266,28.95,190.05,27.734,188.858,27.734z"/>
		</g>
		<g>
			<path d="M61.042,71.963c-0.008-0.584,0.024-1.047,0.44-1.487c0.463-0.488,1.095-0.912,1.095-1.503
				c0-0.575-0.456-1.031-1.248-1.031c-0.783,0-1.247,0.592-1.223,1.352h-0.488c-0.08-1.063,0.688-1.783,1.727-1.783
				c1.087,0,1.743,0.6,1.743,1.503c0,0.928-0.952,1.264-1.415,1.999c-0.176,0.28-0.168,0.632-0.168,0.952H61.042z M60.994,73.418
				v-0.704h0.583v0.704H60.994z"/>
		</g>
		<g>
			<path d="M82.765,69.228H81.31v-0.335c0.855-0.056,1.391-0.144,1.559-1.111h0.408v5.637h-0.512V69.228z"/>
		</g>
		<g>
			<path d="M105.736,70.7c0,1.495-0.352,2.83-1.903,2.83c-1.559,0-1.911-1.327-1.911-2.886c0-1.423,0.288-2.862,1.911-2.862
				C105.504,67.781,105.736,69.388,105.736,70.7z M103.817,68.213c-1.119,0-1.383,1.239-1.383,2.487c0,1.447,0.32,2.398,1.399,2.398
				c1.215,0,1.391-1.319,1.391-2.455C105.224,69.428,105.008,68.213,103.817,68.213z"/>
		</g>
		<g>
			<path d="M126.996,70.7c0,1.495-0.352,2.83-1.903,2.83c-1.559,0-1.911-1.327-1.911-2.886c0-1.423,0.288-2.862,1.911-2.862
				C126.764,67.781,126.996,69.388,126.996,70.7z M125.077,68.213c-1.119,0-1.383,1.239-1.383,2.487c0,1.447,0.32,2.398,1.399,2.398
				c1.215,0,1.391-1.319,1.391-2.455C126.484,69.428,126.268,68.213,125.077,68.213z"/>
		</g>
		<g>
			<path d="M146.544,68.944h-1.455v-0.335c0.855-0.056,1.391-0.144,1.559-1.111h0.408v5.637h-0.512V68.944z"/>
		</g>
		<g>
			<path d="M169.516,70.416c0,1.495-0.352,2.83-1.903,2.83c-1.559,0-1.91-1.327-1.91-2.886c0-1.423,0.287-2.862,1.91-2.862
				C169.284,67.498,169.516,69.104,169.516,70.416z M167.597,67.929c-1.119,0-1.383,1.239-1.383,2.487
				c0,1.447,0.319,2.398,1.398,2.398c1.216,0,1.392-1.319,1.392-2.455C169.004,69.145,168.788,67.929,167.597,67.929z"/>
		</g>
		<g>
			<path d="M189.064,68.944h-1.455v-0.335c0.855-0.056,1.392-0.144,1.56-1.111h0.407v5.637h-0.512V68.944z"/>
		</g>
		<g>
			<path d="M209.861,71.963c-0.008-0.584,0.024-1.047,0.44-1.487c0.464-0.488,1.095-0.912,1.095-1.503
				c0-0.575-0.455-1.031-1.247-1.031c-0.783,0-1.247,0.592-1.223,1.352h-0.488c-0.08-1.063,0.688-1.783,1.728-1.783
				c1.087,0,1.742,0.6,1.742,1.503c0,0.928-0.951,1.264-1.415,1.999c-0.176,0.28-0.168,0.632-0.168,0.952H209.861z M209.813,73.418
				v-0.704h0.584v0.704H209.813z"/>
		</g>
		<g>
			<path d="M210.326,28.75h-1.455v-0.335c0.855-0.056,1.391-0.144,1.559-1.111h0.408v5.637h-0.512V28.75z"/>
		</g>
		<g>
			<path d="M18.523,71.833c-0.008-0.584,0.024-1.047,0.44-1.487c0.463-0.488,1.095-0.912,1.095-1.503
				c0-0.575-0.456-1.031-1.248-1.031c-0.783,0-1.247,0.592-1.223,1.352H17.1c-0.08-1.063,0.688-1.783,1.727-1.783
				c1.087,0,1.743,0.6,1.743,1.503c0,0.928-0.952,1.264-1.415,1.999c-0.176,0.28-0.168,0.632-0.168,0.952H18.523z M18.475,73.289
				v-0.704h0.583v0.704H18.475z"/>
		</g>
		<g>
			<path d="M39.783,71.833c-0.008-0.584,0.024-1.047,0.44-1.487c0.463-0.488,1.095-0.912,1.095-1.503
				c0-0.575-0.456-1.031-1.248-1.031c-0.783,0-1.247,0.592-1.223,1.352h-0.488c-0.08-1.063,0.688-1.783,1.727-1.783
				c1.087,0,1.743,0.6,1.743,1.503c0,0.928-0.952,1.264-1.415,1.999c-0.176,0.28-0.168,0.632-0.168,0.952H39.783z M39.735,73.289
				v-0.704h0.583v0.704H39.735z"/>
		</g>
	</g>
	<g>
		<path class="st1" d="M176.745,22.315v14.716H52.185V22.315H176.745 M178.245,20.815H50.685v17.716h127.559V20.815L178.245,20.815z
			"/>
	</g>
	<g>
		<path class="st2" d="M219.264,22.315v14.716h-39.52V22.315H219.264 M220.764,20.815h-42.52v17.716h42.52V20.815L220.764,20.815z"
			/>
	</g>
	<g>
		<g>
			<line class="st0" x1="114.465" y1="38.531" x2="134.765" y2="60.474"/>
			<g>
				<polygon points="131.591,59.384 131.82,58.939 134.732,60.438 133.464,57.418 133.925,57.224 135.725,61.511 				"/>
			</g>
		</g>
	</g>
	<g>
		<path class="st1" d="M198.004,62.999v14.716H73.445V62.999H198.004 M199.504,61.499H71.945v17.716h127.559V61.499L199.504,61.499z
			"/>
	</g>
	<g>
		<path class="st3" d="M219.264,62.999v14.716h-18.26V62.999H219.264 M220.764,61.499h-21.26v17.716h21.26V61.499L220.764,61.499z"
			/>
	</g>
	<g>
		<path d="M242.619,31.22c0.089,1.032,0.776,1.407,1.655,1.407c1.031,0,1.464-0.56,1.464-1.191c0-1.783-3.511-0.6-3.511-2.863
			c0-0.799,0.664-1.543,1.951-1.543c1.295,0,1.943,0.784,1.935,1.719h-0.52c0-0.88-0.68-1.255-1.415-1.255
			c-1.104,0-1.503,0.679-1.407,1.271c0.248,1.487,3.51,0.416,3.51,2.646c0,1.056-0.775,1.679-2.103,1.679
			c-1.199,0-2.087-0.624-2.087-1.871H242.619z"/>
		<path d="M247.715,32.939h-0.479v-4.142h0.479v0.775h0.017c0.264-0.664,0.655-0.888,1.351-0.888v0.52
			c-1.079-0.024-1.367,0.775-1.367,1.703V32.939z"/>
		<path d="M252.81,30.101c-0.168-0.616-0.592-0.983-1.231-0.983c-0.983,0-1.391,0.896-1.391,1.759c0,0.872,0.399,1.743,1.391,1.743
			c0.712,0,1.16-0.424,1.271-1.111h0.512c-0.168,0.919-0.743,1.543-1.783,1.543c-1.319,0-1.902-0.951-1.902-2.175
			c0-1.151,0.663-2.191,1.902-2.191c0.952,0,1.575,0.456,1.72,1.416H252.81z"/>
		<path d="M256.826,27.031c1.799,0,2.711,1.351,2.711,3.038c0,1.655-0.912,3.022-2.687,3.022c-1.775,0-2.679-1.367-2.679-3.022
			C254.164,28.39,255.107,27.031,256.826,27.031z M258.993,30.069c0-1.599-0.823-2.574-2.15-2.574c-1.479,0-2.127,1.239-2.127,2.574
			c0,1.359,0.64,2.559,2.143,2.559C258.354,32.627,258.993,31.412,258.993,30.069z"/>
		<path d="M260.132,29.197v-0.399h0.615v-0.656c0-0.656,0.24-1.071,0.88-1.071c0.144,0,0.271,0.008,0.399,0.032v0.44
			c-0.096-0.024-0.199-0.04-0.288-0.04c-0.495,0-0.512,0.408-0.512,0.784v0.512h0.8v0.399h-0.8v3.742h-0.479v-3.742H260.132z"/>
		<path d="M262.355,29.197v-0.399h0.615v-0.656c0-0.656,0.24-1.071,0.88-1.071c0.144,0,0.271,0.008,0.399,0.032v0.44
			c-0.096-0.024-0.2-0.04-0.288-0.04c-0.495,0-0.512,0.408-0.512,0.784v0.512h0.8v0.399h-0.8v3.742h-0.479v-3.742H262.355z"/>
		<path d="M265.274,31.644c0.152,0.712,0.52,0.976,1.239,0.976c0.695,0,1.023-0.368,1.023-0.768c0-1.199-2.654-0.352-2.654-1.983
			c0-0.688,0.535-1.184,1.455-1.184c0.896,0,1.479,0.368,1.599,1.304h-0.487c-0.088-0.64-0.52-0.872-1.119-0.872
			c-0.607,0-0.936,0.288-0.936,0.711c0,1.127,2.654,0.424,2.654,2.015c0,0.792-0.712,1.207-1.687,1.207
			c-0.976,0-1.535-0.624-1.575-1.407H265.274z"/>
		<path d="M269.29,30.98c-0.008,0.896,0.473,1.639,1.392,1.639c0.624,0,1.111-0.344,1.255-0.952h0.536
			c-0.24,0.784-0.735,1.383-1.791,1.383c-1.327,0-1.903-0.943-1.903-2.167c0-1.208,0.72-2.199,1.903-2.199
			c1.136,0,1.831,0.808,1.823,2.295H269.29z M271.993,30.581c0-0.807-0.448-1.463-1.312-1.463c-0.848,0-1.295,0.68-1.392,1.463
			H271.993z"/>
		<path d="M274.898,32.956c-0.112,0.024-0.32,0.096-0.552,0.096c-0.472,0-0.736-0.208-0.736-0.823v-3.031h-0.583v-0.399h0.583
			v-1.151h0.48v1.151h0.775v0.399h-0.775v2.839c0,0.408,0.016,0.583,0.415,0.583c0.128,0,0.265-0.024,0.393-0.056V32.956z"/>
		<path d="M279.729,30.397h-3.998v-0.48h3.998V30.397z M279.729,31.948h-3.998v-0.48h3.998V31.948z"/>
		<path d="M280.923,29.149c0-1.111,0.72-1.847,1.831-1.847c1.136,0,1.735,0.695,1.735,1.559c0,1.495-1.615,1.871-2.455,2.51
			c-0.368,0.28-0.712,0.6-0.735,1.136h3.142v0.432h-3.686c0.008-0.536,0.08-0.959,0.439-1.375c1.176-1.359,2.734-1.344,2.734-2.671
			c0-0.735-0.543-1.159-1.239-1.159c-0.735,0-1.255,0.656-1.223,1.415H280.923z"/>
	</g>
	<g>
		<path d="M242.396,73.635v-5.757h1.967c0.64,0,1.239,0.04,1.775,0.432c0.76,0.552,0.959,1.671,0.959,2.439
			c0,0.759-0.168,1.607-0.695,2.183c-0.527,0.592-1.279,0.704-2.039,0.704H242.396z M242.939,73.171h1.304
			c0.487,0,0.911-0.032,1.351-0.264c0.768-0.392,0.96-1.375,0.96-2.159c0-0.84-0.185-1.759-0.992-2.191
			c-0.344-0.184-0.839-0.216-1.318-0.216h-1.304V73.171z"/>
		<path d="M248.38,72.34c0.152,0.712,0.52,0.976,1.239,0.976c0.695,0,1.023-0.368,1.023-0.768c0-1.199-2.654-0.352-2.654-1.983
			c0-0.688,0.535-1.184,1.455-1.184c0.896,0,1.479,0.368,1.599,1.304h-0.487c-0.088-0.64-0.52-0.872-1.119-0.872
			c-0.607,0-0.936,0.288-0.936,0.711c0,1.127,2.654,0.424,2.654,2.015c0,0.792-0.712,1.207-1.687,1.207
			c-0.976,0-1.535-0.624-1.575-1.407H248.38z"/>
		<path d="M253.556,73.651c-0.112,0.024-0.32,0.096-0.552,0.096c-0.472,0-0.736-0.208-0.736-0.823v-3.031h-0.583v-0.399h0.583
			v-1.151h0.48v1.151h0.775v0.399h-0.775v2.839c0,0.408,0.016,0.583,0.415,0.583c0.128,0,0.265-0.024,0.393-0.056V73.651z"/>
		<path d="M256.826,67.727c1.799,0,2.711,1.351,2.711,3.038c0,1.655-0.912,3.022-2.687,3.022c-1.775,0-2.679-1.367-2.679-3.022
			C254.164,69.086,255.107,67.727,256.826,67.727z M258.993,70.765c0-1.599-0.823-2.574-2.15-2.574
			c-1.479,0-2.127,1.239-2.127,2.574c0,1.359,0.64,2.559,2.143,2.559C258.354,73.323,258.993,72.108,258.993,70.765z"/>
		<path d="M260.132,69.893v-0.399h0.615v-0.656c0-0.656,0.24-1.071,0.88-1.071c0.144,0,0.271,0.008,0.399,0.032v0.44
			c-0.096-0.024-0.199-0.04-0.288-0.04c-0.495,0-0.512,0.408-0.512,0.784v0.512h0.8v0.399h-0.8v3.742h-0.479v-3.742H260.132z"/>
		<path d="M262.355,69.893v-0.399h0.615v-0.656c0-0.656,0.24-1.071,0.88-1.071c0.144,0,0.271,0.008,0.399,0.032v0.44
			c-0.096-0.024-0.2-0.04-0.288-0.04c-0.495,0-0.512,0.408-0.512,0.784v0.512h0.8v0.399h-0.8v3.742h-0.479v-3.742H262.355z"/>
		<path d="M265.274,72.34c0.152,0.712,0.52,0.976,1.239,0.976c0.695,0,1.023-0.368,1.023-0.768c0-1.199-2.654-0.352-2.654-1.983
			c0-0.688,0.535-1.184,1.455-1.184c0.896,0,1.479,0.368,1.599,1.304h-0.487c-0.088-0.64-0.52-0.872-1.119-0.872
			c-0.607,0-0.936,0.288-0.936,0.711c0,1.127,2.654,0.424,2.654,2.015c0,0.792-0.712,1.207-1.687,1.207
			c-0.976,0-1.535-0.624-1.575-1.407H265.274z"/>
		<path d="M269.29,71.676c-0.008,0.896,0.473,1.639,1.392,1.639c0.624,0,1.111-0.344,1.255-0.952h0.536
			c-0.24,0.784-0.735,1.383-1.791,1.383c-1.327,0-1.903-0.943-1.903-2.167c0-1.208,0.72-2.199,1.903-2.199
			c1.136,0,1.831,0.808,1.823,2.295H269.29z M271.993,71.276c0-0.807-0.448-1.463-1.312-1.463c-0.848,0-1.295,0.68-1.392,1.463
			H271.993z"/>
		<path d="M274.898,73.651c-0.112,0.024-0.32,0.096-0.552,0.096c-0.472,0-0.736-0.208-0.736-0.823v-3.031h-0.583v-0.399h0.583
			v-1.151h0.48v1.151h0.775v0.399h-0.775v2.839c0,0.408,0.016,0.583,0.415,0.583c0.128,0,0.265-0.024,0.393-0.056V73.651z"/>
		<path d="M279.729,71.093h-3.998v-0.48h3.998V71.093z M279.729,72.644h-3.998v-0.48h3.998V72.644z"/>
		<path d="M282.786,69.446h-1.455V69.11c0.855-0.056,1.391-0.144,1.559-1.111h0.408v5.637h-0.512V69.446z"/>
	</g>
	<g>
		<path d="M98.024,6.64V0.883h2.079c1.352,0,1.887,0.583,1.887,1.447c0,0.799-0.455,1.159-0.919,1.239v0.016
			c0.791,0.12,1.183,0.671,1.183,1.431c0,1.199-0.783,1.623-1.879,1.623H98.024z M98.568,3.426h1.375c1.136,0,1.503-0.4,1.503-1.095
			c0-0.72-0.432-0.983-1.623-0.983h-1.255V3.426z M98.568,6.176h1.383c1.199,0,1.76-0.16,1.76-1.159
			c0-0.952-0.672-1.127-1.695-1.127h-1.447V6.176z"/>
		<path d="M103.336,1.595V0.883h0.527v0.711H103.336z M103.36,6.64V2.499h0.479V6.64H103.36z"/>
		<path d="M106.519,6.656c-0.112,0.024-0.32,0.096-0.552,0.096c-0.472,0-0.736-0.208-0.736-0.823V2.898h-0.583V2.499h0.583V1.347
			h0.48v1.151h0.775v0.399h-0.775v2.839c0,0.408,0.016,0.583,0.415,0.583c0.128,0,0.265-0.024,0.393-0.056V6.656z"/>
		<path d="M107.583,4.921c0.089,1.032,0.776,1.407,1.655,1.407c1.031,0,1.464-0.56,1.464-1.191c0-1.783-3.511-0.6-3.511-2.863
			c0-0.799,0.664-1.543,1.951-1.543c1.295,0,1.943,0.784,1.935,1.719h-0.52c0-0.88-0.68-1.255-1.415-1.255
			c-1.104,0-1.503,0.679-1.407,1.271c0.248,1.487,3.51,0.416,3.51,2.646c0,1.056-0.775,1.679-2.103,1.679
			c-1.199,0-2.087-0.624-2.087-1.871H107.583z"/>
		<path d="M112.223,1.595V0.883h0.527v0.711H112.223z M112.247,6.64V2.499h0.479V6.64H112.247z"/>
		<path d="M113.638,6.64V6.216l2.751-3.318h-2.567V2.499h3.183v0.424l-2.75,3.318h2.854v0.4H113.638z"/>
		<path d="M118.246,4.681c-0.008,0.896,0.473,1.639,1.392,1.639c0.624,0,1.111-0.344,1.255-0.952h0.536
			c-0.24,0.784-0.735,1.383-1.791,1.383c-1.327,0-1.903-0.943-1.903-2.167c0-1.208,0.72-2.199,1.903-2.199
			c1.136,0,1.831,0.808,1.823,2.295H118.246z M120.949,4.281c0-0.807-0.448-1.463-1.312-1.463c-0.848,0-1.295,0.68-1.392,1.463
			H120.949z"/>
		<path d="M126.46,4.098h-3.998v-0.48h3.998V4.098z M126.46,5.649h-3.998v-0.48h3.998V5.649z"/>
		<path d="M130.597,2.386c-0.112-0.575-0.472-0.951-1.071-0.951c-1.384,0-1.503,1.487-1.583,2.551
			c0.319-0.432,0.655-0.88,1.479-0.88c1.136,0,1.791,0.688,1.791,1.815c0,1.136-0.663,1.831-1.807,1.831
			c-1.127,0-1.975-0.704-1.975-2.694c0-1.335,0.392-3.054,2.047-3.054c0.887,0,1.543,0.479,1.646,1.383H130.597z M128.134,4.937
			c0,0.632,0.352,1.383,1.279,1.383c0.951,0,1.287-0.736,1.287-1.415c0-0.872-0.415-1.368-1.295-1.368
			C128.614,3.538,128.134,4.177,128.134,4.937z"/>
	</g>
	<g>
	</g>
	<g>
	</g>
	<g>
	</g>
	<g>
	</g>
	<g>
	</g>
	<g>
	</g>
	<g>
	</g>
	<g>
	</g>
	<g>
	</g>
	<g>
	</g>
	<g>
	</g>
	<g>
	</g>
	<g>
	</g>
	<g>
	</g>
	<g>
	</g>
	<g>
	</g>
	<g>
	</g>
</g>
</svg>
