<?xml version="1.0" encoding="utf-8"?>
<!-- Generator: Adobe Illustrator 28.2.0, SVG Export Plug-In . SVG Version: 6.00 Build 0)  -->
<svg version="1.1" id="_x3C_图层_x3E_" xmlns="http://www.w3.org/2000/svg" xmlns:xlink="http://www.w3.org/1999/xlink" x="0px"
	 y="0px" width="315.746px" height="179.64px" viewBox="0 0 315.746 179.64" style="enable-background:new 0 0 315.746 179.64;"
	 xml:space="preserve">
<style type="text/css">
	.st0{fill:none;stroke:#B3B3B3;stroke-width:0.3;}
	.st1{fill:none;stroke:#000000;stroke-width:0.5;}
	.st2{fill:none;stroke:#808080;stroke-width:0.5;}
	.st3{fill:none;stroke:#000000;}
	.st4{fill:none;stroke:#000000;stroke-width:0.8;}
</style>
<line class="st0" x1="95.742" y1="97.647" x2="95.742" y2="162.229"/>
<line class="st0" x1="187.965" y1="97.647" x2="187.965" y2="162.229"/>
<line class="st0" x1="226.94" y1="97.647" x2="226.94" y2="162.229"/>
<line class="st0" x1="269.496" y1="97.647" x2="269.496" y2="162.229"/>
<rect x="13.247" y="13.897" class="st1" width="181.417" height="17.717"/>
<line class="st2" x1="24.663" y1="13.48" x2="24.663" y2="31.397"/>
<line class="st2" x1="36.002" y1="13.48" x2="36.002" y2="31.397"/>
<line class="st2" x1="47.341" y1="13.48" x2="47.341" y2="31.397"/>
<line class="st2" x1="58.679" y1="13.48" x2="58.679" y2="31.397"/>
<line class="st2" x1="70.018" y1="13.48" x2="70.018" y2="31.397"/>
<line class="st2" x1="81.356" y1="13.48" x2="81.356" y2="31.397"/>
<line class="st2" x1="92.695" y1="13.48" x2="92.695" y2="31.397"/>
<line class="st2" x1="104.033" y1="13.48" x2="104.033" y2="31.397"/>
<line class="st2" x1="115.372" y1="13.48" x2="115.372" y2="31.397"/>
<line class="st2" x1="126.71" y1="13.48" x2="126.71" y2="31.397"/>
<line class="st2" x1="138.049" y1="13.48" x2="138.049" y2="31.397"/>
<line class="st2" x1="149.387" y1="13.48" x2="149.387" y2="31.397"/>
<line class="st2" x1="160.726" y1="13.48" x2="160.726" y2="31.397"/>
<line class="st2" x1="172.065" y1="13.48" x2="172.065" y2="31.397"/>
<line class="st2" x1="183.403" y1="13.48" x2="183.403" y2="31.397"/>
<g>
	<path d="M15.374,5.81V0.781h0.616v1.828h0.014c0.266-0.385,0.63-0.561,1.058-0.567c0.974,0,1.527,0.798,1.527,1.828
		c0,0.875-0.364,2.045-1.611,2.045c-0.624,0-0.883-0.357-1.009-0.56h-0.014V5.81H15.374z M16.95,2.595
		c-0.889,0-0.987,0.959-0.987,1.555c0,0.973,0.609,1.232,1.001,1.232c0.672,0,0.987-0.609,0.987-1.415
		C17.951,3.499,17.902,2.595,16.95,2.595z"/>
	<path d="M19.329,1.482V0.781h0.616v0.701H19.329z M19.945,5.81h-0.616V2.147h0.616V5.81z"/>
	<path d="M21.625,2.658V5.04c0,0.287,0.246,0.287,0.372,0.287h0.217V5.81c-0.224,0.021-0.399,0.049-0.462,0.049
		c-0.609,0-0.743-0.343-0.743-0.784V2.658h-0.497V2.147h0.497V1.125h0.616v1.022h0.588v0.511H21.625z"/>
	<path d="M17.286,11.81h-0.658V8.315h-1.148v-0.49c0.798-0.056,1.127-0.133,1.324-0.938h0.483V11.81z"/>
	<path d="M19.693,8.945c0.21-0.161,0.511-0.308,0.952-0.308c0.798,0,1.618,0.561,1.618,1.576c0,0.546-0.245,1.73-1.786,1.73
		c-0.645,0-1.471-0.259-1.59-1.359h0.637c0.063,0.574,0.49,0.826,1.044,0.826c0.637,0,1.036-0.511,1.036-1.127
		c0-0.708-0.483-1.093-1.092-1.093c-0.357,0-0.68,0.168-0.911,0.469L19.07,9.632l0.371-2.64h2.549v0.602h-2.087L19.693,8.945z"/>
</g>
<g>
	<path d="M70.973,107.779c-1.877,0-2.452-1.562-2.452-2.647c0-1.085,0.575-2.647,2.452-2.647s2.451,1.562,2.451,2.647
		C73.424,106.218,72.85,107.779,70.973,107.779z M70.973,103.087c-1.093,0-1.751,0.861-1.751,2.045s0.658,2.045,1.751,2.045
		c1.092,0,1.751-0.861,1.751-2.045S72.065,103.087,70.973,103.087z"/>
	<path d="M74.976,107.646h-0.679v-5.028h3.48v0.602h-2.801v1.541h2.465v0.603h-2.465V107.646z"/>
	<path d="M79.253,107.646h-0.679v-5.028h3.48v0.602h-2.801v1.541h2.465v0.603h-2.465V107.646z"/>
</g>
<g>
	<path d="M70.973,89.862c-1.877,0-2.452-1.562-2.452-2.647c0-1.085,0.575-2.647,2.452-2.647s2.451,1.562,2.451,2.647
		C73.424,88.301,72.85,89.862,70.973,89.862z M70.973,85.17c-1.093,0-1.751,0.861-1.751,2.045s0.658,2.045,1.751,2.045
		c1.092,0,1.751-0.861,1.751-2.045S72.065,85.17,70.973,85.17z"/>
	<path d="M77.56,84.701h0.658v5.028h-0.763l-2.557-4.062h-0.014v4.062h-0.658v-5.028h0.806l2.514,4.062h0.014V84.701z"/>
</g>
<g>
	<path d="M0.592,129.405h2.526c1.071,0,1.623,0.664,1.623,1.447c0,0.376-0.136,0.903-0.768,1.199c0.376,0.152,1.04,0.416,1.04,1.399
		c0,0.92-0.68,1.695-1.951,1.695H0.592V129.405z M1.367,131.836h1.399c0.744,0,1.199-0.224,1.199-0.927
		c0-0.536-0.328-0.84-1.191-0.84H1.367V131.836z M1.367,134.482h1.655c0.808,0,1.215-0.407,1.215-1.047
		c0-0.808-0.712-0.968-1.343-0.968H1.367V134.482z"/>
	<path d="M6.719,134.459h2.91v0.688H5.943v-5.741h0.776V134.459z"/>
	<path d="M10.432,129.405h2.327c1.495,0,2.415,1.136,2.415,2.791c0,1.287-0.56,2.95-2.447,2.95h-2.295V129.405z M11.208,134.482
		h1.503c1.007,0,1.663-0.791,1.663-2.238s-0.664-2.175-1.719-2.175h-1.447V134.482z"/>
</g>
<g>
	<path d="M0.592,163.573h2.526c1.071,0,1.623,0.664,1.623,1.447c0,0.376-0.136,0.903-0.768,1.199c0.376,0.152,1.04,0.416,1.04,1.399
		c0,0.92-0.68,1.695-1.951,1.695H0.592V163.573z M1.367,166.004h1.399c0.744,0,1.199-0.224,1.199-0.927
		c0-0.536-0.328-0.84-1.191-0.84H1.367V166.004z M1.367,168.65h1.655c0.808,0,1.215-0.407,1.215-1.047
		c0-0.808-0.712-0.968-1.343-0.968H1.367V168.65z"/>
	<path d="M6.719,168.627h2.91v0.688H5.943v-5.741h0.776V168.627z"/>
	<path d="M10.432,163.573h2.327c1.495,0,2.415,1.136,2.415,2.791c0,1.287-0.56,2.95-2.447,2.95h-2.295V163.573z M11.208,168.65
		h1.503c1.007,0,1.663-0.791,1.663-2.238s-0.664-2.175-1.719-2.175h-1.447V168.65z"/>
	<path d="M16.151,163.573h2.526c1.071,0,1.623,0.664,1.623,1.447c0,0.376-0.136,0.903-0.768,1.199
		c0.376,0.152,1.04,0.416,1.04,1.399c0,0.92-0.68,1.695-1.951,1.695h-2.471V163.573z M16.927,166.004h1.399
		c0.744,0,1.199-0.224,1.199-0.927c0-0.536-0.328-0.84-1.191-0.84h-1.407V166.004z M16.927,168.65h1.655
		c0.808,0,1.215-0.407,1.215-1.047c0-0.808-0.712-0.968-1.343-0.968h-1.527V168.65z"/>
</g>
<g>
	<path d="M19.81,26.396h-0.846v-4.492h-1.477v-0.63c1.026-0.072,1.45-0.171,1.702-1.207h0.621V26.396z"/>
</g>
<g>
	<path d="M31.149,26.396h-0.846v-4.492h-1.477v-0.63c1.026-0.072,1.45-0.171,1.702-1.207h0.621V26.396z"/>
</g>
<g>
	<path d="M42.487,26.396h-0.846v-4.492h-1.477v-0.63c1.026-0.072,1.45-0.171,1.702-1.207h0.621V26.396z"/>
</g>
<g>
	<path d="M53.826,26.396h-0.846v-4.492h-1.477v-0.63c1.026-0.072,1.45-0.171,1.702-1.207h0.621V26.396z"/>
</g>
<g>
	<path d="M64.435,26.567c-1.819,0-2.17-1.936-2.17-3.25s0.351-3.25,2.17-3.25c1.818,0,2.169,1.936,2.169,3.25
		S66.253,26.567,64.435,26.567z M64.435,20.779c-0.91,0-1.324,0.954-1.324,2.539s0.414,2.539,1.324,2.539
		c0.909,0,1.323-0.955,1.323-2.539S65.344,20.779,64.435,20.779z"/>
</g>
<g>
	<path d="M75.774,26.567c-1.819,0-2.17-1.936-2.17-3.25s0.351-3.25,2.17-3.25c1.818,0,2.169,1.936,2.169,3.25
		S77.592,26.567,75.774,26.567z M75.774,20.779c-0.91,0-1.324,0.954-1.324,2.539s0.414,2.539,1.324,2.539
		c0.909,0,1.323-0.955,1.323-2.539S76.683,20.779,75.774,20.779z"/>
</g>
<g>
	<path d="M87.112,26.567c-1.819,0-2.17-1.936-2.17-3.25s0.351-3.25,2.17-3.25c1.818,0,2.169,1.936,2.169,3.25
		S88.931,26.567,87.112,26.567z M87.112,20.779c-0.91,0-1.324,0.954-1.324,2.539s0.414,2.539,1.324,2.539
		c0.909,0,1.323-0.955,1.323-2.539S88.021,20.779,87.112,20.779z"/>
</g>
<g>
	<path d="M98.451,26.567c-1.819,0-2.17-1.936-2.17-3.25s0.351-3.25,2.17-3.25c1.818,0,2.169,1.936,2.169,3.25
		S100.269,26.567,98.451,26.567z M98.451,20.779c-0.91,0-1.324,0.954-1.324,2.539s0.414,2.539,1.324,2.539
		c0.909,0,1.323-0.955,1.323-2.539S99.36,20.779,98.451,20.779z"/>
</g>
<g>
	<path d="M110.518,26.396h-0.846v-4.492h-1.477v-0.63c1.026-0.072,1.45-0.171,1.702-1.207h0.621V26.396z"/>
</g>
<g>
	<path d="M121.857,26.396h-0.846v-4.492h-1.477v-0.63c1.026-0.072,1.45-0.171,1.702-1.207h0.621V26.396z"/>
</g>
<g>
	<path d="M133.196,26.396h-0.846v-4.492h-1.477v-0.63c1.026-0.072,1.45-0.171,1.702-1.207h0.621V26.396z"/>
</g>
<g>
	<path d="M144.534,26.396h-0.846v-4.492h-1.477v-0.63c1.026-0.072,1.45-0.171,1.702-1.207h0.621V26.396z"/>
</g>
<g>
	<path d="M155.144,26.567c-1.819,0-2.17-1.936-2.17-3.25s0.351-3.25,2.17-3.25c1.818,0,2.169,1.936,2.169,3.25
		S156.962,26.567,155.144,26.567z M155.144,20.779c-0.91,0-1.324,0.954-1.324,2.539s0.414,2.539,1.324,2.539
		c0.909,0,1.323-0.955,1.323-2.539S156.053,20.779,155.144,20.779z"/>
</g>
<g>
	<path d="M166.482,26.567c-1.819,0-2.17-1.936-2.17-3.25s0.351-3.25,2.17-3.25c1.818,0,2.169,1.936,2.169,3.25
		S168.301,26.567,166.482,26.567z M166.482,20.779c-0.91,0-1.324,0.954-1.324,2.539s0.414,2.539,1.324,2.539
		c0.909,0,1.323-0.955,1.323-2.539S167.392,20.779,166.482,20.779z"/>
</g>
<g>
	<path d="M177.821,26.567c-1.819,0-2.17-1.936-2.17-3.25s0.351-3.25,2.17-3.25c1.818,0,2.169,1.936,2.169,3.25
		S179.639,26.567,177.821,26.567z M177.821,20.779c-0.91,0-1.324,0.954-1.324,2.539s0.414,2.539,1.324,2.539
		c0.909,0,1.323-0.955,1.323-2.539S178.73,20.779,177.821,20.779z"/>
</g>
<g>
	<path d="M189.159,26.567c-1.819,0-2.17-1.936-2.17-3.25s0.351-3.25,2.17-3.25c1.818,0,2.169,1.936,2.169,3.25
		S190.978,26.567,189.159,26.567z M189.159,20.779c-0.91,0-1.324,0.954-1.324,2.539s0.414,2.539,1.324,2.539
		c0.909,0,1.323-0.955,1.323-2.539S190.068,20.779,189.159,20.779z"/>
</g>
<line class="st3" x1="13.247" y1="31.613" x2="194.664" y2="31.613"/>
<line class="st3" x1="194.664" y1="31.613" x2="194.664" y2="13.897"/>
<g>
	<path d="M184.957,5.81V0.781h0.616v1.828h0.014c0.266-0.385,0.63-0.561,1.058-0.567c0.974,0,1.527,0.798,1.527,1.828
		c0,0.875-0.364,2.045-1.611,2.045c-0.624,0-0.883-0.357-1.009-0.56h-0.014V5.81H184.957z M186.533,2.595
		c-0.889,0-0.987,0.959-0.987,1.555c0,0.973,0.609,1.232,1.001,1.232c0.672,0,0.987-0.609,0.987-1.415
		C187.534,3.499,187.485,2.595,186.533,2.595z"/>
	<path d="M188.912,1.482V0.781h0.616v0.701H188.912z M189.528,5.81h-0.616V2.147h0.616V5.81z"/>
	<path d="M191.208,2.658V5.04c0,0.287,0.246,0.287,0.372,0.287h0.217V5.81c-0.224,0.021-0.399,0.049-0.462,0.049
		c-0.609,0-0.743-0.343-0.743-0.784V2.658h-0.497V2.147h0.497V1.125h0.616v1.022h0.588v0.511H191.208z"/>
	<path d="M188.248,11.943c-1.415,0-1.688-1.506-1.688-2.529c0-1.022,0.273-2.528,1.688-2.528c1.415,0,1.688,1.506,1.688,2.528
		C189.936,10.438,189.663,11.943,188.248,11.943z M188.248,7.44c-0.708,0-1.03,0.742-1.03,1.975c0,1.233,0.322,1.975,1.03,1.975
		c0.707,0,1.029-0.742,1.029-1.975C189.277,8.182,188.955,7.44,188.248,7.44z"/>
</g>
<g>
	<g>
		<path d="M102.453,5.252c-0.035-0.777-0.679-1.022-1.247-1.022c-0.427,0-1.149,0.119-1.149,0.882c0,0.427,0.301,0.567,0.596,0.638
			l1.436,0.329c0.651,0.154,1.142,0.546,1.142,1.345c0,1.19-1.106,1.52-1.968,1.52c-0.932,0-1.296-0.28-1.52-0.483
			c-0.427-0.385-0.511-0.806-0.511-1.275h0.637c0,0.911,0.743,1.177,1.387,1.177c0.49,0,1.317-0.126,1.317-0.848
			c0-0.525-0.245-0.693-1.072-0.889l-1.029-0.238c-0.329-0.077-1.072-0.308-1.072-1.184c0-0.785,0.511-1.555,1.73-1.555
			c1.758,0,1.933,1.05,1.961,1.604H102.453z"/>
		<path d="M104.712,8.81h-0.617V5.147h0.582v0.609h0.014c0.245-0.427,0.567-0.714,1.029-0.714c0.077,0,0.112,0.007,0.161,0.021V5.7
			h-0.231c-0.574,0-0.938,0.448-0.938,0.981V8.81z"/>
		<path d="M108.633,6.38c-0.077-0.49-0.35-0.785-0.869-0.785c-0.763,0-1.008,0.729-1.008,1.38c0,0.63,0.154,1.408,1.001,1.408
			c0.413,0,0.771-0.308,0.875-0.869h0.595c-0.063,0.582-0.42,1.401-1.492,1.401c-1.03,0-1.639-0.777-1.639-1.835
			c0-1.135,0.546-2.038,1.758-2.038c0.959,0,1.324,0.7,1.373,1.338H108.633z"/>
	</g>
</g>
<polyline class="st4" points="85.33,105.728 95.747,105.728 95.747,87.307 187.83,87.307 187.83,105.728 226.996,105.728 
	226.996,87.307 269.496,87.307 269.496,105.728 315.746,105.728 "/>
<g>
	<path d="M70.973,143.612c-1.877,0-2.452-1.562-2.452-2.647c0-1.085,0.575-2.647,2.452-2.647s2.451,1.562,2.451,2.647
		C73.424,142.051,72.85,143.612,70.973,143.612z M70.973,138.92c-1.093,0-1.751,0.861-1.751,2.045s0.658,2.045,1.751,2.045
		c1.092,0,1.751-0.861,1.751-2.045S72.065,138.92,70.973,138.92z"/>
	<path d="M74.976,143.479h-0.679v-5.028h3.48v0.602h-2.801v1.541h2.465v0.603h-2.465V143.479z"/>
	<path d="M79.253,143.479h-0.679v-5.028h3.48v0.602h-2.801v1.541h2.465v0.603h-2.465V143.479z"/>
</g>
<g>
	<path d="M70.973,125.697c-1.877,0-2.452-1.562-2.452-2.647c0-1.085,0.575-2.647,2.452-2.647s2.451,1.562,2.451,2.647
		C73.424,124.136,72.85,125.697,70.973,125.697z M70.973,121.005c-1.093,0-1.751,0.861-1.751,2.045s0.658,2.045,1.751,2.045
		c1.092,0,1.751-0.861,1.751-2.045S72.065,121.005,70.973,121.005z"/>
	<path d="M77.56,120.536h0.658v5.028h-0.763l-2.557-4.062h-0.014v4.062h-0.658v-5.028h0.806l2.514,4.062h0.014V120.536z"/>
</g>
<g>
	<path d="M70.973,178.197c-1.877,0-2.452-1.562-2.452-2.647c0-1.085,0.575-2.647,2.452-2.647s2.451,1.562,2.451,2.647
		C73.424,176.636,72.85,178.197,70.973,178.197z M70.973,173.505c-1.093,0-1.751,0.861-1.751,2.045s0.658,2.045,1.751,2.045
		c1.092,0,1.751-0.861,1.751-2.045S72.065,173.505,70.973,173.505z"/>
	<path d="M74.976,178.064h-0.679v-5.028h3.48v0.602h-2.801v1.541h2.465v0.603h-2.465V178.064z"/>
	<path d="M79.253,178.064h-0.679v-5.028h3.48v0.602h-2.801v1.541h2.465v0.603h-2.465V178.064z"/>
</g>
<g>
	<path d="M70.973,160.279c-1.877,0-2.452-1.562-2.452-2.647c0-1.085,0.575-2.647,2.452-2.647s2.451,1.562,2.451,2.647
		C73.424,158.718,72.85,160.279,70.973,160.279z M70.973,155.587c-1.093,0-1.751,0.861-1.751,2.045s0.658,2.045,1.751,2.045
		c1.092,0,1.751-0.861,1.751-2.045S72.065,155.587,70.973,155.587z"/>
	<path d="M77.56,155.118h0.658v5.028h-0.763l-2.557-4.062h-0.014v4.062h-0.658v-5.028h0.806l2.514,4.062h0.014V155.118z"/>
</g>
<polyline class="st4" points="85.33,141.561 95.747,141.561 95.747,123.142 187.83,123.142 187.83,141.561 226.996,141.561 
	226.996,123.142 269.496,123.142 269.496,141.561 315.746,141.561 "/>
<polyline class="st4" points="85.33,157.698 95.747,157.698 95.747,176.118 187.83,176.118 187.83,157.698 226.996,157.698 
	226.996,176.118 269.496,176.118 269.496,157.698 315.746,157.698 "/>
<g>
	<path d="M42.825,63.979V58.95h0.616v1.828h0.014c0.266-0.385,0.63-0.561,1.058-0.567c0.974,0,1.527,0.798,1.527,1.828
		c0,0.875-0.364,2.045-1.611,2.045c-0.624,0-0.883-0.357-1.009-0.56h-0.014v0.455H42.825z M44.4,60.764
		c-0.889,0-0.987,0.959-0.987,1.555c0,0.973,0.609,1.232,1.001,1.232c0.672,0,0.987-0.609,0.987-1.415
		C45.402,61.668,45.353,60.764,44.4,60.764z"/>
	<path d="M46.78,59.651V58.95h0.616v0.701H46.78z M47.396,63.979H46.78v-3.663h0.616V63.979z"/>
	<path d="M49.076,60.827v2.381c0,0.287,0.245,0.287,0.372,0.287h0.217v0.483c-0.224,0.021-0.399,0.049-0.462,0.049
		c-0.609,0-0.743-0.343-0.743-0.784v-2.417h-0.497v-0.511h0.497v-1.022h0.616v1.022h0.588v0.511H49.076z"/>
	<path d="M55.623,58.95h0.658v5.029h-0.763l-2.557-4.062h-0.014v4.062h-0.658V58.95h0.806l2.514,4.062h0.014V58.95z"/>
	<path d="M59.654,63.979v-0.532l-0.014-0.014c-0.259,0.427-0.574,0.651-1.163,0.651c-0.54,0-1.191-0.259-1.191-1.135v-2.633h0.617
		v2.43c0,0.603,0.308,0.806,0.707,0.806c0.777,0,1.009-0.687,1.009-1.219v-2.017h0.616v3.663H59.654z"/>
	<path d="M61.157,60.316h0.582v0.519h0.014c0.133-0.196,0.448-0.624,1.106-0.624s0.869,0.399,0.974,0.595
		c0.308-0.343,0.553-0.595,1.121-0.595c0.392,0,1.134,0.203,1.134,1.233v2.535h-0.616v-2.367c0-0.504-0.154-0.848-0.679-0.848
		c-0.519,0-0.862,0.49-0.862,0.98v2.234h-0.616v-2.535c0-0.309-0.119-0.68-0.574-0.68c-0.35,0-0.966,0.224-0.966,1.219v1.996h-0.617
		V60.316z"/>
</g>
<path d="M54.461,33.112l3.322,6.617h-6.614L54.461,33.112z"/>
<path d="M188.836,33.442l3.322,6.618h-6.614L188.836,33.442z"/>
<path d="M177.117,33.442l3.322,6.618h-6.614L177.117,33.442z"/>
<path d="M17.899,33.442l3.322,6.618h-6.614L17.899,33.442z"/>
<line class="st3" x1="17.83" y1="34.934" x2="17.83" y2="45.564"/>
<line class="st3" x1="54.58" y1="34.604" x2="54.58" y2="54.191"/>
<line class="st3" x1="188.795" y1="34.934" x2="188.795" y2="45.564"/>
<g>
	<path d="M10.893,53.725v-5.029h0.616v1.828h0.014c0.266-0.385,0.63-0.561,1.058-0.567c0.974,0,1.527,0.798,1.527,1.828
		c0,0.875-0.364,2.045-1.611,2.045c-0.624,0-0.883-0.357-1.009-0.56h-0.014v0.455H10.893z M12.469,50.51
		c-0.889,0-0.987,0.959-0.987,1.555c0,0.973,0.609,1.232,1.001,1.232c0.672,0,0.987-0.609,0.987-1.415
		C13.47,51.414,13.421,50.51,12.469,50.51z"/>
	<path d="M14.848,49.397v-0.701h0.616v0.701H14.848z M15.464,53.725h-0.616v-3.663h0.616V53.725z"/>
	<path d="M17.144,50.573v2.381c0,0.287,0.245,0.287,0.372,0.287h0.217v0.483c-0.224,0.021-0.399,0.049-0.462,0.049
		c-0.609,0-0.743-0.343-0.743-0.784v-2.417h-0.497v-0.511h0.497V49.04h0.616v1.022h0.588v0.511H17.144z"/>
	<path d="M20.393,53.725h-0.658V50.23h-1.148v-0.49c0.798-0.056,1.127-0.133,1.324-0.938h0.483V53.725z"/>
	<path d="M22.521,50.86c0.21-0.161,0.511-0.308,0.952-0.308c0.798,0,1.618,0.561,1.618,1.576c0,0.546-0.245,1.73-1.786,1.73
		c-0.645,0-1.471-0.259-1.59-1.359h0.637c0.063,0.574,0.49,0.826,1.044,0.826c0.637,0,1.036-0.511,1.036-1.127
		c0-0.708-0.483-1.093-1.092-1.093c-0.357,0-0.68,0.168-0.911,0.469l-0.532-0.028l0.371-2.641h2.549v0.603H22.73L22.521,50.86z"/>
</g>
<g>
	<path d="M183.559,53.225v-5.029h0.616v1.828h0.014c0.266-0.385,0.63-0.561,1.058-0.567c0.974,0,1.527,0.798,1.527,1.828
		c0,0.875-0.364,2.045-1.611,2.045c-0.624,0-0.883-0.357-1.009-0.56h-0.014v0.455H183.559z M185.134,50.01
		c-0.889,0-0.987,0.959-0.987,1.555c0,0.973,0.609,1.232,1.001,1.232c0.672,0,0.987-0.609,0.987-1.415
		C186.136,50.914,186.087,50.01,185.134,50.01z"/>
	<path d="M187.514,48.897v-0.701h0.616v0.701H187.514z M188.13,53.225h-0.616v-3.663h0.616V53.225z"/>
	<path d="M189.81,50.073v2.381c0,0.287,0.245,0.287,0.372,0.287h0.217v0.483c-0.224,0.021-0.399,0.049-0.462,0.049
		c-0.609,0-0.743-0.343-0.743-0.784v-2.417h-0.497v-0.511h0.497V48.54h0.616v1.022h0.588v0.511H189.81z"/>
	<path d="M192.492,53.358c-1.415,0-1.688-1.506-1.688-2.529c0-1.022,0.273-2.528,1.688-2.528s1.688,1.506,1.688,2.528
		C194.179,51.853,193.907,53.358,192.492,53.358z M192.492,48.854c-0.708,0-1.03,0.743-1.03,1.975c0,1.233,0.322,1.975,1.03,1.975
		c0.707,0,1.029-0.742,1.029-1.975C193.521,49.597,193.199,48.854,192.492,48.854z"/>
</g>
<g>
	<path d="M171.657,65.891v-5.029h0.616v1.828h0.014c0.266-0.385,0.63-0.561,1.058-0.567c0.974,0,1.527,0.798,1.527,1.828
		c0,0.875-0.364,2.045-1.611,2.045c-0.624,0-0.883-0.357-1.009-0.56h-0.014v0.455H171.657z M173.232,62.676
		c-0.889,0-0.987,0.959-0.987,1.555c0,0.973,0.609,1.232,1.001,1.232c0.672,0,0.987-0.609,0.987-1.415
		C174.234,63.58,174.185,62.676,173.232,62.676z"/>
	<path d="M175.612,61.563v-0.701h0.616v0.701H175.612z M176.228,65.891h-0.616v-3.663h0.616V65.891z"/>
	<path d="M177.908,62.739v2.381c0,0.287,0.245,0.287,0.372,0.287h0.217v0.483c-0.224,0.021-0.399,0.049-0.462,0.049
		c-0.609,0-0.743-0.343-0.743-0.784v-2.417h-0.497v-0.511h0.497v-1.022h0.616v1.022h0.588v0.511H177.908z"/>
	<path d="M181.157,65.891h-0.658v-3.495h-1.148v-0.49c0.798-0.056,1.127-0.133,1.324-0.938h0.483V65.891z"/>
</g>
<line class="st3" x1="176.893" y1="40.114" x2="176.893" y2="58.059"/>
<g>
	<path d="M4.07,93.889c-0.04-0.888-0.775-1.167-1.423-1.167c-0.488,0-1.311,0.136-1.311,1.007c0,0.488,0.344,0.647,0.68,0.728
		l1.639,0.376c0.744,0.176,1.304,0.624,1.304,1.535c0,1.359-1.264,1.735-2.247,1.735c-1.063,0-1.479-0.32-1.735-0.552
		c-0.488-0.439-0.584-0.92-0.584-1.455H1.12c0,1.039,0.847,1.343,1.583,1.343c0.56,0,1.503-0.144,1.503-0.967
		c0-0.6-0.28-0.792-1.223-1.016l-1.175-0.272c-0.376-0.088-1.224-0.352-1.224-1.351c0-0.896,0.584-1.775,1.975-1.775
		c2.007,0,2.207,1.199,2.239,1.831H4.07z"/>
	<path d="M6.655,97.95H5.952v-4.182h0.664v0.696h0.016c0.28-0.488,0.647-0.816,1.175-0.816c0.088,0,0.128,0.009,0.184,0.024V94.4
		H7.727c-0.656,0-1.071,0.512-1.071,1.119V97.95z"/>
	<path d="M11.134,95.176c-0.088-0.56-0.4-0.896-0.991-0.896c-0.872,0-1.151,0.832-1.151,1.575c0,0.72,0.176,1.607,1.143,1.607
		c0.472,0,0.879-0.352,1-0.991h0.68c-0.072,0.663-0.48,1.599-1.703,1.599c-1.175,0-1.871-0.888-1.871-2.095
		c0-1.295,0.624-2.327,2.007-2.327c1.096,0,1.511,0.8,1.567,1.527H11.134z"/>
	<path d="M16.029,91.388c0.192,0.084,0.435,0.133,0.727,0.148c-0.146,0.276-0.292,0.714-0.438,1.312h0.617
		c0.281,0,0.565-0.021,0.852-0.062c-0.047,0.271-0.07,0.545-0.07,0.82v4.125c0,0.266,0.023,0.534,0.07,0.805
		c-0.156-0.021-0.261-0.031-0.312-0.031c-0.062,0-0.177,0.011-0.344,0.031c0.042-0.271,0.062-0.539,0.062-0.805h-1.656v0.023
		c0,0.271,0.018,0.542,0.055,0.812c-0.172-0.021-0.287-0.031-0.344-0.031c-0.047,0-0.151,0.011-0.312,0.031
		c0.042-0.271,0.062-0.542,0.062-0.812v-4.148c0-0.275-0.021-0.549-0.062-0.82c0.281,0.042,0.565,0.062,0.852,0.062h0.023
		C15.877,92.448,15.951,91.961,16.029,91.388z M15.537,95.075h1.656v-1.719h-1.656V95.075z M15.537,97.224h1.656v-1.688h-1.656
		V97.224z M19.248,91.356c0.224,0.104,0.474,0.175,0.75,0.211c-0.125,0.172-0.292,0.472-0.5,0.898
		c-0.052,0.12-0.107,0.237-0.164,0.352h1.484c0.271,0,0.539-0.021,0.805-0.062c-0.062,0.198-0.102,0.417-0.117,0.656l-0.164,4.438
		c-0.037,0.37-0.237,0.609-0.602,0.719c-0.266,0.083-0.688,0.146-1.266,0.188c0-0.203-0.094-0.422-0.281-0.656
		c0.312,0.021,0.531,0.031,0.656,0.031c0.391,0,0.653-0.075,0.789-0.227c0.099-0.088,0.148-0.211,0.148-0.367l0.148-4.211h-1.828
		c-0.219,0.464-0.464,0.94-0.734,1.43c-0.177-0.141-0.383-0.234-0.617-0.281c0.317-0.338,0.633-0.838,0.945-1.5
		C18.857,92.683,19.039,92.144,19.248,91.356z M19.13,94.731c0.203,0.469,0.502,0.945,0.898,1.43
		c-0.177,0.1-0.352,0.234-0.523,0.406c-0.229-0.588-0.534-1.096-0.914-1.523C18.794,94.966,18.974,94.862,19.13,94.731z"/>
	<path d="M24.912,97.95v-5.74h0.704v2.087h0.016c0.304-0.44,0.719-0.64,1.207-0.648c1.111,0,1.743,0.912,1.743,2.087
		c0,1-0.416,2.335-1.839,2.335c-0.712,0-1.008-0.407-1.151-0.64h-0.016v0.52H24.912z M26.71,94.28c-1.016,0-1.127,1.096-1.127,1.775
		c0,1.111,0.696,1.407,1.144,1.407c0.768,0,1.127-0.695,1.127-1.615C27.854,95.312,27.798,94.28,26.71,94.28z"/>
	<path d="M29.432,93.009V92.21h0.704v0.799H29.432z M30.135,97.95h-0.704v-4.182h0.704V97.95z"/>
	<path d="M32.055,94.353v2.719c0,0.327,0.28,0.327,0.424,0.327h0.248v0.552c-0.256,0.024-0.456,0.057-0.527,0.057
		c-0.696,0-0.848-0.393-0.848-0.896v-2.759h-0.568v-0.584h0.568v-1.167h0.704v1.167h0.671v0.584H32.055z"/>
	<path d="M39.533,92.21h0.751v5.74h-0.872l-2.918-4.637h-0.016v4.637h-0.752v-5.74h0.92l2.87,4.637h0.016V92.21z"/>
	<path d="M44.142,97.95v-0.607l-0.016-0.016c-0.295,0.487-0.655,0.743-1.327,0.743c-0.616,0-1.359-0.296-1.359-1.295v-3.007h0.704
		v2.774c0,0.688,0.352,0.92,0.807,0.92c0.888,0,1.151-0.784,1.151-1.392v-2.303h0.704v4.182H44.142z"/>
	<path d="M45.863,93.769h0.664v0.592h0.016c0.152-0.224,0.512-0.712,1.263-0.712c0.752,0,0.992,0.456,1.112,0.68
		c0.352-0.392,0.631-0.68,1.279-0.68c0.448,0,1.295,0.232,1.295,1.407v2.895h-0.704v-2.702c0-0.576-0.176-0.968-0.775-0.968
		c-0.592,0-0.983,0.56-0.983,1.119v2.551h-0.704v-2.895c0-0.352-0.136-0.775-0.656-0.775c-0.4,0-1.104,0.256-1.104,1.392v2.278
		h-0.704V93.769z"/>
</g>
<g>
</g>
</svg>
