<?xml version="1.0" encoding="utf-8"?>
<!-- Generator: Adobe Illustrator 28.2.0, SVG Export Plug-In . SVG Version: 6.00 Build 0)  -->
<svg version="1.1" id="图层_1" xmlns="http://www.w3.org/2000/svg" xmlns:xlink="http://www.w3.org/1999/xlink" x="0px" y="0px"
	 width="410.299px" height="306.131px" viewBox="0 0 410.299 306.131" style="enable-background:new 0 0 410.299 306.131;"
	 xml:space="preserve">
<style type="text/css">
	.st0{fill:none;stroke:#000000;}
	.st1{fill:#FFFFFF;stroke:#000000;}
	.st2{fill:none;stroke:#808080;}
	.st3{fill:#FFFFFF;}
</style>
<g>
	<line class="st0" x1="77.837" y1="37.842" x2="163.26" y2="37.842"/>
	<line class="st0" x1="94.748" y1="37.842" x2="409.798" y2="37.842"/>
	<line class="st0" x1="0.5" y1="37.842" x2="54.211" y2="37.842"/>
	<line class="st0" x1="0.5" y1="0" x2="0.5" y2="75.785"/>
	<line class="st0" x1="409.798" y1="0" x2="409.798" y2="75.785"/>
	<line class="st1" x1="77.837" y1="47.764" x2="77.837" y2="30.461"/>
	<line class="st1" x1="54.694" y1="30.461" x2="54.694" y2="47.764"/>
	<path class="st1" d="M370.683,46.829c4.768,0,8.633-3.865,8.633-8.632c0-4.767-3.865-8.632-8.633-8.632
		c-4.766,0-8.631,3.865-8.631,8.632C362.052,42.964,365.917,46.829,370.683,46.829z"/>
	<g>
		<rect x="58.026" y="31.667" class="st2" width="15.869" height="15.869"/>
	</g>
	<g>
		<g>
			<path d="M64.11,23.177c-0.04-0.888-0.775-1.167-1.423-1.167c-0.488,0-1.311,0.136-1.311,1.007c0,0.488,0.344,0.647,0.68,0.728
				l1.639,0.376c0.744,0.176,1.304,0.624,1.304,1.535c0,1.359-1.264,1.735-2.247,1.735c-1.063,0-1.479-0.32-1.735-0.552
				c-0.488-0.439-0.584-0.919-0.584-1.455h0.728c0,1.04,0.847,1.343,1.583,1.343c0.56,0,1.503-0.144,1.503-0.967
				c0-0.6-0.28-0.792-1.223-1.016l-1.175-0.272c-0.376-0.088-1.224-0.352-1.224-1.351c0-0.896,0.584-1.775,1.975-1.775
				c2.007,0,2.207,1.199,2.239,1.831H64.11z"/>
			<path d="M66.696,27.238h-0.704v-4.182h0.664v0.695h0.016c0.28-0.487,0.647-0.815,1.175-0.815c0.088,0,0.128,0.008,0.184,0.024
				v0.728h-0.264c-0.656,0-1.071,0.512-1.071,1.119V27.238z"/>
			<path d="M71.015,24.464c-0.088-0.56-0.4-0.896-0.991-0.896c-0.872,0-1.151,0.832-1.151,1.575c0,0.72,0.176,1.607,1.143,1.607
				c0.472,0,0.879-0.352,1-0.991h0.68c-0.072,0.664-0.48,1.599-1.703,1.599c-1.175,0-1.871-0.888-1.871-2.095
				c0-1.295,0.624-2.327,2.007-2.327c1.096,0,1.511,0.8,1.567,1.527H71.015z"/>
		</g>
	</g>
	<g>
		<g>
			<path d="M61.93,52.475h0.751v5.741H61.81l-2.918-4.638h-0.016v4.638h-0.752v-5.741h0.92l2.87,4.637h0.016V52.475z"/>
			<path d="M66.539,58.216v-0.607l-0.016-0.016c-0.295,0.488-0.655,0.744-1.327,0.744c-0.616,0-1.359-0.296-1.359-1.295v-3.006
				h0.704v2.774c0,0.688,0.352,0.919,0.807,0.919c0.888,0,1.151-0.784,1.151-1.391v-2.303h0.704v4.182H66.539z"/>
			<path d="M68.26,54.035h0.664v0.592h0.016c0.152-0.224,0.512-0.712,1.264-0.712c0.751,0,0.991,0.456,1.111,0.68
				c0.352-0.392,0.631-0.68,1.279-0.68c0.448,0,1.295,0.232,1.295,1.407v2.895h-0.704v-2.703c0-0.576-0.176-0.967-0.775-0.967
				c-0.592,0-0.983,0.56-0.983,1.119v2.551h-0.704v-2.895c0-0.352-0.136-0.775-0.656-0.775c-0.4,0-1.104,0.256-1.104,1.391v2.279
				H68.26V54.035z"/>
		</g>
	</g>
</g>
<g>
	<g>
		<line class="st1" x1="77.353" y1="143.974" x2="77.353" y2="126.672"/>
	</g>
	<line class="st1" x1="54.211" y1="126.672" x2="54.211" y2="143.974"/>
	<line class="st0" x1="172.339" y1="135.772" x2="233.349" y2="135.772"/>
	<line class="st0" x1="230.551" y1="135.772" x2="409.799" y2="135.772"/>
	<line class="st0" x1="77.353" y1="135.772" x2="94.239" y2="135.772"/>
	<line class="st0" x1="94.239" y1="135.772" x2="148.713" y2="135.772"/>
	<line class="st0" x1="0.5" y1="135.772" x2="54.211" y2="135.772"/>
	<line class="st0" x1="0.5" y1="97.931" x2="0.5" y2="173.715"/>
	<line class="st0" x1="409.799" y1="97.931" x2="409.799" y2="173.715"/>
	<line class="st1" x1="172.339" y1="145.694" x2="172.339" y2="128.393"/>
	<line class="st1" x1="149.196" y1="128.393" x2="149.196" y2="145.694"/>
	<path class="st1" d="M370.684,144.76c4.766,0,8.631-3.864,8.631-8.632c0-4.766-3.865-8.631-8.631-8.631
		c-4.766,0-8.631,3.865-8.631,8.631C362.053,140.896,365.918,144.76,370.684,144.76z"/>
	<g>
		<rect x="152.579" y="128.483" class="st2" width="15.869" height="15.869"/>
	</g>
	<g>
		<g>
			<path d="M158.662,118.577c-0.04-0.888-0.775-1.167-1.423-1.167c-0.488,0-1.311,0.136-1.311,1.007c0,0.488,0.344,0.647,0.68,0.728
				l1.639,0.376c0.744,0.176,1.304,0.624,1.304,1.535c0,1.359-1.264,1.735-2.247,1.735c-1.063,0-1.479-0.32-1.735-0.552
				c-0.488-0.439-0.584-0.919-0.584-1.455h0.728c0,1.04,0.847,1.343,1.583,1.343c0.56,0,1.503-0.144,1.503-0.967
				c0-0.6-0.28-0.792-1.223-1.016l-1.175-0.272c-0.376-0.088-1.224-0.352-1.224-1.351c0-0.896,0.584-1.775,1.975-1.775
				c2.007,0,2.207,1.199,2.239,1.831H158.662z"/>
			<path d="M161.247,122.639h-0.704v-4.182h0.664v0.695h0.016c0.28-0.487,0.647-0.815,1.175-0.815c0.088,0,0.128,0.008,0.184,0.024
				v0.728h-0.264c-0.656,0-1.071,0.512-1.071,1.119V122.639z"/>
			<path d="M165.566,119.864c-0.088-0.56-0.4-0.896-0.991-0.896c-0.872,0-1.151,0.832-1.151,1.575c0,0.72,0.176,1.607,1.143,1.607
				c0.472,0,0.879-0.352,1-0.991h0.68c-0.072,0.664-0.48,1.599-1.703,1.599c-1.175,0-1.871-0.888-1.871-2.095
				c0-1.295,0.624-2.327,2.007-2.327c1.096,0,1.511,0.8,1.567,1.527H165.566z"/>
		</g>
	</g>
	<g>
		<g>
			<path d="M156.482,149.064h0.751v5.741h-0.872l-2.918-4.637h-0.016v4.637h-0.752v-5.741h0.92l2.87,4.637h0.016V149.064z"/>
			<path d="M161.09,154.805v-0.607l-0.016-0.017c-0.295,0.488-0.655,0.744-1.327,0.744c-0.616,0-1.359-0.296-1.359-1.296v-3.005
				h0.704v2.774c0,0.688,0.352,0.92,0.807,0.92c0.888,0,1.151-0.784,1.151-1.392v-2.302h0.704v4.181H161.09z"/>
			<path d="M162.811,150.623h0.664v0.592h0.016c0.152-0.224,0.512-0.712,1.264-0.712c0.751,0,0.991,0.456,1.111,0.68
				c0.352-0.392,0.631-0.68,1.279-0.68c0.448,0,1.295,0.232,1.295,1.407v2.895h-0.704v-2.702c0-0.576-0.176-0.967-0.775-0.967
				c-0.592,0-0.983,0.559-0.983,1.119v2.551h-0.704v-2.895c0-0.352-0.136-0.775-0.656-0.775c-0.4,0-1.104,0.255-1.104,1.391v2.278
				h-0.704V150.623z"/>
		</g>
	</g>
</g>
<g>
	<line class="st0" x1="77.837" y1="214.172" x2="409.798" y2="214.172"/>
	<line class="st0" x1="0.5" y1="214.172" x2="54.211" y2="214.172"/>
	<line class="st0" x1="0.5" y1="195.861" x2="0.5" y2="306.131"/>
	<line class="st0" x1="409.798" y1="195.861" x2="409.798" y2="306.131"/>
	<path class="st1" d="M370.735,223.937c4.766,0,8.631-3.865,8.631-8.632c0-4.767-3.865-8.632-8.631-8.632
		c-4.766,0-8.631,3.865-8.631,8.632C362.105,220.073,365.969,223.937,370.735,223.937z"/>
	<polyline class="st0" points="0.5,278.869 125.012,278.869 125.012,214.172 	"/>
	<g>
		<rect x="54.873" y="270.221" class="st3" width="23.142" height="17.302"/>
		<line class="st1" x1="78.015" y1="287.524" x2="78.015" y2="270.221"/>
	</g>
	<line class="st1" x1="54.873" y1="270.221" x2="54.873" y2="287.524"/>
	<g>
		<rect x="58.535" y="271.595" class="st2" width="15.869" height="15.869"/>
	</g>
	<line class="st1" x1="77.837" y1="224.094" x2="77.837" y2="206.793"/>
	<line class="st1" x1="54.694" y1="206.793" x2="54.694" y2="224.094"/>
	<g>
		<g>
			<path d="M64.108,262.54c-0.04-0.888-0.775-1.168-1.423-1.168c-0.488,0-1.311,0.137-1.311,1.008c0,0.487,0.344,0.647,0.68,0.728
				l1.639,0.376c0.744,0.176,1.304,0.623,1.304,1.535c0,1.359-1.264,1.735-2.247,1.735c-1.063,0-1.479-0.32-1.735-0.552
				c-0.488-0.44-0.584-0.92-0.584-1.455h0.728c0,1.039,0.847,1.343,1.583,1.343c0.56,0,1.503-0.144,1.503-0.968
				c0-0.6-0.28-0.791-1.223-1.016l-1.175-0.271c-0.376-0.088-1.224-0.352-1.224-1.352c0-0.896,0.584-1.774,1.975-1.774
				c2.007,0,2.207,1.199,2.239,1.831H64.108z"/>
			<path d="M66.694,266.601H65.99v-4.182h0.664v0.695h0.016c0.28-0.487,0.647-0.815,1.175-0.815c0.088,0,0.128,0.008,0.184,0.024
				v0.728h-0.264c-0.656,0-1.071,0.512-1.071,1.119V266.601z"/>
			<path d="M71.013,263.827c-0.088-0.56-0.4-0.896-0.991-0.896c-0.872,0-1.151,0.831-1.151,1.575c0,0.72,0.176,1.607,1.143,1.607
				c0.472,0,0.879-0.353,1-0.992h0.68c-0.072,0.664-0.48,1.6-1.703,1.6c-1.175,0-1.871-0.888-1.871-2.095
				c0-1.296,0.624-2.327,2.007-2.327c1.096,0,1.511,0.8,1.567,1.527H71.013z"/>
		</g>
	</g>
	<g>
		<g>
			<path d="M61.928,291.84h0.751v5.741h-0.872l-2.918-4.638h-0.016v4.638h-0.752v-5.741h0.92l2.87,4.638h0.016V291.84z"/>
			<path d="M66.537,297.581v-0.607l-0.016-0.017c-0.295,0.488-0.655,0.744-1.327,0.744c-0.616,0-1.359-0.296-1.359-1.296v-3.006
				h0.704v2.774c0,0.688,0.352,0.92,0.807,0.92c0.888,0,1.151-0.784,1.151-1.392v-2.303H67.2v4.182H66.537z"/>
			<path d="M68.258,293.399h0.664v0.592h0.016c0.152-0.224,0.512-0.712,1.264-0.712c0.751,0,0.991,0.456,1.111,0.68
				c0.352-0.392,0.631-0.68,1.279-0.68c0.448,0,1.295,0.232,1.295,1.407v2.895h-0.704v-2.702c0-0.576-0.176-0.968-0.775-0.968
				c-0.592,0-0.983,0.56-0.983,1.119v2.551h-0.704v-2.895c0-0.352-0.136-0.775-0.656-0.775c-0.4,0-1.104,0.256-1.104,1.392v2.278
				h-0.704V293.399z"/>
		</g>
	</g>
</g>
<g>
	<g>
		<path d="M82.149,30.271l-1.08-0.568l0.2-0.335l1.031,0.615l-0.016-1.143h0.392l-0.024,1.143l1.031-0.615l0.2,0.335l-1.071,0.568
			l1.071,0.567l-0.2,0.336l-1.031-0.624l0.024,1.151h-0.392l0.016-1.151l-1.031,0.624l-0.2-0.336L82.149,30.271z"/>
	</g>
</g>
<g>
	<g>
		<path d="M176.309,128.288l-1.08-0.568l0.2-0.335L176.46,128l-0.016-1.143h0.392L176.812,128l1.031-0.615l0.2,0.335l-1.071,0.568
			l1.071,0.567l-0.2,0.336l-1.031-0.624l0.024,1.151h-0.392l0.016-1.151l-1.031,0.624l-0.2-0.336L176.309,128.288z"/>
	</g>
</g>
<g>
	<g>
		<path d="M82.15,269.618l-1.08-0.567l0.2-0.336l1.031,0.615l-0.016-1.144h0.392l-0.024,1.144l1.031-0.615l0.2,0.336l-1.071,0.567
			l1.071,0.567l-0.2,0.336l-1.031-0.624l0.024,1.152h-0.392l0.016-1.152l-1.031,0.624l-0.2-0.336L82.15,269.618z"/>
	</g>
</g>
<g>
</g>
<g>
</g>
<g>
</g>
<g>
</g>
<g>
</g>
</svg>
