<?xml version="1.0" encoding="utf-8"?>
<!-- Generator: Adobe Illustrator 28.2.0, SVG Export Plug-In . SVG Version: 6.00 Build 0)  -->
<svg version="1.1" id="图层_1" xmlns="http://www.w3.org/2000/svg" xmlns:xlink="http://www.w3.org/1999/xlink" x="0px" y="0px"
	 width="188.795px" height="30.146px" viewBox="0 0 188.795 30.146" style="enable-background:new 0 0 188.795 30.146;"
	 xml:space="preserve">
<style type="text/css">
	.st0{fill:none;stroke:#000000;}
	.st1{fill:#FFFFFF;stroke:#000000;}
</style>
<line class="st0" x1="89.083" y1="14.172" x2="188.295" y2="14.172"/>
<line class="st0" x1="32.39" y1="14.172" x2="74.909" y2="14.172"/>
<line class="st1" x1="89.083" y1="17.716" x2="89.083" y2="10.629"/>
<line class="st1" x1="74.909" y1="10.629" x2="74.909" y2="17.716"/>
<g>
	<g>
		<path d="M67.747,22.605h2.327c1.496,0,2.415,1.135,2.415,2.79c0,1.287-0.56,2.95-2.447,2.95h-2.295V22.605z M68.523,27.682h1.503
			c1.008,0,1.663-0.792,1.663-2.239s-0.664-2.175-1.719-2.175h-1.447V27.682z"/>
		<path d="M78.208,28.345v-3.39c0-0.168,0.016-0.896,0.016-1.432h-0.016l-1.615,4.821h-0.768l-1.615-4.813h-0.016
			c0,0.528,0.016,1.256,0.016,1.424v3.39h-0.752v-5.74h1.112l1.639,4.853h0.016l1.631-4.853h1.103v5.74H78.208z"/>
		<path d="M82.41,28.345h-0.752v-3.989h-1.311v-0.56c0.912-0.064,1.287-0.152,1.511-1.072h0.552V28.345z"/>
		<path d="M85.77,28.498c-1.615,0-1.927-1.719-1.927-2.887c0-1.167,0.312-2.887,1.927-2.887s1.927,1.72,1.927,2.887
			C87.697,26.779,87.385,28.498,85.77,28.498z M85.77,23.356c-0.808,0-1.175,0.848-1.175,2.255s0.368,2.255,1.175,2.255
			s1.175-0.848,1.175-2.255S86.577,23.356,85.77,23.356z"/>
		<path d="M90.218,28.498c-1.615,0-1.927-1.719-1.927-2.887c0-1.167,0.312-2.887,1.927-2.887s1.927,1.72,1.927,2.887
			C92.145,26.779,91.833,28.498,90.218,28.498z M90.218,23.356c-0.808,0-1.175,0.848-1.175,2.255s0.368,2.255,1.175,2.255
			s1.175-0.848,1.175-2.255S91.026,23.356,90.218,23.356z"/>
		<path d="M94.666,28.498c-1.615,0-1.927-1.719-1.927-2.887c0-1.167,0.312-2.887,1.927-2.887s1.927,1.72,1.927,2.887
			C96.593,26.779,96.281,28.498,94.666,28.498z M94.666,23.356c-0.808,0-1.175,0.848-1.175,2.255s0.368,2.255,1.175,2.255
			s1.175-0.848,1.175-2.255S95.473,23.356,94.666,23.356z"/>
	</g>
</g>
<g>
	<g>
		<path d="M74.199,1.345h2.327c1.496,0,2.415,1.135,2.415,2.791c0,1.287-0.56,2.95-2.447,2.95h-2.295V1.345z M74.975,6.422h1.503
			c1.008,0,1.663-0.792,1.663-2.239s-0.664-2.175-1.719-2.175h-1.447V6.422z"/>
		<path d="M84.66,7.086v-3.39c0-0.168,0.016-0.896,0.016-1.431H84.66l-1.615,4.821h-0.768l-1.615-4.813h-0.016
			c0,0.528,0.016,1.255,0.016,1.423v3.39h-0.752V1.345h1.112l1.639,4.853h0.016l1.631-4.853h1.103v5.741H84.66z"/>
		<path d="M88.214,7.238c-1.615,0-1.927-1.719-1.927-2.886s0.312-2.887,1.927-2.887s1.927,1.719,1.927,2.887
			S89.829,7.238,88.214,7.238z M88.214,2.097c-0.808,0-1.175,0.848-1.175,2.255s0.368,2.254,1.175,2.254s1.175-0.847,1.175-2.254
			S89.022,2.097,88.214,2.097z"/>
	</g>
</g>
<g>
	<g>
		<path d="M79.919,11.975h2.526c1.071,0,1.623,0.664,1.623,1.447c0,0.375-0.136,0.903-0.768,1.199
			c0.376,0.152,1.04,0.416,1.04,1.399c0,0.919-0.68,1.694-1.951,1.694h-2.471V11.975z M80.695,14.406h1.399
			c0.744,0,1.199-0.224,1.199-0.928c0-0.536-0.328-0.839-1.191-0.839h-1.407V14.406z M80.695,17.052h1.655
			c0.808,0,1.215-0.408,1.215-1.047c0-0.808-0.712-0.968-1.343-0.968h-1.527V17.052z"/>
	</g>
</g>
<line class="st0" x1="0.5" y1="0" x2="0.5" y2="28.346"/>
<line class="st1" x1="32.39" y1="17.716" x2="32.39" y2="10.629"/>
<line class="st1" x1="25.303" y1="10.629" x2="25.303" y2="17.716"/>
<g>
	<g>
		<path d="M18.812,3.072c-0.216-1.007-1.056-1.191-1.607-1.191c-1.04,0-1.879,0.768-1.879,2.279c0,1.351,0.479,2.391,1.903,2.391
			c0.504,0,1.375-0.24,1.639-1.575h0.751c-0.32,2.167-2.079,2.263-2.51,2.263c-1.304,0-2.583-0.848-2.583-3.054
			c0-1.767,1.008-2.99,2.679-2.99c1.479,0,2.247,0.919,2.359,1.879H18.812z"/>
		<path d="M21.429,7.086h-0.775V1.345h2.654c0.944,0,1.887,0.328,1.887,1.543c0,0.848-0.432,1.159-0.799,1.375
			c0.328,0.136,0.655,0.28,0.688,1.079l0.048,1.04c0.008,0.32,0.048,0.44,0.288,0.576v0.128h-0.952
			c-0.112-0.352-0.136-1.223-0.136-1.439c0-0.472-0.096-1.023-1.023-1.023h-1.879V7.086z M21.429,3.96h1.799
			c0.567,0,1.167-0.144,1.167-0.991c0-0.888-0.648-0.959-1.032-0.959h-1.935V3.96z"/>
		<path d="M26.077,3.48c0-1.831,1.335-2.015,1.943-2.015c0.975,0,1.759,0.632,1.759,1.679c0,1.007-0.664,1.431-1.503,1.879
			l-0.584,0.32c-0.768,0.424-0.936,0.864-0.967,1.08h3.054v0.664h-3.846c0.04-1.167,0.567-1.791,1.319-2.231l0.743-0.432
			c0.6-0.344,1.032-0.576,1.032-1.311c0-0.448-0.288-1.016-1.111-1.016c-1.063,0-1.111,0.992-1.135,1.383H26.077z"/>
		<path d="M32.397,7.238c-1.615,0-1.927-1.719-1.927-2.886s0.312-2.887,1.927-2.887c1.615,0,1.927,1.719,1.927,2.887
			S34.012,7.238,32.397,7.238z M32.397,2.097c-0.808,0-1.175,0.848-1.175,2.255s0.368,2.254,1.175,2.254
			c0.808,0,1.175-0.847,1.175-2.254S33.204,2.097,32.397,2.097z"/>
		<path d="M36.844,7.238c-1.615,0-1.927-1.719-1.927-2.886s0.312-2.887,1.927-2.887c1.615,0,1.927,1.719,1.927,2.887
			S38.46,7.238,36.844,7.238z M36.844,2.097c-0.808,0-1.175,0.848-1.175,2.255s0.368,2.254,1.175,2.254s1.175-0.847,1.175-2.254
			S37.652,2.097,36.844,2.097z"/>
		<path d="M39.421,3.48c0-1.831,1.335-2.015,1.943-2.015c0.975,0,1.759,0.632,1.759,1.679c0,1.007-0.664,1.431-1.503,1.879
			l-0.584,0.32c-0.768,0.424-0.936,0.864-0.967,1.08h3.054v0.664h-3.846c0.04-1.167,0.567-1.791,1.319-2.231l0.743-0.432
			c0.6-0.344,1.032-0.576,1.032-1.311c0-0.448-0.288-1.016-1.111-1.016c-1.063,0-1.111,0.992-1.135,1.383H39.421z"/>
	</g>
</g>
<line class="st0" x1="0.5" y1="14.172" x2="25.303" y2="14.172"/>
<line class="st0" x1="188.295" y1="0" x2="188.295" y2="28.346"/>
<g>
</g>
<g>
</g>
<g>
</g>
<g>
</g>
<g>
</g>
</svg>
