<?xml version="1.0" encoding="utf-8"?>
<!-- Generator: Adobe Illustrator 28.2.0, SVG Export Plug-In . SVG Version: 6.00 Build 0)  -->
<svg version="1.1" xmlns="http://www.w3.org/2000/svg" xmlns:xlink="http://www.w3.org/1999/xlink" x="0px" y="0px"
	 width="372.705px" height="88.784px" viewBox="0 0 372.705 88.784" style="enable-background:new 0 0 372.705 88.784;"
	 xml:space="preserve">
<style type="text/css">
	.st0{fill:none;stroke:#000000;stroke-width:0.5;stroke-miterlimit:10;}
	.st1{fill:none;stroke:#FF0000;stroke-miterlimit:10;}
	.st2{fill:#FF0000;}
	.st3{fill:none;stroke:#008DFF;stroke-miterlimit:10;}
	.st4{fill:#008DFF;}
	.st5{fill:none;stroke:#FF0000;stroke-width:0.5;stroke-miterlimit:10;}
	.st6{fill:none;stroke:#008DFF;stroke-width:0.5;stroke-miterlimit:10;}
</style>
<g id="レイヤー_1">
	<rect x="8.891" y="9.475" class="st0" width="39.683" height="18.142"/>
	<rect x="48.574" y="9.475" class="st0" width="39.683" height="18.142"/>
	<rect x="88.257" y="9.475" class="st0" width="39.683" height="18.142"/>
	<rect x="127.94" y="9.475" class="st0" width="39.683" height="18.142"/>
	<rect x="167.623" y="9.475" class="st0" width="39.683" height="18.142"/>
	<rect x="207.306" y="9.475" class="st0" width="39.683" height="18.142"/>
	<rect x="246.989" y="9.475" class="st0" width="39.683" height="18.142"/>
	<rect x="286.672" y="9.475" class="st0" width="39.683" height="18.142"/>
	<rect x="326.354" y="9.475" class="st0" width="39.683" height="18.142"/>
	<rect x="8.891" y="70.392" class="st0" width="39.683" height="18.142"/>
	<rect x="48.574" y="70.392" class="st0" width="39.683" height="18.142"/>
	<rect x="88.257" y="70.392" class="st0" width="39.683" height="18.142"/>
	<rect x="127.94" y="70.392" class="st0" width="39.683" height="18.142"/>
	<rect x="167.623" y="70.392" class="st0" width="39.683" height="18.142"/>
	<rect x="207.306" y="70.392" class="st0" width="39.683" height="18.142"/>
	<rect x="246.989" y="70.392" class="st0" width="39.683" height="18.142"/>
	<rect x="286.672" y="70.392" class="st0" width="39.683" height="18.142"/>
	<rect x="326.354" y="70.392" class="st0" width="39.683" height="18.142"/>
	<g>
		<g>
			<line class="st1" x1="166.668" y1="69.877" x2="88.257" y2="27.617"/>
			<g>
				<polygon class="st2" points="165.692,64.705 164.744,65.026 166.331,69.694 161.558,70.936 161.811,71.905 167.623,70.391 				
					"/>
			</g>
		</g>
	</g>
	<g>
		<g>
			<line class="st1" x1="325.4" y1="69.877" x2="246.989" y2="27.617"/>
			<g>
				<polygon class="st2" points="324.423,64.705 323.475,65.026 325.062,69.694 320.29,70.936 320.543,71.905 326.355,70.391 				
					"/>
			</g>
		</g>
	</g>
	<g>
		<g>
			<line class="st3" x1="247.943" y1="69.877" x2="326.354" y2="27.617"/>
			<g>
				<polygon class="st4" points="252.801,71.906 253.053,70.937 248.282,69.696 249.868,65.027 248.92,64.706 246.989,70.393 				
					"/>
			</g>
		</g>
	</g>
	<g>
		<g>
			<line class="st3" x1="89.212" y1="69.877" x2="167.623" y2="27.617"/>
			<g>
				<polygon class="st4" points="94.069,71.906 94.322,70.937 89.55,69.696 91.136,65.027 90.189,64.706 88.257,70.393 				"/>
			</g>
		</g>
	</g>
</g>
<g id="レイヤー_2">
	<g>
		<path d="M15.429,19.708c0.088,1.032,0.776,1.407,1.655,1.407c1.031,0,1.464-0.56,1.464-1.191c0-1.783-3.511-0.6-3.511-2.863
			c0-0.799,0.664-1.543,1.951-1.543c1.295,0,1.943,0.784,1.935,1.719h-0.52c0-0.88-0.68-1.255-1.415-1.255
			c-1.104,0-1.503,0.679-1.407,1.271c0.248,1.487,3.51,0.416,3.51,2.646c0,1.056-0.775,1.679-2.103,1.679
			c-1.199,0-2.087-0.624-2.087-1.871H15.429z"/>
		<path d="M20.524,21.427h-0.479v-4.142h0.479v0.775h0.017c0.264-0.664,0.655-0.888,1.351-0.888v0.52
			c-1.079-0.024-1.367,0.775-1.367,1.703V21.427z"/>
		<path d="M25.619,18.589c-0.168-0.616-0.592-0.983-1.231-0.983c-0.983,0-1.391,0.896-1.391,1.759c0,0.872,0.399,1.743,1.391,1.743
			c0.712,0,1.16-0.424,1.271-1.111h0.512c-0.168,0.919-0.743,1.543-1.783,1.543c-1.318,0-1.902-0.951-1.902-2.175
			c0-1.151,0.663-2.191,1.902-2.191c0.952,0,1.575,0.456,1.72,1.416H25.619z"/>
	</g>
	<g>
		<path d="M68.607,17.238h-1.455v-0.336c0.855-0.056,1.391-0.144,1.559-1.111h0.408v5.637h-0.512V17.238z"/>
	</g>
	<g>
		<path d="M106.427,17.637c0-1.111,0.72-1.847,1.831-1.847c1.136,0,1.735,0.695,1.735,1.559c0,1.495-1.615,1.871-2.455,2.51
			c-0.368,0.28-0.712,0.6-0.735,1.136h3.142v0.432h-3.686c0.008-0.536,0.08-0.959,0.439-1.375c1.176-1.359,2.734-1.344,2.734-2.671
			c0-0.735-0.543-1.159-1.239-1.159c-0.735,0-1.255,0.656-1.223,1.415H106.427z"/>
	</g>
	<g>
		<path d="M147.325,18.293c0.952,0.008,1.615-0.216,1.615-1.08c0-0.695-0.552-0.991-1.199-0.991c-0.72,0-1.207,0.504-1.207,1.207
			h-0.512c0-0.503,0.168-0.911,0.544-1.263c0.352-0.32,0.815-0.375,1.279-0.375c0.887,0,1.606,0.448,1.606,1.391
			c0,0.583-0.256,1.023-0.799,1.255c0.815,0.256,0.999,0.872,0.999,1.391c0,0.927-0.655,1.679-1.815,1.711
			c-1.303,0-1.887-0.432-2.007-1.743h0.512c0,0.855,0.568,1.311,1.399,1.311c0.815,0,1.432-0.608,1.399-1.271
			c-0.032-0.911-0.823-1.199-1.815-1.127V18.293z"/>
	</g>
	<g>
		<path d="M188.103,20.036h-2.574v-0.44l2.622-3.75h0.464v3.758h0.783v0.432h-0.783v1.391h-0.512V20.036z M186.033,19.604h2.07
			v-2.99L186.033,19.604z"/>
	</g>
	<g>
		<path d="M225.715,19.964c0.104,0.76,0.655,1.144,1.391,1.144c0.84,0,1.352-0.64,1.352-1.439c0-0.84-0.544-1.432-1.399-1.432
			c-0.504,0-0.911,0.176-1.224,0.584l-0.424-0.056l0.456-2.918h2.799v0.432h-2.367l-0.352,1.895
			c0.439-0.288,0.728-0.368,1.239-0.368c1.031,0,1.783,0.704,1.783,1.863c0,1.183-0.855,1.871-1.783,1.871
			c-1.063,0-1.895-0.408-1.982-1.575H225.715z"/>
	</g>
	<g>
		<path d="M1.111,6.64H0.632V0.883h0.479v2.279c0.304-0.504,0.896-0.776,1.479-0.776c1.263,0,1.847,1.032,1.847,2.191
			c0,1.224-0.536,2.175-1.871,2.175c-0.527,0-1.159-0.296-1.439-0.839H1.111V6.64z M2.511,6.32c0.808,0,1.407-0.583,1.415-1.623
			c0.04-1.04-0.424-1.879-1.415-1.879c-0.872,0-1.399,0.799-1.399,1.735C1.111,5.553,1.607,6.32,2.511,6.32z"/>
		<path d="M5.512,1.595V0.883h0.527v0.711H5.512z M5.535,6.64V2.499h0.479V6.64H5.535z"/>
		<path d="M8.694,6.656C8.582,6.68,8.374,6.752,8.143,6.752c-0.472,0-0.736-0.208-0.736-0.823V2.898H6.823V2.499h0.583V1.347h0.48
			v1.151h0.775v0.399H7.887v2.839c0,0.408,0.016,0.583,0.415,0.583c0.128,0,0.265-0.024,0.393-0.056V6.656z"/>
		<path d="M11.302,2.451H9.847V2.115c0.855-0.056,1.391-0.144,1.559-1.111h0.408V6.64h-0.512V2.451z"/>
		<path d="M14.127,5.177c0.104,0.76,0.655,1.144,1.391,1.144c0.84,0,1.352-0.64,1.352-1.439c0-0.84-0.544-1.432-1.399-1.432
			c-0.504,0-0.911,0.176-1.224,0.584l-0.424-0.056l0.456-2.918h2.799v0.432H14.71l-0.352,1.895c0.439-0.288,0.728-0.368,1.239-0.368
			c1.031,0,1.783,0.704,1.783,1.863c0,1.183-0.855,1.871-1.783,1.871c-1.063,0-1.895-0.408-1.982-1.575H14.127z"/>
	</g>
	<g>
		<path d="M268.101,17.173c-0.112-0.575-0.472-0.951-1.071-0.951c-1.384,0-1.503,1.487-1.583,2.551
			c0.319-0.432,0.655-0.88,1.479-0.88c1.136,0,1.791,0.688,1.791,1.815c0,1.136-0.663,1.831-1.807,1.831
			c-1.127,0-1.975-0.704-1.975-2.694c0-1.335,0.392-3.054,2.047-3.054c0.888,0,1.543,0.479,1.646,1.383H268.101z M265.638,19.724
			c0,0.632,0.352,1.383,1.279,1.383c0.952,0,1.287-0.736,1.287-1.415c0-0.872-0.415-1.368-1.295-1.368
			C266.118,18.325,265.638,18.964,265.638,19.724z"/>
	</g>
	<g>
		<path d="M304.762,15.846h3.59v0.48c-1.615,1.823-2.223,3.998-2.286,5.101h-0.56c0.111-1.631,1.15-3.742,2.23-5.069h-2.975V15.846z
			"/>
	</g>
	<g>
		<path d="M344.524,17.166c0-0.775,0.72-1.407,1.607-1.375c0.863,0,1.703,0.408,1.703,1.375c0,0.584-0.232,1-0.768,1.263
			c0.615,0.224,0.999,0.744,0.999,1.399c0,1.104-0.783,1.711-1.983,1.711c-0.815,0-1.759-0.56-1.759-1.663
			c0-0.671,0.344-1.231,0.983-1.479C344.764,18.053,344.524,17.837,344.524,17.166z M344.835,19.876
			c0,0.696,0.544,1.231,1.399,1.231c0.744,0,1.319-0.512,1.319-1.263c0-0.792-0.6-1.175-1.352-1.175
			C345.419,18.669,344.835,19.044,344.835,19.876z M345.036,17.238c0,0.695,0.575,0.999,1.199,0.999
			c0.615,0,1.088-0.312,1.088-1.111c0-0.567-0.368-0.903-1.144-0.903C345.547,16.222,345.036,16.574,345.036,17.238z"/>
	</g>
	<g>
		<path d="M360.48,6.64H360V0.883h0.479v2.279c0.304-0.504,0.896-0.776,1.479-0.776c1.263,0,1.847,1.032,1.847,2.191
			c0,1.224-0.535,2.175-1.871,2.175c-0.527,0-1.159-0.296-1.439-0.839h-0.016V6.64z M361.879,6.32c0.808,0,1.407-0.583,1.415-1.623
			c0.04-1.04-0.424-1.879-1.415-1.879c-0.872,0-1.399,0.799-1.399,1.735C360.48,5.553,360.976,6.32,361.879,6.32z"/>
		<path d="M364.88,1.595V0.883h0.527v0.711H364.88z M364.904,6.64V2.499h0.479V6.64H364.904z"/>
		<path d="M368.064,6.656c-0.112,0.024-0.32,0.096-0.552,0.096c-0.472,0-0.736-0.208-0.736-0.823V2.898h-0.583V2.499h0.583V1.347
			h0.48v1.151h0.775v0.399h-0.775v2.839c0,0.408,0.016,0.583,0.415,0.583c0.128,0,0.265-0.024,0.393-0.056V6.656z"/>
		<path d="M372.382,3.921c0,1.496-0.352,2.831-1.903,2.831c-1.559,0-1.911-1.327-1.911-2.886c0-1.423,0.288-2.862,1.911-2.862
			C372.15,1.003,372.382,2.61,372.382,3.921z M370.463,1.435c-1.12,0-1.384,1.239-1.384,2.486c0,1.447,0.32,2.399,1.399,2.399
			c1.216,0,1.392-1.319,1.392-2.455C371.871,2.65,371.655,1.435,370.463,1.435z"/>
	</g>
	<g>
		<path d="M15.205,82.344v-5.757h1.967c0.64,0,1.239,0.04,1.775,0.432c0.76,0.552,0.959,1.671,0.959,2.439
			c0,0.759-0.167,1.607-0.695,2.183c-0.527,0.592-1.279,0.704-2.039,0.704H15.205z M15.749,81.88h1.303
			c0.488,0,0.912-0.032,1.352-0.264c0.768-0.392,0.96-1.375,0.96-2.159c0-0.84-0.185-1.759-0.992-2.191
			c-0.344-0.184-0.839-0.216-1.319-0.216h-1.303V81.88z"/>
		<path d="M21.188,81.049c0.152,0.712,0.52,0.976,1.239,0.976c0.695,0,1.023-0.368,1.023-0.768c0-1.199-2.654-0.352-2.654-1.983
			c0-0.688,0.535-1.184,1.455-1.184c0.896,0,1.479,0.368,1.599,1.304h-0.487c-0.088-0.64-0.52-0.872-1.119-0.872
			c-0.607,0-0.936,0.288-0.936,0.711c0,1.127,2.654,0.424,2.654,2.015c0,0.792-0.712,1.207-1.687,1.207
			c-0.976,0-1.535-0.624-1.575-1.407H21.188z"/>
		<path d="M26.364,82.36c-0.112,0.024-0.32,0.096-0.552,0.096c-0.472,0-0.736-0.208-0.736-0.823v-3.031h-0.583v-0.399h0.583v-1.151
			h0.48v1.151h0.775v0.399h-0.775v2.839c0,0.408,0.016,0.583,0.415,0.583c0.128,0,0.265-0.024,0.393-0.056V82.36z"/>
	</g>
	<g>
		<path d="M67.958,79.21c0.952,0.008,1.615-0.216,1.615-1.08c0-0.695-0.552-0.991-1.199-0.991c-0.72,0-1.207,0.504-1.207,1.207
			h-0.512c0-0.503,0.168-0.911,0.544-1.263c0.352-0.32,0.815-0.375,1.279-0.375c0.887,0,1.606,0.448,1.606,1.391
			c0,0.583-0.256,1.023-0.799,1.255c0.815,0.256,0.999,0.872,0.999,1.391c0,0.927-0.655,1.679-1.815,1.711
			c-1.303,0-1.887-0.432-2.007-1.743h0.512c0,0.855,0.568,1.311,1.399,1.311c0.815,0,1.432-0.608,1.399-1.271
			c-0.032-0.911-0.823-1.199-1.815-1.127V79.21z"/>
	</g>
	<g>
		<path d="M108.738,80.953h-2.574v-0.44l2.622-3.75h0.464v3.758h0.783v0.432h-0.783v1.391h-0.512V80.953z M106.667,80.521h2.07
			v-2.99L106.667,80.521z"/>
	</g>
	<g>
		<path d="M147.974,78.155h-1.455v-0.336c0.855-0.056,1.391-0.144,1.559-1.111h0.408v5.637h-0.512V78.155z"/>
	</g>
	<g>
		<path d="M185.792,78.554c0-1.111,0.72-1.847,1.831-1.847c1.136,0,1.735,0.695,1.735,1.559c0,1.495-1.615,1.871-2.455,2.51
			c-0.368,0.28-0.712,0.6-0.735,1.136h3.142v0.432h-3.686c0.008-0.536,0.08-0.959,0.439-1.375c1.176-1.359,2.734-1.344,2.734-2.671
			c0-0.735-0.543-1.159-1.239-1.159c-0.735,0-1.255,0.656-1.223,1.415H185.792z"/>
	</g>
	<g>
		<path d="M225.395,76.763h3.59v0.48c-1.615,1.823-2.223,3.998-2.286,5.101h-0.56c0.111-1.631,1.15-3.742,2.23-5.069h-2.975V76.763z
			"/>
	</g>
	<g>
		<path d="M1.111,67.557H0.632V61.8h0.479v2.279c0.304-0.504,0.896-0.776,1.479-0.776c1.263,0,1.847,1.032,1.847,2.191
			c0,1.224-0.536,2.175-1.871,2.175c-0.527,0-1.159-0.296-1.439-0.839H1.111V67.557z M2.511,67.237c0.808,0,1.407-0.583,1.415-1.623
			c0.04-1.04-0.424-1.879-1.415-1.879c-0.872,0-1.399,0.799-1.399,1.735C1.111,66.469,1.607,67.237,2.511,67.237z"/>
		<path d="M5.512,62.511V61.8h0.527v0.711H5.512z M5.535,67.557v-4.142h0.479v4.142H5.535z"/>
		<path d="M8.694,67.573c-0.112,0.024-0.32,0.096-0.552,0.096c-0.472,0-0.736-0.208-0.736-0.823v-3.031H6.823v-0.399h0.583v-1.151
			h0.48v1.151h0.775v0.399H7.887v2.839c0,0.408,0.016,0.583,0.415,0.583c0.128,0,0.265-0.024,0.393-0.056V67.573z"/>
		<path d="M11.302,63.367H9.847v-0.336c0.855-0.056,1.391-0.144,1.559-1.111h0.408v5.637h-0.512V63.367z"/>
		<path d="M14.127,66.093c0.104,0.76,0.655,1.144,1.391,1.144c0.84,0,1.352-0.64,1.352-1.439c0-0.84-0.544-1.432-1.399-1.432
			c-0.504,0-0.911,0.176-1.224,0.584l-0.424-0.056l0.456-2.918h2.799v0.432H14.71l-0.352,1.895c0.439-0.288,0.728-0.368,1.239-0.368
			c1.031,0,1.783,0.704,1.783,1.863c0,1.183-0.855,1.871-1.783,1.871c-1.063,0-1.895-0.408-1.982-1.575H14.127z"/>
	</g>
	<g>
		<path d="M265.159,78.083c0-0.775,0.72-1.407,1.607-1.375c0.863,0,1.703,0.408,1.703,1.375c0,0.584-0.232,1-0.768,1.263
			c0.615,0.224,0.999,0.744,0.999,1.399c0,1.104-0.783,1.711-1.983,1.711c-0.815,0-1.759-0.56-1.759-1.663
			c0-0.671,0.344-1.231,0.983-1.479C265.399,78.97,265.159,78.754,265.159,78.083z M265.47,80.793c0,0.696,0.544,1.231,1.399,1.231
			c0.744,0,1.319-0.512,1.319-1.263c0-0.792-0.6-1.175-1.352-1.175C266.054,79.586,265.47,79.961,265.47,80.793z M265.67,78.155
			c0,0.695,0.575,0.999,1.199,0.999c0.615,0,1.088-0.312,1.088-1.111c0-0.567-0.368-0.903-1.144-0.903
			C266.182,77.139,265.67,77.491,265.67,78.155z"/>
	</g>
	<g>
		<path d="M305.083,80.881c0.104,0.76,0.655,1.144,1.391,1.144c0.84,0,1.352-0.64,1.352-1.439c0-0.84-0.544-1.432-1.399-1.432
			c-0.504,0-0.911,0.176-1.224,0.584l-0.424-0.056l0.456-2.918h2.799v0.432h-2.367l-0.352,1.895
			c0.439-0.288,0.728-0.368,1.239-0.368c1.031,0,1.783,0.704,1.783,1.863c0,1.183-0.855,1.871-1.783,1.871
			c-1.063,0-1.895-0.408-1.982-1.575H305.083z"/>
	</g>
	<g>
		<path d="M347.466,78.09c-0.112-0.575-0.472-0.951-1.071-0.951c-1.384,0-1.503,1.487-1.583,2.551
			c0.319-0.432,0.655-0.88,1.479-0.88c1.136,0,1.791,0.688,1.791,1.815c0,1.136-0.663,1.831-1.807,1.831
			c-1.127,0-1.975-0.704-1.975-2.694c0-1.335,0.392-3.054,2.047-3.054c0.888,0,1.543,0.479,1.646,1.383H347.466z M345.003,80.641
			c0,0.632,0.352,1.383,1.279,1.383c0.952,0,1.287-0.736,1.287-1.415c0-0.872-0.415-1.368-1.295-1.368
			C345.483,79.242,345.003,79.881,345.003,80.641z"/>
	</g>
	<g>
		<path d="M360.48,67.557H360V61.8h0.479v2.279c0.304-0.504,0.896-0.776,1.479-0.776c1.263,0,1.847,1.032,1.847,2.191
			c0,1.224-0.535,2.175-1.871,2.175c-0.527,0-1.159-0.296-1.439-0.839h-0.016V67.557z M361.879,67.237
			c0.808,0,1.407-0.583,1.415-1.623c0.04-1.04-0.424-1.879-1.415-1.879c-0.872,0-1.399,0.799-1.399,1.735
			C360.48,66.469,360.976,67.237,361.879,67.237z"/>
		<path d="M364.88,62.511V61.8h0.527v0.711H364.88z M364.904,67.557v-4.142h0.479v4.142H364.904z"/>
		<path d="M368.064,67.573c-0.112,0.024-0.32,0.096-0.552,0.096c-0.472,0-0.736-0.208-0.736-0.823v-3.031h-0.583v-0.399h0.583
			v-1.151h0.48v1.151h0.775v0.399h-0.775v2.839c0,0.408,0.016,0.583,0.415,0.583c0.128,0,0.265-0.024,0.393-0.056V67.573z"/>
		<path d="M372.382,64.838c0,1.496-0.352,2.831-1.903,2.831c-1.559,0-1.911-1.327-1.911-2.886c0-1.423,0.288-2.862,1.911-2.862
			C372.15,61.92,372.382,63.527,372.382,64.838z M370.463,62.352c-1.12,0-1.384,1.239-1.384,2.486c0,1.447,0.32,2.399,1.399,2.399
			c1.216,0,1.392-1.319,1.392-2.455C371.871,63.567,371.655,62.352,370.463,62.352z"/>
	</g>
	<g>
		<path class="st2" d="M126.44,10.975v15.142H50.074V10.975H126.44 M127.94,9.475H48.574v18.142h79.366V9.475L127.94,9.475z"/>
		<rect x="48.574" y="9.475" class="st5" width="79.366" height="18.142"/>
	</g>
	<g>
		<rect x="127.94" y="9.475" class="st6" width="79.366" height="18.142"/>
		<path class="st4" d="M205.806,10.975v15.142H129.44V10.975H205.806 M207.306,9.475H127.94v18.142h79.366V9.475L207.306,9.475z"/>
	</g>
	<g>
		<path class="st2" d="M285.172,10.975v15.142h-76.366V10.975H285.172 M286.672,9.475h-79.366v18.142h79.366V9.475L286.672,9.475z"
			/>
		<rect x="207.306" y="9.475" class="st5" width="79.366" height="18.142"/>
	</g>
	<g>
		<rect x="286.672" y="9.475" class="st6" width="79.366" height="18.142"/>
		<path class="st4" d="M364.537,10.975v15.142h-76.366V10.975H364.537 M366.037,9.475h-79.366v18.142h79.366V9.475L366.037,9.475z"
			/>
	</g>
	<g>
	</g>
	<g>
	</g>
	<g>
	</g>
	<g>
	</g>
	<g>
	</g>
	<g>
	</g>
	<g>
	</g>
	<g>
	</g>
	<g>
	</g>
	<g>
	</g>
	<g>
	</g>
	<g>
	</g>
	<g>
	</g>
	<g>
	</g>
	<g>
	</g>
	<g>
	</g>
</g>
</svg>
