<?xml version="1.0" encoding="utf-8"?>
<!-- Generator: Adobe Illustrator 28.2.0, SVG Export Plug-In . SVG Version: 6.00 Build 0)  -->
<svg version="1.1" id="儗僀儎乕_1" xmlns="http://www.w3.org/2000/svg" xmlns:xlink="http://www.w3.org/1999/xlink" x="0px"
	 y="0px" width="485.53px" height="136.056px" viewBox="0 0 485.53 136.056" style="enable-background:new 0 0 485.53 136.056;"
	 xml:space="preserve">
<style type="text/css">
	.st0{fill:#FFFFFF;stroke:#000000;}
	.st1{fill:#FFFFFF;}
	.st2{fill:none;stroke:#000000;}
	.st3{stroke:#000000;stroke-linecap:square;}
	.st4{stroke:#000000;stroke-width:0.5;}
</style>
<rect x="264.867" y="11.292" class="st0" width="208.686" height="34.603"/>
<line class="st0" x1="404.358" y1="45.895" x2="404.358" y2="11.292"/>
<rect x="276.473" y="0.288" class="st1" width="47.279" height="19.232"/>
<g>
	<path d="M288.612,8.467h2.526c1.071,0,1.623,0.664,1.623,1.447c0,0.375-0.136,0.903-0.768,1.199c0.376,0.152,1.04,0.416,1.04,1.399
		c0,0.919-0.68,1.695-1.951,1.695h-2.471V8.467z M289.387,10.898h1.399c0.744,0,1.199-0.224,1.199-0.928
		c0-0.536-0.328-0.839-1.191-0.839h-1.407V10.898z M289.387,13.545h1.655c0.808,0,1.215-0.408,1.215-1.047
		c0-0.808-0.712-0.968-1.343-0.968h-1.527V13.545z"/>
	<path d="M298.689,14.208v-3.39c0-0.168,0.016-0.896,0.016-1.431h-0.016l-1.615,4.821h-0.768l-1.615-4.813h-0.016
		c0,0.528,0.016,1.255,0.016,1.423v3.39h-0.752V8.467h1.112l1.639,4.853h0.016l1.631-4.853h1.103v5.741H298.689z"/>
	<path d="M303.13,14.36c-2.143,0-2.798-1.783-2.798-3.022s0.655-3.022,2.798-3.022c2.143,0,2.798,1.783,2.798,3.022
		S305.273,14.36,303.13,14.36z M303.13,9.003c-1.248,0-1.999,0.983-1.999,2.334c0,1.352,0.751,2.335,1.999,2.335
		c1.247,0,1.999-0.983,1.999-2.335C305.129,9.986,304.377,9.003,303.13,9.003z"/>
	<path d="M310.146,8.467h0.872l-2.095,5.741h-0.823l-2.095-5.741h0.863l1.639,4.893h0.016L310.146,8.467z"/>
</g>
<g>
	<path d="M32.175,88.22h4.662v0.688h-1.943v5.053h-0.776v-5.053h-1.943V88.22z"/>
	<path d="M37.31,93.961h-0.704v-4.182h0.664v0.696h0.016c0.28-0.488,0.647-0.816,1.175-0.816c0.088,0,0.128,0.008,0.184,0.024v0.728
		h-0.264c-0.656,0-1.071,0.512-1.071,1.12V93.961z"/>
	<path d="M39.311,89.019V88.22h0.704v0.799H39.311z M40.015,93.961h-0.704v-4.182h0.704V93.961z"/>
	<path d="M44.541,93.617c0,0.6-0.008,2.103-1.943,2.103c-0.496,0-1.463-0.136-1.599-1.248h0.704
		c0.128,0.664,0.775,0.664,0.943,0.664c1.215,0,1.191-0.976,1.191-1.471v-0.176h-0.016v0.032c-0.184,0.296-0.552,0.56-1.111,0.56
		c-1.423,0-1.839-1.335-1.839-2.335c0-1.175,0.632-2.087,1.743-2.087c0.759,0,1.079,0.472,1.247,0.712h0.016v-0.592h0.664V93.617z
		 M42.726,93.473c0.448,0,1.144-0.296,1.144-1.407c0-0.68-0.112-1.775-1.127-1.775c-1.087,0-1.144,1.031-1.144,1.567
		C41.599,92.778,41.958,93.473,42.726,93.473z"/>
	<path d="M48.989,93.617c0,0.6-0.008,2.103-1.943,2.103c-0.496,0-1.463-0.136-1.599-1.248h0.704
		c0.128,0.664,0.775,0.664,0.943,0.664c1.215,0,1.191-0.976,1.191-1.471v-0.176h-0.016v0.032c-0.184,0.296-0.551,0.56-1.111,0.56
		c-1.423,0-1.839-1.335-1.839-2.335c0-1.175,0.632-2.087,1.743-2.087c0.759,0,1.079,0.472,1.247,0.712h0.016v-0.592h0.664V93.617z
		 M47.174,93.473c0.448,0,1.144-0.296,1.144-1.407c0-0.68-0.112-1.775-1.127-1.775c-1.087,0-1.144,1.031-1.144,1.567
		C46.046,92.778,46.406,93.473,47.174,93.473z"/>
	<path d="M53.517,92.65c-0.024,0.2-0.216,0.792-0.744,1.143c-0.192,0.128-0.464,0.288-1.135,0.288c-1.175,0-1.871-0.888-1.871-2.095
		c0-1.295,0.624-2.327,2.007-2.327c1.208,0,1.799,0.959,1.799,2.439h-3.055c0,0.871,0.408,1.375,1.215,1.375
		c0.664,0,1.056-0.512,1.08-0.823H53.517z M52.845,91.538c-0.04-0.647-0.312-1.247-1.167-1.247c-0.648,0-1.16,0.6-1.16,1.247H52.845
		z"/>
	<path d="M55.215,93.961h-0.704v-4.182h0.664v0.696h0.016c0.28-0.488,0.647-0.816,1.175-0.816c0.088,0,0.128,0.008,0.184,0.024
		v0.728h-0.264c-0.656,0-1.071,0.512-1.071,1.12V93.961z"/>
</g>
<g>
	<path d="M32.175,11.097h4.662v0.688h-1.943v5.053h-0.776v-5.053h-1.943V11.097z"/>
	<path d="M37.31,16.838h-0.704v-4.182h0.664v0.696h0.016c0.28-0.488,0.647-0.816,1.175-0.816c0.088,0,0.128,0.008,0.184,0.024v0.728
		h-0.264c-0.656,0-1.071,0.512-1.071,1.12V16.838z"/>
	<path d="M39.311,11.896v-0.799h0.704v0.799H39.311z M40.015,16.838h-0.704v-4.182h0.704V16.838z"/>
	<path d="M44.541,16.494c0,0.6-0.008,2.103-1.943,2.103c-0.496,0-1.463-0.136-1.599-1.248h0.704
		c0.128,0.664,0.775,0.664,0.943,0.664c1.215,0,1.191-0.976,1.191-1.471v-0.176h-0.016v0.032c-0.184,0.296-0.552,0.56-1.111,0.56
		c-1.423,0-1.839-1.335-1.839-2.335c0-1.175,0.632-2.087,1.743-2.087c0.759,0,1.079,0.472,1.247,0.712h0.016v-0.592h0.664V16.494z
		 M42.726,16.35c0.448,0,1.144-0.296,1.144-1.407c0-0.68-0.112-1.775-1.127-1.775c-1.087,0-1.144,1.031-1.144,1.567
		C41.599,15.654,41.958,16.35,42.726,16.35z"/>
	<path d="M48.989,16.494c0,0.6-0.008,2.103-1.943,2.103c-0.496,0-1.463-0.136-1.599-1.248h0.704
		c0.128,0.664,0.775,0.664,0.943,0.664c1.215,0,1.191-0.976,1.191-1.471v-0.176h-0.016v0.032c-0.184,0.296-0.551,0.56-1.111,0.56
		c-1.423,0-1.839-1.335-1.839-2.335c0-1.175,0.632-2.087,1.743-2.087c0.759,0,1.079,0.472,1.247,0.712h0.016v-0.592h0.664V16.494z
		 M47.174,16.35c0.448,0,1.144-0.296,1.144-1.407c0-0.68-0.112-1.775-1.127-1.775c-1.087,0-1.144,1.031-1.144,1.567
		C46.046,15.654,46.406,16.35,47.174,16.35z"/>
	<path d="M53.517,15.527c-0.024,0.2-0.216,0.792-0.744,1.143c-0.192,0.128-0.464,0.288-1.135,0.288
		c-1.175,0-1.871-0.888-1.871-2.095c0-1.295,0.624-2.327,2.007-2.327c1.208,0,1.799,0.959,1.799,2.439h-3.055
		c0,0.871,0.408,1.375,1.215,1.375c0.664,0,1.056-0.512,1.08-0.823H53.517z M52.845,14.415c-0.04-0.647-0.312-1.247-1.167-1.247
		c-0.648,0-1.16,0.6-1.16,1.247H52.845z"/>
	<path d="M55.215,16.838h-0.704v-4.182h0.664v0.696h0.016c0.28-0.488,0.647-0.816,1.175-0.816c0.088,0,0.128,0.008,0.184,0.024
		v0.728h-0.264c-0.656,0-1.071,0.512-1.071,1.12V16.838z"/>
</g>
<line class="st2" x1="53.461" y1="29.337" x2="87.668" y2="29.337"/>
<line class="st2" x1="473.5" y1="29.337" x2="485.03" y2="29.337"/>
<line class="st2" x1="87.668" y1="29.337" x2="248.876" y2="29.337"/>
<line class="st2" x1="0.5" y1="29.337" x2="34.68" y2="29.337"/>
<line class="st2" x1="0.5" y1="0" x2="0.5" y2="136.056"/>
<line class="st2" x1="485.03" y1="0" x2="485.03" y2="136.056"/>
<line class="st0" x1="53.461" y1="39.259" x2="53.461" y2="21.957"/>
<line class="st0" x1="35.162" y1="21.957" x2="35.162" y2="39.259"/>
<path class="st2" d="M1.162,136.056"/>
<g>
	<g>
		<path d="M436.19,24.639h0.752v5.741h-0.871l-2.919-4.637h-0.016v4.637h-0.752v-5.741h0.92l2.87,4.637h0.016V24.639z"/>
		<path d="M440.799,30.38v-0.608l-0.016-0.016c-0.296,0.488-0.656,0.744-1.327,0.744c-0.616,0-1.359-0.296-1.359-1.295v-3.006h0.703
			v2.774c0,0.688,0.353,0.919,0.808,0.919c0.888,0,1.151-0.784,1.151-1.391v-2.303h0.704v4.182H440.799z"/>
		<path d="M442.52,26.198h0.664v0.592h0.016c0.152-0.224,0.512-0.712,1.264-0.712c0.751,0,0.991,0.456,1.111,0.68
			c0.352-0.392,0.632-0.68,1.279-0.68c0.447,0,1.295,0.232,1.295,1.407v2.895h-0.703v-2.703c0-0.576-0.176-0.967-0.775-0.967
			c-0.592,0-0.984,0.56-0.984,1.119v2.551h-0.703v-2.895c0-0.352-0.136-0.775-0.655-0.775c-0.4,0-1.104,0.256-1.104,1.391v2.279
			h-0.704V26.198z"/>
	</g>
</g>
<line class="st2" x1="53.461" y1="107.08" x2="86.763" y2="107.08"/>
<line class="st2" x1="474.425" y1="107.08" x2="485.03" y2="107.08"/>
<line class="st2" x1="248.876" y1="29.337" x2="264.511" y2="29.337"/>
<line class="st2" x1="248.876" y1="107.08" x2="264.867" y2="107.08"/>
<line class="st2" x1="86.743" y1="107.08" x2="248.874" y2="107.08"/>
<line class="st2" x1="0.5" y1="107.08" x2="34.68" y2="107.08"/>
<line class="st0" x1="53.461" y1="117.001" x2="53.461" y2="99.699"/>
<line class="st0" x1="35.162" y1="99.699" x2="35.162" y2="117.001"/>
<g>
	<g>
		<path d="M365.526,24.639h2.327c1.495,0,2.414,1.135,2.414,2.791c0,1.287-0.56,2.95-2.446,2.95h-2.295V24.639z M366.301,29.716
			h1.504c1.007,0,1.663-0.792,1.663-2.239s-0.664-2.175-1.72-2.175h-1.447V29.716z"/>
		<path d="M373.549,27.389c-0.008-0.264-0.104-0.704-0.991-0.704c-0.216,0-0.832,0.072-0.832,0.592c0,0.344,0.216,0.423,0.76,0.56
			l0.703,0.176c0.872,0.216,1.176,0.536,1.176,1.104c0,0.863-0.712,1.383-1.655,1.383c-1.655,0-1.774-0.959-1.799-1.463h0.68
			c0.023,0.328,0.12,0.855,1.111,0.855c0.504,0,0.959-0.2,0.959-0.664c0-0.336-0.231-0.448-0.831-0.6l-0.815-0.2
			c-0.584-0.144-0.968-0.44-0.968-1.016c0-0.919,0.76-1.335,1.583-1.335c1.495,0,1.6,1.104,1.6,1.312H373.549z"/>
		<path d="M376.037,26.781V29.5c0,0.328,0.28,0.328,0.424,0.328h0.248v0.552c-0.256,0.024-0.455,0.056-0.527,0.056
			c-0.695,0-0.848-0.392-0.848-0.896v-2.759h-0.567v-0.583h0.567V25.03h0.703v1.167h0.672v0.583H376.037z"/>
	</g>
</g>
<polyline class="st0" points="264.867,88.414 473.552,88.414 473.552,123.017 264.867,123.017 "/>
<line class="st0" x1="404.358" y1="123.017" x2="404.358" y2="88.414"/>
<line class="st0" x1="334.076" y1="45.895" x2="334.076" y2="11.292"/>
<line class="st0" x1="334.076" y1="123.017" x2="334.076" y2="88.414"/>
<rect x="274.03" y="77.41" class="st1" width="52.164" height="19.232"/>
<g>
	<path d="M288.612,85.591h2.526c1.071,0,1.623,0.664,1.623,1.447c0,0.375-0.136,0.903-0.768,1.199
		c0.376,0.152,1.04,0.416,1.04,1.399c0,0.919-0.68,1.695-1.951,1.695h-2.471V85.591z M289.387,88.022h1.399
		c0.744,0,1.199-0.224,1.199-0.928c0-0.536-0.328-0.839-1.191-0.839h-1.407V88.022z M289.387,90.669h1.655
		c0.808,0,1.215-0.408,1.215-1.047c0-0.808-0.712-0.968-1.343-0.968h-1.527V90.669z"/>
	<path d="M298.689,91.332v-3.39c0-0.168,0.016-0.896,0.016-1.431h-0.016l-1.615,4.821h-0.768l-1.615-4.813h-0.016
		c0,0.528,0.016,1.255,0.016,1.423v3.39h-0.752v-5.741h1.112l1.639,4.853h0.016l1.631-4.853h1.103v5.741H298.689z"/>
	<path d="M303.13,91.484c-2.143,0-2.798-1.783-2.798-3.022s0.655-3.022,2.798-3.022c2.143,0,2.798,1.783,2.798,3.022
		S305.273,91.484,303.13,91.484z M303.13,86.127c-1.248,0-1.999,0.983-1.999,2.334c0,1.352,0.751,2.335,1.999,2.335
		c1.247,0,1.999-0.983,1.999-2.335C305.129,87.111,304.377,86.127,303.13,86.127z"/>
	<path d="M310.146,85.591h0.872l-2.095,5.741h-0.823l-2.095-5.741h0.863l1.639,4.893h0.016L310.146,85.591z"/>
</g>
<g>
	<g>
		<path d="M436.19,104.965h0.752v5.741h-0.871l-2.919-4.637h-0.016v4.637h-0.752v-5.741h0.92l2.87,4.637h0.016V104.965z"/>
		<path d="M440.799,110.706v-0.608l-0.016-0.016c-0.296,0.488-0.656,0.744-1.327,0.744c-0.616,0-1.359-0.296-1.359-1.295v-3.006
			h0.703v2.774c0,0.688,0.353,0.919,0.808,0.919c0.888,0,1.151-0.784,1.151-1.391v-2.303h0.704v4.182H440.799z"/>
		<path d="M442.52,106.524h0.664v0.592h0.016c0.152-0.224,0.512-0.712,1.264-0.712c0.751,0,0.991,0.456,1.111,0.68
			c0.352-0.392,0.632-0.68,1.279-0.68c0.447,0,1.295,0.232,1.295,1.407v2.895h-0.703v-2.703c0-0.576-0.176-0.967-0.775-0.967
			c-0.592,0-0.984,0.56-0.984,1.119v2.551h-0.703v-2.895c0-0.352-0.136-0.775-0.655-0.775c-0.4,0-1.104,0.256-1.104,1.391v2.279
			h-0.704V106.524z"/>
	</g>
</g>
<g>
	<g>
		<path d="M365.526,104.965h2.327c1.495,0,2.414,1.135,2.414,2.791c0,1.287-0.56,2.95-2.446,2.95h-2.295V104.965z M366.301,110.042
			h1.504c1.007,0,1.663-0.792,1.663-2.239s-0.664-2.175-1.72-2.175h-1.447V110.042z"/>
		<path d="M373.549,107.715c-0.008-0.264-0.104-0.704-0.991-0.704c-0.216,0-0.832,0.072-0.832,0.592c0,0.344,0.216,0.423,0.76,0.56
			l0.703,0.176c0.872,0.216,1.176,0.536,1.176,1.104c0,0.863-0.712,1.383-1.655,1.383c-1.655,0-1.774-0.959-1.799-1.463h0.68
			c0.023,0.328,0.12,0.855,1.111,0.855c0.504,0,0.959-0.2,0.959-0.664c0-0.336-0.231-0.448-0.831-0.6l-0.815-0.2
			c-0.584-0.144-0.968-0.44-0.968-1.016c0-0.919,0.76-1.335,1.583-1.335c1.495,0,1.6,1.104,1.6,1.312H373.549z"/>
		<path d="M376.037,107.108v2.719c0,0.328,0.28,0.328,0.424,0.328h0.248v0.552c-0.256,0.024-0.455,0.056-0.527,0.056
			c-0.695,0-0.848-0.392-0.848-0.896v-2.759h-0.567v-0.583h0.567v-1.167h0.703v1.167h0.672v0.583H376.037z"/>
	</g>
	<g>
	</g>
</g>
<g>
	<g>
		<path d="M298.745,26.318c-0.04-0.887-0.776-1.167-1.423-1.167c-0.488,0-1.311,0.136-1.311,1.007c0,0.488,0.344,0.647,0.679,0.728
			l1.639,0.376c0.744,0.176,1.303,0.624,1.303,1.535c0,1.359-1.263,1.735-2.247,1.735c-1.063,0-1.479-0.32-1.735-0.552
			c-0.488-0.439-0.584-0.919-0.584-1.455h0.728c0,1.04,0.848,1.343,1.583,1.343c0.56,0,1.503-0.144,1.503-0.967
			c0-0.6-0.28-0.792-1.223-1.016l-1.175-0.272c-0.376-0.088-1.224-0.352-1.224-1.351c0-0.896,0.584-1.775,1.975-1.775
			c2.007,0,2.207,1.199,2.239,1.831H298.745z"/>
		<path d="M301.33,30.38h-0.704v-4.182h0.664v0.696h0.016c0.28-0.488,0.647-0.816,1.175-0.816c0.088,0,0.128,0.008,0.184,0.024
			v0.728h-0.264c-0.656,0-1.071,0.512-1.071,1.12V30.38z"/>
		<path d="M305.649,27.605c-0.088-0.56-0.4-0.896-0.992-0.896c-0.871,0-1.151,0.832-1.151,1.575c0,0.719,0.176,1.607,1.144,1.607
			c0.472,0,0.879-0.352,1-0.991h0.68c-0.072,0.664-0.48,1.599-1.703,1.599c-1.175,0-1.871-0.888-1.871-2.095
			c0-1.295,0.624-2.327,2.007-2.327c1.096,0,1.511,0.8,1.567,1.527H305.649z"/>
	</g>
	<g>
	</g>
</g>
<g>
	<g>
		<path d="M298.745,106.644c-0.04-0.887-0.776-1.167-1.423-1.167c-0.488,0-1.311,0.136-1.311,1.007c0,0.488,0.344,0.647,0.679,0.728
			l1.639,0.376c0.744,0.176,1.303,0.624,1.303,1.535c0,1.359-1.263,1.735-2.247,1.735c-1.063,0-1.479-0.32-1.735-0.552
			c-0.488-0.439-0.584-0.919-0.584-1.455h0.728c0,1.04,0.848,1.343,1.583,1.343c0.56,0,1.503-0.144,1.503-0.967
			c0-0.6-0.28-0.792-1.223-1.016l-1.175-0.272c-0.376-0.088-1.224-0.352-1.224-1.351c0-0.896,0.584-1.775,1.975-1.775
			c2.007,0,2.207,1.199,2.239,1.831H298.745z"/>
		<path d="M301.33,110.706h-0.704v-4.182h0.664v0.696h0.016c0.28-0.488,0.647-0.816,1.175-0.816c0.088,0,0.128,0.008,0.184,0.024
			v0.728h-0.264c-0.656,0-1.071,0.512-1.071,1.12V110.706z"/>
		<path d="M305.649,107.931c-0.088-0.56-0.4-0.896-0.992-0.896c-0.871,0-1.151,0.832-1.151,1.575c0,0.719,0.176,1.607,1.144,1.607
			c0.472,0,0.879-0.352,1-0.991h0.68c-0.072,0.664-0.48,1.599-1.703,1.599c-1.175,0-1.871-0.888-1.871-2.095
			c0-1.295,0.624-2.327,2.007-2.327c1.096,0,1.511,0.8,1.567,1.527H305.649z"/>
	</g>
	<g>
	</g>
</g>
<g>
	<line class="st3" x1="264.953" y1="94.146" x2="264.953" y2="123.017"/>
	<polygon class="st4" points="264.664,89.673 261.396,97.286 268.317,97.286 	"/>
</g>
</svg>
