<?xml version="1.0" encoding="utf-8"?>
<!-- Generator: Adobe Illustrator 28.2.0, SVG Export Plug-In . SVG Version: 6.00 Build 0)  -->
<svg version="1.1" id="儗僀儎乕_1" xmlns="http://www.w3.org/2000/svg" xmlns:xlink="http://www.w3.org/1999/xlink" x="0px"
	 y="0px" width="378.103px" height="128.234px" viewBox="0 0 378.103 128.234" style="enable-background:new 0 0 378.103 128.234;"
	 xml:space="preserve">
<style type="text/css">
	.st0{fill:#FFFFFF;stroke:#000000;}
	.st1{fill:#FFFFFF;}
	.st2{fill:none;stroke:#000000;}
	.st3{fill:none;stroke:#000000;stroke-width:0.5;}
	.st4{fill:#FFFFFF;stroke:#000000;stroke-width:0.5;stroke-dasharray:1;}
	.st5{fill:none;stroke:#000000;stroke-width:0.5;stroke-dasharray:2;}
</style>
<g>
	<path d="M73.236,48.691c-0.04-0.887-0.776-1.167-1.423-1.167c-0.488,0-1.311,0.136-1.311,1.007c0,0.488,0.344,0.647,0.679,0.728
		l1.639,0.376c0.744,0.176,1.303,0.624,1.303,1.535c0,1.359-1.263,1.735-2.247,1.735c-1.063,0-1.479-0.32-1.735-0.552
		c-0.488-0.439-0.584-0.919-0.584-1.455h0.728c0,1.04,0.848,1.343,1.583,1.343c0.56,0,1.503-0.144,1.503-0.967
		c0-0.6-0.28-0.792-1.223-1.016l-1.175-0.272c-0.376-0.088-1.224-0.352-1.224-1.351c0-0.896,0.584-1.775,1.975-1.775
		c2.007,0,2.207,1.199,2.239,1.831H73.236z"/>
	<path d="M75.821,52.753h-0.704v-4.182h0.664v0.696h0.016c0.28-0.488,0.647-0.816,1.175-0.816c0.088,0,0.128,0.008,0.184,0.024
		v0.728h-0.264c-0.656,0-1.071,0.512-1.071,1.12V52.753z"/>
	<path d="M80.14,49.979c-0.088-0.56-0.4-0.896-0.992-0.896c-0.871,0-1.151,0.832-1.151,1.575c0,0.719,0.176,1.607,1.144,1.607
		c0.472,0,0.879-0.352,1-0.991h0.68c-0.072,0.664-0.48,1.599-1.703,1.599c-1.175,0-1.871-0.888-1.871-2.095
		c0-1.295,0.624-2.327,2.007-2.327c1.096,0,1.511,0.8,1.567,1.527H80.14z"/>
</g>
<g>
	<path d="M292.324,47.012h2.327c1.495,0,2.414,1.135,2.414,2.791c0,1.287-0.56,2.95-2.446,2.95h-2.295V47.012z M293.1,52.089h1.504
		c1.007,0,1.663-0.792,1.663-2.239s-0.664-2.175-1.72-2.175H293.1V52.089z"/>
	<path d="M300.348,49.763c-0.008-0.264-0.104-0.704-0.991-0.704c-0.216,0-0.832,0.072-0.832,0.592c0,0.344,0.216,0.423,0.76,0.56
		l0.703,0.176c0.872,0.216,1.176,0.536,1.176,1.104c0,0.863-0.712,1.383-1.655,1.383c-1.655,0-1.774-0.959-1.799-1.463h0.68
		c0.023,0.328,0.12,0.855,1.111,0.855c0.504,0,0.959-0.2,0.959-0.664c0-0.336-0.231-0.448-0.831-0.6l-0.815-0.2
		c-0.584-0.144-0.968-0.44-0.968-1.016c0-0.919,0.76-1.335,1.583-1.335c1.495,0,1.6,1.104,1.6,1.312H300.348z"/>
	<path d="M302.836,49.155v2.719c0,0.328,0.28,0.328,0.424,0.328h0.248v0.552c-0.256,0.024-0.455,0.056-0.527,0.056
		c-0.695,0-0.848-0.392-0.848-0.896v-2.759h-0.567v-0.583h0.567v-1.167h0.703v1.167h0.672v0.583H302.836z"/>
</g>
<rect x="152.8" y="8.217" class="st0" width="106.846" height="17.717"/>
<line class="st0" x1="224.218" y1="25.934" x2="224.218" y2="8.217"/>
<rect x="155.872" y="2.583" class="st1" width="29.661" height="9.847"/>
<g>
	<path d="M157.095,5.104h2.526c1.071,0,1.623,0.664,1.623,1.447c0,0.375-0.136,0.903-0.768,1.199c0.376,0.152,1.04,0.416,1.04,1.399
		c0,0.919-0.68,1.695-1.951,1.695h-2.471V5.104z M157.87,7.535h1.399c0.743,0,1.199-0.224,1.199-0.928
		c0-0.536-0.328-0.839-1.191-0.839h-1.407V7.535z M157.87,10.181h1.655c0.808,0,1.215-0.408,1.215-1.047
		c0-0.808-0.711-0.968-1.343-0.968h-1.527V10.181z"/>
	<path d="M166.771,10.845v-3.39c0-0.168,0.016-0.896,0.016-1.431h-0.016l-1.615,4.821h-0.768l-1.615-4.813h-0.016
		c0,0.528,0.016,1.255,0.016,1.423v3.39h-0.751V5.104h1.111l1.639,4.853h0.017l1.631-4.853h1.104v5.741H166.771z"/>
	<path d="M170.813,10.997c-2.143,0-2.799-1.783-2.799-3.022s0.656-3.022,2.799-3.022s2.799,1.783,2.799,3.022
		S172.956,10.997,170.813,10.997z M170.813,5.64c-1.247,0-1.999,0.983-1.999,2.334c0,1.352,0.752,2.335,1.999,2.335
		s1.999-0.983,1.999-2.335C172.812,6.623,172.061,5.64,170.813,5.64z"/>
	<path d="M177.429,5.104h0.871l-2.095,5.741h-0.823l-2.095-5.741h0.863l1.639,4.893h0.017L177.429,5.104z"/>
	<path d="M178.59,10.845h-0.832V9.997h0.832V10.845z"/>
	<path d="M179.534,5.104h2.327c1.495,0,2.414,1.135,2.414,2.791c0,1.287-0.56,2.95-2.446,2.95h-2.295V5.104z M180.31,10.181h1.504
		c1.007,0,1.663-0.792,1.663-2.239s-0.664-2.175-1.72-2.175h-1.447V10.181z"/>
</g>
<line class="st2" x1="27.683" y1="17.456" x2="151.885" y2="17.456"/>
<line class="st2" x1="259.62" y1="17.456" x2="265.523" y2="17.456"/>
<line class="st2" x1="0.567" y1="17.456" x2="18.067" y2="17.456"/>
<line class="st2" x1="0.567" y1="0.583" x2="0.567" y2="31.747"/>
<line class="st2" x1="265.523" y1="0.583" x2="265.523" y2="31.747"/>
<line class="st0" x1="27.683" y1="22.537" x2="27.683" y2="13.678"/>
<line class="st0" x1="18.315" y1="13.678" x2="18.315" y2="22.537"/>
<line class="st0" x1="188.234" y1="25.934" x2="188.234" y2="8.217"/>
<g>
	<path d="M158.694,15.276h2.327c1.495,0,2.414,1.135,2.414,2.791c0,1.287-0.56,2.95-2.446,2.95h-2.295V15.276z M159.47,20.354h1.504
		c1.007,0,1.663-0.792,1.663-2.239s-0.664-2.175-1.72-2.175h-1.447V20.354z"/>
	<path d="M169.155,21.017v-3.39c0-0.168,0.016-0.896,0.016-1.431h-0.016l-1.615,4.821h-0.768l-1.615-4.813h-0.016
		c0,0.528,0.016,1.255,0.016,1.423v3.39h-0.751v-5.741h1.111l1.639,4.853h0.017l1.631-4.853h1.104v5.741H169.155z"/>
	<path d="M173.356,21.017h-0.751v-3.99h-1.312v-0.56c0.911-0.064,1.287-0.152,1.511-1.072h0.552V21.017z"/>
	<path d="M176.317,21.169c-1.615,0-1.927-1.719-1.927-2.886c0-1.167,0.312-2.887,1.927-2.887s1.927,1.719,1.927,2.887
		C178.244,19.45,177.933,21.169,176.317,21.169z M176.317,16.028c-0.808,0-1.175,0.848-1.175,2.255s0.367,2.255,1.175,2.255
		s1.176-0.848,1.176-2.255S177.125,16.028,176.317,16.028z"/>
	<path d="M180.766,21.169c-1.615,0-1.927-1.719-1.927-2.886c0-1.167,0.312-2.887,1.927-2.887s1.927,1.719,1.927,2.887
		C182.692,19.45,182.381,21.169,180.766,21.169z M180.766,16.028c-0.808,0-1.175,0.848-1.175,2.255s0.367,2.255,1.175,2.255
		s1.176-0.848,1.176-2.255S181.573,16.028,180.766,16.028z"/>
</g>
<g>
	<path d="M202.891,21.017h-4.238v-5.741h4.182v0.688h-3.406v1.759h3.143v0.688h-3.143v1.919h3.463V21.017z"/>
	<path d="M208.634,21.017v-3.39c0-0.168,0.016-0.896,0.016-1.431h-0.016l-1.615,4.821h-0.768l-1.615-4.813h-0.016
		c0,0.528,0.016,1.255,0.016,1.423v3.39h-0.751v-5.741h1.111l1.639,4.853h0.017l1.631-4.853h1.104v5.741H208.634z"/>
	<path d="M211.141,17.747c0.239-0.184,0.583-0.352,1.087-0.352c0.911,0,1.847,0.64,1.847,1.799c0,0.624-0.279,1.975-2.038,1.975
		c-0.736,0-1.68-0.296-1.815-1.551h0.728c0.072,0.656,0.56,0.944,1.191,0.944c0.728,0,1.184-0.584,1.184-1.288
		c0-0.808-0.552-1.247-1.247-1.247c-0.408,0-0.776,0.192-1.04,0.536l-0.607-0.032l0.424-3.014h2.91v0.688h-2.383L211.141,17.747z"/>
</g>
<g>
	<path d="M240.28,21.017h-0.527l0.231-1.679h-0.999l-0.231,1.679h-0.528l0.232-1.679h-0.824l0.072-0.503h0.823l0.152-1.136h-0.824
		l0.072-0.503h0.824l0.231-1.679h0.536l-0.232,1.679h0.991l0.232-1.679h0.535l-0.231,1.679h0.823l-0.071,0.503h-0.824l-0.16,1.136
		h0.824l-0.072,0.503h-0.823L240.28,21.017z M239.217,17.699l-0.159,1.136h0.999l0.152-1.136H239.217z"/>
	<path d="M243.649,17.819c0.12,0.008,0.248,0.016,0.368,0.016c0.543,0,1.071-0.216,1.071-0.919c0-0.336-0.2-0.888-1.04-0.888
		c-0.999,0-1.063,0.815-1.095,1.208h-0.688c0-0.824,0.335-1.839,1.814-1.839c1.088,0,1.735,0.624,1.735,1.479
		c0,0.72-0.416,1.063-0.72,1.159v0.016c0.544,0.176,0.936,0.56,0.936,1.311c0,0.92-0.592,1.807-2.023,1.807
		c-0.415,0-0.768-0.104-1.039-0.248c-0.624-0.328-0.792-0.976-0.84-1.624h0.728c0.024,0.528,0.152,1.24,1.2,1.24
		c0.719,0,1.223-0.44,1.223-1.088c0-0.943-0.831-1.031-1.312-1.031c-0.104,0-0.216,0.008-0.319,0.008V17.819z"/>
</g>
<rect x="29.066" y="79.97" class="st3" width="92.371" height="34.097"/>
<polyline class="st3" points="28.949,79.971 28.949,63.126 121.469,63.126 121.469,79.971 "/>
<g>
	<path d="M91.355,71.978c0-1.831,1.335-2.015,1.943-2.015c0.975,0,1.759,0.632,1.759,1.679c0,1.007-0.664,1.431-1.503,1.879
		l-0.584,0.32c-0.768,0.424-0.936,0.864-0.967,1.08h3.054v0.664h-3.846c0.04-1.167,0.567-1.791,1.319-2.231l0.743-0.432
		c0.6-0.344,1.032-0.576,1.032-1.311c0-0.448-0.288-1.016-1.111-1.016c-1.063,0-1.111,0.992-1.135,1.383H91.355z"/>
	<path d="M97.243,72.386c0.12,0.008,0.248,0.016,0.368,0.016c0.544,0,1.072-0.216,1.072-0.919c0-0.336-0.2-0.888-1.04-0.888
		c-1,0-1.063,0.815-1.096,1.208H95.86c0-0.824,0.336-1.839,1.815-1.839c1.087,0,1.735,0.624,1.735,1.479
		c0,0.719-0.416,1.063-0.72,1.159v0.016c0.543,0.176,0.936,0.56,0.936,1.311c0,0.919-0.592,1.807-2.023,1.807
		c-0.416,0-0.768-0.104-1.04-0.248c-0.624-0.328-0.792-0.975-0.839-1.623h0.728c0.024,0.528,0.152,1.239,1.199,1.239
		c0.72,0,1.223-0.439,1.223-1.087c0-0.944-0.831-1.032-1.311-1.032c-0.104,0-0.216,0.008-0.32,0.008V72.386z"/>
	<path d="M103.258,74.217v1.367h-0.703v-1.367H100.1v-0.688l2.575-3.566h0.583v3.646h0.824v0.608H103.258z M100.748,73.609h1.807
		v-2.55h-0.016L100.748,73.609z"/>
	<path d="M105.523,72.314c0.24-0.184,0.583-0.352,1.087-0.352c0.912,0,1.847,0.64,1.847,1.799c0,0.624-0.28,1.975-2.039,1.975
		c-0.735,0-1.679-0.296-1.815-1.551h0.728c0.072,0.656,0.56,0.944,1.191,0.944c0.728,0,1.184-0.584,1.184-1.288
		c0-0.808-0.552-1.247-1.248-1.247c-0.408,0-0.775,0.192-1.04,0.536l-0.607-0.032l0.424-3.014h2.91v0.688h-2.383L105.523,72.314z"/>
	<path d="M92.795,89.261c0.12,0.008,0.248,0.016,0.368,0.016c0.544,0,1.072-0.216,1.072-0.919c0-0.336-0.2-0.888-1.04-0.888
		c-1,0-1.063,0.815-1.096,1.208h-0.688c0-0.824,0.336-1.839,1.815-1.839c1.087,0,1.735,0.624,1.735,1.479
		c0,0.719-0.416,1.063-0.72,1.159v0.016c0.543,0.176,0.936,0.56,0.936,1.311c0,0.919-0.592,1.807-2.023,1.807
		c-0.416,0-0.768-0.104-1.04-0.248c-0.624-0.328-0.792-0.975-0.839-1.623h0.728c0.024,0.528,0.152,1.239,1.199,1.239
		c0.72,0,1.223-0.439,1.223-1.087c0-0.944-0.831-1.032-1.311-1.032c-0.104,0-0.216,0.008-0.32,0.008V89.261z"/>
	<path d="M98.811,91.092v1.367h-0.704v-1.367h-2.455v-0.688l2.575-3.566h0.584v3.646h0.823v0.608H98.811z M96.3,90.484h1.807v-2.55
		h-0.016L96.3,90.484z"/>
	<path d="M101.075,89.189c0.24-0.184,0.584-0.352,1.087-0.352c0.912,0,1.847,0.64,1.847,1.799c0,0.624-0.28,1.975-2.039,1.975
		c-0.735,0-1.679-0.296-1.815-1.551h0.728c0.072,0.656,0.56,0.944,1.191,0.944c0.728,0,1.183-0.584,1.183-1.288
		c0-0.808-0.551-1.247-1.247-1.247c-0.408,0-0.775,0.192-1.04,0.536l-0.607-0.032l0.424-3.014h2.91v0.688h-2.383L101.075,89.189z"/>
	<path d="M107.682,88.333c-0.088-0.496-0.359-0.864-0.967-0.864c-1.104,0-1.335,1.487-1.335,2.079l0.016,0.016
		c0.176-0.304,0.568-0.688,1.335-0.688c0.688,0,1.759,0.44,1.759,1.783c0,0.576-0.152,0.991-0.536,1.407
		c-0.296,0.328-0.631,0.543-1.423,0.543c-0.432,0-1.047-0.192-1.447-0.815c-0.335-0.528-0.432-1.215-0.432-1.951
		c0-1.231,0.4-3.006,2.079-3.006c0.647,0,1.567,0.352,1.639,1.496H107.682z M106.658,91.979c0.672,0,1.104-0.527,1.104-1.287
		c0-0.496-0.264-1.183-1.135-1.183c-0.776,0-1.151,0.56-1.151,1.223C105.475,91.332,105.835,91.979,106.658,91.979z"/>
	<path d="M94.362,107.967v1.367h-0.704v-1.367h-2.455v-0.688l2.575-3.566h0.584v3.646h0.823v0.608H94.362z M91.852,107.359h1.807
		v-2.55h-0.016L91.852,107.359z"/>
	<path d="M96.627,106.064c0.24-0.184,0.583-0.352,1.087-0.352c0.912,0,1.847,0.64,1.847,1.799c0,0.624-0.28,1.975-2.039,1.975
		c-0.735,0-1.679-0.296-1.815-1.551h0.728c0.072,0.656,0.56,0.944,1.191,0.944c0.728,0,1.184-0.584,1.184-1.288
		c0-0.808-0.552-1.247-1.248-1.247c-0.408,0-0.775,0.192-1.04,0.536l-0.607-0.032l0.424-3.014h2.91v0.688h-2.383L96.627,106.064z"/>
	<path d="M103.234,105.208c-0.088-0.496-0.36-0.864-0.967-0.864c-1.104,0-1.335,1.487-1.335,2.079l0.016,0.016
		c0.176-0.304,0.568-0.688,1.335-0.688c0.688,0,1.759,0.44,1.759,1.783c0,0.576-0.152,0.991-0.536,1.407
		c-0.296,0.328-0.632,0.543-1.423,0.543c-0.432,0-1.047-0.192-1.447-0.815c-0.336-0.528-0.432-1.215-0.432-1.951
		c0-1.231,0.4-3.006,2.079-3.006c0.647,0,1.567,0.352,1.639,1.496H103.234z M102.21,108.854c0.672,0,1.104-0.527,1.104-1.287
		c0-0.496-0.264-1.183-1.135-1.183c-0.775,0-1.151,0.56-1.151,1.223C101.027,108.207,101.387,108.854,102.21,108.854z"/>
	<path d="M104.644,103.833h3.886v0.616c-0.56,0.583-1.903,2.375-2.311,4.885h-0.776c0.192-1.543,1.215-3.558,2.295-4.813h-3.094
		V103.833z"/>
</g>
<g>
	<path d="M0.647,69.23h2.327c1.496,0,2.415,1.135,2.415,2.791c0,1.287-0.56,2.95-2.447,2.95H0.647V69.23z M1.423,74.308h1.503
		c1.008,0,1.663-0.792,1.663-2.239s-0.664-2.175-1.719-2.175H1.423V74.308z"/>
	<path d="M11.109,74.971v-3.39c0-0.168,0.016-0.896,0.016-1.431h-0.016l-1.615,4.821H8.726l-1.615-4.813H7.095
		c0,0.528,0.016,1.255,0.016,1.423v3.39H6.359V69.23h1.112l1.639,4.853h0.016l1.631-4.853h1.103v5.741H11.109z"/>
	<path d="M15.311,74.971h-0.752v-3.99h-1.311v-0.56c0.912-0.064,1.287-0.152,1.511-1.072h0.552V74.971z"/>
	<path d="M18.67,75.123c-1.615,0-1.927-1.719-1.927-2.886c0-1.167,0.312-2.887,1.927-2.887s1.927,1.719,1.927,2.887
		C20.598,73.404,20.286,75.123,18.67,75.123z M18.67,69.982c-0.808,0-1.175,0.848-1.175,2.255s0.368,2.255,1.175,2.255
		s1.175-0.848,1.175-2.255S19.478,69.982,18.67,69.982z"/>
	<path d="M23.167,74.971h-0.752v-3.99h-1.311v-0.56c0.912-0.064,1.287-0.152,1.511-1.072h0.552V74.971z"/>
	<path d="M26.271,71.693h-0.832v-0.848h0.832V71.693z M26.271,74.971h-0.832v-0.848h0.832V74.971z"/>
	<path d="M0.647,86.105h2.327c1.496,0,2.415,1.135,2.415,2.791c0,1.287-0.56,2.95-2.447,2.95H0.647V86.105z M1.423,91.183h1.503
		c1.008,0,1.663-0.792,1.663-2.239s-0.664-2.175-1.719-2.175H1.423V91.183z"/>
	<path d="M11.109,91.846v-3.39c0-0.168,0.016-0.896,0.016-1.431h-0.016l-1.615,4.821H8.726l-1.615-4.813H7.095
		c0,0.528,0.016,1.255,0.016,1.423v3.39H6.359v-5.741h1.112l1.639,4.853h0.016l1.631-4.853h1.103v5.741H11.109z"/>
	<path d="M15.311,91.846h-0.752v-3.99h-1.311v-0.56c0.912-0.064,1.287-0.152,1.511-1.072h0.552V91.846z"/>
	<path d="M18.67,91.998c-1.615,0-1.927-1.719-1.927-2.886c0-1.167,0.312-2.887,1.927-2.887s1.927,1.719,1.927,2.887
		C20.598,90.279,20.286,91.998,18.67,91.998z M18.67,86.857c-0.808,0-1.175,0.848-1.175,2.255s0.368,2.255,1.175,2.255
		s1.175-0.848,1.175-2.255S19.478,86.857,18.67,86.857z"/>
	<path d="M22.687,88.648c0.12,0.008,0.248,0.016,0.368,0.016c0.544,0,1.072-0.216,1.072-0.919c0-0.336-0.2-0.888-1.04-0.888
		c-1,0-1.063,0.815-1.096,1.208h-0.688c0-0.824,0.336-1.839,1.815-1.839c1.087,0,1.735,0.624,1.735,1.479
		c0,0.72-0.416,1.063-0.72,1.159v0.016c0.543,0.176,0.936,0.56,0.936,1.311c0,0.92-0.592,1.807-2.023,1.807
		c-0.416,0-0.768-0.104-1.04-0.248c-0.624-0.328-0.792-0.976-0.839-1.624h0.728c0.024,0.528,0.152,1.24,1.199,1.24
		c0.72,0,1.223-0.44,1.223-1.088c0-0.943-0.831-1.031-1.311-1.031c-0.104,0-0.216,0.008-0.32,0.008V88.648z"/>
	<path d="M26.871,88.568H26.04V87.72h0.832V88.568z M26.871,91.846H26.04v-0.848h0.832V91.846z"/>
	<path d="M0.647,102.98h2.327c1.496,0,2.415,1.135,2.415,2.791c0,1.287-0.56,2.95-2.447,2.95H0.647V102.98z M1.423,108.058h1.503
		c1.008,0,1.663-0.792,1.663-2.239s-0.664-2.175-1.719-2.175H1.423V108.058z"/>
	<path d="M11.109,108.721v-3.39c0-0.168,0.016-0.896,0.016-1.431h-0.016l-1.615,4.821H8.726l-1.615-4.813H7.095
		c0,0.528,0.016,1.255,0.016,1.423v3.39H6.359v-5.741h1.112l1.639,4.853h0.016l1.631-4.853h1.103v5.741H11.109z"/>
	<path d="M15.311,108.721h-0.752v-3.99h-1.311v-0.56c0.912-0.064,1.287-0.152,1.511-1.072h0.552V108.721z"/>
	<path d="M18.67,108.873c-1.615,0-1.927-1.719-1.927-2.886c0-1.167,0.312-2.887,1.927-2.887s1.927,1.719,1.927,2.887
		C20.598,107.154,20.286,108.873,18.67,108.873z M18.67,103.732c-0.808,0-1.175,0.848-1.175,2.255s0.368,2.255,1.175,2.255
		s1.175-0.848,1.175-2.255S19.478,103.732,18.67,103.732z"/>
	<path d="M22.071,105.451c0.24-0.184,0.583-0.352,1.087-0.352c0.912,0,1.847,0.64,1.847,1.799c0,0.624-0.28,1.975-2.039,1.975
		c-0.735,0-1.679-0.296-1.815-1.551h0.728c0.072,0.656,0.56,0.944,1.191,0.944c0.728,0,1.184-0.584,1.184-1.288
		c0-0.808-0.552-1.247-1.248-1.247c-0.408,0-0.775,0.192-1.04,0.536l-0.607-0.032l0.424-3.014h2.91v0.688h-2.383L22.071,105.451z"/>
	<path d="M26.871,105.443H26.04v-0.848h0.832V105.443z M26.871,108.721H26.04v-0.848h0.832V108.721z"/>
</g>
<g>
	<path d="M124.864,71.693h-0.832v-0.848h0.832V71.693z M124.864,74.971h-0.832v-0.848h0.832V74.971z"/>
	<path d="M126.208,69.23h2.327c1.496,0,2.415,1.135,2.415,2.791c0,1.287-0.56,2.95-2.447,2.95h-2.295V69.23z M126.984,74.308h1.503
		c1.008,0,1.663-0.792,1.663-2.239s-0.664-2.175-1.719-2.175h-1.447V74.308z"/>
	<path d="M136.67,74.971v-3.39c0-0.168,0.016-0.896,0.016-1.431h-0.016l-1.615,4.821h-0.768l-1.615-4.813h-0.016
		c0,0.528,0.016,1.255,0.016,1.423v3.39h-0.752V69.23h1.112l1.639,4.853h0.016l1.631-4.853h1.103v5.741H136.67z"/>
	<path d="M140.872,74.971h-0.752v-3.99h-1.311v-0.56c0.912-0.064,1.287-0.152,1.511-1.072h0.552V74.971z"/>
	<path d="M144.231,75.123c-1.615,0-1.927-1.719-1.927-2.886c0-1.167,0.312-2.887,1.927-2.887s1.927,1.719,1.927,2.887
		C146.159,73.404,145.847,75.123,144.231,75.123z M144.231,69.982c-0.808,0-1.175,0.848-1.175,2.255s0.368,2.255,1.175,2.255
		s1.175-0.848,1.175-2.255S145.039,69.982,144.231,69.982z"/>
	<path d="M148.68,75.123c-1.615,0-1.927-1.719-1.927-2.886c0-1.167,0.312-2.887,1.927-2.887s1.927,1.719,1.927,2.887
		C150.607,73.404,150.295,75.123,148.68,75.123z M148.68,69.982c-0.808,0-1.175,0.848-1.175,2.255s0.368,2.255,1.175,2.255
		s1.175-0.848,1.175-2.255S149.487,69.982,148.68,69.982z"/>
	<path d="M124.864,88.568h-0.832V87.72h0.832V88.568z M124.864,91.846h-0.832v-0.848h0.832V91.846z"/>
	<path d="M126.208,86.105h2.327c1.496,0,2.415,1.135,2.415,2.791c0,1.287-0.56,2.95-2.447,2.95h-2.295V86.105z M126.984,91.183
		h1.503c1.008,0,1.663-0.792,1.663-2.239s-0.664-2.175-1.719-2.175h-1.447V91.183z"/>
	<path d="M136.67,91.846v-3.39c0-0.168,0.016-0.896,0.016-1.431h-0.016l-1.615,4.821h-0.768l-1.615-4.813h-0.016
		c0,0.528,0.016,1.255,0.016,1.423v3.39h-0.752v-5.741h1.112l1.639,4.853h0.016l1.631-4.853h1.103v5.741H136.67z"/>
	<path d="M140.872,91.846h-0.752v-3.99h-1.311v-0.56c0.912-0.064,1.287-0.152,1.511-1.072h0.552V91.846z"/>
	<path d="M144.231,91.998c-1.615,0-1.927-1.719-1.927-2.886c0-1.167,0.312-2.887,1.927-2.887s1.927,1.719,1.927,2.887
		C146.159,90.279,145.847,91.998,144.231,91.998z M144.231,86.857c-0.808,0-1.175,0.848-1.175,2.255s0.368,2.255,1.175,2.255
		s1.175-0.848,1.175-2.255S145.039,86.857,144.231,86.857z"/>
	<path d="M146.809,88.24c0-1.831,1.335-2.015,1.943-2.015c0.975,0,1.759,0.632,1.759,1.679c0,1.007-0.664,1.431-1.503,1.879
		l-0.584,0.32c-0.768,0.424-0.936,0.864-0.967,1.08h3.054v0.664h-3.846c0.04-1.167,0.567-1.791,1.319-2.231l0.743-0.432
		c0.6-0.344,1.032-0.576,1.032-1.311c0-0.448-0.288-1.016-1.111-1.016c-1.063,0-1.111,0.991-1.135,1.383H146.809z"/>
	<path d="M124.864,105.443h-0.832v-0.848h0.832V105.443z M124.864,108.721h-0.832v-0.848h0.832V108.721z"/>
	<path d="M126.208,102.98h2.327c1.496,0,2.415,1.135,2.415,2.791c0,1.287-0.56,2.95-2.447,2.95h-2.295V102.98z M126.984,108.058
		h1.503c1.008,0,1.663-0.792,1.663-2.239s-0.664-2.175-1.719-2.175h-1.447V108.058z"/>
	<path d="M136.67,108.721v-3.39c0-0.168,0.016-0.896,0.016-1.431h-0.016l-1.615,4.821h-0.768l-1.615-4.813h-0.016
		c0,0.528,0.016,1.255,0.016,1.423v3.39h-0.752v-5.741h1.112l1.639,4.853h0.016l1.631-4.853h1.103v5.741H136.67z"/>
	<path d="M140.872,108.721h-0.752v-3.99h-1.311v-0.56c0.912-0.064,1.287-0.152,1.511-1.072h0.552V108.721z"/>
	<path d="M144.231,108.873c-1.615,0-1.927-1.719-1.927-2.886c0-1.167,0.312-2.887,1.927-2.887s1.927,1.719,1.927,2.887
		C146.159,107.154,145.847,108.873,144.231,108.873z M144.231,103.732c-0.808,0-1.175,0.848-1.175,2.255s0.368,2.255,1.175,2.255
		s1.175-0.848,1.175-2.255S145.039,103.732,144.231,103.732z"/>
	<path d="M149.815,107.354v1.367h-0.704v-1.367h-2.455v-0.688l2.575-3.566h0.584v3.646h0.823v0.608H149.815z M147.305,106.746h1.807
		v-2.55h-0.016L147.305,106.746z"/>
</g>
<g>
	<path d="M48.719,55.261h0.775v5.741h-0.775v-2.679H45.72v2.679h-0.775v-5.741h0.775v2.375h2.999V55.261z"/>
	<path d="M50.641,56.06v-0.799h0.704v0.799H50.641z M51.344,61.001h-0.704V56.82h0.704V61.001z"/>
	<path d="M55.871,60.658c0,0.6-0.008,2.103-1.943,2.103c-0.496,0-1.463-0.136-1.599-1.247h0.704
		c0.128,0.664,0.775,0.664,0.943,0.664c1.215,0,1.191-0.976,1.191-1.471V60.53h-0.016v0.032c-0.184,0.296-0.551,0.56-1.111,0.56
		c-1.423,0-1.839-1.335-1.839-2.335c0-1.175,0.632-2.087,1.743-2.087c0.759,0,1.079,0.472,1.247,0.712h0.016V56.82h0.664V60.658z
		 M54.056,60.514c0.448,0,1.144-0.296,1.144-1.407c0-0.68-0.112-1.775-1.127-1.775c-1.087,0-1.144,1.031-1.144,1.567
		C52.928,59.818,53.288,60.514,54.056,60.514z"/>
	<path d="M60.255,61.001h-0.704v-2.734c0-0.568-0.16-0.936-0.832-0.936c-0.576,0-1.167,0.336-1.167,1.391v2.279h-0.704v-5.741h0.704
		v2.119h0.016c0.2-0.264,0.552-0.68,1.224-0.68c0.647,0,1.463,0.264,1.463,1.455V61.001z"/>
</g>
<g>
	<path d="M92.763,60.314h2.91v0.688h-3.686v-5.741h0.776V60.314z"/>
	<path d="M98.051,56.7c1.335,0,1.943,1.127,1.943,2.207c0,1.079-0.607,2.207-1.943,2.207c-1.335,0-1.943-1.127-1.943-2.207
		C96.108,57.827,96.716,56.7,98.051,56.7z M98.051,60.506c1.008,0,1.215-1.04,1.215-1.599s-0.208-1.599-1.215-1.599
		c-1.007,0-1.215,1.04-1.215,1.599S97.043,60.506,98.051,60.506z"/>
	<path d="M102.203,61.001h-0.728l-1.208-4.182h0.768l0.8,3.286h0.016l0.808-3.286h0.784l0.815,3.286h0.016l0.848-3.286h0.704
		l-1.215,4.182h-0.728l-0.848-3.238h-0.016L102.203,61.001z"/>
</g>
<line class="st3" x1="29.066" y1="97.06" x2="121.106" y2="97.06"/>
<line class="st3" x1="29.066" y1="114.067" x2="121.106" y2="114.067"/>
<g>
	<path d="M28.278,119.809l4.633-2.325v4.63L28.278,119.809z"/>
	<line class="st3" x1="29.323" y1="119.858" x2="49.881" y2="119.858"/>
</g>
<g>
	<path d="M55.42,118.771c0.105,0.007,0.217,0.014,0.322,0.014c0.476,0,0.938-0.189,0.938-0.805c0-0.294-0.175-0.777-0.911-0.777
		c-0.875,0-0.932,0.714-0.959,1.057h-0.602c0-0.721,0.294-1.611,1.59-1.611c0.952,0,1.52,0.546,1.52,1.296
		c0,0.63-0.364,0.932-0.63,1.016v0.014c0.477,0.154,0.819,0.491,0.819,1.149c0,0.805-0.518,1.583-1.772,1.583
		c-0.364,0-0.672-0.091-0.91-0.217c-0.546-0.287-0.693-0.854-0.735-1.422h0.637c0.021,0.462,0.133,1.085,1.051,1.085
		c0.63,0,1.071-0.385,1.071-0.952c0-0.827-0.729-0.904-1.148-0.904c-0.091,0-0.189,0.007-0.28,0.007V118.771z"/>
	<path d="M58.052,118.414c0-1.604,1.17-1.765,1.702-1.765c0.854,0,1.541,0.554,1.541,1.471c0,0.882-0.581,1.253-1.316,1.646
		l-0.511,0.28c-0.672,0.371-0.82,0.756-0.848,0.945h2.675v0.582h-3.369c0.035-1.022,0.497-1.569,1.156-1.954l0.651-0.378
		c0.525-0.301,0.903-0.504,0.903-1.149c0-0.392-0.252-0.889-0.974-0.889c-0.932,0-0.974,0.868-0.995,1.211H58.052z"/>
	<path d="M62.042,121.573v-5.029h0.616v1.828h0.014c0.266-0.385,0.63-0.561,1.058-0.567c0.974,0,1.527,0.798,1.527,1.828
		c0,0.875-0.364,2.045-1.611,2.045c-0.624,0-0.883-0.357-1.009-0.56h-0.014v0.455H62.042z M63.618,118.358
		c-0.889,0-0.987,0.959-0.987,1.555c0,0.973,0.609,1.232,1.001,1.232c0.672,0,0.987-0.609,0.987-1.415
		C64.619,119.262,64.57,118.358,63.618,118.358z"/>
	<path d="M65.997,117.245v-0.701h0.616v0.701H65.997z M66.613,121.573h-0.616v-3.663h0.616V121.573z"/>
	<path d="M68.293,118.421v2.381c0,0.287,0.245,0.287,0.372,0.287h0.217v0.483c-0.224,0.021-0.399,0.049-0.462,0.049
		c-0.609,0-0.743-0.343-0.743-0.784v-2.417H67.18v-0.511h0.497v-1.022h0.616v1.022h0.588v0.511H68.293z"/>
	<path d="M71.114,116.439c-0.595,1.121-0.952,1.793-0.952,3.474c0,1.155,0.399,2.01,0.959,3.11h-0.414
		c-0.728-1.093-1.205-1.968-1.205-3.278c0-1.232,0.427-2.227,1.184-3.306H71.114z"/>
	<path d="M71.667,118.414c0-1.604,1.17-1.765,1.702-1.765c0.854,0,1.541,0.554,1.541,1.471c0,0.882-0.581,1.253-1.316,1.646
		l-0.511,0.28c-0.672,0.371-0.82,0.756-0.848,0.945h2.675v0.582h-3.369c0.035-1.022,0.497-1.569,1.156-1.954l0.651-0.378
		c0.525-0.301,0.903-0.504,0.903-1.149c0-0.392-0.252-0.889-0.974-0.889c-0.932,0-0.974,0.868-0.995,1.211H71.667z"/>
	<path d="M77.043,121.573h-0.637l-1.058-3.663h0.672l0.7,2.879h0.014l0.708-2.879h0.686l0.714,2.879h0.014l0.742-2.879h0.617
		l-1.065,3.663h-0.637l-0.742-2.836h-0.014L77.043,121.573z"/>
	<path d="M82.182,117.805c1.169,0,1.702,0.988,1.702,1.933s-0.532,1.933-1.702,1.933c-1.17,0-1.702-0.988-1.702-1.933
		S81.012,117.805,82.182,117.805z M82.182,121.139c0.882,0,1.064-0.911,1.064-1.401s-0.182-1.401-1.064-1.401
		c-0.883,0-1.065,0.911-1.065,1.401S81.299,121.139,82.182,121.139z"/>
	<path d="M85.282,121.573h-0.617v-3.663h0.582v0.609h0.014c0.245-0.427,0.567-0.714,1.029-0.714c0.077,0,0.112,0.007,0.161,0.021
		v0.637h-0.231c-0.574,0-0.938,0.448-0.938,0.981V121.573z"/>
	<path d="M89.812,121.573h-0.582v-0.504h-0.014c-0.266,0.498-0.686,0.609-1.043,0.609c-1.247,0-1.611-1.169-1.611-2.045
		c0-1.03,0.553-1.828,1.527-1.828c0.666,0,0.945,0.413,1.093,0.624l0.014-0.049v-1.835h0.617V121.573z M88.188,121.146
		c0.392,0,1.001-0.259,1.001-1.232c0-0.596-0.098-1.555-0.988-1.555c-0.952,0-1.001,0.904-1.001,1.373
		C87.2,120.536,87.515,121.146,88.188,121.146z"/>
	<path d="M92.745,118.953c-0.007-0.231-0.091-0.616-0.868-0.616c-0.189,0-0.729,0.063-0.729,0.519c0,0.301,0.189,0.371,0.666,0.49
		l0.616,0.154c0.763,0.189,1.029,0.469,1.029,0.967c0,0.756-0.623,1.211-1.45,1.211c-1.45,0-1.555-0.84-1.576-1.282h0.595
		c0.021,0.287,0.105,0.75,0.974,0.75c0.441,0,0.84-0.175,0.84-0.582c0-0.294-0.203-0.392-0.729-0.525l-0.714-0.175
		c-0.511-0.126-0.847-0.385-0.847-0.89c0-0.805,0.665-1.169,1.387-1.169c1.31,0,1.401,0.966,1.401,1.148H92.745z"/>
	<path d="M93.955,123.023c0.595-1.121,0.953-1.793,0.953-3.474c0-1.156-0.399-2.01-0.959-3.11h0.413
		c0.729,1.093,1.205,1.968,1.205,3.278c0,1.232-0.427,2.227-1.184,3.306H93.955z"/>
</g>
<line class="st4" x1="29.066" y1="124.692" x2="29.066" y2="114.067"/>
<line class="st4" x1="120.908" y1="124.692" x2="120.908" y2="114.067"/>
<g>
	<path d="M121.026,119.936l-4.631,2.327v-4.631L121.026,119.936z"/>
	<line class="st3" x1="119.981" y1="119.89" x2="100.091" y2="119.89"/>
</g>
<line class="st3" x1="75.195" y1="63.19" x2="75.195" y2="68.312"/>
<line class="st3" x1="75.195" y1="74.367" x2="75.195" y2="79.489"/>
<line class="st3" x1="75.195" y1="79.954" x2="75.195" y2="85.076"/>
<line class="st3" x1="75.195" y1="91.131" x2="75.195" y2="96.253"/>
<line class="st3" x1="75.195" y1="97.651" x2="75.195" y2="102.773"/>
<line class="st3" x1="75.195" y1="108.828" x2="75.195" y2="113.95"/>
<g>
	<path d="M49.53,75.736c-1.615,0-1.927-1.719-1.927-2.886s0.312-2.887,1.927-2.887c1.615,0,1.927,1.719,1.927,2.887
		S51.145,75.736,49.53,75.736z M49.53,70.595c-0.808,0-1.175,0.848-1.175,2.255s0.368,2.254,1.175,2.254s1.175-0.847,1.175-2.254
		S50.337,70.595,49.53,70.595z"/>
	<path d="M53.978,75.736c-1.615,0-1.927-1.719-1.927-2.886s0.312-2.887,1.927-2.887s1.927,1.719,1.927,2.887
		S55.593,75.736,53.978,75.736z M53.978,70.595c-0.808,0-1.175,0.848-1.175,2.255s0.368,2.254,1.175,2.254s1.175-0.847,1.175-2.254
		S54.785,70.595,53.978,70.595z"/>
	<path d="M58.426,75.736c-1.615,0-1.927-1.719-1.927-2.886s0.312-2.887,1.927-2.887s1.927,1.719,1.927,2.887
		S60.041,75.736,58.426,75.736z M58.426,70.595c-0.808,0-1.175,0.848-1.175,2.255s0.368,2.254,1.175,2.254s1.175-0.847,1.175-2.254
		S59.233,70.595,58.426,70.595z"/>
	<path d="M62.922,75.584H62.17v-3.99h-1.311v-0.56c0.912-0.064,1.287-0.152,1.511-1.072h0.552V75.584z"/>
	<path d="M49.85,92.611c-1.615,0-1.927-1.719-1.927-2.886s0.312-2.887,1.927-2.887s1.927,1.719,1.927,2.887
		S51.465,92.611,49.85,92.611z M49.85,87.47c-0.808,0-1.175,0.848-1.175,2.255s0.368,2.254,1.175,2.254s1.175-0.847,1.175-2.254
		S50.657,87.47,49.85,87.47z"/>
	<path d="M54.298,92.611c-1.615,0-1.927-1.719-1.927-2.886s0.312-2.887,1.927-2.887s1.927,1.719,1.927,2.887
		S55.913,92.611,54.298,92.611z M54.298,87.47c-0.808,0-1.175,0.848-1.175,2.255s0.368,2.254,1.175,2.254s1.175-0.847,1.175-2.254
		S55.105,87.47,54.298,87.47z"/>
	<path d="M58.793,92.459h-0.752v-3.99H56.73v-0.56c0.912-0.064,1.287-0.152,1.511-1.072h0.552V92.459z"/>
	<path d="M60.402,88.853c0-1.831,1.335-2.015,1.943-2.015c0.975,0,1.759,0.632,1.759,1.679c0,1.007-0.664,1.431-1.503,1.879
		l-0.584,0.32c-0.768,0.424-0.936,0.864-0.967,1.08h3.054v0.664h-3.846c0.04-1.167,0.567-1.791,1.319-2.231l0.743-0.432
		c0.6-0.344,1.032-0.576,1.032-1.311c0-0.448-0.288-1.016-1.111-1.016c-1.063,0-1.111,0.992-1.135,1.383H60.402z"/>
	<path d="M49.85,109.486c-1.615,0-1.927-1.719-1.927-2.886s0.312-2.887,1.927-2.887s1.927,1.719,1.927,2.887
		S51.465,109.486,49.85,109.486z M49.85,104.345c-0.808,0-1.175,0.848-1.175,2.255s0.368,2.254,1.175,2.254s1.175-0.847,1.175-2.254
		S50.657,104.345,49.85,104.345z"/>
	<path d="M54.346,109.334h-0.752v-3.99h-1.311v-0.56c0.912-0.064,1.287-0.152,1.511-1.072h0.552V109.334z"/>
	<path d="M55.955,105.728c0-1.831,1.335-2.015,1.943-2.015c0.975,0,1.759,0.632,1.759,1.679c0,1.007-0.664,1.431-1.503,1.879
		l-0.584,0.32c-0.768,0.424-0.936,0.864-0.967,1.08h3.054v0.664h-3.846c0.04-1.167,0.567-1.791,1.319-2.231l0.744-0.432
		c0.6-0.344,1.031-0.576,1.031-1.311c0-0.448-0.288-1.016-1.111-1.016c-1.063,0-1.111,0.992-1.136,1.383H55.955z"/>
	<path d="M61.842,106.136c0.12,0.008,0.248,0.016,0.368,0.016c0.544,0,1.072-0.216,1.072-0.919c0-0.336-0.2-0.888-1.04-0.888
		c-1,0-1.063,0.815-1.096,1.208h-0.688c0-0.824,0.336-1.839,1.815-1.839c1.087,0,1.735,0.624,1.735,1.479
		c0,0.719-0.416,1.063-0.72,1.159v0.016c0.543,0.176,0.936,0.56,0.936,1.311c0,0.919-0.592,1.807-2.023,1.807
		c-0.416,0-0.768-0.104-1.04-0.248c-0.624-0.328-0.792-0.975-0.839-1.623h0.728c0.024,0.528,0.152,1.239,1.199,1.239
		c0.72,0,1.223-0.439,1.223-1.087c0-0.944-0.831-1.032-1.311-1.032c-0.104,0-0.216,0.008-0.32,0.008V106.136z"/>
</g>
<g>
	<path d="M216.869,71.384l-4.631,2.327v-4.631L216.869,71.384z"/>
	<line class="st5" x1="215.824" y1="71.337" x2="158.249" y2="71.337"/>
</g>
<g>
	<path d="M216.869,88.26l-4.631,2.327v-4.631L216.869,88.26z"/>
	<line class="st5" x1="215.824" y1="88.214" x2="158.249" y2="88.214"/>
</g>
<g>
	<path d="M216.869,105.136l-4.631,2.327v-4.631L216.869,105.136z"/>
	<line class="st5" x1="215.824" y1="105.09" x2="158.249" y2="105.09"/>
</g>
<rect x="251.491" y="79.97" class="st3" width="92.37" height="34.097"/>
<polyline class="st3" points="251.374,79.971 251.374,63.126 343.895,63.126 343.895,79.971 "/>
<g>
	<path d="M313.781,71.978c0-1.831,1.336-2.015,1.943-2.015c0.976,0,1.759,0.632,1.759,1.679c0,1.007-0.663,1.431-1.503,1.879
		l-0.584,0.32c-0.768,0.424-0.936,0.864-0.968,1.08h3.055v0.664h-3.846c0.04-1.167,0.567-1.791,1.319-2.231l0.743-0.432
		c0.6-0.344,1.031-0.576,1.031-1.311c0-0.448-0.287-1.016-1.111-1.016c-1.063,0-1.111,0.992-1.135,1.383H313.781z"/>
	<path d="M319.669,72.386c0.12,0.008,0.248,0.016,0.368,0.016c0.543,0,1.071-0.216,1.071-0.919c0-0.336-0.2-0.888-1.04-0.888
		c-0.999,0-1.063,0.815-1.095,1.208h-0.688c0-0.824,0.335-1.839,1.814-1.839c1.088,0,1.735,0.624,1.735,1.479
		c0,0.719-0.416,1.063-0.72,1.159v0.016c0.544,0.176,0.936,0.56,0.936,1.311c0,0.919-0.592,1.807-2.023,1.807
		c-0.415,0-0.768-0.104-1.039-0.248c-0.624-0.328-0.792-0.975-0.84-1.623h0.728c0.024,0.528,0.152,1.239,1.2,1.239
		c0.719,0,1.223-0.439,1.223-1.087c0-0.944-0.831-1.032-1.312-1.032c-0.104,0-0.216,0.008-0.319,0.008V72.386z"/>
	<path d="M325.685,74.217v1.367h-0.704v-1.367h-2.454v-0.688l2.574-3.566h0.584v3.646h0.823v0.608H325.685z M323.174,73.609h1.807
		v-2.55h-0.016L323.174,73.609z"/>
	<path d="M327.949,72.314c0.239-0.184,0.583-0.352,1.087-0.352c0.911,0,1.847,0.64,1.847,1.799c0,0.624-0.279,1.975-2.038,1.975
		c-0.736,0-1.68-0.296-1.815-1.551h0.728c0.072,0.656,0.56,0.944,1.191,0.944c0.728,0,1.184-0.584,1.184-1.288
		c0-0.808-0.552-1.247-1.247-1.247c-0.408,0-0.776,0.192-1.04,0.536l-0.607-0.032l0.424-3.014h2.91v0.688h-2.383L327.949,72.314z"/>
	<path d="M315.221,89.261c0.12,0.008,0.248,0.016,0.368,0.016c0.543,0,1.071-0.216,1.071-0.919c0-0.336-0.2-0.888-1.04-0.888
		c-0.999,0-1.063,0.815-1.095,1.208h-0.688c0-0.824,0.335-1.839,1.814-1.839c1.088,0,1.735,0.624,1.735,1.479
		c0,0.719-0.416,1.063-0.72,1.159v0.016c0.544,0.176,0.936,0.56,0.936,1.311c0,0.919-0.592,1.807-2.023,1.807
		c-0.415,0-0.768-0.104-1.039-0.248c-0.624-0.328-0.791-0.975-0.84-1.623h0.728c0.024,0.528,0.152,1.239,1.2,1.239
		c0.719,0,1.223-0.439,1.223-1.087c0-0.944-0.831-1.032-1.311-1.032c-0.104,0-0.217,0.008-0.32,0.008V89.261z"/>
	<path d="M321.236,91.092v1.367h-0.704v-1.367h-2.454v-0.688l2.574-3.566h0.584v3.646h0.823v0.608H321.236z M318.726,90.484h1.807
		v-2.55h-0.016L318.726,90.484z"/>
	<path d="M323.502,89.189c0.239-0.184,0.583-0.352,1.087-0.352c0.911,0,1.847,0.64,1.847,1.799c0,0.624-0.279,1.975-2.038,1.975
		c-0.736,0-1.68-0.296-1.815-1.551h0.728c0.072,0.656,0.56,0.944,1.191,0.944c0.728,0,1.184-0.584,1.184-1.288
		c0-0.808-0.552-1.247-1.247-1.247c-0.408,0-0.776,0.192-1.04,0.536l-0.607-0.032l0.424-3.014h2.91v0.688h-2.383L323.502,89.189z"/>
	<path d="M330.107,88.333c-0.088-0.496-0.359-0.864-0.967-0.864c-1.104,0-1.336,1.487-1.336,2.079l0.017,0.016
		c0.176-0.304,0.567-0.688,1.335-0.688c0.688,0,1.759,0.44,1.759,1.783c0,0.576-0.151,0.991-0.535,1.407
		c-0.296,0.328-0.632,0.543-1.424,0.543c-0.432,0-1.047-0.192-1.447-0.815c-0.336-0.528-0.432-1.215-0.432-1.951
		c0-1.231,0.399-3.006,2.079-3.006c0.647,0,1.567,0.352,1.639,1.496H330.107z M329.084,91.979c0.672,0,1.104-0.527,1.104-1.287
		c0-0.496-0.264-1.183-1.136-1.183c-0.775,0-1.151,0.56-1.151,1.223C327.9,91.332,328.261,91.979,329.084,91.979z"/>
	<path d="M316.788,107.967v1.367h-0.704v-1.367h-2.454v-0.688l2.574-3.566h0.584v3.646h0.823v0.608H316.788z M314.277,107.359h1.807
		v-2.55h-0.016L314.277,107.359z"/>
	<path d="M319.054,106.064c0.239-0.184,0.583-0.352,1.087-0.352c0.911,0,1.847,0.64,1.847,1.799c0,0.624-0.279,1.975-2.038,1.975
		c-0.736,0-1.68-0.296-1.815-1.551h0.728c0.072,0.656,0.56,0.944,1.191,0.944c0.728,0,1.184-0.584,1.184-1.288
		c0-0.808-0.552-1.247-1.248-1.247c-0.407,0-0.775,0.192-1.039,0.536l-0.607-0.032l0.424-3.014h2.91v0.688h-2.383L319.054,106.064z"
		/>
	<path d="M325.66,105.208c-0.088-0.496-0.359-0.864-0.967-0.864c-1.104,0-1.336,1.487-1.336,2.079l0.017,0.016
		c0.176-0.304,0.567-0.688,1.335-0.688c0.688,0,1.759,0.44,1.759,1.783c0,0.576-0.151,0.991-0.535,1.407
		c-0.296,0.328-0.632,0.543-1.424,0.543c-0.432,0-1.047-0.192-1.447-0.815c-0.336-0.528-0.432-1.215-0.432-1.951
		c0-1.231,0.399-3.006,2.079-3.006c0.647,0,1.567,0.352,1.639,1.496H325.66z M324.637,108.854c0.672,0,1.104-0.527,1.104-1.287
		c0-0.496-0.264-1.183-1.136-1.183c-0.775,0-1.151,0.56-1.151,1.223C323.453,108.207,323.813,108.854,324.637,108.854z"/>
	<path d="M327.069,103.833h3.886v0.616c-0.56,0.583-1.903,2.375-2.311,4.885h-0.775c0.191-1.543,1.215-3.558,2.295-4.813h-3.095
		V103.833z"/>
</g>
<g>
	<path d="M229.633,74.971h-4.237V69.23h4.182v0.688h-3.406v1.759h3.143v0.688h-3.143v1.919h3.462V74.971z"/>
	<path d="M235.377,74.971v-3.39c0-0.168,0.016-0.896,0.016-1.431h-0.016l-1.615,4.821h-0.768l-1.615-4.813h-0.016
		c0,0.528,0.016,1.255,0.016,1.423v3.39h-0.751V69.23h1.111l1.639,4.853h0.017l1.631-4.853h1.104v5.741H235.377z"/>
	<path d="M240.042,70.845c-0.088-0.496-0.359-0.863-0.968-0.863c-1.103,0-1.335,1.487-1.335,2.079l0.017,0.016
		c0.176-0.304,0.567-0.688,1.335-0.688c0.688,0,1.759,0.44,1.759,1.783c0,0.576-0.151,0.991-0.535,1.407
		c-0.296,0.328-0.632,0.543-1.424,0.543c-0.432,0-1.047-0.192-1.447-0.815c-0.336-0.528-0.432-1.215-0.432-1.951
		c0-1.231,0.4-3.006,2.079-3.006c0.647,0,1.567,0.352,1.639,1.495H240.042z M239.019,74.492c0.672,0,1.104-0.528,1.104-1.288
		c0-0.496-0.264-1.183-1.136-1.183c-0.775,0-1.151,0.56-1.151,1.223C237.835,73.844,238.195,74.492,239.019,74.492z"/>
	<path d="M242.684,71.693h-0.832v-0.848h0.832V71.693z M242.684,74.971h-0.832v-0.848h0.832V74.971z"/>
	<path d="M229.633,91.846h-4.237v-5.741h4.182v0.688h-3.406v1.759h3.143v0.688h-3.143v1.919h3.462V91.846z"/>
	<path d="M235.377,91.846v-3.39c0-0.168,0.016-0.896,0.016-1.431h-0.016l-1.615,4.821h-0.768l-1.615-4.813h-0.016
		c0,0.528,0.016,1.255,0.016,1.423v3.39h-0.751v-5.741h1.111l1.639,4.853h0.017l1.631-4.853h1.104v5.741H235.377z"/>
	<path d="M239.922,88.856c0.76,0.32,0.92,0.943,0.92,1.367c0,0.903-0.576,1.775-1.903,1.775c-0.312,0-0.903-0.08-1.351-0.432
		c-0.576-0.456-0.576-1.063-0.576-1.335c0-0.688,0.36-1.127,0.951-1.367c-0.479-0.184-0.759-0.567-0.759-1.095
		c0-0.584,0.359-1.543,1.703-1.543c1.247,0,1.734,0.792,1.734,1.447C240.642,88.48,240.17,88.728,239.922,88.856z M237.764,90.247
		c0,0.448,0.224,1.12,1.199,1.12c0.512,0,1.127-0.184,1.127-1.063c0-0.76-0.527-1.096-1.167-1.096
		C238.131,89.208,237.764,89.728,237.764,90.247z M239.914,87.696c0-0.344-0.224-0.839-1.047-0.839c-0.752,0-0.936,0.52-0.936,0.879
		c0,0.536,0.472,0.864,0.983,0.864C239.522,88.6,239.914,88.208,239.914,87.696z"/>
	<path d="M242.684,88.568h-0.832V87.72h0.832V88.568z M242.684,91.846h-0.832v-0.848h0.832V91.846z"/>
	<path d="M229.633,108.721h-4.237v-5.741h4.182v0.688h-3.406v1.759h3.143v0.688h-3.143v1.919h3.462V108.721z"/>
	<path d="M235.377,108.721v-3.39c0-0.168,0.016-0.896,0.016-1.431h-0.016l-1.615,4.821h-0.768l-1.615-4.813h-0.016
		c0,0.528,0.016,1.255,0.016,1.423v3.39h-0.751v-5.741h1.111l1.639,4.853h0.017l1.631-4.853h1.104v5.741H235.377z"/>
	<path d="M239.578,108.721h-0.751v-3.99h-1.312v-0.56c0.911-0.064,1.287-0.152,1.511-1.072h0.552V108.721z"/>
	<path d="M242.938,108.873c-1.615,0-1.927-1.719-1.927-2.886c0-1.167,0.312-2.887,1.927-2.887s1.927,1.719,1.927,2.887
		C244.865,107.154,244.554,108.873,242.938,108.873z M242.938,103.732c-0.808,0-1.175,0.848-1.175,2.255s0.367,2.255,1.175,2.255
		s1.176-0.848,1.176-2.255S243.746,103.732,242.938,103.732z"/>
	<path d="M246.691,105.443h-0.832v-0.848h0.832V105.443z M246.691,108.721h-0.832v-0.848h0.832V108.721z"/>
</g>
<g>
	<path d="M347.29,71.693h-0.832v-0.848h0.832V71.693z M347.29,74.971h-0.832v-0.848h0.832V74.971z"/>
	<path d="M352.912,74.971h-4.238V69.23h4.182v0.688h-3.406v1.759h3.143v0.688h-3.143v1.919h3.463V74.971z"/>
	<path d="M358.655,74.971v-3.39c0-0.168,0.016-0.896,0.016-1.431h-0.016l-1.615,4.821h-0.768l-1.615-4.813h-0.016
		c0,0.528,0.016,1.255,0.016,1.423v3.39h-0.751V69.23h1.111l1.639,4.853h0.017l1.631-4.853h1.104v5.741H358.655z"/>
	<path d="M361.162,71.701c0.239-0.184,0.583-0.352,1.087-0.352c0.911,0,1.847,0.64,1.847,1.799c0,0.624-0.279,1.975-2.038,1.975
		c-0.736,0-1.68-0.296-1.815-1.551h0.728c0.072,0.656,0.56,0.944,1.191,0.944c0.728,0,1.184-0.584,1.184-1.288
		c0-0.808-0.552-1.247-1.247-1.247c-0.408,0-0.776,0.192-1.04,0.536l-0.607-0.032l0.424-3.014h2.91v0.688h-2.383L361.162,71.701z"/>
	<path d="M347.29,88.568h-0.832V87.72h0.832V88.568z M347.29,91.846h-0.832v-0.848h0.832V91.846z"/>
	<path d="M352.912,91.846h-4.238v-5.741h4.182v0.688h-3.406v1.759h3.143v0.688h-3.143v1.919h3.463V91.846z"/>
	<path d="M358.655,91.846v-3.39c0-0.168,0.016-0.896,0.016-1.431h-0.016l-1.615,4.821h-0.768l-1.615-4.813h-0.016
		c0,0.528,0.016,1.255,0.016,1.423v3.39h-0.751v-5.741h1.111l1.639,4.853h0.017l1.631-4.853h1.104v5.741H358.655z"/>
	<path d="M360.282,86.345h3.886v0.616c-0.56,0.583-1.903,2.375-2.311,4.885h-0.775c0.191-1.543,1.215-3.558,2.295-4.813h-3.095
		V86.345z"/>
	<path d="M347.29,105.443h-0.832v-0.848h0.832V105.443z M347.29,108.721h-0.832v-0.848h0.832V108.721z"/>
	<path d="M352.912,108.721h-4.238v-5.741h4.182v0.688h-3.406v1.759h3.143v0.688h-3.143v1.919h3.463V108.721z"/>
	<path d="M358.655,108.721v-3.39c0-0.168,0.016-0.896,0.016-1.431h-0.016l-1.615,4.821h-0.768l-1.615-4.813h-0.016
		c0,0.528,0.016,1.255,0.016,1.423v3.39h-0.751v-5.741h1.111l1.639,4.853h0.017l1.631-4.853h1.104v5.741H358.655z"/>
	<path d="M360.322,105.027c0-1.023,0.623-1.927,1.807-1.927c1.791,0,1.967,1.695,1.967,2.607c0,0.6-0.104,3.166-2.038,3.166
		c-1.319,0-1.672-0.959-1.672-1.503h0.704c0.04,0.567,0.376,0.919,0.951,0.919c0.768,0,1.176-0.648,1.352-2.103l-0.016-0.016
		c-0.208,0.432-0.768,0.672-1.288,0.672C361.05,106.842,360.322,106.146,360.322,105.027z M363.272,104.931
		c0-0.64-0.328-1.199-1.136-1.199c-0.655,0-1.087,0.512-1.087,1.263c0,1.08,0.672,1.215,1.144,1.215
		C362.561,106.21,363.272,106.042,363.272,104.931z"/>
</g>
<g>
	<path d="M271.144,55.261h0.775v5.741h-0.775v-2.679h-2.998v2.679h-0.776v-5.741h0.776v2.375h2.998V55.261z"/>
	<path d="M273.065,56.06v-0.799h0.703v0.799H273.065z M273.769,61.001h-0.703V56.82h0.703V61.001z"/>
	<path d="M278.296,60.658c0,0.6-0.009,2.103-1.943,2.103c-0.496,0-1.463-0.136-1.599-1.247h0.703
		c0.128,0.664,0.775,0.664,0.943,0.664c1.216,0,1.191-0.976,1.191-1.471V60.53h-0.016v0.032c-0.185,0.296-0.552,0.56-1.111,0.56
		c-1.424,0-1.84-1.335-1.84-2.335c0-1.175,0.632-2.087,1.743-2.087c0.76,0,1.08,0.472,1.248,0.712h0.016V56.82h0.664V60.658z
		 M276.48,60.514c0.447,0,1.144-0.296,1.144-1.407c0-0.68-0.112-1.775-1.128-1.775c-1.087,0-1.143,1.031-1.143,1.567
		C275.354,59.818,275.713,60.514,276.48,60.514z"/>
	<path d="M282.68,61.001h-0.703v-2.734c0-0.568-0.16-0.936-0.832-0.936c-0.575,0-1.167,0.336-1.167,1.391v2.279h-0.704v-5.741h0.704
		v2.119h0.016c0.2-0.264,0.552-0.68,1.224-0.68c0.647,0,1.463,0.264,1.463,1.455V61.001z"/>
</g>
<g>
	<path d="M315.188,60.314h2.911v0.688h-3.687v-5.741h0.775V60.314z"/>
	<path d="M320.476,56.7c1.335,0,1.943,1.127,1.943,2.207c0,1.079-0.608,2.207-1.943,2.207s-1.942-1.127-1.942-2.207
		C318.533,57.827,319.141,56.7,320.476,56.7z M320.476,60.506c1.008,0,1.216-1.04,1.216-1.599s-0.208-1.599-1.216-1.599
		c-1.007,0-1.215,1.04-1.215,1.599S319.469,60.506,320.476,60.506z"/>
	<path d="M324.628,61.001H323.9l-1.207-4.182h0.768l0.799,3.286h0.017l0.808-3.286h0.783l0.815,3.286h0.017l0.847-3.286h0.704
		l-1.216,4.182h-0.728l-0.848-3.238h-0.016L324.628,61.001z"/>
</g>
<line class="st3" x1="251.491" y1="97.06" x2="343.531" y2="97.06"/>
<line class="st3" x1="251.491" y1="114.067" x2="343.531" y2="114.067"/>
<g>
	<path d="M250.704,119.809l4.633-2.325v4.63L250.704,119.809z"/>
	<line class="st3" x1="251.749" y1="119.858" x2="272.307" y2="119.858"/>
</g>
<g>
	<path d="M277.846,118.771c0.104,0.007,0.217,0.014,0.321,0.014c0.477,0,0.938-0.189,0.938-0.805c0-0.294-0.175-0.777-0.91-0.777
		c-0.875,0-0.932,0.714-0.959,1.057h-0.603c0-0.721,0.294-1.611,1.59-1.611c0.952,0,1.52,0.546,1.52,1.296
		c0,0.63-0.364,0.932-0.63,1.016v0.014c0.476,0.154,0.819,0.491,0.819,1.149c0,0.805-0.519,1.583-1.772,1.583
		c-0.364,0-0.672-0.091-0.91-0.217c-0.547-0.287-0.693-0.854-0.735-1.422h0.637c0.021,0.462,0.134,1.085,1.051,1.085
		c0.631,0,1.072-0.385,1.072-0.952c0-0.827-0.729-0.904-1.149-0.904c-0.091,0-0.188,0.007-0.279,0.007V118.771z"/>
	<path d="M280.477,118.414c0-1.604,1.169-1.765,1.701-1.765c0.854,0,1.541,0.554,1.541,1.471c0,0.882-0.581,1.253-1.316,1.646
		l-0.512,0.28c-0.672,0.371-0.819,0.756-0.848,0.945h2.676v0.582h-3.369c0.035-1.022,0.498-1.569,1.156-1.954l0.651-0.378
		c0.525-0.301,0.903-0.504,0.903-1.149c0-0.392-0.252-0.889-0.974-0.889c-0.932,0-0.974,0.868-0.994,1.211H280.477z"/>
	<path d="M284.467,121.573v-5.029h0.616v1.828h0.014c0.267-0.385,0.631-0.561,1.058-0.567c0.974,0,1.527,0.798,1.527,1.828
		c0,0.875-0.364,2.045-1.611,2.045c-0.623,0-0.882-0.357-1.008-0.56h-0.015v0.455H284.467z M286.043,118.358
		c-0.89,0-0.988,0.959-0.988,1.555c0,0.973,0.609,1.232,1.002,1.232c0.672,0,0.987-0.609,0.987-1.415
		C287.044,119.262,286.995,118.358,286.043,118.358z"/>
	<path d="M288.422,117.245v-0.701h0.616v0.701H288.422z M289.038,121.573h-0.616v-3.663h0.616V121.573z"/>
	<path d="M290.718,118.421v2.381c0,0.287,0.245,0.287,0.371,0.287h0.217v0.483c-0.224,0.021-0.399,0.049-0.462,0.049
		c-0.609,0-0.742-0.343-0.742-0.784v-2.417h-0.498v-0.511h0.498v-1.022h0.616v1.022h0.588v0.511H290.718z"/>
	<path d="M293.539,116.439c-0.595,1.121-0.952,1.793-0.952,3.474c0,1.155,0.399,2.01,0.959,3.11h-0.413
		c-0.729-1.093-1.204-1.968-1.204-3.278c0-1.232,0.427-2.227,1.184-3.306H293.539z"/>
	<path d="M294.092,118.414c0-1.604,1.169-1.765,1.701-1.765c0.854,0,1.541,0.554,1.541,1.471c0,0.882-0.581,1.253-1.316,1.646
		l-0.512,0.28c-0.672,0.371-0.819,0.756-0.848,0.945h2.676v0.582h-3.369c0.035-1.022,0.498-1.569,1.156-1.954l0.651-0.378
		c0.525-0.301,0.903-0.504,0.903-1.149c0-0.392-0.252-0.889-0.974-0.889c-0.932,0-0.974,0.868-0.994,1.211H294.092z"/>
	<path d="M299.468,121.573h-0.638l-1.058-3.663h0.673l0.7,2.879h0.014l0.708-2.879h0.687l0.714,2.879h0.015l0.742-2.879h0.616
		l-1.064,3.663h-0.638l-0.742-2.836h-0.014L299.468,121.573z"/>
	<path d="M304.606,117.805c1.169,0,1.702,0.988,1.702,1.933s-0.533,1.933-1.702,1.933c-1.17,0-1.702-0.988-1.702-1.933
		S303.437,117.805,304.606,117.805z M304.606,121.139c0.882,0,1.064-0.911,1.064-1.401s-0.183-1.401-1.064-1.401
		c-0.883,0-1.064,0.911-1.064,1.401S303.724,121.139,304.606,121.139z"/>
	<path d="M307.706,121.573h-0.616v-3.663h0.582v0.609h0.014c0.245-0.427,0.567-0.714,1.029-0.714c0.077,0,0.112,0.007,0.161,0.021
		v0.637h-0.231c-0.574,0-0.938,0.448-0.938,0.981V121.573z"/>
	<path d="M312.237,121.573h-0.581v-0.504h-0.015c-0.266,0.498-0.687,0.609-1.043,0.609c-1.247,0-1.611-1.169-1.611-2.045
		c0-1.03,0.554-1.828,1.526-1.828c0.666,0,0.946,0.413,1.093,0.624l0.015-0.049v-1.835h0.616V121.573z M310.612,121.146
		c0.393,0,1.001-0.259,1.001-1.232c0-0.596-0.098-1.555-0.987-1.555c-0.952,0-1.001,0.904-1.001,1.373
		C309.625,120.536,309.939,121.146,310.612,121.146z"/>
	<path d="M315.169,118.953c-0.007-0.231-0.091-0.616-0.868-0.616c-0.189,0-0.729,0.063-0.729,0.519c0,0.301,0.189,0.371,0.665,0.49
		l0.616,0.154c0.764,0.189,1.03,0.469,1.03,0.967c0,0.756-0.624,1.211-1.45,1.211c-1.449,0-1.555-0.84-1.576-1.282h0.596
		c0.021,0.287,0.105,0.75,0.974,0.75c0.441,0,0.841-0.175,0.841-0.582c0-0.294-0.203-0.392-0.729-0.525l-0.715-0.175
		c-0.511-0.126-0.848-0.385-0.848-0.89c0-0.805,0.666-1.169,1.387-1.169c1.311,0,1.401,0.966,1.401,1.148H315.169z"/>
	<path d="M316.379,123.023c0.596-1.121,0.952-1.793,0.952-3.474c0-1.156-0.398-2.01-0.959-3.11h0.413
		c0.729,1.093,1.205,1.968,1.205,3.278c0,1.232-0.428,2.227-1.184,3.306H316.379z"/>
</g>
<line class="st4" x1="251.493" y1="124.692" x2="251.493" y2="114.067"/>
<line class="st4" x1="343.333" y1="124.692" x2="343.333" y2="114.067"/>
<g>
	<path d="M343.452,119.936l-4.631,2.327v-4.631L343.452,119.936z"/>
	<line class="st3" x1="342.407" y1="119.89" x2="322.517" y2="119.89"/>
</g>
<line class="st3" x1="297.621" y1="63.19" x2="297.621" y2="68.312"/>
<line class="st3" x1="297.621" y1="74.367" x2="297.621" y2="79.489"/>
<line class="st3" x1="297.621" y1="79.954" x2="297.621" y2="85.076"/>
<line class="st3" x1="297.621" y1="91.131" x2="297.621" y2="96.253"/>
<line class="st3" x1="297.621" y1="97.651" x2="297.621" y2="102.773"/>
<line class="st3" x1="297.621" y1="108.828" x2="297.621" y2="113.95"/>
<g>
	<path d="M271.955,75.736c-1.615,0-1.927-1.719-1.927-2.886s0.312-2.887,1.927-2.887s1.927,1.719,1.927,2.887
		S273.57,75.736,271.955,75.736z M271.955,70.595c-0.808,0-1.175,0.848-1.175,2.255s0.367,2.254,1.175,2.254
		s1.176-0.847,1.176-2.254S272.763,70.595,271.955,70.595z"/>
	<path d="M276.403,75.736c-1.615,0-1.927-1.719-1.927-2.886s0.312-2.887,1.927-2.887s1.927,1.719,1.927,2.887
		S278.019,75.736,276.403,75.736z M276.403,70.595c-0.808,0-1.175,0.848-1.175,2.255s0.367,2.254,1.175,2.254
		s1.176-0.847,1.176-2.254S277.211,70.595,276.403,70.595z"/>
	<path d="M280.852,75.736c-1.615,0-1.927-1.719-1.927-2.886s0.312-2.887,1.927-2.887s1.927,1.719,1.927,2.887
		S282.467,75.736,280.852,75.736z M280.852,70.595c-0.808,0-1.175,0.848-1.175,2.255s0.367,2.254,1.175,2.254
		s1.176-0.847,1.176-2.254S281.659,70.595,280.852,70.595z"/>
	<path d="M285.347,75.584h-0.751v-3.99h-1.312v-0.56c0.911-0.064,1.287-0.152,1.511-1.072h0.552V75.584z"/>
	<path d="M272.275,92.611c-1.615,0-1.927-1.719-1.927-2.886s0.312-2.887,1.927-2.887s1.927,1.719,1.927,2.887
		S273.891,92.611,272.275,92.611z M272.275,87.47c-0.808,0-1.175,0.848-1.175,2.255s0.367,2.254,1.175,2.254
		s1.176-0.847,1.176-2.254S273.083,87.47,272.275,87.47z"/>
	<path d="M276.724,92.611c-1.615,0-1.927-1.719-1.927-2.886s0.312-2.887,1.927-2.887s1.927,1.719,1.927,2.887
		S278.339,92.611,276.724,92.611z M276.724,87.47c-0.808,0-1.175,0.848-1.175,2.255s0.367,2.254,1.175,2.254
		s1.176-0.847,1.176-2.254S277.531,87.47,276.724,87.47z"/>
	<path d="M281.219,92.459h-0.751v-3.99h-1.312v-0.56c0.911-0.064,1.287-0.152,1.511-1.072h0.552V92.459z"/>
	<path d="M282.828,88.853c0-1.831,1.336-2.015,1.943-2.015c0.976,0,1.759,0.632,1.759,1.679c0,1.007-0.663,1.431-1.503,1.879
		l-0.584,0.32c-0.768,0.424-0.936,0.864-0.968,1.08h3.055v0.664h-3.846c0.04-1.167,0.567-1.791,1.319-2.231l0.743-0.432
		c0.6-0.344,1.031-0.576,1.031-1.311c0-0.448-0.287-1.016-1.111-1.016c-1.063,0-1.111,0.992-1.135,1.383H282.828z"/>
	<path d="M272.275,109.486c-1.615,0-1.927-1.719-1.927-2.886s0.312-2.887,1.927-2.887s1.927,1.719,1.927,2.887
		S273.891,109.486,272.275,109.486z M272.275,104.345c-0.808,0-1.175,0.848-1.175,2.255s0.367,2.254,1.175,2.254
		s1.176-0.847,1.176-2.254S273.083,104.345,272.275,104.345z"/>
	<path d="M276.771,109.334h-0.751v-3.99h-1.312v-0.56c0.911-0.064,1.287-0.152,1.511-1.072h0.552V109.334z"/>
	<path d="M278.381,105.728c0-1.831,1.336-2.015,1.943-2.015c0.976,0,1.759,0.632,1.759,1.679c0,1.007-0.663,1.431-1.503,1.879
		l-0.584,0.32c-0.768,0.424-0.936,0.864-0.968,1.08h3.055v0.664h-3.846c0.04-1.167,0.567-1.791,1.319-2.231l0.743-0.432
		c0.6-0.344,1.031-0.576,1.031-1.311c0-0.448-0.287-1.016-1.111-1.016c-1.063,0-1.111,0.992-1.135,1.383H278.381z"/>
	<path d="M284.268,106.136c0.12,0.008,0.248,0.016,0.368,0.016c0.543,0,1.071-0.216,1.071-0.919c0-0.336-0.2-0.888-1.04-0.888
		c-0.999,0-1.063,0.815-1.095,1.208h-0.688c0-0.824,0.335-1.839,1.814-1.839c1.088,0,1.735,0.624,1.735,1.479
		c0,0.719-0.416,1.063-0.72,1.159v0.016c0.544,0.176,0.936,0.56,0.936,1.311c0,0.919-0.592,1.807-2.023,1.807
		c-0.415,0-0.768-0.104-1.039-0.248c-0.624-0.328-0.791-0.975-0.84-1.623h0.728c0.024,0.528,0.152,1.239,1.2,1.239
		c0.719,0,1.223-0.439,1.223-1.087c0-0.944-0.831-1.032-1.311-1.032c-0.104,0-0.217,0.008-0.32,0.008V106.136z"/>
</g>
</svg>
