<?xml version="1.0" encoding="utf-8"?>
<!-- Generator: Adobe Illustrator 28.2.0, SVG Export Plug-In . SVG Version: 6.00 Build 0)  -->
<svg version="1.1" xmlns="http://www.w3.org/2000/svg" xmlns:xlink="http://www.w3.org/1999/xlink" x="0px" y="0px"
	 width="278.671px" height="61.674px" viewBox="0 0 278.671 61.674" style="enable-background:new 0 0 278.671 61.674;"
	 xml:space="preserve">
<style type="text/css">
	.st0{fill:none;stroke:#000000;stroke-width:0.5;stroke-dasharray:2;}
	.st1{fill:#FFFFFF;}
</style>
<g id="_x3C_图层_x3E_">
</g>
<g id="_x3C_レイヤー_x3E_">
	<g>
		<g>
			<path d="M7.656,3.665C7.616,2.778,6.88,2.498,6.232,2.498c-0.488,0-1.311,0.136-1.311,1.007c0,0.488,0.344,0.647,0.679,0.728
				L7.24,4.609c0.744,0.176,1.303,0.624,1.303,1.535c0,1.359-1.263,1.735-2.247,1.735c-1.063,0-1.479-0.32-1.735-0.552
				C4.074,6.888,3.978,6.408,3.978,5.872h0.728c0,1.04,0.848,1.343,1.583,1.343c0.56,0,1.503-0.144,1.503-0.967
				c0-0.6-0.28-0.792-1.223-1.016L5.393,4.96C5.017,4.873,4.169,4.609,4.169,3.609c0-0.896,0.584-1.775,1.975-1.775
				c2.007,0,2.207,1.199,2.239,1.831H7.656z"/>
			<path d="M10.241,7.727H9.538V3.545h0.664v0.696h0.016c0.28-0.488,0.647-0.816,1.175-0.816c0.088,0,0.128,0.008,0.184,0.024v0.728
				h-0.264c-0.656,0-1.071,0.512-1.071,1.12V7.727z"/>
			<path d="M14.72,4.953c-0.088-0.56-0.4-0.896-0.992-0.896c-0.871,0-1.151,0.832-1.151,1.575c0,0.719,0.176,1.607,1.144,1.607
				c0.472,0,0.879-0.352,1-0.991h0.68c-0.072,0.664-0.48,1.599-1.703,1.599c-1.175,0-1.871-0.888-1.871-2.095
				c0-1.295,0.624-2.327,2.007-2.327c1.096,0,1.511,0.8,1.567,1.527H14.72z"/>
			<path d="M20.263,4.688c0,0.384-0.312,0.68-0.679,0.68c-0.376,0-0.68-0.304-0.68-0.68c0-0.384,0.304-0.679,0.68-0.679
				C19.952,4.009,20.263,4.305,20.263,4.688z"/>
			<path d="M27.656,3.665c-0.04-0.887-0.776-1.167-1.423-1.167c-0.488,0-1.311,0.136-1.311,1.007c0,0.488,0.344,0.647,0.679,0.728
				l1.639,0.376c0.744,0.176,1.303,0.624,1.303,1.535c0,1.359-1.263,1.735-2.247,1.735c-1.063,0-1.479-0.32-1.735-0.552
				c-0.488-0.439-0.584-0.919-0.584-1.455h0.728c0,1.04,0.848,1.343,1.583,1.343c0.56,0,1.503-0.144,1.503-0.967
				c0-0.6-0.28-0.792-1.223-1.016L25.393,4.96c-0.376-0.088-1.224-0.352-1.224-1.351c0-0.896,0.584-1.775,1.975-1.775
				c2.007,0,2.207,1.199,2.239,1.831H27.656z"/>
			<path d="M30.241,7.727h-0.704V3.545h0.664v0.696h0.016c0.28-0.488,0.647-0.816,1.175-0.816c0.088,0,0.128,0.008,0.184,0.024
				v0.728h-0.264c-0.656,0-1.071,0.512-1.071,1.12V7.727z"/>
			<path d="M34.72,4.953c-0.088-0.56-0.4-0.896-0.992-0.896c-0.871,0-1.151,0.832-1.151,1.575c0,0.719,0.176,1.607,1.144,1.607
				c0.472,0,0.879-0.352,1-0.991h0.68c-0.072,0.664-0.48,1.599-1.703,1.599c-1.175,0-1.871-0.888-1.871-2.095
				c0-1.295,0.624-2.327,2.007-2.327c1.096,0,1.511,0.8,1.567,1.527H34.72z"/>
			<path d="M39.856,3.689h0.583v1.727h1.727V6H40.44v1.727h-0.583V6h-1.735V5.417h1.735V3.689z"/>
			<path d="M45.352,7.727H44.6v-3.99h-1.311v-0.56c0.912-0.064,1.287-0.152,1.511-1.072h0.552V7.727z"/>
		</g>
	</g>
	<g>
		<path d="M1.135,7.64h0.864v0.567H0.504v-7.34h1.495v0.568H1.135V7.64z"/>
	</g>
	<g>
		<path d="M32.68,34.685v0.832h-0.848v-0.832H32.68z"/>
		<path d="M32.68,30.236v0.832h-0.848v-0.832H32.68z"/>
		<path d="M32.68,25.789v0.832h-0.848v-0.832H32.68z"/>
	</g>
	<g>
		<path d="M171.809,4.453l-4.631,2.327V2.148L171.809,4.453z"/>
		<line class="st0" x1="170.764" y1="4.407" x2="53.759" y2="4.407"/>
	</g>
	<g>
		<rect x="128.876" y="1.013" class="st1" width="17.93" height="7.671"/>
		<g>
			<path d="M132.653,0.702c0.188,0.193,0.417,0.357,0.688,0.492c-0.214,0.198-0.406,0.445-0.578,0.742
				c-0.094,0.177-0.18,0.344-0.258,0.5v4.609c0,0.38,0.021,0.763,0.062,1.148c-0.13-0.021-0.255-0.031-0.375-0.031
				c-0.12,0-0.234,0.01-0.344,0.031c0.042-0.386,0.062-0.769,0.062-1.148V3.436c-0.026,0.037-0.05,0.07-0.07,0.102
				c-0.245,0.386-0.505,0.805-0.781,1.258c-0.146-0.245-0.3-0.435-0.461-0.57c0.557-0.594,1.016-1.231,1.375-1.914
				C132.234,1.822,132.46,1.285,132.653,0.702z M133.192,1.944c0.286,0.047,0.575,0.07,0.867,0.07h0.531
				c0.104-0.542,0.18-0.979,0.227-1.312c0.167,0.052,0.406,0.091,0.719,0.117c-0.136,0.281-0.255,0.68-0.359,1.195h1.539
				c0.297,0,0.591-0.023,0.883-0.07c-0.021,0.109-0.031,0.214-0.031,0.312c0,0.109,0.01,0.214,0.031,0.312
				c-0.292-0.042-0.586-0.062-0.883-0.062h-1.648c-0.073,0.375-0.148,0.719-0.227,1.031h2.188c0.297,0,0.591-0.018,0.883-0.055
				c-0.021,0.099-0.031,0.203-0.031,0.312c0,0.099,0.01,0.203,0.031,0.312c-0.292-0.042-0.586-0.062-0.883-0.062h-2.312
				c-0.068,0.292-0.138,0.56-0.211,0.805h2.344c0.239,0,0.479-0.018,0.719-0.055c-0.021,0.099-0.031,0.203-0.031,0.312
				c0,0.12,0.01,0.245,0.031,0.375c-0.255,0.078-0.847,0.558-1.773,1.438c0.375,0.229,0.758,0.456,1.148,0.68
				c-0.214,0.203-0.359,0.401-0.438,0.594c-0.88-0.698-1.766-1.268-2.656-1.711c0.167-0.151,0.312-0.32,0.438-0.508
				c0.37,0.245,0.755,0.492,1.156,0.742l1.336-1.391h-1.008c-0.719,0-1.339,0.06-1.859,0.18c-0.021-0.25-0.086-0.469-0.195-0.656
				c0.146-0.062,0.237-0.125,0.273-0.188c0.036-0.078,0.096-0.284,0.18-0.617h-0.547c-0.287,0-0.578,0.021-0.875,0.062
				c0.021-0.109,0.031-0.213,0.031-0.312c0-0.109-0.011-0.213-0.031-0.312c0.297,0.037,0.588,0.055,0.875,0.055h0.656
				c0.01-0.036,0.018-0.073,0.023-0.109c0.067-0.333,0.133-0.641,0.195-0.922h-0.438c-0.292,0-0.581,0.021-0.867,0.062
				c0.021-0.099,0.031-0.203,0.031-0.312C133.224,2.158,133.213,2.053,133.192,1.944z"/>
			<path d="M138.653,3.538c0.422,0.021,0.841,0.031,1.258,0.031c0.167,0,0.331-0.01,0.492-0.031
				c-0.021,0.219-0.031,0.438-0.031,0.656v2.484c0.031,0.016,0.065,0.031,0.102,0.047c0.75,0.401,1.727,0.602,2.93,0.602
				c0.5,0,1.336-0.044,2.508-0.133c-0.109,0.172-0.185,0.391-0.227,0.656h-2.062c-1.339,0-2.391-0.211-3.156-0.633
				c-0.172-0.094-0.297-0.141-0.375-0.141c-0.219,0-0.573,0.299-1.062,0.898c-0.13-0.172-0.294-0.308-0.492-0.406l0.883-0.711
				c0.146-0.109,0.278-0.188,0.398-0.234V4.108c-0.386,0-0.773,0.011-1.164,0.031c0.021-0.109,0.031-0.216,0.031-0.32
				C138.685,3.73,138.674,3.637,138.653,3.538z M139.747,1.108c0.188,0.552,0.43,1.039,0.727,1.461
				c-0.203,0.026-0.422,0.109-0.656,0.25c-0.203-0.609-0.422-1.096-0.656-1.461C139.359,1.311,139.554,1.228,139.747,1.108z
				 M144.06,0.702c0.281,0.156,0.521,0.261,0.719,0.312c-0.24,0.224-0.513,0.628-0.82,1.211h0.695c0.302,0,0.606-0.021,0.914-0.062
				c-0.021,0.12-0.031,0.234-0.031,0.344s0.01,0.214,0.031,0.312c-0.308-0.036-0.612-0.055-0.914-0.055h-1.344v0.945
				c0,0.109-0.005,0.222-0.016,0.336h1.523c0.302,0,0.602-0.023,0.898-0.07c-0.021,0.115-0.031,0.232-0.031,0.352
				c0,0.104,0.01,0.206,0.031,0.305c-0.297-0.042-0.597-0.062-0.898-0.062h-1.594c-0.005,0.037-0.013,0.068-0.023,0.094
				c0.625,0.401,1.349,0.943,2.172,1.625c-0.208,0.188-0.352,0.357-0.43,0.508c-0.5-0.599-1.138-1.125-1.914-1.578
				c-0.115,0.312-0.266,0.578-0.453,0.797c-0.276,0.328-0.716,0.617-1.32,0.867c-0.151-0.192-0.331-0.346-0.539-0.461
				c0.609-0.146,1.06-0.362,1.352-0.648c0.25-0.25,0.442-0.57,0.578-0.961c0.026-0.083,0.049-0.164,0.07-0.242h-1.062
				c-0.297,0-0.599,0.021-0.906,0.062c0.021-0.099,0.031-0.2,0.031-0.305c0-0.12-0.011-0.237-0.031-0.352
				c0.307,0.047,0.609,0.07,0.906,0.07h1.156c0.005-0.088,0.008-0.172,0.008-0.25V2.764h-0.969c-0.308,0-0.609,0.019-0.906,0.055
				c0.016-0.099,0.023-0.203,0.023-0.312s-0.008-0.224-0.023-0.344c0.297,0.042,0.599,0.062,0.906,0.062h1.664
				C143.768,1.684,143.95,1.176,144.06,0.702z M142.06,0.819c0.188,0.396,0.427,0.74,0.719,1.031
				c-0.183,0.026-0.378,0.102-0.586,0.227c-0.203-0.432-0.422-0.776-0.656-1.031C141.713,1.009,141.888,0.934,142.06,0.819z"/>
		</g>
	</g>
	<g>
		<path d="M138.795,34.685v0.832h-0.848v-0.832H138.795z"/>
		<path d="M138.795,30.236v0.832h-0.848v-0.832H138.795z"/>
		<path d="M138.795,25.789v0.832h-0.848v-0.832H138.795z"/>
	</g>
	<g>
		<g>
			<path d="M179.035,1.986h2.327c1.495,0,2.414,1.135,2.414,2.791c0,1.287-0.56,2.95-2.446,2.95h-2.295V1.986z M179.811,7.063h1.504
				c1.007,0,1.663-0.792,1.663-2.239s-0.664-2.175-1.72-2.175h-1.447V7.063z"/>
			<path d="M187.058,4.737c-0.008-0.264-0.104-0.704-0.991-0.704c-0.216,0-0.832,0.072-0.832,0.592c0,0.344,0.216,0.423,0.76,0.56
				l0.703,0.176c0.872,0.216,1.176,0.536,1.176,1.104c0,0.863-0.712,1.383-1.655,1.383c-1.655,0-1.774-0.959-1.799-1.463h0.68
				c0.023,0.328,0.12,0.855,1.111,0.855c0.504,0,0.959-0.2,0.959-0.664c0-0.336-0.231-0.448-0.831-0.6l-0.815-0.2
				c-0.584-0.144-0.968-0.44-0.968-1.016c0-0.919,0.76-1.335,1.583-1.335c1.495,0,1.6,1.104,1.6,1.312H187.058z"/>
			<path d="M189.546,4.129v2.719c0,0.328,0.28,0.328,0.424,0.328h0.248v0.552c-0.256,0.024-0.455,0.056-0.527,0.056
				c-0.695,0-0.848-0.392-0.848-0.896V4.129h-0.567V3.545h0.567V2.378h0.703v1.167h0.672v0.583H189.546z"/>
			<path d="M195.065,4.688c0,0.384-0.312,0.68-0.68,0.68c-0.376,0-0.68-0.304-0.68-0.68c0-0.384,0.304-0.679,0.68-0.679
				C194.753,4.009,195.065,4.305,195.065,4.688z"/>
			<path d="M199.035,1.986h2.327c1.495,0,2.414,1.135,2.414,2.791c0,1.287-0.56,2.95-2.446,2.95h-2.295V1.986z M199.811,7.063h1.504
				c1.007,0,1.663-0.792,1.663-2.239s-0.664-2.175-1.72-2.175h-1.447V7.063z"/>
			<path d="M207.058,4.737c-0.008-0.264-0.104-0.704-0.991-0.704c-0.216,0-0.832,0.072-0.832,0.592c0,0.344,0.216,0.423,0.76,0.56
				l0.703,0.176c0.872,0.216,1.176,0.536,1.176,1.104c0,0.863-0.712,1.383-1.655,1.383c-1.655,0-1.774-0.959-1.799-1.463h0.68
				c0.023,0.328,0.12,0.855,1.111,0.855c0.504,0,0.959-0.2,0.959-0.664c0-0.336-0.231-0.448-0.831-0.6l-0.815-0.2
				c-0.584-0.144-0.968-0.44-0.968-1.016c0-0.919,0.76-1.335,1.583-1.335c1.495,0,1.6,1.104,1.6,1.312H207.058z"/>
			<path d="M209.546,4.129v2.719c0,0.328,0.28,0.328,0.424,0.328h0.248v0.552c-0.256,0.024-0.455,0.056-0.527,0.056
				c-0.695,0-0.848-0.392-0.848-0.896V4.129h-0.567V3.545h0.567V2.378h0.703v1.167h0.672v0.583H209.546z"/>
			<path d="M214.658,3.689h0.584v1.727h1.727V6h-1.727v1.727h-0.584V6h-1.735V5.417h1.735V3.689z"/>
			<path d="M220.153,7.727h-0.751v-3.99h-1.312v-0.56c0.911-0.064,1.287-0.152,1.511-1.072h0.552V7.727z"/>
		</g>
	</g>
	<g>
		<path d="M175.715,7.64h0.863v0.567h-1.495v-7.34h1.495v0.568h-0.863V7.64z"/>
	</g>
	<g>
		<path d="M208.741,34.685v0.832h-0.848v-0.832H208.741z"/>
		<path d="M208.741,30.236v0.832h-0.848v-0.832H208.741z"/>
		<path d="M208.741,25.789v0.832h-0.848v-0.832H208.741z"/>
	</g>
	<g>
		<path d="M48.665,1.435h-0.864V0.867h1.496v7.34h-1.496V7.64h0.864V1.435z"/>
	</g>
	<g>
		<path d="M223.761,1.435h-0.863V0.867h1.495v7.34h-1.495V7.64h0.863V1.435z"/>
	</g>
	<g>
		<g>
			<path d="M7.656,15.824c-0.04-0.888-0.776-1.167-1.423-1.167c-0.488,0-1.311,0.136-1.311,1.007c0,0.488,0.344,0.647,0.679,0.728
				l1.639,0.376c0.744,0.176,1.303,0.624,1.303,1.535c0,1.359-1.263,1.735-2.247,1.735c-1.063,0-1.479-0.32-1.735-0.552
				c-0.488-0.439-0.584-0.919-0.584-1.455h0.728c0,1.04,0.848,1.343,1.583,1.343c0.56,0,1.503-0.144,1.503-0.967
				c0-0.6-0.28-0.792-1.223-1.016l-1.175-0.272c-0.376-0.088-1.224-0.352-1.224-1.351c0-0.896,0.584-1.775,1.975-1.775
				c2.007,0,2.207,1.199,2.239,1.831H7.656z"/>
			<path d="M10.241,19.886H9.538v-4.182h0.664v0.695h0.016c0.28-0.487,0.647-0.815,1.175-0.815c0.088,0,0.128,0.008,0.184,0.024
				v0.728h-0.264c-0.656,0-1.071,0.512-1.071,1.119V19.886z"/>
			<path d="M14.72,17.111c-0.088-0.56-0.4-0.896-0.992-0.896c-0.871,0-1.151,0.832-1.151,1.575c0,0.72,0.176,1.607,1.144,1.607
				c0.472,0,0.879-0.352,1-0.991h0.68c-0.072,0.664-0.48,1.599-1.703,1.599c-1.175,0-1.871-0.888-1.871-2.095
				c0-1.295,0.624-2.327,2.007-2.327c1.096,0,1.511,0.8,1.567,1.527H14.72z"/>
			<path d="M19.856,15.848h0.583v1.727h1.727v0.583H20.44v1.727h-0.583v-1.727h-1.735v-0.583h1.735V15.848z"/>
			<path d="M22.834,16.28c0-1.831,1.335-2.015,1.943-2.015c0.975,0,1.759,0.632,1.759,1.679c0,1.007-0.664,1.431-1.503,1.879
				l-0.584,0.32c-0.768,0.424-0.936,0.864-0.967,1.08h3.054v0.664H22.69c0.04-1.167,0.567-1.791,1.319-2.231l0.744-0.432
				c0.6-0.344,1.031-0.576,1.031-1.311c0-0.448-0.288-1.016-1.111-1.016c-1.063,0-1.111,0.991-1.136,1.383H22.834z"/>
			<path d="M31.607,16.848c0,0.384-0.312,0.679-0.679,0.679c-0.376,0-0.68-0.304-0.68-0.679c0-0.384,0.304-0.68,0.68-0.68
				C31.295,16.168,31.607,16.464,31.607,16.848z"/>
			<path d="M39,15.824c-0.04-0.888-0.776-1.167-1.423-1.167c-0.488,0-1.311,0.136-1.311,1.007c0,0.488,0.344,0.647,0.679,0.728
				l1.639,0.376c0.744,0.176,1.303,0.624,1.303,1.535c0,1.359-1.263,1.735-2.247,1.735c-1.063,0-1.479-0.32-1.735-0.552
				c-0.488-0.439-0.584-0.919-0.584-1.455h0.728c0,1.04,0.848,1.343,1.583,1.343c0.56,0,1.503-0.144,1.503-0.967
				c0-0.6-0.28-0.792-1.223-1.016l-1.175-0.272c-0.376-0.088-1.224-0.352-1.224-1.351c0-0.896,0.584-1.775,1.975-1.775
				c2.007,0,2.207,1.199,2.239,1.831H39z"/>
			<path d="M41.585,19.886h-0.704v-4.182h0.664v0.695h0.016c0.28-0.487,0.647-0.815,1.175-0.815c0.088,0,0.128,0.008,0.184,0.024
				v0.728h-0.264c-0.656,0-1.071,0.512-1.071,1.119V19.886z"/>
			<path d="M46.064,17.111c-0.088-0.56-0.4-0.896-0.992-0.896c-0.871,0-1.151,0.832-1.151,1.575c0,0.72,0.176,1.607,1.144,1.607
				c0.472,0,0.879-0.352,1-0.991h0.68c-0.072,0.664-0.48,1.599-1.703,1.599c-1.175,0-1.871-0.888-1.871-2.095
				c0-1.295,0.624-2.327,2.007-2.327c1.096,0,1.511,0.8,1.567,1.527H46.064z"/>
			<path d="M51.201,15.848h0.583v1.727h1.727v0.583h-1.727v1.727h-0.583v-1.727h-1.735v-0.583h1.735V15.848z"/>
			<path d="M55.617,16.688c0.12,0.008,0.248,0.016,0.368,0.016c0.544,0,1.071-0.216,1.071-0.919c0-0.336-0.2-0.888-1.039-0.888
				c-1,0-1.063,0.815-1.096,1.208h-0.688c0-0.824,0.336-1.839,1.815-1.839c1.087,0,1.735,0.624,1.735,1.479
				c0,0.72-0.416,1.063-0.72,1.159v0.016C57.607,17.095,58,17.479,58,18.23c0,0.92-0.592,1.807-2.023,1.807
				c-0.416,0-0.768-0.104-1.04-0.248c-0.624-0.328-0.792-0.976-0.839-1.624h0.728c0.024,0.528,0.152,1.24,1.199,1.24
				c0.72,0,1.224-0.44,1.224-1.088c0-0.943-0.832-1.031-1.312-1.031c-0.104,0-0.216,0.008-0.32,0.008V16.688z"/>
		</g>
	</g>
	<g>
		<path d="M1.135,19.798h0.864v0.568H0.504v-7.34h1.495v0.568H1.135V19.798z"/>
	</g>
	<g>
		<path d="M171.809,16.895l-4.631,2.327V14.59L171.809,16.895z"/>
		<line class="st0" x1="170.764" y1="16.848" x2="65.036" y2="16.848"/>
	</g>
	<g>
		<rect x="128.876" y="13.455" class="st1" width="17.93" height="7.671"/>
		<g>
			<path d="M132.653,13.144c0.188,0.193,0.417,0.357,0.688,0.492c-0.214,0.198-0.406,0.445-0.578,0.742
				c-0.094,0.177-0.18,0.344-0.258,0.5v4.609c0,0.38,0.021,0.763,0.062,1.148c-0.13-0.021-0.255-0.031-0.375-0.031
				c-0.12,0-0.234,0.01-0.344,0.031c0.042-0.386,0.062-0.769,0.062-1.148v-3.609c-0.026,0.037-0.05,0.07-0.07,0.102
				c-0.245,0.386-0.505,0.805-0.781,1.258c-0.146-0.245-0.3-0.435-0.461-0.57c0.557-0.594,1.016-1.231,1.375-1.914
				C132.234,14.264,132.46,13.728,132.653,13.144z M133.192,14.386c0.286,0.047,0.575,0.07,0.867,0.07h0.531
				c0.104-0.542,0.18-0.979,0.227-1.312c0.167,0.052,0.406,0.091,0.719,0.117c-0.136,0.281-0.255,0.68-0.359,1.195h1.539
				c0.297,0,0.591-0.023,0.883-0.07c-0.021,0.109-0.031,0.214-0.031,0.312c0,0.109,0.01,0.214,0.031,0.312
				c-0.292-0.042-0.586-0.062-0.883-0.062h-1.648c-0.073,0.375-0.148,0.719-0.227,1.031h2.188c0.297,0,0.591-0.018,0.883-0.055
				c-0.021,0.099-0.031,0.203-0.031,0.312c0,0.099,0.01,0.203,0.031,0.312c-0.292-0.042-0.586-0.062-0.883-0.062h-2.312
				c-0.068,0.292-0.138,0.56-0.211,0.805h2.344c0.239,0,0.479-0.018,0.719-0.055c-0.021,0.099-0.031,0.203-0.031,0.312
				c0,0.12,0.01,0.245,0.031,0.375c-0.255,0.078-0.847,0.558-1.773,1.438c0.375,0.229,0.758,0.456,1.148,0.68
				c-0.214,0.203-0.359,0.401-0.438,0.594c-0.88-0.698-1.766-1.268-2.656-1.711c0.167-0.151,0.312-0.32,0.438-0.508
				c0.37,0.245,0.755,0.492,1.156,0.742l1.336-1.391h-1.008c-0.719,0-1.339,0.06-1.859,0.18c-0.021-0.25-0.086-0.469-0.195-0.656
				c0.146-0.062,0.237-0.125,0.273-0.188c0.036-0.078,0.096-0.284,0.18-0.617h-0.547c-0.287,0-0.578,0.021-0.875,0.062
				c0.021-0.109,0.031-0.213,0.031-0.312c0-0.109-0.011-0.213-0.031-0.312c0.297,0.037,0.588,0.055,0.875,0.055h0.656
				c0.01-0.036,0.018-0.073,0.023-0.109c0.067-0.333,0.133-0.641,0.195-0.922h-0.438c-0.292,0-0.581,0.021-0.867,0.062
				c0.021-0.099,0.031-0.203,0.031-0.312C133.224,14.6,133.213,14.496,133.192,14.386z"/>
			<path d="M138.653,15.98c0.422,0.021,0.841,0.031,1.258,0.031c0.167,0,0.331-0.01,0.492-0.031
				c-0.021,0.219-0.031,0.438-0.031,0.656v2.484c0.031,0.016,0.065,0.031,0.102,0.047c0.75,0.401,1.727,0.602,2.93,0.602
				c0.5,0,1.336-0.044,2.508-0.133c-0.109,0.172-0.185,0.391-0.227,0.656h-2.062c-1.339,0-2.391-0.211-3.156-0.633
				c-0.172-0.094-0.297-0.141-0.375-0.141c-0.219,0-0.573,0.299-1.062,0.898c-0.13-0.172-0.294-0.308-0.492-0.406l0.883-0.711
				c0.146-0.109,0.278-0.188,0.398-0.234V16.55c-0.386,0-0.773,0.011-1.164,0.031c0.021-0.109,0.031-0.216,0.031-0.32
				C138.685,16.173,138.674,16.079,138.653,15.98z M139.747,13.55c0.188,0.552,0.43,1.039,0.727,1.461
				c-0.203,0.026-0.422,0.109-0.656,0.25c-0.203-0.609-0.422-1.096-0.656-1.461C139.359,13.753,139.554,13.67,139.747,13.55z
				 M144.06,13.144c0.281,0.156,0.521,0.261,0.719,0.312c-0.24,0.224-0.513,0.628-0.82,1.211h0.695c0.302,0,0.606-0.021,0.914-0.062
				c-0.021,0.12-0.031,0.234-0.031,0.344s0.01,0.214,0.031,0.312c-0.308-0.036-0.612-0.055-0.914-0.055h-1.344v0.945
				c0,0.109-0.005,0.222-0.016,0.336h1.523c0.302,0,0.602-0.023,0.898-0.07c-0.021,0.115-0.031,0.232-0.031,0.352
				c0,0.104,0.01,0.206,0.031,0.305c-0.297-0.042-0.597-0.062-0.898-0.062h-1.594c-0.005,0.037-0.013,0.068-0.023,0.094
				c0.625,0.401,1.349,0.943,2.172,1.625c-0.208,0.188-0.352,0.357-0.43,0.508c-0.5-0.599-1.138-1.125-1.914-1.578
				c-0.115,0.312-0.266,0.578-0.453,0.797c-0.276,0.328-0.716,0.617-1.32,0.867c-0.151-0.192-0.331-0.346-0.539-0.461
				c0.609-0.146,1.06-0.362,1.352-0.648c0.25-0.25,0.442-0.57,0.578-0.961c0.026-0.083,0.049-0.164,0.07-0.242h-1.062
				c-0.297,0-0.599,0.021-0.906,0.062c0.021-0.099,0.031-0.2,0.031-0.305c0-0.12-0.011-0.237-0.031-0.352
				c0.307,0.047,0.609,0.07,0.906,0.07h1.156c0.005-0.088,0.008-0.172,0.008-0.25v-1.031h-0.969c-0.308,0-0.609,0.019-0.906,0.055
				c0.016-0.099,0.023-0.203,0.023-0.312s-0.008-0.224-0.023-0.344c0.297,0.042,0.599,0.062,0.906,0.062h1.664
				C143.768,14.126,143.95,13.618,144.06,13.144z M142.06,13.261c0.188,0.396,0.427,0.74,0.719,1.031
				c-0.183,0.026-0.378,0.102-0.586,0.227c-0.203-0.432-0.422-0.776-0.656-1.031C141.713,13.452,141.888,13.376,142.06,13.261z"/>
		</g>
	</g>
	<g>
		<g>
			<path d="M179.035,14.145h2.327c1.495,0,2.414,1.135,2.414,2.791c0,1.287-0.56,2.95-2.446,2.95h-2.295V14.145z M179.811,19.222
				h1.504c1.007,0,1.663-0.792,1.663-2.239s-0.664-2.175-1.72-2.175h-1.447V19.222z"/>
			<path d="M187.058,16.896c-0.008-0.264-0.104-0.704-0.991-0.704c-0.216,0-0.832,0.072-0.832,0.591c0,0.344,0.216,0.424,0.76,0.56
				l0.703,0.176c0.872,0.216,1.176,0.536,1.176,1.104c0,0.863-0.712,1.383-1.655,1.383c-1.655,0-1.774-0.959-1.799-1.463h0.68
				c0.023,0.328,0.12,0.855,1.111,0.855c0.504,0,0.959-0.2,0.959-0.664c0-0.336-0.231-0.448-0.831-0.6l-0.815-0.2
				c-0.584-0.144-0.968-0.439-0.968-1.015c0-0.919,0.76-1.335,1.583-1.335c1.495,0,1.6,1.104,1.6,1.312H187.058z"/>
			<path d="M189.546,16.288v2.719c0,0.328,0.28,0.328,0.424,0.328h0.248v0.552c-0.256,0.024-0.455,0.056-0.527,0.056
				c-0.695,0-0.848-0.392-0.848-0.896v-2.759h-0.567v-0.583h0.567v-1.167h0.703v1.167h0.672v0.583H189.546z"/>
			<path d="M194.658,15.848h0.584v1.727h1.727v0.583h-1.727v1.727h-0.584v-1.727h-1.735v-0.583h1.735V15.848z"/>
			<path d="M197.635,16.28c0-1.831,1.336-2.015,1.943-2.015c0.976,0,1.759,0.632,1.759,1.679c0,1.007-0.664,1.431-1.503,1.879
				l-0.584,0.32c-0.768,0.424-0.936,0.864-0.968,1.08h3.055v0.664h-3.846c0.04-1.167,0.567-1.791,1.319-2.231l0.743-0.432
				c0.6-0.344,1.031-0.576,1.031-1.311c0-0.448-0.287-1.016-1.111-1.016c-1.063,0-1.111,0.991-1.135,1.383H197.635z"/>
			<path d="M206.409,16.848c0,0.384-0.312,0.679-0.68,0.679c-0.376,0-0.68-0.304-0.68-0.679c0-0.384,0.304-0.68,0.68-0.68
				C206.097,16.168,206.409,16.464,206.409,16.848z"/>
			<path d="M210.379,14.145h2.327c1.495,0,2.414,1.135,2.414,2.791c0,1.287-0.56,2.95-2.446,2.95h-2.295V14.145z M211.154,19.222
				h1.504c1.007,0,1.663-0.792,1.663-2.239s-0.664-2.175-1.72-2.175h-1.447V19.222z"/>
			<path d="M218.402,16.896c-0.008-0.264-0.104-0.704-0.991-0.704c-0.216,0-0.832,0.072-0.832,0.591c0,0.344,0.216,0.424,0.76,0.56
				l0.703,0.176c0.872,0.216,1.176,0.536,1.176,1.104c0,0.863-0.712,1.383-1.655,1.383c-1.655,0-1.774-0.959-1.799-1.463h0.68
				c0.024,0.328,0.12,0.855,1.111,0.855c0.504,0,0.96-0.2,0.96-0.664c0-0.336-0.232-0.448-0.832-0.6l-0.815-0.2
				c-0.584-0.144-0.968-0.439-0.968-1.015c0-0.919,0.76-1.335,1.583-1.335c1.495,0,1.6,1.104,1.6,1.312H218.402z"/>
			<path d="M220.891,16.288v2.719c0,0.328,0.28,0.328,0.424,0.328h0.248v0.552c-0.256,0.024-0.456,0.056-0.527,0.056
				c-0.696,0-0.848-0.392-0.848-0.896v-2.759h-0.567v-0.583h0.567v-1.167h0.703v1.167h0.672v0.583H220.891z"/>
			<path d="M226.002,15.848h0.584v1.727h1.727v0.583h-1.727v1.727h-0.584v-1.727h-1.735v-0.583h1.735V15.848z"/>
			<path d="M230.419,16.688c0.12,0.008,0.248,0.016,0.368,0.016c0.543,0,1.071-0.216,1.071-0.919c0-0.336-0.2-0.888-1.04-0.888
				c-0.999,0-1.063,0.815-1.095,1.208h-0.688c0-0.824,0.335-1.839,1.814-1.839c1.088,0,1.735,0.624,1.735,1.479
				c0,0.72-0.416,1.063-0.72,1.159v0.016c0.544,0.176,0.936,0.56,0.936,1.311c0,0.92-0.592,1.807-2.023,1.807
				c-0.415,0-0.768-0.104-1.039-0.248c-0.624-0.328-0.791-0.976-0.84-1.624h0.728c0.024,0.528,0.152,1.24,1.2,1.24
				c0.719,0,1.223-0.44,1.223-1.088c0-0.943-0.831-1.031-1.311-1.031c-0.104,0-0.217,0.008-0.32,0.008V16.688z"/>
		</g>
	</g>
	<g>
		<path d="M175.715,19.798h0.863v0.568h-1.495v-7.34h1.495v0.568h-0.863V19.798z"/>
	</g>
	<g>
		<path d="M61.208,13.594h-0.864v-0.568h1.496v7.34h-1.496v-0.568h0.864V13.594z"/>
	</g>
	<g>
		<path d="M234.941,13.594h-0.863v-0.568h1.495v7.34h-1.495v-0.568h0.863V13.594z"/>
	</g>
	<g>
		<g>
			<path d="M7.656,42.263c-0.04-0.888-0.776-1.167-1.423-1.167c-0.488,0-1.311,0.136-1.311,1.007c0,0.488,0.344,0.647,0.679,0.728
				l1.639,0.376c0.744,0.176,1.303,0.624,1.303,1.535c0,1.359-1.263,1.735-2.247,1.735c-1.063,0-1.479-0.32-1.735-0.552
				c-0.488-0.439-0.584-0.919-0.584-1.455h0.728c0,1.04,0.848,1.343,1.583,1.343c0.56,0,1.503-0.144,1.503-0.967
				c0-0.6-0.28-0.792-1.223-1.016l-1.175-0.272c-0.376-0.088-1.224-0.352-1.224-1.351c0-0.896,0.584-1.775,1.975-1.775
				c2.007,0,2.207,1.199,2.239,1.831H7.656z"/>
			<path d="M10.241,46.325H9.538v-4.182h0.664v0.695h0.016c0.28-0.487,0.647-0.815,1.175-0.815c0.088,0,0.128,0.008,0.184,0.024
				v0.728h-0.264c-0.656,0-1.071,0.512-1.071,1.119V46.325z"/>
			<path d="M14.72,43.55c-0.088-0.56-0.4-0.896-0.992-0.896c-0.871,0-1.151,0.832-1.151,1.575c0,0.72,0.176,1.607,1.144,1.607
				c0.472,0,0.879-0.352,1-0.991h0.68c-0.072,0.664-0.48,1.599-1.703,1.599c-1.175,0-1.871-0.888-1.871-2.095
				c0-1.295,0.624-2.327,2.007-2.327c1.096,0,1.511,0.8,1.567,1.527H14.72z"/>
			<path d="M19.856,42.287h0.583v1.727h1.727v0.583H20.44v1.727h-0.583v-1.727h-1.735v-0.583h1.735V42.287z"/>
			<path d="M22.834,42.719c0-1.831,1.335-2.015,1.943-2.015c0.975,0,1.759,0.632,1.759,1.679c0,1.007-0.664,1.431-1.503,1.879
				l-0.584,0.32c-0.768,0.424-0.936,0.864-0.967,1.08h3.054v0.664H22.69c0.04-1.167,0.567-1.791,1.319-2.231l0.744-0.432
				c0.6-0.344,1.031-0.576,1.031-1.311c0-0.448-0.288-1.016-1.111-1.016c-1.063,0-1.111,0.991-1.136,1.383H22.834z"/>
			<path d="M29.312,40.464c-0.68,1.279-1.087,2.047-1.087,3.966c0,1.319,0.456,2.295,1.095,3.55h-0.472
				c-0.832-1.248-1.375-2.247-1.375-3.742c0-1.407,0.487-2.542,1.351-3.774H29.312z"/>
			<path d="M33.52,46.325h-0.704V43.75c0-0.728-0.208-1.095-0.896-1.095c-0.4,0-1.104,0.256-1.104,1.391v2.279h-0.704v-4.182h0.664
				v0.592h0.016c0.152-0.224,0.544-0.712,1.264-0.712c0.647,0,1.463,0.264,1.463,1.455V46.325z"/>
			<path d="M36.353,44.47h-1.959v-0.72h1.959V44.47z"/>
			<path d="M37.058,42.719c0-1.831,1.335-2.015,1.943-2.015c0.975,0,1.759,0.632,1.759,1.679c0,1.007-0.664,1.431-1.503,1.879
				l-0.584,0.32c-0.768,0.424-0.936,0.864-0.967,1.08h3.054v0.664h-3.846c0.04-1.167,0.567-1.791,1.319-2.231l0.744-0.432
				c0.6-0.344,1.031-0.576,1.031-1.311c0-0.448-0.288-1.016-1.111-1.016c-1.063,0-1.111,0.991-1.136,1.383H37.058z"/>
			<path d="M41.434,47.98c0.68-1.279,1.087-2.047,1.087-3.966c0-1.319-0.456-2.295-1.095-3.55h0.472
				c0.832,1.248,1.375,2.247,1.375,3.742c0,1.407-0.487,2.542-1.351,3.774H41.434z"/>
			<path d="M48.495,43.287c0,0.384-0.312,0.679-0.679,0.679c-0.376,0-0.68-0.304-0.68-0.679c0-0.384,0.304-0.68,0.68-0.68
				C48.183,42.607,48.495,42.903,48.495,43.287z"/>
			<path d="M55.887,42.263c-0.04-0.888-0.776-1.167-1.423-1.167c-0.488,0-1.311,0.136-1.311,1.007c0,0.488,0.344,0.647,0.679,0.728
				l1.639,0.376c0.744,0.176,1.303,0.624,1.303,1.535c0,1.359-1.263,1.735-2.247,1.735c-1.063,0-1.479-0.32-1.735-0.552
				c-0.488-0.439-0.584-0.919-0.584-1.455h0.728c0,1.04,0.848,1.343,1.583,1.343c0.56,0,1.503-0.144,1.503-0.967
				c0-0.6-0.28-0.792-1.223-1.016l-1.175-0.272c-0.376-0.088-1.224-0.352-1.224-1.351c0-0.896,0.584-1.775,1.975-1.775
				c2.007,0,2.207,1.199,2.239,1.831H55.887z"/>
			<path d="M58.473,46.325h-0.704v-4.182h0.664v0.695h0.016c0.28-0.487,0.647-0.815,1.175-0.815c0.088,0,0.128,0.008,0.184,0.024
				v0.728h-0.264c-0.656,0-1.071,0.512-1.071,1.119V46.325z"/>
			<path d="M62.952,43.55c-0.088-0.56-0.4-0.896-0.992-0.896c-0.871,0-1.151,0.832-1.151,1.575c0,0.72,0.176,1.607,1.144,1.607
				c0.472,0,0.879-0.352,1-0.991h0.68c-0.072,0.664-0.48,1.599-1.703,1.599c-1.175,0-1.871-0.888-1.871-2.095
				c0-1.295,0.624-2.327,2.007-2.327c1.096,0,1.511,0.8,1.567,1.527H62.952z"/>
			<path d="M68.088,42.287h0.583v1.727h1.727v0.583h-1.727v1.727h-0.583v-1.727h-1.735v-0.583h1.735V42.287z"/>
			<path d="M71.065,42.719c0-1.831,1.335-2.015,1.943-2.015c0.975,0,1.759,0.632,1.759,1.679c0,1.007-0.664,1.431-1.503,1.879
				l-0.584,0.32c-0.768,0.424-0.936,0.864-0.967,1.08h3.054v0.664h-3.846c0.04-1.167,0.567-1.791,1.319-2.231l0.744-0.432
				c0.6-0.344,1.031-0.576,1.031-1.311c0-0.448-0.288-1.016-1.111-1.016c-1.063,0-1.111,0.991-1.136,1.383H71.065z"/>
			<path d="M77.544,40.464c-0.68,1.279-1.087,2.047-1.087,3.966c0,1.319,0.456,2.295,1.095,3.55h-0.472
				c-0.832-1.248-1.375-2.247-1.375-3.742c0-1.407,0.488-2.542,1.352-3.774H77.544z"/>
			<path d="M81.751,46.325h-0.704V43.75c0-0.728-0.208-1.095-0.896-1.095c-0.4,0-1.104,0.256-1.104,1.391v2.279h-0.704v-4.182h0.664
				v0.592h0.016c0.152-0.224,0.544-0.712,1.264-0.712c0.647,0,1.463,0.264,1.463,1.455V46.325z"/>
			<path d="M84.584,44.47h-1.959v-0.72h1.959V44.47z"/>
			<path d="M85.289,42.719c0-1.831,1.335-2.015,1.943-2.015c0.975,0,1.759,0.632,1.759,1.679c0,1.007-0.664,1.431-1.503,1.879
				l-0.584,0.32c-0.768,0.424-0.936,0.864-0.967,1.08h3.054v0.664h-3.846c0.04-1.167,0.567-1.791,1.319-2.231l0.743-0.432
				c0.6-0.344,1.032-0.576,1.032-1.311c0-0.448-0.288-1.016-1.111-1.016c-1.063,0-1.111,0.991-1.135,1.383H85.289z"/>
			<path d="M89.665,47.98c0.68-1.279,1.087-2.047,1.087-3.966c0-1.319-0.456-2.295-1.095-3.55h0.472
				c0.832,1.248,1.375,2.247,1.375,3.742c0,1.407-0.487,2.542-1.351,3.774H89.665z"/>
			<path d="M94.096,42.287h0.583v1.727h1.727v0.583H94.68v1.727h-0.583v-1.727h-1.735v-0.583h1.735V42.287z"/>
			<path d="M99.592,46.325H98.84v-3.99h-1.311v-0.56c0.912-0.064,1.287-0.152,1.511-1.072h0.552V46.325z"/>
		</g>
	</g>
	<g>
		<path d="M1.135,46.237h0.864v0.567H0.504v-7.34h1.495v0.568H1.135V46.237z"/>
	</g>
	<g>
		<path d="M171.809,43.9l-4.631,2.327v-4.631L171.809,43.9z"/>
		<line class="st0" x1="170.764" y1="43.854" x2="106.933" y2="43.854"/>
		<line class="st0" x1="170.764" y1="56.893" x2="106.933" y2="56.893"/>
	</g>
	<g>
		<rect x="128.876" y="40.46" class="st1" width="17.93" height="7.671"/>
		<g>
			<path d="M132.653,40.149c0.188,0.193,0.417,0.357,0.688,0.492c-0.214,0.198-0.406,0.445-0.578,0.742
				c-0.094,0.177-0.18,0.344-0.258,0.5v4.609c0,0.38,0.021,0.763,0.062,1.148c-0.13-0.021-0.255-0.031-0.375-0.031
				c-0.12,0-0.234,0.01-0.344,0.031c0.042-0.386,0.062-0.769,0.062-1.148v-3.609c-0.026,0.037-0.05,0.07-0.07,0.102
				c-0.245,0.386-0.505,0.805-0.781,1.258c-0.146-0.245-0.3-0.435-0.461-0.57c0.557-0.594,1.016-1.231,1.375-1.914
				C132.234,41.27,132.46,40.733,132.653,40.149z M133.192,41.392c0.286,0.047,0.575,0.07,0.867,0.07h0.531
				c0.104-0.542,0.18-0.979,0.227-1.312c0.167,0.052,0.406,0.091,0.719,0.117c-0.136,0.281-0.255,0.68-0.359,1.195h1.539
				c0.297,0,0.591-0.023,0.883-0.07c-0.021,0.109-0.031,0.214-0.031,0.312c0,0.109,0.01,0.214,0.031,0.312
				c-0.292-0.042-0.586-0.062-0.883-0.062h-1.648c-0.073,0.375-0.148,0.719-0.227,1.031h2.188c0.297,0,0.591-0.018,0.883-0.055
				c-0.021,0.099-0.031,0.203-0.031,0.312c0,0.099,0.01,0.203,0.031,0.312c-0.292-0.042-0.586-0.062-0.883-0.062h-2.312
				c-0.068,0.292-0.138,0.56-0.211,0.805h2.344c0.239,0,0.479-0.018,0.719-0.055c-0.021,0.099-0.031,0.203-0.031,0.312
				c0,0.12,0.01,0.245,0.031,0.375c-0.255,0.078-0.847,0.558-1.773,1.438c0.375,0.229,0.758,0.456,1.148,0.68
				c-0.214,0.203-0.359,0.401-0.438,0.594c-0.88-0.698-1.766-1.268-2.656-1.711c0.167-0.151,0.312-0.32,0.438-0.508
				c0.37,0.245,0.755,0.492,1.156,0.742l1.336-1.391h-1.008c-0.719,0-1.339,0.06-1.859,0.18c-0.021-0.25-0.086-0.469-0.195-0.656
				c0.146-0.062,0.237-0.125,0.273-0.188c0.036-0.078,0.096-0.284,0.18-0.617h-0.547c-0.287,0-0.578,0.021-0.875,0.062
				c0.021-0.109,0.031-0.213,0.031-0.312c0-0.109-0.011-0.213-0.031-0.312c0.297,0.037,0.588,0.055,0.875,0.055h0.656
				c0.01-0.036,0.018-0.073,0.023-0.109c0.067-0.333,0.133-0.641,0.195-0.922h-0.438c-0.292,0-0.581,0.021-0.867,0.062
				c0.021-0.099,0.031-0.203,0.031-0.312C133.224,41.605,133.213,41.501,133.192,41.392z"/>
			<path d="M138.653,42.985c0.422,0.021,0.841,0.031,1.258,0.031c0.167,0,0.331-0.01,0.492-0.031
				c-0.021,0.219-0.031,0.438-0.031,0.656v2.484c0.031,0.016,0.065,0.031,0.102,0.047c0.75,0.401,1.727,0.602,2.93,0.602
				c0.5,0,1.336-0.044,2.508-0.133c-0.109,0.172-0.185,0.391-0.227,0.656h-2.062c-1.339,0-2.391-0.211-3.156-0.633
				c-0.172-0.094-0.297-0.141-0.375-0.141c-0.219,0-0.573,0.299-1.062,0.898c-0.13-0.172-0.294-0.308-0.492-0.406l0.883-0.711
				c0.146-0.109,0.278-0.188,0.398-0.234v-2.516c-0.386,0-0.773,0.011-1.164,0.031c0.021-0.109,0.031-0.216,0.031-0.32
				C138.685,43.178,138.674,43.084,138.653,42.985z M139.747,40.556c0.188,0.552,0.43,1.039,0.727,1.461
				c-0.203,0.026-0.422,0.109-0.656,0.25c-0.203-0.609-0.422-1.096-0.656-1.461C139.359,40.759,139.554,40.676,139.747,40.556z
				 M144.06,40.149c0.281,0.156,0.521,0.261,0.719,0.312c-0.24,0.224-0.513,0.628-0.82,1.211h0.695c0.302,0,0.606-0.021,0.914-0.062
				c-0.021,0.12-0.031,0.234-0.031,0.344s0.01,0.214,0.031,0.312c-0.308-0.036-0.612-0.055-0.914-0.055h-1.344v0.945
				c0,0.109-0.005,0.222-0.016,0.336h1.523c0.302,0,0.602-0.023,0.898-0.07c-0.021,0.115-0.031,0.232-0.031,0.352
				c0,0.104,0.01,0.206,0.031,0.305c-0.297-0.042-0.597-0.062-0.898-0.062h-1.594c-0.005,0.037-0.013,0.068-0.023,0.094
				c0.625,0.401,1.349,0.943,2.172,1.625c-0.208,0.188-0.352,0.357-0.43,0.508c-0.5-0.599-1.138-1.125-1.914-1.578
				c-0.115,0.312-0.266,0.578-0.453,0.797c-0.276,0.328-0.716,0.617-1.32,0.867c-0.151-0.192-0.331-0.346-0.539-0.461
				c0.609-0.146,1.06-0.362,1.352-0.648c0.25-0.25,0.442-0.57,0.578-0.961c0.026-0.083,0.049-0.164,0.07-0.242h-1.062
				c-0.297,0-0.599,0.021-0.906,0.062c0.021-0.099,0.031-0.2,0.031-0.305c0-0.12-0.011-0.237-0.031-0.352
				c0.307,0.047,0.609,0.07,0.906,0.07h1.156c0.005-0.088,0.008-0.172,0.008-0.25v-1.031h-0.969c-0.308,0-0.609,0.019-0.906,0.055
				c0.016-0.099,0.023-0.203,0.023-0.312s-0.008-0.224-0.023-0.344c0.297,0.042,0.599,0.062,0.906,0.062h1.664
				C143.768,41.131,143.95,40.624,144.06,40.149z M142.06,40.267c0.188,0.396,0.427,0.74,0.719,1.031
				c-0.183,0.026-0.378,0.102-0.586,0.227c-0.203-0.432-0.422-0.776-0.656-1.031C141.713,40.457,141.888,40.381,142.06,40.267z"/>
		</g>
	</g>
	<g>
		<g>
			<path d="M179.035,40.584h2.327c1.495,0,2.414,1.135,2.414,2.791c0,1.287-0.56,2.95-2.446,2.95h-2.295V40.584z M179.811,45.661
				h1.504c1.007,0,1.663-0.792,1.663-2.239s-0.664-2.175-1.72-2.175h-1.447V45.661z"/>
			<path d="M187.058,43.334c-0.008-0.264-0.104-0.704-0.991-0.704c-0.216,0-0.832,0.072-0.832,0.591c0,0.344,0.216,0.424,0.76,0.56
				l0.703,0.176c0.872,0.216,1.176,0.536,1.176,1.104c0,0.863-0.712,1.383-1.655,1.383c-1.655,0-1.774-0.959-1.799-1.463h0.68
				c0.023,0.328,0.12,0.855,1.111,0.855c0.504,0,0.959-0.2,0.959-0.664c0-0.336-0.231-0.448-0.831-0.6l-0.815-0.2
				c-0.584-0.144-0.968-0.439-0.968-1.015c0-0.919,0.76-1.335,1.583-1.335c1.495,0,1.6,1.104,1.6,1.312H187.058z"/>
			<path d="M189.546,42.727v2.719c0,0.328,0.28,0.328,0.424,0.328h0.248v0.552c-0.256,0.024-0.455,0.056-0.527,0.056
				c-0.695,0-0.848-0.392-0.848-0.896v-2.759h-0.567v-0.583h0.567v-1.167h0.703v1.167h0.672v0.583H189.546z"/>
			<path d="M194.658,42.287h0.584v1.727h1.727v0.583h-1.727v1.727h-0.584v-1.727h-1.735v-0.583h1.735V42.287z"/>
			<path d="M197.635,42.719c0-1.831,1.336-2.015,1.943-2.015c0.976,0,1.759,0.632,1.759,1.679c0,1.007-0.664,1.431-1.503,1.879
				l-0.584,0.32c-0.768,0.424-0.936,0.864-0.968,1.08h3.055v0.664h-3.846c0.04-1.167,0.567-1.791,1.319-2.231l0.743-0.432
				c0.6-0.344,1.031-0.576,1.031-1.311c0-0.448-0.287-1.016-1.111-1.016c-1.063,0-1.111,0.991-1.135,1.383H197.635z"/>
			<path d="M204.114,40.464c-0.68,1.279-1.088,2.047-1.088,3.966c0,1.319,0.456,2.295,1.096,3.55h-0.472
				c-0.831-1.248-1.375-2.247-1.375-3.742c0-1.407,0.487-2.542,1.351-3.774H204.114z"/>
			<path d="M208.321,46.325h-0.703V43.75c0-0.728-0.208-1.095-0.896-1.095c-0.4,0-1.104,0.256-1.104,1.391v2.279h-0.704v-4.182
				h0.664v0.592h0.016c0.152-0.224,0.544-0.712,1.264-0.712c0.647,0,1.463,0.264,1.463,1.455V46.325z"/>
			<path d="M211.154,44.47h-1.959v-0.72h1.959V44.47z"/>
			<path d="M211.859,42.719c0-1.831,1.336-2.015,1.943-2.015c0.976,0,1.759,0.632,1.759,1.679c0,1.007-0.664,1.431-1.503,1.879
				l-0.584,0.32c-0.768,0.424-0.936,0.864-0.968,1.08h3.055v0.664h-3.846c0.04-1.167,0.567-1.791,1.319-2.231l0.743-0.432
				c0.6-0.344,1.031-0.576,1.031-1.311c0-0.448-0.287-1.016-1.111-1.016c-1.063,0-1.111,0.991-1.135,1.383H211.859z"/>
			<path d="M216.235,47.98c0.68-1.279,1.087-2.047,1.087-3.966c0-1.319-0.456-2.295-1.096-3.55h0.472
				c0.832,1.248,1.376,2.247,1.376,3.742c0,1.407-0.488,2.542-1.352,3.774H216.235z"/>
			<path d="M223.297,43.287c0,0.384-0.312,0.679-0.68,0.679c-0.376,0-0.68-0.304-0.68-0.679c0-0.384,0.304-0.68,0.68-0.68
				C222.984,42.607,223.297,42.903,223.297,43.287z"/>
			<path d="M227.267,40.584h2.327c1.495,0,2.414,1.135,2.414,2.791c0,1.287-0.56,2.95-2.446,2.95h-2.295V40.584z M228.042,45.661
				h1.504c1.007,0,1.663-0.792,1.663-2.239s-0.664-2.175-1.72-2.175h-1.447V45.661z"/>
			<path d="M235.29,43.334c-0.008-0.264-0.104-0.704-0.991-0.704c-0.216,0-0.832,0.072-0.832,0.591c0,0.344,0.216,0.424,0.76,0.56
				l0.703,0.176c0.872,0.216,1.176,0.536,1.176,1.104c0,0.863-0.712,1.383-1.655,1.383c-1.655,0-1.774-0.959-1.799-1.463h0.68
				c0.023,0.328,0.12,0.855,1.111,0.855c0.504,0,0.959-0.2,0.959-0.664c0-0.336-0.231-0.448-0.831-0.6l-0.815-0.2
				c-0.584-0.144-0.968-0.439-0.968-1.015c0-0.919,0.76-1.335,1.583-1.335c1.495,0,1.6,1.104,1.6,1.312H235.29z"/>
			<path d="M237.778,42.727v2.719c0,0.328,0.28,0.328,0.424,0.328h0.248v0.552c-0.256,0.024-0.455,0.056-0.527,0.056
				c-0.695,0-0.848-0.392-0.848-0.896v-2.759h-0.567v-0.583h0.567v-1.167h0.703v1.167h0.672v0.583H237.778z"/>
			<path d="M242.89,42.287h0.584v1.727h1.727v0.583h-1.727v1.727h-0.584v-1.727h-1.735v-0.583h1.735V42.287z"/>
			<path d="M245.867,42.719c0-1.831,1.336-2.015,1.943-2.015c0.976,0,1.759,0.632,1.759,1.679c0,1.007-0.664,1.431-1.503,1.879
				l-0.584,0.32c-0.768,0.424-0.936,0.864-0.968,1.08h3.055v0.664h-3.846c0.04-1.167,0.567-1.791,1.319-2.231l0.743-0.432
				c0.6-0.344,1.031-0.576,1.031-1.311c0-0.448-0.287-1.016-1.111-1.016c-1.063,0-1.111,0.991-1.135,1.383H245.867z"/>
			<path d="M252.346,40.464c-0.68,1.279-1.088,2.047-1.088,3.966c0,1.319,0.456,2.295,1.096,3.55h-0.472
				c-0.832-1.248-1.375-2.247-1.375-3.742c0-1.407,0.487-2.542,1.351-3.774H252.346z"/>
			<path d="M256.553,46.325h-0.703V43.75c0-0.728-0.208-1.095-0.896-1.095c-0.4,0-1.104,0.256-1.104,1.391v2.279h-0.704v-4.182
				h0.664v0.592h0.016c0.152-0.224,0.544-0.712,1.264-0.712c0.647,0,1.463,0.264,1.463,1.455V46.325z"/>
			<path d="M259.386,44.47h-1.959v-0.72h1.959V44.47z"/>
			<path d="M260.091,42.719c0-1.831,1.336-2.015,1.943-2.015c0.976,0,1.759,0.632,1.759,1.679c0,1.007-0.663,1.431-1.503,1.879
				l-0.584,0.32c-0.768,0.424-0.936,0.864-0.968,1.08h3.055v0.664h-3.846c0.04-1.167,0.567-1.791,1.319-2.231l0.743-0.432
				c0.6-0.344,1.031-0.576,1.031-1.311c0-0.448-0.287-1.016-1.111-1.016c-1.063,0-1.111,0.991-1.135,1.383H260.091z"/>
			<path d="M264.468,47.98c0.68-1.279,1.087-2.047,1.087-3.966c0-1.319-0.456-2.295-1.096-3.55h0.472
				c0.832,1.248,1.376,2.247,1.376,3.742c0,1.407-0.488,2.542-1.352,3.774H264.468z"/>
			<path d="M268.897,42.287h0.584v1.727h1.727v0.583h-1.727v1.727h-0.584v-1.727h-1.735v-0.583h1.735V42.287z"/>
			<path d="M274.394,46.325h-0.751v-3.99h-1.312v-0.56c0.911-0.064,1.287-0.152,1.511-1.072h0.552V46.325z"/>
		</g>
	</g>
	<g>
		<path d="M175.715,46.237h0.863v0.567h-1.495v-7.34h1.495v0.568h-0.863V46.237z"/>
	</g>
	<g>
		<path d="M102.956,40.033h-0.864v-0.568h1.496v7.34h-1.496v-0.568h0.864V40.033z"/>
	</g>
	<g>
		<path d="M277.534,40.033h-0.863v-0.568h1.495v7.34h-1.495v-0.568h0.863V40.033z"/>
	</g>
	<g>
		<g>
			<path d="M7.656,55.812c-0.04-0.887-0.776-1.167-1.423-1.167c-0.488,0-1.311,0.136-1.311,1.007c0,0.488,0.344,0.647,0.679,0.728
				l1.639,0.376c0.744,0.176,1.303,0.624,1.303,1.535c0,1.359-1.263,1.735-2.247,1.735c-1.063,0-1.479-0.32-1.735-0.552
				c-0.488-0.439-0.584-0.919-0.584-1.455h0.728c0,1.04,0.848,1.343,1.583,1.343c0.56,0,1.503-0.144,1.503-0.967
				c0-0.6-0.28-0.792-1.223-1.016l-1.175-0.272c-0.376-0.088-1.224-0.352-1.224-1.351c0-0.896,0.584-1.775,1.975-1.775
				c2.007,0,2.207,1.199,2.239,1.831H7.656z"/>
			<path d="M10.241,59.874H9.538v-4.182h0.664v0.696h0.016c0.28-0.488,0.647-0.816,1.175-0.816c0.088,0,0.128,0.008,0.184,0.024
				v0.728h-0.264c-0.656,0-1.071,0.512-1.071,1.12V59.874z"/>
			<path d="M14.72,57.099c-0.088-0.56-0.4-0.896-0.992-0.896c-0.871,0-1.151,0.832-1.151,1.575c0,0.719,0.176,1.607,1.144,1.607
				c0.472,0,0.879-0.352,1-0.991h0.68c-0.072,0.664-0.48,1.599-1.703,1.599c-1.175,0-1.871-0.888-1.871-2.095
				c0-1.295,0.624-2.327,2.007-2.327c1.096,0,1.511,0.8,1.567,1.527H14.72z"/>
			<path d="M19.856,55.836h0.583v1.727h1.727v0.583H20.44v1.727h-0.583v-1.727h-1.735v-0.583h1.735V55.836z"/>
			<path d="M22.834,56.268c0-1.831,1.335-2.015,1.943-2.015c0.975,0,1.759,0.632,1.759,1.679c0,1.007-0.664,1.431-1.503,1.879
				l-0.584,0.32c-0.768,0.424-0.936,0.864-0.967,1.08h3.054v0.664H22.69c0.04-1.167,0.567-1.791,1.319-2.231l0.744-0.432
				c0.6-0.344,1.031-0.576,1.031-1.311c0-0.448-0.288-1.016-1.111-1.016c-1.063,0-1.111,0.992-1.136,1.383H22.834z"/>
			<path d="M29.312,54.013c-0.68,1.279-1.087,2.047-1.087,3.966c0,1.319,0.456,2.295,1.095,3.55h-0.472
				c-0.832-1.248-1.375-2.247-1.375-3.742c0-1.407,0.487-2.542,1.351-3.774H29.312z"/>
			<path d="M33.52,59.874h-0.704v-2.575c0-0.728-0.208-1.095-0.896-1.095c-0.4,0-1.104,0.256-1.104,1.391v2.279h-0.704v-4.182h0.664
				v0.592h0.016c0.152-0.224,0.544-0.712,1.264-0.712c0.647,0,1.463,0.264,1.463,1.456V59.874z"/>
			<path d="M36.353,58.019h-1.959v-0.72h1.959V58.019z"/>
			<path d="M39.576,59.874h-0.752v-3.99h-1.311v-0.56c0.912-0.064,1.287-0.152,1.511-1.072h0.552V59.874z"/>
			<path d="M41.434,61.529c0.68-1.279,1.087-2.047,1.087-3.966c0-1.319-0.456-2.295-1.095-3.55h0.472
				c0.832,1.248,1.375,2.247,1.375,3.742c0,1.407-0.487,2.542-1.351,3.774H41.434z"/>
			<path d="M48.495,56.835c0,0.384-0.312,0.68-0.679,0.68c-0.376,0-0.68-0.304-0.68-0.68c0-0.384,0.304-0.679,0.68-0.679
				C48.183,56.156,48.495,56.451,48.495,56.835z"/>
			<path d="M55.887,55.812c-0.04-0.887-0.776-1.167-1.423-1.167c-0.488,0-1.311,0.136-1.311,1.007c0,0.488,0.344,0.647,0.679,0.728
				l1.639,0.376c0.744,0.176,1.303,0.624,1.303,1.535c0,1.359-1.263,1.735-2.247,1.735c-1.063,0-1.479-0.32-1.735-0.552
				c-0.488-0.439-0.584-0.919-0.584-1.455h0.728c0,1.04,0.848,1.343,1.583,1.343c0.56,0,1.503-0.144,1.503-0.967
				c0-0.6-0.28-0.792-1.223-1.016l-1.175-0.272c-0.376-0.088-1.224-0.352-1.224-1.351c0-0.896,0.584-1.775,1.975-1.775
				c2.007,0,2.207,1.199,2.239,1.831H55.887z"/>
			<path d="M58.473,59.874h-0.704v-4.182h0.664v0.696h0.016c0.28-0.488,0.647-0.816,1.175-0.816c0.088,0,0.128,0.008,0.184,0.024
				v0.728h-0.264c-0.656,0-1.071,0.512-1.071,1.12V59.874z"/>
			<path d="M62.952,57.099c-0.088-0.56-0.4-0.896-0.992-0.896c-0.871,0-1.151,0.832-1.151,1.575c0,0.719,0.176,1.607,1.144,1.607
				c0.472,0,0.879-0.352,1-0.991h0.68c-0.072,0.664-0.48,1.599-1.703,1.599c-1.175,0-1.871-0.888-1.871-2.095
				c0-1.295,0.624-2.327,2.007-2.327c1.096,0,1.511,0.8,1.567,1.527H62.952z"/>
			<path d="M68.088,55.836h0.583v1.727h1.727v0.583h-1.727v1.727h-0.583v-1.727h-1.735v-0.583h1.735V55.836z"/>
			<path d="M71.065,56.268c0-1.831,1.335-2.015,1.943-2.015c0.975,0,1.759,0.632,1.759,1.679c0,1.007-0.664,1.431-1.503,1.879
				l-0.584,0.32c-0.768,0.424-0.936,0.864-0.967,1.08h3.054v0.664h-3.846c0.04-1.167,0.567-1.791,1.319-2.231l0.744-0.432
				c0.6-0.344,1.031-0.576,1.031-1.311c0-0.448-0.288-1.016-1.111-1.016c-1.063,0-1.111,0.992-1.136,1.383H71.065z"/>
			<path d="M77.544,54.013c-0.68,1.279-1.087,2.047-1.087,3.966c0,1.319,0.456,2.295,1.095,3.55h-0.472
				c-0.832-1.248-1.375-2.247-1.375-3.742c0-1.407,0.488-2.542,1.352-3.774H77.544z"/>
			<path d="M81.751,59.874h-0.704v-2.575c0-0.728-0.208-1.095-0.896-1.095c-0.4,0-1.104,0.256-1.104,1.391v2.279h-0.704v-4.182
				h0.664v0.592h0.016c0.152-0.224,0.544-0.712,1.264-0.712c0.647,0,1.463,0.264,1.463,1.456V59.874z"/>
			<path d="M84.584,58.019h-1.959v-0.72h1.959V58.019z"/>
			<path d="M87.808,59.874h-0.752v-3.99h-1.311v-0.56c0.912-0.064,1.287-0.152,1.511-1.072h0.552V59.874z"/>
			<path d="M89.665,61.529c0.68-1.279,1.087-2.047,1.087-3.966c0-1.319-0.456-2.295-1.095-3.55h0.472
				c0.832,1.248,1.375,2.247,1.375,3.742c0,1.407-0.487,2.542-1.351,3.774H89.665z"/>
			<path d="M94.096,55.836h0.583v1.727h1.727v0.583H94.68v1.727h-0.583v-1.727h-1.735v-0.583h1.735V55.836z"/>
			<path d="M99.592,59.874H98.84v-3.99h-1.311v-0.56c0.912-0.064,1.287-0.152,1.511-1.072h0.552V59.874z"/>
		</g>
	</g>
	<g>
		<path d="M1.135,59.786h0.864v0.567H0.504v-7.34h1.495v0.568H1.135V59.786z"/>
	</g>
	<path d="M171.809,56.883l-4.631,2.327v-4.631L171.809,56.883z"/>
	<g>
		<rect x="128.876" y="53.443" class="st1" width="17.93" height="7.671"/>
		<g>
			<path d="M132.653,53.132c0.188,0.193,0.417,0.357,0.688,0.492c-0.214,0.198-0.406,0.445-0.578,0.742
				c-0.094,0.177-0.18,0.344-0.258,0.5v4.609c0,0.38,0.021,0.763,0.062,1.148c-0.13-0.021-0.255-0.031-0.375-0.031
				c-0.12,0-0.234,0.01-0.344,0.031c0.042-0.386,0.062-0.769,0.062-1.148v-3.609c-0.026,0.037-0.05,0.07-0.07,0.102
				c-0.245,0.386-0.505,0.805-0.781,1.258c-0.146-0.245-0.3-0.435-0.461-0.57c0.557-0.594,1.016-1.231,1.375-1.914
				C132.234,54.252,132.46,53.715,132.653,53.132z M133.192,54.374c0.286,0.047,0.575,0.07,0.867,0.07h0.531
				c0.104-0.542,0.18-0.979,0.227-1.312c0.167,0.052,0.406,0.091,0.719,0.117c-0.136,0.281-0.255,0.68-0.359,1.195h1.539
				c0.297,0,0.591-0.023,0.883-0.07c-0.021,0.109-0.031,0.214-0.031,0.312c0,0.109,0.01,0.214,0.031,0.312
				c-0.292-0.042-0.586-0.062-0.883-0.062h-1.648c-0.073,0.375-0.148,0.719-0.227,1.031h2.188c0.297,0,0.591-0.018,0.883-0.055
				c-0.021,0.099-0.031,0.203-0.031,0.312c0,0.099,0.01,0.203,0.031,0.312c-0.292-0.042-0.586-0.062-0.883-0.062h-2.312
				c-0.068,0.292-0.138,0.56-0.211,0.805h2.344c0.239,0,0.479-0.018,0.719-0.055c-0.021,0.099-0.031,0.203-0.031,0.312
				c0,0.12,0.01,0.245,0.031,0.375c-0.255,0.078-0.847,0.558-1.773,1.438c0.375,0.229,0.758,0.456,1.148,0.68
				c-0.214,0.203-0.359,0.401-0.438,0.594c-0.88-0.698-1.766-1.268-2.656-1.711c0.167-0.151,0.312-0.32,0.438-0.508
				c0.37,0.245,0.755,0.492,1.156,0.742l1.336-1.391h-1.008c-0.719,0-1.339,0.06-1.859,0.18c-0.021-0.25-0.086-0.469-0.195-0.656
				c0.146-0.062,0.237-0.125,0.273-0.188c0.036-0.078,0.096-0.284,0.18-0.617h-0.547c-0.287,0-0.578,0.021-0.875,0.062
				c0.021-0.109,0.031-0.213,0.031-0.312c0-0.109-0.011-0.213-0.031-0.312c0.297,0.037,0.588,0.055,0.875,0.055h0.656
				c0.01-0.036,0.018-0.073,0.023-0.109c0.067-0.333,0.133-0.641,0.195-0.922h-0.438c-0.292,0-0.581,0.021-0.867,0.062
				c0.021-0.099,0.031-0.203,0.031-0.312C133.224,54.588,133.213,54.483,133.192,54.374z"/>
			<path d="M138.653,55.968c0.422,0.021,0.841,0.031,1.258,0.031c0.167,0,0.331-0.01,0.492-0.031
				c-0.021,0.219-0.031,0.438-0.031,0.656v2.484c0.031,0.016,0.065,0.031,0.102,0.047c0.75,0.401,1.727,0.602,2.93,0.602
				c0.5,0,1.336-0.044,2.508-0.133c-0.109,0.172-0.185,0.391-0.227,0.656h-2.062c-1.339,0-2.391-0.211-3.156-0.633
				c-0.172-0.094-0.297-0.141-0.375-0.141c-0.219,0-0.573,0.299-1.062,0.898c-0.13-0.172-0.294-0.308-0.492-0.406l0.883-0.711
				c0.146-0.109,0.278-0.188,0.398-0.234v-2.516c-0.386,0-0.773,0.011-1.164,0.031c0.021-0.109,0.031-0.216,0.031-0.32
				C138.685,56.161,138.674,56.067,138.653,55.968z M139.747,53.538c0.188,0.552,0.43,1.039,0.727,1.461
				c-0.203,0.026-0.422,0.109-0.656,0.25c-0.203-0.609-0.422-1.096-0.656-1.461C139.359,53.741,139.554,53.658,139.747,53.538z
				 M144.06,53.132c0.281,0.156,0.521,0.261,0.719,0.312c-0.24,0.224-0.513,0.628-0.82,1.211h0.695c0.302,0,0.606-0.021,0.914-0.062
				c-0.021,0.12-0.031,0.234-0.031,0.344s0.01,0.214,0.031,0.312c-0.308-0.036-0.612-0.055-0.914-0.055h-1.344v0.945
				c0,0.109-0.005,0.222-0.016,0.336h1.523c0.302,0,0.602-0.023,0.898-0.07c-0.021,0.115-0.031,0.232-0.031,0.352
				c0,0.104,0.01,0.206,0.031,0.305c-0.297-0.042-0.597-0.062-0.898-0.062h-1.594c-0.005,0.037-0.013,0.068-0.023,0.094
				c0.625,0.401,1.349,0.943,2.172,1.625c-0.208,0.188-0.352,0.357-0.43,0.508c-0.5-0.599-1.138-1.125-1.914-1.578
				c-0.115,0.312-0.266,0.578-0.453,0.797c-0.276,0.328-0.716,0.617-1.32,0.867c-0.151-0.192-0.331-0.346-0.539-0.461
				c0.609-0.146,1.06-0.362,1.352-0.648c0.25-0.25,0.442-0.57,0.578-0.961c0.026-0.083,0.049-0.164,0.07-0.242h-1.062
				c-0.297,0-0.599,0.021-0.906,0.062c0.021-0.099,0.031-0.2,0.031-0.305c0-0.12-0.011-0.237-0.031-0.352
				c0.307,0.047,0.609,0.07,0.906,0.07h1.156c0.005-0.088,0.008-0.172,0.008-0.25v-1.031h-0.969c-0.308,0-0.609,0.019-0.906,0.055
				c0.016-0.099,0.023-0.203,0.023-0.312s-0.008-0.224-0.023-0.344c0.297,0.042,0.599,0.062,0.906,0.062h1.664
				C143.768,54.114,143.95,53.606,144.06,53.132z M142.06,53.249c0.188,0.396,0.427,0.74,0.719,1.031
				c-0.183,0.026-0.378,0.102-0.586,0.227c-0.203-0.432-0.422-0.776-0.656-1.031C141.713,53.439,141.888,53.364,142.06,53.249z"/>
		</g>
	</g>
	<g>
		<g>
			<path d="M179.035,54.133h2.327c1.495,0,2.414,1.135,2.414,2.791c0,1.287-0.56,2.95-2.446,2.95h-2.295V54.133z M179.811,59.21
				h1.504c1.007,0,1.663-0.792,1.663-2.239s-0.664-2.175-1.72-2.175h-1.447V59.21z"/>
			<path d="M187.058,56.883c-0.008-0.264-0.104-0.704-0.991-0.704c-0.216,0-0.832,0.072-0.832,0.592c0,0.344,0.216,0.423,0.76,0.56
				l0.703,0.176c0.872,0.216,1.176,0.536,1.176,1.104c0,0.863-0.712,1.383-1.655,1.383c-1.655,0-1.774-0.959-1.799-1.463h0.68
				c0.023,0.328,0.12,0.855,1.111,0.855c0.504,0,0.959-0.2,0.959-0.664c0-0.336-0.231-0.448-0.831-0.6l-0.815-0.2
				c-0.584-0.144-0.968-0.44-0.968-1.016c0-0.919,0.76-1.335,1.583-1.335c1.495,0,1.6,1.104,1.6,1.312H187.058z"/>
			<path d="M189.546,56.275v2.719c0,0.328,0.28,0.328,0.424,0.328h0.248v0.552c-0.256,0.024-0.455,0.056-0.527,0.056
				c-0.695,0-0.848-0.392-0.848-0.896v-2.759h-0.567v-0.583h0.567v-1.167h0.703v1.167h0.672v0.583H189.546z"/>
			<path d="M194.658,55.836h0.584v1.727h1.727v0.583h-1.727v1.727h-0.584v-1.727h-1.735v-0.583h1.735V55.836z"/>
			<path d="M197.635,56.268c0-1.831,1.336-2.015,1.943-2.015c0.976,0,1.759,0.632,1.759,1.679c0,1.007-0.664,1.431-1.503,1.879
				l-0.584,0.32c-0.768,0.424-0.936,0.864-0.968,1.08h3.055v0.664h-3.846c0.04-1.167,0.567-1.791,1.319-2.231l0.743-0.432
				c0.6-0.344,1.031-0.576,1.031-1.311c0-0.448-0.287-1.016-1.111-1.016c-1.063,0-1.111,0.992-1.135,1.383H197.635z"/>
			<path d="M204.114,54.013c-0.68,1.279-1.088,2.047-1.088,3.966c0,1.319,0.456,2.295,1.096,3.55h-0.472
				c-0.831-1.248-1.375-2.247-1.375-3.742c0-1.407,0.487-2.542,1.351-3.774H204.114z"/>
			<path d="M208.321,59.874h-0.703v-2.575c0-0.728-0.208-1.095-0.896-1.095c-0.4,0-1.104,0.256-1.104,1.391v2.279h-0.704v-4.182
				h0.664v0.592h0.016c0.152-0.224,0.544-0.712,1.264-0.712c0.647,0,1.463,0.264,1.463,1.456V59.874z"/>
			<path d="M211.154,58.019h-1.959v-0.72h1.959V58.019z"/>
			<path d="M214.378,59.874h-0.751v-3.99h-1.312v-0.56c0.911-0.064,1.287-0.152,1.511-1.072h0.552V59.874z"/>
			<path d="M216.235,61.529c0.68-1.279,1.087-2.047,1.087-3.966c0-1.319-0.456-2.295-1.096-3.55h0.472
				c0.832,1.248,1.376,2.247,1.376,3.742c0,1.407-0.488,2.542-1.352,3.774H216.235z"/>
			<path d="M223.297,56.835c0,0.384-0.312,0.68-0.68,0.68c-0.376,0-0.68-0.304-0.68-0.68c0-0.384,0.304-0.679,0.68-0.679
				C222.984,56.156,223.297,56.451,223.297,56.835z"/>
			<path d="M227.267,54.133h2.327c1.495,0,2.414,1.135,2.414,2.791c0,1.287-0.56,2.95-2.446,2.95h-2.295V54.133z M228.042,59.21
				h1.504c1.007,0,1.663-0.792,1.663-2.239s-0.664-2.175-1.72-2.175h-1.447V59.21z"/>
			<path d="M235.29,56.883c-0.008-0.264-0.104-0.704-0.991-0.704c-0.216,0-0.832,0.072-0.832,0.592c0,0.344,0.216,0.423,0.76,0.56
				l0.703,0.176c0.872,0.216,1.176,0.536,1.176,1.104c0,0.863-0.712,1.383-1.655,1.383c-1.655,0-1.774-0.959-1.799-1.463h0.68
				c0.023,0.328,0.12,0.855,1.111,0.855c0.504,0,0.959-0.2,0.959-0.664c0-0.336-0.231-0.448-0.831-0.6l-0.815-0.2
				c-0.584-0.144-0.968-0.44-0.968-1.016c0-0.919,0.76-1.335,1.583-1.335c1.495,0,1.6,1.104,1.6,1.312H235.29z"/>
			<path d="M237.778,56.275v2.719c0,0.328,0.28,0.328,0.424,0.328h0.248v0.552c-0.256,0.024-0.455,0.056-0.527,0.056
				c-0.695,0-0.848-0.392-0.848-0.896v-2.759h-0.567v-0.583h0.567v-1.167h0.703v1.167h0.672v0.583H237.778z"/>
			<path d="M242.89,55.836h0.584v1.727h1.727v0.583h-1.727v1.727h-0.584v-1.727h-1.735v-0.583h1.735V55.836z"/>
			<path d="M245.867,56.268c0-1.831,1.336-2.015,1.943-2.015c0.976,0,1.759,0.632,1.759,1.679c0,1.007-0.664,1.431-1.503,1.879
				l-0.584,0.32c-0.768,0.424-0.936,0.864-0.968,1.08h3.055v0.664h-3.846c0.04-1.167,0.567-1.791,1.319-2.231l0.743-0.432
				c0.6-0.344,1.031-0.576,1.031-1.311c0-0.448-0.287-1.016-1.111-1.016c-1.063,0-1.111,0.992-1.135,1.383H245.867z"/>
			<path d="M252.346,54.013c-0.68,1.279-1.088,2.047-1.088,3.966c0,1.319,0.456,2.295,1.096,3.55h-0.472
				c-0.832-1.248-1.375-2.247-1.375-3.742c0-1.407,0.487-2.542,1.351-3.774H252.346z"/>
			<path d="M256.553,59.874h-0.703v-2.575c0-0.728-0.208-1.095-0.896-1.095c-0.4,0-1.104,0.256-1.104,1.391v2.279h-0.704v-4.182
				h0.664v0.592h0.016c0.152-0.224,0.544-0.712,1.264-0.712c0.647,0,1.463,0.264,1.463,1.456V59.874z"/>
			<path d="M259.386,58.019h-1.959v-0.72h1.959V58.019z"/>
			<path d="M262.609,59.874h-0.751v-3.99h-1.312v-0.56c0.911-0.064,1.287-0.152,1.511-1.072h0.552V59.874z"/>
			<path d="M264.468,61.529c0.68-1.279,1.087-2.047,1.087-3.966c0-1.319-0.456-2.295-1.096-3.55h0.472
				c0.832,1.248,1.376,2.247,1.376,3.742c0,1.407-0.488,2.542-1.352,3.774H264.468z"/>
			<path d="M268.897,55.836h0.584v1.727h1.727v0.583h-1.727v1.727h-0.584v-1.727h-1.735v-0.583h1.735V55.836z"/>
			<path d="M274.394,59.874h-0.751v-3.99h-1.312v-0.56c0.911-0.064,1.287-0.152,1.511-1.072h0.552V59.874z"/>
		</g>
	</g>
	<g>
		<path d="M175.715,59.786h0.863v0.567h-1.495v-7.34h1.495v0.568h-0.863V59.786z"/>
	</g>
	<g>
		<path d="M102.956,53.582h-0.864v-0.568h1.496v7.34h-1.496v-0.567h0.864V53.582z"/>
	</g>
	<g>
		<path d="M277.534,53.582h-0.863v-0.568h1.495v7.34h-1.495v-0.567h0.863V53.582z"/>
	</g>
</g>
</svg>
