<?xml version="1.0" encoding="utf-8"?>
<!-- Generator: Adobe Illustrator 28.2.0, SVG Export Plug-In . SVG Version: 6.00 Build 0)  -->
<svg version="1.1" id="儗僀儎乕_1" xmlns="http://www.w3.org/2000/svg" xmlns:xlink="http://www.w3.org/1999/xlink" x="0px"
	 y="0px" width="273.835px" height="37.314px" viewBox="0 0 273.835 37.314" style="enable-background:new 0 0 273.835 37.314;"
	 xml:space="preserve">
<style type="text/css">
	.st0{fill:none;stroke:#000000;}
	.st1{fill:#FFFFFF;}
	.st2{fill:#FFFFFF;stroke:#000000;}
</style>
<line class="st0" x1="273.335" y1="17.717" x2="0.5" y2="17.717"/>
<line class="st0" x1="0.5" y1="0" x2="0.5" y2="37.314"/>
<line class="st0" x1="273.335" y1="37.314" x2="273.335" y2="0"/>
<g>
	<rect x="18.217" y="14.173" class="st1" width="7.087" height="7.087"/>
	<line class="st0" x1="25.303" y1="14.173" x2="25.303" y2="21.26"/>
	<line class="st0" x1="18.217" y1="21.26" x2="18.217" y2="14.173"/>
</g>
<g>
	<path d="M230.33,3.35h2.327c1.495,0,2.414,1.135,2.414,2.791c0,1.287-0.56,2.95-2.446,2.95h-2.295V3.35z M231.106,8.427h1.504
		c1.007,0,1.663-0.792,1.663-2.239s-0.664-2.175-1.72-2.175h-1.447V8.427z"/>
	<path d="M240.792,9.091v-3.39c0-0.168,0.016-0.896,0.016-1.431h-0.016l-1.615,4.821h-0.768l-1.615-4.813h-0.016
		c0,0.528,0.016,1.255,0.016,1.423v3.39h-0.751V3.35h1.111l1.639,4.853h0.017l1.631-4.853h1.104v5.741H240.792z"/>
	<path d="M244.345,9.243c-1.615,0-1.927-1.719-1.927-2.886c0-1.167,0.312-2.887,1.927-2.887s1.927,1.719,1.927,2.887
		C246.272,7.523,245.96,9.243,244.345,9.243z M244.345,4.101c-0.808,0-1.175,0.848-1.175,2.255s0.367,2.255,1.175,2.255
		s1.176-0.848,1.176-2.255S245.153,4.101,244.345,4.101z"/>
</g>
<g>
	<path d="M11.726,7.325c-0.216-1.007-1.056-1.191-1.607-1.191c-1.04,0-1.879,0.768-1.879,2.279c0,1.351,0.479,2.391,1.903,2.391
		c0.504,0,1.375-0.24,1.639-1.575h0.751c-0.32,2.167-2.079,2.263-2.51,2.263c-1.304,0-2.583-0.848-2.583-3.054
		c0-1.767,1.008-2.99,2.679-2.99c1.479,0,2.247,0.919,2.359,1.879H11.726z"/>
	<path d="M14.343,11.338h-0.775V5.598h2.654c0.944,0,1.887,0.328,1.887,1.543c0,0.848-0.432,1.159-0.799,1.375
		c0.328,0.136,0.655,0.28,0.688,1.079l0.048,1.04c0.008,0.32,0.048,0.44,0.288,0.576v0.128h-0.952
		c-0.112-0.352-0.136-1.223-0.136-1.439c0-0.472-0.096-1.023-1.023-1.023h-1.879V11.338z M14.343,8.212h1.799
		c0.567,0,1.167-0.144,1.167-0.991c0-0.888-0.648-0.959-1.032-0.959h-1.935V8.212z"/>
	<path d="M18.991,7.732c0-1.831,1.335-2.015,1.943-2.015c0.975,0,1.759,0.632,1.759,1.679c0,1.007-0.664,1.431-1.503,1.879
		l-0.584,0.32c-0.768,0.424-0.936,0.864-0.967,1.08h3.054v0.664h-3.846c0.04-1.167,0.567-1.791,1.319-2.231l0.743-0.432
		c0.6-0.344,1.032-0.576,1.032-1.311c0-0.448-0.288-1.016-1.111-1.016c-1.063,0-1.111,0.992-1.135,1.383H18.991z"/>
	<path d="M25.311,11.49c-1.615,0-1.927-1.719-1.927-2.886s0.312-2.887,1.927-2.887s1.927,1.719,1.927,2.887
		S26.926,11.49,25.311,11.49z M25.311,6.349c-0.808,0-1.175,0.848-1.175,2.255s0.368,2.254,1.175,2.254s1.175-0.847,1.175-2.254
		S26.118,6.349,25.311,6.349z"/>
	<path d="M29.759,11.49c-1.615,0-1.927-1.719-1.927-2.886s0.312-2.887,1.927-2.887c1.615,0,1.927,1.719,1.927,2.887
		S31.374,11.49,29.759,11.49z M29.759,6.349c-0.808,0-1.175,0.848-1.175,2.255s0.368,2.254,1.175,2.254s1.175-0.847,1.175-2.254
		S30.566,6.349,29.759,6.349z"/>
	<path d="M32.335,7.732c0-1.831,1.335-2.015,1.943-2.015c0.975,0,1.759,0.632,1.759,1.679c0,1.007-0.664,1.431-1.503,1.879
		l-0.584,0.32c-0.768,0.424-0.936,0.864-0.967,1.08h3.054v0.664h-3.846c0.04-1.167,0.567-1.791,1.319-2.231l0.743-0.432
		c0.6-0.344,1.032-0.576,1.032-1.311c0-0.448-0.288-1.016-1.111-1.016c-1.063,0-1.111,0.992-1.135,1.383H32.335z"/>
</g>
<g>
	<path d="M235.657,15.419h2.526c1.071,0,1.623,0.664,1.623,1.447c0,0.375-0.136,0.903-0.768,1.199
		c0.376,0.152,1.04,0.416,1.04,1.399c0,0.92-0.68,1.695-1.951,1.695h-2.471V15.419z M236.433,17.85h1.399
		c0.743,0,1.199-0.224,1.199-0.928c0-0.536-0.328-0.839-1.191-0.839h-1.407V17.85z M236.433,20.496h1.655
		c0.808,0,1.215-0.408,1.215-1.047c0-0.808-0.711-0.968-1.343-0.968h-1.527V20.496z"/>
</g>
<g>
	<path d="M223.879,26.609h2.327c1.495,0,2.414,1.135,2.414,2.791c0,1.287-0.56,2.95-2.446,2.95h-2.295V26.609z M224.655,31.686
		h1.504c1.007,0,1.663-0.792,1.663-2.239s-0.664-2.175-1.72-2.175h-1.447V31.686z"/>
	<path d="M234.341,32.35v-3.39c0-0.168,0.016-0.896,0.016-1.431h-0.016l-1.615,4.821h-0.768l-1.615-4.813h-0.016
		c0,0.528,0.016,1.255,0.016,1.423v3.39h-0.751v-5.741h1.111l1.639,4.853h0.017l1.631-4.853h1.104v5.741H234.341z"/>
	<path d="M238.541,32.35h-0.751v-3.99h-1.312v-0.56c0.911-0.064,1.287-0.152,1.511-1.072h0.552V32.35z"/>
	<path d="M241.903,32.502c-1.615,0-1.927-1.719-1.927-2.886c0-1.167,0.312-2.887,1.927-2.887s1.927,1.719,1.927,2.887
		C243.829,30.783,243.518,32.502,241.903,32.502z M241.903,27.361c-0.808,0-1.175,0.848-1.175,2.255s0.367,2.255,1.175,2.255
		s1.176-0.848,1.176-2.255S242.71,27.361,241.903,27.361z"/>
	<path d="M246.35,32.502c-1.615,0-1.927-1.719-1.927-2.886c0-1.167,0.312-2.887,1.927-2.887s1.927,1.719,1.927,2.887
		C248.277,30.783,247.965,32.502,246.35,32.502z M246.35,27.361c-0.808,0-1.175,0.848-1.175,2.255s0.367,2.255,1.175,2.255
		s1.176-0.848,1.176-2.255S247.157,27.361,246.35,27.361z"/>
	<path d="M250.798,32.502c-1.615,0-1.927-1.719-1.927-2.886c0-1.167,0.312-2.887,1.927-2.887s1.927,1.719,1.927,2.887
		C252.725,30.783,252.413,32.502,250.798,32.502z M250.798,27.361c-0.808,0-1.175,0.848-1.175,2.255s0.367,2.255,1.175,2.255
		s1.176-0.848,1.176-2.255S251.606,27.361,250.798,27.361z"/>
</g>
<g>
	<path class="st2" d="M244.389,12.801h-12.664c-2.797,0-5.052,2.261-5.052,5.05c0,2.789,2.256,5.05,5.052,5.05h12.664
		c2.799,0,5.051-2.261,5.051-5.05C249.44,15.062,247.188,12.801,244.389,12.801z"/>
	<g>
		<path d="M235.98,15.39h2.526c1.071,0,1.623,0.664,1.623,1.447c0,0.375-0.136,0.903-0.768,1.199c0.376,0.152,1.04,0.416,1.04,1.399
			c0,0.92-0.68,1.695-1.951,1.695h-2.471V15.39z M236.755,17.821h1.399c0.743,0,1.199-0.224,1.199-0.928
			c0-0.536-0.328-0.839-1.191-0.839h-1.407V17.821z M236.755,20.467h1.655c0.808,0,1.215-0.408,1.215-1.047
			c0-0.808-0.711-0.968-1.343-0.968h-1.527V20.467z"/>
	</g>
</g>
</svg>
