<?xml version="1.0" encoding="utf-8"?>
<!-- Generator: Adobe Illustrator 28.4.1, SVG Export Plug-In . SVG Version: 6.00 Build 0)  -->
<svg version="1.1" id="图层_1" xmlns="http://www.w3.org/2000/svg" xmlns:xlink="http://www.w3.org/1999/xlink" x="0px" y="0px"
	 width="365.621px" height="114.209px" viewBox="0 0 365.621 114.209" style="enable-background:new 0 0 365.621 114.209;"
	 xml:space="preserve">
<style type="text/css">
	.st0{fill:#DBDCDC;}
	.st1{fill:none;stroke:#000000;stroke-width:0.5;}
	.st2{fill:#FFFFFF;stroke:#000000;stroke-width:0.5;stroke-dasharray:1;}
	.st3{fill:#231815;}
	.st4{fill:none;stroke:#231815;stroke-width:0.5;}
	.st5{fill:none;stroke:#231815;}
	.st6{fill:none;stroke:#000000;stroke-width:0.75;}
</style>
<rect x="226.157" y="12.049" class="st0" width="10.63" height="17.717"/>
<rect x="183.637" y="12.049" class="st1" width="180.709" height="17.716"/>
<line class="st2" x1="194.267" y1="29.765" x2="194.267" y2="12.049"/>
<line class="st2" x1="204.896" y1="29.765" x2="204.896" y2="12.049"/>
<line class="st2" x1="215.526" y1="29.765" x2="215.526" y2="12.049"/>
<line class="st2" x1="226.156" y1="29.765" x2="226.156" y2="12.049"/>
<line class="st2" x1="236.786" y1="29.765" x2="236.786" y2="12.049"/>
<line class="st2" x1="247.416" y1="29.765" x2="247.416" y2="12.049"/>
<line class="st2" x1="258.046" y1="29.765" x2="258.046" y2="12.049"/>
<line class="st2" x1="268.676" y1="29.765" x2="268.676" y2="12.049"/>
<line class="st2" x1="279.306" y1="29.765" x2="279.306" y2="12.049"/>
<line class="st2" x1="289.936" y1="29.765" x2="289.936" y2="12.049"/>
<line class="st2" x1="300.566" y1="29.765" x2="300.566" y2="12.049"/>
<line class="st2" x1="311.196" y1="29.765" x2="311.196" y2="12.049"/>
<line class="st2" x1="321.826" y1="29.765" x2="321.826" y2="12.049"/>
<line class="st2" x1="332.456" y1="29.765" x2="332.456" y2="12.049"/>
<line class="st2" x1="343.086" y1="29.765" x2="343.086" y2="12.049"/>
<line class="st2" x1="353.715" y1="29.765" x2="353.715" y2="12.049"/>
<g>
	<path class="st3" d="M217.905,49.745h2.526c1.071,0,1.623,0.664,1.623,1.447c0,0.375-0.136,0.903-0.768,1.199
		c0.376,0.152,1.04,0.416,1.04,1.399c0,0.919-0.68,1.695-1.951,1.695h-2.471V49.745z M218.68,52.176h1.399
		c0.743,0,1.199-0.224,1.199-0.928c0-0.536-0.328-0.839-1.191-0.839h-1.407V52.176z M218.68,54.822h1.655
		c0.808,0,1.215-0.408,1.215-1.047c0-0.808-0.711-0.968-1.343-0.968h-1.527V54.822z"/>
	<path class="st3" d="M223.185,50.544v-0.799h0.703v0.799H223.185z M223.888,55.486h-0.703v-4.182h0.703V55.486z"/>
	<path class="st3" d="M225.808,51.888v2.719c0,0.328,0.28,0.328,0.424,0.328h0.248v0.552c-0.256,0.024-0.455,0.056-0.527,0.056
		c-0.695,0-0.848-0.392-0.848-0.896v-2.759h-0.567v-0.583h0.567v-1.167h0.703v1.167h0.672v0.583H225.808z"/>
	<path d="M233.287,49.745h0.751v5.741h-0.871l-2.919-4.637h-0.016v4.637h-0.752v-5.741h0.92l2.87,4.637h0.017V49.745z"/>
	<path d="M237.895,55.486v-0.608l-0.016-0.016c-0.296,0.488-0.656,0.744-1.327,0.744c-0.616,0-1.359-0.296-1.359-1.295v-3.006h0.703
		v2.774c0,0.688,0.352,0.919,0.808,0.919c0.888,0,1.151-0.784,1.151-1.391v-2.303h0.704v4.182H237.895z"/>
	<path d="M239.617,51.304h0.664v0.592h0.016c0.152-0.224,0.512-0.712,1.264-0.712c0.751,0,0.991,0.456,1.111,0.68
		c0.352-0.392,0.632-0.68,1.279-0.68c0.447,0,1.295,0.232,1.295,1.407v2.895h-0.703v-2.703c0-0.576-0.176-0.967-0.775-0.967
		c-0.592,0-0.984,0.56-0.984,1.119v2.551h-0.703v-2.895c0-0.352-0.136-0.775-0.655-0.775c-0.4,0-1.104,0.256-1.104,1.391v2.279
		h-0.704V51.304z"/>
</g>
<g>
	<path d="M268.659,1.348h2.327c1.495,0,2.414,1.135,2.414,2.791c0,1.287-0.56,2.95-2.446,2.95h-2.295V1.348z M269.434,6.425h1.504
		c1.007,0,1.663-0.792,1.663-2.239s-0.664-2.175-1.72-2.175h-1.447V6.425z"/>
	<path d="M276.681,4.099c-0.008-0.264-0.104-0.704-0.991-0.704c-0.216,0-0.832,0.072-0.832,0.592c0,0.344,0.216,0.423,0.76,0.56
		l0.703,0.176c0.872,0.216,1.176,0.536,1.176,1.104c0,0.863-0.712,1.383-1.655,1.383c-1.655,0-1.774-0.959-1.799-1.463h0.68
		c0.023,0.328,0.12,0.855,1.111,0.855c0.504,0,0.959-0.2,0.959-0.664c0-0.336-0.231-0.448-0.831-0.6l-0.815-0.2
		c-0.584-0.144-0.968-0.44-0.968-1.016c0-0.919,0.76-1.335,1.583-1.335c1.495,0,1.6,1.104,1.6,1.312H276.681z"/>
	<path d="M279.169,3.491v2.719c0,0.328,0.28,0.328,0.424,0.328h0.248v0.552c-0.256,0.024-0.455,0.056-0.527,0.056
		c-0.695,0-0.848-0.392-0.848-0.896V3.491h-0.567V2.907h0.567V1.74h0.703v1.167h0.672v0.583H279.169z"/>
</g>
<path class="st3" d="M231.537,31.126l3.322,6.617h-6.614L231.537,31.126z"/>
<polyline class="st4" points="188.617,99.078 188.617,110.102 197.462,110.102 "/>
<line class="st5" x1="231.537" y1="32.617" x2="231.537" y2="45.921"/>
<g>
	<path class="st3" d="M188.993,24.871c-1.819,0-2.17-1.936-2.17-3.25c0-1.314,0.351-3.25,2.17-3.25c1.818,0,2.169,1.936,2.169,3.25
		C191.162,22.936,190.811,24.871,188.993,24.871z M188.993,19.083c-0.91,0-1.324,0.954-1.324,2.539s0.414,2.539,1.324,2.539
		c0.909,0,1.323-0.955,1.323-2.539S189.902,19.083,188.993,19.083z"/>
</g>
<g>
	<path class="st3" d="M199.618,24.871c-1.818,0-2.17-1.936-2.17-3.25c0-1.314,0.352-3.25,2.17-3.25s2.17,1.936,2.17,3.25
		C201.788,22.936,201.436,24.871,199.618,24.871z M199.618,19.083c-0.909,0-1.323,0.954-1.323,2.539s0.414,2.539,1.323,2.539
		s1.323-0.955,1.323-2.539S200.527,19.083,199.618,19.083z"/>
</g>
<g>
	<path class="st3" d="M210.243,24.871c-1.818,0-2.17-1.936-2.17-3.25c0-1.314,0.352-3.25,2.17-3.25s2.17,1.936,2.17,3.25
		C212.413,22.936,212.061,24.871,210.243,24.871z M210.243,19.083c-0.909,0-1.323,0.954-1.323,2.539s0.414,2.539,1.323,2.539
		s1.323-0.955,1.323-2.539S211.152,19.083,210.243,19.083z"/>
</g>
<g>
	<path class="st3" d="M220.868,24.871c-1.818,0-2.17-1.936-2.17-3.25c0-1.314,0.352-3.25,2.17-3.25s2.17,1.936,2.17,3.25
		C223.038,22.936,222.686,24.871,220.868,24.871z M220.868,19.083c-0.909,0-1.323,0.954-1.323,2.539s0.414,2.539,1.323,2.539
		s1.323-0.955,1.323-2.539S221.777,19.083,220.868,19.083z"/>
</g>
<g>
	<path class="st3" d="M232.222,24.7h-0.847v-4.492h-1.477v-0.63c1.026-0.072,1.449-0.171,1.701-1.207h0.622V24.7z"/>
</g>
<g>
	<path class="st3" d="M242.118,24.871c-1.818,0-2.17-1.936-2.17-3.25c0-1.314,0.352-3.25,2.17-3.25s2.17,1.936,2.17,3.25
		C244.288,22.936,243.936,24.871,242.118,24.871z M242.118,19.083c-0.909,0-1.323,0.954-1.323,2.539s0.414,2.539,1.323,2.539
		s1.323-0.955,1.323-2.539S243.027,19.083,242.118,19.083z"/>
</g>
<g>
	<path class="st3" d="M252.743,24.871c-1.818,0-2.17-1.936-2.17-3.25c0-1.314,0.352-3.25,2.17-3.25s2.17,1.936,2.17,3.25
		C254.913,22.936,254.561,24.871,252.743,24.871z M252.743,19.083c-0.909,0-1.323,0.954-1.323,2.539s0.414,2.539,1.323,2.539
		s1.323-0.955,1.323-2.539S253.652,19.083,252.743,19.083z"/>
</g>
<g>
	<path class="st3" d="M263.368,24.871c-1.818,0-2.17-1.936-2.17-3.25c0-1.314,0.352-3.25,2.17-3.25s2.17,1.936,2.17,3.25
		C265.538,22.936,265.186,24.871,263.368,24.871z M263.368,19.083c-0.909,0-1.323,0.954-1.323,2.539s0.414,2.539,1.323,2.539
		s1.323-0.955,1.323-2.539S264.277,19.083,263.368,19.083z"/>
</g>
<g>
	<path class="st3" d="M284.618,24.871c-1.818,0-2.17-1.936-2.17-3.25c0-1.314,0.352-3.25,2.17-3.25s2.17,1.936,2.17,3.25
		C286.788,22.936,286.436,24.871,284.618,24.871z M284.618,19.083c-0.909,0-1.323,0.954-1.323,2.539s0.414,2.539,1.323,2.539
		s1.323-0.955,1.323-2.539S285.527,19.083,284.618,19.083z"/>
</g>
<g>
	<path class="st3" d="M295.243,24.871c-1.818,0-2.17-1.936-2.17-3.25c0-1.314,0.352-3.25,2.17-3.25s2.17,1.936,2.17,3.25
		C297.413,22.936,297.061,24.871,295.243,24.871z M295.243,19.083c-0.909,0-1.323,0.954-1.323,2.539s0.414,2.539,1.323,2.539
		s1.323-0.955,1.323-2.539S296.152,19.083,295.243,19.083z"/>
</g>
<g>
	<path class="st3" d="M305.868,24.871c-1.818,0-2.17-1.936-2.17-3.25c0-1.314,0.352-3.25,2.17-3.25s2.17,1.936,2.17,3.25
		C308.038,22.936,307.686,24.871,305.868,24.871z M305.868,19.083c-0.909,0-1.323,0.954-1.323,2.539s0.414,2.539,1.323,2.539
		s1.323-0.955,1.323-2.539S306.777,19.083,305.868,19.083z"/>
</g>
<g>
	<path class="st3" d="M316.493,24.871c-1.818,0-2.17-1.936-2.17-3.25c0-1.314,0.352-3.25,2.17-3.25s2.17,1.936,2.17,3.25
		C318.663,22.936,318.311,24.871,316.493,24.871z M316.493,19.083c-0.909,0-1.323,0.954-1.323,2.539s0.414,2.539,1.323,2.539
		s1.323-0.955,1.323-2.539S317.402,19.083,316.493,19.083z"/>
</g>
<g>
	<path class="st3" d="M327.118,24.871c-1.818,0-2.17-1.936-2.17-3.25c0-1.314,0.352-3.25,2.17-3.25s2.17,1.936,2.17,3.25
		C329.288,22.936,328.936,24.871,327.118,24.871z M327.118,19.083c-0.909,0-1.323,0.954-1.323,2.539s0.414,2.539,1.323,2.539
		s1.323-0.955,1.323-2.539S328.027,19.083,327.118,19.083z"/>
</g>
<g>
	<path class="st3" d="M337.743,24.871c-1.818,0-2.17-1.936-2.17-3.25c0-1.314,0.352-3.25,2.17-3.25s2.17,1.936,2.17,3.25
		C339.913,22.936,339.561,24.871,337.743,24.871z M337.743,19.083c-0.909,0-1.323,0.954-1.323,2.539s0.414,2.539,1.323,2.539
		s1.323-0.955,1.323-2.539S338.652,19.083,337.743,19.083z"/>
</g>
<g>
	<path class="st3" d="M348.368,24.871c-1.818,0-2.17-1.936-2.17-3.25c0-1.314,0.352-3.25,2.17-3.25s2.17,1.936,2.17,3.25
		C350.538,22.936,350.186,24.871,348.368,24.871z M348.368,19.083c-0.909,0-1.323,0.954-1.323,2.539s0.414,2.539,1.323,2.539
		s1.323-0.955,1.323-2.539S349.277,19.083,348.368,19.083z"/>
</g>
<g>
	<path class="st3" d="M358.993,24.871c-1.818,0-2.17-1.936-2.17-3.25c0-1.314,0.352-3.25,2.17-3.25s2.17,1.936,2.17,3.25
		C361.163,22.936,360.811,24.871,358.993,24.871z M358.993,19.083c-0.909,0-1.323,0.954-1.323,2.539s0.414,2.539,1.323,2.539
		s1.323-0.955,1.323-2.539S359.902,19.083,358.993,19.083z"/>
</g>
<g>
	<path class="st3" d="M355.805,5.005h-0.36V0.688h0.36v1.709c0.228-0.378,0.671-0.582,1.109-0.582c0.947,0,1.385,0.774,1.385,1.643
		c0,0.917-0.401,1.631-1.403,1.631c-0.396,0-0.869-0.222-1.079-0.63h-0.012V5.005z M356.854,4.766c0.605,0,1.056-0.438,1.062-1.217
		c0.03-0.78-0.317-1.409-1.062-1.409c-0.653,0-1.049,0.6-1.049,1.301C355.805,4.19,356.176,4.766,356.854,4.766z"/>
	<path class="st3" d="M359.105,1.222V0.688h0.396v0.534H359.105z M359.123,5.005V1.899h0.36v3.106H359.123z"/>
	<path class="st3" d="M361.493,5.018c-0.084,0.018-0.24,0.072-0.414,0.072c-0.354,0-0.552-0.156-0.552-0.618V2.199h-0.438v-0.3
		h0.438V1.036h0.36v0.863h0.581v0.3h-0.581v2.129c0,0.306,0.012,0.438,0.312,0.438c0.096,0,0.197-0.018,0.294-0.042V5.018z"/>
	<path class="st3" d="M359.731,8.966c0,1.122-0.265,2.123-1.428,2.123c-1.169,0-1.434-0.996-1.434-2.165
		c0-1.067,0.217-2.146,1.434-2.146C359.556,6.778,359.731,7.983,359.731,8.966z M358.292,7.102c-0.84,0-1.038,0.929-1.038,1.865
		c0,1.085,0.24,1.799,1.05,1.799c0.911,0,1.044-0.99,1.044-1.841C359.347,8.013,359.185,7.102,358.292,7.102z"/>
</g>
<g>
	<path class="st3" d="M186.43,4.98h-0.36V0.663h0.36v1.709c0.228-0.378,0.672-0.582,1.109-0.582c0.948,0,1.385,0.774,1.385,1.643
		c0,0.917-0.402,1.631-1.403,1.631c-0.396,0-0.869-0.222-1.079-0.63h-0.012V4.98z M187.479,4.74c0.606,0,1.056-0.438,1.062-1.217
		c0.03-0.78-0.318-1.409-1.062-1.409c-0.653,0-1.049,0.6-1.049,1.301C186.43,4.165,186.802,4.74,187.479,4.74z"/>
	<path class="st3" d="M189.73,1.196V0.663h0.396v0.534H189.73z M189.748,4.98V1.874h0.36V4.98H189.748z"/>
	<path class="st3" d="M192.117,4.992c-0.083,0.018-0.24,0.072-0.414,0.072c-0.354,0-0.552-0.156-0.552-0.618V2.173h-0.438v-0.3
		h0.438V1.01h0.36v0.863h0.582v0.3h-0.582v2.129c0,0.306,0.012,0.438,0.312,0.438c0.096,0,0.198-0.018,0.293-0.042V4.992z"/>
	<path class="st3" d="M187.404,7.838h-1.091V7.586c0.642-0.042,1.043-0.108,1.169-0.833h0.306v4.228h-0.384V7.838z"/>
	<path class="st3" d="M189.523,9.883c0.078,0.569,0.492,0.857,1.043,0.857c0.629,0,1.013-0.48,1.013-1.08
		c0-0.629-0.408-1.073-1.049-1.073c-0.378,0-0.684,0.132-0.917,0.438l-0.318-0.042l0.342-2.188h2.099v0.324h-1.775l-0.264,1.421
		c0.33-0.216,0.546-0.276,0.93-0.276c0.773,0,1.337,0.527,1.337,1.397c0,0.888-0.642,1.403-1.337,1.403
		c-0.798,0-1.421-0.306-1.487-1.181H189.523z"/>
</g>
<g>
	<path class="st3" d="M199.49,107.605h2.213c0.938,0,1.422,0.581,1.422,1.268c0,0.329-0.119,0.791-0.673,1.05
		c0.329,0.134,0.911,0.364,0.911,1.227c0,0.805-0.596,1.484-1.709,1.484h-2.164V107.605z M200.168,109.734h1.226
		c0.651,0,1.051-0.196,1.051-0.812c0-0.47-0.287-0.735-1.043-0.735h-1.233V109.734z M200.168,112.053h1.45
		c0.707,0,1.064-0.357,1.064-0.918c0-0.707-0.623-0.848-1.177-0.848h-1.338V112.053z"/>
	<path class="st3" d="M204.11,108.306v-0.7h0.616v0.7H204.11z M204.726,112.634h-0.616v-3.663h0.616V112.634z"/>
	<path class="st3" d="M206.406,109.482v2.381c0,0.287,0.245,0.287,0.371,0.287h0.217v0.483c-0.224,0.021-0.399,0.049-0.462,0.049
		c-0.609,0-0.742-0.343-0.742-0.784v-2.416h-0.498v-0.512h0.498v-1.022h0.616v1.022h0.588v0.512H206.406z"/>
	<path class="st3" d="M209.655,112.634h-0.658v-3.495h-1.149v-0.49c0.799-0.056,1.128-0.133,1.324-0.938h0.483V112.634z"/>
	<path class="st3" d="M211.782,109.77c0.21-0.161,0.512-0.309,0.953-0.309c0.798,0,1.617,0.561,1.617,1.576
		c0,0.546-0.245,1.729-1.785,1.729c-0.645,0-1.472-0.259-1.591-1.358h0.638c0.063,0.574,0.49,0.826,1.044,0.826
		c0.637,0,1.036-0.511,1.036-1.127c0-0.708-0.483-1.093-1.093-1.093c-0.356,0-0.679,0.168-0.91,0.469l-0.532-0.027l0.371-2.641h2.55
		v0.603h-2.088L211.782,109.77z"/>
</g>
<rect x="226.157" y="77.61" class="st0" width="10.63" height="17.717"/>
<rect x="183.637" y="77.61" class="st1" width="180.709" height="17.717"/>
<line class="st2" x1="194.267" y1="95.327" x2="194.267" y2="77.61"/>
<line class="st2" x1="204.896" y1="95.327" x2="204.896" y2="77.61"/>
<line class="st2" x1="215.526" y1="95.327" x2="215.526" y2="77.61"/>
<line class="st2" x1="226.156" y1="95.327" x2="226.156" y2="77.61"/>
<line class="st2" x1="236.786" y1="95.327" x2="236.786" y2="77.61"/>
<line class="st2" x1="247.416" y1="95.327" x2="247.416" y2="77.61"/>
<line class="st2" x1="258.046" y1="95.327" x2="258.046" y2="77.61"/>
<line class="st2" x1="268.676" y1="95.327" x2="268.676" y2="77.61"/>
<line class="st2" x1="279.306" y1="95.327" x2="279.306" y2="77.61"/>
<line class="st2" x1="289.936" y1="95.327" x2="289.936" y2="77.61"/>
<line class="st2" x1="300.566" y1="95.327" x2="300.566" y2="77.61"/>
<line class="st2" x1="311.196" y1="95.327" x2="311.196" y2="77.61"/>
<line class="st2" x1="321.826" y1="95.327" x2="321.826" y2="77.61"/>
<line class="st2" x1="332.456" y1="95.327" x2="332.456" y2="77.61"/>
<line class="st2" x1="343.086" y1="95.327" x2="343.086" y2="77.61"/>
<line class="st2" x1="353.715" y1="95.327" x2="353.715" y2="77.61"/>
<g>
	<path d="M268.659,66.908h2.327c1.495,0,2.414,1.136,2.414,2.791c0,1.287-0.56,2.95-2.446,2.95h-2.295V66.908z M269.434,71.985
		h1.504c1.007,0,1.663-0.791,1.663-2.238s-0.664-2.175-1.72-2.175h-1.447V71.985z"/>
	<path d="M276.681,69.659c-0.008-0.264-0.104-0.704-0.991-0.704c-0.216,0-0.832,0.072-0.832,0.592c0,0.344,0.216,0.424,0.76,0.56
		l0.703,0.176c0.872,0.217,1.176,0.536,1.176,1.104c0,0.864-0.712,1.384-1.655,1.384c-1.655,0-1.774-0.96-1.799-1.464h0.68
		c0.023,0.328,0.12,0.856,1.111,0.856c0.504,0,0.959-0.2,0.959-0.664c0-0.336-0.231-0.448-0.831-0.6l-0.815-0.2
		c-0.584-0.144-0.968-0.439-0.968-1.016c0-0.919,0.76-1.335,1.583-1.335c1.495,0,1.6,1.104,1.6,1.312H276.681z"/>
	<path d="M279.169,69.052v2.718c0,0.328,0.28,0.328,0.424,0.328h0.248v0.552c-0.256,0.024-0.455,0.056-0.527,0.056
		c-0.695,0-0.848-0.392-0.848-0.896v-2.758h-0.567v-0.584h0.567v-1.167h0.703v1.167h0.672v0.584H279.169z"/>
</g>
<line class="st4" x1="359.581" y1="99.078" x2="359.581" y2="105.974"/>
<g>
	<path class="st3" d="M188.993,90.433c-1.819,0-2.17-1.936-2.17-3.25s0.351-3.25,2.17-3.25c1.818,0,2.169,1.936,2.169,3.25
		S190.811,90.433,188.993,90.433z M188.993,84.644c-0.91,0-1.324,0.955-1.324,2.539c0,1.585,0.414,2.539,1.324,2.539
		c0.909,0,1.323-0.954,1.323-2.539C190.316,85.599,189.902,84.644,188.993,84.644z"/>
</g>
<g>
	<path class="st3" d="M199.618,90.433c-1.818,0-2.17-1.936-2.17-3.25s0.352-3.25,2.17-3.25s2.17,1.936,2.17,3.25
		S201.436,90.433,199.618,90.433z M199.618,84.644c-0.909,0-1.323,0.955-1.323,2.539c0,1.585,0.414,2.539,1.323,2.539
		s1.323-0.954,1.323-2.539C200.941,85.599,200.527,84.644,199.618,84.644z"/>
</g>
<g>
	<path class="st3" d="M210.243,90.433c-1.818,0-2.17-1.936-2.17-3.25s0.352-3.25,2.17-3.25s2.17,1.936,2.17,3.25
		S212.061,90.433,210.243,90.433z M210.243,84.644c-0.909,0-1.323,0.955-1.323,2.539c0,1.585,0.414,2.539,1.323,2.539
		s1.323-0.954,1.323-2.539C211.566,85.599,211.152,84.644,210.243,84.644z"/>
</g>
<g>
	<path class="st3" d="M220.868,90.433c-1.818,0-2.17-1.936-2.17-3.25s0.352-3.25,2.17-3.25s2.17,1.936,2.17,3.25
		S222.686,90.433,220.868,90.433z M220.868,84.644c-0.909,0-1.323,0.955-1.323,2.539c0,1.585,0.414,2.539,1.323,2.539
		s1.323-0.954,1.323-2.539C222.191,85.599,221.777,84.644,220.868,84.644z"/>
</g>
<g>
	<path class="st3" d="M232.222,90.262h-0.847V85.77h-1.477v-0.63c1.026-0.072,1.449-0.172,1.701-1.207h0.622V90.262z"/>
</g>
<g>
	<path class="st3" d="M242.118,90.433c-1.818,0-2.17-1.936-2.17-3.25s0.352-3.25,2.17-3.25s2.17,1.936,2.17,3.25
		S243.936,90.433,242.118,90.433z M242.118,84.644c-0.909,0-1.323,0.955-1.323,2.539c0,1.585,0.414,2.539,1.323,2.539
		s1.323-0.954,1.323-2.539C243.441,85.599,243.027,84.644,242.118,84.644z"/>
</g>
<g>
	<path class="st3" d="M252.743,90.433c-1.818,0-2.17-1.936-2.17-3.25s0.352-3.25,2.17-3.25s2.17,1.936,2.17,3.25
		S254.561,90.433,252.743,90.433z M252.743,84.644c-0.909,0-1.323,0.955-1.323,2.539c0,1.585,0.414,2.539,1.323,2.539
		s1.323-0.954,1.323-2.539C254.066,85.599,253.652,84.644,252.743,84.644z"/>
</g>
<g>
	<path class="st3" d="M263.368,90.433c-1.818,0-2.17-1.936-2.17-3.25s0.352-3.25,2.17-3.25s2.17,1.936,2.17,3.25
		S265.186,90.433,263.368,90.433z M263.368,84.644c-0.909,0-1.323,0.955-1.323,2.539c0,1.585,0.414,2.539,1.323,2.539
		s1.323-0.954,1.323-2.539C264.691,85.599,264.277,84.644,263.368,84.644z"/>
</g>
<g>
	<path class="st3" d="M284.618,90.433c-1.818,0-2.17-1.936-2.17-3.25s0.352-3.25,2.17-3.25s2.17,1.936,2.17,3.25
		S286.436,90.433,284.618,90.433z M284.618,84.644c-0.909,0-1.323,0.955-1.323,2.539c0,1.585,0.414,2.539,1.323,2.539
		s1.323-0.954,1.323-2.539C285.941,85.599,285.527,84.644,284.618,84.644z"/>
</g>
<g>
	<path class="st3" d="M295.243,90.433c-1.818,0-2.17-1.936-2.17-3.25s0.352-3.25,2.17-3.25s2.17,1.936,2.17,3.25
		S297.061,90.433,295.243,90.433z M295.243,84.644c-0.909,0-1.323,0.955-1.323,2.539c0,1.585,0.414,2.539,1.323,2.539
		s1.323-0.954,1.323-2.539C296.566,85.599,296.152,84.644,295.243,84.644z"/>
</g>
<g>
	<path class="st3" d="M305.868,90.433c-1.818,0-2.17-1.936-2.17-3.25s0.352-3.25,2.17-3.25s2.17,1.936,2.17,3.25
		S307.686,90.433,305.868,90.433z M305.868,84.644c-0.909,0-1.323,0.955-1.323,2.539c0,1.585,0.414,2.539,1.323,2.539
		s1.323-0.954,1.323-2.539C307.191,85.599,306.777,84.644,305.868,84.644z"/>
</g>
<g>
	<path class="st3" d="M316.493,90.433c-1.818,0-2.17-1.936-2.17-3.25s0.352-3.25,2.17-3.25s2.17,1.936,2.17,3.25
		S318.311,90.433,316.493,90.433z M316.493,84.644c-0.909,0-1.323,0.955-1.323,2.539c0,1.585,0.414,2.539,1.323,2.539
		s1.323-0.954,1.323-2.539C317.816,85.599,317.402,84.644,316.493,84.644z"/>
</g>
<g>
	<path class="st3" d="M327.118,90.433c-1.818,0-2.17-1.936-2.17-3.25s0.352-3.25,2.17-3.25s2.17,1.936,2.17,3.25
		S328.936,90.433,327.118,90.433z M327.118,84.644c-0.909,0-1.323,0.955-1.323,2.539c0,1.585,0.414,2.539,1.323,2.539
		s1.323-0.954,1.323-2.539C328.441,85.599,328.027,84.644,327.118,84.644z"/>
</g>
<g>
	<path class="st3" d="M337.743,90.433c-1.818,0-2.17-1.936-2.17-3.25s0.352-3.25,2.17-3.25s2.17,1.936,2.17,3.25
		S339.561,90.433,337.743,90.433z M337.743,84.644c-0.909,0-1.323,0.955-1.323,2.539c0,1.585,0.414,2.539,1.323,2.539
		s1.323-0.954,1.323-2.539C339.066,85.599,338.652,84.644,337.743,84.644z"/>
</g>
<g>
	<path class="st3" d="M348.368,90.433c-1.818,0-2.17-1.936-2.17-3.25s0.352-3.25,2.17-3.25s2.17,1.936,2.17,3.25
		S350.186,90.433,348.368,90.433z M348.368,84.644c-0.909,0-1.323,0.955-1.323,2.539c0,1.585,0.414,2.539,1.323,2.539
		s1.323-0.954,1.323-2.539C349.691,85.599,349.277,84.644,348.368,84.644z"/>
</g>
<g>
	<path class="st3" d="M358.993,90.433c-1.818,0-2.17-1.936-2.17-3.25s0.352-3.25,2.17-3.25s2.17,1.936,2.17,3.25
		S360.811,90.433,358.993,90.433z M358.993,84.644c-0.909,0-1.323,0.955-1.323,2.539c0,1.585,0.414,2.539,1.323,2.539
		s1.323-0.954,1.323-2.539C360.316,85.599,359.902,84.644,358.993,84.644z"/>
</g>
<g>
	<path class="st3" d="M355.805,70.566h-0.36v-4.317h0.36v1.709c0.228-0.378,0.671-0.582,1.109-0.582
		c0.947,0,1.385,0.773,1.385,1.644c0,0.917-0.401,1.631-1.403,1.631c-0.396,0-0.869-0.222-1.079-0.63h-0.012V70.566z
		 M356.854,70.326c0.605,0,1.056-0.438,1.062-1.217c0.03-0.779-0.317-1.409-1.062-1.409c-0.653,0-1.049,0.6-1.049,1.301
		C355.805,69.751,356.176,70.326,356.854,70.326z"/>
	<path class="st3" d="M359.105,66.782v-0.533h0.396v0.533H359.105z M359.123,70.566V67.46h0.36v3.106H359.123z"/>
	<path class="st3" d="M361.493,70.578c-0.084,0.019-0.24,0.072-0.414,0.072c-0.354,0-0.552-0.156-0.552-0.618V67.76h-0.438v-0.3
		h0.438v-0.863h0.36v0.863h0.581v0.3h-0.581v2.129c0,0.306,0.012,0.438,0.312,0.438c0.096,0,0.197-0.018,0.294-0.042V70.578z"/>
	<path class="st3" d="M359.731,74.527c0,1.121-0.265,2.123-1.428,2.123c-1.169,0-1.434-0.995-1.434-2.165
		c0-1.067,0.217-2.146,1.434-2.146C359.556,72.339,359.731,73.544,359.731,74.527z M358.292,72.662c-0.84,0-1.038,0.93-1.038,1.865
		c0,1.086,0.24,1.799,1.05,1.799c0.911,0,1.044-0.989,1.044-1.841C359.347,73.574,359.185,72.662,358.292,72.662z"/>
</g>
<g>
	<path class="st3" d="M186.43,70.541h-0.36v-4.317h0.36v1.709c0.228-0.378,0.672-0.582,1.109-0.582c0.948,0,1.385,0.773,1.385,1.644
		c0,0.917-0.402,1.631-1.403,1.631c-0.396,0-0.869-0.222-1.079-0.63h-0.012V70.541z M187.479,70.301
		c0.606,0,1.056-0.438,1.062-1.217c0.03-0.779-0.318-1.409-1.062-1.409c-0.653,0-1.049,0.6-1.049,1.301
		C186.43,69.726,186.802,70.301,187.479,70.301z"/>
	<path class="st3" d="M189.73,66.757v-0.533h0.396v0.533H189.73z M189.748,70.541v-3.106h0.36v3.106H189.748z"/>
	<path class="st3" d="M192.117,70.553c-0.083,0.019-0.24,0.072-0.414,0.072c-0.354,0-0.552-0.156-0.552-0.618v-2.272h-0.438v-0.3
		h0.438v-0.863h0.36v0.863h0.582v0.3h-0.582v2.129c0,0.306,0.012,0.438,0.312,0.438c0.096,0,0.198-0.018,0.293-0.042V70.553z"/>
	<path class="st3" d="M187.404,73.398h-1.091v-0.252c0.642-0.042,1.043-0.107,1.169-0.833h0.306v4.228h-0.384V73.398z"/>
	<path class="st3" d="M189.523,75.443c0.078,0.57,0.492,0.857,1.043,0.857c0.629,0,1.013-0.479,1.013-1.079
		c0-0.63-0.408-1.073-1.049-1.073c-0.378,0-0.684,0.132-0.917,0.438l-0.318-0.042l0.342-2.188h2.099v0.323h-1.775l-0.264,1.422
		c0.33-0.216,0.546-0.276,0.93-0.276c0.773,0,1.337,0.528,1.337,1.397c0,0.888-0.642,1.403-1.337,1.403
		c-0.798,0-1.421-0.306-1.487-1.182H189.523z"/>
</g>
<g>
	<path class="st3" d="M152.044,107.605h2.213c0.938,0,1.422,0.581,1.422,1.268c0,0.329-0.119,0.791-0.672,1.05
		c0.329,0.134,0.911,0.364,0.911,1.227c0,0.805-0.596,1.484-1.709,1.484h-2.165V107.605z M152.724,109.734h1.226
		c0.651,0,1.051-0.196,1.051-0.812c0-0.47-0.288-0.735-1.044-0.735h-1.232V109.734z M152.724,112.053h1.45
		c0.708,0,1.064-0.357,1.064-0.918c0-0.707-0.623-0.848-1.177-0.848h-1.337V112.053z"/>
	<path class="st3" d="M156.664,108.306v-0.7h0.616v0.7H156.664z M157.28,112.634h-0.616v-3.663h0.616V112.634z"/>
	<path class="st3" d="M158.96,109.482v2.381c0,0.287,0.245,0.287,0.372,0.287h0.217v0.483c-0.224,0.021-0.399,0.049-0.462,0.049
		c-0.609,0-0.743-0.343-0.743-0.784v-2.416h-0.497v-0.512h0.497v-1.022h0.616v1.022h0.588v0.512H158.96z"/>
	<path class="st3" d="M162.209,112.634h-0.658v-3.495h-1.148v-0.49c0.798-0.056,1.127-0.133,1.324-0.938h0.483V112.634z"/>
	<path class="st3" d="M166.227,109.02c-0.077-0.434-0.315-0.756-0.847-0.756c-0.967,0-1.17,1.303-1.17,1.82l0.014,0.015
		c0.154-0.267,0.497-0.603,1.169-0.603c0.603,0,1.541,0.385,1.541,1.562c0,0.505-0.133,0.869-0.469,1.233
		c-0.259,0.287-0.553,0.476-1.247,0.476c-0.378,0-0.917-0.168-1.268-0.714c-0.294-0.463-0.378-1.064-0.378-1.709
		c0-1.079,0.35-2.634,1.821-2.634c0.567,0,1.373,0.309,1.436,1.31H166.227z M165.331,112.214c0.588,0,0.967-0.463,0.967-1.128
		c0-0.435-0.231-1.036-0.995-1.036c-0.679,0-1.009,0.49-1.009,1.071C164.294,111.646,164.609,112.214,165.331,112.214z"/>
</g>
<g>
	<path class="st3" d="M354.079,107.605h2.213c0.938,0,1.422,0.581,1.422,1.268c0,0.329-0.119,0.791-0.673,1.05
		c0.329,0.134,0.911,0.364,0.911,1.227c0,0.805-0.596,1.484-1.709,1.484h-2.164V107.605z M354.757,109.734h1.226
		c0.651,0,1.051-0.196,1.051-0.812c0-0.47-0.287-0.735-1.043-0.735h-1.233V109.734z M354.757,112.053h1.45
		c0.707,0,1.064-0.357,1.064-0.918c0-0.707-0.623-0.848-1.177-0.848h-1.338V112.053z"/>
	<path class="st3" d="M358.699,108.306v-0.7h0.616v0.7H358.699z M359.315,112.634h-0.616v-3.663h0.616V112.634z"/>
	<path class="st3" d="M360.995,109.482v2.381c0,0.287,0.245,0.287,0.371,0.287h0.217v0.483c-0.224,0.021-0.399,0.049-0.462,0.049
		c-0.609,0-0.742-0.343-0.742-0.784v-2.416h-0.498v-0.512h0.498v-1.022h0.616v1.022h0.588v0.512H360.995z"/>
	<path class="st3" d="M363.676,112.767c-1.415,0-1.688-1.506-1.688-2.528s0.273-2.528,1.688-2.528c1.414,0,1.688,1.506,1.688,2.528
		S365.09,112.767,363.676,112.767z M363.676,108.264c-0.708,0-1.029,0.742-1.029,1.975s0.321,1.976,1.029,1.976
		c0.707,0,1.029-0.743,1.029-1.976S364.383,108.264,363.676,108.264z"/>
</g>
<rect x="2.928" y="77.61" class="st1" width="180.709" height="17.717"/>
<line class="st2" x1="13.558" y1="95.327" x2="13.558" y2="77.61"/>
<line class="st2" x1="24.188" y1="95.327" x2="24.188" y2="77.61"/>
<line class="st2" x1="34.818" y1="95.327" x2="34.818" y2="77.61"/>
<line class="st2" x1="45.448" y1="95.327" x2="45.448" y2="77.61"/>
<line class="st2" x1="56.078" y1="95.327" x2="56.078" y2="77.61"/>
<line class="st2" x1="66.707" y1="95.327" x2="66.707" y2="77.61"/>
<line class="st2" x1="77.337" y1="95.327" x2="77.337" y2="77.61"/>
<line class="st2" x1="87.967" y1="95.327" x2="87.967" y2="77.61"/>
<line class="st2" x1="98.597" y1="95.327" x2="98.597" y2="77.61"/>
<line class="st2" x1="109.228" y1="95.327" x2="109.228" y2="77.61"/>
<line class="st2" x1="119.857" y1="95.327" x2="119.857" y2="77.61"/>
<line class="st2" x1="130.487" y1="95.327" x2="130.487" y2="77.61"/>
<line class="st2" x1="141.117" y1="95.327" x2="141.117" y2="77.61"/>
<line class="st2" x1="151.747" y1="95.327" x2="151.747" y2="77.61"/>
<line class="st2" x1="162.377" y1="95.327" x2="162.377" y2="77.61"/>
<line class="st2" x1="173.007" y1="95.327" x2="173.007" y2="77.61"/>
<g>
	<path d="M93.87,66.908h2.327c1.495,0,2.415,1.136,2.415,2.791c0,1.287-0.56,2.95-2.447,2.95H93.87V66.908z M94.646,71.985h1.503
		c1.007,0,1.663-0.791,1.663-2.238s-0.664-2.175-1.719-2.175h-1.447V71.985z"/>
	<path d="M101.893,69.659c-0.008-0.264-0.104-0.704-0.992-0.704c-0.216,0-0.832,0.072-0.832,0.592c0,0.344,0.216,0.424,0.76,0.56
		l0.704,0.176c0.872,0.217,1.175,0.536,1.175,1.104c0,0.864-0.711,1.384-1.655,1.384c-1.655,0-1.775-0.96-1.799-1.464h0.68
		c0.024,0.328,0.12,0.856,1.111,0.856c0.504,0,0.959-0.2,0.959-0.664c0-0.336-0.232-0.448-0.832-0.6l-0.815-0.2
		c-0.584-0.144-0.968-0.439-0.968-1.016c0-0.919,0.76-1.335,1.583-1.335c1.495,0,1.599,1.104,1.599,1.312H101.893z"/>
	<path d="M104.382,69.052v2.718c0,0.328,0.28,0.328,0.424,0.328h0.248v0.552c-0.256,0.024-0.456,0.056-0.527,0.056
		c-0.696,0-0.848-0.392-0.848-0.896v-2.758h-0.568v-0.584h0.568v-1.167h0.704v1.167h0.671v0.584H104.382z"/>
</g>
<g>
	<path class="st3" d="M8.284,90.433c-1.819,0-2.17-1.936-2.17-3.25s0.351-3.25,2.17-3.25c1.818,0,2.169,1.936,2.169,3.25
		S10.103,90.433,8.284,90.433z M8.284,84.644c-0.91,0-1.324,0.955-1.324,2.539c0,1.585,0.414,2.539,1.324,2.539
		c0.909,0,1.323-0.954,1.323-2.539C9.607,85.599,9.193,84.644,8.284,84.644z"/>
</g>
<g>
	<path class="st3" d="M18.909,90.433c-1.819,0-2.17-1.936-2.17-3.25s0.351-3.25,2.17-3.25c1.818,0,2.169,1.936,2.169,3.25
		S20.728,90.433,18.909,90.433z M18.909,84.644c-0.91,0-1.324,0.955-1.324,2.539c0,1.585,0.414,2.539,1.324,2.539
		c0.909,0,1.323-0.954,1.323-2.539C20.232,85.599,19.818,84.644,18.909,84.644z"/>
</g>
<g>
	<path class="st3" d="M29.534,90.433c-1.819,0-2.17-1.936-2.17-3.25s0.351-3.25,2.17-3.25c1.818,0,2.169,1.936,2.169,3.25
		S31.353,90.433,29.534,90.433z M29.534,84.644c-0.91,0-1.324,0.955-1.324,2.539c0,1.585,0.414,2.539,1.324,2.539
		c0.909,0,1.323-0.954,1.323-2.539C30.857,85.599,30.443,84.644,29.534,84.644z"/>
</g>
<g>
	<path class="st3" d="M40.159,90.433c-1.819,0-2.17-1.936-2.17-3.25s0.351-3.25,2.17-3.25c1.818,0,2.169,1.936,2.169,3.25
		S41.978,90.433,40.159,90.433z M40.159,84.644c-0.91,0-1.324,0.955-1.324,2.539c0,1.585,0.414,2.539,1.324,2.539
		c0.909,0,1.323-0.954,1.323-2.539C41.482,85.599,41.068,84.644,40.159,84.644z"/>
</g>
<g>
	<path class="st3" d="M50.784,90.433c-1.819,0-2.17-1.936-2.17-3.25s0.351-3.25,2.17-3.25c1.818,0,2.169,1.936,2.169,3.25
		S52.603,90.433,50.784,90.433z M50.784,84.644c-0.91,0-1.324,0.955-1.324,2.539c0,1.585,0.414,2.539,1.324,2.539
		c0.909,0,1.323-0.954,1.323-2.539C52.107,85.599,51.693,84.644,50.784,84.644z"/>
</g>
<g>
	<path class="st3" d="M61.409,90.433c-1.819,0-2.17-1.936-2.17-3.25s0.351-3.25,2.17-3.25c1.818,0,2.169,1.936,2.169,3.25
		S63.228,90.433,61.409,90.433z M61.409,84.644c-0.91,0-1.324,0.955-1.324,2.539c0,1.585,0.414,2.539,1.324,2.539
		c0.909,0,1.323-0.954,1.323-2.539C62.732,85.599,62.318,84.644,61.409,84.644z"/>
</g>
<g>
	<path class="st3" d="M72.034,90.433c-1.819,0-2.17-1.936-2.17-3.25s0.351-3.25,2.17-3.25c1.818,0,2.169,1.936,2.169,3.25
		S73.853,90.433,72.034,90.433z M72.034,84.644c-0.91,0-1.324,0.955-1.324,2.539c0,1.585,0.414,2.539,1.324,2.539
		c0.909,0,1.323-0.954,1.323-2.539C73.357,85.599,72.943,84.644,72.034,84.644z"/>
</g>
<g>
	<path class="st3" d="M82.659,90.433c-1.819,0-2.17-1.936-2.17-3.25s0.351-3.25,2.17-3.25c1.818,0,2.169,1.936,2.169,3.25
		S84.478,90.433,82.659,90.433z M82.659,84.644c-0.91,0-1.324,0.955-1.324,2.539c0,1.585,0.414,2.539,1.324,2.539
		c0.909,0,1.323-0.954,1.323-2.539C83.982,85.599,83.568,84.644,82.659,84.644z"/>
</g>
<g>
	<path class="st3" d="M103.909,90.433c-1.819,0-2.17-1.936-2.17-3.25s0.351-3.25,2.17-3.25c1.818,0,2.169,1.936,2.169,3.25
		S105.728,90.433,103.909,90.433z M103.909,84.644c-0.91,0-1.324,0.955-1.324,2.539c0,1.585,0.414,2.539,1.324,2.539
		c0.909,0,1.323-0.954,1.323-2.539C105.232,85.599,104.818,84.644,103.909,84.644z"/>
</g>
<g>
	<path class="st3" d="M114.534,90.433c-1.819,0-2.17-1.936-2.17-3.25s0.351-3.25,2.17-3.25c1.818,0,2.169,1.936,2.169,3.25
		S116.353,90.433,114.534,90.433z M114.534,84.644c-0.91,0-1.324,0.955-1.324,2.539c0,1.585,0.414,2.539,1.324,2.539
		c0.909,0,1.323-0.954,1.323-2.539C115.857,85.599,115.443,84.644,114.534,84.644z"/>
</g>
<g>
	<path class="st3" d="M125.159,90.433c-1.819,0-2.17-1.936-2.17-3.25s0.351-3.25,2.17-3.25c1.818,0,2.169,1.936,2.169,3.25
		S126.978,90.433,125.159,90.433z M125.159,84.644c-0.91,0-1.324,0.955-1.324,2.539c0,1.585,0.414,2.539,1.324,2.539
		c0.909,0,1.323-0.954,1.323-2.539C126.482,85.599,126.068,84.644,125.159,84.644z"/>
</g>
<g>
	<path class="st3" d="M135.784,90.433c-1.819,0-2.17-1.936-2.17-3.25s0.351-3.25,2.17-3.25c1.818,0,2.169,1.936,2.169,3.25
		S137.603,90.433,135.784,90.433z M135.784,84.644c-0.91,0-1.324,0.955-1.324,2.539c0,1.585,0.414,2.539,1.324,2.539
		c0.909,0,1.323-0.954,1.323-2.539C137.107,85.599,136.693,84.644,135.784,84.644z"/>
</g>
<g>
	<path class="st3" d="M146.409,90.433c-1.819,0-2.17-1.936-2.17-3.25s0.351-3.25,2.17-3.25c1.818,0,2.169,1.936,2.169,3.25
		S148.228,90.433,146.409,90.433z M146.409,84.644c-0.91,0-1.324,0.955-1.324,2.539c0,1.585,0.414,2.539,1.324,2.539
		c0.909,0,1.323-0.954,1.323-2.539C147.732,85.599,147.318,84.644,146.409,84.644z"/>
</g>
<g>
	<path class="st3" d="M157.034,90.433c-1.819,0-2.17-1.936-2.17-3.25s0.351-3.25,2.17-3.25c1.818,0,2.169,1.936,2.169,3.25
		S158.853,90.433,157.034,90.433z M157.034,84.644c-0.91,0-1.324,0.955-1.324,2.539c0,1.585,0.414,2.539,1.324,2.539
		c0.909,0,1.323-0.954,1.323-2.539C158.357,85.599,157.943,84.644,157.034,84.644z"/>
</g>
<g>
	<path class="st3" d="M167.659,90.433c-1.819,0-2.17-1.936-2.17-3.25s0.351-3.25,2.17-3.25c1.818,0,2.169,1.936,2.169,3.25
		S169.478,90.433,167.659,90.433z M167.659,84.644c-0.91,0-1.324,0.955-1.324,2.539c0,1.585,0.414,2.539,1.324,2.539
		c0.909,0,1.323-0.954,1.323-2.539C168.982,85.599,168.568,84.644,167.659,84.644z"/>
</g>
<g>
	<path class="st3" d="M178.284,90.433c-1.819,0-2.17-1.936-2.17-3.25s0.351-3.25,2.17-3.25c1.818,0,2.169,1.936,2.169,3.25
		S180.103,90.433,178.284,90.433z M178.284,84.644c-0.91,0-1.324,0.955-1.324,2.539c0,1.585,0.414,2.539,1.324,2.539
		c0.909,0,1.323-0.954,1.323-2.539C179.607,85.599,179.193,84.644,178.284,84.644z"/>
</g>
<g>
	<path class="st3" d="M175.096,70.566h-0.36v-4.317h0.36v1.709c0.228-0.378,0.672-0.582,1.109-0.582
		c0.948,0,1.385,0.773,1.385,1.644c0,0.917-0.402,1.631-1.403,1.631c-0.396,0-0.87-0.222-1.079-0.63h-0.012V70.566z M176.146,70.326
		c0.606,0,1.056-0.438,1.062-1.217c0.03-0.779-0.318-1.409-1.062-1.409c-0.653,0-1.049,0.6-1.049,1.301
		C175.096,69.751,175.468,70.326,176.146,70.326z"/>
	<path class="st3" d="M178.396,66.782v-0.533h0.396v0.533H178.396z M178.415,70.566V67.46h0.36v3.106H178.415z"/>
	<path class="st3" d="M180.784,70.578c-0.084,0.019-0.24,0.072-0.414,0.072c-0.354,0-0.552-0.156-0.552-0.618V67.76h-0.438v-0.3
		h0.438v-0.863h0.36v0.863h0.582v0.3h-0.582v2.129c0,0.306,0.012,0.438,0.312,0.438c0.096,0,0.198-0.018,0.293-0.042V70.578z"/>
	<path class="st3" d="M176.071,73.424h-1.091v-0.252c0.642-0.042,1.043-0.107,1.169-0.833h0.306v4.228h-0.384V73.424z"/>
	<path class="st3" d="M180.216,73.376c-0.084-0.432-0.354-0.714-0.804-0.714c-1.037,0-1.127,1.116-1.187,1.913
		c0.24-0.323,0.492-0.659,1.109-0.659c0.851,0,1.343,0.516,1.343,1.361c0,0.852-0.498,1.373-1.355,1.373
		c-0.846,0-1.481-0.527-1.481-2.021c0-1.002,0.293-2.291,1.535-2.291c0.666,0,1.157,0.359,1.235,1.037H180.216z M178.369,75.289
		c0,0.474,0.264,1.037,0.959,1.037c0.714,0,0.966-0.552,0.966-1.062c0-0.653-0.312-1.025-0.972-1.025
		C178.729,74.239,178.369,74.72,178.369,75.289z"/>
</g>
<g>
	<path class="st3" d="M5.721,70.541h-0.36v-4.317h0.36v1.709c0.228-0.378,0.672-0.582,1.109-0.582c0.948,0,1.385,0.773,1.385,1.644
		c0,0.917-0.402,1.631-1.403,1.631c-0.396,0-0.87-0.222-1.079-0.63H5.721V70.541z M6.771,70.301c0.606,0,1.056-0.438,1.062-1.217
		c0.03-0.779-0.318-1.409-1.062-1.409c-0.653,0-1.049,0.6-1.049,1.301C5.721,69.726,6.093,70.301,6.771,70.301z"/>
	<path class="st3" d="M9.021,66.757v-0.533h0.396v0.533H9.021z M9.04,70.541v-3.106h0.36v3.106H9.04z"/>
	<path class="st3" d="M11.409,70.553c-0.084,0.019-0.24,0.072-0.414,0.072c-0.354,0-0.552-0.156-0.552-0.618v-2.272h-0.438v-0.3
		h0.438v-0.863h0.36v0.863h0.582v0.3h-0.582v2.129c0,0.306,0.012,0.438,0.312,0.438c0.096,0,0.198-0.018,0.293-0.042V70.553z"/>
	<path class="st3" d="M6.21,74.19c0.714,0.006,1.211-0.162,1.211-0.81c0-0.521-0.414-0.744-0.899-0.744
		c-0.54,0-0.906,0.378-0.906,0.906H5.232c0-0.378,0.126-0.684,0.408-0.948c0.264-0.239,0.612-0.281,0.959-0.281
		c0.666,0,1.206,0.336,1.206,1.043c0,0.438-0.192,0.768-0.6,0.941c0.612,0.192,0.75,0.654,0.75,1.044
		c0,0.695-0.492,1.259-1.361,1.283c-0.978,0-1.415-0.324-1.505-1.308h0.384c0,0.642,0.426,0.983,1.049,0.983
		c0.611,0,1.073-0.455,1.049-0.953c-0.024-0.684-0.618-0.899-1.361-0.846V74.19z"/>
	<path class="st3" d="M10.032,73.398H8.94v-0.252c0.642-0.042,1.043-0.107,1.169-0.833h0.306v4.228h-0.384V73.398z"/>
</g>
<g>
	<path class="st3" d="M0.518,107.605h2.213c0.938,0,1.422,0.581,1.422,1.268c0,0.329-0.119,0.791-0.672,1.05
		c0.329,0.134,0.911,0.364,0.911,1.227c0,0.805-0.596,1.484-1.709,1.484H0.518V107.605z M1.198,109.734h1.226
		c0.651,0,1.05-0.196,1.05-0.812c0-0.47-0.287-0.735-1.043-0.735H1.198V109.734z M1.198,112.053h1.45
		c0.708,0,1.064-0.357,1.064-0.918c0-0.707-0.623-0.848-1.177-0.848H1.198V112.053z"/>
	<path class="st3" d="M5.138,108.306v-0.7h0.616v0.7H5.138z M5.754,112.634H5.138v-3.663h0.616V112.634z"/>
	<path class="st3" d="M7.434,109.482v2.381c0,0.287,0.246,0.287,0.372,0.287h0.217v0.483c-0.224,0.021-0.399,0.049-0.462,0.049
		c-0.609,0-0.743-0.343-0.743-0.784v-2.416H6.321v-0.512h0.497v-1.022h0.616v1.022h0.588v0.512H7.434z"/>
	<path class="st3" d="M9.738,109.832c0.105,0.007,0.217,0.015,0.322,0.015c0.476,0,0.938-0.189,0.938-0.806
		c0-0.294-0.175-0.777-0.911-0.777c-0.875,0-0.932,0.714-0.959,1.058H8.526c0-0.722,0.294-1.611,1.59-1.611
		c0.952,0,1.52,0.547,1.52,1.296c0,0.63-0.364,0.932-0.63,1.016v0.014c0.477,0.154,0.819,0.49,0.819,1.148
		c0,0.806-0.518,1.583-1.772,1.583c-0.364,0-0.672-0.091-0.91-0.217c-0.546-0.287-0.693-0.854-0.735-1.422h0.637
		c0.021,0.462,0.133,1.086,1.051,1.086c0.63,0,1.071-0.386,1.071-0.953c0-0.826-0.729-0.903-1.148-0.903
		c-0.091,0-0.189,0.007-0.28,0.007V109.832z"/>
	<path class="st3" d="M14.575,112.634h-0.658v-3.495h-1.148v-0.49c0.798-0.056,1.127-0.133,1.324-0.938h0.483V112.634z"/>
</g>
<g>
	<path class="st3" d="M93.284,90.433c-1.819,0-2.17-1.936-2.17-3.25s0.351-3.25,2.17-3.25c1.818,0,2.169,1.936,2.169,3.25
		S95.103,90.433,93.284,90.433z M93.284,84.644c-0.91,0-1.324,0.955-1.324,2.539c0,1.585,0.414,2.539,1.324,2.539
		c0.909,0,1.323-0.954,1.323-2.539C94.607,85.599,94.193,84.644,93.284,84.644z"/>
</g>
<g>
	<path class="st3" d="M263.368,24.871c-1.818,0-2.17-1.936-2.17-3.25c0-1.314,0.352-3.25,2.17-3.25s2.17,1.936,2.17,3.25
		C265.538,22.936,265.186,24.871,263.368,24.871z M263.368,19.083c-0.909,0-1.323,0.954-1.323,2.539s0.414,2.539,1.323,2.539
		s1.323-0.955,1.323-2.539S264.277,19.083,263.368,19.083z"/>
</g>
<g>
	<path class="st3" d="M231.537,74.56l-3.322-6.617h6.614L231.537,74.56z"/>
	<line class="st5" x1="231.537" y1="73.069" x2="231.537" y2="59.766"/>
</g>
<polyline class="st4" points="178.285,99.078 178.285,110.102 169.439,110.102 "/>
<g>
	<path class="st3" d="M273.993,90.433c-1.818,0-2.17-1.936-2.17-3.25s0.352-3.25,2.17-3.25s2.17,1.936,2.17,3.25
		S275.811,90.433,273.993,90.433z M273.993,84.644c-0.909,0-1.323,0.955-1.323,2.539c0,1.585,0.414,2.539,1.323,2.539
		s1.323-0.954,1.323-2.539C275.316,85.599,274.902,84.644,273.993,84.644z"/>
</g>
<g>
	<path class="st3" d="M326.614,107.605h2.213c0.938,0,1.422,0.581,1.422,1.268c0,0.329-0.119,0.791-0.673,1.05
		c0.329,0.134,0.911,0.364,0.911,1.227c0,0.805-0.596,1.484-1.709,1.484h-2.164V107.605z M327.292,109.734h1.226
		c0.651,0,1.051-0.196,1.051-0.812c0-0.47-0.287-0.735-1.043-0.735h-1.233V109.734z M327.292,112.053h1.45
		c0.707,0,1.064-0.357,1.064-0.918c0-0.707-0.623-0.848-1.177-0.848h-1.338V112.053z"/>
	<path class="st3" d="M331.234,108.306v-0.7h0.616v0.7H331.234z M331.85,112.634h-0.616v-3.663h0.616V112.634z"/>
	<path class="st3" d="M333.53,109.482v2.381c0,0.287,0.245,0.287,0.371,0.287h0.217v0.483c-0.224,0.021-0.399,0.049-0.462,0.049
		c-0.609,0-0.742-0.343-0.742-0.784v-2.416h-0.498v-0.512h0.498v-1.022h0.616v1.022h0.588v0.512H333.53z"/>
	<path class="st3" d="M336.779,112.634h-0.658v-3.495h-1.149v-0.49c0.799-0.056,1.128-0.133,1.324-0.938h0.483V112.634z"/>
</g>
<polyline class="st4" points="348.355,99.078 348.355,110.102 339.51,110.102 "/>
<line class="st4" x1="359.581" y1="33.125" x2="359.581" y2="40.92"/>
<g>
	<path class="st3" d="M354.079,42.552h2.213c0.938,0,1.422,0.582,1.422,1.268c0,0.33-0.119,0.792-0.673,1.051
		c0.329,0.133,0.911,0.364,0.911,1.226c0,0.806-0.596,1.485-1.709,1.485h-2.164V42.552z M354.757,44.681h1.226
		c0.651,0,1.051-0.196,1.051-0.812c0-0.469-0.287-0.735-1.043-0.735h-1.233V44.681z M354.757,46.999h1.45
		c0.707,0,1.064-0.357,1.064-0.917c0-0.707-0.623-0.847-1.177-0.847h-1.338V46.999z"/>
	<path class="st3" d="M358.699,43.252v-0.701h0.616v0.701H358.699z M359.315,47.581h-0.616v-3.663h0.616V47.581z"/>
	<path class="st3" d="M360.995,44.429v2.381c0,0.287,0.245,0.287,0.371,0.287h0.217v0.483c-0.224,0.021-0.399,0.049-0.462,0.049
		c-0.609,0-0.742-0.343-0.742-0.784v-2.417h-0.498v-0.511h0.498v-1.022h0.616v1.022h0.588v0.511H360.995z"/>
	<path class="st3" d="M363.676,47.714c-1.415,0-1.688-1.506-1.688-2.529c0-1.022,0.273-2.528,1.688-2.528
		c1.414,0,1.688,1.506,1.688,2.528C365.364,46.208,365.09,47.714,363.676,47.714z M363.676,43.21c-0.708,0-1.029,0.743-1.029,1.975
		c0,1.233,0.321,1.975,1.029,1.975c0.707,0,1.029-0.742,1.029-1.975C364.706,43.953,364.383,43.21,363.676,43.21z"/>
</g>
<g>
	<path class="st3" d="M327.114,42.552h2.213c0.938,0,1.422,0.582,1.422,1.268c0,0.33-0.119,0.792-0.673,1.051
		c0.329,0.133,0.911,0.364,0.911,1.226c0,0.806-0.596,1.485-1.709,1.485h-2.164V42.552z M327.792,44.681h1.226
		c0.651,0,1.051-0.196,1.051-0.812c0-0.469-0.287-0.735-1.043-0.735h-1.233V44.681z M327.792,46.999h1.45
		c0.707,0,1.064-0.357,1.064-0.917c0-0.707-0.623-0.847-1.177-0.847h-1.338V46.999z"/>
	<path class="st3" d="M331.734,43.252v-0.701h0.616v0.701H331.734z M332.35,47.581h-0.616v-3.663h0.616V47.581z"/>
	<path class="st3" d="M334.03,44.429v2.381c0,0.287,0.245,0.287,0.371,0.287h0.217v0.483c-0.224,0.021-0.399,0.049-0.462,0.049
		c-0.609,0-0.742-0.343-0.742-0.784v-2.417h-0.498v-0.511h0.498v-1.022h0.616v1.022h0.588v0.511H334.03z"/>
	<path class="st3" d="M337.279,47.581h-0.658v-3.495h-1.149v-0.49c0.799-0.056,1.128-0.133,1.324-0.938h0.483V47.581z"/>
</g>
<polyline class="st4" points="348.355,33.125 348.355,45.049 339.51,45.049 "/>
<path class="st3" d="M188.378,30.627l2.324,4.631h-4.63L188.378,30.627z"/>
<line class="st4" x1="188.378" y1="33.125" x2="188.378" y2="40.92"/>
<g>
	<path class="st3" d="M181.298,42.552h2.213c0.938,0,1.422,0.582,1.422,1.268c0,0.33-0.119,0.792-0.672,1.051
		c0.329,0.133,0.911,0.364,0.911,1.226c0,0.806-0.596,1.485-1.709,1.485h-2.165V42.552z M181.978,44.681h1.226
		c0.651,0,1.05-0.196,1.05-0.812c0-0.469-0.287-0.735-1.043-0.735h-1.232V44.681z M181.978,46.999h1.45
		c0.708,0,1.064-0.357,1.064-0.917c0-0.707-0.623-0.847-1.177-0.847h-1.337V46.999z"/>
	<path class="st3" d="M185.918,43.252v-0.701h0.616v0.701H185.918z M186.535,47.581h-0.616v-3.663h0.616V47.581z"/>
	<path class="st3" d="M188.214,44.429v2.381c0,0.287,0.246,0.287,0.372,0.287h0.217v0.483c-0.224,0.021-0.399,0.049-0.462,0.049
		c-0.609,0-0.743-0.343-0.743-0.784v-2.417h-0.497v-0.511h0.497v-1.022h0.616v1.022h0.588v0.511H188.214z"/>
	<path class="st3" d="M191.463,47.581h-0.658v-3.495h-1.148v-0.49c0.798-0.056,1.127-0.133,1.324-0.938h0.483V47.581z"/>
	<path class="st3" d="M193.59,44.716c0.21-0.161,0.512-0.308,0.952-0.308c0.799,0,1.618,0.561,1.618,1.576
		c0,0.546-0.245,1.73-1.786,1.73c-0.645,0-1.471-0.259-1.589-1.359h0.637c0.062,0.574,0.49,0.826,1.043,0.826
		c0.638,0,1.037-0.511,1.037-1.127c0-0.708-0.483-1.093-1.093-1.093c-0.357,0-0.68,0.168-0.91,0.469l-0.532-0.028l0.371-2.641h2.549
		v0.603H193.8L193.59,44.716z"/>
</g>
<g>
	<path d="M108.671,68.611h0.583v1.728h1.727v0.584h-1.727v1.727h-0.583v-1.727h-1.735v-0.584h1.735V68.611z"/>
	<path d="M114.167,72.649h-0.752v-3.99h-1.311V68.1c0.912-0.063,1.287-0.151,1.511-1.071h0.552V72.649z"/>
</g>
<g>
	<path class="st3" d="M273.993,24.871c-1.818,0-2.17-1.936-2.17-3.25c0-1.314,0.352-3.25,2.17-3.25s2.17,1.936,2.17,3.25
		C276.163,22.936,275.811,24.871,273.993,24.871z M273.993,19.083c-0.909,0-1.323,0.954-1.323,2.539s0.414,2.539,1.323,2.539
		s1.323-0.955,1.323-2.539S274.902,19.083,273.993,19.083z"/>
</g>
<g>
	<path class="st3" d="M100.344,22.334h-0.752v-3.99h-1.311v-0.56c0.912-0.064,1.287-0.152,1.511-1.072h0.552V22.334z"/>
	<path class="st3" d="M105.255,18.208c-0.088-0.496-0.359-0.863-0.967-0.863c-1.104,0-1.335,1.487-1.335,2.079l0.016,0.016
		c0.176-0.304,0.568-0.688,1.335-0.688c0.688,0,1.759,0.44,1.759,1.783c0,0.576-0.152,0.991-0.536,1.407
		c-0.296,0.328-0.631,0.543-1.423,0.543c-0.432,0-1.047-0.192-1.447-0.815c-0.335-0.528-0.432-1.215-0.432-1.951
		c0-1.231,0.4-3.006,2.079-3.006c0.647,0,1.567,0.352,1.639,1.495H105.255z M104.232,21.855c0.672,0,1.104-0.528,1.104-1.288
		c0-0.496-0.264-1.183-1.135-1.183c-0.776,0-1.151,0.56-1.151,1.223C103.049,21.207,103.409,21.855,104.232,21.855z"/>
	<path class="st3" d="M106.833,22.334v-5.741h0.704v2.087h0.016c0.304-0.44,0.719-0.64,1.207-0.648c1.111,0,1.743,0.912,1.743,2.087
		c0,1-0.416,2.335-1.839,2.335c-0.712,0-1.008-0.408-1.151-0.64h-0.016v0.52H106.833z M108.632,18.665
		c-1.016,0-1.127,1.095-1.127,1.775c0,1.111,0.696,1.407,1.144,1.407c0.768,0,1.127-0.696,1.127-1.615
		C109.776,19.696,109.72,18.665,108.632,18.665z"/>
	<path class="st3" d="M111.354,17.393v-0.799h0.704v0.799H111.354z M112.057,22.334h-0.704v-4.182h0.704V22.334z"/>
	<path class="st3" d="M113.977,18.736v2.719c0,0.328,0.28,0.328,0.424,0.328h0.248v0.552c-0.256,0.024-0.456,0.056-0.527,0.056
		c-0.696,0-0.848-0.392-0.848-0.896v-2.759h-0.568v-0.583h0.568v-1.167h0.704v1.167h0.671v0.583H113.977z"/>
	<path class="st3" d="M120.28,16.034c-0.839,1.056-1.375,2.335-1.375,3.686c0,1.352,0.536,2.631,1.375,3.686h-0.631
		c-1.16-1.431-1.456-2.854-1.456-3.686s0.288-2.254,1.456-3.686H120.28z"/>
	<path class="st3" d="M122.024,21.295v1.04h-1.015v-1.04H122.024z"/>
	<path class="st3" d="M128.502,16.034v3.702c0,0.688,0,2.727-2.646,2.727c-2.655,0-2.655-2.031-2.655-2.727v-3.702h0.76v3.654
		c0,0.863,0.088,2.087,1.887,2.087c1.799,0,1.895-1.215,1.895-2.087v-3.654H128.502z"/>
	<path class="st3" d="M129.913,16.034c1.16,1.432,1.447,2.854,1.447,3.686s-0.288,2.255-1.447,3.686h-0.631
		c0.832-1.055,1.367-2.334,1.367-3.686c0-1.351-0.536-2.63-1.367-3.686H129.913z"/>
</g>
<g>
	<path class="st3" d="M101.1,46.049c0.12,0.008,0.248,0.016,0.368,0.016c0.544,0,1.071-0.216,1.071-0.919
		c0-0.336-0.2-0.888-1.039-0.888c-1,0-1.063,0.815-1.096,1.208h-0.688c0-0.824,0.336-1.839,1.815-1.839
		c1.087,0,1.735,0.624,1.735,1.479c0,0.719-0.416,1.063-0.72,1.159v0.016c0.543,0.176,0.936,0.56,0.936,1.311
		c0,0.919-0.592,1.807-2.023,1.807c-0.416,0-0.768-0.104-1.04-0.248c-0.624-0.328-0.792-0.975-0.839-1.623h0.728
		c0.024,0.528,0.152,1.239,1.199,1.239c0.72,0,1.224-0.439,1.224-1.087c0-0.944-0.832-1.032-1.312-1.032
		c-0.104,0-0.216,0.008-0.32,0.008V46.049z"/>
	<path class="st3" d="M104.108,45.641c0-1.831,1.335-2.015,1.943-2.015c0.975,0,1.759,0.632,1.759,1.679
		c0,1.007-0.664,1.431-1.503,1.879l-0.584,0.32c-0.768,0.424-0.936,0.864-0.967,1.08h3.054v0.664h-3.846
		c0.04-1.167,0.567-1.791,1.319-2.231l0.743-0.432c0.6-0.344,1.032-0.576,1.032-1.311c0-0.448-0.288-1.016-1.111-1.016
		c-1.063,0-1.111,0.992-1.135,1.383H104.108z"/>
	<path class="st3" d="M108.668,49.247v-5.741h0.704v2.087h0.016c0.304-0.44,0.719-0.64,1.207-0.648c1.111,0,1.743,0.912,1.743,2.087
		c0,1-0.416,2.335-1.839,2.335c-0.712,0-1.008-0.408-1.151-0.64h-0.016v0.52H108.668z M110.467,45.577
		c-1.016,0-1.127,1.095-1.127,1.775c0,1.111,0.696,1.407,1.144,1.407c0.768,0,1.127-0.695,1.127-1.615
		C111.611,46.608,111.555,45.577,110.467,45.577z"/>
	<path class="st3" d="M113.188,44.306v-0.799h0.704v0.799H113.188z M113.892,49.247h-0.704v-4.182h0.704V49.247z"/>
	<path class="st3" d="M115.812,45.649v2.719c0,0.328,0.28,0.328,0.424,0.328h0.248v0.552c-0.256,0.024-0.456,0.056-0.527,0.056
		c-0.696,0-0.848-0.392-0.848-0.896v-2.759h-0.568v-0.583h0.568v-1.167h0.704v1.167h0.671v0.583H115.812z"/>
	<path class="st3" d="M121.259,43.386c-0.68,1.279-1.087,2.047-1.087,3.966c0,1.319,0.456,2.295,1.095,3.55h-0.472
		c-0.832-1.248-1.375-2.247-1.375-3.742c0-1.407,0.487-2.542,1.351-3.774H121.259z"/>
	<path class="st3" d="M123.068,49.247h-0.832v-0.848h0.832V49.247z"/>
	<path class="st3" d="M124.412,43.506h2.327c1.495,0,2.415,1.135,2.415,2.791c0,1.287-0.56,2.95-2.447,2.95h-2.295V43.506z
		 M125.188,48.583h1.503c1.007,0,1.663-0.792,1.663-2.239s-0.664-2.175-1.719-2.175h-1.447V48.583z"/>
	<path class="st3" d="M129.82,50.902c0.68-1.279,1.087-2.047,1.087-3.966c0-1.319-0.456-2.295-1.095-3.55h0.472
		c0.832,1.248,1.375,2.247,1.375,3.742c0,1.407-0.488,2.542-1.351,3.774H129.82z"/>
</g>
<polyline class="st6" points="183.637,77.61 183.637,95.327 2.928,95.327 "/>
<polyline class="st6" points="364.345,77.61 364.345,95.327 183.637,95.327 "/>
<polyline class="st6" points="364.345,12.048 364.345,29.765 183.637,29.765 "/>
<path class="st3" d="M348.355,30.627l2.324,4.631h-4.629L348.355,30.627z"/>
<path class="st3" d="M359.581,30.627l2.324,4.631h-4.629L359.581,30.627z"/>
<path class="st3" d="M348.355,96.579l2.324,4.631h-4.629L348.355,96.579z"/>
<path class="st3" d="M359.581,96.579l2.324,4.631h-4.629L359.581,96.579z"/>
<path class="st3" d="M178.285,96.579l2.324,4.631h-4.629L178.285,96.579z"/>
<path class="st3" d="M188.617,96.579l2.324,4.631h-4.629L188.617,96.579z"/>
<path class="st3" d="M7.976,96.687l2.324,4.631H5.671L7.976,96.687z"/>
<line class="st4" x1="7.976" y1="99.186" x2="7.976" y2="106.481"/>
<g>
	<path class="st3" d="M152.755,18.813l-6.617,3.322v-6.614L152.755,18.813z"/>
	<line class="st5" x1="151.264" y1="18.813" x2="135.126" y2="18.813"/>
</g>
<g>
	<path class="st3" d="M149.75,57.078l-7.344-0.94l3.693-5.486L149.75,57.078z"/>
	<line class="st5" x1="148.512" y1="56.245" x2="135.126" y2="47.234"/>
</g>
<g>
</g>
<g>
</g>
<g>
</g>
<g>
</g>
<g>
</g>
</svg>
