<?xml version="1.0" encoding="utf-8"?>
<!-- Generator: Adobe Illustrator 28.4.1, SVG Export Plug-In . SVG Version: 6.00 Build 0)  -->
<svg version="1.1" id="图层_1" xmlns="http://www.w3.org/2000/svg" xmlns:xlink="http://www.w3.org/1999/xlink" x="0px" y="0px"
	 width="365.621px" height="127.606px" viewBox="0 0 365.621 127.606" style="enable-background:new 0 0 365.621 127.606;"
	 xml:space="preserve">
<style type="text/css">
	.st0{fill:#DBDCDC;}
	.st1{fill:none;stroke:#000000;stroke-width:0.5;}
	.st2{fill:#FFFFFF;stroke:#000000;stroke-width:0.5;stroke-dasharray:1;}
	.st3{fill:#231815;}
	.st4{fill:none;stroke:#231815;stroke-width:0.5;}
	.st5{fill:none;stroke:#231815;}
	.st6{fill:none;stroke:#000000;stroke-width:0.75;}
</style>
<rect x="226.157" y="14.108" class="st0" width="10.63" height="17.717"/>
<rect x="183.637" y="14.108" class="st1" width="180.709" height="17.716"/>
<line class="st2" x1="194.267" y1="31.824" x2="194.267" y2="14.108"/>
<line class="st2" x1="204.896" y1="31.824" x2="204.896" y2="14.108"/>
<line class="st2" x1="215.526" y1="31.824" x2="215.526" y2="14.108"/>
<line class="st2" x1="226.156" y1="31.824" x2="226.156" y2="14.108"/>
<line class="st2" x1="236.786" y1="31.824" x2="236.786" y2="14.108"/>
<line class="st2" x1="247.416" y1="31.824" x2="247.416" y2="14.108"/>
<line class="st2" x1="258.046" y1="31.824" x2="258.046" y2="14.108"/>
<line class="st2" x1="268.676" y1="31.824" x2="268.676" y2="14.108"/>
<line class="st2" x1="279.306" y1="31.824" x2="279.306" y2="14.108"/>
<line class="st2" x1="289.936" y1="31.824" x2="289.936" y2="14.108"/>
<line class="st2" x1="300.566" y1="31.824" x2="300.566" y2="14.108"/>
<line class="st2" x1="311.196" y1="31.824" x2="311.196" y2="14.108"/>
<line class="st2" x1="321.826" y1="31.824" x2="321.826" y2="14.108"/>
<line class="st2" x1="332.456" y1="31.824" x2="332.456" y2="14.108"/>
<line class="st2" x1="343.086" y1="31.824" x2="343.086" y2="14.108"/>
<line class="st2" x1="353.715" y1="31.824" x2="353.715" y2="14.108"/>
<g>
	<path class="st3" d="M217.905,56.623h2.526c1.071,0,1.623,0.664,1.623,1.447c0,0.375-0.136,0.903-0.768,1.199
		c0.376,0.152,1.04,0.416,1.04,1.399c0,0.919-0.68,1.695-1.951,1.695h-2.471V56.623z M218.68,59.054h1.399
		c0.743,0,1.199-0.224,1.199-0.928c0-0.536-0.328-0.839-1.191-0.839h-1.407V59.054z M218.68,61.7h1.655
		c0.808,0,1.215-0.408,1.215-1.047c0-0.808-0.711-0.968-1.343-0.968h-1.527V61.7z"/>
	<path class="st3" d="M223.185,57.422v-0.799h0.703v0.799H223.185z M223.888,62.364h-0.703v-4.182h0.703V62.364z"/>
	<path class="st3" d="M225.808,58.765v2.719c0,0.328,0.28,0.328,0.424,0.328h0.248v0.552c-0.256,0.024-0.455,0.056-0.527,0.056
		c-0.695,0-0.848-0.392-0.848-0.896v-2.759h-0.567v-0.583h0.567v-1.167h0.703v1.167h0.672v0.583H225.808z"/>
	<path d="M233.287,56.623h0.751v5.741h-0.871l-2.919-4.637h-0.016v4.637h-0.752v-5.741h0.92l2.87,4.637h0.017V56.623z"/>
	<path d="M237.895,62.364v-0.608l-0.016-0.016c-0.296,0.488-0.656,0.744-1.327,0.744c-0.616,0-1.359-0.296-1.359-1.295v-3.006h0.703
		v2.774c0,0.688,0.352,0.919,0.808,0.919c0.888,0,1.151-0.784,1.151-1.391v-2.303h0.704v4.182H237.895z"/>
	<path d="M239.617,58.182h0.664v0.592h0.016c0.152-0.224,0.512-0.712,1.264-0.712c0.751,0,0.991,0.456,1.111,0.68
		c0.352-0.392,0.632-0.68,1.279-0.68c0.447,0,1.295,0.232,1.295,1.407v2.895h-0.703v-2.703c0-0.576-0.176-0.967-0.775-0.967
		c-0.592,0-0.984,0.56-0.984,1.119v2.551h-0.703v-2.895c0-0.352-0.136-0.775-0.655-0.775c-0.4,0-1.104,0.256-1.104,1.391v2.279
		h-0.704V58.182z"/>
</g>
<g>
	<path d="M268.659,3.407h2.327c1.495,0,2.414,1.135,2.414,2.791c0,1.287-0.56,2.95-2.446,2.95h-2.295V3.407z M269.434,8.484h1.504
		c1.007,0,1.663-0.792,1.663-2.239s-0.664-2.175-1.72-2.175h-1.447V8.484z"/>
	<path d="M276.681,6.158c-0.008-0.264-0.104-0.704-0.991-0.704c-0.216,0-0.832,0.072-0.832,0.592c0,0.344,0.216,0.423,0.76,0.56
		l0.703,0.176c0.872,0.216,1.176,0.536,1.176,1.104c0,0.863-0.712,1.383-1.655,1.383c-1.655,0-1.774-0.959-1.799-1.463h0.68
		c0.023,0.328,0.12,0.855,1.111,0.855c0.504,0,0.959-0.2,0.959-0.664c0-0.336-0.231-0.448-0.831-0.6l-0.815-0.2
		c-0.584-0.144-0.968-0.44-0.968-1.016c0-0.919,0.76-1.335,1.583-1.335c1.495,0,1.6,1.104,1.6,1.312H276.681z"/>
	<path d="M279.169,5.55v2.719c0,0.328,0.28,0.328,0.424,0.328h0.248v0.552c-0.256,0.024-0.455,0.056-0.527,0.056
		c-0.695,0-0.848-0.392-0.848-0.896V5.55h-0.567V4.966h0.567V3.799h0.703v1.167h0.672V5.55H279.169z"/>
</g>
<path class="st3" d="M231.537,33.185l3.322,6.617h-6.614L231.537,33.185z"/>
<polyline class="st4" points="188.617,109.641 188.617,123.499 197.462,123.499 "/>
<line class="st5" x1="231.537" y1="34.676" x2="231.537" y2="50.814"/>
<g>
	<path class="st3" d="M188.993,26.93c-1.819,0-2.17-1.936-2.17-3.25c0-1.314,0.351-3.25,2.17-3.25c1.818,0,2.169,1.936,2.169,3.25
		C191.162,24.994,190.811,26.93,188.993,26.93z M188.993,21.141c-0.91,0-1.324,0.954-1.324,2.539s0.414,2.539,1.324,2.539
		c0.909,0,1.323-0.955,1.323-2.539S189.902,21.141,188.993,21.141z"/>
</g>
<g>
	<path class="st3" d="M199.618,26.93c-1.818,0-2.17-1.936-2.17-3.25c0-1.314,0.352-3.25,2.17-3.25s2.17,1.936,2.17,3.25
		C201.788,24.994,201.436,26.93,199.618,26.93z M199.618,21.141c-0.909,0-1.323,0.954-1.323,2.539s0.414,2.539,1.323,2.539
		s1.323-0.955,1.323-2.539S200.527,21.141,199.618,21.141z"/>
</g>
<g>
	<path class="st3" d="M210.243,26.93c-1.818,0-2.17-1.936-2.17-3.25c0-1.314,0.352-3.25,2.17-3.25s2.17,1.936,2.17,3.25
		C212.413,24.994,212.061,26.93,210.243,26.93z M210.243,21.141c-0.909,0-1.323,0.954-1.323,2.539s0.414,2.539,1.323,2.539
		s1.323-0.955,1.323-2.539S211.152,21.141,210.243,21.141z"/>
</g>
<g>
	<path class="st3" d="M220.868,26.93c-1.818,0-2.17-1.936-2.17-3.25c0-1.314,0.352-3.25,2.17-3.25s2.17,1.936,2.17,3.25
		C223.038,24.994,222.686,26.93,220.868,26.93z M220.868,21.141c-0.909,0-1.323,0.954-1.323,2.539s0.414,2.539,1.323,2.539
		s1.323-0.955,1.323-2.539S221.777,21.141,220.868,21.141z"/>
</g>
<g>
	<path class="st3" d="M232.222,26.759h-0.847v-4.492h-1.477v-0.63c1.026-0.072,1.449-0.171,1.701-1.207h0.622V26.759z"/>
</g>
<g>
	<path class="st3" d="M242.118,26.93c-1.818,0-2.17-1.936-2.17-3.25c0-1.314,0.352-3.25,2.17-3.25s2.17,1.936,2.17,3.25
		C244.288,24.994,243.936,26.93,242.118,26.93z M242.118,21.141c-0.909,0-1.323,0.954-1.323,2.539s0.414,2.539,1.323,2.539
		s1.323-0.955,1.323-2.539S243.027,21.141,242.118,21.141z"/>
</g>
<g>
	<path class="st3" d="M252.743,26.93c-1.818,0-2.17-1.936-2.17-3.25c0-1.314,0.352-3.25,2.17-3.25s2.17,1.936,2.17,3.25
		C254.913,24.994,254.561,26.93,252.743,26.93z M252.743,21.141c-0.909,0-1.323,0.954-1.323,2.539s0.414,2.539,1.323,2.539
		s1.323-0.955,1.323-2.539S253.652,21.141,252.743,21.141z"/>
</g>
<g>
	<path class="st3" d="M263.368,26.93c-1.818,0-2.17-1.936-2.17-3.25c0-1.314,0.352-3.25,2.17-3.25s2.17,1.936,2.17,3.25
		C265.538,24.994,265.186,26.93,263.368,26.93z M263.368,21.141c-0.909,0-1.323,0.954-1.323,2.539s0.414,2.539,1.323,2.539
		s1.323-0.955,1.323-2.539S264.277,21.141,263.368,21.141z"/>
</g>
<g>
	<path class="st3" d="M284.618,26.93c-1.818,0-2.17-1.936-2.17-3.25c0-1.314,0.352-3.25,2.17-3.25s2.17,1.936,2.17,3.25
		C286.788,24.994,286.436,26.93,284.618,26.93z M284.618,21.141c-0.909,0-1.323,0.954-1.323,2.539s0.414,2.539,1.323,2.539
		s1.323-0.955,1.323-2.539S285.527,21.141,284.618,21.141z"/>
</g>
<g>
	<path class="st3" d="M295.243,26.93c-1.818,0-2.17-1.936-2.17-3.25c0-1.314,0.352-3.25,2.17-3.25s2.17,1.936,2.17,3.25
		C297.413,24.994,297.061,26.93,295.243,26.93z M295.243,21.141c-0.909,0-1.323,0.954-1.323,2.539s0.414,2.539,1.323,2.539
		s1.323-0.955,1.323-2.539S296.152,21.141,295.243,21.141z"/>
</g>
<g>
	<path class="st3" d="M305.868,26.93c-1.818,0-2.17-1.936-2.17-3.25c0-1.314,0.352-3.25,2.17-3.25s2.17,1.936,2.17,3.25
		C308.038,24.994,307.686,26.93,305.868,26.93z M305.868,21.141c-0.909,0-1.323,0.954-1.323,2.539s0.414,2.539,1.323,2.539
		s1.323-0.955,1.323-2.539S306.777,21.141,305.868,21.141z"/>
</g>
<g>
	<path class="st3" d="M316.493,26.93c-1.818,0-2.17-1.936-2.17-3.25c0-1.314,0.352-3.25,2.17-3.25s2.17,1.936,2.17,3.25
		C318.663,24.994,318.311,26.93,316.493,26.93z M316.493,21.141c-0.909,0-1.323,0.954-1.323,2.539s0.414,2.539,1.323,2.539
		s1.323-0.955,1.323-2.539S317.402,21.141,316.493,21.141z"/>
</g>
<g>
	<path class="st3" d="M327.118,26.93c-1.818,0-2.17-1.936-2.17-3.25c0-1.314,0.352-3.25,2.17-3.25s2.17,1.936,2.17,3.25
		C329.288,24.994,328.936,26.93,327.118,26.93z M327.118,21.141c-0.909,0-1.323,0.954-1.323,2.539s0.414,2.539,1.323,2.539
		s1.323-0.955,1.323-2.539S328.027,21.141,327.118,21.141z"/>
</g>
<g>
	<path class="st3" d="M337.743,26.93c-1.818,0-2.17-1.936-2.17-3.25c0-1.314,0.352-3.25,2.17-3.25s2.17,1.936,2.17,3.25
		C339.913,24.994,339.561,26.93,337.743,26.93z M337.743,21.141c-0.909,0-1.323,0.954-1.323,2.539s0.414,2.539,1.323,2.539
		s1.323-0.955,1.323-2.539S338.652,21.141,337.743,21.141z"/>
</g>
<g>
	<path class="st3" d="M348.368,26.93c-1.818,0-2.17-1.936-2.17-3.25c0-1.314,0.352-3.25,2.17-3.25s2.17,1.936,2.17,3.25
		C350.538,24.994,350.186,26.93,348.368,26.93z M348.368,21.141c-0.909,0-1.323,0.954-1.323,2.539s0.414,2.539,1.323,2.539
		s1.323-0.955,1.323-2.539S349.277,21.141,348.368,21.141z"/>
</g>
<g>
	<path class="st3" d="M358.993,26.93c-1.818,0-2.17-1.936-2.17-3.25c0-1.314,0.352-3.25,2.17-3.25s2.17,1.936,2.17,3.25
		C361.163,24.994,360.811,26.93,358.993,26.93z M358.993,21.141c-0.909,0-1.323,0.954-1.323,2.539s0.414,2.539,1.323,2.539
		s1.323-0.955,1.323-2.539S359.902,21.141,358.993,21.141z"/>
</g>
<g>
	<path class="st3" d="M355.805,7.064h-0.36V2.747h0.36v1.709c0.228-0.378,0.671-0.582,1.109-0.582c0.947,0,1.385,0.774,1.385,1.643
		c0,0.917-0.401,1.631-1.403,1.631c-0.396,0-0.869-0.222-1.079-0.63h-0.012V7.064z M356.854,6.825c0.605,0,1.056-0.438,1.062-1.217
		c0.03-0.78-0.317-1.409-1.062-1.409c-0.653,0-1.049,0.6-1.049,1.301C355.805,6.249,356.176,6.825,356.854,6.825z"/>
	<path class="st3" d="M359.105,3.281V2.747h0.396v0.534H359.105z M359.123,7.064V3.958h0.36v3.106H359.123z"/>
	<path class="st3" d="M361.493,7.077c-0.084,0.018-0.24,0.072-0.414,0.072c-0.354,0-0.552-0.156-0.552-0.618V4.258h-0.438v-0.3
		h0.438V3.095h0.36v0.863h0.581v0.3h-0.581v2.129c0,0.306,0.012,0.438,0.312,0.438c0.096,0,0.197-0.018,0.294-0.042V7.077z"/>
	<path class="st3" d="M359.731,11.025c0,1.122-0.265,2.123-1.428,2.123c-1.169,0-1.434-0.996-1.434-2.165
		c0-1.067,0.217-2.146,1.434-2.146C359.556,8.837,359.731,10.042,359.731,11.025z M358.292,9.161c-0.84,0-1.038,0.929-1.038,1.865
		c0,1.085,0.24,1.799,1.05,1.799c0.911,0,1.044-0.99,1.044-1.841C359.347,10.072,359.185,9.161,358.292,9.161z"/>
</g>
<g>
	<path class="st3" d="M186.43,7.039h-0.36V2.722h0.36v1.709c0.228-0.378,0.672-0.582,1.109-0.582c0.948,0,1.385,0.774,1.385,1.643
		c0,0.917-0.402,1.631-1.403,1.631c-0.396,0-0.869-0.222-1.079-0.63h-0.012V7.039z M187.479,6.799c0.606,0,1.056-0.438,1.062-1.217
		c0.03-0.78-0.318-1.409-1.062-1.409c-0.653,0-1.049,0.6-1.049,1.301C186.43,6.223,186.802,6.799,187.479,6.799z"/>
	<path class="st3" d="M189.73,3.255V2.722h0.396v0.534H189.73z M189.748,7.039V3.932h0.36v3.106H189.748z"/>
	<path class="st3" d="M192.117,7.051c-0.083,0.018-0.24,0.072-0.414,0.072c-0.354,0-0.552-0.156-0.552-0.618V4.232h-0.438v-0.3
		h0.438V3.069h0.36v0.863h0.582v0.3h-0.582v2.129c0,0.306,0.012,0.438,0.312,0.438c0.096,0,0.198-0.018,0.293-0.042V7.051z"/>
	<path class="st3" d="M187.404,9.897h-1.091V9.645c0.642-0.042,1.043-0.108,1.169-0.833h0.306v4.228h-0.384V9.897z"/>
	<path class="st3" d="M189.523,11.942c0.078,0.569,0.492,0.857,1.043,0.857c0.629,0,1.013-0.48,1.013-1.08
		c0-0.629-0.408-1.073-1.049-1.073c-0.378,0-0.684,0.132-0.917,0.438l-0.318-0.042l0.342-2.188h2.099v0.324h-1.775l-0.264,1.421
		c0.33-0.216,0.546-0.276,0.93-0.276c0.773,0,1.337,0.527,1.337,1.397c0,0.888-0.642,1.403-1.337,1.403
		c-0.798,0-1.421-0.306-1.487-1.181H189.523z"/>
</g>
<g>
	<path class="st3" d="M199.49,121.003h2.213c0.938,0,1.422,0.581,1.422,1.268c0,0.329-0.119,0.791-0.673,1.05
		c0.329,0.134,0.911,0.364,0.911,1.227c0,0.805-0.596,1.484-1.709,1.484h-2.164V121.003z M200.168,123.132h1.226
		c0.651,0,1.051-0.196,1.051-0.812c0-0.47-0.287-0.735-1.043-0.735h-1.233V123.132z M200.168,125.45h1.45
		c0.707,0,1.064-0.357,1.064-0.918c0-0.707-0.623-0.848-1.177-0.848h-1.338V125.45z"/>
	<path class="st3" d="M204.11,121.703v-0.7h0.616v0.7H204.11z M204.726,126.031h-0.616v-3.663h0.616V126.031z"/>
	<path class="st3" d="M206.406,122.88v2.381c0,0.287,0.245,0.287,0.371,0.287h0.217v0.483c-0.224,0.021-0.399,0.049-0.462,0.049
		c-0.609,0-0.742-0.343-0.742-0.784v-2.416h-0.498v-0.512h0.498v-1.022h0.616v1.022h0.588v0.512H206.406z"/>
	<path class="st3" d="M209.655,126.031h-0.658v-3.495h-1.149v-0.49c0.799-0.056,1.128-0.133,1.324-0.938h0.483V126.031z"/>
	<path class="st3" d="M211.781,123.167c0.21-0.161,0.512-0.309,0.953-0.309c0.798,0,1.617,0.561,1.617,1.576
		c0,0.546-0.245,1.729-1.785,1.729c-0.645,0-1.472-0.259-1.59-1.358h0.637c0.063,0.574,0.49,0.826,1.044,0.826
		c0.637,0,1.036-0.511,1.036-1.127c0-0.708-0.483-1.093-1.093-1.093c-0.356,0-0.679,0.168-0.91,0.469l-0.532-0.027l0.371-2.641h2.55
		v0.603h-2.088L211.781,123.167z"/>
</g>
<rect x="226.157" y="88.172" class="st0" width="10.63" height="17.717"/>
<rect x="183.637" y="88.172" class="st1" width="180.709" height="17.717"/>
<line class="st2" x1="194.267" y1="105.89" x2="194.267" y2="88.172"/>
<line class="st2" x1="204.896" y1="105.89" x2="204.896" y2="88.172"/>
<line class="st2" x1="215.526" y1="105.89" x2="215.526" y2="88.172"/>
<line class="st2" x1="226.156" y1="105.89" x2="226.156" y2="88.172"/>
<line class="st2" x1="236.786" y1="105.89" x2="236.786" y2="88.172"/>
<line class="st2" x1="247.416" y1="105.89" x2="247.416" y2="88.172"/>
<line class="st2" x1="258.046" y1="105.89" x2="258.046" y2="88.172"/>
<line class="st2" x1="268.676" y1="105.89" x2="268.676" y2="88.172"/>
<line class="st2" x1="279.306" y1="105.89" x2="279.306" y2="88.172"/>
<line class="st2" x1="289.936" y1="105.89" x2="289.936" y2="88.172"/>
<line class="st2" x1="300.566" y1="105.89" x2="300.566" y2="88.172"/>
<line class="st2" x1="311.196" y1="105.89" x2="311.196" y2="88.172"/>
<line class="st2" x1="321.826" y1="105.89" x2="321.826" y2="88.172"/>
<line class="st2" x1="332.456" y1="105.89" x2="332.456" y2="88.172"/>
<line class="st2" x1="343.086" y1="105.89" x2="343.086" y2="88.172"/>
<line class="st2" x1="353.715" y1="105.89" x2="353.715" y2="88.172"/>
<g>
	<path d="M268.659,77.471h2.327c1.495,0,2.414,1.136,2.414,2.791c0,1.287-0.56,2.95-2.446,2.95h-2.295V77.471z M269.434,82.548
		h1.504c1.007,0,1.663-0.791,1.663-2.238s-0.664-2.175-1.72-2.175h-1.447V82.548z"/>
	<path d="M276.681,80.222c-0.008-0.264-0.104-0.704-0.991-0.704c-0.216,0-0.832,0.072-0.832,0.592c0,0.344,0.216,0.424,0.76,0.56
		l0.703,0.176c0.872,0.217,1.176,0.536,1.176,1.104c0,0.864-0.712,1.384-1.655,1.384c-1.655,0-1.774-0.96-1.799-1.464h0.68
		c0.023,0.328,0.12,0.856,1.111,0.856c0.504,0,0.959-0.2,0.959-0.664c0-0.336-0.231-0.448-0.831-0.6l-0.815-0.2
		c-0.584-0.144-0.968-0.439-0.968-1.016c0-0.919,0.76-1.335,1.583-1.335c1.495,0,1.6,1.104,1.6,1.312H276.681z"/>
	<path d="M279.169,79.614v2.718c0,0.328,0.28,0.328,0.424,0.328h0.248v0.552c-0.256,0.024-0.455,0.056-0.527,0.056
		c-0.695,0-0.848-0.392-0.848-0.896v-2.758h-0.567V79.03h0.567v-1.167h0.703v1.167h0.672v0.584H279.169z"/>
</g>
<line class="st4" x1="359.581" y1="109.641" x2="359.581" y2="119.371"/>
<g>
	<path class="st3" d="M188.993,100.995c-1.819,0-2.17-1.936-2.17-3.25s0.351-3.25,2.17-3.25c1.818,0,2.169,1.936,2.169,3.25
		S190.811,100.995,188.993,100.995z M188.993,95.206c-0.91,0-1.324,0.955-1.324,2.539c0,1.585,0.414,2.539,1.324,2.539
		c0.909,0,1.323-0.954,1.323-2.539C190.316,96.161,189.902,95.206,188.993,95.206z"/>
</g>
<g>
	<path class="st3" d="M199.618,100.995c-1.818,0-2.17-1.936-2.17-3.25s0.352-3.25,2.17-3.25s2.17,1.936,2.17,3.25
		S201.436,100.995,199.618,100.995z M199.618,95.206c-0.909,0-1.323,0.955-1.323,2.539c0,1.585,0.414,2.539,1.323,2.539
		s1.323-0.954,1.323-2.539C200.941,96.161,200.527,95.206,199.618,95.206z"/>
</g>
<g>
	<path class="st3" d="M210.243,100.995c-1.818,0-2.17-1.936-2.17-3.25s0.352-3.25,2.17-3.25s2.17,1.936,2.17,3.25
		S212.061,100.995,210.243,100.995z M210.243,95.206c-0.909,0-1.323,0.955-1.323,2.539c0,1.585,0.414,2.539,1.323,2.539
		s1.323-0.954,1.323-2.539C211.566,96.161,211.152,95.206,210.243,95.206z"/>
</g>
<g>
	<path class="st3" d="M220.868,100.995c-1.818,0-2.17-1.936-2.17-3.25s0.352-3.25,2.17-3.25s2.17,1.936,2.17,3.25
		S222.686,100.995,220.868,100.995z M220.868,95.206c-0.909,0-1.323,0.955-1.323,2.539c0,1.585,0.414,2.539,1.323,2.539
		s1.323-0.954,1.323-2.539C222.191,96.161,221.777,95.206,220.868,95.206z"/>
</g>
<g>
	<path class="st3" d="M232.222,100.824h-0.847v-4.492h-1.477v-0.63c1.026-0.072,1.449-0.172,1.701-1.207h0.622V100.824z"/>
</g>
<g>
	<path class="st3" d="M242.118,100.995c-1.818,0-2.17-1.936-2.17-3.25s0.352-3.25,2.17-3.25s2.17,1.936,2.17,3.25
		S243.936,100.995,242.118,100.995z M242.118,95.206c-0.909,0-1.323,0.955-1.323,2.539c0,1.585,0.414,2.539,1.323,2.539
		s1.323-0.954,1.323-2.539C243.441,96.161,243.027,95.206,242.118,95.206z"/>
</g>
<g>
	<path class="st3" d="M252.743,100.995c-1.818,0-2.17-1.936-2.17-3.25s0.352-3.25,2.17-3.25s2.17,1.936,2.17,3.25
		S254.561,100.995,252.743,100.995z M252.743,95.206c-0.909,0-1.323,0.955-1.323,2.539c0,1.585,0.414,2.539,1.323,2.539
		s1.323-0.954,1.323-2.539C254.066,96.161,253.652,95.206,252.743,95.206z"/>
</g>
<g>
	<path class="st3" d="M263.368,100.995c-1.818,0-2.17-1.936-2.17-3.25s0.352-3.25,2.17-3.25s2.17,1.936,2.17,3.25
		S265.186,100.995,263.368,100.995z M263.368,95.206c-0.909,0-1.323,0.955-1.323,2.539c0,1.585,0.414,2.539,1.323,2.539
		s1.323-0.954,1.323-2.539C264.691,96.161,264.277,95.206,263.368,95.206z"/>
</g>
<g>
	<path class="st3" d="M284.618,100.995c-1.818,0-2.17-1.936-2.17-3.25s0.352-3.25,2.17-3.25s2.17,1.936,2.17,3.25
		S286.436,100.995,284.618,100.995z M284.618,95.206c-0.909,0-1.323,0.955-1.323,2.539c0,1.585,0.414,2.539,1.323,2.539
		s1.323-0.954,1.323-2.539C285.941,96.161,285.527,95.206,284.618,95.206z"/>
</g>
<g>
	<path class="st3" d="M295.243,100.995c-1.818,0-2.17-1.936-2.17-3.25s0.352-3.25,2.17-3.25s2.17,1.936,2.17,3.25
		S297.061,100.995,295.243,100.995z M295.243,95.206c-0.909,0-1.323,0.955-1.323,2.539c0,1.585,0.414,2.539,1.323,2.539
		s1.323-0.954,1.323-2.539C296.566,96.161,296.152,95.206,295.243,95.206z"/>
</g>
<g>
	<path class="st3" d="M305.868,100.995c-1.818,0-2.17-1.936-2.17-3.25s0.352-3.25,2.17-3.25s2.17,1.936,2.17,3.25
		S307.686,100.995,305.868,100.995z M305.868,95.206c-0.909,0-1.323,0.955-1.323,2.539c0,1.585,0.414,2.539,1.323,2.539
		s1.323-0.954,1.323-2.539C307.191,96.161,306.777,95.206,305.868,95.206z"/>
</g>
<g>
	<path class="st3" d="M316.493,100.995c-1.818,0-2.17-1.936-2.17-3.25s0.352-3.25,2.17-3.25s2.17,1.936,2.17,3.25
		S318.311,100.995,316.493,100.995z M316.493,95.206c-0.909,0-1.323,0.955-1.323,2.539c0,1.585,0.414,2.539,1.323,2.539
		s1.323-0.954,1.323-2.539C317.816,96.161,317.402,95.206,316.493,95.206z"/>
</g>
<g>
	<path class="st3" d="M327.118,100.995c-1.818,0-2.17-1.936-2.17-3.25s0.352-3.25,2.17-3.25s2.17,1.936,2.17,3.25
		S328.936,100.995,327.118,100.995z M327.118,95.206c-0.909,0-1.323,0.955-1.323,2.539c0,1.585,0.414,2.539,1.323,2.539
		s1.323-0.954,1.323-2.539C328.441,96.161,328.027,95.206,327.118,95.206z"/>
</g>
<g>
	<path class="st3" d="M337.743,100.995c-1.818,0-2.17-1.936-2.17-3.25s0.352-3.25,2.17-3.25s2.17,1.936,2.17,3.25
		S339.561,100.995,337.743,100.995z M337.743,95.206c-0.909,0-1.323,0.955-1.323,2.539c0,1.585,0.414,2.539,1.323,2.539
		s1.323-0.954,1.323-2.539C339.066,96.161,338.652,95.206,337.743,95.206z"/>
</g>
<g>
	<path class="st3" d="M348.368,100.995c-1.818,0-2.17-1.936-2.17-3.25s0.352-3.25,2.17-3.25s2.17,1.936,2.17,3.25
		S350.186,100.995,348.368,100.995z M348.368,95.206c-0.909,0-1.323,0.955-1.323,2.539c0,1.585,0.414,2.539,1.323,2.539
		s1.323-0.954,1.323-2.539C349.691,96.161,349.277,95.206,348.368,95.206z"/>
</g>
<g>
	<path class="st3" d="M358.993,100.995c-1.818,0-2.17-1.936-2.17-3.25s0.352-3.25,2.17-3.25s2.17,1.936,2.17,3.25
		S360.811,100.995,358.993,100.995z M358.993,95.206c-0.909,0-1.323,0.955-1.323,2.539c0,1.585,0.414,2.539,1.323,2.539
		s1.323-0.954,1.323-2.539C360.316,96.161,359.902,95.206,358.993,95.206z"/>
</g>
<g>
	<path class="st3" d="M355.805,81.129h-0.36v-4.317h0.36v1.709c0.228-0.378,0.671-0.582,1.109-0.582
		c0.947,0,1.385,0.773,1.385,1.644c0,0.917-0.401,1.631-1.403,1.631c-0.396,0-0.869-0.222-1.079-0.63h-0.012V81.129z
		 M356.854,80.889c0.605,0,1.056-0.438,1.062-1.217c0.03-0.779-0.317-1.409-1.062-1.409c-0.653,0-1.049,0.6-1.049,1.301
		C355.805,80.313,356.176,80.889,356.854,80.889z"/>
	<path class="st3" d="M359.105,77.345v-0.533h0.396v0.533H359.105z M359.123,81.129v-3.106h0.36v3.106H359.123z"/>
	<path class="st3" d="M361.493,81.14c-0.084,0.019-0.24,0.072-0.414,0.072c-0.354,0-0.552-0.156-0.552-0.618v-2.272h-0.438v-0.3
		h0.438v-0.863h0.36v0.863h0.581v0.3h-0.581v2.129c0,0.306,0.012,0.438,0.312,0.438c0.096,0,0.197-0.018,0.294-0.042V81.14z"/>
	<path class="st3" d="M359.731,85.09c0,1.121-0.265,2.123-1.428,2.123c-1.169,0-1.434-0.995-1.434-2.165
		c0-1.067,0.217-2.146,1.434-2.146C359.556,82.901,359.731,84.106,359.731,85.09z M358.292,83.224c-0.84,0-1.038,0.93-1.038,1.865
		c0,1.086,0.24,1.799,1.05,1.799c0.911,0,1.044-0.989,1.044-1.841C359.347,84.137,359.185,83.224,358.292,83.224z"/>
</g>
<g>
	<path class="st3" d="M186.43,81.103h-0.36v-4.317h0.36v1.709c0.228-0.378,0.672-0.582,1.109-0.582c0.948,0,1.385,0.773,1.385,1.644
		c0,0.917-0.402,1.631-1.403,1.631c-0.396,0-0.869-0.222-1.079-0.63h-0.012V81.103z M187.479,80.863
		c0.606,0,1.056-0.438,1.062-1.217c0.03-0.779-0.318-1.409-1.062-1.409c-0.653,0-1.049,0.6-1.049,1.301
		C186.43,80.288,186.802,80.863,187.479,80.863z"/>
	<path class="st3" d="M189.73,77.319v-0.533h0.396v0.533H189.73z M189.748,81.103v-3.106h0.36v3.106H189.748z"/>
	<path class="st3" d="M192.117,81.115c-0.083,0.019-0.24,0.072-0.414,0.072c-0.354,0-0.552-0.156-0.552-0.618v-2.272h-0.438v-0.3
		h0.438v-0.863h0.36v0.863h0.582v0.3h-0.582v2.129c0,0.306,0.012,0.438,0.312,0.438c0.096,0,0.198-0.018,0.293-0.042V81.115z"/>
	<path class="st3" d="M187.404,83.961h-1.091v-0.252c0.642-0.042,1.043-0.107,1.169-0.833h0.306v4.228h-0.384V83.961z"/>
	<path class="st3" d="M189.523,86.006c0.078,0.57,0.492,0.857,1.043,0.857c0.629,0,1.013-0.479,1.013-1.079
		c0-0.63-0.408-1.073-1.049-1.073c-0.378,0-0.684,0.132-0.917,0.438l-0.318-0.042l0.342-2.188h2.099v0.323h-1.775l-0.264,1.422
		c0.33-0.216,0.546-0.276,0.93-0.276c0.773,0,1.337,0.528,1.337,1.397c0,0.888-0.642,1.403-1.337,1.403
		c-0.798,0-1.421-0.306-1.487-1.182H189.523z"/>
</g>
<g>
	<path class="st3" d="M152.044,121.003h2.213c0.938,0,1.422,0.581,1.422,1.268c0,0.329-0.119,0.791-0.672,1.05
		c0.329,0.134,0.911,0.364,0.911,1.227c0,0.805-0.596,1.484-1.709,1.484h-2.165V121.003z M152.724,123.132h1.226
		c0.651,0,1.051-0.196,1.051-0.812c0-0.47-0.288-0.735-1.044-0.735h-1.232V123.132z M152.724,125.45h1.45
		c0.708,0,1.064-0.357,1.064-0.918c0-0.707-0.623-0.848-1.177-0.848h-1.337V125.45z"/>
	<path class="st3" d="M156.664,121.703v-0.7h0.616v0.7H156.664z M157.28,126.031h-0.616v-3.663h0.616V126.031z"/>
	<path class="st3" d="M158.96,122.88v2.381c0,0.287,0.245,0.287,0.372,0.287h0.217v0.483c-0.224,0.021-0.399,0.049-0.462,0.049
		c-0.609,0-0.743-0.343-0.743-0.784v-2.416h-0.497v-0.512h0.497v-1.022h0.616v1.022h0.588v0.512H158.96z"/>
	<path class="st3" d="M162.208,126.031h-0.658v-3.495h-1.148v-0.49c0.798-0.056,1.127-0.133,1.324-0.938h0.483V126.031z"/>
	<path class="st3" d="M166.227,122.417c-0.077-0.434-0.315-0.756-0.847-0.756c-0.967,0-1.17,1.303-1.17,1.82l0.014,0.015
		c0.154-0.267,0.497-0.603,1.169-0.603c0.603,0,1.541,0.385,1.541,1.562c0,0.505-0.133,0.869-0.469,1.233
		c-0.259,0.287-0.553,0.476-1.247,0.476c-0.378,0-0.917-0.168-1.268-0.714c-0.294-0.463-0.378-1.064-0.378-1.709
		c0-1.079,0.35-2.634,1.821-2.634c0.567,0,1.373,0.309,1.436,1.31H166.227z M165.331,125.611c0.588,0,0.967-0.463,0.967-1.128
		c0-0.435-0.231-1.036-0.995-1.036c-0.679,0-1.009,0.49-1.009,1.071C164.294,125.044,164.609,125.611,165.331,125.611z"/>
</g>
<g>
	<path class="st3" d="M354.079,121.003h2.213c0.938,0,1.422,0.581,1.422,1.268c0,0.329-0.119,0.791-0.673,1.05
		c0.329,0.134,0.911,0.364,0.911,1.227c0,0.805-0.596,1.484-1.709,1.484h-2.164V121.003z M354.757,123.132h1.226
		c0.651,0,1.051-0.196,1.051-0.812c0-0.47-0.287-0.735-1.043-0.735h-1.233V123.132z M354.757,125.45h1.45
		c0.707,0,1.064-0.357,1.064-0.918c0-0.707-0.623-0.848-1.177-0.848h-1.338V125.45z"/>
	<path class="st3" d="M358.699,121.703v-0.7h0.616v0.7H358.699z M359.315,126.031h-0.616v-3.663h0.616V126.031z"/>
	<path class="st3" d="M360.995,122.88v2.381c0,0.287,0.245,0.287,0.371,0.287h0.217v0.483c-0.224,0.021-0.399,0.049-0.462,0.049
		c-0.609,0-0.742-0.343-0.742-0.784v-2.416h-0.498v-0.512h0.498v-1.022h0.616v1.022h0.588v0.512H360.995z"/>
	<path class="st3" d="M363.676,126.164c-1.415,0-1.688-1.506-1.688-2.528s0.273-2.528,1.688-2.528c1.414,0,1.688,1.506,1.688,2.528
		S365.09,126.164,363.676,126.164z M363.676,121.661c-0.708,0-1.029,0.742-1.029,1.975s0.321,1.976,1.029,1.976
		c0.707,0,1.029-0.743,1.029-1.976S364.383,121.661,363.676,121.661z"/>
</g>
<rect x="2.928" y="88.172" class="st1" width="180.709" height="17.717"/>
<line class="st2" x1="13.558" y1="105.89" x2="13.558" y2="88.172"/>
<line class="st2" x1="24.188" y1="105.89" x2="24.188" y2="88.172"/>
<line class="st2" x1="34.818" y1="105.89" x2="34.818" y2="88.172"/>
<line class="st2" x1="45.448" y1="105.89" x2="45.448" y2="88.172"/>
<line class="st2" x1="56.078" y1="105.89" x2="56.078" y2="88.172"/>
<line class="st2" x1="66.707" y1="105.89" x2="66.707" y2="88.172"/>
<line class="st2" x1="77.337" y1="105.89" x2="77.337" y2="88.172"/>
<line class="st2" x1="87.967" y1="105.89" x2="87.967" y2="88.172"/>
<line class="st2" x1="98.597" y1="105.89" x2="98.597" y2="88.172"/>
<line class="st2" x1="109.228" y1="105.89" x2="109.228" y2="88.172"/>
<line class="st2" x1="119.857" y1="105.89" x2="119.857" y2="88.172"/>
<line class="st2" x1="130.487" y1="105.89" x2="130.487" y2="88.172"/>
<line class="st2" x1="141.117" y1="105.89" x2="141.117" y2="88.172"/>
<line class="st2" x1="151.747" y1="105.89" x2="151.747" y2="88.172"/>
<line class="st2" x1="162.377" y1="105.89" x2="162.377" y2="88.172"/>
<line class="st2" x1="173.007" y1="105.89" x2="173.007" y2="88.172"/>
<g>
	<path d="M93.37,77.471h2.327c1.495,0,2.415,1.136,2.415,2.791c0,1.287-0.56,2.95-2.447,2.95H93.37V77.471z M94.146,82.548h1.503
		c1.007,0,1.663-0.791,1.663-2.238s-0.664-2.175-1.719-2.175h-1.447V82.548z"/>
	<path d="M101.393,80.222c-0.008-0.264-0.104-0.704-0.992-0.704c-0.216,0-0.832,0.072-0.832,0.592c0,0.344,0.216,0.424,0.76,0.56
		l0.704,0.176c0.872,0.217,1.175,0.536,1.175,1.104c0,0.864-0.711,1.384-1.655,1.384c-1.655,0-1.775-0.96-1.799-1.464h0.68
		c0.024,0.328,0.12,0.856,1.111,0.856c0.504,0,0.959-0.2,0.959-0.664c0-0.336-0.232-0.448-0.832-0.6l-0.815-0.2
		c-0.584-0.144-0.968-0.439-0.968-1.016c0-0.919,0.76-1.335,1.583-1.335c1.495,0,1.599,1.104,1.599,1.312H101.393z"/>
	<path d="M103.882,79.614v2.718c0,0.328,0.28,0.328,0.424,0.328h0.248v0.552c-0.256,0.024-0.456,0.056-0.527,0.056
		c-0.696,0-0.848-0.392-0.848-0.896v-2.758h-0.568V79.03h0.568v-1.167h0.704v1.167h0.671v0.584H103.882z"/>
</g>
<g>
	<path class="st3" d="M8.284,100.995c-1.819,0-2.17-1.936-2.17-3.25s0.351-3.25,2.17-3.25c1.818,0,2.169,1.936,2.169,3.25
		S10.103,100.995,8.284,100.995z M8.284,95.206c-0.91,0-1.324,0.955-1.324,2.539c0,1.585,0.414,2.539,1.324,2.539
		c0.909,0,1.323-0.954,1.323-2.539C9.607,96.161,9.193,95.206,8.284,95.206z"/>
</g>
<g>
	<path class="st3" d="M18.909,100.995c-1.819,0-2.17-1.936-2.17-3.25s0.351-3.25,2.17-3.25c1.818,0,2.169,1.936,2.169,3.25
		S20.728,100.995,18.909,100.995z M18.909,95.206c-0.91,0-1.324,0.955-1.324,2.539c0,1.585,0.414,2.539,1.324,2.539
		c0.909,0,1.323-0.954,1.323-2.539C20.232,96.161,19.818,95.206,18.909,95.206z"/>
</g>
<g>
	<path class="st3" d="M29.534,100.995c-1.819,0-2.17-1.936-2.17-3.25s0.351-3.25,2.17-3.25c1.818,0,2.169,1.936,2.169,3.25
		S31.353,100.995,29.534,100.995z M29.534,95.206c-0.91,0-1.324,0.955-1.324,2.539c0,1.585,0.414,2.539,1.324,2.539
		c0.909,0,1.323-0.954,1.323-2.539C30.857,96.161,30.443,95.206,29.534,95.206z"/>
</g>
<g>
	<path class="st3" d="M40.159,100.995c-1.819,0-2.17-1.936-2.17-3.25s0.351-3.25,2.17-3.25c1.818,0,2.169,1.936,2.169,3.25
		S41.978,100.995,40.159,100.995z M40.159,95.206c-0.91,0-1.324,0.955-1.324,2.539c0,1.585,0.414,2.539,1.324,2.539
		c0.909,0,1.323-0.954,1.323-2.539C41.482,96.161,41.068,95.206,40.159,95.206z"/>
</g>
<g>
	<path class="st3" d="M50.784,100.995c-1.819,0-2.17-1.936-2.17-3.25s0.351-3.25,2.17-3.25c1.818,0,2.169,1.936,2.169,3.25
		S52.603,100.995,50.784,100.995z M50.784,95.206c-0.91,0-1.324,0.955-1.324,2.539c0,1.585,0.414,2.539,1.324,2.539
		c0.909,0,1.323-0.954,1.323-2.539C52.107,96.161,51.693,95.206,50.784,95.206z"/>
</g>
<g>
	<path class="st3" d="M61.409,100.995c-1.819,0-2.17-1.936-2.17-3.25s0.351-3.25,2.17-3.25c1.818,0,2.169,1.936,2.169,3.25
		S63.228,100.995,61.409,100.995z M61.409,95.206c-0.91,0-1.324,0.955-1.324,2.539c0,1.585,0.414,2.539,1.324,2.539
		c0.909,0,1.323-0.954,1.323-2.539C62.732,96.161,62.318,95.206,61.409,95.206z"/>
</g>
<g>
	<path class="st3" d="M72.034,100.995c-1.819,0-2.17-1.936-2.17-3.25s0.351-3.25,2.17-3.25c1.818,0,2.169,1.936,2.169,3.25
		S73.853,100.995,72.034,100.995z M72.034,95.206c-0.91,0-1.324,0.955-1.324,2.539c0,1.585,0.414,2.539,1.324,2.539
		c0.909,0,1.323-0.954,1.323-2.539C73.357,96.161,72.943,95.206,72.034,95.206z"/>
</g>
<g>
	<path class="st3" d="M82.659,100.995c-1.819,0-2.17-1.936-2.17-3.25s0.351-3.25,2.17-3.25c1.818,0,2.169,1.936,2.169,3.25
		S84.478,100.995,82.659,100.995z M82.659,95.206c-0.91,0-1.324,0.955-1.324,2.539c0,1.585,0.414,2.539,1.324,2.539
		c0.909,0,1.323-0.954,1.323-2.539C83.982,96.161,83.568,95.206,82.659,95.206z"/>
</g>
<g>
	<path class="st3" d="M103.909,100.995c-1.819,0-2.17-1.936-2.17-3.25s0.351-3.25,2.17-3.25c1.818,0,2.169,1.936,2.169,3.25
		S105.728,100.995,103.909,100.995z M103.909,95.206c-0.91,0-1.324,0.955-1.324,2.539c0,1.585,0.414,2.539,1.324,2.539
		c0.909,0,1.323-0.954,1.323-2.539C105.232,96.161,104.818,95.206,103.909,95.206z"/>
</g>
<g>
	<path class="st3" d="M114.534,100.995c-1.819,0-2.17-1.936-2.17-3.25s0.351-3.25,2.17-3.25c1.818,0,2.169,1.936,2.169,3.25
		S116.353,100.995,114.534,100.995z M114.534,95.206c-0.91,0-1.324,0.955-1.324,2.539c0,1.585,0.414,2.539,1.324,2.539
		c0.909,0,1.323-0.954,1.323-2.539C115.857,96.161,115.443,95.206,114.534,95.206z"/>
</g>
<g>
	<path class="st3" d="M125.159,100.995c-1.819,0-2.17-1.936-2.17-3.25s0.351-3.25,2.17-3.25c1.818,0,2.169,1.936,2.169,3.25
		S126.978,100.995,125.159,100.995z M125.159,95.206c-0.91,0-1.324,0.955-1.324,2.539c0,1.585,0.414,2.539,1.324,2.539
		c0.909,0,1.323-0.954,1.323-2.539C126.482,96.161,126.068,95.206,125.159,95.206z"/>
</g>
<g>
	<path class="st3" d="M135.784,100.995c-1.819,0-2.17-1.936-2.17-3.25s0.351-3.25,2.17-3.25c1.818,0,2.169,1.936,2.169,3.25
		S137.603,100.995,135.784,100.995z M135.784,95.206c-0.91,0-1.324,0.955-1.324,2.539c0,1.585,0.414,2.539,1.324,2.539
		c0.909,0,1.323-0.954,1.323-2.539C137.107,96.161,136.693,95.206,135.784,95.206z"/>
</g>
<g>
	<path class="st3" d="M146.409,100.995c-1.819,0-2.17-1.936-2.17-3.25s0.351-3.25,2.17-3.25c1.818,0,2.169,1.936,2.169,3.25
		S148.228,100.995,146.409,100.995z M146.409,95.206c-0.91,0-1.324,0.955-1.324,2.539c0,1.585,0.414,2.539,1.324,2.539
		c0.909,0,1.323-0.954,1.323-2.539C147.732,96.161,147.318,95.206,146.409,95.206z"/>
</g>
<g>
	<path class="st3" d="M157.034,100.995c-1.819,0-2.17-1.936-2.17-3.25s0.351-3.25,2.17-3.25c1.818,0,2.169,1.936,2.169,3.25
		S158.853,100.995,157.034,100.995z M157.034,95.206c-0.91,0-1.324,0.955-1.324,2.539c0,1.585,0.414,2.539,1.324,2.539
		c0.909,0,1.323-0.954,1.323-2.539C158.357,96.161,157.943,95.206,157.034,95.206z"/>
</g>
<g>
	<path class="st3" d="M167.659,100.995c-1.819,0-2.17-1.936-2.17-3.25s0.351-3.25,2.17-3.25c1.818,0,2.169,1.936,2.169,3.25
		S169.478,100.995,167.659,100.995z M167.659,95.206c-0.91,0-1.324,0.955-1.324,2.539c0,1.585,0.414,2.539,1.324,2.539
		c0.909,0,1.323-0.954,1.323-2.539C168.982,96.161,168.568,95.206,167.659,95.206z"/>
</g>
<g>
	<path class="st3" d="M178.284,100.995c-1.819,0-2.17-1.936-2.17-3.25s0.351-3.25,2.17-3.25c1.818,0,2.169,1.936,2.169,3.25
		S180.103,100.995,178.284,100.995z M178.284,95.206c-0.91,0-1.324,0.955-1.324,2.539c0,1.585,0.414,2.539,1.324,2.539
		c0.909,0,1.323-0.954,1.323-2.539C179.607,96.161,179.193,95.206,178.284,95.206z"/>
</g>
<g>
	<path class="st3" d="M175.096,81.129h-0.36v-4.317h0.36v1.709c0.228-0.378,0.672-0.582,1.109-0.582
		c0.948,0,1.385,0.773,1.385,1.644c0,0.917-0.402,1.631-1.403,1.631c-0.396,0-0.87-0.222-1.079-0.63h-0.012V81.129z M176.146,80.889
		c0.606,0,1.056-0.438,1.062-1.217c0.03-0.779-0.318-1.409-1.062-1.409c-0.653,0-1.049,0.6-1.049,1.301
		C175.096,80.313,175.468,80.889,176.146,80.889z"/>
	<path class="st3" d="M178.396,77.345v-0.533h0.396v0.533H178.396z M178.415,81.129v-3.106h0.36v3.106H178.415z"/>
	<path class="st3" d="M180.784,81.14c-0.084,0.019-0.24,0.072-0.414,0.072c-0.354,0-0.552-0.156-0.552-0.618v-2.272h-0.438v-0.3
		h0.438v-0.863h0.36v0.863h0.582v0.3h-0.582v2.129c0,0.306,0.012,0.438,0.312,0.438c0.096,0,0.198-0.018,0.293-0.042V81.14z"/>
	<path class="st3" d="M176.071,83.986h-1.091v-0.252c0.642-0.042,1.043-0.107,1.169-0.833h0.306v4.228h-0.384V83.986z"/>
	<path class="st3" d="M180.216,83.938c-0.084-0.432-0.354-0.714-0.804-0.714c-1.037,0-1.127,1.116-1.187,1.913
		c0.24-0.323,0.492-0.659,1.109-0.659c0.851,0,1.343,0.516,1.343,1.361c0,0.852-0.498,1.373-1.355,1.373
		c-0.846,0-1.481-0.527-1.481-2.021c0-1.002,0.293-2.291,1.535-2.291c0.666,0,1.157,0.359,1.235,1.037H180.216z M178.369,85.851
		c0,0.474,0.264,1.037,0.959,1.037c0.714,0,0.966-0.552,0.966-1.062c0-0.653-0.312-1.025-0.972-1.025
		C178.729,84.802,178.369,85.282,178.369,85.851z"/>
</g>
<g>
	<path class="st3" d="M5.721,81.103h-0.36v-4.317h0.36v1.709c0.228-0.378,0.672-0.582,1.109-0.582c0.948,0,1.385,0.773,1.385,1.644
		c0,0.917-0.402,1.631-1.403,1.631c-0.396,0-0.87-0.222-1.079-0.63H5.721V81.103z M6.771,80.863c0.606,0,1.056-0.438,1.062-1.217
		c0.03-0.779-0.318-1.409-1.062-1.409c-0.653,0-1.049,0.6-1.049,1.301C5.721,80.288,6.093,80.863,6.771,80.863z"/>
	<path class="st3" d="M9.021,77.319v-0.533h0.396v0.533H9.021z M9.04,81.103v-3.106h0.36v3.106H9.04z"/>
	<path class="st3" d="M11.409,81.115c-0.084,0.019-0.24,0.072-0.414,0.072c-0.354,0-0.552-0.156-0.552-0.618v-2.272h-0.438v-0.3
		h0.438v-0.863h0.36v0.863h0.582v0.3h-0.582v2.129c0,0.306,0.012,0.438,0.312,0.438c0.096,0,0.198-0.018,0.293-0.042V81.115z"/>
	<path class="st3" d="M6.21,84.753c0.714,0.006,1.211-0.162,1.211-0.81c0-0.521-0.414-0.744-0.899-0.744
		c-0.54,0-0.906,0.378-0.906,0.906H5.232c0-0.378,0.126-0.684,0.408-0.948c0.264-0.239,0.612-0.281,0.959-0.281
		c0.666,0,1.206,0.336,1.206,1.043c0,0.438-0.192,0.768-0.6,0.941c0.612,0.192,0.75,0.654,0.75,1.044
		c0,0.695-0.492,1.259-1.361,1.283c-0.978,0-1.415-0.324-1.505-1.308h0.384c0,0.642,0.426,0.983,1.049,0.983
		c0.611,0,1.073-0.455,1.049-0.953c-0.024-0.684-0.618-0.899-1.361-0.846V84.753z"/>
	<path class="st3" d="M10.032,83.961H8.94v-0.252c0.642-0.042,1.043-0.107,1.169-0.833h0.306v4.228h-0.384V83.961z"/>
</g>
<g>
	<path class="st3" d="M0.518,121.003h2.213c0.938,0,1.422,0.581,1.422,1.268c0,0.329-0.119,0.791-0.672,1.05
		c0.329,0.134,0.911,0.364,0.911,1.227c0,0.805-0.596,1.484-1.709,1.484H0.518V121.003z M1.198,123.132h1.226
		c0.651,0,1.05-0.196,1.05-0.812c0-0.47-0.287-0.735-1.043-0.735H1.198V123.132z M1.198,125.45h1.45
		c0.708,0,1.064-0.357,1.064-0.918c0-0.707-0.623-0.848-1.177-0.848H1.198V125.45z"/>
	<path class="st3" d="M5.138,121.703v-0.7h0.616v0.7H5.138z M5.754,126.031H5.138v-3.663h0.616V126.031z"/>
	<path class="st3" d="M7.434,122.88v2.381c0,0.287,0.246,0.287,0.372,0.287h0.217v0.483c-0.224,0.021-0.399,0.049-0.462,0.049
		c-0.609,0-0.743-0.343-0.743-0.784v-2.416H6.321v-0.512h0.497v-1.022h0.616v1.022h0.588v0.512H7.434z"/>
	<path class="st3" d="M9.737,123.229c0.105,0.007,0.217,0.015,0.322,0.015c0.476,0,0.938-0.189,0.938-0.806
		c0-0.294-0.175-0.777-0.911-0.777c-0.875,0-0.932,0.714-0.959,1.058H8.526c0-0.722,0.294-1.611,1.59-1.611
		c0.952,0,1.52,0.547,1.52,1.296c0,0.63-0.364,0.932-0.63,1.016v0.014c0.477,0.154,0.819,0.49,0.819,1.148
		c0,0.806-0.518,1.583-1.772,1.583c-0.364,0-0.672-0.091-0.91-0.217c-0.546-0.287-0.693-0.854-0.735-1.422h0.637
		c0.021,0.462,0.133,1.086,1.051,1.086c0.63,0,1.071-0.386,1.071-0.953c0-0.826-0.729-0.903-1.148-0.903
		c-0.091,0-0.189,0.007-0.28,0.007V123.229z"/>
	<path class="st3" d="M14.575,126.031h-0.658v-3.495h-1.148v-0.49c0.798-0.056,1.127-0.133,1.324-0.938h0.483V126.031z"/>
</g>
<g>
	<path class="st3" d="M93.284,100.995c-1.819,0-2.17-1.936-2.17-3.25s0.351-3.25,2.17-3.25c1.818,0,2.169,1.936,2.169,3.25
		S95.103,100.995,93.284,100.995z M93.284,95.206c-0.91,0-1.324,0.955-1.324,2.539c0,1.585,0.414,2.539,1.324,2.539
		c0.909,0,1.323-0.954,1.323-2.539C94.607,96.161,94.193,95.206,93.284,95.206z"/>
</g>
<g>
	<path class="st3" d="M263.368,26.93c-1.818,0-2.17-1.936-2.17-3.25c0-1.314,0.352-3.25,2.17-3.25s2.17,1.936,2.17,3.25
		C265.538,24.994,265.186,26.93,263.368,26.93z M263.368,21.141c-0.909,0-1.323,0.954-1.323,2.539s0.414,2.539,1.323,2.539
		s1.323-0.955,1.323-2.539S264.277,21.141,263.368,21.141z"/>
</g>
<g>
	<path class="st3" d="M231.537,85.123l-3.322-6.617h6.614L231.537,85.123z"/>
	<line class="st5" x1="231.537" y1="83.631" x2="231.537" y2="67.494"/>
</g>
<polyline class="st4" points="178.285,109.641 178.285,123.499 169.439,123.499 "/>
<g>
	<path class="st3" d="M273.993,100.995c-1.818,0-2.17-1.936-2.17-3.25s0.352-3.25,2.17-3.25s2.17,1.936,2.17,3.25
		S275.811,100.995,273.993,100.995z M273.993,95.206c-0.909,0-1.323,0.955-1.323,2.539c0,1.585,0.414,2.539,1.323,2.539
		s1.323-0.954,1.323-2.539C275.316,96.161,274.902,95.206,273.993,95.206z"/>
</g>
<g>
	<path class="st3" d="M326.614,121.003h2.213c0.938,0,1.422,0.581,1.422,1.268c0,0.329-0.119,0.791-0.673,1.05
		c0.329,0.134,0.911,0.364,0.911,1.227c0,0.805-0.596,1.484-1.709,1.484h-2.164V121.003z M327.292,123.132h1.226
		c0.651,0,1.051-0.196,1.051-0.812c0-0.47-0.287-0.735-1.043-0.735h-1.233V123.132z M327.292,125.45h1.45
		c0.707,0,1.064-0.357,1.064-0.918c0-0.707-0.623-0.848-1.177-0.848h-1.338V125.45z"/>
	<path class="st3" d="M331.234,121.703v-0.7h0.616v0.7H331.234z M331.85,126.031h-0.616v-3.663h0.616V126.031z"/>
	<path class="st3" d="M333.53,122.88v2.381c0,0.287,0.245,0.287,0.371,0.287h0.217v0.483c-0.224,0.021-0.399,0.049-0.462,0.049
		c-0.609,0-0.742-0.343-0.742-0.784v-2.416h-0.498v-0.512h0.498v-1.022h0.616v1.022h0.588v0.512H333.53z"/>
	<path class="st3" d="M336.779,126.031h-0.658v-3.495h-1.149v-0.49c0.799-0.056,1.128-0.133,1.324-0.938h0.483V126.031z"/>
</g>
<polyline class="st4" points="348.355,109.641 348.355,123.499 339.51,123.499 "/>
<line class="st4" x1="359.581" y1="35.183" x2="359.581" y2="45.813"/>
<g>
	<path class="st3" d="M354.079,47.445h2.213c0.938,0,1.422,0.582,1.422,1.268c0,0.33-0.119,0.792-0.673,1.051
		c0.329,0.133,0.911,0.364,0.911,1.226c0,0.806-0.596,1.485-1.709,1.485h-2.164V47.445z M354.757,49.575h1.226
		c0.651,0,1.051-0.196,1.051-0.812c0-0.469-0.287-0.735-1.043-0.735h-1.233V49.575z M354.757,51.892h1.45
		c0.707,0,1.064-0.357,1.064-0.917c0-0.707-0.623-0.847-1.177-0.847h-1.338V51.892z"/>
	<path class="st3" d="M358.699,48.146v-0.701h0.616v0.701H358.699z M359.315,52.474h-0.616v-3.663h0.616V52.474z"/>
	<path class="st3" d="M360.995,49.322v2.381c0,0.287,0.245,0.287,0.371,0.287h0.217v0.483c-0.224,0.021-0.399,0.049-0.462,0.049
		c-0.609,0-0.742-0.343-0.742-0.784v-2.417h-0.498v-0.511h0.498v-1.022h0.616v1.022h0.588v0.511H360.995z"/>
	<path class="st3" d="M363.676,52.607c-1.415,0-1.688-1.506-1.688-2.529c0-1.022,0.273-2.528,1.688-2.528
		c1.414,0,1.688,1.506,1.688,2.528C365.364,51.101,365.09,52.607,363.676,52.607z M363.676,48.103c-0.708,0-1.029,0.743-1.029,1.975
		c0,1.233,0.321,1.975,1.029,1.975c0.707,0,1.029-0.742,1.029-1.975C364.706,48.846,364.383,48.103,363.676,48.103z"/>
</g>
<g>
	<path class="st3" d="M327.114,47.445h2.213c0.938,0,1.422,0.582,1.422,1.268c0,0.33-0.119,0.792-0.673,1.051
		c0.329,0.133,0.911,0.364,0.911,1.226c0,0.806-0.596,1.485-1.709,1.485h-2.164V47.445z M327.792,49.575h1.226
		c0.651,0,1.051-0.196,1.051-0.812c0-0.469-0.287-0.735-1.043-0.735h-1.233V49.575z M327.792,51.892h1.45
		c0.707,0,1.064-0.357,1.064-0.917c0-0.707-0.623-0.847-1.177-0.847h-1.338V51.892z"/>
	<path class="st3" d="M331.734,48.146v-0.701h0.616v0.701H331.734z M332.35,52.474h-0.616v-3.663h0.616V52.474z"/>
	<path class="st3" d="M334.03,49.322v2.381c0,0.287,0.245,0.287,0.371,0.287h0.217v0.483c-0.224,0.021-0.399,0.049-0.462,0.049
		c-0.609,0-0.742-0.343-0.742-0.784v-2.417h-0.498v-0.511h0.498v-1.022h0.616v1.022h0.588v0.511H334.03z"/>
	<path class="st3" d="M337.279,52.474h-0.658v-3.495h-1.149v-0.49c0.799-0.056,1.128-0.133,1.324-0.938h0.483V52.474z"/>
</g>
<polyline class="st4" points="348.355,35.183 348.355,49.942 339.51,49.942 "/>
<path class="st3" d="M188.378,32.685l2.324,4.631h-4.63L188.378,32.685z"/>
<line class="st4" x1="188.378" y1="35.183" x2="188.378" y2="45.813"/>
<g>
	<path class="st3" d="M181.298,47.445h2.213c0.938,0,1.422,0.582,1.422,1.268c0,0.33-0.119,0.792-0.672,1.051
		c0.329,0.133,0.911,0.364,0.911,1.226c0,0.806-0.596,1.485-1.709,1.485h-2.165V47.445z M181.978,49.575h1.226
		c0.651,0,1.05-0.196,1.05-0.812c0-0.469-0.287-0.735-1.043-0.735h-1.232V49.575z M181.978,51.892h1.45
		c0.708,0,1.064-0.357,1.064-0.917c0-0.707-0.623-0.847-1.177-0.847h-1.337V51.892z"/>
	<path class="st3" d="M185.918,48.146v-0.701h0.616v0.701H185.918z M186.535,52.474h-0.616v-3.663h0.616V52.474z"/>
	<path class="st3" d="M188.214,49.322v2.381c0,0.287,0.246,0.287,0.372,0.287h0.217v0.483c-0.224,0.021-0.399,0.049-0.462,0.049
		c-0.609,0-0.743-0.343-0.743-0.784v-2.417h-0.497v-0.511h0.497v-1.022h0.616v1.022h0.588v0.511H188.214z"/>
	<path class="st3" d="M191.463,52.474h-0.658v-3.495h-1.148v-0.49c0.798-0.056,1.127-0.133,1.324-0.938h0.483V52.474z"/>
	<path class="st3" d="M193.59,49.609c0.21-0.161,0.512-0.308,0.952-0.308c0.799,0,1.618,0.561,1.618,1.576
		c0,0.546-0.245,1.73-1.786,1.73c-0.645,0-1.471-0.259-1.589-1.359h0.637c0.062,0.574,0.49,0.826,1.043,0.826
		c0.638,0,1.037-0.511,1.037-1.127c0-0.708-0.483-1.093-1.093-1.093c-0.357,0-0.68,0.168-0.91,0.469l-0.532-0.028l0.371-2.641h2.549
		v0.603H193.8L193.59,49.609z"/>
</g>
<g>
	<path d="M108.671,79.174h0.583v1.728h1.727v0.584h-1.727v1.727h-0.583v-1.727h-1.735v-0.584h1.735V79.174z"/>
	<path d="M114.167,83.212h-0.752v-3.99h-1.311v-0.56c0.912-0.063,1.287-0.151,1.511-1.071h0.552V83.212z"/>
</g>
<g>
	<path class="st3" d="M273.993,26.93c-1.818,0-2.17-1.936-2.17-3.25c0-1.314,0.352-3.25,2.17-3.25s2.17,1.936,2.17,3.25
		C276.163,24.994,275.811,26.93,273.993,26.93z M273.993,21.141c-0.909,0-1.323,0.954-1.323,2.539s0.414,2.539,1.323,2.539
		s1.323-0.955,1.323-2.539S274.902,21.141,273.993,21.141z"/>
</g>
<g>
	<path class="st3" d="M102.381,24.393h-0.752v-3.99h-1.311v-0.56c0.912-0.064,1.287-0.152,1.511-1.072h0.552V24.393z"/>
	<path class="st3" d="M107.292,20.267c-0.088-0.496-0.359-0.863-0.967-0.863c-1.104,0-1.335,1.487-1.335,2.079l0.016,0.016
		c0.176-0.304,0.568-0.688,1.335-0.688c0.688,0,1.759,0.44,1.759,1.783c0,0.576-0.152,0.991-0.536,1.407
		c-0.296,0.328-0.631,0.543-1.423,0.543c-0.432,0-1.047-0.192-1.447-0.815c-0.335-0.528-0.432-1.215-0.432-1.951
		c0-1.231,0.4-3.006,2.079-3.006c0.647,0,1.567,0.352,1.639,1.495H107.292z M106.269,23.914c0.672,0,1.104-0.528,1.104-1.288
		c0-0.496-0.264-1.183-1.135-1.183c-0.776,0-1.151,0.56-1.151,1.223C105.086,23.266,105.446,23.914,106.269,23.914z"/>
	<path class="st3" d="M108.871,24.393v-5.741h0.704v2.087h0.016c0.304-0.44,0.719-0.64,1.207-0.648c1.111,0,1.743,0.912,1.743,2.087
		c0,1-0.416,2.335-1.839,2.335c-0.712,0-1.008-0.408-1.151-0.64h-0.016v0.52H108.871z M110.669,20.723
		c-1.016,0-1.127,1.095-1.127,1.775c0,1.111,0.696,1.407,1.144,1.407c0.768,0,1.127-0.696,1.127-1.615
		C111.813,21.755,111.757,20.723,110.669,20.723z"/>
	<path class="st3" d="M113.391,19.452v-0.799h0.704v0.799H113.391z M114.094,24.393h-0.704v-4.182h0.704V24.393z"/>
	<path class="st3" d="M116.014,20.795v2.719c0,0.328,0.28,0.328,0.424,0.328h0.248v0.552c-0.256,0.024-0.456,0.056-0.527,0.056
		c-0.696,0-0.848-0.392-0.848-0.896v-2.759h-0.568v-0.583h0.568v-1.167h0.704v1.167h0.671v0.583H116.014z"/>
	<path class="st3" d="M121.461,18.533c-0.68,1.279-1.087,2.047-1.087,3.966c0,1.319,0.456,2.295,1.095,3.55h-0.472
		c-0.832-1.248-1.375-2.247-1.375-3.742c0-1.407,0.487-2.542,1.351-3.774H121.461z"/>
	<path class="st3" d="M123.27,24.393h-0.832v-0.848h0.832V24.393z"/>
	<path class="st3" d="M129.116,18.653v3.726c0,1.175-0.736,2.167-2.311,2.167c-1.543,0-2.207-0.991-2.207-2.063v-3.83h0.775v3.614
		c0,1.248,0.76,1.591,1.455,1.591c0.712,0,1.511-0.328,1.511-1.575v-3.63H129.116z"/>
	<path class="st3" d="M130.022,26.049c0.68-1.279,1.087-2.047,1.087-3.966c0-1.319-0.456-2.295-1.095-3.55h0.472
		c0.832,1.248,1.375,2.247,1.375,3.742c0,1.407-0.488,2.542-1.351,3.774H130.022z"/>
</g>
<g>
	<path class="st3" d="M101.433,48.108c0.12,0.008,0.248,0.016,0.368,0.016c0.544,0,1.071-0.216,1.071-0.919
		c0-0.336-0.2-0.888-1.039-0.888c-1,0-1.063,0.815-1.096,1.208h-0.688c0-0.824,0.336-1.839,1.815-1.839
		c1.087,0,1.735,0.624,1.735,1.479c0,0.719-0.416,1.063-0.72,1.159v0.016c0.543,0.176,0.936,0.56,0.936,1.311
		c0,0.919-0.592,1.807-2.023,1.807c-0.416,0-0.768-0.104-1.04-0.248c-0.624-0.328-0.792-0.975-0.839-1.623h0.728
		c0.024,0.528,0.152,1.239,1.199,1.239c0.72,0,1.224-0.439,1.224-1.087c0-0.944-0.832-1.032-1.312-1.032
		c-0.104,0-0.216,0.008-0.32,0.008V48.108z"/>
	<path class="st3" d="M104.441,47.7c0-1.831,1.335-2.015,1.943-2.015c0.975,0,1.759,0.632,1.759,1.679
		c0,1.007-0.664,1.431-1.503,1.879l-0.584,0.32c-0.768,0.424-0.936,0.864-0.967,1.08h3.054v0.664h-3.846
		c0.04-1.167,0.567-1.791,1.319-2.231l0.743-0.432c0.6-0.344,1.032-0.576,1.032-1.311c0-0.448-0.288-1.016-1.111-1.016
		c-1.063,0-1.111,0.992-1.135,1.383H104.441z"/>
	<path class="st3" d="M109.001,51.306v-5.741h0.704v2.087h0.016c0.304-0.44,0.719-0.64,1.207-0.648c1.111,0,1.743,0.912,1.743,2.087
		c0,1-0.416,2.335-1.839,2.335c-0.712,0-1.008-0.408-1.151-0.64h-0.016v0.52H109.001z M110.8,47.636
		c-1.016,0-1.127,1.095-1.127,1.775c0,1.111,0.696,1.407,1.144,1.407c0.768,0,1.127-0.695,1.127-1.615
		C111.944,48.667,111.888,47.636,110.8,47.636z"/>
	<path class="st3" d="M113.521,46.365v-0.799h0.704v0.799H113.521z M114.225,51.306h-0.704v-4.182h0.704V51.306z"/>
	<path class="st3" d="M116.145,47.708v2.719c0,0.328,0.28,0.328,0.424,0.328h0.248v0.552c-0.256,0.024-0.456,0.056-0.527,0.056
		c-0.696,0-0.848-0.392-0.848-0.896v-2.759h-0.568v-0.583h0.568v-1.167h0.704v1.167h0.671v0.583H116.145z"/>
	<path class="st3" d="M121.592,45.445c-0.68,1.279-1.087,2.047-1.087,3.966c0,1.319,0.456,2.295,1.095,3.55h-0.472
		c-0.832-1.248-1.375-2.247-1.375-3.742c0-1.407,0.487-2.542,1.351-3.774H121.592z"/>
	<path class="st3" d="M123.401,51.306h-0.832v-0.848h0.832V51.306z"/>
	<path class="st3" d="M124.745,45.565h2.327c1.495,0,2.415,1.135,2.415,2.791c0,1.287-0.56,2.95-2.447,2.95h-2.295V45.565z
		 M125.521,50.642h1.503c1.007,0,1.663-0.792,1.663-2.239s-0.664-2.175-1.719-2.175h-1.447V50.642z"/>
	<path class="st3" d="M130.153,52.961c0.68-1.279,1.087-2.047,1.087-3.966c0-1.319-0.456-2.295-1.095-3.55h0.472
		c0.832,1.248,1.375,2.247,1.375,3.742c0,1.407-0.488,2.542-1.351,3.774H130.153z"/>
</g>
<polyline class="st6" points="183.637,88.172 183.637,105.89 2.928,105.89 "/>
<polyline class="st6" points="364.345,88.172 364.345,105.89 183.637,105.89 "/>
<polyline class="st6" points="364.345,14.107 364.345,31.824 183.637,31.824 "/>
<path class="st3" d="M348.355,32.685l2.324,4.631h-4.629L348.355,32.685z"/>
<path class="st3" d="M359.581,32.685l2.324,4.631h-4.629L359.581,32.685z"/>
<path class="st3" d="M348.355,107.142l2.324,4.631h-4.629L348.355,107.142z"/>
<path class="st3" d="M359.581,107.142l2.324,4.631h-4.629L359.581,107.142z"/>
<path class="st3" d="M178.285,107.142l2.324,4.631h-4.629L178.285,107.142z"/>
<path class="st3" d="M188.617,107.142l2.324,4.631h-4.629L188.617,107.142z"/>
<path class="st3" d="M7.976,107.249l2.324,4.631H5.671L7.976,107.249z"/>
<line class="st4" x1="7.976" y1="109.748" x2="7.976" y2="119.878"/>
<g>
	<path class="st3" d="M152.755,20.871l-6.617,3.322V17.58L152.755,20.871z"/>
	<line class="st5" x1="151.264" y1="20.871" x2="135.126" y2="20.871"/>
</g>
<g>
	<path class="st3" d="M149.75,59.137l-7.344-0.94l3.693-5.486L149.75,59.137z"/>
	<line class="st5" x1="148.512" y1="58.304" x2="135.126" y2="49.293"/>
</g>
<g>
</g>
<g>
</g>
<g>
</g>
<g>
</g>
<g>
</g>
</svg>
