<?xml version="1.0" encoding="utf-8"?>
<!-- Generator: Adobe Illustrator 28.2.0, SVG Export Plug-In . SVG Version: 6.00 Build 0)  -->
<svg version="1.1" id="儗僀儎乕_1" xmlns="http://www.w3.org/2000/svg" xmlns:xlink="http://www.w3.org/1999/xlink" x="0px"
	 y="0px" width="273.835px" height="37.314px" viewBox="0 0 273.835 37.314" style="enable-background:new 0 0 273.835 37.314;"
	 xml:space="preserve">
<style type="text/css">
	.st0{fill:none;stroke:#000000;}
	.st1{fill:#FFFFFF;}
</style>
<line class="st0" x1="273.335" y1="17.717" x2="0.5" y2="17.717"/>
<g>
	<rect x="220.025" y="14.172" class="st1" width="35.432" height="7.088"/>
</g>
<g>
	<path d="M227.877,14.852h2.526c1.071,0,1.623,0.664,1.623,1.447c0,0.375-0.136,0.903-0.768,1.199
		c0.376,0.152,1.04,0.416,1.04,1.399c0,0.92-0.68,1.695-1.951,1.695h-2.471V14.852z M228.653,17.283h1.399
		c0.743,0,1.199-0.224,1.199-0.928c0-0.536-0.328-0.839-1.191-0.839h-1.407V17.283z M228.653,19.93h1.655
		c0.808,0,1.215-0.408,1.215-1.047c0-0.808-0.711-0.968-1.343-0.968h-1.527V19.93z"/>
	<path d="M236.691,16.532c-0.04-0.888-0.775-1.167-1.423-1.167c-0.487,0-1.312,0.136-1.312,1.007c0,0.488,0.344,0.647,0.68,0.728
		l1.64,0.376c0.743,0.176,1.303,0.624,1.303,1.535c0,1.359-1.263,1.735-2.246,1.735c-1.063,0-1.479-0.32-1.735-0.552
		c-0.488-0.439-0.584-0.919-0.584-1.455h0.728c0,1.04,0.848,1.343,1.583,1.343c0.56,0,1.504-0.144,1.504-0.967
		c0-0.6-0.28-0.792-1.224-1.016l-1.176-0.272c-0.375-0.088-1.223-0.352-1.223-1.351c0-0.896,0.583-1.775,1.975-1.775
		c2.007,0,2.207,1.199,2.238,1.831H236.691z"/>
	<path d="M242.883,20.593h-4.238v-5.741h4.182v0.688h-3.406v1.759h3.143v0.688h-3.143v1.919h3.463V20.593z"/>
	<path d="M243.406,14.852h4.661v0.688h-1.943v5.053h-0.775V15.54h-1.942V14.852z"/>
</g>
<path class="st0" d="M223.569,21.26c-1.957,0-3.544-1.587-3.544-3.544c0-1.957,1.587-3.544,3.544-3.544"/>
<path class="st0" d="M251.914,14.172c1.957,0,3.544,1.587,3.544,3.544c0,1.957-1.587,3.544-3.544,3.544"/>
<line class="st0" x1="0.5" y1="0" x2="0.5" y2="37.314"/>
<line class="st0" x1="273.335" y1="37.314" x2="273.335" y2="0"/>
<g>
	<rect x="18.217" y="14.173" class="st1" width="7.087" height="7.087"/>
	<line class="st0" x1="25.303" y1="14.173" x2="25.303" y2="21.26"/>
	<line class="st0" x1="18.217" y1="21.26" x2="18.217" y2="14.173"/>
</g>
<g>
	<path d="M230.33,4.18h2.327c1.495,0,2.414,1.135,2.414,2.791c0,1.287-0.56,2.95-2.446,2.95h-2.295V4.18z M231.106,9.257h1.504
		c1.007,0,1.663-0.792,1.663-2.239s-0.664-2.175-1.72-2.175h-1.447V9.257z"/>
	<path d="M240.792,9.92V6.53c0-0.168,0.016-0.896,0.016-1.431h-0.016l-1.615,4.821h-0.768l-1.615-4.813h-0.016
		c0,0.528,0.016,1.255,0.016,1.423v3.39h-0.751V4.18h1.111l1.639,4.853h0.017l1.631-4.853h1.104V9.92H240.792z"/>
	<path d="M244.345,10.072c-1.615,0-1.927-1.719-1.927-2.886c0-1.167,0.312-2.887,1.927-2.887s1.927,1.719,1.927,2.887
		C246.272,8.353,245.96,10.072,244.345,10.072z M244.345,4.931c-0.808,0-1.175,0.848-1.175,2.255s0.367,2.255,1.175,2.255
		s1.176-0.848,1.176-2.255S245.153,4.931,244.345,4.931z"/>
</g>
<g>
	<path d="M11.726,7.324c-0.216-1.007-1.056-1.191-1.607-1.191c-1.04,0-1.879,0.768-1.879,2.279c0,1.351,0.479,2.391,1.903,2.391
		c0.504,0,1.375-0.24,1.639-1.575h0.751c-0.32,2.167-2.079,2.263-2.51,2.263c-1.304,0-2.583-0.848-2.583-3.054
		c0-1.767,1.008-2.99,2.679-2.99c1.479,0,2.247,0.919,2.359,1.879H11.726z"/>
	<path d="M14.343,11.338h-0.775V5.597h2.654c0.944,0,1.887,0.328,1.887,1.543c0,0.848-0.432,1.159-0.799,1.375
		c0.328,0.136,0.655,0.28,0.688,1.079l0.048,1.04c0.008,0.32,0.048,0.44,0.288,0.576v0.128h-0.952
		c-0.112-0.352-0.136-1.223-0.136-1.439c0-0.472-0.096-1.023-1.023-1.023h-1.879V11.338z M14.343,8.211h1.799
		c0.567,0,1.167-0.144,1.167-0.991c0-0.888-0.648-0.959-1.032-0.959h-1.935V8.211z"/>
	<path d="M18.991,7.732c0-1.831,1.335-2.015,1.943-2.015c0.975,0,1.759,0.632,1.759,1.679c0,1.007-0.664,1.431-1.503,1.879
		l-0.584,0.32c-0.768,0.424-0.936,0.864-0.967,1.08h3.054v0.664h-3.846c0.04-1.167,0.567-1.791,1.319-2.231l0.743-0.432
		c0.6-0.344,1.032-0.576,1.032-1.311c0-0.448-0.288-1.016-1.111-1.016c-1.063,0-1.111,0.992-1.135,1.383H18.991z"/>
	<path d="M25.311,11.49c-1.615,0-1.927-1.719-1.927-2.886s0.312-2.887,1.927-2.887s1.927,1.719,1.927,2.887
		S26.926,11.49,25.311,11.49z M25.311,6.349c-0.808,0-1.175,0.848-1.175,2.255s0.368,2.254,1.175,2.254s1.175-0.847,1.175-2.254
		S26.118,6.349,25.311,6.349z"/>
	<path d="M29.759,11.49c-1.615,0-1.927-1.719-1.927-2.886s0.312-2.887,1.927-2.887c1.615,0,1.927,1.719,1.927,2.887
		S31.374,11.49,29.759,11.49z M29.759,6.349c-0.808,0-1.175,0.848-1.175,2.255s0.368,2.254,1.175,2.254s1.175-0.847,1.175-2.254
		S30.566,6.349,29.759,6.349z"/>
	<path d="M32.335,7.732c0-1.831,1.335-2.015,1.943-2.015c0.975,0,1.759,0.632,1.759,1.679c0,1.007-0.664,1.431-1.503,1.879
		l-0.584,0.32c-0.768,0.424-0.936,0.864-0.967,1.08h3.054v0.664h-3.846c0.04-1.167,0.567-1.791,1.319-2.231l0.743-0.432
		c0.6-0.344,1.032-0.576,1.032-1.311c0-0.448-0.288-1.016-1.111-1.016c-1.063,0-1.111,0.992-1.135,1.383H32.335z"/>
</g>
<g>
	<path d="M223.879,25.441h2.327c1.495,0,2.414,1.135,2.414,2.791c0,1.287-0.56,2.95-2.446,2.95h-2.295V25.441z M224.655,30.518
		h1.504c1.007,0,1.663-0.792,1.663-2.239s-0.664-2.175-1.72-2.175h-1.447V30.518z"/>
	<path d="M234.341,31.182v-3.39c0-0.168,0.016-0.896,0.016-1.431h-0.016l-1.615,4.821h-0.768l-1.615-4.813h-0.016
		c0,0.528,0.016,1.255,0.016,1.423v3.39h-0.751v-5.741h1.111l1.639,4.853h0.017l1.631-4.853h1.104v5.741H234.341z"/>
	<path d="M238.541,31.182h-0.751v-3.99h-1.312v-0.56c0.911-0.064,1.287-0.152,1.511-1.072h0.552V31.182z"/>
	<path d="M241.903,31.333c-1.615,0-1.927-1.719-1.927-2.886c0-1.167,0.312-2.887,1.927-2.887s1.927,1.719,1.927,2.887
		C243.829,29.614,243.518,31.333,241.903,31.333z M241.903,26.192c-0.808,0-1.175,0.848-1.175,2.255s0.367,2.255,1.175,2.255
		s1.176-0.848,1.176-2.255S242.71,26.192,241.903,26.192z"/>
	<path d="M246.35,31.333c-1.615,0-1.927-1.719-1.927-2.886c0-1.167,0.312-2.887,1.927-2.887s1.927,1.719,1.927,2.887
		C248.277,29.614,247.965,31.333,246.35,31.333z M246.35,26.192c-0.808,0-1.175,0.848-1.175,2.255s0.367,2.255,1.175,2.255
		s1.176-0.848,1.176-2.255S247.157,26.192,246.35,26.192z"/>
	<path d="M250.798,31.333c-1.615,0-1.927-1.719-1.927-2.886c0-1.167,0.312-2.887,1.927-2.887s1.927,1.719,1.927,2.887
		C252.725,29.614,252.413,31.333,250.798,31.333z M250.798,26.192c-0.808,0-1.175,0.848-1.175,2.255s0.367,2.255,1.175,2.255
		s1.176-0.848,1.176-2.255S251.606,26.192,250.798,26.192z"/>
</g>
</svg>
