<?xml version="1.0" encoding="utf-8"?>
<!-- Generator: Adobe Illustrator 28.2.0, SVG Export Plug-In . SVG Version: 6.00 Build 0)  -->
<svg version="1.1" id="レイヤー_1" xmlns="http://www.w3.org/2000/svg" xmlns:xlink="http://www.w3.org/1999/xlink" x="0px"
	 y="0px" width="27.353px" height="22.202px" viewBox="0 0 27.353 22.202" style="enable-background:new 0 0 27.353 22.202;"
	 xml:space="preserve">
<style type="text/css">
	.st0{fill:#231815;}
	.st1{fill:none;stroke:#000000;}
	.st2{fill:#FFFFFF;}
</style>
<g>
	<path class="st0" d="M7.451,20.762h-0.62v-4.591h2.123c0.754,0,1.509,0.263,1.509,1.234c0,0.678-0.346,0.927-0.64,1.1
		c0.262,0.108,0.524,0.224,0.55,0.863l0.038,0.831c0.007,0.256,0.039,0.352,0.23,0.46v0.103H9.881
		c-0.09-0.281-0.108-0.979-0.108-1.15c0-0.378-0.077-0.818-0.818-0.818H7.451V20.762z M7.451,18.262H8.89
		c0.454,0,0.934-0.115,0.934-0.793c0-0.709-0.518-0.767-0.824-0.767H7.451V18.262z"/>
	<path class="st0" d="M12.667,20.883c-1.291,0-1.541-1.374-1.541-2.308s0.25-2.308,1.541-2.308s1.541,1.374,1.541,2.308
		S13.958,20.883,12.667,20.883z M12.667,16.772c-0.646,0-0.939,0.678-0.939,1.803s0.294,1.803,0.939,1.803s0.939-0.678,0.939-1.803
		S13.312,16.772,12.667,16.772z"/>
	<path class="st0" d="M16.225,20.883c-1.291,0-1.541-1.374-1.541-2.308s0.25-2.308,1.541-2.308c1.292,0,1.541,1.374,1.541,2.308
		S17.517,20.883,16.225,20.883z M16.225,16.772c-0.646,0-0.939,0.678-0.939,1.803s0.294,1.803,0.939,1.803s0.939-0.678,0.939-1.803
		S16.87,16.772,16.225,16.772z"/>
	<path class="st0" d="M19.821,20.762h-0.601v-3.19h-1.049v-0.447c0.729-0.052,1.029-0.122,1.209-0.856h0.44V20.762z"/>
</g>
<g>
	<line class="st1" x1="0" y1="10.985" x2="27.353" y2="10.985"/>
	<g>
		<rect x="4.535" y="7.58" class="st2" width="18.282" height="6.379"/>
		<line class="st1" x1="22.818" y1="7.58" x2="22.818" y2="13.958"/>
		<line class="st1" x1="4.535" y1="13.958" x2="4.535" y2="7.58"/>
	</g>
</g>
<g>
	<path class="st0" d="M7.439,0.722H9.3c1.196,0,1.932,0.908,1.932,2.231c0,1.03-0.448,2.359-1.957,2.359H7.439V0.722z M8.06,4.781
		h1.202c0.806,0,1.33-0.633,1.33-1.79s-0.53-1.739-1.375-1.739H8.06V4.781z"/>
	<path class="st0" d="M15.808,5.312V2.601c0-0.134,0.013-0.716,0.013-1.145h-0.013l-1.292,3.855h-0.613L12.61,1.463h-0.013
		c0,0.422,0.013,1.003,0.013,1.138v2.711H12.01v-4.59h0.889l1.311,3.881h0.013l1.305-3.881h0.882v4.59H15.808z"/>
	<path class="st0" d="M18.651,5.434c-1.291,0-1.541-1.375-1.541-2.308s0.25-2.308,1.541-2.308s1.541,1.375,1.541,2.308
		S19.942,5.434,18.651,5.434z M18.651,1.322c-0.646,0-0.939,0.678-0.939,1.803c0,1.125,0.294,1.803,0.939,1.803
		s0.939-0.678,0.939-1.803C19.591,2,19.297,1.322,18.651,1.322z"/>
</g>
<g>
	<path class="st0" d="M13.295,9.743C13.122,8.937,12.451,8.79,12.01,8.79c-0.831,0-1.502,0.614-1.502,1.822
		c0,1.08,0.384,1.911,1.521,1.911c0.402,0,1.1-0.191,1.311-1.259h0.601c-0.255,1.733-1.662,1.809-2.007,1.809
		c-1.042,0-2.065-0.678-2.065-2.442c0-1.413,0.806-2.391,2.142-2.391c1.183,0,1.797,0.735,1.887,1.502H13.295z"/>
	<path class="st0" d="M15.985,13.073c-1.291,0-1.541-1.374-1.541-2.308s0.25-2.308,1.541-2.308s1.541,1.375,1.541,2.308
		S17.276,13.073,15.985,13.073z M15.985,8.963c-0.646,0-0.939,0.677-0.939,1.803c0,1.125,0.294,1.803,0.939,1.803
		s0.939-0.678,0.939-1.803C16.925,9.64,16.631,8.963,15.985,8.963z"/>
</g>
<g>
</g>
<g>
</g>
<g>
</g>
<g>
</g>
<g>
</g>
<g>
</g>
<g>
</g>
<g>
</g>
<g>
</g>
<g>
</g>
<g>
</g>
<g>
</g>
<g>
</g>
<g>
</g>
<g>
</g>
</svg>
