<?xml version="1.0" encoding="utf-8"?>
<!-- Generator: Adobe Illustrator 28.2.0, SVG Export Plug-In . SVG Version: 6.00 Build 0)  -->
<svg version="1.1" id="儗僀儎乕_1" xmlns="http://www.w3.org/2000/svg" xmlns:xlink="http://www.w3.org/1999/xlink" x="0px"
	 y="0px" width="455.016px" height="145.243px" viewBox="0 0 455.016 145.243" style="enable-background:new 0 0 455.016 145.243;"
	 xml:space="preserve">
<style type="text/css">
	.st0{fill:#CCCCCC;}
	.st1{fill:none;stroke:#000000;}
	.st2{fill:none;stroke:#000000;stroke-width:0.3;}
	.st3{fill:#FFFFFF;}
	.st4{fill:#FFFFFF;stroke:#000000;}
</style>
<rect x="398.161" y="124.457" class="st0" width="34.082" height="17.578"/>
<polyline class="st1" points="223.961,141.621 398.161,141.621 398.161,124.042 432.247,124.042 432.247,141.621 454.274,141.621 
	"/>
<g>
	<path d="M210.899,23.012c-1.607,0-2.099-1.337-2.099-2.267s0.492-2.267,2.099-2.267c1.607,0,2.099,1.337,2.099,2.267
		S212.507,23.012,210.899,23.012z M210.899,18.994c-0.935,0-1.499,0.738-1.499,1.751c0,1.014,0.564,1.751,1.499,1.751
		c0.936,0,1.5-0.737,1.5-1.751C212.399,19.732,211.835,18.994,210.899,18.994z"/>
	<path d="M214.332,22.898h-0.582v-4.306h2.98v0.516h-2.399v1.319h2.111v0.516h-2.111V22.898z"/>
	<path d="M217.998,22.898h-0.582v-4.306h2.98v0.516h-2.399v1.319h2.111v0.516h-2.111V22.898z"/>
</g>
<g>
	<path d="M212.399,5.094c-1.607,0-2.099-1.337-2.099-2.267s0.492-2.267,2.099-2.267c1.607,0,2.099,1.337,2.099,2.267
		S214.007,5.094,212.399,5.094z M212.399,1.076c-0.935,0-1.499,0.738-1.499,1.751c0,1.014,0.564,1.751,1.499,1.751
		c0.936,0,1.5-0.737,1.5-1.751C213.899,1.814,213.335,1.076,212.399,1.076z"/>
	<path d="M218.045,0.674h0.564V4.98h-0.654l-2.189-3.478h-0.012V4.98h-0.564V0.674h0.69l2.153,3.478h0.012V0.674z"/>
</g>
<g>
	<path d="M210.899,51.45c-1.607,0-2.099-1.338-2.099-2.267c0-0.93,0.492-2.268,2.099-2.268c1.607,0,2.099,1.338,2.099,2.268
		C212.998,50.112,212.507,51.45,210.899,51.45z M210.899,47.431c-0.935,0-1.499,0.738-1.499,1.752c0,1.013,0.564,1.751,1.499,1.751
		c0.936,0,1.5-0.738,1.5-1.751C212.399,48.169,211.835,47.431,210.899,47.431z"/>
	<path d="M214.332,51.335h-0.582V47.03h2.98v0.516h-2.399v1.319h2.111v0.516h-2.111V51.335z"/>
	<path d="M217.998,51.335h-0.582V47.03h2.98v0.516h-2.399v1.319h2.111v0.516h-2.111V51.335z"/>
</g>
<g>
	<path d="M212.399,33.531c-1.607,0-2.099-1.337-2.099-2.267s0.492-2.267,2.099-2.267c1.607,0,2.099,1.337,2.099,2.267
		S214.007,33.531,212.399,33.531z M212.399,29.514c-0.935,0-1.499,0.738-1.499,1.751c0,1.014,0.564,1.751,1.499,1.751
		c0.936,0,1.5-0.737,1.5-1.751C213.899,30.251,213.335,29.514,212.399,29.514z"/>
	<path d="M218.045,29.112h0.564v4.306h-0.654l-2.189-3.478h-0.012v3.478h-0.564v-4.306h0.69l2.153,3.478h0.012V29.112z"/>
</g>
<polyline class="st1" points="224.116,20.952 229.898,20.952 229.898,3.452 241.304,3.452 241.304,20.952 246.773,20.952 
	246.773,3.452 258.076,3.452 258.076,20.952 263.336,20.952 263.336,3.452 275.054,3.452 275.054,20.952 280.211,20.952 
	280.211,3.452 291.929,3.452 291.929,20.952 297.086,20.952 297.086,3.452 303.074,3.452 303.074,20.952 308.44,20.952 
	308.44,3.452 314.273,3.452 314.273,20.952 320.003,20.952 320.003,3.452 325.367,3.452 325.367,20.952 330.94,20.952 330.94,3.452 
	336.616,3.452 336.616,20.952 364.69,20.952 364.69,3.452 370.68,3.452 370.68,20.952 375.94,20.952 375.94,3.452 382.086,3.452 
	382.086,20.952 387.19,20.952 387.19,3.452 393.18,3.452 393.18,20.952 398.44,20.952 398.44,3.452 404.325,3.452 404.325,20.952 
	455.016,20.952 "/>
<polyline class="st1" points="223.961,31.577 432.294,31.577 432.294,49.39 437.399,49.39 437.399,31.577 454.274,31.577 "/>
<polyline class="st1" points="224.273,109.235 229.898,109.235 229.898,102.941 246.773,102.941 246.773,99.57 263.336,99.57 
	263.336,95.759 280.211,95.759 280.211,92.053 297.086,92.053 297.086,88.608 308.44,88.608 308.44,81.755 320.003,81.755 
	320.003,78.046 330.94,78.046 330.94,74.289 364.69,74.289 364.69,70.793 375.94,70.793 375.94,67.084 387.19,67.084 387.19,63.747 
	398.44,63.747 398.44,59.91 432.086,59.91 432.086,109.516 454.274,109.516 "/>
<line class="st2" x1="207.398" y1="109.545" x2="432.086" y2="109.545"/>
<line class="st2" x1="207.398" y1="60.328" x2="432.086" y2="60.328"/>
<line class="st2" x1="229.898" y1="20.952" x2="229.898" y2="102.941"/>
<line class="st2" x1="246.773" y1="20.952" x2="246.773" y2="102.941"/>
<line class="st2" x1="263.648" y1="20.952" x2="263.648" y2="95.441"/>
<line class="st2" x1="280.523" y1="20.744" x2="280.523" y2="96.171"/>
<line class="st2" x1="297.398" y1="20.952" x2="297.398" y2="92.316"/>
<line class="st2" x1="308.753" y1="20.952" x2="308.753" y2="81.691"/>
<line class="st2" x1="320.107" y1="20.952" x2="320.107" y2="78.254"/>
<line class="st2" x1="331.044" y1="20.952" x2="331.044" y2="74.504"/>
<line class="st2" x1="398.544" y1="18.296" x2="398.544" y2="124.66"/>
<line class="st2" x1="432.19" y1="32.046" x2="432.19" y2="124.66"/>
<g>
	<g>
		<path class="st3" d="M351.618,15.001c0,0,4.274,3.472,0,10.951"/>
		<path class="st3" d="M351.618,36.905c0,0-4.274-3.472,0-10.952"/>
		<path class="st3" d="M349.747,15.001c0,0,4.275,3.472,0,10.951"/>
		<path class="st3" d="M349.747,36.905c0,0-4.274-3.472,0-10.952"/>
		<path class="st3" d="M351.618,25.953c4.274-7.479,0-10.951,0-10.951h-1.87c0,0,4.275,3.472,0,10.951"/>
		<path class="st3" d="M349.747,25.953c-4.274,7.48,0,10.952,0,10.952h1.87c0,0-4.274-3.472,0-10.952"/>
	</g>
	<path class="st2" d="M351.618,15.001c0,0,4.274,3.472,0,10.951"/>
	<path class="st2" d="M351.618,36.905c0,0-4.274-3.472,0-10.952"/>
	<path class="st2" d="M349.747,15.001c0,0,4.275,3.472,0,10.951"/>
	<path class="st2" d="M349.747,36.905c0,0-4.274-3.472,0-10.952"/>
	<path class="st2" d="M351.618,25.953c4.274-7.479,0-10.951,0-10.951"/>
	<path class="st2" d="M351.618,36.905c0,0-4.274-3.472,0-10.952"/>
	<path class="st2" d="M349.747,15.001c0,0,4.275,3.472,0,10.951"/>
	<path class="st2" d="M349.747,25.953c-4.274,7.48,0,10.952,0,10.952"/>
</g>
<g>
	<g>
		<path class="st3" d="M351.618,63.439c0,0,4.274,3.472,0,10.95"/>
		<path class="st3" d="M351.618,85.344c0,0-4.274-3.474,0-10.954"/>
		<path class="st3" d="M349.747,63.439c0,0,4.275,3.472,0,10.95"/>
		<path class="st3" d="M349.747,85.344c0,0-4.274-3.474,0-10.954"/>
		<path class="st3" d="M351.618,74.389c4.274-7.478,0-10.95,0-10.95h-1.87c0,0,4.275,3.472,0,10.95"/>
		<path class="st3" d="M349.747,74.389c-4.274,7.48,0,10.954,0,10.954h1.87c0,0-4.274-3.474,0-10.954"/>
	</g>
	<path class="st2" d="M351.618,63.439c0,0,4.274,3.472,0,10.95"/>
	<path class="st2" d="M351.618,85.344c0,0-4.274-3.474,0-10.954"/>
	<path class="st2" d="M349.747,63.439c0,0,4.275,3.472,0,10.95"/>
	<path class="st2" d="M349.747,85.344c0,0-4.274-3.474,0-10.954"/>
	<path class="st2" d="M351.618,74.389c4.274-7.478,0-10.95,0-10.95"/>
	<path class="st2" d="M351.618,85.344c0,0-4.274-3.474,0-10.954"/>
	<path class="st2" d="M349.747,63.439c0,0,4.275,3.472,0,10.95"/>
	<path class="st2" d="M349.747,74.389c-4.274,7.48,0,10.954,0,10.954"/>
</g>
<g>
	<g>
		<path class="st3" d="M351.618,122.502c0,0,4.274,3.472,0,10.95"/>
		<path class="st3" d="M351.618,144.406c0,0-4.274-3.474,0-10.954"/>
		<path class="st3" d="M349.747,122.502c0,0,4.275,3.472,0,10.95"/>
		<path class="st3" d="M349.747,144.406c0,0-4.274-3.474,0-10.954"/>
		<path class="st3" d="M351.618,133.452c4.274-7.478,0-10.95,0-10.95h-1.87c0,0,4.275,3.472,0,10.95"/>
		<path class="st3" d="M349.747,133.452c-4.274,7.48,0,10.954,0,10.954h1.87c0,0-4.274-3.474,0-10.954"/>
	</g>
	<path class="st2" d="M351.618,122.502c0,0,4.274,3.472,0,10.95"/>
	<path class="st2" d="M351.618,144.406c0,0-4.274-3.474,0-10.954"/>
	<path class="st2" d="M349.747,122.502c0,0,4.275,3.472,0,10.95"/>
	<path class="st2" d="M349.747,144.406c0,0-4.274-3.474,0-10.954"/>
	<path class="st2" d="M351.618,133.452c4.274-7.478,0-10.95,0-10.95"/>
	<path class="st2" d="M351.618,144.406c0,0-4.274-3.474,0-10.954"/>
	<path class="st2" d="M349.747,122.502c0,0,4.275,3.472,0,10.95"/>
	<path class="st2" d="M349.747,133.452c-4.274,7.48,0,10.954,0,10.954"/>
</g>
<path d="M229.844,3.488l3.322,6.617h-6.614L229.844,3.488z"/>
<path d="M246.719,3.488l3.322,6.617h-6.614L246.719,3.488z"/>
<path d="M263.359,3.488l3.322,6.617h-6.614L263.359,3.488z"/>
<path d="M280.234,3.488l3.322,6.617h-6.614L280.234,3.488z"/>
<path d="M297.031,3.488l3.322,6.617h-6.614L297.031,3.488z"/>
<path d="M308.438,3.488l3.322,6.617h-6.614L308.438,3.488z"/>
<path d="M320.078,3.488l3.322,6.617h-6.614L320.078,3.488z"/>
<path d="M330.938,3.488l3.322,6.617h-6.614L330.938,3.488z"/>
<path d="M364.688,3.488l3.322,6.617h-6.614L364.688,3.488z"/>
<path d="M375.938,3.488l3.322,6.617h-6.614L375.938,3.488z"/>
<path d="M387.109,3.488l3.322,6.617h-6.614L387.109,3.488z"/>
<path d="M398.463,3.488l3.323,6.617h-6.614L398.463,3.488z"/>
<path d="M432.379,49.305l-3.32-6.618h6.614L432.379,49.305z"/>
<g>
	<g>
		<path d="M181.995,139.146c-0.216-1.008-1.056-1.191-1.607-1.191c-1.04,0-1.879,0.768-1.879,2.278c0,1.352,0.479,2.391,1.903,2.391
			c0.504,0,1.375-0.239,1.639-1.574h0.751c-0.32,2.166-2.079,2.263-2.51,2.263c-1.304,0-2.583-0.848-2.583-3.055
			c0-1.767,1.008-2.99,2.679-2.99c1.479,0,2.247,0.919,2.359,1.879H181.995z"/>
	</g>
	<g>
		<path d="M192.125,137.562h0.658v5.028h-0.763l-2.557-4.062h-0.014v4.062h-0.658v-5.028h0.806l2.514,4.062h0.014V137.562z"/>
		<path d="M196.156,142.59v-0.532l-0.014-0.014c-0.259,0.427-0.574,0.651-1.163,0.651c-0.54,0-1.191-0.26-1.191-1.135v-2.634h0.617
			v2.431c0,0.603,0.308,0.806,0.707,0.806c0.777,0,1.009-0.687,1.009-1.219v-2.018h0.616v3.663H196.156z"/>
		<path d="M197.66,138.927h0.582v0.519h0.014c0.133-0.196,0.448-0.623,1.106-0.623s0.869,0.398,0.974,0.595
			c0.308-0.343,0.553-0.595,1.121-0.595c0.392,0,1.134,0.203,1.134,1.232v2.535h-0.616v-2.367c0-0.504-0.154-0.848-0.679-0.848
			c-0.519,0-0.862,0.49-0.862,0.98v2.234h-0.616v-2.535c0-0.309-0.119-0.68-0.574-0.68c-0.35,0-0.966,0.225-0.966,1.219v1.996
			h-0.617V138.927z"/>
	</g>
</g>
<g>
	<path d="M176.35,34.811h4.662V35.5h-1.943v5.053h-0.776V35.5h-1.943V34.811z"/>
	<path d="M181.486,40.552h-0.704v-4.182h0.664v0.695h0.016c0.28-0.487,0.647-0.815,1.175-0.815c0.088,0,0.128,0.008,0.184,0.024
		v0.728h-0.264c-0.656,0-1.071,0.512-1.071,1.119V40.552z"/>
	<path d="M183.486,35.611v-0.8h0.704v0.8H183.486z M184.189,40.552h-0.704v-4.182h0.704V40.552z"/>
	<path d="M188.716,40.208c0,0.6-0.008,2.103-1.943,2.103c-0.496,0-1.463-0.136-1.599-1.247h0.704
		c0.128,0.664,0.775,0.664,0.943,0.664c1.215,0,1.191-0.976,1.191-1.472v-0.176h-0.016v0.032c-0.184,0.296-0.551,0.56-1.111,0.56
		c-1.423,0-1.839-1.335-1.839-2.335c0-1.176,0.632-2.087,1.743-2.087c0.759,0,1.079,0.472,1.247,0.712h0.016v-0.592h0.664V40.208z
		 M186.901,40.065c0.448,0,1.144-0.296,1.144-1.407c0-0.68-0.112-1.775-1.127-1.775c-1.087,0-1.144,1.031-1.144,1.567
		C185.773,39.369,186.133,40.065,186.901,40.065z"/>
	<path d="M193.164,40.208c0,0.6-0.008,2.103-1.943,2.103c-0.496,0-1.463-0.136-1.599-1.247h0.704
		c0.128,0.664,0.775,0.664,0.943,0.664c1.215,0,1.191-0.976,1.191-1.472v-0.176h-0.016v0.032c-0.184,0.296-0.551,0.56-1.111,0.56
		c-1.423,0-1.839-1.335-1.839-2.335c0-1.176,0.632-2.087,1.743-2.087c0.759,0,1.079,0.472,1.247,0.712h0.016v-0.592h0.664V40.208z
		 M191.349,40.065c0.448,0,1.144-0.296,1.144-1.407c0-0.68-0.112-1.775-1.127-1.775c-1.087,0-1.144,1.031-1.144,1.567
		C190.222,39.369,190.581,40.065,191.349,40.065z"/>
	<path d="M197.692,39.241c-0.024,0.2-0.216,0.792-0.744,1.144c-0.192,0.128-0.464,0.288-1.135,0.288
		c-1.175,0-1.871-0.888-1.871-2.095c0-1.296,0.624-2.327,2.007-2.327c1.208,0,1.799,0.96,1.799,2.438h-3.054
		c0,0.872,0.408,1.376,1.215,1.376c0.664,0,1.056-0.512,1.08-0.824H197.692z M197.02,38.129c-0.04-0.647-0.312-1.247-1.167-1.247
		c-0.648,0-1.16,0.6-1.16,1.247H197.02z"/>
	<path d="M199.389,40.552h-0.704v-4.182h0.664v0.695h0.016c0.28-0.487,0.647-0.815,1.175-0.815c0.088,0,0.128,0.008,0.184,0.024
		v0.728h-0.264c-0.656,0-1.071,0.512-1.071,1.119V40.552z"/>
</g>
<g>
	<path d="M183.554,112.127c-0.576,0.328-1.255,0.464-1.927,0.464c-2.126,0-3.35-1.447-3.35-3.262c0-2.063,1.535-3.295,3.342-3.295
		c0.72,0,1.335,0.185,1.935,0.576l-0.256,0.688c-0.208-0.16-0.736-0.576-1.695-0.576c-1.623,0-2.575,1.191-2.575,2.591
		c0,1.239,0.76,2.591,2.655,2.591c1.04,0,1.583-0.4,1.871-0.607V112.127z"/>
	<path d="M186.571,107.626c1.231,0,2.327,0.919,2.327,2.486c0,1.551-1.095,2.479-2.319,2.479c-1.231,0-2.327-0.92-2.327-2.479
		C184.252,108.538,185.356,107.626,186.571,107.626z M186.571,111.936c0.688,0,1.607-0.448,1.607-1.823s-0.919-1.823-1.599-1.823
		s-1.607,0.439-1.607,1.823C184.972,111.488,185.899,111.936,186.571,111.936z"/>
	<path d="M193.602,107.754v4.709h-0.719v-0.624c-0.496,0.744-1.328,0.752-1.479,0.752c-0.735,0-1.167-0.392-1.351-0.752
		c-0.176-0.359-0.2-0.688-0.2-1.431v-2.654h0.712v2.654c0,0.743,0,1.527,1.016,1.527c0.224,0,1.303-0.057,1.303-1.527v-2.654
		H193.602z"/>
	<path d="M194.812,112.463v-4.709h0.712v0.623c0.36-0.544,0.959-0.751,1.479-0.751c0.736,0,1.175,0.392,1.352,0.751
		c0.176,0.36,0.208,0.712,0.208,1.432v2.654h-0.719v-2.654c0-0.735,0-1.527-1.016-1.527c-0.224,0-1.303,0.063-1.303,1.527v2.654
		H194.812z"/>
	<path d="M199.916,106.403h0.712v1.352h1.431v0.663h-1.431v2.687c0,0.439,0,0.832,0.728,0.832c0.104,0,0.288-0.009,0.64-0.057v0.656
		c-0.168,0.023-0.416,0.056-0.744,0.056c-1.303,0-1.335-0.783-1.335-1.487v-2.687h-0.607v-0.663h0.607V106.403z"/>
</g>
<g>
	<g>
		<path d="M188.437,11.214c-0.04-0.887-0.775-1.167-1.423-1.167c-0.488,0-1.311,0.136-1.311,1.007c0,0.488,0.344,0.647,0.68,0.728
			l1.639,0.376c0.744,0.176,1.304,0.624,1.304,1.535c0,1.359-1.264,1.735-2.247,1.735c-1.063,0-1.479-0.32-1.735-0.552
			c-0.488-0.439-0.584-0.919-0.584-1.455h0.728c0,1.04,0.847,1.343,1.583,1.343c0.56,0,1.503-0.144,1.503-0.967
			c0-0.6-0.28-0.792-1.223-1.016l-1.175-0.272c-0.376-0.088-1.224-0.352-1.224-1.351c0-0.896,0.584-1.775,1.975-1.775
			c2.007,0,2.207,1.199,2.239,1.831H188.437z"/>
		<path d="M191.022,15.276h-0.704v-4.182h0.664v0.696h0.016c0.28-0.488,0.647-0.816,1.175-0.816c0.088,0,0.128,0.008,0.184,0.024
			v0.728h-0.264c-0.656,0-1.071,0.512-1.071,1.12V15.276z"/>
		<path d="M195.341,12.502c-0.088-0.56-0.4-0.896-0.991-0.896c-0.872,0-1.151,0.832-1.151,1.575c0,0.719,0.176,1.607,1.143,1.607
			c0.472,0,0.879-0.352,1-0.991h0.68c-0.072,0.664-0.48,1.599-1.703,1.599c-1.175,0-1.871-0.888-1.871-2.095
			c0-1.295,0.624-2.327,2.007-2.327c1.096,0,1.511,0.8,1.567,1.527H195.341z"/>
		<path d="M196.559,11.67c0-1.831,1.335-2.015,1.943-2.015c0.975,0,1.759,0.632,1.759,1.679c0,1.007-0.664,1.431-1.503,1.879
			l-0.584,0.32c-0.768,0.424-0.936,0.864-0.967,1.08h3.054v0.664h-3.846c0.04-1.167,0.567-1.791,1.319-2.231l0.744-0.432
			c0.6-0.344,1.031-0.576,1.031-1.311c0-0.448-0.288-1.016-1.111-1.016c-1.063,0-1.111,0.992-1.136,1.383H196.559z"/>
	</g>
</g>
<g>
	<path d="M188.474,59.756c-0.04-0.888-0.775-1.168-1.423-1.168c-0.488,0-1.311,0.137-1.311,1.008c0,0.487,0.344,0.647,0.68,0.728
		l1.639,0.376c0.744,0.176,1.304,0.624,1.304,1.535c0,1.359-1.264,1.735-2.247,1.735c-1.063,0-1.479-0.32-1.735-0.552
		c-0.488-0.44-0.584-0.92-0.584-1.456h0.728c0,1.04,0.847,1.344,1.583,1.344c0.56,0,1.503-0.144,1.503-0.968
		c0-0.6-0.28-0.791-1.223-1.015l-1.175-0.272c-0.376-0.088-1.224-0.352-1.224-1.352c0-0.896,0.584-1.774,1.975-1.774
		c2.007,0,2.207,1.199,2.239,1.831H188.474z"/>
	<path d="M191.059,63.818h-0.704v-4.182h0.664v0.695h0.016c0.28-0.487,0.647-0.815,1.175-0.815c0.088,0,0.128,0.008,0.184,0.024
		v0.728h-0.264c-0.656,0-1.071,0.512-1.071,1.119V63.818z"/>
	<path d="M195.378,61.043c-0.088-0.56-0.4-0.896-0.991-0.896c-0.872,0-1.151,0.831-1.151,1.575c0,0.72,0.176,1.607,1.143,1.607
		c0.472,0,0.879-0.353,1-0.992h0.68c-0.072,0.664-0.48,1.6-1.703,1.6c-1.175,0-1.871-0.888-1.871-2.095
		c0-1.296,0.624-2.327,2.007-2.327c1.096,0,1.511,0.8,1.567,1.527H195.378z"/>
	<path d="M199.115,63.818h-0.752v-3.99h-1.311v-0.56c0.912-0.063,1.287-0.151,1.511-1.071h0.552V63.818z"/>
</g>
<g>
	<path d="M410.51,137.354c-2.143,0-2.799-1.783-2.799-3.022s0.656-3.022,2.799-3.022s2.799,1.783,2.799,3.022
		S412.653,137.354,410.51,137.354z M410.51,131.997c-1.247,0-1.999,0.983-1.999,2.335c0,1.351,0.752,2.334,1.999,2.334
		s1.999-0.983,1.999-2.334C412.509,132.98,411.757,131.997,410.51,131.997z"/>
	<path d="M418.037,131.46h0.751v5.741h-0.871l-2.919-4.638h-0.016v4.638h-0.752v-5.741h0.92l2.87,4.638h0.017V131.46z"/>
</g>
<g>
	<path d="M237.977,111.577h-0.751v-3.99h-1.312v-0.56c0.911-0.063,1.287-0.151,1.511-1.071h0.552V111.577z"/>
</g>
<g>
	<path d="M252.437,104.326c0-1.83,1.336-2.015,1.943-2.015c0.976,0,1.759,0.632,1.759,1.68c0,1.007-0.664,1.431-1.503,1.879
		l-0.584,0.319c-0.768,0.424-0.936,0.863-0.968,1.079h3.055v0.664h-3.846c0.04-1.167,0.567-1.791,1.319-2.23l0.743-0.432
		c0.6-0.345,1.031-0.576,1.031-1.312c0-0.448-0.287-1.016-1.111-1.016c-1.063,0-1.111,0.991-1.135,1.383H252.437z"/>
</g>
<g>
	<path d="M270.648,101.088c0.12,0.008,0.248,0.016,0.368,0.016c0.543,0,1.071-0.216,1.071-0.919c0-0.336-0.2-0.888-1.04-0.888
		c-0.999,0-1.063,0.815-1.095,1.207h-0.688c0-0.823,0.335-1.839,1.814-1.839c1.088,0,1.735,0.624,1.735,1.479
		c0,0.72-0.416,1.063-0.72,1.159v0.016c0.544,0.177,0.936,0.561,0.936,1.312c0,0.92-0.592,1.808-2.023,1.808
		c-0.415,0-0.768-0.104-1.039-0.248c-0.624-0.328-0.792-0.976-0.84-1.623h0.728c0.024,0.527,0.152,1.239,1.2,1.239
		c0.719,0,1.223-0.44,1.223-1.088c0-0.943-0.831-1.031-1.312-1.031c-0.104,0-0.216,0.008-0.319,0.008V101.088z"/>
</g>
<g>
	<path d="M289.506,99.584v1.367h-0.704v-1.367h-2.454v-0.688l2.574-3.566h0.584v3.646h0.823v0.607H289.506z M286.995,98.977h1.807
		v-2.551h-0.016L286.995,98.977z"/>
</g>
<g>
	<path d="M301.283,94.141c0.239-0.184,0.583-0.352,1.087-0.352c0.911,0,1.847,0.64,1.847,1.799c0,0.624-0.279,1.976-2.038,1.976
		c-0.736,0-1.68-0.296-1.815-1.552h0.728c0.072,0.656,0.56,0.943,1.191,0.943c0.728,0,1.184-0.583,1.184-1.287
		c0-0.808-0.552-1.247-1.248-1.247c-0.407,0-0.775,0.191-1.039,0.535l-0.607-0.031l0.424-3.015h2.91v0.688h-2.383L301.283,94.141z"
		/>
</g>
<g>
	<path d="M314.97,86.401c-0.088-0.495-0.359-0.863-0.968-0.863c-1.103,0-1.335,1.487-1.335,2.079l0.017,0.016
		c0.176-0.304,0.567-0.688,1.335-0.688c0.688,0,1.759,0.439,1.759,1.783c0,0.575-0.151,0.991-0.535,1.407
		c-0.296,0.327-0.632,0.544-1.424,0.544c-0.432,0-1.047-0.192-1.447-0.816c-0.336-0.527-0.432-1.215-0.432-1.95
		c0-1.231,0.4-3.007,2.079-3.007c0.647,0,1.567,0.352,1.639,1.495H314.97z M313.947,90.047c0.672,0,1.104-0.528,1.104-1.287
		c0-0.496-0.264-1.184-1.136-1.184c-0.775,0-1.151,0.56-1.151,1.224C312.763,89.4,313.123,90.047,313.947,90.047z"/>
</g>
<g>
	<path d="M323.078,81.251h3.886v0.615c-0.56,0.584-1.903,2.375-2.311,4.886h-0.775c0.191-1.543,1.215-3.558,2.294-4.813h-3.094
		V81.251z"/>
</g>
<g>
	<path d="M368.228,75.558c0-1.023,0.624-1.927,1.807-1.927c1.791,0,1.967,1.695,1.967,2.606c0,0.6-0.104,3.167-2.038,3.167
		c-1.319,0-1.672-0.96-1.672-1.504h0.704c0.04,0.568,0.376,0.92,0.951,0.92c0.768,0,1.176-0.647,1.352-2.103l-0.017-0.017
		c-0.207,0.432-0.768,0.672-1.287,0.672C368.955,77.374,368.228,76.678,368.228,75.558z M371.178,75.462
		c0-0.64-0.328-1.199-1.136-1.199c-0.655,0-1.087,0.512-1.087,1.264c0,1.079,0.672,1.215,1.144,1.215
		C370.466,76.742,371.178,76.574,371.178,75.462z"/>
</g>
<g>
	<path d="M380.348,75.527h-0.601v-3.99h-1.049v-0.56c0.729-0.063,1.029-0.151,1.209-1.071h0.44V75.527z"/>
	<path d="M383.037,75.679c-1.291,0-1.541-1.72-1.541-2.887c0-1.168,0.25-2.887,1.541-2.887s1.541,1.719,1.541,2.887
		C384.578,73.959,384.328,75.679,383.037,75.679z M383.037,70.538c-0.646,0-0.939,0.848-0.939,2.255s0.294,2.255,0.939,2.255
		s0.939-0.848,0.939-2.255S383.683,70.538,383.037,70.538z"/>
</g>
<g>
	<path d="M391.816,72.324h-0.601v-3.99h-1.049v-0.56c0.729-0.063,1.029-0.151,1.209-1.071h0.44V72.324z"/>
	<path d="M394.638,72.324h-0.601v-3.99h-1.049v-0.56c0.729-0.063,1.029-0.151,1.209-1.071h0.44V72.324z"/>
</g>
<g>
	<path d="M406.015,64.918c-0.034-0.777-0.679-1.022-1.246-1.022c-0.428,0-1.148,0.119-1.148,0.882c0,0.428,0.301,0.567,0.595,0.638
		l1.437,0.329c0.651,0.154,1.142,0.546,1.142,1.345c0,1.19-1.107,1.52-1.969,1.52c-0.932,0-1.296-0.28-1.52-0.483
		c-0.428-0.385-0.512-0.805-0.512-1.274h0.638c0,0.91,0.742,1.177,1.387,1.177c0.49,0,1.316-0.126,1.316-0.848
		c0-0.525-0.245-0.693-1.071-0.89l-1.029-0.237c-0.329-0.077-1.071-0.309-1.071-1.185c0-0.784,0.511-1.555,1.729-1.555
		c1.758,0,1.933,1.051,1.961,1.604H406.015z"/>
	<path d="M408.275,68.476h-0.616v-3.663h0.581v0.609h0.015c0.245-0.427,0.567-0.714,1.029-0.714c0.077,0,0.112,0.007,0.161,0.021
		v0.638h-0.231c-0.574,0-0.938,0.448-0.938,0.98V68.476z"/>
	<path d="M412.056,66.045c-0.077-0.49-0.35-0.784-0.868-0.784c-0.764,0-1.009,0.729-1.009,1.38c0,0.63,0.154,1.408,1.002,1.408
		c0.413,0,0.771-0.309,0.875-0.869h0.596c-0.063,0.581-0.42,1.401-1.492,1.401c-1.029,0-1.639-0.777-1.639-1.835
		c0-1.135,0.547-2.038,1.758-2.038c0.96,0,1.324,0.7,1.373,1.337H412.056z"/>
	<path d="M415.326,68.476h-0.658v-3.495h-1.149v-0.49c0.799-0.056,1.128-0.133,1.324-0.938h0.483V68.476z"/>
</g>
<g>
	<path d="M336.862,79.836c0.76,0.319,0.92,0.943,0.92,1.367c0,0.903-0.576,1.775-1.903,1.775c-0.312,0-0.903-0.08-1.351-0.433
		c-0.576-0.455-0.576-1.062-0.576-1.335c0-0.688,0.36-1.127,0.951-1.367c-0.479-0.184-0.759-0.567-0.759-1.096
		c0-0.583,0.359-1.543,1.703-1.543c1.247,0,1.734,0.792,1.734,1.447C337.581,79.46,337.11,79.708,336.862,79.836z M334.703,81.228
		c0,0.447,0.224,1.119,1.199,1.119c0.512,0,1.127-0.185,1.127-1.063c0-0.76-0.527-1.096-1.167-1.096
		C335.071,80.188,334.703,80.708,334.703,81.228z M336.854,78.677c0-0.344-0.224-0.84-1.047-0.84c-0.752,0-0.936,0.52-0.936,0.88
		c0,0.535,0.472,0.863,0.983,0.863C336.462,79.581,336.854,79.189,336.854,78.677z"/>
</g>
<line class="st1" x1="0.5" y1="21.674" x2="124.516" y2="21.674"/>
<line class="st1" x1="0.5" y1="3.958" x2="0.5" y2="83.681"/>
<line class="st1" x1="124.516" y1="3.958" x2="124.516" y2="83.681"/>
<g>
	<rect x="18.217" y="18.132" class="st3" width="7.087" height="7.087"/>
	<line class="st1" x1="25.303" y1="18.132" x2="25.303" y2="25.219"/>
	<line class="st1" x1="18.217" y1="25.219" x2="18.217" y2="18.132"/>
</g>
<line class="st1" x1="0.5" y1="64.194" x2="124.516" y2="64.194"/>
<g>
	<rect x="18.217" y="60.651" class="st3" width="7.087" height="7.087"/>
	<line class="st1" x1="25.303" y1="60.651" x2="25.303" y2="67.739"/>
	<line class="st1" x1="18.217" y1="67.739" x2="18.217" y2="60.651"/>
</g>
<path class="st4" d="M103.546,64.193c0,1.958-1.587,3.545-3.545,3.545c-1.955,0-3.542-1.587-3.542-3.545
	c0-1.955,1.587-3.541,3.542-3.541C101.959,60.651,103.546,62.237,103.546,64.193z"/>
<g>
	<rect x="82.286" y="18.132" class="st3" width="35.432" height="7.087"/>
	<line class="st1" x1="117.719" y1="18.132" x2="117.719" y2="25.219"/>
	<line class="st1" x1="82.286" y1="25.219" x2="82.286" y2="18.132"/>
</g>
<g>
	<path d="M13.524,14.134h-0.775V8.393h2.654c0.944,0,1.887,0.328,1.887,1.543c0,0.848-0.432,1.159-0.799,1.375
		c0.328,0.136,0.655,0.28,0.688,1.079l0.048,1.04c0.008,0.32,0.048,0.44,0.288,0.576v0.128h-0.952
		c-0.112-0.352-0.136-1.223-0.136-1.439c0-0.472-0.096-1.023-1.023-1.023h-1.879V14.134z M13.524,11.007h1.799
		c0.567,0,1.167-0.144,1.167-0.991c0-0.888-0.648-0.959-1.032-0.959h-1.935V11.007z"/>
	<path d="M20.043,14.286c-1.615,0-1.927-1.719-1.927-2.886s0.312-2.887,1.927-2.887s1.927,1.719,1.927,2.887
		S21.659,14.286,20.043,14.286z M20.043,9.145c-0.808,0-1.175,0.848-1.175,2.255s0.368,2.254,1.175,2.254s1.175-0.847,1.175-2.254
		S20.851,9.145,20.043,9.145z"/>
	<path d="M24.492,14.286c-1.615,0-1.927-1.719-1.927-2.886s0.312-2.887,1.927-2.887s1.927,1.719,1.927,2.887
		S26.107,14.286,24.492,14.286z M24.492,9.145c-0.808,0-1.175,0.848-1.175,2.255s0.368,2.254,1.175,2.254s1.175-0.847,1.175-2.254
		S25.299,9.145,24.492,9.145z"/>
	<path d="M28.939,14.286c-1.615,0-1.927-1.719-1.927-2.886s0.312-2.887,1.927-2.887c1.615,0,1.927,1.719,1.927,2.887
		S30.555,14.286,28.939,14.286z M28.939,9.145c-0.808,0-1.175,0.848-1.175,2.255s0.368,2.254,1.175,2.254s1.175-0.847,1.175-2.254
		S29.747,9.145,28.939,9.145z"/>
</g>
<g>
	<path d="M95.732,14.134h-0.528l0.232-1.679h-1l-0.232,1.679h-0.528l0.232-1.679h-0.823l0.072-0.503h0.824l0.152-1.136h-0.824
		l0.072-0.503h0.824l0.232-1.679h0.536l-0.232,1.679h0.992l0.231-1.679h0.536l-0.232,1.679h0.823l-0.072,0.503h-0.824l-0.16,1.136
		h0.823l-0.072,0.503h-0.824L95.732,14.134z M94.668,10.815l-0.16,1.136h1l0.152-1.136H94.668z"/>
	<path d="M100.18,14.134h-0.752v-3.99h-1.311v-0.56c0.912-0.064,1.287-0.152,1.511-1.072h0.552V14.134z"/>
	<path d="M101.789,10.528c0-1.831,1.335-2.015,1.943-2.015c0.975,0,1.759,0.632,1.759,1.679c0,1.007-0.664,1.431-1.503,1.879
		l-0.584,0.32c-0.768,0.424-0.936,0.864-0.967,1.08h3.054v0.664h-3.846c0.04-1.167,0.567-1.791,1.319-2.231l0.744-0.432
		c0.6-0.344,1.031-0.576,1.031-1.311c0-0.448-0.288-1.016-1.111-1.016c-1.063,0-1.111,0.992-1.136,1.383H101.789z"/>
</g>
<g>
	<path d="M21.13,52.62c-0.216-1.008-1.055-1.191-1.607-1.191c-1.04,0-1.879,0.768-1.879,2.278c0,1.352,0.48,2.391,1.903,2.391
		c0.504,0,1.375-0.239,1.639-1.574h0.751c-0.32,2.166-2.079,2.263-2.51,2.263c-1.303,0-2.583-0.848-2.583-3.055
		c0-1.767,1.007-2.99,2.678-2.99c1.479,0,2.247,0.919,2.359,1.879H21.13z"/>
	<path d="M24.492,56.786c-1.615,0-1.927-1.72-1.927-2.887s0.312-2.887,1.927-2.887s1.927,1.72,1.927,2.887
		S26.107,56.786,24.492,56.786z M24.492,51.644c-0.808,0-1.175,0.848-1.175,2.255s0.368,2.255,1.175,2.255s1.175-0.848,1.175-2.255
		S25.299,51.644,24.492,51.644z"/>
</g>
<g>
	<path d="M98.899,21.188c-0.216-1.007-1.055-1.191-1.607-1.191c-1.04,0-1.879,0.768-1.879,2.279c0,1.351,0.48,2.391,1.903,2.391
		c0.504,0,1.375-0.24,1.639-1.575h0.751c-0.32,2.167-2.079,2.263-2.51,2.263c-1.303,0-2.583-0.848-2.583-3.054
		c0-1.767,1.007-2.99,2.678-2.99c1.479,0,2.247,0.919,2.359,1.879H98.899z"/>
	<path d="M102.26,25.353c-1.615,0-1.927-1.719-1.927-2.886s0.312-2.887,1.927-2.887s1.927,1.719,1.927,2.887
		S103.875,25.353,102.26,25.353z M102.26,20.212c-0.808,0-1.175,0.848-1.175,2.255s0.368,2.254,1.175,2.254s1.175-0.847,1.175-2.254
		S103.068,20.212,102.26,20.212z"/>
</g>
<g>
	<path d="M91.811,34.888h-0.775v-5.741h2.654c0.944,0,1.887,0.328,1.887,1.543c0,0.848-0.432,1.16-0.799,1.375
		c0.328,0.136,0.655,0.28,0.688,1.079l0.048,1.04c0.008,0.319,0.048,0.439,0.288,0.575v0.128h-0.952
		c-0.112-0.352-0.136-1.223-0.136-1.439c0-0.472-0.096-1.023-1.023-1.023h-1.879V34.888z M91.811,31.762h1.799
		c0.567,0,1.167-0.144,1.167-0.991c0-0.888-0.648-0.959-1.032-0.959h-1.935V31.762z"/>
	<path d="M98.33,35.041c-1.615,0-1.927-1.72-1.927-2.887c0-1.167,0.312-2.887,1.927-2.887s1.927,1.719,1.927,2.887
		C100.258,33.321,99.946,35.041,98.33,35.041z M98.33,29.899c-0.808,0-1.175,0.848-1.175,2.255s0.368,2.255,1.175,2.255
		s1.175-0.848,1.175-2.255S99.138,29.899,98.33,29.899z"/>
	<path d="M102.779,35.041c-1.615,0-1.927-1.72-1.927-2.887c0-1.167,0.312-2.887,1.927-2.887s1.927,1.719,1.927,2.887
		C104.706,33.321,104.394,35.041,102.779,35.041z M102.779,29.899c-0.808,0-1.175,0.848-1.175,2.255s0.368,2.255,1.175,2.255
		s1.175-0.848,1.175-2.255S103.586,29.899,102.779,29.899z"/>
	<path d="M107.274,34.888h-0.752v-3.99h-1.311v-0.56c0.912-0.064,1.287-0.152,1.511-1.072h0.552V34.888z"/>
</g>
</svg>
