<?xml version="1.0" encoding="utf-8"?>
<!-- Generator: Adobe Illustrator 28.2.0, SVG Export Plug-In . SVG Version: 6.00 Build 0)  -->
<svg version="1.1" xmlns="http://www.w3.org/2000/svg" xmlns:xlink="http://www.w3.org/1999/xlink" x="0px" y="0px"
	 width="307.939px" height="71.36px" viewBox="0 0 307.939 71.36" style="enable-background:new 0 0 307.939 71.36;"
	 xml:space="preserve">
<style type="text/css">
	.st0{fill:none;stroke:#000000;}
	.st1{fill:#FFFFFF;}
	.st2{fill:#FFFFFF;stroke:#000000;}
</style>
<g id="レイヤー_1">
	<g>
		<line class="st0" x1="0.5" y1="48.599" x2="307.439" y2="48.599"/>
		<g>
			<rect x="20.431" y="44.613" class="st1" width="7.973" height="7.972"/>
			<line class="st0" x1="28.404" y1="44.613" x2="28.404" y2="52.585"/>
			<line class="st0" x1="20.431" y1="52.585" x2="20.431" y2="44.613"/>
		</g>
		<rect x="211.055" y="38.634" class="st2" width="88.411" height="19.93"/>
		<line class="st2" x1="255.638" y1="58.564" x2="255.638" y2="38.634"/>
		<rect x="221.242" y="32.295" class="st1" width="27.232" height="11.077"/>
		<g>
			<path d="M227.665,41.524v-3.39c0-0.168,0.016-0.896,0.016-1.431h-0.016l-1.615,4.821h-0.768l-1.615-4.813h-0.016
				c0,0.528,0.016,1.255,0.016,1.423v3.39h-0.751v-5.741h1.111l1.639,4.853h0.017l1.631-4.853h1.104v5.741H227.665z"/>
			<path d="M232.107,41.675c-2.143,0-2.799-1.783-2.799-3.022c0-1.239,0.656-3.022,2.799-3.022s2.799,1.783,2.799,3.022
				C234.906,39.893,234.249,41.675,232.107,41.675z M232.107,36.318c-1.247,0-1.999,0.983-1.999,2.334
				c0,1.352,0.752,2.335,1.999,2.335s1.999-0.983,1.999-2.335C234.106,37.302,233.354,36.318,232.107,36.318z"/>
			<path d="M239.123,35.783h0.871l-2.095,5.741h-0.823l-2.095-5.741h0.863l1.639,4.893h0.017L239.123,35.783z"/>
			<path d="M240.684,41.524h-0.832v-0.848h0.832V41.524z"/>
			<path d="M242.028,35.783h2.327c1.495,0,2.414,1.135,2.414,2.791c0,1.287-0.56,2.95-2.446,2.95h-2.295V35.783z M242.803,40.86
				h1.504c1.007,0,1.663-0.792,1.663-2.239s-0.664-2.175-1.72-2.175h-1.447V40.86z"/>
		</g>
		<g>
			<path d="M226.525,45.691h2.327c1.495,0,2.414,1.135,2.414,2.791c0,1.287-0.56,2.95-2.446,2.95h-2.295V45.691z M227.3,50.768
				h1.504c1.007,0,1.663-0.792,1.663-2.239s-0.664-2.175-1.72-2.175H227.3V50.768z"/>
			<path d="M236.986,51.432v-3.39c0-0.168,0.016-0.896,0.016-1.431h-0.016l-1.615,4.821h-0.768l-1.615-4.813h-0.016
				c0,0.528,0.016,1.255,0.016,1.423v3.39h-0.751v-5.741h1.111l1.639,4.853h0.017l1.631-4.853h1.104v5.741H236.986z"/>
			<path d="M240.54,51.584c-1.615,0-1.927-1.719-1.927-2.886c0-1.167,0.312-2.887,1.927-2.887s1.927,1.719,1.927,2.887
				C242.466,49.864,242.155,51.584,240.54,51.584z M240.54,46.443c-0.808,0-1.175,0.848-1.175,2.255s0.367,2.255,1.175,2.255
				s1.176-0.848,1.176-2.255S241.347,46.443,240.54,46.443z"/>
		</g>
		<g>
			<path d="M267.722,45.691h2.327c1.495,0,2.414,1.135,2.414,2.791c0,1.287-0.56,2.95-2.446,2.95h-2.295V45.691z M268.498,50.768
				h1.504c1.007,0,1.663-0.792,1.663-2.239s-0.664-2.175-1.72-2.175h-1.447V50.768z"/>
			<path d="M278.183,51.432v-3.39c0-0.168,0.016-0.896,0.016-1.431h-0.016l-1.615,4.821H275.8l-1.615-4.813h-0.016
				c0,0.528,0.016,1.255,0.016,1.423v3.39h-0.751v-5.741h1.111l1.639,4.853h0.017l1.631-4.853h1.104v5.741H278.183z"/>
			<path d="M282.384,51.432h-0.751v-3.99h-1.312v-0.56c0.911-0.064,1.287-0.152,1.511-1.072h0.552V51.432z"/>
			<path d="M285.746,51.584c-1.615,0-1.927-1.719-1.927-2.886c0-1.167,0.312-2.887,1.927-2.887s1.927,1.719,1.927,2.887
				C287.672,49.864,287.361,51.584,285.746,51.584z M285.746,46.443c-0.808,0-1.175,0.848-1.175,2.255s0.367,2.255,1.175,2.255
				s1.176-0.848,1.176-2.255S286.553,46.443,285.746,46.443z"/>
		</g>
		<g>
			<path d="M271.203,31.067h-0.776v-5.741h2.655c0.943,0,1.887,0.328,1.887,1.543c0,0.848-0.432,1.16-0.8,1.375
				c0.328,0.136,0.656,0.28,0.688,1.079l0.049,1.04c0.008,0.32,0.048,0.44,0.287,0.576v0.128h-0.951
				c-0.112-0.352-0.136-1.223-0.136-1.439c0-0.472-0.097-1.023-1.023-1.023h-1.879V31.067z M271.203,27.94h1.799
				c0.567,0,1.167-0.144,1.167-0.991c0-0.888-0.647-0.959-1.031-0.959h-1.935V27.94z"/>
			<path d="M277.721,31.218c-1.615,0-1.927-1.719-1.927-2.886c0-1.167,0.312-2.887,1.927-2.887s1.927,1.719,1.927,2.887
				C279.648,29.499,279.336,31.218,277.721,31.218z M277.721,26.077c-0.808,0-1.175,0.848-1.175,2.255s0.367,2.255,1.175,2.255
				s1.176-0.848,1.176-2.255S278.529,26.077,277.721,26.077z"/>
			<path d="M282.169,31.218c-1.615,0-1.927-1.719-1.927-2.886c0-1.167,0.312-2.887,1.927-2.887s1.927,1.719,1.927,2.887
				C284.096,29.499,283.785,31.218,282.169,31.218z M282.169,26.077c-0.808,0-1.175,0.848-1.175,2.255s0.367,2.255,1.175,2.255
				s1.176-0.848,1.176-2.255S282.977,26.077,282.169,26.077z"/>
			<path d="M286.665,31.067h-0.751v-3.99h-1.312v-0.56c0.911-0.064,1.287-0.152,1.511-1.072h0.552V31.067z"/>
		</g>
		<line class="st0" x1="0.5" y1="18.845" x2="307.439" y2="18.845"/>
		<g>
			<rect x="259.314" y="14.589" class="st1" width="39.86" height="7.973"/>
			<line class="st0" x1="299.175" y1="14.589" x2="299.175" y2="22.562"/>
			<line class="st0" x1="259.314" y1="22.562" x2="259.314" y2="14.589"/>
		</g>
		<g>
			<path d="M271.186,6.014h2.327c1.495,0,2.414,1.135,2.414,2.791c0,1.287-0.56,2.95-2.446,2.95h-2.295V6.014z M271.961,11.091
				h1.504c1.007,0,1.663-0.792,1.663-2.239s-0.664-2.175-1.72-2.175h-1.447V11.091z"/>
			<path d="M281.648,11.755v-3.39c0-0.168,0.016-0.896,0.016-1.431h-0.016l-1.615,4.821h-0.768l-1.615-4.813h-0.016
				c0,0.528,0.016,1.255,0.016,1.423v3.39h-0.751V6.014h1.111l1.639,4.853h0.017l1.631-4.853h1.104v5.741H281.648z"/>
			<path d="M285.201,11.906c-1.615,0-1.927-1.719-1.927-2.886c0-1.167,0.312-2.887,1.927-2.887s1.927,1.719,1.927,2.887
				C287.127,10.187,286.816,11.906,285.201,11.906z M285.201,6.765c-0.808,0-1.175,0.848-1.175,2.255s0.367,2.255,1.175,2.255
				s1.176-0.848,1.176-2.255S286.008,6.765,285.201,6.765z"/>
		</g>
		<g>
			<path d="M278.508,17.291c-0.216-1.008-1.056-1.191-1.607-1.191c-1.039,0-1.879,0.768-1.879,2.279
				c0,1.351,0.479,2.391,1.903,2.391c0.503,0,1.375-0.24,1.639-1.575h0.752c-0.32,2.167-2.079,2.263-2.511,2.263
				c-1.304,0-2.583-0.848-2.583-3.054c0-1.767,1.008-2.99,2.679-2.99c1.479,0,2.247,0.919,2.358,1.879H278.508z"/>
			<path d="M281.87,21.457c-1.615,0-1.927-1.719-1.927-2.886c0-1.167,0.312-2.887,1.927-2.887s1.927,1.719,1.927,2.887
				C283.796,19.737,283.485,21.457,281.87,21.457z M281.87,16.316c-0.808,0-1.175,0.848-1.175,2.255s0.367,2.255,1.175,2.255
				s1.176-0.848,1.176-2.255S282.677,16.316,281.87,16.316z"/>
		</g>
		<g>
			<rect x="20.43" y="14.858" class="st1" width="7.973" height="7.974"/>
			<line class="st0" x1="28.404" y1="14.858" x2="28.404" y2="22.832"/>
			<line class="st0" x1="20.43" y1="22.832" x2="20.43" y2="14.858"/>
		</g>
		<line class="st0" x1="0.5" y1="0" x2="0.5" y2="71.36"/>
		<line class="st0" x1="307.439" y1="0" x2="307.439" y2="71.36"/>
		<g>
		</g>
	</g>
</g>
<g id="レイヤー_2">
</g>
</svg>
