<?xml version="1.0" encoding="utf-8"?>
<!-- Generator: Adobe Illustrator 28.2.0, SVG Export Plug-In . SVG Version: 6.00 Build 0)  -->
<svg version="1.1" id="儗僀儎乕_1" xmlns="http://www.w3.org/2000/svg" xmlns:xlink="http://www.w3.org/1999/xlink" x="0px"
	 y="0px" width="273.835px" height="71.22px" viewBox="0 0 273.835 71.22" style="enable-background:new 0 0 273.835 71.22;"
	 xml:space="preserve">
<style type="text/css">
	.st0{fill:none;stroke:#000000;}
	.st1{fill:#FFFFFF;}
	.st2{fill:#FFFFFF;stroke:#000000;}
</style>
<line class="st0" x1="0.5" y1="17.716" x2="273.335" y2="17.716"/>
<line class="st0" x1="0.5" y1="0" x2="0.5" y2="71.22"/>
<line class="st0" x1="273.335" y1="0" x2="273.335" y2="71.22"/>
<g>
	<rect x="18.217" y="14.174" class="st1" width="7.087" height="7.087"/>
	<line class="st0" x1="25.304" y1="14.174" x2="25.304" y2="21.261"/>
	<line class="st0" x1="18.217" y1="21.261" x2="18.217" y2="14.174"/>
</g>
<line class="st0" x1="0.5" y1="57.401" x2="273.335" y2="57.401"/>
<g>
	<rect x="18.217" y="53.858" class="st1" width="7.087" height="7.087"/>
	<line class="st0" x1="25.304" y1="53.858" x2="25.304" y2="60.946"/>
	<line class="st0" x1="18.217" y1="60.946" x2="18.217" y2="53.858"/>
</g>
<path class="st2" d="M252.075,57.4c0,1.958-1.587,3.545-3.545,3.545c-1.956,0-3.542-1.587-3.542-3.545
	c0-1.956,1.587-3.541,3.542-3.541C250.488,53.858,252.075,55.444,252.075,57.4z"/>
<g>
	<rect x="230.815" y="14.173" class="st1" width="35.432" height="7.087"/>
	<line class="st0" x1="266.247" y1="14.173" x2="266.247" y2="21.26"/>
	<line class="st0" x1="230.815" y1="21.26" x2="230.815" y2="14.173"/>
</g>
<line class="st2" x1="27.101" y1="15.161" x2="16.251" y2="21.426"/>
<g>
	<path d="M14.302,9.468h-0.775V3.727h2.655c0.943,0,1.887,0.328,1.887,1.543c0,0.848-0.432,1.16-0.8,1.375
		c0.328,0.136,0.656,0.28,0.688,1.079l0.048,1.04c0.008,0.32,0.048,0.44,0.288,0.576v0.128H17.34
		c-0.112-0.352-0.136-1.223-0.136-1.439c0-0.472-0.096-1.023-1.023-1.023h-1.879V9.468z M14.302,6.341h1.799
		c0.567,0,1.167-0.144,1.167-0.991c0-0.888-0.647-0.959-1.031-0.959h-1.935V6.341z"/>
	<path d="M20.821,9.619c-1.615,0-1.927-1.719-1.927-2.886c0-1.167,0.312-2.887,1.927-2.887c1.615,0,1.927,1.719,1.927,2.887
		C22.748,7.9,22.436,9.619,20.821,9.619z M20.821,4.478c-0.808,0-1.175,0.848-1.175,2.255s0.368,2.255,1.175,2.255
		s1.175-0.848,1.175-2.255S21.629,4.478,20.821,4.478z"/>
	<path d="M25.269,9.619c-1.615,0-1.927-1.719-1.927-2.886c0-1.167,0.312-2.887,1.927-2.887s1.927,1.719,1.927,2.887
		C27.196,7.9,26.884,9.619,25.269,9.619z M25.269,4.478c-0.808,0-1.175,0.848-1.175,2.255s0.368,2.255,1.175,2.255
		s1.175-0.848,1.175-2.255S26.076,4.478,25.269,4.478z"/>
	<path d="M29.717,9.619c-1.615,0-1.927-1.719-1.927-2.886c0-1.167,0.312-2.887,1.927-2.887s1.927,1.719,1.927,2.887
		C31.644,7.9,31.332,9.619,29.717,9.619z M29.717,4.478c-0.808,0-1.175,0.848-1.175,2.255s0.368,2.255,1.175,2.255
		s1.175-0.848,1.175-2.255S30.525,4.478,29.717,4.478z"/>
</g>
<g>
	<path d="M20.928,45.744c-0.216-1.008-1.055-1.191-1.607-1.191c-1.04,0-1.879,0.768-1.879,2.278c0,1.352,0.48,2.391,1.903,2.391
		c0.504,0,1.375-0.239,1.639-1.575h0.751c-0.32,2.167-2.079,2.264-2.51,2.264c-1.303,0-2.583-0.848-2.583-3.055
		c0-1.768,1.007-2.99,2.678-2.99c1.479,0,2.247,0.919,2.359,1.879H20.928z"/>
	<path d="M24.289,49.91c-1.615,0-1.927-1.72-1.927-2.887c0-1.168,0.312-2.887,1.927-2.887s1.927,1.719,1.927,2.887
		C26.217,48.19,25.905,49.91,24.289,49.91z M24.289,44.768c-0.808,0-1.175,0.848-1.175,2.255s0.368,2.255,1.175,2.255
		s1.175-0.848,1.175-2.255S25.097,44.768,24.289,44.768z"/>
</g>
<g>
	<path d="M244.952,9.676h-0.527l0.231-1.679h-0.999l-0.231,1.679h-0.528l0.232-1.679h-0.824l0.072-0.503h0.823l0.152-1.136h-0.824
		l0.072-0.503h0.824l0.231-1.679h0.536l-0.232,1.679h0.991l0.232-1.679h0.535l-0.231,1.679h0.823l-0.071,0.503h-0.824l-0.16,1.136
		h0.824l-0.072,0.503h-0.823L244.952,9.676z M243.889,6.358l-0.159,1.136h0.999l0.152-1.136H243.889z"/>
	<path d="M249.401,9.676h-0.751v-3.99h-1.312v-0.56c0.911-0.064,1.287-0.152,1.511-1.072h0.552V9.676z"/>
	<path d="M252.761,9.828c-1.615,0-1.927-1.719-1.927-2.886s0.312-2.887,1.927-2.887s1.927,1.719,1.927,2.887
		S254.376,9.828,252.761,9.828z M252.761,4.687c-0.808,0-1.175,0.848-1.175,2.255s0.367,2.254,1.175,2.254s1.176-0.847,1.176-2.254
		S253.569,4.687,252.761,4.687z"/>
</g>
<g>
	<path d="M240.569,49.758h-0.776v-5.741h2.655c0.943,0,1.887,0.328,1.887,1.544c0,0.847-0.432,1.159-0.8,1.375
		c0.328,0.136,0.656,0.279,0.688,1.079l0.049,1.04c0.008,0.319,0.048,0.439,0.287,0.575v0.128h-0.951
		c-0.112-0.352-0.136-1.224-0.136-1.439c0-0.472-0.097-1.023-1.023-1.023h-1.879V49.758z M240.569,46.632h1.799
		c0.567,0,1.167-0.145,1.167-0.992c0-0.887-0.647-0.959-1.031-0.959h-1.935V46.632z"/>
	<path d="M246.04,46.487c0.239-0.184,0.583-0.352,1.087-0.352c0.911,0,1.847,0.64,1.847,1.799c0,0.624-0.279,1.976-2.038,1.976
		c-0.736,0-1.68-0.296-1.815-1.552h0.728c0.072,0.656,0.56,0.943,1.191,0.943c0.728,0,1.184-0.583,1.184-1.287
		c0-0.808-0.552-1.247-1.247-1.247c-0.408,0-0.776,0.191-1.04,0.535l-0.607-0.031l0.424-3.015h2.91v0.688h-2.383L246.04,46.487z"/>
	<path d="M251.535,49.91c-1.615,0-1.927-1.72-1.927-2.887c0-1.168,0.312-2.887,1.927-2.887s1.927,1.719,1.927,2.887
		C253.462,48.19,253.151,49.91,251.535,49.91z M251.535,44.768c-0.808,0-1.175,0.848-1.175,2.255s0.367,2.255,1.175,2.255
		s1.176-0.848,1.176-2.255S252.343,44.768,251.535,44.768z"/>
	<path d="M255.984,49.91c-1.615,0-1.927-1.72-1.927-2.887c0-1.168,0.312-2.887,1.927-2.887c1.615,0,1.927,1.719,1.927,2.887
		C257.91,48.19,257.599,49.91,255.984,49.91z M255.984,44.768c-0.808,0-1.175,0.848-1.175,2.255s0.367,2.255,1.175,2.255
		c0.808,0,1.176-0.848,1.176-2.255S256.791,44.768,255.984,44.768z"/>
</g>
<g>
	<path d="M248.059,16.756c-0.216-1.007-1.056-1.191-1.607-1.191c-1.039,0-1.879,0.768-1.879,2.279c0,1.351,0.479,2.391,1.903,2.391
		c0.503,0,1.375-0.24,1.639-1.575h0.752c-0.32,2.167-2.079,2.263-2.511,2.263c-1.304,0-2.583-0.848-2.583-3.054
		c0-1.767,1.008-2.99,2.679-2.99c1.479,0,2.247,0.919,2.358,1.879H248.059z"/>
	<path d="M251.419,20.922c-1.615,0-1.927-1.719-1.927-2.886s0.312-2.887,1.927-2.887s1.927,1.719,1.927,2.887
		S253.034,20.922,251.419,20.922z M251.419,15.78c-0.808,0-1.175,0.848-1.175,2.255s0.367,2.254,1.175,2.254
		s1.176-0.847,1.176-2.254S252.227,15.78,251.419,15.78z"/>
</g>
<g>
	<path d="M240.978,30.9h-0.775v-5.741h2.654c0.943,0,1.887,0.328,1.887,1.543c0,0.848-0.432,1.159-0.8,1.375
		c0.328,0.136,0.656,0.28,0.688,1.079l0.048,1.04c0.009,0.32,0.049,0.44,0.288,0.576V30.9h-0.951
		c-0.112-0.352-0.136-1.223-0.136-1.439c0-0.472-0.096-1.023-1.023-1.023h-1.879V30.9z M240.978,27.773h1.799
		c0.567,0,1.167-0.144,1.167-0.991c0-0.888-0.647-0.959-1.031-0.959h-1.935V27.773z"/>
	<path d="M247.497,31.051c-1.615,0-1.927-1.719-1.927-2.886s0.312-2.887,1.927-2.887s1.927,1.719,1.927,2.887
		S249.113,31.051,247.497,31.051z M247.497,25.91c-0.808,0-1.175,0.848-1.175,2.255s0.367,2.254,1.175,2.254
		s1.176-0.847,1.176-2.254S248.305,25.91,247.497,25.91z"/>
	<path d="M251.945,31.051c-1.615,0-1.927-1.719-1.927-2.886s0.312-2.887,1.927-2.887s1.927,1.719,1.927,2.887
		S253.56,31.051,251.945,31.051z M251.945,25.91c-0.808,0-1.175,0.848-1.175,2.255s0.367,2.254,1.175,2.254s1.176-0.847,1.176-2.254
		S252.752,25.91,251.945,25.91z"/>
	<path d="M256.441,30.9h-0.751v-3.99h-1.312v-0.56c0.911-0.064,1.287-0.152,1.511-1.072h0.552V30.9z"/>
</g>
</svg>
