<?xml version="1.0" encoding="utf-8"?>
<!-- Generator: Adobe Illustrator 28.2.0, SVG Export Plug-In . SVG Version: 6.00 Build 0)  -->
<svg version="1.1" id="儗僀儎乕_1" xmlns="http://www.w3.org/2000/svg" xmlns:xlink="http://www.w3.org/1999/xlink" x="0px"
	 y="0px" width="307.939px" height="85.392px" viewBox="0 0 307.939 85.392" style="enable-background:new 0 0 307.939 85.392;"
	 xml:space="preserve">
<style type="text/css">
	.st0{fill:none;stroke:#000000;}
	.st1{fill:#FFFFFF;}
	.st2{fill:#FFFFFF;stroke:#000000;}
	.st3{fill:none;stroke:#000000;stroke-linejoin:bevel;}
</style>
<g>
	<line class="st0" x1="0.5" y1="19.932" x2="307.439" y2="19.932"/>
	<g>
		<rect x="20.432" y="15.945" class="st1" width="7.973" height="7.972"/>
		<line class="st0" x1="28.405" y1="15.945" x2="28.405" y2="23.917"/>
		<line class="st0" x1="20.432" y1="23.917" x2="20.432" y2="15.945"/>
	</g>
	<rect x="219.742" y="9.965" class="st2" width="79.726" height="19.93"/>
	<line class="st2" x1="259.606" y1="29.896" x2="259.606" y2="9.965"/>
	<rect x="225.894" y="3.627" class="st1" width="27.232" height="11.078"/>
	<g>
		<path d="M232.32,12.855v-3.39c0-0.168,0.016-0.896,0.016-1.431h-0.016l-1.615,4.821h-0.768l-1.615-4.813h-0.016
			c0,0.528,0.016,1.255,0.016,1.423v3.39h-0.751V7.114h1.111l1.639,4.853h0.017l1.631-4.853h1.104v5.741H232.32z"/>
		<path d="M236.761,13.007c-2.143,0-2.799-1.783-2.799-3.022c0-1.239,0.656-3.022,2.799-3.022s2.799,1.783,2.799,3.022
			C239.56,11.224,238.904,13.007,236.761,13.007z M236.761,7.65c-1.247,0-1.999,0.983-1.999,2.334c0,1.352,0.752,2.335,1.999,2.335
			s1.999-0.983,1.999-2.335C238.76,8.633,238.009,7.65,236.761,7.65z"/>
		<path d="M243.777,7.114h0.871l-2.095,5.741h-0.823l-2.095-5.741h0.863l1.639,4.893h0.017L243.777,7.114z"/>
		<path d="M245.339,12.855h-0.832v-0.848h0.832V12.855z"/>
		<path d="M246.682,7.114h2.327c1.495,0,2.414,1.135,2.414,2.791c0,1.287-0.56,2.95-2.446,2.95h-2.295V7.114z M247.458,12.191h1.504
			c1.007,0,1.663-0.792,1.663-2.239s-0.664-2.175-1.72-2.175h-1.447V12.191z"/>
	</g>
	<g>
		<path d="M226.802,23.049h-0.527l0.231-1.679h-0.999l-0.231,1.679h-0.528l0.232-1.679h-0.824l0.072-0.503h0.823l0.152-1.136h-0.824
			l0.072-0.503h0.824l0.231-1.679h0.536l-0.232,1.679h0.991l0.232-1.679h0.535l-0.231,1.679h0.823l-0.071,0.503h-0.824l-0.16,1.136
			h0.824l-0.072,0.503h-0.823L226.802,23.049z M225.739,19.731l-0.159,1.136h0.999l0.152-1.136H225.739z"/>
		<path d="M231.251,23.049H230.5v-3.99h-1.312V18.5c0.911-0.064,1.287-0.152,1.511-1.072h0.552V23.049z"/>
		<path d="M234.611,23.201c-1.615,0-1.927-1.719-1.927-2.886c0-1.167,0.312-2.887,1.927-2.887s1.927,1.719,1.927,2.887
			C236.538,21.482,236.226,23.201,234.611,23.201z M234.611,18.06c-0.808,0-1.175,0.848-1.175,2.255s0.367,2.255,1.175,2.255
			s1.176-0.848,1.176-2.255S235.419,18.06,234.611,18.06z"/>
		<path d="M239.059,23.201c-1.615,0-1.927-1.719-1.927-2.886c0-1.167,0.312-2.887,1.927-2.887s1.927,1.719,1.927,2.887
			C240.986,21.482,240.675,23.201,239.059,23.201z M239.059,18.06c-0.808,0-1.175,0.848-1.175,2.255s0.367,2.255,1.175,2.255
			s1.176-0.848,1.176-2.255S239.867,18.06,239.059,18.06z"/>
		<path d="M243.507,23.201c-1.615,0-1.927-1.719-1.927-2.886c0-1.167,0.312-2.887,1.927-2.887s1.927,1.719,1.927,2.887
			C245.433,21.482,245.122,23.201,243.507,23.201z M243.507,18.06c-0.808,0-1.175,0.848-1.175,2.255s0.367,2.255,1.175,2.255
			s1.176-0.848,1.176-2.255S244.314,18.06,243.507,18.06z"/>
		<path d="M247.955,23.201c-1.615,0-1.927-1.719-1.927-2.886c0-1.167,0.312-2.887,1.927-2.887s1.927,1.719,1.927,2.887
			C249.882,21.482,249.57,23.201,247.955,23.201z M247.955,18.06c-0.808,0-1.175,0.848-1.175,2.255s0.367,2.255,1.175,2.255
			s1.176-0.848,1.176-2.255S248.762,18.06,247.955,18.06z"/>
		<path d="M252.403,23.201c-1.615,0-1.927-1.719-1.927-2.886c0-1.167,0.312-2.887,1.927-2.887s1.927,1.719,1.927,2.887
			C254.33,21.482,254.018,23.201,252.403,23.201z M252.403,18.06c-0.808,0-1.175,0.848-1.175,2.255s0.367,2.255,1.175,2.255
			s1.176-0.848,1.176-2.255S253.211,18.06,252.403,18.06z"/>
	</g>
	<g>
		<path d="M278.538,19.036c-0.216-1.008-1.056-1.191-1.607-1.191c-1.039,0-1.879,0.768-1.879,2.279c0,1.351,0.479,2.391,1.903,2.391
			c0.503,0,1.375-0.24,1.639-1.575h0.752c-0.32,2.167-2.079,2.263-2.511,2.263c-1.304,0-2.583-0.848-2.583-3.054
			c0-1.767,1.008-2.99,2.679-2.99c1.479,0,2.247,0.919,2.358,1.879H278.538z"/>
		<path d="M281.899,23.201c-1.615,0-1.927-1.719-1.927-2.886c0-1.167,0.312-2.887,1.927-2.887s1.927,1.719,1.927,2.887
			C283.826,21.482,283.514,23.201,281.899,23.201z M281.899,18.06c-0.808,0-1.175,0.848-1.175,2.255s0.367,2.255,1.175,2.255
			s1.176-0.848,1.176-2.255S282.707,18.06,281.899,18.06z"/>
	</g>
	<line class="st0" x1="0.5" y1="0" x2="0.5" y2="39.528"/>
	<line class="st0" x1="307.439" y1="0" x2="307.439" y2="39.528"/>
	<line class="st0" x1="0.5" y1="45.197" x2="0.5" y2="85.392"/>
	<line class="st0" x1="307.439" y1="45.197" x2="307.439" y2="85.392"/>
	<line class="st0" x1="0.5" y1="65.463" x2="307.439" y2="65.463"/>
	<g>
		<rect x="20.432" y="61.477" class="st1" width="7.973" height="7.973"/>
		<line class="st0" x1="28.405" y1="61.477" x2="28.405" y2="69.45"/>
		<line class="st0" x1="20.432" y1="69.45" x2="20.432" y2="61.477"/>
	</g>
	<g>
		<polygon class="st1" points="295.844,69.465 299.468,65.479 295.844,61.493 263.228,61.493 259.606,65.479 263.228,69.465 		"/>
		<polyline class="st3" points="263.228,69.465 259.606,65.479 263.228,61.493 		"/>
		<polyline class="st3" points="295.844,61.493 299.468,65.479 295.844,69.465 		"/>
	</g>
	<g>
		<path d="M269.683,62.262h2.327c1.495,0,2.414,1.136,2.414,2.791c0,1.287-0.56,2.95-2.446,2.95h-2.295V62.262z M270.459,67.339
			h1.504c1.007,0,1.663-0.791,1.663-2.238s-0.664-2.175-1.72-2.175h-1.447V67.339z"/>
		<path d="M276.93,68.003h-0.815l-1.495-5.741h0.84l1.071,4.67h0.016l1.287-4.67h0.848l1.287,4.67h0.017l1.071-4.67h0.855
			l-1.511,5.741h-0.816l-1.311-4.758h-0.017L276.93,68.003z"/>
		<path d="M282.931,68.003h-0.832v-0.848h0.832V68.003z"/>
		<path d="M284.275,62.262h2.327c1.495,0,2.414,1.136,2.414,2.791c0,1.287-0.56,2.95-2.446,2.95h-2.295V62.262z M285.051,67.339
			h1.504c1.007,0,1.663-0.791,1.663-2.238s-0.664-2.175-1.72-2.175h-1.447V67.339z"/>
	</g>
	<g>
		<path d="M266.743,58.642h-0.527l0.231-1.679h-0.999l-0.232,1.679h-0.527l0.232-1.679h-0.824l0.072-0.504h0.823l0.152-1.136h-0.823
			l0.071-0.503h0.823l0.232-1.679h0.535l-0.231,1.679h0.991l0.232-1.679h0.535l-0.231,1.679h0.823l-0.072,0.503h-0.823l-0.16,1.136
			h0.824l-0.072,0.504h-0.823L266.743,58.642z M265.679,55.324l-0.159,1.136h0.999l0.152-1.136H265.679z"/>
		<path d="M271.191,58.642h-0.751v-3.989h-1.312v-0.56c0.911-0.064,1.287-0.152,1.511-1.072h0.552V58.642z"/>
		<path d="M274.552,58.794c-1.615,0-1.927-1.72-1.927-2.887s0.312-2.886,1.927-2.886s1.927,1.719,1.927,2.886
			S276.167,58.794,274.552,58.794z M274.552,53.653c-0.808,0-1.175,0.848-1.175,2.254c0,1.407,0.367,2.255,1.175,2.255
			s1.176-0.848,1.176-2.255C275.727,54.501,275.359,53.653,274.552,53.653z"/>
		<path d="M279,58.794c-1.615,0-1.927-1.72-1.927-2.887s0.312-2.886,1.927-2.886s1.927,1.719,1.927,2.886S280.615,58.794,279,58.794
			z M279,53.653c-0.808,0-1.175,0.848-1.175,2.254c0,1.407,0.367,2.255,1.175,2.255s1.176-0.848,1.176-2.255
			C280.176,54.501,279.807,53.653,279,53.653z"/>
		<path d="M283.448,58.794c-1.615,0-1.927-1.72-1.927-2.887s0.312-2.886,1.927-2.886s1.927,1.719,1.927,2.886
			S285.063,58.794,283.448,58.794z M283.448,53.653c-0.808,0-1.175,0.848-1.175,2.254c0,1.407,0.367,2.255,1.175,2.255
			s1.176-0.848,1.176-2.255C284.624,54.501,284.256,53.653,283.448,53.653z"/>
		<path d="M287.895,58.794c-1.615,0-1.927-1.72-1.927-2.887s0.312-2.886,1.927-2.886s1.927,1.719,1.927,2.886
			S289.51,58.794,287.895,58.794z M287.895,53.653c-0.808,0-1.175,0.848-1.175,2.254c0,1.407,0.367,2.255,1.175,2.255
			s1.176-0.848,1.176-2.255C289.071,54.501,288.703,53.653,287.895,53.653z"/>
		<path d="M292.344,58.794c-1.615,0-1.927-1.72-1.927-2.887s0.312-2.886,1.927-2.886s1.927,1.719,1.927,2.886
			S293.959,58.794,292.344,58.794z M292.344,53.653c-0.808,0-1.175,0.848-1.175,2.254c0,1.407,0.367,2.255,1.175,2.255
			s1.176-0.848,1.176-2.255C293.519,54.501,293.151,53.653,292.344,53.653z"/>
	</g>
	<g>
		<path d="M278.746,73.956c-0.216-1.008-1.056-1.191-1.607-1.191c-1.039,0-1.879,0.768-1.879,2.278c0,1.352,0.479,2.391,1.903,2.391
			c0.503,0,1.375-0.239,1.639-1.574h0.752c-0.32,2.166-2.079,2.263-2.511,2.263c-1.304,0-2.583-0.848-2.583-3.055
			c0-1.767,1.008-2.99,2.679-2.99c1.479,0,2.247,0.919,2.358,1.879H278.746z"/>
		<path d="M282.106,78.122c-1.615,0-1.927-1.72-1.927-2.887s0.312-2.887,1.927-2.887s1.927,1.72,1.927,2.887
			S283.721,78.122,282.106,78.122z M282.106,72.98c-0.808,0-1.175,0.848-1.175,2.255s0.367,2.255,1.175,2.255
			s1.176-0.848,1.176-2.255S282.914,72.98,282.106,72.98z"/>
	</g>
</g>
</svg>
