<?xml version="1.0" encoding="utf-8"?>
<!-- Generator: Adobe Illustrator 28.2.0, SVG Export Plug-In . SVG Version: 6.00 Build 0)  -->
<svg version="1.1" xmlns="http://www.w3.org/2000/svg" xmlns:xlink="http://www.w3.org/1999/xlink" x="0px" y="0px"
	 width="307.939px" height="71.36px" viewBox="0 0 307.939 71.36" style="enable-background:new 0 0 307.939 71.36;"
	 xml:space="preserve">
<style type="text/css">
	.st0{fill:none;stroke:#000000;}
	.st1{fill:#FFFFFF;}
	.st2{fill:#FFFFFF;stroke:#000000;}
</style>
<g id="レイヤー_1">
</g>
<g id="レイヤー_2">
	<g>
		<line class="st0" x1="0.5" y1="48.6" x2="307.439" y2="48.6"/>
		<g>
			<rect x="20.431" y="44.613" class="st1" width="7.973" height="7.971"/>
			<line class="st0" x1="28.404" y1="44.613" x2="28.404" y2="52.584"/>
			<line class="st0" x1="20.431" y1="52.584" x2="20.431" y2="44.613"/>
		</g>
		<rect x="211.055" y="38.635" class="st2" width="88.411" height="19.93"/>
		<line class="st2" x1="255.638" y1="58.564" x2="255.638" y2="38.635"/>
		<rect x="221.242" y="32.296" class="st1" width="27.232" height="11.078"/>
		<g>
			<path d="M227.666,41.522v-3.391c0-0.167,0.016-0.895,0.016-1.431h-0.016l-1.615,4.821h-0.768l-1.615-4.813h-0.016
				c0,0.528,0.016,1.256,0.016,1.423v3.391h-0.751v-5.741h1.111l1.639,4.854h0.017l1.631-4.854h1.104v5.741H227.666z"/>
			<path d="M232.108,41.674c-2.143,0-2.799-1.783-2.799-3.022s0.656-3.022,2.799-3.022s2.799,1.783,2.799,3.022
				S234.25,41.674,232.108,41.674z M232.108,36.317c-1.247,0-1.999,0.983-1.999,2.335c0,1.351,0.752,2.334,1.999,2.334
				s1.999-0.983,1.999-2.334C234.107,37.3,233.355,36.317,232.108,36.317z"/>
			<path d="M239.124,35.781h0.871l-2.095,5.741h-0.823l-2.095-5.741h0.863l1.639,4.894h0.017L239.124,35.781z"/>
			<path d="M240.685,41.522h-0.832v-0.848h0.832V41.522z"/>
			<path d="M242.029,35.781h2.327c1.495,0,2.414,1.136,2.414,2.791c0,1.287-0.56,2.95-2.446,2.95h-2.295V35.781z M242.804,40.858
				h1.504c1.007,0,1.663-0.791,1.663-2.238s-0.664-2.175-1.72-2.175h-1.447V40.858z"/>
		</g>
		<g>
			<path d="M224.521,45.978h2.327c1.495,0,2.414,1.136,2.414,2.791c0,1.287-0.56,2.95-2.446,2.95h-2.295V45.978z M225.296,51.055
				h1.504c1.007,0,1.663-0.791,1.663-2.238s-0.664-2.175-1.72-2.175h-1.447V51.055z"/>
			<path d="M234.982,51.719v-3.391c0-0.167,0.016-0.895,0.016-1.431h-0.016l-1.615,4.821h-0.768l-1.615-4.813h-0.016
				c0,0.528,0.016,1.256,0.016,1.423v3.391h-0.751v-5.741h1.111l1.639,4.854h0.017l1.631-4.854h1.104v5.741H234.982z"/>
			<path d="M239.183,51.719h-0.751v-3.99h-1.312v-0.56c0.911-0.063,1.287-0.151,1.511-1.071h0.552V51.719z"/>
			<path d="M242.544,51.872c-1.615,0-1.927-1.72-1.927-2.887c0-1.168,0.312-2.887,1.927-2.887s1.927,1.719,1.927,2.887
				C244.471,50.152,244.16,51.872,242.544,51.872z M242.544,46.73c-0.808,0-1.175,0.848-1.175,2.255s0.367,2.255,1.175,2.255
				s1.176-0.848,1.176-2.255S243.352,46.73,242.544,46.73z"/>
		</g>
		<g>
			<path d="M269.727,45.978h2.327c1.495,0,2.414,1.136,2.414,2.791c0,1.287-0.56,2.95-2.446,2.95h-2.295V45.978z M270.502,51.055
				h1.504c1.007,0,1.663-0.791,1.663-2.238s-0.664-2.175-1.72-2.175h-1.447V51.055z"/>
			<path d="M280.189,51.719v-3.391c0-0.167,0.016-0.895,0.016-1.431h-0.016l-1.615,4.821h-0.768l-1.615-4.813h-0.016
				c0,0.528,0.016,1.256,0.016,1.423v3.391h-0.751v-5.741h1.111l1.639,4.854h0.017l1.631-4.854h1.104v5.741H280.189z"/>
			<path d="M283.742,51.872c-1.615,0-1.927-1.72-1.927-2.887c0-1.168,0.312-2.887,1.927-2.887s1.927,1.719,1.927,2.887
				C285.668,50.152,285.357,51.872,283.742,51.872z M283.742,46.73c-0.808,0-1.175,0.848-1.175,2.255s0.367,2.255,1.175,2.255
				s1.176-0.848,1.176-2.255S284.549,46.73,283.742,46.73z"/>
		</g>
		<line class="st0" x1="0.5" y1="18.845" x2="307.439" y2="18.845"/>
		<g>
			<rect x="259.314" y="14.59" class="st1" width="39.86" height="7.973"/>
			<line class="st0" x1="299.175" y1="14.59" x2="299.175" y2="22.562"/>
			<line class="st0" x1="259.314" y1="22.562" x2="259.314" y2="14.59"/>
		</g>
		<g>
			<path d="M271.538,6.014h2.327c1.495,0,2.414,1.135,2.414,2.791c0,1.287-0.56,2.95-2.446,2.95h-2.295V6.014z M272.313,11.091
				h1.504c1.007,0,1.663-0.792,1.663-2.239s-0.664-2.175-1.72-2.175h-1.447V11.091z"/>
			<path d="M281.999,11.755v-3.39c0-0.168,0.016-0.896,0.016-1.431h-0.016l-1.615,4.821h-0.768l-1.615-4.813h-0.016
				c0,0.528,0.016,1.255,0.016,1.423v3.39h-0.751V6.014h1.111L280,10.867h0.017l1.631-4.853h1.104v5.741H281.999z"/>
			<path d="M285.552,11.907c-1.615,0-1.927-1.719-1.927-2.886s0.312-2.887,1.927-2.887s1.927,1.719,1.927,2.887
				S287.167,11.907,285.552,11.907z M285.552,6.766c-0.808,0-1.175,0.848-1.175,2.255s0.367,2.254,1.175,2.254
				s1.176-0.847,1.176-2.254S286.36,6.766,285.552,6.766z"/>
		</g>
		<g>
			<path d="M278.86,18.145c-0.216-1.007-1.056-1.191-1.607-1.191c-1.039,0-1.879,0.768-1.879,2.279c0,1.351,0.479,2.391,1.903,2.391
				c0.503,0,1.375-0.24,1.639-1.575h0.752c-0.32,2.167-2.079,2.263-2.511,2.263c-1.304,0-2.583-0.848-2.583-3.054
				c0-1.767,1.008-2.99,2.679-2.99c1.479,0,2.247,0.919,2.358,1.879H278.86z"/>
			<path d="M282.221,22.31c-1.615,0-1.927-1.719-1.927-2.886s0.312-2.887,1.927-2.887s1.927,1.719,1.927,2.887
				S283.836,22.31,282.221,22.31z M282.221,17.169c-0.808,0-1.175,0.848-1.175,2.255s0.367,2.254,1.175,2.254
				s1.176-0.847,1.176-2.254S283.029,17.169,282.221,17.169z"/>
		</g>
		<g>
			<path d="M271.554,31.335h-0.776v-5.741h2.655c0.943,0,1.887,0.328,1.887,1.543c0,0.847-0.432,1.159-0.8,1.375
				c0.328,0.136,0.656,0.279,0.688,1.079l0.049,1.04c0.008,0.319,0.048,0.439,0.287,0.575v0.128h-0.951
				c-0.112-0.352-0.136-1.224-0.136-1.439c0-0.472-0.097-1.023-1.023-1.023h-1.879V31.335z M271.554,28.21h1.799
				c0.567,0,1.167-0.145,1.167-0.992c0-0.887-0.647-0.959-1.031-0.959h-1.935V28.21z"/>
			<path d="M278.073,31.488c-1.615,0-1.927-1.72-1.927-2.887c0-1.168,0.312-2.887,1.927-2.887s1.927,1.719,1.927,2.887
				C279.999,29.768,279.688,31.488,278.073,31.488z M278.073,26.346c-0.808,0-1.175,0.848-1.175,2.255s0.367,2.255,1.175,2.255
				s1.176-0.848,1.176-2.255S278.88,26.346,278.073,26.346z"/>
			<path d="M282.521,31.488c-1.615,0-1.927-1.72-1.927-2.887c0-1.168,0.312-2.887,1.927-2.887s1.927,1.719,1.927,2.887
				C284.448,29.768,284.136,31.488,282.521,31.488z M282.521,26.346c-0.808,0-1.175,0.848-1.175,2.255s0.367,2.255,1.175,2.255
				s1.176-0.848,1.176-2.255S283.329,26.346,282.521,26.346z"/>
			<path d="M287.017,31.335h-0.751v-3.99h-1.312v-0.56c0.911-0.063,1.287-0.151,1.511-1.071h0.552V31.335z"/>
		</g>
		<g>
			<rect x="20.43" y="14.858" class="st1" width="7.973" height="7.973"/>
			<line class="st0" x1="28.404" y1="14.858" x2="28.404" y2="22.832"/>
			<line class="st0" x1="20.43" y1="22.832" x2="20.43" y2="14.858"/>
		</g>
		<line class="st0" x1="0.5" y1="0" x2="0.5" y2="71.36"/>
		<line class="st0" x1="307.439" y1="0" x2="307.439" y2="71.36"/>
		<g>
		</g>
	</g>
</g>
</svg>
