<?xml version="1.0" encoding="utf-8"?>
<!-- Generator: Adobe Illustrator 28.2.0, SVG Export Plug-In . SVG Version: 6.00 Build 0)  -->
<svg version="1.1" id="儗僀儎乕_1" xmlns="http://www.w3.org/2000/svg" xmlns:xlink="http://www.w3.org/1999/xlink" x="0px"
	 y="0px" width="307.94px" height="36.233px" viewBox="0 0 307.94 36.233" style="enable-background:new 0 0 307.94 36.233;"
	 xml:space="preserve">
<style type="text/css">
	.st0{fill:none;stroke:#000000;}
	.st1{fill:#FFFFFF;}
	.st2{fill:#FFFFFF;stroke:#000000;}
</style>
<g>
	<line class="st0" x1="0.5" y1="16.304" x2="307.44" y2="16.304"/>
	<line class="st0" x1="0.5" y1="0" x2="0.5" y2="36.233"/>
	<line class="st0" x1="307.44" y1="0" x2="307.44" y2="36.233"/>
	<g>
		<rect x="20.432" y="12.318" class="st1" width="7.973" height="7.971"/>
		<line class="st0" x1="28.405" y1="12.318" x2="28.405" y2="20.289"/>
		<line class="st0" x1="20.432" y1="20.289" x2="20.432" y2="12.318"/>
	</g>
	<rect x="219.743" y="6.338" class="st2" width="79.724" height="19.93"/>
	<line class="st2" x1="259.606" y1="26.269" x2="259.606" y2="6.338"/>
	<rect x="225.895" y="3.244" class="st1" width="27.232" height="7.833"/>
	<g>
		<path d="M232.318,9.229v-3.39c0-0.168,0.016-0.896,0.016-1.431h-0.016l-1.615,4.821h-0.768l-1.615-4.813h-0.016
			c0,0.528,0.016,1.255,0.016,1.423v3.39h-0.751V3.488h1.111l1.639,4.853h0.017l1.631-4.853h1.104v5.741H232.318z"/>
		<path d="M236.759,9.381c-2.143,0-2.799-1.783-2.799-3.022s0.656-3.022,2.799-3.022s2.799,1.783,2.799,3.022
			S238.901,9.381,236.759,9.381z M236.759,4.024c-1.247,0-1.999,0.983-1.999,2.334c0,1.352,0.752,2.335,1.999,2.335
			s1.999-0.983,1.999-2.335C238.758,5.007,238.006,4.024,236.759,4.024z"/>
		<path d="M243.775,3.488h0.871l-2.095,5.741h-0.823l-2.095-5.741h0.863l1.639,4.893h0.017L243.775,3.488z"/>
		<path d="M245.336,9.229h-0.832V8.381h0.832V9.229z"/>
		<path d="M246.68,3.488h2.327c1.495,0,2.414,1.135,2.414,2.791c0,1.287-0.56,2.95-2.446,2.95h-2.295V3.488z M247.455,8.565h1.504
			c1.007,0,1.663-0.792,1.663-2.239s-0.664-2.175-1.72-2.175h-1.447V8.565z"/>
	</g>
	<g>
		<path d="M238.807,15.408c-0.216-1.008-1.056-1.191-1.607-1.191c-1.039,0-1.879,0.768-1.879,2.278c0,1.352,0.479,2.391,1.903,2.391
			c0.503,0,1.375-0.239,1.639-1.574h0.752c-0.32,2.166-2.079,2.263-2.511,2.263c-1.304,0-2.583-0.848-2.583-3.055
			c0-1.767,1.008-2.99,2.679-2.99c1.479,0,2.247,0.919,2.358,1.879H238.807z"/>
		<path d="M242.168,19.574c-1.615,0-1.927-1.72-1.927-2.887c0-1.167,0.312-2.887,1.927-2.887s1.927,1.719,1.927,2.887
			C244.095,17.854,243.783,19.574,242.168,19.574z M242.168,14.433c-0.808,0-1.175,0.848-1.175,2.255s0.367,2.255,1.175,2.255
			s1.176-0.848,1.176-2.255S242.976,14.433,242.168,14.433z"/>
	</g>
	<g>
		<path d="M271.215,13.681h2.327c1.495,0,2.414,1.135,2.414,2.791c0,1.287-0.56,2.95-2.446,2.95h-2.295V13.681z M271.99,18.758
			h1.504c1.007,0,1.663-0.791,1.663-2.238s-0.664-2.175-1.72-2.175h-1.447V18.758z"/>
		<path d="M281.677,19.422v-3.39c0-0.168,0.016-0.896,0.016-1.431h-0.016l-1.615,4.821h-0.768l-1.615-4.813h-0.016
			c0,0.528,0.016,1.255,0.016,1.423v3.39h-0.751v-5.741h1.111l1.639,4.853h0.017l1.631-4.853h1.104v5.741H281.677z"/>
		<path d="M285.23,19.574c-1.615,0-1.927-1.72-1.927-2.887c0-1.167,0.312-2.887,1.927-2.887s1.927,1.719,1.927,2.887
			C287.156,17.854,286.845,19.574,285.23,19.574z M285.23,14.433c-0.808,0-1.175,0.848-1.175,2.255s0.367,2.255,1.175,2.255
			s1.176-0.848,1.176-2.255S286.037,14.433,285.23,14.433z"/>
	</g>
</g>
</svg>
