<?xml version="1.0" encoding="utf-8"?>
<!-- Generator: Adobe Illustrator 28.2.0, SVG Export Plug-In . SVG Version: 6.00 Build 0)  -->
<svg version="1.1" id="儗僀儎乕_1" xmlns="http://www.w3.org/2000/svg" xmlns:xlink="http://www.w3.org/1999/xlink" x="0px"
	 y="0px" width="227.163px" height="54.911px" viewBox="0 0 227.163 54.911" style="enable-background:new 0 0 227.163 54.911;"
	 xml:space="preserve">
<style type="text/css">
	.st0{fill:none;stroke:#000000;stroke-width:0.3;}
	.st1{fill:none;stroke:#000000;stroke-width:0.5;}
	.st2{fill:#FFFFFF;}
</style>
<line class="st0" x1="0.15" y1="35.554" x2="0.15" y2="44.578"/>
<line class="st0" x1="58.707" y1="35.554" x2="58.707" y2="44.578"/>
<line class="st0" x1="84.304" y1="35.554" x2="84.304" y2="44.578"/>
<line class="st0" x1="142.861" y1="35.554" x2="142.861" y2="44.578"/>
<line class="st0" x1="168.457" y1="35.554" x2="168.457" y2="44.578"/>
<line class="st0" x1="227.013" y1="35.554" x2="227.013" y2="44.578"/>
<polygon points="6.354,39.815 0.083,41.172 6.354,42.521 6.354,41.793 14.457,41.793 14.457,40.545 6.354,40.545 "/>
<polygon points="52.195,42.522 58.467,41.164 52.195,39.815 52.195,40.543 44.093,40.543 44.093,41.791 52.195,41.791 "/>
<polygon points="136.827,42.522 143.099,41.164 136.827,39.815 136.827,40.543 128.725,40.543 128.725,41.791 136.827,41.791 "/>
<polygon points="220.681,42.522 226.954,41.164 220.681,39.815 220.681,40.543 212.58,40.543 212.58,41.791 220.681,41.791 "/>
<polygon points="90.989,39.815 84.718,41.172 90.989,42.521 90.989,41.793 99.092,41.793 99.092,40.545 90.989,40.545 "/>
<polygon points="175.625,39.815 169.353,41.172 175.625,42.521 175.625,41.793 183.727,41.793 183.727,40.545 175.625,40.545 "/>
<g>
	<g>
		<path d="M108.973,4.238c-0.04-0.888-0.776-1.167-1.423-1.167c-0.488,0-1.311,0.136-1.311,1.007c0,0.488,0.344,0.647,0.679,0.728
			l1.639,0.376c0.744,0.176,1.303,0.624,1.303,1.535c0,1.359-1.263,1.735-2.247,1.735c-1.063,0-1.479-0.32-1.735-0.552
			c-0.488-0.439-0.584-0.919-0.584-1.455h0.728c0,1.04,0.848,1.343,1.583,1.343c0.56,0,1.503-0.144,1.503-0.967
			c0-0.6-0.28-0.792-1.223-1.016l-1.175-0.272c-0.376-0.088-1.224-0.352-1.224-1.351c0-0.896,0.584-1.775,1.975-1.775
			c2.007,0,2.207,1.199,2.239,1.831H108.973z"/>
		<path d="M111.558,8.3h-0.704V4.118h0.664v0.695h0.016c0.28-0.487,0.647-0.815,1.175-0.815c0.088,0,0.128,0.008,0.184,0.024V4.75
			h-0.264c-0.656,0-1.071,0.512-1.071,1.119V8.3z"/>
		<path d="M115.877,5.525c-0.088-0.56-0.4-0.896-0.992-0.896c-0.871,0-1.151,0.832-1.151,1.575c0,0.72,0.176,1.607,1.144,1.607
			c0.472,0,0.879-0.352,1-0.991h0.68c-0.072,0.664-0.48,1.599-1.703,1.599c-1.175,0-1.871-0.888-1.871-2.095
			c0-1.295,0.624-2.327,2.007-2.327c1.096,0,1.511,0.8,1.567,1.527H115.877z"/>
		<path d="M117.094,4.694c0-1.831,1.335-2.015,1.943-2.015c0.975,0,1.759,0.632,1.759,1.679c0,1.007-0.664,1.431-1.503,1.879
			l-0.584,0.32c-0.768,0.424-0.936,0.864-0.967,1.08h3.054V8.3h-3.846c0.04-1.167,0.567-1.791,1.319-2.231l0.743-0.432
			c0.6-0.344,1.032-0.576,1.032-1.311c0-0.448-0.288-1.016-1.111-1.016c-1.063,0-1.111,0.991-1.135,1.383H117.094z"/>
	</g>
</g>
<g>
	<g>
		<path d="M25.026,4.238c-0.04-0.888-0.776-1.167-1.423-1.167c-0.488,0-1.311,0.136-1.311,1.007c0,0.488,0.344,0.647,0.679,0.728
			l1.639,0.376c0.744,0.176,1.303,0.624,1.303,1.535c0,1.359-1.263,1.735-2.247,1.735c-1.063,0-1.479-0.32-1.735-0.552
			c-0.488-0.439-0.584-0.919-0.584-1.455h0.728c0,1.04,0.848,1.343,1.583,1.343c0.56,0,1.503-0.144,1.503-0.967
			c0-0.6-0.28-0.792-1.223-1.016l-1.175-0.272c-0.376-0.088-1.224-0.352-1.224-1.351c0-0.896,0.584-1.775,1.975-1.775
			c2.007,0,2.207,1.199,2.239,1.831H25.026z"/>
		<path d="M27.612,8.3h-0.704V4.118h0.664v0.695h0.016c0.28-0.487,0.647-0.815,1.175-0.815c0.088,0,0.128,0.008,0.184,0.024V4.75
			h-0.264c-0.656,0-1.071,0.512-1.071,1.119V8.3z"/>
		<path d="M31.931,5.525c-0.088-0.56-0.4-0.896-0.992-0.896c-0.871,0-1.151,0.832-1.151,1.575c0,0.72,0.176,1.607,1.144,1.607
			c0.472,0,0.879-0.352,1-0.991h0.68c-0.072,0.664-0.48,1.599-1.703,1.599c-1.175,0-1.871-0.888-1.871-2.095
			c0-1.295,0.624-2.327,2.007-2.327c1.096,0,1.511,0.8,1.567,1.527H31.931z"/>
		<path d="M35.667,8.3h-0.752V4.31h-1.311V3.75c0.912-0.064,1.287-0.152,1.511-1.072h0.552V8.3z"/>
	</g>
</g>
<g>
	<g>
		<path d="M191.965,2.559h2.327c1.495,0,2.414,1.135,2.414,2.791c0,1.287-0.56,2.95-2.446,2.95h-2.295V2.559z M192.741,7.636h1.504
			c1.007,0,1.663-0.792,1.663-2.239s-0.664-2.175-1.72-2.175h-1.447V7.636z"/>
		<path d="M199.988,5.31c-0.008-0.264-0.104-0.704-0.991-0.704c-0.216,0-0.832,0.072-0.832,0.591c0,0.344,0.216,0.424,0.76,0.56
			l0.703,0.176c0.872,0.216,1.176,0.536,1.176,1.104c0,0.863-0.712,1.383-1.655,1.383c-1.655,0-1.774-0.959-1.799-1.463h0.68
			c0.023,0.328,0.12,0.855,1.111,0.855c0.504,0,0.959-0.2,0.959-0.664c0-0.336-0.231-0.448-0.831-0.6l-0.815-0.2
			c-0.584-0.144-0.968-0.439-0.968-1.015c0-0.919,0.76-1.335,1.583-1.335c1.495,0,1.6,1.104,1.6,1.312H199.988z"/>
		<path d="M202.476,4.702V7.42c0,0.328,0.28,0.328,0.424,0.328h0.248V8.3c-0.256,0.024-0.455,0.056-0.527,0.056
			c-0.695,0-0.848-0.392-0.848-0.896V4.702h-0.567V4.118h0.567V2.951h0.703v1.167h0.672v0.583H202.476z"/>
	</g>
</g>
<g>
	<path d="M108.975,44.192h-0.658v-3.495h-1.148v-0.49c0.798-0.056,1.127-0.133,1.324-0.938h0.483V44.192z"/>
	<path d="M112.993,40.579c-0.077-0.435-0.315-0.756-0.847-0.756c-0.967,0-1.17,1.302-1.17,1.821l0.014,0.014
		c0.154-0.267,0.497-0.603,1.169-0.603c0.603,0,1.541,0.385,1.541,1.562c0,0.504-0.133,0.868-0.469,1.232
		c-0.259,0.287-0.553,0.477-1.247,0.477c-0.378,0-0.917-0.168-1.268-0.715c-0.294-0.462-0.378-1.064-0.378-1.708
		c0-1.079,0.35-2.634,1.821-2.634c0.567,0,1.373,0.308,1.436,1.31H112.993z M112.096,43.772c0.588,0,0.967-0.462,0.967-1.127
		c0-0.434-0.231-1.037-0.995-1.037c-0.679,0-1.009,0.49-1.009,1.072C111.06,43.205,111.375,43.772,112.096,43.772z"/>
	<path d="M114.371,44.192v-5.029h0.616v1.828h0.014c0.266-0.385,0.63-0.561,1.058-0.567c0.974,0,1.527,0.798,1.527,1.828
		c0,0.875-0.364,2.045-1.611,2.045c-0.624,0-0.883-0.357-1.009-0.56h-0.014v0.455H114.371z M115.946,40.978
		c-0.889,0-0.987,0.959-0.987,1.555c0,0.973,0.609,1.232,1.001,1.232c0.672,0,0.987-0.609,0.987-1.415
		C116.948,41.881,116.899,40.978,115.946,40.978z"/>
	<path d="M118.326,39.864v-0.701h0.616v0.701H118.326z M118.942,44.192h-0.616v-3.663h0.616V44.192z"/>
	<path d="M120.622,41.041v2.381c0,0.287,0.245,0.287,0.372,0.287h0.217v0.483c-0.224,0.021-0.399,0.049-0.462,0.049
		c-0.609,0-0.743-0.343-0.743-0.784v-2.417h-0.497v-0.511h0.497v-1.022h0.616v1.022h0.588v0.511H120.622z"/>
	<path d="M104.239,47.059c-0.595,1.121-0.952,1.793-0.952,3.474c0,1.155,0.399,2.01,0.959,3.109h-0.414
		c-0.728-1.092-1.205-1.968-1.205-3.278c0-1.232,0.427-2.227,1.184-3.306H104.239z"/>
	<path d="M106.997,52.192h-0.658v-3.495h-1.148v-0.49c0.798-0.056,1.127-0.133,1.324-0.938h0.483V52.192z"/>
	<path d="M110.168,52.192h-0.637l-1.058-3.663h0.672l0.7,2.879h0.014l0.708-2.879h0.686l0.714,2.879h0.014l0.742-2.879h0.617
		l-1.065,3.663h-0.637l-0.742-2.836h-0.014L110.168,52.192z"/>
	<path d="M115.306,48.424c1.169,0,1.702,0.988,1.702,1.933s-0.532,1.933-1.702,1.933c-1.17,0-1.702-0.988-1.702-1.933
		S114.136,48.424,115.306,48.424z M115.306,51.758c0.882,0,1.064-0.911,1.064-1.401s-0.182-1.401-1.064-1.401
		c-0.883,0-1.065,0.911-1.065,1.401S114.423,51.758,115.306,51.758z"/>
	<path d="M118.406,52.192h-0.617v-3.663h0.582v0.609h0.014c0.245-0.427,0.567-0.714,1.029-0.714c0.077,0,0.112,0.007,0.161,0.021
		v0.637h-0.231c-0.574,0-0.938,0.448-0.938,0.981V52.192z"/>
	<path d="M122.937,52.192h-0.582v-0.504h-0.014c-0.266,0.498-0.686,0.609-1.043,0.609c-1.247,0-1.611-1.169-1.611-2.045
		c0-1.03,0.553-1.828,1.527-1.828c0.666,0,0.945,0.413,1.093,0.624l0.014-0.049v-1.835h0.617V52.192z M121.312,51.765
		c0.392,0,1.001-0.259,1.001-1.232c0-0.596-0.098-1.555-0.988-1.555c-0.952,0-1.001,0.904-1.001,1.373
		C120.324,51.156,120.64,51.765,121.312,51.765z"/>
	<path d="M123.579,53.642c0.595-1.121,0.953-1.793,0.953-3.474c0-1.156-0.399-2.01-0.959-3.11h0.413
		c0.729,1.093,1.205,1.968,1.205,3.278c0,1.232-0.427,2.227-1.184,3.306H123.579z"/>
</g>
<g>
	<path d="M193.741,44.192h-0.658v-3.495h-1.149v-0.49c0.799-0.056,1.128-0.133,1.324-0.938h0.483V44.192z"/>
	<path d="M197.759,40.579c-0.077-0.435-0.315-0.756-0.848-0.756c-0.967,0-1.17,1.302-1.17,1.821l0.015,0.014
		c0.153-0.267,0.497-0.603,1.169-0.603c0.603,0,1.541,0.385,1.541,1.562c0,0.504-0.133,0.868-0.469,1.232
		c-0.26,0.287-0.554,0.477-1.247,0.477c-0.378,0-0.918-0.168-1.268-0.715c-0.294-0.462-0.378-1.064-0.378-1.708
		c0-1.079,0.35-2.634,1.82-2.634c0.567,0,1.373,0.308,1.436,1.31H197.759z M196.863,43.772c0.588,0,0.966-0.462,0.966-1.127
		c0-0.434-0.23-1.037-0.994-1.037c-0.68,0-1.009,0.49-1.009,1.072C195.826,43.205,196.141,43.772,196.863,43.772z"/>
	<path d="M199.136,44.192v-5.029h0.616v1.828h0.014c0.267-0.385,0.631-0.561,1.058-0.567c0.974,0,1.527,0.798,1.527,1.828
		c0,0.875-0.364,2.045-1.611,2.045c-0.623,0-0.882-0.357-1.008-0.56h-0.015v0.455H199.136z M200.713,40.978
		c-0.89,0-0.988,0.959-0.988,1.555c0,0.973,0.609,1.232,1.002,1.232c0.672,0,0.987-0.609,0.987-1.415
		C201.713,41.881,201.665,40.978,200.713,40.978z"/>
	<path d="M203.092,39.864v-0.701h0.616v0.701H203.092z M203.709,44.192h-0.616v-3.663h0.616V44.192z"/>
	<path d="M205.388,41.041v2.381c0,0.287,0.245,0.287,0.371,0.287h0.217v0.483c-0.224,0.021-0.399,0.049-0.462,0.049
		c-0.609,0-0.742-0.343-0.742-0.784v-2.417h-0.498v-0.511h0.498v-1.022h0.616v1.022h0.588v0.511H205.388z"/>
	<path d="M189.005,47.059c-0.595,1.121-0.952,1.793-0.952,3.474c0,1.155,0.399,2.01,0.959,3.109h-0.413
		c-0.729-1.092-1.204-1.968-1.204-3.278c0-1.232,0.427-2.227,1.184-3.306H189.005z"/>
	<path d="M191.763,52.192h-0.658v-3.495h-1.149v-0.49c0.799-0.056,1.128-0.133,1.324-0.938h0.483V52.192z"/>
	<path d="M194.933,52.192h-0.638l-1.058-3.663h0.673l0.7,2.879h0.014l0.708-2.879h0.687l0.714,2.879h0.015l0.742-2.879h0.616
		l-1.064,3.663h-0.638l-0.742-2.836h-0.014L194.933,52.192z"/>
	<path d="M200.072,48.424c1.169,0,1.702,0.988,1.702,1.933s-0.533,1.933-1.702,1.933c-1.17,0-1.702-0.988-1.702-1.933
		S198.902,48.424,200.072,48.424z M200.072,51.758c0.882,0,1.064-0.911,1.064-1.401s-0.183-1.401-1.064-1.401
		c-0.883,0-1.064,0.911-1.064,1.401S199.189,51.758,200.072,51.758z"/>
	<path d="M203.171,52.192h-0.616v-3.663h0.581v0.609h0.015c0.245-0.427,0.567-0.714,1.029-0.714c0.077,0,0.112,0.007,0.161,0.021
		v0.637h-0.231c-0.574,0-0.938,0.448-0.938,0.981V52.192z"/>
	<path d="M207.703,52.192h-0.582v-0.504h-0.014c-0.266,0.498-0.687,0.609-1.043,0.609c-1.247,0-1.611-1.169-1.611-2.045
		c0-1.03,0.554-1.828,1.526-1.828c0.666,0,0.946,0.413,1.093,0.624l0.015-0.049v-1.835h0.616V52.192z M206.078,51.765
		c0.393,0,1.001-0.259,1.001-1.232c0-0.596-0.098-1.555-0.987-1.555c-0.952,0-1.001,0.904-1.001,1.373
		C205.09,51.156,205.405,51.765,206.078,51.765z"/>
	<path d="M208.344,53.642c0.596-1.121,0.952-1.793,0.952-3.474c0-1.156-0.398-2.01-0.959-3.11h0.413
		c0.729,1.093,1.205,1.968,1.205,3.278c0,1.232-0.428,2.227-1.185,3.306H208.344z"/>
</g>
<g>
	<path d="M24.209,44.192h-0.658v-3.495h-1.148v-0.49c0.798-0.056,1.127-0.133,1.324-0.938h0.483V44.192z"/>
	<path d="M28.227,40.579c-0.077-0.435-0.315-0.756-0.847-0.756c-0.967,0-1.17,1.302-1.17,1.821l0.014,0.014
		c0.154-0.267,0.497-0.603,1.169-0.603c0.603,0,1.541,0.385,1.541,1.562c0,0.504-0.133,0.868-0.469,1.232
		c-0.259,0.287-0.553,0.477-1.247,0.477c-0.378,0-0.917-0.168-1.268-0.715c-0.294-0.462-0.378-1.064-0.378-1.708
		c0-1.079,0.35-2.634,1.821-2.634c0.567,0,1.373,0.308,1.436,1.31H28.227z M27.331,43.772c0.588,0,0.967-0.462,0.967-1.127
		c0-0.434-0.231-1.037-0.995-1.037c-0.679,0-1.009,0.49-1.009,1.072C26.294,43.205,26.609,43.772,27.331,43.772z"/>
	<path d="M29.605,44.192v-5.029h0.616v1.828h0.014c0.266-0.385,0.63-0.561,1.058-0.567c0.974,0,1.527,0.798,1.527,1.828
		c0,0.875-0.364,2.045-1.611,2.045c-0.624,0-0.883-0.357-1.009-0.56h-0.014v0.455H29.605z M31.181,40.978
		c-0.889,0-0.987,0.959-0.987,1.555c0,0.973,0.609,1.232,1.001,1.232c0.672,0,0.987-0.609,0.987-1.415
		C32.182,41.881,32.133,40.978,31.181,40.978z"/>
	<path d="M33.56,39.864v-0.701h0.616v0.701H33.56z M34.176,44.192H33.56v-3.663h0.616V44.192z"/>
	<path d="M35.856,41.041v2.381c0,0.287,0.245,0.287,0.372,0.287h0.217v0.483c-0.224,0.021-0.399,0.049-0.462,0.049
		c-0.609,0-0.743-0.343-0.743-0.784v-2.417h-0.497v-0.511h0.497v-1.022h0.616v1.022h0.588v0.511H35.856z"/>
	<path d="M19.473,47.059c-0.595,1.121-0.952,1.793-0.952,3.474c0,1.155,0.399,2.01,0.959,3.109h-0.414
		c-0.728-1.092-1.205-1.968-1.205-3.278c0-1.232,0.427-2.227,1.184-3.306H19.473z"/>
	<path d="M22.232,52.192h-0.658v-3.495h-1.148v-0.49c0.798-0.056,1.127-0.133,1.324-0.938h0.483V52.192z"/>
	<path d="M25.402,52.192h-0.637l-1.058-3.663h0.672l0.7,2.879h0.014l0.708-2.879h0.686l0.714,2.879h0.014l0.742-2.879h0.617
		l-1.065,3.663h-0.637l-0.742-2.836h-0.014L25.402,52.192z"/>
	<path d="M30.541,48.424c1.169,0,1.702,0.988,1.702,1.933s-0.532,1.933-1.702,1.933c-1.17,0-1.702-0.988-1.702-1.933
		S29.371,48.424,30.541,48.424z M30.541,51.758c0.882,0,1.064-0.911,1.064-1.401s-0.182-1.401-1.064-1.401
		c-0.883,0-1.065,0.911-1.065,1.401S29.658,51.758,30.541,51.758z"/>
	<path d="M33.641,52.192h-0.617v-3.663h0.582v0.609h0.014c0.245-0.427,0.567-0.714,1.029-0.714c0.077,0,0.112,0.007,0.161,0.021
		v0.637h-0.231c-0.574,0-0.938,0.448-0.938,0.981V52.192z"/>
	<path d="M38.171,52.192H37.59v-0.504h-0.014c-0.266,0.498-0.686,0.609-1.043,0.609c-1.247,0-1.611-1.169-1.611-2.045
		c0-1.03,0.553-1.828,1.527-1.828c0.666,0,0.945,0.413,1.093,0.624l0.014-0.049v-1.835h0.617V52.192z M36.546,51.765
		c0.392,0,1.001-0.259,1.001-1.232c0-0.596-0.098-1.555-0.988-1.555c-0.952,0-1.001,0.904-1.001,1.373
		C35.559,51.156,35.874,51.765,36.546,51.765z"/>
	<path d="M38.814,53.642c0.595-1.121,0.953-1.793,0.953-3.474c0-1.156-0.399-2.01-0.959-3.11h0.413
		c0.729,1.093,1.205,1.968,1.205,3.278c0,1.232-0.427,2.227-1.184,3.306H38.814z"/>
</g>
<g>
	<rect x="0.604" y="12.393" class="st1" width="57.579" height="22.146"/>
	<line class="st0" x1="29.393" y1="34.539" x2="29.393" y2="12.393"/>
	<rect x="8.81" y="17.19" class="st2" width="44.292" height="12.5"/>
	<g>
		<path d="M22.846,26.417H22v-4.492h-1.477v-0.63c1.026-0.072,1.45-0.171,1.702-1.207h0.621V26.417z"/>
		<path d="M24.654,22.357c0-2.062,1.503-2.269,2.188-2.269c1.098,0,1.98,0.711,1.98,1.891c0,1.134-0.747,1.612-1.692,2.116
			l-0.657,0.36c-0.864,0.477-1.054,0.972-1.089,1.215h3.439v0.747h-4.331c0.045-1.314,0.639-2.017,1.486-2.512l0.837-0.486
			c0.675-0.387,1.162-0.648,1.162-1.476c0-0.504-0.324-1.144-1.251-1.144c-1.197,0-1.251,1.116-1.278,1.558H24.654z"/>
		<path d="M31.279,22.816c0.135,0.009,0.279,0.018,0.414,0.018c0.612,0,1.207-0.243,1.207-1.035c0-0.378-0.225-1-1.17-1
			c-1.125,0-1.197,0.918-1.233,1.359h-0.774c0-0.927,0.378-2.071,2.044-2.071c1.224,0,1.954,0.703,1.954,1.666
			c0,0.811-0.468,1.198-0.811,1.306v0.018c0.612,0.198,1.053,0.63,1.053,1.476c0,1.036-0.666,2.035-2.277,2.035
			c-0.468,0-0.864-0.117-1.17-0.279c-0.702-0.369-0.891-1.099-0.945-1.828h0.819c0.027,0.594,0.171,1.396,1.35,1.396
			c0.811,0,1.377-0.495,1.377-1.225c0-1.062-0.936-1.161-1.476-1.161c-0.117,0-0.243,0.009-0.36,0.009V22.816z"/>
		<path d="M38.047,24.878v1.54h-0.792v-1.54h-2.764v-0.774l2.899-4.016h0.657v4.105h0.927v0.684H38.047z M35.22,24.194h2.035v-2.872
			h-0.018L35.22,24.194z"/>
	</g>
</g>
<g>
	<rect x="84.549" y="12.393" class="st1" width="57.579" height="22.146"/>
	<line class="st0" x1="113.339" y1="34.539" x2="113.339" y2="12.393"/>
	<rect x="92.755" y="17.19" class="st2" width="44.292" height="12.5"/>
	<g>
		<path d="M107.162,24.878v1.54h-0.792v-1.54h-2.764v-0.774l2.899-4.016h0.657v4.105h0.927v0.684H107.162z M104.335,24.194h2.035
			v-2.872h-0.018L104.335,24.194z"/>
		<path d="M110.401,22.816c0.135,0.009,0.279,0.018,0.414,0.018c0.612,0,1.207-0.243,1.207-1.035c0-0.378-0.225-1-1.17-1
			c-1.125,0-1.197,0.918-1.233,1.359h-0.774c0-0.927,0.378-2.071,2.044-2.071c1.224,0,1.954,0.703,1.954,1.666
			c0,0.811-0.468,1.198-0.811,1.306v0.018c0.612,0.198,1.053,0.63,1.053,1.476c0,1.036-0.666,2.035-2.277,2.035
			c-0.468,0-0.864-0.117-1.17-0.279c-0.702-0.369-0.892-1.099-0.945-1.828h0.819c0.027,0.594,0.171,1.396,1.35,1.396
			c0.811,0,1.377-0.495,1.377-1.225c0-1.062-0.936-1.161-1.477-1.161c-0.117,0-0.243,0.009-0.36,0.009V22.816z"/>
		<path d="M113.785,22.357c0-2.062,1.503-2.269,2.188-2.269c1.098,0,1.98,0.711,1.98,1.891c0,1.134-0.748,1.612-1.692,2.116
			l-0.657,0.36c-0.864,0.477-1.054,0.972-1.089,1.215h3.439v0.747h-4.331c0.045-1.314,0.639-2.017,1.486-2.512l0.837-0.486
			c0.675-0.387,1.162-0.648,1.162-1.476c0-0.504-0.324-1.144-1.251-1.144c-1.197,0-1.251,1.116-1.278,1.558H113.785z"/>
		<path d="M121.625,26.417h-0.846v-4.492h-1.477v-0.63c1.026-0.072,1.45-0.171,1.702-1.207h0.621V26.417z"/>
	</g>
</g>
<g>
	<rect x="168.821" y="12.393" class="st1" width="57.579" height="22.146"/>
	<line class="st0" x1="197.61" y1="34.539" x2="197.61" y2="12.393"/>
	<rect x="177.027" y="17.19" class="st2" width="44.292" height="12.5"/>
	<g>
		<path d="M188.975,22.735c0.271-0.207,0.657-0.396,1.225-0.396c1.026,0,2.079,0.72,2.079,2.025c0,0.702-0.314,2.224-2.295,2.224
			c-0.828,0-1.891-0.333-2.044-1.747h0.819c0.081,0.738,0.63,1.062,1.342,1.062c0.818,0,1.332-0.657,1.332-1.449
			c0-0.91-0.621-1.405-1.404-1.405c-0.459,0-0.873,0.216-1.171,0.604l-0.684-0.036l0.477-3.394h3.277v0.774h-2.683L188.975,22.735z"
			/>
		<path d="M193.979,22.735c0.271-0.207,0.657-0.396,1.225-0.396c1.026,0,2.079,0.72,2.079,2.025c0,0.702-0.314,2.224-2.295,2.224
			c-0.828,0-1.891-0.333-2.044-1.747h0.819c0.081,0.738,0.63,1.062,1.342,1.062c0.818,0,1.332-0.657,1.332-1.449
			c0-0.91-0.621-1.405-1.404-1.405c-0.459,0-0.873,0.216-1.171,0.604l-0.684-0.036l0.477-3.394h3.277v0.774h-2.683L193.979,22.735z"
			/>
		<path d="M198.983,22.735c0.271-0.207,0.657-0.396,1.225-0.396c1.026,0,2.079,0.72,2.079,2.025c0,0.702-0.314,2.224-2.295,2.224
			c-0.828,0-1.891-0.333-2.044-1.747h0.819c0.081,0.738,0.63,1.062,1.342,1.062c0.818,0,1.332-0.657,1.332-1.449
			c0-0.91-0.621-1.405-1.404-1.405c-0.459,0-0.873,0.216-1.171,0.604l-0.684-0.036l0.477-3.394h3.277v0.774h-2.683L198.983,22.735z"
			/>
		<path d="M203.987,22.735c0.271-0.207,0.657-0.396,1.225-0.396c1.026,0,2.079,0.72,2.079,2.025c0,0.702-0.314,2.224-2.295,2.224
			c-0.828,0-1.891-0.333-2.044-1.747h0.819c0.081,0.738,0.63,1.062,1.342,1.062c0.818,0,1.332-0.657,1.332-1.449
			c0-0.91-0.621-1.405-1.404-1.405c-0.459,0-0.873,0.216-1.171,0.604l-0.684-0.036l0.477-3.394h3.277v0.774h-2.683L203.987,22.735z"
			/>
	</g>
</g>
<g>
	<path d="M69.991,19.512h2.1v3.694h3.676v2.101h-3.676v3.694h-2.1v-3.694h-3.676v-2.101h3.676V19.512z"/>
</g>
<g>
	<path d="M160.141,22.801h-9.452v-2.1h9.452V22.801z M160.141,26.927h-9.452v-2.101h9.452V26.927z"/>
</g>
</svg>
