<?xml version="1.0" encoding="utf-8"?>
<!-- Generator: Adobe Illustrator 28.2.0, SVG Export Plug-In . SVG Version: 6.00 Build 0)  -->
<svg version="1.1" id="儗僀儎乕_1" xmlns="http://www.w3.org/2000/svg" xmlns:xlink="http://www.w3.org/1999/xlink" x="0px"
	 y="0px" width="227.163px" height="52.108px" viewBox="0 0 227.163 52.108" style="enable-background:new 0 0 227.163 52.108;"
	 xml:space="preserve">
<style type="text/css">
	.st0{fill:none;stroke:#000000;stroke-width:0.3;}
	.st1{fill:none;stroke:#000000;stroke-width:0.5;}
	.st2{fill:#FFFFFF;}
</style>
<g>
	<path d="M76.766,19.034v1.725H64.051v-1.725H76.766z"/>
</g>
<g>
	<path d="M159.188,21.142h-9.452v-2.1h9.452V21.142z M159.188,25.268h-9.452v-2.101h9.452V25.268z"/>
</g>
<line class="st0" x1="0.15" y1="33.894" x2="0.15" y2="42.919"/>
<line class="st0" x1="58.707" y1="33.894" x2="58.707" y2="42.919"/>
<line class="st0" x1="84.304" y1="33.894" x2="84.304" y2="42.919"/>
<line class="st0" x1="142.861" y1="33.894" x2="142.861" y2="42.919"/>
<line class="st0" x1="168.457" y1="33.894" x2="168.457" y2="42.919"/>
<line class="st0" x1="227.013" y1="33.894" x2="227.013" y2="42.919"/>
<polygon points="6.354,38.155 0.083,39.512 6.354,40.861 6.354,40.133 14.457,40.133 14.457,38.885 6.354,38.885 "/>
<polygon points="52.195,40.862 58.467,39.505 52.195,38.156 52.195,38.884 44.093,38.884 44.093,40.132 52.195,40.132 "/>
<polygon points="136.827,40.862 143.099,39.505 136.827,38.156 136.827,38.884 128.725,38.884 128.725,40.132 136.827,40.132 "/>
<polygon points="220.681,40.862 226.954,39.505 220.681,38.156 220.681,38.884 212.58,38.884 212.58,40.132 220.681,40.132 "/>
<polygon points="90.989,38.155 84.718,39.512 90.989,40.861 90.989,40.133 99.092,40.133 99.092,38.885 90.989,38.885 "/>
<polygon points="175.625,38.155 169.353,39.512 175.625,40.861 175.625,40.133 183.727,40.133 183.727,38.885 175.625,38.885 "/>
<g>
	<g>
		<path d="M108.973,2.579c-0.04-0.888-0.776-1.167-1.423-1.167c-0.488,0-1.311,0.136-1.311,1.007c0,0.488,0.344,0.647,0.679,0.728
			l1.639,0.376c0.744,0.176,1.303,0.624,1.303,1.535c0,1.359-1.263,1.735-2.247,1.735c-1.063,0-1.479-0.32-1.735-0.552
			c-0.488-0.439-0.584-0.919-0.584-1.455h0.728c0,1.04,0.848,1.343,1.583,1.343c0.56,0,1.503-0.144,1.503-0.967
			c0-0.6-0.28-0.792-1.223-1.016l-1.175-0.272c-0.376-0.088-1.224-0.352-1.224-1.351c0-0.896,0.584-1.775,1.975-1.775
			c2.007,0,2.207,1.199,2.239,1.831H108.973z"/>
		<path d="M111.558,6.64h-0.704V2.458h0.664v0.695h0.016c0.28-0.487,0.647-0.815,1.175-0.815c0.088,0,0.128,0.008,0.184,0.024V3.09
			h-0.264c-0.656,0-1.071,0.512-1.071,1.119V6.64z"/>
		<path d="M115.877,3.866c-0.088-0.56-0.4-0.896-0.992-0.896c-0.871,0-1.151,0.832-1.151,1.575c0,0.72,0.176,1.607,1.144,1.607
			c0.472,0,0.879-0.352,1-0.991h0.68c-0.072,0.664-0.48,1.599-1.703,1.599c-1.175,0-1.871-0.888-1.871-2.095
			c0-1.295,0.624-2.327,2.007-2.327c1.096,0,1.511,0.8,1.567,1.527H115.877z"/>
		<path d="M117.094,3.034c0-1.831,1.335-2.015,1.943-2.015c0.975,0,1.759,0.632,1.759,1.679c0,1.007-0.664,1.431-1.503,1.879
			l-0.584,0.32c-0.768,0.424-0.936,0.864-0.967,1.08h3.054V6.64h-3.846c0.04-1.167,0.567-1.791,1.319-2.231l0.743-0.432
			c0.6-0.344,1.032-0.576,1.032-1.311c0-0.448-0.288-1.016-1.111-1.016c-1.063,0-1.111,0.991-1.135,1.383H117.094z"/>
	</g>
</g>
<g>
	<g>
		<path d="M25.026,2.579c-0.04-0.888-0.776-1.167-1.423-1.167c-0.488,0-1.311,0.136-1.311,1.007c0,0.488,0.344,0.647,0.679,0.728
			l1.639,0.376c0.744,0.176,1.303,0.624,1.303,1.535c0,1.359-1.263,1.735-2.247,1.735c-1.063,0-1.479-0.32-1.735-0.552
			c-0.488-0.439-0.584-0.919-0.584-1.455h0.728c0,1.04,0.848,1.343,1.583,1.343c0.56,0,1.503-0.144,1.503-0.967
			c0-0.6-0.28-0.792-1.223-1.016l-1.175-0.272c-0.376-0.088-1.224-0.352-1.224-1.351c0-0.896,0.584-1.775,1.975-1.775
			c2.007,0,2.207,1.199,2.239,1.831H25.026z"/>
		<path d="M27.612,6.64h-0.704V2.458h0.664v0.695h0.016c0.28-0.487,0.647-0.815,1.175-0.815c0.088,0,0.128,0.008,0.184,0.024V3.09
			h-0.264c-0.656,0-1.071,0.512-1.071,1.119V6.64z"/>
		<path d="M31.931,3.866c-0.088-0.56-0.4-0.896-0.992-0.896c-0.871,0-1.151,0.832-1.151,1.575c0,0.72,0.176,1.607,1.144,1.607
			c0.472,0,0.879-0.352,1-0.991h0.68c-0.072,0.664-0.48,1.599-1.703,1.599c-1.175,0-1.871-0.888-1.871-2.095
			c0-1.295,0.624-2.327,2.007-2.327c1.096,0,1.511,0.8,1.567,1.527H31.931z"/>
		<path d="M35.667,6.64h-0.752V2.65h-1.311v-0.56c0.912-0.064,1.287-0.152,1.511-1.072h0.552V6.64z"/>
	</g>
</g>
<g>
	<g>
		<path d="M191.965,0.899h2.327c1.495,0,2.414,1.135,2.414,2.791c0,1.287-0.56,2.95-2.446,2.95h-2.295V0.899z M192.741,5.977h1.504
			c1.007,0,1.663-0.792,1.663-2.239s-0.664-2.175-1.72-2.175h-1.447V5.977z"/>
		<path d="M199.988,3.65c-0.008-0.264-0.104-0.704-0.991-0.704c-0.216,0-0.832,0.072-0.832,0.591c0,0.344,0.216,0.424,0.76,0.56
			l0.703,0.176c0.872,0.216,1.176,0.536,1.176,1.104c0,0.863-0.712,1.383-1.655,1.383c-1.655,0-1.774-0.959-1.799-1.463h0.68
			c0.023,0.328,0.12,0.855,1.111,0.855c0.504,0,0.959-0.2,0.959-0.664c0-0.336-0.231-0.448-0.831-0.6l-0.815-0.2
			c-0.584-0.144-0.968-0.439-0.968-1.015c0-0.919,0.76-1.335,1.583-1.335c1.495,0,1.6,1.104,1.6,1.312H199.988z"/>
		<path d="M202.476,3.042v2.719c0,0.328,0.28,0.328,0.424,0.328h0.248V6.64c-0.256,0.024-0.455,0.056-0.527,0.056
			c-0.695,0-0.848-0.392-0.848-0.896V3.042h-0.567V2.458h0.567V1.291h0.703v1.167h0.672v0.583H202.476z"/>
	</g>
</g>
<g>
	<path d="M108.975,42.533h-0.658v-3.495h-1.148v-0.49c0.798-0.056,1.127-0.133,1.324-0.938h0.483V42.533z"/>
	<path d="M112.993,38.919c-0.077-0.435-0.315-0.756-0.847-0.756c-0.967,0-1.17,1.302-1.17,1.821l0.014,0.014
		c0.154-0.267,0.497-0.603,1.169-0.603c0.603,0,1.541,0.385,1.541,1.562c0,0.504-0.133,0.868-0.469,1.232
		c-0.259,0.287-0.553,0.477-1.247,0.477c-0.378,0-0.917-0.168-1.268-0.715c-0.294-0.462-0.378-1.064-0.378-1.708
		c0-1.079,0.35-2.634,1.821-2.634c0.567,0,1.373,0.308,1.436,1.31H112.993z M112.096,42.112c0.588,0,0.967-0.462,0.967-1.127
		c0-0.434-0.231-1.037-0.995-1.037c-0.679,0-1.009,0.49-1.009,1.072C111.06,41.545,111.375,42.112,112.096,42.112z"/>
	<path d="M114.371,42.533v-5.029h0.616v1.828h0.014c0.266-0.385,0.63-0.561,1.058-0.567c0.974,0,1.527,0.798,1.527,1.828
		c0,0.875-0.364,2.045-1.611,2.045c-0.624,0-0.883-0.357-1.009-0.56h-0.014v0.455H114.371z M115.946,39.318
		c-0.889,0-0.987,0.959-0.987,1.555c0,0.973,0.609,1.232,1.001,1.232c0.672,0,0.987-0.609,0.987-1.415
		C116.948,40.222,116.899,39.318,115.946,39.318z"/>
	<path d="M118.326,38.205v-0.701h0.616v0.701H118.326z M118.942,42.533h-0.616V38.87h0.616V42.533z"/>
	<path d="M120.622,39.381v2.381c0,0.287,0.245,0.287,0.372,0.287h0.217v0.483c-0.224,0.021-0.399,0.049-0.462,0.049
		c-0.609,0-0.743-0.343-0.743-0.784v-2.417h-0.497V38.87h0.497v-1.022h0.616v1.022h0.588v0.511H120.622z"/>
	<path d="M104.239,45.399c-0.595,1.121-0.952,1.793-0.952,3.474c0,1.155,0.399,2.01,0.959,3.109h-0.414
		c-0.728-1.092-1.205-1.968-1.205-3.278c0-1.232,0.427-2.227,1.184-3.306H104.239z"/>
	<path d="M106.997,50.533h-0.658v-3.495h-1.148v-0.49c0.798-0.056,1.127-0.133,1.324-0.938h0.483V50.533z"/>
	<path d="M110.168,50.533h-0.637l-1.058-3.663h0.672l0.7,2.879h0.014l0.708-2.879h0.686l0.714,2.879h0.014l0.742-2.879h0.617
		l-1.065,3.663h-0.637l-0.742-2.836h-0.014L110.168,50.533z"/>
	<path d="M115.306,46.765c1.169,0,1.702,0.988,1.702,1.933s-0.532,1.933-1.702,1.933c-1.17,0-1.702-0.988-1.702-1.933
		S114.136,46.765,115.306,46.765z M115.306,50.099c0.882,0,1.064-0.911,1.064-1.401s-0.182-1.401-1.064-1.401
		c-0.883,0-1.065,0.911-1.065,1.401S114.423,50.099,115.306,50.099z"/>
	<path d="M118.406,50.533h-0.617V46.87h0.582v0.609h0.014c0.245-0.427,0.567-0.714,1.029-0.714c0.077,0,0.112,0.007,0.161,0.021
		v0.637h-0.231c-0.574,0-0.938,0.448-0.938,0.981V50.533z"/>
	<path d="M122.937,50.533h-0.582v-0.504h-0.014c-0.266,0.498-0.686,0.609-1.043,0.609c-1.247,0-1.611-1.169-1.611-2.045
		c0-1.03,0.553-1.828,1.527-1.828c0.666,0,0.945,0.413,1.093,0.624l0.014-0.049v-1.835h0.617V50.533z M121.312,50.105
		c0.392,0,1.001-0.259,1.001-1.232c0-0.596-0.098-1.555-0.988-1.555c-0.952,0-1.001,0.904-1.001,1.373
		C120.324,49.496,120.64,50.105,121.312,50.105z"/>
	<path d="M123.579,51.982c0.595-1.121,0.953-1.793,0.953-3.474c0-1.156-0.399-2.01-0.959-3.11h0.413
		c0.729,1.093,1.205,1.968,1.205,3.278c0,1.232-0.427,2.227-1.184,3.306H123.579z"/>
</g>
<g>
	<path d="M194.131,42.533h-0.658v-3.495h-1.149v-0.49c0.799-0.056,1.128-0.133,1.324-0.938h0.483V42.533z"/>
	<path d="M198.15,38.919c-0.077-0.435-0.315-0.756-0.848-0.756c-0.967,0-1.17,1.302-1.17,1.821l0.015,0.014
		c0.153-0.267,0.497-0.603,1.169-0.603c0.603,0,1.541,0.385,1.541,1.562c0,0.504-0.133,0.868-0.469,1.232
		c-0.26,0.287-0.554,0.477-1.247,0.477c-0.378,0-0.918-0.168-1.268-0.715c-0.294-0.462-0.378-1.064-0.378-1.708
		c0-1.079,0.35-2.634,1.82-2.634c0.567,0,1.373,0.308,1.436,1.31H198.15z M197.254,42.112c0.588,0,0.966-0.462,0.966-1.127
		c0-0.434-0.23-1.037-0.994-1.037c-0.68,0-1.009,0.49-1.009,1.072C196.216,41.545,196.532,42.112,197.254,42.112z"/>
	<path d="M199.527,42.533v-5.029h0.616v1.828h0.014c0.267-0.385,0.631-0.561,1.058-0.567c0.974,0,1.527,0.798,1.527,1.828
		c0,0.875-0.364,2.045-1.611,2.045c-0.623,0-0.882-0.357-1.008-0.56h-0.015v0.455H199.527z M201.103,39.318
		c-0.89,0-0.988,0.959-0.988,1.555c0,0.973,0.609,1.232,1.002,1.232c0.672,0,0.987-0.609,0.987-1.415
		C202.104,40.222,202.055,39.318,201.103,39.318z"/>
	<path d="M203.483,38.205v-0.701h0.616v0.701H203.483z M204.099,42.533h-0.616V38.87h0.616V42.533z"/>
	<path d="M205.779,39.381v2.381c0,0.287,0.245,0.287,0.371,0.287h0.217v0.483c-0.224,0.021-0.399,0.049-0.462,0.049
		c-0.609,0-0.742-0.343-0.742-0.784v-2.417h-0.498V38.87h0.498v-1.022h0.616v1.022h0.588v0.511H205.779z"/>
	<path d="M189.395,45.399c-0.595,1.121-0.952,1.793-0.952,3.474c0,1.155,0.399,2.01,0.959,3.109h-0.413
		c-0.729-1.092-1.204-1.968-1.204-3.278c0-1.232,0.427-2.227,1.184-3.306H189.395z"/>
	<path d="M192.154,50.533h-0.658v-3.495h-1.149v-0.49c0.799-0.056,1.128-0.133,1.324-0.938h0.483V50.533z"/>
	<path d="M195.324,50.533h-0.638l-1.058-3.663h0.673l0.7,2.879h0.014l0.708-2.879h0.687l0.714,2.879h0.015l0.742-2.879h0.616
		l-1.064,3.663h-0.638l-0.742-2.836h-0.014L195.324,50.533z"/>
	<path d="M200.463,46.765c1.169,0,1.702,0.988,1.702,1.933s-0.533,1.933-1.702,1.933c-1.17,0-1.702-0.988-1.702-1.933
		S199.293,46.765,200.463,46.765z M200.463,50.099c0.882,0,1.064-0.911,1.064-1.401s-0.183-1.401-1.064-1.401
		c-0.883,0-1.064,0.911-1.064,1.401S199.58,50.099,200.463,50.099z"/>
	<path d="M203.562,50.533h-0.616V46.87h0.581v0.609h0.015c0.245-0.427,0.567-0.714,1.029-0.714c0.077,0,0.112,0.007,0.161,0.021
		v0.637h-0.231c-0.574,0-0.938,0.448-0.938,0.981V50.533z"/>
	<path d="M208.093,50.533h-0.582v-0.504h-0.014c-0.266,0.498-0.687,0.609-1.043,0.609c-1.247,0-1.611-1.169-1.611-2.045
		c0-1.03,0.554-1.828,1.526-1.828c0.666,0,0.946,0.413,1.093,0.624l0.015-0.049v-1.835h0.616V50.533z M206.468,50.105
		c0.393,0,1.001-0.259,1.001-1.232c0-0.596-0.098-1.555-0.987-1.555c-0.952,0-1.001,0.904-1.001,1.373
		C205.481,49.496,205.796,50.105,206.468,50.105z"/>
	<path d="M208.735,51.982c0.596-1.121,0.952-1.793,0.952-3.474c0-1.156-0.398-2.01-0.959-3.11h0.413
		c0.729,1.093,1.205,1.968,1.205,3.278c0,1.232-0.428,2.227-1.185,3.306H208.735z"/>
</g>
<g>
	<path d="M24.6,42.533h-0.658v-3.495h-1.148v-0.49c0.798-0.056,1.127-0.133,1.324-0.938H24.6V42.533z"/>
	<path d="M28.618,38.919c-0.077-0.435-0.315-0.756-0.847-0.756c-0.967,0-1.17,1.302-1.17,1.821l0.014,0.014
		c0.154-0.267,0.497-0.603,1.169-0.603c0.603,0,1.541,0.385,1.541,1.562c0,0.504-0.133,0.868-0.469,1.232
		c-0.259,0.287-0.553,0.477-1.247,0.477c-0.378,0-0.917-0.168-1.268-0.715c-0.294-0.462-0.378-1.064-0.378-1.708
		c0-1.079,0.35-2.634,1.821-2.634c0.567,0,1.373,0.308,1.436,1.31H28.618z M27.721,42.112c0.588,0,0.967-0.462,0.967-1.127
		c0-0.434-0.231-1.037-0.995-1.037c-0.679,0-1.009,0.49-1.009,1.072C26.685,41.545,27,42.112,27.721,42.112z"/>
	<path d="M29.996,42.533v-5.029h0.616v1.828h0.014c0.266-0.385,0.63-0.561,1.058-0.567c0.974,0,1.527,0.798,1.527,1.828
		c0,0.875-0.364,2.045-1.611,2.045c-0.624,0-0.883-0.357-1.009-0.56h-0.014v0.455H29.996z M31.571,39.318
		c-0.889,0-0.987,0.959-0.987,1.555c0,0.973,0.609,1.232,1.001,1.232c0.672,0,0.987-0.609,0.987-1.415
		C32.573,40.222,32.524,39.318,31.571,39.318z"/>
	<path d="M33.951,38.205v-0.701h0.616v0.701H33.951z M34.567,42.533h-0.616V38.87h0.616V42.533z"/>
	<path d="M36.247,39.381v2.381c0,0.287,0.245,0.287,0.372,0.287h0.217v0.483c-0.224,0.021-0.399,0.049-0.462,0.049
		c-0.609,0-0.743-0.343-0.743-0.784v-2.417h-0.497V38.87h0.497v-1.022h0.616v1.022h0.588v0.511H36.247z"/>
	<path d="M19.864,45.399c-0.595,1.121-0.952,1.793-0.952,3.474c0,1.155,0.399,2.01,0.959,3.109h-0.414
		c-0.728-1.092-1.205-1.968-1.205-3.278c0-1.232,0.427-2.227,1.184-3.306H19.864z"/>
	<path d="M22.622,50.533h-0.658v-3.495h-1.148v-0.49c0.798-0.056,1.127-0.133,1.324-0.938h0.483V50.533z"/>
	<path d="M25.793,50.533h-0.637l-1.058-3.663h0.672l0.7,2.879h0.014l0.708-2.879h0.686l0.714,2.879h0.014l0.742-2.879h0.617
		l-1.065,3.663h-0.637l-0.742-2.836h-0.014L25.793,50.533z"/>
	<path d="M30.931,46.765c1.169,0,1.702,0.988,1.702,1.933s-0.532,1.933-1.702,1.933c-1.17,0-1.702-0.988-1.702-1.933
		S29.761,46.765,30.931,46.765z M30.931,50.099c0.882,0,1.064-0.911,1.064-1.401s-0.182-1.401-1.064-1.401
		c-0.883,0-1.065,0.911-1.065,1.401S30.048,50.099,30.931,50.099z"/>
	<path d="M34.031,50.533h-0.617V46.87h0.582v0.609h0.014c0.245-0.427,0.567-0.714,1.029-0.714c0.077,0,0.112,0.007,0.161,0.021
		v0.637H34.97c-0.574,0-0.938,0.448-0.938,0.981V50.533z"/>
	<path d="M38.562,50.533h-0.582v-0.504h-0.014c-0.266,0.498-0.686,0.609-1.043,0.609c-1.247,0-1.611-1.169-1.611-2.045
		c0-1.03,0.553-1.828,1.527-1.828c0.666,0,0.945,0.413,1.093,0.624l0.014-0.049v-1.835h0.617V50.533z M36.937,50.105
		c0.392,0,1.001-0.259,1.001-1.232c0-0.596-0.098-1.555-0.988-1.555c-0.952,0-1.001,0.904-1.001,1.373
		C35.949,49.496,36.265,50.105,36.937,50.105z"/>
	<path d="M39.204,51.982c0.595-1.121,0.953-1.793,0.953-3.474c0-1.156-0.399-2.01-0.959-3.11h0.413
		c0.729,1.093,1.205,1.968,1.205,3.278c0,1.232-0.427,2.227-1.184,3.306H39.204z"/>
</g>
<g>
	<rect x="0.604" y="10.733" class="st1" width="57.579" height="22.146"/>
	<line class="st0" x1="29.393" y1="32.879" x2="29.393" y2="10.733"/>
	<rect x="8.81" y="15.53" class="st2" width="44.292" height="12.5"/>
	<g>
		<path d="M20.758,21.076c0.27-0.207,0.657-0.396,1.225-0.396c1.026,0,2.08,0.72,2.08,2.025c0,0.702-0.315,2.224-2.296,2.224
			c-0.828,0-1.891-0.333-2.043-1.747h0.819c0.081,0.738,0.63,1.062,1.341,1.062c0.819,0,1.333-0.657,1.333-1.449
			c0-0.91-0.621-1.405-1.405-1.405c-0.459,0-0.873,0.216-1.17,0.604l-0.685-0.036l0.478-3.394h3.277v0.774h-2.683L20.758,21.076z"/>
		<path d="M25.762,21.076c0.27-0.207,0.657-0.396,1.225-0.396c1.026,0,2.08,0.72,2.08,2.025c0,0.702-0.315,2.224-2.296,2.224
			c-0.828,0-1.891-0.333-2.043-1.747h0.819c0.081,0.738,0.63,1.062,1.341,1.062c0.819,0,1.333-0.657,1.333-1.449
			c0-0.91-0.621-1.405-1.405-1.405c-0.459,0-0.873,0.216-1.17,0.604l-0.685-0.036l0.478-3.394h3.277v0.774h-2.683L25.762,21.076z"/>
		<path d="M30.766,21.076c0.27-0.207,0.657-0.396,1.225-0.396c1.026,0,2.08,0.72,2.08,2.025c0,0.702-0.315,2.224-2.296,2.224
			c-0.828,0-1.891-0.333-2.043-1.747h0.819c0.081,0.738,0.63,1.062,1.341,1.062c0.819,0,1.333-0.657,1.333-1.449
			c0-0.91-0.621-1.405-1.405-1.405c-0.459,0-0.873,0.216-1.17,0.604l-0.685-0.036l0.478-3.394h3.277v0.774h-2.683L30.766,21.076z"/>
		<path d="M35.77,21.076c0.27-0.207,0.657-0.396,1.225-0.396c1.026,0,2.08,0.72,2.08,2.025c0,0.702-0.315,2.224-2.296,2.224
			c-0.828,0-1.891-0.333-2.043-1.747h0.819c0.081,0.738,0.63,1.062,1.341,1.062c0.819,0,1.333-0.657,1.333-1.449
			c0-0.91-0.621-1.405-1.404-1.405c-0.459,0-0.874,0.216-1.17,0.604l-0.685-0.036l0.478-3.394h3.277v0.774H36.04L35.77,21.076z"/>
	</g>
</g>
<g>
	<rect x="84.549" y="10.733" class="st1" width="57.579" height="22.146"/>
	<line class="st0" x1="113.339" y1="32.879" x2="113.339" y2="10.733"/>
	<rect x="92.755" y="15.53" class="st2" width="44.292" height="12.5"/>
	<g>
		<path d="M107.162,23.218v1.54h-0.792v-1.54h-2.764v-0.774l2.899-4.016h0.657v4.105h0.927v0.684H107.162z M104.335,22.534h2.035
			v-2.872h-0.018L104.335,22.534z"/>
		<path d="M110.401,21.157c0.135,0.009,0.279,0.018,0.414,0.018c0.612,0,1.207-0.243,1.207-1.035c0-0.378-0.225-1-1.17-1
			c-1.125,0-1.197,0.918-1.233,1.359h-0.774c0-0.927,0.378-2.071,2.044-2.071c1.224,0,1.954,0.703,1.954,1.666
			c0,0.811-0.468,1.198-0.811,1.306v0.018c0.612,0.198,1.053,0.63,1.053,1.476c0,1.036-0.666,2.035-2.277,2.035
			c-0.468,0-0.864-0.117-1.17-0.279c-0.702-0.369-0.892-1.099-0.945-1.828h0.819c0.027,0.594,0.171,1.396,1.35,1.396
			c0.811,0,1.377-0.495,1.377-1.225c0-1.062-0.936-1.161-1.477-1.161c-0.117,0-0.243,0.009-0.36,0.009V21.157z"/>
		<path d="M113.785,20.698c0-2.062,1.503-2.269,2.188-2.269c1.098,0,1.98,0.711,1.98,1.891c0,1.134-0.748,1.612-1.692,2.116
			l-0.657,0.36c-0.864,0.477-1.054,0.972-1.089,1.215h3.439v0.747h-4.331c0.045-1.314,0.639-2.017,1.486-2.512l0.837-0.486
			c0.675-0.387,1.162-0.648,1.162-1.476c0-0.504-0.324-1.144-1.251-1.144c-1.197,0-1.251,1.116-1.278,1.558H113.785z"/>
		<path d="M121.625,24.758h-0.846v-4.492h-1.477v-0.63c1.026-0.072,1.45-0.171,1.702-1.207h0.621V24.758z"/>
	</g>
</g>
<g>
	<rect x="168.821" y="10.733" class="st1" width="57.579" height="22.146"/>
	<line class="st0" x1="197.61" y1="32.879" x2="197.61" y2="10.733"/>
	<rect x="177.027" y="15.53" class="st2" width="44.292" height="12.5"/>
	<g>
		<path d="M191.064,24.758h-0.847v-4.492h-1.477v-0.63c1.026-0.072,1.449-0.171,1.701-1.207h0.622V24.758z"/>
		<path d="M192.873,20.698c0-2.062,1.503-2.269,2.188-2.269c1.098,0,1.98,0.711,1.98,1.891c0,1.134-0.747,1.612-1.692,2.116
			l-0.657,0.36c-0.864,0.477-1.054,0.972-1.09,1.215h3.439v0.747h-4.33c0.045-1.314,0.639-2.017,1.485-2.512l0.837-0.486
			c0.676-0.387,1.161-0.648,1.161-1.476c0-0.504-0.324-1.144-1.251-1.144c-1.197,0-1.251,1.116-1.278,1.558H192.873z"/>
		<path d="M199.497,21.157c0.135,0.009,0.279,0.018,0.414,0.018c0.612,0,1.206-0.243,1.206-1.035c0-0.378-0.225-1-1.17-1
			c-1.125,0-1.197,0.918-1.233,1.359h-0.774c0-0.927,0.378-2.071,2.044-2.071c1.225,0,1.953,0.703,1.953,1.666
			c0,0.811-0.468,1.198-0.81,1.306v0.018c0.611,0.198,1.053,0.63,1.053,1.476c0,1.036-0.666,2.035-2.277,2.035
			c-0.469,0-0.864-0.117-1.171-0.279c-0.702-0.369-0.891-1.099-0.945-1.828h0.819c0.027,0.594,0.172,1.396,1.351,1.396
			c0.811,0,1.378-0.495,1.378-1.225c0-1.062-0.937-1.161-1.477-1.161c-0.117,0-0.243,0.009-0.36,0.009V21.157z"/>
		<path d="M206.265,23.218v1.54h-0.792v-1.54h-2.765v-0.774l2.899-4.016h0.657v4.105h0.927v0.684H206.265z M203.438,22.534h2.035
			v-2.872h-0.019L203.438,22.534z"/>
	</g>
</g>
</svg>
