<?xml version="1.0" encoding="utf-8"?>
<!-- Generator: Adobe Illustrator 28.2.0, SVG Export Plug-In . SVG Version: 6.00 Build 0)  -->
<svg version="1.1" id="儗僀儎乕_1" xmlns="http://www.w3.org/2000/svg" xmlns:xlink="http://www.w3.org/1999/xlink" x="0px"
	 y="0px" width="384.924px" height="52.108px" viewBox="0 0 384.924 52.108" style="enable-background:new 0 0 384.924 52.108;"
	 xml:space="preserve">
<style type="text/css">
	.st0{fill:none;stroke:#000000;stroke-width:0.3;}
	.st1{fill:none;stroke:#000000;stroke-width:0.5;}
	.st2{fill:#FFFFFF;}
</style>
<g>
	<path d="M262.981,21.397h-9.489v-1.369h9.489V21.397z M262.981,25.186h-9.489v-1.369h9.489V25.186z"/>
</g>
<line class="st0" x1="135.016" y1="33.894" x2="135.016" y2="42.919"/>
<line class="st0" x1="250.111" y1="33.894" x2="250.111" y2="42.919"/>
<polygon points="141.22,38.155 134.948,39.512 141.22,40.861 141.22,40.133 167.038,40.133 167.038,38.885 141.22,38.885 "/>
<polygon points="243.6,40.862 249.871,39.505 243.6,38.156 243.6,38.884 217.782,38.884 217.782,40.132 243.6,40.132 "/>
<g>
	<g>
		<path d="M217.2,2.579c-0.04-0.888-0.775-1.167-1.423-1.167c-0.488,0-1.311,0.136-1.311,1.007c0,0.488,0.344,0.647,0.68,0.728
			l1.639,0.376c0.744,0.176,1.304,0.624,1.304,1.535c0,1.359-1.264,1.735-2.247,1.735c-1.063,0-1.479-0.32-1.735-0.552
			c-0.488-0.439-0.584-0.919-0.584-1.455h0.728c0,1.04,0.847,1.343,1.583,1.343c0.56,0,1.503-0.144,1.503-0.967
			c0-0.6-0.28-0.792-1.223-1.016l-1.175-0.272c-0.376-0.088-1.224-0.352-1.224-1.351c0-0.896,0.584-1.775,1.975-1.775
			c2.007,0,2.207,1.199,2.239,1.831H217.2z"/>
		<path d="M219.785,6.64h-0.704V2.458h0.664v0.695h0.016c0.28-0.487,0.647-0.815,1.175-0.815c0.088,0,0.128,0.008,0.184,0.024V3.09
			h-0.264c-0.656,0-1.071,0.512-1.071,1.119V6.64z"/>
		<path d="M224.104,3.866c-0.088-0.56-0.4-0.896-0.991-0.896c-0.872,0-1.151,0.832-1.151,1.575c0,0.72,0.176,1.607,1.143,1.607
			c0.472,0,0.879-0.352,1-0.991h0.68c-0.072,0.664-0.48,1.599-1.703,1.599c-1.175,0-1.871-0.888-1.871-2.095
			c0-1.295,0.624-2.327,2.007-2.327c1.096,0,1.511,0.8,1.567,1.527H224.104z"/>
		<path d="M225.322,3.034c0-1.831,1.335-2.015,1.943-2.015c0.975,0,1.759,0.632,1.759,1.679c0,1.007-0.664,1.431-1.503,1.879
			l-0.584,0.32c-0.768,0.424-0.936,0.864-0.967,1.08h3.054V6.64h-3.846c0.04-1.167,0.567-1.791,1.319-2.231l0.744-0.432
			c0.6-0.344,1.031-0.576,1.031-1.311c0-0.448-0.288-1.016-1.111-1.016c-1.063,0-1.111,0.991-1.136,1.383H225.322z"/>
	</g>
</g>
<g>
	<g>
		<path d="M151.924,2.579c-0.04-0.888-0.775-1.167-1.423-1.167c-0.488,0-1.311,0.136-1.311,1.007c0,0.488,0.344,0.647,0.68,0.728
			l1.639,0.376c0.744,0.176,1.304,0.624,1.304,1.535c0,1.359-1.264,1.735-2.247,1.735c-1.063,0-1.479-0.32-1.735-0.552
			c-0.488-0.439-0.584-0.919-0.584-1.455h0.728c0,1.04,0.847,1.343,1.583,1.343c0.56,0,1.503-0.144,1.503-0.967
			c0-0.6-0.28-0.792-1.223-1.016l-1.175-0.272c-0.376-0.088-1.224-0.352-1.224-1.351c0-0.896,0.584-1.775,1.975-1.775
			c2.007,0,2.207,1.199,2.239,1.831H151.924z"/>
		<path d="M154.51,6.64h-0.704V2.458h0.664v0.695h0.016c0.28-0.487,0.647-0.815,1.175-0.815c0.088,0,0.128,0.008,0.184,0.024V3.09
			h-0.264c-0.656,0-1.071,0.512-1.071,1.119V6.64z"/>
		<path d="M158.829,3.866c-0.088-0.56-0.4-0.896-0.991-0.896c-0.872,0-1.151,0.832-1.151,1.575c0,0.72,0.176,1.607,1.143,1.607
			c0.472,0,0.879-0.352,1-0.991h0.68c-0.072,0.664-0.48,1.599-1.703,1.599c-1.175,0-1.871-0.888-1.871-2.095
			c0-1.295,0.624-2.327,2.007-2.327c1.096,0,1.511,0.8,1.567,1.527H158.829z"/>
		<path d="M160.047,3.034c0-1.831,1.335-2.015,1.943-2.015c0.975,0,1.759,0.632,1.759,1.679c0,1.007-0.664,1.431-1.503,1.879
			l-0.584,0.32c-0.768,0.424-0.936,0.864-0.967,1.08h3.054V6.64h-3.846c0.04-1.167,0.567-1.791,1.319-2.231l0.744-0.432
			c0.6-0.344,1.031-0.576,1.031-1.311c0-0.448-0.288-1.016-1.111-1.016c-1.063,0-1.111,0.991-1.136,1.383H160.047z"/>
	</g>
	<g>
		<path d="M172.088,2.603h0.583V4.33h1.727v0.583h-1.727V6.64h-0.583V4.913h-1.735V4.33h1.735V2.603z"/>
		<path d="M177.583,6.64h-0.752V2.65h-1.311v-0.56c0.912-0.064,1.287-0.152,1.511-1.072h0.552V6.64z"/>
	</g>
</g>
<g>
	<rect x="135.016" y="10.733" class="st1" width="115.158" height="22.146"/>
	<line class="st1" x1="192.595" y1="32.879" x2="192.595" y2="10.733"/>
	<line class="st0" x1="178.2" y1="32.879" x2="178.2" y2="10.733"/>
	<line class="st0" x1="163.806" y1="32.879" x2="163.806" y2="10.733"/>
	<line class="st0" x1="149.412" y1="32.879" x2="149.412" y2="10.733"/>
	<line class="st0" x1="206.989" y1="32.879" x2="206.989" y2="10.733"/>
	<line class="st0" x1="221.383" y1="32.879" x2="221.383" y2="10.733"/>
	<line class="st0" x1="235.778" y1="32.879" x2="235.778" y2="10.733"/>
	<rect x="144.109" y="15.53" class="st2" width="97.441" height="12.5"/>
	<g>
		<path d="M177.147,21.152v0.684h-6.068v-0.684H177.147z"/>
		<path d="M180.441,25.042h-0.762v-4.492h-1.329v-0.63c0.924-0.072,1.305-0.171,1.531-1.207h0.559V25.042z"/>
		<path d="M182.368,25.042h-0.842v-0.954h0.842V25.042z"/>
		<path d="M183.428,20.981c0-2.062,1.353-2.269,1.969-2.269c0.989,0,1.783,0.711,1.783,1.891c0,1.134-0.672,1.612-1.523,2.116
			l-0.591,0.36c-0.778,0.477-0.948,0.972-0.98,1.215h3.095v0.747h-3.897c0.041-1.314,0.576-2.017,1.337-2.512l0.754-0.486
			c0.607-0.387,1.045-0.648,1.045-1.476c0-0.504-0.292-1.144-1.126-1.144c-1.078,0-1.126,1.116-1.151,1.558H183.428z"/>
		<path d="M189.391,21.44c0.122,0.009,0.251,0.018,0.373,0.018c0.551,0,1.086-0.243,1.086-1.035c0-0.378-0.203-1-1.053-1
			c-1.013,0-1.078,0.918-1.11,1.359h-0.697c0-0.927,0.34-2.071,1.839-2.071c1.102,0,1.758,0.703,1.758,1.666
			c0,0.811-0.421,1.198-0.729,1.306v0.018c0.551,0.198,0.948,0.63,0.948,1.476c0,1.036-0.6,2.035-2.05,2.035
			c-0.421,0-0.778-0.117-1.053-0.279c-0.632-0.369-0.802-1.099-0.851-1.828h0.737c0.024,0.594,0.154,1.396,1.215,1.396
			c0.729,0,1.24-0.495,1.24-1.225c0-1.062-0.843-1.161-1.329-1.161c-0.105,0-0.219,0.009-0.324,0.009V21.44z"/>
		<path d="M195.482,23.502v1.54h-0.713v-1.54h-2.487v-0.774l2.609-4.016h0.591v4.105h0.835v0.684H195.482z M192.938,22.818h1.831
			v-2.872h-0.016L192.938,22.818z"/>
		<path d="M197.774,21.359c0.243-0.207,0.592-0.396,1.102-0.396c0.924,0,1.872,0.72,1.872,2.025c0,0.702-0.284,2.224-2.066,2.224
			c-0.746,0-1.702-0.333-1.839-1.747h0.737c0.073,0.738,0.567,1.062,1.208,1.062c0.737,0,1.199-0.657,1.199-1.449
			c0-0.91-0.559-1.405-1.264-1.405c-0.414,0-0.786,0.216-1.053,0.604l-0.616-0.036l0.43-3.394h2.949v0.774h-2.415L197.774,21.359z"
			/>
		<path d="M204.465,20.396c-0.089-0.558-0.365-0.972-0.98-0.972c-1.118,0-1.353,1.674-1.353,2.341l0.016,0.018
			c0.178-0.342,0.575-0.774,1.353-0.774c0.697,0,1.783,0.495,1.783,2.008c0,0.648-0.154,1.116-0.543,1.584
			c-0.3,0.369-0.64,0.612-1.442,0.612c-0.438,0-1.062-0.216-1.466-0.918c-0.34-0.594-0.438-1.369-0.438-2.197
			c0-1.386,0.405-3.385,2.106-3.385c0.656,0,1.588,0.396,1.661,1.684H204.465z M203.428,24.501c0.68,0,1.118-0.594,1.118-1.45
			c0-0.558-0.268-1.332-1.151-1.332c-0.786,0-1.167,0.63-1.167,1.377C202.229,23.772,202.593,24.501,203.428,24.501z"/>
		<path d="M205.89,18.848h3.938v0.693c-0.567,0.657-1.929,2.674-2.342,5.5H206.7c0.195-1.737,1.232-4.006,2.326-5.419h-3.136V18.848
			z"/>
		<path d="M213.351,21.674c0.77,0.36,0.932,1.062,0.932,1.54c0,1.018-0.583,1.999-1.928,1.999c-0.316,0-0.916-0.09-1.37-0.486
			c-0.583-0.513-0.583-1.198-0.583-1.503c0-0.774,0.364-1.27,0.964-1.54c-0.486-0.207-0.77-0.639-0.77-1.233
			c0-0.657,0.365-1.738,1.726-1.738c1.264,0,1.758,0.892,1.758,1.63C214.08,21.251,213.602,21.53,213.351,21.674z M211.163,23.241
			c0,0.504,0.227,1.261,1.215,1.261c0.519,0,1.143-0.207,1.143-1.197c0-0.855-0.535-1.233-1.183-1.233
			C211.536,22.071,211.163,22.656,211.163,23.241z M213.343,20.369c0-0.387-0.227-0.945-1.062-0.945
			c-0.761,0-0.948,0.585-0.948,0.99c0,0.603,0.478,0.972,0.997,0.972C212.946,21.386,213.343,20.945,213.343,20.369z"/>
	</g>
</g>
<line class="st0" x1="269.516" y1="33.894" x2="269.516" y2="42.919"/>
<line class="st0" x1="384.61" y1="33.894" x2="384.61" y2="42.919"/>
<polygon points="275.72,38.155 269.449,39.512 275.72,40.861 275.72,40.133 301.538,40.133 301.538,38.885 275.72,38.885 "/>
<polygon points="378.099,40.862 384.37,39.505 378.099,38.156 378.099,38.884 352.281,38.884 352.281,40.132 378.099,40.132 "/>
<g>
	<g>
		<path d="M350.423,0.899h2.327c1.495,0,2.414,1.135,2.414,2.791c0,1.287-0.56,2.95-2.446,2.95h-2.295V0.899z M351.199,5.977h1.504
			c1.007,0,1.663-0.792,1.663-2.239s-0.664-2.175-1.72-2.175h-1.447V5.977z"/>
		<path d="M358.447,3.65c-0.008-0.264-0.104-0.704-0.991-0.704c-0.216,0-0.832,0.072-0.832,0.591c0,0.344,0.216,0.424,0.76,0.56
			l0.703,0.176c0.872,0.216,1.176,0.536,1.176,1.104c0,0.863-0.712,1.383-1.655,1.383c-1.655,0-1.774-0.959-1.799-1.463h0.68
			c0.023,0.328,0.12,0.855,1.111,0.855c0.504,0,0.959-0.2,0.959-0.664c0-0.336-0.231-0.448-0.831-0.6l-0.815-0.2
			c-0.584-0.144-0.968-0.439-0.968-1.015c0-0.919,0.76-1.335,1.583-1.335c1.495,0,1.6,1.104,1.6,1.312H358.447z"/>
		<path d="M360.935,3.042v2.719c0,0.328,0.28,0.328,0.424,0.328h0.248V6.64c-0.256,0.024-0.455,0.056-0.527,0.056
			c-0.695,0-0.848-0.392-0.848-0.896V3.042h-0.567V2.458h0.567V1.291h0.703v1.167h0.672v0.583H360.935z"/>
	</g>
</g>
<g>
	<g>
		<path d="M285.148,0.899h2.327c1.495,0,2.414,1.135,2.414,2.791c0,1.287-0.56,2.95-2.446,2.95h-2.295V0.899z M285.923,5.977h1.504
			c1.007,0,1.663-0.792,1.663-2.239s-0.664-2.175-1.72-2.175h-1.447V5.977z"/>
		<path d="M293.172,3.65c-0.008-0.264-0.104-0.704-0.991-0.704c-0.216,0-0.832,0.072-0.832,0.591c0,0.344,0.216,0.424,0.76,0.56
			l0.703,0.176c0.872,0.216,1.176,0.536,1.176,1.104c0,0.863-0.712,1.383-1.655,1.383c-1.655,0-1.774-0.959-1.799-1.463h0.68
			c0.023,0.328,0.12,0.855,1.111,0.855c0.504,0,0.959-0.2,0.959-0.664c0-0.336-0.231-0.448-0.831-0.6l-0.815-0.2
			c-0.584-0.144-0.968-0.439-0.968-1.015c0-0.919,0.76-1.335,1.583-1.335c1.495,0,1.6,1.104,1.6,1.312H293.172z"/>
		<path d="M295.66,3.042v2.719c0,0.328,0.28,0.328,0.424,0.328h0.248V6.64c-0.256,0.024-0.455,0.056-0.527,0.056
			c-0.695,0-0.848-0.392-0.848-0.896V3.042h-0.567V2.458h0.567V1.291h0.703v1.167h0.672v0.583H295.66z"/>
	</g>
	<g>
		<path d="M304.107,2.603h0.584V4.33h1.727v0.583h-1.727V6.64h-0.584V4.913h-1.735V4.33h1.735V2.603z"/>
		<path d="M309.602,6.64h-0.751V2.65h-1.312v-0.56c0.911-0.064,1.287-0.152,1.511-1.072h0.552V6.64z"/>
	</g>
</g>
<g>
	<rect x="269.516" y="10.733" class="st1" width="115.158" height="22.146"/>
	<line class="st1" x1="327.093" y1="32.879" x2="327.093" y2="10.733"/>
	<line class="st0" x1="312.7" y1="32.879" x2="312.7" y2="10.733"/>
	<line class="st0" x1="298.306" y1="32.879" x2="298.306" y2="10.733"/>
	<line class="st0" x1="283.911" y1="32.879" x2="283.911" y2="10.733"/>
	<line class="st0" x1="341.488" y1="32.879" x2="341.488" y2="10.733"/>
	<line class="st0" x1="355.884" y1="32.879" x2="355.884" y2="10.733"/>
	<line class="st0" x1="370.277" y1="32.879" x2="370.277" y2="10.733"/>
	<rect x="278.608" y="15.53" class="st2" width="97.441" height="12.5"/>
	<g>
		<path d="M308.343,20.882c0-1.152,0.633-2.17,1.832-2.17c1.814,0,1.993,1.909,1.993,2.935c0,0.675-0.105,3.565-2.066,3.565
			c-1.337,0-1.693-1.08-1.693-1.692h0.713c0.04,0.639,0.381,1.035,0.964,1.035c0.778,0,1.191-0.729,1.369-2.368l-0.016-0.018
			c-0.211,0.486-0.778,0.756-1.305,0.756C309.081,22.926,308.343,22.143,308.343,20.882z M311.334,20.774
			c0-0.72-0.332-1.351-1.15-1.351c-0.664,0-1.103,0.576-1.103,1.422c0,1.215,0.681,1.369,1.159,1.369
			C310.613,22.215,311.334,22.025,311.334,20.774z"/>
		<path d="M314.055,25.042h-0.843v-0.954h0.843V25.042z"/>
		<path d="M315.099,20.882c0-1.152,0.633-2.17,1.832-2.17c1.814,0,1.993,1.909,1.993,2.935c0,0.675-0.105,3.565-2.066,3.565
			c-1.337,0-1.693-1.08-1.693-1.692h0.713c0.04,0.639,0.381,1.035,0.964,1.035c0.778,0,1.191-0.729,1.369-2.368l-0.016-0.018
			c-0.211,0.486-0.778,0.756-1.305,0.756C315.837,22.926,315.099,22.143,315.099,20.882z M318.09,20.774
			c0-0.72-0.332-1.351-1.15-1.351c-0.664,0-1.103,0.576-1.103,1.422c0,1.215,0.681,1.369,1.159,1.369
			C317.369,22.215,318.09,22.025,318.09,20.774z"/>
		<path d="M319.602,20.882c0-1.152,0.633-2.17,1.832-2.17c1.814,0,1.993,1.909,1.993,2.935c0,0.675-0.105,3.565-2.066,3.565
			c-1.337,0-1.693-1.08-1.693-1.692h0.713c0.04,0.639,0.381,1.035,0.964,1.035c0.778,0,1.191-0.729,1.369-2.368l-0.016-0.018
			c-0.211,0.486-0.778,0.756-1.305,0.756C320.34,22.926,319.602,22.143,319.602,20.882z M322.592,20.774
			c0-0.72-0.332-1.351-1.15-1.351c-0.664,0-1.103,0.576-1.103,1.422c0,1.215,0.681,1.369,1.159,1.369
			C321.872,22.215,322.592,22.025,322.592,20.774z"/>
		<path d="M324.106,20.882c0-1.152,0.633-2.17,1.832-2.17c1.814,0,1.993,1.909,1.993,2.935c0,0.675-0.105,3.565-2.066,3.565
			c-1.337,0-1.693-1.08-1.693-1.692h0.713c0.04,0.639,0.381,1.035,0.964,1.035c0.778,0,1.191-0.729,1.369-2.368l-0.016-0.018
			c-0.211,0.486-0.778,0.756-1.305,0.756C324.843,22.926,324.106,22.143,324.106,20.882z M327.096,20.774
			c0-0.72-0.332-1.351-1.15-1.351c-0.664,0-1.103,0.576-1.103,1.422c0,1.215,0.681,1.369,1.159,1.369
			C326.376,22.215,327.096,22.025,327.096,20.774z"/>
		<path d="M328.61,20.882c0-1.152,0.633-2.17,1.832-2.17c1.814,0,1.993,1.909,1.993,2.935c0,0.675-0.105,3.565-2.066,3.565
			c-1.337,0-1.693-1.08-1.693-1.692h0.713c0.04,0.639,0.381,1.035,0.964,1.035c0.778,0,1.191-0.729,1.369-2.368l-0.016-0.018
			c-0.211,0.486-0.778,0.756-1.305,0.756C329.347,22.926,328.61,22.143,328.61,20.882z M331.6,20.774c0-0.72-0.332-1.351-1.15-1.351
			c-0.664,0-1.103,0.576-1.103,1.422c0,1.215,0.681,1.369,1.159,1.369C330.88,22.215,331.6,22.025,331.6,20.774z"/>
		<path d="M333.113,20.882c0-1.152,0.633-2.17,1.832-2.17c1.814,0,1.993,1.909,1.993,2.935c0,0.675-0.105,3.565-2.066,3.565
			c-1.337,0-1.693-1.08-1.693-1.692h0.713c0.04,0.639,0.381,1.035,0.964,1.035c0.778,0,1.191-0.729,1.369-2.368l-0.016-0.018
			c-0.211,0.486-0.778,0.756-1.305,0.756C333.85,22.926,333.113,22.143,333.113,20.882z M336.103,20.774
			c0-0.72-0.332-1.351-1.15-1.351c-0.664,0-1.103,0.576-1.103,1.422c0,1.215,0.681,1.369,1.159,1.369
			C335.382,22.215,336.103,22.025,336.103,20.774z"/>
		<path d="M337.617,20.882c0-1.152,0.633-2.17,1.832-2.17c1.814,0,1.993,1.909,1.993,2.935c0,0.675-0.105,3.565-2.066,3.565
			c-1.337,0-1.693-1.08-1.693-1.692h0.713c0.04,0.639,0.381,1.035,0.964,1.035c0.778,0,1.191-0.729,1.369-2.368l-0.016-0.018
			c-0.211,0.486-0.778,0.756-1.305,0.756C338.354,22.926,337.617,22.143,337.617,20.882z M340.607,20.774
			c0-0.72-0.332-1.351-1.15-1.351c-0.664,0-1.103,0.576-1.103,1.422c0,1.215,0.681,1.369,1.159,1.369
			C339.886,22.215,340.607,22.025,340.607,20.774z"/>
		<path d="M342.121,20.882c0-1.152,0.633-2.17,1.832-2.17c1.814,0,1.993,1.909,1.993,2.935c0,0.675-0.105,3.565-2.066,3.565
			c-1.337,0-1.693-1.08-1.693-1.692h0.713c0.04,0.639,0.381,1.035,0.964,1.035c0.778,0,1.191-0.729,1.369-2.368l-0.016-0.018
			c-0.211,0.486-0.778,0.756-1.305,0.756C342.858,22.926,342.121,22.143,342.121,20.882z M345.111,20.774
			c0-0.72-0.332-1.351-1.15-1.351c-0.664,0-1.103,0.576-1.103,1.422c0,1.215,0.681,1.369,1.159,1.369
			C344.39,22.215,345.111,22.025,345.111,20.774z"/>
	</g>
</g>
<g>
	<path d="M130.592,19.035v1.725h-12.715v-1.725H130.592z"/>
</g>
<line class="st0" x1="0.25" y1="33.894" x2="0.25" y2="42.919"/>
<line class="st0" x1="115.345" y1="33.894" x2="115.345" y2="42.919"/>
<polygon points="6.454,38.155 0.183,39.512 6.454,40.861 6.454,40.133 32.272,40.133 32.272,38.885 6.454,38.885 "/>
<polygon points="108.834,40.862 115.105,39.505 108.834,38.156 108.834,38.884 83.016,38.884 83.016,40.132 108.834,40.132 "/>
<g>
	<g>
		<path d="M82.434,2.579c-0.04-0.888-0.775-1.167-1.423-1.167c-0.488,0-1.311,0.136-1.311,1.007c0,0.488,0.344,0.647,0.68,0.728
			l1.639,0.376c0.744,0.176,1.304,0.624,1.304,1.535c0,1.359-1.264,1.735-2.247,1.735c-1.063,0-1.479-0.32-1.735-0.552
			c-0.488-0.439-0.584-0.919-0.584-1.455h0.728c0,1.04,0.847,1.343,1.583,1.343c0.56,0,1.503-0.144,1.503-0.967
			c0-0.6-0.28-0.792-1.223-1.016l-1.175-0.272c-0.376-0.088-1.224-0.352-1.224-1.351c0-0.896,0.584-1.775,1.975-1.775
			c2.007,0,2.207,1.199,2.239,1.831H82.434z"/>
		<path d="M85.02,6.64h-0.704V2.458h0.664v0.695h0.016c0.28-0.487,0.647-0.815,1.175-0.815c0.088,0,0.128,0.008,0.184,0.024V3.09
			h-0.264c-0.656,0-1.071,0.512-1.071,1.119V6.64z"/>
		<path d="M89.339,3.866c-0.088-0.56-0.4-0.896-0.991-0.896c-0.872,0-1.151,0.832-1.151,1.575c0,0.72,0.176,1.607,1.143,1.607
			c0.472,0,0.879-0.352,1-0.991h0.68c-0.072,0.664-0.48,1.599-1.703,1.599c-1.175,0-1.871-0.888-1.871-2.095
			c0-1.295,0.624-2.327,2.007-2.327c1.096,0,1.511,0.8,1.567,1.527H89.339z"/>
		<path d="M93.075,6.64h-0.752V2.65h-1.311v-0.56c0.912-0.064,1.287-0.152,1.511-1.072h0.552V6.64z"/>
	</g>
</g>
<g>
	<g>
		<path d="M17.159,2.579c-0.04-0.888-0.775-1.167-1.423-1.167c-0.488,0-1.311,0.136-1.311,1.007c0,0.488,0.344,0.647,0.68,0.728
			l1.639,0.376c0.744,0.176,1.304,0.624,1.304,1.535c0,1.359-1.264,1.735-2.247,1.735c-1.063,0-1.479-0.32-1.735-0.552
			c-0.488-0.439-0.584-0.919-0.584-1.455h0.728c0,1.04,0.847,1.343,1.583,1.343c0.56,0,1.503-0.144,1.503-0.967
			c0-0.6-0.28-0.792-1.223-1.016l-1.175-0.272c-0.376-0.088-1.224-0.352-1.224-1.351c0-0.896,0.584-1.775,1.975-1.775
			c2.007,0,2.207,1.199,2.239,1.831H17.159z"/>
		<path d="M19.744,6.64h-0.704V2.458h0.664v0.695h0.016c0.28-0.487,0.647-0.815,1.175-0.815c0.088,0,0.128,0.008,0.184,0.024V3.09
			h-0.264c-0.656,0-1.071,0.512-1.071,1.119V6.64z"/>
		<path d="M24.063,3.866c-0.088-0.56-0.4-0.896-0.991-0.896c-0.872,0-1.151,0.832-1.151,1.575c0,0.72,0.176,1.607,1.143,1.607
			c0.472,0,0.879-0.352,1-0.991h0.68c-0.072,0.664-0.48,1.599-1.703,1.599c-1.175,0-1.871-0.888-1.871-2.095
			c0-1.295,0.624-2.327,2.007-2.327c1.096,0,1.511,0.8,1.567,1.527H24.063z"/>
		<path d="M27.799,6.64h-0.752V2.65h-1.311v-0.56c0.912-0.064,1.287-0.152,1.511-1.072h0.552V6.64z"/>
	</g>
	<g>
		<path d="M36.259,2.603h0.583V4.33h1.727v0.583h-1.727V6.64h-0.583V4.913h-1.735V4.33h1.735V2.603z"/>
		<path d="M41.755,6.64h-0.752V2.65h-1.311v-0.56c0.912-0.064,1.287-0.152,1.511-1.072h0.552V6.64z"/>
	</g>
</g>
<g>
	<rect x="0.25" y="10.733" class="st1" width="115.158" height="22.146"/>
	<line class="st1" x1="57.829" y1="32.879" x2="57.829" y2="10.733"/>
	<line class="st0" x1="43.435" y1="32.879" x2="43.435" y2="10.733"/>
	<line class="st0" x1="29.04" y1="32.879" x2="29.04" y2="10.733"/>
	<line class="st0" x1="14.646" y1="32.879" x2="14.646" y2="10.733"/>
	<line class="st0" x1="72.223" y1="32.879" x2="72.223" y2="10.733"/>
	<line class="st0" x1="86.618" y1="32.879" x2="86.618" y2="10.733"/>
	<line class="st0" x1="101.012" y1="32.879" x2="101.012" y2="10.733"/>
	<rect x="9.343" y="15.53" class="st2" width="97.441" height="12.5"/>
	<g>
		<path d="M42.157,21.674c0.77,0.36,0.932,1.062,0.932,1.54c0,1.018-0.583,1.999-1.928,1.999c-0.316,0-0.916-0.09-1.37-0.486
			c-0.583-0.513-0.583-1.198-0.583-1.503c0-0.774,0.364-1.27,0.964-1.54c-0.486-0.207-0.77-0.639-0.77-1.233
			c0-0.657,0.365-1.738,1.726-1.738c1.264,0,1.758,0.892,1.758,1.63C42.886,21.251,42.408,21.53,42.157,21.674z M39.969,23.241
			c0,0.504,0.227,1.261,1.215,1.261c0.519,0,1.143-0.207,1.143-1.197c0-0.855-0.535-1.233-1.183-1.233
			C40.342,22.071,39.969,22.656,39.969,23.241z M42.149,20.369c0-0.387-0.227-0.945-1.062-0.945c-0.762,0-0.948,0.585-0.948,0.99
			c0,0.603,0.478,0.972,0.997,0.972C41.752,21.386,42.149,20.945,42.149,20.369z"/>
		<path d="M44.951,25.042h-0.842v-0.954h0.842V25.042z"/>
		<path d="M45.955,18.848h3.938v0.693c-0.567,0.657-1.929,2.674-2.342,5.5h-0.786c0.195-1.737,1.232-4.006,2.326-5.419h-3.136
			V18.848z"/>
		<path d="M53.214,20.396c-0.089-0.558-0.365-0.972-0.98-0.972c-1.118,0-1.353,1.674-1.353,2.341l0.016,0.018
			c0.178-0.342,0.575-0.774,1.353-0.774c0.697,0,1.783,0.495,1.783,2.008c0,0.648-0.154,1.116-0.543,1.584
			c-0.3,0.369-0.64,0.612-1.442,0.612c-0.438,0-1.062-0.216-1.466-0.918c-0.34-0.594-0.438-1.369-0.438-2.197
			c0-1.386,0.405-3.385,2.106-3.385c0.656,0,1.588,0.396,1.661,1.684H53.214z M52.177,24.501c0.68,0,1.118-0.594,1.118-1.45
			c0-0.558-0.268-1.332-1.151-1.332c-0.786,0-1.167,0.63-1.167,1.377C50.978,23.772,51.342,24.501,52.177,24.501z"/>
		<path d="M55.529,21.359c0.243-0.207,0.592-0.396,1.102-0.396c0.924,0,1.872,0.72,1.872,2.025c0,0.702-0.284,2.224-2.066,2.224
			c-0.746,0-1.702-0.333-1.839-1.747h0.737c0.073,0.738,0.567,1.062,1.208,1.062c0.737,0,1.199-0.657,1.199-1.449
			c0-0.91-0.559-1.405-1.264-1.405c-0.414,0-0.786,0.216-1.053,0.604l-0.616-0.036l0.43-3.394h2.949v0.774h-2.415L55.529,21.359z"/>
		<path d="M62.245,23.502v1.54h-0.713v-1.54h-2.487v-0.774l2.609-4.016h0.591v4.105h0.835v0.684H62.245z M59.701,22.818h1.831
			v-2.872h-0.016L59.701,22.818z"/>
		<path d="M65.161,21.44c0.122,0.009,0.251,0.018,0.373,0.018c0.551,0,1.086-0.243,1.086-1.035c0-0.378-0.203-1-1.053-1
			c-1.013,0-1.078,0.918-1.11,1.359h-0.697c0-0.927,0.34-2.071,1.839-2.071c1.102,0,1.758,0.703,1.758,1.666
			c0,0.811-0.421,1.198-0.729,1.306v0.018c0.551,0.198,0.948,0.63,0.948,1.476c0,1.036-0.6,2.035-2.05,2.035
			c-0.421,0-0.778-0.117-1.053-0.279c-0.632-0.369-0.802-1.099-0.851-1.828h0.737c0.024,0.594,0.154,1.396,1.215,1.396
			c0.729,0,1.24-0.495,1.24-1.225c0-1.062-0.843-1.161-1.329-1.161c-0.105,0-0.219,0.009-0.324,0.009V21.44z"/>
		<path d="M68.206,20.981c0-2.062,1.353-2.269,1.969-2.269c0.989,0,1.783,0.711,1.783,1.891c0,1.134-0.672,1.612-1.523,2.116
			l-0.591,0.36c-0.778,0.477-0.948,0.972-0.98,1.215h3.095v0.747H68.06c0.041-1.314,0.576-2.017,1.337-2.512l0.754-0.486
			c0.607-0.387,1.045-0.648,1.045-1.476c0-0.504-0.292-1.144-1.126-1.144c-1.078,0-1.126,1.116-1.151,1.558H68.206z"/>
		<path d="M75.262,25.042H74.5v-4.492h-1.329v-0.63c0.924-0.072,1.305-0.171,1.531-1.207h0.559V25.042z"/>
	</g>
</g>
<g>
	<path d="M186.249,39.731c0.105,0.007,0.217,0.014,0.322,0.014c0.476,0,0.938-0.189,0.938-0.805c0-0.294-0.175-0.777-0.911-0.777
		c-0.875,0-0.932,0.714-0.959,1.057h-0.602c0-0.721,0.294-1.611,1.59-1.611c0.952,0,1.52,0.546,1.52,1.296
		c0,0.63-0.364,0.932-0.63,1.016v0.014c0.477,0.154,0.819,0.491,0.819,1.149c0,0.805-0.518,1.583-1.772,1.583
		c-0.364,0-0.672-0.091-0.91-0.217c-0.546-0.287-0.693-0.854-0.735-1.422h0.637c0.021,0.462,0.133,1.085,1.051,1.085
		c0.63,0,1.071-0.385,1.071-0.952c0-0.827-0.729-0.904-1.148-0.904c-0.091,0-0.189,0.007-0.28,0.007V39.731z"/>
	<path d="M188.881,39.374c0-1.604,1.17-1.765,1.702-1.765c0.854,0,1.541,0.554,1.541,1.471c0,0.882-0.581,1.253-1.316,1.646
		l-0.511,0.28c-0.672,0.371-0.82,0.756-0.848,0.945h2.675v0.582h-3.369c0.035-1.022,0.497-1.569,1.156-1.954l0.651-0.378
		c0.525-0.301,0.903-0.504,0.903-1.149c0-0.392-0.252-0.889-0.974-0.889c-0.932,0-0.974,0.868-0.995,1.211H188.881z"/>
	<path d="M192.871,42.533v-5.029h0.616v1.828h0.014c0.266-0.385,0.63-0.561,1.058-0.567c0.974,0,1.527,0.798,1.527,1.828
		c0,0.875-0.364,2.045-1.611,2.045c-0.624,0-0.883-0.357-1.009-0.56h-0.014v0.455H192.871z M194.446,39.318
		c-0.889,0-0.987,0.959-0.987,1.555c0,0.973,0.609,1.232,1.001,1.232c0.672,0,0.987-0.609,0.987-1.415
		C195.448,40.222,195.399,39.318,194.446,39.318z"/>
	<path d="M196.825,38.205v-0.701h0.616v0.701H196.825z M197.442,42.533h-0.616V38.87h0.616V42.533z"/>
	<path d="M199.122,39.381v2.381c0,0.287,0.245,0.287,0.372,0.287h0.217v0.483c-0.224,0.021-0.399,0.049-0.462,0.049
		c-0.609,0-0.743-0.343-0.743-0.784v-2.417h-0.497V38.87h0.497v-1.022h0.616v1.022h0.588v0.511H199.122z"/>
	<path d="M180.849,45.399c-0.595,1.121-0.952,1.793-0.952,3.474c0,1.155,0.399,2.01,0.959,3.109h-0.413
		c-0.729-1.092-1.205-1.968-1.205-3.278c0-1.232,0.427-2.227,1.184-3.306H180.849z"/>
	<path d="M181.401,47.374c0-1.604,1.17-1.765,1.702-1.765c0.854,0,1.541,0.554,1.541,1.471c0,0.882-0.581,1.253-1.316,1.646
		l-0.511,0.28c-0.672,0.371-0.82,0.756-0.848,0.945h2.675v0.582h-3.369c0.035-1.022,0.497-1.569,1.156-1.954l0.651-0.378
		c0.525-0.301,0.903-0.504,0.903-1.149c0-0.392-0.252-0.889-0.974-0.889c-0.932,0-0.974,0.868-0.995,1.211H181.401z"/>
	<path d="M186.778,50.533h-0.637l-1.058-3.663h0.672l0.7,2.879h0.014l0.708-2.879h0.686l0.714,2.879h0.014l0.742-2.879h0.617
		l-1.065,3.663h-0.637l-0.742-2.836h-0.014L186.778,50.533z"/>
	<path d="M191.916,46.765c1.169,0,1.702,0.988,1.702,1.933s-0.532,1.933-1.702,1.933c-1.17,0-1.702-0.988-1.702-1.933
		S190.746,46.765,191.916,46.765z M191.916,50.099c0.882,0,1.064-0.911,1.064-1.401s-0.182-1.401-1.064-1.401
		c-0.883,0-1.065,0.911-1.065,1.401S191.033,50.099,191.916,50.099z"/>
	<path d="M195.017,50.533H194.4V46.87h0.582v0.609h0.014c0.245-0.427,0.567-0.714,1.029-0.714c0.077,0,0.112,0.007,0.161,0.021
		v0.637h-0.231c-0.574,0-0.938,0.448-0.938,0.981V50.533z"/>
	<path d="M199.547,50.533h-0.582v-0.504h-0.014c-0.266,0.498-0.686,0.609-1.043,0.609c-1.247,0-1.611-1.169-1.611-2.045
		c0-1.03,0.553-1.828,1.527-1.828c0.666,0,0.945,0.413,1.093,0.624l0.014-0.049v-1.835h0.617V50.533z M197.922,50.105
		c0.392,0,1.001-0.259,1.001-1.232c0-0.596-0.098-1.555-0.988-1.555c-0.952,0-1.001,0.904-1.001,1.373
		C196.934,49.496,197.25,50.105,197.922,50.105z"/>
	<path d="M202.479,47.913c-0.007-0.231-0.091-0.616-0.868-0.616c-0.189,0-0.729,0.063-0.729,0.519c0,0.301,0.189,0.371,0.666,0.49
		l0.616,0.154c0.763,0.189,1.03,0.469,1.03,0.967c0,0.756-0.624,1.211-1.45,1.211c-1.45,0-1.555-0.84-1.576-1.282h0.595
		c0.021,0.287,0.105,0.75,0.974,0.75c0.441,0,0.84-0.175,0.84-0.582c0-0.294-0.203-0.392-0.728-0.525l-0.715-0.175
		c-0.511-0.126-0.847-0.385-0.847-0.89c0-0.805,0.666-1.169,1.387-1.169c1.31,0,1.401,0.966,1.401,1.148H202.479z"/>
	<path d="M203.689,51.982c0.595-1.121,0.953-1.793,0.953-3.474c0-1.156-0.399-2.01-0.959-3.11h0.413
		c0.729,1.093,1.205,1.968,1.205,3.278c0,1.232-0.427,2.227-1.184,3.306H203.689z"/>
</g>
<g>
	<path d="M320.627,39.731c0.105,0.007,0.218,0.014,0.322,0.014c0.477,0,0.938-0.189,0.938-0.805c0-0.294-0.175-0.777-0.91-0.777
		c-0.875,0-0.932,0.714-0.959,1.057h-0.603c0-0.721,0.294-1.611,1.59-1.611c0.952,0,1.52,0.546,1.52,1.296
		c0,0.63-0.364,0.932-0.63,1.016v0.014c0.476,0.154,0.819,0.491,0.819,1.149c0,0.805-0.519,1.583-1.772,1.583
		c-0.364,0-0.672-0.091-0.91-0.217c-0.547-0.287-0.693-0.854-0.735-1.422h0.637c0.021,0.462,0.134,1.085,1.051,1.085
		c0.631,0,1.072-0.385,1.072-0.952c0-0.827-0.729-0.904-1.149-0.904c-0.091,0-0.188,0.007-0.28,0.007V39.731z"/>
	<path d="M323.258,39.374c0-1.604,1.169-1.765,1.701-1.765c0.854,0,1.541,0.554,1.541,1.471c0,0.882-0.581,1.253-1.316,1.646
		l-0.512,0.28c-0.672,0.371-0.819,0.756-0.848,0.945h2.676v0.582h-3.369c0.035-1.022,0.498-1.569,1.156-1.954l0.651-0.378
		c0.525-0.301,0.903-0.504,0.903-1.149c0-0.392-0.252-0.889-0.974-0.889c-0.932,0-0.974,0.868-0.994,1.211H323.258z"/>
	<path d="M327.249,42.533v-5.029h0.616v1.828h0.014c0.267-0.385,0.631-0.561,1.058-0.567c0.974,0,1.527,0.798,1.527,1.828
		c0,0.875-0.364,2.045-1.611,2.045c-0.623,0-0.882-0.357-1.008-0.56h-0.015v0.455H327.249z M328.825,39.318
		c-0.89,0-0.988,0.959-0.988,1.555c0,0.973,0.609,1.232,1.002,1.232c0.672,0,0.987-0.609,0.987-1.415
		C329.826,40.222,329.777,39.318,328.825,39.318z"/>
	<path d="M331.204,38.205v-0.701h0.616v0.701H331.204z M331.82,42.533h-0.616V38.87h0.616V42.533z"/>
	<path d="M333.5,39.381v2.381c0,0.287,0.245,0.287,0.371,0.287h0.217v0.483c-0.224,0.021-0.399,0.049-0.462,0.049
		c-0.609,0-0.742-0.343-0.742-0.784v-2.417h-0.498V38.87h0.498v-1.022h0.616v1.022h0.588v0.511H333.5z"/>
	<path d="M315.226,45.399c-0.595,1.121-0.952,1.793-0.952,3.474c0,1.155,0.399,2.01,0.959,3.109h-0.413
		c-0.729-1.092-1.204-1.968-1.204-3.278c0-1.232,0.427-2.227,1.184-3.306H315.226z"/>
	<path d="M315.779,47.374c0-1.604,1.169-1.765,1.701-1.765c0.854,0,1.541,0.554,1.541,1.471c0,0.882-0.581,1.253-1.316,1.646
		l-0.512,0.28c-0.672,0.371-0.819,0.756-0.848,0.945h2.676v0.582h-3.369c0.035-1.022,0.498-1.569,1.156-1.954l0.651-0.378
		c0.525-0.301,0.903-0.504,0.903-1.149c0-0.392-0.252-0.889-0.974-0.889c-0.932,0-0.974,0.868-0.994,1.211H315.779z"/>
	<path d="M321.155,50.533h-0.638l-1.058-3.663h0.673l0.7,2.879h0.014l0.708-2.879h0.687l0.714,2.879h0.015l0.742-2.879h0.616
		l-1.064,3.663h-0.638l-0.742-2.836h-0.014L321.155,50.533z"/>
	<path d="M326.294,46.765c1.169,0,1.702,0.988,1.702,1.933s-0.533,1.933-1.702,1.933c-1.17,0-1.702-0.988-1.702-1.933
		S325.124,46.765,326.294,46.765z M326.294,50.099c0.882,0,1.064-0.911,1.064-1.401s-0.183-1.401-1.064-1.401
		c-0.883,0-1.064,0.911-1.064,1.401S325.411,50.099,326.294,50.099z"/>
	<path d="M329.393,50.533h-0.616V46.87h0.582v0.609h0.014c0.245-0.427,0.567-0.714,1.029-0.714c0.077,0,0.112,0.007,0.161,0.021
		v0.637h-0.231c-0.574,0-0.938,0.448-0.938,0.981V50.533z"/>
	<path d="M333.924,50.533h-0.581v-0.504h-0.015c-0.266,0.498-0.687,0.609-1.043,0.609c-1.247,0-1.611-1.169-1.611-2.045
		c0-1.03,0.554-1.828,1.526-1.828c0.666,0,0.946,0.413,1.093,0.624l0.015-0.049v-1.835h0.616V50.533z M332.299,50.105
		c0.393,0,1.001-0.259,1.001-1.232c0-0.596-0.098-1.555-0.987-1.555c-0.952,0-1.001,0.904-1.001,1.373
		C331.312,49.496,331.627,50.105,332.299,50.105z"/>
	<path d="M336.856,47.913c-0.007-0.231-0.091-0.616-0.868-0.616c-0.189,0-0.729,0.063-0.729,0.519c0,0.301,0.189,0.371,0.665,0.49
		l0.616,0.154c0.764,0.189,1.03,0.469,1.03,0.967c0,0.756-0.624,1.211-1.45,1.211c-1.449,0-1.555-0.84-1.576-1.282h0.596
		c0.021,0.287,0.105,0.75,0.974,0.75c0.441,0,0.841-0.175,0.841-0.582c0-0.294-0.203-0.392-0.729-0.525l-0.715-0.175
		c-0.511-0.126-0.848-0.385-0.848-0.89c0-0.805,0.666-1.169,1.387-1.169c1.311,0,1.401,0.966,1.401,1.148H336.856z"/>
	<path d="M338.066,51.982c0.596-1.121,0.952-1.793,0.952-3.474c0-1.156-0.398-2.01-0.959-3.11h0.413
		c0.729,1.093,1.205,1.968,1.205,3.278c0,1.232-0.428,2.227-1.184,3.306H338.066z"/>
</g>
<g>
	<path d="M51.874,39.731c0.105,0.007,0.217,0.014,0.322,0.014c0.476,0,0.938-0.189,0.938-0.805c0-0.294-0.175-0.777-0.911-0.777
		c-0.875,0-0.932,0.714-0.959,1.057h-0.602c0-0.721,0.294-1.611,1.59-1.611c0.952,0,1.52,0.546,1.52,1.296
		c0,0.63-0.364,0.932-0.63,1.016v0.014c0.477,0.154,0.819,0.491,0.819,1.149c0,0.805-0.518,1.583-1.772,1.583
		c-0.364,0-0.672-0.091-0.91-0.217c-0.546-0.287-0.693-0.854-0.735-1.422h0.637c0.021,0.462,0.133,1.085,1.051,1.085
		c0.63,0,1.071-0.385,1.071-0.952c0-0.827-0.729-0.904-1.148-0.904c-0.091,0-0.189,0.007-0.28,0.007V39.731z"/>
	<path d="M54.506,39.374c0-1.604,1.17-1.765,1.702-1.765c0.854,0,1.541,0.554,1.541,1.471c0,0.882-0.581,1.253-1.316,1.646
		l-0.511,0.28c-0.672,0.371-0.82,0.756-0.848,0.945h2.675v0.582H54.38c0.035-1.022,0.497-1.569,1.156-1.954l0.651-0.378
		c0.525-0.301,0.903-0.504,0.903-1.149c0-0.392-0.252-0.889-0.974-0.889c-0.932,0-0.974,0.868-0.995,1.211H54.506z"/>
	<path d="M58.496,42.533v-5.029h0.616v1.828h0.014c0.266-0.385,0.63-0.561,1.058-0.567c0.974,0,1.527,0.798,1.527,1.828
		c0,0.875-0.364,2.045-1.611,2.045c-0.624,0-0.883-0.357-1.009-0.56h-0.014v0.455H58.496z M60.071,39.318
		c-0.889,0-0.987,0.959-0.987,1.555c0,0.973,0.609,1.232,1.001,1.232c0.672,0,0.987-0.609,0.987-1.415
		C61.073,40.222,61.024,39.318,60.071,39.318z"/>
	<path d="M62.45,38.205v-0.701h0.616v0.701H62.45z M63.067,42.533H62.45V38.87h0.616V42.533z"/>
	<path d="M64.747,39.381v2.381c0,0.287,0.245,0.287,0.372,0.287h0.217v0.483c-0.224,0.021-0.399,0.049-0.462,0.049
		c-0.609,0-0.743-0.343-0.743-0.784v-2.417h-0.497V38.87h0.497v-1.022h0.616v1.022h0.588v0.511H64.747z"/>
	<path d="M46.474,45.399c-0.595,1.121-0.952,1.793-0.952,3.474c0,1.155,0.399,2.01,0.959,3.109h-0.413
		c-0.729-1.092-1.205-1.968-1.205-3.278c0-1.232,0.427-2.227,1.184-3.306H46.474z"/>
	<path d="M47.026,47.374c0-1.604,1.17-1.765,1.702-1.765c0.854,0,1.541,0.554,1.541,1.471c0,0.882-0.581,1.253-1.316,1.646
		l-0.511,0.28c-0.672,0.371-0.82,0.756-0.848,0.945h2.675v0.582H46.9c0.035-1.022,0.497-1.569,1.156-1.954l0.651-0.378
		c0.525-0.301,0.903-0.504,0.903-1.149c0-0.392-0.252-0.889-0.974-0.889c-0.932,0-0.974,0.868-0.995,1.211H47.026z"/>
	<path d="M52.403,50.533h-0.637l-1.058-3.663h0.672l0.7,2.879h0.014l0.708-2.879h0.686l0.714,2.879h0.014l0.742-2.879h0.617
		l-1.065,3.663h-0.637l-0.742-2.836h-0.014L52.403,50.533z"/>
	<path d="M57.541,46.765c1.169,0,1.702,0.988,1.702,1.933s-0.532,1.933-1.702,1.933c-1.17,0-1.702-0.988-1.702-1.933
		S56.371,46.765,57.541,46.765z M57.541,50.099c0.882,0,1.064-0.911,1.064-1.401s-0.182-1.401-1.064-1.401
		c-0.883,0-1.065,0.911-1.065,1.401S56.658,50.099,57.541,50.099z"/>
	<path d="M60.642,50.533h-0.617V46.87h0.582v0.609h0.014c0.245-0.427,0.567-0.714,1.029-0.714c0.077,0,0.112,0.007,0.161,0.021
		v0.637H61.58c-0.574,0-0.938,0.448-0.938,0.981V50.533z"/>
	<path d="M65.172,50.533H64.59v-0.504h-0.014c-0.266,0.498-0.686,0.609-1.043,0.609c-1.247,0-1.611-1.169-1.611-2.045
		c0-1.03,0.553-1.828,1.527-1.828c0.666,0,0.945,0.413,1.093,0.624l0.014-0.049v-1.835h0.617V50.533z M63.547,50.105
		c0.392,0,1.001-0.259,1.001-1.232c0-0.596-0.098-1.555-0.988-1.555c-0.952,0-1.001,0.904-1.001,1.373
		C62.559,49.496,62.875,50.105,63.547,50.105z"/>
	<path d="M68.104,47.913c-0.007-0.231-0.091-0.616-0.868-0.616c-0.189,0-0.729,0.063-0.729,0.519c0,0.301,0.189,0.371,0.666,0.49
		l0.616,0.154c0.763,0.189,1.03,0.469,1.03,0.967c0,0.756-0.624,1.211-1.45,1.211c-1.45,0-1.555-0.84-1.576-1.282h0.595
		c0.021,0.287,0.105,0.75,0.974,0.75c0.441,0,0.84-0.175,0.84-0.582c0-0.294-0.203-0.392-0.728-0.525l-0.715-0.175
		c-0.511-0.126-0.847-0.385-0.847-0.89c0-0.805,0.666-1.169,1.387-1.169c1.31,0,1.401,0.966,1.401,1.148H68.104z"/>
	<path d="M69.314,51.982c0.595-1.121,0.953-1.793,0.953-3.474c0-1.156-0.399-2.01-0.959-3.11h0.413
		c0.729,1.093,1.205,1.968,1.205,3.278c0,1.232-0.427,2.227-1.184,3.306H69.314z"/>
</g>
</svg>
