<?xml version="1.0" encoding="utf-8"?>
<!-- Generator: Adobe Illustrator 28.2.0, SVG Export Plug-In . SVG Version: 6.00 Build 0)  -->
<svg version="1.1" id="儗僀儎乕_1" xmlns="http://www.w3.org/2000/svg" xmlns:xlink="http://www.w3.org/1999/xlink" x="0px"
	 y="0px" width="518.771px" height="52.109px" viewBox="0 0 518.771 52.109" style="enable-background:new 0 0 518.771 52.109;"
	 xml:space="preserve">
<style type="text/css">
	.st0{fill:none;stroke:#000000;stroke-width:0.3;}
	.st1{fill:none;stroke:#000000;stroke-width:0.5;}
	.st2{fill:#FFFFFF;}
</style>
<g>
	<path d="M350.461,21.586h-9.451v-2.1h9.451V21.586z M350.461,25.712h-9.451v-2.101h9.451V25.712z"/>
</g>
<g>
	<line class="st0" x1="178.766" y1="33.895" x2="178.766" y2="42.92"/>
	<polygon points="184.97,38.156 178.698,39.513 184.97,40.862 184.97,40.134 210.788,40.134 210.788,38.886 184.97,38.886 	"/>
</g>
<g>
	<line class="st0" x1="336.361" y1="33.895" x2="336.361" y2="42.92"/>
	<polygon points="329.849,40.863 336.12,39.506 329.849,38.157 329.849,38.885 304.031,38.885 304.031,40.133 329.849,40.133 	"/>
</g>
<g>
	<path d="M254.733,38.92c-0.077-0.435-0.315-0.756-0.847-0.756c-0.967,0-1.17,1.302-1.17,1.821l0.014,0.014
		c0.154-0.267,0.497-0.603,1.169-0.603c0.603,0,1.541,0.385,1.541,1.562c0,0.504-0.133,0.868-0.469,1.232
		c-0.259,0.287-0.553,0.477-1.247,0.477c-0.378,0-0.917-0.168-1.268-0.715c-0.294-0.462-0.378-1.064-0.378-1.708
		c0-1.079,0.35-2.634,1.821-2.634c0.567,0,1.373,0.308,1.436,1.31H254.733z M253.837,42.113c0.588,0,0.967-0.462,0.967-1.127
		c0-0.434-0.231-1.037-0.995-1.037c-0.679,0-1.009,0.49-1.009,1.072C252.8,41.546,253.116,42.113,253.837,42.113z"/>
	<path d="M258.646,41.336v1.198h-0.616v-1.198h-2.15v-0.602l2.256-3.124h0.511v3.194h0.722v0.532H258.646z M256.447,40.804h1.583
		v-2.234h-0.014L256.447,40.804z"/>
	<path d="M260.003,42.534v-5.029h0.616v1.828h0.014c0.267-0.385,0.631-0.561,1.058-0.567c0.974,0,1.527,0.798,1.527,1.828
		c0,0.875-0.364,2.045-1.611,2.045c-0.623,0-0.882-0.357-1.008-0.56h-0.015v0.455H260.003z M261.579,39.319
		c-0.89,0-0.988,0.959-0.988,1.555c0,0.973,0.609,1.232,1.002,1.232c0.672,0,0.987-0.609,0.987-1.415
		C262.58,40.223,262.532,39.319,261.579,39.319z"/>
	<path d="M263.958,38.206v-0.701h0.616v0.701H263.958z M264.575,42.534h-0.616v-3.663h0.616V42.534z"/>
	<path d="M266.254,39.382v2.381c0,0.287,0.245,0.287,0.371,0.287h0.217v0.483c-0.224,0.021-0.399,0.049-0.462,0.049
		c-0.609,0-0.742-0.343-0.742-0.784v-2.417h-0.498v-0.511h0.498v-1.022h0.616v1.022h0.588v0.511H266.254z"/>
	<path d="M247.981,45.4c-0.595,1.121-0.952,1.793-0.952,3.474c0,1.155,0.399,2.01,0.959,3.109h-0.413
		c-0.729-1.092-1.205-1.968-1.205-3.278c0-1.232,0.427-2.227,1.184-3.306H247.981z"/>
	<path d="M251.167,49.336v1.198h-0.616v-1.198h-2.15v-0.602l2.255-3.124h0.511v3.194h0.722v0.532H251.167z M248.968,48.804h1.583
		v-2.234h-0.014L248.968,48.804z"/>
	<path d="M253.91,50.534h-0.637l-1.058-3.663h0.672l0.7,2.879h0.014l0.708-2.879h0.686l0.714,2.879h0.015l0.742-2.879h0.616
		l-1.064,3.663h-0.638l-0.742-2.836h-0.014L253.91,50.534z"/>
	<path d="M259.048,46.766c1.169,0,1.702,0.988,1.702,1.933s-0.533,1.933-1.702,1.933c-1.17,0-1.702-0.988-1.702-1.933
		S257.878,46.766,259.048,46.766z M259.048,50.1c0.882,0,1.064-0.911,1.064-1.401s-0.183-1.401-1.064-1.401
		c-0.883,0-1.064,0.911-1.064,1.401S258.165,50.1,259.048,50.1z"/>
	<path d="M262.149,50.534h-0.616v-3.663h0.581v0.609h0.015c0.245-0.427,0.567-0.714,1.029-0.714c0.077,0,0.112,0.007,0.161,0.021
		v0.637h-0.231c-0.574,0-0.938,0.448-0.938,0.981V50.534z"/>
	<path d="M266.679,50.534h-0.581v-0.504h-0.015c-0.266,0.498-0.687,0.609-1.043,0.609c-1.247,0-1.611-1.169-1.611-2.045
		c0-1.03,0.554-1.828,1.526-1.828c0.666,0,0.946,0.413,1.093,0.624l0.015-0.049v-1.835h0.616V50.534z M265.054,50.106
		c0.393,0,1.001-0.259,1.001-1.232c0-0.596-0.098-1.555-0.987-1.555c-0.952,0-1.001,0.904-1.001,1.373
		C264.067,49.497,264.381,50.106,265.054,50.106z"/>
	<path d="M269.612,47.914c-0.007-0.231-0.091-0.616-0.868-0.616c-0.189,0-0.729,0.063-0.729,0.519c0,0.301,0.189,0.371,0.665,0.49
		l0.616,0.154c0.764,0.189,1.03,0.469,1.03,0.967c0,0.756-0.624,1.211-1.45,1.211c-1.449,0-1.555-0.84-1.575-1.282h0.595
		c0.021,0.287,0.105,0.75,0.974,0.75c0.441,0,0.841-0.175,0.841-0.582c0-0.294-0.203-0.392-0.729-0.525l-0.715-0.175
		c-0.511-0.126-0.848-0.385-0.848-0.89c0-0.805,0.666-1.169,1.387-1.169c1.311,0,1.401,0.966,1.401,1.148H269.612z"/>
	<path d="M270.822,51.983c0.596-1.121,0.952-1.793,0.952-3.474c0-1.156-0.398-2.01-0.959-3.11h0.413
		c0.729,1.093,1.205,1.968,1.205,3.278c0,1.232-0.428,2.227-1.185,3.306H270.822z"/>
</g>
<g>
	<path d="M74.651,38.92c-0.077-0.435-0.315-0.756-0.847-0.756c-0.967,0-1.17,1.302-1.17,1.821l0.014,0.014
		c0.154-0.267,0.497-0.603,1.169-0.603c0.603,0,1.541,0.385,1.541,1.562c0,0.504-0.133,0.868-0.469,1.232
		c-0.259,0.287-0.553,0.477-1.247,0.477c-0.378,0-0.917-0.168-1.268-0.715c-0.294-0.462-0.378-1.064-0.378-1.708
		c0-1.079,0.35-2.634,1.821-2.634c0.567,0,1.373,0.308,1.436,1.31H74.651z M73.755,42.113c0.588,0,0.967-0.462,0.967-1.127
		c0-0.434-0.231-1.037-0.995-1.037c-0.679,0-1.009,0.49-1.009,1.072C72.718,41.546,73.034,42.113,73.755,42.113z"/>
	<path d="M78.564,41.336v1.198h-0.616v-1.198h-2.15v-0.602l2.255-3.124h0.511v3.194h0.722v0.532H78.564z M76.365,40.804h1.583
		v-2.234h-0.014L76.365,40.804z"/>
	<path d="M79.921,42.534v-5.029h0.616v1.828h0.014c0.266-0.385,0.63-0.561,1.058-0.567c0.974,0,1.527,0.798,1.527,1.828
		c0,0.875-0.364,2.045-1.611,2.045c-0.624,0-0.883-0.357-1.009-0.56h-0.014v0.455H79.921z M81.497,39.319
		c-0.889,0-0.987,0.959-0.987,1.555c0,0.973,0.609,1.232,1.001,1.232c0.672,0,0.987-0.609,0.987-1.415
		C82.498,40.223,82.45,39.319,81.497,39.319z"/>
	<path d="M83.876,38.206v-0.701h0.616v0.701H83.876z M84.492,42.534h-0.616v-3.663h0.616V42.534z"/>
	<path d="M86.172,39.382v2.381c0,0.287,0.245,0.287,0.372,0.287h0.217v0.483c-0.224,0.021-0.399,0.049-0.462,0.049
		c-0.609,0-0.743-0.343-0.743-0.784v-2.417h-0.497v-0.511h0.497v-1.022h0.616v1.022h0.588v0.511H86.172z"/>
	<path d="M67.899,45.4c-0.595,1.121-0.952,1.793-0.952,3.474c0,1.155,0.399,2.01,0.959,3.109h-0.413
		c-0.729-1.092-1.205-1.968-1.205-3.278c0-1.232,0.427-2.227,1.184-3.306H67.899z"/>
	<path d="M71.085,49.336v1.198h-0.616v-1.198h-2.15v-0.602l2.255-3.124h0.511v3.194h0.722v0.532H71.085z M68.886,48.804h1.583
		v-2.234h-0.014L68.886,48.804z"/>
	<path d="M73.828,50.534h-0.637l-1.058-3.663h0.672l0.7,2.879h0.014l0.708-2.879h0.686l0.714,2.879h0.014l0.742-2.879h0.617
		l-1.065,3.663h-0.637l-0.742-2.836h-0.014L73.828,50.534z"/>
	<path d="M78.967,46.766c1.169,0,1.702,0.988,1.702,1.933s-0.532,1.933-1.702,1.933c-1.17,0-1.702-0.988-1.702-1.933
		S77.797,46.766,78.967,46.766z M78.967,50.1c0.882,0,1.064-0.911,1.064-1.401s-0.182-1.401-1.064-1.401
		c-0.883,0-1.065,0.911-1.065,1.401S78.084,50.1,78.967,50.1z"/>
	<path d="M82.067,50.534h-0.617v-3.663h0.582v0.609h0.014c0.245-0.427,0.567-0.714,1.029-0.714c0.077,0,0.112,0.007,0.161,0.021
		v0.637h-0.231c-0.574,0-0.938,0.448-0.938,0.981V50.534z"/>
	<path d="M86.597,50.534h-0.582v-0.504h-0.014c-0.266,0.498-0.686,0.609-1.043,0.609c-1.247,0-1.611-1.169-1.611-2.045
		c0-1.03,0.553-1.828,1.527-1.828c0.666,0,0.945,0.413,1.093,0.624l0.014-0.049v-1.835h0.617V50.534z M84.972,50.106
		c0.392,0,1.001-0.259,1.001-1.232c0-0.596-0.098-1.555-0.988-1.555c-0.952,0-1.001,0.904-1.001,1.373
		C83.985,49.497,84.3,50.106,84.972,50.106z"/>
	<path d="M89.53,47.914c-0.007-0.231-0.091-0.616-0.868-0.616c-0.189,0-0.729,0.063-0.729,0.519c0,0.301,0.189,0.371,0.666,0.49
		l0.616,0.154c0.763,0.189,1.03,0.469,1.03,0.967c0,0.756-0.624,1.211-1.45,1.211c-1.45,0-1.555-0.84-1.576-1.282h0.595
		c0.021,0.287,0.105,0.75,0.974,0.75c0.441,0,0.84-0.175,0.84-0.582c0-0.294-0.203-0.392-0.728-0.525l-0.715-0.175
		c-0.511-0.126-0.847-0.385-0.847-0.89c0-0.805,0.666-1.169,1.387-1.169c1.31,0,1.401,0.966,1.401,1.148H89.53z"/>
	<path d="M90.74,51.983c0.595-1.121,0.953-1.793,0.953-3.474c0-1.156-0.399-2.01-0.959-3.11h0.413
		c0.729,1.093,1.205,1.968,1.205,3.278c0,1.232-0.427,2.227-1.184,3.306H90.74z"/>
</g>
<g>
	<g>
		<g>
			<path d="M134.839,2.579c-0.04-0.888-0.775-1.167-1.423-1.167c-0.488,0-1.311,0.136-1.311,1.007c0,0.488,0.344,0.647,0.68,0.728
				l1.639,0.376c0.744,0.176,1.304,0.624,1.304,1.535c0,1.359-1.264,1.735-2.247,1.735c-1.063,0-1.479-0.32-1.735-0.552
				c-0.488-0.439-0.584-0.919-0.584-1.455h0.728c0,1.04,0.847,1.343,1.583,1.343c0.56,0,1.503-0.144,1.503-0.967
				c0-0.6-0.28-0.792-1.223-1.016l-1.175-0.272c-0.376-0.088-1.224-0.352-1.224-1.351c0-0.896,0.584-1.775,1.975-1.775
				c2.007,0,2.207,1.199,2.239,1.831H134.839z"/>
			<path d="M137.425,6.64h-0.704V2.458h0.664v0.695h0.016c0.28-0.487,0.647-0.815,1.175-0.815c0.088,0,0.128,0.008,0.184,0.024V3.09
				h-0.264c-0.656,0-1.071,0.512-1.071,1.119V6.64z"/>
			<path d="M141.743,3.866c-0.088-0.56-0.4-0.896-0.991-0.896c-0.872,0-1.151,0.832-1.151,1.575c0,0.72,0.176,1.607,1.143,1.607
				c0.472,0,0.879-0.352,1-0.991h0.68c-0.072,0.664-0.48,1.599-1.703,1.599c-1.175,0-1.871-0.888-1.871-2.095
				c0-1.295,0.624-2.327,2.007-2.327c1.096,0,1.511,0.8,1.567,1.527H141.743z"/>
			<path d="M145.48,6.64h-0.752V2.65h-1.311v-0.56c0.912-0.064,1.287-0.152,1.511-1.072h0.552V6.64z"/>
		</g>
	</g>
	<g>
		<g>
			<path d="M52.315,2.579c-0.04-0.888-0.775-1.167-1.423-1.167c-0.488,0-1.311,0.136-1.311,1.007c0,0.488,0.344,0.647,0.68,0.728
				l1.639,0.376c0.744,0.176,1.304,0.624,1.304,1.535c0,1.359-1.264,1.735-2.247,1.735c-1.063,0-1.479-0.32-1.735-0.552
				c-0.488-0.439-0.584-0.919-0.584-1.455h0.728c0,1.04,0.847,1.343,1.583,1.343c0.56,0,1.503-0.144,1.503-0.967
				c0-0.6-0.28-0.792-1.223-1.016l-1.175-0.272c-0.376-0.088-1.224-0.352-1.224-1.351c0-0.896,0.584-1.775,1.975-1.775
				c2.007,0,2.207,1.199,2.239,1.831H52.315z"/>
			<path d="M54.9,6.64h-0.704V2.458h0.664v0.695h0.016c0.28-0.487,0.647-0.815,1.175-0.815c0.088,0,0.128,0.008,0.184,0.024V3.09
				h-0.264c-0.656,0-1.071,0.512-1.071,1.119V6.64z"/>
			<path d="M59.219,3.866c-0.088-0.56-0.4-0.896-0.991-0.896c-0.872,0-1.151,0.832-1.151,1.575c0,0.72,0.176,1.607,1.143,1.607
				c0.472,0,0.879-0.352,1-0.991h0.68c-0.072,0.664-0.48,1.599-1.703,1.599c-1.175,0-1.871-0.888-1.871-2.095
				c0-1.295,0.624-2.327,2.007-2.327c1.096,0,1.511,0.8,1.567,1.527H59.219z"/>
			<path d="M62.955,6.64h-0.752V2.65h-1.311v-0.56c0.912-0.064,1.287-0.152,1.511-1.072h0.552V6.64z"/>
		</g>
		<g>
			<path d="M69.156,2.603h0.583V4.33h1.727v0.583h-1.727V6.64h-0.583V4.913h-1.735V4.33h1.735V2.603z"/>
			<path d="M72.132,3.034c0-1.831,1.335-2.015,1.943-2.015c0.975,0,1.759,0.632,1.759,1.679c0,1.007-0.664,1.431-1.503,1.879
				l-0.584,0.32c-0.768,0.424-0.936,0.864-0.967,1.08h3.054V6.64h-3.846c0.04-1.167,0.567-1.791,1.319-2.231l0.743-0.432
				c0.6-0.344,1.032-0.576,1.032-1.311c0-0.448-0.288-1.016-1.111-1.016c-1.063,0-1.111,0.991-1.135,1.383H72.132z"/>
		</g>
	</g>
	<g>
		<g>
			<path d="M10.933,2.579c-0.04-0.888-0.775-1.167-1.423-1.167c-0.488,0-1.311,0.136-1.311,1.007c0,0.488,0.344,0.647,0.68,0.728
				l1.639,0.376c0.744,0.176,1.304,0.624,1.304,1.535c0,1.359-1.264,1.735-2.247,1.735c-1.063,0-1.479-0.32-1.735-0.552
				C7.351,5.801,7.255,5.321,7.255,4.785h0.728c0,1.04,0.847,1.343,1.583,1.343c0.56,0,1.503-0.144,1.503-0.967
				c0-0.6-0.28-0.792-1.223-1.016L8.67,3.874C8.294,3.786,7.447,3.522,7.447,2.522c0-0.896,0.584-1.775,1.975-1.775
				c2.007,0,2.207,1.199,2.239,1.831H10.933z"/>
			<path d="M13.518,6.64h-0.704V2.458h0.664v0.695h0.016c0.28-0.487,0.647-0.815,1.175-0.815c0.088,0,0.128,0.008,0.184,0.024V3.09
				H14.59c-0.656,0-1.071,0.512-1.071,1.119V6.64z"/>
			<path d="M17.837,3.866c-0.088-0.56-0.4-0.896-0.991-0.896c-0.872,0-1.151,0.832-1.151,1.575c0,0.72,0.176,1.607,1.143,1.607
				c0.472,0,0.879-0.352,1-0.991h0.68c-0.072,0.664-0.48,1.599-1.703,1.599c-1.175,0-1.871-0.888-1.871-2.095
				c0-1.295,0.624-2.327,2.007-2.327c1.096,0,1.511,0.8,1.567,1.527H17.837z"/>
			<path d="M21.574,6.64h-0.752V2.65h-1.311v-0.56c0.912-0.064,1.287-0.152,1.511-1.072h0.552V6.64z"/>
		</g>
		<g>
			<path d="M28.679,2.603h0.583V4.33h1.727v0.583h-1.727V6.64h-0.583V4.913h-1.735V4.33h1.735V2.603z"/>
			<path d="M33.095,3.442c0.12,0.008,0.248,0.016,0.368,0.016c0.544,0,1.072-0.216,1.072-0.919c0-0.336-0.2-0.888-1.04-0.888
				c-1,0-1.063,0.815-1.096,1.208h-0.688c0-0.824,0.336-1.839,1.815-1.839c1.087,0,1.735,0.624,1.735,1.479
				c0,0.72-0.416,1.063-0.72,1.159v0.016c0.543,0.176,0.936,0.56,0.936,1.311c0,0.92-0.592,1.807-2.023,1.807
				c-0.416,0-0.768-0.104-1.04-0.248c-0.624-0.328-0.792-0.976-0.839-1.624h0.728c0.024,0.528,0.152,1.24,1.199,1.24
				c0.72,0,1.223-0.44,1.223-1.088c0-0.943-0.831-1.031-1.311-1.031c-0.104,0-0.216,0.008-0.32,0.008V3.442z"/>
		</g>
	</g>
	<g>
		<g>
			<path d="M93.148,2.579c-0.04-0.888-0.776-1.167-1.423-1.167c-0.488,0-1.311,0.136-1.311,1.007c0,0.488,0.344,0.647,0.679,0.728
				l1.639,0.376c0.744,0.176,1.303,0.624,1.303,1.535c0,1.359-1.263,1.735-2.247,1.735c-1.063,0-1.479-0.32-1.735-0.552
				c-0.488-0.439-0.584-0.919-0.584-1.455h0.728c0,1.04,0.848,1.343,1.583,1.343c0.56,0,1.503-0.144,1.503-0.967
				c0-0.6-0.28-0.792-1.223-1.016l-1.175-0.272c-0.376-0.088-1.224-0.352-1.224-1.351c0-0.896,0.584-1.775,1.975-1.775
				c2.007,0,2.207,1.199,2.239,1.831H93.148z"/>
			<path d="M95.734,6.64H95.03V2.458h0.664v0.695h0.016c0.28-0.487,0.647-0.815,1.175-0.815c0.088,0,0.128,0.008,0.184,0.024V3.09
				h-0.264c-0.656,0-1.071,0.512-1.071,1.119V6.64z"/>
			<path d="M100.053,3.866c-0.088-0.56-0.4-0.896-0.992-0.896c-0.871,0-1.151,0.832-1.151,1.575c0,0.72,0.176,1.607,1.144,1.607
				c0.472,0,0.879-0.352,1-0.991h0.68c-0.072,0.664-0.48,1.599-1.703,1.599c-1.175,0-1.871-0.888-1.871-2.095
				c0-1.295,0.624-2.327,2.007-2.327c1.096,0,1.511,0.8,1.567,1.527H100.053z"/>
			<path d="M103.789,6.64h-0.752V2.65h-1.311v-0.56c0.912-0.064,1.287-0.152,1.511-1.072h0.552V6.64z"/>
		</g>
		<g>
			<path d="M111.053,2.603h0.583V4.33h1.727v0.583h-1.727V6.64h-0.583V4.913h-1.735V4.33h1.735V2.603z"/>
			<path d="M116.549,6.64h-0.752V2.65h-1.311v-0.56c0.912-0.064,1.287-0.152,1.511-1.072h0.552V6.64z"/>
		</g>
	</g>
	<g>
		<rect x="0.25" y="10.734" class="st1" width="157.663" height="22.146"/>
		<line class="st1" x1="79.08" y1="32.88" x2="79.08" y2="10.734"/>
		<line class="st0" x1="69.227" y1="32.88" x2="69.227" y2="10.734"/>
		<line class="st0" x1="59.375" y1="32.88" x2="59.375" y2="10.734"/>
		<line class="st0" x1="49.521" y1="32.88" x2="49.521" y2="10.734"/>
		<line class="st1" x1="39.663" y1="32.88" x2="39.663" y2="10.734"/>
		<line class="st0" x1="29.811" y1="32.88" x2="29.811" y2="10.734"/>
		<line class="st0" x1="19.958" y1="32.88" x2="19.958" y2="10.734"/>
		<line class="st0" x1="10.104" y1="32.88" x2="10.104" y2="10.734"/>
		<line class="st0" x1="88.934" y1="32.88" x2="88.934" y2="10.734"/>
		<line class="st0" x1="98.788" y1="32.88" x2="98.788" y2="10.734"/>
		<line class="st0" x1="108.641" y1="32.88" x2="108.641" y2="10.734"/>
		<line class="st1" x1="118.496" y1="32.88" x2="118.496" y2="10.734"/>
		<line class="st0" x1="128.351" y1="32.88" x2="128.351" y2="10.734"/>
		<line class="st0" x1="138.205" y1="32.88" x2="138.205" y2="10.734"/>
		<line class="st0" x1="148.057" y1="32.88" x2="148.057" y2="10.734"/>
		<rect x="6.474" y="15.531" class="st2" width="145.535" height="12.5"/>
		<g>
			<path d="M71.566,20.87v0.684h-6.068V20.87H71.566z"/>
			<path d="M75.182,24.759h-0.846v-4.492H72.86v-0.63c1.026-0.072,1.45-0.171,1.702-1.207h0.621V24.759z"/>
			<path d="M77.325,24.759h-0.937v-0.954h0.937V24.759z"/>
			<path d="M78.503,20.699c0-2.062,1.503-2.269,2.188-2.269c1.098,0,1.98,0.711,1.98,1.891c0,1.134-0.747,1.612-1.692,2.116
				l-0.657,0.36c-0.864,0.477-1.054,0.972-1.089,1.215h3.439v0.747h-4.331c0.045-1.314,0.639-2.017,1.486-2.512l0.837-0.486
				c0.675-0.387,1.162-0.648,1.162-1.476c0-0.504-0.324-1.144-1.251-1.144c-1.197,0-1.251,1.116-1.278,1.558H78.503z"/>
			<path d="M85.127,21.158c0.135,0.009,0.279,0.018,0.414,0.018c0.612,0,1.207-0.243,1.207-1.035c0-0.378-0.225-1-1.17-1
				c-1.125,0-1.197,0.918-1.233,1.359H83.57c0-0.927,0.378-2.071,2.044-2.071c1.224,0,1.954,0.703,1.954,1.666
				c0,0.811-0.468,1.198-0.811,1.306v0.018c0.612,0.198,1.053,0.63,1.053,1.476c0,1.036-0.666,2.035-2.277,2.035
				c-0.468,0-0.864-0.117-1.17-0.279c-0.702-0.369-0.891-1.099-0.945-1.828h0.819c0.027,0.594,0.171,1.396,1.35,1.396
				c0.811,0,1.377-0.495,1.377-1.225c0-1.062-0.936-1.161-1.476-1.161c-0.117,0-0.243,0.009-0.36,0.009V21.158z"/>
			<path d="M91.896,23.219v1.54h-0.792v-1.54H88.34v-0.774l2.899-4.016h0.657v4.105h0.927v0.684H91.896z M89.069,22.535h2.035
				v-2.872h-0.018L89.069,22.535z"/>
		</g>
	</g>
</g>
<g>
	<path d="M162.533,19.354l1.481-1.481l3.245,3.244l3.244-3.244l1.481,1.481l-3.244,3.244l3.263,3.245l-1.5,1.481l-3.244-3.245
		l-3.226,3.245l-1.5-1.481l3.245-3.245L162.533,19.354z"/>
</g>
<line class="st0" x1="0.25" y1="33.895" x2="0.25" y2="42.92"/>
<polygon points="6.454,38.156 0.183,39.513 6.454,40.862 6.454,40.134 32.272,40.134 32.272,38.886 6.454,38.886 "/>
<g>
	<line class="st0" x1="157.913" y1="33.895" x2="157.913" y2="42.92"/>
	<polygon points="151.401,40.863 157.673,39.506 151.401,38.157 151.401,38.885 125.583,38.885 125.583,40.133 151.401,40.133 	"/>
</g>
<g>
	<g>
		<g>
			<path d="M315.754,2.579c-0.039-0.888-0.775-1.167-1.423-1.167c-0.487,0-1.312,0.136-1.312,1.007c0,0.488,0.344,0.647,0.68,0.728
				l1.64,0.376c0.743,0.176,1.303,0.624,1.303,1.535c0,1.359-1.263,1.735-2.246,1.735c-1.063,0-1.479-0.32-1.735-0.552
				c-0.488-0.439-0.584-0.919-0.584-1.455h0.728c0,1.04,0.848,1.343,1.583,1.343c0.561,0,1.504-0.144,1.504-0.967
				c0-0.6-0.28-0.792-1.224-1.016l-1.176-0.272c-0.375-0.088-1.223-0.352-1.223-1.351c0-0.896,0.583-1.775,1.975-1.775
				c2.007,0,2.207,1.199,2.239,1.831H315.754z"/>
			<path d="M317.372,3.034c0-1.831,1.336-2.015,1.943-2.015c0.976,0,1.759,0.632,1.759,1.679c0,1.007-0.664,1.431-1.503,1.879
				l-0.584,0.32c-0.768,0.424-0.936,0.864-0.968,1.08h3.055V6.64h-3.846c0.04-1.167,0.567-1.791,1.319-2.231l0.743-0.432
				c0.6-0.344,1.031-0.576,1.031-1.311c0-0.448-0.287-1.016-1.111-1.016c-1.063,0-1.111,0.991-1.135,1.383H317.372z"/>
		</g>
	</g>
	<g>
		<g>
			<path d="M230.332,2.579c-0.04-0.888-0.775-1.167-1.423-1.167c-0.488,0-1.311,0.136-1.311,1.007c0,0.488,0.344,0.647,0.68,0.728
				l1.639,0.376c0.744,0.176,1.304,0.624,1.304,1.535c0,1.359-1.264,1.735-2.247,1.735c-1.063,0-1.479-0.32-1.735-0.552
				c-0.488-0.439-0.584-0.919-0.584-1.455h0.728c0,1.04,0.847,1.343,1.583,1.343c0.56,0,1.503-0.144,1.503-0.967
				c0-0.6-0.28-0.792-1.223-1.016l-1.175-0.272c-0.376-0.088-1.224-0.352-1.224-1.351c0-0.896,0.584-1.775,1.975-1.775
				c2.007,0,2.207,1.199,2.239,1.831H230.332z"/>
			<path d="M232.918,6.64h-0.704V2.458h0.664v0.695h0.016c0.28-0.487,0.647-0.815,1.175-0.815c0.088,0,0.128,0.008,0.184,0.024V3.09
				h-0.264c-0.656,0-1.071,0.512-1.071,1.119V6.64z"/>
			<path d="M237.237,3.866c-0.088-0.56-0.4-0.896-0.991-0.896c-0.872,0-1.151,0.832-1.151,1.575c0,0.72,0.176,1.607,1.143,1.607
				c0.472,0,0.879-0.352,1-0.991h0.68c-0.072,0.664-0.48,1.599-1.703,1.599c-1.175,0-1.871-0.888-1.871-2.095
				c0-1.295,0.624-2.327,2.007-2.327c1.096,0,1.511,0.8,1.567,1.527H237.237z"/>
			<path d="M238.454,3.034c0-1.831,1.335-2.015,1.943-2.015c0.975,0,1.759,0.632,1.759,1.679c0,1.007-0.664,1.431-1.503,1.879
				l-0.584,0.32c-0.768,0.424-0.936,0.864-0.967,1.08h3.054V6.64h-3.846c0.04-1.167,0.567-1.791,1.319-2.231l0.744-0.432
				c0.6-0.344,1.031-0.576,1.031-1.311c0-0.448-0.288-1.016-1.111-1.016c-1.063,0-1.111,0.991-1.136,1.383H238.454z"/>
		</g>
		<g>
			<path d="M248.309,2.603h0.583V4.33h1.727v0.583h-1.727V6.64h-0.583V4.913h-1.735V4.33h1.735V2.603z"/>
			<path d="M251.285,3.034c0-1.831,1.335-2.015,1.943-2.015c0.975,0,1.759,0.632,1.759,1.679c0,1.007-0.664,1.431-1.503,1.879
				l-0.584,0.32c-0.768,0.424-0.936,0.864-0.967,1.08h3.054V6.64h-3.846c0.04-1.167,0.567-1.791,1.319-2.231l0.743-0.432
				c0.6-0.344,1.032-0.576,1.032-1.311c0-0.448-0.288-1.016-1.111-1.016c-1.063,0-1.111,0.991-1.135,1.383H251.285z"/>
		</g>
	</g>
	<g>
		<g>
			<path d="M188.596,2.579c-0.04-0.888-0.775-1.167-1.423-1.167c-0.488,0-1.311,0.136-1.311,1.007c0,0.488,0.344,0.647,0.68,0.728
				l1.639,0.376c0.744,0.176,1.304,0.624,1.304,1.535c0,1.359-1.264,1.735-2.247,1.735c-1.063,0-1.479-0.32-1.735-0.552
				c-0.488-0.439-0.584-0.919-0.584-1.455h0.728c0,1.04,0.847,1.343,1.583,1.343c0.56,0,1.503-0.144,1.503-0.967
				c0-0.6-0.28-0.792-1.223-1.016l-1.175-0.272c-0.376-0.088-1.224-0.352-1.224-1.351c0-0.896,0.584-1.775,1.975-1.775
				c2.007,0,2.207,1.199,2.239,1.831H188.596z"/>
			<path d="M191.181,6.64h-0.704V2.458h0.664v0.695h0.016c0.28-0.487,0.647-0.815,1.175-0.815c0.088,0,0.128,0.008,0.184,0.024V3.09
				h-0.264c-0.656,0-1.071,0.512-1.071,1.119V6.64z"/>
			<path d="M195.5,3.866c-0.088-0.56-0.4-0.896-0.991-0.896c-0.872,0-1.151,0.832-1.151,1.575c0,0.72,0.176,1.607,1.143,1.607
				c0.472,0,0.879-0.352,1-0.991h0.68c-0.072,0.664-0.48,1.599-1.703,1.599c-1.175,0-1.871-0.888-1.871-2.095
				c0-1.295,0.624-2.327,2.007-2.327c1.096,0,1.511,0.8,1.567,1.527H195.5z"/>
			<path d="M196.718,3.034c0-1.831,1.335-2.015,1.943-2.015c0.975,0,1.759,0.632,1.759,1.679c0,1.007-0.664,1.431-1.503,1.879
				l-0.584,0.32c-0.768,0.424-0.936,0.864-0.967,1.08h3.054V6.64h-3.846c0.04-1.167,0.567-1.791,1.319-2.231l0.744-0.432
				c0.6-0.344,1.031-0.576,1.031-1.311c0-0.448-0.288-1.016-1.111-1.016c-1.063,0-1.111,0.991-1.136,1.383H196.718z"/>
		</g>
		<g>
			<path d="M207.123,2.603h0.583V4.33h1.727v0.583h-1.727V6.64h-0.583V4.913h-1.735V4.33h1.735V2.603z"/>
			<path d="M211.539,3.442c0.12,0.008,0.248,0.016,0.368,0.016c0.544,0,1.072-0.216,1.072-0.919c0-0.336-0.2-0.888-1.04-0.888
				c-1,0-1.063,0.815-1.096,1.208h-0.688c0-0.824,0.336-1.839,1.815-1.839c1.087,0,1.735,0.624,1.735,1.479
				c0,0.72-0.416,1.063-0.72,1.159v0.016c0.543,0.176,0.936,0.56,0.936,1.311c0,0.92-0.592,1.807-2.023,1.807
				c-0.416,0-0.768-0.104-1.04-0.248c-0.624-0.328-0.792-0.976-0.839-1.624h0.728c0.024,0.528,0.152,1.24,1.199,1.24
				c0.72,0,1.223-0.44,1.223-1.088c0-0.943-0.831-1.031-1.311-1.031c-0.104,0-0.216,0.008-0.32,0.008V3.442z"/>
		</g>
	</g>
	<g>
		<g>
			<path d="M271.165,2.579c-0.04-0.888-0.775-1.167-1.423-1.167c-0.487,0-1.312,0.136-1.312,1.007c0,0.488,0.344,0.647,0.68,0.728
				l1.64,0.376c0.743,0.176,1.303,0.624,1.303,1.535c0,1.359-1.263,1.735-2.246,1.735c-1.063,0-1.479-0.32-1.735-0.552
				c-0.488-0.439-0.584-0.919-0.584-1.455h0.728c0,1.04,0.848,1.343,1.583,1.343c0.56,0,1.504-0.144,1.504-0.967
				c0-0.6-0.28-0.792-1.224-1.016l-1.176-0.272c-0.375-0.088-1.223-0.352-1.223-1.351c0-0.896,0.583-1.775,1.975-1.775
				c2.007,0,2.207,1.199,2.238,1.831H271.165z"/>
			<path d="M273.751,6.64h-0.704V2.458h0.664v0.695h0.016c0.28-0.487,0.648-0.815,1.176-0.815c0.088,0,0.128,0.008,0.184,0.024V3.09
				h-0.264c-0.655,0-1.071,0.512-1.071,1.119V6.64z"/>
			<path d="M278.071,3.866c-0.089-0.56-0.4-0.896-0.992-0.896c-0.871,0-1.151,0.832-1.151,1.575c0,0.72,0.176,1.607,1.144,1.607
				c0.472,0,0.88-0.352,1-0.991h0.679c-0.071,0.664-0.479,1.599-1.702,1.599c-1.176,0-1.871-0.888-1.871-2.095
				c0-1.295,0.623-2.327,2.007-2.327c1.095,0,1.511,0.8,1.566,1.527H278.071z"/>
			<path d="M279.287,3.034c0-1.831,1.336-2.015,1.943-2.015c0.976,0,1.759,0.632,1.759,1.679c0,1.007-0.663,1.431-1.503,1.879
				l-0.584,0.32c-0.768,0.424-0.936,0.864-0.968,1.08h3.055V6.64h-3.846c0.04-1.167,0.567-1.791,1.319-2.231l0.743-0.432
				c0.6-0.344,1.031-0.576,1.031-1.311c0-0.448-0.287-1.016-1.111-1.016c-1.063,0-1.111,0.991-1.135,1.383H279.287z"/>
		</g>
		<g>
			<path d="M289.852,2.603h0.584V4.33h1.727v0.583h-1.727V6.64h-0.584V4.913h-1.735V4.33h1.735V2.603z"/>
			<path d="M295.347,6.64h-0.751V2.65h-1.312v-0.56c0.911-0.064,1.287-0.152,1.511-1.072h0.552V6.64z"/>
		</g>
	</g>
	<g>
		<rect x="178.698" y="10.734" class="st1" width="157.663" height="22.146"/>
		<line class="st1" x1="257.528" y1="32.88" x2="257.528" y2="10.734"/>
		<line class="st0" x1="247.676" y1="32.88" x2="247.676" y2="10.734"/>
		<line class="st0" x1="237.823" y1="32.88" x2="237.823" y2="10.734"/>
		<line class="st0" x1="227.969" y1="32.88" x2="227.969" y2="10.734"/>
		<line class="st1" x1="218.112" y1="32.88" x2="218.112" y2="10.734"/>
		<line class="st0" x1="208.259" y1="32.88" x2="208.259" y2="10.734"/>
		<line class="st0" x1="198.407" y1="32.88" x2="198.407" y2="10.734"/>
		<line class="st0" x1="188.553" y1="32.88" x2="188.553" y2="10.734"/>
		<line class="st0" x1="267.383" y1="32.88" x2="267.383" y2="10.734"/>
		<line class="st0" x1="277.237" y1="32.88" x2="277.237" y2="10.734"/>
		<line class="st0" x1="287.089" y1="32.88" x2="287.089" y2="10.734"/>
		<line class="st1" x1="296.945" y1="32.88" x2="296.945" y2="10.734"/>
		<line class="st0" x1="306.799" y1="32.88" x2="306.799" y2="10.734"/>
		<line class="st0" x1="316.653" y1="32.88" x2="316.653" y2="10.734"/>
		<line class="st0" x1="326.506" y1="32.88" x2="326.506" y2="10.734"/>
		<rect x="184.923" y="15.531" class="st2" width="145.535" height="12.5"/>
		<g>
			<path d="M247.623,21.077c0.27-0.207,0.657-0.396,1.225-0.396c1.026,0,2.08,0.72,2.08,2.025c0,0.702-0.315,2.224-2.296,2.224
				c-0.828,0-1.891-0.333-2.043-1.747h0.819c0.081,0.738,0.63,1.062,1.341,1.062c0.819,0,1.333-0.657,1.333-1.449
				c0-0.91-0.621-1.405-1.404-1.405c-0.459,0-0.874,0.216-1.17,0.604l-0.685-0.036l0.478-3.394h3.277v0.774h-2.683L247.623,21.077z"
				/>
			<path d="M253.024,24.759h-0.937v-0.954h0.937V24.759z"/>
			<path d="M257.56,20.113c-0.099-0.558-0.405-0.972-1.089-0.972c-1.243,0-1.504,1.674-1.504,2.341l0.018,0.018
				c0.198-0.342,0.639-0.774,1.503-0.774c0.774,0,1.98,0.495,1.98,2.008c0,0.648-0.171,1.116-0.603,1.584
				c-0.333,0.369-0.712,0.612-1.603,0.612c-0.486,0-1.18-0.216-1.63-0.918c-0.378-0.594-0.486-1.369-0.486-2.197
				c0-1.386,0.45-3.385,2.34-3.385c0.729,0,1.765,0.396,1.846,1.684H257.56z M256.408,24.219c0.757,0,1.242-0.594,1.242-1.45
				c0-0.558-0.297-1.332-1.278-1.332c-0.873,0-1.296,0.63-1.296,1.377C255.076,23.489,255.481,24.219,256.408,24.219z"/>
			<path d="M259.143,18.565h4.375v0.693c-0.63,0.657-2.143,2.674-2.602,5.5h-0.873c0.216-1.737,1.368-4.006,2.584-5.419h-3.484
				V18.565z"/>
			<path d="M267.433,21.392c0.855,0.36,1.035,1.062,1.035,1.54c0,1.018-0.648,1.999-2.143,1.999c-0.351,0-1.018-0.09-1.521-0.486
				c-0.648-0.513-0.648-1.198-0.648-1.503c0-0.774,0.405-1.27,1.071-1.54c-0.54-0.207-0.854-0.639-0.854-1.233
				c0-0.657,0.404-1.738,1.917-1.738c1.404,0,1.954,0.892,1.954,1.63C268.243,20.969,267.712,21.248,267.433,21.392z
				 M265.002,22.958c0,0.504,0.252,1.261,1.351,1.261c0.576,0,1.27-0.207,1.27-1.197c0-0.855-0.595-1.233-1.314-1.233
				C265.416,21.788,265.002,22.373,265.002,22.958z M267.424,20.086c0-0.387-0.252-0.945-1.18-0.945
				c-0.846,0-1.054,0.585-1.054,0.99c0,0.603,0.531,0.972,1.107,0.972C266.983,21.104,267.424,20.663,267.424,20.086z"/>
		</g>
	</g>
</g>
<g>
	<g>
		<g>
			<path d="M493.643,0.899h2.327c1.495,0,2.414,1.135,2.414,2.791c0,1.287-0.56,2.95-2.446,2.95h-2.295V0.899z M494.418,5.977h1.504
				c1.007,0,1.663-0.792,1.663-2.239s-0.664-2.175-1.72-2.175h-1.447V5.977z"/>
			<path d="M501.666,3.65c-0.008-0.264-0.104-0.704-0.991-0.704c-0.216,0-0.832,0.072-0.832,0.591c0,0.344,0.216,0.424,0.76,0.56
				l0.703,0.176c0.872,0.216,1.176,0.536,1.176,1.104c0,0.863-0.712,1.383-1.655,1.383c-1.655,0-1.774-0.959-1.799-1.463h0.68
				c0.023,0.328,0.12,0.855,1.111,0.855c0.504,0,0.959-0.2,0.959-0.664c0-0.336-0.231-0.448-0.831-0.6l-0.815-0.2
				c-0.584-0.144-0.968-0.439-0.968-1.015c0-0.919,0.76-1.335,1.583-1.335c1.495,0,1.6,1.104,1.6,1.312H501.666z"/>
			<path d="M504.155,3.042v2.719c0,0.328,0.28,0.328,0.424,0.328h0.248V6.64c-0.256,0.024-0.455,0.056-0.527,0.056
				c-0.695,0-0.848-0.392-0.848-0.896V3.042h-0.567V2.458h0.567V1.291h0.703v1.167h0.672v0.583H504.155z"/>
		</g>
	</g>
	<g>
		<g>
			<path d="M411.12,0.899h2.327c1.495,0,2.414,1.135,2.414,2.791c0,1.287-0.56,2.95-2.446,2.95h-2.295V0.899z M411.896,5.977h1.504
				c1.007,0,1.663-0.792,1.663-2.239s-0.664-2.175-1.72-2.175h-1.447V5.977z"/>
			<path d="M419.143,3.65c-0.008-0.264-0.104-0.704-0.991-0.704c-0.216,0-0.832,0.072-0.832,0.591c0,0.344,0.216,0.424,0.76,0.56
				l0.703,0.176c0.872,0.216,1.176,0.536,1.176,1.104c0,0.863-0.712,1.383-1.655,1.383c-1.655,0-1.774-0.959-1.799-1.463h0.68
				c0.023,0.328,0.12,0.855,1.111,0.855c0.504,0,0.959-0.2,0.959-0.664c0-0.336-0.231-0.448-0.831-0.6l-0.815-0.2
				c-0.584-0.144-0.968-0.439-0.968-1.015c0-0.919,0.76-1.335,1.583-1.335c1.495,0,1.6,1.104,1.6,1.312H419.143z"/>
			<path d="M421.631,3.042v2.719c0,0.328,0.28,0.328,0.424,0.328h0.248V6.64c-0.256,0.024-0.455,0.056-0.527,0.056
				c-0.695,0-0.848-0.392-0.848-0.896V3.042h-0.567V2.458h0.567V1.291h0.703v1.167h0.672v0.583H421.631z"/>
		</g>
		<g>
			<path d="M429.051,2.603h0.584V4.33h1.727v0.583h-1.727V6.64h-0.584V4.913h-1.735V4.33h1.735V2.603z"/>
			<path d="M432.028,3.034c0-1.831,1.336-2.015,1.943-2.015c0.976,0,1.759,0.632,1.759,1.679c0,1.007-0.663,1.431-1.503,1.879
				l-0.584,0.32c-0.768,0.424-0.936,0.864-0.968,1.08h3.055V6.64h-3.846c0.04-1.167,0.567-1.791,1.319-2.231l0.743-0.432
				c0.6-0.344,1.031-0.576,1.031-1.311c0-0.448-0.287-1.016-1.111-1.016c-1.063,0-1.111,0.991-1.135,1.383H432.028z"/>
		</g>
	</g>
	<g>
		<g>
			<path d="M369.737,0.899h2.327c1.495,0,2.414,1.135,2.414,2.791c0,1.287-0.56,2.95-2.446,2.95h-2.295V0.899z M370.512,5.977h1.504
				c1.007,0,1.663-0.792,1.663-2.239s-0.664-2.175-1.72-2.175h-1.447V5.977z"/>
			<path d="M377.76,3.65c-0.008-0.264-0.104-0.704-0.991-0.704c-0.216,0-0.832,0.072-0.832,0.591c0,0.344,0.216,0.424,0.76,0.56
				l0.703,0.176c0.872,0.216,1.176,0.536,1.176,1.104c0,0.863-0.712,1.383-1.655,1.383c-1.655,0-1.774-0.959-1.799-1.463h0.68
				c0.023,0.328,0.12,0.855,1.111,0.855c0.504,0,0.959-0.2,0.959-0.664c0-0.336-0.231-0.448-0.831-0.6l-0.815-0.2
				c-0.584-0.144-0.968-0.439-0.968-1.015c0-0.919,0.76-1.335,1.583-1.335c1.495,0,1.6,1.104,1.6,1.312H377.76z"/>
			<path d="M380.248,3.042v2.719c0,0.328,0.28,0.328,0.424,0.328h0.248V6.64c-0.256,0.024-0.455,0.056-0.527,0.056
				c-0.695,0-0.848-0.392-0.848-0.896V3.042h-0.567V2.458h0.567V1.291h0.703v1.167h0.672v0.583H380.248z"/>
		</g>
		<g>
			<path d="M387.512,2.603h0.584V4.33h1.727v0.583h-1.727V6.64h-0.584V4.913h-1.735V4.33h1.735V2.603z"/>
			<path d="M391.928,3.442c0.12,0.008,0.248,0.016,0.368,0.016c0.543,0,1.071-0.216,1.071-0.919c0-0.336-0.2-0.888-1.04-0.888
				c-0.999,0-1.063,0.815-1.095,1.208h-0.688c0-0.824,0.335-1.839,1.814-1.839c1.088,0,1.735,0.624,1.735,1.479
				c0,0.72-0.416,1.063-0.72,1.159v0.016c0.544,0.176,0.936,0.56,0.936,1.311c0,0.92-0.592,1.807-2.023,1.807
				c-0.415,0-0.768-0.104-1.039-0.248c-0.624-0.328-0.791-0.976-0.84-1.624h0.728c0.024,0.528,0.152,1.24,1.2,1.24
				c0.719,0,1.223-0.44,1.223-1.088c0-0.943-0.831-1.031-1.311-1.031c-0.104,0-0.217,0.008-0.32,0.008V3.442z"/>
		</g>
	</g>
	<g>
		<g>
			<path d="M452.662,0.899h2.327c1.495,0,2.414,1.135,2.414,2.791c0,1.287-0.56,2.95-2.446,2.95h-2.295V0.899z M453.438,5.977h1.504
				c1.007,0,1.663-0.792,1.663-2.239s-0.664-2.175-1.72-2.175h-1.447V5.977z"/>
			<path d="M460.686,3.65c-0.008-0.264-0.104-0.704-0.991-0.704c-0.216,0-0.832,0.072-0.832,0.591c0,0.344,0.216,0.424,0.76,0.56
				l0.703,0.176c0.872,0.216,1.176,0.536,1.176,1.104c0,0.863-0.712,1.383-1.655,1.383c-1.655,0-1.774-0.959-1.799-1.463h0.68
				c0.023,0.328,0.12,0.855,1.111,0.855c0.504,0,0.959-0.2,0.959-0.664c0-0.336-0.231-0.448-0.831-0.6l-0.815-0.2
				c-0.584-0.144-0.968-0.439-0.968-1.015c0-0.919,0.76-1.335,1.583-1.335c1.495,0,1.6,1.104,1.6,1.312H460.686z"/>
			<path d="M463.174,3.042v2.719c0,0.328,0.28,0.328,0.424,0.328h0.248V6.64c-0.256,0.024-0.455,0.056-0.527,0.056
				c-0.695,0-0.848-0.392-0.848-0.896V3.042h-0.567V2.458h0.567V1.291h0.703v1.167h0.672v0.583H463.174z"/>
		</g>
		<g>
			<path d="M470.594,2.603h0.584V4.33h1.727v0.583h-1.727V6.64h-0.584V4.913h-1.735V4.33h1.735V2.603z"/>
			<path d="M476.089,6.64h-0.751V2.65h-1.312v-0.56c0.911-0.064,1.287-0.152,1.511-1.072h0.552V6.64z"/>
		</g>
	</g>
	<g>
		<rect x="360.858" y="10.734" class="st1" width="157.663" height="22.146"/>
		<line class="st1" x1="439.688" y1="32.88" x2="439.688" y2="10.734"/>
		<line class="st0" x1="429.835" y1="32.88" x2="429.835" y2="10.734"/>
		<line class="st0" x1="419.983" y1="32.88" x2="419.983" y2="10.734"/>
		<line class="st0" x1="410.129" y1="32.88" x2="410.129" y2="10.734"/>
		<line class="st1" x1="400.271" y1="32.88" x2="400.271" y2="10.734"/>
		<line class="st0" x1="390.419" y1="32.88" x2="390.419" y2="10.734"/>
		<line class="st0" x1="380.566" y1="32.88" x2="380.566" y2="10.734"/>
		<line class="st0" x1="370.712" y1="32.88" x2="370.712" y2="10.734"/>
		<line class="st0" x1="449.542" y1="32.88" x2="449.542" y2="10.734"/>
		<line class="st0" x1="459.396" y1="32.88" x2="459.396" y2="10.734"/>
		<line class="st0" x1="469.249" y1="32.88" x2="469.249" y2="10.734"/>
		<line class="st1" x1="479.104" y1="32.88" x2="479.104" y2="10.734"/>
		<line class="st0" x1="488.958" y1="32.88" x2="488.958" y2="10.734"/>
		<line class="st0" x1="498.813" y1="32.88" x2="498.813" y2="10.734"/>
		<line class="st0" x1="508.665" y1="32.88" x2="508.665" y2="10.734"/>
		<rect x="367.082" y="15.531" class="st2" width="145.535" height="12.5"/>
		<g>
			<path d="M424.843,20.87v0.684h-6.067V20.87H424.843z"/>
			<path d="M425.561,18.565h4.375v0.693c-0.63,0.657-2.143,2.674-2.602,5.5h-0.873c0.216-1.737,1.368-4.006,2.584-5.419h-3.484
				V18.565z"/>
			<path d="M430.242,24.759h-0.937v-0.954h0.937V24.759z"/>
			<path d="M433.527,24.93c-1.818,0-2.17-1.936-2.17-3.25s0.352-3.25,2.17-3.25s2.17,1.936,2.17,3.25S435.345,24.93,433.527,24.93z
				 M433.527,19.141c-0.909,0-1.323,0.954-1.323,2.539s0.414,2.539,1.323,2.539s1.323-0.955,1.323-2.539
				S434.436,19.141,433.527,19.141z"/>
			<path d="M438.532,24.93c-1.818,0-2.17-1.936-2.17-3.25s0.352-3.25,2.17-3.25s2.17,1.936,2.17,3.25S440.35,24.93,438.532,24.93z
				 M438.532,19.141c-0.909,0-1.323,0.954-1.323,2.539s0.414,2.539,1.323,2.539s1.323-0.955,1.323-2.539
				S439.441,19.141,438.532,19.141z"/>
			<path d="M444.786,20.113c-0.099-0.558-0.405-0.972-1.089-0.972c-1.242,0-1.504,1.674-1.504,2.341l0.019,0.018
				c0.197-0.342,0.639-0.774,1.503-0.774c0.774,0,1.98,0.495,1.98,2.008c0,0.648-0.171,1.116-0.603,1.584
				c-0.333,0.369-0.712,0.612-1.603,0.612c-0.486,0-1.18-0.216-1.63-0.918c-0.378-0.594-0.486-1.369-0.486-2.197
				c0-1.386,0.45-3.385,2.341-3.385c0.729,0,1.765,0.396,1.846,1.684H444.786z M443.634,24.219c0.757,0,1.242-0.594,1.242-1.45
				c0-0.558-0.297-1.332-1.278-1.332c-0.873,0-1.296,0.63-1.296,1.377C442.302,23.489,442.707,24.219,443.634,24.219z"/>
			<path d="M449.79,20.113c-0.099-0.558-0.405-0.972-1.089-0.972c-1.242,0-1.504,1.674-1.504,2.341l0.019,0.018
				c0.197-0.342,0.639-0.774,1.503-0.774c0.774,0,1.98,0.495,1.98,2.008c0,0.648-0.171,1.116-0.603,1.584
				c-0.333,0.369-0.712,0.612-1.603,0.612c-0.486,0-1.18-0.216-1.63-0.918c-0.378-0.594-0.486-1.369-0.486-2.197
				c0-1.386,0.45-3.385,2.341-3.385c0.729,0,1.765,0.396,1.846,1.684H449.79z M448.638,24.219c0.757,0,1.242-0.594,1.242-1.45
				c0-0.558-0.297-1.332-1.278-1.332c-0.873,0-1.296,0.63-1.296,1.377C447.306,23.489,447.711,24.219,448.638,24.219z"/>
			<path d="M452.364,21.077c0.271-0.207,0.657-0.396,1.225-0.396c1.026,0,2.079,0.72,2.079,2.025c0,0.702-0.314,2.224-2.295,2.224
				c-0.828,0-1.891-0.333-2.044-1.747h0.819c0.081,0.738,0.63,1.062,1.341,1.062c0.819,0,1.333-0.657,1.333-1.449
				c0-0.91-0.621-1.405-1.404-1.405c-0.459,0-0.873,0.216-1.171,0.604l-0.684-0.036l0.477-3.394h3.277v0.774h-2.683L452.364,21.077z
				"/>
			<path d="M456.441,20.699c0-2.062,1.503-2.269,2.188-2.269c1.098,0,1.98,0.711,1.98,1.891c0,1.134-0.747,1.612-1.692,2.116
				l-0.657,0.36c-0.864,0.477-1.054,0.972-1.09,1.215h3.439v0.747h-4.33c0.045-1.314,0.639-2.017,1.485-2.512l0.837-0.486
				c0.676-0.387,1.161-0.648,1.161-1.476c0-0.504-0.324-1.144-1.251-1.144c-1.197,0-1.251,1.116-1.278,1.558H456.441z"/>
		</g>
	</g>
</g>
<g>
	<line class="st0" x1="518.521" y1="33.895" x2="518.521" y2="42.92"/>
	<polygon points="512.008,40.863 518.28,39.506 512.008,38.157 512.008,38.885 486.191,38.885 486.191,40.133 512.008,40.133 	"/>
</g>
<g>
	<line class="st0" x1="360.992" y1="33.895" x2="360.992" y2="42.92"/>
	<polygon points="367.196,38.156 360.925,39.513 367.196,40.862 367.196,40.134 393.014,40.134 393.014,38.886 367.196,38.886 	"/>
</g>
<g>
	<path d="M435.202,38.92c-0.077-0.435-0.315-0.756-0.848-0.756c-0.967,0-1.17,1.302-1.17,1.821l0.015,0.014
		c0.153-0.267,0.497-0.603,1.169-0.603c0.603,0,1.541,0.385,1.541,1.562c0,0.504-0.133,0.868-0.469,1.232
		c-0.26,0.287-0.554,0.477-1.247,0.477c-0.378,0-0.918-0.168-1.268-0.715c-0.294-0.462-0.378-1.064-0.378-1.708
		c0-1.079,0.35-2.634,1.82-2.634c0.567,0,1.373,0.308,1.436,1.31H435.202z M434.306,42.113c0.588,0,0.966-0.462,0.966-1.127
		c0-0.434-0.23-1.037-0.994-1.037c-0.68,0-1.009,0.49-1.009,1.072C433.269,41.546,433.584,42.113,434.306,42.113z"/>
	<path d="M439.115,41.336v1.198h-0.616v-1.198h-2.15v-0.602l2.256-3.124h0.511v3.194h0.722v0.532H439.115z M436.915,40.804h1.583
		v-2.234h-0.014L436.915,40.804z"/>
	<path d="M440.472,42.534v-5.029h0.616v1.828h0.014c0.267-0.385,0.631-0.561,1.058-0.567c0.974,0,1.527,0.798,1.527,1.828
		c0,0.875-0.364,2.045-1.611,2.045c-0.623,0-0.882-0.357-1.008-0.56h-0.015v0.455H440.472z M442.048,39.319
		c-0.89,0-0.988,0.959-0.988,1.555c0,0.973,0.609,1.232,1.002,1.232c0.672,0,0.987-0.609,0.987-1.415
		C443.049,40.223,443,39.319,442.048,39.319z"/>
	<path d="M444.427,38.206v-0.701h0.616v0.701H444.427z M445.043,42.534h-0.616v-3.663h0.616V42.534z"/>
	<path d="M446.723,39.382v2.381c0,0.287,0.245,0.287,0.371,0.287h0.217v0.483c-0.224,0.021-0.399,0.049-0.462,0.049
		c-0.609,0-0.742-0.343-0.742-0.784v-2.417h-0.498v-0.511h0.498v-1.022h0.616v1.022h0.588v0.511H446.723z"/>
	<path d="M428.45,45.4c-0.595,1.121-0.952,1.793-0.952,3.474c0,1.155,0.399,2.01,0.959,3.109h-0.413
		c-0.729-1.092-1.204-1.968-1.204-3.278c0-1.232,0.427-2.227,1.184-3.306H428.45z"/>
	<path d="M431.635,49.336v1.198h-0.616v-1.198h-2.15v-0.602l2.256-3.124h0.511v3.194h0.722v0.532H431.635z M429.436,48.804h1.583
		v-2.234h-0.014L429.436,48.804z"/>
	<path d="M434.378,50.534h-0.638l-1.058-3.663h0.673l0.7,2.879h0.014l0.708-2.879h0.687l0.714,2.879h0.015l0.742-2.879h0.616
		l-1.064,3.663h-0.638l-0.742-2.836h-0.014L434.378,50.534z"/>
	<path d="M439.517,46.766c1.169,0,1.702,0.988,1.702,1.933s-0.533,1.933-1.702,1.933c-1.17,0-1.702-0.988-1.702-1.933
		S438.347,46.766,439.517,46.766z M439.517,50.1c0.882,0,1.064-0.911,1.064-1.401s-0.183-1.401-1.064-1.401
		c-0.883,0-1.064,0.911-1.064,1.401S438.634,50.1,439.517,50.1z"/>
	<path d="M442.617,50.534H442v-3.663h0.582v0.609h0.014c0.245-0.427,0.567-0.714,1.029-0.714c0.077,0,0.112,0.007,0.161,0.021v0.637
		h-0.231c-0.574,0-0.938,0.448-0.938,0.981V50.534z"/>
	<path d="M447.148,50.534h-0.581v-0.504h-0.015c-0.266,0.498-0.687,0.609-1.043,0.609c-1.247,0-1.611-1.169-1.611-2.045
		c0-1.03,0.554-1.828,1.526-1.828c0.666,0,0.946,0.413,1.093,0.624l0.015-0.049v-1.835h0.616V50.534z M445.523,50.106
		c0.393,0,1.001-0.259,1.001-1.232c0-0.596-0.098-1.555-0.987-1.555c-0.952,0-1.001,0.904-1.001,1.373
		C444.535,49.497,444.85,50.106,445.523,50.106z"/>
	<path d="M450.079,47.914c-0.007-0.231-0.091-0.616-0.868-0.616c-0.189,0-0.729,0.063-0.729,0.519c0,0.301,0.189,0.371,0.665,0.49
		l0.616,0.154c0.764,0.189,1.03,0.469,1.03,0.967c0,0.756-0.624,1.211-1.45,1.211c-1.449,0-1.555-0.84-1.576-1.282h0.596
		c0.021,0.287,0.105,0.75,0.974,0.75c0.441,0,0.841-0.175,0.841-0.582c0-0.294-0.203-0.392-0.729-0.525l-0.715-0.175
		c-0.511-0.126-0.848-0.385-0.848-0.89c0-0.805,0.666-1.169,1.387-1.169c1.311,0,1.401,0.966,1.401,1.148H450.079z"/>
	<path d="M451.289,51.983c0.596-1.121,0.952-1.793,0.952-3.474c0-1.156-0.398-2.01-0.959-3.11h0.413
		c0.729,1.093,1.205,1.968,1.205,3.278c0,1.232-0.428,2.227-1.184,3.306H451.289z"/>
</g>
</svg>
