<?xml version="1.0" encoding="utf-8"?>
<!-- Generator: Adobe Illustrator 28.2.0, SVG Export Plug-In . SVG Version: 6.00 Build 0)  -->
<svg version="1.1" id="儗僀儎乕_1" xmlns="http://www.w3.org/2000/svg" xmlns:xlink="http://www.w3.org/1999/xlink" x="0px"
	 y="0px" width="284.358px" height="52.245px" viewBox="0 0 284.358 52.245" style="enable-background:new 0 0 284.358 52.245;"
	 xml:space="preserve">
<style type="text/css">
	.st0{fill:none;stroke:#000000;stroke-width:0.3;}
	.st1{fill:none;stroke:#000000;stroke-width:0.5;}
	.st2{fill:#FFFFFF;}
</style>
<g>
	<path d="M66.315,19.49l1.481-1.481l3.245,3.244l3.244-3.244l1.481,1.481l-3.244,3.244l3.263,3.245l-1.5,1.481l-3.244-3.245
		l-3.226,3.245l-1.5-1.481l3.245-3.245L66.315,19.49z"/>
</g>
<g>
	<path d="M160.141,21.279h-9.452v-2.1h9.452V21.279z M160.141,25.405h-9.452v-2.101h9.452V25.405z"/>
</g>
<line class="st0" x1="0.15" y1="34.031" x2="0.15" y2="43.056"/>
<line class="st0" x1="58.707" y1="34.031" x2="58.707" y2="43.056"/>
<line class="st0" x1="84.304" y1="34.031" x2="84.304" y2="43.056"/>
<line class="st0" x1="142.861" y1="34.031" x2="142.861" y2="43.056"/>
<polygon points="6.354,38.292 0.083,39.649 6.354,40.998 6.354,40.27 14.457,40.27 14.457,39.022 6.354,39.022 "/>
<polygon points="52.195,40.999 58.467,39.641 52.195,38.293 52.195,39.02 44.093,39.02 44.093,40.269 52.195,40.269 "/>
<polygon points="136.827,40.999 143.099,39.641 136.827,38.293 136.827,39.02 128.725,39.02 128.725,40.269 136.827,40.269 "/>
<polygon points="90.989,38.292 84.718,39.649 90.989,40.998 90.989,40.27 99.092,40.27 99.092,39.022 90.989,39.022 "/>
<g>
	<g>
		<path d="M108.973,2.714c-0.04-0.888-0.776-1.167-1.423-1.167c-0.488,0-1.311,0.136-1.311,1.007c0,0.488,0.344,0.647,0.679,0.728
			l1.639,0.376c0.744,0.176,1.303,0.624,1.303,1.535c0,1.359-1.263,1.735-2.247,1.735c-1.063,0-1.479-0.32-1.735-0.552
			c-0.488-0.439-0.584-0.919-0.584-1.455h0.728c0,1.04,0.848,1.343,1.583,1.343c0.56,0,1.503-0.144,1.503-0.967
			c0-0.6-0.28-0.792-1.223-1.016l-1.175-0.272c-0.376-0.088-1.224-0.352-1.224-1.351c0-0.896,0.584-1.775,1.975-1.775
			c2.007,0,2.207,1.199,2.239,1.831H108.973z"/>
		<path d="M111.558,6.776h-0.704V2.594h0.664V3.29h0.016c0.28-0.487,0.647-0.815,1.175-0.815c0.088,0,0.128,0.008,0.184,0.024v0.728
			h-0.264c-0.656,0-1.071,0.512-1.071,1.119V6.776z"/>
		<path d="M115.877,4.001c-0.088-0.56-0.4-0.896-0.992-0.896c-0.871,0-1.151,0.832-1.151,1.575c0,0.72,0.176,1.607,1.144,1.607
			c0.472,0,0.879-0.352,1-0.991h0.68c-0.072,0.664-0.48,1.599-1.703,1.599c-1.175,0-1.871-0.888-1.871-2.095
			c0-1.295,0.624-2.327,2.007-2.327c1.096,0,1.511,0.8,1.567,1.527H115.877z"/>
		<path d="M117.094,3.17c0-1.831,1.335-2.015,1.943-2.015c0.975,0,1.759,0.632,1.759,1.679c0,1.007-0.664,1.431-1.503,1.879
			l-0.584,0.32c-0.768,0.424-0.936,0.864-0.967,1.08h3.054v0.664h-3.846c0.04-1.167,0.567-1.791,1.319-2.231l0.743-0.432
			c0.6-0.344,1.032-0.576,1.032-1.311c0-0.448-0.288-1.016-1.111-1.016c-1.063,0-1.111,0.991-1.135,1.383H117.094z"/>
	</g>
</g>
<g>
	<g>
		<path d="M25.027,2.714c-0.04-0.888-0.776-1.167-1.423-1.167c-0.488,0-1.311,0.136-1.311,1.007c0,0.488,0.344,0.647,0.679,0.728
			l1.639,0.376c0.744,0.176,1.303,0.624,1.303,1.535c0,1.359-1.263,1.735-2.247,1.735c-1.063,0-1.479-0.32-1.735-0.552
			c-0.488-0.439-0.584-0.919-0.584-1.455h0.728c0,1.04,0.848,1.343,1.583,1.343c0.56,0,1.503-0.144,1.503-0.967
			c0-0.6-0.28-0.792-1.223-1.016l-1.175-0.272c-0.376-0.088-1.224-0.352-1.224-1.351c0-0.896,0.584-1.775,1.975-1.775
			c2.007,0,2.207,1.199,2.239,1.831H25.027z"/>
		<path d="M27.613,6.776h-0.704V2.594h0.664V3.29h0.016c0.28-0.487,0.647-0.815,1.175-0.815c0.088,0,0.128,0.008,0.184,0.024v0.728
			h-0.264c-0.656,0-1.071,0.512-1.071,1.119V6.776z"/>
		<path d="M31.932,4.001c-0.088-0.56-0.4-0.896-0.992-0.896c-0.871,0-1.151,0.832-1.151,1.575c0,0.72,0.176,1.607,1.144,1.607
			c0.472,0,0.879-0.352,1-0.991h0.68c-0.072,0.664-0.48,1.599-1.703,1.599c-1.175,0-1.871-0.888-1.871-2.095
			c0-1.295,0.624-2.327,2.007-2.327c1.096,0,1.511,0.8,1.567,1.527H31.932z"/>
		<path d="M35.668,6.776h-0.752v-3.99h-1.311v-0.56c0.912-0.064,1.287-0.152,1.511-1.072h0.552V6.776z"/>
	</g>
</g>
<g>
	<path d="M108.976,42.669h-0.658v-3.495h-1.148v-0.49c0.798-0.056,1.127-0.133,1.324-0.938h0.483V42.669z"/>
	<path d="M112.995,39.056c-0.077-0.435-0.315-0.756-0.847-0.756c-0.967,0-1.17,1.302-1.17,1.821l0.014,0.014
		c0.154-0.267,0.497-0.603,1.169-0.603c0.603,0,1.541,0.385,1.541,1.562c0,0.504-0.133,0.868-0.469,1.232
		c-0.259,0.287-0.553,0.477-1.247,0.477c-0.378,0-0.917-0.168-1.268-0.715c-0.294-0.462-0.378-1.064-0.378-1.708
		c0-1.079,0.35-2.634,1.821-2.634c0.567,0,1.373,0.308,1.436,1.31H112.995z M112.098,42.249c0.588,0,0.967-0.462,0.967-1.127
		c0-0.434-0.231-1.037-0.995-1.037c-0.679,0-1.009,0.49-1.009,1.072C111.061,41.682,111.377,42.249,112.098,42.249z"/>
	<path d="M114.372,42.669v-5.029h0.616v1.828h0.014c0.266-0.385,0.63-0.561,1.058-0.567c0.974,0,1.527,0.798,1.527,1.828
		c0,0.875-0.364,2.045-1.611,2.045c-0.624,0-0.883-0.357-1.009-0.56h-0.014v0.455H114.372z M115.948,39.455
		c-0.889,0-0.987,0.959-0.987,1.555c0,0.973,0.609,1.232,1.001,1.232c0.672,0,0.987-0.609,0.987-1.415
		C116.95,40.358,116.901,39.455,115.948,39.455z"/>
	<path d="M118.328,38.341v-0.701h0.616v0.701H118.328z M118.944,42.669h-0.616v-3.663h0.616V42.669z"/>
	<path d="M120.623,39.518v2.381c0,0.287,0.245,0.287,0.372,0.287h0.217v0.483c-0.224,0.021-0.399,0.049-0.462,0.049
		c-0.609,0-0.743-0.343-0.743-0.784v-2.417h-0.497v-0.511h0.497v-1.022h0.616v1.022h0.588v0.511H120.623z"/>
	<path d="M104.241,45.536c-0.595,1.121-0.952,1.793-0.952,3.474c0,1.155,0.399,2.01,0.959,3.109h-0.414
		c-0.728-1.092-1.205-1.968-1.205-3.278c0-1.232,0.427-2.227,1.184-3.306H104.241z"/>
	<path d="M106.999,50.669h-0.658v-3.495h-1.148v-0.49c0.798-0.056,1.127-0.133,1.324-0.938h0.483V50.669z"/>
	<path d="M110.17,50.669h-0.637l-1.058-3.663h0.672l0.7,2.879h0.014l0.708-2.879h0.686l0.714,2.879h0.014l0.742-2.879h0.617
		l-1.065,3.663h-0.637l-0.742-2.836h-0.014L110.17,50.669z"/>
	<path d="M115.308,46.901c1.169,0,1.702,0.988,1.702,1.933s-0.532,1.933-1.702,1.933c-1.17,0-1.702-0.988-1.702-1.933
		S114.138,46.901,115.308,46.901z M115.308,50.235c0.882,0,1.064-0.911,1.064-1.401s-0.182-1.401-1.064-1.401
		c-0.883,0-1.065,0.911-1.065,1.401S114.425,50.235,115.308,50.235z"/>
	<path d="M118.408,50.669h-0.617v-3.663h0.582v0.609h0.014c0.245-0.427,0.567-0.714,1.029-0.714c0.077,0,0.112,0.007,0.161,0.021
		v0.637h-0.231c-0.574,0-0.938,0.448-0.938,0.981V50.669z"/>
	<path d="M122.939,50.669h-0.582v-0.504h-0.014c-0.266,0.498-0.686,0.609-1.043,0.609c-1.247,0-1.611-1.169-1.611-2.045
		c0-1.03,0.553-1.828,1.527-1.828c0.666,0,0.945,0.413,1.093,0.624l0.014-0.049v-1.835h0.617V50.669z M121.314,50.242
		c0.392,0,1.001-0.259,1.001-1.232c0-0.596-0.098-1.555-0.988-1.555c-0.952,0-1.001,0.904-1.001,1.373
		C120.326,49.633,120.642,50.242,121.314,50.242z"/>
	<path d="M123.581,52.119c0.595-1.121,0.953-1.793,0.953-3.474c0-1.156-0.399-2.01-0.959-3.11h0.413
		c0.729,1.093,1.205,1.968,1.205,3.278c0,1.232-0.427,2.227-1.184,3.306H123.581z"/>
</g>
<g>
	<path d="M24.211,42.669h-0.658v-3.495h-1.148v-0.49c0.798-0.056,1.127-0.133,1.324-0.938h0.483V42.669z"/>
	<path d="M28.229,39.056c-0.077-0.435-0.315-0.756-0.847-0.756c-0.967,0-1.17,1.302-1.17,1.821l0.014,0.014
		c0.154-0.267,0.497-0.603,1.169-0.603c0.603,0,1.541,0.385,1.541,1.562c0,0.504-0.133,0.868-0.469,1.232
		c-0.259,0.287-0.553,0.477-1.247,0.477c-0.378,0-0.917-0.168-1.268-0.715c-0.294-0.462-0.378-1.064-0.378-1.708
		c0-1.079,0.35-2.634,1.821-2.634c0.567,0,1.373,0.308,1.436,1.31H28.229z M27.332,42.249c0.588,0,0.967-0.462,0.967-1.127
		c0-0.434-0.231-1.037-0.995-1.037c-0.679,0-1.009,0.49-1.009,1.072C26.296,41.682,26.611,42.249,27.332,42.249z"/>
	<path d="M29.607,42.669v-5.029h0.616v1.828h0.014c0.266-0.385,0.63-0.561,1.058-0.567c0.974,0,1.527,0.798,1.527,1.828
		c0,0.875-0.364,2.045-1.611,2.045c-0.624,0-0.883-0.357-1.009-0.56h-0.014v0.455H29.607z M31.183,39.455
		c-0.889,0-0.987,0.959-0.987,1.555c0,0.973,0.609,1.232,1.001,1.232c0.672,0,0.987-0.609,0.987-1.415
		C32.184,40.358,32.135,39.455,31.183,39.455z"/>
	<path d="M33.562,38.341v-0.701h0.616v0.701H33.562z M34.178,42.669h-0.616v-3.663h0.616V42.669z"/>
	<path d="M35.858,39.518v2.381c0,0.287,0.245,0.287,0.372,0.287h0.217v0.483c-0.224,0.021-0.399,0.049-0.462,0.049
		c-0.609,0-0.743-0.343-0.743-0.784v-2.417h-0.497v-0.511h0.497v-1.022h0.616v1.022h0.588v0.511H35.858z"/>
	<path d="M19.475,45.536c-0.595,1.121-0.952,1.793-0.952,3.474c0,1.155,0.399,2.01,0.959,3.109h-0.414
		c-0.728-1.092-1.205-1.968-1.205-3.278c0-1.232,0.427-2.227,1.184-3.306H19.475z"/>
	<path d="M22.233,50.669h-0.658v-3.495h-1.148v-0.49c0.798-0.056,1.127-0.133,1.324-0.938h0.483V50.669z"/>
	<path d="M25.404,50.669h-0.637l-1.058-3.663h0.672l0.7,2.879h0.014l0.708-2.879h0.686l0.714,2.879h0.014l0.742-2.879h0.617
		l-1.065,3.663h-0.637l-0.742-2.836h-0.014L25.404,50.669z"/>
	<path d="M30.542,46.901c1.169,0,1.702,0.988,1.702,1.933s-0.532,1.933-1.702,1.933c-1.17,0-1.702-0.988-1.702-1.933
		S29.372,46.901,30.542,46.901z M30.542,50.235c0.882,0,1.064-0.911,1.064-1.401s-0.182-1.401-1.064-1.401
		c-0.883,0-1.065,0.911-1.065,1.401S29.66,50.235,30.542,50.235z"/>
	<path d="M33.642,50.669h-0.617v-3.663h0.582v0.609h0.014c0.245-0.427,0.567-0.714,1.029-0.714c0.077,0,0.112,0.007,0.161,0.021
		v0.637h-0.231c-0.574,0-0.938,0.448-0.938,0.981V50.669z"/>
	<path d="M38.173,50.669h-0.582v-0.504h-0.014c-0.266,0.498-0.686,0.609-1.043,0.609c-1.247,0-1.611-1.169-1.611-2.045
		c0-1.03,0.553-1.828,1.527-1.828c0.666,0,0.945,0.413,1.093,0.624l0.014-0.049v-1.835h0.617V50.669z M36.548,50.242
		c0.392,0,1.001-0.259,1.001-1.232c0-0.596-0.098-1.555-0.988-1.555c-0.952,0-1.001,0.904-1.001,1.373
		C35.56,49.633,35.876,50.242,36.548,50.242z"/>
	<path d="M38.815,52.119c0.595-1.121,0.953-1.793,0.953-3.474c0-1.156-0.399-2.01-0.959-3.11h0.413
		c0.729,1.093,1.205,1.968,1.205,3.278c0,1.232-0.427,2.227-1.184,3.306H38.815z"/>
</g>
<g>
	<rect x="0.604" y="10.87" class="st1" width="57.579" height="22.146"/>
	<line class="st0" x1="29.393" y1="33.016" x2="29.393" y2="10.87"/>
	<rect x="8.81" y="15.667" class="st2" width="44.292" height="12.5"/>
	<g>
		<path d="M20.759,21.212c0.27-0.207,0.657-0.396,1.225-0.396c1.026,0,2.08,0.72,2.08,2.025c0,0.702-0.315,2.224-2.296,2.224
			c-0.828,0-1.891-0.333-2.043-1.747h0.819c0.081,0.738,0.63,1.062,1.341,1.062c0.819,0,1.333-0.657,1.333-1.449
			c0-0.91-0.621-1.405-1.405-1.405c-0.459,0-0.873,0.216-1.17,0.604l-0.685-0.036l0.478-3.394h3.277v0.774h-2.683L20.759,21.212z"/>
		<path d="M25.763,21.212c0.27-0.207,0.657-0.396,1.225-0.396c1.026,0,2.08,0.72,2.08,2.025c0,0.702-0.315,2.224-2.296,2.224
			c-0.828,0-1.891-0.333-2.043-1.747h0.819c0.081,0.738,0.63,1.062,1.341,1.062c0.819,0,1.333-0.657,1.333-1.449
			c0-0.91-0.621-1.405-1.405-1.405c-0.459,0-0.873,0.216-1.17,0.604l-0.685-0.036l0.478-3.394h3.277v0.774h-2.683L25.763,21.212z"/>
		<path d="M30.767,21.212c0.27-0.207,0.657-0.396,1.225-0.396c1.026,0,2.08,0.72,2.08,2.025c0,0.702-0.315,2.224-2.296,2.224
			c-0.828,0-1.891-0.333-2.043-1.747h0.819c0.081,0.738,0.63,1.062,1.341,1.062c0.819,0,1.333-0.657,1.333-1.449
			c0-0.91-0.621-1.405-1.405-1.405c-0.459,0-0.873,0.216-1.17,0.604l-0.685-0.036l0.478-3.394h3.277v0.774h-2.683L30.767,21.212z"/>
		<path d="M35.771,21.212c0.27-0.207,0.657-0.396,1.225-0.396c1.026,0,2.08,0.72,2.08,2.025c0,0.702-0.315,2.224-2.296,2.224
			c-0.828,0-1.891-0.333-2.043-1.747h0.819c0.081,0.738,0.63,1.062,1.341,1.062c0.819,0,1.333-0.657,1.333-1.449
			c0-0.91-0.621-1.405-1.404-1.405c-0.459,0-0.874,0.216-1.17,0.604l-0.685-0.036l0.478-3.394h3.277v0.774h-2.683L35.771,21.212z"/>
	</g>
</g>
<g>
	<rect x="84.549" y="10.87" class="st1" width="57.579" height="22.146"/>
	<line class="st0" x1="113.339" y1="33.016" x2="113.339" y2="10.87"/>
	<rect x="92.755" y="15.667" class="st2" width="44.292" height="12.5"/>
	<g>
		<path d="M109.664,23.355v1.54h-0.792v-1.54h-2.764v-0.774l2.899-4.016h0.657v4.105h0.927v0.684H109.664z M106.837,22.671h2.035
			v-2.872h-0.018L106.837,22.671z"/>
		<path d="M112.21,21.212c0.27-0.207,0.657-0.396,1.225-0.396c1.026,0,2.08,0.72,2.08,2.025c0,0.702-0.315,2.224-2.296,2.224
			c-0.828,0-1.891-0.333-2.043-1.747h0.819c0.081,0.738,0.63,1.062,1.341,1.062c0.819,0,1.333-0.657,1.333-1.449
			c0-0.91-0.621-1.405-1.405-1.405c-0.459,0-0.873,0.216-1.17,0.604l-0.685-0.036l0.478-3.394h3.277v0.774h-2.683L112.21,21.212z"/>
		<path d="M119.644,20.249c-0.099-0.558-0.405-0.972-1.089-0.972c-1.242,0-1.503,1.674-1.503,2.341l0.018,0.018
			c0.198-0.342,0.639-0.774,1.503-0.774c0.774,0,1.981,0.495,1.981,2.008c0,0.648-0.171,1.116-0.604,1.584
			c-0.333,0.369-0.711,0.612-1.603,0.612c-0.486,0-1.179-0.216-1.629-0.918c-0.378-0.594-0.486-1.369-0.486-2.197
			c0-1.386,0.45-3.385,2.34-3.385c0.729,0,1.765,0.396,1.846,1.684H119.644z M118.492,24.354c0.756,0,1.243-0.594,1.243-1.45
			c0-0.558-0.297-1.332-1.278-1.332c-0.874,0-1.296,0.63-1.296,1.377C117.16,23.625,117.565,24.354,118.492,24.354z"/>
	</g>
</g>
<g>
	<g>
		<path d="M220.005,39.732c0.105,0.007,0.218,0.014,0.322,0.014c0.477,0,0.938-0.189,0.938-0.805c0-0.294-0.175-0.777-0.91-0.777
			c-0.875,0-0.932,0.714-0.959,1.057h-0.603c0-0.721,0.294-1.611,1.59-1.611c0.952,0,1.52,0.546,1.52,1.296
			c0,0.63-0.364,0.932-0.63,1.016v0.014c0.476,0.154,0.819,0.491,0.819,1.149c0,0.805-0.519,1.583-1.772,1.583
			c-0.364,0-0.672-0.091-0.91-0.217c-0.547-0.287-0.693-0.854-0.735-1.422h0.637c0.021,0.462,0.134,1.085,1.051,1.085
			c0.631,0,1.072-0.385,1.072-0.952c0-0.827-0.729-0.904-1.149-0.904c-0.091,0-0.188,0.007-0.28,0.007V39.732z"/>
		<path d="M222.637,39.375c0-1.604,1.169-1.765,1.701-1.765c0.854,0,1.541,0.554,1.541,1.471c0,0.882-0.581,1.253-1.316,1.646
			l-0.512,0.28c-0.672,0.371-0.819,0.756-0.848,0.945h2.676v0.582h-3.369c0.035-1.022,0.498-1.569,1.156-1.954l0.651-0.378
			c0.525-0.301,0.903-0.504,0.903-1.149c0-0.392-0.252-0.889-0.974-0.889c-0.932,0-0.974,0.868-0.994,1.211H222.637z"/>
		<path d="M226.627,42.534v-5.029h0.616v1.828h0.014c0.267-0.385,0.631-0.561,1.058-0.567c0.974,0,1.527,0.798,1.527,1.828
			c0,0.875-0.364,2.045-1.611,2.045c-0.623,0-0.882-0.357-1.008-0.56h-0.015v0.455H226.627z M228.204,39.319
			c-0.89,0-0.988,0.959-0.988,1.555c0,0.973,0.609,1.232,1.002,1.232c0.672,0,0.987-0.609,0.987-1.415
			C229.205,40.223,229.156,39.319,228.204,39.319z"/>
		<path d="M230.582,38.206v-0.701h0.616v0.701H230.582z M231.199,42.534h-0.616v-3.663h0.616V42.534z"/>
		<path d="M232.878,39.382v2.381c0,0.287,0.245,0.287,0.371,0.287h0.217v0.483c-0.224,0.021-0.399,0.049-0.462,0.049
			c-0.609,0-0.742-0.343-0.742-0.784v-2.417h-0.498v-0.511h0.498v-1.022h0.616v1.022h0.588v0.511H232.878z"/>
		<path d="M214.605,45.4c-0.595,1.121-0.952,1.793-0.952,3.474c0,1.155,0.399,2.01,0.959,3.109h-0.413
			c-0.729-1.092-1.204-1.968-1.204-3.278c0-1.232,0.427-2.227,1.184-3.306H214.605z"/>
		<path d="M215.158,47.375c0-1.604,1.169-1.765,1.701-1.765c0.854,0,1.541,0.554,1.541,1.471c0,0.882-0.581,1.253-1.316,1.646
			l-0.512,0.28c-0.672,0.371-0.819,0.756-0.848,0.945h2.676v0.582h-3.369c0.035-1.022,0.498-1.569,1.156-1.954l0.651-0.378
			c0.525-0.301,0.903-0.504,0.903-1.149c0-0.392-0.252-0.889-0.974-0.889c-0.932,0-0.974,0.868-0.994,1.211H215.158z"/>
		<path d="M220.534,50.534h-0.638l-1.058-3.663h0.673l0.7,2.879h0.014l0.708-2.879h0.687l0.714,2.879h0.015l0.742-2.879h0.616
			l-1.064,3.663h-0.638l-0.742-2.836h-0.014L220.534,50.534z"/>
		<path d="M225.672,46.766c1.169,0,1.702,0.988,1.702,1.933s-0.533,1.933-1.702,1.933c-1.17,0-1.702-0.988-1.702-1.933
			S224.502,46.766,225.672,46.766z M225.672,50.1c0.882,0,1.064-0.911,1.064-1.401s-0.183-1.401-1.064-1.401
			c-0.883,0-1.064,0.911-1.064,1.401S224.789,50.1,225.672,50.1z"/>
		<path d="M228.772,50.534h-0.616v-3.663h0.582v0.609h0.014c0.245-0.427,0.567-0.714,1.029-0.714c0.077,0,0.112,0.007,0.161,0.021
			v0.637h-0.231c-0.574,0-0.938,0.448-0.938,0.981V50.534z"/>
		<path d="M233.303,50.534h-0.581v-0.504h-0.015c-0.266,0.498-0.687,0.609-1.043,0.609c-1.247,0-1.611-1.169-1.611-2.045
			c0-1.03,0.554-1.828,1.526-1.828c0.666,0,0.946,0.413,1.093,0.624l0.015-0.049v-1.835h0.616V50.534z M231.678,50.106
			c0.393,0,1.001-0.259,1.001-1.232c0-0.596-0.098-1.555-0.987-1.555c-0.952,0-1.001,0.904-1.001,1.373
			C230.691,49.497,231.005,50.106,231.678,50.106z"/>
		<path d="M236.235,47.914c-0.007-0.231-0.091-0.616-0.868-0.616c-0.189,0-0.729,0.063-0.729,0.519c0,0.301,0.189,0.371,0.665,0.49
			l0.616,0.154c0.764,0.189,1.03,0.469,1.03,0.967c0,0.756-0.624,1.211-1.45,1.211c-1.449,0-1.555-0.84-1.576-1.282h0.596
			c0.021,0.287,0.105,0.75,0.974,0.75c0.441,0,0.841-0.175,0.841-0.582c0-0.294-0.203-0.392-0.729-0.525l-0.715-0.175
			c-0.511-0.126-0.848-0.385-0.848-0.89c0-0.805,0.666-1.169,1.387-1.169c1.311,0,1.401,0.966,1.401,1.148H236.235z"/>
		<path d="M237.445,51.983c0.596-1.121,0.952-1.793,0.952-3.474c0-1.156-0.398-2.01-0.959-3.11h0.413
			c0.729,1.093,1.205,1.968,1.205,3.278c0,1.232-0.428,2.227-1.184,3.306H237.445z"/>
	</g>
	<line class="st0" x1="168.95" y1="33.895" x2="168.95" y2="42.92"/>
	<line class="st0" x1="284.044" y1="33.895" x2="284.044" y2="42.92"/>
	<polygon points="175.155,38.156 168.883,39.513 175.155,40.862 175.155,40.134 200.972,40.134 200.972,38.886 175.155,38.886 	"/>
	<polygon points="277.533,40.863 283.805,39.506 277.533,38.157 277.533,38.885 251.715,38.885 251.715,40.133 277.533,40.133 	"/>
	<g>
		<g>
			<path d="M249.858,0.899h2.327c1.495,0,2.414,1.135,2.414,2.791c0,1.287-0.56,2.95-2.446,2.95h-2.295V0.899z M250.633,5.977h1.504
				c1.007,0,1.663-0.792,1.663-2.239s-0.664-2.175-1.72-2.175h-1.447V5.977z"/>
			<path d="M257.88,3.65c-0.008-0.264-0.104-0.704-0.991-0.704c-0.216,0-0.832,0.072-0.832,0.591c0,0.344,0.216,0.424,0.76,0.56
				l0.703,0.176c0.872,0.216,1.176,0.536,1.176,1.104c0,0.863-0.712,1.383-1.655,1.383c-1.655,0-1.774-0.959-1.799-1.463h0.68
				c0.023,0.328,0.12,0.855,1.111,0.855c0.504,0,0.959-0.2,0.959-0.664c0-0.336-0.231-0.448-0.831-0.6l-0.815-0.2
				c-0.584-0.144-0.968-0.439-0.968-1.015c0-0.919,0.76-1.335,1.583-1.335c1.495,0,1.6,1.104,1.6,1.312H257.88z"/>
			<path d="M260.369,3.042v2.719c0,0.328,0.28,0.328,0.424,0.328h0.248V6.64c-0.256,0.024-0.455,0.056-0.527,0.056
				c-0.695,0-0.848-0.392-0.848-0.896V3.042h-0.567V2.458h0.567V1.291h0.703v1.167h0.672v0.583H260.369z"/>
		</g>
	</g>
	<g>
		<g>
			<path d="M184.582,0.899h2.327c1.495,0,2.414,1.135,2.414,2.791c0,1.287-0.56,2.95-2.446,2.95h-2.295V0.899z M185.358,5.977h1.504
				c1.007,0,1.663-0.792,1.663-2.239s-0.664-2.175-1.72-2.175h-1.447V5.977z"/>
			<path d="M192.605,3.65c-0.008-0.264-0.104-0.704-0.991-0.704c-0.216,0-0.832,0.072-0.832,0.591c0,0.344,0.216,0.424,0.76,0.56
				l0.703,0.176c0.872,0.216,1.176,0.536,1.176,1.104c0,0.863-0.712,1.383-1.655,1.383c-1.655,0-1.774-0.959-1.799-1.463h0.68
				c0.023,0.328,0.12,0.855,1.111,0.855c0.504,0,0.959-0.2,0.959-0.664c0-0.336-0.231-0.448-0.831-0.6l-0.815-0.2
				c-0.584-0.144-0.968-0.439-0.968-1.015c0-0.919,0.76-1.335,1.583-1.335c1.495,0,1.6,1.104,1.6,1.312H192.605z"/>
			<path d="M195.093,3.042v2.719c0,0.328,0.28,0.328,0.424,0.328h0.248V6.64c-0.256,0.024-0.455,0.056-0.527,0.056
				c-0.695,0-0.848-0.392-0.848-0.896V3.042h-0.567V2.458h0.567V1.291h0.703v1.167h0.672v0.583H195.093z"/>
		</g>
		<g>
			<path d="M202.478,2.603h0.584V4.33h1.727v0.583h-1.727V6.64h-0.584V4.913h-1.735V4.33h1.735V2.603z"/>
			<path d="M207.973,6.64h-0.751V2.65h-1.312v-0.56c0.911-0.064,1.287-0.152,1.511-1.072h0.552V6.64z"/>
		</g>
	</g>
	<g>
		<rect x="168.95" y="10.734" class="st1" width="115.158" height="22.146"/>
		<line class="st1" x1="226.528" y1="32.88" x2="226.528" y2="10.734"/>
		<line class="st0" x1="212.134" y1="32.88" x2="212.134" y2="10.734"/>
		<line class="st0" x1="197.741" y1="32.88" x2="197.741" y2="10.734"/>
		<line class="st0" x1="183.345" y1="32.88" x2="183.345" y2="10.734"/>
		<line class="st0" x1="240.923" y1="32.88" x2="240.923" y2="10.734"/>
		<line class="st0" x1="255.318" y1="32.88" x2="255.318" y2="10.734"/>
		<line class="st0" x1="269.712" y1="32.88" x2="269.712" y2="10.734"/>
		<rect x="178.043" y="15.531" class="st2" width="97.441" height="12.5"/>
		<g>
			<path d="M209.461,20.699c0-2.062,1.503-2.269,2.188-2.269c1.098,0,1.98,0.711,1.98,1.891c0,1.134-0.747,1.612-1.692,2.116
				l-0.657,0.36c-0.864,0.477-1.054,0.972-1.09,1.215h3.439v0.747h-4.33c0.045-1.314,0.639-2.017,1.485-2.512l0.837-0.486
				c0.676-0.387,1.161-0.648,1.161-1.476c0-0.504-0.324-1.144-1.251-1.144c-1.197,0-1.251,1.116-1.278,1.558H209.461z"/>
			<path d="M215.392,21.077c0.271-0.207,0.657-0.396,1.225-0.396c1.026,0,2.079,0.72,2.079,2.025c0,0.702-0.314,2.224-2.295,2.224
				c-0.828,0-1.891-0.333-2.044-1.747h0.819c0.081,0.738,0.63,1.062,1.341,1.062c0.819,0,1.333-0.657,1.333-1.449
				c0-0.91-0.621-1.405-1.404-1.405c-0.459,0-0.873,0.216-1.171,0.604l-0.684-0.036l0.477-3.394h3.277v0.774h-2.683L215.392,21.077z
				"/>
			<path d="M221.089,21.158c0.135,0.009,0.279,0.018,0.414,0.018c0.612,0,1.206-0.243,1.206-1.035c0-0.378-0.225-1-1.17-1
				c-1.125,0-1.197,0.918-1.233,1.359h-0.774c0-0.927,0.378-2.071,2.044-2.071c1.225,0,1.953,0.703,1.953,1.666
				c0,0.811-0.468,1.198-0.81,1.306v0.018c0.611,0.198,1.053,0.63,1.053,1.476c0,1.036-0.666,2.035-2.277,2.035
				c-0.469,0-0.864-0.117-1.171-0.279c-0.702-0.369-0.891-1.099-0.945-1.828h0.819c0.027,0.594,0.171,1.396,1.351,1.396
				c0.811,0,1.378-0.495,1.378-1.225c0-1.062-0.937-1.161-1.477-1.161c-0.117,0-0.243,0.009-0.36,0.009V21.158z"/>
			<path d="M226.093,21.158c0.135,0.009,0.279,0.018,0.414,0.018c0.612,0,1.206-0.243,1.206-1.035c0-0.378-0.225-1-1.17-1
				c-1.125,0-1.197,0.918-1.233,1.359h-0.774c0-0.927,0.378-2.071,2.044-2.071c1.225,0,1.953,0.703,1.953,1.666
				c0,0.811-0.468,1.198-0.81,1.306v0.018c0.611,0.198,1.053,0.63,1.053,1.476c0,1.036-0.666,2.035-2.277,2.035
				c-0.469,0-0.864-0.117-1.171-0.279c-0.702-0.369-0.891-1.099-0.945-1.828h0.819c0.027,0.594,0.171,1.396,1.351,1.396
				c0.811,0,1.378-0.495,1.378-1.225c0-1.062-0.937-1.161-1.477-1.161c-0.117,0-0.243,0.009-0.36,0.009V21.158z"/>
			<path d="M231.583,24.93c-1.818,0-2.17-1.936-2.17-3.25s0.352-3.25,2.17-3.25s2.17,1.936,2.17,3.25S233.402,24.93,231.583,24.93z
				 M231.583,19.141c-0.909,0-1.323,0.954-1.323,2.539s0.414,2.539,1.323,2.539s1.323-0.955,1.323-2.539
				S232.493,19.141,231.583,19.141z"/>
			<path d="M237.704,21.392c0.855,0.36,1.035,1.062,1.035,1.54c0,1.018-0.648,1.999-2.143,1.999c-0.351,0-1.018-0.09-1.521-0.486
				c-0.648-0.513-0.648-1.198-0.648-1.503c0-0.774,0.405-1.27,1.071-1.54c-0.54-0.207-0.854-0.639-0.854-1.233
				c0-0.657,0.404-1.738,1.917-1.738c1.404,0,1.954,0.892,1.954,1.63C238.514,20.969,237.983,21.248,237.704,21.392z
				 M235.273,22.958c0,0.504,0.252,1.261,1.351,1.261c0.576,0,1.27-0.207,1.27-1.197c0-0.855-0.595-1.233-1.314-1.233
				C235.687,21.788,235.273,22.373,235.273,22.958z M237.695,20.086c0-0.387-0.252-0.945-1.18-0.945
				c-0.846,0-1.054,0.585-1.054,0.99c0,0.603,0.531,0.972,1.107,0.972C237.253,21.104,237.695,20.663,237.695,20.086z"/>
			<path d="M241.592,24.93c-1.818,0-2.17-1.936-2.17-3.25s0.352-3.25,2.17-3.25s2.17,1.936,2.17,3.25S243.411,24.93,241.592,24.93z
				 M241.592,19.141c-0.909,0-1.323,0.954-1.323,2.539s0.414,2.539,1.323,2.539s1.323-0.955,1.323-2.539
				S242.501,19.141,241.592,19.141z"/>
		</g>
	</g>
</g>
</svg>
