<?xml version="1.0" encoding="utf-8"?>
<!-- Generator: Adobe Illustrator 28.2.0, SVG Export Plug-In . SVG Version: 6.00 Build 0)  -->
<svg version="1.1" id="儗僀儎乕_1" xmlns="http://www.w3.org/2000/svg" xmlns:xlink="http://www.w3.org/1999/xlink" x="0px"
	 y="0px" width="384.924px" height="52.108px" viewBox="0 0 384.924 52.108" style="enable-background:new 0 0 384.924 52.108;"
	 xml:space="preserve">
<style type="text/css">
	.st0{fill:none;stroke:#000000;stroke-width:0.3;}
	.st1{fill:none;stroke:#000000;stroke-width:0.5;}
	.st2{fill:#FFFFFF;}
</style>
<g>
	<path d="M262.961,21.585h-9.451v-2.1h9.451V21.585z M262.961,25.711h-9.451V23.61h9.451V25.711z"/>
</g>
<line class="st0" x1="135.016" y1="33.894" x2="135.016" y2="42.919"/>
<line class="st0" x1="250.111" y1="33.894" x2="250.111" y2="42.919"/>
<polygon points="141.22,38.155 134.948,39.512 141.22,40.861 141.22,40.133 167.038,40.133 167.038,38.885 141.22,38.885 "/>
<polygon points="243.6,40.862 249.871,39.505 243.6,38.156 243.6,38.884 217.782,38.884 217.782,40.132 243.6,40.132 "/>
<g>
	<g>
		<path d="M217.199,2.579c-0.04-0.888-0.775-1.167-1.423-1.167c-0.488,0-1.311,0.136-1.311,1.007c0,0.488,0.344,0.647,0.68,0.728
			l1.639,0.376c0.744,0.176,1.304,0.624,1.304,1.535c0,1.359-1.264,1.735-2.247,1.735c-1.063,0-1.479-0.32-1.735-0.552
			c-0.488-0.439-0.584-0.919-0.584-1.455h0.728c0,1.04,0.847,1.343,1.583,1.343c0.56,0,1.503-0.144,1.503-0.967
			c0-0.6-0.28-0.792-1.223-1.016l-1.175-0.272c-0.376-0.088-1.224-0.352-1.224-1.351c0-0.896,0.584-1.775,1.975-1.775
			c2.007,0,2.207,1.199,2.239,1.831H217.199z"/>
		<path d="M219.784,6.64h-0.704V2.458h0.664v0.695h0.016c0.28-0.487,0.647-0.815,1.175-0.815c0.088,0,0.128,0.008,0.184,0.024V3.09
			h-0.264c-0.656,0-1.071,0.512-1.071,1.119V6.64z"/>
		<path d="M224.103,3.866c-0.088-0.56-0.4-0.896-0.991-0.896c-0.872,0-1.151,0.832-1.151,1.575c0,0.72,0.176,1.607,1.143,1.607
			c0.472,0,0.879-0.352,1-0.991h0.68c-0.072,0.664-0.48,1.599-1.703,1.599c-1.175,0-1.871-0.888-1.871-2.095
			c0-1.295,0.624-2.327,2.007-2.327c1.096,0,1.511,0.8,1.567,1.527H224.103z"/>
		<path d="M225.321,3.034c0-1.831,1.335-2.015,1.943-2.015c0.975,0,1.759,0.632,1.759,1.679c0,1.007-0.664,1.431-1.503,1.879
			l-0.584,0.32c-0.768,0.424-0.936,0.864-0.967,1.08h3.054V6.64h-3.846c0.04-1.167,0.567-1.791,1.319-2.231l0.744-0.432
			c0.6-0.344,1.031-0.576,1.031-1.311c0-0.448-0.288-1.016-1.111-1.016c-1.063,0-1.111,0.991-1.136,1.383H225.321z"/>
	</g>
</g>
<g>
	<g>
		<path d="M151.924,2.579c-0.04-0.888-0.775-1.167-1.423-1.167c-0.488,0-1.311,0.136-1.311,1.007c0,0.488,0.344,0.647,0.68,0.728
			l1.639,0.376c0.744,0.176,1.304,0.624,1.304,1.535c0,1.359-1.264,1.735-2.247,1.735c-1.063,0-1.479-0.32-1.735-0.552
			c-0.488-0.439-0.584-0.919-0.584-1.455h0.728c0,1.04,0.847,1.343,1.583,1.343c0.56,0,1.503-0.144,1.503-0.967
			c0-0.6-0.28-0.792-1.223-1.016l-1.175-0.272c-0.376-0.088-1.224-0.352-1.224-1.351c0-0.896,0.584-1.775,1.975-1.775
			c2.007,0,2.207,1.199,2.239,1.831H151.924z"/>
		<path d="M154.51,6.64h-0.704V2.458h0.664v0.695h0.016c0.28-0.487,0.647-0.815,1.175-0.815c0.088,0,0.128,0.008,0.184,0.024V3.09
			h-0.264c-0.656,0-1.071,0.512-1.071,1.119V6.64z"/>
		<path d="M158.829,3.866c-0.088-0.56-0.4-0.896-0.991-0.896c-0.872,0-1.151,0.832-1.151,1.575c0,0.72,0.176,1.607,1.143,1.607
			c0.472,0,0.879-0.352,1-0.991h0.68c-0.072,0.664-0.48,1.599-1.703,1.599c-1.175,0-1.871-0.888-1.871-2.095
			c0-1.295,0.624-2.327,2.007-2.327c1.096,0,1.511,0.8,1.567,1.527H158.829z"/>
		<path d="M160.047,3.034c0-1.831,1.335-2.015,1.943-2.015c0.975,0,1.759,0.632,1.759,1.679c0,1.007-0.664,1.431-1.503,1.879
			l-0.584,0.32c-0.768,0.424-0.936,0.864-0.967,1.08h3.054V6.64h-3.846c0.04-1.167,0.567-1.791,1.319-2.231l0.744-0.432
			c0.6-0.344,1.031-0.576,1.031-1.311c0-0.448-0.288-1.016-1.111-1.016c-1.063,0-1.111,0.991-1.136,1.383H160.047z"/>
	</g>
	<g>
		<path d="M170.668,2.603h0.583V4.33h1.727v0.583h-1.727V6.64h-0.583V4.913h-1.735V4.33h1.735V2.603z"/>
		<path d="M176.164,6.64h-0.752V2.65h-1.311v-0.56c0.912-0.064,1.287-0.152,1.511-1.072h0.552V6.64z"/>
	</g>
</g>
<g>
	<path d="M186.193,39.731c0.105,0.007,0.217,0.014,0.322,0.014c0.476,0,0.938-0.189,0.938-0.805c0-0.294-0.175-0.777-0.911-0.777
		c-0.875,0-0.932,0.714-0.959,1.057h-0.602c0-0.721,0.294-1.611,1.59-1.611c0.952,0,1.52,0.546,1.52,1.296
		c0,0.63-0.364,0.932-0.63,1.016v0.014c0.477,0.154,0.819,0.491,0.819,1.149c0,0.805-0.518,1.583-1.772,1.583
		c-0.364,0-0.672-0.091-0.91-0.217c-0.546-0.287-0.693-0.854-0.735-1.422h0.637c0.021,0.462,0.133,1.085,1.051,1.085
		c0.63,0,1.071-0.385,1.071-0.952c0-0.827-0.729-0.904-1.148-0.904c-0.091,0-0.189,0.007-0.28,0.007V39.731z"/>
	<path d="M188.825,39.374c0-1.604,1.17-1.765,1.702-1.765c0.854,0,1.541,0.554,1.541,1.471c0,0.882-0.581,1.253-1.316,1.646
		l-0.511,0.28c-0.672,0.371-0.82,0.756-0.848,0.945h2.675v0.582h-3.369c0.035-1.022,0.497-1.569,1.156-1.954l0.651-0.378
		c0.525-0.301,0.903-0.504,0.903-1.149c0-0.392-0.252-0.889-0.974-0.889c-0.932,0-0.974,0.868-0.995,1.211H188.825z"/>
	<path d="M192.815,42.533v-5.029h0.616v1.828h0.014c0.266-0.385,0.63-0.561,1.058-0.567c0.974,0,1.527,0.798,1.527,1.828
		c0,0.875-0.364,2.045-1.611,2.045c-0.624,0-0.883-0.357-1.009-0.56h-0.014v0.455H192.815z M194.391,39.318
		c-0.889,0-0.987,0.959-0.987,1.555c0,0.973,0.609,1.232,1.001,1.232c0.672,0,0.987-0.609,0.987-1.415
		C195.392,40.222,195.343,39.318,194.391,39.318z"/>
	<path d="M196.77,38.205v-0.701h0.616v0.701H196.77z M197.386,42.533h-0.616V38.87h0.616V42.533z"/>
	<path d="M199.066,39.381v2.381c0,0.287,0.245,0.287,0.372,0.287h0.217v0.483c-0.224,0.021-0.399,0.049-0.462,0.049
		c-0.609,0-0.743-0.343-0.743-0.784v-2.417h-0.497V38.87h0.497v-1.022h0.616v1.022h0.588v0.511H199.066z"/>
	<path d="M180.793,45.399c-0.595,1.121-0.952,1.793-0.952,3.474c0,1.155,0.399,2.01,0.959,3.109h-0.413
		c-0.729-1.092-1.205-1.968-1.205-3.278c0-1.232,0.427-2.227,1.184-3.306H180.793z"/>
	<path d="M181.345,47.374c0-1.604,1.17-1.765,1.702-1.765c0.854,0,1.541,0.554,1.541,1.471c0,0.882-0.581,1.253-1.316,1.646
		l-0.511,0.28c-0.672,0.371-0.82,0.756-0.848,0.945h2.675v0.582h-3.369c0.035-1.022,0.497-1.569,1.156-1.954l0.651-0.378
		c0.525-0.301,0.903-0.504,0.903-1.149c0-0.392-0.252-0.889-0.974-0.889c-0.932,0-0.974,0.868-0.995,1.211H181.345z"/>
	<path d="M186.722,50.533h-0.637l-1.058-3.663h0.672l0.7,2.879h0.014l0.708-2.879h0.686l0.714,2.879h0.014l0.742-2.879h0.617
		l-1.065,3.663h-0.637l-0.742-2.836h-0.014L186.722,50.533z"/>
	<path d="M191.86,46.765c1.169,0,1.702,0.988,1.702,1.933s-0.532,1.933-1.702,1.933c-1.17,0-1.702-0.988-1.702-1.933
		S190.691,46.765,191.86,46.765z M191.86,50.099c0.882,0,1.064-0.911,1.064-1.401s-0.182-1.401-1.064-1.401
		c-0.883,0-1.065,0.911-1.065,1.401S190.978,50.099,191.86,50.099z"/>
	<path d="M194.961,50.533h-0.617V46.87h0.582v0.609h0.014c0.245-0.427,0.567-0.714,1.029-0.714c0.077,0,0.112,0.007,0.161,0.021
		v0.637H195.9c-0.574,0-0.938,0.448-0.938,0.981V50.533z"/>
	<path d="M199.491,50.533h-0.582v-0.504h-0.014c-0.266,0.498-0.686,0.609-1.043,0.609c-1.247,0-1.611-1.169-1.611-2.045
		c0-1.03,0.553-1.828,1.527-1.828c0.666,0,0.945,0.413,1.093,0.624l0.014-0.049v-1.835h0.617V50.533z M197.866,50.105
		c0.392,0,1.001-0.259,1.001-1.232c0-0.596-0.098-1.555-0.988-1.555c-0.952,0-1.001,0.904-1.001,1.373
		C196.879,49.496,197.194,50.105,197.866,50.105z"/>
	<path d="M202.423,47.913c-0.007-0.231-0.091-0.616-0.868-0.616c-0.189,0-0.729,0.063-0.729,0.519c0,0.301,0.189,0.371,0.666,0.49
		l0.616,0.154c0.763,0.189,1.03,0.469,1.03,0.967c0,0.756-0.624,1.211-1.45,1.211c-1.45,0-1.555-0.84-1.576-1.282h0.595
		c0.021,0.287,0.105,0.75,0.974,0.75c0.441,0,0.84-0.175,0.84-0.582c0-0.294-0.203-0.392-0.728-0.525l-0.715-0.175
		c-0.511-0.126-0.847-0.385-0.847-0.89c0-0.805,0.666-1.169,1.387-1.169c1.31,0,1.401,0.966,1.401,1.148H202.423z"/>
	<path d="M203.633,51.982c0.595-1.121,0.953-1.793,0.953-3.474c0-1.156-0.399-2.01-0.959-3.11h0.413
		c0.729,1.093,1.205,1.968,1.205,3.278c0,1.232-0.427,2.227-1.184,3.306H203.633z"/>
</g>
<g>
	<path d="M320.57,39.731c0.104,0.007,0.217,0.014,0.321,0.014c0.477,0,0.938-0.189,0.938-0.805c0-0.294-0.175-0.777-0.91-0.777
		c-0.875,0-0.932,0.714-0.959,1.057h-0.603c0-0.721,0.294-1.611,1.59-1.611c0.952,0,1.52,0.546,1.52,1.296
		c0,0.63-0.364,0.932-0.63,1.016v0.014c0.476,0.154,0.819,0.491,0.819,1.149c0,0.805-0.519,1.583-1.772,1.583
		c-0.364,0-0.672-0.091-0.91-0.217c-0.547-0.287-0.693-0.854-0.735-1.422h0.637c0.021,0.462,0.134,1.085,1.051,1.085
		c0.631,0,1.072-0.385,1.072-0.952c0-0.827-0.729-0.904-1.149-0.904c-0.091,0-0.188,0.007-0.279,0.007V39.731z"/>
	<path d="M323.201,39.374c0-1.604,1.169-1.765,1.701-1.765c0.854,0,1.541,0.554,1.541,1.471c0,0.882-0.581,1.253-1.316,1.646
		l-0.512,0.28c-0.672,0.371-0.819,0.756-0.848,0.945h2.676v0.582h-3.369c0.035-1.022,0.498-1.569,1.156-1.954l0.651-0.378
		c0.525-0.301,0.903-0.504,0.903-1.149c0-0.392-0.252-0.889-0.974-0.889c-0.932,0-0.974,0.868-0.994,1.211H323.201z"/>
	<path d="M327.191,42.533v-5.029h0.616v1.828h0.014c0.267-0.385,0.631-0.561,1.058-0.567c0.974,0,1.527,0.798,1.527,1.828
		c0,0.875-0.364,2.045-1.611,2.045c-0.623,0-0.882-0.357-1.008-0.56h-0.015v0.455H327.191z M328.767,39.318
		c-0.89,0-0.988,0.959-0.988,1.555c0,0.973,0.609,1.232,1.002,1.232c0.672,0,0.987-0.609,0.987-1.415
		C329.768,40.222,329.719,39.318,328.767,39.318z"/>
	<path d="M331.146,38.205v-0.701h0.616v0.701H331.146z M331.762,42.533h-0.616V38.87h0.616V42.533z"/>
	<path d="M333.442,39.381v2.381c0,0.287,0.245,0.287,0.371,0.287h0.217v0.483c-0.224,0.021-0.399,0.049-0.462,0.049
		c-0.609,0-0.742-0.343-0.742-0.784v-2.417h-0.498V38.87h0.498v-1.022h0.616v1.022h0.588v0.511H333.442z"/>
	<path d="M315.169,45.399c-0.595,1.121-0.952,1.793-0.952,3.474c0,1.155,0.399,2.01,0.959,3.109h-0.413
		c-0.729-1.092-1.204-1.968-1.204-3.278c0-1.232,0.427-2.227,1.184-3.306H315.169z"/>
	<path d="M315.721,47.374c0-1.604,1.169-1.765,1.701-1.765c0.854,0,1.541,0.554,1.541,1.471c0,0.882-0.581,1.253-1.316,1.646
		l-0.512,0.28c-0.672,0.371-0.819,0.756-0.848,0.945h2.676v0.582h-3.369c0.035-1.022,0.498-1.569,1.156-1.954l0.651-0.378
		c0.525-0.301,0.903-0.504,0.903-1.149c0-0.392-0.252-0.889-0.974-0.889c-0.932,0-0.974,0.868-0.994,1.211H315.721z"/>
	<path d="M321.097,50.533h-0.638l-1.058-3.663h0.673l0.7,2.879h0.014l0.708-2.879h0.687l0.714,2.879h0.015l0.742-2.879h0.616
		l-1.064,3.663h-0.638l-0.742-2.836h-0.014L321.097,50.533z"/>
	<path d="M326.236,46.765c1.169,0,1.702,0.988,1.702,1.933s-0.533,1.933-1.702,1.933c-1.17,0-1.702-0.988-1.702-1.933
		S325.066,46.765,326.236,46.765z M326.236,50.099c0.882,0,1.064-0.911,1.064-1.401s-0.183-1.401-1.064-1.401
		c-0.883,0-1.064,0.911-1.064,1.401S325.353,50.099,326.236,50.099z"/>
	<path d="M329.336,50.533h-0.616V46.87h0.581v0.609h0.015c0.245-0.427,0.567-0.714,1.029-0.714c0.077,0,0.112,0.007,0.161,0.021
		v0.637h-0.231c-0.574,0-0.938,0.448-0.938,0.981V50.533z"/>
	<path d="M333.867,50.533h-0.582v-0.504h-0.014c-0.266,0.498-0.687,0.609-1.043,0.609c-1.247,0-1.611-1.169-1.611-2.045
		c0-1.03,0.554-1.828,1.526-1.828c0.666,0,0.946,0.413,1.093,0.624l0.015-0.049v-1.835h0.616V50.533z M332.242,50.105
		c0.393,0,1.001-0.259,1.001-1.232c0-0.596-0.098-1.555-0.987-1.555c-0.952,0-1.001,0.904-1.001,1.373
		C331.255,49.496,331.569,50.105,332.242,50.105z"/>
	<path d="M336.798,47.913c-0.007-0.231-0.091-0.616-0.868-0.616c-0.189,0-0.729,0.063-0.729,0.519c0,0.301,0.189,0.371,0.665,0.49
		l0.616,0.154c0.764,0.189,1.03,0.469,1.03,0.967c0,0.756-0.624,1.211-1.45,1.211c-1.449,0-1.555-0.84-1.575-1.282h0.595
		c0.021,0.287,0.105,0.75,0.974,0.75c0.441,0,0.841-0.175,0.841-0.582c0-0.294-0.203-0.392-0.729-0.525l-0.715-0.175
		c-0.511-0.126-0.848-0.385-0.848-0.89c0-0.805,0.666-1.169,1.387-1.169c1.311,0,1.401,0.966,1.401,1.148H336.798z"/>
	<path d="M338.008,51.982c0.596-1.121,0.952-1.793,0.952-3.474c0-1.156-0.398-2.01-0.959-3.11h0.413
		c0.729,1.093,1.205,1.968,1.205,3.278c0,1.232-0.428,2.227-1.185,3.306H338.008z"/>
</g>
<g>
	<path d="M51.428,39.731c0.105,0.007,0.217,0.014,0.322,0.014c0.476,0,0.938-0.189,0.938-0.805c0-0.294-0.175-0.777-0.911-0.777
		c-0.875,0-0.932,0.714-0.959,1.057h-0.602c0-0.721,0.294-1.611,1.59-1.611c0.952,0,1.52,0.546,1.52,1.296
		c0,0.63-0.364,0.932-0.63,1.016v0.014c0.477,0.154,0.819,0.491,0.819,1.149c0,0.805-0.518,1.583-1.772,1.583
		c-0.364,0-0.672-0.091-0.91-0.217c-0.546-0.287-0.693-0.854-0.735-1.422h0.637c0.021,0.462,0.133,1.085,1.051,1.085
		c0.63,0,1.071-0.385,1.071-0.952c0-0.827-0.729-0.904-1.148-0.904c-0.091,0-0.189,0.007-0.28,0.007V39.731z"/>
	<path d="M54.059,39.374c0-1.604,1.17-1.765,1.702-1.765c0.854,0,1.541,0.554,1.541,1.471c0,0.882-0.581,1.253-1.316,1.646
		l-0.511,0.28c-0.672,0.371-0.82,0.756-0.848,0.945h2.675v0.582h-3.369c0.035-1.022,0.497-1.569,1.156-1.954l0.651-0.378
		c0.525-0.301,0.903-0.504,0.903-1.149c0-0.392-0.252-0.889-0.974-0.889c-0.932,0-0.974,0.868-0.995,1.211H54.059z"/>
	<path d="M58.049,42.533v-5.029h0.616v1.828h0.014c0.266-0.385,0.63-0.561,1.058-0.567c0.974,0,1.527,0.798,1.527,1.828
		c0,0.875-0.364,2.045-1.611,2.045c-0.624,0-0.883-0.357-1.009-0.56h-0.014v0.455H58.049z M59.625,39.318
		c-0.889,0-0.987,0.959-0.987,1.555c0,0.973,0.609,1.232,1.001,1.232c0.672,0,0.987-0.609,0.987-1.415
		C60.627,40.222,60.578,39.318,59.625,39.318z"/>
	<path d="M62.004,38.205v-0.701h0.616v0.701H62.004z M62.62,42.533h-0.616V38.87h0.616V42.533z"/>
	<path d="M64.3,39.381v2.381c0,0.287,0.245,0.287,0.372,0.287h0.217v0.483c-0.224,0.021-0.399,0.049-0.462,0.049
		c-0.609,0-0.743-0.343-0.743-0.784v-2.417h-0.497V38.87h0.497v-1.022H64.3v1.022h0.588v0.511H64.3z"/>
	<path d="M46.027,45.399c-0.595,1.121-0.952,1.793-0.952,3.474c0,1.155,0.399,2.01,0.959,3.109h-0.413
		c-0.729-1.092-1.205-1.968-1.205-3.278c0-1.232,0.427-2.227,1.184-3.306H46.027z"/>
	<path d="M46.58,47.374c0-1.604,1.17-1.765,1.702-1.765c0.854,0,1.541,0.554,1.541,1.471c0,0.882-0.581,1.253-1.316,1.646
		l-0.511,0.28c-0.672,0.371-0.82,0.756-0.848,0.945h2.675v0.582h-3.369c0.035-1.022,0.497-1.569,1.156-1.954l0.651-0.378
		c0.525-0.301,0.903-0.504,0.903-1.149c0-0.392-0.252-0.889-0.974-0.889c-0.932,0-0.974,0.868-0.995,1.211H46.58z"/>
	<path d="M51.957,50.533h-0.637l-1.058-3.663h0.672l0.7,2.879h0.014l0.708-2.879h0.686l0.714,2.879h0.014l0.742-2.879h0.617
		l-1.065,3.663h-0.637l-0.742-2.836h-0.014L51.957,50.533z"/>
	<path d="M57.095,46.765c1.169,0,1.702,0.988,1.702,1.933s-0.532,1.933-1.702,1.933c-1.17,0-1.702-0.988-1.702-1.933
		S55.925,46.765,57.095,46.765z M57.095,50.099c0.882,0,1.064-0.911,1.064-1.401s-0.182-1.401-1.064-1.401
		c-0.883,0-1.065,0.911-1.065,1.401S56.212,50.099,57.095,50.099z"/>
	<path d="M60.195,50.533h-0.617V46.87h0.582v0.609h0.014c0.245-0.427,0.567-0.714,1.029-0.714c0.077,0,0.112,0.007,0.161,0.021
		v0.637h-0.231c-0.574,0-0.938,0.448-0.938,0.981V50.533z"/>
	<path d="M64.726,50.533h-0.582v-0.504H64.13c-0.266,0.498-0.686,0.609-1.043,0.609c-1.247,0-1.611-1.169-1.611-2.045
		c0-1.03,0.553-1.828,1.527-1.828c0.666,0,0.945,0.413,1.093,0.624l0.014-0.049v-1.835h0.617V50.533z M63.101,50.105
		c0.392,0,1.001-0.259,1.001-1.232c0-0.596-0.098-1.555-0.988-1.555c-0.952,0-1.001,0.904-1.001,1.373
		C62.113,49.496,62.428,50.105,63.101,50.105z"/>
	<path d="M67.658,47.913c-0.007-0.231-0.091-0.616-0.868-0.616c-0.189,0-0.729,0.063-0.729,0.519c0,0.301,0.189,0.371,0.666,0.49
		l0.616,0.154c0.763,0.189,1.03,0.469,1.03,0.967c0,0.756-0.624,1.211-1.45,1.211c-1.45,0-1.555-0.84-1.576-1.282h0.595
		c0.021,0.287,0.105,0.75,0.974,0.75c0.441,0,0.84-0.175,0.84-0.582c0-0.294-0.203-0.392-0.728-0.525l-0.715-0.175
		c-0.511-0.126-0.847-0.385-0.847-0.89c0-0.805,0.666-1.169,1.387-1.169c1.31,0,1.401,0.966,1.401,1.148H67.658z"/>
	<path d="M68.868,51.982c0.595-1.121,0.953-1.793,0.953-3.474c0-1.156-0.399-2.01-0.959-3.11h0.413
		c0.729,1.093,1.205,1.968,1.205,3.278c0,1.232-0.427,2.227-1.184,3.306H68.868z"/>
</g>
<g>
	<rect x="135.016" y="10.733" class="st1" width="115.158" height="22.146"/>
	<line class="st1" x1="192.595" y1="32.879" x2="192.595" y2="10.733"/>
	<line class="st0" x1="178.2" y1="32.879" x2="178.2" y2="10.733"/>
	<line class="st0" x1="163.806" y1="32.879" x2="163.806" y2="10.733"/>
	<line class="st0" x1="149.412" y1="32.879" x2="149.412" y2="10.733"/>
	<line class="st0" x1="206.989" y1="32.879" x2="206.989" y2="10.733"/>
	<line class="st0" x1="221.383" y1="32.879" x2="221.383" y2="10.733"/>
	<line class="st0" x1="235.778" y1="32.879" x2="235.778" y2="10.733"/>
	<rect x="144.109" y="15.53" class="st2" width="97.441" height="12.5"/>
	<g>
		<path d="M182.708,21.076c0.27-0.207,0.657-0.396,1.225-0.396c1.026,0,2.08,0.72,2.08,2.025c0,0.702-0.315,2.224-2.296,2.224
			c-0.828,0-1.891-0.333-2.043-1.747h0.819c0.081,0.738,0.63,1.062,1.341,1.062c0.819,0,1.333-0.657,1.333-1.449
			c0-0.91-0.621-1.405-1.404-1.405c-0.459,0-0.874,0.216-1.17,0.604l-0.685-0.036l0.478-3.394h3.277v0.774h-2.683L182.708,21.076z"
			/>
		<path d="M188.108,24.758h-0.937v-0.954h0.937V24.758z"/>
		<path d="M192.644,20.112c-0.099-0.558-0.405-0.972-1.089-0.972c-1.243,0-1.504,1.674-1.504,2.341l0.018,0.018
			c0.198-0.342,0.639-0.774,1.503-0.774c0.774,0,1.981,0.495,1.981,2.008c0,0.648-0.171,1.116-0.604,1.584
			c-0.333,0.369-0.711,0.612-1.603,0.612c-0.486,0-1.179-0.216-1.629-0.918c-0.378-0.594-0.486-1.369-0.486-2.197
			c0-1.386,0.45-3.385,2.34-3.385c0.729,0,1.765,0.396,1.846,1.684H192.644z M191.492,24.218c0.756,0,1.243-0.594,1.243-1.45
			c0-0.558-0.297-1.332-1.278-1.332c-0.874,0-1.296,0.63-1.296,1.377C190.16,23.488,190.565,24.218,191.492,24.218z"/>
		<path d="M194.227,18.564h4.375v0.693c-0.63,0.657-2.143,2.674-2.602,5.5h-0.873c0.216-1.737,1.368-4.006,2.584-5.419h-3.484
			V18.564z"/>
		<path d="M202.518,21.391c0.855,0.36,1.035,1.062,1.035,1.54c0,1.018-0.648,1.999-2.143,1.999c-0.351,0-1.017-0.09-1.521-0.486
			c-0.648-0.513-0.648-1.198-0.648-1.503c0-0.774,0.405-1.27,1.071-1.54c-0.541-0.207-0.855-0.639-0.855-1.233
			c0-0.657,0.405-1.738,1.917-1.738c1.405,0,1.954,0.892,1.954,1.63C203.328,20.968,202.797,21.247,202.518,21.391z M200.087,22.957
			c0,0.504,0.252,1.261,1.35,1.261c0.576,0,1.27-0.207,1.27-1.197c0-0.855-0.594-1.233-1.314-1.233
			C200.501,21.787,200.087,22.372,200.087,22.957z M202.508,20.085c0-0.387-0.252-0.945-1.179-0.945
			c-0.846,0-1.053,0.585-1.053,0.99c0,0.603,0.531,0.972,1.107,0.972C202.068,21.103,202.508,20.662,202.508,20.085z"/>
	</g>
</g>
<line class="st0" x1="269.516" y1="33.894" x2="269.516" y2="42.919"/>
<line class="st0" x1="384.61" y1="33.894" x2="384.61" y2="42.919"/>
<polygon points="275.72,38.155 269.449,39.512 275.72,40.861 275.72,40.133 301.538,40.133 301.538,38.885 275.72,38.885 "/>
<polygon points="378.099,40.862 384.37,39.505 378.099,38.156 378.099,38.884 352.281,38.884 352.281,40.132 378.099,40.132 "/>
<g>
	<g>
		<path d="M350.423,0.899h2.327c1.495,0,2.414,1.135,2.414,2.791c0,1.287-0.56,2.95-2.446,2.95h-2.295V0.899z M351.199,5.977h1.504
			c1.007,0,1.663-0.792,1.663-2.239s-0.664-2.175-1.72-2.175h-1.447V5.977z"/>
		<path d="M358.447,3.65c-0.008-0.264-0.104-0.704-0.991-0.704c-0.216,0-0.832,0.072-0.832,0.591c0,0.344,0.216,0.424,0.76,0.56
			l0.703,0.176c0.872,0.216,1.176,0.536,1.176,1.104c0,0.863-0.712,1.383-1.655,1.383c-1.655,0-1.774-0.959-1.799-1.463h0.68
			c0.023,0.328,0.12,0.855,1.111,0.855c0.504,0,0.959-0.2,0.959-0.664c0-0.336-0.231-0.448-0.831-0.6l-0.815-0.2
			c-0.584-0.144-0.968-0.439-0.968-1.015c0-0.919,0.76-1.335,1.583-1.335c1.495,0,1.6,1.104,1.6,1.312H358.447z"/>
		<path d="M360.935,3.042v2.719c0,0.328,0.28,0.328,0.424,0.328h0.248V6.64c-0.256,0.024-0.455,0.056-0.527,0.056
			c-0.695,0-0.848-0.392-0.848-0.896V3.042h-0.567V2.458h0.567V1.291h0.703v1.167h0.672v0.583H360.935z"/>
	</g>
</g>
<g>
	<g>
		<path d="M285.148,0.899h2.327c1.495,0,2.414,1.135,2.414,2.791c0,1.287-0.56,2.95-2.446,2.95h-2.295V0.899z M285.923,5.977h1.504
			c1.007,0,1.663-0.792,1.663-2.239s-0.664-2.175-1.72-2.175h-1.447V5.977z"/>
		<path d="M293.172,3.65c-0.008-0.264-0.104-0.704-0.991-0.704c-0.216,0-0.832,0.072-0.832,0.591c0,0.344,0.216,0.424,0.76,0.56
			l0.703,0.176c0.872,0.216,1.176,0.536,1.176,1.104c0,0.863-0.712,1.383-1.655,1.383c-1.655,0-1.774-0.959-1.799-1.463h0.68
			c0.023,0.328,0.12,0.855,1.111,0.855c0.504,0,0.959-0.2,0.959-0.664c0-0.336-0.231-0.448-0.831-0.6l-0.815-0.2
			c-0.584-0.144-0.968-0.439-0.968-1.015c0-0.919,0.76-1.335,1.583-1.335c1.495,0,1.6,1.104,1.6,1.312H293.172z"/>
		<path d="M295.66,3.042v2.719c0,0.328,0.28,0.328,0.424,0.328h0.248V6.64c-0.256,0.024-0.455,0.056-0.527,0.056
			c-0.695,0-0.848-0.392-0.848-0.896V3.042h-0.567V2.458h0.567V1.291h0.703v1.167h0.672v0.583H295.66z"/>
	</g>
	<g>
		<path d="M305.171,2.603h0.584V4.33h1.727v0.583h-1.727V6.64h-0.584V4.913h-1.735V4.33h1.735V2.603z"/>
		<path d="M310.666,6.64h-0.751V2.65h-1.312v-0.56c0.911-0.064,1.287-0.152,1.511-1.072h0.552V6.64z"/>
	</g>
</g>
<g>
	<rect x="269.516" y="10.733" class="st1" width="115.158" height="22.146"/>
	<line class="st1" x1="327.093" y1="32.879" x2="327.093" y2="10.733"/>
	<line class="st0" x1="312.7" y1="32.879" x2="312.7" y2="10.733"/>
	<line class="st0" x1="298.306" y1="32.879" x2="298.306" y2="10.733"/>
	<line class="st0" x1="283.911" y1="32.879" x2="283.911" y2="10.733"/>
	<line class="st0" x1="341.488" y1="32.879" x2="341.488" y2="10.733"/>
	<line class="st0" x1="355.884" y1="32.879" x2="355.884" y2="10.733"/>
	<line class="st0" x1="370.277" y1="32.879" x2="370.277" y2="10.733"/>
	<rect x="278.608" y="15.53" class="st2" width="97.441" height="12.5"/>
	<g>
		<path d="M312.269,20.869v0.684h-6.067v-0.684H312.269z"/>
		<path d="M312.987,18.564h4.375v0.693c-0.63,0.657-2.143,2.674-2.602,5.5h-0.873c0.216-1.737,1.368-4.006,2.584-5.419h-3.484
			V18.564z"/>
		<path d="M317.668,24.758h-0.937v-0.954h0.937V24.758z"/>
		<path d="M320.953,24.929c-1.818,0-2.17-1.936-2.17-3.25s0.352-3.25,2.17-3.25s2.17,1.936,2.17,3.25S322.771,24.929,320.953,24.929
			z M320.953,19.14c-0.909,0-1.323,0.954-1.323,2.539s0.414,2.539,1.323,2.539s1.323-0.955,1.323-2.539S321.862,19.14,320.953,19.14
			z"/>
		<path d="M325.958,24.929c-1.818,0-2.17-1.936-2.17-3.25s0.352-3.25,2.17-3.25s2.17,1.936,2.17,3.25S327.776,24.929,325.958,24.929
			z M325.958,19.14c-0.909,0-1.323,0.954-1.323,2.539s0.414,2.539,1.323,2.539s1.323-0.955,1.323-2.539S326.867,19.14,325.958,19.14
			z"/>
		<path d="M332.213,20.112c-0.099-0.558-0.405-0.972-1.089-0.972c-1.242,0-1.504,1.674-1.504,2.341l0.019,0.018
			c0.197-0.342,0.639-0.774,1.503-0.774c0.774,0,1.98,0.495,1.98,2.008c0,0.648-0.171,1.116-0.603,1.584
			c-0.333,0.369-0.712,0.612-1.603,0.612c-0.486,0-1.18-0.216-1.63-0.918c-0.378-0.594-0.486-1.369-0.486-2.197
			c0-1.386,0.45-3.385,2.341-3.385c0.729,0,1.765,0.396,1.846,1.684H332.213z M331.06,24.218c0.757,0,1.242-0.594,1.242-1.45
			c0-0.558-0.297-1.332-1.278-1.332c-0.873,0-1.296,0.63-1.296,1.377C329.728,23.488,330.133,24.218,331.06,24.218z"/>
		<path d="M337.216,20.112c-0.099-0.558-0.405-0.972-1.089-0.972c-1.242,0-1.504,1.674-1.504,2.341l0.019,0.018
			c0.197-0.342,0.639-0.774,1.503-0.774c0.774,0,1.98,0.495,1.98,2.008c0,0.648-0.171,1.116-0.603,1.584
			c-0.333,0.369-0.712,0.612-1.603,0.612c-0.486,0-1.18-0.216-1.63-0.918c-0.378-0.594-0.486-1.369-0.486-2.197
			c0-1.386,0.45-3.385,2.341-3.385c0.729,0,1.765,0.396,1.846,1.684H337.216z M336.064,24.218c0.757,0,1.242-0.594,1.242-1.45
			c0-0.558-0.297-1.332-1.278-1.332c-0.873,0-1.296,0.63-1.296,1.377C334.732,23.488,335.137,24.218,336.064,24.218z"/>
		<path d="M339.79,21.076c0.271-0.207,0.657-0.396,1.225-0.396c1.026,0,2.079,0.72,2.079,2.025c0,0.702-0.314,2.224-2.295,2.224
			c-0.828,0-1.891-0.333-2.044-1.747h0.819c0.081,0.738,0.63,1.062,1.342,1.062c0.818,0,1.332-0.657,1.332-1.449
			c0-0.91-0.621-1.405-1.404-1.405c-0.459,0-0.873,0.216-1.171,0.604l-0.684-0.036l0.477-3.394h3.277v0.774h-2.683L339.79,21.076z"
			/>
		<path d="M343.867,20.698c0-2.062,1.503-2.269,2.188-2.269c1.098,0,1.98,0.711,1.98,1.891c0,1.134-0.747,1.612-1.692,2.116
			l-0.657,0.36c-0.864,0.477-1.054,0.972-1.09,1.215h3.439v0.747h-4.33c0.045-1.314,0.639-2.017,1.485-2.512l0.837-0.486
			c0.676-0.387,1.161-0.648,1.161-1.476c0-0.504-0.324-1.144-1.251-1.144c-1.197,0-1.251,1.116-1.278,1.558H343.867z"/>
	</g>
</g>
<line class="st0" x1="0.25" y1="33.894" x2="0.25" y2="42.919"/>
<line class="st0" x1="115.345" y1="33.894" x2="115.345" y2="42.919"/>
<polygon points="6.454,38.155 0.183,39.512 6.454,40.861 6.454,40.133 32.272,40.133 32.272,38.885 6.454,38.885 "/>
<polygon points="108.834,40.862 115.105,39.505 108.834,38.156 108.834,38.884 83.016,38.884 83.016,40.132 108.834,40.132 "/>
<g>
	<g>
		<path d="M82.433,2.579c-0.04-0.888-0.775-1.167-1.423-1.167c-0.488,0-1.311,0.136-1.311,1.007c0,0.488,0.344,0.647,0.68,0.728
			l1.639,0.376c0.744,0.176,1.304,0.624,1.304,1.535c0,1.359-1.264,1.735-2.247,1.735c-1.063,0-1.479-0.32-1.735-0.552
			c-0.488-0.439-0.584-0.919-0.584-1.455h0.728c0,1.04,0.847,1.343,1.583,1.343c0.56,0,1.503-0.144,1.503-0.967
			c0-0.6-0.28-0.792-1.223-1.016l-1.175-0.272c-0.376-0.088-1.224-0.352-1.224-1.351c0-0.896,0.584-1.775,1.975-1.775
			c2.007,0,2.207,1.199,2.239,1.831H82.433z"/>
		<path d="M85.019,6.64h-0.704V2.458h0.664v0.695h0.016c0.28-0.487,0.647-0.815,1.175-0.815c0.088,0,0.128,0.008,0.184,0.024V3.09
			H86.09c-0.656,0-1.071,0.512-1.071,1.119V6.64z"/>
		<path d="M89.338,3.866c-0.088-0.56-0.4-0.896-0.991-0.896c-0.872,0-1.151,0.832-1.151,1.575c0,0.72,0.176,1.607,1.143,1.607
			c0.472,0,0.879-0.352,1-0.991h0.68c-0.072,0.664-0.48,1.599-1.703,1.599c-1.175,0-1.871-0.888-1.871-2.095
			c0-1.295,0.624-2.327,2.007-2.327c1.096,0,1.511,0.8,1.567,1.527H89.338z"/>
		<path d="M93.074,6.64h-0.752V2.65h-1.311v-0.56c0.912-0.064,1.287-0.152,1.511-1.072h0.552V6.64z"/>
	</g>
</g>
<g>
	<g>
		<path d="M17.159,2.579c-0.04-0.888-0.775-1.167-1.423-1.167c-0.488,0-1.311,0.136-1.311,1.007c0,0.488,0.344,0.647,0.68,0.728
			l1.639,0.376c0.744,0.176,1.304,0.624,1.304,1.535c0,1.359-1.264,1.735-2.247,1.735c-1.063,0-1.479-0.32-1.735-0.552
			c-0.488-0.439-0.584-0.919-0.584-1.455h0.728c0,1.04,0.847,1.343,1.583,1.343c0.56,0,1.503-0.144,1.503-0.967
			c0-0.6-0.28-0.792-1.223-1.016l-1.175-0.272c-0.376-0.088-1.224-0.352-1.224-1.351c0-0.896,0.584-1.775,1.975-1.775
			c2.007,0,2.207,1.199,2.239,1.831H17.159z"/>
		<path d="M19.744,6.64h-0.704V2.458h0.664v0.695h0.016c0.28-0.487,0.647-0.815,1.175-0.815c0.088,0,0.128,0.008,0.184,0.024V3.09
			h-0.264c-0.656,0-1.071,0.512-1.071,1.119V6.64z"/>
		<path d="M24.063,3.866c-0.088-0.56-0.4-0.896-0.991-0.896c-0.872,0-1.151,0.832-1.151,1.575c0,0.72,0.176,1.607,1.143,1.607
			c0.472,0,0.879-0.352,1-0.991h0.68c-0.072,0.664-0.48,1.599-1.703,1.599c-1.175,0-1.871-0.888-1.871-2.095
			c0-1.295,0.624-2.327,2.007-2.327c1.096,0,1.511,0.8,1.567,1.527H24.063z"/>
		<path d="M27.799,6.64h-0.752V2.65h-1.311v-0.56c0.912-0.064,1.287-0.152,1.511-1.072h0.552V6.64z"/>
	</g>
	<g>
		<path d="M35.902,2.603h0.583V4.33h1.727v0.583h-1.727V6.64h-0.583V4.913h-1.735V4.33h1.735V2.603z"/>
		<path d="M41.398,6.64h-0.752V2.65h-1.311v-0.56c0.912-0.064,1.287-0.152,1.511-1.072h0.552V6.64z"/>
	</g>
</g>
<g>
	<rect x="0.25" y="10.733" class="st1" width="115.158" height="22.146"/>
	<line class="st1" x1="57.829" y1="32.879" x2="57.829" y2="10.733"/>
	<line class="st0" x1="43.435" y1="32.879" x2="43.435" y2="10.733"/>
	<line class="st0" x1="29.04" y1="32.879" x2="29.04" y2="10.733"/>
	<line class="st0" x1="14.646" y1="32.879" x2="14.646" y2="10.733"/>
	<line class="st0" x1="72.223" y1="32.879" x2="72.223" y2="10.733"/>
	<line class="st0" x1="86.618" y1="32.879" x2="86.618" y2="10.733"/>
	<line class="st0" x1="101.012" y1="32.879" x2="101.012" y2="10.733"/>
	<rect x="9.343" y="15.53" class="st2" width="97.441" height="12.5"/>
	<g>
		<path d="M50.329,20.869v0.684h-6.068v-0.684H50.329z"/>
		<path d="M53.945,24.758h-0.846v-4.492h-1.477v-0.63c1.026-0.072,1.45-0.171,1.702-1.207h0.621V24.758z"/>
		<path d="M56.088,24.758h-0.937v-0.954h0.937V24.758z"/>
		<path d="M57.266,20.698c0-2.062,1.503-2.269,2.188-2.269c1.098,0,1.98,0.711,1.98,1.891c0,1.134-0.747,1.612-1.692,2.116
			l-0.657,0.36c-0.864,0.477-1.054,0.972-1.089,1.215h3.439v0.747h-4.331c0.045-1.314,0.639-2.017,1.486-2.512l0.837-0.486
			c0.675-0.387,1.162-0.648,1.162-1.476c0-0.504-0.324-1.144-1.251-1.144c-1.197,0-1.251,1.116-1.278,1.558H57.266z"/>
		<path d="M63.89,21.157c0.135,0.009,0.279,0.018,0.414,0.018c0.612,0,1.207-0.243,1.207-1.035c0-0.378-0.225-1-1.17-1
			c-1.125,0-1.197,0.918-1.233,1.359h-0.774c0-0.927,0.378-2.071,2.044-2.071c1.224,0,1.954,0.703,1.954,1.666
			c0,0.811-0.468,1.198-0.811,1.306v0.018c0.612,0.198,1.053,0.63,1.053,1.476c0,1.036-0.666,2.035-2.277,2.035
			c-0.468,0-0.864-0.117-1.17-0.279c-0.702-0.369-0.891-1.099-0.945-1.828h0.819c0.027,0.594,0.171,1.396,1.35,1.396
			c0.811,0,1.377-0.495,1.377-1.225c0-1.062-0.936-1.161-1.476-1.161c-0.117,0-0.243,0.009-0.36,0.009V21.157z"/>
		<path d="M70.659,23.218v1.54h-0.792v-1.54h-2.764v-0.774l2.899-4.016h0.657v4.105h0.927v0.684H70.659z M67.832,22.534h2.035
			v-2.872h-0.018L67.832,22.534z"/>
	</g>
</g>
<g>
	<path d="M120.35,19.354l1.481-1.481l3.245,3.244l3.244-3.244l1.481,1.481l-3.244,3.244l3.263,3.245l-1.5,1.481l-3.244-3.245
		l-3.226,3.245l-1.5-1.481l3.245-3.245L120.35,19.354z"/>
</g>
</svg>
