<?xml version="1.0" encoding="utf-8"?>
<!-- Generator: Adobe Illustrator 28.2.0, SVG Export Plug-In . SVG Version: 6.00 Build 0)  -->
<svg version="1.1" id="儗僀儎乕_1" xmlns="http://www.w3.org/2000/svg" xmlns:xlink="http://www.w3.org/1999/xlink" x="0px"
	 y="0px" width="485.531px" height="136.056px" viewBox="0 0 485.531 136.056" style="enable-background:new 0 0 485.531 136.056;"
	 xml:space="preserve">
<style type="text/css">
	.st0{fill:#FFFFFF;stroke:#000000;}
	.st1{fill:none;stroke:#000000;}
	.st2{stroke:#000000;}
	.st3{stroke:#000000;stroke-width:0.5;}
</style>
<rect x="194.583" y="11.292" class="st0" width="278.968" height="34.603"/>
<line class="st0" x1="404.358" y1="45.895" x2="404.358" y2="11.292"/>
<g>
	<path d="M33.152,10.548h4.662v0.688H35.87v5.053h-0.776v-5.053h-1.943V10.548z"/>
	<path d="M38.287,16.288h-0.704v-4.182h0.664v0.696h0.016c0.28-0.488,0.647-0.816,1.175-0.816c0.088,0,0.128,0.008,0.184,0.024
		v0.728h-0.264c-0.656,0-1.071,0.512-1.071,1.12V16.288z"/>
	<path d="M40.287,11.347v-0.799h0.704v0.799H40.287z M40.991,16.288h-0.704v-4.182h0.704V16.288z"/>
	<path d="M45.517,15.944c0,0.6-0.008,2.103-1.943,2.103c-0.496,0-1.463-0.136-1.599-1.248h0.704
		c0.128,0.664,0.775,0.664,0.943,0.664c1.215,0,1.191-0.976,1.191-1.471v-0.176h-0.016v0.032c-0.184,0.296-0.551,0.56-1.111,0.56
		c-1.423,0-1.839-1.335-1.839-2.335c0-1.175,0.632-2.087,1.743-2.087c0.759,0,1.079,0.472,1.247,0.712h0.016v-0.592h0.664V15.944z
		 M43.703,15.8c0.448,0,1.144-0.296,1.144-1.407c0-0.68-0.112-1.775-1.127-1.775c-1.087,0-1.144,1.031-1.144,1.567
		C42.575,15.105,42.935,15.8,43.703,15.8z"/>
	<path d="M49.966,15.944c0,0.6-0.008,2.103-1.943,2.103c-0.496,0-1.463-0.136-1.599-1.248h0.704
		c0.128,0.664,0.775,0.664,0.943,0.664c1.215,0,1.191-0.976,1.191-1.471v-0.176h-0.016v0.032c-0.184,0.296-0.551,0.56-1.111,0.56
		c-1.423,0-1.839-1.335-1.839-2.335c0-1.175,0.632-2.087,1.743-2.087c0.759,0,1.079,0.472,1.247,0.712h0.016v-0.592h0.664V15.944z
		 M48.151,15.8c0.448,0,1.144-0.296,1.144-1.407c0-0.68-0.112-1.775-1.127-1.775c-1.087,0-1.144,1.031-1.144,1.567
		C47.023,15.105,47.383,15.8,48.151,15.8z"/>
	<path d="M54.494,14.977c-0.024,0.2-0.216,0.792-0.744,1.143c-0.192,0.128-0.464,0.288-1.135,0.288
		c-1.175,0-1.871-0.888-1.871-2.095c0-1.295,0.624-2.327,2.007-2.327c1.208,0,1.799,0.959,1.799,2.439h-3.054
		c0,0.871,0.408,1.375,1.215,1.375c0.664,0,1.056-0.512,1.08-0.823H54.494z M53.822,13.865c-0.04-0.647-0.312-1.247-1.167-1.247
		c-0.648,0-1.16,0.6-1.16,1.247H53.822z"/>
	<path d="M56.191,16.288h-0.704v-4.182h0.664v0.696h0.016c0.28-0.488,0.647-0.816,1.175-0.816c0.088,0,0.128,0.008,0.184,0.024
		v0.728h-0.264c-0.656,0-1.071,0.512-1.071,1.12V16.288z"/>
</g>
<g>
	<path d="M33.152,88.289h4.662v0.688H35.87v5.053h-0.776v-5.053h-1.943V88.289z"/>
	<path d="M38.287,94.029h-0.704v-4.182h0.664v0.696h0.016c0.28-0.488,0.647-0.816,1.175-0.816c0.088,0,0.128,0.008,0.184,0.024
		v0.728h-0.264c-0.656,0-1.071,0.512-1.071,1.12V94.029z"/>
	<path d="M40.287,89.088v-0.799h0.704v0.799H40.287z M40.991,94.029h-0.704v-4.182h0.704V94.029z"/>
	<path d="M45.517,93.686c0,0.6-0.008,2.103-1.943,2.103c-0.496,0-1.463-0.136-1.599-1.248h0.704
		c0.128,0.664,0.775,0.664,0.943,0.664c1.215,0,1.191-0.976,1.191-1.471v-0.176h-0.016v0.032c-0.184,0.296-0.551,0.56-1.111,0.56
		c-1.423,0-1.839-1.335-1.839-2.335c0-1.175,0.632-2.087,1.743-2.087c0.759,0,1.079,0.472,1.247,0.712h0.016v-0.592h0.664V93.686z
		 M43.703,93.542c0.448,0,1.144-0.296,1.144-1.407c0-0.68-0.112-1.775-1.127-1.775c-1.087,0-1.144,1.031-1.144,1.567
		C42.575,92.846,42.935,93.542,43.703,93.542z"/>
	<path d="M49.966,93.686c0,0.6-0.008,2.103-1.943,2.103c-0.496,0-1.463-0.136-1.599-1.248h0.704
		c0.128,0.664,0.775,0.664,0.943,0.664c1.215,0,1.191-0.976,1.191-1.471v-0.176h-0.016v0.032c-0.184,0.296-0.551,0.56-1.111,0.56
		c-1.423,0-1.839-1.335-1.839-2.335c0-1.175,0.632-2.087,1.743-2.087c0.759,0,1.079,0.472,1.247,0.712h0.016v-0.592h0.664V93.686z
		 M48.151,93.542c0.448,0,1.144-0.296,1.144-1.407c0-0.68-0.112-1.775-1.127-1.775c-1.087,0-1.144,1.031-1.144,1.567
		C47.023,92.846,47.383,93.542,48.151,93.542z"/>
	<path d="M54.494,92.718c-0.024,0.2-0.216,0.792-0.744,1.143c-0.192,0.128-0.464,0.288-1.135,0.288
		c-1.175,0-1.871-0.888-1.871-2.095c0-1.295,0.624-2.327,2.007-2.327c1.208,0,1.799,0.959,1.799,2.439h-3.054
		c0,0.871,0.408,1.375,1.215,1.375c0.664,0,1.056-0.512,1.08-0.823H54.494z M53.822,91.607c-0.04-0.647-0.312-1.247-1.167-1.247
		c-0.648,0-1.16,0.6-1.16,1.247H53.822z"/>
	<path d="M56.191,94.029h-0.704v-4.182h0.664v0.696h0.016c0.28-0.488,0.647-0.816,1.175-0.816c0.088,0,0.128,0.008,0.184,0.024
		v0.728h-0.264c-0.656,0-1.071,0.512-1.071,1.12V94.029z"/>
</g>
<line class="st1" x1="53.461" y1="29.337" x2="86.763" y2="29.337"/>
<line class="st1" x1="473.501" y1="29.337" x2="485.031" y2="29.337"/>
<line class="st1" x1="86.828" y1="29.337" x2="178.593" y2="29.337"/>
<line class="st1" x1="0.5" y1="29.337" x2="34.68" y2="29.337"/>
<line class="st1" x1="0.5" y1="0" x2="0.5" y2="136.056"/>
<line class="st1" x1="485.031" y1="0" x2="485.031" y2="136.056"/>
<line class="st0" x1="53.461" y1="39.259" x2="53.461" y2="21.957"/>
<line class="st0" x1="35.163" y1="21.957" x2="35.163" y2="39.259"/>
<g>
	<g>
		<path d="M434.87,25.883h2.327c1.495,0,2.414,1.135,2.414,2.791c0,1.287-0.56,2.95-2.446,2.95h-2.295V25.883z M435.645,30.961
			h1.504c1.007,0,1.663-0.792,1.663-2.239s-0.664-2.175-1.72-2.175h-1.447V30.961z"/>
		<path d="M442.892,28.634c-0.008-0.264-0.104-0.704-0.991-0.704c-0.216,0-0.832,0.072-0.832,0.592c0,0.344,0.216,0.423,0.76,0.56
			l0.703,0.176c0.872,0.216,1.176,0.536,1.176,1.104c0,0.863-0.712,1.383-1.655,1.383c-1.655,0-1.774-0.959-1.799-1.463h0.68
			c0.023,0.328,0.12,0.855,1.111,0.855c0.504,0,0.959-0.2,0.959-0.664c0-0.336-0.231-0.448-0.831-0.6l-0.815-0.2
			c-0.584-0.144-0.968-0.44-0.968-1.016c0-0.919,0.76-1.335,1.583-1.335c1.495,0,1.6,1.104,1.6,1.312H442.892z"/>
		<path d="M445.38,28.026v2.719c0,0.328,0.28,0.328,0.424,0.328h0.248v0.552c-0.256,0.024-0.455,0.056-0.527,0.056
			c-0.695,0-0.848-0.392-0.848-0.896v-2.759h-0.567v-0.583h0.567v-1.167h0.703v1.167h0.672v0.583H445.38z"/>
	</g>
</g>
<line class="st1" x1="53.461" y1="107.08" x2="86.763" y2="107.08"/>
<line class="st1" x1="474.426" y1="107.08" x2="485.031" y2="107.08"/>
<line class="st1" x1="178.593" y1="29.337" x2="194.228" y2="29.337"/>
<line class="st1" x1="178.593" y1="107.08" x2="194.942" y2="107.08"/>
<line class="st1" x1="86.743" y1="107.08" x2="178.59" y2="107.08"/>
<line class="st1" x1="0.5" y1="107.08" x2="34.68" y2="107.08"/>
<line class="st0" x1="53.461" y1="117.001" x2="53.461" y2="99.699"/>
<line class="st0" x1="35.163" y1="99.699" x2="35.163" y2="117.001"/>
<g>
	<g>
		<path d="M366.801,27.562c-0.04-0.887-0.775-1.167-1.423-1.167c-0.487,0-1.312,0.136-1.312,1.007c0,0.488,0.344,0.647,0.68,0.728
			l1.64,0.376c0.743,0.176,1.303,0.624,1.303,1.535c0,1.359-1.263,1.735-2.246,1.735c-1.063,0-1.479-0.32-1.735-0.552
			c-0.488-0.439-0.584-0.919-0.584-1.455h0.728c0,1.04,0.848,1.343,1.583,1.343c0.56,0,1.504-0.144,1.504-0.967
			c0-0.6-0.28-0.792-1.224-1.016l-1.176-0.272c-0.375-0.088-1.223-0.352-1.223-1.351c0-0.896,0.583-1.775,1.975-1.775
			c2.007,0,2.207,1.199,2.238,1.831H366.801z"/>
		<path d="M369.387,31.624h-0.704v-4.182h0.664v0.696h0.016c0.28-0.488,0.648-0.816,1.176-0.816c0.088,0,0.128,0.008,0.184,0.024
			v0.728h-0.264c-0.655,0-1.071,0.512-1.071,1.12V31.624z"/>
		<path d="M373.706,28.85c-0.089-0.56-0.4-0.896-0.992-0.896c-0.871,0-1.151,0.832-1.151,1.575c0,0.719,0.176,1.607,1.144,1.607
			c0.472,0,0.88-0.352,1-0.991h0.679c-0.071,0.664-0.479,1.599-1.702,1.599c-1.176,0-1.871-0.888-1.871-2.095
			c0-1.295,0.623-2.327,2.007-2.327c1.095,0,1.511,0.8,1.566,1.527H373.706z"/>
		<path d="M374.923,28.018c0-1.831,1.336-2.015,1.943-2.015c0.976,0,1.759,0.632,1.759,1.679c0,1.007-0.663,1.431-1.503,1.879
			l-0.584,0.32c-0.768,0.424-0.936,0.864-0.968,1.08h3.055v0.664h-3.846c0.04-1.167,0.567-1.791,1.319-2.231l0.743-0.432
			c0.6-0.344,1.031-0.576,1.031-1.311c0-0.448-0.287-1.016-1.111-1.016c-1.063,0-1.111,0.992-1.135,1.383H374.923z"/>
	</g>
</g>
<polyline class="st0" points="194.583,88.414 473.551,88.414 473.551,123.017 194.583,123.017 "/>
<line class="st0" x1="404.358" y1="123.017" x2="404.358" y2="88.414"/>
<line class="st0" x1="334.076" y1="45.895" x2="334.076" y2="11.292"/>
<line class="st0" x1="334.076" y1="123.017" x2="334.076" y2="88.414"/>
<g>
	<g>
		<path d="M434.87,104.314h2.327c1.495,0,2.414,1.135,2.414,2.791c0,1.287-0.56,2.95-2.446,2.95h-2.295V104.314z M435.645,109.391
			h1.504c1.007,0,1.663-0.792,1.663-2.239s-0.664-2.175-1.72-2.175h-1.447V109.391z"/>
		<path d="M442.892,107.064c-0.008-0.264-0.104-0.704-0.991-0.704c-0.216,0-0.832,0.072-0.832,0.592c0,0.344,0.216,0.423,0.76,0.56
			l0.703,0.176c0.872,0.216,1.176,0.536,1.176,1.104c0,0.863-0.712,1.383-1.655,1.383c-1.655,0-1.774-0.959-1.799-1.463h0.68
			c0.023,0.328,0.12,0.855,1.111,0.855c0.504,0,0.959-0.2,0.959-0.664c0-0.336-0.231-0.448-0.831-0.6l-0.815-0.2
			c-0.584-0.144-0.968-0.44-0.968-1.016c0-0.919,0.76-1.335,1.583-1.335c1.495,0,1.6,1.104,1.6,1.312H442.892z"/>
		<path d="M445.38,106.456v2.719c0,0.328,0.28,0.328,0.424,0.328h0.248v0.552c-0.256,0.024-0.455,0.056-0.527,0.056
			c-0.695,0-0.848-0.392-0.848-0.896v-2.759h-0.567v-0.583h0.567v-1.167h0.703v1.167h0.672v0.583H445.38z"/>
	</g>
</g>
<g>
	<g>
		<path d="M366.801,105.992c-0.04-0.887-0.775-1.167-1.423-1.167c-0.487,0-1.312,0.136-1.312,1.007c0,0.488,0.344,0.647,0.68,0.728
			l1.64,0.376c0.743,0.176,1.303,0.624,1.303,1.535c0,1.359-1.263,1.735-2.246,1.735c-1.063,0-1.479-0.32-1.735-0.552
			c-0.488-0.439-0.584-0.919-0.584-1.455h0.728c0,1.04,0.848,1.343,1.583,1.343c0.56,0,1.504-0.144,1.504-0.967
			c0-0.6-0.28-0.792-1.224-1.016l-1.176-0.272c-0.375-0.088-1.223-0.352-1.223-1.351c0-0.896,0.583-1.775,1.975-1.775
			c2.007,0,2.207,1.199,2.238,1.831H366.801z"/>
		<path d="M369.387,110.054h-0.704v-4.182h0.664v0.696h0.016c0.28-0.488,0.648-0.816,1.176-0.816c0.088,0,0.128,0.008,0.184,0.024
			v0.728h-0.264c-0.655,0-1.071,0.512-1.071,1.12V110.054z"/>
		<path d="M373.706,107.28c-0.089-0.56-0.4-0.896-0.992-0.896c-0.871,0-1.151,0.832-1.151,1.575c0,0.719,0.176,1.607,1.144,1.607
			c0.472,0,0.88-0.352,1-0.991h0.679c-0.071,0.664-0.479,1.599-1.702,1.599c-1.176,0-1.871-0.888-1.871-2.095
			c0-1.295,0.623-2.327,2.007-2.327c1.095,0,1.511,0.8,1.566,1.527H373.706z"/>
		<path d="M374.923,106.448c0-1.831,1.336-2.015,1.943-2.015c0.976,0,1.759,0.632,1.759,1.679c0,1.007-0.663,1.431-1.503,1.879
			l-0.584,0.32c-0.768,0.424-0.936,0.864-0.968,1.08h3.055v0.664h-3.846c0.04-1.167,0.567-1.791,1.319-2.231l0.743-0.432
			c0.6-0.344,1.031-0.576,1.031-1.311c0-0.448-0.287-1.016-1.111-1.016c-1.063,0-1.111,0.992-1.135,1.383H374.923z"/>
	</g>
</g>
<g>
	<g>
		<path d="M296.521,27.562c-0.04-0.887-0.776-1.167-1.423-1.167c-0.488,0-1.311,0.136-1.311,1.007c0,0.488,0.344,0.647,0.679,0.728
			l1.639,0.376c0.744,0.176,1.303,0.624,1.303,1.535c0,1.359-1.263,1.735-2.247,1.735c-1.063,0-1.479-0.32-1.735-0.552
			c-0.488-0.439-0.584-0.919-0.584-1.455h0.728c0,1.04,0.848,1.343,1.583,1.343c0.56,0,1.503-0.144,1.503-0.967
			c0-0.6-0.28-0.792-1.223-1.016l-1.175-0.272c-0.376-0.088-1.224-0.352-1.224-1.351c0-0.896,0.584-1.775,1.975-1.775
			c2.007,0,2.207,1.199,2.239,1.831H296.521z"/>
		<path d="M299.107,31.624h-0.704v-4.182h0.664v0.696h0.016c0.28-0.488,0.647-0.816,1.175-0.816c0.088,0,0.128,0.008,0.184,0.024
			v0.728h-0.264c-0.656,0-1.071,0.512-1.071,1.12V31.624z"/>
		<path d="M303.426,28.85c-0.088-0.56-0.4-0.896-0.992-0.896c-0.871,0-1.151,0.832-1.151,1.575c0,0.719,0.176,1.607,1.144,1.607
			c0.472,0,0.879-0.352,1-0.991h0.68c-0.072,0.664-0.48,1.599-1.703,1.599c-1.175,0-1.871-0.888-1.871-2.095
			c0-1.295,0.624-2.327,2.007-2.327c1.096,0,1.511,0.8,1.567,1.527H303.426z"/>
		<path d="M307.162,31.624h-0.752v-3.99h-1.311v-0.56c0.912-0.064,1.287-0.152,1.511-1.072h0.552V31.624z"/>
	</g>
</g>
<line class="st0" x1="263.793" y1="45.895" x2="263.793" y2="11.292"/>
<g>
	<g>
		<path d="M230.694,29.617c0.032,0.12,0.112,0.456,0.112,0.543c0,0.216-0.192,0.488-0.496,0.488c-0.304,0-0.496-0.272-0.496-0.488
			c0-0.088,0.016-0.152,0.176-0.775c0.096-0.376,0.136-0.56,0.271-1.095c-0.52,0.496-0.704,0.664-0.983,0.951
			c-0.4,0.384-0.439,0.432-0.647,0.432c-0.28,0-0.504-0.224-0.504-0.496c0-0.375,0.288-0.456,0.52-0.527
			c0.432-0.128,1.127-0.32,1.567-0.448c-0.28-0.08-1.503-0.423-1.751-0.503c-0.28-0.096-0.336-0.36-0.336-0.472
			c0-0.272,0.216-0.496,0.504-0.496c0.208,0,0.248,0.048,0.647,0.432c0.32,0.32,0.647,0.64,0.983,0.951
			c-0.144-0.576-0.2-0.808-0.336-1.327c-0.032-0.12-0.112-0.456-0.112-0.543c0-0.216,0.192-0.488,0.496-0.488
			c0.304,0,0.496,0.271,0.496,0.488c0,0.088-0.016,0.152-0.176,0.775c-0.096,0.376-0.136,0.56-0.272,1.095
			c0.328-0.312,0.664-0.631,0.983-0.951c0.4-0.384,0.44-0.432,0.647-0.432c0.288,0,0.504,0.224,0.504,0.496
			c0,0.375-0.288,0.456-0.52,0.528c-0.432,0.128-1.127,0.319-1.567,0.447c0.28,0.08,1.503,0.424,1.751,0.504
			c0.28,0.096,0.336,0.36,0.336,0.472c0,0.272-0.216,0.496-0.504,0.496c-0.208,0-0.248-0.048-0.647-0.432
			c-0.32-0.312-0.656-0.64-0.983-0.951C230.502,28.866,230.558,29.106,230.694,29.617z"/>
	</g>
</g>
<line class="st0" x1="263.793" y1="123.017" x2="263.793" y2="88.414"/>
<g>
	<g>
		<path d="M296.521,105.992c-0.04-0.887-0.776-1.167-1.423-1.167c-0.488,0-1.311,0.136-1.311,1.007c0,0.488,0.344,0.647,0.679,0.728
			l1.639,0.376c0.744,0.176,1.303,0.624,1.303,1.535c0,1.359-1.263,1.735-2.247,1.735c-1.063,0-1.479-0.32-1.735-0.552
			c-0.488-0.439-0.584-0.919-0.584-1.455h0.728c0,1.04,0.848,1.343,1.583,1.343c0.56,0,1.503-0.144,1.503-0.967
			c0-0.6-0.28-0.792-1.223-1.016l-1.175-0.272c-0.376-0.088-1.224-0.352-1.224-1.351c0-0.896,0.584-1.775,1.975-1.775
			c2.007,0,2.207,1.199,2.239,1.831H296.521z"/>
		<path d="M299.107,110.054h-0.704v-4.182h0.664v0.696h0.016c0.28-0.488,0.647-0.816,1.175-0.816c0.088,0,0.128,0.008,0.184,0.024
			v0.728h-0.264c-0.656,0-1.071,0.512-1.071,1.12V110.054z"/>
		<path d="M303.426,107.28c-0.088-0.56-0.4-0.896-0.992-0.896c-0.871,0-1.151,0.832-1.151,1.575c0,0.719,0.176,1.607,1.144,1.607
			c0.472,0,0.879-0.352,1-0.991h0.68c-0.072,0.664-0.48,1.599-1.703,1.599c-1.175,0-1.871-0.888-1.871-2.095
			c0-1.295,0.624-2.327,2.007-2.327c1.096,0,1.511,0.8,1.567,1.527H303.426z"/>
		<path d="M307.162,110.054h-0.752v-3.99h-1.311v-0.56c0.912-0.064,1.287-0.152,1.511-1.072h0.552V110.054z"/>
	</g>
</g>
<g>
	<g>
		<path d="M230.694,108.048c0.032,0.12,0.112,0.456,0.112,0.543c0,0.216-0.192,0.488-0.496,0.488c-0.304,0-0.496-0.272-0.496-0.488
			c0-0.088,0.016-0.152,0.176-0.775c0.096-0.376,0.136-0.56,0.271-1.095c-0.52,0.496-0.704,0.664-0.983,0.951
			c-0.4,0.384-0.439,0.432-0.647,0.432c-0.28,0-0.504-0.224-0.504-0.496c0-0.375,0.288-0.456,0.52-0.527
			c0.432-0.128,1.127-0.32,1.567-0.448c-0.28-0.08-1.503-0.423-1.751-0.503c-0.28-0.096-0.336-0.36-0.336-0.472
			c0-0.272,0.216-0.496,0.504-0.496c0.208,0,0.248,0.048,0.647,0.432c0.32,0.32,0.647,0.64,0.983,0.951
			c-0.144-0.576-0.2-0.808-0.336-1.327c-0.032-0.12-0.112-0.456-0.112-0.543c0-0.216,0.192-0.488,0.496-0.488
			c0.304,0,0.496,0.271,0.496,0.488c0,0.088-0.016,0.152-0.176,0.775c-0.096,0.376-0.136,0.56-0.272,1.095
			c0.328-0.312,0.664-0.631,0.983-0.951c0.4-0.384,0.44-0.432,0.647-0.432c0.288,0,0.504,0.224,0.504,0.496
			c0,0.375-0.288,0.456-0.52,0.528c-0.432,0.128-1.127,0.319-1.567,0.447c0.28,0.08,1.503,0.424,1.751,0.504
			c0.28,0.096,0.336,0.36,0.336,0.472c0,0.272-0.216,0.496-0.504,0.496c-0.208,0-0.248-0.048-0.647-0.432
			c-0.32-0.312-0.656-0.64-0.983-0.951C230.502,107.296,230.558,107.536,230.694,108.048z"/>
	</g>
</g>
<g>
	<line class="st2" x1="194.821" y1="94.238" x2="194.821" y2="124.051"/>
	<polygon class="st3" points="194.532,89.765 191.265,97.378 198.185,97.378 	"/>
</g>
</svg>
