<?xml version="1.0" encoding="utf-8"?>
<!-- Generator: Adobe Illustrator 28.2.0, SVG Export Plug-In . SVG Version: 6.00 Build 0)  -->
<svg version="1.1" id="儗僀儎乕_1" xmlns="http://www.w3.org/2000/svg" xmlns:xlink="http://www.w3.org/1999/xlink" x="0px"
	 y="0px" width="500.085px" height="54.805px" viewBox="0 0 500.085 54.805" style="enable-background:new 0 0 500.085 54.805;"
	 xml:space="preserve">
<style type="text/css">
	.st0{fill:none;stroke:#000000;stroke-width:0.3;}
	.st1{fill:none;stroke:#000000;stroke-width:0.5;}
	.st2{fill:#FFFFFF;}
</style>
<g>
	<path d="M262.963,24.281h-9.452v-2.1h9.452V24.281z M262.963,28.407h-9.452v-2.101h9.452V28.407z"/>
</g>
<line class="st0" x1="135.016" y1="36.591" x2="135.016" y2="45.616"/>
<line class="st0" x1="250.111" y1="36.591" x2="250.111" y2="45.616"/>
<polygon points="141.22,40.852 134.948,42.21 141.22,43.558 141.22,42.831 167.038,42.831 167.038,41.582 141.22,41.582 "/>
<polygon points="243.6,43.559 249.871,42.202 243.6,40.853 243.6,41.581 217.782,41.581 217.782,42.829 243.6,42.829 "/>
<g>
	<g>
		<path d="M217.2,5.276c-0.04-0.888-0.775-1.167-1.423-1.167c-0.488,0-1.311,0.136-1.311,1.007c0,0.488,0.344,0.647,0.68,0.728
			l1.639,0.376c0.744,0.176,1.304,0.624,1.304,1.535c0,1.359-1.264,1.735-2.247,1.735c-1.063,0-1.479-0.32-1.735-0.552
			c-0.488-0.439-0.584-0.919-0.584-1.455h0.728c0,1.04,0.847,1.343,1.583,1.343c0.56,0,1.503-0.144,1.503-0.967
			c0-0.6-0.28-0.792-1.223-1.016l-1.175-0.272c-0.376-0.088-1.224-0.352-1.224-1.351c0-0.896,0.584-1.775,1.975-1.775
			c2.007,0,2.207,1.199,2.239,1.831H217.2z"/>
		<path d="M219.786,9.337h-0.704V5.156h0.664v0.695h0.016c0.28-0.487,0.647-0.815,1.175-0.815c0.088,0,0.128,0.008,0.184,0.024
			v0.728h-0.264c-0.656,0-1.071,0.512-1.071,1.119V9.337z"/>
		<path d="M224.105,6.563c-0.088-0.56-0.4-0.896-0.991-0.896c-0.872,0-1.151,0.832-1.151,1.575c0,0.72,0.176,1.607,1.143,1.607
			c0.472,0,0.879-0.352,1-0.991h0.68c-0.072,0.664-0.48,1.599-1.703,1.599c-1.175,0-1.871-0.888-1.871-2.095
			c0-1.295,0.624-2.327,2.007-2.327c1.096,0,1.511,0.8,1.567,1.527H224.105z"/>
		<path d="M225.322,5.731c0-1.831,1.335-2.015,1.943-2.015c0.975,0,1.759,0.632,1.759,1.679c0,1.007-0.664,1.431-1.503,1.879
			l-0.584,0.32c-0.768,0.424-0.936,0.864-0.967,1.08h3.054v0.664h-3.846c0.04-1.167,0.567-1.791,1.319-2.231l0.744-0.432
			c0.6-0.344,1.031-0.576,1.031-1.311c0-0.448-0.288-1.016-1.111-1.016c-1.063,0-1.111,0.991-1.136,1.383H225.322z"/>
	</g>
</g>
<g>
	<g>
		<path d="M151.926,5.276c-0.04-0.888-0.775-1.167-1.423-1.167c-0.488,0-1.311,0.136-1.311,1.007c0,0.488,0.344,0.647,0.68,0.728
			l1.639,0.376c0.744,0.176,1.304,0.624,1.304,1.535c0,1.359-1.264,1.735-2.247,1.735c-1.063,0-1.479-0.32-1.735-0.552
			c-0.488-0.439-0.584-0.919-0.584-1.455h0.728c0,1.04,0.847,1.343,1.583,1.343c0.56,0,1.503-0.144,1.503-0.967
			c0-0.6-0.28-0.792-1.223-1.016l-1.175-0.272c-0.376-0.088-1.224-0.352-1.224-1.351c0-0.896,0.584-1.775,1.975-1.775
			c2.007,0,2.207,1.199,2.239,1.831H151.926z"/>
		<path d="M154.511,9.337h-0.704V5.156h0.664v0.695h0.016c0.28-0.487,0.647-0.815,1.175-0.815c0.088,0,0.128,0.008,0.184,0.024
			v0.728h-0.264c-0.656,0-1.071,0.512-1.071,1.119V9.337z"/>
		<path d="M158.83,6.563c-0.088-0.56-0.4-0.896-0.991-0.896c-0.872,0-1.151,0.832-1.151,1.575c0,0.72,0.176,1.607,1.143,1.607
			c0.472,0,0.879-0.352,1-0.991h0.68c-0.072,0.664-0.48,1.599-1.703,1.599c-1.175,0-1.871-0.888-1.871-2.095
			c0-1.295,0.624-2.327,2.007-2.327c1.096,0,1.511,0.8,1.567,1.527H158.83z"/>
		<path d="M160.048,5.731c0-1.831,1.335-2.015,1.943-2.015c0.975,0,1.759,0.632,1.759,1.679c0,1.007-0.664,1.431-1.503,1.879
			l-0.584,0.32c-0.768,0.424-0.936,0.864-0.967,1.08h3.054v0.664h-3.846c0.04-1.167,0.567-1.791,1.319-2.231l0.744-0.432
			c0.6-0.344,1.031-0.576,1.031-1.311c0-0.448-0.288-1.016-1.111-1.016c-1.063,0-1.111,0.991-1.136,1.383H160.048z"/>
	</g>
	<g>
		<path d="M171.025,5.3h0.583v1.727h1.727V7.61h-1.727v1.727h-0.583V7.61h-1.735V7.027h1.735V5.3z"/>
		<path d="M176.521,9.337h-0.752v-3.99h-1.311v-0.56c0.912-0.064,1.287-0.152,1.511-1.072h0.552V9.337z"/>
	</g>
</g>
<g>
	<path d="M186.195,42.428c0.105,0.007,0.217,0.014,0.322,0.014c0.476,0,0.938-0.189,0.938-0.805c0-0.294-0.175-0.777-0.911-0.777
		c-0.875,0-0.932,0.714-0.959,1.057h-0.602c0-0.721,0.294-1.611,1.59-1.611c0.952,0,1.52,0.546,1.52,1.296
		c0,0.63-0.364,0.932-0.63,1.016v0.014c0.477,0.154,0.819,0.491,0.819,1.149c0,0.805-0.518,1.583-1.772,1.583
		c-0.364,0-0.672-0.091-0.91-0.217c-0.546-0.287-0.693-0.854-0.735-1.422h0.637c0.021,0.462,0.133,1.085,1.051,1.085
		c0.63,0,1.071-0.385,1.071-0.952c0-0.827-0.729-0.904-1.148-0.904c-0.091,0-0.189,0.007-0.28,0.007V42.428z"/>
	<path d="M188.826,42.071c0-1.604,1.17-1.765,1.702-1.765c0.854,0,1.541,0.554,1.541,1.471c0,0.882-0.581,1.253-1.316,1.646
		l-0.511,0.28c-0.672,0.371-0.82,0.756-0.848,0.945h2.675v0.582H188.7c0.035-1.022,0.497-1.569,1.156-1.954l0.651-0.378
		c0.525-0.301,0.903-0.504,0.903-1.149c0-0.392-0.252-0.889-0.974-0.889c-0.932,0-0.974,0.868-0.995,1.211H188.826z"/>
	<path d="M192.817,45.23v-5.029h0.616v1.828h0.014c0.266-0.385,0.63-0.561,1.058-0.567c0.974,0,1.527,0.798,1.527,1.828
		c0,0.875-0.364,2.045-1.611,2.045c-0.624,0-0.883-0.357-1.009-0.56h-0.014v0.455H192.817z M194.392,42.015
		c-0.889,0-0.987,0.959-0.987,1.555c0,0.973,0.609,1.232,1.001,1.232c0.672,0,0.987-0.609,0.987-1.415
		C195.394,42.919,195.345,42.015,194.392,42.015z"/>
	<path d="M196.771,40.902v-0.701h0.616v0.701H196.771z M197.387,45.23h-0.616v-3.663h0.616V45.23z"/>
	<path d="M199.068,42.078v2.381c0,0.287,0.245,0.287,0.372,0.287h0.217v0.483c-0.224,0.021-0.399,0.049-0.462,0.049
		c-0.609,0-0.743-0.343-0.743-0.784v-2.417h-0.497v-0.511h0.497v-1.022h0.616v1.022h0.588v0.511H199.068z"/>
	<path d="M180.795,48.096c-0.595,1.121-0.952,1.793-0.952,3.474c0,1.155,0.399,2.01,0.959,3.109h-0.413
		c-0.729-1.092-1.205-1.968-1.205-3.278c0-1.232,0.427-2.227,1.184-3.306H180.795z"/>
	<path d="M181.347,50.071c0-1.604,1.17-1.765,1.702-1.765c0.854,0,1.541,0.554,1.541,1.471c0,0.882-0.581,1.253-1.316,1.646
		l-0.511,0.28c-0.672,0.371-0.82,0.756-0.848,0.945h2.675v0.582h-3.369c0.035-1.022,0.497-1.569,1.156-1.954l0.651-0.378
		c0.525-0.301,0.903-0.504,0.903-1.149c0-0.392-0.252-0.889-0.974-0.889c-0.932,0-0.974,0.868-0.995,1.211H181.347z"/>
	<path d="M186.724,53.23h-0.637l-1.058-3.663h0.672l0.7,2.879h0.014l0.708-2.879h0.686l0.714,2.879h0.014l0.742-2.879h0.617
		l-1.065,3.663h-0.637l-0.742-2.836h-0.014L186.724,53.23z"/>
	<path d="M191.862,49.462c1.169,0,1.702,0.988,1.702,1.933s-0.532,1.933-1.702,1.933c-1.17,0-1.702-0.988-1.702-1.933
		S190.692,49.462,191.862,49.462z M191.862,52.796c0.882,0,1.064-0.911,1.064-1.401s-0.182-1.401-1.064-1.401
		c-0.883,0-1.065,0.911-1.065,1.401S190.979,52.796,191.862,52.796z"/>
	<path d="M194.963,53.23h-0.617v-3.663h0.582v0.609h0.014c0.245-0.427,0.567-0.714,1.029-0.714c0.077,0,0.112,0.007,0.161,0.021
		v0.637h-0.231c-0.574,0-0.938,0.448-0.938,0.981V53.23z"/>
	<path d="M199.493,53.23h-0.582v-0.504h-0.014c-0.266,0.498-0.686,0.609-1.043,0.609c-1.247,0-1.611-1.169-1.611-2.045
		c0-1.03,0.553-1.828,1.527-1.828c0.666,0,0.945,0.413,1.093,0.624l0.014-0.049v-1.835h0.617V53.23z M197.868,52.803
		c0.392,0,1.001-0.259,1.001-1.232c0-0.596-0.098-1.555-0.988-1.555c-0.952,0-1.001,0.904-1.001,1.373
		C196.88,52.193,197.195,52.803,197.868,52.803z"/>
	<path d="M202.425,50.61c-0.007-0.231-0.091-0.616-0.868-0.616c-0.189,0-0.729,0.063-0.729,0.519c0,0.301,0.189,0.371,0.666,0.49
		l0.616,0.154c0.763,0.189,1.03,0.469,1.03,0.967c0,0.756-0.624,1.211-1.45,1.211c-1.45,0-1.555-0.84-1.576-1.282h0.595
		c0.021,0.287,0.105,0.75,0.974,0.75c0.441,0,0.84-0.175,0.84-0.582c0-0.294-0.203-0.392-0.728-0.525l-0.715-0.175
		c-0.511-0.126-0.847-0.385-0.847-0.89c0-0.805,0.666-1.169,1.387-1.169c1.31,0,1.401,0.966,1.401,1.148H202.425z"/>
	<path d="M203.635,54.68c0.595-1.121,0.953-1.793,0.953-3.474c0-1.156-0.399-2.01-0.959-3.11h0.413
		c0.729,1.093,1.205,1.968,1.205,3.278c0,1.232-0.427,2.227-1.184,3.306H203.635z"/>
</g>
<g>
	<path d="M51.429,42.428c0.105,0.007,0.217,0.014,0.322,0.014c0.476,0,0.938-0.189,0.938-0.805c0-0.294-0.175-0.777-0.911-0.777
		c-0.875,0-0.932,0.714-0.959,1.057h-0.602c0-0.721,0.294-1.611,1.59-1.611c0.952,0,1.52,0.546,1.52,1.296
		c0,0.63-0.364,0.932-0.63,1.016v0.014c0.477,0.154,0.819,0.491,0.819,1.149c0,0.805-0.518,1.583-1.772,1.583
		c-0.364,0-0.672-0.091-0.91-0.217c-0.546-0.287-0.693-0.854-0.735-1.422h0.637c0.021,0.462,0.133,1.085,1.051,1.085
		c0.63,0,1.071-0.385,1.071-0.952c0-0.827-0.729-0.904-1.148-0.904c-0.091,0-0.189,0.007-0.28,0.007V42.428z"/>
	<path d="M54.061,42.071c0-1.604,1.17-1.765,1.702-1.765c0.854,0,1.541,0.554,1.541,1.471c0,0.882-0.581,1.253-1.316,1.646
		l-0.511,0.28c-0.672,0.371-0.82,0.756-0.848,0.945h2.675v0.582h-3.369c0.035-1.022,0.497-1.569,1.156-1.954l0.651-0.378
		c0.525-0.301,0.903-0.504,0.903-1.149c0-0.392-0.252-0.889-0.974-0.889c-0.932,0-0.974,0.868-0.995,1.211H54.061z"/>
	<path d="M58.051,45.23v-5.029h0.616v1.828h0.014c0.266-0.385,0.63-0.561,1.058-0.567c0.974,0,1.527,0.798,1.527,1.828
		c0,0.875-0.364,2.045-1.611,2.045c-0.624,0-0.883-0.357-1.009-0.56h-0.014v0.455H58.051z M59.627,42.015
		c-0.889,0-0.987,0.959-0.987,1.555c0,0.973,0.609,1.232,1.001,1.232c0.672,0,0.987-0.609,0.987-1.415
		C60.628,42.919,60.579,42.015,59.627,42.015z"/>
	<path d="M62.006,40.902v-0.701h0.616v0.701H62.006z M62.622,45.23h-0.616v-3.663h0.616V45.23z"/>
	<path d="M64.302,42.078v2.381c0,0.287,0.245,0.287,0.372,0.287h0.217v0.483c-0.224,0.021-0.399,0.049-0.462,0.049
		c-0.609,0-0.743-0.343-0.743-0.784v-2.417h-0.497v-0.511h0.497v-1.022h0.616v1.022h0.588v0.511H64.302z"/>
	<path d="M46.029,48.096c-0.595,1.121-0.952,1.793-0.952,3.474c0,1.155,0.399,2.01,0.959,3.109h-0.413
		c-0.729-1.092-1.205-1.968-1.205-3.278c0-1.232,0.427-2.227,1.184-3.306H46.029z"/>
	<path d="M46.581,50.071c0-1.604,1.17-1.765,1.702-1.765c0.854,0,1.541,0.554,1.541,1.471c0,0.882-0.581,1.253-1.316,1.646
		l-0.511,0.28c-0.672,0.371-0.82,0.756-0.848,0.945h2.675v0.582h-3.369c0.035-1.022,0.497-1.569,1.156-1.954l0.651-0.378
		c0.525-0.301,0.903-0.504,0.903-1.149c0-0.392-0.252-0.889-0.974-0.889c-0.932,0-0.974,0.868-0.995,1.211H46.581z"/>
	<path d="M51.958,53.23h-0.637l-1.058-3.663h0.672l0.7,2.879h0.014l0.708-2.879h0.686l0.714,2.879h0.014l0.742-2.879h0.617
		l-1.065,3.663h-0.637l-0.742-2.836h-0.014L51.958,53.23z"/>
	<path d="M57.096,49.462c1.169,0,1.702,0.988,1.702,1.933s-0.532,1.933-1.702,1.933c-1.17,0-1.702-0.988-1.702-1.933
		S55.926,49.462,57.096,49.462z M57.096,52.796c0.882,0,1.064-0.911,1.064-1.401s-0.182-1.401-1.064-1.401
		c-0.883,0-1.065,0.911-1.065,1.401S56.214,52.796,57.096,52.796z"/>
	<path d="M60.197,53.23H59.58v-3.663h0.582v0.609h0.014c0.245-0.427,0.567-0.714,1.029-0.714c0.077,0,0.112,0.007,0.161,0.021v0.637
		h-0.231c-0.574,0-0.938,0.448-0.938,0.981V53.23z"/>
	<path d="M64.727,53.23h-0.582v-0.504h-0.014c-0.266,0.498-0.686,0.609-1.043,0.609c-1.247,0-1.611-1.169-1.611-2.045
		c0-1.03,0.553-1.828,1.527-1.828c0.666,0,0.945,0.413,1.093,0.624l0.014-0.049v-1.835h0.617V53.23z M63.102,52.803
		c0.392,0,1.001-0.259,1.001-1.232c0-0.596-0.098-1.555-0.988-1.555c-0.952,0-1.001,0.904-1.001,1.373
		C62.114,52.193,62.43,52.803,63.102,52.803z"/>
	<path d="M67.659,50.61c-0.007-0.231-0.091-0.616-0.868-0.616c-0.189,0-0.729,0.063-0.729,0.519c0,0.301,0.189,0.371,0.666,0.49
		l0.616,0.154c0.763,0.189,1.03,0.469,1.03,0.967c0,0.756-0.624,1.211-1.45,1.211c-1.45,0-1.555-0.84-1.576-1.282h0.595
		c0.021,0.287,0.105,0.75,0.974,0.75c0.441,0,0.84-0.175,0.84-0.582c0-0.294-0.203-0.392-0.728-0.525l-0.715-0.175
		c-0.511-0.126-0.847-0.385-0.847-0.89c0-0.805,0.666-1.169,1.387-1.169c1.31,0,1.401,0.966,1.401,1.148H67.659z"/>
	<path d="M68.869,54.68c0.595-1.121,0.953-1.793,0.953-3.474c0-1.156-0.399-2.01-0.959-3.11h0.413
		c0.729,1.093,1.205,1.968,1.205,3.278c0,1.232-0.427,2.227-1.184,3.306H68.869z"/>
</g>
<g>
	<rect x="135.016" y="13.431" class="st1" width="115.158" height="22.146"/>
	<line class="st1" x1="192.595" y1="35.576" x2="192.595" y2="13.431"/>
	<line class="st0" x1="178.2" y1="35.576" x2="178.2" y2="13.431"/>
	<line class="st0" x1="163.806" y1="35.576" x2="163.806" y2="13.431"/>
	<line class="st0" x1="149.412" y1="35.576" x2="149.412" y2="13.431"/>
	<line class="st0" x1="206.989" y1="35.576" x2="206.989" y2="13.431"/>
	<line class="st0" x1="221.383" y1="35.576" x2="221.383" y2="13.431"/>
	<line class="st0" x1="235.778" y1="35.576" x2="235.778" y2="13.431"/>
	<rect x="144.109" y="18.227" class="st2" width="97.441" height="12.5"/>
	<g>
		<path d="M183.96,24.057c0.27-0.207,0.657-0.396,1.225-0.396c1.026,0,2.08,0.72,2.08,2.025c0,0.702-0.315,2.224-2.296,2.224
			c-0.828,0-1.891-0.333-2.043-1.747h0.819c0.081,0.738,0.63,1.062,1.341,1.062c0.819,0,1.333-0.657,1.333-1.449
			c0-0.91-0.621-1.405-1.404-1.405c-0.459,0-0.874,0.216-1.17,0.604l-0.685-0.036l0.478-3.394h3.277v0.774h-2.683L183.96,24.057z"/>
		<path d="M191.395,23.093c-0.099-0.558-0.405-0.972-1.089-0.972c-1.243,0-1.504,1.674-1.504,2.341l0.018,0.018
			c0.198-0.342,0.639-0.774,1.503-0.774c0.774,0,1.981,0.495,1.981,2.008c0,0.648-0.171,1.116-0.604,1.584
			c-0.333,0.369-0.711,0.612-1.603,0.612c-0.486,0-1.179-0.216-1.629-0.918c-0.378-0.594-0.486-1.369-0.486-2.197
			c0-1.386,0.45-3.385,2.34-3.385c0.729,0,1.765,0.396,1.846,1.684H191.395z M190.242,27.199c0.756,0,1.243-0.594,1.243-1.45
			c0-0.558-0.297-1.332-1.278-1.332c-0.874,0-1.296,0.63-1.296,1.377C188.91,26.469,189.315,27.199,190.242,27.199z"/>
		<path d="M192.978,21.545h4.375v0.693c-0.63,0.657-2.143,2.674-2.602,5.5h-0.873c0.216-1.737,1.368-4.006,2.584-5.419h-3.484
			V21.545z"/>
		<path d="M201.268,24.372c0.855,0.36,1.035,1.062,1.035,1.54c0,1.018-0.648,1.999-2.143,1.999c-0.351,0-1.017-0.09-1.521-0.486
			c-0.648-0.513-0.648-1.198-0.648-1.503c0-0.774,0.405-1.27,1.071-1.54c-0.541-0.207-0.855-0.639-0.855-1.233
			c0-0.657,0.405-1.738,1.917-1.738c1.405,0,1.954,0.892,1.954,1.63C202.078,23.949,201.547,24.228,201.268,24.372z M198.838,25.938
			c0,0.504,0.252,1.261,1.35,1.261c0.576,0,1.27-0.207,1.27-1.197c0-0.855-0.594-1.233-1.314-1.233
			C199.252,24.768,198.838,25.353,198.838,25.938z M201.259,23.066c0-0.387-0.252-0.945-1.179-0.945
			c-0.846,0-1.053,0.585-1.053,0.99c0,0.603,0.531,0.972,1.107,0.972C200.818,24.083,201.259,23.643,201.259,23.066z"/>
	</g>
</g>
<line class="st0" x1="269.516" y1="36.591" x2="269.516" y2="45.616"/>
<line class="st0" x1="499.771" y1="36.591" x2="499.771" y2="45.616"/>
<polygon points="275.72,40.852 269.449,42.21 275.72,43.558 275.72,42.831 359.118,42.831 359.118,41.582 275.72,41.582 "/>
<polygon points="493.26,43.559 499.531,42.202 493.26,40.853 493.26,41.581 409.862,41.581 409.862,42.829 493.26,42.829 "/>
<g>
	<g>
		<path d="M463.41,1.263h3.272c2.103,0,3.396,1.597,3.396,3.924c0,1.811-0.788,4.15-3.441,4.15h-3.228V1.263z M464.501,8.404h2.114
			c1.417,0,2.339-1.113,2.339-3.148c0-2.036-0.934-3.059-2.418-3.059h-2.035V8.404z"/>
		<path d="M474.693,5.131c-0.012-0.371-0.146-0.989-1.395-0.989c-0.304,0-1.17,0.101-1.17,0.832c0,0.483,0.304,0.596,1.068,0.787
			l0.989,0.248c1.227,0.304,1.653,0.753,1.653,1.552c0,1.214-1.001,1.945-2.327,1.945c-2.328,0-2.497-1.349-2.531-2.058h0.956
			c0.034,0.461,0.169,1.203,1.563,1.203c0.708,0,1.35-0.281,1.35-0.933c0-0.473-0.326-0.63-1.17-0.844l-1.146-0.281
			c-0.821-0.202-1.361-0.618-1.361-1.428c0-1.293,1.068-1.878,2.227-1.878c2.104,0,2.249,1.552,2.249,1.844H474.693z"/>
		<path d="M478.192,4.277v3.824c0,0.461,0.394,0.461,0.597,0.461h0.349v0.776c-0.36,0.034-0.642,0.079-0.743,0.079
			c-0.978,0-1.191-0.551-1.191-1.259v-3.88h-0.799V3.456h0.799V1.814h0.989v1.642h0.945v0.821H478.192z"/>
	</g>
</g>
<g>
	<g>
		<path d="M342.729,3.597h2.327c1.495,0,2.414,1.135,2.414,2.791c0,1.287-0.56,2.95-2.446,2.95h-2.295V3.597z M343.504,8.674h1.504
			c1.007,0,1.663-0.792,1.663-2.239s-0.664-2.175-1.72-2.175h-1.447V8.674z"/>
		<path d="M350.752,6.347c-0.008-0.264-0.104-0.704-0.991-0.704c-0.216,0-0.832,0.072-0.832,0.591c0,0.344,0.216,0.424,0.76,0.56
			l0.703,0.176c0.872,0.216,1.176,0.536,1.176,1.104c0,0.863-0.712,1.383-1.655,1.383c-1.655,0-1.774-0.959-1.799-1.463h0.68
			c0.023,0.328,0.12,0.855,1.111,0.855c0.504,0,0.959-0.2,0.959-0.664c0-0.336-0.231-0.448-0.831-0.6l-0.815-0.2
			c-0.584-0.144-0.968-0.439-0.968-1.015c0-0.919,0.76-1.335,1.583-1.335c1.495,0,1.6,1.104,1.6,1.312H350.752z"/>
		<path d="M353.24,5.739v2.719c0,0.328,0.28,0.328,0.424,0.328h0.248v0.552c-0.256,0.024-0.455,0.056-0.527,0.056
			c-0.695,0-0.848-0.392-0.848-0.896V5.739h-0.567V5.156h0.567V3.988h0.703v1.167h0.672v0.583H353.24z"/>
	</g>
	<g>
		<path d="M360.625,5.3h0.584v1.727h1.727V7.61h-1.727v1.727h-0.584V7.61h-1.735V7.027h1.735V5.3z"/>
		<path d="M363.602,5.731c0-1.831,1.336-2.015,1.943-2.015c0.976,0,1.759,0.632,1.759,1.679c0,1.007-0.663,1.431-1.503,1.879
			l-0.584,0.32c-0.768,0.424-0.936,0.864-0.968,1.08h3.055v0.664h-3.846c0.04-1.167,0.567-1.791,1.319-2.231l0.743-0.432
			c0.6-0.344,1.031-0.576,1.031-1.311c0-0.448-0.287-1.016-1.111-1.016c-1.063,0-1.111,0.991-1.135,1.383H363.602z"/>
	</g>
</g>
<g>
	<g>
		<path d="M285.149,3.597h2.327c1.495,0,2.414,1.135,2.414,2.791c0,1.287-0.56,2.95-2.446,2.95h-2.295V3.597z M285.924,8.674h1.504
			c1.007,0,1.663-0.792,1.663-2.239s-0.664-2.175-1.72-2.175h-1.447V8.674z"/>
		<path d="M293.172,6.347c-0.008-0.264-0.104-0.704-0.991-0.704c-0.216,0-0.832,0.072-0.832,0.591c0,0.344,0.216,0.424,0.76,0.56
			l0.703,0.176c0.872,0.216,1.176,0.536,1.176,1.104c0,0.863-0.712,1.383-1.655,1.383c-1.655,0-1.774-0.959-1.799-1.463h0.68
			c0.023,0.328,0.12,0.855,1.111,0.855c0.504,0,0.959-0.2,0.959-0.664c0-0.336-0.231-0.448-0.831-0.6l-0.815-0.2
			c-0.584-0.144-0.968-0.439-0.968-1.015c0-0.919,0.76-1.335,1.583-1.335c1.495,0,1.6,1.104,1.6,1.312H293.172z"/>
		<path d="M295.66,5.739v2.719c0,0.328,0.28,0.328,0.424,0.328h0.248v0.552c-0.256,0.024-0.455,0.056-0.527,0.056
			c-0.695,0-0.848-0.392-0.848-0.896V5.739h-0.567V5.156h0.567V3.988h0.703v1.167h0.672v0.583H295.66z"/>
	</g>
	<g>
		<path d="M303.043,5.3h0.584v1.727h1.727V7.61h-1.727v1.727h-0.584V7.61h-1.735V7.027h1.735V5.3z"/>
		<path d="M307.459,6.139c0.12,0.008,0.248,0.016,0.368,0.016c0.543,0,1.071-0.216,1.071-0.919c0-0.336-0.2-0.888-1.04-0.888
			c-0.999,0-1.063,0.815-1.095,1.208h-0.688c0-0.824,0.335-1.839,1.814-1.839c1.088,0,1.735,0.624,1.735,1.479
			c0,0.72-0.416,1.063-0.72,1.159v0.016c0.544,0.176,0.936,0.56,0.936,1.311c0,0.92-0.592,1.807-2.023,1.807
			c-0.415,0-0.768-0.104-1.039-0.248c-0.624-0.328-0.791-0.976-0.84-1.624h0.728c0.024,0.528,0.152,1.24,1.2,1.24
			c0.719,0,1.223-0.44,1.223-1.088c0-0.943-0.831-1.031-1.311-1.031c-0.104,0-0.217,0.008-0.32,0.008V6.139z"/>
	</g>
</g>
<g>
	<g>
		<path d="M400.31,3.597h2.327c1.495,0,2.414,1.135,2.414,2.791c0,1.287-0.56,2.95-2.446,2.95h-2.295V3.597z M401.085,8.674h1.504
			c1.007,0,1.663-0.792,1.663-2.239s-0.664-2.175-1.72-2.175h-1.447V8.674z"/>
		<path d="M408.332,6.347c-0.008-0.264-0.104-0.704-0.991-0.704c-0.216,0-0.832,0.072-0.832,0.591c0,0.344,0.216,0.424,0.76,0.56
			l0.703,0.176c0.872,0.216,1.176,0.536,1.176,1.104c0,0.863-0.712,1.383-1.655,1.383c-1.655,0-1.774-0.959-1.799-1.463h0.68
			c0.023,0.328,0.12,0.855,1.111,0.855c0.504,0,0.959-0.2,0.959-0.664c0-0.336-0.231-0.448-0.831-0.6l-0.815-0.2
			c-0.584-0.144-0.968-0.439-0.968-1.015c0-0.919,0.76-1.335,1.583-1.335c1.495,0,1.6,1.104,1.6,1.312H408.332z"/>
		<path d="M410.82,5.739v2.719c0,0.328,0.28,0.328,0.424,0.328h0.248v0.552c-0.256,0.024-0.455,0.056-0.527,0.056
			c-0.695,0-0.848-0.392-0.848-0.896V5.739h-0.567V5.156h0.567V3.988h0.703v1.167h0.672v0.583H410.82z"/>
	</g>
	<g>
		<path d="M418.205,5.3h0.584v1.727h1.727V7.61h-1.727v1.727h-0.584V7.61h-1.735V7.027h1.735V5.3z"/>
		<path d="M423.7,9.337h-0.751v-3.99h-1.312v-0.56c0.911-0.064,1.287-0.152,1.511-1.072h0.552V9.337z"/>
	</g>
</g>
<g>
	<path d="M379.627,41.616c-0.077-0.435-0.315-0.756-0.848-0.756c-0.967,0-1.17,1.302-1.17,1.821l0.015,0.014
		c0.153-0.267,0.497-0.603,1.169-0.603c0.603,0,1.541,0.385,1.541,1.562c0,0.504-0.133,0.868-0.469,1.232
		c-0.26,0.287-0.554,0.477-1.247,0.477c-0.378,0-0.918-0.168-1.268-0.715c-0.294-0.462-0.378-1.064-0.378-1.708
		c0-1.079,0.35-2.634,1.82-2.634c0.567,0,1.373,0.308,1.436,1.31H379.627z M378.731,44.81c0.588,0,0.966-0.462,0.966-1.127
		c0-0.434-0.23-1.037-0.994-1.037c-0.68,0-1.009,0.49-1.009,1.072C377.694,44.243,378.009,44.81,378.731,44.81z"/>
	<path d="M383.539,44.032v1.198h-0.616v-1.198h-2.15V43.43l2.256-3.124h0.511V43.5h0.722v0.532H383.539z M381.34,43.5h1.583v-2.234
		h-0.014L381.34,43.5z"/>
	<path d="M384.897,45.23v-5.029h0.616v1.828h0.014c0.267-0.385,0.631-0.561,1.058-0.567c0.974,0,1.527,0.798,1.527,1.828
		c0,0.875-0.364,2.045-1.611,2.045c-0.623,0-0.882-0.357-1.008-0.56h-0.015v0.455H384.897z M386.473,42.015
		c-0.89,0-0.988,0.959-0.988,1.555c0,0.973,0.609,1.232,1.002,1.232c0.672,0,0.987-0.609,0.987-1.415
		C387.474,42.919,387.425,42.015,386.473,42.015z"/>
	<path d="M388.852,40.902v-0.701h0.616v0.701H388.852z M389.468,45.23h-0.616v-3.663h0.616V45.23z"/>
	<path d="M391.148,42.078v2.381c0,0.287,0.245,0.287,0.371,0.287h0.217v0.483c-0.224,0.021-0.399,0.049-0.462,0.049
		c-0.609,0-0.742-0.343-0.742-0.784v-2.417h-0.498v-0.511h0.498v-1.022h0.616v1.022h0.588v0.511H391.148z"/>
	<path d="M372.874,48.096c-0.595,1.121-0.952,1.793-0.952,3.474c0,1.155,0.399,2.01,0.959,3.109h-0.413
		c-0.729-1.092-1.204-1.968-1.204-3.278c0-1.232,0.427-2.227,1.184-3.306H372.874z"/>
	<path d="M376.06,52.032v1.198h-0.616v-1.198h-2.15V51.43l2.256-3.124h0.511V51.5h0.722v0.532H376.06z M373.861,51.5h1.583v-2.234
		h-0.014L373.861,51.5z"/>
	<path d="M378.803,53.23h-0.638l-1.058-3.663h0.673l0.7,2.879h0.014l0.708-2.879h0.687l0.714,2.879h0.015l0.742-2.879h0.616
		l-1.064,3.663h-0.638l-0.742-2.836h-0.014L378.803,53.23z"/>
	<path d="M383.942,49.462c1.169,0,1.702,0.988,1.702,1.933s-0.533,1.933-1.702,1.933c-1.17,0-1.702-0.988-1.702-1.933
		S382.772,49.462,383.942,49.462z M383.942,52.796c0.882,0,1.064-0.911,1.064-1.401s-0.183-1.401-1.064-1.401
		c-0.883,0-1.064,0.911-1.064,1.401S383.059,52.796,383.942,52.796z"/>
	<path d="M387.041,53.23h-0.616v-3.663h0.581v0.609h0.015c0.245-0.427,0.567-0.714,1.029-0.714c0.077,0,0.112,0.007,0.161,0.021
		v0.637h-0.231c-0.574,0-0.938,0.448-0.938,0.981V53.23z"/>
	<path d="M391.572,53.23h-0.582v-0.504h-0.014c-0.266,0.498-0.687,0.609-1.043,0.609c-1.247,0-1.611-1.169-1.611-2.045
		c0-1.03,0.554-1.828,1.526-1.828c0.666,0,0.946,0.413,1.093,0.624l0.015-0.049v-1.835h0.616V53.23z M389.947,52.803
		c0.393,0,1.001-0.259,1.001-1.232c0-0.596-0.098-1.555-0.987-1.555c-0.952,0-1.001,0.904-1.001,1.373
		C388.96,52.193,389.275,52.803,389.947,52.803z"/>
	<path d="M394.504,50.61c-0.007-0.231-0.091-0.616-0.868-0.616c-0.189,0-0.729,0.063-0.729,0.519c0,0.301,0.189,0.371,0.665,0.49
		l0.616,0.154c0.764,0.189,1.03,0.469,1.03,0.967c0,0.756-0.624,1.211-1.45,1.211c-1.449,0-1.555-0.84-1.575-1.282h0.595
		c0.021,0.287,0.105,0.75,0.974,0.75c0.441,0,0.841-0.175,0.841-0.582c0-0.294-0.203-0.392-0.729-0.525l-0.715-0.175
		c-0.511-0.126-0.848-0.385-0.848-0.89c0-0.805,0.666-1.169,1.387-1.169c1.311,0,1.401,0.966,1.401,1.148H394.504z"/>
	<path d="M395.714,54.68c0.596-1.121,0.952-1.793,0.952-3.474c0-1.156-0.398-2.01-0.959-3.11h0.413
		c0.729,1.093,1.205,1.968,1.205,3.278c0,1.232-0.428,2.227-1.185,3.306H395.714z"/>
</g>
<g>
	<rect x="269.516" y="13.431" class="st1" width="230.319" height="22.146"/>
	<line class="st1" x1="384.674" y1="35.576" x2="384.674" y2="13.431"/>
	<line class="st0" x1="370.28" y1="35.576" x2="370.28" y2="13.431"/>
	<line class="st0" x1="355.887" y1="35.576" x2="355.887" y2="13.431"/>
	<line class="st0" x1="341.491" y1="35.576" x2="341.491" y2="13.431"/>
	<line class="st1" x1="327.093" y1="35.576" x2="327.093" y2="13.431"/>
	<line class="st0" x1="312.7" y1="35.576" x2="312.7" y2="13.431"/>
	<line class="st0" x1="298.306" y1="35.576" x2="298.306" y2="13.431"/>
	<line class="st0" x1="283.911" y1="35.576" x2="283.911" y2="13.431"/>
	<line class="st0" x1="399.069" y1="35.576" x2="399.069" y2="13.431"/>
	<line class="st0" x1="413.464" y1="35.576" x2="413.464" y2="13.431"/>
	<line class="st0" x1="427.858" y1="35.576" x2="427.858" y2="13.431"/>
	<line class="st1" x1="442.254" y1="35.576" x2="442.254" y2="13.431"/>
	<line class="st0" x1="456.65" y1="35.576" x2="456.65" y2="13.431"/>
	<line class="st0" x1="471.045" y1="35.576" x2="471.045" y2="13.431"/>
	<line class="st0" x1="485.438" y1="35.576" x2="485.438" y2="13.431"/>
	<rect x="278.608" y="18.227" class="st2" width="212.602" height="12.5"/>
	<g>
		<path d="M367.544,21.545h4.375v0.693c-0.63,0.657-2.143,2.674-2.602,5.5h-0.873c0.216-1.737,1.368-4.006,2.584-5.419h-3.484
			V21.545z"/>
		<path d="M374.718,27.91c-1.818,0-2.17-1.936-2.17-3.25s0.352-3.25,2.17-3.25s2.17,1.936,2.17,3.25S376.536,27.91,374.718,27.91z
			 M374.718,22.121c-0.909,0-1.323,0.954-1.323,2.539s0.414,2.539,1.323,2.539s1.323-0.955,1.323-2.539
			S375.627,22.121,374.718,22.121z"/>
		<path d="M379.722,27.91c-1.818,0-2.17-1.936-2.17-3.25s0.352-3.25,2.17-3.25s2.17,1.936,2.17,3.25S381.54,27.91,379.722,27.91z
			 M379.722,22.121c-0.909,0-1.323,0.954-1.323,2.539s0.414,2.539,1.323,2.539s1.323-0.955,1.323-2.539
			S380.631,22.121,379.722,22.121z"/>
		<path d="M385.977,23.093c-0.099-0.558-0.405-0.972-1.089-0.972c-1.242,0-1.504,1.674-1.504,2.341l0.019,0.018
			c0.197-0.342,0.639-0.774,1.503-0.774c0.774,0,1.98,0.495,1.98,2.008c0,0.648-0.171,1.116-0.603,1.584
			c-0.333,0.369-0.712,0.612-1.603,0.612c-0.486,0-1.18-0.216-1.63-0.918c-0.378-0.594-0.486-1.369-0.486-2.197
			c0-1.386,0.45-3.385,2.341-3.385c0.729,0,1.765,0.396,1.846,1.684H385.977z M384.824,27.199c0.757,0,1.242-0.594,1.242-1.45
			c0-0.558-0.297-1.332-1.278-1.332c-0.873,0-1.296,0.63-1.296,1.377C383.492,26.469,383.898,27.199,384.824,27.199z"/>
		<path d="M390.981,23.093c-0.099-0.558-0.405-0.972-1.089-0.972c-1.242,0-1.504,1.674-1.504,2.341l0.019,0.018
			c0.197-0.342,0.639-0.774,1.503-0.774c0.774,0,1.98,0.495,1.98,2.008c0,0.648-0.171,1.116-0.603,1.584
			c-0.333,0.369-0.712,0.612-1.603,0.612c-0.486,0-1.18-0.216-1.63-0.918c-0.378-0.594-0.486-1.369-0.486-2.197
			c0-1.386,0.45-3.385,2.341-3.385c0.729,0,1.765,0.396,1.846,1.684H390.981z M389.828,27.199c0.757,0,1.242-0.594,1.242-1.45
			c0-0.558-0.297-1.332-1.278-1.332c-0.873,0-1.296,0.63-1.296,1.377C388.496,26.469,388.902,27.199,389.828,27.199z"/>
		<path d="M393.554,24.057c0.271-0.207,0.657-0.396,1.225-0.396c1.026,0,2.079,0.72,2.079,2.025c0,0.702-0.314,2.224-2.295,2.224
			c-0.828,0-1.891-0.333-2.044-1.747h0.819c0.081,0.738,0.63,1.062,1.342,1.062c0.818,0,1.332-0.657,1.332-1.449
			c0-0.91-0.621-1.405-1.404-1.405c-0.459,0-0.873,0.216-1.171,0.604l-0.684-0.036l0.477-3.394h3.277v0.774h-2.683L393.554,24.057z"
			/>
		<path d="M397.632,23.679c0-2.062,1.503-2.269,2.188-2.269c1.098,0,1.98,0.711,1.98,1.891c0,1.134-0.747,1.612-1.692,2.116
			l-0.657,0.36c-0.864,0.477-1.054,0.972-1.09,1.215h3.439v0.747h-4.33c0.045-1.314,0.639-2.017,1.485-2.512l0.837-0.486
			c0.676-0.387,1.161-0.648,1.161-1.476c0-0.504-0.324-1.144-1.251-1.144c-1.197,0-1.251,1.116-1.278,1.558H397.632z"/>
	</g>
</g>
<g>
	<path d="M120.35,22.05l1.481-1.481l3.245,3.244l3.244-3.244l1.481,1.481l-3.244,3.244l3.263,3.245l-1.5,1.481l-3.244-3.245
		l-3.226,3.245l-1.5-1.481l3.245-3.245L120.35,22.05z"/>
</g>
<line class="st0" x1="0.25" y1="36.591" x2="0.25" y2="45.616"/>
<line class="st0" x1="115.345" y1="36.591" x2="115.345" y2="45.616"/>
<polygon points="6.454,40.852 0.183,42.21 6.454,43.558 6.454,42.831 32.272,42.831 32.272,41.582 6.454,41.582 "/>
<polygon points="108.834,43.559 115.105,42.202 108.834,40.853 108.834,41.581 83.016,41.581 83.016,42.829 108.834,42.829 "/>
<g>
	<g>
		<path d="M82.435,5.276c-0.04-0.888-0.775-1.167-1.423-1.167c-0.488,0-1.311,0.136-1.311,1.007c0,0.488,0.344,0.647,0.68,0.728
			l1.639,0.376c0.744,0.176,1.304,0.624,1.304,1.535c0,1.359-1.264,1.735-2.247,1.735c-1.063,0-1.479-0.32-1.735-0.552
			c-0.488-0.439-0.584-0.919-0.584-1.455h0.728c0,1.04,0.847,1.343,1.583,1.343c0.56,0,1.503-0.144,1.503-0.967
			c0-0.6-0.28-0.792-1.223-1.016l-1.175-0.272c-0.376-0.088-1.224-0.352-1.224-1.351c0-0.896,0.584-1.775,1.975-1.775
			c2.007,0,2.207,1.199,2.239,1.831H82.435z"/>
		<path d="M85.02,9.337h-0.704V5.156h0.664v0.695h0.016c0.28-0.487,0.647-0.815,1.175-0.815c0.088,0,0.128,0.008,0.184,0.024v0.728
			h-0.264c-0.656,0-1.071,0.512-1.071,1.119V9.337z"/>
		<path d="M89.339,6.563c-0.088-0.56-0.4-0.896-0.991-0.896c-0.872,0-1.151,0.832-1.151,1.575c0,0.72,0.176,1.607,1.143,1.607
			c0.472,0,0.879-0.352,1-0.991h0.68c-0.072,0.664-0.48,1.599-1.703,1.599c-1.175,0-1.871-0.888-1.871-2.095
			c0-1.295,0.624-2.327,2.007-2.327c1.096,0,1.511,0.8,1.567,1.527H89.339z"/>
		<path d="M93.075,9.337h-0.752v-3.99h-1.311v-0.56c0.912-0.064,1.287-0.152,1.511-1.072h0.552V9.337z"/>
	</g>
</g>
<g>
	<g>
		<path d="M17.16,5.276c-0.04-0.888-0.775-1.167-1.423-1.167c-0.488,0-1.311,0.136-1.311,1.007c0,0.488,0.344,0.647,0.68,0.728
			l1.639,0.376c0.744,0.176,1.304,0.624,1.304,1.535c0,1.359-1.264,1.735-2.247,1.735c-1.063,0-1.479-0.32-1.735-0.552
			c-0.488-0.439-0.584-0.919-0.584-1.455h0.728c0,1.04,0.847,1.343,1.583,1.343c0.56,0,1.503-0.144,1.503-0.967
			c0-0.6-0.28-0.792-1.223-1.016l-1.175-0.272c-0.376-0.088-1.224-0.352-1.224-1.351c0-0.896,0.584-1.775,1.975-1.775
			c2.007,0,2.207,1.199,2.239,1.831H17.16z"/>
		<path d="M19.746,9.337h-0.704V5.156h0.664v0.695h0.016c0.28-0.487,0.647-0.815,1.175-0.815c0.088,0,0.128,0.008,0.184,0.024v0.728
			h-0.264c-0.656,0-1.071,0.512-1.071,1.119V9.337z"/>
		<path d="M24.065,6.563c-0.088-0.56-0.4-0.896-0.991-0.896c-0.872,0-1.151,0.832-1.151,1.575c0,0.72,0.176,1.607,1.143,1.607
			c0.472,0,0.879-0.352,1-0.991h0.68c-0.072,0.664-0.48,1.599-1.703,1.599c-1.175,0-1.871-0.888-1.871-2.095
			c0-1.295,0.624-2.327,2.007-2.327c1.096,0,1.511,0.8,1.567,1.527H24.065z"/>
		<path d="M27.801,9.337h-0.752v-3.99h-1.311v-0.56c0.912-0.064,1.287-0.152,1.511-1.072h0.552V9.337z"/>
	</g>
	<g>
		<path d="M36.259,5.3h0.583v1.727h1.727V7.61h-1.727v1.727h-0.583V7.61h-1.735V7.027h1.735V5.3z"/>
		<path d="M41.755,9.337h-0.752v-3.99h-1.311v-0.56c0.912-0.064,1.287-0.152,1.511-1.072h0.552V9.337z"/>
	</g>
</g>
<g>
	<rect x="0.25" y="13.431" class="st1" width="115.158" height="22.146"/>
	<line class="st1" x1="57.829" y1="35.576" x2="57.829" y2="13.431"/>
	<line class="st0" x1="43.435" y1="35.576" x2="43.435" y2="13.431"/>
	<line class="st0" x1="29.04" y1="35.576" x2="29.04" y2="13.431"/>
	<line class="st0" x1="14.646" y1="35.576" x2="14.646" y2="13.431"/>
	<line class="st0" x1="72.223" y1="35.576" x2="72.223" y2="13.431"/>
	<line class="st0" x1="86.618" y1="35.576" x2="86.618" y2="13.431"/>
	<line class="st0" x1="101.012" y1="35.576" x2="101.012" y2="13.431"/>
	<rect x="9.343" y="18.227" class="st2" width="97.441" height="12.5"/>
	<g>
		<path d="M51.283,27.739h-0.846v-4.492H48.96v-0.63c1.026-0.072,1.45-0.171,1.702-1.207h0.621V27.739z"/>
		<path d="M53.091,23.679c0-2.062,1.503-2.269,2.188-2.269c1.098,0,1.98,0.711,1.98,1.891c0,1.134-0.748,1.612-1.692,2.116
			l-0.657,0.36c-0.864,0.477-1.054,0.972-1.089,1.215h3.439v0.747h-4.331c0.045-1.314,0.639-2.017,1.486-2.512l0.837-0.486
			c0.675-0.387,1.162-0.648,1.162-1.476c0-0.504-0.324-1.144-1.251-1.144c-1.197,0-1.251,1.116-1.278,1.558H53.091z"/>
		<path d="M59.715,24.138c0.135,0.009,0.279,0.018,0.414,0.018c0.612,0,1.207-0.243,1.207-1.035c0-0.378-0.225-1-1.17-1
			c-1.125,0-1.197,0.918-1.233,1.359h-0.774c0-0.927,0.378-2.071,2.044-2.071c1.224,0,1.954,0.703,1.954,1.666
			c0,0.811-0.468,1.198-0.811,1.306v0.018c0.612,0.198,1.053,0.63,1.053,1.476c0,1.036-0.666,2.035-2.277,2.035
			c-0.468,0-0.864-0.117-1.17-0.279c-0.702-0.369-0.892-1.099-0.945-1.828h0.819c0.027,0.594,0.171,1.396,1.35,1.396
			c0.811,0,1.377-0.495,1.377-1.225c0-1.062-0.936-1.161-1.477-1.161c-0.117,0-0.243,0.009-0.36,0.009V24.138z"/>
		<path d="M66.484,26.199v1.54h-0.792v-1.54h-2.764v-0.774l2.899-4.016h0.657v4.105h0.927v0.684H66.484z M63.657,25.515h2.035
			v-2.872h-0.018L63.657,25.515z"/>
	</g>
</g>
</svg>
