<?xml version="1.0" encoding="utf-8"?>
<!-- Generator: Adobe Illustrator 28.2.0, SVG Export Plug-In . SVG Version: 6.00 Build 0)  -->
<svg version="1.1" id="儗僀儎乕_1" xmlns="http://www.w3.org/2000/svg" xmlns:xlink="http://www.w3.org/1999/xlink" x="0px"
	 y="0px" width="390.065px" height="152.491px" viewBox="0 0 390.065 152.491" style="enable-background:new 0 0 390.065 152.491;"
	 xml:space="preserve">
<style type="text/css">
	.st0{fill:#FFFFFF;stroke:#000000;}
	.st1{fill:none;stroke:#000000;}
	.st2{fill:none;stroke:#000000;stroke-width:0.5;stroke-dasharray:1.5;}
	.st3{fill:#CCCCCC;}
	.st4{fill:none;stroke:#000000;stroke-width:0.5;}
</style>
<rect x="241.355" y="7.634" class="st0" width="142.333" height="17.717"/>
<line class="st0" x1="348.261" y1="25.351" x2="348.261" y2="7.634"/>
<line class="st1" x1="27.615" y1="16.873" x2="240.441" y2="16.873"/>
<line class="st1" x1="383.662" y1="16.873" x2="389.565" y2="16.873"/>
<line class="st1" x1="0.5" y1="16.873" x2="18" y2="16.873"/>
<line class="st1" x1="0.5" y1="0" x2="0.5" y2="31.164"/>
<line class="st1" x1="389.565" y1="0" x2="389.565" y2="31.164"/>
<line class="st0" x1="27.615" y1="21.954" x2="27.615" y2="13.095"/>
<line class="st0" x1="18.248" y1="13.095" x2="18.248" y2="21.954"/>
<line class="st0" x1="312.277" y1="25.351" x2="312.277" y2="7.634"/>
<line class="st0" x1="276.79" y1="25.351" x2="276.79" y2="7.634"/>
<g>
	<path d="M261.879,20.433h-1.026l-0.603-0.738c-0.441,0.504-0.937,0.874-1.882,0.874c-1.611,0-1.899-1.198-1.899-1.693
		c0-0.882,0.261-1.359,1.458-2.035c-0.468-0.576-0.685-0.873-0.685-1.431c0-0.747,0.541-1.44,1.531-1.44
		c1.017,0,1.449,0.684,1.449,1.333c0,0.909-0.685,1.368-1.161,1.692l1.179,1.404c0.145-0.396,0.181-0.531,0.262-1.008h0.747
		c-0.036,0.441-0.189,1.035-0.522,1.647L261.879,20.433z M258.368,17.382c-0.693,0.441-1.107,0.738-1.107,1.431
		c0,0.811,0.801,1.071,1.161,1.071c0.576,0,1.062-0.252,1.404-0.72L258.368,17.382z M259.457,15.365
		c0-0.576-0.432-0.711-0.693-0.711c-0.666,0-0.756,0.486-0.756,0.702c0,0.423,0.396,0.882,0.64,1.125
		C258.989,16.247,259.457,15.914,259.457,15.365z"/>
</g>
<g>
	<path d="M108.651,85.914l-0.525,1.464h-0.7l1.891-5.029h0.77l1.821,5.029h-0.743l-0.497-1.464H108.651z M110.423,85.312
		l-0.742-2.213h-0.014l-0.806,2.213H110.423z"/>
	<path d="M115.862,82.349h0.658v5.029h-0.763l-2.557-4.062h-0.014v4.062h-0.658v-5.029h0.806l2.514,4.062h0.014V82.349z"/>
	<path d="M117.617,82.349h2.038c1.31,0,2.115,0.995,2.115,2.444c0,1.128-0.49,2.584-2.144,2.584h-2.01V82.349z M118.296,86.796
		h1.317c0.882,0,1.457-0.693,1.457-1.961s-0.581-1.905-1.506-1.905h-1.268V86.796z"/>
</g>
<g>
	<g>
		<path d="M32.414,63.973c-0.045-1-0.874-1.314-1.603-1.314c-0.549,0-1.477,0.153-1.477,1.134c0,0.549,0.387,0.729,0.765,0.819
			l1.846,0.423c0.837,0.198,1.467,0.702,1.467,1.729c0,1.531-1.422,1.954-2.53,1.954c-1.197,0-1.666-0.36-1.954-0.621
			c-0.549-0.495-0.657-1.035-0.657-1.638h0.819c0,1.17,0.955,1.512,1.783,1.512c0.63,0,1.692-0.162,1.692-1.089
			c0-0.675-0.315-0.891-1.377-1.144l-1.323-0.306c-0.423-0.099-1.377-0.396-1.377-1.521c0-1.008,0.657-1.999,2.224-1.999
			c2.26,0,2.485,1.35,2.521,2.062H32.414z"/>
		<path d="M35.32,68.546h-0.792v-4.708h0.747v0.783h0.018c0.315-0.549,0.729-0.918,1.323-0.918c0.099,0,0.144,0.009,0.207,0.027
			v0.819h-0.297c-0.738,0-1.207,0.576-1.207,1.26V68.546z"/>
		<path d="M40.18,65.422c-0.099-0.63-0.45-1.008-1.117-1.008c-0.981,0-1.296,0.937-1.296,1.773c0,0.811,0.198,1.81,1.288,1.81
			c0.531,0,0.99-0.396,1.125-1.116h0.765c-0.081,0.747-0.541,1.801-1.917,1.801c-1.324,0-2.107-1-2.107-2.359
			c0-1.458,0.702-2.62,2.26-2.62c1.233,0,1.702,0.9,1.765,1.719H40.18z"/>
		<path d="M44.383,68.546h-0.846v-4.492H42.06v-0.63c1.026-0.072,1.45-0.171,1.702-1.207h0.621V68.546z"/>
	</g>
</g>
<g>
	<g>
		<path d="M289.812,15.623c-0.045-1-0.873-1.314-1.603-1.314c-0.549,0-1.476,0.153-1.476,1.134c0,0.549,0.387,0.729,0.765,0.819
			l1.846,0.423c0.837,0.198,1.468,0.702,1.468,1.729c0,1.531-1.423,1.954-2.53,1.954c-1.197,0-1.665-0.36-1.953-0.621
			c-0.55-0.495-0.657-1.035-0.657-1.638h0.819c0,1.17,0.954,1.512,1.782,1.512c0.63,0,1.692-0.162,1.692-1.089
			c0-0.675-0.315-0.891-1.377-1.144l-1.324-0.306c-0.423-0.099-1.377-0.396-1.377-1.521c0-1.008,0.657-1.999,2.224-1.999
			c2.26,0,2.484,1.35,2.521,2.062H289.812z"/>
		<path d="M292.719,20.197h-0.792v-4.708h0.747v0.783h0.018c0.315-0.549,0.729-0.918,1.324-0.918c0.099,0,0.144,0.009,0.207,0.027
			V16.2h-0.298c-0.738,0-1.206,0.576-1.206,1.26V20.197z"/>
		<path d="M297.58,17.073c-0.1-0.63-0.45-1.008-1.116-1.008c-0.981,0-1.297,0.937-1.297,1.773c0,0.811,0.198,1.81,1.287,1.81
			c0.531,0,0.99-0.396,1.126-1.116h0.765c-0.081,0.747-0.54,1.801-1.917,1.801c-1.323,0-2.106-1-2.106-2.359
			c0-1.458,0.702-2.62,2.259-2.62c1.233,0,1.702,0.9,1.765,1.719H297.58z"/>
		<path d="M301.783,20.197h-0.847v-4.492h-1.477v-0.63c1.026-0.072,1.449-0.171,1.701-1.207h0.622V20.197z"/>
	</g>
</g>
<g>
	<g>
		<path d="M325.437,15.623c-0.045-1-0.873-1.314-1.603-1.314c-0.549,0-1.476,0.153-1.476,1.134c0,0.549,0.387,0.729,0.765,0.819
			l1.846,0.423c0.837,0.198,1.468,0.702,1.468,1.729c0,1.531-1.423,1.954-2.53,1.954c-1.197,0-1.665-0.36-1.953-0.621
			c-0.55-0.495-0.657-1.035-0.657-1.638h0.819c0,1.17,0.954,1.512,1.782,1.512c0.63,0,1.692-0.162,1.692-1.089
			c0-0.675-0.315-0.891-1.377-1.144l-1.324-0.306c-0.423-0.099-1.377-0.396-1.377-1.521c0-1.008,0.657-1.999,2.224-1.999
			c2.26,0,2.484,1.35,2.521,2.062H325.437z"/>
		<path d="M328.344,20.197h-0.792v-4.708h0.747v0.783h0.018c0.315-0.549,0.729-0.918,1.324-0.918c0.099,0,0.144,0.009,0.207,0.027
			V16.2h-0.298c-0.738,0-1.206,0.576-1.206,1.26V20.197z"/>
		<path d="M333.205,17.073c-0.1-0.63-0.45-1.008-1.116-1.008c-0.981,0-1.297,0.937-1.297,1.773c0,0.811,0.198,1.81,1.287,1.81
			c0.531,0,0.99-0.396,1.126-1.116h0.765c-0.081,0.747-0.54,1.801-1.917,1.801c-1.323,0-2.106-1-2.106-2.359
			c0-1.458,0.702-2.62,2.259-2.62c1.233,0,1.702,0.9,1.765,1.719H333.205z"/>
		<path d="M334.572,16.137c0-2.062,1.503-2.269,2.188-2.269c1.098,0,1.98,0.711,1.98,1.891c0,1.134-0.747,1.612-1.692,2.116
			l-0.657,0.36c-0.864,0.477-1.054,0.972-1.09,1.215h3.439v0.747h-4.33c0.045-1.314,0.639-2.017,1.485-2.512l0.837-0.486
			c0.676-0.387,1.161-0.648,1.161-1.476c0-0.504-0.324-1.144-1.251-1.144c-1.197,0-1.251,1.116-1.278,1.558H334.572z"/>
	</g>
</g>
<g>
	<g>
		<path d="M359.622,13.733h2.619c1.684,0,2.719,1.278,2.719,3.142c0,1.449-0.63,3.322-2.755,3.322h-2.583V13.733z M360.495,19.45
			h1.692c1.135,0,1.873-0.892,1.873-2.521s-0.748-2.449-1.936-2.449h-1.63V19.45z"/>
		<path d="M368.649,16.829c-0.009-0.297-0.117-0.792-1.116-0.792c-0.243,0-0.937,0.081-0.937,0.666c0,0.387,0.243,0.477,0.855,0.63
			l0.792,0.198c0.981,0.243,1.324,0.603,1.324,1.242c0,0.972-0.802,1.558-1.864,1.558c-1.863,0-1.998-1.081-2.025-1.647h0.766
			c0.026,0.369,0.135,0.963,1.251,0.963c0.567,0,1.08-0.225,1.08-0.747c0-0.378-0.261-0.504-0.936-0.675L366.921,18
			c-0.657-0.162-1.089-0.495-1.089-1.143c0-1.036,0.855-1.503,1.782-1.503c1.684,0,1.801,1.242,1.801,1.476H368.649z"/>
		<path d="M371.448,16.145v3.061c0,0.369,0.315,0.369,0.477,0.369h0.279v0.621c-0.288,0.027-0.513,0.063-0.594,0.063
			c-0.783,0-0.954-0.441-0.954-1.008v-3.106h-0.64v-0.657h0.64v-1.314h0.792v1.314h0.756v0.657H371.448z"/>
	</g>
</g>
<polyline class="st2" points="171.359,65.721 294.995,65.721 294.995,25.524 "/>
<polyline class="st2" points="171.359,104.471 330.283,104.471 330.283,25.732 "/>
<polyline class="st2" points="171.359,143.54 366.102,143.54 366.102,25.622 "/>
<g>
	<path d="M57.72,48.868v-5.029h0.616v1.828h0.014c0.266-0.385,0.63-0.561,1.058-0.567c0.974,0,1.527,0.798,1.527,1.828
		c0,0.875-0.364,2.045-1.611,2.045c-0.624,0-0.883-0.357-1.009-0.56h-0.014v0.455H57.72z M59.296,45.653
		c-0.889,0-0.987,0.959-0.987,1.555c0,0.973,0.609,1.232,1.001,1.232c0.672,0,0.987-0.609,0.987-1.415
		C60.297,46.557,60.248,45.653,59.296,45.653z"/>
	<path d="M61.675,44.539v-0.701h0.616v0.701H61.675z M62.291,48.868h-0.616v-3.663h0.616V48.868z"/>
	<path d="M63.971,45.716v2.381c0,0.287,0.246,0.287,0.372,0.287h0.217v0.483c-0.224,0.021-0.399,0.049-0.462,0.049
		c-0.609,0-0.743-0.343-0.743-0.784v-2.417h-0.497v-0.511h0.497v-1.022h0.616v1.022h0.588v0.511H63.971z"/>
	<path d="M59.772,55.118h-0.658v-3.495h-1.148v-0.49c0.798-0.056,1.127-0.133,1.324-0.938h0.483V55.118z"/>
	<path d="M61.899,52.253c0.21-0.161,0.511-0.308,0.952-0.308c0.798,0,1.618,0.561,1.618,1.576c0,0.546-0.245,1.73-1.786,1.73
		c-0.645,0-1.471-0.259-1.59-1.359h0.637c0.063,0.574,0.49,0.826,1.043,0.826c0.638,0,1.037-0.511,1.037-1.127
		c0-0.708-0.483-1.093-1.092-1.093c-0.357,0-0.68,0.168-0.911,0.469l-0.532-0.028l0.371-2.64h2.549v0.602h-2.087L61.899,52.253z"/>
</g>
<g>
	<path d="M164.355,48.868v-5.029h0.616v1.828h0.014c0.267-0.385,0.631-0.561,1.058-0.567c0.974,0,1.527,0.798,1.527,1.828
		c0,0.875-0.364,2.045-1.611,2.045c-0.623,0-0.882-0.357-1.008-0.56h-0.015v0.455H164.355z M165.931,45.653
		c-0.89,0-0.988,0.959-0.988,1.555c0,0.973,0.609,1.232,1.002,1.232c0.672,0,0.987-0.609,0.987-1.415
		C166.932,46.557,166.884,45.653,165.931,45.653z"/>
	<path d="M168.31,44.539v-0.701h0.616v0.701H168.31z M168.927,48.868h-0.616v-3.663h0.616V48.868z"/>
	<path d="M170.607,45.716v2.381c0,0.287,0.245,0.287,0.371,0.287h0.217v0.483c-0.224,0.021-0.399,0.049-0.462,0.049
		c-0.609,0-0.742-0.343-0.742-0.784v-2.417h-0.498v-0.511h0.498v-1.022h0.616v1.022h0.588v0.511H170.607z"/>
	<path d="M167.646,55.251c-1.415,0-1.688-1.506-1.688-2.529c0-1.022,0.273-2.528,1.688-2.528c1.414,0,1.688,1.506,1.688,2.528
		C169.334,53.745,169.06,55.251,167.646,55.251z M167.646,50.747c-0.708,0-1.029,0.742-1.029,1.975c0,1.233,0.321,1.975,1.029,1.975
		c0.707,0,1.029-0.742,1.029-1.975C168.676,51.49,168.353,50.747,167.646,50.747z"/>
</g>
<rect x="58.335" y="56.402" class="st3" width="28.362" height="17.5"/>
<rect x="114.741" y="56.402" class="st3" width="28.255" height="17.5"/>
<rect x="58.48" y="56.423" class="st4" width="112.872" height="17.717"/>
<line class="st4" x1="157.019" y1="69.553" x2="157.019" y2="73.72"/>
<line class="st4" x1="157.019" y1="56.636" x2="157.019" y2="60.804"/>
<line class="st4" x1="164.104" y1="69.553" x2="164.104" y2="73.72"/>
<line class="st4" x1="164.104" y1="56.636" x2="164.104" y2="60.804"/>
<line class="st4" x1="142.949" y1="69.553" x2="142.949" y2="73.72"/>
<line class="st4" x1="142.949" y1="56.636" x2="142.949" y2="60.804"/>
<line class="st4" x1="150.037" y1="69.553" x2="150.037" y2="73.72"/>
<line class="st4" x1="150.037" y1="56.636" x2="150.037" y2="60.804"/>
<line class="st4" x1="128.882" y1="69.553" x2="128.882" y2="73.72"/>
<line class="st4" x1="128.882" y1="56.636" x2="128.882" y2="60.804"/>
<line class="st4" x1="135.967" y1="69.553" x2="135.967" y2="73.72"/>
<line class="st4" x1="135.967" y1="56.636" x2="135.967" y2="60.804"/>
<line class="st4" x1="114.794" y1="69.553" x2="114.794" y2="73.72"/>
<line class="st4" x1="114.794" y1="56.636" x2="114.794" y2="60.804"/>
<line class="st4" x1="121.895" y1="69.553" x2="121.895" y2="73.72"/>
<line class="st4" x1="121.895" y1="56.636" x2="121.895" y2="60.804"/>
<line class="st4" x1="100.712" y1="69.553" x2="100.712" y2="73.72"/>
<line class="st4" x1="100.712" y1="56.636" x2="100.712" y2="60.804"/>
<line class="st4" x1="107.8" y1="69.553" x2="107.8" y2="73.72"/>
<line class="st4" x1="107.8" y1="56.636" x2="107.8" y2="60.804"/>
<line class="st4" x1="86.643" y1="69.553" x2="86.643" y2="73.72"/>
<line class="st4" x1="86.643" y1="56.636" x2="86.643" y2="60.804"/>
<line class="st4" x1="93.73" y1="69.553" x2="93.73" y2="73.72"/>
<line class="st4" x1="93.73" y1="56.636" x2="93.73" y2="60.804"/>
<line class="st4" x1="72.575" y1="69.553" x2="72.575" y2="73.72"/>
<line class="st4" x1="72.575" y1="56.636" x2="72.575" y2="60.804"/>
<line class="st4" x1="79.66" y1="69.553" x2="79.66" y2="73.72"/>
<line class="st4" x1="79.66" y1="56.636" x2="79.66" y2="60.804"/>
<line class="st4" x1="65.593" y1="69.553" x2="65.593" y2="73.72"/>
<line class="st4" x1="65.593" y1="56.636" x2="65.593" y2="60.804"/>
<line class="st1" x1="58.161" y1="74.139" x2="170.82" y2="74.139"/>
<line class="st1" x1="171.351" y1="74.139" x2="171.351" y2="56.423"/>
<g>
	<g>
		<path d="M62.887,68.643h-0.762V64.6h-1.329v-0.567c0.924-0.065,1.305-0.154,1.531-1.085h0.559V68.643z"/>
		<path d="M69.886,68.643h-0.762V64.6h-1.329v-0.567c0.924-0.065,1.305-0.154,1.531-1.085h0.559V68.643z"/>
		<path d="M76.884,68.643h-0.762V64.6h-1.329v-0.567c0.924-0.065,1.305-0.154,1.531-1.085h0.559V68.643z"/>
		<path d="M83.882,68.643H83.12V64.6h-1.329v-0.567c0.924-0.065,1.305-0.154,1.531-1.085h0.559V68.643z"/>
		<path d="M90.224,68.797c-1.637,0-1.953-1.742-1.953-2.925s0.316-2.925,1.953-2.925s1.953,1.742,1.953,2.925
			S91.861,68.797,90.224,68.797z M90.224,63.587c-0.818,0-1.191,0.859-1.191,2.285c0,1.426,0.373,2.285,1.191,2.285
			s1.191-0.859,1.191-2.285C91.415,64.446,91.043,63.587,90.224,63.587z"/>
		<path d="M97.223,68.797c-1.637,0-1.953-1.742-1.953-2.925s0.316-2.925,1.953-2.925s1.953,1.742,1.953,2.925
			S98.86,68.797,97.223,68.797z M97.223,63.587c-0.818,0-1.191,0.859-1.191,2.285c0,1.426,0.373,2.285,1.191,2.285
			s1.191-0.859,1.191-2.285C98.414,64.446,98.041,63.587,97.223,63.587z"/>
		<path d="M104.221,68.797c-1.637,0-1.953-1.742-1.953-2.925s0.316-2.925,1.953-2.925s1.953,1.742,1.953,2.925
			S105.858,68.797,104.221,68.797z M104.221,63.587c-0.818,0-1.191,0.859-1.191,2.285c0,1.426,0.373,2.285,1.191,2.285
			s1.191-0.859,1.191-2.285C105.412,64.446,105.039,63.587,104.221,63.587z"/>
		<path d="M111.219,68.797c-1.637,0-1.953-1.742-1.953-2.925s0.316-2.925,1.953-2.925s1.953,1.742,1.953,2.925
			S112.856,68.797,111.219,68.797z M111.219,63.587c-0.818,0-1.191,0.859-1.191,2.285c0,1.426,0.373,2.285,1.191,2.285
			s1.191-0.859,1.191-2.285C112.41,64.446,112.038,63.587,111.219,63.587z"/>
		<path d="M118.874,68.643h-0.762V64.6h-1.329v-0.567c0.924-0.065,1.305-0.154,1.531-1.085h0.559V68.643z"/>
		<path d="M125.873,68.643h-0.762V64.6h-1.329v-0.567c0.924-0.065,1.305-0.154,1.531-1.085h0.559V68.643z"/>
		<path d="M132.871,68.643h-0.762V64.6h-1.329v-0.567c0.924-0.065,1.305-0.154,1.531-1.085h0.559V68.643z"/>
		<path d="M139.869,68.643h-0.762V64.6h-1.329v-0.567c0.924-0.065,1.305-0.154,1.531-1.085h0.559V68.643z"/>
		<path d="M146.212,68.797c-1.637,0-1.953-1.742-1.953-2.925s0.316-2.925,1.953-2.925s1.953,1.742,1.953,2.925
			S147.848,68.797,146.212,68.797z M146.212,63.587c-0.818,0-1.191,0.859-1.191,2.285c0,1.426,0.373,2.285,1.191,2.285
			s1.191-0.859,1.191-2.285C147.403,64.446,147.03,63.587,146.212,63.587z"/>
		<path d="M153.21,68.797c-1.637,0-1.953-1.742-1.953-2.925s0.316-2.925,1.953-2.925s1.953,1.742,1.953,2.925
			S154.846,68.797,153.21,68.797z M153.21,63.587c-0.818,0-1.191,0.859-1.191,2.285c0,1.426,0.373,2.285,1.191,2.285
			s1.191-0.859,1.191-2.285C154.401,64.446,154.028,63.587,153.21,63.587z"/>
		<path d="M160.209,68.797c-1.637,0-1.953-1.742-1.953-2.925s0.316-2.925,1.953-2.925c1.636,0,1.952,1.742,1.952,2.925
			S161.844,68.797,160.209,68.797z M160.209,63.587c-0.819,0-1.191,0.859-1.191,2.285c0,1.426,0.373,2.285,1.191,2.285
			c0.818,0,1.19-0.859,1.19-2.285C161.399,64.446,161.027,63.587,160.209,63.587z"/>
		<path d="M167.207,68.797c-1.637,0-1.953-1.742-1.953-2.925s0.316-2.925,1.953-2.925c1.636,0,1.952,1.742,1.952,2.925
			S168.843,68.797,167.207,68.797z M167.207,63.587c-0.818,0-1.191,0.859-1.191,2.285c0,1.426,0.373,2.285,1.191,2.285
			s1.19-0.859,1.19-2.285C168.397,64.446,168.025,63.587,167.207,63.587z"/>
	</g>
</g>
<g>
	<g>
		<path d="M32.414,102.898c-0.045-1-0.874-1.314-1.603-1.314c-0.549,0-1.477,0.153-1.477,1.134c0,0.549,0.387,0.729,0.765,0.819
			l1.846,0.423c0.837,0.198,1.467,0.702,1.467,1.729c0,1.531-1.422,1.954-2.53,1.954c-1.197,0-1.666-0.36-1.954-0.621
			c-0.549-0.495-0.657-1.035-0.657-1.638h0.819c0,1.17,0.955,1.512,1.783,1.512c0.63,0,1.692-0.162,1.692-1.089
			c0-0.675-0.315-0.891-1.377-1.144l-1.323-0.306c-0.423-0.099-1.377-0.396-1.377-1.521c0-1.008,0.657-1.999,2.224-1.999
			c2.26,0,2.485,1.35,2.521,2.062H32.414z"/>
		<path d="M35.32,107.472h-0.792v-4.708h0.747v0.783h0.018c0.315-0.549,0.729-0.918,1.323-0.918c0.099,0,0.144,0.009,0.207,0.027
			v0.819h-0.297c-0.738,0-1.207,0.576-1.207,1.26V107.472z"/>
		<path d="M40.18,104.348c-0.099-0.63-0.45-1.008-1.117-1.008c-0.981,0-1.296,0.937-1.296,1.773c0,0.811,0.198,1.81,1.288,1.81
			c0.531,0,0.99-0.396,1.125-1.116h0.765c-0.081,0.747-0.541,1.801-1.917,1.801c-1.324,0-2.107-1-2.107-2.359
			c0-1.458,0.702-2.62,2.26-2.62c1.233,0,1.702,0.9,1.765,1.719H40.18z"/>
		<path d="M41.547,103.412c0-2.062,1.503-2.269,2.188-2.269c1.098,0,1.98,0.711,1.98,1.891c0,1.134-0.747,1.612-1.692,2.116
			l-0.657,0.36c-0.864,0.477-1.054,0.972-1.089,1.215h3.439v0.747h-4.331c0.045-1.314,0.639-2.017,1.486-2.512l0.837-0.486
			c0.675-0.387,1.162-0.648,1.162-1.476c0-0.504-0.324-1.144-1.251-1.144c-1.197,0-1.251,1.116-1.278,1.558H41.547z"/>
	</g>
</g>
<g>
	<path d="M57.72,87.793v-5.029h0.616v1.828h0.014c0.266-0.385,0.63-0.561,1.058-0.567c0.974,0,1.527,0.798,1.527,1.828
		c0,0.875-0.364,2.045-1.611,2.045c-0.624,0-0.883-0.357-1.009-0.56h-0.014v0.455H57.72z M59.296,84.579
		c-0.889,0-0.987,0.959-0.987,1.555c0,0.973,0.609,1.232,1.001,1.232c0.672,0,0.987-0.609,0.987-1.415
		C60.297,85.482,60.248,84.579,59.296,84.579z"/>
	<path d="M61.675,83.465v-0.701h0.616v0.701H61.675z M62.291,87.793h-0.616V84.13h0.616V87.793z"/>
	<path d="M63.971,84.642v2.381c0,0.287,0.246,0.287,0.372,0.287h0.217v0.483c-0.224,0.021-0.399,0.049-0.462,0.049
		c-0.609,0-0.743-0.343-0.743-0.784v-2.417h-0.497V84.13h0.497v-1.022h0.616v1.022h0.588v0.511H63.971z"/>
	<path d="M59.772,94.043h-0.658v-3.495h-1.148v-0.49c0.798-0.056,1.127-0.133,1.324-0.938h0.483V94.043z"/>
	<path d="M61.899,91.179c0.21-0.161,0.511-0.308,0.952-0.308c0.798,0,1.618,0.561,1.618,1.576c0,0.546-0.245,1.73-1.786,1.73
		c-0.645,0-1.471-0.259-1.59-1.359h0.637c0.063,0.574,0.49,0.826,1.043,0.826c0.638,0,1.037-0.511,1.037-1.127
		c0-0.708-0.483-1.093-1.092-1.093c-0.357,0-0.68,0.168-0.911,0.469l-0.532-0.028l0.371-2.64h2.549v0.602h-2.087L61.899,91.179z"/>
</g>
<g>
	<path d="M164.355,87.793v-5.029h0.616v1.828h0.014c0.267-0.385,0.631-0.561,1.058-0.567c0.974,0,1.527,0.798,1.527,1.828
		c0,0.875-0.364,2.045-1.611,2.045c-0.623,0-0.882-0.357-1.008-0.56h-0.015v0.455H164.355z M165.931,84.579
		c-0.89,0-0.988,0.959-0.988,1.555c0,0.973,0.609,1.232,1.002,1.232c0.672,0,0.987-0.609,0.987-1.415
		C166.932,85.482,166.884,84.579,165.931,84.579z"/>
	<path d="M168.31,83.465v-0.701h0.616v0.701H168.31z M168.927,87.793h-0.616V84.13h0.616V87.793z"/>
	<path d="M170.607,84.642v2.381c0,0.287,0.245,0.287,0.371,0.287h0.217v0.483c-0.224,0.021-0.399,0.049-0.462,0.049
		c-0.609,0-0.742-0.343-0.742-0.784v-2.417h-0.498V84.13h0.498v-1.022h0.616v1.022h0.588v0.511H170.607z"/>
	<path d="M167.646,94.177c-1.415,0-1.688-1.506-1.688-2.529c0-1.022,0.273-2.528,1.688-2.528c1.414,0,1.688,1.506,1.688,2.528
		C169.334,92.671,169.06,94.177,167.646,94.177z M167.646,89.673c-0.708,0-1.029,0.742-1.029,1.975c0,1.233,0.321,1.975,1.029,1.975
		c0.707,0,1.029-0.742,1.029-1.975C168.676,90.415,168.353,89.673,167.646,89.673z"/>
</g>
<rect x="114.741" y="95.328" class="st3" width="56.511" height="17.5"/>
<rect x="58.48" y="95.348" class="st4" width="112.872" height="17.717"/>
<line class="st4" x1="157.019" y1="108.479" x2="157.019" y2="112.646"/>
<line class="st4" x1="157.019" y1="95.562" x2="157.019" y2="99.729"/>
<line class="st4" x1="164.104" y1="108.479" x2="164.104" y2="112.646"/>
<line class="st4" x1="164.104" y1="95.562" x2="164.104" y2="99.729"/>
<line class="st4" x1="142.949" y1="108.479" x2="142.949" y2="112.646"/>
<line class="st4" x1="142.949" y1="95.562" x2="142.949" y2="99.729"/>
<line class="st4" x1="150.037" y1="108.479" x2="150.037" y2="112.646"/>
<line class="st4" x1="150.037" y1="95.562" x2="150.037" y2="99.729"/>
<line class="st4" x1="128.882" y1="108.479" x2="128.882" y2="112.646"/>
<line class="st4" x1="128.882" y1="95.562" x2="128.882" y2="99.729"/>
<line class="st4" x1="135.967" y1="108.479" x2="135.967" y2="112.646"/>
<line class="st4" x1="135.967" y1="95.562" x2="135.967" y2="99.729"/>
<line class="st4" x1="114.794" y1="108.479" x2="114.794" y2="112.646"/>
<line class="st4" x1="114.794" y1="95.562" x2="114.794" y2="99.729"/>
<line class="st4" x1="121.895" y1="108.479" x2="121.895" y2="112.646"/>
<line class="st4" x1="121.895" y1="95.562" x2="121.895" y2="99.729"/>
<line class="st4" x1="100.712" y1="108.479" x2="100.712" y2="112.646"/>
<line class="st4" x1="100.712" y1="95.562" x2="100.712" y2="99.729"/>
<line class="st4" x1="107.8" y1="108.479" x2="107.8" y2="112.646"/>
<line class="st4" x1="107.8" y1="95.562" x2="107.8" y2="99.729"/>
<line class="st4" x1="86.643" y1="108.479" x2="86.643" y2="112.646"/>
<line class="st4" x1="86.643" y1="95.562" x2="86.643" y2="99.729"/>
<line class="st4" x1="93.73" y1="108.479" x2="93.73" y2="112.646"/>
<line class="st4" x1="93.73" y1="95.562" x2="93.73" y2="99.729"/>
<line class="st4" x1="72.575" y1="108.479" x2="72.575" y2="112.646"/>
<line class="st4" x1="72.575" y1="95.562" x2="72.575" y2="99.729"/>
<line class="st4" x1="79.66" y1="108.479" x2="79.66" y2="112.646"/>
<line class="st4" x1="79.66" y1="95.562" x2="79.66" y2="99.729"/>
<line class="st4" x1="65.593" y1="108.479" x2="65.593" y2="112.646"/>
<line class="st4" x1="65.593" y1="95.562" x2="65.593" y2="99.729"/>
<line class="st1" x1="58.161" y1="113.065" x2="170.82" y2="113.065"/>
<line class="st1" x1="171.351" y1="113.065" x2="171.351" y2="95.348"/>
<g>
	<g>
		<path d="M62.231,107.723c-1.637,0-1.953-1.742-1.953-2.925s0.316-2.925,1.953-2.925s1.953,1.742,1.953,2.925
			S63.867,107.723,62.231,107.723z M62.231,102.513c-0.818,0-1.191,0.859-1.191,2.285c0,1.426,0.373,2.285,1.191,2.285
			s1.191-0.859,1.191-2.285C63.422,103.372,63.049,102.513,62.231,102.513z"/>
		<path d="M69.229,107.723c-1.637,0-1.953-1.742-1.953-2.925s0.316-2.925,1.953-2.925s1.953,1.742,1.953,2.925
			S70.866,107.723,69.229,107.723z M69.229,102.513c-0.818,0-1.191,0.859-1.191,2.285c0,1.426,0.373,2.285,1.191,2.285
			s1.191-0.859,1.191-2.285C70.42,103.372,70.048,102.513,69.229,102.513z"/>
		<path d="M76.227,107.723c-1.637,0-1.953-1.742-1.953-2.925s0.316-2.925,1.953-2.925s1.953,1.742,1.953,2.925
			S77.864,107.723,76.227,107.723z M76.227,102.513c-0.818,0-1.191,0.859-1.191,2.285c0,1.426,0.373,2.285,1.191,2.285
			s1.191-0.859,1.191-2.285C77.418,103.372,77.046,102.513,76.227,102.513z"/>
		<path d="M83.226,107.723c-1.637,0-1.953-1.742-1.953-2.925s0.316-2.925,1.953-2.925s1.953,1.742,1.953,2.925
			S84.863,107.723,83.226,107.723z M83.226,102.513c-0.818,0-1.191,0.859-1.191,2.285c0,1.426,0.373,2.285,1.191,2.285
			s1.191-0.859,1.191-2.285C84.417,103.372,84.044,102.513,83.226,102.513z"/>
		<path d="M90.224,107.723c-1.637,0-1.953-1.742-1.953-2.925s0.316-2.925,1.953-2.925s1.953,1.742,1.953,2.925
			S91.861,107.723,90.224,107.723z M90.224,102.513c-0.818,0-1.191,0.859-1.191,2.285c0,1.426,0.373,2.285,1.191,2.285
			s1.191-0.859,1.191-2.285C91.415,103.372,91.043,102.513,90.224,102.513z"/>
		<path d="M97.223,107.723c-1.637,0-1.953-1.742-1.953-2.925s0.316-2.925,1.953-2.925s1.953,1.742,1.953,2.925
			S98.86,107.723,97.223,107.723z M97.223,102.513c-0.818,0-1.191,0.859-1.191,2.285c0,1.426,0.373,2.285,1.191,2.285
			s1.191-0.859,1.191-2.285C98.414,103.372,98.041,102.513,97.223,102.513z"/>
		<path d="M104.221,107.723c-1.637,0-1.953-1.742-1.953-2.925s0.316-2.925,1.953-2.925s1.953,1.742,1.953,2.925
			S105.858,107.723,104.221,107.723z M104.221,102.513c-0.818,0-1.191,0.859-1.191,2.285c0,1.426,0.373,2.285,1.191,2.285
			s1.191-0.859,1.191-2.285C105.412,103.372,105.039,102.513,104.221,102.513z"/>
		<path d="M111.219,107.723c-1.637,0-1.953-1.742-1.953-2.925s0.316-2.925,1.953-2.925s1.953,1.742,1.953,2.925
			S112.856,107.723,111.219,107.723z M111.219,102.513c-0.818,0-1.191,0.859-1.191,2.285c0,1.426,0.373,2.285,1.191,2.285
			s1.191-0.859,1.191-2.285C112.41,103.372,112.038,102.513,111.219,102.513z"/>
		<path d="M118.874,107.569h-0.762v-4.043h-1.329v-0.567c0.924-0.065,1.305-0.154,1.531-1.085h0.559V107.569z"/>
		<path d="M125.873,107.569h-0.762v-4.043h-1.329v-0.567c0.924-0.065,1.305-0.154,1.531-1.085h0.559V107.569z"/>
		<path d="M132.871,107.569h-0.762v-4.043h-1.329v-0.567c0.924-0.065,1.305-0.154,1.531-1.085h0.559V107.569z"/>
		<path d="M139.869,107.569h-0.762v-4.043h-1.329v-0.567c0.924-0.065,1.305-0.154,1.531-1.085h0.559V107.569z"/>
		<path d="M146.868,107.569h-0.762v-4.043h-1.329v-0.567c0.924-0.065,1.305-0.154,1.531-1.085h0.559V107.569z"/>
		<path d="M153.866,107.569h-0.762v-4.043h-1.329v-0.567c0.924-0.065,1.305-0.154,1.531-1.085h0.559V107.569z"/>
		<path d="M160.865,107.569h-0.762v-4.043h-1.329v-0.567c0.924-0.065,1.305-0.154,1.531-1.085h0.56V107.569z"/>
		<path d="M167.863,107.569h-0.762v-4.043h-1.329v-0.567c0.924-0.065,1.305-0.154,1.531-1.085h0.56V107.569z"/>
	</g>
</g>
<g>
	<g>
		<path d="M30.972,139.934h2.62c1.684,0,2.719,1.278,2.719,3.142c0,1.449-0.63,3.322-2.755,3.322h-2.584V139.934z M31.846,145.651
			h1.692c1.134,0,1.873-0.892,1.873-2.521c0-1.63-0.747-2.449-1.936-2.449h-1.629V145.651z"/>
		<path d="M40,143.031c-0.009-0.297-0.117-0.792-1.116-0.792c-0.243,0-0.936,0.081-0.936,0.666c0,0.388,0.243,0.478,0.855,0.63
			l0.792,0.198c0.981,0.243,1.323,0.604,1.323,1.242c0,0.973-0.801,1.558-1.864,1.558c-1.863,0-1.999-1.08-2.025-1.647h0.765
			c0.027,0.369,0.135,0.964,1.251,0.964c0.567,0,1.081-0.226,1.081-0.748c0-0.378-0.261-0.504-0.937-0.675l-0.918-0.225
			c-0.657-0.162-1.089-0.495-1.089-1.144c0-1.035,0.855-1.504,1.783-1.504c1.684,0,1.801,1.242,1.801,1.477H40z"/>
		<path d="M42.799,142.347v3.061c0,0.369,0.315,0.369,0.477,0.369h0.279v0.621c-0.288,0.027-0.513,0.063-0.594,0.063
			c-0.784,0-0.955-0.441-0.955-1.009v-3.105h-0.639v-0.657h0.639v-1.314h0.792v1.314h0.756v0.657H42.799z"/>
	</g>
</g>
<g>
	<path d="M57.72,126.719v-5.029h0.616v1.828h0.014c0.266-0.385,0.63-0.56,1.058-0.566c0.974,0,1.527,0.798,1.527,1.827
		c0,0.876-0.364,2.046-1.611,2.046c-0.624,0-0.883-0.357-1.009-0.561h-0.014v0.455H57.72z M59.296,123.504
		c-0.889,0-0.987,0.96-0.987,1.555c0,0.974,0.609,1.233,1.001,1.233c0.672,0,0.987-0.609,0.987-1.415
		C60.297,124.408,60.248,123.504,59.296,123.504z"/>
	<path d="M61.675,122.391v-0.701h0.616v0.701H61.675z M62.291,126.719h-0.616v-3.663h0.616V126.719z"/>
	<path d="M63.971,123.568v2.381c0,0.287,0.246,0.287,0.372,0.287h0.217v0.483c-0.224,0.021-0.399,0.049-0.462,0.049
		c-0.609,0-0.743-0.343-0.743-0.784v-2.416h-0.497v-0.512h0.497v-1.022h0.616v1.022h0.588v0.512H63.971z"/>
	<path d="M59.772,132.969h-0.658v-3.495h-1.148v-0.49c0.798-0.056,1.127-0.133,1.324-0.938h0.483V132.969z"/>
	<path d="M61.899,130.105c0.21-0.161,0.511-0.309,0.952-0.309c0.798,0,1.618,0.561,1.618,1.576c0,0.546-0.245,1.729-1.786,1.729
		c-0.645,0-1.471-0.259-1.59-1.358h0.637c0.063,0.574,0.49,0.826,1.043,0.826c0.638,0,1.037-0.511,1.037-1.127
		c0-0.708-0.483-1.093-1.092-1.093c-0.357,0-0.68,0.168-0.911,0.469l-0.532-0.027l0.371-2.641h2.549v0.603h-2.087L61.899,130.105z"
		/>
</g>
<g>
	<path d="M164.355,126.719v-5.029h0.616v1.828h0.014c0.267-0.385,0.631-0.56,1.058-0.566c0.974,0,1.527,0.798,1.527,1.827
		c0,0.876-0.364,2.046-1.611,2.046c-0.623,0-0.882-0.357-1.008-0.561h-0.015v0.455H164.355z M165.931,123.504
		c-0.89,0-0.988,0.96-0.988,1.555c0,0.974,0.609,1.233,1.002,1.233c0.672,0,0.987-0.609,0.987-1.415
		C166.932,124.408,166.884,123.504,165.931,123.504z"/>
	<path d="M168.31,122.391v-0.701h0.616v0.701H168.31z M168.927,126.719h-0.616v-3.663h0.616V126.719z"/>
	<path d="M170.607,123.568v2.381c0,0.287,0.245,0.287,0.371,0.287h0.217v0.483c-0.224,0.021-0.399,0.049-0.462,0.049
		c-0.609,0-0.742-0.343-0.742-0.784v-2.416h-0.498v-0.512h0.498v-1.022h0.616v1.022h0.588v0.512H170.607z"/>
	<path d="M167.646,133.102c-1.415,0-1.688-1.506-1.688-2.528s0.273-2.528,1.688-2.528c1.414,0,1.688,1.506,1.688,2.528
		S169.06,133.102,167.646,133.102z M167.646,128.599c-0.708,0-1.029,0.742-1.029,1.975s0.321,1.976,1.029,1.976
		c0.707,0,1.029-0.743,1.029-1.976S168.353,128.599,167.646,128.599z"/>
</g>
<rect x="114.741" y="134.253" class="st3" width="28.255" height="17.5"/>
<rect x="58.48" y="134.275" class="st4" width="112.872" height="17.716"/>
<line class="st4" x1="157.019" y1="147.405" x2="157.019" y2="151.572"/>
<line class="st4" x1="157.019" y1="134.487" x2="157.019" y2="138.655"/>
<line class="st4" x1="164.104" y1="147.405" x2="164.104" y2="151.572"/>
<line class="st4" x1="164.104" y1="134.487" x2="164.104" y2="138.655"/>
<line class="st4" x1="142.949" y1="147.405" x2="142.949" y2="151.572"/>
<line class="st4" x1="142.949" y1="134.487" x2="142.949" y2="138.655"/>
<line class="st4" x1="150.037" y1="147.405" x2="150.037" y2="151.572"/>
<line class="st4" x1="150.037" y1="134.487" x2="150.037" y2="138.655"/>
<line class="st4" x1="128.882" y1="147.405" x2="128.882" y2="151.572"/>
<line class="st4" x1="128.882" y1="134.487" x2="128.882" y2="138.655"/>
<line class="st4" x1="135.967" y1="147.405" x2="135.967" y2="151.572"/>
<line class="st4" x1="135.967" y1="134.487" x2="135.967" y2="138.655"/>
<line class="st4" x1="114.794" y1="147.405" x2="114.794" y2="151.572"/>
<line class="st4" x1="114.794" y1="134.487" x2="114.794" y2="138.655"/>
<line class="st4" x1="121.895" y1="147.405" x2="121.895" y2="151.572"/>
<line class="st4" x1="121.895" y1="134.487" x2="121.895" y2="138.655"/>
<line class="st4" x1="100.712" y1="147.405" x2="100.712" y2="151.572"/>
<line class="st4" x1="100.712" y1="134.487" x2="100.712" y2="138.655"/>
<line class="st4" x1="107.8" y1="147.405" x2="107.8" y2="151.572"/>
<line class="st4" x1="107.8" y1="134.487" x2="107.8" y2="138.655"/>
<line class="st4" x1="86.643" y1="147.405" x2="86.643" y2="151.572"/>
<line class="st4" x1="86.643" y1="134.487" x2="86.643" y2="138.655"/>
<line class="st4" x1="93.73" y1="147.405" x2="93.73" y2="151.572"/>
<line class="st4" x1="93.73" y1="134.487" x2="93.73" y2="138.655"/>
<line class="st4" x1="72.575" y1="147.405" x2="72.575" y2="151.572"/>
<line class="st4" x1="72.575" y1="134.487" x2="72.575" y2="138.655"/>
<line class="st4" x1="79.66" y1="147.405" x2="79.66" y2="151.572"/>
<line class="st4" x1="79.66" y1="134.487" x2="79.66" y2="138.655"/>
<line class="st4" x1="65.593" y1="147.405" x2="65.593" y2="151.572"/>
<line class="st4" x1="65.593" y1="134.487" x2="65.593" y2="138.655"/>
<line class="st1" x1="58.161" y1="151.991" x2="170.82" y2="151.991"/>
<line class="st1" x1="171.351" y1="151.991" x2="171.351" y2="134.275"/>
<g>
	<g>
		<path d="M62.231,146.389c-1.637,0-1.953-1.742-1.953-2.926c0-1.183,0.316-2.925,1.953-2.925s1.953,1.742,1.953,2.925
			C64.183,144.647,63.867,146.389,62.231,146.389z M62.231,141.179c-0.818,0-1.191,0.858-1.191,2.284
			c0,1.427,0.373,2.285,1.191,2.285s1.191-0.858,1.191-2.285C63.422,142.038,63.049,141.179,62.231,141.179z"/>
		<path d="M69.229,146.389c-1.637,0-1.953-1.742-1.953-2.926c0-1.183,0.316-2.925,1.953-2.925s1.953,1.742,1.953,2.925
			C71.182,144.647,70.866,146.389,69.229,146.389z M69.229,141.179c-0.818,0-1.191,0.858-1.191,2.284
			c0,1.427,0.373,2.285,1.191,2.285s1.191-0.858,1.191-2.285C70.42,142.038,70.048,141.179,69.229,141.179z"/>
		<path d="M76.227,146.389c-1.637,0-1.953-1.742-1.953-2.926c0-1.183,0.316-2.925,1.953-2.925s1.953,1.742,1.953,2.925
			C78.18,144.647,77.864,146.389,76.227,146.389z M76.227,141.179c-0.818,0-1.191,0.858-1.191,2.284
			c0,1.427,0.373,2.285,1.191,2.285s1.191-0.858,1.191-2.285C77.418,142.038,77.046,141.179,76.227,141.179z"/>
		<path d="M83.226,146.389c-1.637,0-1.953-1.742-1.953-2.926c0-1.183,0.316-2.925,1.953-2.925s1.953,1.742,1.953,2.925
			C85.178,144.647,84.863,146.389,83.226,146.389z M83.226,141.179c-0.818,0-1.191,0.858-1.191,2.284
			c0,1.427,0.373,2.285,1.191,2.285s1.191-0.858,1.191-2.285C84.417,142.038,84.044,141.179,83.226,141.179z"/>
		<path d="M90.224,146.389c-1.637,0-1.953-1.742-1.953-2.926c0-1.183,0.316-2.925,1.953-2.925s1.953,1.742,1.953,2.925
			C92.177,144.647,91.861,146.389,90.224,146.389z M90.224,141.179c-0.818,0-1.191,0.858-1.191,2.284
			c0,1.427,0.373,2.285,1.191,2.285s1.191-0.858,1.191-2.285C91.415,142.038,91.043,141.179,90.224,141.179z"/>
		<path d="M97.223,146.389c-1.637,0-1.953-1.742-1.953-2.926c0-1.183,0.316-2.925,1.953-2.925s1.953,1.742,1.953,2.925
			C99.176,144.647,98.86,146.389,97.223,146.389z M97.223,141.179c-0.818,0-1.191,0.858-1.191,2.284
			c0,1.427,0.373,2.285,1.191,2.285s1.191-0.858,1.191-2.285C98.414,142.038,98.041,141.179,97.223,141.179z"/>
		<path d="M104.221,146.389c-1.637,0-1.953-1.742-1.953-2.926c0-1.183,0.316-2.925,1.953-2.925s1.953,1.742,1.953,2.925
			C106.174,144.647,105.858,146.389,104.221,146.389z M104.221,141.179c-0.818,0-1.191,0.858-1.191,2.284
			c0,1.427,0.373,2.285,1.191,2.285s1.191-0.858,1.191-2.285C105.412,142.038,105.039,141.179,104.221,141.179z"/>
		<path d="M111.219,146.389c-1.637,0-1.953-1.742-1.953-2.926c0-1.183,0.316-2.925,1.953-2.925s1.953,1.742,1.953,2.925
			C113.172,144.647,112.856,146.389,111.219,146.389z M111.219,141.179c-0.818,0-1.191,0.858-1.191,2.284
			c0,1.427,0.373,2.285,1.191,2.285s1.191-0.858,1.191-2.285C112.41,142.038,112.038,141.179,111.219,141.179z"/>
		<path d="M118.874,146.235h-0.762v-4.043h-1.329v-0.567c0.924-0.064,1.305-0.154,1.531-1.086h0.559V146.235z"/>
		<path d="M125.873,146.235h-0.762v-4.043h-1.329v-0.567c0.924-0.064,1.305-0.154,1.531-1.086h0.559V146.235z"/>
		<path d="M132.871,146.235h-0.762v-4.043h-1.329v-0.567c0.924-0.064,1.305-0.154,1.531-1.086h0.559V146.235z"/>
		<path d="M139.869,146.235h-0.762v-4.043h-1.329v-0.567c0.924-0.064,1.305-0.154,1.531-1.086h0.559V146.235z"/>
		<path d="M146.212,146.389c-1.637,0-1.953-1.742-1.953-2.926c0-1.183,0.316-2.925,1.953-2.925s1.953,1.742,1.953,2.925
			C148.164,144.647,147.848,146.389,146.212,146.389z M146.212,141.179c-0.818,0-1.191,0.858-1.191,2.284
			c0,1.427,0.373,2.285,1.191,2.285s1.191-0.858,1.191-2.285C147.403,142.038,147.03,141.179,146.212,141.179z"/>
		<path d="M153.21,146.389c-1.637,0-1.953-1.742-1.953-2.926c0-1.183,0.316-2.925,1.953-2.925s1.953,1.742,1.953,2.925
			C155.162,144.647,154.846,146.389,153.21,146.389z M153.21,141.179c-0.818,0-1.191,0.858-1.191,2.284
			c0,1.427,0.373,2.285,1.191,2.285s1.191-0.858,1.191-2.285C154.401,142.038,154.028,141.179,153.21,141.179z"/>
		<path d="M160.209,146.389c-1.637,0-1.953-1.742-1.953-2.926c0-1.183,0.316-2.925,1.953-2.925c1.636,0,1.952,1.742,1.952,2.925
			C162.161,144.647,161.844,146.389,160.209,146.389z M160.209,141.179c-0.819,0-1.191,0.858-1.191,2.284
			c0,1.427,0.373,2.285,1.191,2.285c0.818,0,1.19-0.858,1.19-2.285C161.399,142.038,161.027,141.179,160.209,141.179z"/>
		<path d="M167.207,146.389c-1.637,0-1.953-1.742-1.953-2.926c0-1.183,0.316-2.925,1.953-2.925c1.636,0,1.952,1.742,1.952,2.925
			C169.159,144.647,168.843,146.389,167.207,146.389z M167.207,141.179c-0.818,0-1.191,0.858-1.191,2.284
			c0,1.427,0.373,2.285,1.191,2.285s1.19-0.858,1.19-2.285C168.397,142.038,168.025,141.179,167.207,141.179z"/>
	</g>
</g>
<polygon points="111.313,120.97 114.741,126.991 118.16,120.97 "/>
</svg>
