<?xml version="1.0" encoding="utf-8"?>
<!-- Generator: Adobe Illustrator 28.2.0, SVG Export Plug-In . SVG Version: 6.00 Build 0)  -->
<svg version="1.1" id="儗僀儎乕_1" xmlns="http://www.w3.org/2000/svg" xmlns:xlink="http://www.w3.org/1999/xlink" x="0px"
	 y="0px" width="284.438px" height="52.364px" viewBox="0 0 284.438 52.364" style="enable-background:new 0 0 284.438 52.364;"
	 xml:space="preserve">
<style type="text/css">
	.st0{fill:none;stroke:#000000;stroke-width:0.3;}
	.st1{fill:none;stroke:#000000;stroke-width:0.5;}
	.st2{fill:#FFFFFF;}
</style>
<line class="st0" x1="0.15" y1="33.895" x2="0.15" y2="42.92"/>
<line class="st0" x1="58.707" y1="33.895" x2="58.707" y2="42.92"/>
<line class="st0" x1="84.304" y1="33.895" x2="84.304" y2="42.92"/>
<line class="st0" x1="142.861" y1="33.895" x2="142.861" y2="42.92"/>
<polygon points="6.354,38.156 0.083,39.513 6.354,40.862 6.354,40.134 14.457,40.134 14.457,38.886 6.354,38.886 "/>
<polygon points="52.195,40.863 58.467,39.506 52.195,38.157 52.195,38.885 44.093,38.885 44.093,40.133 52.195,40.133 "/>
<polygon points="136.827,40.863 143.099,39.506 136.827,38.157 136.827,38.885 128.725,38.885 128.725,40.133 136.827,40.133 "/>
<polygon points="90.989,38.156 84.718,39.513 90.989,40.862 90.989,40.134 99.092,40.134 99.092,38.886 90.989,38.886 "/>
<g>
	<g>
		<path d="M108.972,2.579c-0.04-0.888-0.775-1.167-1.423-1.167c-0.488,0-1.311,0.136-1.311,1.007c0,0.488,0.344,0.647,0.68,0.728
			l1.639,0.376c0.744,0.176,1.304,0.624,1.304,1.535c0,1.359-1.264,1.735-2.247,1.735c-1.063,0-1.479-0.32-1.735-0.552
			c-0.488-0.439-0.584-0.919-0.584-1.455h0.728c0,1.04,0.847,1.343,1.583,1.343c0.56,0,1.503-0.144,1.503-0.967
			c0-0.6-0.28-0.792-1.223-1.016l-1.175-0.272c-0.376-0.088-1.224-0.352-1.224-1.351c0-0.896,0.584-1.775,1.975-1.775
			c2.007,0,2.207,1.199,2.239,1.831H108.972z"/>
		<path d="M111.557,6.64h-0.704V2.458h0.664v0.695h0.016c0.28-0.487,0.647-0.815,1.175-0.815c0.088,0,0.128,0.008,0.184,0.024V3.09
			h-0.264c-0.656,0-1.071,0.512-1.071,1.119V6.64z"/>
		<path d="M115.876,3.866c-0.088-0.56-0.4-0.896-0.991-0.896c-0.872,0-1.151,0.832-1.151,1.575c0,0.72,0.176,1.607,1.143,1.607
			c0.472,0,0.879-0.352,1-0.991h0.68c-0.072,0.664-0.48,1.599-1.703,1.599c-1.175,0-1.871-0.888-1.871-2.095
			c0-1.295,0.624-2.327,2.007-2.327c1.096,0,1.511,0.8,1.567,1.527H115.876z"/>
		<path d="M117.094,3.034c0-1.831,1.335-2.015,1.943-2.015c0.975,0,1.759,0.632,1.759,1.679c0,1.007-0.664,1.431-1.503,1.879
			l-0.584,0.32c-0.768,0.424-0.936,0.864-0.967,1.08h3.054V6.64h-3.846c0.04-1.167,0.567-1.791,1.319-2.231l0.744-0.432
			c0.6-0.344,1.031-0.576,1.031-1.311c0-0.448-0.288-1.016-1.111-1.016c-1.063,0-1.111,0.991-1.136,1.383H117.094z"/>
	</g>
</g>
<g>
	<g>
		<path d="M25.026,2.579c-0.04-0.888-0.775-1.167-1.423-1.167c-0.488,0-1.311,0.136-1.311,1.007c0,0.488,0.344,0.647,0.68,0.728
			l1.639,0.376c0.744,0.176,1.304,0.624,1.304,1.535c0,1.359-1.264,1.735-2.247,1.735c-1.063,0-1.479-0.32-1.735-0.552
			c-0.488-0.439-0.584-0.919-0.584-1.455h0.728c0,1.04,0.847,1.343,1.583,1.343c0.56,0,1.503-0.144,1.503-0.967
			c0-0.6-0.28-0.792-1.223-1.016l-1.175-0.272c-0.376-0.088-1.224-0.352-1.224-1.351c0-0.896,0.584-1.775,1.975-1.775
			c2.007,0,2.207,1.199,2.239,1.831H25.026z"/>
		<path d="M27.612,6.64h-0.704V2.458h0.664v0.695h0.016c0.28-0.487,0.647-0.815,1.175-0.815c0.088,0,0.128,0.008,0.184,0.024V3.09
			h-0.264c-0.656,0-1.071,0.512-1.071,1.119V6.64z"/>
		<path d="M31.931,3.866c-0.088-0.56-0.4-0.896-0.991-0.896c-0.872,0-1.151,0.832-1.151,1.575c0,0.72,0.176,1.607,1.143,1.607
			c0.472,0,0.879-0.352,1-0.991h0.68c-0.072,0.664-0.48,1.599-1.703,1.599c-1.175,0-1.871-0.888-1.871-2.095
			c0-1.295,0.624-2.327,2.007-2.327c1.096,0,1.511,0.8,1.567,1.527H31.931z"/>
		<path d="M35.667,6.64h-0.752V2.65h-1.311v-0.56c0.912-0.064,1.287-0.152,1.511-1.072h0.552V6.64z"/>
	</g>
</g>
<g>
	<path d="M108.975,42.534h-0.658v-3.495h-1.148v-0.49c0.798-0.056,1.127-0.133,1.324-0.938h0.483V42.534z"/>
	<path d="M112.993,38.92c-0.077-0.435-0.315-0.756-0.847-0.756c-0.967,0-1.17,1.302-1.17,1.821l0.014,0.014
		c0.154-0.267,0.497-0.603,1.169-0.603c0.603,0,1.541,0.385,1.541,1.562c0,0.504-0.133,0.868-0.469,1.232
		c-0.259,0.287-0.553,0.477-1.247,0.477c-0.378,0-0.917-0.168-1.268-0.715c-0.294-0.462-0.378-1.064-0.378-1.708
		c0-1.079,0.35-2.634,1.821-2.634c0.567,0,1.373,0.308,1.436,1.31H112.993z M112.096,42.113c0.588,0,0.967-0.462,0.967-1.127
		c0-0.434-0.231-1.037-0.995-1.037c-0.679,0-1.009,0.49-1.009,1.072C111.06,41.546,111.375,42.113,112.096,42.113z"/>
	<path d="M114.371,42.534v-5.029h0.616v1.828h0.014c0.266-0.385,0.63-0.561,1.058-0.567c0.974,0,1.527,0.798,1.527,1.828
		c0,0.875-0.364,2.045-1.611,2.045c-0.624,0-0.883-0.357-1.009-0.56h-0.014v0.455H114.371z M115.946,39.319
		c-0.889,0-0.987,0.959-0.987,1.555c0,0.973,0.609,1.232,1.001,1.232c0.672,0,0.987-0.609,0.987-1.415
		C116.948,40.223,116.899,39.319,115.946,39.319z"/>
	<path d="M118.326,38.206v-0.701h0.616v0.701H118.326z M118.942,42.534h-0.616v-3.663h0.616V42.534z"/>
	<path d="M120.622,39.382v2.381c0,0.287,0.246,0.287,0.372,0.287h0.217v0.483c-0.224,0.021-0.399,0.049-0.462,0.049
		c-0.609,0-0.743-0.343-0.743-0.784v-2.417h-0.497v-0.511h0.497v-1.022h0.616v1.022h0.588v0.511H120.622z"/>
	<path d="M104.239,45.4c-0.595,1.121-0.952,1.793-0.952,3.474c0,1.155,0.399,2.01,0.959,3.109h-0.413
		c-0.729-1.092-1.205-1.968-1.205-3.278c0-1.232,0.427-2.227,1.184-3.306H104.239z"/>
	<path d="M106.997,50.534h-0.658v-3.495h-1.148v-0.49c0.798-0.056,1.127-0.133,1.324-0.938h0.483V50.534z"/>
	<path d="M110.168,50.534h-0.637l-1.058-3.663h0.672l0.7,2.879h0.014l0.708-2.879h0.686l0.714,2.879h0.014l0.742-2.879h0.617
		l-1.065,3.663h-0.637l-0.742-2.836h-0.014L110.168,50.534z"/>
	<path d="M115.306,46.766c1.169,0,1.702,0.988,1.702,1.933s-0.532,1.933-1.702,1.933c-1.17,0-1.702-0.988-1.702-1.933
		S114.136,46.766,115.306,46.766z M115.306,50.1c0.882,0,1.064-0.911,1.064-1.401s-0.182-1.401-1.064-1.401
		c-0.883,0-1.065,0.911-1.065,1.401S114.423,50.1,115.306,50.1z"/>
	<path d="M118.407,50.534h-0.617v-3.663h0.582v0.609h0.014c0.245-0.427,0.567-0.714,1.029-0.714c0.077,0,0.112,0.007,0.161,0.021
		v0.637h-0.231c-0.574,0-0.938,0.448-0.938,0.981V50.534z"/>
	<path d="M122.937,50.534h-0.582v-0.504h-0.014c-0.266,0.498-0.686,0.609-1.043,0.609c-1.247,0-1.611-1.169-1.611-2.045
		c0-1.03,0.553-1.828,1.527-1.828c0.666,0,0.945,0.413,1.093,0.624l0.014-0.049v-1.835h0.617V50.534z M121.312,50.106
		c0.392,0,1.001-0.259,1.001-1.232c0-0.596-0.098-1.555-0.988-1.555c-0.952,0-1.001,0.904-1.001,1.373
		C120.324,49.497,120.64,50.106,121.312,50.106z"/>
	<path d="M123.579,51.983c0.595-1.121,0.953-1.793,0.953-3.474c0-1.156-0.399-2.01-0.959-3.11h0.413
		c0.729,1.093,1.205,1.968,1.205,3.278c0,1.232-0.427,2.227-1.184,3.306H123.579z"/>
</g>
<g>
	<path d="M24.209,42.534h-0.658v-3.495h-1.148v-0.49c0.798-0.056,1.127-0.133,1.324-0.938h0.483V42.534z"/>
	<path d="M28.227,38.92c-0.077-0.435-0.315-0.756-0.847-0.756c-0.967,0-1.17,1.302-1.17,1.821l0.014,0.014
		c0.154-0.267,0.497-0.603,1.169-0.603c0.603,0,1.541,0.385,1.541,1.562c0,0.504-0.133,0.868-0.469,1.232
		c-0.259,0.287-0.553,0.477-1.247,0.477c-0.378,0-0.917-0.168-1.268-0.715c-0.294-0.462-0.378-1.064-0.378-1.708
		c0-1.079,0.35-2.634,1.821-2.634c0.567,0,1.373,0.308,1.436,1.31H28.227z M27.331,42.113c0.588,0,0.967-0.462,0.967-1.127
		c0-0.434-0.231-1.037-0.995-1.037c-0.679,0-1.009,0.49-1.009,1.072C26.294,41.546,26.609,42.113,27.331,42.113z"/>
	<path d="M29.605,42.534v-5.029h0.616v1.828h0.014c0.266-0.385,0.63-0.561,1.058-0.567c0.974,0,1.527,0.798,1.527,1.828
		c0,0.875-0.364,2.045-1.611,2.045c-0.624,0-0.883-0.357-1.009-0.56h-0.014v0.455H29.605z M31.181,39.319
		c-0.889,0-0.987,0.959-0.987,1.555c0,0.973,0.609,1.232,1.001,1.232c0.672,0,0.987-0.609,0.987-1.415
		C32.182,40.223,32.133,39.319,31.181,39.319z"/>
	<path d="M33.56,38.206v-0.701h0.616v0.701H33.56z M34.176,42.534H33.56v-3.663h0.616V42.534z"/>
	<path d="M35.856,39.382v2.381c0,0.287,0.246,0.287,0.372,0.287h0.217v0.483c-0.224,0.021-0.399,0.049-0.462,0.049
		c-0.609,0-0.743-0.343-0.743-0.784v-2.417h-0.497v-0.511h0.497v-1.022h0.616v1.022h0.588v0.511H35.856z"/>
	<path d="M19.473,45.4c-0.595,1.121-0.952,1.793-0.952,3.474c0,1.155,0.399,2.01,0.959,3.109h-0.413
		c-0.729-1.092-1.205-1.968-1.205-3.278c0-1.232,0.427-2.227,1.184-3.306H19.473z"/>
	<path d="M22.231,50.534h-0.658v-3.495h-1.148v-0.49c0.798-0.056,1.127-0.133,1.324-0.938h0.483V50.534z"/>
	<path d="M25.402,50.534h-0.637l-1.058-3.663h0.672l0.7,2.879h0.014l0.708-2.879h0.686l0.714,2.879h0.014l0.742-2.879h0.617
		l-1.065,3.663h-0.637l-0.742-2.836h-0.014L25.402,50.534z"/>
	<path d="M30.541,46.766c1.169,0,1.702,0.988,1.702,1.933s-0.532,1.933-1.702,1.933c-1.17,0-1.702-0.988-1.702-1.933
		S29.371,46.766,30.541,46.766z M30.541,50.1c0.882,0,1.064-0.911,1.064-1.401s-0.182-1.401-1.064-1.401
		c-0.883,0-1.065,0.911-1.065,1.401S29.658,50.1,30.541,50.1z"/>
	<path d="M33.641,50.534h-0.617v-3.663h0.582v0.609h0.014c0.245-0.427,0.567-0.714,1.029-0.714c0.077,0,0.112,0.007,0.161,0.021
		v0.637H34.58c-0.574,0-0.938,0.448-0.938,0.981V50.534z"/>
	<path d="M38.171,50.534H37.59v-0.504h-0.014c-0.266,0.498-0.686,0.609-1.043,0.609c-1.247,0-1.611-1.169-1.611-2.045
		c0-1.03,0.553-1.828,1.527-1.828c0.666,0,0.945,0.413,1.093,0.624l0.014-0.049v-1.835h0.617V50.534z M36.546,50.106
		c0.392,0,1.001-0.259,1.001-1.232c0-0.596-0.098-1.555-0.988-1.555c-0.952,0-1.001,0.904-1.001,1.373
		C35.559,49.497,35.874,50.106,36.546,50.106z"/>
	<path d="M38.813,51.983c0.595-1.121,0.953-1.793,0.953-3.474c0-1.156-0.399-2.01-0.959-3.11h0.413
		c0.729,1.093,1.205,1.968,1.205,3.278c0,1.232-0.427,2.227-1.184,3.306H38.813z"/>
</g>
<g>
	<rect x="0.604" y="10.734" class="st1" width="57.579" height="22.146"/>
	<line class="st0" x1="29.393" y1="32.88" x2="29.393" y2="10.734"/>
	<rect x="8.81" y="15.531" class="st2" width="44.292" height="12.5"/>
	<g>
		<path d="M25.151,20.87v0.684h-6.068V20.87H25.151z"/>
		<path d="M28.768,24.759h-0.846v-4.492h-1.477v-0.63c1.026-0.072,1.45-0.171,1.702-1.207h0.621V24.759z"/>
		<path d="M30.577,20.699c0-2.062,1.503-2.269,2.188-2.269c1.098,0,1.98,0.711,1.98,1.891c0,1.134-0.747,1.612-1.692,2.116
			l-0.657,0.36c-0.864,0.477-1.054,0.972-1.089,1.215h3.439v0.747h-4.331c0.045-1.314,0.639-2.017,1.486-2.512l0.837-0.486
			c0.675-0.387,1.162-0.648,1.162-1.476c0-0.504-0.324-1.144-1.251-1.144c-1.197,0-1.251,1.116-1.278,1.558H30.577z"/>
		<path d="M37.201,21.158c0.135,0.009,0.279,0.018,0.414,0.018c0.612,0,1.207-0.243,1.207-1.035c0-0.378-0.225-1-1.17-1
			c-1.125,0-1.197,0.918-1.233,1.359h-0.774c0-0.927,0.378-2.071,2.044-2.071c1.224,0,1.954,0.703,1.954,1.666
			c0,0.811-0.468,1.198-0.811,1.306v0.018c0.612,0.198,1.053,0.63,1.053,1.476c0,1.036-0.666,2.035-2.277,2.035
			c-0.468,0-0.864-0.117-1.17-0.279c-0.702-0.369-0.891-1.099-0.945-1.828h0.819c0.027,0.594,0.171,1.396,1.35,1.396
			c0.811,0,1.377-0.495,1.377-1.225c0-1.062-0.936-1.161-1.476-1.161c-0.117,0-0.243,0.009-0.36,0.009V21.158z"/>
	</g>
</g>
<g>
	<rect x="84.549" y="10.734" class="st1" width="57.579" height="22.146"/>
	<line class="st0" x1="113.339" y1="32.88" x2="113.339" y2="10.734"/>
	<rect x="92.755" y="15.531" class="st2" width="44.292" height="12.5"/>
	<g>
		<path d="M109.293,24.759h-0.846v-4.492h-1.477v-0.63c1.026-0.072,1.45-0.171,1.702-1.207h0.621V24.759z"/>
		<path d="M111.102,20.699c0-2.062,1.503-2.269,2.188-2.269c1.098,0,1.98,0.711,1.98,1.891c0,1.134-0.748,1.612-1.692,2.116
			l-0.657,0.36c-0.864,0.477-1.054,0.972-1.089,1.215h3.439v0.747h-4.331c0.045-1.314,0.639-2.017,1.486-2.512l0.837-0.486
			c0.675-0.387,1.162-0.648,1.162-1.476c0-0.504-0.324-1.144-1.251-1.144c-1.197,0-1.251,1.116-1.278,1.558H111.102z"/>
		<path d="M117.726,21.158c0.135,0.009,0.279,0.018,0.414,0.018c0.612,0,1.207-0.243,1.207-1.035c0-0.378-0.225-1-1.17-1
			c-1.125,0-1.197,0.918-1.233,1.359h-0.774c0-0.927,0.378-2.071,2.044-2.071c1.224,0,1.954,0.703,1.954,1.666
			c0,0.811-0.468,1.198-0.811,1.306v0.018c0.612,0.198,1.053,0.63,1.053,1.476c0,1.036-0.666,2.035-2.277,2.035
			c-0.468,0-0.864-0.117-1.17-0.279c-0.702-0.369-0.892-1.099-0.945-1.828h0.819c0.027,0.594,0.171,1.396,1.35,1.396
			c0.811,0,1.377-0.495,1.377-1.225c0-1.062-0.936-1.161-1.477-1.161c-0.117,0-0.243,0.009-0.36,0.009V21.158z"/>
	</g>
</g>
<g>
	<path d="M66.314,19.354l1.481-1.481l3.245,3.244l3.244-3.244l1.481,1.481l-3.244,3.244l3.263,3.245l-1.5,1.481L71.04,24.08
		l-3.226,3.245l-1.5-1.481l3.245-3.245L66.314,19.354z"/>
</g>
<g>
	<path d="M160.141,21.144h-9.452v-2.1h9.452V21.144z M160.141,25.27h-9.452v-2.101h9.452V25.27z"/>
</g>
<g>
	<g>
		<path d="M220.086,39.987c0.105,0.007,0.218,0.014,0.322,0.014c0.477,0,0.938-0.189,0.938-0.805c0-0.294-0.175-0.777-0.91-0.777
			c-0.875,0-0.932,0.714-0.959,1.057h-0.603c0-0.721,0.294-1.611,1.59-1.611c0.952,0,1.52,0.546,1.52,1.296
			c0,0.63-0.364,0.932-0.63,1.016v0.014c0.476,0.154,0.819,0.491,0.819,1.149c0,0.805-0.519,1.583-1.772,1.583
			c-0.364,0-0.672-0.091-0.91-0.217c-0.547-0.287-0.693-0.854-0.735-1.422h0.637c0.021,0.462,0.134,1.085,1.051,1.085
			c0.631,0,1.072-0.385,1.072-0.952c0-0.827-0.729-0.904-1.149-0.904c-0.091,0-0.188,0.007-0.28,0.007V39.987z"/>
		<path d="M222.718,39.63c0-1.604,1.169-1.765,1.701-1.765c0.854,0,1.541,0.554,1.541,1.471c0,0.882-0.581,1.253-1.316,1.646
			l-0.512,0.28c-0.672,0.371-0.819,0.756-0.848,0.945h2.676v0.582h-3.369c0.035-1.022,0.498-1.569,1.156-1.954l0.651-0.378
			c0.525-0.301,0.903-0.504,0.903-1.149c0-0.392-0.252-0.889-0.974-0.889c-0.932,0-0.974,0.868-0.994,1.211H222.718z"/>
		<path d="M226.708,42.789V37.76h0.616v1.828h0.014c0.267-0.385,0.631-0.561,1.058-0.567c0.974,0,1.527,0.798,1.527,1.828
			c0,0.875-0.364,2.045-1.611,2.045c-0.623,0-0.882-0.357-1.008-0.56h-0.015v0.455H226.708z M228.284,39.574
			c-0.89,0-0.988,0.959-0.988,1.555c0,0.973,0.609,1.232,1.002,1.232c0.672,0,0.987-0.609,0.987-1.415
			C229.285,40.478,229.236,39.574,228.284,39.574z"/>
		<path d="M230.663,38.46V37.76h0.616v0.701H230.663z M231.279,42.789h-0.616v-3.663h0.616V42.789z"/>
		<path d="M232.959,39.637v2.381c0,0.287,0.245,0.287,0.371,0.287h0.217v0.483c-0.224,0.021-0.399,0.049-0.462,0.049
			c-0.609,0-0.742-0.343-0.742-0.784v-2.417h-0.498v-0.511h0.498v-1.022h0.616v1.022h0.588v0.511H232.959z"/>
		<path d="M214.686,45.655c-0.595,1.121-0.952,1.793-0.952,3.474c0,1.155,0.399,2.01,0.959,3.109h-0.413
			c-0.729-1.092-1.204-1.968-1.204-3.278c0-1.232,0.427-2.227,1.184-3.306H214.686z"/>
		<path d="M215.238,47.63c0-1.604,1.169-1.765,1.701-1.765c0.854,0,1.541,0.554,1.541,1.471c0,0.882-0.581,1.253-1.316,1.646
			l-0.512,0.28c-0.672,0.371-0.819,0.756-0.848,0.945h2.676v0.582h-3.369c0.035-1.022,0.498-1.569,1.156-1.954l0.651-0.378
			c0.525-0.301,0.903-0.504,0.903-1.149c0-0.392-0.252-0.889-0.974-0.889c-0.932,0-0.974,0.868-0.994,1.211H215.238z"/>
		<path d="M220.614,50.789h-0.638l-1.058-3.663h0.673l0.7,2.879h0.014l0.708-2.879h0.687l0.714,2.879h0.015l0.742-2.879h0.616
			l-1.064,3.663h-0.638l-0.742-2.836h-0.014L220.614,50.789z"/>
		<path d="M225.753,47.021c1.169,0,1.702,0.988,1.702,1.933s-0.533,1.933-1.702,1.933c-1.17,0-1.702-0.988-1.702-1.933
			S224.583,47.021,225.753,47.021z M225.753,50.354c0.882,0,1.064-0.911,1.064-1.401s-0.183-1.401-1.064-1.401
			c-0.883,0-1.064,0.911-1.064,1.401S224.87,50.354,225.753,50.354z"/>
		<path d="M228.853,50.789h-0.616v-3.663h0.582v0.609h0.014c0.245-0.427,0.567-0.714,1.029-0.714c0.077,0,0.112,0.007,0.161,0.021
			v0.637h-0.231c-0.574,0-0.938,0.448-0.938,0.981V50.789z"/>
		<path d="M233.384,50.789h-0.581v-0.504h-0.015c-0.266,0.498-0.687,0.609-1.043,0.609c-1.247,0-1.611-1.169-1.611-2.045
			c0-1.03,0.554-1.828,1.526-1.828c0.666,0,0.946,0.413,1.093,0.624l0.015-0.049V45.76h0.616V50.789z M231.759,50.361
			c0.393,0,1.001-0.259,1.001-1.232c0-0.596-0.098-1.555-0.987-1.555c-0.952,0-1.001,0.904-1.001,1.373
			C230.771,49.752,231.086,50.361,231.759,50.361z"/>
		<path d="M236.315,48.169c-0.007-0.231-0.091-0.616-0.868-0.616c-0.189,0-0.729,0.063-0.729,0.519c0,0.301,0.189,0.371,0.665,0.49
			L236,48.715c0.764,0.189,1.03,0.469,1.03,0.967c0,0.756-0.624,1.211-1.45,1.211c-1.449,0-1.555-0.84-1.576-1.282h0.596
			c0.021,0.287,0.105,0.75,0.974,0.75c0.441,0,0.841-0.175,0.841-0.582c0-0.294-0.203-0.392-0.729-0.525l-0.715-0.175
			c-0.511-0.126-0.848-0.385-0.848-0.89c0-0.805,0.666-1.169,1.387-1.169c1.311,0,1.401,0.966,1.401,1.148H236.315z"/>
		<path d="M237.525,52.238c0.596-1.121,0.952-1.793,0.952-3.474c0-1.156-0.398-2.01-0.959-3.11h0.413
			c0.729,1.093,1.205,1.968,1.205,3.278c0,1.232-0.428,2.227-1.184,3.306H237.525z"/>
	</g>
	<line class="st0" x1="169.03" y1="34.15" x2="169.03" y2="43.175"/>
	<line class="st0" x1="284.124" y1="34.15" x2="284.124" y2="43.175"/>
	<polygon points="175.234,38.411 168.962,39.768 175.234,41.117 175.234,40.389 201.052,40.389 201.052,39.141 175.234,39.141 	"/>
	<polygon points="277.613,41.118 283.884,39.761 277.613,38.412 277.613,39.139 251.795,39.139 251.795,40.388 277.613,40.388 	"/>
	<g>
		<g>
			<path d="M249.937,1.154h2.327c1.495,0,2.414,1.135,2.414,2.791c0,1.287-0.56,2.95-2.446,2.95h-2.295V1.154z M250.712,6.231h1.504
				c1.007,0,1.663-0.792,1.663-2.239s-0.664-2.175-1.72-2.175h-1.447V6.231z"/>
			<path d="M257.959,3.905c-0.008-0.264-0.104-0.704-0.991-0.704c-0.216,0-0.832,0.072-0.832,0.591c0,0.344,0.216,0.424,0.76,0.56
				l0.703,0.176c0.872,0.216,1.176,0.536,1.176,1.104c0,0.863-0.712,1.383-1.655,1.383c-1.655,0-1.774-0.959-1.799-1.463H256
				c0.023,0.328,0.12,0.855,1.111,0.855c0.504,0,0.959-0.2,0.959-0.664c0-0.336-0.231-0.448-0.831-0.6l-0.815-0.2
				c-0.584-0.144-0.968-0.439-0.968-1.015c0-0.919,0.76-1.335,1.583-1.335c1.495,0,1.6,1.104,1.6,1.312H257.959z"/>
			<path d="M260.447,3.297v2.719c0,0.328,0.28,0.328,0.424,0.328h0.248v0.552c-0.256,0.024-0.455,0.056-0.527,0.056
				c-0.695,0-0.848-0.392-0.848-0.896V3.297h-0.567V2.713h0.567V1.546h0.703v1.167h0.672v0.583H260.447z"/>
		</g>
	</g>
	<g>
		<g>
			<path d="M184.662,1.154h2.327c1.495,0,2.414,1.135,2.414,2.791c0,1.287-0.56,2.95-2.446,2.95h-2.295V1.154z M185.438,6.231h1.504
				c1.007,0,1.663-0.792,1.663-2.239s-0.664-2.175-1.72-2.175h-1.447V6.231z"/>
			<path d="M192.686,3.905c-0.008-0.264-0.104-0.704-0.991-0.704c-0.216,0-0.832,0.072-0.832,0.591c0,0.344,0.216,0.424,0.76,0.56
				l0.703,0.176c0.872,0.216,1.176,0.536,1.176,1.104c0,0.863-0.712,1.383-1.655,1.383c-1.655,0-1.774-0.959-1.799-1.463h0.68
				c0.023,0.328,0.12,0.855,1.111,0.855c0.504,0,0.959-0.2,0.959-0.664c0-0.336-0.231-0.448-0.831-0.6l-0.815-0.2
				c-0.584-0.144-0.968-0.439-0.968-1.015c0-0.919,0.76-1.335,1.583-1.335c1.495,0,1.6,1.104,1.6,1.312H192.686z"/>
			<path d="M195.174,3.297v2.719c0,0.328,0.28,0.328,0.424,0.328h0.248v0.552c-0.256,0.024-0.455,0.056-0.527,0.056
				c-0.695,0-0.848-0.392-0.848-0.896V3.297h-0.567V2.713h0.567V1.546h0.703v1.167h0.672v0.583H195.174z"/>
		</g>
		<g>
			<path d="M203.62,2.857h0.584v1.727h1.727v0.583h-1.727v1.727h-0.584V5.168h-1.735V4.584h1.735V2.857z"/>
			<path d="M209.115,6.895h-0.751v-3.99h-1.312v-0.56c0.911-0.064,1.287-0.152,1.511-1.072h0.552V6.895z"/>
		</g>
	</g>
	<g>
		<rect x="169.03" y="10.989" class="st1" width="115.158" height="22.146"/>
		<line class="st1" x1="226.607" y1="33.135" x2="226.607" y2="10.989"/>
		<line class="st0" x1="212.214" y1="33.135" x2="212.214" y2="10.989"/>
		<line class="st0" x1="197.82" y1="33.135" x2="197.82" y2="10.989"/>
		<line class="st0" x1="183.425" y1="33.135" x2="183.425" y2="10.989"/>
		<line class="st0" x1="241.002" y1="33.135" x2="241.002" y2="10.989"/>
		<line class="st0" x1="255.397" y1="33.135" x2="255.397" y2="10.989"/>
		<line class="st0" x1="269.791" y1="33.135" x2="269.791" y2="10.989"/>
		<rect x="178.122" y="15.786" class="st2" width="97.441" height="12.5"/>
		<g>
			<path d="M217.542,21.125v0.684h-6.067v-0.684H217.542z"/>
			<path d="M221.159,25.014h-0.847v-4.492h-1.477v-0.63c1.026-0.072,1.449-0.171,1.701-1.207h0.622V25.014z"/>
			<path d="M223.895,21.332c0.271-0.207,0.657-0.396,1.225-0.396c1.026,0,2.079,0.72,2.079,2.025c0,0.702-0.314,2.224-2.295,2.224
				c-0.828,0-1.891-0.333-2.044-1.747h0.819c0.081,0.738,0.63,1.062,1.341,1.062c0.819,0,1.333-0.657,1.333-1.449
				c0-0.91-0.621-1.405-1.404-1.405c-0.459,0-0.873,0.216-1.171,0.604l-0.684-0.036l0.477-3.394h3.277v0.774h-2.683L223.895,21.332z
				"/>
			<path d="M230.808,25.014h-0.847v-4.492h-1.477v-0.63c1.026-0.072,1.449-0.171,1.701-1.207h0.622V25.014z"/>
			<path d="M232.615,20.954c0-2.062,1.503-2.269,2.188-2.269c1.098,0,1.98,0.711,1.98,1.891c0,1.134-0.747,1.612-1.692,2.116
				l-0.657,0.36c-0.864,0.477-1.054,0.972-1.09,1.215h3.439v0.747h-4.33c0.045-1.314,0.639-2.017,1.485-2.512l0.837-0.486
				c0.676-0.387,1.161-0.648,1.161-1.476c0-0.504-0.324-1.144-1.251-1.144c-1.197,0-1.251,1.116-1.278,1.558H232.615z"/>
			<path d="M237.601,20.854c0-1.152,0.702-2.17,2.035-2.17c2.017,0,2.214,1.909,2.214,2.935c0,0.675-0.116,3.565-2.295,3.565
				c-1.485,0-1.882-1.08-1.882-1.692h0.792c0.045,0.639,0.423,1.035,1.071,1.035c0.864,0,1.323-0.729,1.521-2.368l-0.018-0.018
				c-0.234,0.486-0.864,0.756-1.449,0.756C238.42,22.898,237.601,22.115,237.601,20.854z M240.923,20.747
				c0-0.72-0.369-1.351-1.278-1.351c-0.738,0-1.225,0.576-1.225,1.422c0,1.215,0.756,1.369,1.287,1.369
				C240.121,22.187,240.923,21.998,240.923,20.747z"/>
		</g>
	</g>
</g>
</svg>
