<?xml version="1.0" encoding="utf-8"?>
<!-- Generator: Adobe Illustrator 28.2.0, SVG Export Plug-In . SVG Version: 6.00 Build 0)  -->
<svg version="1.1" id="レイヤー_1" xmlns="http://www.w3.org/2000/svg" xmlns:xlink="http://www.w3.org/1999/xlink" x="0px"
	 y="0px" width="390.065px" height="155.325px" viewBox="0 0 390.065 155.325" style="enable-background:new 0 0 390.065 155.325;"
	 xml:space="preserve">
<style type="text/css">
	.st0{fill:#CCCCCC;}
	.st1{fill:#FFFFFF;stroke:#000000;}
	.st2{fill:none;stroke:#000000;}
	.st3{fill:none;stroke:#000000;stroke-width:0.5;stroke-dasharray:1.5;}
	.st4{fill:none;stroke:#000000;stroke-width:0.5;}
</style>
<rect x="169.347" y="137.087" class="st0" width="28.257" height="17.5"/>
<rect x="241.355" y="7.634" class="st1" width="142.333" height="17.717"/>
<line class="st1" x1="348.261" y1="25.351" x2="348.261" y2="7.634"/>
<line class="st2" x1="27.615" y1="16.873" x2="240.865" y2="16.873"/>
<line class="st2" x1="383.662" y1="16.873" x2="389.565" y2="16.873"/>
<line class="st2" x1="0.5" y1="16.873" x2="18" y2="16.873"/>
<line class="st2" x1="0.5" y1="0" x2="0.5" y2="31.164"/>
<line class="st2" x1="389.565" y1="0" x2="389.565" y2="31.164"/>
<line class="st1" x1="27.615" y1="21.954" x2="27.615" y2="13.095"/>
<line class="st1" x1="18.248" y1="13.095" x2="18.248" y2="21.954"/>
<line class="st1" x1="312.277" y1="25.351" x2="312.277" y2="7.634"/>
<line class="st1" x1="276.79" y1="25.351" x2="276.79" y2="7.634"/>
<g>
	<path d="M255.415,14.133l0.943,1.112h-0.576l-0.711-0.656l-0.712,0.656h-0.575l0.943-1.112H255.415z"/>
	<path d="M260.601,20.434h-0.832v-0.848h0.832V20.434z"/>
	<path d="M261.944,14.693h2.327c1.495,0,2.414,1.135,2.414,2.791c0,1.287-0.56,2.95-2.446,2.95h-2.295V14.693z M262.72,19.77h1.504
		c1.007,0,1.663-0.792,1.663-2.239s-0.664-2.175-1.72-2.175h-1.447V19.77z"/>
</g>
<g>
	<path d="M166.644,90.212h-0.84l-1.352-2.066l-1.395,2.066h-0.819l1.8-2.578l-1.688-2.451h0.854l1.274,1.926l1.275-1.926h0.812
		l-1.688,2.451L166.644,90.212z"/>
	<path d="M169.115,90.346c-1.877,0-2.451-1.562-2.451-2.647c0-1.086,0.574-2.647,2.451-2.647s2.451,1.562,2.451,2.647
		C171.566,88.784,170.992,90.346,169.115,90.346z M169.115,85.653c-1.093,0-1.751,0.862-1.751,2.045s0.658,2.045,1.751,2.045
		s1.751-0.861,1.751-2.045S170.208,85.653,169.115,85.653z"/>
	<path d="M173.133,90.212h-0.68v-5.029h2.325c0.826,0,1.653,0.287,1.653,1.352c0,0.742-0.379,1.015-0.7,1.205
		c0.287,0.119,0.574,0.245,0.602,0.945l0.042,0.911c0.008,0.28,0.042,0.385,0.253,0.504v0.112h-0.834
		c-0.098-0.308-0.119-1.072-0.119-1.261c0-0.413-0.084-0.896-0.896-0.896h-1.646V90.212z M173.133,87.474h1.575
		c0.498,0,1.023-0.126,1.023-0.869c0-0.777-0.567-0.84-0.904-0.84h-1.694V87.474z"/>
</g>
<g>
	<g>
		<path d="M290.318,16.135c-0.04-0.887-0.775-1.167-1.423-1.167c-0.487,0-1.312,0.136-1.312,1.007c0,0.488,0.344,0.647,0.68,0.728
			l1.64,0.376c0.743,0.176,1.303,0.624,1.303,1.535c0,1.359-1.263,1.735-2.246,1.735c-1.063,0-1.479-0.32-1.735-0.552
			c-0.488-0.439-0.584-0.919-0.584-1.455h0.728c0,1.04,0.848,1.343,1.583,1.343c0.56,0,1.504-0.144,1.504-0.967
			c0-0.6-0.28-0.792-1.224-1.016l-1.176-0.272c-0.375-0.088-1.223-0.352-1.223-1.351c0-0.896,0.583-1.775,1.975-1.775
			c2.007,0,2.207,1.199,2.238,1.831H290.318z"/>
		<path d="M292.904,20.197H292.2v-4.182h0.664v0.696h0.016c0.28-0.488,0.648-0.816,1.176-0.816c0.088,0,0.128,0.008,0.184,0.024
			v0.728h-0.264c-0.655,0-1.071,0.512-1.071,1.12V20.197z"/>
		<path d="M297.224,17.422c-0.089-0.56-0.4-0.896-0.992-0.896c-0.871,0-1.151,0.832-1.151,1.575c0,0.719,0.176,1.607,1.144,1.607
			c0.472,0,0.88-0.352,1-0.991h0.679c-0.071,0.664-0.479,1.599-1.702,1.599c-1.176,0-1.871-0.888-1.871-2.095
			c0-1.295,0.623-2.327,2.007-2.327c1.095,0,1.511,0.8,1.566,1.527H297.224z"/>
		<path d="M300.959,20.197h-0.751v-3.99h-1.312v-0.56c0.911-0.064,1.287-0.152,1.511-1.072h0.552V20.197z"/>
	</g>
</g>
<g>
	<g>
		<path d="M325.943,16.135c-0.04-0.887-0.775-1.167-1.423-1.167c-0.487,0-1.312,0.136-1.312,1.007c0,0.488,0.344,0.647,0.68,0.728
			l1.64,0.376c0.743,0.176,1.303,0.624,1.303,1.535c0,1.359-1.263,1.735-2.246,1.735c-1.063,0-1.479-0.32-1.735-0.552
			c-0.488-0.439-0.584-0.919-0.584-1.455h0.728c0,1.04,0.848,1.343,1.583,1.343c0.56,0,1.504-0.144,1.504-0.967
			c0-0.6-0.28-0.792-1.224-1.016l-1.176-0.272c-0.375-0.088-1.223-0.352-1.223-1.351c0-0.896,0.583-1.775,1.975-1.775
			c2.007,0,2.207,1.199,2.238,1.831H325.943z"/>
		<path d="M328.529,20.197h-0.704v-4.182h0.664v0.696h0.016c0.28-0.488,0.648-0.816,1.176-0.816c0.088,0,0.128,0.008,0.184,0.024
			v0.728h-0.264c-0.655,0-1.071,0.512-1.071,1.12V20.197z"/>
		<path d="M332.849,17.422c-0.089-0.56-0.4-0.896-0.992-0.896c-0.871,0-1.151,0.832-1.151,1.575c0,0.719,0.176,1.607,1.144,1.607
			c0.472,0,0.88-0.352,1-0.991h0.679c-0.071,0.664-0.479,1.599-1.702,1.599c-1.176,0-1.871-0.888-1.871-2.095
			c0-1.295,0.623-2.327,2.007-2.327c1.095,0,1.511,0.8,1.566,1.527H332.849z"/>
		<path d="M334.065,16.591c0-1.831,1.336-2.015,1.943-2.015c0.976,0,1.759,0.632,1.759,1.679c0,1.007-0.663,1.431-1.503,1.879
			l-0.584,0.32c-0.768,0.424-0.936,0.864-0.968,1.08h3.055v0.664h-3.846c0.04-1.167,0.567-1.791,1.319-2.231l0.743-0.432
			c0.6-0.344,1.031-0.576,1.031-1.311c0-0.448-0.287-1.016-1.111-1.016c-1.063,0-1.111,0.992-1.135,1.383H334.065z"/>
	</g>
</g>
<g>
	<g>
		<path d="M360.29,14.456h2.327c1.495,0,2.414,1.135,2.414,2.791c0,1.287-0.56,2.95-2.446,2.95h-2.295V14.456z M361.065,19.533
			h1.504c1.007,0,1.663-0.792,1.663-2.239s-0.664-2.175-1.72-2.175h-1.447V19.533z"/>
		<path d="M368.313,17.207c-0.008-0.264-0.104-0.704-0.991-0.704c-0.216,0-0.832,0.072-0.832,0.592c0,0.344,0.216,0.423,0.76,0.56
			l0.703,0.176c0.872,0.216,1.176,0.536,1.176,1.104c0,0.863-0.712,1.383-1.655,1.383c-1.655,0-1.774-0.959-1.799-1.463h0.68
			c0.023,0.328,0.12,0.855,1.111,0.855c0.504,0,0.959-0.2,0.959-0.664c0-0.336-0.231-0.448-0.831-0.6l-0.815-0.2
			c-0.584-0.144-0.968-0.44-0.968-1.016c0-0.919,0.76-1.335,1.583-1.335c1.495,0,1.6,1.104,1.6,1.312H368.313z"/>
		<path d="M370.802,16.599v2.719c0,0.328,0.28,0.328,0.424,0.328h0.248v0.552c-0.256,0.024-0.455,0.056-0.527,0.056
			c-0.695,0-0.848-0.392-0.848-0.896v-2.759h-0.567v-0.583h0.567v-1.167h0.703v1.167h0.672v0.583H370.802z"/>
	</g>
</g>
<polyline class="st3" points="282.322,68.556 294.995,68.556 294.995,25.524 "/>
<polyline class="st3" points="282.322,107.306 330.283,107.306 330.283,25.732 "/>
<polyline class="st3" points="282.322,146.374 366.102,146.374 366.102,25.622 "/>
<g>
	<path d="M169.532,51.702v-5.029h0.616v1.828h0.014c0.267-0.385,0.631-0.561,1.058-0.567c0.974,0,1.527,0.798,1.527,1.828
		c0,0.875-0.364,2.045-1.611,2.045c-0.623,0-0.882-0.357-1.008-0.56h-0.015v0.455H169.532z M171.108,48.487
		c-0.89,0-0.988,0.959-0.988,1.555c0,0.973,0.609,1.232,1.002,1.232c0.672,0,0.987-0.609,0.987-1.415
		C172.109,49.391,172.061,48.487,171.108,48.487z"/>
	<path d="M173.487,47.374v-0.701h0.616v0.701H173.487z M174.103,51.702h-0.616v-3.663h0.616V51.702z"/>
	<path d="M175.784,48.55v2.381c0,0.287,0.245,0.287,0.371,0.287h0.217v0.483c-0.224,0.021-0.399,0.049-0.462,0.049
		c-0.609,0-0.742-0.343-0.742-0.784V48.55h-0.498v-0.511h0.498v-1.022h0.616v1.022h0.588v0.511H175.784z"/>
	<path d="M171.585,57.952h-0.658v-3.495h-1.149v-0.49c0.799-0.056,1.128-0.133,1.324-0.938h0.483V57.952z"/>
	<path d="M173.712,55.087c0.21-0.161,0.512-0.308,0.953-0.308c0.798,0,1.617,0.561,1.617,1.576c0,0.546-0.245,1.73-1.785,1.73
		c-0.645,0-1.472-0.259-1.59-1.359h0.637c0.063,0.574,0.49,0.826,1.044,0.826c0.637,0,1.036-0.511,1.036-1.127
		c0-0.708-0.483-1.093-1.093-1.093c-0.356,0-0.679,0.168-0.91,0.469l-0.532-0.028l0.371-2.64h2.55v0.602h-2.088L173.712,55.087z"/>
</g>
<g>
	<path d="M275.318,51.702v-5.029h0.616v1.828h0.014c0.267-0.385,0.631-0.561,1.058-0.567c0.974,0,1.527,0.798,1.527,1.828
		c0,0.875-0.364,2.045-1.611,2.045c-0.623,0-0.882-0.357-1.008-0.56h-0.015v0.455H275.318z M276.894,48.487
		c-0.89,0-0.988,0.959-0.988,1.555c0,0.973,0.609,1.232,1.002,1.232c0.672,0,0.987-0.609,0.987-1.415
		C277.895,49.391,277.847,48.487,276.894,48.487z"/>
	<path d="M279.273,47.374v-0.701h0.616v0.701H279.273z M279.89,51.702h-0.616v-3.663h0.616V51.702z"/>
	<path d="M281.57,48.55v2.381c0,0.287,0.245,0.287,0.371,0.287h0.217v0.483c-0.224,0.021-0.399,0.049-0.462,0.049
		c-0.609,0-0.742-0.343-0.742-0.784V48.55h-0.498v-0.511h0.498v-1.022h0.616v1.022h0.588v0.511H281.57z"/>
	<path d="M278.609,58.086c-1.415,0-1.688-1.506-1.688-2.529c0-1.022,0.273-2.528,1.688-2.528s1.688,1.506,1.688,2.528
		C280.297,56.58,280.024,58.086,278.609,58.086z M278.609,53.582c-0.708,0-1.029,0.742-1.029,1.975c0,1.233,0.321,1.975,1.029,1.975
		c0.707,0,1.029-0.742,1.029-1.975C279.639,54.324,279.316,53.582,278.609,53.582z"/>
</g>
<rect x="169.298" y="59.236" class="st0" width="28.362" height="17.5"/>
<rect x="225.703" y="59.236" class="st0" width="28.256" height="17.5"/>
<rect x="169.443" y="59.257" class="st4" width="112.871" height="17.717"/>
<line class="st4" x1="267.982" y1="72.388" x2="267.982" y2="76.555"/>
<line class="st4" x1="267.982" y1="59.471" x2="267.982" y2="63.638"/>
<line class="st4" x1="275.067" y1="72.388" x2="275.067" y2="76.555"/>
<line class="st4" x1="275.067" y1="59.471" x2="275.067" y2="63.638"/>
<line class="st4" x1="253.912" y1="72.388" x2="253.912" y2="76.555"/>
<line class="st4" x1="253.912" y1="59.471" x2="253.912" y2="63.638"/>
<line class="st4" x1="261" y1="72.388" x2="261" y2="76.555"/>
<line class="st4" x1="261" y1="59.471" x2="261" y2="63.638"/>
<line class="st4" x1="239.845" y1="72.388" x2="239.845" y2="76.555"/>
<line class="st4" x1="239.845" y1="59.471" x2="239.845" y2="63.638"/>
<line class="st4" x1="246.93" y1="72.388" x2="246.93" y2="76.555"/>
<line class="st4" x1="246.93" y1="59.471" x2="246.93" y2="63.638"/>
<line class="st4" x1="225.757" y1="72.388" x2="225.757" y2="76.555"/>
<line class="st4" x1="225.757" y1="59.471" x2="225.757" y2="63.638"/>
<line class="st4" x1="232.858" y1="72.388" x2="232.858" y2="76.555"/>
<line class="st4" x1="232.858" y1="59.471" x2="232.858" y2="63.638"/>
<line class="st4" x1="211.675" y1="72.388" x2="211.675" y2="76.555"/>
<line class="st4" x1="211.675" y1="59.471" x2="211.675" y2="63.638"/>
<line class="st4" x1="218.762" y1="72.388" x2="218.762" y2="76.555"/>
<line class="st4" x1="218.762" y1="59.471" x2="218.762" y2="63.638"/>
<line class="st4" x1="197.605" y1="72.388" x2="197.605" y2="76.555"/>
<line class="st4" x1="197.605" y1="59.471" x2="197.605" y2="63.638"/>
<line class="st4" x1="204.693" y1="72.388" x2="204.693" y2="76.555"/>
<line class="st4" x1="204.693" y1="59.471" x2="204.693" y2="63.638"/>
<line class="st4" x1="183.538" y1="72.388" x2="183.538" y2="76.555"/>
<line class="st4" x1="183.538" y1="59.471" x2="183.538" y2="63.638"/>
<line class="st4" x1="190.623" y1="72.388" x2="190.623" y2="76.555"/>
<line class="st4" x1="190.623" y1="59.471" x2="190.623" y2="63.638"/>
<line class="st4" x1="176.555" y1="72.388" x2="176.555" y2="76.555"/>
<line class="st4" x1="176.555" y1="59.471" x2="176.555" y2="63.638"/>
<line class="st2" x1="169.124" y1="76.974" x2="281.783" y2="76.974"/>
<line class="st2" x1="282.314" y1="76.974" x2="282.314" y2="59.257"/>
<g>
	<g>
		<path d="M173.851,71.478h-0.762v-4.043h-1.329v-0.567c0.924-0.065,1.305-0.154,1.531-1.085h0.56V71.478z"/>
		<path d="M180.849,71.478h-0.762v-4.043h-1.329v-0.567c0.924-0.065,1.305-0.154,1.531-1.085h0.56V71.478z"/>
		<path d="M187.848,71.478h-0.762v-4.043h-1.329v-0.567c0.924-0.065,1.305-0.154,1.531-1.085h0.56V71.478z"/>
		<path d="M194.846,71.478h-0.762v-4.043h-1.329v-0.567c0.924-0.065,1.305-0.154,1.531-1.085h0.56V71.478z"/>
		<path d="M201.187,71.632c-1.637,0-1.953-1.742-1.953-2.925s0.316-2.925,1.953-2.925s1.952,1.742,1.952,2.925
			S202.824,71.632,201.187,71.632z M201.187,66.422c-0.818,0-1.191,0.859-1.191,2.285c0,1.426,0.373,2.285,1.191,2.285
			s1.19-0.859,1.19-2.285C202.378,67.281,202.006,66.422,201.187,66.422z"/>
		<path d="M208.186,71.632c-1.637,0-1.953-1.742-1.953-2.925s0.316-2.925,1.953-2.925c1.636,0,1.952,1.742,1.952,2.925
			S209.822,71.632,208.186,71.632z M208.186,66.422c-0.818,0-1.191,0.859-1.191,2.285c0,1.426,0.373,2.285,1.191,2.285
			s1.19-0.859,1.19-2.285C209.377,67.281,209.005,66.422,208.186,66.422z"/>
		<path d="M215.185,71.632c-1.637,0-1.953-1.742-1.953-2.925s0.316-2.925,1.953-2.925c1.636,0,1.952,1.742,1.952,2.925
			S216.82,71.632,215.185,71.632z M215.185,66.422c-0.818,0-1.191,0.859-1.191,2.285c0,1.426,0.373,2.285,1.191,2.285
			s1.19-0.859,1.19-2.285C216.375,67.281,216.003,66.422,215.185,66.422z"/>
		<path d="M222.184,71.632c-1.637,0-1.953-1.742-1.953-2.925s0.316-2.925,1.953-2.925s1.952,1.742,1.952,2.925
			S223.82,71.632,222.184,71.632z M222.184,66.422c-0.818,0-1.191,0.859-1.191,2.285c0,1.426,0.373,2.285,1.191,2.285
			s1.19-0.859,1.19-2.285C223.374,67.281,223.002,66.422,222.184,66.422z"/>
		<path d="M229.838,71.478h-0.762v-4.043h-1.329v-0.567c0.924-0.065,1.305-0.154,1.531-1.085h0.56V71.478z"/>
		<path d="M236.836,71.478h-0.762v-4.043h-1.329v-0.567c0.924-0.065,1.305-0.154,1.531-1.085h0.56V71.478z"/>
		<path d="M243.835,71.478h-0.762v-4.043h-1.329v-0.567c0.924-0.065,1.305-0.154,1.531-1.085h0.56V71.478z"/>
		<path d="M250.833,71.478h-0.762v-4.043h-1.329v-0.567c0.924-0.065,1.305-0.154,1.531-1.085h0.56V71.478z"/>
		<path d="M257.175,71.632c-1.637,0-1.953-1.742-1.953-2.925s0.316-2.925,1.953-2.925c1.636,0,1.952,1.742,1.952,2.925
			S258.81,71.632,257.175,71.632z M257.175,66.422c-0.818,0-1.191,0.859-1.191,2.285c0,1.426,0.373,2.285,1.191,2.285
			s1.19-0.859,1.19-2.285C258.365,67.281,257.993,66.422,257.175,66.422z"/>
		<path d="M264.174,71.632c-1.637,0-1.953-1.742-1.953-2.925s0.316-2.925,1.953-2.925s1.952,1.742,1.952,2.925
			S265.81,71.632,264.174,71.632z M264.174,66.422c-0.818,0-1.191,0.859-1.191,2.285c0,1.426,0.373,2.285,1.191,2.285
			s1.19-0.859,1.19-2.285C265.364,67.281,264.992,66.422,264.174,66.422z"/>
		<path d="M271.172,71.632c-1.637,0-1.953-1.742-1.953-2.925s0.316-2.925,1.953-2.925s1.952,1.742,1.952,2.925
			S272.809,71.632,271.172,71.632z M271.172,66.422c-0.818,0-1.191,0.859-1.191,2.285c0,1.426,0.373,2.285,1.191,2.285
			s1.19-0.859,1.19-2.285C272.362,67.281,271.99,66.422,271.172,66.422z"/>
		<path d="M278.17,71.632c-1.637,0-1.953-1.742-1.953-2.925s0.316-2.925,1.953-2.925s1.952,1.742,1.952,2.925
			S279.807,71.632,278.17,71.632z M278.17,66.422c-0.818,0-1.191,0.859-1.191,2.285c0,1.426,0.373,2.285,1.191,2.285
			s1.19-0.859,1.19-2.285C279.36,67.281,278.988,66.422,278.17,66.422z"/>
	</g>
</g>
<g>
	<path d="M275.318,90.628v-5.029h0.616v1.828h0.014c0.267-0.385,0.631-0.561,1.058-0.567c0.974,0,1.527,0.798,1.527,1.828
		c0,0.875-0.364,2.045-1.611,2.045c-0.623,0-0.882-0.357-1.008-0.56h-0.015v0.455H275.318z M276.894,87.413
		c-0.89,0-0.988,0.959-0.988,1.555c0,0.973,0.609,1.232,1.002,1.232c0.672,0,0.987-0.609,0.987-1.415
		C277.895,88.317,277.847,87.413,276.894,87.413z"/>
	<path d="M279.273,86.3v-0.701h0.616V86.3H279.273z M279.89,90.628h-0.616v-3.663h0.616V90.628z"/>
	<path d="M281.57,87.476v2.381c0,0.287,0.245,0.287,0.371,0.287h0.217v0.483c-0.224,0.021-0.399,0.049-0.462,0.049
		c-0.609,0-0.742-0.343-0.742-0.784v-2.417h-0.498v-0.511h0.498v-1.022h0.616v1.022h0.588v0.511H281.57z"/>
	<path d="M278.609,97.011c-1.415,0-1.688-1.506-1.688-2.529c0-1.022,0.273-2.528,1.688-2.528s1.688,1.506,1.688,2.528
		C280.297,95.505,280.024,97.011,278.609,97.011z M278.609,92.508c-0.708,0-1.029,0.742-1.029,1.975
		c0,1.233,0.321,1.975,1.029,1.975c0.707,0,1.029-0.742,1.029-1.975C279.639,93.25,279.316,92.508,278.609,92.508z"/>
</g>
<rect x="225.703" y="98.162" class="st0" width="56.511" height="17.5"/>
<rect x="169.443" y="98.183" class="st4" width="112.871" height="17.717"/>
<line class="st4" x1="267.982" y1="111.313" x2="267.982" y2="115.481"/>
<line class="st4" x1="267.982" y1="98.397" x2="267.982" y2="102.564"/>
<line class="st4" x1="275.067" y1="111.313" x2="275.067" y2="115.481"/>
<line class="st4" x1="275.067" y1="98.397" x2="275.067" y2="102.564"/>
<line class="st4" x1="253.912" y1="111.313" x2="253.912" y2="115.481"/>
<line class="st4" x1="253.912" y1="98.397" x2="253.912" y2="102.564"/>
<line class="st4" x1="261" y1="111.313" x2="261" y2="115.481"/>
<line class="st4" x1="261" y1="98.397" x2="261" y2="102.564"/>
<line class="st4" x1="239.845" y1="111.313" x2="239.845" y2="115.481"/>
<line class="st4" x1="239.845" y1="98.397" x2="239.845" y2="102.564"/>
<line class="st4" x1="246.93" y1="111.313" x2="246.93" y2="115.481"/>
<line class="st4" x1="246.93" y1="98.397" x2="246.93" y2="102.564"/>
<line class="st4" x1="225.757" y1="111.313" x2="225.757" y2="115.481"/>
<line class="st4" x1="225.757" y1="98.397" x2="225.757" y2="102.564"/>
<line class="st4" x1="232.858" y1="111.313" x2="232.858" y2="115.481"/>
<line class="st4" x1="232.858" y1="98.397" x2="232.858" y2="102.564"/>
<line class="st4" x1="211.675" y1="111.313" x2="211.675" y2="115.481"/>
<line class="st4" x1="211.675" y1="98.397" x2="211.675" y2="102.564"/>
<line class="st4" x1="218.762" y1="111.313" x2="218.762" y2="115.481"/>
<line class="st4" x1="218.762" y1="98.397" x2="218.762" y2="102.564"/>
<line class="st4" x1="197.605" y1="111.313" x2="197.605" y2="115.481"/>
<line class="st4" x1="197.605" y1="98.397" x2="197.605" y2="102.564"/>
<line class="st4" x1="204.693" y1="111.313" x2="204.693" y2="115.481"/>
<line class="st4" x1="204.693" y1="98.397" x2="204.693" y2="102.564"/>
<line class="st4" x1="183.538" y1="111.313" x2="183.538" y2="115.481"/>
<line class="st4" x1="183.538" y1="98.397" x2="183.538" y2="102.564"/>
<line class="st4" x1="190.623" y1="111.313" x2="190.623" y2="115.481"/>
<line class="st4" x1="190.623" y1="98.397" x2="190.623" y2="102.564"/>
<line class="st4" x1="176.555" y1="111.313" x2="176.555" y2="115.481"/>
<line class="st4" x1="176.555" y1="98.397" x2="176.555" y2="102.564"/>
<line class="st2" x1="169.124" y1="115.9" x2="281.783" y2="115.9"/>
<line class="st2" x1="282.314" y1="115.9" x2="282.314" y2="98.183"/>
<g>
	<g>
		<path d="M173.194,110.558c-1.637,0-1.953-1.742-1.953-2.925s0.316-2.925,1.953-2.925c1.636,0,1.952,1.742,1.952,2.925
			S174.83,110.558,173.194,110.558z M173.194,105.348c-0.818,0-1.191,0.859-1.191,2.285c0,1.426,0.373,2.285,1.191,2.285
			s1.19-0.859,1.19-2.285C174.385,106.207,174.013,105.348,173.194,105.348z"/>
		<path d="M180.192,110.558c-1.637,0-1.953-1.742-1.953-2.925s0.316-2.925,1.953-2.925c1.636,0,1.952,1.742,1.952,2.925
			S181.828,110.558,180.192,110.558z M180.192,105.348c-0.818,0-1.191,0.859-1.191,2.285c0,1.426,0.373,2.285,1.191,2.285
			s1.19-0.859,1.19-2.285C181.383,106.207,181.011,105.348,180.192,105.348z"/>
		<path d="M187.191,110.558c-1.637,0-1.953-1.742-1.953-2.925s0.316-2.925,1.953-2.925s1.952,1.742,1.952,2.925
			S188.828,110.558,187.191,110.558z M187.191,105.348c-0.818,0-1.191,0.859-1.191,2.285c0,1.426,0.373,2.285,1.191,2.285
			s1.19-0.859,1.19-2.285C188.382,106.207,188.01,105.348,187.191,105.348z"/>
		<path d="M194.189,110.558c-1.637,0-1.953-1.742-1.953-2.925s0.316-2.925,1.953-2.925s1.952,1.742,1.952,2.925
			S195.826,110.558,194.189,110.558z M194.189,105.348c-0.818,0-1.191,0.859-1.191,2.285c0,1.426,0.373,2.285,1.191,2.285
			s1.19-0.859,1.19-2.285C195.38,106.207,195.008,105.348,194.189,105.348z"/>
		<path d="M201.187,110.558c-1.637,0-1.953-1.742-1.953-2.925s0.316-2.925,1.953-2.925s1.952,1.742,1.952,2.925
			S202.824,110.558,201.187,110.558z M201.187,105.348c-0.818,0-1.191,0.859-1.191,2.285c0,1.426,0.373,2.285,1.191,2.285
			s1.19-0.859,1.19-2.285C202.378,106.207,202.006,105.348,201.187,105.348z"/>
		<path d="M208.186,110.558c-1.637,0-1.953-1.742-1.953-2.925s0.316-2.925,1.953-2.925c1.636,0,1.952,1.742,1.952,2.925
			S209.822,110.558,208.186,110.558z M208.186,105.348c-0.818,0-1.191,0.859-1.191,2.285c0,1.426,0.373,2.285,1.191,2.285
			s1.19-0.859,1.19-2.285C209.377,106.207,209.005,105.348,208.186,105.348z"/>
		<path d="M215.185,110.558c-1.637,0-1.953-1.742-1.953-2.925s0.316-2.925,1.953-2.925c1.636,0,1.952,1.742,1.952,2.925
			S216.82,110.558,215.185,110.558z M215.185,105.348c-0.818,0-1.191,0.859-1.191,2.285c0,1.426,0.373,2.285,1.191,2.285
			s1.19-0.859,1.19-2.285C216.375,106.207,216.003,105.348,215.185,105.348z"/>
		<path d="M222.184,110.558c-1.637,0-1.953-1.742-1.953-2.925s0.316-2.925,1.953-2.925s1.952,1.742,1.952,2.925
			S223.82,110.558,222.184,110.558z M222.184,105.348c-0.818,0-1.191,0.859-1.191,2.285c0,1.426,0.373,2.285,1.191,2.285
			s1.19-0.859,1.19-2.285C223.374,106.207,223.002,105.348,222.184,105.348z"/>
		<path d="M229.838,110.404h-0.762v-4.043h-1.329v-0.567c0.924-0.065,1.305-0.154,1.531-1.085h0.56V110.404z"/>
		<path d="M236.836,110.404h-0.762v-4.043h-1.329v-0.567c0.924-0.065,1.305-0.154,1.531-1.085h0.56V110.404z"/>
		<path d="M243.835,110.404h-0.762v-4.043h-1.329v-0.567c0.924-0.065,1.305-0.154,1.531-1.085h0.56V110.404z"/>
		<path d="M250.833,110.404h-0.762v-4.043h-1.329v-0.567c0.924-0.065,1.305-0.154,1.531-1.085h0.56V110.404z"/>
		<path d="M257.831,110.404h-0.762v-4.043h-1.329v-0.567c0.924-0.065,1.305-0.154,1.531-1.085h0.56V110.404z"/>
		<path d="M264.83,110.404h-0.762v-4.043h-1.329v-0.567c0.924-0.065,1.305-0.154,1.531-1.085h0.56V110.404z"/>
		<path d="M271.828,110.404h-0.762v-4.043h-1.329v-0.567c0.924-0.065,1.305-0.154,1.531-1.085h0.56V110.404z"/>
		<path d="M278.826,110.404h-0.762v-4.043h-1.329v-0.567c0.924-0.065,1.305-0.154,1.531-1.085h0.56V110.404z"/>
	</g>
</g>
<g>
	<path d="M275.318,129.554v-5.029h0.616v1.828h0.014c0.267-0.385,0.631-0.56,1.058-0.566c0.974,0,1.527,0.798,1.527,1.827
		c0,0.876-0.364,2.046-1.611,2.046c-0.623,0-0.882-0.357-1.008-0.561h-0.015v0.455H275.318z M276.894,126.339
		c-0.89,0-0.988,0.96-0.988,1.555c0,0.974,0.609,1.233,1.002,1.233c0.672,0,0.987-0.609,0.987-1.415
		C277.895,127.242,277.847,126.339,276.894,126.339z"/>
	<path d="M279.273,125.226v-0.701h0.616v0.701H279.273z M279.89,129.554h-0.616v-3.663h0.616V129.554z"/>
	<path d="M281.57,126.402v2.381c0,0.287,0.245,0.287,0.371,0.287h0.217v0.483c-0.224,0.021-0.399,0.049-0.462,0.049
		c-0.609,0-0.742-0.343-0.742-0.784v-2.416h-0.498v-0.512h0.498v-1.022h0.616v1.022h0.588v0.512H281.57z"/>
	<path d="M278.609,135.937c-1.415,0-1.688-1.506-1.688-2.528s0.273-2.528,1.688-2.528s1.688,1.506,1.688,2.528
		S280.024,135.937,278.609,135.937z M278.609,131.434c-0.708,0-1.029,0.742-1.029,1.975s0.321,1.976,1.029,1.976
		c0.707,0,1.029-0.743,1.029-1.976S279.316,131.434,278.609,131.434z"/>
</g>
<rect x="253.912" y="137.087" class="st0" width="28.239" height="17.5"/>
<rect x="169.443" y="137.109" class="st4" width="112.871" height="17.716"/>
<line class="st4" x1="267.982" y1="150.239" x2="267.982" y2="154.407"/>
<line class="st4" x1="267.982" y1="137.322" x2="267.982" y2="141.489"/>
<line class="st4" x1="275.067" y1="150.239" x2="275.067" y2="154.407"/>
<line class="st4" x1="275.067" y1="137.322" x2="275.067" y2="141.489"/>
<line class="st4" x1="253.912" y1="150.239" x2="253.912" y2="154.407"/>
<line class="st4" x1="253.912" y1="137.322" x2="253.912" y2="141.489"/>
<line class="st4" x1="261" y1="150.239" x2="261" y2="154.407"/>
<line class="st4" x1="261" y1="137.322" x2="261" y2="141.489"/>
<line class="st4" x1="239.845" y1="150.239" x2="239.845" y2="154.407"/>
<line class="st4" x1="239.845" y1="137.322" x2="239.845" y2="141.489"/>
<line class="st4" x1="246.93" y1="150.239" x2="246.93" y2="154.407"/>
<line class="st4" x1="246.93" y1="137.322" x2="246.93" y2="141.489"/>
<line class="st4" x1="225.757" y1="150.239" x2="225.757" y2="154.407"/>
<line class="st4" x1="225.757" y1="137.322" x2="225.757" y2="141.489"/>
<line class="st4" x1="232.858" y1="150.239" x2="232.858" y2="154.407"/>
<line class="st4" x1="232.858" y1="137.322" x2="232.858" y2="141.489"/>
<line class="st4" x1="211.675" y1="150.239" x2="211.675" y2="154.407"/>
<line class="st4" x1="211.675" y1="137.322" x2="211.675" y2="141.489"/>
<line class="st4" x1="218.762" y1="150.239" x2="218.762" y2="154.407"/>
<line class="st4" x1="218.762" y1="137.322" x2="218.762" y2="141.489"/>
<line class="st4" x1="197.605" y1="150.239" x2="197.605" y2="154.407"/>
<line class="st4" x1="197.605" y1="137.322" x2="197.605" y2="141.489"/>
<line class="st4" x1="204.693" y1="150.239" x2="204.693" y2="154.407"/>
<line class="st4" x1="204.693" y1="137.322" x2="204.693" y2="141.489"/>
<line class="st4" x1="183.538" y1="150.239" x2="183.538" y2="154.407"/>
<line class="st4" x1="183.538" y1="137.322" x2="183.538" y2="141.489"/>
<line class="st4" x1="190.623" y1="150.239" x2="190.623" y2="154.407"/>
<line class="st4" x1="190.623" y1="137.322" x2="190.623" y2="141.489"/>
<line class="st4" x1="176.555" y1="150.239" x2="176.555" y2="154.407"/>
<line class="st4" x1="176.555" y1="137.322" x2="176.555" y2="141.489"/>
<line class="st2" x1="169.124" y1="154.825" x2="281.783" y2="154.825"/>
<line class="st2" x1="282.314" y1="154.825" x2="282.314" y2="137.109"/>
<g>
	<g>
		<path d="M173.851,149.33h-0.762v-4.043h-1.329v-0.567c0.924-0.064,1.305-0.154,1.531-1.086h0.56V149.33z"/>
		<path d="M180.849,149.33h-0.762v-4.043h-1.329v-0.567c0.924-0.064,1.305-0.154,1.531-1.086h0.56V149.33z"/>
		<path d="M187.848,149.33h-0.762v-4.043h-1.329v-0.567c0.924-0.064,1.305-0.154,1.531-1.086h0.56V149.33z"/>
		<path d="M194.846,149.33h-0.762v-4.043h-1.329v-0.567c0.924-0.064,1.305-0.154,1.531-1.086h0.56V149.33z"/>
		<path d="M201.187,149.484c-1.637,0-1.953-1.742-1.953-2.926c0-1.183,0.316-2.925,1.953-2.925s1.952,1.742,1.952,2.925
			C203.14,147.742,202.824,149.484,201.187,149.484z M201.187,144.274c-0.818,0-1.191,0.858-1.191,2.284
			c0,1.427,0.373,2.285,1.191,2.285s1.19-0.858,1.19-2.285C202.378,145.133,202.006,144.274,201.187,144.274z"/>
		<path d="M208.186,149.484c-1.637,0-1.953-1.742-1.953-2.926c0-1.183,0.316-2.925,1.953-2.925c1.636,0,1.952,1.742,1.952,2.925
			C210.139,147.742,209.822,149.484,208.186,149.484z M208.186,144.274c-0.818,0-1.191,0.858-1.191,2.284
			c0,1.427,0.373,2.285,1.191,2.285s1.19-0.858,1.19-2.285C209.377,145.133,209.005,144.274,208.186,144.274z"/>
		<path d="M215.185,149.484c-1.637,0-1.953-1.742-1.953-2.926c0-1.183,0.316-2.925,1.953-2.925c1.636,0,1.952,1.742,1.952,2.925
			C217.137,147.742,216.82,149.484,215.185,149.484z M215.185,144.274c-0.818,0-1.191,0.858-1.191,2.284
			c0,1.427,0.373,2.285,1.191,2.285s1.19-0.858,1.19-2.285C216.375,145.133,216.003,144.274,215.185,144.274z"/>
		<path d="M222.184,149.484c-1.637,0-1.953-1.742-1.953-2.926c0-1.183,0.316-2.925,1.953-2.925s1.952,1.742,1.952,2.925
			C224.136,147.742,223.82,149.484,222.184,149.484z M222.184,144.274c-0.818,0-1.191,0.858-1.191,2.284
			c0,1.427,0.373,2.285,1.191,2.285s1.19-0.858,1.19-2.285C223.374,145.133,223.002,144.274,222.184,144.274z"/>
		<path d="M229.182,149.484c-1.637,0-1.953-1.742-1.953-2.926c0-1.183,0.316-2.925,1.953-2.925s1.952,1.742,1.952,2.925
			C231.134,147.742,230.818,149.484,229.182,149.484z M229.182,144.274c-0.818,0-1.191,0.858-1.191,2.284
			c0,1.427,0.373,2.285,1.191,2.285s1.19-0.858,1.19-2.285C230.372,145.133,230,144.274,229.182,144.274z"/>
		<path d="M236.18,149.484c-1.637,0-1.953-1.742-1.953-2.926c0-1.183,0.316-2.925,1.953-2.925s1.952,1.742,1.952,2.925
			C238.132,147.742,237.816,149.484,236.18,149.484z M236.18,144.274c-0.818,0-1.191,0.858-1.191,2.284
			c0,1.427,0.373,2.285,1.191,2.285s1.19-0.858,1.19-2.285C237.37,145.133,236.998,144.274,236.18,144.274z"/>
		<path d="M243.179,149.484c-1.637,0-1.953-1.742-1.953-2.926c0-1.183,0.316-2.925,1.953-2.925c1.636,0,1.952,1.742,1.952,2.925
			C245.131,147.742,244.814,149.484,243.179,149.484z M243.179,144.274c-0.818,0-1.191,0.858-1.191,2.284
			c0,1.427,0.373,2.285,1.191,2.285s1.19-0.858,1.19-2.285C244.369,145.133,243.997,144.274,243.179,144.274z"/>
		<path d="M250.177,149.484c-1.637,0-1.953-1.742-1.953-2.926c0-1.183,0.316-2.925,1.953-2.925c1.636,0,1.952,1.742,1.952,2.925
			C252.129,147.742,251.812,149.484,250.177,149.484z M250.177,144.274c-0.818,0-1.191,0.858-1.191,2.284
			c0,1.427,0.373,2.285,1.191,2.285s1.19-0.858,1.19-2.285C251.367,145.133,250.995,144.274,250.177,144.274z"/>
		<path d="M257.831,149.33h-0.762v-4.043h-1.329v-0.567c0.924-0.064,1.305-0.154,1.531-1.086h0.56V149.33z"/>
		<path d="M264.83,149.33h-0.762v-4.043h-1.329v-0.567c0.924-0.064,1.305-0.154,1.531-1.086h0.56V149.33z"/>
		<path d="M271.828,149.33h-0.762v-4.043h-1.329v-0.567c0.924-0.064,1.305-0.154,1.531-1.086h0.56V149.33z"/>
		<path d="M278.826,149.33h-0.762v-4.043h-1.329v-0.567c0.924-0.064,1.305-0.154,1.531-1.086h0.56V149.33z"/>
	</g>
</g>
<polygon points="166.095,123.805 169.523,129.825 172.943,123.805 "/>
<g>
	<path d="M56.661,51.702v-5.029h0.616v1.828h0.014c0.266-0.385,0.63-0.561,1.058-0.567c0.974,0,1.527,0.798,1.527,1.828
		c0,0.875-0.364,2.045-1.611,2.045c-0.624,0-0.883-0.357-1.009-0.56h-0.014v0.455H56.661z M58.237,48.487
		c-0.889,0-0.987,0.959-0.987,1.555c0,0.973,0.609,1.232,1.001,1.232c0.672,0,0.987-0.609,0.987-1.415
		C59.238,49.391,59.189,48.487,58.237,48.487z"/>
	<path d="M60.616,47.374v-0.701h0.616v0.701H60.616z M61.232,51.702h-0.616v-3.663h0.616V51.702z"/>
	<path d="M62.912,48.55v2.381c0,0.287,0.245,0.287,0.372,0.287H63.5v0.483c-0.224,0.021-0.399,0.049-0.462,0.049
		c-0.609,0-0.743-0.343-0.743-0.784V48.55h-0.497v-0.511h0.497v-1.022h0.616v1.022H63.5v0.511H62.912z"/>
	<path d="M57.627,55.15c0.105,0.007,0.217,0.014,0.322,0.014c0.476,0,0.938-0.189,0.938-0.805c0-0.294-0.175-0.777-0.911-0.777
		c-0.875,0-0.932,0.714-0.959,1.057h-0.602c0-0.721,0.294-1.611,1.59-1.611c0.952,0,1.52,0.546,1.52,1.296
		c0,0.63-0.364,0.932-0.63,1.016v0.014c0.477,0.154,0.819,0.491,0.819,1.149c0,0.805-0.518,1.583-1.772,1.583
		c-0.364,0-0.672-0.091-0.91-0.217c-0.546-0.287-0.693-0.854-0.735-1.422h0.637c0.021,0.462,0.133,1.085,1.051,1.085
		c0.63,0,1.071-0.385,1.071-0.952c0-0.827-0.729-0.904-1.148-0.904c-0.091,0-0.189,0.007-0.28,0.007V55.15z"/>
	<path d="M62.465,57.952h-0.658v-3.495h-1.148v-0.49c0.798-0.056,1.127-0.133,1.324-0.938h0.483V57.952z"/>
</g>
<g>
	<path d="M161.704,51.702v-5.029h0.616v1.828h0.014c0.267-0.385,0.631-0.561,1.058-0.567c0.974,0,1.527,0.798,1.527,1.828
		c0,0.875-0.364,2.045-1.611,2.045c-0.623,0-0.882-0.357-1.008-0.56h-0.015v0.455H161.704z M163.28,48.487
		c-0.89,0-0.988,0.959-0.988,1.555c0,0.973,0.609,1.232,1.002,1.232c0.672,0,0.987-0.609,0.987-1.415
		C164.281,49.391,164.232,48.487,163.28,48.487z"/>
	<path d="M165.659,47.374v-0.701h0.616v0.701H165.659z M166.275,51.702h-0.616v-3.663h0.616V51.702z"/>
	<path d="M167.956,48.55v2.381c0,0.287,0.245,0.287,0.371,0.287h0.217v0.483c-0.224,0.021-0.399,0.049-0.462,0.049
		c-0.609,0-0.742-0.343-0.742-0.784V48.55h-0.498v-0.511h0.498v-1.022h0.616v1.022h0.588v0.511H167.956z"/>
	<path d="M163.757,57.952h-0.658v-3.495h-1.149v-0.49c0.799-0.056,1.128-0.133,1.324-0.938h0.483V57.952z"/>
	<path d="M167.775,54.338c-0.077-0.435-0.315-0.756-0.848-0.756c-0.967,0-1.17,1.302-1.17,1.821l0.015,0.014
		c0.153-0.267,0.497-0.603,1.169-0.603c0.603,0,1.541,0.385,1.541,1.562c0,0.504-0.133,0.868-0.469,1.232
		c-0.26,0.287-0.554,0.477-1.247,0.477c-0.378,0-0.918-0.168-1.268-0.715c-0.294-0.462-0.378-1.064-0.378-1.708
		c0-1.079,0.35-2.634,1.82-2.634c0.567,0,1.373,0.308,1.436,1.31H167.775z M166.879,57.532c0.588,0,0.966-0.462,0.966-1.127
		c0-0.434-0.23-1.037-0.994-1.037c-0.68,0-1.009,0.49-1.009,1.072C165.842,56.965,166.157,57.532,166.879,57.532z"/>
</g>
<rect x="56.426" y="59.236" class="st0" width="28.362" height="17.5"/>
<rect x="112.832" y="59.236" class="st0" width="28.255" height="17.5"/>
<rect x="56.571" y="59.257" class="st4" width="112.872" height="17.717"/>
<line class="st4" x1="155.111" y1="72.388" x2="155.111" y2="76.555"/>
<line class="st4" x1="155.111" y1="59.471" x2="155.111" y2="63.638"/>
<line class="st4" x1="162.195" y1="72.388" x2="162.195" y2="76.555"/>
<line class="st4" x1="162.195" y1="59.471" x2="162.195" y2="63.638"/>
<line class="st4" x1="141.041" y1="72.388" x2="141.041" y2="76.555"/>
<line class="st4" x1="141.041" y1="59.471" x2="141.041" y2="63.638"/>
<line class="st4" x1="148.128" y1="72.388" x2="148.128" y2="76.555"/>
<line class="st4" x1="148.128" y1="59.471" x2="148.128" y2="63.638"/>
<line class="st4" x1="126.973" y1="72.388" x2="126.973" y2="76.555"/>
<line class="st4" x1="126.973" y1="59.471" x2="126.973" y2="63.638"/>
<line class="st4" x1="134.058" y1="72.388" x2="134.058" y2="76.555"/>
<line class="st4" x1="134.058" y1="59.471" x2="134.058" y2="63.638"/>
<line class="st4" x1="112.886" y1="72.388" x2="112.886" y2="76.555"/>
<line class="st4" x1="112.886" y1="59.471" x2="112.886" y2="63.638"/>
<line class="st4" x1="119.986" y1="72.388" x2="119.986" y2="76.555"/>
<line class="st4" x1="119.986" y1="59.471" x2="119.986" y2="63.638"/>
<line class="st4" x1="98.804" y1="72.388" x2="98.804" y2="76.555"/>
<line class="st4" x1="98.804" y1="59.471" x2="98.804" y2="63.638"/>
<line class="st4" x1="105.891" y1="72.388" x2="105.891" y2="76.555"/>
<line class="st4" x1="105.891" y1="59.471" x2="105.891" y2="63.638"/>
<line class="st4" x1="84.734" y1="72.388" x2="84.734" y2="76.555"/>
<line class="st4" x1="84.734" y1="59.471" x2="84.734" y2="63.638"/>
<line class="st4" x1="91.821" y1="72.388" x2="91.821" y2="76.555"/>
<line class="st4" x1="91.821" y1="59.471" x2="91.821" y2="63.638"/>
<line class="st4" x1="70.667" y1="72.388" x2="70.667" y2="76.555"/>
<line class="st4" x1="70.667" y1="59.471" x2="70.667" y2="63.638"/>
<line class="st4" x1="77.751" y1="72.388" x2="77.751" y2="76.555"/>
<line class="st4" x1="77.751" y1="59.471" x2="77.751" y2="63.638"/>
<line class="st4" x1="63.684" y1="72.388" x2="63.684" y2="76.555"/>
<line class="st4" x1="63.684" y1="59.471" x2="63.684" y2="63.638"/>
<line class="st2" x1="56.252" y1="76.974" x2="169.231" y2="76.974"/>
<g>
	<g>
		<path d="M60.978,71.478h-0.762v-4.043h-1.329v-0.567c0.924-0.065,1.305-0.154,1.531-1.085h0.559V71.478z"/>
		<path d="M67.977,71.478h-0.762v-4.043h-1.329v-0.567c0.924-0.065,1.305-0.154,1.531-1.085h0.559V71.478z"/>
		<path d="M74.975,71.478h-0.762v-4.043h-1.329v-0.567c0.924-0.065,1.305-0.154,1.531-1.085h0.559V71.478z"/>
		<path d="M81.974,71.478h-0.762v-4.043h-1.329v-0.567c0.924-0.065,1.305-0.154,1.531-1.085h0.559V71.478z"/>
		<path d="M88.316,71.632c-1.637,0-1.953-1.742-1.953-2.925s0.316-2.925,1.953-2.925s1.953,1.742,1.953,2.925
			S89.953,71.632,88.316,71.632z M88.316,66.422c-0.818,0-1.191,0.859-1.191,2.285c0,1.426,0.373,2.285,1.191,2.285
			s1.191-0.859,1.191-2.285C89.507,67.281,89.134,66.422,88.316,66.422z"/>
		<path d="M95.314,71.632c-1.637,0-1.953-1.742-1.953-2.925s0.316-2.925,1.953-2.925s1.953,1.742,1.953,2.925
			S96.951,71.632,95.314,71.632z M95.314,66.422c-0.818,0-1.191,0.859-1.191,2.285c0,1.426,0.373,2.285,1.191,2.285
			s1.191-0.859,1.191-2.285C96.505,67.281,96.133,66.422,95.314,66.422z"/>
		<path d="M102.312,71.632c-1.637,0-1.953-1.742-1.953-2.925s0.316-2.925,1.953-2.925s1.953,1.742,1.953,2.925
			S103.949,71.632,102.312,71.632z M102.312,66.422c-0.818,0-1.191,0.859-1.191,2.285c0,1.426,0.373,2.285,1.191,2.285
			s1.191-0.859,1.191-2.285C103.503,67.281,103.131,66.422,102.312,66.422z"/>
		<path d="M109.311,71.632c-1.637,0-1.953-1.742-1.953-2.925s0.316-2.925,1.953-2.925s1.953,1.742,1.953,2.925
			S110.948,71.632,109.311,71.632z M109.311,66.422c-0.818,0-1.191,0.859-1.191,2.285c0,1.426,0.373,2.285,1.191,2.285
			s1.191-0.859,1.191-2.285C110.502,67.281,110.129,66.422,109.311,66.422z"/>
		<path d="M116.966,71.478h-0.762v-4.043h-1.329v-0.567c0.924-0.065,1.305-0.154,1.531-1.085h0.559V71.478z"/>
		<path d="M123.964,71.478h-0.762v-4.043h-1.329v-0.567c0.924-0.065,1.305-0.154,1.531-1.085h0.559V71.478z"/>
		<path d="M130.962,71.478h-0.762v-4.043h-1.329v-0.567c0.924-0.065,1.305-0.154,1.531-1.085h0.559V71.478z"/>
		<path d="M137.961,71.478h-0.762v-4.043h-1.329v-0.567c0.924-0.065,1.305-0.154,1.531-1.085h0.559V71.478z"/>
		<path d="M144.303,71.632c-1.637,0-1.953-1.742-1.953-2.925s0.316-2.925,1.953-2.925s1.953,1.742,1.953,2.925
			S145.94,71.632,144.303,71.632z M144.303,66.422c-0.818,0-1.191,0.859-1.191,2.285c0,1.426,0.373,2.285,1.191,2.285
			s1.191-0.859,1.191-2.285C145.494,67.281,145.122,66.422,144.303,66.422z"/>
		<path d="M151.301,71.632c-1.637,0-1.953-1.742-1.953-2.925s0.316-2.925,1.953-2.925s1.953,1.742,1.953,2.925
			S152.938,71.632,151.301,71.632z M151.301,66.422c-0.818,0-1.191,0.859-1.191,2.285c0,1.426,0.373,2.285,1.191,2.285
			s1.191-0.859,1.191-2.285C152.492,67.281,152.12,66.422,151.301,66.422z"/>
		<path d="M158.3,71.632c-1.637,0-1.953-1.742-1.953-2.925s0.316-2.925,1.953-2.925s1.953,1.742,1.953,2.925
			S159.936,71.632,158.3,71.632z M158.3,66.422c-0.818,0-1.191,0.859-1.191,2.285c0,1.426,0.373,2.285,1.191,2.285
			s1.191-0.859,1.191-2.285C159.491,67.281,159.118,66.422,158.3,66.422z"/>
		<path d="M165.299,71.632c-1.637,0-1.953-1.742-1.953-2.925s0.316-2.925,1.953-2.925s1.952,1.742,1.952,2.925
			S166.936,71.632,165.299,71.632z M165.299,66.422c-0.818,0-1.191,0.859-1.191,2.285c0,1.426,0.373,2.285,1.191,2.285
			s1.19-0.859,1.19-2.285C166.489,67.281,166.117,66.422,165.299,66.422z"/>
	</g>
</g>
<g>
	<path d="M56.661,90.628v-5.029h0.616v1.828h0.014c0.266-0.385,0.63-0.561,1.058-0.567c0.974,0,1.527,0.798,1.527,1.828
		c0,0.875-0.364,2.045-1.611,2.045c-0.624,0-0.883-0.357-1.009-0.56h-0.014v0.455H56.661z M58.237,87.413
		c-0.889,0-0.987,0.959-0.987,1.555c0,0.973,0.609,1.232,1.001,1.232c0.672,0,0.987-0.609,0.987-1.415
		C59.238,88.317,59.189,87.413,58.237,87.413z"/>
	<path d="M60.616,86.3v-0.701h0.616V86.3H60.616z M61.232,90.628h-0.616v-3.663h0.616V90.628z"/>
	<path d="M62.912,87.476v2.381c0,0.287,0.245,0.287,0.372,0.287H63.5v0.483c-0.224,0.021-0.399,0.049-0.462,0.049
		c-0.609,0-0.743-0.343-0.743-0.784v-2.417h-0.497v-0.511h0.497v-1.022h0.616v1.022H63.5v0.511H62.912z"/>
	<path d="M57.627,94.076c0.105,0.007,0.217,0.014,0.322,0.014c0.476,0,0.938-0.189,0.938-0.805c0-0.294-0.175-0.777-0.911-0.777
		c-0.875,0-0.932,0.714-0.959,1.057h-0.602c0-0.721,0.294-1.611,1.59-1.611c0.952,0,1.52,0.546,1.52,1.296
		c0,0.63-0.364,0.932-0.63,1.016v0.014c0.477,0.154,0.819,0.491,0.819,1.149c0,0.805-0.518,1.583-1.772,1.583
		c-0.364,0-0.672-0.091-0.91-0.217c-0.546-0.287-0.693-0.854-0.735-1.422h0.637c0.021,0.462,0.133,1.085,1.051,1.085
		c0.63,0,1.071-0.385,1.071-0.952c0-0.827-0.729-0.904-1.148-0.904c-0.091,0-0.189,0.007-0.28,0.007V94.076z"/>
	<path d="M62.465,96.878h-0.658v-3.495h-1.148v-0.49c0.798-0.056,1.127-0.133,1.324-0.938h0.483V96.878z"/>
</g>
<rect x="112.832" y="98.162" class="st0" width="56.511" height="17.5"/>
<rect x="56.571" y="98.183" class="st4" width="112.872" height="17.717"/>
<line class="st4" x1="155.111" y1="111.313" x2="155.111" y2="115.481"/>
<line class="st4" x1="155.111" y1="98.397" x2="155.111" y2="102.564"/>
<line class="st4" x1="162.195" y1="111.313" x2="162.195" y2="115.481"/>
<line class="st4" x1="162.195" y1="98.397" x2="162.195" y2="102.564"/>
<line class="st4" x1="141.041" y1="111.313" x2="141.041" y2="115.481"/>
<line class="st4" x1="141.041" y1="98.397" x2="141.041" y2="102.564"/>
<line class="st4" x1="148.128" y1="111.313" x2="148.128" y2="115.481"/>
<line class="st4" x1="148.128" y1="98.397" x2="148.128" y2="102.564"/>
<line class="st4" x1="126.973" y1="111.313" x2="126.973" y2="115.481"/>
<line class="st4" x1="126.973" y1="98.397" x2="126.973" y2="102.564"/>
<line class="st4" x1="134.058" y1="111.313" x2="134.058" y2="115.481"/>
<line class="st4" x1="134.058" y1="98.397" x2="134.058" y2="102.564"/>
<line class="st4" x1="112.886" y1="111.313" x2="112.886" y2="115.481"/>
<line class="st4" x1="112.886" y1="98.397" x2="112.886" y2="102.564"/>
<line class="st4" x1="119.986" y1="111.313" x2="119.986" y2="115.481"/>
<line class="st4" x1="119.986" y1="98.397" x2="119.986" y2="102.564"/>
<line class="st4" x1="98.804" y1="111.313" x2="98.804" y2="115.481"/>
<line class="st4" x1="98.804" y1="98.397" x2="98.804" y2="102.564"/>
<line class="st4" x1="105.891" y1="111.313" x2="105.891" y2="115.481"/>
<line class="st4" x1="105.891" y1="98.397" x2="105.891" y2="102.564"/>
<line class="st4" x1="84.734" y1="111.313" x2="84.734" y2="115.481"/>
<line class="st4" x1="84.734" y1="98.397" x2="84.734" y2="102.564"/>
<line class="st4" x1="91.821" y1="111.313" x2="91.821" y2="115.481"/>
<line class="st4" x1="91.821" y1="98.397" x2="91.821" y2="102.564"/>
<line class="st4" x1="70.667" y1="111.313" x2="70.667" y2="115.481"/>
<line class="st4" x1="70.667" y1="98.397" x2="70.667" y2="102.564"/>
<line class="st4" x1="77.751" y1="111.313" x2="77.751" y2="115.481"/>
<line class="st4" x1="77.751" y1="98.397" x2="77.751" y2="102.564"/>
<line class="st4" x1="63.684" y1="111.313" x2="63.684" y2="115.481"/>
<line class="st4" x1="63.684" y1="98.397" x2="63.684" y2="102.564"/>
<line class="st2" x1="56.252" y1="115.9" x2="169.231" y2="115.9"/>
<g>
	<g>
		<path d="M60.322,110.558c-1.637,0-1.953-1.742-1.953-2.925s0.316-2.925,1.953-2.925s1.953,1.742,1.953,2.925
			S61.959,110.558,60.322,110.558z M60.322,105.348c-0.818,0-1.191,0.859-1.191,2.285c0,1.426,0.373,2.285,1.191,2.285
			s1.191-0.859,1.191-2.285C61.513,106.207,61.141,105.348,60.322,105.348z"/>
		<path d="M67.321,110.558c-1.637,0-1.953-1.742-1.953-2.925s0.316-2.925,1.953-2.925s1.953,1.742,1.953,2.925
			S68.957,110.558,67.321,110.558z M67.321,105.348c-0.818,0-1.191,0.859-1.191,2.285c0,1.426,0.373,2.285,1.191,2.285
			s1.191-0.859,1.191-2.285C68.512,106.207,68.139,105.348,67.321,105.348z"/>
		<path d="M74.319,110.558c-1.637,0-1.953-1.742-1.953-2.925s0.316-2.925,1.953-2.925s1.953,1.742,1.953,2.925
			S75.956,110.558,74.319,110.558z M74.319,105.348c-0.818,0-1.191,0.859-1.191,2.285c0,1.426,0.373,2.285,1.191,2.285
			s1.191-0.859,1.191-2.285C75.51,106.207,75.137,105.348,74.319,105.348z"/>
		<path d="M81.317,110.558c-1.637,0-1.953-1.742-1.953-2.925s0.316-2.925,1.953-2.925s1.953,1.742,1.953,2.925
			S82.954,110.558,81.317,110.558z M81.317,105.348c-0.818,0-1.191,0.859-1.191,2.285c0,1.426,0.373,2.285,1.191,2.285
			s1.191-0.859,1.191-2.285C82.508,106.207,82.136,105.348,81.317,105.348z"/>
		<path d="M88.316,110.558c-1.637,0-1.953-1.742-1.953-2.925s0.316-2.925,1.953-2.925s1.953,1.742,1.953,2.925
			S89.953,110.558,88.316,110.558z M88.316,105.348c-0.818,0-1.191,0.859-1.191,2.285c0,1.426,0.373,2.285,1.191,2.285
			s1.191-0.859,1.191-2.285C89.507,106.207,89.134,105.348,88.316,105.348z"/>
		<path d="M95.314,110.558c-1.637,0-1.953-1.742-1.953-2.925s0.316-2.925,1.953-2.925s1.953,1.742,1.953,2.925
			S96.951,110.558,95.314,110.558z M95.314,105.348c-0.818,0-1.191,0.859-1.191,2.285c0,1.426,0.373,2.285,1.191,2.285
			s1.191-0.859,1.191-2.285C96.505,106.207,96.133,105.348,95.314,105.348z"/>
		<path d="M102.312,110.558c-1.637,0-1.953-1.742-1.953-2.925s0.316-2.925,1.953-2.925s1.953,1.742,1.953,2.925
			S103.949,110.558,102.312,110.558z M102.312,105.348c-0.818,0-1.191,0.859-1.191,2.285c0,1.426,0.373,2.285,1.191,2.285
			s1.191-0.859,1.191-2.285C103.503,106.207,103.131,105.348,102.312,105.348z"/>
		<path d="M109.311,110.558c-1.637,0-1.953-1.742-1.953-2.925s0.316-2.925,1.953-2.925s1.953,1.742,1.953,2.925
			S110.948,110.558,109.311,110.558z M109.311,105.348c-0.818,0-1.191,0.859-1.191,2.285c0,1.426,0.373,2.285,1.191,2.285
			s1.191-0.859,1.191-2.285C110.502,106.207,110.129,105.348,109.311,105.348z"/>
		<path d="M116.966,110.404h-0.762v-4.043h-1.329v-0.567c0.924-0.065,1.305-0.154,1.531-1.085h0.559V110.404z"/>
		<path d="M123.964,110.404h-0.762v-4.043h-1.329v-0.567c0.924-0.065,1.305-0.154,1.531-1.085h0.559V110.404z"/>
		<path d="M130.962,110.404h-0.762v-4.043h-1.329v-0.567c0.924-0.065,1.305-0.154,1.531-1.085h0.559V110.404z"/>
		<path d="M137.961,110.404h-0.762v-4.043h-1.329v-0.567c0.924-0.065,1.305-0.154,1.531-1.085h0.559V110.404z"/>
		<path d="M144.959,110.404h-0.762v-4.043h-1.329v-0.567c0.924-0.065,1.305-0.154,1.531-1.085h0.559V110.404z"/>
		<path d="M151.957,110.404h-0.762v-4.043h-1.329v-0.567c0.924-0.065,1.305-0.154,1.531-1.085h0.559V110.404z"/>
		<path d="M158.956,110.404h-0.762v-4.043h-1.329v-0.567c0.924-0.065,1.305-0.154,1.531-1.085h0.559V110.404z"/>
		<path d="M165.955,110.404h-0.762v-4.043h-1.329v-0.567c0.924-0.065,1.305-0.154,1.531-1.085h0.56V110.404z"/>
	</g>
</g>
<g>
	<g>
		<path d="M8.068,67.127c-0.04-0.887-0.775-1.167-1.423-1.167c-0.488,0-1.311,0.136-1.311,1.007c0,0.488,0.344,0.647,0.68,0.728
			l1.639,0.376c0.744,0.176,1.304,0.624,1.304,1.535c0,1.359-1.264,1.735-2.247,1.735c-1.063,0-1.479-0.32-1.735-0.552
			c-0.488-0.439-0.584-0.919-0.584-1.455h0.728c0,1.04,0.847,1.343,1.583,1.343c0.56,0,1.503-0.144,1.503-0.967
			c0-0.6-0.28-0.792-1.223-1.016l-1.175-0.272c-0.376-0.088-1.224-0.352-1.224-1.351c0-0.896,0.584-1.775,1.975-1.775
			c2.007,0,2.207,1.199,2.239,1.831H8.068z"/>
		<path d="M10.653,71.189H9.95v-4.182h0.664v0.696h0.016c0.28-0.488,0.647-0.816,1.175-0.816c0.088,0,0.128,0.008,0.184,0.024v0.728
			h-0.264c-0.656,0-1.071,0.512-1.071,1.12V71.189z"/>
		<path d="M14.972,68.414c-0.088-0.56-0.4-0.896-0.991-0.896c-0.872,0-1.151,0.832-1.151,1.575c0,0.719,0.176,1.607,1.143,1.607
			c0.472,0,0.879-0.352,1-0.991h0.68c-0.072,0.664-0.48,1.599-1.703,1.599c-1.175,0-1.871-0.888-1.871-2.095
			c0-1.295,0.624-2.327,2.007-2.327c1.096,0,1.511,0.8,1.567,1.527H14.972z"/>
		<path d="M18.708,71.189h-0.752v-3.99h-1.311v-0.56c0.912-0.064,1.287-0.152,1.511-1.072h0.552V71.189z"/>
		<path d="M23.107,68.15c0,0.456-0.368,0.824-0.824,0.824c-0.456,0-0.823-0.368-0.823-0.824c0-0.456,0.368-0.823,0.823-0.823
			C22.756,67.327,23.107,67.711,23.107,68.15z"/>
		<path d="M28.356,67.127c-0.04-0.887-0.775-1.167-1.423-1.167c-0.488,0-1.311,0.136-1.311,1.007c0,0.488,0.344,0.647,0.68,0.728
			l1.639,0.376c0.744,0.176,1.304,0.624,1.304,1.535c0,1.359-1.264,1.735-2.247,1.735c-1.063,0-1.479-0.32-1.735-0.552
			c-0.488-0.439-0.584-0.919-0.584-1.455h0.728c0,1.04,0.847,1.343,1.583,1.343c0.56,0,1.503-0.144,1.503-0.967
			c0-0.6-0.28-0.792-1.223-1.016l-1.175-0.272c-0.376-0.088-1.224-0.352-1.224-1.351c0-0.896,0.584-1.775,1.975-1.775
			c2.007,0,2.207,1.199,2.239,1.831H28.356z"/>
		<path d="M30.941,71.189h-0.704v-4.182h0.664v0.696h0.016c0.28-0.488,0.647-0.816,1.175-0.816c0.088,0,0.128,0.008,0.184,0.024
			v0.728h-0.264c-0.656,0-1.071,0.512-1.071,1.12V71.189z"/>
		<path d="M35.26,68.414c-0.088-0.56-0.4-0.896-0.991-0.896c-0.872,0-1.151,0.832-1.151,1.575c0,0.719,0.176,1.607,1.143,1.607
			c0.472,0,0.879-0.352,1-0.991h0.68c-0.072,0.664-0.48,1.599-1.703,1.599c-1.175,0-1.871-0.888-1.871-2.095
			c0-1.295,0.624-2.327,2.007-2.327c1.096,0,1.511,0.8,1.567,1.527H35.26z"/>
		<path d="M38.997,71.189h-0.752v-3.99h-1.311v-0.56c0.912-0.064,1.287-0.152,1.511-1.072h0.552V71.189z"/>
		<path d="M42.621,67.151h0.583v1.727h1.727v0.583h-1.727v1.727h-0.583v-1.727h-1.735v-0.583h1.735V67.151z"/>
		<path d="M48.117,71.189h-0.752v-3.99h-1.311v-0.56c0.912-0.064,1.287-0.152,1.511-1.072h0.552V71.189z"/>
	</g>
</g>
<g>
	<g>
		<path d="M8.068,107.303c-0.04-0.887-0.775-1.167-1.423-1.167c-0.488,0-1.311,0.136-1.311,1.007c0,0.488,0.344,0.647,0.68,0.728
			l1.639,0.376c0.744,0.176,1.304,0.624,1.304,1.535c0,1.359-1.264,1.735-2.247,1.735c-1.063,0-1.479-0.32-1.735-0.552
			c-0.488-0.439-0.584-0.919-0.584-1.455h0.728c0,1.04,0.847,1.343,1.583,1.343c0.56,0,1.503-0.144,1.503-0.967
			c0-0.6-0.28-0.792-1.223-1.016l-1.175-0.272c-0.376-0.088-1.224-0.352-1.224-1.351c0-0.896,0.584-1.775,1.975-1.775
			c2.007,0,2.207,1.199,2.239,1.831H8.068z"/>
		<path d="M10.653,111.365H9.95v-4.182h0.664v0.696h0.016c0.28-0.488,0.647-0.816,1.175-0.816c0.088,0,0.128,0.008,0.184,0.024
			v0.728h-0.264c-0.656,0-1.071,0.512-1.071,1.12V111.365z"/>
		<path d="M14.972,108.59c-0.088-0.56-0.4-0.896-0.991-0.896c-0.872,0-1.151,0.832-1.151,1.575c0,0.719,0.176,1.607,1.143,1.607
			c0.472,0,0.879-0.352,1-0.991h0.68c-0.072,0.664-0.48,1.599-1.703,1.599c-1.175,0-1.871-0.888-1.871-2.095
			c0-1.295,0.624-2.327,2.007-2.327c1.096,0,1.511,0.8,1.567,1.527H14.972z"/>
		<path d="M16.19,107.759c0-1.831,1.335-2.015,1.943-2.015c0.975,0,1.759,0.632,1.759,1.679c0,1.007-0.664,1.431-1.503,1.879
			l-0.584,0.32c-0.768,0.424-0.936,0.864-0.967,1.08h3.054v0.664h-3.846c0.04-1.167,0.567-1.791,1.319-2.231l0.744-0.432
			c0.6-0.344,1.031-0.576,1.031-1.311c0-0.448-0.288-1.016-1.111-1.016c-1.063,0-1.111,0.992-1.136,1.383H16.19z"/>
		<path d="M23.107,108.326c0,0.456-0.368,0.824-0.824,0.824c-0.456,0-0.823-0.368-0.823-0.824c0-0.456,0.368-0.823,0.823-0.823
			C22.756,107.503,23.107,107.887,23.107,108.326z"/>
		<path d="M28.356,107.303c-0.04-0.887-0.775-1.167-1.423-1.167c-0.488,0-1.311,0.136-1.311,1.007c0,0.488,0.344,0.647,0.68,0.728
			l1.639,0.376c0.744,0.176,1.304,0.624,1.304,1.535c0,1.359-1.264,1.735-2.247,1.735c-1.063,0-1.479-0.32-1.735-0.552
			c-0.488-0.439-0.584-0.919-0.584-1.455h0.728c0,1.04,0.847,1.343,1.583,1.343c0.56,0,1.503-0.144,1.503-0.967
			c0-0.6-0.28-0.792-1.223-1.016l-1.175-0.272c-0.376-0.088-1.224-0.352-1.224-1.351c0-0.896,0.584-1.775,1.975-1.775
			c2.007,0,2.207,1.199,2.239,1.831H28.356z"/>
		<path d="M30.941,111.365h-0.704v-4.182h0.664v0.696h0.016c0.28-0.488,0.647-0.816,1.175-0.816c0.088,0,0.128,0.008,0.184,0.024
			v0.728h-0.264c-0.656,0-1.071,0.512-1.071,1.12V111.365z"/>
		<path d="M35.26,108.59c-0.088-0.56-0.4-0.896-0.991-0.896c-0.872,0-1.151,0.832-1.151,1.575c0,0.719,0.176,1.607,1.143,1.607
			c0.472,0,0.879-0.352,1-0.991h0.68c-0.072,0.664-0.48,1.599-1.703,1.599c-1.175,0-1.871-0.888-1.871-2.095
			c0-1.295,0.624-2.327,2.007-2.327c1.096,0,1.511,0.8,1.567,1.527H35.26z"/>
		<path d="M36.478,107.759c0-1.831,1.335-2.015,1.943-2.015c0.975,0,1.759,0.632,1.759,1.679c0,1.007-0.664,1.431-1.503,1.879
			l-0.584,0.32c-0.768,0.424-0.936,0.864-0.967,1.08h3.054v0.664h-3.846c0.04-1.167,0.567-1.791,1.319-2.231l0.744-0.432
			c0.6-0.344,1.031-0.576,1.031-1.311c0-0.448-0.288-1.016-1.111-1.016c-1.063,0-1.111,0.992-1.136,1.383H36.478z"/>
		<path d="M42.621,107.327h0.583v1.727h1.727v0.583h-1.727v1.727h-0.583v-1.727h-1.735v-0.583h1.735V107.327z"/>
		<path d="M48.117,111.365h-0.752v-3.99h-1.311v-0.56c0.912-0.064,1.287-0.152,1.511-1.072h0.552V111.365z"/>
	</g>
</g>
<g>
	<g>
		<path d="M4.645,144.206h2.327c1.496,0,2.415,1.135,2.415,2.79c0,1.287-0.56,2.95-2.447,2.95H4.645V144.206z M5.421,149.283h1.503
			c1.008,0,1.663-0.792,1.663-2.239s-0.664-2.175-1.719-2.175H5.421V149.283z"/>
		<path d="M12.668,146.956c-0.008-0.264-0.104-0.703-0.992-0.703c-0.216,0-0.832,0.071-0.832,0.592c0,0.344,0.216,0.423,0.76,0.56
			l0.704,0.176c0.872,0.216,1.175,0.535,1.175,1.104c0,0.863-0.711,1.383-1.655,1.383c-1.655,0-1.775-0.959-1.799-1.463h0.68
			c0.024,0.327,0.12,0.855,1.111,0.855c0.504,0,0.959-0.2,0.959-0.664c0-0.336-0.232-0.447-0.832-0.6l-0.815-0.199
			c-0.584-0.145-0.968-0.44-0.968-1.016c0-0.92,0.76-1.336,1.583-1.336c1.495,0,1.599,1.104,1.599,1.312H12.668z"/>
		<path d="M15.157,146.349v2.719c0,0.327,0.28,0.327,0.424,0.327h0.248v0.552c-0.256,0.024-0.456,0.057-0.527,0.057
			c-0.696,0-0.848-0.393-0.848-0.896v-2.759h-0.568v-0.584h0.568v-1.167h0.704v1.167h0.671v0.584H15.157z"/>
		<path d="M18.819,146.908c0,0.456-0.368,0.823-0.824,0.823c-0.456,0-0.823-0.367-0.823-0.823s0.368-0.823,0.823-0.823
			C18.468,146.085,18.819,146.469,18.819,146.908z"/>
		<path d="M20.645,144.206h2.327c1.496,0,2.415,1.135,2.415,2.79c0,1.287-0.56,2.95-2.447,2.95h-2.295V144.206z M21.421,149.283
			h1.503c1.008,0,1.663-0.792,1.663-2.239s-0.664-2.175-1.719-2.175h-1.447V149.283z"/>
		<path d="M28.668,146.956c-0.008-0.264-0.104-0.703-0.992-0.703c-0.216,0-0.832,0.071-0.832,0.592c0,0.344,0.216,0.423,0.76,0.56
			l0.704,0.176c0.872,0.216,1.175,0.535,1.175,1.104c0,0.863-0.711,1.383-1.655,1.383c-1.655,0-1.775-0.959-1.799-1.463h0.68
			c0.024,0.327,0.12,0.855,1.111,0.855c0.504,0,0.959-0.2,0.959-0.664c0-0.336-0.232-0.447-0.832-0.6l-0.815-0.199
			c-0.584-0.145-0.968-0.44-0.968-1.016c0-0.92,0.76-1.336,1.583-1.336c1.495,0,1.599,1.104,1.599,1.312H28.668z"/>
		<path d="M31.157,146.349v2.719c0,0.327,0.28,0.327,0.424,0.327h0.248v0.552c-0.256,0.024-0.456,0.057-0.527,0.057
			c-0.696,0-0.848-0.393-0.848-0.896v-2.759h-0.568v-0.584h0.568v-1.167h0.704v1.167h0.671v0.584H31.157z"/>
		<path d="M34.044,145.909h0.583v1.727h1.727v0.584h-1.727v1.727h-0.583v-1.727H32.31v-0.584h1.735V145.909z"/>
		<path d="M39.54,149.946h-0.752v-3.989h-1.311v-0.56c0.912-0.064,1.287-0.152,1.511-1.072h0.552V149.946z"/>
	</g>
</g>
<g>
	<path d="M56.661,129.554v-5.029h0.616v1.828h0.014c0.266-0.385,0.63-0.56,1.058-0.566c0.974,0,1.527,0.798,1.527,1.827
		c0,0.876-0.364,2.046-1.611,2.046c-0.624,0-0.883-0.357-1.009-0.561h-0.014v0.455H56.661z M58.237,126.339
		c-0.889,0-0.987,0.96-0.987,1.555c0,0.974,0.609,1.233,1.001,1.233c0.672,0,0.987-0.609,0.987-1.415
		C59.238,127.242,59.189,126.339,58.237,126.339z"/>
	<path d="M60.616,125.226v-0.701h0.616v0.701H60.616z M61.232,129.554h-0.616v-3.663h0.616V129.554z"/>
	<path d="M62.912,126.402v2.381c0,0.287,0.245,0.287,0.372,0.287H63.5v0.483c-0.224,0.021-0.399,0.049-0.462,0.049
		c-0.609,0-0.743-0.343-0.743-0.784v-2.416h-0.497v-0.512h0.497v-1.022h0.616v1.022H63.5v0.512H62.912z"/>
	<path d="M57.627,133.002c0.105,0.007,0.217,0.015,0.322,0.015c0.476,0,0.938-0.189,0.938-0.806c0-0.294-0.175-0.777-0.911-0.777
		c-0.875,0-0.932,0.714-0.959,1.058h-0.602c0-0.722,0.294-1.611,1.59-1.611c0.952,0,1.52,0.547,1.52,1.296
		c0,0.63-0.364,0.932-0.63,1.016v0.014c0.477,0.154,0.819,0.49,0.819,1.148c0,0.806-0.518,1.583-1.772,1.583
		c-0.364,0-0.672-0.091-0.91-0.217c-0.546-0.287-0.693-0.854-0.735-1.422h0.637c0.021,0.462,0.133,1.086,1.051,1.086
		c0.63,0,1.071-0.386,1.071-0.953c0-0.826-0.729-0.903-1.148-0.903c-0.091,0-0.189,0.007-0.28,0.007V133.002z"/>
	<path d="M62.465,135.804h-0.658v-3.495h-1.148v-0.49c0.798-0.056,1.127-0.133,1.324-0.938h0.483V135.804z"/>
</g>
<rect x="56.506" y="137.087" class="st0" width="28.255" height="17.5"/>
<rect x="141.148" y="137.087" class="st0" width="28.256" height="17.5"/>
<rect x="56.571" y="137.109" class="st4" width="112.872" height="17.716"/>
<line class="st4" x1="155.111" y1="150.239" x2="155.111" y2="154.407"/>
<line class="st4" x1="155.111" y1="137.322" x2="155.111" y2="141.489"/>
<line class="st4" x1="162.195" y1="150.239" x2="162.195" y2="154.407"/>
<line class="st4" x1="162.195" y1="137.322" x2="162.195" y2="141.489"/>
<line class="st4" x1="141.041" y1="150.239" x2="141.041" y2="154.407"/>
<line class="st4" x1="141.041" y1="137.322" x2="141.041" y2="141.489"/>
<line class="st4" x1="148.128" y1="150.239" x2="148.128" y2="154.407"/>
<line class="st4" x1="148.128" y1="137.322" x2="148.128" y2="141.489"/>
<line class="st4" x1="126.973" y1="150.239" x2="126.973" y2="154.407"/>
<line class="st4" x1="126.973" y1="137.322" x2="126.973" y2="141.489"/>
<line class="st4" x1="134.058" y1="150.239" x2="134.058" y2="154.407"/>
<line class="st4" x1="134.058" y1="137.322" x2="134.058" y2="141.489"/>
<line class="st4" x1="112.886" y1="150.239" x2="112.886" y2="154.407"/>
<line class="st4" x1="112.886" y1="137.322" x2="112.886" y2="141.489"/>
<line class="st4" x1="119.986" y1="150.239" x2="119.986" y2="154.407"/>
<line class="st4" x1="119.986" y1="137.322" x2="119.986" y2="141.489"/>
<line class="st4" x1="98.804" y1="150.239" x2="98.804" y2="154.407"/>
<line class="st4" x1="98.804" y1="137.322" x2="98.804" y2="141.489"/>
<line class="st4" x1="105.891" y1="150.239" x2="105.891" y2="154.407"/>
<line class="st4" x1="105.891" y1="137.322" x2="105.891" y2="141.489"/>
<line class="st4" x1="84.734" y1="150.239" x2="84.734" y2="154.407"/>
<line class="st4" x1="84.734" y1="137.322" x2="84.734" y2="141.489"/>
<line class="st4" x1="91.821" y1="150.239" x2="91.821" y2="154.407"/>
<line class="st4" x1="91.821" y1="137.322" x2="91.821" y2="141.489"/>
<line class="st4" x1="70.667" y1="150.239" x2="70.667" y2="154.407"/>
<line class="st4" x1="70.667" y1="137.322" x2="70.667" y2="141.489"/>
<line class="st4" x1="77.751" y1="150.239" x2="77.751" y2="154.407"/>
<line class="st4" x1="77.751" y1="137.322" x2="77.751" y2="141.489"/>
<line class="st4" x1="63.684" y1="150.239" x2="63.684" y2="154.407"/>
<line class="st4" x1="63.684" y1="137.322" x2="63.684" y2="141.489"/>
<line class="st2" x1="56.252" y1="154.825" x2="169.231" y2="154.825"/>
<g>
	<g>
		<path d="M60.978,149.33h-0.762v-4.043h-1.329v-0.567c0.924-0.064,1.305-0.154,1.531-1.086h0.559V149.33z"/>
		<path d="M67.977,149.33h-0.762v-4.043h-1.329v-0.567c0.924-0.064,1.305-0.154,1.531-1.086h0.559V149.33z"/>
		<path d="M74.975,149.33h-0.762v-4.043h-1.329v-0.567c0.924-0.064,1.305-0.154,1.531-1.086h0.559V149.33z"/>
		<path d="M81.974,149.33h-0.762v-4.043h-1.329v-0.567c0.924-0.064,1.305-0.154,1.531-1.086h0.559V149.33z"/>
		<path d="M88.316,149.484c-1.637,0-1.953-1.742-1.953-2.926c0-1.183,0.316-2.925,1.953-2.925s1.953,1.742,1.953,2.925
			C90.269,147.742,89.953,149.484,88.316,149.484z M88.316,144.274c-0.818,0-1.191,0.858-1.191,2.284
			c0,1.427,0.373,2.285,1.191,2.285s1.191-0.858,1.191-2.285C89.507,145.133,89.134,144.274,88.316,144.274z"/>
		<path d="M95.314,149.484c-1.637,0-1.953-1.742-1.953-2.926c0-1.183,0.316-2.925,1.953-2.925s1.953,1.742,1.953,2.925
			C97.267,147.742,96.951,149.484,95.314,149.484z M95.314,144.274c-0.818,0-1.191,0.858-1.191,2.284
			c0,1.427,0.373,2.285,1.191,2.285s1.191-0.858,1.191-2.285C96.505,145.133,96.133,144.274,95.314,144.274z"/>
		<path d="M102.312,149.484c-1.637,0-1.953-1.742-1.953-2.926c0-1.183,0.316-2.925,1.953-2.925s1.953,1.742,1.953,2.925
			C104.265,147.742,103.949,149.484,102.312,149.484z M102.312,144.274c-0.818,0-1.191,0.858-1.191,2.284
			c0,1.427,0.373,2.285,1.191,2.285s1.191-0.858,1.191-2.285C103.503,145.133,103.131,144.274,102.312,144.274z"/>
		<path d="M109.311,149.484c-1.637,0-1.953-1.742-1.953-2.926c0-1.183,0.316-2.925,1.953-2.925s1.953,1.742,1.953,2.925
			C111.264,147.742,110.948,149.484,109.311,149.484z M109.311,144.274c-0.818,0-1.191,0.858-1.191,2.284
			c0,1.427,0.373,2.285,1.191,2.285s1.191-0.858,1.191-2.285C110.502,145.133,110.129,144.274,109.311,144.274z"/>
		<path d="M116.31,149.484c-1.637,0-1.953-1.742-1.953-2.926c0-1.183,0.316-2.925,1.953-2.925s1.953,1.742,1.953,2.925
			C118.262,147.742,117.946,149.484,116.31,149.484z M116.31,144.274c-0.818,0-1.191,0.858-1.191,2.284
			c0,1.427,0.373,2.285,1.191,2.285s1.191-0.858,1.191-2.285C117.5,145.133,117.128,144.274,116.31,144.274z"/>
		<path d="M123.308,149.484c-1.637,0-1.953-1.742-1.953-2.926c0-1.183,0.316-2.925,1.953-2.925s1.953,1.742,1.953,2.925
			C125.261,147.742,124.945,149.484,123.308,149.484z M123.308,144.274c-0.818,0-1.191,0.858-1.191,2.284
			c0,1.427,0.373,2.285,1.191,2.285s1.191-0.858,1.191-2.285C124.499,145.133,124.126,144.274,123.308,144.274z"/>
		<path d="M130.306,149.484c-1.637,0-1.953-1.742-1.953-2.926c0-1.183,0.316-2.925,1.953-2.925s1.953,1.742,1.953,2.925
			C132.259,147.742,131.943,149.484,130.306,149.484z M130.306,144.274c-0.818,0-1.191,0.858-1.191,2.284
			c0,1.427,0.373,2.285,1.191,2.285s1.191-0.858,1.191-2.285C131.497,145.133,131.124,144.274,130.306,144.274z"/>
		<path d="M137.305,149.484c-1.637,0-1.953-1.742-1.953-2.926c0-1.183,0.316-2.925,1.953-2.925s1.953,1.742,1.953,2.925
			C139.257,147.742,138.941,149.484,137.305,149.484z M137.305,144.274c-0.818,0-1.191,0.858-1.191,2.284
			c0,1.427,0.373,2.285,1.191,2.285s1.191-0.858,1.191-2.285C138.496,145.133,138.123,144.274,137.305,144.274z"/>
		<path d="M144.959,149.33h-0.762v-4.043h-1.329v-0.567c0.924-0.064,1.305-0.154,1.531-1.086h0.559V149.33z"/>
		<path d="M151.957,149.33h-0.762v-4.043h-1.329v-0.567c0.924-0.064,1.305-0.154,1.531-1.086h0.559V149.33z"/>
		<path d="M158.956,149.33h-0.762v-4.043h-1.329v-0.567c0.924-0.064,1.305-0.154,1.531-1.086h0.559V149.33z"/>
		<path d="M165.955,149.33h-0.762v-4.043h-1.329v-0.567c0.924-0.064,1.305-0.154,1.531-1.086h0.56V149.33z"/>
	</g>
</g>
</svg>
