<?xml version="1.0" encoding="utf-8"?>
<!-- Generator: Adobe Illustrator 28.2.0, SVG Export Plug-In . SVG Version: 6.00 Build 0)  -->
<svg version="1.1" id="儗僀儎乕_1" xmlns="http://www.w3.org/2000/svg" xmlns:xlink="http://www.w3.org/1999/xlink" x="0px"
	 y="0px" width="311.1px" height="108.959px" viewBox="0 0 311.1 108.959" style="enable-background:new 0 0 311.1 108.959;"
	 xml:space="preserve">
<style type="text/css">
	.st0{fill:#FFFFFF;stroke:#000000;}
	.st1{fill:none;stroke:#000000;}
	.st2{fill:none;stroke:#808080;}
	.st3{stroke:#000000;}
	.st4{stroke:#000000;stroke-width:0.5;}
</style>
<rect x="124.713" y="12.669" class="st0" width="178.539" height="22.146"/>
<line class="st0" x1="258.969" y1="34.815" x2="258.969" y2="12.669"/>
<g>
	<path d="M17.028,8.205h4.662v0.688h-1.943v5.053h-0.776V8.892h-1.943V8.205z"/>
	<path d="M22.164,13.946H21.46V9.764h0.664v0.696h0.016c0.28-0.488,0.647-0.816,1.175-0.816c0.088,0,0.128,0.008,0.184,0.024v0.728
		h-0.264c-0.656,0-1.071,0.512-1.071,1.12V13.946z"/>
	<path d="M24.164,9.004V8.205h0.704v0.799H24.164z M24.867,13.946h-0.704V9.764h0.704V13.946z"/>
	<path d="M29.394,13.602c0,0.6-0.008,2.103-1.943,2.103c-0.496,0-1.463-0.136-1.599-1.248h0.704
		c0.128,0.664,0.775,0.664,0.943,0.664c1.215,0,1.191-0.976,1.191-1.471v-0.176h-0.016v0.032c-0.184,0.296-0.551,0.56-1.111,0.56
		c-1.423,0-1.839-1.335-1.839-2.335c0-1.175,0.632-2.087,1.743-2.087c0.759,0,1.079,0.472,1.247,0.712h0.016V9.764h0.664V13.602z
		 M27.579,13.458c0.448,0,1.144-0.296,1.144-1.407c0-0.68-0.112-1.775-1.127-1.775c-1.087,0-1.144,1.031-1.144,1.567
		C26.451,12.762,26.811,13.458,27.579,13.458z"/>
	<path d="M33.842,13.602c0,0.6-0.008,2.103-1.943,2.103c-0.496,0-1.463-0.136-1.599-1.248h0.704
		c0.128,0.664,0.775,0.664,0.943,0.664c1.215,0,1.191-0.976,1.191-1.471v-0.176h-0.016v0.032c-0.184,0.296-0.551,0.56-1.111,0.56
		c-1.423,0-1.839-1.335-1.839-2.335c0-1.175,0.632-2.087,1.743-2.087c0.759,0,1.079,0.472,1.247,0.712h0.016V9.764h0.664V13.602z
		 M32.027,13.458c0.448,0,1.144-0.296,1.144-1.407c0-0.68-0.112-1.775-1.127-1.775c-1.087,0-1.144,1.031-1.144,1.567
		C30.9,12.762,31.259,13.458,32.027,13.458z"/>
	<path d="M38.37,12.635c-0.024,0.2-0.216,0.792-0.744,1.143c-0.192,0.128-0.464,0.288-1.135,0.288c-1.175,0-1.871-0.888-1.871-2.095
		c0-1.295,0.624-2.327,2.007-2.327c1.208,0,1.799,0.959,1.799,2.439h-3.054c0,0.871,0.408,1.375,1.215,1.375
		c0.664,0,1.056-0.512,1.08-0.823H38.37z M37.698,11.523c-0.04-0.647-0.312-1.247-1.167-1.247c-0.648,0-1.16,0.6-1.16,1.247H37.698z
		"/>
	<path d="M40.067,13.946h-0.704V9.764h0.664v0.696h0.016c0.28-0.488,0.647-0.816,1.175-0.816c0.088,0,0.128,0.008,0.184,0.024v0.728
		h-0.264c-0.656,0-1.071,0.512-1.071,1.12V13.946z"/>
</g>
<g>
	<path d="M17.028,69.154h4.662v0.688h-1.943v5.053h-0.776v-5.053h-1.943V69.154z"/>
	<path d="M22.164,74.895H21.46v-4.182h0.664v0.696h0.016c0.28-0.488,0.647-0.816,1.175-0.816c0.088,0,0.128,0.008,0.184,0.024v0.728
		h-0.264c-0.656,0-1.071,0.512-1.071,1.12V74.895z"/>
	<path d="M24.164,69.953v-0.799h0.704v0.799H24.164z M24.867,74.895h-0.704v-4.182h0.704V74.895z"/>
	<path d="M29.394,74.551c0,0.6-0.008,2.103-1.943,2.103c-0.496,0-1.463-0.136-1.599-1.248h0.704
		c0.128,0.664,0.775,0.664,0.943,0.664c1.215,0,1.191-0.976,1.191-1.471v-0.176h-0.016v0.032c-0.184,0.296-0.551,0.56-1.111,0.56
		c-1.423,0-1.839-1.335-1.839-2.335c0-1.175,0.632-2.087,1.743-2.087c0.759,0,1.079,0.472,1.247,0.712h0.016v-0.592h0.664V74.551z
		 M27.579,74.407c0.448,0,1.144-0.296,1.144-1.407c0-0.68-0.112-1.775-1.127-1.775c-1.087,0-1.144,1.031-1.144,1.567
		C26.451,73.712,26.811,74.407,27.579,74.407z"/>
	<path d="M33.842,74.551c0,0.6-0.008,2.103-1.943,2.103c-0.496,0-1.463-0.136-1.599-1.248h0.704
		c0.128,0.664,0.775,0.664,0.943,0.664c1.215,0,1.191-0.976,1.191-1.471v-0.176h-0.016v0.032c-0.184,0.296-0.551,0.56-1.111,0.56
		c-1.423,0-1.839-1.335-1.839-2.335c0-1.175,0.632-2.087,1.743-2.087c0.759,0,1.079,0.472,1.247,0.712h0.016v-0.592h0.664V74.551z
		 M32.027,74.407c0.448,0,1.144-0.296,1.144-1.407c0-0.68-0.112-1.775-1.127-1.775c-1.087,0-1.144,1.031-1.144,1.567
		C30.9,73.712,31.259,74.407,32.027,74.407z"/>
	<path d="M38.37,73.584c-0.024,0.2-0.216,0.792-0.744,1.143c-0.192,0.128-0.464,0.288-1.135,0.288c-1.175,0-1.871-0.888-1.871-2.095
		c0-1.295,0.624-2.327,2.007-2.327c1.208,0,1.799,0.959,1.799,2.439h-3.054c0,0.871,0.408,1.375,1.215,1.375
		c0.664,0,1.056-0.512,1.08-0.823H38.37z M37.698,72.472c-0.04-0.647-0.312-1.247-1.167-1.247c-0.648,0-1.16,0.6-1.16,1.247H37.698z
		"/>
	<path d="M40.067,74.895h-0.704v-4.182h0.664v0.696h0.016c0.28-0.488,0.647-0.816,1.175-0.816c0.088,0,0.128,0.008,0.184,0.024
		v0.728h-0.264c-0.656,0-1.071,0.512-1.071,1.12V74.895z"/>
</g>
<line class="st1" x1="34.395" y1="24.218" x2="55.709" y2="24.218"/>
<line class="st1" x1="303.221" y1="24.218" x2="310.6" y2="24.218"/>
<line class="st2" x1="55.75" y1="24.218" x2="114.479" y2="24.218"/>
<line class="st1" x1="0.5" y1="24.218" x2="22.375" y2="24.218"/>
<line class="st1" x1="0.5" y1="0" x2="0.5" y2="108.959"/>
<line class="st1" x1="310.6" y1="0" x2="310.6" y2="108.959"/>
<line class="st0" x1="34.395" y1="30.569" x2="34.395" y2="19.495"/>
<line class="st0" x1="22.684" y1="19.495" x2="22.684" y2="30.569"/>
<g>
	<g>
		<path d="M276.57,20.588h2.327c1.495,0,2.414,1.135,2.414,2.791c0,1.287-0.56,2.95-2.446,2.95h-2.295V20.588z M277.345,25.665
			h1.504c1.007,0,1.663-0.792,1.663-2.239s-0.664-2.175-1.72-2.175h-1.447V25.665z"/>
		<path d="M284.592,23.339c-0.008-0.264-0.104-0.704-0.991-0.704c-0.216,0-0.832,0.072-0.832,0.592c0,0.344,0.216,0.423,0.76,0.56
			l0.703,0.176c0.872,0.216,1.176,0.536,1.176,1.104c0,0.863-0.712,1.383-1.655,1.383c-1.655,0-1.774-0.959-1.799-1.463h0.68
			c0.023,0.328,0.12,0.855,1.111,0.855c0.504,0,0.959-0.2,0.959-0.664c0-0.336-0.231-0.448-0.831-0.6l-0.815-0.2
			c-0.584-0.144-0.968-0.44-0.968-1.016c0-0.919,0.76-1.335,1.583-1.335c1.495,0,1.6,1.104,1.6,1.312H284.592z"/>
		<path d="M287.081,22.731v2.719c0,0.328,0.28,0.328,0.424,0.328h0.248v0.552c-0.256,0.024-0.455,0.056-0.527,0.056
			c-0.695,0-0.848-0.392-0.848-0.896v-2.759h-0.567v-0.583h0.567V20.98h0.703v1.167h0.672v0.583H287.081z"/>
	</g>
</g>
<line class="st1" x1="34.395" y1="84.972" x2="55.709" y2="84.972"/>
<line class="st1" x1="303.813" y1="84.972" x2="310.6" y2="84.972"/>
<line class="st1" x1="114.479" y1="24.218" x2="124.486" y2="24.218"/>
<line class="st1" x1="114.479" y1="84.972" x2="124.943" y2="84.972"/>
<line class="st2" x1="55.696" y1="84.972" x2="114.478" y2="84.972"/>
<line class="st1" x1="0.5" y1="84.972" x2="22.375" y2="84.972"/>
<line class="st0" x1="34.395" y1="91.322" x2="34.395" y2="80.248"/>
<line class="st0" x1="22.684" y1="80.248" x2="22.684" y2="91.322"/>
<g>
	<g>
		<path d="M233.466,22.071c-0.04-0.887-0.775-1.167-1.423-1.167c-0.487,0-1.312,0.136-1.312,1.007c0,0.488,0.344,0.647,0.68,0.728
			l1.64,0.376c0.743,0.176,1.303,0.624,1.303,1.535c0,1.359-1.263,1.735-2.246,1.735c-1.063,0-1.479-0.32-1.735-0.552
			c-0.488-0.439-0.584-0.919-0.584-1.455h0.728c0,1.04,0.848,1.343,1.583,1.343c0.56,0,1.504-0.144,1.504-0.967
			c0-0.6-0.28-0.792-1.224-1.016l-1.176-0.272c-0.375-0.088-1.223-0.352-1.223-1.351c0-0.896,0.583-1.775,1.975-1.775
			c2.007,0,2.207,1.199,2.238,1.831H233.466z"/>
		<path d="M236.052,26.133h-0.704v-4.182h0.664v0.696h0.016c0.28-0.488,0.648-0.816,1.176-0.816c0.088,0,0.128,0.008,0.184,0.024
			v0.728h-0.264c-0.655,0-1.071,0.512-1.071,1.12V26.133z"/>
		<path d="M240.372,23.358c-0.089-0.56-0.4-0.896-0.992-0.896c-0.871,0-1.151,0.832-1.151,1.575c0,0.719,0.176,1.607,1.144,1.607
			c0.472,0,0.88-0.352,1-0.991h0.679c-0.071,0.664-0.479,1.599-1.702,1.599c-1.176,0-1.871-0.888-1.871-2.095
			c0-1.295,0.623-2.327,2.007-2.327c1.095,0,1.511,0.8,1.566,1.527H240.372z"/>
		<path d="M241.589,22.527c0-1.831,1.336-2.015,1.943-2.015c0.976,0,1.759,0.632,1.759,1.679c0,1.007-0.663,1.431-1.503,1.879
			l-0.584,0.32c-0.768,0.424-0.936,0.864-0.968,1.08h3.055v0.664h-3.846c0.04-1.167,0.567-1.791,1.319-2.231l0.743-0.432
			c0.6-0.344,1.031-0.576,1.031-1.311c0-0.448-0.287-1.016-1.111-1.016c-1.063,0-1.111,0.992-1.135,1.383H241.589z"/>
	</g>
</g>
<polyline class="st0" points="124.713,73.026 303.253,73.026 303.253,95.172 124.713,95.172 "/>
<line class="st0" x1="258.969" y1="95.172" x2="258.969" y2="73.026"/>
<line class="st0" x1="213.989" y1="34.815" x2="213.989" y2="12.669"/>
<line class="st0" x1="213.989" y1="95.172" x2="213.989" y2="73.026"/>
<g>
	<g>
		<path d="M276.57,80.945h2.327c1.495,0,2.414,1.135,2.414,2.791c0,1.287-0.56,2.95-2.446,2.95h-2.295V80.945z M277.345,86.022
			h1.504c1.007,0,1.663-0.792,1.663-2.239s-0.664-2.175-1.72-2.175h-1.447V86.022z"/>
		<path d="M284.592,83.695c-0.008-0.264-0.104-0.704-0.991-0.704c-0.216,0-0.832,0.072-0.832,0.592c0,0.344,0.216,0.423,0.76,0.56
			l0.703,0.176c0.872,0.216,1.176,0.536,1.176,1.104c0,0.863-0.712,1.383-1.655,1.383c-1.655,0-1.774-0.959-1.799-1.463h0.68
			c0.023,0.328,0.12,0.855,1.111,0.855c0.504,0,0.959-0.2,0.959-0.664c0-0.336-0.231-0.448-0.831-0.6l-0.815-0.2
			c-0.584-0.144-0.968-0.44-0.968-1.016c0-0.919,0.76-1.335,1.583-1.335c1.495,0,1.6,1.104,1.6,1.312H284.592z"/>
		<path d="M287.081,83.087v2.719c0,0.328,0.28,0.328,0.424,0.328h0.248v0.552c-0.256,0.024-0.455,0.056-0.527,0.056
			c-0.695,0-0.848-0.392-0.848-0.896v-2.759h-0.567v-0.583h0.567v-1.167h0.703v1.167h0.672v0.583H287.081z"/>
	</g>
</g>
<g>
	<g>
		<path d="M233.466,82.428c-0.04-0.887-0.775-1.167-1.423-1.167c-0.487,0-1.312,0.136-1.312,1.007c0,0.488,0.344,0.647,0.68,0.728
			l1.64,0.376c0.743,0.176,1.303,0.624,1.303,1.535c0,1.359-1.263,1.735-2.246,1.735c-1.063,0-1.479-0.32-1.735-0.552
			c-0.488-0.439-0.584-0.919-0.584-1.455h0.728c0,1.04,0.848,1.343,1.583,1.343c0.56,0,1.504-0.144,1.504-0.967
			c0-0.6-0.28-0.792-1.224-1.016l-1.176-0.272c-0.375-0.088-1.223-0.352-1.223-1.351c0-0.896,0.583-1.775,1.975-1.775
			c2.007,0,2.207,1.199,2.238,1.831H233.466z"/>
		<path d="M236.052,86.49h-0.704v-4.182h0.664v0.696h0.016c0.28-0.488,0.648-0.816,1.176-0.816c0.088,0,0.128,0.008,0.184,0.024
			v0.728h-0.264c-0.655,0-1.071,0.512-1.071,1.12V86.49z"/>
		<path d="M240.372,83.716c-0.089-0.56-0.4-0.896-0.992-0.896c-0.871,0-1.151,0.832-1.151,1.575c0,0.719,0.176,1.607,1.144,1.607
			c0.472,0,0.88-0.352,1-0.991h0.679c-0.071,0.664-0.479,1.599-1.702,1.599c-1.176,0-1.871-0.888-1.871-2.095
			c0-1.295,0.623-2.327,2.007-2.327c1.095,0,1.511,0.8,1.566,1.527H240.372z"/>
		<path d="M241.589,82.884c0-1.831,1.336-2.015,1.943-2.015c0.976,0,1.759,0.632,1.759,1.679c0,1.007-0.663,1.431-1.503,1.879
			l-0.584,0.32c-0.768,0.424-0.936,0.864-0.968,1.08h3.055v0.664h-3.846c0.04-1.167,0.567-1.791,1.319-2.231l0.743-0.432
			c0.6-0.344,1.031-0.576,1.031-1.311c0-0.448-0.287-1.016-1.111-1.016c-1.063,0-1.111,0.992-1.135,1.383H241.589z"/>
	</g>
</g>
<g>
	<g>
		<path d="M188.486,22.071c-0.04-0.887-0.776-1.167-1.423-1.167c-0.488,0-1.311,0.136-1.311,1.007c0,0.488,0.344,0.647,0.679,0.728
			l1.639,0.376c0.744,0.176,1.303,0.624,1.303,1.535c0,1.359-1.263,1.735-2.247,1.735c-1.063,0-1.479-0.32-1.735-0.552
			c-0.488-0.439-0.584-0.919-0.584-1.455h0.728c0,1.04,0.848,1.343,1.583,1.343c0.56,0,1.503-0.144,1.503-0.967
			c0-0.6-0.28-0.792-1.223-1.016l-1.175-0.272c-0.376-0.088-1.224-0.352-1.224-1.351c0-0.896,0.584-1.775,1.975-1.775
			c2.007,0,2.207,1.199,2.239,1.831H188.486z"/>
		<path d="M191.072,26.133h-0.704v-4.182h0.664v0.696h0.016c0.28-0.488,0.647-0.816,1.175-0.816c0.088,0,0.128,0.008,0.184,0.024
			v0.728h-0.264c-0.656,0-1.071,0.512-1.071,1.12V26.133z"/>
		<path d="M195.391,23.358c-0.088-0.56-0.4-0.896-0.992-0.896c-0.871,0-1.151,0.832-1.151,1.575c0,0.719,0.176,1.607,1.144,1.607
			c0.472,0,0.879-0.352,1-0.991h0.68c-0.072,0.664-0.48,1.599-1.703,1.599c-1.175,0-1.871-0.888-1.871-2.095
			c0-1.295,0.624-2.327,2.007-2.327c1.096,0,1.511,0.8,1.567,1.527H195.391z"/>
		<path d="M199.127,26.133h-0.752v-3.99h-1.311v-0.56c0.912-0.064,1.287-0.152,1.511-1.072h0.552V26.133z"/>
	</g>
</g>
<line class="st0" x1="169.007" y1="34.815" x2="169.007" y2="12.669"/>
<g>
	<g>
		<path d="M147.841,27.092h-0.528v-7.996h0.528V27.092z"/>
	</g>
</g>
<line class="st0" x1="169.007" y1="95.172" x2="169.007" y2="73.026"/>
<g>
	<g>
		<path d="M188.486,82.428c-0.04-0.887-0.776-1.167-1.423-1.167c-0.488,0-1.311,0.136-1.311,1.007c0,0.488,0.344,0.647,0.679,0.728
			l1.639,0.376c0.744,0.176,1.303,0.624,1.303,1.535c0,1.359-1.263,1.735-2.247,1.735c-1.063,0-1.479-0.32-1.735-0.552
			c-0.488-0.439-0.584-0.919-0.584-1.455h0.728c0,1.04,0.848,1.343,1.583,1.343c0.56,0,1.503-0.144,1.503-0.967
			c0-0.6-0.28-0.792-1.223-1.016l-1.175-0.272c-0.376-0.088-1.224-0.352-1.224-1.351c0-0.896,0.584-1.775,1.975-1.775
			c2.007,0,2.207,1.199,2.239,1.831H188.486z"/>
		<path d="M191.072,86.49h-0.704v-4.182h0.664v0.696h0.016c0.28-0.488,0.647-0.816,1.175-0.816c0.088,0,0.128,0.008,0.184,0.024
			v0.728h-0.264c-0.656,0-1.071,0.512-1.071,1.12V86.49z"/>
		<path d="M195.391,83.716c-0.088-0.56-0.4-0.896-0.992-0.896c-0.871,0-1.151,0.832-1.151,1.575c0,0.719,0.176,1.607,1.144,1.607
			c0.472,0,0.879-0.352,1-0.991h0.68c-0.072,0.664-0.48,1.599-1.703,1.599c-1.175,0-1.871-0.888-1.871-2.095
			c0-1.295,0.624-2.327,2.007-2.327c1.096,0,1.511,0.8,1.567,1.527H195.391z"/>
		<path d="M199.127,86.49h-0.752V82.5h-1.311v-0.56c0.912-0.064,1.287-0.152,1.511-1.072h0.552V86.49z"/>
	</g>
</g>
<g>
	<g>
		<path d="M147.841,87.449h-0.528v-7.996h0.528V87.449z"/>
	</g>
</g>
<g>
	<line class="st3" x1="124.865" y1="76.753" x2="124.865" y2="95.833"/>
	<polygon class="st4" points="124.681,73.891 122.589,78.763 127.018,78.763 	"/>
</g>
</svg>
