<?xml version="1.0" encoding="utf-8"?>
<!-- Generator: Adobe Illustrator 28.2.0, SVG Export Plug-In . SVG Version: 6.00 Build 0)  -->
<svg version="1.1" id="儗僀儎乕_1" xmlns="http://www.w3.org/2000/svg" xmlns:xlink="http://www.w3.org/1999/xlink" x="0px"
	 y="0px" width="390.065px" height="155.325px" viewBox="0 0 390.065 155.325" style="enable-background:new 0 0 390.065 155.325;"
	 xml:space="preserve">
<style type="text/css">
	.st0{fill:#FFFFFF;stroke:#000000;}
	.st1{fill:none;stroke:#000000;}
	.st2{fill:none;stroke:#000000;stroke-width:0.5;stroke-dasharray:1.5;}
	.st3{fill:#CCCCCC;}
	.st4{fill:none;stroke:#000000;stroke-width:0.5;}
</style>
<rect x="241.355" y="7.634" class="st0" width="142.333" height="17.717"/>
<line class="st0" x1="348.261" y1="25.351" x2="348.261" y2="7.634"/>
<line class="st1" x1="27.615" y1="16.873" x2="240.441" y2="16.873"/>
<line class="st1" x1="383.662" y1="16.873" x2="389.565" y2="16.873"/>
<line class="st1" x1="0.5" y1="16.873" x2="18" y2="16.873"/>
<line class="st1" x1="0.5" y1="0" x2="0.5" y2="31.164"/>
<line class="st1" x1="389.565" y1="0" x2="389.565" y2="31.164"/>
<line class="st0" x1="27.615" y1="21.954" x2="27.615" y2="13.095"/>
<line class="st0" x1="18.248" y1="13.095" x2="18.248" y2="21.954"/>
<line class="st0" x1="312.277" y1="25.351" x2="312.277" y2="7.634"/>
<line class="st0" x1="276.79" y1="25.351" x2="276.79" y2="7.634"/>
<g>
	<path d="M259.336,21.393h-0.527v-7.996h0.527V21.393z"/>
</g>
<g>
	<path d="M112.19,90.346c-1.877,0-2.452-1.562-2.452-2.647c0-1.086,0.575-2.647,2.452-2.647s2.451,1.562,2.451,2.647
		C114.641,88.784,114.067,90.346,112.19,90.346z M112.19,85.653c-1.093,0-1.751,0.862-1.751,2.045s0.658,2.045,1.751,2.045
		c1.092,0,1.751-0.861,1.751-2.045S113.282,85.653,112.19,85.653z"/>
	<path d="M116.207,90.212h-0.68v-5.029h2.325c0.827,0,1.653,0.287,1.653,1.352c0,0.742-0.378,1.015-0.701,1.205
		c0.287,0.119,0.574,0.245,0.603,0.945l0.042,0.911c0.007,0.28,0.042,0.385,0.252,0.504v0.112h-0.833
		c-0.098-0.308-0.119-1.072-0.119-1.261c0-0.413-0.084-0.896-0.896-0.896h-1.646V90.212z M116.207,87.474h1.576
		c0.497,0,1.022-0.126,1.022-0.869c0-0.777-0.567-0.84-0.903-0.84h-1.695V87.474z"/>
</g>
<g>
	<g>
		<path d="M32.559,67.318c-0.04-0.887-0.775-1.167-1.423-1.167c-0.488,0-1.311,0.136-1.311,1.007c0,0.488,0.344,0.647,0.68,0.728
			l1.639,0.376c0.744,0.176,1.304,0.624,1.304,1.535c0,1.359-1.264,1.735-2.247,1.735c-1.063,0-1.479-0.32-1.735-0.552
			c-0.488-0.439-0.584-0.919-0.584-1.455h0.728c0,1.04,0.847,1.343,1.583,1.343c0.56,0,1.503-0.144,1.503-0.967
			c0-0.6-0.28-0.792-1.223-1.016l-1.175-0.272c-0.376-0.088-1.224-0.352-1.224-1.351c0-0.896,0.584-1.775,1.975-1.775
			c2.007,0,2.207,1.199,2.239,1.831H32.559z"/>
		<path d="M35.145,71.38h-0.704v-4.182h0.664v0.696h0.016c0.28-0.488,0.647-0.816,1.175-0.816c0.088,0,0.128,0.008,0.184,0.024
			v0.728h-0.264c-0.656,0-1.071,0.512-1.071,1.12V71.38z"/>
		<path d="M39.464,68.606c-0.088-0.56-0.4-0.896-0.991-0.896c-0.872,0-1.151,0.832-1.151,1.575c0,0.719,0.176,1.607,1.143,1.607
			c0.472,0,0.879-0.352,1-0.991h0.68c-0.072,0.664-0.48,1.599-1.703,1.599c-1.175,0-1.871-0.888-1.871-2.095
			c0-1.295,0.624-2.327,2.007-2.327c1.096,0,1.511,0.8,1.567,1.527H39.464z"/>
		<path d="M43.2,71.38h-0.752v-3.99h-1.311v-0.56c0.912-0.064,1.287-0.152,1.511-1.072H43.2V71.38z"/>
	</g>
</g>
<g>
	<g>
		<path d="M290.318,16.135c-0.039-0.887-0.775-1.167-1.423-1.167c-0.487,0-1.312,0.136-1.312,1.007c0,0.488,0.344,0.647,0.68,0.728
			l1.64,0.376c0.743,0.176,1.303,0.624,1.303,1.535c0,1.359-1.263,1.735-2.246,1.735c-1.063,0-1.479-0.32-1.735-0.552
			c-0.488-0.439-0.584-0.919-0.584-1.455h0.728c0,1.04,0.848,1.343,1.583,1.343c0.561,0,1.504-0.144,1.504-0.967
			c0-0.6-0.28-0.792-1.224-1.016l-1.176-0.272c-0.375-0.088-1.223-0.352-1.223-1.351c0-0.896,0.583-1.775,1.975-1.775
			c2.007,0,2.207,1.199,2.239,1.831H290.318z"/>
		<path d="M292.904,20.197H292.2v-4.182h0.664v0.696h0.016c0.28-0.488,0.648-0.816,1.176-0.816c0.088,0,0.128,0.008,0.184,0.024
			v0.728h-0.264c-0.655,0-1.071,0.512-1.071,1.12V20.197z"/>
		<path d="M297.222,17.422c-0.088-0.56-0.399-0.896-0.991-0.896c-0.871,0-1.151,0.832-1.151,1.575c0,0.719,0.176,1.607,1.144,1.607
			c0.472,0,0.88-0.352,0.999-0.991h0.68c-0.071,0.664-0.479,1.599-1.703,1.599c-1.175,0-1.87-0.888-1.87-2.095
			c0-1.295,0.623-2.327,2.007-2.327c1.095,0,1.511,0.8,1.566,1.527H297.222z"/>
		<path d="M300.959,20.197h-0.751v-3.99h-1.312v-0.56c0.911-0.064,1.287-0.152,1.511-1.072h0.552V20.197z"/>
	</g>
</g>
<g>
	<g>
		<path d="M325.943,16.135c-0.039-0.887-0.775-1.167-1.423-1.167c-0.487,0-1.312,0.136-1.312,1.007c0,0.488,0.344,0.647,0.68,0.728
			l1.64,0.376c0.743,0.176,1.303,0.624,1.303,1.535c0,1.359-1.263,1.735-2.246,1.735c-1.063,0-1.479-0.32-1.735-0.552
			c-0.488-0.439-0.584-0.919-0.584-1.455h0.728c0,1.04,0.848,1.343,1.583,1.343c0.561,0,1.504-0.144,1.504-0.967
			c0-0.6-0.28-0.792-1.224-1.016l-1.176-0.272c-0.375-0.088-1.223-0.352-1.223-1.351c0-0.896,0.583-1.775,1.975-1.775
			c2.007,0,2.207,1.199,2.239,1.831H325.943z"/>
		<path d="M328.529,20.197h-0.704v-4.182h0.664v0.696h0.016c0.28-0.488,0.648-0.816,1.176-0.816c0.088,0,0.128,0.008,0.184,0.024
			v0.728H329.6c-0.655,0-1.071,0.512-1.071,1.12V20.197z"/>
		<path d="M332.847,17.422c-0.088-0.56-0.399-0.896-0.991-0.896c-0.871,0-1.151,0.832-1.151,1.575c0,0.719,0.176,1.607,1.144,1.607
			c0.472,0,0.88-0.352,0.999-0.991h0.68c-0.071,0.664-0.479,1.599-1.703,1.599c-1.175,0-1.87-0.888-1.87-2.095
			c0-1.295,0.623-2.327,2.007-2.327c1.095,0,1.511,0.8,1.566,1.527H332.847z"/>
		<path d="M334.065,16.591c0-1.831,1.336-2.015,1.943-2.015c0.976,0,1.759,0.632,1.759,1.679c0,1.007-0.664,1.431-1.503,1.879
			l-0.584,0.32c-0.768,0.424-0.936,0.864-0.968,1.08h3.055v0.664h-3.846c0.04-1.167,0.567-1.791,1.319-2.231l0.743-0.432
			c0.6-0.344,1.031-0.576,1.031-1.311c0-0.448-0.287-1.016-1.111-1.016c-1.063,0-1.111,0.992-1.135,1.383H334.065z"/>
	</g>
</g>
<g>
	<g>
		<path d="M360.29,14.456h2.327c1.495,0,2.414,1.135,2.414,2.791c0,1.287-0.56,2.95-2.446,2.95h-2.295V14.456z M361.065,19.533
			h1.504c1.007,0,1.663-0.792,1.663-2.239s-0.664-2.175-1.72-2.175h-1.447V19.533z"/>
		<path d="M368.312,17.207c-0.008-0.264-0.104-0.704-0.991-0.704c-0.216,0-0.832,0.072-0.832,0.592c0,0.344,0.216,0.423,0.76,0.56
			l0.703,0.176c0.872,0.216,1.176,0.536,1.176,1.104c0,0.863-0.712,1.383-1.655,1.383c-1.655,0-1.774-0.959-1.799-1.463h0.68
			c0.023,0.328,0.12,0.855,1.111,0.855c0.504,0,0.959-0.2,0.959-0.664c0-0.336-0.231-0.448-0.831-0.6l-0.815-0.2
			c-0.584-0.144-0.968-0.44-0.968-1.016c0-0.919,0.76-1.335,1.583-1.335c1.495,0,1.6,1.104,1.6,1.312H368.312z"/>
		<path d="M370.801,16.599v2.719c0,0.328,0.28,0.328,0.424,0.328h0.248v0.552c-0.256,0.024-0.455,0.056-0.527,0.056
			c-0.695,0-0.848-0.392-0.848-0.896v-2.759h-0.567v-0.583h0.567v-1.167h0.703v1.167h0.672v0.583H370.801z"/>
	</g>
</g>
<polyline class="st2" points="171.359,68.556 294.995,68.556 294.995,25.524 "/>
<polyline class="st2" points="171.359,107.306 330.283,107.306 330.283,25.732 "/>
<polyline class="st2" points="171.359,146.374 366.102,146.374 366.102,25.622 "/>
<g>
	<path d="M57.72,51.702v-5.029h0.616v1.828h0.014c0.266-0.385,0.63-0.561,1.058-0.567c0.974,0,1.527,0.798,1.527,1.828
		c0,0.875-0.364,2.045-1.611,2.045c-0.624,0-0.883-0.357-1.009-0.56h-0.014v0.455H57.72z M59.296,48.487
		c-0.889,0-0.987,0.959-0.987,1.555c0,0.973,0.609,1.232,1.001,1.232c0.672,0,0.987-0.609,0.987-1.415
		C60.297,49.391,60.248,48.487,59.296,48.487z"/>
	<path d="M61.675,47.374v-0.701h0.616v0.701H61.675z M62.291,51.702h-0.616v-3.663h0.616V51.702z"/>
	<path d="M63.971,48.55v2.381c0,0.287,0.246,0.287,0.372,0.287h0.217v0.483c-0.224,0.021-0.399,0.049-0.462,0.049
		c-0.609,0-0.743-0.343-0.743-0.784V48.55h-0.497v-0.511h0.497v-1.022h0.616v1.022h0.588v0.511H63.971z"/>
	<path d="M59.772,57.952h-0.658v-3.495h-1.148v-0.49c0.798-0.056,1.127-0.133,1.324-0.938h0.483V57.952z"/>
	<path d="M61.899,55.087c0.21-0.161,0.511-0.308,0.952-0.308c0.798,0,1.618,0.561,1.618,1.576c0,0.546-0.245,1.73-1.786,1.73
		c-0.645,0-1.471-0.259-1.59-1.359h0.637c0.063,0.574,0.49,0.826,1.043,0.826c0.638,0,1.037-0.511,1.037-1.127
		c0-0.708-0.483-1.093-1.092-1.093c-0.357,0-0.68,0.168-0.911,0.469l-0.532-0.028l0.371-2.64h2.549v0.602h-2.087L61.899,55.087z"/>
</g>
<g>
	<path d="M164.355,51.702v-5.029h0.616v1.828h0.014c0.267-0.385,0.631-0.561,1.058-0.567c0.974,0,1.527,0.798,1.527,1.828
		c0,0.875-0.364,2.045-1.611,2.045c-0.623,0-0.882-0.357-1.008-0.56h-0.015v0.455H164.355z M165.931,48.487
		c-0.89,0-0.988,0.959-0.988,1.555c0,0.973,0.609,1.232,1.002,1.232c0.672,0,0.987-0.609,0.987-1.415
		C166.932,49.391,166.884,48.487,165.931,48.487z"/>
	<path d="M168.31,47.374v-0.701h0.616v0.701H168.31z M168.927,51.702h-0.616v-3.663h0.616V51.702z"/>
	<path d="M170.607,48.55v2.381c0,0.287,0.245,0.287,0.371,0.287h0.217v0.483c-0.224,0.021-0.399,0.049-0.462,0.049
		c-0.609,0-0.742-0.343-0.742-0.784V48.55h-0.498v-0.511h0.498v-1.022h0.616v1.022h0.588v0.511H170.607z"/>
	<path d="M167.646,58.086c-1.415,0-1.688-1.506-1.688-2.529c0-1.022,0.273-2.528,1.688-2.528c1.414,0,1.688,1.506,1.688,2.528
		C169.334,56.58,169.06,58.086,167.646,58.086z M167.646,53.582c-0.708,0-1.029,0.742-1.029,1.975c0,1.233,0.321,1.975,1.029,1.975
		c0.707,0,1.029-0.742,1.029-1.975C168.676,54.324,168.353,53.582,167.646,53.582z"/>
</g>
<rect x="58.335" y="59.236" class="st3" width="28.362" height="17.5"/>
<rect x="114.741" y="59.236" class="st3" width="28.255" height="17.5"/>
<rect x="58.48" y="59.257" class="st4" width="112.872" height="17.717"/>
<line class="st4" x1="157.019" y1="72.388" x2="157.019" y2="76.555"/>
<line class="st4" x1="157.019" y1="59.471" x2="157.019" y2="63.638"/>
<line class="st4" x1="164.104" y1="72.388" x2="164.104" y2="76.555"/>
<line class="st4" x1="164.104" y1="59.471" x2="164.104" y2="63.638"/>
<line class="st4" x1="142.949" y1="72.388" x2="142.949" y2="76.555"/>
<line class="st4" x1="142.949" y1="59.471" x2="142.949" y2="63.638"/>
<line class="st4" x1="150.037" y1="72.388" x2="150.037" y2="76.555"/>
<line class="st4" x1="150.037" y1="59.471" x2="150.037" y2="63.638"/>
<line class="st4" x1="128.882" y1="72.388" x2="128.882" y2="76.555"/>
<line class="st4" x1="128.882" y1="59.471" x2="128.882" y2="63.638"/>
<line class="st4" x1="135.967" y1="72.388" x2="135.967" y2="76.555"/>
<line class="st4" x1="135.967" y1="59.471" x2="135.967" y2="63.638"/>
<line class="st4" x1="114.794" y1="72.388" x2="114.794" y2="76.555"/>
<line class="st4" x1="114.794" y1="59.471" x2="114.794" y2="63.638"/>
<line class="st4" x1="121.895" y1="72.388" x2="121.895" y2="76.555"/>
<line class="st4" x1="121.895" y1="59.471" x2="121.895" y2="63.638"/>
<line class="st4" x1="100.712" y1="72.388" x2="100.712" y2="76.555"/>
<line class="st4" x1="100.712" y1="59.471" x2="100.712" y2="63.638"/>
<line class="st4" x1="107.8" y1="72.388" x2="107.8" y2="76.555"/>
<line class="st4" x1="107.8" y1="59.471" x2="107.8" y2="63.638"/>
<line class="st4" x1="86.643" y1="72.388" x2="86.643" y2="76.555"/>
<line class="st4" x1="86.643" y1="59.471" x2="86.643" y2="63.638"/>
<line class="st4" x1="93.73" y1="72.388" x2="93.73" y2="76.555"/>
<line class="st4" x1="93.73" y1="59.471" x2="93.73" y2="63.638"/>
<line class="st4" x1="72.575" y1="72.388" x2="72.575" y2="76.555"/>
<line class="st4" x1="72.575" y1="59.471" x2="72.575" y2="63.638"/>
<line class="st4" x1="79.66" y1="72.388" x2="79.66" y2="76.555"/>
<line class="st4" x1="79.66" y1="59.471" x2="79.66" y2="63.638"/>
<line class="st4" x1="65.593" y1="72.388" x2="65.593" y2="76.555"/>
<line class="st4" x1="65.593" y1="59.471" x2="65.593" y2="63.638"/>
<line class="st1" x1="58.161" y1="76.974" x2="170.82" y2="76.974"/>
<line class="st1" x1="171.351" y1="76.974" x2="171.351" y2="59.257"/>
<g>
	<g>
		<path d="M62.887,71.478h-0.762v-4.043h-1.329v-0.567c0.924-0.065,1.305-0.154,1.531-1.085h0.559V71.478z"/>
		<path d="M69.886,71.478h-0.762v-4.043h-1.329v-0.567c0.924-0.065,1.305-0.154,1.531-1.085h0.559V71.478z"/>
		<path d="M76.884,71.478h-0.762v-4.043h-1.329v-0.567c0.924-0.065,1.305-0.154,1.531-1.085h0.559V71.478z"/>
		<path d="M83.882,71.478H83.12v-4.043h-1.329v-0.567c0.924-0.065,1.305-0.154,1.531-1.085h0.559V71.478z"/>
		<path d="M90.224,71.632c-1.637,0-1.953-1.742-1.953-2.925s0.316-2.925,1.953-2.925s1.953,1.742,1.953,2.925
			S91.861,71.632,90.224,71.632z M90.224,66.422c-0.818,0-1.191,0.859-1.191,2.285c0,1.426,0.373,2.285,1.191,2.285
			s1.191-0.859,1.191-2.285C91.415,67.281,91.043,66.422,90.224,66.422z"/>
		<path d="M97.223,71.632c-1.637,0-1.953-1.742-1.953-2.925s0.316-2.925,1.953-2.925s1.953,1.742,1.953,2.925
			S98.86,71.632,97.223,71.632z M97.223,66.422c-0.818,0-1.191,0.859-1.191,2.285c0,1.426,0.373,2.285,1.191,2.285
			s1.191-0.859,1.191-2.285C98.414,67.281,98.041,66.422,97.223,66.422z"/>
		<path d="M104.221,71.632c-1.637,0-1.953-1.742-1.953-2.925s0.316-2.925,1.953-2.925s1.953,1.742,1.953,2.925
			S105.858,71.632,104.221,71.632z M104.221,66.422c-0.818,0-1.191,0.859-1.191,2.285c0,1.426,0.373,2.285,1.191,2.285
			s1.191-0.859,1.191-2.285C105.412,67.281,105.039,66.422,104.221,66.422z"/>
		<path d="M111.219,71.632c-1.637,0-1.953-1.742-1.953-2.925s0.316-2.925,1.953-2.925s1.953,1.742,1.953,2.925
			S112.856,71.632,111.219,71.632z M111.219,66.422c-0.818,0-1.191,0.859-1.191,2.285c0,1.426,0.373,2.285,1.191,2.285
			s1.191-0.859,1.191-2.285C112.41,67.281,112.038,66.422,111.219,66.422z"/>
		<path d="M118.874,71.478h-0.762v-4.043h-1.329v-0.567c0.924-0.065,1.305-0.154,1.531-1.085h0.559V71.478z"/>
		<path d="M125.873,71.478h-0.762v-4.043h-1.329v-0.567c0.924-0.065,1.305-0.154,1.531-1.085h0.559V71.478z"/>
		<path d="M132.871,71.478h-0.762v-4.043h-1.329v-0.567c0.924-0.065,1.305-0.154,1.531-1.085h0.559V71.478z"/>
		<path d="M139.869,71.478h-0.762v-4.043h-1.329v-0.567c0.924-0.065,1.305-0.154,1.531-1.085h0.559V71.478z"/>
		<path d="M146.212,71.632c-1.637,0-1.953-1.742-1.953-2.925s0.316-2.925,1.953-2.925s1.953,1.742,1.953,2.925
			S147.848,71.632,146.212,71.632z M146.212,66.422c-0.818,0-1.191,0.859-1.191,2.285c0,1.426,0.373,2.285,1.191,2.285
			s1.191-0.859,1.191-2.285C147.403,67.281,147.03,66.422,146.212,66.422z"/>
		<path d="M153.21,71.632c-1.637,0-1.953-1.742-1.953-2.925s0.316-2.925,1.953-2.925s1.953,1.742,1.953,2.925
			S154.846,71.632,153.21,71.632z M153.21,66.422c-0.818,0-1.191,0.859-1.191,2.285c0,1.426,0.373,2.285,1.191,2.285
			s1.191-0.859,1.191-2.285C154.401,67.281,154.028,66.422,153.21,66.422z"/>
		<path d="M160.209,71.632c-1.637,0-1.953-1.742-1.953-2.925s0.316-2.925,1.953-2.925c1.636,0,1.952,1.742,1.952,2.925
			S161.844,71.632,160.209,71.632z M160.209,66.422c-0.819,0-1.191,0.859-1.191,2.285c0,1.426,0.373,2.285,1.191,2.285
			c0.818,0,1.19-0.859,1.19-2.285C161.399,67.281,161.027,66.422,160.209,66.422z"/>
		<path d="M167.207,71.632c-1.637,0-1.953-1.742-1.953-2.925s0.316-2.925,1.953-2.925c1.636,0,1.952,1.742,1.952,2.925
			S168.843,71.632,167.207,71.632z M167.207,66.422c-0.818,0-1.191,0.859-1.191,2.285c0,1.426,0.373,2.285,1.191,2.285
			s1.19-0.859,1.19-2.285C168.397,67.281,168.025,66.422,167.207,66.422z"/>
	</g>
</g>
<g>
	<g>
		<path d="M32.559,106.244c-0.04-0.887-0.775-1.167-1.423-1.167c-0.488,0-1.311,0.136-1.311,1.007c0,0.488,0.344,0.647,0.68,0.728
			l1.639,0.376c0.744,0.176,1.304,0.624,1.304,1.535c0,1.359-1.264,1.735-2.247,1.735c-1.063,0-1.479-0.32-1.735-0.552
			c-0.488-0.439-0.584-0.919-0.584-1.455h0.728c0,1.04,0.847,1.343,1.583,1.343c0.56,0,1.503-0.144,1.503-0.967
			c0-0.6-0.28-0.792-1.223-1.016l-1.175-0.272c-0.376-0.088-1.224-0.352-1.224-1.351c0-0.896,0.584-1.775,1.975-1.775
			c2.007,0,2.207,1.199,2.239,1.831H32.559z"/>
		<path d="M35.145,110.306h-0.704v-4.182h0.664v0.696h0.016c0.28-0.488,0.647-0.816,1.175-0.816c0.088,0,0.128,0.008,0.184,0.024
			v0.728h-0.264c-0.656,0-1.071,0.512-1.071,1.12V110.306z"/>
		<path d="M39.464,107.532c-0.088-0.56-0.4-0.896-0.991-0.896c-0.872,0-1.151,0.832-1.151,1.575c0,0.719,0.176,1.607,1.143,1.607
			c0.472,0,0.879-0.352,1-0.991h0.68c-0.072,0.664-0.48,1.599-1.703,1.599c-1.175,0-1.871-0.888-1.871-2.095
			c0-1.295,0.624-2.327,2.007-2.327c1.096,0,1.511,0.8,1.567,1.527H39.464z"/>
		<path d="M40.681,106.7c0-1.831,1.335-2.015,1.943-2.015c0.975,0,1.759,0.632,1.759,1.679c0,1.007-0.664,1.431-1.503,1.879
			l-0.584,0.32c-0.768,0.424-0.936,0.864-0.967,1.08h3.054v0.664h-3.846c0.04-1.167,0.567-1.791,1.319-2.231l0.744-0.432
			c0.6-0.344,1.031-0.576,1.031-1.311c0-0.448-0.288-1.016-1.111-1.016c-1.063,0-1.111,0.992-1.136,1.383H40.681z"/>
	</g>
</g>
<g>
	<path d="M57.72,90.628v-5.029h0.616v1.828h0.014c0.266-0.385,0.63-0.561,1.058-0.567c0.974,0,1.527,0.798,1.527,1.828
		c0,0.875-0.364,2.045-1.611,2.045c-0.624,0-0.883-0.357-1.009-0.56h-0.014v0.455H57.72z M59.296,87.413
		c-0.889,0-0.987,0.959-0.987,1.555c0,0.973,0.609,1.232,1.001,1.232c0.672,0,0.987-0.609,0.987-1.415
		C60.297,88.317,60.248,87.413,59.296,87.413z"/>
	<path d="M61.675,86.3v-0.701h0.616V86.3H61.675z M62.291,90.628h-0.616v-3.663h0.616V90.628z"/>
	<path d="M63.971,87.476v2.381c0,0.287,0.246,0.287,0.372,0.287h0.217v0.483c-0.224,0.021-0.399,0.049-0.462,0.049
		c-0.609,0-0.743-0.343-0.743-0.784v-2.417h-0.497v-0.511h0.497v-1.022h0.616v1.022h0.588v0.511H63.971z"/>
	<path d="M59.772,96.878h-0.658v-3.495h-1.148v-0.49c0.798-0.056,1.127-0.133,1.324-0.938h0.483V96.878z"/>
	<path d="M61.899,94.013c0.21-0.161,0.511-0.308,0.952-0.308c0.798,0,1.618,0.561,1.618,1.576c0,0.546-0.245,1.73-1.786,1.73
		c-0.645,0-1.471-0.259-1.59-1.359h0.637c0.063,0.574,0.49,0.826,1.043,0.826c0.638,0,1.037-0.511,1.037-1.127
		c0-0.708-0.483-1.093-1.092-1.093c-0.357,0-0.68,0.168-0.911,0.469L61.276,94.7l0.371-2.64h2.549v0.602h-2.087L61.899,94.013z"/>
</g>
<g>
	<path d="M164.355,90.628v-5.029h0.616v1.828h0.014c0.267-0.385,0.631-0.561,1.058-0.567c0.974,0,1.527,0.798,1.527,1.828
		c0,0.875-0.364,2.045-1.611,2.045c-0.623,0-0.882-0.357-1.008-0.56h-0.015v0.455H164.355z M165.931,87.413
		c-0.89,0-0.988,0.959-0.988,1.555c0,0.973,0.609,1.232,1.002,1.232c0.672,0,0.987-0.609,0.987-1.415
		C166.932,88.317,166.884,87.413,165.931,87.413z"/>
	<path d="M168.31,86.3v-0.701h0.616V86.3H168.31z M168.927,90.628h-0.616v-3.663h0.616V90.628z"/>
	<path d="M170.607,87.476v2.381c0,0.287,0.245,0.287,0.371,0.287h0.217v0.483c-0.224,0.021-0.399,0.049-0.462,0.049
		c-0.609,0-0.742-0.343-0.742-0.784v-2.417h-0.498v-0.511h0.498v-1.022h0.616v1.022h0.588v0.511H170.607z"/>
	<path d="M167.646,97.011c-1.415,0-1.688-1.506-1.688-2.529c0-1.022,0.273-2.528,1.688-2.528c1.414,0,1.688,1.506,1.688,2.528
		C169.334,95.505,169.06,97.011,167.646,97.011z M167.646,92.508c-0.708,0-1.029,0.742-1.029,1.975c0,1.233,0.321,1.975,1.029,1.975
		c0.707,0,1.029-0.742,1.029-1.975C168.676,93.25,168.353,92.508,167.646,92.508z"/>
</g>
<rect x="114.741" y="98.162" class="st3" width="56.511" height="17.5"/>
<rect x="58.48" y="98.183" class="st4" width="112.872" height="17.717"/>
<line class="st4" x1="157.019" y1="111.313" x2="157.019" y2="115.481"/>
<line class="st4" x1="157.019" y1="98.397" x2="157.019" y2="102.564"/>
<line class="st4" x1="164.104" y1="111.313" x2="164.104" y2="115.481"/>
<line class="st4" x1="164.104" y1="98.397" x2="164.104" y2="102.564"/>
<line class="st4" x1="142.949" y1="111.313" x2="142.949" y2="115.481"/>
<line class="st4" x1="142.949" y1="98.397" x2="142.949" y2="102.564"/>
<line class="st4" x1="150.037" y1="111.313" x2="150.037" y2="115.481"/>
<line class="st4" x1="150.037" y1="98.397" x2="150.037" y2="102.564"/>
<line class="st4" x1="128.882" y1="111.313" x2="128.882" y2="115.481"/>
<line class="st4" x1="128.882" y1="98.397" x2="128.882" y2="102.564"/>
<line class="st4" x1="135.967" y1="111.313" x2="135.967" y2="115.481"/>
<line class="st4" x1="135.967" y1="98.397" x2="135.967" y2="102.564"/>
<line class="st4" x1="114.794" y1="111.313" x2="114.794" y2="115.481"/>
<line class="st4" x1="114.794" y1="98.397" x2="114.794" y2="102.564"/>
<line class="st4" x1="121.895" y1="111.313" x2="121.895" y2="115.481"/>
<line class="st4" x1="121.895" y1="98.397" x2="121.895" y2="102.564"/>
<line class="st4" x1="100.712" y1="111.313" x2="100.712" y2="115.481"/>
<line class="st4" x1="100.712" y1="98.397" x2="100.712" y2="102.564"/>
<line class="st4" x1="107.8" y1="111.313" x2="107.8" y2="115.481"/>
<line class="st4" x1="107.8" y1="98.397" x2="107.8" y2="102.564"/>
<line class="st4" x1="86.643" y1="111.313" x2="86.643" y2="115.481"/>
<line class="st4" x1="86.643" y1="98.397" x2="86.643" y2="102.564"/>
<line class="st4" x1="93.73" y1="111.313" x2="93.73" y2="115.481"/>
<line class="st4" x1="93.73" y1="98.397" x2="93.73" y2="102.564"/>
<line class="st4" x1="72.575" y1="111.313" x2="72.575" y2="115.481"/>
<line class="st4" x1="72.575" y1="98.397" x2="72.575" y2="102.564"/>
<line class="st4" x1="79.66" y1="111.313" x2="79.66" y2="115.481"/>
<line class="st4" x1="79.66" y1="98.397" x2="79.66" y2="102.564"/>
<line class="st4" x1="65.593" y1="111.313" x2="65.593" y2="115.481"/>
<line class="st4" x1="65.593" y1="98.397" x2="65.593" y2="102.564"/>
<line class="st1" x1="58.161" y1="115.9" x2="170.82" y2="115.9"/>
<line class="st1" x1="171.351" y1="115.9" x2="171.351" y2="98.183"/>
<g>
	<g>
		<path d="M62.231,110.558c-1.637,0-1.953-1.742-1.953-2.925s0.316-2.925,1.953-2.925s1.953,1.742,1.953,2.925
			S63.867,110.558,62.231,110.558z M62.231,105.348c-0.818,0-1.191,0.859-1.191,2.285c0,1.426,0.373,2.285,1.191,2.285
			s1.191-0.859,1.191-2.285C63.422,106.207,63.049,105.348,62.231,105.348z"/>
		<path d="M69.229,110.558c-1.637,0-1.953-1.742-1.953-2.925s0.316-2.925,1.953-2.925s1.953,1.742,1.953,2.925
			S70.866,110.558,69.229,110.558z M69.229,105.348c-0.818,0-1.191,0.859-1.191,2.285c0,1.426,0.373,2.285,1.191,2.285
			s1.191-0.859,1.191-2.285C70.42,106.207,70.048,105.348,69.229,105.348z"/>
		<path d="M76.227,110.558c-1.637,0-1.953-1.742-1.953-2.925s0.316-2.925,1.953-2.925s1.953,1.742,1.953,2.925
			S77.864,110.558,76.227,110.558z M76.227,105.348c-0.818,0-1.191,0.859-1.191,2.285c0,1.426,0.373,2.285,1.191,2.285
			s1.191-0.859,1.191-2.285C77.418,106.207,77.046,105.348,76.227,105.348z"/>
		<path d="M83.226,110.558c-1.637,0-1.953-1.742-1.953-2.925s0.316-2.925,1.953-2.925s1.953,1.742,1.953,2.925
			S84.863,110.558,83.226,110.558z M83.226,105.348c-0.818,0-1.191,0.859-1.191,2.285c0,1.426,0.373,2.285,1.191,2.285
			s1.191-0.859,1.191-2.285C84.417,106.207,84.044,105.348,83.226,105.348z"/>
		<path d="M90.224,110.558c-1.637,0-1.953-1.742-1.953-2.925s0.316-2.925,1.953-2.925s1.953,1.742,1.953,2.925
			S91.861,110.558,90.224,110.558z M90.224,105.348c-0.818,0-1.191,0.859-1.191,2.285c0,1.426,0.373,2.285,1.191,2.285
			s1.191-0.859,1.191-2.285C91.415,106.207,91.043,105.348,90.224,105.348z"/>
		<path d="M97.223,110.558c-1.637,0-1.953-1.742-1.953-2.925s0.316-2.925,1.953-2.925s1.953,1.742,1.953,2.925
			S98.86,110.558,97.223,110.558z M97.223,105.348c-0.818,0-1.191,0.859-1.191,2.285c0,1.426,0.373,2.285,1.191,2.285
			s1.191-0.859,1.191-2.285C98.414,106.207,98.041,105.348,97.223,105.348z"/>
		<path d="M104.221,110.558c-1.637,0-1.953-1.742-1.953-2.925s0.316-2.925,1.953-2.925s1.953,1.742,1.953,2.925
			S105.858,110.558,104.221,110.558z M104.221,105.348c-0.818,0-1.191,0.859-1.191,2.285c0,1.426,0.373,2.285,1.191,2.285
			s1.191-0.859,1.191-2.285C105.412,106.207,105.039,105.348,104.221,105.348z"/>
		<path d="M111.219,110.558c-1.637,0-1.953-1.742-1.953-2.925s0.316-2.925,1.953-2.925s1.953,1.742,1.953,2.925
			S112.856,110.558,111.219,110.558z M111.219,105.348c-0.818,0-1.191,0.859-1.191,2.285c0,1.426,0.373,2.285,1.191,2.285
			s1.191-0.859,1.191-2.285C112.41,106.207,112.038,105.348,111.219,105.348z"/>
		<path d="M118.874,110.404h-0.762v-4.043h-1.329v-0.567c0.924-0.065,1.305-0.154,1.531-1.085h0.559V110.404z"/>
		<path d="M125.873,110.404h-0.762v-4.043h-1.329v-0.567c0.924-0.065,1.305-0.154,1.531-1.085h0.559V110.404z"/>
		<path d="M132.871,110.404h-0.762v-4.043h-1.329v-0.567c0.924-0.065,1.305-0.154,1.531-1.085h0.559V110.404z"/>
		<path d="M139.869,110.404h-0.762v-4.043h-1.329v-0.567c0.924-0.065,1.305-0.154,1.531-1.085h0.559V110.404z"/>
		<path d="M146.868,110.404h-0.762v-4.043h-1.329v-0.567c0.924-0.065,1.305-0.154,1.531-1.085h0.559V110.404z"/>
		<path d="M153.866,110.404h-0.762v-4.043h-1.329v-0.567c0.924-0.065,1.305-0.154,1.531-1.085h0.559V110.404z"/>
		<path d="M160.865,110.404h-0.762v-4.043h-1.329v-0.567c0.924-0.065,1.305-0.154,1.531-1.085h0.56V110.404z"/>
		<path d="M167.863,110.404h-0.762v-4.043h-1.329v-0.567c0.924-0.065,1.305-0.154,1.531-1.085h0.56V110.404z"/>
	</g>
</g>
<g>
	<g>
		<path d="M29.137,143.491h2.327c1.496,0,2.415,1.136,2.415,2.791c0,1.287-0.56,2.95-2.447,2.95h-2.295V143.491z M29.913,148.568
			h1.503c1.008,0,1.663-0.791,1.663-2.238s-0.664-2.175-1.719-2.175h-1.447V148.568z"/>
		<path d="M37.16,146.242c-0.008-0.264-0.104-0.704-0.992-0.704c-0.216,0-0.832,0.072-0.832,0.592c0,0.344,0.216,0.424,0.76,0.56
			l0.704,0.176c0.872,0.217,1.175,0.536,1.175,1.104c0,0.864-0.711,1.384-1.655,1.384c-1.655,0-1.775-0.96-1.799-1.464h0.68
			c0.024,0.328,0.12,0.856,1.111,0.856c0.504,0,0.959-0.2,0.959-0.664c0-0.336-0.232-0.448-0.832-0.6l-0.815-0.2
			c-0.584-0.144-0.968-0.439-0.968-1.016c0-0.919,0.76-1.335,1.583-1.335c1.495,0,1.599,1.104,1.599,1.312H37.16z"/>
		<path d="M39.649,145.635v2.718c0,0.328,0.28,0.328,0.424,0.328h0.248v0.552c-0.256,0.024-0.456,0.056-0.527,0.056
			c-0.696,0-0.848-0.392-0.848-0.896v-2.758h-0.568v-0.584h0.568v-1.167h0.704v1.167h0.671v0.584H39.649z"/>
	</g>
</g>
<g>
	<path d="M57.72,129.554v-5.029h0.616v1.828h0.014c0.266-0.385,0.63-0.56,1.058-0.566c0.974,0,1.527,0.798,1.527,1.827
		c0,0.876-0.364,2.046-1.611,2.046c-0.624,0-0.883-0.357-1.009-0.561h-0.014v0.455H57.72z M59.296,126.339
		c-0.889,0-0.987,0.96-0.987,1.555c0,0.974,0.609,1.233,1.001,1.233c0.672,0,0.987-0.609,0.987-1.415
		C60.297,127.242,60.248,126.339,59.296,126.339z"/>
	<path d="M61.675,125.226v-0.701h0.616v0.701H61.675z M62.291,129.554h-0.616v-3.663h0.616V129.554z"/>
	<path d="M63.971,126.402v2.381c0,0.287,0.246,0.287,0.372,0.287h0.217v0.483c-0.224,0.021-0.399,0.049-0.462,0.049
		c-0.609,0-0.743-0.343-0.743-0.784v-2.416h-0.497v-0.512h0.497v-1.022h0.616v1.022h0.588v0.512H63.971z"/>
	<path d="M59.772,135.804h-0.658v-3.495h-1.148v-0.49c0.798-0.056,1.127-0.133,1.324-0.938h0.483V135.804z"/>
	<path d="M61.899,132.94c0.21-0.161,0.511-0.309,0.952-0.309c0.798,0,1.618,0.561,1.618,1.576c0,0.546-0.245,1.729-1.786,1.729
		c-0.645,0-1.471-0.259-1.59-1.358h0.637c0.063,0.574,0.49,0.826,1.043,0.826c0.638,0,1.037-0.511,1.037-1.127
		c0-0.708-0.483-1.093-1.092-1.093c-0.357,0-0.68,0.168-0.911,0.469l-0.532-0.027l0.371-2.641h2.549v0.603h-2.087L61.899,132.94z"/>
</g>
<g>
	<path d="M164.355,129.554v-5.029h0.616v1.828h0.014c0.267-0.385,0.631-0.56,1.058-0.566c0.974,0,1.527,0.798,1.527,1.827
		c0,0.876-0.364,2.046-1.611,2.046c-0.623,0-0.882-0.357-1.008-0.561h-0.015v0.455H164.355z M165.931,126.339
		c-0.89,0-0.988,0.96-0.988,1.555c0,0.974,0.609,1.233,1.002,1.233c0.672,0,0.987-0.609,0.987-1.415
		C166.932,127.242,166.884,126.339,165.931,126.339z"/>
	<path d="M168.31,125.226v-0.701h0.616v0.701H168.31z M168.927,129.554h-0.616v-3.663h0.616V129.554z"/>
	<path d="M170.607,126.402v2.381c0,0.287,0.245,0.287,0.371,0.287h0.217v0.483c-0.224,0.021-0.399,0.049-0.462,0.049
		c-0.609,0-0.742-0.343-0.742-0.784v-2.416h-0.498v-0.512h0.498v-1.022h0.616v1.022h0.588v0.512H170.607z"/>
	<path d="M167.646,135.937c-1.415,0-1.688-1.506-1.688-2.528s0.273-2.528,1.688-2.528c1.414,0,1.688,1.506,1.688,2.528
		S169.06,135.937,167.646,135.937z M167.646,131.434c-0.708,0-1.029,0.742-1.029,1.975s0.321,1.976,1.029,1.976
		c0.707,0,1.029-0.743,1.029-1.976S168.353,131.434,167.646,131.434z"/>
</g>
<rect x="114.741" y="137.087" class="st3" width="56.511" height="17.5"/>
<rect x="58.44" y="137.087" class="st3" width="28.255" height="17.5"/>
<rect x="58.48" y="137.109" class="st4" width="112.872" height="17.716"/>
<line class="st4" x1="157.019" y1="150.239" x2="157.019" y2="154.407"/>
<line class="st4" x1="157.019" y1="137.322" x2="157.019" y2="141.489"/>
<line class="st4" x1="164.104" y1="150.239" x2="164.104" y2="154.407"/>
<line class="st4" x1="164.104" y1="137.322" x2="164.104" y2="141.489"/>
<line class="st4" x1="142.949" y1="150.239" x2="142.949" y2="154.407"/>
<line class="st4" x1="142.949" y1="137.322" x2="142.949" y2="141.489"/>
<line class="st4" x1="150.037" y1="150.239" x2="150.037" y2="154.407"/>
<line class="st4" x1="150.037" y1="137.322" x2="150.037" y2="141.489"/>
<line class="st4" x1="128.882" y1="150.239" x2="128.882" y2="154.407"/>
<line class="st4" x1="128.882" y1="137.322" x2="128.882" y2="141.489"/>
<line class="st4" x1="135.967" y1="150.239" x2="135.967" y2="154.407"/>
<line class="st4" x1="135.967" y1="137.322" x2="135.967" y2="141.489"/>
<line class="st4" x1="114.794" y1="150.239" x2="114.794" y2="154.407"/>
<line class="st4" x1="114.794" y1="137.322" x2="114.794" y2="141.489"/>
<line class="st4" x1="121.895" y1="150.239" x2="121.895" y2="154.407"/>
<line class="st4" x1="121.895" y1="137.322" x2="121.895" y2="141.489"/>
<line class="st4" x1="100.712" y1="150.239" x2="100.712" y2="154.407"/>
<line class="st4" x1="100.712" y1="137.322" x2="100.712" y2="141.489"/>
<line class="st4" x1="107.8" y1="150.239" x2="107.8" y2="154.407"/>
<line class="st4" x1="107.8" y1="137.322" x2="107.8" y2="141.489"/>
<line class="st4" x1="86.643" y1="150.239" x2="86.643" y2="154.407"/>
<line class="st4" x1="86.643" y1="137.322" x2="86.643" y2="141.489"/>
<line class="st4" x1="93.73" y1="150.239" x2="93.73" y2="154.407"/>
<line class="st4" x1="93.73" y1="137.322" x2="93.73" y2="141.489"/>
<line class="st4" x1="72.575" y1="150.239" x2="72.575" y2="154.407"/>
<line class="st4" x1="72.575" y1="137.322" x2="72.575" y2="141.489"/>
<line class="st4" x1="79.66" y1="150.239" x2="79.66" y2="154.407"/>
<line class="st4" x1="79.66" y1="137.322" x2="79.66" y2="141.489"/>
<line class="st4" x1="65.593" y1="150.239" x2="65.593" y2="154.407"/>
<line class="st4" x1="65.593" y1="137.322" x2="65.593" y2="141.489"/>
<line class="st1" x1="58.161" y1="154.825" x2="170.82" y2="154.825"/>
<line class="st1" x1="171.351" y1="154.825" x2="171.351" y2="137.109"/>
<g>
	<g>
		<path d="M62.887,149.33h-0.762v-4.043h-1.329v-0.567c0.924-0.064,1.305-0.154,1.531-1.086h0.559V149.33z"/>
		<path d="M69.886,149.33h-0.762v-4.043h-1.329v-0.567c0.924-0.064,1.305-0.154,1.531-1.086h0.559V149.33z"/>
		<path d="M76.884,149.33h-0.762v-4.043h-1.329v-0.567c0.924-0.064,1.305-0.154,1.531-1.086h0.559V149.33z"/>
		<path d="M83.882,149.33H83.12v-4.043h-1.329v-0.567c0.924-0.064,1.305-0.154,1.531-1.086h0.559V149.33z"/>
		<path d="M90.224,149.484c-1.637,0-1.953-1.742-1.953-2.926c0-1.183,0.316-2.925,1.953-2.925s1.953,1.742,1.953,2.925
			C92.177,147.742,91.861,149.484,90.224,149.484z M90.224,144.274c-0.818,0-1.191,0.858-1.191,2.284
			c0,1.427,0.373,2.285,1.191,2.285s1.191-0.858,1.191-2.285C91.415,145.133,91.043,144.274,90.224,144.274z"/>
		<path d="M97.223,149.484c-1.637,0-1.953-1.742-1.953-2.926c0-1.183,0.316-2.925,1.953-2.925s1.953,1.742,1.953,2.925
			C99.176,147.742,98.86,149.484,97.223,149.484z M97.223,144.274c-0.818,0-1.191,0.858-1.191,2.284
			c0,1.427,0.373,2.285,1.191,2.285s1.191-0.858,1.191-2.285C98.414,145.133,98.041,144.274,97.223,144.274z"/>
		<path d="M104.221,149.484c-1.637,0-1.953-1.742-1.953-2.926c0-1.183,0.316-2.925,1.953-2.925s1.953,1.742,1.953,2.925
			C106.174,147.742,105.858,149.484,104.221,149.484z M104.221,144.274c-0.818,0-1.191,0.858-1.191,2.284
			c0,1.427,0.373,2.285,1.191,2.285s1.191-0.858,1.191-2.285C105.412,145.133,105.039,144.274,104.221,144.274z"/>
		<path d="M111.219,149.484c-1.637,0-1.953-1.742-1.953-2.926c0-1.183,0.316-2.925,1.953-2.925s1.953,1.742,1.953,2.925
			C113.172,147.742,112.856,149.484,111.219,149.484z M111.219,144.274c-0.818,0-1.191,0.858-1.191,2.284
			c0,1.427,0.373,2.285,1.191,2.285s1.191-0.858,1.191-2.285C112.41,145.133,112.038,144.274,111.219,144.274z"/>
		<path d="M118.874,149.33h-0.762v-4.043h-1.329v-0.567c0.924-0.064,1.305-0.154,1.531-1.086h0.559V149.33z"/>
		<path d="M125.873,149.33h-0.762v-4.043h-1.329v-0.567c0.924-0.064,1.305-0.154,1.531-1.086h0.559V149.33z"/>
		<path d="M132.871,149.33h-0.762v-4.043h-1.329v-0.567c0.924-0.064,1.305-0.154,1.531-1.086h0.559V149.33z"/>
		<path d="M139.869,149.33h-0.762v-4.043h-1.329v-0.567c0.924-0.064,1.305-0.154,1.531-1.086h0.559V149.33z"/>
		<path d="M146.868,149.33h-0.762v-4.043h-1.329v-0.567c0.924-0.064,1.305-0.154,1.531-1.086h0.559V149.33z"/>
		<path d="M153.866,149.33h-0.762v-4.043h-1.329v-0.567c0.924-0.064,1.305-0.154,1.531-1.086h0.559V149.33z"/>
		<path d="M160.865,149.33h-0.762v-4.043h-1.329v-0.567c0.924-0.064,1.305-0.154,1.531-1.086h0.56V149.33z"/>
		<path d="M167.863,149.33h-0.762v-4.043h-1.329v-0.567c0.924-0.064,1.305-0.154,1.531-1.086h0.56V149.33z"/>
	</g>
</g>
<polygon points="111.313,123.805 114.741,129.825 118.16,123.805 "/>
</svg>
