<?xml version="1.0" encoding="utf-8"?>
<!-- Generator: Adobe Illustrator 28.2.0, SVG Export Plug-In . SVG Version: 6.00 Build 0)  -->
<svg version="1.1" xmlns="http://www.w3.org/2000/svg" xmlns:xlink="http://www.w3.org/1999/xlink" x="0px" y="0px"
	 width="197.154px" height="168.396px" viewBox="0 0 197.154 168.396" style="enable-background:new 0 0 197.154 168.396;"
	 xml:space="preserve">
<style type="text/css">
	.st0{fill:none;stroke:#000000;}
	.st1{fill:#FFFFFF;}
	.st2{fill:none;stroke:#808080;stroke-dasharray:1;}
	.st3{fill:none;stroke:#808080;}
	.st4{fill:#FFFFFF;stroke:#808080;}
	.st5{fill:none;stroke:#000000;stroke-width:0.3;}
</style>
<g id="儗僀儎乕_1">
	<line class="st0" x1="15.945" y1="88.555" x2="196.654" y2="88.555"/>
	<g>
		<g>
			<rect x="157.692" y="79.36" class="st1" width="33.661" height="17.717"/>
			<rect x="157.692" y="79.36" class="st0" width="33.661" height="17.717"/>
		</g>
		<rect x="164.74" y="75.65" class="st1" width="20.184" height="5.194"/>
	</g>
	<line class="st0" x1="15.945" y1="63.752" x2="196.654" y2="63.752"/>
	<g>
		<g>
			<rect x="157.692" y="54.557" class="st1" width="33.661" height="17.717"/>
			<rect x="157.692" y="54.557" class="st0" width="33.661" height="17.717"/>
		</g>
		<rect x="162.856" y="50.847" class="st1" width="22.812" height="5.194"/>
	</g>
	<line class="st0" x1="15.945" y1="29.153" x2="196.654" y2="29.153"/>
	<g>
		<rect x="33.661" y="25.636" class="st1" width="7.087" height="7.087"/>
		<line class="st0" x1="40.748" y1="25.636" x2="40.748" y2="32.723"/>
		<line class="st0" x1="33.661" y1="32.723" x2="33.661" y2="25.636"/>
	</g>
	<g>
		<rect x="157.692" y="26.261" class="st1" width="33.661" height="7.087"/>
		<line class="st0" x1="191.353" y1="26.261" x2="191.353" y2="33.348"/>
		<line class="st0" x1="157.692" y1="33.348" x2="157.692" y2="26.261"/>
	</g>
	<path class="st2" d="M94.685,104.604"/>
	<path class="st2" d="M67.126,104.604"/>
	<line class="st3" x1="154.106" y1="104.604" x2="196.654" y2="104.604"/>
	<path class="st2" d="M154.106,104.604"/>
	<path class="st2" d="M56.606,104.604"/>
	<line class="st3" x1="15.945" y1="104.604" x2="56.606" y2="104.604"/>
	<g>
		<rect x="33.661" y="101.087" class="st1" width="7.087" height="7.087"/>
		<line class="st3" x1="40.748" y1="101.087" x2="40.748" y2="108.174"/>
		<line class="st3" x1="33.661" y1="108.174" x2="33.661" y2="101.087"/>
	</g>
	<line class="st0" x1="15.945" y1="129.398" x2="196.654" y2="129.398"/>
	<g>
		<g>
			<rect x="157.692" y="120.209" class="st1" width="33.661" height="17.706"/>
			<rect x="157.692" y="120.209" class="st0" width="33.661" height="17.706"/>
		</g>
		<rect x="164.74" y="116.498" class="st1" width="20.184" height="5.193"/>
	</g>
	<line class="st0" x1="15.945" y1="154.196" x2="196.654" y2="154.196"/>
	<g>
		<g>
			<rect x="157.692" y="145.001" class="st1" width="33.661" height="17.717"/>
			<rect x="157.692" y="145.001" class="st0" width="33.661" height="17.717"/>
		</g>
		<rect x="164.74" y="141.292" class="st1" width="20.184" height="5.194"/>
	</g>
	<path class="st4" d="M178.951,104.63c0,1.957-1.587,3.544-3.545,3.544c-1.956,0-3.542-1.586-3.542-3.544
		c0-1.957,1.587-3.543,3.542-3.543C177.364,101.087,178.951,102.673,178.951,104.63z"/>
	<path class="st2" d="M67.126,42.701"/>
	<line class="st3" x1="154.106" y1="42.701" x2="196.654" y2="42.701"/>
	<path class="st2" d="M154.106,42.701"/>
	<path class="st2" d="M56.606,42.701"/>
	<line class="st3" x1="15.945" y1="42.701" x2="56.606" y2="42.701"/>
	<g>
		<rect x="33.661" y="39.184" class="st1" width="7.087" height="7.087"/>
		<line class="st3" x1="40.748" y1="39.184" x2="40.748" y2="46.271"/>
		<line class="st3" x1="33.661" y1="46.271" x2="33.661" y2="39.184"/>
	</g>
	<path class="st4" d="M178.951,42.727c0,1.957-1.587,3.544-3.545,3.544c-1.956,0-3.542-1.586-3.542-3.544
		c0-1.957,1.587-3.543,3.542-3.543C177.364,39.184,178.951,40.77,178.951,42.727z"/>
	<path class="st2" d="M67.126,10.603"/>
	<line class="st2" x1="56.606" y1="104.604" x2="154.106" y2="104.604"/>
	<line class="st2" x1="56.606" y1="42.701" x2="154.106" y2="42.701"/>
	<line class="st2" x1="56.606" y1="10.603" x2="154.106" y2="10.603"/>
	<line class="st3" x1="154.106" y1="10.603" x2="196.654" y2="10.603"/>
	<path class="st2" d="M154.106,10.603"/>
	<path class="st2" d="M56.606,10.603"/>
	<line class="st3" x1="15.945" y1="10.603" x2="56.606" y2="10.603"/>
	<g>
		<rect x="33.661" y="7.086" class="st1" width="7.087" height="7.087"/>
		<line class="st3" x1="40.748" y1="7.086" x2="40.748" y2="14.174"/>
		<line class="st3" x1="33.661" y1="14.174" x2="33.661" y2="7.086"/>
	</g>
	<path class="st4" d="M178.951,10.629c0,1.957-1.587,3.544-3.545,3.544c-1.956,0-3.542-1.586-3.542-3.544
		c0-1.957,1.587-3.543,3.542-3.543C177.364,7.086,178.951,8.672,178.951,10.629z"/>
	<line class="st0" x1="15.945" y1="0" x2="15.945" y2="168.396"/>
	<line class="st0" x1="196.654" y1="0" x2="196.654" y2="168.396"/>
	<line class="st5" x1="10.63" y1="64.341" x2="0" y2="64.341"/>
	<line class="st5" x1="10.63" y1="155.038" x2="0" y2="155.038"/>
	<g>
		<path d="M5.303,64.512l2.847,5.669H2.48L5.303,64.512z"/>
		<line class="st5" x1="5.305" y1="69.23" x2="5.305" y2="85.391"/>
	</g>
	<g>
		<path d="M5.303,0.027l2.847,5.669H2.48L5.303,0.027z"/>
		<line class="st5" x1="5.305" y1="4.745" x2="5.305" y2="15.922"/>
	</g>
	<g>
		<path d="M5.327,64.33L2.48,58.661h5.67L5.327,64.33z"/>
		<line class="st5" x1="5.325" y1="59.612" x2="5.325" y2="50.18"/>
	</g>
	<g>
		<path d="M5.327,155.092l-2.847-5.669h5.67L5.327,155.092z"/>
		<line class="st5" x1="5.325" y1="150.372" x2="5.325" y2="136.005"/>
	</g>
	<rect x="73.43" y="100.461" class="st1" width="63.125" height="14.371"/>
	<g>
		<path d="M84.096,101.485c0.255,0.042,0.508,0.062,0.758,0.062h4.148c0.292,0,0.586-0.021,0.883-0.062
			c-0.021,0.104-0.031,0.206-0.031,0.305c0,0.125,0.011,0.253,0.031,0.383c-0.239,0.021-0.433,0.07-0.578,0.148
			c-0.208,0.099-0.862,0.547-1.961,1.344v0.75h2.164c0.317,0,0.641-0.021,0.969-0.062c-0.026,0.12-0.039,0.234-0.039,0.344
			c0,0.12,0.013,0.234,0.039,0.344c-0.328-0.042-0.651-0.062-0.969-0.062h-2.164v2.57c0,0.25-0.091,0.43-0.273,0.539
			c-0.141,0.109-0.558,0.18-1.25,0.211c-0.042-0.224-0.146-0.464-0.312-0.719c0.208,0.021,0.362,0.031,0.461,0.031
			c0.5,0,0.75-0.065,0.75-0.195v-2.438h-2.375c-0.317,0-0.641,0.021-0.969,0.062c0.021-0.109,0.031-0.224,0.031-0.344
			c0-0.109-0.011-0.224-0.031-0.344c0.328,0.042,0.651,0.062,0.969,0.062h2.375v-0.969l1.938-1.375h-3.805
			c-0.25,0-0.503,0.021-0.758,0.062c0.026-0.109,0.039-0.224,0.039-0.344C84.135,101.691,84.122,101.589,84.096,101.485z"/>
		<path d="M92.721,101.008c0.224,0.146,0.464,0.242,0.719,0.289c-0.12,0.125-0.255,0.38-0.406,0.766
			c-0.104,0.318-0.229,0.63-0.375,0.938v4.172c0,0.359,0.021,0.724,0.062,1.094c-0.109-0.021-0.224-0.031-0.344-0.031
			c-0.109,0-0.224,0.01-0.344,0.031c0.042-0.37,0.062-0.734,0.062-1.094v-3.164c-0.172,0.281-0.356,0.555-0.555,0.82
			c-0.094-0.229-0.208-0.417-0.344-0.562c0.406-0.458,0.731-0.948,0.977-1.469C92.419,102.292,92.601,101.696,92.721,101.008z
			 M93.409,101.578c0.308,0.042,0.609,0.062,0.906,0.062h0.781c0.308,0,0.609-0.021,0.906-0.062
			c-0.021,0.109-0.031,0.224-0.031,0.344c0,0.099,0.011,0.203,0.031,0.312c-0.297-0.042-0.599-0.062-0.906-0.062h-0.344
			c-0.047,0.438-0.117,0.841-0.211,1.211h0.719c0.208,0,0.417-0.021,0.625-0.062c-0.183,1.562-0.442,2.654-0.781,3.273
			c-0.323,0.594-0.844,1.12-1.562,1.578c-0.13-0.183-0.3-0.352-0.508-0.508c0.692-0.224,1.231-0.695,1.617-1.414
			c0.047-0.094,0.089-0.185,0.125-0.273c-0.245-0.281-0.513-0.528-0.805-0.742c0.151-0.094,0.276-0.208,0.375-0.344
			c0.188,0.198,0.394,0.388,0.617,0.57c0.141-0.463,0.239-0.987,0.297-1.57h-0.875c-0.224,0.636-0.539,1.219-0.945,1.75
			c-0.141-0.156-0.325-0.263-0.555-0.32c0.411-0.401,0.737-0.883,0.977-1.445c0.219-0.531,0.347-1.099,0.383-1.703
			c-0.271,0.005-0.55,0.026-0.836,0.062c0.021-0.109,0.031-0.213,0.031-0.312C93.44,101.803,93.429,101.688,93.409,101.578z
			 M96.315,102.383c0.198,0.021,0.438,0.031,0.719,0.031c-0.058,0.151-0.086,0.339-0.086,0.562v2.508
			c0,0.359,0.019,0.724,0.055,1.094c-0.109-0.021-0.224-0.031-0.344-0.031c-0.109,0-0.224,0.011-0.344,0.031
			c0.042-0.37,0.062-0.734,0.062-1.094v-2.164C96.377,103.014,96.357,102.701,96.315,102.383z M97.604,101.235
			c0.224,0.042,0.461,0.062,0.711,0.062c-0.058,0.172-0.086,0.37-0.086,0.594v5.75c0,0.281-0.099,0.466-0.297,0.555
			c-0.192,0.083-0.472,0.125-0.836,0.125c-0.052-0.271-0.167-0.498-0.344-0.68h0.508c0.245,0,0.367-0.107,0.367-0.32v-5.531
			C97.627,101.607,97.62,101.422,97.604,101.235z"/>
		<path d="M101.034,101.008c0.198,0.104,0.438,0.19,0.719,0.258c-0.109,0.068-0.231,0.193-0.367,0.375
			c-0.453,0.641-1.008,1.232-1.664,1.773c-0.13-0.156-0.315-0.292-0.555-0.406c0.516-0.312,0.917-0.643,1.203-0.992
			C100.708,101.631,100.929,101.295,101.034,101.008z M101.44,102.641c0.224,0.141,0.466,0.234,0.727,0.281
			c-0.172,0.099-0.356,0.308-0.555,0.625c-0.13,0.24-0.278,0.469-0.445,0.688v2.938c0,0.391,0.021,0.784,0.062,1.18
			c-0.13-0.021-0.255-0.031-0.375-0.031c-0.13,0-0.255,0.01-0.375,0.031c0.042-0.396,0.062-0.789,0.062-1.18v-2.219
			c-0.276,0.281-0.589,0.56-0.938,0.836c-0.094-0.229-0.208-0.414-0.344-0.555c0.583-0.37,1.047-0.76,1.391-1.172
			C101.005,103.657,101.268,103.183,101.44,102.641z M102.229,103.516c0.339,0.042,0.683,0.062,1.031,0.062h2.344
			c0.344,0,0.685-0.021,1.023-0.062c-0.016,0.12-0.023,0.245-0.023,0.375c0,0.109,0.008,0.224,0.023,0.344
			c-0.339-0.042-0.68-0.062-1.023-0.062h-0.539v3.719c0,0.172-0.097,0.297-0.289,0.375c-0.177,0.078-0.539,0.117-1.086,0.117
			c-0.011-0.266-0.094-0.505-0.25-0.719c0.328,0.042,0.581,0.062,0.758,0.062c0.156,0,0.237-0.06,0.242-0.18v-3.375h-1.18
			c-0.349,0-0.692,0.021-1.031,0.062c0.021-0.12,0.031-0.234,0.031-0.344C102.26,103.761,102.249,103.636,102.229,103.516z
			 M102.69,101.383c0.349,0.042,0.692,0.062,1.031,0.062h1.312c0.349,0,0.692-0.021,1.031-0.062
			c-0.021,0.13-0.031,0.255-0.031,0.375c0,0.12,0.011,0.234,0.031,0.344c-0.339-0.042-0.683-0.062-1.031-0.062h-1.312
			c-0.339,0-0.683,0.021-1.031,0.062c0.021-0.109,0.031-0.224,0.031-0.344C102.721,101.639,102.71,101.514,102.69,101.383z"/>
		<path d="M110.034,101.446c-0.25,0.068-0.479,0.13-0.688,0.188v1.539h0.094c0.297,0,0.589-0.023,0.875-0.07
			c-0.021,0.109-0.031,0.214-0.031,0.312c0,0.109,0.011,0.214,0.031,0.312c-0.286-0.042-0.578-0.062-0.875-0.062h-0.094v0.883
			c0.151-0.052,0.276-0.117,0.375-0.195c0.172,0.349,0.401,0.703,0.688,1.062c-0.172,0.037-0.336,0.12-0.492,0.25
			c-0.172-0.354-0.362-0.667-0.57-0.938v2.688c0,0.307,0.021,0.609,0.062,0.906c-0.109-0.016-0.224-0.023-0.344-0.023
			c-0.109,0-0.224,0.008-0.344,0.023c0.047-0.297,0.07-0.599,0.07-0.906v-2.547c-0.328,0.734-0.716,1.419-1.164,2.055
			c-0.094-0.26-0.227-0.469-0.398-0.625c0.386-0.401,0.708-0.859,0.969-1.375c0.203-0.375,0.386-0.794,0.547-1.258h-0.398
			c-0.286,0-0.575,0.021-0.867,0.062c0.021-0.099,0.031-0.203,0.031-0.312c0-0.099-0.011-0.203-0.031-0.312
			c0.292,0.047,0.581,0.07,0.867,0.07h0.445v-1.391c-0.511,0.141-0.878,0.248-1.102,0.32c-0.031-0.192-0.125-0.398-0.281-0.617
			c0.911-0.026,1.786-0.258,2.625-0.695c0.089,0.214,0.224,0.445,0.406,0.695C110.279,101.459,110.143,101.446,110.034,101.446z
			 M110.44,104.235c0.297,0.042,0.589,0.062,0.875,0.062h2.125c0.297,0,0.589-0.021,0.875-0.062
			c-0.021,0.099-0.031,0.203-0.031,0.312c0,0.099,0.011,0.203,0.031,0.312c-0.286-0.047-0.578-0.07-0.875-0.07h-0.781v1.039h0.57
			c0.286,0,0.575-0.023,0.867-0.07c-0.021,0.109-0.031,0.214-0.031,0.312c0,0.109,0.011,0.214,0.031,0.312
			c-0.292-0.042-0.581-0.062-0.867-0.062h-0.57v1.164h1.062c0.297,0,0.591-0.023,0.883-0.07c-0.021,0.109-0.031,0.213-0.031,0.312
			c0,0.109,0.011,0.213,0.031,0.312c-0.292-0.042-0.586-0.062-0.883-0.062h-2.773c-0.292,0-0.586,0.021-0.883,0.062
			c0.021-0.099,0.031-0.203,0.031-0.312c0-0.099-0.011-0.203-0.031-0.312c0.297,0.047,0.591,0.07,0.883,0.07h1.117v-1.164h-0.586
			c-0.297,0-0.589,0.021-0.875,0.062c0.016-0.099,0.023-0.203,0.023-0.312c0-0.099-0.008-0.203-0.023-0.312
			c0.286,0.047,0.578,0.07,0.875,0.07h0.586v-1.039h-0.75c-0.286,0-0.578,0.023-0.875,0.07c0.026-0.109,0.039-0.213,0.039-0.312
			C110.479,104.438,110.466,104.334,110.44,104.235z M110.791,101.203c0.339,0.021,0.683,0.031,1.031,0.031h1.18
			c0.349,0,0.692-0.01,1.031-0.031c-0.021,0.172-0.031,0.347-0.031,0.523v1.281c0,0.208,0.011,0.419,0.031,0.633
			c-0.339-0.021-0.683-0.031-1.031-0.031h-1.18c-0.349,0-0.692,0.011-1.031,0.031c0.021-0.213,0.031-0.424,0.031-0.633v-1.281
			C110.802,101.55,110.791,101.375,110.791,101.203z M113.409,103.102v-1.375h-2v1.375H113.409z"/>
		<path d="M119.409,100.922c0.094,0.271,0.19,0.573,0.289,0.906h2.055c0.219,0,0.438-0.013,0.656-0.039
			c-0.021,0.099-0.031,0.193-0.031,0.281c0,0.109,0.011,0.214,0.031,0.312c-0.219-0.021-0.438-0.031-0.656-0.031h-4.805v2.227
			c-0.021,0.677-0.112,1.315-0.273,1.914c-0.109,0.479-0.362,1.07-0.758,1.773c-0.183-0.183-0.401-0.287-0.656-0.312
			c0.354-0.495,0.612-1.002,0.773-1.523c0.188-0.63,0.281-1.247,0.281-1.852v-2.031c0-0.25-0.019-0.502-0.055-0.758
			c0.234,0.026,0.472,0.039,0.711,0.039h2.195c-0.114-0.333-0.229-0.617-0.344-0.852
			C119.01,100.967,119.205,100.949,119.409,100.922z M117.573,102.977c0.198,0.021,0.362,0.031,0.492,0.031h3.102
			c0.229,0,0.448-0.01,0.656-0.031c-0.021,0.078-0.031,0.164-0.031,0.258c0,0.183,0.011,0.357,0.031,0.523
			c-0.292,0.062-0.573,0.159-0.844,0.289c-0.198,0.109-0.516,0.326-0.953,0.648c0.021,0.016,0.034,0.026,0.039,0.031
			c-0.052,0.037-0.104,0.081-0.156,0.133h1.719c0.203,0,0.394-0.01,0.57-0.031c-0.224,0.558-0.394,1.086-0.508,1.586
			c-0.203-0.052-0.401-0.083-0.594-0.094c0.151-0.312,0.266-0.635,0.344-0.969h-1.469v2.57c0,0.161-0.094,0.278-0.281,0.352
			c-0.177,0.073-0.531,0.109-1.062,0.109c-0.011-0.245-0.083-0.464-0.219-0.656c0.339,0.042,0.602,0.062,0.789,0.062
			c0.136,0,0.206-0.05,0.211-0.148v-2.289h-2.211v-0.492h2.258c-0.312-0.312-0.628-0.586-0.945-0.82
			c0.13-0.099,0.245-0.203,0.344-0.312c0.271,0.24,0.555,0.477,0.852,0.711l1.266-0.953h-2.906c-0.172,0-0.336,0.011-0.492,0.031
			c0.021-0.12,0.031-0.213,0.031-0.281C117.604,103.146,117.593,103.06,117.573,102.977z"/>
	</g>
	<g>
		<path class="st2" d="M94.685,10.603"/>
		<rect x="73.43" y="0.005" class="st1" width="63.125" height="18.125"/>
		<g>
			<g>
				<path d="M92.735,7.531c-0.25,0.068-0.479,0.13-0.688,0.188v1.539h0.094c0.297,0,0.589-0.023,0.875-0.07
					c-0.021,0.109-0.031,0.214-0.031,0.312c0,0.109,0.011,0.214,0.031,0.312C92.73,9.771,92.438,9.75,92.141,9.75h-0.094v0.883
					c0.151-0.052,0.276-0.117,0.375-0.195c0.172,0.349,0.401,0.703,0.688,1.062c-0.172,0.037-0.336,0.12-0.492,0.25
					c-0.172-0.354-0.362-0.667-0.57-0.938V13.5c0,0.307,0.021,0.609,0.062,0.906c-0.109-0.016-0.224-0.023-0.344-0.023
					c-0.109,0-0.224,0.008-0.344,0.023c0.047-0.297,0.07-0.599,0.07-0.906v-2.547c-0.328,0.734-0.716,1.419-1.164,2.055
					c-0.094-0.26-0.227-0.469-0.398-0.625c0.386-0.401,0.708-0.859,0.969-1.375c0.203-0.375,0.386-0.794,0.547-1.258h-0.398
					c-0.286,0-0.575,0.021-0.867,0.062c0.021-0.099,0.031-0.203,0.031-0.312c0-0.099-0.011-0.203-0.031-0.312
					c0.292,0.047,0.581,0.07,0.867,0.07h0.445V7.867c-0.511,0.141-0.878,0.248-1.102,0.32C90.36,7.995,90.266,7.789,90.11,7.57
					c0.911-0.026,1.786-0.258,2.625-0.695c0.089,0.214,0.224,0.445,0.406,0.695C92.98,7.544,92.844,7.531,92.735,7.531z
					 M93.141,10.32c0.297,0.042,0.589,0.062,0.875,0.062h2.125c0.297,0,0.589-0.021,0.875-0.062
					c-0.021,0.099-0.031,0.203-0.031,0.312c0,0.099,0.011,0.203,0.031,0.312c-0.286-0.047-0.578-0.07-0.875-0.07H95.36v1.039h0.57
					c0.286,0,0.575-0.023,0.867-0.07c-0.021,0.109-0.031,0.214-0.031,0.312c0,0.109,0.011,0.214,0.031,0.312
					c-0.292-0.042-0.581-0.062-0.867-0.062h-0.57v1.164h1.062c0.297,0,0.591-0.023,0.883-0.07c-0.021,0.109-0.031,0.213-0.031,0.312
					c0,0.109,0.011,0.213,0.031,0.312c-0.292-0.042-0.586-0.062-0.883-0.062h-2.773c-0.292,0-0.586,0.021-0.883,0.062
					c0.021-0.099,0.031-0.203,0.031-0.312c0-0.099-0.011-0.203-0.031-0.312c0.297,0.047,0.591,0.07,0.883,0.07h1.117v-1.164H94.18
					c-0.297,0-0.589,0.021-0.875,0.062c0.016-0.099,0.023-0.203,0.023-0.312c0-0.099-0.008-0.203-0.023-0.312
					c0.286,0.047,0.578,0.07,0.875,0.07h0.586v-1.039h-0.75c-0.286,0-0.578,0.023-0.875,0.07c0.026-0.109,0.039-0.213,0.039-0.312
					C93.18,10.523,93.167,10.419,93.141,10.32z M93.493,7.289c0.339,0.021,0.683,0.031,1.031,0.031h1.18
					c0.349,0,0.692-0.01,1.031-0.031c-0.021,0.172-0.031,0.347-0.031,0.523v1.281c0,0.208,0.011,0.419,0.031,0.633
					c-0.339-0.021-0.683-0.031-1.031-0.031h-1.18c-0.349,0-0.692,0.011-1.031,0.031c0.021-0.213,0.031-0.424,0.031-0.633V7.812
					C93.503,7.636,93.493,7.461,93.493,7.289z M96.11,9.187V7.812h-2v1.375H96.11z"/>
				<path d="M102.11,7.008c0.094,0.271,0.19,0.573,0.289,0.906h2.055c0.219,0,0.438-0.013,0.656-0.039
					c-0.021,0.099-0.031,0.193-0.031,0.281c0,0.109,0.011,0.214,0.031,0.312c-0.219-0.021-0.438-0.031-0.656-0.031h-4.805v2.227
					c-0.021,0.677-0.112,1.315-0.273,1.914c-0.109,0.479-0.362,1.07-0.758,1.773c-0.183-0.183-0.401-0.287-0.656-0.312
					c0.354-0.495,0.612-1.002,0.773-1.523c0.188-0.63,0.281-1.247,0.281-1.852V8.633c0-0.25-0.019-0.502-0.055-0.758
					c0.234,0.026,0.472,0.039,0.711,0.039h2.195c-0.114-0.333-0.229-0.617-0.344-0.852C101.711,7.052,101.907,7.034,102.11,7.008z
					 M100.274,9.062c0.198,0.021,0.362,0.031,0.492,0.031h3.102c0.229,0,0.448-0.01,0.656-0.031
					c-0.021,0.078-0.031,0.164-0.031,0.258c0,0.183,0.011,0.357,0.031,0.523c-0.292,0.062-0.573,0.159-0.844,0.289
					c-0.198,0.109-0.516,0.326-0.953,0.648c0.021,0.016,0.034,0.026,0.039,0.031c-0.052,0.037-0.104,0.081-0.156,0.133h1.719
					c0.203,0,0.394-0.01,0.57-0.031c-0.224,0.558-0.394,1.086-0.508,1.586c-0.203-0.052-0.401-0.083-0.594-0.094
					c0.151-0.312,0.266-0.635,0.344-0.969h-1.469v2.57c0,0.161-0.094,0.278-0.281,0.352c-0.177,0.073-0.531,0.109-1.062,0.109
					c-0.011-0.245-0.083-0.464-0.219-0.656c0.339,0.042,0.602,0.062,0.789,0.062c0.136,0,0.206-0.05,0.211-0.148v-2.289h-2.211
					v-0.492h2.258c-0.312-0.312-0.628-0.586-0.945-0.82c0.13-0.099,0.245-0.203,0.344-0.312c0.271,0.24,0.555,0.477,0.852,0.711
					l1.266-0.953h-2.906c-0.172,0-0.336,0.011-0.492,0.031c0.021-0.12,0.031-0.213,0.031-0.281
					C100.305,9.232,100.294,9.146,100.274,9.062z"/>
			</g>
			<g>
				<path d="M110.024,6.869c-0.68,1.279-1.088,2.047-1.088,3.966c0,1.319,0.456,2.295,1.096,3.55h-0.472
					c-0.831-1.248-1.375-2.247-1.375-3.742c0-1.407,0.487-2.542,1.351-3.774H110.024z"/>
				<path d="M111.816,11.059l-0.6,1.671h-0.799l2.158-5.741h0.88l2.079,5.741h-0.848l-0.568-1.671H111.816z M113.839,10.371
					l-0.848-2.526h-0.016l-0.92,2.526H113.839z"/>
				<path d="M115.921,14.385c0.679-1.279,1.087-2.047,1.087-3.966c0-1.319-0.456-2.295-1.096-3.55h0.472
					c0.832,1.248,1.376,2.247,1.376,3.742c0,1.407-0.488,2.542-1.352,3.774H115.921z"/>
			</g>
		</g>
	</g>
	<g>
		<path class="st2" d="M94.685,42.701"/>
		<rect x="73.43" y="34.163" class="st1" width="63.125" height="18.125"/>
		<g>
			<path d="M92.735,39.762c-0.25,0.068-0.479,0.13-0.688,0.188v1.539h0.094c0.297,0,0.589-0.023,0.875-0.07
				c-0.021,0.109-0.031,0.214-0.031,0.312c0,0.109,0.011,0.214,0.031,0.312c-0.286-0.042-0.578-0.062-0.875-0.062h-0.094v0.883
				c0.151-0.052,0.276-0.117,0.375-0.195c0.172,0.349,0.401,0.703,0.688,1.062c-0.172,0.037-0.336,0.12-0.492,0.25
				c-0.172-0.354-0.362-0.667-0.57-0.938v2.688c0,0.307,0.021,0.609,0.062,0.906c-0.109-0.016-0.224-0.023-0.344-0.023
				c-0.109,0-0.224,0.008-0.344,0.023c0.047-0.297,0.07-0.599,0.07-0.906v-2.547c-0.328,0.734-0.716,1.419-1.164,2.055
				c-0.094-0.26-0.227-0.469-0.398-0.625c0.386-0.401,0.708-0.859,0.969-1.375c0.203-0.375,0.386-0.794,0.547-1.258h-0.398
				c-0.286,0-0.575,0.021-0.867,0.062c0.021-0.099,0.031-0.203,0.031-0.312c0-0.099-0.011-0.203-0.031-0.312
				c0.292,0.047,0.581,0.07,0.867,0.07h0.445v-1.391c-0.511,0.141-0.878,0.248-1.102,0.32c-0.031-0.192-0.125-0.398-0.281-0.617
				c0.911-0.026,1.786-0.258,2.625-0.695c0.089,0.214,0.224,0.445,0.406,0.695C92.98,39.775,92.844,39.762,92.735,39.762z
				 M93.141,42.551c0.297,0.042,0.589,0.062,0.875,0.062h2.125c0.297,0,0.589-0.021,0.875-0.062
				c-0.021,0.099-0.031,0.203-0.031,0.312c0,0.099,0.011,0.203,0.031,0.312c-0.286-0.047-0.578-0.07-0.875-0.07H95.36v1.039h0.57
				c0.286,0,0.575-0.023,0.867-0.07c-0.021,0.109-0.031,0.214-0.031,0.312c0,0.109,0.011,0.214,0.031,0.312
				c-0.292-0.042-0.581-0.062-0.867-0.062h-0.57v1.164h1.062c0.297,0,0.591-0.023,0.883-0.07c-0.021,0.109-0.031,0.213-0.031,0.312
				c0,0.109,0.011,0.213,0.031,0.312c-0.292-0.042-0.586-0.062-0.883-0.062h-2.773c-0.292,0-0.586,0.021-0.883,0.062
				c0.021-0.099,0.031-0.203,0.031-0.312c0-0.099-0.011-0.203-0.031-0.312c0.297,0.047,0.591,0.07,0.883,0.07h1.117v-1.164H94.18
				c-0.297,0-0.589,0.021-0.875,0.062c0.016-0.099,0.023-0.203,0.023-0.312c0-0.099-0.008-0.203-0.023-0.312
				c0.286,0.047,0.578,0.07,0.875,0.07h0.586v-1.039h-0.75c-0.286,0-0.578,0.023-0.875,0.07c0.026-0.109,0.039-0.213,0.039-0.312
				C93.18,42.754,93.167,42.65,93.141,42.551z M93.493,39.519c0.339,0.021,0.683,0.031,1.031,0.031h1.18
				c0.349,0,0.692-0.01,1.031-0.031c-0.021,0.172-0.031,0.347-0.031,0.523v1.281c0,0.208,0.011,0.419,0.031,0.633
				c-0.339-0.021-0.683-0.031-1.031-0.031h-1.18c-0.349,0-0.692,0.011-1.031,0.031c0.021-0.213,0.031-0.424,0.031-0.633v-1.281
				C93.503,39.866,93.493,39.691,93.493,39.519z M96.11,41.418v-1.375h-2v1.375H96.11z"/>
			<path d="M102.11,39.238c0.094,0.271,0.19,0.573,0.289,0.906h2.055c0.219,0,0.438-0.013,0.656-0.039
				c-0.021,0.099-0.031,0.193-0.031,0.281c0,0.109,0.011,0.214,0.031,0.312c-0.219-0.021-0.438-0.031-0.656-0.031h-4.805v2.227
				c-0.021,0.677-0.112,1.315-0.273,1.914c-0.109,0.479-0.362,1.07-0.758,1.773c-0.183-0.183-0.401-0.287-0.656-0.312
				c0.354-0.495,0.612-1.002,0.773-1.523c0.188-0.63,0.281-1.247,0.281-1.852v-2.031c0-0.25-0.019-0.502-0.055-0.758
				c0.234,0.026,0.472,0.039,0.711,0.039h2.195c-0.114-0.333-0.229-0.617-0.344-0.852C101.711,39.283,101.907,39.264,102.11,39.238z
				 M100.274,41.293c0.198,0.021,0.362,0.031,0.492,0.031h3.102c0.229,0,0.448-0.01,0.656-0.031
				c-0.021,0.078-0.031,0.164-0.031,0.258c0,0.183,0.011,0.357,0.031,0.523c-0.292,0.062-0.573,0.159-0.844,0.289
				c-0.198,0.109-0.516,0.326-0.953,0.648c0.021,0.016,0.034,0.026,0.039,0.031c-0.052,0.037-0.104,0.081-0.156,0.133h1.719
				c0.203,0,0.394-0.01,0.57-0.031c-0.224,0.558-0.394,1.086-0.508,1.586c-0.203-0.052-0.401-0.083-0.594-0.094
				c0.151-0.312,0.266-0.635,0.344-0.969h-1.469v2.57c0,0.161-0.094,0.278-0.281,0.352c-0.177,0.073-0.531,0.109-1.062,0.109
				c-0.011-0.245-0.083-0.464-0.219-0.656c0.339,0.042,0.602,0.062,0.789,0.062c0.136,0,0.206-0.05,0.211-0.148v-2.289h-2.211
				v-0.492h2.258c-0.312-0.312-0.628-0.586-0.945-0.82c0.13-0.099,0.245-0.203,0.344-0.312c0.271,0.24,0.555,0.477,0.852,0.711
				l1.266-0.953h-2.906c-0.172,0-0.336,0.011-0.492,0.031c0.021-0.12,0.031-0.213,0.031-0.281
				C100.305,41.462,100.294,41.376,100.274,41.293z"/>
		</g>
		<g>
			<path d="M110.024,39.36c-0.68,1.279-1.088,2.047-1.088,3.966c0,1.319,0.456,2.295,1.096,3.55h-0.472
				c-0.831-1.248-1.375-2.247-1.375-3.742c0-1.407,0.487-2.542,1.351-3.774H110.024z"/>
			<path d="M110.897,39.48h2.526c1.071,0,1.623,0.664,1.623,1.447c0,0.375-0.136,0.903-0.768,1.199
				c0.376,0.152,1.04,0.416,1.04,1.399c0,0.919-0.68,1.695-1.951,1.695h-2.471V39.48z M111.672,41.911h1.399
				c0.743,0,1.199-0.224,1.199-0.928c0-0.536-0.328-0.839-1.191-0.839h-1.407V41.911z M111.672,44.557h1.655
				c0.808,0,1.215-0.408,1.215-1.047c0-0.808-0.711-0.968-1.343-0.968h-1.527V44.557z"/>
			<path d="M115.921,46.876c0.679-1.279,1.087-2.047,1.087-3.966c0-1.319-0.456-2.295-1.096-3.55h0.472
				c0.832,1.248,1.376,2.247,1.376,3.742c0,1.407-0.488,2.542-1.352,3.774H115.921z"/>
		</g>
	</g>
	<g>
		<path d="M171.904,23.598h-0.527l0.231-1.679h-0.999l-0.232,1.679h-0.527l0.232-1.679h-0.824l0.072-0.503h0.823l0.152-1.136h-0.823
			l0.071-0.503h0.823l0.232-1.679h0.535l-0.231,1.679h0.991l0.232-1.679h0.535l-0.231,1.679h0.823l-0.072,0.503h-0.823l-0.16,1.136
			h0.824l-0.072,0.503h-0.823L171.904,23.598z M170.84,20.28l-0.159,1.136h0.999l0.152-1.136H170.84z"/>
		<path d="M175.705,23.75c-1.615,0-1.927-1.719-1.927-2.886s0.312-2.887,1.927-2.887s1.927,1.719,1.927,2.887
			S177.32,23.75,175.705,23.75z M175.705,18.609c-0.808,0-1.175,0.848-1.175,2.255s0.367,2.254,1.175,2.254s1.176-0.847,1.176-2.254
			S176.512,18.609,175.705,18.609z"/>
	</g>
	<g>
		<path d="M171.214,57.601h-4.238V51.86h4.182v0.688h-3.406v1.759h3.143v0.688h-3.143v1.919h3.463V57.601z"/>
		<path d="M176.038,51.86h0.751v5.741h-0.871l-2.919-4.637h-0.016v4.637h-0.752V51.86h0.92l2.87,4.637h0.017V51.86z"/>
		<path d="M178.047,51.86h2.327c1.495,0,2.414,1.135,2.414,2.791c0,1.287-0.56,2.95-2.446,2.95h-2.295V51.86z M178.823,56.937h1.504
			c1.007,0,1.663-0.792,1.663-2.239s-0.664-2.175-1.72-2.175h-1.447V56.937z"/>
	</g>
	<g>
		<path d="M170.578,78.851c-0.039-0.887-0.775-1.167-1.423-1.167c-0.487,0-1.312,0.136-1.312,1.007c0,0.488,0.344,0.647,0.68,0.728
			l1.64,0.376c0.743,0.176,1.303,0.624,1.303,1.535c0,1.359-1.263,1.735-2.246,1.735c-1.063,0-1.479-0.32-1.735-0.552
			c-0.488-0.439-0.584-0.919-0.584-1.455h0.728c0,1.04,0.848,1.343,1.583,1.343c0.561,0,1.504-0.144,1.504-0.967
			c0-0.6-0.28-0.792-1.224-1.016l-1.176-0.272c-0.375-0.088-1.223-0.352-1.223-1.351c0-0.896,0.583-1.775,1.975-1.775
			c2.007,0,2.207,1.199,2.239,1.831H170.578z"/>
		<path d="M172.436,77.173h2.526c1.071,0,1.623,0.664,1.623,1.447c0,0.375-0.136,0.903-0.768,1.199
			c0.376,0.152,1.04,0.416,1.04,1.399c0,0.919-0.68,1.695-1.951,1.695h-2.471V77.173z M173.211,79.603h1.399
			c0.743,0,1.199-0.224,1.199-0.928c0-0.536-0.328-0.839-1.191-0.839h-1.407V79.603z M173.211,82.25h1.655
			c0.808,0,1.215-0.408,1.215-1.047c0-0.808-0.711-0.968-1.343-0.968h-1.527V82.25z"/>
		<path d="M181.593,77.173h0.752v5.741h-0.871l-2.919-4.637h-0.016v4.637h-0.752v-5.741h0.92l2.87,4.637h0.016V77.173z"/>
	</g>
	<g>
		<path d="M168.211,123.034h-0.776v-5.741h2.655c0.943,0,1.887,0.328,1.887,1.543c0,0.848-0.432,1.159-0.8,1.375
			c0.328,0.136,0.656,0.28,0.688,1.079l0.049,1.04c0.008,0.32,0.048,0.44,0.287,0.576v0.128h-0.951
			c-0.112-0.352-0.136-1.223-0.136-1.439c0-0.472-0.097-1.023-1.023-1.023h-1.879V123.034z M168.211,119.907h1.799
			c0.567,0,1.167-0.144,1.167-0.991c0-0.888-0.647-0.959-1.031-0.959h-1.935V119.907z"/>
		<path d="M177.433,123.034h-4.238v-5.741h4.182v0.688h-3.406v1.759h3.143v0.688h-3.143v1.919h3.463V123.034z"/>
		<path d="M177.955,117.293h4.661v0.688h-1.943v5.053h-0.775v-5.053h-1.942V117.293z"/>
	</g>
	<g>
		<path d="M170.578,144.508c-0.039-0.888-0.775-1.168-1.423-1.168c-0.487,0-1.312,0.137-1.312,1.008c0,0.487,0.344,0.647,0.68,0.728
			l1.64,0.376c0.743,0.176,1.303,0.623,1.303,1.535c0,1.359-1.263,1.735-2.246,1.735c-1.063,0-1.479-0.32-1.735-0.552
			c-0.488-0.44-0.584-0.92-0.584-1.455h0.728c0,1.039,0.848,1.343,1.583,1.343c0.561,0,1.504-0.144,1.504-0.968
			c0-0.6-0.28-0.791-1.224-1.016l-1.176-0.271c-0.375-0.088-1.223-0.352-1.223-1.352c0-0.896,0.583-1.774,1.975-1.774
			c2.007,0,2.207,1.199,2.239,1.831H170.578z"/>
		<path d="M172.436,142.828h2.526c1.071,0,1.623,0.664,1.623,1.447c0,0.376-0.136,0.904-0.768,1.199
			c0.376,0.152,1.04,0.416,1.04,1.399c0,0.92-0.68,1.695-1.951,1.695h-2.471V142.828z M173.211,145.259h1.399
			c0.743,0,1.199-0.224,1.199-0.927c0-0.536-0.328-0.84-1.191-0.84h-1.407V145.259z M173.211,147.905h1.655
			c0.808,0,1.215-0.407,1.215-1.047c0-0.808-0.711-0.968-1.343-0.968h-1.527V147.905z"/>
		<path d="M181.593,142.828h0.752v5.741h-0.871l-2.919-4.638h-0.016v4.638h-0.752v-5.741h0.92l2.87,4.638h0.016V142.828z"/>
	</g>
	<g>
		<path d="M172.321,158.569h-0.527l0.231-1.679h-0.999l-0.231,1.679h-0.528l0.232-1.679h-0.824l0.072-0.504h0.823l0.152-1.136
			h-0.824l0.072-0.504h0.824l0.231-1.679h0.536l-0.232,1.679h0.991l0.232-1.679h0.535l-0.231,1.679h0.823l-0.071,0.504h-0.824
			l-0.16,1.136h0.824l-0.072,0.504h-0.823L172.321,158.569z M171.257,155.251l-0.159,1.136h0.999l0.152-1.136H171.257z"/>
		<path d="M176.769,158.569h-0.751v-3.99h-1.312v-0.56c0.911-0.063,1.287-0.151,1.511-1.071h0.552V158.569z"/>
	</g>
	<g>
		<path d="M172.321,93.591h-0.527l0.231-1.679h-0.999l-0.231,1.679h-0.528l0.232-1.679h-0.824l0.072-0.503h0.823l0.152-1.136h-0.824
			l0.072-0.503h0.824l0.231-1.679h0.536l-0.232,1.679h0.991l0.232-1.679h0.535l-0.231,1.679h0.823l-0.071,0.503h-0.824l-0.16,1.136
			h0.824l-0.072,0.503h-0.823L172.321,93.591z M171.257,90.272l-0.159,1.136h0.999l0.152-1.136H171.257z"/>
		<path d="M176.122,93.743c-1.615,0-1.927-1.719-1.927-2.886c0-1.167,0.312-2.887,1.927-2.887s1.927,1.719,1.927,2.887
			C178.048,92.023,177.737,93.743,176.122,93.743z M176.122,88.601c-0.808,0-1.175,0.848-1.175,2.255s0.367,2.255,1.175,2.255
			s1.176-0.848,1.176-2.255S176.929,88.601,176.122,88.601z"/>
	</g>
	<g>
		<path d="M168.693,28.959c-0.216-1.007-1.056-1.191-1.607-1.191c-1.039,0-1.879,0.768-1.879,2.279c0,1.351,0.479,2.391,1.903,2.391
			c0.503,0,1.375-0.24,1.639-1.575h0.752c-0.32,2.167-2.079,2.263-2.511,2.263c-1.304,0-2.583-0.848-2.583-3.054
			c0-1.767,1.008-2.99,2.679-2.99c1.479,0,2.247,0.919,2.358,1.879H168.693z"/>
		<path d="M171.022,31.302l-0.6,1.671h-0.799l2.158-5.741h0.88l2.079,5.741h-0.848l-0.568-1.671H171.022z M173.045,30.614
			l-0.848-2.526h-0.016l-0.92,2.526H173.045z"/>
		<path d="M176.23,32.285h2.911v0.688h-3.687v-5.741h0.775V32.285z"/>
		<path d="M180.678,32.285h2.911v0.688h-3.687v-5.741h0.775V32.285z"/>
	</g>
	<g>
		<path d="M2.067,22.173c0.307,0.042,0.612,0.062,0.914,0.062h4.68c0.302,0,0.606-0.021,0.914-0.062
			c-0.021,0.12-0.031,0.234-0.031,0.344s0.01,0.214,0.031,0.312c-0.308-0.036-0.612-0.055-0.914-0.055H5.575v1.836H7.2
			c0.302,0,0.602-0.021,0.898-0.062c-0.021,0.12-0.031,0.234-0.031,0.344s0.01,0.214,0.031,0.312
			c-0.297-0.042-0.597-0.062-0.898-0.062H5.575v2.125h2.43c0.302,0,0.606-0.021,0.914-0.062c-0.021,0.12-0.031,0.234-0.031,0.344
			s0.01,0.213,0.031,0.312c-0.308-0.042-0.612-0.062-0.914-0.062H2.661c-0.297,0-0.599,0.021-0.906,0.062
			c0.021-0.099,0.031-0.203,0.031-0.312s-0.011-0.224-0.031-0.344c0.307,0.042,0.609,0.062,0.906,0.062h2.32v-2.125H3.325
			c-0.302,0-0.607,0.021-0.914,0.062c0.021-0.099,0.031-0.203,0.031-0.312s-0.011-0.224-0.031-0.344
			c0.307,0.042,0.612,0.062,0.914,0.062h1.656v-1.836h-2c-0.302,0-0.607,0.019-0.914,0.055c0.021-0.099,0.031-0.203,0.031-0.312
			S2.087,22.293,2.067,22.173z M5.168,20.743c0.182,0.401,0.422,0.753,0.719,1.055C5.673,21.824,5.444,21.91,5.2,22.055
			c-0.203-0.442-0.422-0.797-0.656-1.062C4.751,20.946,4.96,20.863,5.168,20.743z"/>
		<path d="M4.411,29.266c-0.25,0.068-0.479,0.13-0.688,0.188v1.539h0.094c0.297,0,0.588-0.023,0.875-0.07
			c-0.021,0.109-0.031,0.214-0.031,0.312c0,0.109,0.01,0.214,0.031,0.312c-0.287-0.042-0.578-0.062-0.875-0.062H3.723v0.883
			c0.151-0.052,0.276-0.117,0.375-0.195c0.172,0.349,0.401,0.703,0.688,1.062c-0.172,0.037-0.336,0.12-0.492,0.25
			c-0.172-0.354-0.362-0.667-0.57-0.938v2.688c0,0.307,0.021,0.609,0.062,0.906c-0.109-0.016-0.224-0.023-0.344-0.023
			c-0.109,0-0.224,0.008-0.344,0.023c0.047-0.297,0.07-0.599,0.07-0.906v-2.547c-0.328,0.734-0.716,1.419-1.164,2.055
			c-0.094-0.26-0.227-0.469-0.398-0.625c0.385-0.401,0.708-0.859,0.969-1.375c0.203-0.375,0.385-0.794,0.547-1.258H2.723
			c-0.287,0-0.576,0.021-0.867,0.062c0.021-0.099,0.031-0.203,0.031-0.312c0-0.099-0.011-0.203-0.031-0.312
			c0.292,0.047,0.581,0.07,0.867,0.07h0.445v-1.391c-0.511,0.141-0.878,0.248-1.102,0.32c-0.031-0.192-0.125-0.398-0.281-0.617
			c0.911-0.026,1.786-0.258,2.625-0.695c0.088,0.214,0.224,0.445,0.406,0.695C4.655,29.28,4.52,29.266,4.411,29.266z M4.817,32.056
			c0.297,0.042,0.588,0.062,0.875,0.062h2.125c0.297,0,0.588-0.021,0.875-0.062c-0.021,0.099-0.031,0.203-0.031,0.312
			c0,0.099,0.01,0.203,0.031,0.312c-0.287-0.047-0.578-0.07-0.875-0.07H7.036v1.039h0.57c0.286,0,0.575-0.023,0.867-0.07
			c-0.021,0.109-0.031,0.214-0.031,0.312c0,0.109,0.01,0.214,0.031,0.312c-0.292-0.042-0.581-0.062-0.867-0.062h-0.57v1.164h1.062
			c0.297,0,0.591-0.023,0.883-0.07C8.96,35.345,8.95,35.449,8.95,35.548c0,0.109,0.01,0.213,0.031,0.312
			c-0.292-0.042-0.586-0.062-0.883-0.062H5.325c-0.292,0-0.586,0.021-0.883,0.062c0.021-0.099,0.031-0.203,0.031-0.312
			c0-0.099-0.011-0.203-0.031-0.312c0.297,0.047,0.591,0.07,0.883,0.07h1.117v-1.164H5.856c-0.297,0-0.589,0.021-0.875,0.062
			c0.016-0.099,0.023-0.203,0.023-0.312c0-0.099-0.008-0.203-0.023-0.312c0.286,0.047,0.578,0.07,0.875,0.07h0.586V32.61h-0.75
			c-0.287,0-0.578,0.023-0.875,0.07c0.026-0.109,0.039-0.213,0.039-0.312C4.856,32.259,4.843,32.155,4.817,32.056z M5.168,29.024
			c0.338,0.021,0.682,0.031,1.031,0.031h1.18c0.349,0,0.692-0.01,1.031-0.031c-0.021,0.172-0.031,0.347-0.031,0.523v1.281
			c0,0.208,0.01,0.419,0.031,0.633c-0.339-0.021-0.683-0.031-1.031-0.031H6.2c-0.349,0-0.693,0.011-1.031,0.031
			C5.189,31.248,5.2,31.037,5.2,30.829v-1.281C5.179,29.371,5.168,29.196,5.168,29.024z M7.786,30.923v-1.375h-2v1.375H7.786z"/>
		<path d="M5.786,36.743c0.094,0.271,0.19,0.573,0.289,0.906h2.055c0.219,0,0.438-0.013,0.656-0.039
			c-0.021,0.099-0.031,0.193-0.031,0.281c0,0.109,0.01,0.214,0.031,0.312c-0.219-0.021-0.438-0.031-0.656-0.031H3.325v2.227
			c-0.021,0.677-0.112,1.315-0.273,1.914c-0.109,0.479-0.362,1.07-0.758,1.773c-0.183-0.183-0.401-0.287-0.656-0.312
			c0.354-0.495,0.612-1.002,0.773-1.523c0.188-0.63,0.281-1.247,0.281-1.852v-2.031c0-0.25-0.019-0.502-0.055-0.758
			c0.234,0.026,0.471,0.039,0.711,0.039h2.195c-0.115-0.333-0.229-0.617-0.344-0.852C5.387,36.787,5.582,36.769,5.786,36.743z
			 M3.95,38.798c0.198,0.021,0.362,0.031,0.492,0.031h3.102c0.229,0,0.448-0.01,0.656-0.031c-0.021,0.078-0.031,0.164-0.031,0.258
			c0,0.183,0.01,0.357,0.031,0.523c-0.292,0.062-0.573,0.159-0.844,0.289c-0.198,0.109-0.516,0.326-0.953,0.648
			c0.021,0.016,0.034,0.026,0.039,0.031c-0.052,0.037-0.104,0.081-0.156,0.133h1.719c0.203,0,0.393-0.01,0.57-0.031
			c-0.224,0.558-0.394,1.086-0.508,1.586c-0.203-0.052-0.401-0.083-0.594-0.094c0.151-0.312,0.266-0.635,0.344-0.969H6.348v2.57
			c0,0.161-0.094,0.278-0.281,0.352c-0.177,0.073-0.531,0.109-1.062,0.109c-0.011-0.245-0.083-0.464-0.219-0.656
			c0.338,0.042,0.602,0.062,0.789,0.062c0.135,0,0.206-0.05,0.211-0.148v-2.289H3.575v-0.492h2.258
			c-0.312-0.312-0.628-0.586-0.945-0.82c0.13-0.099,0.245-0.203,0.344-0.312c0.271,0.24,0.555,0.477,0.852,0.711l1.266-0.953H4.442
			c-0.172,0-0.336,0.011-0.492,0.031c0.021-0.12,0.031-0.213,0.031-0.281C3.981,38.967,3.97,38.881,3.95,38.798z"/>
	</g>
	<g>
		<path d="M2.473,90.943c0.255,0.042,0.508,0.062,0.758,0.062h4.148c0.292,0,0.586-0.021,0.883-0.062
			c-0.021,0.104-0.031,0.206-0.031,0.305c0,0.125,0.01,0.253,0.031,0.383c-0.24,0.021-0.433,0.07-0.578,0.148
			c-0.208,0.099-0.862,0.547-1.961,1.344v0.75h2.164c0.317,0,0.641-0.021,0.969-0.062c-0.026,0.12-0.039,0.234-0.039,0.344
			c0,0.12,0.013,0.234,0.039,0.344c-0.328-0.042-0.651-0.062-0.969-0.062H5.723v2.57c0,0.25-0.091,0.43-0.273,0.539
			c-0.141,0.109-0.558,0.18-1.25,0.211c-0.042-0.224-0.146-0.464-0.313-0.719c0.208,0.021,0.362,0.031,0.461,0.031
			c0.5,0,0.75-0.065,0.75-0.195v-2.438H2.723c-0.318,0-0.641,0.021-0.969,0.062c0.021-0.109,0.031-0.224,0.031-0.344
			c0-0.109-0.011-0.224-0.031-0.344c0.328,0.042,0.651,0.062,0.969,0.062h2.375v-0.969l1.938-1.375H3.231
			c-0.25,0-0.503,0.021-0.758,0.062c0.026-0.109,0.039-0.224,0.039-0.344C2.512,91.149,2.499,91.048,2.473,90.943z"/>
		<path d="M3.098,98.467c0.224,0.146,0.463,0.242,0.719,0.289c-0.12,0.125-0.255,0.38-0.406,0.766
			c-0.104,0.318-0.229,0.63-0.375,0.938v4.172c0,0.359,0.021,0.724,0.062,1.094c-0.109-0.021-0.224-0.031-0.344-0.031
			c-0.109,0-0.224,0.01-0.344,0.031c0.042-0.37,0.062-0.734,0.062-1.094v-3.164c-0.172,0.281-0.357,0.555-0.555,0.82
			c-0.094-0.229-0.208-0.417-0.344-0.562c0.406-0.458,0.731-0.948,0.977-1.469C2.796,99.751,2.978,99.154,3.098,98.467z
			 M3.786,99.037c0.307,0.042,0.609,0.062,0.906,0.062h0.781c0.307,0,0.609-0.021,0.906-0.062c-0.021,0.109-0.031,0.224-0.031,0.344
			c0,0.099,0.01,0.203,0.031,0.312c-0.297-0.042-0.599-0.062-0.906-0.062H5.129c-0.047,0.438-0.117,0.841-0.211,1.211h0.719
			c0.208,0,0.417-0.021,0.625-0.062c-0.183,1.562-0.443,2.654-0.781,3.273c-0.323,0.594-0.844,1.12-1.563,1.578
			c-0.13-0.183-0.3-0.352-0.508-0.508c0.692-0.224,1.231-0.695,1.617-1.414c0.047-0.094,0.088-0.185,0.125-0.273
			c-0.245-0.281-0.513-0.528-0.805-0.742c0.151-0.094,0.276-0.208,0.375-0.344c0.188,0.198,0.393,0.388,0.617,0.57
			c0.141-0.463,0.239-0.987,0.297-1.57H4.762c-0.224,0.636-0.539,1.219-0.945,1.75c-0.141-0.156-0.326-0.263-0.555-0.32
			c0.411-0.401,0.737-0.883,0.977-1.445c0.219-0.531,0.346-1.099,0.383-1.703c-0.271,0.005-0.55,0.026-0.836,0.062
			c0.021-0.109,0.031-0.213,0.031-0.312C3.817,99.261,3.806,99.146,3.786,99.037z M6.692,99.842
			c0.198,0.021,0.438,0.031,0.719,0.031c-0.058,0.151-0.086,0.339-0.086,0.562v2.508c0,0.359,0.018,0.724,0.055,1.094
			c-0.109-0.021-0.224-0.031-0.344-0.031c-0.109,0-0.224,0.011-0.344,0.031c0.042-0.37,0.062-0.734,0.062-1.094v-2.164
			C6.754,100.472,6.733,100.16,6.692,99.842z M7.981,98.693c0.224,0.042,0.461,0.062,0.711,0.062
			c-0.058,0.172-0.086,0.37-0.086,0.594v5.75c0,0.281-0.099,0.466-0.297,0.555c-0.193,0.083-0.472,0.125-0.836,0.125
			c-0.052-0.271-0.167-0.498-0.344-0.68h0.508c0.245,0,0.367-0.107,0.367-0.32v-5.531C8.004,99.066,7.997,98.881,7.981,98.693z"/>
		<path d="M3.411,106.467c0.198,0.104,0.438,0.19,0.719,0.258c-0.109,0.068-0.232,0.193-0.367,0.375
			c-0.453,0.641-1.008,1.232-1.664,1.773c-0.13-0.156-0.315-0.292-0.555-0.406c0.516-0.312,0.917-0.643,1.203-0.992
			C3.085,107.089,3.306,106.753,3.411,106.467z M3.817,108.099c0.224,0.141,0.466,0.234,0.727,0.281
			c-0.172,0.099-0.357,0.308-0.555,0.625c-0.13,0.24-0.279,0.469-0.445,0.688v2.938c0,0.391,0.021,0.784,0.062,1.18
			c-0.13-0.021-0.255-0.031-0.375-0.031c-0.13,0-0.255,0.01-0.375,0.031c0.042-0.396,0.062-0.789,0.062-1.18v-2.219
			c-0.276,0.281-0.589,0.56-0.938,0.836c-0.094-0.229-0.208-0.414-0.344-0.555c0.583-0.37,1.047-0.76,1.391-1.172
			C3.382,109.115,3.645,108.641,3.817,108.099z M4.606,108.974c0.338,0.042,0.682,0.062,1.031,0.062h2.344
			c0.344,0,0.685-0.021,1.023-0.062c-0.016,0.12-0.023,0.245-0.023,0.375c0,0.109,0.008,0.224,0.023,0.344
			c-0.339-0.042-0.68-0.062-1.023-0.062H7.442v3.719c0,0.172-0.097,0.297-0.289,0.375c-0.177,0.078-0.539,0.117-1.086,0.117
			c-0.011-0.266-0.094-0.505-0.25-0.719c0.328,0.042,0.581,0.062,0.758,0.062c0.156,0,0.237-0.06,0.242-0.18v-3.375h-1.18
			c-0.349,0-0.693,0.021-1.031,0.062c0.021-0.12,0.031-0.234,0.031-0.344C4.637,109.22,4.626,109.095,4.606,108.974z M5.067,106.842
			c0.349,0.042,0.692,0.062,1.031,0.062h1.312c0.349,0,0.692-0.021,1.031-0.062c-0.021,0.13-0.031,0.255-0.031,0.375
			c0,0.12,0.01,0.234,0.031,0.344c-0.339-0.042-0.683-0.062-1.031-0.062H6.098c-0.339,0-0.683,0.021-1.031,0.062
			c0.021-0.109,0.031-0.224,0.031-0.344C5.098,107.097,5.087,106.972,5.067,106.842z"/>
		<path d="M4.411,114.904c-0.25,0.068-0.479,0.13-0.688,0.188v1.539h0.094c0.297,0,0.588-0.023,0.875-0.07
			c-0.021,0.109-0.031,0.214-0.031,0.312c0,0.109,0.01,0.214,0.031,0.312c-0.287-0.042-0.578-0.062-0.875-0.062H3.723v0.883
			c0.151-0.052,0.276-0.117,0.375-0.195c0.172,0.349,0.401,0.703,0.688,1.062c-0.172,0.037-0.336,0.12-0.492,0.25
			c-0.172-0.354-0.362-0.667-0.57-0.938v2.688c0,0.307,0.021,0.609,0.062,0.906c-0.109-0.016-0.224-0.023-0.344-0.023
			c-0.109,0-0.224,0.008-0.344,0.023c0.047-0.297,0.07-0.599,0.07-0.906v-2.547c-0.328,0.734-0.716,1.419-1.164,2.055
			c-0.094-0.26-0.227-0.469-0.398-0.625c0.385-0.401,0.708-0.859,0.969-1.375c0.203-0.375,0.385-0.794,0.547-1.258H2.723
			c-0.287,0-0.576,0.021-0.867,0.062c0.021-0.099,0.031-0.203,0.031-0.312c0-0.099-0.011-0.203-0.031-0.312
			c0.292,0.047,0.581,0.07,0.867,0.07h0.445v-1.391c-0.511,0.141-0.878,0.248-1.102,0.32c-0.031-0.192-0.125-0.398-0.281-0.617
			c0.911-0.026,1.786-0.258,2.625-0.695c0.088,0.214,0.224,0.445,0.406,0.695C4.655,114.917,4.52,114.904,4.411,114.904z
			 M4.817,117.693c0.297,0.042,0.588,0.062,0.875,0.062h2.125c0.297,0,0.588-0.021,0.875-0.062
			c-0.021,0.099-0.031,0.203-0.031,0.312c0,0.099,0.01,0.203,0.031,0.312c-0.287-0.047-0.578-0.07-0.875-0.07H7.036v1.039h0.57
			c0.286,0,0.575-0.023,0.867-0.07c-0.021,0.109-0.031,0.214-0.031,0.312c0,0.109,0.01,0.214,0.031,0.312
			c-0.292-0.042-0.581-0.062-0.867-0.062h-0.57v1.164h1.062c0.297,0,0.591-0.023,0.883-0.07c-0.021,0.109-0.031,0.213-0.031,0.312
			c0,0.109,0.01,0.213,0.031,0.312c-0.292-0.042-0.586-0.062-0.883-0.062H5.325c-0.292,0-0.586,0.021-0.883,0.062
			c0.021-0.099,0.031-0.203,0.031-0.312c0-0.099-0.011-0.203-0.031-0.312c0.297,0.047,0.591,0.07,0.883,0.07h1.117v-1.164H5.856
			c-0.297,0-0.589,0.021-0.875,0.062c0.016-0.099,0.023-0.203,0.023-0.312c0-0.099-0.008-0.203-0.023-0.312
			c0.286,0.047,0.578,0.07,0.875,0.07h0.586v-1.039h-0.75c-0.287,0-0.578,0.023-0.875,0.07c0.026-0.109,0.039-0.213,0.039-0.312
			C4.856,117.896,4.843,117.792,4.817,117.693z M5.168,114.662c0.338,0.021,0.682,0.031,1.031,0.031h1.18
			c0.349,0,0.692-0.01,1.031-0.031c-0.021,0.172-0.031,0.347-0.031,0.523v1.281c0,0.208,0.01,0.419,0.031,0.633
			c-0.339-0.021-0.683-0.031-1.031-0.031H6.2c-0.349,0-0.693,0.011-1.031,0.031c0.021-0.213,0.031-0.424,0.031-0.633v-1.281
			C5.179,115.009,5.168,114.834,5.168,114.662z M7.786,116.56v-1.375h-2v1.375H7.786z"/>
		<path d="M5.786,122.381c0.094,0.271,0.19,0.573,0.289,0.906h2.055c0.219,0,0.438-0.013,0.656-0.039
			c-0.021,0.099-0.031,0.193-0.031,0.281c0,0.109,0.01,0.214,0.031,0.312c-0.219-0.021-0.438-0.031-0.656-0.031H3.325v2.227
			c-0.021,0.677-0.112,1.315-0.273,1.914c-0.109,0.479-0.362,1.07-0.758,1.773c-0.183-0.183-0.401-0.286-0.656-0.312
			c0.354-0.494,0.612-1.002,0.773-1.523c0.188-0.63,0.281-1.247,0.281-1.852v-2.031c0-0.25-0.019-0.502-0.055-0.758
			c0.234,0.026,0.471,0.039,0.711,0.039h2.195c-0.115-0.333-0.229-0.617-0.344-0.852C5.387,122.425,5.582,122.407,5.786,122.381z
			 M3.95,124.435c0.198,0.021,0.362,0.031,0.492,0.031h3.102c0.229,0,0.448-0.01,0.656-0.031c-0.021,0.078-0.031,0.164-0.031,0.258
			c0,0.183,0.01,0.357,0.031,0.523c-0.292,0.062-0.573,0.159-0.844,0.289c-0.198,0.109-0.516,0.326-0.953,0.648
			c0.021,0.016,0.034,0.026,0.039,0.031c-0.052,0.037-0.104,0.081-0.156,0.133h1.719c0.203,0,0.393-0.01,0.57-0.031
			c-0.224,0.558-0.394,1.086-0.508,1.586c-0.203-0.052-0.401-0.083-0.594-0.094c0.151-0.312,0.266-0.635,0.344-0.969H6.348v2.57
			c0,0.161-0.094,0.278-0.281,0.352c-0.177,0.073-0.531,0.109-1.062,0.109c-0.011-0.245-0.083-0.464-0.219-0.656
			c0.338,0.042,0.602,0.062,0.789,0.062c0.135,0,0.206-0.05,0.211-0.148v-2.289H3.575v-0.492h2.258
			c-0.312-0.312-0.628-0.586-0.945-0.82c0.13-0.099,0.245-0.203,0.344-0.312c0.271,0.24,0.555,0.477,0.852,0.711l1.266-0.953H4.442
			c-0.172,0-0.336,0.011-0.492,0.031c0.021-0.12,0.031-0.213,0.031-0.281C3.981,124.605,3.97,124.519,3.95,124.435z"/>
	</g>
</g>
<g id="儗僀儎乕_2">
</g>
</svg>
