<?xml version="1.0" encoding="utf-8"?>
<!-- Generator: Adobe Illustrator 28.2.0, SVG Export Plug-In . SVG Version: 6.00 Build 0)  -->
<svg version="1.1" id="儗僀儎乕_1" xmlns="http://www.w3.org/2000/svg" xmlns:xlink="http://www.w3.org/1999/xlink" x="0px"
	 y="0px" width="393.519px" height="155.325px" viewBox="0 0 393.519 155.325" style="enable-background:new 0 0 393.519 155.325;"
	 xml:space="preserve">
<style type="text/css">
	.st0{fill:#CCCCCC;}
	.st1{fill:#FFFFFF;stroke:#000000;}
	.st2{fill:none;stroke:#000000;}
	.st3{fill:none;stroke:#000000;stroke-width:0.5;stroke-dasharray:1.5;}
	.st4{fill:none;stroke:#000000;stroke-width:0.5;}
</style>
<rect x="229.234" y="137.087" class="st0" width="56.51" height="17.5"/>
<rect x="172.786" y="137.087" class="st0" width="28.254" height="17.5"/>
<rect x="244.809" y="7.634" class="st1" width="142.333" height="17.717"/>
<line class="st1" x1="351.714" y1="25.351" x2="351.714" y2="7.634"/>
<line class="st2" x1="31.069" y1="16.873" x2="243.894" y2="16.873"/>
<line class="st2" x1="387.116" y1="16.873" x2="393.019" y2="16.873"/>
<line class="st2" x1="3.954" y1="16.873" x2="21.454" y2="16.873"/>
<line class="st2" x1="3.954" y1="0" x2="3.954" y2="31.164"/>
<line class="st2" x1="393.019" y1="0" x2="393.019" y2="31.164"/>
<line class="st1" x1="31.069" y1="21.954" x2="31.069" y2="13.095"/>
<line class="st1" x1="21.701" y1="13.095" x2="21.701" y2="21.954"/>
<line class="st1" x1="315.73" y1="25.351" x2="315.73" y2="7.634"/>
<line class="st1" x1="280.243" y1="25.351" x2="280.243" y2="7.634"/>
<g>
	<path d="M257.917,21.393h-0.527v-7.996h0.527V21.393z"/>
	<path d="M263.182,20.434h-0.832v-0.848h0.832V20.434z"/>
	<path d="M266.27,14.693h2.327c1.495,0,2.414,1.135,2.414,2.791c0,1.287-0.56,2.95-2.446,2.95h-2.295V14.693z M267.045,19.77h1.504
		c1.007,0,1.663-0.792,1.663-2.239s-0.664-2.175-1.72-2.175h-1.447V19.77z"/>
</g>
<g>
	<path d="M170.426,90.346c-1.877,0-2.451-1.562-2.451-2.647c0-1.086,0.574-2.647,2.451-2.647s2.451,1.562,2.451,2.647
		C172.877,88.784,172.303,90.346,170.426,90.346z M170.426,85.653c-1.093,0-1.751,0.862-1.751,2.045s0.658,2.045,1.751,2.045
		s1.751-0.861,1.751-2.045S171.519,85.653,170.426,85.653z"/>
	<path d="M174.444,90.212h-0.68v-5.029h2.325c0.826,0,1.653,0.287,1.653,1.352c0,0.742-0.379,1.015-0.7,1.205
		c0.287,0.119,0.574,0.245,0.602,0.945l0.042,0.911c0.008,0.28,0.042,0.385,0.253,0.504v0.112h-0.834
		c-0.098-0.308-0.119-1.072-0.119-1.261c0-0.413-0.084-0.896-0.896-0.896h-1.646V90.212z M174.444,87.474h1.575
		c0.498,0,1.023-0.126,1.023-0.869c0-0.777-0.567-0.84-0.904-0.84h-1.694V87.474z"/>
</g>
<g>
	<g>
		<path d="M293.772,16.135c-0.04-0.887-0.775-1.167-1.423-1.167c-0.487,0-1.312,0.136-1.312,1.007c0,0.488,0.344,0.647,0.68,0.728
			l1.64,0.376c0.743,0.176,1.303,0.624,1.303,1.535c0,1.359-1.263,1.735-2.246,1.735c-1.063,0-1.479-0.32-1.735-0.552
			c-0.488-0.439-0.584-0.919-0.584-1.455h0.728c0,1.04,0.848,1.343,1.583,1.343c0.56,0,1.504-0.144,1.504-0.967
			c0-0.6-0.28-0.792-1.224-1.016l-1.176-0.272c-0.375-0.088-1.223-0.352-1.223-1.351c0-0.896,0.583-1.775,1.975-1.775
			c2.007,0,2.207,1.199,2.238,1.831H293.772z"/>
		<path d="M296.358,20.197h-0.704v-4.182h0.664v0.696h0.016c0.28-0.488,0.648-0.816,1.176-0.816c0.088,0,0.128,0.008,0.184,0.024
			v0.728h-0.264c-0.655,0-1.071,0.512-1.071,1.12V20.197z"/>
		<path d="M300.677,17.422c-0.089-0.56-0.4-0.896-0.992-0.896c-0.871,0-1.151,0.832-1.151,1.575c0,0.719,0.176,1.607,1.144,1.607
			c0.472,0,0.88-0.352,1-0.991h0.679c-0.071,0.664-0.479,1.599-1.702,1.599c-1.176,0-1.871-0.888-1.871-2.095
			c0-1.295,0.623-2.327,2.007-2.327c1.095,0,1.511,0.8,1.566,1.527H300.677z"/>
		<path d="M304.413,20.197h-0.751v-3.99h-1.312v-0.56c0.911-0.064,1.287-0.152,1.511-1.072h0.552V20.197z"/>
	</g>
</g>
<g>
	<g>
		<path d="M329.397,16.135c-0.04-0.887-0.775-1.167-1.423-1.167c-0.487,0-1.312,0.136-1.312,1.007c0,0.488,0.344,0.647,0.68,0.728
			l1.64,0.376c0.743,0.176,1.303,0.624,1.303,1.535c0,1.359-1.263,1.735-2.246,1.735c-1.063,0-1.479-0.32-1.735-0.552
			c-0.488-0.439-0.584-0.919-0.584-1.455h0.728c0,1.04,0.848,1.343,1.583,1.343c0.56,0,1.504-0.144,1.504-0.967
			c0-0.6-0.28-0.792-1.224-1.016l-1.176-0.272c-0.375-0.088-1.223-0.352-1.223-1.351c0-0.896,0.583-1.775,1.975-1.775
			c2.007,0,2.207,1.199,2.238,1.831H329.397z"/>
		<path d="M331.983,20.197h-0.704v-4.182h0.664v0.696h0.016c0.28-0.488,0.648-0.816,1.176-0.816c0.088,0,0.128,0.008,0.184,0.024
			v0.728h-0.264c-0.655,0-1.071,0.512-1.071,1.12V20.197z"/>
		<path d="M336.302,17.422c-0.089-0.56-0.4-0.896-0.992-0.896c-0.871,0-1.151,0.832-1.151,1.575c0,0.719,0.176,1.607,1.144,1.607
			c0.472,0,0.88-0.352,1-0.991h0.679c-0.071,0.664-0.479,1.599-1.702,1.599c-1.176,0-1.871-0.888-1.871-2.095
			c0-1.295,0.623-2.327,2.007-2.327c1.095,0,1.511,0.8,1.566,1.527H336.302z"/>
		<path d="M337.519,16.591c0-1.831,1.336-2.015,1.943-2.015c0.976,0,1.759,0.632,1.759,1.679c0,1.007-0.663,1.431-1.503,1.879
			l-0.584,0.32c-0.768,0.424-0.936,0.864-0.968,1.08h3.055v0.664h-3.846c0.04-1.167,0.567-1.791,1.319-2.231l0.743-0.432
			c0.6-0.344,1.031-0.576,1.031-1.311c0-0.448-0.287-1.016-1.111-1.016c-1.063,0-1.111,0.992-1.135,1.383H337.519z"/>
	</g>
</g>
<g>
	<g>
		<path d="M363.744,14.456h2.327c1.495,0,2.414,1.135,2.414,2.791c0,1.287-0.56,2.95-2.446,2.95h-2.295V14.456z M364.519,19.533
			h1.504c1.007,0,1.663-0.792,1.663-2.239s-0.664-2.175-1.72-2.175h-1.447V19.533z"/>
		<path d="M371.767,17.207c-0.008-0.264-0.104-0.704-0.991-0.704c-0.216,0-0.832,0.072-0.832,0.592c0,0.344,0.216,0.423,0.76,0.56
			l0.703,0.176c0.872,0.216,1.176,0.536,1.176,1.104c0,0.863-0.712,1.383-1.655,1.383c-1.655,0-1.774-0.959-1.799-1.463h0.68
			c0.023,0.328,0.12,0.855,1.111,0.855c0.504,0,0.959-0.2,0.959-0.664c0-0.336-0.231-0.448-0.831-0.6l-0.815-0.2
			c-0.584-0.144-0.968-0.44-0.968-1.016c0-0.919,0.76-1.335,1.583-1.335c1.495,0,1.6,1.104,1.6,1.312H371.767z"/>
		<path d="M374.255,16.599v2.719c0,0.328,0.28,0.328,0.424,0.328h0.248v0.552c-0.256,0.024-0.455,0.056-0.527,0.056
			c-0.695,0-0.848-0.392-0.848-0.896v-2.759h-0.567v-0.583h0.567v-1.167h0.703v1.167h0.672v0.583H374.255z"/>
	</g>
</g>
<polyline class="st3" points="285.776,68.556 298.449,68.556 298.449,25.524 "/>
<polyline class="st3" points="285.776,107.306 333.737,107.306 333.737,25.732 "/>
<polyline class="st3" points="285.776,146.374 369.556,146.374 369.556,25.622 "/>
<g>
	<path d="M172.986,51.702v-5.029h0.616v1.828h0.014c0.267-0.385,0.631-0.561,1.058-0.567c0.974,0,1.527,0.798,1.527,1.828
		c0,0.875-0.364,2.045-1.611,2.045c-0.623,0-0.882-0.357-1.008-0.56h-0.015v0.455H172.986z M174.562,48.487
		c-0.89,0-0.988,0.959-0.988,1.555c0,0.973,0.609,1.232,1.002,1.232c0.672,0,0.987-0.609,0.987-1.415
		C175.563,49.391,175.514,48.487,174.562,48.487z"/>
	<path d="M176.941,47.374v-0.701h0.616v0.701H176.941z M177.557,51.702h-0.616v-3.663h0.616V51.702z"/>
	<path d="M179.238,48.55v2.381c0,0.287,0.245,0.287,0.371,0.287h0.217v0.483c-0.224,0.021-0.399,0.049-0.462,0.049
		c-0.609,0-0.742-0.343-0.742-0.784V48.55h-0.498v-0.511h0.498v-1.022h0.616v1.022h0.588v0.511H179.238z"/>
	<path d="M175.039,57.952h-0.658v-3.495h-1.149v-0.49c0.799-0.056,1.128-0.133,1.324-0.938h0.483V57.952z"/>
	<path d="M177.166,55.087c0.21-0.161,0.512-0.308,0.953-0.308c0.798,0,1.617,0.561,1.617,1.576c0,0.546-0.245,1.73-1.785,1.73
		c-0.645,0-1.472-0.259-1.59-1.359h0.637c0.063,0.574,0.49,0.826,1.044,0.826c0.637,0,1.036-0.511,1.036-1.127
		c0-0.708-0.483-1.093-1.093-1.093c-0.356,0-0.679,0.168-0.91,0.469l-0.532-0.028l0.371-2.64h2.55v0.602h-2.088L177.166,55.087z"/>
</g>
<g>
	<path d="M278.772,51.702v-5.029h0.616v1.828h0.014c0.267-0.385,0.631-0.561,1.058-0.567c0.974,0,1.527,0.798,1.527,1.828
		c0,0.875-0.364,2.045-1.611,2.045c-0.623,0-0.882-0.357-1.008-0.56h-0.015v0.455H278.772z M280.348,48.487
		c-0.89,0-0.988,0.959-0.988,1.555c0,0.973,0.609,1.232,1.002,1.232c0.672,0,0.987-0.609,0.987-1.415
		C281.349,49.391,281.3,48.487,280.348,48.487z"/>
	<path d="M282.727,47.374v-0.701h0.616v0.701H282.727z M283.343,51.702h-0.616v-3.663h0.616V51.702z"/>
	<path d="M285.024,48.55v2.381c0,0.287,0.245,0.287,0.371,0.287h0.217v0.483c-0.224,0.021-0.399,0.049-0.462,0.049
		c-0.609,0-0.742-0.343-0.742-0.784V48.55h-0.498v-0.511h0.498v-1.022h0.616v1.022h0.588v0.511H285.024z"/>
	<path d="M282.063,58.086c-1.415,0-1.688-1.506-1.688-2.529c0-1.022,0.273-2.528,1.688-2.528s1.688,1.506,1.688,2.528
		C283.75,56.58,283.478,58.086,282.063,58.086z M282.063,53.582c-0.708,0-1.029,0.742-1.029,1.975c0,1.233,0.321,1.975,1.029,1.975
		c0.707,0,1.029-0.742,1.029-1.975C283.092,54.324,282.77,53.582,282.063,53.582z"/>
</g>
<rect x="172.752" y="59.236" class="st0" width="28.362" height="17.5"/>
<rect x="229.157" y="59.236" class="st0" width="28.256" height="17.5"/>
<rect x="172.897" y="59.257" class="st4" width="112.871" height="17.717"/>
<line class="st4" x1="271.436" y1="72.388" x2="271.436" y2="76.555"/>
<line class="st4" x1="271.436" y1="59.471" x2="271.436" y2="63.638"/>
<line class="st4" x1="278.521" y1="72.388" x2="278.521" y2="76.555"/>
<line class="st4" x1="278.521" y1="59.471" x2="278.521" y2="63.638"/>
<line class="st4" x1="257.366" y1="72.388" x2="257.366" y2="76.555"/>
<line class="st4" x1="257.366" y1="59.471" x2="257.366" y2="63.638"/>
<line class="st4" x1="264.454" y1="72.388" x2="264.454" y2="76.555"/>
<line class="st4" x1="264.454" y1="59.471" x2="264.454" y2="63.638"/>
<line class="st4" x1="243.299" y1="72.388" x2="243.299" y2="76.555"/>
<line class="st4" x1="243.299" y1="59.471" x2="243.299" y2="63.638"/>
<line class="st4" x1="250.384" y1="72.388" x2="250.384" y2="76.555"/>
<line class="st4" x1="250.384" y1="59.471" x2="250.384" y2="63.638"/>
<line class="st4" x1="229.211" y1="72.388" x2="229.211" y2="76.555"/>
<line class="st4" x1="229.211" y1="59.471" x2="229.211" y2="63.638"/>
<line class="st4" x1="236.311" y1="72.388" x2="236.311" y2="76.555"/>
<line class="st4" x1="236.311" y1="59.471" x2="236.311" y2="63.638"/>
<line class="st4" x1="215.129" y1="72.388" x2="215.129" y2="76.555"/>
<line class="st4" x1="215.129" y1="59.471" x2="215.129" y2="63.638"/>
<line class="st4" x1="222.216" y1="72.388" x2="222.216" y2="76.555"/>
<line class="st4" x1="222.216" y1="59.471" x2="222.216" y2="63.638"/>
<line class="st4" x1="201.059" y1="72.388" x2="201.059" y2="76.555"/>
<line class="st4" x1="201.059" y1="59.471" x2="201.059" y2="63.638"/>
<line class="st4" x1="208.146" y1="72.388" x2="208.146" y2="76.555"/>
<line class="st4" x1="208.146" y1="59.471" x2="208.146" y2="63.638"/>
<line class="st4" x1="186.991" y1="72.388" x2="186.991" y2="76.555"/>
<line class="st4" x1="186.991" y1="59.471" x2="186.991" y2="63.638"/>
<line class="st4" x1="194.076" y1="72.388" x2="194.076" y2="76.555"/>
<line class="st4" x1="194.076" y1="59.471" x2="194.076" y2="63.638"/>
<line class="st4" x1="180.009" y1="72.388" x2="180.009" y2="76.555"/>
<line class="st4" x1="180.009" y1="59.471" x2="180.009" y2="63.638"/>
<line class="st2" x1="172.577" y1="76.974" x2="285.237" y2="76.974"/>
<line class="st2" x1="285.768" y1="76.974" x2="285.768" y2="59.257"/>
<g>
	<g>
		<path d="M177.587,71.478h-0.762v-4.043h-1.329v-0.567c0.924-0.065,1.305-0.154,1.531-1.085h0.56V71.478z"/>
		<path d="M184.585,71.478h-0.762v-4.043h-1.329v-0.567c0.924-0.065,1.305-0.154,1.531-1.085h0.56V71.478z"/>
		<path d="M191.584,71.478h-0.762v-4.043h-1.329v-0.567c0.924-0.065,1.305-0.154,1.531-1.085h0.56V71.478z"/>
		<path d="M198.583,71.478h-0.762v-4.043h-1.329v-0.567c0.924-0.065,1.305-0.154,1.531-1.085h0.56V71.478z"/>
		<path d="M204.924,71.632c-1.637,0-1.953-1.742-1.953-2.925s0.316-2.925,1.953-2.925s1.952,1.742,1.952,2.925
			S206.561,71.632,204.924,71.632z M204.924,66.422c-0.818,0-1.191,0.859-1.191,2.285c0,1.426,0.373,2.285,1.191,2.285
			s1.19-0.859,1.19-2.285C206.115,67.281,205.743,66.422,204.924,66.422z"/>
		<path d="M211.923,71.632c-1.637,0-1.953-1.742-1.953-2.925s0.316-2.925,1.953-2.925c1.636,0,1.952,1.742,1.952,2.925
			S213.559,71.632,211.923,71.632z M211.923,66.422c-0.818,0-1.191,0.859-1.191,2.285c0,1.426,0.373,2.285,1.191,2.285
			s1.19-0.859,1.19-2.285C213.114,67.281,212.742,66.422,211.923,66.422z"/>
		<path d="M218.921,71.632c-1.637,0-1.953-1.742-1.953-2.925s0.316-2.925,1.953-2.925c1.636,0,1.952,1.742,1.952,2.925
			S220.557,71.632,218.921,71.632z M218.921,66.422c-0.818,0-1.191,0.859-1.191,2.285c0,1.426,0.373,2.285,1.191,2.285
			s1.19-0.859,1.19-2.285C220.112,67.281,219.74,66.422,218.921,66.422z"/>
		<path d="M225.92,71.632c-1.637,0-1.953-1.742-1.953-2.925s0.316-2.925,1.953-2.925s1.952,1.742,1.952,2.925
			S227.557,71.632,225.92,71.632z M225.92,66.422c-0.818,0-1.191,0.859-1.191,2.285c0,1.426,0.373,2.285,1.191,2.285
			s1.19-0.859,1.19-2.285C227.111,67.281,226.739,66.422,225.92,66.422z"/>
		<path d="M233.575,71.478h-0.762v-4.043h-1.329v-0.567c0.924-0.065,1.305-0.154,1.531-1.085h0.56V71.478z"/>
		<path d="M240.573,71.478h-0.762v-4.043h-1.329v-0.567c0.924-0.065,1.305-0.154,1.531-1.085h0.56V71.478z"/>
		<path d="M247.572,71.478h-0.762v-4.043h-1.329v-0.567c0.924-0.065,1.305-0.154,1.531-1.085h0.56V71.478z"/>
		<path d="M254.57,71.478h-0.762v-4.043h-1.329v-0.567c0.924-0.065,1.305-0.154,1.531-1.085h0.56V71.478z"/>
		<path d="M260.912,71.632c-1.637,0-1.953-1.742-1.953-2.925s0.316-2.925,1.953-2.925c1.636,0,1.952,1.742,1.952,2.925
			S262.547,71.632,260.912,71.632z M260.912,66.422c-0.818,0-1.191,0.859-1.191,2.285c0,1.426,0.373,2.285,1.191,2.285
			s1.19-0.859,1.19-2.285C262.102,67.281,261.73,66.422,260.912,66.422z"/>
		<path d="M267.911,71.632c-1.637,0-1.953-1.742-1.953-2.925s0.316-2.925,1.953-2.925s1.952,1.742,1.952,2.925
			S269.547,71.632,267.911,71.632z M267.911,66.422c-0.818,0-1.191,0.859-1.191,2.285c0,1.426,0.373,2.285,1.191,2.285
			s1.19-0.859,1.19-2.285C269.101,67.281,268.729,66.422,267.911,66.422z"/>
		<path d="M274.909,71.632c-1.637,0-1.953-1.742-1.953-2.925s0.316-2.925,1.953-2.925s1.952,1.742,1.952,2.925
			S276.545,71.632,274.909,71.632z M274.909,66.422c-0.818,0-1.191,0.859-1.191,2.285c0,1.426,0.373,2.285,1.191,2.285
			s1.19-0.859,1.19-2.285C276.099,67.281,275.727,66.422,274.909,66.422z"/>
		<path d="M281.907,71.632c-1.637,0-1.953-1.742-1.953-2.925s0.316-2.925,1.953-2.925s1.952,1.742,1.952,2.925
			S283.543,71.632,281.907,71.632z M281.907,66.422c-0.818,0-1.191,0.859-1.191,2.285c0,1.426,0.373,2.285,1.191,2.285
			s1.19-0.859,1.19-2.285C283.097,67.281,282.725,66.422,281.907,66.422z"/>
	</g>
</g>
<g>
	<path d="M278.772,90.628v-5.029h0.616v1.828h0.014c0.267-0.385,0.631-0.561,1.058-0.567c0.974,0,1.527,0.798,1.527,1.828
		c0,0.875-0.364,2.045-1.611,2.045c-0.623,0-0.882-0.357-1.008-0.56h-0.015v0.455H278.772z M280.348,87.413
		c-0.89,0-0.988,0.959-0.988,1.555c0,0.973,0.609,1.232,1.002,1.232c0.672,0,0.987-0.609,0.987-1.415
		C281.349,88.317,281.3,87.413,280.348,87.413z"/>
	<path d="M282.727,86.3v-0.701h0.616V86.3H282.727z M283.343,90.628h-0.616v-3.663h0.616V90.628z"/>
	<path d="M285.024,87.476v2.381c0,0.287,0.245,0.287,0.371,0.287h0.217v0.483c-0.224,0.021-0.399,0.049-0.462,0.049
		c-0.609,0-0.742-0.343-0.742-0.784v-2.417h-0.498v-0.511h0.498v-1.022h0.616v1.022h0.588v0.511H285.024z"/>
	<path d="M282.063,97.011c-1.415,0-1.688-1.506-1.688-2.529c0-1.022,0.273-2.528,1.688-2.528s1.688,1.506,1.688,2.528
		C283.75,95.505,283.478,97.011,282.063,97.011z M282.063,92.508c-0.708,0-1.029,0.742-1.029,1.975c0,1.233,0.321,1.975,1.029,1.975
		c0.707,0,1.029-0.742,1.029-1.975C283.092,93.25,282.77,92.508,282.063,92.508z"/>
</g>
<rect x="229.157" y="98.162" class="st0" width="56.511" height="17.5"/>
<rect x="172.897" y="98.183" class="st4" width="112.871" height="17.717"/>
<line class="st4" x1="271.436" y1="111.313" x2="271.436" y2="115.481"/>
<line class="st4" x1="271.436" y1="98.397" x2="271.436" y2="102.564"/>
<line class="st4" x1="278.521" y1="111.313" x2="278.521" y2="115.481"/>
<line class="st4" x1="278.521" y1="98.397" x2="278.521" y2="102.564"/>
<line class="st4" x1="257.366" y1="111.313" x2="257.366" y2="115.481"/>
<line class="st4" x1="257.366" y1="98.397" x2="257.366" y2="102.564"/>
<line class="st4" x1="264.454" y1="111.313" x2="264.454" y2="115.481"/>
<line class="st4" x1="264.454" y1="98.397" x2="264.454" y2="102.564"/>
<line class="st4" x1="243.299" y1="111.313" x2="243.299" y2="115.481"/>
<line class="st4" x1="243.299" y1="98.397" x2="243.299" y2="102.564"/>
<line class="st4" x1="250.384" y1="111.313" x2="250.384" y2="115.481"/>
<line class="st4" x1="250.384" y1="98.397" x2="250.384" y2="102.564"/>
<line class="st4" x1="229.211" y1="111.313" x2="229.211" y2="115.481"/>
<line class="st4" x1="229.211" y1="98.397" x2="229.211" y2="102.564"/>
<line class="st4" x1="236.311" y1="111.313" x2="236.311" y2="115.481"/>
<line class="st4" x1="236.311" y1="98.397" x2="236.311" y2="102.564"/>
<line class="st4" x1="215.129" y1="111.313" x2="215.129" y2="115.481"/>
<line class="st4" x1="215.129" y1="98.397" x2="215.129" y2="102.564"/>
<line class="st4" x1="222.216" y1="111.313" x2="222.216" y2="115.481"/>
<line class="st4" x1="222.216" y1="98.397" x2="222.216" y2="102.564"/>
<line class="st4" x1="201.059" y1="111.313" x2="201.059" y2="115.481"/>
<line class="st4" x1="201.059" y1="98.397" x2="201.059" y2="102.564"/>
<line class="st4" x1="208.146" y1="111.313" x2="208.146" y2="115.481"/>
<line class="st4" x1="208.146" y1="98.397" x2="208.146" y2="102.564"/>
<line class="st4" x1="186.991" y1="111.313" x2="186.991" y2="115.481"/>
<line class="st4" x1="186.991" y1="98.397" x2="186.991" y2="102.564"/>
<line class="st4" x1="194.076" y1="111.313" x2="194.076" y2="115.481"/>
<line class="st4" x1="194.076" y1="98.397" x2="194.076" y2="102.564"/>
<line class="st4" x1="180.009" y1="111.313" x2="180.009" y2="115.481"/>
<line class="st4" x1="180.009" y1="98.397" x2="180.009" y2="102.564"/>
<line class="st2" x1="172.577" y1="115.9" x2="285.237" y2="115.9"/>
<line class="st2" x1="285.768" y1="115.9" x2="285.768" y2="98.183"/>
<g>
	<g>
		<path d="M176.931,110.558c-1.637,0-1.953-1.742-1.953-2.925s0.316-2.925,1.953-2.925c1.636,0,1.952,1.742,1.952,2.925
			S178.567,110.558,176.931,110.558z M176.931,105.348c-0.818,0-1.191,0.859-1.191,2.285c0,1.426,0.373,2.285,1.191,2.285
			s1.19-0.859,1.19-2.285C178.122,106.207,177.75,105.348,176.931,105.348z"/>
		<path d="M183.929,110.558c-1.637,0-1.953-1.742-1.953-2.925s0.316-2.925,1.953-2.925c1.636,0,1.952,1.742,1.952,2.925
			S185.565,110.558,183.929,110.558z M183.929,105.348c-0.818,0-1.191,0.859-1.191,2.285c0,1.426,0.373,2.285,1.191,2.285
			s1.19-0.859,1.19-2.285C185.12,106.207,184.748,105.348,183.929,105.348z"/>
		<path d="M190.928,110.558c-1.637,0-1.953-1.742-1.953-2.925s0.316-2.925,1.953-2.925s1.952,1.742,1.952,2.925
			S192.565,110.558,190.928,110.558z M190.928,105.348c-0.818,0-1.191,0.859-1.191,2.285c0,1.426,0.373,2.285,1.191,2.285
			s1.19-0.859,1.19-2.285C192.119,106.207,191.747,105.348,190.928,105.348z"/>
		<path d="M197.926,110.558c-1.637,0-1.953-1.742-1.953-2.925s0.316-2.925,1.953-2.925s1.952,1.742,1.952,2.925
			S199.563,110.558,197.926,110.558z M197.926,105.348c-0.818,0-1.191,0.859-1.191,2.285c0,1.426,0.373,2.285,1.191,2.285
			s1.19-0.859,1.19-2.285C199.117,106.207,198.745,105.348,197.926,105.348z"/>
		<path d="M204.924,110.558c-1.637,0-1.953-1.742-1.953-2.925s0.316-2.925,1.953-2.925s1.952,1.742,1.952,2.925
			S206.561,110.558,204.924,110.558z M204.924,105.348c-0.818,0-1.191,0.859-1.191,2.285c0,1.426,0.373,2.285,1.191,2.285
			s1.19-0.859,1.19-2.285C206.115,106.207,205.743,105.348,204.924,105.348z"/>
		<path d="M211.923,110.558c-1.637,0-1.953-1.742-1.953-2.925s0.316-2.925,1.953-2.925c1.636,0,1.952,1.742,1.952,2.925
			S213.559,110.558,211.923,110.558z M211.923,105.348c-0.818,0-1.191,0.859-1.191,2.285c0,1.426,0.373,2.285,1.191,2.285
			s1.19-0.859,1.19-2.285C213.114,106.207,212.742,105.348,211.923,105.348z"/>
		<path d="M218.921,110.558c-1.637,0-1.953-1.742-1.953-2.925s0.316-2.925,1.953-2.925c1.636,0,1.952,1.742,1.952,2.925
			S220.557,110.558,218.921,110.558z M218.921,105.348c-0.818,0-1.191,0.859-1.191,2.285c0,1.426,0.373,2.285,1.191,2.285
			s1.19-0.859,1.19-2.285C220.112,106.207,219.74,105.348,218.921,105.348z"/>
		<path d="M225.92,110.558c-1.637,0-1.953-1.742-1.953-2.925s0.316-2.925,1.953-2.925s1.952,1.742,1.952,2.925
			S227.557,110.558,225.92,110.558z M225.92,105.348c-0.818,0-1.191,0.859-1.191,2.285c0,1.426,0.373,2.285,1.191,2.285
			s1.19-0.859,1.19-2.285C227.111,106.207,226.739,105.348,225.92,105.348z"/>
		<path d="M233.575,110.404h-0.762v-4.043h-1.329v-0.567c0.924-0.065,1.305-0.154,1.531-1.085h0.56V110.404z"/>
		<path d="M240.573,110.404h-0.762v-4.043h-1.329v-0.567c0.924-0.065,1.305-0.154,1.531-1.085h0.56V110.404z"/>
		<path d="M247.572,110.404h-0.762v-4.043h-1.329v-0.567c0.924-0.065,1.305-0.154,1.531-1.085h0.56V110.404z"/>
		<path d="M254.57,110.404h-0.762v-4.043h-1.329v-0.567c0.924-0.065,1.305-0.154,1.531-1.085h0.56V110.404z"/>
		<path d="M261.568,110.404h-0.762v-4.043h-1.329v-0.567c0.924-0.065,1.305-0.154,1.531-1.085h0.56V110.404z"/>
		<path d="M268.567,110.404h-0.762v-4.043h-1.329v-0.567c0.924-0.065,1.305-0.154,1.531-1.085h0.56V110.404z"/>
		<path d="M275.565,110.404h-0.762v-4.043h-1.329v-0.567c0.924-0.065,1.305-0.154,1.531-1.085h0.56V110.404z"/>
		<path d="M282.563,110.404h-0.762v-4.043h-1.329v-0.567c0.924-0.065,1.305-0.154,1.531-1.085h0.56V110.404z"/>
	</g>
</g>
<g>
	<path d="M278.772,129.554v-5.029h0.616v1.828h0.014c0.267-0.385,0.631-0.56,1.058-0.566c0.974,0,1.527,0.798,1.527,1.827
		c0,0.876-0.364,2.046-1.611,2.046c-0.623,0-0.882-0.357-1.008-0.561h-0.015v0.455H278.772z M280.348,126.339
		c-0.89,0-0.988,0.96-0.988,1.555c0,0.974,0.609,1.233,1.002,1.233c0.672,0,0.987-0.609,0.987-1.415
		C281.349,127.242,281.3,126.339,280.348,126.339z"/>
	<path d="M282.727,125.226v-0.701h0.616v0.701H282.727z M283.343,129.554h-0.616v-3.663h0.616V129.554z"/>
	<path d="M285.024,126.402v2.381c0,0.287,0.245,0.287,0.371,0.287h0.217v0.483c-0.224,0.021-0.399,0.049-0.462,0.049
		c-0.609,0-0.742-0.343-0.742-0.784v-2.416h-0.498v-0.512h0.498v-1.022h0.616v1.022h0.588v0.512H285.024z"/>
	<path d="M282.063,135.937c-1.415,0-1.688-1.506-1.688-2.528s0.273-2.528,1.688-2.528s1.688,1.506,1.688,2.528
		S283.478,135.937,282.063,135.937z M282.063,131.434c-0.708,0-1.029,0.742-1.029,1.975s0.321,1.976,1.029,1.976
		c0.707,0,1.029-0.743,1.029-1.976S282.77,131.434,282.063,131.434z"/>
</g>
<rect x="229.157" y="137.087" class="st0" width="28.256" height="17.5"/>
<rect x="172.897" y="137.109" class="st4" width="112.871" height="17.716"/>
<line class="st4" x1="271.436" y1="150.239" x2="271.436" y2="154.407"/>
<line class="st4" x1="271.436" y1="137.322" x2="271.436" y2="141.489"/>
<line class="st4" x1="278.521" y1="150.239" x2="278.521" y2="154.407"/>
<line class="st4" x1="278.521" y1="137.322" x2="278.521" y2="141.489"/>
<line class="st4" x1="257.366" y1="150.239" x2="257.366" y2="154.407"/>
<line class="st4" x1="257.366" y1="137.322" x2="257.366" y2="141.489"/>
<line class="st4" x1="264.454" y1="150.239" x2="264.454" y2="154.407"/>
<line class="st4" x1="264.454" y1="137.322" x2="264.454" y2="141.489"/>
<line class="st4" x1="243.299" y1="150.239" x2="243.299" y2="154.407"/>
<line class="st4" x1="243.299" y1="137.322" x2="243.299" y2="141.489"/>
<line class="st4" x1="250.384" y1="150.239" x2="250.384" y2="154.407"/>
<line class="st4" x1="250.384" y1="137.322" x2="250.384" y2="141.489"/>
<line class="st4" x1="229.211" y1="150.239" x2="229.211" y2="154.407"/>
<line class="st4" x1="229.211" y1="137.322" x2="229.211" y2="141.489"/>
<line class="st4" x1="236.311" y1="150.239" x2="236.311" y2="154.407"/>
<line class="st4" x1="236.311" y1="137.322" x2="236.311" y2="141.489"/>
<line class="st4" x1="215.129" y1="150.239" x2="215.129" y2="154.407"/>
<line class="st4" x1="215.129" y1="137.322" x2="215.129" y2="141.489"/>
<line class="st4" x1="222.216" y1="150.239" x2="222.216" y2="154.407"/>
<line class="st4" x1="222.216" y1="137.322" x2="222.216" y2="141.489"/>
<line class="st4" x1="201.059" y1="150.239" x2="201.059" y2="154.407"/>
<line class="st4" x1="201.059" y1="137.322" x2="201.059" y2="141.489"/>
<line class="st4" x1="208.146" y1="150.239" x2="208.146" y2="154.407"/>
<line class="st4" x1="208.146" y1="137.322" x2="208.146" y2="141.489"/>
<line class="st4" x1="186.991" y1="150.239" x2="186.991" y2="154.407"/>
<line class="st4" x1="186.991" y1="137.322" x2="186.991" y2="141.489"/>
<line class="st4" x1="194.076" y1="150.239" x2="194.076" y2="154.407"/>
<line class="st4" x1="194.076" y1="137.322" x2="194.076" y2="141.489"/>
<line class="st4" x1="180.009" y1="150.239" x2="180.009" y2="154.407"/>
<line class="st4" x1="180.009" y1="137.322" x2="180.009" y2="141.489"/>
<line class="st2" x1="172.577" y1="154.825" x2="285.237" y2="154.825"/>
<line class="st2" x1="285.768" y1="154.825" x2="285.768" y2="137.109"/>
<g>
	<g>
		<path d="M177.587,149.33h-0.762v-4.043h-1.329v-0.567c0.924-0.064,1.305-0.154,1.531-1.086h0.56V149.33z"/>
		<path d="M184.585,149.33h-0.762v-4.043h-1.329v-0.567c0.924-0.064,1.305-0.154,1.531-1.086h0.56V149.33z"/>
		<path d="M191.584,149.33h-0.762v-4.043h-1.329v-0.567c0.924-0.064,1.305-0.154,1.531-1.086h0.56V149.33z"/>
		<path d="M198.583,149.33h-0.762v-4.043h-1.329v-0.567c0.924-0.064,1.305-0.154,1.531-1.086h0.56V149.33z"/>
		<path d="M204.924,149.484c-1.637,0-1.953-1.742-1.953-2.926c0-1.183,0.316-2.925,1.953-2.925s1.952,1.742,1.952,2.925
			C206.876,147.742,206.561,149.484,204.924,149.484z M204.924,144.274c-0.818,0-1.191,0.858-1.191,2.284
			c0,1.427,0.373,2.285,1.191,2.285s1.19-0.858,1.19-2.285C206.115,145.133,205.743,144.274,204.924,144.274z"/>
		<path d="M211.923,149.484c-1.637,0-1.953-1.742-1.953-2.926c0-1.183,0.316-2.925,1.953-2.925c1.636,0,1.952,1.742,1.952,2.925
			C213.875,147.742,213.559,149.484,211.923,149.484z M211.923,144.274c-0.818,0-1.191,0.858-1.191,2.284
			c0,1.427,0.373,2.285,1.191,2.285s1.19-0.858,1.19-2.285C213.114,145.133,212.742,144.274,211.923,144.274z"/>
		<path d="M218.921,149.484c-1.637,0-1.953-1.742-1.953-2.926c0-1.183,0.316-2.925,1.953-2.925c1.636,0,1.952,1.742,1.952,2.925
			C220.874,147.742,220.557,149.484,218.921,149.484z M218.921,144.274c-0.818,0-1.191,0.858-1.191,2.284
			c0,1.427,0.373,2.285,1.191,2.285s1.19-0.858,1.19-2.285C220.112,145.133,219.74,144.274,218.921,144.274z"/>
		<path d="M225.92,149.484c-1.637,0-1.953-1.742-1.953-2.926c0-1.183,0.316-2.925,1.953-2.925s1.952,1.742,1.952,2.925
			C227.873,147.742,227.557,149.484,225.92,149.484z M225.92,144.274c-0.818,0-1.191,0.858-1.191,2.284
			c0,1.427,0.373,2.285,1.191,2.285s1.19-0.858,1.19-2.285C227.111,145.133,226.739,144.274,225.92,144.274z"/>
		<path d="M233.575,149.33h-0.762v-4.043h-1.329v-0.567c0.924-0.064,1.305-0.154,1.531-1.086h0.56V149.33z"/>
		<path d="M240.573,149.33h-0.762v-4.043h-1.329v-0.567c0.924-0.064,1.305-0.154,1.531-1.086h0.56V149.33z"/>
		<path d="M247.572,149.33h-0.762v-4.043h-1.329v-0.567c0.924-0.064,1.305-0.154,1.531-1.086h0.56V149.33z"/>
		<path d="M254.57,149.33h-0.762v-4.043h-1.329v-0.567c0.924-0.064,1.305-0.154,1.531-1.086h0.56V149.33z"/>
		<path d="M261.568,149.33h-0.762v-4.043h-1.329v-0.567c0.924-0.064,1.305-0.154,1.531-1.086h0.56V149.33z"/>
		<path d="M268.567,149.33h-0.762v-4.043h-1.329v-0.567c0.924-0.064,1.305-0.154,1.531-1.086h0.56V149.33z"/>
		<path d="M275.565,149.33h-0.762v-4.043h-1.329v-0.567c0.924-0.064,1.305-0.154,1.531-1.086h0.56V149.33z"/>
		<path d="M282.563,149.33h-0.762v-4.043h-1.329v-0.567c0.924-0.064,1.305-0.154,1.531-1.086h0.56V149.33z"/>
	</g>
</g>
<polygon points="169.549,123.805 172.976,129.825 176.397,123.805 "/>
<g>
	<g>
		<path d="M30.714,67.318c-0.04-0.887-0.776-1.167-1.423-1.167c-0.488,0-1.311,0.136-1.311,1.007c0,0.488,0.344,0.647,0.679,0.728
			l1.639,0.376c0.744,0.176,1.303,0.624,1.303,1.535c0,1.359-1.263,1.735-2.247,1.735c-1.063,0-1.479-0.32-1.735-0.552
			c-0.488-0.439-0.584-0.919-0.584-1.455h0.728c0,1.04,0.848,1.343,1.583,1.343c0.56,0,1.503-0.144,1.503-0.967
			c0-0.6-0.28-0.792-1.223-1.016l-1.175-0.272c-0.376-0.088-1.224-0.352-1.224-1.351c0-0.896,0.584-1.775,1.975-1.775
			c2.007,0,2.207,1.199,2.239,1.831H30.714z"/>
		<path d="M33.3,71.38h-0.704v-4.182h0.664v0.696h0.016c0.28-0.488,0.647-0.816,1.175-0.816c0.088,0,0.128,0.008,0.184,0.024v0.728
			h-0.264c-0.656,0-1.071,0.512-1.071,1.12V71.38z"/>
		<path d="M37.619,68.606c-0.088-0.56-0.4-0.896-0.992-0.896c-0.871,0-1.151,0.832-1.151,1.575c0,0.719,0.176,1.607,1.144,1.607
			c0.472,0,0.879-0.352,1-0.991h0.68c-0.072,0.664-0.48,1.599-1.703,1.599c-1.175,0-1.871-0.888-1.871-2.095
			c0-1.295,0.624-2.327,2.007-2.327c1.096,0,1.511,0.8,1.567,1.527H37.619z"/>
		<path d="M41.355,71.38h-0.752v-3.99h-1.311v-0.56c0.912-0.064,1.287-0.152,1.511-1.072h0.552V71.38z"/>
	</g>
	<g>
		<path d="M47.593,66.834h0.657v1.945h1.944v0.657H48.25v1.945h-0.657v-1.945H45.64v-0.657h1.954V66.834z"/>
		<path d="M53.776,71.38H52.93v-4.492h-1.477v-0.63c1.026-0.072,1.45-0.171,1.702-1.207h0.621V71.38z"/>
	</g>
</g>
<g>
	<g>
		<path d="M30.714,106.244c-0.04-0.887-0.776-1.167-1.423-1.167c-0.488,0-1.311,0.136-1.311,1.007c0,0.488,0.344,0.647,0.679,0.728
			l1.639,0.376c0.744,0.176,1.303,0.624,1.303,1.535c0,1.359-1.263,1.735-2.247,1.735c-1.063,0-1.479-0.32-1.735-0.552
			c-0.488-0.439-0.584-0.919-0.584-1.455h0.728c0,1.04,0.848,1.343,1.583,1.343c0.56,0,1.503-0.144,1.503-0.967
			c0-0.6-0.28-0.792-1.223-1.016l-1.175-0.272c-0.376-0.088-1.224-0.352-1.224-1.351c0-0.896,0.584-1.775,1.975-1.775
			c2.007,0,2.207,1.199,2.239,1.831H30.714z"/>
		<path d="M33.3,110.306h-0.704v-4.182h0.664v0.696h0.016c0.28-0.488,0.647-0.816,1.175-0.816c0.088,0,0.128,0.008,0.184,0.024
			v0.728h-0.264c-0.656,0-1.071,0.512-1.071,1.12V110.306z"/>
		<path d="M37.619,107.532c-0.088-0.56-0.4-0.896-0.992-0.896c-0.871,0-1.151,0.832-1.151,1.575c0,0.719,0.176,1.607,1.144,1.607
			c0.472,0,0.879-0.352,1-0.991h0.68c-0.072,0.664-0.48,1.599-1.703,1.599c-1.175,0-1.871-0.888-1.871-2.095
			c0-1.295,0.624-2.327,2.007-2.327c1.096,0,1.511,0.8,1.567,1.527H37.619z"/>
		<path d="M38.836,106.7c0-1.831,1.335-2.015,1.943-2.015c0.975,0,1.759,0.632,1.759,1.679c0,1.007-0.664,1.431-1.503,1.879
			l-0.584,0.32c-0.768,0.424-0.936,0.864-0.967,1.08h3.054v0.664h-3.846c0.04-1.167,0.567-1.791,1.319-2.231l0.743-0.432
			c0.6-0.344,1.032-0.576,1.032-1.311c0-0.448-0.288-1.016-1.111-1.016c-1.063,0-1.111,0.992-1.135,1.383H38.836z"/>
	</g>
	<g>
		<path d="M47.593,105.76h0.657v1.945h1.944v0.657H48.25v1.945h-0.657v-1.945H45.64v-0.657h1.954V105.76z"/>
		<path d="M53.776,110.306H52.93v-4.492h-1.477v-0.63c1.026-0.072,1.45-0.171,1.702-1.207h0.621V110.306z"/>
	</g>
</g>
<g>
	<g>
		<path d="M29.436,143.491h2.327c1.496,0,2.415,1.136,2.415,2.791c0,1.287-0.56,2.95-2.447,2.95h-2.295V143.491z M30.212,148.568
			h1.503c1.008,0,1.663-0.791,1.663-2.238s-0.664-2.175-1.719-2.175h-1.447V148.568z"/>
		<path d="M37.459,146.242c-0.008-0.264-0.104-0.704-0.992-0.704c-0.216,0-0.832,0.072-0.832,0.592c0,0.344,0.216,0.424,0.76,0.56
			l0.704,0.176c0.872,0.217,1.175,0.536,1.175,1.104c0,0.864-0.711,1.384-1.655,1.384c-1.655,0-1.775-0.96-1.799-1.464h0.68
			c0.024,0.328,0.12,0.856,1.111,0.856c0.504,0,0.959-0.2,0.959-0.664c0-0.336-0.232-0.448-0.832-0.6l-0.815-0.2
			c-0.584-0.144-0.968-0.439-0.968-1.016c0-0.919,0.76-1.335,1.583-1.335c1.495,0,1.599,1.104,1.599,1.312H37.459z"/>
		<path d="M39.948,145.635v2.718c0,0.328,0.28,0.328,0.424,0.328h0.248v0.552c-0.256,0.024-0.456,0.056-0.527,0.056
			c-0.696,0-0.848-0.392-0.848-0.896v-2.758h-0.568v-0.584h0.568v-1.167h0.704v1.167h0.671v0.584H39.948z"/>
	</g>
	<g>
		<path d="M47.593,144.687h0.657v1.944h1.944v0.657H48.25v1.944h-0.657v-1.944H45.64v-0.657h1.954V144.687z"/>
		<path d="M53.776,149.232H52.93v-4.492h-1.477v-0.63c1.026-0.072,1.45-0.172,1.702-1.207h0.621V149.232z"/>
	</g>
</g>
<g>
	<path d="M60.115,51.702v-5.029h0.616v1.828h0.014c0.266-0.385,0.63-0.561,1.058-0.567c0.974,0,1.527,0.798,1.527,1.828
		c0,0.875-0.364,2.045-1.611,2.045c-0.624,0-0.883-0.357-1.009-0.56h-0.014v0.455H60.115z M61.69,48.487
		c-0.889,0-0.987,0.959-0.987,1.555c0,0.973,0.609,1.232,1.001,1.232c0.672,0,0.987-0.609,0.987-1.415
		C62.692,49.391,62.643,48.487,61.69,48.487z"/>
	<path d="M64.07,47.374v-0.701h0.616v0.701H64.07z M64.686,51.702H64.07v-3.663h0.616V51.702z"/>
	<path d="M66.366,48.55v2.381c0,0.287,0.245,0.287,0.372,0.287h0.217v0.483c-0.224,0.021-0.399,0.049-0.462,0.049
		c-0.609,0-0.743-0.343-0.743-0.784V48.55h-0.497v-0.511h0.497v-1.022h0.616v1.022h0.588v0.511H66.366z"/>
	<path d="M61.081,55.15c0.105,0.007,0.217,0.014,0.322,0.014c0.476,0,0.938-0.189,0.938-0.805c0-0.294-0.175-0.777-0.911-0.777
		c-0.875,0-0.932,0.714-0.959,1.057H59.87c0-0.721,0.294-1.611,1.59-1.611c0.952,0,1.52,0.546,1.52,1.296
		c0,0.63-0.364,0.932-0.63,1.016v0.014c0.477,0.154,0.819,0.491,0.819,1.149c0,0.805-0.518,1.583-1.772,1.583
		c-0.364,0-0.672-0.091-0.91-0.217c-0.546-0.287-0.693-0.854-0.735-1.422h0.637c0.021,0.462,0.133,1.085,1.051,1.085
		c0.63,0,1.071-0.385,1.071-0.952c0-0.827-0.729-0.904-1.148-0.904c-0.091,0-0.189,0.007-0.28,0.007V55.15z"/>
	<path d="M65.918,57.952H65.26v-3.495h-1.148v-0.49c0.798-0.056,1.127-0.133,1.324-0.938h0.483V57.952z"/>
</g>
<g>
	<path d="M165.158,51.702v-5.029h0.616v1.828h0.014c0.267-0.385,0.631-0.561,1.058-0.567c0.974,0,1.527,0.798,1.527,1.828
		c0,0.875-0.364,2.045-1.611,2.045c-0.623,0-0.882-0.357-1.008-0.56h-0.015v0.455H165.158z M166.734,48.487
		c-0.89,0-0.988,0.959-0.988,1.555c0,0.973,0.609,1.232,1.002,1.232c0.672,0,0.987-0.609,0.987-1.415
		C167.735,49.391,167.686,48.487,166.734,48.487z"/>
	<path d="M169.113,47.374v-0.701h0.616v0.701H169.113z M169.729,51.702h-0.616v-3.663h0.616V51.702z"/>
	<path d="M171.41,48.55v2.381c0,0.287,0.245,0.287,0.371,0.287h0.217v0.483c-0.224,0.021-0.399,0.049-0.462,0.049
		c-0.609,0-0.742-0.343-0.742-0.784V48.55h-0.498v-0.511h0.498v-1.022h0.616v1.022h0.588v0.511H171.41z"/>
	<path d="M167.21,57.952h-0.658v-3.495h-1.149v-0.49c0.799-0.056,1.128-0.133,1.324-0.938h0.483V57.952z"/>
	<path d="M171.229,54.338c-0.077-0.435-0.315-0.756-0.848-0.756c-0.967,0-1.17,1.302-1.17,1.821l0.015,0.014
		c0.153-0.267,0.497-0.603,1.169-0.603c0.603,0,1.541,0.385,1.541,1.562c0,0.504-0.133,0.868-0.469,1.232
		c-0.26,0.287-0.554,0.477-1.247,0.477c-0.378,0-0.918-0.168-1.268-0.715c-0.294-0.462-0.378-1.064-0.378-1.708
		c0-1.079,0.35-2.634,1.82-2.634c0.567,0,1.373,0.308,1.436,1.31H171.229z M170.333,57.532c0.588,0,0.966-0.462,0.966-1.127
		c0-0.434-0.23-1.037-0.994-1.037c-0.68,0-1.009,0.49-1.009,1.072C169.295,56.965,169.611,57.532,170.333,57.532z"/>
</g>
<rect x="59.88" y="59.236" class="st0" width="28.362" height="17.5"/>
<rect x="116.286" y="59.236" class="st0" width="28.255" height="17.5"/>
<rect x="60.025" y="59.257" class="st4" width="112.872" height="17.717"/>
<line class="st4" x1="158.565" y1="72.388" x2="158.565" y2="76.555"/>
<line class="st4" x1="158.565" y1="59.471" x2="158.565" y2="63.638"/>
<line class="st4" x1="165.649" y1="72.388" x2="165.649" y2="76.555"/>
<line class="st4" x1="165.649" y1="59.471" x2="165.649" y2="63.638"/>
<line class="st4" x1="144.494" y1="72.388" x2="144.494" y2="76.555"/>
<line class="st4" x1="144.494" y1="59.471" x2="144.494" y2="63.638"/>
<line class="st4" x1="151.582" y1="72.388" x2="151.582" y2="76.555"/>
<line class="st4" x1="151.582" y1="59.471" x2="151.582" y2="63.638"/>
<line class="st4" x1="130.427" y1="72.388" x2="130.427" y2="76.555"/>
<line class="st4" x1="130.427" y1="59.471" x2="130.427" y2="63.638"/>
<line class="st4" x1="137.512" y1="72.388" x2="137.512" y2="76.555"/>
<line class="st4" x1="137.512" y1="59.471" x2="137.512" y2="63.638"/>
<line class="st4" x1="116.339" y1="72.388" x2="116.339" y2="76.555"/>
<line class="st4" x1="116.339" y1="59.471" x2="116.339" y2="63.638"/>
<line class="st4" x1="123.44" y1="72.388" x2="123.44" y2="76.555"/>
<line class="st4" x1="123.44" y1="59.471" x2="123.44" y2="63.638"/>
<line class="st4" x1="102.257" y1="72.388" x2="102.257" y2="76.555"/>
<line class="st4" x1="102.257" y1="59.471" x2="102.257" y2="63.638"/>
<line class="st4" x1="109.345" y1="72.388" x2="109.345" y2="76.555"/>
<line class="st4" x1="109.345" y1="59.471" x2="109.345" y2="63.638"/>
<line class="st4" x1="88.188" y1="72.388" x2="88.188" y2="76.555"/>
<line class="st4" x1="88.188" y1="59.471" x2="88.188" y2="63.638"/>
<line class="st4" x1="95.275" y1="72.388" x2="95.275" y2="76.555"/>
<line class="st4" x1="95.275" y1="59.471" x2="95.275" y2="63.638"/>
<line class="st4" x1="74.12" y1="72.388" x2="74.12" y2="76.555"/>
<line class="st4" x1="74.12" y1="59.471" x2="74.12" y2="63.638"/>
<line class="st4" x1="81.205" y1="72.388" x2="81.205" y2="76.555"/>
<line class="st4" x1="81.205" y1="59.471" x2="81.205" y2="63.638"/>
<line class="st4" x1="67.138" y1="72.388" x2="67.138" y2="76.555"/>
<line class="st4" x1="67.138" y1="59.471" x2="67.138" y2="63.638"/>
<line class="st2" x1="59.706" y1="76.974" x2="172.685" y2="76.974"/>
<g>
	<g>
		<path d="M64.716,71.478h-0.762v-4.043h-1.329v-0.567c0.924-0.065,1.305-0.154,1.531-1.085h0.559V71.478z"/>
		<path d="M71.714,71.478h-0.762v-4.043h-1.329v-0.567c0.924-0.065,1.305-0.154,1.531-1.085h0.559V71.478z"/>
		<path d="M78.712,71.478h-0.762v-4.043h-1.329v-0.567c0.924-0.065,1.305-0.154,1.531-1.085h0.559V71.478z"/>
		<path d="M85.711,71.478h-0.762v-4.043h-1.329v-0.567c0.924-0.065,1.305-0.154,1.531-1.085h0.559V71.478z"/>
		<path d="M92.053,71.632c-1.637,0-1.953-1.742-1.953-2.925s0.316-2.925,1.953-2.925s1.953,1.742,1.953,2.925
			S93.69,71.632,92.053,71.632z M92.053,66.422c-0.818,0-1.191,0.859-1.191,2.285c0,1.426,0.373,2.285,1.191,2.285
			s1.191-0.859,1.191-2.285C93.244,67.281,92.872,66.422,92.053,66.422z"/>
		<path d="M99.052,71.632c-1.637,0-1.953-1.742-1.953-2.925s0.316-2.925,1.953-2.925s1.953,1.742,1.953,2.925
			S100.688,71.632,99.052,71.632z M99.052,66.422c-0.818,0-1.191,0.859-1.191,2.285c0,1.426,0.373,2.285,1.191,2.285
			s1.191-0.859,1.191-2.285C100.243,67.281,99.87,66.422,99.052,66.422z"/>
		<path d="M106.05,71.632c-1.637,0-1.953-1.742-1.953-2.925s0.316-2.925,1.953-2.925s1.953,1.742,1.953,2.925
			S107.687,71.632,106.05,71.632z M106.05,66.422c-0.818,0-1.191,0.859-1.191,2.285c0,1.426,0.373,2.285,1.191,2.285
			s1.191-0.859,1.191-2.285C107.241,67.281,106.868,66.422,106.05,66.422z"/>
		<path d="M113.048,71.632c-1.637,0-1.953-1.742-1.953-2.925s0.316-2.925,1.953-2.925s1.953,1.742,1.953,2.925
			S114.685,71.632,113.048,71.632z M113.048,66.422c-0.818,0-1.191,0.859-1.191,2.285c0,1.426,0.373,2.285,1.191,2.285
			s1.191-0.859,1.191-2.285C114.239,67.281,113.867,66.422,113.048,66.422z"/>
		<path d="M120.703,71.478h-0.762v-4.043h-1.329v-0.567c0.924-0.065,1.305-0.154,1.531-1.085h0.559V71.478z"/>
		<path d="M127.702,71.478h-0.762v-4.043h-1.329v-0.567c0.924-0.065,1.305-0.154,1.531-1.085h0.559V71.478z"/>
		<path d="M134.7,71.478h-0.762v-4.043h-1.329v-0.567c0.924-0.065,1.305-0.154,1.531-1.085h0.559V71.478z"/>
		<path d="M141.698,71.478h-0.762v-4.043h-1.329v-0.567c0.924-0.065,1.305-0.154,1.531-1.085h0.559V71.478z"/>
		<path d="M148.041,71.632c-1.637,0-1.953-1.742-1.953-2.925s0.316-2.925,1.953-2.925s1.953,1.742,1.953,2.925
			S149.677,71.632,148.041,71.632z M148.041,66.422c-0.818,0-1.191,0.859-1.191,2.285c0,1.426,0.373,2.285,1.191,2.285
			s1.191-0.859,1.191-2.285C149.231,67.281,148.859,66.422,148.041,66.422z"/>
		<path d="M155.039,71.632c-1.637,0-1.953-1.742-1.953-2.925s0.316-2.925,1.953-2.925s1.953,1.742,1.953,2.925
			S156.675,71.632,155.039,71.632z M155.039,66.422c-0.818,0-1.191,0.859-1.191,2.285c0,1.426,0.373,2.285,1.191,2.285
			s1.191-0.859,1.191-2.285C156.229,67.281,155.857,66.422,155.039,66.422z"/>
		<path d="M162.037,71.632c-1.636,0-1.952-1.742-1.952-2.925s0.316-2.925,1.952-2.925c1.637,0,1.953,1.742,1.953,2.925
			S163.673,71.632,162.037,71.632z M162.037,66.422c-0.818,0-1.19,0.859-1.19,2.285c0,1.426,0.373,2.285,1.19,2.285
			c0.818,0,1.191-0.859,1.191-2.285C163.228,67.281,162.855,66.422,162.037,66.422z"/>
		<path d="M169.036,71.632c-1.637,0-1.953-1.742-1.953-2.925s0.316-2.925,1.953-2.925s1.952,1.742,1.952,2.925
			S170.672,71.632,169.036,71.632z M169.036,66.422c-0.818,0-1.191,0.859-1.191,2.285c0,1.426,0.373,2.285,1.191,2.285
			s1.19-0.859,1.19-2.285C170.226,67.281,169.854,66.422,169.036,66.422z"/>
	</g>
</g>
<g>
	<path d="M60.115,90.628v-5.029h0.616v1.828h0.014c0.266-0.385,0.63-0.561,1.058-0.567c0.974,0,1.527,0.798,1.527,1.828
		c0,0.875-0.364,2.045-1.611,2.045c-0.624,0-0.883-0.357-1.009-0.56h-0.014v0.455H60.115z M61.69,87.413
		c-0.889,0-0.987,0.959-0.987,1.555c0,0.973,0.609,1.232,1.001,1.232c0.672,0,0.987-0.609,0.987-1.415
		C62.692,88.317,62.643,87.413,61.69,87.413z"/>
	<path d="M64.07,86.3v-0.701h0.616V86.3H64.07z M64.686,90.628H64.07v-3.663h0.616V90.628z"/>
	<path d="M66.366,87.476v2.381c0,0.287,0.245,0.287,0.372,0.287h0.217v0.483c-0.224,0.021-0.399,0.049-0.462,0.049
		c-0.609,0-0.743-0.343-0.743-0.784v-2.417h-0.497v-0.511h0.497v-1.022h0.616v1.022h0.588v0.511H66.366z"/>
	<path d="M61.081,94.076c0.105,0.007,0.217,0.014,0.322,0.014c0.476,0,0.938-0.189,0.938-0.805c0-0.294-0.175-0.777-0.911-0.777
		c-0.875,0-0.932,0.714-0.959,1.057H59.87c0-0.721,0.294-1.611,1.59-1.611c0.952,0,1.52,0.546,1.52,1.296
		c0,0.63-0.364,0.932-0.63,1.016v0.014c0.477,0.154,0.819,0.491,0.819,1.149c0,0.805-0.518,1.583-1.772,1.583
		c-0.364,0-0.672-0.091-0.91-0.217c-0.546-0.287-0.693-0.854-0.735-1.422h0.637c0.021,0.462,0.133,1.085,1.051,1.085
		c0.63,0,1.071-0.385,1.071-0.952c0-0.827-0.729-0.904-1.148-0.904c-0.091,0-0.189,0.007-0.28,0.007V94.076z"/>
	<path d="M65.918,96.878H65.26v-3.495h-1.148v-0.49c0.798-0.056,1.127-0.133,1.324-0.938h0.483V96.878z"/>
</g>
<rect x="116.286" y="98.162" class="st0" width="56.511" height="17.5"/>
<rect x="60.025" y="98.183" class="st4" width="112.872" height="17.717"/>
<line class="st4" x1="158.565" y1="111.313" x2="158.565" y2="115.481"/>
<line class="st4" x1="158.565" y1="98.397" x2="158.565" y2="102.564"/>
<line class="st4" x1="165.649" y1="111.313" x2="165.649" y2="115.481"/>
<line class="st4" x1="165.649" y1="98.397" x2="165.649" y2="102.564"/>
<line class="st4" x1="144.494" y1="111.313" x2="144.494" y2="115.481"/>
<line class="st4" x1="144.494" y1="98.397" x2="144.494" y2="102.564"/>
<line class="st4" x1="151.582" y1="111.313" x2="151.582" y2="115.481"/>
<line class="st4" x1="151.582" y1="98.397" x2="151.582" y2="102.564"/>
<line class="st4" x1="130.427" y1="111.313" x2="130.427" y2="115.481"/>
<line class="st4" x1="130.427" y1="98.397" x2="130.427" y2="102.564"/>
<line class="st4" x1="137.512" y1="111.313" x2="137.512" y2="115.481"/>
<line class="st4" x1="137.512" y1="98.397" x2="137.512" y2="102.564"/>
<line class="st4" x1="116.339" y1="111.313" x2="116.339" y2="115.481"/>
<line class="st4" x1="116.339" y1="98.397" x2="116.339" y2="102.564"/>
<line class="st4" x1="123.44" y1="111.313" x2="123.44" y2="115.481"/>
<line class="st4" x1="123.44" y1="98.397" x2="123.44" y2="102.564"/>
<line class="st4" x1="102.257" y1="111.313" x2="102.257" y2="115.481"/>
<line class="st4" x1="102.257" y1="98.397" x2="102.257" y2="102.564"/>
<line class="st4" x1="109.345" y1="111.313" x2="109.345" y2="115.481"/>
<line class="st4" x1="109.345" y1="98.397" x2="109.345" y2="102.564"/>
<line class="st4" x1="88.188" y1="111.313" x2="88.188" y2="115.481"/>
<line class="st4" x1="88.188" y1="98.397" x2="88.188" y2="102.564"/>
<line class="st4" x1="95.275" y1="111.313" x2="95.275" y2="115.481"/>
<line class="st4" x1="95.275" y1="98.397" x2="95.275" y2="102.564"/>
<line class="st4" x1="74.12" y1="111.313" x2="74.12" y2="115.481"/>
<line class="st4" x1="74.12" y1="98.397" x2="74.12" y2="102.564"/>
<line class="st4" x1="81.205" y1="111.313" x2="81.205" y2="115.481"/>
<line class="st4" x1="81.205" y1="98.397" x2="81.205" y2="102.564"/>
<line class="st4" x1="67.138" y1="111.313" x2="67.138" y2="115.481"/>
<line class="st4" x1="67.138" y1="98.397" x2="67.138" y2="102.564"/>
<line class="st2" x1="59.706" y1="115.9" x2="172.685" y2="115.9"/>
<g>
	<g>
		<path d="M64.06,110.558c-1.637,0-1.953-1.742-1.953-2.925s0.316-2.925,1.953-2.925s1.953,1.742,1.953,2.925
			S65.696,110.558,64.06,110.558z M64.06,105.348c-0.818,0-1.191,0.859-1.191,2.285c0,1.426,0.373,2.285,1.191,2.285
			s1.191-0.859,1.191-2.285C65.25,106.207,64.878,105.348,64.06,105.348z"/>
		<path d="M71.058,110.558c-1.637,0-1.953-1.742-1.953-2.925s0.316-2.925,1.953-2.925s1.953,1.742,1.953,2.925
			S72.695,110.558,71.058,110.558z M71.058,105.348c-0.818,0-1.191,0.859-1.191,2.285c0,1.426,0.373,2.285,1.191,2.285
			s1.191-0.859,1.191-2.285C72.249,106.207,71.876,105.348,71.058,105.348z"/>
		<path d="M78.056,110.558c-1.637,0-1.953-1.742-1.953-2.925s0.316-2.925,1.953-2.925s1.953,1.742,1.953,2.925
			S79.693,110.558,78.056,110.558z M78.056,105.348c-0.818,0-1.191,0.859-1.191,2.285c0,1.426,0.373,2.285,1.191,2.285
			s1.191-0.859,1.191-2.285C79.247,106.207,78.875,105.348,78.056,105.348z"/>
		<path d="M85.055,110.558c-1.637,0-1.953-1.742-1.953-2.925s0.316-2.925,1.953-2.925s1.953,1.742,1.953,2.925
			S86.691,110.558,85.055,110.558z M85.055,105.348c-0.818,0-1.191,0.859-1.191,2.285c0,1.426,0.373,2.285,1.191,2.285
			s1.191-0.859,1.191-2.285C86.246,106.207,85.873,105.348,85.055,105.348z"/>
		<path d="M92.053,110.558c-1.637,0-1.953-1.742-1.953-2.925s0.316-2.925,1.953-2.925s1.953,1.742,1.953,2.925
			S93.69,110.558,92.053,110.558z M92.053,105.348c-0.818,0-1.191,0.859-1.191,2.285c0,1.426,0.373,2.285,1.191,2.285
			s1.191-0.859,1.191-2.285C93.244,106.207,92.872,105.348,92.053,105.348z"/>
		<path d="M99.052,110.558c-1.637,0-1.953-1.742-1.953-2.925s0.316-2.925,1.953-2.925s1.953,1.742,1.953,2.925
			S100.688,110.558,99.052,110.558z M99.052,105.348c-0.818,0-1.191,0.859-1.191,2.285c0,1.426,0.373,2.285,1.191,2.285
			s1.191-0.859,1.191-2.285C100.243,106.207,99.87,105.348,99.052,105.348z"/>
		<path d="M106.05,110.558c-1.637,0-1.953-1.742-1.953-2.925s0.316-2.925,1.953-2.925s1.953,1.742,1.953,2.925
			S107.687,110.558,106.05,110.558z M106.05,105.348c-0.818,0-1.191,0.859-1.191,2.285c0,1.426,0.373,2.285,1.191,2.285
			s1.191-0.859,1.191-2.285C107.241,106.207,106.868,105.348,106.05,105.348z"/>
		<path d="M113.048,110.558c-1.637,0-1.953-1.742-1.953-2.925s0.316-2.925,1.953-2.925s1.953,1.742,1.953,2.925
			S114.685,110.558,113.048,110.558z M113.048,105.348c-0.818,0-1.191,0.859-1.191,2.285c0,1.426,0.373,2.285,1.191,2.285
			s1.191-0.859,1.191-2.285C114.239,106.207,113.867,105.348,113.048,105.348z"/>
		<path d="M120.703,110.404h-0.762v-4.043h-1.329v-0.567c0.924-0.065,1.305-0.154,1.531-1.085h0.559V110.404z"/>
		<path d="M127.702,110.404h-0.762v-4.043h-1.329v-0.567c0.924-0.065,1.305-0.154,1.531-1.085h0.559V110.404z"/>
		<path d="M134.7,110.404h-0.762v-4.043h-1.329v-0.567c0.924-0.065,1.305-0.154,1.531-1.085h0.559V110.404z"/>
		<path d="M141.698,110.404h-0.762v-4.043h-1.329v-0.567c0.924-0.065,1.305-0.154,1.531-1.085h0.559V110.404z"/>
		<path d="M148.697,110.404h-0.762v-4.043h-1.329v-0.567c0.924-0.065,1.305-0.154,1.531-1.085h0.559V110.404z"/>
		<path d="M155.695,110.404h-0.762v-4.043h-1.329v-0.567c0.924-0.065,1.305-0.154,1.531-1.085h0.559V110.404z"/>
		<path d="M162.693,110.404h-0.761v-4.043h-1.329v-0.567c0.924-0.065,1.305-0.154,1.531-1.085h0.559V110.404z"/>
		<path d="M169.692,110.404h-0.762v-4.043h-1.329v-0.567c0.924-0.065,1.305-0.154,1.531-1.085h0.56V110.404z"/>
	</g>
</g>
<g>
	<g>
		<path d="M5.088,67.318c-0.04-0.887-0.776-1.167-1.423-1.167c-0.488,0-1.311,0.136-1.311,1.007c0,0.488,0.344,0.647,0.679,0.728
			l1.639,0.376c0.744,0.176,1.303,0.624,1.303,1.535c0,1.359-1.263,1.735-2.247,1.735c-1.063,0-1.479-0.32-1.735-0.552
			c-0.488-0.439-0.584-0.919-0.584-1.455h0.728c0,1.04,0.848,1.343,1.583,1.343c0.56,0,1.503-0.144,1.503-0.967
			c0-0.6-0.28-0.792-1.223-1.016l-1.175-0.272c-0.376-0.088-1.224-0.352-1.224-1.351c0-0.896,0.584-1.775,1.975-1.775
			c2.007,0,2.207,1.199,2.239,1.831H5.088z"/>
		<path d="M7.673,71.38H6.97v-4.182h0.664v0.696h0.016c0.28-0.488,0.647-0.816,1.175-0.816c0.088,0,0.128,0.008,0.184,0.024v0.728
			H8.745c-0.656,0-1.071,0.512-1.071,1.12V71.38z"/>
		<path d="M11.992,68.606c-0.088-0.56-0.4-0.896-0.992-0.896c-0.871,0-1.151,0.832-1.151,1.575c0,0.719,0.176,1.607,1.144,1.607
			c0.472,0,0.879-0.352,1-0.991h0.68c-0.072,0.664-0.48,1.599-1.703,1.599c-1.175,0-1.871-0.888-1.871-2.095
			c0-1.295,0.624-2.327,2.007-2.327c1.096,0,1.511,0.8,1.567,1.527H11.992z"/>
		<path d="M15.729,71.38h-0.752v-3.99h-1.311v-0.56c0.912-0.064,1.287-0.152,1.511-1.072h0.552V71.38z"/>
	</g>
	<g>
		<path d="M22.711,68.342c0,0.44-0.36,0.824-0.824,0.824c-0.463,0-0.823-0.375-0.823-0.824c0-0.463,0.376-0.823,0.823-0.823
			C22.344,67.519,22.711,67.895,22.711,68.342z"/>
	</g>
</g>
<g>
	<g>
		<path d="M5.088,106.244c-0.04-0.887-0.776-1.167-1.423-1.167c-0.488,0-1.311,0.136-1.311,1.007c0,0.488,0.344,0.647,0.679,0.728
			l1.639,0.376c0.744,0.176,1.303,0.624,1.303,1.535c0,1.359-1.263,1.735-2.247,1.735c-1.063,0-1.479-0.32-1.735-0.552
			c-0.488-0.439-0.584-0.919-0.584-1.455h0.728c0,1.04,0.848,1.343,1.583,1.343c0.56,0,1.503-0.144,1.503-0.967
			c0-0.6-0.28-0.792-1.223-1.016l-1.175-0.272c-0.376-0.088-1.224-0.352-1.224-1.351c0-0.896,0.584-1.775,1.975-1.775
			c2.007,0,2.207,1.199,2.239,1.831H5.088z"/>
		<path d="M7.673,110.306H6.97v-4.182h0.664v0.696h0.016c0.28-0.488,0.647-0.816,1.175-0.816c0.088,0,0.128,0.008,0.184,0.024v0.728
			H8.745c-0.656,0-1.071,0.512-1.071,1.12V110.306z"/>
		<path d="M11.992,107.532c-0.088-0.56-0.4-0.896-0.992-0.896c-0.871,0-1.151,0.832-1.151,1.575c0,0.719,0.176,1.607,1.144,1.607
			c0.472,0,0.879-0.352,1-0.991h0.68c-0.072,0.664-0.48,1.599-1.703,1.599c-1.175,0-1.871-0.888-1.871-2.095
			c0-1.295,0.624-2.327,2.007-2.327c1.096,0,1.511,0.8,1.567,1.527H11.992z"/>
		<path d="M13.209,106.7c0-1.831,1.335-2.015,1.943-2.015c0.975,0,1.759,0.632,1.759,1.679c0,1.007-0.664,1.431-1.503,1.879
			l-0.584,0.32c-0.768,0.424-0.936,0.864-0.967,1.08h3.054v0.664h-3.846c0.04-1.167,0.567-1.791,1.319-2.231l0.743-0.432
			c0.6-0.344,1.032-0.576,1.032-1.311c0-0.448-0.288-1.016-1.111-1.016c-1.063,0-1.111,0.992-1.135,1.383H13.209z"/>
	</g>
	<g>
		<path d="M22.711,107.268c0,0.44-0.36,0.824-0.824,0.824c-0.463,0-0.823-0.375-0.823-0.824c0-0.463,0.376-0.823,0.823-0.823
			C22.344,106.444,22.711,106.82,22.711,107.268z"/>
	</g>
</g>
<g>
	<g>
		<path d="M3.81,143.491h2.327c1.496,0,2.415,1.136,2.415,2.791c0,1.287-0.56,2.95-2.447,2.95H3.81V143.491z M4.585,148.568h1.503
			c1.008,0,1.663-0.791,1.663-2.238s-0.664-2.175-1.719-2.175H4.585V148.568z"/>
		<path d="M11.833,146.242c-0.008-0.264-0.104-0.704-0.992-0.704c-0.216,0-0.832,0.072-0.832,0.592c0,0.344,0.216,0.424,0.76,0.56
			l0.704,0.176c0.872,0.217,1.175,0.536,1.175,1.104c0,0.864-0.711,1.384-1.655,1.384c-1.655,0-1.775-0.96-1.799-1.464h0.68
			c0.024,0.328,0.12,0.856,1.111,0.856c0.504,0,0.959-0.2,0.959-0.664c0-0.336-0.232-0.448-0.832-0.6l-0.815-0.2
			c-0.584-0.144-0.968-0.439-0.968-1.016c0-0.919,0.76-1.335,1.583-1.335c1.495,0,1.599,1.104,1.599,1.312H11.833z"/>
		<path d="M14.321,145.635v2.718c0,0.328,0.28,0.328,0.424,0.328h0.248v0.552c-0.256,0.024-0.456,0.056-0.527,0.056
			c-0.696,0-0.848-0.392-0.848-0.896v-2.758H13.05v-0.584h0.568v-1.167h0.704v1.167h0.671v0.584H14.321z"/>
	</g>
	<g>
		<path d="M22.711,146.194c0,0.439-0.36,0.823-0.824,0.823c-0.463,0-0.823-0.376-0.823-0.823c0-0.464,0.376-0.824,0.823-0.824
			C22.344,145.37,22.711,145.746,22.711,146.194z"/>
	</g>
</g>
<g>
	<path d="M60.115,129.554v-5.029h0.616v1.828h0.014c0.266-0.385,0.63-0.56,1.058-0.566c0.974,0,1.527,0.798,1.527,1.827
		c0,0.876-0.364,2.046-1.611,2.046c-0.624,0-0.883-0.357-1.009-0.561h-0.014v0.455H60.115z M61.69,126.339
		c-0.889,0-0.987,0.96-0.987,1.555c0,0.974,0.609,1.233,1.001,1.233c0.672,0,0.987-0.609,0.987-1.415
		C62.692,127.242,62.643,126.339,61.69,126.339z"/>
	<path d="M64.07,125.226v-0.701h0.616v0.701H64.07z M64.686,129.554H64.07v-3.663h0.616V129.554z"/>
	<path d="M66.366,126.402v2.381c0,0.287,0.245,0.287,0.372,0.287h0.217v0.483c-0.224,0.021-0.399,0.049-0.462,0.049
		c-0.609,0-0.743-0.343-0.743-0.784v-2.416h-0.497v-0.512h0.497v-1.022h0.616v1.022h0.588v0.512H66.366z"/>
	<path d="M61.081,133.002c0.105,0.007,0.217,0.015,0.322,0.015c0.476,0,0.938-0.189,0.938-0.806c0-0.294-0.175-0.777-0.911-0.777
		c-0.875,0-0.932,0.714-0.959,1.058H59.87c0-0.722,0.294-1.611,1.59-1.611c0.952,0,1.52,0.547,1.52,1.296
		c0,0.63-0.364,0.932-0.63,1.016v0.014c0.477,0.154,0.819,0.49,0.819,1.148c0,0.806-0.518,1.583-1.772,1.583
		c-0.364,0-0.672-0.091-0.91-0.217c-0.546-0.287-0.693-0.854-0.735-1.422h0.637c0.021,0.462,0.133,1.086,1.051,1.086
		c0.63,0,1.071-0.386,1.071-0.953c0-0.826-0.729-0.903-1.148-0.903c-0.091,0-0.189,0.007-0.28,0.007V133.002z"/>
	<path d="M65.918,135.804H65.26v-3.495h-1.148v-0.49c0.798-0.056,1.127-0.133,1.324-0.938h0.483V135.804z"/>
</g>
<rect x="116.286" y="137.087" class="st0" width="56.51" height="17.5"/>
<rect x="60.014" y="137.087" class="st0" width="28.255" height="17.5"/>
<rect x="60.025" y="137.109" class="st4" width="112.872" height="17.716"/>
<line class="st4" x1="158.565" y1="150.239" x2="158.565" y2="154.407"/>
<line class="st4" x1="158.565" y1="137.322" x2="158.565" y2="141.489"/>
<line class="st4" x1="165.649" y1="150.239" x2="165.649" y2="154.407"/>
<line class="st4" x1="165.649" y1="137.322" x2="165.649" y2="141.489"/>
<line class="st4" x1="144.494" y1="150.239" x2="144.494" y2="154.407"/>
<line class="st4" x1="144.494" y1="137.322" x2="144.494" y2="141.489"/>
<line class="st4" x1="151.582" y1="150.239" x2="151.582" y2="154.407"/>
<line class="st4" x1="151.582" y1="137.322" x2="151.582" y2="141.489"/>
<line class="st4" x1="130.427" y1="150.239" x2="130.427" y2="154.407"/>
<line class="st4" x1="130.427" y1="137.322" x2="130.427" y2="141.489"/>
<line class="st4" x1="137.512" y1="150.239" x2="137.512" y2="154.407"/>
<line class="st4" x1="137.512" y1="137.322" x2="137.512" y2="141.489"/>
<line class="st4" x1="116.339" y1="150.239" x2="116.339" y2="154.407"/>
<line class="st4" x1="116.339" y1="137.322" x2="116.339" y2="141.489"/>
<line class="st4" x1="123.44" y1="150.239" x2="123.44" y2="154.407"/>
<line class="st4" x1="123.44" y1="137.322" x2="123.44" y2="141.489"/>
<line class="st4" x1="102.257" y1="150.239" x2="102.257" y2="154.407"/>
<line class="st4" x1="102.257" y1="137.322" x2="102.257" y2="141.489"/>
<line class="st4" x1="109.345" y1="150.239" x2="109.345" y2="154.407"/>
<line class="st4" x1="109.345" y1="137.322" x2="109.345" y2="141.489"/>
<line class="st4" x1="88.188" y1="150.239" x2="88.188" y2="154.407"/>
<line class="st4" x1="88.188" y1="137.322" x2="88.188" y2="141.489"/>
<line class="st4" x1="95.275" y1="150.239" x2="95.275" y2="154.407"/>
<line class="st4" x1="95.275" y1="137.322" x2="95.275" y2="141.489"/>
<line class="st4" x1="74.12" y1="150.239" x2="74.12" y2="154.407"/>
<line class="st4" x1="74.12" y1="137.322" x2="74.12" y2="141.489"/>
<line class="st4" x1="81.205" y1="150.239" x2="81.205" y2="154.407"/>
<line class="st4" x1="81.205" y1="137.322" x2="81.205" y2="141.489"/>
<line class="st4" x1="67.138" y1="150.239" x2="67.138" y2="154.407"/>
<line class="st4" x1="67.138" y1="137.322" x2="67.138" y2="141.489"/>
<line class="st2" x1="59.706" y1="154.825" x2="172.685" y2="154.825"/>
<g>
	<g>
		<path d="M64.716,149.33h-0.762v-4.043h-1.329v-0.567c0.924-0.064,1.305-0.154,1.531-1.086h0.559V149.33z"/>
		<path d="M71.714,149.33h-0.762v-4.043h-1.329v-0.567c0.924-0.064,1.305-0.154,1.531-1.086h0.559V149.33z"/>
		<path d="M78.712,149.33h-0.762v-4.043h-1.329v-0.567c0.924-0.064,1.305-0.154,1.531-1.086h0.559V149.33z"/>
		<path d="M85.711,149.33h-0.762v-4.043h-1.329v-0.567c0.924-0.064,1.305-0.154,1.531-1.086h0.559V149.33z"/>
		<path d="M92.053,149.484c-1.637,0-1.953-1.742-1.953-2.926c0-1.183,0.316-2.925,1.953-2.925s1.953,1.742,1.953,2.925
			C94.006,147.742,93.69,149.484,92.053,149.484z M92.053,144.274c-0.818,0-1.191,0.858-1.191,2.284
			c0,1.427,0.373,2.285,1.191,2.285s1.191-0.858,1.191-2.285C93.244,145.133,92.872,144.274,92.053,144.274z"/>
		<path d="M99.052,149.484c-1.637,0-1.953-1.742-1.953-2.926c0-1.183,0.316-2.925,1.953-2.925s1.953,1.742,1.953,2.925
			C101.004,147.742,100.688,149.484,99.052,149.484z M99.052,144.274c-0.818,0-1.191,0.858-1.191,2.284
			c0,1.427,0.373,2.285,1.191,2.285s1.191-0.858,1.191-2.285C100.243,145.133,99.87,144.274,99.052,144.274z"/>
		<path d="M106.05,149.484c-1.637,0-1.953-1.742-1.953-2.926c0-1.183,0.316-2.925,1.953-2.925s1.953,1.742,1.953,2.925
			C108.002,147.742,107.687,149.484,106.05,149.484z M106.05,144.274c-0.818,0-1.191,0.858-1.191,2.284
			c0,1.427,0.373,2.285,1.191,2.285s1.191-0.858,1.191-2.285C107.241,145.133,106.868,144.274,106.05,144.274z"/>
		<path d="M113.048,149.484c-1.637,0-1.953-1.742-1.953-2.926c0-1.183,0.316-2.925,1.953-2.925s1.953,1.742,1.953,2.925
			C115.001,147.742,114.685,149.484,113.048,149.484z M113.048,144.274c-0.818,0-1.191,0.858-1.191,2.284
			c0,1.427,0.373,2.285,1.191,2.285s1.191-0.858,1.191-2.285C114.239,145.133,113.867,144.274,113.048,144.274z"/>
		<path d="M120.703,149.33h-0.762v-4.043h-1.329v-0.567c0.924-0.064,1.305-0.154,1.531-1.086h0.559V149.33z"/>
		<path d="M127.702,149.33h-0.762v-4.043h-1.329v-0.567c0.924-0.064,1.305-0.154,1.531-1.086h0.559V149.33z"/>
		<path d="M134.7,149.33h-0.762v-4.043h-1.329v-0.567c0.924-0.064,1.305-0.154,1.531-1.086h0.559V149.33z"/>
		<path d="M141.698,149.33h-0.762v-4.043h-1.329v-0.567c0.924-0.064,1.305-0.154,1.531-1.086h0.559V149.33z"/>
		<path d="M148.697,149.33h-0.762v-4.043h-1.329v-0.567c0.924-0.064,1.305-0.154,1.531-1.086h0.559V149.33z"/>
		<path d="M155.695,149.33h-0.762v-4.043h-1.329v-0.567c0.924-0.064,1.305-0.154,1.531-1.086h0.559V149.33z"/>
		<path d="M162.693,149.33h-0.761v-4.043h-1.329v-0.567c0.924-0.064,1.305-0.154,1.531-1.086h0.559V149.33z"/>
		<path d="M169.692,149.33h-0.762v-4.043h-1.329v-0.567c0.924-0.064,1.305-0.154,1.531-1.086h0.56V149.33z"/>
	</g>
</g>
</svg>
