<?xml version="1.0" encoding="utf-8"?>
<!-- Generator: Adobe Illustrator 28.2.0, SVG Export Plug-In . SVG Version: 6.00 Build 0)  -->
<svg version="1.1" id="儗僀儎乕_1" xmlns="http://www.w3.org/2000/svg" xmlns:xlink="http://www.w3.org/1999/xlink" x="0px"
	 y="0px" width="377.104px" height="150.18px" viewBox="0 0 377.104 150.18" style="enable-background:new 0 0 377.104 150.18;"
	 xml:space="preserve">
<style type="text/css">
	.st0{fill:#DCDDDD;}
	.st1{fill:none;stroke:#9FA0A0;stroke-dasharray:1;}
	.st2{fill:none;stroke:#000000;stroke-width:0.5;}
	.st3{fill:none;stroke:#000000;stroke-width:0.3;}
	.st4{fill:none;stroke:#000000;}
	.st5{fill:#9FA0A0;stroke:#9FA0A0;stroke-width:1.5307;}
	.st6{fill:#9FA0A0;}
</style>
<g>
	<path d="M57.045,6.16V1.131h0.616v1.828h0.014c0.266-0.385,0.63-0.561,1.058-0.567c0.974,0,1.527,0.798,1.527,1.828
		c0,0.875-0.364,2.045-1.611,2.045c-0.624,0-0.883-0.357-1.009-0.56h-0.014V6.16H57.045z M58.621,2.945
		c-0.889,0-0.987,0.959-0.987,1.555c0,0.973,0.609,1.232,1.001,1.232c0.672,0,0.987-0.609,0.987-1.415
		C59.622,3.849,59.573,2.945,58.621,2.945z"/>
	<path d="M61,1.832V1.131h0.616v0.701H61z M61.616,6.16H61V2.497h0.616V6.16z"/>
	<path d="M63.296,3.008V5.39c0,0.287,0.246,0.287,0.372,0.287h0.217V6.16c-0.224,0.021-0.399,0.049-0.462,0.049
		c-0.609,0-0.743-0.343-0.743-0.784V3.008h-0.497V2.497h0.497V1.475h0.616v1.022h0.588v0.511H63.296z"/>
	<path d="M70.183,6.557l-0.355,0.41C69.372,6.516,69.014,6,68.754,5.422c-0.255-0.574-0.383-1.171-0.383-1.791
		s0.13-1.221,0.39-1.805c0.255-0.57,0.611-1.08,1.066-1.531l0.355,0.41c-0.392,0.387-0.697,0.836-0.916,1.347
		c-0.223,0.51-0.335,1.037-0.335,1.579S69.044,4.7,69.267,5.21C69.486,5.72,69.791,6.169,70.183,6.557z"/>
	<path d="M72.6,3.359c0.105,0.007,0.217,0.014,0.322,0.014c0.476,0,0.938-0.189,0.938-0.805c0-0.294-0.175-0.778-0.911-0.778
		c-0.875,0-0.932,0.715-0.959,1.058h-0.602c0-0.721,0.294-1.611,1.59-1.611c0.952,0,1.52,0.546,1.52,1.296
		c0,0.63-0.364,0.932-0.63,1.016v0.014c0.477,0.154,0.819,0.491,0.819,1.149c0,0.805-0.518,1.583-1.772,1.583
		c-0.364,0-0.672-0.091-0.91-0.217c-0.546-0.287-0.693-0.854-0.735-1.422h0.637c0.021,0.462,0.133,1.085,1.051,1.085
		c0.63,0,1.071-0.385,1.071-0.952c0-0.827-0.729-0.904-1.148-0.904c-0.091,0-0.189,0.007-0.28,0.007V3.359z"/>
	<path d="M75.23,3.001c0-1.604,1.17-1.765,1.702-1.765c0.854,0,1.541,0.553,1.541,1.471c0,0.882-0.581,1.253-1.316,1.646
		l-0.511,0.28c-0.672,0.371-0.82,0.756-0.848,0.945h2.675V6.16h-3.369c0.035-1.022,0.497-1.569,1.156-1.954l0.651-0.378
		c0.525-0.301,0.903-0.504,0.903-1.149c0-0.392-0.252-0.89-0.974-0.89c-0.932,0-0.974,0.869-0.995,1.212H75.23z"/>
	<path d="M84.734,3.822h-4.84V3.316h4.84V3.822z"/>
	<path d="M105.988,3.631c0,0.62-0.127,1.217-0.383,1.791c-0.26,0.579-0.618,1.094-1.073,1.545l-0.355-0.41
		c0.392-0.387,0.697-0.836,0.916-1.347c0.223-0.51,0.335-1.037,0.335-1.579s-0.112-1.069-0.335-1.579
		c-0.219-0.51-0.524-0.959-0.916-1.347l0.355-0.41c0.456,0.451,0.811,0.961,1.066,1.531C105.858,2.41,105.988,3.011,105.988,3.631z"
		/>
</g>
<g>
	<path d="M280.868,98.084c0.287,0.036,0.569,0.055,0.848,0.055h4.601c0.278,0,0.561-0.019,0.848-0.055
		c-0.019,0.096-0.027,0.195-0.027,0.301c0,0.096,0.009,0.196,0.027,0.301c-0.287-0.036-0.569-0.055-0.848-0.055h-2.249v4.532
		c0,0.296,0.019,0.588,0.055,0.875c-0.104-0.019-0.214-0.027-0.328-0.027c-0.104,0-0.214,0.009-0.328,0.027
		c0.036-0.287,0.055-0.579,0.055-0.875v-4.532h-1.805c-0.278,0-0.561,0.019-0.848,0.055c0.019-0.104,0.027-0.205,0.027-0.301
		C280.895,98.279,280.887,98.18,280.868,98.084z M284.812,99.752c0.506,0.515,1.181,1.107,2.023,1.777
		c-0.173,0.109-0.33,0.271-0.472,0.485c-0.183-0.251-0.46-0.561-0.834-0.93c-0.396-0.378-0.766-0.679-1.107-0.902
		C284.573,100.068,284.703,99.925,284.812,99.752z"/>
	<path d="M289.372,97.455c0.205,0.132,0.426,0.223,0.663,0.273c-0.128,0.114-0.267,0.353-0.417,0.718
		c-0.082,0.242-0.183,0.48-0.301,0.718v3.944c0,0.306,0.019,0.606,0.055,0.902c-0.096-0.019-0.196-0.027-0.301-0.027
		c-0.087,0-0.178,0.009-0.273,0.027c0.041-0.296,0.062-0.597,0.062-0.902v-3.11c-0.224,0.351-0.472,0.697-0.745,1.039
		c-0.077-0.214-0.178-0.39-0.301-0.526c0.419-0.429,0.752-0.887,0.998-1.374C289.062,98.658,289.249,98.098,289.372,97.455z
		 M292.571,99.663c0.278,0.155,0.518,0.255,0.718,0.301c-0.269,0.533-0.576,1.538-0.923,3.015h0.923
		c0.296,0,0.597-0.021,0.902-0.062c-0.019,0.114-0.027,0.226-0.027,0.335c0,0.096,0.009,0.196,0.027,0.301
		c-0.306-0.041-0.606-0.062-0.902-0.062h-2.769c-0.296,0-0.597,0.021-0.902,0.062c0.019-0.104,0.027-0.205,0.027-0.301
		c0-0.109-0.009-0.221-0.027-0.335c0.306,0.041,0.606,0.062,0.902,0.062h1.415C292.231,101.798,292.443,100.693,292.571,99.663z
		 M289.919,98.788c0.306,0.037,0.606,0.055,0.902,0.055h2.222c0.296,0,0.595-0.018,0.896-0.055
		c-0.014,0.113-0.021,0.223-0.021,0.328s0.007,0.205,0.021,0.301c-0.301-0.036-0.6-0.055-0.896-0.055h-2.222
		c-0.296,0-0.597,0.019-0.902,0.055c0.019-0.096,0.027-0.195,0.027-0.301S289.937,98.901,289.919,98.788z M290.767,99.889
		l0.745,2.427c-0.21,0.022-0.401,0.062-0.574,0.116c-0.178-1.003-0.398-1.816-0.663-2.44
		C290.425,99.986,290.589,99.952,290.767,99.889z M291.724,97.455c0.137,0.314,0.319,0.64,0.547,0.978
		c-0.164,0.041-0.316,0.125-0.458,0.253c-0.159-0.388-0.342-0.728-0.547-1.019C291.452,97.621,291.605,97.55,291.724,97.455z"/>
	<path d="M316.71,103.279V98.25h0.616v1.828h0.014c0.267-0.385,0.631-0.56,1.058-0.566c0.974,0,1.527,0.798,1.527,1.827
		c0,0.876-0.364,2.046-1.611,2.046c-0.623,0-0.882-0.357-1.008-0.561h-0.015v0.455H316.71z M318.286,100.064
		c-0.89,0-0.988,0.96-0.988,1.555c0,0.974,0.609,1.233,1.002,1.233c0.672,0,0.987-0.609,0.987-1.415
		C319.287,100.968,319.238,100.064,318.286,100.064z"/>
	<path d="M320.665,98.951V98.25h0.616v0.701H320.665z M321.281,103.279h-0.616v-3.663h0.616V103.279z"/>
	<path d="M322.961,100.128v2.381c0,0.287,0.245,0.287,0.371,0.287h0.217v0.483c-0.224,0.021-0.399,0.049-0.462,0.049
		c-0.609,0-0.742-0.343-0.742-0.784v-2.416h-0.498v-0.512h0.498v-1.022h0.616v1.022h0.588v0.512H322.961z"/>
</g>
<rect x="0.433" y="71.903" class="st0" width="283.188" height="17.715"/>
<rect x="0.5" y="72.001" class="st1" width="44.15" height="17.717"/>
<line class="st1" x1="9.575" y1="89.763" x2="9.575" y2="72.047"/>
<line class="st1" x1="18.434" y1="89.763" x2="18.434" y2="72.047"/>
<line class="st1" x1="27.292" y1="89.763" x2="27.292" y2="72.047"/>
<line class="st1" x1="36.149" y1="89.763" x2="36.149" y2="72.047"/>
<polyline class="st2" points="327.943,71.724 327.943,89.618 186.032,89.618 "/>
<line class="st2" x1="186.209" y1="71.903" x2="327.943" y2="71.903"/>
<line class="st3" x1="195.067" y1="89.618" x2="195.067" y2="72.003"/>
<line class="st3" x1="203.925" y1="89.618" x2="203.925" y2="72.003"/>
<line class="st3" x1="212.783" y1="89.618" x2="212.783" y2="72.003"/>
<line class="st3" x1="221.641" y1="89.618" x2="221.641" y2="72.003"/>
<line class="st3" x1="230.499" y1="89.618" x2="230.499" y2="72.003"/>
<line class="st3" x1="239.357" y1="89.618" x2="239.357" y2="72.003"/>
<line class="st3" x1="248.215" y1="89.618" x2="248.215" y2="71.997"/>
<line class="st3" x1="257.073" y1="89.618" x2="257.073" y2="71.885"/>
<line class="st3" x1="265.93" y1="89.618" x2="265.93" y2="71.885"/>
<line class="st3" x1="274.788" y1="89.618" x2="274.788" y2="71.885"/>
<line class="st3" x1="283.648" y1="89.618" x2="283.648" y2="71.885"/>
<line class="st3" x1="292.506" y1="89.618" x2="292.506" y2="71.885"/>
<line class="st3" x1="301.363" y1="89.618" x2="301.363" y2="71.885"/>
<line class="st3" x1="310.22" y1="89.618" x2="310.22" y2="71.885"/>
<line class="st3" x1="319.08" y1="89.618" x2="319.08" y2="71.885"/>
<line class="st2" x1="186.21" y1="89.618" x2="44.3" y2="89.618"/>
<polyline class="st2" points="44.476,89.618 44.476,71.903 186.21,71.903 "/>
<line class="st3" x1="53.334" y1="89.618" x2="53.334" y2="72.003"/>
<line class="st3" x1="62.192" y1="89.618" x2="62.192" y2="72.003"/>
<line class="st3" x1="71.05" y1="89.618" x2="71.05" y2="72.003"/>
<line class="st3" x1="79.908" y1="89.618" x2="79.908" y2="72.003"/>
<line class="st3" x1="88.767" y1="89.618" x2="88.767" y2="72.003"/>
<line class="st3" x1="97.625" y1="89.618" x2="97.625" y2="72.003"/>
<line class="st3" x1="106.483" y1="89.618" x2="106.483" y2="72.003"/>
<line class="st3" x1="115.341" y1="89.618" x2="115.341" y2="72.003"/>
<line class="st3" x1="124.198" y1="89.618" x2="124.198" y2="72.003"/>
<line class="st3" x1="133.057" y1="89.618" x2="133.057" y2="72.003"/>
<line class="st3" x1="141.915" y1="89.618" x2="141.915" y2="72.003"/>
<line class="st3" x1="150.773" y1="89.618" x2="150.773" y2="72.003"/>
<line class="st3" x1="159.63" y1="89.618" x2="159.63" y2="72.003"/>
<line class="st3" x1="168.489" y1="89.618" x2="168.489" y2="72.003"/>
<line class="st3" x1="177.347" y1="89.618" x2="177.347" y2="72.003"/>
<path d="M81.6,12.566h5.916l-2.971,5.072L81.6,12.566z"/>
<line class="st2" x1="84.525" y1="8.796" x2="84.525" y2="13.796"/>
<g>
	<path d="M319.335,9.841V4.812h0.616v1.828h0.014c0.267-0.385,0.631-0.561,1.058-0.567c0.974,0,1.527,0.798,1.527,1.828
		c0,0.875-0.364,2.045-1.611,2.045c-0.623,0-0.882-0.357-1.008-0.56h-0.015v0.455H319.335z M320.911,6.626
		c-0.89,0-0.988,0.959-0.988,1.555c0,0.973,0.609,1.232,1.002,1.232c0.672,0,0.987-0.609,0.987-1.415
		C321.912,7.53,321.863,6.626,320.911,6.626z"/>
	<path d="M323.29,5.513V4.812h0.616v0.701H323.29z M323.906,9.841h-0.616V6.178h0.616V9.841z"/>
	<path d="M325.587,6.689v2.381c0,0.287,0.245,0.287,0.371,0.287h0.217v0.483c-0.224,0.021-0.399,0.049-0.462,0.049
		c-0.609,0-0.742-0.343-0.742-0.784V6.689h-0.498V6.178h0.498V5.156h0.616v1.022h0.588v0.511H325.587z"/>
	<path d="M322.626,16.975c-1.415,0-1.688-1.506-1.688-2.529c0-1.022,0.273-2.528,1.688-2.528c1.414,0,1.688,1.506,1.688,2.528
		C324.313,15.469,324.04,16.975,322.626,16.975z M322.626,12.471c-0.708,0-1.029,0.742-1.029,1.975c0,1.233,0.321,1.975,1.029,1.975
		c0.707,0,1.029-0.742,1.029-1.975C323.655,13.213,323.333,12.471,322.626,12.471z"/>
</g>
<g>
	<path d="M45.048,9.841V4.812h0.616v1.828h0.014c0.266-0.385,0.63-0.561,1.058-0.567c0.974,0,1.527,0.798,1.527,1.828
		c0,0.875-0.364,2.045-1.611,2.045c-0.624,0-0.883-0.357-1.009-0.56h-0.014v0.455H45.048z M46.624,6.626
		c-0.889,0-0.987,0.959-0.987,1.555c0,0.973,0.609,1.232,1.001,1.232c0.672,0,0.987-0.609,0.987-1.415
		C47.625,7.53,47.577,6.626,46.624,6.626z"/>
	<path d="M49.003,5.513V4.812h0.616v0.701H49.003z M49.62,9.841h-0.616V6.178h0.616V9.841z"/>
	<path d="M51.299,6.689v2.381c0,0.287,0.246,0.287,0.372,0.287h0.217v0.483c-0.224,0.021-0.399,0.049-0.462,0.049
		c-0.609,0-0.743-0.343-0.743-0.784V6.689h-0.497V6.178h0.497V5.156h0.616v1.022h0.588v0.511H51.299z"/>
	<path d="M46.015,14.04c0.105,0.007,0.217,0.014,0.322,0.014c0.476,0,0.938-0.189,0.938-0.805c0-0.294-0.175-0.777-0.911-0.777
		c-0.875,0-0.932,0.714-0.959,1.057h-0.602c0-0.721,0.294-1.611,1.59-1.611c0.952,0,1.52,0.546,1.52,1.296
		c0,0.63-0.364,0.932-0.63,1.016v0.014c0.477,0.154,0.819,0.491,0.819,1.149c0,0.805-0.518,1.583-1.772,1.583
		c-0.364,0-0.672-0.091-0.91-0.217c-0.546-0.287-0.693-0.854-0.735-1.422h0.637c0.021,0.462,0.133,1.085,1.051,1.085
		c0.63,0,1.071-0.385,1.071-0.952c0-0.827-0.729-0.904-1.148-0.904c-0.091,0-0.189,0.007-0.28,0.007V14.04z"/>
	<path d="M50.852,16.841h-0.658v-3.495h-1.148v-0.49c0.798-0.056,1.127-0.133,1.324-0.938h0.483V16.841z"/>
</g>
<g>
	<path d="M261.508,84.709c-1.818,0-2.17-1.936-2.17-3.25c0-1.314,0.352-3.25,2.17-3.25s2.17,1.936,2.17,3.25
		C263.678,82.774,263.326,84.709,261.508,84.709z M261.508,78.921c-0.909,0-1.323,0.954-1.323,2.539s0.414,2.539,1.323,2.539
		s1.323-0.955,1.323-2.539S262.417,78.921,261.508,78.921z"/>
</g>
<g>
	<path d="M270.31,84.709c-1.818,0-2.17-1.936-2.17-3.25c0-1.314,0.352-3.25,2.17-3.25s2.17,1.936,2.17,3.25
		C272.479,82.774,272.128,84.709,270.31,84.709z M270.31,78.921c-0.909,0-1.323,0.954-1.323,2.539s0.414,2.539,1.323,2.539
		s1.323-0.955,1.323-2.539S271.219,78.921,270.31,78.921z"/>
</g>
<g>
	<path d="M279.84,84.539h-0.847v-4.492h-1.477v-0.63c1.026-0.072,1.449-0.171,1.701-1.207h0.622V84.539z"/>
</g>
<g>
	<path d="M287.912,84.709c-1.818,0-2.17-1.936-2.17-3.25c0-1.314,0.352-3.25,2.17-3.25s2.17,1.936,2.17,3.25
		C290.082,82.774,289.73,84.709,287.912,84.709z M287.912,78.921c-0.909,0-1.323,0.954-1.323,2.539s0.414,2.539,1.323,2.539
		s1.323-0.955,1.323-2.539S288.821,78.921,287.912,78.921z"/>
</g>
<g>
	<path d="M296.713,84.709c-1.818,0-2.17-1.936-2.17-3.25c0-1.314,0.352-3.25,2.17-3.25s2.17,1.936,2.17,3.25
		C298.883,82.774,298.531,84.709,296.713,84.709z M296.713,78.921c-0.909,0-1.323,0.954-1.323,2.539s0.414,2.539,1.323,2.539
		s1.323-0.955,1.323-2.539S297.622,78.921,296.713,78.921z"/>
</g>
<g>
	<path d="M305.517,84.709c-1.818,0-2.17-1.936-2.17-3.25c0-1.314,0.352-3.25,2.17-3.25s2.17,1.936,2.17,3.25
		C307.686,82.774,307.335,84.709,305.517,84.709z M305.517,78.921c-0.909,0-1.323,0.954-1.323,2.539s0.414,2.539,1.323,2.539
		s1.323-0.955,1.323-2.539S306.426,78.921,305.517,78.921z"/>
</g>
<g>
	<path d="M314.318,84.709c-1.818,0-2.17-1.936-2.17-3.25c0-1.314,0.352-3.25,2.17-3.25s2.17,1.936,2.17,3.25
		C316.488,82.774,316.137,84.709,314.318,84.709z M314.318,78.921c-0.909,0-1.323,0.954-1.323,2.539s0.414,2.539,1.323,2.539
		s1.323-0.955,1.323-2.539S315.228,78.921,314.318,78.921z"/>
</g>
<g>
	<path d="M323.397,84.709c-1.818,0-2.17-1.936-2.17-3.25c0-1.314,0.352-3.25,2.17-3.25s2.17,1.936,2.17,3.25
		C325.567,82.774,325.216,84.709,323.397,84.709z M323.397,78.921c-0.909,0-1.323,0.954-1.323,2.539s0.414,2.539,1.323,2.539
		s1.323-0.955,1.323-2.539S324.307,78.921,323.397,78.921z"/>
</g>
<g>
	<path d="M6.665,84.539H5.818v-4.492H4.342v-0.63c1.026-0.072,1.45-0.171,1.702-1.207h0.621V84.539z"/>
</g>
<g>
	<path d="M15.466,84.539H14.62v-4.492h-1.477v-0.63c1.026-0.072,1.45-0.171,1.702-1.207h0.621V84.539z"/>
</g>
<g>
	<path d="M23.642,84.539h-0.846v-4.492h-1.477v-0.63c1.026-0.072,1.45-0.171,1.702-1.207h0.621V84.539z"/>
</g>
<g>
	<path d="M31.714,84.709c-1.819,0-2.17-1.936-2.17-3.25c0-1.314,0.351-3.25,2.17-3.25c1.818,0,2.169,1.936,2.169,3.25
		C33.884,82.774,33.533,84.709,31.714,84.709z M31.714,78.921c-0.91,0-1.324,0.954-1.324,2.539s0.414,2.539,1.324,2.539
		c0.909,0,1.323-0.955,1.323-2.539S32.624,78.921,31.714,78.921z"/>
</g>
<g>
	<path d="M41.872,84.539h-0.846v-4.492h-1.477v-0.63c1.026-0.072,1.45-0.171,1.702-1.207h0.621V84.539z"/>
</g>
<g>
	<path d="M235.104,84.709c-1.819,0-2.17-1.936-2.17-3.25c0-1.314,0.351-3.25,2.17-3.25c1.818,0,2.169,1.936,2.169,3.25
		C237.273,82.774,236.922,84.709,235.104,84.709z M235.104,78.921c-0.91,0-1.324,0.954-1.324,2.539s0.414,2.539,1.324,2.539
		c0.909,0,1.323-0.955,1.323-2.539S236.013,78.921,235.104,78.921z"/>
</g>
<g>
	<path d="M244.634,84.539h-0.846v-4.492h-1.477v-0.63c1.026-0.072,1.45-0.171,1.702-1.207h0.621V84.539z"/>
</g>
<g>
	<path d="M253.436,84.539h-0.846v-4.492h-1.477v-0.63c1.026-0.072,1.45-0.171,1.702-1.207h0.621V84.539z"/>
</g>
<g>
	<path d="M118.928,84.709c-1.819,0-2.17-1.936-2.17-3.25c0-1.314,0.351-3.25,2.17-3.25c1.818,0,2.169,1.936,2.169,3.25
		C121.098,82.774,120.747,84.709,118.928,84.709z M118.928,78.921c-0.91,0-1.324,0.954-1.324,2.539s0.414,2.539,1.324,2.539
		c0.909,0,1.323-0.955,1.323-2.539S119.837,78.921,118.928,78.921z"/>
</g>
<g>
	<path d="M127.729,84.709c-1.819,0-2.17-1.936-2.17-3.25c0-1.314,0.351-3.25,2.17-3.25c1.818,0,2.169,1.936,2.169,3.25
		C129.899,82.774,129.548,84.709,127.729,84.709z M127.729,78.921c-0.91,0-1.324,0.954-1.324,2.539s0.414,2.539,1.324,2.539
		c0.909,0,1.323-0.955,1.323-2.539S128.639,78.921,127.729,78.921z"/>
</g>
<g>
	<path d="M137.26,84.539h-0.846v-4.492h-1.477v-0.63c1.026-0.072,1.45-0.171,1.702-1.207h0.621V84.539z"/>
</g>
<g>
	<path d="M147.311,84.539h-0.846v-4.492h-1.477v-0.63c1.026-0.072,1.45-0.171,1.702-1.207h0.621V84.539z"/>
</g>
<g>
	<path d="M156.113,84.539h-0.846v-4.492h-1.477v-0.63c1.026-0.072,1.45-0.171,1.702-1.207h0.621V84.539z"/>
</g>
<g>
	<path d="M164.915,84.539h-0.846v-4.492h-1.477v-0.63c1.026-0.072,1.45-0.171,1.702-1.207h0.621V84.539z"/>
</g>
<g>
	<path d="M172.987,84.709c-1.819,0-2.17-1.936-2.17-3.25c0-1.314,0.351-3.25,2.17-3.25c1.818,0,2.169,1.936,2.169,3.25
		C175.156,82.774,174.805,84.709,172.987,84.709z M172.987,78.921c-0.91,0-1.324,0.954-1.324,2.539s0.414,2.539,1.324,2.539
		c0.909,0,1.323-0.955,1.323-2.539S173.896,78.921,172.987,78.921z"/>
</g>
<g>
	<path d="M182.517,84.539h-0.846v-4.492h-1.477v-0.63c1.026-0.072,1.45-0.171,1.702-1.207h0.621V84.539z"/>
</g>
<g>
	<path d="M190.666,84.709c-1.819,0-2.17-1.936-2.17-3.25c0-1.314,0.351-3.25,2.17-3.25c1.818,0,2.169,1.936,2.169,3.25
		C192.835,82.774,192.484,84.709,190.666,84.709z M190.666,78.921c-0.91,0-1.324,0.954-1.324,2.539s0.414,2.539,1.324,2.539
		c0.909,0,1.323-0.955,1.323-2.539S191.575,78.921,190.666,78.921z"/>
</g>
<g>
	<path d="M199.468,84.709c-1.819,0-2.17-1.936-2.17-3.25c0-1.314,0.351-3.25,2.17-3.25c1.818,0,2.169,1.936,2.169,3.25
		C201.638,82.774,201.287,84.709,199.468,84.709z M199.468,78.921c-0.91,0-1.324,0.954-1.324,2.539s0.414,2.539,1.324,2.539
		c0.909,0,1.323-0.955,1.323-2.539S200.377,78.921,199.468,78.921z"/>
</g>
<g>
	<path d="M207.816,84.709c-1.819,0-2.17-1.936-2.17-3.25c0-1.314,0.351-3.25,2.17-3.25c1.818,0,2.169,1.936,2.169,3.25
		C209.985,82.774,209.634,84.709,207.816,84.709z M207.816,78.921c-0.91,0-1.324,0.954-1.324,2.539s0.414,2.539,1.324,2.539
		c0.909,0,1.323-0.955,1.323-2.539S208.725,78.921,207.816,78.921z"/>
</g>
<g>
	<path d="M216.617,84.709c-1.819,0-2.17-1.936-2.17-3.25c0-1.314,0.351-3.25,2.17-3.25c1.818,0,2.169,1.936,2.169,3.25
		C218.787,82.774,218.436,84.709,216.617,84.709z M216.617,78.921c-0.91,0-1.324,0.954-1.324,2.539s0.414,2.539,1.324,2.539
		c0.909,0,1.323-0.955,1.323-2.539S217.526,78.921,216.617,78.921z"/>
</g>
<g>
	<path d="M227.123,84.709c-1.819,0-2.17-1.936-2.17-3.25c0-1.314,0.351-3.25,2.17-3.25c1.818,0,2.169,1.936,2.169,3.25
		C229.292,82.774,228.941,84.709,227.123,84.709z M227.123,78.921c-0.91,0-1.324,0.954-1.324,2.539s0.414,2.539,1.324,2.539
		c0.909,0,1.323-0.955,1.323-2.539S228.032,78.921,227.123,78.921z"/>
</g>
<g>
	<path d="M92.523,84.709c-1.819,0-2.17-1.936-2.17-3.25c0-1.314,0.351-3.25,2.17-3.25c1.818,0,2.169,1.936,2.169,3.25
		C94.693,82.774,94.342,84.709,92.523,84.709z M92.523,78.921c-0.91,0-1.324,0.954-1.324,2.539s0.414,2.539,1.324,2.539
		c0.909,0,1.323-0.955,1.323-2.539S93.433,78.921,92.523,78.921z"/>
</g>
<g>
	<path d="M102.055,84.539h-0.846v-4.492h-1.477v-0.63c1.026-0.072,1.45-0.171,1.702-1.207h0.621V84.539z"/>
</g>
<g>
	<path d="M110.856,84.539h-0.846v-4.492h-1.477v-0.63c1.026-0.072,1.45-0.171,1.702-1.207h0.621V84.539z"/>
</g>
<g>
	<path d="M75.52,84.709c-1.819,0-2.17-1.936-2.17-3.25c0-1.314,0.351-3.25,2.17-3.25c1.818,0,2.169,1.936,2.169,3.25
		C77.689,82.774,77.338,84.709,75.52,84.709z M75.52,78.921c-0.91,0-1.324,0.954-1.324,2.539s0.414,2.539,1.324,2.539
		c0.909,0,1.323-0.955,1.323-2.539S76.429,78.921,75.52,78.921z"/>
</g>
<g>
	<path d="M84.321,84.709c-1.819,0-2.17-1.936-2.17-3.25c0-1.314,0.351-3.25,2.17-3.25c1.818,0,2.169,1.936,2.169,3.25
		C86.491,82.774,86.14,84.709,84.321,84.709z M84.321,78.921c-0.91,0-1.324,0.954-1.324,2.539s0.414,2.539,1.324,2.539
		c0.909,0,1.323-0.955,1.323-2.539S85.23,78.921,84.321,78.921z"/>
</g>
<g>
	<path d="M49.115,84.709c-1.819,0-2.17-1.936-2.17-3.25c0-1.314,0.351-3.25,2.17-3.25c1.818,0,2.169,1.936,2.169,3.25
		C51.285,82.774,50.934,84.709,49.115,84.709z M49.115,78.921c-0.91,0-1.324,0.954-1.324,2.539s0.414,2.539,1.324,2.539
		c0.909,0,1.323-0.955,1.323-2.539S50.024,78.921,49.115,78.921z"/>
</g>
<g>
	<path d="M57.917,84.709c-1.819,0-2.17-1.936-2.17-3.25c0-1.314,0.351-3.25,2.17-3.25c1.818,0,2.169,1.936,2.169,3.25
		C60.087,82.774,59.736,84.709,57.917,84.709z M57.917,78.921c-0.91,0-1.324,0.954-1.324,2.539s0.414,2.539,1.324,2.539
		c0.909,0,1.323-0.955,1.323-2.539S58.827,78.921,57.917,78.921z"/>
</g>
<g>
	<path d="M66.719,84.709c-1.819,0-2.17-1.936-2.17-3.25c0-1.314,0.351-3.25,2.17-3.25c1.818,0,2.169,1.936,2.169,3.25
		C68.888,82.774,68.537,84.709,66.719,84.709z M66.719,78.921c-0.91,0-1.324,0.954-1.324,2.539s0.414,2.539,1.324,2.539
		c0.909,0,1.323-0.955,1.323-2.539S67.628,78.921,66.719,78.921z"/>
</g>
<rect x="44.744" y="18.778" class="st0" width="283.189" height="17.715"/>
<polyline class="st2" points="327.943,18.599 327.943,36.493 186.032,36.493 "/>
<line class="st2" x1="186.209" y1="18.778" x2="327.943" y2="18.778"/>
<line class="st3" x1="195.067" y1="36.493" x2="195.067" y2="18.878"/>
<line class="st3" x1="203.925" y1="36.493" x2="203.925" y2="18.878"/>
<line class="st3" x1="212.783" y1="36.493" x2="212.783" y2="18.878"/>
<line class="st3" x1="221.641" y1="36.493" x2="221.641" y2="18.878"/>
<line class="st3" x1="230.499" y1="36.493" x2="230.499" y2="18.878"/>
<line class="st3" x1="239.357" y1="36.493" x2="239.357" y2="18.878"/>
<line class="st3" x1="248.215" y1="36.493" x2="248.215" y2="18.872"/>
<line class="st3" x1="257.073" y1="36.493" x2="257.073" y2="18.76"/>
<line class="st3" x1="265.93" y1="36.493" x2="265.93" y2="18.76"/>
<line class="st3" x1="274.788" y1="36.493" x2="274.788" y2="18.76"/>
<line class="st3" x1="283.648" y1="36.493" x2="283.648" y2="18.76"/>
<line class="st3" x1="292.506" y1="36.493" x2="292.506" y2="18.76"/>
<line class="st3" x1="301.363" y1="36.493" x2="301.363" y2="18.76"/>
<line class="st3" x1="310.22" y1="36.493" x2="310.22" y2="18.76"/>
<line class="st3" x1="319.08" y1="36.493" x2="319.08" y2="18.76"/>
<line class="st2" x1="186.21" y1="36.493" x2="44.3" y2="36.493"/>
<polyline class="st2" points="44.476,36.493 44.476,18.778 186.21,18.778 "/>
<line class="st3" x1="53.334" y1="36.493" x2="53.334" y2="18.878"/>
<line class="st3" x1="62.192" y1="36.493" x2="62.192" y2="18.878"/>
<line class="st3" x1="71.05" y1="36.493" x2="71.05" y2="18.878"/>
<line class="st3" x1="79.908" y1="36.493" x2="79.908" y2="18.878"/>
<line class="st3" x1="88.767" y1="36.493" x2="88.767" y2="18.878"/>
<line class="st3" x1="97.625" y1="36.493" x2="97.625" y2="18.878"/>
<line class="st3" x1="106.483" y1="36.493" x2="106.483" y2="18.878"/>
<line class="st3" x1="115.341" y1="36.493" x2="115.341" y2="18.878"/>
<line class="st3" x1="124.198" y1="36.493" x2="124.198" y2="18.878"/>
<line class="st3" x1="133.057" y1="36.493" x2="133.057" y2="18.878"/>
<line class="st3" x1="141.915" y1="36.493" x2="141.915" y2="18.878"/>
<line class="st3" x1="150.773" y1="36.493" x2="150.773" y2="18.878"/>
<line class="st3" x1="159.63" y1="36.493" x2="159.63" y2="18.878"/>
<line class="st3" x1="168.489" y1="36.493" x2="168.489" y2="18.878"/>
<line class="st3" x1="177.347" y1="36.493" x2="177.347" y2="18.878"/>
<g>
	<path d="M261.508,31.584c-1.818,0-2.17-1.936-2.17-3.25c0-1.314,0.352-3.25,2.17-3.25s2.17,1.936,2.17,3.25
		C263.678,29.649,263.326,31.584,261.508,31.584z M261.508,25.796c-0.909,0-1.323,0.954-1.323,2.539s0.414,2.539,1.323,2.539
		s1.323-0.955,1.323-2.539S262.417,25.796,261.508,25.796z"/>
</g>
<g>
	<path d="M270.31,31.584c-1.818,0-2.17-1.936-2.17-3.25c0-1.314,0.352-3.25,2.17-3.25s2.17,1.936,2.17,3.25
		C272.479,29.649,272.128,31.584,270.31,31.584z M270.31,25.796c-0.909,0-1.323,0.954-1.323,2.539s0.414,2.539,1.323,2.539
		s1.323-0.955,1.323-2.539S271.219,25.796,270.31,25.796z"/>
</g>
<g>
	<path d="M279.11,31.584c-1.818,0-2.17-1.936-2.17-3.25c0-1.314,0.352-3.25,2.17-3.25s2.17,1.936,2.17,3.25
		C281.28,29.649,280.929,31.584,279.11,31.584z M279.11,25.796c-0.909,0-1.323,0.954-1.323,2.539s0.414,2.539,1.323,2.539
		s1.323-0.955,1.323-2.539S280.02,25.796,279.11,25.796z"/>
</g>
<g>
	<path d="M288.642,31.414h-0.847v-4.492h-1.477v-0.63c1.026-0.072,1.449-0.171,1.701-1.207h0.622V31.414z"/>
</g>
<g>
	<path d="M297.442,31.414h-0.847v-4.492h-1.477v-0.63c1.026-0.072,1.449-0.171,1.701-1.207h0.622V31.414z"/>
</g>
<g>
	<path d="M305.517,31.584c-1.818,0-2.17-1.936-2.17-3.25c0-1.314,0.352-3.25,2.17-3.25s2.17,1.936,2.17,3.25
		C307.686,29.649,307.335,31.584,305.517,31.584z M305.517,25.796c-0.909,0-1.323,0.954-1.323,2.539s0.414,2.539,1.323,2.539
		s1.323-0.955,1.323-2.539S306.426,25.796,305.517,25.796z"/>
</g>
<g>
	<path d="M314.318,31.584c-1.818,0-2.17-1.936-2.17-3.25c0-1.314,0.352-3.25,2.17-3.25s2.17,1.936,2.17,3.25
		C316.488,29.649,316.137,31.584,314.318,31.584z M314.318,25.796c-0.909,0-1.323,0.954-1.323,2.539s0.414,2.539,1.323,2.539
		s1.323-0.955,1.323-2.539S315.228,25.796,314.318,25.796z"/>
</g>
<g>
	<path d="M324.127,31.414h-0.847v-4.492h-1.477v-0.63c1.026-0.072,1.449-0.171,1.701-1.207h0.622V31.414z"/>
</g>
<g>
	<path d="M235.104,31.584c-1.819,0-2.17-1.936-2.17-3.25c0-1.314,0.351-3.25,2.17-3.25c1.818,0,2.169,1.936,2.169,3.25
		C237.273,29.649,236.922,31.584,235.104,31.584z M235.104,25.796c-0.91,0-1.324,0.954-1.324,2.539s0.414,2.539,1.324,2.539
		c0.909,0,1.323-0.955,1.323-2.539S236.013,25.796,235.104,25.796z"/>
</g>
<g>
	<path d="M243.905,31.584c-1.819,0-2.17-1.936-2.17-3.25c0-1.314,0.351-3.25,2.17-3.25c1.818,0,2.169,1.936,2.169,3.25
		C246.075,29.649,245.724,31.584,243.905,31.584z M243.905,25.796c-0.91,0-1.324,0.954-1.324,2.539s0.414,2.539,1.324,2.539
		c0.909,0,1.323-0.955,1.323-2.539S244.814,25.796,243.905,25.796z"/>
</g>
<g>
	<path d="M252.707,31.584c-1.819,0-2.17-1.936-2.17-3.25c0-1.314,0.351-3.25,2.17-3.25c1.818,0,2.169,1.936,2.169,3.25
		C254.876,29.649,254.525,31.584,252.707,31.584z M252.707,25.796c-0.91,0-1.324,0.954-1.324,2.539s0.414,2.539,1.324,2.539
		c0.909,0,1.323-0.955,1.323-2.539S253.616,25.796,252.707,25.796z"/>
</g>
<g>
	<path d="M118.928,31.584c-1.819,0-2.17-1.936-2.17-3.25c0-1.314,0.351-3.25,2.17-3.25c1.818,0,2.169,1.936,2.169,3.25
		C121.098,29.649,120.747,31.584,118.928,31.584z M118.928,25.796c-0.91,0-1.324,0.954-1.324,2.539s0.414,2.539,1.324,2.539
		c0.909,0,1.323-0.955,1.323-2.539S119.837,25.796,118.928,25.796z"/>
</g>
<g>
	<path d="M127.729,31.584c-1.819,0-2.17-1.936-2.17-3.25c0-1.314,0.351-3.25,2.17-3.25c1.818,0,2.169,1.936,2.169,3.25
		C129.899,29.649,129.548,31.584,127.729,31.584z M127.729,25.796c-0.91,0-1.324,0.954-1.324,2.539s0.414,2.539,1.324,2.539
		c0.909,0,1.323-0.955,1.323-2.539S128.639,25.796,127.729,25.796z"/>
</g>
<g>
	<path d="M136.531,31.584c-1.819,0-2.17-1.936-2.17-3.25c0-1.314,0.351-3.25,2.17-3.25c1.818,0,2.169,1.936,2.169,3.25
		C138.7,29.649,138.349,31.584,136.531,31.584z M136.531,25.796c-0.91,0-1.324,0.954-1.324,2.539s0.414,2.539,1.324,2.539
		c0.909,0,1.323-0.955,1.323-2.539S137.44,25.796,136.531,25.796z"/>
</g>
<g>
	<path d="M147.311,31.414h-0.846v-4.492h-1.477v-0.63c1.026-0.072,1.45-0.171,1.702-1.207h0.621V31.414z"/>
</g>
<g>
	<path d="M156.113,31.414h-0.846v-4.492h-1.477v-0.63c1.026-0.072,1.45-0.171,1.702-1.207h0.621V31.414z"/>
</g>
<g>
	<path d="M164.186,31.584c-1.819,0-2.17-1.936-2.17-3.25c0-1.314,0.351-3.25,2.17-3.25c1.818,0,2.169,1.936,2.169,3.25
		C166.355,29.649,166.004,31.584,164.186,31.584z M164.186,25.796c-0.91,0-1.324,0.954-1.324,2.539s0.414,2.539,1.324,2.539
		c0.909,0,1.323-0.955,1.323-2.539S165.095,25.796,164.186,25.796z"/>
</g>
<g>
	<path d="M172.987,31.584c-1.819,0-2.17-1.936-2.17-3.25c0-1.314,0.351-3.25,2.17-3.25c1.818,0,2.169,1.936,2.169,3.25
		C175.156,29.649,174.805,31.584,172.987,31.584z M172.987,25.796c-0.91,0-1.324,0.954-1.324,2.539s0.414,2.539,1.324,2.539
		c0.909,0,1.323-0.955,1.323-2.539S173.896,25.796,172.987,25.796z"/>
</g>
<g>
	<path d="M182.517,31.414h-0.846v-4.492h-1.477v-0.63c1.026-0.072,1.45-0.171,1.702-1.207h0.621V31.414z"/>
</g>
<g>
	<path d="M191.395,31.414h-0.846v-4.492h-1.477v-0.63c1.026-0.072,1.45-0.171,1.702-1.207h0.621V31.414z"/>
</g>
<g>
	<path d="M200.197,31.414h-0.846v-4.492h-1.477v-0.63c1.026-0.072,1.45-0.171,1.702-1.207h0.621V31.414z"/>
</g>
<g>
	<path d="M208.545,31.414h-0.846v-4.492h-1.477v-0.63c1.026-0.072,1.45-0.171,1.702-1.207h0.621V31.414z"/>
</g>
<g>
	<path d="M216.617,31.584c-1.819,0-2.17-1.936-2.17-3.25c0-1.314,0.351-3.25,2.17-3.25c1.818,0,2.169,1.936,2.169,3.25
		C218.787,29.649,218.436,31.584,216.617,31.584z M216.617,25.796c-0.91,0-1.324,0.954-1.324,2.539s0.414,2.539,1.324,2.539
		c0.909,0,1.323-0.955,1.323-2.539S217.526,25.796,216.617,25.796z"/>
</g>
<g>
	<path d="M227.852,31.414h-0.846v-4.492h-1.477v-0.63c1.026-0.072,1.45-0.171,1.702-1.207h0.621V31.414z"/>
</g>
<g>
	<path d="M92.523,31.584c-1.819,0-2.17-1.936-2.17-3.25c0-1.314,0.351-3.25,2.17-3.25c1.818,0,2.169,1.936,2.169,3.25
		C94.693,29.649,94.342,31.584,92.523,31.584z M92.523,25.796c-0.91,0-1.324,0.954-1.324,2.539s0.414,2.539,1.324,2.539
		c0.909,0,1.323-0.955,1.323-2.539S93.433,25.796,92.523,25.796z"/>
</g>
<g>
	<path d="M101.326,31.584c-1.819,0-2.17-1.936-2.17-3.25c0-1.314,0.351-3.25,2.17-3.25c1.818,0,2.169,1.936,2.169,3.25
		C103.495,29.649,103.144,31.584,101.326,31.584z M101.326,25.796c-0.91,0-1.324,0.954-1.324,2.539s0.414,2.539,1.324,2.539
		c0.909,0,1.323-0.955,1.323-2.539S102.235,25.796,101.326,25.796z"/>
</g>
<g>
	<path d="M110.127,31.584c-1.819,0-2.17-1.936-2.17-3.25c0-1.314,0.351-3.25,2.17-3.25c1.818,0,2.169,1.936,2.169,3.25
		C112.296,29.649,111.945,31.584,110.127,31.584z M110.127,25.796c-0.91,0-1.324,0.954-1.324,2.539s0.414,2.539,1.324,2.539
		c0.909,0,1.323-0.955,1.323-2.539S111.036,25.796,110.127,25.796z"/>
</g>
<g>
	<path d="M75.52,31.584c-1.819,0-2.17-1.936-2.17-3.25c0-1.314,0.351-3.25,2.17-3.25c1.818,0,2.169,1.936,2.169,3.25
		C77.689,29.649,77.338,31.584,75.52,31.584z M75.52,25.796c-0.91,0-1.324,0.954-1.324,2.539s0.414,2.539,1.324,2.539
		c0.909,0,1.323-0.955,1.323-2.539S76.429,25.796,75.52,25.796z"/>
</g>
<g>
	<path d="M85.05,31.414h-0.846v-4.492h-1.477v-0.63c1.026-0.072,1.45-0.171,1.702-1.207h0.621V31.414z"/>
</g>
<g>
	<path d="M49.844,31.414h-0.846v-4.492h-1.477v-0.63c1.026-0.072,1.45-0.171,1.702-1.207h0.621V31.414z"/>
</g>
<g>
	<path d="M58.646,31.414H57.8v-4.492h-1.477v-0.63c1.026-0.072,1.45-0.171,1.702-1.207h0.621V31.414z"/>
</g>
<g>
	<path d="M67.448,31.414h-0.846v-4.492h-1.477v-0.63c1.026-0.072,1.45-0.171,1.702-1.207h0.621V31.414z"/>
</g>
<polyline class="st4" points="44.311,112.629 44.311,130.344 35.454,130.344 "/>
<polyline class="st3" points="35.454,130.344 35.454,112.629 44.311,112.629 "/>
<path class="st2" d="M35.446,90.943c0,0,0.178,2.057-2.056,2.057c-2.234,0-13.315,0-13.315,0s-1.831,0.536-1.831,1.831"/>
<path class="st2" d="M1.042,90.943c0,0-0.178,2.057,2.056,2.057s13.313,0,13.313,0s1.833,0.536,1.833,1.831"/>
<path d="M36.65,107.052l5.972-0.178l-2.744,5.21L36.65,107.052z"/>
<g>
	<path d="M40.451,124.829h-0.846v-4.492h-1.477v-0.63c1.026-0.072,1.45-0.172,1.702-1.207h0.621V124.829z"/>
</g>
<g>
	<path d="M12.435,97.423c0.155,0.014,0.31,0.021,0.465,0.021h0.554c0.155,0,0.31-0.007,0.465-0.021
		c-0.023,0.278-0.034,0.561-0.034,0.848v1.449h0.52v-1.449c0-0.287-0.009-0.57-0.027-0.848c0.16,0.014,0.317,0.021,0.472,0.021
		h0.485c0.155,0,0.312-0.007,0.472-0.021c-0.018,0.278-0.027,0.561-0.027,0.848v1.436c0.146-0.005,0.29-0.019,0.431-0.041
		c-0.018,0.087-0.027,0.178-0.027,0.273c0,0.077,0.009,0.157,0.027,0.239c-0.146-0.022-0.29-0.036-0.431-0.041v2.584
		c0,0.21-0.032,0.354-0.096,0.431c-0.119,0.183-0.369,0.278-0.752,0.287c-0.023-0.183-0.098-0.347-0.226-0.492
		c0.219,0.019,0.358,0.027,0.417,0.027c0.16-0.009,0.239-0.103,0.239-0.28v-2.57h-0.54v0.629c0,0.561-0.062,1.062-0.185,1.504
		c-0.132,0.433-0.283,0.798-0.451,1.094c-0.086-0.101-0.219-0.176-0.396-0.226c-0.127,0.178-0.396,0.271-0.807,0.28
		c-0.023-0.178-0.093-0.34-0.212-0.485c0.246,0.019,0.399,0.027,0.458,0.027c0.164-0.009,0.246-0.101,0.246-0.273v-2.55h-0.595
		v0.472c0,0.615-0.068,1.167-0.205,1.654c-0.137,0.479-0.296,0.884-0.479,1.217c-0.096-0.114-0.244-0.196-0.444-0.246
		c0.305-0.46,0.501-0.935,0.588-1.422c0.086-0.369,0.13-0.827,0.13-1.374v-0.301c-0.214,0.005-0.426,0.022-0.636,0.055
		c0.018-0.082,0.027-0.162,0.027-0.239c0-0.096-0.009-0.187-0.027-0.273c0.209,0.032,0.421,0.05,0.636,0.055v-1.449
		C12.469,97.983,12.458,97.701,12.435,97.423z M12.879,99.72h0.595v-1.866h-0.595V99.72z M14.404,100.123h-0.52v2.57
		c0,0.096-0.007,0.176-0.021,0.239c0.219-0.369,0.362-0.738,0.431-1.107c0.073-0.333,0.109-0.743,0.109-1.23V100.123z M14.821,99.72
		h0.54v-1.866h-0.54V99.72z M16.325,97.826c0.16,0.018,0.351,0.027,0.574,0.027c-0.059,0.118-0.089,0.267-0.089,0.444v3.001
		c0,0.287,0.021,0.569,0.062,0.848c-0.096-0.019-0.187-0.027-0.273-0.027c-0.096,0-0.187,0.009-0.273,0.027
		c0.037-0.278,0.055-0.561,0.055-0.848v-2.728C16.379,98.325,16.361,98.077,16.325,97.826z M17.275,97.17
		c0.182,0.018,0.374,0.027,0.574,0.027c-0.05,0.137-0.075,0.294-0.075,0.472v5.353c0,0.228-0.084,0.378-0.253,0.451
		c-0.164,0.063-0.401,0.096-0.711,0.096c-0.045-0.214-0.134-0.396-0.267-0.547h0.383c0.25,0,0.376-0.082,0.376-0.246v-5.161
		C17.302,97.468,17.293,97.32,17.275,97.17z"/>
	<path d="M19.025,97.471c0.201,0.018,0.401,0.027,0.602,0.027h0.93c0.219,0,0.44-0.009,0.663-0.027
		c-0.105,0.191-0.396,0.914-0.875,2.167c0.396,0.593,0.597,1.085,0.602,1.477c0,0.355-0.08,0.617-0.239,0.786
		c-0.201,0.2-0.485,0.301-0.854,0.301c0-0.178-0.066-0.369-0.198-0.574c0.173,0.019,0.292,0.027,0.355,0.027
		c0.296,0,0.444-0.18,0.444-0.54c0-0.355-0.201-0.829-0.602-1.422c0.228-0.533,0.454-1.107,0.677-1.723h-0.95v4.676
		c0,0.296,0.007,0.597,0.021,0.902c-0.096-0.019-0.194-0.027-0.294-0.027c-0.091,0-0.185,0.009-0.28,0.027
		c0.018-0.306,0.027-0.606,0.027-0.902V98.1C19.052,97.89,19.043,97.68,19.025,97.471z M21.52,101.415
		c0.146,0.132,0.326,0.232,0.54,0.301c-0.451,0.479-0.871,0.962-1.258,1.449c-0.173-0.15-0.326-0.251-0.458-0.301
		c0.205-0.155,0.401-0.342,0.588-0.561C21.174,102.035,21.37,101.738,21.52,101.415z M22.525,97.122
		c0.201,0.096,0.41,0.16,0.629,0.191c-0.059,0.059-0.119,0.13-0.178,0.212c0.155,0.41,0.385,0.754,0.69,1.032
		c0.337,0.31,0.807,0.559,1.408,0.745c-0.209,0.169-0.358,0.369-0.444,0.602c-0.333-0.219-0.618-0.429-0.854-0.629
		c-0.014,0.073-0.021,0.139-0.021,0.198c0,0.077,0.009,0.159,0.027,0.246c-0.105-0.019-0.214-0.027-0.328-0.027h-0.547v0.875h0.718
		c0.25,0,0.503-0.019,0.759-0.055c-0.018,0.087-0.027,0.176-0.027,0.267c0,0.096,0.009,0.187,0.027,0.273
		c-0.255-0.036-0.508-0.055-0.759-0.055h-0.718v2.194c0,0.137-0.073,0.239-0.219,0.308c-0.132,0.063-0.403,0.096-0.813,0.096
		c-0.009-0.214-0.075-0.405-0.198-0.574c0.237,0.036,0.419,0.055,0.547,0.055c0.123,0,0.189-0.043,0.198-0.13v-1.948h-0.547
		c-0.26,0-0.517,0.019-0.772,0.055c0.018-0.087,0.027-0.178,0.027-0.273c0-0.091-0.009-0.18-0.027-0.267
		c0.255,0.036,0.513,0.055,0.772,0.055h0.547v-0.875h-0.417c-0.105,0-0.214,0.009-0.328,0.027c0.018-0.087,0.027-0.169,0.027-0.246
		c0-0.041-0.002-0.077-0.007-0.109c-0.201,0.228-0.415,0.446-0.643,0.656c-0.1-0.137-0.249-0.265-0.444-0.383
		c0.474-0.323,0.871-0.711,1.189-1.162C22.115,98.052,22.356,97.601,22.525,97.122z M21.807,99.234
		c0.073,0.009,0.139,0.014,0.198,0.014h1.449c0.096,0,0.185-0.007,0.267-0.021c-0.187-0.155-0.339-0.303-0.458-0.444
		c-0.214-0.251-0.385-0.547-0.513-0.889C22.481,98.368,22.167,98.815,21.807,99.234z M23.625,101.518
		c0.05,0.073,0.148,0.178,0.294,0.314c0.237,0.228,0.433,0.436,0.588,0.622c0.109,0.123,0.216,0.239,0.321,0.349
		c-0.127,0.041-0.303,0.132-0.526,0.273c-0.068-0.155-0.208-0.355-0.417-0.602c-0.237-0.269-0.481-0.494-0.731-0.677
		C23.341,101.721,23.498,101.627,23.625,101.518z"/>
</g>
<g>
	<path class="st2" d="M327.359,91.245c0,0,0.227,2.609-2.607,2.609c-2.835,0-16.892,0-16.892,0s-2.324,0.68-2.324,2.324"/>
	<path class="st2" d="M283.709,91.245c0,0-0.227,2.609,2.607,2.609s16.892,0,16.892,0s2.327,0.68,2.327,2.324"/>
</g>
<g>
	<g>
		<path d="M302.14,98.007h0.658v5.029h-0.764l-2.556-4.062h-0.015v4.062h-0.658v-5.029h0.806l2.515,4.062h0.014V98.007z"/>
		<path d="M306.171,103.036v-0.532l-0.015-0.014c-0.259,0.427-0.574,0.651-1.162,0.651c-0.539,0-1.19-0.26-1.19-1.135v-2.634h0.616
			v2.431c0,0.603,0.308,0.806,0.707,0.806c0.777,0,1.009-0.687,1.009-1.219v-2.018h0.616v3.663H306.171z"/>
		<path d="M307.675,99.373h0.581v0.519h0.015c0.133-0.196,0.448-0.623,1.106-0.623s0.868,0.398,0.974,0.595
			c0.308-0.343,0.553-0.595,1.12-0.595c0.393,0,1.135,0.203,1.135,1.232v2.535h-0.616v-2.367c0-0.504-0.154-0.848-0.68-0.848
			c-0.518,0-0.861,0.49-0.861,0.98v2.234h-0.616v-2.535c0-0.309-0.119-0.68-0.574-0.68c-0.351,0-0.967,0.225-0.967,1.219v1.996
			h-0.616V99.373z"/>
	</g>
</g>
<g>
	<line class="st5" x1="305.52" y1="120.342" x2="305.52" y2="111.771"/>
	<polygon class="st6" points="308.735,113.914 305.521,107.487 305.521,107.487 302.305,113.914 	"/>
</g>
<g>
	<path d="M294.703,123.304c0.26,0.032,0.524,0.048,0.793,0.048h1.196c0.123-0.296,0.244-0.613,0.362-0.95
		c0.224,0.091,0.439,0.152,0.649,0.185c-0.118,0.128-0.282,0.383-0.492,0.766h2.741c0.26,0,0.524-0.016,0.793-0.048
		c-0.022,0.096-0.034,0.196-0.034,0.301c0,0.087,0.012,0.178,0.034,0.273c-0.269-0.036-0.533-0.055-0.793-0.055h-2.967
		c-0.237,0.483-0.48,0.916-0.731,1.299v2.857c0,0.296,0.019,0.597,0.055,0.902c-0.096-0.019-0.196-0.027-0.301-0.027
		c-0.087,0-0.178,0.009-0.273,0.027c0.041-0.306,0.062-0.606,0.062-0.902v-2.229c-0.269,0.347-0.542,0.67-0.82,0.971
		c-0.146-0.123-0.337-0.224-0.574-0.301c0.506-0.419,0.964-0.902,1.374-1.449c-0.014-0.114-0.027-0.226-0.041-0.335
		c0.082,0.009,0.169,0.016,0.26,0.021c0.169-0.246,0.328-0.524,0.479-0.834h-0.978c-0.269,0-0.533,0.019-0.793,0.055
		c0.019-0.096,0.027-0.187,0.027-0.273C294.73,123.5,294.722,123.399,294.703,123.304z M297.13,124.637
		c0.219,0.022,0.438,0.034,0.656,0.034h1.894c0.224,0,0.449-0.012,0.677-0.034c-0.019,0.087-0.027,0.169-0.027,0.246
		c0.019,0.104,0.027,0.205,0.027,0.301c-0.465,0.26-0.891,0.518-1.278,0.772v0.465h0.902c0.26,0,0.524-0.021,0.793-0.062
		c-0.019,0.104-0.027,0.205-0.027,0.301s0.009,0.187,0.027,0.273c-0.269-0.036-0.533-0.055-0.793-0.055h-0.902v1.374
		c0,0.214-0.098,0.357-0.294,0.431c-0.255,0.096-0.549,0.144-0.882,0.144c-0.022-0.196-0.104-0.388-0.246-0.574
		c0.237,0.019,0.392,0.027,0.465,0.027c0.314,0,0.477-0.091,0.485-0.273v-1.128h-1.203c-0.26,0-0.524,0.019-0.793,0.055
		c0.022-0.087,0.034-0.178,0.034-0.273s-0.012-0.196-0.034-0.301c0.269,0.041,0.533,0.062,0.793,0.062h1.203v-0.574l1.073-0.718
		h-1.894c-0.219,0-0.438,0.009-0.656,0.027c0.019-0.087,0.027-0.178,0.027-0.273C297.157,124.806,297.148,124.724,297.13,124.637z"
		/>
	<path d="M302.735,122.429c0.155,0.082,0.376,0.144,0.663,0.185c-0.142,0.183-0.314,0.538-0.52,1.066
		c-0.027,0.068-0.055,0.139-0.082,0.212v4.115c0,0.301,0.019,0.6,0.055,0.896c-0.104-0.014-0.205-0.021-0.301-0.021
		s-0.187,0.007-0.273,0.021c0.032-0.296,0.048-0.595,0.048-0.896v-3.104c-0.159,0.306-0.333,0.6-0.52,0.882
		c-0.082-0.123-0.226-0.241-0.431-0.355c0.405-0.515,0.72-1.03,0.943-1.545C302.51,123.401,302.648,122.916,302.735,122.429z
		 M302.954,124.582c0.096,0.019,0.187,0.027,0.273,0.027h0.499c0.137,0,0.271-0.009,0.403-0.027
		c-0.027,0.142-0.046,0.28-0.055,0.417v2.365c0.169-0.109,0.335-0.234,0.499-0.376c0.041,0.137,0.111,0.258,0.212,0.362
		c-0.383,0.306-0.784,0.668-1.203,1.087c-0.082-0.128-0.183-0.237-0.301-0.328c0.146-0.142,0.246-0.273,0.301-0.396
		c0.041-0.118,0.062-0.217,0.062-0.294v-2.42h-0.417c-0.087,0-0.178,0.009-0.273,0.027c0.019-0.077,0.027-0.15,0.027-0.219
		C302.981,124.734,302.973,124.659,302.954,124.582z M303.973,122.832c0.118,0.392,0.28,0.813,0.485,1.265
		c-0.169,0.027-0.34,0.08-0.513,0.157c-0.087-0.401-0.241-0.836-0.465-1.306C303.653,122.93,303.817,122.892,303.973,122.832z
		 M304.731,123.331c0.219,0.032,0.439,0.048,0.663,0.048h0.301v-0.492c0-0.159-0.021-0.321-0.062-0.485
		c0.164,0.046,0.355,0.07,0.574,0.075c-0.055,0.104-0.082,0.241-0.082,0.41v0.492c0.219,0,0.438-0.016,0.656-0.048
		c-0.019,0.077-0.027,0.159-0.027,0.246c0,0.077,0.009,0.159,0.027,0.246c-0.219-0.041-0.438-0.062-0.656-0.062v0.909h0.144
		c0.337-0.456,0.69-1.051,1.06-1.784c0.155,0.146,0.321,0.267,0.499,0.362c-0.109,0.082-0.344,0.401-0.704,0.957
		c-0.101,0.164-0.203,0.319-0.308,0.465h0.383c0.219,0,0.438-0.021,0.656-0.062c-0.019,0.087-0.027,0.169-0.027,0.246
		c0,0.087,0.009,0.169,0.027,0.246c-0.219-0.032-0.438-0.048-0.656-0.048h-0.67c-0.128,0.173-0.262,0.333-0.403,0.479
		c-0.05,0.063-0.101,0.121-0.15,0.171h0.704c0.232,0,0.467-0.016,0.704-0.048c-0.036,0.21-0.055,0.417-0.055,0.622v1.948
		c0,0.228,0.019,0.453,0.055,0.677c-0.132-0.014-0.224-0.021-0.273-0.021c-0.046,0-0.137,0.007-0.273,0.021
		c0.036-0.191,0.055-0.383,0.055-0.574h-1.333c0,0.196,0.016,0.388,0.048,0.574c-0.132-0.014-0.224-0.021-0.273-0.021
		c-0.046,0-0.137,0.007-0.273,0.021c0.041-0.224,0.062-0.449,0.062-0.677v-1.661c-0.142,0.132-0.289,0.265-0.444,0.396
		c-0.091-0.137-0.226-0.255-0.403-0.355c0.287-0.205,0.562-0.426,0.827-0.663c-0.009-0.101-0.022-0.196-0.041-0.287
		c0.104,0.014,0.205,0.022,0.301,0.027c0.214-0.2,0.41-0.41,0.588-0.629h-0.827c-0.224,0-0.444,0.016-0.663,0.048
		c0.019-0.077,0.027-0.159,0.027-0.246c0-0.077-0.009-0.159-0.027-0.246c0.219,0.041,0.439,0.062,0.663,0.062h0.574v-0.909h-0.301
		c-0.224,0-0.444,0.021-0.663,0.062c0.019-0.087,0.027-0.169,0.027-0.246C304.759,123.49,304.75,123.408,304.731,123.331z
		 M305.552,126.852h1.347v-0.766h-1.292c-0.022,0.027-0.041,0.048-0.055,0.062V126.852z M305.552,127.952h1.347v-0.745h-1.347
		V127.952z"/>
	<path d="M310.103,128.331c-1.415,0-1.688-1.506-1.688-2.528s0.273-2.528,1.688-2.528s1.688,1.506,1.688,2.528
		S311.519,128.331,310.103,128.331z M310.103,123.828c-0.708,0-1.029,0.742-1.029,1.975s0.321,1.976,1.029,1.976
		c0.707,0,1.029-0.743,1.029-1.976S310.811,123.828,310.103,123.828z"/>
</g>
<g>
	<g>
		<path d="M91.787,1.214h0.658v5.029h-0.763l-2.557-4.062h-0.014v4.062h-0.658V1.214h0.806l2.514,4.062h0.014V1.214z"/>
		<path d="M95.818,6.243V5.71l-0.014-0.014c-0.259,0.427-0.574,0.651-1.163,0.651c-0.54,0-1.191-0.259-1.191-1.135V2.58h0.617V5.01
			c0,0.602,0.308,0.805,0.707,0.805c0.777,0,1.009-0.687,1.009-1.219V2.58h0.616v3.663H95.818z"/>
		<path d="M97.321,2.58h0.582v0.519h0.014c0.133-0.196,0.448-0.624,1.106-0.624s0.869,0.399,0.974,0.595
			c0.308-0.343,0.553-0.595,1.121-0.595c0.392,0,1.134,0.203,1.134,1.233v2.535h-0.616V3.875c0-0.504-0.154-0.848-0.679-0.848
			c-0.519,0-0.862,0.49-0.862,0.98v2.234h-0.616V3.708c0-0.309-0.119-0.68-0.574-0.68c-0.35,0-0.966,0.224-0.966,1.219v1.996h-0.617
			V2.58z"/>
	</g>
</g>
<line class="st3" x1="185.783" y1="36.493" x2="185.783" y2="18.878"/>
<line class="st3" x1="186.549" y1="89.618" x2="186.549" y2="72.003"/>
<path d="M5.121,70.846l-2.887-5.132l5.975,0.015L5.121,70.846z"/>
<polyline class="st2" points="49.535,38.159 49.535,51.859 5.012,51.859 5.012,68.361 "/>
<path d="M279.495,70.846l-2.886-5.132l5.974,0.015L279.495,70.846z"/>
<polyline class="st2" points="323.909,38.159 323.909,51.859 279.387,51.859 279.387,68.361 "/>
<g>
	<path d="M30.858,135.317c-0.189-0.883-0.924-1.044-1.408-1.044c-0.91,0-1.646,0.673-1.646,1.996c0,1.184,0.42,2.094,1.667,2.094
		c0.441,0,1.205-0.21,1.436-1.379h0.658c-0.28,1.897-1.821,1.981-2.199,1.981c-1.142,0-2.262-0.742-2.262-2.675
		c0-1.548,0.882-2.62,2.346-2.62c1.296,0,1.968,0.806,2.066,1.646H30.858z"/>
	<path d="M33.146,138.833h-0.68v-5.028h2.325c0.827,0,1.653,0.287,1.653,1.352c0,0.742-0.378,1.016-0.7,1.204
		c0.287,0.119,0.574,0.245,0.603,0.946l0.042,0.91c0.007,0.28,0.042,0.385,0.252,0.504v0.112h-0.833
		c-0.098-0.309-0.119-1.071-0.119-1.261c0-0.413-0.084-0.896-0.896-0.896h-1.646V138.833z M33.146,136.095h1.576
		c0.497,0,1.022-0.126,1.022-0.869c0-0.777-0.567-0.84-0.903-0.84h-1.695V136.095z"/>
	<path d="M37.212,135.674c0-1.604,1.17-1.765,1.702-1.765c0.854,0,1.541,0.554,1.541,1.471c0,0.883-0.581,1.254-1.316,1.646
		l-0.511,0.28c-0.672,0.371-0.82,0.756-0.848,0.945h2.675v0.581h-3.369c0.035-1.022,0.497-1.568,1.156-1.954l0.651-0.378
		c0.525-0.302,0.903-0.505,0.903-1.148c0-0.393-0.252-0.89-0.974-0.89c-0.932,0-0.974,0.868-0.995,1.211H37.212z"/>
	<path d="M42.744,138.966c-1.415,0-1.688-1.506-1.688-2.528s0.273-2.528,1.688-2.528c1.415,0,1.688,1.506,1.688,2.528
		S44.158,138.966,42.744,138.966z M42.744,134.463c-0.708,0-1.03,0.742-1.03,1.975s0.322,1.976,1.03,1.976
		c0.707,0,1.029-0.743,1.029-1.976S43.451,134.463,42.744,134.463z"/>
	<path d="M46.635,138.966c-1.415,0-1.688-1.506-1.688-2.528s0.273-2.528,1.688-2.528c1.415,0,1.688,1.506,1.688,2.528
		S48.05,138.966,46.635,138.966z M46.635,134.463c-0.708,0-1.03,0.742-1.03,1.975s0.322,1.976,1.03,1.976
		c0.707,0,1.029-0.743,1.029-1.976S47.342,134.463,46.635,134.463z"/>
	<path d="M48.874,135.598c0-0.896,0.546-1.688,1.583-1.688c1.569,0,1.723,1.485,1.723,2.283c0,0.525-0.091,2.773-1.786,2.773
		c-1.156,0-1.464-0.84-1.464-1.316h0.616c0.035,0.497,0.33,0.806,0.833,0.806c0.672,0,1.03-0.567,1.184-1.842l-0.014-0.015
		c-0.182,0.378-0.672,0.589-1.128,0.589C49.512,137.188,48.874,136.578,48.874,135.598z M51.458,135.514
		c0-0.561-0.287-1.051-0.995-1.051c-0.574,0-0.952,0.448-0.952,1.106c0,0.945,0.588,1.064,1.001,1.064
		C50.835,136.634,51.458,136.486,51.458,135.514z"/>
	<path d="M31.787,147.63l-0.355,0.41c-0.456-0.451-0.813-0.966-1.073-1.545c-0.255-0.574-0.383-1.171-0.383-1.791
		s0.13-1.222,0.39-1.805c0.255-0.569,0.611-1.08,1.066-1.531l0.355,0.41c-0.392,0.388-0.697,0.836-0.916,1.347
		c-0.223,0.511-0.335,1.037-0.335,1.579s0.112,1.068,0.335,1.579C31.089,146.794,31.395,147.242,31.787,147.63z"/>
	<path d="M33.038,143.706c0.182,0.019,0.365,0.027,0.547,0.027h0.027c0.26,0,0.517-0.009,0.772-0.027
		c-0.018,0.282-0.027,0.562-0.027,0.841v1.593c0,0.191,0.004,0.381,0.014,0.567c0.027,0.009,0.05,0.019,0.068,0.027
		c0.734,0.333,1.688,0.499,2.864,0.499c0.374,0,1.002-0.048,1.887-0.144c-0.105,0.169-0.175,0.388-0.212,0.656h-1.449
		c-1.312,0-2.342-0.176-3.09-0.526c-0.168-0.087-0.287-0.13-0.355-0.13c-0.146,0-0.374,0.21-0.684,0.629
		c-0.132-0.173-0.296-0.308-0.492-0.403l0.663-0.513c0.1-0.068,0.191-0.118,0.273-0.15c0.009-0.178,0.014-0.349,0.014-0.513v-1.894
		h-0.273c-0.182,0-0.365,0.009-0.547,0.027c0.018-0.096,0.027-0.196,0.027-0.301C33.065,143.886,33.056,143.797,33.038,143.706z
		 M33.913,141.621c0.164,0.405,0.385,0.846,0.663,1.319c-0.191,0.032-0.383,0.096-0.574,0.191c-0.119-0.419-0.328-0.875-0.629-1.367
		C33.568,141.742,33.749,141.694,33.913,141.621z M35.881,141.409c0.214,0.055,0.454,0.082,0.718,0.082
		c-0.055,0.2-0.089,0.608-0.103,1.224h0.916v-1.203h0.52v1.203h0.246c0.255,0,0.513-0.016,0.772-0.048
		c-0.018,0.087-0.027,0.178-0.027,0.273c0,0.087,0.009,0.178,0.027,0.273c-0.26-0.036-0.517-0.055-0.772-0.055h-0.246v1.148h0.444
		c0.255,0,0.508-0.021,0.759-0.062c-0.018,0.096-0.027,0.187-0.027,0.273c0,0.096,0.009,0.187,0.027,0.273
		c-0.25-0.036-0.503-0.055-0.759-0.055h-0.444v1.374c0,0.278,0.018,0.561,0.055,0.848c-0.105-0.019-0.214-0.027-0.328-0.027
		c-0.096,0-0.196,0.009-0.301,0.027c0.037-0.287,0.055-0.569,0.055-0.848v-1.374h-0.957c-0.037,0.52-0.114,0.9-0.232,1.142
		c-0.205,0.41-0.472,0.761-0.8,1.053c-0.209-0.128-0.421-0.228-0.636-0.301c0.551-0.405,0.898-0.877,1.039-1.415
		c0.037-0.142,0.066-0.301,0.089-0.479h-0.41c-0.255,0-0.513,0.019-0.772,0.055c0.018-0.087,0.027-0.178,0.027-0.273
		c0-0.087-0.009-0.178-0.027-0.273c0.26,0.041,0.517,0.062,0.772,0.062h0.444c0.009-0.142,0.014-0.289,0.014-0.444
		c0-0.251-0.002-0.485-0.007-0.704H35.69c-0.255,0-0.508,0.019-0.759,0.055c0.018-0.096,0.027-0.187,0.027-0.273
		c0-0.096-0.009-0.187-0.027-0.273c0.25,0.032,0.503,0.048,0.759,0.048h0.26C35.936,142.214,35.913,141.778,35.881,141.409z
		 M37.413,144.308v-1.148H36.49c-0.004,0.214-0.007,0.449-0.007,0.704c0,0.159-0.002,0.308-0.007,0.444H37.413z"/>
	<path d="M41.487,141.409c0.205,0.132,0.426,0.224,0.663,0.273c-0.127,0.114-0.267,0.354-0.417,0.718
		c-0.082,0.241-0.182,0.48-0.301,0.718v3.944c0,0.306,0.018,0.606,0.055,0.902c-0.096-0.019-0.196-0.027-0.301-0.027
		c-0.086,0-0.178,0.009-0.273,0.027c0.041-0.296,0.062-0.597,0.062-0.902v-3.11c-0.223,0.351-0.472,0.697-0.745,1.039
		c-0.078-0.214-0.178-0.39-0.301-0.526c0.419-0.429,0.752-0.887,0.998-1.374C41.177,142.612,41.364,142.052,41.487,141.409z
		 M44.686,143.617c0.278,0.155,0.517,0.255,0.718,0.301c-0.269,0.533-0.577,1.538-0.923,3.015h0.923
		c0.296,0,0.597-0.021,0.902-0.062c-0.018,0.114-0.027,0.226-0.027,0.335c0,0.096,0.009,0.196,0.027,0.301
		c-0.305-0.041-0.606-0.062-0.902-0.062h-2.769c-0.296,0-0.597,0.021-0.902,0.062c0.018-0.104,0.027-0.205,0.027-0.301
		c0-0.109-0.009-0.221-0.027-0.335c0.305,0.041,0.606,0.062,0.902,0.062h1.415C44.347,145.752,44.559,144.647,44.686,143.617z
		 M42.034,142.742c0.305,0.036,0.606,0.055,0.902,0.055h2.222c0.296,0,0.595-0.019,0.896-0.055
		c-0.014,0.114-0.021,0.224-0.021,0.328s0.007,0.205,0.021,0.301c-0.301-0.036-0.599-0.055-0.896-0.055h-2.222
		c-0.296,0-0.597,0.019-0.902,0.055c0.018-0.096,0.027-0.196,0.027-0.301S42.052,142.856,42.034,142.742z M42.881,143.843
		l0.745,2.427c-0.209,0.022-0.401,0.062-0.574,0.116c-0.178-1.003-0.399-1.816-0.663-2.44
		C42.54,143.94,42.704,143.906,42.881,143.843z M43.838,141.409c0.137,0.314,0.319,0.641,0.547,0.978
		c-0.164,0.041-0.317,0.125-0.458,0.253c-0.16-0.388-0.342-0.727-0.547-1.019C43.567,141.575,43.72,141.505,43.838,141.409z"/>
	<path d="M49.293,144.704c0,0.62-0.127,1.217-0.383,1.791c-0.26,0.579-0.618,1.094-1.073,1.545l-0.355-0.41
		c0.392-0.388,0.697-0.836,0.916-1.347c0.223-0.511,0.335-1.037,0.335-1.579s-0.112-1.068-0.335-1.579
		c-0.219-0.511-0.524-0.959-0.916-1.347l0.355-0.41c0.456,0.451,0.811,0.962,1.066,1.531
		C49.164,143.482,49.293,144.084,49.293,144.704z"/>
</g>
<line class="st2" x1="39.947" y1="108.566" x2="39.947" y2="91.378"/>
<g>
	<g>
		<path d="M354.115,78.848h2.327c1.495,0,2.414,1.135,2.414,2.791c0,1.287-0.56,2.95-2.446,2.95h-2.295V78.848z M354.891,83.925
			h1.504c1.007,0,1.663-0.792,1.663-2.239s-0.664-2.175-1.72-2.175h-1.447V83.925z"/>
		<path d="M362.139,81.599c-0.008-0.264-0.104-0.704-0.991-0.704c-0.216,0-0.832,0.072-0.832,0.591c0,0.344,0.216,0.424,0.76,0.56
			l0.703,0.176c0.872,0.216,1.176,0.536,1.176,1.104c0,0.863-0.712,1.383-1.655,1.383c-1.655,0-1.774-0.959-1.799-1.463h0.68
			c0.023,0.328,0.12,0.855,1.111,0.855c0.504,0,0.959-0.2,0.959-0.664c0-0.336-0.231-0.448-0.831-0.6l-0.815-0.2
			c-0.584-0.144-0.968-0.439-0.968-1.015c0-0.919,0.76-1.335,1.583-1.335c1.495,0,1.6,1.104,1.6,1.312H362.139z"/>
		<path d="M364.627,80.991v2.719c0,0.328,0.28,0.328,0.424,0.328h0.248v0.552c-0.256,0.024-0.455,0.056-0.527,0.056
			c-0.695,0-0.848-0.392-0.848-0.896v-2.759h-0.567v-0.583h0.567V79.24h0.703v1.167h0.672v0.583H364.627z"/>
	</g>
	<g>
		<path d="M370.031,80.551h0.584v1.727h1.727v0.583h-1.727v1.727h-0.584v-1.727h-1.735v-0.583h1.735V80.551z"/>
		<path d="M375.526,84.589h-0.751v-3.99h-1.312v-0.56c0.911-0.064,1.287-0.152,1.511-1.072h0.552V84.589z"/>
	</g>
</g>
<g>
	<g>
		<path d="M334.441,78.848h2.327c1.495,0,2.414,1.135,2.414,2.791c0,1.287-0.56,2.95-2.446,2.95h-2.295V78.848z M335.217,83.925
			h1.504c1.007,0,1.663-0.792,1.663-2.239s-0.664-2.175-1.72-2.175h-1.447V83.925z"/>
		<path d="M342.465,81.599c-0.008-0.264-0.104-0.704-0.991-0.704c-0.216,0-0.832,0.072-0.832,0.591c0,0.344,0.216,0.424,0.76,0.56
			l0.703,0.176c0.872,0.216,1.176,0.536,1.176,1.104c0,0.863-0.712,1.383-1.655,1.383c-1.655,0-1.774-0.959-1.799-1.463h0.68
			c0.023,0.328,0.12,0.855,1.111,0.855c0.504,0,0.959-0.2,0.959-0.664c0-0.336-0.231-0.448-0.831-0.6l-0.815-0.2
			c-0.584-0.144-0.968-0.439-0.968-1.015c0-0.919,0.76-1.335,1.583-1.335c1.495,0,1.6,1.104,1.6,1.312H342.465z"/>
		<path d="M344.953,80.991v2.719c0,0.328,0.28,0.328,0.424,0.328h0.248v0.552c-0.256,0.024-0.455,0.056-0.527,0.056
			c-0.695,0-0.848-0.392-0.848-0.896v-2.759h-0.567v-0.583h0.567V79.24h0.703v1.167h0.672v0.583H344.953z"/>
	</g>
	<g>
		<path d="M350.792,81.551c0,0.439-0.359,0.823-0.823,0.823s-0.824-0.376-0.824-0.823c0-0.464,0.376-0.824,0.824-0.824
			C350.424,80.727,350.792,81.103,350.792,81.551z"/>
	</g>
</g>
<g>
	<g>
		<path d="M354.115,25.624h2.327c1.495,0,2.414,1.135,2.414,2.791c0,1.287-0.56,2.95-2.446,2.95h-2.295V25.624z M354.891,30.701
			h1.504c1.007,0,1.663-0.792,1.663-2.239s-0.664-2.175-1.72-2.175h-1.447V30.701z"/>
		<path d="M362.139,28.375c-0.008-0.264-0.104-0.704-0.991-0.704c-0.216,0-0.832,0.072-0.832,0.592c0,0.344,0.216,0.423,0.76,0.56
			l0.703,0.176c0.872,0.216,1.176,0.536,1.176,1.104c0,0.863-0.712,1.383-1.655,1.383c-1.655,0-1.774-0.959-1.799-1.463h0.68
			c0.023,0.328,0.12,0.855,1.111,0.855c0.504,0,0.959-0.2,0.959-0.664c0-0.336-0.231-0.448-0.831-0.6l-0.815-0.2
			c-0.584-0.144-0.968-0.44-0.968-1.016c0-0.919,0.76-1.335,1.583-1.335c1.495,0,1.6,1.104,1.6,1.312H362.139z"/>
		<path d="M364.627,27.767v2.719c0,0.328,0.28,0.328,0.424,0.328h0.248v0.552c-0.256,0.024-0.455,0.056-0.527,0.056
			c-0.695,0-0.848-0.392-0.848-0.896v-2.759h-0.567v-0.583h0.567v-1.167h0.703v1.167h0.672v0.583H364.627z"/>
	</g>
	<g>
		<path d="M370.031,27.327h0.584v1.727h1.727v0.583h-1.727v1.727h-0.584v-1.727h-1.735v-0.583h1.735V27.327z"/>
		<path d="M375.526,31.365h-0.751v-3.99h-1.312v-0.56c0.911-0.064,1.287-0.152,1.511-1.072h0.552V31.365z"/>
	</g>
</g>
<g>
	<g>
		<path d="M334.441,25.624h2.327c1.495,0,2.414,1.135,2.414,2.791c0,1.287-0.56,2.95-2.446,2.95h-2.295V25.624z M335.217,30.701
			h1.504c1.007,0,1.663-0.792,1.663-2.239s-0.664-2.175-1.72-2.175h-1.447V30.701z"/>
		<path d="M342.465,28.375c-0.008-0.264-0.104-0.704-0.991-0.704c-0.216,0-0.832,0.072-0.832,0.592c0,0.344,0.216,0.423,0.76,0.56
			l0.703,0.176c0.872,0.216,1.176,0.536,1.176,1.104c0,0.863-0.712,1.383-1.655,1.383c-1.655,0-1.774-0.959-1.799-1.463h0.68
			c0.023,0.328,0.12,0.855,1.111,0.855c0.504,0,0.959-0.2,0.959-0.664c0-0.336-0.231-0.448-0.831-0.6l-0.815-0.2
			c-0.584-0.144-0.968-0.44-0.968-1.016c0-0.919,0.76-1.335,1.583-1.335c1.495,0,1.6,1.104,1.6,1.312H342.465z"/>
		<path d="M344.953,27.767v2.719c0,0.328,0.28,0.328,0.424,0.328h0.248v0.552c-0.256,0.024-0.455,0.056-0.527,0.056
			c-0.695,0-0.848-0.392-0.848-0.896v-2.759h-0.567v-0.583h0.567v-1.167h0.703v1.167h0.672v0.583H344.953z"/>
	</g>
	<g>
		<path d="M350.792,28.326c0,0.44-0.359,0.824-0.823,0.824s-0.824-0.375-0.824-0.824c0-0.463,0.376-0.823,0.824-0.823
			C350.424,27.503,350.792,27.879,350.792,28.326z"/>
	</g>
</g>
</svg>
