<?xml version="1.0" encoding="utf-8"?>
<!-- Generator: Adobe Illustrator 28.2.0, SVG Export Plug-In . SVG Version: 6.00 Build 0)  -->
<svg version="1.1" id="儗僀儎乕_1" xmlns="http://www.w3.org/2000/svg" xmlns:xlink="http://www.w3.org/1999/xlink" x="0px"
	 y="0px" width="397.314px" height="113.437px" viewBox="0 0 397.314 113.437" style="enable-background:new 0 0 397.314 113.437;"
	 xml:space="preserve">
<style type="text/css">
	.st0{fill:none;stroke:#000000;stroke-width:0.3;}
	.st1{fill:none;stroke:#000000;stroke-width:0.5;}
	.st2{fill:#FFFFFF;}
</style>
<g>
	<path d="M269.16,21.585h-9.451v-2.1h9.451V21.585z M269.16,25.711h-9.451V23.61h9.451V25.711z"/>
</g>
<line class="st0" x1="135.016" y1="33.895" x2="135.016" y2="42.92"/>
<line class="st0" x1="250.111" y1="33.895" x2="250.111" y2="42.92"/>
<polygon points="141.22,38.156 134.948,39.513 141.22,40.862 141.22,40.134 167.038,40.134 167.038,38.886 141.22,38.886 "/>
<polygon points="243.6,40.863 249.871,39.506 243.6,38.157 243.6,38.884 217.782,38.884 217.782,40.133 243.6,40.133 "/>
<g>
	<g>
		<path d="M217.2,2.578c-0.04-0.887-0.775-1.167-1.423-1.167c-0.488,0-1.311,0.136-1.311,1.007c0,0.488,0.344,0.647,0.68,0.728
			l1.639,0.376c0.744,0.176,1.304,0.624,1.304,1.535c0,1.359-1.264,1.735-2.247,1.735c-1.063,0-1.479-0.32-1.735-0.552
			c-0.488-0.439-0.584-0.919-0.584-1.455h0.728c0,1.04,0.847,1.343,1.583,1.343c0.56,0,1.503-0.144,1.503-0.967
			c0-0.6-0.28-0.792-1.223-1.016l-1.175-0.272c-0.376-0.088-1.224-0.352-1.224-1.351c0-0.896,0.584-1.775,1.975-1.775
			c2.007,0,2.207,1.199,2.239,1.831H217.2z"/>
		<path d="M219.785,6.64h-0.704V2.458h0.664v0.696h0.016c0.28-0.488,0.647-0.816,1.175-0.816c0.088,0,0.128,0.008,0.184,0.024V3.09
			h-0.264c-0.656,0-1.071,0.512-1.071,1.12V6.64z"/>
		<path d="M224.104,3.866c-0.088-0.56-0.4-0.896-0.991-0.896c-0.872,0-1.151,0.832-1.151,1.575c0,0.719,0.176,1.607,1.143,1.607
			c0.472,0,0.879-0.352,1-0.991h0.68c-0.072,0.664-0.48,1.599-1.703,1.599c-1.175,0-1.871-0.888-1.871-2.095
			c0-1.295,0.624-2.327,2.007-2.327c1.096,0,1.511,0.8,1.567,1.527H224.104z"/>
		<path d="M225.322,3.034c0-1.831,1.335-2.015,1.943-2.015c0.975,0,1.759,0.632,1.759,1.679c0,1.007-0.664,1.431-1.503,1.879
			l-0.584,0.32c-0.768,0.424-0.936,0.864-0.967,1.08h3.054V6.64h-3.846c0.04-1.167,0.567-1.791,1.319-2.231l0.744-0.432
			c0.6-0.344,1.031-0.576,1.031-1.311c0-0.448-0.288-1.016-1.111-1.016c-1.063,0-1.111,0.992-1.136,1.383H225.322z"/>
	</g>
</g>
<g>
	<g>
		<path d="M151.925,2.578c-0.04-0.887-0.775-1.167-1.423-1.167c-0.488,0-1.311,0.136-1.311,1.007c0,0.488,0.344,0.647,0.68,0.728
			l1.639,0.376c0.744,0.176,1.304,0.624,1.304,1.535c0,1.359-1.264,1.735-2.247,1.735c-1.063,0-1.479-0.32-1.735-0.552
			c-0.488-0.439-0.584-0.919-0.584-1.455h0.728c0,1.04,0.847,1.343,1.583,1.343c0.56,0,1.503-0.144,1.503-0.967
			c0-0.6-0.28-0.792-1.223-1.016l-1.175-0.272c-0.376-0.088-1.224-0.352-1.224-1.351c0-0.896,0.584-1.775,1.975-1.775
			c2.007,0,2.207,1.199,2.239,1.831H151.925z"/>
		<path d="M154.511,6.64h-0.704V2.458h0.664v0.696h0.016c0.28-0.488,0.647-0.816,1.175-0.816c0.088,0,0.128,0.008,0.184,0.024V3.09
			h-0.264c-0.656,0-1.071,0.512-1.071,1.12V6.64z"/>
		<path d="M158.829,3.866c-0.088-0.56-0.4-0.896-0.991-0.896c-0.872,0-1.151,0.832-1.151,1.575c0,0.719,0.176,1.607,1.143,1.607
			c0.472,0,0.879-0.352,1-0.991h0.68c-0.072,0.664-0.48,1.599-1.703,1.599c-1.175,0-1.871-0.888-1.871-2.095
			c0-1.295,0.624-2.327,2.007-2.327c1.096,0,1.511,0.8,1.567,1.527H158.829z"/>
		<path d="M160.047,3.034c0-1.831,1.335-2.015,1.943-2.015c0.975,0,1.759,0.632,1.759,1.679c0,1.007-0.664,1.431-1.503,1.879
			l-0.584,0.32c-0.768,0.424-0.936,0.864-0.967,1.08h3.054V6.64h-3.846c0.04-1.167,0.567-1.791,1.319-2.231l0.744-0.432
			c0.6-0.344,1.031-0.576,1.031-1.311c0-0.448-0.288-1.016-1.111-1.016c-1.063,0-1.111,0.992-1.136,1.383H160.047z"/>
	</g>
	<g>
		<path d="M171.024,2.603h0.583V4.33h1.727v0.583h-1.727V6.64h-0.583V4.913h-1.735V4.33h1.735V2.603z"/>
		<path d="M176.52,6.64h-0.752V2.65h-1.311v-0.56c0.912-0.064,1.287-0.152,1.511-1.072h0.552V6.64z"/>
	</g>
</g>
<g>
	<rect x="135.016" y="10.734" class="st1" width="115.158" height="22.146"/>
	<line class="st1" x1="192.595" y1="32.88" x2="192.595" y2="10.734"/>
	<line class="st0" x1="178.2" y1="32.88" x2="178.2" y2="10.734"/>
	<line class="st0" x1="163.806" y1="32.88" x2="163.806" y2="10.734"/>
	<line class="st0" x1="149.412" y1="32.88" x2="149.412" y2="10.734"/>
	<line class="st0" x1="206.989" y1="32.88" x2="206.989" y2="10.734"/>
	<line class="st0" x1="221.383" y1="32.88" x2="221.383" y2="10.734"/>
	<line class="st0" x1="235.778" y1="32.88" x2="235.778" y2="10.734"/>
	<rect x="144.109" y="15.531" class="st2" width="97.441" height="12.5"/>
	<g>
		<path d="M188.618,24.759h-0.846v-4.492h-1.477v-0.63c1.026-0.072,1.45-0.171,1.702-1.207h0.621V24.759z"/>
		<path d="M192.398,24.93c-1.819,0-2.17-1.936-2.17-3.25c0-1.314,0.351-3.25,2.17-3.25c1.818,0,2.169,1.936,2.169,3.25
			C194.567,22.994,194.216,24.93,192.398,24.93z M192.398,19.141c-0.91,0-1.324,0.954-1.324,2.539s0.414,2.539,1.324,2.539
			c0.909,0,1.323-0.955,1.323-2.539S193.307,19.141,192.398,19.141z"/>
		<path d="M197.402,24.93c-1.819,0-2.17-1.936-2.17-3.25c0-1.314,0.351-3.25,2.17-3.25c1.818,0,2.169,1.936,2.169,3.25
			C199.571,22.994,199.22,24.93,197.402,24.93z M197.402,19.141c-0.91,0-1.324,0.954-1.324,2.539s0.414,2.539,1.324,2.539
			c0.909,0,1.323-0.955,1.323-2.539S198.311,19.141,197.402,19.141z"/>
	</g>
</g>
<line class="st0" x1="281.906" y1="33.895" x2="281.906" y2="42.92"/>
<line class="st0" x1="397" y1="33.895" x2="397" y2="42.92"/>
<polygon points="288.11,38.156 281.839,39.513 288.11,40.862 288.11,40.134 313.928,40.134 313.928,38.886 288.11,38.886 "/>
<polygon points="390.489,40.863 396.76,39.506 390.489,38.157 390.489,38.884 364.671,38.884 364.671,40.133 390.489,40.133 "/>
<g>
	<g>
		<path d="M362.813,0.899h2.327c1.495,0,2.414,1.135,2.414,2.791c0,1.287-0.56,2.95-2.446,2.95h-2.295V0.899z M363.588,5.977h1.504
			c1.007,0,1.663-0.792,1.663-2.239s-0.664-2.175-1.72-2.175h-1.447V5.977z"/>
		<path d="M370.835,3.65c-0.008-0.264-0.104-0.704-0.991-0.704c-0.216,0-0.832,0.072-0.832,0.592c0,0.344,0.216,0.423,0.76,0.56
			l0.703,0.176c0.872,0.216,1.176,0.536,1.176,1.104c0,0.863-0.712,1.383-1.655,1.383c-1.655,0-1.774-0.959-1.799-1.463h0.68
			c0.023,0.328,0.12,0.855,1.111,0.855c0.504,0,0.959-0.2,0.959-0.664c0-0.336-0.231-0.448-0.831-0.6l-0.815-0.2
			c-0.584-0.144-0.968-0.44-0.968-1.016c0-0.919,0.76-1.335,1.583-1.335c1.495,0,1.6,1.104,1.6,1.312H370.835z"/>
		<path d="M373.324,3.042v2.719c0,0.328,0.28,0.328,0.424,0.328h0.248V6.64c-0.256,0.024-0.455,0.056-0.527,0.056
			c-0.695,0-0.848-0.392-0.848-0.896V3.042h-0.567V2.458h0.567V1.291h0.703v1.167h0.672v0.583H373.324z"/>
	</g>
</g>
<g>
	<g>
		<path d="M297.538,0.899h2.327c1.495,0,2.414,1.135,2.414,2.791c0,1.287-0.56,2.95-2.446,2.95h-2.295V0.899z M298.314,5.977h1.504
			c1.007,0,1.663-0.792,1.663-2.239s-0.664-2.175-1.72-2.175h-1.447V5.977z"/>
		<path d="M305.562,3.65c-0.008-0.264-0.104-0.704-0.991-0.704c-0.216,0-0.832,0.072-0.832,0.592c0,0.344,0.216,0.423,0.76,0.56
			l0.703,0.176c0.872,0.216,1.176,0.536,1.176,1.104c0,0.863-0.712,1.383-1.655,1.383c-1.655,0-1.774-0.959-1.799-1.463h0.68
			c0.023,0.328,0.12,0.855,1.111,0.855c0.504,0,0.959-0.2,0.959-0.664c0-0.336-0.231-0.448-0.831-0.6l-0.815-0.2
			c-0.584-0.144-0.968-0.44-0.968-1.016c0-0.919,0.76-1.335,1.583-1.335c1.495,0,1.6,1.104,1.6,1.312H305.562z"/>
		<path d="M308.05,3.042v2.719c0,0.328,0.28,0.328,0.424,0.328h0.248V6.64c-0.256,0.024-0.455,0.056-0.527,0.056
			c-0.695,0-0.848-0.392-0.848-0.896V3.042h-0.567V2.458h0.567V1.291h0.703v1.167h0.672v0.583H308.05z"/>
	</g>
	<g>
		<path d="M315.435,2.603h0.584V4.33h1.727v0.583h-1.727V6.64h-0.584V4.913H313.7V4.33h1.735V2.603z"/>
		<path d="M320.93,6.64h-0.751V2.65h-1.312v-0.56c0.911-0.064,1.287-0.152,1.511-1.072h0.552V6.64z"/>
	</g>
</g>
<g>
	<rect x="281.906" y="10.734" class="st1" width="115.158" height="22.146"/>
	<line class="st1" x1="339.483" y1="32.88" x2="339.483" y2="10.734"/>
	<line class="st0" x1="325.09" y1="32.88" x2="325.09" y2="10.734"/>
	<line class="st0" x1="310.696" y1="32.88" x2="310.696" y2="10.734"/>
	<line class="st0" x1="296.301" y1="32.88" x2="296.301" y2="10.734"/>
	<line class="st0" x1="353.879" y1="32.88" x2="353.879" y2="10.734"/>
	<line class="st0" x1="368.274" y1="32.88" x2="368.274" y2="10.734"/>
	<line class="st0" x1="382.667" y1="32.88" x2="382.667" y2="10.734"/>
	<rect x="290.999" y="15.531" class="st2" width="97.441" height="12.5"/>
	<g>
		<path d="M327.738,20.87v0.684h-6.067V20.87H327.738z"/>
		<path d="M331.355,24.759h-0.847v-4.492h-1.477v-0.63c1.026-0.072,1.449-0.171,1.701-1.207h0.622V24.759z"/>
		<path d="M333.163,20.699c0-2.062,1.503-2.269,2.188-2.269c1.098,0,1.98,0.711,1.98,1.891c0,1.134-0.747,1.612-1.692,2.116
			l-0.657,0.36c-0.864,0.477-1.054,0.972-1.09,1.215h3.439v0.747h-4.33c0.045-1.314,0.639-2.017,1.485-2.512l0.837-0.486
			c0.676-0.387,1.161-0.648,1.161-1.476c0-0.504-0.324-1.144-1.251-1.144c-1.197,0-1.251,1.116-1.278,1.558H333.163z"/>
		<path d="M339.787,21.158c0.135,0.009,0.279,0.018,0.414,0.018c0.612,0,1.206-0.243,1.206-1.035c0-0.378-0.225-1-1.17-1
			c-1.125,0-1.197,0.918-1.233,1.359h-0.774c0-0.927,0.378-2.071,2.044-2.071c1.225,0,1.953,0.703,1.953,1.666
			c0,0.811-0.468,1.198-0.81,1.306v0.018c0.611,0.198,1.053,0.63,1.053,1.476c0,1.036-0.666,2.035-2.277,2.035
			c-0.469,0-0.864-0.117-1.171-0.279c-0.702-0.369-0.891-1.099-0.945-1.828h0.819c0.027,0.594,0.172,1.396,1.351,1.396
			c0.811,0,1.378-0.495,1.378-1.225c0-1.062-0.937-1.161-1.477-1.161c-0.117,0-0.243,0.009-0.36,0.009V21.158z"/>
		<path d="M346.556,23.219v1.54h-0.792v-1.54h-2.765v-0.774l2.899-4.016h0.657v4.105h0.927v0.684H346.556z M343.729,22.535h2.035
			v-2.872h-0.019L343.729,22.535z"/>
		<path d="M349.102,21.077c0.271-0.207,0.657-0.396,1.225-0.396c1.026,0,2.079,0.72,2.079,2.025c0,0.702-0.314,2.224-2.295,2.224
			c-0.828,0-1.891-0.333-2.044-1.747h0.819c0.081,0.738,0.63,1.062,1.342,1.062c0.818,0,1.332-0.657,1.332-1.449
			c0-0.91-0.621-1.405-1.404-1.405c-0.459,0-0.873,0.216-1.171,0.604l-0.684-0.036l0.477-3.394h3.277v0.774h-2.683L349.102,21.077z"
			/>
		<path d="M356.536,20.113c-0.099-0.558-0.405-0.972-1.089-0.972c-1.242,0-1.504,1.674-1.504,2.341l0.019,0.018
			c0.197-0.342,0.639-0.774,1.503-0.774c0.774,0,1.98,0.495,1.98,2.008c0,0.648-0.171,1.116-0.603,1.584
			c-0.333,0.369-0.712,0.612-1.603,0.612c-0.486,0-1.18-0.216-1.63-0.918c-0.378-0.594-0.486-1.369-0.486-2.197
			c0-1.386,0.45-3.385,2.341-3.385c0.729,0,1.765,0.396,1.846,1.684H356.536z M355.384,24.219c0.757,0,1.242-0.594,1.242-1.45
			c0-0.558-0.297-1.332-1.278-1.332c-0.873,0-1.296,0.63-1.296,1.377C354.052,23.489,354.457,24.219,355.384,24.219z"/>
	</g>
</g>
<g>
	<path d="M260.099,76.924c0.52,0.271,1.065,0.447,1.637,0.527c-0.096,0.081-0.187,0.154-0.274,0.22
		c0.344,0.637,0.831,1.168,1.461,1.593c0.732,0.483,1.743,0.872,3.032,1.165c-0.513,0.403-0.864,0.872-1.055,1.406
		c-0.542-0.286-1.025-0.564-1.45-0.835c0,0.212,0.015,0.421,0.044,0.626c-0.652-0.059-1.3-0.088-1.944-0.088v0.923h1.153
		c0.695,0,1.396-0.033,2.099-0.099c-0.029,0.234-0.044,0.472-0.044,0.714c0,0.234,0.015,0.465,0.044,0.692
		c-0.703-0.059-1.403-0.088-2.099-0.088h-1.153v2.735c0,0.359-0.136,0.623-0.407,0.791c-0.249,0.168-0.758,0.253-1.526,0.253
		c-0.015-0.521-0.176-0.989-0.483-1.406c0.285,0.029,0.509,0.044,0.67,0.044c0.3,0,0.461-0.114,0.483-0.341v-2.076h-1.45
		c-0.711,0-1.417,0.029-2.12,0.088c0.029-0.227,0.044-0.458,0.044-0.692c0-0.242-0.015-0.479-0.044-0.714
		c0.703,0.065,1.409,0.099,2.12,0.099h1.45v-0.923h-0.044c-0.674,0-1.352,0.029-2.032,0.088c0.029-0.227,0.044-0.45,0.044-0.67
		c-0.454,0.373-0.938,0.729-1.45,1.065c-0.234-0.366-0.612-0.721-1.132-1.065c1.105-0.447,2.051-1.062,2.834-1.846
		C259.165,78.503,259.696,77.774,260.099,76.924z M258.308,83.956c0.366,0.33,0.816,0.575,1.352,0.736
		c-0.894,0.674-1.729,1.351-2.505,2.032c-0.425-0.403-0.802-0.667-1.132-0.791c0.425-0.227,0.81-0.465,1.153-0.714
		C257.645,84.853,258.023,84.432,258.308,83.956z M259.022,80.308c0.41,0.022,0.816,0.033,1.22,0.033h1.22
		c0.344,0,0.681-0.007,1.011-0.022c-0.184-0.146-0.349-0.289-0.494-0.428c-0.447-0.432-0.817-0.952-1.11-1.56
		C260.333,79.026,259.718,79.686,259.022,80.308z M262.824,84.077c0.651,0.491,1.52,1.051,2.604,1.681
		c-0.373,0.242-0.711,0.593-1.011,1.055c-0.234-0.249-0.59-0.549-1.065-0.901c-0.498-0.359-0.967-0.648-1.406-0.868
		C262.288,84.794,262.581,84.472,262.824,84.077z"/>
	<path d="M267.229,78.935c0.659,0.059,1.318,0.088,1.978,0.088h0.165v-0.121c0-0.645-0.026-1.289-0.077-1.934
		c0.388,0.051,0.857,0.077,1.406,0.077c-0.117,0.308-0.176,0.688-0.176,1.143v0.835c0.659,0,1.318-0.029,1.978-0.088
		c-0.029,0.227-0.044,0.447-0.044,0.659c0,0.22,0.015,0.443,0.044,0.67c-0.659-0.059-1.314-0.088-1.967-0.088
		c0,0.264,0.008,0.52,0.022,0.769c0.22-0.183,0.413-0.41,0.582-0.681c0.285,0.278,0.663,0.601,1.132,0.967
		c-0.308,0.205-0.583,0.498-0.824,0.879c-0.103-0.154-0.249-0.333-0.439-0.538c-0.161-0.176-0.308-0.315-0.439-0.418
		c0.015,0.286,0.029,0.561,0.044,0.824c-0.228-0.037-0.45-0.055-0.67-0.055c-0.213,0-0.429,0.018-0.648,0.055
		c0.029-0.439,0.048-0.864,0.055-1.274c-0.322,0.513-0.754,1.021-1.296,1.527c-0.22-0.308-0.598-0.601-1.132-0.879
		c0.483-0.212,0.894-0.462,1.23-0.747c0.146-0.117,0.278-0.256,0.396-0.418c-0.447,0.015-0.887,0.041-1.318,0.077
		c0.029-0.227,0.044-0.45,0.044-0.67C267.273,79.382,267.258,79.162,267.229,78.935z M269.119,82.11
		c0.396,0.146,0.894,0.278,1.494,0.396c-0.117,0.095-0.22,0.194-0.308,0.297h0.835c0.557,0,1.109-0.015,1.659-0.044
		c-0.571,1.091-1.059,1.864-1.462,2.318c-0.015,0.022-0.025,0.037-0.032,0.044c0.278,0.059,0.557,0.125,0.835,0.198
		c-0.352,0.374-0.615,0.751-0.791,1.132c-0.249-0.125-0.571-0.26-0.967-0.407c-0.11,0.081-0.22,0.165-0.33,0.252
		c-0.762,0.483-1.442,0.817-2.043,1c-0.308-0.388-0.645-0.74-1.011-1.055c0.894-0.212,1.541-0.436,1.944-0.67
		c-0.41-0.11-0.897-0.227-1.461-0.352c0.381-0.527,0.655-0.945,0.824-1.253c-0.367,0-0.726,0.011-1.077,0.033
		c0.029-0.242,0.044-0.479,0.044-0.714c0-0.168-0.015-0.344-0.044-0.527c0.476,0.029,0.959,0.044,1.45,0.044h0.176
		C268.943,82.59,269.031,82.359,269.119,82.11z M268.635,77.32l0.439,1.352c-0.417,0.059-0.802,0.146-1.153,0.264
		c-0.081-0.579-0.184-1.047-0.308-1.406C267.921,77.514,268.261,77.444,268.635,77.32z M269.953,84.824
		c0.264-0.249,0.513-0.539,0.747-0.868h-1.011c-0.103,0.227-0.224,0.473-0.362,0.736C269.547,84.729,269.755,84.772,269.953,84.824z
		 M271.261,77.32c0.337,0.168,0.765,0.268,1.285,0.297c-0.278,0.241-0.561,0.655-0.846,1.241h-0.923
		C270.931,78.462,271.092,77.95,271.261,77.32z M273.239,77.045c0.461,0.227,0.978,0.377,1.549,0.45
		c-0.205,0.308-0.374,0.747-0.505,1.318c-0.016,0.059-0.026,0.114-0.033,0.165h0.835c0.563,0,1.164-0.015,1.802-0.044
		c-0.029,0.227-0.044,0.432-0.044,0.615c0,0.256,0.015,0.479,0.044,0.67c-0.205-0.015-0.447-0.025-0.726-0.033
		c-0.08,1.517-0.168,2.483-0.264,2.9c-0.139,0.77-0.377,1.406-0.714,1.912c0.088,0.095,0.172,0.179,0.253,0.252
		c0.461,0.337,1.021,0.604,1.681,0.802c-0.477,0.432-0.77,0.846-0.879,1.241c-0.425-0.19-0.938-0.557-1.538-1.099
		c-0.103-0.11-0.194-0.216-0.274-0.318c-0.506,0.461-1.19,0.974-2.055,1.538c-0.234-0.411-0.604-0.703-1.109-0.879
		c1.069-0.491,1.827-0.963,2.273-1.417c0.088-0.081,0.173-0.161,0.253-0.242c-0.109-0.227-0.205-0.461-0.285-0.703
		c-0.205-0.667-0.345-1.3-0.418-1.9c-0.308-0.212-0.647-0.359-1.021-0.439c0.264-0.432,0.502-1.128,0.714-2.088
		C272.923,79.162,273.078,78.261,273.239,77.045z M273.634,81.429c0.197-0.007,0.406-0.018,0.626-0.033
		c-0.037,0.3-0.055,0.579-0.055,0.835c0,0.432,0.099,0.948,0.296,1.549c0.088-0.19,0.161-0.392,0.221-0.604
		c0.146-0.585,0.256-1.585,0.329-2.999h-1.088C273.869,80.594,273.758,81.011,273.634,81.429z"/>
</g>
<line class="st0" x1="281.906" y1="95.009" x2="281.906" y2="104.034"/>
<line class="st0" x1="397" y1="95.009" x2="397" y2="104.034"/>
<polygon points="288.11,99.27 281.839,100.628 288.11,101.976 288.11,101.249 313.928,101.249 313.928,100.001 288.11,100.001 "/>
<polygon points="390.489,101.977 396.76,100.62 390.489,99.271 390.489,99.999 364.671,99.999 364.671,101.247 390.489,101.247 "/>
<g>
	<g>
		<path d="M297.538,62.015h2.327c1.495,0,2.414,1.135,2.414,2.791c0,1.287-0.56,2.95-2.446,2.95h-2.295V62.015z M298.314,67.092
			h1.504c1.007,0,1.663-0.792,1.663-2.239s-0.664-2.175-1.72-2.175h-1.447V67.092z"/>
		<path d="M305.562,64.765c-0.008-0.264-0.104-0.704-0.991-0.704c-0.216,0-0.832,0.072-0.832,0.592c0,0.344,0.216,0.423,0.76,0.56
			l0.703,0.176c0.872,0.216,1.176,0.536,1.176,1.104c0,0.863-0.712,1.383-1.655,1.383c-1.655,0-1.774-0.959-1.799-1.463h0.68
			c0.023,0.328,0.12,0.855,1.111,0.855c0.504,0,0.959-0.2,0.959-0.664c0-0.336-0.231-0.448-0.831-0.6l-0.815-0.2
			c-0.584-0.144-0.968-0.44-0.968-1.016c0-0.919,0.76-1.335,1.583-1.335c1.495,0,1.6,1.104,1.6,1.312H305.562z"/>
		<path d="M308.05,64.157v2.719c0,0.328,0.28,0.328,0.424,0.328h0.248v0.552c-0.256,0.024-0.455,0.056-0.527,0.056
			c-0.695,0-0.848-0.392-0.848-0.896v-2.759h-0.567v-0.583h0.567v-1.167h0.703v1.167h0.672v0.583H308.05z"/>
	</g>
	<g>
		<path d="M315.435,63.718h0.584v1.727h1.727v0.583h-1.727v1.727h-0.584v-1.727H313.7v-0.583h1.735V63.718z"/>
		<path d="M319.851,64.557c0.12,0.008,0.248,0.016,0.368,0.016c0.543,0,1.071-0.216,1.071-0.919c0-0.336-0.2-0.888-1.04-0.888
			c-0.999,0-1.063,0.815-1.095,1.208h-0.688c0-0.824,0.335-1.839,1.814-1.839c1.088,0,1.735,0.624,1.735,1.479
			c0,0.719-0.416,1.063-0.72,1.159v0.016c0.544,0.176,0.936,0.56,0.936,1.311c0,0.919-0.592,1.807-2.023,1.807
			c-0.415,0-0.768-0.104-1.039-0.248c-0.624-0.328-0.791-0.975-0.84-1.623h0.728c0.024,0.528,0.152,1.239,1.2,1.239
			c0.719,0,1.223-0.439,1.223-1.087c0-0.944-0.831-1.032-1.311-1.032c-0.104,0-0.217,0.008-0.32,0.008V64.557z"/>
	</g>
</g>
<g>
	<g>
		<path d="M354.91,62.015h2.327c1.495,0,2.414,1.135,2.414,2.791c0,1.287-0.56,2.95-2.446,2.95h-2.295V62.015z M355.685,67.092
			h1.504c1.007,0,1.663-0.792,1.663-2.239s-0.664-2.175-1.72-2.175h-1.447V67.092z"/>
		<path d="M362.933,64.765c-0.008-0.264-0.104-0.704-0.991-0.704c-0.216,0-0.832,0.072-0.832,0.592c0,0.344,0.216,0.423,0.76,0.56
			l0.703,0.176c0.872,0.216,1.176,0.536,1.176,1.104c0,0.863-0.712,1.383-1.655,1.383c-1.655,0-1.774-0.959-1.799-1.463h0.68
			c0.023,0.328,0.12,0.855,1.111,0.855c0.504,0,0.959-0.2,0.959-0.664c0-0.336-0.231-0.448-0.831-0.6l-0.815-0.2
			c-0.584-0.144-0.968-0.44-0.968-1.016c0-0.919,0.76-1.335,1.583-1.335c1.495,0,1.6,1.104,1.6,1.312H362.933z"/>
		<path d="M365.421,64.157v2.719c0,0.328,0.28,0.328,0.424,0.328h0.248v0.552c-0.256,0.024-0.455,0.056-0.527,0.056
			c-0.695,0-0.848-0.392-0.848-0.896v-2.759h-0.567v-0.583h0.567v-1.167h0.703v1.167h0.672v0.583H365.421z"/>
	</g>
	<g>
		<path d="M372.804,63.718h0.584v1.727h1.727v0.583h-1.727v1.727h-0.584v-1.727h-1.735v-0.583h1.735V63.718z"/>
		<path d="M375.781,64.149c0-1.831,1.336-2.015,1.943-2.015c0.976,0,1.759,0.632,1.759,1.679c0,1.007-0.663,1.431-1.503,1.879
			l-0.584,0.32c-0.768,0.424-0.936,0.864-0.968,1.08h3.055v0.664h-3.846c0.04-1.167,0.567-1.791,1.319-2.231l0.743-0.432
			c0.6-0.344,1.031-0.576,1.031-1.311c0-0.448-0.287-1.016-1.111-1.016c-1.063,0-1.111,0.992-1.135,1.383H375.781z"/>
	</g>
</g>
<g>
	<rect x="281.906" y="71.849" class="st1" width="115.158" height="22.146"/>
	<line class="st1" x1="339.483" y1="93.995" x2="339.483" y2="71.849"/>
	<line class="st0" x1="325.09" y1="93.995" x2="325.09" y2="71.849"/>
	<line class="st0" x1="310.696" y1="93.995" x2="310.696" y2="71.849"/>
	<line class="st0" x1="296.301" y1="93.995" x2="296.301" y2="71.849"/>
	<line class="st0" x1="353.879" y1="93.995" x2="353.879" y2="71.849"/>
	<line class="st0" x1="368.274" y1="93.995" x2="368.274" y2="71.849"/>
	<line class="st0" x1="382.667" y1="93.995" x2="382.667" y2="71.849"/>
	<rect x="290.999" y="76.645" class="st2" width="97.441" height="12.5"/>
	<g>
		<path d="M337.566,81.984v0.684h-6.067v-0.684H337.566z"/>
		<path d="M338.284,79.679h4.375v0.693c-0.63,0.657-2.143,2.674-2.602,5.5h-0.873c0.216-1.737,1.368-4.006,2.584-5.419h-3.484
			V79.679z"/>
		<path d="M346.574,82.506c0.855,0.36,1.035,1.062,1.035,1.54c0,1.018-0.648,1.999-2.143,1.999c-0.352,0-1.018-0.09-1.521-0.486
			c-0.648-0.513-0.648-1.197-0.648-1.503c0-0.774,0.405-1.27,1.071-1.54c-0.54-0.207-0.854-0.639-0.854-1.233
			c0-0.657,0.404-1.738,1.917-1.738c1.404,0,1.954,0.892,1.954,1.63C347.384,82.083,346.853,82.362,346.574,82.506z M344.143,84.073
			c0,0.504,0.252,1.26,1.351,1.26c0.576,0,1.27-0.207,1.27-1.197c0-0.855-0.595-1.233-1.314-1.233
			C344.557,82.902,344.143,83.487,344.143,84.073z M346.565,81.201c0-0.387-0.252-0.945-1.18-0.945c-0.847,0-1.054,0.585-1.054,0.99
			c0,0.603,0.531,0.972,1.107,0.972C346.123,82.218,346.565,81.777,346.565,81.201z"/>
	</g>
</g>
<g>
	<path d="M120.35,23.648v-2.101h9.452v2.101H120.35z M125.095,17.065c0.881,0,1.65,0.769,1.65,1.669c0,0.825-0.769,1.65-1.632,1.65
		c-0.918,0-1.688-0.75-1.688-1.65C123.426,17.816,124.195,17.065,125.095,17.065z M125.095,24.811c0.881,0,1.65,0.769,1.65,1.669
		c0,0.825-0.769,1.65-1.632,1.65c-0.918,0-1.688-0.75-1.688-1.65C123.426,25.561,124.195,24.811,125.095,24.811z"/>
</g>
<line class="st0" x1="0.25" y1="33.895" x2="0.25" y2="42.92"/>
<line class="st0" x1="115.345" y1="33.895" x2="115.345" y2="42.92"/>
<polygon points="6.454,38.156 0.183,39.513 6.454,40.862 6.454,40.134 32.272,40.134 32.272,38.886 6.454,38.886 "/>
<polygon points="108.834,40.863 115.105,39.506 108.834,38.157 108.834,38.884 83.016,38.884 83.016,40.133 108.834,40.133 "/>
<g>
	<g>
		<path d="M82.434,2.578c-0.04-0.887-0.775-1.167-1.423-1.167c-0.488,0-1.311,0.136-1.311,1.007c0,0.488,0.344,0.647,0.68,0.728
			l1.639,0.376c0.744,0.176,1.304,0.624,1.304,1.535c0,1.359-1.264,1.735-2.247,1.735c-1.063,0-1.479-0.32-1.735-0.552
			c-0.488-0.439-0.584-0.919-0.584-1.455h0.728c0,1.04,0.847,1.343,1.583,1.343c0.56,0,1.503-0.144,1.503-0.967
			c0-0.6-0.28-0.792-1.223-1.016l-1.175-0.272c-0.376-0.088-1.224-0.352-1.224-1.351c0-0.896,0.584-1.775,1.975-1.775
			c2.007,0,2.207,1.199,2.239,1.831H82.434z"/>
		<path d="M85.019,6.64h-0.704V2.458h0.664v0.696h0.016c0.28-0.488,0.647-0.816,1.175-0.816c0.088,0,0.128,0.008,0.184,0.024V3.09
			h-0.264c-0.656,0-1.071,0.512-1.071,1.12V6.64z"/>
		<path d="M89.338,3.866c-0.088-0.56-0.4-0.896-0.991-0.896c-0.872,0-1.151,0.832-1.151,1.575c0,0.719,0.176,1.607,1.143,1.607
			c0.472,0,0.879-0.352,1-0.991h0.68c-0.072,0.664-0.48,1.599-1.703,1.599c-1.175,0-1.871-0.888-1.871-2.095
			c0-1.295,0.624-2.327,2.007-2.327c1.096,0,1.511,0.8,1.567,1.527H89.338z"/>
		<path d="M93.075,6.64h-0.752V2.65h-1.311v-0.56c0.912-0.064,1.287-0.152,1.511-1.072h0.552V6.64z"/>
	</g>
</g>
<g>
	<g>
		<path d="M17.16,2.578c-0.04-0.887-0.775-1.167-1.423-1.167c-0.488,0-1.311,0.136-1.311,1.007c0,0.488,0.344,0.647,0.68,0.728
			l1.639,0.376c0.744,0.176,1.304,0.624,1.304,1.535c0,1.359-1.264,1.735-2.247,1.735c-1.063,0-1.479-0.32-1.735-0.552
			c-0.488-0.439-0.584-0.919-0.584-1.455h0.728c0,1.04,0.847,1.343,1.583,1.343c0.56,0,1.503-0.144,1.503-0.967
			c0-0.6-0.28-0.792-1.223-1.016l-1.175-0.272c-0.376-0.088-1.224-0.352-1.224-1.351c0-0.896,0.584-1.775,1.975-1.775
			c2.007,0,2.207,1.199,2.239,1.831H17.16z"/>
		<path d="M19.745,6.64h-0.704V2.458h0.664v0.696h0.016c0.28-0.488,0.647-0.816,1.175-0.816c0.088,0,0.128,0.008,0.184,0.024V3.09
			h-0.264c-0.656,0-1.071,0.512-1.071,1.12V6.64z"/>
		<path d="M24.064,3.866c-0.088-0.56-0.4-0.896-0.991-0.896c-0.872,0-1.151,0.832-1.151,1.575c0,0.719,0.176,1.607,1.143,1.607
			c0.472,0,0.879-0.352,1-0.991h0.68c-0.072,0.664-0.48,1.599-1.703,1.599c-1.175,0-1.871-0.888-1.871-2.095
			c0-1.295,0.624-2.327,2.007-2.327c1.096,0,1.511,0.8,1.567,1.527H24.064z"/>
		<path d="M27.8,6.64h-0.752V2.65h-1.311v-0.56c0.912-0.064,1.287-0.152,1.511-1.072H27.8V6.64z"/>
	</g>
	<g>
		<path d="M36.259,2.603h0.583V4.33h1.727v0.583h-1.727V6.64h-0.583V4.913h-1.735V4.33h1.735V2.603z"/>
		<path d="M41.754,6.64h-0.752V2.65h-1.311v-0.56c0.912-0.064,1.287-0.152,1.511-1.072h0.552V6.64z"/>
	</g>
</g>
<g>
	<rect x="0.25" y="10.734" class="st1" width="115.158" height="22.146"/>
	<line class="st1" x1="57.829" y1="32.88" x2="57.829" y2="10.734"/>
	<line class="st0" x1="43.435" y1="32.88" x2="43.435" y2="10.734"/>
	<line class="st0" x1="29.04" y1="32.88" x2="29.04" y2="10.734"/>
	<line class="st0" x1="14.646" y1="32.88" x2="14.646" y2="10.734"/>
	<line class="st0" x1="72.223" y1="32.88" x2="72.223" y2="10.734"/>
	<line class="st0" x1="86.618" y1="32.88" x2="86.618" y2="10.734"/>
	<line class="st0" x1="101.012" y1="32.88" x2="101.012" y2="10.734"/>
	<rect x="9.343" y="15.531" class="st2" width="97.441" height="12.5"/>
	<g>
		<path d="M41.078,20.87v0.684H35.01V20.87H41.078z"/>
		<path d="M44.694,24.759h-0.846v-4.492h-1.477v-0.63c1.026-0.072,1.45-0.171,1.702-1.207h0.621V24.759z"/>
		<path d="M46.503,20.699c0-2.062,1.503-2.269,2.188-2.269c1.098,0,1.98,0.711,1.98,1.891c0,1.134-0.747,1.612-1.692,2.116
			l-0.657,0.36c-0.864,0.477-1.054,0.972-1.089,1.215h3.439v0.747h-4.331c0.045-1.314,0.639-2.017,1.486-2.512l0.837-0.486
			c0.675-0.387,1.162-0.648,1.162-1.476c0-0.504-0.324-1.144-1.251-1.144c-1.197,0-1.251,1.116-1.278,1.558H46.503z"/>
		<path d="M53.127,21.158c0.135,0.009,0.279,0.018,0.414,0.018c0.612,0,1.207-0.243,1.207-1.035c0-0.378-0.225-1-1.17-1
			c-1.125,0-1.197,0.918-1.233,1.359H51.57c0-0.927,0.378-2.071,2.044-2.071c1.224,0,1.954,0.703,1.954,1.666
			c0,0.811-0.468,1.198-0.811,1.306v0.018c0.612,0.198,1.053,0.63,1.053,1.476c0,1.036-0.666,2.035-2.277,2.035
			c-0.468,0-0.864-0.117-1.17-0.279c-0.702-0.369-0.891-1.099-0.945-1.828h0.819c0.027,0.594,0.171,1.396,1.35,1.396
			c0.811,0,1.377-0.495,1.377-1.225c0-1.062-0.936-1.161-1.476-1.161c-0.117,0-0.243,0.009-0.36,0.009V21.158z"/>
		<path d="M59.896,23.219v1.54h-0.792v-1.54H56.34v-0.774l2.899-4.016h0.657v4.105h0.927v0.684H59.896z M57.069,22.535h2.035v-2.872
			h-0.018L57.069,22.535z"/>
		<path d="M62.442,21.077c0.27-0.207,0.657-0.396,1.225-0.396c1.026,0,2.08,0.72,2.08,2.025c0,0.702-0.315,2.224-2.296,2.224
			c-0.828,0-1.891-0.333-2.043-1.747h0.819c0.081,0.738,0.63,1.062,1.341,1.062c0.819,0,1.333-0.657,1.333-1.449
			c0-0.91-0.621-1.405-1.404-1.405c-0.459,0-0.874,0.216-1.17,0.604l-0.685-0.036l0.478-3.394h3.277v0.774h-2.683L62.442,21.077z"/>
		<path d="M69.876,20.113c-0.099-0.558-0.405-0.972-1.089-0.972c-1.243,0-1.504,1.674-1.504,2.341l0.018,0.018
			c0.198-0.342,0.639-0.774,1.503-0.774c0.774,0,1.981,0.495,1.981,2.008c0,0.648-0.171,1.116-0.604,1.584
			c-0.333,0.369-0.711,0.612-1.603,0.612c-0.486,0-1.179-0.216-1.629-0.918c-0.378-0.594-0.486-1.369-0.486-2.197
			c0-1.386,0.45-3.385,2.34-3.385c0.729,0,1.765,0.396,1.846,1.684H69.876z M68.724,24.219c0.756,0,1.243-0.594,1.243-1.45
			c0-0.558-0.297-1.332-1.278-1.332c-0.874,0-1.296,0.63-1.296,1.377C67.392,23.489,67.797,24.219,68.724,24.219z"/>
		<path d="M71.459,18.565h4.375v0.693c-0.63,0.657-2.143,2.674-2.602,5.5H72.36c0.216-1.737,1.368-4.006,2.584-5.419h-3.484V18.565z
			"/>
		<path d="M79.75,21.392c0.855,0.36,1.035,1.062,1.035,1.54c0,1.018-0.648,1.999-2.143,1.999c-0.351,0-1.017-0.09-1.521-0.486
			c-0.648-0.513-0.648-1.197-0.648-1.503c0-0.774,0.405-1.27,1.071-1.54c-0.541-0.207-0.855-0.639-0.855-1.233
			c0-0.657,0.405-1.738,1.917-1.738c1.405,0,1.954,0.892,1.954,1.63C80.56,20.969,80.029,21.248,79.75,21.392z M77.319,22.958
			c0,0.504,0.252,1.26,1.35,1.26c0.576,0,1.27-0.207,1.27-1.197c0-0.855-0.594-1.233-1.314-1.233
			C77.733,21.788,77.319,22.373,77.319,22.958z M79.741,20.086c0-0.387-0.252-0.945-1.179-0.945c-0.846,0-1.053,0.585-1.053,0.99
			c0,0.603,0.531,0.972,1.107,0.972C79.3,21.104,79.741,20.663,79.741,20.086z"/>
	</g>
</g>
<g>
	<path d="M186.586,39.732c0.105,0.007,0.217,0.014,0.322,0.014c0.476,0,0.938-0.189,0.938-0.805c0-0.294-0.175-0.778-0.911-0.778
		c-0.875,0-0.932,0.715-0.959,1.058h-0.602c0-0.721,0.294-1.611,1.59-1.611c0.952,0,1.52,0.546,1.52,1.296
		c0,0.63-0.364,0.932-0.63,1.016v0.014c0.477,0.154,0.819,0.491,0.819,1.149c0,0.805-0.518,1.583-1.772,1.583
		c-0.364,0-0.672-0.091-0.91-0.217c-0.546-0.287-0.693-0.854-0.735-1.422h0.637c0.021,0.462,0.133,1.085,1.051,1.085
		c0.63,0,1.071-0.385,1.071-0.952c0-0.827-0.729-0.904-1.148-0.904c-0.091,0-0.189,0.007-0.28,0.007V39.732z"/>
	<path d="M189.217,39.375c0-1.604,1.17-1.765,1.702-1.765c0.854,0,1.541,0.553,1.541,1.471c0,0.882-0.581,1.253-1.316,1.646
		l-0.511,0.28c-0.672,0.371-0.82,0.756-0.848,0.945h2.675v0.582h-3.369c0.035-1.022,0.497-1.569,1.156-1.954l0.651-0.378
		c0.525-0.301,0.903-0.504,0.903-1.149c0-0.392-0.252-0.89-0.974-0.89c-0.932,0-0.974,0.869-0.995,1.212H189.217z"/>
	<path d="M193.207,42.534v-5.029h0.616v1.828h0.014c0.266-0.385,0.63-0.561,1.058-0.567c0.974,0,1.527,0.798,1.527,1.828
		c0,0.875-0.364,2.045-1.611,2.045c-0.624,0-0.883-0.357-1.009-0.56h-0.014v0.455H193.207z M194.783,39.319
		c-0.889,0-0.987,0.959-0.987,1.555c0,0.973,0.609,1.232,1.001,1.232c0.672,0,0.987-0.609,0.987-1.415
		C195.785,40.223,195.736,39.319,194.783,39.319z"/>
	<path d="M197.162,38.206v-0.701h0.616v0.701H197.162z M197.778,42.534h-0.616v-3.663h0.616V42.534z"/>
	<path d="M199.458,39.382v2.381c0,0.287,0.245,0.287,0.372,0.287h0.217v0.483c-0.224,0.021-0.399,0.049-0.462,0.049
		c-0.609,0-0.743-0.343-0.743-0.784v-2.417h-0.497v-0.511h0.497v-1.022h0.616v1.022h0.588v0.511H199.458z"/>
	<path d="M181.185,45.4c-0.595,1.121-0.952,1.793-0.952,3.474c0,1.155,0.399,2.01,0.959,3.109h-0.413
		c-0.729-1.092-1.205-1.968-1.205-3.278c0-1.232,0.427-2.227,1.184-3.306H181.185z"/>
	<path d="M181.738,47.375c0-1.604,1.17-1.765,1.702-1.765c0.854,0,1.541,0.553,1.541,1.471c0,0.882-0.581,1.253-1.316,1.646
		l-0.511,0.28c-0.672,0.371-0.82,0.756-0.848,0.945h2.675v0.582h-3.369c0.035-1.022,0.497-1.569,1.156-1.954l0.651-0.378
		c0.525-0.301,0.903-0.504,0.903-1.149c0-0.392-0.252-0.89-0.974-0.89c-0.932,0-0.974,0.869-0.995,1.212H181.738z"/>
	<path d="M187.115,50.534h-0.637l-1.058-3.663h0.672l0.7,2.878h0.014l0.708-2.878h0.686l0.714,2.878h0.014l0.742-2.878h0.617
		l-1.065,3.663h-0.637l-0.742-2.836h-0.014L187.115,50.534z"/>
	<path d="M192.253,46.766c1.169,0,1.702,0.988,1.702,1.933s-0.532,1.933-1.702,1.933c-1.17,0-1.702-0.988-1.702-1.933
		S191.083,46.766,192.253,46.766z M192.253,50.1c0.882,0,1.064-0.911,1.064-1.401s-0.182-1.401-1.064-1.401
		c-0.883,0-1.065,0.911-1.065,1.401S191.37,50.1,192.253,50.1z"/>
	<path d="M195.353,50.534h-0.617v-3.663h0.582v0.609h0.014c0.245-0.427,0.567-0.714,1.029-0.714c0.077,0,0.112,0.007,0.161,0.021
		v0.637h-0.231c-0.574,0-0.938,0.448-0.938,0.98V50.534z"/>
	<path d="M199.884,50.534h-0.582v-0.504h-0.014c-0.266,0.498-0.686,0.609-1.043,0.609c-1.247,0-1.611-1.169-1.611-2.045
		c0-1.03,0.553-1.828,1.527-1.828c0.666,0,0.945,0.413,1.093,0.624l0.014-0.049v-1.835h0.617V50.534z M198.259,50.106
		c0.392,0,1.001-0.259,1.001-1.232c0-0.596-0.098-1.555-0.988-1.555c-0.952,0-1.001,0.904-1.001,1.373
		C197.271,49.497,197.586,50.106,198.259,50.106z"/>
	<path d="M202.816,47.914c-0.007-0.231-0.091-0.616-0.868-0.616c-0.189,0-0.729,0.063-0.729,0.519c0,0.301,0.189,0.371,0.666,0.49
		l0.616,0.154c0.763,0.189,1.03,0.469,1.03,0.967c0,0.756-0.624,1.211-1.45,1.211c-1.45,0-1.555-0.84-1.576-1.282h0.595
		c0.021,0.287,0.105,0.75,0.974,0.75c0.441,0,0.84-0.175,0.84-0.581c0-0.294-0.203-0.393-0.728-0.525l-0.715-0.175
		c-0.511-0.126-0.847-0.385-0.847-0.89c0-0.805,0.666-1.169,1.387-1.169c1.31,0,1.401,0.967,1.401,1.148H202.816z"/>
	<path d="M204.026,51.983c0.595-1.121,0.953-1.793,0.953-3.474c0-1.156-0.399-2.01-0.959-3.11h0.413
		c0.729,1.093,1.205,1.968,1.205,3.278c0,1.232-0.427,2.227-1.184,3.306H204.026z"/>
</g>
<g>
	<path d="M333.851,39.732c0.105,0.007,0.218,0.014,0.322,0.014c0.477,0,0.938-0.189,0.938-0.805c0-0.294-0.175-0.778-0.91-0.778
		c-0.875,0-0.932,0.715-0.959,1.058h-0.603c0-0.721,0.294-1.611,1.59-1.611c0.952,0,1.52,0.546,1.52,1.296
		c0,0.63-0.364,0.932-0.63,1.016v0.014c0.476,0.154,0.819,0.491,0.819,1.149c0,0.805-0.519,1.583-1.772,1.583
		c-0.364,0-0.672-0.091-0.91-0.217c-0.547-0.287-0.693-0.854-0.735-1.422h0.637c0.021,0.462,0.134,1.085,1.051,1.085
		c0.631,0,1.072-0.385,1.072-0.952c0-0.827-0.729-0.904-1.149-0.904c-0.091,0-0.188,0.007-0.28,0.007V39.732z"/>
	<path d="M336.483,39.375c0-1.604,1.169-1.765,1.701-1.765c0.854,0,1.541,0.553,1.541,1.471c0,0.882-0.581,1.253-1.316,1.646
		l-0.512,0.28c-0.672,0.371-0.819,0.756-0.848,0.945h2.676v0.582h-3.369c0.035-1.022,0.498-1.569,1.156-1.954l0.651-0.378
		c0.525-0.301,0.903-0.504,0.903-1.149c0-0.392-0.252-0.89-0.974-0.89c-0.932,0-0.974,0.869-0.994,1.212H336.483z"/>
	<path d="M340.473,42.534v-5.029h0.616v1.828h0.014c0.267-0.385,0.631-0.561,1.058-0.567c0.974,0,1.527,0.798,1.527,1.828
		c0,0.875-0.364,2.045-1.611,2.045c-0.623,0-0.882-0.357-1.008-0.56h-0.015v0.455H340.473z M342.049,39.319
		c-0.89,0-0.988,0.959-0.988,1.555c0,0.973,0.609,1.232,1.002,1.232c0.672,0,0.987-0.609,0.987-1.415
		C343.05,40.223,343.001,39.319,342.049,39.319z"/>
	<path d="M344.428,38.206v-0.701h0.616v0.701H344.428z M345.044,42.534h-0.616v-3.663h0.616V42.534z"/>
	<path d="M346.724,39.382v2.381c0,0.287,0.245,0.287,0.371,0.287h0.217v0.483c-0.224,0.021-0.399,0.049-0.462,0.049
		c-0.609,0-0.742-0.343-0.742-0.784v-2.417h-0.498v-0.511h0.498v-1.022h0.616v1.022h0.588v0.511H346.724z"/>
	<path d="M328.451,45.4c-0.595,1.121-0.952,1.793-0.952,3.474c0,1.155,0.399,2.01,0.959,3.109h-0.413
		c-0.729-1.092-1.204-1.968-1.204-3.278c0-1.232,0.427-2.227,1.184-3.306H328.451z"/>
	<path d="M329.003,47.375c0-1.604,1.169-1.765,1.701-1.765c0.854,0,1.541,0.553,1.541,1.471c0,0.882-0.581,1.253-1.316,1.646
		l-0.512,0.28c-0.672,0.371-0.819,0.756-0.848,0.945h2.676v0.582h-3.369c0.035-1.022,0.498-1.569,1.156-1.954l0.651-0.378
		c0.525-0.301,0.903-0.504,0.903-1.149c0-0.392-0.252-0.89-0.974-0.89c-0.932,0-0.974,0.869-0.994,1.212H329.003z"/>
	<path d="M334.379,50.534h-0.638l-1.058-3.663h0.673l0.7,2.878h0.014l0.708-2.878h0.687l0.714,2.878h0.015l0.742-2.878h0.616
		l-1.064,3.663h-0.638l-0.742-2.836h-0.014L334.379,50.534z"/>
	<path d="M339.518,46.766c1.169,0,1.702,0.988,1.702,1.933s-0.533,1.933-1.702,1.933c-1.17,0-1.702-0.988-1.702-1.933
		S338.348,46.766,339.518,46.766z M339.518,50.1c0.882,0,1.064-0.911,1.064-1.401s-0.183-1.401-1.064-1.401
		c-0.883,0-1.064,0.911-1.064,1.401S338.635,50.1,339.518,50.1z"/>
	<path d="M342.618,50.534h-0.616v-3.663h0.582v0.609h0.014c0.245-0.427,0.567-0.714,1.029-0.714c0.077,0,0.112,0.007,0.161,0.021
		v0.637h-0.231c-0.574,0-0.938,0.448-0.938,0.98V50.534z"/>
	<path d="M347.149,50.534h-0.581v-0.504h-0.015c-0.266,0.498-0.687,0.609-1.043,0.609c-1.247,0-1.611-1.169-1.611-2.045
		c0-1.03,0.554-1.828,1.526-1.828c0.666,0,0.946,0.413,1.093,0.624l0.015-0.049v-1.835h0.616V50.534z M345.524,50.106
		c0.393,0,1.001-0.259,1.001-1.232c0-0.596-0.098-1.555-0.987-1.555c-0.952,0-1.001,0.904-1.001,1.373
		C344.536,49.497,344.851,50.106,345.524,50.106z"/>
	<path d="M350.08,47.914c-0.007-0.231-0.091-0.616-0.868-0.616c-0.189,0-0.729,0.063-0.729,0.519c0,0.301,0.189,0.371,0.665,0.49
		l0.616,0.154c0.764,0.189,1.03,0.469,1.03,0.967c0,0.756-0.624,1.211-1.45,1.211c-1.449,0-1.555-0.84-1.576-1.282h0.596
		c0.021,0.287,0.105,0.75,0.974,0.75c0.441,0,0.841-0.175,0.841-0.581c0-0.294-0.203-0.393-0.729-0.525l-0.715-0.175
		c-0.511-0.126-0.848-0.385-0.848-0.89c0-0.805,0.666-1.169,1.387-1.169c1.311,0,1.401,0.967,1.401,1.148H350.08z"/>
	<path d="M351.29,51.983c0.596-1.121,0.952-1.793,0.952-3.474c0-1.156-0.398-2.01-0.959-3.11h0.413
		c0.729,1.093,1.205,1.968,1.205,3.278c0,1.232-0.428,2.227-1.184,3.306H351.29z"/>
</g>
<g>
	<path d="M333.851,101.061c0.105,0.007,0.218,0.014,0.322,0.014c0.477,0,0.938-0.189,0.938-0.805c0-0.294-0.175-0.778-0.91-0.778
		c-0.875,0-0.932,0.715-0.959,1.058h-0.603c0-0.721,0.294-1.611,1.59-1.611c0.952,0,1.52,0.546,1.52,1.296
		c0,0.63-0.364,0.932-0.63,1.016v0.014c0.476,0.154,0.819,0.491,0.819,1.149c0,0.805-0.519,1.583-1.772,1.583
		c-0.364,0-0.672-0.091-0.91-0.217c-0.547-0.287-0.693-0.854-0.735-1.422h0.637c0.021,0.462,0.134,1.085,1.051,1.085
		c0.631,0,1.072-0.385,1.072-0.952c0-0.827-0.729-0.904-1.149-0.904c-0.091,0-0.188,0.007-0.28,0.007V101.061z"/>
	<path d="M336.483,100.703c0-1.604,1.169-1.765,1.701-1.765c0.854,0,1.541,0.553,1.541,1.471c0,0.882-0.581,1.253-1.316,1.646
		l-0.512,0.28c-0.672,0.371-0.819,0.756-0.848,0.945h2.676v0.582h-3.369c0.035-1.022,0.498-1.569,1.156-1.954l0.651-0.378
		c0.525-0.301,0.903-0.504,0.903-1.149c0-0.392-0.252-0.89-0.974-0.89c-0.932,0-0.974,0.869-0.994,1.212H336.483z"/>
	<path d="M340.473,103.862v-5.029h0.616v1.828h0.014c0.267-0.385,0.631-0.561,1.058-0.567c0.974,0,1.527,0.798,1.527,1.828
		c0,0.875-0.364,2.045-1.611,2.045c-0.623,0-0.882-0.357-1.008-0.56h-0.015v0.455H340.473z M342.049,100.647
		c-0.89,0-0.988,0.959-0.988,1.555c0,0.973,0.609,1.232,1.002,1.232c0.672,0,0.987-0.609,0.987-1.415
		C343.05,101.551,343.001,100.647,342.049,100.647z"/>
	<path d="M344.428,99.534v-0.701h0.616v0.701H344.428z M345.044,103.862h-0.616v-3.663h0.616V103.862z"/>
	<path d="M346.724,100.71v2.381c0,0.287,0.245,0.287,0.371,0.287h0.217v0.483c-0.224,0.021-0.399,0.049-0.462,0.049
		c-0.609,0-0.742-0.343-0.742-0.784v-2.417h-0.498v-0.511h0.498v-1.022h0.616v1.022h0.588v0.511H346.724z"/>
	<path d="M328.451,106.728c-0.595,1.121-0.952,1.793-0.952,3.474c0,1.155,0.399,2.01,0.959,3.109h-0.413
		c-0.729-1.092-1.204-1.968-1.204-3.278c0-1.232,0.427-2.227,1.184-3.306H328.451z"/>
	<path d="M329.003,108.703c0-1.604,1.169-1.765,1.701-1.765c0.854,0,1.541,0.553,1.541,1.471c0,0.882-0.581,1.253-1.316,1.646
		l-0.512,0.28c-0.672,0.371-0.819,0.756-0.848,0.945h2.676v0.582h-3.369c0.035-1.022,0.498-1.569,1.156-1.954l0.651-0.378
		c0.525-0.301,0.903-0.504,0.903-1.149c0-0.392-0.252-0.89-0.974-0.89c-0.932,0-0.974,0.869-0.994,1.212H329.003z"/>
	<path d="M334.379,111.862h-0.638l-1.058-3.663h0.673l0.7,2.878h0.014l0.708-2.878h0.687l0.714,2.878h0.015l0.742-2.878h0.616
		l-1.064,3.663h-0.638l-0.742-2.836h-0.014L334.379,111.862z"/>
	<path d="M339.518,108.094c1.169,0,1.702,0.988,1.702,1.933s-0.533,1.933-1.702,1.933c-1.17,0-1.702-0.988-1.702-1.933
		S338.348,108.094,339.518,108.094z M339.518,111.428c0.882,0,1.064-0.911,1.064-1.401s-0.183-1.401-1.064-1.401
		c-0.883,0-1.064,0.911-1.064,1.401S338.635,111.428,339.518,111.428z"/>
	<path d="M342.618,111.862h-0.616v-3.663h0.582v0.609h0.014c0.245-0.427,0.567-0.714,1.029-0.714c0.077,0,0.112,0.007,0.161,0.021
		v0.637h-0.231c-0.574,0-0.938,0.448-0.938,0.98V111.862z"/>
	<path d="M347.149,111.862h-0.581v-0.504h-0.015c-0.266,0.498-0.687,0.609-1.043,0.609c-1.247,0-1.611-1.169-1.611-2.045
		c0-1.03,0.554-1.828,1.526-1.828c0.666,0,0.946,0.413,1.093,0.624l0.015-0.049v-1.835h0.616V111.862z M345.524,111.435
		c0.393,0,1.001-0.259,1.001-1.232c0-0.596-0.098-1.555-0.987-1.555c-0.952,0-1.001,0.904-1.001,1.373
		C344.536,110.825,344.851,111.435,345.524,111.435z"/>
	<path d="M350.08,109.242c-0.007-0.231-0.091-0.616-0.868-0.616c-0.189,0-0.729,0.063-0.729,0.519c0,0.301,0.189,0.371,0.665,0.49
		l0.616,0.154c0.764,0.189,1.03,0.469,1.03,0.967c0,0.756-0.624,1.211-1.45,1.211c-1.449,0-1.555-0.84-1.576-1.282h0.596
		c0.021,0.287,0.105,0.75,0.974,0.75c0.441,0,0.841-0.175,0.841-0.581c0-0.294-0.203-0.393-0.729-0.525l-0.715-0.175
		c-0.511-0.126-0.848-0.385-0.848-0.89c0-0.805,0.666-1.169,1.387-1.169c1.311,0,1.401,0.967,1.401,1.148H350.08z"/>
	<path d="M351.29,113.312c0.596-1.121,0.952-1.793,0.952-3.474c0-1.156-0.398-2.01-0.959-3.11h0.413
		c0.729,1.093,1.205,1.968,1.205,3.278c0,1.232-0.428,2.227-1.184,3.306H351.29z"/>
</g>
<g>
	<path d="M51.43,39.732c0.105,0.007,0.217,0.014,0.322,0.014c0.476,0,0.938-0.189,0.938-0.805c0-0.294-0.175-0.778-0.911-0.778
		c-0.875,0-0.932,0.715-0.959,1.058h-0.602c0-0.721,0.294-1.611,1.59-1.611c0.952,0,1.52,0.546,1.52,1.296
		c0,0.63-0.364,0.932-0.63,1.016v0.014c0.477,0.154,0.819,0.491,0.819,1.149c0,0.805-0.518,1.583-1.772,1.583
		c-0.364,0-0.672-0.091-0.91-0.217c-0.546-0.287-0.693-0.854-0.735-1.422h0.637c0.021,0.462,0.133,1.085,1.051,1.085
		c0.63,0,1.071-0.385,1.071-0.952c0-0.827-0.729-0.904-1.148-0.904c-0.091,0-0.189,0.007-0.28,0.007V39.732z"/>
	<path d="M54.061,39.375c0-1.604,1.17-1.765,1.702-1.765c0.854,0,1.541,0.553,1.541,1.471c0,0.882-0.581,1.253-1.316,1.646
		l-0.511,0.28c-0.672,0.371-0.82,0.756-0.848,0.945h2.675v0.582h-3.369c0.035-1.022,0.497-1.569,1.156-1.954l0.651-0.378
		c0.525-0.301,0.903-0.504,0.903-1.149c0-0.392-0.252-0.89-0.974-0.89c-0.932,0-0.974,0.869-0.995,1.212H54.061z"/>
	<path d="M58.051,42.534v-5.029h0.616v1.828h0.014c0.266-0.385,0.63-0.561,1.058-0.567c0.974,0,1.527,0.798,1.527,1.828
		c0,0.875-0.364,2.045-1.611,2.045c-0.624,0-0.883-0.357-1.009-0.56h-0.014v0.455H58.051z M59.627,39.319
		c-0.889,0-0.987,0.959-0.987,1.555c0,0.973,0.609,1.232,1.001,1.232c0.672,0,0.987-0.609,0.987-1.415
		C60.628,40.223,60.579,39.319,59.627,39.319z"/>
	<path d="M62.006,38.206v-0.701h0.616v0.701H62.006z M62.622,42.534h-0.616v-3.663h0.616V42.534z"/>
	<path d="M64.302,39.382v2.381c0,0.287,0.245,0.287,0.372,0.287h0.217v0.483c-0.224,0.021-0.399,0.049-0.462,0.049
		c-0.609,0-0.743-0.343-0.743-0.784v-2.417h-0.497v-0.511h0.497v-1.022h0.616v1.022h0.588v0.511H64.302z"/>
	<path d="M46.029,45.4c-0.595,1.121-0.952,1.793-0.952,3.474c0,1.155,0.399,2.01,0.959,3.109h-0.413
		c-0.729-1.092-1.205-1.968-1.205-3.278c0-1.232,0.427-2.227,1.184-3.306H46.029z"/>
	<path d="M46.581,47.375c0-1.604,1.17-1.765,1.702-1.765c0.854,0,1.541,0.553,1.541,1.471c0,0.882-0.581,1.253-1.316,1.646
		l-0.511,0.28c-0.672,0.371-0.82,0.756-0.848,0.945h2.675v0.582h-3.369c0.035-1.022,0.497-1.569,1.156-1.954l0.651-0.378
		c0.525-0.301,0.903-0.504,0.903-1.149c0-0.392-0.252-0.89-0.974-0.89c-0.932,0-0.974,0.869-0.995,1.212H46.581z"/>
	<path d="M51.958,50.534h-0.637l-1.058-3.663h0.672l0.7,2.878h0.014l0.708-2.878h0.686l0.714,2.878h0.014l0.742-2.878h0.617
		l-1.065,3.663h-0.637l-0.742-2.836h-0.014L51.958,50.534z"/>
	<path d="M57.097,46.766c1.169,0,1.702,0.988,1.702,1.933s-0.532,1.933-1.702,1.933c-1.17,0-1.702-0.988-1.702-1.933
		S55.927,46.766,57.097,46.766z M57.097,50.1c0.882,0,1.064-0.911,1.064-1.401s-0.182-1.401-1.064-1.401
		c-0.883,0-1.065,0.911-1.065,1.401S56.214,50.1,57.097,50.1z"/>
	<path d="M60.197,50.534H59.58v-3.663h0.582v0.609h0.014c0.245-0.427,0.567-0.714,1.029-0.714c0.077,0,0.112,0.007,0.161,0.021
		v0.637h-0.231c-0.574,0-0.938,0.448-0.938,0.98V50.534z"/>
	<path d="M64.727,50.534h-0.582v-0.504h-0.014c-0.266,0.498-0.686,0.609-1.043,0.609c-1.247,0-1.611-1.169-1.611-2.045
		c0-1.03,0.553-1.828,1.527-1.828c0.666,0,0.945,0.413,1.093,0.624l0.014-0.049v-1.835h0.617V50.534z M63.102,50.106
		c0.392,0,1.001-0.259,1.001-1.232c0-0.596-0.098-1.555-0.988-1.555c-0.952,0-1.001,0.904-1.001,1.373
		C62.115,49.497,62.43,50.106,63.102,50.106z"/>
	<path d="M67.66,47.914c-0.007-0.231-0.091-0.616-0.868-0.616c-0.189,0-0.729,0.063-0.729,0.519c0,0.301,0.189,0.371,0.666,0.49
		l0.616,0.154c0.763,0.189,1.03,0.469,1.03,0.967c0,0.756-0.624,1.211-1.45,1.211c-1.45,0-1.555-0.84-1.576-1.282h0.595
		c0.021,0.287,0.105,0.75,0.974,0.75c0.441,0,0.84-0.175,0.84-0.581c0-0.294-0.203-0.393-0.728-0.525l-0.715-0.175
		c-0.511-0.126-0.847-0.385-0.847-0.89c0-0.805,0.666-1.169,1.387-1.169c1.31,0,1.401,0.967,1.401,1.148H67.66z"/>
	<path d="M68.87,51.983c0.595-1.121,0.953-1.793,0.953-3.474c0-1.156-0.399-2.01-0.959-3.11h0.413
		c0.729,1.093,1.205,1.968,1.205,3.278c0,1.232-0.427,2.227-1.184,3.306H68.87z"/>
</g>
</svg>
