<?xml version="1.0" encoding="utf-8"?>
<!-- Generator: Adobe Illustrator 28.2.0, SVG Export Plug-In . SVG Version: 6.00 Build 0)  -->
<svg version="1.1" id="儗僀儎乕_1" xmlns="http://www.w3.org/2000/svg" xmlns:xlink="http://www.w3.org/1999/xlink" x="0px"
	 y="0px" width="205.303px" height="147.676px" viewBox="0 0 205.303 147.676" style="enable-background:new 0 0 205.303 147.676;"
	 xml:space="preserve">
<style type="text/css">
	.st0{fill:#DCDDDD;}
	.st1{fill:none;stroke:#9FA0A0;stroke-dasharray:1;}
	.st2{fill:none;stroke:#000000;stroke-width:0.5;}
	.st3{fill:none;stroke:#000000;stroke-width:0.3;}
	.st4{fill:#9FA0A0;stroke:#9FA0A0;stroke-width:1.5307;}
	.st5{fill:#9FA0A0;}
</style>
<g>
	<path d="M139.818,98.25c0.287,0.036,0.569,0.055,0.848,0.055h4.601c0.278,0,0.561-0.019,0.848-0.055
		c-0.019,0.096-0.027,0.196-0.027,0.301c0,0.096,0.009,0.196,0.027,0.301c-0.287-0.036-0.569-0.055-0.848-0.055h-2.249v4.532
		c0,0.296,0.019,0.588,0.055,0.875c-0.104-0.019-0.214-0.027-0.328-0.027c-0.104,0-0.214,0.009-0.328,0.027
		c0.036-0.287,0.055-0.579,0.055-0.875v-4.532h-1.805c-0.278,0-0.561,0.019-0.848,0.055c0.019-0.104,0.027-0.205,0.027-0.301
		C139.846,98.447,139.837,98.346,139.818,98.25z M143.763,99.918c0.506,0.515,1.181,1.107,2.023,1.777
		c-0.173,0.109-0.33,0.271-0.472,0.485c-0.183-0.251-0.46-0.561-0.834-0.93c-0.396-0.378-0.766-0.679-1.107-0.902
		C143.524,100.235,143.653,100.091,143.763,99.918z"/>
	<path d="M148.322,97.622c0.205,0.132,0.426,0.224,0.663,0.273c-0.128,0.114-0.267,0.354-0.417,0.718
		c-0.082,0.241-0.183,0.48-0.301,0.718v3.944c0,0.306,0.019,0.606,0.055,0.902c-0.096-0.019-0.196-0.027-0.301-0.027
		c-0.087,0-0.178,0.009-0.273,0.027c0.041-0.296,0.062-0.597,0.062-0.902v-3.11c-0.224,0.351-0.472,0.697-0.745,1.039
		c-0.077-0.214-0.178-0.39-0.301-0.526c0.419-0.429,0.752-0.887,0.998-1.374C148.013,98.825,148.199,98.264,148.322,97.622z
		 M151.522,99.83c0.278,0.155,0.518,0.255,0.718,0.301c-0.269,0.533-0.576,1.538-0.923,3.015h0.923c0.296,0,0.597-0.021,0.902-0.062
		c-0.019,0.114-0.027,0.226-0.027,0.335c0,0.096,0.009,0.196,0.027,0.301c-0.306-0.041-0.606-0.062-0.902-0.062h-2.769
		c-0.296,0-0.597,0.021-0.902,0.062c0.019-0.104,0.027-0.205,0.027-0.301c0-0.109-0.009-0.221-0.027-0.335
		c0.306,0.041,0.606,0.062,0.902,0.062h1.415C151.182,101.964,151.394,100.86,151.522,99.83z M148.869,98.955
		c0.306,0.036,0.606,0.055,0.902,0.055h2.222c0.296,0,0.595-0.019,0.896-0.055c-0.014,0.114-0.021,0.224-0.021,0.328
		s0.007,0.205,0.021,0.301c-0.301-0.036-0.6-0.055-0.896-0.055h-2.222c-0.296,0-0.597,0.019-0.902,0.055
		c0.019-0.096,0.027-0.196,0.027-0.301S148.888,99.069,148.869,98.955z M149.717,100.055l0.745,2.427
		c-0.21,0.022-0.401,0.062-0.574,0.116c-0.178-1.003-0.398-1.816-0.663-2.44C149.375,100.153,149.539,100.119,149.717,100.055z
		 M150.674,97.622c0.137,0.314,0.319,0.641,0.547,0.978c-0.164,0.041-0.316,0.125-0.458,0.253c-0.159-0.388-0.342-0.727-0.547-1.019
		C150.402,97.788,150.556,97.717,150.674,97.622z"/>
	<path d="M175.66,103.446v-5.028h0.616v1.827h0.014c0.267-0.385,0.631-0.56,1.058-0.566c0.974,0,1.527,0.798,1.527,1.827
		c0,0.876-0.364,2.046-1.611,2.046c-0.623,0-0.882-0.357-1.008-0.561h-0.015v0.455H175.66z M177.236,100.231
		c-0.89,0-0.988,0.96-0.988,1.555c0,0.974,0.609,1.233,1.002,1.233c0.672,0,0.987-0.609,0.987-1.415
		C178.237,101.134,178.189,100.231,177.236,100.231z"/>
	<path d="M179.615,99.118v-0.7h0.616v0.7H179.615z M180.232,103.446h-0.616v-3.663h0.616V103.446z"/>
	<path d="M181.911,100.294v2.381c0,0.287,0.245,0.287,0.371,0.287h0.217v0.483c-0.224,0.021-0.399,0.049-0.462,0.049
		c-0.609,0-0.742-0.343-0.742-0.784v-2.416h-0.498v-0.512h0.498V98.76h0.616v1.022h0.588v0.512H181.911z"/>
</g>
<g>
	<path d="M64.246,6.16V1.131h0.616v1.828h0.014c0.267-0.385,0.631-0.561,1.058-0.567c0.974,0,1.527,0.798,1.527,1.828
		c0,0.875-0.364,2.045-1.611,2.045c-0.623,0-0.882-0.357-1.008-0.56h-0.015V6.16H64.246z M65.822,2.945
		c-0.89,0-0.988,0.959-0.988,1.555c0,0.973,0.609,1.232,1.002,1.232c0.672,0,0.987-0.609,0.987-1.415
		C66.823,3.849,66.775,2.945,65.822,2.945z"/>
	<path d="M68.201,1.832V1.131h0.616v0.701H68.201z M68.817,6.16h-0.616V2.497h0.616V6.16z"/>
	<path d="M70.498,3.008V5.39c0,0.287,0.245,0.287,0.371,0.287h0.217V6.16c-0.224,0.021-0.399,0.049-0.462,0.049
		c-0.609,0-0.742-0.343-0.742-0.784V3.008h-0.498V2.497h0.498V1.475h0.616v1.022h0.588v0.511H70.498z"/>
	<path d="M75.265,1.026C74.67,2.147,74.313,2.819,74.313,4.5c0,1.155,0.399,2.01,0.959,3.109h-0.413
		c-0.729-1.092-1.204-1.968-1.204-3.278c0-1.232,0.427-2.227,1.184-3.306H75.265z"/>
	<path d="M78.024,6.16h-0.658V2.665h-1.149v-0.49c0.799-0.056,1.128-0.133,1.324-0.938h0.483V6.16z"/>
	<path d="M82.321,2.546c-0.077-0.435-0.315-0.757-0.848-0.757c-0.967,0-1.17,1.303-1.17,1.821l0.015,0.014
		c0.153-0.266,0.497-0.603,1.169-0.603c0.603,0,1.541,0.385,1.541,1.562c0,0.504-0.133,0.868-0.469,1.232
		c-0.26,0.287-0.554,0.477-1.247,0.477c-0.378,0-0.918-0.168-1.268-0.715c-0.294-0.462-0.378-1.064-0.378-1.708
		c0-1.079,0.35-2.634,1.82-2.634c0.567,0,1.373,0.308,1.436,1.31H82.321z M81.425,5.74c0.588,0,0.966-0.462,0.966-1.127
		c0-0.434-0.23-1.037-0.994-1.037c-0.68,0-1.009,0.49-1.009,1.072C80.388,5.173,80.703,5.74,81.425,5.74z"/>
	<path d="M89.213,3.822h-4.84V3.316h4.84V3.822z"/>
	<path d="M108.052,7.61c0.596-1.121,0.952-1.793,0.952-3.474c0-1.156-0.398-2.01-0.959-3.11h0.413
		c0.729,1.093,1.205,1.968,1.205,3.278c0,1.232-0.428,2.227-1.185,3.306H108.052z"/>
</g>
<rect x="0.176" y="71.817" class="st0" width="141.494" height="17.715"/>
<rect x="0.5" y="71.916" class="st1" width="44.042" height="17.716"/>
<polyline class="st2" points="186.177,71.638 186.177,89.532 44.266,89.532 "/>
<polyline class="st2" points="44.444,89.532 44.444,71.817 186.177,71.817 "/>
<line class="st3" x1="53.302" y1="89.532" x2="53.302" y2="71.967"/>
<line class="st3" x1="62.16" y1="89.532" x2="62.16" y2="71.967"/>
<line class="st3" x1="71.017" y1="89.532" x2="71.017" y2="71.967"/>
<line class="st3" x1="79.876" y1="89.532" x2="79.876" y2="71.967"/>
<line class="st3" x1="88.734" y1="89.532" x2="88.734" y2="71.967"/>
<line class="st3" x1="97.592" y1="89.532" x2="97.592" y2="71.967"/>
<line class="st3" x1="106.449" y1="89.532" x2="106.449" y2="71.967"/>
<line class="st3" x1="115.308" y1="89.532" x2="115.308" y2="71.967"/>
<line class="st3" x1="124.165" y1="89.532" x2="124.165" y2="71.967"/>
<line class="st3" x1="133.024" y1="89.532" x2="133.024" y2="71.967"/>
<line class="st3" x1="141.882" y1="89.532" x2="141.882" y2="71.967"/>
<line class="st3" x1="150.74" y1="89.532" x2="150.74" y2="71.967"/>
<line class="st3" x1="159.597" y1="89.532" x2="159.597" y2="71.967"/>
<line class="st3" x1="168.456" y1="89.532" x2="168.456" y2="71.967"/>
<line class="st3" x1="177.315" y1="89.532" x2="177.315" y2="71.787"/>
<polyline class="st2" points="44.743,110.73 44.743,128.446 35.884,128.446 "/>
<polyline class="st2" points="35.884,128.446 35.884,110.73 44.743,110.73 "/>
<g>
	<line class="st1" x1="17.965" y1="89.677" x2="17.965" y2="71.961"/>
	<line class="st1" x1="26.822" y1="89.677" x2="26.822" y2="71.961"/>
	<line class="st1" x1="35.68" y1="89.677" x2="35.68" y2="71.961"/>
	<line class="st1" x1="8.935" y1="89.677" x2="8.935" y2="71.961"/>
</g>
<line class="st2" x1="40.27" y1="91.714" x2="39.95" y2="108.408"/>
<g>
	<path class="st2" d="M186.311,91.128c0,0,0.227,2.609-2.607,2.609c-2.835,0-16.892,0-16.892,0s-2.325,0.68-2.325,2.324"/>
	<path class="st2" d="M142.661,91.128c0,0-0.227,2.609,2.607,2.609c2.834,0,16.892,0,16.892,0s2.326,0.68,2.326,2.324"/>
</g>
<g>
	<path class="st2" d="M35.252,91.12c0,0,0.178,2.056-2.056,2.056s-13.315,0-13.315,0s-1.832,0.535-1.832,1.831"/>
	<path class="st2" d="M0.847,91.12c0,0-0.178,2.056,2.056,2.056s13.314,0,13.314,0s1.832,0.535,1.832,1.831"/>
</g>
<path d="M81.631,12.48h5.915l-2.971,5.072L81.631,12.48z"/>
<path d="M37.081,105.152l5.972-0.178l-2.744,5.21L37.081,105.152z"/>
<line class="st2" x1="84.556" y1="8.711" x2="84.556" y2="13.711"/>
<g>
	<path d="M178.138,12.361V8.767h0.44v1.307h0.011c0.189-0.275,0.45-0.4,0.755-0.405c0.696,0,1.092,0.57,1.092,1.306
		c0,0.625-0.261,1.461-1.151,1.461c-0.445,0-0.631-0.255-0.721-0.4h-0.01v0.325H178.138z M179.264,10.063
		c-0.636,0-0.705,0.686-0.705,1.111c0,0.696,0.436,0.881,0.716,0.881c0.48,0,0.705-0.436,0.705-1.011
		C179.98,10.709,179.944,10.063,179.264,10.063z"/>
	<path d="M180.963,9.268V8.767h0.44v0.501H180.963z M181.403,12.361h-0.44V9.743h0.44V12.361z"/>
	<path d="M182.604,10.109v1.701c0,0.206,0.175,0.206,0.265,0.206h0.155v0.345c-0.16,0.015-0.285,0.035-0.33,0.035
		c-0.436,0-0.53-0.245-0.53-0.561v-1.727h-0.355V9.743h0.355v-0.73h0.44v0.73h0.42v0.366H182.604z"/>
	<path d="M180.489,17.456c-1.012,0-1.206-1.076-1.206-1.807c0-0.73,0.194-1.807,1.206-1.807c1.011,0,1.206,1.076,1.206,1.807
		C181.695,16.38,181.5,17.456,180.489,17.456z M180.489,14.238c-0.506,0-0.736,0.53-0.736,1.411s0.23,1.412,0.736,1.412
		c0.505,0,0.735-0.531,0.735-1.412S180.994,14.238,180.489,14.238z"/>
</g>
<g>
	<path d="M46.309,12.361V8.767h0.44v1.307h0.01c0.19-0.275,0.45-0.4,0.756-0.405c0.695,0,1.091,0.57,1.091,1.306
		c0,0.625-0.26,1.461-1.151,1.461c-0.446,0-0.631-0.255-0.721-0.4h-0.01v0.325H46.309z M47.435,10.063
		c-0.636,0-0.706,0.686-0.706,1.111c0,0.696,0.436,0.881,0.716,0.881c0.48,0,0.706-0.436,0.706-1.011
		C48.151,10.709,48.115,10.063,47.435,10.063z"/>
	<path d="M49.133,9.268V8.767h0.44v0.501H49.133z M49.574,12.361h-0.44V9.743h0.44V12.361z"/>
	<path d="M50.774,10.109v1.701c0,0.206,0.175,0.206,0.265,0.206h0.155v0.345c-0.16,0.015-0.285,0.035-0.33,0.035
		c-0.436,0-0.531-0.245-0.531-0.561v-1.727h-0.355V9.743h0.355v-0.73h0.44v0.73h0.42v0.366H50.774z"/>
	<path d="M47.675,17.361h-0.471v-2.498h-0.821v-0.35c0.571-0.04,0.806-0.095,0.946-0.671h0.345V17.361z"/>
	<path d="M49.394,15.314c0.15-0.115,0.365-0.22,0.681-0.22c0.57,0,1.156,0.4,1.156,1.126c0,0.39-0.175,1.236-1.276,1.236
		c-0.46,0-1.051-0.185-1.136-0.971h0.456c0.045,0.411,0.35,0.591,0.746,0.591c0.456,0,0.741-0.365,0.741-0.806
		c0-0.506-0.345-0.781-0.781-0.781c-0.255,0-0.485,0.12-0.65,0.335l-0.381-0.02l0.266-1.887h1.822v0.431h-1.492L49.394,15.314z"/>
</g>
<g>
	<path d="M119.37,84.394c-1.818,0-2.17-1.936-2.17-3.25s0.352-3.25,2.17-3.25s2.17,1.936,2.17,3.25S121.189,84.394,119.37,84.394z
		 M119.37,78.605c-0.909,0-1.323,0.955-1.323,2.539c0,1.585,0.414,2.539,1.323,2.539s1.323-0.954,1.323-2.539
		C120.693,79.56,120.279,78.605,119.37,78.605z"/>
</g>
<g>
	<path d="M128.171,84.394c-1.818,0-2.17-1.936-2.17-3.25s0.352-3.25,2.17-3.25c1.818,0,2.17,1.936,2.17,3.25
		S129.989,84.394,128.171,84.394z M128.171,78.605c-0.909,0-1.323,0.955-1.323,2.539c0,1.585,0.414,2.539,1.323,2.539
		c0.909,0,1.323-0.954,1.323-2.539C129.494,79.56,129.08,78.605,128.171,78.605z"/>
</g>
<g>
	<path d="M137.702,84.223h-0.847v-4.492h-1.477v-0.63c1.026-0.072,1.449-0.172,1.701-1.207h0.622V84.223z"/>
</g>
<g>
	<path d="M145.774,84.394c-1.818,0-2.17-1.936-2.17-3.25s0.352-3.25,2.17-3.25s2.17,1.936,2.17,3.25S147.592,84.394,145.774,84.394z
		 M145.774,78.605c-0.909,0-1.323,0.955-1.323,2.539c0,1.585,0.414,2.539,1.323,2.539s1.323-0.954,1.323-2.539
		C147.097,79.56,146.683,78.605,145.774,78.605z"/>
</g>
<g>
	<path d="M154.575,84.394c-1.818,0-2.17-1.936-2.17-3.25s0.352-3.25,2.17-3.25s2.17,1.936,2.17,3.25S156.394,84.394,154.575,84.394z
		 M154.575,78.605c-0.909,0-1.323,0.955-1.323,2.539c0,1.585,0.414,2.539,1.323,2.539s1.323-0.954,1.323-2.539
		C155.899,79.56,155.484,78.605,154.575,78.605z"/>
</g>
<g>
	<path d="M163.376,84.394c-1.818,0-2.17-1.936-2.17-3.25s0.352-3.25,2.17-3.25s2.17,1.936,2.17,3.25S165.194,84.394,163.376,84.394z
		 M163.376,78.605c-0.909,0-1.323,0.955-1.323,2.539c0,1.585,0.414,2.539,1.323,2.539s1.323-0.954,1.323-2.539
		C164.699,79.56,164.285,78.605,163.376,78.605z"/>
</g>
<g>
	<path d="M172.178,84.394c-1.818,0-2.17-1.936-2.17-3.25s0.352-3.25,2.17-3.25s2.17,1.936,2.17,3.25S173.996,84.394,172.178,84.394z
		 M172.178,78.605c-0.909,0-1.323,0.955-1.323,2.539c0,1.585,0.414,2.539,1.323,2.539s1.323-0.954,1.323-2.539
		C173.501,79.56,173.087,78.605,172.178,78.605z"/>
</g>
<g>
	<path d="M180.979,84.394c-1.818,0-2.17-1.936-2.17-3.25s0.352-3.25,2.17-3.25s2.17,1.936,2.17,3.25S182.797,84.394,180.979,84.394z
		 M180.979,78.605c-0.909,0-1.323,0.955-1.323,2.539c0,1.585,0.414,2.539,1.323,2.539s1.323-0.954,1.323-2.539
		C182.302,79.56,181.888,78.605,180.979,78.605z"/>
</g>
<g>
	<path d="M5.821,84.223H4.975v-4.492H3.499v-0.63c1.026-0.072,1.45-0.172,1.702-1.207h0.621V84.223z"/>
</g>
<g>
	<path d="M40.882,122.93h-0.846v-4.492H38.56v-0.63c1.026-0.072,1.45-0.172,1.702-1.207h0.621V122.93z"/>
</g>
<g>
	<path d="M14.624,84.223h-0.846v-4.492h-1.477v-0.63c1.026-0.072,1.45-0.172,1.702-1.207h0.621V84.223z"/>
</g>
<g>
	<path d="M22.8,84.223h-0.846v-4.492h-1.477v-0.63c1.026-0.072,1.45-0.172,1.702-1.207H22.8V84.223z"/>
</g>
<g>
	<path d="M30.873,84.394c-1.819,0-2.17-1.936-2.17-3.25s0.351-3.25,2.17-3.25c1.818,0,2.169,1.936,2.169,3.25
		S32.691,84.394,30.873,84.394z M30.873,78.605c-0.91,0-1.324,0.955-1.324,2.539c0,1.585,0.414,2.539,1.324,2.539
		c0.909,0,1.323-0.954,1.323-2.539C32.196,79.56,31.782,78.605,30.873,78.605z"/>
</g>
<g>
	<path d="M41.029,84.223h-0.846v-4.492h-1.477v-0.63c1.026-0.072,1.45-0.172,1.702-1.207h0.621V84.223z"/>
</g>
<g>
	<path d="M92.966,84.394c-1.818,0-2.17-1.936-2.17-3.25s0.352-3.25,2.17-3.25s2.17,1.936,2.17,3.25S94.784,84.394,92.966,84.394z
		 M92.966,78.605c-0.909,0-1.323,0.955-1.323,2.539c0,1.585,0.414,2.539,1.323,2.539s1.323-0.954,1.323-2.539
		C94.289,79.56,93.875,78.605,92.966,78.605z"/>
</g>
<g>
	<path d="M102.497,84.223h-0.847v-4.492h-1.477v-0.63c1.026-0.072,1.449-0.172,1.701-1.207h0.622V84.223z"/>
</g>
<g>
	<path d="M111.298,84.223h-0.847v-4.492h-1.477v-0.63c1.026-0.072,1.449-0.172,1.701-1.207h0.622V84.223z"/>
</g>
<g>
	<path d="M75.469,84.394c-1.818,0-2.17-1.936-2.17-3.25s0.352-3.25,2.17-3.25s2.17,1.936,2.17,3.25S77.287,84.394,75.469,84.394z
		 M75.469,78.605c-0.909,0-1.323,0.955-1.323,2.539c0,1.585,0.414,2.539,1.323,2.539s1.323-0.954,1.323-2.539
		C76.792,79.56,76.378,78.605,75.469,78.605z"/>
</g>
<g>
	<path d="M84.27,84.394c-1.818,0-2.17-1.936-2.17-3.25s0.352-3.25,2.17-3.25s2.17,1.936,2.17,3.25S86.088,84.394,84.27,84.394z
		 M84.27,78.605c-0.909,0-1.323,0.955-1.323,2.539c0,1.585,0.414,2.539,1.323,2.539s1.323-0.954,1.323-2.539
		C85.593,79.56,85.179,78.605,84.27,78.605z"/>
</g>
<g>
	<path d="M49.065,84.394c-1.819,0-2.17-1.936-2.17-3.25s0.351-3.25,2.17-3.25c1.818,0,2.169,1.936,2.169,3.25
		S50.883,84.394,49.065,84.394z M49.065,78.605c-0.91,0-1.324,0.955-1.324,2.539c0,1.585,0.414,2.539,1.324,2.539
		c0.909,0,1.323-0.954,1.323-2.539C50.388,79.56,49.974,78.605,49.065,78.605z"/>
</g>
<g>
	<path d="M57.866,84.394c-1.818,0-2.17-1.936-2.17-3.25s0.352-3.25,2.17-3.25s2.17,1.936,2.17,3.25S59.685,84.394,57.866,84.394z
		 M57.866,78.605c-0.909,0-1.323,0.955-1.323,2.539c0,1.585,0.414,2.539,1.323,2.539s1.323-0.954,1.323-2.539
		C59.19,79.56,58.776,78.605,57.866,78.605z"/>
</g>
<g>
	<path d="M66.667,84.394c-1.818,0-2.17-1.936-2.17-3.25s0.352-3.25,2.17-3.25s2.17,1.936,2.17,3.25S68.485,84.394,66.667,84.394z
		 M66.667,78.605c-0.909,0-1.323,0.955-1.323,2.539c0,1.585,0.414,2.539,1.323,2.539s1.323-0.954,1.323-2.539
		C67.99,79.56,67.576,78.605,66.667,78.605z"/>
</g>
<rect x="44.374" y="18.887" class="st0" width="141.494" height="17.714"/>
<polyline class="st2" points="186.177,18.708 186.177,36.601 44.266,36.601 "/>
<polyline class="st2" points="44.444,36.601 44.444,18.887 186.177,18.887 "/>
<line class="st3" x1="53.302" y1="36.601" x2="53.302" y2="19.037"/>
<line class="st3" x1="62.16" y1="36.601" x2="62.16" y2="19.037"/>
<line class="st3" x1="71.017" y1="36.601" x2="71.017" y2="19.037"/>
<line class="st3" x1="79.876" y1="36.601" x2="79.876" y2="19.037"/>
<line class="st3" x1="88.734" y1="36.601" x2="88.734" y2="19.037"/>
<line class="st3" x1="97.592" y1="36.601" x2="97.592" y2="19.037"/>
<line class="st3" x1="106.449" y1="36.601" x2="106.449" y2="19.037"/>
<line class="st3" x1="115.308" y1="36.601" x2="115.308" y2="19.037"/>
<line class="st3" x1="124.165" y1="36.601" x2="124.165" y2="19.037"/>
<line class="st3" x1="133.024" y1="36.601" x2="133.024" y2="19.037"/>
<line class="st3" x1="141.882" y1="36.601" x2="141.882" y2="19.037"/>
<line class="st3" x1="150.74" y1="36.601" x2="150.74" y2="19.037"/>
<line class="st3" x1="159.597" y1="36.601" x2="159.597" y2="19.037"/>
<line class="st3" x1="168.456" y1="36.601" x2="168.456" y2="19.037"/>
<line class="st3" x1="177.315" y1="36.601" x2="177.315" y2="18.857"/>
<g>
	<path d="M119.37,31.464c-1.818,0-2.17-1.936-2.17-3.25s0.352-3.25,2.17-3.25s2.17,1.936,2.17,3.25S121.189,31.464,119.37,31.464z
		 M119.37,25.676c-0.909,0-1.323,0.954-1.323,2.539s0.414,2.539,1.323,2.539s1.323-0.955,1.323-2.539S120.279,25.676,119.37,25.676z
		"/>
</g>
<g>
	<path d="M128.171,31.464c-1.818,0-2.17-1.936-2.17-3.25s0.352-3.25,2.17-3.25c1.818,0,2.17,1.936,2.17,3.25
		S129.989,31.464,128.171,31.464z M128.171,25.676c-0.909,0-1.323,0.954-1.323,2.539s0.414,2.539,1.323,2.539
		c0.909,0,1.323-0.955,1.323-2.539S129.08,25.676,128.171,25.676z"/>
</g>
<g>
	<path d="M136.973,31.464c-1.818,0-2.17-1.936-2.17-3.25s0.352-3.25,2.17-3.25s2.17,1.936,2.17,3.25S138.791,31.464,136.973,31.464z
		 M136.973,25.676c-0.909,0-1.323,0.954-1.323,2.539s0.414,2.539,1.323,2.539s1.323-0.955,1.323-2.539
		S137.882,25.676,136.973,25.676z"/>
</g>
<g>
	<path d="M146.503,31.293h-0.847v-4.492h-1.477v-0.63c1.026-0.072,1.449-0.171,1.701-1.207h0.622V31.293z"/>
</g>
<g>
	<path d="M155.305,31.293h-0.847v-4.492h-1.477v-0.63c1.026-0.072,1.449-0.171,1.701-1.207h0.622V31.293z"/>
</g>
<g>
	<path d="M163.376,31.464c-1.818,0-2.17-1.936-2.17-3.25s0.352-3.25,2.17-3.25s2.17,1.936,2.17,3.25S165.194,31.464,163.376,31.464z
		 M163.376,25.676c-0.909,0-1.323,0.954-1.323,2.539s0.414,2.539,1.323,2.539s1.323-0.955,1.323-2.539
		S164.285,25.676,163.376,25.676z"/>
</g>
<g>
	<path d="M172.178,31.464c-1.818,0-2.17-1.936-2.17-3.25s0.352-3.25,2.17-3.25s2.17,1.936,2.17,3.25S173.996,31.464,172.178,31.464z
		 M172.178,25.676c-0.909,0-1.323,0.954-1.323,2.539s0.414,2.539,1.323,2.539s1.323-0.955,1.323-2.539
		S173.087,25.676,172.178,25.676z"/>
</g>
<g>
	<path d="M181.708,31.293h-0.847v-4.492h-1.477v-0.63c1.026-0.072,1.449-0.171,1.701-1.207h0.622V31.293z"/>
</g>
<g>
	<path d="M92.966,31.464c-1.818,0-2.17-1.936-2.17-3.25s0.352-3.25,2.17-3.25s2.17,1.936,2.17,3.25S94.784,31.464,92.966,31.464z
		 M92.966,25.676c-0.909,0-1.323,0.954-1.323,2.539s0.414,2.539,1.323,2.539s1.323-0.955,1.323-2.539S93.875,25.676,92.966,25.676z"
		/>
</g>
<g>
	<path d="M101.768,31.464c-1.818,0-2.17-1.936-2.17-3.25s0.352-3.25,2.17-3.25s2.17,1.936,2.17,3.25S103.586,31.464,101.768,31.464z
		 M101.768,25.676c-0.909,0-1.323,0.954-1.323,2.539s0.414,2.539,1.323,2.539s1.323-0.955,1.323-2.539
		S102.677,25.676,101.768,25.676z"/>
</g>
<g>
	<path d="M110.568,31.464c-1.818,0-2.17-1.936-2.17-3.25s0.352-3.25,2.17-3.25s2.17,1.936,2.17,3.25S112.387,31.464,110.568,31.464z
		 M110.568,25.676c-0.909,0-1.323,0.954-1.323,2.539s0.414,2.539,1.323,2.539s1.323-0.955,1.323-2.539
		S111.478,25.676,110.568,25.676z"/>
</g>
<g>
	<path d="M75.469,31.464c-1.818,0-2.17-1.936-2.17-3.25s0.352-3.25,2.17-3.25s2.17,1.936,2.17,3.25S77.287,31.464,75.469,31.464z
		 M75.469,25.676c-0.909,0-1.323,0.954-1.323,2.539s0.414,2.539,1.323,2.539s1.323-0.955,1.323-2.539S76.378,25.676,75.469,25.676z"
		/>
</g>
<g>
	<path d="M84.999,31.293h-0.847v-4.492h-1.477v-0.63c1.026-0.072,1.449-0.171,1.701-1.207h0.622V31.293z"/>
</g>
<g>
	<path d="M49.794,31.293h-0.846v-4.492h-1.477v-0.63c1.026-0.072,1.45-0.171,1.702-1.207h0.621V31.293z"/>
</g>
<g>
	<path d="M58.596,31.293h-0.847v-4.492h-1.477v-0.63c1.026-0.072,1.449-0.171,1.701-1.207h0.622V31.293z"/>
</g>
<g>
	<path d="M67.397,31.293H66.55v-4.492h-1.477v-0.63c1.026-0.072,1.449-0.171,1.701-1.207h0.622V31.293z"/>
</g>
<g>
	<path d="M12.239,97.599c0.155,0.014,0.31,0.021,0.465,0.021h0.554c0.155,0,0.31-0.007,0.465-0.021
		c-0.023,0.278-0.034,0.561-0.034,0.848v1.449h0.52v-1.449c0-0.287-0.009-0.569-0.027-0.848c0.16,0.014,0.317,0.021,0.472,0.021
		h0.485c0.155,0,0.312-0.007,0.472-0.021c-0.018,0.278-0.027,0.561-0.027,0.848v1.436c0.146-0.005,0.29-0.019,0.431-0.041
		c-0.018,0.087-0.027,0.178-0.027,0.273c0,0.077,0.009,0.157,0.027,0.239c-0.146-0.022-0.29-0.036-0.431-0.041v2.584
		c0,0.21-0.032,0.354-0.096,0.431c-0.119,0.183-0.369,0.278-0.752,0.287c-0.023-0.183-0.098-0.347-0.226-0.492
		c0.219,0.019,0.358,0.027,0.417,0.027c0.16-0.009,0.239-0.103,0.239-0.28v-2.57h-0.54v0.629c0,0.561-0.062,1.062-0.185,1.504
		c-0.132,0.433-0.283,0.798-0.451,1.094c-0.086-0.101-0.219-0.176-0.396-0.226c-0.127,0.178-0.396,0.271-0.807,0.28
		c-0.023-0.178-0.093-0.34-0.212-0.485c0.246,0.019,0.399,0.027,0.458,0.027c0.164-0.009,0.246-0.101,0.246-0.273v-2.55h-0.595
		v0.472c0,0.615-0.068,1.167-0.205,1.654c-0.137,0.479-0.296,0.884-0.479,1.217c-0.096-0.114-0.244-0.196-0.444-0.246
		c0.305-0.46,0.501-0.935,0.588-1.422c0.086-0.369,0.13-0.827,0.13-1.374v-0.301c-0.214,0.005-0.426,0.022-0.636,0.055
		c0.018-0.082,0.027-0.162,0.027-0.239c0-0.096-0.009-0.187-0.027-0.273c0.209,0.032,0.421,0.05,0.636,0.055v-1.449
		C12.273,98.16,12.262,97.877,12.239,97.599z M12.683,99.896h0.595V98.03h-0.595V99.896z M14.208,100.299h-0.52v2.57
		c0,0.096-0.007,0.176-0.021,0.239c0.219-0.369,0.362-0.738,0.431-1.107c0.073-0.333,0.109-0.743,0.109-1.23V100.299z
		 M14.625,99.896h0.54V98.03h-0.54V99.896z M16.129,98.002c0.16,0.019,0.351,0.027,0.574,0.027
		c-0.059,0.118-0.089,0.267-0.089,0.444v3.001c0,0.287,0.021,0.569,0.062,0.848c-0.096-0.019-0.187-0.027-0.273-0.027
		c-0.096,0-0.187,0.009-0.273,0.027c0.037-0.278,0.055-0.561,0.055-0.848v-2.728C16.183,98.501,16.165,98.253,16.129,98.002z
		 M17.079,97.346c0.182,0.019,0.374,0.027,0.574,0.027c-0.05,0.137-0.075,0.294-0.075,0.472v5.353c0,0.228-0.084,0.378-0.253,0.451
		c-0.164,0.063-0.401,0.096-0.711,0.096c-0.045-0.214-0.134-0.396-0.267-0.547h0.383c0.25,0,0.376-0.082,0.376-0.246v-5.161
		C17.106,97.645,17.097,97.497,17.079,97.346z"/>
	<path d="M18.829,97.647c0.201,0.019,0.401,0.027,0.602,0.027h0.93c0.219,0,0.44-0.009,0.663-0.027
		c-0.105,0.191-0.396,0.914-0.875,2.167c0.396,0.593,0.597,1.085,0.602,1.477c0,0.355-0.08,0.617-0.239,0.786
		c-0.201,0.2-0.485,0.301-0.854,0.301c0-0.178-0.066-0.369-0.198-0.574c0.173,0.019,0.292,0.027,0.355,0.027
		c0.296,0,0.444-0.18,0.444-0.54c0-0.355-0.201-0.829-0.602-1.422c0.228-0.533,0.454-1.107,0.677-1.723h-0.95v4.676
		c0,0.296,0.007,0.597,0.021,0.902c-0.096-0.019-0.194-0.027-0.294-0.027c-0.091,0-0.185,0.009-0.28,0.027
		c0.018-0.306,0.027-0.606,0.027-0.902v-4.546C18.856,98.066,18.847,97.857,18.829,97.647z M21.324,101.591
		c0.146,0.132,0.326,0.232,0.54,0.301c-0.451,0.479-0.871,0.962-1.258,1.449c-0.173-0.15-0.326-0.251-0.458-0.301
		c0.205-0.155,0.401-0.342,0.588-0.561C20.978,102.211,21.173,101.915,21.324,101.591z M22.329,97.298
		c0.201,0.096,0.41,0.159,0.629,0.191c-0.059,0.06-0.119,0.13-0.178,0.212c0.155,0.41,0.385,0.754,0.69,1.032
		c0.337,0.31,0.807,0.559,1.408,0.745c-0.209,0.169-0.358,0.369-0.444,0.602c-0.333-0.219-0.618-0.429-0.854-0.629
		c-0.014,0.073-0.021,0.139-0.021,0.198c0,0.077,0.009,0.159,0.027,0.246c-0.105-0.019-0.214-0.027-0.328-0.027h-0.547v0.875h0.718
		c0.25,0,0.503-0.019,0.759-0.055c-0.018,0.087-0.027,0.176-0.027,0.267c0,0.096,0.009,0.187,0.027,0.273
		c-0.255-0.036-0.508-0.055-0.759-0.055h-0.718v2.194c0,0.137-0.073,0.239-0.219,0.308c-0.132,0.063-0.403,0.096-0.813,0.096
		c-0.009-0.214-0.075-0.405-0.198-0.574c0.237,0.036,0.419,0.055,0.547,0.055c0.123,0,0.189-0.043,0.198-0.13v-1.948h-0.547
		c-0.26,0-0.517,0.019-0.772,0.055c0.018-0.087,0.027-0.178,0.027-0.273c0-0.091-0.009-0.18-0.027-0.267
		c0.255,0.036,0.513,0.055,0.772,0.055h0.547v-0.875h-0.417c-0.105,0-0.214,0.009-0.328,0.027c0.018-0.087,0.027-0.169,0.027-0.246
		c0-0.041-0.002-0.077-0.007-0.109c-0.201,0.228-0.415,0.446-0.643,0.656c-0.1-0.137-0.249-0.265-0.444-0.383
		c0.474-0.323,0.871-0.711,1.189-1.162C21.919,98.228,22.16,97.777,22.329,97.298z M21.611,99.411
		c0.073,0.009,0.139,0.014,0.198,0.014h1.449c0.096,0,0.185-0.007,0.267-0.021c-0.187-0.155-0.339-0.303-0.458-0.444
		c-0.214-0.251-0.385-0.547-0.513-0.889C22.285,98.544,21.971,98.992,21.611,99.411z M23.429,101.694
		c0.05,0.073,0.148,0.178,0.294,0.314c0.237,0.228,0.433,0.436,0.588,0.622c0.109,0.123,0.216,0.239,0.321,0.349
		c-0.127,0.041-0.303,0.132-0.526,0.273c-0.068-0.155-0.208-0.355-0.417-0.602c-0.237-0.269-0.481-0.494-0.731-0.677
		C23.145,101.897,23.302,101.803,23.429,101.694z"/>
</g>
<g>
	<g>
		<path d="M95.706,1.138h0.658v5.029h-0.764l-2.556-4.062H93.03v4.062h-0.658V1.138h0.806L95.692,5.2h0.014V1.138z"/>
		<path d="M99.737,6.167V5.634L99.723,5.62c-0.259,0.427-0.574,0.651-1.162,0.651c-0.539,0-1.19-0.259-1.19-1.135V2.503h0.616v2.431
			c0,0.602,0.308,0.805,0.707,0.805c0.777,0,1.009-0.687,1.009-1.219V2.503h0.616v3.663H99.737z"/>
		<path d="M101.241,2.503h0.581v0.519h0.015c0.133-0.196,0.448-0.624,1.106-0.624s0.868,0.399,0.974,0.595
			c0.308-0.343,0.553-0.595,1.12-0.595c0.393,0,1.135,0.203,1.135,1.233v2.535h-0.616V3.799c0-0.504-0.154-0.848-0.68-0.848
			c-0.518,0-0.861,0.49-0.861,0.98v2.234h-0.616V3.631c0-0.309-0.119-0.68-0.574-0.68c-0.351,0-0.967,0.224-0.967,1.219v1.996
			h-0.616V2.503z"/>
	</g>
</g>
<g>
	<g>
		<path d="M160.995,98.174h0.658v5.028h-0.764l-2.556-4.062h-0.015v4.062h-0.658v-5.028h0.806l2.515,4.062h0.014V98.174z"/>
		<path d="M165.026,103.203v-0.532l-0.015-0.014c-0.259,0.427-0.574,0.651-1.162,0.651c-0.539,0-1.19-0.26-1.19-1.135V99.54h0.616
			v2.431c0,0.603,0.308,0.806,0.707,0.806c0.777,0,1.009-0.687,1.009-1.219V99.54h0.616v3.663H165.026z"/>
		<path d="M166.53,99.54h0.581v0.519h0.015c0.133-0.196,0.448-0.623,1.106-0.623s0.868,0.398,0.974,0.595
			c0.308-0.343,0.553-0.595,1.12-0.595c0.393,0,1.135,0.203,1.135,1.232v2.535h-0.616v-2.367c0-0.504-0.154-0.848-0.68-0.848
			c-0.518,0-0.861,0.49-0.861,0.98v2.234h-0.616v-2.535c0-0.309-0.119-0.68-0.574-0.68c-0.351,0-0.967,0.225-0.967,1.219v1.996
			h-0.616V99.54z"/>
	</g>
</g>
<g>
	<line class="st4" x1="164.47" y1="120.225" x2="164.47" y2="111.655"/>
	<polygon class="st5" points="167.686,113.797 164.473,107.369 164.473,107.369 161.257,113.797 	"/>
</g>
<g>
	<path d="M156.488,123.186c0.26,0.032,0.524,0.048,0.793,0.048h1.196c0.123-0.296,0.244-0.613,0.362-0.95
		c0.224,0.091,0.439,0.152,0.649,0.185c-0.118,0.128-0.282,0.383-0.492,0.766h2.741c0.26,0,0.524-0.016,0.793-0.048
		c-0.022,0.096-0.034,0.196-0.034,0.301c0,0.087,0.012,0.178,0.034,0.273c-0.269-0.036-0.533-0.055-0.793-0.055h-2.967
		c-0.237,0.483-0.48,0.916-0.731,1.299v2.857c0,0.296,0.019,0.597,0.055,0.902c-0.096-0.019-0.196-0.027-0.301-0.027
		c-0.087,0-0.178,0.009-0.273,0.027c0.041-0.306,0.062-0.606,0.062-0.902v-2.229c-0.269,0.347-0.542,0.67-0.82,0.971
		c-0.146-0.123-0.337-0.224-0.574-0.301c0.506-0.419,0.964-0.902,1.374-1.449c-0.014-0.114-0.027-0.226-0.041-0.335
		c0.082,0.009,0.169,0.016,0.26,0.021c0.169-0.246,0.328-0.524,0.479-0.834h-0.978c-0.269,0-0.533,0.019-0.793,0.055
		c0.019-0.096,0.027-0.187,0.027-0.273C156.516,123.382,156.507,123.282,156.488,123.186z M158.915,124.519
		c0.219,0.022,0.438,0.034,0.656,0.034h1.894c0.224,0,0.449-0.012,0.677-0.034c-0.019,0.087-0.027,0.169-0.027,0.246
		c0.019,0.104,0.027,0.205,0.027,0.301c-0.465,0.26-0.891,0.518-1.278,0.772v0.465h0.902c0.26,0,0.524-0.021,0.793-0.062
		c-0.019,0.104-0.027,0.205-0.027,0.301s0.009,0.187,0.027,0.273c-0.269-0.036-0.533-0.055-0.793-0.055h-0.902v1.374
		c0,0.214-0.098,0.357-0.294,0.431c-0.255,0.096-0.549,0.144-0.882,0.144c-0.022-0.196-0.104-0.388-0.246-0.574
		c0.237,0.019,0.392,0.027,0.465,0.027c0.314,0,0.477-0.091,0.485-0.273v-1.128h-1.203c-0.26,0-0.524,0.019-0.793,0.055
		c0.022-0.087,0.034-0.178,0.034-0.273s-0.012-0.196-0.034-0.301c0.269,0.041,0.533,0.062,0.793,0.062h1.203v-0.574l1.073-0.718
		h-1.894c-0.219,0-0.438,0.009-0.656,0.027c0.019-0.087,0.027-0.178,0.027-0.273C158.943,124.688,158.934,124.606,158.915,124.519z"
		/>
	<path d="M164.521,122.311c0.155,0.082,0.376,0.144,0.663,0.185c-0.142,0.183-0.314,0.538-0.52,1.066
		c-0.027,0.068-0.055,0.139-0.082,0.212v4.115c0,0.301,0.019,0.6,0.055,0.896c-0.104-0.014-0.205-0.021-0.301-0.021
		s-0.187,0.007-0.273,0.021c0.032-0.296,0.048-0.595,0.048-0.896v-3.104c-0.159,0.306-0.333,0.6-0.52,0.882
		c-0.082-0.123-0.226-0.241-0.431-0.355c0.405-0.515,0.72-1.03,0.943-1.545C164.295,123.284,164.434,122.798,164.521,122.311z
		 M164.739,124.464c0.096,0.019,0.187,0.027,0.273,0.027h0.499c0.137,0,0.271-0.009,0.403-0.027
		c-0.027,0.142-0.046,0.28-0.055,0.417v2.365c0.169-0.109,0.335-0.234,0.499-0.376c0.041,0.137,0.111,0.258,0.212,0.362
		c-0.383,0.306-0.784,0.668-1.203,1.087c-0.082-0.128-0.183-0.237-0.301-0.328c0.146-0.142,0.246-0.273,0.301-0.396
		c0.041-0.118,0.062-0.217,0.062-0.294v-2.42h-0.417c-0.087,0-0.178,0.009-0.273,0.027c0.019-0.077,0.027-0.15,0.027-0.219
		C164.767,124.617,164.758,124.542,164.739,124.464z M165.758,122.714c0.118,0.392,0.28,0.813,0.485,1.265
		c-0.169,0.027-0.34,0.08-0.513,0.157c-0.087-0.401-0.241-0.836-0.465-1.306C165.439,122.812,165.603,122.774,165.758,122.714z
		 M166.517,123.213c0.219,0.032,0.439,0.048,0.663,0.048h0.301v-0.492c0-0.159-0.021-0.321-0.062-0.485
		c0.164,0.046,0.355,0.07,0.574,0.075c-0.055,0.104-0.082,0.241-0.082,0.41v0.492c0.219,0,0.438-0.016,0.656-0.048
		c-0.019,0.077-0.027,0.159-0.027,0.246c0,0.077,0.009,0.159,0.027,0.246c-0.219-0.041-0.438-0.062-0.656-0.062v0.909h0.144
		c0.337-0.456,0.69-1.051,1.06-1.784c0.155,0.146,0.321,0.267,0.499,0.362c-0.109,0.082-0.344,0.401-0.704,0.957
		c-0.101,0.164-0.203,0.319-0.308,0.465h0.383c0.219,0,0.438-0.021,0.656-0.062c-0.019,0.087-0.027,0.169-0.027,0.246
		c0,0.087,0.009,0.169,0.027,0.246c-0.219-0.032-0.438-0.048-0.656-0.048h-0.67c-0.128,0.173-0.262,0.333-0.403,0.479
		c-0.05,0.063-0.101,0.121-0.15,0.171h0.704c0.232,0,0.467-0.016,0.704-0.048c-0.036,0.21-0.055,0.417-0.055,0.622v1.948
		c0,0.228,0.019,0.453,0.055,0.677c-0.132-0.014-0.224-0.021-0.273-0.021c-0.046,0-0.137,0.007-0.273,0.021
		c0.036-0.191,0.055-0.383,0.055-0.574h-1.333c0,0.196,0.016,0.388,0.048,0.574c-0.132-0.014-0.224-0.021-0.273-0.021
		c-0.046,0-0.137,0.007-0.273,0.021c0.041-0.224,0.062-0.449,0.062-0.677v-1.661c-0.142,0.132-0.289,0.265-0.444,0.396
		c-0.091-0.137-0.226-0.255-0.403-0.355c0.287-0.205,0.562-0.426,0.827-0.663c-0.009-0.101-0.022-0.196-0.041-0.287
		c0.104,0.014,0.205,0.022,0.301,0.027c0.214-0.2,0.41-0.41,0.588-0.629h-0.827c-0.224,0-0.444,0.016-0.663,0.048
		c0.019-0.077,0.027-0.159,0.027-0.246c0-0.077-0.009-0.159-0.027-0.246c0.219,0.041,0.439,0.062,0.663,0.062h0.574v-0.909h-0.301
		c-0.224,0-0.444,0.021-0.663,0.062c0.019-0.087,0.027-0.169,0.027-0.246C166.544,123.373,166.535,123.291,166.517,123.213z
		 M167.337,126.734h1.347v-0.766h-1.292c-0.022,0.027-0.041,0.048-0.055,0.062V126.734z M167.337,127.834h1.347v-0.745h-1.347
		V127.834z"/>
	<path d="M171.889,128.213c-1.415,0-1.688-1.506-1.688-2.528s0.273-2.528,1.688-2.528c1.414,0,1.688,1.506,1.688,2.528
		S173.303,128.213,171.889,128.213z M171.889,123.71c-0.708,0-1.029,0.742-1.029,1.975s0.321,1.976,1.029,1.976
		c0.707,0,1.029-0.743,1.029-1.976S172.596,123.71,171.889,123.71z"/>
</g>
<path d="M5.126,71.159l-2.887-5.132l5.975,0.015L5.126,71.159z"/>
<polyline class="st2" points="49.54,38.473 49.54,52.172 5.017,52.172 5.017,68.674 "/>
<path d="M137.813,71.159l-2.887-5.132l5.975,0.015L137.813,71.159z"/>
<polyline class="st2" points="182.227,38.473 182.227,52.172 137.703,52.172 137.703,68.674 "/>
<g>
	<path d="M31.374,132.814c-0.189-0.883-0.924-1.044-1.408-1.044c-0.91,0-1.646,0.673-1.646,1.996c0,1.184,0.42,2.094,1.667,2.094
		c0.441,0,1.205-0.21,1.436-1.379h0.658c-0.28,1.897-1.821,1.981-2.199,1.981c-1.142,0-2.262-0.742-2.262-2.675
		c0-1.548,0.882-2.62,2.346-2.62c1.296,0,1.968,0.806,2.066,1.646H31.374z"/>
	<path d="M33.662,136.33h-0.68v-5.028h2.325c0.827,0,1.653,0.287,1.653,1.352c0,0.742-0.378,1.016-0.7,1.204
		c0.287,0.119,0.574,0.245,0.603,0.946l0.042,0.91c0.007,0.28,0.042,0.385,0.252,0.504v0.112h-0.833
		c-0.098-0.309-0.119-1.071-0.119-1.261c0-0.413-0.084-0.896-0.896-0.896h-1.646V136.33z M33.662,133.591h1.576
		c0.497,0,1.022-0.126,1.022-0.869c0-0.777-0.567-0.84-0.903-0.84h-1.695V133.591z"/>
	<path d="M37.728,133.17c0-1.604,1.17-1.765,1.702-1.765c0.854,0,1.541,0.554,1.541,1.471c0,0.883-0.581,1.254-1.316,1.646
		l-0.511,0.28c-0.672,0.371-0.82,0.756-0.848,0.945h2.675v0.581h-3.369c0.035-1.022,0.497-1.569,1.156-1.954l0.651-0.378
		c0.525-0.302,0.903-0.505,0.903-1.148c0-0.393-0.252-0.89-0.974-0.89c-0.932,0-0.974,0.868-0.995,1.211H37.728z"/>
	<path d="M43.259,136.462c-1.415,0-1.688-1.506-1.688-2.528s0.273-2.528,1.688-2.528c1.415,0,1.688,1.506,1.688,2.528
		S44.674,136.462,43.259,136.462z M43.259,131.959c-0.708,0-1.03,0.742-1.03,1.975s0.322,1.976,1.03,1.976
		c0.707,0,1.029-0.743,1.029-1.976S43.966,131.959,43.259,131.959z"/>
	<path d="M47.151,136.462c-1.415,0-1.688-1.506-1.688-2.528s0.273-2.528,1.688-2.528c1.415,0,1.688,1.506,1.688,2.528
		S48.566,136.462,47.151,136.462z M47.151,131.959c-0.708,0-1.03,0.742-1.03,1.975s0.322,1.976,1.03,1.976
		c0.707,0,1.029-0.743,1.029-1.976S47.858,131.959,47.151,131.959z"/>
	<path d="M49.39,133.094c0-0.896,0.546-1.688,1.583-1.688c1.569,0,1.723,1.485,1.723,2.283c0,0.525-0.091,2.773-1.786,2.773
		c-1.156,0-1.464-0.84-1.464-1.316h0.616c0.035,0.497,0.33,0.806,0.833,0.806c0.672,0,1.03-0.567,1.184-1.842l-0.014-0.015
		c-0.182,0.378-0.672,0.589-1.128,0.589C50.027,134.684,49.39,134.075,49.39,133.094z M51.974,133.01
		c0-0.561-0.287-1.051-0.995-1.051c-0.574,0-0.952,0.448-0.952,1.106c0,0.945,0.588,1.064,1.001,1.064
		C51.351,134.13,51.974,133.983,51.974,133.01z"/>
	<path d="M32.302,145.126l-0.355,0.41c-0.456-0.451-0.813-0.966-1.073-1.545c-0.255-0.574-0.383-1.171-0.383-1.791
		s0.13-1.222,0.39-1.805c0.255-0.569,0.611-1.08,1.066-1.531l0.355,0.41c-0.392,0.388-0.697,0.836-0.916,1.347
		c-0.223,0.511-0.335,1.037-0.335,1.579s0.112,1.068,0.335,1.579C31.605,144.291,31.91,144.739,32.302,145.126z"/>
	<path d="M33.553,141.203c0.182,0.019,0.365,0.027,0.547,0.027h0.027c0.26,0,0.517-0.009,0.772-0.027
		c-0.018,0.282-0.027,0.562-0.027,0.841v1.593c0,0.191,0.004,0.381,0.014,0.567c0.027,0.009,0.05,0.019,0.068,0.027
		c0.734,0.333,1.688,0.499,2.864,0.499c0.374,0,1.002-0.048,1.887-0.144c-0.105,0.169-0.175,0.388-0.212,0.656h-1.449
		c-1.312,0-2.342-0.176-3.09-0.526c-0.168-0.087-0.287-0.13-0.355-0.13c-0.146,0-0.374,0.21-0.684,0.629
		c-0.132-0.173-0.296-0.308-0.492-0.403l0.663-0.513c0.1-0.068,0.191-0.118,0.273-0.15c0.009-0.178,0.014-0.349,0.014-0.513v-1.894
		H34.1c-0.182,0-0.365,0.009-0.547,0.027c0.018-0.096,0.027-0.196,0.027-0.301C33.581,141.382,33.571,141.293,33.553,141.203z
		 M34.428,139.118c0.164,0.405,0.385,0.846,0.663,1.319c-0.191,0.032-0.383,0.096-0.574,0.191c-0.119-0.419-0.328-0.875-0.629-1.367
		C34.084,139.239,34.264,139.191,34.428,139.118z M36.397,138.906c0.214,0.055,0.454,0.082,0.718,0.082
		c-0.055,0.2-0.089,0.608-0.103,1.224h0.916v-1.203h0.52v1.203h0.246c0.255,0,0.513-0.016,0.772-0.048
		c-0.018,0.087-0.027,0.178-0.027,0.273c0,0.087,0.009,0.178,0.027,0.273c-0.26-0.036-0.517-0.055-0.772-0.055h-0.246v1.148h0.444
		c0.255,0,0.508-0.021,0.759-0.062c-0.018,0.096-0.027,0.187-0.027,0.273c0,0.096,0.009,0.187,0.027,0.273
		c-0.25-0.036-0.503-0.055-0.759-0.055h-0.444v1.374c0,0.278,0.018,0.561,0.055,0.848c-0.105-0.019-0.214-0.027-0.328-0.027
		c-0.096,0-0.196,0.009-0.301,0.027c0.037-0.287,0.055-0.569,0.055-0.848v-1.374h-0.957c-0.037,0.52-0.114,0.9-0.232,1.142
		c-0.205,0.41-0.472,0.761-0.8,1.053c-0.209-0.128-0.421-0.228-0.636-0.301c0.551-0.405,0.898-0.877,1.039-1.415
		c0.037-0.142,0.066-0.301,0.089-0.479h-0.41c-0.255,0-0.513,0.019-0.772,0.055c0.018-0.087,0.027-0.178,0.027-0.273
		c0-0.087-0.009-0.178-0.027-0.273c0.26,0.041,0.517,0.062,0.772,0.062h0.444c0.009-0.142,0.014-0.289,0.014-0.444
		c0-0.251-0.002-0.485-0.007-0.704h-0.267c-0.255,0-0.508,0.019-0.759,0.055c0.018-0.096,0.027-0.187,0.027-0.273
		c0-0.096-0.009-0.187-0.027-0.273c0.25,0.032,0.503,0.048,0.759,0.048h0.26C36.452,139.71,36.429,139.275,36.397,138.906z
		 M37.928,141.804v-1.148h-0.923c-0.004,0.214-0.007,0.449-0.007,0.704c0,0.159-0.002,0.308-0.007,0.444H37.928z"/>
	<path d="M42.003,138.906c0.205,0.132,0.426,0.224,0.663,0.273c-0.127,0.114-0.267,0.354-0.417,0.718
		c-0.082,0.241-0.182,0.48-0.301,0.718v3.944c0,0.306,0.018,0.606,0.055,0.902c-0.096-0.019-0.196-0.027-0.301-0.027
		c-0.086,0-0.178,0.009-0.273,0.027c0.041-0.296,0.062-0.597,0.062-0.902v-3.11c-0.223,0.351-0.472,0.697-0.745,1.039
		c-0.078-0.214-0.178-0.39-0.301-0.526c0.419-0.429,0.752-0.887,0.998-1.374C41.693,140.109,41.88,139.548,42.003,138.906z
		 M45.202,141.114c0.278,0.155,0.517,0.255,0.718,0.301c-0.269,0.533-0.577,1.538-0.923,3.015h0.923
		c0.296,0,0.597-0.021,0.902-0.062c-0.018,0.114-0.027,0.226-0.027,0.335c0,0.096,0.009,0.196,0.027,0.301
		c-0.305-0.041-0.606-0.062-0.902-0.062h-2.769c-0.296,0-0.597,0.021-0.902,0.062c0.018-0.104,0.027-0.205,0.027-0.301
		c0-0.109-0.009-0.221-0.027-0.335c0.305,0.041,0.606,0.062,0.902,0.062h1.415C44.862,143.249,45.074,142.144,45.202,141.114z
		 M42.549,140.239c0.305,0.036,0.606,0.055,0.902,0.055h2.222c0.296,0,0.595-0.019,0.896-0.055
		c-0.014,0.114-0.021,0.224-0.021,0.328s0.007,0.205,0.021,0.301c-0.301-0.036-0.599-0.055-0.896-0.055h-2.222
		c-0.296,0-0.597,0.019-0.902,0.055c0.018-0.096,0.027-0.196,0.027-0.301S42.568,140.353,42.549,140.239z M43.397,141.339
		l0.745,2.427c-0.209,0.022-0.401,0.062-0.574,0.116c-0.178-1.003-0.399-1.816-0.663-2.44
		C43.055,141.437,43.219,141.403,43.397,141.339z M44.354,138.906c0.137,0.314,0.319,0.641,0.547,0.978
		c-0.164,0.041-0.317,0.125-0.458,0.253c-0.16-0.388-0.342-0.727-0.547-1.019C44.083,139.072,44.235,139.001,44.354,138.906z"/>
	<path d="M49.809,142.201c0,0.62-0.127,1.217-0.383,1.791c-0.26,0.579-0.618,1.094-1.073,1.545l-0.355-0.41
		c0.392-0.388,0.697-0.836,0.916-1.347c0.223-0.511,0.335-1.037,0.335-1.579s-0.112-1.068-0.335-1.579
		c-0.219-0.511-0.524-0.959-0.916-1.347l0.355-0.41c0.456,0.451,0.811,0.962,1.066,1.531
		C49.679,140.979,49.809,141.581,49.809,142.201z"/>
</g>
<g>
	<g>
		<path d="M193.95,78.685h2.327c1.495,0,2.414,1.136,2.414,2.791c0,1.287-0.56,2.95-2.446,2.95h-2.295V78.685z M194.726,83.762
			h1.504c1.007,0,1.663-0.791,1.663-2.238s-0.664-2.175-1.72-2.175h-1.447V83.762z"/>
		<path d="M201.974,81.436c-0.008-0.264-0.104-0.704-0.991-0.704c-0.216,0-0.832,0.072-0.832,0.592c0,0.344,0.216,0.424,0.76,0.56
			l0.703,0.177c0.872,0.216,1.176,0.535,1.176,1.103c0,0.864-0.712,1.384-1.655,1.384c-1.655,0-1.774-0.96-1.799-1.463h0.68
			c0.023,0.327,0.12,0.855,1.111,0.855c0.504,0,0.959-0.2,0.959-0.664c0-0.336-0.231-0.447-0.831-0.6l-0.815-0.2
			c-0.584-0.144-0.968-0.439-0.968-1.016c0-0.919,0.76-1.335,1.583-1.335c1.495,0,1.6,1.104,1.6,1.312H201.974z"/>
		<path d="M204.462,80.829v2.718c0,0.328,0.28,0.328,0.424,0.328h0.248v0.552c-0.256,0.024-0.455,0.056-0.527,0.056
			c-0.695,0-0.848-0.392-0.848-0.896v-2.758h-0.567v-0.584h0.567v-1.167h0.703v1.167h0.672v0.584H204.462z"/>
	</g>
</g>
<g>
	<g>
		<path d="M193.95,25.744h2.327c1.495,0,2.414,1.135,2.414,2.791c0,1.287-0.56,2.95-2.446,2.95h-2.295V25.744z M194.726,30.821
			h1.504c1.007,0,1.663-0.791,1.663-2.238s-0.664-2.175-1.72-2.175h-1.447V30.821z"/>
		<path d="M201.974,28.495c-0.008-0.264-0.104-0.704-0.991-0.704c-0.216,0-0.832,0.072-0.832,0.591c0,0.344,0.216,0.424,0.76,0.56
			l0.703,0.176c0.872,0.216,1.176,0.536,1.176,1.103c0,0.864-0.712,1.384-1.655,1.384c-1.655,0-1.774-0.96-1.799-1.463h0.68
			c0.023,0.328,0.12,0.856,1.111,0.856c0.504,0,0.959-0.2,0.959-0.664c0-0.336-0.231-0.448-0.831-0.6l-0.815-0.2
			c-0.584-0.144-0.968-0.439-0.968-1.015c0-0.919,0.76-1.335,1.583-1.335c1.495,0,1.6,1.104,1.6,1.312H201.974z"/>
		<path d="M204.462,27.887v2.718c0,0.328,0.28,0.328,0.424,0.328h0.248v0.552c-0.256,0.024-0.455,0.056-0.527,0.056
			c-0.695,0-0.848-0.392-0.848-0.896v-2.758h-0.567v-0.583h0.567v-1.167h0.703v1.167h0.672v0.583H204.462z"/>
	</g>
</g>
</svg>
