<?xml version="1.0" encoding="utf-8"?>
<!-- Generator: Adobe Illustrator 28.2.0, SVG Export Plug-In . SVG Version: 6.00 Build 0)  -->
<svg version="1.1" id="儗僀儎乕_1" xmlns="http://www.w3.org/2000/svg" xmlns:xlink="http://www.w3.org/1999/xlink" x="0px"
	 y="0px" width="382.28px" height="150.535px" viewBox="0 0 382.28 150.535" style="enable-background:new 0 0 382.28 150.535;"
	 xml:space="preserve">
<style type="text/css">
	.st0{fill:#DCDDDD;}
	.st1{fill:none;stroke:#9FA0A0;stroke-dasharray:1;}
	.st2{fill:none;stroke:#000000;stroke-width:0.5;}
	.st3{fill:none;stroke:#000000;stroke-width:0.3;}
	.st4{fill:none;stroke:#000000;}
	.st5{fill:#9FA0A0;stroke:#9FA0A0;stroke-width:1.5307;}
	.st6{fill:#9FA0A0;}
</style>
<g>
	<path d="M53.167,97.153c0.201,0.063,0.435,0.098,0.704,0.103c-0.055,0.132-0.082,0.308-0.082,0.526v1.552h1.75
		c0.242,0,0.499-0.009,0.772-0.027c-0.018,0.101-0.027,0.191-0.027,0.273c0,0.109,0.009,0.2,0.027,0.273
		c-0.182-0.014-0.44-0.021-0.772-0.021h-1.75v2.871h2.222c0.296,0,0.597-0.019,0.902-0.055c-0.018,0.104-0.027,0.214-0.027,0.328
		c0,0.096,0.009,0.196,0.027,0.301c-0.305-0.036-0.606-0.055-0.902-0.055h-4.546c-0.296,0-0.597,0.019-0.902,0.055
		c0.018-0.104,0.027-0.205,0.027-0.301c0-0.114-0.009-0.224-0.027-0.328c0.305,0.036,0.606,0.055,0.902,0.055h1.75v-4.922
		C53.215,97.572,53.199,97.363,53.167,97.153z"/>
	<path d="M59.121,97.126c0.205,0.132,0.426,0.224,0.663,0.273c-0.127,0.114-0.267,0.354-0.417,0.718
		c-0.082,0.241-0.182,0.48-0.301,0.718v3.944c0,0.306,0.018,0.606,0.055,0.902c-0.096-0.019-0.196-0.027-0.301-0.027
		c-0.086,0-0.178,0.009-0.273,0.027c0.041-0.296,0.062-0.597,0.062-0.902v-3.11c-0.223,0.351-0.472,0.697-0.745,1.039
		c-0.078-0.214-0.178-0.39-0.301-0.526c0.419-0.429,0.752-0.887,0.998-1.374C58.811,98.329,58.998,97.769,59.121,97.126z
		 M62.32,99.334c0.278,0.155,0.517,0.255,0.718,0.301c-0.269,0.533-0.577,1.538-0.923,3.015h0.923c0.296,0,0.597-0.021,0.902-0.062
		c-0.018,0.114-0.027,0.226-0.027,0.335c0,0.096,0.009,0.196,0.027,0.301c-0.305-0.041-0.606-0.062-0.902-0.062H60.27
		c-0.296,0-0.597,0.021-0.902,0.062c0.018-0.104,0.027-0.205,0.027-0.301c0-0.109-0.009-0.221-0.027-0.335
		c0.305,0.041,0.606,0.062,0.902,0.062h1.415C61.981,101.469,62.193,100.364,62.32,99.334z M59.668,98.459
		c0.305,0.036,0.606,0.055,0.902,0.055h2.222c0.296,0,0.595-0.019,0.896-0.055c-0.014,0.114-0.021,0.224-0.021,0.328
		s0.007,0.205,0.021,0.301c-0.301-0.036-0.599-0.055-0.896-0.055H60.57c-0.296,0-0.597,0.019-0.902,0.055
		c0.018-0.096,0.027-0.196,0.027-0.301S59.686,98.573,59.668,98.459z M60.516,99.56l0.745,2.427
		c-0.209,0.022-0.401,0.062-0.574,0.116c-0.178-1.003-0.399-1.816-0.663-2.44C60.174,99.657,60.338,99.623,60.516,99.56z
		 M61.473,97.126c0.137,0.314,0.319,0.641,0.547,0.978c-0.164,0.041-0.317,0.125-0.458,0.253c-0.16-0.388-0.342-0.727-0.547-1.019
		C61.202,97.292,61.354,97.222,61.473,97.126z"/>
	<path d="M88.405,102.95v-5.028h0.616v1.827h0.014c0.266-0.385,0.63-0.56,1.058-0.566c0.974,0,1.527,0.798,1.527,1.827
		c0,0.876-0.364,2.046-1.611,2.046c-0.624,0-0.883-0.357-1.009-0.561h-0.014v0.455H88.405z M89.98,99.735
		c-0.889,0-0.987,0.96-0.987,1.555c0,0.974,0.609,1.233,1.001,1.233c0.672,0,0.987-0.609,0.987-1.415
		C90.982,100.639,90.933,99.735,89.98,99.735z"/>
	<path d="M92.36,98.622v-0.7h0.616v0.7H92.36z M92.976,102.95H92.36v-3.663h0.616V102.95z"/>
	<path d="M94.656,99.799v2.381c0,0.287,0.245,0.287,0.372,0.287h0.217v0.483c-0.224,0.021-0.399,0.049-0.462,0.049
		c-0.609,0-0.743-0.343-0.743-0.784v-2.416h-0.497v-0.512h0.497v-1.022h0.616v1.022h0.588v0.512H94.656z"/>
</g>
<g>
	<path d="M276.074,6.16V1.131h0.616v1.828h0.014c0.267-0.385,0.631-0.561,1.058-0.567c0.974,0,1.527,0.798,1.527,1.828
		c0,0.875-0.364,2.045-1.611,2.045c-0.623,0-0.882-0.357-1.008-0.56h-0.015V6.16H276.074z M277.65,2.945
		c-0.89,0-0.988,0.959-0.988,1.555c0,0.973,0.609,1.232,1.002,1.232c0.672,0,0.987-0.609,0.987-1.415
		C278.651,3.849,278.603,2.945,277.65,2.945z"/>
	<path d="M280.029,1.832V1.131h0.616v0.701H280.029z M280.646,6.16h-0.616V2.497h0.616V6.16z"/>
	<path d="M282.326,3.008V5.39c0,0.287,0.245,0.287,0.371,0.287h0.217V6.16c-0.224,0.021-0.399,0.049-0.462,0.049
		c-0.609,0-0.742-0.343-0.742-0.784V3.008h-0.498V2.497h0.498V1.475h0.616v1.022h0.588v0.511H282.326z"/>
	<path d="M289.212,6.557l-0.355,0.41C288.4,6.516,288.043,6,287.783,5.422c-0.255-0.574-0.383-1.171-0.383-1.791
		s0.13-1.221,0.39-1.805c0.255-0.57,0.61-1.08,1.066-1.531l0.355,0.41c-0.392,0.387-0.697,0.836-0.916,1.347
		c-0.224,0.51-0.335,1.037-0.335,1.579s0.111,1.069,0.335,1.579C288.515,5.72,288.82,6.169,289.212,6.557z"/>
	<path d="M315.439,3.822h-4.84V3.316h4.84V3.822z"/>
	<path d="M319.034,6.16h-0.658V2.665h-1.149v-0.49c0.799-0.056,1.128-0.133,1.324-0.938h0.483V6.16z"/>
	<path d="M323.071,3.631c0,0.62-0.128,1.217-0.383,1.791c-0.26,0.579-0.617,1.094-1.073,1.545l-0.355-0.41
		c0.392-0.387,0.697-0.836,0.916-1.347c0.224-0.51,0.335-1.037,0.335-1.579s-0.111-1.069-0.335-1.579
		c-0.219-0.51-0.524-0.959-0.916-1.347l0.355-0.41c0.456,0.451,0.812,0.961,1.066,1.531C322.941,2.41,323.071,3.011,323.071,3.631z"
		/>
</g>
<rect x="98.626" y="71.857" class="st0" width="283.189" height="17.715"/>
<rect x="337.63" y="71.956" class="st1" width="44.15" height="17.717"/>
<line class="st1" x1="346.706" y1="89.717" x2="346.706" y2="72.001"/>
<line class="st1" x1="355.564" y1="89.717" x2="355.564" y2="72.001"/>
<line class="st1" x1="364.422" y1="89.717" x2="364.422" y2="72.001"/>
<line class="st1" x1="373.279" y1="89.717" x2="373.279" y2="72.001"/>
<polyline class="st2" points="337.761,71.678 337.761,89.572 195.852,89.572 "/>
<line class="st2" x1="196.028" y1="71.857" x2="337.761" y2="71.857"/>
<line class="st3" x1="204.886" y1="89.572" x2="204.886" y2="71.957"/>
<line class="st3" x1="213.744" y1="89.572" x2="213.744" y2="71.957"/>
<line class="st3" x1="222.602" y1="89.572" x2="222.602" y2="71.957"/>
<line class="st3" x1="231.46" y1="89.572" x2="231.46" y2="71.957"/>
<line class="st3" x1="240.318" y1="89.572" x2="240.318" y2="71.957"/>
<line class="st3" x1="249.176" y1="89.572" x2="249.176" y2="71.957"/>
<line class="st3" x1="258.034" y1="89.572" x2="258.034" y2="71.951"/>
<line class="st3" x1="266.892" y1="89.572" x2="266.892" y2="71.839"/>
<line class="st3" x1="275.75" y1="89.572" x2="275.75" y2="71.839"/>
<line class="st3" x1="284.608" y1="89.572" x2="284.608" y2="71.839"/>
<line class="st3" x1="293.467" y1="89.572" x2="293.467" y2="71.839"/>
<line class="st3" x1="302.324" y1="89.572" x2="302.324" y2="71.839"/>
<line class="st3" x1="311.182" y1="89.572" x2="311.182" y2="71.839"/>
<line class="st3" x1="320.041" y1="89.572" x2="320.041" y2="71.839"/>
<line class="st3" x1="328.899" y1="89.572" x2="328.899" y2="71.839"/>
<line class="st2" x1="196.029" y1="89.572" x2="54.12" y2="89.572"/>
<polyline class="st2" points="54.296,89.572 54.296,71.857 196.029,71.857 "/>
<line class="st3" x1="63.154" y1="89.572" x2="63.154" y2="71.957"/>
<line class="st3" x1="72.012" y1="89.572" x2="72.012" y2="71.957"/>
<line class="st3" x1="80.87" y1="89.572" x2="80.87" y2="71.957"/>
<line class="st3" x1="89.728" y1="89.572" x2="89.728" y2="71.957"/>
<line class="st3" x1="98.586" y1="89.572" x2="98.586" y2="71.957"/>
<line class="st3" x1="107.444" y1="89.572" x2="107.444" y2="71.957"/>
<line class="st3" x1="116.302" y1="89.572" x2="116.302" y2="71.957"/>
<line class="st3" x1="125.16" y1="89.572" x2="125.16" y2="71.957"/>
<line class="st3" x1="134.018" y1="89.572" x2="134.018" y2="71.957"/>
<line class="st3" x1="142.876" y1="89.572" x2="142.876" y2="71.957"/>
<line class="st3" x1="151.735" y1="89.572" x2="151.735" y2="71.957"/>
<line class="st3" x1="160.592" y1="89.572" x2="160.592" y2="71.957"/>
<line class="st3" x1="169.45" y1="89.572" x2="169.45" y2="71.957"/>
<line class="st3" x1="178.308" y1="89.572" x2="178.308" y2="71.957"/>
<line class="st3" x1="187.167" y1="89.572" x2="187.167" y2="71.957"/>
<path d="M294.82,12.52h5.916l-2.971,5.072L294.82,12.52z"/>
<line class="st2" x1="297.744" y1="8.751" x2="297.744" y2="13.751"/>
<g>
	<path d="M329.155,10.362V5.333h0.616v1.828h0.014c0.267-0.385,0.631-0.561,1.058-0.567c0.974,0,1.527,0.798,1.527,1.828
		c0,0.875-0.364,2.045-1.611,2.045c-0.623,0-0.882-0.357-1.008-0.56h-0.015v0.455H329.155z M330.731,7.147
		c-0.89,0-0.988,0.959-0.988,1.555c0,0.973,0.609,1.232,1.002,1.232c0.672,0,0.987-0.609,0.987-1.415
		C331.732,8.051,331.684,7.147,330.731,7.147z"/>
	<path d="M333.11,6.034V5.333h0.616v0.701H333.11z M333.727,10.362h-0.616V6.699h0.616V10.362z"/>
	<path d="M335.407,7.21v2.381c0,0.287,0.245,0.287,0.371,0.287h0.217v0.483c-0.224,0.021-0.399,0.049-0.462,0.049
		c-0.609,0-0.742-0.343-0.742-0.784V7.21h-0.498V6.699h0.498V5.677h0.616v1.022h0.588V7.21H335.407z"/>
	<path d="M332.446,17.496c-1.415,0-1.688-1.506-1.688-2.529c0-1.022,0.273-2.528,1.688-2.528s1.688,1.506,1.688,2.528
		C334.134,15.99,333.861,17.496,332.446,17.496z M332.446,12.992c-0.708,0-1.029,0.742-1.029,1.975c0,1.233,0.321,1.975,1.029,1.975
		c0.707,0,1.029-0.742,1.029-1.975C333.476,13.734,333.153,12.992,332.446,12.992z"/>
</g>
<g>
	<path d="M55.718,10.362V5.333h0.616v1.828h0.014c0.266-0.385,0.63-0.561,1.058-0.567c0.974,0,1.527,0.798,1.527,1.828
		c0,0.875-0.364,2.045-1.611,2.045c-0.624,0-0.883-0.357-1.009-0.56h-0.014v0.455H55.718z M57.294,7.147
		c-0.889,0-0.987,0.959-0.987,1.555c0,0.973,0.609,1.232,1.001,1.232c0.672,0,0.987-0.609,0.987-1.415
		C58.295,8.051,58.247,7.147,57.294,7.147z"/>
	<path d="M59.673,6.034V5.333h0.616v0.701H59.673z M60.29,10.362h-0.616V6.699h0.616V10.362z"/>
	<path d="M61.969,7.21v2.381c0,0.287,0.245,0.287,0.372,0.287h0.217v0.483c-0.224,0.021-0.399,0.049-0.462,0.049
		c-0.609,0-0.743-0.343-0.743-0.784V7.21h-0.497V6.699h0.497V5.677h0.616v1.022h0.588V7.21H61.969z"/>
	<path d="M56.685,14.561c0.105,0.007,0.217,0.014,0.322,0.014c0.476,0,0.938-0.189,0.938-0.805c0-0.294-0.175-0.777-0.911-0.777
		c-0.875,0-0.932,0.714-0.959,1.057h-0.602c0-0.721,0.294-1.611,1.59-1.611c0.952,0,1.52,0.546,1.52,1.296
		c0,0.63-0.364,0.932-0.63,1.016v0.014c0.477,0.154,0.819,0.491,0.819,1.149c0,0.805-0.518,1.583-1.772,1.583
		c-0.364,0-0.672-0.091-0.91-0.217c-0.546-0.287-0.693-0.854-0.735-1.422h0.637c0.021,0.462,0.133,1.085,1.051,1.085
		c0.63,0,1.071-0.385,1.071-0.952c0-0.827-0.729-0.904-1.148-0.904c-0.091,0-0.189,0.007-0.28,0.007V14.561z"/>
	<path d="M61.522,17.362h-0.658v-3.495h-1.148v-0.49c0.798-0.056,1.127-0.133,1.324-0.938h0.483V17.362z"/>
</g>
<g>
	<path d="M271.327,84.664c-1.818,0-2.17-1.936-2.17-3.25s0.352-3.25,2.17-3.25s2.17,1.936,2.17,3.25S273.146,84.664,271.327,84.664z
		 M271.327,78.875c-0.909,0-1.323,0.954-1.323,2.539c0,1.584,0.414,2.539,1.323,2.539s1.323-0.955,1.323-2.539
		C272.65,79.829,272.236,78.875,271.327,78.875z"/>
</g>
<g>
	<path d="M280.858,84.493h-0.847v-4.492h-1.477V79.37c1.026-0.071,1.449-0.171,1.701-1.206h0.622V84.493z"/>
</g>
<g>
	<path d="M288.931,84.664c-1.818,0-2.17-1.936-2.17-3.25s0.352-3.25,2.17-3.25s2.17,1.936,2.17,3.25S290.749,84.664,288.931,84.664z
		 M288.931,78.875c-0.909,0-1.323,0.954-1.323,2.539c0,1.584,0.414,2.539,1.323,2.539s1.323-0.955,1.323-2.539
		C290.254,79.829,289.84,78.875,288.931,78.875z"/>
</g>
<g>
	<path d="M297.731,84.664c-1.818,0-2.17-1.936-2.17-3.25s0.352-3.25,2.17-3.25s2.17,1.936,2.17,3.25S299.55,84.664,297.731,84.664z
		 M297.731,78.875c-0.909,0-1.323,0.954-1.323,2.539c0,1.584,0.414,2.539,1.323,2.539s1.323-0.955,1.323-2.539
		C299.055,79.829,298.641,78.875,297.731,78.875z"/>
</g>
<g>
	<path d="M306.533,84.664c-1.818,0-2.17-1.936-2.17-3.25s0.352-3.25,2.17-3.25s2.17,1.936,2.17,3.25S308.352,84.664,306.533,84.664z
		 M306.533,78.875c-0.909,0-1.323,0.954-1.323,2.539c0,1.584,0.414,2.539,1.323,2.539s1.323-0.955,1.323-2.539
		C307.856,79.829,307.442,78.875,306.533,78.875z"/>
</g>
<g>
	<path d="M315.336,84.664c-1.818,0-2.17-1.936-2.17-3.25s0.352-3.25,2.17-3.25s2.17,1.936,2.17,3.25S317.154,84.664,315.336,84.664z
		 M315.336,78.875c-0.909,0-1.323,0.954-1.323,2.539c0,1.584,0.414,2.539,1.323,2.539s1.323-0.955,1.323-2.539
		C316.659,79.829,316.245,78.875,315.336,78.875z"/>
</g>
<g>
	<path d="M324.138,84.664c-1.818,0-2.17-1.936-2.17-3.25s0.352-3.25,2.17-3.25s2.17,1.936,2.17,3.25S325.956,84.664,324.138,84.664z
		 M324.138,78.875c-0.909,0-1.323,0.954-1.323,2.539c0,1.584,0.414,2.539,1.323,2.539s1.323-0.955,1.323-2.539
		C325.461,79.829,325.047,78.875,324.138,78.875z"/>
</g>
<g>
	<path d="M333.218,84.664c-1.818,0-2.17-1.936-2.17-3.25s0.352-3.25,2.17-3.25s2.17,1.936,2.17,3.25S335.036,84.664,333.218,84.664z
		 M333.218,78.875c-0.909,0-1.323,0.954-1.323,2.539c0,1.584,0.414,2.539,1.323,2.539s1.323-0.955,1.323-2.539
		C334.541,79.829,334.127,78.875,333.218,78.875z"/>
</g>
<g>
	<path d="M343.795,84.493h-0.847v-4.492h-1.477V79.37c1.026-0.071,1.449-0.171,1.701-1.206h0.622V84.493z"/>
</g>
<g>
	<path d="M352.598,84.493h-0.847v-4.492h-1.477V79.37c1.026-0.071,1.449-0.171,1.701-1.206h0.622V84.493z"/>
</g>
<g>
	<path d="M360.044,84.664c-1.818,0-2.17-1.936-2.17-3.25s0.352-3.25,2.17-3.25s2.17,1.936,2.17,3.25S361.862,84.664,360.044,84.664z
		 M360.044,78.875c-0.909,0-1.323,0.954-1.323,2.539c0,1.584,0.414,2.539,1.323,2.539s1.323-0.955,1.323-2.539
		C361.367,79.829,360.953,78.875,360.044,78.875z"/>
</g>
<g>
	<path d="M368.846,84.664c-1.818,0-2.17-1.936-2.17-3.25s0.352-3.25,2.17-3.25s2.17,1.936,2.17,3.25S370.664,84.664,368.846,84.664z
		 M368.846,78.875c-0.909,0-1.323,0.954-1.323,2.539c0,1.584,0.414,2.539,1.323,2.539s1.323-0.955,1.323-2.539
		C370.169,79.829,369.755,78.875,368.846,78.875z"/>
</g>
<g>
	<path d="M379.003,84.493h-0.847v-4.492h-1.477V79.37c1.026-0.071,1.449-0.171,1.701-1.206h0.622V84.493z"/>
</g>
<g>
	<path d="M245.652,84.493h-0.847v-4.492h-1.477V79.37c1.026-0.071,1.45-0.171,1.702-1.206h0.621V84.493z"/>
</g>
<g>
	<path d="M254.454,84.493h-0.847v-4.492h-1.477V79.37c1.026-0.071,1.45-0.171,1.702-1.206h0.621V84.493z"/>
</g>
<g>
	<path d="M263.255,84.493h-0.846v-4.492h-1.477V79.37c1.026-0.071,1.449-0.171,1.701-1.206h0.621V84.493z"/>
</g>
<g>
	<path d="M128.748,84.664c-1.819,0-2.17-1.936-2.17-3.25s0.351-3.25,2.17-3.25c1.818,0,2.169,1.936,2.169,3.25
		S130.566,84.664,128.748,84.664z M128.748,78.875c-0.91,0-1.324,0.954-1.324,2.539c0,1.584,0.414,2.539,1.324,2.539
		c0.909,0,1.323-0.955,1.323-2.539C130.071,79.829,129.657,78.875,128.748,78.875z"/>
</g>
<g>
	<path d="M138.278,84.493h-0.846v-4.492h-1.477V79.37c1.026-0.071,1.45-0.171,1.702-1.206h0.621V84.493z"/>
</g>
<g>
	<path d="M146.35,84.664c-1.819,0-2.17-1.936-2.17-3.25s0.351-3.25,2.17-3.25c1.818,0,2.169,1.936,2.169,3.25
		S148.168,84.664,146.35,84.664z M146.35,78.875c-0.91,0-1.324,0.954-1.324,2.539c0,1.584,0.414,2.539,1.324,2.539
		c0.909,0,1.323-0.955,1.323-2.539C147.673,79.829,147.259,78.875,146.35,78.875z"/>
</g>
<g>
	<path d="M156.401,84.664c-1.819,0-2.17-1.936-2.17-3.25s0.351-3.25,2.17-3.25c1.818,0,2.169,1.936,2.169,3.25
		S158.22,84.664,156.401,84.664z M156.401,78.875c-0.91,0-1.324,0.954-1.324,2.539c0,1.584,0.414,2.539,1.324,2.539
		c0.909,0,1.323-0.955,1.323-2.539C157.725,79.829,157.311,78.875,156.401,78.875z"/>
</g>
<g>
	<path d="M165.204,84.664c-1.819,0-2.17-1.936-2.17-3.25s0.351-3.25,2.17-3.25c1.818,0,2.169,1.936,2.169,3.25
		S167.022,84.664,165.204,84.664z M165.204,78.875c-0.91,0-1.324,0.954-1.324,2.539c0,1.584,0.414,2.539,1.324,2.539
		c0.909,0,1.323-0.955,1.323-2.539C166.527,79.829,166.113,78.875,165.204,78.875z"/>
</g>
<g>
	<path d="M174.005,84.664c-1.819,0-2.17-1.936-2.17-3.25s0.351-3.25,2.17-3.25c1.818,0,2.169,1.936,2.169,3.25
		S175.823,84.664,174.005,84.664z M174.005,78.875c-0.91,0-1.324,0.954-1.324,2.539c0,1.584,0.414,2.539,1.324,2.539
		c0.909,0,1.323-0.955,1.323-2.539C175.328,79.829,174.914,78.875,174.005,78.875z"/>
</g>
<g>
	<path d="M182.806,84.664c-1.819,0-2.17-1.936-2.17-3.25s0.351-3.25,2.17-3.25c1.818,0,2.169,1.936,2.169,3.25
		S184.625,84.664,182.806,84.664z M182.806,78.875c-0.91,0-1.324,0.954-1.324,2.539c0,1.584,0.414,2.539,1.324,2.539
		c0.909,0,1.323-0.955,1.323-2.539C184.129,79.829,183.715,78.875,182.806,78.875z"/>
</g>
<g>
	<path d="M191.607,84.664c-1.819,0-2.17-1.936-2.17-3.25s0.351-3.25,2.17-3.25c1.818,0,2.169,1.936,2.169,3.25
		S193.426,84.664,191.607,84.664z M191.607,78.875c-0.91,0-1.324,0.954-1.324,2.539c0,1.584,0.414,2.539,1.324,2.539
		c0.909,0,1.323-0.955,1.323-2.539C192.931,79.829,192.517,78.875,191.607,78.875z"/>
</g>
<g>
	<path d="M201.214,84.493h-0.846v-4.492h-1.477V79.37c1.026-0.071,1.45-0.171,1.702-1.206h0.621V84.493z"/>
</g>
<g>
	<path d="M210.017,84.493h-0.846v-4.492h-1.477V79.37c1.026-0.071,1.45-0.171,1.702-1.206h0.621V84.493z"/>
</g>
<g>
	<path d="M217.635,84.664c-1.819,0-2.17-1.936-2.17-3.25s0.351-3.25,2.17-3.25s2.169,1.936,2.169,3.25
		S219.454,84.664,217.635,84.664z M217.635,78.875c-0.91,0-1.324,0.954-1.324,2.539c0,1.584,0.414,2.539,1.324,2.539
		s1.324-0.955,1.324-2.539C218.959,79.829,218.545,78.875,217.635,78.875z"/>
</g>
<g>
	<path d="M226.437,84.664c-1.818,0-2.17-1.936-2.17-3.25s0.352-3.25,2.17-3.25s2.17,1.936,2.17,3.25S228.255,84.664,226.437,84.664z
		 M226.437,78.875c-0.909,0-1.323,0.954-1.323,2.539c0,1.584,0.414,2.539,1.323,2.539s1.323-0.955,1.323-2.539
		C227.76,79.829,227.346,78.875,226.437,78.875z"/>
</g>
<g>
	<path d="M237.671,84.493h-0.846v-4.492h-1.477V79.37c1.026-0.071,1.449-0.171,1.701-1.206h0.621V84.493z"/>
</g>
<g>
	<path d="M103.072,84.493h-0.846v-4.492h-1.477V79.37c1.026-0.071,1.45-0.171,1.702-1.206h0.621V84.493z"/>
</g>
<g>
	<path d="M111.874,84.493h-0.846v-4.492h-1.477V79.37c1.026-0.071,1.45-0.171,1.702-1.206h0.621V84.493z"/>
</g>
<g>
	<path d="M120.675,84.493h-0.846v-4.492h-1.477V79.37c1.026-0.071,1.45-0.171,1.702-1.206h0.621V84.493z"/>
</g>
<g>
	<path d="M85.339,84.664c-1.819,0-2.17-1.936-2.17-3.25s0.351-3.25,2.17-3.25c1.818,0,2.169,1.936,2.169,3.25
		S87.158,84.664,85.339,84.664z M85.339,78.875c-0.91,0-1.324,0.954-1.324,2.539c0,1.584,0.414,2.539,1.324,2.539
		c0.909,0,1.323-0.955,1.323-2.539C86.663,79.829,86.249,78.875,85.339,78.875z"/>
</g>
<g>
	<path d="M94.141,84.664c-1.819,0-2.17-1.936-2.17-3.25s0.351-3.25,2.17-3.25c1.818,0,2.169,1.936,2.169,3.25
		S95.959,84.664,94.141,84.664z M94.141,78.875c-0.91,0-1.324,0.954-1.324,2.539c0,1.584,0.414,2.539,1.324,2.539
		c0.909,0,1.323-0.955,1.323-2.539C95.464,79.829,95.05,78.875,94.141,78.875z"/>
</g>
<g>
	<path d="M58.935,84.664c-1.819,0-2.17-1.936-2.17-3.25s0.351-3.25,2.17-3.25c1.818,0,2.169,1.936,2.169,3.25
		S60.753,84.664,58.935,84.664z M58.935,78.875c-0.91,0-1.324,0.954-1.324,2.539c0,1.584,0.414,2.539,1.324,2.539
		c0.909,0,1.323-0.955,1.323-2.539C60.258,79.829,59.844,78.875,58.935,78.875z"/>
</g>
<g>
	<path d="M67.737,84.664c-1.819,0-2.17-1.936-2.17-3.25s0.351-3.25,2.17-3.25c1.818,0,2.169,1.936,2.169,3.25
		S69.555,84.664,67.737,84.664z M67.737,78.875c-0.91,0-1.324,0.954-1.324,2.539c0,1.584,0.414,2.539,1.324,2.539
		c0.909,0,1.323-0.955,1.323-2.539C69.06,79.829,68.646,78.875,67.737,78.875z"/>
</g>
<g>
	<path d="M76.538,84.664c-1.819,0-2.17-1.936-2.17-3.25s0.351-3.25,2.17-3.25c1.818,0,2.169,1.936,2.169,3.25
		S78.356,84.664,76.538,84.664z M76.538,78.875c-0.91,0-1.324,0.954-1.324,2.539c0,1.584,0.414,2.539,1.324,2.539
		c0.909,0,1.323-0.955,1.323-2.539C77.861,79.829,77.447,78.875,76.538,78.875z"/>
</g>
<rect x="54.564" y="18.732" class="st0" width="283.189" height="17.715"/>
<polyline class="st2" points="337.761,18.553 337.761,36.447 195.852,36.447 "/>
<line class="st2" x1="196.028" y1="18.732" x2="337.761" y2="18.732"/>
<line class="st3" x1="204.886" y1="36.447" x2="204.886" y2="18.832"/>
<line class="st3" x1="213.744" y1="36.447" x2="213.744" y2="18.832"/>
<line class="st3" x1="222.602" y1="36.447" x2="222.602" y2="18.832"/>
<line class="st3" x1="231.46" y1="36.447" x2="231.46" y2="18.832"/>
<line class="st3" x1="240.318" y1="36.447" x2="240.318" y2="18.832"/>
<line class="st3" x1="249.176" y1="36.447" x2="249.176" y2="18.832"/>
<line class="st3" x1="258.034" y1="36.447" x2="258.034" y2="18.826"/>
<line class="st3" x1="266.892" y1="36.447" x2="266.892" y2="18.714"/>
<line class="st3" x1="275.75" y1="36.447" x2="275.75" y2="18.714"/>
<line class="st3" x1="284.608" y1="36.447" x2="284.608" y2="18.714"/>
<line class="st3" x1="293.467" y1="36.447" x2="293.467" y2="18.714"/>
<line class="st3" x1="302.324" y1="36.447" x2="302.324" y2="18.714"/>
<line class="st3" x1="311.182" y1="36.447" x2="311.182" y2="18.714"/>
<line class="st3" x1="320.041" y1="36.447" x2="320.041" y2="18.714"/>
<line class="st3" x1="328.899" y1="36.447" x2="328.899" y2="18.714"/>
<line class="st2" x1="196.029" y1="36.447" x2="54.12" y2="36.447"/>
<polyline class="st2" points="54.296,36.447 54.296,18.732 196.029,18.732 "/>
<line class="st3" x1="63.154" y1="36.447" x2="63.154" y2="18.832"/>
<line class="st3" x1="72.012" y1="36.447" x2="72.012" y2="18.832"/>
<line class="st3" x1="80.87" y1="36.447" x2="80.87" y2="18.832"/>
<line class="st3" x1="89.728" y1="36.447" x2="89.728" y2="18.832"/>
<line class="st3" x1="98.586" y1="36.447" x2="98.586" y2="18.832"/>
<line class="st3" x1="107.444" y1="36.447" x2="107.444" y2="18.832"/>
<line class="st3" x1="116.302" y1="36.447" x2="116.302" y2="18.832"/>
<line class="st3" x1="125.16" y1="36.447" x2="125.16" y2="18.832"/>
<line class="st3" x1="134.018" y1="36.447" x2="134.018" y2="18.832"/>
<line class="st3" x1="142.876" y1="36.447" x2="142.876" y2="18.832"/>
<line class="st3" x1="151.735" y1="36.447" x2="151.735" y2="18.832"/>
<line class="st3" x1="160.592" y1="36.447" x2="160.592" y2="18.832"/>
<line class="st3" x1="169.45" y1="36.447" x2="169.45" y2="18.832"/>
<line class="st3" x1="178.308" y1="36.447" x2="178.308" y2="18.832"/>
<line class="st3" x1="187.167" y1="36.447" x2="187.167" y2="18.832"/>
<g>
	<path d="M271.327,31.539c-1.818,0-2.17-1.936-2.17-3.25c0-1.314,0.352-3.25,2.17-3.25s2.17,1.936,2.17,3.25
		C273.497,29.604,273.146,31.539,271.327,31.539z M271.327,25.75c-0.909,0-1.323,0.954-1.323,2.539s0.414,2.539,1.323,2.539
		s1.323-0.955,1.323-2.539S272.236,25.75,271.327,25.75z"/>
</g>
<g>
	<path d="M280.129,31.539c-1.818,0-2.17-1.936-2.17-3.25c0-1.314,0.352-3.25,2.17-3.25s2.17,1.936,2.17,3.25
		C282.299,29.604,281.947,31.539,280.129,31.539z M280.129,25.75c-0.909,0-1.323,0.954-1.323,2.539s0.414,2.539,1.323,2.539
		s1.323-0.955,1.323-2.539S281.038,25.75,280.129,25.75z"/>
</g>
<g>
	<path d="M288.931,31.539c-1.818,0-2.17-1.936-2.17-3.25c0-1.314,0.352-3.25,2.17-3.25s2.17,1.936,2.17,3.25
		C291.101,29.604,290.749,31.539,288.931,31.539z M288.931,25.75c-0.909,0-1.323,0.954-1.323,2.539s0.414,2.539,1.323,2.539
		s1.323-0.955,1.323-2.539S289.84,25.75,288.931,25.75z"/>
</g>
<g>
	<path d="M298.461,31.368h-0.847v-4.492h-1.477v-0.63c1.026-0.072,1.449-0.171,1.701-1.207h0.622V31.368z"/>
</g>
<g>
	<path d="M307.263,31.368h-0.847v-4.492h-1.477v-0.63c1.026-0.072,1.449-0.171,1.701-1.207h0.622V31.368z"/>
</g>
<g>
	<path d="M315.336,31.539c-1.818,0-2.17-1.936-2.17-3.25c0-1.314,0.352-3.25,2.17-3.25s2.17,1.936,2.17,3.25
		C317.506,29.604,317.154,31.539,315.336,31.539z M315.336,25.75c-0.909,0-1.323,0.954-1.323,2.539s0.414,2.539,1.323,2.539
		s1.323-0.955,1.323-2.539S316.245,25.75,315.336,25.75z"/>
</g>
<g>
	<path d="M324.138,31.539c-1.818,0-2.17-1.936-2.17-3.25c0-1.314,0.352-3.25,2.17-3.25s2.17,1.936,2.17,3.25
		C326.308,29.604,325.956,31.539,324.138,31.539z M324.138,25.75c-0.909,0-1.323,0.954-1.323,2.539s0.414,2.539,1.323,2.539
		s1.323-0.955,1.323-2.539S325.047,25.75,324.138,25.75z"/>
</g>
<g>
	<path d="M333.947,31.368h-0.847v-4.492h-1.477v-0.63c1.026-0.072,1.449-0.171,1.701-1.207h0.622V31.368z"/>
</g>
<g>
	<path d="M244.923,31.539c-1.818,0-2.17-1.936-2.17-3.25c0-1.314,0.352-3.25,2.17-3.25s2.17,1.936,2.17,3.25
		C247.093,29.604,246.741,31.539,244.923,31.539z M244.923,25.75c-0.909,0-1.323,0.954-1.323,2.539s0.414,2.539,1.323,2.539
		s1.323-0.955,1.323-2.539S245.832,25.75,244.923,25.75z"/>
</g>
<g>
	<path d="M253.725,31.539c-1.818,0-2.17-1.936-2.17-3.25c0-1.314,0.352-3.25,2.17-3.25s2.17,1.936,2.17,3.25
		C255.895,29.604,255.543,31.539,253.725,31.539z M253.725,25.75c-0.909,0-1.323,0.954-1.323,2.539s0.414,2.539,1.323,2.539
		s1.323-0.955,1.323-2.539S254.634,25.75,253.725,25.75z"/>
</g>
<g>
	<path d="M262.526,31.539c-1.819,0-2.17-1.936-2.17-3.25c0-1.314,0.351-3.25,2.17-3.25c1.818,0,2.169,1.936,2.169,3.25
		C264.695,29.604,264.345,31.539,262.526,31.539z M262.526,25.75c-0.91,0-1.324,0.954-1.324,2.539s0.414,2.539,1.324,2.539
		c0.909,0,1.323-0.955,1.323-2.539S263.436,25.75,262.526,25.75z"/>
</g>
<g>
	<path d="M128.748,31.539c-1.819,0-2.17-1.936-2.17-3.25c0-1.314,0.351-3.25,2.17-3.25c1.818,0,2.169,1.936,2.169,3.25
		C130.917,29.604,130.566,31.539,128.748,31.539z M128.748,25.75c-0.91,0-1.324,0.954-1.324,2.539s0.414,2.539,1.324,2.539
		c0.909,0,1.323-0.955,1.323-2.539S129.657,25.75,128.748,25.75z"/>
</g>
<g>
	<path d="M137.549,31.539c-1.819,0-2.17-1.936-2.17-3.25c0-1.314,0.351-3.25,2.17-3.25c1.818,0,2.169,1.936,2.169,3.25
		C139.718,29.604,139.367,31.539,137.549,31.539z M137.549,25.75c-0.91,0-1.324,0.954-1.324,2.539s0.414,2.539,1.324,2.539
		c0.909,0,1.323-0.955,1.323-2.539S138.458,25.75,137.549,25.75z"/>
</g>
<g>
	<path d="M146.35,31.539c-1.819,0-2.17-1.936-2.17-3.25c0-1.314,0.351-3.25,2.17-3.25c1.818,0,2.169,1.936,2.169,3.25
		C148.52,29.604,148.168,31.539,146.35,31.539z M146.35,25.75c-0.91,0-1.324,0.954-1.324,2.539s0.414,2.539,1.324,2.539
		c0.909,0,1.323-0.955,1.323-2.539S147.259,25.75,146.35,25.75z"/>
</g>
<g>
	<path d="M157.13,31.368h-0.846v-4.492h-1.477v-0.63c1.026-0.072,1.45-0.171,1.702-1.207h0.621V31.368z"/>
</g>
<g>
	<path d="M165.933,31.368h-0.846v-4.492h-1.477v-0.63c1.026-0.072,1.45-0.171,1.702-1.207h0.621V31.368z"/>
</g>
<g>
	<path d="M174.005,31.539c-1.819,0-2.17-1.936-2.17-3.25c0-1.314,0.351-3.25,2.17-3.25c1.818,0,2.169,1.936,2.169,3.25
		C176.174,29.604,175.823,31.539,174.005,31.539z M174.005,25.75c-0.91,0-1.324,0.954-1.324,2.539s0.414,2.539,1.324,2.539
		c0.909,0,1.323-0.955,1.323-2.539S174.914,25.75,174.005,25.75z"/>
</g>
<g>
	<path d="M182.806,31.539c-1.819,0-2.17-1.936-2.17-3.25c0-1.314,0.351-3.25,2.17-3.25c1.818,0,2.169,1.936,2.169,3.25
		C184.976,29.604,184.625,31.539,182.806,31.539z M182.806,25.75c-0.91,0-1.324,0.954-1.324,2.539s0.414,2.539,1.324,2.539
		c0.909,0,1.323-0.955,1.323-2.539S183.715,25.75,182.806,25.75z"/>
</g>
<g>
	<path d="M192.336,31.368h-0.846v-4.492h-1.477v-0.63c1.026-0.072,1.45-0.171,1.702-1.207h0.621V31.368z"/>
</g>
<g>
	<path d="M201.214,31.368h-0.846v-4.492h-1.477v-0.63c1.026-0.072,1.45-0.171,1.702-1.207h0.621V31.368z"/>
</g>
<g>
	<path d="M210.017,31.368h-0.846v-4.492h-1.477v-0.63c1.026-0.072,1.45-0.171,1.702-1.207h0.621V31.368z"/>
</g>
<g>
	<path d="M218.364,31.368h-0.846v-4.492h-1.477v-0.63c1.026-0.072,1.45-0.171,1.702-1.207h0.621V31.368z"/>
</g>
<g>
	<path d="M226.437,31.539c-1.818,0-2.17-1.936-2.17-3.25c0-1.314,0.352-3.25,2.17-3.25s2.17,1.936,2.17,3.25
		C228.606,29.604,228.255,31.539,226.437,31.539z M226.437,25.75c-0.909,0-1.323,0.954-1.323,2.539s0.414,2.539,1.323,2.539
		s1.323-0.955,1.323-2.539S227.346,25.75,226.437,25.75z"/>
</g>
<g>
	<path d="M237.671,31.368h-0.846v-4.492h-1.477v-0.63c1.026-0.072,1.449-0.171,1.701-1.207h0.621V31.368z"/>
</g>
<g>
	<path d="M102.343,31.539c-1.819,0-2.17-1.936-2.17-3.25c0-1.314,0.351-3.25,2.17-3.25c1.818,0,2.169,1.936,2.169,3.25
		C104.512,29.604,104.161,31.539,102.343,31.539z M102.343,25.75c-0.91,0-1.324,0.954-1.324,2.539s0.414,2.539,1.324,2.539
		c0.909,0,1.323-0.955,1.323-2.539S103.252,25.75,102.343,25.75z"/>
</g>
<g>
	<path d="M111.145,31.539c-1.819,0-2.17-1.936-2.17-3.25c0-1.314,0.351-3.25,2.17-3.25c1.818,0,2.169,1.936,2.169,3.25
		C113.314,29.604,112.963,31.539,111.145,31.539z M111.145,25.75c-0.91,0-1.324,0.954-1.324,2.539s0.414,2.539,1.324,2.539
		c0.909,0,1.323-0.955,1.323-2.539S112.054,25.75,111.145,25.75z"/>
</g>
<g>
	<path d="M119.946,31.539c-1.819,0-2.17-1.936-2.17-3.25c0-1.314,0.351-3.25,2.17-3.25c1.818,0,2.169,1.936,2.169,3.25
		C122.116,29.604,121.765,31.539,119.946,31.539z M119.946,25.75c-0.91,0-1.324,0.954-1.324,2.539s0.414,2.539,1.324,2.539
		c0.909,0,1.323-0.955,1.323-2.539S120.855,25.75,119.946,25.75z"/>
</g>
<g>
	<path d="M85.339,31.539c-1.819,0-2.17-1.936-2.17-3.25c0-1.314,0.351-3.25,2.17-3.25c1.818,0,2.169,1.936,2.169,3.25
		C87.509,29.604,87.158,31.539,85.339,31.539z M85.339,25.75c-0.91,0-1.324,0.954-1.324,2.539s0.414,2.539,1.324,2.539
		c0.909,0,1.323-0.955,1.323-2.539S86.249,25.75,85.339,25.75z"/>
</g>
<g>
	<path d="M94.87,31.368h-0.846v-4.492h-1.477v-0.63c1.026-0.072,1.45-0.171,1.702-1.207h0.621V31.368z"/>
</g>
<g>
	<path d="M59.664,31.368h-0.846v-4.492h-1.477v-0.63c1.026-0.072,1.45-0.171,1.702-1.207h0.621V31.368z"/>
</g>
<g>
	<path d="M68.466,31.368H67.62v-4.492h-1.477v-0.63c1.026-0.072,1.45-0.171,1.702-1.207h0.621V31.368z"/>
</g>
<g>
	<path d="M77.267,31.368h-0.846v-4.492h-1.477v-0.63c1.026-0.072,1.45-0.171,1.702-1.207h0.621V31.368z"/>
</g>
<polyline class="st4" points="348.004,112.583 348.004,130.299 339.146,130.299 "/>
<polyline class="st3" points="339.146,130.299 339.146,112.583 348.004,112.583 "/>
<path class="st2" d="M381.951,90.897c0,0,0.18,2.057-2.054,2.057c-2.235,0-13.315,0-13.315,0s-1.832,0.536-1.832,1.831"/>
<path class="st2" d="M347.547,90.897c0,0-0.178,2.057,2.056,2.057s13.314,0,13.314,0s1.832,0.536,1.832,1.831"/>
<path d="M340.342,107.006l5.973-0.178l-2.745,5.21L340.342,107.006z"/>
<g>
	<path d="M344.146,124.783h-0.847v-4.492h-1.477v-0.63c1.026-0.072,1.449-0.172,1.701-1.207h0.622V124.783z"/>
</g>
<g>
	<path d="M358.94,97.377c0.155,0.014,0.31,0.021,0.465,0.021h0.554c0.155,0,0.31-0.007,0.465-0.021
		c-0.022,0.278-0.034,0.561-0.034,0.848v1.449h0.52v-1.449c0-0.287-0.009-0.569-0.027-0.848c0.159,0.014,0.316,0.021,0.472,0.021
		h0.485c0.155,0,0.312-0.007,0.472-0.021c-0.019,0.278-0.027,0.561-0.027,0.848v1.436c0.146-0.005,0.289-0.019,0.431-0.041
		c-0.019,0.087-0.027,0.178-0.027,0.273c0,0.077,0.009,0.157,0.027,0.239c-0.146-0.022-0.289-0.036-0.431-0.041v2.584
		c0,0.21-0.032,0.354-0.096,0.431c-0.118,0.183-0.369,0.278-0.752,0.287c-0.022-0.183-0.098-0.347-0.226-0.492
		c0.219,0.019,0.357,0.027,0.417,0.027c0.159-0.009,0.239-0.103,0.239-0.28v-2.57h-0.54v0.629c0,0.561-0.062,1.062-0.185,1.504
		c-0.132,0.433-0.282,0.798-0.451,1.094c-0.087-0.101-0.219-0.176-0.396-0.226c-0.128,0.178-0.396,0.271-0.807,0.28
		c-0.022-0.178-0.094-0.34-0.212-0.485c0.246,0.019,0.398,0.027,0.458,0.027c0.164-0.009,0.246-0.101,0.246-0.273v-2.55h-0.595
		v0.472c0,0.615-0.068,1.167-0.205,1.654c-0.137,0.479-0.296,0.884-0.479,1.217c-0.096-0.114-0.244-0.196-0.444-0.246
		c0.306-0.46,0.501-0.935,0.588-1.422c0.087-0.369,0.13-0.827,0.13-1.374v-0.301c-0.214,0.005-0.426,0.022-0.636,0.055
		c0.019-0.082,0.027-0.162,0.027-0.239c0-0.096-0.009-0.187-0.027-0.273c0.21,0.032,0.422,0.05,0.636,0.055v-1.449
		C358.975,97.938,358.963,97.655,358.94,97.377z M359.385,99.674h0.595v-1.866h-0.595V99.674z M360.909,100.077h-0.52v2.57
		c0,0.096-0.007,0.176-0.021,0.239c0.219-0.369,0.362-0.738,0.431-1.107c0.073-0.333,0.109-0.743,0.109-1.23V100.077z
		 M361.326,99.674h0.54v-1.866h-0.54V99.674z M362.83,97.78c0.159,0.019,0.351,0.027,0.574,0.027
		c-0.06,0.118-0.089,0.267-0.089,0.444v3.001c0,0.287,0.021,0.569,0.062,0.848c-0.096-0.019-0.187-0.027-0.273-0.027
		c-0.096,0-0.187,0.009-0.273,0.027c0.036-0.278,0.055-0.561,0.055-0.848v-2.728C362.885,98.279,362.866,98.031,362.83,97.78z
		 M363.78,97.124c0.183,0.019,0.374,0.027,0.574,0.027c-0.05,0.137-0.075,0.294-0.075,0.472v5.353c0,0.228-0.084,0.378-0.253,0.451
		c-0.164,0.063-0.401,0.096-0.711,0.096c-0.046-0.214-0.135-0.396-0.267-0.547h0.383c0.251,0,0.376-0.082,0.376-0.246v-5.161
		C363.808,97.423,363.799,97.274,363.78,97.124z"/>
	<path d="M365.53,97.425c0.2,0.019,0.401,0.027,0.602,0.027h0.93c0.219,0,0.439-0.009,0.663-0.027
		c-0.104,0.191-0.396,0.914-0.875,2.167c0.396,0.593,0.597,1.085,0.602,1.477c0,0.355-0.08,0.617-0.239,0.786
		c-0.2,0.2-0.485,0.301-0.854,0.301c0-0.178-0.066-0.369-0.198-0.574c0.173,0.019,0.292,0.027,0.355,0.027
		c0.296,0,0.444-0.18,0.444-0.54c0-0.355-0.2-0.829-0.602-1.422c0.228-0.533,0.453-1.107,0.677-1.723h-0.95v4.676
		c0,0.296,0.007,0.597,0.021,0.902c-0.096-0.019-0.193-0.027-0.294-0.027c-0.091,0-0.185,0.009-0.28,0.027
		c0.019-0.306,0.027-0.606,0.027-0.902v-4.546C365.558,97.844,365.549,97.635,365.53,97.425z M368.025,101.369
		c0.146,0.132,0.326,0.232,0.54,0.301c-0.451,0.479-0.87,0.962-1.258,1.449c-0.173-0.15-0.326-0.251-0.458-0.301
		c0.205-0.155,0.401-0.342,0.588-0.561C367.679,101.989,367.875,101.692,368.025,101.369z M369.03,97.076
		c0.2,0.096,0.41,0.159,0.629,0.191c-0.06,0.06-0.118,0.13-0.178,0.212c0.155,0.41,0.385,0.754,0.69,1.032
		c0.337,0.31,0.807,0.559,1.408,0.745c-0.21,0.169-0.357,0.369-0.444,0.602c-0.333-0.219-0.617-0.429-0.854-0.629
		c-0.014,0.073-0.021,0.139-0.021,0.198c0,0.077,0.009,0.159,0.027,0.246c-0.104-0.019-0.214-0.027-0.328-0.027h-0.547v0.875h0.718
		c0.251,0,0.504-0.019,0.759-0.055c-0.019,0.087-0.027,0.176-0.027,0.267c0,0.096,0.009,0.187,0.027,0.273
		c-0.255-0.036-0.508-0.055-0.759-0.055h-0.718v2.194c0,0.137-0.073,0.239-0.219,0.308c-0.132,0.063-0.403,0.096-0.813,0.096
		c-0.009-0.214-0.075-0.405-0.198-0.574c0.237,0.036,0.419,0.055,0.547,0.055c0.123,0,0.189-0.043,0.198-0.13v-1.948h-0.547
		c-0.26,0-0.518,0.019-0.772,0.055c0.019-0.087,0.027-0.178,0.027-0.273c0-0.091-0.009-0.18-0.027-0.267
		c0.255,0.036,0.513,0.055,0.772,0.055h0.547v-0.875h-0.417c-0.104,0-0.214,0.009-0.328,0.027c0.019-0.087,0.027-0.169,0.027-0.246
		c0-0.041-0.002-0.077-0.007-0.109c-0.2,0.228-0.415,0.446-0.643,0.656c-0.101-0.137-0.248-0.265-0.444-0.383
		c0.474-0.323,0.87-0.711,1.189-1.162C368.62,98.006,368.861,97.555,369.03,97.076z M368.312,99.188
		c0.073,0.009,0.139,0.014,0.198,0.014h1.449c0.096,0,0.185-0.007,0.267-0.021c-0.187-0.155-0.34-0.303-0.458-0.444
		c-0.214-0.251-0.385-0.547-0.513-0.889C368.987,98.322,368.673,98.77,368.312,99.188z M370.131,101.472
		c0.05,0.073,0.148,0.178,0.294,0.314c0.237,0.228,0.433,0.436,0.588,0.622c0.109,0.123,0.217,0.239,0.321,0.349
		c-0.128,0.041-0.303,0.132-0.526,0.273c-0.068-0.155-0.207-0.355-0.417-0.602c-0.237-0.269-0.48-0.494-0.731-0.677
		C369.846,101.675,370.003,101.581,370.131,101.472z"/>
</g>
<g>
	<g>
		<path d="M294.365,1.154h0.658v5.029h-0.764l-2.556-4.062h-0.015v4.062h-0.658V1.154h0.806l2.515,4.062h0.014V1.154z"/>
		<path d="M298.396,6.183V5.651l-0.015-0.014c-0.259,0.427-0.574,0.651-1.162,0.651c-0.539,0-1.19-0.259-1.19-1.135V2.52h0.616v2.43
			c0,0.603,0.308,0.806,0.707,0.806c0.777,0,1.009-0.687,1.009-1.219V2.52h0.616v3.663H298.396z"/>
		<path d="M299.9,2.52h0.581v0.519h0.015c0.133-0.196,0.448-0.624,1.106-0.624s0.868,0.399,0.974,0.595
			c0.308-0.343,0.553-0.595,1.12-0.595c0.393,0,1.135,0.203,1.135,1.233v2.535h-0.616V3.816c0-0.504-0.154-0.848-0.68-0.848
			c-0.518,0-0.861,0.49-0.861,0.98v2.234h-0.616V3.648c0-0.309-0.119-0.68-0.574-0.68c-0.351,0-0.967,0.224-0.967,1.219v1.996H299.9
			V2.52z"/>
	</g>
</g>
<g>
	<path class="st2" d="M98.242,91.199c0,0,0.227,2.609-2.607,2.609c-2.835,0-16.892,0-16.892,0s-2.325,0.68-2.325,2.324"/>
	<path class="st2" d="M54.593,91.199c0,0-0.227,2.609,2.607,2.609s16.892,0,16.892,0s2.326,0.68,2.326,2.324"/>
</g>
<g>
	<g>
		<g>
			<path d="M71.221,97.962h0.658v5.028h-0.763l-2.557-4.062h-0.014v4.062h-0.658v-5.028h0.806l2.514,4.062h0.014V97.962z"/>
			<path d="M75.252,102.99v-0.532l-0.014-0.014c-0.259,0.427-0.574,0.651-1.163,0.651c-0.54,0-1.191-0.26-1.191-1.135v-2.634h0.617
				v2.431c0,0.603,0.308,0.806,0.707,0.806c0.777,0,1.009-0.687,1.009-1.219v-2.018h0.616v3.663H75.252z"/>
			<path d="M76.756,99.327h0.582v0.519h0.014c0.133-0.196,0.448-0.623,1.106-0.623s0.869,0.398,0.974,0.595
				c0.308-0.343,0.553-0.595,1.121-0.595c0.392,0,1.134,0.203,1.134,1.232v2.535H81.07v-2.367c0-0.504-0.154-0.848-0.679-0.848
				c-0.519,0-0.862,0.49-0.862,0.98v2.234h-0.616v-2.535c0-0.309-0.119-0.68-0.574-0.68c-0.35,0-0.966,0.225-0.966,1.219v1.996
				h-0.617V99.327z"/>
		</g>
	</g>
</g>
<g>
	<line class="st5" x1="76.402" y1="120.297" x2="76.402" y2="111.726"/>
	<polygon class="st6" points="79.618,113.868 76.403,107.44 76.403,107.44 73.189,113.868 	"/>
</g>
<g>
	<path d="M65.585,123.257c0.26,0.032,0.524,0.048,0.793,0.048h1.196c0.123-0.296,0.244-0.613,0.362-0.95
		c0.223,0.091,0.44,0.152,0.649,0.185c-0.119,0.128-0.283,0.383-0.492,0.766h2.741c0.26,0,0.524-0.016,0.793-0.048
		c-0.023,0.096-0.034,0.196-0.034,0.301c0,0.087,0.011,0.178,0.034,0.273c-0.269-0.036-0.533-0.055-0.793-0.055h-2.967
		c-0.237,0.483-0.481,0.916-0.731,1.299v2.857c0,0.296,0.018,0.597,0.055,0.902c-0.096-0.019-0.196-0.027-0.301-0.027
		c-0.086,0-0.178,0.009-0.273,0.027c0.041-0.306,0.062-0.606,0.062-0.902v-2.229c-0.269,0.347-0.542,0.67-0.82,0.971
		c-0.146-0.123-0.337-0.224-0.574-0.301c0.506-0.419,0.964-0.902,1.374-1.449c-0.014-0.114-0.027-0.226-0.041-0.335
		c0.082,0.009,0.168,0.016,0.26,0.021c0.168-0.246,0.328-0.524,0.479-0.834h-0.978c-0.269,0-0.533,0.019-0.793,0.055
		c0.018-0.096,0.027-0.187,0.027-0.273C65.612,123.453,65.603,123.353,65.585,123.257z M68.012,124.59
		c0.219,0.022,0.438,0.034,0.656,0.034h1.894c0.223,0,0.449-0.012,0.677-0.034c-0.018,0.087-0.027,0.169-0.027,0.246
		c0.018,0.104,0.027,0.205,0.027,0.301c-0.465,0.26-0.891,0.518-1.278,0.772v0.465h0.902c0.26,0,0.524-0.021,0.793-0.062
		c-0.018,0.104-0.027,0.205-0.027,0.301s0.009,0.187,0.027,0.273c-0.269-0.036-0.533-0.055-0.793-0.055H69.96v1.374
		c0,0.214-0.098,0.357-0.294,0.431c-0.255,0.096-0.549,0.144-0.882,0.144c-0.023-0.196-0.105-0.388-0.246-0.574
		c0.237,0.019,0.392,0.027,0.465,0.027c0.314,0,0.476-0.091,0.485-0.273v-1.128h-1.203c-0.26,0-0.524,0.019-0.793,0.055
		c0.023-0.087,0.034-0.178,0.034-0.273s-0.011-0.196-0.034-0.301c0.269,0.041,0.533,0.062,0.793,0.062h1.203V125.8l1.073-0.718
		h-1.894c-0.219,0-0.438,0.009-0.656,0.027c0.018-0.087,0.027-0.178,0.027-0.273C68.039,124.759,68.03,124.677,68.012,124.59z"/>
	<path d="M73.617,122.382c0.155,0.082,0.376,0.144,0.663,0.185c-0.141,0.183-0.314,0.538-0.52,1.066
		c-0.027,0.068-0.055,0.139-0.082,0.212v4.115c0,0.301,0.018,0.6,0.055,0.896c-0.105-0.014-0.205-0.021-0.301-0.021
		s-0.187,0.007-0.273,0.021c0.032-0.296,0.048-0.595,0.048-0.896v-3.104c-0.16,0.306-0.333,0.6-0.52,0.882
		c-0.082-0.123-0.226-0.241-0.431-0.355c0.406-0.515,0.72-1.03,0.943-1.545C73.392,123.354,73.531,122.869,73.617,122.382z
		 M73.836,124.535c0.096,0.019,0.187,0.027,0.273,0.027h0.499c0.137,0,0.271-0.009,0.403-0.027c-0.027,0.142-0.045,0.28-0.055,0.417
		v2.365c0.168-0.109,0.335-0.234,0.499-0.376c0.041,0.137,0.112,0.258,0.212,0.362c-0.383,0.306-0.784,0.668-1.203,1.087
		c-0.082-0.128-0.182-0.237-0.301-0.328c0.146-0.142,0.246-0.273,0.301-0.396c0.041-0.118,0.062-0.217,0.062-0.294v-2.42h-0.417
		c-0.086,0-0.178,0.009-0.273,0.027c0.018-0.077,0.027-0.15,0.027-0.219C73.863,124.688,73.854,124.612,73.836,124.535z
		 M74.854,122.785c0.119,0.392,0.28,0.813,0.485,1.265c-0.168,0.027-0.339,0.08-0.513,0.157c-0.086-0.401-0.242-0.836-0.465-1.306
		C74.536,122.883,74.7,122.845,74.854,122.785z M75.613,123.284c0.219,0.032,0.44,0.048,0.663,0.048h0.301v-0.492
		c0-0.159-0.021-0.321-0.062-0.485c0.164,0.046,0.355,0.07,0.574,0.075c-0.055,0.104-0.082,0.241-0.082,0.41v0.492
		c0.219,0,0.438-0.016,0.656-0.048c-0.018,0.077-0.027,0.159-0.027,0.246c0,0.077,0.009,0.159,0.027,0.246
		c-0.219-0.041-0.438-0.062-0.656-0.062v0.909h0.144c0.337-0.456,0.69-1.051,1.06-1.784c0.155,0.146,0.321,0.267,0.499,0.362
		c-0.109,0.082-0.344,0.401-0.704,0.957c-0.1,0.164-0.203,0.319-0.308,0.465h0.383c0.219,0,0.438-0.021,0.656-0.062
		c-0.018,0.087-0.027,0.169-0.027,0.246c0,0.087,0.009,0.169,0.027,0.246c-0.219-0.032-0.438-0.048-0.656-0.048h-0.67
		c-0.127,0.173-0.262,0.333-0.403,0.479c-0.05,0.063-0.1,0.121-0.15,0.171h0.704c0.232,0,0.467-0.016,0.704-0.048
		c-0.037,0.21-0.055,0.417-0.055,0.622v1.948c0,0.228,0.018,0.453,0.055,0.677c-0.132-0.014-0.223-0.021-0.273-0.021
		c-0.045,0-0.137,0.007-0.273,0.021c0.037-0.191,0.055-0.383,0.055-0.574H76.44c0,0.196,0.016,0.388,0.048,0.574
		c-0.132-0.014-0.223-0.021-0.273-0.021c-0.045,0-0.137,0.007-0.273,0.021c0.041-0.224,0.062-0.449,0.062-0.677v-1.661
		c-0.141,0.132-0.29,0.265-0.444,0.396c-0.091-0.137-0.226-0.255-0.403-0.355c0.287-0.205,0.563-0.426,0.827-0.663
		c-0.009-0.101-0.023-0.196-0.041-0.287c0.105,0.014,0.205,0.022,0.301,0.027c0.214-0.2,0.41-0.41,0.588-0.629h-0.827
		c-0.223,0-0.444,0.016-0.663,0.048c0.018-0.077,0.027-0.159,0.027-0.246c0-0.077-0.009-0.159-0.027-0.246
		c0.219,0.041,0.44,0.062,0.663,0.062h0.574v-0.909h-0.301c-0.223,0-0.444,0.021-0.663,0.062c0.018-0.087,0.027-0.169,0.027-0.246
		C75.641,123.443,75.631,123.361,75.613,123.284z M76.434,126.805h1.347v-0.766h-1.292c-0.023,0.027-0.041,0.048-0.055,0.062
		V126.805z M76.434,127.905h1.347v-0.745h-1.347V127.905z"/>
	<path d="M80.985,128.284c-1.415,0-1.688-1.506-1.688-2.528s0.273-2.528,1.688-2.528c1.415,0,1.688,1.506,1.688,2.528
		S82.4,128.284,80.985,128.284z M80.985,123.781c-0.708,0-1.03,0.742-1.03,1.975s0.322,1.976,1.03,1.976
		c0.707,0,1.029-0.743,1.029-1.976S81.692,123.781,80.985,123.781z"/>
</g>
<line class="st3" x1="196.62" y1="36.447" x2="196.62" y2="18.832"/>
<line class="st3" x1="196.62" y1="89.572" x2="196.62" y2="71.957"/>
<path d="M99.694,65.574l5.973-0.178l-2.745,5.21L99.694,65.574z"/>
<polyline class="st2" points="58.496,37.919 58.496,51.619 103.02,51.619 103.02,68.121 "/>
<path d="M374.381,65.574l5.973-0.178l-2.745,5.21L374.381,65.574z"/>
<polyline class="st2" points="333.184,37.919 333.184,51.619 377.708,51.619 377.708,68.121 "/>
<g>
	<path d="M334.869,135.673c-0.189-0.883-0.925-1.044-1.408-1.044c-0.91,0-1.646,0.673-1.646,1.996c0,1.184,0.42,2.094,1.667,2.094
		c0.44,0,1.204-0.21,1.436-1.379h0.658c-0.28,1.897-1.821,1.981-2.199,1.981c-1.142,0-2.262-0.742-2.262-2.675
		c0-1.548,0.882-2.62,2.346-2.62c1.296,0,1.968,0.806,2.066,1.646H334.869z"/>
	<path d="M337.156,139.188h-0.68v-5.028h2.325c0.826,0,1.653,0.287,1.653,1.352c0,0.742-0.379,1.016-0.7,1.204
		c0.287,0.119,0.574,0.245,0.602,0.946l0.042,0.91c0.008,0.28,0.042,0.385,0.253,0.504v0.112h-0.834
		c-0.098-0.309-0.119-1.071-0.119-1.261c0-0.413-0.084-0.896-0.896-0.896h-1.646V139.188z M337.156,136.45h1.575
		c0.498,0,1.023-0.126,1.023-0.869c0-0.777-0.567-0.84-0.904-0.84h-1.694V136.45z"/>
	<path d="M341.223,136.029c0-1.604,1.169-1.765,1.701-1.765c0.854,0,1.541,0.554,1.541,1.471c0,0.883-0.581,1.254-1.316,1.646
		l-0.512,0.28c-0.672,0.371-0.819,0.756-0.848,0.945h2.676v0.581h-3.369c0.035-1.022,0.498-1.569,1.156-1.954l0.651-0.378
		c0.525-0.302,0.903-0.505,0.903-1.148c0-0.393-0.252-0.89-0.974-0.89c-0.932,0-0.974,0.868-0.994,1.211H341.223z"/>
	<path d="M346.754,139.321c-1.415,0-1.688-1.506-1.688-2.528s0.273-2.528,1.688-2.528c1.414,0,1.688,1.506,1.688,2.528
		S348.168,139.321,346.754,139.321z M346.754,134.818c-0.708,0-1.029,0.742-1.029,1.975s0.321,1.976,1.029,1.976
		c0.707,0,1.029-0.743,1.029-1.976S347.461,134.818,346.754,134.818z"/>
	<path d="M350.646,139.321c-1.415,0-1.688-1.506-1.688-2.528s0.273-2.528,1.688-2.528s1.688,1.506,1.688,2.528
		S352.061,139.321,350.646,139.321z M350.646,134.818c-0.708,0-1.029,0.742-1.029,1.975s0.321,1.976,1.029,1.976
		c0.707,0,1.029-0.743,1.029-1.976S351.353,134.818,350.646,134.818z"/>
	<path d="M352.885,135.953c0-0.896,0.547-1.688,1.583-1.688c1.569,0,1.723,1.485,1.723,2.283c0,0.525-0.091,2.773-1.785,2.773
		c-1.156,0-1.464-0.84-1.464-1.316h0.616c0.035,0.497,0.329,0.806,0.833,0.806c0.673,0,1.029-0.567,1.184-1.842l-0.014-0.015
		c-0.183,0.378-0.673,0.589-1.128,0.589C353.522,137.543,352.885,136.934,352.885,135.953z M355.47,135.869
		c0-0.561-0.287-1.051-0.995-1.051c-0.574,0-0.952,0.448-0.952,1.106c0,0.945,0.588,1.064,1.001,1.064
		C354.846,136.989,355.47,136.842,355.47,135.869z"/>
	<path d="M335.797,148.335l-0.355,0.41c-0.456-0.451-0.813-0.966-1.073-1.545c-0.255-0.574-0.383-1.171-0.383-1.791
		s0.13-1.222,0.39-1.805c0.255-0.569,0.61-1.08,1.066-1.531l0.355,0.41c-0.392,0.388-0.697,0.836-0.916,1.347
		c-0.224,0.511-0.335,1.037-0.335,1.579s0.111,1.068,0.335,1.579C335.1,147.499,335.405,147.947,335.797,148.335z"/>
	<path d="M337.048,144.411c0.183,0.019,0.364,0.027,0.547,0.027h0.027c0.26,0,0.518-0.009,0.772-0.027
		c-0.019,0.282-0.027,0.562-0.027,0.841v1.593c0,0.191,0.005,0.381,0.014,0.567c0.027,0.009,0.05,0.019,0.068,0.027
		c0.733,0.333,1.688,0.499,2.864,0.499c0.374,0,1.003-0.048,1.887-0.144c-0.104,0.169-0.176,0.388-0.212,0.656h-1.449
		c-1.312,0-2.343-0.176-3.09-0.526c-0.169-0.087-0.287-0.13-0.355-0.13c-0.146,0-0.374,0.21-0.684,0.629
		c-0.132-0.173-0.296-0.308-0.492-0.403l0.663-0.513c0.101-0.068,0.191-0.118,0.273-0.15c0.009-0.178,0.014-0.349,0.014-0.513
		v-1.894h-0.273c-0.183,0-0.364,0.009-0.547,0.027c0.019-0.096,0.027-0.196,0.027-0.301
		C337.075,144.591,337.066,144.502,337.048,144.411z M337.923,142.326c0.164,0.405,0.385,0.846,0.663,1.319
		c-0.191,0.032-0.383,0.096-0.574,0.191c-0.118-0.419-0.328-0.875-0.629-1.367C337.579,142.447,337.759,142.399,337.923,142.326z
		 M339.892,142.114c0.214,0.055,0.453,0.082,0.718,0.082c-0.055,0.2-0.089,0.608-0.103,1.224h0.916v-1.203h0.52v1.203h0.246
		c0.255,0,0.513-0.016,0.772-0.048c-0.019,0.087-0.027,0.178-0.027,0.273c0,0.087,0.009,0.178,0.027,0.273
		c-0.26-0.036-0.518-0.055-0.772-0.055h-0.246v1.148h0.444c0.255,0,0.508-0.021,0.759-0.062c-0.019,0.096-0.027,0.187-0.027,0.273
		c0,0.096,0.009,0.187,0.027,0.273c-0.251-0.036-0.504-0.055-0.759-0.055h-0.444v1.374c0,0.278,0.019,0.561,0.055,0.848
		c-0.104-0.019-0.214-0.027-0.328-0.027c-0.096,0-0.196,0.009-0.301,0.027c0.036-0.287,0.055-0.569,0.055-0.848v-1.374h-0.957
		c-0.036,0.52-0.114,0.9-0.232,1.142c-0.205,0.41-0.472,0.761-0.8,1.053c-0.21-0.128-0.422-0.228-0.636-0.301
		c0.552-0.405,0.897-0.877,1.039-1.415c0.036-0.142,0.066-0.301,0.089-0.479h-0.41c-0.255,0-0.513,0.019-0.772,0.055
		c0.019-0.087,0.027-0.178,0.027-0.273c0-0.087-0.009-0.178-0.027-0.273c0.26,0.041,0.518,0.062,0.772,0.062h0.444
		c0.009-0.142,0.014-0.289,0.014-0.444c0-0.251-0.002-0.485-0.007-0.704H339.7c-0.255,0-0.508,0.019-0.759,0.055
		c0.019-0.096,0.027-0.187,0.027-0.273c0-0.096-0.009-0.187-0.027-0.273c0.251,0.032,0.504,0.048,0.759,0.048h0.26
		C339.946,142.919,339.924,142.483,339.892,142.114z M341.423,145.013v-1.148H340.5c-0.005,0.214-0.007,0.449-0.007,0.704
		c0,0.159-0.002,0.308-0.007,0.444H341.423z"/>
	<path d="M345.497,142.114c0.205,0.132,0.426,0.224,0.663,0.273c-0.128,0.114-0.267,0.354-0.417,0.718
		c-0.082,0.241-0.183,0.48-0.301,0.718v3.944c0,0.306,0.019,0.606,0.055,0.902c-0.096-0.019-0.196-0.027-0.301-0.027
		c-0.087,0-0.178,0.009-0.273,0.027c0.041-0.296,0.062-0.597,0.062-0.902v-3.11c-0.224,0.351-0.472,0.697-0.745,1.039
		c-0.077-0.214-0.178-0.39-0.301-0.526c0.419-0.429,0.752-0.887,0.998-1.374C345.188,143.317,345.374,142.757,345.497,142.114z
		 M348.696,144.322c0.278,0.155,0.518,0.255,0.718,0.301c-0.269,0.533-0.576,1.538-0.923,3.015h0.923
		c0.296,0,0.597-0.021,0.902-0.062c-0.019,0.114-0.027,0.226-0.027,0.335c0,0.096,0.009,0.196,0.027,0.301
		c-0.306-0.041-0.606-0.062-0.902-0.062h-2.769c-0.296,0-0.597,0.021-0.902,0.062c0.019-0.104,0.027-0.205,0.027-0.301
		c0-0.109-0.009-0.221-0.027-0.335c0.306,0.041,0.606,0.062,0.902,0.062h1.415C348.356,146.457,348.568,145.353,348.696,144.322z
		 M346.044,143.447c0.306,0.036,0.606,0.055,0.902,0.055h2.222c0.296,0,0.595-0.019,0.896-0.055
		c-0.014,0.114-0.021,0.224-0.021,0.328s0.007,0.205,0.021,0.301c-0.301-0.036-0.6-0.055-0.896-0.055h-2.222
		c-0.296,0-0.597,0.019-0.902,0.055c0.019-0.096,0.027-0.196,0.027-0.301S346.062,143.562,346.044,143.447z M346.892,144.548
		l0.745,2.427c-0.21,0.022-0.401,0.062-0.574,0.116c-0.178-1.003-0.398-1.816-0.663-2.44
		C346.55,144.646,346.714,144.611,346.892,144.548z M347.849,142.114c0.137,0.314,0.319,0.641,0.547,0.978
		c-0.164,0.041-0.316,0.125-0.458,0.253c-0.159-0.388-0.342-0.727-0.547-1.019C347.577,142.28,347.73,142.21,347.849,142.114z"/>
	<path d="M353.304,145.409c0,0.62-0.128,1.217-0.383,1.791c-0.26,0.579-0.617,1.094-1.073,1.545l-0.355-0.41
		c0.392-0.388,0.697-0.836,0.916-1.347c0.224-0.511,0.335-1.037,0.335-1.579s-0.111-1.068-0.335-1.579
		c-0.219-0.511-0.524-0.959-0.916-1.347l0.355-0.41c0.456,0.451,0.812,0.962,1.066,1.531
		C353.174,144.188,353.304,144.789,353.304,145.409z"/>
</g>
<line class="st2" x1="343.019" y1="108.325" x2="343.019" y2="91.138"/>
<g>
	<g>
		<path d="M21.639,78.675h2.327c1.496,0,2.415,1.135,2.415,2.79c0,1.287-0.56,2.95-2.447,2.95h-2.295V78.675z M22.415,83.752h1.503
			c1.008,0,1.663-0.792,1.663-2.239s-0.664-2.175-1.719-2.175h-1.447V83.752z"/>
		<path d="M29.662,81.425c-0.008-0.264-0.104-0.703-0.992-0.703c-0.216,0-0.832,0.071-0.832,0.591c0,0.345,0.216,0.424,0.76,0.561
			l0.704,0.176c0.872,0.216,1.175,0.535,1.175,1.104c0,0.863-0.711,1.383-1.655,1.383c-1.655,0-1.775-0.959-1.799-1.463h0.68
			c0.024,0.327,0.12,0.855,1.111,0.855c0.504,0,0.959-0.2,0.959-0.664c0-0.336-0.232-0.447-0.832-0.6l-0.815-0.2
			c-0.584-0.144-0.968-0.439-0.968-1.015c0-0.92,0.76-1.336,1.583-1.336c1.495,0,1.599,1.104,1.599,1.312H29.662z"/>
		<path d="M32.15,80.817v2.719c0,0.327,0.28,0.327,0.424,0.327h0.248v0.552c-0.256,0.024-0.456,0.057-0.527,0.057
			c-0.696,0-0.848-0.393-0.848-0.896v-2.759h-0.568v-0.584h0.568v-1.167h0.704v1.167h0.671v0.584H32.15z"/>
	</g>
	<g>
		<path d="M37.553,80.378h0.583v1.727h1.727v0.584h-1.727v1.727h-0.583v-1.727h-1.735v-0.584h1.735V80.378z"/>
		<path d="M43.048,84.415h-0.752v-3.989h-1.311v-0.56c0.912-0.064,1.287-0.152,1.511-1.072h0.552V84.415z"/>
	</g>
</g>
<g>
	<g>
		<path d="M1.397,78.675h2.327c1.496,0,2.415,1.135,2.415,2.79c0,1.287-0.56,2.95-2.447,2.95H1.397V78.675z M2.173,83.752h1.503
			c1.008,0,1.663-0.792,1.663-2.239s-0.664-2.175-1.719-2.175H2.173V83.752z"/>
		<path d="M9.42,81.425c-0.008-0.264-0.104-0.703-0.992-0.703c-0.216,0-0.832,0.071-0.832,0.591c0,0.345,0.216,0.424,0.76,0.561
			l0.704,0.176c0.872,0.216,1.175,0.535,1.175,1.104c0,0.863-0.711,1.383-1.655,1.383c-1.655,0-1.775-0.959-1.799-1.463h0.68
			c0.024,0.327,0.12,0.855,1.111,0.855c0.504,0,0.959-0.2,0.959-0.664c0-0.336-0.232-0.447-0.832-0.6l-0.815-0.2
			c-0.584-0.144-0.968-0.439-0.968-1.015c0-0.92,0.76-1.336,1.583-1.336c1.495,0,1.599,1.104,1.599,1.312H9.42z"/>
		<path d="M11.909,80.817v2.719c0,0.327,0.28,0.327,0.424,0.327h0.248v0.552c-0.256,0.024-0.456,0.057-0.527,0.057
			c-0.696,0-0.848-0.393-0.848-0.896v-2.759h-0.568v-0.584h0.568v-1.167h0.704v1.167h0.671v0.584H11.909z"/>
	</g>
	<g>
		<path d="M17.749,81.377c0,0.439-0.36,0.823-0.824,0.823c-0.463,0-0.823-0.376-0.823-0.823c0-0.464,0.376-0.823,0.823-0.823
			C17.381,80.554,17.749,80.929,17.749,81.377z"/>
	</g>
</g>
<g>
	<g>
		<path d="M21.639,25.592h2.327c1.496,0,2.415,1.135,2.415,2.791c0,1.287-0.56,2.95-2.447,2.95h-2.295V25.592z M22.415,30.669h1.503
			c1.008,0,1.663-0.792,1.663-2.239s-0.664-2.175-1.719-2.175h-1.447V30.669z"/>
		<path d="M29.662,28.343c-0.008-0.264-0.104-0.704-0.992-0.704c-0.216,0-0.832,0.072-0.832,0.592c0,0.344,0.216,0.423,0.76,0.56
			l0.704,0.176c0.872,0.216,1.175,0.536,1.175,1.104c0,0.863-0.711,1.383-1.655,1.383c-1.655,0-1.775-0.959-1.799-1.463h0.68
			c0.024,0.328,0.12,0.855,1.111,0.855c0.504,0,0.959-0.2,0.959-0.664c0-0.336-0.232-0.448-0.832-0.6l-0.815-0.2
			c-0.584-0.144-0.968-0.44-0.968-1.016c0-0.919,0.76-1.335,1.583-1.335c1.495,0,1.599,1.104,1.599,1.312H29.662z"/>
		<path d="M32.15,27.735v2.719c0,0.328,0.28,0.328,0.424,0.328h0.248v0.552c-0.256,0.024-0.456,0.056-0.527,0.056
			c-0.696,0-0.848-0.392-0.848-0.896v-2.759h-0.568v-0.583h0.568v-1.167h0.704v1.167h0.671v0.583H32.15z"/>
	</g>
	<g>
		<path d="M37.553,27.295h0.583v1.727h1.727v0.583h-1.727v1.727h-0.583v-1.727h-1.735v-0.583h1.735V27.295z"/>
		<path d="M43.048,31.333h-0.752v-3.99h-1.311v-0.56c0.912-0.064,1.287-0.152,1.511-1.072h0.552V31.333z"/>
	</g>
</g>
<g>
	<g>
		<path d="M1.397,25.592h2.327c1.496,0,2.415,1.135,2.415,2.791c0,1.287-0.56,2.95-2.447,2.95H1.397V25.592z M2.173,30.669h1.503
			c1.008,0,1.663-0.792,1.663-2.239s-0.664-2.175-1.719-2.175H2.173V30.669z"/>
		<path d="M9.42,28.343c-0.008-0.264-0.104-0.704-0.992-0.704c-0.216,0-0.832,0.072-0.832,0.592c0,0.344,0.216,0.423,0.76,0.56
			l0.704,0.176c0.872,0.216,1.175,0.536,1.175,1.104c0,0.863-0.711,1.383-1.655,1.383c-1.655,0-1.775-0.959-1.799-1.463h0.68
			c0.024,0.328,0.12,0.855,1.111,0.855c0.504,0,0.959-0.2,0.959-0.664c0-0.336-0.232-0.448-0.832-0.6l-0.815-0.2
			c-0.584-0.144-0.968-0.44-0.968-1.016c0-0.919,0.76-1.335,1.583-1.335c1.495,0,1.599,1.104,1.599,1.312H9.42z"/>
		<path d="M11.909,27.735v2.719c0,0.328,0.28,0.328,0.424,0.328h0.248v0.552c-0.256,0.024-0.456,0.056-0.527,0.056
			c-0.696,0-0.848-0.392-0.848-0.896v-2.759h-0.568v-0.583h0.568v-1.167h0.704v1.167h0.671v0.583H11.909z"/>
	</g>
	<g>
		<path d="M17.749,28.294c0,0.44-0.36,0.824-0.824,0.824c-0.463,0-0.823-0.375-0.823-0.824c0-0.463,0.376-0.823,0.823-0.823
			C17.381,27.471,17.749,27.847,17.749,28.294z"/>
	</g>
</g>
</svg>
