<?xml version="1.0" encoding="utf-8"?>
<!-- Generator: Adobe Illustrator 28.2.0, SVG Export Plug-In . SVG Version: 6.00 Build 0)  -->
<svg version="1.1" id="儗僀儎乕_1" xmlns="http://www.w3.org/2000/svg" xmlns:xlink="http://www.w3.org/1999/xlink" x="0px"
	 y="0px" width="204.617px" height="149.903px" viewBox="0 0 204.617 149.903" style="enable-background:new 0 0 204.617 149.903;"
	 xml:space="preserve">
<style type="text/css">
	.st0{fill:none;stroke:#9FA0A0;stroke-dasharray:1;}
	.st1{fill:#DCDDDD;}
	.st2{fill:none;stroke:#000000;stroke-width:0.5;}
	.st3{fill:none;stroke:#000000;stroke-width:0.3;}
	.st4{fill:none;stroke:#000000;}
	.st5{fill:#9FA0A0;stroke:#9FA0A0;stroke-width:1.5307;}
	.st6{fill:#9FA0A0;}
</style>
<g>
	<path d="M17.993,96.682c0.201,0.063,0.435,0.098,0.704,0.103c-0.055,0.132-0.082,0.308-0.082,0.526v1.552h1.75
		c0.242,0,0.499-0.009,0.772-0.027c-0.018,0.101-0.027,0.191-0.027,0.273c0,0.109,0.009,0.2,0.027,0.273
		c-0.182-0.014-0.44-0.021-0.772-0.021h-1.75v2.871h2.222c0.296,0,0.597-0.019,0.902-0.055c-0.018,0.104-0.027,0.214-0.027,0.328
		c0,0.096,0.009,0.196,0.027,0.301c-0.305-0.036-0.606-0.055-0.902-0.055h-4.546c-0.296,0-0.597,0.019-0.902,0.055
		c0.018-0.104,0.027-0.205,0.027-0.301c0-0.114-0.009-0.224-0.027-0.328c0.305,0.036,0.606,0.055,0.902,0.055h1.75v-4.922
		C18.041,97.101,18.024,96.892,17.993,96.682z"/>
	<path d="M23.947,96.655c0.205,0.132,0.426,0.224,0.663,0.273c-0.127,0.114-0.267,0.354-0.417,0.718
		c-0.082,0.241-0.182,0.48-0.301,0.718v3.944c0,0.306,0.018,0.606,0.055,0.902c-0.096-0.019-0.196-0.027-0.301-0.027
		c-0.086,0-0.178,0.009-0.273,0.027c0.041-0.296,0.062-0.597,0.062-0.902v-3.11c-0.223,0.351-0.472,0.697-0.745,1.039
		c-0.078-0.214-0.178-0.39-0.301-0.526c0.419-0.429,0.752-0.887,0.998-1.374C23.637,97.858,23.824,97.297,23.947,96.655z
		 M27.146,98.863c0.278,0.155,0.517,0.255,0.718,0.301c-0.269,0.533-0.577,1.538-0.923,3.015h0.923c0.296,0,0.597-0.021,0.902-0.062
		c-0.018,0.114-0.027,0.226-0.027,0.335c0,0.096,0.009,0.196,0.027,0.301c-0.305-0.041-0.606-0.062-0.902-0.062h-2.769
		c-0.296,0-0.597,0.021-0.902,0.062c0.018-0.104,0.027-0.205,0.027-0.301c0-0.109-0.009-0.221-0.027-0.335
		c0.305,0.041,0.606,0.062,0.902,0.062h1.415C26.807,100.998,27.019,99.893,27.146,98.863z M24.494,97.988
		c0.305,0.036,0.606,0.055,0.902,0.055h2.222c0.296,0,0.595-0.019,0.896-0.055c-0.014,0.114-0.021,0.224-0.021,0.328
		s0.007,0.205,0.021,0.301c-0.301-0.036-0.599-0.055-0.896-0.055h-2.222c-0.296,0-0.597,0.019-0.902,0.055
		c0.018-0.096,0.027-0.196,0.027-0.301S24.512,98.102,24.494,97.988z M25.341,99.088l0.745,2.427
		c-0.209,0.022-0.401,0.062-0.574,0.116c-0.178-1.003-0.399-1.816-0.663-2.44C25,99.186,25.164,99.152,25.341,99.088z
		 M26.298,96.655c0.137,0.314,0.319,0.641,0.547,0.978c-0.164,0.041-0.317,0.125-0.458,0.253c-0.16-0.388-0.342-0.727-0.547-1.019
		C26.027,96.821,26.18,96.75,26.298,96.655z"/>
	<path d="M50.906,102.479v-5.028h0.616v1.827h0.014c0.266-0.385,0.63-0.56,1.058-0.566c0.974,0,1.527,0.798,1.527,1.827
		c0,0.876-0.364,2.046-1.611,2.046c-0.624,0-0.883-0.357-1.009-0.561h-0.014v0.455H50.906z M52.482,99.264
		c-0.889,0-0.987,0.96-0.987,1.555c0,0.974,0.609,1.233,1.001,1.233c0.672,0,0.987-0.609,0.987-1.415
		C53.483,100.167,53.435,99.264,52.482,99.264z"/>
	<path d="M54.861,98.151v-0.7h0.616v0.7H54.861z M55.478,102.479h-0.616v-3.663h0.616V102.479z"/>
	<path d="M57.158,99.328v2.381c0,0.287,0.245,0.287,0.372,0.287h0.217v0.483c-0.224,0.021-0.399,0.049-0.462,0.049
		c-0.609,0-0.743-0.343-0.743-0.784v-2.416h-0.497v-0.512h0.497v-1.022h0.616v1.022h0.588v0.512H57.158z"/>
</g>
<g>
	<path d="M98.849,6.16V1.131h0.616v1.828h0.014c0.266-0.385,0.63-0.561,1.058-0.567c0.973,0,1.527,0.798,1.527,1.828
		c0,0.875-0.364,2.045-1.611,2.045c-0.624,0-0.883-0.357-1.009-0.56H99.43V6.16H98.849z M100.424,2.945
		c-0.889,0-0.987,0.959-0.987,1.555c0,0.973,0.609,1.232,1.001,1.232c0.672,0,0.987-0.609,0.987-1.415
		C101.426,3.849,101.377,2.945,100.424,2.945z"/>
	<path d="M102.804,1.832V1.131h0.616v0.701H102.804z M103.42,6.16h-0.616V2.497h0.616V6.16z"/>
	<path d="M105.101,3.008V5.39c0,0.287,0.245,0.287,0.371,0.287h0.217V6.16c-0.224,0.021-0.399,0.049-0.462,0.049
		c-0.609,0-0.742-0.343-0.742-0.784V3.008h-0.498V2.497h0.498V1.475h0.616v1.022h0.588v0.511H105.101z"/>
	<path d="M111.986,6.557l-0.355,0.41c-0.456-0.451-0.813-0.966-1.073-1.545c-0.255-0.574-0.383-1.171-0.383-1.791
		s0.13-1.221,0.39-1.805c0.255-0.57,0.61-1.08,1.066-1.531l0.355,0.41c-0.392,0.387-0.697,0.836-0.916,1.347
		c-0.224,0.51-0.335,1.037-0.335,1.579s0.111,1.069,0.335,1.579C111.289,5.72,111.595,6.169,111.986,6.557z"/>
	<path d="M138.214,3.822h-4.84V3.316h4.84V3.822z"/>
	<path d="M141.809,6.16h-0.658V2.665h-1.149v-0.49c0.799-0.056,1.128-0.133,1.324-0.938h0.483V6.16z"/>
	<path d="M145.846,3.631c0,0.62-0.128,1.217-0.383,1.791c-0.26,0.579-0.617,1.094-1.073,1.545l-0.355-0.41
		c0.392-0.387,0.697-0.836,0.916-1.347c0.224-0.51,0.335-1.037,0.335-1.579s-0.111-1.069-0.335-1.579
		c-0.219-0.51-0.524-0.959-0.916-1.347l0.355-0.41c0.456,0.451,0.812,0.961,1.066,1.531C145.716,2.41,145.846,3.011,145.846,3.631z"
		/>
</g>
<rect x="160.076" y="71.232" class="st0" width="44.042" height="17.717"/>
<rect x="62.458" y="71.134" class="st1" width="141.495" height="17.715"/>
<polyline class="st2" points="159.737,70.954 159.737,88.849 17.828,88.849 "/>
<polyline class="st2" points="18.004,88.849 18.004,71.134 159.737,71.134 "/>
<line class="st3" x1="26.862" y1="88.849" x2="26.862" y2="71.283"/>
<line class="st3" x1="35.72" y1="88.849" x2="35.72" y2="71.283"/>
<line class="st3" x1="44.578" y1="88.849" x2="44.578" y2="71.283"/>
<line class="st3" x1="53.436" y1="88.849" x2="53.436" y2="71.283"/>
<line class="st3" x1="62.294" y1="88.849" x2="62.294" y2="71.283"/>
<line class="st3" x1="71.152" y1="88.849" x2="71.152" y2="71.283"/>
<line class="st3" x1="80.01" y1="88.849" x2="80.01" y2="71.283"/>
<line class="st3" x1="88.868" y1="88.849" x2="88.868" y2="71.283"/>
<line class="st3" x1="97.726" y1="88.849" x2="97.726" y2="71.283"/>
<line class="st3" x1="106.584" y1="88.849" x2="106.584" y2="71.283"/>
<line class="st3" x1="115.443" y1="88.849" x2="115.443" y2="71.283"/>
<line class="st3" x1="124.3" y1="88.849" x2="124.3" y2="71.283"/>
<line class="st3" x1="133.158" y1="88.849" x2="133.158" y2="71.283"/>
<line class="st3" x1="142.017" y1="88.849" x2="142.017" y2="71.283"/>
<line class="st3" x1="150.875" y1="88.849" x2="150.875" y2="71.104"/>
<polyline class="st4" points="169.304,112.121 169.304,129.837 160.445,129.837 "/>
<polyline class="st3" points="160.445,129.837 160.445,112.121 169.304,112.121 "/>
<g>
	<line class="st0" x1="177.54" y1="88.994" x2="177.54" y2="71.278"/>
	<line class="st0" x1="186.398" y1="88.994" x2="186.398" y2="71.278"/>
	<line class="st0" x1="195.255" y1="88.994" x2="195.255" y2="71.278"/>
	<line class="st0" x1="168.511" y1="88.994" x2="168.511" y2="71.278"/>
</g>
<line class="st2" x1="164.542" y1="91.757" x2="164.51" y2="109.799"/>
<g>
	<path class="st2" d="M61.936,90.444c0,0,0.227,2.609-2.607,2.609c-2.834,0-16.892,0-16.892,0s-2.325,0.679-2.325,2.324"/>
	<path class="st2" d="M18.286,90.444c0,0-0.227,2.609,2.607,2.609c2.834,0,16.892,0,16.892,0s2.325,0.679,2.325,2.324"/>
</g>
<g>
	<path class="st2" d="M203.251,90.436c0,0,0.179,2.056-2.055,2.056c-2.235,0-13.315,0-13.315,0s-1.832,0.535-1.832,1.831"/>
	<path class="st2" d="M168.846,90.436c0,0-0.178,2.056,2.056,2.056s13.314,0,13.314,0s1.832,0.535,1.832,1.831"/>
</g>
<path d="M116.796,11.797h5.916l-2.971,5.072L116.796,11.797z"/>
<path d="M161.642,106.544l5.973-0.178l-2.745,5.21L161.642,106.544z"/>
<path d="M63.566,65.444l5.973-0.178l-2.745,5.21L63.566,65.444z"/>
<line class="st2" x1="119.72" y1="8.027" x2="119.72" y2="13.027"/>
<g>
	<path d="M151.609,9.693V4.664h0.616v1.828h0.014c0.267-0.385,0.631-0.561,1.058-0.567c0.974,0,1.527,0.798,1.527,1.828
		c0,0.875-0.364,2.045-1.611,2.045c-0.623,0-0.882-0.357-1.008-0.56h-0.015v0.455H151.609z M153.186,6.478
		c-0.89,0-0.988,0.959-0.988,1.555c0,0.973,0.609,1.232,1.002,1.232c0.672,0,0.987-0.609,0.987-1.415
		C154.187,7.382,154.138,6.478,153.186,6.478z"/>
	<path d="M155.564,5.365V4.664h0.616v0.701H155.564z M156.181,9.693h-0.616V6.03h0.616V9.693z"/>
	<path d="M157.861,6.541v2.381c0,0.287,0.245,0.287,0.371,0.287h0.217v0.483c-0.224,0.021-0.399,0.049-0.462,0.049
		c-0.609,0-0.742-0.343-0.742-0.784V6.541h-0.498V6.03h0.498V5.007h0.616V6.03h0.588v0.511H157.861z"/>
	<path d="M154.9,16.826c-1.415,0-1.688-1.506-1.688-2.529c0-1.022,0.273-2.528,1.688-2.528s1.688,1.506,1.688,2.528
		C156.588,15.32,156.315,16.826,154.9,16.826z M154.9,12.323c-0.708,0-1.029,0.742-1.029,1.975c0,1.233,0.321,1.975,1.029,1.975
		c0.707,0,1.029-0.742,1.029-1.975C155.93,13.065,155.607,12.323,154.9,12.323z"/>
</g>
<g>
	<path d="M18.646,9.693V4.664h0.616v1.828h0.014c0.266-0.385,0.63-0.561,1.058-0.567c0.974,0,1.527,0.798,1.527,1.828
		c0,0.875-0.364,2.045-1.611,2.045c-0.624,0-0.883-0.357-1.009-0.56h-0.014v0.455H18.646z M20.222,6.478
		c-0.889,0-0.987,0.959-0.987,1.555c0,0.973,0.609,1.232,1.001,1.232c0.672,0,0.987-0.609,0.987-1.415
		C21.223,7.382,21.174,6.478,20.222,6.478z"/>
	<path d="M22.601,5.365V4.664h0.616v0.701H22.601z M23.217,9.693h-0.616V6.03h0.616V9.693z"/>
	<path d="M24.897,6.541v2.381c0,0.287,0.245,0.287,0.372,0.287h0.217v0.483c-0.224,0.021-0.399,0.049-0.462,0.049
		c-0.609,0-0.743-0.343-0.743-0.784V6.541h-0.497V6.03h0.497V5.007h0.616V6.03h0.588v0.511H24.897z"/>
	<path d="M20.698,16.693H20.04v-3.495h-1.148v-0.49c0.798-0.056,1.127-0.133,1.324-0.938h0.483V16.693z"/>
	<path d="M22.825,13.828c0.21-0.161,0.511-0.308,0.952-0.308c0.798,0,1.618,0.561,1.618,1.576c0,0.546-0.245,1.73-1.786,1.73
		c-0.645,0-1.471-0.259-1.59-1.359h0.637c0.063,0.574,0.49,0.826,1.044,0.826c0.637,0,1.036-0.511,1.036-1.127
		c0-0.708-0.483-1.093-1.092-1.093c-0.357,0-0.68,0.168-0.911,0.469l-0.532-0.028l0.371-2.64h2.549v0.602h-2.087L22.825,13.828z"/>
</g>
<g>
	<path d="M92.929,83.711c-1.819,0-2.17-1.936-2.17-3.25c0-1.314,0.351-3.25,2.17-3.25c1.818,0,2.169,1.936,2.169,3.25
		C95.099,81.775,94.748,83.711,92.929,83.711z M92.929,77.922c-0.91,0-1.324,0.954-1.324,2.539S92.02,83,92.929,83
		c0.909,0,1.323-0.955,1.323-2.539S93.838,77.922,92.929,77.922z"/>
</g>
<g>
	<path d="M102.46,83.54h-0.847v-4.492h-1.477v-0.63c1.026-0.072,1.449-0.171,1.701-1.207h0.622V83.54z"/>
</g>
<g>
	<path d="M110.532,83.711c-1.818,0-2.17-1.936-2.17-3.25c0-1.314,0.352-3.25,2.17-3.25s2.17,1.936,2.17,3.25
		C112.702,81.775,112.351,83.711,110.532,83.711z M110.532,77.922c-0.909,0-1.323,0.954-1.323,2.539S109.623,83,110.532,83
		s1.323-0.955,1.323-2.539S111.441,77.922,110.532,77.922z"/>
</g>
<g>
	<path d="M119.333,83.711c-1.818,0-2.17-1.936-2.17-3.25c0-1.314,0.352-3.25,2.17-3.25s2.17,1.936,2.17,3.25
		C121.503,81.775,121.151,83.711,119.333,83.711z M119.333,77.922c-0.909,0-1.323,0.954-1.323,2.539S118.424,83,119.333,83
		s1.323-0.955,1.323-2.539S120.242,77.922,119.333,77.922z"/>
</g>
<g>
	<path d="M128.137,83.711c-1.818,0-2.17-1.936-2.17-3.25c0-1.314,0.352-3.25,2.17-3.25s2.17,1.936,2.17,3.25
		C130.307,81.775,129.955,83.711,128.137,83.711z M128.137,77.922c-0.909,0-1.323,0.954-1.323,2.539S127.228,83,128.137,83
		s1.323-0.955,1.323-2.539S129.046,77.922,128.137,77.922z"/>
</g>
<g>
	<path d="M136.938,83.711c-1.818,0-2.17-1.936-2.17-3.25c0-1.314,0.352-3.25,2.17-3.25s2.17,1.936,2.17,3.25
		C139.108,81.775,138.757,83.711,136.938,83.711z M136.938,77.922c-0.909,0-1.323,0.954-1.323,2.539S136.029,83,136.938,83
		s1.323-0.955,1.323-2.539S137.848,77.922,136.938,77.922z"/>
</g>
<g>
	<path d="M145.739,83.711c-1.818,0-2.17-1.936-2.17-3.25c0-1.314,0.352-3.25,2.17-3.25s2.17,1.936,2.17,3.25
		C147.909,81.775,147.558,83.711,145.739,83.711z M145.739,77.922c-0.909,0-1.323,0.954-1.323,2.539S144.83,83,145.739,83
		s1.323-0.955,1.323-2.539S146.648,77.922,145.739,77.922z"/>
</g>
<g>
	<path d="M154.541,83.711c-1.818,0-2.17-1.936-2.17-3.25c0-1.314,0.352-3.25,2.17-3.25s2.17,1.936,2.17,3.25
		C156.711,81.775,156.359,83.711,154.541,83.711z M154.541,77.922c-0.909,0-1.323,0.954-1.323,2.539S153.632,83,154.541,83
		s1.323-0.955,1.323-2.539S155.45,77.922,154.541,77.922z"/>
</g>
<g>
	<path d="M165.397,83.54h-0.847v-4.492h-1.477v-0.63c1.026-0.072,1.449-0.171,1.701-1.207h0.622V83.54z"/>
</g>
<g>
	<path d="M165.443,124.322h-0.847v-4.492h-1.477v-0.63c1.026-0.072,1.449-0.172,1.701-1.207h0.622V124.322z"/>
</g>
<g>
	<path d="M174.201,83.54h-0.847v-4.492h-1.477v-0.63c1.026-0.072,1.449-0.171,1.701-1.207h0.622V83.54z"/>
</g>
<g>
	<path d="M181.647,83.711c-1.818,0-2.17-1.936-2.17-3.25c0-1.314,0.352-3.25,2.17-3.25s2.17,1.936,2.17,3.25
		C183.817,81.775,183.466,83.711,181.647,83.711z M181.647,77.922c-0.909,0-1.323,0.954-1.323,2.539S180.738,83,181.647,83
		s1.323-0.955,1.323-2.539S182.557,77.922,181.647,77.922z"/>
</g>
<g>
	<path d="M190.449,83.711c-1.818,0-2.17-1.936-2.17-3.25c0-1.314,0.352-3.25,2.17-3.25s2.17,1.936,2.17,3.25
		C192.619,81.775,192.268,83.711,190.449,83.711z M190.449,77.922c-0.909,0-1.323,0.954-1.323,2.539S189.54,83,190.449,83
		s1.323-0.955,1.323-2.539S191.358,77.922,190.449,77.922z"/>
</g>
<g>
	<path d="M200.604,83.54h-0.847v-4.492h-1.477v-0.63c1.026-0.072,1.449-0.171,1.701-1.207h0.622V83.54z"/>
</g>
<g>
	<path d="M67.254,83.54h-0.846v-4.492h-1.477v-0.63c1.026-0.072,1.45-0.171,1.702-1.207h0.621V83.54z"/>
</g>
<g>
	<path d="M76.056,83.54h-0.846v-4.492h-1.477v-0.63c1.026-0.072,1.45-0.171,1.702-1.207h0.621V83.54z"/>
</g>
<g>
	<path d="M84.857,83.54h-0.846v-4.492h-1.477v-0.63c1.026-0.072,1.45-0.171,1.702-1.207h0.621V83.54z"/>
</g>
<g>
	<path d="M49.028,83.711c-1.819,0-2.17-1.936-2.17-3.25c0-1.314,0.351-3.25,2.17-3.25c1.818,0,2.169,1.936,2.169,3.25
		C51.198,81.775,50.847,83.711,49.028,83.711z M49.028,77.922c-0.91,0-1.324,0.954-1.324,2.539S48.119,83,49.028,83
		c0.909,0,1.323-0.955,1.323-2.539S49.938,77.922,49.028,77.922z"/>
</g>
<g>
	<path d="M57.83,83.711c-1.819,0-2.17-1.936-2.17-3.25c0-1.314,0.351-3.25,2.17-3.25c1.818,0,2.169,1.936,2.169,3.25
		C59.999,81.775,59.648,83.711,57.83,83.711z M57.83,77.922c-0.91,0-1.324,0.954-1.324,2.539S56.92,83,57.83,83
		c0.909,0,1.323-0.955,1.323-2.539S58.739,77.922,57.83,77.922z"/>
</g>
<g>
	<path d="M22.624,83.711c-1.819,0-2.17-1.936-2.17-3.25c0-1.314,0.351-3.25,2.17-3.25c1.818,0,2.169,1.936,2.169,3.25
		C24.793,81.775,24.442,83.711,22.624,83.711z M22.624,77.922c-0.91,0-1.324,0.954-1.324,2.539S21.714,83,22.624,83
		c0.909,0,1.323-0.955,1.323-2.539S23.533,77.922,22.624,77.922z"/>
</g>
<g>
	<path d="M31.426,83.711c-1.819,0-2.17-1.936-2.17-3.25c0-1.314,0.351-3.25,2.17-3.25c1.818,0,2.169,1.936,2.169,3.25
		C33.595,81.775,33.244,83.711,31.426,83.711z M31.426,77.922c-0.91,0-1.324,0.954-1.324,2.539S30.516,83,31.426,83
		c0.909,0,1.323-0.955,1.323-2.539S32.335,77.922,31.426,77.922z"/>
</g>
<g>
	<path d="M40.227,83.711c-1.819,0-2.17-1.936-2.17-3.25c0-1.314,0.351-3.25,2.17-3.25c1.818,0,2.169,1.936,2.169,3.25
		C42.396,81.775,42.045,83.711,40.227,83.711z M40.227,77.922c-0.91,0-1.324,0.954-1.324,2.539S39.317,83,40.227,83
		c0.909,0,1.323-0.955,1.323-2.539S41.136,77.922,40.227,77.922z"/>
</g>
<rect x="17.934" y="18.203" class="st1" width="141.495" height="17.715"/>
<polyline class="st2" points="159.737,18.024 159.737,35.918 17.828,35.918 "/>
<polyline class="st2" points="18.004,35.918 18.004,18.203 159.737,18.203 "/>
<line class="st3" x1="26.862" y1="35.918" x2="26.862" y2="18.353"/>
<line class="st3" x1="35.72" y1="35.918" x2="35.72" y2="18.353"/>
<line class="st3" x1="44.578" y1="35.918" x2="44.578" y2="18.353"/>
<line class="st3" x1="53.436" y1="35.918" x2="53.436" y2="18.353"/>
<line class="st3" x1="62.294" y1="35.918" x2="62.294" y2="18.353"/>
<line class="st3" x1="71.152" y1="35.918" x2="71.152" y2="18.353"/>
<line class="st3" x1="80.01" y1="35.918" x2="80.01" y2="18.353"/>
<line class="st3" x1="88.868" y1="35.918" x2="88.868" y2="18.353"/>
<line class="st3" x1="97.726" y1="35.918" x2="97.726" y2="18.353"/>
<line class="st3" x1="106.584" y1="35.918" x2="106.584" y2="18.353"/>
<line class="st3" x1="115.443" y1="35.918" x2="115.443" y2="18.353"/>
<line class="st3" x1="124.3" y1="35.918" x2="124.3" y2="18.353"/>
<line class="st3" x1="133.158" y1="35.918" x2="133.158" y2="18.353"/>
<line class="st3" x1="142.017" y1="35.918" x2="142.017" y2="18.353"/>
<line class="st3" x1="150.875" y1="35.918" x2="150.875" y2="18.173"/>
<g>
	<path d="M92.929,30.781c-1.819,0-2.17-1.936-2.17-3.25s0.351-3.25,2.17-3.25c1.818,0,2.169,1.936,2.169,3.25
		S94.748,30.781,92.929,30.781z M92.929,24.992c-0.91,0-1.324,0.954-1.324,2.539s0.414,2.539,1.324,2.539
		c0.909,0,1.323-0.955,1.323-2.539S93.838,24.992,92.929,24.992z"/>
</g>
<g>
	<path d="M101.73,30.781c-1.819,0-2.17-1.936-2.17-3.25s0.351-3.25,2.17-3.25c1.818,0,2.17,1.936,2.17,3.25
		S103.549,30.781,101.73,30.781z M101.73,24.992c-0.909,0-1.324,0.954-1.324,2.539s0.415,2.539,1.324,2.539s1.323-0.955,1.323-2.539
		S102.64,24.992,101.73,24.992z"/>
</g>
<g>
	<path d="M110.532,30.781c-1.818,0-2.17-1.936-2.17-3.25s0.352-3.25,2.17-3.25s2.17,1.936,2.17,3.25S112.351,30.781,110.532,30.781z
		 M110.532,24.992c-0.909,0-1.323,0.954-1.323,2.539s0.414,2.539,1.323,2.539s1.323-0.955,1.323-2.539
		S111.441,24.992,110.532,24.992z"/>
</g>
<g>
	<path d="M120.062,30.61h-0.847v-4.492h-1.477v-0.63c1.026-0.072,1.449-0.171,1.701-1.207h0.622V30.61z"/>
</g>
<g>
	<path d="M128.866,30.61h-0.847v-4.492h-1.477v-0.63c1.026-0.072,1.449-0.171,1.701-1.207h0.622V30.61z"/>
</g>
<g>
	<path d="M136.938,30.781c-1.818,0-2.17-1.936-2.17-3.25s0.352-3.25,2.17-3.25s2.17,1.936,2.17,3.25S138.757,30.781,136.938,30.781z
		 M136.938,24.992c-0.909,0-1.323,0.954-1.323,2.539s0.414,2.539,1.323,2.539s1.323-0.955,1.323-2.539
		S137.848,24.992,136.938,24.992z"/>
</g>
<g>
	<path d="M145.739,30.781c-1.818,0-2.17-1.936-2.17-3.25s0.352-3.25,2.17-3.25s2.17,1.936,2.17,3.25S147.558,30.781,145.739,30.781z
		 M145.739,24.992c-0.909,0-1.323,0.954-1.323,2.539s0.414,2.539,1.323,2.539s1.323-0.955,1.323-2.539
		S146.648,24.992,145.739,24.992z"/>
</g>
<g>
	<path d="M155.271,30.61h-0.847v-4.492h-1.477v-0.63c1.026-0.072,1.449-0.171,1.701-1.207h0.622V30.61z"/>
</g>
<g>
	<path d="M66.525,30.781c-1.819,0-2.17-1.936-2.17-3.25s0.351-3.25,2.17-3.25c1.818,0,2.169,1.936,2.169,3.25
		S68.343,30.781,66.525,30.781z M66.525,24.992c-0.91,0-1.324,0.954-1.324,2.539s0.414,2.539,1.324,2.539
		c0.909,0,1.323-0.955,1.323-2.539S67.434,24.992,66.525,24.992z"/>
</g>
<g>
	<path d="M75.327,30.781c-1.819,0-2.17-1.936-2.17-3.25s0.351-3.25,2.17-3.25c1.818,0,2.169,1.936,2.169,3.25
		S77.145,30.781,75.327,30.781z M75.327,24.992c-0.91,0-1.324,0.954-1.324,2.539s0.414,2.539,1.324,2.539
		c0.909,0,1.323-0.955,1.323-2.539S76.236,24.992,75.327,24.992z"/>
</g>
<g>
	<path d="M84.128,30.781c-1.819,0-2.17-1.936-2.17-3.25s0.351-3.25,2.17-3.25c1.818,0,2.169,1.936,2.169,3.25
		S85.946,30.781,84.128,30.781z M84.128,24.992c-0.91,0-1.324,0.954-1.324,2.539s0.414,2.539,1.324,2.539
		c0.909,0,1.323-0.955,1.323-2.539S85.037,24.992,84.128,24.992z"/>
</g>
<g>
	<path d="M49.028,30.781c-1.819,0-2.17-1.936-2.17-3.25s0.351-3.25,2.17-3.25c1.818,0,2.169,1.936,2.169,3.25
		S50.847,30.781,49.028,30.781z M49.028,24.992c-0.91,0-1.324,0.954-1.324,2.539s0.414,2.539,1.324,2.539
		c0.909,0,1.323-0.955,1.323-2.539S49.938,24.992,49.028,24.992z"/>
</g>
<g>
	<path d="M58.559,30.61h-0.846v-4.492h-1.477v-0.63c1.026-0.072,1.45-0.171,1.702-1.207h0.621V30.61z"/>
</g>
<g>
	<path d="M23.353,30.61h-0.846v-4.492H21.03v-0.63c1.026-0.072,1.45-0.171,1.702-1.207h0.621V30.61z"/>
</g>
<g>
	<path d="M32.155,30.61h-0.846v-4.492h-1.477v-0.63c1.026-0.072,1.45-0.171,1.702-1.207h0.621V30.61z"/>
</g>
<g>
	<path d="M40.956,30.61H40.11v-4.492h-1.477v-0.63c1.026-0.072,1.45-0.171,1.702-1.207h0.621V30.61z"/>
</g>
<g>
	<path d="M180.239,96.916c0.155,0.014,0.31,0.021,0.465,0.021h0.554c0.155,0,0.31-0.007,0.465-0.021
		c-0.022,0.278-0.034,0.561-0.034,0.848v1.449h0.52v-1.449c0-0.287-0.009-0.569-0.027-0.848c0.159,0.014,0.316,0.021,0.472,0.021
		h0.485c0.155,0,0.312-0.007,0.472-0.021c-0.019,0.278-0.027,0.561-0.027,0.848v1.436c0.146-0.005,0.289-0.019,0.431-0.041
		c-0.019,0.087-0.027,0.178-0.027,0.273c0,0.077,0.009,0.157,0.027,0.239c-0.146-0.022-0.289-0.036-0.431-0.041v2.584
		c0,0.21-0.032,0.354-0.096,0.431c-0.118,0.183-0.369,0.278-0.752,0.287c-0.022-0.183-0.098-0.347-0.226-0.492
		c0.219,0.019,0.357,0.027,0.417,0.027c0.159-0.009,0.239-0.103,0.239-0.28v-2.57h-0.54v0.629c0,0.561-0.062,1.062-0.185,1.504
		c-0.132,0.433-0.282,0.798-0.451,1.094c-0.087-0.101-0.219-0.176-0.396-0.226c-0.128,0.178-0.396,0.271-0.807,0.28
		c-0.022-0.178-0.094-0.34-0.212-0.485c0.246,0.019,0.398,0.027,0.458,0.027c0.164-0.009,0.246-0.101,0.246-0.273v-2.55h-0.595
		v0.472c0,0.615-0.068,1.167-0.205,1.654c-0.137,0.479-0.296,0.884-0.479,1.217c-0.096-0.114-0.244-0.196-0.444-0.246
		c0.306-0.46,0.501-0.935,0.588-1.422c0.087-0.369,0.13-0.827,0.13-1.374v-0.301c-0.214,0.005-0.426,0.022-0.636,0.055
		c0.019-0.082,0.027-0.162,0.027-0.239c0-0.096-0.009-0.187-0.027-0.273c0.21,0.032,0.422,0.05,0.636,0.055v-1.449
		C180.273,97.476,180.262,97.194,180.239,96.916z M180.684,99.212h0.595v-1.866h-0.595V99.212z M182.208,99.616h-0.52v2.57
		c0,0.096-0.007,0.176-0.021,0.239c0.219-0.369,0.362-0.738,0.431-1.107c0.073-0.333,0.109-0.743,0.109-1.23V99.616z
		 M182.625,99.212h0.54v-1.866h-0.54V99.212z M184.129,97.319c0.159,0.019,0.351,0.027,0.574,0.027
		c-0.06,0.118-0.089,0.267-0.089,0.444v3.001c0,0.287,0.021,0.569,0.062,0.848c-0.096-0.019-0.187-0.027-0.273-0.027
		c-0.096,0-0.187,0.009-0.273,0.027c0.036-0.278,0.055-0.561,0.055-0.848v-2.728C184.184,97.818,184.165,97.57,184.129,97.319z
		 M185.079,96.663c0.183,0.019,0.374,0.027,0.574,0.027c-0.05,0.137-0.075,0.294-0.075,0.472v5.353c0,0.228-0.084,0.378-0.253,0.451
		c-0.164,0.063-0.401,0.096-0.711,0.096c-0.046-0.214-0.135-0.396-0.267-0.547h0.383c0.251,0,0.376-0.082,0.376-0.246v-5.161
		C185.106,96.961,185.098,96.813,185.079,96.663z"/>
	<path d="M186.829,96.963c0.2,0.019,0.401,0.027,0.602,0.027h0.93c0.219,0,0.439-0.009,0.663-0.027
		c-0.104,0.191-0.396,0.914-0.875,2.167c0.396,0.593,0.597,1.085,0.602,1.477c0,0.355-0.08,0.617-0.239,0.786
		c-0.2,0.2-0.485,0.301-0.854,0.301c0-0.178-0.066-0.369-0.198-0.574c0.173,0.019,0.292,0.027,0.355,0.027
		c0.296,0,0.444-0.18,0.444-0.54c0-0.355-0.2-0.829-0.602-1.422c0.228-0.533,0.453-1.107,0.677-1.723h-0.95v4.676
		c0,0.296,0.007,0.597,0.021,0.902c-0.096-0.019-0.193-0.027-0.294-0.027c-0.091,0-0.185,0.009-0.28,0.027
		c0.019-0.306,0.027-0.606,0.027-0.902v-4.546C186.856,97.382,186.848,97.173,186.829,96.963z M189.324,100.908
		c0.146,0.132,0.326,0.232,0.54,0.301c-0.451,0.479-0.87,0.962-1.258,1.449c-0.173-0.15-0.326-0.251-0.458-0.301
		c0.205-0.155,0.401-0.342,0.588-0.561C188.978,101.528,189.174,101.231,189.324,100.908z M190.329,96.615
		c0.2,0.096,0.41,0.159,0.629,0.191c-0.06,0.06-0.118,0.13-0.178,0.212c0.155,0.41,0.385,0.754,0.69,1.032
		c0.337,0.31,0.807,0.559,1.408,0.745c-0.21,0.169-0.357,0.369-0.444,0.602c-0.333-0.219-0.617-0.429-0.854-0.629
		c-0.014,0.073-0.021,0.139-0.021,0.198c0,0.077,0.009,0.159,0.027,0.246c-0.104-0.019-0.214-0.027-0.328-0.027h-0.547v0.875h0.718
		c0.251,0,0.504-0.019,0.759-0.055c-0.019,0.087-0.027,0.176-0.027,0.267c0,0.096,0.009,0.187,0.027,0.273
		c-0.255-0.036-0.508-0.055-0.759-0.055h-0.718v2.194c0,0.137-0.073,0.239-0.219,0.308c-0.132,0.063-0.403,0.096-0.813,0.096
		c-0.009-0.214-0.075-0.405-0.198-0.574c0.237,0.036,0.419,0.055,0.547,0.055c0.123,0,0.189-0.043,0.198-0.13v-1.948h-0.547
		c-0.26,0-0.518,0.019-0.772,0.055c0.019-0.087,0.027-0.178,0.027-0.273c0-0.091-0.009-0.18-0.027-0.267
		c0.255,0.036,0.513,0.055,0.772,0.055h0.547v-0.875h-0.417c-0.104,0-0.214,0.009-0.328,0.027c0.019-0.087,0.027-0.169,0.027-0.246
		c0-0.041-0.002-0.077-0.007-0.109c-0.2,0.228-0.415,0.446-0.643,0.656c-0.101-0.137-0.248-0.265-0.444-0.383
		c0.474-0.323,0.87-0.711,1.189-1.162C189.919,97.544,190.16,97.093,190.329,96.615z M189.611,98.727
		c0.073,0.009,0.139,0.014,0.198,0.014h1.449c0.096,0,0.185-0.007,0.267-0.021c-0.187-0.155-0.34-0.303-0.458-0.444
		c-0.214-0.251-0.385-0.547-0.513-0.889C190.286,97.861,189.972,98.308,189.611,98.727z M191.43,101.01
		c0.05,0.073,0.148,0.178,0.294,0.314c0.237,0.228,0.433,0.436,0.588,0.622c0.109,0.123,0.217,0.239,0.321,0.349
		c-0.128,0.041-0.303,0.132-0.526,0.273c-0.068-0.155-0.207-0.355-0.417-0.602c-0.237-0.269-0.48-0.494-0.731-0.677
		C191.145,101.213,191.302,101.12,191.43,101.01z"/>
</g>
<g>
	<path d="M156.577,135.041c-0.189-0.883-0.925-1.044-1.408-1.044c-0.91,0-1.646,0.673-1.646,1.996c0,1.184,0.42,2.094,1.667,2.094
		c0.44,0,1.204-0.21,1.436-1.379h0.658c-0.28,1.897-1.821,1.981-2.199,1.981c-1.142,0-2.262-0.742-2.262-2.675
		c0-1.548,0.882-2.62,2.346-2.62c1.296,0,1.968,0.806,2.066,1.646H156.577z"/>
	<path d="M158.864,138.556h-0.68v-5.028h2.325c0.826,0,1.653,0.287,1.653,1.352c0,0.742-0.379,1.016-0.7,1.204
		c0.287,0.119,0.574,0.245,0.602,0.946l0.042,0.91c0.008,0.28,0.042,0.385,0.253,0.504v0.112h-0.834
		c-0.098-0.309-0.119-1.071-0.119-1.261c0-0.413-0.084-0.896-0.896-0.896h-1.646V138.556z M158.864,135.818h1.575
		c0.498,0,1.023-0.126,1.023-0.869c0-0.777-0.567-0.84-0.904-0.84h-1.694V135.818z"/>
	<path d="M162.931,135.397c0-1.604,1.169-1.765,1.701-1.765c0.854,0,1.541,0.554,1.541,1.471c0,0.883-0.581,1.254-1.316,1.646
		l-0.512,0.28c-0.672,0.371-0.819,0.756-0.848,0.945h2.676v0.581h-3.369c0.035-1.022,0.498-1.569,1.156-1.954l0.651-0.378
		c0.525-0.302,0.903-0.505,0.903-1.148c0-0.393-0.252-0.89-0.974-0.89c-0.932,0-0.974,0.868-0.994,1.211H162.931z"/>
	<path d="M168.462,138.689c-1.415,0-1.688-1.506-1.688-2.528s0.273-2.528,1.688-2.528s1.688,1.506,1.688,2.528
		S169.877,138.689,168.462,138.689z M168.462,134.186c-0.708,0-1.029,0.742-1.029,1.975s0.321,1.976,1.029,1.976
		c0.707,0,1.029-0.743,1.029-1.976S169.169,134.186,168.462,134.186z"/>
	<path d="M172.354,138.689c-1.415,0-1.688-1.506-1.688-2.528s0.273-2.528,1.688-2.528c1.414,0,1.688,1.506,1.688,2.528
		S173.768,138.689,172.354,138.689z M172.354,134.186c-0.708,0-1.029,0.742-1.029,1.975s0.321,1.976,1.029,1.976
		c0.707,0,1.029-0.743,1.029-1.976S173.061,134.186,172.354,134.186z"/>
	<path d="M174.593,135.321c0-0.896,0.547-1.688,1.583-1.688c1.569,0,1.723,1.485,1.723,2.283c0,0.525-0.091,2.773-1.785,2.773
		c-1.156,0-1.464-0.84-1.464-1.316h0.616c0.035,0.497,0.329,0.806,0.833,0.806c0.673,0,1.029-0.567,1.184-1.842l-0.014-0.015
		c-0.183,0.378-0.673,0.589-1.128,0.589C175.23,136.911,174.593,136.301,174.593,135.321z M177.178,135.237
		c0-0.561-0.287-1.051-0.995-1.051c-0.574,0-0.952,0.448-0.952,1.106c0,0.945,0.588,1.064,1.001,1.064
		C176.554,136.357,177.178,136.209,177.178,135.237z"/>
	<path d="M157.505,147.703l-0.355,0.41c-0.456-0.451-0.813-0.966-1.073-1.545c-0.255-0.574-0.383-1.171-0.383-1.791
		s0.13-1.222,0.39-1.805c0.255-0.569,0.61-1.08,1.066-1.531l0.355,0.41c-0.392,0.388-0.697,0.836-0.916,1.347
		c-0.224,0.511-0.335,1.037-0.335,1.579s0.111,1.068,0.335,1.579C156.808,146.867,157.113,147.315,157.505,147.703z"/>
	<path d="M158.756,143.779c0.183,0.019,0.364,0.027,0.547,0.027h0.027c0.26,0,0.518-0.009,0.772-0.027
		c-0.019,0.282-0.027,0.562-0.027,0.841v1.593c0,0.191,0.005,0.381,0.014,0.567c0.027,0.009,0.05,0.019,0.068,0.027
		c0.733,0.333,1.688,0.499,2.864,0.499c0.374,0,1.003-0.048,1.887-0.144c-0.104,0.169-0.176,0.388-0.212,0.656h-1.449
		c-1.312,0-2.343-0.176-3.09-0.526c-0.169-0.087-0.287-0.13-0.355-0.13c-0.146,0-0.374,0.21-0.684,0.629
		c-0.132-0.173-0.296-0.308-0.492-0.403l0.663-0.513c0.101-0.068,0.191-0.118,0.273-0.15c0.009-0.178,0.014-0.349,0.014-0.513
		v-1.894h-0.273c-0.183,0-0.364,0.009-0.547,0.027c0.019-0.096,0.027-0.196,0.027-0.301
		C158.783,143.958,158.774,143.87,158.756,143.779z M159.631,141.694c0.164,0.405,0.385,0.846,0.663,1.319
		c-0.191,0.032-0.383,0.096-0.574,0.191c-0.118-0.419-0.328-0.875-0.629-1.367C159.287,141.815,159.467,141.767,159.631,141.694z
		 M161.6,141.482c0.214,0.055,0.453,0.082,0.718,0.082c-0.055,0.2-0.089,0.608-0.103,1.224h0.916v-1.203h0.52v1.203h0.246
		c0.255,0,0.513-0.016,0.772-0.048c-0.019,0.087-0.027,0.178-0.027,0.273c0,0.087,0.009,0.178,0.027,0.273
		c-0.26-0.036-0.518-0.055-0.772-0.055h-0.246v1.148h0.444c0.255,0,0.508-0.021,0.759-0.062c-0.019,0.096-0.027,0.187-0.027,0.273
		c0,0.096,0.009,0.187,0.027,0.273c-0.251-0.036-0.504-0.055-0.759-0.055h-0.444v1.374c0,0.278,0.019,0.561,0.055,0.848
		c-0.104-0.019-0.214-0.027-0.328-0.027c-0.096,0-0.196,0.009-0.301,0.027c0.036-0.287,0.055-0.569,0.055-0.848v-1.374h-0.957
		c-0.036,0.52-0.114,0.9-0.232,1.142c-0.205,0.41-0.472,0.761-0.8,1.053c-0.21-0.128-0.422-0.228-0.636-0.301
		c0.552-0.405,0.897-0.877,1.039-1.415c0.036-0.142,0.066-0.301,0.089-0.479h-0.41c-0.255,0-0.513,0.019-0.772,0.055
		c0.019-0.087,0.027-0.178,0.027-0.273c0-0.087-0.009-0.178-0.027-0.273c0.26,0.041,0.518,0.062,0.772,0.062h0.444
		c0.009-0.142,0.014-0.289,0.014-0.444c0-0.251-0.002-0.485-0.007-0.704h-0.267c-0.255,0-0.508,0.019-0.759,0.055
		c0.019-0.096,0.027-0.187,0.027-0.273c0-0.096-0.009-0.187-0.027-0.273c0.251,0.032,0.504,0.048,0.759,0.048h0.26
		C161.654,142.287,161.632,141.851,161.6,141.482z M163.131,144.38v-1.148h-0.923c-0.005,0.214-0.007,0.449-0.007,0.704
		c0,0.159-0.002,0.308-0.007,0.444H163.131z"/>
	<path d="M167.205,141.482c0.205,0.132,0.426,0.224,0.663,0.273c-0.128,0.114-0.267,0.354-0.417,0.718
		c-0.082,0.241-0.183,0.48-0.301,0.718v3.944c0,0.306,0.019,0.606,0.055,0.902c-0.096-0.019-0.196-0.027-0.301-0.027
		c-0.087,0-0.178,0.009-0.273,0.027c0.041-0.296,0.062-0.597,0.062-0.902v-3.11c-0.224,0.351-0.472,0.697-0.745,1.039
		c-0.077-0.214-0.178-0.39-0.301-0.526c0.419-0.429,0.752-0.887,0.998-1.374C166.896,142.685,167.082,142.125,167.205,141.482z
		 M170.404,143.69c0.278,0.155,0.518,0.255,0.718,0.301c-0.269,0.533-0.576,1.538-0.923,3.015h0.923
		c0.296,0,0.597-0.021,0.902-0.062c-0.019,0.114-0.027,0.226-0.027,0.335c0,0.096,0.009,0.196,0.027,0.301
		c-0.306-0.041-0.606-0.062-0.902-0.062h-2.769c-0.296,0-0.597,0.021-0.902,0.062c0.019-0.104,0.027-0.205,0.027-0.301
		c0-0.109-0.009-0.221-0.027-0.335c0.306,0.041,0.606,0.062,0.902,0.062h1.415C170.064,145.825,170.276,144.72,170.404,143.69z
		 M167.752,142.815c0.306,0.036,0.606,0.055,0.902,0.055h2.222c0.296,0,0.595-0.019,0.896-0.055
		c-0.014,0.114-0.021,0.224-0.021,0.328s0.007,0.205,0.021,0.301c-0.301-0.036-0.6-0.055-0.896-0.055h-2.222
		c-0.296,0-0.597,0.019-0.902,0.055c0.019-0.096,0.027-0.196,0.027-0.301S167.771,142.929,167.752,142.815z M168.6,143.916
		l0.745,2.427c-0.21,0.022-0.401,0.062-0.574,0.116c-0.178-1.003-0.398-1.816-0.663-2.44
		C168.258,144.013,168.422,143.979,168.6,143.916z M169.557,141.482c0.137,0.314,0.319,0.641,0.547,0.978
		c-0.164,0.041-0.316,0.125-0.458,0.253c-0.159-0.388-0.342-0.727-0.547-1.019C169.285,141.648,169.438,141.578,169.557,141.482z"/>
	<path d="M175.012,144.777c0,0.62-0.128,1.217-0.383,1.791c-0.26,0.579-0.617,1.094-1.073,1.545l-0.355-0.41
		c0.392-0.388,0.697-0.836,0.916-1.347c0.224-0.511,0.335-1.037,0.335-1.579s-0.111-1.068-0.335-1.579
		c-0.219-0.511-0.524-0.959-0.916-1.347l0.355-0.41c0.456,0.451,0.812,0.962,1.066,1.531
		C174.882,143.555,175.012,144.157,175.012,144.777z"/>
</g>
<g>
	<g>
		<path d="M115.624,1.138h0.658v5.029h-0.764l-2.556-4.062h-0.015v4.062h-0.658V1.138h0.806L115.61,5.2h0.014V1.138z"/>
		<path d="M119.655,6.167V5.634l-0.015-0.014c-0.259,0.427-0.574,0.651-1.162,0.651c-0.539,0-1.19-0.259-1.19-1.135V2.503h0.616
			v2.43c0,0.603,0.308,0.806,0.707,0.806c0.777,0,1.009-0.687,1.009-1.219V2.503h0.616v3.663H119.655z"/>
		<path d="M121.159,2.503h0.581v0.519h0.015c0.133-0.196,0.448-0.624,1.106-0.624s0.868,0.399,0.974,0.595
			c0.308-0.343,0.553-0.595,1.12-0.595c0.393,0,1.135,0.203,1.135,1.233v2.535h-0.616V3.799c0-0.504-0.154-0.848-0.68-0.848
			c-0.518,0-0.861,0.49-0.861,0.98v2.234h-0.616V3.631c0-0.309-0.119-0.68-0.574-0.68c-0.351,0-0.967,0.224-0.967,1.219v1.996
			h-0.616V2.503z"/>
	</g>
</g>
<g>
	<g>
		<path d="M35.618,97.491h0.658v5.028h-0.763l-2.557-4.062h-0.014v4.062h-0.658v-5.028h0.806l2.514,4.062h0.014V97.491z"/>
		<path d="M39.649,102.519v-0.532l-0.014-0.014c-0.259,0.427-0.574,0.651-1.163,0.651c-0.54,0-1.191-0.26-1.191-1.135v-2.634h0.617
			v2.431c0,0.603,0.308,0.806,0.707,0.806c0.777,0,1.009-0.687,1.009-1.219v-2.018h0.616v3.663H39.649z"/>
		<path d="M41.153,98.856h0.582v0.519h0.014c0.133-0.196,0.448-0.623,1.106-0.623s0.869,0.398,0.974,0.595
			c0.308-0.343,0.553-0.595,1.121-0.595c0.392,0,1.134,0.203,1.134,1.232v2.535h-0.616v-2.367c0-0.504-0.154-0.848-0.679-0.848
			c-0.519,0-0.862,0.49-0.862,0.98v2.234H43.31v-2.535c0-0.309-0.119-0.68-0.574-0.68c-0.35,0-0.966,0.225-0.966,1.219v1.996h-0.617
			V98.856z"/>
	</g>
</g>
<g>
	<line class="st5" x1="40.096" y1="119.542" x2="40.096" y2="110.971"/>
	<polygon class="st6" points="43.311,113.114 40.097,106.685 40.097,106.685 36.882,113.114 	"/>
</g>
<g>
	<path d="M29.277,122.502c0.26,0.032,0.524,0.048,0.793,0.048h1.196c0.123-0.296,0.244-0.613,0.362-0.95
		c0.223,0.091,0.44,0.152,0.649,0.185c-0.119,0.128-0.283,0.383-0.492,0.766h2.741c0.26,0,0.524-0.016,0.793-0.048
		c-0.023,0.096-0.034,0.196-0.034,0.301c0,0.087,0.011,0.178,0.034,0.273c-0.269-0.036-0.533-0.055-0.793-0.055h-2.967
		c-0.237,0.483-0.481,0.916-0.731,1.299v2.857c0,0.296,0.018,0.597,0.055,0.902c-0.096-0.019-0.196-0.027-0.301-0.027
		c-0.086,0-0.178,0.009-0.273,0.027c0.041-0.306,0.062-0.606,0.062-0.902v-2.229c-0.269,0.347-0.542,0.67-0.82,0.971
		c-0.146-0.123-0.337-0.224-0.574-0.301c0.506-0.419,0.964-0.902,1.374-1.449c-0.014-0.114-0.027-0.226-0.041-0.335
		c0.082,0.009,0.168,0.016,0.26,0.021c0.168-0.246,0.328-0.524,0.479-0.834H30.07c-0.269,0-0.533,0.019-0.793,0.055
		c0.018-0.096,0.027-0.187,0.027-0.273C29.305,122.699,29.295,122.598,29.277,122.502z M31.704,123.835
		c0.219,0.022,0.438,0.034,0.656,0.034h1.894c0.223,0,0.449-0.012,0.677-0.034c-0.018,0.087-0.027,0.169-0.027,0.246
		c0.018,0.104,0.027,0.205,0.027,0.301c-0.465,0.26-0.891,0.518-1.278,0.772v0.465h0.902c0.26,0,0.524-0.021,0.793-0.062
		c-0.018,0.104-0.027,0.205-0.027,0.301s0.009,0.187,0.027,0.273c-0.269-0.036-0.533-0.055-0.793-0.055h-0.902v1.374
		c0,0.214-0.098,0.357-0.294,0.431c-0.255,0.096-0.549,0.144-0.882,0.144c-0.023-0.196-0.105-0.388-0.246-0.574
		c0.237,0.019,0.392,0.027,0.465,0.027c0.314,0,0.476-0.091,0.485-0.273v-1.128h-1.203c-0.26,0-0.524,0.019-0.793,0.055
		c0.023-0.087,0.034-0.178,0.034-0.273s-0.011-0.196-0.034-0.301c0.269,0.041,0.533,0.062,0.793,0.062h1.203v-0.574l1.073-0.718
		H32.36c-0.219,0-0.438,0.009-0.656,0.027c0.018-0.087,0.027-0.178,0.027-0.273C31.731,124.004,31.722,123.922,31.704,123.835z"/>
	<path d="M37.31,121.627c0.155,0.082,0.376,0.144,0.663,0.185c-0.141,0.183-0.314,0.538-0.52,1.066
		c-0.027,0.068-0.055,0.139-0.082,0.212v4.115c0,0.301,0.018,0.6,0.055,0.896c-0.105-0.014-0.205-0.021-0.301-0.021
		s-0.187,0.007-0.273,0.021c0.032-0.296,0.048-0.595,0.048-0.896v-3.104c-0.16,0.306-0.333,0.6-0.52,0.882
		c-0.082-0.123-0.226-0.241-0.431-0.355c0.406-0.515,0.72-1.03,0.943-1.545C37.084,122.6,37.223,122.115,37.31,121.627z
		 M37.528,123.781c0.096,0.019,0.187,0.027,0.273,0.027h0.499c0.137,0,0.271-0.009,0.403-0.027c-0.027,0.142-0.045,0.28-0.055,0.417
		v2.365c0.168-0.109,0.335-0.234,0.499-0.376c0.041,0.137,0.112,0.258,0.212,0.362c-0.383,0.306-0.784,0.668-1.203,1.087
		c-0.082-0.128-0.182-0.237-0.301-0.328c0.146-0.142,0.246-0.273,0.301-0.396c0.041-0.118,0.062-0.217,0.062-0.294v-2.42h-0.417
		c-0.086,0-0.178,0.009-0.273,0.027c0.018-0.077,0.027-0.15,0.027-0.219C37.556,123.933,37.546,123.858,37.528,123.781z
		 M38.547,122.031c0.119,0.392,0.28,0.813,0.485,1.265c-0.168,0.027-0.339,0.08-0.513,0.157c-0.086-0.401-0.242-0.836-0.465-1.306
		C38.228,122.128,38.392,122.09,38.547,122.031z M39.306,122.53c0.219,0.032,0.44,0.048,0.663,0.048h0.301v-0.492
		c0-0.159-0.021-0.321-0.062-0.485c0.164,0.046,0.355,0.07,0.574,0.075c-0.055,0.104-0.082,0.241-0.082,0.41v0.492
		c0.219,0,0.438-0.016,0.656-0.048c-0.018,0.077-0.027,0.159-0.027,0.246c0,0.077,0.009,0.159,0.027,0.246
		c-0.219-0.041-0.438-0.062-0.656-0.062v0.909h0.144c0.337-0.456,0.69-1.051,1.06-1.784c0.155,0.146,0.321,0.267,0.499,0.362
		c-0.109,0.082-0.344,0.401-0.704,0.957c-0.1,0.164-0.203,0.319-0.308,0.465h0.383c0.219,0,0.438-0.021,0.656-0.062
		c-0.018,0.087-0.027,0.169-0.027,0.246c0,0.087,0.009,0.169,0.027,0.246c-0.219-0.032-0.438-0.048-0.656-0.048h-0.67
		c-0.127,0.173-0.262,0.333-0.403,0.479c-0.05,0.063-0.1,0.121-0.15,0.171h0.704c0.232,0,0.467-0.016,0.704-0.048
		c-0.037,0.21-0.055,0.417-0.055,0.622v1.948c0,0.228,0.018,0.453,0.055,0.677c-0.132-0.014-0.223-0.021-0.273-0.021
		c-0.045,0-0.137,0.007-0.273,0.021c0.037-0.191,0.055-0.383,0.055-0.574h-1.333c0,0.196,0.016,0.388,0.048,0.574
		c-0.132-0.014-0.223-0.021-0.273-0.021c-0.045,0-0.137,0.007-0.273,0.021c0.041-0.224,0.062-0.449,0.062-0.677v-1.661
		c-0.141,0.132-0.29,0.265-0.444,0.396c-0.091-0.137-0.226-0.255-0.403-0.355c0.287-0.205,0.563-0.426,0.827-0.663
		c-0.009-0.101-0.023-0.196-0.041-0.287c0.105,0.014,0.205,0.022,0.301,0.027c0.214-0.2,0.41-0.41,0.588-0.629h-0.827
		c-0.223,0-0.444,0.016-0.663,0.048c0.018-0.077,0.027-0.159,0.027-0.246c0-0.077-0.009-0.159-0.027-0.246
		c0.219,0.041,0.44,0.062,0.663,0.062h0.574v-0.909h-0.301c-0.223,0-0.444,0.021-0.663,0.062c0.018-0.087,0.027-0.169,0.027-0.246
		C39.333,122.689,39.324,122.607,39.306,122.53z M40.126,126.05h1.347v-0.766h-1.292c-0.023,0.027-0.041,0.048-0.055,0.062V126.05z
		 M40.126,127.151h1.347v-0.745h-1.347V127.151z"/>
	<path d="M44.678,127.53c-1.415,0-1.688-1.506-1.688-2.528s0.273-2.528,1.688-2.528c1.415,0,1.688,1.506,1.688,2.528
		S46.092,127.53,44.678,127.53z M44.678,123.027c-0.708,0-1.03,0.742-1.03,1.975s0.322,1.976,1.03,1.976
		c0.707,0,1.029-0.743,1.029-1.976S45.385,123.027,44.678,123.027z"/>
</g>
<polyline class="st2" points="22.368,37.789 22.368,51.488 66.892,51.488 66.892,67.99 "/>
<path d="M196.202,65.444l5.973-0.178l-2.745,5.21L196.202,65.444z"/>
<polyline class="st2" points="155.005,37.789 155.005,51.488 199.529,51.488 199.529,67.99 "/>
<g>
	<g>
		<path d="M1.397,77.912h2.327c1.495,0,2.415,1.135,2.415,2.791c0,1.287-0.56,2.95-2.447,2.95H1.397V77.912z M2.173,82.989h1.503
			c1.007,0,1.663-0.792,1.663-2.239s-0.664-2.175-1.719-2.175H2.173V82.989z"/>
		<path d="M9.42,80.662c-0.008-0.264-0.104-0.704-0.992-0.704c-0.216,0-0.832,0.072-0.832,0.592c0,0.344,0.216,0.423,0.76,0.56
			l0.704,0.176c0.872,0.216,1.175,0.536,1.175,1.104c0,0.863-0.711,1.383-1.655,1.383c-1.655,0-1.775-0.959-1.799-1.463h0.68
			c0.024,0.328,0.12,0.855,1.111,0.855c0.504,0,0.959-0.2,0.959-0.664c0-0.336-0.232-0.448-0.832-0.6l-0.815-0.2
			c-0.584-0.144-0.968-0.44-0.968-1.016c0-0.919,0.76-1.335,1.583-1.335c1.495,0,1.599,1.104,1.599,1.312H9.42z"/>
		<path d="M11.909,80.054v2.719c0,0.328,0.28,0.328,0.424,0.328h0.248v0.552c-0.256,0.024-0.456,0.056-0.527,0.056
			c-0.696,0-0.848-0.392-0.848-0.896v-2.759h-0.568v-0.583h0.568v-1.167h0.704v1.167h0.671v0.583H11.909z"/>
	</g>
</g>
<g>
	<g>
		<path d="M1.397,24.975h2.327c1.495,0,2.415,1.135,2.415,2.791c0,1.287-0.56,2.95-2.447,2.95H1.397V24.975z M2.173,30.052h1.503
			c1.007,0,1.663-0.792,1.663-2.239s-0.664-2.175-1.719-2.175H2.173V30.052z"/>
		<path d="M9.42,27.725c-0.008-0.264-0.104-0.704-0.992-0.704c-0.216,0-0.832,0.072-0.832,0.591c0,0.344,0.216,0.424,0.76,0.56
			l0.704,0.176c0.872,0.216,1.175,0.536,1.175,1.104c0,0.863-0.711,1.383-1.655,1.383c-1.655,0-1.775-0.959-1.799-1.463h0.68
			c0.024,0.328,0.12,0.855,1.111,0.855c0.504,0,0.959-0.2,0.959-0.664c0-0.336-0.232-0.448-0.832-0.6l-0.815-0.2
			c-0.584-0.144-0.968-0.439-0.968-1.015c0-0.919,0.76-1.335,1.583-1.335c1.495,0,1.599,1.104,1.599,1.312H9.42z"/>
		<path d="M11.909,27.117v2.719c0,0.328,0.28,0.328,0.424,0.328h0.248v0.552c-0.256,0.024-0.456,0.056-0.527,0.056
			c-0.696,0-0.848-0.392-0.848-0.896v-2.759h-0.568v-0.583h0.568v-1.167h0.704v1.167h0.671v0.583H11.909z"/>
	</g>
</g>
</svg>
