<?xml version="1.0" encoding="utf-8"?>
<!-- Generator: Adobe Illustrator 28.2.0, SVG Export Plug-In . SVG Version: 6.00 Build 0)  -->
<svg version="1.1" xmlns="http://www.w3.org/2000/svg" xmlns:xlink="http://www.w3.org/1999/xlink" x="0px" y="0px"
	 width="348.047px" height="161.183px" viewBox="0 0 348.047 161.183" style="enable-background:new 0 0 348.047 161.183;"
	 xml:space="preserve">
<style type="text/css">
	.st0{fill:none;stroke:#9E9E9F;stroke-dasharray:1;}
	.st1{fill:#CCCCCC;}
	.st2{fill:#808080;}
	.st3{fill:none;stroke:#050303;stroke-width:0.5;}
	.st4{fill:none;stroke:#050303;stroke-width:0.4608;}
	.st5{fill:none;}
	.st6{fill:#231815;}
	.st7{fill:#0D080B;}
	.st8{fill:#FFFFFF;stroke:#000000;stroke-width:0.5;}
	.st9{fill:#0E090B;}
	.st10{fill:none;stroke:#0E090B;stroke-width:0.75;}
	.st11{fill:none;stroke:#000000;stroke-width:0.5;}
	.st12{fill:none;stroke:#0E090B;stroke-width:0.5;}
	.st13{fill:#060101;}
</style>
<g id="Layer_1">
</g>
<g id="Layer_2">
	<g>
		<g>
			<path d="M257.501,6.16V1.131h0.616v1.828h0.014c0.267-0.385,0.631-0.561,1.058-0.567c0.974,0,1.527,0.798,1.527,1.828
				c0,0.875-0.364,2.045-1.611,2.045c-0.623,0-0.882-0.357-1.008-0.56h-0.015V6.16H257.501z M259.077,2.945
				c-0.89,0-0.988,0.959-0.988,1.555c0,0.973,0.609,1.232,1.002,1.232c0.672,0,0.987-0.609,0.987-1.415
				C260.078,3.849,260.029,2.945,259.077,2.945z"/>
			<path d="M261.456,1.832V1.131h0.616v0.701H261.456z M262.072,6.16h-0.616V2.497h0.616V6.16z"/>
			<path d="M263.753,3.008V5.39c0,0.287,0.245,0.287,0.371,0.287h0.217V6.16c-0.224,0.021-0.399,0.049-0.462,0.049
				c-0.609,0-0.742-0.343-0.742-0.784V3.008h-0.498V2.497h0.498V1.475h0.616v1.022h0.588v0.511H263.753z"/>
			<path d="M270.639,6.557l-0.355,0.41C269.827,6.516,269.47,6,269.21,5.422c-0.255-0.574-0.383-1.171-0.383-1.791
				s0.13-1.221,0.39-1.805c0.255-0.57,0.61-1.08,1.066-1.531l0.355,0.41c-0.392,0.387-0.697,0.836-0.916,1.347
				c-0.224,0.51-0.335,1.037-0.335,1.579s0.111,1.069,0.335,1.579C269.941,5.72,270.247,6.169,270.639,6.557z"/>
			<path d="M296.866,3.822h-4.84V3.316h4.84V3.822z"/>
			<path d="M300.461,6.16h-0.658V2.665h-1.149v-0.49c0.799-0.056,1.128-0.133,1.324-0.938h0.483V6.16z"/>
			<path d="M304.498,3.631c0,0.62-0.128,1.217-0.383,1.791c-0.26,0.579-0.617,1.094-1.073,1.545l-0.355-0.41
				c0.392-0.387,0.697-0.836,0.916-1.347c0.224-0.51,0.335-1.037,0.335-1.579s-0.111-1.069-0.335-1.579
				c-0.219-0.51-0.524-0.959-0.916-1.347l0.355-0.41c0.456,0.451,0.812,0.961,1.066,1.531C304.368,2.41,304.498,3.011,304.498,3.631
				z"/>
		</g>
	</g>
	<rect x="309.955" y="68.58" class="st0" width="37.479" height="23.029"/>
	<rect x="51.245" y="21.711" class="st1" width="259.15" height="22.956"/>
	<path class="st2" d="M65.271,117.648v6.321h3.044v-6.321h1.492l-3.015-6.394l-3.015,6.394H65.271z"/>
	<path class="st3" d="M83.233,92.466c0,0-0.2,2.38-3.459,2.38c-3.26,0-10.474,0-10.474,0s-2.667,0.745-2.667,2.381
		c0,0-0.199-2.381-3.459-2.381c-3.261,0-10.474,0-10.474,0s-2.667-0.742-2.667-2.38"/>
	<path class="st4" d="M347.817,92.466c0,0-0.17,2.38-2.938,2.38c-2.769,0-8.897,0-8.897,0s-2.264,0.745-2.264,2.381
		c0,0-0.17-2.381-2.938-2.381c-2.77,0-8.896,0-8.896,0s-2.264-0.742-2.264-2.38"/>
	<path class="st3" d="M340.475,83.957c0,0-0.146,2.38-2.515,2.38c-2.371,0-7.615,0-7.615,0s-1.939,0.745-1.939,2.38
		c0,0-0.146-2.38-2.515-2.38c-2.373,0-7.615,0-7.615,0s-1.938-0.742-1.938-2.38"/>
	<g>
		<g>
			<polyline class="st5" points="58.27,108.456 58.27,100.293 78.113,100.293 78.113,108.456 			"/>
			<path d="M64.669,101.074h0.658v5.028h-0.763l-2.557-4.062h-0.014v4.062h-0.658v-5.028h0.806l2.514,4.062h0.014V101.074z"/>
			<path d="M68.701,106.103v-0.532l-0.014-0.014c-0.259,0.427-0.574,0.651-1.163,0.651c-0.54,0-1.191-0.26-1.191-1.135v-2.634h0.617
				v2.431c0,0.603,0.308,0.806,0.707,0.806c0.778,0,1.009-0.687,1.009-1.219v-2.018h0.616v3.663H68.701z"/>
			<path d="M70.204,102.439h0.582v0.519H70.8c0.133-0.196,0.448-0.623,1.106-0.623s0.868,0.398,0.974,0.595
				c0.308-0.343,0.553-0.595,1.121-0.595c0.392,0,1.134,0.203,1.134,1.232v2.535h-0.616v-2.367c0-0.504-0.154-0.848-0.679-0.848
				c-0.519,0-0.862,0.49-0.862,0.98v2.234h-0.616v-2.535c0-0.309-0.119-0.68-0.574-0.68c-0.35,0-0.966,0.225-0.966,1.219v1.996
				h-0.617V102.439z"/>
		</g>
	</g>
	<g>
		<g>
			<path d="M78.654,105.909v-5.028h0.616v1.827h0.014c0.266-0.385,0.63-0.56,1.058-0.566c0.974,0,1.527,0.798,1.527,1.827
				c0,0.876-0.364,2.046-1.611,2.046c-0.624,0-0.883-0.357-1.009-0.561h-0.014v0.455H78.654z M80.229,102.694
				c-0.889,0-0.987,0.96-0.987,1.555c0,0.974,0.609,1.233,1.001,1.233c0.672,0,0.987-0.609,0.987-1.415
				C81.231,103.598,81.182,102.694,80.229,102.694z"/>
			<path d="M82.609,101.581v-0.7h0.616v0.7H82.609z M83.225,105.909h-0.616v-3.663h0.616V105.909z"/>
			<path d="M84.905,102.758v2.381c0,0.287,0.245,0.287,0.372,0.287h0.217v0.483c-0.224,0.021-0.399,0.049-0.462,0.049
				c-0.609,0-0.743-0.343-0.743-0.784v-2.416h-0.497v-0.512h0.497v-1.022h0.616v1.022h0.588v0.512H84.905z"/>
		</g>
	</g>
	<g>
		<g>
			<path d="M46.443,100.112c0.201,0.063,0.435,0.098,0.704,0.103c-0.055,0.132-0.082,0.308-0.082,0.526v1.552h1.75
				c0.242,0,0.499-0.009,0.772-0.027c-0.018,0.101-0.027,0.191-0.027,0.273c0,0.109,0.009,0.2,0.027,0.273
				c-0.182-0.014-0.44-0.021-0.772-0.021h-1.75v2.871h2.222c0.296,0,0.597-0.019,0.902-0.055c-0.018,0.104-0.027,0.214-0.027,0.328
				c0,0.096,0.009,0.196,0.027,0.301c-0.305-0.036-0.606-0.055-0.902-0.055h-4.546c-0.296,0-0.597,0.019-0.902,0.055
				c0.018-0.104,0.027-0.205,0.027-0.301c0-0.114-0.009-0.224-0.027-0.328c0.305,0.036,0.606,0.055,0.902,0.055h1.75v-4.922
				C46.491,100.531,46.475,100.322,46.443,100.112z"/>
			<path d="M52.397,100.085c0.205,0.132,0.426,0.224,0.663,0.273c-0.127,0.114-0.267,0.354-0.417,0.718
				c-0.082,0.241-0.182,0.48-0.301,0.718v3.944c0,0.306,0.018,0.606,0.055,0.902c-0.096-0.019-0.196-0.027-0.301-0.027
				c-0.086,0-0.178,0.009-0.273,0.027c0.041-0.296,0.062-0.597,0.062-0.902v-3.11c-0.223,0.351-0.472,0.697-0.745,1.039
				c-0.078-0.214-0.178-0.39-0.301-0.526c0.419-0.429,0.752-0.887,0.998-1.374C52.087,101.288,52.274,100.728,52.397,100.085z
				 M55.596,102.293c0.278,0.155,0.517,0.255,0.718,0.301c-0.269,0.533-0.577,1.538-0.923,3.015h0.923
				c0.296,0,0.597-0.021,0.902-0.062c-0.018,0.114-0.027,0.226-0.027,0.335c0,0.096,0.009,0.196,0.027,0.301
				c-0.305-0.041-0.606-0.062-0.902-0.062h-2.769c-0.296,0-0.597,0.021-0.902,0.062c0.018-0.104,0.027-0.205,0.027-0.301
				c0-0.109-0.009-0.221-0.027-0.335c0.305,0.041,0.606,0.062,0.902,0.062h1.415C55.257,104.428,55.469,103.323,55.596,102.293z
				 M52.944,101.418c0.305,0.036,0.606,0.055,0.902,0.055h2.222c0.296,0,0.595-0.019,0.896-0.055
				c-0.014,0.114-0.021,0.224-0.021,0.328s0.007,0.205,0.021,0.301c-0.301-0.036-0.599-0.055-0.896-0.055h-2.222
				c-0.296,0-0.597,0.019-0.902,0.055c0.018-0.096,0.027-0.196,0.027-0.301S52.962,101.532,52.944,101.418z M53.791,102.519
				l0.745,2.427c-0.209,0.022-0.401,0.062-0.574,0.116c-0.178-1.003-0.399-1.816-0.663-2.44
				C53.45,102.616,53.614,102.582,53.791,102.519z M54.748,100.085c0.137,0.314,0.319,0.641,0.547,0.978
				c-0.164,0.041-0.317,0.125-0.458,0.253c-0.16-0.388-0.342-0.727-0.547-1.019C54.477,100.251,54.63,100.181,54.748,100.085z"/>
		</g>
	</g>
	<g>
		<g>
			<rect x="270.362" y="0.018" class="st5" width="17.008" height="8.446"/>
			<path d="M275.344,0.799h0.658v5.029h-0.764l-2.556-4.062h-0.015v4.062h-0.658V0.799h0.806l2.515,4.062h0.014V0.799z"/>
			<path d="M279.375,5.828V5.296l-0.015-0.014c-0.259,0.427-0.574,0.651-1.162,0.651c-0.539,0-1.19-0.259-1.19-1.135V2.165h0.616
				v2.43c0,0.603,0.308,0.806,0.707,0.806c0.777,0,1.009-0.687,1.009-1.219V2.165h0.616v3.663H279.375z"/>
			<path d="M280.878,2.165h0.581v0.519h0.015c0.133-0.196,0.448-0.624,1.106-0.624s0.868,0.399,0.974,0.595
				c0.308-0.343,0.553-0.595,1.12-0.595c0.393,0,1.135,0.203,1.135,1.233v2.535h-0.616V3.461c0-0.504-0.154-0.848-0.68-0.848
				c-0.518,0-0.861,0.49-0.861,0.98v2.234h-0.616V3.293c0-0.309-0.119-0.68-0.574-0.68c-0.351,0-0.967,0.224-0.967,1.219v1.996
				h-0.616V2.165z"/>
		</g>
	</g>
	<g>
		<g>
			<path class="st6" d="M328.795,100.479c0.155,0.014,0.31,0.021,0.465,0.021h0.554c0.155,0,0.31-0.007,0.465-0.021
				c-0.022,0.278-0.034,0.561-0.034,0.848v1.449h0.52v-1.449c0-0.287-0.009-0.569-0.027-0.848c0.159,0.014,0.316,0.021,0.472,0.021
				h0.485c0.155,0,0.312-0.007,0.472-0.021c-0.019,0.278-0.027,0.561-0.027,0.848v1.436c0.146-0.005,0.289-0.019,0.431-0.041
				c-0.019,0.087-0.027,0.178-0.027,0.273c0,0.077,0.009,0.157,0.027,0.239c-0.146-0.022-0.289-0.036-0.431-0.041v2.584
				c0,0.21-0.032,0.354-0.096,0.431c-0.118,0.183-0.369,0.278-0.752,0.287c-0.022-0.183-0.098-0.347-0.226-0.492
				c0.219,0.019,0.357,0.027,0.417,0.027c0.159-0.009,0.239-0.103,0.239-0.28v-2.57h-0.54v0.629c0,0.561-0.062,1.062-0.185,1.504
				c-0.132,0.433-0.282,0.798-0.451,1.094c-0.087-0.101-0.219-0.176-0.396-0.226c-0.128,0.178-0.396,0.271-0.807,0.28
				c-0.022-0.178-0.094-0.34-0.212-0.485c0.246,0.019,0.398,0.027,0.458,0.027c0.164-0.009,0.246-0.101,0.246-0.273v-2.55h-0.595
				v0.472c0,0.615-0.068,1.167-0.205,1.654c-0.137,0.479-0.296,0.884-0.479,1.217c-0.096-0.114-0.244-0.196-0.444-0.246
				c0.306-0.46,0.501-0.935,0.588-1.422c0.087-0.369,0.13-0.827,0.13-1.374v-0.301c-0.214,0.005-0.426,0.022-0.636,0.055
				c0.019-0.082,0.027-0.162,0.027-0.239c0-0.096-0.009-0.187-0.027-0.273c0.21,0.032,0.422,0.05,0.636,0.055v-1.449
				C328.829,101.04,328.817,100.758,328.795,100.479z M329.239,102.776h0.595v-1.866h-0.595V102.776z M330.764,103.18h-0.52v2.57
				c0,0.096-0.007,0.176-0.021,0.239c0.219-0.369,0.362-0.738,0.431-1.107c0.073-0.333,0.109-0.743,0.109-1.23V103.18z
				 M331.181,102.776h0.54v-1.866h-0.54V102.776z M332.684,100.883c0.159,0.019,0.351,0.027,0.574,0.027
				c-0.06,0.118-0.089,0.267-0.089,0.444v3.001c0,0.287,0.021,0.569,0.062,0.848c-0.096-0.019-0.187-0.027-0.273-0.027
				c-0.096,0-0.187,0.009-0.273,0.027c0.036-0.278,0.055-0.561,0.055-0.848v-2.728C332.739,101.382,332.721,101.134,332.684,100.883
				z M333.635,100.227c0.183,0.019,0.374,0.027,0.574,0.027c-0.05,0.137-0.075,0.294-0.075,0.472v5.353
				c0,0.228-0.084,0.378-0.253,0.451c-0.164,0.063-0.401,0.096-0.711,0.096c-0.046-0.214-0.135-0.396-0.267-0.547h0.383
				c0.251,0,0.376-0.082,0.376-0.246v-5.161C333.662,100.525,333.653,100.377,333.635,100.227z"/>
			<path class="st6" d="M335.385,100.527c0.2,0.019,0.401,0.027,0.602,0.027h0.93c0.219,0,0.439-0.009,0.663-0.027
				c-0.104,0.191-0.396,0.914-0.875,2.167c0.396,0.593,0.597,1.085,0.602,1.477c0,0.355-0.08,0.617-0.239,0.786
				c-0.2,0.2-0.485,0.301-0.854,0.301c0-0.178-0.066-0.369-0.198-0.574c0.173,0.019,0.292,0.027,0.355,0.027
				c0.296,0,0.444-0.18,0.444-0.54c0-0.355-0.2-0.829-0.602-1.422c0.228-0.533,0.453-1.107,0.677-1.723h-0.95v4.676
				c0,0.296,0.007,0.597,0.021,0.902c-0.096-0.019-0.193-0.027-0.294-0.027c-0.091,0-0.185,0.009-0.28,0.027
				c0.019-0.306,0.027-0.606,0.027-0.902v-4.546C335.412,100.946,335.403,100.737,335.385,100.527z M337.88,104.472
				c0.146,0.132,0.326,0.232,0.54,0.301c-0.451,0.479-0.87,0.962-1.258,1.449c-0.173-0.15-0.326-0.251-0.458-0.301
				c0.205-0.155,0.401-0.342,0.588-0.561C337.533,105.092,337.729,104.795,337.88,104.472z M338.885,100.179
				c0.2,0.096,0.41,0.159,0.629,0.191c-0.06,0.06-0.118,0.13-0.178,0.212c0.155,0.41,0.385,0.754,0.69,1.032
				c0.337,0.31,0.807,0.559,1.408,0.745c-0.21,0.169-0.357,0.369-0.444,0.602c-0.333-0.219-0.617-0.429-0.854-0.629
				c-0.014,0.073-0.021,0.139-0.021,0.198c0,0.077,0.009,0.159,0.027,0.246c-0.104-0.019-0.214-0.027-0.328-0.027h-0.547v0.875
				h0.718c0.251,0,0.504-0.019,0.759-0.055c-0.019,0.087-0.027,0.176-0.027,0.267c0,0.096,0.009,0.187,0.027,0.273
				c-0.255-0.036-0.508-0.055-0.759-0.055h-0.718v2.194c0,0.137-0.073,0.239-0.219,0.308c-0.132,0.063-0.403,0.096-0.813,0.096
				c-0.009-0.214-0.075-0.405-0.198-0.574c0.237,0.036,0.419,0.055,0.547,0.055c0.123,0,0.189-0.043,0.198-0.13v-1.948h-0.547
				c-0.26,0-0.518,0.019-0.772,0.055c0.019-0.087,0.027-0.178,0.027-0.273c0-0.091-0.009-0.18-0.027-0.267
				c0.255,0.036,0.513,0.055,0.772,0.055h0.547v-0.875h-0.417c-0.104,0-0.214,0.009-0.328,0.027
				c0.019-0.087,0.027-0.169,0.027-0.246c0-0.041-0.002-0.077-0.007-0.109c-0.2,0.228-0.415,0.446-0.643,0.656
				c-0.101-0.137-0.248-0.265-0.444-0.383c0.474-0.323,0.87-0.711,1.189-1.162C338.475,101.108,338.716,100.657,338.885,100.179z
				 M338.167,102.291c0.073,0.009,0.139,0.014,0.198,0.014h1.449c0.096,0,0.185-0.007,0.267-0.021
				c-0.187-0.155-0.34-0.303-0.458-0.444c-0.214-0.251-0.385-0.547-0.513-0.889C338.842,101.425,338.527,101.872,338.167,102.291z
				 M339.985,104.574c0.05,0.073,0.148,0.178,0.294,0.314c0.237,0.228,0.433,0.436,0.588,0.622c0.109,0.123,0.217,0.239,0.321,0.349
				c-0.128,0.041-0.303,0.132-0.526,0.273c-0.068-0.155-0.207-0.355-0.417-0.602c-0.237-0.269-0.48-0.494-0.731-0.677
				C339.7,104.777,339.857,104.684,339.985,104.574z"/>
		</g>
	</g>
	<g>
		<path class="st7" d="M302.668,12.856V7.828h0.616v1.828h0.014c0.267-0.385,0.631-0.561,1.058-0.567
			c0.974,0,1.527,0.798,1.527,1.828c0,0.875-0.364,2.045-1.611,2.045c-0.623,0-0.882-0.357-1.008-0.56h-0.015v0.455H302.668z
			 M304.244,9.642c-0.89,0-0.988,0.959-0.988,1.555c0,0.973,0.609,1.232,1.002,1.232c0.672,0,0.987-0.609,0.987-1.415
			C305.245,10.545,305.196,9.642,304.244,9.642z"/>
		<path class="st7" d="M306.623,8.528V7.828h0.616v0.701H306.623z M307.239,12.856h-0.616V9.193h0.616V12.856z"/>
		<path class="st7" d="M308.92,9.705v2.381c0,0.287,0.245,0.287,0.371,0.287h0.217v0.483c-0.224,0.021-0.399,0.049-0.462,0.049
			c-0.609,0-0.742-0.343-0.742-0.784V9.705h-0.498V9.193h0.498V8.171h0.616v1.022h0.588v0.511H308.92z"/>
		<path class="st7" d="M305.959,19.99c-1.415,0-1.688-1.506-1.688-2.529c0-1.022,0.273-2.528,1.688-2.528s1.688,1.506,1.688,2.528
			C307.646,18.484,307.374,19.99,305.959,19.99z M305.959,15.486c-0.708,0-1.029,0.742-1.029,1.975c0,1.233,0.321,1.975,1.029,1.975
			c0.707,0,1.029-0.742,1.029-1.975C306.988,16.229,306.666,15.486,305.959,15.486z"/>
	</g>
	<g>
		<path class="st7" d="M51.053,12.856V7.828h0.616v1.828h0.014c0.266-0.385,0.63-0.561,1.058-0.567c0.974,0,1.527,0.798,1.527,1.828
			c0,0.875-0.364,2.045-1.611,2.045c-0.624,0-0.883-0.357-1.009-0.56h-0.014v0.455H51.053z M52.629,9.642
			c-0.889,0-0.987,0.959-0.987,1.555c0,0.973,0.609,1.232,1.001,1.232c0.672,0,0.987-0.609,0.987-1.415
			C53.63,10.545,53.581,9.642,52.629,9.642z"/>
		<path class="st7" d="M55.008,8.528V7.828h0.616v0.701H55.008z M55.624,12.856h-0.616V9.193h0.616V12.856z"/>
		<path class="st7" d="M57.304,9.705v2.381c0,0.287,0.246,0.287,0.372,0.287h0.217v0.483c-0.224,0.021-0.399,0.049-0.462,0.049
			c-0.609,0-0.743-0.343-0.743-0.784V9.705h-0.497V9.193h0.497V8.171h0.616v1.022h0.588v0.511H57.304z"/>
		<path class="st7" d="M53.105,19.856h-0.658v-3.495h-1.148v-0.49c0.798-0.056,1.127-0.133,1.324-0.938h0.483V19.856z"/>
		<path class="st7" d="M55.232,16.992c0.21-0.161,0.511-0.308,0.952-0.308c0.798,0,1.618,0.561,1.618,1.576
			c0,0.546-0.245,1.73-1.786,1.73c-0.645,0-1.471-0.259-1.59-1.359h0.637c0.063,0.574,0.49,0.826,1.043,0.826
			c0.638,0,1.037-0.511,1.037-1.127c0-0.708-0.483-1.093-1.092-1.093c-0.357,0-0.68,0.168-0.911,0.469l-0.532-0.028l0.371-2.64
			h2.549v0.602h-2.087L55.232,16.992z"/>
	</g>
	<g>
		<rect x="311.426" y="119.225" width="9.18" height="21.36"/>
		<rect x="310.364" y="118.161" class="st8" width="9.18" height="21.36"/>
		<g>
			<rect x="310.602" y="124.272" class="st5" width="8.667" height="9.136"/>
			<path d="M315.685,131.959h-0.871v-4.622h-1.519v-0.648c1.056-0.073,1.491-0.176,1.75-1.241h0.64V131.959z"/>
		</g>
	</g>
	<g>
		<g>
			<path d="M307.884,146.894c-0.189-0.883-0.925-1.044-1.408-1.044c-0.91,0-1.646,0.673-1.646,1.996c0,1.184,0.42,2.094,1.667,2.094
				c0.44,0,1.204-0.21,1.436-1.379h0.658c-0.28,1.897-1.821,1.981-2.199,1.981c-1.142,0-2.262-0.742-2.262-2.675
				c0-1.548,0.882-2.62,2.346-2.62c1.296,0,1.968,0.806,2.066,1.646H307.884z"/>
			<path d="M310.171,150.409h-0.68v-5.028h2.325c0.826,0,1.653,0.287,1.653,1.352c0,0.742-0.379,1.016-0.7,1.204
				c0.287,0.119,0.574,0.245,0.602,0.946l0.042,0.91c0.008,0.28,0.042,0.385,0.253,0.504v0.112h-0.834
				c-0.098-0.309-0.119-1.071-0.119-1.261c0-0.413-0.084-0.896-0.896-0.896h-1.646V150.409z M310.171,147.671h1.575
				c0.498,0,1.023-0.126,1.023-0.869c0-0.777-0.567-0.84-0.904-0.84h-1.694V147.671z"/>
			<path d="M314.237,147.25c0-1.604,1.169-1.765,1.701-1.765c0.854,0,1.541,0.554,1.541,1.471c0,0.883-0.581,1.254-1.316,1.646
				l-0.512,0.28c-0.672,0.371-0.819,0.756-0.848,0.945h2.676v0.581h-3.369c0.035-1.022,0.498-1.568,1.156-1.954l0.651-0.378
				c0.525-0.302,0.903-0.505,0.903-1.148c0-0.393-0.252-0.89-0.974-0.89c-0.932,0-0.974,0.868-0.994,1.211H314.237z"/>
			<path d="M319.768,150.542c-1.415,0-1.688-1.506-1.688-2.528s0.273-2.528,1.688-2.528c1.414,0,1.688,1.506,1.688,2.528
				S321.183,150.542,319.768,150.542z M319.768,146.039c-0.708,0-1.029,0.742-1.029,1.975s0.321,1.976,1.029,1.976
				c0.707,0,1.029-0.743,1.029-1.976S320.475,146.039,319.768,146.039z"/>
			<path d="M323.66,150.542c-1.415,0-1.688-1.506-1.688-2.528s0.273-2.528,1.688-2.528s1.688,1.506,1.688,2.528
				S325.075,150.542,323.66,150.542z M323.66,146.039c-0.708,0-1.029,0.742-1.029,1.975s0.321,1.976,1.029,1.976
				c0.707,0,1.029-0.743,1.029-1.976S324.367,146.039,323.66,146.039z"/>
			<path d="M325.899,147.174c0-0.896,0.547-1.688,1.583-1.688c1.569,0,1.723,1.485,1.723,2.283c0,0.525-0.091,2.773-1.785,2.773
				c-1.156,0-1.464-0.84-1.464-1.316h0.616c0.035,0.497,0.329,0.806,0.833,0.806c0.673,0,1.029-0.567,1.184-1.842l-0.014-0.015
				c-0.183,0.378-0.673,0.589-1.128,0.589C326.537,148.764,325.899,148.154,325.899,147.174z M328.484,147.09
				c0-0.561-0.287-1.051-0.995-1.051c-0.574,0-0.952,0.448-0.952,1.106c0,0.945,0.588,1.064,1.001,1.064
				C327.86,148.21,328.484,148.062,328.484,147.09z"/>
			<path d="M308.811,159.206l-0.355,0.41c-0.456-0.451-0.813-0.966-1.073-1.545c-0.255-0.574-0.383-1.171-0.383-1.791
				s0.13-1.222,0.39-1.805c0.255-0.569,0.61-1.08,1.066-1.531l0.355,0.41c-0.392,0.388-0.697,0.836-0.916,1.347
				c-0.224,0.511-0.335,1.037-0.335,1.579s0.111,1.068,0.335,1.579C308.114,158.37,308.42,158.818,308.811,159.206z"/>
			<path d="M310.062,155.282c0.183,0.019,0.364,0.027,0.547,0.027h0.027c0.26,0,0.518-0.009,0.772-0.027
				c-0.019,0.282-0.027,0.562-0.027,0.841v1.593c0,0.191,0.005,0.381,0.014,0.567c0.027,0.009,0.05,0.019,0.068,0.027
				c0.733,0.333,1.688,0.499,2.864,0.499c0.374,0,1.003-0.048,1.887-0.144c-0.104,0.169-0.176,0.388-0.212,0.656h-1.449
				c-1.312,0-2.343-0.176-3.09-0.526c-0.169-0.087-0.287-0.13-0.355-0.13c-0.146,0-0.374,0.21-0.684,0.629
				c-0.132-0.173-0.296-0.308-0.492-0.403l0.663-0.513c0.101-0.068,0.191-0.118,0.273-0.15c0.009-0.178,0.014-0.349,0.014-0.513
				v-1.894h-0.273c-0.183,0-0.364,0.009-0.547,0.027c0.019-0.096,0.027-0.196,0.027-0.301
				C310.09,155.462,310.081,155.373,310.062,155.282z M310.937,153.197c0.164,0.405,0.385,0.846,0.663,1.319
				c-0.191,0.032-0.383,0.096-0.574,0.191c-0.118-0.419-0.328-0.875-0.629-1.367C310.594,153.318,310.773,153.271,310.937,153.197z
				 M312.906,152.985c0.214,0.055,0.453,0.082,0.718,0.082c-0.055,0.2-0.089,0.608-0.103,1.224h0.916v-1.203h0.52v1.203h0.246
				c0.255,0,0.513-0.016,0.772-0.048c-0.019,0.087-0.027,0.178-0.027,0.273c0,0.087,0.009,0.178,0.027,0.273
				c-0.26-0.036-0.518-0.055-0.772-0.055h-0.246v1.148h0.444c0.255,0,0.508-0.021,0.759-0.062c-0.019,0.096-0.027,0.187-0.027,0.273
				c0,0.096,0.009,0.187,0.027,0.273c-0.251-0.036-0.504-0.055-0.759-0.055h-0.444v1.374c0,0.278,0.019,0.561,0.055,0.848
				c-0.104-0.019-0.214-0.027-0.328-0.027c-0.096,0-0.196,0.009-0.301,0.027c0.036-0.287,0.055-0.569,0.055-0.848v-1.374h-0.957
				c-0.036,0.52-0.114,0.9-0.232,1.142c-0.205,0.41-0.472,0.761-0.8,1.053c-0.21-0.128-0.422-0.228-0.636-0.301
				c0.552-0.405,0.897-0.877,1.039-1.415c0.036-0.142,0.066-0.301,0.089-0.479h-0.41c-0.255,0-0.513,0.019-0.772,0.055
				c0.019-0.087,0.027-0.178,0.027-0.273c0-0.087-0.009-0.178-0.027-0.273c0.26,0.041,0.518,0.062,0.772,0.062h0.444
				c0.009-0.142,0.014-0.289,0.014-0.444c0-0.251-0.002-0.485-0.007-0.704h-0.267c-0.255,0-0.508,0.019-0.759,0.055
				c0.019-0.096,0.027-0.187,0.027-0.273c0-0.096-0.009-0.187-0.027-0.273c0.251,0.032,0.504,0.048,0.759,0.048h0.26
				C312.961,153.79,312.938,153.354,312.906,152.985z M314.437,155.884v-1.148h-0.923c-0.005,0.214-0.007,0.449-0.007,0.704
				c0,0.159-0.002,0.308-0.007,0.444H314.437z"/>
			<path d="M318.512,152.985c0.205,0.132,0.426,0.224,0.663,0.273c-0.128,0.114-0.267,0.354-0.417,0.718
				c-0.082,0.241-0.183,0.48-0.301,0.718v3.944c0,0.306,0.019,0.606,0.055,0.902c-0.096-0.019-0.196-0.027-0.301-0.027
				c-0.087,0-0.178,0.009-0.273,0.027c0.041-0.296,0.062-0.597,0.062-0.902v-3.11c-0.224,0.351-0.472,0.697-0.745,1.039
				c-0.077-0.214-0.178-0.39-0.301-0.526c0.419-0.429,0.752-0.887,0.998-1.374C318.202,154.188,318.389,153.628,318.512,152.985z
				 M321.711,155.193c0.278,0.155,0.518,0.255,0.718,0.301c-0.269,0.533-0.576,1.538-0.923,3.015h0.923
				c0.296,0,0.597-0.021,0.902-0.062c-0.019,0.114-0.027,0.226-0.027,0.335c0,0.096,0.009,0.196,0.027,0.301
				c-0.306-0.041-0.606-0.062-0.902-0.062h-2.769c-0.296,0-0.597,0.021-0.902,0.062c0.019-0.104,0.027-0.205,0.027-0.301
				c0-0.109-0.009-0.221-0.027-0.335c0.306,0.041,0.606,0.062,0.902,0.062h1.415C321.371,157.328,321.583,156.224,321.711,155.193z
				 M319.059,154.318c0.306,0.036,0.606,0.055,0.902,0.055h2.222c0.296,0,0.595-0.019,0.896-0.055
				c-0.014,0.114-0.021,0.224-0.021,0.328s0.007,0.205,0.021,0.301c-0.301-0.036-0.6-0.055-0.896-0.055h-2.222
				c-0.296,0-0.597,0.019-0.902,0.055c0.019-0.096,0.027-0.196,0.027-0.301S319.077,154.433,319.059,154.318z M319.906,155.419
				l0.745,2.427c-0.21,0.022-0.401,0.062-0.574,0.116c-0.178-1.003-0.398-1.816-0.663-2.44
				C319.564,155.517,319.728,155.482,319.906,155.419z M320.863,152.985c0.137,0.314,0.319,0.641,0.547,0.978
				c-0.164,0.041-0.316,0.125-0.458,0.253c-0.159-0.388-0.342-0.727-0.547-1.019C320.592,153.151,320.745,153.081,320.863,152.985z"
				/>
			<path d="M326.318,156.28c0,0.62-0.128,1.217-0.383,1.791c-0.26,0.579-0.617,1.094-1.073,1.545l-0.355-0.41
				c0.392-0.388,0.697-0.836,0.916-1.347c0.224-0.511,0.335-1.037,0.335-1.579s-0.111-1.068-0.335-1.579
				c-0.219-0.511-0.524-0.959-0.916-1.347l0.355-0.41c0.456,0.451,0.812,0.962,1.066,1.531
				C326.188,155.059,326.318,155.66,326.318,156.28z"/>
		</g>
	</g>
	<g>
		<polygon class="st9" points="314.106,116.637 315.664,114.684 317.221,112.729 314.106,112.729 310.993,112.729 312.551,114.684 
					"/>
		<line class="st10" x1="314.106" y1="95.063" x2="314.106" y2="112.729"/>
	</g>
	<g>
		<polygon class="st9" points="341.306,67.726 342.864,65.148 344.421,62.567 341.306,62.567 338.193,62.567 339.751,65.148 		"/>
	</g>
	<g>
		<polygon class="st9" points="86.315,67.726 87.873,65.148 89.43,62.567 86.315,62.567 83.202,62.567 84.76,65.148 		"/>
	</g>
	<g>
		<polygon class="st9" points="281.816,20.77 283.111,18.819 284.408,16.861 281.816,16.861 279.227,16.861 280.523,18.819 		"/>
		<line class="st10" x1="281.816" y1="7.702" x2="281.816" y2="16.861"/>
	</g>
	<rect x="51.245" y="21.711" class="st11" width="8.098" height="22.956"/>
	<g>
		<rect x="51.245" y="21.711" class="st5" width="8.098" height="22.956"/>
		<path d="M56.033,36.588h-0.859v-5.071h-1.499v-0.711c1.042-0.082,1.471-0.193,1.727-1.362h0.631V36.588z"/>
	</g>
	<rect x="59.344" y="21.711" class="st11" width="8.098" height="22.956"/>
	<g>
		<rect x="59.344" y="21.711" class="st5" width="8.098" height="22.956"/>
		<path d="M63.392,36.781c-1.846,0-2.203-2.185-2.203-3.668s0.356-3.668,2.203-3.668s2.203,2.185,2.203,3.668
			S65.238,36.781,63.392,36.781z M63.392,30.247c-0.923,0-1.344,1.077-1.344,2.866s0.42,2.866,1.344,2.866
			c0.923,0,1.343-1.077,1.343-2.866S64.314,30.247,63.392,30.247z"/>
	</g>
	<rect x="67.443" y="21.711" class="st11" width="8.098" height="22.956"/>
	<g>
		<rect x="67.442" y="21.711" class="st5" width="8.098" height="22.956"/>
		<path d="M71.49,36.781c-1.846,0-2.203-2.185-2.203-3.668s0.356-3.668,2.203-3.668s2.203,2.185,2.203,3.668
			S73.336,36.781,71.49,36.781z M71.49,30.247c-0.923,0-1.344,1.077-1.344,2.866s0.42,2.866,1.344,2.866
			c0.923,0,1.343-1.077,1.343-2.866S72.413,30.247,71.49,30.247z"/>
	</g>
	<rect x="75.542" y="21.711" class="st11" width="8.098" height="22.956"/>
	<g>
		<rect x="75.541" y="21.711" class="st5" width="8.098" height="22.956"/>
		<path d="M80.329,36.588H79.47v-5.071h-1.499v-0.711c1.042-0.082,1.471-0.193,1.727-1.362h0.631V36.588z"/>
	</g>
	<rect x="83.641" y="21.711" class="st11" width="8.098" height="22.956"/>
	<g>
		<rect x="83.64" y="21.711" class="st5" width="8.098" height="22.956"/>
		<path d="M87.688,36.781c-1.846,0-2.203-2.185-2.203-3.668s0.356-3.668,2.203-3.668s2.203,2.185,2.203,3.668
			S89.534,36.781,87.688,36.781z M87.688,30.247c-0.923,0-1.344,1.077-1.344,2.866s0.42,2.866,1.344,2.866
			c0.923,0,1.343-1.077,1.343-2.866S88.611,30.247,87.688,30.247z"/>
	</g>
	<rect x="91.739" y="21.711" class="st11" width="8.098" height="22.956"/>
	<g>
		<rect x="91.739" y="21.711" class="st5" width="8.098" height="22.956"/>
		<path d="M95.787,36.781c-1.846,0-2.203-2.185-2.203-3.668s0.356-3.668,2.203-3.668s2.203,2.185,2.203,3.668
			S97.633,36.781,95.787,36.781z M95.787,30.247c-0.923,0-1.344,1.077-1.344,2.866s0.42,2.866,1.344,2.866
			c0.923,0,1.343-1.077,1.343-2.866S96.709,30.247,95.787,30.247z"/>
	</g>
	<rect x="99.838" y="21.711" class="st11" width="8.098" height="22.956"/>
	<g>
		<rect x="99.837" y="21.711" class="st5" width="8.098" height="22.956"/>
		<path d="M103.885,36.781c-1.846,0-2.203-2.185-2.203-3.668s0.356-3.668,2.203-3.668s2.203,2.185,2.203,3.668
			S105.731,36.781,103.885,36.781z M103.885,30.247c-0.923,0-1.344,1.077-1.344,2.866s0.42,2.866,1.344,2.866
			c0.923,0,1.343-1.077,1.343-2.866S104.808,30.247,103.885,30.247z"/>
	</g>
	<rect x="107.937" y="21.711" class="st11" width="8.098" height="22.956"/>
	<g>
		<rect x="107.936" y="21.711" class="st5" width="8.098" height="22.956"/>
		<path d="M111.984,36.781c-1.846,0-2.203-2.185-2.203-3.668s0.356-3.668,2.203-3.668s2.203,2.185,2.203,3.668
			S113.83,36.781,111.984,36.781z M111.984,30.247c-0.923,0-1.344,1.077-1.344,2.866s0.42,2.866,1.344,2.866
			c0.923,0,1.343-1.077,1.343-2.866S112.907,30.247,111.984,30.247z"/>
	</g>
	<rect x="116.036" y="21.711" class="st11" width="8.098" height="22.956"/>
	<g>
		<rect x="116.035" y="21.711" class="st5" width="8.098" height="22.956"/>
		<path d="M120.823,36.588h-0.859v-5.071h-1.499v-0.711c1.042-0.082,1.471-0.193,1.727-1.362h0.631V36.588z"/>
	</g>
	<rect x="124.134" y="21.711" class="st11" width="8.098" height="22.956"/>
	<g>
		<rect x="124.134" y="21.711" class="st5" width="8.098" height="22.956"/>
		<path d="M128.922,36.588h-0.859v-5.071h-1.499v-0.711c1.042-0.082,1.471-0.193,1.727-1.362h0.631V36.588z"/>
	</g>
	<rect x="132.233" y="21.711" class="st11" width="8.098" height="22.956"/>
	<g>
		<rect x="132.232" y="21.711" class="st5" width="8.098" height="22.956"/>
		<path d="M136.28,36.781c-1.846,0-2.203-2.185-2.203-3.668s0.356-3.668,2.203-3.668s2.203,2.185,2.203,3.668
			S138.126,36.781,136.28,36.781z M136.28,30.247c-0.923,0-1.344,1.077-1.344,2.866s0.42,2.866,1.344,2.866
			c0.923,0,1.343-1.077,1.343-2.866S137.203,30.247,136.28,30.247z"/>
	</g>
	<rect x="140.332" y="21.711" class="st11" width="8.098" height="22.956"/>
	<g>
		<rect x="140.331" y="21.711" class="st5" width="8.098" height="22.956"/>
		<path d="M144.379,36.781c-1.846,0-2.203-2.185-2.203-3.668s0.356-3.668,2.203-3.668s2.203,2.185,2.203,3.668
			S146.225,36.781,144.379,36.781z M144.379,30.247c-0.923,0-1.344,1.077-1.344,2.866s0.42,2.866,1.344,2.866
			c0.923,0,1.343-1.077,1.343-2.866S145.302,30.247,144.379,30.247z"/>
	</g>
	<rect x="148.431" y="21.711" class="st11" width="8.098" height="22.956"/>
	<g>
		<rect x="148.43" y="21.711" class="st5" width="8.098" height="22.956"/>
		<path d="M153.218,36.588h-0.859v-5.071h-1.499v-0.711c1.042-0.082,1.471-0.193,1.727-1.362h0.631V36.588z"/>
	</g>
	<rect x="156.529" y="21.711" class="st11" width="8.098" height="22.956"/>
	<g>
		<rect x="156.529" y="21.711" class="st5" width="8.098" height="22.956"/>
		<path d="M161.317,36.588h-0.859v-5.071h-1.499v-0.711c1.042-0.082,1.471-0.193,1.727-1.362h0.631V36.588z"/>
	</g>
	<rect x="164.628" y="21.711" class="st11" width="8.098" height="22.956"/>
	<g>
		<rect x="164.627" y="21.711" class="st5" width="8.098" height="22.956"/>
		<path d="M169.415,36.588h-0.859v-5.071h-1.499v-0.711c1.042-0.082,1.471-0.193,1.727-1.362h0.631V36.588z"/>
	</g>
	<rect x="172.727" y="21.711" class="st11" width="8.098" height="22.956"/>
	<g>
		<rect x="172.726" y="21.711" class="st5" width="8.099" height="22.956"/>
		<path d="M177.515,36.588h-0.859v-5.071h-1.499v-0.711c1.042-0.082,1.471-0.193,1.727-1.362h0.631V36.588z"/>
	</g>
	<rect x="180.825" y="21.711" class="st11" width="8.098" height="22.956"/>
	<g>
		<rect x="180.825" y="21.711" class="st5" width="8.098" height="22.956"/>
		<path d="M184.873,36.781c-1.847,0-2.203-2.185-2.203-3.668s0.356-3.668,2.203-3.668s2.203,2.185,2.203,3.668
			S186.72,36.781,184.873,36.781z M184.873,30.247c-0.923,0-1.344,1.077-1.344,2.866s0.421,2.866,1.344,2.866
			s1.344-1.077,1.344-2.866S185.796,30.247,184.873,30.247z"/>
	</g>
	<rect x="188.923" y="21.711" class="st11" width="8.098" height="22.956"/>
	<g>
		<rect x="188.923" y="21.711" class="st5" width="8.098" height="22.956"/>
		<path d="M192.971,36.781c-1.847,0-2.203-2.185-2.203-3.668s0.356-3.668,2.203-3.668s2.203,2.185,2.203,3.668
			S194.817,36.781,192.971,36.781z M192.971,30.247c-0.923,0-1.344,1.077-1.344,2.866s0.421,2.866,1.344,2.866
			s1.344-1.077,1.344-2.866S193.893,30.247,192.971,30.247z"/>
	</g>
	<rect x="197.021" y="21.711" class="st11" width="8.098" height="22.956"/>
	<g>
		<rect x="197.021" y="21.711" class="st5" width="8.098" height="22.956"/>
		<path d="M201.069,36.781c-1.847,0-2.203-2.185-2.203-3.668s0.356-3.668,2.203-3.668c1.846,0,2.203,2.185,2.203,3.668
			S202.915,36.781,201.069,36.781z M201.069,30.247c-0.923,0-1.344,1.077-1.344,2.866s0.421,2.866,1.344,2.866
			s1.344-1.077,1.344-2.866S201.992,30.247,201.069,30.247z"/>
	</g>
	<rect x="205.119" y="21.711" class="st11" width="8.098" height="22.956"/>
	<g>
		<rect x="205.119" y="21.711" class="st5" width="8.098" height="22.956"/>
		<path d="M209.167,36.781c-1.847,0-2.203-2.185-2.203-3.668s0.356-3.668,2.203-3.668c1.846,0,2.203,2.185,2.203,3.668
			S211.013,36.781,209.167,36.781z M209.167,30.247c-0.923,0-1.344,1.077-1.344,2.866s0.421,2.866,1.344,2.866
			s1.344-1.077,1.344-2.866S210.09,30.247,209.167,30.247z"/>
	</g>
	<rect x="213.218" y="21.711" class="st11" width="8.098" height="22.956"/>
	<g>
		<rect x="213.218" y="21.711" class="st5" width="8.098" height="22.956"/>
		<path d="M218.006,36.588h-0.859v-5.071h-1.499v-0.711c1.042-0.082,1.472-0.193,1.728-1.362h0.631V36.588z"/>
	</g>
	<rect x="221.316" y="21.711" class="st11" width="8.098" height="22.956"/>
	<g>
		<rect x="221.316" y="21.711" class="st5" width="8.098" height="22.956"/>
		<path d="M226.103,36.588h-0.859v-5.071h-1.499v-0.711c1.042-0.082,1.472-0.193,1.728-1.362h0.631V36.588z"/>
	</g>
	<rect x="229.414" y="21.711" class="st11" width="8.098" height="22.956"/>
	<g>
		<rect x="229.414" y="21.711" class="st5" width="8.098" height="22.956"/>
		<path d="M233.462,36.781c-1.847,0-2.203-2.185-2.203-3.668s0.356-3.668,2.203-3.668c1.846,0,2.203,2.185,2.203,3.668
			S235.308,36.781,233.462,36.781z M233.462,30.247c-0.923,0-1.344,1.077-1.344,2.866s0.421,2.866,1.344,2.866
			s1.344-1.077,1.344-2.866S234.385,30.247,233.462,30.247z"/>
	</g>
	<rect x="237.512" y="21.711" class="st11" width="8.098" height="22.956"/>
	<g>
		<rect x="237.512" y="21.711" class="st5" width="8.098" height="22.956"/>
		<path d="M241.559,36.781c-1.847,0-2.203-2.185-2.203-3.668s0.356-3.668,2.203-3.668c1.846,0,2.203,2.185,2.203,3.668
			S243.405,36.781,241.559,36.781z M241.559,30.247c-0.923,0-1.344,1.077-1.344,2.866s0.421,2.866,1.344,2.866
			s1.344-1.077,1.344-2.866S242.482,30.247,241.559,30.247z"/>
	</g>
	<rect x="245.61" y="21.711" class="st11" width="8.098" height="22.956"/>
	<g>
		<rect x="245.61" y="21.711" class="st5" width="8.098" height="22.956"/>
		<path d="M250.398,36.588h-0.859v-5.071h-1.499v-0.711c1.042-0.082,1.472-0.193,1.728-1.362h0.631V36.588z"/>
	</g>
	<rect x="253.708" y="21.711" class="st11" width="8.098" height="22.956"/>
	<g>
		<rect x="253.708" y="21.711" class="st5" width="8.098" height="22.956"/>
		<path d="M257.756,36.781c-1.847,0-2.203-2.185-2.203-3.668s0.356-3.668,2.203-3.668c1.847,0,2.203,2.185,2.203,3.668
			S259.602,36.781,257.756,36.781z M257.756,30.247c-0.923,0-1.344,1.077-1.344,2.866s0.421,2.866,1.344,2.866
			s1.344-1.077,1.344-2.866S258.679,30.247,257.756,30.247z"/>
	</g>
	<rect x="261.806" y="21.711" class="st11" width="8.098" height="22.956"/>
	<g>
		<rect x="261.806" y="21.711" class="st5" width="8.098" height="22.956"/>
		<path d="M266.595,36.588h-0.859v-5.071h-1.499v-0.711c1.042-0.082,1.472-0.193,1.728-1.362h0.631V36.588z"/>
	</g>
	<rect x="269.905" y="21.711" class="st11" width="8.098" height="22.956"/>
	<g>
		<rect x="269.905" y="21.711" class="st5" width="8.098" height="22.956"/>
		<path d="M273.952,36.781c-1.847,0-2.203-2.185-2.203-3.668s0.356-3.668,2.203-3.668c1.846,0,2.203,2.185,2.203,3.668
			S275.798,36.781,273.952,36.781z M273.952,30.247c-0.923,0-1.344,1.077-1.344,2.866s0.421,2.866,1.344,2.866
			s1.344-1.077,1.344-2.866S274.875,30.247,273.952,30.247z"/>
	</g>
	<rect x="278.003" y="21.711" class="st11" width="8.098" height="22.956"/>
	<g>
		<rect x="278.003" y="21.711" class="st5" width="8.098" height="22.956"/>
		<path d="M282.791,36.588h-0.859v-5.071h-1.499v-0.711c1.042-0.082,1.472-0.193,1.728-1.362h0.631V36.588z"/>
	</g>
	<rect x="286.101" y="21.711" class="st11" width="8.098" height="22.956"/>
	<g>
		<rect x="286.101" y="21.711" class="st5" width="8.098" height="22.956"/>
		<path d="M290.889,36.588h-0.859v-5.071h-1.499v-0.711c1.042-0.082,1.472-0.193,1.728-1.362h0.631V36.588z"/>
	</g>
	<rect x="294.199" y="21.711" class="st11" width="8.098" height="22.956"/>
	<g>
		<rect x="294.199" y="21.711" class="st5" width="8.098" height="22.956"/>
		<path d="M298.987,36.588h-0.859v-5.071h-1.499v-0.711c1.042-0.082,1.472-0.193,1.728-1.362h0.631V36.588z"/>
	</g>
	<rect x="302.297" y="21.711" class="st11" width="8.098" height="22.956"/>
	<g>
		<rect x="302.297" y="21.711" class="st5" width="8.098" height="22.956"/>
		<path d="M306.345,36.781c-1.847,0-2.203-2.185-2.203-3.668s0.356-3.668,2.203-3.668c1.846,0,2.203,2.185,2.203,3.668
			S308.19,36.781,306.345,36.781z M306.345,30.247c-0.923,0-1.344,1.077-1.344,2.866s0.421,2.866,1.344,2.866
			s1.344-1.077,1.344-2.866S307.267,30.247,306.345,30.247z"/>
	</g>
	<rect x="83.039" y="68.58" class="st1" width="264.211" height="22.956"/>
	<rect x="50.595" y="68.58" class="st11" width="8.098" height="22.956"/>
	<g>
		<rect x="50.594" y="68.58" class="st5" width="8.098" height="22.956"/>
		<path d="M55.373,83.323h-0.846v-4.987H53.05v-0.7c1.026-0.08,1.45-0.19,1.702-1.339h0.621V83.323z"/>
	</g>
	<rect x="58.694" y="68.58" class="st11" width="8.098" height="22.956"/>
	<g>
		<rect x="58.693" y="68.58" class="st5" width="8.098" height="22.956"/>
		<path d="M63.472,83.323h-0.846v-4.987h-1.477v-0.7c1.026-0.08,1.45-0.19,1.702-1.339h0.621V83.323z"/>
	</g>
	<rect x="66.792" y="68.58" class="st11" width="8.098" height="22.956"/>
	<g>
		<rect x="66.792" y="68.58" class="st5" width="8.098" height="22.956"/>
		<path d="M71.571,83.323h-0.846v-4.987h-1.477v-0.7c1.026-0.08,1.45-0.19,1.702-1.339h0.621V83.323z"/>
	</g>
	<rect x="74.891" y="68.58" class="st11" width="8.098" height="22.956"/>
	<g>
		<rect x="74.891" y="68.58" class="st5" width="8.098" height="22.956"/>
		<path d="M79.669,83.323h-0.846v-4.987h-1.477v-0.7c1.026-0.08,1.45-0.19,1.702-1.339h0.621V83.323z"/>
	</g>
	<rect x="82.99" y="68.58" class="st11" width="8.098" height="22.956"/>
	<g>
		<rect x="82.989" y="68.58" class="st5" width="8.098" height="22.956"/>
		<path d="M87.768,83.323h-0.846v-4.987h-1.477v-0.7c1.026-0.08,1.45-0.19,1.702-1.339h0.621V83.323z"/>
	</g>
	<rect x="91.089" y="68.58" class="st11" width="8.098" height="22.956"/>
	<g>
		<rect x="91.088" y="68.58" class="st5" width="8.098" height="22.956"/>
		<path d="M95.138,83.513c-1.819,0-2.17-2.149-2.17-3.608c0-1.459,0.351-3.608,2.17-3.608c1.818,0,2.169,2.149,2.169,3.608
			C97.307,81.364,96.956,83.513,95.138,83.513z M95.138,77.087c-0.91,0-1.324,1.059-1.324,2.818c0,1.759,0.414,2.818,1.324,2.818
			c0.909,0,1.323-1.06,1.323-2.818C96.461,78.146,96.047,77.087,95.138,77.087z"/>
	</g>
	<rect x="99.187" y="68.58" class="st11" width="8.098" height="22.956"/>
	<g>
		<rect x="99.187" y="68.58" class="st5" width="8.098" height="22.956"/>
		<path d="M103.237,83.513c-1.819,0-2.17-2.149-2.17-3.608c0-1.459,0.351-3.608,2.17-3.608c1.818,0,2.169,2.149,2.169,3.608
			C105.406,81.364,105.055,83.513,103.237,83.513z M103.237,77.087c-0.91,0-1.324,1.059-1.324,2.818
			c0,1.759,0.414,2.818,1.324,2.818c0.909,0,1.323-1.06,1.323-2.818C104.56,78.146,104.146,77.087,103.237,77.087z"/>
	</g>
	<rect x="107.286" y="68.58" class="st11" width="8.098" height="22.956"/>
	<g>
		<rect x="107.286" y="68.58" class="st5" width="8.098" height="22.956"/>
		<path d="M112.064,83.323h-0.846v-4.987h-1.477v-0.7c1.026-0.08,1.45-0.19,1.702-1.339h0.621V83.323z"/>
	</g>
	<rect x="115.385" y="68.58" class="st11" width="8.098" height="22.956"/>
	<g>
		<rect x="115.384" y="68.58" class="st5" width="8.098" height="22.956"/>
		<path d="M119.434,83.513c-1.819,0-2.17-2.149-2.17-3.608c0-1.459,0.351-3.608,2.17-3.608c1.818,0,2.169,2.149,2.169,3.608
			C121.603,81.364,121.252,83.513,119.434,83.513z M119.434,77.087c-0.91,0-1.324,1.059-1.324,2.818
			c0,1.759,0.414,2.818,1.324,2.818c0.909,0,1.323-1.06,1.323-2.818C120.757,78.146,120.343,77.087,119.434,77.087z"/>
	</g>
	<rect x="123.484" y="68.58" class="st11" width="8.098" height="22.956"/>
	<g>
		<rect x="123.483" y="68.58" class="st5" width="8.098" height="22.956"/>
		<path d="M127.533,83.513c-1.819,0-2.17-2.149-2.17-3.608c0-1.459,0.351-3.608,2.17-3.608c1.818,0,2.169,2.149,2.169,3.608
			C129.702,81.364,129.351,83.513,127.533,83.513z M127.533,77.087c-0.91,0-1.324,1.059-1.324,2.818
			c0,1.759,0.414,2.818,1.324,2.818c0.909,0,1.323-1.06,1.323-2.818C128.856,78.146,128.442,77.087,127.533,77.087z"/>
	</g>
	<rect x="131.582" y="68.58" class="st11" width="8.099" height="22.956"/>
	<g>
		<rect x="131.582" y="68.58" class="st5" width="8.098" height="22.956"/>
		<path d="M135.632,83.513c-1.819,0-2.17-2.149-2.17-3.608c0-1.459,0.351-3.608,2.17-3.608c1.818,0,2.169,2.149,2.169,3.608
			C137.801,81.364,137.45,83.513,135.632,83.513z M135.632,77.087c-0.91,0-1.324,1.059-1.324,2.818c0,1.759,0.414,2.818,1.324,2.818
			c0.909,0,1.323-1.06,1.323-2.818C136.955,78.146,136.541,77.087,135.632,77.087z"/>
	</g>
	<rect x="139.681" y="68.58" class="st11" width="8.098" height="22.956"/>
	<g>
		<rect x="139.681" y="68.58" class="st5" width="8.098" height="22.956"/>
		<path d="M143.731,83.513c-1.819,0-2.17-2.149-2.17-3.608c0-1.459,0.351-3.608,2.17-3.608c1.818,0,2.169,2.149,2.169,3.608
			C145.9,81.364,145.549,83.513,143.731,83.513z M143.731,77.087c-0.91,0-1.324,1.059-1.324,2.818c0,1.759,0.414,2.818,1.324,2.818
			c0.909,0,1.323-1.06,1.323-2.818C145.054,78.146,144.64,77.087,143.731,77.087z"/>
	</g>
	<rect x="147.779" y="68.58" class="st11" width="8.098" height="22.956"/>
	<g>
		<rect x="147.779" y="68.58" class="st5" width="8.098" height="22.956"/>
		<path d="M152.558,83.323h-0.846v-4.987h-1.477v-0.7c1.026-0.08,1.45-0.19,1.702-1.339h0.621V83.323z"/>
	</g>
	<rect x="155.879" y="68.58" class="st11" width="8.098" height="22.956"/>
	<g>
		<rect x="155.877" y="68.58" class="st5" width="8.098" height="22.956"/>
		<path d="M160.656,83.323h-0.846v-4.987h-1.477v-0.7c1.026-0.08,1.45-0.19,1.702-1.339h0.621V83.323z"/>
	</g>
	<rect x="163.978" y="68.58" class="st11" width="8.098" height="22.956"/>
	<g>
		<rect x="163.977" y="68.58" class="st5" width="8.098" height="22.956"/>
		<path d="M168.027,83.513c-1.819,0-2.17-2.149-2.17-3.608c0-1.459,0.351-3.608,2.17-3.608c1.818,0,2.169,2.149,2.169,3.608
			C170.196,81.364,169.845,83.513,168.027,83.513z M168.027,77.087c-0.91,0-1.324,1.059-1.324,2.818
			c0,1.759,0.414,2.818,1.324,2.818c0.909,0,1.323-1.06,1.323-2.818C169.35,78.146,168.936,77.087,168.027,77.087z"/>
	</g>
	<rect x="172.076" y="68.58" class="st11" width="8.103" height="22.956"/>
	<g>
		<rect x="172.076" y="68.58" class="st5" width="8.103" height="22.956"/>
		<path d="M176.129,83.513c-1.819,0-2.17-2.149-2.17-3.608c0-1.459,0.351-3.608,2.17-3.608c1.818,0,2.17,2.149,2.17,3.608
			C178.299,81.364,177.947,83.513,176.129,83.513z M176.129,77.087c-0.91,0-1.324,1.059-1.324,2.818
			c0,1.759,0.414,2.818,1.324,2.818c0.909,0,1.323-1.06,1.323-2.818C177.452,78.146,177.038,77.087,176.129,77.087z"/>
	</g>
	<rect x="180.179" y="68.58" class="st11" width="8.098" height="22.956"/>
	<g>
		<rect x="180.179" y="68.58" class="st5" width="8.098" height="22.956"/>
		<path d="M184.959,83.323h-0.847v-4.987h-1.477v-0.7c1.026-0.08,1.449-0.19,1.701-1.339h0.622V83.323z"/>
	</g>
	<rect x="188.277" y="68.58" class="st11" width="8.098" height="22.956"/>
	<g>
		<rect x="188.277" y="68.58" class="st5" width="8.098" height="22.956"/>
		<path d="M193.057,83.323h-0.847v-4.987h-1.477v-0.7c1.026-0.08,1.449-0.19,1.701-1.339h0.622V83.323z"/>
	</g>
	<rect x="196.375" y="68.58" class="st11" width="8.098" height="22.956"/>
	<g>
		<rect x="196.375" y="68.58" class="st5" width="8.098" height="22.956"/>
		<path d="M201.154,83.323h-0.847v-4.987h-1.477v-0.7c1.026-0.08,1.449-0.19,1.701-1.339h0.622V83.323z"/>
	</g>
	<rect x="204.474" y="68.58" class="st11" width="8.098" height="22.956"/>
	<g>
		<rect x="204.474" y="68.58" class="st5" width="8.098" height="22.956"/>
		<path d="M209.253,83.323h-0.847v-4.987h-1.477v-0.7c1.026-0.08,1.449-0.19,1.701-1.339h0.622V83.323z"/>
	</g>
	<rect x="212.572" y="68.58" class="st11" width="8.098" height="22.956"/>
	<g>
		<rect x="212.572" y="68.58" class="st5" width="8.098" height="22.956"/>
		<path d="M216.622,83.513c-1.818,0-2.17-2.149-2.17-3.608c0-1.459,0.352-3.608,2.17-3.608s2.17,2.149,2.17,3.608
			C218.792,81.364,218.44,83.513,216.622,83.513z M216.622,77.087c-0.909,0-1.323,1.059-1.323,2.818
			c0,1.759,0.414,2.818,1.323,2.818s1.323-1.06,1.323-2.818C217.945,78.146,217.531,77.087,216.622,77.087z"/>
	</g>
	<rect x="220.67" y="68.58" class="st11" width="8.098" height="22.956"/>
	<g>
		<rect x="220.67" y="68.58" class="st5" width="8.098" height="22.956"/>
		<path d="M224.72,83.513c-1.818,0-2.17-2.149-2.17-3.608c0-1.459,0.352-3.608,2.17-3.608s2.17,2.149,2.17,3.608
			C226.89,81.364,226.538,83.513,224.72,83.513z M224.72,77.087c-0.909,0-1.323,1.059-1.323,2.818c0,1.759,0.414,2.818,1.323,2.818
			s1.323-1.06,1.323-2.818C226.043,78.146,225.629,77.087,224.72,77.087z"/>
	</g>
	<rect x="228.768" y="68.58" class="st11" width="8.098" height="22.956"/>
	<g>
		<rect x="228.768" y="68.58" class="st5" width="8.098" height="22.956"/>
		<path d="M232.818,83.513c-1.818,0-2.17-2.149-2.17-3.608c0-1.459,0.352-3.608,2.17-3.608s2.17,2.149,2.17,3.608
			C234.988,81.364,234.637,83.513,232.818,83.513z M232.818,77.087c-0.909,0-1.323,1.059-1.323,2.818
			c0,1.759,0.414,2.818,1.323,2.818s1.323-1.06,1.323-2.818C234.142,78.146,233.727,77.087,232.818,77.087z"/>
	</g>
	<rect x="236.866" y="68.58" class="st11" width="8.098" height="22.956"/>
	<g>
		<rect x="236.866" y="68.58" class="st5" width="8.098" height="22.956"/>
		<path d="M240.916,83.513c-1.818,0-2.17-2.149-2.17-3.608c0-1.459,0.352-3.608,2.17-3.608s2.17,2.149,2.17,3.608
			C243.086,81.364,242.734,83.513,240.916,83.513z M240.916,77.087c-0.909,0-1.323,1.059-1.323,2.818
			c0,1.759,0.414,2.818,1.323,2.818s1.323-1.06,1.323-2.818C242.239,78.146,241.825,77.087,240.916,77.087z"/>
	</g>
	<rect x="244.964" y="68.58" class="st11" width="8.098" height="22.956"/>
	<g>
		<rect x="244.964" y="68.58" class="st5" width="8.098" height="22.956"/>
		<path d="M249.743,83.323h-0.847v-4.987h-1.477v-0.7c1.026-0.08,1.449-0.19,1.701-1.339h0.622V83.323z"/>
	</g>
	<rect x="253.063" y="68.58" class="st11" width="8.098" height="22.956"/>
	<g>
		<rect x="253.063" y="68.58" class="st5" width="8.098" height="22.956"/>
		<path d="M257.842,83.323h-0.847v-4.987h-1.477v-0.7c1.026-0.08,1.449-0.19,1.701-1.339h0.622V83.323z"/>
	</g>
	<rect x="261.161" y="68.58" class="st11" width="8.098" height="22.956"/>
	<g>
		<rect x="261.161" y="68.58" class="st5" width="8.098" height="22.956"/>
		<path d="M265.211,83.513c-1.818,0-2.17-2.149-2.17-3.608c0-1.459,0.352-3.608,2.17-3.608s2.17,2.149,2.17,3.608
			C267.381,81.364,267.029,83.513,265.211,83.513z M265.211,77.087c-0.909,0-1.323,1.059-1.323,2.818
			c0,1.759,0.414,2.818,1.323,2.818s1.323-1.06,1.323-2.818C266.534,78.146,266.12,77.087,265.211,77.087z"/>
	</g>
	<rect x="269.259" y="68.58" class="st11" width="8.098" height="22.956"/>
	<g>
		<rect x="269.259" y="68.58" class="st5" width="8.098" height="22.956"/>
		<path d="M273.309,83.513c-1.818,0-2.17-2.149-2.17-3.608c0-1.459,0.352-3.608,2.17-3.608s2.17,2.149,2.17,3.608
			C275.478,81.364,275.127,83.513,273.309,83.513z M273.309,77.087c-0.909,0-1.323,1.059-1.323,2.818
			c0,1.759,0.414,2.818,1.323,2.818s1.323-1.06,1.323-2.818C274.632,78.146,274.218,77.087,273.309,77.087z"/>
	</g>
	<rect x="277.357" y="68.58" class="st11" width="8.098" height="22.956"/>
	<g>
		<rect x="277.357" y="68.58" class="st5" width="8.098" height="22.956"/>
		<path d="M282.137,83.323h-0.847v-4.987h-1.477v-0.7c1.026-0.08,1.449-0.19,1.701-1.339h0.622V83.323z"/>
	</g>
	<rect x="285.455" y="68.58" class="st11" width="8.098" height="22.956"/>
	<g>
		<rect x="285.455" y="68.58" class="st5" width="8.098" height="22.956"/>
		<path d="M289.505,83.513c-1.818,0-2.17-2.149-2.17-3.608c0-1.459,0.352-3.608,2.17-3.608s2.17,2.149,2.17,3.608
			C291.675,81.364,291.323,83.513,289.505,83.513z M289.505,77.087c-0.909,0-1.323,1.059-1.323,2.818
			c0,1.759,0.414,2.818,1.323,2.818s1.323-1.06,1.323-2.818C290.828,78.146,290.414,77.087,289.505,77.087z"/>
	</g>
	<rect x="293.553" y="68.58" class="st11" width="8.098" height="22.956"/>
	<g>
		<rect x="293.553" y="68.58" class="st5" width="8.098" height="22.956"/>
		<path d="M298.333,83.323h-0.847v-4.987h-1.477v-0.7c1.026-0.08,1.449-0.19,1.701-1.339h0.622V83.323z"/>
	</g>
	<rect x="301.651" y="68.58" class="st11" width="8.098" height="22.956"/>
	<g>
		<rect x="301.651" y="68.58" class="st5" width="8.098" height="22.956"/>
		<path d="M305.701,83.513c-1.818,0-2.17-2.149-2.17-3.608c0-1.459,0.352-3.608,2.17-3.608s2.17,2.149,2.17,3.608
			C307.871,81.364,307.519,83.513,305.701,83.513z M305.701,77.087c-0.909,0-1.323,1.059-1.323,2.818
			c0,1.759,0.414,2.818,1.323,2.818s1.323-1.06,1.323-2.818C307.024,78.146,306.61,77.087,305.701,77.087z"/>
	</g>
	<g>
		<g>
			<rect y="29.037" class="st5" width="20.64" height="10.939"/>
			<path d="M4.967,29.937h2.327c1.495,0,2.415,1.135,2.415,2.791c0,1.287-0.56,2.95-2.447,2.95H4.967V29.937z M5.743,35.014h1.503
				c1.007,0,1.663-0.792,1.663-2.239S8.246,30.6,7.19,30.6H5.743V35.014z"/>
			<path d="M12.99,32.687c-0.008-0.264-0.104-0.704-0.992-0.704c-0.216,0-0.832,0.072-0.832,0.592c0,0.344,0.216,0.423,0.76,0.56
				l0.704,0.176c0.872,0.216,1.175,0.536,1.175,1.104c0,0.863-0.711,1.383-1.655,1.383c-1.655,0-1.775-0.959-1.799-1.463h0.68
				c0.024,0.328,0.12,0.855,1.111,0.855c0.504,0,0.959-0.2,0.959-0.664c0-0.336-0.232-0.448-0.832-0.6l-0.815-0.2
				c-0.584-0.144-0.968-0.44-0.968-1.016c0-0.919,0.76-1.335,1.583-1.335c1.495,0,1.599,1.104,1.599,1.312H12.99z"/>
			<path d="M15.479,32.079v2.719c0,0.328,0.28,0.328,0.424,0.328h0.248v0.552c-0.256,0.024-0.456,0.056-0.527,0.056
				c-0.696,0-0.848-0.392-0.848-0.896v-2.759h-0.568v-0.583h0.568v-1.167h0.704v1.167h0.671v0.583H15.479z"/>
		</g>
	</g>
	<g>
		<g>
			<rect x="20.927" y="29.037" class="st5" width="20.64" height="10.939"/>
			<path d="M25.894,29.937h2.327c1.495,0,2.415,1.135,2.415,2.791c0,1.287-0.56,2.95-2.447,2.95h-2.295V29.937z M26.67,35.014h1.503
				c1.007,0,1.663-0.792,1.663-2.239S29.173,30.6,28.118,30.6H26.67V35.014z"/>
			<path d="M33.917,32.687c-0.008-0.264-0.104-0.704-0.992-0.704c-0.216,0-0.832,0.072-0.832,0.592c0,0.344,0.216,0.423,0.76,0.56
				l0.704,0.176c0.872,0.216,1.175,0.536,1.175,1.104c0,0.863-0.711,1.383-1.655,1.383c-1.655,0-1.775-0.959-1.799-1.463h0.68
				c0.024,0.328,0.12,0.855,1.111,0.855c0.504,0,0.959-0.2,0.959-0.664c0-0.336-0.232-0.448-0.832-0.6l-0.815-0.2
				c-0.584-0.144-0.968-0.44-0.968-1.016c0-0.919,0.76-1.335,1.583-1.335c1.495,0,1.599,1.104,1.599,1.312H33.917z"/>
			<path d="M36.406,32.079v2.719c0,0.328,0.28,0.328,0.424,0.328h0.248v0.552c-0.256,0.024-0.456,0.056-0.527,0.056
				c-0.696,0-0.848-0.392-0.848-0.896v-2.759h-0.568v-0.583h0.568v-1.167h0.704v1.167h0.671v0.583H36.406z"/>
		</g>
	</g>
	<g>
		<rect x="38.334" y="30.164" class="st5" width="10.543" height="8.247"/>
		<path d="M41.653,32.69h0.453v1.678h1.342v0.567h-1.342v1.678h-0.453v-1.678h-1.348v-0.567h1.348V32.69z"/>
		<path d="M45.922,36.612h-0.584v-3.875H44.32v-0.544c0.708-0.062,1-0.147,1.173-1.041h0.429V36.612z"/>
	</g>
	<rect x="20.081" y="33.174" width="1.127" height="1.251"/>
	<g>
		<g>
			<rect y="75.629" class="st5" width="20.64" height="10.939"/>
			<path d="M4.967,76.528h2.327c1.495,0,2.415,1.135,2.415,2.791c0,1.287-0.56,2.95-2.447,2.95H4.967V76.528z M5.743,81.605h1.503
				c1.007,0,1.663-0.792,1.663-2.239s-0.664-2.175-1.719-2.175H5.743V81.605z"/>
			<path d="M12.99,79.279c-0.008-0.264-0.104-0.704-0.992-0.704c-0.216,0-0.832,0.072-0.832,0.592c0,0.344,0.216,0.423,0.76,0.56
				l0.704,0.176c0.872,0.216,1.175,0.536,1.175,1.104c0,0.863-0.711,1.383-1.655,1.383c-1.655,0-1.775-0.959-1.799-1.463h0.68
				c0.024,0.328,0.12,0.855,1.111,0.855c0.504,0,0.959-0.2,0.959-0.664c0-0.336-0.232-0.448-0.832-0.6l-0.815-0.2
				c-0.584-0.144-0.968-0.44-0.968-1.016c0-0.919,0.76-1.335,1.583-1.335c1.495,0,1.599,1.104,1.599,1.312H12.99z"/>
			<path d="M15.479,78.671v2.719c0,0.328,0.28,0.328,0.424,0.328h0.248v0.552c-0.256,0.024-0.456,0.056-0.527,0.056
				c-0.696,0-0.848-0.392-0.848-0.896v-2.759h-0.568v-0.583h0.568V76.92h0.704v1.167h0.671v0.583H15.479z"/>
		</g>
	</g>
	<g>
		<g>
			<rect x="20.927" y="75.629" class="st5" width="20.64" height="10.939"/>
			<path d="M25.895,76.528h2.327c1.496,0,2.415,1.135,2.415,2.791c0,1.287-0.56,2.95-2.447,2.95h-2.295V76.528z M26.671,81.605
				h1.503c1.008,0,1.663-0.792,1.663-2.239s-0.664-2.175-1.719-2.175h-1.447V81.605z"/>
			<path d="M33.918,79.279c-0.008-0.264-0.104-0.704-0.992-0.704c-0.216,0-0.832,0.072-0.832,0.592c0,0.344,0.216,0.423,0.76,0.56
				l0.704,0.176c0.872,0.216,1.175,0.536,1.175,1.104c0,0.863-0.711,1.383-1.655,1.383c-1.655,0-1.775-0.959-1.799-1.463h0.68
				c0.024,0.328,0.12,0.855,1.111,0.855c0.504,0,0.959-0.2,0.959-0.664c0-0.336-0.232-0.448-0.832-0.6l-0.815-0.2
				c-0.584-0.144-0.968-0.44-0.968-1.016c0-0.919,0.76-1.335,1.583-1.335c1.495,0,1.599,1.104,1.599,1.312H33.918z"/>
			<path d="M36.407,78.671v2.719c0,0.328,0.28,0.328,0.424,0.328h0.248v0.552c-0.256,0.024-0.456,0.056-0.527,0.056
				c-0.696,0-0.848-0.392-0.848-0.896v-2.759h-0.568v-0.583h0.568V76.92h0.704v1.167h0.671v0.583H36.407z"/>
		</g>
	</g>
	<g>
		<rect x="38.334" y="76.756" class="st5" width="10.543" height="8.247"/>
		<path d="M41.653,79.282h0.453v1.678h1.342v0.567h-1.342v1.678h-0.453v-1.678h-1.348v-0.567h1.348V79.282z"/>
		<path d="M45.922,83.204h-0.584v-3.875H44.32v-0.544c0.708-0.062,1-0.147,1.173-1.041h0.429V83.204z"/>
	</g>
	<rect x="20.081" y="79.766" width="1.127" height="1.251"/>
	<g>
		<g>
			<polyline class="st12" points="86.315,67.371 86.315,54.67 55.705,54.67 55.705,45.757 			"/>
		</g>
	</g>
	<g>
		<g>
			<polyline class="st12" points="341.306,67.371 341.306,54.67 306.079,54.67 306.079,45.757 			"/>
		</g>
		<path class="st12" d="M341.306,67.371"/>
	</g>
	<g>
		<g>
			<path d="M50.044,128.228c0.26,0.032,0.524,0.048,0.793,0.048h1.196c0.123-0.296,0.244-0.613,0.362-0.95
				c0.223,0.091,0.44,0.152,0.649,0.185c-0.119,0.128-0.283,0.383-0.492,0.766h2.741c0.26,0,0.524-0.016,0.793-0.048
				c-0.023,0.096-0.034,0.196-0.034,0.301c0,0.087,0.011,0.178,0.034,0.273c-0.269-0.036-0.533-0.055-0.793-0.055h-2.967
				c-0.237,0.483-0.481,0.916-0.731,1.299v2.857c0,0.296,0.018,0.597,0.055,0.902c-0.096-0.019-0.196-0.027-0.301-0.027
				c-0.086,0-0.178,0.009-0.273,0.027c0.041-0.306,0.062-0.606,0.062-0.902v-2.229c-0.269,0.347-0.542,0.67-0.82,0.971
				c-0.146-0.123-0.337-0.224-0.574-0.301c0.506-0.419,0.964-0.902,1.374-1.449c-0.014-0.114-0.027-0.226-0.041-0.335
				c0.082,0.009,0.168,0.016,0.26,0.021c0.168-0.246,0.328-0.524,0.479-0.834h-0.978c-0.269,0-0.533,0.019-0.793,0.055
				c0.018-0.096,0.027-0.187,0.027-0.273C50.071,128.424,50.062,128.323,50.044,128.228z M52.471,129.561
				c0.219,0.022,0.438,0.034,0.656,0.034h1.894c0.223,0,0.449-0.012,0.677-0.034c-0.018,0.087-0.027,0.169-0.027,0.246
				c0.018,0.104,0.027,0.205,0.027,0.301c-0.465,0.26-0.891,0.518-1.278,0.772v0.465h0.902c0.26,0,0.524-0.021,0.793-0.062
				c-0.018,0.104-0.027,0.205-0.027,0.301s0.009,0.187,0.027,0.273c-0.269-0.036-0.533-0.055-0.793-0.055h-0.902v1.374
				c0,0.214-0.098,0.357-0.294,0.431c-0.255,0.096-0.549,0.144-0.882,0.144c-0.023-0.196-0.105-0.388-0.246-0.574
				c0.237,0.019,0.392,0.027,0.465,0.027c0.314,0,0.476-0.091,0.485-0.273v-1.128h-1.203c-0.26,0-0.524,0.019-0.793,0.055
				c0.023-0.087,0.034-0.178,0.034-0.273s-0.011-0.196-0.034-0.301c0.269,0.041,0.533,0.062,0.793,0.062h1.203v-0.574l1.073-0.718
				h-1.894c-0.219,0-0.438,0.009-0.656,0.027c0.018-0.087,0.027-0.178,0.027-0.273C52.498,129.729,52.489,129.647,52.471,129.561z"
				/>
			<path d="M58.076,127.353c0.155,0.082,0.376,0.144,0.663,0.185c-0.141,0.183-0.314,0.538-0.52,1.066
				c-0.027,0.068-0.055,0.139-0.082,0.212v4.115c0,0.301,0.018,0.6,0.055,0.896c-0.105-0.014-0.205-0.021-0.301-0.021
				s-0.187,0.007-0.273,0.021c0.032-0.296,0.048-0.595,0.048-0.896v-3.104c-0.16,0.306-0.333,0.6-0.52,0.882
				c-0.082-0.123-0.226-0.241-0.431-0.355c0.406-0.515,0.72-1.03,0.943-1.545C57.851,128.325,57.99,127.84,58.076,127.353z
				 M58.295,129.506c0.096,0.019,0.187,0.027,0.273,0.027h0.499c0.137,0,0.271-0.009,0.403-0.027
				c-0.027,0.142-0.045,0.28-0.055,0.417v2.365c0.168-0.109,0.335-0.234,0.499-0.376c0.041,0.137,0.112,0.258,0.212,0.362
				c-0.383,0.306-0.784,0.668-1.203,1.087c-0.082-0.128-0.182-0.237-0.301-0.328c0.146-0.142,0.246-0.273,0.301-0.396
				c0.041-0.118,0.062-0.217,0.062-0.294v-2.42h-0.417c-0.086,0-0.178,0.009-0.273,0.027c0.018-0.077,0.027-0.15,0.027-0.219
				C58.322,129.658,58.313,129.583,58.295,129.506z M59.313,127.756c0.119,0.392,0.28,0.813,0.485,1.265
				c-0.168,0.027-0.339,0.08-0.513,0.157c-0.086-0.401-0.242-0.836-0.465-1.306C58.995,127.854,59.159,127.815,59.313,127.756z
				 M60.072,128.255c0.219,0.032,0.44,0.048,0.663,0.048h0.301v-0.492c0-0.159-0.021-0.321-0.062-0.485
				c0.164,0.046,0.355,0.07,0.574,0.075c-0.055,0.104-0.082,0.241-0.082,0.41v0.492c0.219,0,0.438-0.016,0.656-0.048
				c-0.018,0.077-0.027,0.159-0.027,0.246c0,0.077,0.009,0.159,0.027,0.246c-0.219-0.041-0.438-0.062-0.656-0.062v0.909h0.144
				c0.337-0.456,0.69-1.051,1.06-1.784c0.155,0.146,0.321,0.267,0.499,0.362c-0.109,0.082-0.344,0.401-0.704,0.957
				c-0.1,0.164-0.203,0.319-0.308,0.465h0.383c0.219,0,0.438-0.021,0.656-0.062c-0.018,0.087-0.027,0.169-0.027,0.246
				c0,0.087,0.009,0.169,0.027,0.246c-0.219-0.032-0.438-0.048-0.656-0.048h-0.67c-0.127,0.173-0.262,0.333-0.403,0.479
				c-0.05,0.063-0.1,0.121-0.15,0.171h0.704c0.232,0,0.467-0.016,0.704-0.048c-0.037,0.21-0.055,0.417-0.055,0.622v1.948
				c0,0.228,0.018,0.453,0.055,0.677c-0.132-0.014-0.223-0.021-0.273-0.021c-0.045,0-0.137,0.007-0.273,0.021
				c0.037-0.191,0.055-0.383,0.055-0.574h-1.333c0,0.196,0.016,0.388,0.048,0.574c-0.132-0.014-0.223-0.021-0.273-0.021
				c-0.045,0-0.137,0.007-0.273,0.021c0.041-0.224,0.062-0.449,0.062-0.677v-1.661c-0.141,0.132-0.29,0.265-0.444,0.396
				c-0.091-0.137-0.226-0.255-0.403-0.355c0.287-0.205,0.563-0.426,0.827-0.663c-0.009-0.101-0.023-0.196-0.041-0.287
				c0.105,0.014,0.205,0.022,0.301,0.027c0.214-0.2,0.41-0.41,0.588-0.629h-0.827c-0.223,0-0.444,0.016-0.663,0.048
				c0.018-0.077,0.027-0.159,0.027-0.246c0-0.077-0.009-0.159-0.027-0.246c0.219,0.041,0.44,0.062,0.663,0.062h0.574v-0.909h-0.301
				c-0.223,0-0.444,0.021-0.663,0.062c0.018-0.087,0.027-0.169,0.027-0.246C60.1,128.414,60.09,128.332,60.072,128.255z
				 M60.892,131.775h1.347v-0.766h-1.292c-0.023,0.027-0.041,0.048-0.055,0.062V131.775z M60.892,132.876h1.347v-0.745h-1.347
				V132.876z"/>
			<path d="M65.52,129.26c0.196,0.104,0.403,0.169,0.622,0.191c-0.1,0.109-0.208,0.265-0.321,0.465
				c-0.078,0.146-0.162,0.289-0.253,0.431v2.529c0,0.314,0.018,0.631,0.055,0.95c-0.096-0.014-0.196-0.021-0.301-0.021
				c-0.096,0-0.196,0.007-0.301,0.021c0.037-0.319,0.055-0.636,0.055-0.95v-1.825c-0.269,0.337-0.57,0.663-0.902,0.978
				c-0.091-0.137-0.235-0.265-0.431-0.383c0.433-0.306,0.8-0.672,1.101-1.101C65.131,130.148,65.356,129.72,65.52,129.26z
				 M65.267,127.353c0.205,0.091,0.433,0.152,0.684,0.185c-0.119,0.109-0.278,0.299-0.479,0.567
				c-0.009,0.019-0.016,0.032-0.021,0.041h0.964c0.196,0,0.406-0.012,0.629-0.034c-0.018,0.082-0.027,0.155-0.027,0.219
				c0,0.096,0.009,0.178,0.027,0.246c-0.15-0.014-0.36-0.021-0.629-0.021h-0.424l0.294,0.677c-0.182,0.022-0.346,0.062-0.492,0.116
				c-0.078-0.314-0.164-0.579-0.26-0.793h-0.369c-0.232,0.328-0.49,0.663-0.772,1.005c-0.164-0.132-0.355-0.224-0.574-0.273
				c0.314-0.214,0.62-0.524,0.916-0.93C64.885,128.175,65.062,127.84,65.267,127.353z M65.985,130.306
				c0.264,0.032,0.526,0.048,0.786,0.048h1.723v-0.301c0-0.164-0.009-0.328-0.027-0.492c0.196,0.041,0.406,0.062,0.629,0.062
				c-0.05,0.146-0.075,0.316-0.075,0.513v0.219h0.301c0.26,0,0.524-0.016,0.793-0.048c-0.018,0.096-0.027,0.196-0.027,0.301
				c0,0.087,0.009,0.178,0.027,0.273c-0.269-0.036-0.533-0.055-0.793-0.055H69.02v2.406c0,0.246-0.103,0.408-0.308,0.485
				c-0.201,0.073-0.49,0.109-0.868,0.109c-0.05-0.237-0.15-0.436-0.301-0.595h0.431c0.346,0,0.52-0.094,0.52-0.28v-2.126h-1.723
				c-0.26,0-0.522,0.019-0.786,0.055c0.018-0.096,0.027-0.187,0.027-0.273C66.013,130.502,66.003,130.401,65.985,130.306z
				 M66.97,131.283c0.187,0.282,0.46,0.565,0.82,0.848c-0.16,0.087-0.317,0.205-0.472,0.355c-0.205-0.355-0.479-0.665-0.82-0.93
				C66.676,131.493,66.833,131.401,66.97,131.283z M67.975,127.353c0.196,0.091,0.417,0.152,0.663,0.185
				c-0.119,0.109-0.273,0.296-0.465,0.561c-0.009,0.022-0.018,0.039-0.027,0.048h1.251c0.196,0,0.406-0.012,0.629-0.034
				c-0.018,0.082-0.027,0.155-0.027,0.219c0,0.096,0.009,0.178,0.027,0.246c-0.146-0.014-0.355-0.021-0.629-0.021h-0.472
				l0.342,0.766c-0.201,0.022-0.383,0.06-0.547,0.109c-0.091-0.351-0.198-0.643-0.321-0.875h-0.526
				c-0.214,0.319-0.451,0.645-0.711,0.978c-0.16-0.118-0.342-0.2-0.547-0.246c0.292-0.214,0.579-0.524,0.861-0.93
				C67.617,128.175,67.783,127.84,67.975,127.353z"/>
			<path d="M70.928,130.053c0.269,0.036,0.533,0.055,0.793,0.055h4.457c0.269,0,0.533-0.019,0.793-0.055
				c-0.018,0.104-0.027,0.205-0.027,0.301s0.009,0.187,0.027,0.273c-0.26-0.032-0.524-0.048-0.793-0.048h-3.165l-0.144,0.978h2.577
				c0.173,0,0.346-0.009,0.52-0.027c-0.073,1.053-0.205,1.661-0.396,1.825c-0.109,0.109-0.267,0.196-0.472,0.26
				c-0.314,0.091-0.656,0.155-1.025,0.191c-0.018-0.196-0.1-0.381-0.246-0.554c0.178,0.019,0.308,0.027,0.39,0.027
				c0.383,0,0.674-0.077,0.875-0.232c0.182-0.155,0.273-0.494,0.273-1.019h-2.495c-0.209,0-0.417,0.009-0.622,0.027
				c0.105-0.528,0.173-1.021,0.205-1.477h-0.731c-0.26,0-0.524,0.016-0.793,0.048c0.023-0.087,0.034-0.178,0.034-0.273
				S70.951,130.157,70.928,130.053z M71.967,127.537c0.305,0.022,0.606,0.034,0.902,0.034h2.194c0.296,0,0.597-0.012,0.902-0.034
				c-0.018,0.164-0.027,0.328-0.027,0.492v1.019c0,0.183,0.009,0.364,0.027,0.547c-0.305-0.022-0.606-0.034-0.902-0.034h-2.194
				c-0.296,0-0.597,0.012-0.902,0.034c0.018-0.183,0.027-0.364,0.027-0.547v-1.019C71.976,127.865,71.967,127.701,71.967,127.537z
				 M75.419,129.103v-1.073H72.52v1.073H75.419z"/>
			<path d="M79.22,127.38c0.164,0.082,0.365,0.155,0.602,0.219c-0.096,0.096-0.196,0.265-0.301,0.506
				c-0.105,0.237-0.214,0.467-0.328,0.69v4.026c0,0.296,0.018,0.597,0.055,0.902c-0.105-0.019-0.205-0.027-0.301-0.027
				s-0.189,0.009-0.28,0.027c0.037-0.306,0.055-0.606,0.055-0.902v-3.179c-0.182,0.292-0.374,0.576-0.574,0.854
				c-0.109-0.142-0.262-0.262-0.458-0.362c0.419-0.438,0.745-0.894,0.978-1.367C78.944,128.234,79.128,127.771,79.22,127.38z
				 M79.65,128.057c0.242,0.036,0.481,0.055,0.718,0.055h1.06v-0.212c0-0.173-0.018-0.347-0.055-0.52
				c0.168,0.046,0.369,0.07,0.602,0.075c-0.055,0.114-0.082,0.262-0.082,0.444v0.212h1.319c0.237,0,0.472-0.019,0.704-0.055
				c-0.014,0.096-0.021,0.187-0.021,0.273s0.007,0.169,0.021,0.246c-0.232-0.032-0.467-0.048-0.704-0.048h-1.319v0.731h0.875
				c0.178,0,0.353-0.009,0.526-0.027c-0.018,0.146-0.027,0.294-0.027,0.444v3.473h0.055c0.25,0,0.506-0.019,0.766-0.055
				c-0.023,0.091-0.034,0.18-0.034,0.267c0,0.096,0.011,0.187,0.034,0.273c-0.26-0.036-0.515-0.055-0.766-0.055H80.17
				c-0.25,0-0.503,0.019-0.759,0.055c0.018-0.087,0.027-0.178,0.027-0.273c0-0.087-0.009-0.176-0.027-0.267
				c0.246,0.036,0.49,0.055,0.731,0.055v-3.473c0-0.15-0.007-0.299-0.021-0.444c0.173,0.019,0.346,0.027,0.52,0.027h0.786v-0.731
				h-1.06c-0.237,0-0.476,0.016-0.718,0.048c0.018-0.077,0.027-0.159,0.027-0.246S79.668,128.152,79.65,128.057z M80.614,130.251
				h2.181v-0.574h-2.181V130.251z M80.614,131.181h2.181v-0.602h-2.181V131.181z M80.614,132.131h2.181v-0.629h-2.181V132.131z
				 M80.614,133.149h2.181v-0.69h-2.181V133.149z"/>
		</g>
	</g>
	<g>
		<g>
			<path d="M50.234,138.918c0.305,0.032,0.606,0.048,0.902,0.048h1.709c0.009-0.063,0.014-0.128,0.014-0.191
				c0-0.647-0.016-1.267-0.048-1.859c0.296,0.063,0.54,0.101,0.731,0.109c-0.073,0.237-0.109,0.485-0.109,0.745
				c0,0.429-0.016,0.827-0.048,1.196h1.75c0.296,0,0.597-0.016,0.902-0.048c-0.018,0.104-0.027,0.214-0.027,0.328
				c0,0.101,0.009,0.198,0.027,0.294c-0.305-0.032-0.606-0.048-0.902-0.048h-1.771c0.191,0.747,0.474,1.36,0.848,1.839
				c0.428,0.533,1.11,0.969,2.044,1.306c-0.264,0.178-0.456,0.405-0.574,0.684c-0.766-0.364-1.39-0.9-1.873-1.606
				c-0.237-0.342-0.449-0.802-0.636-1.381c-0.214,0.839-0.57,1.479-1.066,1.921c-0.232,0.265-0.782,0.645-1.647,1.142
				c-0.16-0.241-0.351-0.424-0.574-0.547c0.729-0.214,1.29-0.474,1.682-0.779c0.506-0.41,0.852-0.937,1.039-1.579
				c0.091-0.301,0.157-0.634,0.198-0.998h-1.668c-0.296,0-0.597,0.016-0.902,0.048c0.018-0.096,0.027-0.193,0.027-0.294
				C50.262,139.132,50.252,139.022,50.234,138.918z"/>
			<path d="M57.788,137.298c0.296,0.041,0.595,0.062,0.896,0.062h2.926c0.305,0,0.606-0.021,0.902-0.062
				c-0.018,0.114-0.027,0.224-0.027,0.328s0.009,0.205,0.027,0.301c-0.296-0.036-0.597-0.055-0.902-0.055h-1.196v1.805h1.798
				c0.305,0,0.606-0.019,0.902-0.055c-0.018,0.114-0.027,0.224-0.027,0.328s0.009,0.205,0.027,0.301
				c-0.296-0.036-0.597-0.055-0.902-0.055h-1.798v2.741c0,0.15-0.093,0.26-0.28,0.328c-0.173,0.068-0.52,0.103-1.039,0.103
				c-0.009-0.232-0.08-0.439-0.212-0.622c0.328,0.032,0.581,0.048,0.759,0.048c0.141,0,0.214-0.053,0.219-0.157v-2.44h-1.914
				c-0.296,0-0.597,0.019-0.902,0.055c0.018-0.096,0.027-0.196,0.027-0.301s-0.009-0.214-0.027-0.328
				c0.305,0.036,0.606,0.055,0.902,0.055h1.914v-1.805h-1.176c-0.301,0-0.599,0.019-0.896,0.055
				c0.014-0.096,0.021-0.196,0.021-0.301S57.802,137.412,57.788,137.298z"/>
			<path d="M65.587,142.77c-1.415,0-1.688-1.506-1.688-2.528s0.273-2.528,1.688-2.528c1.415,0,1.688,1.506,1.688,2.528
				S67.001,142.77,65.587,142.77z M65.587,138.267c-0.708,0-1.03,0.742-1.03,1.975s0.322,1.976,1.03,1.976
				c0.707,0,1.029-0.743,1.029-1.976S66.294,138.267,65.587,138.267z"/>
			<path d="M68.87,139.766h-0.729v-0.743h0.729V139.766z M68.87,142.637h-0.729v-0.742h0.729V142.637z"/>
			<path d="M71.425,142.77c-1.415,0-1.688-1.506-1.688-2.528s0.273-2.528,1.688-2.528c1.415,0,1.688,1.506,1.688,2.528
				S72.839,142.77,71.425,142.77z M71.425,138.267c-0.708,0-1.03,0.742-1.03,1.975s0.322,1.976,1.03,1.976
				c0.707,0,1.029-0.743,1.029-1.976S72.132,138.267,71.425,138.267z"/>
		</g>
	</g>
	<g>
		<g>
			<path d="M51.41,148.104c0.132,0.055,0.36,0.116,0.684,0.185c-0.137,0.178-0.264,0.408-0.383,0.69
				c-0.333,0.921-0.588,1.561-0.766,1.921c-0.123,0.273-0.232,0.552-0.328,0.834c-0.187-0.109-0.415-0.191-0.684-0.246
				c0.342-0.333,0.684-0.941,1.025-1.825C51.196,149.048,51.346,148.528,51.41,148.104z M52.839,146.512
				c0.201,0.036,0.417,0.055,0.649,0.055c-0.05,0.159-0.075,0.342-0.075,0.547v5.195c0,0.265-0.1,0.438-0.301,0.52
				c-0.191,0.073-0.474,0.109-0.848,0.109c-0.05-0.246-0.15-0.456-0.301-0.629h0.465c0.287,0,0.431-0.101,0.431-0.301v-4.97
				C52.859,146.86,52.852,146.685,52.839,146.512z M54.753,148.043c0.396,1.025,0.925,2.073,1.586,3.145
				c-0.214,0.05-0.415,0.159-0.602,0.328c-0.465-1.217-0.996-2.283-1.593-3.199C54.391,148.262,54.593,148.171,54.753,148.043z"/>
			<path d="M57.788,146.84c0.296,0.041,0.595,0.062,0.896,0.062h2.926c0.305,0,0.606-0.021,0.902-0.062
				c-0.018,0.114-0.027,0.224-0.027,0.328s0.009,0.205,0.027,0.301c-0.296-0.036-0.597-0.055-0.902-0.055h-1.196v1.805h1.798
				c0.305,0,0.606-0.019,0.902-0.055c-0.018,0.114-0.027,0.224-0.027,0.328s0.009,0.205,0.027,0.301
				c-0.296-0.036-0.597-0.055-0.902-0.055h-1.798v2.741c0,0.15-0.093,0.26-0.28,0.328c-0.173,0.068-0.52,0.103-1.039,0.103
				c-0.009-0.232-0.08-0.439-0.212-0.622c0.328,0.032,0.581,0.048,0.759,0.048c0.141,0,0.214-0.053,0.219-0.157v-2.44h-1.914
				c-0.296,0-0.597,0.019-0.902,0.055c0.018-0.096,0.027-0.196,0.027-0.301s-0.009-0.214-0.027-0.328
				c0.305,0.036,0.606,0.055,0.902,0.055h1.914v-1.805h-1.176c-0.301,0-0.599,0.019-0.896,0.055
				c0.014-0.096,0.021-0.196,0.021-0.301S57.802,146.954,57.788,146.84z"/>
			<path d="M65.587,152.312c-1.415,0-1.688-1.506-1.688-2.528s0.273-2.528,1.688-2.528c1.415,0,1.688,1.506,1.688,2.528
				S67.001,152.312,65.587,152.312z M65.587,147.809c-0.708,0-1.03,0.742-1.03,1.975s0.322,1.976,1.03,1.976
				c0.707,0,1.029-0.743,1.029-1.976S66.294,147.809,65.587,147.809z"/>
			<path d="M68.87,149.308h-0.729v-0.743h0.729V149.308z M68.87,152.179h-0.729v-0.742h0.729V152.179z"/>
			<path d="M71.992,152.179h-0.658v-3.495h-1.148v-0.49c0.798-0.056,1.127-0.133,1.324-0.938h0.483V152.179z"/>
		</g>
	</g>
	<g>
		<polyline class="st5" points="309.955,68.58 309.955,91.414 319.317,91.414 319.317,68.58 		"/>
		<path class="st13" d="M315.366,83.29h-0.847v-4.987h-1.477v-0.7c1.026-0.08,1.449-0.19,1.701-1.339h0.622V83.29z"/>
	</g>
	<g>
		<rect x="319.317" y="68.58" class="st5" width="9.363" height="22.834"/>
		<path class="st13" d="M324.729,83.29h-0.847v-4.987h-1.477v-0.7c1.026-0.08,1.449-0.19,1.701-1.339h0.622V83.29z"/>
	</g>
	<g>
		<g>
			<rect x="328.68" y="68.58" class="st5" width="9.363" height="22.834"/>
			<path class="st13" d="M334.092,83.29h-0.847v-4.987h-1.477v-0.7c1.026-0.08,1.449-0.19,1.701-1.339h0.622V83.29z"/>
		</g>
	</g>
	<g>
		<g>
			<rect x="338.043" y="68.58" class="st5" width="9.363" height="22.834"/>
			<path class="st13" d="M342.725,83.479c-1.818,0-2.17-2.149-2.17-3.608c0-1.459,0.352-3.608,2.17-3.608s2.17,2.149,2.17,3.608
				C344.895,81.331,344.544,83.479,342.725,83.479z M342.725,77.053c-0.909,0-1.323,1.06-1.323,2.819
				c0,1.759,0.414,2.818,1.323,2.818s1.323-1.06,1.323-2.818C344.049,78.112,343.635,77.053,342.725,77.053z"/>
		</g>
	</g>
	<g>
		<line class="st0" x1="328.747" y1="91.529" x2="328.747" y2="68.687"/>
		<line class="st0" x1="338.088" y1="91.529" x2="338.088" y2="68.687"/>
		<line class="st0" x1="319.226" y1="91.529" x2="319.226" y2="68.687"/>
	</g>
</g>
</svg>
