<?xml version="1.0" encoding="utf-8"?>
<!-- Generator: Adobe Illustrator 28.2.0, SVG Export Plug-In . SVG Version: 6.00 Build 0)  -->
<svg version="1.1" id="儗僀儎乕_1" xmlns="http://www.w3.org/2000/svg" xmlns:xlink="http://www.w3.org/1999/xlink" x="0px"
	 y="0px" width="390.065px" height="116.4px" viewBox="0 0 390.065 116.4" style="enable-background:new 0 0 390.065 116.4;"
	 xml:space="preserve">
<style type="text/css">
	.st0{fill:#FFFFFF;stroke:#000000;}
	.st1{fill:none;stroke:#000000;}
	.st2{fill:none;stroke:#000000;stroke-width:0.5;stroke-dasharray:1.5;}
	.st3{fill:#CCCCCC;}
	.st4{fill:none;stroke:#000000;stroke-width:0.5;}
</style>
<rect x="276.98" y="7.634" class="st0" width="106.708" height="17.717"/>
<line class="st0" x1="348.261" y1="25.351" x2="348.261" y2="7.634"/>
<line class="st1" x1="27.615" y1="16.873" x2="276.632" y2="16.873"/>
<line class="st1" x1="383.662" y1="16.873" x2="389.565" y2="16.873"/>
<line class="st1" x1="0.5" y1="16.873" x2="18" y2="16.873"/>
<line class="st1" x1="0.5" y1="0" x2="0.5" y2="31.164"/>
<line class="st1" x1="389.565" y1="0" x2="389.565" y2="31.164"/>
<line class="st0" x1="27.615" y1="21.954" x2="27.615" y2="13.095"/>
<line class="st0" x1="18.248" y1="13.095" x2="18.248" y2="21.954"/>
<line class="st0" x1="312.277" y1="25.351" x2="312.277" y2="7.634"/>
<g>
	<path d="M295.103,20.434h-0.832v-0.848h0.832V20.434z"/>
	<path d="M298.191,14.693h2.327c1.495,0,2.414,1.135,2.414,2.791c0,1.287-0.56,2.95-2.446,2.95h-2.295V14.693z M298.967,19.77h1.504
		c1.007,0,1.663-0.792,1.663-2.239s-0.664-2.175-1.72-2.175h-1.447V19.77z"/>
</g>
<g>
	<g>
		<path d="M328.167,16.135c-0.039-0.887-0.775-1.167-1.423-1.167c-0.487,0-1.312,0.136-1.312,1.007c0,0.488,0.344,0.647,0.68,0.728
			l1.64,0.376c0.743,0.176,1.303,0.624,1.303,1.535c0,1.359-1.263,1.735-2.246,1.735c-1.063,0-1.479-0.32-1.735-0.552
			c-0.488-0.439-0.584-0.919-0.584-1.455h0.728c0,1.04,0.848,1.343,1.583,1.343c0.561,0,1.504-0.144,1.504-0.967
			c0-0.6-0.28-0.792-1.224-1.016l-1.176-0.272c-0.375-0.088-1.223-0.352-1.223-1.351c0-0.896,0.583-1.775,1.975-1.775
			c2.007,0,2.207,1.199,2.239,1.831H328.167z"/>
		<path d="M330.753,20.197h-0.704v-4.182h0.664v0.696h0.016c0.28-0.488,0.648-0.816,1.176-0.816c0.088,0,0.128,0.008,0.184,0.024
			v0.728h-0.264c-0.655,0-1.071,0.512-1.071,1.12V20.197z"/>
		<path d="M335.071,17.422c-0.088-0.56-0.399-0.896-0.991-0.896c-0.871,0-1.151,0.832-1.151,1.575c0,0.719,0.176,1.607,1.144,1.607
			c0.472,0,0.88-0.352,0.999-0.991h0.68c-0.071,0.664-0.479,1.599-1.703,1.599c-1.175,0-1.87-0.888-1.87-2.095
			c0-1.295,0.623-2.327,2.007-2.327c1.095,0,1.511,0.8,1.566,1.527H335.071z"/>
	</g>
</g>
<g>
	<g>
		<path d="M360.29,14.456h2.327c1.495,0,2.414,1.135,2.414,2.791c0,1.287-0.56,2.95-2.446,2.95h-2.295V14.456z M361.065,19.533
			h1.504c1.007,0,1.663-0.792,1.663-2.239s-0.664-2.175-1.72-2.175h-1.447V19.533z"/>
		<path d="M368.313,17.207c-0.008-0.264-0.104-0.704-0.991-0.704c-0.216,0-0.832,0.072-0.832,0.592c0,0.344,0.216,0.423,0.76,0.56
			l0.703,0.176c0.872,0.216,1.176,0.536,1.176,1.104c0,0.863-0.712,1.383-1.655,1.383c-1.655,0-1.774-0.959-1.799-1.463h0.68
			c0.023,0.328,0.12,0.855,1.111,0.855c0.504,0,0.959-0.2,0.959-0.664c0-0.336-0.231-0.448-0.831-0.6l-0.815-0.2
			c-0.584-0.144-0.968-0.44-0.968-1.016c0-0.919,0.76-1.335,1.583-1.335c1.495,0,1.6,1.104,1.6,1.312H368.313z"/>
		<path d="M370.802,16.599v2.719c0,0.328,0.28,0.328,0.424,0.328h0.248v0.552c-0.256,0.024-0.455,0.056-0.527,0.056
			c-0.695,0-0.848-0.392-0.848-0.896v-2.759h-0.567v-0.583h0.567v-1.167h0.703v1.167h0.672v0.583H370.802z"/>
	</g>
</g>
<polyline class="st2" points="282.322,68.556 330.308,68.556 330.308,25.524 "/>
<polyline class="st2" points="282.322,107.306 365.596,107.306 365.596,25.732 "/>
<g>
	<path d="M169.532,51.702v-5.029h0.616v1.828h0.014c0.267-0.385,0.631-0.561,1.058-0.567c0.974,0,1.527,0.798,1.527,1.828
		c0,0.875-0.364,2.045-1.611,2.045c-0.623,0-0.882-0.357-1.008-0.56h-0.015v0.455H169.532z M171.108,48.487
		c-0.89,0-0.988,0.959-0.988,1.555c0,0.973,0.609,1.232,1.002,1.232c0.672,0,0.987-0.609,0.987-1.415
		C172.109,49.391,172.061,48.487,171.108,48.487z"/>
	<path d="M173.487,47.374v-0.701h0.616v0.701H173.487z M174.103,51.702h-0.616v-3.663h0.616V51.702z"/>
	<path d="M175.784,48.55v2.381c0,0.287,0.245,0.287,0.371,0.287h0.217v0.483c-0.224,0.021-0.399,0.049-0.462,0.049
		c-0.609,0-0.742-0.343-0.742-0.784V48.55h-0.498v-0.511h0.498v-1.022h0.616v1.022h0.588v0.511H175.784z"/>
	<path d="M171.585,57.952h-0.658v-3.495h-1.149v-0.49c0.799-0.056,1.128-0.133,1.324-0.938h0.483V57.952z"/>
	<path d="M173.712,55.087c0.21-0.161,0.512-0.308,0.953-0.308c0.798,0,1.617,0.561,1.617,1.576c0,0.546-0.245,1.73-1.785,1.73
		c-0.645,0-1.472-0.259-1.59-1.359h0.637c0.063,0.574,0.49,0.826,1.044,0.826c0.637,0,1.036-0.511,1.036-1.127
		c0-0.708-0.483-1.093-1.093-1.093c-0.356,0-0.679,0.168-0.91,0.469l-0.532-0.028l0.371-2.64h2.55v0.602h-2.088L173.712,55.087z"/>
</g>
<g>
	<path d="M275.318,51.702v-5.029h0.616v1.828h0.014c0.267-0.385,0.631-0.561,1.058-0.567c0.974,0,1.527,0.798,1.527,1.828
		c0,0.875-0.364,2.045-1.611,2.045c-0.623,0-0.882-0.357-1.008-0.56h-0.015v0.455H275.318z M276.894,48.487
		c-0.89,0-0.988,0.959-0.988,1.555c0,0.973,0.609,1.232,1.002,1.232c0.672,0,0.987-0.609,0.987-1.415
		C277.895,49.391,277.847,48.487,276.894,48.487z"/>
	<path d="M279.273,47.374v-0.701h0.616v0.701H279.273z M279.89,51.702h-0.616v-3.663h0.616V51.702z"/>
	<path d="M281.57,48.55v2.381c0,0.287,0.245,0.287,0.371,0.287h0.217v0.483c-0.224,0.021-0.399,0.049-0.462,0.049
		c-0.609,0-0.742-0.343-0.742-0.784V48.55h-0.498v-0.511h0.498v-1.022h0.616v1.022h0.588v0.511H281.57z"/>
	<path d="M278.609,58.086c-1.415,0-1.688-1.506-1.688-2.529c0-1.022,0.273-2.528,1.688-2.528s1.688,1.506,1.688,2.528
		C280.297,56.58,280.024,58.086,278.609,58.086z M278.609,53.582c-0.708,0-1.029,0.742-1.029,1.975c0,1.233,0.321,1.975,1.029,1.975
		c0.707,0,1.029-0.742,1.029-1.975C279.639,54.324,279.316,53.582,278.609,53.582z"/>
</g>
<rect x="169.511" y="59.236" class="st3" width="7.09" height="17.5"/>
<rect x="183.495" y="59.236" class="st3" width="7.09" height="17.5"/>
<rect x="197.621" y="59.236" class="st3" width="7.09" height="17.5"/>
<rect x="211.676" y="59.236" class="st3" width="7.09" height="17.5"/>
<rect x="225.731" y="59.236" class="st3" width="7.09" height="17.5"/>
<rect x="239.857" y="59.236" class="st3" width="7.09" height="17.5"/>
<rect x="253.912" y="59.236" class="st3" width="7.09" height="17.5"/>
<rect x="267.968" y="59.236" class="st3" width="7.09" height="17.5"/>
<rect x="176.52" y="97.83" class="st3" width="7.09" height="17.5"/>
<rect x="190.504" y="97.83" class="st3" width="7.09" height="17.5"/>
<rect x="204.63" y="97.83" class="st3" width="7.09" height="17.5"/>
<rect x="218.685" y="97.83" class="st3" width="7.09" height="17.5"/>
<rect x="232.74" y="97.83" class="st3" width="7.09" height="17.5"/>
<rect x="246.866" y="97.83" class="st3" width="7.09" height="17.5"/>
<rect x="260.922" y="97.83" class="st3" width="7.09" height="17.5"/>
<rect x="274.977" y="97.83" class="st3" width="7.09" height="17.5"/>
<rect x="169.443" y="59.257" class="st4" width="112.871" height="17.717"/>
<line class="st4" x1="267.982" y1="72.388" x2="267.982" y2="76.555"/>
<line class="st4" x1="267.982" y1="59.471" x2="267.982" y2="63.638"/>
<line class="st4" x1="275.067" y1="72.388" x2="275.067" y2="76.555"/>
<line class="st4" x1="275.067" y1="59.471" x2="275.067" y2="63.638"/>
<line class="st4" x1="253.912" y1="72.388" x2="253.912" y2="76.555"/>
<line class="st4" x1="253.912" y1="59.471" x2="253.912" y2="63.638"/>
<line class="st4" x1="261" y1="72.388" x2="261" y2="76.555"/>
<line class="st4" x1="261" y1="59.471" x2="261" y2="63.638"/>
<line class="st4" x1="239.845" y1="72.388" x2="239.845" y2="76.555"/>
<line class="st4" x1="239.845" y1="59.471" x2="239.845" y2="63.638"/>
<line class="st4" x1="246.93" y1="72.388" x2="246.93" y2="76.555"/>
<line class="st4" x1="246.93" y1="59.471" x2="246.93" y2="63.638"/>
<line class="st4" x1="225.757" y1="72.388" x2="225.757" y2="76.555"/>
<line class="st4" x1="225.757" y1="59.471" x2="225.757" y2="63.638"/>
<line class="st4" x1="232.858" y1="72.388" x2="232.858" y2="76.555"/>
<line class="st4" x1="232.858" y1="59.471" x2="232.858" y2="63.638"/>
<line class="st4" x1="211.675" y1="72.388" x2="211.675" y2="76.555"/>
<line class="st4" x1="211.675" y1="59.471" x2="211.675" y2="63.638"/>
<line class="st4" x1="218.762" y1="72.388" x2="218.762" y2="76.555"/>
<line class="st4" x1="218.762" y1="59.471" x2="218.762" y2="63.638"/>
<line class="st4" x1="197.605" y1="72.388" x2="197.605" y2="76.555"/>
<line class="st4" x1="197.605" y1="59.471" x2="197.605" y2="63.638"/>
<line class="st4" x1="204.693" y1="72.388" x2="204.693" y2="76.555"/>
<line class="st4" x1="204.693" y1="59.471" x2="204.693" y2="63.638"/>
<line class="st4" x1="183.538" y1="72.388" x2="183.538" y2="76.555"/>
<line class="st4" x1="183.538" y1="59.471" x2="183.538" y2="63.638"/>
<line class="st4" x1="190.623" y1="72.388" x2="190.623" y2="76.555"/>
<line class="st4" x1="190.623" y1="59.471" x2="190.623" y2="63.638"/>
<line class="st4" x1="176.555" y1="72.388" x2="176.555" y2="76.555"/>
<line class="st4" x1="176.555" y1="59.471" x2="176.555" y2="63.638"/>
<line class="st1" x1="169.124" y1="76.974" x2="281.783" y2="76.974"/>
<line class="st1" x1="282.314" y1="76.974" x2="282.314" y2="59.257"/>
<g>
	<g>
		<path d="M173.851,71.478h-0.762v-4.043h-1.329v-0.567c0.924-0.065,1.305-0.154,1.531-1.085h0.56V71.478z"/>
		<path d="M180.192,71.632c-1.637,0-1.953-1.742-1.953-2.925s0.316-2.925,1.953-2.925c1.636,0,1.952,1.742,1.952,2.925
			S181.828,71.632,180.192,71.632z M180.192,66.422c-0.818,0-1.191,0.859-1.191,2.285c0,1.426,0.373,2.285,1.191,2.285
			s1.19-0.859,1.19-2.285C181.383,67.281,181.011,66.422,180.192,66.422z"/>
		<path d="M187.848,71.478h-0.762v-4.043h-1.329v-0.567c0.924-0.065,1.305-0.154,1.531-1.085h0.56V71.478z"/>
		<path d="M194.189,71.632c-1.637,0-1.953-1.742-1.953-2.925s0.316-2.925,1.953-2.925s1.952,1.742,1.952,2.925
			S195.826,71.632,194.189,71.632z M194.189,66.422c-0.818,0-1.191,0.859-1.191,2.285c0,1.426,0.373,2.285,1.191,2.285
			s1.19-0.859,1.19-2.285C195.38,67.281,195.008,66.422,194.189,66.422z"/>
		<path d="M201.844,71.478h-0.762v-4.043h-1.329v-0.567c0.924-0.065,1.305-0.154,1.531-1.085h0.56V71.478z"/>
		<path d="M208.186,71.632c-1.637,0-1.953-1.742-1.953-2.925s0.316-2.925,1.953-2.925c1.636,0,1.952,1.742,1.952,2.925
			S209.822,71.632,208.186,71.632z M208.186,66.422c-0.818,0-1.191,0.859-1.191,2.285c0,1.426,0.373,2.285,1.191,2.285
			s1.19-0.859,1.19-2.285C209.377,67.281,209.005,66.422,208.186,66.422z"/>
		<path d="M215.841,71.478h-0.762v-4.043h-1.329v-0.567c0.924-0.065,1.305-0.154,1.531-1.085h0.56V71.478z"/>
		<path d="M222.184,71.632c-1.637,0-1.953-1.742-1.953-2.925s0.316-2.925,1.953-2.925s1.952,1.742,1.952,2.925
			S223.82,71.632,222.184,71.632z M222.184,66.422c-0.818,0-1.191,0.859-1.191,2.285c0,1.426,0.373,2.285,1.191,2.285
			s1.19-0.859,1.19-2.285C223.374,67.281,223.002,66.422,222.184,66.422z"/>
		<path d="M229.838,71.478h-0.762v-4.043h-1.329v-0.567c0.924-0.065,1.305-0.154,1.531-1.085h0.56V71.478z"/>
		<path d="M236.18,71.632c-1.637,0-1.953-1.742-1.953-2.925s0.316-2.925,1.953-2.925s1.952,1.742,1.952,2.925
			S237.816,71.632,236.18,71.632z M236.18,66.422c-0.818,0-1.191,0.859-1.191,2.285c0,1.426,0.373,2.285,1.191,2.285
			s1.19-0.859,1.19-2.285C237.37,67.281,236.998,66.422,236.18,66.422z"/>
		<path d="M243.835,71.478h-0.762v-4.043h-1.329v-0.567c0.924-0.065,1.305-0.154,1.531-1.085h0.56V71.478z"/>
		<path d="M250.177,71.632c-1.637,0-1.953-1.742-1.953-2.925s0.316-2.925,1.953-2.925c1.636,0,1.952,1.742,1.952,2.925
			S251.812,71.632,250.177,71.632z M250.177,66.422c-0.818,0-1.191,0.859-1.191,2.285c0,1.426,0.373,2.285,1.191,2.285
			s1.19-0.859,1.19-2.285C251.367,67.281,250.995,66.422,250.177,66.422z"/>
		<path d="M257.831,71.478h-0.762v-4.043h-1.329v-0.567c0.924-0.065,1.305-0.154,1.531-1.085h0.56V71.478z"/>
		<path d="M264.174,71.632c-1.637,0-1.953-1.742-1.953-2.925s0.316-2.925,1.953-2.925s1.952,1.742,1.952,2.925
			S265.81,71.632,264.174,71.632z M264.174,66.422c-0.818,0-1.191,0.859-1.191,2.285c0,1.426,0.373,2.285,1.191,2.285
			s1.19-0.859,1.19-2.285C265.364,67.281,264.992,66.422,264.174,66.422z"/>
		<path d="M271.828,71.478h-0.762v-4.043h-1.329v-0.567c0.924-0.065,1.305-0.154,1.531-1.085h0.56V71.478z"/>
		<path d="M278.17,71.632c-1.637,0-1.953-1.742-1.953-2.925s0.316-2.925,1.953-2.925s1.952,1.742,1.952,2.925
			S279.807,71.632,278.17,71.632z M278.17,66.422c-0.818,0-1.191,0.859-1.191,2.285c0,1.426,0.373,2.285,1.191,2.285
			s1.19-0.859,1.19-2.285C279.36,67.281,278.988,66.422,278.17,66.422z"/>
	</g>
</g>
<g>
	<path d="M275.318,90.628v-5.029h0.616v1.828h0.014c0.267-0.385,0.631-0.561,1.058-0.567c0.974,0,1.527,0.798,1.527,1.828
		c0,0.875-0.364,2.045-1.611,2.045c-0.623,0-0.882-0.357-1.008-0.56h-0.015v0.455H275.318z M276.894,87.413
		c-0.89,0-0.988,0.959-0.988,1.555c0,0.973,0.609,1.232,1.002,1.232c0.672,0,0.987-0.609,0.987-1.415
		C277.895,88.317,277.847,87.413,276.894,87.413z"/>
	<path d="M279.273,86.3v-0.701h0.616V86.3H279.273z M279.89,90.628h-0.616v-3.663h0.616V90.628z"/>
	<path d="M281.57,87.476v2.381c0,0.287,0.245,0.287,0.371,0.287h0.217v0.483c-0.224,0.021-0.399,0.049-0.462,0.049
		c-0.609,0-0.742-0.343-0.742-0.784v-2.417h-0.498v-0.511h0.498v-1.022h0.616v1.022h0.588v0.511H281.57z"/>
	<path d="M278.609,97.011c-1.415,0-1.688-1.506-1.688-2.529c0-1.022,0.273-2.528,1.688-2.528s1.688,1.506,1.688,2.528
		C280.297,95.505,280.024,97.011,278.609,97.011z M278.609,92.508c-0.708,0-1.029,0.742-1.029,1.975
		c0,1.233,0.321,1.975,1.029,1.975c0.707,0,1.029-0.742,1.029-1.975C279.639,93.25,279.316,92.508,278.609,92.508z"/>
</g>
<rect x="169.443" y="98.183" class="st4" width="112.871" height="17.717"/>
<line class="st4" x1="267.982" y1="111.313" x2="267.982" y2="115.481"/>
<line class="st4" x1="267.982" y1="98.397" x2="267.982" y2="102.564"/>
<line class="st4" x1="275.067" y1="111.313" x2="275.067" y2="115.481"/>
<line class="st4" x1="275.067" y1="98.397" x2="275.067" y2="102.564"/>
<line class="st4" x1="253.912" y1="111.313" x2="253.912" y2="115.481"/>
<line class="st4" x1="253.912" y1="98.397" x2="253.912" y2="102.564"/>
<line class="st4" x1="261" y1="111.313" x2="261" y2="115.481"/>
<line class="st4" x1="261" y1="98.397" x2="261" y2="102.564"/>
<line class="st4" x1="239.845" y1="111.313" x2="239.845" y2="115.481"/>
<line class="st4" x1="239.845" y1="98.397" x2="239.845" y2="102.564"/>
<line class="st4" x1="246.93" y1="111.313" x2="246.93" y2="115.481"/>
<line class="st4" x1="246.93" y1="98.397" x2="246.93" y2="102.564"/>
<line class="st4" x1="225.757" y1="111.313" x2="225.757" y2="115.481"/>
<line class="st4" x1="225.757" y1="98.397" x2="225.757" y2="102.564"/>
<line class="st4" x1="232.858" y1="111.313" x2="232.858" y2="115.481"/>
<line class="st4" x1="232.858" y1="98.397" x2="232.858" y2="102.564"/>
<line class="st4" x1="211.675" y1="111.313" x2="211.675" y2="115.481"/>
<line class="st4" x1="211.675" y1="98.397" x2="211.675" y2="102.564"/>
<line class="st4" x1="218.762" y1="111.313" x2="218.762" y2="115.481"/>
<line class="st4" x1="218.762" y1="98.397" x2="218.762" y2="102.564"/>
<line class="st4" x1="197.605" y1="111.313" x2="197.605" y2="115.481"/>
<line class="st4" x1="197.605" y1="98.397" x2="197.605" y2="102.564"/>
<line class="st4" x1="204.693" y1="111.313" x2="204.693" y2="115.481"/>
<line class="st4" x1="204.693" y1="98.397" x2="204.693" y2="102.564"/>
<line class="st4" x1="183.538" y1="111.313" x2="183.538" y2="115.481"/>
<line class="st4" x1="183.538" y1="98.397" x2="183.538" y2="102.564"/>
<line class="st4" x1="190.623" y1="111.313" x2="190.623" y2="115.481"/>
<line class="st4" x1="190.623" y1="98.397" x2="190.623" y2="102.564"/>
<line class="st4" x1="176.555" y1="111.313" x2="176.555" y2="115.481"/>
<line class="st4" x1="176.555" y1="98.397" x2="176.555" y2="102.564"/>
<line class="st1" x1="169.124" y1="115.9" x2="281.783" y2="115.9"/>
<line class="st1" x1="282.314" y1="115.9" x2="282.314" y2="98.183"/>
<g>
	<g>
		<path d="M173.194,110.558c-1.637,0-1.953-1.742-1.953-2.925s0.316-2.925,1.953-2.925c1.636,0,1.952,1.742,1.952,2.925
			S174.83,110.558,173.194,110.558z M173.194,105.348c-0.818,0-1.191,0.859-1.191,2.285c0,1.426,0.373,2.285,1.191,2.285
			s1.19-0.859,1.19-2.285C174.385,106.207,174.013,105.348,173.194,105.348z"/>
		<path d="M180.849,110.404h-0.762v-4.043h-1.329v-0.567c0.924-0.065,1.305-0.154,1.531-1.085h0.56V110.404z"/>
		<path d="M187.191,110.558c-1.637,0-1.953-1.742-1.953-2.925s0.316-2.925,1.953-2.925s1.952,1.742,1.952,2.925
			S188.828,110.558,187.191,110.558z M187.191,105.348c-0.818,0-1.191,0.859-1.191,2.285c0,1.426,0.373,2.285,1.191,2.285
			s1.19-0.859,1.19-2.285C188.382,106.207,188.01,105.348,187.191,105.348z"/>
		<path d="M194.846,110.404h-0.762v-4.043h-1.329v-0.567c0.924-0.065,1.305-0.154,1.531-1.085h0.56V110.404z"/>
		<path d="M201.187,110.558c-1.637,0-1.953-1.742-1.953-2.925s0.316-2.925,1.953-2.925s1.952,1.742,1.952,2.925
			S202.824,110.558,201.187,110.558z M201.187,105.348c-0.818,0-1.191,0.859-1.191,2.285c0,1.426,0.373,2.285,1.191,2.285
			s1.19-0.859,1.19-2.285C202.378,106.207,202.006,105.348,201.187,105.348z"/>
		<path d="M208.843,110.404h-0.762v-4.043h-1.329v-0.567c0.924-0.065,1.305-0.154,1.531-1.085h0.56V110.404z"/>
		<path d="M215.185,110.558c-1.637,0-1.953-1.742-1.953-2.925s0.316-2.925,1.953-2.925c1.636,0,1.952,1.742,1.952,2.925
			S216.82,110.558,215.185,110.558z M215.185,105.348c-0.818,0-1.191,0.859-1.191,2.285c0,1.426,0.373,2.285,1.191,2.285
			s1.19-0.859,1.19-2.285C216.375,106.207,216.003,105.348,215.185,105.348z"/>
		<path d="M222.84,110.404h-0.762v-4.043h-1.329v-0.567c0.924-0.065,1.305-0.154,1.531-1.085h0.56V110.404z"/>
		<path d="M229.182,110.558c-1.637,0-1.953-1.742-1.953-2.925s0.316-2.925,1.953-2.925s1.952,1.742,1.952,2.925
			S230.818,110.558,229.182,110.558z M229.182,105.348c-0.818,0-1.191,0.859-1.191,2.285c0,1.426,0.373,2.285,1.191,2.285
			s1.19-0.859,1.19-2.285C230.372,106.207,230,105.348,229.182,105.348z"/>
		<path d="M236.836,110.404h-0.762v-4.043h-1.329v-0.567c0.924-0.065,1.305-0.154,1.531-1.085h0.56V110.404z"/>
		<path d="M243.179,110.558c-1.637,0-1.953-1.742-1.953-2.925s0.316-2.925,1.953-2.925c1.636,0,1.952,1.742,1.952,2.925
			S244.814,110.558,243.179,110.558z M243.179,105.348c-0.818,0-1.191,0.859-1.191,2.285c0,1.426,0.373,2.285,1.191,2.285
			s1.19-0.859,1.19-2.285C244.369,106.207,243.997,105.348,243.179,105.348z"/>
		<path d="M250.833,110.404h-0.762v-4.043h-1.329v-0.567c0.924-0.065,1.305-0.154,1.531-1.085h0.56V110.404z"/>
		<path d="M257.175,110.558c-1.637,0-1.953-1.742-1.953-2.925s0.316-2.925,1.953-2.925c1.636,0,1.952,1.742,1.952,2.925
			S258.81,110.558,257.175,110.558z M257.175,105.348c-0.818,0-1.191,0.859-1.191,2.285c0,1.426,0.373,2.285,1.191,2.285
			s1.19-0.859,1.19-2.285C258.365,106.207,257.993,105.348,257.175,105.348z"/>
		<path d="M264.83,110.404h-0.762v-4.043h-1.329v-0.567c0.924-0.065,1.305-0.154,1.531-1.085h0.56V110.404z"/>
		<path d="M271.172,110.558c-1.637,0-1.953-1.742-1.953-2.925s0.316-2.925,1.953-2.925s1.952,1.742,1.952,2.925
			S272.809,110.558,271.172,110.558z M271.172,105.348c-0.818,0-1.191,0.859-1.191,2.285c0,1.426,0.373,2.285,1.191,2.285
			s1.19-0.859,1.19-2.285C272.362,106.207,271.99,105.348,271.172,105.348z"/>
		<path d="M278.826,110.404h-0.762v-4.043h-1.329v-0.567c0.924-0.065,1.305-0.154,1.531-1.085h0.56V110.404z"/>
	</g>
</g>
<polygon points="166.095,85.055 169.523,91.075 172.943,85.055 "/>
<g>
	<g>
		<path d="M30.902,67.318c-0.04-0.887-0.775-1.167-1.423-1.167c-0.488,0-1.311,0.136-1.311,1.007c0,0.488,0.344,0.647,0.68,0.728
			l1.639,0.376c0.744,0.176,1.304,0.624,1.304,1.535c0,1.359-1.264,1.735-2.247,1.735c-1.063,0-1.479-0.32-1.735-0.552
			c-0.488-0.439-0.584-0.919-0.584-1.455h0.728c0,1.04,0.847,1.343,1.583,1.343c0.56,0,1.503-0.144,1.503-0.967
			c0-0.6-0.28-0.792-1.223-1.016l-1.175-0.272c-0.376-0.088-1.224-0.352-1.224-1.351c0-0.896,0.584-1.775,1.975-1.775
			c2.007,0,2.207,1.199,2.239,1.831H30.902z"/>
		<path d="M33.488,71.38h-0.704v-4.182h0.664v0.696h0.016c0.28-0.488,0.647-0.816,1.175-0.816c0.088,0,0.128,0.008,0.184,0.024
			v0.728h-0.264c-0.656,0-1.071,0.512-1.071,1.12V71.38z"/>
		<path d="M37.807,68.606c-0.088-0.56-0.4-0.896-0.991-0.896c-0.872,0-1.151,0.832-1.151,1.575c0,0.719,0.176,1.607,1.143,1.607
			c0.472,0,0.879-0.352,1-0.991h0.68c-0.072,0.664-0.48,1.599-1.703,1.599c-1.175,0-1.871-0.888-1.871-2.095
			c0-1.295,0.624-2.327,2.007-2.327c1.096,0,1.511,0.8,1.567,1.527H37.807z"/>
	</g>
	<g>
		<path d="M43.882,67.343h0.583v1.727h1.727v0.583h-1.727v1.727h-0.583v-1.727h-1.735V69.07h1.735V67.343z"/>
		<path d="M49.377,71.38h-0.752v-3.99h-1.311v-0.56c0.912-0.064,1.287-0.152,1.511-1.072h0.552V71.38z"/>
	</g>
</g>
<g>
	<g>
		<path d="M27.4,104.566h2.327c1.496,0,2.415,1.135,2.415,2.791c0,1.287-0.56,2.95-2.447,2.95H27.4V104.566z M28.176,109.643h1.503
			c1.008,0,1.663-0.792,1.663-2.239s-0.664-2.175-1.719-2.175h-1.447V109.643z"/>
		<path d="M35.423,107.316c-0.008-0.264-0.104-0.704-0.992-0.704c-0.216,0-0.832,0.072-0.832,0.592c0,0.344,0.216,0.423,0.76,0.56
			l0.704,0.176c0.872,0.216,1.175,0.536,1.175,1.104c0,0.863-0.711,1.383-1.655,1.383c-1.655,0-1.775-0.959-1.799-1.463h0.68
			c0.024,0.328,0.12,0.855,1.111,0.855c0.504,0,0.959-0.2,0.959-0.664c0-0.336-0.232-0.448-0.832-0.6l-0.815-0.2
			c-0.584-0.144-0.968-0.44-0.968-1.016c0-0.919,0.76-1.335,1.583-1.335c1.495,0,1.599,1.104,1.599,1.312H35.423z"/>
		<path d="M37.912,106.708v2.719c0,0.328,0.28,0.328,0.424,0.328h0.248v0.552c-0.256,0.024-0.456,0.056-0.527,0.056
			c-0.696,0-0.848-0.392-0.848-0.896v-2.759H36.64v-0.583h0.568v-1.167h0.704v1.167h0.671v0.583H37.912z"/>
	</g>
	<g>
		<path d="M43.882,106.269h0.583v1.727h1.727v0.583h-1.727v1.727h-0.583v-1.727h-1.735v-0.583h1.735V106.269z"/>
		<path d="M49.377,110.306h-0.752v-3.99h-1.311v-0.56c0.912-0.064,1.287-0.152,1.511-1.072h0.552V110.306z"/>
	</g>
</g>
<g>
	<path d="M56.661,51.702v-5.029h0.616v1.828h0.014c0.266-0.385,0.63-0.561,1.058-0.567c0.974,0,1.527,0.798,1.527,1.828
		c0,0.875-0.364,2.045-1.611,2.045c-0.624,0-0.883-0.357-1.009-0.56h-0.014v0.455H56.661z M58.237,48.487
		c-0.889,0-0.987,0.959-0.987,1.555c0,0.973,0.609,1.232,1.001,1.232c0.672,0,0.987-0.609,0.987-1.415
		C59.238,49.391,59.189,48.487,58.237,48.487z"/>
	<path d="M60.616,47.374v-0.701h0.616v0.701H60.616z M61.232,51.702h-0.616v-3.663h0.616V51.702z"/>
	<path d="M62.912,48.55v2.381c0,0.287,0.245,0.287,0.372,0.287H63.5v0.483c-0.224,0.021-0.399,0.049-0.462,0.049
		c-0.609,0-0.743-0.343-0.743-0.784V48.55h-0.497v-0.511h0.497v-1.022h0.616v1.022H63.5v0.511H62.912z"/>
	<path d="M57.627,55.15c0.105,0.007,0.217,0.014,0.322,0.014c0.476,0,0.938-0.189,0.938-0.805c0-0.294-0.175-0.777-0.911-0.777
		c-0.875,0-0.932,0.714-0.959,1.057h-0.602c0-0.721,0.294-1.611,1.59-1.611c0.952,0,1.52,0.546,1.52,1.296
		c0,0.63-0.364,0.932-0.63,1.016v0.014c0.477,0.154,0.819,0.491,0.819,1.149c0,0.805-0.518,1.583-1.772,1.583
		c-0.364,0-0.672-0.091-0.91-0.217c-0.546-0.287-0.693-0.854-0.735-1.422h0.637c0.021,0.462,0.133,1.085,1.051,1.085
		c0.63,0,1.071-0.385,1.071-0.952c0-0.827-0.729-0.904-1.148-0.904c-0.091,0-0.189,0.007-0.28,0.007V55.15z"/>
	<path d="M62.465,57.952h-0.658v-3.495h-1.148v-0.49c0.798-0.056,1.127-0.133,1.324-0.938h0.483V57.952z"/>
</g>
<g>
	<path d="M161.704,51.702v-5.029h0.616v1.828h0.014c0.267-0.385,0.631-0.561,1.058-0.567c0.974,0,1.527,0.798,1.527,1.828
		c0,0.875-0.364,2.045-1.611,2.045c-0.623,0-0.882-0.357-1.008-0.56h-0.015v0.455H161.704z M163.28,48.487
		c-0.89,0-0.988,0.959-0.988,1.555c0,0.973,0.609,1.232,1.002,1.232c0.672,0,0.987-0.609,0.987-1.415
		C164.281,49.391,164.232,48.487,163.28,48.487z"/>
	<path d="M165.659,47.374v-0.701h0.616v0.701H165.659z M166.275,51.702h-0.616v-3.663h0.616V51.702z"/>
	<path d="M167.956,48.55v2.381c0,0.287,0.245,0.287,0.371,0.287h0.217v0.483c-0.224,0.021-0.399,0.049-0.462,0.049
		c-0.609,0-0.742-0.343-0.742-0.784V48.55h-0.498v-0.511h0.498v-1.022h0.616v1.022h0.588v0.511H167.956z"/>
	<path d="M163.757,57.952h-0.658v-3.495h-1.149v-0.49c0.799-0.056,1.128-0.133,1.324-0.938h0.483V57.952z"/>
	<path d="M167.775,54.338c-0.077-0.435-0.315-0.756-0.848-0.756c-0.967,0-1.17,1.302-1.17,1.821l0.015,0.014
		c0.153-0.267,0.497-0.603,1.169-0.603c0.603,0,1.541,0.385,1.541,1.562c0,0.504-0.133,0.868-0.469,1.232
		c-0.26,0.287-0.554,0.477-1.247,0.477c-0.378,0-0.918-0.168-1.268-0.715c-0.294-0.462-0.378-1.064-0.378-1.708
		c0-1.079,0.35-2.634,1.82-2.634c0.567,0,1.373,0.308,1.436,1.31H167.775z M166.879,57.532c0.588,0,0.966-0.462,0.966-1.127
		c0-0.434-0.23-1.037-0.994-1.037c-0.68,0-1.009,0.49-1.009,1.072C165.842,56.965,166.157,57.532,166.879,57.532z"/>
</g>
<rect x="56.426" y="59.236" class="st3" width="28.362" height="17.5"/>
<rect x="112.832" y="59.236" class="st3" width="28.255" height="17.5"/>
<rect x="56.571" y="59.257" class="st4" width="112.872" height="17.717"/>
<line class="st4" x1="155.111" y1="72.388" x2="155.111" y2="76.555"/>
<line class="st4" x1="155.111" y1="59.471" x2="155.111" y2="63.638"/>
<line class="st4" x1="162.195" y1="72.388" x2="162.195" y2="76.555"/>
<line class="st4" x1="162.195" y1="59.471" x2="162.195" y2="63.638"/>
<line class="st4" x1="141.041" y1="72.388" x2="141.041" y2="76.555"/>
<line class="st4" x1="141.041" y1="59.471" x2="141.041" y2="63.638"/>
<line class="st4" x1="148.128" y1="72.388" x2="148.128" y2="76.555"/>
<line class="st4" x1="148.128" y1="59.471" x2="148.128" y2="63.638"/>
<line class="st4" x1="126.973" y1="72.388" x2="126.973" y2="76.555"/>
<line class="st4" x1="126.973" y1="59.471" x2="126.973" y2="63.638"/>
<line class="st4" x1="134.058" y1="72.388" x2="134.058" y2="76.555"/>
<line class="st4" x1="134.058" y1="59.471" x2="134.058" y2="63.638"/>
<line class="st4" x1="112.886" y1="72.388" x2="112.886" y2="76.555"/>
<line class="st4" x1="112.886" y1="59.471" x2="112.886" y2="63.638"/>
<line class="st4" x1="119.986" y1="72.388" x2="119.986" y2="76.555"/>
<line class="st4" x1="119.986" y1="59.471" x2="119.986" y2="63.638"/>
<line class="st4" x1="98.804" y1="72.388" x2="98.804" y2="76.555"/>
<line class="st4" x1="98.804" y1="59.471" x2="98.804" y2="63.638"/>
<line class="st4" x1="105.891" y1="72.388" x2="105.891" y2="76.555"/>
<line class="st4" x1="105.891" y1="59.471" x2="105.891" y2="63.638"/>
<line class="st4" x1="84.734" y1="72.388" x2="84.734" y2="76.555"/>
<line class="st4" x1="84.734" y1="59.471" x2="84.734" y2="63.638"/>
<line class="st4" x1="91.821" y1="72.388" x2="91.821" y2="76.555"/>
<line class="st4" x1="91.821" y1="59.471" x2="91.821" y2="63.638"/>
<line class="st4" x1="70.667" y1="72.388" x2="70.667" y2="76.555"/>
<line class="st4" x1="70.667" y1="59.471" x2="70.667" y2="63.638"/>
<line class="st4" x1="77.751" y1="72.388" x2="77.751" y2="76.555"/>
<line class="st4" x1="77.751" y1="59.471" x2="77.751" y2="63.638"/>
<line class="st4" x1="63.684" y1="72.388" x2="63.684" y2="76.555"/>
<line class="st4" x1="63.684" y1="59.471" x2="63.684" y2="63.638"/>
<line class="st1" x1="56.252" y1="76.974" x2="169.231" y2="76.974"/>
<g>
	<g>
		<path d="M60.978,71.478h-0.762v-4.043h-1.329v-0.567c0.924-0.065,1.305-0.154,1.531-1.085h0.559V71.478z"/>
		<path d="M67.977,71.478h-0.762v-4.043h-1.329v-0.567c0.924-0.065,1.305-0.154,1.531-1.085h0.559V71.478z"/>
		<path d="M74.975,71.478h-0.762v-4.043h-1.329v-0.567c0.924-0.065,1.305-0.154,1.531-1.085h0.559V71.478z"/>
		<path d="M81.974,71.478h-0.762v-4.043h-1.329v-0.567c0.924-0.065,1.305-0.154,1.531-1.085h0.559V71.478z"/>
		<path d="M88.316,71.632c-1.637,0-1.953-1.742-1.953-2.925s0.316-2.925,1.953-2.925s1.953,1.742,1.953,2.925
			S89.953,71.632,88.316,71.632z M88.316,66.422c-0.818,0-1.191,0.859-1.191,2.285c0,1.426,0.373,2.285,1.191,2.285
			s1.191-0.859,1.191-2.285C89.507,67.281,89.134,66.422,88.316,66.422z"/>
		<path d="M95.314,71.632c-1.637,0-1.953-1.742-1.953-2.925s0.316-2.925,1.953-2.925s1.953,1.742,1.953,2.925
			S96.951,71.632,95.314,71.632z M95.314,66.422c-0.818,0-1.191,0.859-1.191,2.285c0,1.426,0.373,2.285,1.191,2.285
			s1.191-0.859,1.191-2.285C96.505,67.281,96.133,66.422,95.314,66.422z"/>
		<path d="M102.312,71.632c-1.637,0-1.953-1.742-1.953-2.925s0.316-2.925,1.953-2.925s1.953,1.742,1.953,2.925
			S103.949,71.632,102.312,71.632z M102.312,66.422c-0.818,0-1.191,0.859-1.191,2.285c0,1.426,0.373,2.285,1.191,2.285
			s1.191-0.859,1.191-2.285C103.503,67.281,103.131,66.422,102.312,66.422z"/>
		<path d="M109.311,71.632c-1.637,0-1.953-1.742-1.953-2.925s0.316-2.925,1.953-2.925s1.953,1.742,1.953,2.925
			S110.948,71.632,109.311,71.632z M109.311,66.422c-0.818,0-1.191,0.859-1.191,2.285c0,1.426,0.373,2.285,1.191,2.285
			s1.191-0.859,1.191-2.285C110.502,67.281,110.129,66.422,109.311,66.422z"/>
		<path d="M116.966,71.478h-0.762v-4.043h-1.329v-0.567c0.924-0.065,1.305-0.154,1.531-1.085h0.559V71.478z"/>
		<path d="M123.964,71.478h-0.762v-4.043h-1.329v-0.567c0.924-0.065,1.305-0.154,1.531-1.085h0.559V71.478z"/>
		<path d="M130.962,71.478h-0.762v-4.043h-1.329v-0.567c0.924-0.065,1.305-0.154,1.531-1.085h0.559V71.478z"/>
		<path d="M137.961,71.478h-0.762v-4.043h-1.329v-0.567c0.924-0.065,1.305-0.154,1.531-1.085h0.559V71.478z"/>
		<path d="M144.303,71.632c-1.637,0-1.953-1.742-1.953-2.925s0.316-2.925,1.953-2.925s1.953,1.742,1.953,2.925
			S145.94,71.632,144.303,71.632z M144.303,66.422c-0.818,0-1.191,0.859-1.191,2.285c0,1.426,0.373,2.285,1.191,2.285
			s1.191-0.859,1.191-2.285C145.494,67.281,145.122,66.422,144.303,66.422z"/>
		<path d="M151.301,71.632c-1.637,0-1.953-1.742-1.953-2.925s0.316-2.925,1.953-2.925s1.953,1.742,1.953,2.925
			S152.938,71.632,151.301,71.632z M151.301,66.422c-0.818,0-1.191,0.859-1.191,2.285c0,1.426,0.373,2.285,1.191,2.285
			s1.191-0.859,1.191-2.285C152.492,67.281,152.12,66.422,151.301,66.422z"/>
		<path d="M158.3,71.632c-1.637,0-1.953-1.742-1.953-2.925s0.316-2.925,1.953-2.925s1.953,1.742,1.953,2.925
			S159.936,71.632,158.3,71.632z M158.3,66.422c-0.818,0-1.191,0.859-1.191,2.285c0,1.426,0.373,2.285,1.191,2.285
			s1.191-0.859,1.191-2.285C159.491,67.281,159.118,66.422,158.3,66.422z"/>
		<path d="M165.299,71.632c-1.637,0-1.953-1.742-1.953-2.925s0.316-2.925,1.953-2.925s1.952,1.742,1.952,2.925
			S166.936,71.632,165.299,71.632z M165.299,66.422c-0.818,0-1.191,0.859-1.191,2.285c0,1.426,0.373,2.285,1.191,2.285
			s1.19-0.859,1.19-2.285C166.489,67.281,166.117,66.422,165.299,66.422z"/>
	</g>
</g>
<g>
	<path d="M56.661,90.628v-5.029h0.616v1.828h0.014c0.266-0.385,0.63-0.561,1.058-0.567c0.974,0,1.527,0.798,1.527,1.828
		c0,0.875-0.364,2.045-1.611,2.045c-0.624,0-0.883-0.357-1.009-0.56h-0.014v0.455H56.661z M58.237,87.413
		c-0.889,0-0.987,0.959-0.987,1.555c0,0.973,0.609,1.232,1.001,1.232c0.672,0,0.987-0.609,0.987-1.415
		C59.238,88.317,59.189,87.413,58.237,87.413z"/>
	<path d="M60.616,86.3v-0.701h0.616V86.3H60.616z M61.232,90.628h-0.616v-3.663h0.616V90.628z"/>
	<path d="M62.912,87.476v2.381c0,0.287,0.245,0.287,0.372,0.287H63.5v0.483c-0.224,0.021-0.399,0.049-0.462,0.049
		c-0.609,0-0.743-0.343-0.743-0.784v-2.417h-0.497v-0.511h0.497v-1.022h0.616v1.022H63.5v0.511H62.912z"/>
	<path d="M57.627,94.076c0.105,0.007,0.217,0.014,0.322,0.014c0.476,0,0.938-0.189,0.938-0.805c0-0.294-0.175-0.777-0.911-0.777
		c-0.875,0-0.932,0.714-0.959,1.057h-0.602c0-0.721,0.294-1.611,1.59-1.611c0.952,0,1.52,0.546,1.52,1.296
		c0,0.63-0.364,0.932-0.63,1.016v0.014c0.477,0.154,0.819,0.491,0.819,1.149c0,0.805-0.518,1.583-1.772,1.583
		c-0.364,0-0.672-0.091-0.91-0.217c-0.546-0.287-0.693-0.854-0.735-1.422h0.637c0.021,0.462,0.133,1.085,1.051,1.085
		c0.63,0,1.071-0.385,1.071-0.952c0-0.827-0.729-0.904-1.148-0.904c-0.091,0-0.189,0.007-0.28,0.007V94.076z"/>
	<path d="M62.465,96.878h-0.658v-3.495h-1.148v-0.49c0.798-0.056,1.127-0.133,1.324-0.938h0.483V96.878z"/>
</g>
<rect x="84.725" y="98.162" class="st3" width="28.185" height="17.5"/>
<rect x="141.011" y="98.162" class="st3" width="28.256" height="17.5"/>
<rect x="56.571" y="98.183" class="st4" width="112.872" height="17.717"/>
<line class="st4" x1="155.111" y1="111.313" x2="155.111" y2="115.481"/>
<line class="st4" x1="155.111" y1="98.397" x2="155.111" y2="102.564"/>
<line class="st4" x1="162.195" y1="111.313" x2="162.195" y2="115.481"/>
<line class="st4" x1="162.195" y1="98.397" x2="162.195" y2="102.564"/>
<line class="st4" x1="141.041" y1="111.313" x2="141.041" y2="115.481"/>
<line class="st4" x1="141.041" y1="98.397" x2="141.041" y2="102.564"/>
<line class="st4" x1="148.128" y1="111.313" x2="148.128" y2="115.481"/>
<line class="st4" x1="148.128" y1="98.397" x2="148.128" y2="102.564"/>
<line class="st4" x1="126.973" y1="111.313" x2="126.973" y2="115.481"/>
<line class="st4" x1="126.973" y1="98.397" x2="126.973" y2="102.564"/>
<line class="st4" x1="134.058" y1="111.313" x2="134.058" y2="115.481"/>
<line class="st4" x1="134.058" y1="98.397" x2="134.058" y2="102.564"/>
<line class="st4" x1="112.886" y1="111.313" x2="112.886" y2="115.481"/>
<line class="st4" x1="112.886" y1="98.397" x2="112.886" y2="102.564"/>
<line class="st4" x1="119.986" y1="111.313" x2="119.986" y2="115.481"/>
<line class="st4" x1="119.986" y1="98.397" x2="119.986" y2="102.564"/>
<line class="st4" x1="98.804" y1="111.313" x2="98.804" y2="115.481"/>
<line class="st4" x1="98.804" y1="98.397" x2="98.804" y2="102.564"/>
<line class="st4" x1="105.891" y1="111.313" x2="105.891" y2="115.481"/>
<line class="st4" x1="105.891" y1="98.397" x2="105.891" y2="102.564"/>
<line class="st4" x1="84.734" y1="111.313" x2="84.734" y2="115.481"/>
<line class="st4" x1="84.734" y1="98.397" x2="84.734" y2="102.564"/>
<line class="st4" x1="91.821" y1="111.313" x2="91.821" y2="115.481"/>
<line class="st4" x1="91.821" y1="98.397" x2="91.821" y2="102.564"/>
<line class="st4" x1="70.667" y1="111.313" x2="70.667" y2="115.481"/>
<line class="st4" x1="70.667" y1="98.397" x2="70.667" y2="102.564"/>
<line class="st4" x1="77.751" y1="111.313" x2="77.751" y2="115.481"/>
<line class="st4" x1="77.751" y1="98.397" x2="77.751" y2="102.564"/>
<line class="st4" x1="63.684" y1="111.313" x2="63.684" y2="115.481"/>
<line class="st4" x1="63.684" y1="98.397" x2="63.684" y2="102.564"/>
<line class="st1" x1="56.252" y1="115.9" x2="169.231" y2="115.9"/>
<g>
	<g>
		<path d="M60.322,110.558c-1.637,0-1.953-1.742-1.953-2.925s0.316-2.925,1.953-2.925s1.953,1.742,1.953,2.925
			S61.959,110.558,60.322,110.558z M60.322,105.348c-0.818,0-1.191,0.859-1.191,2.285c0,1.426,0.373,2.285,1.191,2.285
			s1.191-0.859,1.191-2.285C61.513,106.207,61.141,105.348,60.322,105.348z"/>
		<path d="M67.321,110.558c-1.637,0-1.953-1.742-1.953-2.925s0.316-2.925,1.953-2.925s1.953,1.742,1.953,2.925
			S68.957,110.558,67.321,110.558z M67.321,105.348c-0.818,0-1.191,0.859-1.191,2.285c0,1.426,0.373,2.285,1.191,2.285
			s1.191-0.859,1.191-2.285C68.512,106.207,68.139,105.348,67.321,105.348z"/>
		<path d="M74.319,110.558c-1.637,0-1.953-1.742-1.953-2.925s0.316-2.925,1.953-2.925s1.953,1.742,1.953,2.925
			S75.956,110.558,74.319,110.558z M74.319,105.348c-0.818,0-1.191,0.859-1.191,2.285c0,1.426,0.373,2.285,1.191,2.285
			s1.191-0.859,1.191-2.285C75.51,106.207,75.137,105.348,74.319,105.348z"/>
		<path d="M81.317,110.558c-1.637,0-1.953-1.742-1.953-2.925s0.316-2.925,1.953-2.925s1.953,1.742,1.953,2.925
			S82.954,110.558,81.317,110.558z M81.317,105.348c-0.818,0-1.191,0.859-1.191,2.285c0,1.426,0.373,2.285,1.191,2.285
			s1.191-0.859,1.191-2.285C82.508,106.207,82.136,105.348,81.317,105.348z"/>
		<path d="M88.972,110.404H88.21v-4.043h-1.329v-0.567c0.924-0.065,1.305-0.154,1.531-1.085h0.559V110.404z"/>
		<path d="M95.971,110.404h-0.762v-4.043H93.88v-0.567c0.924-0.065,1.305-0.154,1.531-1.085h0.559V110.404z"/>
		<path d="M102.969,110.404h-0.762v-4.043h-1.329v-0.567c0.924-0.065,1.305-0.154,1.531-1.085h0.559V110.404z"/>
		<path d="M109.967,110.404h-0.762v-4.043h-1.329v-0.567c0.924-0.065,1.305-0.154,1.531-1.085h0.559V110.404z"/>
		<path d="M116.31,110.558c-1.637,0-1.953-1.742-1.953-2.925s0.316-2.925,1.953-2.925s1.953,1.742,1.953,2.925
			S117.946,110.558,116.31,110.558z M116.31,105.348c-0.818,0-1.191,0.859-1.191,2.285c0,1.426,0.373,2.285,1.191,2.285
			s1.191-0.859,1.191-2.285C117.5,106.207,117.128,105.348,116.31,105.348z"/>
		<path d="M123.308,110.558c-1.637,0-1.953-1.742-1.953-2.925s0.316-2.925,1.953-2.925s1.953,1.742,1.953,2.925
			S124.945,110.558,123.308,110.558z M123.308,105.348c-0.818,0-1.191,0.859-1.191,2.285c0,1.426,0.373,2.285,1.191,2.285
			s1.191-0.859,1.191-2.285C124.499,106.207,124.126,105.348,123.308,105.348z"/>
		<path d="M130.306,110.558c-1.637,0-1.953-1.742-1.953-2.925s0.316-2.925,1.953-2.925s1.953,1.742,1.953,2.925
			S131.943,110.558,130.306,110.558z M130.306,105.348c-0.818,0-1.191,0.859-1.191,2.285c0,1.426,0.373,2.285,1.191,2.285
			s1.191-0.859,1.191-2.285C131.497,106.207,131.124,105.348,130.306,105.348z"/>
		<path d="M137.305,110.558c-1.637,0-1.953-1.742-1.953-2.925s0.316-2.925,1.953-2.925s1.953,1.742,1.953,2.925
			S138.941,110.558,137.305,110.558z M137.305,105.348c-0.818,0-1.191,0.859-1.191,2.285c0,1.426,0.373,2.285,1.191,2.285
			s1.191-0.859,1.191-2.285C138.496,106.207,138.123,105.348,137.305,105.348z"/>
		<path d="M144.959,110.404h-0.762v-4.043h-1.329v-0.567c0.924-0.065,1.305-0.154,1.531-1.085h0.559V110.404z"/>
		<path d="M151.957,110.404h-0.762v-4.043h-1.329v-0.567c0.924-0.065,1.305-0.154,1.531-1.085h0.559V110.404z"/>
		<path d="M158.956,110.404h-0.762v-4.043h-1.329v-0.567c0.924-0.065,1.305-0.154,1.531-1.085h0.559V110.404z"/>
		<path d="M165.955,110.404h-0.762v-4.043h-1.329v-0.567c0.924-0.065,1.305-0.154,1.531-1.085h0.56V110.404z"/>
	</g>
</g>
<g>
	<g>
		<path d="M10.661,67.318c-0.04-0.887-0.775-1.167-1.423-1.167c-0.488,0-1.311,0.136-1.311,1.007c0,0.488,0.344,0.647,0.68,0.728
			l1.639,0.376c0.744,0.176,1.304,0.624,1.304,1.535c0,1.359-1.264,1.735-2.247,1.735c-1.063,0-1.479-0.32-1.735-0.552
			c-0.488-0.439-0.584-0.919-0.584-1.455h0.728c0,1.04,0.847,1.343,1.583,1.343c0.56,0,1.503-0.144,1.503-0.967
			c0-0.6-0.28-0.792-1.223-1.016l-1.175-0.272c-0.376-0.088-1.224-0.352-1.224-1.351c0-0.896,0.584-1.775,1.975-1.775
			c2.007,0,2.207,1.199,2.239,1.831H10.661z"/>
		<path d="M13.247,71.38h-0.704v-4.182h0.664v0.696h0.016c0.28-0.488,0.647-0.816,1.175-0.816c0.088,0,0.128,0.008,0.184,0.024
			v0.728h-0.264c-0.656,0-1.071,0.512-1.071,1.12V71.38z"/>
		<path d="M17.565,68.606c-0.088-0.56-0.4-0.896-0.991-0.896c-0.872,0-1.151,0.832-1.151,1.575c0,0.719,0.176,1.607,1.143,1.607
			c0.472,0,0.879-0.352,1-0.991h0.68c-0.072,0.664-0.48,1.599-1.703,1.599c-1.175,0-1.871-0.888-1.871-2.095
			c0-1.295,0.624-2.327,2.007-2.327c1.096,0,1.511,0.8,1.567,1.527H17.565z"/>
	</g>
	<g>
		<path d="M23.793,68.342c0,0.44-0.36,0.824-0.824,0.824c-0.463,0-0.823-0.375-0.823-0.824c0-0.463,0.376-0.823,0.823-0.823
			C23.426,67.519,23.793,67.895,23.793,68.342z"/>
	</g>
</g>
<g>
	<g>
		<path d="M7.159,104.566h2.327c1.496,0,2.415,1.135,2.415,2.791c0,1.287-0.56,2.95-2.447,2.95H7.159V104.566z M7.935,109.643h1.503
			c1.008,0,1.663-0.792,1.663-2.239s-0.664-2.175-1.719-2.175H7.935V109.643z"/>
		<path d="M15.182,107.316c-0.008-0.264-0.104-0.704-0.992-0.704c-0.216,0-0.832,0.072-0.832,0.592c0,0.344,0.216,0.423,0.76,0.56
			l0.704,0.176c0.872,0.216,1.175,0.536,1.175,1.104c0,0.863-0.711,1.383-1.655,1.383c-1.655,0-1.775-0.959-1.799-1.463h0.68
			c0.024,0.328,0.12,0.855,1.111,0.855c0.504,0,0.959-0.2,0.959-0.664c0-0.336-0.232-0.448-0.832-0.6l-0.815-0.2
			c-0.584-0.144-0.968-0.44-0.968-1.016c0-0.919,0.76-1.335,1.583-1.335c1.495,0,1.599,1.104,1.599,1.312H15.182z"/>
		<path d="M17.67,106.708v2.719c0,0.328,0.28,0.328,0.424,0.328h0.248v0.552c-0.256,0.024-0.456,0.056-0.527,0.056
			c-0.696,0-0.848-0.392-0.848-0.896v-2.759h-0.568v-0.583h0.568v-1.167h0.704v1.167h0.671v0.583H17.67z"/>
	</g>
	<g>
		<path d="M23.793,107.268c0,0.44-0.36,0.824-0.824,0.824c-0.463,0-0.823-0.375-0.823-0.824c0-0.463,0.376-0.823,0.823-0.823
			C23.426,106.444,23.793,106.82,23.793,107.268z"/>
	</g>
</g>
<g>
	<path d="M288.654,13.763c-0.24,0.384-0.567,0.688-0.999,0.688c-0.296,0-0.552-0.12-0.816-0.264c-0.256-0.144-0.551-0.28-0.919-0.28
		c-0.352,0-0.544,0.296-0.672,0.576l-0.288-0.448c0.177-0.335,0.464-0.688,1-0.688c0.271,0,0.584,0.12,0.888,0.256
		c0.399,0.184,0.68,0.288,0.815,0.288c0.319,0,0.52-0.296,0.703-0.576L288.654,13.763z"/>
</g>
</svg>
