<?xml version="1.0" encoding="utf-8"?>
<!-- Generator: Adobe Illustrator 28.2.0, SVG Export Plug-In . SVG Version: 6.00 Build 0)  -->
<svg version="1.1" xmlns="http://www.w3.org/2000/svg" xmlns:xlink="http://www.w3.org/1999/xlink" x="0px" y="0px"
	 width="256.119px" height="323.152px" viewBox="0 0 256.119 323.152" style="enable-background:new 0 0 256.119 323.152;"
	 xml:space="preserve">
<style type="text/css">
	.st0{fill:none;stroke:#000000;}
	.st1{fill:#FFFFFF;stroke:#000000;}
	.st2{fill:none;}
</style>
<g id="儗僀儎乕_1">
	<line class="st0" x1="0.5" y1="0" x2="0.5" y2="32.597"/>
	<line class="st0" x1="0.501" y1="17.717" x2="4.045" y2="17.717"/>
	<line class="st0" x1="255.619" y1="17.716" x2="252.075" y2="17.716"/>
	<line class="st0" x1="255.619" y1="32.599" x2="255.619" y2="0.001"/>
	<g>
		<path d="M13.678,10.63h-0.775V4.89h2.655c0.943,0,1.887,0.328,1.887,1.543c0,0.848-0.432,1.159-0.8,1.375
			c0.328,0.136,0.656,0.28,0.688,1.079l0.048,1.04c0.008,0.32,0.048,0.44,0.288,0.576v0.128h-0.951
			c-0.112-0.352-0.136-1.223-0.136-1.439c0-0.472-0.096-1.023-1.023-1.023h-1.879V10.63z M13.678,7.504h1.799
			c0.567,0,1.167-0.144,1.167-0.991c0-0.888-0.647-0.959-1.031-0.959h-1.935V7.504z"/>
		<path d="M20.197,10.782c-1.615,0-1.927-1.719-1.927-2.886s0.312-2.887,1.927-2.887c1.615,0,1.927,1.719,1.927,2.887
			S21.813,10.782,20.197,10.782z M20.197,5.641c-0.808,0-1.175,0.848-1.175,2.255s0.368,2.254,1.175,2.254s1.175-0.847,1.175-2.254
			S21.005,5.641,20.197,5.641z"/>
		<path d="M24.645,10.782c-1.615,0-1.927-1.719-1.927-2.886s0.312-2.887,1.927-2.887s1.927,1.719,1.927,2.887
			S26.26,10.782,24.645,10.782z M24.645,5.641c-0.808,0-1.175,0.848-1.175,2.255s0.368,2.254,1.175,2.254s1.175-0.847,1.175-2.254
			S25.453,5.641,24.645,5.641z"/>
		<path d="M29.093,10.782c-1.615,0-1.927-1.719-1.927-2.886s0.312-2.887,1.927-2.887s1.927,1.719,1.927,2.887
			S30.709,10.782,29.093,10.782z M29.093,5.641c-0.808,0-1.175,0.848-1.175,2.255s0.368,2.254,1.175,2.254s1.175-0.847,1.175-2.254
			S29.901,5.641,29.093,5.641z"/>
	</g>
	<line class="st0" x1="25.303" y1="17.717" x2="39.476" y2="17.717"/>
	<line class="st0" x1="4.043" y1="17.717" x2="18.216" y2="17.717"/>
	<line class="st1" x1="25.303" y1="21.26" x2="25.303" y2="14.174"/>
	<line class="st1" x1="18.216" y1="14.174" x2="18.216" y2="21.26"/>
	<polyline class="st2" points="39.476,0.001 39.476,32.6 4.043,32.6 4.043,0.001 39.476,0.001 	"/>
	<g>
	</g>
	<path class="st1" d="M223.727,21.261c-1.957,0-3.544-1.586-3.544-3.543s1.586-3.544,3.544-3.544"/>
	<path class="st1" d="M244.987,14.174c1.957,0,3.542,1.587,3.542,3.544s-1.586,3.543-3.542,3.543"/>
	<g>
		<path d="M224.572,10.631h-0.775V4.89h2.654c0.943,0,1.887,0.328,1.887,1.543c0,0.848-0.432,1.16-0.8,1.375
			c0.328,0.136,0.656,0.28,0.688,1.079l0.048,1.04c0.009,0.32,0.049,0.44,0.288,0.576v0.128h-0.951
			c-0.112-0.352-0.136-1.223-0.136-1.439c0-0.472-0.096-1.023-1.023-1.023h-1.879V10.631z M224.572,7.504h1.799
			c0.567,0,1.167-0.144,1.167-0.991c0-0.888-0.647-0.959-1.031-0.959h-1.935V7.504z"/>
		<path d="M231.739,10.631h-0.751v-3.99h-1.312v-0.56c0.911-0.064,1.287-0.152,1.511-1.072h0.552V10.631z"/>
		<path d="M235.099,10.783c-1.615,0-1.927-1.719-1.927-2.886c0-1.167,0.312-2.887,1.927-2.887s1.927,1.719,1.927,2.887
			C237.026,9.064,236.715,10.783,235.099,10.783z M235.099,5.642c-0.808,0-1.175,0.848-1.175,2.255s0.367,2.255,1.175,2.255
			s1.176-0.848,1.176-2.255S235.907,5.642,235.099,5.642z"/>
		<path d="M239.547,10.783c-1.615,0-1.927-1.719-1.927-2.886c0-1.167,0.312-2.887,1.927-2.887s1.927,1.719,1.927,2.887
			C241.473,9.064,241.162,10.783,239.547,10.783z M239.547,5.642c-0.808,0-1.175,0.848-1.175,2.255s0.367,2.255,1.175,2.255
			s1.176-0.848,1.176-2.255S240.354,5.642,239.547,5.642z"/>
		<path d="M244.043,10.631h-0.751v-3.99h-1.312v-0.56c0.911-0.064,1.287-0.152,1.511-1.072h0.552V10.631z"/>
	</g>
	<line class="st0" x1="248.529" y1="17.718" x2="252.073" y2="17.718"/>
	<line class="st0" x1="216.64" y1="17.718" x2="220.183" y2="17.718"/>
	<g>
		<path d="M230.646,17.199c-0.039-0.888-0.775-1.167-1.423-1.167c-0.487,0-1.312,0.136-1.312,1.007c0,0.488,0.344,0.647,0.68,0.728
			l1.64,0.376c0.743,0.176,1.303,0.624,1.303,1.535c0,1.359-1.263,1.735-2.246,1.735c-1.063,0-1.479-0.32-1.735-0.552
			c-0.488-0.439-0.584-0.919-0.584-1.455h0.728c0,1.04,0.848,1.343,1.583,1.343c0.561,0,1.504-0.144,1.504-0.967
			c0-0.6-0.28-0.792-1.224-1.016l-1.176-0.272c-0.375-0.088-1.223-0.352-1.223-1.351c0-0.896,0.583-1.775,1.975-1.775
			c2.007,0,2.207,1.199,2.239,1.831H230.646z"/>
		<path d="M236.838,21.261H232.6V15.52h4.182v0.688h-3.406v1.759h3.143v0.688h-3.143v1.919h3.462V21.261z"/>
		<path d="M237.361,15.52h4.661v0.688h-1.943v5.053h-0.775v-5.053h-1.942V15.52z"/>
	</g>
	<rect x="216.641" y="0.001" class="st2" width="35.433" height="32.598"/>
	<line class="st1" x1="110.342" y1="17.717" x2="216.64" y2="17.718"/>
	<line class="st0" x1="0.5" y1="32.597" x2="0.5" y2="100.629"/>
	<line class="st0" x1="0.501" y1="50.317" x2="4.045" y2="50.317"/>
	<line class="st0" x1="0.501" y1="82.913" x2="4.045" y2="82.914"/>
	<line class="st0" x1="255.619" y1="82.912" x2="252.076" y2="82.912"/>
	<line class="st0" x1="255.619" y1="100.629" x2="255.619" y2="32.598"/>
	<line class="st0" x1="255.619" y1="50.315" x2="252.074" y2="50.314"/>
	<line class="st0" x1="0.5" y1="100.629" x2="0.5" y2="160.157"/>
	<line class="st0" x1="0.501" y1="115.514" x2="4.045" y2="115.514"/>
	<line class="st0" x1="0.501" y1="148.109" x2="4.045" y2="148.111"/>
	<line class="st0" x1="255.619" y1="148.109" x2="252.076" y2="148.109"/>
	<line class="st0" x1="255.619" y1="160.157" x2="255.619" y2="100.629"/>
	<line class="st0" x1="255.619" y1="115.512" x2="252.074" y2="115.512"/>
	<g>
		<path d="M82.541,10.631h-0.775V4.89h2.654c0.944,0,1.887,0.328,1.887,1.543c0,0.848-0.432,1.16-0.799,1.375
			c0.328,0.136,0.655,0.28,0.688,1.079l0.048,1.04c0.008,0.32,0.048,0.44,0.288,0.576v0.128h-0.952
			c-0.112-0.352-0.136-1.223-0.136-1.439c0-0.472-0.096-1.023-1.023-1.023h-1.879V10.631z M82.541,7.504h1.799
			c0.567,0,1.167-0.144,1.167-0.991c0-0.888-0.648-0.959-1.032-0.959h-1.935V7.504z"/>
		<path d="M89.708,10.631h-0.752v-3.99h-1.311v-0.56c0.912-0.064,1.287-0.152,1.511-1.072h0.552V10.631z"/>
		<path d="M93.068,10.783c-1.615,0-1.927-1.719-1.927-2.886c0-1.167,0.312-2.887,1.927-2.887s1.927,1.719,1.927,2.887
			C94.995,9.064,94.683,10.783,93.068,10.783z M93.068,5.642c-0.808,0-1.175,0.848-1.175,2.255s0.368,2.255,1.175,2.255
			s1.175-0.848,1.175-2.255S93.876,5.642,93.068,5.642z"/>
		<path d="M97.516,10.783c-1.615,0-1.927-1.719-1.927-2.886c0-1.167,0.312-2.887,1.927-2.887s1.927,1.719,1.927,2.887
			C99.444,9.064,99.132,10.783,97.516,10.783z M97.516,5.642c-0.808,0-1.175,0.848-1.175,2.255s0.368,2.255,1.175,2.255
			s1.175-0.848,1.175-2.255S98.324,5.642,97.516,5.642z"/>
		<path d="M101.965,10.783c-1.615,0-1.927-1.719-1.927-2.886c0-1.167,0.312-2.887,1.927-2.887s1.927,1.719,1.927,2.887
			C103.892,9.064,103.58,10.783,101.965,10.783z M101.965,5.642c-0.808,0-1.175,0.848-1.175,2.255s0.368,2.255,1.175,2.255
			s1.175-0.848,1.175-2.255S102.772,5.642,101.965,5.642z"/>
	</g>
	<line class="st0" x1="96.169" y1="17.718" x2="110.342" y2="17.718"/>
	<line class="st0" x1="74.91" y1="17.718" x2="89.083" y2="17.718"/>
	<line class="st1" x1="96.169" y1="21.261" x2="96.169" y2="14.174"/>
	<line class="st1" x1="89.083" y1="14.174" x2="89.083" y2="21.261"/>
	<polyline class="st2" points="110.342,0.002 110.342,32.601 74.91,32.601 74.91,0.002 110.342,0.002 	"/>
	<g>
	</g>
	<g>
		<path d="M47.107,10.63h-0.775V4.89h2.654c0.944,0,1.887,0.328,1.887,1.543c0,0.848-0.432,1.159-0.799,1.375
			c0.328,0.136,0.655,0.28,0.688,1.079l0.048,1.04c0.008,0.32,0.048,0.44,0.288,0.576v0.128h-0.952
			c-0.112-0.352-0.136-1.223-0.136-1.439c0-0.472-0.096-1.023-1.023-1.023h-1.879V10.63z M47.107,7.504h1.799
			c0.567,0,1.167-0.144,1.167-0.991c0-0.888-0.648-0.959-1.032-0.959h-1.935V7.504z"/>
		<path d="M54.275,10.63h-0.752v-3.99h-1.311v-0.56c0.912-0.064,1.287-0.152,1.511-1.072h0.552V10.63z"/>
		<path d="M57.634,10.782c-1.615,0-1.927-1.719-1.927-2.886s0.312-2.887,1.927-2.887s1.927,1.719,1.927,2.887
			S59.25,10.782,57.634,10.782z M57.634,5.641c-0.808,0-1.175,0.848-1.175,2.255s0.368,2.254,1.175,2.254s1.175-0.847,1.175-2.254
			S58.442,5.641,57.634,5.641z"/>
		<path d="M62.083,10.782c-1.615,0-1.927-1.719-1.927-2.886s0.312-2.887,1.927-2.887s1.927,1.719,1.927,2.887
			S63.698,10.782,62.083,10.782z M62.083,5.641c-0.808,0-1.175,0.848-1.175,2.255s0.368,2.254,1.175,2.254s1.175-0.847,1.175-2.254
			S62.89,5.641,62.083,5.641z"/>
		<path d="M66.531,10.782c-1.615,0-1.927-1.719-1.927-2.886s0.312-2.887,1.927-2.887s1.927,1.719,1.927,2.887
			S68.146,10.782,66.531,10.782z M66.531,5.641c-0.808,0-1.175,0.848-1.175,2.255s0.368,2.254,1.175,2.254s1.175-0.847,1.175-2.254
			S67.339,5.641,66.531,5.641z"/>
	</g>
	<line class="st0" x1="71.325" y1="17.717" x2="74.909" y2="17.717"/>
	<line class="st0" x1="39.476" y1="17.717" x2="43.02" y2="17.717"/>
	<line class="st1" x1="71.325" y1="21.26" x2="71.325" y2="14.174"/>
	<line class="st1" x1="43.02" y1="14.174" x2="43.02" y2="21.26"/>
	<polyline class="st2" points="74.909,0.001 74.909,32.6 39.476,32.6 39.476,0.001 74.909,0.001 	"/>
	<g>
	</g>
	<g>
		<path d="M48.508,15.521h2.327c1.495,0,2.415,1.135,2.415,2.791c0,1.287-0.56,2.95-2.447,2.95h-2.295V15.521z M49.284,20.598h1.503
			c1.007,0,1.663-0.792,1.663-2.239s-0.664-2.175-1.719-2.175h-1.447V20.598z"/>
		<path d="M55.14,21.261h-0.776v-5.741h0.776V21.261z"/>
		<path d="M57.324,21.261h-0.776v-5.741h3.974v0.688h-3.198v1.759h2.814v0.688h-2.814V21.261z"/>
		<path d="M65.898,15.521v3.726c0,1.176-0.736,2.167-2.311,2.167c-1.543,0-2.207-0.991-2.207-2.063v-3.83h0.775v3.614
			c0,1.248,0.76,1.591,1.455,1.591c0.712,0,1.511-0.328,1.511-1.575v-3.63H65.898z"/>
	</g>
	<g>
		<path d="M226.277,43.229h-0.775v-5.741h2.654c0.943,0,1.887,0.328,1.887,1.543c0,0.848-0.432,1.16-0.8,1.375
			c0.328,0.136,0.656,0.28,0.688,1.079l0.048,1.04c0.009,0.32,0.049,0.44,0.288,0.576v0.128h-0.951
			c-0.112-0.352-0.136-1.223-0.136-1.439c0-0.472-0.096-1.023-1.023-1.023h-1.879V43.229z M226.277,40.103h1.799
			c0.567,0,1.167-0.144,1.167-0.991c0-0.888-0.647-0.959-1.031-0.959h-1.935V40.103z"/>
		<path d="M231.75,39.959c0.239-0.184,0.583-0.352,1.087-0.352c0.911,0,1.847,0.64,1.847,1.799c0,0.624-0.279,1.975-2.038,1.975
			c-0.736,0-1.68-0.296-1.815-1.551h0.728c0.072,0.656,0.56,0.944,1.191,0.944c0.728,0,1.184-0.584,1.184-1.288
			c0-0.808-0.552-1.247-1.247-1.247c-0.408,0-0.776,0.192-1.04,0.536l-0.607-0.032l0.424-3.014h2.91v0.688h-2.383L231.75,39.959z"/>
		<path d="M237.244,43.381c-1.615,0-1.927-1.719-1.927-2.886c0-1.167,0.312-2.887,1.927-2.887s1.927,1.719,1.927,2.887
			C239.171,41.662,238.859,43.381,237.244,43.381z M237.244,38.24c-0.808,0-1.175,0.848-1.175,2.255s0.367,2.255,1.175,2.255
			s1.176-0.848,1.176-2.255S238.051,38.24,237.244,38.24z"/>
		<path d="M241.692,43.381c-1.615,0-1.927-1.719-1.927-2.886c0-1.167,0.312-2.887,1.927-2.887s1.927,1.719,1.927,2.887
			C243.619,41.662,243.307,43.381,241.692,43.381z M241.692,38.24c-0.808,0-1.175,0.848-1.175,2.255s0.367,2.255,1.175,2.255
			s1.176-0.848,1.176-2.255S242.5,38.24,241.692,38.24z"/>
	</g>
	<line class="st0" x1="237.9" y1="50.317" x2="252.074" y2="50.317"/>
	<line class="st0" x1="216.641" y1="50.317" x2="230.814" y2="50.317"/>
	<polyline class="st2" points="252.074,32.599 252.074,68.031 216.641,68.031 216.641,32.599 252.074,32.599 	"/>
	<path class="st1" d="M237.9,50.314c0,1.958-1.587,3.545-3.543,3.545c-1.957,0-3.543-1.587-3.543-3.545
		c0-1.955,1.586-3.542,3.543-3.542C236.313,46.772,237.9,48.359,237.9,50.314z"/>
	<g>
		<path d="M52.637,37.49h4.662v0.688h-1.943v5.053H54.58v-5.053h-1.943V37.49z"/>
		<path d="M59.635,43.382c-1.615,0-1.927-1.719-1.927-2.886s0.312-2.887,1.927-2.887s1.927,1.719,1.927,2.887
			S61.251,43.382,59.635,43.382z M59.635,38.241c-0.808,0-1.175,0.848-1.175,2.255s0.368,2.254,1.175,2.254s1.175-0.847,1.175-2.254
			S60.443,38.241,59.635,38.241z"/>
	</g>
	<line class="st0" x1="60.737" y1="50.315" x2="74.91" y2="50.315"/>
	<line class="st0" x1="39.477" y1="50.315" x2="53.65" y2="50.315"/>
	<line class="st1" x1="60.737" y1="53.86" x2="60.737" y2="46.773"/>
	<line class="st1" x1="53.65" y1="46.773" x2="53.65" y2="53.86"/>
	<polyline class="st2" points="74.91,32.6 74.91,68.035 39.477,68.035 39.477,32.6 74.91,32.6 	"/>
	<line class="st0" x1="50.107" y1="53.86" x2="64.28" y2="46.773"/>
	<line class="st1" x1="74.91" y1="50.314" x2="216.641" y2="50.317"/>
	<g>
		<path d="M230.556,75.825h-0.527l0.231-1.679h-0.999l-0.232,1.679h-0.527l0.232-1.679h-0.824l0.072-0.504h0.823l0.152-1.136h-0.823
			l0.071-0.504h0.823l0.232-1.679h0.535l-0.231,1.679h0.991l0.232-1.679h0.535l-0.231,1.679h0.823l-0.072,0.504h-0.823l-0.16,1.136
			h0.824l-0.072,0.504h-0.823L230.556,75.825z M229.493,72.507l-0.159,1.136h0.999l0.152-1.136H229.493z"/>
		<path d="M232.486,72.219c0-1.83,1.336-2.015,1.943-2.015c0.976,0,1.759,0.632,1.759,1.68c0,1.007-0.663,1.431-1.503,1.879
			l-0.584,0.319c-0.768,0.424-0.936,0.863-0.968,1.079h3.055v0.664h-3.846c0.04-1.167,0.567-1.791,1.319-2.23l0.743-0.432
			c0.6-0.345,1.031-0.576,1.031-1.312c0-0.448-0.287-1.016-1.111-1.016c-1.063,0-1.111,0.991-1.135,1.383H232.486z"/>
		<path d="M238.804,75.978c-1.615,0-1.927-1.72-1.927-2.887s0.312-2.887,1.927-2.887s1.927,1.72,1.927,2.887
			S240.42,75.978,238.804,75.978z M238.804,70.836c-0.808,0-1.175,0.848-1.175,2.255s0.367,2.255,1.175,2.255
			s1.176-0.848,1.176-2.255S239.612,70.836,238.804,70.836z"/>
	</g>
	<line class="st0" x1="248.49" y1="82.912" x2="252.074" y2="82.912"/>
	<line class="st0" x1="216.642" y1="82.912" x2="220.186" y2="82.912"/>
	<line class="st1" x1="248.49" y1="86.455" x2="248.49" y2="79.369"/>
	<line class="st1" x1="220.186" y1="79.369" x2="220.186" y2="86.455"/>
	<polyline class="st2" points="252.074,68.031 252.074,100.63 216.642,100.63 216.642,68.031 252.074,68.031 	"/>
	<g>
	</g>
	<g>
		<path d="M229.803,80.716h4.661v0.688h-1.943v5.053h-0.775v-5.053h-1.942V80.716z"/>
		<path d="M236.801,86.609c-1.615,0-1.927-1.72-1.927-2.887c0-1.168,0.312-2.887,1.927-2.887s1.927,1.719,1.927,2.887
			C238.728,84.89,238.417,86.609,236.801,86.609z M236.801,81.468c-0.808,0-1.175,0.848-1.175,2.255s0.367,2.255,1.175,2.255
			s1.176-0.848,1.176-2.255S237.609,81.468,236.801,81.468z"/>
	</g>
	<g>
		<path d="M11.975,75.825h-0.775v-5.741h2.655c0.943,0,1.887,0.328,1.887,1.544c0,0.847-0.432,1.159-0.8,1.375
			c0.328,0.136,0.656,0.279,0.688,1.079l0.048,1.039c0.008,0.32,0.048,0.44,0.288,0.576v0.128h-0.951
			c-0.112-0.352-0.136-1.224-0.136-1.439c0-0.472-0.096-1.023-1.023-1.023h-1.879V75.825z M11.975,72.699h1.799
			c0.567,0,1.167-0.145,1.167-0.992c0-0.887-0.647-0.959-1.031-0.959h-1.935V72.699z"/>
		<path d="M19.142,75.825H18.39v-3.99h-1.311v-0.56c0.912-0.063,1.287-0.151,1.511-1.071h0.552V75.825z"/>
		<path d="M22.503,75.978c-1.615,0-1.927-1.72-1.927-2.887s0.312-2.887,1.927-2.887s1.927,1.72,1.927,2.887
			S24.118,75.978,22.503,75.978z M22.503,70.836c-0.808,0-1.175,0.848-1.175,2.255s0.368,2.255,1.175,2.255s1.175-0.848,1.175-2.255
			S23.31,70.836,22.503,70.836z"/>
		<path d="M26.95,75.978c-1.615,0-1.927-1.72-1.927-2.887s0.312-2.887,1.927-2.887c1.615,0,1.927,1.72,1.927,2.887
			S28.566,75.978,26.95,75.978z M26.95,70.836c-0.808,0-1.175,0.848-1.175,2.255s0.368,2.255,1.175,2.255s1.175-0.848,1.175-2.255
			S27.758,70.836,26.95,70.836z"/>
		<path d="M31.446,75.825h-0.752v-3.99h-1.311v-0.56c0.912-0.063,1.287-0.151,1.511-1.071h0.552V75.825z"/>
	</g>
	<line class="st0" x1="25.303" y1="82.912" x2="39.476" y2="82.912"/>
	<line class="st0" x1="4.044" y1="82.912" x2="18.217" y2="82.912"/>
	<line class="st1" x1="25.303" y1="86.455" x2="25.303" y2="79.369"/>
	<line class="st1" x1="18.217" y1="79.369" x2="18.217" y2="86.455"/>
	<polyline class="st2" points="39.476,68.031 39.476,100.63 4.044,100.63 4.044,68.031 39.476,68.031 	"/>
	<g>
	</g>
	<line class="st1" x1="39.476" y1="82.912" x2="216.642" y2="82.914"/>
	<g>
		<path d="M234.107,106.706c-0.216-1.008-1.056-1.191-1.607-1.191c-1.039,0-1.879,0.768-1.879,2.278
			c0,1.352,0.479,2.391,1.903,2.391c0.503,0,1.375-0.239,1.639-1.575h0.752c-0.32,2.167-2.079,2.264-2.511,2.264
			c-1.304,0-2.583-0.848-2.583-3.055c0-1.768,1.008-2.99,2.679-2.99c1.479,0,2.247,0.919,2.358,1.879H234.107z"/>
		<path d="M236.109,108.873v0.399c0,0.688,0.328,0.936,0.863,0.936c0.72,0,0.92-0.432,0.92-0.991v-4.238h0.775v4.19
			c0,1.343-0.879,1.703-1.655,1.703c-1.335,0-1.631-0.896-1.631-1.432v-0.567H236.109z"/>
	</g>
	<g>
		<path d="M232.78,119.577h-0.527l0.231-1.679h-0.999l-0.231,1.679h-0.528l0.232-1.679h-0.824l0.072-0.504h0.823l0.152-1.136h-0.824
			l0.072-0.504h0.824l0.231-1.679h0.536l-0.232,1.679h0.991l0.232-1.679h0.535l-0.231,1.679h0.823l-0.071,0.504h-0.824l-0.16,1.136
			h0.824l-0.072,0.504h-0.823L232.78,119.577z M231.716,116.259l-0.159,1.136h0.999l0.152-1.136H231.716z"/>
		<path d="M237.228,119.577h-0.751v-3.99h-1.312v-0.56c0.911-0.063,1.287-0.151,1.511-1.071h0.552V119.577z"/>
	</g>
	<polyline class="st0" points="227.272,108.425 216.639,108.425 216.642,122.6 252.074,122.6 252.074,108.428 241.445,108.428 	"/>
	<rect x="216.642" y="100.634" class="st2" width="35.431" height="32.596"/>
	<line class="st1" x1="39.476" y1="115.512" x2="216.642" y2="115.514"/>
	<g>
		<path d="M17.204,102.684h4.662v0.688h-1.943v5.053h-0.776v-5.053h-1.943V102.684z"/>
		<path d="M24.203,108.577c-1.615,0-1.927-1.72-1.927-2.887c0-1.168,0.312-2.887,1.927-2.887s1.927,1.719,1.927,2.887
			C26.13,106.857,25.818,108.577,24.203,108.577z M24.203,103.436c-0.808,0-1.175,0.848-1.175,2.255s0.368,2.255,1.175,2.255
			s1.175-0.848,1.175-2.255S25.01,103.436,24.203,103.436z"/>
	</g>
	<line class="st0" x1="25.303" y1="115.51" x2="39.476" y2="115.51"/>
	<line class="st0" x1="4.044" y1="115.51" x2="18.217" y2="115.51"/>
	<line class="st1" x1="25.303" y1="119.055" x2="25.303" y2="111.968"/>
	<line class="st1" x1="18.217" y1="111.968" x2="18.217" y2="119.055"/>
	<polyline class="st2" points="39.476,100.63 39.476,133.23 4.044,133.23 4.044,100.63 39.476,100.63 	"/>
	<g>
		<path d="M226.007,140.247h2.519v3.07h-0.504l-0.184-0.743c-0.392,0.543-1.111,0.896-1.896,0.896c-0.983,0-1.463-0.36-1.759-0.648
			c-0.879-0.831-0.903-1.814-0.903-2.422c0-1.399,0.848-2.975,2.719-2.975c1.071,0,2.263,0.607,2.431,1.895h-0.752
			c-0.248-0.999-1.087-1.207-1.719-1.207c-1.031,0-1.879,0.823-1.879,2.327c0,1.167,0.384,2.366,1.911,2.366
			c0.287,0,0.751-0.032,1.175-0.368c0.504-0.399,0.632-0.911,0.632-1.526h-1.791V140.247z"/>
		<path d="M232.231,143.47c-2.143,0-2.799-1.783-2.799-3.022s0.656-3.022,2.799-3.022s2.799,1.783,2.799,3.022
			S234.374,143.47,232.231,143.47z M232.231,138.112c-1.247,0-1.999,0.983-1.999,2.335c0,1.351,0.752,2.334,1.999,2.334
			s1.999-0.983,1.999-2.334C234.23,139.096,233.478,138.112,232.231,138.112z"/>
		<path d="M235.137,137.576h4.661v0.688h-1.943v5.054h-0.775v-5.054h-1.942V137.576z"/>
		<path d="M242.704,143.47c-2.143,0-2.799-1.783-2.799-3.022s0.656-3.022,2.799-3.022s2.799,1.783,2.799,3.022
			S244.846,143.47,242.704,143.47z M242.704,138.112c-1.247,0-1.999,0.983-1.999,2.335c0,1.351,0.752,2.334,1.999,2.334
			s1.999-0.983,1.999-2.334C244.703,139.096,243.951,138.112,242.704,138.112z"/>
	</g>
	<g>
		<path d="M232.78,152.175h-0.527l0.231-1.679h-0.999l-0.231,1.679h-0.528l0.232-1.679h-0.824l0.072-0.504h0.823l0.152-1.136h-0.824
			l0.072-0.504h0.824l0.231-1.679h0.536l-0.232,1.679h0.991l0.232-1.679h0.535l-0.231,1.679h0.823l-0.071,0.504h-0.824l-0.16,1.136
			h0.824l-0.072,0.504h-0.823L232.78,152.175z M231.716,148.857l-0.159,1.136h0.999l0.152-1.136H231.716z"/>
		<path d="M234.71,148.568c0-1.83,1.336-2.015,1.943-2.015c0.976,0,1.759,0.632,1.759,1.68c0,1.007-0.664,1.431-1.503,1.879
			l-0.584,0.319c-0.768,0.424-0.936,0.863-0.968,1.079h3.055v0.664h-3.846c0.04-1.167,0.567-1.791,1.319-2.23l0.743-0.432
			c0.6-0.345,1.031-0.576,1.031-1.312c0-0.448-0.287-1.016-1.111-1.016c-1.063,0-1.111,0.991-1.135,1.383H234.71z"/>
	</g>
	<polyline class="st0" points="220.183,141.023 216.639,141.023 216.642,155.198 252.074,155.198 252.074,141.025 248.532,141.025 	
		"/>
	<rect x="216.642" y="133.231" class="st2" width="35.431" height="26.927"/>
	<line class="st1" x1="4.045" y1="148.111" x2="216.642" y2="148.111"/>
	<line class="st0" x1="0.5" y1="160.157" x2="0.5" y2="222.52"/>
	<line class="st0" x1="0.501" y1="177.877" x2="4.045" y2="177.877"/>
	<line class="st0" x1="0.501" y1="207.637" x2="4.045" y2="207.64"/>
	<line class="st0" x1="255.619" y1="207.637" x2="252.076" y2="207.637"/>
	<line class="st0" x1="255.619" y1="222.52" x2="255.619" y2="160.157"/>
	<line class="st0" x1="255.619" y1="177.874" x2="252.074" y2="177.874"/>
	<line class="st0" x1="0.5" y1="222.52" x2="0.5" y2="287.717"/>
	<line class="st0" x1="0.501" y1="240.239" x2="4.045" y2="240.239"/>
	<line class="st0" x1="0.501" y1="272.835" x2="4.045" y2="272.837"/>
	<line class="st0" x1="255.619" y1="272.835" x2="252.076" y2="272.835"/>
	<line class="st0" x1="255.619" y1="287.717" x2="255.619" y2="222.52"/>
	<line class="st0" x1="255.619" y1="240.237" x2="252.074" y2="240.237"/>
	<line class="st0" x1="0.5" y1="287.717" x2="0.5" y2="323.152"/>
	<line class="st0" x1="0.501" y1="305.437" x2="4.045" y2="305.437"/>
	<line class="st0" x1="255.619" y1="323.152" x2="255.619" y2="287.717"/>
	<line class="st0" x1="255.619" y1="305.434" x2="252.074" y2="305.434"/>
	<g>
		<path d="M223.289,172.392h2.911v0.688h-3.687v-5.741h0.775V172.392z"/>
		<path d="M227.865,171.408l-0.6,1.671h-0.799l2.158-5.741h0.88l2.079,5.741h-0.848l-0.568-1.671H227.865z M229.888,170.721
			l-0.848-2.527h-0.016l-0.92,2.527H229.888z"/>
		<path d="M232.282,167.338h2.526c1.071,0,1.623,0.664,1.623,1.447c0,0.376-0.136,0.903-0.768,1.199
			c0.376,0.152,1.04,0.416,1.04,1.399c0,0.92-0.68,1.695-1.951,1.695h-2.471V167.338z M233.057,169.769h1.399
			c0.743,0,1.199-0.224,1.199-0.927c0-0.536-0.328-0.84-1.191-0.84h-1.407V169.769z M233.057,172.415h1.655
			c0.808,0,1.215-0.407,1.215-1.047c0-0.808-0.711-0.968-1.343-0.968h-1.527V172.415z"/>
		<path d="M241.951,173.079h-4.237v-5.741h4.182v0.688h-3.406v1.759h3.143v0.688h-3.143v1.919h3.462V173.079z"/>
		<path d="M243.745,172.392h2.911v0.688h-3.687v-5.741h0.775V172.392z"/>
	</g>
	<g>
		<path d="M232.781,181.937h-0.527l0.231-1.679h-0.999l-0.232,1.679h-0.527l0.232-1.679h-0.824l0.072-0.504h0.823l0.152-1.136
			h-0.823l0.071-0.504h0.823l0.232-1.679h0.535l-0.231,1.679h0.991l0.232-1.679h0.535l-0.231,1.679h0.823l-0.072,0.504h-0.823
			l-0.16,1.136h0.824l-0.072,0.504h-0.823L232.781,181.937z M231.717,178.618l-0.159,1.136h0.999l0.152-1.136H231.717z"/>
		<path d="M237.229,181.937h-0.751v-3.99h-1.312v-0.56c0.911-0.063,1.287-0.151,1.511-1.071h0.552V181.937z"/>
	</g>
	<polyline class="st0" points="220.184,170.785 216.641,170.785 216.643,184.959 252.075,184.959 252.075,170.787 248.533,170.787 	
		"/>
	<rect x="216.643" y="160.158" class="st2" width="35.431" height="29.762"/>
	<line class="st1" x1="4.046" y1="177.873" x2="216.643" y2="177.873"/>
	<g>
		<path d="M226.578,200.553h-0.775v-5.741h2.654c0.943,0,1.887,0.328,1.887,1.544c0,0.847-0.432,1.159-0.8,1.375
			c0.328,0.136,0.656,0.279,0.688,1.079l0.048,1.04c0.009,0.319,0.049,0.439,0.288,0.575v0.128h-0.951
			c-0.112-0.352-0.136-1.224-0.136-1.439c0-0.472-0.096-1.023-1.023-1.023h-1.879V200.553z M226.578,197.427h1.799
			c0.567,0,1.167-0.145,1.167-0.992c0-0.887-0.647-0.959-1.031-0.959h-1.935V197.427z"/>
		<path d="M232.05,197.282c0.239-0.184,0.583-0.352,1.087-0.352c0.911,0,1.847,0.64,1.847,1.799c0,0.624-0.279,1.976-2.038,1.976
			c-0.736,0-1.68-0.296-1.815-1.552h0.728c0.072,0.656,0.56,0.943,1.191,0.943c0.728,0,1.184-0.583,1.184-1.287
			c0-0.808-0.552-1.247-1.247-1.247c-0.408,0-0.776,0.191-1.04,0.535l-0.607-0.031l0.424-3.015h2.91v0.688h-2.383L232.05,197.282z"
			/>
		<path d="M237.545,200.705c-1.615,0-1.927-1.72-1.927-2.887c0-1.168,0.312-2.887,1.927-2.887s1.927,1.719,1.927,2.887
			C239.471,198.985,239.16,200.705,237.545,200.705z M237.545,195.564c-0.808,0-1.175,0.848-1.175,2.255s0.367,2.255,1.175,2.255
			s1.176-0.848,1.176-2.255S238.352,195.564,237.545,195.564z"/>
		<path d="M242.041,200.553h-0.751v-3.99h-1.312v-0.56c0.911-0.063,1.287-0.151,1.511-1.071h0.552V200.553z"/>
	</g>
	<line class="st0" x1="237.902" y1="207.64" x2="252.075" y2="207.64"/>
	<line class="st0" x1="216.643" y1="207.64" x2="230.815" y2="207.64"/>
	<polyline class="st2" points="252.075,189.922 252.075,222.52 216.643,222.52 216.643,189.922 252.075,189.922 	"/>
	<path class="st1" d="M237.902,207.637c0,1.958-1.587,3.545-3.544,3.545c-1.956,0-3.543-1.587-3.543-3.545
		c0-1.955,1.587-3.542,3.543-3.542C236.315,204.095,237.902,205.682,237.902,207.637z"/>
	<g>
		<path d="M17.205,194.812h4.662v0.688h-1.943v5.053h-0.776V195.5h-1.943V194.812z"/>
		<path d="M24.852,200.553H24.1v-3.99h-1.311v-0.56c0.912-0.063,1.287-0.151,1.511-1.071h0.552V200.553z"/>
	</g>
	<line class="st0" x1="25.305" y1="207.637" x2="39.478" y2="207.637"/>
	<line class="st0" x1="4.045" y1="207.637" x2="18.218" y2="207.637"/>
	<line class="st1" x1="25.305" y1="211.182" x2="25.305" y2="204.095"/>
	<line class="st1" x1="18.218" y1="204.095" x2="18.218" y2="211.182"/>
	<polyline class="st2" points="39.478,189.922 39.478,222.522 4.045,222.522 4.045,189.922 39.478,189.922 	"/>
	<line class="st0" x1="14.675" y1="211.182" x2="28.848" y2="204.095"/>
	<line class="st1" x1="39.478" y1="207.637" x2="216.643" y2="207.64"/>
	<g>
		<path d="M230.557,233.148h-0.527l0.231-1.679h-0.999l-0.231,1.679h-0.528l0.232-1.679h-0.824l0.072-0.504h0.823l0.152-1.136
			h-0.824l0.072-0.504h0.824l0.231-1.679h0.536l-0.232,1.679h0.991l0.232-1.679h0.535l-0.231,1.679h0.823l-0.071,0.504h-0.824
			l-0.16,1.136h0.824l-0.072,0.504h-0.823L230.557,233.148z M229.494,229.83l-0.159,1.136h0.999l0.152-1.136H229.494z"/>
		<path d="M233.926,229.95c0.12,0.008,0.248,0.016,0.368,0.016c0.543,0,1.071-0.216,1.071-0.919c0-0.336-0.2-0.888-1.04-0.888
			c-0.999,0-1.063,0.815-1.095,1.207h-0.688c0-0.823,0.335-1.839,1.814-1.839c1.088,0,1.735,0.624,1.735,1.479
			c0,0.72-0.416,1.063-0.72,1.159v0.016c0.544,0.177,0.936,0.561,0.936,1.312c0,0.92-0.592,1.808-2.023,1.808
			c-0.415,0-0.768-0.104-1.039-0.248c-0.624-0.328-0.792-0.976-0.84-1.623h0.728c0.024,0.527,0.152,1.239,1.2,1.239
			c0.719,0,1.223-0.44,1.223-1.088c0-0.943-0.831-1.031-1.312-1.031c-0.104,0-0.216,0.008-0.319,0.008V229.95z"/>
		<path d="M238.806,233.301c-1.615,0-1.927-1.72-1.927-2.887s0.312-2.887,1.927-2.887s1.927,1.72,1.927,2.887
			S240.422,233.301,238.806,233.301z M238.806,228.159c-0.808,0-1.175,0.848-1.175,2.255s0.367,2.255,1.175,2.255
			s1.176-0.848,1.176-2.255S239.614,228.159,238.806,228.159z"/>
	</g>
	<line class="st0" x1="248.491" y1="240.235" x2="252.075" y2="240.235"/>
	<line class="st0" x1="216.643" y1="240.235" x2="220.187" y2="240.235"/>
	<line class="st1" x1="248.491" y1="243.778" x2="248.491" y2="236.692"/>
	<line class="st1" x1="220.187" y1="236.692" x2="220.187" y2="243.778"/>
	<polyline class="st2" points="252.075,222.52 252.075,255.118 216.643,255.118 216.643,222.52 252.075,222.52 	"/>
	<g>
	</g>
	<g>
		<path d="M229.804,238.038h4.661v0.688h-1.943v5.054h-0.775v-5.054h-1.942V238.038z"/>
		<path d="M237.45,243.779h-0.751v-3.99h-1.312v-0.56c0.911-0.063,1.287-0.151,1.511-1.071h0.552V243.779z"/>
	</g>
	<g>
		<path d="M11.976,233.148H11.2v-5.741h2.655c0.943,0,1.887,0.328,1.887,1.544c0,0.847-0.432,1.159-0.8,1.375
			c0.328,0.136,0.656,0.279,0.688,1.079l0.048,1.039c0.008,0.32,0.048,0.44,0.288,0.576v0.128h-0.951
			c-0.112-0.352-0.136-1.224-0.136-1.439c0-0.472-0.096-1.023-1.023-1.023h-1.879V233.148z M11.976,230.023h1.799
			c0.567,0,1.167-0.145,1.167-0.992c0-0.887-0.647-0.959-1.031-0.959h-1.935V230.023z"/>
		<path d="M19.143,233.148h-0.752v-3.99H17.08v-0.56c0.912-0.063,1.287-0.151,1.511-1.071h0.552V233.148z"/>
		<path d="M22.504,233.301c-1.615,0-1.927-1.72-1.927-2.887s0.312-2.887,1.927-2.887s1.927,1.72,1.927,2.887
			S24.119,233.301,22.504,233.301z M22.504,228.159c-0.808,0-1.175,0.848-1.175,2.255s0.368,2.255,1.175,2.255
			s1.175-0.848,1.175-2.255S23.311,228.159,22.504,228.159z"/>
		<path d="M26.951,233.301c-1.615,0-1.927-1.72-1.927-2.887s0.312-2.887,1.927-2.887c1.615,0,1.927,1.72,1.927,2.887
			S28.567,233.301,26.951,233.301z M26.951,228.159c-0.808,0-1.175,0.848-1.175,2.255s0.368,2.255,1.175,2.255
			s1.175-0.848,1.175-2.255S27.759,228.159,26.951,228.159z"/>
		<path d="M31.447,233.148h-0.752v-3.99h-1.311v-0.56c0.912-0.063,1.287-0.151,1.511-1.071h0.552V233.148z"/>
	</g>
	<line class="st0" x1="25.305" y1="240.235" x2="39.478" y2="240.235"/>
	<line class="st0" x1="4.045" y1="240.235" x2="18.218" y2="240.235"/>
	<line class="st1" x1="25.305" y1="243.778" x2="25.305" y2="236.692"/>
	<line class="st1" x1="18.218" y1="236.692" x2="18.218" y2="243.778"/>
	<polyline class="st2" points="39.478,222.52 39.478,255.118 4.045,255.118 4.045,222.52 39.478,222.52 	"/>
	<g>
	</g>
	<line class="st1" x1="39.478" y1="240.235" x2="216.643" y2="240.237"/>
	<g>
		<path d="M17.204,260.006h4.662v0.688h-1.943v5.054h-0.776v-5.054h-1.943V260.006z"/>
		<path d="M24.851,265.747h-0.752v-3.99h-1.311v-0.56c0.912-0.063,1.287-0.151,1.511-1.071h0.552V265.747z"/>
	</g>
	<line class="st0" x1="25.304" y1="272.833" x2="39.477" y2="272.833"/>
	<line class="st0" x1="4.044" y1="272.833" x2="18.217" y2="272.833"/>
	<line class="st1" x1="25.304" y1="276.377" x2="25.304" y2="269.291"/>
	<line class="st1" x1="18.217" y1="269.291" x2="18.217" y2="276.377"/>
	<polyline class="st2" points="39.477,255.118 39.477,287.717 4.044,287.717 4.044,255.118 39.477,255.118 	"/>
	<g>
	</g>
	<path class="st1" d="M223.728,276.378c-1.957,0-3.544-1.587-3.544-3.544s1.586-3.544,3.544-3.544"/>
	<path class="st1" d="M244.988,269.291c1.957,0,3.542,1.587,3.542,3.544s-1.586,3.544-3.542,3.544"/>
	<g>
		<path d="M224.573,265.748h-0.776v-5.741h2.655c0.943,0,1.887,0.328,1.887,1.544c0,0.847-0.432,1.159-0.8,1.375
			c0.328,0.136,0.656,0.279,0.688,1.079l0.049,1.04c0.008,0.319,0.048,0.439,0.287,0.575v0.128h-0.951
			c-0.112-0.352-0.136-1.224-0.136-1.439c0-0.472-0.097-1.023-1.023-1.023h-1.879V265.748z M224.573,262.622h1.799
			c0.567,0,1.167-0.145,1.167-0.992c0-0.887-0.647-0.959-1.031-0.959h-1.935V262.622z"/>
		<path d="M231.739,265.748h-0.751v-3.99h-1.312v-0.56c0.911-0.063,1.287-0.151,1.511-1.071h0.552V265.748z"/>
		<path d="M235.1,265.9c-1.615,0-1.927-1.72-1.927-2.887c0-1.168,0.312-2.887,1.927-2.887s1.927,1.719,1.927,2.887
			C237.027,264.181,236.715,265.9,235.1,265.9z M235.1,260.759c-0.808,0-1.175,0.848-1.175,2.255s0.367,2.255,1.175,2.255
			s1.176-0.848,1.176-2.255S235.908,260.759,235.1,260.759z"/>
		<path d="M239.548,265.9c-1.615,0-1.927-1.72-1.927-2.887c0-1.168,0.312-2.887,1.927-2.887s1.927,1.719,1.927,2.887
			C241.475,264.181,241.164,265.9,239.548,265.9z M239.548,260.759c-0.808,0-1.175,0.848-1.175,2.255s0.367,2.255,1.175,2.255
			s1.176-0.848,1.176-2.255S240.356,260.759,239.548,260.759z"/>
		<path d="M244.044,265.748h-0.751v-3.99h-1.312v-0.56c0.911-0.063,1.287-0.151,1.511-1.071h0.552V265.748z"/>
	</g>
	<line class="st0" x1="248.53" y1="272.835" x2="252.074" y2="272.835"/>
	<line class="st0" x1="216.641" y1="272.835" x2="220.184" y2="272.835"/>
	<g>
		<path d="M227.614,276.378h-0.776v-5.741h2.655c0.943,0,1.887,0.328,1.887,1.544c0,0.847-0.432,1.159-0.8,1.375
			c0.328,0.136,0.656,0.279,0.688,1.079l0.049,1.039c0.008,0.32,0.048,0.44,0.287,0.576v0.128h-0.951
			c-0.112-0.352-0.136-1.224-0.136-1.439c0-0.472-0.097-1.023-1.023-1.023h-1.879V276.378z M227.614,273.252h1.799
			c0.567,0,1.167-0.145,1.167-0.992c0-0.887-0.647-0.959-1.031-0.959h-1.935V273.252z"/>
		<path d="M236.836,276.378h-4.238v-5.741h4.182v0.688h-3.406v1.76h3.143v0.688h-3.143v1.919h3.463V276.378z"/>
		<path d="M241.315,272.316c-0.04-0.888-0.775-1.168-1.423-1.168c-0.487,0-1.312,0.137-1.312,1.008c0,0.487,0.344,0.647,0.68,0.728
			l1.64,0.376c0.743,0.176,1.303,0.623,1.303,1.535c0,1.359-1.263,1.735-2.246,1.735c-1.063,0-1.479-0.32-1.735-0.552
			c-0.488-0.44-0.584-0.92-0.584-1.455h0.728c0,1.039,0.848,1.343,1.583,1.343c0.56,0,1.504-0.144,1.504-0.968
			c0-0.6-0.28-0.791-1.224-1.016l-1.176-0.271c-0.375-0.088-1.223-0.352-1.223-1.352c0-0.896,0.583-1.774,1.975-1.774
			c2.007,0,2.207,1.199,2.238,1.831H241.315z"/>
	</g>
	<rect x="216.643" y="255.118" class="st2" width="35.433" height="32.597"/>
	<line class="st1" x1="39.476" y1="272.833" x2="216.641" y2="272.835"/>
	<g>
		<path d="M223.286,299.951h2.911v0.688h-3.687v-5.741h0.775V299.951z"/>
		<path d="M227.862,298.968l-0.6,1.671h-0.799l2.158-5.741h0.88l2.079,5.741h-0.848l-0.568-1.671H227.862z M229.885,298.28
			l-0.848-2.527h-0.016l-0.92,2.527H229.885z"/>
		<path d="M232.279,294.898h2.526c1.071,0,1.623,0.664,1.623,1.447c0,0.376-0.136,0.903-0.768,1.199
			c0.376,0.152,1.04,0.416,1.04,1.399c0,0.92-0.68,1.695-1.951,1.695h-2.471V294.898z M233.054,297.328h1.399
			c0.743,0,1.199-0.224,1.199-0.927c0-0.536-0.328-0.84-1.191-0.84h-1.407V297.328z M233.054,299.975h1.655
			c0.808,0,1.215-0.407,1.215-1.047c0-0.808-0.711-0.968-1.343-0.968h-1.527V299.975z"/>
		<path d="M241.949,300.639h-4.238v-5.741h4.182v0.688h-3.406v1.759h3.143v0.688h-3.143v1.919h3.463V300.639z"/>
		<path d="M243.742,299.951h2.911v0.688h-3.687v-5.741h0.775V299.951z"/>
	</g>
	<g>
		<path d="M232.779,309.496h-0.527l0.231-1.679h-0.999l-0.232,1.679h-0.527l0.232-1.679h-0.824l0.072-0.504h0.823l0.152-1.136
			h-0.823l0.071-0.504h0.823l0.232-1.679h0.535l-0.231,1.679h0.991l0.232-1.679h0.535l-0.231,1.679h0.823l-0.072,0.504h-0.823
			l-0.16,1.136h0.824l-0.072,0.504h-0.823L232.779,309.496z M231.715,306.178l-0.159,1.136h0.999l0.152-1.136H231.715z"/>
		<path d="M234.709,305.89c0-1.831,1.336-2.015,1.943-2.015c0.976,0,1.759,0.632,1.759,1.68c0,1.007-0.663,1.431-1.503,1.879
			l-0.584,0.319c-0.768,0.424-0.936,0.863-0.968,1.079h3.055v0.664h-3.846c0.04-1.167,0.567-1.791,1.319-2.23l0.743-0.432
			c0.6-0.344,1.031-0.576,1.031-1.312c0-0.448-0.287-1.016-1.111-1.016c-1.063,0-1.111,0.991-1.135,1.383H234.709z"/>
	</g>
	<polyline class="st0" points="220.182,298.343 216.638,298.343 216.641,312.518 252.073,312.518 252.073,298.346 248.53,298.346 	
		"/>
	<rect x="216.641" y="287.717" class="st2" width="35.431" height="35.431"/>
	<line class="st1" x1="4.044" y1="305.432" x2="216.641" y2="305.432"/>
	<g>
		<path d="M11.975,43.229H11.2v-5.741h2.654c0.944,0,1.887,0.328,1.887,1.543c0,0.848-0.432,1.16-0.799,1.375
			c0.328,0.136,0.655,0.28,0.688,1.079l0.048,1.04c0.008,0.32,0.048,0.44,0.288,0.576v0.128h-0.952
			c-0.112-0.352-0.136-1.223-0.136-1.439c0-0.472-0.096-1.023-1.023-1.023h-1.879V43.229z M11.975,40.103h1.799
			c0.567,0,1.167-0.144,1.167-0.991c0-0.888-0.648-0.959-1.032-0.959h-1.935V40.103z"/>
		<path d="M19.143,43.229h-0.752v-3.99H17.08v-0.56c0.912-0.064,1.287-0.152,1.511-1.072h0.552V43.229z"/>
		<path d="M22.503,43.381c-1.615,0-1.927-1.719-1.927-2.886c0-1.167,0.312-2.887,1.927-2.887s1.927,1.719,1.927,2.887
			C24.43,41.662,24.118,43.381,22.503,43.381z M22.503,38.24c-0.808,0-1.175,0.848-1.175,2.255s0.368,2.255,1.175,2.255
			s1.175-0.848,1.175-2.255S23.31,38.24,22.503,38.24z"/>
		<path d="M26.951,43.381c-1.615,0-1.927-1.719-1.927-2.886c0-1.167,0.312-2.887,1.927-2.887s1.927,1.719,1.927,2.887
			C28.878,41.662,28.566,43.381,26.951,43.381z M26.951,38.24c-0.808,0-1.175,0.848-1.175,2.255s0.368,2.255,1.175,2.255
			s1.175-0.848,1.175-2.255S27.758,38.24,26.951,38.24z"/>
		<path d="M31.447,43.229h-0.752v-3.99h-1.311v-0.56c0.912-0.064,1.287-0.152,1.511-1.072h0.552V43.229z"/>
	</g>
	<line class="st0" x1="25.304" y1="50.315" x2="39.477" y2="50.315"/>
	<line class="st0" x1="4.044" y1="50.315" x2="18.217" y2="50.315"/>
	<line class="st1" x1="25.304" y1="53.859" x2="25.304" y2="46.773"/>
	<line class="st1" x1="18.217" y1="46.773" x2="18.217" y2="53.859"/>
	<polyline class="st2" points="39.477,32.6 39.477,68.034 4.044,68.034 4.044,32.6 39.477,32.6 	"/>
	<g>
	</g>
</g>
<g id="儗僀儎乕_2">
</g>
</svg>
