<?xml version="1.0" encoding="utf-8"?>
<!-- Generator: Adobe Illustrator 28.2.0, SVG Export Plug-In . SVG Version: 6.00 Build 0)  -->
<svg version="1.1" id="儗僀儎乕_1" xmlns="http://www.w3.org/2000/svg" xmlns:xlink="http://www.w3.org/1999/xlink" x="0px"
	 y="0px" width="511.236px" height="188.836px" viewBox="0 0 511.236 188.836" style="enable-background:new 0 0 511.236 188.836;"
	 xml:space="preserve">
<style type="text/css">
	.st0{fill:none;stroke:#000000;}
	.st1{fill:#FFFFFF;}
	.st2{fill:none;stroke:#000000;stroke-linecap:square;}
</style>
<line class="st0" x1="0.5" y1="56.679" x2="0.5" y2="91.28"/>
<line class="st0" x1="510.736" y1="56.679" x2="510.736" y2="91.28"/>
<line class="st0" x1="406.361" y1="73.978" x2="510.736" y2="73.978"/>
<line class="st0" x1="83.95" y1="73.978" x2="406.361" y2="73.978"/>
<line class="st0" x1="0.5" y1="73.978" x2="83.95" y2="73.978"/>
<g>
	<rect x="35.103" y="67.056" class="st1" width="13.842" height="13.843"/>
	<line class="st0" x1="48.944" y1="67.056" x2="48.944" y2="80.898"/>
	<line class="st0" x1="35.103" y1="80.898" x2="35.103" y2="67.056"/>
</g>
<g>
	<path d="M29.443,55.646h4.662v0.688h-1.943v5.053h-0.776v-5.053h-1.943V55.646z"/>
	<path d="M34.579,61.386h-0.704v-4.182h0.664v0.696h0.016c0.28-0.488,0.647-0.816,1.175-0.816c0.088,0,0.128,0.008,0.184,0.024
		v0.728H35.65c-0.656,0-1.071,0.512-1.071,1.12V61.386z"/>
	<path d="M36.579,56.445v-0.799h0.704v0.799H36.579z M37.282,61.386h-0.704v-4.182h0.704V61.386z"/>
	<path d="M41.809,61.043c0,0.6-0.008,2.103-1.943,2.103c-0.496,0-1.463-0.136-1.599-1.248h0.704
		c0.128,0.664,0.775,0.664,0.943,0.664c1.215,0,1.191-0.976,1.191-1.471v-0.176h-0.016v0.032c-0.184,0.296-0.551,0.56-1.111,0.56
		c-1.423,0-1.839-1.335-1.839-2.335c0-1.175,0.632-2.087,1.743-2.087c0.759,0,1.079,0.472,1.247,0.712h0.016v-0.592h0.664V61.043z
		 M39.994,60.899c0.448,0,1.144-0.296,1.144-1.407c0-0.68-0.112-1.775-1.127-1.775c-1.087,0-1.144,1.031-1.144,1.567
		C38.866,60.203,39.226,60.899,39.994,60.899z"/>
	<path d="M46.257,61.043c0,0.6-0.008,2.103-1.943,2.103c-0.496,0-1.463-0.136-1.599-1.248h0.704
		c0.128,0.664,0.775,0.664,0.943,0.664c1.215,0,1.191-0.976,1.191-1.471v-0.176h-0.016v0.032c-0.184,0.296-0.551,0.56-1.111,0.56
		c-1.423,0-1.839-1.335-1.839-2.335c0-1.175,0.632-2.087,1.743-2.087c0.759,0,1.079,0.472,1.247,0.712h0.016v-0.592h0.664V61.043z
		 M44.442,60.899c0.448,0,1.144-0.296,1.144-1.407c0-0.68-0.112-1.775-1.127-1.775c-1.087,0-1.144,1.031-1.144,1.567
		C43.314,60.203,43.674,60.899,44.442,60.899z"/>
	<path d="M50.785,60.075c-0.024,0.2-0.216,0.792-0.744,1.143c-0.192,0.128-0.464,0.288-1.135,0.288
		c-1.175,0-1.871-0.888-1.871-2.095c0-1.295,0.624-2.327,2.007-2.327c1.208,0,1.799,0.959,1.799,2.439h-3.054
		c0,0.871,0.408,1.375,1.215,1.375c0.664,0,1.056-0.512,1.08-0.823H50.785z M50.113,58.964c-0.04-0.647-0.312-1.247-1.167-1.247
		c-0.648,0-1.16,0.6-1.16,1.247H50.113z"/>
	<path d="M52.482,61.386h-0.704v-4.182h0.664v0.696h0.016c0.28-0.488,0.647-0.816,1.175-0.816c0.088,0,0.128,0.008,0.184,0.024
		v0.728h-0.264c-0.656,0-1.071,0.512-1.071,1.12V61.386z"/>
</g>
<g>
	<line class="st0" x1="404.666" y1="25.203" x2="510.736" y2="25.203"/>
	<line class="st0" x1="83.95" y1="25.203" x2="404.666" y2="25.203"/>
	<line class="st0" x1="0.5" y1="25.203" x2="83.95" y2="25.203"/>
	<g>
		<g>
			<rect x="420.769" y="7.248" class="st1" width="76.127" height="34.602"/>
			<rect x="420.769" y="7.248" class="st0" width="76.127" height="34.602"/>
		</g>
		<rect x="436.71" class="st1" width="45.648" height="10.145"/>
	</g>
	<g>
		<path d="M453.671,22.029h0.752v5.741h-0.871l-2.919-4.637h-0.016v4.637h-0.752v-5.741h0.92l2.87,4.637h0.016V22.029z"/>
		<path d="M458.281,27.77v-0.608l-0.016-0.016c-0.296,0.488-0.656,0.744-1.327,0.744c-0.616,0-1.359-0.296-1.359-1.295v-3.006h0.703
			v2.774c0,0.688,0.353,0.919,0.808,0.919c0.888,0,1.151-0.784,1.151-1.391v-2.303h0.704v4.182H458.281z"/>
		<path d="M460.001,23.588h0.664v0.592h0.016c0.152-0.224,0.512-0.712,1.264-0.712c0.751,0,0.991,0.456,1.111,0.68
			c0.352-0.392,0.632-0.68,1.279-0.68c0.447,0,1.295,0.232,1.295,1.407v2.895h-0.703v-2.703c0-0.576-0.176-0.967-0.775-0.967
			c-0.592,0-0.984,0.56-0.984,1.119v2.551h-0.703v-2.895c0-0.352-0.136-0.775-0.655-0.775c-0.4,0-1.104,0.256-1.104,1.391v2.279
			h-0.704V23.588z"/>
	</g>
	<g>
		<path d="M458.816,5.676c-0.216-1.007-1.056-1.191-1.607-1.191c-1.039,0-1.879,0.768-1.879,2.279c0,1.351,0.479,2.391,1.903,2.391
			c0.503,0,1.375-0.24,1.639-1.575h0.752c-0.32,2.167-2.079,2.263-2.511,2.263c-1.304,0-2.583-0.848-2.583-3.054
			c0-1.767,1.008-2.99,2.679-2.99c1.479,0,2.247,0.919,2.358,1.879H458.816z"/>
		<path d="M460.818,7.843v0.4c0,0.688,0.328,0.936,0.863,0.936c0.72,0,0.92-0.432,0.92-0.992V3.949h0.775v4.189
			c0,1.343-0.879,1.703-1.655,1.703c-1.335,0-1.631-0.896-1.631-1.431V7.843H460.818z"/>
	</g>
	<line class="st0" x1="0.5" y1="7.904" x2="0.5" y2="42.505"/>
	<line class="st0" x1="510.736" y1="7.904" x2="510.736" y2="42.505"/>
	<g>
		<rect x="35.103" y="18.28" class="st1" width="13.842" height="13.843"/>
		<line class="st0" x1="48.944" y1="18.28" x2="48.944" y2="32.122"/>
		<line class="st0" x1="35.103" y1="32.122" x2="35.103" y2="18.28"/>
	</g>
	<g>
		<path d="M29.443,6.869h4.662v0.688h-1.943v5.053h-0.776V7.557h-1.943V6.869z"/>
		<path d="M34.579,12.61h-0.704V8.428h0.664v0.696h0.016c0.28-0.488,0.647-0.816,1.175-0.816c0.088,0,0.128,0.008,0.184,0.024V9.06
			H35.65c-0.656,0-1.071,0.512-1.071,1.12V12.61z"/>
		<path d="M36.579,7.669V6.869h0.704v0.799H36.579z M37.282,12.61h-0.704V8.428h0.704V12.61z"/>
		<path d="M41.809,12.266c0,0.6-0.008,2.103-1.943,2.103c-0.496,0-1.463-0.136-1.599-1.248h0.704
			c0.128,0.664,0.775,0.664,0.943,0.664c1.215,0,1.191-0.976,1.191-1.471v-0.176h-0.016v0.032c-0.184,0.296-0.551,0.56-1.111,0.56
			c-1.423,0-1.839-1.335-1.839-2.335c0-1.175,0.632-2.087,1.743-2.087c0.759,0,1.079,0.472,1.247,0.712h0.016V8.428h0.664V12.266z
			 M39.994,12.122c0.448,0,1.144-0.296,1.144-1.407c0-0.68-0.112-1.775-1.127-1.775c-1.087,0-1.144,1.031-1.144,1.567
			C38.866,11.427,39.226,12.122,39.994,12.122z"/>
		<path d="M46.257,12.266c0,0.6-0.008,2.103-1.943,2.103c-0.496,0-1.463-0.136-1.599-1.248h0.704
			c0.128,0.664,0.775,0.664,0.943,0.664c1.215,0,1.191-0.976,1.191-1.471v-0.176h-0.016v0.032c-0.184,0.296-0.551,0.56-1.111,0.56
			c-1.423,0-1.839-1.335-1.839-2.335c0-1.175,0.632-2.087,1.743-2.087c0.759,0,1.079,0.472,1.247,0.712h0.016V8.428h0.664V12.266z
			 M44.442,12.122c0.448,0,1.144-0.296,1.144-1.407c0-0.68-0.112-1.775-1.127-1.775c-1.087,0-1.144,1.031-1.144,1.567
			C43.314,11.427,43.674,12.122,44.442,12.122z"/>
		<path d="M50.785,11.299c-0.024,0.2-0.216,0.792-0.744,1.143c-0.192,0.128-0.464,0.288-1.135,0.288
			c-1.175,0-1.871-0.888-1.871-2.095c0-1.295,0.624-2.327,2.007-2.327c1.208,0,1.799,0.959,1.799,2.439h-3.054
			c0,0.871,0.408,1.375,1.215,1.375c0.664,0,1.056-0.512,1.08-0.823H50.785z M50.113,10.187c-0.04-0.647-0.312-1.247-1.167-1.247
			c-0.648,0-1.16,0.6-1.16,1.247H50.113z"/>
		<path d="M52.482,12.61h-0.704V8.428h0.664v0.696h0.016c0.28-0.488,0.647-0.816,1.175-0.816c0.088,0,0.128,0.008,0.184,0.024V9.06
			h-0.264c-0.656,0-1.071,0.512-1.071,1.12V12.61z"/>
	</g>
</g>
<g>
	<g>
		<rect x="420.769" y="56.023" class="st1" width="76.127" height="34.602"/>
		<polyline class="st2" points="421.084,56.023 496.896,56.023 496.896,90.625 420.769,90.625 420.769,56.023 		"/>
	</g>
	<rect x="436.71" y="48.775" class="st1" width="45.648" height="10.145"/>
</g>
<g>
	<path d="M454.515,70.804h0.752v5.741h-0.871l-2.919-4.637h-0.016v4.637h-0.752v-5.741h0.92l2.87,4.637h0.016V70.804z"/>
	<path d="M459.125,76.545v-0.608l-0.016-0.016c-0.296,0.488-0.656,0.744-1.327,0.744c-0.616,0-1.359-0.296-1.359-1.295v-3.006h0.703
		v2.774c0,0.688,0.353,0.919,0.808,0.919c0.888,0,1.151-0.784,1.151-1.391v-2.303h0.704v4.182H459.125z"/>
	<path d="M460.845,72.363h0.664v0.592h0.016c0.152-0.224,0.512-0.712,1.264-0.712c0.751,0,0.991,0.456,1.111,0.68
		c0.352-0.392,0.632-0.68,1.279-0.68c0.447,0,1.295,0.232,1.295,1.407v2.895h-0.703v-2.703c0-0.576-0.176-0.967-0.775-0.967
		c-0.592,0-0.984,0.56-0.984,1.119v2.551h-0.703V73.65c0-0.352-0.136-0.775-0.655-0.775c-0.4,0-1.104,0.256-1.104,1.391v2.279
		h-0.704V72.363z"/>
</g>
<g>
	<path d="M455.705,52.725h0.751v5.741h-0.871l-2.919-4.637h-0.016v4.637h-0.752v-5.741h0.92l2.87,4.637h0.017V52.725z"/>
	<path d="M461.704,54.452c-0.216-1.007-1.056-1.191-1.607-1.191c-1.039,0-1.879,0.768-1.879,2.279c0,1.351,0.479,2.391,1.903,2.391
		c0.503,0,1.375-0.24,1.639-1.575h0.752c-0.32,2.167-2.079,2.263-2.511,2.263c-1.304,0-2.583-0.848-2.583-3.054
		c0-1.767,1.008-2.99,2.679-2.99c1.479,0,2.247,0.919,2.358,1.879H461.704z"/>
	<path d="M463.706,56.618v0.4c0,0.688,0.328,0.936,0.864,0.936c0.719,0,0.919-0.432,0.919-0.992v-4.237h0.775v4.189
		c0,1.343-0.879,1.703-1.655,1.703c-1.335,0-1.631-0.896-1.631-1.431v-0.568H463.706z"/>
</g>
<line class="st0" x1="0.5" y1="122.753" x2="510.736" y2="122.753"/>
<g>
	<g>
		<rect x="420.769" y="104.8" class="st1" width="76.127" height="34.6"/>
		<rect x="420.769" y="104.8" class="st0" width="76.127" height="34.6"/>
	</g>
	<rect x="428.801" y="97.551" class="st1" width="61.464" height="10.144"/>
</g>
<g>
	<path d="M454.515,119.578h0.752v5.741h-0.871l-2.919-4.638h-0.016v4.638h-0.752v-5.741h0.92l2.87,4.638h0.016V119.578z"/>
	<path d="M459.125,125.32v-0.607l-0.016-0.017c-0.296,0.488-0.656,0.744-1.327,0.744c-0.616,0-1.359-0.296-1.359-1.296v-3.006h0.703
		v2.774c0,0.688,0.353,0.92,0.808,0.92c0.888,0,1.151-0.784,1.151-1.392v-2.303h0.704v4.182H459.125z"/>
	<path d="M460.845,121.138h0.664v0.592h0.016c0.152-0.224,0.512-0.712,1.264-0.712c0.751,0,0.991,0.456,1.111,0.68
		c0.352-0.392,0.632-0.68,1.279-0.68c0.447,0,1.295,0.232,1.295,1.407v2.895h-0.703v-2.702c0-0.576-0.176-0.968-0.775-0.968
		c-0.592,0-0.984,0.56-0.984,1.119v2.551h-0.703v-2.895c0-0.352-0.136-0.775-0.655-0.775c-0.4,0-1.104,0.256-1.104,1.392v2.278
		h-0.704V121.138z"/>
</g>
<g>
	<path d="M451.693,104.171h2.519v3.07h-0.504l-0.184-0.743c-0.392,0.543-1.111,0.896-1.896,0.896c-0.983,0-1.463-0.36-1.759-0.648
		c-0.879-0.831-0.903-1.814-0.903-2.422c0-1.399,0.848-2.975,2.719-2.975c1.071,0,2.263,0.607,2.431,1.895h-0.752
		c-0.248-0.999-1.087-1.207-1.719-1.207c-1.031,0-1.879,0.823-1.879,2.326c0,1.168,0.384,2.367,1.911,2.367
		c0.287,0,0.751-0.032,1.175-0.368c0.504-0.399,0.632-0.911,0.632-1.526h-1.791V104.171z"/>
	<path d="M457.917,107.394c-2.143,0-2.799-1.783-2.799-3.022s0.656-3.022,2.799-3.022s2.799,1.783,2.799,3.022
		S460.059,107.394,457.917,107.394z M457.917,102.036c-1.247,0-1.999,0.983-1.999,2.335c0,1.351,0.752,2.334,1.999,2.334
		s1.999-0.983,1.999-2.334C459.916,103.02,459.164,102.036,457.917,102.036z"/>
	<path d="M460.823,101.501h4.661v0.688h-1.943v5.053h-0.775v-5.053h-1.942V101.501z"/>
	<path d="M468.389,107.394c-2.143,0-2.799-1.783-2.799-3.022s0.656-3.022,2.799-3.022s2.799,1.783,2.799,3.022
		S470.532,107.394,468.389,107.394z M468.389,102.036c-1.247,0-1.999,0.983-1.999,2.335c0,1.351,0.752,2.334,1.999,2.334
		s1.999-0.983,1.999-2.334C470.388,103.02,469.636,102.036,468.389,102.036z"/>
</g>
<line class="st0" x1="0.5" y1="105.453" x2="0.5" y2="140.059"/>
<line class="st0" x1="510.736" y1="105.453" x2="510.736" y2="140.059"/>
<line class="st0" x1="0.5" y1="171.532" x2="510.736" y2="171.532"/>
<g>
	<g>
		<rect x="420.769" y="153.579" class="st1" width="76.127" height="34.599"/>
		<rect x="420.769" y="153.579" class="st0" width="76.127" height="34.599"/>
	</g>
	<rect x="428.801" y="146.329" class="st1" width="61.464" height="10.145"/>
</g>
<g>
	<path d="M454.515,168.356h0.752v5.741h-0.871l-2.919-4.638h-0.016v4.638h-0.752v-5.741h0.92l2.87,4.638h0.016V168.356z"/>
	<path d="M459.125,174.097v-0.607l-0.016-0.017c-0.296,0.488-0.656,0.744-1.327,0.744c-0.616,0-1.359-0.296-1.359-1.296v-3.006
		h0.703v2.774c0,0.688,0.353,0.92,0.808,0.92c0.888,0,1.151-0.784,1.151-1.392v-2.303h0.704v4.182H459.125z"/>
	<path d="M460.845,169.915h0.664v0.592h0.016c0.152-0.224,0.512-0.712,1.264-0.712c0.751,0,0.991,0.456,1.111,0.68
		c0.352-0.392,0.632-0.68,1.279-0.68c0.447,0,1.295,0.232,1.295,1.407v2.895h-0.703v-2.702c0-0.576-0.176-0.968-0.775-0.968
		c-0.592,0-0.984,0.56-0.984,1.119v2.551h-0.703v-2.895c0-0.352-0.136-0.775-0.655-0.775c-0.4,0-1.104,0.256-1.104,1.392v2.278
		h-0.704V169.915z"/>
</g>
<g>
	<path d="M447.997,155.332h2.911v0.688h-3.687v-5.741h0.775V155.332z"/>
	<path d="M452.573,154.349l-0.6,1.671h-0.799l2.158-5.741h0.88l2.079,5.741h-0.848l-0.568-1.671H452.573z M454.596,153.661
		l-0.848-2.527h-0.016l-0.92,2.527H454.596z"/>
	<path d="M456.99,150.279h2.526c1.071,0,1.623,0.664,1.623,1.447c0,0.376-0.136,0.903-0.768,1.199
		c0.376,0.152,1.04,0.416,1.04,1.399c0,0.92-0.68,1.695-1.951,1.695h-2.471V150.279z M457.765,152.709h1.399
		c0.743,0,1.199-0.224,1.199-0.927c0-0.536-0.328-0.84-1.191-0.84h-1.407V152.709z M457.765,155.356h1.655
		c0.808,0,1.215-0.407,1.215-1.047c0-0.808-0.711-0.968-1.343-0.968h-1.527V155.356z"/>
	<path d="M466.66,156.02h-4.238v-5.741h4.182v0.688h-3.406v1.759h3.143v0.688h-3.143v1.919h3.463V156.02z"/>
	<path d="M468.453,155.332h2.911v0.688h-3.687v-5.741h0.775V155.332z"/>
</g>
<line class="st0" x1="0.5" y1="154.232" x2="0.5" y2="188.836"/>
<line class="st0" x1="510.736" y1="154.232" x2="510.736" y2="188.836"/>
</svg>
