<?xml version="1.0" encoding="utf-8"?>
<!-- Generator: Adobe Illustrator 28.2.0, SVG Export Plug-In . SVG Version: 6.00 Build 0)  -->
<svg version="1.1" xmlns="http://www.w3.org/2000/svg" xmlns:xlink="http://www.w3.org/1999/xlink" x="0px" y="0px"
	 width="375.591px" height="152.166px" viewBox="0 0 375.591 152.166" style="enable-background:new 0 0 375.591 152.166;"
	 xml:space="preserve">
<style type="text/css">
	.st0{fill:#E6E6E6;}
	.st1{fill:none;stroke:#000000;stroke-width:0.5;stroke-miterlimit:10;}
	.st2{fill:none;stroke:#000000;stroke-width:0.5;stroke-miterlimit:10;stroke-dasharray:1;}
	.st3{fill:#3574F2;}
</style>
<g id="レイヤー_2">
	<g>
		<rect x="54.331" y="24.356" class="st0" width="94.488" height="14.173"/>
	</g>
	<g>
		<rect x="117.44" y="109.396" class="st0" width="31.379" height="14.173"/>
	</g>
	<g>
		<rect x="54.331" y="52.703" class="st0" width="62.992" height="14.173"/>
	</g>
	<g>
		<rect x="243.307" y="52.703" class="st0" width="62.992" height="14.173"/>
	</g>
	<g>
		<rect x="243.307" y="24.356" class="st0" width="12.742" height="14.173"/>
	</g>
	<g>
		<rect x="306.156" y="109.396" class="st0" width="12.742" height="14.173"/>
	</g>
</g>
<g id="レイヤー_1">
	<g>
		<path d="M4.926,34.986H0.688v-5.741H4.87v0.688H1.464v1.759h3.142v0.688H1.464v1.919h3.462V34.986z"/>
		<path d="M9.254,34.986H8.359l-1.04-1.575l-1.007,1.575H5.424l1.471-2.151l-1.399-2.031H6.4l0.967,1.471l0.968-1.471h0.863
			l-1.415,2.031L9.254,34.986z"/>
		<path d="M13.406,33.675c-0.024,0.2-0.216,0.792-0.744,1.144c-0.192,0.128-0.464,0.288-1.135,0.288
			c-1.175,0-1.871-0.888-1.871-2.095c0-1.295,0.624-2.327,2.007-2.327c1.208,0,1.799,0.959,1.799,2.439h-3.055
			c0,0.872,0.408,1.375,1.215,1.375c0.664,0,1.056-0.512,1.08-0.824H13.406z M12.734,32.563c-0.04-0.647-0.312-1.247-1.167-1.247
			c-0.648,0-1.16,0.6-1.16,1.247H12.734z"/>
		<path d="M16.919,32.212c-0.088-0.56-0.4-0.896-0.992-0.896c-0.871,0-1.151,0.832-1.151,1.575c0,0.72,0.176,1.607,1.144,1.607
			c0.472,0,0.879-0.352,1-0.991h0.68c-0.072,0.664-0.48,1.599-1.703,1.599c-1.175,0-1.871-0.888-1.871-2.095
			c0-1.295,0.624-2.327,2.007-2.327c1.096,0,1.511,0.8,1.567,1.527H16.919z"/>
		<path d="M21.031,34.986v-0.607l-0.016-0.016c-0.296,0.488-0.656,0.744-1.328,0.744c-0.616,0-1.359-0.296-1.359-1.295v-3.006h0.703
			v2.774c0,0.688,0.352,0.919,0.808,0.919c0.888,0,1.151-0.784,1.151-1.391v-2.303h0.704v4.182H21.031z"/>
		<path d="M23.616,31.388v2.719c0,0.328,0.28,0.328,0.424,0.328h0.248v0.552c-0.256,0.024-0.456,0.056-0.527,0.056
			c-0.696,0-0.848-0.392-0.848-0.896v-2.759h-0.568v-0.583h0.568v-1.167h0.704v1.167h0.671v0.583H23.616z"/>
		<path d="M28.527,33.675c-0.024,0.2-0.216,0.792-0.744,1.144c-0.192,0.128-0.464,0.288-1.135,0.288
			c-1.175,0-1.871-0.888-1.871-2.095c0-1.295,0.624-2.327,2.007-2.327c1.208,0,1.799,0.959,1.799,2.439h-3.054
			c0,0.872,0.408,1.375,1.215,1.375c0.664,0,1.056-0.512,1.08-0.824H28.527z M27.855,32.563c-0.04-0.647-0.312-1.247-1.167-1.247
			c-0.648,0-1.16,0.6-1.16,1.247H27.855z"/>
	</g>
	<g>
		<path d="M0.592,57.592h2.526c1.071,0,1.623,0.664,1.623,1.447c0,0.375-0.136,0.903-0.768,1.199c0.376,0.152,1.04,0.416,1.04,1.399
			c0,0.92-0.68,1.695-1.951,1.695H0.592V57.592z M1.368,60.022h1.399c0.744,0,1.199-0.224,1.199-0.928
			c0-0.536-0.328-0.839-1.191-0.839H1.368V60.022z M1.368,62.669h1.655c0.808,0,1.215-0.408,1.215-1.047
			c0-0.808-0.712-0.968-1.343-0.968H1.368V62.669z"/>
		<path d="M8.583,63.333v-0.607l-0.016-0.016c-0.296,0.488-0.656,0.744-1.328,0.744c-0.616,0-1.359-0.296-1.359-1.295v-3.006h0.703
			v2.774c0,0.688,0.352,0.919,0.808,0.919c0.888,0,1.151-0.784,1.151-1.391v-2.303h0.704v4.182H8.583z"/>
		<path d="M12.679,60.342c-0.008-0.264-0.104-0.704-0.992-0.704c-0.216,0-0.832,0.072-0.832,0.591c0,0.344,0.216,0.424,0.76,0.56
			l0.704,0.176c0.872,0.216,1.175,0.536,1.175,1.104c0,0.863-0.711,1.383-1.655,1.383c-1.655,0-1.775-0.959-1.799-1.463h0.68
			c0.024,0.328,0.12,0.855,1.111,0.855c0.504,0,0.959-0.2,0.959-0.664c0-0.336-0.232-0.448-0.832-0.6l-0.815-0.2
			c-0.584-0.144-0.968-0.439-0.968-1.015c0-0.919,0.76-1.335,1.583-1.335c1.495,0,1.599,1.104,1.599,1.312H12.679z"/>
		<path d="M16.919,59.151h0.775c-0.488,1.367-0.967,2.734-1.503,4.102c-0.664,1.695-0.736,1.791-1.639,1.791
			c-0.104,0-0.184-0.032-0.296-0.064v-0.64c0.088,0.032,0.232,0.072,0.424,0.072c0.368,0,0.408-0.104,0.744-0.968l-1.551-4.293h0.8
			l1.111,3.406h0.016L16.919,59.151z"/>
	</g>
	<g>
		<path d="M0.647,85.939h2.327c1.495,0,2.415,1.135,2.415,2.791c0,1.287-0.56,2.95-2.447,2.95H0.647V85.939z M1.423,91.016h1.503
			c1.007,0,1.663-0.792,1.663-2.239s-0.664-2.175-1.719-2.175H1.423V91.016z"/>
		<path d="M7.999,87.378c1.335,0,1.943,1.127,1.943,2.207c0,1.079-0.607,2.207-1.943,2.207c-1.335,0-1.943-1.127-1.943-2.207
			C6.056,88.505,6.664,87.378,7.999,87.378z M7.999,91.184c1.007,0,1.215-1.04,1.215-1.599s-0.208-1.599-1.215-1.599
			s-1.215,1.04-1.215,1.599S6.991,91.184,7.999,91.184z"/>
		<path d="M14.149,91.68h-0.704v-2.575c0-0.728-0.208-1.095-0.896-1.095c-0.4,0-1.104,0.256-1.104,1.391v2.279h-0.704v-4.182h0.664
			v0.592h0.016c0.152-0.224,0.544-0.712,1.264-0.712c0.647,0,1.463,0.264,1.463,1.455V91.68z"/>
		<path d="M18.742,90.368c-0.024,0.2-0.216,0.792-0.744,1.144c-0.192,0.128-0.464,0.288-1.135,0.288
			c-1.175,0-1.871-0.888-1.871-2.095c0-1.295,0.624-2.327,2.007-2.327c1.208,0,1.799,0.959,1.799,2.439h-3.055
			c0,0.872,0.408,1.375,1.215,1.375c0.664,0,1.056-0.512,1.08-0.824H18.742z M18.07,89.257c-0.04-0.647-0.312-1.247-1.167-1.247
			c-0.648,0-1.16,0.6-1.16,1.247H18.07z"/>
	</g>
	<g>
		<path d="M4.926,120.025H0.688v-5.741H4.87v0.688H1.464v1.759h3.142v0.688H1.464v1.919h3.462V120.025z"/>
		<path d="M6.656,120.025H5.952v-4.182h0.664v0.695h0.016c0.28-0.487,0.647-0.815,1.175-0.815c0.088,0,0.128,0.008,0.184,0.024
			v0.728H7.727c-0.656,0-1.071,0.512-1.071,1.119V120.025z"/>
		<path d="M9.32,120.025H8.616v-4.182H9.28v0.695h0.016c0.28-0.487,0.647-0.815,1.175-0.815c0.088,0,0.128,0.008,0.184,0.024v0.728
			h-0.264c-0.656,0-1.071,0.512-1.071,1.119V120.025z"/>
		<path d="M12.887,115.724c1.335,0,1.943,1.127,1.943,2.207c0,1.079-0.607,2.207-1.943,2.207c-1.335,0-1.943-1.127-1.943-2.207
			C10.944,116.851,11.552,115.724,12.887,115.724z M12.887,119.53c1.008,0,1.215-1.04,1.215-1.599s-0.208-1.599-1.215-1.599
			c-1.007,0-1.215,1.04-1.215,1.599S11.88,119.53,12.887,119.53z"/>
		<path d="M16.432,120.025h-0.704v-4.182h0.664v0.695h0.016c0.28-0.487,0.647-0.815,1.175-0.815c0.088,0,0.128,0.008,0.184,0.024
			v0.728h-0.264c-0.656,0-1.071,0.512-1.071,1.119V120.025z"/>
	</g>
	<g>
		<path d="M4.926,148.372H0.688v-5.74H4.87v0.688H1.464v1.759h3.142v0.688H1.464v1.918h3.462V148.372z"/>
		<path d="M6.656,148.372H5.952v-4.181h0.664v0.695h0.016c0.28-0.487,0.647-0.815,1.175-0.815c0.088,0,0.128,0.008,0.184,0.024
			v0.728H7.727c-0.656,0-1.071,0.512-1.071,1.119V148.372z"/>
		<path d="M9.32,148.372H8.616v-4.181H9.28v0.695h0.016c0.28-0.487,0.647-0.815,1.175-0.815c0.088,0,0.128,0.008,0.184,0.024v0.728
			h-0.264c-0.656,0-1.071,0.512-1.071,1.119V148.372z"/>
		<path d="M12.887,144.071c1.335,0,1.943,1.127,1.943,2.207s-0.607,2.207-1.943,2.207c-1.335,0-1.943-1.128-1.943-2.207
			S11.552,144.071,12.887,144.071z M12.887,147.877c1.008,0,1.215-1.04,1.215-1.6c0-0.559-0.208-1.599-1.215-1.599
			c-1.007,0-1.215,1.04-1.215,1.599C11.672,146.837,11.88,147.877,12.887,147.877z"/>
		<path d="M16.432,148.372h-0.704v-4.181h0.664v0.695h0.016c0.28-0.487,0.647-0.815,1.175-0.815c0.088,0,0.128,0.008,0.184,0.024
			v0.728h-0.264c-0.656,0-1.071,0.512-1.071,1.119V148.372z"/>
		<path d="M19.28,148.372h-0.775v-5.74h0.775V148.372z"/>
		<path d="M20.648,142.632h2.327c1.496,0,2.415,1.135,2.415,2.791c0,1.287-0.56,2.95-2.447,2.95h-2.295V142.632z M21.424,147.709
			h1.503c1.008,0,1.663-0.792,1.663-2.239c0-1.447-0.664-2.175-1.719-2.175h-1.447V147.709z"/>
	</g>
	<g>
		<path d="M62.853,148.524c-1.615,0-1.927-1.72-1.927-2.887c0-1.167,0.312-2.887,1.927-2.887c1.615,0,1.927,1.719,1.927,2.887
			C64.78,146.805,64.468,148.524,62.853,148.524z M62.853,143.383c-0.808,0-1.175,0.848-1.175,2.255s0.368,2.255,1.175,2.255
			s1.175-0.848,1.175-2.255S63.661,143.383,62.853,143.383z"/>
	</g>
	<g>
		<path d="M251.83,148.524c-1.615,0-1.927-1.72-1.927-2.887c0-1.167,0.312-2.887,1.927-2.887s1.927,1.719,1.927,2.887
			C253.757,146.805,253.445,148.524,251.83,148.524z M251.83,143.383c-0.808,0-1.175,0.848-1.175,2.255s0.367,2.255,1.175,2.255
			s1.176-0.848,1.176-2.255S252.638,143.383,251.83,143.383z"/>
	</g>
	<g>
		<path d="M128.548,148.372h-4.238v-5.741h4.182v0.688h-3.406v1.759h3.142v0.688h-3.142v1.919h3.462V148.372z"/>
		<path d="M130.278,148.372h-0.704v-4.182h0.664v0.695h0.016c0.28-0.487,0.647-0.815,1.175-0.815c0.088,0,0.128,0.008,0.184,0.024
			v0.728h-0.264c-0.656,0-1.071,0.512-1.071,1.119V148.372z"/>
		<path d="M132.942,148.372h-0.704v-4.182h0.664v0.695h0.016c0.28-0.487,0.647-0.815,1.175-0.815c0.088,0,0.128,0.008,0.184,0.024
			v0.728h-0.264c-0.656,0-1.071,0.512-1.071,1.119V148.372z"/>
		<path d="M136.509,144.07c1.335,0,1.943,1.127,1.943,2.207c0,1.079-0.607,2.207-1.943,2.207c-1.335,0-1.943-1.128-1.943-2.207
			C134.566,145.198,135.174,144.07,136.509,144.07z M136.509,147.876c1.007,0,1.215-1.039,1.215-1.599s-0.208-1.599-1.215-1.599
			s-1.215,1.04-1.215,1.599S135.502,147.876,136.509,147.876z"/>
		<path d="M140.054,148.372h-0.704v-4.182h0.664v0.695h0.016c0.28-0.487,0.647-0.815,1.175-0.815c0.088,0,0.128,0.008,0.184,0.024
			v0.728h-0.264c-0.656,0-1.071,0.512-1.071,1.119V148.372z"/>
		<path d="M146.036,144.358c-0.216-1.008-1.056-1.191-1.607-1.191c-1.04,0-1.879,0.768-1.879,2.279c0,1.351,0.479,2.39,1.903,2.39
			c0.504,0,1.375-0.239,1.639-1.574h0.751c-0.32,2.166-2.079,2.263-2.51,2.263c-1.304,0-2.583-0.848-2.583-3.055
			c0-1.767,1.008-2.99,2.679-2.99c1.479,0,2.247,0.919,2.359,1.879H146.036z"/>
		<path d="M149.397,144.07c1.335,0,1.943,1.127,1.943,2.207c0,1.079-0.607,2.207-1.943,2.207c-1.335,0-1.943-1.128-1.943-2.207
			C147.454,145.198,148.062,144.07,149.397,144.07z M149.397,147.876c1.007,0,1.215-1.039,1.215-1.599s-0.208-1.599-1.215-1.599
			s-1.215,1.04-1.215,1.599S148.39,147.876,149.397,147.876z"/>
		<path d="M155.612,148.372h-0.664v-0.575h-0.016c-0.304,0.567-0.784,0.695-1.191,0.695c-1.423,0-1.839-1.336-1.839-2.335
			c0-1.175,0.632-2.087,1.743-2.087c0.759,0,1.08,0.472,1.247,0.712l0.016-0.056v-2.095h0.704V148.372z M153.757,147.885
			c0.448,0,1.144-0.296,1.144-1.407c0-0.68-0.112-1.775-1.127-1.775c-1.087,0-1.144,1.031-1.144,1.567
			C152.629,147.188,152.989,147.885,153.757,147.885z"/>
		<path d="M160.14,147.061c-0.024,0.2-0.216,0.792-0.744,1.144c-0.192,0.128-0.464,0.288-1.135,0.288
			c-1.175,0-1.871-0.888-1.871-2.095c0-1.295,0.624-2.327,2.007-2.327c1.208,0,1.799,0.959,1.799,2.438h-3.055
			c0,0.872,0.408,1.376,1.215,1.376c0.664,0,1.056-0.512,1.08-0.824H160.14z M159.468,145.949c-0.04-0.647-0.312-1.247-1.167-1.247
			c-0.648,0-1.16,0.6-1.16,1.247H159.468z"/>
	</g>
	<g>
		<path d="M319.056,148.372h-4.238v-5.741h4.182v0.688h-3.406v1.759h3.143v0.688h-3.143v1.919h3.463V148.372z"/>
		<path d="M320.785,148.372h-0.704v-4.182h0.664v0.695h0.016c0.28-0.487,0.648-0.815,1.176-0.815c0.088,0,0.128,0.008,0.184,0.024
			v0.728h-0.264c-0.655,0-1.071,0.512-1.071,1.119V148.372z"/>
		<path d="M323.449,148.372h-0.704v-4.182h0.664v0.695h0.016c0.28-0.487,0.648-0.815,1.176-0.815c0.088,0,0.128,0.008,0.184,0.024
			v0.728h-0.264c-0.655,0-1.071,0.512-1.071,1.119V148.372z"/>
		<path d="M327.017,144.07c1.335,0,1.943,1.127,1.943,2.207c0,1.079-0.608,2.207-1.943,2.207s-1.942-1.128-1.942-2.207
			C325.074,145.198,325.682,144.07,327.017,144.07z M327.017,147.876c1.008,0,1.216-1.039,1.216-1.599s-0.208-1.599-1.216-1.599
			s-1.215,1.04-1.215,1.599S326.009,147.876,327.017,147.876z"/>
		<path d="M330.562,148.372h-0.704v-4.182h0.664v0.695h0.016c0.28-0.487,0.648-0.815,1.176-0.815c0.088,0,0.128,0.008,0.184,0.024
			v0.728h-0.264c-0.655,0-1.071,0.512-1.071,1.119V148.372z"/>
		<path d="M336.544,144.358c-0.216-1.008-1.056-1.191-1.607-1.191c-1.039,0-1.879,0.768-1.879,2.279c0,1.351,0.479,2.39,1.903,2.39
			c0.503,0,1.375-0.239,1.639-1.574h0.752c-0.32,2.166-2.079,2.263-2.511,2.263c-1.304,0-2.583-0.848-2.583-3.055
			c0-1.767,1.008-2.99,2.679-2.99c1.479,0,2.247,0.919,2.358,1.879H336.544z"/>
		<path d="M339.905,144.07c1.335,0,1.943,1.127,1.943,2.207c0,1.079-0.608,2.207-1.943,2.207s-1.942-1.128-1.942-2.207
			C337.963,145.198,338.57,144.07,339.905,144.07z M339.905,147.876c1.008,0,1.216-1.039,1.216-1.599s-0.208-1.599-1.216-1.599
			s-1.215,1.04-1.215,1.599S338.897,147.876,339.905,147.876z"/>
		<path d="M346.121,148.372h-0.664v-0.575h-0.016c-0.304,0.567-0.784,0.695-1.191,0.695c-1.424,0-1.839-1.336-1.839-2.335
			c0-1.175,0.631-2.087,1.742-2.087c0.76,0,1.08,0.472,1.248,0.712l0.016-0.056v-2.095h0.704V148.372z M344.266,147.885
			c0.448,0,1.144-0.296,1.144-1.407c0-0.68-0.112-1.775-1.128-1.775c-1.087,0-1.143,1.031-1.143,1.567
			C343.139,147.188,343.498,147.885,344.266,147.885z"/>
		<path d="M350.648,147.061c-0.023,0.2-0.216,0.792-0.743,1.144c-0.191,0.128-0.464,0.288-1.136,0.288
			c-1.175,0-1.87-0.888-1.87-2.095c0-1.295,0.623-2.327,2.007-2.327c1.207,0,1.799,0.959,1.799,2.438h-3.055
			c0,0.872,0.408,1.376,1.216,1.376c0.663,0,1.055-0.512,1.079-0.824H350.648z M349.978,145.949
			c-0.04-0.647-0.312-1.247-1.168-1.247c-0.647,0-1.159,0.6-1.159,1.247H349.978z"/>
	</g>
	<polyline class="st1" points="375.591,38.53 255.906,38.53 255.906,24.356 243.307,24.356 243.307,38.53 148.819,38.53 
		148.819,24.356 54.331,24.356 54.331,38.53 35.433,38.53 	"/>
	<polyline class="st1" points="375.591,66.876 306.3,66.876 306.3,52.703 243.307,52.703 243.307,66.876 117.323,66.876 
		117.323,52.703 54.331,52.703 54.331,66.876 35.433,66.876 	"/>
	<polyline class="st1" points="375.591,123.569 318.898,123.569 318.898,109.396 306.3,109.396 306.3,123.569 148.819,123.569 
		148.819,109.396 117.286,109.396 117.286,123.569 35.433,123.569 	"/>
	<line class="st1" x1="375.591" y1="95.194" x2="35.433" y2="95.194"/>
	<line class="st1" x1="57.595" y1="137.742" x2="51.525" y2="151.916"/>
	<line class="st1" x1="57.595" y1="151.916" x2="51.525" y2="137.742"/>
	<line class="st1" x1="120.587" y1="137.742" x2="114.517" y2="151.916"/>
	<line class="st1" x1="120.587" y1="151.916" x2="114.517" y2="137.742"/>
	<line class="st1" x1="246.571" y1="137.742" x2="240.501" y2="151.916"/>
	<line class="st1" x1="246.571" y1="151.916" x2="240.501" y2="137.742"/>
	<line class="st1" x1="309.564" y1="137.742" x2="303.493" y2="151.916"/>
	<line class="st1" x1="309.564" y1="151.916" x2="303.493" y2="137.742"/>
	<line class="st1" x1="375.591" y1="151.916" x2="35.433" y2="151.916"/>
	<line class="st1" x1="375.591" y1="137.742" x2="35.433" y2="137.742"/>
	<line class="st2" x1="54.331" y1="10.183" x2="54.331" y2="137.742"/>
	<line class="st2" x1="117.323" y1="10.183" x2="117.323" y2="137.742"/>
	<line class="st2" x1="306.3" y1="10.183" x2="306.3" y2="137.742"/>
	<line class="st2" x1="318.898" y1="10.183" x2="318.898" y2="109.396"/>
	<line class="st2" x1="255.906" y1="10.183" x2="255.906" y2="52.703"/>
	<line class="st2" x1="243.307" y1="10.183" x2="243.307" y2="137.742"/>
	<g>
		<path class="st3" d="M51.825,0.779c-0.68,1.279-1.087,2.047-1.087,3.966c0,1.319,0.456,2.295,1.095,3.55h-0.472
			c-0.832-1.248-1.375-2.247-1.375-3.742c0-1.407,0.487-2.542,1.351-3.774H51.825z"/>
		<path class="st3" d="M54.977,6.64h-0.752V2.65h-1.311v-0.56c0.912-0.064,1.287-0.152,1.511-1.072h0.552V6.64z"/>
		<path class="st3" d="M56.834,8.295c0.68-1.279,1.087-2.047,1.087-3.966c0-1.319-0.456-2.295-1.095-3.55h0.472
			c0.832,1.248,1.375,2.247,1.375,3.742c0,1.407-0.488,2.542-1.351,3.774H56.834z"/>
	</g>
	<g>
		<path class="st3" d="M114.817,0.779c-0.68,1.279-1.087,2.047-1.087,3.966c0,1.319,0.456,2.295,1.095,3.55h-0.472
			c-0.832-1.248-1.375-2.247-1.375-3.742c0-1.407,0.487-2.542,1.351-3.774H114.817z"/>
		<path class="st3" d="M115.45,3.034c0-1.831,1.335-2.015,1.943-2.015c0.975,0,1.759,0.632,1.759,1.679
			c0,1.007-0.664,1.431-1.503,1.879l-0.584,0.32c-0.768,0.424-0.936,0.864-0.967,1.08h3.054V6.64h-3.846
			c0.04-1.167,0.567-1.791,1.319-2.231l0.743-0.432c0.6-0.344,1.032-0.576,1.032-1.311c0-0.448-0.288-1.016-1.111-1.016
			c-1.063,0-1.111,0.992-1.135,1.383H115.45z"/>
		<path class="st3" d="M119.827,8.295c0.68-1.279,1.087-2.047,1.087-3.966c0-1.319-0.456-2.295-1.095-3.55h0.472
			c0.832,1.248,1.375,2.247,1.375,3.742c0,1.407-0.488,2.542-1.351,3.774H119.827z"/>
	</g>
	<line class="st2" x1="148.819" y1="10.183" x2="148.819" y2="109.396"/>
	<g>
		<path class="st3" d="M146.313,0.779c-0.68,1.279-1.087,2.047-1.087,3.966c0,1.319,0.456,2.295,1.095,3.55h-0.472
			c-0.832-1.248-1.375-2.247-1.375-3.742c0-1.407,0.487-2.542,1.351-3.774H146.313z"/>
		<path class="st3" d="M148.386,3.442c0.12,0.008,0.248,0.016,0.368,0.016c0.544,0,1.072-0.216,1.072-0.919
			c0-0.336-0.2-0.888-1.04-0.888c-1,0-1.063,0.815-1.096,1.208h-0.688c0-0.824,0.336-1.839,1.815-1.839
			c1.087,0,1.735,0.624,1.735,1.479c0,0.719-0.416,1.063-0.72,1.159v0.016c0.543,0.176,0.936,0.56,0.936,1.311
			c0,0.919-0.592,1.807-2.023,1.807c-0.416,0-0.768-0.104-1.04-0.248c-0.624-0.328-0.792-0.975-0.839-1.623h0.728
			c0.024,0.528,0.152,1.239,1.199,1.239c0.72,0,1.223-0.439,1.223-1.087c0-0.944-0.831-1.032-1.311-1.032
			c-0.104,0-0.216,0.008-0.32,0.008V3.442z"/>
		<path class="st3" d="M151.323,8.295c0.68-1.279,1.087-2.047,1.087-3.966c0-1.319-0.456-2.295-1.095-3.55h0.472
			c0.832,1.248,1.375,2.247,1.375,3.742c0,1.407-0.488,2.542-1.351,3.774H151.323z"/>
	</g>
	<g>
		<path class="st3" d="M253.401,0.779c-0.68,1.279-1.088,2.047-1.088,3.966c0,1.319,0.456,2.295,1.096,3.55h-0.472
			c-0.831-1.248-1.375-2.247-1.375-3.742c0-1.407,0.487-2.542,1.351-3.774H253.401z"/>
		<path class="st3" d="M257.041,5.273V6.64h-0.704V5.273h-2.454V4.585l2.574-3.566h0.584v3.646h0.823v0.608H257.041z M254.53,4.665
			h1.807v-2.55h-0.016L254.53,4.665z"/>
		<path class="st3" d="M258.411,8.295c0.68-1.279,1.087-2.047,1.087-3.966c0-1.319-0.456-2.295-1.096-3.55h0.472
			c0.832,1.248,1.376,2.247,1.376,3.742c0,1.407-0.488,2.542-1.352,3.774H258.411z"/>
	</g>
	<g>
		<path class="st3" d="M303.796,0.779c-0.68,1.279-1.088,2.047-1.088,3.966c0,1.319,0.456,2.295,1.096,3.55h-0.472
			c-0.831-1.248-1.375-2.247-1.375-3.742c0-1.407,0.487-2.542,1.351-3.774H303.796z"/>
		<path class="st3" d="M305.253,3.37c0.239-0.184,0.583-0.352,1.087-0.352c0.911,0,1.847,0.64,1.847,1.799
			c0,0.624-0.279,1.975-2.038,1.975c-0.736,0-1.68-0.296-1.815-1.551h0.728c0.072,0.656,0.56,0.944,1.191,0.944
			c0.728,0,1.184-0.584,1.184-1.288c0-0.808-0.552-1.247-1.247-1.247c-0.408,0-0.776,0.192-1.04,0.536l-0.607-0.032l0.424-3.014
			h2.91v0.688h-2.383L305.253,3.37z"/>
		<path class="st3" d="M308.806,8.295c0.68-1.279,1.087-2.047,1.087-3.966c0-1.319-0.456-2.295-1.096-3.55h0.472
			c0.832,1.248,1.376,2.247,1.376,3.742c0,1.407-0.488,2.542-1.352,3.774H308.806z"/>
	</g>
	<g>
		<path class="st3" d="M316.394,0.779c-0.68,1.279-1.088,2.047-1.088,3.966c0,1.319,0.456,2.295,1.096,3.55h-0.472
			c-0.831-1.248-1.375-2.247-1.375-3.742c0-1.407,0.487-2.542,1.351-3.774H316.394z"/>
		<path class="st3" d="M320.009,2.515c-0.088-0.496-0.359-0.864-0.967-0.864c-1.104,0-1.336,1.487-1.336,2.079l0.017,0.016
			c0.176-0.304,0.567-0.688,1.335-0.688c0.688,0,1.759,0.44,1.759,1.783c0,0.576-0.151,0.991-0.535,1.407
			c-0.296,0.328-0.632,0.543-1.424,0.543c-0.432,0-1.047-0.192-1.447-0.815c-0.336-0.528-0.432-1.215-0.432-1.951
			c0-1.231,0.399-3.006,2.079-3.006c0.647,0,1.567,0.352,1.639,1.496H320.009z M318.985,6.16c0.672,0,1.104-0.527,1.104-1.287
			c0-0.496-0.264-1.183-1.136-1.183c-0.775,0-1.151,0.56-1.151,1.223C317.802,5.513,318.162,6.16,318.985,6.16z"/>
		<path class="st3" d="M321.403,8.295c0.68-1.279,1.087-2.047,1.087-3.966c0-1.319-0.456-2.295-1.096-3.55h0.472
			c0.832,1.248,1.376,2.247,1.376,3.742c0,1.407-0.488,2.542-1.352,3.774H321.403z"/>
	</g>
	<g>
	</g>
	<g>
	</g>
	<g>
	</g>
	<g>
	</g>
	<g>
	</g>
	<g>
	</g>
	<g>
	</g>
	<g>
	</g>
	<g>
	</g>
	<g>
	</g>
	<g>
	</g>
	<g>
	</g>
	<g>
	</g>
	<g>
	</g>
	<g>
	</g>
</g>
</svg>
