<?xml version="1.0" encoding="utf-8"?>
<!-- Generator: Adobe Illustrator 28.2.0, SVG Export Plug-In . SVG Version: 6.00 Build 0)  -->
<svg version="1.1" id="レイヤー_2" xmlns="http://www.w3.org/2000/svg" xmlns:xlink="http://www.w3.org/1999/xlink" x="0px"
	 y="0px" width="221.322px" height="225.976px" viewBox="0 0 221.322 225.976" style="enable-background:new 0 0 221.322 225.976;"
	 xml:space="preserve">
<style type="text/css">
	.st0{stroke:#000000;stroke-width:0.2;}
	.st1{fill:none;stroke:#000000;}
	.st2{fill:#FFFFFF;stroke:#231815;}
	.st3{fill:#3574F2;}
	.st4{fill:#231815;}
	.st5{fill:#FFFFFF;stroke:#000000;}
	.st6{fill:#CCCCCC;}
	.st7{fill:#4D4D4D;}
	.st8{fill:#FFFFFF;}
</style>
<g>
	<g>
		<polygon class="st0" points="144.007,167.666 146.448,161.485 141.65,161.485 		"/>
	</g>
	<line class="st1" x1="144.027" y1="162.018" x2="144.027" y2="0"/>
</g>
<g>
	<g>
		<polygon class="st0" points="127.977,214.43 130.129,209.843 125.898,209.843 		"/>
	</g>
	<polyline class="st1" points="127.977,210.24 127.977,184.455 45.354,184.455 45.354,89.509 78.681,89.509 	"/>
</g>
<g>
	<g>
		<polygon class="st0" points="143.754,11.612 148.727,9.07 148.727,14.068 		"/>
	</g>
	<polyline class="st1" points="147.717,11.591 220.822,11.591 220.822,183.662 175.876,183.662 144.027,183.662 144.027,162.658 	
		"/>
</g>
<polygon class="st2" points="212.921,89.509 144.025,121.352 75.132,89.509 144.028,59.467 "/>
<g>
	<path class="st3" d="M148.696,52.068c-0.68,1.279-1.087,2.047-1.087,3.966c0,1.319,0.456,2.295,1.096,3.55h-0.472
		c-0.832-1.248-1.375-2.247-1.375-3.742c0-1.407,0.488-2.542,1.351-3.774H148.696z"/>
	<path class="st3" d="M149.329,54.323c0-1.831,1.335-2.015,1.943-2.015c0.976,0,1.759,0.632,1.759,1.679
		c0,1.007-0.664,1.431-1.503,1.879l-0.584,0.32c-0.768,0.424-0.935,0.864-0.967,1.08h3.054v0.664h-3.846
		c0.04-1.167,0.568-1.791,1.319-2.231l0.744-0.432c0.6-0.344,1.031-0.576,1.031-1.311c0-0.448-0.288-1.016-1.111-1.016
		c-1.063,0-1.111,0.992-1.135,1.383H149.329z"/>
	<path class="st3" d="M153.705,59.584c0.68-1.279,1.087-2.047,1.087-3.966c0-1.319-0.456-2.295-1.095-3.55h0.472
		c0.832,1.248,1.375,2.247,1.375,3.742c0,1.407-0.488,2.542-1.351,3.774H153.705z"/>
</g>
<g>
	<path class="st3" d="M141.454,109.352c-0.68,1.279-1.087,2.047-1.087,3.966c0,1.319,0.456,2.295,1.096,3.55h-0.472
		c-0.832-1.248-1.375-2.247-1.375-3.742c0-1.407,0.488-2.542,1.351-3.774H141.454z"/>
	<path class="st3" d="M143.526,112.014c0.12,0.008,0.248,0.016,0.368,0.016c0.544,0,1.072-0.216,1.072-0.919
		c0-0.336-0.2-0.888-1.04-0.888c-1,0-1.063,0.815-1.095,1.208h-0.688c0-0.824,0.336-1.839,1.815-1.839
		c1.087,0,1.735,0.624,1.735,1.479c0,0.72-0.416,1.063-0.72,1.159v0.016c0.544,0.176,0.936,0.56,0.936,1.311
		c0,0.92-0.592,1.807-2.023,1.807c-0.416,0-0.768-0.104-1.04-0.248c-0.624-0.328-0.792-0.976-0.839-1.624h0.728
		c0.024,0.528,0.152,1.24,1.199,1.24c0.72,0,1.224-0.44,1.224-1.088c0-0.943-0.832-1.031-1.312-1.031
		c-0.104,0-0.216,0.008-0.32,0.008V112.014z"/>
	<path class="st3" d="M146.463,116.868c0.68-1.279,1.087-2.047,1.087-3.966c0-1.319-0.456-2.295-1.095-3.55h0.472
		c0.832,1.248,1.375,2.247,1.375,3.742c0,1.407-0.488,2.542-1.351,3.774H146.463z"/>
</g>
<g>
	<path class="st4" d="M118.006,130.832h-0.776v-5.741h3.974v0.688h-3.198v1.76h2.814v0.687h-2.814V130.832z"/>
	<path class="st4" d="M122.302,129.162l-0.6,1.671h-0.8l2.159-5.741h0.879l2.079,5.741h-0.847l-0.568-1.671H122.302z
		 M124.325,128.474l-0.848-2.527h-0.016l-0.919,2.527H124.325z"/>
	<path class="st4" d="M127.51,130.145h2.91v0.688h-3.686v-5.741h0.775V130.145z"/>
	<path class="st4" d="M134.524,126.771c-0.04-0.888-0.776-1.168-1.423-1.168c-0.488,0-1.311,0.137-1.311,1.008
		c0,0.487,0.344,0.647,0.679,0.728l1.639,0.376c0.744,0.176,1.303,0.623,1.303,1.535c0,1.359-1.263,1.735-2.247,1.735
		c-1.063,0-1.479-0.32-1.735-0.552c-0.488-0.44-0.584-0.92-0.584-1.455h0.728c0,1.039,0.848,1.343,1.583,1.343
		c0.56,0,1.503-0.144,1.503-0.968c0-0.6-0.28-0.791-1.223-1.016l-1.175-0.271c-0.376-0.088-1.224-0.352-1.224-1.352
		c0-0.896,0.584-1.774,1.975-1.774c2.007,0,2.207,1.199,2.239,1.831H134.524z"/>
	<path class="st4" d="M140.716,130.832h-4.238v-5.741h4.182v0.688h-3.406v1.76h3.143v0.687h-3.143v1.919h3.462V130.832z"/>
</g>
<g>
	<path class="st4" d="M54.861,80.092h4.661v0.688h-1.943v5.053h-0.775V80.78h-1.943V80.092z"/>
	<path class="st4" d="M61.116,85.833h-0.775v-5.741h2.654c0.944,0,1.887,0.328,1.887,1.543c0,0.848-0.432,1.159-0.8,1.375
		c0.328,0.136,0.656,0.28,0.688,1.079l0.048,1.04c0.008,0.32,0.048,0.44,0.288,0.576v0.128h-0.951
		c-0.112-0.352-0.136-1.223-0.136-1.439c0-0.472-0.096-1.023-1.023-1.023h-1.879V85.833z M61.116,82.707h1.799
		c0.567,0,1.167-0.144,1.167-0.991c0-0.888-0.647-0.959-1.031-0.959h-1.935V82.707z"/>
	<path class="st4" d="M70.242,80.092v3.726c0,1.176-0.735,2.167-2.311,2.167c-1.543,0-2.207-0.991-2.207-2.063v-3.83H66.5v3.614
		c0,1.248,0.759,1.591,1.455,1.591c0.711,0,1.511-0.328,1.511-1.575v-3.63H70.242z"/>
	<path class="st4" d="M75.794,85.833h-4.238v-5.741h4.182v0.688h-3.406v1.759h3.143v0.688h-3.143v1.919h3.462V85.833z"/>
</g>
<rect x="105.719" y="24.663" class="st5" width="73.249" height="23.4"/>
<g>
	<path class="st4" d="M116.375,217.174c0.328,0.042,0.651,0.062,0.969,0.062h5.258c0.317,0,0.641-0.021,0.969-0.062
		c-0.021,0.109-0.031,0.224-0.031,0.344c0,0.109,0.01,0.224,0.031,0.344c-0.328-0.042-0.651-0.062-0.969-0.062h-2.57v5.18
		c0,0.339,0.021,0.672,0.062,1c-0.12-0.021-0.245-0.031-0.375-0.031c-0.12,0-0.245,0.011-0.375,0.031
		c0.042-0.328,0.062-0.661,0.062-1v-5.18h-2.062c-0.318,0-0.641,0.021-0.969,0.062c0.021-0.12,0.031-0.234,0.031-0.344
		C116.407,217.398,116.396,217.284,116.375,217.174z M120.883,219.081c0.578,0.589,1.349,1.266,2.312,2.031
		c-0.198,0.125-0.378,0.31-0.539,0.555c-0.208-0.286-0.526-0.641-0.953-1.062c-0.453-0.433-0.875-0.776-1.266-1.031
		C120.61,219.443,120.758,219.279,120.883,219.081z"/>
	<path class="st4" d="M124.539,219.573c0.349,0.042,0.703,0.062,1.062,0.062h4.688c0.354,0,0.706-0.021,1.055-0.062
		c-0.021,0.13-0.031,0.255-0.031,0.375c0,0.13,0.01,0.255,0.031,0.375c-0.349-0.042-0.701-0.062-1.055-0.062h-4.688
		c-0.359,0-0.714,0.021-1.062,0.062c0.021-0.12,0.031-0.245,0.031-0.375C124.571,219.828,124.56,219.703,124.539,219.573z"/>
	<path class="st4" d="M135.633,216.487c0.208,0.073,0.456,0.112,0.742,0.117c-0.058,0.136-0.086,0.315-0.086,0.539v0.586h1.625
		c0.25,0,0.518-0.011,0.805-0.031c-0.021,0.104-0.031,0.198-0.031,0.281c0,0.125,0.01,0.229,0.031,0.312
		c-0.193-0.021-0.461-0.031-0.805-0.031h-1.625v1.164h2.25c0.297,0,0.596-0.023,0.898-0.07c-0.021,0.12-0.031,0.234-0.031,0.344
		s0.01,0.214,0.031,0.312c-0.302-0.042-0.602-0.062-0.898-0.062h-5.227c-0.297,0-0.599,0.021-0.906,0.062
		c0.021-0.099,0.031-0.203,0.031-0.312s-0.011-0.224-0.031-0.344c0.307,0.047,0.609,0.07,0.906,0.07h0.508v-1.562
		c0-0.219-0.023-0.438-0.07-0.656c0.213,0.073,0.466,0.112,0.758,0.117c-0.068,0.136-0.102,0.315-0.102,0.539v1.562h1.281v-2.281
		C135.688,216.924,135.669,216.706,135.633,216.487z M135.602,220.081c0.208,0.073,0.456,0.114,0.742,0.125
		c-0.058,0.125-0.086,0.3-0.086,0.523v1.727c0.078-0.042,0.153-0.078,0.227-0.109c0.771-0.396,1.341-1.005,1.711-1.828
		c0.281,0.183,0.51,0.297,0.688,0.344c-0.167,0.156-0.44,0.453-0.82,0.891c-0.396,0.448-0.854,0.812-1.375,1.094
		c-0.62,0.339-1.818,0.695-3.594,1.07c-0.125-0.25-0.289-0.458-0.492-0.625c1.229-0.12,2.247-0.32,3.055-0.602v-1.961
		C135.657,220.515,135.638,220.299,135.602,220.081z M134.258,220.385c0.177,0.156,0.396,0.271,0.656,0.344
		c-0.558,0.573-1.07,1.148-1.539,1.727c-0.208-0.188-0.394-0.312-0.555-0.375c0.25-0.177,0.489-0.394,0.719-0.648
		C133.836,221.115,134.076,220.765,134.258,220.385z"/>
</g>
<g>
	<g>
		<path class="st6" d="M120.425,34.302c0.297,0.042,0.591,0.062,0.883,0.062h0.281v-1.133c0-0.162-0.011-0.326-0.031-0.492
			c0.198,0.021,0.417,0.031,0.656,0.031c-0.068,0.151-0.102,0.328-0.102,0.531v1.062h0.031c0.297,0,0.591-0.021,0.883-0.062
			c-0.021,0.104-0.031,0.206-0.031,0.305c0,0.109,0.01,0.213,0.031,0.312c-0.292-0.042-0.586-0.062-0.883-0.062h-0.031v1.719
			c0.323-0.135,0.627-0.281,0.914-0.438c-0.021,0.302-0.031,0.513-0.031,0.633c-0.328,0.109-0.623,0.216-0.883,0.32v2.367
			c0,0.255-0.104,0.424-0.312,0.508c-0.208,0.078-0.508,0.117-0.898,0.117c-0.058-0.25-0.162-0.458-0.312-0.625h0.438
			c0.375,0,0.562-0.096,0.562-0.289V37.31c-0.526,0.219-0.894,0.401-1.102,0.547c-0.011-0.198-0.07-0.427-0.18-0.688
			c0.448-0.104,0.875-0.232,1.281-0.383v-1.93h-0.281c-0.292,0-0.586,0.021-0.883,0.062c0.021-0.099,0.031-0.203,0.031-0.312
			C120.456,34.507,120.446,34.406,120.425,34.302z M124.277,32.739c0.177,0.037,0.406,0.055,0.688,0.055
			c-0.089,0.312-0.133,0.674-0.133,1.086v0.453h0.789c0.297,0,0.596-0.023,0.898-0.07c-0.042,0.198-0.062,0.396-0.062,0.594
			c0,1.953,0.057,3.141,0.172,3.562c0.125,0.542,0.227,0.812,0.305,0.812c0.036-0.094,0.086-0.438,0.148-1.031
			c0.172,0.219,0.372,0.377,0.602,0.477c-0.219,0.917-0.409,1.375-0.57,1.375c-0.183-0.016-0.375-0.162-0.578-0.438
			c-0.203-0.297-0.359-0.713-0.469-1.25c-0.109-0.635-0.164-1.805-0.164-3.508h-1.07v0.164c0,0.859-0.039,1.576-0.117,2.148
			c0.25,0.188,0.508,0.377,0.773,0.57c-0.193,0.182-0.328,0.357-0.406,0.523c-0.167-0.162-0.326-0.312-0.477-0.453
			c-0.062,0.229-0.128,0.424-0.195,0.586c-0.292,0.641-0.794,1.213-1.508,1.719c-0.13-0.193-0.3-0.338-0.508-0.438
			c0.812-0.516,1.344-1.057,1.594-1.625c0.067-0.167,0.125-0.37,0.172-0.609c-0.328-0.266-0.656-0.5-0.984-0.703
			c0.161-0.135,0.299-0.281,0.414-0.438c0.213,0.167,0.438,0.338,0.672,0.516c0.052-0.5,0.078-1.099,0.078-1.797v-0.164h-0.289
			c-0.266,0-0.534,0.021-0.805,0.062c0.021-0.109,0.031-0.224,0.031-0.344c0-0.099-0.011-0.203-0.031-0.312
			c0.271,0.047,0.539,0.07,0.805,0.07h0.289v-0.164C124.339,33.747,124.318,33.27,124.277,32.739z"/>
		<path class="st6" d="M130.113,32.825c0.198,0.104,0.438,0.19,0.719,0.258c-0.109,0.068-0.232,0.193-0.367,0.375
			c-0.453,0.641-1.008,1.232-1.664,1.773c-0.13-0.156-0.315-0.292-0.555-0.406c0.516-0.312,0.917-0.643,1.203-0.992
			C129.787,33.448,130.008,33.112,130.113,32.825z M130.519,34.458c0.224,0.141,0.466,0.234,0.727,0.281
			c-0.172,0.099-0.357,0.307-0.555,0.625c-0.13,0.24-0.279,0.469-0.445,0.688v2.938c0,0.391,0.021,0.784,0.062,1.18
			c-0.13-0.021-0.255-0.031-0.375-0.031c-0.13,0-0.255,0.01-0.375,0.031c0.042-0.396,0.062-0.789,0.062-1.18V36.77
			c-0.276,0.281-0.589,0.56-0.938,0.836c-0.094-0.229-0.208-0.414-0.344-0.555c0.583-0.37,1.047-0.76,1.391-1.172
			C130.084,35.474,130.347,34.999,130.519,34.458z M131.308,35.333c0.338,0.042,0.682,0.062,1.031,0.062h2.344
			c0.344,0,0.685-0.021,1.023-0.062c-0.016,0.12-0.023,0.245-0.023,0.375c0,0.109,0.008,0.224,0.023,0.344
			c-0.339-0.042-0.68-0.062-1.023-0.062h-0.539v3.719c0,0.172-0.097,0.297-0.289,0.375c-0.177,0.078-0.539,0.117-1.086,0.117
			c-0.011-0.266-0.094-0.505-0.25-0.719c0.328,0.042,0.581,0.062,0.758,0.062c0.156,0,0.237-0.06,0.242-0.18v-3.375h-1.18
			c-0.349,0-0.693,0.021-1.031,0.062c0.021-0.12,0.031-0.234,0.031-0.344C131.339,35.578,131.328,35.453,131.308,35.333z
			 M131.769,33.2c0.349,0.042,0.692,0.062,1.031,0.062h1.312c0.349,0,0.692-0.021,1.031-0.062c-0.021,0.13-0.031,0.255-0.031,0.375
			s0.01,0.234,0.031,0.344c-0.339-0.042-0.683-0.062-1.031-0.062H132.8c-0.339,0-0.683,0.021-1.031,0.062
			c0.021-0.109,0.031-0.224,0.031-0.344S131.789,33.331,131.769,33.2z"/>
		<path class="st6" d="M138.214,32.645c0.255,0.104,0.505,0.174,0.75,0.211c-0.099,0.151-0.232,0.479-0.398,0.984
			c-0.052,0.162-0.099,0.315-0.141,0.461h1.258c0.234,0,0.471-0.023,0.711-0.07c-0.245,1.776-0.597,3.031-1.055,3.766
			c0.458,0.5,1.021,0.828,1.688,0.984c0.521,0.125,1.177,0.198,1.969,0.219c0.234,0,0.481-0.01,0.742-0.031
			c-0.188,0.266-0.302,0.526-0.344,0.781c-1.464-0.13-2.495-0.328-3.094-0.594c-0.505-0.208-0.933-0.516-1.281-0.922
			c-0.474,0.552-1.138,1.047-1.992,1.484c-0.146-0.188-0.336-0.362-0.57-0.523c0.911-0.25,1.638-0.745,2.18-1.484
			c-0.047-0.073-0.094-0.148-0.141-0.227c-0.271-0.568-0.472-1.221-0.602-1.961c-0.255,0.547-0.526,1.06-0.812,1.539
			c-0.156-0.125-0.365-0.229-0.625-0.312c0.385-0.505,0.724-1.107,1.016-1.805C137.743,34.541,137.99,33.708,138.214,32.645z
			 M138.23,34.888c0.094,1.005,0.331,1.854,0.711,2.547c0.37-0.698,0.617-1.578,0.742-2.641h-1.422
			C138.25,34.831,138.24,34.862,138.23,34.888z M141.05,32.739c0.203,0.021,0.442,0.031,0.719,0.031
			c-0.058,0.146-0.086,0.333-0.086,0.562v1.594c0.161-0.073,0.305-0.167,0.43-0.281c0.38,0.656,0.932,1.323,1.656,2
			c-0.214,0.115-0.422,0.279-0.625,0.492c-0.375-0.74-0.862-1.388-1.461-1.945v2.383c0,0.365,0.018,0.732,0.055,1.102
			c-0.109-0.021-0.224-0.031-0.344-0.031c-0.109,0-0.224,0.01-0.344,0.031c0.042-0.37,0.062-0.737,0.062-1.102v-3.898
			C141.113,33.359,141.092,33.046,141.05,32.739z"/>
		<path class="st6" d="M144.425,33.333c0.297,0.042,0.591,0.062,0.883,0.062h0.836c0.297,0,0.591-0.021,0.883-0.062
			c-0.021,0.099-0.031,0.203-0.031,0.312c0,0.099,0.01,0.201,0.031,0.305c-0.292-0.042-0.586-0.062-0.883-0.062h-0.094v1.852
			c0.292,0,0.586-0.021,0.883-0.062c-0.021,0.099-0.031,0.203-0.031,0.312c0,0.099,0.01,0.203,0.031,0.312
			c-0.297-0.047-0.591-0.07-0.883-0.07v2.047c0.297-0.099,0.581-0.208,0.852-0.328c-0.021,0.292-0.031,0.49-0.031,0.594
			c-1.193,0.365-1.953,0.648-2.281,0.852c-0.011-0.193-0.076-0.412-0.195-0.656c0.385-0.083,0.75-0.174,1.094-0.273v-2.234h-0.062
			c-0.287,0-0.576,0.023-0.867,0.07c0.021-0.109,0.031-0.213,0.031-0.312c0-0.109-0.011-0.213-0.031-0.312
			c0.292,0.042,0.581,0.062,0.867,0.062h0.062v-1.852h-0.18c-0.292,0-0.586,0.021-0.883,0.062c0.021-0.104,0.031-0.206,0.031-0.305
			C144.456,33.536,144.446,33.432,144.425,33.333z M147.363,33.138c0.323,0.021,0.648,0.031,0.977,0.031h1.805
			c0.328,0,0.651-0.01,0.969-0.031c-0.021,0.172-0.031,0.341-0.031,0.508v2.586c0,0.198,0.01,0.396,0.031,0.594
			c-0.318-0.021-0.641-0.031-0.969-0.031h-0.586v0.945h0.805c0.271,0,0.542-0.021,0.812-0.062c-0.021,0.099-0.031,0.203-0.031,0.312
			c0,0.088,0.01,0.18,0.031,0.273c-0.271-0.042-0.542-0.062-0.812-0.062h-0.805v1h1.242c0.297,0,0.591-0.021,0.883-0.062
			c-0.021,0.109-0.031,0.216-0.031,0.32c0,0.099,0.01,0.203,0.031,0.312c-0.292-0.042-0.586-0.062-0.883-0.062h-3.312
			c-0.292,0-0.581,0.021-0.867,0.062c0.021-0.109,0.031-0.213,0.031-0.312c0-0.104-0.011-0.211-0.031-0.32
			c0.286,0.042,0.575,0.062,0.867,0.062h1.508v-1h-0.781c-0.276,0-0.55,0.021-0.82,0.062c0.021-0.094,0.031-0.185,0.031-0.273
			c0-0.109-0.011-0.213-0.031-0.312c0.271,0.042,0.544,0.062,0.82,0.062h0.781v-0.945h-0.656c-0.328,0-0.654,0.01-0.977,0.031
			c0.021-0.198,0.031-0.396,0.031-0.594v-2.586C147.373,33.479,147.363,33.31,147.363,33.138z M147.964,34.739h1.031v-1.094h-1.031
			V34.739z M148.995,36.333v-1.164h-1.031v1.164H148.995z M149.558,33.645v1.094h0.961v-1.094H149.558z M150.519,36.333v-1.164
			h-0.961v1.164H150.519z"/>
		<path class="st6" d="M152.363,35.138c0.13,0.021,0.255,0.031,0.375,0.031h0.688c0.177,0,0.356-0.01,0.539-0.031
			c-0.037,0.198-0.058,0.388-0.062,0.57v2.797c0.245-0.219,0.484-0.474,0.719-0.766c0.057,0.203,0.161,0.377,0.312,0.523
			c-0.5,0.432-1.023,0.943-1.57,1.531c-0.12-0.182-0.253-0.336-0.398-0.461c0.146-0.162,0.25-0.31,0.312-0.445
			c0.042-0.12,0.062-0.227,0.062-0.32v-2.859h-0.602c-0.12,0-0.245,0.01-0.375,0.031c0.021-0.109,0.031-0.213,0.031-0.312
			S152.383,35.231,152.363,35.138z M153.488,32.856c0.203,0.427,0.477,0.865,0.82,1.312c-0.224,0.052-0.433,0.156-0.625,0.312
			c-0.229-0.51-0.49-0.958-0.781-1.344C153.141,33.081,153.336,32.987,153.488,32.856z M154.769,33.02
			c0.297,0.042,0.591,0.062,0.883,0.062h2.688c0.286,0,0.578-0.021,0.875-0.062c-0.026,0.099-0.039,0.203-0.039,0.312
			c0,0.099,0.013,0.203,0.039,0.312c-0.297-0.047-0.589-0.07-0.875-0.07h-1.344l-0.188,0.898c0.427,0.005,0.852,0.008,1.273,0.008
			c0.161,0,0.32-0.008,0.477-0.023c-0.026,0.208-0.039,0.417-0.039,0.625v1.086h0.188c0.292,0,0.586-0.018,0.883-0.055
			c-0.021,0.099-0.031,0.203-0.031,0.312c0,0.099,0.01,0.203,0.031,0.312c-0.297-0.042-0.591-0.062-0.883-0.062h-3.43
			c-0.297,0-0.591,0.021-0.883,0.062c0.021-0.109,0.031-0.213,0.031-0.312c0-0.109-0.011-0.213-0.031-0.312
			c0.292,0.037,0.586,0.055,0.883,0.055h0.578l0.25-1.164c-0.365,0.005-0.724,0.01-1.078,0.016c0.016-0.099,0.023-0.193,0.023-0.281
			c0-0.099-0.008-0.193-0.023-0.281c0.401,0.005,0.799,0.01,1.195,0.016l0.18-0.898h-0.75c-0.292,0-0.586,0.023-0.883,0.07
			c0.021-0.109,0.031-0.213,0.031-0.312C154.8,33.224,154.789,33.12,154.769,33.02z M155.175,37.364
			c0.286,0.042,0.57,0.062,0.852,0.062h1.969c0.276,0,0.555-0.021,0.836-0.062c-0.042,0.271-0.062,0.539-0.062,0.805v1.227
			c0,0.266,0.021,0.534,0.062,0.805c-0.151-0.021-0.255-0.031-0.312-0.031c-0.058,0-0.172,0.01-0.344,0.031
			c0.036-0.213,0.057-0.422,0.062-0.625h-2.461c0.005,0.208,0.023,0.417,0.055,0.625c-0.167-0.021-0.281-0.031-0.344-0.031
			c-0.052,0-0.156,0.01-0.312,0.031c0.047-0.271,0.07-0.539,0.07-0.805v-1.227C155.245,37.903,155.222,37.635,155.175,37.364z
			 M155.769,39.114h2.477v-1.195h-2.477V39.114z M157.995,36.169v-1.18c-0.438,0-0.87,0.002-1.297,0.008l-0.25,1.172H157.995z"/>
		<path class="st6" d="M162.652,32.606c0.229,0.104,0.531,0.177,0.906,0.219c-0.198,0.162-0.451,0.469-0.758,0.922
			c-0.016,0.026-0.031,0.052-0.047,0.078h3.734c0.317,0,0.63-0.018,0.938-0.055c-0.062,0.229-0.102,0.487-0.117,0.773l-0.164,4.594
			c-0.031,0.443-0.214,0.734-0.547,0.875c-0.234,0.094-0.615,0.167-1.141,0.219c0-0.245-0.104-0.502-0.312-0.773
			c0.38,0.016,0.643,0.023,0.789,0.023c0.234,0,0.391-0.086,0.469-0.258c0.057-0.104,0.086-0.248,0.086-0.43l0.164-4.367h-4.281
			c-0.401,0.599-0.831,1.141-1.289,1.625c-0.214-0.208-0.453-0.323-0.719-0.344c0.531-0.396,1.021-0.909,1.469-1.539
			C162.232,33.622,162.506,33.101,162.652,32.606z M161.902,35.645c0.307,0.042,0.617,0.062,0.93,0.062h1.445
			c0.307,0,0.62-0.021,0.938-0.062c-0.047,0.281-0.07,0.56-0.07,0.836v1.75c0,0.307,0.023,0.609,0.07,0.906
			c-0.172-0.016-0.287-0.023-0.344-0.023c-0.068,0-0.195,0.008-0.383,0.023c0.036-0.229,0.057-0.456,0.062-0.68h-1.992
			c0,0.297,0.021,0.599,0.062,0.906c-0.188-0.021-0.312-0.031-0.375-0.031s-0.177,0.01-0.344,0.031
			c0.042-0.307,0.062-0.609,0.062-0.906v-1.977C161.964,36.206,161.943,35.927,161.902,35.645z M162.558,37.919h2v-1.688h-2V37.919z
			"/>
	</g>
	<g>
		<path d="M120.425,34.302c0.297,0.042,0.591,0.062,0.883,0.062h0.281v-1.133c0-0.162-0.011-0.326-0.031-0.492
			c0.198,0.021,0.417,0.031,0.656,0.031c-0.068,0.151-0.102,0.328-0.102,0.531v1.062h0.031c0.297,0,0.591-0.021,0.883-0.062
			c-0.021,0.104-0.031,0.206-0.031,0.305c0,0.109,0.01,0.213,0.031,0.312c-0.292-0.042-0.586-0.062-0.883-0.062h-0.031v1.719
			c0.323-0.135,0.627-0.281,0.914-0.438c-0.021,0.302-0.031,0.513-0.031,0.633c-0.328,0.109-0.623,0.216-0.883,0.32v2.367
			c0,0.255-0.104,0.424-0.312,0.508c-0.208,0.078-0.508,0.117-0.898,0.117c-0.058-0.25-0.162-0.458-0.312-0.625h0.438
			c0.375,0,0.562-0.096,0.562-0.289V37.31c-0.526,0.219-0.894,0.401-1.102,0.547c-0.011-0.198-0.07-0.427-0.18-0.688
			c0.448-0.104,0.875-0.232,1.281-0.383v-1.93h-0.281c-0.292,0-0.586,0.021-0.883,0.062c0.021-0.099,0.031-0.203,0.031-0.312
			C120.456,34.507,120.446,34.406,120.425,34.302z M124.277,32.739c0.177,0.037,0.406,0.055,0.688,0.055
			c-0.089,0.312-0.133,0.674-0.133,1.086v0.453h0.789c0.297,0,0.596-0.023,0.898-0.07c-0.042,0.198-0.062,0.396-0.062,0.594
			c0,1.953,0.057,3.141,0.172,3.562c0.125,0.542,0.227,0.812,0.305,0.812c0.036-0.094,0.086-0.438,0.148-1.031
			c0.172,0.219,0.372,0.377,0.602,0.477c-0.219,0.917-0.409,1.375-0.57,1.375c-0.183-0.016-0.375-0.162-0.578-0.438
			c-0.203-0.297-0.359-0.713-0.469-1.25c-0.109-0.635-0.164-1.805-0.164-3.508h-1.07v0.164c0,0.859-0.039,1.576-0.117,2.148
			c0.25,0.188,0.508,0.377,0.773,0.57c-0.193,0.182-0.328,0.357-0.406,0.523c-0.167-0.162-0.326-0.312-0.477-0.453
			c-0.062,0.229-0.128,0.424-0.195,0.586c-0.292,0.641-0.794,1.213-1.508,1.719c-0.13-0.193-0.3-0.338-0.508-0.438
			c0.812-0.516,1.344-1.057,1.594-1.625c0.067-0.167,0.125-0.37,0.172-0.609c-0.328-0.266-0.656-0.5-0.984-0.703
			c0.161-0.135,0.299-0.281,0.414-0.438c0.213,0.167,0.438,0.338,0.672,0.516c0.052-0.5,0.078-1.099,0.078-1.797v-0.164h-0.289
			c-0.266,0-0.534,0.021-0.805,0.062c0.021-0.109,0.031-0.224,0.031-0.344c0-0.099-0.011-0.203-0.031-0.312
			c0.271,0.047,0.539,0.07,0.805,0.07h0.289v-0.164C124.339,33.747,124.318,33.27,124.277,32.739z"/>
		<path d="M130.113,32.825c0.198,0.104,0.438,0.19,0.719,0.258c-0.109,0.068-0.232,0.193-0.367,0.375
			c-0.453,0.641-1.008,1.232-1.664,1.773c-0.13-0.156-0.315-0.292-0.555-0.406c0.516-0.312,0.917-0.643,1.203-0.992
			C129.787,33.448,130.008,33.112,130.113,32.825z M130.519,34.458c0.224,0.141,0.466,0.234,0.727,0.281
			c-0.172,0.099-0.357,0.307-0.555,0.625c-0.13,0.24-0.279,0.469-0.445,0.688v2.938c0,0.391,0.021,0.784,0.062,1.18
			c-0.13-0.021-0.255-0.031-0.375-0.031c-0.13,0-0.255,0.01-0.375,0.031c0.042-0.396,0.062-0.789,0.062-1.18V36.77
			c-0.276,0.281-0.589,0.56-0.938,0.836c-0.094-0.229-0.208-0.414-0.344-0.555c0.583-0.37,1.047-0.76,1.391-1.172
			C130.084,35.474,130.347,34.999,130.519,34.458z M131.308,35.333c0.338,0.042,0.682,0.062,1.031,0.062h2.344
			c0.344,0,0.685-0.021,1.023-0.062c-0.016,0.12-0.023,0.245-0.023,0.375c0,0.109,0.008,0.224,0.023,0.344
			c-0.339-0.042-0.68-0.062-1.023-0.062h-0.539v3.719c0,0.172-0.097,0.297-0.289,0.375c-0.177,0.078-0.539,0.117-1.086,0.117
			c-0.011-0.266-0.094-0.505-0.25-0.719c0.328,0.042,0.581,0.062,0.758,0.062c0.156,0,0.237-0.06,0.242-0.18v-3.375h-1.18
			c-0.349,0-0.693,0.021-1.031,0.062c0.021-0.12,0.031-0.234,0.031-0.344C131.339,35.578,131.328,35.453,131.308,35.333z
			 M131.769,33.2c0.349,0.042,0.692,0.062,1.031,0.062h1.312c0.349,0,0.692-0.021,1.031-0.062c-0.021,0.13-0.031,0.255-0.031,0.375
			s0.01,0.234,0.031,0.344c-0.339-0.042-0.683-0.062-1.031-0.062H132.8c-0.339,0-0.683,0.021-1.031,0.062
			c0.021-0.109,0.031-0.224,0.031-0.344S131.789,33.331,131.769,33.2z"/>
		<path d="M138.214,32.645c0.255,0.104,0.505,0.174,0.75,0.211c-0.099,0.151-0.232,0.479-0.398,0.984
			c-0.052,0.162-0.099,0.315-0.141,0.461h1.258c0.234,0,0.471-0.023,0.711-0.07c-0.245,1.776-0.597,3.031-1.055,3.766
			c0.458,0.5,1.021,0.828,1.688,0.984c0.521,0.125,1.177,0.198,1.969,0.219c0.234,0,0.481-0.01,0.742-0.031
			c-0.188,0.266-0.302,0.526-0.344,0.781c-1.464-0.13-2.495-0.328-3.094-0.594c-0.505-0.208-0.933-0.516-1.281-0.922
			c-0.474,0.552-1.138,1.047-1.992,1.484c-0.146-0.188-0.336-0.362-0.57-0.523c0.911-0.25,1.638-0.745,2.18-1.484
			c-0.047-0.073-0.094-0.148-0.141-0.227c-0.271-0.568-0.472-1.221-0.602-1.961c-0.255,0.547-0.526,1.06-0.812,1.539
			c-0.156-0.125-0.365-0.229-0.625-0.312c0.385-0.505,0.724-1.107,1.016-1.805C137.743,34.541,137.99,33.708,138.214,32.645z
			 M138.23,34.888c0.094,1.005,0.331,1.854,0.711,2.547c0.37-0.698,0.617-1.578,0.742-2.641h-1.422
			C138.25,34.831,138.24,34.862,138.23,34.888z M141.05,32.739c0.203,0.021,0.442,0.031,0.719,0.031
			c-0.058,0.146-0.086,0.333-0.086,0.562v1.594c0.161-0.073,0.305-0.167,0.43-0.281c0.38,0.656,0.932,1.323,1.656,2
			c-0.214,0.115-0.422,0.279-0.625,0.492c-0.375-0.74-0.862-1.388-1.461-1.945v2.383c0,0.365,0.018,0.732,0.055,1.102
			c-0.109-0.021-0.224-0.031-0.344-0.031c-0.109,0-0.224,0.01-0.344,0.031c0.042-0.37,0.062-0.737,0.062-1.102v-3.898
			C141.113,33.359,141.092,33.046,141.05,32.739z"/>
		<path d="M144.425,33.333c0.297,0.042,0.591,0.062,0.883,0.062h0.836c0.297,0,0.591-0.021,0.883-0.062
			c-0.021,0.099-0.031,0.203-0.031,0.312c0,0.099,0.01,0.201,0.031,0.305c-0.292-0.042-0.586-0.062-0.883-0.062h-0.094v1.852
			c0.292,0,0.586-0.021,0.883-0.062c-0.021,0.099-0.031,0.203-0.031,0.312c0,0.099,0.01,0.203,0.031,0.312
			c-0.297-0.047-0.591-0.07-0.883-0.07v2.047c0.297-0.099,0.581-0.208,0.852-0.328c-0.021,0.292-0.031,0.49-0.031,0.594
			c-1.193,0.365-1.953,0.648-2.281,0.852c-0.011-0.193-0.076-0.412-0.195-0.656c0.385-0.083,0.75-0.174,1.094-0.273v-2.234h-0.062
			c-0.287,0-0.576,0.023-0.867,0.07c0.021-0.109,0.031-0.213,0.031-0.312c0-0.109-0.011-0.213-0.031-0.312
			c0.292,0.042,0.581,0.062,0.867,0.062h0.062v-1.852h-0.18c-0.292,0-0.586,0.021-0.883,0.062c0.021-0.104,0.031-0.206,0.031-0.305
			C144.456,33.536,144.446,33.432,144.425,33.333z M147.363,33.138c0.323,0.021,0.648,0.031,0.977,0.031h1.805
			c0.328,0,0.651-0.01,0.969-0.031c-0.021,0.172-0.031,0.341-0.031,0.508v2.586c0,0.198,0.01,0.396,0.031,0.594
			c-0.318-0.021-0.641-0.031-0.969-0.031h-0.586v0.945h0.805c0.271,0,0.542-0.021,0.812-0.062c-0.021,0.099-0.031,0.203-0.031,0.312
			c0,0.088,0.01,0.18,0.031,0.273c-0.271-0.042-0.542-0.062-0.812-0.062h-0.805v1h1.242c0.297,0,0.591-0.021,0.883-0.062
			c-0.021,0.109-0.031,0.216-0.031,0.32c0,0.099,0.01,0.203,0.031,0.312c-0.292-0.042-0.586-0.062-0.883-0.062h-3.312
			c-0.292,0-0.581,0.021-0.867,0.062c0.021-0.109,0.031-0.213,0.031-0.312c0-0.104-0.011-0.211-0.031-0.32
			c0.286,0.042,0.575,0.062,0.867,0.062h1.508v-1h-0.781c-0.276,0-0.55,0.021-0.82,0.062c0.021-0.094,0.031-0.185,0.031-0.273
			c0-0.109-0.011-0.213-0.031-0.312c0.271,0.042,0.544,0.062,0.82,0.062h0.781v-0.945h-0.656c-0.328,0-0.654,0.01-0.977,0.031
			c0.021-0.198,0.031-0.396,0.031-0.594v-2.586C147.373,33.479,147.363,33.31,147.363,33.138z M147.964,34.739h1.031v-1.094h-1.031
			V34.739z M148.995,36.333v-1.164h-1.031v1.164H148.995z M149.558,33.645v1.094h0.961v-1.094H149.558z M150.519,36.333v-1.164
			h-0.961v1.164H150.519z"/>
		<path d="M152.363,35.138c0.13,0.021,0.255,0.031,0.375,0.031h0.688c0.177,0,0.356-0.01,0.539-0.031
			c-0.037,0.198-0.058,0.388-0.062,0.57v2.797c0.245-0.219,0.484-0.474,0.719-0.766c0.057,0.203,0.161,0.377,0.312,0.523
			c-0.5,0.432-1.023,0.943-1.57,1.531c-0.12-0.182-0.253-0.336-0.398-0.461c0.146-0.162,0.25-0.31,0.312-0.445
			c0.042-0.12,0.062-0.227,0.062-0.32v-2.859h-0.602c-0.12,0-0.245,0.01-0.375,0.031c0.021-0.109,0.031-0.213,0.031-0.312
			S152.383,35.231,152.363,35.138z M153.488,32.856c0.203,0.427,0.477,0.865,0.82,1.312c-0.224,0.052-0.433,0.156-0.625,0.312
			c-0.229-0.51-0.49-0.958-0.781-1.344C153.141,33.081,153.336,32.987,153.488,32.856z M154.769,33.02
			c0.297,0.042,0.591,0.062,0.883,0.062h2.688c0.286,0,0.578-0.021,0.875-0.062c-0.026,0.099-0.039,0.203-0.039,0.312
			c0,0.099,0.013,0.203,0.039,0.312c-0.297-0.047-0.589-0.07-0.875-0.07h-1.344l-0.188,0.898c0.427,0.005,0.852,0.008,1.273,0.008
			c0.161,0,0.32-0.008,0.477-0.023c-0.026,0.208-0.039,0.417-0.039,0.625v1.086h0.188c0.292,0,0.586-0.018,0.883-0.055
			c-0.021,0.099-0.031,0.203-0.031,0.312c0,0.099,0.01,0.203,0.031,0.312c-0.297-0.042-0.591-0.062-0.883-0.062h-3.43
			c-0.297,0-0.591,0.021-0.883,0.062c0.021-0.109,0.031-0.213,0.031-0.312c0-0.109-0.011-0.213-0.031-0.312
			c0.292,0.037,0.586,0.055,0.883,0.055h0.578l0.25-1.164c-0.365,0.005-0.724,0.01-1.078,0.016c0.016-0.099,0.023-0.193,0.023-0.281
			c0-0.099-0.008-0.193-0.023-0.281c0.401,0.005,0.799,0.01,1.195,0.016l0.18-0.898h-0.75c-0.292,0-0.586,0.023-0.883,0.07
			c0.021-0.109,0.031-0.213,0.031-0.312C154.8,33.224,154.789,33.12,154.769,33.02z M155.175,37.364
			c0.286,0.042,0.57,0.062,0.852,0.062h1.969c0.276,0,0.555-0.021,0.836-0.062c-0.042,0.271-0.062,0.539-0.062,0.805v1.227
			c0,0.266,0.021,0.534,0.062,0.805c-0.151-0.021-0.255-0.031-0.312-0.031c-0.058,0-0.172,0.01-0.344,0.031
			c0.036-0.213,0.057-0.422,0.062-0.625h-2.461c0.005,0.208,0.023,0.417,0.055,0.625c-0.167-0.021-0.281-0.031-0.344-0.031
			c-0.052,0-0.156,0.01-0.312,0.031c0.047-0.271,0.07-0.539,0.07-0.805v-1.227C155.245,37.903,155.222,37.635,155.175,37.364z
			 M155.769,39.114h2.477v-1.195h-2.477V39.114z M157.995,36.169v-1.18c-0.438,0-0.87,0.002-1.297,0.008l-0.25,1.172H157.995z"/>
		<path d="M162.652,32.606c0.229,0.104,0.531,0.177,0.906,0.219c-0.198,0.162-0.451,0.469-0.758,0.922
			c-0.016,0.026-0.031,0.052-0.047,0.078h3.734c0.317,0,0.63-0.018,0.938-0.055c-0.062,0.229-0.102,0.487-0.117,0.773l-0.164,4.594
			c-0.031,0.443-0.214,0.734-0.547,0.875c-0.234,0.094-0.615,0.167-1.141,0.219c0-0.245-0.104-0.502-0.312-0.773
			c0.38,0.016,0.643,0.023,0.789,0.023c0.234,0,0.391-0.086,0.469-0.258c0.057-0.104,0.086-0.248,0.086-0.43l0.164-4.367h-4.281
			c-0.401,0.599-0.831,1.141-1.289,1.625c-0.214-0.208-0.453-0.323-0.719-0.344c0.531-0.396,1.021-0.909,1.469-1.539
			C162.232,33.622,162.506,33.101,162.652,32.606z M161.902,35.645c0.307,0.042,0.617,0.062,0.93,0.062h1.445
			c0.307,0,0.62-0.021,0.938-0.062c-0.047,0.281-0.07,0.56-0.07,0.836v1.75c0,0.307,0.023,0.609,0.07,0.906
			c-0.172-0.016-0.287-0.023-0.344-0.023c-0.068,0-0.195,0.008-0.383,0.023c0.036-0.229,0.057-0.456,0.062-0.68h-1.992
			c0,0.297,0.021,0.599,0.062,0.906c-0.188-0.021-0.312-0.031-0.375-0.031s-0.177,0.01-0.344,0.031
			c0.042-0.307,0.062-0.609,0.062-0.906v-1.977C161.964,36.206,161.943,35.927,161.902,35.645z M162.558,37.919h2v-1.688h-2V37.919z
			"/>
	</g>
</g>
<g>
	<path d="M124.508,86.959v3.726c0,1.175-0.736,2.167-2.311,2.167c-1.543,0-2.207-0.991-2.207-2.063v-3.83h0.775v3.614
		c0,1.248,0.76,1.591,1.455,1.591c0.712,0,1.511-0.328,1.511-1.575v-3.63H124.508z"/>
	<path d="M129.548,86.959h0.751V92.7h-0.871l-2.918-4.638h-0.016V92.7h-0.751v-5.741h0.919l2.87,4.637h0.016V86.959z"/>
	<path d="M131.022,86.959h4.662v0.688h-1.943V92.7h-0.775v-5.053h-1.943V86.959z"/>
	<path d="M137.302,92.7h-0.775v-5.741h0.775V92.7z"/>
	<path d="M139.406,92.012h2.911V92.7h-3.686v-5.741h0.775V92.012z"/>
	<path d="M147.601,86.012c0.25,0.12,0.528,0.201,0.836,0.242c-0.151,0.136-0.352,0.354-0.602,0.656h2.453
		c0.271,0,0.539-0.01,0.805-0.031c-0.479,0.714-0.958,1.276-1.438,1.688c-0.089,0.078-0.175,0.146-0.258,0.203
		c0.042,0.021,0.083,0.039,0.125,0.055c0.614,0.266,1.557,0.484,2.828,0.656c-0.219,0.183-0.365,0.401-0.438,0.656
		c-1.297-0.312-2.269-0.653-2.914-1.023c-0.026-0.01-0.047-0.023-0.062-0.039c-0.406,0.24-0.867,0.451-1.383,0.633
		c-0.771,0.24-1.456,0.412-2.055,0.516c-0.094-0.224-0.25-0.422-0.469-0.594c0.906-0.083,1.672-0.219,2.297-0.406
		c0.401-0.125,0.768-0.278,1.102-0.461c-0.412-0.312-0.769-0.713-1.07-1.203c-0.318,0.422-0.664,0.852-1.039,1.289
		c-0.208-0.172-0.448-0.286-0.719-0.344c0.432-0.271,0.854-0.672,1.266-1.203C147.07,87.067,147.314,86.637,147.601,86.012z
		 M147.288,91.418c0.188,0.198,0.372,0.352,0.555,0.461c-0.641,0.271-1.318,0.69-2.031,1.258c-0.167-0.198-0.362-0.354-0.586-0.469
		C145.95,92.398,146.637,91.981,147.288,91.418z M145.781,90.504c0.307,0.042,0.612,0.062,0.914,0.062h1.773v-0.406
		c0-0.177-0.011-0.354-0.031-0.531c0.219,0.047,0.448,0.07,0.688,0.07c-0.062,0.162-0.094,0.347-0.094,0.555v0.312h1.602
		c0.297,0,0.599-0.021,0.906-0.062c-0.026,0.12-0.039,0.234-0.039,0.344s0.013,0.214,0.039,0.312
		c-0.308-0.036-0.609-0.055-0.906-0.055h-1.602v1.742c0,0.276-0.099,0.456-0.297,0.539c-0.198,0.078-0.482,0.117-0.852,0.117
		c-0.058-0.255-0.162-0.474-0.312-0.656h0.461c0.292,0,0.438-0.104,0.438-0.312v-1.43h-1.773c-0.302,0-0.607,0.019-0.914,0.055
		c0.021-0.099,0.031-0.203,0.031-0.312S145.801,90.624,145.781,90.504z M147.726,87.426c0.344,0.443,0.731,0.8,1.164,1.07
		c0.016-0.01,0.031-0.021,0.047-0.031c0.359-0.266,0.716-0.614,1.07-1.047h-2.094C147.846,87.418,147.783,87.421,147.726,87.426z
		 M149.976,91.45c0.489,0.365,1.146,0.781,1.969,1.25c-0.183,0.114-0.352,0.278-0.508,0.492c-0.177-0.177-0.445-0.394-0.805-0.648
		c-0.38-0.26-0.734-0.471-1.062-0.633C149.721,91.791,149.856,91.637,149.976,91.45z"/>
	<path d="M154.843,86.106c0.188,0.094,0.419,0.177,0.695,0.25c-0.12,0.115-0.245,0.318-0.375,0.609
		c-0.099,0.229-0.206,0.453-0.32,0.672v4.648c0,0.365,0.023,0.731,0.07,1.102c-0.12-0.021-0.234-0.031-0.344-0.031
		c-0.12,0-0.234,0.01-0.344,0.031c0.042-0.37,0.062-0.737,0.062-1.102v-3.617c-0.25,0.417-0.523,0.82-0.82,1.211
		c-0.125-0.156-0.3-0.289-0.523-0.398c0.521-0.536,0.927-1.096,1.219-1.68C154.512,87.15,154.739,86.585,154.843,86.106z
		 M156.351,86.848c0.192,0.078,0.411,0.154,0.656,0.227c-0.062,0.078-0.136,0.222-0.219,0.43c-0.068,0.198-0.136,0.388-0.203,0.57
		h1.047v-0.969c0-0.317-0.021-0.633-0.062-0.945c0.198,0.021,0.438,0.031,0.719,0.031c-0.068,0.151-0.102,0.341-0.102,0.57v1.312
		h1.133c0.239,0,0.497-0.01,0.773-0.031c-0.021,0.099-0.031,0.19-0.031,0.273c0,0.109,0.01,0.203,0.031,0.281
		c-0.188-0.021-0.445-0.031-0.773-0.031h-1.133v1.852h1.188c0.292,0,0.586-0.021,0.883-0.062c-0.021,0.099-0.031,0.203-0.031,0.312
		c0,0.104,0.01,0.206,0.031,0.305c-0.297-0.042-0.591-0.062-0.883-0.062h-1.188v1.539c0,0.364,0.023,0.727,0.07,1.086
		c-0.12-0.021-0.234-0.031-0.344-0.031c-0.12,0-0.234,0.01-0.344,0.031c0.042-0.359,0.062-0.722,0.062-1.086v-1.539h-1.445
		c-0.292,0-0.581,0.021-0.867,0.062c0.021-0.099,0.031-0.2,0.031-0.305c0-0.109-0.011-0.213-0.031-0.312
		c0.286,0.042,0.575,0.062,0.867,0.062h1.445v-1.852h-1.258c-0.203,0.443-0.412,0.831-0.625,1.164
		c-0.12-0.114-0.294-0.219-0.523-0.312c0.302-0.401,0.536-0.799,0.703-1.195C156.111,87.812,156.252,87.353,156.351,86.848z"/>
	<path d="M161.062,87.598c0.302,0.047,0.606,0.07,0.914,0.07h2.805c-0.037-0.521-0.065-1.052-0.086-1.594
		c0.302,0.058,0.549,0.086,0.742,0.086c-0.058,0.297-0.086,0.591-0.086,0.883c0,0.214,0.005,0.422,0.016,0.625h1.695
		c0.302,0,0.606-0.023,0.914-0.07c-0.021,0.12-0.031,0.234-0.031,0.344s0.01,0.214,0.031,0.312
		c-0.308-0.042-0.612-0.062-0.914-0.062h-1.664c0.052,0.75,0.156,1.469,0.312,2.156c0.198,0.859,0.484,1.513,0.859,1.961
		c0.307,0.302,0.526,0.453,0.656,0.453c0.088,0,0.192-0.409,0.312-1.227c0.156,0.193,0.362,0.339,0.617,0.438
		c-0.115,0.594-0.222,0.992-0.32,1.195c-0.125,0.245-0.269,0.367-0.43,0.367c-0.224,0-0.451-0.078-0.68-0.234
		c-0.63-0.433-1.094-1.133-1.391-2.102c-0.151-0.463-0.284-1.125-0.398-1.984c-0.042-0.333-0.078-0.674-0.109-1.023h-2.852
		c-0.308,0-0.612,0.021-0.914,0.062c0.021-0.099,0.031-0.203,0.031-0.312S161.082,87.718,161.062,87.598z M161.468,89.629
		c0.13,0.026,0.255,0.039,0.375,0.039h2.312c0.13,0,0.258-0.013,0.383-0.039c-0.026,0.099-0.039,0.193-0.039,0.281
		c0,0.109,0.013,0.214,0.039,0.312c-0.125-0.021-0.253-0.031-0.383-0.031h-0.805v1.898c0.458-0.12,0.896-0.25,1.312-0.391
		c-0.021,0.287-0.031,0.482-0.031,0.586c-1.698,0.386-2.784,0.688-3.258,0.906c-0.011-0.188-0.073-0.406-0.188-0.656
		c0.557-0.083,1.088-0.185,1.594-0.305v-2.039h-0.938c-0.12,0-0.245,0.011-0.375,0.031c0.021-0.099,0.031-0.203,0.031-0.312
		C161.499,89.822,161.489,89.728,161.468,89.629z M166.437,86.286c0.192,0.261,0.477,0.523,0.852,0.789
		c-0.183,0.094-0.362,0.229-0.539,0.406c-0.208-0.344-0.487-0.638-0.836-0.883C166.111,86.525,166.285,86.421,166.437,86.286z"/>
</g>
<rect x="63.102" y="190.285" class="st6" width="129.75" height="14.899"/>
<g>
	<path class="st4" d="M96.82,201.048h-0.775v-5.741h2.654c0.944,0,1.887,0.328,1.887,1.544c0,0.847-0.432,1.159-0.8,1.375
		c0.328,0.136,0.656,0.279,0.688,1.079l0.048,1.04c0.008,0.319,0.048,0.439,0.288,0.575v0.128h-0.951
		c-0.112-0.352-0.136-1.224-0.136-1.439c0-0.472-0.096-1.023-1.023-1.023H96.82V201.048z M96.82,197.922h1.799
		c0.567,0,1.167-0.145,1.167-0.992c0-0.887-0.647-0.959-1.031-0.959H96.82V197.922z"/>
	<path class="st4" d="M106.042,201.048h-4.238v-5.741h4.182v0.688h-3.406v1.759h3.142v0.688h-3.142v1.919h3.462V201.048z"/>
	<path class="st4" d="M107.916,201.048h-0.776v-5.741h2.583c1.063,0,1.703,0.688,1.703,1.615c0,0.8-0.456,1.703-1.703,1.703h-1.807
		V201.048z M107.916,197.962h1.543c0.696,0,1.167-0.256,1.167-1.032c0-0.728-0.496-0.959-1.136-0.959h-1.575V197.962z"/>
	<path class="st4" d="M116.714,201.048h-4.238v-5.741h4.182v0.688h-3.406v1.759h3.142v0.688h-3.142v1.919h3.462V201.048z"/>
	<path class="st4" d="M118.636,199.377l-0.6,1.671h-0.8l2.159-5.741h0.88l2.079,5.741h-0.848l-0.567-1.671H118.636z M120.659,198.69
		l-0.848-2.527h-0.016l-0.919,2.527H120.659z"/>
	<path class="st4" d="M121.613,195.307h4.662v0.688h-1.943v5.053h-0.776v-5.053h-1.943V195.307z"/>
	<path class="st4" d="M128.949,196.853c0.13,0.021,0.255,0.031,0.375,0.031h0.688c0.177,0,0.357-0.011,0.539-0.031
		c-0.037,0.198-0.057,0.388-0.062,0.57v2.797c0.245-0.219,0.484-0.474,0.719-0.766c0.057,0.203,0.162,0.378,0.312,0.523
		c-0.5,0.433-1.023,0.942-1.57,1.531c-0.12-0.183-0.252-0.336-0.398-0.461c0.146-0.161,0.25-0.31,0.312-0.445
		c0.042-0.12,0.062-0.227,0.062-0.32v-2.859h-0.602c-0.12,0-0.245,0.011-0.375,0.031c0.021-0.109,0.031-0.214,0.031-0.312
		S128.97,196.947,128.949,196.853z M130.074,194.572c0.203,0.427,0.477,0.864,0.82,1.312c-0.224,0.052-0.432,0.156-0.625,0.312
		c-0.229-0.511-0.49-0.958-0.781-1.344C129.727,194.795,129.923,194.702,130.074,194.572z M131.355,194.736
		c0.297,0.042,0.591,0.062,0.883,0.062h2.688c0.287,0,0.578-0.021,0.875-0.062c-0.026,0.099-0.039,0.203-0.039,0.312
		c0,0.099,0.013,0.203,0.039,0.312c-0.297-0.047-0.588-0.07-0.875-0.07h-1.344l-0.188,0.898c0.427,0.005,0.852,0.008,1.273,0.008
		c0.162,0,0.32-0.008,0.477-0.023c-0.026,0.208-0.039,0.417-0.039,0.625v1.086h0.188c0.292,0,0.586-0.019,0.883-0.055
		c-0.021,0.099-0.031,0.203-0.031,0.312c0,0.099,0.01,0.203,0.031,0.312c-0.297-0.042-0.591-0.062-0.883-0.062h-3.43
		c-0.297,0-0.591,0.021-0.883,0.062c0.021-0.109,0.031-0.214,0.031-0.312c0-0.109-0.01-0.214-0.031-0.312
		c0.292,0.036,0.586,0.055,0.883,0.055h0.578l0.25-1.164c-0.365,0.005-0.724,0.011-1.078,0.016c0.016-0.099,0.023-0.192,0.023-0.281
		c0-0.099-0.008-0.192-0.023-0.281c0.401,0.005,0.799,0.011,1.195,0.016l0.18-0.898h-0.75c-0.292,0-0.586,0.023-0.883,0.07
		c0.021-0.109,0.031-0.214,0.031-0.312C131.386,194.939,131.376,194.834,131.355,194.736z M131.761,199.08
		c0.287,0.042,0.57,0.062,0.852,0.062h1.969c0.276,0,0.555-0.021,0.836-0.062c-0.042,0.271-0.062,0.539-0.062,0.805v1.227
		c0,0.266,0.021,0.534,0.062,0.805c-0.151-0.021-0.255-0.031-0.312-0.031s-0.172,0.011-0.344,0.031
		c0.037-0.214,0.057-0.422,0.062-0.625h-2.461c0.005,0.208,0.023,0.417,0.055,0.625c-0.167-0.021-0.281-0.031-0.344-0.031
		c-0.052,0-0.156,0.011-0.312,0.031c0.047-0.271,0.07-0.539,0.07-0.805v-1.227C131.831,199.619,131.808,199.35,131.761,199.08z
		 M132.355,200.83h2.477v-1.195h-2.477V200.83z M134.581,197.884v-1.18c-0.438,0-0.87,0.003-1.297,0.008l-0.25,1.172H134.581z"/>
	<path class="st4" d="M139.238,194.322c0.229,0.104,0.531,0.177,0.906,0.219c-0.198,0.161-0.451,0.469-0.758,0.922
		c-0.016,0.026-0.031,0.052-0.047,0.078h3.734c0.318,0,0.63-0.019,0.938-0.055c-0.062,0.229-0.102,0.487-0.117,0.773l-0.164,4.594
		c-0.031,0.442-0.213,0.734-0.547,0.875c-0.234,0.094-0.615,0.167-1.141,0.219c0-0.245-0.104-0.503-0.312-0.773
		c0.38,0.016,0.643,0.023,0.789,0.023c0.234,0,0.391-0.086,0.469-0.258c0.057-0.104,0.086-0.247,0.086-0.43l0.164-4.367h-4.281
		c-0.401,0.599-0.831,1.141-1.289,1.625c-0.213-0.208-0.453-0.323-0.719-0.344c0.531-0.396,1.021-0.909,1.469-1.539
		C138.818,195.337,139.092,194.817,139.238,194.322z M138.488,197.361c0.307,0.042,0.617,0.062,0.93,0.062h1.445
		c0.307,0,0.62-0.021,0.938-0.062c-0.047,0.281-0.07,0.56-0.07,0.836v1.75c0,0.308,0.023,0.609,0.07,0.906
		c-0.172-0.016-0.287-0.023-0.344-0.023c-0.068,0-0.195,0.008-0.383,0.023c0.037-0.229,0.057-0.456,0.062-0.68h-1.992
		c0,0.297,0.021,0.599,0.062,0.906c-0.188-0.021-0.312-0.031-0.375-0.031s-0.177,0.011-0.344,0.031
		c0.042-0.308,0.062-0.609,0.062-0.906v-1.977C138.55,197.92,138.529,197.642,138.488,197.361z M139.144,199.634h2v-1.688h-2
		V199.634z"/>
	<path class="st4" d="M147.831,200.259c-0.021,0.292-0.031,0.489-0.031,0.594c-1.338,0.203-2.193,0.359-2.562,0.469
		c-0.01-0.188-0.076-0.406-0.195-0.656C146.058,200.572,146.988,200.436,147.831,200.259z M146.488,194.509
		c0.198,0.125,0.427,0.239,0.688,0.344c-0.208,0.317-0.409,0.677-0.602,1.078c-0.213,0.469-0.43,0.862-0.648,1.18
		c0.338-0.094,0.68-0.148,1.023-0.164l0.008,0.008c0.219-0.422,0.352-0.734,0.398-0.938l0.656,0.406
		c-0.172,0.114-0.362,0.352-0.57,0.711c-0.625,1.052-1.057,1.722-1.297,2.008l1.617-0.227c-0.021,0.172-0.031,0.341-0.031,0.508
		c-0.901,0.062-1.672,0.167-2.312,0.312l-0.125-0.688c0.302-0.125,0.539-0.308,0.711-0.547c0.281-0.422,0.513-0.786,0.695-1.094
		c-0.641,0.042-1.117,0.128-1.43,0.258l-0.125-0.648c0.287-0.156,0.529-0.422,0.727-0.797
		C146.048,195.908,146.253,195.337,146.488,194.509z M147.863,195.705c0.287,0.042,0.576,0.062,0.867,0.062h0.82v-0.625
		c0-0.219-0.021-0.438-0.062-0.656c0.208,0.073,0.458,0.112,0.75,0.117c-0.062,0.136-0.094,0.315-0.094,0.539v0.625h1.031
		c0.292,0,0.581-0.021,0.867-0.062c-0.021,0.099-0.031,0.203-0.031,0.312c0,0.104,0.01,0.206,0.031,0.305
		c-0.287-0.042-0.576-0.062-0.867-0.062h-1.031v1.164h0.656c0.292,0,0.581-0.021,0.867-0.062c-0.021,0.099-0.031,0.2-0.031,0.305
		c0,0.109,0.01,0.214,0.031,0.312c-0.287-0.042-0.576-0.062-0.867-0.062h-1.852c-0.287,0-0.578,0.021-0.875,0.062
		c0.021-0.099,0.031-0.203,0.031-0.312c0-0.104-0.01-0.206-0.031-0.305c0.297,0.042,0.588,0.062,0.875,0.062h0.602v-1.164h-0.82
		c-0.292,0-0.581,0.021-0.867,0.062c0.021-0.099,0.031-0.2,0.031-0.305C147.894,195.908,147.884,195.803,147.863,195.705z
		 M148.238,198.603c0.307,0.042,0.62,0.062,0.938,0.062h1.438c0.307,0,0.62-0.021,0.938-0.062c-0.042,0.276-0.062,0.55-0.062,0.82
		v1.594c0,0.302,0.021,0.602,0.062,0.898c-0.177-0.021-0.292-0.031-0.344-0.031c-0.068,0-0.193,0.011-0.375,0.031
		c0.037-0.261,0.055-0.519,0.055-0.773h-1.992c0.005,0.261,0.023,0.519,0.055,0.773c-0.188-0.021-0.31-0.031-0.367-0.031
		s-0.172,0.011-0.344,0.031c0.037-0.297,0.055-0.597,0.055-0.898v-1.594C148.292,199.153,148.274,198.879,148.238,198.603z
		 M148.894,200.634h2v-1.461h-2V200.634z"/>
	<path class="st4" d="M153.269,195.572c0.287,0.042,0.578,0.062,0.875,0.062h2.242v-0.273c0-0.317-0.021-0.63-0.062-0.938
		c0.198,0.021,0.438,0.031,0.719,0.031c-0.062,0.141-0.094,0.328-0.094,0.562v0.617h2.289c0.287,0,0.576-0.021,0.867-0.062
		c-0.021,0.109-0.031,0.214-0.031,0.312c0,0.109,0.01,0.214,0.031,0.312c-0.292-0.036-0.581-0.055-0.867-0.055h-2.289v0.875h1.289
		c0.338,0,0.682-0.013,1.031-0.039c-0.021,0.177-0.031,0.354-0.031,0.531v1.031c0,0.208,0.01,0.419,0.031,0.633
		c-0.349-0.021-0.693-0.031-1.031-0.031h-0.688c0.307,0.469,0.643,0.839,1.008,1.109c0.375,0.308,0.945,0.539,1.711,0.695
		c-0.24,0.198-0.419,0.406-0.539,0.625c-0.547-0.229-1.042-0.536-1.484-0.922c-0.463-0.391-0.859-0.894-1.188-1.508h-0.109v1.656
		c0,0.364,0.021,0.727,0.062,1.086c-0.109-0.021-0.224-0.031-0.344-0.031c-0.109,0-0.224,0.011-0.344,0.031
		c0.042-0.359,0.062-0.722,0.062-1.086v-1.656h-0.016c-0.51,0.833-1.461,1.664-2.852,2.492c-0.115-0.183-0.305-0.356-0.57-0.523
		c0.667-0.239,1.25-0.555,1.75-0.945c0.406-0.276,0.755-0.617,1.047-1.023h-0.539c-0.349,0-0.693,0.011-1.031,0.031
		c0.021-0.214,0.031-0.425,0.031-0.633v-1.031c-0.021-0.177-0.031-0.354-0.031-0.531c0.338,0.026,0.682,0.039,1.031,0.039h1.18
		v-0.875h-2.242c-0.297,0-0.588,0.019-0.875,0.055c0.016-0.099,0.023-0.203,0.023-0.312
		C153.292,195.786,153.285,195.681,153.269,195.572z M156.386,198.634v-1.125H154.8v1.125H156.386z M158.636,198.634v-1.125h-1.688
		v1.125H158.636z"/>
</g>
<g>
	<path class="st3" d="M89.621,85.817c-0.68,1.279-1.087,2.047-1.087,3.966c0,1.319,0.456,2.295,1.096,3.55h-0.472
		c-0.832-1.248-1.375-2.247-1.375-3.742c0-1.407,0.488-2.542,1.351-3.774H89.621z"/>
	<path class="st3" d="M93.261,90.311v1.367h-0.704v-1.367h-2.455v-0.688l2.574-3.566h0.584v3.646h0.823v0.608H93.261z M90.75,89.703
		h1.807v-2.55h-0.016L90.75,89.703z"/>
	<path class="st3" d="M94.63,93.333c0.68-1.279,1.087-2.047,1.087-3.966c0-1.319-0.456-2.295-1.095-3.55h0.472
		c0.832,1.248,1.375,2.247,1.375,3.742c0,1.407-0.488,2.542-1.351,3.774H94.63z"/>
</g>
<polyline class="st6" points="189.264,167.712 98.555,167.712 98.555,136.312 189.264,136.312 "/>
<g>
	<path d="M116.425,145.502c0.297,0.042,0.591,0.062,0.883,0.062h0.281v-1.133c0-0.161-0.011-0.325-0.031-0.492
		c0.198,0.021,0.417,0.031,0.656,0.031c-0.068,0.151-0.102,0.328-0.102,0.531v1.062h0.031c0.297,0,0.591-0.021,0.883-0.062
		c-0.021,0.104-0.031,0.206-0.031,0.305c0,0.109,0.01,0.214,0.031,0.312c-0.292-0.042-0.586-0.062-0.883-0.062h-0.031v1.719
		c0.323-0.136,0.627-0.281,0.914-0.438c-0.021,0.302-0.031,0.513-0.031,0.633c-0.328,0.109-0.623,0.216-0.883,0.32v2.367
		c0,0.255-0.104,0.425-0.312,0.508c-0.208,0.078-0.508,0.117-0.898,0.117c-0.058-0.25-0.162-0.458-0.312-0.625h0.438
		c0.375,0,0.562-0.097,0.562-0.289v-1.859c-0.526,0.219-0.894,0.401-1.102,0.547c-0.011-0.198-0.07-0.427-0.18-0.688
		c0.448-0.104,0.875-0.231,1.281-0.383v-1.93h-0.281c-0.292,0-0.586,0.021-0.883,0.062c0.021-0.099,0.031-0.203,0.031-0.312
		C116.456,145.708,116.446,145.607,116.425,145.502z M120.277,143.94c0.177,0.036,0.406,0.055,0.688,0.055
		c-0.089,0.312-0.133,0.675-0.133,1.086v0.453h0.789c0.297,0,0.596-0.023,0.898-0.07c-0.042,0.198-0.062,0.396-0.062,0.594
		c0,1.953,0.057,3.141,0.172,3.562c0.125,0.542,0.227,0.812,0.305,0.812c0.036-0.094,0.086-0.438,0.148-1.031
		c0.172,0.219,0.372,0.378,0.602,0.477c-0.219,0.917-0.409,1.375-0.57,1.375c-0.183-0.016-0.375-0.161-0.578-0.438
		c-0.203-0.297-0.359-0.714-0.469-1.25c-0.109-0.636-0.164-1.805-0.164-3.508h-1.07v0.164c0,0.859-0.039,1.575-0.117,2.148
		c0.25,0.188,0.508,0.378,0.773,0.57c-0.193,0.183-0.328,0.356-0.406,0.523c-0.167-0.161-0.326-0.312-0.477-0.453
		c-0.062,0.229-0.128,0.425-0.195,0.586c-0.292,0.641-0.794,1.214-1.508,1.719c-0.13-0.192-0.3-0.339-0.508-0.438
		c0.812-0.516,1.344-1.058,1.594-1.625c0.067-0.167,0.125-0.37,0.172-0.609c-0.328-0.266-0.656-0.5-0.984-0.703
		c0.161-0.136,0.299-0.281,0.414-0.438c0.213,0.167,0.438,0.339,0.672,0.516c0.052-0.5,0.078-1.099,0.078-1.797v-0.164h-0.289
		c-0.266,0-0.534,0.021-0.805,0.062c0.021-0.109,0.031-0.224,0.031-0.344c0-0.099-0.011-0.203-0.031-0.312
		c0.271,0.047,0.539,0.07,0.805,0.07h0.289v-0.164C120.339,144.948,120.318,144.471,120.277,143.94z"/>
	<path d="M126.113,144.026c0.198,0.104,0.438,0.19,0.719,0.258c-0.109,0.067-0.232,0.192-0.367,0.375
		c-0.453,0.641-1.008,1.231-1.664,1.773c-0.13-0.156-0.315-0.292-0.555-0.406c0.516-0.312,0.917-0.644,1.203-0.992
		C125.787,144.648,126.008,144.312,126.113,144.026z M126.519,145.659c0.224,0.141,0.466,0.234,0.727,0.281
		c-0.172,0.099-0.357,0.308-0.555,0.625c-0.13,0.239-0.279,0.469-0.445,0.688v2.938c0,0.391,0.021,0.784,0.062,1.18
		c-0.13-0.021-0.255-0.031-0.375-0.031c-0.13,0-0.255,0.011-0.375,0.031c0.042-0.396,0.062-0.789,0.062-1.18v-2.219
		c-0.276,0.281-0.589,0.56-0.938,0.836c-0.094-0.229-0.208-0.414-0.344-0.555c0.583-0.37,1.047-0.761,1.391-1.172
		C126.084,146.674,126.347,146.201,126.519,145.659z M127.308,146.534c0.338,0.042,0.682,0.062,1.031,0.062h2.344
		c0.344,0,0.685-0.021,1.023-0.062c-0.016,0.12-0.023,0.245-0.023,0.375c0,0.109,0.008,0.224,0.023,0.344
		c-0.339-0.042-0.68-0.062-1.023-0.062h-0.539v3.719c0,0.172-0.097,0.297-0.289,0.375c-0.177,0.078-0.539,0.117-1.086,0.117
		c-0.011-0.266-0.094-0.505-0.25-0.719c0.328,0.042,0.581,0.062,0.758,0.062c0.156,0,0.237-0.06,0.242-0.18v-3.375h-1.18
		c-0.349,0-0.693,0.021-1.031,0.062c0.021-0.12,0.031-0.234,0.031-0.344C127.339,146.779,127.328,146.654,127.308,146.534z
		 M127.769,144.401c0.349,0.042,0.692,0.062,1.031,0.062h1.312c0.349,0,0.692-0.021,1.031-0.062
		c-0.021,0.13-0.031,0.255-0.031,0.375s0.01,0.234,0.031,0.344c-0.339-0.042-0.683-0.062-1.031-0.062H128.8
		c-0.339,0-0.683,0.021-1.031,0.062c0.021-0.109,0.031-0.224,0.031-0.344S127.789,144.531,127.769,144.401z"/>
	<path d="M134.933,143.846c0.25,0.12,0.528,0.2,0.836,0.242c-0.151,0.136-0.352,0.354-0.602,0.656h2.453
		c0.271,0,0.539-0.011,0.805-0.031c-0.479,0.714-0.958,1.276-1.438,1.688c-0.089,0.078-0.175,0.146-0.258,0.203
		c0.042,0.021,0.083,0.039,0.125,0.055c0.614,0.266,1.557,0.484,2.828,0.656c-0.219,0.183-0.365,0.401-0.438,0.656
		c-1.297-0.312-2.269-0.653-2.914-1.023c-0.026-0.011-0.047-0.023-0.062-0.039c-0.406,0.239-0.867,0.45-1.383,0.633
		c-0.771,0.239-1.456,0.411-2.055,0.516c-0.094-0.224-0.25-0.422-0.469-0.594c0.906-0.083,1.672-0.219,2.297-0.406
		c0.401-0.125,0.768-0.278,1.102-0.461c-0.412-0.312-0.769-0.714-1.07-1.203c-0.318,0.422-0.664,0.852-1.039,1.289
		c-0.208-0.172-0.448-0.286-0.719-0.344c0.432-0.271,0.854-0.672,1.266-1.203C134.402,144.901,134.646,144.471,134.933,143.846z
		 M134.62,149.252c0.188,0.198,0.372,0.352,0.555,0.461c-0.641,0.271-1.318,0.69-2.031,1.258c-0.167-0.198-0.362-0.354-0.586-0.469
		C133.282,150.232,133.969,149.815,134.62,149.252z M133.113,148.338c0.307,0.042,0.612,0.062,0.914,0.062h1.773v-0.406
		c0-0.177-0.011-0.354-0.031-0.531c0.219,0.047,0.448,0.07,0.688,0.07c-0.062,0.161-0.094,0.347-0.094,0.555v0.312h1.602
		c0.297,0,0.599-0.021,0.906-0.062c-0.026,0.12-0.039,0.234-0.039,0.344s0.013,0.214,0.039,0.312
		c-0.308-0.036-0.609-0.055-0.906-0.055h-1.602v1.742c0,0.276-0.099,0.456-0.297,0.539c-0.198,0.078-0.482,0.117-0.852,0.117
		c-0.058-0.255-0.162-0.474-0.312-0.656h0.461c0.292,0,0.438-0.104,0.438-0.312v-1.43h-1.773c-0.302,0-0.607,0.019-0.914,0.055
		c0.021-0.099,0.031-0.203,0.031-0.312S133.133,148.458,133.113,148.338z M135.058,145.26c0.344,0.442,0.731,0.8,1.164,1.07
		c0.016-0.011,0.031-0.021,0.047-0.031c0.359-0.266,0.716-0.614,1.07-1.047h-2.094C135.178,145.252,135.115,145.255,135.058,145.26z
		 M137.308,149.284c0.489,0.364,1.146,0.781,1.969,1.25c-0.183,0.114-0.352,0.278-0.508,0.492c-0.177-0.177-0.445-0.394-0.805-0.648
		c-0.38-0.261-0.734-0.472-1.062-0.633C137.053,149.624,137.188,149.471,137.308,149.284z"/>
	<path d="M142.175,143.94c0.188,0.094,0.419,0.177,0.695,0.25c-0.12,0.114-0.245,0.317-0.375,0.609
		c-0.099,0.229-0.206,0.453-0.32,0.672v4.648c0,0.364,0.023,0.731,0.07,1.102c-0.12-0.021-0.234-0.031-0.344-0.031
		c-0.12,0-0.234,0.011-0.344,0.031c0.042-0.37,0.062-0.737,0.062-1.102v-3.617c-0.25,0.417-0.523,0.82-0.82,1.211
		c-0.125-0.156-0.3-0.289-0.523-0.398c0.521-0.536,0.927-1.097,1.219-1.68C141.844,144.984,142.071,144.419,142.175,143.94z
		 M143.683,144.682c0.192,0.078,0.411,0.153,0.656,0.227c-0.062,0.078-0.136,0.222-0.219,0.43c-0.068,0.198-0.136,0.388-0.203,0.57
		h1.047v-0.969c0-0.317-0.021-0.633-0.062-0.945c0.198,0.021,0.438,0.031,0.719,0.031c-0.068,0.151-0.102,0.341-0.102,0.57v1.312
		h1.133c0.239,0,0.497-0.011,0.773-0.031c-0.021,0.099-0.031,0.19-0.031,0.273c0,0.109,0.01,0.203,0.031,0.281
		c-0.188-0.021-0.445-0.031-0.773-0.031h-1.133v1.852h1.188c0.292,0,0.586-0.021,0.883-0.062c-0.021,0.099-0.031,0.203-0.031,0.312
		c0,0.104,0.01,0.206,0.031,0.305c-0.297-0.042-0.591-0.062-0.883-0.062h-1.188v1.539c0,0.364,0.023,0.727,0.07,1.086
		c-0.12-0.021-0.234-0.031-0.344-0.031c-0.12,0-0.234,0.011-0.344,0.031c0.042-0.359,0.062-0.722,0.062-1.086v-1.539h-1.445
		c-0.292,0-0.581,0.021-0.867,0.062c0.021-0.099,0.031-0.2,0.031-0.305c0-0.109-0.011-0.214-0.031-0.312
		c0.286,0.042,0.575,0.062,0.867,0.062h1.445v-1.852h-1.258c-0.203,0.442-0.412,0.831-0.625,1.164
		c-0.12-0.114-0.294-0.219-0.523-0.312c0.302-0.401,0.536-0.8,0.703-1.195C143.443,145.646,143.584,145.187,143.683,144.682z"/>
	<path d="M155.214,145.401c-0.026,0.099-0.039,0.192-0.039,0.281c0,0.109,0.013,0.214,0.039,0.312
		c-0.219-0.016-0.438-0.023-0.656-0.023h-1.805c0.052,0.761,0.156,1.484,0.312,2.172c0.047,0.219,0.102,0.422,0.164,0.609
		c0.067-0.114,0.133-0.231,0.195-0.352c0.328-0.583,0.591-1.206,0.789-1.867c0.239,0.177,0.458,0.302,0.656,0.375
		c-0.094,0.089-0.211,0.261-0.352,0.516c-0.323,0.802-0.667,1.474-1.031,2.016c0.13,0.271,0.271,0.495,0.422,0.672
		c0.302,0.302,0.518,0.453,0.648,0.453c0.099,0,0.213-0.294,0.344-0.883c0.156,0.192,0.362,0.339,0.617,0.438
		c-0.12,0.464-0.232,0.773-0.336,0.93c-0.125,0.192-0.273,0.289-0.445,0.289c-0.224,0-0.448-0.078-0.672-0.234
		c-0.396-0.271-0.722-0.646-0.977-1.125c-0.078,0.089-0.156,0.175-0.234,0.258c-0.438,0.5-0.883,0.878-1.336,1.133
		c-0.125-0.255-0.3-0.453-0.523-0.594c0.62-0.255,1.117-0.599,1.492-1.031c0.114-0.12,0.221-0.247,0.32-0.383
		c-0.042-0.114-0.081-0.234-0.117-0.359c-0.146-0.464-0.279-1.125-0.398-1.984c-0.037-0.344-0.073-0.692-0.109-1.047h-2.156v1.117
		h1.281c0.167,0,0.331-0.011,0.492-0.031c-0.026,0.406-0.062,1.034-0.109,1.883c-0.021,0.474-0.156,0.792-0.406,0.953
		c-0.271,0.198-0.568,0.297-0.891,0.297c-0.047-0.224-0.141-0.433-0.281-0.625c0.182,0.021,0.331,0.031,0.445,0.031
		c0.354,0,0.547-0.255,0.578-0.766l0.078-1.234h-1.188c-0.021,0.661-0.112,1.281-0.273,1.859c-0.109,0.464-0.362,1.042-0.758,1.734
		c-0.172-0.183-0.383-0.286-0.633-0.312c0.359-0.484,0.62-0.979,0.781-1.484c0.188-0.614,0.281-1.214,0.281-1.797v-1.445
		c0-0.25-0.021-0.5-0.062-0.75c0.229,0.021,0.458,0.031,0.688,0.031h2.086c-0.037-0.511-0.065-1.028-0.086-1.555
		c0.307,0.062,0.557,0.094,0.75,0.094c-0.062,0.292-0.094,0.583-0.094,0.875c0,0.198,0.005,0.394,0.016,0.586h1.836
		C154.777,145.432,154.995,145.421,155.214,145.401z M154.027,143.94c0.021,0.047,0.067,0.122,0.141,0.227
		c0.12,0.161,0.216,0.312,0.289,0.453c0.057,0.089,0.112,0.175,0.164,0.258c-0.146,0.042-0.344,0.146-0.594,0.312
		c-0.037-0.12-0.104-0.269-0.203-0.445c-0.104-0.198-0.216-0.362-0.336-0.492C153.701,144.164,153.881,144.06,154.027,143.94z"/>
	<path d="M161.394,146.463c0.292,0.125,0.614,0.219,0.969,0.281c-0.167,0.224-0.339,0.575-0.516,1.055
		c-0.271,0.854-0.589,1.651-0.953,2.391h1.594c0.359,0,0.716-0.023,1.07-0.07c-0.026,0.13-0.039,0.258-0.039,0.383
		c0,0.12,0.013,0.245,0.039,0.375c-0.354-0.047-0.711-0.07-1.07-0.07h-5.031c-0.349,0-0.703,0.023-1.062,0.07
		c0.021-0.13,0.031-0.255,0.031-0.375c0-0.125-0.011-0.253-0.031-0.383c0.359,0.047,0.713,0.07,1.062,0.07h2.812
		C160.91,148.898,161.285,147.656,161.394,146.463z M156.769,145.502c0.359,0.042,0.713,0.062,1.062,0.062h4.219
		c0.359,0,0.713-0.021,1.062-0.062c-0.021,0.12-0.031,0.245-0.031,0.375c0,0.12,0.01,0.245,0.031,0.375
		c-0.349-0.042-0.703-0.062-1.062-0.062h-4.219c-0.349,0-0.703,0.021-1.062,0.062c0.021-0.13,0.031-0.255,0.031-0.375
		C156.8,145.748,156.789,145.623,156.769,145.502z M158.456,146.776l1.031,2.789c-0.261,0.031-0.5,0.081-0.719,0.148
		c-0.255-1.156-0.568-2.091-0.938-2.805C158.019,146.898,158.227,146.854,158.456,146.776z M160.05,143.94
		c0.114,0.354,0.26,0.737,0.438,1.148c-0.224,0.042-0.453,0.117-0.688,0.227c-0.073-0.375-0.208-0.784-0.406-1.227
		C159.628,144.062,159.847,144.013,160.05,143.94z"/>
	<path d="M164.683,144.596c0.307,0.042,0.62,0.062,0.938,0.062h0.773c0.317,0,0.633-0.021,0.945-0.062
		c-0.042,0.276-0.062,0.555-0.062,0.836v4.133c0,0.297,0.021,0.597,0.062,0.898c-0.177-0.021-0.292-0.031-0.344-0.031
		c-0.062,0-0.188,0.011-0.375,0.031c0.031-0.224,0.049-0.442,0.055-0.656h-1.336v0.102c0,0.297,0.018,0.597,0.055,0.898
		c-0.188-0.021-0.31-0.031-0.367-0.031c-0.058,0-0.172,0.011-0.344,0.031c0.036-0.302,0.055-0.602,0.055-0.898v-4.477
		C164.738,145.151,164.719,144.873,164.683,144.596z M165.339,146.971h1.344v-1.781h-1.344V146.971z M165.339,149.284h1.344v-1.82
		h-1.344V149.284z M167.456,145.807c0.307,0.047,0.609,0.07,0.906,0.07h1.664v-1.414c0-0.183-0.011-0.367-0.031-0.555
		c0.224,0.042,0.461,0.062,0.711,0.062c-0.058,0.172-0.086,0.37-0.086,0.594v1.312h0.086c0.302,0,0.606-0.023,0.914-0.07
		c-0.021,0.12-0.031,0.234-0.031,0.344s0.01,0.214,0.031,0.312c-0.308-0.042-0.612-0.062-0.914-0.062h-0.086v4.281
		c0,0.286-0.123,0.474-0.367,0.562c-0.24,0.083-0.586,0.125-1.039,0.125c-0.058-0.271-0.172-0.5-0.344-0.688h0.492
		c0.442,0,0.664-0.104,0.664-0.312v-3.969h-1.664c-0.297,0-0.599,0.021-0.906,0.062c0.021-0.099,0.031-0.203,0.031-0.312
		S167.477,145.927,167.456,145.807z M168.456,147.088l0.758,1.758c-0.245,0.026-0.464,0.067-0.656,0.125
		c-0.183-0.724-0.401-1.308-0.656-1.75C168.068,147.21,168.253,147.166,168.456,147.088z"/>
	<path d="M106.306,160.586l-0.406,0.469c-0.521-0.516-0.93-1.104-1.227-1.766c-0.292-0.656-0.438-1.338-0.438-2.047
		c0-0.708,0.148-1.396,0.445-2.062c0.292-0.65,0.698-1.234,1.219-1.75l0.406,0.469c-0.448,0.443-0.797,0.956-1.047,1.539
		c-0.255,0.584-0.383,1.186-0.383,1.805c0,0.62,0.127,1.222,0.383,1.805C105.509,159.631,105.858,160.144,106.306,160.586z"/>
	<path d="M107.673,155.102c0.297,0.042,0.591,0.062,0.883,0.062h0.281v-1.133c0-0.161-0.01-0.325-0.031-0.492
		c0.198,0.021,0.417,0.031,0.656,0.031c-0.068,0.151-0.102,0.328-0.102,0.531v1.062h0.031c0.297,0,0.591-0.021,0.883-0.062
		c-0.021,0.104-0.031,0.206-0.031,0.305c0,0.109,0.01,0.214,0.031,0.312c-0.292-0.041-0.586-0.062-0.883-0.062h-0.031v1.719
		c0.323-0.135,0.627-0.281,0.914-0.438c-0.021,0.303-0.031,0.514-0.031,0.633c-0.328,0.109-0.623,0.217-0.883,0.32v2.367
		c0,0.256-0.104,0.425-0.312,0.508c-0.208,0.078-0.508,0.117-0.898,0.117c-0.057-0.25-0.162-0.458-0.312-0.625h0.438
		c0.375,0,0.562-0.096,0.562-0.289v-1.859c-0.526,0.219-0.893,0.401-1.102,0.547c-0.01-0.197-0.07-0.427-0.18-0.688
		c0.448-0.104,0.875-0.231,1.281-0.383v-1.93h-0.281c-0.292,0-0.586,0.021-0.883,0.062c0.021-0.099,0.031-0.203,0.031-0.312
		C107.704,155.308,107.694,155.207,107.673,155.102z M111.525,153.54c0.177,0.037,0.406,0.055,0.688,0.055
		c-0.088,0.312-0.133,0.675-0.133,1.086v0.453h0.789c0.297,0,0.596-0.023,0.898-0.07c-0.042,0.198-0.062,0.396-0.062,0.594
		c0,1.953,0.057,3.141,0.172,3.562c0.125,0.542,0.227,0.812,0.305,0.812c0.037-0.094,0.086-0.438,0.148-1.031
		c0.172,0.219,0.373,0.378,0.602,0.477c-0.219,0.917-0.409,1.375-0.57,1.375c-0.182-0.016-0.375-0.161-0.578-0.438
		c-0.203-0.297-0.359-0.713-0.469-1.25c-0.109-0.635-0.164-1.805-0.164-3.508h-1.07v0.164c0,0.859-0.039,1.576-0.117,2.148
		c0.25,0.188,0.508,0.378,0.773,0.57c-0.193,0.183-0.328,0.357-0.406,0.523c-0.167-0.161-0.326-0.312-0.477-0.453
		c-0.062,0.229-0.127,0.425-0.195,0.586c-0.292,0.641-0.794,1.214-1.508,1.719c-0.13-0.192-0.299-0.338-0.508-0.438
		c0.812-0.516,1.344-1.057,1.594-1.625c0.068-0.166,0.125-0.369,0.172-0.609c-0.328-0.266-0.656-0.5-0.984-0.703
		c0.162-0.135,0.299-0.281,0.414-0.438c0.213,0.167,0.438,0.339,0.672,0.516c0.052-0.5,0.078-1.099,0.078-1.797v-0.164h-0.289
		c-0.266,0-0.534,0.021-0.805,0.062c0.021-0.109,0.031-0.224,0.031-0.344c0-0.099-0.01-0.203-0.031-0.312
		c0.271,0.047,0.539,0.07,0.805,0.07h0.289v-0.164C111.587,154.547,111.566,154.071,111.525,153.54z"/>
	<path d="M117.361,153.625c0.198,0.104,0.438,0.19,0.719,0.258c-0.109,0.068-0.232,0.193-0.367,0.375
		c-0.453,0.641-1.008,1.232-1.664,1.773c-0.13-0.156-0.315-0.291-0.555-0.406c0.516-0.312,0.917-0.643,1.203-0.992
		C117.035,154.249,117.257,153.913,117.361,153.625z M117.767,155.258c0.224,0.141,0.466,0.234,0.727,0.281
		c-0.172,0.1-0.357,0.308-0.555,0.625c-0.13,0.24-0.279,0.469-0.445,0.688v2.938c0,0.391,0.021,0.784,0.062,1.18
		c-0.13-0.021-0.255-0.031-0.375-0.031c-0.13,0-0.255,0.011-0.375,0.031c0.042-0.396,0.062-0.789,0.062-1.18v-2.219
		c-0.276,0.281-0.588,0.561-0.938,0.836c-0.094-0.229-0.208-0.414-0.344-0.555c0.583-0.369,1.047-0.76,1.391-1.172
		C117.332,156.274,117.595,155.8,117.767,155.258z M118.556,156.133c0.338,0.042,0.682,0.062,1.031,0.062h2.344
		c0.344,0,0.685-0.021,1.023-0.062c-0.016,0.12-0.023,0.245-0.023,0.375c0,0.109,0.008,0.225,0.023,0.344
		c-0.338-0.041-0.68-0.062-1.023-0.062h-0.539v3.719c0,0.172-0.096,0.297-0.289,0.375c-0.177,0.078-0.539,0.117-1.086,0.117
		c-0.01-0.266-0.094-0.505-0.25-0.719c0.328,0.042,0.581,0.062,0.758,0.062c0.156,0,0.237-0.06,0.242-0.18v-3.375h-1.18
		c-0.349,0-0.693,0.021-1.031,0.062c0.021-0.119,0.031-0.234,0.031-0.344C118.587,156.378,118.577,156.253,118.556,156.133z
		 M119.017,154c0.349,0.042,0.693,0.062,1.031,0.062h1.312c0.349,0,0.693-0.021,1.031-0.062c-0.021,0.131-0.031,0.256-0.031,0.375
		c0,0.12,0.01,0.234,0.031,0.344c-0.338-0.041-0.682-0.062-1.031-0.062h-1.312c-0.338,0-0.682,0.021-1.031,0.062
		c0.021-0.109,0.031-0.224,0.031-0.344C119.048,154.256,119.038,154.131,119.017,154z"/>
	<path d="M126.181,153.446c0.25,0.12,0.529,0.201,0.836,0.242c-0.151,0.136-0.352,0.354-0.602,0.656h2.453
		c0.271,0,0.539-0.01,0.805-0.031c-0.479,0.714-0.958,1.276-1.438,1.688c-0.088,0.078-0.174,0.146-0.258,0.203
		c0.042,0.021,0.083,0.039,0.125,0.055c0.615,0.266,1.557,0.484,2.828,0.656c-0.219,0.183-0.365,0.401-0.438,0.656
		c-1.297-0.312-2.268-0.653-2.914-1.023c-0.026-0.01-0.047-0.023-0.062-0.039c-0.406,0.24-0.867,0.451-1.383,0.633
		c-0.771,0.24-1.456,0.412-2.055,0.516c-0.094-0.224-0.25-0.422-0.469-0.594c0.906-0.083,1.672-0.219,2.297-0.406
		c0.401-0.125,0.768-0.278,1.102-0.461c-0.412-0.312-0.768-0.713-1.07-1.203c-0.318,0.422-0.664,0.852-1.039,1.289
		c-0.208-0.172-0.448-0.286-0.719-0.344c0.432-0.271,0.854-0.672,1.266-1.203C125.65,154.5,125.894,154.071,126.181,153.446z
		 M125.868,158.852c0.188,0.198,0.373,0.352,0.555,0.461c-0.641,0.271-1.318,0.69-2.031,1.258c-0.167-0.197-0.362-0.354-0.586-0.469
		C124.53,159.832,125.218,159.415,125.868,158.852z M124.361,157.938c0.307,0.042,0.612,0.062,0.914,0.062h1.773v-0.406
		c0-0.177-0.01-0.354-0.031-0.531c0.219,0.047,0.448,0.07,0.688,0.07c-0.062,0.162-0.094,0.347-0.094,0.555V158h1.602
		c0.297,0,0.599-0.021,0.906-0.062c-0.026,0.12-0.039,0.234-0.039,0.344s0.013,0.214,0.039,0.312
		c-0.307-0.036-0.609-0.055-0.906-0.055h-1.602v1.742c0,0.276-0.099,0.456-0.297,0.539c-0.198,0.078-0.482,0.117-0.852,0.117
		c-0.057-0.255-0.162-0.474-0.312-0.656h0.461c0.292,0,0.438-0.104,0.438-0.312v-1.43h-1.773c-0.302,0-0.607,0.019-0.914,0.055
		c0.021-0.099,0.031-0.203,0.031-0.312S124.382,158.058,124.361,157.938z M126.306,154.86c0.344,0.443,0.732,0.8,1.164,1.07
		c0.016-0.01,0.031-0.021,0.047-0.031c0.359-0.266,0.716-0.614,1.07-1.047h-2.094C126.426,154.852,126.363,154.855,126.306,154.86z
		 M128.556,158.883c0.49,0.365,1.146,0.781,1.969,1.25c-0.182,0.115-0.352,0.279-0.508,0.492c-0.177-0.177-0.445-0.393-0.805-0.648
		c-0.38-0.26-0.734-0.471-1.062-0.633C128.301,159.225,128.436,159.071,128.556,158.883z"/>
	<path d="M133.423,153.54c0.188,0.094,0.419,0.178,0.695,0.25c-0.12,0.115-0.245,0.318-0.375,0.609
		c-0.099,0.229-0.206,0.453-0.32,0.672v4.648c0,0.365,0.023,0.732,0.07,1.102c-0.12-0.021-0.234-0.031-0.344-0.031
		c-0.12,0-0.234,0.011-0.344,0.031c0.042-0.369,0.062-0.736,0.062-1.102v-3.617c-0.25,0.417-0.523,0.82-0.82,1.211
		c-0.125-0.156-0.299-0.289-0.523-0.398c0.521-0.536,0.927-1.096,1.219-1.68C133.093,154.584,133.319,154.019,133.423,153.54z
		 M134.931,154.282c0.193,0.078,0.412,0.154,0.656,0.227c-0.062,0.078-0.135,0.222-0.219,0.43c-0.068,0.198-0.135,0.389-0.203,0.57
		h1.047v-0.969c0-0.317-0.021-0.633-0.062-0.945c0.198,0.021,0.438,0.031,0.719,0.031c-0.068,0.151-0.102,0.342-0.102,0.57v1.312
		h1.133c0.24,0,0.498-0.01,0.773-0.031c-0.021,0.1-0.031,0.19-0.031,0.273c0,0.109,0.01,0.203,0.031,0.281
		c-0.188-0.021-0.445-0.031-0.773-0.031h-1.133v1.852h1.188c0.292,0,0.586-0.021,0.883-0.062c-0.021,0.1-0.031,0.203-0.031,0.312
		c0,0.104,0.01,0.206,0.031,0.305c-0.297-0.041-0.591-0.062-0.883-0.062h-1.188v1.539c0,0.365,0.023,0.727,0.07,1.086
		c-0.12-0.021-0.234-0.031-0.344-0.031c-0.12,0-0.234,0.011-0.344,0.031c0.042-0.359,0.062-0.721,0.062-1.086v-1.539h-1.445
		c-0.292,0-0.581,0.021-0.867,0.062c0.021-0.099,0.031-0.2,0.031-0.305c0-0.109-0.01-0.213-0.031-0.312
		c0.287,0.042,0.576,0.062,0.867,0.062h1.445V156h-1.258c-0.203,0.443-0.412,0.831-0.625,1.164c-0.12-0.114-0.294-0.219-0.523-0.312
		c0.302-0.4,0.537-0.799,0.703-1.195C134.691,155.246,134.832,154.788,134.931,154.282z"/>
	<path d="M140.361,155.75c0.26,0.047,0.523,0.07,0.789,0.07h2.164c0.094-0.474,0.164-0.994,0.211-1.562
		c0-0.203-0.01-0.403-0.031-0.602c0.323,0.062,0.602,0.094,0.836,0.094c-0.109,0.167-0.19,0.412-0.242,0.734
		c-0.057,0.484-0.125,0.93-0.203,1.336h1.852c0.24,0,0.482-0.01,0.727-0.031c-0.094,0.225-0.148,0.464-0.164,0.719l-0.148,3.656
		c-0.031,0.271-0.263,0.453-0.695,0.547c-0.5,0.1-0.924,0.156-1.273,0.172c0-0.239-0.076-0.439-0.227-0.602h0.406
		c0.51,0,0.865-0.049,1.062-0.148c0.125-0.083,0.188-0.166,0.188-0.25l0.156-3.57h-1.977c-0.245,1.109-0.56,1.94-0.945,2.492
		c-0.453,0.714-1.271,1.425-2.453,2.133c-0.151-0.224-0.346-0.411-0.586-0.562c1.13-0.447,2.01-1.156,2.641-2.125
		c0.323-0.505,0.578-1.15,0.766-1.938h-2.062c-0.266,0-0.529,0.021-0.789,0.062c0.021-0.099,0.031-0.203,0.031-0.312
		C140.392,155.964,140.382,155.86,140.361,155.75z M141.767,153.915c0.213,0.396,0.495,0.803,0.844,1.219
		c-0.198,0.042-0.385,0.133-0.562,0.273c-0.234-0.474-0.502-0.888-0.805-1.242C141.457,154.108,141.632,154.024,141.767,153.915z
		 M143.986,157.719c0.255,0.359,0.588,0.727,1,1.102c-0.198,0.042-0.385,0.136-0.562,0.281c-0.281-0.432-0.602-0.81-0.961-1.133
		C143.676,157.922,143.85,157.839,143.986,157.719z"/>
	<path d="M149.211,154.393h4.662v0.688h-1.943v5.053h-0.776v-5.053h-1.943V154.393z"/>
	<path d="M155.466,160.133h-0.776v-5.74h2.655c0.943,0,1.887,0.327,1.887,1.543c0,0.848-0.432,1.159-0.799,1.375
		c0.328,0.136,0.656,0.28,0.688,1.08l0.048,1.039c0.008,0.319,0.048,0.439,0.288,0.575v0.128h-0.952
		c-0.112-0.352-0.136-1.223-0.136-1.438c0-0.472-0.096-1.023-1.023-1.023h-1.879V160.133z M155.466,157.007h1.799
		c0.568,0,1.167-0.144,1.167-0.991c0-0.888-0.647-0.96-1.031-0.96h-1.935V157.007z"/>
	<path d="M164.592,154.393v3.726c0,1.176-0.736,2.167-2.311,2.167c-1.543,0-2.207-0.991-2.207-2.062v-3.83h0.775v3.614
		c0,1.247,0.76,1.591,1.455,1.591c0.712,0,1.511-0.328,1.511-1.575v-3.63H164.592z"/>
	<path d="M170.144,160.133h-4.238v-5.74h4.182v0.688h-3.406v1.759h3.142v0.688h-3.142v1.919h3.462V160.133z"/>
	<path d="M173.435,154.196c0.307,0.042,0.62,0.062,0.938,0.062h0.773c0.317,0,0.633-0.021,0.945-0.062
		c-0.042,0.276-0.062,0.555-0.062,0.836v4.133c0,0.297,0.021,0.597,0.062,0.898c-0.177-0.021-0.292-0.031-0.344-0.031
		c-0.062,0-0.188,0.011-0.375,0.031c0.031-0.224,0.049-0.442,0.055-0.656h-1.336v0.102c0,0.297,0.018,0.597,0.055,0.898
		c-0.188-0.021-0.31-0.031-0.367-0.031c-0.058,0-0.172,0.011-0.344,0.031c0.036-0.302,0.055-0.602,0.055-0.898v-4.477
		C173.49,154.75,173.471,154.472,173.435,154.196z M174.091,156.571h1.344v-1.781h-1.344V156.571z M174.091,158.883h1.344v-1.82
		h-1.344V158.883z M176.208,155.407c0.307,0.047,0.609,0.07,0.906,0.07h1.664v-1.414c0-0.182-0.011-0.367-0.031-0.555
		c0.224,0.042,0.461,0.062,0.711,0.062c-0.058,0.172-0.086,0.37-0.086,0.594v1.312h0.086c0.302,0,0.606-0.023,0.914-0.07
		c-0.021,0.12-0.031,0.234-0.031,0.344s0.01,0.214,0.031,0.312c-0.308-0.041-0.612-0.062-0.914-0.062h-0.086v4.281
		c0,0.287-0.123,0.475-0.367,0.562c-0.24,0.084-0.586,0.125-1.039,0.125c-0.058-0.271-0.172-0.5-0.344-0.688h0.492
		c0.442,0,0.664-0.104,0.664-0.312V156h-1.664c-0.297,0-0.599,0.021-0.906,0.062c0.021-0.099,0.031-0.203,0.031-0.312
		S176.229,155.527,176.208,155.407z M177.208,156.688l0.758,1.758c-0.245,0.026-0.464,0.068-0.656,0.125
		c-0.183-0.724-0.401-1.307-0.656-1.75C176.82,156.811,177.005,156.766,177.208,156.688z"/>
	<path d="M183.818,157.243c0,0.709-0.146,1.391-0.438,2.047c-0.297,0.662-0.706,1.25-1.227,1.766l-0.406-0.469
		c0.448-0.442,0.797-0.955,1.047-1.539c0.255-0.583,0.383-1.185,0.383-1.805c0-0.619-0.128-1.221-0.383-1.805
		c-0.25-0.583-0.599-1.096-1.047-1.539l0.406-0.469c0.521,0.516,0.927,1.1,1.219,1.75
		C183.669,155.847,183.818,156.535,183.818,157.243z"/>
</g>
<polyline class="st7" points="0,136.299 90.709,136.299 90.709,167.699 0,167.699 "/>
<g>
	<path class="st8" d="M12.334,145.502c0.297,0.042,0.591,0.062,0.883,0.062h0.281v-1.133c0-0.161-0.011-0.325-0.031-0.492
		c0.198,0.021,0.417,0.031,0.656,0.031c-0.068,0.151-0.102,0.328-0.102,0.531v1.062h0.031c0.297,0,0.591-0.021,0.883-0.062
		c-0.021,0.104-0.031,0.206-0.031,0.305c0,0.109,0.01,0.214,0.031,0.312c-0.292-0.042-0.586-0.062-0.883-0.062h-0.031v1.719
		c0.323-0.136,0.627-0.281,0.914-0.438c-0.021,0.302-0.031,0.513-0.031,0.633c-0.328,0.109-0.623,0.216-0.883,0.32v2.367
		c0,0.255-0.104,0.425-0.312,0.508c-0.208,0.078-0.508,0.117-0.898,0.117c-0.058-0.25-0.162-0.458-0.312-0.625h0.438
		c0.375,0,0.562-0.097,0.562-0.289v-1.859c-0.526,0.219-0.894,0.401-1.102,0.547c-0.011-0.198-0.07-0.427-0.18-0.688
		c0.448-0.104,0.875-0.231,1.281-0.383v-1.93h-0.281c-0.292,0-0.586,0.021-0.883,0.062c0.021-0.099,0.031-0.203,0.031-0.312
		C12.366,145.708,12.355,145.607,12.334,145.502z M16.186,143.94c0.177,0.036,0.406,0.055,0.688,0.055
		c-0.089,0.312-0.133,0.675-0.133,1.086v0.453h0.789c0.297,0,0.596-0.023,0.898-0.07c-0.042,0.198-0.062,0.396-0.062,0.594
		c0,1.953,0.057,3.141,0.172,3.562c0.125,0.542,0.227,0.812,0.305,0.812c0.036-0.094,0.086-0.438,0.148-1.031
		c0.172,0.219,0.372,0.378,0.602,0.477c-0.219,0.917-0.409,1.375-0.57,1.375c-0.183-0.016-0.375-0.161-0.578-0.438
		c-0.203-0.297-0.359-0.714-0.469-1.25c-0.109-0.636-0.164-1.805-0.164-3.508h-1.07v0.164c0,0.859-0.039,1.575-0.117,2.148
		c0.25,0.188,0.508,0.378,0.773,0.57c-0.193,0.183-0.328,0.356-0.406,0.523c-0.167-0.161-0.326-0.312-0.477-0.453
		c-0.062,0.229-0.128,0.425-0.195,0.586c-0.292,0.641-0.794,1.214-1.508,1.719c-0.13-0.192-0.3-0.339-0.508-0.438
		c0.812-0.516,1.344-1.058,1.594-1.625c0.067-0.167,0.125-0.37,0.172-0.609c-0.328-0.266-0.656-0.5-0.984-0.703
		c0.161-0.136,0.299-0.281,0.414-0.438c0.213,0.167,0.438,0.339,0.672,0.516c0.052-0.5,0.078-1.099,0.078-1.797v-0.164h-0.289
		c-0.266,0-0.534,0.021-0.805,0.062c0.021-0.109,0.031-0.224,0.031-0.344c0-0.099-0.011-0.203-0.031-0.312
		c0.271,0.047,0.539,0.07,0.805,0.07h0.289v-0.164C16.248,144.948,16.227,144.471,16.186,143.94z"/>
	<path class="st8" d="M22.022,144.026c0.198,0.104,0.438,0.19,0.719,0.258c-0.109,0.067-0.232,0.192-0.367,0.375
		c-0.453,0.641-1.008,1.231-1.664,1.773c-0.13-0.156-0.315-0.292-0.555-0.406c0.516-0.312,0.917-0.644,1.203-0.992
		C21.696,144.648,21.917,144.312,22.022,144.026z M22.428,145.659c0.224,0.141,0.466,0.234,0.727,0.281
		c-0.172,0.099-0.357,0.308-0.555,0.625c-0.13,0.239-0.279,0.469-0.445,0.688v2.938c0,0.391,0.021,0.784,0.062,1.18
		c-0.13-0.021-0.255-0.031-0.375-0.031c-0.13,0-0.255,0.011-0.375,0.031c0.042-0.396,0.062-0.789,0.062-1.18v-2.219
		c-0.276,0.281-0.589,0.56-0.938,0.836c-0.094-0.229-0.208-0.414-0.344-0.555c0.583-0.37,1.047-0.761,1.391-1.172
		C21.993,146.674,22.256,146.201,22.428,145.659z M23.217,146.534c0.338,0.042,0.682,0.062,1.031,0.062h2.344
		c0.344,0,0.685-0.021,1.023-0.062c-0.016,0.12-0.023,0.245-0.023,0.375c0,0.109,0.008,0.224,0.023,0.344
		c-0.339-0.042-0.68-0.062-1.023-0.062h-0.539v3.719c0,0.172-0.097,0.297-0.289,0.375c-0.177,0.078-0.539,0.117-1.086,0.117
		c-0.011-0.266-0.094-0.505-0.25-0.719c0.328,0.042,0.581,0.062,0.758,0.062c0.156,0,0.237-0.06,0.242-0.18v-3.375h-1.18
		c-0.349,0-0.693,0.021-1.031,0.062c0.021-0.12,0.031-0.234,0.031-0.344C23.248,146.779,23.238,146.654,23.217,146.534z
		 M23.678,144.401c0.349,0.042,0.692,0.062,1.031,0.062h1.312c0.349,0,0.692-0.021,1.031-0.062c-0.021,0.13-0.031,0.255-0.031,0.375
		s0.01,0.234,0.031,0.344c-0.339-0.042-0.683-0.062-1.031-0.062h-1.312c-0.339,0-0.683,0.021-1.031,0.062
		c0.021-0.109,0.031-0.224,0.031-0.344S23.699,144.531,23.678,144.401z"/>
	<path class="st8" d="M30.842,143.846c0.25,0.12,0.528,0.2,0.836,0.242c-0.151,0.136-0.352,0.354-0.602,0.656h2.453
		c0.271,0,0.539-0.011,0.805-0.031c-0.479,0.714-0.958,1.276-1.438,1.688c-0.089,0.078-0.175,0.146-0.258,0.203
		c0.042,0.021,0.083,0.039,0.125,0.055c0.614,0.266,1.557,0.484,2.828,0.656c-0.219,0.183-0.365,0.401-0.438,0.656
		c-1.297-0.312-2.269-0.653-2.914-1.023c-0.026-0.011-0.047-0.023-0.062-0.039c-0.406,0.239-0.867,0.45-1.383,0.633
		c-0.771,0.239-1.456,0.411-2.055,0.516c-0.094-0.224-0.25-0.422-0.469-0.594c0.906-0.083,1.672-0.219,2.297-0.406
		c0.401-0.125,0.768-0.278,1.102-0.461c-0.412-0.312-0.769-0.714-1.07-1.203c-0.318,0.422-0.664,0.852-1.039,1.289
		c-0.208-0.172-0.448-0.286-0.719-0.344c0.432-0.271,0.854-0.672,1.266-1.203C30.311,144.901,30.555,144.471,30.842,143.846z
		 M30.53,149.252c0.188,0.198,0.372,0.352,0.555,0.461c-0.641,0.271-1.318,0.69-2.031,1.258c-0.167-0.198-0.362-0.354-0.586-0.469
		C29.191,150.232,29.878,149.815,30.53,149.252z M29.022,148.338c0.307,0.042,0.612,0.062,0.914,0.062h1.773v-0.406
		c0-0.177-0.011-0.354-0.031-0.531c0.219,0.047,0.448,0.07,0.688,0.07c-0.062,0.161-0.094,0.347-0.094,0.555v0.312h1.602
		c0.297,0,0.599-0.021,0.906-0.062c-0.026,0.12-0.039,0.234-0.039,0.344s0.013,0.214,0.039,0.312
		c-0.308-0.036-0.609-0.055-0.906-0.055h-1.602v1.742c0,0.276-0.099,0.456-0.297,0.539c-0.198,0.078-0.482,0.117-0.852,0.117
		c-0.058-0.255-0.162-0.474-0.312-0.656h0.461c0.292,0,0.438-0.104,0.438-0.312v-1.43h-1.773c-0.302,0-0.607,0.019-0.914,0.055
		c0.021-0.099,0.031-0.203,0.031-0.312S29.042,148.458,29.022,148.338z M30.967,145.26c0.344,0.442,0.731,0.8,1.164,1.07
		c0.016-0.011,0.031-0.021,0.047-0.031c0.359-0.266,0.716-0.614,1.07-1.047h-2.094C31.087,145.252,31.024,145.255,30.967,145.26z
		 M33.217,149.284c0.489,0.364,1.146,0.781,1.969,1.25c-0.183,0.114-0.352,0.278-0.508,0.492c-0.177-0.177-0.445-0.394-0.805-0.648
		c-0.38-0.261-0.734-0.472-1.062-0.633C32.962,149.624,33.097,149.471,33.217,149.284z"/>
	<path class="st8" d="M38.084,143.94c0.188,0.094,0.419,0.177,0.695,0.25c-0.12,0.114-0.245,0.317-0.375,0.609
		c-0.099,0.229-0.206,0.453-0.32,0.672v4.648c0,0.364,0.023,0.731,0.07,1.102c-0.12-0.021-0.234-0.031-0.344-0.031
		c-0.12,0-0.234,0.011-0.344,0.031c0.042-0.37,0.062-0.737,0.062-1.102v-3.617c-0.25,0.417-0.523,0.82-0.82,1.211
		c-0.125-0.156-0.3-0.289-0.523-0.398c0.521-0.536,0.927-1.097,1.219-1.68C37.753,144.984,37.98,144.419,38.084,143.94z
		 M39.592,144.682c0.192,0.078,0.411,0.153,0.656,0.227c-0.062,0.078-0.136,0.222-0.219,0.43c-0.068,0.198-0.136,0.388-0.203,0.57
		h1.047v-0.969c0-0.317-0.021-0.633-0.062-0.945c0.198,0.021,0.438,0.031,0.719,0.031c-0.068,0.151-0.102,0.341-0.102,0.57v1.312
		h1.133c0.239,0,0.497-0.011,0.773-0.031c-0.021,0.099-0.031,0.19-0.031,0.273c0,0.109,0.01,0.203,0.031,0.281
		c-0.188-0.021-0.445-0.031-0.773-0.031h-1.133v1.852h1.188c0.292,0,0.586-0.021,0.883-0.062c-0.021,0.099-0.031,0.203-0.031,0.312
		c0,0.104,0.01,0.206,0.031,0.305c-0.297-0.042-0.591-0.062-0.883-0.062h-1.188v1.539c0,0.364,0.023,0.727,0.07,1.086
		c-0.12-0.021-0.234-0.031-0.344-0.031c-0.12,0-0.234,0.011-0.344,0.031c0.042-0.359,0.062-0.722,0.062-1.086v-1.539h-1.445
		c-0.292,0-0.581,0.021-0.867,0.062c0.021-0.099,0.031-0.2,0.031-0.305c0-0.109-0.011-0.214-0.031-0.312
		c0.286,0.042,0.575,0.062,0.867,0.062h1.445v-1.852h-1.258c-0.203,0.442-0.412,0.831-0.625,1.164
		c-0.12-0.114-0.294-0.219-0.523-0.312c0.302-0.401,0.536-0.8,0.703-1.195C39.352,145.646,39.493,145.187,39.592,144.682z"/>
	<path class="st8" d="M44.561,144.502c0.317,0.042,0.641,0.062,0.969,0.062h4.898c0.328,0,0.651-0.021,0.969-0.062
		c-0.021,0.109-0.031,0.224-0.031,0.344c0,0.109,0.01,0.224,0.031,0.344c-0.318-0.047-0.641-0.07-0.969-0.07h-1.469
		c-0.208,0.37-0.427,0.722-0.656,1.055v3.945c0,0.386,0.021,0.773,0.062,1.164c-0.12-0.021-0.245-0.031-0.375-0.031
		c-0.109,0-0.224,0.011-0.344,0.031c0.042-0.391,0.062-0.778,0.062-1.164v-3.141c-0.802,1.031-1.737,1.942-2.805,2.734
		c-0.156-0.198-0.357-0.396-0.602-0.594c1.536-0.812,2.856-2.146,3.961-4H45.53c-0.328,0-0.651,0.023-0.969,0.07
		c0.021-0.12,0.031-0.234,0.031-0.344C44.592,144.726,44.581,144.612,44.561,144.502z M49.467,146.596
		c0.094,0.141,0.268,0.341,0.523,0.602c0.427,0.448,0.781,0.852,1.062,1.211c0.198,0.239,0.385,0.466,0.562,0.68
		c-0.167,0.058-0.394,0.183-0.68,0.375c-0.136-0.308-0.394-0.7-0.773-1.18c-0.427-0.536-0.867-0.984-1.32-1.344
		C49.092,146.841,49.3,146.726,49.467,146.596z"/>
	<path class="st8" d="M59.123,145.401c-0.026,0.099-0.039,0.192-0.039,0.281c0,0.109,0.013,0.214,0.039,0.312
		c-0.219-0.016-0.438-0.023-0.656-0.023h-1.805c0.052,0.761,0.156,1.484,0.312,2.172c0.047,0.219,0.102,0.422,0.164,0.609
		c0.067-0.114,0.133-0.231,0.195-0.352c0.328-0.583,0.591-1.206,0.789-1.867c0.239,0.177,0.458,0.302,0.656,0.375
		c-0.094,0.089-0.211,0.261-0.352,0.516c-0.323,0.802-0.667,1.474-1.031,2.016c0.13,0.271,0.271,0.495,0.422,0.672
		c0.302,0.302,0.518,0.453,0.648,0.453c0.099,0,0.213-0.294,0.344-0.883c0.156,0.192,0.362,0.339,0.617,0.438
		c-0.12,0.464-0.232,0.773-0.336,0.93c-0.125,0.192-0.273,0.289-0.445,0.289c-0.224,0-0.448-0.078-0.672-0.234
		c-0.396-0.271-0.722-0.646-0.977-1.125c-0.078,0.089-0.156,0.175-0.234,0.258c-0.438,0.5-0.883,0.878-1.336,1.133
		c-0.125-0.255-0.3-0.453-0.523-0.594c0.62-0.255,1.117-0.599,1.492-1.031c0.114-0.12,0.221-0.247,0.32-0.383
		c-0.042-0.114-0.081-0.234-0.117-0.359c-0.146-0.464-0.279-1.125-0.398-1.984c-0.037-0.344-0.073-0.692-0.109-1.047h-2.156v1.117
		h1.281c0.167,0,0.331-0.011,0.492-0.031c-0.026,0.406-0.062,1.034-0.109,1.883c-0.021,0.474-0.156,0.792-0.406,0.953
		c-0.271,0.198-0.568,0.297-0.891,0.297c-0.047-0.224-0.141-0.433-0.281-0.625c0.182,0.021,0.331,0.031,0.445,0.031
		c0.354,0,0.547-0.255,0.578-0.766l0.078-1.234h-1.188c-0.021,0.661-0.112,1.281-0.273,1.859c-0.109,0.464-0.362,1.042-0.758,1.734
		c-0.172-0.183-0.383-0.286-0.633-0.312c0.359-0.484,0.62-0.979,0.781-1.484c0.188-0.614,0.281-1.214,0.281-1.797v-1.445
		c0-0.25-0.021-0.5-0.062-0.75c0.229,0.021,0.458,0.031,0.688,0.031h2.086c-0.037-0.511-0.065-1.028-0.086-1.555
		c0.307,0.062,0.557,0.094,0.75,0.094c-0.062,0.292-0.094,0.583-0.094,0.875c0,0.198,0.005,0.394,0.016,0.586h1.836
		C58.686,145.432,58.905,145.421,59.123,145.401z M57.936,143.94c0.021,0.047,0.067,0.122,0.141,0.227
		c0.12,0.161,0.216,0.312,0.289,0.453c0.057,0.089,0.112,0.175,0.164,0.258c-0.146,0.042-0.344,0.146-0.594,0.312
		c-0.037-0.12-0.104-0.269-0.203-0.445c-0.104-0.198-0.216-0.362-0.336-0.492C57.61,144.164,57.79,144.06,57.936,143.94z"/>
	<path class="st8" d="M65.303,146.463c0.292,0.125,0.614,0.219,0.969,0.281c-0.167,0.224-0.339,0.575-0.516,1.055
		c-0.271,0.854-0.589,1.651-0.953,2.391h1.594c0.359,0,0.716-0.023,1.07-0.07c-0.026,0.13-0.039,0.258-0.039,0.383
		c0,0.12,0.013,0.245,0.039,0.375c-0.354-0.047-0.711-0.07-1.07-0.07h-5.031c-0.349,0-0.703,0.023-1.062,0.07
		c0.021-0.13,0.031-0.255,0.031-0.375c0-0.125-0.011-0.253-0.031-0.383c0.359,0.047,0.713,0.07,1.062,0.07h2.812
		C64.819,148.898,65.194,147.656,65.303,146.463z M60.678,145.502c0.359,0.042,0.713,0.062,1.062,0.062h4.219
		c0.359,0,0.713-0.021,1.062-0.062c-0.021,0.12-0.031,0.245-0.031,0.375c0,0.12,0.01,0.245,0.031,0.375
		c-0.349-0.042-0.703-0.062-1.062-0.062h-4.219c-0.349,0-0.703,0.021-1.062,0.062c0.021-0.13,0.031-0.255,0.031-0.375
		C60.709,145.748,60.699,145.623,60.678,145.502z M62.366,146.776l1.031,2.789c-0.261,0.031-0.5,0.081-0.719,0.148
		c-0.255-1.156-0.568-2.091-0.938-2.805C61.928,146.898,62.136,146.854,62.366,146.776z M63.959,143.94
		c0.114,0.354,0.26,0.737,0.438,1.148c-0.224,0.042-0.453,0.117-0.688,0.227c-0.073-0.375-0.208-0.784-0.406-1.227
		C63.537,144.062,63.756,144.013,63.959,143.94z"/>
	<path class="st8" d="M68.592,144.596c0.307,0.042,0.62,0.062,0.938,0.062h0.773c0.317,0,0.633-0.021,0.945-0.062
		c-0.042,0.276-0.062,0.555-0.062,0.836v4.133c0,0.297,0.021,0.597,0.062,0.898c-0.177-0.021-0.292-0.031-0.344-0.031
		c-0.062,0-0.188,0.011-0.375,0.031c0.031-0.224,0.049-0.442,0.055-0.656h-1.336v0.102c0,0.297,0.018,0.597,0.055,0.898
		c-0.188-0.021-0.31-0.031-0.367-0.031c-0.058,0-0.172,0.011-0.344,0.031c0.036-0.302,0.055-0.602,0.055-0.898v-4.477
		C68.647,145.151,68.628,144.873,68.592,144.596z M69.248,146.971h1.344v-1.781h-1.344V146.971z M69.248,149.284h1.344v-1.82h-1.344
		V149.284z M71.366,145.807c0.307,0.047,0.609,0.07,0.906,0.07h1.664v-1.414c0-0.183-0.011-0.367-0.031-0.555
		c0.224,0.042,0.461,0.062,0.711,0.062c-0.058,0.172-0.086,0.37-0.086,0.594v1.312h0.086c0.302,0,0.606-0.023,0.914-0.07
		c-0.021,0.12-0.031,0.234-0.031,0.344s0.01,0.214,0.031,0.312c-0.308-0.042-0.612-0.062-0.914-0.062H74.53v4.281
		c0,0.286-0.123,0.474-0.367,0.562c-0.24,0.083-0.586,0.125-1.039,0.125c-0.058-0.271-0.172-0.5-0.344-0.688h0.492
		c0.442,0,0.664-0.104,0.664-0.312v-3.969h-1.664c-0.297,0-0.599,0.021-0.906,0.062c0.021-0.099,0.031-0.203,0.031-0.312
		S71.386,145.927,71.366,145.807z M72.366,147.088l0.758,1.758c-0.245,0.026-0.464,0.067-0.656,0.125
		c-0.183-0.724-0.401-1.308-0.656-1.75C71.977,147.21,72.162,147.166,72.366,147.088z"/>
	<path class="st8" d="M5.563,160.586l-0.406,0.469c-0.521-0.516-0.93-1.104-1.227-1.766c-0.292-0.656-0.438-1.338-0.438-2.047
		c0-0.708,0.148-1.396,0.445-2.062c0.292-0.65,0.698-1.234,1.219-1.75l0.406,0.469c-0.448,0.443-0.797,0.956-1.047,1.539
		c-0.255,0.584-0.383,1.186-0.383,1.805c0,0.62,0.127,1.222,0.383,1.805C4.766,159.631,5.115,160.144,5.563,160.586z"/>
	<path class="st8" d="M6.93,155.102c0.297,0.042,0.591,0.062,0.883,0.062h0.281v-1.133c0-0.161-0.011-0.325-0.031-0.492
		c0.198,0.021,0.417,0.031,0.656,0.031c-0.068,0.151-0.102,0.328-0.102,0.531v1.062h0.031c0.297,0,0.591-0.021,0.883-0.062
		c-0.021,0.104-0.031,0.206-0.031,0.305c0,0.109,0.01,0.214,0.031,0.312c-0.292-0.041-0.586-0.062-0.883-0.062H8.618v1.719
		c0.323-0.135,0.627-0.281,0.914-0.438c-0.021,0.303-0.031,0.514-0.031,0.633c-0.328,0.109-0.623,0.217-0.883,0.32v2.367
		c0,0.256-0.104,0.425-0.312,0.508c-0.208,0.078-0.508,0.117-0.898,0.117c-0.058-0.25-0.162-0.458-0.312-0.625h0.438
		c0.375,0,0.562-0.096,0.562-0.289v-1.859c-0.526,0.219-0.894,0.401-1.102,0.547c-0.011-0.197-0.07-0.427-0.18-0.688
		c0.448-0.104,0.875-0.231,1.281-0.383v-1.93H7.813c-0.292,0-0.586,0.021-0.883,0.062c0.021-0.099,0.031-0.203,0.031-0.312
		C6.962,155.308,6.951,155.207,6.93,155.102z M10.782,153.54c0.177,0.037,0.406,0.055,0.688,0.055
		c-0.089,0.312-0.133,0.675-0.133,1.086v0.453h0.789c0.297,0,0.596-0.023,0.898-0.07c-0.042,0.198-0.062,0.396-0.062,0.594
		c0,1.953,0.057,3.141,0.172,3.562c0.125,0.542,0.227,0.812,0.305,0.812c0.036-0.094,0.086-0.438,0.148-1.031
		c0.172,0.219,0.372,0.378,0.602,0.477c-0.219,0.917-0.409,1.375-0.57,1.375c-0.183-0.016-0.375-0.161-0.578-0.438
		c-0.203-0.297-0.359-0.713-0.469-1.25c-0.109-0.635-0.164-1.805-0.164-3.508h-1.07v0.164c0,0.859-0.039,1.576-0.117,2.148
		c0.25,0.188,0.508,0.378,0.773,0.57c-0.193,0.183-0.328,0.357-0.406,0.523c-0.167-0.161-0.326-0.312-0.477-0.453
		c-0.062,0.229-0.128,0.425-0.195,0.586c-0.292,0.641-0.794,1.214-1.508,1.719c-0.13-0.192-0.3-0.338-0.508-0.438
		c0.812-0.516,1.344-1.057,1.594-1.625c0.067-0.166,0.125-0.369,0.172-0.609c-0.328-0.266-0.656-0.5-0.984-0.703
		c0.161-0.135,0.299-0.281,0.414-0.438c0.213,0.167,0.438,0.339,0.672,0.516c0.052-0.5,0.078-1.099,0.078-1.797v-0.164h-0.289
		c-0.266,0-0.534,0.021-0.805,0.062c0.021-0.109,0.031-0.224,0.031-0.344c0-0.099-0.011-0.203-0.031-0.312
		c0.271,0.047,0.539,0.07,0.805,0.07h0.289v-0.164C10.845,154.547,10.824,154.071,10.782,153.54z"/>
	<path class="st8" d="M16.618,153.625c0.198,0.104,0.438,0.19,0.719,0.258c-0.109,0.068-0.232,0.193-0.367,0.375
		c-0.453,0.641-1.008,1.232-1.664,1.773c-0.13-0.156-0.315-0.291-0.555-0.406c0.516-0.312,0.917-0.643,1.203-0.992
		C16.292,154.249,16.514,153.913,16.618,153.625z M17.024,155.258c0.224,0.141,0.466,0.234,0.727,0.281
		c-0.172,0.1-0.357,0.308-0.555,0.625c-0.13,0.24-0.279,0.469-0.445,0.688v2.938c0,0.391,0.021,0.784,0.062,1.18
		c-0.13-0.021-0.255-0.031-0.375-0.031c-0.13,0-0.255,0.011-0.375,0.031c0.042-0.396,0.062-0.789,0.062-1.18v-2.219
		c-0.276,0.281-0.589,0.561-0.938,0.836c-0.094-0.229-0.208-0.414-0.344-0.555c0.583-0.369,1.047-0.76,1.391-1.172
		C16.589,156.274,16.852,155.8,17.024,155.258z M17.813,156.133c0.338,0.042,0.682,0.062,1.031,0.062h2.344
		c0.344,0,0.685-0.021,1.023-0.062c-0.016,0.12-0.023,0.245-0.023,0.375c0,0.109,0.008,0.225,0.023,0.344
		c-0.339-0.041-0.68-0.062-1.023-0.062h-0.539v3.719c0,0.172-0.097,0.297-0.289,0.375c-0.177,0.078-0.539,0.117-1.086,0.117
		c-0.011-0.266-0.094-0.505-0.25-0.719c0.328,0.042,0.581,0.062,0.758,0.062c0.156,0,0.237-0.06,0.242-0.18v-3.375h-1.18
		c-0.349,0-0.693,0.021-1.031,0.062c0.021-0.119,0.031-0.234,0.031-0.344C17.845,156.378,17.834,156.253,17.813,156.133z
		 M18.274,154c0.349,0.042,0.692,0.062,1.031,0.062h1.312c0.349,0,0.692-0.021,1.031-0.062c-0.021,0.131-0.031,0.256-0.031,0.375
		c0,0.12,0.01,0.234,0.031,0.344c-0.339-0.041-0.683-0.062-1.031-0.062h-1.312c-0.339,0-0.683,0.021-1.031,0.062
		c0.021-0.109,0.031-0.224,0.031-0.344C18.305,154.256,18.295,154.131,18.274,154z"/>
	<path class="st8" d="M25.438,153.446c0.25,0.12,0.528,0.201,0.836,0.242c-0.151,0.136-0.352,0.354-0.602,0.656h2.453
		c0.271,0,0.539-0.01,0.805-0.031c-0.479,0.714-0.958,1.276-1.438,1.688c-0.089,0.078-0.175,0.146-0.258,0.203
		c0.042,0.021,0.083,0.039,0.125,0.055c0.614,0.266,1.557,0.484,2.828,0.656c-0.219,0.183-0.365,0.401-0.438,0.656
		c-1.297-0.312-2.269-0.653-2.914-1.023c-0.026-0.01-0.047-0.023-0.062-0.039c-0.406,0.24-0.867,0.451-1.383,0.633
		c-0.771,0.24-1.456,0.412-2.055,0.516c-0.094-0.224-0.25-0.422-0.469-0.594c0.906-0.083,1.672-0.219,2.297-0.406
		c0.401-0.125,0.768-0.278,1.102-0.461c-0.412-0.312-0.769-0.713-1.07-1.203c-0.318,0.422-0.664,0.852-1.039,1.289
		c-0.208-0.172-0.448-0.286-0.719-0.344c0.432-0.271,0.854-0.672,1.266-1.203C24.907,154.5,25.152,154.071,25.438,153.446z
		 M25.126,158.852c0.188,0.198,0.372,0.352,0.555,0.461c-0.641,0.271-1.318,0.69-2.031,1.258c-0.167-0.197-0.362-0.354-0.586-0.469
		C23.787,159.832,24.474,159.415,25.126,158.852z M23.618,157.938C23.925,157.98,24.23,158,24.532,158h1.773v-0.406
		c0-0.177-0.011-0.354-0.031-0.531c0.219,0.047,0.448,0.07,0.688,0.07c-0.062,0.162-0.094,0.347-0.094,0.555V158h1.602
		c0.297,0,0.599-0.021,0.906-0.062c-0.026,0.12-0.039,0.234-0.039,0.344s0.013,0.214,0.039,0.312
		c-0.308-0.036-0.609-0.055-0.906-0.055h-1.602v1.742c0,0.276-0.099,0.456-0.297,0.539c-0.198,0.078-0.482,0.117-0.852,0.117
		c-0.058-0.255-0.162-0.474-0.312-0.656h0.461c0.292,0,0.438-0.104,0.438-0.312v-1.43h-1.773c-0.302,0-0.607,0.019-0.914,0.055
		c0.021-0.099,0.031-0.203,0.031-0.312S23.639,158.058,23.618,157.938z M25.563,154.86c0.344,0.443,0.731,0.8,1.164,1.07
		c0.016-0.01,0.031-0.021,0.047-0.031c0.359-0.266,0.716-0.614,1.07-1.047h-2.094C25.683,154.852,25.62,154.855,25.563,154.86z
		 M27.813,158.883c0.489,0.365,1.146,0.781,1.969,1.25c-0.183,0.115-0.352,0.279-0.508,0.492c-0.177-0.177-0.445-0.393-0.805-0.648
		c-0.38-0.26-0.734-0.471-1.062-0.633C27.558,159.225,27.693,159.071,27.813,158.883z"/>
	<path class="st8" d="M32.68,153.54c0.188,0.094,0.419,0.178,0.695,0.25c-0.12,0.115-0.245,0.318-0.375,0.609
		c-0.099,0.229-0.206,0.453-0.32,0.672v4.648c0,0.365,0.023,0.732,0.07,1.102c-0.12-0.021-0.234-0.031-0.344-0.031
		c-0.12,0-0.234,0.011-0.344,0.031c0.042-0.369,0.062-0.736,0.062-1.102v-3.617c-0.25,0.417-0.523,0.82-0.82,1.211
		c-0.125-0.156-0.3-0.289-0.523-0.398c0.521-0.536,0.927-1.096,1.219-1.68C32.349,154.584,32.576,154.019,32.68,153.54z
		 M34.188,154.282c0.192,0.078,0.411,0.154,0.656,0.227c-0.062,0.078-0.136,0.222-0.219,0.43c-0.068,0.198-0.136,0.389-0.203,0.57
		h1.047v-0.969c0-0.317-0.021-0.633-0.062-0.945c0.198,0.021,0.438,0.031,0.719,0.031c-0.068,0.151-0.102,0.342-0.102,0.57v1.312
		h1.133c0.239,0,0.497-0.01,0.773-0.031c-0.021,0.1-0.031,0.19-0.031,0.273c0,0.109,0.01,0.203,0.031,0.281
		c-0.188-0.021-0.445-0.031-0.773-0.031h-1.133v1.852h1.188c0.292,0,0.586-0.021,0.883-0.062c-0.021,0.1-0.031,0.203-0.031,0.312
		c0,0.104,0.01,0.206,0.031,0.305c-0.297-0.041-0.591-0.062-0.883-0.062h-1.188v1.539c0,0.365,0.023,0.727,0.07,1.086
		c-0.12-0.021-0.234-0.031-0.344-0.031c-0.12,0-0.234,0.011-0.344,0.031c0.042-0.359,0.062-0.721,0.062-1.086v-1.539h-1.445
		c-0.292,0-0.581,0.021-0.867,0.062c0.021-0.099,0.031-0.2,0.031-0.305c0-0.109-0.011-0.213-0.031-0.312
		c0.286,0.042,0.575,0.062,0.867,0.062h1.445V156h-1.258c-0.203,0.443-0.412,0.831-0.625,1.164c-0.12-0.114-0.294-0.219-0.523-0.312
		c0.302-0.4,0.536-0.799,0.703-1.195C33.949,155.246,34.089,154.788,34.188,154.282z"/>
	<path class="st8" d="M39.618,155.75c0.26,0.047,0.523,0.07,0.789,0.07h2.164c0.094-0.474,0.164-0.994,0.211-1.562
		c0-0.203-0.011-0.403-0.031-0.602c0.323,0.062,0.602,0.094,0.836,0.094c-0.109,0.167-0.19,0.412-0.242,0.734
		c-0.058,0.484-0.125,0.93-0.203,1.336h1.852c0.239,0,0.481-0.01,0.727-0.031c-0.094,0.225-0.148,0.464-0.164,0.719l-0.148,3.656
		c-0.031,0.271-0.263,0.453-0.695,0.547c-0.5,0.1-0.925,0.156-1.273,0.172c0-0.239-0.076-0.439-0.227-0.602h0.406
		c0.51,0,0.864-0.049,1.062-0.148c0.125-0.083,0.188-0.166,0.188-0.25l0.156-3.57h-1.977c-0.245,1.109-0.56,1.94-0.945,2.492
		c-0.453,0.714-1.271,1.425-2.453,2.133c-0.151-0.224-0.347-0.411-0.586-0.562c1.13-0.447,2.01-1.156,2.641-2.125
		c0.323-0.505,0.578-1.15,0.766-1.938h-2.062c-0.266,0-0.529,0.021-0.789,0.062c0.021-0.099,0.031-0.203,0.031-0.312
		C39.649,155.964,39.639,155.86,39.618,155.75z M41.024,153.915c0.213,0.396,0.495,0.803,0.844,1.219
		c-0.198,0.042-0.386,0.133-0.562,0.273c-0.234-0.474-0.503-0.888-0.805-1.242C40.714,154.108,40.889,154.024,41.024,153.915z
		 M43.243,157.719c0.255,0.359,0.588,0.727,1,1.102c-0.198,0.042-0.386,0.136-0.562,0.281c-0.281-0.432-0.602-0.81-0.961-1.133
		C42.933,157.922,43.107,157.839,43.243,157.719z"/>
	<path class="st8" d="M50.219,160.133h-0.775v-5.74h3.974v0.688h-3.198v1.759h2.814v0.688h-2.814V160.133z"/>
	<path class="st8" d="M54.515,158.462l-0.6,1.671h-0.799l2.159-5.74h0.879l2.079,5.74h-0.848l-0.568-1.671H54.515z M56.538,157.775
		l-0.847-2.526h-0.016l-0.919,2.526H56.538z"/>
	<path class="st8" d="M59.723,159.446h2.911v0.688h-3.686v-5.74h0.775V159.446z"/>
	<path class="st8" d="M66.738,156.072c-0.04-0.888-0.775-1.167-1.423-1.167c-0.487,0-1.311,0.136-1.311,1.007
		c0,0.488,0.344,0.648,0.68,0.728l1.639,0.376c0.744,0.176,1.303,0.624,1.303,1.535c0,1.359-1.263,1.735-2.247,1.735
		c-1.063,0-1.479-0.32-1.735-0.552c-0.488-0.439-0.583-0.92-0.583-1.455h0.728c0,1.039,0.848,1.343,1.583,1.343
		c0.56,0,1.503-0.144,1.503-0.967c0-0.6-0.28-0.792-1.224-1.016l-1.175-0.271c-0.376-0.089-1.223-0.353-1.223-1.352
		c0-0.896,0.583-1.775,1.975-1.775c2.007,0,2.207,1.199,2.239,1.831H66.738z"/>
	<path class="st8" d="M72.929,160.133h-4.238v-5.74h4.182v0.688h-3.406v1.759h3.142v0.688h-3.142v1.919h3.462V160.133z"/>
	<path class="st8" d="M76.22,154.196c0.307,0.042,0.62,0.062,0.938,0.062h0.773c0.317,0,0.633-0.021,0.945-0.062
		c-0.042,0.276-0.062,0.555-0.062,0.836v4.133c0,0.297,0.021,0.597,0.062,0.898c-0.177-0.021-0.292-0.031-0.344-0.031
		c-0.062,0-0.188,0.011-0.375,0.031c0.031-0.224,0.049-0.442,0.055-0.656h-1.336v0.102c0,0.297,0.018,0.597,0.055,0.898
		c-0.188-0.021-0.31-0.031-0.367-0.031c-0.058,0-0.172,0.011-0.344,0.031c0.036-0.302,0.055-0.602,0.055-0.898v-4.477
		C76.275,154.75,76.256,154.472,76.22,154.196z M76.876,156.571h1.344v-1.781h-1.344V156.571z M76.876,158.883h1.344v-1.82h-1.344
		V158.883z M78.993,155.407c0.307,0.047,0.609,0.07,0.906,0.07h1.664v-1.414c0-0.182-0.011-0.367-0.031-0.555
		c0.224,0.042,0.461,0.062,0.711,0.062c-0.058,0.172-0.086,0.37-0.086,0.594v1.312h0.086c0.302,0,0.606-0.023,0.914-0.07
		c-0.021,0.12-0.031,0.234-0.031,0.344s0.01,0.214,0.031,0.312C82.85,156.022,82.545,156,82.243,156h-0.086v4.281
		c0,0.287-0.123,0.475-0.367,0.562c-0.24,0.084-0.586,0.125-1.039,0.125c-0.058-0.271-0.172-0.5-0.344-0.688H80.9
		c0.442,0,0.664-0.104,0.664-0.312V156H79.9c-0.297,0-0.599,0.021-0.906,0.062c0.021-0.099,0.031-0.203,0.031-0.312
		S79.014,155.527,78.993,155.407z M79.993,156.688l0.758,1.758c-0.245,0.026-0.464,0.068-0.656,0.125
		c-0.183-0.724-0.401-1.307-0.656-1.75C79.605,156.811,79.79,156.766,79.993,156.688z"/>
	<path class="st8" d="M86.603,157.243c0,0.709-0.146,1.391-0.438,2.047c-0.297,0.662-0.706,1.25-1.227,1.766l-0.406-0.469
		c0.448-0.442,0.797-0.955,1.047-1.539c0.255-0.583,0.383-1.185,0.383-1.805c0-0.619-0.128-1.221-0.383-1.805
		c-0.25-0.583-0.599-1.096-1.047-1.539l0.406-0.469c0.521,0.516,0.927,1.1,1.219,1.75C86.454,155.847,86.603,156.535,86.603,157.243
		z"/>
</g>
<g>
	<path class="st3" d="M148.696,16.276c-0.68,1.279-1.087,2.047-1.087,3.966c0,1.319,0.456,2.295,1.096,3.55h-0.472
		c-0.832-1.248-1.375-2.247-1.375-3.742c0-1.407,0.488-2.542,1.351-3.774H148.696z"/>
	<path class="st3" d="M151.848,22.137h-0.751v-3.99h-1.312v-0.56c0.912-0.064,1.287-0.152,1.511-1.072h0.552V22.137z"/>
	<path class="st3" d="M153.705,23.792c0.68-1.279,1.087-2.047,1.087-3.966c0-1.319-0.456-2.295-1.095-3.55h0.472
		c0.832,1.248,1.375,2.247,1.375,3.742c0,1.407-0.488,2.542-1.351,3.774H153.705z"/>
</g>
</svg>
