<?xml version="1.0" encoding="utf-8"?>
<!-- Generator: Adobe Illustrator 28.2.0, SVG Export Plug-In . SVG Version: 6.00 Build 0)  -->
<svg version="1.1" xmlns="http://www.w3.org/2000/svg" xmlns:xlink="http://www.w3.org/1999/xlink" x="0px" y="0px"
	 width="365.669px" height="241.121px" viewBox="0 0 365.669 241.121" style="enable-background:new 0 0 365.669 241.121;"
	 xml:space="preserve">
<style type="text/css">
	.st0{fill:none;stroke:#666666;stroke-width:0.5;stroke-miterlimit:10;stroke-dasharray:1;}
	.st1{fill:none;stroke:#000000;stroke-width:0.5;stroke-miterlimit:10;}
	.st2{fill:#3574F2;}
</style>
<g id="レイヤー_1">
	<g>
		<line class="st0" x1="65.19" y1="10.806" x2="65.19" y2="241.121"/>
		<line class="st0" x1="150.229" y1="10.806" x2="150.229" y2="241.121"/>
		<line class="st0" x1="228.182" y1="10.806" x2="228.182" y2="241.121"/>
	</g>
	<g>
		<polyline class="st1" points="365.6,63.955 270.702,63.955 270.702,21.436 256.529,21.436 256.529,63.955 249.442,63.955 
			249.442,21.436 235.269,21.436 235.269,63.955 185.662,63.955 185.662,21.436 171.489,21.436 171.489,63.955 164.403,63.955 
			164.403,21.436 150.229,21.436 150.229,63.955 143.143,63.955 143.143,21.436 128.97,21.436 128.97,63.955 121.883,63.955 
			121.883,21.436 107.71,21.436 107.71,63.955 100.623,63.955 100.623,21.436 86.45,21.436 86.45,63.955 79.363,63.955 
			79.363,21.436 65.19,21.436 65.19,63.955 58.103,63.955 		"/>
	</g>
	<polyline class="st1" points="365.6,177.342 228.182,177.342 228.182,134.822 150.229,134.822 150.229,177.342 58.103,177.342 	"/>
	<polyline class="st1" points="365.6,78.128 228.182,78.128 228.182,120.648 58.103,120.648 	"/>
	<rect x="58.103" y="191.514" class="st1" width="307.282" height="42.52"/>
	<line class="st1" x1="65.19" y1="234.034" x2="65.19" y2="191.514"/>
	<line class="st1" x1="86.45" y1="234.034" x2="86.45" y2="191.514"/>
	<line class="st1" x1="107.71" y1="234.034" x2="107.71" y2="191.514"/>
	<line class="st1" x1="128.97" y1="234.034" x2="128.97" y2="191.514"/>
	<line class="st1" x1="150.229" y1="234.034" x2="150.229" y2="191.514"/>
	<line class="st1" x1="228.182" y1="234.034" x2="228.182" y2="191.514"/>
</g>
<g id="レイヤー_2">
	<g>
		<path d="M27.403,42.153c-0.224-0.983-0.832-1.359-1.815-1.359c-1.391,0-1.991,1.191-1.991,2.55c0,1.288,0.472,2.583,2.039,2.583
			c0.992,0,1.607-0.671,1.823-1.583h0.567c-0.256,1.111-0.951,2.047-2.495,2.047c-1.775,0-2.479-1.399-2.479-3.03
			c0-2.199,1.151-3.03,2.679-3.03c1.183,0,2.047,0.632,2.23,1.823H27.403z"/>
		<path d="M29.102,40.482h0.543v3.43c0,1.423,0.512,2.015,1.687,2.015c1.239,0,1.688-0.655,1.688-2.015v-3.43h0.543v3.59
			c0,1.496-0.744,2.319-2.231,2.319c-1.503,0-2.23-0.848-2.23-2.319V40.482z"/>
	</g>
	<g>
		<path d="M28.323,159.673l-0.304,0.368l-0.848-0.656c-0.392,0.248-0.872,0.392-1.439,0.392c-1.775,0-2.679-1.367-2.679-3.022
			c0-1.599,0.863-3.038,2.654-3.038c1.615,0,2.711,1.08,2.711,3.038c0,0.928-0.288,1.767-0.864,2.327L28.323,159.673z
			 M27.155,158.77c0.488-0.464,0.72-1.215,0.72-2.015c0-1.719-0.919-2.574-2.151-2.574c-1.479,0-2.126,1.247-2.126,2.574
			c0,1.368,0.64,2.559,2.143,2.559c0.4,0,0.735-0.096,1.007-0.256l-0.656-0.503l0.288-0.376L27.155,158.77z"/>
	</g>
	<g>
		<path d="M23.854,100.317v2.615H23.31v-5.757h2.255c1.263,0,1.959,0.448,1.959,1.511c0,0.728-0.272,1.111-0.936,1.407
			c0.68,0.232,0.72,0.952,0.735,1.559c0.024,0.872,0.096,1.111,0.24,1.223v0.056h-0.6c-0.224-0.392-0.167-1.471-0.256-1.911
			c-0.128-0.624-0.6-0.704-1.143-0.704H23.854z M25.548,99.854c0.808,0,1.431-0.336,1.431-1.144c0-0.863-0.671-1.071-1.399-1.071
			h-1.727v2.215H25.548z"/>
	</g>
	<g>
		<path d="M27.403,212.231c-0.224-0.983-0.832-1.359-1.815-1.359c-1.391,0-1.991,1.191-1.991,2.55c0,1.288,0.472,2.583,2.039,2.583
			c0.992,0,1.607-0.671,1.823-1.583h0.567c-0.256,1.111-0.951,2.047-2.495,2.047c-1.775,0-2.479-1.399-2.479-3.03
			c0-2.199,1.151-3.03,2.679-3.03c1.183,0,2.047,0.631,2.23,1.823H27.403z"/>
		<path d="M28.59,210.561h0.567l1.735,5.117l1.727-5.117h0.567l-1.999,5.757h-0.6L28.59,210.561z"/>
	</g>
	<g>
		<path d="M76.01,212.128h-1.455v-0.336c0.855-0.056,1.391-0.144,1.559-1.111h0.408v5.637H76.01V212.128z"/>
	</g>
	<g>
		<path d="M95.407,212.527c0-1.111,0.72-1.847,1.831-1.847c1.135,0,1.735,0.695,1.735,1.559c0,1.495-1.615,1.871-2.455,2.51
			c-0.368,0.28-0.711,0.6-0.735,1.136h3.142v0.432h-3.686c0.008-0.536,0.08-0.959,0.44-1.375c1.175-1.359,2.734-1.344,2.734-2.671
			c0-0.735-0.544-1.159-1.239-1.159c-0.736,0-1.255,0.656-1.224,1.415H95.407z"/>
	</g>
	<g>
		<path d="M117.882,213.183c0.952,0.008,1.615-0.216,1.615-1.08c0-0.695-0.552-0.991-1.2-0.991c-0.719,0-1.207,0.504-1.207,1.207
			h-0.512c0-0.503,0.168-0.911,0.543-1.263c0.352-0.32,0.816-0.375,1.279-0.375c0.888,0,1.607,0.448,1.607,1.391
			c0,0.583-0.256,1.023-0.8,1.255c0.815,0.256,1,0.872,1,1.391c0,0.927-0.656,1.679-1.815,1.711c-1.303,0-1.887-0.432-2.007-1.743
			h0.512c0,0.855,0.567,1.311,1.399,1.311c0.816,0,1.432-0.608,1.399-1.271c-0.032-0.911-0.824-1.199-1.815-1.127V213.183z"/>
	</g>
	<g>
		<path d="M140.237,214.926h-2.574v-0.44l2.622-3.75h0.464v3.758h0.784v0.432h-0.784v1.391h-0.512V214.926z M138.167,214.494h2.071
			v-2.99L138.167,214.494z"/>
	</g>
	<g>
		<path d="M187.773,214.854c0.104,0.76,0.656,1.144,1.391,1.144c0.84,0,1.352-0.64,1.352-1.439c0-0.84-0.544-1.432-1.399-1.432
			c-0.504,0-0.912,0.176-1.223,0.584l-0.424-0.056l0.456-2.918h2.799v0.432h-2.367l-0.352,1.895c0.44-0.288,0.728-0.368,1.239-0.368
			c1.031,0,1.783,0.704,1.783,1.863c0,1.183-0.855,1.871-1.783,1.871c-1.063,0-1.895-0.408-1.983-1.575H187.773z"/>
	</g>
	<g>
		<path d="M290.319,213.599c0,1.496-0.352,2.831-1.903,2.831c-1.559,0-1.911-1.327-1.911-2.886c0-1.423,0.288-2.862,1.911-2.862
			C290.088,210.681,290.319,212.288,290.319,213.599z M288.4,211.112c-1.119,0-1.383,1.239-1.383,2.486
			c0,1.447,0.32,2.399,1.399,2.399c1.215,0,1.391-1.319,1.391-2.455C289.808,212.328,289.592,211.112,288.4,211.112z"/>
	</g>
	<g>
		<path d="M63.548,213.599c0,1.496-0.352,2.831-1.903,2.831c-1.559,0-1.911-1.327-1.911-2.886c0-1.423,0.288-2.862,1.911-2.862
			C63.316,210.681,63.548,212.288,63.548,213.599z M61.629,211.112c-1.119,0-1.383,1.239-1.383,2.486
			c0,1.447,0.32,2.399,1.399,2.399c1.215,0,1.391-1.319,1.391-2.455C63.036,212.328,62.82,211.112,61.629,211.112z"/>
	</g>
	<g>
		<path class="st2" d="M62.517,1.354c-0.76,1.104-1.224,2.398-1.224,3.742c0,1.328,0.488,2.599,1.224,3.694h-0.408
			c-0.879-1.215-1.367-2.215-1.367-3.734c0-1.463,0.503-2.55,1.367-3.702H62.517z"/>
		<path class="st2" d="M65.38,3.073h-1.455V2.737c0.855-0.056,1.391-0.144,1.559-1.111h0.408v5.637H65.38V3.073z"/>
		<path class="st2" d="M67.862,8.79c0.76-1.104,1.223-2.399,1.223-3.742c0-1.327-0.487-2.599-1.223-3.694h0.408
			c0.879,1.215,1.367,2.215,1.367,3.734c0,1.463-0.503,2.551-1.367,3.702H67.862z"/>
	</g>
	<g>
		<path class="st2" d="M147.556,1.354c-0.76,1.104-1.224,2.398-1.224,3.742c0,1.328,0.488,2.599,1.224,3.694h-0.408
			c-0.879-1.215-1.367-2.215-1.367-3.734c0-1.463,0.503-2.55,1.367-3.702H147.556z"/>
		<path class="st2" d="M148.557,3.473c0-1.111,0.72-1.847,1.831-1.847c1.135,0,1.735,0.695,1.735,1.559
			c0,1.495-1.615,1.871-2.455,2.51c-0.368,0.28-0.711,0.6-0.735,1.136h3.142v0.432h-3.686c0.008-0.536,0.08-0.959,0.44-1.375
			c1.175-1.359,2.734-1.344,2.734-2.671c0-0.735-0.544-1.159-1.239-1.159c-0.736,0-1.255,0.656-1.224,1.415H148.557z"/>
		<path class="st2" d="M152.901,8.79c0.76-1.104,1.223-2.399,1.223-3.742c0-1.327-0.487-2.599-1.223-3.694h0.408
			c0.879,1.215,1.367,2.215,1.367,3.734c0,1.463-0.503,2.551-1.367,3.702H152.901z"/>
	</g>
	<g>
		<path class="st2" d="M225.509,1.354c-0.76,1.104-1.224,2.398-1.224,3.742c0,1.328,0.488,2.599,1.224,3.694h-0.408
			c-0.879-1.215-1.367-2.215-1.367-3.734c0-1.463,0.503-2.55,1.367-3.702H225.509z"/>
		<path class="st2" d="M227.725,4.128c0.952,0.008,1.615-0.216,1.615-1.08c0-0.695-0.552-0.991-1.2-0.991
			c-0.719,0-1.207,0.504-1.207,1.207h-0.512c0-0.503,0.168-0.911,0.543-1.263c0.352-0.32,0.816-0.375,1.279-0.375
			c0.888,0,1.607,0.448,1.607,1.391c0,0.583-0.256,1.023-0.8,1.255c0.815,0.256,1,0.872,1,1.391c0,0.927-0.656,1.679-1.815,1.711
			c-1.303,0-1.887-0.432-2.007-1.743h0.512c0,0.855,0.567,1.311,1.399,1.311c0.816,0,1.432-0.608,1.399-1.271
			c-0.032-0.911-0.824-1.199-1.815-1.127V4.128z"/>
		<path class="st2" d="M230.854,8.79c0.76-1.104,1.223-2.399,1.223-3.742c0-1.327-0.487-2.599-1.223-3.694h0.408
			c0.879,1.215,1.367,2.215,1.367,3.734c0,1.463-0.503,2.551-1.367,3.702H230.854z"/>
	</g>
	<g>
	</g>
	<g>
	</g>
	<g>
	</g>
	<g>
	</g>
	<g>
	</g>
	<g>
	</g>
	<g>
	</g>
	<g>
	</g>
	<g>
	</g>
	<g>
	</g>
	<g>
	</g>
	<g>
	</g>
	<g>
	</g>
	<g>
	</g>
	<g>
	</g>
</g>
</svg>
