<?xml version="1.0" encoding="utf-8"?>
<!-- Generator: Adobe Illustrator 28.2.0, SVG Export Plug-In . SVG Version: 6.00 Build 0)  -->
<svg version="1.1" xmlns="http://www.w3.org/2000/svg" xmlns:xlink="http://www.w3.org/1999/xlink" x="0px" y="0px"
	 width="337.478px" height="329.79px" viewBox="0 0 337.478 329.79" style="enable-background:new 0 0 337.478 329.79;"
	 xml:space="preserve">
<style type="text/css">
	.st0{fill:none;stroke:#666666;stroke-width:0.5;stroke-miterlimit:10;stroke-dasharray:1;}
	.st1{fill:none;stroke:#000000;stroke-width:0.5;stroke-miterlimit:10;}
	.st2{fill:#3574F2;}
</style>
<g id="レイヤー_1">
	<g>
		<line class="st0" x1="74.892" y1="9.475" x2="74.892" y2="329.79"/>
		<line class="st0" x1="117.412" y1="9.475" x2="117.412" y2="329.79"/>
		<line class="st0" x1="174.105" y1="9.475" x2="174.105" y2="329.79"/>
		<line class="st0" x1="216.624" y1="9.475" x2="216.624" y2="329.79"/>
		<line class="st0" x1="237.884" y1="9.475" x2="237.884" y2="329.79"/>
		<line class="st0" x1="259.144" y1="9.475" x2="259.144" y2="329.79"/>
		<line class="st0" x1="280.404" y1="9.475" x2="280.404" y2="329.79"/>
	</g>
	<polyline class="st1" points="337.478,51.995 294.577,51.995 294.577,17.979 280.404,17.979 280.404,51.995 131.585,51.995 
		131.585,17.979 117.412,17.979 117.412,51.995 110.325,51.995 110.325,17.979 96.152,17.979 96.152,51.995 89.065,51.995 
		89.065,17.979 74.892,17.979 74.892,51.995 60.719,51.995 	"/>
	<polyline class="st1" points="337.478,97.349 315.837,97.349 315.837,63.333 301.664,63.333 301.664,97.349 230.798,97.349 
		230.798,63.333 216.624,63.333 216.624,97.349 209.538,97.349 209.538,63.333 195.364,63.333 195.364,97.349 188.278,97.349 
		188.278,63.333 174.105,63.333 174.105,97.349 60.719,97.349 	"/>
	<polyline class="st1" points="337.097,233.412 259.144,233.412 259.144,199.396 237.884,199.396 237.884,233.412 174.105,233.412 
		174.105,199.396 117.412,199.396 117.412,233.412 60.719,233.412 	"/>
	<polyline class="st1" points="337.478,108.688 280.404,108.688 280.404,142.703 266.231,142.703 266.231,108.688 259.144,108.688 
		259.144,142.703 60.719,142.703 	"/>
	<polyline class="st1" points="337.097,154.042 280.404,154.042 280.404,188.058 244.971,188.058 244.971,154.042 237.884,154.042 
		237.884,188.058 60.719,188.058 	"/>
	<polyline class="st1" points="337.097,244.751 259.144,244.751 259.144,278.766 237.884,278.766 237.884,244.751 216.624,244.751 
		216.624,278.766 60.719,278.766 	"/>
	<g>
		<rect x="60.719" y="290.104" class="st1" width="276.447" height="34.016"/>
		<line class="st1" x1="74.892" y1="324.12" x2="74.892" y2="290.104"/>
		<line class="st1" x1="96.152" y1="324.12" x2="96.152" y2="290.104"/>
		<line class="st1" x1="117.412" y1="324.12" x2="117.412" y2="290.104"/>
		<line class="st1" x1="174.105" y1="324.12" x2="174.105" y2="290.104"/>
		<line class="st1" x1="195.364" y1="324.12" x2="195.364" y2="290.104"/>
		<line class="st1" x1="216.624" y1="324.12" x2="216.624" y2="290.104"/>
		<line class="st1" x1="237.884" y1="324.12" x2="237.884" y2="290.104"/>
		<line class="st1" x1="259.144" y1="324.12" x2="259.144" y2="290.104"/>
		<line class="st1" x1="280.404" y1="324.12" x2="280.404" y2="290.104"/>
	</g>
</g>
<g id="レイヤー_2">
	<g>
		<path d="M30.019,33.735c-0.224-0.983-0.832-1.359-1.815-1.359c-1.391,0-1.991,1.191-1.991,2.55c0,1.288,0.472,2.583,2.039,2.583
			c0.992,0,1.607-0.671,1.823-1.583h0.567c-0.256,1.111-0.951,2.047-2.495,2.047c-1.775,0-2.479-1.399-2.479-3.03
			c0-2.199,1.151-3.03,2.679-3.03c1.183,0,2.047,0.631,2.23,1.823H30.019z"/>
		<path d="M31.717,32.064h0.543v3.43c0,1.423,0.512,2.015,1.687,2.015c1.239,0,1.688-0.655,1.688-2.015v-3.43h0.543v3.59
			c0,1.495-0.744,2.319-2.231,2.319c-1.503,0-2.23-0.848-2.23-2.319V32.064z"/>
	</g>
	<g>
		<path d="M30.938,264.641l-0.304,0.368l-0.848-0.656c-0.392,0.248-0.872,0.392-1.439,0.392c-1.775,0-2.679-1.367-2.679-3.022
			c0-1.599,0.863-3.038,2.654-3.038c1.615,0,2.711,1.08,2.711,3.038c0,0.928-0.288,1.767-0.864,2.327L30.938,264.641z
			 M29.771,263.737c0.488-0.464,0.72-1.215,0.72-2.015c0-1.719-0.919-2.574-2.151-2.574c-1.479,0-2.126,1.247-2.126,2.574
			c0,1.368,0.64,2.559,2.143,2.559c0.4,0,0.735-0.096,1.007-0.256l-0.656-0.503l0.288-0.376L29.771,263.737z"/>
		<path d="M32.157,264.593v-5.757h1.967c0.64,0,1.239,0.04,1.775,0.432c0.759,0.552,0.959,1.671,0.959,2.439
			c0,0.759-0.168,1.607-0.696,2.183c-0.528,0.592-1.279,0.704-2.039,0.704H32.157z M32.701,264.129h1.303
			c0.488,0,0.912-0.032,1.351-0.264c0.768-0.392,0.959-1.375,0.959-2.159c0-0.84-0.184-1.759-0.991-2.191
			c-0.344-0.184-0.84-0.216-1.319-0.216h-1.303V264.129z"/>
	</g>
	<g>
		<path d="M30.938,219.286l-0.304,0.368l-0.848-0.656c-0.392,0.248-0.872,0.392-1.439,0.392c-1.775,0-2.679-1.367-2.679-3.022
			c0-1.599,0.863-3.038,2.654-3.038c1.615,0,2.711,1.08,2.711,3.038c0,0.928-0.288,1.767-0.864,2.327L30.938,219.286z
			 M29.771,218.383c0.488-0.464,0.72-1.215,0.72-2.015c0-1.719-0.919-2.574-2.151-2.574c-1.479,0-2.126,1.247-2.126,2.574
			c0,1.368,0.64,2.559,2.143,2.559c0.4,0,0.735-0.096,1.007-0.256l-0.656-0.503l0.288-0.376L29.771,218.383z"/>
		<path d="M32.165,213.481h0.543v3.43c0,1.423,0.512,2.015,1.687,2.015c1.239,0,1.688-0.655,1.688-2.015v-3.43h0.543v3.59
			c0,1.495-0.744,2.319-2.231,2.319c-1.503,0-2.23-0.848-2.23-2.319V213.481z"/>
	</g>
	<g>
		<path d="M30.019,79.089c-0.224-0.983-0.832-1.359-1.815-1.359c-1.391,0-1.991,1.191-1.991,2.55c0,1.288,0.472,2.583,2.039,2.583
			c0.992,0,1.607-0.671,1.823-1.583h0.567c-0.256,1.111-0.951,2.047-2.495,2.047c-1.775,0-2.479-1.399-2.479-3.03
			c0-2.199,1.151-3.03,2.679-3.03c1.183,0,2.047,0.632,2.23,1.823H30.019z"/>
		<path d="M31.709,83.175v-5.757h1.967c0.64,0,1.239,0.04,1.775,0.432c0.759,0.552,0.959,1.671,0.959,2.439
			c0,0.759-0.168,1.607-0.696,2.183c-0.528,0.592-1.279,0.704-2.039,0.704H31.709z M32.253,82.711h1.303
			c0.488,0,0.912-0.032,1.351-0.264c0.768-0.392,0.959-1.375,0.959-2.159c0-0.84-0.184-1.759-0.991-2.191
			c-0.344-0.184-0.84-0.216-1.319-0.216h-1.303V82.711z"/>
	</g>
	<g>
		<path d="M26.469,125.915v2.615h-0.544v-5.757h2.255c1.263,0,1.959,0.448,1.959,1.511c0,0.728-0.272,1.111-0.936,1.407
			c0.68,0.232,0.72,0.952,0.735,1.559c0.024,0.872,0.096,1.111,0.24,1.223v0.056h-0.6c-0.224-0.392-0.167-1.471-0.256-1.911
			c-0.128-0.624-0.6-0.704-1.143-0.704H26.469z M28.164,125.451c0.808,0,1.431-0.336,1.431-1.144c0-0.863-0.671-1.071-1.399-1.071
			h-1.727v2.215H28.164z"/>
	</g>
	<g>
		<path d="M25.933,173.884v-5.757h0.544v5.293h3.086v0.464H25.933z"/>
		<path d="M30.381,173.884v-5.757h1.967c0.64,0,1.239,0.04,1.775,0.432c0.76,0.552,0.959,1.671,0.959,2.439
			c0,0.759-0.168,1.607-0.696,2.183c-0.527,0.592-1.279,0.704-2.039,0.704H30.381z M30.925,173.42h1.303
			c0.488,0,0.912-0.032,1.351-0.264c0.768-0.392,0.959-1.375,0.959-2.159c0-0.84-0.184-1.759-0.991-2.191
			c-0.344-0.184-0.839-0.216-1.319-0.216h-1.303V173.42z"/>
	</g>
	<g>
		<path d="M30.019,305.861c-0.224-0.983-0.832-1.359-1.815-1.359c-1.391,0-1.991,1.191-1.991,2.55c0,1.288,0.472,2.583,2.039,2.583
			c0.992,0,1.607-0.671,1.823-1.583h0.567c-0.256,1.111-0.951,2.047-2.495,2.047c-1.775,0-2.479-1.399-2.479-3.03
			c0-2.199,1.151-3.03,2.679-3.03c1.183,0,2.047,0.631,2.23,1.823H30.019z"/>
		<path d="M31.205,304.19h0.567l1.735,5.117l1.727-5.117h0.567l-1.999,5.757h-0.6L31.205,304.19z"/>
	</g>
	<g>
		<path d="M85.712,305.758h-1.455v-0.336c0.855-0.056,1.391-0.144,1.559-1.111h0.408v5.637h-0.512V305.758z"/>
	</g>
	<g>
		<path d="M105.109,306.157c0-1.111,0.72-1.847,1.831-1.847c1.135,0,1.735,0.695,1.735,1.559c0,1.495-1.615,1.871-2.455,2.51
			c-0.368,0.28-0.711,0.6-0.736,1.136h3.143v0.432h-3.686c0.008-0.536,0.08-0.959,0.44-1.375c1.175-1.359,2.734-1.344,2.734-2.671
			c0-0.735-0.544-1.159-1.239-1.159c-0.736,0-1.255,0.656-1.224,1.415H105.109z"/>
	</g>
	<g>
		<path d="M145.301,306.813c0.951,0.008,1.615-0.216,1.615-1.08c0-0.695-0.552-0.991-1.2-0.991c-0.719,0-1.207,0.504-1.207,1.207
			h-0.512c0-0.503,0.168-0.911,0.543-1.263c0.352-0.32,0.815-0.375,1.279-0.375c0.888,0,1.607,0.448,1.607,1.391
			c0,0.583-0.256,1.023-0.8,1.255c0.815,0.256,1,0.872,1,1.391c0,0.927-0.656,1.679-1.815,1.711c-1.303,0-1.887-0.432-2.007-1.743
			h0.512c0,0.855,0.567,1.311,1.399,1.311c0.816,0,1.431-0.608,1.399-1.271c-0.032-0.911-0.824-1.199-1.815-1.127V306.813z"/>
	</g>
	<g>
		<path d="M183.062,306.157c0-1.111,0.72-1.847,1.831-1.847c1.135,0,1.735,0.695,1.735,1.559c0,1.495-1.615,1.871-2.455,2.51
			c-0.368,0.28-0.711,0.6-0.736,1.136h3.143v0.432h-3.686c0.008-0.536,0.08-0.959,0.44-1.375c1.175-1.359,2.734-1.344,2.734-2.671
			c0-0.735-0.544-1.159-1.239-1.159c-0.736,0-1.255,0.656-1.224,1.415H183.062z"/>
	</g>
	<g>
		<path d="M206.184,305.758h-1.455v-0.336c0.855-0.056,1.391-0.144,1.559-1.111h0.408v5.637h-0.512V305.758z"/>
	</g>
	<g>
		<path d="M229.156,307.229c0,1.496-0.352,2.831-1.903,2.831c-1.559,0-1.911-1.327-1.911-2.886c0-1.423,0.288-2.862,1.911-2.862
			C228.924,304.311,229.156,305.917,229.156,307.229z M227.237,304.742c-1.119,0-1.383,1.239-1.383,2.486
			c0,1.447,0.32,2.399,1.399,2.399c1.215,0,1.391-1.319,1.391-2.455C228.644,305.958,228.428,304.742,227.237,304.742z"/>
	</g>
	<g>
		<path d="M248.057,306.813c0.951,0.008,1.615-0.216,1.615-1.08c0-0.695-0.552-0.991-1.2-0.991c-0.719,0-1.207,0.504-1.207,1.207
			h-0.512c0-0.503,0.168-0.911,0.543-1.263c0.352-0.32,0.815-0.375,1.279-0.375c0.888,0,1.607,0.448,1.607,1.391
			c0,0.583-0.256,1.023-0.8,1.255c0.815,0.256,1,0.872,1,1.391c0,0.927-0.656,1.679-1.815,1.711c-1.303,0-1.887-0.432-2.007-1.743
			h0.512c0,0.855,0.567,1.311,1.399,1.311c0.816,0,1.431-0.608,1.399-1.271c-0.032-0.911-0.824-1.199-1.815-1.127V306.813z"/>
	</g>
	<g>
		<path d="M271.675,307.229c0,1.496-0.352,2.831-1.903,2.831c-1.559,0-1.911-1.327-1.911-2.886c0-1.423,0.288-2.862,1.911-2.862
			C271.444,304.311,271.675,305.917,271.675,307.229z M269.756,304.742c-1.119,0-1.383,1.239-1.383,2.486
			c0,1.447,0.32,2.399,1.399,2.399c1.215,0,1.391-1.319,1.391-2.455C271.163,305.958,270.948,304.742,269.756,304.742z"/>
	</g>
	<g>
		<path d="M310.652,307.229c0,1.496-0.352,2.831-1.903,2.831c-1.559,0-1.911-1.327-1.911-2.886c0-1.423,0.288-2.862,1.911-2.862
			C310.42,304.311,310.652,305.917,310.652,307.229z M308.733,304.742c-1.119,0-1.383,1.239-1.383,2.486
			c0,1.447,0.32,2.399,1.399,2.399c1.215,0,1.391-1.319,1.391-2.455C310.14,305.958,309.924,304.742,308.733,304.742z"/>
	</g>
	<g>
		<path d="M69.706,307.229c0,1.496-0.352,2.831-1.903,2.831c-1.559,0-1.911-1.327-1.911-2.886c0-1.423,0.288-2.862,1.911-2.862
			C69.475,304.311,69.706,305.917,69.706,307.229z M67.787,304.742c-1.119,0-1.383,1.239-1.383,2.486
			c0,1.447,0.32,2.399,1.399,2.399c1.215,0,1.391-1.319,1.391-2.455C69.195,305.958,68.979,304.742,67.787,304.742z"/>
	</g>
	<g>
		<path class="st2" d="M71.259,0.731c-0.76,1.104-1.223,2.398-1.223,3.742c0,1.328,0.487,2.599,1.223,3.694h-0.408
			c-0.88-1.215-1.367-2.215-1.367-3.734c0-1.463,0.503-2.551,1.367-3.702H71.259z"/>
		<path class="st2" d="M75.082,2.45h-1.455V2.115c0.855-0.056,1.391-0.144,1.559-1.111h0.408V6.64h-0.512V2.45z"/>
		<path class="st2" d="M78.523,8.167c0.76-1.104,1.223-2.399,1.223-3.742c0-1.327-0.487-2.599-1.223-3.694h0.408
			c0.879,1.215,1.367,2.215,1.367,3.734c0,1.463-0.503,2.551-1.367,3.702H78.523z"/>
	</g>
	<g>
		<path class="st2" d="M114.739,0.731c-0.76,1.104-1.224,2.398-1.224,3.742c0,1.328,0.488,2.599,1.224,3.694h-0.408
			c-0.879-1.215-1.367-2.215-1.367-3.734c0-1.463,0.503-2.551,1.367-3.702H114.739z"/>
		<path class="st2" d="M115.74,2.85c0-1.111,0.72-1.847,1.831-1.847c1.135,0,1.735,0.695,1.735,1.559
			c0,1.495-1.615,1.871-2.455,2.511c-0.368,0.28-0.711,0.6-0.735,1.135h3.142V6.64h-3.686c0.008-0.536,0.08-0.959,0.44-1.375
			c1.175-1.359,2.734-1.343,2.734-2.67c0-0.735-0.544-1.159-1.239-1.159c-0.736,0-1.255,0.656-1.224,1.415H115.74z"/>
		<path class="st2" d="M120.084,8.167c0.76-1.104,1.223-2.399,1.223-3.742c0-1.327-0.487-2.599-1.223-3.694h0.408
			c0.879,1.215,1.367,2.215,1.367,3.734c0,1.463-0.503,2.551-1.367,3.702H120.084z"/>
	</g>
	<g>
		<path class="st2" d="M171.431,0.731c-0.76,1.104-1.224,2.398-1.224,3.742c0,1.328,0.488,2.599,1.224,3.694h-0.408
			c-0.879-1.215-1.367-2.215-1.367-3.734c0-1.463,0.503-2.551,1.367-3.702H171.431z"/>
		<path class="st2" d="M173.647,3.506c0.952,0.008,1.615-0.216,1.615-1.08c0-0.695-0.552-0.991-1.2-0.991
			c-0.719,0-1.207,0.503-1.207,1.208h-0.512c0-0.504,0.168-0.912,0.543-1.264c0.352-0.32,0.816-0.375,1.279-0.375
			c0.888,0,1.607,0.448,1.607,1.391c0,0.583-0.256,1.023-0.8,1.255c0.815,0.256,1,0.872,1,1.391c0,0.928-0.656,1.679-1.815,1.711
			c-1.303,0-1.887-0.432-2.007-1.743h0.512c0,0.856,0.567,1.312,1.399,1.312c0.816,0,1.432-0.607,1.399-1.271
			c-0.032-0.911-0.824-1.199-1.815-1.127V3.506z"/>
		<path class="st2" d="M176.776,8.167c0.76-1.104,1.223-2.399,1.223-3.742c0-1.327-0.487-2.599-1.223-3.694h0.408
			c0.879,1.215,1.367,2.215,1.367,3.734c0,1.463-0.503,2.551-1.367,3.702H176.776z"/>
	</g>
	<g>
		<path class="st2" d="M213.95,0.731c-0.76,1.104-1.224,2.398-1.224,3.742c0,1.328,0.488,2.599,1.224,3.694h-0.408
			c-0.879-1.215-1.367-2.215-1.367-3.734c0-1.463,0.503-2.551,1.367-3.702H213.95z"/>
		<path class="st2" d="M217.262,5.249h-2.574v-0.44l2.622-3.75h0.464v3.758h0.784v0.432h-0.784V6.64h-0.512V5.249z M215.191,4.817
			h2.071V1.827L215.191,4.817z"/>
		<path class="st2" d="M219.296,8.167c0.76-1.104,1.223-2.399,1.223-3.742c0-1.327-0.487-2.599-1.223-3.694h0.408
			c0.879,1.215,1.367,2.215,1.367,3.734c0,1.463-0.503,2.551-1.367,3.702H219.296z"/>
	</g>
	<g>
		<path class="st2" d="M235.211,0.731c-0.76,1.104-1.224,2.398-1.224,3.742c0,1.328,0.488,2.599,1.224,3.694h-0.408
			c-0.879-1.215-1.367-2.215-1.367-3.734c0-1.463,0.503-2.551,1.367-3.702H235.211z"/>
		<path class="st2" d="M236.452,5.177c0.104,0.76,0.656,1.144,1.391,1.144c0.84,0,1.352-0.64,1.352-1.439
			c0-0.839-0.544-1.431-1.399-1.431c-0.504,0-0.912,0.176-1.223,0.584l-0.424-0.056l0.456-2.918h2.799v0.432h-2.367l-0.352,1.895
			c0.44-0.288,0.728-0.368,1.239-0.368c1.031,0,1.783,0.704,1.783,1.863c0,1.184-0.855,1.871-1.783,1.871
			c-1.063,0-1.895-0.408-1.983-1.575H236.452z"/>
		<path class="st2" d="M240.556,8.167c0.76-1.104,1.223-2.399,1.223-3.742c0-1.327-0.487-2.599-1.223-3.694h0.408
			c0.879,1.215,1.367,2.215,1.367,3.734c0,1.463-0.503,2.551-1.367,3.702H240.556z"/>
	</g>
	<g>
		<path class="st2" d="M256.471,0.731c-0.76,1.104-1.224,2.398-1.224,3.742c0,1.328,0.488,2.599,1.224,3.694h-0.408
			c-0.879-1.215-1.367-2.215-1.367-3.734c0-1.463,0.503-2.551,1.367-3.702H256.471z"/>
		<path class="st2" d="M260.414,2.387c-0.112-0.576-0.472-0.952-1.071-0.952c-1.383,0-1.503,1.487-1.583,2.55
			c0.32-0.432,0.656-0.879,1.479-0.879c1.135,0,1.791,0.688,1.791,1.815c0,1.136-0.664,1.831-1.807,1.831
			c-1.127,0-1.975-0.704-1.975-2.694c0-1.335,0.392-3.054,2.047-3.054c0.888,0,1.543,0.479,1.647,1.383H260.414z M257.951,4.937
			c0,0.632,0.352,1.383,1.279,1.383c0.952,0,1.288-0.735,1.288-1.415c0-0.872-0.416-1.367-1.295-1.367
			C258.431,3.538,257.951,4.178,257.951,4.937z"/>
		<path class="st2" d="M261.816,8.167c0.76-1.104,1.223-2.399,1.223-3.742c0-1.327-0.487-2.599-1.223-3.694h0.408
			c0.879,1.215,1.367,2.215,1.367,3.734c0,1.463-0.503,2.551-1.367,3.702H261.816z"/>
	</g>
	<g>
		<path class="st2" d="M277.731,0.731c-0.76,1.104-1.224,2.398-1.224,3.742c0,1.328,0.488,2.599,1.224,3.694h-0.408
			c-0.879-1.215-1.367-2.215-1.367-3.734c0-1.463,0.503-2.551,1.367-3.702H277.731z"/>
		<path class="st2" d="M278.652,1.059h3.59v0.48c-1.615,1.823-2.223,3.998-2.287,5.101h-0.56c0.112-1.631,1.151-3.742,2.231-5.069
			h-2.975V1.059z"/>
		<path class="st2" d="M283.076,8.167c0.76-1.104,1.223-2.399,1.223-3.742c0-1.327-0.487-2.599-1.223-3.694h0.408
			c0.879,1.215,1.367,2.215,1.367,3.734c0,1.463-0.503,2.551-1.367,3.702H283.076z"/>
	</g>
	<g>
	</g>
	<g>
	</g>
	<g>
	</g>
	<g>
	</g>
	<g>
	</g>
	<g>
	</g>
	<g>
	</g>
	<g>
	</g>
	<g>
	</g>
	<g>
	</g>
	<g>
	</g>
	<g>
	</g>
	<g>
	</g>
	<g>
	</g>
	<g>
	</g>
</g>
</svg>
