<?xml version="1.0" encoding="utf-8"?>
<!-- Generator: Adobe Illustrator 28.0.0, SVG Export Plug-In . SVG Version: 6.00 Build 0)  -->
<svg version="1.1" id="レイヤー_1" xmlns="http://www.w3.org/2000/svg" xmlns:xlink="http://www.w3.org/1999/xlink" x="0px"
	 y="0px" width="42.4px" height="12.8px" viewBox="0 0 42.4 12.8" style="enable-background:new 0 0 42.4 12.8;"
	 xml:space="preserve">
<style type="text/css">
	.st0{fill:#E60012;}
	.st1{fill:#231815;}
	.st2{fill:#FFFFFF;}
	.st3{fill:none;stroke:#FFFFFF;}
	.st4{fill:none;}
</style>
<g>
	<g>
		<g>
			<rect x="0.25" y="0.25" class="st0" width="41.9" height="12.3"/>
			<path class="st1" d="M41.9,0.5v11.8H0.5V0.5H41.9 M42.4,0H0v12.8h42.4V0L42.4,0z"/>
		</g>
		<g>
			<g>
				<path class="st2" d="M3.315,10.992c-0.78,0-1.098-0.552-0.709-1.227l3.885-6.729c0.39-0.675,1.028-0.675,1.417,0l3.886,6.73
					c0.39,0.675,0.071,1.227-0.709,1.227H3.315z"/>
				<path class="st3" d="M3.315,10.992c-0.78,0-1.098-0.552-0.709-1.227l3.885-6.729c0.39-0.675,1.028-0.675,1.417,0l3.886,6.73
					c0.39,0.675,0.071,1.227-0.709,1.227H3.315z"/>
			</g>
			<g>
				<circle class="st0" cx="7.2" cy="9.815" r="0.701"/>
				<path class="st0" d="M7.705,8.509C7.672,8.717,7.464,8.877,7.212,8.877c-0.275,0-0.498-0.191-0.498-0.427L6.247,4.885
					c-0.005-0.03-0.009-0.062-0.009-0.094c0-0.38,0.43-0.688,0.962-0.688s0.962,0.308,0.962,0.688c0,0.034-0.002,0.066-0.009,0.098
					L7.705,8.509z"/>
			</g>
		</g>
	</g>
	<g>
		<rect x="14.725" y="2.589" class="st4" width="25.782" height="7.623"/>
		<path class="st2" d="M20.989,2.797c0.218,0.104,0.487,0.19,0.809,0.26c-0.228,0.148-0.396,0.302-0.504,0.46
			c-0.025,0.03-0.045,0.055-0.06,0.074h2.138c0.256,0,0.512-0.01,0.764-0.03c-0.123,0.124-0.23,0.265-0.318,0.423l-0.535,0.824
			h1.209c0.238,0,0.477-0.007,0.713-0.022c-0.02,0.104-0.029,0.213-0.029,0.327c0,0.104,0.01,0.213,0.029,0.327
			c-0.236-0.02-0.475-0.03-0.713-0.03h-3.97v1.247c-0.025,0.583-0.131,1.13-0.319,1.64c-0.139,0.416-0.448,0.928-0.928,1.537
			c-0.203-0.174-0.453-0.272-0.75-0.297c0.445-0.421,0.774-0.842,0.987-1.262c0.237-0.564,0.356-1.104,0.356-1.618V5.618
			c0-0.188-0.012-0.371-0.037-0.549c-0.188,0.168-0.383,0.329-0.586,0.482c-0.153-0.168-0.361-0.314-0.623-0.438
			c0.692-0.386,1.237-0.789,1.633-1.21C20.6,3.542,20.845,3.173,20.989,2.797z M20.128,4.801c0.153,0.005,0.304,0.007,0.453,0.007
			h1.975l0.549-0.705h-2.286C20.605,4.346,20.375,4.579,20.128,4.801z M24.321,5.907c-0.074,0.327-0.113,0.628-0.119,0.906
			l-0.051,0.832c-0.016,0.237-0.082,0.408-0.201,0.512c-0.148,0.119-0.529,0.223-1.143,0.312c-0.045-0.262-0.135-0.522-0.268-0.779
			h0.408c0.174,0,0.314-0.026,0.424-0.081c0.107-0.055,0.162-0.131,0.162-0.23l0.098-0.846h-1.863v2.434
			c0,0.144,0.086,0.216,0.26,0.216h1.93c0.143,0,0.252-0.025,0.326-0.074c0.068-0.045,0.148-0.316,0.238-0.816
			c0.158,0.144,0.385,0.27,0.682,0.378c-0.158,0.529-0.301,0.856-0.43,0.98c-0.08,0.084-0.23,0.126-0.453,0.126h-2.523
			c-0.46,0-0.69-0.142-0.69-0.423V6.738c0-0.272-0.01-0.549-0.03-0.832c0.252,0.025,0.502,0.037,0.749,0.037H23.6
			C23.839,5.944,24.079,5.932,24.321,5.907z"/>
		<path class="st2" d="M30.051,3.354c0.247,0.024,0.492,0.037,0.735,0.037h0.809c0.287,0,0.571-0.013,0.854-0.037
			c-0.099,0.212-0.396,1.014-0.891,2.404c0.431,0.658,0.65,1.203,0.66,1.633c0,0.392-0.086,0.679-0.26,0.861
			c-0.207,0.223-0.507,0.334-0.897,0.334c0-0.242-0.092-0.503-0.274-0.779c0.217,0.063,0.365,0.097,0.445,0.097
			c0.242,0,0.363-0.171,0.363-0.513c0-0.391-0.221-0.915-0.66-1.573c0.212-0.604,0.42-1.257,0.623-1.959h-0.854v4.869
			c0,0.356,0.01,0.715,0.029,1.076c-0.123-0.02-0.242-0.029-0.355-0.029c-0.114,0-0.223,0.01-0.327,0.029
			c0.02-0.361,0.03-0.72,0.03-1.076v-4.75C30.081,3.77,30.07,3.562,30.051,3.354z M33.881,2.938
			c0.192,0.109,0.428,0.201,0.705,0.275c-0.05,0.044-0.092,0.086-0.126,0.126c0.173,0.436,0.43,0.794,0.771,1.076
			c0.391,0.327,0.928,0.586,1.61,0.779c-0.242,0.193-0.408,0.421-0.497,0.683c-0.307-0.178-0.576-0.354-0.809-0.527
			c-0.016,0.089-0.022,0.178-0.022,0.268c0,0.094,0.007,0.19,0.022,0.289c-0.129-0.02-0.255-0.029-0.379-0.029h-1.729
			c-0.124,0-0.252,0.01-0.386,0.029c0.02-0.099,0.029-0.195,0.029-0.289c0-0.079-0.005-0.148-0.015-0.208
			c-0.218,0.272-0.447,0.537-0.69,0.794c-0.139-0.158-0.329-0.297-0.571-0.416c0.608-0.465,1.086-0.958,1.433-1.477
			C33.534,3.866,33.752,3.408,33.881,2.938z M35.239,6.145c0.297,0.168,0.557,0.277,0.779,0.327
			c-0.317,0.445-0.681,1.286-1.092,2.523h0.468c0.321,0,0.648-0.02,0.979-0.06c-0.02,0.124-0.029,0.242-0.029,0.356
			c0,0.113,0.01,0.223,0.029,0.326c-0.331-0.039-0.658-0.06-0.979-0.06H32.99c-0.332,0-0.658,0.021-0.979,0.06
			c0.02-0.104,0.029-0.213,0.029-0.326c0-0.114-0.01-0.232-0.029-0.356c0.321,0.04,0.647,0.06,0.979,0.06h1.47
			C34.82,7.985,35.08,7.035,35.239,6.145z M33.071,6.442l0.453,1.848c-0.208,0.02-0.396,0.057-0.564,0.111
			c-0.108-0.767-0.237-1.391-0.386-1.871C32.722,6.525,32.888,6.496,33.071,6.442z M33.116,5.328
			c0.108,0.015,0.213,0.022,0.312,0.022h1.729c0.113,0,0.228-0.007,0.342-0.022c-0.303-0.223-0.542-0.436-0.721-0.638
			c-0.252-0.272-0.452-0.594-0.601-0.965c-0.01,0.015-0.018,0.027-0.022,0.037C33.853,4.311,33.507,4.834,33.116,5.328z
			 M34.147,6.204l0.416,1.87c-0.208,0.025-0.398,0.067-0.571,0.127c-0.095-0.787-0.213-1.42-0.356-1.9
			C33.789,6.296,33.96,6.263,34.147,6.204z"/>
	</g>
</g>
<g>
</g>
</svg>
