<?xml version="1.0" encoding="utf-8"?>
<!-- Generator: Adobe Illustrator 28.2.0, SVG Export Plug-In . SVG Version: 6.00 Build 0)  -->
<svg version="1.1" xmlns="http://www.w3.org/2000/svg" xmlns:xlink="http://www.w3.org/1999/xlink" x="0px" y="0px"
	 width="180.327px" height="110.35px" viewBox="0 0 180.327 110.35" style="enable-background:new 0 0 180.327 110.35;"
	 xml:space="preserve">
<style type="text/css">
	.st0{fill:none;stroke:#000000;stroke-width:0.5;stroke-miterlimit:10;}
	.st1{fill:none;stroke:#FF0000;stroke-width:1.5;stroke-miterlimit:10;}
</style>
<g id="レイヤー_1">
	<rect x="0.75" y="0.5" class="st0" width="113.386" height="108.85"/>
	<line class="st0" x1="0.75" y1="18.642" x2="114.136" y2="18.642"/>
	<line class="st0" x1="0.75" y1="36.783" x2="114.136" y2="36.783"/>
	<line class="st0" x1="0.75" y1="54.925" x2="114.136" y2="54.925"/>
	<line class="st0" x1="0.75" y1="73.067" x2="114.136" y2="73.067"/>
	<line class="st0" x1="0.75" y1="91.209" x2="114.136" y2="91.209"/>
	<line class="st0" x1="57.443" y1="109.35" x2="57.443" y2="0.5"/>
	<rect x="0.75" y="18.642" class="st1" width="113.386" height="18.142"/>
	<rect x="0.75" y="54.925" class="st1" width="113.386" height="18.142"/>
	<rect x="0.75" y="91.209" class="st1" width="113.386" height="18.142"/>
	<g>
		<path class="st0" d="M121.168,0.25c3.339,0,3.339,23.801,3.339,27.463s0,27.463,3.339,27.463c-3.339,0-3.339,23.801-3.339,27.463
			s0,27.463-3.339,27.463"/>
	</g>
</g>
<g id="レイヤー_2">
	<g>
		<path d="M6.95,12.467L9.212,6.71h0.616l2.207,5.757h-0.56l-0.664-1.807H8.189l-0.68,1.807H6.95z M8.372,10.196h2.255L9.5,7.174
			L8.372,10.196z"/>
		<path d="M13.245,12.467h-0.48V8.325h0.48V9.1h0.016c0.264-0.664,0.656-0.888,1.352-0.888v0.52
			c-1.08-0.024-1.367,0.775-1.367,1.703V12.467z"/>
		<path d="M15.909,12.467h-0.48V8.325h0.48V9.1h0.016c0.264-0.664,0.656-0.888,1.352-0.888v0.52
			c-1.08-0.024-1.367,0.775-1.367,1.703V12.467z"/>
		<path d="M18.365,10.747c0.088,1.032,0.775,1.407,1.655,1.407c1.032,0,1.463-0.56,1.463-1.191c0-1.783-3.51-0.6-3.51-2.863
			c0-0.799,0.664-1.543,1.951-1.543c1.295,0,1.943,0.784,1.935,1.719h-0.52c0-0.88-0.68-1.255-1.415-1.255
			c-1.104,0-1.503,0.679-1.407,1.271c0.248,1.487,3.51,0.416,3.51,2.646c0,1.056-0.776,1.679-2.103,1.679
			c-1.199,0-2.087-0.624-2.087-1.871H18.365z"/>
		<path d="M23.461,12.467h-0.48V8.325h0.48V9.1h0.016c0.264-0.664,0.656-0.888,1.352-0.888v0.52
			c-1.08-0.024-1.367,0.775-1.367,1.703V12.467z"/>
		<path d="M28.556,9.628c-0.168-0.616-0.592-0.983-1.231-0.983c-0.983,0-1.391,0.896-1.391,1.759c0,0.872,0.399,1.743,1.391,1.743
			c0.711,0,1.159-0.424,1.271-1.111h0.512c-0.167,0.919-0.743,1.543-1.783,1.543c-1.319,0-1.903-0.951-1.903-2.175
			c0-1.151,0.664-2.191,1.903-2.191c0.952,0,1.575,0.456,1.719,1.416H28.556z"/>
		<path d="M30.221,13.994V6.558h1.527v0.4h-1.016v6.636h1v0.4H30.221z"/>
		<path d="M36.284,9.748c0,1.496-0.352,2.831-1.903,2.831c-1.559,0-1.911-1.327-1.911-2.886c0-1.423,0.288-2.862,1.911-2.862
			C36.052,6.83,36.284,8.437,36.284,9.748z M34.365,7.262c-1.12,0-1.383,1.239-1.383,2.486c0,1.447,0.32,2.399,1.399,2.399
			c1.215,0,1.392-1.319,1.392-2.455C35.772,8.477,35.556,7.262,34.365,7.262z"/>
		<path d="M38.541,13.994h-1.527v-0.4h1.016V6.958h-1v-0.4h1.511V13.994z"/>
	</g>
	<g>
		<path d="M6.95,30.315l2.263-5.757h0.616l2.207,5.757h-0.56l-0.664-1.807H8.189l-0.68,1.807H6.95z M8.372,28.045h2.255L9.5,25.022
			L8.372,28.045z"/>
		<path d="M13.245,30.315h-0.48v-4.142h0.48v0.775h0.016c0.264-0.664,0.656-0.888,1.352-0.888v0.52
			c-1.08-0.024-1.367,0.775-1.367,1.703V30.315z"/>
		<path d="M15.909,30.315h-0.48v-4.142h0.48v0.775h0.016c0.264-0.664,0.656-0.888,1.352-0.888v0.52
			c-1.08-0.024-1.367,0.775-1.367,1.703V30.315z"/>
		<path d="M18.365,28.596c0.088,1.032,0.775,1.407,1.655,1.407c1.032,0,1.463-0.56,1.463-1.191c0-1.783-3.51-0.6-3.51-2.863
			c0-0.799,0.664-1.543,1.951-1.543c1.295,0,1.943,0.784,1.935,1.719h-0.52c0-0.88-0.68-1.255-1.415-1.255
			c-1.104,0-1.503,0.679-1.407,1.271c0.248,1.487,3.51,0.416,3.51,2.646c0,1.056-0.776,1.679-2.103,1.679
			c-1.199,0-2.087-0.624-2.087-1.871H18.365z"/>
		<path d="M23.461,30.315h-0.48v-4.142h0.48v0.775h0.016c0.264-0.664,0.656-0.888,1.352-0.888v0.52
			c-1.08-0.024-1.367,0.775-1.367,1.703V30.315z"/>
		<path d="M28.556,27.477c-0.168-0.616-0.592-0.983-1.231-0.983c-0.983,0-1.391,0.896-1.391,1.759c0,0.872,0.399,1.743,1.391,1.743
			c0.711,0,1.159-0.424,1.271-1.111h0.512c-0.167,0.919-0.743,1.543-1.783,1.543c-1.319,0-1.903-0.951-1.903-2.175
			c0-1.151,0.664-2.191,1.903-2.191c0.952,0,1.575,0.456,1.719,1.416H28.556z"/>
		<path d="M30.221,31.843v-7.436h1.527v0.4h-1.016v6.636h1v0.4H30.221z"/>
		<path d="M34.572,26.126h-1.455V25.79c0.855-0.056,1.391-0.144,1.559-1.111h0.408v5.637h-0.512V26.126z"/>
		<path d="M38.541,31.843h-1.527v-0.4h1.016v-6.636h-1v-0.4h1.511V31.843z"/>
	</g>
	<g>
		<path d="M6.95,48.449l2.263-5.757h0.616l2.207,5.757h-0.56l-0.664-1.807H8.189l-0.68,1.807H6.95z M8.372,46.178h2.255L9.5,43.156
			L8.372,46.178z"/>
		<path d="M13.245,48.449h-0.48v-4.142h0.48v0.775h0.016c0.264-0.664,0.656-0.888,1.352-0.888v0.52
			c-1.08-0.024-1.367,0.775-1.367,1.703V48.449z"/>
		<path d="M15.909,48.449h-0.48v-4.142h0.48v0.775h0.016c0.264-0.664,0.656-0.888,1.352-0.888v0.52
			c-1.08-0.024-1.367,0.775-1.367,1.703V48.449z"/>
		<path d="M18.365,46.729c0.088,1.032,0.775,1.407,1.655,1.407c1.032,0,1.463-0.56,1.463-1.191c0-1.783-3.51-0.6-3.51-2.863
			c0-0.799,0.664-1.543,1.951-1.543c1.295,0,1.943,0.784,1.935,1.719h-0.52c0-0.88-0.68-1.255-1.415-1.255
			c-1.104,0-1.503,0.679-1.407,1.271c0.248,1.487,3.51,0.416,3.51,2.646c0,1.056-0.776,1.679-2.103,1.679
			c-1.199,0-2.087-0.624-2.087-1.871H18.365z"/>
		<path d="M23.461,48.449h-0.48v-4.142h0.48v0.775h0.016c0.264-0.664,0.656-0.888,1.352-0.888v0.52
			c-1.08-0.024-1.367,0.775-1.367,1.703V48.449z"/>
		<path d="M28.556,45.61c-0.168-0.616-0.592-0.983-1.231-0.983c-0.983,0-1.391,0.896-1.391,1.759c0,0.872,0.399,1.743,1.391,1.743
			c0.711,0,1.159-0.424,1.271-1.111h0.512c-0.167,0.919-0.743,1.543-1.783,1.543c-1.319,0-1.903-0.951-1.903-2.175
			c0-1.151,0.664-2.191,1.903-2.191c0.952,0,1.575,0.456,1.719,1.416H28.556z"/>
		<path d="M30.221,49.976V42.54h1.527v0.4h-1.016v6.636h1v0.4H30.221z"/>
		<path d="M32.709,44.659c0-1.111,0.72-1.847,1.831-1.847c1.135,0,1.735,0.695,1.735,1.559c0,1.495-1.615,1.871-2.455,2.51
			c-0.368,0.28-0.711,0.6-0.735,1.136h3.142v0.432h-3.686c0.008-0.536,0.08-0.959,0.44-1.375c1.175-1.359,2.734-1.344,2.734-2.671
			c0-0.735-0.544-1.159-1.239-1.159c-0.736,0-1.255,0.656-1.224,1.415H32.709z"/>
		<path d="M38.541,49.976h-1.527v-0.4h1.016V42.94h-1v-0.4h1.511V49.976z"/>
	</g>
	<g>
		<path d="M6.95,66.864l2.263-5.757h0.616l2.207,5.757h-0.56l-0.664-1.807H8.189l-0.68,1.807H6.95z M8.372,64.594h2.255L9.5,61.571
			L8.372,64.594z"/>
		<path d="M13.245,66.864h-0.48v-4.142h0.48v0.775h0.016c0.264-0.664,0.656-0.888,1.352-0.888v0.52
			c-1.08-0.024-1.367,0.775-1.367,1.703V66.864z"/>
		<path d="M15.909,66.864h-0.48v-4.142h0.48v0.775h0.016c0.264-0.664,0.656-0.888,1.352-0.888v0.52
			c-1.08-0.024-1.367,0.775-1.367,1.703V66.864z"/>
		<path d="M18.365,65.145c0.088,1.032,0.775,1.407,1.655,1.407c1.032,0,1.463-0.56,1.463-1.191c0-1.783-3.51-0.6-3.51-2.863
			c0-0.799,0.664-1.543,1.951-1.543c1.295,0,1.943,0.784,1.935,1.719h-0.52c0-0.88-0.68-1.255-1.415-1.255
			c-1.104,0-1.503,0.679-1.407,1.271c0.248,1.487,3.51,0.416,3.51,2.646c0,1.056-0.776,1.679-2.103,1.679
			c-1.199,0-2.087-0.624-2.087-1.871H18.365z"/>
		<path d="M23.461,66.864h-0.48v-4.142h0.48v0.775h0.016c0.264-0.664,0.656-0.888,1.352-0.888v0.52
			c-1.08-0.024-1.367,0.775-1.367,1.703V66.864z"/>
		<path d="M28.556,64.026c-0.168-0.616-0.592-0.983-1.231-0.983c-0.983,0-1.391,0.896-1.391,1.759c0,0.872,0.399,1.743,1.391,1.743
			c0.711,0,1.159-0.424,1.271-1.111h0.512c-0.167,0.919-0.743,1.543-1.783,1.543c-1.319,0-1.903-0.951-1.903-2.175
			c0-1.151,0.664-2.191,1.903-2.191c0.952,0,1.575,0.456,1.719,1.416H28.556z"/>
		<path d="M30.221,68.391v-7.436h1.527v0.4h-1.016v6.636h1v0.4H30.221z"/>
		<path d="M33.925,63.73c0.952,0.008,1.615-0.216,1.615-1.08c0-0.695-0.552-0.991-1.2-0.991c-0.719,0-1.207,0.504-1.207,1.207
			h-0.512c0-0.503,0.168-0.911,0.543-1.263c0.352-0.32,0.816-0.375,1.279-0.375c0.888,0,1.607,0.448,1.607,1.391
			c0,0.583-0.256,1.023-0.8,1.255c0.815,0.256,1,0.872,1,1.391c0,0.927-0.656,1.679-1.815,1.711c-1.303,0-1.887-0.432-2.007-1.743
			h0.512c0,0.855,0.567,1.311,1.399,1.311c0.816,0,1.432-0.608,1.399-1.271c-0.032-0.911-0.824-1.199-1.815-1.127V63.73z"/>
		<path d="M38.541,68.391h-1.527v-0.4h1.016v-6.636h-1v-0.4h1.511V68.391z"/>
	</g>
	<g>
		<path d="M6.95,84.714l2.263-5.757h0.616l2.207,5.757h-0.56l-0.664-1.807H8.189l-0.68,1.807H6.95z M8.372,82.443h2.255L9.5,79.421
			L8.372,82.443z"/>
		<path d="M13.245,84.714h-0.48v-4.142h0.48v0.775h0.016c0.264-0.664,0.656-0.888,1.352-0.888v0.52
			c-1.08-0.024-1.367,0.775-1.367,1.703V84.714z"/>
		<path d="M15.909,84.714h-0.48v-4.142h0.48v0.775h0.016c0.264-0.664,0.656-0.888,1.352-0.888v0.52
			c-1.08-0.024-1.367,0.775-1.367,1.703V84.714z"/>
		<path d="M18.365,82.994c0.088,1.032,0.775,1.407,1.655,1.407c1.032,0,1.463-0.56,1.463-1.191c0-1.783-3.51-0.6-3.51-2.863
			c0-0.799,0.664-1.543,1.951-1.543c1.295,0,1.943,0.784,1.935,1.719h-0.52c0-0.88-0.68-1.255-1.415-1.255
			c-1.104,0-1.503,0.679-1.407,1.271c0.248,1.487,3.51,0.416,3.51,2.646c0,1.056-0.776,1.679-2.103,1.679
			c-1.199,0-2.087-0.624-2.087-1.871H18.365z"/>
		<path d="M23.461,84.714h-0.48v-4.142h0.48v0.775h0.016c0.264-0.664,0.656-0.888,1.352-0.888v0.52
			c-1.08-0.024-1.367,0.775-1.367,1.703V84.714z"/>
		<path d="M28.556,81.875c-0.168-0.616-0.592-0.983-1.231-0.983c-0.983,0-1.391,0.896-1.391,1.759c0,0.872,0.399,1.743,1.391,1.743
			c0.711,0,1.159-0.424,1.271-1.111h0.512c-0.167,0.919-0.743,1.543-1.783,1.543c-1.319,0-1.903-0.951-1.903-2.175
			c0-1.151,0.664-2.191,1.903-2.191c0.952,0,1.575,0.456,1.719,1.416H28.556z"/>
		<path d="M30.221,86.241v-7.436h1.527v0.4h-1.016v6.636h1v0.4H30.221z"/>
		<path d="M35.02,83.323h-2.574v-0.44l2.622-3.75h0.464v3.758h0.784v0.432h-0.784v1.391H35.02V83.323z M32.949,82.89h2.071V79.9
			L32.949,82.89z"/>
		<path d="M38.541,86.241h-1.527v-0.4h1.016v-6.636h-1v-0.4h1.511V86.241z"/>
	</g>
	<g>
		<path d="M6.95,103.129l2.263-5.757h0.616l2.207,5.757h-0.56l-0.664-1.807H8.189l-0.68,1.807H6.95z M8.372,100.859h2.255
			L9.5,97.836L8.372,100.859z"/>
		<path d="M13.245,103.129h-0.48v-4.142h0.48v0.775h0.016c0.264-0.664,0.656-0.888,1.352-0.888v0.52
			c-1.08-0.024-1.367,0.775-1.367,1.703V103.129z"/>
		<path d="M15.909,103.129h-0.48v-4.142h0.48v0.775h0.016c0.264-0.664,0.656-0.888,1.352-0.888v0.52
			c-1.08-0.024-1.367,0.775-1.367,1.703V103.129z"/>
		<path d="M18.365,101.41c0.088,1.032,0.775,1.407,1.655,1.407c1.032,0,1.463-0.56,1.463-1.191c0-1.783-3.51-0.6-3.51-2.863
			c0-0.799,0.664-1.543,1.951-1.543c1.295,0,1.943,0.784,1.935,1.719h-0.52c0-0.88-0.68-1.255-1.415-1.255
			c-1.104,0-1.503,0.679-1.407,1.271c0.248,1.487,3.51,0.416,3.51,2.646c0,1.056-0.776,1.679-2.103,1.679
			c-1.199,0-2.087-0.624-2.087-1.871H18.365z"/>
		<path d="M23.461,103.129h-0.48v-4.142h0.48v0.775h0.016c0.264-0.664,0.656-0.888,1.352-0.888v0.52
			c-1.08-0.024-1.367,0.775-1.367,1.703V103.129z"/>
		<path d="M28.556,100.291c-0.168-0.616-0.592-0.983-1.231-0.983c-0.983,0-1.391,0.896-1.391,1.759c0,0.872,0.399,1.743,1.391,1.743
			c0.711,0,1.159-0.424,1.271-1.111h0.512c-0.167,0.919-0.743,1.543-1.783,1.543c-1.319,0-1.903-0.951-1.903-2.175
			c0-1.151,0.664-2.191,1.903-2.191c0.952,0,1.575,0.456,1.719,1.416H28.556z"/>
		<path d="M30.221,104.657v-7.436h1.527v0.4h-1.016v6.636h1v0.4H30.221z"/>
		<path d="M32.949,101.666c0.104,0.76,0.656,1.144,1.391,1.144c0.84,0,1.352-0.64,1.352-1.439c0-0.84-0.544-1.432-1.399-1.432
			c-0.504,0-0.912,0.176-1.223,0.584l-0.424-0.056l0.456-2.918H35.9v0.432h-2.367l-0.352,1.895c0.44-0.288,0.728-0.368,1.239-0.368
			c1.031,0,1.783,0.704,1.783,1.863c0,1.183-0.855,1.871-1.783,1.871c-1.063,0-1.895-0.408-1.983-1.575H32.949z"/>
		<path d="M38.541,104.657h-1.527v-0.4h1.016V97.62h-1v-0.4h1.511V104.657z"/>
	</g>
	<g>
		<path d="M91.005,8.677c0-1.111,0.72-1.847,1.831-1.847c1.136,0,1.735,0.695,1.735,1.559c0,1.495-1.615,1.871-2.455,2.51
			c-0.368,0.28-0.712,0.6-0.735,1.136h3.142v0.432h-3.686c0.008-0.536,0.08-0.959,0.439-1.375c1.176-1.359,2.734-1.344,2.734-2.671
			c0-0.735-0.543-1.159-1.239-1.159c-0.735,0-1.255,0.656-1.223,1.415H91.005z"/>
		<path d="M96.668,9.332c0.952,0.008,1.615-0.216,1.615-1.08c0-0.695-0.552-0.991-1.199-0.991c-0.72,0-1.207,0.504-1.207,1.207
			h-0.512c0-0.503,0.168-0.911,0.544-1.263c0.352-0.32,0.815-0.375,1.279-0.375c0.887,0,1.606,0.448,1.606,1.391
			c0,0.583-0.256,1.023-0.799,1.255c0.815,0.256,0.999,0.872,0.999,1.391c0,0.927-0.655,1.679-1.815,1.711
			c-1.303,0-1.887-0.432-2.007-1.743h0.512c0,0.855,0.568,1.311,1.399,1.311c0.815,0,1.432-0.608,1.399-1.271
			c-0.032-0.911-0.823-1.199-1.815-1.127V9.332z"/>
		<path d="M102.212,11.076h-2.574v-0.44l2.622-3.75h0.464v3.758h0.783v0.432h-0.783v1.391h-0.512V11.076z M100.142,10.643h2.07
			v-2.99L100.142,10.643z"/>
		<path d="M104.59,11.003c0.104,0.76,0.655,1.144,1.391,1.144c0.84,0,1.352-0.64,1.352-1.439c0-0.84-0.544-1.432-1.399-1.432
			c-0.504,0-0.911,0.176-1.224,0.584l-0.424-0.056l0.456-2.918h2.799v0.432h-2.367l-0.352,1.895
			c0.439-0.288,0.728-0.368,1.239-0.368c1.031,0,1.783,0.704,1.783,1.863c0,1.183-0.855,1.871-1.783,1.871
			c-1.063,0-1.895-0.408-1.982-1.575H104.59z"/>
	</g>
	<g>
		<path d="M92.869,26.126h-1.455V25.79c0.855-0.056,1.391-0.144,1.559-1.111h0.408v5.637h-0.512V26.126z"/>
		<path d="M95.453,26.525c0-1.111,0.72-1.847,1.831-1.847c1.135,0,1.735,0.695,1.735,1.559c0,1.495-1.615,1.871-2.455,2.51
			c-0.368,0.28-0.712,0.6-0.735,1.136h3.142v0.432h-3.686c0.008-0.536,0.08-0.959,0.439-1.375c1.176-1.359,2.734-1.344,2.734-2.671
			c0-0.735-0.543-1.159-1.239-1.159c-0.735,0-1.255,0.656-1.223,1.415H95.453z"/>
		<path d="M101.117,27.181c0.952,0.008,1.615-0.216,1.615-1.08c0-0.695-0.552-0.991-1.199-0.991c-0.72,0-1.207,0.504-1.207,1.207
			h-0.512c0-0.503,0.168-0.911,0.544-1.263c0.352-0.32,0.815-0.375,1.279-0.375c0.887,0,1.606,0.448,1.606,1.391
			c0,0.583-0.256,1.023-0.799,1.255c0.815,0.256,0.999,0.872,0.999,1.391c0,0.927-0.655,1.679-1.815,1.711
			c-1.303,0-1.887-0.432-2.007-1.743h0.512c0,0.855,0.568,1.311,1.399,1.311c0.815,0,1.432-0.608,1.399-1.271
			c-0.032-0.911-0.823-1.199-1.815-1.127V27.181z"/>
		<path d="M106.66,28.924h-2.574v-0.44l2.622-3.75h0.464v3.758h0.784v0.432h-0.784v1.391h-0.512V28.924z M104.59,28.492h2.07v-2.99
			L104.59,28.492z"/>
	</g>
	<g>
		<path d="M91.245,46.985c0.104,0.76,0.655,1.144,1.391,1.144c0.84,0,1.352-0.64,1.352-1.439c0-0.84-0.544-1.432-1.399-1.432
			c-0.504,0-0.911,0.176-1.224,0.584l-0.424-0.056l0.456-2.918h2.799v0.432h-2.367l-0.352,1.895
			c0.439-0.288,0.728-0.368,1.239-0.368c1.031,0,1.783,0.704,1.783,1.863c0,1.183-0.855,1.871-1.783,1.871
			c-1.063,0-1.895-0.408-1.982-1.575H91.245z"/>
		<path d="M98.396,44.195c-0.112-0.575-0.472-0.951-1.071-0.951c-1.384,0-1.503,1.487-1.583,2.551
			c0.319-0.432,0.655-0.88,1.479-0.88c1.136,0,1.791,0.688,1.791,1.815c0,1.136-0.663,1.831-1.807,1.831
			c-1.127,0-1.975-0.704-1.975-2.694c0-1.335,0.392-3.054,2.047-3.054c0.887,0,1.543,0.479,1.646,1.383H98.396z M95.933,46.745
			c0,0.632,0.352,1.383,1.279,1.383c0.951,0,1.287-0.736,1.287-1.415c0-0.872-0.415-1.368-1.295-1.368
			C96.412,45.346,95.933,45.986,95.933,46.745z"/>
		<path d="M99.822,42.868h3.59v0.48c-1.615,1.823-2.223,3.998-2.286,5.101h-0.56c0.111-1.631,1.15-3.742,2.23-5.069h-2.975V42.868z"
			/>
		<path d="M104.35,44.187c0-0.775,0.72-1.407,1.607-1.375c0.863,0,1.703,0.408,1.703,1.375c0,0.584-0.232,1-0.768,1.263
			c0.615,0.224,0.999,0.744,0.999,1.399c0,1.104-0.783,1.711-1.982,1.711c-0.816,0-1.76-0.56-1.76-1.663
			c0-0.671,0.344-1.231,0.983-1.479C104.59,45.075,104.35,44.859,104.35,44.187z M104.661,46.897c0,0.696,0.544,1.231,1.399,1.231
			c0.743,0,1.319-0.512,1.319-1.263c0-0.792-0.6-1.175-1.352-1.175C105.245,45.69,104.661,46.066,104.661,46.897z M104.862,44.259
			c0,0.695,0.575,0.999,1.199,0.999c0.616,0,1.088-0.312,1.088-1.111c0-0.567-0.368-0.903-1.144-0.903
			C105.373,43.244,104.862,43.595,104.862,44.259z"/>
	</g>
	<g>
		<path d="M92.869,62.675h-1.455v-0.336c0.855-0.056,1.391-0.144,1.559-1.111h0.408v5.637h-0.512V62.675z"/>
		<path d="M95.453,63.074c0-1.111,0.72-1.847,1.831-1.847c1.135,0,1.735,0.695,1.735,1.559c0,1.495-1.615,1.871-2.455,2.51
			c-0.368,0.28-0.712,0.6-0.735,1.136h3.142v0.432h-3.686c0.008-0.536,0.08-0.959,0.439-1.375c1.176-1.359,2.734-1.344,2.734-2.671
			c0-0.735-0.543-1.159-1.239-1.159c-0.735,0-1.255,0.656-1.223,1.415H95.453z"/>
		<path d="M101.117,63.73c0.952,0.008,1.615-0.216,1.615-1.08c0-0.695-0.552-0.991-1.199-0.991c-0.72,0-1.207,0.504-1.207,1.207
			h-0.512c0-0.503,0.168-0.911,0.544-1.263c0.352-0.32,0.815-0.375,1.279-0.375c0.887,0,1.606,0.448,1.606,1.391
			c0,0.583-0.256,1.023-0.799,1.255c0.815,0.256,0.999,0.872,0.999,1.391c0,0.927-0.655,1.679-1.815,1.711
			c-1.303,0-1.887-0.432-2.007-1.743h0.512c0,0.855,0.568,1.311,1.399,1.311c0.815,0,1.432-0.608,1.399-1.271
			c-0.032-0.911-0.823-1.199-1.815-1.127V63.73z"/>
		<path d="M106.66,65.473h-2.574v-0.44l2.622-3.75h0.464v3.758h0.784v0.432h-0.784v1.391h-0.512V65.473z M104.59,65.041h2.07v-2.99
			L104.59,65.041z"/>
	</g>
	<g>
		<path d="M132.661,50.265v2.615h-0.544v-5.757h2.255c1.264,0,1.959,0.448,1.959,1.511c0,0.728-0.272,1.111-0.936,1.407
			c0.68,0.232,0.72,0.952,0.735,1.559c0.024,0.872,0.096,1.111,0.24,1.223v0.056h-0.6c-0.225-0.392-0.168-1.471-0.256-1.911
			c-0.128-0.624-0.6-0.704-1.144-0.704H132.661z M134.357,49.802c0.807,0,1.431-0.336,1.431-1.144c0-0.863-0.672-1.071-1.399-1.071
			h-1.727v2.215H134.357z"/>
		<path d="M137.685,50.921c-0.008,0.896,0.473,1.639,1.392,1.639c0.624,0,1.111-0.344,1.255-0.952h0.536
			c-0.24,0.784-0.735,1.383-1.791,1.383c-1.327,0-1.903-0.943-1.903-2.167c0-1.208,0.72-2.199,1.903-2.199
			c1.136,0,1.831,0.808,1.823,2.295H137.685z M140.388,50.521c0-0.807-0.448-1.463-1.312-1.463c-0.848,0-1.295,0.68-1.392,1.463
			H140.388z"/>
		<path d="M142.118,51.584c0.152,0.712,0.52,0.976,1.239,0.976c0.695,0,1.023-0.368,1.023-0.768c0-1.199-2.654-0.352-2.654-1.983
			c0-0.688,0.535-1.184,1.455-1.184c0.896,0,1.479,0.368,1.6,1.304h-0.488c-0.088-0.64-0.52-0.872-1.119-0.872
			c-0.607,0-0.936,0.288-0.936,0.711c0,1.127,2.654,0.424,2.654,2.015c0,0.792-0.712,1.207-1.687,1.207
			c-0.976,0-1.535-0.624-1.575-1.407H142.118z"/>
		<path d="M148.644,48.738h0.48v4.142h-0.48v-0.576c-0.256,0.288-0.607,0.688-1.335,0.688c-1.104,0-1.472-0.664-1.472-1.527v-2.727
			h0.48v2.718c0,0.712,0.312,1.104,1.063,1.104c0.791,0,1.263-0.656,1.263-1.567V48.738z"/>
		<path d="M150.358,52.88v-5.757h0.479v5.757H150.358z"/>
		<path d="M153.517,52.896c-0.112,0.024-0.32,0.096-0.552,0.096c-0.472,0-0.736-0.208-0.736-0.823v-3.031h-0.583v-0.399h0.583
			v-1.151h0.48v1.151h0.775v0.399h-0.775v2.839c0,0.408,0.016,0.583,0.415,0.583c0.128,0,0.265-0.024,0.393-0.056V52.896z"/>
		<path d="M154.901,47.858h-0.016v5.021h-0.544v-5.757h0.615l3.326,5.029h0.017v-5.029h0.543v5.757h-0.631L154.901,47.858z"/>
		<path d="M162.868,48.738h0.48v4.142h-0.48v-0.576c-0.256,0.288-0.607,0.688-1.335,0.688c-1.104,0-1.471-0.664-1.471-1.527v-2.727
			h0.479v2.718c0,0.712,0.312,1.104,1.063,1.104c0.791,0,1.263-0.656,1.263-1.567V48.738z"/>
		<path d="M164.925,52.88h-0.479v-4.142h0.479v0.624h0.017c0.247-0.472,0.743-0.736,1.279-0.736c0.768,0,1.039,0.36,1.215,0.8
			c0.272-0.536,0.76-0.8,1.352-0.8c1.127,0,1.287,0.808,1.287,1.639v2.615h-0.479v-2.862c0-0.592-0.208-0.959-0.888-0.959
			c-0.352,0-0.695,0.152-0.936,0.472c-0.208,0.272-0.271,0.775-0.271,1.119v2.231h-0.48v-2.862c0-0.592-0.208-0.959-0.887-0.959
			c-0.353,0-0.696,0.152-0.936,0.472c-0.208,0.272-0.272,0.775-0.272,1.119V52.88z"/>
		<path d="M175.236,50.337h-3.998v-0.48h3.998V50.337z M175.236,51.889h-3.998v-0.48h3.998V51.889z"/>
		<path d="M177.645,49.745c0.952,0.008,1.615-0.216,1.615-1.08c0-0.695-0.552-0.991-1.199-0.991c-0.72,0-1.207,0.504-1.207,1.207
			h-0.512c0-0.503,0.168-0.911,0.544-1.263c0.352-0.32,0.815-0.375,1.279-0.375c0.887,0,1.606,0.448,1.606,1.391
			c0,0.583-0.256,1.023-0.799,1.255c0.815,0.256,0.999,0.872,0.999,1.391c0,0.927-0.655,1.679-1.815,1.711
			c-1.303,0-1.887-0.432-2.007-1.743h0.512c0,0.855,0.568,1.311,1.399,1.311c0.815,0,1.432-0.608,1.399-1.271
			c-0.032-0.911-0.823-1.199-1.815-1.127V49.745z"/>
		<path d="M132.661,60.265v2.615h-0.544v-5.757h2.255c1.264,0,1.959,0.448,1.959,1.511c0,0.728-0.272,1.111-0.936,1.407
			c0.68,0.232,0.72,0.952,0.735,1.559c0.024,0.872,0.096,1.111,0.24,1.223v0.056h-0.6c-0.225-0.392-0.168-1.471-0.256-1.911
			c-0.128-0.624-0.6-0.704-1.144-0.704H132.661z M134.357,59.802c0.807,0,1.431-0.336,1.431-1.144c0-0.863-0.672-1.071-1.399-1.071
			h-1.727v2.215H134.357z"/>
		<path d="M137.685,60.921c-0.008,0.896,0.473,1.639,1.392,1.639c0.624,0,1.111-0.344,1.255-0.952h0.536
			c-0.24,0.784-0.735,1.383-1.791,1.383c-1.327,0-1.903-0.943-1.903-2.167c0-1.208,0.72-2.199,1.903-2.199
			c1.136,0,1.831,0.808,1.823,2.295H137.685z M140.388,60.521c0-0.807-0.448-1.463-1.312-1.463c-0.848,0-1.295,0.68-1.392,1.463
			H140.388z"/>
		<path d="M142.118,61.584c0.152,0.712,0.52,0.976,1.239,0.976c0.695,0,1.023-0.368,1.023-0.768c0-1.199-2.654-0.352-2.654-1.983
			c0-0.688,0.535-1.184,1.455-1.184c0.896,0,1.479,0.368,1.6,1.304h-0.488c-0.088-0.64-0.52-0.872-1.119-0.872
			c-0.607,0-0.936,0.288-0.936,0.711c0,1.127,2.654,0.424,2.654,2.015c0,0.792-0.712,1.207-1.687,1.207
			c-0.976,0-1.535-0.624-1.575-1.407H142.118z"/>
		<path d="M148.644,58.738h0.48v4.142h-0.48v-0.576c-0.256,0.288-0.607,0.688-1.335,0.688c-1.104,0-1.472-0.664-1.472-1.527v-2.727
			h0.48v2.718c0,0.712,0.312,1.104,1.063,1.104c0.791,0,1.263-0.656,1.263-1.567V58.738z"/>
		<path d="M150.358,62.88v-5.757h0.479v5.757H150.358z"/>
		<path d="M153.517,62.896c-0.112,0.024-0.32,0.096-0.552,0.096c-0.472,0-0.736-0.208-0.736-0.823v-3.031h-0.583v-0.399h0.583
			v-1.151h0.48v1.151h0.775v0.399h-0.775v2.839c0,0.408,0.016,0.583,0.415,0.583c0.128,0,0.265-0.024,0.393-0.056V62.896z"/>
		<path d="M158.347,60.337h-3.998v-0.48h3.998V60.337z M158.347,61.889h-3.998v-0.48h3.998V61.889z"/>
		<path d="M159.541,59.09c0-1.111,0.72-1.847,1.831-1.847c1.135,0,1.735,0.695,1.735,1.559c0,1.495-1.615,1.871-2.455,2.51
			c-0.368,0.28-0.712,0.6-0.735,1.136h3.142v0.432h-3.686c0.008-0.536,0.08-0.959,0.439-1.375c1.176-1.359,2.734-1.344,2.734-2.671
			c0-0.735-0.543-1.159-1.239-1.159c-0.735,0-1.255,0.656-1.223,1.415H159.541z"/>
	</g>
	<g>
		<path d="M91.245,83.25c0.104,0.76,0.655,1.144,1.391,1.144c0.84,0,1.352-0.64,1.352-1.439c0-0.84-0.544-1.432-1.399-1.432
			c-0.504,0-0.911,0.176-1.224,0.584l-0.424-0.056l0.456-2.918h2.799v0.432h-2.367l-0.352,1.895
			c0.439-0.288,0.728-0.368,1.239-0.368c1.031,0,1.783,0.704,1.783,1.863c0,1.183-0.855,1.871-1.783,1.871
			c-1.063,0-1.895-0.408-1.982-1.575H91.245z"/>
		<path d="M95.694,83.25c0.104,0.76,0.655,1.144,1.391,1.144c0.84,0,1.352-0.64,1.352-1.439c0-0.84-0.544-1.432-1.399-1.432
			c-0.504,0-0.911,0.176-1.224,0.584l-0.424-0.056l0.456-2.918h2.799v0.432h-2.367l-0.352,1.895
			c0.439-0.288,0.728-0.368,1.239-0.368c1.031,0,1.783,0.704,1.783,1.863c0,1.183-0.855,1.871-1.783,1.871
			c-1.063,0-1.895-0.408-1.982-1.575H95.694z"/>
		<path d="M100.142,83.25c0.104,0.76,0.655,1.144,1.391,1.144c0.84,0,1.352-0.64,1.352-1.439c0-0.84-0.544-1.432-1.399-1.432
			c-0.504,0-0.911,0.176-1.224,0.584l-0.424-0.056l0.456-2.918h2.799v0.432h-2.367l-0.352,1.895
			c0.439-0.288,0.728-0.368,1.239-0.368c1.031,0,1.783,0.704,1.783,1.863c0,1.183-0.855,1.871-1.783,1.871
			c-1.063,0-1.895-0.408-1.982-1.575H100.142z"/>
		<path d="M104.59,83.25c0.104,0.76,0.655,1.144,1.391,1.144c0.84,0,1.352-0.64,1.352-1.439c0-0.84-0.544-1.432-1.399-1.432
			c-0.504,0-0.911,0.176-1.224,0.584l-0.424-0.056l0.456-2.918h2.799v0.432h-2.367l-0.352,1.895
			c0.439-0.288,0.728-0.368,1.239-0.368c1.031,0,1.783,0.704,1.783,1.863c0,1.183-0.855,1.871-1.783,1.871
			c-1.063,0-1.895-0.408-1.982-1.575H104.59z"/>
	</g>
	<g>
		<path d="M92.869,98.94h-1.455v-0.336c0.855-0.056,1.391-0.144,1.559-1.111h0.408v5.637h-0.512V98.94z"/>
		<path d="M95.453,99.339c0-1.111,0.72-1.847,1.831-1.847c1.135,0,1.735,0.695,1.735,1.559c0,1.495-1.615,1.871-2.455,2.51
			c-0.368,0.28-0.712,0.6-0.735,1.136h3.142v0.432h-3.686c0.008-0.536,0.08-0.959,0.439-1.375c1.176-1.359,2.734-1.344,2.734-2.671
			c0-0.735-0.543-1.159-1.239-1.159c-0.735,0-1.255,0.656-1.223,1.415H95.453z"/>
		<path d="M101.117,99.995c0.952,0.008,1.615-0.216,1.615-1.08c0-0.695-0.552-0.991-1.199-0.991c-0.72,0-1.207,0.504-1.207,1.207
			h-0.512c0-0.503,0.168-0.911,0.544-1.263c0.352-0.32,0.815-0.375,1.279-0.375c0.887,0,1.606,0.448,1.606,1.391
			c0,0.583-0.256,1.023-0.799,1.255c0.815,0.256,0.999,0.872,0.999,1.391c0,0.927-0.655,1.679-1.815,1.711
			c-1.303,0-1.887-0.432-2.007-1.743h0.512c0,0.855,0.568,1.311,1.399,1.311c0.815,0,1.432-0.608,1.399-1.271
			c-0.032-0.911-0.823-1.199-1.815-1.127V99.995z"/>
		<path d="M106.66,101.738h-2.574v-0.44l2.622-3.75h0.464v3.758h0.784v0.432h-0.784v1.391h-0.512V101.738z M104.59,101.306h2.07
			v-2.99L104.59,101.306z"/>
	</g>
	<g>
	</g>
	<g>
	</g>
	<g>
	</g>
	<g>
	</g>
	<g>
	</g>
	<g>
	</g>
	<g>
	</g>
	<g>
	</g>
	<g>
	</g>
	<g>
	</g>
	<g>
	</g>
	<g>
	</g>
	<g>
	</g>
	<g>
	</g>
	<g>
	</g>
</g>
</svg>
