<?xml version="1.0" encoding="utf-8"?>
<!-- Generator: Adobe Illustrator 28.2.0, SVG Export Plug-In . SVG Version: 6.00 Build 0)  -->
<svg version="1.1" id="レイヤー_1" xmlns="http://www.w3.org/2000/svg" xmlns:xlink="http://www.w3.org/1999/xlink" x="0px"
	 y="0px" width="402.318px" height="66.522px" viewBox="0 0 402.318 66.522" style="enable-background:new 0 0 402.318 66.522;"
	 xml:space="preserve">
<style type="text/css">
	.st0{fill:none;stroke:#000000;}
	.st1{fill:none;stroke:#000000;stroke-width:0.5;}
	.st2{fill:none;stroke:#000000;stroke-dasharray:1;}
	.st3{fill:#9FA0A0;}
	.st4{fill:none;stroke:#000000;stroke-width:0.8;}
	.st5{stroke:#000000;stroke-width:0.8;}
	.st6{fill:none;stroke:#000000;stroke-width:0.25;}
</style>
<polyline class="st0" points="387.161,0.812 307.882,0.812 307.881,36.246 236.515,36.246 236.515,0.812 165.15,0.812 
	165.149,36.246 94.392,36.246 94.392,0.812 15.114,0.812 "/>
<line class="st1" x1="117.905" y1="1.305" x2="117.905" y2="36.738"/>
<line class="st1" x1="141.658" y1="1.305" x2="141.658" y2="36.738"/>
<line class="st1" x1="189.163" y1="1.305" x2="189.163" y2="36.738"/>
<line class="st1" x1="212.916" y1="1.305" x2="212.916" y2="36.738"/>
<line class="st1" x1="260.421" y1="1.305" x2="260.421" y2="36.738"/>
<line class="st1" x1="284.175" y1="1.305" x2="284.175" y2="36.738"/>
<line class="st1" x1="331.68" y1="1.305" x2="331.68" y2="36.738"/>
<line class="st1" x1="379.186" y1="1.305" x2="379.186" y2="36.738"/>
<line class="st1" x1="355.433" y1="1.305" x2="355.433" y2="36.738"/>
<line class="st1" x1="70.399" y1="1.305" x2="70.399" y2="36.738"/>
<line class="st1" x1="46.647" y1="1.305" x2="46.647" y2="36.738"/>
<line class="st1" x1="22.894" y1="1.305" x2="22.894" y2="36.738"/>
<line class="st2" x1="0" y1="0.5" x2="13.999" y2="0.5"/>
<line class="st2" x1="388.319" y1="0.5" x2="402.318" y2="0.5"/>
<g>
	<path class="st3" d="M7.457,20.587c-2.143,0-2.798-1.783-2.798-3.022c0-1.239,0.655-3.022,2.798-3.022
		c2.143,0,2.798,1.783,2.798,3.022C10.255,18.804,9.6,20.587,7.457,20.587z M7.457,15.23c-1.248,0-1.999,0.983-1.999,2.334
		c0,1.352,0.751,2.335,1.999,2.335c1.247,0,1.999-0.983,1.999-2.335C9.456,16.214,8.704,15.23,7.457,15.23z"/>
	<path class="st3" d="M14.984,14.695h0.751v5.741h-0.872l-2.918-4.638H11.93v4.638h-0.752v-5.741h0.92l2.87,4.637h0.016V14.695z"/>
</g>
<g>
	<path d="M31.346,20.587c-2.143,0-2.798-1.783-2.798-3.022c0-1.239,0.655-3.022,2.798-3.022c2.143,0,2.798,1.783,2.798,3.022
		C34.144,18.804,33.489,20.587,31.346,20.587z M31.346,15.23c-1.248,0-1.999,0.983-1.999,2.334c0,1.352,0.751,2.335,1.999,2.335
		c1.247,0,1.999-0.983,1.999-2.335C33.345,16.214,32.593,15.23,31.346,15.23z"/>
	<path d="M38.873,14.695h0.751v5.741h-0.872l-2.918-4.638h-0.016v4.638h-0.751v-5.741h0.919l2.87,4.637h0.016V14.695z"/>
</g>
<g>
	<path d="M55.235,20.587c-2.143,0-2.798-1.783-2.798-3.022c0-1.239,0.655-3.022,2.798-3.022c2.143,0,2.798,1.783,2.798,3.022
		C58.034,18.804,57.378,20.587,55.235,20.587z M55.235,15.23c-1.248,0-1.999,0.983-1.999,2.334c0,1.352,0.751,2.335,1.999,2.335
		c1.247,0,1.999-0.983,1.999-2.335C57.234,16.214,56.482,15.23,55.235,15.23z"/>
	<path d="M62.763,14.695h0.751v5.741h-0.872l-2.918-4.638h-0.016v4.638h-0.752v-5.741h0.92l2.87,4.637h0.016V14.695z"/>
</g>
<g>
	<path d="M79.124,20.587c-2.143,0-2.798-1.783-2.798-3.022c0-1.239,0.655-3.022,2.798-3.022c2.143,0,2.798,1.783,2.798,3.022
		C81.923,18.804,81.267,20.587,79.124,20.587z M79.124,15.23c-1.248,0-1.999,0.983-1.999,2.334c0,1.352,0.751,2.335,1.999,2.335
		c1.247,0,1.999-0.983,1.999-2.335C81.123,16.214,80.371,15.23,79.124,15.23z"/>
	<path d="M86.652,14.695h0.751v5.741h-0.872l-2.918-4.638h-0.016v4.638h-0.751v-5.741h0.919l2.87,4.637h0.016V14.695z"/>
</g>
<g>
	<path d="M101.014,20.587c-2.143,0-2.798-1.783-2.798-3.022c0-1.239,0.655-3.022,2.798-3.022c2.143,0,2.798,1.783,2.798,3.022
		C103.812,18.804,103.156,20.587,101.014,20.587z M101.014,15.23c-1.248,0-1.999,0.983-1.999,2.334c0,1.352,0.751,2.335,1.999,2.335
		c1.247,0,1.999-0.983,1.999-2.335C103.013,16.214,102.261,15.23,101.014,15.23z"/>
	<path d="M105.591,20.435h-0.776v-5.741h3.974v0.688h-3.198v1.759h2.814v0.688h-2.814V20.435z"/>
	<path d="M110.478,20.435h-0.776v-5.741h3.974v0.688h-3.198v1.759h2.814v0.688h-2.814V20.435z"/>
</g>
<g>
	<path d="M124.295,20.587c-2.143,0-2.798-1.783-2.798-3.022c0-1.239,0.655-3.022,2.798-3.022c2.143,0,2.798,1.783,2.798,3.022
		C127.093,18.804,126.437,20.587,124.295,20.587z M124.295,15.23c-1.248,0-1.999,0.983-1.999,2.334c0,1.352,0.751,2.335,1.999,2.335
		c1.247,0,1.999-0.983,1.999-2.335C126.294,16.214,125.542,15.23,124.295,15.23z"/>
	<path d="M128.872,20.435h-0.776v-5.741h3.974v0.688h-3.198v1.759h2.814v0.688h-2.814V20.435z"/>
	<path d="M133.76,20.435h-0.776v-5.741h3.974v0.688h-3.198v1.759h2.814v0.688h-2.814V20.435z"/>
</g>
<g>
	<path d="M147.576,20.587c-2.143,0-2.798-1.783-2.798-3.022c0-1.239,0.655-3.022,2.798-3.022c2.143,0,2.798,1.783,2.798,3.022
		C150.374,18.804,149.718,20.587,147.576,20.587z M147.576,15.23c-1.248,0-1.999,0.983-1.999,2.334c0,1.352,0.751,2.335,1.999,2.335
		c1.247,0,1.999-0.983,1.999-2.335C149.575,16.214,148.823,15.23,147.576,15.23z"/>
	<path d="M152.153,20.435h-0.776v-5.741h3.974v0.688h-3.198v1.759h2.814v0.688h-2.814V20.435z"/>
	<path d="M157.04,20.435h-0.776v-5.741h3.974v0.688h-3.198v1.759h2.814v0.688h-2.814V20.435z"/>
</g>
<g>
	<path d="M174.682,20.587c-2.143,0-2.798-1.783-2.798-3.022c0-1.239,0.655-3.022,2.798-3.022c2.143,0,2.798,1.783,2.798,3.022
		C177.48,18.804,176.825,20.587,174.682,20.587z M174.682,15.23c-1.248,0-1.999,0.983-1.999,2.334c0,1.352,0.751,2.335,1.999,2.335
		c1.247,0,1.999-0.983,1.999-2.335C176.681,16.214,175.929,15.23,174.682,15.23z"/>
	<path d="M182.209,14.695h0.751v5.741h-0.872l-2.918-4.638h-0.016v4.638h-0.751v-5.741h0.919l2.87,4.637h0.016V14.695z"/>
</g>
<g>
	<path d="M198.571,20.587c-2.143,0-2.798-1.783-2.798-3.022c0-1.239,0.655-3.022,2.798-3.022c2.143,0,2.798,1.783,2.798,3.022
		C201.37,18.804,200.714,20.587,198.571,20.587z M198.571,15.23c-1.248,0-1.999,0.983-1.999,2.334c0,1.352,0.751,2.335,1.999,2.335
		c1.247,0,1.999-0.983,1.999-2.335C200.57,16.214,199.818,15.23,198.571,15.23z"/>
	<path d="M206.099,14.695h0.751v5.741h-0.872l-2.918-4.638h-0.016v4.638h-0.752v-5.741h0.92l2.87,4.637h0.016V14.695z"/>
</g>
<g>
	<path d="M221.851,20.587c-2.143,0-2.798-1.783-2.798-3.022c0-1.239,0.655-3.022,2.798-3.022c2.143,0,2.798,1.783,2.798,3.022
		C224.65,18.804,223.994,20.587,221.851,20.587z M221.851,15.23c-1.248,0-1.999,0.983-1.999,2.334c0,1.352,0.751,2.335,1.999,2.335
		c1.247,0,1.999-0.983,1.999-2.335C223.85,16.214,223.099,15.23,221.851,15.23z"/>
	<path d="M229.379,14.695h0.751v5.741h-0.872l-2.918-4.638h-0.016v4.638h-0.752v-5.741h0.92l2.87,4.637h0.016V14.695z"/>
</g>
<g>
	<path d="M244.35,20.587c-2.143,0-2.798-1.783-2.798-3.022c0-1.239,0.656-3.022,2.798-3.022s2.799,1.783,2.799,3.022
		C247.149,18.804,246.493,20.587,244.35,20.587z M244.35,15.23c-1.247,0-1.999,0.983-1.999,2.334c0,1.352,0.752,2.335,1.999,2.335
		s1.999-0.983,1.999-2.335C246.349,16.214,245.597,15.23,244.35,15.23z"/>
	<path d="M248.926,20.435h-0.775v-5.741h3.974v0.688h-3.198v1.759h2.814v0.688h-2.814V20.435z"/>
	<path d="M253.815,20.435h-0.775v-5.741h3.974v0.688h-3.198v1.759h2.814v0.688h-2.814V20.435z"/>
</g>
<g>
	<path d="M267.022,20.587c-2.143,0-2.799-1.783-2.799-3.022c0-1.239,0.656-3.022,2.799-3.022s2.799,1.783,2.799,3.022
		C269.821,18.804,269.164,20.587,267.022,20.587z M267.022,15.23c-1.247,0-1.999,0.983-1.999,2.334c0,1.352,0.752,2.335,1.999,2.335
		s1.999-0.983,1.999-2.335C269.021,16.214,268.269,15.23,267.022,15.23z"/>
	<path d="M271.598,20.435h-0.775v-5.741h3.974v0.688h-3.198v1.759h2.814v0.688h-2.814V20.435z"/>
	<path d="M276.487,20.435h-0.775v-5.741h3.974v0.688h-3.198v1.759h2.814v0.688h-2.814V20.435z"/>
</g>
<g>
	<path d="M290.912,20.587c-2.143,0-2.799-1.783-2.799-3.022c0-1.239,0.656-3.022,2.799-3.022s2.799,1.783,2.799,3.022
		C293.71,18.804,293.054,20.587,290.912,20.587z M290.912,15.23c-1.247,0-1.999,0.983-1.999,2.334c0,1.352,0.752,2.335,1.999,2.335
		s1.999-0.983,1.999-2.335C292.911,16.214,292.159,15.23,290.912,15.23z"/>
	<path d="M295.488,20.435h-0.775v-5.741h3.974v0.688h-3.198v1.759h2.814v0.688h-2.814V20.435z"/>
	<path d="M300.376,20.435h-0.775v-5.741h3.974v0.688h-3.198v1.759h2.814v0.688h-2.814V20.435z"/>
</g>
<g>
	<path d="M317.409,20.587c-2.143,0-2.799-1.783-2.799-3.022c0-1.239,0.656-3.022,2.799-3.022s2.799,1.783,2.799,3.022
		C320.207,18.804,319.551,20.587,317.409,20.587z M317.409,15.23c-1.247,0-1.999,0.983-1.999,2.334c0,1.352,0.752,2.335,1.999,2.335
		s1.999-0.983,1.999-2.335C319.408,16.214,318.656,15.23,317.409,15.23z"/>
	<path d="M324.936,14.695h0.751v5.741h-0.871l-2.919-4.638h-0.016v4.638h-0.752v-5.741h0.92l2.87,4.637h0.017V14.695z"/>
</g>
<g>
	<path d="M340.69,20.587c-2.143,0-2.799-1.783-2.799-3.022c0-1.239,0.656-3.022,2.799-3.022s2.799,1.783,2.799,3.022
		C343.489,18.804,342.832,20.587,340.69,20.587z M340.69,15.23c-1.247,0-1.999,0.983-1.999,2.334c0,1.352,0.752,2.335,1.999,2.335
		s1.999-0.983,1.999-2.335C342.689,16.214,341.937,15.23,340.69,15.23z"/>
	<path d="M348.217,14.695h0.751v5.741h-0.871l-2.919-4.638h-0.016v4.638h-0.752v-5.741h0.92l2.87,4.637h0.017V14.695z"/>
</g>
<g>
	<path d="M364.579,20.587c-2.143,0-2.799-1.783-2.799-3.022c0-1.239,0.656-3.022,2.799-3.022s2.799,1.783,2.799,3.022
		C367.377,18.804,366.721,20.587,364.579,20.587z M364.579,15.23c-1.247,0-1.999,0.983-1.999,2.334c0,1.352,0.752,2.335,1.999,2.335
		s1.999-0.983,1.999-2.335C366.578,16.214,365.826,15.23,364.579,15.23z"/>
	<path d="M372.106,14.695h0.751v5.741h-0.871l-2.919-4.638h-0.016v4.638h-0.752v-5.741h0.92l2.87,4.637h0.017V14.695z"/>
</g>
<g>
	<path class="st3" d="M387.86,20.587c-2.143,0-2.799-1.783-2.799-3.022c0-1.239,0.656-3.022,2.799-3.022s2.799,1.783,2.799,3.022
		C390.659,18.804,390.002,20.587,387.86,20.587z M387.86,15.23c-1.247,0-1.999,0.983-1.999,2.334c0,1.352,0.752,2.335,1.999,2.335
		s1.999-0.983,1.999-2.335C389.859,16.214,389.107,15.23,387.86,15.23z"/>
	<path class="st3" d="M395.387,14.695h0.751v5.741h-0.871l-2.919-4.638h-0.016v4.638h-0.752v-5.741h0.92l2.87,4.637h0.017V14.695z"
		/>
</g>
<path class="st1" d="M112.494,48.737c0,4.143-3.359,7.502-7.501,7.502c-4.143,0-7.502-3.359-7.502-7.502
	c0-4.142,3.359-7.501,7.502-7.501C109.136,41.236,112.494,44.594,112.494,48.737z"/>
<path class="st1" d="M184.011,48.737c0,4.143-3.359,7.502-7.501,7.502c-4.143,0-7.502-3.359-7.502-7.502
	c0-4.142,3.359-7.501,7.502-7.501C180.652,41.236,184.011,44.594,184.011,48.737z"/>
<path class="st1" d="M255.529,48.737c0,4.143-3.359,7.502-7.502,7.502c-4.143,0-7.502-3.359-7.502-7.502
	c0-4.142,3.359-7.501,7.502-7.501C252.169,41.236,255.529,44.594,255.529,48.737z"/>
<path class="st1" d="M327.045,48.737c0,4.143-3.359,7.502-7.501,7.502c-4.143,0-7.501-3.359-7.501-7.502
	c0-4.142,3.358-7.501,7.501-7.501C323.685,41.236,327.045,44.594,327.045,48.737z"/>
<g>
	<path d="M104.14,51.326l-0.6,1.671h-0.8l2.159-5.741h0.879l2.079,5.741h-0.848l-0.567-1.671H104.14z M106.163,50.638l-0.848-2.526
		h-0.016l-0.919,2.526H106.163z"/>
</g>
<g>
	<path d="M174.433,47.256h2.526c1.072,0,1.623,0.664,1.623,1.447c0,0.375-0.136,0.903-0.768,1.199
		c0.376,0.152,1.04,0.416,1.04,1.399c0,0.92-0.68,1.695-1.951,1.695h-2.471V47.256z M175.208,49.687h1.399
		c0.744,0,1.199-0.224,1.199-0.928c0-0.536-0.328-0.839-1.191-0.839h-1.407V49.687z M175.208,52.333h1.655
		c0.808,0,1.215-0.408,1.215-1.047c0-0.808-0.712-0.968-1.343-0.968h-1.527V52.333z"/>
</g>
<g>
	<path d="M246.565,51.326l-0.6,1.671h-0.799l2.158-5.741h0.88l2.079,5.741h-0.848l-0.568-1.671H246.565z M248.588,50.638
		l-0.848-2.526h-0.016l-0.92,2.526H248.588z"/>
</g>
<g>
	<path d="M317.771,47.256h2.526c1.071,0,1.623,0.664,1.623,1.447c0,0.375-0.136,0.903-0.768,1.199
		c0.376,0.152,1.04,0.416,1.04,1.399c0,0.92-0.68,1.695-1.951,1.695h-2.471V47.256z M318.546,49.687h1.399
		c0.743,0,1.199-0.224,1.199-0.928c0-0.536-0.328-0.839-1.191-0.839h-1.407V49.687z M318.546,52.333h1.655
		c0.808,0,1.215-0.408,1.215-1.047c0-0.808-0.711-0.968-1.343-0.968h-1.527V52.333z"/>
</g>
<g>
	<line class="st4" x1="35.643" y1="47.557" x2="42.79" y2="47.557"/>
	<polygon class="st5" points="44.997,47.557 41.887,48.827 42.625,47.557 41.887,46.287 	"/>
</g>
<g>
	<line class="st4" x1="36.573" y1="47.546" x2="26.68" y2="47.546"/>
	<polygon class="st5" points="24.473,47.546 27.584,46.276 26.845,47.546 27.584,48.817 	"/>
</g>
<g>
	<path d="M20.453,63.554h-0.752v-3.99H18.39v-0.56c0.912-0.064,1.287-0.152,1.511-1.072h0.552V63.554z"/>
	<path d="M28.324,59.492c-0.04-0.887-0.776-1.167-1.423-1.167c-0.488,0-1.311,0.136-1.311,1.007c0,0.488,0.344,0.647,0.679,0.728
		l1.639,0.376c0.744,0.176,1.303,0.624,1.303,1.535c0,1.359-1.263,1.735-2.247,1.735c-1.063,0-1.479-0.32-1.735-0.552
		c-0.488-0.439-0.584-0.919-0.584-1.455h0.728c0,1.04,0.848,1.343,1.583,1.343c0.56,0,1.503-0.144,1.503-0.967
		c0-0.6-0.28-0.792-1.223-1.016l-1.175-0.272c-0.376-0.088-1.224-0.352-1.224-1.351c0-0.896,0.584-1.775,1.975-1.775
		c2.007,0,2.207,1.199,2.239,1.831H28.324z"/>
	<path d="M32.725,60.78c-0.088-0.56-0.4-0.896-0.992-0.896c-0.871,0-1.151,0.832-1.151,1.575c0,0.719,0.176,1.607,1.144,1.607
		c0.472,0,0.879-0.352,1-0.991h0.68c-0.072,0.664-0.48,1.599-1.703,1.599c-1.175,0-1.871-0.888-1.871-2.095
		c0-1.295,0.624-2.327,2.007-2.327c1.096,0,1.511,0.8,1.567,1.527H32.725z"/>
	<path d="M34.086,60.643c0.032-0.999,0.696-1.391,1.727-1.391c0.336,0,1.551,0.096,1.551,1.167v2.407
		c0,0.176,0.088,0.248,0.232,0.248c0.064,0,0.152-0.016,0.232-0.032v0.512c-0.12,0.032-0.224,0.08-0.384,0.08
		c-0.624,0-0.72-0.32-0.744-0.64c-0.272,0.296-0.696,0.68-1.511,0.68c-0.768,0-1.311-0.488-1.311-1.208
		c0-0.352,0.104-1.167,1.271-1.312l1.16-0.144c0.167-0.016,0.368-0.08,0.368-0.496c0-0.439-0.32-0.679-0.983-0.679
		c-0.8,0-0.912,0.488-0.959,0.807H34.086z M36.661,61.419c-0.112,0.088-0.288,0.152-1.159,0.264
		c-0.344,0.048-0.896,0.152-0.896,0.68c0,0.456,0.231,0.728,0.759,0.728c0.656,0,1.295-0.424,1.295-0.983V61.419z"/>
	<path d="M41.964,63.554h-0.704v-2.575c0-0.728-0.208-1.095-0.896-1.095c-0.4,0-1.104,0.256-1.104,1.391v2.279h-0.704v-4.182h0.664
		v0.592h0.016c0.152-0.224,0.544-0.712,1.264-0.712c0.647,0,1.463,0.264,1.463,1.456V63.554z"/>
</g>
<line class="st6" x1="46.647" y1="36.738" x2="46.647" y2="51.732"/>
<line class="st6" x1="22.894" y1="36.738" x2="22.894" y2="51.732"/>
</svg>
