<?xml version="1.0" encoding="utf-8"?>
<!-- Generator: Adobe Illustrator 28.2.0, SVG Export Plug-In . SVG Version: 6.00 Build 0)  -->
<svg version="1.1" id="_x3C_图层_x3E_" xmlns="http://www.w3.org/2000/svg" xmlns:xlink="http://www.w3.org/1999/xlink" x="0px"
	 y="0px" width="282.657px" height="111.299px" viewBox="0 0 282.657 111.299" style="enable-background:new 0 0 282.657 111.299;"
	 xml:space="preserve">
<style type="text/css">
	.st0{fill:url(#SVGID_1_);stroke:#B3B3B3;stroke-width:0.3;}
	.st1{fill:none;stroke:#B3B3B3;stroke-width:0.3;}
	.st2{fill:#999999;}
	.st3{fill:none;stroke:#000000;stroke-width:0.8;}
	.st4{fill:none;stroke:#000000;stroke-width:0.3;}
</style>
<linearGradient id="SVGID_1_" gradientUnits="userSpaceOnUse" x1="-7679.7983" y1="-7884.6777" x2="-7679.7983" y2="-7884.6777" gradientTransform="matrix(1 0 0 0.6667 7743.2256 5292.1479)">
	<stop  offset="0" style="stop-color:#FFFFFF"/>
	<stop  offset="1" style="stop-color:#000000"/>
</linearGradient>
<line class="st0" x1="63.427" y1="0" x2="63.427" y2="70.867"/>
<line class="st1" x1="69.045" y1="0" x2="69.045" y2="70.867"/>
<line class="st1" x1="158.923" y1="0" x2="158.923" y2="106.284"/>
<line class="st1" x1="164.54" y1="0" x2="164.54" y2="106.284"/>
<line class="st1" x1="203.862" y1="0" x2="203.862" y2="70.867"/>
<line class="st1" x1="209.481" y1="0" x2="209.481" y2="70.867"/>
<line class="st1" x1="248.802" y1="0" x2="248.802" y2="106.284"/>
<line class="st1" x1="254.419" y1="0" x2="254.419" y2="106.284"/>
<rect x="248.804" y="88.568" class="st2" width="5.615" height="17.731"/>
<rect x="158.842" y="88.583" class="st2" width="5.616" height="17.716"/>
<rect x="203.863" y="53.151" class="st2" width="5.616" height="17.715"/>
<rect x="63.428" y="53.151" class="st2" width="5.616" height="17.715"/>
<g>
	<path d="M35.947,40.716c-2.143,0-2.798-1.783-2.798-3.022s0.655-3.022,2.798-3.022c2.143,0,2.798,1.783,2.798,3.022
		S38.09,40.716,35.947,40.716z M35.947,35.359c-1.248,0-1.999,0.983-1.999,2.334c0,1.352,0.751,2.335,1.999,2.335
		c1.247,0,1.999-0.983,1.999-2.335C37.946,36.342,37.194,35.359,35.947,35.359z"/>
	<path d="M40.524,40.564h-0.776v-5.741h3.974v0.688h-3.198v1.759h2.814v0.688h-2.814V40.564z"/>
	<path d="M45.412,40.564h-0.776v-5.741h3.974v0.688h-3.198v1.759h2.814v0.688h-2.814V40.564z"/>
</g>
<g>
	<path d="M35.947,22.799c-2.143,0-2.798-1.783-2.798-3.022s0.655-3.022,2.798-3.022c2.143,0,2.798,1.783,2.798,3.022
		S38.09,22.799,35.947,22.799z M35.947,17.442c-1.248,0-1.999,0.983-1.999,2.334c0,1.352,0.751,2.335,1.999,2.335
		c1.247,0,1.999-0.983,1.999-2.335C37.946,18.425,37.194,17.442,35.947,17.442z"/>
	<path d="M43.475,16.906h0.751v5.741h-0.872l-2.918-4.637H40.42v4.637h-0.752v-5.741h0.92l2.87,4.637h0.016V16.906z"/>
</g>
<g>
	<path d="M35.947,74.049c-2.143,0-2.798-1.783-2.798-3.022s0.655-3.021,2.798-3.021c2.143,0,2.798,1.782,2.798,3.021
		S38.09,74.049,35.947,74.049z M35.947,68.692c-1.248,0-1.999,0.983-1.999,2.334c0,1.352,0.751,2.335,1.999,2.335
		c1.247,0,1.999-0.983,1.999-2.335C37.946,69.676,37.194,68.692,35.947,68.692z"/>
	<path d="M40.524,73.897h-0.776v-5.741h3.974v0.688h-3.198v1.759h2.814v0.688h-2.814V73.897z"/>
	<path d="M45.412,73.897h-0.776v-5.741h3.974v0.688h-3.198v1.759h2.814v0.688h-2.814V73.897z"/>
</g>
<g>
	<path d="M35.947,56.132c-2.143,0-2.798-1.783-2.798-3.022s0.655-3.021,2.798-3.021c2.143,0,2.798,1.782,2.798,3.021
		S38.09,56.132,35.947,56.132z M35.947,50.775c-1.248,0-1.999,0.983-1.999,2.334c0,1.352,0.751,2.335,1.999,2.335
		c1.247,0,1.999-0.983,1.999-2.335C37.946,51.759,37.194,50.775,35.947,50.775z"/>
	<path d="M43.475,50.24h0.751v5.741h-0.872l-2.918-4.638H40.42v4.638h-0.752V50.24h0.92l2.87,4.637h0.016V50.24z"/>
</g>
<g>
	<path d="M35.947,109.65c-2.143,0-2.798-1.783-2.798-3.022s0.655-3.022,2.798-3.022c2.143,0,2.798,1.783,2.798,3.022
		S38.09,109.65,35.947,109.65z M35.947,104.293c-1.248,0-1.999,0.983-1.999,2.335s0.751,2.335,1.999,2.335
		c1.247,0,1.999-0.983,1.999-2.335S37.194,104.293,35.947,104.293z"/>
	<path d="M40.524,109.498h-0.776v-5.74h3.974v0.688h-3.198v1.759h2.814v0.688h-2.814V109.498z"/>
	<path d="M45.412,109.498h-0.776v-5.74h3.974v0.688h-3.198v1.759h2.814v0.688h-2.814V109.498z"/>
</g>
<g>
	<path d="M35.947,91.733c-2.143,0-2.798-1.783-2.798-3.022s0.655-3.022,2.798-3.022c2.143,0,2.798,1.783,2.798,3.022
		S38.09,91.733,35.947,91.733z M35.947,86.376c-1.248,0-1.999,0.983-1.999,2.335s0.751,2.335,1.999,2.335
		c1.247,0,1.999-0.983,1.999-2.335S37.194,86.376,35.947,86.376z"/>
	<path d="M43.475,85.841h0.751v5.74h-0.872l-2.918-4.637H40.42v4.637h-0.752v-5.74h0.92l2.87,4.637h0.016V85.841z"/>
</g>
<polyline class="st3" points="52.192,38.645 63.442,38.645 63.442,20.225 158.859,20.225 158.859,38.645 203.857,38.645 
	203.857,20.225 248.857,20.225 248.857,38.645 282.607,38.645 "/>
<line class="st4" x1="52.192" y1="0" x2="52.192" y2="10.63"/>
<line class="st4" x1="57.81" y1="0" x2="57.81" y2="10.63"/>
<line class="st4" x1="74.662" y1="0" x2="74.662" y2="10.63"/>
<line class="st4" x1="80.28" y1="0" x2="80.28" y2="10.63"/>
<line class="st4" x1="85.897" y1="0" x2="85.897" y2="10.63"/>
<line class="st4" x1="91.514" y1="0" x2="91.514" y2="10.63"/>
<line class="st4" x1="97.132" y1="0" x2="97.132" y2="10.63"/>
<line class="st4" x1="102.749" y1="0" x2="102.749" y2="10.63"/>
<line class="st4" x1="108.366" y1="0" x2="108.366" y2="10.63"/>
<line class="st4" x1="113.984" y1="0" x2="113.984" y2="10.63"/>
<line class="st4" x1="119.601" y1="0" x2="119.601" y2="10.63"/>
<line class="st4" x1="125.218" y1="0" x2="125.218" y2="10.63"/>
<line class="st4" x1="130.836" y1="0" x2="130.836" y2="10.63"/>
<line class="st4" x1="136.454" y1="0" x2="136.454" y2="10.63"/>
<line class="st4" x1="142.071" y1="0" x2="142.071" y2="10.63"/>
<line class="st4" x1="147.689" y1="0" x2="147.689" y2="10.63"/>
<line class="st4" x1="153.306" y1="0" x2="153.306" y2="10.63"/>
<line class="st4" x1="170.158" y1="0" x2="170.158" y2="10.63"/>
<line class="st4" x1="175.778" y1="0" x2="175.778" y2="10.63"/>
<line class="st4" x1="181.393" y1="0" x2="181.393" y2="10.63"/>
<line class="st4" x1="187.013" y1="0" x2="187.013" y2="10.63"/>
<line class="st4" x1="192.627" y1="0" x2="192.627" y2="10.63"/>
<line class="st4" x1="198.246" y1="0" x2="198.246" y2="10.63"/>
<line class="st4" x1="215.099" y1="0" x2="215.099" y2="10.63"/>
<line class="st4" x1="220.715" y1="0" x2="220.715" y2="10.63"/>
<line class="st4" x1="226.334" y1="0" x2="226.334" y2="10.63"/>
<line class="st4" x1="231.951" y1="0" x2="231.951" y2="10.63"/>
<line class="st4" x1="237.566" y1="0" x2="237.566" y2="10.63"/>
<line class="st4" x1="243.186" y1="0" x2="243.186" y2="10.63"/>
<line class="st4" x1="260.038" y1="0" x2="260.038" y2="10.63"/>
<line class="st4" x1="265.654" y1="0" x2="265.654" y2="10.63"/>
<line class="st4" x1="271.273" y1="0" x2="271.273" y2="10.63"/>
<line class="st4" x1="276.891" y1="0" x2="276.891" y2="10.63"/>
<line class="st4" x1="282.507" y1="0" x2="282.507" y2="10.63"/>
<path d="M63.414,19.426l3.093,7.14h-6.158L63.414,19.426z"/>
<path d="M158.938,38.441l-3.093-7.14h6.158L158.938,38.441z"/>
<path d="M248.817,38.441l-3.093-7.14h6.158L248.817,38.441z"/>
<path d="M203.85,19.426l3.093,7.14h-6.158L203.85,19.426z"/>
<g>
	<path d="M4.07,5.616C4.03,4.729,3.294,4.449,2.646,4.449c-0.488,0-1.311,0.136-1.311,1.007c0,0.488,0.344,0.647,0.679,0.728
		L3.654,6.56c0.744,0.176,1.303,0.624,1.303,1.535c0,1.359-1.263,1.735-2.247,1.735c-1.063,0-1.479-0.32-1.735-0.552
		C0.488,8.838,0.392,8.358,0.392,7.823h0.728c0,1.04,0.848,1.343,1.583,1.343c0.56,0,1.503-0.144,1.503-0.967
		c0-0.6-0.28-0.792-1.223-1.016L1.807,6.911C1.431,6.823,0.583,6.56,0.583,5.56c0-0.896,0.584-1.775,1.975-1.775
		c2.007,0,2.207,1.199,2.239,1.831H4.07z"/>
	<path d="M8.47,6.903c-0.088-0.56-0.4-0.896-0.992-0.896c-0.871,0-1.151,0.832-1.151,1.575c0,0.72,0.176,1.607,1.144,1.607
		c0.472,0,0.879-0.352,1-0.991h0.68C9.078,8.862,8.67,9.798,7.447,9.798c-1.175,0-1.871-0.888-1.871-2.095
		c0-1.295,0.624-2.327,2.007-2.327c1.096,0,1.511,0.8,1.567,1.527H8.47z"/>
	<path d="M9.832,6.768c0.032-1,0.696-1.392,1.727-1.392c0.336,0,1.551,0.096,1.551,1.167V8.95c0,0.176,0.088,0.248,0.232,0.248
		c0.064,0,0.152-0.016,0.232-0.032v0.512c-0.12,0.032-0.224,0.08-0.384,0.08c-0.624,0-0.72-0.32-0.744-0.64
		c-0.272,0.296-0.696,0.68-1.511,0.68c-0.768,0-1.311-0.488-1.311-1.208c0-0.352,0.104-1.167,1.271-1.311l1.16-0.144
		c0.167-0.016,0.368-0.08,0.368-0.496c0-0.44-0.32-0.68-0.983-0.68c-0.8,0-0.912,0.487-0.959,0.808H9.832z M12.406,7.543
		c-0.112,0.088-0.288,0.152-1.159,0.264c-0.344,0.048-0.896,0.152-0.896,0.68c0,0.456,0.231,0.728,0.759,0.728
		c0.656,0,1.295-0.424,1.295-0.983V7.543z"/>
	<path d="M17.71,9.678h-0.704V7.103c0-0.728-0.208-1.095-0.896-1.095c-0.4,0-1.104,0.256-1.104,1.391v2.279h-0.704V5.496h0.664
		v0.592h0.016c0.152-0.224,0.544-0.712,1.264-0.712c0.647,0,1.463,0.264,1.463,1.455V9.678z"/>
</g>
<g>
	<path d="M0.112,29.353h4.662v0.688H2.831v5.053H2.055v-5.053H0.112V29.353z"/>
	<path d="M5.247,35.094H4.543v-4.182h0.664v0.695h0.016c0.28-0.487,0.647-0.815,1.175-0.815c0.088,0,0.128,0.008,0.184,0.024v0.728
		H6.318c-0.656,0-1.071,0.512-1.071,1.119V35.094z"/>
	<path d="M7.248,30.152v-0.799h0.704v0.799H7.248z M7.951,35.094H7.248v-4.182h0.704V35.094z"/>
	<path d="M12.478,34.75c0,0.6-0.008,2.103-1.943,2.103c-0.496,0-1.463-0.136-1.599-1.247h0.704c0.128,0.664,0.775,0.664,0.943,0.664
		c1.215,0,1.191-0.976,1.191-1.471v-0.176h-0.016v0.032c-0.184,0.296-0.552,0.56-1.111,0.56c-1.423,0-1.839-1.335-1.839-2.335
		c0-1.175,0.632-2.087,1.743-2.087c0.759,0,1.079,0.472,1.247,0.712h0.016v-0.592h0.664V34.75z M10.663,34.606
		c0.448,0,1.144-0.296,1.144-1.407c0-0.68-0.112-1.775-1.127-1.775c-1.087,0-1.144,1.031-1.144,1.567
		C9.535,33.91,9.895,34.606,10.663,34.606z"/>
	<path d="M16.925,34.75c0,0.6-0.008,2.103-1.943,2.103c-0.496,0-1.463-0.136-1.599-1.247h0.704c0.128,0.664,0.775,0.664,0.943,0.664
		c1.215,0,1.191-0.976,1.191-1.471v-0.176h-0.016v0.032c-0.184,0.296-0.551,0.56-1.111,0.56c-1.423,0-1.839-1.335-1.839-2.335
		c0-1.175,0.632-2.087,1.743-2.087c0.759,0,1.079,0.472,1.247,0.712h0.016v-0.592h0.664V34.75z M15.11,34.606
		c0.448,0,1.144-0.296,1.144-1.407c0-0.68-0.112-1.775-1.127-1.775c-1.087,0-1.144,1.031-1.144,1.567
		C13.983,33.91,14.343,34.606,15.11,34.606z"/>
	<path d="M21.454,33.782c-0.024,0.2-0.216,0.792-0.744,1.144c-0.192,0.128-0.464,0.288-1.135,0.288
		c-1.175,0-1.871-0.888-1.871-2.095c0-1.295,0.624-2.327,2.007-2.327c1.208,0,1.799,0.959,1.799,2.439h-3.055
		c0,0.872,0.408,1.375,1.215,1.375c0.664,0,1.056-0.512,1.08-0.824H21.454z M20.782,32.671c-0.04-0.647-0.312-1.247-1.167-1.247
		c-0.648,0-1.16,0.6-1.16,1.247H20.782z"/>
	<path d="M23.151,35.094h-0.704v-4.182h0.664v0.695h0.016c0.28-0.487,0.647-0.815,1.175-0.815c0.088,0,0.128,0.008,0.184,0.024
		v0.728h-0.264c-0.656,0-1.071,0.512-1.071,1.119V35.094z"/>
</g>
<g>
	<path d="M0.647,58.833h2.327c1.495,0,2.415,1.136,2.415,2.791c0,1.287-0.56,2.95-2.447,2.95H0.647V58.833z M1.423,63.91h1.503
		c1.007,0,1.663-0.791,1.663-2.238s-0.664-2.175-1.719-2.175H1.423V63.91z"/>
	<path d="M7.279,64.574H6.503v-5.741h0.776V64.574z"/>
	<path d="M9.463,64.574H8.688v-5.741h3.974v0.688H9.463v1.759h2.814v0.688H9.463V64.574z"/>
	<path d="M18.037,58.833v3.727c0,1.175-0.736,2.167-2.311,2.167c-1.543,0-2.207-0.992-2.207-2.063v-3.83h0.775v3.614
		c0,1.247,0.76,1.591,1.455,1.591c0.712,0,1.511-0.327,1.511-1.575v-3.63H18.037z"/>
</g>
<g>
	<path d="M0.647,94.146h2.327c1.495,0,2.415,1.136,2.415,2.791c0,1.287-0.56,2.95-2.447,2.95H0.647V94.146z M1.423,99.223h1.503
		c1.007,0,1.663-0.791,1.663-2.238S3.926,94.81,2.871,94.81H1.423V99.223z"/>
	<path d="M7.279,99.887H6.503v-5.741h0.776V99.887z"/>
	<path d="M9.463,99.887H8.688v-5.741h3.974v0.688H9.463v1.759h2.814v0.688H9.463V99.887z"/>
	<path d="M13.535,94.146h2.327c1.495,0,2.415,1.136,2.415,2.791c0,1.287-0.56,2.95-2.447,2.95h-2.295V94.146z M14.311,99.223h1.503
		c1.007,0,1.663-0.791,1.663-2.238s-0.664-2.175-1.719-2.175h-1.447V99.223z"/>
</g>
<path d="M63.15,62.289l-3.57,1.547v-3.079L63.15,62.289z"/>
<path d="M69.345,62.304l3.571-1.547v3.079L69.345,62.304z"/>
<path class="st3" d="M59.646,62.218"/>
<line class="st3" x1="59.646" y1="62.218" x2="56.208" y2="62.218"/>
<polyline class="st3" points="72.459,62.218 75.896,62.218 79.959,62.218 "/>
<g>
	<path d="M81.477,60.024c0.297,0.042,0.591,0.062,0.883,0.062h0.281v-1.133c0-0.161-0.011-0.325-0.031-0.492
		c0.198,0.021,0.417,0.031,0.656,0.031c-0.068,0.151-0.102,0.328-0.102,0.531v1.062h0.031c0.297,0,0.591-0.021,0.883-0.062
		c-0.021,0.104-0.031,0.206-0.031,0.305c0,0.109,0.01,0.214,0.031,0.312c-0.292-0.042-0.586-0.062-0.883-0.062h-0.031v1.719
		c0.323-0.136,0.627-0.281,0.914-0.438c-0.021,0.302-0.031,0.513-0.031,0.633c-0.328,0.109-0.623,0.216-0.883,0.32v2.367
		c0,0.255-0.104,0.425-0.312,0.508c-0.208,0.078-0.508,0.117-0.898,0.117c-0.058-0.25-0.162-0.458-0.312-0.625h0.438
		c0.375,0,0.562-0.097,0.562-0.289v-1.859c-0.526,0.219-0.894,0.401-1.102,0.547c-0.011-0.198-0.07-0.427-0.18-0.688
		c0.448-0.104,0.875-0.231,1.281-0.383v-1.93H82.36c-0.292,0-0.586,0.021-0.883,0.062c0.021-0.099,0.031-0.203,0.031-0.312
		C81.508,60.23,81.498,60.129,81.477,60.024z M85.329,58.462c0.177,0.036,0.406,0.055,0.688,0.055
		c-0.089,0.312-0.133,0.675-0.133,1.086v0.453h0.789c0.297,0,0.596-0.023,0.898-0.07c-0.042,0.198-0.062,0.396-0.062,0.594
		c0,1.953,0.057,3.141,0.172,3.562c0.125,0.542,0.227,0.812,0.305,0.812c0.036-0.094,0.086-0.438,0.148-1.031
		c0.172,0.219,0.372,0.378,0.602,0.477c-0.219,0.917-0.409,1.375-0.57,1.375c-0.183-0.016-0.375-0.161-0.578-0.438
		c-0.203-0.297-0.359-0.714-0.469-1.25c-0.109-0.636-0.164-1.805-0.164-3.508h-1.07v0.164c0,0.859-0.039,1.575-0.117,2.148
		c0.25,0.188,0.508,0.378,0.773,0.57c-0.193,0.183-0.328,0.356-0.406,0.523c-0.167-0.161-0.326-0.312-0.477-0.453
		c-0.062,0.229-0.128,0.425-0.195,0.586c-0.292,0.641-0.794,1.214-1.508,1.719c-0.13-0.192-0.3-0.339-0.508-0.438
		c0.812-0.516,1.344-1.058,1.594-1.625c0.067-0.167,0.125-0.37,0.172-0.609c-0.328-0.266-0.656-0.5-0.984-0.703
		c0.161-0.136,0.299-0.281,0.414-0.438c0.213,0.167,0.438,0.339,0.672,0.516c0.052-0.5,0.078-1.099,0.078-1.797v-0.164h-0.289
		c-0.266,0-0.534,0.021-0.805,0.062c0.021-0.109,0.031-0.224,0.031-0.344c0-0.099-0.011-0.203-0.031-0.312
		c0.271,0.047,0.539,0.07,0.805,0.07h0.289v-0.164C85.391,59.47,85.37,58.993,85.329,58.462z"/>
	<path d="M91.165,58.548c0.198,0.104,0.438,0.19,0.719,0.258c-0.109,0.067-0.232,0.192-0.367,0.375
		c-0.453,0.641-1.008,1.231-1.664,1.773c-0.13-0.156-0.315-0.292-0.555-0.406c0.516-0.312,0.917-0.644,1.203-0.992
		C90.839,59.17,91.06,58.834,91.165,58.548z M91.571,60.181c0.224,0.141,0.466,0.234,0.727,0.281
		c-0.172,0.099-0.357,0.308-0.555,0.625c-0.13,0.239-0.279,0.469-0.445,0.688v2.938c0,0.391,0.021,0.784,0.062,1.18
		c-0.13-0.021-0.255-0.031-0.375-0.031c-0.13,0-0.255,0.011-0.375,0.031c0.042-0.396,0.062-0.789,0.062-1.18v-2.219
		c-0.276,0.281-0.589,0.56-0.938,0.836c-0.094-0.229-0.208-0.414-0.344-0.555c0.583-0.37,1.047-0.761,1.391-1.172
		C91.136,61.196,91.399,60.723,91.571,60.181z M92.36,61.056c0.338,0.042,0.682,0.062,1.031,0.062h2.344
		c0.344,0,0.685-0.021,1.023-0.062c-0.016,0.12-0.023,0.245-0.023,0.375c0,0.109,0.008,0.224,0.023,0.344
		c-0.339-0.042-0.68-0.062-1.023-0.062h-0.539v3.719c0,0.172-0.097,0.297-0.289,0.375c-0.177,0.078-0.539,0.117-1.086,0.117
		c-0.011-0.266-0.094-0.505-0.25-0.719c0.328,0.042,0.581,0.062,0.758,0.062c0.156,0,0.237-0.06,0.242-0.18v-3.375h-1.18
		c-0.349,0-0.693,0.021-1.031,0.062c0.021-0.12,0.031-0.234,0.031-0.344C92.391,61.301,92.38,61.176,92.36,61.056z M92.821,58.923
		c0.349,0.042,0.692,0.062,1.031,0.062h1.312c0.349,0,0.692-0.021,1.031-0.062c-0.021,0.13-0.031,0.255-0.031,0.375
		s0.01,0.234,0.031,0.344c-0.339-0.042-0.683-0.062-1.031-0.062h-1.312c-0.339,0-0.683,0.021-1.031,0.062
		c0.021-0.109,0.031-0.224,0.031-0.344S92.841,59.053,92.821,58.923z"/>
</g>
<line class="st3" x1="200.112" y1="62.388" x2="196.675" y2="62.388"/>
<polyline class="st3" points="212.925,62.388 216.362,62.388 220.425,62.388 "/>
<g>
	<path d="M221.944,60.195c0.297,0.042,0.591,0.062,0.883,0.062h0.281v-1.133c0-0.161-0.011-0.325-0.031-0.492
		c0.198,0.021,0.417,0.031,0.656,0.031c-0.067,0.151-0.102,0.328-0.102,0.531v1.062h0.031c0.297,0,0.591-0.021,0.883-0.062
		c-0.021,0.104-0.031,0.206-0.031,0.305c0,0.109,0.011,0.214,0.031,0.312c-0.292-0.042-0.586-0.062-0.883-0.062h-0.031v1.719
		c0.323-0.136,0.628-0.281,0.914-0.438c-0.021,0.302-0.031,0.513-0.031,0.633c-0.328,0.109-0.622,0.216-0.883,0.32v2.367
		c0,0.255-0.104,0.425-0.312,0.508c-0.208,0.078-0.508,0.117-0.898,0.117c-0.058-0.25-0.161-0.458-0.312-0.625h0.438
		c0.375,0,0.562-0.097,0.562-0.289v-1.859c-0.526,0.219-0.894,0.401-1.102,0.547c-0.011-0.198-0.07-0.427-0.18-0.688
		c0.448-0.104,0.875-0.231,1.281-0.383v-1.93h-0.281c-0.292,0-0.586,0.021-0.883,0.062c0.021-0.099,0.031-0.203,0.031-0.312
		C221.976,60.401,221.965,60.3,221.944,60.195z M225.796,58.633c0.177,0.036,0.406,0.055,0.688,0.055
		c-0.089,0.312-0.133,0.675-0.133,1.086v0.453h0.789c0.297,0,0.597-0.023,0.898-0.07c-0.042,0.198-0.062,0.396-0.062,0.594
		c0,1.953,0.058,3.141,0.172,3.562c0.125,0.542,0.227,0.812,0.305,0.812c0.036-0.094,0.086-0.438,0.148-1.031
		c0.172,0.219,0.372,0.378,0.602,0.477c-0.219,0.917-0.409,1.375-0.57,1.375c-0.183-0.016-0.375-0.161-0.578-0.438
		c-0.203-0.297-0.359-0.714-0.469-1.25c-0.109-0.636-0.164-1.805-0.164-3.508h-1.07v0.164c0,0.859-0.039,1.575-0.117,2.148
		c0.25,0.188,0.508,0.378,0.773,0.57c-0.192,0.183-0.328,0.356-0.406,0.523c-0.167-0.161-0.325-0.312-0.477-0.453
		c-0.062,0.229-0.128,0.425-0.195,0.586c-0.292,0.641-0.794,1.214-1.508,1.719c-0.13-0.192-0.3-0.339-0.508-0.438
		c0.812-0.516,1.344-1.058,1.594-1.625c0.067-0.167,0.125-0.37,0.172-0.609c-0.328-0.266-0.656-0.5-0.984-0.703
		c0.161-0.136,0.3-0.281,0.414-0.438c0.214,0.167,0.438,0.339,0.672,0.516c0.052-0.5,0.078-1.099,0.078-1.797V60.75h-0.289
		c-0.266,0-0.534,0.021-0.805,0.062c0.021-0.109,0.031-0.224,0.031-0.344c0-0.099-0.011-0.203-0.031-0.312
		c0.271,0.047,0.539,0.07,0.805,0.07h0.289v-0.164C225.858,59.641,225.838,59.164,225.796,58.633z"/>
	<path d="M231.632,58.719c0.198,0.104,0.438,0.19,0.719,0.258c-0.109,0.067-0.231,0.192-0.367,0.375
		c-0.453,0.641-1.008,1.231-1.664,1.773c-0.13-0.156-0.315-0.292-0.555-0.406c0.516-0.312,0.917-0.644,1.203-0.992
		C231.307,59.341,231.527,59.005,231.632,58.719z M232.038,60.352c0.224,0.141,0.466,0.234,0.727,0.281
		c-0.172,0.099-0.356,0.308-0.555,0.625c-0.13,0.239-0.278,0.469-0.445,0.688v2.938c0,0.391,0.021,0.784,0.062,1.18
		c-0.13-0.021-0.255-0.031-0.375-0.031c-0.13,0-0.255,0.011-0.375,0.031c0.042-0.396,0.062-0.789,0.062-1.18v-2.219
		c-0.276,0.281-0.589,0.56-0.938,0.836c-0.094-0.229-0.208-0.414-0.344-0.555c0.583-0.37,1.047-0.761,1.391-1.172
		C231.604,61.367,231.866,60.894,232.038,60.352z M232.827,61.227c0.339,0.042,0.683,0.062,1.031,0.062h2.344
		c0.344,0,0.685-0.021,1.023-0.062c-0.016,0.12-0.023,0.245-0.023,0.375c0,0.109,0.008,0.224,0.023,0.344
		c-0.339-0.042-0.68-0.062-1.023-0.062h-0.539v3.719c0,0.172-0.097,0.297-0.289,0.375c-0.177,0.078-0.539,0.117-1.086,0.117
		c-0.011-0.266-0.094-0.505-0.25-0.719c0.328,0.042,0.581,0.062,0.758,0.062c0.156,0,0.237-0.06,0.242-0.18v-3.375h-1.18
		c-0.349,0-0.692,0.021-1.031,0.062c0.021-0.12,0.031-0.234,0.031-0.344C232.858,61.472,232.848,61.347,232.827,61.227z
		 M233.288,59.094c0.349,0.042,0.692,0.062,1.031,0.062h1.312c0.349,0,0.692-0.021,1.031-0.062c-0.021,0.13-0.031,0.255-0.031,0.375
		s0.011,0.234,0.031,0.344c-0.339-0.042-0.683-0.062-1.031-0.062h-1.312c-0.339,0-0.683,0.021-1.031,0.062
		c0.021-0.109,0.031-0.224,0.031-0.344S233.309,59.224,233.288,59.094z"/>
</g>
<path d="M203.345,62.523l-3.569,1.547v-3.079L203.345,62.523z"/>
<path d="M209.541,62.538l3.569-1.547v3.079L209.541,62.538z"/>
<line class="st3" x1="155.06" y1="97.828" x2="151.622" y2="97.828"/>
<polyline class="st3" points="168.289,97.828 171.727,97.828 175.789,97.828 "/>
<g>
	<path d="M176.891,95.637c0.297,0.042,0.591,0.062,0.883,0.062h0.281v-1.133c0-0.161-0.011-0.325-0.031-0.492
		c0.198,0.021,0.417,0.031,0.656,0.031c-0.067,0.151-0.102,0.328-0.102,0.531v1.062h0.031c0.297,0,0.591-0.021,0.883-0.062
		c-0.021,0.104-0.031,0.206-0.031,0.305c0,0.109,0.011,0.214,0.031,0.312c-0.292-0.042-0.586-0.062-0.883-0.062h-0.031v1.719
		c0.323-0.136,0.628-0.281,0.914-0.438c-0.021,0.302-0.031,0.513-0.031,0.633c-0.328,0.109-0.622,0.216-0.883,0.32v2.367
		c0,0.255-0.104,0.425-0.312,0.508c-0.208,0.078-0.508,0.117-0.898,0.117c-0.058-0.25-0.161-0.458-0.312-0.625h0.438
		c0.375,0,0.562-0.097,0.562-0.289v-1.859c-0.526,0.219-0.894,0.401-1.102,0.547c-0.011-0.198-0.07-0.427-0.18-0.688
		c0.448-0.104,0.875-0.231,1.281-0.383v-1.93h-0.281c-0.292,0-0.586,0.021-0.883,0.062c0.021-0.099,0.031-0.203,0.031-0.312
		C176.922,95.843,176.911,95.741,176.891,95.637z M180.742,94.074c0.177,0.036,0.406,0.055,0.688,0.055
		c-0.089,0.312-0.133,0.675-0.133,1.086v0.453h0.789c0.297,0,0.597-0.023,0.898-0.07c-0.042,0.198-0.062,0.396-0.062,0.594
		c0,1.953,0.058,3.141,0.172,3.562c0.125,0.542,0.227,0.812,0.305,0.812c0.036-0.094,0.086-0.438,0.148-1.031
		c0.172,0.219,0.372,0.378,0.602,0.477c-0.219,0.917-0.409,1.375-0.57,1.375c-0.183-0.016-0.375-0.161-0.578-0.438
		c-0.203-0.297-0.359-0.714-0.469-1.25c-0.109-0.636-0.164-1.805-0.164-3.508h-1.07v0.164c0,0.859-0.039,1.575-0.117,2.148
		c0.25,0.188,0.508,0.378,0.773,0.57c-0.192,0.183-0.328,0.356-0.406,0.523c-0.167-0.161-0.325-0.312-0.477-0.453
		c-0.062,0.229-0.128,0.425-0.195,0.586c-0.292,0.641-0.794,1.214-1.508,1.719c-0.13-0.192-0.3-0.339-0.508-0.438
		c0.812-0.516,1.344-1.058,1.594-1.625c0.067-0.167,0.125-0.37,0.172-0.609c-0.328-0.266-0.656-0.5-0.984-0.703
		c0.161-0.136,0.3-0.281,0.414-0.438c0.214,0.167,0.438,0.339,0.672,0.516c0.052-0.5,0.078-1.099,0.078-1.797v-0.164h-0.289
		c-0.266,0-0.534,0.021-0.805,0.062c0.021-0.109,0.031-0.224,0.031-0.344c0-0.099-0.011-0.203-0.031-0.312
		c0.271,0.047,0.539,0.07,0.805,0.07h0.289v-0.164C180.805,95.082,180.784,94.605,180.742,94.074z"/>
	<path d="M186.578,94.16c0.198,0.104,0.438,0.19,0.719,0.258c-0.109,0.067-0.231,0.192-0.367,0.375
		c-0.453,0.641-1.008,1.231-1.664,1.773c-0.13-0.156-0.315-0.292-0.555-0.406c0.516-0.312,0.917-0.644,1.203-0.992
		C186.253,94.782,186.474,94.446,186.578,94.16z M186.984,95.793c0.224,0.141,0.466,0.234,0.727,0.281
		c-0.172,0.099-0.356,0.308-0.555,0.625c-0.13,0.239-0.278,0.469-0.445,0.688v2.938c0,0.391,0.021,0.784,0.062,1.18
		c-0.13-0.021-0.255-0.031-0.375-0.031c-0.13,0-0.255,0.011-0.375,0.031c0.042-0.396,0.062-0.789,0.062-1.18v-2.219
		c-0.276,0.281-0.589,0.56-0.938,0.836c-0.094-0.229-0.208-0.414-0.344-0.555c0.583-0.37,1.047-0.761,1.391-1.172
		C186.55,96.809,186.812,96.335,186.984,95.793z M187.773,96.668c0.339,0.042,0.683,0.062,1.031,0.062h2.344
		c0.344,0,0.685-0.021,1.023-0.062c-0.016,0.12-0.023,0.245-0.023,0.375c0,0.109,0.008,0.224,0.023,0.344
		c-0.339-0.042-0.68-0.062-1.023-0.062h-0.539v3.719c0,0.172-0.097,0.297-0.289,0.375c-0.177,0.078-0.539,0.117-1.086,0.117
		c-0.011-0.266-0.094-0.505-0.25-0.719c0.328,0.042,0.581,0.062,0.758,0.062c0.156,0,0.237-0.06,0.242-0.18v-3.375h-1.18
		c-0.349,0-0.692,0.021-1.031,0.062c0.021-0.12,0.031-0.234,0.031-0.344C187.805,96.913,187.794,96.788,187.773,96.668z
		 M188.234,94.535c0.349,0.042,0.692,0.062,1.031,0.062h1.312c0.349,0,0.692-0.021,1.031-0.062c-0.021,0.13-0.031,0.255-0.031,0.375
		s0.011,0.234,0.031,0.344c-0.339-0.042-0.683-0.062-1.031-0.062h-1.312c-0.339,0-0.683,0.021-1.031,0.062
		c0.021-0.109,0.031-0.224,0.031-0.344S188.255,94.665,188.234,94.535z"/>
</g>
<path d="M158.292,97.965l-3.57,1.547v-3.08L158.292,97.965z"/>
<path d="M164.904,97.979l3.57-1.547v3.08L164.904,97.979z"/>
<line class="st3" x1="245.008" y1="97.805" x2="241.571" y2="97.805"/>
<polyline class="st3" points="258.212,97.805 261.649,97.805 265.712,97.805 "/>
<g>
	<path d="M266.839,95.612c0.297,0.042,0.591,0.062,0.883,0.062h0.281v-1.133c0-0.161-0.011-0.325-0.031-0.492
		c0.198,0.021,0.417,0.031,0.656,0.031c-0.067,0.151-0.102,0.328-0.102,0.531v1.062h0.031c0.297,0,0.591-0.021,0.883-0.062
		c-0.021,0.104-0.031,0.206-0.031,0.305c0,0.109,0.011,0.214,0.031,0.312c-0.292-0.042-0.586-0.062-0.883-0.062h-0.031v1.719
		c0.323-0.136,0.628-0.281,0.914-0.438c-0.021,0.302-0.031,0.513-0.031,0.633c-0.328,0.109-0.622,0.216-0.883,0.32v2.367
		c0,0.255-0.104,0.425-0.312,0.508c-0.208,0.078-0.508,0.117-0.898,0.117c-0.058-0.25-0.161-0.458-0.312-0.625h0.438
		c0.375,0,0.562-0.097,0.562-0.289V98.62c-0.526,0.219-0.894,0.401-1.102,0.547c-0.011-0.198-0.07-0.427-0.18-0.688
		c0.448-0.104,0.875-0.231,1.281-0.383v-1.93h-0.281c-0.292,0-0.586,0.021-0.883,0.062c0.021-0.099,0.031-0.203,0.031-0.312
		C266.87,95.818,266.859,95.717,266.839,95.612z M270.69,94.05c0.177,0.036,0.406,0.055,0.688,0.055
		c-0.089,0.312-0.133,0.675-0.133,1.086v0.453h0.789c0.297,0,0.597-0.023,0.898-0.07c-0.042,0.198-0.062,0.396-0.062,0.594
		c0,1.953,0.058,3.141,0.172,3.562c0.125,0.542,0.227,0.812,0.305,0.812c0.036-0.094,0.086-0.438,0.148-1.031
		c0.172,0.219,0.372,0.378,0.602,0.477c-0.219,0.917-0.409,1.375-0.57,1.375c-0.183-0.016-0.375-0.161-0.578-0.438
		c-0.203-0.297-0.359-0.714-0.469-1.25c-0.109-0.636-0.164-1.805-0.164-3.508h-1.07v0.164c0,0.859-0.039,1.575-0.117,2.148
		c0.25,0.188,0.508,0.378,0.773,0.57c-0.192,0.183-0.328,0.356-0.406,0.523c-0.167-0.161-0.325-0.312-0.477-0.453
		c-0.062,0.229-0.128,0.425-0.195,0.586c-0.292,0.641-0.794,1.214-1.508,1.719c-0.13-0.192-0.3-0.339-0.508-0.438
		c0.812-0.516,1.344-1.058,1.594-1.625c0.067-0.167,0.125-0.37,0.172-0.609c-0.328-0.266-0.656-0.5-0.984-0.703
		c0.161-0.136,0.3-0.281,0.414-0.438c0.214,0.167,0.438,0.339,0.672,0.516c0.052-0.5,0.078-1.099,0.078-1.797v-0.164h-0.289
		c-0.266,0-0.534,0.021-0.805,0.062c0.021-0.109,0.031-0.224,0.031-0.344c0-0.099-0.011-0.203-0.031-0.312
		c0.271,0.047,0.539,0.07,0.805,0.07h0.289v-0.164C270.753,95.058,270.732,94.581,270.69,94.05z"/>
	<path d="M276.526,94.136c0.198,0.104,0.438,0.19,0.719,0.258c-0.109,0.067-0.231,0.192-0.367,0.375
		c-0.453,0.641-1.008,1.231-1.664,1.773c-0.13-0.156-0.315-0.292-0.555-0.406c0.516-0.312,0.917-0.644,1.203-0.992
		C276.201,94.758,276.422,94.422,276.526,94.136z M276.933,95.769c0.224,0.141,0.466,0.234,0.727,0.281
		c-0.172,0.099-0.356,0.308-0.555,0.625c-0.13,0.239-0.278,0.469-0.445,0.688v2.938c0,0.391,0.021,0.784,0.062,1.18
		c-0.13-0.021-0.255-0.031-0.375-0.031c-0.13,0-0.255,0.011-0.375,0.031c0.042-0.396,0.062-0.789,0.062-1.18v-2.219
		c-0.276,0.281-0.589,0.56-0.938,0.836c-0.094-0.229-0.208-0.414-0.344-0.555c0.583-0.37,1.047-0.761,1.391-1.172
		C276.498,96.784,276.761,96.311,276.933,95.769z M277.722,96.644c0.339,0.042,0.683,0.062,1.031,0.062h2.344
		c0.344,0,0.685-0.021,1.023-0.062c-0.016,0.12-0.023,0.245-0.023,0.375c0,0.109,0.008,0.224,0.023,0.344
		c-0.339-0.042-0.68-0.062-1.023-0.062h-0.539v3.719c0,0.172-0.097,0.297-0.289,0.375c-0.177,0.078-0.539,0.117-1.086,0.117
		c-0.011-0.266-0.094-0.505-0.25-0.719c0.328,0.042,0.581,0.062,0.758,0.062c0.156,0,0.237-0.06,0.242-0.18V97.3h-1.18
		c-0.349,0-0.692,0.021-1.031,0.062c0.021-0.12,0.031-0.234,0.031-0.344C277.753,96.889,277.742,96.764,277.722,96.644z
		 M278.183,94.511c0.349,0.042,0.692,0.062,1.031,0.062h1.312c0.349,0,0.692-0.021,1.031-0.062c-0.021,0.13-0.031,0.255-0.031,0.375
		s0.011,0.234,0.031,0.344c-0.339-0.042-0.683-0.062-1.031-0.062h-1.312c-0.339,0-0.683,0.021-1.031,0.062
		c0.021-0.109,0.031-0.224,0.031-0.344S278.203,94.641,278.183,94.511z"/>
</g>
<path d="M248.241,97.941l-3.571,1.547v-3.08L248.241,97.941z"/>
<path d="M254.827,97.954l3.571-1.547v3.08L254.827,97.954z"/>
<polyline class="st3" points="52.192,70.867 63.427,70.867 63.428,53.151 69.044,53.151 69.045,70.867 80.28,70.867 192.628,70.867 
	203.862,70.867 203.863,53.151 209.479,53.151 209.48,70.867 282.507,70.867 "/>
<polyline class="st3" points="52.18,106.284 158.923,106.284 158.924,88.568 164.54,88.568 164.54,106.284 175.775,106.284 
	237.568,106.284 248.802,106.284 248.804,88.568 254.419,88.568 254.42,106.284 282.507,106.284 "/>
</svg>
