<?xml version="1.0" encoding="utf-8"?>
<!-- Generator: Adobe Illustrator 28.2.0, SVG Export Plug-In . SVG Version: 6.00 Build 0)  -->
<svg version="1.1" xmlns="http://www.w3.org/2000/svg" xmlns:xlink="http://www.w3.org/1999/xlink" x="0px" y="0px"
	 width="195.188px" height="105.396px" viewBox="0 0 195.188 105.396" style="enable-background:new 0 0 195.188 105.396;"
	 xml:space="preserve">
<style type="text/css">
	.st0{fill:none;stroke:#B3B3B3;stroke-width:2.5;}
	.st1{fill:none;stroke:#000000;}
	.st2{fill:#FFFFFF;}
	.st3{fill:#FFFFFF;stroke:#000000;}
	.st4{fill:#231815;}
</style>
<g id="レイヤー_1">
</g>
<g id="图层_1">
	<path class="st0" d="M99.316,104.146c9.763,0,17.677-7.914,17.677-17.677c0-9.765-7.914-17.678-17.677-17.678
		c-9.763,0-17.678,7.914-17.678,17.678C81.637,96.232,89.552,104.146,99.316,104.146z"/>
	<path class="st0" d="M99.316,48.725c9.763,0,17.677-7.915,17.677-17.678c0-9.763-7.914-17.677-17.677-17.677
		c-9.763,0-17.678,7.914-17.678,17.677C81.637,40.81,89.552,48.725,99.316,48.725z"/>
	<line class="st1" x1="13.979" y1="47.834" x2="194.688" y2="47.834"/>
	<line class="st1" x1="13.979" y1="14.902" x2="194.688" y2="14.902"/>
	<g>
		<rect x="162.693" y="11.357" class="st2" width="28.346" height="7.087"/>
		<line class="st1" x1="191.039" y1="11.357" x2="191.039" y2="18.445"/>
		<line class="st1" x1="162.693" y1="18.445" x2="162.693" y2="11.357"/>
	</g>
	<line class="st1" x1="13.979" y1="87.308" x2="194.688" y2="87.308"/>
	<g>
		<path d="M20.662,8.313h-0.775V2.572h2.655c0.943,0,1.887,0.328,1.887,1.543c0,0.848-0.432,1.16-0.8,1.375
			c0.328,0.136,0.656,0.28,0.688,1.079l0.048,1.04c0.008,0.32,0.048,0.44,0.288,0.576v0.128H23.7
			c-0.112-0.352-0.136-1.223-0.136-1.439c0-0.472-0.096-1.023-1.023-1.023h-1.879V8.313z M20.662,5.186h1.799
			c0.567,0,1.167-0.144,1.167-0.991c0-0.888-0.647-0.959-1.031-0.959h-1.935V5.186z"/>
		<path d="M27.181,8.464c-1.615,0-1.927-1.719-1.927-2.886c0-1.167,0.312-2.887,1.927-2.887c1.615,0,1.927,1.719,1.927,2.887
			C29.108,6.745,28.796,8.464,27.181,8.464z M27.181,3.323c-0.808,0-1.175,0.848-1.175,2.255s0.368,2.255,1.175,2.255
			s1.175-0.848,1.175-2.255S27.989,3.323,27.181,3.323z"/>
		<path d="M31.629,8.464c-1.615,0-1.927-1.719-1.927-2.886c0-1.167,0.312-2.887,1.927-2.887s1.927,1.719,1.927,2.887
			C33.556,6.745,33.244,8.464,31.629,8.464z M31.629,3.323c-0.808,0-1.175,0.848-1.175,2.255s0.368,2.255,1.175,2.255
			s1.175-0.848,1.175-2.255S32.437,3.323,31.629,3.323z"/>
		<path d="M36.077,8.464c-1.615,0-1.927-1.719-1.927-2.886c0-1.167,0.312-2.887,1.927-2.887s1.927,1.719,1.927,2.887
			C38.004,6.745,37.692,8.464,36.077,8.464z M36.077,3.323c-0.808,0-1.175,0.848-1.175,2.255s0.368,2.255,1.175,2.255
			s1.175-0.848,1.175-2.255S36.885,3.323,36.077,3.323z"/>
	</g>
	<g>
		<path d="M166.991,8.313h-0.776V2.572h2.655c0.943,0,1.887,0.328,1.887,1.543c0,0.848-0.432,1.16-0.8,1.375
			c0.328,0.136,0.656,0.28,0.688,1.079l0.049,1.04c0.008,0.32,0.048,0.44,0.287,0.576v0.128h-0.951
			c-0.112-0.352-0.136-1.223-0.136-1.439c0-0.472-0.097-1.023-1.023-1.023h-1.879V8.313z M166.991,5.186h1.799
			c0.567,0,1.167-0.144,1.167-0.991c0-0.888-0.647-0.959-1.031-0.959h-1.935V5.186z"/>
		<path d="M174.157,8.313h-0.751v-3.99h-1.312v-0.56c0.911-0.064,1.287-0.152,1.511-1.072h0.552V8.313z"/>
		<path d="M177.519,8.464c-1.615,0-1.927-1.719-1.927-2.886c0-1.167,0.312-2.887,1.927-2.887s1.927,1.719,1.927,2.887
			C179.445,6.745,179.134,8.464,177.519,8.464z M177.519,3.323c-0.808,0-1.175,0.848-1.175,2.255s0.367,2.255,1.175,2.255
			s1.176-0.848,1.176-2.255S178.326,3.323,177.519,3.323z"/>
		<path d="M181.967,8.464c-1.615,0-1.927-1.719-1.927-2.886c0-1.167,0.312-2.887,1.927-2.887s1.927,1.719,1.927,2.887
			C183.894,6.745,183.582,8.464,181.967,8.464z M181.967,3.323c-0.808,0-1.175,0.848-1.175,2.255s0.367,2.255,1.175,2.255
			s1.176-0.848,1.176-2.255S182.774,3.323,181.967,3.323z"/>
		<path d="M186.414,8.464c-1.615,0-1.927-1.719-1.927-2.886c0-1.167,0.312-2.887,1.927-2.887s1.927,1.719,1.927,2.887
			C188.341,6.745,188.029,8.464,186.414,8.464z M186.414,3.323c-0.808,0-1.175,0.848-1.175,2.255s0.367,2.255,1.175,2.255
			s1.176-0.848,1.176-2.255S187.222,3.323,186.414,3.323z"/>
	</g>
	<g>
		<path d="M18.658,40.813h-0.775v-5.741h2.655c0.943,0,1.887,0.328,1.887,1.543c0,0.848-0.432,1.16-0.8,1.375
			c0.328,0.136,0.656,0.28,0.688,1.079l0.048,1.04c0.008,0.32,0.048,0.44,0.288,0.576v0.128h-0.951
			c-0.112-0.352-0.136-1.223-0.136-1.439c0-0.472-0.096-1.023-1.023-1.023h-1.879V40.813z M18.658,37.686h1.799
			c0.567,0,1.167-0.144,1.167-0.991c0-0.888-0.647-0.959-1.031-0.959h-1.935V37.686z"/>
		<path d="M25.825,40.813h-0.752v-3.99h-1.311v-0.56c0.912-0.064,1.287-0.152,1.511-1.072h0.552V40.813z"/>
		<path d="M29.186,40.964c-1.615,0-1.927-1.719-1.927-2.886c0-1.167,0.312-2.887,1.927-2.887s1.927,1.719,1.927,2.887
			C31.113,39.245,30.801,40.964,29.186,40.964z M29.186,35.823c-0.808,0-1.175,0.848-1.175,2.255s0.368,2.255,1.175,2.255
			s1.175-0.848,1.175-2.255S29.993,35.823,29.186,35.823z"/>
		<path d="M33.633,40.964c-1.615,0-1.927-1.719-1.927-2.886c0-1.167,0.312-2.887,1.927-2.887c1.615,0,1.927,1.719,1.927,2.887
			C35.561,39.245,35.249,40.964,33.633,40.964z M33.633,35.823c-0.808,0-1.175,0.848-1.175,2.255s0.368,2.255,1.175,2.255
			s1.175-0.848,1.175-2.255S34.441,35.823,33.633,35.823z"/>
		<path d="M38.081,40.964c-1.615,0-1.927-1.719-1.927-2.886c0-1.167,0.312-2.887,1.927-2.887s1.927,1.719,1.927,2.887
			C40.008,39.245,39.696,40.964,38.081,40.964z M38.081,35.823c-0.808,0-1.175,0.848-1.175,2.255s0.368,2.255,1.175,2.255
			s1.175-0.848,1.175-2.255S38.889,35.823,38.081,35.823z"/>
	</g>
	<g>
		<path d="M20.662,80.648h-0.775v-5.741h2.655c0.943,0,1.887,0.328,1.887,1.544c0,0.847-0.432,1.159-0.8,1.375
			c0.328,0.136,0.656,0.279,0.688,1.079l0.048,1.04c0.008,0.319,0.048,0.439,0.288,0.575v0.128H23.7
			c-0.112-0.352-0.136-1.224-0.136-1.439c0-0.472-0.096-1.023-1.023-1.023h-1.879V80.648z M20.662,77.522h1.799
			c0.567,0,1.167-0.145,1.167-0.992c0-0.887-0.647-0.959-1.031-0.959h-1.935V77.522z"/>
		<path d="M27.181,80.8c-1.615,0-1.927-1.72-1.927-2.887c0-1.168,0.312-2.887,1.927-2.887c1.615,0,1.927,1.719,1.927,2.887
			C29.108,79.081,28.796,80.8,27.181,80.8z M27.181,75.659c-0.808,0-1.175,0.848-1.175,2.255s0.368,2.255,1.175,2.255
			s1.175-0.848,1.175-2.255S27.989,75.659,27.181,75.659z"/>
		<path d="M31.629,80.8c-1.615,0-1.927-1.72-1.927-2.887c0-1.168,0.312-2.887,1.927-2.887s1.927,1.719,1.927,2.887
			C33.556,79.081,33.244,80.8,31.629,80.8z M31.629,75.659c-0.808,0-1.175,0.848-1.175,2.255s0.368,2.255,1.175,2.255
			s1.175-0.848,1.175-2.255S32.437,75.659,31.629,75.659z"/>
		<path d="M36.077,80.8c-1.615,0-1.927-1.72-1.927-2.887c0-1.168,0.312-2.887,1.927-2.887s1.927,1.719,1.927,2.887
			C38.004,79.081,37.692,80.8,36.077,80.8z M36.077,75.659c-0.808,0-1.175,0.848-1.175,2.255s0.368,2.255,1.175,2.255
			s1.175-0.848,1.175-2.255S36.885,75.659,36.077,75.659z"/>
	</g>
	<g>
		<path d="M53.577,80.648h-0.775v-5.741h2.654c0.944,0,1.887,0.328,1.887,1.544c0,0.847-0.432,1.159-0.799,1.375
			c0.328,0.136,0.655,0.279,0.688,1.079l0.048,1.04c0.008,0.319,0.048,0.439,0.288,0.575v0.128h-0.952
			c-0.112-0.352-0.136-1.224-0.136-1.439c0-0.472-0.096-1.023-1.023-1.023h-1.879V80.648z M53.577,77.522h1.799
			c0.567,0,1.167-0.145,1.167-0.992c0-0.887-0.648-0.959-1.032-0.959h-1.935V77.522z"/>
		<path d="M60.745,80.648h-0.752v-3.99h-1.311v-0.56c0.912-0.063,1.287-0.151,1.511-1.071h0.552V80.648z"/>
		<path d="M64.104,80.8c-1.615,0-1.927-1.72-1.927-2.887c0-1.168,0.312-2.887,1.927-2.887s1.927,1.719,1.927,2.887
			C66.032,79.081,65.72,80.8,64.104,80.8z M64.104,75.659c-0.808,0-1.175,0.848-1.175,2.255s0.368,2.255,1.175,2.255
			s1.175-0.848,1.175-2.255S64.912,75.659,64.104,75.659z"/>
		<path d="M68.553,80.8c-1.615,0-1.927-1.72-1.927-2.887c0-1.168,0.312-2.887,1.927-2.887s1.927,1.719,1.927,2.887
			C70.48,79.081,70.168,80.8,68.553,80.8z M68.553,75.659c-0.808,0-1.175,0.848-1.175,2.255s0.368,2.255,1.175,2.255
			s1.175-0.848,1.175-2.255S69.36,75.659,68.553,75.659z"/>
		<path d="M73.001,80.8c-1.615,0-1.927-1.72-1.927-2.887c0-1.168,0.312-2.887,1.927-2.887s1.927,1.719,1.927,2.887
			C74.928,79.081,74.616,80.8,73.001,80.8z M73.001,75.659c-0.808,0-1.175,0.848-1.175,2.255s0.368,2.255,1.175,2.255
			s1.175-0.848,1.175-2.255S73.809,75.659,73.001,75.659z"/>
	</g>
	<g>
		<path d="M88.657,80.648h-0.775v-5.741h2.654c0.944,0,1.887,0.328,1.887,1.544c0,0.847-0.432,1.159-0.799,1.375
			c0.328,0.136,0.655,0.279,0.688,1.079l0.048,1.04c0.008,0.319,0.048,0.439,0.288,0.575v0.128h-0.952
			c-0.112-0.352-0.136-1.224-0.136-1.439c0-0.472-0.096-1.023-1.023-1.023h-1.879V80.648z M88.657,77.522h1.799
			c0.567,0,1.167-0.145,1.167-0.992c0-0.887-0.648-0.959-1.032-0.959h-1.935V77.522z"/>
		<path d="M95.825,80.648h-0.752v-3.99h-1.311v-0.56c0.912-0.063,1.287-0.151,1.511-1.071h0.552V80.648z"/>
		<path d="M99.185,80.8c-1.615,0-1.927-1.72-1.927-2.887c0-1.168,0.312-2.887,1.927-2.887s1.927,1.719,1.927,2.887
			C101.111,79.081,100.8,80.8,99.185,80.8z M99.185,75.659c-0.808,0-1.175,0.848-1.175,2.255s0.367,2.255,1.175,2.255
			s1.176-0.848,1.176-2.255S99.992,75.659,99.185,75.659z"/>
		<path d="M103.633,80.8c-1.615,0-1.927-1.72-1.927-2.887c0-1.168,0.312-2.887,1.927-2.887s1.927,1.719,1.927,2.887
			C105.56,79.081,105.248,80.8,103.633,80.8z M103.633,75.659c-0.808,0-1.175,0.848-1.175,2.255s0.367,2.255,1.175,2.255
			s1.176-0.848,1.176-2.255S104.44,75.659,103.633,75.659z"/>
		<path d="M108.081,80.8c-1.615,0-1.927-1.72-1.927-2.887c0-1.168,0.312-2.887,1.927-2.887s1.927,1.719,1.927,2.887
			C110.008,79.081,109.696,80.8,108.081,80.8z M108.081,75.659c-0.808,0-1.175,0.848-1.175,2.255s0.367,2.255,1.175,2.255
			s1.176-0.848,1.176-2.255S108.889,75.659,108.081,75.659z"/>
	</g>
	<line class="st1" x1="13.979" y1="73.734" x2="13.979" y2="100.309"/>
	<line class="st1" x1="194.688" y1="73.734" x2="194.688" y2="100.309"/>
	<g>
		<rect x="24.609" y="83.765" class="st2" width="7.087" height="7.087"/>
		<line class="st1" x1="31.695" y1="83.765" x2="31.695" y2="90.852"/>
		<line class="st1" x1="24.609" y1="90.852" x2="24.609" y2="83.765"/>
	</g>
	<path class="st3" d="M180.513,87.308c0,1.957-1.585,3.542-3.542,3.542c-1.958,0-3.542-1.586-3.542-3.542
		c0-1.958,1.584-3.544,3.542-3.544C178.929,83.765,180.513,85.35,180.513,87.308z"/>
	<g>
		<path d="M168.801,80.648h-0.775v-5.741h2.654c0.943,0,1.887,0.328,1.887,1.544c0,0.847-0.432,1.159-0.8,1.375
			c0.328,0.136,0.656,0.279,0.688,1.079l0.048,1.04c0.009,0.319,0.049,0.439,0.288,0.575v0.128h-0.951
			c-0.112-0.352-0.136-1.224-0.136-1.439c0-0.472-0.096-1.023-1.023-1.023h-1.879V80.648z M168.801,77.522h1.799
			c0.567,0,1.167-0.145,1.167-0.992c0-0.887-0.647-0.959-1.031-0.959h-1.935V77.522z"/>
		<path d="M174.273,77.378c0.239-0.184,0.583-0.352,1.087-0.352c0.911,0,1.847,0.64,1.847,1.799c0,0.624-0.279,1.976-2.038,1.976
			c-0.736,0-1.68-0.296-1.815-1.552h0.728c0.072,0.656,0.56,0.943,1.191,0.943c0.728,0,1.184-0.583,1.184-1.287
			c0-0.808-0.552-1.247-1.247-1.247c-0.408,0-0.776,0.191-1.04,0.535l-0.607-0.031l0.424-3.015h2.91v0.688h-2.383L174.273,77.378z"
			/>
		<path d="M179.768,80.8c-1.615,0-1.927-1.72-1.927-2.887c0-1.168,0.312-2.887,1.927-2.887s1.927,1.719,1.927,2.887
			C181.694,79.081,181.383,80.8,179.768,80.8z M179.768,75.659c-0.808,0-1.175,0.848-1.175,2.255s0.367,2.255,1.175,2.255
			s1.176-0.848,1.176-2.255S180.575,75.659,179.768,75.659z"/>
		<path d="M184.216,80.8c-1.615,0-1.927-1.72-1.927-2.887c0-1.168,0.312-2.887,1.927-2.887s1.927,1.719,1.927,2.887
			C186.143,79.081,185.831,80.8,184.216,80.8z M184.216,75.659c-0.808,0-1.175,0.848-1.175,2.255s0.367,2.255,1.175,2.255
			s1.176-0.848,1.176-2.255S185.023,75.659,184.216,75.659z"/>
	</g>
	<line class="st1" x1="13.979" y1="0" x2="13.979" y2="62.007"/>
	<line class="st1" x1="194.688" y1="0" x2="194.688" y2="62.007"/>
	<g>
		<rect x="24.609" y="11.357" class="st2" width="7.087" height="7.087"/>
		<line class="st1" x1="31.695" y1="11.357" x2="31.695" y2="18.445"/>
		<line class="st1" x1="24.609" y1="18.445" x2="24.609" y2="11.357"/>
	</g>
	<g>
		<rect x="24.609" y="44.292" class="st2" width="7.087" height="7.085"/>
		<line class="st1" x1="31.695" y1="44.292" x2="31.695" y2="51.377"/>
		<line class="st1" x1="24.609" y1="51.377" x2="24.609" y2="44.292"/>
	</g>
	<circle class="st3" cx="176.971" cy="47.834" r="3.543"/>
	<g>
		<path d="M168.801,41.632h-0.775v-5.741h2.654c0.943,0,1.887,0.328,1.887,1.543c0,0.848-0.432,1.16-0.8,1.375
			c0.328,0.136,0.656,0.28,0.688,1.079l0.048,1.04c0.009,0.32,0.049,0.44,0.288,0.576v0.128h-0.951
			c-0.112-0.352-0.136-1.223-0.136-1.439c0-0.472-0.096-1.023-1.023-1.023h-1.879V41.632z M168.801,38.506h1.799
			c0.567,0,1.167-0.144,1.167-0.991c0-0.888-0.647-0.959-1.031-0.959h-1.935V38.506z"/>
		<path d="M174.273,38.362c0.239-0.184,0.583-0.352,1.087-0.352c0.911,0,1.847,0.64,1.847,1.799c0,0.624-0.279,1.975-2.038,1.975
			c-0.736,0-1.68-0.296-1.815-1.551h0.728c0.072,0.656,0.56,0.944,1.191,0.944c0.728,0,1.184-0.584,1.184-1.288
			c0-0.808-0.552-1.247-1.247-1.247c-0.408,0-0.776,0.192-1.04,0.536l-0.607-0.032l0.424-3.014h2.91v0.688h-2.383L174.273,38.362z"
			/>
		<path d="M179.768,41.784c-1.615,0-1.927-1.719-1.927-2.886c0-1.167,0.312-2.887,1.927-2.887s1.927,1.719,1.927,2.887
			C181.694,40.065,181.383,41.784,179.768,41.784z M179.768,36.643c-0.808,0-1.175,0.848-1.175,2.255s0.367,2.255,1.175,2.255
			s1.176-0.848,1.176-2.255S180.575,36.643,179.768,36.643z"/>
		<path d="M184.216,41.784c-1.615,0-1.927-1.719-1.927-2.886c0-1.167,0.312-2.887,1.927-2.887s1.927,1.719,1.927,2.887
			C186.143,40.065,185.831,41.784,184.216,41.784z M184.216,36.643c-0.808,0-1.175,0.848-1.175,2.255s0.367,2.255,1.175,2.255
			s1.176-0.848,1.176-2.255S185.023,36.643,184.216,36.643z"/>
	</g>
	<g>
		<rect x="95.475" y="83.782" class="st2" width="7.086" height="7.086"/>
		<line class="st1" x1="102.561" y1="83.782" x2="102.561" y2="90.868"/>
		<line class="st1" x1="95.475" y1="90.868" x2="95.475" y2="83.782"/>
	</g>
	<g>
		<rect x="49.412" y="83.782" class="st2" width="28.346" height="7.086"/>
		<line class="st1" x1="77.758" y1="83.782" x2="77.758" y2="90.868"/>
		<line class="st1" x1="49.412" y1="90.868" x2="49.412" y2="83.782"/>
	</g>
	<line class="st3" x1="33.263" y1="84.593" x2="22.414" y2="90.858"/>
	<g>
		<path class="st4" d="M2.383,29.947c-0.68,1.279-1.087,2.047-1.087,3.966c0,1.319,0.456,2.295,1.095,3.55H1.919
			c-0.832-1.248-1.375-2.247-1.375-3.742c0-1.407,0.487-2.542,1.351-3.774H2.383z"/>
		<path class="st4" d="M3.128,35.808v-5.741h0.704v2.087h0.016c0.304-0.44,0.719-0.64,1.207-0.648c1.111,0,1.743,0.912,1.743,2.087
			c0,1-0.416,2.335-1.839,2.335c-0.712,0-1.008-0.408-1.151-0.64H3.792v0.52H3.128z M4.927,32.138c-1.016,0-1.127,1.095-1.127,1.775
			c0,1.111,0.696,1.407,1.144,1.407c0.768,0,1.127-0.696,1.127-1.615C6.07,33.169,6.014,32.138,4.927,32.138z"/>
		<path class="st4" d="M7.392,37.463c0.68-1.279,1.087-2.047,1.087-3.966c0-1.319-0.456-2.295-1.095-3.55h0.472
			c0.832,1.248,1.375,2.247,1.375,3.742c0,1.407-0.487,2.542-1.351,3.774H7.392z"/>
	</g>
	<g>
		<path class="st4" d="M2.607,84.609c-0.68,1.279-1.087,2.047-1.087,3.966c0,1.319,0.456,2.294,1.095,3.55H2.143
			c-0.832-1.247-1.375-2.247-1.375-3.742c0-1.407,0.488-2.543,1.352-3.773H2.607z"/>
		<path class="st4" d="M6.022,87.695c-0.088-0.56-0.4-0.896-0.991-0.896c-0.872,0-1.151,0.831-1.151,1.575
			c0,0.72,0.176,1.607,1.143,1.607c0.472,0,0.879-0.353,1-0.992h0.68c-0.072,0.664-0.48,1.6-1.703,1.6
			c-1.175,0-1.871-0.888-1.871-2.095c0-1.296,0.624-2.327,2.007-2.327c1.096,0,1.511,0.8,1.567,1.527H6.022z"/>
		<path class="st4" d="M7.168,92.125c0.68-1.279,1.087-2.047,1.087-3.966c0-1.319-0.456-2.295-1.095-3.55h0.472
			c0.832,1.247,1.375,2.246,1.375,3.741c0,1.407-0.487,2.543-1.351,3.774H7.168z"/>
	</g>
	<g>
		<path class="st4" d="M54.641,85.198h2.327c1.496,0,2.415,1.136,2.415,2.791c0,1.287-0.56,2.95-2.447,2.95h-2.295V85.198z
			 M55.417,90.275h1.503c1.008,0,1.663-0.791,1.663-2.238s-0.664-2.175-1.719-2.175h-1.447V90.275z"/>
		<path class="st4" d="M61.272,90.939h-0.775v-5.741h0.775V90.939z"/>
		<path class="st4" d="M63.457,90.939h-0.776v-5.741h3.974v0.688h-3.198v1.759h2.814v0.688h-2.814V90.939z"/>
		<path class="st4" d="M72.03,85.198v3.727c0,1.175-0.735,2.167-2.311,2.167c-1.543,0-2.207-0.992-2.207-2.063v-3.83h0.775v3.614
			c0,1.247,0.76,1.591,1.455,1.591c0.712,0,1.511-0.327,1.511-1.575v-3.63H72.03z"/>
	</g>
	<g>
		<path class="st4" d="M167.974,12.567h2.327c1.495,0,2.414,1.135,2.414,2.791c0,1.287-0.56,2.95-2.446,2.95h-2.295V12.567z
			 M168.749,17.644h1.504c1.007,0,1.663-0.792,1.663-2.239s-0.664-2.175-1.72-2.175h-1.447V17.644z"/>
		<path class="st4" d="M174.604,18.308h-0.775v-5.741h0.775V18.308z"/>
		<path class="st4" d="M176.789,18.308h-0.775v-5.741h3.974v0.688h-3.198v1.759h2.814v0.688h-2.814V18.308z"/>
		<path class="st4" d="M180.861,12.567h2.327c1.495,0,2.414,1.135,2.414,2.791c0,1.287-0.56,2.95-2.446,2.95h-2.295V12.567z
			 M181.637,17.644h1.504c1.007,0,1.663-0.792,1.663-2.239s-0.664-2.175-1.72-2.175h-1.447V17.644z"/>
	</g>
	<g>
	</g>
	<g>
	</g>
	<g>
	</g>
	<g>
	</g>
	<g>
	</g>
	<g>
	</g>
	<g>
	</g>
	<g>
	</g>
	<g>
	</g>
	<g>
	</g>
	<g>
	</g>
	<g>
	</g>
	<g>
	</g>
	<g>
	</g>
	<g>
	</g>
</g>
</svg>
