<?xml version="1.0" encoding="utf-8"?>
<!-- Generator: Adobe Illustrator 28.2.0, SVG Export Plug-In . SVG Version: 6.00 Build 0)  -->
<svg version="1.1" xmlns="http://www.w3.org/2000/svg" xmlns:xlink="http://www.w3.org/1999/xlink" x="0px" y="0px"
	 width="426.563px" height="107.919px" viewBox="0 0 426.563 107.919" style="enable-background:new 0 0 426.563 107.919;"
	 xml:space="preserve">
<style type="text/css">
	.st0{fill:#BDC4CD;}
	.st1{fill:none;stroke:#000000;stroke-width:0.5;stroke-miterlimit:10;}
	.st2{fill:none;stroke:#FF0000;stroke-width:1.5;stroke-miterlimit:10;}
	.st3{fill:none;stroke:#008DFF;stroke-width:1.5;stroke-miterlimit:10;}
</style>
<g id="レイヤー_1">
	<rect x="261.164" y="53.132" class="st0" width="79.366" height="36.283"/>
	<rect x="8.891" y="9.475" class="st1" width="39.683" height="18.142"/>
	<rect x="48.574" y="9.475" class="st1" width="39.683" height="18.142"/>
	<rect x="88.257" y="9.475" class="st1" width="39.683" height="18.142"/>
	<rect x="127.94" y="9.475" class="st1" width="39.683" height="18.142"/>
	<rect x="167.623" y="9.475" class="st1" width="39.683" height="18.142"/>
	<g>
		<rect x="221.481" y="53.132" class="st1" width="198.415" height="36.283"/>
		<line class="st1" x1="221.481" y1="71.274" x2="419.895" y2="71.274"/>
		<line class="st1" x1="261.164" y1="89.415" x2="261.164" y2="53.132"/>
		<line class="st1" x1="300.847" y1="89.415" x2="300.847" y2="53.132"/>
		<line class="st1" x1="340.53" y1="89.415" x2="340.53" y2="53.132"/>
		<line class="st1" x1="380.212" y1="89.415" x2="380.212" y2="53.132"/>
		<line class="st1" x1="419.895" y1="89.415" x2="419.895" y2="53.132"/>
	</g>
	<g>
		<g>
			<polyline class="st1" points="218.091,62.203 167.623,62.203 167.623,30.452 			"/>
			<g>
				<polygon points="216.434,60.158 216.093,60.524 217.899,62.202 216.093,63.881 216.434,64.247 218.633,62.202 				"/>
			</g>
		</g>
	</g>
	<g>
		<g>
			<polyline class="st1" points="218.091,80.345 88.257,80.345 88.257,30.452 			"/>
			<g>
				<polygon points="216.434,78.3 216.093,78.666 217.899,80.344 216.093,82.023 216.434,82.389 218.633,80.344 				"/>
			</g>
		</g>
	</g>
	<g>
		<path class="st1" d="M340.53,92.251c0,3.339-17.196,3.339-19.841,3.339c-2.646,0-19.841,0-19.841,3.339
			c0-3.339-17.196-3.339-19.841-3.339c-2.646,0-19.841,0-19.841-3.339"/>
	</g>
</g>
<g id="レイヤー_2">
	<g>
		<g>
			<path d="M228.208,64.806v-5.757h1.967c0.64,0,1.239,0.04,1.775,0.432c0.76,0.552,0.959,1.671,0.959,2.439
				c0,0.759-0.168,1.607-0.695,2.183c-0.527,0.592-1.279,0.704-2.039,0.704H228.208z M228.752,64.342h1.303
				c0.488,0,0.912-0.032,1.352-0.264c0.768-0.392,0.959-1.375,0.959-2.159c0-0.84-0.184-1.759-0.991-2.191
				c-0.344-0.184-0.839-0.216-1.319-0.216h-1.303V64.342z"/>
			<path d="M234.191,63.51c0.152,0.712,0.521,0.976,1.239,0.976c0.696,0,1.023-0.368,1.023-0.768c0-1.199-2.654-0.352-2.654-1.983
				c0-0.688,0.536-1.184,1.455-1.184c0.896,0,1.479,0.368,1.6,1.304h-0.488c-0.088-0.64-0.52-0.872-1.119-0.872
				c-0.607,0-0.936,0.288-0.936,0.711c0,1.127,2.654,0.424,2.654,2.015c0,0.792-0.711,1.207-1.687,1.207s-1.535-0.624-1.575-1.407
				H234.191z"/>
			<path d="M239.367,64.822c-0.112,0.024-0.32,0.096-0.552,0.096c-0.472,0-0.735-0.208-0.735-0.823v-3.031h-0.584v-0.399h0.584
				v-1.151h0.479v1.151h0.775v0.399h-0.775v2.839c0,0.408,0.016,0.583,0.416,0.583c0.128,0,0.264-0.024,0.392-0.056V64.822z"/>
			<path d="M240.288,66.333v-7.436h1.527v0.4H240.8v6.636h0.999v0.4H240.288z"/>
			<path d="M246.351,62.087c0,1.496-0.353,2.831-1.903,2.831c-1.56,0-1.911-1.327-1.911-2.886c0-1.423,0.288-2.862,1.911-2.862
				C246.118,59.169,246.351,60.776,246.351,62.087z M244.432,59.601c-1.12,0-1.384,1.239-1.384,2.486
				c0,1.447,0.32,2.399,1.399,2.399c1.215,0,1.392-1.319,1.392-2.455C245.839,60.816,245.622,59.601,244.432,59.601z"/>
			<path d="M248.607,66.333h-1.527v-0.4h1.016v-6.636h-0.999v-0.4h1.511V66.333z"/>
		</g>
		<g>
			<path d="M228.208,82.939v-5.757h1.967c0.64,0,1.239,0.04,1.775,0.432c0.76,0.552,0.959,1.671,0.959,2.439
				c0,0.759-0.168,1.607-0.695,2.183c-0.527,0.592-1.279,0.704-2.039,0.704H228.208z M228.752,82.475h1.303
				c0.488,0,0.912-0.032,1.352-0.264c0.768-0.392,0.959-1.375,0.959-2.159c0-0.84-0.184-1.759-0.991-2.191
				c-0.344-0.184-0.839-0.216-1.319-0.216h-1.303V82.475z"/>
			<path d="M234.191,81.644c0.152,0.712,0.521,0.976,1.239,0.976c0.696,0,1.023-0.368,1.023-0.768c0-1.199-2.654-0.352-2.654-1.983
				c0-0.688,0.536-1.184,1.455-1.184c0.896,0,1.479,0.368,1.6,1.304h-0.488c-0.088-0.64-0.52-0.872-1.119-0.872
				c-0.607,0-0.936,0.288-0.936,0.711c0,1.127,2.654,0.424,2.654,2.015c0,0.792-0.711,1.207-1.687,1.207s-1.535-0.624-1.575-1.407
				H234.191z"/>
			<path d="M239.367,82.955c-0.112,0.024-0.32,0.096-0.552,0.096c-0.472,0-0.735-0.208-0.735-0.823v-3.031h-0.584v-0.399h0.584
				v-1.151h0.479v1.151h0.775v0.399h-0.775v2.839c0,0.408,0.016,0.583,0.416,0.583c0.128,0,0.264-0.024,0.392-0.056V82.955z"/>
			<path d="M240.288,84.466V77.03h1.527v0.4H240.8v6.636h0.999v0.4H240.288z"/>
			<path d="M244.639,78.75h-1.455v-0.336c0.855-0.056,1.392-0.144,1.56-1.111h0.407v5.637h-0.512V78.75z"/>
			<path d="M248.607,84.466h-1.527v-0.4h1.016V77.43h-0.999v-0.4h1.511V84.466z"/>
		</g>
		<g>
			<path d="M282.453,62.087c0,1.496-0.352,2.831-1.903,2.831c-1.559,0-1.911-1.327-1.911-2.886c0-1.423,0.288-2.862,1.911-2.862
				C282.221,59.169,282.453,60.776,282.453,62.087z M280.534,59.601c-1.12,0-1.384,1.239-1.384,2.486
				c0,1.447,0.32,2.399,1.399,2.399c1.216,0,1.392-1.319,1.392-2.455C281.941,60.816,281.726,59.601,280.534,59.601z"/>
		</g>
		<g>
			<path d="M213.701,50.297h-0.479V44.54h0.479v2.279c0.304-0.504,0.896-0.776,1.479-0.776c1.263,0,1.847,1.032,1.847,2.191
				c0,1.224-0.536,2.175-1.871,2.175c-0.527,0-1.159-0.296-1.439-0.839h-0.016V50.297z M215.101,49.977
				c0.808,0,1.407-0.583,1.415-1.623c0.04-1.04-0.424-1.879-1.415-1.879c-0.872,0-1.399,0.799-1.399,1.735
				C213.701,49.209,214.197,49.977,215.101,49.977z"/>
			<path d="M218.102,45.251V44.54h0.527v0.711H218.102z M218.125,50.297v-4.142h0.479v4.142H218.125z"/>
			<path d="M221.284,50.313c-0.112,0.024-0.32,0.096-0.552,0.096c-0.472,0-0.736-0.208-0.736-0.823v-3.031h-0.583v-0.399h0.583
				v-1.151h0.48v1.151h0.775v0.399h-0.775v2.839c0,0.408,0.016,0.583,0.415,0.583c0.128,0,0.265-0.024,0.393-0.056V50.313z"/>
			<path d="M223.892,46.107h-1.455v-0.336c0.855-0.056,1.391-0.144,1.559-1.111h0.408v5.637h-0.512V46.107z"/>
			<path d="M226.717,48.833c0.104,0.76,0.655,1.144,1.391,1.144c0.84,0,1.352-0.64,1.352-1.439c0-0.84-0.544-1.432-1.399-1.432
				c-0.504,0-0.911,0.176-1.224,0.584l-0.424-0.056l0.456-2.918h2.799v0.432H227.3l-0.352,1.895
				c0.439-0.288,0.728-0.368,1.239-0.368c1.031,0,1.783,0.704,1.783,1.863c0,1.183-0.855,1.871-1.783,1.871
				c-1.063,0-1.895-0.408-1.982-1.575H226.717z"/>
		</g>
		<g>
			<path d="M414.339,50.297h-0.479V44.54h0.479v2.279c0.304-0.504,0.896-0.776,1.479-0.776c1.263,0,1.847,1.032,1.847,2.191
				c0,1.224-0.535,2.175-1.871,2.175c-0.527,0-1.159-0.296-1.439-0.839h-0.016V50.297z M415.738,49.977
				c0.808,0,1.407-0.583,1.415-1.623c0.04-1.04-0.424-1.879-1.415-1.879c-0.872,0-1.399,0.799-1.399,1.735
				C414.339,49.209,414.835,49.977,415.738,49.977z"/>
			<path d="M418.739,45.251V44.54h0.527v0.711H418.739z M418.763,50.297v-4.142h0.479v4.142H418.763z"/>
			<path d="M421.923,50.313c-0.112,0.024-0.32,0.096-0.552,0.096c-0.472,0-0.736-0.208-0.736-0.823v-3.031h-0.583v-0.399h0.583
				v-1.151h0.48v1.151h0.775v0.399h-0.775v2.839c0,0.408,0.016,0.583,0.415,0.583c0.128,0,0.265-0.024,0.393-0.056V50.313z"/>
			<path d="M426.241,47.578c0,1.496-0.352,2.831-1.903,2.831c-1.559,0-1.911-1.327-1.911-2.886c0-1.423,0.288-2.862,1.911-2.862
				C426.009,44.66,426.241,46.267,426.241,47.578z M424.322,45.092c-1.12,0-1.384,1.239-1.384,2.486c0,1.447,0.32,2.399,1.399,2.399
				c1.216,0,1.392-1.319,1.392-2.455C425.729,46.307,425.514,45.092,424.322,45.092z"/>
		</g>
		<g>
			<path d="M282.453,80.22c0,1.496-0.352,2.831-1.903,2.831c-1.559,0-1.911-1.327-1.911-2.886c0-1.423,0.288-2.862,1.911-2.862
				C282.221,77.302,282.453,78.909,282.453,80.22z M280.534,77.734c-1.12,0-1.384,1.239-1.384,2.486c0,1.447,0.32,2.399,1.399,2.399
				c1.216,0,1.392-1.319,1.392-2.455C281.941,78.949,281.726,77.734,280.534,77.734z"/>
		</g>
		<g>
			<path d="M323.046,62.087c0,1.496-0.352,2.831-1.903,2.831c-1.559,0-1.911-1.327-1.911-2.886c0-1.423,0.288-2.862,1.911-2.862
				C322.813,59.169,323.046,60.776,323.046,62.087z M321.127,59.601c-1.12,0-1.384,1.239-1.384,2.486
				c0,1.447,0.32,2.399,1.399,2.399c1.216,0,1.392-1.319,1.392-2.455C322.534,60.816,322.318,59.601,321.127,59.601z"/>
		</g>
		<g>
			<path d="M323.046,80.22c0,1.496-0.352,2.831-1.903,2.831c-1.559,0-1.911-1.327-1.911-2.886c0-1.423,0.288-2.862,1.911-2.862
				C322.813,77.302,323.046,78.909,323.046,80.22z M321.127,77.734c-1.12,0-1.384,1.239-1.384,2.486c0,1.447,0.32,2.399,1.399,2.399
				c1.216,0,1.392-1.319,1.392-2.455C322.534,78.949,322.318,77.734,321.127,77.734z"/>
		</g>
		<g>
			<path d="M15.429,19.708c0.088,1.032,0.776,1.407,1.655,1.407c1.031,0,1.464-0.56,1.464-1.191c0-1.783-3.511-0.6-3.511-2.863
				c0-0.799,0.664-1.543,1.951-1.543c1.295,0,1.943,0.784,1.935,1.719h-0.52c0-0.88-0.68-1.255-1.415-1.255
				c-1.104,0-1.503,0.679-1.407,1.271c0.248,1.487,3.51,0.416,3.51,2.646c0,1.056-0.775,1.679-2.103,1.679
				c-1.199,0-2.087-0.624-2.087-1.871H15.429z"/>
			<path d="M20.524,21.427h-0.479v-4.142h0.479v0.775h0.017c0.264-0.664,0.655-0.888,1.351-0.888v0.52
				c-1.079-0.024-1.367,0.775-1.367,1.703V21.427z"/>
			<path d="M25.619,18.589c-0.168-0.616-0.592-0.983-1.231-0.983c-0.983,0-1.391,0.896-1.391,1.759c0,0.872,0.399,1.743,1.391,1.743
				c0.712,0,1.16-0.424,1.271-1.111h0.512c-0.168,0.919-0.743,1.543-1.783,1.543c-1.318,0-1.902-0.951-1.902-2.175
				c0-1.151,0.663-2.191,1.902-2.191c0.952,0,1.575,0.456,1.72,1.416H25.619z"/>
		</g>
		<g>
			<path d="M68.607,17.238h-1.455v-0.336c0.855-0.056,1.391-0.144,1.559-1.111h0.408v5.637h-0.512V17.238z"/>
		</g>
		<g>
			<path d="M106.428,17.637c0-1.111,0.72-1.847,1.831-1.847c1.136,0,1.735,0.695,1.735,1.559c0,1.495-1.615,1.871-2.455,2.51
				c-0.368,0.28-0.712,0.6-0.735,1.136h3.142v0.432h-3.686c0.008-0.536,0.08-0.959,0.439-1.375c1.176-1.359,2.734-1.344,2.734-2.671
				c0-0.735-0.543-1.159-1.239-1.159c-0.735,0-1.255,0.656-1.223,1.415H106.428z"/>
		</g>
		<g>
			<path d="M147.325,18.293c0.952,0.008,1.615-0.216,1.615-1.08c0-0.695-0.552-0.991-1.199-0.991c-0.72,0-1.207,0.504-1.207,1.207
				h-0.512c0-0.503,0.168-0.911,0.544-1.263c0.352-0.32,0.815-0.375,1.279-0.375c0.887,0,1.606,0.448,1.606,1.391
				c0,0.583-0.256,1.023-0.799,1.255c0.815,0.256,0.999,0.872,0.999,1.391c0,0.927-0.655,1.679-1.815,1.711
				c-1.303,0-1.887-0.432-2.007-1.743h0.512c0,0.855,0.568,1.311,1.399,1.311c0.815,0,1.432-0.608,1.399-1.271
				c-0.032-0.911-0.823-1.199-1.815-1.127V18.293z"/>
		</g>
		<g>
			<path d="M188.104,20.036h-2.574v-0.44l2.622-3.75h0.464v3.758h0.783v0.432h-0.783v1.391h-0.512V20.036z M186.033,19.604h2.07
				v-2.99L186.033,19.604z"/>
		</g>
		<g>
			<path d="M360.159,61.671c0.952,0.008,1.615-0.216,1.615-1.08c0-0.695-0.552-0.991-1.199-0.991c-0.72,0-1.207,0.504-1.207,1.207
				h-0.512c0-0.503,0.168-0.911,0.544-1.263c0.352-0.32,0.815-0.375,1.279-0.375c0.887,0,1.606,0.448,1.606,1.391
				c0,0.583-0.256,1.023-0.799,1.255c0.815,0.256,0.999,0.872,0.999,1.391c0,0.927-0.655,1.679-1.815,1.711
				c-1.303,0-1.887-0.432-2.007-1.743h0.512c0,0.855,0.568,1.311,1.399,1.311c0.815,0,1.432-0.608,1.399-1.271
				c-0.032-0.911-0.823-1.199-1.815-1.127V61.671z"/>
		</g>
		<g>
			<path d="M360.808,78.75h-1.455v-0.336c0.855-0.056,1.391-0.144,1.559-1.111h0.408v5.637h-0.512V78.75z"/>
		</g>
		<g>
			<path d="M400.729,63.415h-2.574v-0.44l2.622-3.75h0.464v3.758h0.783v0.432h-0.783v1.391h-0.512V63.415z M398.658,62.982h2.07
				v-2.99L398.658,62.982z"/>
		</g>
		<g>
			<path d="M398.418,79.149c0-1.111,0.72-1.847,1.831-1.847c1.136,0,1.735,0.695,1.735,1.559c0,1.495-1.615,1.871-2.455,2.51
				c-0.368,0.28-0.712,0.6-0.735,1.136h3.142v0.432h-3.686c0.008-0.536,0.08-0.959,0.439-1.375c1.176-1.359,2.734-1.344,2.734-2.671
				c0-0.735-0.543-1.159-1.239-1.159c-0.735,0-1.255,0.656-1.223,1.415H398.418z"/>
		</g>
	</g>
	<g>
		<path d="M1.111,6.64H0.632V0.883h0.479v2.279c0.304-0.504,0.896-0.776,1.479-0.776c1.263,0,1.847,1.032,1.847,2.191
			c0,1.224-0.536,2.175-1.871,2.175c-0.527,0-1.159-0.296-1.439-0.839H1.111V6.64z M2.511,6.32c0.808,0,1.407-0.583,1.415-1.623
			c0.04-1.04-0.424-1.879-1.415-1.879c-0.872,0-1.399,0.799-1.399,1.735C1.111,5.553,1.607,6.32,2.511,6.32z"/>
		<path d="M5.512,1.595V0.883h0.527v0.711H5.512z M5.535,6.64V2.499h0.479V6.64H5.535z"/>
		<path d="M8.694,6.656C8.582,6.68,8.374,6.752,8.143,6.752c-0.472,0-0.736-0.208-0.736-0.823V2.898H6.823V2.499h0.583V1.347h0.48
			v1.151h0.775v0.399H7.887v2.839c0,0.408,0.016,0.583,0.415,0.583c0.128,0,0.265-0.024,0.393-0.056V6.656z"/>
		<path d="M11.302,2.451H9.847V2.115c0.855-0.056,1.391-0.144,1.559-1.111h0.408V6.64h-0.512V2.451z"/>
		<path d="M14.127,5.177c0.104,0.76,0.655,1.144,1.391,1.144c0.84,0,1.352-0.64,1.352-1.439c0-0.84-0.544-1.432-1.399-1.432
			c-0.504,0-0.911,0.176-1.224,0.584l-0.424-0.056l0.456-2.918h2.799v0.432H14.71l-0.352,1.895c0.439-0.288,0.728-0.368,1.239-0.368
			c1.031,0,1.783,0.704,1.783,1.863c0,1.183-0.855,1.871-1.783,1.871c-1.063,0-1.895-0.408-1.982-1.575H14.127z"/>
	</g>
	<g>
		<path d="M201.749,6.64h-0.479V0.883h0.479v2.279c0.304-0.504,0.896-0.776,1.479-0.776c1.263,0,1.847,1.032,1.847,2.191
			c0,1.224-0.535,2.175-1.871,2.175c-0.527,0-1.159-0.296-1.439-0.839h-0.016V6.64z M203.148,6.32c0.808,0,1.407-0.583,1.415-1.623
			c0.04-1.04-0.424-1.879-1.415-1.879c-0.872,0-1.399,0.799-1.399,1.735C201.749,5.553,202.245,6.32,203.148,6.32z"/>
		<path d="M206.149,1.595V0.883h0.527v0.711H206.149z M206.173,6.64V2.499h0.479V6.64H206.173z"/>
		<path d="M209.333,6.656c-0.112,0.024-0.32,0.096-0.552,0.096c-0.472,0-0.736-0.208-0.736-0.823V2.898h-0.583V2.499h0.583V1.347
			h0.48v1.151h0.775v0.399h-0.775v2.839c0,0.408,0.016,0.583,0.415,0.583c0.128,0,0.265-0.024,0.393-0.056V6.656z"/>
		<path d="M213.651,3.921c0,1.496-0.352,2.831-1.903,2.831c-1.559,0-1.911-1.327-1.911-2.886c0-1.423,0.288-2.862,1.911-2.862
			C213.419,1.003,213.651,2.61,213.651,3.921z M211.732,1.435c-1.12,0-1.384,1.239-1.384,2.486c0,1.447,0.32,2.399,1.399,2.399
			c1.216,0,1.392-1.319,1.392-2.455C213.14,2.65,212.924,1.435,211.732,1.435z"/>
	</g>
	<rect x="48.574" y="9.475" class="st2" width="79.366" height="18.142"/>
	<rect x="127.94" y="9.475" class="st3" width="79.366" height="18.142"/>
	<rect x="340.53" y="71.274" class="st2" width="79.366" height="18.142"/>
	<rect x="340.53" y="53.132" class="st3" width="79.366" height="18.142"/>
	<g>
		<path d="M302.273,104.38c0,1.122-0.264,2.123-1.428,2.123c-1.169,0-1.433-0.996-1.433-2.165c0-1.067,0.216-2.146,1.433-2.146
			C302.1,102.191,302.273,103.396,302.273,104.38z M300.834,102.515c-0.84,0-1.037,0.929-1.037,1.865
			c0,1.085,0.239,1.799,1.049,1.799c0.912,0,1.044-0.99,1.044-1.841C301.89,103.427,301.728,102.515,300.834,102.515z"/>
	</g>
	<g>
	</g>
	<g>
	</g>
	<g>
	</g>
	<g>
	</g>
	<g>
	</g>
	<g>
	</g>
	<g>
	</g>
	<g>
	</g>
	<g>
	</g>
	<g>
	</g>
	<g>
	</g>
	<g>
	</g>
	<g>
	</g>
	<g>
	</g>
	<g>
	</g>
	<g>
	</g>
</g>
</svg>
