<?xml version="1.0" encoding="utf-8"?>
<!-- Generator: Adobe Illustrator 28.2.0, SVG Export Plug-In . SVG Version: 6.00 Build 0)  -->
<svg version="1.1" xmlns="http://www.w3.org/2000/svg" xmlns:xlink="http://www.w3.org/1999/xlink" x="0px" y="0px"
	 width="186.637px" height="111.562px" viewBox="0 0 186.637 111.562" style="enable-background:new 0 0 186.637 111.562;"
	 xml:space="preserve">
<style type="text/css">
	.st0{fill:#B3B3B3;}
	.st1{fill:none;stroke:#000000;stroke-width:0.5;stroke-miterlimit:10;}
</style>
<g id="レイヤー_1">
	<g>
		<rect x="119.511" y="40.696" class="st0" width="21.176" height="70.866"/>
	</g>
	<g>
		<g>
			<path d="M108.381,0.5v16.716H24.342V0.5H108.381 M108.881,0H23.842v17.716h85.039V0L108.881,0z"/>
		</g>
		<line class="st1" x1="45.102" y1="17.716" x2="45.102" y2="0"/>
		<line class="st1" x1="66.362" y1="17.716" x2="66.362" y2="0"/>
		<line class="st1" x1="87.622" y1="17.716" x2="87.622" y2="0"/>
	</g>
	<g>
		<g>
			<path d="M161.531,41.196v69.866h-41.52V41.196H161.531 M162.031,40.696h-42.52v70.866h42.52V40.696L162.031,40.696z"/>
		</g>
		<line class="st1" x1="140.771" y1="58.412" x2="140.771" y2="40.696"/>
	</g>
	<g>
		<line class="st1" x1="140.771" y1="76.129" x2="140.771" y2="58.412"/>
	</g>
	<g>
		<line class="st1" x1="140.771" y1="93.845" x2="140.771" y2="76.129"/>
	</g>
	<g>
		<line class="st1" x1="140.771" y1="111.562" x2="140.771" y2="93.845"/>
	</g>
	<line class="st1" x1="162.031" y1="58.412" x2="119.511" y2="58.412"/>
	<line class="st1" x1="162.031" y1="76.129" x2="119.511" y2="76.129"/>
	<line class="st1" x1="162.031" y1="93.845" x2="119.511" y2="93.845"/>
	<g>
		<g>
			<polyline class="st1" points="116.134,102.758 98.252,102.758 98.252,17.703 			"/>
			<g>
				<polygon points="114.478,100.713 114.137,101.079 115.943,102.758 114.137,104.436 114.478,104.803 116.677,102.758 				"/>
			</g>
		</g>
	</g>
	<g>
		<g>
			<polyline class="st1" points="116.134,84.987 76.992,84.987 76.992,17.703 			"/>
			<g>
				<polygon points="114.478,82.942 114.137,83.308 115.943,84.986 114.137,86.665 114.478,87.031 116.677,84.986 				"/>
			</g>
		</g>
	</g>
	<g>
		<g>
			<polyline class="st1" points="116.134,67.27 55.732,67.27 55.732,17.703 			"/>
			<g>
				<polygon points="114.478,65.225 114.137,65.592 115.943,67.27 114.137,68.949 114.478,69.315 116.677,67.27 				"/>
			</g>
		</g>
	</g>
	<g>
		<g>
			<polyline class="st1" points="116.134,49.554 34.472,49.554 34.472,17.703 			"/>
			<g>
				<polygon points="114.478,47.509 114.137,47.875 115.943,49.554 114.137,51.232 114.478,51.598 116.677,49.554 				"/>
			</g>
		</g>
	</g>
</g>
<g id="レイヤー_2">
	<g>
		<g>
			<path d="M31.924,12.124l2.263-5.757h0.616l2.207,5.757h-0.56l-0.664-1.807h-2.623l-0.68,1.807H31.924z M33.347,9.853h2.255
				l-1.127-3.022L33.347,9.853z"/>
		</g>
		<g>
			<path d="M53.711,12.124V6.368h2.079c1.351,0,1.887,0.583,1.887,1.447c0,0.799-0.456,1.159-0.919,1.239V9.07
				c0.792,0.12,1.184,0.671,1.184,1.431c0,1.199-0.784,1.623-1.879,1.623H53.711z M54.255,8.91h1.375
				c1.136,0,1.503-0.399,1.503-1.095c0-0.72-0.432-0.983-1.623-0.983h-1.255V8.91z M54.255,11.661h1.383
				c1.199,0,1.759-0.16,1.759-1.159c0-0.952-0.671-1.127-1.695-1.127h-1.447V11.661z"/>
		</g>
		<g>
			<path d="M78.837,8.038c-0.224-0.983-0.832-1.359-1.815-1.359c-1.391,0-1.991,1.191-1.991,2.55c0,1.288,0.472,2.583,2.039,2.583
				c0.992,0,1.607-0.671,1.823-1.583h0.567c-0.256,1.111-0.951,2.047-2.495,2.047c-1.775,0-2.479-1.399-2.479-3.03
				c0-2.199,1.151-3.03,2.679-3.03c1.183,0,2.047,0.632,2.23,1.823H78.837z"/>
		</g>
		<g>
			<path d="M96.011,12.124V6.368h1.967c0.64,0,1.239,0.04,1.775,0.432c0.76,0.552,0.959,1.671,0.959,2.439
				c0,0.759-0.168,1.607-0.696,2.183c-0.527,0.592-1.279,0.704-2.039,0.704H96.011z M96.555,11.661h1.303
				c0.488,0,0.912-0.032,1.351-0.264c0.768-0.392,0.959-1.375,0.959-2.159c0-0.84-0.184-1.759-0.991-2.191
				c-0.344-0.184-0.839-0.216-1.319-0.216h-1.303V11.661z"/>
		</g>
	</g>
	<g>
		<g>
			<path d="M0.872,10.405c0.088,1.032,0.775,1.407,1.655,1.407c1.031,0,1.463-0.56,1.463-1.191c0-1.783-3.51-0.6-3.51-2.862
				c0-0.799,0.664-1.543,1.951-1.543c1.295,0,1.943,0.784,1.935,1.719h-0.52c0-0.879-0.679-1.255-1.415-1.255
				c-1.104,0-1.503,0.68-1.407,1.271c0.248,1.487,3.51,0.416,3.51,2.646c0,1.056-0.776,1.679-2.103,1.679
				c-1.199,0-2.087-0.624-2.087-1.871H0.872z"/>
			<path d="M5.968,12.124h-0.48V7.983h0.48v0.775h0.016c0.264-0.664,0.656-0.887,1.352-0.887v0.52
				c-1.08-0.024-1.367,0.775-1.367,1.703V12.124z"/>
			<path d="M10.918,9.286C10.75,8.67,10.327,8.303,9.687,8.303c-0.983,0-1.391,0.896-1.391,1.759c0,0.872,0.399,1.743,1.391,1.743
				c0.711,0,1.159-0.424,1.271-1.111h0.512c-0.168,0.919-0.744,1.543-1.783,1.543c-1.319,0-1.903-0.951-1.903-2.175
				c0-1.151,0.664-2.19,1.903-2.19c0.951,0,1.575,0.456,1.719,1.415H10.918z"/>
		</g>
	</g>
	<g>
		<g>
			<path d="M122.013,47.799h-0.015v5.021h-0.49v-5.757h0.555l2.996,5.029h0.015v-5.029h0.489v5.757h-0.569L122.013,47.799z"/>
			<path d="M126.729,47.063h0.49v3.43c0,1.423,0.461,2.015,1.52,2.015c1.116,0,1.52-0.655,1.52-2.015v-3.43h0.49v3.59
				c0,1.496-0.67,2.319-2.009,2.319c-1.354,0-2.01-0.848-2.01-2.319V47.063z"/>
			<path d="M131.92,52.82v-5.757h0.49v5.293h2.78v0.464H131.92z"/>
			<path d="M135.923,52.82v-5.757h0.49v5.293h2.78v0.464H135.923z"/>
		</g>
		<g>
			<path d="M148.854,52.82l2.263-5.757h0.616l2.207,5.757h-0.56l-0.664-1.807h-2.623l-0.68,1.807H148.854z M150.276,50.549h2.255
				l-1.127-3.022L150.276,50.549z"/>
		</g>
	</g>
	<g>
		<g>
			<path d="M122.013,65.516h-0.015v5.021h-0.49V64.78h0.555l2.996,5.029h0.015V64.78h0.489v5.757h-0.569L122.013,65.516z"/>
			<path d="M126.729,64.78h0.49v3.43c0,1.423,0.461,2.015,1.52,2.015c1.116,0,1.52-0.655,1.52-2.015v-3.43h0.49v3.59
				c0,1.496-0.67,2.319-2.009,2.319c-1.354,0-2.01-0.848-2.01-2.319V64.78z"/>
			<path d="M131.92,70.537V64.78h0.49v5.293h2.78v0.464H131.92z"/>
			<path d="M135.923,70.537V64.78h0.49v5.293h2.78v0.464H135.923z"/>
		</g>
		<g>
			<path d="M149.381,70.537V64.78h2.079c1.351,0,1.887,0.583,1.887,1.447c0,0.799-0.456,1.159-0.919,1.239v0.016
				c0.792,0.12,1.184,0.671,1.184,1.431c0,1.199-0.784,1.623-1.879,1.623H149.381z M149.925,67.322h1.375
				c1.136,0,1.503-0.399,1.503-1.095c0-0.72-0.432-0.983-1.623-0.983h-1.255V67.322z M149.925,70.073h1.383
				c1.199,0,1.759-0.16,1.759-1.159c0-0.952-0.671-1.127-1.695-1.127h-1.447V70.073z"/>
		</g>
	</g>
	<g>
		<g>
			<path d="M122.013,83.232h-0.015v5.021h-0.49v-5.757h0.555l2.996,5.029h0.015v-5.029h0.489v5.757h-0.569L122.013,83.232z"/>
			<path d="M126.729,82.496h0.49v3.43c0,1.423,0.461,2.015,1.52,2.015c1.116,0,1.52-0.655,1.52-2.015v-3.43h0.49v3.59
				c0,1.496-0.67,2.319-2.009,2.319c-1.354,0-2.01-0.848-2.01-2.319V82.496z"/>
			<path d="M131.92,88.253v-5.757h0.49v5.293h2.78v0.464H131.92z"/>
			<path d="M135.923,88.253v-5.757h0.49v5.293h2.78v0.464H135.923z"/>
		</g>
		<g>
			<path d="M153.247,84.167c-0.224-0.983-0.832-1.359-1.815-1.359c-1.391,0-1.991,1.191-1.991,2.55c0,1.288,0.472,2.583,2.039,2.583
				c0.992,0,1.607-0.671,1.823-1.583h0.567c-0.256,1.111-0.951,2.047-2.495,2.047c-1.775,0-2.479-1.399-2.479-3.03
				c0-2.199,1.151-3.03,2.679-3.03c1.183,0,2.047,0.632,2.23,1.823H153.247z"/>
		</g>
	</g>
	<g>
		<g>
			<path d="M122.013,100.949h-0.015v5.021h-0.49v-5.757h0.555l2.996,5.029h0.015v-5.029h0.489v5.757h-0.569L122.013,100.949z"/>
			<path d="M126.729,100.213h0.49v3.43c0,1.423,0.461,2.015,1.52,2.015c1.116,0,1.52-0.655,1.52-2.015v-3.43h0.49v3.59
				c0,1.496-0.67,2.319-2.009,2.319c-1.354,0-2.01-0.848-2.01-2.319V100.213z"/>
			<path d="M131.92,105.97v-5.757h0.49v5.293h2.78v0.464H131.92z"/>
			<path d="M135.923,105.97v-5.757h0.49v5.293h2.78v0.464H135.923z"/>
		</g>
		<g>
			<path d="M149.161,105.97v-5.757h1.967c0.64,0,1.239,0.04,1.775,0.432c0.76,0.552,0.959,1.671,0.959,2.439
				c0,0.759-0.168,1.607-0.696,2.183c-0.527,0.592-1.279,0.704-2.039,0.704H149.161z M149.705,105.506h1.303
				c0.488,0,0.912-0.032,1.351-0.264c0.768-0.392,0.959-1.375,0.959-2.159c0-0.84-0.184-1.759-0.991-2.191
				c-0.344-0.184-0.839-0.216-1.319-0.216h-1.303V105.506z"/>
		</g>
		<g>
			<path d="M165.557,52.82v-5.757h1.967c0.64,0,1.239,0.04,1.775,0.432c0.76,0.552,0.959,1.671,0.959,2.439
				c0,0.759-0.168,1.607-0.696,2.183c-0.527,0.592-1.279,0.704-2.039,0.704H165.557z M166.101,52.356h1.303
				c0.488,0,0.912-0.032,1.351-0.264c0.768-0.392,0.959-1.375,0.959-2.159c0-0.84-0.184-1.759-0.991-2.191
				c-0.344-0.184-0.839-0.216-1.319-0.216h-1.303V52.356z"/>
			<path d="M171.541,51.525c0.152,0.712,0.52,0.976,1.24,0.976c0.695,0,1.023-0.368,1.023-0.768c0-1.199-2.655-0.352-2.655-1.983
				c0-0.688,0.536-1.183,1.456-1.183c0.896,0,1.479,0.368,1.599,1.303h-0.487c-0.088-0.64-0.52-0.872-1.119-0.872
				c-0.608,0-0.936,0.288-0.936,0.711c0,1.127,2.655,0.424,2.655,2.015c0,0.792-0.712,1.207-1.688,1.207s-1.535-0.624-1.575-1.407
				H171.541z"/>
			<path d="M176.716,52.836c-0.111,0.024-0.319,0.096-0.552,0.096c-0.472,0-0.735-0.208-0.735-0.823v-3.03h-0.584v-0.4h0.584v-1.151
				h0.479v1.151h0.776v0.4h-0.776v2.838c0,0.408,0.017,0.583,0.416,0.583c0.128,0,0.264-0.024,0.392-0.056V52.836z"/>
		</g>
		<g>
			<path d="M165.557,70.537V64.78h1.967c0.64,0,1.239,0.04,1.775,0.432c0.76,0.552,0.959,1.671,0.959,2.439
				c0,0.759-0.168,1.607-0.696,2.183c-0.527,0.592-1.279,0.704-2.039,0.704H165.557z M166.101,70.073h1.303
				c0.488,0,0.912-0.032,1.351-0.264c0.768-0.392,0.959-1.375,0.959-2.159c0-0.84-0.184-1.759-0.991-2.191
				c-0.344-0.184-0.839-0.216-1.319-0.216h-1.303V70.073z"/>
			<path d="M171.541,69.241c0.152,0.712,0.52,0.976,1.24,0.976c0.695,0,1.023-0.368,1.023-0.768c0-1.199-2.655-0.352-2.655-1.983
				c0-0.688,0.536-1.183,1.456-1.183c0.896,0,1.479,0.368,1.599,1.303h-0.487c-0.088-0.64-0.52-0.872-1.119-0.872
				c-0.608,0-0.936,0.288-0.936,0.711c0,1.127,2.655,0.424,2.655,2.015c0,0.792-0.712,1.207-1.688,1.207s-1.535-0.624-1.575-1.407
				H171.541z"/>
			<path d="M176.716,70.553c-0.111,0.024-0.319,0.096-0.552,0.096c-0.472,0-0.735-0.208-0.735-0.823v-3.03h-0.584v-0.4h0.584v-1.151
				h0.479v1.151h0.776v0.4h-0.776v2.838c0,0.408,0.017,0.583,0.416,0.583c0.128,0,0.264-0.024,0.392-0.056V70.553z"/>
			<path d="M179.308,66.539h0.48v1.759h1.759v0.479h-1.759v1.759h-0.48v-1.759h-1.759v-0.479h1.759V66.539z"/>
			<path d="M184.604,66.347h-1.455v-0.335c0.855-0.056,1.392-0.144,1.56-1.111h0.407v5.637h-0.512V66.347z"/>
		</g>
		<g>
			<path d="M165.557,88.253v-5.757h1.967c0.64,0,1.239,0.04,1.775,0.432c0.76,0.552,0.959,1.671,0.959,2.439
				c0,0.759-0.168,1.607-0.696,2.183c-0.527,0.592-1.279,0.704-2.039,0.704H165.557z M166.101,87.789h1.303
				c0.488,0,0.912-0.032,1.351-0.264c0.768-0.392,0.959-1.375,0.959-2.159c0-0.84-0.184-1.759-0.991-2.191
				c-0.344-0.184-0.839-0.216-1.319-0.216h-1.303V87.789z"/>
			<path d="M171.541,86.957c0.152,0.712,0.52,0.976,1.24,0.976c0.695,0,1.023-0.368,1.023-0.768c0-1.199-2.655-0.352-2.655-1.983
				c0-0.688,0.536-1.183,1.456-1.183c0.896,0,1.479,0.368,1.599,1.303h-0.487c-0.088-0.64-0.52-0.872-1.119-0.872
				c-0.608,0-0.936,0.288-0.936,0.711c0,1.127,2.655,0.424,2.655,2.015c0,0.792-0.712,1.207-1.688,1.207s-1.535-0.624-1.575-1.407
				H171.541z"/>
			<path d="M176.716,88.269c-0.111,0.024-0.319,0.096-0.552,0.096c-0.472,0-0.735-0.208-0.735-0.823v-3.03h-0.584v-0.4h0.584V82.96
				h0.479v1.151h0.776v0.4h-0.776v2.838c0,0.408,0.017,0.583,0.416,0.583c0.128,0,0.264-0.024,0.392-0.056V88.269z"/>
			<path d="M179.308,84.255h0.48v1.759h1.759v0.479h-1.759v1.759h-0.48v-1.759h-1.759v-0.479h1.759V84.255z"/>
			<path d="M182.742,84.463c0-1.111,0.72-1.847,1.831-1.847c1.135,0,1.734,0.695,1.734,1.559c0,1.495-1.615,1.871-2.454,2.511
				c-0.368,0.28-0.712,0.6-0.736,1.135h3.143v0.432h-3.686c0.008-0.536,0.08-0.959,0.439-1.375c1.176-1.359,2.734-1.343,2.734-2.67
				c0-0.735-0.544-1.159-1.239-1.159c-0.735,0-1.255,0.656-1.224,1.415H182.742z"/>
		</g>
		<g>
			<path d="M165.557,105.97v-5.757h1.967c0.64,0,1.239,0.04,1.775,0.432c0.76,0.552,0.959,1.671,0.959,2.439
				c0,0.759-0.168,1.607-0.696,2.183c-0.527,0.592-1.279,0.704-2.039,0.704H165.557z M166.101,105.506h1.303
				c0.488,0,0.912-0.032,1.351-0.264c0.768-0.392,0.959-1.375,0.959-2.159c0-0.84-0.184-1.759-0.991-2.191
				c-0.344-0.184-0.839-0.216-1.319-0.216h-1.303V105.506z"/>
			<path d="M171.541,104.674c0.152,0.712,0.52,0.976,1.24,0.976c0.695,0,1.023-0.368,1.023-0.768c0-1.199-2.655-0.352-2.655-1.983
				c0-0.688,0.536-1.183,1.456-1.183c0.896,0,1.479,0.368,1.599,1.303h-0.487c-0.088-0.64-0.52-0.872-1.119-0.872
				c-0.608,0-0.936,0.288-0.936,0.711c0,1.127,2.655,0.424,2.655,2.015c0,0.792-0.712,1.207-1.688,1.207s-1.535-0.624-1.575-1.407
				H171.541z"/>
			<path d="M176.716,105.986c-0.111,0.024-0.319,0.096-0.552,0.096c-0.472,0-0.735-0.208-0.735-0.823v-3.03h-0.584v-0.4h0.584
				v-1.151h0.479v1.151h0.776v0.4h-0.776v2.838c0,0.408,0.017,0.583,0.416,0.583c0.128,0,0.264-0.024,0.392-0.056V105.986z"/>
			<path d="M179.308,101.972h0.48v1.759h1.759v0.479h-1.759v1.759h-0.48v-1.759h-1.759v-0.479h1.759V101.972z"/>
			<path d="M183.957,102.835c0.951,0.008,1.615-0.216,1.615-1.08c0-0.695-0.552-0.991-1.199-0.991c-0.72,0-1.207,0.503-1.207,1.208
				h-0.512c0-0.504,0.168-0.912,0.543-1.264c0.353-0.32,0.815-0.375,1.279-0.375c0.888,0,1.607,0.448,1.607,1.391
				c0,0.583-0.256,1.023-0.8,1.255c0.815,0.256,1,0.872,1,1.391c0,0.928-0.656,1.679-1.815,1.711c-1.303,0-1.887-0.432-2.007-1.743
				h0.512c0,0.856,0.567,1.312,1.399,1.312c0.815,0,1.431-0.607,1.399-1.271c-0.032-0.911-0.824-1.199-1.815-1.127V102.835z"/>
		</g>
	</g>
	<g>
	</g>
	<g>
	</g>
	<g>
	</g>
	<g>
	</g>
	<g>
	</g>
	<g>
	</g>
	<g>
	</g>
	<g>
	</g>
	<g>
	</g>
	<g>
	</g>
	<g>
	</g>
	<g>
	</g>
	<g>
	</g>
	<g>
	</g>
	<g>
	</g>
	<g>
	</g>
</g>
</svg>
