<?xml version="1.0" encoding="utf-8"?>
<!-- Generator: Adobe Illustrator 28.2.0, SVG Export Plug-In . SVG Version: 6.00 Build 0)  -->
<svg version="1.1" id="レイヤー_1" xmlns="http://www.w3.org/2000/svg" xmlns:xlink="http://www.w3.org/1999/xlink" x="0px"
	 y="0px" width="134.67px" height="47.575px" viewBox="0 0 134.67 47.575" style="enable-background:new 0 0 134.67 47.575;"
	 xml:space="preserve">
<style type="text/css">
	.st0{fill:none;stroke:#000000;stroke-width:0.5;}
	.st1{fill:none;stroke:#000000;}
	.st2{fill:#FFFFFF;stroke:#000000;stroke-width:0.5;stroke-dasharray:1;}
	.st3{fill:#9FA0A0;}
</style>
<g>
	<g>
		<path d="M7.224,3.884c-0.04-0.888-0.776-1.167-1.423-1.167c-0.488,0-1.311,0.136-1.311,1.007c0,0.488,0.344,0.647,0.679,0.728
			l1.639,0.376c0.744,0.176,1.303,0.624,1.303,1.535c0,1.359-1.263,1.735-2.247,1.735c-1.063,0-1.479-0.32-1.735-0.552
			C3.642,7.106,3.546,6.626,3.546,6.091h0.728c0,1.04,0.848,1.343,1.583,1.343c0.56,0,1.503-0.144,1.503-0.967
			c0-0.6-0.28-0.792-1.223-1.016L4.961,5.179C4.585,5.091,3.738,4.828,3.738,3.828c0-0.896,0.584-1.775,1.975-1.775
			c2.007,0,2.207,1.199,2.239,1.831H7.224z"/>
		<path d="M9.81,7.946H9.106V3.764H9.77v0.695h0.016c0.28-0.487,0.647-0.815,1.175-0.815c0.088,0,0.128,0.008,0.184,0.024v0.728
			h-0.264c-0.656,0-1.071,0.512-1.071,1.119V7.946z"/>
		<path d="M14.289,5.171c-0.088-0.56-0.4-0.896-0.992-0.896c-0.871,0-1.151,0.832-1.151,1.575c0,0.72,0.176,1.607,1.144,1.607
			c0.472,0,0.879-0.352,1-0.991h0.68c-0.072,0.664-0.48,1.599-1.703,1.599c-1.175,0-1.871-0.888-1.871-2.095
			c0-1.295,0.624-2.327,2.007-2.327c1.096,0,1.511,0.8,1.567,1.527H14.289z"/>
	</g>
	<g>
	</g>
</g>
<g>
	<path d="M2.871,24.47H2.119v-3.99H0.808v-0.56c0.912-0.064,1.287-0.152,1.511-1.072h0.552V24.47z"/>
	<path d="M4.8,20.864c0-1.831,1.335-2.015,1.943-2.015c0.975,0,1.759,0.632,1.759,1.679c0,1.007-0.664,1.431-1.503,1.879
		l-0.584,0.32c-0.768,0.424-0.936,0.864-0.967,1.08h3.054v0.664H4.656c0.04-1.167,0.567-1.791,1.319-2.231l0.743-0.432
		c0.6-0.344,1.032-0.576,1.032-1.311c0-0.448-0.288-1.016-1.111-1.016c-1.063,0-1.111,0.992-1.135,1.383H4.8z"/>
	<path d="M10.687,21.271c0.12,0.008,0.248,0.016,0.368,0.016c0.544,0,1.071-0.216,1.071-0.919c0-0.336-0.2-0.888-1.039-0.888
		c-1,0-1.063,0.815-1.096,1.208H9.304c0-0.824,0.336-1.839,1.815-1.839c1.087,0,1.735,0.624,1.735,1.479
		c0,0.719-0.416,1.063-0.72,1.159v0.016c0.543,0.176,0.936,0.56,0.936,1.311c0,0.919-0.592,1.807-2.023,1.807
		c-0.416,0-0.768-0.104-1.04-0.248c-0.624-0.328-0.792-0.975-0.839-1.623h0.728c0.024,0.528,0.152,1.239,1.199,1.239
		c0.72,0,1.224-0.439,1.224-1.087c0-0.944-0.832-1.032-1.312-1.032c-0.104,0-0.216,0.008-0.32,0.008V21.271z"/>
	<path d="M16.702,23.103v1.367h-0.704v-1.367h-2.455v-0.688l2.575-3.566h0.584v3.646h0.823v0.608H16.702z M14.191,22.495h1.807
		v-2.55h-0.016L14.191,22.495z"/>
</g>
<rect x="77.489" y="11.818" class="st0" width="56.693" height="17.717"/>
<g>
	<g>
		<path d="M100.538,2.205h2.327c1.496,0,2.415,1.135,2.415,2.791c0,1.287-0.56,2.95-2.447,2.95h-2.295V2.205z M101.313,7.282h1.503
			c1.008,0,1.663-0.792,1.663-2.239s-0.664-2.175-1.719-2.175h-1.447V7.282z"/>
		<path d="M108.561,4.956c-0.008-0.264-0.104-0.704-0.992-0.704c-0.216,0-0.832,0.072-0.832,0.591c0,0.344,0.216,0.424,0.76,0.56
			l0.704,0.176c0.872,0.216,1.175,0.536,1.175,1.104c0,0.863-0.711,1.383-1.655,1.383c-1.655,0-1.775-0.959-1.799-1.463h0.68
			c0.024,0.328,0.12,0.855,1.111,0.855c0.504,0,0.959-0.2,0.959-0.664c0-0.336-0.232-0.448-0.832-0.6l-0.815-0.2
			c-0.584-0.144-0.968-0.439-0.968-1.015c0-0.919,0.76-1.335,1.583-1.335c1.495,0,1.599,1.104,1.599,1.312H108.561z"/>
		<path d="M111.049,4.348v2.719c0,0.328,0.28,0.328,0.424,0.328h0.248v0.552c-0.256,0.024-0.456,0.056-0.527,0.056
			c-0.696,0-0.848-0.392-0.848-0.896V4.348h-0.568V3.764h0.568V2.597h0.704v1.167h0.671v0.583H111.049z"/>
	</g>
	<g>
	</g>
</g>
<g>
	<path d="M99.606,24.47h-0.752v-3.99h-1.311v-0.56c0.912-0.064,1.287-0.152,1.511-1.072h0.552V24.47z"/>
	<path d="M101.535,20.864c0-1.831,1.335-2.015,1.943-2.015c0.975,0,1.759,0.632,1.759,1.679c0,1.007-0.664,1.431-1.503,1.879
		l-0.584,0.32c-0.768,0.424-0.936,0.864-0.967,1.08h3.054v0.664h-3.846c0.04-1.167,0.567-1.791,1.319-2.231l0.743-0.432
		c0.6-0.344,1.032-0.576,1.032-1.311c0-0.448-0.288-1.016-1.111-1.016c-1.063,0-1.111,0.992-1.135,1.383H101.535z"/>
	<path d="M107.423,21.271c0.12,0.008,0.248,0.016,0.368,0.016c0.544,0,1.072-0.216,1.072-0.919c0-0.336-0.2-0.888-1.04-0.888
		c-1,0-1.063,0.815-1.096,1.208h-0.688c0-0.824,0.336-1.839,1.815-1.839c1.087,0,1.735,0.624,1.735,1.479
		c0,0.719-0.416,1.063-0.72,1.159v0.016c0.543,0.176,0.936,0.56,0.936,1.311c0,0.919-0.592,1.807-2.023,1.807
		c-0.416,0-0.768-0.104-1.04-0.248c-0.624-0.328-0.792-0.975-0.839-1.623h0.728c0.024,0.528,0.152,1.239,1.199,1.239
		c0.72,0,1.223-0.439,1.223-1.087c0-0.944-0.831-1.032-1.311-1.032c-0.104,0-0.216,0.008-0.32,0.008V21.271z"/>
	<path d="M113.438,23.103v1.367h-0.704v-1.367h-2.455v-0.688l2.575-3.566h0.584v3.646h0.823v0.608H113.438z M110.928,22.495h1.807
		v-2.55h-0.016L110.928,22.495z"/>
</g>
<g>
	<path d="M77.547,39.376l6.618-3.321v6.614L77.547,39.376z"/>
	<line class="st1" x1="79.038" y1="39.445" x2="91.431" y2="39.445"/>
</g>
<g>
	<path d="M100.957,38h-0.658v-3.495H99.15v-0.49c0.798-0.056,1.127-0.133,1.324-0.938h0.483V38z"/>
	<path d="M104.975,34.386c-0.077-0.435-0.315-0.757-0.847-0.757c-0.967,0-1.17,1.303-1.17,1.821l0.014,0.014
		c0.154-0.266,0.497-0.603,1.169-0.603c0.603,0,1.541,0.385,1.541,1.562c0,0.504-0.133,0.868-0.469,1.232
		c-0.259,0.287-0.553,0.477-1.247,0.477c-0.378,0-0.917-0.168-1.268-0.715c-0.294-0.462-0.378-1.064-0.378-1.708
		c0-1.079,0.35-2.634,1.821-2.634c0.567,0,1.373,0.308,1.436,1.31H104.975z M104.078,37.58c0.588,0,0.967-0.462,0.967-1.127
		c0-0.434-0.231-1.037-0.995-1.037c-0.679,0-1.009,0.49-1.009,1.072C103.042,37.013,103.357,37.58,104.078,37.58z"/>
	<path d="M106.353,38v-5.029h0.616v1.828h0.014c0.266-0.385,0.63-0.561,1.058-0.567c0.974,0,1.527,0.798,1.527,1.828
		c0,0.875-0.364,2.045-1.611,2.045c-0.624,0-0.883-0.357-1.009-0.56h-0.014V38H106.353z M107.928,34.785
		c-0.889,0-0.987,0.959-0.987,1.555c0,0.973,0.609,1.232,1.001,1.232c0.672,0,0.987-0.609,0.987-1.415
		C108.93,35.689,108.881,34.785,107.928,34.785z"/>
	<path d="M110.308,33.672v-0.701h0.616v0.701H110.308z M110.924,38h-0.616v-3.663h0.616V38z"/>
	<path d="M112.604,34.848v2.381c0,0.287,0.245,0.287,0.372,0.287h0.217V38c-0.224,0.021-0.399,0.049-0.462,0.049
		c-0.609,0-0.743-0.343-0.743-0.784v-2.417h-0.497v-0.511h0.497v-1.022h0.616v1.022h0.588v0.511H112.604z"/>
	<path d="M96.221,40.866c-0.595,1.121-0.952,1.793-0.952,3.474c0,1.155,0.399,2.01,0.959,3.109h-0.414
		c-0.728-1.092-1.205-1.968-1.205-3.278c0-1.232,0.427-2.227,1.184-3.306H96.221z"/>
	<path d="M98.979,46h-0.658v-3.495h-1.148v-0.49c0.798-0.056,1.127-0.133,1.324-0.938h0.483V46z"/>
	<path d="M102.15,46h-0.637l-1.058-3.663h0.672l0.7,2.878h0.014l0.708-2.878h0.686l0.714,2.878h0.014l0.742-2.878h0.617L104.258,46
		h-0.637l-0.742-2.836h-0.014L102.15,46z"/>
	<path d="M107.288,42.232c1.169,0,1.702,0.988,1.702,1.933s-0.532,1.933-1.702,1.933c-1.17,0-1.702-0.988-1.702-1.933
		S106.118,42.232,107.288,42.232z M107.288,45.566c0.882,0,1.064-0.911,1.064-1.401s-0.182-1.401-1.064-1.401
		c-0.883,0-1.065,0.911-1.065,1.401S106.405,45.566,107.288,45.566z"/>
	<path d="M110.388,46h-0.617v-3.663h0.582v0.609h0.014c0.245-0.427,0.567-0.714,1.029-0.714c0.077,0,0.112,0.007,0.161,0.021v0.637
		h-0.231c-0.574,0-0.938,0.448-0.938,0.98V46z"/>
	<path d="M114.919,46h-0.582v-0.504h-0.014c-0.266,0.498-0.686,0.609-1.043,0.609c-1.247,0-1.611-1.169-1.611-2.045
		c0-1.03,0.553-1.828,1.527-1.828c0.666,0,0.945,0.413,1.093,0.624l0.014-0.049v-1.835h0.617V46z M113.294,45.573
		c0.392,0,1.001-0.259,1.001-1.232c0-0.596-0.098-1.555-0.988-1.555c-0.952,0-1.001,0.904-1.001,1.373
		C112.306,44.963,112.622,45.573,113.294,45.573z"/>
	<path d="M115.561,47.45c0.595-1.121,0.953-1.793,0.953-3.474c0-1.156-0.399-2.01-0.959-3.11h0.413
		c0.729,1.093,1.205,1.968,1.205,3.278c0,1.232-0.427,2.227-1.184,3.306H115.561z"/>
</g>
<line class="st2" x1="77.36" y1="47.399" x2="77.36" y2="29.683"/>
<line class="st2" x1="134.42" y1="47.399" x2="134.42" y2="29.683"/>
<g>
	<path d="M134.313,39.559l-6.617,3.322v-6.614L134.313,39.559z"/>
	<line class="st1" x1="132.821" y1="39.49" x2="120.091" y2="39.49"/>
</g>
<g>
	<polygon class="st3" points="64.094,21.22 51.529,28.803 51.529,13.638 64.094,21.22 	"/>
	<rect x="30.298" y="17.538" class="st3" width="21.664" height="7.366"/>
</g>
</svg>
