<?xml version="1.0" encoding="utf-8"?>
<!-- Generator: Adobe Illustrator 28.2.0, SVG Export Plug-In . SVG Version: 6.00 Build 0)  -->
<svg version="1.1" id="レイヤー_1" xmlns="http://www.w3.org/2000/svg" xmlns:xlink="http://www.w3.org/1999/xlink" x="0px"
	 y="0px" width="215.03px" height="47.575px" viewBox="0 0 215.03 47.575" style="enable-background:new 0 0 215.03 47.575;"
	 xml:space="preserve">
<style type="text/css">
	.st0{fill:none;stroke:#000000;stroke-width:0.5;}
	.st1{fill:none;stroke:#000000;}
	.st2{fill:#FFFFFF;stroke:#000000;stroke-width:0.5;stroke-dasharray:1;}
	.st3{stroke:#000000;stroke-width:0.5;}
	.st4{fill:#9FA0A0;}
</style>
<g>
	<g>
		<path d="M15.975,3.883c-0.039-0.887-0.775-1.167-1.423-1.167c-0.487,0-1.312,0.136-1.312,1.007c0,0.488,0.344,0.647,0.68,0.728
			l1.64,0.376c0.743,0.176,1.303,0.624,1.303,1.535c0,1.359-1.263,1.735-2.246,1.735c-1.063,0-1.479-0.32-1.735-0.552
			c-0.488-0.439-0.584-0.919-0.584-1.455h0.728c0,1.04,0.848,1.343,1.583,1.343c0.561,0,1.504-0.144,1.504-0.967
			c0-0.6-0.28-0.792-1.224-1.016l-1.176-0.272c-0.375-0.088-1.223-0.352-1.223-1.351c0-0.896,0.583-1.775,1.975-1.775
			c2.007,0,2.207,1.199,2.239,1.831H15.975z"/>
		<path d="M18.561,7.945h-0.704V3.764h0.664v0.696h0.016c0.28-0.488,0.648-0.816,1.176-0.816c0.088,0,0.128,0.008,0.184,0.024v0.728
			h-0.264c-0.655,0-1.071,0.512-1.071,1.12V7.945z"/>
		<path d="M23.039,5.171c-0.088-0.56-0.399-0.896-0.991-0.896c-0.871,0-1.151,0.832-1.151,1.575c0,0.719,0.176,1.607,1.144,1.607
			c0.472,0,0.88-0.352,0.999-0.991h0.68c-0.071,0.664-0.479,1.599-1.703,1.599c-1.175,0-1.87-0.888-1.87-2.095
			c0-1.295,0.623-2.327,2.007-2.327c1.095,0,1.511,0.8,1.566,1.527H23.039z"/>
	</g>
	<g>
	</g>
</g>
<g>
	<path d="M2.871,24.47H2.119v-3.99H0.808v-0.56c0.912-0.064,1.287-0.152,1.511-1.072h0.552V24.47z"/>
	<path d="M4.8,20.864c0-1.831,1.336-2.015,1.943-2.015c0.976,0,1.759,0.632,1.759,1.679c0,1.007-0.664,1.431-1.503,1.879
		l-0.584,0.32c-0.768,0.424-0.936,0.864-0.967,1.08h3.054v0.664H4.656c0.04-1.167,0.567-1.791,1.319-2.231l0.743-0.432
		c0.6-0.344,1.031-0.576,1.031-1.311c0-0.448-0.287-1.016-1.111-1.016c-1.063,0-1.111,0.992-1.135,1.383H4.8z"/>
	<path d="M10.688,21.271c0.12,0.008,0.248,0.016,0.368,0.016c0.543,0,1.071-0.216,1.071-0.919c0-0.336-0.2-0.888-1.04-0.888
		c-0.999,0-1.063,0.815-1.095,1.208H9.305c0-0.824,0.335-1.839,1.814-1.839c1.088,0,1.735,0.624,1.735,1.479
		c0,0.719-0.416,1.063-0.72,1.159v0.016c0.544,0.176,0.936,0.56,0.936,1.311c0,0.919-0.592,1.807-2.023,1.807
		c-0.415,0-0.768-0.104-1.039-0.248c-0.624-0.328-0.791-0.975-0.84-1.623h0.728c0.024,0.528,0.152,1.239,1.2,1.239
		c0.719,0,1.223-0.439,1.223-1.087c0-0.944-0.831-1.032-1.311-1.032c-0.104,0-0.217,0.008-0.32,0.008V21.271z"/>
	<path d="M16.702,23.103v1.367h-0.704v-1.367h-2.454v-0.688l2.574-3.566h0.584v3.646h0.823v0.608H16.702z M14.191,22.495h1.807
		v-2.55h-0.016L14.191,22.495z"/>
	<path d="M18.968,21.2c0.239-0.184,0.583-0.352,1.087-0.352c0.911,0,1.847,0.64,1.847,1.799c0,0.624-0.279,1.975-2.038,1.975
		c-0.736,0-1.68-0.296-1.815-1.551h0.728c0.072,0.656,0.56,0.944,1.191,0.944c0.728,0,1.184-0.584,1.184-1.288
		c0-0.808-0.552-1.247-1.248-1.247c-0.407,0-0.775,0.192-1.039,0.536l-0.607-0.032l0.424-3.014h2.91v0.688h-2.383L18.968,21.2z"/>
	<path d="M25.574,20.344c-0.088-0.496-0.359-0.864-0.967-0.864c-1.104,0-1.336,1.487-1.336,2.079l0.017,0.016
		c0.176-0.304,0.567-0.688,1.335-0.688c0.688,0,1.759,0.44,1.759,1.783c0,0.576-0.151,0.991-0.535,1.407
		c-0.296,0.328-0.632,0.543-1.424,0.543c-0.432,0-1.047-0.192-1.447-0.815c-0.336-0.528-0.432-1.215-0.432-1.951
		c0-1.231,0.399-3.006,2.079-3.006c0.647,0,1.567,0.352,1.639,1.496H25.574z M24.551,23.99c0.672,0,1.104-0.527,1.104-1.287
		c0-0.496-0.264-1.183-1.136-1.183c-0.775,0-1.151,0.56-1.151,1.223C23.367,23.342,23.728,23.99,24.551,23.99z"/>
	<path d="M26.983,18.969h3.886v0.616c-0.56,0.583-1.903,2.375-2.311,4.885h-0.775c0.191-1.543,1.215-3.558,2.295-4.813h-3.095
		V18.969z"/>
	<path d="M34.35,21.479c0.76,0.32,0.92,0.943,0.92,1.367c0,0.903-0.576,1.775-1.903,1.775c-0.312,0-0.903-0.08-1.351-0.432
		c-0.576-0.456-0.576-1.063-0.576-1.335c0-0.688,0.36-1.127,0.951-1.367c-0.479-0.184-0.759-0.568-0.759-1.095
		c0-0.584,0.359-1.543,1.703-1.543c1.247,0,1.734,0.792,1.734,1.447C35.069,21.104,34.598,21.352,34.35,21.479z M32.191,22.871
		c0,0.448,0.224,1.119,1.199,1.119c0.512,0,1.127-0.184,1.127-1.063c0-0.76-0.527-1.096-1.167-1.096
		C32.559,21.831,32.191,22.351,32.191,22.871z M34.342,20.32c0-0.344-0.224-0.839-1.047-0.839c-0.752,0-0.936,0.52-0.936,0.879
		c0,0.536,0.472,0.864,0.983,0.864C33.95,21.224,34.342,20.832,34.342,20.32z"/>
</g>
<g>
	<path d="M136.279,3.87h0.584v1.727h1.727v0.583h-1.727v1.727h-0.584V6.181h-1.735V5.597h1.735V3.87z"/>
	<path d="M141.774,7.908h-0.751v-3.99h-1.312v-0.56c0.911-0.064,1.287-0.152,1.511-1.072h0.552V7.908z"/>
</g>
<rect x="101.211" y="11.818" class="st0" width="113.569" height="17.717"/>
<g>
	<g>
		<path d="M178.803,2.205h2.327c1.495,0,2.414,1.135,2.414,2.791c0,1.287-0.56,2.95-2.446,2.95h-2.295V2.205z M179.578,7.282h1.504
			c1.007,0,1.663-0.792,1.663-2.239s-0.664-2.175-1.72-2.175h-1.447V7.282z"/>
		<path d="M186.826,4.955c-0.008-0.264-0.104-0.704-0.991-0.704c-0.216,0-0.832,0.072-0.832,0.592c0,0.344,0.216,0.423,0.76,0.56
			l0.703,0.176c0.872,0.216,1.176,0.536,1.176,1.104c0,0.863-0.712,1.383-1.655,1.383c-1.655,0-1.774-0.959-1.799-1.463h0.68
			c0.023,0.328,0.12,0.855,1.111,0.855c0.504,0,0.959-0.2,0.959-0.664c0-0.336-0.231-0.448-0.831-0.6l-0.815-0.2
			c-0.584-0.144-0.968-0.44-0.968-1.016c0-0.919,0.76-1.335,1.583-1.335c1.495,0,1.6,1.104,1.6,1.312H186.826z"/>
		<path d="M189.314,4.347v2.719c0,0.328,0.28,0.328,0.424,0.328h0.248v0.552c-0.256,0.024-0.455,0.056-0.527,0.056
			c-0.695,0-0.848-0.392-0.848-0.896V4.347h-0.567V3.764h0.567V2.596h0.703v1.167h0.672v0.583H189.314z"/>
	</g>
	<g>
	</g>
</g>
<g>
	<g>
		<path d="M120.05,2.205h2.327c1.495,0,2.414,1.135,2.414,2.791c0,1.287-0.56,2.95-2.446,2.95h-2.295V2.205z M120.825,7.282h1.504
			c1.007,0,1.663-0.792,1.663-2.239s-0.664-2.175-1.72-2.175h-1.447V7.282z"/>
		<path d="M128.072,4.955c-0.008-0.264-0.104-0.704-0.991-0.704c-0.216,0-0.832,0.072-0.832,0.592c0,0.344,0.216,0.423,0.76,0.56
			l0.703,0.176c0.872,0.216,1.176,0.536,1.176,1.104c0,0.863-0.712,1.383-1.655,1.383c-1.655,0-1.774-0.959-1.799-1.463h0.68
			c0.023,0.328,0.12,0.855,1.111,0.855c0.504,0,0.959-0.2,0.959-0.664c0-0.336-0.231-0.448-0.831-0.6l-0.815-0.2
			c-0.584-0.144-0.968-0.44-0.968-1.016c0-0.919,0.76-1.335,1.583-1.335c1.495,0,1.6,1.104,1.6,1.312H128.072z"/>
		<path d="M130.561,4.347v2.719c0,0.328,0.28,0.328,0.424,0.328h0.248v0.552c-0.256,0.024-0.455,0.056-0.527,0.056
			c-0.695,0-0.848-0.392-0.848-0.896V4.347h-0.567V3.764h0.567V2.596h0.703v1.167h0.672v0.583H130.561z"/>
	</g>
	<g>
	</g>
</g>
<g>
	<path d="M142.87,24.47h-0.751v-3.99h-1.312v-0.56c0.911-0.064,1.287-0.152,1.511-1.072h0.552V24.47z"/>
	<path d="M144.8,20.864c0-1.831,1.336-2.015,1.943-2.015c0.976,0,1.759,0.632,1.759,1.679c0,1.007-0.664,1.431-1.503,1.879
		l-0.584,0.32c-0.768,0.424-0.936,0.864-0.968,1.08h3.055v0.664h-3.846c0.04-1.167,0.567-1.791,1.319-2.231l0.743-0.432
		c0.6-0.344,1.031-0.576,1.031-1.311c0-0.448-0.287-1.016-1.111-1.016c-1.063,0-1.111,0.992-1.135,1.383H144.8z"/>
	<path d="M150.688,21.271c0.12,0.008,0.248,0.016,0.368,0.016c0.543,0,1.071-0.216,1.071-0.919c0-0.336-0.2-0.888-1.04-0.888
		c-0.999,0-1.063,0.815-1.095,1.208h-0.688c0-0.824,0.335-1.839,1.814-1.839c1.088,0,1.735,0.624,1.735,1.479
		c0,0.719-0.416,1.063-0.72,1.159v0.016c0.544,0.176,0.936,0.56,0.936,1.311c0,0.919-0.592,1.807-2.023,1.807
		c-0.415,0-0.768-0.104-1.039-0.248c-0.624-0.328-0.791-0.975-0.84-1.623h0.728c0.024,0.528,0.152,1.239,1.2,1.239
		c0.719,0,1.223-0.439,1.223-1.087c0-0.944-0.831-1.032-1.311-1.032c-0.104,0-0.217,0.008-0.32,0.008V21.271z"/>
	<path d="M156.702,23.103v1.367h-0.704v-1.367h-2.454v-0.688l2.574-3.566h0.584v3.646h0.823v0.608H156.702z M154.191,22.495h1.807
		v-2.55h-0.016L154.191,22.495z"/>
	<path d="M158.968,21.2c0.239-0.184,0.583-0.352,1.087-0.352c0.911,0,1.847,0.64,1.847,1.799c0,0.624-0.279,1.975-2.038,1.975
		c-0.736,0-1.68-0.296-1.815-1.551h0.728c0.072,0.656,0.56,0.944,1.191,0.944c0.728,0,1.184-0.584,1.184-1.288
		c0-0.808-0.552-1.247-1.248-1.247c-0.407,0-0.775,0.192-1.039,0.536l-0.607-0.032l0.424-3.014h2.91v0.688h-2.383L158.968,21.2z"/>
	<path d="M165.574,20.344c-0.088-0.496-0.359-0.864-0.967-0.864c-1.104,0-1.336,1.487-1.336,2.079l0.017,0.016
		c0.176-0.304,0.567-0.688,1.335-0.688c0.688,0,1.759,0.44,1.759,1.783c0,0.576-0.151,0.991-0.535,1.407
		c-0.296,0.328-0.632,0.543-1.424,0.543c-0.432,0-1.047-0.192-1.447-0.815c-0.336-0.528-0.432-1.215-0.432-1.951
		c0-1.231,0.399-3.006,2.079-3.006c0.647,0,1.567,0.352,1.639,1.496H165.574z M164.551,23.99c0.672,0,1.104-0.527,1.104-1.287
		c0-0.496-0.264-1.183-1.136-1.183c-0.775,0-1.151,0.56-1.151,1.223C163.367,23.342,163.728,23.99,164.551,23.99z"/>
	<path d="M166.983,18.969h3.886v0.616c-0.56,0.583-1.903,2.375-2.311,4.885h-0.775c0.191-1.543,1.215-3.558,2.295-4.813h-3.095
		V18.969z"/>
	<path d="M174.35,21.479c0.76,0.32,0.92,0.943,0.92,1.367c0,0.903-0.576,1.775-1.903,1.775c-0.312,0-0.903-0.08-1.351-0.432
		c-0.576-0.456-0.576-1.063-0.576-1.335c0-0.688,0.36-1.127,0.951-1.367c-0.479-0.184-0.759-0.568-0.759-1.095
		c0-0.584,0.359-1.543,1.703-1.543c1.247,0,1.734,0.792,1.734,1.447C175.069,21.104,174.598,21.352,174.35,21.479z M172.191,22.871
		c0,0.448,0.224,1.119,1.199,1.119c0.512,0,1.127-0.184,1.127-1.063c0-0.76-0.527-1.096-1.167-1.096
		C172.559,21.831,172.191,22.351,172.191,22.871z M174.342,20.32c0-0.344-0.224-0.839-1.047-0.839c-0.752,0-0.936,0.52-0.936,0.879
		c0,0.536,0.472,0.864,0.983,0.864C173.95,21.224,174.342,20.832,174.342,20.32z"/>
</g>
<g>
	<path d="M101.269,39.376l6.616-3.322v6.613L101.269,39.376z"/>
	<line class="st1" x1="102.761" y1="39.445" x2="143.198" y2="39.445"/>
</g>
<g>
	<path d="M152.342,35.198c0.105,0.007,0.218,0.014,0.322,0.014c0.477,0,0.938-0.189,0.938-0.805c0-0.294-0.175-0.777-0.91-0.777
		c-0.875,0-0.932,0.714-0.959,1.057h-0.603c0-0.721,0.294-1.611,1.59-1.611c0.952,0,1.52,0.546,1.52,1.296
		c0,0.63-0.364,0.932-0.63,1.016v0.014c0.476,0.154,0.819,0.491,0.819,1.148c0,0.806-0.519,1.583-1.772,1.583
		c-0.364,0-0.672-0.091-0.91-0.217c-0.547-0.287-0.693-0.854-0.735-1.422h0.637c0.021,0.462,0.134,1.086,1.051,1.086
		c0.631,0,1.072-0.386,1.072-0.953c0-0.826-0.729-0.903-1.149-0.903c-0.091,0-0.188,0.007-0.28,0.007V35.198z"/>
	<path d="M154.974,34.841c0-1.604,1.169-1.765,1.701-1.765c0.854,0,1.541,0.554,1.541,1.471c0,0.882-0.581,1.253-1.316,1.646
		l-0.512,0.281c-0.672,0.371-0.819,0.756-0.848,0.945h2.676V38h-3.369c0.035-1.022,0.498-1.568,1.156-1.954l0.651-0.378
		c0.525-0.301,0.903-0.504,0.903-1.149c0-0.392-0.252-0.889-0.974-0.889c-0.932,0-0.974,0.868-0.994,1.211H154.974z"/>
	<path d="M158.964,38v-5.029h0.616v1.828h0.014c0.267-0.385,0.631-0.561,1.058-0.567c0.974,0,1.527,0.798,1.527,1.828
		c0,0.875-0.364,2.045-1.611,2.045c-0.623,0-0.882-0.357-1.008-0.561h-0.015V38H158.964z M160.54,34.785
		c-0.89,0-0.988,0.959-0.988,1.555c0,0.974,0.609,1.233,1.002,1.233c0.672,0,0.987-0.609,0.987-1.415
		C161.541,35.688,161.492,34.785,160.54,34.785z"/>
	<path d="M162.919,33.671v-0.701h0.616v0.701H162.919z M163.535,38h-0.616v-3.663h0.616V38z"/>
	<path d="M165.215,34.848v2.381c0,0.287,0.245,0.287,0.371,0.287h0.217V38c-0.224,0.021-0.399,0.049-0.462,0.049
		c-0.609,0-0.742-0.343-0.742-0.784v-2.417h-0.498v-0.511h0.498v-1.022h0.616v1.022h0.588v0.511H165.215z"/>
	<path d="M146.941,40.866c-0.595,1.121-0.952,1.793-0.952,3.474c0,1.156,0.399,2.011,0.959,3.11h-0.413
		c-0.729-1.093-1.204-1.969-1.204-3.278c0-1.232,0.427-2.228,1.184-3.306H146.941z"/>
	<path d="M147.494,42.84c0-1.604,1.169-1.765,1.701-1.765c0.854,0,1.541,0.554,1.541,1.471c0,0.883-0.581,1.254-1.316,1.646
		l-0.512,0.28c-0.672,0.371-0.819,0.756-0.848,0.945h2.676V46h-3.369c0.035-1.022,0.498-1.568,1.156-1.954l0.651-0.378
		c0.525-0.302,0.903-0.505,0.903-1.148c0-0.393-0.252-0.89-0.974-0.89c-0.932,0-0.974,0.868-0.994,1.211H147.494z"/>
	<path d="M152.87,46h-0.638l-1.058-3.663h0.673l0.7,2.879h0.014l0.708-2.879h0.687l0.714,2.879h0.015l0.742-2.879h0.616L154.979,46
		h-0.638l-0.742-2.837h-0.014L152.87,46z"/>
	<path d="M158.009,42.232c1.169,0,1.702,0.987,1.702,1.933s-0.533,1.933-1.702,1.933c-1.17,0-1.702-0.987-1.702-1.933
		S156.839,42.232,158.009,42.232z M158.009,45.565c0.882,0,1.064-0.91,1.064-1.4s-0.183-1.4-1.064-1.4
		c-0.883,0-1.064,0.91-1.064,1.4S157.126,45.565,158.009,45.565z"/>
	<path d="M161.108,46h-0.616v-3.663h0.582v0.609h0.014c0.245-0.427,0.567-0.714,1.029-0.714c0.077,0,0.112,0.007,0.161,0.021v0.638
		h-0.231c-0.574,0-0.938,0.448-0.938,0.98V46z"/>
	<path d="M165.64,46h-0.581v-0.504h-0.015c-0.266,0.497-0.687,0.609-1.043,0.609c-1.247,0-1.611-1.17-1.611-2.046
		c0-1.029,0.554-1.827,1.526-1.827c0.666,0,0.946,0.413,1.093,0.623l0.015-0.049v-1.835h0.616V46z M164.015,45.573
		c0.393,0,1.001-0.26,1.001-1.233c0-0.595-0.098-1.555-0.987-1.555c-0.952,0-1.001,0.903-1.001,1.373
		C163.027,44.963,163.342,45.573,164.015,45.573z"/>
	<path d="M168.571,43.38c-0.007-0.231-0.091-0.616-0.868-0.616c-0.189,0-0.729,0.062-0.729,0.518c0,0.302,0.189,0.371,0.665,0.49
		l0.616,0.154c0.764,0.189,1.03,0.47,1.03,0.967c0,0.756-0.624,1.212-1.45,1.212c-1.449,0-1.555-0.841-1.576-1.282h0.596
		c0.021,0.287,0.105,0.75,0.974,0.75c0.441,0,0.841-0.176,0.841-0.582c0-0.294-0.203-0.392-0.729-0.525l-0.715-0.175
		c-0.511-0.126-0.848-0.385-0.848-0.89c0-0.806,0.666-1.169,1.387-1.169c1.311,0,1.401,0.966,1.401,1.148H168.571z"/>
	<path d="M169.781,47.45c0.596-1.121,0.952-1.793,0.952-3.475c0-1.155-0.398-2.01-0.959-3.109h0.413
		c0.729,1.093,1.205,1.968,1.205,3.277c0,1.233-0.428,2.228-1.184,3.307H169.781z"/>
</g>
<line class="st2" x1="101.082" y1="47.399" x2="101.082" y2="29.683"/>
<line class="st2" x1="214.704" y1="47.399" x2="214.704" y2="29.683"/>
<g>
	<path d="M214.597,39.559l-6.616,3.322v-6.614L214.597,39.559z"/>
	<line class="st1" x1="213.105" y1="39.49" x2="172.885" y2="39.49"/>
</g>
<line class="st3" x1="157.573" y1="11.935" x2="157.573" y2="15.373"/>
<line class="st3" x1="157.573" y1="25.998" x2="157.573" y2="29.435"/>
<g>
	<polygon class="st4" points="88.325,20.95 75.759,28.533 75.759,13.368 88.325,20.95 	"/>
	<rect x="54.529" y="17.268" class="st4" width="21.664" height="7.366"/>
</g>
</svg>
