<?xml version="1.0" encoding="utf-8"?>
<!-- Generator: Adobe Illustrator 28.2.0, SVG Export Plug-In . SVG Version: 6.00 Build 0)  -->
<svg version="1.1" id="儗僀儎乕_1" xmlns="http://www.w3.org/2000/svg" xmlns:xlink="http://www.w3.org/1999/xlink" x="0px"
	 y="0px" width="341.021px" height="48.192px" viewBox="0 0 341.021 48.192" style="enable-background:new 0 0 341.021 48.192;"
	 xml:space="preserve">
<style type="text/css">
	.st0{fill:none;stroke:#000000;}
	.st1{fill:#FFFFFF;stroke:#000000;stroke-width:0.5;stroke-dasharray:1;}
	.st2{stroke:#000000;stroke-width:0.5;}
	.st3{fill:#9FA0A0;}
	.st4{fill:none;stroke:#000000;stroke-width:0.5;}
</style>
<g>
	<path d="M2.047,20.134H2.63v1.727h1.727v0.583H2.63v1.727H2.047v-1.727H0.312v-0.583h1.735V20.134z"/>
	<path d="M7.542,24.172H6.791v-3.99H5.479v-0.56c0.912-0.064,1.287-0.152,1.511-1.072h0.552V24.172z"/>
	<path d="M10.647,24.172H9.816v-0.848h0.832V24.172z"/>
	<path d="M11.695,20.566c0-1.831,1.335-2.015,1.943-2.015c0.975,0,1.759,0.632,1.759,1.679c0,1.007-0.664,1.431-1.503,1.879
		l-0.584,0.32c-0.768,0.424-0.936,0.864-0.967,1.08h3.054v0.664h-3.846c0.04-1.167,0.567-1.791,1.319-2.231l0.743-0.432
		c0.6-0.344,1.032-0.576,1.032-1.311c0-0.448-0.288-1.016-1.111-1.016c-1.063,0-1.111,0.991-1.135,1.383H11.695z"/>
	<path d="M17.583,20.974c0.12,0.008,0.248,0.016,0.368,0.016c0.544,0,1.072-0.216,1.072-0.919c0-0.336-0.2-0.888-1.04-0.888
		c-1,0-1.063,0.815-1.096,1.208H16.2c0-0.824,0.336-1.839,1.815-1.839c1.087,0,1.735,0.624,1.735,1.479
		c0,0.72-0.416,1.063-0.72,1.159v0.016c0.543,0.176,0.936,0.56,0.936,1.311c0,0.92-0.592,1.807-2.023,1.807
		c-0.416,0-0.768-0.104-1.04-0.248c-0.624-0.328-0.792-0.976-0.839-1.624h0.728c0.024,0.528,0.152,1.24,1.199,1.24
		c0.72,0,1.223-0.44,1.223-1.088c0-0.943-0.831-1.031-1.311-1.031c-0.104,0-0.216,0.008-0.32,0.008V20.974z"/>
	<path d="M23.599,22.805v1.367h-0.704v-1.367H20.44v-0.688l2.575-3.566h0.584v3.646h0.823v0.608H23.599z M21.088,22.197h1.807v-2.55
		h-0.016L21.088,22.197z"/>
	<path d="M25.863,20.902c0.24-0.184,0.584-0.352,1.088-0.352c0.911,0,1.847,0.64,1.847,1.799c0,0.624-0.28,1.975-2.039,1.975
		c-0.735,0-1.679-0.296-1.815-1.551h0.728c0.072,0.656,0.56,0.944,1.192,0.944c0.728,0,1.183-0.584,1.183-1.288
		c0-0.808-0.552-1.247-1.247-1.247c-0.408,0-0.775,0.192-1.04,0.536l-0.607-0.032l0.424-3.014h2.911v0.688h-2.383L25.863,20.902z"/>
	<path d="M32.47,20.046c-0.088-0.496-0.359-0.863-0.968-0.863c-1.103,0-1.335,1.487-1.335,2.079l0.017,0.016
		c0.176-0.304,0.567-0.688,1.335-0.688c0.688,0,1.759,0.44,1.759,1.783c0,0.576-0.151,0.991-0.535,1.407
		c-0.296,0.328-0.632,0.543-1.424,0.543c-0.432,0-1.047-0.192-1.447-0.815c-0.336-0.528-0.432-1.215-0.432-1.951
		c0-1.231,0.4-3.006,2.079-3.006c0.647,0,1.567,0.352,1.639,1.495H32.47z M31.446,23.692c0.672,0,1.104-0.528,1.104-1.288
		c0-0.496-0.264-1.183-1.136-1.183c-0.775,0-1.151,0.56-1.151,1.223C30.263,23.044,30.623,23.692,31.446,23.692z"/>
	<path d="M33.88,18.671h3.886v0.616c-0.56,0.583-1.903,2.375-2.311,4.885H34.68c0.191-1.543,1.215-3.558,2.295-4.813H33.88V18.671z"
		/>
	<path d="M41.246,21.182c0.76,0.32,0.92,0.943,0.92,1.367c0,0.903-0.576,1.775-1.903,1.775c-0.312,0-0.903-0.08-1.351-0.432
		c-0.576-0.456-0.576-1.063-0.576-1.335c0-0.688,0.36-1.127,0.951-1.367c-0.479-0.184-0.759-0.567-0.759-1.095
		c0-0.584,0.359-1.543,1.703-1.543c1.247,0,1.734,0.792,1.734,1.447C41.966,20.806,41.494,21.054,41.246,21.182z M39.088,22.573
		c0,0.448,0.224,1.12,1.199,1.12c0.512,0,1.127-0.184,1.127-1.063c0-0.76-0.527-1.096-1.167-1.096
		C39.455,21.533,39.088,22.053,39.088,22.573z M41.238,20.022c0-0.344-0.224-0.839-1.047-0.839c-0.752,0-0.936,0.52-0.936,0.879
		c0,0.536,0.472,0.864,0.983,0.864C40.847,20.926,41.238,20.534,41.238,20.022z"/>
	<path d="M42.816,20.478c0-1.023,0.623-1.927,1.807-1.927c1.791,0,1.967,1.695,1.967,2.607c0,0.6-0.104,3.166-2.038,3.166
		c-1.319,0-1.672-0.959-1.672-1.503h0.704c0.04,0.567,0.376,0.919,0.951,0.919c0.768,0,1.176-0.648,1.352-2.103l-0.016-0.016
		c-0.208,0.432-0.768,0.672-1.288,0.672C43.544,22.293,42.816,21.597,42.816,20.478z M45.767,20.382c0-0.64-0.328-1.199-1.136-1.199
		c-0.655,0-1.087,0.512-1.087,1.263c0,1.08,0.672,1.215,1.144,1.215C45.055,21.661,45.767,21.493,45.767,20.382z"/>
</g>
<g>
	<path d="M206.422,20.134h0.584v1.727h1.727v0.583h-1.727v1.727h-0.584v-1.727h-1.735v-0.583h1.735V20.134z"/>
	<path d="M211.917,24.172h-0.751v-3.99h-1.312v-0.56c0.911-0.064,1.287-0.152,1.511-1.072h0.552V24.172z"/>
	<path d="M215.023,24.172h-0.832v-0.848h0.832V24.172z"/>
	<path d="M216.071,20.566c0-1.831,1.336-2.015,1.943-2.015c0.976,0,1.759,0.632,1.759,1.679c0,1.007-0.663,1.431-1.503,1.879
		l-0.584,0.32c-0.768,0.424-0.936,0.864-0.968,1.08h3.055v0.664h-3.846c0.04-1.167,0.567-1.791,1.319-2.231l0.743-0.432
		c0.6-0.344,1.031-0.576,1.031-1.311c0-0.448-0.287-1.016-1.111-1.016c-1.063,0-1.111,0.991-1.135,1.383H216.071z"/>
	<path d="M221.958,20.974c0.12,0.008,0.248,0.016,0.368,0.016c0.543,0,1.071-0.216,1.071-0.919c0-0.336-0.2-0.888-1.04-0.888
		c-0.999,0-1.063,0.815-1.095,1.208h-0.688c0-0.824,0.335-1.839,1.814-1.839c1.088,0,1.735,0.624,1.735,1.479
		c0,0.72-0.416,1.063-0.72,1.159v0.016c0.544,0.176,0.936,0.56,0.936,1.311c0,0.92-0.592,1.807-2.023,1.807
		c-0.415,0-0.768-0.104-1.039-0.248c-0.624-0.328-0.792-0.976-0.84-1.624h0.728c0.024,0.528,0.152,1.24,1.2,1.24
		c0.719,0,1.223-0.44,1.223-1.088c0-0.943-0.831-1.031-1.312-1.031c-0.104,0-0.216,0.008-0.319,0.008V20.974z"/>
	<path d="M227.974,22.805v1.367h-0.704v-1.367h-2.454v-0.688l2.574-3.566h0.584v3.646h0.823v0.608H227.974z M225.463,22.197h1.807
		v-2.55h-0.016L225.463,22.197z"/>
	<path d="M230.239,20.902c0.239-0.184,0.583-0.352,1.087-0.352c0.911,0,1.847,0.64,1.847,1.799c0,0.624-0.279,1.975-2.038,1.975
		c-0.736,0-1.68-0.296-1.815-1.551h0.728c0.072,0.656,0.56,0.944,1.191,0.944c0.728,0,1.184-0.584,1.184-1.288
		c0-0.808-0.552-1.247-1.247-1.247c-0.408,0-0.776,0.192-1.04,0.536l-0.607-0.032l0.424-3.014h2.91v0.688h-2.383L230.239,20.902z"/>
	<path d="M236.845,20.046c-0.088-0.496-0.359-0.863-0.968-0.863c-1.103,0-1.335,1.487-1.335,2.079l0.017,0.016
		c0.176-0.304,0.567-0.688,1.335-0.688c0.688,0,1.759,0.44,1.759,1.783c0,0.576-0.151,0.991-0.535,1.407
		c-0.296,0.328-0.632,0.543-1.424,0.543c-0.432,0-1.047-0.192-1.447-0.815c-0.336-0.528-0.432-1.215-0.432-1.951
		c0-1.231,0.4-3.006,2.079-3.006c0.647,0,1.567,0.352,1.639,1.495H236.845z M235.822,23.692c0.672,0,1.104-0.528,1.104-1.288
		c0-0.496-0.264-1.183-1.136-1.183c-0.775,0-1.151,0.56-1.151,1.223C234.638,23.044,234.999,23.692,235.822,23.692z"/>
	<path d="M238.255,18.671h3.886v0.616c-0.56,0.583-1.903,2.375-2.311,4.885h-0.775c0.191-1.543,1.215-3.558,2.295-4.813h-3.095
		V18.671z"/>
	<path d="M245.622,21.182c0.76,0.32,0.92,0.943,0.92,1.367c0,0.903-0.576,1.775-1.903,1.775c-0.312,0-0.903-0.08-1.351-0.432
		c-0.576-0.456-0.576-1.063-0.576-1.335c0-0.688,0.36-1.127,0.951-1.367c-0.479-0.184-0.759-0.567-0.759-1.095
		c0-0.584,0.359-1.543,1.703-1.543c1.247,0,1.734,0.792,1.734,1.447C246.341,20.806,245.87,21.054,245.622,21.182z M243.463,22.573
		c0,0.448,0.224,1.12,1.199,1.12c0.512,0,1.127-0.184,1.127-1.063c0-0.76-0.527-1.096-1.167-1.096
		C243.831,21.533,243.463,22.053,243.463,22.573z M245.614,20.022c0-0.344-0.224-0.839-1.047-0.839c-0.752,0-0.936,0.52-0.936,0.879
		c0,0.536,0.472,0.864,0.983,0.864C245.222,20.926,245.614,20.534,245.614,20.022z"/>
	<path d="M247.192,20.478c0-1.023,0.623-1.927,1.807-1.927c1.791,0,1.967,1.695,1.967,2.607c0,0.6-0.104,3.166-2.038,3.166
		c-1.319,0-1.672-0.959-1.672-1.503h0.704c0.04,0.567,0.376,0.919,0.951,0.919c0.768,0,1.176-0.648,1.352-2.103l-0.016-0.016
		c-0.208,0.432-0.768,0.672-1.288,0.672C247.919,22.293,247.192,21.597,247.192,20.478z M250.142,20.382
		c0-0.64-0.328-1.199-1.136-1.199c-0.655,0-1.087,0.512-1.087,1.263c0,1.08,0.672,1.215,1.144,1.215
		C249.43,21.661,250.142,21.493,250.142,20.382z"/>
</g>
<g>
	<path d="M113.816,39.079l6.616-3.322v6.613L113.816,39.079z"/>
	<line class="st0" x1="115.308" y1="39.148" x2="197.724" y2="39.148"/>
</g>
<g>
	<path d="M222.493,35.003c-0.077-0.434-0.315-0.756-0.848-0.756c-0.967,0-1.17,1.303-1.17,1.82l0.015,0.015
		c0.153-0.266,0.497-0.602,1.169-0.602c0.603,0,1.541,0.385,1.541,1.561c0,0.505-0.133,0.869-0.469,1.233
		c-0.26,0.287-0.554,0.476-1.247,0.476c-0.378,0-0.918-0.168-1.268-0.714c-0.294-0.463-0.378-1.064-0.378-1.709
		c0-1.079,0.35-2.633,1.82-2.633c0.567,0,1.373,0.309,1.436,1.31H222.493z M221.596,38.197c0.588,0,0.966-0.463,0.966-1.128
		c0-0.435-0.23-1.036-0.994-1.036c-0.68,0-1.009,0.49-1.009,1.071C220.559,37.63,220.875,38.197,221.596,38.197z"/>
	<path d="M226.405,37.42v1.197h-0.616V37.42h-2.15v-0.603l2.256-3.124h0.511v3.194h0.722v0.532H226.405z M224.206,36.888h1.583
		v-2.234h-0.014L224.206,36.888z"/>
	<path d="M227.762,38.617v-5.028h0.616v1.827h0.014c0.267-0.385,0.631-0.56,1.058-0.566c0.974,0,1.527,0.798,1.527,1.827
		c0,0.876-0.364,2.046-1.611,2.046c-0.623,0-0.882-0.357-1.008-0.561h-0.015v0.455H227.762z M229.338,35.403
		c-0.89,0-0.988,0.959-0.988,1.554c0,0.974,0.609,1.233,1.002,1.233c0.672,0,0.987-0.609,0.987-1.415
		C230.339,36.306,230.291,35.403,229.338,35.403z"/>
	<path d="M231.717,34.29v-0.7h0.616v0.7H231.717z M232.333,38.617h-0.616v-3.663h0.616V38.617z"/>
	<path d="M234.013,35.466v2.38c0,0.287,0.245,0.287,0.371,0.287h0.217v0.483c-0.224,0.021-0.399,0.049-0.462,0.049
		c-0.609,0-0.742-0.343-0.742-0.784v-2.416h-0.498v-0.512h0.498v-1.022h0.616v1.022h0.588v0.512H234.013z"/>
	<path d="M215.74,41.483c-0.595,1.121-0.952,1.793-0.952,3.474c0,1.156,0.399,2.011,0.959,3.11h-0.413
		c-0.729-1.093-1.204-1.969-1.204-3.278c0-1.232,0.427-2.228,1.184-3.306H215.74z"/>
	<path d="M218.925,45.42v1.197h-0.616V45.42h-2.15v-0.603l2.256-3.124h0.511v3.194h0.722v0.532H218.925z M216.726,44.888h1.583
		v-2.234h-0.014L216.726,44.888z"/>
	<path d="M221.668,46.617h-0.638l-1.058-3.663h0.673l0.7,2.879h0.014l0.708-2.879h0.687l0.714,2.879h0.015l0.742-2.879h0.616
		l-1.064,3.663h-0.638l-0.742-2.837h-0.014L221.668,46.617z"/>
	<path d="M226.807,42.85c1.169,0,1.702,0.987,1.702,1.933s-0.533,1.933-1.702,1.933c-1.17,0-1.702-0.987-1.702-1.933
		S225.637,42.85,226.807,42.85z M226.807,46.183c0.882,0,1.064-0.91,1.064-1.4s-0.183-1.4-1.064-1.4c-0.883,0-1.064,0.91-1.064,1.4
		S225.924,46.183,226.807,46.183z"/>
	<path d="M229.907,46.617h-0.616v-3.663h0.581v0.609h0.015c0.245-0.427,0.567-0.714,1.029-0.714c0.077,0,0.112,0.007,0.161,0.021
		v0.638h-0.231c-0.574,0-0.938,0.448-0.938,0.98V46.617z"/>
	<path d="M234.438,46.617h-0.582v-0.504h-0.014c-0.266,0.497-0.687,0.609-1.043,0.609c-1.247,0-1.611-1.17-1.611-2.046
		c0-1.029,0.554-1.827,1.526-1.827c0.666,0,0.946,0.413,1.093,0.623l0.015-0.049v-1.835h0.616V46.617z M232.813,46.19
		c0.393,0,1.001-0.26,1.001-1.233c0-0.595-0.098-1.555-0.987-1.555c-0.952,0-1.001,0.903-1.001,1.373
		C231.826,45.581,232.14,46.19,232.813,46.19z"/>
	<path d="M237.37,43.998c-0.007-0.231-0.091-0.616-0.868-0.616c-0.189,0-0.729,0.062-0.729,0.518c0,0.302,0.189,0.371,0.665,0.49
		l0.616,0.154c0.764,0.189,1.03,0.47,1.03,0.967c0,0.756-0.624,1.212-1.45,1.212c-1.449,0-1.555-0.841-1.575-1.282h0.595
		c0.021,0.287,0.105,0.75,0.974,0.75c0.441,0,0.841-0.176,0.841-0.582c0-0.294-0.203-0.392-0.729-0.525l-0.715-0.175
		c-0.511-0.126-0.848-0.385-0.848-0.89c0-0.806,0.666-1.169,1.387-1.169c1.311,0,1.401,0.966,1.401,1.148H237.37z"/>
	<path d="M238.58,48.067c0.596-1.121,0.952-1.793,0.952-3.475c0-1.155-0.398-2.01-0.959-3.109h0.413
		c0.729,1.093,1.205,1.968,1.205,3.277c0,1.233-0.428,2.228-1.185,3.307H238.58z"/>
</g>
<line class="st1" x1="113.63" y1="47.102" x2="113.63" y2="29.385"/>
<line class="st1" x1="340.771" y1="47.102" x2="340.771" y2="29.385"/>
<g>
	<path d="M340.894,39.261l-6.616,3.322v-6.614L340.894,39.261z"/>
	<line class="st0" x1="339.402" y1="39.193" x2="255.641" y2="39.193"/>
</g>
<g>
	<g>
		<path d="M21.457,3.646c-0.04-0.887-0.776-1.167-1.423-1.167c-0.488,0-1.311,0.136-1.311,1.007c0,0.488,0.344,0.647,0.679,0.728
			l1.639,0.376c0.744,0.176,1.303,0.624,1.303,1.535c0,1.359-1.263,1.735-2.247,1.735c-1.063,0-1.479-0.32-1.735-0.552
			c-0.488-0.439-0.584-0.919-0.584-1.455h0.728c0,1.04,0.848,1.343,1.583,1.343c0.56,0,1.503-0.144,1.503-0.967
			c0-0.6-0.28-0.792-1.223-1.016l-1.175-0.272C18.818,4.854,17.97,4.59,17.97,3.591c0-0.896,0.584-1.775,1.975-1.775
			c2.007,0,2.207,1.199,2.239,1.831H21.457z"/>
		<path d="M24.042,7.708h-0.704V3.527h0.664v0.696h0.016c0.28-0.488,0.647-0.816,1.175-0.816c0.088,0,0.128,0.008,0.184,0.024v0.728
			h-0.264c-0.656,0-1.071,0.512-1.071,1.12V7.708z"/>
		<path d="M28.521,4.934c-0.089-0.56-0.4-0.896-0.992-0.896c-0.871,0-1.151,0.832-1.151,1.575c0,0.719,0.176,1.607,1.144,1.607
			c0.472,0,0.88-0.352,1-0.991H29.2c-0.071,0.664-0.479,1.599-1.702,1.599c-1.176,0-1.872-0.888-1.872-2.095
			c0-1.295,0.624-2.327,2.007-2.327c1.095,0,1.511,0.8,1.566,1.527H28.521z"/>
	</g>
</g>
<g>
	<path d="M147.821,3.671h0.584v1.727h1.727v0.583h-1.727v1.727h-0.584V5.981h-1.735V5.398h1.735V3.671z"/>
	<path d="M152.237,4.51c0.12,0.008,0.248,0.016,0.368,0.016c0.543,0,1.071-0.216,1.071-0.919c0-0.336-0.2-0.888-1.04-0.888
		c-0.999,0-1.063,0.815-1.095,1.208h-0.688c0-0.824,0.335-1.839,1.814-1.839c1.088,0,1.735,0.624,1.735,1.479
		c0,0.719-0.416,1.063-0.72,1.159v0.016c0.544,0.176,0.936,0.56,0.936,1.311c0,0.919-0.592,1.807-2.023,1.807
		c-0.415,0-0.768-0.104-1.039-0.248c-0.624-0.328-0.791-0.975-0.84-1.623h0.728c0.024,0.528,0.152,1.239,1.2,1.239
		c0.719,0,1.223-0.439,1.223-1.087c0-0.944-0.831-1.032-1.311-1.032c-0.104,0-0.217,0.008-0.32,0.008V4.51z"/>
</g>
<g>
	<g>
		<path d="M187.097,2.206h2.327c1.495,0,2.414,1.135,2.414,2.791c0,1.287-0.56,2.95-2.446,2.95h-2.295V2.206z M187.873,7.283h1.504
			c1.007,0,1.663-0.792,1.663-2.239s-0.664-2.175-1.72-2.175h-1.447V7.283z"/>
		<path d="M195.12,4.956c-0.008-0.264-0.104-0.704-0.991-0.704c-0.216,0-0.832,0.072-0.832,0.592c0,0.344,0.216,0.423,0.76,0.56
			l0.703,0.176c0.872,0.216,1.176,0.536,1.176,1.104c0,0.863-0.712,1.383-1.655,1.383c-1.655,0-1.774-0.959-1.799-1.463h0.68
			c0.023,0.328,0.12,0.855,1.111,0.855c0.504,0,0.959-0.2,0.959-0.664c0-0.336-0.231-0.448-0.831-0.6l-0.815-0.2
			c-0.584-0.144-0.968-0.44-0.968-1.016c0-0.919,0.76-1.335,1.583-1.335c1.495,0,1.6,1.104,1.6,1.312H195.12z"/>
		<path d="M197.608,4.348v2.719c0,0.328,0.28,0.328,0.424,0.328h0.248v0.552c-0.256,0.024-0.455,0.056-0.527,0.056
			c-0.695,0-0.848-0.392-0.848-0.896V4.348h-0.567V3.765h0.567V2.597h0.703v1.167h0.672v0.583H197.608z"/>
	</g>
	<g>
	</g>
</g>
<g>
	<g>
		<path d="M132.095,1.968h2.327c1.495,0,2.414,1.135,2.414,2.791c0,1.287-0.56,2.95-2.446,2.95h-2.295V1.968z M132.871,7.045h1.504
			c1.007,0,1.663-0.792,1.663-2.239s-0.664-2.175-1.72-2.175h-1.447V7.045z"/>
		<path d="M140.118,4.718c-0.008-0.264-0.104-0.704-0.991-0.704c-0.216,0-0.832,0.072-0.832,0.592c0,0.344,0.216,0.423,0.76,0.56
			l0.703,0.176c0.872,0.216,1.176,0.536,1.176,1.104c0,0.863-0.712,1.383-1.655,1.383c-1.655,0-1.774-0.959-1.799-1.463h0.68
			c0.023,0.328,0.12,0.855,1.111,0.855c0.504,0,0.959-0.2,0.959-0.664c0-0.336-0.231-0.448-0.831-0.6l-0.815-0.2
			c-0.584-0.144-0.968-0.44-0.968-1.016c0-0.919,0.76-1.335,1.583-1.335c1.495,0,1.6,1.104,1.6,1.312H140.118z"/>
		<path d="M142.606,4.11v2.719c0,0.328,0.28,0.328,0.424,0.328h0.248v0.552c-0.256,0.024-0.455,0.056-0.527,0.056
			c-0.695,0-0.848-0.392-0.848-0.896V4.11h-0.567V3.527h0.567V2.359h0.703v1.167h0.672V4.11H142.606z"/>
	</g>
</g>
<g>
	<line class="st2" x1="169.617" y1="11.777" x2="169.617" y2="15.215"/>
	<line class="st2" x1="169.617" y1="25.84" x2="169.617" y2="29.277"/>
</g>
<g>
	<polygon class="st3" points="100.873,20.652 88.307,28.235 88.307,13.07 100.873,20.652 	"/>
	<rect x="67.077" y="16.97" class="st3" width="21.664" height="7.366"/>
</g>
<rect x="113.63" y="11.521" class="st4" width="227.141" height="17.717"/>
<g>
	<line class="st2" x1="227.327" y1="11.777" x2="227.327" y2="15.215"/>
	<line class="st2" x1="227.327" y1="25.84" x2="227.327" y2="29.277"/>
</g>
<g>
	<line class="st2" x1="283.782" y1="11.777" x2="283.782" y2="15.215"/>
	<line class="st2" x1="283.782" y1="25.84" x2="283.782" y2="29.277"/>
</g>
<g>
	<path d="M202.821,3.671h0.584v1.727h1.727v0.583h-1.727v1.727h-0.584V5.981h-1.735V5.398h1.735V3.671z"/>
	<path d="M205.797,4.103c0-1.831,1.336-2.015,1.943-2.015c0.976,0,1.759,0.632,1.759,1.679c0,1.007-0.663,1.431-1.503,1.879
		l-0.584,0.32c-0.768,0.424-0.936,0.864-0.968,1.08h3.055v0.664h-3.846c0.04-1.167,0.567-1.791,1.319-2.231l0.743-0.432
		c0.6-0.344,1.031-0.576,1.031-1.311c0-0.448-0.287-1.016-1.111-1.016c-1.063,0-1.111,0.992-1.135,1.383H205.797z"/>
</g>
<g>
	<g>
		<g>
			<path d="M244.597,2.206h2.327c1.495,0,2.414,1.135,2.414,2.791c0,1.287-0.56,2.95-2.446,2.95h-2.295V2.206z M245.373,7.283h1.504
				c1.007,0,1.663-0.792,1.663-2.239s-0.664-2.175-1.72-2.175h-1.447V7.283z"/>
			<path d="M252.62,4.956c-0.008-0.264-0.104-0.704-0.991-0.704c-0.216,0-0.832,0.072-0.832,0.592c0,0.344,0.216,0.423,0.76,0.56
				l0.703,0.176c0.872,0.216,1.176,0.536,1.176,1.104c0,0.863-0.712,1.383-1.655,1.383c-1.655,0-1.774-0.959-1.799-1.463h0.68
				c0.023,0.328,0.12,0.855,1.111,0.855c0.504,0,0.959-0.2,0.959-0.664c0-0.336-0.231-0.448-0.831-0.6l-0.815-0.2
				c-0.584-0.144-0.968-0.44-0.968-1.016c0-0.919,0.76-1.335,1.583-1.335c1.495,0,1.6,1.104,1.6,1.312H252.62z"/>
			<path d="M255.108,4.348v2.719c0,0.328,0.28,0.328,0.424,0.328h0.248v0.552c-0.256,0.024-0.455,0.056-0.527,0.056
				c-0.695,0-0.848-0.392-0.848-0.896V4.348h-0.567V3.765h0.567V2.597h0.703v1.167h0.672v0.583H255.108z"/>
		</g>
		<g>
		</g>
	</g>
	<g>
		<path d="M260.321,3.87h0.584v1.727h1.727V6.18h-1.727v1.727h-0.584V6.18h-1.735V5.597h1.735V3.87z"/>
		<path d="M265.816,7.907h-0.751v-3.99h-1.312v-0.56c0.911-0.064,1.287-0.152,1.511-1.072h0.552V7.907z"/>
	</g>
</g>
<g>
	<g>
		<path d="M308.761,1.968h2.327c1.495,0,2.414,1.135,2.414,2.791c0,1.287-0.56,2.95-2.446,2.95h-2.295V1.968z M309.537,7.045h1.504
			c1.007,0,1.663-0.792,1.663-2.239s-0.664-2.175-1.72-2.175h-1.447V7.045z"/>
		<path d="M316.784,4.718c-0.008-0.264-0.104-0.704-0.991-0.704c-0.216,0-0.832,0.072-0.832,0.592c0,0.344,0.216,0.423,0.76,0.56
			l0.703,0.176c0.872,0.216,1.176,0.536,1.176,1.104c0,0.863-0.712,1.383-1.655,1.383c-1.655,0-1.774-0.959-1.799-1.463h0.68
			c0.023,0.328,0.12,0.855,1.111,0.855c0.504,0,0.959-0.2,0.959-0.664c0-0.336-0.231-0.448-0.831-0.6l-0.815-0.2
			c-0.584-0.144-0.968-0.44-0.968-1.016c0-0.919,0.76-1.335,1.583-1.335c1.495,0,1.6,1.104,1.6,1.312H316.784z"/>
		<path d="M319.272,4.11v2.719c0,0.328,0.28,0.328,0.424,0.328h0.248v0.552c-0.256,0.024-0.455,0.056-0.527,0.056
			c-0.695,0-0.848-0.392-0.848-0.896V4.11h-0.567V3.527h0.567V2.359h0.703v1.167h0.672V4.11H319.272z"/>
	</g>
</g>
</svg>
