<?xml version="1.0" encoding="utf-8"?>
<!-- Generator: Adobe Illustrator 28.2.0, SVG Export Plug-In . SVG Version: 6.00 Build 0)  -->
<svg version="1.1" id="レイヤー_1" xmlns="http://www.w3.org/2000/svg" xmlns:xlink="http://www.w3.org/1999/xlink" x="0px"
	 y="0px" width="179.984px" height="45.597px" viewBox="0 0 179.984 45.597" style="enable-background:new 0 0 179.984 45.597;"
	 xml:space="preserve">
<style type="text/css">
	.st0{fill:none;stroke:#000000;stroke-width:0.5;}
	.st1{fill:none;stroke:#000000;stroke-width:0.5;stroke-dasharray:0.5;}
	.st2{fill:#9FA0A0;}
	.st3{stroke:#000000;stroke-width:0.5;}
	.st4{fill:none;stroke:#000000;}
</style>
<rect x="89.625" y="11.065" class="st0" width="90.109" height="17.717"/>
<g>
	<path d="M122.597,18.615h0.583v1.728h1.728v0.583h-1.728v1.728h-0.583v-1.728h-1.735v-0.583h1.735V18.615z"/>
	<path d="M128.092,22.653h-0.751v-3.99h-1.312v-0.56c0.911-0.063,1.287-0.151,1.511-1.071h0.552V22.653z"/>
	<path d="M131.196,22.653h-0.832v-0.848h0.832V22.653z"/>
	<path d="M132.245,19.046c0-1.83,1.336-2.015,1.943-2.015c0.976,0,1.759,0.632,1.759,1.68c0,1.007-0.663,1.431-1.503,1.879
		l-0.584,0.319c-0.768,0.424-0.936,0.863-0.968,1.079h3.055v0.664h-3.846c0.04-1.167,0.567-1.791,1.319-2.23l0.743-0.432
		c0.6-0.345,1.031-0.576,1.031-1.312c0-0.448-0.287-1.016-1.111-1.016c-1.063,0-1.111,0.991-1.135,1.383H132.245z"/>
	<path d="M138.132,19.455c0.12,0.008,0.248,0.016,0.368,0.016c0.543,0,1.071-0.216,1.071-0.919c0-0.336-0.2-0.888-1.04-0.888
		c-0.999,0-1.063,0.815-1.095,1.207h-0.688c0-0.823,0.335-1.839,1.814-1.839c1.088,0,1.735,0.624,1.735,1.479
		c0,0.72-0.416,1.063-0.72,1.159v0.016c0.544,0.177,0.936,0.561,0.936,1.312c0,0.92-0.592,1.808-2.023,1.808
		c-0.415,0-0.768-0.104-1.039-0.248c-0.624-0.328-0.791-0.976-0.84-1.623h0.728c0.024,0.527,0.152,1.239,1.2,1.239
		c0.719,0,1.223-0.44,1.223-1.088c0-0.943-0.831-1.031-1.311-1.031c-0.104,0-0.217,0.008-0.32,0.008V19.455z"/>
	<path d="M144.147,21.286v1.367h-0.704v-1.367h-2.454v-0.688l2.574-3.566h0.584v3.646h0.823v0.607H144.147z M141.637,20.678h1.807
		v-2.551h-0.016L141.637,20.678z"/>
	<path d="M146.413,19.382c0.239-0.184,0.583-0.352,1.087-0.352c0.911,0,1.847,0.64,1.847,1.799c0,0.624-0.279,1.976-2.038,1.976
		c-0.736,0-1.68-0.296-1.815-1.552h0.728c0.072,0.656,0.56,0.943,1.191,0.943c0.728,0,1.184-0.583,1.184-1.287
		c0-0.808-0.552-1.247-1.247-1.247c-0.408,0-0.776,0.191-1.04,0.535l-0.607-0.031l0.424-3.015h2.91v0.688h-2.383L146.413,19.382z"/>
</g>
<line class="st1" x1="90.05" y1="28.999" x2="90.05" y2="37.496"/>
<line class="st1" x1="179.58" y1="28.999" x2="179.58" y2="37.496"/>
<g>
	<path d="M128.751,33.22c0.105,0.007,0.218,0.015,0.322,0.015c0.477,0,0.938-0.189,0.938-0.806c0-0.294-0.175-0.777-0.91-0.777
		c-0.875,0-0.932,0.714-0.959,1.058h-0.603c0-0.722,0.294-1.611,1.59-1.611c0.952,0,1.52,0.547,1.52,1.296
		c0,0.63-0.364,0.932-0.63,1.016v0.014c0.476,0.154,0.819,0.49,0.819,1.148c0,0.806-0.519,1.583-1.772,1.583
		c-0.364,0-0.672-0.091-0.91-0.217c-0.547-0.287-0.693-0.854-0.735-1.422h0.637c0.021,0.462,0.134,1.086,1.051,1.086
		c0.631,0,1.072-0.386,1.072-0.953c0-0.826-0.729-0.903-1.149-0.903c-0.091,0-0.188,0.007-0.28,0.007V33.22z"/>
	<path d="M131.383,32.863c0-1.604,1.169-1.765,1.701-1.765c0.854,0,1.541,0.554,1.541,1.471c0,0.883-0.581,1.254-1.316,1.646
		l-0.512,0.28c-0.672,0.371-0.819,0.756-0.848,0.945h2.676v0.581h-3.369c0.035-1.022,0.498-1.569,1.156-1.954l0.651-0.378
		c0.525-0.302,0.903-0.505,0.903-1.148c0-0.393-0.252-0.89-0.974-0.89c-0.932,0-0.974,0.868-0.994,1.211H131.383z"/>
	<path d="M135.373,36.022v-5.028h0.616v1.827h0.014c0.267-0.385,0.631-0.56,1.058-0.566c0.974,0,1.527,0.798,1.527,1.827
		c0,0.876-0.364,2.046-1.611,2.046c-0.623,0-0.882-0.357-1.008-0.561h-0.015v0.455H135.373z M136.949,32.807
		c-0.89,0-0.988,0.96-0.988,1.555c0,0.974,0.609,1.233,1.002,1.233c0.672,0,0.987-0.609,0.987-1.415
		C137.95,33.71,137.901,32.807,136.949,32.807z"/>
	<path d="M139.328,31.694v-0.7h0.616v0.7H139.328z M139.944,36.022h-0.616v-3.663h0.616V36.022z"/>
	<path d="M141.624,32.871v2.381c0,0.287,0.245,0.287,0.371,0.287h0.217v0.483c-0.224,0.021-0.399,0.049-0.462,0.049
		c-0.609,0-0.742-0.343-0.742-0.784v-2.416h-0.498v-0.512h0.498v-1.022h0.616v1.022h0.588v0.512H141.624z"/>
	<path d="M123.352,38.888c-0.596,1.121-0.953,1.793-0.953,3.474c0,1.156,0.399,2.011,0.96,3.11h-0.413
		c-0.729-1.093-1.205-1.969-1.205-3.278c0-1.232,0.428-2.228,1.184-3.306H123.352z"/>
	<path d="M123.903,40.863c0-1.604,1.169-1.765,1.701-1.765c0.854,0,1.541,0.554,1.541,1.471c0,0.883-0.581,1.254-1.316,1.646
		l-0.512,0.28c-0.672,0.371-0.819,0.756-0.848,0.945h2.676v0.581h-3.369c0.035-1.022,0.498-1.569,1.156-1.954l0.651-0.378
		c0.525-0.302,0.903-0.505,0.903-1.148c0-0.393-0.252-0.89-0.974-0.89c-0.932,0-0.974,0.868-0.994,1.211H123.903z"/>
	<path d="M129.28,44.022h-0.638l-1.058-3.663h0.673l0.7,2.879h0.014l0.708-2.879h0.687l0.714,2.879h0.015l0.742-2.879h0.616
		l-1.064,3.663h-0.638l-0.742-2.837h-0.014L129.28,44.022z"/>
	<path d="M134.418,40.254c1.169,0,1.702,0.987,1.702,1.933s-0.533,1.933-1.702,1.933c-1.17,0-1.702-0.987-1.702-1.933
		S133.248,40.254,134.418,40.254z M134.418,43.587c0.882,0,1.064-0.91,1.064-1.4s-0.183-1.4-1.064-1.4
		c-0.883,0-1.064,0.91-1.064,1.4S133.535,43.587,134.418,43.587z"/>
	<path d="M137.519,44.022h-0.616v-3.663h0.581v0.609h0.015c0.245-0.427,0.567-0.714,1.029-0.714c0.077,0,0.112,0.007,0.161,0.021
		v0.638h-0.231c-0.574,0-0.938,0.448-0.938,0.98V44.022z"/>
	<path d="M142.049,44.022h-0.581v-0.504h-0.015c-0.266,0.497-0.687,0.609-1.043,0.609c-1.247,0-1.611-1.17-1.611-2.046
		c0-1.029,0.554-1.827,1.526-1.827c0.666,0,0.946,0.413,1.093,0.623l0.015-0.049v-1.835h0.616V44.022z M140.424,43.595
		c0.393,0,1.001-0.26,1.001-1.233c0-0.595-0.098-1.555-0.987-1.555c-0.952,0-1.001,0.903-1.001,1.373
		C139.437,42.986,139.751,43.595,140.424,43.595z"/>
	<path d="M144.981,41.403c-0.007-0.231-0.091-0.616-0.868-0.616c-0.189,0-0.729,0.062-0.729,0.518c0,0.302,0.189,0.371,0.665,0.49
		l0.616,0.154c0.764,0.189,1.03,0.47,1.03,0.967c0,0.756-0.624,1.212-1.45,1.212c-1.449,0-1.555-0.841-1.575-1.282h0.595
		c0.021,0.287,0.105,0.75,0.974,0.75c0.441,0,0.841-0.176,0.841-0.582c0-0.294-0.203-0.392-0.729-0.525l-0.715-0.175
		c-0.511-0.126-0.848-0.385-0.848-0.89c0-0.806,0.666-1.169,1.387-1.169c1.311,0,1.401,0.966,1.401,1.148H144.981z"/>
	<path d="M146.191,45.472c0.596-1.121,0.952-1.793,0.952-3.475c0-1.155-0.398-2.01-0.959-3.109h0.413
		c0.729,1.093,1.205,1.968,1.205,3.277c0,1.233-0.428,2.228-1.185,3.307H146.191z"/>
</g>
<g>
	<path d="M103.457,0.899h2.327c1.496,0,2.415,1.135,2.415,2.791c0,1.287-0.56,2.95-2.447,2.95h-2.295V0.899z M104.232,5.976h1.503
		c1.008,0,1.663-0.791,1.663-2.238s-0.664-2.175-1.719-2.175h-1.447V5.976z"/>
	<path d="M111.479,3.65c-0.008-0.264-0.104-0.704-0.992-0.704c-0.216,0-0.832,0.072-0.832,0.592c0,0.344,0.216,0.424,0.76,0.56
		l0.704,0.176c0.872,0.217,1.175,0.536,1.175,1.104c0,0.864-0.711,1.384-1.655,1.384c-1.655,0-1.775-0.96-1.799-1.464h0.68
		c0.024,0.328,0.12,0.856,1.111,0.856c0.504,0,0.959-0.2,0.959-0.664c0-0.336-0.232-0.448-0.832-0.6l-0.815-0.2
		c-0.584-0.144-0.968-0.439-0.968-1.016c0-0.919,0.76-1.335,1.583-1.335c1.495,0,1.599,1.104,1.599,1.312H111.479z"/>
	<path d="M113.968,3.042V5.76c0,0.328,0.28,0.328,0.424,0.328h0.248V6.64c-0.256,0.024-0.456,0.056-0.527,0.056
		c-0.696,0-0.848-0.392-0.848-0.896V3.042h-0.568V2.458h0.568V1.291h0.704v1.167h0.671v0.584H113.968z"/>
	<path d="M116.856,2.602h0.583V4.33h1.728v0.584h-1.728V6.64h-0.583V4.914h-1.735V4.33h1.735V2.602z"/>
	<path d="M122.351,6.64H121.6V2.65h-1.312V2.091c0.911-0.064,1.287-0.152,1.511-1.072h0.552V6.64z"/>
</g>
<g>
	<g>
		<path d="M153.869,0.899h2.327c1.495,0,2.414,1.135,2.414,2.791c0,1.287-0.56,2.95-2.446,2.95h-2.295V0.899z M154.645,5.976h1.504
			c1.007,0,1.663-0.791,1.663-2.238s-0.664-2.175-1.72-2.175h-1.447V5.976z"/>
		<path d="M161.892,3.65c-0.008-0.264-0.104-0.704-0.991-0.704c-0.216,0-0.832,0.072-0.832,0.592c0,0.344,0.216,0.424,0.76,0.56
			l0.703,0.176c0.872,0.217,1.176,0.536,1.176,1.104c0,0.864-0.712,1.384-1.655,1.384c-1.655,0-1.774-0.96-1.799-1.464h0.68
			c0.023,0.328,0.12,0.856,1.111,0.856c0.504,0,0.959-0.2,0.959-0.664c0-0.336-0.231-0.448-0.831-0.6l-0.815-0.2
			c-0.584-0.144-0.968-0.439-0.968-1.016c0-0.919,0.76-1.335,1.583-1.335c1.495,0,1.6,1.104,1.6,1.312H161.892z"/>
		<path d="M164.38,3.042V5.76c0,0.328,0.28,0.328,0.424,0.328h0.248V6.64c-0.256,0.024-0.455,0.056-0.527,0.056
			c-0.695,0-0.848-0.392-0.848-0.896V3.042h-0.567V2.458h0.567V1.291h0.703v1.167h0.672v0.584H164.38z"/>
	</g>
</g>
<g>
	<polygon class="st2" points="76.616,19.914 64.05,27.497 64.05,12.332 76.616,19.914 	"/>
	<rect x="42.819" y="16.232" class="st2" width="21.664" height="7.366"/>
</g>
<line class="st3" x1="134.258" y1="11.444" x2="134.258" y2="16.056"/>
<line class="st3" x1="134.258" y1="24.441" x2="134.258" y2="29.053"/>
<g>
	<path d="M2.047,19.806H2.63v1.728h1.727v0.583H2.63v1.728H2.047v-1.728H0.312v-0.583h1.735V19.806z"/>
	<path d="M7.542,23.844H6.791v-3.99H5.479v-0.56c0.912-0.063,1.287-0.151,1.511-1.071h0.552V23.844z"/>
	<path d="M10.647,23.844H9.816v-0.848h0.832V23.844z"/>
	<path d="M11.695,20.238c0-1.83,1.335-2.015,1.943-2.015c0.975,0,1.759,0.632,1.759,1.68c0,1.007-0.664,1.431-1.503,1.879
		l-0.584,0.319c-0.768,0.424-0.936,0.863-0.967,1.079h3.054v0.664h-3.846c0.04-1.167,0.567-1.791,1.319-2.23l0.743-0.432
		c0.6-0.345,1.032-0.576,1.032-1.312c0-0.448-0.288-1.016-1.111-1.016c-1.063,0-1.111,0.991-1.135,1.383H11.695z"/>
	<path d="M17.583,20.646c0.12,0.008,0.248,0.016,0.368,0.016c0.544,0,1.072-0.216,1.072-0.919c0-0.336-0.2-0.888-1.04-0.888
		c-1,0-1.063,0.815-1.096,1.207H16.2c0-0.823,0.336-1.839,1.815-1.839c1.087,0,1.735,0.624,1.735,1.479
		c0,0.72-0.416,1.063-0.72,1.159v0.016c0.543,0.177,0.936,0.561,0.936,1.312c0,0.92-0.592,1.808-2.023,1.808
		c-0.416,0-0.768-0.104-1.04-0.248c-0.624-0.328-0.792-0.976-0.839-1.623h0.728c0.024,0.527,0.152,1.239,1.199,1.239
		c0.72,0,1.223-0.44,1.223-1.088c0-0.943-0.831-1.031-1.311-1.031c-0.104,0-0.216,0.008-0.32,0.008V20.646z"/>
	<path d="M23.599,22.477v1.367h-0.704v-1.367H20.44V21.79l2.575-3.566h0.584v3.646h0.823v0.607H23.599z M21.088,21.87h1.807v-2.551
		h-0.016L21.088,21.87z"/>
	<path d="M25.863,20.574c0.24-0.184,0.584-0.352,1.087-0.352c0.912,0,1.847,0.64,1.847,1.799c0,0.624-0.28,1.976-2.039,1.976
		c-0.735,0-1.679-0.296-1.815-1.552h0.728c0.072,0.656,0.56,0.943,1.191,0.943c0.728,0,1.183-0.583,1.183-1.287
		c0-0.808-0.551-1.247-1.247-1.247c-0.408,0-0.775,0.191-1.04,0.535l-0.607-0.031l0.424-3.015h2.91v0.688h-2.383L25.863,20.574z"/>
</g>
<g>
	<g>
		<path d="M12.561,2.579c-0.04-0.888-0.776-1.168-1.423-1.168c-0.488,0-1.311,0.137-1.311,1.008c0,0.487,0.344,0.647,0.679,0.728
			l1.639,0.376c0.744,0.176,1.303,0.624,1.303,1.535c0,1.359-1.263,1.735-2.247,1.735c-1.063,0-1.479-0.32-1.735-0.552
			C8.979,5.8,8.883,5.321,8.883,4.785H9.61c0,1.04,0.848,1.344,1.583,1.344c0.56,0,1.503-0.144,1.503-0.968
			c0-0.6-0.28-0.791-1.223-1.015l-1.175-0.272C9.922,3.786,9.075,3.522,9.075,2.522c0-0.896,0.584-1.774,1.975-1.774
			c2.007,0,2.207,1.199,2.239,1.831H12.561z"/>
		<path d="M15.146,6.64h-0.704V2.458h0.664v0.695h0.016c0.28-0.487,0.647-0.815,1.175-0.815c0.088,0,0.128,0.008,0.184,0.024V3.09
			h-0.264c-0.656,0-1.071,0.512-1.071,1.119V6.64z"/>
		<path d="M19.625,3.866c-0.088-0.56-0.4-0.896-0.992-0.896c-0.871,0-1.151,0.831-1.151,1.575c0,0.72,0.176,1.607,1.144,1.607
			c0.472,0,0.879-0.353,1-0.992h0.68c-0.072,0.664-0.48,1.6-1.703,1.6c-1.175,0-1.871-0.888-1.871-2.095
			c0-1.296,0.624-2.327,2.007-2.327c1.096,0,1.511,0.8,1.567,1.527H19.625z"/>
	</g>
</g>
<g>
	<path d="M89.843,36.569l6.616-3.323v6.614L89.843,36.569z"/>
	<line class="st4" x1="91.334" y1="36.637" x2="119.199" y2="36.637"/>
</g>
<g>
	<path d="M179.288,36.537l-6.616,3.323v-6.614L179.288,36.537z"/>
	<line class="st4" x1="177.797" y1="36.469" x2="149.933" y2="36.469"/>
</g>
</svg>
