<?xml version="1.0" encoding="utf-8"?>
<!-- Generator: Adobe Illustrator 28.2.0, SVG Export Plug-In . SVG Version: 6.00 Build 0)  -->
<svg version="1.1" id="レイヤー_1" xmlns="http://www.w3.org/2000/svg" xmlns:xlink="http://www.w3.org/1999/xlink" x="0px"
	 y="0px" width="221.741px" height="47.436px" viewBox="0 0 221.741 47.436" style="enable-background:new 0 0 221.741 47.436;"
	 xml:space="preserve">
<style type="text/css">
	.st0{fill:none;stroke:#000000;stroke-width:0.5;}
	.st1{fill:none;stroke:#000000;}
	.st2{fill:#FFFFFF;stroke:#000000;stroke-width:0.5;stroke-dasharray:1;}
	.st3{stroke:#000000;stroke-width:0.5;}
	.st4{fill:#9FA0A0;}
</style>
<g>
	<path d="M0.312,22.604V22.02h4.045v0.583H0.312z"/>
	<path d="M7.542,24.331H6.791v-3.99H5.479v-0.56c0.912-0.064,1.287-0.152,1.511-1.072h0.552V24.331z"/>
	<path d="M9.472,20.725c0-1.831,1.335-2.015,1.943-2.015c0.976,0,1.759,0.632,1.759,1.679c0,1.007-0.663,1.431-1.503,1.879
		l-0.584,0.32c-0.768,0.424-0.936,0.864-0.967,1.08h3.054v0.664H9.328c0.04-1.167,0.567-1.791,1.319-2.231l0.743-0.432
		c0.6-0.344,1.031-0.576,1.031-1.311c0-0.448-0.287-1.016-1.111-1.016c-1.063,0-1.111,0.991-1.135,1.383H9.472z"/>
	<path d="M15.359,21.132c0.12,0.008,0.248,0.016,0.368,0.016c0.543,0,1.071-0.216,1.071-0.919c0-0.336-0.2-0.888-1.04-0.888
		c-0.999,0-1.063,0.815-1.095,1.208h-0.688c0-0.824,0.335-1.839,1.814-1.839c1.088,0,1.735,0.624,1.735,1.479
		c0,0.72-0.416,1.063-0.72,1.159v0.016c0.544,0.176,0.936,0.56,0.936,1.311c0,0.92-0.592,1.807-2.023,1.807
		c-0.415,0-0.768-0.104-1.039-0.248c-0.624-0.328-0.792-0.976-0.84-1.624h0.728c0.024,0.528,0.152,1.24,1.2,1.24
		c0.719,0,1.223-0.44,1.223-1.088c0-0.943-0.831-1.031-1.312-1.031c-0.104,0-0.216,0.008-0.319,0.008V21.132z"/>
	<path d="M21.374,22.963v1.367H20.67v-1.367h-2.454v-0.688l2.574-3.566h0.584v3.646h0.823v0.608H21.374z M18.863,22.355h1.807v-2.55
		h-0.016L18.863,22.355z"/>
	<path d="M23.64,21.061c0.239-0.184,0.583-0.352,1.087-0.352c0.911,0,1.847,0.64,1.847,1.799c0,0.624-0.279,1.975-2.038,1.975
		c-0.736,0-1.68-0.296-1.815-1.551h0.728c0.072,0.656,0.56,0.944,1.191,0.944c0.728,0,1.184-0.584,1.184-1.288
		c0-0.808-0.552-1.247-1.247-1.247c-0.408,0-0.776,0.192-1.04,0.536l-0.607-0.032l0.424-3.014h2.91v0.688h-2.383L23.64,21.061z"/>
	<path d="M30.246,20.205c-0.088-0.496-0.359-0.863-0.968-0.863c-1.103,0-1.335,1.487-1.335,2.079l0.017,0.016
		c0.176-0.304,0.567-0.688,1.335-0.688c0.688,0,1.759,0.44,1.759,1.783c0,0.576-0.151,0.991-0.535,1.407
		c-0.296,0.328-0.632,0.543-1.424,0.543c-0.432,0-1.047-0.192-1.447-0.815c-0.336-0.528-0.432-1.215-0.432-1.951
		c0-1.231,0.4-3.006,2.079-3.006c0.647,0,1.567,0.352,1.639,1.495H30.246z M29.223,23.851c0.672,0,1.104-0.528,1.104-1.288
		c0-0.496-0.264-1.183-1.136-1.183c-0.775,0-1.151,0.56-1.151,1.223C28.039,23.203,28.399,23.851,29.223,23.851z"/>
	<path d="M31.656,18.83h3.886v0.616c-0.56,0.583-1.903,2.375-2.311,4.885h-0.775c0.191-1.543,1.215-3.558,2.295-4.813h-3.095V18.83z
		"/>
	<path d="M39.021,21.34c0.76,0.32,0.92,0.943,0.92,1.367c0,0.903-0.576,1.775-1.903,1.775c-0.312,0-0.903-0.08-1.351-0.432
		c-0.576-0.456-0.576-1.063-0.576-1.335c0-0.688,0.36-1.127,0.951-1.367c-0.479-0.184-0.759-0.567-0.759-1.095
		c0-0.584,0.359-1.543,1.703-1.543c1.247,0,1.734,0.792,1.734,1.447C39.741,20.964,39.27,21.212,39.021,21.34z M36.863,22.731
		c0,0.448,0.224,1.12,1.199,1.12c0.512,0,1.127-0.184,1.127-1.063c0-0.76-0.527-1.096-1.167-1.096
		C37.23,21.692,36.863,22.212,36.863,22.731z M39.014,20.181c0-0.344-0.224-0.839-1.047-0.839c-0.752,0-0.936,0.52-0.936,0.879
		c0,0.536,0.472,0.864,0.983,0.864C38.622,21.084,39.014,20.692,39.014,20.181z"/>
</g>
<rect x="107.922" y="11.679" class="st0" width="113.569" height="17.717"/>
<g>
	<path d="M144.687,22.604V22.02h4.046v0.583H144.687z"/>
	<path d="M151.917,24.331h-0.751v-3.99h-1.312v-0.56c0.911-0.064,1.287-0.152,1.511-1.072h0.552V24.331z"/>
	<path d="M153.847,20.725c0-1.831,1.336-2.015,1.943-2.015c0.976,0,1.759,0.632,1.759,1.679c0,1.007-0.663,1.431-1.503,1.879
		l-0.584,0.32c-0.768,0.424-0.936,0.864-0.968,1.08h3.055v0.664h-3.846c0.04-1.167,0.567-1.791,1.319-2.231l0.743-0.432
		c0.6-0.344,1.031-0.576,1.031-1.311c0-0.448-0.287-1.016-1.111-1.016c-1.063,0-1.111,0.991-1.135,1.383H153.847z"/>
	<path d="M159.734,21.132c0.12,0.008,0.248,0.016,0.368,0.016c0.543,0,1.071-0.216,1.071-0.919c0-0.336-0.2-0.888-1.04-0.888
		c-0.999,0-1.063,0.815-1.095,1.208h-0.688c0-0.824,0.335-1.839,1.814-1.839c1.088,0,1.735,0.624,1.735,1.479
		c0,0.72-0.416,1.063-0.72,1.159v0.016c0.544,0.176,0.936,0.56,0.936,1.311c0,0.92-0.592,1.807-2.023,1.807
		c-0.415,0-0.768-0.104-1.039-0.248c-0.624-0.328-0.792-0.976-0.84-1.624h0.728c0.024,0.528,0.152,1.24,1.2,1.24
		c0.719,0,1.223-0.44,1.223-1.088c0-0.943-0.831-1.031-1.312-1.031c-0.104,0-0.216,0.008-0.319,0.008V21.132z"/>
	<path d="M165.749,22.963v1.367h-0.704v-1.367h-2.454v-0.688l2.574-3.566h0.584v3.646h0.823v0.608H165.749z M163.238,22.355h1.807
		v-2.55h-0.016L163.238,22.355z"/>
	<path d="M168.015,21.061c0.239-0.184,0.583-0.352,1.087-0.352c0.911,0,1.847,0.64,1.847,1.799c0,0.624-0.279,1.975-2.038,1.975
		c-0.736,0-1.68-0.296-1.815-1.551h0.728c0.072,0.656,0.56,0.944,1.191,0.944c0.728,0,1.184-0.584,1.184-1.288
		c0-0.808-0.552-1.247-1.247-1.247c-0.408,0-0.776,0.192-1.04,0.536l-0.607-0.032l0.424-3.014h2.91v0.688h-2.383L168.015,21.061z"/>
	<path d="M174.621,20.205c-0.088-0.496-0.359-0.863-0.968-0.863c-1.103,0-1.335,1.487-1.335,2.079l0.017,0.016
		c0.176-0.304,0.567-0.688,1.335-0.688c0.688,0,1.759,0.44,1.759,1.783c0,0.576-0.151,0.991-0.535,1.407
		c-0.296,0.328-0.632,0.543-1.424,0.543c-0.432,0-1.047-0.192-1.447-0.815c-0.336-0.528-0.432-1.215-0.432-1.951
		c0-1.231,0.4-3.006,2.079-3.006c0.647,0,1.567,0.352,1.639,1.495H174.621z M173.598,23.851c0.672,0,1.104-0.528,1.104-1.288
		c0-0.496-0.264-1.183-1.136-1.183c-0.775,0-1.151,0.56-1.151,1.223C172.414,23.203,172.774,23.851,173.598,23.851z"/>
	<path d="M176.031,18.83h3.886v0.616c-0.56,0.583-1.903,2.375-2.311,4.885h-0.775c0.191-1.543,1.215-3.558,2.295-4.813h-3.095V18.83
		z"/>
	<path d="M183.396,21.34c0.76,0.32,0.92,0.943,0.92,1.367c0,0.903-0.576,1.775-1.903,1.775c-0.312,0-0.903-0.08-1.351-0.432
		c-0.576-0.456-0.576-1.063-0.576-1.335c0-0.688,0.36-1.127,0.951-1.367c-0.479-0.184-0.759-0.567-0.759-1.095
		c0-0.584,0.359-1.543,1.703-1.543c1.247,0,1.734,0.792,1.734,1.447C184.116,20.964,183.645,21.212,183.396,21.34z M181.238,22.731
		c0,0.448,0.224,1.12,1.199,1.12c0.512,0,1.127-0.184,1.127-1.063c0-0.76-0.527-1.096-1.167-1.096
		C181.605,21.692,181.238,22.212,181.238,22.731z M183.389,20.181c0-0.344-0.224-0.839-1.047-0.839c-0.752,0-0.936,0.52-0.936,0.879
		c0,0.536,0.472,0.864,0.983,0.864C182.997,21.084,183.389,20.692,183.389,20.181z"/>
</g>
<g>
	<path d="M107.981,39.237l6.616-3.322v6.613L107.981,39.237z"/>
	<line class="st1" x1="109.472" y1="39.306" x2="149.909" y2="39.306"/>
</g>
<g>
	<path d="M159.054,35.059c0.105,0.007,0.218,0.014,0.322,0.014c0.477,0,0.938-0.189,0.938-0.805c0-0.294-0.175-0.777-0.91-0.777
		c-0.875,0-0.932,0.714-0.959,1.057h-0.603c0-0.721,0.294-1.611,1.59-1.611c0.952,0,1.52,0.546,1.52,1.296
		c0,0.63-0.364,0.932-0.63,1.016v0.014c0.476,0.154,0.819,0.491,0.819,1.148c0,0.806-0.519,1.583-1.772,1.583
		c-0.364,0-0.672-0.091-0.91-0.217c-0.547-0.287-0.693-0.854-0.735-1.422h0.637c0.021,0.462,0.134,1.086,1.051,1.086
		c0.631,0,1.072-0.386,1.072-0.953c0-0.826-0.729-0.903-1.149-0.903c-0.091,0-0.188,0.007-0.28,0.007V35.059z"/>
	<path d="M161.686,34.702c0-1.604,1.169-1.765,1.701-1.765c0.854,0,1.541,0.554,1.541,1.471c0,0.882-0.581,1.253-1.316,1.646
		l-0.512,0.281c-0.672,0.371-0.819,0.756-0.848,0.945h2.676v0.581h-3.369c0.035-1.022,0.498-1.568,1.156-1.954l0.651-0.378
		c0.525-0.301,0.903-0.504,0.903-1.149c0-0.392-0.252-0.889-0.974-0.889c-0.932,0-0.974,0.868-0.994,1.211H161.686z"/>
	<path d="M165.676,37.861v-5.029h0.616v1.828h0.014c0.267-0.385,0.631-0.561,1.058-0.567c0.974,0,1.527,0.798,1.527,1.828
		c0,0.875-0.364,2.045-1.611,2.045c-0.623,0-0.882-0.357-1.008-0.561h-0.015v0.455H165.676z M167.252,34.646
		c-0.89,0-0.988,0.959-0.988,1.555c0,0.974,0.609,1.233,1.002,1.233c0.672,0,0.987-0.609,0.987-1.415
		C168.253,35.55,168.204,34.646,167.252,34.646z"/>
	<path d="M169.631,33.533v-0.701h0.616v0.701H169.631z M170.247,37.861h-0.616v-3.663h0.616V37.861z"/>
	<path d="M171.927,34.709v2.381c0,0.287,0.245,0.287,0.371,0.287h0.217v0.483c-0.224,0.021-0.399,0.049-0.462,0.049
		c-0.609,0-0.742-0.343-0.742-0.784v-2.417h-0.498v-0.511h0.498v-1.022h0.616v1.022h0.588v0.511H171.927z"/>
	<path d="M153.653,40.727c-0.595,1.121-0.952,1.793-0.952,3.474c0,1.156,0.399,2.011,0.959,3.11h-0.413
		c-0.729-1.093-1.204-1.969-1.204-3.278c0-1.232,0.427-2.228,1.184-3.306H153.653z"/>
	<path d="M154.206,42.702c0-1.604,1.169-1.765,1.701-1.765c0.854,0,1.541,0.554,1.541,1.471c0,0.883-0.581,1.254-1.316,1.646
		l-0.512,0.28c-0.672,0.371-0.819,0.756-0.848,0.945h2.676v0.581h-3.369c0.035-1.022,0.498-1.568,1.156-1.954l0.651-0.378
		c0.525-0.302,0.903-0.505,0.903-1.148c0-0.393-0.252-0.89-0.974-0.89c-0.932,0-0.974,0.868-0.994,1.211H154.206z"/>
	<path d="M159.582,45.861h-0.638l-1.058-3.663h0.673l0.7,2.879h0.014l0.708-2.879h0.687l0.714,2.879h0.015l0.742-2.879h0.616
		l-1.064,3.663h-0.638l-0.742-2.837h-0.014L159.582,45.861z"/>
	<path d="M164.721,42.093c1.169,0,1.702,0.987,1.702,1.933s-0.533,1.933-1.702,1.933c-1.17,0-1.702-0.987-1.702-1.933
		S163.551,42.093,164.721,42.093z M164.721,45.426c0.882,0,1.064-0.91,1.064-1.4s-0.183-1.4-1.064-1.4
		c-0.883,0-1.064,0.91-1.064,1.4S163.838,45.426,164.721,45.426z"/>
	<path d="M167.82,45.861h-0.616v-3.663h0.582v0.609h0.014c0.245-0.427,0.567-0.714,1.029-0.714c0.077,0,0.112,0.007,0.161,0.021
		v0.638h-0.231c-0.574,0-0.938,0.448-0.938,0.98V45.861z"/>
	<path d="M172.352,45.861h-0.581v-0.504h-0.015c-0.266,0.497-0.687,0.609-1.043,0.609c-1.247,0-1.611-1.17-1.611-2.046
		c0-1.029,0.554-1.827,1.526-1.827c0.666,0,0.946,0.413,1.093,0.623l0.015-0.049v-1.835h0.616V45.861z M170.727,45.434
		c0.393,0,1.001-0.26,1.001-1.233c0-0.595-0.098-1.555-0.987-1.555c-0.952,0-1.001,0.903-1.001,1.373
		C169.739,44.825,170.054,45.434,170.727,45.434z"/>
	<path d="M175.283,43.242c-0.007-0.231-0.091-0.616-0.868-0.616c-0.189,0-0.729,0.062-0.729,0.518c0,0.302,0.189,0.371,0.665,0.49
		l0.616,0.154c0.764,0.189,1.03,0.47,1.03,0.967c0,0.756-0.624,1.212-1.45,1.212c-1.449,0-1.555-0.841-1.576-1.282h0.596
		c0.021,0.287,0.105,0.75,0.974,0.75c0.441,0,0.841-0.176,0.841-0.582c0-0.294-0.203-0.392-0.729-0.525l-0.715-0.175
		c-0.511-0.126-0.848-0.385-0.848-0.89c0-0.806,0.666-1.169,1.387-1.169c1.311,0,1.401,0.966,1.401,1.148H175.283z"/>
	<path d="M176.493,47.311c0.596-1.121,0.952-1.793,0.952-3.475c0-1.155-0.398-2.01-0.959-3.109h0.413
		c0.729,1.093,1.205,1.968,1.205,3.277c0,1.233-0.428,2.228-1.184,3.307H176.493z"/>
</g>
<line class="st2" x1="107.794" y1="47.26" x2="107.794" y2="29.544"/>
<line class="st2" x1="221.416" y1="47.26" x2="221.416" y2="29.544"/>
<g>
	<path d="M221.308,39.42l-6.616,3.322v-6.614L221.308,39.42z"/>
	<line class="st1" x1="219.817" y1="39.351" x2="179.597" y2="39.351"/>
</g>
<g>
	<g>
		<path d="M18.12,3.884c-0.039-0.887-0.775-1.167-1.423-1.167c-0.487,0-1.312,0.136-1.312,1.007c0,0.488,0.344,0.647,0.68,0.728
			l1.64,0.376c0.743,0.176,1.303,0.624,1.303,1.535c0,1.359-1.263,1.735-2.246,1.735c-1.063,0-1.479-0.32-1.735-0.552
			c-0.488-0.439-0.584-0.919-0.584-1.455h0.728c0,1.04,0.848,1.343,1.583,1.343c0.561,0,1.504-0.144,1.504-0.967
			c0-0.6-0.28-0.792-1.224-1.016L15.857,5.18c-0.375-0.088-1.223-0.352-1.223-1.351c0-0.896,0.583-1.775,1.975-1.775
			c2.007,0,2.207,1.199,2.239,1.831H18.12z"/>
		<path d="M20.706,7.946h-0.704V3.765h0.664V4.46h0.016c0.28-0.488,0.648-0.816,1.176-0.816c0.088,0,0.128,0.008,0.184,0.024v0.728
			h-0.264c-0.655,0-1.071,0.512-1.071,1.12V7.946z"/>
		<path d="M25.185,5.172c-0.088-0.56-0.399-0.896-0.991-0.896c-0.871,0-1.151,0.832-1.151,1.575c0,0.719,0.176,1.607,1.144,1.607
			c0.472,0,0.88-0.352,0.999-0.991h0.68c-0.071,0.664-0.479,1.599-1.703,1.599c-1.175,0-1.87-0.888-1.87-2.095
			c0-1.295,0.623-2.327,2.007-2.327c1.095,0,1.511,0.8,1.566,1.527H25.185z"/>
	</g>
</g>
<g>
	<path d="M142.097,3.87h0.584v1.727h1.727V6.18h-1.727v1.727h-0.584V6.18h-1.735V5.597h1.735V3.87z"/>
	<path d="M147.592,7.907h-0.751v-3.99h-1.312v-0.56c0.911-0.064,1.287-0.152,1.511-1.072h0.552V7.907z"/>
</g>
<g>
	<g>
		<path d="M185.011,2.206h2.327c1.495,0,2.414,1.135,2.414,2.791c0,1.287-0.56,2.95-2.446,2.95h-2.295V2.206z M185.786,7.283h1.504
			c1.007,0,1.663-0.792,1.663-2.239s-0.664-2.175-1.72-2.175h-1.447V7.283z"/>
		<path d="M193.034,4.956c-0.008-0.264-0.104-0.704-0.991-0.704c-0.216,0-0.832,0.072-0.832,0.592c0,0.344,0.216,0.423,0.76,0.56
			l0.703,0.176c0.872,0.216,1.176,0.536,1.176,1.104c0,0.863-0.712,1.383-1.655,1.383c-1.655,0-1.774-0.959-1.799-1.463h0.68
			c0.023,0.328,0.12,0.855,1.111,0.855c0.504,0,0.959-0.2,0.959-0.664c0-0.336-0.231-0.448-0.831-0.6l-0.815-0.2
			c-0.584-0.144-0.968-0.44-0.968-1.016c0-0.919,0.76-1.335,1.583-1.335c1.495,0,1.6,1.104,1.6,1.312H193.034z"/>
		<path d="M195.522,4.348v2.719c0,0.328,0.28,0.328,0.424,0.328h0.248v0.552c-0.256,0.024-0.455,0.056-0.527,0.056
			c-0.695,0-0.848-0.392-0.848-0.896V4.348h-0.567V3.765h0.567V2.597h0.703v1.167h0.672v0.583H195.522z"/>
	</g>
	<g>
	</g>
</g>
<g>
	<g>
		<path d="M126.259,2.206h2.327c1.495,0,2.414,1.135,2.414,2.791c0,1.287-0.56,2.95-2.446,2.95h-2.295V2.206z M127.034,7.283h1.504
			c1.007,0,1.663-0.792,1.663-2.239s-0.664-2.175-1.72-2.175h-1.447V7.283z"/>
		<path d="M134.282,4.956c-0.008-0.264-0.104-0.704-0.991-0.704c-0.216,0-0.832,0.072-0.832,0.592c0,0.344,0.216,0.423,0.76,0.56
			l0.703,0.176c0.872,0.216,1.176,0.536,1.176,1.104c0,0.863-0.712,1.383-1.655,1.383c-1.655,0-1.774-0.959-1.799-1.463h0.68
			c0.023,0.328,0.12,0.855,1.111,0.855c0.504,0,0.959-0.2,0.959-0.664c0-0.336-0.231-0.448-0.831-0.6l-0.815-0.2
			c-0.584-0.144-0.968-0.44-0.968-1.016c0-0.919,0.76-1.335,1.583-1.335c1.495,0,1.6,1.104,1.6,1.312H134.282z"/>
		<path d="M136.771,4.348v2.719c0,0.328,0.28,0.328,0.424,0.328h0.248v0.552c-0.256,0.024-0.455,0.056-0.527,0.056
			c-0.695,0-0.848-0.392-0.848-0.896V4.348H135.5V3.765h0.567V2.597h0.703v1.167h0.672v0.583H136.771z"/>
	</g>
	<g>
	</g>
</g>
<line class="st3" x1="163.782" y1="11.936" x2="163.782" y2="15.373"/>
<line class="st3" x1="163.782" y1="25.998" x2="163.782" y2="29.436"/>
<g>
	<polygon class="st4" points="95.038,20.811 82.472,28.394 82.472,13.229 95.038,20.811 	"/>
	<rect x="61.241" y="17.129" class="st4" width="21.664" height="7.366"/>
</g>
</svg>
