<?xml version="1.0" encoding="utf-8"?>
<!-- Generator: Adobe Illustrator 28.2.0, SVG Export Plug-In . SVG Version: 6.00 Build 0)  -->
<svg version="1.1" id="レイヤー_1" xmlns="http://www.w3.org/2000/svg" xmlns:xlink="http://www.w3.org/1999/xlink" x="0px"
	 y="0px" width="422.135px" height="239.543px" viewBox="0 0 422.135 239.543" style="enable-background:new 0 0 422.135 239.543;"
	 xml:space="preserve">
<style type="text/css">
	.st0{fill:#DCDCDC;stroke:#ABAAAA;stroke-width:2;stroke-miterlimit:10;}
	.st1{fill:#F0F0F0;stroke:#BFBEBE;stroke-width:2;stroke-miterlimit:10;}
	.st2{fill:none;stroke:#79C7BE;stroke-width:2;stroke-miterlimit:10;stroke-dasharray:4,4;}
	.st3{fill:none;stroke:#F4B4CE;stroke-width:2;stroke-miterlimit:10;stroke-dasharray:4,4;}
	.st4{fill:#040000;}
	.st5{fill:#666666;stroke:#4D4D4D;stroke-width:1.5;stroke-miterlimit:10;}
	.st6{fill:#FFFFFF;stroke:#999999;stroke-width:1.5;stroke-miterlimit:10;}
	.st7{fill:none;stroke:#333333;stroke-width:2;stroke-miterlimit:10;}
	.st8{fill:#ED777D;}
	.st9{fill:#FFFFFF;}
	.st10{fill:none;stroke:#ED777D;stroke-width:2;stroke-miterlimit:10;}
</style>
<rect x="11.382" y="54.35" class="st0" width="80.225" height="104.629"/>
<rect x="138.663" y="54.35" class="st1" width="31.146" height="104.629"/>
<rect x="216.326" y="54.35" class="st1" width="31.146" height="104.629"/>
<rect x="298.587" y="54.35" class="st1" width="31.146" height="104.629"/>
<rect x="378.124" y="54.35" class="st1" width="31.146" height="104.629"/>
<path class="st2" d="M161.18,173.541H19.337C9.252,173.541,1,165.289,1,155.204V46.799c0-10.085,8.252-18.337,18.337-18.337H161.18
	c10.085,0,18.337,8.252,18.337,18.337v108.404C179.517,165.289,171.265,173.541,161.18,173.541z"/>
<path class="st2" d="M23.894,211.833H8.551c-2.076,0-3.775-1.699-3.775-3.775v-9.142c0-2.076,1.699-3.775,3.775-3.775h15.344
	c2.076,0,3.775,1.699,3.775,3.775v9.142C27.67,210.134,25.971,211.833,23.894,211.833z"/>
<path class="st3" d="M23.894,238.543H8.551c-2.076,0-3.775-1.699-3.775-3.775v-9.142c0-2.076,1.699-3.775,3.775-3.775h15.344
	c2.076,0,3.775,1.699,3.775,3.775v9.142C27.67,236.844,25.971,238.543,23.894,238.543z"/>
<path class="st3" d="M402.798,173.541H222.663c-10.085,0-18.337-8.252-18.337-18.337V46.799c0-10.085,8.252-18.337,18.337-18.337
	h180.135c10.085,0,18.337,8.252,18.337,18.337v108.404C421.135,165.289,412.883,173.541,402.798,173.541z"/>
<g>
	<path class="st4" d="M39.255,203.842h-0.906v-0.914h0.906V203.842z M39.255,206.983h-0.906v-0.914h0.906V206.983z"/>
	<path class="st4" d="M47.138,202.069l0.602,0.367c-0.167,0.115-0.347,0.336-0.539,0.664c-0.583,0.979-0.987,1.604-1.211,1.875
		l1.438-0.219c-0.021,0.167-0.031,0.331-0.031,0.492c-0.797,0.073-1.474,0.178-2.031,0.312l-0.133-0.617
		c0.281-0.119,0.5-0.294,0.656-0.523c0.312-0.458,0.552-0.849,0.719-1.172c-0.552,0.062-1.031,0.146-1.438,0.25l-0.086-0.594
		c0.188-0.094,0.336-0.239,0.445-0.438c0.26-0.479,0.453-0.872,0.578-1.18c0.156-0.359,0.252-0.633,0.289-0.82l0.555,0.344
		c-0.104,0.1-0.222,0.289-0.352,0.57c-0.386,0.834-0.651,1.365-0.797,1.594l1.039-0.172
		C47.002,202.491,47.101,202.246,47.138,202.069z M47.513,206.037c-0.021,0.287-0.031,0.484-0.031,0.594
		c-1.104,0.193-1.81,0.349-2.117,0.469c-0.011-0.192-0.076-0.414-0.195-0.664C46.029,206.342,46.81,206.209,47.513,206.037z
		 M47.771,201.037c0.234,0.042,0.471,0.062,0.711,0.062c-0.078,0.167-0.117,0.425-0.117,0.773v5.07h2.625
		c0.38,0,0.763-0.023,1.148-0.07c-0.016,0.109-0.023,0.214-0.023,0.312c0,0.109,0.008,0.214,0.023,0.312
		c-0.386-0.042-0.769-0.062-1.148-0.062h-2.102c-0.359,0-0.722,0.021-1.086,0.062c0.016-0.271,0.023-0.519,0.023-0.742v-4.883
		C47.826,201.592,47.807,201.314,47.771,201.037z M48.646,203.123c0.25,0.042,0.5,0.062,0.75,0.062h0.625v-1.969
		c0-0.291-0.023-0.58-0.07-0.867c0.192,0.021,0.424,0.031,0.695,0.031c-0.068,0.136-0.102,0.311-0.102,0.523v2.281h0.719
		c0.255,0,0.508-0.021,0.758-0.062c-0.021,0.1-0.031,0.195-0.031,0.289c0,0.089,0.01,0.183,0.031,0.281
		c-0.25-0.041-0.503-0.062-0.758-0.062h-0.719v2c0,0.339,0.021,0.683,0.062,1.031c-0.109-0.021-0.224-0.031-0.344-0.031
		c-0.099,0-0.203,0.011-0.312,0.031c0.047-0.349,0.07-0.692,0.07-1.031v-1.375c-0.271,0.656-0.669,1.311-1.195,1.961
		c-0.083-0.141-0.227-0.275-0.43-0.406c0.323-0.255,0.609-0.596,0.859-1.023c0.208-0.312,0.388-0.697,0.539-1.156h-0.398
		c-0.25,0-0.5,0.021-0.75,0.062c0.021-0.099,0.031-0.192,0.031-0.281C48.677,203.319,48.666,203.223,48.646,203.123z
		 M49.294,200.944c0.062,0.542,0.2,1.081,0.414,1.617c-0.224,0.031-0.414,0.065-0.57,0.102c-0.089-0.63-0.211-1.172-0.367-1.625
		C48.99,201.017,49.164,200.986,49.294,200.944z M51.021,204.1c0.229,0.479,0.562,0.967,1,1.461
		c-0.162,0.094-0.32,0.222-0.477,0.383c-0.25-0.604-0.583-1.125-1-1.562C50.721,204.314,50.88,204.22,51.021,204.1z M51.458,200.873
		c0.161,0.136,0.349,0.24,0.562,0.312c-0.183,0.261-0.435,0.812-0.758,1.656c-0.141-0.114-0.315-0.208-0.523-0.281
		C50.948,202.28,51.187,201.717,51.458,200.873z"/>
	<path class="st4" d="M55.771,206.069c-0.021,0.287-0.031,0.484-0.031,0.594c-1.24,0.225-2.031,0.398-2.375,0.523
		c-0.011-0.188-0.076-0.406-0.195-0.656C54.117,206.426,54.984,206.272,55.771,206.069z M54.513,200.467l0.539,0.344
		c-0.104,0.1-0.214,0.295-0.328,0.586c-0.354,0.859-0.599,1.406-0.734,1.641l0.945-0.141c0.213-0.406,0.346-0.713,0.398-0.922
		l0.617,0.375c-0.162,0.109-0.344,0.336-0.547,0.68c-0.609,1.021-1.031,1.67-1.266,1.945l1.602-0.281
		c-0.021,0.178-0.031,0.352-0.031,0.523c-0.87,0.084-1.612,0.209-2.227,0.375l-0.117-0.648c0.286-0.119,0.51-0.299,0.672-0.539
		c0.26-0.396,0.474-0.736,0.641-1.023c-0.495,0.053-0.922,0.123-1.281,0.211l-0.102-0.555c0.177-0.104,0.317-0.26,0.422-0.469
		c0.239-0.505,0.417-0.916,0.531-1.234C54.393,200.954,54.482,200.665,54.513,200.467z M55.888,205.35
		c0.307,0.042,0.612,0.062,0.914,0.062h1.055c0.052-0.208,0.083-0.427,0.094-0.656c0-0.536-0.021-1.049-0.062-1.539
		c0.307,0.058,0.56,0.092,0.758,0.102c-0.089,0.225-0.133,0.464-0.133,0.719c0,0.526-0.042,0.984-0.125,1.375h0.977
		c0.297,0,0.596-0.021,0.898-0.062c-0.021,0.109-0.031,0.225-0.031,0.344c0,0.1,0.01,0.203,0.031,0.312
		c-0.302-0.041-0.602-0.062-0.898-0.062h-1.141c-0.193,0.484-0.479,0.859-0.859,1.125c-0.203,0.183-0.685,0.44-1.445,0.773
		c-0.146-0.234-0.331-0.409-0.555-0.523c0.63-0.141,1.117-0.308,1.461-0.5c0.396-0.234,0.68-0.525,0.852-0.875h-0.875
		c-0.302,0-0.607,0.021-0.914,0.062c0.021-0.109,0.031-0.213,0.031-0.312C55.919,205.575,55.909,205.459,55.888,205.35z
		 M56.263,204.037c0.312,0.276,0.656,0.565,1.031,0.867c-0.136,0.131-0.227,0.258-0.273,0.383c-0.344-0.385-0.688-0.697-1.031-0.938
		C56.094,204.251,56.185,204.147,56.263,204.037z M56.138,201.248c0.302,0.047,0.606,0.07,0.914,0.07h0.75v-0.344
		c0-0.208-0.021-0.416-0.062-0.625c0.203,0.053,0.442,0.081,0.719,0.086c-0.062,0.136-0.094,0.315-0.094,0.539v0.344h1
		c0.297,0,0.596-0.023,0.898-0.07c-0.021,0.12-0.031,0.234-0.031,0.344s0.01,0.214,0.031,0.312
		c-0.302-0.041-0.602-0.062-0.898-0.062h-1v0.656h1c0.26,0,0.518-0.01,0.773-0.031c-0.162,0.6-0.326,1.112-0.492,1.539
		c-0.177-0.083-0.375-0.127-0.594-0.133c0.156-0.234,0.292-0.523,0.406-0.867h-2.883c-0.151,0-0.305,0.011-0.461,0.031
		c0.016-0.099,0.023-0.192,0.023-0.281c0-0.094-0.008-0.189-0.023-0.289c0.156,0.021,0.31,0.031,0.461,0.031h1.227v-0.656h-0.75
		c-0.308,0-0.612,0.021-0.914,0.062c0.021-0.099,0.031-0.203,0.031-0.312S56.159,201.369,56.138,201.248z M56.802,203.217
		c0.276,0.229,0.588,0.472,0.938,0.727c-0.141,0.125-0.234,0.25-0.281,0.375c-0.312-0.322-0.628-0.586-0.945-0.789
		C56.627,203.442,56.724,203.337,56.802,203.217z M58.576,206.287c0.479,0.323,1.01,0.667,1.594,1.031
		c-0.198,0.177-0.331,0.352-0.398,0.523c-0.531-0.458-1.065-0.831-1.602-1.117C58.33,206.59,58.466,206.444,58.576,206.287z"/>
	<path class="st4" d="M64.266,206.74H63.49v-5.74h2.583c1.063,0,1.703,0.688,1.703,1.614c0,0.8-0.456,1.703-1.703,1.703h-1.807
		V206.74z M64.266,203.654h1.543c0.696,0,1.167-0.256,1.167-1.031c0-0.728-0.496-0.96-1.136-0.96h-1.575V203.654z"/>
	<path class="st4" d="M68.786,200.999h2.327c1.495,0,2.415,1.135,2.415,2.79c0,1.287-0.56,2.95-2.447,2.95h-2.295V200.999z
		 M69.561,206.077h1.503c1.007,0,1.663-0.792,1.663-2.239s-0.664-2.175-1.719-2.175h-1.447V206.077z"/>
	<path class="st4" d="M77.024,206.892c-2.143,0-2.798-1.783-2.798-3.022s0.655-3.022,2.798-3.022c2.143,0,2.798,1.783,2.798,3.022
		S79.167,206.892,77.024,206.892z M77.024,201.535c-1.248,0-1.999,0.983-1.999,2.335s0.751,2.335,1.999,2.335
		c1.247,0,1.999-0.983,1.999-2.335S78.271,201.535,77.024,201.535z"/>
	<path class="st4" d="M82.568,203.1c0.349,0.016,0.692,0.023,1.031,0.023c0.156,0,0.315-0.008,0.477-0.023
		c-0.021,0.219-0.031,0.438-0.031,0.656v2.656c0.026,0.011,0.055,0.023,0.086,0.039c0.672,0.37,1.549,0.555,2.633,0.555
		c0.578,0,1.567-0.055,2.969-0.164c-0.125,0.183-0.211,0.422-0.258,0.719h-2.492c-1.219,0-2.169-0.192-2.852-0.578
		c-0.162-0.094-0.273-0.141-0.336-0.141c-0.177,0-0.461,0.25-0.852,0.75c-0.141-0.183-0.315-0.328-0.523-0.438l0.773-0.602
		c0.114-0.083,0.219-0.143,0.312-0.18v-2.711c-0.308,0-0.62,0.011-0.938,0.031c0.021-0.109,0.031-0.213,0.031-0.312
		C82.599,203.283,82.588,203.189,82.568,203.1z M83.568,200.467c0.229,0.562,0.523,1.055,0.883,1.477
		c-0.208,0.026-0.427,0.107-0.656,0.242c-0.25-0.609-0.521-1.096-0.812-1.461C83.174,200.684,83.37,200.598,83.568,200.467z
		 M84.88,200.662c0.198,0.021,0.367,0.031,0.508,0.031h2.805c0.239,0,0.469-0.01,0.688-0.031c-0.021,0.073-0.031,0.154-0.031,0.242
		c0,0.198,0.01,0.386,0.031,0.562c-0.292,0.062-0.573,0.162-0.844,0.297c-0.172,0.084-0.427,0.245-0.766,0.484h1.18
		c0.198,0,0.396-0.01,0.594-0.031c-0.021,0.276-0.031,0.55-0.031,0.82v2.938c0,0.225-0.115,0.375-0.344,0.453
		c-0.24,0.089-0.492,0.133-0.758,0.133c-0.016-0.192-0.086-0.398-0.211-0.617c0.224,0.021,0.409,0.031,0.555,0.031
		c0.146,0,0.219-0.104,0.219-0.312v-0.539h-1.188v0.539c0,0.292,0.023,0.581,0.07,0.867c-0.12-0.021-0.234-0.031-0.344-0.031
		s-0.214,0.011-0.312,0.031c0.042-0.286,0.062-0.575,0.062-0.867v-0.539h-1.195v0.852c0,0.198,0.01,0.394,0.031,0.586
		c-0.099-0.021-0.203-0.031-0.312-0.031c-0.094,0-0.185,0.011-0.273,0.031c0.021-0.192,0.031-0.388,0.031-0.586v-2.938
		c0-0.271-0.011-0.544-0.031-0.82c0.198,0.021,0.393,0.031,0.586,0.031h0.992l0.078-0.055c-0.214-0.197-0.433-0.375-0.656-0.531
		c0.141-0.114,0.266-0.229,0.375-0.344c0.219,0.178,0.448,0.362,0.688,0.555l0.938-0.719h-2.625c-0.177,0-0.347,0.011-0.508,0.031
		c0.021-0.109,0.031-0.203,0.031-0.281C84.912,200.822,84.901,200.741,84.88,200.662z M85.568,203.436h1.195v-0.711h-1.195V203.436z
		 M85.568,204.694h1.195v-0.82h-1.195V204.694z M87.287,202.725v0.711h1.188v-0.711H87.287z M87.287,203.873v0.82h1.188v-0.82
		H87.287z"/>
	<path class="st4" d="M92.162,200.412c0.26,0.131,0.534,0.214,0.82,0.25c-0.109,0.151-0.222,0.375-0.336,0.672
		c-0.109,0.292-0.229,0.573-0.359,0.844v4.602c0,0.349,0.023,0.692,0.07,1.031c-0.12-0.021-0.234-0.031-0.344-0.031
		s-0.214,0.011-0.312,0.031c0.042-0.339,0.062-0.683,0.062-1.031v-3.586c-0.25,0.438-0.523,0.852-0.82,1.242
		c-0.115-0.182-0.3-0.359-0.555-0.531c0.438-0.447,0.805-0.984,1.102-1.609C91.781,201.712,92.005,201.084,92.162,200.412z
		 M92.794,201.467c0.297,0.042,0.599,0.062,0.906,0.062h3.094c0.297,0,0.599-0.021,0.906-0.062c-0.021,0.12-0.031,0.234-0.031,0.344
		s0.01,0.214,0.031,0.312c-0.308-0.036-0.609-0.055-0.906-0.055h-3.094c-0.308,0-0.609,0.019-0.906,0.055
		c0.016-0.099,0.023-0.203,0.023-0.312S92.81,201.587,92.794,201.467z M93.076,203.662c0.286,0.042,0.575,0.062,0.867,0.062h2.383
		c0.292,0,0.581-0.021,0.867-0.062c-0.021,0.1-0.031,0.203-0.031,0.312c0,0.1,0.01,0.203,0.031,0.312
		c-0.287-0.047-0.576-0.07-0.867-0.07h-2.383c-0.292,0-0.581,0.023-0.867,0.07c0.021-0.109,0.031-0.213,0.031-0.312
		C93.107,203.866,93.096,203.762,93.076,203.662z M93.107,202.631c0.286,0.042,0.578,0.062,0.875,0.062h2.375
		c0.292,0,0.581-0.021,0.867-0.062c-0.021,0.1-0.031,0.203-0.031,0.312c0,0.104,0.01,0.206,0.031,0.305
		c-0.287-0.041-0.576-0.062-0.867-0.062h-2.375c-0.297,0-0.589,0.021-0.875,0.062c0.021-0.099,0.031-0.2,0.031-0.305
		C93.138,202.834,93.127,202.731,93.107,202.631z M93.193,204.78c0.317,0.042,0.633,0.062,0.945,0.062h2
		c0.307,0,0.62-0.021,0.938-0.062c-0.042,0.281-0.062,0.565-0.062,0.852v1.18c0,0.308,0.021,0.612,0.062,0.914
		c-0.177-0.021-0.292-0.031-0.344-0.031c-0.068,0-0.193,0.011-0.375,0.031c0.031-0.234,0.049-0.464,0.055-0.688h-2.555
		c0.005,0.255,0.023,0.503,0.055,0.742c-0.188-0.016-0.312-0.023-0.375-0.023c-0.052,0-0.167,0.008-0.344,0.023
		c0.042-0.297,0.062-0.599,0.062-0.906v-1.242C93.255,205.345,93.234,205.061,93.193,204.78z M93.849,206.53h2.57v-1.148h-2.57
		V206.53z M95.287,200.412l0.445,0.836c-0.261,0.037-0.5,0.092-0.719,0.164c-0.099-0.364-0.214-0.658-0.344-0.883
		C94.851,200.525,95.057,200.486,95.287,200.412z"/>
</g>
<g>
	<path class="st4" d="M29.748,46.02H25.51V40.28h4.182v0.688h-3.406v1.759h3.142v0.688h-3.142v1.919h3.462V46.02z"/>
	<path class="st4" d="M31.542,42.422v2.719c0,0.328,0.28,0.328,0.424,0.328h0.248v0.552c-0.256,0.024-0.456,0.056-0.527,0.056
		c-0.696,0-0.848-0.392-0.848-0.896v-2.759H30.27v-0.583h0.568v-1.167h0.704v1.167h0.671v0.583H31.542z"/>
	<path class="st4" d="M36.309,46.02h-0.704v-2.734c0-0.568-0.16-0.936-0.832-0.936c-0.576,0-1.167,0.336-1.167,1.391v2.279h-0.704
		V40.28h0.704v2.119h0.016c0.2-0.264,0.552-0.68,1.223-0.68c0.648,0,1.463,0.264,1.463,1.455V46.02z"/>
	<path class="st4" d="M40.9,44.709c-0.024,0.2-0.216,0.792-0.744,1.144c-0.192,0.128-0.464,0.288-1.135,0.288
		c-1.175,0-1.871-0.888-1.871-2.095c0-1.295,0.624-2.327,2.007-2.327c1.208,0,1.799,0.959,1.799,2.439h-3.055
		c0,0.872,0.408,1.375,1.215,1.375c0.664,0,1.056-0.512,1.08-0.824H40.9z M40.228,43.598c-0.04-0.647-0.312-1.247-1.167-1.247
		c-0.648,0-1.16,0.6-1.16,1.247H40.228z"/>
	<path class="st4" d="M42.598,46.02h-0.704v-4.182h0.664v0.695h0.016c0.28-0.487,0.647-0.815,1.175-0.815
		c0.088,0,0.128,0.008,0.184,0.024v0.728h-0.264c-0.656,0-1.071,0.512-1.071,1.119V46.02z"/>
	<path class="st4" d="M48.58,42.007c-0.216-1.008-1.056-1.191-1.607-1.191c-1.04,0-1.879,0.768-1.879,2.279
		c0,1.351,0.479,2.391,1.903,2.391c0.504,0,1.375-0.24,1.639-1.575h0.751c-0.32,2.167-2.079,2.263-2.51,2.263
		c-1.304,0-2.583-0.848-2.583-3.054c0-1.767,1.008-2.99,2.679-2.99c1.479,0,2.247,0.919,2.359,1.879H48.58z"/>
	<path class="st4" d="M51.23,44.349l-0.6,1.671h-0.8l2.159-5.741h0.879l2.079,5.741H54.1l-0.567-1.671H51.23z M53.253,43.661
		l-0.848-2.526h-0.016l-0.919,2.526H53.253z"/>
	<path class="st4" d="M55.166,40.28h4.662v0.688h-1.943v5.053h-0.776v-5.053h-1.943V40.28z"/>
	<path class="st4" d="M62.909,41.092c0.307,0.042,0.612,0.062,0.914,0.062h4.68c0.302,0,0.606-0.021,0.914-0.062
		c-0.021,0.12-0.031,0.234-0.031,0.344s0.01,0.214,0.031,0.312c-0.308-0.036-0.612-0.055-0.914-0.055h-2.086v1.836h1.625
		c0.302,0,0.602-0.021,0.898-0.062c-0.021,0.12-0.031,0.234-0.031,0.344s0.01,0.214,0.031,0.312
		c-0.297-0.042-0.597-0.062-0.898-0.062h-1.625v2.125h2.43c0.302,0,0.606-0.021,0.914-0.062c-0.021,0.12-0.031,0.234-0.031,0.344
		s0.01,0.213,0.031,0.312c-0.308-0.042-0.612-0.062-0.914-0.062h-5.344c-0.297,0-0.599,0.021-0.906,0.062
		c0.021-0.099,0.031-0.203,0.031-0.312s-0.011-0.224-0.031-0.344c0.307,0.042,0.609,0.062,0.906,0.062h2.32V44.06h-1.656
		c-0.302,0-0.607,0.021-0.914,0.062c0.021-0.099,0.031-0.203,0.031-0.312s-0.011-0.224-0.031-0.344
		c0.307,0.042,0.612,0.062,0.914,0.062h1.656v-1.836h-2c-0.302,0-0.607,0.019-0.914,0.055c0.021-0.099,0.031-0.203,0.031-0.312
		S62.93,41.212,62.909,41.092z M66.011,39.662c0.182,0.401,0.422,0.753,0.719,1.055c-0.214,0.026-0.443,0.112-0.688,0.258
		c-0.203-0.442-0.422-0.797-0.656-1.062C65.594,39.865,65.802,39.782,66.011,39.662z"/>
	<path class="st4" d="M72.878,42.123c0.219,0.099,0.458,0.175,0.719,0.227c-0.109,0.208-0.222,0.539-0.336,0.992
		c-0.177,0.792-0.386,1.534-0.625,2.227c0.349-0.073,0.68-0.146,0.992-0.219c-0.021,0.271-0.031,0.458-0.031,0.562
		c-1.547,0.25-2.537,0.445-2.969,0.586c-0.011-0.177-0.06-0.385-0.148-0.625c0.599-0.062,1.164-0.138,1.695-0.227
		C72.576,44.423,72.81,43.248,72.878,42.123z M70.565,41.185c0.271,0.047,0.544,0.07,0.82,0.07h1.75c0.266,0,0.534-0.023,0.805-0.07
		c-0.021,0.109-0.031,0.214-0.031,0.312c0,0.099,0.01,0.193,0.031,0.281c-0.271-0.042-0.539-0.062-0.805-0.062h-1.75
		c-0.276,0-0.55,0.021-0.82,0.062c0.021-0.088,0.031-0.182,0.031-0.281C70.597,41.399,70.586,41.295,70.565,41.185z M71.534,42.287
		c0.016,0.771,0.151,1.656,0.406,2.656c-0.203,0-0.412,0.021-0.625,0.062c0-0.844-0.115-1.739-0.344-2.688
		C71.175,42.318,71.362,42.308,71.534,42.287z M72.479,39.842c0.052,0.396,0.185,0.794,0.398,1.195
		c-0.245,0.021-0.453,0.05-0.625,0.086c-0.089-0.458-0.214-0.852-0.375-1.18C72.128,39.923,72.328,39.889,72.479,39.842z
		 M74.878,39.662c0.192,0.052,0.422,0.081,0.688,0.086c-0.058,0.13-0.086,0.3-0.086,0.508v0.969h1.43
		c0.224,0,0.463-0.013,0.719-0.039c-0.021,0.094-0.031,0.177-0.031,0.25c0,0.109,0.01,0.203,0.031,0.281
		c-0.167-0.016-0.406-0.023-0.719-0.023h-1.43v1.711h0.656c0.276,0,0.555-0.018,0.836-0.055c-0.042,0.245-0.062,0.492-0.062,0.742
		v2.133c0,0.271,0.021,0.542,0.062,0.812c-0.151-0.021-0.255-0.031-0.312-0.031c-0.058,0-0.172,0.01-0.344,0.031
		c0.036-0.214,0.057-0.425,0.062-0.633h-2.016c0.005,0.213,0.023,0.424,0.055,0.633c-0.172-0.021-0.287-0.031-0.344-0.031
		c-0.058,0-0.162,0.01-0.312,0.031c0.042-0.271,0.062-0.542,0.062-0.812v-2.133c0-0.25-0.021-0.497-0.062-0.742
		c0.276,0.037,0.555,0.055,0.836,0.055h0.344v-3.148C74.94,40.058,74.919,39.86,74.878,39.662z M74.354,45.943h2.031v-2.07h-2.031
		V45.943z"/>
</g>
<g>
	<path class="st4" d="M146.572,40.451c0.302,0.042,0.606,0.062,0.914,0.062h1.406v-0.82c0-0.067-0.011-0.138-0.031-0.211
		c0.229,0.062,0.466,0.094,0.711,0.094c-0.058,0.109-0.086,0.214-0.086,0.312v0.625h1.461v-0.82c0-0.067-0.011-0.138-0.031-0.211
		c0.234,0.062,0.474,0.094,0.719,0.094c-0.058,0.109-0.086,0.214-0.086,0.312v0.625h1.281c0.297,0,0.596-0.021,0.898-0.062
		c-0.021,0.109-0.031,0.224-0.031,0.344c0,0.099,0.01,0.203,0.031,0.312c-0.302-0.047-0.602-0.07-0.898-0.07h-1.281v0.758
		c0,0.083,0.008,0.164,0.023,0.242c-0.109-0.021-0.222-0.031-0.336-0.031c-0.104,0-0.211,0.011-0.32,0.031
		c0.021-0.078,0.031-0.159,0.031-0.242v-0.758h-1.461v0.758c0,0.083,0.01,0.164,0.031,0.242c-0.12-0.021-0.234-0.031-0.344-0.031
		s-0.214,0.011-0.312,0.031c0.021-0.078,0.031-0.159,0.031-0.242v-0.758h-1.406c-0.308,0-0.612,0.023-0.914,0.07
		c0.021-0.109,0.031-0.213,0.031-0.312C146.603,40.675,146.592,40.56,146.572,40.451z M147.009,42.513
		c0.177,0.021,0.356,0.031,0.539,0.031h4.656c0.239,0,0.477-0.01,0.711-0.031c-0.011,0.219-0.073,1.05-0.188,2.492
		c-0.047,0.458-0.193,0.742-0.438,0.852c-0.333,0.167-0.8,0.25-1.398,0.25c0-0.234-0.042-0.466-0.125-0.695h0.469
		c0.489,0,0.771-0.114,0.844-0.344l0.156-1.961h-2.344v2.898c0,0.328,0.018,0.651,0.055,0.969c-0.12-0.021-0.245-0.031-0.375-0.031
		c-0.109,0-0.222,0.01-0.336,0.031c0.036-0.318,0.055-0.641,0.055-0.969v-2.898h-1.742c-0.183,0-0.362,0.011-0.539,0.031
		c0.021-0.109,0.031-0.213,0.031-0.312C147.04,42.716,147.03,42.612,147.009,42.513z"/>
	<path class="st4" d="M155.634,45.068c0.172,0.12,0.401,0.214,0.688,0.281c-0.412,0.433-0.755,0.995-1.031,1.688
		c-0.188-0.151-0.386-0.266-0.594-0.344C155.061,46.245,155.373,45.703,155.634,45.068z M157.665,39.482
		c0.213,0.073,0.466,0.112,0.758,0.117c-0.068,0.136-0.102,0.315-0.102,0.539v0.555h2.227c0.25,0,0.518-0.01,0.805-0.031
		c-0.021,0.104-0.031,0.198-0.031,0.281c0,0.125,0.01,0.232,0.031,0.32c-0.193-0.021-0.461-0.031-0.805-0.031h-2.227v0.969h1.25
		c0.349,0,0.692-0.01,1.031-0.031c-0.021,0.188-0.031,0.373-0.031,0.555v1.383c0,0.203,0.01,0.409,0.031,0.617
		c-0.339-0.021-0.683-0.031-1.031-0.031h-2.68c-0.349,0-0.693,0.011-1.031,0.031c0.021-0.208,0.031-0.414,0.031-0.617v-1.383
		c-0.021-0.182-0.031-0.367-0.031-0.555c0.338,0.021,0.682,0.031,1.031,0.031h0.836v-2.062
		C157.728,39.919,157.707,39.701,157.665,39.482z M159.978,44.169v-1.445h-3.492v1.445H159.978z M157.517,45.349
		c0.161,0.537,0.276,0.995,0.344,1.375c-0.271,0-0.49,0.01-0.656,0.031c0-0.443-0.097-0.891-0.289-1.344
		C157.202,45.411,157.402,45.391,157.517,45.349z M159.04,45.232l0.688,1.367c-0.25,0.031-0.479,0.083-0.688,0.156
		c-0.156-0.578-0.352-1.047-0.586-1.406C158.626,45.344,158.822,45.305,159.04,45.232z M160.697,45.107
		c0.276,0.464,0.643,0.961,1.102,1.492c-0.24,0.042-0.479,0.117-0.719,0.227c-0.193-0.469-0.55-0.981-1.07-1.539
		C160.254,45.261,160.483,45.201,160.697,45.107z"/>
</g>
<g>
	<path class="st4" d="M39.255,230.809h-0.906v-0.914h0.906V230.809z M39.255,233.95h-0.906v-0.914h0.906V233.95z"/>
	<path class="st4" d="M46.677,227.286c0.198,0.12,0.477,0.211,0.836,0.273c-0.167,0.203-0.365,0.594-0.594,1.172v4.828
		c0,0.364,0.023,0.731,0.07,1.102c-0.12-0.021-0.234-0.031-0.344-0.031c-0.12,0-0.237,0.01-0.352,0.031
		c0.047-0.37,0.07-0.737,0.07-1.102v-3.594c-0.234,0.453-0.498,0.894-0.789,1.32c-0.115-0.172-0.31-0.331-0.586-0.477
		c0.505-0.609,0.891-1.216,1.156-1.82C46.385,228.426,46.562,227.859,46.677,227.286z M47.333,231.286
		c0.292,0.021,0.581,0.031,0.867,0.031h3.227c0.286,0,0.575-0.011,0.867-0.031c-0.021,0.172-0.031,0.347-0.031,0.523
		c0,0.239,0.01,0.479,0.031,0.719c-0.094-0.021-0.185-0.031-0.273-0.031c-0.109,0-0.214,0.011-0.312,0.031
		c0.021-0.25,0.031-0.5,0.031-0.75h-3.852c0,0.203,0.008,0.406,0.023,0.609c0.255,0.031,0.51,0.047,0.766,0.047h2.18
		c0.271,0,0.544-0.019,0.82-0.055c-0.021,0.099-0.031,0.203-0.031,0.312c0,0.089,0.01,0.183,0.031,0.281
		c-0.276-0.042-0.55-0.062-0.82-0.062h-0.625v1.406c0,0.146-0.102,0.255-0.305,0.328c-0.183,0.067-0.558,0.102-1.125,0.102
		c-0.011-0.234-0.076-0.443-0.195-0.625c0.38,0.041,0.672,0.062,0.875,0.062c0.141,0,0.216-0.05,0.227-0.148v-1.125h-1.031
		c-0.276,0-0.55,0.021-0.82,0.062c0.021-0.099,0.031-0.192,0.031-0.281c0-0.058-0.003-0.114-0.008-0.172
		c-0.094-0.016-0.185-0.023-0.273-0.023c-0.094,0-0.185,0.011-0.273,0.031c0.021-0.219,0.031-0.438,0.031-0.656
		C47.365,231.679,47.354,231.484,47.333,231.286z M49.951,227.317c0.099,0.266,0.198,0.555,0.297,0.867h1.148
		c0.286,0,0.575-0.021,0.867-0.062c-0.021,0.109-0.031,0.214-0.031,0.312c0,0.109,0.01,0.214,0.031,0.312
		c-0.292-0.036-0.581-0.055-0.867-0.055h-3c-0.297,0-0.591,0.019-0.883,0.055c0.021-0.099,0.031-0.203,0.031-0.312
		c0-0.099-0.011-0.203-0.031-0.312c0.292,0.042,0.586,0.062,0.883,0.062h1.289c-0.12-0.317-0.237-0.586-0.352-0.805
		C49.531,227.364,49.737,227.343,49.951,227.317z M48.021,229.184c0.297,0.021,0.596,0.031,0.898,0.031h1.625
		c0.307,0,0.612-0.011,0.914-0.031c-0.021,0.146-0.031,0.294-0.031,0.445v0.656c0,0.183,0.01,0.367,0.031,0.555
		c-0.302-0.021-0.607-0.031-0.914-0.031h-1.625c-0.302,0-0.602,0.011-0.898,0.031c0.021-0.188,0.031-0.372,0.031-0.555v-0.656
		C48.031,229.478,48.021,229.329,48.021,229.184z M50.888,230.403v-0.773h-2.312v0.773H50.888z"/>
	<path class="st4" d="M56.646,227.348c0.208,0.073,0.458,0.112,0.75,0.117c-0.068,0.136-0.102,0.315-0.102,0.539v1.906h1.562
		c0.255,0,0.528-0.013,0.82-0.039c-0.021,0.104-0.031,0.198-0.031,0.281c0,0.125,0.01,0.229,0.031,0.312
		c-0.193-0.021-0.466-0.031-0.82-0.031h-1.562v3.258h2.219c0.307,0,0.612-0.021,0.914-0.062c-0.021,0.109-0.031,0.224-0.031,0.344
		c0,0.099,0.01,0.203,0.031,0.312c-0.302-0.047-0.607-0.07-0.914-0.07h-5.43c-0.308,0-0.612,0.023-0.914,0.07
		c0.021-0.109,0.031-0.214,0.031-0.312c0-0.12-0.011-0.234-0.031-0.344c0.302,0.042,0.606,0.062,0.914,0.062h0.492v-4.195
		c0-0.219-0.021-0.438-0.062-0.656c0.213,0.078,0.463,0.122,0.75,0.133c-0.062,0.13-0.094,0.305-0.094,0.523v4.195h1.539v-5.688
		C56.708,227.786,56.687,227.567,56.646,227.348z"/>
	<path class="st4" d="M64.266,233.706H63.49v-5.741h2.583c1.063,0,1.703,0.688,1.703,1.615c0,0.8-0.456,1.703-1.703,1.703h-1.807
		V233.706z M64.266,230.62h1.543c0.696,0,1.167-0.256,1.167-1.031c0-0.728-0.496-0.959-1.136-0.959h-1.575V230.62z"/>
	<path class="st4" d="M68.786,227.965h2.327c1.495,0,2.415,1.136,2.415,2.791c0,1.287-0.56,2.95-2.447,2.95h-2.295V227.965z
		 M69.561,233.042h1.503c1.007,0,1.663-0.791,1.663-2.238s-0.664-2.175-1.719-2.175h-1.447V233.042z"/>
	<path class="st4" d="M77.024,233.858c-2.143,0-2.798-1.782-2.798-3.022c0-1.239,0.655-3.021,2.798-3.021
		c2.143,0,2.798,1.782,2.798,3.021C79.823,232.076,79.167,233.858,77.024,233.858z M77.024,228.501
		c-1.248,0-1.999,0.983-1.999,2.334c0,1.352,0.751,2.335,1.999,2.335c1.247,0,1.999-0.983,1.999-2.335
		C79.023,229.485,78.271,228.501,77.024,228.501z"/>
	<path class="st4" d="M82.568,230.067c0.349,0.016,0.692,0.023,1.031,0.023c0.156,0,0.315-0.008,0.477-0.023
		c-0.021,0.219-0.031,0.438-0.031,0.656v2.656c0.026,0.011,0.055,0.023,0.086,0.039c0.672,0.37,1.549,0.555,2.633,0.555
		c0.578,0,1.567-0.055,2.969-0.164c-0.125,0.182-0.211,0.422-0.258,0.719h-2.492c-1.219,0-2.169-0.193-2.852-0.578
		c-0.162-0.094-0.273-0.141-0.336-0.141c-0.177,0-0.461,0.25-0.852,0.75c-0.141-0.183-0.315-0.328-0.523-0.438l0.773-0.602
		c0.114-0.083,0.219-0.144,0.312-0.18v-2.711c-0.308,0-0.62,0.011-0.938,0.031c0.021-0.109,0.031-0.214,0.031-0.312
		S82.588,230.156,82.568,230.067z M83.568,227.434c0.229,0.562,0.523,1.055,0.883,1.477c-0.208,0.026-0.427,0.106-0.656,0.242
		c-0.25-0.609-0.521-1.097-0.812-1.461C83.174,227.65,83.37,227.564,83.568,227.434z M84.88,227.629
		c0.198,0.021,0.367,0.031,0.508,0.031h2.805c0.239,0,0.469-0.011,0.688-0.031c-0.021,0.073-0.031,0.153-0.031,0.242
		c0,0.198,0.01,0.386,0.031,0.562c-0.292,0.062-0.573,0.161-0.844,0.297c-0.172,0.083-0.427,0.245-0.766,0.484h1.18
		c0.198,0,0.396-0.011,0.594-0.031c-0.021,0.276-0.031,0.55-0.031,0.82v2.938c0,0.224-0.115,0.375-0.344,0.453
		c-0.24,0.089-0.492,0.133-0.758,0.133c-0.016-0.192-0.086-0.398-0.211-0.617c0.224,0.021,0.409,0.031,0.555,0.031
		c0.146,0,0.219-0.104,0.219-0.312v-0.539h-1.188v0.539c0,0.292,0.023,0.581,0.07,0.867c-0.12-0.021-0.234-0.031-0.344-0.031
		s-0.214,0.011-0.312,0.031c0.042-0.286,0.062-0.575,0.062-0.867v-0.539h-1.195v0.852c0,0.198,0.01,0.394,0.031,0.586
		c-0.099-0.021-0.203-0.031-0.312-0.031c-0.094,0-0.185,0.011-0.273,0.031c0.021-0.192,0.031-0.388,0.031-0.586v-2.938
		c0-0.271-0.011-0.544-0.031-0.82c0.198,0.021,0.393,0.031,0.586,0.031h0.992l0.078-0.055c-0.214-0.198-0.433-0.375-0.656-0.531
		c0.141-0.114,0.266-0.229,0.375-0.344c0.219,0.177,0.448,0.362,0.688,0.555l0.938-0.719h-2.625c-0.177,0-0.347,0.011-0.508,0.031
		c0.021-0.109,0.031-0.203,0.031-0.281C84.912,227.788,84.901,227.707,84.88,227.629z M85.568,230.403h1.195v-0.711h-1.195V230.403z
		 M85.568,231.661h1.195v-0.82h-1.195V231.661z M87.287,229.692v0.711h1.188v-0.711H87.287z M87.287,230.84v0.82h1.188v-0.82H87.287
		z"/>
	<path class="st4" d="M92.162,227.379c0.26,0.13,0.534,0.214,0.82,0.25c-0.109,0.151-0.222,0.375-0.336,0.672
		c-0.109,0.292-0.229,0.573-0.359,0.844v4.602c0,0.349,0.023,0.692,0.07,1.031c-0.12-0.021-0.234-0.031-0.344-0.031
		s-0.214,0.01-0.312,0.031c0.042-0.339,0.062-0.683,0.062-1.031v-3.586c-0.25,0.438-0.523,0.852-0.82,1.242
		c-0.115-0.183-0.3-0.359-0.555-0.531c0.438-0.448,0.805-0.984,1.102-1.609C91.781,228.679,92.005,228.051,92.162,227.379z
		 M92.794,228.434c0.297,0.042,0.599,0.062,0.906,0.062h3.094c0.297,0,0.599-0.021,0.906-0.062c-0.021,0.12-0.031,0.234-0.031,0.344
		s0.01,0.214,0.031,0.312c-0.308-0.036-0.609-0.055-0.906-0.055h-3.094c-0.308,0-0.609,0.019-0.906,0.055
		c0.016-0.099,0.023-0.203,0.023-0.312S92.81,228.554,92.794,228.434z M93.076,230.629c0.286,0.042,0.575,0.062,0.867,0.062h2.383
		c0.292,0,0.581-0.021,0.867-0.062c-0.021,0.099-0.031,0.203-0.031,0.312c0,0.099,0.01,0.203,0.031,0.312
		c-0.287-0.047-0.576-0.07-0.867-0.07h-2.383c-0.292,0-0.581,0.023-0.867,0.07c0.021-0.109,0.031-0.214,0.031-0.312
		C93.107,230.832,93.096,230.728,93.076,230.629z M93.107,229.598c0.286,0.042,0.578,0.062,0.875,0.062h2.375
		c0.292,0,0.581-0.021,0.867-0.062c-0.021,0.099-0.031,0.203-0.031,0.312c0,0.104,0.01,0.206,0.031,0.305
		c-0.287-0.042-0.576-0.062-0.867-0.062h-2.375c-0.297,0-0.589,0.021-0.875,0.062c0.021-0.099,0.031-0.2,0.031-0.305
		C93.138,229.801,93.127,229.697,93.107,229.598z M93.193,231.746c0.317,0.042,0.633,0.062,0.945,0.062h2
		c0.307,0,0.62-0.021,0.938-0.062c-0.042,0.281-0.062,0.565-0.062,0.852v1.18c0,0.307,0.021,0.611,0.062,0.914
		c-0.177-0.021-0.292-0.031-0.344-0.031c-0.068,0-0.193,0.01-0.375,0.031c0.031-0.234,0.049-0.464,0.055-0.688h-2.555
		c0.005,0.255,0.023,0.502,0.055,0.742c-0.188-0.016-0.312-0.023-0.375-0.023c-0.052,0-0.167,0.008-0.344,0.023
		c0.042-0.297,0.062-0.6,0.062-0.906v-1.242C93.255,232.312,93.234,232.028,93.193,231.746z M93.849,233.496h2.57v-1.148h-2.57
		V233.496z M95.287,227.379l0.445,0.836c-0.261,0.036-0.5,0.091-0.719,0.164c-0.099-0.364-0.214-0.659-0.344-0.883
		C94.851,227.492,95.057,227.453,95.287,227.379z"/>
</g>
<rect x="72.758" y="119.212" class="st5" width="9.652" height="9.652"/>
<rect x="149.41" y="94.191" class="st6" width="9.652" height="9.652"/>
<polyline class="st7" points="77.584,124.038 108.326,124.038 108.326,99.017 154.236,99.017 "/>
<line class="st7" x1="152.819" y1="124.038" x2="179.517" y2="124.038"/>
<rect x="149.529" y="119.212" class="st5" width="9.652" height="9.652"/>
<rect x="227.598" y="94.191" class="st6" width="9.652" height="9.652"/>
<polyline class="st7" points="154.355,124.038 190.303,124.038 190.303,99.017 232.424,99.017 "/>
<rect x="227.598" y="119.212" class="st5" width="9.652" height="9.652"/>
<rect x="310.203" y="94.191" class="st6" width="9.652" height="9.652"/>
<polyline class="st7" points="232.424,124.038 272.908,124.038 272.908,99.017 315.029,99.017 "/>
<rect x="310.203" y="119.212" class="st5" width="9.652" height="9.652"/>
<rect x="388.871" y="119.212" class="st5" width="9.652" height="9.652"/>
<rect x="389.406" y="94.191" class="st6" width="9.652" height="9.652"/>
<polyline class="st7" points="315.029,124.038 352.111,124.038 352.111,99.017 394.232,99.017 "/>
<rect x="209.719" class="st8" width="43.146" height="16.058"/>
<g>
	<path class="st9" d="M223.355,8.379c-0.126,0.198-0.198,0.306-0.378,0.54l-0.531-1.062c0.963-1.233,1.278-2.656,1.413-3.709
		l0.937,0.171c-0.081,0.504-0.216,1.288-0.531,2.188v6.085h-0.909V8.379z M229.981,10.027v0.468h-1.566v1.288
		c0,0.558-0.396,0.81-0.766,0.81h-1.305l-0.162-0.882h1.008c0.243,0,0.307,0,0.307-0.208v-1.008h-1.891v-0.468h-0.855V8.433h6.104
		v1.594H229.981z M227.316,4.148h0.964v0.63h2.736V5.57h-6.221V4.778h2.521V4.148z M230.368,6.012v1.98h-5.167v-1.98H230.368z
		 M229.981,9.171h-4.375v0.567h4.375V9.171z M226.074,6.696v0.621h3.421V6.696H226.074z"/>
	<path class="st9" d="M236.622,4.148v2.737h2.979v0.954h-2.979v3.493h3.376v0.945h-8.399v-0.945h1.278V5.687h0.954v5.645h1.818
		V4.148H236.622z"/>
</g>
<g>
	<g>
		<line class="st10" x1="231.292" y1="8.029" x2="231.292" y2="43.433"/>
		<g>
			<polygon class="st8" points="228.387,41.452 231.292,52.293 234.197,41.452 			"/>
		</g>
	</g>
</g>
<g>
</g>
<g>
</g>
<g>
</g>
<g>
</g>
<g>
</g>
<g>
</g>
<g>
</g>
</svg>
