<?xml version="1.0" encoding="utf-8"?>
<!-- Generator: Adobe Illustrator 28.2.0, SVG Export Plug-In . SVG Version: 6.00 Build 0)  -->
<svg version="1.1" id="レイヤー1" xmlns="http://www.w3.org/2000/svg" xmlns:xlink="http://www.w3.org/1999/xlink" x="0px"
	 y="0px" width="511.261px" height="228.977px" viewBox="0 0 511.261 228.977" style="enable-background:new 0 0 511.261 228.977;"
	 xml:space="preserve">
<style type="text/css">
	.st0{fill:#FFFFFF;stroke:#000000;stroke-miterlimit:10;}
	.st1{fill:none;stroke:#000000;}
	.st2{fill:#FFFFFF;}
	.st3{fill:#FFFFFF;stroke:#000000;}
	.st4{fill:none;stroke:#000000;stroke-dasharray:2;}
</style>
<line class="st0" x1="0.525" y1="24.221" x2="510.499" y2="24.221"/>
<line class="st1" x1="0.525" y1="72.665" x2="510.499" y2="72.665"/>
<line class="st1" x1="0.525" y1="0" x2="0.525" y2="97.124"/>
<line class="st1" x1="510.761" y1="0" x2="510.761" y2="97.124"/>
<g>
	<rect x="35.128" y="17.302" class="st2" width="13.841" height="13.843"/>
	<line class="st1" x1="48.969" y1="17.302" x2="48.969" y2="31.145"/>
	<line class="st1" x1="35.128" y1="31.145" x2="35.128" y2="17.302"/>
</g>
<g>
	<rect x="418.453" y="55.411" class="st3" width="83.046" height="34.599"/>
	<rect x="430.679" y="50.433" class="st2" width="57.678" height="10.681"/>
</g>
<line class="st0" x1="0.525" y1="24.221" x2="510.499" y2="24.221"/>
<line class="st1" x1="0.525" y1="72.665" x2="510.499" y2="72.665"/>
<line class="st1" x1="0.525" y1="0" x2="0.525" y2="97.124"/>
<rect x="35.128" y="17.302" class="st2" width="13.841" height="13.843"/>
<line class="st1" x1="48.969" y1="17.302" x2="48.969" y2="31.145"/>
<line class="st1" x1="35.128" y1="31.145" x2="35.128" y2="17.302"/>
<g>
	<rect x="418.453" y="55.411" class="st3" width="83.046" height="34.599"/>
	<rect x="430.679" y="50.433" class="st2" width="57.678" height="10.681"/>
</g>
<line class="st1" x1="510.761" y1="166.094" x2="510.761" y2="228.977"/>
<line class="st1" x1="0.525" y1="204.518" x2="510.499" y2="204.518"/>
<line class="st1" x1="0.525" y1="166.094" x2="0.525" y2="228.977"/>
<g>
	<rect x="418.453" y="187.261" class="st3" width="83.046" height="34.604"/>
	<rect x="430.679" y="182.285" class="st2" width="57.678" height="10.681"/>
</g>
<line class="st4" x1="0.5" y1="100.276" x2="0.5" y2="166.604"/>
<line class="st4" x1="510.661" y1="100.303" x2="510.661" y2="166.628"/>
<g>
	<path d="M456,59.47h-4.238v-5.741h4.182v0.688h-3.406v1.759h3.143v0.688h-3.143v1.919H456V59.47z"/>
	<path d="M460.824,53.729h0.751v5.741h-0.871l-2.919-4.638h-0.016v4.638h-0.752v-5.741h0.92l2.87,4.637h0.017V53.729z"/>
	<path d="M462.833,53.729h2.327c1.495,0,2.414,1.135,2.414,2.791c0,1.287-0.56,2.95-2.446,2.95h-2.295V53.729z M463.608,58.807
		h1.504c1.007,0,1.663-0.792,1.663-2.239s-0.664-2.175-1.72-2.175h-1.447V58.807z"/>
</g>
<g>
	<path d="M453.111,191.551h-4.238v-5.741h4.182v0.688h-3.406v1.76h3.143v0.688h-3.143v1.919h3.463V191.551z"/>
	<path d="M457.935,185.81h0.751v5.741h-0.871l-2.919-4.638h-0.016v4.638h-0.752v-5.741h0.92l2.87,4.638h0.017V185.81z"/>
	<path d="M459.944,185.81h2.327c1.495,0,2.414,1.136,2.414,2.791c0,1.287-0.56,2.95-2.446,2.95h-2.295V185.81z M460.72,190.887
		h1.504c1.007,0,1.663-0.791,1.663-2.238s-0.664-2.175-1.72-2.175h-1.447V190.887z"/>
	<path d="M469.463,185.81h0.775v5.741h-0.775v-2.679h-2.998v2.679h-0.776v-5.741h0.776v2.375h2.998V185.81z"/>
</g>
<path class="st0" d="M475.897,24.219c0,3.824-3.099,6.924-6.924,6.924c-3.819,0-6.919-3.099-6.919-6.924
	c0-3.82,3.099-6.919,6.919-6.919C472.798,17.3,475.897,20.399,475.897,24.219z"/>
</svg>
