<?xml version="1.0" encoding="utf-8"?>
<!-- Generator: Adobe Illustrator 28.2.0, SVG Export Plug-In . SVG Version: 6.00 Build 0)  -->
<svg version="1.1" xmlns="http://www.w3.org/2000/svg" xmlns:xlink="http://www.w3.org/1999/xlink" x="0px" y="0px"
	 width="481.89px" height="78.598px" viewBox="0 0 481.89 78.598" style="enable-background:new 0 0 481.89 78.598;"
	 xml:space="preserve">
<style type="text/css">
	.st0{fill:#CCCCCC;stroke:#000000;stroke-width:0.8;}
	.st1{stroke:#000000;stroke-width:0.8;}
	.st2{fill:none;stroke:#000000;stroke-width:0.3;}
	.st3{fill:none;stroke:#000000;stroke-width:0.8;}
	.st4{fill:none;stroke:#000000;stroke-width:0.3;stroke-dasharray:0.5;}
	.st5{fill:none;stroke:#000000;}
	.st6{fill:#FFFFFF;stroke:#000000;}
	.st7{fill:#FFFFFF;}
</style>
<g id="レイヤー_1">
	<rect x="280.62" y="51.667" class="st0" width="63.405" height="17.782"/>
	<rect x="395.864" y="51.667" class="st0" width="40.228" height="17.782"/>
	<g>
		<polygon class="st1" points="280.62,22.598 283.161,28.817 280.62,27.341 278.08,28.817 		"/>
	</g>
	<g>
		<polygon class="st1" points="395.864,23.299 398.405,29.308 395.864,27.883 393.323,29.308 		"/>
	</g>
	<line class="st2" x1="246.083" y1="0" x2="246.083" y2="9.974"/>
	<line class="st2" x1="251.842" y1="0" x2="251.842" y2="9.974"/>
	<line class="st2" x1="257.6" y1="0" x2="257.6" y2="10.031"/>
	<line class="st2" x1="263.358" y1="0" x2="263.358" y2="10.015"/>
	<line class="st2" x1="269.115" y1="0" x2="269.115" y2="9.974"/>
	<line class="st2" x1="274.873" y1="0" x2="274.873" y2="9.974"/>
	<polyline class="st3" points="246.083,41.288 280.62,41.288 280.62,27.012 	"/>
	<line class="st2" x1="280.631" y1="0" x2="280.631" y2="10.446"/>
	<line class="st2" x1="286.389" y1="0" x2="286.389" y2="9.974"/>
	<line class="st2" x1="292.147" y1="0" x2="292.147" y2="9.974"/>
	<line class="st2" x1="297.905" y1="0" x2="297.905" y2="9.974"/>
	<line class="st2" x1="303.662" y1="0" x2="303.662" y2="9.974"/>
	<line class="st2" x1="309.42" y1="0" x2="309.42" y2="9.974"/>
	<line class="st2" x1="315.178" y1="0" x2="315.178" y2="9.974"/>
	<line class="st2" x1="320.936" y1="0" x2="320.936" y2="9.974"/>
	<line class="st2" x1="326.693" y1="0" x2="326.693" y2="9.974"/>
	<line class="st2" x1="332.453" y1="0" x2="332.453" y2="9.974"/>
	<line class="st2" x1="338.209" y1="0" x2="338.209" y2="9.974"/>
	<line class="st2" x1="343.967" y1="0" x2="343.967" y2="9.974"/>
	<line class="st2" x1="349.725" y1="0" x2="349.725" y2="9.974"/>
	<line class="st2" x1="355.482" y1="0" x2="355.482" y2="9.974"/>
	<line class="st2" x1="361.242" y1="0" x2="361.242" y2="9.974"/>
	<line class="st2" x1="366.998" y1="0" x2="366.998" y2="9.974"/>
	<line class="st2" x1="372.756" y1="0" x2="372.756" y2="9.974"/>
	<line class="st2" x1="378.515" y1="0" x2="378.515" y2="9.974"/>
	<line class="st2" x1="384.273" y1="0" x2="384.273" y2="9.974"/>
	<line class="st2" x1="395.864" y1="0" x2="395.864" y2="10.43"/>
	<line class="st4" x1="280.631" y1="11.246" x2="280.631" y2="78.598"/>
	<line class="st4" x1="395.864" y1="10.43" x2="395.864" y2="78.598"/>
	<line class="st2" x1="401.622" y1="0" x2="401.622" y2="10.319"/>
	<line class="st2" x1="407.305" y1="0" x2="407.305" y2="9.974"/>
	<line class="st2" x1="413.062" y1="0" x2="413.062" y2="9.974"/>
	<line class="st2" x1="418.82" y1="0" x2="418.82" y2="9.974"/>
	<line class="st2" x1="424.578" y1="0" x2="424.578" y2="9.974"/>
	<line class="st2" x1="430.336" y1="0" x2="430.336" y2="9.974"/>
	<line class="st2" x1="436.093" y1="0" x2="436.093" y2="9.974"/>
	<line class="st2" x1="441.852" y1="0" x2="441.852" y2="9.974"/>
	<line class="st2" x1="447.609" y1="0" x2="447.609" y2="9.974"/>
	<line class="st2" x1="453.367" y1="0" x2="453.367" y2="23.063"/>
	<line class="st2" x1="459.125" y1="0" x2="459.125" y2="23.063"/>
	<line class="st2" x1="464.883" y1="0" x2="464.883" y2="9.974"/>
	<line class="st2" x1="470.64" y1="0" x2="470.64" y2="9.974"/>
	<line class="st2" x1="476.133" y1="0" x2="476.133" y2="9.974"/>
	<line class="st2" x1="481.89" y1="0" x2="481.89" y2="9.974"/>
	<polyline class="st3" points="280.62,21.586 344.28,21.586 344.28,41.288 395.864,41.288 395.864,41.274 395.864,27.564 	"/>
	<line class="st3" x1="246.083" y1="51.667" x2="280.62" y2="51.667"/>
	<line class="st3" x1="246.083" y1="69.449" x2="280.62" y2="69.449"/>
	<line class="st3" x1="344.025" y1="51.667" x2="395.864" y2="51.667"/>
	<line class="st3" x1="344.025" y1="69.449" x2="395.864" y2="69.449"/>
	<line class="st3" x1="436.093" y1="51.667" x2="481.89" y2="51.667"/>
	<line class="st3" x1="436.093" y1="69.449" x2="481.89" y2="69.449"/>
	<g>
		<line class="st3" x1="442.817" y1="22.845" x2="449.965" y2="22.845"/>
		<polygon class="st1" points="452.172,22.845 449.061,24.115 449.8,22.845 449.061,21.575 		"/>
	</g>
	<g>
		<line class="st3" x1="469.866" y1="22.834" x2="462.621" y2="22.834"/>
		<polygon class="st1" points="460.414,22.834 463.524,21.564 462.786,22.834 463.524,24.105 		"/>
	</g>
	<polyline class="st3" points="481.89,41.288 436.091,41.288 436.091,22.293 395.656,22.293 	"/>
	<line class="st2" x1="390.523" y1="0" x2="390.523" y2="9.974"/>
	<line class="st5" x1="0.5" y1="0" x2="0.5" y2="35.192"/>
	<line class="st5" x1="135.266" y1="0" x2="135.266" y2="35.19"/>
	<line class="st5" x1="0.578" y1="17.717" x2="135.224" y2="17.717"/>
	<rect x="68.931" y="8.887" class="st6" width="56.693" height="17.717"/>
	<g>
		<rect x="17.551" y="14.173" class="st7" width="6.606" height="7.087"/>
		<line class="st5" x1="24.157" y1="14.173" x2="24.157" y2="21.26"/>
		<line class="st5" x1="17.551" y1="21.26" x2="17.551" y2="14.173"/>
	</g>
</g>
<g id="レイヤー_2">
	<g>
		<path d="M232.521,25.037c-1.607,0-2.099-1.337-2.099-2.267s0.492-2.267,2.099-2.267c1.607,0,2.099,1.337,2.099,2.267
			S234.128,25.037,232.521,25.037z M232.521,21.019c-0.935,0-1.499,0.737-1.499,1.751s0.564,1.751,1.499,1.751
			c0.936,0,1.5-0.737,1.5-1.751S233.457,21.019,232.521,21.019z"/>
		<path d="M238.166,20.618h0.564v4.306h-0.654l-2.189-3.478h-0.012v3.478h-0.564v-4.306h0.69l2.153,3.478h0.012V20.618z"/>
	</g>
	<g>
		<path d="M232.521,44.204c-1.607,0-2.099-1.337-2.099-2.267s0.492-2.267,2.099-2.267c1.607,0,2.099,1.337,2.099,2.267
			S234.128,44.204,232.521,44.204z M232.521,40.187c-0.935,0-1.499,0.738-1.499,1.751c0,1.014,0.564,1.751,1.499,1.751
			c0.936,0,1.5-0.737,1.5-1.751C234.02,40.925,233.457,40.187,232.521,40.187z"/>
		<path d="M235.954,44.091h-0.582v-4.306h2.98v0.516h-2.399v1.319h2.111v0.516h-2.111V44.091z"/>
		<path d="M239.62,44.091h-0.582v-4.306h2.98v0.516h-2.399v1.319h2.111v0.516h-2.111V44.091z"/>
	</g>
	<g>
		<path d="M184.768,6.355c-0.04-0.887-0.775-1.167-1.423-1.167c-0.488,0-1.311,0.136-1.311,1.007c0,0.488,0.344,0.647,0.68,0.728
			l1.639,0.376c0.744,0.176,1.304,0.624,1.304,1.535c0,1.359-1.264,1.735-2.247,1.735c-1.063,0-1.479-0.32-1.735-0.552
			c-0.488-0.439-0.584-0.919-0.584-1.455h0.728c0,1.04,0.847,1.343,1.583,1.343c0.56,0,1.503-0.144,1.503-0.967
			c0-0.6-0.28-0.792-1.223-1.016l-1.175-0.272c-0.376-0.088-1.224-0.352-1.224-1.351c0-0.896,0.584-1.775,1.975-1.775
			c2.007,0,2.207,1.199,2.239,1.831H184.768z"/>
		<path d="M189.168,7.643c-0.088-0.56-0.4-0.896-0.991-0.896c-0.872,0-1.151,0.832-1.151,1.575c0,0.719,0.176,1.607,1.143,1.607
			c0.472,0,0.879-0.352,1-0.991h0.68c-0.072,0.664-0.48,1.599-1.703,1.599c-1.175,0-1.871-0.888-1.871-2.095
			c0-1.295,0.624-2.327,2.007-2.327c1.096,0,1.511,0.8,1.567,1.527H189.168z"/>
		<path d="M190.529,7.507c0.032-0.999,0.696-1.391,1.727-1.391c0.336,0,1.551,0.096,1.551,1.167V9.69
			c0,0.176,0.088,0.248,0.232,0.248c0.064,0,0.152-0.016,0.232-0.032v0.512c-0.12,0.032-0.224,0.08-0.384,0.08
			c-0.624,0-0.72-0.32-0.744-0.64c-0.272,0.296-0.696,0.68-1.511,0.68c-0.768,0-1.312-0.488-1.312-1.208
			c0-0.352,0.104-1.167,1.271-1.312l1.159-0.144c0.168-0.016,0.368-0.08,0.368-0.496c0-0.439-0.32-0.679-0.983-0.679
			c-0.8,0-0.912,0.488-0.959,0.807H190.529z M193.104,8.283c-0.112,0.088-0.288,0.152-1.159,0.264
			c-0.344,0.048-0.896,0.152-0.896,0.68c0,0.456,0.232,0.728,0.759,0.728c0.656,0,1.295-0.424,1.295-0.983V8.283z"/>
		<path d="M198.407,10.417h-0.704V7.843c0-0.728-0.208-1.095-0.896-1.095c-0.4,0-1.104,0.256-1.104,1.391v2.279h-0.704V6.236h0.664
			v0.592h0.016c0.152-0.224,0.544-0.712,1.264-0.712c0.647,0,1.463,0.264,1.463,1.456V10.417z"/>
	</g>
	<g>
		<path d="M447.061,33.552h-0.751v-3.99h-1.312v-0.56c0.911-0.064,1.287-0.152,1.511-1.072h0.552V33.552z"/>
		<path d="M454.932,29.491c-0.039-0.888-0.775-1.167-1.423-1.167c-0.487,0-1.312,0.136-1.312,1.007c0,0.488,0.344,0.647,0.68,0.728
			l1.64,0.376c0.743,0.176,1.303,0.624,1.303,1.535c0,1.359-1.263,1.735-2.246,1.735c-1.063,0-1.479-0.32-1.735-0.552
			c-0.488-0.439-0.584-0.919-0.584-1.455h0.728c0,1.04,0.848,1.343,1.583,1.343c0.561,0,1.504-0.144,1.504-0.967
			c0-0.6-0.28-0.792-1.224-1.016l-1.176-0.272c-0.375-0.088-1.223-0.352-1.223-1.351c0-0.896,0.583-1.775,1.975-1.775
			c2.007,0,2.207,1.199,2.239,1.831H454.932z"/>
		<path d="M459.332,30.778c-0.088-0.56-0.399-0.896-0.991-0.896c-0.871,0-1.151,0.832-1.151,1.575c0,0.72,0.176,1.607,1.144,1.607
			c0.472,0,0.88-0.352,0.999-0.991h0.68c-0.071,0.664-0.479,1.599-1.703,1.599c-1.175,0-1.87-0.888-1.87-2.095
			c0-1.295,0.623-2.327,2.007-2.327c1.095,0,1.511,0.8,1.566,1.527H459.332z"/>
		<path d="M460.695,30.642c0.031-1,0.695-1.392,1.727-1.392c0.336,0,1.552,0.096,1.552,1.167v2.407c0,0.176,0.088,0.248,0.231,0.248
			c0.063,0,0.151-0.016,0.231-0.032v0.512c-0.119,0.032-0.224,0.08-0.384,0.08c-0.623,0-0.72-0.32-0.743-0.64
			c-0.271,0.296-0.695,0.68-1.512,0.68c-0.768,0-1.311-0.488-1.311-1.208c0-0.352,0.104-1.167,1.271-1.311l1.159-0.144
			c0.168-0.016,0.367-0.08,0.367-0.496c0-0.44-0.319-0.68-0.983-0.68c-0.799,0-0.911,0.487-0.959,0.808H460.695z M463.269,31.417
			c-0.112,0.088-0.288,0.152-1.159,0.264c-0.344,0.048-0.896,0.152-0.896,0.68c0,0.456,0.231,0.728,0.76,0.728
			c0.655,0,1.295-0.424,1.295-0.983V31.417z"/>
		<path d="M468.573,33.552h-0.703v-2.575c0-0.728-0.208-1.095-0.896-1.095c-0.4,0-1.104,0.256-1.104,1.391v2.279h-0.704V29.37h0.664
			v0.592h0.016c0.152-0.224,0.544-0.712,1.264-0.712c0.647,0,1.463,0.264,1.463,1.455V33.552z"/>
	</g>
	<g>
		<path d="M180.394,31.385h4.662v0.688h-1.943v5.053h-0.776v-5.053h-1.943V31.385z"/>
		<path d="M186.489,37.125h-0.704v-4.182h0.664v0.696h0.016c0.28-0.488,0.647-0.816,1.175-0.816c0.088,0,0.128,0.008,0.184,0.024
			v0.728h-0.264c-0.656,0-1.071,0.512-1.071,1.12V37.125z"/>
		<path d="M188.369,32.184v-0.799h0.704v0.799H188.369z M189.073,37.125h-0.704v-4.182h0.704V37.125z"/>
		<path d="M193.599,36.782c0,0.6-0.008,2.103-1.943,2.103c-0.496,0-1.463-0.136-1.599-1.248h0.704
			c0.128,0.664,0.775,0.664,0.943,0.664c1.215,0,1.191-0.976,1.191-1.471v-0.176h-0.016v0.032c-0.184,0.296-0.551,0.56-1.111,0.56
			c-1.423,0-1.839-1.335-1.839-2.335c0-1.175,0.632-2.087,1.743-2.087c0.759,0,1.079,0.472,1.247,0.712h0.016v-0.592h0.664V36.782z
			 M191.784,36.638c0.448,0,1.144-0.296,1.144-1.407c0-0.68-0.112-1.775-1.127-1.775c-1.087,0-1.144,1.031-1.144,1.567
			C190.657,35.942,191.017,36.638,191.784,36.638z"/>
		<path d="M198.047,36.782c0,0.6-0.008,2.103-1.943,2.103c-0.496,0-1.463-0.136-1.599-1.248h0.704
			c0.128,0.664,0.775,0.664,0.943,0.664c1.215,0,1.191-0.976,1.191-1.471v-0.176h-0.016v0.032c-0.184,0.296-0.551,0.56-1.111,0.56
			c-1.423,0-1.839-1.335-1.839-2.335c0-1.175,0.632-2.087,1.743-2.087c0.759,0,1.079,0.472,1.247,0.712h0.016v-0.592h0.664V36.782z
			 M196.232,36.638c0.448,0,1.144-0.296,1.144-1.407c0-0.68-0.112-1.775-1.127-1.775c-1.087,0-1.144,1.031-1.144,1.567
			C195.105,35.942,195.465,36.638,196.232,36.638z"/>
		<path d="M202.575,35.814c-0.024,0.2-0.216,0.792-0.744,1.143c-0.192,0.128-0.464,0.288-1.135,0.288
			c-1.175,0-1.871-0.888-1.871-2.095c0-1.295,0.624-2.327,2.007-2.327c1.208,0,1.799,0.959,1.799,2.439h-3.054
			c0,0.871,0.408,1.375,1.215,1.375c0.664,0,1.056-0.512,1.08-0.823H202.575z M201.903,34.703c-0.04-0.647-0.312-1.247-1.167-1.247
			c-0.648,0-1.16,0.6-1.16,1.247H201.903z"/>
		<path d="M204.273,37.125h-0.704v-4.182h0.664v0.696h0.016c0.28-0.488,0.647-0.816,1.175-0.816c0.088,0,0.128,0.008,0.184,0.024
			v0.728h-0.264c-0.656,0-1.071,0.512-1.071,1.12V37.125z"/>
	</g>
	<g>
		<path d="M304.721,59.594c0.297,0.042,0.591,0.062,0.883,0.062h0.281v-1.133c0-0.161-0.011-0.325-0.031-0.492
			c0.198,0.021,0.417,0.031,0.656,0.031c-0.067,0.151-0.102,0.328-0.102,0.531v1.062h0.031c0.297,0,0.591-0.021,0.883-0.062
			c-0.021,0.104-0.031,0.206-0.031,0.305c0,0.109,0.011,0.214,0.031,0.312c-0.292-0.042-0.586-0.062-0.883-0.062h-0.031v1.719
			c0.323-0.136,0.628-0.281,0.914-0.438c-0.021,0.302-0.031,0.513-0.031,0.633c-0.328,0.109-0.622,0.216-0.883,0.32v2.367
			c0,0.255-0.104,0.425-0.312,0.508c-0.208,0.078-0.508,0.117-0.898,0.117c-0.058-0.25-0.161-0.458-0.312-0.625h0.438
			c0.375,0,0.562-0.097,0.562-0.289v-1.859c-0.526,0.219-0.894,0.401-1.102,0.547c-0.011-0.198-0.07-0.427-0.18-0.688
			c0.448-0.104,0.875-0.231,1.281-0.383v-1.93h-0.281c-0.292,0-0.586,0.021-0.883,0.062c0.021-0.099,0.031-0.203,0.031-0.312
			C304.752,59.8,304.742,59.698,304.721,59.594z M308.573,58.031c0.177,0.037,0.406,0.055,0.688,0.055
			c-0.089,0.312-0.133,0.675-0.133,1.086v0.453h0.789c0.297,0,0.597-0.023,0.898-0.07c-0.042,0.198-0.062,0.396-0.062,0.594
			c0,1.953,0.058,3.141,0.172,3.562c0.125,0.542,0.227,0.812,0.305,0.812c0.036-0.094,0.086-0.438,0.148-1.031
			c0.172,0.219,0.372,0.378,0.602,0.477c-0.219,0.917-0.409,1.375-0.57,1.375c-0.183-0.016-0.375-0.161-0.578-0.438
			c-0.203-0.297-0.359-0.714-0.469-1.25c-0.109-0.636-0.164-1.805-0.164-3.508h-1.07v0.164c0,0.859-0.039,1.575-0.117,2.148
			c0.25,0.188,0.508,0.378,0.773,0.57c-0.192,0.183-0.328,0.356-0.406,0.523c-0.167-0.161-0.325-0.312-0.477-0.453
			c-0.062,0.229-0.128,0.425-0.195,0.586c-0.292,0.641-0.794,1.214-1.508,1.719c-0.13-0.192-0.3-0.339-0.508-0.438
			c0.812-0.516,1.344-1.058,1.594-1.625c0.067-0.167,0.125-0.37,0.172-0.609c-0.328-0.266-0.656-0.5-0.984-0.703
			c0.161-0.136,0.3-0.281,0.414-0.438c0.214,0.167,0.438,0.339,0.672,0.516c0.052-0.5,0.078-1.099,0.078-1.797v-0.164h-0.289
			c-0.266,0-0.534,0.021-0.805,0.062c0.021-0.109,0.031-0.224,0.031-0.344c0-0.099-0.011-0.203-0.031-0.312
			c0.271,0.047,0.539,0.07,0.805,0.07h0.289v-0.164C308.635,59.039,308.615,58.562,308.573,58.031z"/>
		<path d="M314.409,58.117c0.198,0.104,0.438,0.19,0.719,0.258c-0.109,0.067-0.231,0.192-0.367,0.375
			c-0.453,0.641-1.008,1.231-1.664,1.773c-0.13-0.156-0.315-0.292-0.555-0.406c0.516-0.312,0.917-0.644,1.203-0.992
			C314.083,58.739,314.304,58.404,314.409,58.117z M314.815,59.75c0.224,0.141,0.466,0.234,0.727,0.281
			c-0.172,0.099-0.356,0.308-0.555,0.625c-0.13,0.239-0.278,0.469-0.445,0.688v2.937c0,0.391,0.021,0.784,0.062,1.18
			c-0.13-0.021-0.255-0.031-0.375-0.031c-0.13,0-0.255,0.011-0.375,0.031c0.042-0.396,0.062-0.789,0.062-1.18v-2.219
			c-0.276,0.281-0.589,0.56-0.938,0.836c-0.094-0.229-0.208-0.414-0.344-0.555c0.583-0.37,1.047-0.761,1.391-1.172
			C314.38,60.766,314.643,60.292,314.815,59.75z M315.604,60.625c0.339,0.042,0.683,0.062,1.031,0.062h2.344
			c0.344,0,0.685-0.021,1.023-0.062c-0.016,0.12-0.023,0.245-0.023,0.375c0,0.109,0.008,0.224,0.023,0.344
			c-0.339-0.042-0.68-0.062-1.023-0.062h-0.539V65c0,0.172-0.097,0.297-0.289,0.375c-0.177,0.078-0.539,0.117-1.086,0.117
			c-0.011-0.266-0.094-0.505-0.25-0.719c0.328,0.042,0.581,0.062,0.758,0.062c0.156,0,0.237-0.06,0.242-0.18v-3.375h-1.18
			c-0.349,0-0.692,0.021-1.031,0.062c0.021-0.12,0.031-0.234,0.031-0.344C315.635,60.87,315.624,60.745,315.604,60.625z
			 M316.065,58.492c0.349,0.042,0.692,0.062,1.031,0.062h1.312c0.349,0,0.692-0.021,1.031-0.062
			c-0.021,0.13-0.031,0.255-0.031,0.375s0.011,0.234,0.031,0.344c-0.339-0.042-0.683-0.062-1.031-0.062h-1.312
			c-0.339,0-0.683,0.021-1.031,0.062c0.021-0.109,0.031-0.224,0.031-0.344S316.085,58.622,316.065,58.492z"/>
	</g>
	<g>
		<path d="M252.703,58.625c0.297,0.042,0.599,0.062,0.906,0.062h3.687c0.297,0,0.596-0.021,0.898-0.062
			c-0.021,0.109-0.031,0.224-0.031,0.344c0,0.099,0.01,0.203,0.031,0.312c-0.302-0.047-0.602-0.07-0.898-0.07h-1.828
			c-0.011,0.714-0.058,1.339-0.141,1.875h2.687c0.297,0,0.599-0.019,0.906-0.055c-0.026,0.109-0.039,0.224-0.039,0.344
			c0,0.099,0.013,0.203,0.039,0.312c-0.308-0.042-0.609-0.062-0.906-0.062h-1.656v2.781c0,0.114,0.016,0.192,0.047,0.234
			c0.026,0.052,0.104,0.078,0.234,0.078h0.867c0.266,0,0.44-0.042,0.523-0.125c0.094-0.114,0.182-0.427,0.266-0.937
			c0.161,0.146,0.37,0.261,0.625,0.344c-0.13,0.5-0.255,0.823-0.375,0.969c-0.151,0.208-0.443,0.312-0.875,0.312h-1.281
			c-0.255,0-0.425-0.062-0.508-0.188c-0.083-0.104-0.125-0.284-0.125-0.539v-2.93h-0.523c-0.026,0.099-0.05,0.192-0.07,0.281
			c-0.255,0.958-0.656,1.719-1.203,2.281c-0.464,0.489-1.029,0.886-1.695,1.188c-0.172-0.255-0.352-0.445-0.539-0.57
			c0.583-0.183,1.106-0.456,1.57-0.82c0.5-0.422,0.87-0.925,1.109-1.508c0.114-0.255,0.206-0.539,0.273-0.852h-1.758
			c-0.308,0-0.609,0.021-0.906,0.062c0.021-0.109,0.031-0.214,0.031-0.312c0-0.12-0.011-0.234-0.031-0.344
			c0.297,0.036,0.599,0.055,0.906,0.055h1.859c0.021-0.099,0.036-0.198,0.047-0.297c0.057-0.495,0.088-1.021,0.094-1.578h-1.312
			c-0.308,0-0.609,0.023-0.906,0.07c0.016-0.109,0.023-0.214,0.023-0.312C252.727,58.849,252.719,58.734,252.703,58.625z"/>
		<path d="M261.578,57.937c0.255,0.104,0.505,0.175,0.75,0.211c-0.099,0.151-0.232,0.479-0.398,0.984
			c-0.052,0.161-0.099,0.315-0.141,0.461h1.258c0.234,0,0.471-0.023,0.711-0.07c-0.245,1.776-0.597,3.031-1.055,3.766
			c0.458,0.5,1.021,0.828,1.688,0.984c0.521,0.125,1.177,0.198,1.969,0.219c0.234,0,0.481-0.011,0.742-0.031
			c-0.188,0.266-0.302,0.526-0.344,0.781c-1.464-0.13-2.495-0.328-3.094-0.594c-0.505-0.208-0.933-0.516-1.281-0.922
			c-0.474,0.552-1.138,1.047-1.992,1.484c-0.146-0.188-0.336-0.362-0.57-0.523c0.911-0.25,1.638-0.745,2.18-1.484
			c-0.047-0.073-0.094-0.148-0.141-0.227c-0.271-0.567-0.472-1.222-0.602-1.961c-0.255,0.547-0.526,1.06-0.812,1.539
			c-0.156-0.125-0.365-0.229-0.625-0.312c0.385-0.505,0.724-1.106,1.016-1.805C261.106,59.833,261.354,59,261.578,57.937z
			 M261.594,60.18c0.094,1.005,0.331,1.854,0.711,2.547c0.37-0.698,0.617-1.578,0.742-2.641h-1.422
			C261.614,60.122,261.604,60.153,261.594,60.18z M264.414,58.031c0.203,0.021,0.442,0.031,0.719,0.031
			c-0.058,0.146-0.086,0.333-0.086,0.562v1.594c0.161-0.073,0.305-0.167,0.43-0.281c0.38,0.656,0.932,1.323,1.656,2
			c-0.214,0.114-0.422,0.278-0.625,0.492c-0.375-0.739-0.862-1.388-1.461-1.945v2.383c0,0.364,0.018,0.731,0.055,1.102
			c-0.109-0.021-0.224-0.031-0.344-0.031c-0.109,0-0.224,0.011-0.344,0.031c0.042-0.37,0.062-0.737,0.062-1.102v-3.898
			C264.477,58.651,264.456,58.339,264.414,58.031z"/>
		<path d="M267.789,58.625c0.297,0.042,0.591,0.062,0.883,0.062h0.836c0.297,0,0.591-0.021,0.883-0.062
			c-0.021,0.099-0.031,0.203-0.031,0.312c0,0.099,0.01,0.2,0.031,0.305c-0.292-0.042-0.586-0.062-0.883-0.062h-0.094v1.852
			c0.292,0,0.586-0.021,0.883-0.062c-0.021,0.099-0.031,0.203-0.031,0.312c0,0.099,0.01,0.203,0.031,0.312
			c-0.297-0.047-0.591-0.07-0.883-0.07v2.047c0.297-0.099,0.581-0.208,0.852-0.328c-0.021,0.292-0.031,0.489-0.031,0.594
			c-1.193,0.364-1.953,0.648-2.281,0.852c-0.011-0.192-0.076-0.411-0.195-0.656c0.385-0.083,0.75-0.175,1.094-0.273v-2.234h-0.062
			c-0.287,0-0.576,0.023-0.867,0.07c0.021-0.109,0.031-0.214,0.031-0.312c0-0.109-0.011-0.214-0.031-0.312
			c0.292,0.042,0.581,0.062,0.867,0.062h0.062V59.18h-0.18c-0.292,0-0.586,0.021-0.883,0.062c0.021-0.104,0.031-0.206,0.031-0.305
			C267.82,58.828,267.81,58.724,267.789,58.625z M270.727,58.43c0.323,0.021,0.648,0.031,0.977,0.031h1.805
			c0.328,0,0.65-0.011,0.969-0.031c-0.021,0.172-0.031,0.341-0.031,0.508v2.586c0,0.198,0.01,0.396,0.031,0.594
			c-0.318-0.021-0.641-0.031-0.969-0.031h-0.586v0.945h0.805c0.271,0,0.541-0.021,0.812-0.062c-0.021,0.099-0.031,0.203-0.031,0.312
			c0,0.089,0.01,0.18,0.031,0.273c-0.271-0.042-0.542-0.062-0.812-0.062h-0.805v1h1.242c0.297,0,0.591-0.021,0.883-0.062
			c-0.021,0.109-0.031,0.216-0.031,0.32c0,0.099,0.01,0.203,0.031,0.312C274.755,65.02,274.461,65,274.165,65h-3.313
			c-0.292,0-0.581,0.021-0.867,0.062c0.021-0.109,0.031-0.214,0.031-0.312c0-0.104-0.011-0.211-0.031-0.32
			c0.286,0.042,0.575,0.062,0.867,0.062h1.508v-1h-0.781c-0.276,0-0.55,0.021-0.82,0.062c0.021-0.094,0.031-0.185,0.031-0.273
			c0-0.109-0.011-0.214-0.031-0.312c0.271,0.042,0.544,0.062,0.82,0.062h0.781v-0.945h-0.656c-0.328,0-0.654,0.011-0.977,0.031
			c0.021-0.198,0.031-0.396,0.031-0.594v-2.586C270.737,58.77,270.727,58.601,270.727,58.43z M271.328,60.031h1.031v-1.094h-1.031
			V60.031z M272.359,61.625v-1.164h-1.031v1.164H272.359z M272.922,58.937v1.094h0.961v-1.094H272.922z M273.883,61.625v-1.164
			h-0.961v1.164H273.883z"/>
	</g>
	<g>
		<path d="M359.257,58.625c0.297,0.042,0.599,0.062,0.906,0.062h3.688c0.297,0,0.597-0.021,0.898-0.062
			c-0.021,0.109-0.031,0.224-0.031,0.344c0,0.099,0.011,0.203,0.031,0.312c-0.302-0.047-0.602-0.07-0.898-0.07h-1.828
			c-0.011,0.714-0.058,1.339-0.141,1.875h2.688c0.297,0,0.599-0.019,0.906-0.055c-0.026,0.109-0.039,0.224-0.039,0.344
			c0,0.099,0.013,0.203,0.039,0.312c-0.308-0.042-0.609-0.062-0.906-0.062h-1.656v2.781c0,0.114,0.016,0.192,0.047,0.234
			c0.026,0.052,0.104,0.078,0.234,0.078h0.867c0.266,0,0.44-0.042,0.523-0.125c0.094-0.114,0.183-0.427,0.266-0.937
			c0.161,0.146,0.37,0.261,0.625,0.344c-0.13,0.5-0.255,0.823-0.375,0.969c-0.151,0.208-0.442,0.312-0.875,0.312h-1.281
			c-0.255,0-0.425-0.062-0.508-0.188c-0.083-0.104-0.125-0.284-0.125-0.539v-2.93h-0.523c-0.026,0.099-0.05,0.192-0.07,0.281
			c-0.255,0.958-0.656,1.719-1.203,2.281c-0.464,0.489-1.028,0.886-1.695,1.188c-0.172-0.255-0.352-0.445-0.539-0.57
			c0.583-0.183,1.106-0.456,1.57-0.82c0.5-0.422,0.87-0.925,1.109-1.508c0.114-0.255,0.206-0.539,0.273-0.852h-1.758
			c-0.308,0-0.609,0.021-0.906,0.062c0.021-0.109,0.031-0.214,0.031-0.312c0-0.12-0.011-0.234-0.031-0.344
			c0.297,0.036,0.599,0.055,0.906,0.055h1.859c0.021-0.099,0.036-0.198,0.047-0.297c0.058-0.495,0.089-1.021,0.094-1.578h-1.312
			c-0.308,0-0.609,0.023-0.906,0.07c0.016-0.109,0.023-0.214,0.023-0.312C359.281,58.849,359.273,58.734,359.257,58.625z"/>
		<path d="M368.132,57.937c0.255,0.104,0.505,0.175,0.75,0.211c-0.099,0.151-0.231,0.479-0.398,0.984
			c-0.052,0.161-0.099,0.315-0.141,0.461h1.258c0.234,0,0.472-0.023,0.711-0.07c-0.245,1.776-0.597,3.031-1.055,3.766
			c0.458,0.5,1.021,0.828,1.688,0.984c0.521,0.125,1.177,0.198,1.969,0.219c0.234,0,0.481-0.011,0.742-0.031
			c-0.188,0.266-0.302,0.526-0.344,0.781c-1.464-0.13-2.495-0.328-3.094-0.594c-0.505-0.208-0.933-0.516-1.281-0.922
			c-0.474,0.552-1.138,1.047-1.992,1.484c-0.146-0.188-0.336-0.362-0.57-0.523c0.911-0.25,1.638-0.745,2.18-1.484
			c-0.047-0.073-0.094-0.148-0.141-0.227c-0.271-0.567-0.472-1.222-0.602-1.961c-0.255,0.547-0.526,1.06-0.812,1.539
			c-0.156-0.125-0.364-0.229-0.625-0.312c0.386-0.505,0.724-1.106,1.016-1.805C367.661,59.833,367.909,59,368.132,57.937z
			 M368.148,60.18c0.094,1.005,0.331,1.854,0.711,2.547c0.37-0.698,0.617-1.578,0.742-2.641h-1.422
			C368.168,60.122,368.159,60.153,368.148,60.18z M370.968,58.031c0.203,0.021,0.442,0.031,0.719,0.031
			c-0.058,0.146-0.086,0.333-0.086,0.562v1.594c0.161-0.073,0.305-0.167,0.43-0.281c0.38,0.656,0.933,1.323,1.656,2
			c-0.214,0.114-0.422,0.278-0.625,0.492c-0.375-0.739-0.862-1.388-1.461-1.945v2.383c0,0.364,0.019,0.731,0.055,1.102
			c-0.109-0.021-0.224-0.031-0.344-0.031c-0.109,0-0.224,0.011-0.344,0.031c0.042-0.37,0.062-0.737,0.062-1.102v-3.898
			C371.031,58.651,371.01,58.339,370.968,58.031z"/>
		<path d="M374.343,58.625c0.297,0.042,0.591,0.062,0.883,0.062h0.836c0.297,0,0.591-0.021,0.883-0.062
			c-0.021,0.099-0.031,0.203-0.031,0.312c0,0.099,0.011,0.2,0.031,0.305c-0.292-0.042-0.586-0.062-0.883-0.062h-0.094v1.852
			c0.292,0,0.586-0.021,0.883-0.062c-0.021,0.099-0.031,0.203-0.031,0.312c0,0.099,0.011,0.203,0.031,0.312
			c-0.297-0.047-0.591-0.07-0.883-0.07v2.047c0.297-0.099,0.581-0.208,0.852-0.328c-0.021,0.292-0.031,0.489-0.031,0.594
			c-1.192,0.364-1.953,0.648-2.281,0.852c-0.011-0.192-0.075-0.411-0.195-0.656c0.386-0.083,0.75-0.175,1.094-0.273v-2.234h-0.062
			c-0.286,0-0.575,0.023-0.867,0.07c0.021-0.109,0.031-0.214,0.031-0.312c0-0.109-0.011-0.214-0.031-0.312
			c0.292,0.042,0.581,0.062,0.867,0.062h0.062V59.18h-0.18c-0.292,0-0.586,0.021-0.883,0.062c0.021-0.104,0.031-0.206,0.031-0.305
			C374.374,58.828,374.364,58.724,374.343,58.625z M377.281,58.43c0.323,0.021,0.648,0.031,0.977,0.031h1.805
			c0.328,0,0.651-0.011,0.969-0.031c-0.021,0.172-0.031,0.341-0.031,0.508v2.586c0,0.198,0.011,0.396,0.031,0.594
			c-0.317-0.021-0.641-0.031-0.969-0.031h-0.586v0.945h0.805c0.271,0,0.542-0.021,0.812-0.062c-0.021,0.099-0.031,0.203-0.031,0.312
			c0,0.089,0.011,0.18,0.031,0.273c-0.271-0.042-0.542-0.062-0.812-0.062h-0.805v1h1.242c0.297,0,0.591-0.021,0.883-0.062
			c-0.021,0.109-0.031,0.216-0.031,0.32c0,0.099,0.011,0.203,0.031,0.312C381.309,65.02,381.015,65,380.718,65h-3.312
			c-0.292,0-0.581,0.021-0.867,0.062c0.021-0.109,0.031-0.214,0.031-0.312c0-0.104-0.011-0.211-0.031-0.32
			c0.286,0.042,0.575,0.062,0.867,0.062h1.508v-1h-0.781c-0.276,0-0.55,0.021-0.82,0.062c0.021-0.094,0.031-0.185,0.031-0.273
			c0-0.109-0.011-0.214-0.031-0.312c0.271,0.042,0.544,0.062,0.82,0.062h0.781v-0.945h-0.656c-0.328,0-0.653,0.011-0.977,0.031
			c0.021-0.198,0.031-0.396,0.031-0.594v-2.586C377.291,58.77,377.281,58.601,377.281,58.43z M377.882,60.031h1.031v-1.094h-1.031
			V60.031z M378.914,61.625v-1.164h-1.031v1.164H378.914z M379.476,58.937v1.094h0.961v-1.094H379.476z M380.437,61.625v-1.164
			h-0.961v1.164H380.437z"/>
	</g>
	<g>
		<path d="M448.304,58.625c0.297,0.042,0.599,0.062,0.906,0.062h3.688c0.297,0,0.597-0.021,0.898-0.062
			c-0.021,0.109-0.031,0.224-0.031,0.344c0,0.099,0.011,0.203,0.031,0.312c-0.302-0.047-0.602-0.07-0.898-0.07h-1.828
			c-0.011,0.714-0.058,1.339-0.141,1.875h2.688c0.297,0,0.599-0.019,0.906-0.055c-0.026,0.109-0.039,0.224-0.039,0.344
			c0,0.099,0.013,0.203,0.039,0.312c-0.308-0.042-0.609-0.062-0.906-0.062h-1.656v2.781c0,0.114,0.016,0.192,0.047,0.234
			c0.026,0.052,0.104,0.078,0.234,0.078h0.867c0.266,0,0.44-0.042,0.523-0.125c0.094-0.114,0.183-0.427,0.266-0.937
			c0.161,0.146,0.37,0.261,0.625,0.344c-0.13,0.5-0.255,0.823-0.375,0.969c-0.151,0.208-0.442,0.312-0.875,0.312h-1.281
			c-0.255,0-0.425-0.062-0.508-0.188c-0.083-0.104-0.125-0.284-0.125-0.539v-2.93h-0.523c-0.026,0.099-0.05,0.192-0.07,0.281
			c-0.255,0.958-0.656,1.719-1.203,2.281c-0.464,0.489-1.028,0.886-1.695,1.188c-0.172-0.255-0.352-0.445-0.539-0.57
			c0.583-0.183,1.106-0.456,1.57-0.82c0.5-0.422,0.87-0.925,1.109-1.508c0.114-0.255,0.206-0.539,0.273-0.852h-1.758
			c-0.308,0-0.609,0.021-0.906,0.062c0.021-0.109,0.031-0.214,0.031-0.312c0-0.12-0.011-0.234-0.031-0.344
			c0.297,0.036,0.599,0.055,0.906,0.055h1.859c0.021-0.099,0.036-0.198,0.047-0.297c0.058-0.495,0.089-1.021,0.094-1.578h-1.312
			c-0.308,0-0.609,0.023-0.906,0.07c0.016-0.109,0.023-0.214,0.023-0.312C448.328,58.849,448.32,58.734,448.304,58.625z"/>
		<path d="M457.179,57.937c0.255,0.104,0.505,0.175,0.75,0.211c-0.099,0.151-0.231,0.479-0.398,0.984
			c-0.052,0.161-0.099,0.315-0.141,0.461h1.258c0.234,0,0.472-0.023,0.711-0.07c-0.245,1.776-0.597,3.031-1.055,3.766
			c0.458,0.5,1.021,0.828,1.688,0.984c0.521,0.125,1.177,0.198,1.969,0.219c0.234,0,0.481-0.011,0.742-0.031
			c-0.188,0.266-0.302,0.526-0.344,0.781c-1.464-0.13-2.495-0.328-3.094-0.594c-0.505-0.208-0.933-0.516-1.281-0.922
			c-0.474,0.552-1.138,1.047-1.992,1.484c-0.146-0.188-0.336-0.362-0.57-0.523c0.911-0.25,1.638-0.745,2.18-1.484
			c-0.047-0.073-0.094-0.148-0.141-0.227c-0.271-0.567-0.472-1.222-0.602-1.961c-0.255,0.547-0.526,1.06-0.812,1.539
			c-0.156-0.125-0.364-0.229-0.625-0.312c0.386-0.505,0.724-1.106,1.016-1.805C456.707,59.833,456.956,59,457.179,57.937z
			 M457.195,60.18c0.094,1.005,0.331,1.854,0.711,2.547c0.37-0.698,0.617-1.578,0.742-2.641h-1.422
			C457.215,60.122,457.206,60.153,457.195,60.18z M460.015,58.031c0.203,0.021,0.442,0.031,0.719,0.031
			c-0.058,0.146-0.086,0.333-0.086,0.562v1.594c0.161-0.073,0.305-0.167,0.43-0.281c0.38,0.656,0.933,1.323,1.656,2
			c-0.214,0.114-0.422,0.278-0.625,0.492c-0.375-0.739-0.862-1.388-1.461-1.945v2.383c0,0.364,0.019,0.731,0.055,1.102
			c-0.109-0.021-0.224-0.031-0.344-0.031c-0.109,0-0.224,0.011-0.344,0.031c0.042-0.37,0.062-0.737,0.062-1.102v-3.898
			C460.078,58.651,460.057,58.339,460.015,58.031z"/>
		<path d="M463.39,58.625c0.297,0.042,0.591,0.062,0.883,0.062h0.836c0.297,0,0.591-0.021,0.883-0.062
			c-0.021,0.099-0.031,0.203-0.031,0.312c0,0.099,0.011,0.2,0.031,0.305c-0.292-0.042-0.586-0.062-0.883-0.062h-0.094v1.852
			c0.292,0,0.586-0.021,0.883-0.062c-0.021,0.099-0.031,0.203-0.031,0.312c0,0.099,0.011,0.203,0.031,0.312
			c-0.297-0.047-0.591-0.07-0.883-0.07v2.047c0.297-0.099,0.581-0.208,0.852-0.328c-0.021,0.292-0.031,0.489-0.031,0.594
			c-1.192,0.364-1.953,0.648-2.281,0.852c-0.011-0.192-0.075-0.411-0.195-0.656c0.386-0.083,0.75-0.175,1.094-0.273v-2.234h-0.062
			c-0.286,0-0.575,0.023-0.867,0.07c0.021-0.109,0.031-0.214,0.031-0.312c0-0.109-0.011-0.214-0.031-0.312
			c0.292,0.042,0.581,0.062,0.867,0.062h0.062V59.18h-0.18c-0.292,0-0.586,0.021-0.883,0.062c0.021-0.104,0.031-0.206,0.031-0.305
			C463.421,58.828,463.411,58.724,463.39,58.625z M466.328,58.43c0.323,0.021,0.648,0.031,0.977,0.031h1.805
			c0.328,0,0.651-0.011,0.969-0.031c-0.021,0.172-0.031,0.341-0.031,0.508v2.586c0,0.198,0.011,0.396,0.031,0.594
			c-0.317-0.021-0.641-0.031-0.969-0.031h-0.586v0.945h0.805c0.271,0,0.542-0.021,0.812-0.062c-0.021,0.099-0.031,0.203-0.031,0.312
			c0,0.089,0.011,0.18,0.031,0.273c-0.271-0.042-0.542-0.062-0.812-0.062h-0.805v1h1.242c0.297,0,0.591-0.021,0.883-0.062
			c-0.021,0.109-0.031,0.216-0.031,0.32c0,0.099,0.011,0.203,0.031,0.312C470.356,65.02,470.062,65,469.765,65h-3.312
			c-0.292,0-0.581,0.021-0.867,0.062c0.021-0.109,0.031-0.214,0.031-0.312c0-0.104-0.011-0.211-0.031-0.32
			c0.286,0.042,0.575,0.062,0.867,0.062h1.508v-1h-0.781c-0.276,0-0.55,0.021-0.82,0.062c0.021-0.094,0.031-0.185,0.031-0.273
			c0-0.109-0.011-0.214-0.031-0.312c0.271,0.042,0.544,0.062,0.82,0.062h0.781v-0.945h-0.656c-0.328,0-0.653,0.011-0.977,0.031
			c0.021-0.198,0.031-0.396,0.031-0.594v-2.586C466.338,58.77,466.328,58.601,466.328,58.43z M466.929,60.031h1.031v-1.094h-1.031
			V60.031z M467.96,61.625v-1.164h-1.031v1.164H467.96z M468.523,58.937v1.094h0.961v-1.094H468.523z M469.484,61.625v-1.164h-0.961
			v1.164H469.484z"/>
	</g>
	<g>
		<path d="M408.377,59.177c0.297,0.042,0.591,0.062,0.883,0.062h0.281v-1.133c0-0.161-0.011-0.325-0.031-0.492
			c0.198,0.021,0.417,0.031,0.656,0.031c-0.067,0.151-0.102,0.328-0.102,0.531v1.062h0.031c0.297,0,0.591-0.021,0.883-0.062
			c-0.021,0.104-0.031,0.206-0.031,0.305c0,0.109,0.011,0.214,0.031,0.312c-0.292-0.042-0.586-0.062-0.883-0.062h-0.031v1.719
			c0.323-0.136,0.628-0.281,0.914-0.438c-0.021,0.302-0.031,0.513-0.031,0.633c-0.328,0.109-0.622,0.216-0.883,0.32v2.367
			c0,0.255-0.104,0.425-0.312,0.508c-0.208,0.078-0.508,0.117-0.898,0.117c-0.058-0.25-0.161-0.458-0.312-0.625h0.438
			c0.375,0,0.562-0.097,0.562-0.289v-1.859c-0.526,0.219-0.894,0.401-1.102,0.547c-0.011-0.198-0.07-0.427-0.18-0.688
			c0.448-0.104,0.875-0.231,1.281-0.383v-1.93h-0.281c-0.292,0-0.586,0.021-0.883,0.062c0.021-0.099,0.031-0.203,0.031-0.312
			C408.409,59.383,408.398,59.281,408.377,59.177z M412.229,57.614c0.177,0.037,0.406,0.055,0.688,0.055
			c-0.089,0.312-0.133,0.675-0.133,1.086v0.453h0.789c0.297,0,0.597-0.023,0.898-0.07c-0.042,0.198-0.062,0.396-0.062,0.594
			c0,1.953,0.058,3.141,0.172,3.562c0.125,0.542,0.227,0.812,0.305,0.812c0.036-0.094,0.086-0.437,0.148-1.031
			c0.172,0.219,0.372,0.378,0.602,0.477c-0.219,0.917-0.409,1.375-0.57,1.375c-0.183-0.016-0.375-0.161-0.578-0.438
			c-0.203-0.297-0.359-0.714-0.469-1.25c-0.109-0.636-0.164-1.805-0.164-3.508h-1.07v0.164c0,0.859-0.039,1.575-0.117,2.148
			c0.25,0.188,0.508,0.378,0.773,0.57c-0.192,0.183-0.328,0.356-0.406,0.523c-0.167-0.161-0.325-0.312-0.477-0.453
			c-0.062,0.229-0.128,0.425-0.195,0.586c-0.292,0.641-0.794,1.214-1.508,1.719c-0.13-0.192-0.3-0.339-0.508-0.438
			c0.812-0.516,1.344-1.058,1.594-1.625c0.067-0.167,0.125-0.37,0.172-0.609c-0.328-0.266-0.656-0.5-0.984-0.703
			c0.161-0.136,0.3-0.281,0.414-0.438c0.214,0.167,0.438,0.339,0.672,0.516c0.052-0.5,0.078-1.099,0.078-1.797v-0.164h-0.289
			c-0.266,0-0.534,0.021-0.805,0.062c0.021-0.109,0.031-0.224,0.031-0.344c0-0.099-0.011-0.203-0.031-0.312
			c0.271,0.047,0.539,0.07,0.805,0.07h0.289v-0.164C412.291,58.622,412.271,58.145,412.229,57.614z"/>
		<path d="M418.065,57.7c0.198,0.104,0.438,0.19,0.719,0.258c-0.109,0.068-0.231,0.193-0.367,0.375
			c-0.453,0.641-1.008,1.231-1.664,1.773c-0.13-0.156-0.315-0.292-0.555-0.406c0.516-0.312,0.917-0.643,1.203-0.992
			C417.74,58.323,417.96,57.987,418.065,57.7z M418.471,59.333c0.224,0.141,0.466,0.234,0.727,0.281
			c-0.172,0.099-0.356,0.308-0.555,0.625c-0.13,0.239-0.278,0.469-0.445,0.688v2.938c0,0.391,0.021,0.784,0.062,1.18
			c-0.13-0.021-0.255-0.031-0.375-0.031c-0.13,0-0.255,0.011-0.375,0.031c0.042-0.396,0.062-0.789,0.062-1.18v-2.219
			c-0.276,0.281-0.589,0.56-0.938,0.836c-0.094-0.229-0.208-0.414-0.344-0.555c0.583-0.37,1.047-0.761,1.391-1.172
			C418.037,60.349,418.299,59.875,418.471,59.333z M419.26,60.208c0.339,0.042,0.683,0.062,1.031,0.062h2.344
			c0.344,0,0.685-0.021,1.023-0.062c-0.016,0.12-0.023,0.245-0.023,0.375c0,0.109,0.008,0.224,0.023,0.344
			c-0.339-0.042-0.68-0.062-1.023-0.062h-0.539v3.719c0,0.172-0.097,0.297-0.289,0.375c-0.177,0.078-0.539,0.117-1.086,0.117
			c-0.011-0.266-0.094-0.505-0.25-0.719c0.328,0.042,0.581,0.062,0.758,0.062c0.156,0,0.237-0.06,0.242-0.18v-3.375h-1.18
			c-0.349,0-0.692,0.021-1.031,0.062c0.021-0.12,0.031-0.234,0.031-0.344C419.291,60.453,419.281,60.328,419.26,60.208z
			 M419.721,58.075c0.349,0.042,0.692,0.062,1.031,0.062h1.312c0.349,0,0.692-0.021,1.031-0.062
			c-0.021,0.13-0.031,0.255-0.031,0.375c0,0.12,0.011,0.234,0.031,0.344c-0.339-0.041-0.683-0.062-1.031-0.062h-1.312
			c-0.339,0-0.683,0.021-1.031,0.062c0.021-0.109,0.031-0.224,0.031-0.344C419.752,58.33,419.742,58.205,419.721,58.075z"/>
	</g>
	<g>
		<path d="M184.919,59.361c-0.216-1.008-1.055-1.191-1.607-1.191c-1.04,0-1.879,0.768-1.879,2.278c0,1.352,0.48,2.391,1.903,2.391
			c0.504,0,1.375-0.239,1.639-1.574h0.751c-0.32,2.166-2.079,2.263-2.51,2.263c-1.303,0-2.583-0.848-2.583-3.055
			c0-1.767,1.007-2.99,2.678-2.99c1.479,0,2.247,0.919,2.359,1.879H184.919z"/>
		<path d="M188.28,59.073c1.335,0,1.943,1.128,1.943,2.207s-0.607,2.207-1.943,2.207c-1.335,0-1.943-1.128-1.943-2.207
			S186.945,59.073,188.28,59.073z M188.28,62.879c1.008,0,1.215-1.039,1.215-1.599s-0.208-1.6-1.215-1.6
			c-1.007,0-1.215,1.04-1.215,1.6S187.273,62.879,188.28,62.879z"/>
		<path d="M191.025,59.193h0.664v0.592h0.016c0.152-0.224,0.512-0.712,1.264-0.712c0.751,0,0.991,0.456,1.111,0.68
			c0.352-0.392,0.631-0.68,1.279-0.68c0.448,0,1.295,0.232,1.295,1.407v2.895h-0.704v-2.702c0-0.576-0.176-0.968-0.775-0.968
			c-0.592,0-0.983,0.56-0.983,1.119v2.551h-0.704V60.48c0-0.352-0.136-0.775-0.656-0.775c-0.4,0-1.104,0.256-1.104,1.392v2.278
			h-0.704V59.193z"/>
		<path d="M197.689,59.193h0.664v0.592h0.016c0.152-0.224,0.512-0.712,1.263-0.712c0.752,0,0.992,0.456,1.112,0.68
			c0.352-0.392,0.631-0.68,1.279-0.68c0.448,0,1.295,0.232,1.295,1.407v2.895h-0.704v-2.702c0-0.576-0.176-0.968-0.775-0.968
			c-0.592,0-0.983,0.56-0.983,1.119v2.551h-0.704V60.48c0-0.352-0.136-0.775-0.656-0.775c-0.4,0-1.104,0.256-1.104,1.392v2.278
			h-0.704V59.193z"/>
		<path d="M204.329,60.465c0.032-1,0.696-1.392,1.727-1.392c0.336,0,1.551,0.096,1.551,1.168v2.406c0,0.176,0.088,0.248,0.232,0.248
			c0.064,0,0.152-0.017,0.232-0.032v0.512c-0.12,0.032-0.224,0.08-0.384,0.08c-0.624,0-0.72-0.32-0.744-0.64
			c-0.272,0.296-0.696,0.68-1.511,0.68c-0.768,0-1.312-0.488-1.312-1.207c0-0.353,0.104-1.168,1.271-1.312l1.159-0.145
			c0.168-0.016,0.368-0.079,0.368-0.495c0-0.44-0.32-0.68-0.983-0.68c-0.8,0-0.912,0.487-0.959,0.808H204.329z M206.904,61.24
			c-0.112,0.088-0.288,0.151-1.159,0.264c-0.344,0.048-0.896,0.152-0.896,0.68c0,0.456,0.232,0.728,0.759,0.728
			c0.656,0,1.295-0.424,1.295-0.983V61.24z"/>
		<path d="M212.207,63.375h-0.704v-2.574c0-0.728-0.208-1.096-0.896-1.096c-0.4,0-1.104,0.256-1.104,1.392v2.278h-0.704v-4.182
			h0.664v0.592h0.016c0.152-0.224,0.544-0.712,1.264-0.712c0.647,0,1.463,0.264,1.463,1.455V63.375z"/>
		<path d="M216.719,63.375h-0.664V62.8h-0.016c-0.304,0.567-0.784,0.695-1.191,0.695c-1.423,0-1.839-1.336-1.839-2.335
			c0-1.175,0.632-2.087,1.743-2.087c0.759,0,1.08,0.472,1.247,0.712l0.016-0.056v-2.095h0.704V63.375z M214.864,62.888
			c0.448,0,1.144-0.296,1.144-1.407c0-0.68-0.112-1.775-1.127-1.775c-1.087,0-1.144,1.031-1.144,1.567
			C213.737,62.191,214.097,62.888,214.864,62.888z"/>
	</g>
	<g>
		<path d="M83.467,16.722c-0.216-1.007-1.055-1.191-1.607-1.191c-1.04,0-1.879,0.768-1.879,2.279c0,1.351,0.48,2.391,1.903,2.391
			c0.504,0,1.375-0.24,1.639-1.575h0.751c-0.32,2.167-2.079,2.263-2.51,2.263c-1.303,0-2.583-0.848-2.583-3.054
			c0-1.767,1.007-2.99,2.678-2.99c1.479,0,2.247,0.919,2.359,1.879H83.467z"/>
		<path d="M86.829,16.434c1.335,0,1.943,1.127,1.943,2.207c0,1.079-0.607,2.207-1.943,2.207c-1.335,0-1.943-1.127-1.943-2.207
			C84.886,17.561,85.494,16.434,86.829,16.434z M86.829,20.24c1.008,0,1.215-1.04,1.215-1.599c0-0.56-0.208-1.599-1.215-1.599
			c-1.007,0-1.215,1.039-1.215,1.599C85.613,19.201,85.821,20.24,86.829,20.24z"/>
		<path d="M89.574,16.554h0.664v0.592h0.016c0.152-0.224,0.512-0.712,1.264-0.712c0.751,0,0.991,0.456,1.111,0.68
			c0.352-0.392,0.631-0.68,1.279-0.68c0.448,0,1.295,0.232,1.295,1.407v2.895h-0.704v-2.703c0-0.576-0.176-0.967-0.775-0.967
			c-0.592,0-0.983,0.56-0.983,1.119v2.551h-0.704v-2.895c0-0.352-0.136-0.775-0.656-0.775c-0.4,0-1.104,0.256-1.104,1.391v2.279
			h-0.704V16.554z"/>
		<path d="M96.237,16.554h0.664v0.592h0.016c0.152-0.224,0.512-0.712,1.263-0.712c0.752,0,0.992,0.456,1.112,0.68
			c0.352-0.392,0.631-0.68,1.279-0.68c0.448,0,1.295,0.232,1.295,1.407v2.895h-0.704v-2.703c0-0.576-0.176-0.967-0.775-0.967
			c-0.592,0-0.983,0.56-0.983,1.119v2.551H98.7v-2.895c0-0.352-0.136-0.775-0.656-0.775c-0.4,0-1.104,0.256-1.104,1.391v2.279
			h-0.704V16.554z"/>
		<path d="M102.877,17.825c0.032-0.999,0.696-1.391,1.727-1.391c0.336,0,1.551,0.096,1.551,1.167v2.407
			c0,0.176,0.088,0.248,0.232,0.248c0.064,0,0.152-0.016,0.232-0.032v0.512c-0.12,0.032-0.224,0.08-0.384,0.08
			c-0.624,0-0.72-0.32-0.744-0.64c-0.272,0.296-0.696,0.68-1.511,0.68c-0.768,0-1.312-0.488-1.312-1.208
			c0-0.352,0.104-1.167,1.271-1.312l1.159-0.144c0.168-0.016,0.368-0.08,0.368-0.496c0-0.439-0.32-0.679-0.983-0.679
			c-0.8,0-0.912,0.488-0.959,0.807H102.877z M105.452,18.601c-0.112,0.088-0.288,0.152-1.159,0.264
			c-0.344,0.048-0.896,0.152-0.896,0.68c0,0.456,0.232,0.728,0.759,0.728c0.656,0,1.295-0.424,1.295-0.983V18.601z"/>
		<path d="M110.755,20.736h-0.704v-2.575c0-0.728-0.208-1.095-0.896-1.095c-0.4,0-1.104,0.256-1.104,1.391v2.279h-0.704v-4.182
			h0.664v0.592h0.016c0.152-0.224,0.544-0.712,1.264-0.712c0.647,0,1.463,0.264,1.463,1.456V20.736z"/>
		<path d="M115.268,20.736h-0.664V20.16h-0.016c-0.304,0.568-0.784,0.696-1.191,0.696c-1.423,0-1.839-1.335-1.839-2.335
			c0-1.175,0.632-2.087,1.743-2.087c0.759,0,1.08,0.472,1.247,0.712l0.016-0.056v-2.095h0.704V20.736z M113.413,20.248
			c0.448,0,1.144-0.296,1.144-1.407c0-0.68-0.112-1.775-1.127-1.775c-1.087,0-1.144,1.031-1.144,1.567
			C112.285,19.553,112.645,20.248,113.413,20.248z"/>
	</g>
	<g>
		<path d="M8.895,3.965h4.662v0.687h-1.943v5.053h-0.776V4.652H8.895V3.965z"/>
		<path d="M14.99,9.705h-0.704V5.524h0.664V6.22h0.016c0.28-0.488,0.647-0.816,1.175-0.816c0.088,0,0.128,0.008,0.184,0.024v0.728
			h-0.264c-0.656,0-1.071,0.512-1.071,1.12V9.705z"/>
		<path d="M16.871,4.764V3.965h0.704v0.799H16.871z M17.574,9.705h-0.704V5.524h0.704V9.705z"/>
		<path d="M22.101,9.362c0,0.6-0.008,2.103-1.943,2.103c-0.496,0-1.463-0.136-1.599-1.248h0.704
			c0.128,0.664,0.775,0.664,0.943,0.664c1.215,0,1.191-0.976,1.191-1.471V9.234h-0.016v0.032c-0.184,0.296-0.552,0.56-1.111,0.56
			c-1.423,0-1.839-1.335-1.839-2.335c0-1.175,0.632-2.087,1.743-2.087c0.759,0,1.079,0.472,1.247,0.712h0.016V5.524h0.664V9.362z
			 M20.286,9.218c0.448,0,1.144-0.296,1.144-1.407c0-0.68-0.112-1.775-1.127-1.775c-1.087,0-1.144,1.031-1.144,1.567
			C19.158,8.522,19.518,9.218,20.286,9.218z"/>
		<path d="M26.549,9.362c0,0.6-0.008,2.103-1.943,2.103c-0.496,0-1.463-0.136-1.599-1.248h0.704
			c0.128,0.664,0.775,0.664,0.943,0.664c1.215,0,1.191-0.976,1.191-1.471V9.234h-0.016v0.032c-0.184,0.296-0.552,0.56-1.111,0.56
			c-1.423,0-1.839-1.335-1.839-2.335c0-1.175,0.632-2.087,1.743-2.087c0.759,0,1.079,0.472,1.247,0.712h0.016V5.524h0.664V9.362z
			 M24.734,9.218c0.448,0,1.144-0.296,1.144-1.407c0-0.68-0.112-1.775-1.127-1.775c-1.087,0-1.144,1.031-1.144,1.567
			C23.606,8.522,23.966,9.218,24.734,9.218z"/>
		<path d="M31.077,8.394c-0.024,0.2-0.216,0.792-0.744,1.143c-0.192,0.128-0.464,0.288-1.135,0.288
			c-1.175,0-1.871-0.888-1.871-2.095c0-1.295,0.624-2.327,2.007-2.327c1.208,0,1.799,0.959,1.799,2.439h-3.055
			c0,0.871,0.408,1.375,1.215,1.375c0.664,0,1.056-0.512,1.08-0.823H31.077z M30.405,7.283c-0.04-0.647-0.312-1.247-1.167-1.247
			c-0.648,0-1.16,0.6-1.16,1.247H30.405z"/>
		<path d="M32.774,9.705h-0.704V5.524h0.664V6.22h0.016c0.28-0.488,0.647-0.816,1.175-0.816c0.088,0,0.128,0.008,0.184,0.024v0.728
			h-0.264c-0.656,0-1.071,0.512-1.071,1.12V9.705z"/>
	</g>
</g>
</svg>
