<?xml version="1.0" encoding="utf-8"?>
<!-- Generator: Adobe Illustrator 28.2.0, SVG Export Plug-In . SVG Version: 6.00 Build 0)  -->
<svg version="1.1" id="レイヤー_1" xmlns="http://www.w3.org/2000/svg" xmlns:xlink="http://www.w3.org/1999/xlink" x="0px"
	 y="0px" width="162.274px" height="24.534px" viewBox="0 0 162.274 24.534" style="enable-background:new 0 0 162.274 24.534;"
	 xml:space="preserve">
<style type="text/css">
	.st0{fill:none;stroke:#000000;}
	.st1{fill:none;stroke:#000000;stroke-dasharray:0.5;}
	.st2{fill:none;stroke:#808080;stroke-dasharray:1;}
	.st3{fill:#FFFFFF;}
</style>
<line class="st0" x1="14.339" y1="11.374" x2="71.032" y2="11.374"/>
<line class="st1" x1="69.758" y1="11.374" x2="76.844" y2="11.374"/>
<line class="st2" x1="76.981" y1="11.374" x2="84.068" y2="11.374"/>
<line class="st1" x1="14.31" y1="11.374" x2="7.223" y2="11.374"/>
<line class="st2" x1="7.086" y1="11.374" x2="0" y2="11.374"/>
<g>
	<path d="M36.039,5.81V0.767h1.723c0.56,0,1.085,0.035,1.555,0.379c0.666,0.482,0.84,1.463,0.84,2.136
		c0,0.665-0.147,1.408-0.609,1.912c-0.462,0.519-1.121,0.616-1.786,0.616H36.039z M36.515,5.403h1.142
		c0.427,0,0.798-0.028,1.184-0.231c0.672-0.343,0.84-1.204,0.84-1.891c0-0.735-0.161-1.541-0.869-1.919
		c-0.301-0.161-0.735-0.189-1.155-0.189h-1.142V5.403z"/>
	<path d="M41.072,5.81V0.767H41.8l1.653,4.447h0.014l1.625-4.447h0.721V5.81h-0.476V1.313h-0.014L43.67,5.81h-0.448l-1.66-4.496
		h-0.014V5.81H41.072z"/>
	<path d="M49.97,3.429c0,1.31-0.308,2.479-1.667,2.479c-1.366,0-1.674-1.162-1.674-2.528c0-1.246,0.252-2.507,1.674-2.507
		C49.767,0.872,49.97,2.279,49.97,3.429z M48.29,1.25c-0.981,0-1.212,1.086-1.212,2.179c0,1.268,0.28,2.101,1.226,2.101
		c1.064,0,1.219-1.155,1.219-2.15C49.522,2.314,49.333,1.25,48.29,1.25z"/>
</g>
<g>
	<path d="M38.606,21.188h-0.778l-0.224,1.597h-0.413l0.217-1.597h-0.959l-0.238,1.597h-0.413l0.238-1.597h-0.77v-0.413h0.833
		l0.147-0.98h-0.785V19.38h0.841l0.224-1.484h0.42l-0.224,1.484h0.953l0.217-1.484h0.413l-0.217,1.484h0.701v0.414h-0.757
		l-0.14,0.98h0.714V21.188z M36.666,19.794l-0.154,0.98h0.966l0.14-0.98H36.666z"/>
	<path d="M41.083,19.114h-1.275V18.82c0.75-0.049,1.219-0.126,1.366-0.974h0.357v4.938h-0.448V19.114z"/>
	<path d="M46.474,20.403c0,1.31-0.308,2.479-1.667,2.479c-1.366,0-1.674-1.162-1.674-2.528c0-1.246,0.252-2.507,1.674-2.507
		C46.271,17.847,46.474,19.254,46.474,20.403z M44.793,18.225c-0.98,0-1.212,1.086-1.212,2.179c0,1.268,0.28,2.101,1.226,2.101
		c1.064,0,1.218-1.155,1.218-2.15C46.025,19.289,45.836,18.225,44.793,18.225z"/>
	<path d="M50.366,20.403c0,1.31-0.308,2.479-1.667,2.479c-1.366,0-1.674-1.162-1.674-2.528c0-1.246,0.252-2.507,1.674-2.507
		C50.163,17.847,50.366,19.254,50.366,20.403z M48.685,18.225c-0.98,0-1.212,1.086-1.212,2.179c0,1.268,0.28,2.101,1.226,2.101
		c1.065,0,1.219-1.155,1.219-2.15C49.917,19.289,49.729,18.225,48.685,18.225z"/>
</g>
<g>
	<rect x="28.512" y="8.539" class="st3" width="28.346" height="5.67"/>
	<line class="st0" x1="56.858" y1="8.539" x2="56.858" y2="14.209"/>
	<line class="st0" x1="28.512" y1="14.209" x2="28.512" y2="8.539"/>
</g>
<g>
	<path d="M38.649,11.712l-3.998,1.879v-0.512l3.366-1.575l-3.366-1.487V9.505l3.998,1.783V11.712z"/>
</g>
<g>
	<path d="M42.044,14.559v-0.703h0.583v0.703H42.044z"/>
	<path d="M44.101,14.559V8.802h0.543v5.293h3.086v0.464H44.101z"/>
</g>
<g>
	<path d="M94.513,14.11V8.354h0.544v5.293h3.086v0.464H94.513z"/>
	<path d="M98.961,14.11V8.354h1.967c0.64,0,1.239,0.04,1.775,0.432c0.76,0.552,0.959,1.671,0.959,2.438
		c0,0.76-0.168,1.607-0.695,2.183c-0.527,0.592-1.279,0.704-2.039,0.704H98.961z M99.505,13.646h1.304
		c0.487,0,0.911-0.032,1.351-0.264c0.768-0.392,0.96-1.375,0.96-2.159c0-0.839-0.185-1.759-0.992-2.19
		c-0.344-0.184-0.839-0.216-1.318-0.216h-1.304V13.646z"/>
	<path d="M104.906,14.11v-0.704h0.584v0.704H104.906z"/>
	<path d="M106.961,14.11V8.354h0.544v5.293h3.086v0.464H106.961z"/>
	<path d="M117.263,12.279l-3.998,1.879v-0.512l3.366-1.575l-3.366-1.487v-0.512l3.998,1.783V12.279z"/>
	<path d="M122.553,14.11V8.354h1.967c0.64,0,1.239,0.04,1.775,0.432c0.76,0.552,0.959,1.671,0.959,2.438
		c0,0.76-0.168,1.607-0.695,2.183c-0.527,0.592-1.279,0.704-2.039,0.704H122.553z M123.097,13.646h1.304
		c0.487,0,0.911-0.032,1.351-0.264c0.768-0.392,0.96-1.375,0.96-2.159c0-0.839-0.185-1.759-0.992-2.19
		c-0.344-0.184-0.839-0.216-1.318-0.216h-1.304V13.646z"/>
	<path d="M128.306,14.11V8.354h0.831l1.887,5.077h0.017l1.854-5.077h0.824v5.757h-0.544V8.978h-0.017l-1.887,5.133h-0.512
		l-1.895-5.133h-0.017v5.133H128.306z"/>
	<path d="M138.472,11.392c0,1.495-0.353,2.831-1.903,2.831c-1.559,0-1.911-1.328-1.911-2.887c0-1.423,0.288-2.862,1.911-2.862
		C138.24,8.474,138.472,10.08,138.472,11.392z M136.553,8.905c-1.119,0-1.384,1.239-1.384,2.486c0,1.447,0.32,2.399,1.399,2.399
		c1.216,0,1.392-1.319,1.392-2.455C137.96,10.12,137.745,8.905,136.553,8.905z"/>
	<path d="M145.047,12.287h-0.887l-0.256,1.823h-0.472l0.247-1.823h-1.095l-0.272,1.823h-0.472l0.272-1.823h-0.88v-0.472h0.951
		l0.168-1.119h-0.896v-0.472h0.96l0.256-1.695h0.479l-0.256,1.695h1.088l0.247-1.695h0.472l-0.247,1.695h0.799v0.472h-0.863
		l-0.16,1.119h0.815V12.287z M142.834,10.696l-0.177,1.119h1.104l0.16-1.119H142.834z"/>
	<path d="M147.881,9.921h-1.455V9.585c0.855-0.056,1.391-0.144,1.559-1.111h0.408v5.637h-0.512V9.921z"/>
	<path d="M154.041,11.392c0,1.495-0.353,2.831-1.903,2.831c-1.559,0-1.911-1.328-1.911-2.887c0-1.423,0.288-2.862,1.911-2.862
		C153.808,8.474,154.041,10.08,154.041,11.392z M152.122,8.905c-1.119,0-1.384,1.239-1.384,2.486c0,1.447,0.32,2.399,1.399,2.399
		c1.216,0,1.392-1.319,1.392-2.455C153.529,10.12,153.313,8.905,152.122,8.905z"/>
	<path d="M158.489,11.392c0,1.495-0.352,2.831-1.903,2.831c-1.559,0-1.911-1.328-1.911-2.887c0-1.423,0.288-2.862,1.911-2.862
		C158.256,8.474,158.489,10.08,158.489,11.392z M156.57,8.905c-1.12,0-1.384,1.239-1.384,2.486c0,1.447,0.32,2.399,1.399,2.399
		c1.216,0,1.392-1.319,1.392-2.455C157.977,10.12,157.761,8.905,156.57,8.905z"/>
</g>
</svg>
