<?xml version="1.0" encoding="utf-8"?>
<!-- Generator: Adobe Illustrator 28.2.0, SVG Export Plug-In . SVG Version: 6.00 Build 0)  -->
<svg version="1.1" xmlns="http://www.w3.org/2000/svg" xmlns:xlink="http://www.w3.org/1999/xlink" x="0px" y="0px"
	 width="267.21px" height="136.563px" viewBox="0 0 267.21 136.563" style="enable-background:new 0 0 267.21 136.563;"
	 xml:space="preserve">
<style type="text/css">
	.st0{fill:none;stroke:#000000;stroke-width:0.5;stroke-miterlimit:10;}
	.st1{fill:#233B59;}
	.st2{fill:none;stroke:#FF0000;stroke-width:1.5;stroke-miterlimit:10;}
</style>
<g id="レイヤー_1">
	<rect x="0.75" y="27.463" class="st0" width="56.693" height="108.85"/>
	<line class="st0" x1="0.75" y1="45.604" x2="57.443" y2="45.604"/>
	<line class="st0" x1="0.75" y1="63.746" x2="57.443" y2="63.746"/>
	<line class="st0" x1="0.75" y1="81.888" x2="57.443" y2="81.888"/>
	<line class="st0" x1="0.75" y1="100.03" x2="57.443" y2="100.03"/>
	<g>
		<path class="st0" d="M59.94,27.213c3.339,0,3.339,23.638,3.339,27.275s0,27.275,3.339,27.275c-3.339,0-3.339,23.638-3.339,27.275
			s0,27.275-3.339,27.275"/>
	</g>
	<rect x="151.251" y="27.463" class="st0" width="56.693" height="108.85"/>
	<line class="st0" x1="151.251" y1="45.604" x2="207.944" y2="45.604"/>
	<line class="st0" x1="151.251" y1="63.746" x2="207.944" y2="63.746"/>
	<line class="st0" x1="151.251" y1="81.888" x2="207.944" y2="81.888"/>
	<line class="st0" x1="151.251" y1="100.03" x2="207.944" y2="100.03"/>
	<g>
		<path class="st0" d="M209.776,27.213c4.005,0,4.005,19.708,4.005,22.74s0,22.74,4.005,22.74c-4.005,0-4.005,19.708-4.005,22.74
			c0,3.032,0,22.74-4.005,22.74"/>
	</g>
	<rect x="79.888" y="0.25" class="st0" width="56.693" height="18.142"/>
	<line class="st0" x1="151.251" y1="118.171" x2="207.944" y2="118.171"/>
	<line class="st0" x1="0.75" y1="118.171" x2="57.443" y2="118.171"/>
</g>
<g id="レイヤー_2">
	<g>
		<path d="M22.615,35.24H21.16v-0.336c0.855-0.056,1.391-0.144,1.559-1.111h0.408v5.637h-0.512V35.24z"/>
		<path d="M27.063,35.24h-1.455v-0.336c0.855-0.056,1.391-0.144,1.559-1.111h0.408v5.637h-0.512V35.24z"/>
		<path d="M31.511,35.24h-1.455v-0.336c0.855-0.056,1.391-0.144,1.559-1.111h0.408v5.637h-0.512V35.24z"/>
		<path d="M35.959,35.24h-1.455v-0.336c0.855-0.056,1.391-0.144,1.559-1.111h0.408v5.637h-0.512V35.24z"/>
	</g>
	<g>
		<path d="M20.752,53.488c0-1.111,0.72-1.847,1.831-1.847c1.135,0,1.735,0.695,1.735,1.559c0,1.495-1.615,1.871-2.455,2.51
			c-0.368,0.28-0.711,0.6-0.736,1.136h3.143v0.432h-3.686c0.008-0.536,0.08-0.959,0.44-1.375c1.175-1.359,2.734-1.344,2.734-2.671
			c0-0.735-0.544-1.159-1.239-1.159c-0.736,0-1.255,0.656-1.224,1.415H20.752z"/>
		<path d="M25.2,53.488c0-1.111,0.72-1.847,1.831-1.847c1.135,0,1.735,0.695,1.735,1.559c0,1.495-1.615,1.871-2.455,2.51
			c-0.368,0.28-0.711,0.6-0.735,1.136h3.142v0.432h-3.686c0.008-0.536,0.08-0.959,0.44-1.375c1.175-1.359,2.734-1.344,2.734-2.671
			c0-0.735-0.544-1.159-1.239-1.159c-0.736,0-1.255,0.656-1.224,1.415H25.2z"/>
		<path d="M29.648,53.488c0-1.111,0.72-1.847,1.831-1.847c1.135,0,1.735,0.695,1.735,1.559c0,1.495-1.615,1.871-2.455,2.51
			c-0.368,0.28-0.711,0.6-0.735,1.136h3.142v0.432H29.48c0.008-0.536,0.08-0.959,0.44-1.375c1.175-1.359,2.734-1.344,2.734-2.671
			c0-0.735-0.544-1.159-1.239-1.159c-0.736,0-1.255,0.656-1.224,1.415H29.648z"/>
		<path d="M34.097,53.488c0-1.111,0.72-1.847,1.831-1.847c1.135,0,1.735,0.695,1.735,1.559c0,1.495-1.615,1.871-2.455,2.51
			c-0.368,0.28-0.711,0.6-0.735,1.136h3.142v0.432h-3.686c0.008-0.536,0.08-0.959,0.44-1.375c1.175-1.359,2.734-1.344,2.734-2.671
			c0-0.735-0.544-1.159-1.239-1.159c-0.736,0-1.255,0.656-1.224,1.415H34.097z"/>
	</g>
	<g>
		<path d="M21.968,72.277c0.951,0.008,1.615-0.216,1.615-1.08c0-0.695-0.552-0.991-1.2-0.991c-0.719,0-1.207,0.504-1.207,1.207
			h-0.512c0-0.503,0.168-0.911,0.543-1.263c0.352-0.32,0.815-0.375,1.279-0.375c0.888,0,1.607,0.448,1.607,1.391
			c0,0.583-0.256,1.023-0.8,1.255c0.815,0.256,1,0.872,1,1.391c0,0.927-0.656,1.679-1.815,1.711c-1.303,0-1.887-0.432-2.007-1.743
			h0.512c0,0.855,0.567,1.311,1.399,1.311c0.816,0,1.431-0.608,1.399-1.271c-0.032-0.911-0.824-1.199-1.815-1.127V72.277z"/>
		<path d="M26.415,72.277c0.952,0.008,1.615-0.216,1.615-1.08c0-0.695-0.552-0.991-1.2-0.991c-0.719,0-1.207,0.504-1.207,1.207
			h-0.512c0-0.503,0.168-0.911,0.543-1.263c0.352-0.32,0.816-0.375,1.279-0.375c0.888,0,1.607,0.448,1.607,1.391
			c0,0.583-0.256,1.023-0.8,1.255c0.815,0.256,1,0.872,1,1.391c0,0.927-0.656,1.679-1.815,1.711c-1.303,0-1.887-0.432-2.007-1.743
			h0.512c0,0.855,0.567,1.311,1.399,1.311c0.816,0,1.432-0.608,1.399-1.271c-0.032-0.911-0.824-1.199-1.815-1.127V72.277z"/>
		<path d="M30.864,72.277c0.952,0.008,1.615-0.216,1.615-1.08c0-0.695-0.552-0.991-1.2-0.991c-0.719,0-1.207,0.504-1.207,1.207
			H29.56c0-0.503,0.168-0.911,0.543-1.263c0.352-0.32,0.816-0.375,1.279-0.375c0.888,0,1.607,0.448,1.607,1.391
			c0,0.583-0.256,1.023-0.8,1.255c0.815,0.256,1,0.872,1,1.391c0,0.927-0.656,1.679-1.815,1.711c-1.303,0-1.887-0.432-2.007-1.743
			h0.512c0,0.855,0.567,1.311,1.399,1.311c0.816,0,1.432-0.608,1.399-1.271c-0.032-0.911-0.824-1.199-1.815-1.127V72.277z"/>
		<path d="M35.312,72.277c0.952,0.008,1.615-0.216,1.615-1.08c0-0.695-0.552-0.991-1.2-0.991c-0.719,0-1.207,0.504-1.207,1.207
			h-0.512c0-0.503,0.168-0.911,0.543-1.263c0.352-0.32,0.816-0.375,1.279-0.375c0.888,0,1.607,0.448,1.607,1.391
			c0,0.583-0.256,1.023-0.8,1.255c0.815,0.256,1,0.872,1,1.391c0,0.927-0.656,1.679-1.815,1.711c-1.303,0-1.887-0.432-2.007-1.743
			h0.512c0,0.855,0.567,1.311,1.399,1.311c0.816,0,1.432-0.608,1.399-1.271c-0.032-0.911-0.824-1.199-1.815-1.127V72.277z"/>
	</g>
	<g>
		<path d="M29.06,89.151c-0.208,0-0.392-0.168-0.392-0.384s0.184-0.392,0.392-0.392c0.208,0,0.384,0.192,0.384,0.392
			C29.444,88.976,29.268,89.151,29.06,89.151z"/>
		<path d="M29.06,93.6c-0.208,0-0.392-0.168-0.392-0.384s0.184-0.392,0.392-0.392c0.208,0,0.384,0.192,0.384,0.392
			C29.444,93.424,29.268,93.6,29.06,93.6z"/>
	</g>
	<g>
		<path d="M20.752,107.415c0-0.775,0.72-1.407,1.607-1.375c0.864,0,1.703,0.408,1.703,1.375c0,0.584-0.232,1-0.768,1.263
			c0.616,0.224,1,0.744,1,1.399c0,1.104-0.784,1.711-1.983,1.711c-0.815,0-1.759-0.56-1.759-1.663c0-0.671,0.344-1.231,0.983-1.479
			C20.992,108.302,20.752,108.086,20.752,107.415z M21.064,110.125c0,0.696,0.543,1.231,1.399,1.231
			c0.744,0,1.319-0.512,1.319-1.263c0-0.792-0.6-1.175-1.351-1.175C21.648,108.918,21.064,109.294,21.064,110.125z M21.264,107.487
			c0,0.695,0.576,0.999,1.199,0.999c0.616,0,1.087-0.312,1.087-1.111c0-0.567-0.368-0.903-1.144-0.903
			C21.776,106.471,21.264,106.823,21.264,107.487z"/>
		<path d="M25.2,107.415c0-0.775,0.72-1.407,1.607-1.375c0.864,0,1.703,0.408,1.703,1.375c0,0.584-0.232,1-0.768,1.263
			c0.616,0.224,1,0.744,1,1.399c0,1.104-0.784,1.711-1.983,1.711c-0.815,0-1.759-0.56-1.759-1.663c0-0.671,0.344-1.231,0.984-1.479
			C25.44,108.302,25.2,108.086,25.2,107.415z M25.512,110.125c0,0.696,0.544,1.231,1.399,1.231c0.744,0,1.319-0.512,1.319-1.263
			c0-0.792-0.6-1.175-1.351-1.175C26.096,108.918,25.512,109.294,25.512,110.125z M25.712,107.487c0,0.695,0.576,0.999,1.199,0.999
			c0.616,0,1.087-0.312,1.087-1.111c0-0.567-0.368-0.903-1.143-0.903C26.223,106.471,25.712,106.823,25.712,107.487z"/>
		<path d="M29.648,107.415c0-0.775,0.72-1.407,1.607-1.375c0.864,0,1.703,0.408,1.703,1.375c0,0.584-0.232,1-0.768,1.263
			c0.616,0.224,1,0.744,1,1.399c0,1.104-0.784,1.711-1.983,1.711c-0.815,0-1.759-0.56-1.759-1.663c0-0.671,0.344-1.231,0.984-1.479
			C29.888,108.302,29.648,108.086,29.648,107.415z M29.96,110.125c0,0.696,0.544,1.231,1.399,1.231c0.744,0,1.319-0.512,1.319-1.263
			c0-0.792-0.6-1.175-1.351-1.175C30.544,108.918,29.96,109.294,29.96,110.125z M30.16,107.487c0,0.695,0.576,0.999,1.199,0.999
			c0.616,0,1.087-0.312,1.087-1.111c0-0.567-0.368-0.903-1.143-0.903C30.672,106.471,30.16,106.823,30.16,107.487z"/>
		<path d="M34.097,107.415c0-0.775,0.72-1.407,1.607-1.375c0.864,0,1.703,0.408,1.703,1.375c0,0.584-0.232,1-0.768,1.263
			c0.616,0.224,1,0.744,1,1.399c0,1.104-0.784,1.711-1.983,1.711c-0.815,0-1.759-0.56-1.759-1.663c0-0.671,0.344-1.231,0.984-1.479
			C34.336,108.302,34.097,108.086,34.097,107.415z M34.408,110.125c0,0.696,0.544,1.231,1.399,1.231
			c0.744,0,1.319-0.512,1.319-1.263c0-0.792-0.6-1.175-1.351-1.175C34.992,108.918,34.408,109.294,34.408,110.125z M34.608,107.487
			c0,0.695,0.576,0.999,1.199,0.999c0.616,0,1.087-0.312,1.087-1.111c0-0.567-0.368-0.903-1.143-0.903
			C35.12,106.471,34.608,106.823,34.608,107.487z"/>
	</g>
	<g>
		<path d="M21.144,128.911c0.12,0.6,0.472,0.919,1.096,0.919c1.335,0,1.519-1.487,1.567-2.502l-0.016-0.016
			c-0.344,0.568-0.847,0.879-1.519,0.879c-1.055,0-1.743-0.72-1.743-1.815c0-1.063,0.584-1.863,1.815-1.863
			c1.519,0,1.975,1.271,1.975,2.846c0,1.911-0.863,2.902-2.055,2.902c-0.88,0-1.551-0.432-1.639-1.351H21.144z M21.04,126.393
			c0,0.855,0.48,1.367,1.304,1.367c0.799,0,1.263-0.64,1.263-1.399c0-0.832-0.472-1.399-1.263-1.415
			C21.48,124.961,21.04,125.513,21.04,126.393z"/>
		<path d="M25.592,128.911c0.12,0.6,0.472,0.919,1.096,0.919c1.335,0,1.519-1.487,1.567-2.502l-0.016-0.016
			c-0.344,0.568-0.847,0.879-1.519,0.879c-1.055,0-1.743-0.72-1.743-1.815c0-1.063,0.584-1.863,1.815-1.863
			c1.52,0,1.975,1.271,1.975,2.846c0,1.911-0.863,2.902-2.055,2.902c-0.879,0-1.551-0.432-1.639-1.351H25.592z M25.488,126.393
			c0,0.855,0.48,1.367,1.303,1.367c0.8,0,1.264-0.64,1.264-1.399c0-0.832-0.472-1.399-1.264-1.415
			C25.928,124.961,25.488,125.513,25.488,126.393z"/>
		<path d="M30.04,128.911c0.12,0.6,0.472,0.919,1.096,0.919c1.335,0,1.519-1.487,1.567-2.502l-0.016-0.016
			c-0.344,0.568-0.847,0.879-1.519,0.879c-1.055,0-1.743-0.72-1.743-1.815c0-1.063,0.584-1.863,1.815-1.863
			c1.52,0,1.975,1.271,1.975,2.846c0,1.911-0.863,2.902-2.055,2.902c-0.879,0-1.551-0.432-1.639-1.351H30.04z M29.936,126.393
			c0,0.855,0.48,1.367,1.303,1.367c0.8,0,1.264-0.64,1.264-1.399c0-0.832-0.472-1.399-1.264-1.415
			C30.376,124.961,29.936,125.513,29.936,126.393z"/>
		<path d="M34.488,128.911c0.12,0.6,0.472,0.919,1.096,0.919c1.335,0,1.519-1.487,1.567-2.502l-0.016-0.016
			c-0.344,0.568-0.847,0.879-1.519,0.879c-1.055,0-1.743-0.72-1.743-1.815c0-1.063,0.584-1.863,1.815-1.863
			c1.52,0,1.975,1.271,1.975,2.846c0,1.911-0.863,2.902-2.055,2.902c-0.879,0-1.551-0.432-1.639-1.351H34.488z M34.384,126.393
			c0,0.855,0.48,1.367,1.303,1.367c0.8,0,1.264-0.64,1.264-1.399c0-0.832-0.472-1.399-1.264-1.415
			C34.824,124.961,34.384,125.513,34.384,126.393z"/>
	</g>
	<g>
		<path d="M69.396,84.966V79.21h1.967c0.64,0,1.239,0.04,1.775,0.432c0.76,0.552,0.959,1.671,0.959,2.439
			c0,0.759-0.167,1.607-0.695,2.183c-0.527,0.592-1.279,0.704-2.039,0.704H69.396z M69.94,84.502h1.303
			c0.488,0,0.912-0.032,1.352-0.264c0.768-0.392,0.96-1.375,0.96-2.159c0-0.84-0.185-1.759-0.992-2.191
			c-0.344-0.184-0.839-0.216-1.319-0.216H69.94V84.502z"/>
		<path d="M77.002,82.552c0.176-0.016,0.472-0.064,0.632-0.136c0.16-0.072,0.176-0.288,0.176-0.432c0-0.488-0.288-0.839-1.031-0.839
			c-0.664,0-1.119,0.216-1.207,0.936h-0.488c0.072-0.976,0.8-1.368,1.703-1.368c0.84,0,1.503,0.328,1.503,1.288v2.255
			c0,0.375,0.097,0.463,0.504,0.32v0.375c-0.072,0.024-0.24,0.08-0.376,0.08c-0.08,0-0.144-0.008-0.216-0.024
			c-0.319-0.048-0.376-0.328-0.384-0.616c-0.399,0.448-0.943,0.688-1.543,0.688c-0.728,0-1.383-0.392-1.383-1.191
			c0-0.695,0.479-1.119,1.447-1.247L77.002,82.552z M77.81,82.792c-0.407,0.168-0.823,0.2-1.239,0.232
			c-0.728,0.056-1.167,0.32-1.167,0.879c0,0.504,0.439,0.744,0.896,0.744c0.759,0,1.511-0.368,1.511-1.208V82.792z"/>
		<path d="M81.003,84.982c-0.112,0.024-0.32,0.096-0.552,0.096c-0.472,0-0.736-0.208-0.736-0.823v-3.031h-0.583v-0.399h0.583v-1.151
			h0.48v1.151h0.775v0.399h-0.775v2.839c0,0.408,0.016,0.583,0.415,0.583c0.128,0,0.265-0.024,0.393-0.056V84.982z"/>
		<path d="M83.674,82.552c0.176-0.016,0.472-0.064,0.632-0.136c0.16-0.072,0.176-0.288,0.176-0.432c0-0.488-0.288-0.839-1.031-0.839
			c-0.664,0-1.119,0.216-1.207,0.936h-0.488c0.072-0.976,0.8-1.368,1.703-1.368c0.84,0,1.503,0.328,1.503,1.288v2.255
			c0,0.375,0.097,0.463,0.504,0.32v0.375c-0.072,0.024-0.24,0.08-0.376,0.08c-0.08,0-0.144-0.008-0.216-0.024
			c-0.319-0.048-0.376-0.328-0.384-0.616c-0.399,0.448-0.943,0.688-1.543,0.688c-0.728,0-1.383-0.392-1.383-1.191
			c0-0.695,0.479-1.119,1.447-1.247L83.674,82.552z M84.482,82.792c-0.407,0.168-0.823,0.2-1.239,0.232
			c-0.728,0.056-1.167,0.32-1.167,0.879c0,0.504,0.439,0.744,0.896,0.744c0.759,0,1.511-0.368,1.511-1.208V82.792z"/>
		<path d="M86.835,79.945H86.82v5.021h-0.544V79.21h0.615l3.326,5.029h0.017V79.21h0.543v5.757h-0.631L86.835,79.945z"/>
		<path d="M94.802,80.825h0.48v4.142h-0.48v-0.576c-0.256,0.288-0.607,0.688-1.335,0.688c-1.104,0-1.471-0.664-1.471-1.527v-2.727
			h0.479v2.718c0,0.712,0.312,1.104,1.063,1.104c0.791,0,1.263-0.656,1.263-1.567V80.825z"/>
		<path d="M96.86,84.966H96.38v-4.142h0.479v0.624h0.017c0.247-0.472,0.743-0.736,1.279-0.736c0.768,0,1.039,0.36,1.215,0.8
			c0.272-0.536,0.76-0.8,1.352-0.8c1.127,0,1.287,0.808,1.287,1.639v2.615h-0.479v-2.862c0-0.592-0.208-0.959-0.888-0.959
			c-0.352,0-0.695,0.152-0.936,0.472c-0.208,0.272-0.271,0.775-0.271,1.119v2.231h-0.48v-2.862c0-0.592-0.208-0.959-0.887-0.959
			c-0.353,0-0.696,0.152-0.936,0.472c-0.208,0.272-0.272,0.775-0.272,1.119V84.966z"/>
		<path d="M109.394,82.424h-3.998v-0.48h3.998V82.424z M109.394,83.975h-3.998v-0.48h3.998V83.975z"/>
		<path d="M113.203,83.727c0.12,0.6,0.472,0.919,1.096,0.919c1.335,0,1.519-1.487,1.567-2.502l-0.017-0.016
			c-0.344,0.568-0.848,0.879-1.519,0.879c-1.056,0-1.743-0.72-1.743-1.815c0-1.063,0.583-1.863,1.814-1.863
			c1.52,0,1.976,1.271,1.976,2.846c0,1.911-0.864,2.902-2.056,2.902c-0.879,0-1.551-0.432-1.639-1.351H113.203z M113.1,81.209
			c0,0.855,0.479,1.367,1.303,1.367c0.8,0,1.264-0.64,1.264-1.399c0-0.832-0.472-1.399-1.264-1.415
			C113.539,79.777,113.1,80.329,113.1,81.209z"/>
	</g>
	<g>
		<path d="M171.253,35.444c0-1.111,0.72-1.847,1.831-1.847c1.136,0,1.735,0.695,1.735,1.559c0,1.495-1.615,1.871-2.455,2.51
			c-0.367,0.28-0.711,0.6-0.735,1.136h3.143v0.432h-3.687c0.008-0.536,0.08-0.959,0.44-1.375c1.175-1.359,2.734-1.344,2.734-2.671
			c0-0.735-0.544-1.159-1.239-1.159c-0.736,0-1.256,0.656-1.224,1.415H171.253z"/>
		<path d="M175.702,35.444c0-1.111,0.72-1.847,1.831-1.847c1.135,0,1.734,0.695,1.734,1.559c0,1.495-1.615,1.871-2.454,2.51
			c-0.368,0.28-0.712,0.6-0.735,1.136h3.142v0.432h-3.686c0.008-0.536,0.08-0.959,0.439-1.375c1.176-1.359,2.734-1.344,2.734-2.671
			c0-0.735-0.544-1.159-1.239-1.159c-0.735,0-1.255,0.656-1.224,1.415H175.702z"/>
		<path d="M180.15,35.444c0-1.111,0.72-1.847,1.831-1.847c1.135,0,1.734,0.695,1.734,1.559c0,1.495-1.615,1.871-2.454,2.51
			c-0.368,0.28-0.712,0.6-0.735,1.136h3.142v0.432h-3.686c0.008-0.536,0.08-0.959,0.439-1.375c1.176-1.359,2.734-1.344,2.734-2.671
			c0-0.735-0.544-1.159-1.239-1.159c-0.735,0-1.255,0.656-1.224,1.415H180.15z"/>
		<path d="M184.598,35.444c0-1.111,0.72-1.847,1.831-1.847c1.135,0,1.734,0.695,1.734,1.559c0,1.495-1.615,1.871-2.454,2.51
			c-0.368,0.28-0.712,0.6-0.735,1.136h3.142v0.432h-3.686c0.008-0.536,0.08-0.959,0.439-1.375c1.176-1.359,2.734-1.344,2.734-2.671
			c0-0.735-0.544-1.159-1.239-1.159c-0.735,0-1.255,0.656-1.224,1.415H184.598z"/>
	</g>
	<g>
		<path d="M172.469,54.233c0.951,0.008,1.615-0.216,1.615-1.08c0-0.695-0.552-0.991-1.2-0.991c-0.719,0-1.207,0.504-1.207,1.207
			h-0.512c0-0.503,0.168-0.911,0.544-1.263c0.352-0.32,0.815-0.375,1.279-0.375c0.888,0,1.607,0.448,1.607,1.391
			c0,0.583-0.256,1.023-0.8,1.255c0.815,0.256,0.999,0.872,0.999,1.391c0,0.927-0.655,1.679-1.814,1.711
			c-1.304,0-1.888-0.432-2.007-1.743h0.512c0,0.855,0.567,1.311,1.398,1.311c0.816,0,1.432-0.608,1.399-1.271
			c-0.031-0.911-0.823-1.199-1.814-1.127V54.233z"/>
		<path d="M176.916,54.233c0.952,0.008,1.615-0.216,1.615-1.08c0-0.695-0.552-0.991-1.199-0.991c-0.72,0-1.207,0.504-1.207,1.207
			h-0.512c0-0.503,0.168-0.911,0.543-1.263c0.353-0.32,0.816-0.375,1.279-0.375c0.888,0,1.607,0.448,1.607,1.391
			c0,0.583-0.256,1.023-0.8,1.255c0.815,0.256,1,0.872,1,1.391c0,0.927-0.656,1.679-1.815,1.711c-1.303,0-1.887-0.432-2.007-1.743
			h0.512c0,0.855,0.567,1.311,1.399,1.311c0.815,0,1.432-0.608,1.399-1.271c-0.032-0.911-0.824-1.199-1.815-1.127V54.233z"/>
		<path d="M181.365,54.233c0.952,0.008,1.615-0.216,1.615-1.08c0-0.695-0.552-0.991-1.199-0.991c-0.72,0-1.207,0.504-1.207,1.207
			h-0.512c0-0.503,0.168-0.911,0.543-1.263c0.353-0.32,0.816-0.375,1.279-0.375c0.888,0,1.607,0.448,1.607,1.391
			c0,0.583-0.256,1.023-0.8,1.255c0.815,0.256,1,0.872,1,1.391c0,0.927-0.656,1.679-1.815,1.711c-1.303,0-1.887-0.432-2.007-1.743
			h0.512c0,0.855,0.567,1.311,1.399,1.311c0.815,0,1.432-0.608,1.399-1.271c-0.032-0.911-0.824-1.199-1.815-1.127V54.233z"/>
		<path d="M185.813,54.233c0.952,0.008,1.615-0.216,1.615-1.08c0-0.695-0.552-0.991-1.199-0.991c-0.72,0-1.207,0.504-1.207,1.207
			h-0.512c0-0.503,0.168-0.911,0.543-1.263c0.353-0.32,0.816-0.375,1.279-0.375c0.888,0,1.607,0.448,1.607,1.391
			c0,0.583-0.256,1.023-0.8,1.255c0.815,0.256,1,0.872,1,1.391c0,0.927-0.656,1.679-1.815,1.711c-1.303,0-1.887-0.432-2.007-1.743
			h0.512c0,0.855,0.567,1.311,1.399,1.311c0.815,0,1.432-0.608,1.399-1.271c-0.032-0.911-0.824-1.199-1.815-1.127V54.233z"/>
	</g>
	<g>
		<path d="M179.562,71.107c-0.208,0-0.393-0.168-0.393-0.384s0.185-0.392,0.393-0.392c0.207,0,0.383,0.192,0.383,0.392
			C179.945,70.932,179.769,71.107,179.562,71.107z"/>
		<path d="M179.562,75.556c-0.208,0-0.393-0.168-0.393-0.384s0.185-0.392,0.393-0.392c0.207,0,0.383,0.192,0.383,0.392
			C179.945,75.38,179.769,75.556,179.562,75.556z"/>
	</g>
	<g>
		<path d="M171.253,89.371c0-0.775,0.72-1.407,1.607-1.375c0.863,0,1.703,0.408,1.703,1.375c0,0.584-0.232,1-0.768,1.263
			c0.615,0.224,0.999,0.744,0.999,1.399c0,1.104-0.783,1.711-1.982,1.711c-0.815,0-1.759-0.56-1.759-1.663
			c0-0.671,0.344-1.231,0.983-1.479C171.494,90.258,171.253,90.043,171.253,89.371z M171.566,92.081
			c0,0.696,0.543,1.231,1.398,1.231c0.744,0,1.319-0.512,1.319-1.263c0-0.792-0.6-1.175-1.351-1.175
			C172.149,90.874,171.566,91.25,171.566,92.081z M171.765,89.443c0,0.695,0.576,0.999,1.199,0.999c0.616,0,1.088-0.312,1.088-1.111
			c0-0.567-0.368-0.903-1.144-0.903C172.277,88.427,171.765,88.779,171.765,89.443z"/>
		<path d="M175.702,89.371c0-0.775,0.72-1.407,1.606-1.375c0.864,0,1.703,0.408,1.703,1.375c0,0.584-0.231,1-0.768,1.263
			c0.616,0.224,1,0.744,1,1.399c0,1.104-0.784,1.711-1.983,1.711c-0.815,0-1.759-0.56-1.759-1.663c0-0.671,0.344-1.231,0.983-1.479
			C175.941,90.258,175.702,90.043,175.702,89.371z M176.013,92.081c0,0.696,0.544,1.231,1.399,1.231
			c0.743,0,1.319-0.512,1.319-1.263c0-0.792-0.6-1.175-1.352-1.175C176.597,90.874,176.013,91.25,176.013,92.081z M176.213,89.443
			c0,0.695,0.575,0.999,1.199,0.999c0.615,0,1.087-0.312,1.087-1.111c0-0.567-0.367-0.903-1.143-0.903
			C176.725,88.427,176.213,88.779,176.213,89.443z"/>
		<path d="M180.15,89.371c0-0.775,0.72-1.407,1.606-1.375c0.864,0,1.703,0.408,1.703,1.375c0,0.584-0.231,1-0.768,1.263
			c0.616,0.224,1,0.744,1,1.399c0,1.104-0.784,1.711-1.983,1.711c-0.815,0-1.759-0.56-1.759-1.663c0-0.671,0.344-1.231,0.983-1.479
			C180.389,90.258,180.15,90.043,180.15,89.371z M180.461,92.081c0,0.696,0.544,1.231,1.399,1.231c0.743,0,1.319-0.512,1.319-1.263
			c0-0.792-0.6-1.175-1.352-1.175C181.045,90.874,180.461,91.25,180.461,92.081z M180.661,89.443c0,0.695,0.575,0.999,1.199,0.999
			c0.615,0,1.087-0.312,1.087-1.111c0-0.567-0.367-0.903-1.143-0.903C181.173,88.427,180.661,88.779,180.661,89.443z"/>
		<path d="M184.598,89.371c0-0.775,0.72-1.407,1.606-1.375c0.864,0,1.703,0.408,1.703,1.375c0,0.584-0.231,1-0.768,1.263
			c0.616,0.224,1,0.744,1,1.399c0,1.104-0.784,1.711-1.983,1.711c-0.815,0-1.759-0.56-1.759-1.663c0-0.671,0.344-1.231,0.983-1.479
			C184.837,90.258,184.598,90.043,184.598,89.371z M184.91,92.081c0,0.696,0.544,1.231,1.399,1.231c0.743,0,1.319-0.512,1.319-1.263
			c0-0.792-0.6-1.175-1.352-1.175C185.494,90.874,184.91,91.25,184.91,92.081z M185.11,89.443c0,0.695,0.575,0.999,1.199,0.999
			c0.615,0,1.087-0.312,1.087-1.111c0-0.567-0.367-0.903-1.143-0.903C185.621,88.427,185.11,88.779,185.11,89.443z"/>
	</g>
	<g>
		<path d="M219.898,74.846v-5.757h1.967c0.64,0,1.239,0.04,1.775,0.432c0.76,0.552,0.959,1.671,0.959,2.439
			c0,0.759-0.167,1.607-0.695,2.183c-0.527,0.592-1.279,0.704-2.039,0.704H219.898z M220.442,74.382h1.303
			c0.488,0,0.912-0.032,1.352-0.264c0.768-0.392,0.96-1.375,0.96-2.159c0-0.84-0.185-1.759-0.992-2.191
			c-0.344-0.184-0.839-0.216-1.319-0.216h-1.303V74.382z"/>
		<path d="M227.504,72.432c0.176-0.016,0.472-0.064,0.632-0.136c0.16-0.072,0.176-0.288,0.176-0.432
			c0-0.488-0.288-0.839-1.031-0.839c-0.664,0-1.119,0.216-1.207,0.936h-0.488c0.072-0.976,0.8-1.368,1.703-1.368
			c0.84,0,1.503,0.328,1.503,1.288v2.255c0,0.375,0.097,0.463,0.504,0.32v0.375c-0.072,0.024-0.24,0.08-0.376,0.08
			c-0.08,0-0.144-0.008-0.216-0.024c-0.319-0.048-0.376-0.328-0.384-0.616c-0.399,0.448-0.943,0.688-1.543,0.688
			c-0.728,0-1.383-0.392-1.383-1.191c0-0.695,0.479-1.119,1.447-1.247L227.504,72.432z M228.312,72.671
			c-0.407,0.168-0.823,0.2-1.239,0.232c-0.728,0.056-1.167,0.32-1.167,0.879c0,0.504,0.439,0.744,0.896,0.744
			c0.759,0,1.511-0.368,1.511-1.208V72.671z"/>
		<path d="M231.505,74.862c-0.112,0.024-0.32,0.096-0.552,0.096c-0.472,0-0.736-0.208-0.736-0.823v-3.031h-0.583v-0.399h0.583
			v-1.151h0.48v1.151h0.775v0.399h-0.775v2.839c0,0.408,0.016,0.583,0.415,0.583c0.128,0,0.265-0.024,0.393-0.056V74.862z"/>
		<path d="M234.176,72.432c0.176-0.016,0.472-0.064,0.632-0.136c0.16-0.072,0.176-0.288,0.176-0.432
			c0-0.488-0.288-0.839-1.031-0.839c-0.664,0-1.119,0.216-1.207,0.936h-0.488c0.072-0.976,0.8-1.368,1.703-1.368
			c0.84,0,1.503,0.328,1.503,1.288v2.255c0,0.375,0.097,0.463,0.504,0.32v0.375c-0.072,0.024-0.24,0.08-0.376,0.08
			c-0.08,0-0.144-0.008-0.216-0.024c-0.319-0.048-0.376-0.328-0.384-0.616c-0.399,0.448-0.943,0.688-1.543,0.688
			c-0.728,0-1.383-0.392-1.383-1.191c0-0.695,0.479-1.119,1.447-1.247L234.176,72.432z M234.984,72.671
			c-0.407,0.168-0.823,0.2-1.239,0.232c-0.728,0.056-1.167,0.32-1.167,0.879c0,0.504,0.439,0.744,0.896,0.744
			c0.759,0,1.511-0.368,1.511-1.208V72.671z"/>
		<path d="M237.337,69.825h-0.016v5.021h-0.544v-5.757h0.615l3.326,5.029h0.017v-5.029h0.543v5.757h-0.631L237.337,69.825z"/>
		<path d="M245.304,70.705h0.48v4.142h-0.48v-0.576c-0.256,0.288-0.607,0.688-1.335,0.688c-1.104,0-1.471-0.664-1.471-1.527v-2.727
			h0.479v2.718c0,0.712,0.312,1.104,1.063,1.104c0.791,0,1.263-0.656,1.263-1.567V70.705z"/>
		<path d="M247.362,74.846h-0.479v-4.142h0.479v0.624h0.017c0.247-0.472,0.743-0.736,1.279-0.736c0.768,0,1.039,0.36,1.215,0.8
			c0.272-0.536,0.76-0.8,1.352-0.8c1.127,0,1.287,0.808,1.287,1.639v2.615h-0.479v-2.862c0-0.592-0.208-0.959-0.888-0.959
			c-0.352,0-0.695,0.152-0.936,0.472c-0.208,0.272-0.271,0.775-0.271,1.119v2.231h-0.48v-2.862c0-0.592-0.208-0.959-0.887-0.959
			c-0.353,0-0.696,0.152-0.936,0.472c-0.208,0.272-0.272,0.775-0.272,1.119V74.846z"/>
		<path d="M259.896,72.304h-3.998v-0.48h3.998V72.304z M259.896,73.855h-3.998v-0.48h3.998V73.855z"/>
		<path d="M263.314,70.585c0-0.775,0.72-1.407,1.607-1.375c0.863,0,1.703,0.408,1.703,1.375c0,0.584-0.232,1-0.768,1.263
			c0.615,0.224,0.999,0.744,0.999,1.399c0,1.104-0.783,1.711-1.982,1.711c-0.816,0-1.76-0.56-1.76-1.663
			c0-0.671,0.344-1.231,0.983-1.479C263.554,71.472,263.314,71.256,263.314,70.585z M263.625,73.295
			c0,0.696,0.544,1.231,1.399,1.231c0.743,0,1.319-0.512,1.319-1.263c0-0.792-0.6-1.175-1.352-1.175
			C264.209,72.088,263.625,72.463,263.625,73.295z M263.826,70.657c0,0.695,0.575,0.999,1.199,0.999
			c0.616,0,1.088-0.312,1.088-1.111c0-0.567-0.368-0.903-1.144-0.903C264.337,69.641,263.826,69.993,263.826,70.657z"/>
	</g>
	<g>
		<path d="M89.122,11.711V5.954h1.967c0.64,0,1.239,0.04,1.775,0.432c0.76,0.552,0.959,1.671,0.959,2.439
			c0,0.759-0.168,1.607-0.695,2.183c-0.527,0.592-1.279,0.704-2.039,0.704H89.122z M89.666,11.247h1.303
			c0.488,0,0.912-0.032,1.352-0.264c0.768-0.392,0.959-1.375,0.959-2.159c0-0.84-0.184-1.759-0.991-2.191
			c-0.344-0.184-0.839-0.216-1.319-0.216h-1.303V11.247z"/>
		<path d="M95.106,10.415c0.152,0.712,0.521,0.976,1.239,0.976c0.696,0,1.023-0.368,1.023-0.768c0-1.199-2.654-0.352-2.654-1.983
			c0-0.688,0.536-1.184,1.455-1.184c0.896,0,1.479,0.368,1.6,1.304h-0.488c-0.088-0.64-0.52-0.872-1.119-0.872
			c-0.607,0-0.936,0.288-0.936,0.711c0,1.127,2.654,0.424,2.654,2.015c0,0.792-0.711,1.207-1.687,1.207s-1.535-0.624-1.575-1.407
			H95.106z"/>
		<path d="M100.282,11.727c-0.112,0.024-0.32,0.096-0.552,0.096c-0.472,0-0.735-0.208-0.735-0.823V7.968H98.41V7.569h0.584V6.418
			h0.479v1.151h0.775v0.399h-0.775v2.839c0,0.408,0.016,0.583,0.416,0.583c0.128,0,0.264-0.024,0.392-0.056V11.727z"/>
		<path d="M107.336,9.168h-3.998v-0.48h3.998V9.168z M107.336,10.719h-3.998v-0.48h3.998V10.719z"/>
		<path d="M112.618,7.521h-1.455V7.185c0.855-0.056,1.391-0.144,1.559-1.111h0.408v5.637h-0.512V7.521z"/>
		<path d="M117.065,7.521h-1.455V7.185c0.855-0.056,1.392-0.144,1.56-1.111h0.407v5.637h-0.512V7.521z"/>
		<path d="M121.513,7.521h-1.455V7.185c0.855-0.056,1.392-0.144,1.56-1.111h0.407v5.637h-0.512V7.521z"/>
		<path d="M125.961,7.521h-1.455V7.185c0.855-0.056,1.392-0.144,1.56-1.111h0.407v5.637h-0.512V7.521z"/>
	</g>
	<g>
		<g>
			<path class="st0" d="M29.839,27.463c0-14.151,23.574-18.934,49.507-18.999"/>
			<g>
				<polygon points="77.739,10.56 77.389,10.202 79.154,8.481 77.308,6.846 77.64,6.472 79.888,8.463 				"/>
			</g>
		</g>
	</g>
	<polygon class="st1" points="146.77,81.888 134.015,69.613 134.015,75.056 124.602,75.056 124.602,88.72 134.015,88.72 
		134.015,94.162 	"/>
	<g>
		<path d="M171.645,110.349c0.12,0.6,0.472,0.919,1.096,0.919c1.335,0,1.52-1.487,1.567-2.502l-0.017-0.016
			c-0.344,0.568-0.847,0.879-1.519,0.879c-1.056,0-1.743-0.72-1.743-1.815c0-1.063,0.584-1.863,1.815-1.863
			c1.519,0,1.975,1.271,1.975,2.846c0,1.911-0.863,2.902-2.055,2.902c-0.88,0-1.552-0.432-1.64-1.351H171.645z M171.541,107.83
			c0,0.855,0.479,1.367,1.304,1.367c0.799,0,1.263-0.64,1.263-1.399c0-0.832-0.472-1.399-1.263-1.415
			C171.981,106.399,171.541,106.95,171.541,107.83z"/>
		<path d="M176.093,110.349c0.12,0.6,0.472,0.919,1.096,0.919c1.335,0,1.519-1.487,1.566-2.502l-0.016-0.016
			c-0.344,0.568-0.848,0.879-1.52,0.879c-1.055,0-1.743-0.72-1.743-1.815c0-1.063,0.584-1.863,1.815-1.863
			c1.52,0,1.975,1.271,1.975,2.846c0,1.911-0.863,2.902-2.055,2.902c-0.879,0-1.551-0.432-1.639-1.351H176.093z M175.989,107.83
			c0,0.855,0.48,1.367,1.304,1.367c0.8,0,1.264-0.64,1.264-1.399c0-0.832-0.472-1.399-1.264-1.415
			C176.429,106.399,175.989,106.95,175.989,107.83z"/>
		<path d="M180.541,110.349c0.12,0.6,0.472,0.919,1.096,0.919c1.335,0,1.519-1.487,1.566-2.502l-0.016-0.016
			c-0.344,0.568-0.848,0.879-1.52,0.879c-1.055,0-1.743-0.72-1.743-1.815c0-1.063,0.584-1.863,1.815-1.863
			c1.52,0,1.975,1.271,1.975,2.846c0,1.911-0.863,2.902-2.055,2.902c-0.879,0-1.551-0.432-1.639-1.351H180.541z M180.437,107.83
			c0,0.855,0.48,1.367,1.304,1.367c0.8,0,1.264-0.64,1.264-1.399c0-0.832-0.472-1.399-1.264-1.415
			C180.877,106.399,180.437,106.95,180.437,107.83z"/>
		<path d="M184.99,110.349c0.12,0.6,0.472,0.919,1.096,0.919c1.335,0,1.519-1.487,1.566-2.502l-0.016-0.016
			c-0.344,0.568-0.848,0.879-1.52,0.879c-1.055,0-1.743-0.72-1.743-1.815c0-1.063,0.584-1.863,1.815-1.863
			c1.52,0,1.975,1.271,1.975,2.846c0,1.911-0.863,2.902-2.055,2.902c-0.879,0-1.551-0.432-1.639-1.351H184.99z M184.885,107.83
			c0,0.855,0.48,1.367,1.304,1.367c0.8,0,1.264-0.64,1.264-1.399c0-0.832-0.472-1.399-1.264-1.415
			C185.326,106.399,184.885,106.95,184.885,107.83z"/>
	</g>
	<g>
		<path d="M181.499,126.93c0,1.496-0.352,2.831-1.903,2.831c-1.559,0-1.91-1.327-1.91-2.886c0-1.423,0.287-2.862,1.91-2.862
			C181.268,124.012,181.499,125.619,181.499,126.93z M179.58,124.443c-1.119,0-1.383,1.239-1.383,2.486
			c0,1.447,0.319,2.399,1.398,2.399c1.216,0,1.392-1.319,1.392-2.455C180.988,125.659,180.772,124.443,179.58,124.443z"/>
	</g>
	<rect x="0.75" y="27.463" class="st2" width="56.693" height="18.142"/>
	<g>
	</g>
	<g>
	</g>
	<g>
	</g>
	<g>
	</g>
	<g>
	</g>
	<g>
	</g>
	<g>
	</g>
	<g>
	</g>
	<g>
	</g>
	<g>
	</g>
	<g>
	</g>
	<g>
	</g>
	<g>
	</g>
	<g>
	</g>
	<g>
	</g>
	<g>
	</g>
</g>
</svg>
