<?xml version="1.0" encoding="utf-8"?>
<!-- Generator: Adobe Illustrator 28.2.0, SVG Export Plug-In . SVG Version: 6.00 Build 0)  -->
<svg version="1.1" xmlns="http://www.w3.org/2000/svg" xmlns:xlink="http://www.w3.org/1999/xlink" x="0px" y="0px"
	 width="351.002px" height="109.6px" viewBox="0 0 351.002 109.6" style="enable-background:new 0 0 351.002 109.6;"
	 xml:space="preserve">
<style type="text/css">
	.st0{fill:none;stroke:#000000;stroke-width:0.5;stroke-miterlimit:10;}
	.st1{fill:#233B59;}
	.st2{fill:none;stroke:#FF0000;stroke-width:1.5;stroke-miterlimit:10;}
</style>
<g id="レイヤー_1">
	<rect x="84.542" y="0.5" class="st0" width="56.693" height="90.709"/>
	<line class="st0" x1="84.542" y1="18.642" x2="141.235" y2="18.642"/>
	<line class="st0" x1="84.542" y1="36.783" x2="141.235" y2="36.783"/>
	<line class="st0" x1="84.542" y1="54.925" x2="141.235" y2="54.925"/>
	<line class="st0" x1="84.542" y1="73.067" x2="141.235" y2="73.067"/>
	<g>
		<path class="st0" d="M143.732,0.25c3.339,0,3.339,19.708,3.339,22.74s0,22.74,3.339,22.74c-3.339,0-3.339,19.708-3.339,22.74
			c0,3.032,0,22.74-3.339,22.74"/>
	</g>
	<rect x="235.043" y="0.5" class="st0" width="56.693" height="108.85"/>
	<line class="st0" x1="235.043" y1="18.642" x2="291.736" y2="18.642"/>
	<line class="st0" x1="235.043" y1="36.783" x2="291.736" y2="36.783"/>
	<line class="st0" x1="235.043" y1="54.925" x2="291.736" y2="54.925"/>
	<line class="st0" x1="235.043" y1="73.067" x2="291.736" y2="73.067"/>
	<g>
		<path class="st0" d="M293.567,0.25c4.005,0,4.005,23.638,4.005,27.275s0,27.275,4.005,27.275c-4.005,0-4.005,23.638-4.005,27.275
			s0,27.275-4.005,27.275"/>
	</g>
	<rect x="0.25" y="45.854" class="st0" width="56.693" height="18.142"/>
	<line class="st0" x1="235.043" y1="91.209" x2="291.736" y2="91.209"/>
</g>
<g id="レイヤー_2">
	<g>
		<path d="M106.407,8.277h-1.455V7.941c0.855-0.056,1.391-0.144,1.559-1.111h0.408v5.637h-0.512V8.277z"/>
		<path d="M110.855,8.277H109.4V7.941c0.855-0.056,1.391-0.144,1.559-1.111h0.408v5.637h-0.512V8.277z"/>
		<path d="M115.303,8.277h-1.455V7.941c0.855-0.056,1.391-0.144,1.559-1.111h0.408v5.637h-0.512V8.277z"/>
		<path d="M119.751,8.277h-1.455V7.941c0.855-0.056,1.391-0.144,1.559-1.111h0.408v5.637h-0.512V8.277z"/>
	</g>
	<g>
		<path d="M104.544,26.525c0-1.111,0.72-1.847,1.831-1.847c1.135,0,1.735,0.695,1.735,1.559c0,1.495-1.615,1.871-2.455,2.51
			c-0.368,0.28-0.711,0.6-0.736,1.136h3.143v0.432h-3.686c0.008-0.536,0.08-0.959,0.44-1.375c1.175-1.359,2.734-1.344,2.734-2.671
			c0-0.735-0.544-1.159-1.239-1.159c-0.736,0-1.255,0.656-1.224,1.415H104.544z"/>
		<path d="M108.992,26.525c0-1.111,0.72-1.847,1.831-1.847c1.135,0,1.735,0.695,1.735,1.559c0,1.495-1.615,1.871-2.455,2.51
			c-0.368,0.28-0.711,0.6-0.735,1.136h3.142v0.432h-3.686c0.008-0.536,0.08-0.959,0.44-1.375c1.175-1.359,2.734-1.344,2.734-2.671
			c0-0.735-0.544-1.159-1.239-1.159c-0.736,0-1.255,0.656-1.224,1.415H108.992z"/>
		<path d="M113.44,26.525c0-1.111,0.72-1.847,1.831-1.847c1.135,0,1.735,0.695,1.735,1.559c0,1.495-1.615,1.871-2.455,2.51
			c-0.368,0.28-0.711,0.6-0.735,1.136h3.142v0.432h-3.686c0.008-0.536,0.08-0.959,0.44-1.375c1.175-1.359,2.734-1.344,2.734-2.671
			c0-0.735-0.544-1.159-1.239-1.159c-0.736,0-1.255,0.656-1.224,1.415H113.44z"/>
		<path d="M117.888,26.525c0-1.111,0.72-1.847,1.831-1.847c1.135,0,1.735,0.695,1.735,1.559c0,1.495-1.615,1.871-2.455,2.51
			c-0.368,0.28-0.711,0.6-0.735,1.136h3.142v0.432h-3.686c0.008-0.536,0.08-0.959,0.44-1.375c1.175-1.359,2.734-1.344,2.734-2.671
			c0-0.735-0.544-1.159-1.239-1.159c-0.736,0-1.255,0.656-1.224,1.415H117.888z"/>
	</g>
	<g>
		<path d="M105.759,45.314c0.951,0.008,1.615-0.216,1.615-1.08c0-0.695-0.552-0.991-1.2-0.991c-0.719,0-1.207,0.504-1.207,1.207
			h-0.512c0-0.503,0.168-0.911,0.543-1.263c0.352-0.32,0.815-0.375,1.279-0.375c0.888,0,1.607,0.448,1.607,1.391
			c0,0.583-0.256,1.023-0.8,1.255c0.815,0.256,1,0.872,1,1.391c0,0.927-0.656,1.679-1.815,1.711c-1.303,0-1.887-0.432-2.007-1.743
			h0.512c0,0.855,0.567,1.311,1.399,1.311c0.816,0,1.431-0.608,1.399-1.271c-0.032-0.911-0.824-1.199-1.815-1.127V45.314z"/>
		<path d="M110.207,45.314c0.952,0.008,1.615-0.216,1.615-1.08c0-0.695-0.552-0.991-1.2-0.991c-0.719,0-1.207,0.504-1.207,1.207
			h-0.512c0-0.503,0.168-0.911,0.543-1.263c0.352-0.32,0.816-0.375,1.279-0.375c0.888,0,1.607,0.448,1.607,1.391
			c0,0.583-0.256,1.023-0.8,1.255c0.815,0.256,1,0.872,1,1.391c0,0.927-0.656,1.679-1.815,1.711c-1.303,0-1.887-0.432-2.007-1.743
			h0.512c0,0.855,0.567,1.311,1.399,1.311c0.816,0,1.432-0.608,1.399-1.271c-0.032-0.911-0.824-1.199-1.815-1.127V45.314z"/>
		<path d="M114.655,45.314c0.952,0.008,1.615-0.216,1.615-1.08c0-0.695-0.552-0.991-1.2-0.991c-0.719,0-1.207,0.504-1.207,1.207
			h-0.512c0-0.503,0.168-0.911,0.543-1.263c0.352-0.32,0.816-0.375,1.279-0.375c0.888,0,1.607,0.448,1.607,1.391
			c0,0.583-0.256,1.023-0.8,1.255c0.815,0.256,1,0.872,1,1.391c0,0.927-0.656,1.679-1.815,1.711c-1.303,0-1.887-0.432-2.007-1.743
			h0.512c0,0.855,0.567,1.311,1.399,1.311c0.816,0,1.432-0.608,1.399-1.271c-0.032-0.911-0.824-1.199-1.815-1.127V45.314z"/>
		<path d="M119.104,45.314c0.952,0.008,1.615-0.216,1.615-1.08c0-0.695-0.552-0.991-1.2-0.991c-0.719,0-1.207,0.504-1.207,1.207
			H117.8c0-0.503,0.168-0.911,0.543-1.263c0.352-0.32,0.816-0.375,1.279-0.375c0.888,0,1.607,0.448,1.607,1.391
			c0,0.583-0.256,1.023-0.8,1.255c0.815,0.256,1,0.872,1,1.391c0,0.927-0.656,1.679-1.815,1.711c-1.303,0-1.887-0.432-2.007-1.743
			h0.512c0,0.855,0.567,1.311,1.399,1.311c0.816,0,1.432-0.608,1.399-1.271c-0.032-0.911-0.824-1.199-1.815-1.127V45.314z"/>
	</g>
	<g>
		<path d="M112.852,62.189c-0.208,0-0.392-0.168-0.392-0.384s0.184-0.392,0.392-0.392c0.208,0,0.384,0.192,0.384,0.392
			C113.236,62.013,113.06,62.189,112.852,62.189z"/>
		<path d="M112.852,66.637c-0.208,0-0.392-0.168-0.392-0.384s0.184-0.392,0.392-0.392c0.208,0,0.384,0.192,0.384,0.392
			C113.236,66.461,113.06,66.637,112.852,66.637z"/>
	</g>
	<g>
		<path d="M104.544,80.452c0-0.775,0.72-1.407,1.607-1.375c0.864,0,1.703,0.408,1.703,1.375c0,0.584-0.232,1-0.768,1.263
			c0.616,0.224,1,0.744,1,1.399c0,1.104-0.784,1.711-1.983,1.711c-0.815,0-1.759-0.56-1.759-1.663c0-0.671,0.344-1.231,0.983-1.479
			C104.784,81.34,104.544,81.124,104.544,80.452z M104.856,83.162c0,0.696,0.543,1.231,1.399,1.231c0.744,0,1.319-0.512,1.319-1.263
			c0-0.792-0.6-1.175-1.351-1.175C105.44,81.955,104.856,82.331,104.856,83.162z M105.056,80.524c0,0.695,0.576,0.999,1.199,0.999
			c0.616,0,1.087-0.312,1.087-1.111c0-0.567-0.368-0.903-1.144-0.903C105.568,79.509,105.056,79.86,105.056,80.524z"/>
		<path d="M108.992,80.452c0-0.775,0.72-1.407,1.607-1.375c0.864,0,1.703,0.408,1.703,1.375c0,0.584-0.232,1-0.768,1.263
			c0.616,0.224,1,0.744,1,1.399c0,1.104-0.784,1.711-1.983,1.711c-0.815,0-1.759-0.56-1.759-1.663c0-0.671,0.344-1.231,0.984-1.479
			C109.232,81.34,108.992,81.124,108.992,80.452z M109.303,83.162c0,0.696,0.544,1.231,1.399,1.231c0.744,0,1.319-0.512,1.319-1.263
			c0-0.792-0.6-1.175-1.351-1.175C109.887,81.955,109.303,82.331,109.303,83.162z M109.504,80.524c0,0.695,0.576,0.999,1.199,0.999
			c0.616,0,1.087-0.312,1.087-1.111c0-0.567-0.368-0.903-1.143-0.903C110.015,79.509,109.504,79.86,109.504,80.524z"/>
		<path d="M113.44,80.452c0-0.775,0.72-1.407,1.607-1.375c0.864,0,1.703,0.408,1.703,1.375c0,0.584-0.232,1-0.768,1.263
			c0.616,0.224,1,0.744,1,1.399c0,1.104-0.784,1.711-1.983,1.711c-0.815,0-1.759-0.56-1.759-1.663c0-0.671,0.344-1.231,0.984-1.479
			C113.68,81.34,113.44,81.124,113.44,80.452z M113.752,83.162c0,0.696,0.544,1.231,1.399,1.231c0.744,0,1.319-0.512,1.319-1.263
			c0-0.792-0.6-1.175-1.351-1.175C114.336,81.955,113.752,82.331,113.752,83.162z M113.952,80.524c0,0.695,0.576,0.999,1.199,0.999
			c0.616,0,1.087-0.312,1.087-1.111c0-0.567-0.368-0.903-1.143-0.903C114.464,79.509,113.952,79.86,113.952,80.524z"/>
		<path d="M117.888,80.452c0-0.775,0.72-1.407,1.607-1.375c0.864,0,1.703,0.408,1.703,1.375c0,0.584-0.232,1-0.768,1.263
			c0.616,0.224,1,0.744,1,1.399c0,1.104-0.784,1.711-1.983,1.711c-0.815,0-1.759-0.56-1.759-1.663c0-0.671,0.344-1.231,0.984-1.479
			C118.128,81.34,117.888,81.124,117.888,80.452z M118.2,83.162c0,0.696,0.544,1.231,1.399,1.231c0.744,0,1.319-0.512,1.319-1.263
			c0-0.792-0.6-1.175-1.351-1.175C118.784,81.955,118.2,82.331,118.2,83.162z M118.4,80.524c0,0.695,0.576,0.999,1.199,0.999
			c0.616,0,1.087-0.312,1.087-1.111c0-0.567-0.368-0.903-1.143-0.903C118.912,79.509,118.4,79.86,118.4,80.524z"/>
	</g>
	<g>
		<path d="M153.188,48.406v-5.757h1.967c0.64,0,1.239,0.04,1.775,0.432c0.76,0.552,0.959,1.671,0.959,2.439
			c0,0.759-0.167,1.607-0.695,2.183c-0.527,0.592-1.279,0.704-2.039,0.704H153.188z M153.732,47.942h1.303
			c0.488,0,0.912-0.032,1.352-0.264c0.768-0.392,0.96-1.375,0.96-2.159c0-0.84-0.185-1.759-0.992-2.191
			c-0.344-0.184-0.839-0.216-1.319-0.216h-1.303V47.942z"/>
		<path d="M160.794,45.991c0.176-0.016,0.472-0.064,0.632-0.136c0.16-0.072,0.176-0.288,0.176-0.432
			c0-0.488-0.288-0.839-1.031-0.839c-0.664,0-1.119,0.216-1.207,0.936h-0.488c0.072-0.976,0.8-1.368,1.703-1.368
			c0.84,0,1.503,0.328,1.503,1.288v2.255c0,0.375,0.097,0.463,0.504,0.32v0.375c-0.072,0.024-0.24,0.08-0.376,0.08
			c-0.08,0-0.144-0.008-0.216-0.024c-0.319-0.048-0.376-0.328-0.384-0.616c-0.399,0.448-0.943,0.688-1.543,0.688
			c-0.728,0-1.383-0.392-1.383-1.191c0-0.695,0.479-1.119,1.447-1.247L160.794,45.991z M161.602,46.231
			c-0.407,0.168-0.823,0.2-1.239,0.232c-0.728,0.056-1.167,0.32-1.167,0.879c0,0.504,0.439,0.744,0.896,0.744
			c0.759,0,1.511-0.368,1.511-1.208V46.231z"/>
		<path d="M164.795,48.422c-0.112,0.024-0.32,0.096-0.552,0.096c-0.472,0-0.736-0.208-0.736-0.823v-3.031h-0.583v-0.399h0.583
			v-1.151h0.48v1.151h0.775v0.399h-0.775v2.839c0,0.408,0.016,0.583,0.415,0.583c0.128,0,0.265-0.024,0.393-0.056V48.422z"/>
		<path d="M167.466,45.991c0.176-0.016,0.472-0.064,0.632-0.136c0.16-0.072,0.176-0.288,0.176-0.432
			c0-0.488-0.288-0.839-1.031-0.839c-0.664,0-1.119,0.216-1.207,0.936h-0.488c0.072-0.976,0.8-1.368,1.703-1.368
			c0.84,0,1.503,0.328,1.503,1.288v2.255c0,0.375,0.097,0.463,0.504,0.32v0.375c-0.072,0.024-0.24,0.08-0.376,0.08
			c-0.08,0-0.144-0.008-0.216-0.024c-0.319-0.048-0.376-0.328-0.384-0.616c-0.399,0.448-0.943,0.688-1.543,0.688
			c-0.728,0-1.383-0.392-1.383-1.191c0-0.695,0.479-1.119,1.447-1.247L167.466,45.991z M168.274,46.231
			c-0.407,0.168-0.823,0.2-1.239,0.232c-0.728,0.056-1.167,0.32-1.167,0.879c0,0.504,0.439,0.744,0.896,0.744
			c0.759,0,1.511-0.368,1.511-1.208V46.231z"/>
		<path d="M170.627,43.384h-0.016v5.021h-0.544v-5.757h0.615l3.326,5.029h0.017v-5.029h0.543v5.757h-0.631L170.627,43.384z"/>
		<path d="M178.594,44.264h0.48v4.142h-0.48V47.83c-0.256,0.288-0.607,0.688-1.335,0.688c-1.104,0-1.471-0.664-1.471-1.527v-2.727
			h0.479v2.718c0,0.712,0.312,1.104,1.063,1.104c0.791,0,1.263-0.656,1.263-1.567V44.264z"/>
		<path d="M180.652,48.406h-0.479v-4.142h0.479v0.624h0.017c0.247-0.472,0.743-0.736,1.279-0.736c0.768,0,1.039,0.36,1.215,0.8
			c0.272-0.536,0.76-0.8,1.352-0.8c1.127,0,1.287,0.808,1.287,1.639v2.615h-0.479v-2.862c0-0.592-0.208-0.959-0.888-0.959
			c-0.352,0-0.695,0.152-0.936,0.472c-0.208,0.272-0.271,0.775-0.271,1.119v2.231h-0.48v-2.862c0-0.592-0.208-0.959-0.887-0.959
			c-0.353,0-0.696,0.152-0.936,0.472c-0.208,0.272-0.272,0.775-0.272,1.119V48.406z"/>
		<path d="M193.186,45.863h-3.998v-0.48h3.998V45.863z M193.186,47.414h-3.998v-0.48h3.998V47.414z"/>
		<path d="M196.604,44.144c0-0.775,0.72-1.407,1.607-1.375c0.863,0,1.703,0.408,1.703,1.375c0,0.584-0.232,1-0.768,1.263
			c0.615,0.224,0.999,0.744,0.999,1.399c0,1.104-0.783,1.711-1.982,1.711c-0.816,0-1.76-0.56-1.76-1.663
			c0-0.671,0.344-1.231,0.983-1.479C196.844,45.032,196.604,44.816,196.604,44.144z M196.915,46.854
			c0,0.696,0.544,1.231,1.399,1.231c0.743,0,1.319-0.512,1.319-1.263c0-0.792-0.6-1.175-1.352-1.175
			C197.499,45.647,196.915,46.023,196.915,46.854z M197.115,44.216c0,0.695,0.575,0.999,1.199,0.999
			c0.616,0,1.088-0.312,1.088-1.111c0-0.567-0.368-0.903-1.144-0.903C197.627,43.201,197.115,43.552,197.115,44.216z"/>
	</g>
	<g>
		<path d="M256.908,8.277h-1.455V7.941c0.855-0.056,1.391-0.144,1.559-1.111h0.408v5.637h-0.512V8.277z"/>
		<path d="M261.356,8.277h-1.455V7.941c0.855-0.056,1.392-0.144,1.56-1.111h0.407v5.637h-0.512V8.277z"/>
		<path d="M265.804,8.277h-1.455V7.941c0.855-0.056,1.392-0.144,1.56-1.111h0.407v5.637h-0.512V8.277z"/>
		<path d="M270.252,8.277h-1.455V7.941c0.855-0.056,1.392-0.144,1.56-1.111h0.407v5.637h-0.512V8.277z"/>
	</g>
	<g>
		<path d="M255.045,26.525c0-1.111,0.72-1.847,1.831-1.847c1.136,0,1.735,0.695,1.735,1.559c0,1.495-1.615,1.871-2.455,2.51
			c-0.367,0.28-0.711,0.6-0.735,1.136h3.143v0.432h-3.687c0.008-0.536,0.08-0.959,0.44-1.375c1.175-1.359,2.734-1.344,2.734-2.671
			c0-0.735-0.544-1.159-1.239-1.159c-0.736,0-1.256,0.656-1.224,1.415H255.045z"/>
		<path d="M259.493,26.525c0-1.111,0.72-1.847,1.831-1.847c1.135,0,1.734,0.695,1.734,1.559c0,1.495-1.615,1.871-2.454,2.51
			c-0.368,0.28-0.712,0.6-0.735,1.136h3.142v0.432h-3.686c0.008-0.536,0.08-0.959,0.439-1.375c1.176-1.359,2.734-1.344,2.734-2.671
			c0-0.735-0.544-1.159-1.239-1.159c-0.735,0-1.255,0.656-1.224,1.415H259.493z"/>
		<path d="M263.942,26.525c0-1.111,0.72-1.847,1.831-1.847c1.135,0,1.734,0.695,1.734,1.559c0,1.495-1.615,1.871-2.454,2.51
			c-0.368,0.28-0.712,0.6-0.735,1.136h3.142v0.432h-3.686c0.008-0.536,0.08-0.959,0.439-1.375c1.176-1.359,2.734-1.344,2.734-2.671
			c0-0.735-0.544-1.159-1.239-1.159c-0.735,0-1.255,0.656-1.224,1.415H263.942z"/>
		<path d="M268.39,26.525c0-1.111,0.72-1.847,1.831-1.847c1.135,0,1.734,0.695,1.734,1.559c0,1.495-1.615,1.871-2.454,2.51
			c-0.368,0.28-0.712,0.6-0.735,1.136h3.142v0.432h-3.686c0.008-0.536,0.08-0.959,0.439-1.375c1.176-1.359,2.734-1.344,2.734-2.671
			c0-0.735-0.544-1.159-1.239-1.159c-0.735,0-1.255,0.656-1.224,1.415H268.39z"/>
	</g>
	<g>
		<path d="M256.261,45.314c0.951,0.008,1.615-0.216,1.615-1.08c0-0.695-0.552-0.991-1.2-0.991c-0.719,0-1.207,0.504-1.207,1.207
			h-0.512c0-0.503,0.168-0.911,0.544-1.263c0.352-0.32,0.815-0.375,1.279-0.375c0.888,0,1.607,0.448,1.607,1.391
			c0,0.583-0.256,1.023-0.8,1.255c0.815,0.256,0.999,0.872,0.999,1.391c0,0.927-0.655,1.679-1.814,1.711
			c-1.304,0-1.888-0.432-2.007-1.743h0.512c0,0.855,0.567,1.311,1.398,1.311c0.816,0,1.432-0.608,1.399-1.271
			c-0.031-0.911-0.823-1.199-1.814-1.127V45.314z"/>
		<path d="M260.708,45.314c0.952,0.008,1.615-0.216,1.615-1.08c0-0.695-0.552-0.991-1.199-0.991c-0.72,0-1.207,0.504-1.207,1.207
			h-0.512c0-0.503,0.168-0.911,0.543-1.263c0.353-0.32,0.816-0.375,1.279-0.375c0.888,0,1.607,0.448,1.607,1.391
			c0,0.583-0.256,1.023-0.8,1.255c0.815,0.256,1,0.872,1,1.391c0,0.927-0.656,1.679-1.815,1.711c-1.303,0-1.887-0.432-2.007-1.743
			h0.512c0,0.855,0.567,1.311,1.399,1.311c0.815,0,1.432-0.608,1.399-1.271c-0.032-0.911-0.824-1.199-1.815-1.127V45.314z"/>
		<path d="M265.156,45.314c0.952,0.008,1.615-0.216,1.615-1.08c0-0.695-0.552-0.991-1.199-0.991c-0.72,0-1.207,0.504-1.207,1.207
			h-0.512c0-0.503,0.168-0.911,0.543-1.263c0.353-0.32,0.816-0.375,1.279-0.375c0.888,0,1.607,0.448,1.607,1.391
			c0,0.583-0.256,1.023-0.8,1.255c0.815,0.256,1,0.872,1,1.391c0,0.927-0.656,1.679-1.815,1.711c-1.303,0-1.887-0.432-2.007-1.743
			h0.512c0,0.855,0.567,1.311,1.399,1.311c0.815,0,1.432-0.608,1.399-1.271c-0.032-0.911-0.824-1.199-1.815-1.127V45.314z"/>
		<path d="M269.605,45.314c0.952,0.008,1.615-0.216,1.615-1.08c0-0.695-0.552-0.991-1.199-0.991c-0.72,0-1.207,0.504-1.207,1.207
			h-0.512c0-0.503,0.168-0.911,0.543-1.263c0.353-0.32,0.816-0.375,1.279-0.375c0.888,0,1.607,0.448,1.607,1.391
			c0,0.583-0.256,1.023-0.8,1.255c0.815,0.256,1,0.872,1,1.391c0,0.927-0.656,1.679-1.815,1.711c-1.303,0-1.887-0.432-2.007-1.743
			h0.512c0,0.855,0.567,1.311,1.399,1.311c0.815,0,1.432-0.608,1.399-1.271c-0.032-0.911-0.824-1.199-1.815-1.127V45.314z"/>
	</g>
	<g>
		<path d="M263.354,62.189c-0.208,0-0.393-0.168-0.393-0.384s0.185-0.392,0.393-0.392c0.207,0,0.383,0.192,0.383,0.392
			C263.736,62.013,263.561,62.189,263.354,62.189z"/>
		<path d="M263.354,66.637c-0.208,0-0.393-0.168-0.393-0.384s0.185-0.392,0.393-0.392c0.207,0,0.383,0.192,0.383,0.392
			C263.736,66.461,263.561,66.637,263.354,66.637z"/>
	</g>
	<g>
		<path d="M255.045,80.452c0-0.775,0.72-1.407,1.607-1.375c0.863,0,1.703,0.408,1.703,1.375c0,0.584-0.232,1-0.768,1.263
			c0.615,0.224,0.999,0.744,0.999,1.399c0,1.104-0.783,1.711-1.982,1.711c-0.815,0-1.759-0.56-1.759-1.663
			c0-0.671,0.344-1.231,0.983-1.479C255.285,81.34,255.045,81.124,255.045,80.452z M255.358,83.162c0,0.696,0.543,1.231,1.398,1.231
			c0.744,0,1.319-0.512,1.319-1.263c0-0.792-0.6-1.175-1.351-1.175C255.941,81.955,255.358,82.331,255.358,83.162z M255.557,80.524
			c0,0.695,0.576,0.999,1.199,0.999c0.616,0,1.088-0.312,1.088-1.111c0-0.567-0.368-0.903-1.144-0.903
			C256.068,79.509,255.557,79.86,255.557,80.524z"/>
		<path d="M259.493,80.452c0-0.775,0.72-1.407,1.606-1.375c0.864,0,1.703,0.408,1.703,1.375c0,0.584-0.231,1-0.768,1.263
			c0.616,0.224,1,0.744,1,1.399c0,1.104-0.784,1.711-1.983,1.711c-0.815,0-1.759-0.56-1.759-1.663c0-0.671,0.344-1.231,0.983-1.479
			C259.733,81.34,259.493,81.124,259.493,80.452z M259.805,83.162c0,0.696,0.544,1.231,1.399,1.231c0.743,0,1.319-0.512,1.319-1.263
			c0-0.792-0.6-1.175-1.352-1.175C260.389,81.955,259.805,82.331,259.805,83.162z M260.005,80.524c0,0.695,0.575,0.999,1.199,0.999
			c0.615,0,1.087-0.312,1.087-1.111c0-0.567-0.367-0.903-1.143-0.903C260.517,79.509,260.005,79.86,260.005,80.524z"/>
		<path d="M263.942,80.452c0-0.775,0.72-1.407,1.606-1.375c0.864,0,1.703,0.408,1.703,1.375c0,0.584-0.231,1-0.768,1.263
			c0.616,0.224,1,0.744,1,1.399c0,1.104-0.784,1.711-1.983,1.711c-0.815,0-1.759-0.56-1.759-1.663c0-0.671,0.344-1.231,0.983-1.479
			C264.181,81.34,263.942,81.124,263.942,80.452z M264.253,83.162c0,0.696,0.544,1.231,1.399,1.231c0.743,0,1.319-0.512,1.319-1.263
			c0-0.792-0.6-1.175-1.352-1.175C264.837,81.955,264.253,82.331,264.253,83.162z M264.453,80.524c0,0.695,0.575,0.999,1.199,0.999
			c0.615,0,1.087-0.312,1.087-1.111c0-0.567-0.367-0.903-1.143-0.903C264.965,79.509,264.453,79.86,264.453,80.524z"/>
		<path d="M268.39,80.452c0-0.775,0.72-1.407,1.606-1.375c0.864,0,1.703,0.408,1.703,1.375c0,0.584-0.231,1-0.768,1.263
			c0.616,0.224,1,0.744,1,1.399c0,1.104-0.784,1.711-1.983,1.711c-0.815,0-1.759-0.56-1.759-1.663c0-0.671,0.344-1.231,0.983-1.479
			C268.629,81.34,268.39,81.124,268.39,80.452z M268.701,83.162c0,0.696,0.544,1.231,1.399,1.231c0.743,0,1.319-0.512,1.319-1.263
			c0-0.792-0.6-1.175-1.352-1.175C269.285,81.955,268.701,82.331,268.701,83.162z M268.901,80.524c0,0.695,0.575,0.999,1.199,0.999
			c0.615,0,1.087-0.312,1.087-1.111c0-0.567-0.367-0.903-1.143-0.903C269.413,79.509,268.901,79.86,268.901,80.524z"/>
	</g>
	<g>
		<path d="M303.69,58.004v-5.757h1.967c0.64,0,1.239,0.04,1.775,0.432c0.76,0.552,0.959,1.671,0.959,2.439
			c0,0.759-0.167,1.607-0.695,2.183c-0.527,0.592-1.279,0.704-2.039,0.704H303.69z M304.234,57.54h1.303
			c0.488,0,0.912-0.032,1.352-0.264c0.768-0.392,0.96-1.375,0.96-2.159c0-0.84-0.185-1.759-0.992-2.191
			c-0.344-0.184-0.839-0.216-1.319-0.216h-1.303V57.54z"/>
		<path d="M311.296,55.589c0.176-0.016,0.472-0.064,0.632-0.136c0.16-0.072,0.176-0.288,0.176-0.432
			c0-0.488-0.288-0.839-1.031-0.839c-0.664,0-1.119,0.216-1.207,0.936h-0.488c0.072-0.976,0.8-1.368,1.703-1.368
			c0.84,0,1.503,0.328,1.503,1.288v2.255c0,0.375,0.097,0.463,0.504,0.32v0.375c-0.072,0.024-0.24,0.08-0.376,0.08
			c-0.08,0-0.144-0.008-0.216-0.024c-0.319-0.048-0.376-0.328-0.384-0.616c-0.399,0.448-0.943,0.688-1.543,0.688
			c-0.728,0-1.383-0.392-1.383-1.191c0-0.695,0.479-1.119,1.447-1.247L311.296,55.589z M312.104,55.829
			c-0.407,0.168-0.823,0.2-1.239,0.232c-0.728,0.056-1.167,0.32-1.167,0.879c0,0.504,0.439,0.744,0.896,0.744
			c0.759,0,1.511-0.368,1.511-1.208V55.829z"/>
		<path d="M315.297,58.02c-0.112,0.024-0.32,0.096-0.552,0.096c-0.472,0-0.736-0.208-0.736-0.823v-3.031h-0.583v-0.399h0.583v-1.151
			h0.48v1.151h0.775v0.399h-0.775V57.1c0,0.408,0.016,0.583,0.415,0.583c0.128,0,0.265-0.024,0.393-0.056V58.02z"/>
		<path d="M317.968,55.589c0.176-0.016,0.472-0.064,0.632-0.136c0.16-0.072,0.176-0.288,0.176-0.432
			c0-0.488-0.288-0.839-1.031-0.839c-0.664,0-1.119,0.216-1.207,0.936h-0.488c0.072-0.976,0.8-1.368,1.703-1.368
			c0.84,0,1.503,0.328,1.503,1.288v2.255c0,0.375,0.097,0.463,0.504,0.32v0.375c-0.072,0.024-0.24,0.08-0.376,0.08
			c-0.08,0-0.144-0.008-0.216-0.024c-0.319-0.048-0.376-0.328-0.384-0.616c-0.399,0.448-0.943,0.688-1.543,0.688
			c-0.728,0-1.383-0.392-1.383-1.191c0-0.695,0.479-1.119,1.447-1.247L317.968,55.589z M318.776,55.829
			c-0.407,0.168-0.823,0.2-1.239,0.232c-0.728,0.056-1.167,0.32-1.167,0.879c0,0.504,0.439,0.744,0.896,0.744
			c0.759,0,1.511-0.368,1.511-1.208V55.829z"/>
		<path d="M321.129,52.982h-0.016v5.021h-0.544v-5.757h0.615l3.326,5.029h0.017v-5.029h0.543v5.757h-0.631L321.129,52.982z"/>
		<path d="M329.096,53.862h0.48v4.142h-0.48v-0.576c-0.256,0.288-0.607,0.688-1.335,0.688c-1.104,0-1.471-0.664-1.471-1.527v-2.727
			h0.479v2.718c0,0.712,0.312,1.104,1.063,1.104c0.791,0,1.263-0.656,1.263-1.567V53.862z"/>
		<path d="M331.153,58.004h-0.479v-4.142h0.479v0.624h0.017c0.247-0.472,0.743-0.736,1.279-0.736c0.768,0,1.039,0.36,1.215,0.8
			c0.272-0.536,0.76-0.8,1.352-0.8c1.127,0,1.287,0.808,1.287,1.639v2.615h-0.479v-2.862c0-0.592-0.208-0.959-0.888-0.959
			c-0.352,0-0.695,0.152-0.936,0.472c-0.208,0.272-0.271,0.775-0.271,1.119v2.231h-0.48v-2.862c0-0.592-0.208-0.959-0.887-0.959
			c-0.353,0-0.696,0.152-0.936,0.472c-0.208,0.272-0.272,0.775-0.272,1.119V58.004z"/>
		<path d="M343.688,55.461h-3.998v-0.48h3.998V55.461z M343.688,57.013h-3.998v-0.48h3.998V57.013z"/>
		<path d="M347.497,56.765c0.12,0.6,0.472,0.919,1.096,0.919c1.335,0,1.519-1.487,1.567-2.502l-0.017-0.016
			c-0.344,0.568-0.848,0.879-1.519,0.879c-1.056,0-1.743-0.72-1.743-1.815c0-1.063,0.583-1.863,1.814-1.863
			c1.52,0,1.976,1.271,1.976,2.846c0,1.911-0.864,2.902-2.056,2.902c-0.879,0-1.551-0.432-1.639-1.351H347.497z M347.394,54.246
			c0,0.855,0.479,1.367,1.303,1.367c0.8,0,1.264-0.64,1.264-1.399c0-0.832-0.472-1.399-1.264-1.415
			C347.833,52.815,347.394,53.366,347.394,54.246z"/>
	</g>
	<g>
		<path d="M12.34,57.315v-5.757h0.544v5.757H12.34z"/>
		<path d="M14.78,57.315H14.3v-4.142h0.479v0.576c0.384-0.408,0.76-0.688,1.335-0.688c0.504,0,0.967,0.16,1.263,0.592
			c0.2,0.296,0.208,0.608,0.208,0.952v2.71h-0.479v-2.703c0-0.744-0.304-1.119-1.072-1.119c-0.591,0-1,0.384-1.151,0.808
			c-0.096,0.264-0.104,0.496-0.104,0.783V57.315z"/>
		<path d="M25.034,54.772h-3.998v-0.48h3.998V54.772z M25.034,56.324h-3.998v-0.48h3.998V56.324z"/>
		<path d="M28.844,56.076c0.12,0.6,0.472,0.919,1.096,0.919c1.335,0,1.519-1.487,1.567-2.502l-0.016-0.016
			c-0.344,0.568-0.847,0.879-1.519,0.879c-1.055,0-1.743-0.72-1.743-1.815c0-1.063,0.584-1.863,1.815-1.863
			c1.519,0,1.975,1.271,1.975,2.846c0,1.911-0.863,2.902-2.055,2.902c-0.88,0-1.551-0.432-1.639-1.351H28.844z M28.74,53.557
			c0,0.855,0.48,1.367,1.304,1.367c0.799,0,1.263-0.64,1.263-1.399c0-0.832-0.472-1.399-1.263-1.415
			C29.18,52.126,28.74,52.677,28.74,53.557z"/>
		<path d="M33.292,56.076c0.12,0.6,0.472,0.919,1.096,0.919c1.335,0,1.519-1.487,1.567-2.502l-0.016-0.016
			c-0.344,0.568-0.847,0.879-1.519,0.879c-1.055,0-1.743-0.72-1.743-1.815c0-1.063,0.584-1.863,1.815-1.863
			c1.52,0,1.975,1.271,1.975,2.846c0,1.911-0.863,2.902-2.055,2.902c-0.879,0-1.551-0.432-1.639-1.351H33.292z M33.188,53.557
			c0,0.855,0.48,1.367,1.303,1.367c0.8,0,1.264-0.64,1.264-1.399c0-0.832-0.472-1.399-1.264-1.415
			C33.628,52.126,33.188,52.677,33.188,53.557z"/>
		<path d="M37.74,56.076c0.12,0.6,0.472,0.919,1.096,0.919c1.335,0,1.519-1.487,1.567-2.502l-0.016-0.016
			c-0.344,0.568-0.847,0.879-1.519,0.879c-1.055,0-1.743-0.72-1.743-1.815c0-1.063,0.584-1.863,1.815-1.863
			c1.52,0,1.975,1.271,1.975,2.846c0,1.911-0.863,2.902-2.055,2.902c-0.879,0-1.551-0.432-1.639-1.351H37.74z M37.636,53.557
			c0,0.855,0.48,1.367,1.303,1.367c0.8,0,1.264-0.64,1.264-1.399c0-0.832-0.472-1.399-1.264-1.415
			C38.076,52.126,37.636,52.677,37.636,53.557z"/>
		<path d="M42.188,56.076c0.12,0.6,0.472,0.919,1.096,0.919c1.335,0,1.519-1.487,1.567-2.502l-0.016-0.016
			c-0.344,0.568-0.847,0.879-1.519,0.879c-1.055,0-1.743-0.72-1.743-1.815c0-1.063,0.584-1.863,1.815-1.863
			c1.52,0,1.975,1.271,1.975,2.846c0,1.911-0.863,2.902-2.055,2.902c-0.879,0-1.551-0.432-1.639-1.351H42.188z M42.084,53.557
			c0,0.855,0.48,1.367,1.303,1.367c0.8,0,1.264-0.64,1.264-1.399c0-0.832-0.472-1.399-1.264-1.415
			C42.524,52.126,42.084,52.677,42.084,53.557z"/>
	</g>
	<g>
		<g>
			<path class="st0" d="M28.583,63.996c0,27.042,26.038,36.169,54.666,36.282"/>
			<g>
				<polygon points="81.552,102.28 81.218,101.907 83.058,100.265 81.286,98.55 81.635,98.191 83.792,100.28 				"/>
			</g>
		</g>
	</g>
	<polygon class="st1" points="230.562,45.729 217.807,33.455 217.807,38.897 208.394,38.897 208.394,52.562 217.807,52.562 
		217.807,58.004 	"/>
	<g>
		<path d="M255.437,101.43c0.12,0.6,0.472,0.919,1.096,0.919c1.335,0,1.52-1.487,1.567-2.502l-0.017-0.016
			c-0.344,0.568-0.847,0.879-1.519,0.879c-1.056,0-1.743-0.72-1.743-1.815c0-1.063,0.584-1.863,1.815-1.863
			c1.519,0,1.975,1.271,1.975,2.846c0,1.911-0.863,2.902-2.055,2.902c-0.88,0-1.552-0.432-1.64-1.351H255.437z M255.333,98.911
			c0,0.855,0.479,1.367,1.304,1.367c0.799,0,1.263-0.64,1.263-1.399c0-0.832-0.472-1.399-1.263-1.415
			C255.773,97.48,255.333,98.032,255.333,98.911z"/>
		<path d="M259.885,101.43c0.12,0.6,0.472,0.919,1.096,0.919c1.335,0,1.519-1.487,1.566-2.502l-0.016-0.016
			c-0.344,0.568-0.848,0.879-1.52,0.879c-1.055,0-1.743-0.72-1.743-1.815c0-1.063,0.584-1.863,1.815-1.863
			c1.52,0,1.975,1.271,1.975,2.846c0,1.911-0.863,2.902-2.055,2.902c-0.879,0-1.551-0.432-1.639-1.351H259.885z M259.78,98.911
			c0,0.855,0.48,1.367,1.304,1.367c0.8,0,1.264-0.64,1.264-1.399c0-0.832-0.472-1.399-1.264-1.415
			C260.221,97.48,259.78,98.032,259.78,98.911z"/>
		<path d="M264.333,101.43c0.12,0.6,0.472,0.919,1.096,0.919c1.335,0,1.519-1.487,1.566-2.502l-0.016-0.016
			c-0.344,0.568-0.848,0.879-1.52,0.879c-1.055,0-1.743-0.72-1.743-1.815c0-1.063,0.584-1.863,1.815-1.863
			c1.52,0,1.975,1.271,1.975,2.846c0,1.911-0.863,2.902-2.055,2.902c-0.879,0-1.551-0.432-1.639-1.351H264.333z M264.229,98.911
			c0,0.855,0.48,1.367,1.304,1.367c0.8,0,1.264-0.64,1.264-1.399c0-0.832-0.472-1.399-1.264-1.415
			C264.669,97.48,264.229,98.032,264.229,98.911z"/>
		<path d="M268.781,101.43c0.12,0.6,0.472,0.919,1.096,0.919c1.335,0,1.519-1.487,1.566-2.502l-0.016-0.016
			c-0.344,0.568-0.848,0.879-1.52,0.879c-1.055,0-1.743-0.72-1.743-1.815c0-1.063,0.584-1.863,1.815-1.863
			c1.52,0,1.975,1.271,1.975,2.846c0,1.911-0.863,2.902-2.055,2.902c-0.879,0-1.551-0.432-1.639-1.351H268.781z M268.677,98.911
			c0,0.855,0.48,1.367,1.304,1.367c0.8,0,1.264-0.64,1.264-1.399c0-0.832-0.472-1.399-1.264-1.415
			C269.117,97.48,268.677,98.032,268.677,98.911z"/>
	</g>
	<rect x="235.043" y="91.209" class="st2" width="56.693" height="18.142"/>
	<g>
	</g>
	<g>
	</g>
	<g>
	</g>
	<g>
	</g>
	<g>
	</g>
	<g>
	</g>
	<g>
	</g>
	<g>
	</g>
	<g>
	</g>
	<g>
	</g>
	<g>
	</g>
	<g>
	</g>
	<g>
	</g>
	<g>
	</g>
	<g>
	</g>
	<g>
	</g>
</g>
</svg>
