<?xml version="1.0" encoding="utf-8"?>
<!-- Generator: Adobe Illustrator 28.2.0, SVG Export Plug-In . SVG Version: 6.00 Build 0)  -->
<svg version="1.1" xmlns="http://www.w3.org/2000/svg" xmlns:xlink="http://www.w3.org/1999/xlink" x="0px" y="0px"
	 width="345.106px" height="127.742px" viewBox="0 0 345.106 127.742" style="enable-background:new 0 0 345.106 127.742;"
	 xml:space="preserve">
<style type="text/css">
	.st0{fill:none;stroke:#000000;stroke-width:0.5;stroke-miterlimit:10;}
	.st1{fill:#233B59;}
	.st2{fill:none;stroke:#FF0000;stroke-width:1.5;stroke-miterlimit:10;}
</style>
<g id="レイヤー_1">
	<rect x="78.646" y="0.5" class="st0" width="56.693" height="108.85"/>
	<line class="st0" x1="78.646" y1="18.642" x2="135.339" y2="18.642"/>
	<line class="st0" x1="78.646" y1="36.783" x2="135.339" y2="36.783"/>
	<line class="st0" x1="78.646" y1="54.925" x2="135.339" y2="54.925"/>
	<line class="st0" x1="78.646" y1="73.067" x2="135.339" y2="73.067"/>
	<g>
		<path class="st0" d="M137.836,0.25c3.339,0,3.339,19.708,3.339,22.74s0,22.74,3.339,22.74c-3.339,0-3.339,19.708-3.339,22.74
			c0,3.032,0,22.74-3.339,22.74"/>
	</g>
	<rect x="229.147" y="0.5" class="st0" width="56.693" height="126.992"/>
	<line class="st0" x1="229.147" y1="18.642" x2="285.84" y2="18.642"/>
	<line class="st0" x1="229.147" y1="36.783" x2="285.84" y2="36.783"/>
	<line class="st0" x1="229.147" y1="54.925" x2="285.84" y2="54.925"/>
	<line class="st0" x1="229.147" y1="73.067" x2="285.84" y2="73.067"/>
	<g>
		<path class="st0" d="M287.671,0.25c4.005,0,4.005,27.569,4.005,31.811s0,31.811,4.005,31.811c-4.005,0-4.005,27.569-4.005,31.811
			s0,31.811-4.005,31.811"/>
	</g>
	<rect x="0.25" y="0.5" class="st0" width="56.693" height="18.142"/>
	<line class="st0" x1="229.147" y1="91.209" x2="285.84" y2="91.209"/>
	<line class="st0" x1="78.646" y1="91.209" x2="135.339" y2="91.209"/>
	<line class="st0" x1="229.147" y1="109.35" x2="285.84" y2="109.35"/>
</g>
<g id="レイヤー_2">
	<g>
		<path d="M100.511,8.277h-1.455V7.941c0.855-0.056,1.391-0.144,1.559-1.111h0.408v5.637h-0.512V8.277z"/>
		<path d="M104.958,8.277h-1.455V7.941c0.855-0.056,1.391-0.144,1.559-1.111h0.408v5.637h-0.512V8.277z"/>
		<path d="M109.407,8.277h-1.455V7.941c0.855-0.056,1.391-0.144,1.559-1.111h0.408v5.637h-0.512V8.277z"/>
		<path d="M113.855,8.277H112.4V7.941c0.855-0.056,1.391-0.144,1.559-1.111h0.408v5.637h-0.512V8.277z"/>
	</g>
	<g>
		<path d="M98.648,26.525c0-1.111,0.72-1.847,1.831-1.847c1.135,0,1.735,0.695,1.735,1.559c0,1.495-1.615,1.871-2.455,2.51
			c-0.368,0.28-0.711,0.6-0.736,1.136h3.143v0.432H98.48c0.008-0.536,0.08-0.959,0.44-1.375c1.175-1.359,2.734-1.344,2.734-2.671
			c0-0.735-0.544-1.159-1.239-1.159c-0.736,0-1.255,0.656-1.224,1.415H98.648z"/>
		<path d="M103.096,26.525c0-1.111,0.72-1.847,1.831-1.847c1.135,0,1.735,0.695,1.735,1.559c0,1.495-1.615,1.871-2.455,2.51
			c-0.368,0.28-0.711,0.6-0.735,1.136h3.142v0.432h-3.686c0.008-0.536,0.08-0.959,0.44-1.375c1.175-1.359,2.734-1.344,2.734-2.671
			c0-0.735-0.544-1.159-1.239-1.159c-0.736,0-1.255,0.656-1.224,1.415H103.096z"/>
		<path d="M107.544,26.525c0-1.111,0.72-1.847,1.831-1.847c1.135,0,1.735,0.695,1.735,1.559c0,1.495-1.615,1.871-2.455,2.51
			c-0.368,0.28-0.711,0.6-0.735,1.136h3.142v0.432h-3.686c0.008-0.536,0.08-0.959,0.44-1.375c1.175-1.359,2.734-1.344,2.734-2.671
			c0-0.735-0.544-1.159-1.239-1.159c-0.736,0-1.255,0.656-1.224,1.415H107.544z"/>
		<path d="M111.992,26.525c0-1.111,0.72-1.847,1.831-1.847c1.135,0,1.735,0.695,1.735,1.559c0,1.495-1.615,1.871-2.455,2.51
			c-0.368,0.28-0.711,0.6-0.735,1.136h3.142v0.432h-3.686c0.008-0.536,0.08-0.959,0.44-1.375c1.175-1.359,2.734-1.344,2.734-2.671
			c0-0.735-0.544-1.159-1.239-1.159c-0.736,0-1.255,0.656-1.224,1.415H111.992z"/>
	</g>
	<g>
		<path d="M99.863,45.314c0.951,0.008,1.615-0.216,1.615-1.08c0-0.695-0.552-0.991-1.2-0.991c-0.719,0-1.207,0.504-1.207,1.207
			H98.56c0-0.503,0.168-0.911,0.543-1.263c0.352-0.32,0.815-0.375,1.279-0.375c0.888,0,1.607,0.448,1.607,1.391
			c0,0.583-0.256,1.023-0.8,1.255c0.815,0.256,1,0.872,1,1.391c0,0.927-0.656,1.679-1.815,1.711c-1.303,0-1.887-0.432-2.007-1.743
			h0.512c0,0.855,0.567,1.311,1.399,1.311c0.816,0,1.431-0.608,1.399-1.271c-0.032-0.911-0.824-1.199-1.815-1.127V45.314z"/>
		<path d="M104.311,45.314c0.952,0.008,1.615-0.216,1.615-1.08c0-0.695-0.552-0.991-1.2-0.991c-0.719,0-1.207,0.504-1.207,1.207
			h-0.512c0-0.503,0.168-0.911,0.543-1.263c0.352-0.32,0.816-0.375,1.279-0.375c0.888,0,1.607,0.448,1.607,1.391
			c0,0.583-0.256,1.023-0.8,1.255c0.815,0.256,1,0.872,1,1.391c0,0.927-0.656,1.679-1.815,1.711c-1.303,0-1.887-0.432-2.007-1.743
			h0.512c0,0.855,0.567,1.311,1.399,1.311c0.816,0,1.432-0.608,1.399-1.271c-0.032-0.911-0.824-1.199-1.815-1.127V45.314z"/>
		<path d="M108.759,45.314c0.952,0.008,1.615-0.216,1.615-1.08c0-0.695-0.552-0.991-1.2-0.991c-0.719,0-1.207,0.504-1.207,1.207
			h-0.512c0-0.503,0.168-0.911,0.543-1.263c0.352-0.32,0.816-0.375,1.279-0.375c0.888,0,1.607,0.448,1.607,1.391
			c0,0.583-0.256,1.023-0.8,1.255c0.815,0.256,1,0.872,1,1.391c0,0.927-0.656,1.679-1.815,1.711c-1.303,0-1.887-0.432-2.007-1.743
			h0.512c0,0.855,0.567,1.311,1.399,1.311c0.816,0,1.432-0.608,1.399-1.271c-0.032-0.911-0.824-1.199-1.815-1.127V45.314z"/>
		<path d="M113.208,45.314c0.952,0.008,1.615-0.216,1.615-1.08c0-0.695-0.552-0.991-1.2-0.991c-0.719,0-1.207,0.504-1.207,1.207
			h-0.512c0-0.503,0.168-0.911,0.543-1.263c0.352-0.32,0.816-0.375,1.279-0.375c0.888,0,1.607,0.448,1.607,1.391
			c0,0.583-0.256,1.023-0.8,1.255c0.815,0.256,1,0.872,1,1.391c0,0.927-0.656,1.679-1.815,1.711c-1.303,0-1.887-0.432-2.007-1.743
			h0.512c0,0.855,0.567,1.311,1.399,1.311c0.816,0,1.432-0.608,1.399-1.271c-0.032-0.911-0.824-1.199-1.815-1.127V45.314z"/>
	</g>
	<g>
		<path d="M106.956,80.297c-0.208,0-0.392-0.168-0.392-0.384s0.184-0.392,0.392-0.392c0.208,0,0.384,0.192,0.384,0.392
			C107.34,80.121,107.164,80.297,106.956,80.297z"/>
		<path d="M106.956,84.745c-0.208,0-0.392-0.168-0.392-0.384s0.184-0.392,0.392-0.392c0.208,0,0.384,0.192,0.384,0.392
			C107.34,84.57,107.164,84.745,106.956,84.745z"/>
	</g>
	<g>
		<path d="M100.958,65.181h-2.575v-0.44l2.623-3.75h0.463v3.758h0.784v0.432h-0.784v1.391h-0.512V65.181z M98.888,64.749h2.071
			v-2.99L98.888,64.749z"/>
		<path d="M105.406,65.181h-2.574v-0.44l2.622-3.75h0.464v3.758h0.784v0.432h-0.784v1.391h-0.512V65.181z M103.335,64.749h2.071
			v-2.99L103.335,64.749z"/>
		<path d="M109.854,65.181h-2.574v-0.44l2.622-3.75h0.464v3.758h0.784v0.432h-0.784v1.391h-0.512V65.181z M107.784,64.749h2.071
			v-2.99L107.784,64.749z"/>
		<path d="M114.303,65.181h-2.574v-0.44l2.622-3.75h0.464v3.758h0.784v0.432h-0.784v1.391h-0.512V65.181z M112.232,64.749h2.071
			v-2.99L112.232,64.749z"/>
	</g>
	<g>
		<path d="M98.648,98.496c0-0.775,0.72-1.407,1.607-1.375c0.864,0,1.703,0.408,1.703,1.375c0,0.584-0.232,1-0.768,1.263
			c0.616,0.224,1,0.744,1,1.399c0,1.104-0.784,1.711-1.983,1.711c-0.815,0-1.759-0.56-1.759-1.663c0-0.671,0.344-1.231,0.983-1.479
			C98.888,99.384,98.648,99.168,98.648,98.496z M98.96,101.207c0,0.696,0.543,1.231,1.399,1.231c0.744,0,1.319-0.512,1.319-1.263
			c0-0.792-0.6-1.175-1.351-1.175C99.543,100,98.96,100.375,98.96,101.207z M99.16,98.569c0,0.695,0.576,0.999,1.199,0.999
			c0.616,0,1.087-0.312,1.087-1.111c0-0.567-0.368-0.903-1.144-0.903C99.671,97.553,99.16,97.905,99.16,98.569z"/>
		<path d="M103.096,98.496c0-0.775,0.72-1.407,1.607-1.375c0.864,0,1.703,0.408,1.703,1.375c0,0.584-0.232,1-0.768,1.263
			c0.616,0.224,1,0.744,1,1.399c0,1.104-0.784,1.711-1.983,1.711c-0.815,0-1.759-0.56-1.759-1.663c0-0.671,0.344-1.231,0.984-1.479
			C103.335,99.384,103.096,99.168,103.096,98.496z M103.407,101.207c0,0.696,0.544,1.231,1.399,1.231
			c0.744,0,1.319-0.512,1.319-1.263c0-0.792-0.6-1.175-1.351-1.175C103.991,100,103.407,100.375,103.407,101.207z M103.607,98.569
			c0,0.695,0.576,0.999,1.199,0.999c0.616,0,1.087-0.312,1.087-1.111c0-0.567-0.368-0.903-1.143-0.903
			C104.119,97.553,103.607,97.905,103.607,98.569z"/>
		<path d="M107.544,98.496c0-0.775,0.72-1.407,1.607-1.375c0.864,0,1.703,0.408,1.703,1.375c0,0.584-0.232,1-0.768,1.263
			c0.616,0.224,1,0.744,1,1.399c0,1.104-0.784,1.711-1.983,1.711c-0.815,0-1.759-0.56-1.759-1.663c0-0.671,0.344-1.231,0.984-1.479
			C107.784,99.384,107.544,99.168,107.544,98.496z M107.855,101.207c0,0.696,0.544,1.231,1.399,1.231
			c0.744,0,1.319-0.512,1.319-1.263c0-0.792-0.6-1.175-1.351-1.175C108.439,100,107.855,100.375,107.855,101.207z M108.056,98.569
			c0,0.695,0.576,0.999,1.199,0.999c0.616,0,1.087-0.312,1.087-1.111c0-0.567-0.368-0.903-1.143-0.903
			C108.567,97.553,108.056,97.905,108.056,98.569z"/>
		<path d="M111.992,98.496c0-0.775,0.72-1.407,1.607-1.375c0.864,0,1.703,0.408,1.703,1.375c0,0.584-0.232,1-0.768,1.263
			c0.616,0.224,1,0.744,1,1.399c0,1.104-0.784,1.711-1.983,1.711c-0.815,0-1.759-0.56-1.759-1.663c0-0.671,0.344-1.231,0.984-1.479
			C112.232,99.384,111.992,99.168,111.992,98.496z M112.304,101.207c0,0.696,0.544,1.231,1.399,1.231
			c0.744,0,1.319-0.512,1.319-1.263c0-0.792-0.6-1.175-1.351-1.175C112.888,100,112.304,100.375,112.304,101.207z M112.504,98.569
			c0,0.695,0.576,0.999,1.199,0.999c0.616,0,1.087-0.312,1.087-1.111c0-0.567-0.368-0.903-1.143-0.903
			C113.016,97.553,112.504,97.905,112.504,98.569z"/>
	</g>
	<g>
		<path d="M147.292,48.933v-5.757h1.967c0.64,0,1.239,0.04,1.775,0.432c0.76,0.552,0.959,1.671,0.959,2.439
			c0,0.759-0.167,1.607-0.695,2.183c-0.527,0.592-1.279,0.704-2.039,0.704H147.292z M147.835,48.469h1.303
			c0.488,0,0.912-0.032,1.352-0.264c0.768-0.392,0.96-1.375,0.96-2.159c0-0.84-0.185-1.759-0.992-2.191
			c-0.344-0.184-0.839-0.216-1.319-0.216h-1.303V48.469z"/>
		<path d="M154.898,46.518c0.176-0.016,0.472-0.064,0.632-0.136c0.16-0.072,0.176-0.288,0.176-0.432
			c0-0.488-0.288-0.839-1.031-0.839c-0.664,0-1.119,0.216-1.207,0.936h-0.488c0.072-0.976,0.8-1.368,1.703-1.368
			c0.84,0,1.503,0.328,1.503,1.288v2.255c0,0.375,0.097,0.463,0.504,0.32v0.375c-0.072,0.024-0.24,0.08-0.376,0.08
			c-0.08,0-0.144-0.008-0.216-0.024c-0.319-0.048-0.376-0.328-0.384-0.616c-0.399,0.448-0.943,0.688-1.543,0.688
			c-0.728,0-1.383-0.392-1.383-1.191c0-0.695,0.479-1.119,1.447-1.247L154.898,46.518z M155.706,46.758
			c-0.407,0.168-0.823,0.2-1.239,0.232c-0.728,0.056-1.167,0.32-1.167,0.879c0,0.504,0.439,0.744,0.896,0.744
			c0.759,0,1.511-0.368,1.511-1.208V46.758z"/>
		<path d="M158.899,48.949c-0.112,0.024-0.32,0.096-0.552,0.096c-0.472,0-0.736-0.208-0.736-0.823v-3.031h-0.583v-0.399h0.583V43.64
			h0.48v1.151h0.775v0.399h-0.775v2.839c0,0.408,0.016,0.583,0.415,0.583c0.128,0,0.265-0.024,0.393-0.056V48.949z"/>
		<path d="M161.57,46.518c0.176-0.016,0.472-0.064,0.632-0.136c0.16-0.072,0.176-0.288,0.176-0.432c0-0.488-0.288-0.839-1.031-0.839
			c-0.664,0-1.119,0.216-1.207,0.936h-0.488c0.072-0.976,0.8-1.368,1.703-1.368c0.84,0,1.503,0.328,1.503,1.288v2.255
			c0,0.375,0.097,0.463,0.504,0.32v0.375c-0.072,0.024-0.24,0.08-0.376,0.08c-0.08,0-0.144-0.008-0.216-0.024
			c-0.319-0.048-0.376-0.328-0.384-0.616c-0.399,0.448-0.943,0.688-1.543,0.688c-0.728,0-1.383-0.392-1.383-1.191
			c0-0.695,0.479-1.119,1.447-1.247L161.57,46.518z M162.377,46.758c-0.407,0.168-0.823,0.2-1.239,0.232
			c-0.728,0.056-1.167,0.32-1.167,0.879c0,0.504,0.439,0.744,0.896,0.744c0.759,0,1.511-0.368,1.511-1.208V46.758z"/>
		<path d="M164.731,43.911h-0.016v5.021h-0.544v-5.757h0.615l3.326,5.029h0.017v-5.029h0.543v5.757h-0.631L164.731,43.911z"/>
		<path d="M172.698,44.791h0.48v4.142h-0.48v-0.576c-0.256,0.288-0.607,0.688-1.335,0.688c-1.104,0-1.471-0.664-1.471-1.527v-2.727
			h0.479v2.718c0,0.712,0.312,1.104,1.063,1.104c0.791,0,1.263-0.656,1.263-1.567V44.791z"/>
		<path d="M174.755,48.933h-0.479v-4.142h0.479v0.624h0.017c0.247-0.472,0.743-0.736,1.279-0.736c0.768,0,1.039,0.36,1.215,0.8
			c0.272-0.536,0.76-0.8,1.352-0.8c1.127,0,1.287,0.808,1.287,1.639v2.615h-0.479v-2.862c0-0.592-0.208-0.959-0.888-0.959
			c-0.352,0-0.695,0.152-0.936,0.472c-0.208,0.272-0.271,0.775-0.271,1.119v2.231h-0.48v-2.862c0-0.592-0.208-0.959-0.887-0.959
			c-0.353,0-0.696,0.152-0.936,0.472c-0.208,0.272-0.272,0.775-0.272,1.119V48.933z"/>
		<path d="M187.29,46.39h-3.998v-0.48h3.998V46.39z M187.29,47.942h-3.998v-0.48h3.998V47.942z"/>
		<path d="M190.708,44.671c0-0.775,0.72-1.407,1.607-1.375c0.863,0,1.703,0.408,1.703,1.375c0,0.584-0.232,1-0.768,1.263
			c0.615,0.224,0.999,0.744,0.999,1.399c0,1.104-0.783,1.711-1.982,1.711c-0.816,0-1.76-0.56-1.76-1.663
			c0-0.671,0.344-1.231,0.983-1.479C190.948,45.559,190.708,45.343,190.708,44.671z M191.019,47.382
			c0,0.696,0.544,1.231,1.399,1.231c0.743,0,1.319-0.512,1.319-1.263c0-0.792-0.6-1.175-1.352-1.175
			C191.603,46.175,191.019,46.55,191.019,47.382z M191.219,44.744c0,0.695,0.575,0.999,1.199,0.999c0.616,0,1.088-0.312,1.088-1.111
			c0-0.567-0.368-0.903-1.144-0.903C191.731,43.728,191.219,44.079,191.219,44.744z"/>
	</g>
	<g>
		<path d="M249.149,26.615c0-1.111,0.72-1.847,1.831-1.847c1.136,0,1.735,0.695,1.735,1.559c0,1.495-1.615,1.871-2.455,2.51
			c-0.367,0.28-0.711,0.6-0.735,1.136h3.143v0.432h-3.687c0.008-0.536,0.08-0.959,0.44-1.375c1.175-1.359,2.734-1.344,2.734-2.671
			c0-0.735-0.544-1.159-1.239-1.159c-0.736,0-1.256,0.656-1.224,1.415H249.149z"/>
		<path d="M253.597,26.615c0-1.111,0.72-1.847,1.831-1.847c1.135,0,1.734,0.695,1.734,1.559c0,1.495-1.615,1.871-2.454,2.51
			c-0.368,0.28-0.712,0.6-0.735,1.136h3.142v0.432h-3.686c0.008-0.536,0.08-0.959,0.439-1.375c1.176-1.359,2.734-1.344,2.734-2.671
			c0-0.735-0.544-1.159-1.239-1.159c-0.735,0-1.255,0.656-1.224,1.415H253.597z"/>
		<path d="M258.045,26.615c0-1.111,0.72-1.847,1.831-1.847c1.135,0,1.734,0.695,1.734,1.559c0,1.495-1.615,1.871-2.454,2.51
			c-0.368,0.28-0.712,0.6-0.735,1.136h3.142v0.432h-3.686c0.008-0.536,0.08-0.959,0.439-1.375c1.176-1.359,2.734-1.344,2.734-2.671
			c0-0.735-0.544-1.159-1.239-1.159c-0.735,0-1.255,0.656-1.224,1.415H258.045z"/>
		<path d="M262.494,26.615c0-1.111,0.72-1.847,1.831-1.847c1.135,0,1.734,0.695,1.734,1.559c0,1.495-1.615,1.871-2.454,2.51
			c-0.368,0.28-0.712,0.6-0.735,1.136h3.142v0.432h-3.686c0.008-0.536,0.08-0.959,0.439-1.375c1.176-1.359,2.734-1.344,2.734-2.671
			c0-0.735-0.544-1.159-1.239-1.159c-0.735,0-1.255,0.656-1.224,1.415H262.494z"/>
	</g>
	<g>
		<path d="M251.012,8.277h-1.455V7.941c0.855-0.056,1.391-0.144,1.559-1.111h0.408v5.637h-0.512V8.277z"/>
		<path d="M255.459,8.277h-1.455V7.941c0.855-0.056,1.392-0.144,1.56-1.111h0.407v5.637h-0.512V8.277z"/>
		<path d="M259.908,8.277h-1.455V7.941c0.855-0.056,1.392-0.144,1.56-1.111h0.407v5.637h-0.512V8.277z"/>
		<path d="M264.356,8.277h-1.455V7.941c0.855-0.056,1.392-0.144,1.56-1.111h0.407v5.637h-0.512V8.277z"/>
	</g>
	<g>
		<path d="M251.012,44.348h-1.455v-0.336c0.855-0.056,1.391-0.144,1.559-1.111h0.408v5.637h-0.512V44.348z"/>
		<path d="M253.597,44.747c0-1.111,0.72-1.847,1.831-1.847c1.135,0,1.734,0.695,1.734,1.559c0,1.495-1.615,1.871-2.454,2.51
			c-0.368,0.28-0.712,0.6-0.735,1.136h3.142v0.432h-3.686c0.008-0.536,0.08-0.959,0.439-1.375c1.176-1.359,2.734-1.344,2.734-2.671
			c0-0.735-0.544-1.159-1.239-1.159c-0.735,0-1.255,0.656-1.224,1.415H253.597z"/>
		<path d="M259.908,44.348h-1.455v-0.336c0.855-0.056,1.392-0.144,1.56-1.111h0.407v5.637h-0.512V44.348z"/>
		<path d="M262.494,44.747c0-1.111,0.72-1.847,1.831-1.847c1.135,0,1.734,0.695,1.734,1.559c0,1.495-1.615,1.871-2.454,2.51
			c-0.368,0.28-0.712,0.6-0.735,1.136h3.142v0.432h-3.686c0.008-0.536,0.08-0.959,0.439-1.375c1.176-1.359,2.734-1.344,2.734-2.671
			c0-0.735-0.544-1.159-1.239-1.159c-0.735,0-1.255,0.656-1.224,1.415H262.494z"/>
	</g>
	<g>
		<path d="M257.458,80.297c-0.208,0-0.393-0.168-0.393-0.384s0.185-0.392,0.393-0.392c0.207,0,0.383,0.192,0.383,0.392
			C257.84,80.121,257.665,80.297,257.458,80.297z"/>
		<path d="M257.458,84.745c-0.208,0-0.393-0.168-0.393-0.384s0.185-0.392,0.393-0.392c0.207,0,0.383,0.192,0.383,0.392
			C257.84,84.57,257.665,84.745,257.458,84.745z"/>
	</g>
	<g>
		<path d="M250.365,63.527c0.951,0.008,1.615-0.216,1.615-1.08c0-0.695-0.552-0.991-1.2-0.991c-0.719,0-1.207,0.504-1.207,1.207
			h-0.512c0-0.503,0.168-0.911,0.544-1.263c0.352-0.32,0.815-0.375,1.279-0.375c0.888,0,1.607,0.448,1.607,1.391
			c0,0.583-0.256,1.023-0.8,1.255c0.815,0.256,0.999,0.872,0.999,1.391c0,0.927-0.655,1.679-1.814,1.711
			c-1.304,0-1.888-0.432-2.007-1.743h0.512c0,0.855,0.567,1.311,1.398,1.311c0.816,0,1.432-0.608,1.399-1.271
			c-0.031-0.911-0.823-1.199-1.814-1.127V63.527z"/>
		<path d="M254.812,63.527c0.952,0.008,1.615-0.216,1.615-1.08c0-0.695-0.552-0.991-1.199-0.991c-0.72,0-1.207,0.504-1.207,1.207
			h-0.512c0-0.503,0.168-0.911,0.543-1.263c0.353-0.32,0.816-0.375,1.279-0.375c0.888,0,1.607,0.448,1.607,1.391
			c0,0.583-0.256,1.023-0.8,1.255c0.815,0.256,1,0.872,1,1.391c0,0.927-0.656,1.679-1.815,1.711c-1.303,0-1.887-0.432-2.007-1.743
			h0.512c0,0.855,0.567,1.311,1.399,1.311c0.815,0,1.432-0.608,1.399-1.271c-0.032-0.911-0.824-1.199-1.815-1.127V63.527z"/>
		<path d="M259.26,63.527c0.952,0.008,1.615-0.216,1.615-1.08c0-0.695-0.552-0.991-1.199-0.991c-0.72,0-1.207,0.504-1.207,1.207
			h-0.512c0-0.503,0.168-0.911,0.543-1.263c0.353-0.32,0.816-0.375,1.279-0.375c0.888,0,1.607,0.448,1.607,1.391
			c0,0.583-0.256,1.023-0.8,1.255c0.815,0.256,1,0.872,1,1.391c0,0.927-0.656,1.679-1.815,1.711c-1.303,0-1.887-0.432-2.007-1.743
			h0.512c0,0.855,0.567,1.311,1.399,1.311c0.815,0,1.432-0.608,1.399-1.271c-0.032-0.911-0.824-1.199-1.815-1.127V63.527z"/>
		<path d="M263.708,63.527c0.952,0.008,1.615-0.216,1.615-1.08c0-0.695-0.552-0.991-1.199-0.991c-0.72,0-1.207,0.504-1.207,1.207
			h-0.512c0-0.503,0.168-0.911,0.543-1.263c0.353-0.32,0.816-0.375,1.279-0.375c0.888,0,1.607,0.448,1.607,1.391
			c0,0.583-0.256,1.023-0.8,1.255c0.815,0.256,1,0.872,1,1.391c0,0.927-0.656,1.679-1.815,1.711c-1.303,0-1.887-0.432-2.007-1.743
			h0.512c0,0.855,0.567,1.311,1.399,1.311c0.815,0,1.432-0.608,1.399-1.271c-0.032-0.911-0.824-1.199-1.815-1.127V63.527z"/>
	</g>
	<g>
		<path d="M249.069,97.744h3.591v0.48c-1.615,1.823-2.224,3.998-2.287,5.101h-0.56c0.111-1.631,1.151-3.742,2.23-5.069h-2.975
			V97.744z"/>
		<path d="M253.517,97.744h3.59v0.48c-1.615,1.823-2.223,3.998-2.287,5.101h-0.56c0.112-1.631,1.151-3.742,2.231-5.069h-2.975
			V97.744z"/>
		<path d="M257.965,97.744h3.59v0.48c-1.615,1.823-2.223,3.998-2.287,5.101h-0.56c0.112-1.631,1.151-3.742,2.231-5.069h-2.975
			V97.744z"/>
		<path d="M262.414,97.744h3.59v0.48c-1.615,1.823-2.223,3.998-2.287,5.101h-0.56c0.112-1.631,1.151-3.742,2.231-5.069h-2.975
			V97.744z"/>
	</g>
	<g>
		<path d="M249.149,116.825c0-0.775,0.72-1.407,1.607-1.375c0.863,0,1.703,0.408,1.703,1.375c0,0.584-0.232,1-0.768,1.263
			c0.615,0.224,0.999,0.744,0.999,1.399c0,1.104-0.783,1.711-1.982,1.711c-0.815,0-1.759-0.56-1.759-1.663
			c0-0.671,0.344-1.231,0.983-1.479C249.389,117.713,249.149,117.497,249.149,116.825z M249.461,119.535
			c0,0.696,0.543,1.231,1.398,1.231c0.744,0,1.319-0.512,1.319-1.263c0-0.792-0.6-1.175-1.351-1.175
			C250.044,118.328,249.461,118.704,249.461,119.535z M249.661,116.897c0,0.695,0.576,0.999,1.199,0.999
			c0.616,0,1.088-0.312,1.088-1.111c0-0.567-0.368-0.903-1.144-0.903C250.172,115.882,249.661,116.233,249.661,116.897z"/>
		<path d="M253.597,116.825c0-0.775,0.72-1.407,1.606-1.375c0.864,0,1.703,0.408,1.703,1.375c0,0.584-0.231,1-0.768,1.263
			c0.616,0.224,1,0.744,1,1.399c0,1.104-0.784,1.711-1.983,1.711c-0.815,0-1.759-0.56-1.759-1.663c0-0.671,0.344-1.231,0.983-1.479
			C253.836,117.713,253.597,117.497,253.597,116.825z M253.909,119.535c0,0.696,0.544,1.231,1.399,1.231
			c0.743,0,1.319-0.512,1.319-1.263c0-0.792-0.6-1.175-1.352-1.175C254.493,118.328,253.909,118.704,253.909,119.535z
			 M254.109,116.897c0,0.695,0.575,0.999,1.199,0.999c0.615,0,1.087-0.312,1.087-1.111c0-0.567-0.367-0.903-1.143-0.903
			C254.621,115.882,254.109,116.233,254.109,116.897z"/>
		<path d="M258.045,116.825c0-0.775,0.72-1.407,1.606-1.375c0.864,0,1.703,0.408,1.703,1.375c0,0.584-0.231,1-0.768,1.263
			c0.616,0.224,1,0.744,1,1.399c0,1.104-0.784,1.711-1.983,1.711c-0.815,0-1.759-0.56-1.759-1.663c0-0.671,0.344-1.231,0.983-1.479
			C258.285,117.713,258.045,117.497,258.045,116.825z M258.357,119.535c0,0.696,0.544,1.231,1.399,1.231
			c0.743,0,1.319-0.512,1.319-1.263c0-0.792-0.6-1.175-1.352-1.175C258.941,118.328,258.357,118.704,258.357,119.535z
			 M258.557,116.897c0,0.695,0.575,0.999,1.199,0.999c0.615,0,1.087-0.312,1.087-1.111c0-0.567-0.367-0.903-1.143-0.903
			C259.069,115.882,258.557,116.233,258.557,116.897z"/>
		<path d="M262.494,116.825c0-0.775,0.72-1.407,1.606-1.375c0.864,0,1.703,0.408,1.703,1.375c0,0.584-0.231,1-0.768,1.263
			c0.616,0.224,1,0.744,1,1.399c0,1.104-0.784,1.711-1.983,1.711c-0.815,0-1.759-0.56-1.759-1.663c0-0.671,0.344-1.231,0.983-1.479
			C262.733,117.713,262.494,117.497,262.494,116.825z M262.805,119.535c0,0.696,0.544,1.231,1.399,1.231
			c0.743,0,1.319-0.512,1.319-1.263c0-0.792-0.6-1.175-1.352-1.175C263.389,118.328,262.805,118.704,262.805,119.535z
			 M263.005,116.897c0,0.695,0.575,0.999,1.199,0.999c0.615,0,1.087-0.312,1.087-1.111c0-0.567-0.367-0.903-1.143-0.903
			C263.517,115.882,263.005,116.233,263.005,116.897z"/>
	</g>
	<g>
		<path d="M297.793,66.025v-5.757h1.967c0.64,0,1.239,0.04,1.775,0.432c0.76,0.552,0.959,1.671,0.959,2.439
			c0,0.759-0.167,1.607-0.695,2.183c-0.527,0.592-1.279,0.704-2.039,0.704H297.793z M298.337,65.561h1.303
			c0.488,0,0.912-0.032,1.352-0.264c0.768-0.392,0.96-1.375,0.96-2.159c0-0.84-0.185-1.759-0.992-2.191
			c-0.344-0.184-0.839-0.216-1.319-0.216h-1.303V65.561z"/>
		<path d="M305.4,63.611c0.176-0.016,0.472-0.064,0.632-0.136c0.16-0.072,0.176-0.288,0.176-0.432c0-0.488-0.288-0.839-1.031-0.839
			c-0.664,0-1.119,0.216-1.207,0.936h-0.488c0.072-0.976,0.8-1.368,1.703-1.368c0.84,0,1.503,0.328,1.503,1.288v2.255
			c0,0.375,0.097,0.463,0.504,0.32v0.375c-0.072,0.024-0.24,0.08-0.376,0.08c-0.08,0-0.144-0.008-0.216-0.024
			c-0.319-0.048-0.376-0.328-0.384-0.616c-0.399,0.448-0.943,0.688-1.543,0.688c-0.728,0-1.383-0.392-1.383-1.191
			c0-0.695,0.479-1.119,1.447-1.247L305.4,63.611z M306.208,63.85c-0.407,0.168-0.823,0.2-1.239,0.232
			c-0.728,0.056-1.167,0.32-1.167,0.879c0,0.504,0.439,0.744,0.896,0.744c0.759,0,1.511-0.368,1.511-1.208V63.85z"/>
		<path d="M309.401,66.041c-0.112,0.024-0.32,0.096-0.552,0.096c-0.472,0-0.736-0.208-0.736-0.823v-3.031h-0.583v-0.399h0.583
			v-1.151h0.48v1.151h0.775v0.399h-0.775v2.839c0,0.408,0.016,0.583,0.415,0.583c0.128,0,0.265-0.024,0.393-0.056V66.041z"/>
		<path d="M312.072,63.611c0.176-0.016,0.472-0.064,0.632-0.136c0.16-0.072,0.176-0.288,0.176-0.432
			c0-0.488-0.288-0.839-1.031-0.839c-0.664,0-1.119,0.216-1.207,0.936h-0.488c0.072-0.976,0.8-1.368,1.703-1.368
			c0.84,0,1.503,0.328,1.503,1.288v2.255c0,0.375,0.097,0.463,0.504,0.32v0.375c-0.072,0.024-0.24,0.08-0.376,0.08
			c-0.08,0-0.144-0.008-0.216-0.024c-0.319-0.048-0.376-0.328-0.384-0.616c-0.399,0.448-0.943,0.688-1.543,0.688
			c-0.728,0-1.383-0.392-1.383-1.191c0-0.695,0.479-1.119,1.447-1.247L312.072,63.611z M312.879,63.85
			c-0.407,0.168-0.823,0.2-1.239,0.232c-0.728,0.056-1.167,0.32-1.167,0.879c0,0.504,0.439,0.744,0.896,0.744
			c0.759,0,1.511-0.368,1.511-1.208V63.85z"/>
		<path d="M315.233,61.004h-0.016v5.021h-0.544v-5.757h0.615l3.326,5.029h0.017v-5.029h0.543v5.757h-0.631L315.233,61.004z"/>
		<path d="M323.2,61.884h0.48v4.142h-0.48V65.45c-0.256,0.288-0.607,0.688-1.335,0.688c-1.104,0-1.471-0.664-1.471-1.527v-2.727
			h0.479v2.718c0,0.712,0.312,1.104,1.063,1.104c0.791,0,1.263-0.656,1.263-1.567V61.884z"/>
		<path d="M325.257,66.025h-0.479v-4.142h0.479v0.624h0.017c0.247-0.472,0.743-0.736,1.279-0.736c0.768,0,1.039,0.36,1.215,0.8
			c0.272-0.536,0.76-0.8,1.352-0.8c1.127,0,1.287,0.808,1.287,1.639v2.615h-0.479v-2.862c0-0.592-0.208-0.959-0.888-0.959
			c-0.352,0-0.695,0.152-0.936,0.472c-0.208,0.272-0.271,0.775-0.271,1.119v2.231h-0.48v-2.862c0-0.592-0.208-0.959-0.887-0.959
			c-0.353,0-0.696,0.152-0.936,0.472c-0.208,0.272-0.272,0.775-0.272,1.119V66.025z"/>
		<path d="M337.792,63.483h-3.998v-0.48h3.998V63.483z M337.792,65.034h-3.998v-0.48h3.998V65.034z"/>
		<path d="M341.601,64.786c0.12,0.6,0.472,0.919,1.096,0.919c1.335,0,1.519-1.487,1.567-2.502l-0.017-0.016
			c-0.344,0.568-0.848,0.879-1.519,0.879c-1.056,0-1.743-0.72-1.743-1.815c0-1.063,0.583-1.863,1.814-1.863
			c1.52,0,1.976,1.271,1.976,2.846c0,1.911-0.864,2.902-2.056,2.902c-0.879,0-1.551-0.432-1.639-1.351H341.601z M341.498,62.267
			c0,0.855,0.479,1.367,1.303,1.367c0.8,0,1.264-0.64,1.264-1.399c0-0.832-0.472-1.399-1.264-1.415
			C341.937,60.836,341.498,61.388,341.498,62.267z"/>
	</g>
	<g>
		<path d="M12.34,11.961V6.204h0.544v5.757H12.34z"/>
		<path d="M14.78,11.961h-0.479V7.819h0.479v0.576c0.384-0.408,0.76-0.688,1.335-0.688c0.504,0,0.967,0.16,1.263,0.592
			c0.2,0.296,0.208,0.608,0.208,0.952v2.71h-0.479V9.258c0-0.744-0.304-1.119-1.072-1.119c-0.591,0-1,0.384-1.151,0.808
			C14.789,9.21,14.78,9.442,14.78,9.73V11.961z"/>
		<path d="M25.034,9.418h-3.998v-0.48h3.998V9.418z M25.034,10.97h-3.998v-0.48h3.998V10.97z"/>
		<path d="M30.315,7.771H28.86V7.435c0.855-0.056,1.391-0.144,1.559-1.111h0.408v5.637h-0.512V7.771z"/>
		<path d="M32.9,8.171c0-1.111,0.72-1.847,1.831-1.847c1.135,0,1.735,0.695,1.735,1.559c0,1.495-1.615,1.871-2.455,2.51
			c-0.368,0.28-0.711,0.6-0.735,1.136h3.142v0.432h-3.686c0.008-0.536,0.08-0.959,0.44-1.375c1.175-1.359,2.734-1.344,2.734-2.671
			c0-0.735-0.544-1.159-1.239-1.159c-0.736,0-1.255,0.656-1.224,1.415H32.9z"/>
		<path d="M39.211,7.771h-1.455V7.435c0.855-0.056,1.391-0.144,1.559-1.111h0.408v5.637h-0.512V7.771z"/>
		<path d="M41.797,8.171c0-1.111,0.72-1.847,1.831-1.847c1.135,0,1.735,0.695,1.735,1.559c0,1.495-1.615,1.871-2.455,2.51
			c-0.368,0.28-0.711,0.6-0.735,1.136h3.142v0.432h-3.686c0.008-0.536,0.08-0.959,0.44-1.375c1.175-1.359,2.734-1.344,2.734-2.671
			c0-0.735-0.544-1.159-1.239-1.159c-0.736,0-1.255,0.656-1.224,1.415H41.797z"/>
	</g>
	<g>
		<g>
			<path class="st0" d="M28.628,18.642c0,14.151,23.543,18.087,49.476,18.141"/>
			<g>
				<polygon points="76.406,38.784 76.072,38.411 77.912,36.769 76.14,35.054 76.488,34.695 78.646,36.784 				"/>
			</g>
		</g>
	</g>
	<polygon class="st1" points="224.666,45.854 211.911,33.58 211.911,39.022 202.498,39.022 202.498,52.687 211.911,52.687 
		211.911,58.129 	"/>
	<rect x="229.147" y="36.783" class="st2" width="56.693" height="18.142"/>
	<line class="st2" x1="135.339" y1="36.783" x2="78.646" y2="36.783"/>
	<g>
		<path d="M45.955,47.889v-5.757h2.103c1.495,0,1.879,0.744,1.879,1.607c0,1.288-1.144,1.607-2.207,1.607h-1.231v2.542H45.955z
			 M47.746,44.883c1.016,0,1.647-0.208,1.647-1.183c0-0.72-0.463-1.104-1.487-1.104h-1.407v2.287H47.746z"/>
		<path d="M50.523,45.818c0-1.208,0.64-2.183,1.919-2.183c1.295,0,1.919,0.968,1.919,2.183c0,1.311-0.759,2.183-1.919,2.183
			C51.387,47.985,50.523,47.265,50.523,45.818z M52.442,44.067c-1.007,0-1.407,0.855-1.407,1.751c0,1.031,0.488,1.751,1.407,1.751
			c1.008,0,1.407-0.864,1.407-1.751C53.841,44.843,53.458,44.067,52.442,44.067z"/>
		<path d="M55.523,46.594c0.152,0.712,0.52,0.976,1.239,0.976c0.696,0,1.023-0.368,1.023-0.768c0-1.199-2.654-0.352-2.654-1.983
			c0-0.688,0.536-1.184,1.455-1.184c0.896,0,1.479,0.368,1.599,1.304h-0.488c-0.088-0.64-0.52-0.872-1.119-0.872
			c-0.608,0-0.936,0.288-0.936,0.711c0,1.127,2.654,0.424,2.654,2.015c0,0.792-0.711,1.207-1.687,1.207s-1.535-0.624-1.575-1.407
			H55.523z"/>
		<path d="M65.529,45.347h-3.998v-0.48h3.998V45.347z M65.529,46.898h-3.998v-0.48h3.998V46.898z"/>
		<path d="M68.947,44.099c0-1.111,0.72-1.847,1.831-1.847c1.135,0,1.735,0.695,1.735,1.559c0,1.495-1.615,1.871-2.455,2.51
			c-0.368,0.28-0.711,0.6-0.736,1.136h3.143v0.432h-3.686c0.008-0.536,0.08-0.959,0.44-1.375c1.175-1.359,2.734-1.344,2.734-2.671
			c0-0.735-0.544-1.159-1.239-1.159c-0.736,0-1.255,0.656-1.224,1.415H68.947z"/>
	</g>
	<g>
	</g>
	<g>
	</g>
	<g>
	</g>
	<g>
	</g>
	<g>
	</g>
	<g>
	</g>
	<g>
	</g>
	<g>
	</g>
	<g>
	</g>
	<g>
	</g>
	<g>
	</g>
	<g>
	</g>
	<g>
	</g>
	<g>
	</g>
	<g>
	</g>
	<g>
	</g>
</g>
</svg>
