<?xml version="1.0" encoding="utf-8"?>
<!-- Generator: Adobe Illustrator 28.2.0, SVG Export Plug-In . SVG Version: 6.00 Build 0)  -->
<svg version="1.1" xmlns="http://www.w3.org/2000/svg" xmlns:xlink="http://www.w3.org/1999/xlink" x="0px" y="0px"
	 width="343.674px" height="109.6px" viewBox="0 0 343.674 109.6" style="enable-background:new 0 0 343.674 109.6;"
	 xml:space="preserve">
<style type="text/css">
	.st0{fill:none;stroke:#000000;stroke-width:0.5;stroke-miterlimit:10;}
	.st1{fill:#233B59;}
	.st2{fill:none;stroke:#FF0000;stroke-width:1.5;stroke-miterlimit:10;}
</style>
<g id="レイヤー_1">
	<rect x="77.213" y="0.5" class="st0" width="56.693" height="108.85"/>
	<line class="st0" x1="77.213" y1="18.642" x2="133.906" y2="18.642"/>
	<line class="st0" x1="77.213" y1="36.783" x2="133.906" y2="36.783"/>
	<line class="st0" x1="77.213" y1="54.925" x2="133.906" y2="54.925"/>
	<line class="st0" x1="77.213" y1="73.067" x2="133.906" y2="73.067"/>
	<g>
		<path class="st0" d="M136.403,0.25c3.339,0,3.339,23.638,3.339,27.275s0,27.275,3.339,27.275c-3.339,0-3.339,23.638-3.339,27.275
			s0,27.275-3.339,27.275"/>
	</g>
	<rect x="227.715" y="0.5" class="st0" width="56.693" height="108.85"/>
	<line class="st0" x1="227.715" y1="18.642" x2="284.408" y2="18.642"/>
	<line class="st0" x1="227.715" y1="36.783" x2="284.408" y2="36.783"/>
	<line class="st0" x1="227.715" y1="54.925" x2="284.408" y2="54.925"/>
	<line class="st0" x1="227.715" y1="73.067" x2="284.408" y2="73.067"/>
	<g>
		<path class="st0" d="M286.239,0.25c4.005,0,4.005,19.708,4.005,22.74s0,22.74,4.005,22.74c-4.005,0-4.005,19.708-4.005,22.74
			c0,3.032,0,22.74-4.005,22.74"/>
	</g>
	<rect x="0.25" y="9.571" class="st0" width="56.693" height="18.142"/>
	<line class="st0" x1="227.715" y1="91.209" x2="284.408" y2="91.209"/>
	<line class="st0" x1="77.213" y1="91.209" x2="133.906" y2="91.209"/>
</g>
<g id="レイヤー_2">
	<g>
		<path d="M99.078,8.277h-1.455V7.941c0.855-0.056,1.391-0.144,1.559-1.111h0.408v5.637h-0.512V8.277z"/>
		<path d="M103.526,8.277h-1.455V7.941c0.855-0.056,1.391-0.144,1.559-1.111h0.408v5.637h-0.512V8.277z"/>
		<path d="M107.974,8.277h-1.455V7.941c0.855-0.056,1.391-0.144,1.559-1.111h0.408v5.637h-0.512V8.277z"/>
		<path d="M112.423,8.277h-1.455V7.941c0.855-0.056,1.391-0.144,1.559-1.111h0.408v5.637h-0.512V8.277z"/>
	</g>
	<g>
		<path d="M97.216,26.525c0-1.111,0.72-1.847,1.831-1.847c1.135,0,1.735,0.695,1.735,1.559c0,1.495-1.615,1.871-2.455,2.51
			c-0.368,0.28-0.711,0.6-0.736,1.136h3.143v0.432h-3.686c0.008-0.536,0.08-0.959,0.44-1.375c1.175-1.359,2.734-1.344,2.734-2.671
			c0-0.735-0.544-1.159-1.239-1.159c-0.736,0-1.255,0.656-1.224,1.415H97.216z"/>
		<path d="M101.663,26.525c0-1.111,0.72-1.847,1.831-1.847c1.135,0,1.735,0.695,1.735,1.559c0,1.495-1.615,1.871-2.455,2.51
			c-0.368,0.28-0.711,0.6-0.735,1.136h3.142v0.432h-3.686c0.008-0.536,0.08-0.959,0.44-1.375c1.175-1.359,2.734-1.344,2.734-2.671
			c0-0.735-0.544-1.159-1.239-1.159c-0.736,0-1.255,0.656-1.224,1.415H101.663z"/>
		<path d="M106.112,26.525c0-1.111,0.72-1.847,1.831-1.847c1.135,0,1.735,0.695,1.735,1.559c0,1.495-1.615,1.871-2.455,2.51
			c-0.368,0.28-0.711,0.6-0.735,1.136h3.142v0.432h-3.686c0.008-0.536,0.08-0.959,0.44-1.375c1.175-1.359,2.734-1.344,2.734-2.671
			c0-0.735-0.544-1.159-1.239-1.159c-0.736,0-1.255,0.656-1.224,1.415H106.112z"/>
		<path d="M110.56,26.525c0-1.111,0.72-1.847,1.831-1.847c1.135,0,1.735,0.695,1.735,1.559c0,1.495-1.615,1.871-2.455,2.51
			c-0.368,0.28-0.711,0.6-0.735,1.136h3.142v0.432h-3.686c0.008-0.536,0.08-0.959,0.44-1.375c1.175-1.359,2.734-1.344,2.734-2.671
			c0-0.735-0.544-1.159-1.239-1.159c-0.736,0-1.255,0.656-1.224,1.415H110.56z"/>
	</g>
	<g>
		<path d="M98.431,45.314c0.951,0.008,1.615-0.216,1.615-1.08c0-0.695-0.552-0.991-1.2-0.991c-0.719,0-1.207,0.504-1.207,1.207
			h-0.512c0-0.503,0.168-0.911,0.543-1.263c0.352-0.32,0.815-0.375,1.279-0.375c0.888,0,1.607,0.448,1.607,1.391
			c0,0.583-0.256,1.023-0.8,1.255c0.815,0.256,1,0.872,1,1.391c0,0.927-0.656,1.679-1.815,1.711c-1.303,0-1.887-0.432-2.007-1.743
			h0.512c0,0.855,0.567,1.311,1.399,1.311c0.816,0,1.431-0.608,1.399-1.271c-0.032-0.911-0.824-1.199-1.815-1.127V45.314z"/>
		<path d="M102.879,45.314c0.952,0.008,1.615-0.216,1.615-1.08c0-0.695-0.552-0.991-1.2-0.991c-0.719,0-1.207,0.504-1.207,1.207
			h-0.512c0-0.503,0.168-0.911,0.543-1.263c0.352-0.32,0.816-0.375,1.279-0.375c0.888,0,1.607,0.448,1.607,1.391
			c0,0.583-0.256,1.023-0.8,1.255c0.815,0.256,1,0.872,1,1.391c0,0.927-0.656,1.679-1.815,1.711c-1.303,0-1.887-0.432-2.007-1.743
			h0.512c0,0.855,0.567,1.311,1.399,1.311c0.816,0,1.432-0.608,1.399-1.271c-0.032-0.911-0.824-1.199-1.815-1.127V45.314z"/>
		<path d="M107.327,45.314c0.952,0.008,1.615-0.216,1.615-1.08c0-0.695-0.552-0.991-1.2-0.991c-0.719,0-1.207,0.504-1.207,1.207
			h-0.512c0-0.503,0.168-0.911,0.543-1.263c0.352-0.32,0.816-0.375,1.279-0.375c0.888,0,1.607,0.448,1.607,1.391
			c0,0.583-0.256,1.023-0.8,1.255c0.815,0.256,1,0.872,1,1.391c0,0.927-0.656,1.679-1.815,1.711c-1.303,0-1.887-0.432-2.007-1.743
			h0.512c0,0.855,0.567,1.311,1.399,1.311c0.816,0,1.432-0.608,1.399-1.271c-0.032-0.911-0.824-1.199-1.815-1.127V45.314z"/>
		<path d="M111.775,45.314c0.952,0.008,1.615-0.216,1.615-1.08c0-0.695-0.552-0.991-1.2-0.991c-0.719,0-1.207,0.504-1.207,1.207
			h-0.512c0-0.503,0.168-0.911,0.543-1.263c0.352-0.32,0.816-0.375,1.279-0.375c0.888,0,1.607,0.448,1.607,1.391
			c0,0.583-0.256,1.023-0.8,1.255c0.815,0.256,1,0.872,1,1.391c0,0.927-0.656,1.679-1.815,1.711c-1.303,0-1.887-0.432-2.007-1.743
			h0.512c0,0.855,0.567,1.311,1.399,1.311c0.816,0,1.432-0.608,1.399-1.271c-0.032-0.911-0.824-1.199-1.815-1.127V45.314z"/>
	</g>
	<g>
		<path d="M105.524,62.189c-0.208,0-0.392-0.168-0.392-0.384s0.184-0.392,0.392-0.392c0.208,0,0.384,0.192,0.384,0.392
			C105.908,62.013,105.732,62.189,105.524,62.189z"/>
		<path d="M105.524,66.637c-0.208,0-0.392-0.168-0.392-0.384s0.184-0.392,0.392-0.392c0.208,0,0.384,0.192,0.384,0.392
			C105.908,66.461,105.732,66.637,105.524,66.637z"/>
	</g>
	<g>
		<path d="M97.216,80.452c0-0.775,0.72-1.407,1.607-1.375c0.864,0,1.703,0.408,1.703,1.375c0,0.584-0.232,1-0.768,1.263
			c0.616,0.224,1,0.744,1,1.399c0,1.104-0.784,1.711-1.983,1.711c-0.815,0-1.759-0.56-1.759-1.663c0-0.671,0.344-1.231,0.983-1.479
			C97.455,81.34,97.216,81.124,97.216,80.452z M97.528,83.162c0,0.696,0.543,1.231,1.399,1.231c0.744,0,1.319-0.512,1.319-1.263
			c0-0.792-0.6-1.175-1.351-1.175C98.111,81.955,97.528,82.331,97.528,83.162z M97.727,80.524c0,0.695,0.576,0.999,1.199,0.999
			c0.616,0,1.087-0.312,1.087-1.111c0-0.567-0.368-0.903-1.144-0.903C98.239,79.509,97.727,79.86,97.727,80.524z"/>
		<path d="M101.663,80.452c0-0.775,0.72-1.407,1.607-1.375c0.864,0,1.703,0.408,1.703,1.375c0,0.584-0.232,1-0.768,1.263
			c0.616,0.224,1,0.744,1,1.399c0,1.104-0.784,1.711-1.983,1.711c-0.815,0-1.759-0.56-1.759-1.663c0-0.671,0.344-1.231,0.984-1.479
			C101.903,81.34,101.663,81.124,101.663,80.452z M101.975,83.162c0,0.696,0.544,1.231,1.399,1.231c0.744,0,1.319-0.512,1.319-1.263
			c0-0.792-0.6-1.175-1.351-1.175C102.559,81.955,101.975,82.331,101.975,83.162z M102.175,80.524c0,0.695,0.576,0.999,1.199,0.999
			c0.616,0,1.087-0.312,1.087-1.111c0-0.567-0.368-0.903-1.143-0.903C102.687,79.509,102.175,79.86,102.175,80.524z"/>
		<path d="M106.112,80.452c0-0.775,0.72-1.407,1.607-1.375c0.864,0,1.703,0.408,1.703,1.375c0,0.584-0.232,1-0.768,1.263
			c0.616,0.224,1,0.744,1,1.399c0,1.104-0.784,1.711-1.983,1.711c-0.815,0-1.759-0.56-1.759-1.663c0-0.671,0.344-1.231,0.984-1.479
			C106.351,81.34,106.112,81.124,106.112,80.452z M106.423,83.162c0,0.696,0.544,1.231,1.399,1.231c0.744,0,1.319-0.512,1.319-1.263
			c0-0.792-0.6-1.175-1.351-1.175C107.007,81.955,106.423,82.331,106.423,83.162z M106.623,80.524c0,0.695,0.576,0.999,1.199,0.999
			c0.616,0,1.087-0.312,1.087-1.111c0-0.567-0.368-0.903-1.143-0.903C107.135,79.509,106.623,79.86,106.623,80.524z"/>
		<path d="M110.56,80.452c0-0.775,0.72-1.407,1.607-1.375c0.864,0,1.703,0.408,1.703,1.375c0,0.584-0.232,1-0.768,1.263
			c0.616,0.224,1,0.744,1,1.399c0,1.104-0.784,1.711-1.983,1.711c-0.815,0-1.759-0.56-1.759-1.663c0-0.671,0.344-1.231,0.984-1.479
			C110.8,81.34,110.56,81.124,110.56,80.452z M110.871,83.162c0,0.696,0.544,1.231,1.399,1.231c0.744,0,1.319-0.512,1.319-1.263
			c0-0.792-0.6-1.175-1.351-1.175C111.455,81.955,110.871,82.331,110.871,83.162z M111.072,80.524c0,0.695,0.576,0.999,1.199,0.999
			c0.616,0,1.087-0.312,1.087-1.111c0-0.567-0.368-0.903-1.143-0.903C111.583,79.509,111.072,79.86,111.072,80.524z"/>
	</g>
	<g>
		<path d="M97.607,101.949c0.12,0.6,0.472,0.919,1.096,0.919c1.335,0,1.519-1.487,1.567-2.502l-0.016-0.016
			c-0.344,0.568-0.847,0.879-1.519,0.879c-1.055,0-1.743-0.72-1.743-1.815c0-1.063,0.584-1.863,1.815-1.863
			c1.519,0,1.975,1.271,1.975,2.846c0,1.911-0.863,2.902-2.055,2.902c-0.88,0-1.551-0.432-1.639-1.351H97.607z M97.503,99.43
			c0,0.855,0.48,1.367,1.304,1.367c0.799,0,1.263-0.64,1.263-1.399c0-0.832-0.472-1.399-1.263-1.415
			C97.943,97.999,97.503,98.55,97.503,99.43z"/>
		<path d="M102.055,101.949c0.12,0.6,0.472,0.919,1.096,0.919c1.335,0,1.519-1.487,1.567-2.502l-0.016-0.016
			c-0.344,0.568-0.847,0.879-1.519,0.879c-1.055,0-1.743-0.72-1.743-1.815c0-1.063,0.584-1.863,1.815-1.863
			c1.52,0,1.975,1.271,1.975,2.846c0,1.911-0.863,2.902-2.055,2.902c-0.879,0-1.551-0.432-1.639-1.351H102.055z M101.951,99.43
			c0,0.855,0.48,1.367,1.303,1.367c0.8,0,1.264-0.64,1.264-1.399c0-0.832-0.472-1.399-1.264-1.415
			C102.391,97.999,101.951,98.55,101.951,99.43z"/>
		<path d="M106.503,101.949c0.12,0.6,0.472,0.919,1.096,0.919c1.335,0,1.519-1.487,1.567-2.502l-0.016-0.016
			c-0.344,0.568-0.847,0.879-1.519,0.879c-1.055,0-1.743-0.72-1.743-1.815c0-1.063,0.584-1.863,1.815-1.863
			c1.52,0,1.975,1.271,1.975,2.846c0,1.911-0.863,2.902-2.055,2.902c-0.879,0-1.551-0.432-1.639-1.351H106.503z M106.399,99.43
			c0,0.855,0.48,1.367,1.303,1.367c0.8,0,1.264-0.64,1.264-1.399c0-0.832-0.472-1.399-1.264-1.415
			C106.839,97.999,106.399,98.55,106.399,99.43z"/>
		<path d="M110.951,101.949c0.12,0.6,0.472,0.919,1.096,0.919c1.335,0,1.519-1.487,1.567-2.502l-0.016-0.016
			c-0.344,0.568-0.847,0.879-1.519,0.879c-1.055,0-1.743-0.72-1.743-1.815c0-1.063,0.584-1.863,1.815-1.863
			c1.52,0,1.975,1.271,1.975,2.846c0,1.911-0.863,2.902-2.055,2.902c-0.879,0-1.551-0.432-1.639-1.351H110.951z M110.847,99.43
			c0,0.855,0.48,1.367,1.303,1.367c0.8,0,1.264-0.64,1.264-1.399c0-0.832-0.472-1.399-1.264-1.415
			C111.287,97.999,110.847,98.55,110.847,99.43z"/>
	</g>
	<g>
		<path d="M145.859,58.004v-5.757h1.967c0.64,0,1.239,0.04,1.775,0.432c0.76,0.552,0.959,1.671,0.959,2.439
			c0,0.759-0.167,1.607-0.695,2.183c-0.527,0.592-1.279,0.704-2.039,0.704H145.859z M146.403,57.54h1.303
			c0.488,0,0.912-0.032,1.352-0.264c0.768-0.392,0.96-1.375,0.96-2.159c0-0.84-0.185-1.759-0.992-2.191
			c-0.344-0.184-0.839-0.216-1.319-0.216h-1.303V57.54z"/>
		<path d="M153.466,55.589c0.176-0.016,0.472-0.064,0.632-0.136c0.16-0.072,0.176-0.288,0.176-0.432
			c0-0.488-0.288-0.839-1.031-0.839c-0.664,0-1.119,0.216-1.207,0.936h-0.488c0.072-0.976,0.8-1.368,1.703-1.368
			c0.84,0,1.503,0.328,1.503,1.288v2.255c0,0.375,0.097,0.463,0.504,0.32v0.375c-0.072,0.024-0.24,0.08-0.376,0.08
			c-0.08,0-0.144-0.008-0.216-0.024c-0.319-0.048-0.376-0.328-0.384-0.616c-0.399,0.448-0.943,0.688-1.543,0.688
			c-0.728,0-1.383-0.392-1.383-1.191c0-0.695,0.479-1.119,1.447-1.247L153.466,55.589z M154.273,55.829
			c-0.407,0.168-0.823,0.2-1.239,0.232c-0.728,0.056-1.167,0.32-1.167,0.879c0,0.504,0.439,0.744,0.896,0.744
			c0.759,0,1.511-0.368,1.511-1.208V55.829z"/>
		<path d="M157.467,58.02c-0.112,0.024-0.32,0.096-0.552,0.096c-0.472,0-0.736-0.208-0.736-0.823v-3.031h-0.583v-0.399h0.583v-1.151
			h0.48v1.151h0.775v0.399h-0.775V57.1c0,0.408,0.016,0.583,0.415,0.583c0.128,0,0.265-0.024,0.393-0.056V58.02z"/>
		<path d="M160.137,55.589c0.176-0.016,0.472-0.064,0.632-0.136c0.16-0.072,0.176-0.288,0.176-0.432
			c0-0.488-0.288-0.839-1.031-0.839c-0.664,0-1.119,0.216-1.207,0.936h-0.488c0.072-0.976,0.8-1.368,1.703-1.368
			c0.84,0,1.503,0.328,1.503,1.288v2.255c0,0.375,0.097,0.463,0.504,0.32v0.375c-0.072,0.024-0.24,0.08-0.376,0.08
			c-0.08,0-0.144-0.008-0.216-0.024c-0.319-0.048-0.376-0.328-0.384-0.616c-0.399,0.448-0.943,0.688-1.543,0.688
			c-0.728,0-1.383-0.392-1.383-1.191c0-0.695,0.479-1.119,1.447-1.247L160.137,55.589z M160.945,55.829
			c-0.407,0.168-0.823,0.2-1.239,0.232c-0.728,0.056-1.167,0.32-1.167,0.879c0,0.504,0.439,0.744,0.896,0.744
			c0.759,0,1.511-0.368,1.511-1.208V55.829z"/>
		<path d="M163.299,52.982h-0.016v5.021h-0.544v-5.757h0.615l3.326,5.029h0.017v-5.029h0.543v5.757h-0.631L163.299,52.982z"/>
		<path d="M171.265,53.862h0.48v4.142h-0.48v-0.576c-0.256,0.288-0.607,0.688-1.335,0.688c-1.104,0-1.471-0.664-1.471-1.527v-2.727
			h0.479v2.718c0,0.712,0.312,1.104,1.063,1.104c0.791,0,1.263-0.656,1.263-1.567V53.862z"/>
		<path d="M173.323,58.004h-0.479v-4.142h0.479v0.624h0.017c0.247-0.472,0.743-0.736,1.279-0.736c0.768,0,1.039,0.36,1.215,0.8
			c0.272-0.536,0.76-0.8,1.352-0.8c1.127,0,1.287,0.808,1.287,1.639v2.615h-0.479v-2.862c0-0.592-0.208-0.959-0.888-0.959
			c-0.352,0-0.695,0.152-0.936,0.472c-0.208,0.272-0.271,0.775-0.271,1.119v2.231h-0.48v-2.862c0-0.592-0.208-0.959-0.887-0.959
			c-0.353,0-0.696,0.152-0.936,0.472c-0.208,0.272-0.272,0.775-0.272,1.119V58.004z"/>
		<path d="M185.857,55.461h-3.998v-0.48h3.998V55.461z M185.857,57.013h-3.998v-0.48h3.998V57.013z"/>
		<path d="M189.667,56.765c0.12,0.6,0.472,0.919,1.096,0.919c1.335,0,1.519-1.487,1.567-2.502l-0.017-0.016
			c-0.344,0.568-0.848,0.879-1.519,0.879c-1.056,0-1.743-0.72-1.743-1.815c0-1.063,0.583-1.863,1.814-1.863
			c1.52,0,1.976,1.271,1.976,2.846c0,1.911-0.864,2.902-2.056,2.902c-0.879,0-1.551-0.432-1.639-1.351H189.667z M189.563,54.246
			c0,0.855,0.479,1.367,1.303,1.367c0.8,0,1.264-0.64,1.264-1.399c0-0.832-0.472-1.399-1.264-1.415
			C190.003,52.815,189.563,53.366,189.563,54.246z"/>
	</g>
	<g>
		<path d="M248.932,27.148c0.951,0.008,1.615-0.216,1.615-1.08c0-0.695-0.552-0.991-1.2-0.991c-0.719,0-1.207,0.504-1.207,1.207
			h-0.512c0-0.503,0.168-0.911,0.544-1.263c0.352-0.32,0.815-0.375,1.279-0.375c0.888,0,1.607,0.448,1.607,1.391
			c0,0.583-0.256,1.023-0.8,1.255c0.815,0.256,0.999,0.872,0.999,1.391c0,0.927-0.655,1.679-1.814,1.711
			c-1.304,0-1.888-0.432-2.007-1.743h0.512c0,0.855,0.567,1.311,1.398,1.311c0.816,0,1.432-0.608,1.399-1.271
			c-0.031-0.911-0.823-1.199-1.814-1.127V27.148z"/>
		<path d="M253.38,27.148c0.952,0.008,1.615-0.216,1.615-1.08c0-0.695-0.552-0.991-1.199-0.991c-0.72,0-1.207,0.504-1.207,1.207
			h-0.512c0-0.503,0.168-0.911,0.543-1.263c0.353-0.32,0.816-0.375,1.279-0.375c0.888,0,1.607,0.448,1.607,1.391
			c0,0.583-0.256,1.023-0.8,1.255c0.815,0.256,1,0.872,1,1.391c0,0.927-0.656,1.679-1.815,1.711c-1.303,0-1.887-0.432-2.007-1.743
			h0.512c0,0.855,0.567,1.311,1.399,1.311c0.815,0,1.432-0.608,1.399-1.271c-0.032-0.911-0.824-1.199-1.815-1.127V27.148z"/>
		<path d="M257.828,27.148c0.952,0.008,1.615-0.216,1.615-1.08c0-0.695-0.552-0.991-1.199-0.991c-0.72,0-1.207,0.504-1.207,1.207
			h-0.512c0-0.503,0.168-0.911,0.543-1.263c0.353-0.32,0.816-0.375,1.279-0.375c0.888,0,1.607,0.448,1.607,1.391
			c0,0.583-0.256,1.023-0.8,1.255c0.815,0.256,1,0.872,1,1.391c0,0.927-0.656,1.679-1.815,1.711c-1.303,0-1.887-0.432-2.007-1.743
			h0.512c0,0.855,0.567,1.311,1.399,1.311c0.815,0,1.432-0.608,1.399-1.271c-0.032-0.911-0.824-1.199-1.815-1.127V27.148z"/>
		<path d="M262.276,27.148c0.952,0.008,1.615-0.216,1.615-1.08c0-0.695-0.552-0.991-1.199-0.991c-0.72,0-1.207,0.504-1.207,1.207
			h-0.512c0-0.503,0.168-0.911,0.543-1.263c0.353-0.32,0.816-0.375,1.279-0.375c0.888,0,1.607,0.448,1.607,1.391
			c0,0.583-0.256,1.023-0.8,1.255c0.815,0.256,1,0.872,1,1.391c0,0.927-0.656,1.679-1.815,1.711c-1.303,0-1.887-0.432-2.007-1.743
			h0.512c0,0.855,0.567,1.311,1.399,1.311c0.815,0,1.432-0.608,1.399-1.271c-0.032-0.911-0.824-1.199-1.815-1.127V27.148z"/>
	</g>
	<g>
		<path d="M249.58,8.277h-1.455V7.941c0.855-0.056,1.391-0.144,1.559-1.111h0.408v5.637h-0.512V8.277z"/>
		<path d="M254.027,8.277h-1.455V7.941c0.855-0.056,1.392-0.144,1.56-1.111h0.407v5.637h-0.512V8.277z"/>
		<path d="M258.475,8.277h-1.455V7.941c0.855-0.056,1.392-0.144,1.56-1.111h0.407v5.637h-0.512V8.277z"/>
		<path d="M262.924,8.277h-1.455V7.941c0.855-0.056,1.392-0.144,1.56-1.111h0.407v5.637h-0.512V8.277z"/>
	</g>
	<g>
		<path d="M250.027,47.024h-2.574v-0.44l2.623-3.75h0.463v3.758h0.784v0.432h-0.784v1.391h-0.512V47.024z M247.957,46.592h2.07
			v-2.99L247.957,46.592z"/>
		<path d="M254.475,47.024h-2.574v-0.44l2.622-3.75h0.464v3.758h0.783v0.432h-0.783v1.391h-0.512V47.024z M252.404,46.592h2.071
			v-2.99L252.404,46.592z"/>
		<path d="M258.924,47.024h-2.574v-0.44l2.622-3.75h0.464v3.758h0.783v0.432h-0.783v1.391h-0.512V47.024z M256.852,46.592h2.071
			v-2.99L256.852,46.592z"/>
		<path d="M263.372,47.024h-2.574v-0.44l2.622-3.75h0.464v3.758h0.783v0.432h-0.783v1.391h-0.512V47.024z M261.301,46.592h2.071
			v-2.99L261.301,46.592z"/>
	</g>
	<g>
		<path d="M256.025,62.156c-0.208,0-0.393-0.168-0.393-0.384s0.185-0.392,0.393-0.392c0.207,0,0.383,0.192,0.383,0.392
			C256.408,61.98,256.232,62.156,256.025,62.156z"/>
		<path d="M256.025,66.604c-0.208,0-0.393-0.168-0.393-0.384s0.185-0.392,0.393-0.392c0.207,0,0.383,0.192,0.383,0.392
			C256.408,66.428,256.232,66.604,256.025,66.604z"/>
	</g>
	<g>
		<path d="M296.361,47.884v-5.757h1.967c0.64,0,1.239,0.04,1.775,0.432c0.76,0.552,0.959,1.671,0.959,2.439
			c0,0.759-0.167,1.607-0.695,2.183c-0.527,0.592-1.279,0.704-2.039,0.704H296.361z M296.905,47.42h1.303
			c0.488,0,0.912-0.032,1.352-0.264c0.768-0.392,0.96-1.375,0.96-2.159c0-0.84-0.185-1.759-0.992-2.191
			c-0.344-0.184-0.839-0.216-1.319-0.216h-1.303V47.42z"/>
		<path d="M303.968,45.469c0.176-0.016,0.472-0.064,0.632-0.136c0.16-0.072,0.176-0.288,0.176-0.432
			c0-0.488-0.288-0.839-1.031-0.839c-0.664,0-1.119,0.216-1.207,0.936h-0.488c0.072-0.976,0.8-1.368,1.703-1.368
			c0.84,0,1.503,0.328,1.503,1.288v2.255c0,0.375,0.097,0.463,0.504,0.32v0.375c-0.072,0.024-0.24,0.08-0.376,0.08
			c-0.08,0-0.144-0.008-0.216-0.024c-0.319-0.048-0.376-0.328-0.384-0.616c-0.399,0.448-0.943,0.688-1.543,0.688
			c-0.728,0-1.383-0.392-1.383-1.191c0-0.695,0.479-1.119,1.447-1.247L303.968,45.469z M304.775,45.709
			c-0.407,0.168-0.823,0.2-1.239,0.232c-0.728,0.056-1.167,0.32-1.167,0.879c0,0.504,0.439,0.744,0.896,0.744
			c0.759,0,1.511-0.368,1.511-1.208V45.709z"/>
		<path d="M307.969,47.9c-0.112,0.024-0.32,0.096-0.552,0.096c-0.472,0-0.736-0.208-0.736-0.823v-3.031h-0.583v-0.399h0.583v-1.151
			h0.48v1.151h0.775v0.399h-0.775v2.839c0,0.408,0.016,0.583,0.415,0.583c0.128,0,0.265-0.024,0.393-0.056V47.9z"/>
		<path d="M310.639,45.469c0.176-0.016,0.472-0.064,0.632-0.136c0.16-0.072,0.176-0.288,0.176-0.432
			c0-0.488-0.288-0.839-1.031-0.839c-0.664,0-1.119,0.216-1.207,0.936h-0.488c0.072-0.976,0.8-1.368,1.703-1.368
			c0.84,0,1.503,0.328,1.503,1.288v2.255c0,0.375,0.097,0.463,0.504,0.32v0.375c-0.072,0.024-0.24,0.08-0.376,0.08
			c-0.08,0-0.144-0.008-0.216-0.024c-0.319-0.048-0.376-0.328-0.384-0.616c-0.399,0.448-0.943,0.688-1.543,0.688
			c-0.728,0-1.383-0.392-1.383-1.191c0-0.695,0.479-1.119,1.447-1.247L310.639,45.469z M311.447,45.709
			c-0.407,0.168-0.823,0.2-1.239,0.232c-0.728,0.056-1.167,0.32-1.167,0.879c0,0.504,0.439,0.744,0.896,0.744
			c0.759,0,1.511-0.368,1.511-1.208V45.709z"/>
		<path d="M313.801,42.862h-0.016v5.021h-0.544v-5.757h0.615l3.326,5.029h0.017v-5.029h0.543v5.757h-0.631L313.801,42.862z"/>
		<path d="M321.767,43.742h0.48v4.142h-0.48v-0.576c-0.256,0.288-0.607,0.688-1.335,0.688c-1.104,0-1.471-0.664-1.471-1.527v-2.727
			h0.479v2.718c0,0.712,0.312,1.104,1.063,1.104c0.791,0,1.263-0.656,1.263-1.567V43.742z"/>
		<path d="M323.825,47.884h-0.479v-4.142h0.479v0.624h0.017c0.247-0.472,0.743-0.736,1.279-0.736c0.768,0,1.039,0.36,1.215,0.8
			c0.272-0.536,0.76-0.8,1.352-0.8c1.127,0,1.287,0.808,1.287,1.639v2.615h-0.479v-2.862c0-0.592-0.208-0.959-0.888-0.959
			c-0.352,0-0.695,0.152-0.936,0.472c-0.208,0.272-0.271,0.775-0.271,1.119v2.231h-0.48v-2.862c0-0.592-0.208-0.959-0.887-0.959
			c-0.353,0-0.696,0.152-0.936,0.472c-0.208,0.272-0.272,0.775-0.272,1.119V47.884z"/>
		<path d="M336.359,45.341h-3.998v-0.48h3.998V45.341z M336.359,46.892h-3.998v-0.48h3.998V46.892z"/>
		<path d="M339.777,43.622c0-0.775,0.72-1.407,1.607-1.375c0.863,0,1.703,0.408,1.703,1.375c0,0.584-0.232,1-0.768,1.263
			c0.615,0.224,0.999,0.744,0.999,1.399c0,1.104-0.783,1.711-1.982,1.711c-0.816,0-1.76-0.56-1.76-1.663
			c0-0.671,0.344-1.231,0.983-1.479C340.017,44.51,339.777,44.294,339.777,43.622z M340.089,46.332c0,0.696,0.544,1.231,1.399,1.231
			c0.743,0,1.319-0.512,1.319-1.263c0-0.792-0.6-1.175-1.352-1.175C340.673,45.125,340.089,45.501,340.089,46.332z M340.289,43.694
			c0,0.695,0.575,0.999,1.199,0.999c0.616,0,1.088-0.312,1.088-1.111c0-0.567-0.368-0.903-1.144-0.903
			C340.801,42.679,340.289,43.03,340.289,43.694z"/>
	</g>
	<g>
		<path d="M15.464,21.032v-5.757h2.103c1.495,0,1.879,0.744,1.879,1.607c0,1.288-1.144,1.607-2.207,1.607h-1.231v2.542H15.464z
			 M17.255,18.025c1.016,0,1.647-0.208,1.647-1.183c0-0.72-0.463-1.104-1.487-1.104h-1.407v2.287H17.255z"/>
		<path d="M20.032,18.961c0-1.208,0.64-2.183,1.919-2.183c1.295,0,1.919,0.968,1.919,2.183c0,1.311-0.759,2.183-1.919,2.183
			C20.896,21.127,20.032,20.408,20.032,18.961z M21.951,17.21c-1.007,0-1.407,0.855-1.407,1.751c0,1.031,0.488,1.751,1.407,1.751
			c1.008,0,1.407-0.864,1.407-1.751C23.35,17.985,22.967,17.21,21.951,17.21z"/>
		<path d="M25.032,19.736c0.152,0.712,0.52,0.976,1.239,0.976c0.696,0,1.023-0.368,1.023-0.768c0-1.199-2.654-0.352-2.654-1.983
			c0-0.688,0.536-1.184,1.455-1.184c0.896,0,1.479,0.368,1.599,1.304h-0.488c-0.088-0.64-0.52-0.872-1.119-0.872
			c-0.608,0-0.936,0.288-0.936,0.711c0,1.127,2.654,0.424,2.654,2.015c0,0.792-0.711,1.207-1.687,1.207s-1.535-0.624-1.575-1.407
			H25.032z"/>
		<path d="M35.038,18.489H31.04v-0.48h3.998V18.489z M35.038,20.04H31.04v-0.48h3.998V20.04z"/>
		<path d="M38.456,17.242c0-1.111,0.72-1.847,1.831-1.847c1.135,0,1.735,0.695,1.735,1.559c0,1.495-1.615,1.871-2.455,2.51
			c-0.368,0.28-0.711,0.6-0.736,1.136h3.143v0.432h-3.686c0.008-0.536,0.08-0.959,0.44-1.375c1.175-1.359,2.734-1.344,2.734-2.671
			c0-0.735-0.544-1.159-1.239-1.159c-0.736,0-1.255,0.656-1.224,1.415H38.456z"/>
	</g>
	<polygon class="st1" points="223.233,54.925 210.479,42.651 210.479,48.093 201.066,48.093 201.066,61.757 210.479,61.757 
		210.479,67.2 	"/>
	<g>
		<path d="M248.108,83.386c0.12,0.6,0.472,0.919,1.096,0.919c1.335,0,1.52-1.487,1.567-2.502l-0.017-0.016
			c-0.344,0.568-0.847,0.879-1.519,0.879c-1.056,0-1.743-0.72-1.743-1.815c0-1.063,0.584-1.863,1.815-1.863
			c1.519,0,1.975,1.271,1.975,2.846c0,1.911-0.863,2.902-2.055,2.902c-0.88,0-1.552-0.432-1.64-1.351H248.108z M248.005,80.868
			c0,0.855,0.479,1.367,1.304,1.367c0.799,0,1.263-0.64,1.263-1.399c0-0.832-0.472-1.399-1.263-1.415
			C248.444,79.436,248.005,79.988,248.005,80.868z"/>
		<path d="M252.556,83.386c0.12,0.6,0.472,0.919,1.096,0.919c1.335,0,1.519-1.487,1.566-2.502l-0.016-0.016
			c-0.344,0.568-0.848,0.879-1.52,0.879c-1.055,0-1.743-0.72-1.743-1.815c0-1.063,0.584-1.863,1.815-1.863
			c1.52,0,1.975,1.271,1.975,2.846c0,1.911-0.863,2.902-2.055,2.902c-0.879,0-1.551-0.432-1.639-1.351H252.556z M252.452,80.868
			c0,0.855,0.48,1.367,1.304,1.367c0.8,0,1.264-0.64,1.264-1.399c0-0.832-0.472-1.399-1.264-1.415
			C252.892,79.436,252.452,79.988,252.452,80.868z"/>
		<path d="M257.005,83.386c0.12,0.6,0.472,0.919,1.096,0.919c1.335,0,1.519-1.487,1.566-2.502l-0.016-0.016
			c-0.344,0.568-0.848,0.879-1.52,0.879c-1.055,0-1.743-0.72-1.743-1.815c0-1.063,0.584-1.863,1.815-1.863
			c1.52,0,1.975,1.271,1.975,2.846c0,1.911-0.863,2.902-2.055,2.902c-0.879,0-1.551-0.432-1.639-1.351H257.005z M256.9,80.868
			c0,0.855,0.48,1.367,1.304,1.367c0.8,0,1.264-0.64,1.264-1.399c0-0.832-0.472-1.399-1.264-1.415
			C257.341,79.436,256.9,79.988,256.9,80.868z"/>
		<path d="M261.453,83.386c0.12,0.6,0.472,0.919,1.096,0.919c1.335,0,1.519-1.487,1.566-2.502l-0.016-0.016
			c-0.344,0.568-0.848,0.879-1.52,0.879c-1.055,0-1.743-0.72-1.743-1.815c0-1.063,0.584-1.863,1.815-1.863
			c1.52,0,1.975,1.271,1.975,2.846c0,1.911-0.863,2.902-2.055,2.902c-0.879,0-1.551-0.432-1.639-1.351H261.453z M261.348,80.868
			c0,0.855,0.48,1.367,1.304,1.367c0.8,0,1.264-0.64,1.264-1.399c0-0.832-0.472-1.399-1.264-1.415
			C261.789,79.436,261.348,79.988,261.348,80.868z"/>
	</g>
	<rect x="77.213" y="18.642" class="st2" width="56.693" height="18.142"/>
	<g>
		<g>
			<line class="st0" x1="56.943" y1="18.642" x2="75.959" y2="27.484"/>
			<g>
				<polygon points="73.595,28.64 73.44,28.164 75.785,27.404 74.855,25.12 75.319,24.932 76.451,27.713 				"/>
			</g>
		</g>
	</g>
	<g>
	</g>
	<g>
	</g>
	<g>
	</g>
	<g>
	</g>
	<g>
	</g>
	<g>
	</g>
	<g>
	</g>
	<g>
	</g>
	<g>
	</g>
	<g>
	</g>
	<g>
	</g>
	<g>
	</g>
	<g>
	</g>
	<g>
	</g>
	<g>
	</g>
	<g>
	</g>
</g>
</svg>
