<?xml version="1.0" encoding="utf-8"?>
<!-- Generator: Adobe Illustrator 28.2.0, SVG Export Plug-In . SVG Version: 6.00 Build 0)  -->
<svg version="1.1" xmlns="http://www.w3.org/2000/svg" xmlns:xlink="http://www.w3.org/1999/xlink" x="0px" y="0px"
	 width="241.004px" height="54.329px" viewBox="0 0 241.004 54.329" style="enable-background:new 0 0 241.004 54.329;"
	 xml:space="preserve">
<style type="text/css">
	.st0{fill:none;stroke:#000000;stroke-width:0.5;stroke-miterlimit:10;}
	.st1{fill:none;stroke:#FF0000;stroke-width:1.5;stroke-miterlimit:10;}
</style>
<g id="レイヤー_1">
	<g>
		<g>
			<path d="M172.161,10.59v16.716H24.342V10.59H172.161 M172.661,10.09H23.842v17.716h148.819V10.09L172.661,10.09z"/>
		</g>
		<line class="st0" x1="45.102" y1="27.807" x2="45.102" y2="10.09"/>
		<line class="st0" x1="66.362" y1="27.807" x2="66.362" y2="10.09"/>
		<line class="st0" x1="87.622" y1="27.807" x2="87.622" y2="10.09"/>
		<line class="st0" x1="108.881" y1="27.807" x2="108.881" y2="10.09"/>
		<line class="st0" x1="130.141" y1="27.807" x2="130.141" y2="10.09"/>
		<line class="st0" x1="151.401" y1="27.807" x2="151.401" y2="10.09"/>
	</g>
	<g>
		<g>
			<path d="M65.862,37.113v16.716h-41.52V37.113H65.862 M66.362,36.613h-42.52v17.716h42.52V36.613L66.362,36.613z"/>
		</g>
		<line class="st0" x1="45.102" y1="54.329" x2="45.102" y2="36.613"/>
	</g>
	<g>
		<g>
			<line class="st0" x1="175.201" y1="18.949" x2="196.512" y2="18.949"/>
			<g>
				<polygon points="194.855,20.994 194.514,20.627 196.32,18.949 194.514,17.27 194.855,16.904 197.054,18.949 				"/>
			</g>
		</g>
	</g>
</g>
<g id="レイヤー_2">
	<g>
		<g>
			<path d="M31.924,22.215l2.263-5.757h0.616l2.207,5.757h-0.56l-0.664-1.807h-2.623l-0.68,1.807H31.924z M33.347,19.944h2.255
				l-1.127-3.022L33.347,19.944z"/>
		</g>
		<g>
			<path d="M53.711,22.215v-5.757h2.079c1.351,0,1.887,0.583,1.887,1.447c0,0.799-0.456,1.159-0.919,1.239v0.016
				c0.792,0.12,1.184,0.671,1.184,1.431c0,1.199-0.784,1.623-1.879,1.623H53.711z M54.255,19h1.375c1.136,0,1.503-0.399,1.503-1.095
				c0-0.72-0.432-0.983-1.623-0.983h-1.255V19z M54.255,21.751h1.383c1.199,0,1.759-0.16,1.759-1.159
				c0-0.952-0.671-1.127-1.695-1.127h-1.447V21.751z"/>
		</g>
		<g>
			<path d="M78.837,18.129c-0.224-0.983-0.832-1.359-1.815-1.359c-1.391,0-1.991,1.191-1.991,2.55c0,1.288,0.472,2.583,2.039,2.583
				c0.992,0,1.607-0.671,1.823-1.583h0.567c-0.256,1.111-0.951,2.047-2.495,2.047c-1.775,0-2.479-1.399-2.479-3.03
				c0-2.199,1.151-3.03,2.679-3.03c1.183,0,2.047,0.632,2.23,1.823H78.837z"/>
		</g>
		<g>
			<path d="M96.011,22.215v-5.757h1.967c0.64,0,1.239,0.04,1.775,0.432c0.76,0.552,0.959,1.671,0.959,2.439
				c0,0.759-0.168,1.607-0.696,2.183c-0.527,0.592-1.279,0.704-2.039,0.704H96.011z M96.555,21.751h1.303
				c0.488,0,0.912-0.032,1.351-0.264c0.768-0.392,0.959-1.375,0.959-2.159c0-0.84-0.184-1.759-0.991-2.191
				c-0.344-0.184-0.839-0.216-1.319-0.216h-1.303V21.751z"/>
		</g>
		<g>
			<path d="M117.715,21.931v-5.757h3.83v0.464h-3.286v2.079h2.966v0.464h-2.966v2.287h3.366v0.464H117.715z"/>
		</g>
		<g>
			<path d="M139.139,21.931v-5.757h3.71v0.464h-3.167v2.079h2.878v0.464h-2.878v2.75H139.139z"/>
		</g>
		<g>
			<path d="M162.014,19.42v-0.463h2.463v2.974h-0.464v-0.983c-0.4,0.688-1.016,1.135-2.151,1.135c-1.455,0-2.519-1.016-2.519-3.062
				c0-1.687,0.848-2.998,2.663-2.998c1.207,0,2.159,0.592,2.407,1.823h-0.56c-0.192-0.863-0.951-1.359-1.807-1.359
				c-1.52,0-2.159,1.119-2.159,2.75c0,1.271,0.768,2.382,2.087,2.382c0.624,0,1.359-0.264,1.735-1.007
				c0.184-0.36,0.24-0.759,0.248-1.191H162.014z"/>
		</g>
		<g>
			<path d="M32.232,48.737V42.98h1.967c0.64,0,1.239,0.04,1.775,0.432c0.76,0.552,0.959,1.671,0.959,2.439
				c0,0.759-0.168,1.607-0.696,2.183c-0.527,0.592-1.279,0.704-2.039,0.704H32.232z M32.776,48.273h1.303
				c0.488,0,0.912-0.032,1.351-0.264c0.768-0.392,0.959-1.375,0.959-2.159c0-0.84-0.184-1.759-0.991-2.191
				c-0.344-0.184-0.839-0.216-1.319-0.216h-1.303V48.273z"/>
		</g>
		<g>
			<path d="M53.936,48.737V42.98h3.83v0.464h-3.286v2.079h2.966v0.464h-2.966v2.287h3.366v0.464H53.936z"/>
		</g>
		<g>
			<path d="M34.663,2.734h-1.455V2.398c0.855-0.056,1.391-0.144,1.559-1.111h0.408v5.637h-0.512V2.734z"/>
		</g>
		<g>
			<path d="M54.06,3.134c0-1.111,0.72-1.847,1.831-1.847c1.135,0,1.735,0.695,1.735,1.559c0,1.495-1.615,1.871-2.455,2.511
				c-0.368,0.28-0.711,0.6-0.736,1.135h3.143v0.432h-3.686c0.008-0.536,0.08-0.959,0.44-1.375c1.175-1.359,2.734-1.343,2.734-2.67
				c0-0.735-0.544-1.159-1.239-1.159c-0.736,0-1.255,0.656-1.224,1.415H54.06z"/>
		</g>
		<g>
			<path d="M76.535,3.79c0.951,0.008,1.615-0.216,1.615-1.08c0-0.695-0.552-0.991-1.2-0.991c-0.719,0-1.207,0.503-1.207,1.208
				h-0.512c0-0.504,0.168-0.912,0.543-1.264c0.352-0.32,0.815-0.375,1.279-0.375c0.888,0,1.607,0.448,1.607,1.391
				c0,0.583-0.256,1.023-0.8,1.255c0.815,0.256,1,0.872,1,1.391c0,0.928-0.656,1.679-1.815,1.711c-1.303,0-1.887-0.432-2.007-1.743
				h0.512c0,0.856,0.567,1.312,1.399,1.312c0.816,0,1.431-0.607,1.399-1.271c-0.032-0.911-0.824-1.199-1.815-1.127V3.79z"/>
		</g>
		<g>
			<path d="M98.89,5.533h-2.575v-0.44l2.623-3.75h0.463v3.758h0.784v0.432h-0.784v1.391H98.89V5.533z M96.819,5.101h2.071V2.11
				L96.819,5.101z"/>
		</g>
		<g>
			<path d="M118.079,5.177c0.104,0.76,0.656,1.144,1.391,1.144c0.84,0,1.352-0.64,1.352-1.439c0-0.839-0.544-1.431-1.399-1.431
				c-0.503,0-0.912,0.176-1.223,0.584l-0.424-0.056l0.456-2.918h2.798v0.432h-2.366l-0.352,1.895
				c0.44-0.288,0.728-0.368,1.239-0.368c1.032,0,1.783,0.704,1.783,1.863c0,1.184-0.855,1.871-1.783,1.871
				c-1.063,0-1.895-0.408-1.983-1.575H118.079z"/>
		</g>
		<g>
			<path d="M142.041,2.387c-0.112-0.576-0.472-0.952-1.071-0.952c-1.383,0-1.503,1.487-1.583,2.55
				c0.32-0.432,0.656-0.879,1.479-0.879c1.135,0,1.791,0.688,1.791,1.815c0,1.136-0.664,1.831-1.807,1.831
				c-1.127,0-1.975-0.704-1.975-2.694c0-1.335,0.392-3.054,2.047-3.054c0.888,0,1.543,0.479,1.647,1.383H142.041z M139.578,4.937
				c0,0.632,0.352,1.383,1.279,1.383c0.952,0,1.288-0.735,1.288-1.415c0-0.872-0.416-1.367-1.295-1.367
				C140.058,3.538,139.578,4.178,139.578,4.937z"/>
		</g>
		<g>
			<path d="M160.279,1.059h3.59v0.48c-1.615,1.823-2.223,3.998-2.287,5.101h-0.56c0.112-1.631,1.151-3.742,2.231-5.069h-2.975V1.059
				z"/>
		</g>
	</g>
	<g>
		<g>
			<path d="M0.839,22.215v-5.757h0.544v5.757H0.839z"/>
			<path d="M3.28,22.215H2.8v-4.142h0.48v0.576c0.384-0.408,0.759-0.688,1.335-0.688c0.504,0,0.968,0.16,1.263,0.591
				c0.2,0.296,0.208,0.608,0.208,0.952v2.71H5.606v-2.703c0-0.744-0.304-1.119-1.072-1.119c-0.591,0-0.999,0.384-1.151,0.808
				c-0.096,0.264-0.104,0.496-0.104,0.783V22.215z"/>
			<path d="M9.086,18.025H7.631v-0.335c0.855-0.056,1.391-0.144,1.559-1.111h0.408v5.637H9.086V18.025z"/>
		</g>
		<g>
			<path d="M0.839,47.415v-5.757h0.544v5.757H0.839z"/>
			<path d="M3.28,47.415H2.8v-4.142h0.48v0.576c0.384-0.408,0.759-0.688,1.335-0.688c0.504,0,0.968,0.16,1.263,0.591
				c0.2,0.296,0.208,0.608,0.208,0.952v2.71H5.606v-2.703c0-0.744-0.304-1.119-1.072-1.119c-0.591,0-0.999,0.384-1.151,0.808
				c-0.096,0.264-0.104,0.496-0.104,0.783V47.415z"/>
			<path d="M7.224,43.625c0-1.111,0.72-1.847,1.831-1.847c1.135,0,1.735,0.695,1.735,1.559c0,1.495-1.615,1.871-2.455,2.511
				c-0.368,0.28-0.711,0.6-0.736,1.135h3.143v0.432H7.056c0.008-0.536,0.08-0.959,0.44-1.375c1.175-1.359,2.734-1.343,2.734-2.67
				c0-0.735-0.544-1.159-1.239-1.159c-0.736,0-1.255,0.656-1.224,1.415H7.224z"/>
		</g>
		<g>
			<path d="M205.779,19.674v2.615h-0.543v-5.757h2.255c1.263,0,1.959,0.448,1.959,1.511c0,0.728-0.272,1.111-0.936,1.407
				c0.68,0.232,0.719,0.952,0.735,1.559c0.023,0.872,0.096,1.111,0.239,1.223v0.056h-0.6c-0.224-0.392-0.168-1.471-0.256-1.911
				c-0.128-0.624-0.6-0.704-1.143-0.704H205.779z M207.474,19.211c0.808,0,1.432-0.336,1.432-1.144c0-0.863-0.672-1.071-1.399-1.071
				h-1.728v2.215H207.474z"/>
			<path d="M210.803,20.33c-0.008,0.896,0.472,1.639,1.392,1.639c0.623,0,1.111-0.344,1.255-0.952h0.536
				c-0.24,0.784-0.735,1.383-1.791,1.383c-1.327,0-1.903-0.943-1.903-2.167c0-1.208,0.72-2.199,1.903-2.199
				c1.135,0,1.831,0.808,1.823,2.295H210.803z M213.506,19.93c0-0.807-0.448-1.463-1.312-1.463c-0.848,0-1.296,0.68-1.392,1.463
				H213.506z"/>
			<path d="M215.236,20.994c0.151,0.712,0.52,0.976,1.239,0.976c0.695,0,1.023-0.368,1.023-0.768c0-1.199-2.654-0.352-2.654-1.983
				c0-0.688,0.535-1.184,1.455-1.184c0.896,0,1.479,0.368,1.599,1.304h-0.487c-0.088-0.64-0.52-0.872-1.119-0.872
				c-0.608,0-0.936,0.288-0.936,0.711c0,1.127,2.654,0.424,2.654,2.015c0,0.792-0.712,1.207-1.688,1.207s-1.535-0.624-1.575-1.407
				H215.236z"/>
			<path d="M221.762,18.147h0.479v4.142h-0.479v-0.576c-0.256,0.288-0.607,0.688-1.335,0.688c-1.104,0-1.472-0.664-1.472-1.527
				v-2.727h0.479v2.718c0,0.712,0.312,1.104,1.063,1.104c0.792,0,1.264-0.656,1.264-1.567V18.147z"/>
			<path d="M223.475,22.289v-5.757h0.48v5.757H223.475z"/>
			<path d="M226.634,22.305c-0.111,0.024-0.319,0.096-0.552,0.096c-0.472,0-0.735-0.208-0.735-0.823v-3.031h-0.584v-0.399h0.584
				v-1.151h0.479v1.151h0.776v0.399h-0.776v2.839c0,0.408,0.017,0.583,0.416,0.583c0.128,0,0.264-0.024,0.392-0.056V22.305z"/>
			<path d="M233.689,19.747h-3.997v-0.48h3.997V19.747z M233.689,21.298h-3.997v-0.48h3.997V21.298z"/>
			<path d="M239.418,20.898h-2.575v-0.44l2.623-3.75h0.464v3.758h0.783v0.432h-0.783v1.391h-0.512V20.898z M237.347,20.466h2.071
				v-2.99L237.347,20.466z"/>
		</g>
	</g>
	<rect x="87.622" y="10.09" class="st1" width="42.52" height="17.716"/>
	<g>
	</g>
	<g>
	</g>
	<g>
	</g>
	<g>
	</g>
	<g>
	</g>
	<g>
	</g>
	<g>
	</g>
	<g>
	</g>
	<g>
	</g>
	<g>
	</g>
	<g>
	</g>
	<g>
	</g>
	<g>
	</g>
	<g>
	</g>
	<g>
	</g>
	<g>
	</g>
</g>
</svg>
