<?xml version="1.0" encoding="utf-8"?>
<!-- Generator: Adobe Illustrator 28.2.0, SVG Export Plug-In . SVG Version: 6.00 Build 0)  -->
<svg version="1.1" id="图层_1" xmlns="http://www.w3.org/2000/svg" xmlns:xlink="http://www.w3.org/1999/xlink" x="0px" y="0px"
	 width="368.253px" height="84.01px" viewBox="0 0 368.253 84.01" style="enable-background:new 0 0 368.253 84.01;"
	 xml:space="preserve">
<style type="text/css">
	.st0{fill:none;stroke:#B3B3B3;stroke-width:0.3;}
	.st1{fill:none;stroke:#B3B3B3;stroke-width:0.3;stroke-dasharray:1,1;}
	.st2{fill:none;stroke:#000000;stroke-width:0.8;}
	.st3{fill:none;stroke:#000000;stroke-width:0.3;}
	.st4{fill:#231815;}
	.st5{fill:none;stroke:#231815;stroke-width:0.5;}
</style>
<line class="st0" x1="65" y1="0" x2="65" y2="70.64"/>
<line class="st0" x1="110.134" y1="39.444" x2="110.134" y2="70.933"/>
<line class="st0" x1="233.591" y1="38.278" x2="233.591" y2="70.79"/>
<line class="st0" x1="188.826" y1="37.965" x2="188.826" y2="70.929"/>
<line class="st0" x1="312.5" y1="38.339" x2="312.5" y2="70.79"/>
<line class="st0" x1="328.865" y1="0.217" x2="328.865" y2="51.141"/>
<polyline class="st1" points="356.781,70.929 356.781,38.234 317.385,38.234 "/>
<g>
	<path d="M38.069,33.695c-2.143,0-2.798-1.783-2.798-3.022s0.655-3.022,2.798-3.022c2.143,0,2.798,1.783,2.798,3.022
		S40.211,33.695,38.069,33.695z M38.069,28.338c-1.248,0-1.999,0.983-1.999,2.334c0,1.352,0.751,2.335,1.999,2.335
		c1.247,0,1.999-0.983,1.999-2.335C40.068,29.321,39.316,28.338,38.069,28.338z"/>
	<path d="M42.646,33.543H41.87v-5.741h3.974v0.688h-3.198v1.759h2.814v0.688h-2.814V33.543z"/>
	<path d="M47.534,33.543h-0.776v-5.741h3.974v0.688h-3.198v1.759h2.814v0.688h-2.814V33.543z"/>
</g>
<g>
	<path d="M38.069,15.778c-2.143,0-2.798-1.783-2.798-3.022s0.655-3.022,2.798-3.022c2.143,0,2.798,1.783,2.798,3.022
		S40.211,15.778,38.069,15.778z M38.069,10.421c-1.248,0-1.999,0.983-1.999,2.334c0,1.352,0.751,2.335,1.999,2.335
		c1.247,0,1.999-0.983,1.999-2.335C40.068,11.404,39.316,10.421,38.069,10.421z"/>
	<path d="M45.596,9.885h0.751v5.741h-0.872l-2.918-4.637h-0.016v4.637H41.79V9.885h0.92l2.87,4.637h0.016V9.885z"/>
</g>
<polyline class="st2" points="54.031,31.624 64.991,31.624 64.991,13.204 329.138,13.204 329.138,31.624 368.252,31.624 "/>
<g>
	<path d="M38.069,58.896c-2.143,0-2.798-1.783-2.798-3.022s0.655-3.022,2.798-3.022c2.143,0,2.798,1.783,2.798,3.022
		S40.211,58.896,38.069,58.896z M38.069,53.539c-1.248,0-1.999,0.983-1.999,2.335c0,1.351,0.751,2.334,1.999,2.334
		c1.247,0,1.999-0.983,1.999-2.334C40.068,54.522,39.316,53.539,38.069,53.539z"/>
	<path d="M42.646,58.744H41.87v-5.741h3.974v0.688h-3.198v1.759h2.814v0.688h-2.814V58.744z"/>
	<path d="M47.534,58.744h-0.776v-5.741h3.974v0.688h-3.198v1.759h2.814v0.688h-2.814V58.744z"/>
</g>
<g>
	<path d="M38.069,40.981c-2.143,0-2.798-1.783-2.798-3.022s0.655-3.022,2.798-3.022c2.143,0,2.798,1.783,2.798,3.022
		S40.211,40.981,38.069,40.981z M38.069,35.624c-1.248,0-1.999,0.983-1.999,2.335c0,1.351,0.751,2.334,1.999,2.334
		c1.247,0,1.999-0.983,1.999-2.334C40.068,36.607,39.316,35.624,38.069,35.624z"/>
	<path d="M45.596,35.088h0.751v5.741h-0.872l-2.918-4.638h-0.016v4.638H41.79v-5.741h0.92l2.87,4.637h0.016V35.088z"/>
</g>
<polyline class="st2" points="54.031,56.827 65.099,56.827 65.099,38.406 110.035,38.406 110.035,56.827 188.821,56.827 
	188.821,38.406 233.868,38.406 233.868,56.827 312.437,56.827 312.437,38.226 328.635,38.226 328.635,56.764 368.253,56.764 "/>
<path class="st3" d="M188.574,69.895"/>
<path class="st4" d="M110.218,69.127l-6.467,3.652v-7.271L110.218,69.127z"/>
<path class="st4" d="M65.321,69.127l6.468-3.65l-0.001,7.271L65.321,69.127z"/>
<line class="st5" x1="69.998" y1="68.92" x2="103.954" y2="68.92"/>
<path class="st4" d="M188.529,69.127l-6.467,3.652v-7.271L188.529,69.127z"/>
<path class="st4" d="M110.194,69.127l6.468-3.65l-0.001,7.271L110.194,69.127z"/>
<line class="st5" x1="114.246" y1="68.92" x2="183.202" y2="68.92"/>
<g>
	<path class="st4" d="M233.217,69.127l-6.467,3.652v-7.271L233.217,69.127z"/>
	<path class="st4" d="M188.944,69.127l6.468-3.65l-0.001,7.271L188.944,69.127z"/>
	<line class="st5" x1="192.996" y1="68.92" x2="226.952" y2="68.92"/>
</g>
<path class="st4" d="M312.151,69.127l-6.467,3.652v-7.271L312.151,69.127z"/>
<path class="st4" d="M234.128,69.127l6.467-3.65v7.271L234.128,69.127z"/>
<line class="st5" x1="240.054" y1="68.92" x2="305.886" y2="68.92"/>
<g>
	<path class="st4" d="M357.151,69.127l-6.467,3.652v-7.271L357.151,69.127z"/>
	<path class="st4" d="M312.483,69.127l6.467-3.65v7.271L312.483,69.127z"/>
	<line class="st5" x1="316.929" y1="68.92" x2="350.886" y2="68.92"/>
</g>
<g>
	<path class="st4" d="M0.112,19.182h4.662v0.688H2.831v5.053H2.055V19.87H0.112V19.182z"/>
	<path class="st4" d="M6.208,24.923H5.504v-4.182h0.664v0.696h0.016c0.28-0.488,0.647-0.816,1.175-0.816
		c0.088,0,0.128,0.008,0.184,0.024v0.728H7.279c-0.656,0-1.071,0.512-1.071,1.12V24.923z"/>
	<path class="st4" d="M8.087,19.982v-0.799h0.704v0.799H8.087z M8.791,24.923H8.087v-4.182h0.704V24.923z"/>
	<path class="st4" d="M13.317,24.579c0,0.6-0.008,2.103-1.943,2.103c-0.496,0-1.463-0.136-1.599-1.248h0.704
		c0.128,0.664,0.775,0.664,0.943,0.664c1.215,0,1.191-0.976,1.191-1.471v-0.176h-0.016v0.032c-0.184,0.296-0.551,0.56-1.111,0.56
		c-1.423,0-1.839-1.335-1.839-2.335c0-1.175,0.632-2.087,1.743-2.087c0.759,0,1.079,0.472,1.247,0.712h0.016v-0.592h0.664V24.579z
		 M11.502,24.435c0.448,0,1.144-0.296,1.144-1.407c0-0.68-0.112-1.775-1.127-1.775c-1.087,0-1.144,1.031-1.144,1.567
		C10.375,23.74,10.735,24.435,11.502,24.435z"/>
	<path class="st4" d="M17.766,24.579c0,0.6-0.008,2.103-1.943,2.103c-0.496,0-1.463-0.136-1.599-1.248h0.704
		c0.128,0.664,0.775,0.664,0.943,0.664c1.215,0,1.191-0.976,1.191-1.471v-0.176h-0.016v0.032c-0.184,0.296-0.551,0.56-1.111,0.56
		c-1.423,0-1.839-1.335-1.839-2.335c0-1.175,0.632-2.087,1.743-2.087c0.759,0,1.079,0.472,1.247,0.712h0.016v-0.592h0.664V24.579z
		 M15.951,24.435c0.448,0,1.144-0.296,1.144-1.407c0-0.68-0.112-1.775-1.127-1.775c-1.087,0-1.144,1.031-1.144,1.567
		C14.823,23.74,15.183,24.435,15.951,24.435z"/>
	<path class="st4" d="M22.293,23.612c-0.024,0.2-0.216,0.792-0.744,1.143c-0.192,0.128-0.464,0.288-1.135,0.288
		c-1.175,0-1.871-0.888-1.871-2.095c0-1.295,0.624-2.327,2.007-2.327c1.208,0,1.799,0.959,1.799,2.439h-3.054
		c0,0.871,0.408,1.375,1.215,1.375c0.664,0,1.056-0.512,1.08-0.823H22.293z M21.622,22.5c-0.04-0.647-0.312-1.247-1.167-1.247
		c-0.648,0-1.16,0.6-1.16,1.247H21.622z"/>
	<path class="st4" d="M23.991,24.923h-0.704v-4.182h0.664v0.696h0.016c0.28-0.488,0.647-0.816,1.175-0.816
		c0.088,0,0.128,0.008,0.184,0.024v0.728h-0.264c-0.656,0-1.071,0.512-1.071,1.12V24.923z"/>
</g>
<g>
	<path class="st4" d="M0.647,46.37h2.327c1.496,0,2.415,1.136,2.415,2.791c0,1.287-0.56,2.95-2.447,2.95H0.647V46.37z M1.423,51.447
		h1.503c1.008,0,1.663-0.791,1.663-2.238s-0.664-2.175-1.719-2.175H1.423V51.447z"/>
	<path class="st4" d="M8.67,49.121c-0.008-0.264-0.104-0.704-0.992-0.704c-0.216,0-0.832,0.072-0.832,0.592
		c0,0.344,0.216,0.424,0.76,0.56l0.704,0.176c0.872,0.217,1.175,0.536,1.175,1.104c0,0.864-0.711,1.384-1.655,1.384
		c-1.655,0-1.775-0.96-1.799-1.464h0.68c0.024,0.328,0.12,0.856,1.111,0.856c0.504,0,0.959-0.2,0.959-0.664
		c0-0.336-0.232-0.448-0.832-0.6l-0.815-0.2c-0.584-0.144-0.968-0.439-0.968-1.016c0-0.919,0.76-1.335,1.583-1.335
		c1.495,0,1.599,1.104,1.599,1.312H8.67z"/>
	<path class="st4" d="M11.159,48.513v2.718c0,0.328,0.28,0.328,0.424,0.328h0.248v0.552c-0.256,0.024-0.456,0.056-0.527,0.056
		c-0.696,0-0.848-0.392-0.848-0.896v-2.758H9.888v-0.584h0.568v-1.167h0.704v1.167h0.671v0.584H11.159z"/>
</g>
<g>
	<path class="st4" d="M69.473,76.469h0.751v5.741h-0.872l-2.918-4.638h-0.016v4.638h-0.751v-5.741h0.919l2.87,4.638h0.016V76.469z"
		/>
	<path class="st4" d="M74.082,82.211v-0.607l-0.016-0.017c-0.296,0.488-0.656,0.744-1.328,0.744c-0.616,0-1.359-0.296-1.359-1.296
		v-3.006h0.703v2.774c0,0.688,0.352,0.92,0.808,0.92c0.888,0,1.151-0.784,1.151-1.392v-2.303h0.704v4.182H74.082z"/>
	<path class="st4" d="M75.803,78.029h0.664v0.592h0.016c0.152-0.224,0.512-0.712,1.264-0.712c0.751,0,0.991,0.456,1.111,0.68
		c0.352-0.392,0.631-0.68,1.279-0.68c0.448,0,1.295,0.232,1.295,1.407v2.895h-0.704v-2.702c0-0.576-0.176-0.968-0.775-0.968
		c-0.592,0-0.983,0.56-0.983,1.119v2.551h-0.704v-2.895c0-0.352-0.136-0.775-0.656-0.775c-0.4,0-1.104,0.256-1.104,1.392v2.278
		h-0.704V78.029z"/>
	<path class="st4" d="M84.818,82.211h-0.752v-3.99h-1.311v-0.56c0.912-0.063,1.287-0.151,1.511-1.071h0.552V82.211z"/>
	<path class="st4" d="M88.932,78.573l0.416-0.408l1.607,1.607l1.615-1.607l0.408,0.408l-1.607,1.615l1.607,1.614l-0.408,0.408
		l-1.615-1.607l-1.615,1.607l-0.408-0.408l1.615-1.614L88.932,78.573z"/>
	<path class="st4" d="M98.386,82.211h-0.752v-3.99h-1.311v-0.56c0.912-0.063,1.287-0.151,1.511-1.071h0.552V82.211z"/>
	<path class="st4" d="M102.186,82.363c-1.615,0-1.927-1.72-1.927-2.887s0.312-2.887,1.927-2.887s1.927,1.72,1.927,2.887
		S103.801,82.363,102.186,82.363z M102.186,77.221c-0.808,0-1.175,0.848-1.175,2.255s0.368,2.255,1.175,2.255
		s1.175-0.848,1.175-2.255S102.994,77.221,102.186,77.221z"/>
	<path class="st4" d="M104.931,78.029h0.664v0.592h0.016c0.152-0.224,0.512-0.712,1.264-0.712c0.751,0,0.991,0.456,1.111,0.68
		c0.352-0.392,0.631-0.68,1.279-0.68c0.448,0,1.295,0.232,1.295,1.407v2.895h-0.704v-2.702c0-0.576-0.176-0.968-0.775-0.968
		c-0.592,0-0.983,0.56-0.983,1.119v2.551h-0.704v-2.895c0-0.352-0.136-0.775-0.656-0.775c-0.4,0-1.104,0.256-1.104,1.392v2.278
		h-0.704V78.029z"/>
	<path class="st4" d="M113.97,79.22c-0.008-0.264-0.104-0.704-0.992-0.704c-0.216,0-0.832,0.072-0.832,0.592
		c0,0.344,0.216,0.424,0.76,0.56l0.704,0.177c0.872,0.216,1.175,0.535,1.175,1.103c0,0.864-0.711,1.384-1.655,1.384
		c-1.655,0-1.775-0.96-1.799-1.463h0.68c0.024,0.327,0.12,0.855,1.111,0.855c0.504,0,0.959-0.2,0.959-0.664
		c0-0.336-0.232-0.447-0.832-0.6l-0.815-0.2c-0.584-0.144-0.968-0.439-0.968-1.016c0-0.919,0.76-1.335,1.583-1.335
		c1.495,0,1.599,1.104,1.599,1.312H113.97z"/>
</g>
<g>
	<path class="st4" d="M129.299,76.469h0.751v5.741h-0.872l-2.918-4.638h-0.016v4.638h-0.751v-5.741h0.919l2.87,4.638h0.016V76.469z"
		/>
	<path class="st4" d="M133.907,82.211v-0.607l-0.016-0.017c-0.296,0.488-0.656,0.744-1.328,0.744c-0.616,0-1.359-0.296-1.359-1.296
		v-3.006h0.703v2.774c0,0.688,0.352,0.92,0.808,0.92c0.888,0,1.151-0.784,1.151-1.392v-2.303h0.704v4.182H133.907z"/>
	<path class="st4" d="M135.629,78.029h0.664v0.592h0.016c0.152-0.224,0.512-0.712,1.264-0.712c0.751,0,0.991,0.456,1.111,0.68
		c0.352-0.392,0.631-0.68,1.279-0.68c0.448,0,1.295,0.232,1.295,1.407v2.895h-0.704v-2.702c0-0.576-0.176-0.968-0.775-0.968
		c-0.592,0-0.983,0.56-0.983,1.119v2.551h-0.704v-2.895c0-0.352-0.136-0.775-0.656-0.775c-0.4,0-1.104,0.256-1.104,1.392v2.278
		h-0.704V78.029z"/>
	<path class="st4" d="M142.125,78.604c0-1.83,1.335-2.015,1.943-2.015c0.975,0,1.759,0.632,1.759,1.68
		c0,1.007-0.664,1.431-1.503,1.879l-0.584,0.319c-0.768,0.424-0.936,0.863-0.967,1.079h3.054v0.664h-3.846
		c0.04-1.167,0.567-1.791,1.319-2.23l0.744-0.432c0.6-0.345,1.031-0.576,1.031-1.312c0-0.448-0.288-1.016-1.111-1.016
		c-1.063,0-1.111,0.991-1.136,1.383H142.125z"/>
	<path class="st4" d="M148.757,78.573l0.416-0.408l1.607,1.607l1.615-1.607l0.408,0.408l-1.607,1.615l1.607,1.614l-0.408,0.408
		l-1.615-1.607l-1.615,1.607l-0.408-0.408l1.615-1.614L148.757,78.573z"/>
	<path class="st4" d="M158.211,82.211h-0.752v-3.99h-1.311v-0.56c0.912-0.063,1.287-0.151,1.511-1.071h0.552V82.211z"/>
	<path class="st4" d="M162.012,82.363c-1.615,0-1.927-1.72-1.927-2.887s0.312-2.887,1.927-2.887s1.927,1.72,1.927,2.887
		S163.627,82.363,162.012,82.363z M162.012,77.221c-0.808,0-1.175,0.848-1.175,2.255s0.368,2.255,1.175,2.255
		s1.175-0.848,1.175-2.255S162.819,77.221,162.012,77.221z"/>
	<path class="st4" d="M164.757,78.029h0.664v0.592h0.016c0.152-0.224,0.512-0.712,1.264-0.712c0.751,0,0.991,0.456,1.111,0.68
		c0.352-0.392,0.631-0.68,1.279-0.68c0.448,0,1.295,0.232,1.295,1.407v2.895h-0.704v-2.702c0-0.576-0.176-0.968-0.775-0.968
		c-0.592,0-0.983,0.56-0.983,1.119v2.551h-0.704v-2.895c0-0.352-0.136-0.775-0.656-0.775c-0.4,0-1.104,0.256-1.104,1.392v2.278
		h-0.704V78.029z"/>
	<path class="st4" d="M173.796,79.22c-0.008-0.264-0.104-0.704-0.991-0.704c-0.216,0-0.832,0.072-0.832,0.592
		c0,0.344,0.216,0.424,0.76,0.56l0.703,0.177c0.872,0.216,1.176,0.535,1.176,1.103c0,0.864-0.712,1.384-1.655,1.384
		c-1.655,0-1.774-0.96-1.799-1.463h0.68c0.024,0.327,0.12,0.855,1.111,0.855c0.504,0,0.96-0.2,0.96-0.664
		c0-0.336-0.232-0.447-0.832-0.6l-0.815-0.2c-0.584-0.144-0.968-0.439-0.968-1.016c0-0.919,0.76-1.335,1.583-1.335
		c1.495,0,1.6,1.104,1.6,1.312H173.796z"/>
</g>
<g>
	<path class="st4" d="M192.359,76.469h0.752v5.741h-0.871l-2.919-4.638h-0.016v4.638h-0.752v-5.741h0.92l2.87,4.638h0.016V76.469z"
		/>
	<path class="st4" d="M196.968,82.211v-0.607l-0.016-0.017c-0.296,0.488-0.656,0.744-1.327,0.744c-0.616,0-1.359-0.296-1.359-1.296
		v-3.006h0.703v2.774c0,0.688,0.353,0.92,0.808,0.92c0.888,0,1.151-0.784,1.151-1.392v-2.303h0.704v4.182H196.968z"/>
	<path class="st4" d="M198.689,78.029h0.664v0.592h0.016c0.152-0.224,0.512-0.712,1.264-0.712c0.751,0,0.991,0.456,1.111,0.68
		c0.352-0.392,0.632-0.68,1.279-0.68c0.447,0,1.295,0.232,1.295,1.407v2.895h-0.703v-2.702c0-0.576-0.176-0.968-0.775-0.968
		c-0.592,0-0.984,0.56-0.984,1.119v2.551h-0.703v-2.895c0-0.352-0.136-0.775-0.655-0.775c-0.4,0-1.104,0.256-1.104,1.392v2.278
		h-0.704V78.029z"/>
	<path class="st4" d="M207.704,82.211h-0.751v-3.99h-1.312v-0.56c0.911-0.063,1.287-0.151,1.511-1.071h0.552V82.211z"/>
	<path class="st4" d="M211.817,78.573l0.416-0.408l1.607,1.607l1.615-1.607l0.407,0.408l-1.607,1.615l1.607,1.614l-0.407,0.408
		l-1.615-1.607l-1.615,1.607l-0.408-0.408l1.615-1.614L211.817,78.573z"/>
	<path class="st4" d="M221.272,82.211h-0.751v-3.99h-1.312v-0.56c0.911-0.063,1.287-0.151,1.511-1.071h0.552V82.211z"/>
	<path class="st4" d="M225.072,82.363c-1.615,0-1.927-1.72-1.927-2.887s0.312-2.887,1.927-2.887s1.927,1.72,1.927,2.887
		S226.687,82.363,225.072,82.363z M225.072,77.221c-0.808,0-1.175,0.848-1.175,2.255s0.367,2.255,1.175,2.255
		s1.176-0.848,1.176-2.255S225.879,77.221,225.072,77.221z"/>
	<path class="st4" d="M227.817,78.029h0.664v0.592h0.016c0.152-0.224,0.512-0.712,1.264-0.712c0.751,0,0.991,0.456,1.111,0.68
		c0.352-0.392,0.632-0.68,1.279-0.68c0.447,0,1.295,0.232,1.295,1.407v2.895h-0.703v-2.702c0-0.576-0.176-0.968-0.776-0.968
		c-0.591,0-0.983,0.56-0.983,1.119v2.551h-0.703v-2.895c0-0.352-0.136-0.775-0.655-0.775c-0.4,0-1.104,0.256-1.104,1.392v2.278
		h-0.704V78.029z"/>
	<path class="st4" d="M236.856,79.22c-0.008-0.264-0.104-0.704-0.991-0.704c-0.216,0-0.832,0.072-0.832,0.592
		c0,0.344,0.216,0.424,0.76,0.56l0.703,0.177c0.872,0.216,1.176,0.535,1.176,1.103c0,0.864-0.712,1.384-1.655,1.384
		c-1.655,0-1.774-0.96-1.799-1.463h0.68c0.024,0.327,0.12,0.855,1.111,0.855c0.504,0,0.96-0.2,0.96-0.664
		c0-0.336-0.232-0.447-0.832-0.6l-0.815-0.2c-0.584-0.144-0.968-0.439-0.968-1.016c0-0.919,0.76-1.335,1.583-1.335
		c1.495,0,1.6,1.104,1.6,1.312H236.856z"/>
</g>
<g>
	<path class="st4" d="M254.358,76.469h0.751v5.741h-0.871l-2.919-4.638h-0.016v4.638h-0.752v-5.741h0.92l2.87,4.638h0.017V76.469z"
		/>
	<path class="st4" d="M258.965,82.211v-0.607l-0.016-0.017c-0.296,0.488-0.656,0.744-1.327,0.744c-0.616,0-1.359-0.296-1.359-1.296
		v-3.006h0.703v2.774c0,0.688,0.353,0.92,0.808,0.92c0.888,0,1.151-0.784,1.151-1.392v-2.303h0.704v4.182H258.965z"/>
	<path class="st4" d="M260.687,78.029h0.664v0.592h0.016c0.152-0.224,0.512-0.712,1.264-0.712c0.751,0,0.991,0.456,1.111,0.68
		c0.352-0.392,0.632-0.68,1.279-0.68c0.447,0,1.295,0.232,1.295,1.407v2.895h-0.703v-2.702c0-0.576-0.176-0.968-0.776-0.968
		c-0.591,0-0.983,0.56-0.983,1.119v2.551h-0.703v-2.895c0-0.352-0.136-0.775-0.655-0.775c-0.4,0-1.104,0.256-1.104,1.392v2.278
		h-0.704V78.029z"/>
	<path class="st4" d="M267.183,78.604c0-1.83,1.336-2.015,1.943-2.015c0.976,0,1.759,0.632,1.759,1.68
		c0,1.007-0.664,1.431-1.503,1.879l-0.584,0.319c-0.768,0.424-0.936,0.863-0.968,1.079h3.055v0.664h-3.846
		c0.04-1.167,0.567-1.791,1.319-2.23l0.743-0.432c0.6-0.345,1.031-0.576,1.031-1.312c0-0.448-0.287-1.016-1.111-1.016
		c-1.063,0-1.111,0.991-1.135,1.383H267.183z"/>
	<path class="st4" d="M273.815,78.573l0.416-0.408l1.607,1.607l1.615-1.607l0.407,0.408l-1.606,1.615l1.606,1.614l-0.407,0.408
		l-1.615-1.607l-1.615,1.607l-0.408-0.408l1.615-1.614L273.815,78.573z"/>
	<path class="st4" d="M283.27,82.211h-0.751v-3.99h-1.312v-0.56c0.911-0.063,1.287-0.151,1.511-1.071h0.552V82.211z"/>
	<path class="st4" d="M287.071,82.363c-1.615,0-1.927-1.72-1.927-2.887s0.312-2.887,1.927-2.887s1.927,1.72,1.927,2.887
		S288.686,82.363,287.071,82.363z M287.071,77.221c-0.808,0-1.175,0.848-1.175,2.255s0.367,2.255,1.175,2.255
		s1.176-0.848,1.176-2.255S287.878,77.221,287.071,77.221z"/>
	<path class="st4" d="M289.815,78.029h0.664v0.592h0.016c0.152-0.224,0.512-0.712,1.264-0.712c0.751,0,0.991,0.456,1.111,0.68
		c0.352-0.392,0.632-0.68,1.279-0.68c0.447,0,1.295,0.232,1.295,1.407v2.895h-0.703v-2.702c0-0.576-0.176-0.968-0.775-0.968
		c-0.592,0-0.984,0.56-0.984,1.119v2.551h-0.703v-2.895c0-0.352-0.136-0.775-0.655-0.775c-0.4,0-1.104,0.256-1.104,1.392v2.278
		h-0.704V78.029z"/>
	<path class="st4" d="M298.854,79.22c-0.008-0.264-0.104-0.704-0.991-0.704c-0.216,0-0.832,0.072-0.832,0.592
		c0,0.344,0.216,0.424,0.76,0.56l0.703,0.177c0.872,0.216,1.176,0.535,1.176,1.103c0,0.864-0.712,1.384-1.655,1.384
		c-1.655,0-1.774-0.96-1.799-1.463h0.68c0.023,0.327,0.12,0.855,1.111,0.855c0.504,0,0.959-0.2,0.959-0.664
		c0-0.336-0.231-0.447-0.831-0.6l-0.815-0.2c-0.584-0.144-0.968-0.439-0.968-1.016c0-0.919,0.76-1.335,1.583-1.335
		c1.495,0,1.6,1.104,1.6,1.312H298.854z"/>
</g>
<g>
	<path class="st4" d="M313.958,76.469h0.751v5.741h-0.871l-2.919-4.638h-0.016v4.638h-0.752v-5.741h0.92l2.87,4.638h0.017V76.469z"
		/>
	<path class="st4" d="M318.566,82.211v-0.607l-0.016-0.017c-0.296,0.488-0.656,0.744-1.327,0.744c-0.616,0-1.359-0.296-1.359-1.296
		v-3.006h0.703v2.774c0,0.688,0.353,0.92,0.808,0.92c0.888,0,1.151-0.784,1.151-1.392v-2.303h0.704v4.182H318.566z"/>
	<path class="st4" d="M320.288,78.029h0.664v0.592h0.016c0.152-0.224,0.512-0.712,1.264-0.712c0.751,0,0.991,0.456,1.111,0.68
		c0.352-0.392,0.632-0.68,1.279-0.68c0.447,0,1.295,0.232,1.295,1.407v2.895h-0.703v-2.702c0-0.576-0.176-0.968-0.776-0.968
		c-0.591,0-0.983,0.56-0.983,1.119v2.551h-0.703v-2.895c0-0.352-0.136-0.775-0.655-0.775c-0.4,0-1.104,0.256-1.104,1.392v2.278
		h-0.704V78.029z"/>
	<path class="st4" d="M329.302,82.211h-0.751v-3.99h-1.312v-0.56c0.911-0.063,1.287-0.151,1.511-1.071h0.552V82.211z"/>
	<path class="st4" d="M333.416,78.573l0.416-0.408l1.607,1.607l1.615-1.607l0.407,0.408l-1.606,1.615l1.606,1.614l-0.407,0.408
		l-1.615-1.607l-1.615,1.607l-0.408-0.408l1.615-1.614L333.416,78.573z"/>
	<path class="st4" d="M342.871,82.211h-0.751v-3.99h-1.312v-0.56c0.911-0.063,1.287-0.151,1.511-1.071h0.552V82.211z"/>
	<path class="st4" d="M346.671,82.363c-1.615,0-1.927-1.72-1.927-2.887s0.312-2.887,1.927-2.887s1.927,1.72,1.927,2.887
		S348.287,82.363,346.671,82.363z M346.671,77.221c-0.808,0-1.175,0.848-1.175,2.255s0.367,2.255,1.175,2.255
		s1.176-0.848,1.176-2.255S347.479,77.221,346.671,77.221z"/>
	<path class="st4" d="M349.416,78.029h0.664v0.592h0.016c0.152-0.224,0.512-0.712,1.264-0.712c0.751,0,0.991,0.456,1.111,0.68
		c0.352-0.392,0.632-0.68,1.279-0.68c0.447,0,1.295,0.232,1.295,1.407v2.895h-0.703v-2.702c0-0.576-0.176-0.968-0.775-0.968
		c-0.592,0-0.984,0.56-0.984,1.119v2.551h-0.703v-2.895c0-0.352-0.136-0.775-0.655-0.775c-0.4,0-1.104,0.256-1.104,1.392v2.278
		h-0.704V78.029z"/>
	<path class="st4" d="M358.455,79.22c-0.008-0.264-0.104-0.704-0.991-0.704c-0.216,0-0.832,0.072-0.832,0.592
		c0,0.344,0.216,0.424,0.76,0.56l0.703,0.177c0.872,0.216,1.176,0.535,1.176,1.103c0,0.864-0.712,1.384-1.655,1.384
		c-1.655,0-1.774-0.96-1.799-1.463h0.68c0.023,0.327,0.12,0.855,1.111,0.855c0.504,0,0.959-0.2,0.959-0.664
		c0-0.336-0.231-0.447-0.831-0.6l-0.815-0.2c-0.584-0.144-0.968-0.439-0.968-1.016c0-0.919,0.76-1.335,1.583-1.335
		c1.495,0,1.6,1.104,1.6,1.312H358.455z"/>
</g>
<g>
</g>
<g>
</g>
<g>
</g>
<g>
</g>
<g>
</g>
</svg>
