<?xml version="1.0" encoding="utf-8"?>
<!-- Generator: Adobe Illustrator 28.2.0, SVG Export Plug-In . SVG Version: 6.00 Build 0)  -->
<svg version="1.1" id="图层_1" xmlns="http://www.w3.org/2000/svg" xmlns:xlink="http://www.w3.org/1999/xlink" x="0px" y="0px"
	 width="460.638px" height="69.206px" viewBox="0 0 460.638 69.206" style="enable-background:new 0 0 460.638 69.206;"
	 xml:space="preserve">
<style type="text/css">
	.st0{fill:none;stroke:#000000;}
	.st1{fill:#FFFFFF;}
	.st2{fill:#FFFFFF;stroke:#231815;}
	.st3{fill:#231815;}
</style>
<line class="st0" x1="0.5" y1="34.603" x2="460.138" y2="34.603"/>
<line class="st0" x1="0.5" y1="0" x2="0.5" y2="69.206"/>
<line class="st0" x1="460.138" y1="0" x2="460.138" y2="69.206"/>
<g>
	<rect x="35.103" y="27.682" class="st1" width="13.842" height="13.843"/>
	<line class="st0" x1="48.944" y1="27.682" x2="48.944" y2="41.524"/>
	<line class="st0" x1="35.103" y1="41.524" x2="35.103" y2="27.682"/>
</g>
<rect x="169.476" y="17.301" class="st2" width="276.822" height="34.603"/>
<rect x="186.986" y="12.673" class="st1" width="56.155" height="11.486"/>
<line class="st2" x1="262.904" y1="51.904" x2="262.904" y2="17.301"/>
<line class="st2" x1="356.33" y1="51.904" x2="356.33" y2="17.301"/>
<g>
	<path class="st3" d="M30.8,16.272h4.662v0.688h-1.943v5.053h-0.776v-5.053H30.8V16.272z"/>
	<path class="st3" d="M35.935,22.012h-0.704v-4.182h0.664v0.696h0.016c0.28-0.488,0.647-0.816,1.175-0.816
		c0.088,0,0.128,0.008,0.184,0.024v0.728h-0.264c-0.656,0-1.071,0.512-1.071,1.12V22.012z"/>
	<path class="st3" d="M37.935,17.071v-0.799h0.704v0.799H37.935z M38.639,22.012h-0.704v-4.182h0.704V22.012z"/>
	<path class="st3" d="M43.165,21.669c0,0.6-0.008,2.103-1.943,2.103c-0.496,0-1.463-0.136-1.599-1.248h0.704
		c0.128,0.664,0.775,0.664,0.943,0.664c1.215,0,1.191-0.976,1.191-1.471v-0.176h-0.016v0.032c-0.184,0.296-0.552,0.56-1.111,0.56
		c-1.423,0-1.839-1.335-1.839-2.335c0-1.175,0.632-2.087,1.743-2.087c0.759,0,1.079,0.472,1.247,0.712h0.016v-0.592h0.664V21.669z
		 M41.35,21.524c0.448,0,1.144-0.296,1.144-1.407c0-0.68-0.112-1.775-1.127-1.775c-1.087,0-1.144,1.031-1.144,1.567
		C40.223,20.829,40.583,21.524,41.35,21.524z"/>
	<path class="st3" d="M47.613,21.669c0,0.6-0.008,2.103-1.943,2.103c-0.496,0-1.463-0.136-1.599-1.248h0.704
		c0.128,0.664,0.775,0.664,0.943,0.664c1.215,0,1.191-0.976,1.191-1.471v-0.176h-0.016v0.032c-0.184,0.296-0.551,0.56-1.111,0.56
		c-1.423,0-1.839-1.335-1.839-2.335c0-1.175,0.632-2.087,1.743-2.087c0.759,0,1.079,0.472,1.247,0.712h0.016v-0.592h0.664V21.669z
		 M45.798,21.524c0.448,0,1.144-0.296,1.144-1.407c0-0.68-0.112-1.775-1.127-1.775c-1.087,0-1.144,1.031-1.144,1.567
		C44.671,20.829,45.031,21.524,45.798,21.524z"/>
	<path class="st3" d="M52.141,20.701c-0.024,0.2-0.216,0.792-0.744,1.143c-0.192,0.128-0.464,0.288-1.135,0.288
		c-1.175,0-1.871-0.888-1.871-2.095c0-1.295,0.624-2.327,2.007-2.327c1.208,0,1.799,0.959,1.799,2.439h-3.055
		c0,0.871,0.408,1.375,1.215,1.375c0.664,0,1.056-0.512,1.08-0.823H52.141z M51.47,19.589c-0.04-0.647-0.312-1.247-1.167-1.247
		c-0.648,0-1.16,0.6-1.16,1.247H51.47z"/>
	<path class="st3" d="M53.839,22.012h-0.704v-4.182h0.664v0.696h0.016c0.28-0.488,0.647-0.816,1.175-0.816
		c0.088,0,0.128,0.008,0.184,0.024v0.728H54.91c-0.656,0-1.071,0.512-1.071,1.12V22.012z"/>
</g>
<g>
	<path class="st3" d="M208.076,21.143H207.3v-5.741h3.974v0.688h-3.198v1.759h2.814v0.688h-2.814V21.143z"/>
	<path class="st3" d="M212.884,20.456h2.91v0.688h-3.686v-5.741h0.776V20.456z"/>
	<path class="st3" d="M217.452,21.143h-0.776v-5.741h0.776V21.143z"/>
	<path class="st3" d="M219.556,21.143h-0.776v-5.741h0.776v2.782l2.783-2.782h1.071l-2.391,2.318l2.454,3.422h-1.007l-2.007-2.878
		l-0.903,0.863V21.143z"/>
</g>
<g>
	<path class="st3" d="M209.416,31.142h0.751v5.741h-0.872l-2.918-4.638h-0.016v4.638h-0.752v-5.741h0.92l2.87,4.638h0.016V31.142z"
		/>
	<path class="st3" d="M214.025,36.883v-0.607l-0.016-0.017c-0.295,0.488-0.655,0.744-1.327,0.744c-0.616,0-1.359-0.296-1.359-1.296
		v-3.006h0.704v2.774c0,0.688,0.352,0.92,0.807,0.92c0.888,0,1.151-0.784,1.151-1.392v-2.303h0.704v4.182H214.025z"/>
	<path class="st3" d="M215.746,32.701h0.664v0.592h0.016c0.152-0.224,0.512-0.712,1.264-0.712c0.751,0,0.991,0.456,1.111,0.68
		c0.352-0.392,0.631-0.68,1.279-0.68c0.448,0,1.295,0.232,1.295,1.407v2.895h-0.704v-2.702c0-0.576-0.176-0.968-0.775-0.968
		c-0.592,0-0.983,0.56-0.983,1.119v2.551h-0.704v-2.895c0-0.352-0.136-0.775-0.656-0.775c-0.4,0-1.104,0.256-1.104,1.392v2.278
		h-0.704V32.701z"/>
	<path class="st3" d="M224.761,36.883h-0.751v-3.99h-1.312v-0.56c0.911-0.063,1.287-0.151,1.511-1.071h0.552V36.883z"/>
</g>
<g>
	<path class="st3" d="M302.556,31.142h0.752v5.741h-0.871l-2.919-4.638h-0.016v4.638h-0.752v-5.741h0.92l2.87,4.638h0.016V31.142z"
		/>
	<path class="st3" d="M307.165,36.883v-0.607l-0.016-0.017c-0.296,0.488-0.656,0.744-1.327,0.744c-0.616,0-1.359-0.296-1.359-1.296
		v-3.006h0.703v2.774c0,0.688,0.353,0.92,0.808,0.92c0.888,0,1.151-0.784,1.151-1.392v-2.303h0.704v4.182H307.165z"/>
	<path class="st3" d="M308.886,32.701h0.664v0.592h0.016c0.152-0.224,0.512-0.712,1.264-0.712c0.751,0,0.991,0.456,1.111,0.68
		c0.352-0.392,0.632-0.68,1.279-0.68c0.447,0,1.295,0.232,1.295,1.407v2.895h-0.703v-2.702c0-0.576-0.176-0.968-0.775-0.968
		c-0.592,0-0.984,0.56-0.984,1.119v2.551h-0.703v-2.895c0-0.352-0.136-0.775-0.655-0.775c-0.4,0-1.104,0.256-1.104,1.392v2.278
		h-0.704V32.701z"/>
	<path class="st3" d="M315.382,33.276c0-1.831,1.336-2.015,1.943-2.015c0.976,0,1.759,0.632,1.759,1.68
		c0,1.007-0.663,1.431-1.503,1.879l-0.584,0.319c-0.768,0.424-0.936,0.863-0.968,1.079h3.055v0.664h-3.846
		c0.04-1.167,0.567-1.791,1.319-2.23l0.743-0.432c0.6-0.344,1.031-0.576,1.031-1.312c0-0.448-0.287-1.016-1.111-1.016
		c-1.063,0-1.111,0.991-1.135,1.383H315.382z"/>
</g>
<g>
	<path class="st3" d="M397.546,31.142h2.327c1.495,0,2.414,1.136,2.414,2.791c0,1.287-0.56,2.95-2.446,2.95h-2.295V31.142z
		 M398.321,36.219h1.504c1.007,0,1.663-0.791,1.663-2.238s-0.664-2.175-1.72-2.175h-1.447V36.219z"/>
	<path class="st3" d="M405.569,33.893c-0.008-0.264-0.104-0.704-0.991-0.704c-0.216,0-0.832,0.072-0.832,0.592
		c0,0.344,0.216,0.424,0.76,0.56l0.703,0.176c0.872,0.217,1.176,0.536,1.176,1.104c0,0.864-0.712,1.384-1.655,1.384
		c-1.655,0-1.774-0.96-1.799-1.464h0.68c0.023,0.328,0.12,0.856,1.111,0.856c0.504,0,0.959-0.2,0.959-0.664
		c0-0.336-0.231-0.448-0.831-0.6l-0.815-0.2c-0.584-0.144-0.968-0.439-0.968-1.016c0-0.919,0.76-1.335,1.583-1.335
		c1.495,0,1.6,1.104,1.6,1.312H405.569z"/>
	<path class="st3" d="M408.057,33.285v2.718c0,0.328,0.28,0.328,0.424,0.328h0.248v0.552c-0.256,0.024-0.455,0.056-0.527,0.056
		c-0.695,0-0.848-0.392-0.848-0.896v-2.758h-0.567v-0.584h0.567v-1.167h0.703v1.167h0.672v0.584H408.057z"/>
</g>
<g>
</g>
<g>
</g>
<g>
</g>
<g>
</g>
<g>
</g>
</svg>
