<?xml version="1.0" encoding="utf-8"?>
<!-- Generator: Adobe Illustrator 28.2.0, SVG Export Plug-In . SVG Version: 6.00 Build 0)  -->
<svg version="1.1" xmlns="http://www.w3.org/2000/svg" xmlns:xlink="http://www.w3.org/1999/xlink" x="0px" y="0px"
	 width="368.659px" height="164.979px" viewBox="0 0 368.659 164.979" style="enable-background:new 0 0 368.659 164.979;"
	 xml:space="preserve">
<style type="text/css">
	.st0{fill:none;stroke:#000000;}
	.st1{fill:none;stroke:#000000;stroke-dasharray:1;}
	.st2{fill:none;stroke:#000000;stroke-width:0.5;stroke-dasharray:0.5;}
	.st3{fill:none;stroke:#000000;stroke-width:0.5;}
	.st4{fill:#FFFFFF;}
</style>
<g id="レイヤー_1">
	<polygon class="st0" points="119.018,111.199 30.436,111.199 30.436,93.482 74.441,93.482 119.018,93.482 	"/>
	<line class="st1" x1="193.619" y1="102.341" x2="165.272" y2="102.341"/>
	<line class="st1" x1="193.883" y1="84.819" x2="165.272" y2="102.341"/>
	<line class="st1" x1="193.883" y1="65.783" x2="165.272" y2="102.341"/>
	<path d="M186.21,105.989V98.69l7.916,3.666L186.21,105.989z"/>
	<path d="M189.826,91.628l-3.975-6.122l8.635-1.237L189.826,91.628z"/>
	<path d="M193.08,73.648l-6.053-4.08l7.465-4.515L193.08,73.648z"/>
	<line class="st1" x1="193.883" y1="119.894" x2="165.272" y2="102.372"/>
	<line class="st1" x1="193.883" y1="138.931" x2="165.272" y2="102.372"/>
	<path d="M194.487,120.444l-8.635-1.237l3.975-6.122L194.487,120.444z"/>
	<path d="M194.491,139.66l-7.465-4.515l6.053-4.08L194.491,139.66z"/>
	<polyline class="st0" points="245.794,75.464 245.794,57.747 334.378,57.747 334.378,75.464 	"/>
	<polyline class="st0" points="334.378,128.614 334.378,146.331 245.794,146.331 245.794,128.614 	"/>
	<rect x="245.794" y="75.464" class="st0" width="88.584" height="17.717"/>
	<rect x="245.794" y="93.181" class="st0" width="88.584" height="17.717"/>
	<rect x="245.794" y="110.897" class="st0" width="88.584" height="17.717"/>
	<line class="st2" x1="290.086" y1="63.062" x2="290.086" y2="57.747"/>
	<line class="st2" x1="290.086" y1="75.464" x2="290.086" y2="70.149"/>
	<line class="st2" x1="290.086" y1="80.779" x2="290.086" y2="75.464"/>
	<line class="st2" x1="290.086" y1="93.181" x2="290.086" y2="87.866"/>
	<line class="st2" x1="290.086" y1="98.496" x2="290.086" y2="93.181"/>
	<line class="st2" x1="290.086" y1="110.897" x2="290.086" y2="105.582"/>
	<line class="st2" x1="290.086" y1="116.212" x2="290.086" y2="110.897"/>
	<line class="st2" x1="290.086" y1="128.614" x2="290.086" y2="123.299"/>
	<line class="st2" x1="290.086" y1="133.929" x2="290.086" y2="128.614"/>
	<line class="st2" x1="290.086" y1="146.331" x2="290.086" y2="141.016"/>
	<g>
		<path d="M207.547,62.418h2.327c1.495,0,2.415,1.135,2.415,2.791c0,1.287-0.56,2.95-2.447,2.95h-2.295V62.418z M208.323,67.495
			h1.503c1.007,0,1.663-0.792,1.663-2.239c0-1.447-0.664-2.175-1.719-2.175h-1.447V67.495z"/>
		<path d="M218.009,68.158v-3.39c0-0.168,0.016-0.896,0.016-1.431h-0.016l-1.615,4.821h-0.768l-1.615-4.813h-0.016
			c0,0.528,0.016,1.255,0.016,1.423v3.39h-0.752v-5.741h1.111l1.639,4.853h0.016l1.631-4.853h1.103v5.741H218.009z"/>
		<path d="M219.692,64.552c0-1.831,1.335-2.015,1.943-2.015c0.975,0,1.759,0.632,1.759,1.679c0,1.007-0.664,1.431-1.503,1.879
			l-0.584,0.32c-0.768,0.424-0.936,0.864-0.967,1.08h3.054v0.664h-3.846c0.04-1.167,0.567-1.791,1.319-2.231l0.744-0.432
			c0.6-0.344,1.031-0.576,1.031-1.311c0-0.448-0.288-1.016-1.111-1.016c-1.063,0-1.111,0.991-1.136,1.383H219.692z"/>
		<path d="M226.01,68.31c-1.615,0-1.927-1.719-1.927-2.886c0-1.167,0.312-2.887,1.927-2.887s1.927,1.719,1.927,2.887
			C227.938,66.591,227.625,68.31,226.01,68.31z M226.01,63.169c-0.808,0-1.175,0.848-1.175,2.255s0.368,2.255,1.175,2.255
			s1.175-0.848,1.175-2.255S226.818,63.169,226.01,63.169z"/>
		<path d="M230.027,64.96c0.12,0.008,0.248,0.016,0.368,0.016c0.544,0,1.072-0.216,1.072-0.919c0-0.336-0.2-0.888-1.04-0.888
			c-1,0-1.063,0.815-1.096,1.208h-0.688c0-0.824,0.336-1.839,1.815-1.839c1.087,0,1.735,0.624,1.735,1.479
			c0,0.72-0.416,1.063-0.72,1.159v0.016c0.543,0.176,0.936,0.56,0.936,1.311c0,0.92-0.592,1.807-2.023,1.807
			c-0.416,0-0.768-0.104-1.04-0.248c-0.624-0.328-0.792-0.976-0.839-1.624h0.728c0.024,0.528,0.152,1.24,1.199,1.24
			c0.72,0,1.223-0.44,1.223-1.088c0-0.943-0.831-1.031-1.311-1.031c-0.104,0-0.216,0.008-0.32,0.008V64.96z"/>
		<path d="M234.211,64.88h-0.832v-0.848h0.832V64.88z M234.211,68.158h-0.832v-0.848h0.832V68.158z"/>
	</g>
	<g>
		<path d="M207.547,80.72h2.327c1.495,0,2.415,1.135,2.415,2.791c0,1.287-0.56,2.95-2.447,2.95h-2.295V80.72z M208.323,85.797h1.503
			c1.007,0,1.663-0.792,1.663-2.239s-0.664-2.175-1.719-2.175h-1.447V85.797z"/>
		<path d="M218.009,86.461v-3.39c0-0.168,0.016-0.896,0.016-1.431h-0.016l-1.615,4.821h-0.768l-1.615-4.813h-0.016
			c0,0.528,0.016,1.255,0.016,1.423v3.39h-0.752V80.72h1.111l1.639,4.853h0.016l1.631-4.853h1.103v5.741H218.009z"/>
		<path d="M219.692,82.855c0-1.831,1.335-2.015,1.943-2.015c0.975,0,1.759,0.632,1.759,1.679c0,1.007-0.664,1.431-1.503,1.879
			l-0.584,0.32c-0.768,0.424-0.936,0.864-0.967,1.08h3.054v0.664h-3.846c0.04-1.167,0.567-1.791,1.319-2.231l0.744-0.432
			c0.6-0.344,1.031-0.576,1.031-1.311c0-0.448-0.288-1.016-1.111-1.016c-1.063,0-1.111,0.992-1.136,1.383H219.692z"/>
		<path d="M226.01,86.612c-1.615,0-1.927-1.719-1.927-2.886s0.312-2.887,1.927-2.887s1.927,1.719,1.927,2.887
			S227.625,86.612,226.01,86.612z M226.01,81.471c-0.808,0-1.175,0.848-1.175,2.255s0.368,2.254,1.175,2.254
			s1.175-0.847,1.175-2.254S226.818,81.471,226.01,81.471z"/>
		<path d="M228.532,80.96h3.886v0.616c-0.56,0.583-1.903,2.375-2.311,4.885h-0.776c0.192-1.543,1.215-3.558,2.295-4.813h-3.094
			V80.96z"/>
		<path d="M234.211,83.182h-0.832v-0.847h0.832V83.182z M234.211,86.461h-0.832v-0.848h0.832V86.461z"/>
	</g>
	<g>
		<path d="M208.007,99.022h2.327c1.495,0,2.415,1.135,2.415,2.791c0,1.287-0.56,2.95-2.447,2.95h-2.295V99.022z M208.783,104.099
			h1.503c1.007,0,1.663-0.792,1.663-2.239s-0.664-2.175-1.719-2.175h-1.447V104.099z"/>
		<path d="M218.469,104.762v-3.39c0-0.168,0.016-0.896,0.016-1.431h-0.016l-1.615,4.821h-0.768l-1.615-4.813h-0.016
			c0,0.528,0.016,1.255,0.016,1.423v3.39h-0.752v-5.741h1.111l1.639,4.853h0.016l1.631-4.853h1.103v5.741H218.469z"/>
		<path d="M220.152,101.156c0-1.831,1.335-2.015,1.943-2.015c0.975,0,1.759,0.632,1.759,1.679c0,1.007-0.664,1.431-1.503,1.879
			l-0.584,0.32c-0.768,0.424-0.936,0.864-0.967,1.08h3.054v0.664h-3.846c0.04-1.167,0.567-1.791,1.319-2.231l0.744-0.432
			c0.6-0.344,1.031-0.576,1.031-1.311c0-0.448-0.288-1.016-1.111-1.016c-1.063,0-1.111,0.992-1.136,1.383H220.152z"/>
		<path d="M227.118,104.762h-0.752v-3.99h-1.311v-0.56c0.912-0.064,1.287-0.152,1.511-1.072h0.552V104.762z"/>
		<path d="M230.646,104.762h-0.752v-3.99h-1.311v-0.56c0.912-0.064,1.287-0.152,1.511-1.072h0.552V104.762z"/>
		<path d="M233.751,101.484h-0.832v-0.847h0.832V101.484z M233.751,104.762h-0.832v-0.848h0.832V104.762z"/>
	</g>
	<g>
		<path d="M207.708,117.324h2.327c1.495,0,2.415,1.135,2.415,2.791c0,1.287-0.56,2.95-2.447,2.95h-2.295V117.324z M208.483,122.402
			h1.503c1.007,0,1.663-0.792,1.663-2.239s-0.664-2.175-1.719-2.175h-1.447V122.402z"/>
		<path d="M218.169,123.065v-3.39c0-0.168,0.016-0.896,0.016-1.431h-0.016l-1.615,4.821h-0.768l-1.615-4.813h-0.016
			c0,0.528,0.016,1.255,0.016,1.423v3.39h-0.752v-5.741h1.111l1.639,4.853h0.016l1.631-4.853h1.103v5.741H218.169z"/>
		<path d="M219.852,119.459c0-1.831,1.335-2.015,1.943-2.015c0.975,0,1.759,0.632,1.759,1.679c0,1.007-0.664,1.431-1.503,1.879
			l-0.584,0.32c-0.768,0.424-0.936,0.864-0.967,1.08h3.054v0.664h-3.846c0.04-1.167,0.567-1.791,1.319-2.231l0.744-0.432
			c0.6-0.344,1.031-0.576,1.031-1.311c0-0.448-0.288-1.016-1.111-1.016c-1.063,0-1.111,0.992-1.136,1.383H219.852z"/>
		<path d="M226.818,123.065h-0.752v-3.99h-1.311v-0.56c0.912-0.064,1.287-0.152,1.511-1.072h0.552V123.065z"/>
		<path d="M229.251,119.795c0.24-0.184,0.583-0.352,1.087-0.352c0.912,0,1.847,0.64,1.847,1.799c0,0.624-0.28,1.975-2.039,1.975
			c-0.735,0-1.679-0.296-1.815-1.551h0.728c0.072,0.656,0.56,0.944,1.191,0.944c0.728,0,1.184-0.584,1.184-1.288
			c0-0.808-0.552-1.247-1.248-1.247c-0.408,0-0.775,0.192-1.04,0.536l-0.607-0.032l0.424-3.014h2.91v0.688h-2.383L229.251,119.795z"
			/>
		<path d="M234.051,119.787h-0.832v-0.847h0.832V119.787z M234.051,123.065h-0.832v-0.848h0.832V123.065z"/>
	</g>
	<g>
		<path d="M207.708,135.627h2.327c1.495,0,2.415,1.135,2.415,2.791c0,1.287-0.56,2.95-2.447,2.95h-2.295V135.627z M208.483,140.704
			h1.503c1.007,0,1.663-0.792,1.663-2.239s-0.664-2.175-1.719-2.175h-1.447V140.704z"/>
		<path d="M218.169,141.367v-3.39c0-0.168,0.016-0.896,0.016-1.431h-0.016l-1.615,4.821h-0.768l-1.615-4.813h-0.016
			c0,0.528,0.016,1.255,0.016,1.423v3.39h-0.752v-5.741h1.111l1.639,4.853h0.016l1.631-4.853h1.103v5.741H218.169z"/>
		<path d="M219.852,137.761c0-1.831,1.335-2.015,1.943-2.015c0.975,0,1.759,0.632,1.759,1.679c0,1.007-0.664,1.431-1.503,1.879
			l-0.584,0.32c-0.768,0.424-0.936,0.864-0.967,1.08h3.054v0.664h-3.846c0.04-1.167,0.567-1.791,1.319-2.231l0.744-0.432
			c0.6-0.344,1.031-0.576,1.031-1.311c0-0.448-0.288-1.016-1.111-1.016c-1.063,0-1.111,0.991-1.136,1.383H219.852z"/>
		<path d="M226.818,141.367h-0.752v-3.99h-1.311v-0.56c0.912-0.064,1.287-0.152,1.511-1.072h0.552V141.367z"/>
		<path d="M228.412,137.674c0-1.023,0.624-1.927,1.807-1.927c1.791,0,1.967,1.695,1.967,2.607c0,0.6-0.104,3.166-2.039,3.166
			c-1.319,0-1.671-0.959-1.671-1.503h0.704c0.04,0.567,0.375,0.919,0.951,0.919c0.768,0,1.176-0.648,1.352-2.103l-0.016-0.016
			c-0.208,0.432-0.768,0.672-1.287,0.672C229.139,139.488,228.412,138.793,228.412,137.674z M231.362,137.577
			c0-0.64-0.328-1.199-1.135-1.199c-0.656,0-1.087,0.512-1.087,1.263c0,1.08,0.671,1.215,1.144,1.215
			C230.65,138.857,231.362,138.689,231.362,137.577z"/>
		<path d="M234.051,138.089h-0.832v-0.848h0.832V138.089z M234.051,141.367h-0.832v-0.848h0.832V141.367z"/>
	</g>
	<g>
		<path d="M128.519,102.104h-0.832v-0.847h0.832V102.104z M128.519,105.383h-0.832v-0.848h0.832V105.383z"/>
		<path d="M129.863,99.642h2.327c1.496,0,2.415,1.135,2.415,2.791c0,1.287-0.56,2.95-2.447,2.95h-2.295V99.642z M130.639,104.719
			h1.503c1.008,0,1.663-0.792,1.663-2.239s-0.664-2.175-1.719-2.175h-1.447V104.719z"/>
		<path d="M140.325,105.383v-3.39c0-0.168,0.016-0.896,0.016-1.431h-0.016l-1.615,4.821h-0.768l-1.615-4.813h-0.016
			c0,0.528,0.016,1.255,0.016,1.423v3.39h-0.752v-5.741h1.112l1.639,4.853h0.016l1.631-4.853h1.103v5.741H140.325z"/>
		<path d="M144.526,105.383h-0.752v-3.99h-1.311v-0.56c0.912-0.064,1.287-0.152,1.511-1.072h0.552V105.383z"/>
		<path d="M147.886,105.534c-1.615,0-1.927-1.719-1.927-2.886s0.312-2.887,1.927-2.887s1.927,1.719,1.927,2.887
			S149.501,105.534,147.886,105.534z M147.886,100.393c-0.808,0-1.175,0.848-1.175,2.255s0.368,2.254,1.175,2.254
			s1.175-0.847,1.175-2.254S148.694,100.393,147.886,100.393z"/>
		<path d="M152.334,105.534c-1.615,0-1.927-1.719-1.927-2.886s0.312-2.887,1.927-2.887s1.927,1.719,1.927,2.887
			S153.95,105.534,152.334,105.534z M152.334,100.393c-0.808,0-1.175,0.848-1.175,2.255s0.368,2.254,1.175,2.254
			s1.175-0.847,1.175-2.254S153.142,100.393,152.334,100.393z"/>
	</g>
	<g>
		<path d="M0.647,99.642h2.327c1.495,0,2.415,1.135,2.415,2.791c0,1.287-0.56,2.95-2.447,2.95H0.647V99.642z M1.423,104.719h1.503
			c1.007,0,1.663-0.792,1.663-2.239s-0.664-2.175-1.719-2.175H1.423V104.719z"/>
		<path d="M11.109,105.383v-3.39c0-0.168,0.016-0.896,0.016-1.431h-0.016l-1.615,4.821H8.726l-1.615-4.813H7.095
			c0,0.528,0.016,1.255,0.016,1.423v3.39H6.359v-5.741h1.111l1.639,4.853h0.016l1.631-4.853h1.103v5.741H11.109z"/>
		<path d="M15.311,105.383h-0.752v-3.99h-1.311v-0.56c0.912-0.064,1.287-0.152,1.511-1.072h0.552V105.383z"/>
		<path d="M18.67,105.534c-1.615,0-1.927-1.719-1.927-2.886s0.312-2.887,1.927-2.887c1.615,0,1.927,1.719,1.927,2.887
			S20.286,105.534,18.67,105.534z M18.67,100.393c-0.808,0-1.175,0.848-1.175,2.255s0.368,2.254,1.175,2.254
			s1.175-0.847,1.175-2.254S19.478,100.393,18.67,100.393z"/>
		<path d="M22.687,102.184c0.12,0.008,0.248,0.016,0.368,0.016c0.544,0,1.071-0.216,1.071-0.919c0-0.336-0.2-0.888-1.039-0.888
			c-1,0-1.063,0.815-1.096,1.208h-0.688c0-0.824,0.336-1.839,1.815-1.839c1.087,0,1.735,0.624,1.735,1.479
			c0,0.719-0.416,1.063-0.72,1.159v0.016c0.543,0.176,0.936,0.56,0.936,1.311c0,0.919-0.592,1.807-2.023,1.807
			c-0.416,0-0.768-0.104-1.04-0.248c-0.624-0.328-0.792-0.975-0.839-1.623h0.728c0.024,0.528,0.152,1.239,1.199,1.239
			c0.72,0,1.224-0.439,1.224-1.087c0-0.944-0.832-1.032-1.312-1.032c-0.104,0-0.216,0.008-0.32,0.008V102.184z"/>
		<path d="M26.871,102.104H26.04v-0.847h0.832V102.104z M26.871,105.383H26.04v-0.848h0.832V105.383z"/>
	</g>
	<g>
		<path d="M342.178,66.1h-0.832v-0.847h0.832V66.1z M342.178,69.379h-0.832v-0.848h0.832V69.379z"/>
		<path d="M343.522,63.638h2.327c1.495,0,2.414,1.135,2.414,2.791c0,1.287-0.56,2.95-2.446,2.95h-2.295V63.638z M344.297,68.715
			h1.504c1.007,0,1.663-0.792,1.663-2.239s-0.664-2.175-1.72-2.175h-1.447V68.715z"/>
		<path d="M353.984,69.379v-3.39c0-0.168,0.016-0.896,0.016-1.431h-0.016l-1.615,4.821h-0.768l-1.615-4.813h-0.016
			c0,0.528,0.016,1.255,0.016,1.423v3.39h-0.751v-5.741h1.111l1.639,4.853h0.017l1.631-4.853h1.104v5.741H353.984z"/>
		<path d="M355.667,65.773c0-1.831,1.336-2.015,1.943-2.015c0.976,0,1.759,0.632,1.759,1.679c0,1.007-0.664,1.431-1.503,1.879
			l-0.584,0.32c-0.768,0.424-0.936,0.864-0.968,1.08h3.055v0.664h-3.846c0.04-1.167,0.567-1.791,1.319-2.231l0.743-0.432
			c0.6-0.344,1.031-0.576,1.031-1.311c0-0.448-0.287-1.016-1.111-1.016c-1.063,0-1.111,0.992-1.135,1.383H355.667z"/>
		<path d="M361.986,69.53c-1.615,0-1.927-1.719-1.927-2.886s0.312-2.887,1.927-2.887s1.927,1.719,1.927,2.887
			S363.601,69.53,361.986,69.53z M361.986,64.389c-0.808,0-1.175,0.848-1.175,2.255s0.367,2.254,1.175,2.254
			s1.176-0.847,1.176-2.254S362.793,64.389,361.986,64.389z"/>
		<path d="M366.433,69.53c-1.615,0-1.927-1.719-1.927-2.886s0.312-2.887,1.927-2.887s1.927,1.719,1.927,2.887
			S368.048,69.53,366.433,69.53z M366.433,64.389c-0.808,0-1.175,0.848-1.175,2.255s0.367,2.254,1.175,2.254
			s1.176-0.847,1.176-2.254S367.241,64.389,366.433,64.389z"/>
	</g>
	<g>
		<path d="M342.178,83.793h-0.832v-0.847h0.832V83.793z M342.178,87.071h-0.832v-0.848h0.832V87.071z"/>
		<path d="M343.522,81.33h2.327c1.495,0,2.414,1.135,2.414,2.791c0,1.287-0.56,2.95-2.446,2.95h-2.295V81.33z M344.297,86.407h1.504
			c1.007,0,1.663-0.792,1.663-2.239s-0.664-2.175-1.72-2.175h-1.447V86.407z"/>
		<path d="M353.984,87.071v-3.39c0-0.168,0.016-0.896,0.016-1.431h-0.016l-1.615,4.821h-0.768l-1.615-4.813h-0.016
			c0,0.528,0.016,1.255,0.016,1.423v3.39h-0.751V81.33h1.111l1.639,4.853h0.017l1.631-4.853h1.104v5.741H353.984z"/>
		<path d="M355.667,83.465c0-1.831,1.336-2.015,1.943-2.015c0.976,0,1.759,0.632,1.759,1.679c0,1.007-0.664,1.431-1.503,1.879
			l-0.584,0.32c-0.768,0.424-0.936,0.864-0.968,1.08h3.055v0.664h-3.846c0.04-1.167,0.567-1.791,1.319-2.231l0.743-0.432
			c0.6-0.344,1.031-0.576,1.031-1.311c0-0.448-0.287-1.016-1.111-1.016c-1.063,0-1.111,0.992-1.135,1.383H355.667z"/>
		<path d="M361.986,87.223c-1.615,0-1.927-1.719-1.927-2.886s0.312-2.887,1.927-2.887s1.927,1.719,1.927,2.887
			S363.601,87.223,361.986,87.223z M361.986,82.082c-0.808,0-1.175,0.848-1.175,2.255s0.367,2.254,1.175,2.254
			s1.176-0.847,1.176-2.254S362.793,82.082,361.986,82.082z"/>
		<path d="M367.569,85.704v1.367h-0.704v-1.367h-2.454v-0.688l2.574-3.566h0.584v3.646h0.823v0.608H367.569z M365.058,85.096h1.807
			v-2.55h-0.016L365.058,85.096z"/>
	</g>
	<g>
		<path d="M342.178,101.485h-0.832v-0.847h0.832V101.485z M342.178,104.763h-0.832v-0.848h0.832V104.763z"/>
		<path d="M343.522,99.023h2.327c1.495,0,2.414,1.135,2.414,2.791c0,1.287-0.56,2.95-2.446,2.95h-2.295V99.023z M344.297,104.1
			h1.504c1.007,0,1.663-0.792,1.663-2.239s-0.664-2.175-1.72-2.175h-1.447V104.1z"/>
		<path d="M353.984,104.763v-3.39c0-0.168,0.016-0.896,0.016-1.431h-0.016l-1.615,4.821h-0.768l-1.615-4.813h-0.016
			c0,0.528,0.016,1.255,0.016,1.423v3.39h-0.751v-5.741h1.111l1.639,4.853h0.017l1.631-4.853h1.104v5.741H353.984z"/>
		<path d="M355.667,101.157c0-1.831,1.336-2.015,1.943-2.015c0.976,0,1.759,0.632,1.759,1.679c0,1.007-0.664,1.431-1.503,1.879
			l-0.584,0.32c-0.768,0.424-0.936,0.864-0.968,1.08h3.055v0.664h-3.846c0.04-1.167,0.567-1.791,1.319-2.231l0.743-0.432
			c0.6-0.344,1.031-0.576,1.031-1.311c0-0.448-0.287-1.016-1.111-1.016c-1.063,0-1.111,0.992-1.135,1.383H355.667z"/>
		<path d="M361.986,104.915c-1.615,0-1.927-1.719-1.927-2.886s0.312-2.887,1.927-2.887s1.927,1.719,1.927,2.887
			S363.601,104.915,361.986,104.915z M361.986,99.774c-0.808,0-1.175,0.848-1.175,2.255s0.367,2.254,1.175,2.254
			s1.176-0.847,1.176-2.254S362.793,99.774,361.986,99.774z"/>
		<path d="M367.424,101.773c0.76,0.32,0.92,0.943,0.92,1.367c0,0.903-0.576,1.775-1.903,1.775c-0.312,0-0.903-0.08-1.351-0.432
			c-0.576-0.456-0.576-1.063-0.576-1.335c0-0.688,0.36-1.127,0.951-1.367c-0.479-0.184-0.759-0.568-0.759-1.095
			c0-0.584,0.359-1.543,1.703-1.543c1.247,0,1.734,0.792,1.734,1.447C368.144,101.397,367.672,101.645,367.424,101.773z
			 M365.266,103.164c0,0.448,0.224,1.119,1.199,1.119c0.512,0,1.127-0.184,1.127-1.063c0-0.76-0.527-1.096-1.167-1.096
			C365.633,102.125,365.266,102.645,365.266,103.164z M367.417,100.613c0-0.344-0.224-0.839-1.047-0.839
			c-0.752,0-0.936,0.52-0.936,0.879c0,0.536,0.472,0.864,0.983,0.864C367.025,101.517,367.417,101.125,367.417,100.613z"/>
	</g>
	<g>
		<path d="M342.338,119.177h-0.832v-0.848h0.832V119.177z M342.338,122.455h-0.832v-0.848h0.832V122.455z"/>
		<path d="M343.682,116.715h2.327c1.495,0,2.414,1.135,2.414,2.791c0,1.287-0.56,2.95-2.446,2.95h-2.295V116.715z M344.458,121.792
			h1.504c1.007,0,1.663-0.792,1.663-2.239s-0.664-2.175-1.72-2.175h-1.447V121.792z"/>
		<path d="M354.144,122.455v-3.39c0-0.168,0.016-0.896,0.016-1.431h-0.016l-1.615,4.821h-0.768l-1.615-4.813h-0.016
			c0,0.528,0.016,1.255,0.016,1.423v3.39h-0.751v-5.741h1.111l1.639,4.853h0.017l1.631-4.853h1.104v5.741H354.144z"/>
		<path d="M355.827,118.849c0-1.831,1.336-2.015,1.943-2.015c0.976,0,1.759,0.632,1.759,1.679c0,1.007-0.664,1.431-1.503,1.879
			l-0.584,0.32c-0.768,0.424-0.936,0.864-0.968,1.08h3.055v0.664h-3.846c0.04-1.167,0.567-1.791,1.319-2.231l0.743-0.432
			c0.6-0.344,1.031-0.576,1.031-1.311c0-0.448-0.287-1.016-1.111-1.016c-1.063,0-1.111,0.991-1.135,1.383H355.827z"/>
		<path d="M362.793,122.455h-0.751v-3.99h-1.312v-0.56c0.911-0.064,1.287-0.152,1.511-1.072h0.552V122.455z"/>
		<path d="M364.403,118.849c0-1.831,1.336-2.015,1.943-2.015c0.976,0,1.759,0.632,1.759,1.679c0,1.007-0.664,1.431-1.503,1.879
			l-0.584,0.32c-0.768,0.424-0.936,0.864-0.968,1.08h3.055v0.664h-3.846c0.04-1.167,0.567-1.791,1.319-2.231l0.743-0.432
			c0.6-0.344,1.031-0.576,1.031-1.311c0-0.448-0.287-1.016-1.111-1.016c-1.063,0-1.111,0.991-1.135,1.383H364.403z"/>
	</g>
	<g>
		<path d="M342.338,136.869h-0.832v-0.848h0.832V136.869z M342.338,140.148h-0.832V139.3h0.832V140.148z"/>
		<path d="M343.682,134.407h2.327c1.495,0,2.414,1.135,2.414,2.791c0,1.287-0.56,2.95-2.446,2.95h-2.295V134.407z M344.458,139.484
			h1.504c1.007,0,1.663-0.792,1.663-2.239s-0.664-2.175-1.72-2.175h-1.447V139.484z"/>
		<path d="M354.144,140.148v-3.39c0-0.168,0.016-0.896,0.016-1.431h-0.016l-1.615,4.821h-0.768l-1.615-4.813h-0.016
			c0,0.528,0.016,1.255,0.016,1.423v3.39h-0.751v-5.741h1.111l1.639,4.853h0.017l1.631-4.853h1.104v5.741H354.144z"/>
		<path d="M355.827,136.542c0-1.831,1.336-2.015,1.943-2.015c0.976,0,1.759,0.632,1.759,1.679c0,1.007-0.664,1.431-1.503,1.879
			l-0.584,0.32c-0.768,0.424-0.936,0.864-0.968,1.08h3.055v0.664h-3.846c0.04-1.167,0.567-1.791,1.319-2.231l0.743-0.432
			c0.6-0.344,1.031-0.576,1.031-1.311c0-0.448-0.287-1.016-1.111-1.016c-1.063,0-1.111,0.991-1.135,1.383H355.827z"/>
		<path d="M362.793,140.148h-0.751v-3.99h-1.312v-0.56c0.911-0.064,1.287-0.152,1.511-1.072h0.552V140.148z"/>
		<path d="M367.385,136.022c-0.088-0.496-0.359-0.863-0.968-0.863c-1.103,0-1.335,1.487-1.335,2.079l0.017,0.016
			c0.176-0.304,0.567-0.688,1.335-0.688c0.688,0,1.759,0.44,1.759,1.783c0,0.576-0.151,0.991-0.535,1.407
			c-0.296,0.328-0.632,0.543-1.424,0.543c-0.432,0-1.047-0.192-1.447-0.815c-0.336-0.528-0.432-1.215-0.432-1.951
			c0-1.231,0.4-3.006,2.079-3.006c0.647,0,1.567,0.352,1.639,1.495H367.385z M366.362,139.668c0.672,0,1.104-0.528,1.104-1.288
			c0-0.496-0.264-1.183-1.136-1.183c-0.775,0-1.151,0.56-1.151,1.223C365.178,139.02,365.539,139.668,366.362,139.668z"/>
	</g>
	<g>
		<path d="M269.066,83.844h0.584v1.727h1.727v0.583h-1.727v1.727h-0.584v-1.727h-1.735v-0.583h1.735V83.844z"/>
		<path d="M274.561,87.882h-0.751v-3.99h-1.312v-0.56c0.911-0.064,1.287-0.152,1.511-1.072h0.552V87.882z"/>
		<path d="M276.466,87.882h-0.832v-0.848h0.832V87.882z"/>
		<path d="M277.515,84.276c0-1.831,1.336-2.015,1.943-2.015c0.976,0,1.759,0.632,1.759,1.679c0,1.007-0.663,1.431-1.503,1.879
			l-0.584,0.32c-0.768,0.424-0.936,0.864-0.968,1.08h3.055v0.664h-3.846c0.04-1.167,0.567-1.791,1.319-2.231l0.743-0.432
			c0.6-0.344,1.031-0.576,1.031-1.311c0-0.448-0.287-1.016-1.111-1.016c-1.063,0-1.111,0.992-1.135,1.383H277.515z"/>
		<path d="M283.402,84.683c0.12,0.008,0.248,0.016,0.368,0.016c0.543,0,1.071-0.216,1.071-0.919c0-0.336-0.2-0.888-1.04-0.888
			c-0.999,0-1.063,0.815-1.095,1.208h-0.688c0-0.824,0.335-1.839,1.814-1.839c1.088,0,1.735,0.624,1.735,1.479
			c0,0.719-0.416,1.063-0.72,1.159v0.016c0.544,0.176,0.936,0.56,0.936,1.311c0,0.919-0.592,1.807-2.023,1.807
			c-0.415,0-0.768-0.104-1.039-0.248c-0.624-0.328-0.791-0.975-0.84-1.623h0.728c0.024,0.528,0.152,1.239,1.2,1.239
			c0.719,0,1.223-0.439,1.223-1.087c0-0.944-0.831-1.032-1.311-1.032c-0.104,0-0.217,0.008-0.32,0.008V84.683z"/>
		<path d="M289.417,86.514v1.367h-0.704v-1.367h-2.454v-0.688l2.574-3.566h0.584v3.646h0.823v0.608H289.417z M286.907,85.906h1.807
			v-2.55h-0.016L286.907,85.906z"/>
		<path d="M291.683,84.612c0.239-0.184,0.583-0.352,1.087-0.352c0.911,0,1.847,0.64,1.847,1.799c0,0.624-0.279,1.975-2.038,1.975
			c-0.736,0-1.68-0.296-1.815-1.551h0.728c0.072,0.656,0.56,0.944,1.191,0.944c0.728,0,1.184-0.584,1.184-1.288
			c0-0.808-0.552-1.247-1.247-1.247c-0.408,0-0.776,0.192-1.04,0.536l-0.607-0.032l0.424-3.014h2.91v0.688h-2.383L291.683,84.612z"
			/>
		<path d="M298.289,83.756c-0.088-0.496-0.359-0.864-0.967-0.864c-1.104,0-1.336,1.487-1.336,2.079l0.017,0.016
			c0.176-0.304,0.567-0.688,1.335-0.688c0.688,0,1.759,0.44,1.759,1.783c0,0.576-0.151,0.991-0.535,1.407
			c-0.296,0.328-0.632,0.543-1.424,0.543c-0.432,0-1.047-0.192-1.447-0.815c-0.336-0.528-0.432-1.215-0.432-1.951
			c0-1.231,0.399-3.006,2.079-3.006c0.647,0,1.567,0.352,1.639,1.496H298.289z M297.265,87.402c0.672,0,1.104-0.527,1.104-1.287
			c0-0.496-0.264-1.183-1.136-1.183c-0.775,0-1.151,0.56-1.151,1.223C296.082,86.754,296.442,87.402,297.265,87.402z"/>
		<path d="M299.699,82.381h3.886v0.616c-0.56,0.583-1.903,2.375-2.311,4.885h-0.775c0.191-1.543,1.215-3.558,2.294-4.813h-3.094
			V82.381z"/>
		<path d="M307.065,84.891c0.76,0.32,0.92,0.943,0.92,1.367c0,0.903-0.576,1.775-1.903,1.775c-0.312,0-0.903-0.08-1.351-0.432
			c-0.576-0.456-0.576-1.063-0.576-1.335c0-0.688,0.36-1.127,0.951-1.367c-0.479-0.184-0.759-0.568-0.759-1.095
			c0-0.584,0.359-1.543,1.703-1.543c1.247,0,1.734,0.792,1.734,1.447C307.785,84.515,307.313,84.763,307.065,84.891z
			 M304.907,86.282c0,0.448,0.224,1.119,1.199,1.119c0.512,0,1.127-0.184,1.127-1.063c0-0.76-0.527-1.096-1.167-1.096
			C305.274,85.243,304.907,85.763,304.907,86.282z M307.057,83.732c0-0.344-0.224-0.839-1.047-0.839
			c-0.752,0-0.936,0.52-0.936,0.879c0,0.536,0.472,0.864,0.983,0.864C306.666,84.635,307.057,84.243,307.057,83.732z"/>
		<path d="M308.635,84.188c0-1.023,0.624-1.927,1.807-1.927c1.791,0,1.967,1.695,1.967,2.607c0,0.6-0.104,3.166-2.038,3.166
			c-1.319,0-1.672-0.959-1.672-1.503h0.704c0.04,0.567,0.376,0.919,0.951,0.919c0.768,0,1.176-0.648,1.352-2.103l-0.017-0.016
			c-0.207,0.432-0.768,0.672-1.287,0.672C309.363,86.003,308.635,85.307,308.635,84.188z M311.585,84.091
			c0-0.64-0.328-1.199-1.136-1.199c-0.655,0-1.087,0.512-1.087,1.263c0,1.08,0.672,1.215,1.144,1.215
			C310.874,85.371,311.585,85.203,311.585,84.091z"/>
	</g>
	<g>
		<path d="M269.066,101.531h0.584v1.727h1.727v0.583h-1.727v1.727h-0.584v-1.727h-1.735v-0.583h1.735V101.531z"/>
		<path d="M274.561,105.569h-0.751v-3.99h-1.312v-0.56c0.911-0.064,1.287-0.152,1.511-1.072h0.552V105.569z"/>
		<path d="M276.466,105.569h-0.832v-0.848h0.832V105.569z"/>
		<path d="M277.515,101.963c0-1.831,1.336-2.015,1.943-2.015c0.976,0,1.759,0.632,1.759,1.679c0,1.007-0.663,1.431-1.503,1.879
			l-0.584,0.32c-0.768,0.424-0.936,0.864-0.968,1.08h3.055v0.664h-3.846c0.04-1.167,0.567-1.791,1.319-2.231l0.743-0.432
			c0.6-0.344,1.031-0.576,1.031-1.311c0-0.448-0.287-1.016-1.111-1.016c-1.063,0-1.111,0.992-1.135,1.383H277.515z"/>
		<path d="M283.402,102.371c0.12,0.008,0.248,0.016,0.368,0.016c0.543,0,1.071-0.216,1.071-0.919c0-0.336-0.2-0.888-1.04-0.888
			c-0.999,0-1.063,0.815-1.095,1.208h-0.688c0-0.824,0.335-1.839,1.814-1.839c1.088,0,1.735,0.624,1.735,1.479
			c0,0.719-0.416,1.063-0.72,1.159v0.016c0.544,0.176,0.936,0.56,0.936,1.311c0,0.919-0.592,1.807-2.023,1.807
			c-0.415,0-0.768-0.104-1.039-0.248c-0.624-0.328-0.791-0.975-0.84-1.623h0.728c0.024,0.528,0.152,1.239,1.2,1.239
			c0.719,0,1.223-0.439,1.223-1.087c0-0.944-0.831-1.032-1.311-1.032c-0.104,0-0.217,0.008-0.32,0.008V102.371z"/>
		<path d="M289.417,104.202v1.367h-0.704v-1.367h-2.454v-0.688l2.574-3.566h0.584v3.646h0.823v0.608H289.417z M286.907,103.594
			h1.807v-2.55h-0.016L286.907,103.594z"/>
		<path d="M291.683,102.299c0.239-0.184,0.583-0.352,1.087-0.352c0.911,0,1.847,0.64,1.847,1.799c0,0.624-0.279,1.975-2.038,1.975
			c-0.736,0-1.68-0.296-1.815-1.551h0.728c0.072,0.656,0.56,0.944,1.191,0.944c0.728,0,1.184-0.584,1.184-1.288
			c0-0.808-0.552-1.247-1.247-1.247c-0.408,0-0.776,0.192-1.04,0.536l-0.607-0.032l0.424-3.014h2.91v0.688h-2.383L291.683,102.299z"
			/>
		<path d="M298.289,101.444c-0.088-0.496-0.359-0.864-0.967-0.864c-1.104,0-1.336,1.487-1.336,2.079l0.017,0.016
			c0.176-0.304,0.567-0.688,1.335-0.688c0.688,0,1.759,0.44,1.759,1.783c0,0.576-0.151,0.991-0.535,1.407
			c-0.296,0.328-0.632,0.543-1.424,0.543c-0.432,0-1.047-0.192-1.447-0.815c-0.336-0.528-0.432-1.215-0.432-1.951
			c0-1.231,0.399-3.006,2.079-3.006c0.647,0,1.567,0.352,1.639,1.496H298.289z M297.265,105.089c0.672,0,1.104-0.527,1.104-1.287
			c0-0.496-0.264-1.183-1.136-1.183c-0.775,0-1.151,0.56-1.151,1.223C296.082,104.442,296.442,105.089,297.265,105.089z"/>
		<path d="M299.699,100.068h3.886v0.616c-0.56,0.583-1.903,2.375-2.311,4.885h-0.775c0.191-1.543,1.215-3.558,2.294-4.813h-3.094
			V100.068z"/>
		<path d="M307.065,102.579c0.76,0.32,0.92,0.943,0.92,1.367c0,0.903-0.576,1.775-1.903,1.775c-0.312,0-0.903-0.08-1.351-0.432
			c-0.576-0.456-0.576-1.063-0.576-1.335c0-0.688,0.36-1.127,0.951-1.367c-0.479-0.184-0.759-0.568-0.759-1.095
			c0-0.584,0.359-1.543,1.703-1.543c1.247,0,1.734,0.792,1.734,1.447C307.785,102.203,307.313,102.451,307.065,102.579z
			 M304.907,103.97c0,0.448,0.224,1.119,1.199,1.119c0.512,0,1.127-0.184,1.127-1.063c0-0.76-0.527-1.096-1.167-1.096
			C305.274,102.93,304.907,103.45,304.907,103.97z M307.057,101.419c0-0.344-0.224-0.839-1.047-0.839
			c-0.752,0-0.936,0.52-0.936,0.879c0,0.536,0.472,0.864,0.983,0.864C306.666,102.323,307.057,101.931,307.057,101.419z"/>
		<path d="M308.635,101.875c0-1.023,0.624-1.927,1.807-1.927c1.791,0,1.967,1.695,1.967,2.607c0,0.6-0.104,3.166-2.038,3.166
			c-1.319,0-1.672-0.959-1.672-1.503h0.704c0.04,0.567,0.376,0.919,0.951,0.919c0.768,0,1.176-0.648,1.352-2.103l-0.017-0.016
			c-0.207,0.432-0.768,0.672-1.287,0.672C309.363,103.69,308.635,102.994,308.635,101.875z M311.585,101.779
			c0-0.64-0.328-1.199-1.136-1.199c-0.655,0-1.087,0.512-1.087,1.263c0,1.08,0.672,1.215,1.144,1.215
			C310.874,103.058,311.585,102.89,311.585,101.779z"/>
	</g>
	<g>
		<path d="M269.066,119.218h0.584v1.727h1.727v0.583h-1.727v1.727h-0.584v-1.727h-1.735v-0.583h1.735V119.218z"/>
		<path d="M274.561,123.256h-0.751v-3.99h-1.312v-0.56c0.911-0.064,1.287-0.152,1.511-1.072h0.552V123.256z"/>
		<path d="M276.466,123.256h-0.832v-0.848h0.832V123.256z"/>
		<path d="M277.515,119.65c0-1.831,1.336-2.015,1.943-2.015c0.976,0,1.759,0.632,1.759,1.679c0,1.007-0.663,1.431-1.503,1.879
			l-0.584,0.32c-0.768,0.424-0.936,0.864-0.968,1.08h3.055v0.664h-3.846c0.04-1.167,0.567-1.791,1.319-2.231l0.743-0.432
			c0.6-0.344,1.031-0.576,1.031-1.311c0-0.448-0.287-1.016-1.111-1.016c-1.063,0-1.111,0.991-1.135,1.383H277.515z"/>
		<path d="M283.402,120.058c0.12,0.008,0.248,0.016,0.368,0.016c0.543,0,1.071-0.216,1.071-0.919c0-0.336-0.2-0.888-1.04-0.888
			c-0.999,0-1.063,0.815-1.095,1.208h-0.688c0-0.824,0.335-1.839,1.814-1.839c1.088,0,1.735,0.624,1.735,1.479
			c0,0.72-0.416,1.063-0.72,1.159v0.016c0.544,0.176,0.936,0.56,0.936,1.311c0,0.92-0.592,1.807-2.023,1.807
			c-0.415,0-0.768-0.104-1.039-0.248c-0.624-0.328-0.791-0.976-0.84-1.624h0.728c0.024,0.528,0.152,1.24,1.2,1.24
			c0.719,0,1.223-0.44,1.223-1.088c0-0.943-0.831-1.031-1.311-1.031c-0.104,0-0.217,0.008-0.32,0.008V120.058z"/>
		<path d="M289.417,121.889v1.367h-0.704v-1.367h-2.454v-0.688l2.574-3.566h0.584v3.646h0.823v0.608H289.417z M286.907,121.281
			h1.807v-2.55h-0.016L286.907,121.281z"/>
		<path d="M291.683,119.986c0.239-0.184,0.583-0.352,1.087-0.352c0.911,0,1.847,0.64,1.847,1.799c0,0.624-0.279,1.975-2.038,1.975
			c-0.736,0-1.68-0.296-1.815-1.551h0.728c0.072,0.656,0.56,0.944,1.191,0.944c0.728,0,1.184-0.584,1.184-1.288
			c0-0.808-0.552-1.247-1.247-1.247c-0.408,0-0.776,0.192-1.04,0.536l-0.607-0.032l0.424-3.014h2.91v0.688h-2.383L291.683,119.986z"
			/>
		<path d="M298.289,119.13c-0.088-0.496-0.359-0.863-0.967-0.863c-1.104,0-1.336,1.487-1.336,2.079l0.017,0.016
			c0.176-0.304,0.567-0.688,1.335-0.688c0.688,0,1.759,0.44,1.759,1.783c0,0.576-0.151,0.991-0.535,1.407
			c-0.296,0.328-0.632,0.543-1.424,0.543c-0.432,0-1.047-0.192-1.447-0.815c-0.336-0.528-0.432-1.215-0.432-1.951
			c0-1.231,0.399-3.006,2.079-3.006c0.647,0,1.567,0.352,1.639,1.495H298.289z M297.265,122.777c0.672,0,1.104-0.528,1.104-1.288
			c0-0.496-0.264-1.183-1.136-1.183c-0.775,0-1.151,0.56-1.151,1.223C296.082,122.129,296.442,122.777,297.265,122.777z"/>
		<path d="M299.699,117.755h3.886v0.616c-0.56,0.583-1.903,2.375-2.311,4.885h-0.775c0.191-1.543,1.215-3.558,2.294-4.813h-3.094
			V117.755z"/>
		<path d="M307.065,120.266c0.76,0.32,0.92,0.943,0.92,1.367c0,0.903-0.576,1.775-1.903,1.775c-0.312,0-0.903-0.08-1.351-0.432
			c-0.576-0.456-0.576-1.063-0.576-1.335c0-0.688,0.36-1.127,0.951-1.367c-0.479-0.184-0.759-0.567-0.759-1.095
			c0-0.584,0.359-1.543,1.703-1.543c1.247,0,1.734,0.792,1.734,1.447C307.785,119.89,307.313,120.138,307.065,120.266z
			 M304.907,121.657c0,0.448,0.224,1.12,1.199,1.12c0.512,0,1.127-0.184,1.127-1.063c0-0.76-0.527-1.096-1.167-1.096
			C305.274,120.617,304.907,121.137,304.907,121.657z M307.057,119.106c0-0.344-0.224-0.839-1.047-0.839
			c-0.752,0-0.936,0.52-0.936,0.879c0,0.536,0.472,0.864,0.983,0.864C306.666,120.01,307.057,119.618,307.057,119.106z"/>
		<path d="M308.635,119.562c0-1.023,0.624-1.927,1.807-1.927c1.791,0,1.967,1.695,1.967,2.607c0,0.6-0.104,3.166-2.038,3.166
			c-1.319,0-1.672-0.959-1.672-1.503h0.704c0.04,0.567,0.376,0.919,0.951,0.919c0.768,0,1.176-0.648,1.352-2.103l-0.017-0.016
			c-0.207,0.432-0.768,0.672-1.287,0.672C309.363,121.377,308.635,120.681,308.635,119.562z M311.585,119.466
			c0-0.64-0.328-1.199-1.136-1.199c-0.655,0-1.087,0.512-1.087,1.263c0,1.08,0.672,1.215,1.144,1.215
			C310.874,120.745,311.585,120.577,311.585,119.466z"/>
	</g>
	<g>
		<path d="M269.066,137.516h0.584v1.727h1.727v0.583h-1.727v1.727h-0.584v-1.727h-1.735v-0.583h1.735V137.516z"/>
		<path d="M274.561,141.553h-0.751v-3.99h-1.312v-0.56c0.911-0.064,1.287-0.152,1.511-1.072h0.552V141.553z"/>
		<path d="M276.466,141.553h-0.832v-0.848h0.832V141.553z"/>
		<path d="M277.515,137.947c0-1.831,1.336-2.015,1.943-2.015c0.976,0,1.759,0.632,1.759,1.679c0,1.007-0.663,1.431-1.503,1.879
			l-0.584,0.32c-0.768,0.424-0.936,0.864-0.968,1.08h3.055v0.664h-3.846c0.04-1.167,0.567-1.791,1.319-2.231l0.743-0.432
			c0.6-0.344,1.031-0.576,1.031-1.311c0-0.448-0.287-1.016-1.111-1.016c-1.063,0-1.111,0.992-1.135,1.383H277.515z"/>
		<path d="M283.402,138.355c0.12,0.008,0.248,0.016,0.368,0.016c0.543,0,1.071-0.216,1.071-0.919c0-0.336-0.2-0.888-1.04-0.888
			c-0.999,0-1.063,0.815-1.095,1.208h-0.688c0-0.824,0.335-1.839,1.814-1.839c1.088,0,1.735,0.624,1.735,1.479
			c0,0.719-0.416,1.063-0.72,1.159v0.016c0.544,0.176,0.936,0.56,0.936,1.311c0,0.919-0.592,1.807-2.023,1.807
			c-0.415,0-0.768-0.104-1.039-0.248c-0.624-0.328-0.791-0.975-0.84-1.623h0.728c0.024,0.528,0.152,1.239,1.2,1.239
			c0.719,0,1.223-0.439,1.223-1.087c0-0.944-0.831-1.032-1.311-1.032c-0.104,0-0.217,0.008-0.32,0.008V138.355z"/>
		<path d="M289.417,140.186v1.367h-0.704v-1.367h-2.454v-0.688l2.574-3.566h0.584v3.646h0.823v0.608H289.417z M286.907,139.578
			h1.807v-2.55h-0.016L286.907,139.578z"/>
		<path d="M291.683,138.283c0.239-0.184,0.583-0.352,1.087-0.352c0.911,0,1.847,0.64,1.847,1.799c0,0.624-0.279,1.975-2.038,1.975
			c-0.736,0-1.68-0.296-1.815-1.551h0.728c0.072,0.656,0.56,0.944,1.191,0.944c0.728,0,1.184-0.584,1.184-1.288
			c0-0.808-0.552-1.247-1.247-1.247c-0.408,0-0.776,0.192-1.04,0.536l-0.607-0.032l0.424-3.014h2.91v0.688h-2.383L291.683,138.283z"
			/>
		<path d="M298.289,137.428c-0.088-0.496-0.359-0.864-0.967-0.864c-1.104,0-1.336,1.487-1.336,2.079l0.017,0.016
			c0.176-0.304,0.567-0.688,1.335-0.688c0.688,0,1.759,0.44,1.759,1.783c0,0.576-0.151,0.991-0.535,1.407
			c-0.296,0.328-0.632,0.543-1.424,0.543c-0.432,0-1.047-0.192-1.447-0.815c-0.336-0.528-0.432-1.215-0.432-1.951
			c0-1.231,0.399-3.006,2.079-3.006c0.647,0,1.567,0.352,1.639,1.496H298.289z M297.265,141.073c0.672,0,1.104-0.527,1.104-1.287
			c0-0.496-0.264-1.183-1.136-1.183c-0.775,0-1.151,0.56-1.151,1.223C296.082,140.426,296.442,141.073,297.265,141.073z"/>
		<path d="M299.699,136.052h3.886v0.616c-0.56,0.583-1.903,2.375-2.311,4.885h-0.775c0.191-1.543,1.215-3.558,2.294-4.813h-3.094
			V136.052z"/>
		<path d="M307.065,138.563c0.76,0.32,0.92,0.943,0.92,1.367c0,0.903-0.576,1.775-1.903,1.775c-0.312,0-0.903-0.08-1.351-0.432
			c-0.576-0.456-0.576-1.063-0.576-1.335c0-0.688,0.36-1.127,0.951-1.367c-0.479-0.184-0.759-0.568-0.759-1.095
			c0-0.584,0.359-1.543,1.703-1.543c1.247,0,1.734,0.792,1.734,1.447C307.785,138.187,307.313,138.435,307.065,138.563z
			 M304.907,139.954c0,0.448,0.224,1.119,1.199,1.119c0.512,0,1.127-0.184,1.127-1.063c0-0.76-0.527-1.096-1.167-1.096
			C305.274,138.915,304.907,139.435,304.907,139.954z M307.057,137.404c0-0.344-0.224-0.839-1.047-0.839
			c-0.752,0-0.936,0.52-0.936,0.879c0,0.536,0.472,0.864,0.983,0.864C306.666,138.307,307.057,137.915,307.057,137.404z"/>
		<path d="M308.635,137.86c0-1.023,0.624-1.927,1.807-1.927c1.791,0,1.967,1.695,1.967,2.607c0,0.6-0.104,3.166-2.038,3.166
			c-1.319,0-1.672-0.959-1.672-1.503h0.704c0.04,0.567,0.376,0.919,0.951,0.919c0.768,0,1.176-0.648,1.352-2.103l-0.017-0.016
			c-0.207,0.432-0.768,0.672-1.287,0.672C309.363,139.674,308.635,138.979,308.635,137.86z M311.585,137.763
			c0-0.64-0.328-1.199-1.136-1.199c-0.655,0-1.087,0.512-1.087,1.263c0,1.08,0.672,1.215,1.144,1.215
			C310.874,139.043,311.585,138.875,311.585,137.763z"/>
	</g>
	<g>
		<path d="M269.066,65.547h0.584v1.727h1.727v0.583h-1.727v1.727h-0.584v-1.727h-1.735v-0.583h1.735V65.547z"/>
		<path d="M274.561,69.584h-0.751v-3.99h-1.312v-0.56c0.911-0.064,1.287-0.152,1.511-1.072h0.552V69.584z"/>
		<path d="M276.466,69.584h-0.832v-0.848h0.832V69.584z"/>
		<path d="M277.515,65.978c0-1.831,1.336-2.015,1.943-2.015c0.976,0,1.759,0.632,1.759,1.679c0,1.007-0.663,1.431-1.503,1.879
			l-0.584,0.32c-0.768,0.424-0.936,0.864-0.968,1.08h3.055v0.664h-3.846c0.04-1.167,0.567-1.791,1.319-2.231l0.743-0.432
			c0.6-0.344,1.031-0.576,1.031-1.311c0-0.448-0.287-1.016-1.111-1.016c-1.063,0-1.111,0.991-1.135,1.383H277.515z"/>
		<path d="M283.402,66.386c0.12,0.008,0.248,0.016,0.368,0.016c0.543,0,1.071-0.216,1.071-0.919c0-0.336-0.2-0.888-1.04-0.888
			c-0.999,0-1.063,0.815-1.095,1.208h-0.688c0-0.824,0.335-1.839,1.814-1.839c1.088,0,1.735,0.624,1.735,1.479
			c0,0.72-0.416,1.063-0.72,1.159v0.016c0.544,0.176,0.936,0.56,0.936,1.311c0,0.92-0.592,1.807-2.023,1.807
			c-0.415,0-0.768-0.104-1.039-0.248c-0.624-0.328-0.791-0.976-0.84-1.624h0.728c0.024,0.528,0.152,1.24,1.2,1.24
			c0.719,0,1.223-0.44,1.223-1.088c0-0.943-0.831-1.031-1.311-1.031c-0.104,0-0.217,0.008-0.32,0.008V66.386z"/>
		<path d="M289.417,68.217v1.367h-0.704v-1.367h-2.454v-0.688l2.574-3.566h0.584v3.646h0.823v0.608H289.417z M286.907,67.609h1.807
			v-2.55h-0.016L286.907,67.609z"/>
		<path d="M291.683,66.314c0.239-0.184,0.583-0.352,1.087-0.352c0.911,0,1.847,0.64,1.847,1.799c0,0.624-0.279,1.975-2.038,1.975
			c-0.736,0-1.68-0.296-1.815-1.551h0.728c0.072,0.656,0.56,0.944,1.191,0.944c0.728,0,1.184-0.584,1.184-1.288
			c0-0.808-0.552-1.247-1.247-1.247c-0.408,0-0.776,0.192-1.04,0.536l-0.607-0.032l0.424-3.014h2.91v0.688h-2.383L291.683,66.314z"
			/>
		<path d="M298.289,65.458c-0.088-0.496-0.359-0.863-0.967-0.863c-1.104,0-1.336,1.487-1.336,2.079l0.017,0.016
			c0.176-0.304,0.567-0.688,1.335-0.688c0.688,0,1.759,0.44,1.759,1.783c0,0.576-0.151,0.991-0.535,1.407
			c-0.296,0.328-0.632,0.543-1.424,0.543c-0.432,0-1.047-0.192-1.447-0.815c-0.336-0.528-0.432-1.215-0.432-1.951
			c0-1.231,0.399-3.006,2.079-3.006c0.647,0,1.567,0.352,1.639,1.495H298.289z M297.265,69.105c0.672,0,1.104-0.528,1.104-1.288
			c0-0.496-0.264-1.183-1.136-1.183c-0.775,0-1.151,0.56-1.151,1.223C296.082,68.457,296.442,69.105,297.265,69.105z"/>
		<path d="M299.699,64.083h3.886v0.616c-0.56,0.583-1.903,2.375-2.311,4.885h-0.775c0.191-1.543,1.215-3.558,2.294-4.813h-3.094
			V64.083z"/>
		<path d="M307.065,66.594c0.76,0.32,0.92,0.943,0.92,1.367c0,0.903-0.576,1.775-1.903,1.775c-0.312,0-0.903-0.08-1.351-0.432
			c-0.576-0.456-0.576-1.063-0.576-1.335c0-0.688,0.36-1.127,0.951-1.367c-0.479-0.184-0.759-0.567-0.759-1.095
			c0-0.584,0.359-1.543,1.703-1.543c1.247,0,1.734,0.792,1.734,1.447C307.785,66.218,307.313,66.466,307.065,66.594z
			 M304.907,67.985c0,0.448,0.224,1.12,1.199,1.12c0.512,0,1.127-0.184,1.127-1.063c0-0.76-0.527-1.096-1.167-1.096
			C305.274,66.946,304.907,67.466,304.907,67.985z M307.057,65.434c0-0.344-0.224-0.839-1.047-0.839
			c-0.752,0-0.936,0.52-0.936,0.879c0,0.536,0.472,0.864,0.983,0.864C306.666,66.338,307.057,65.946,307.057,65.434z"/>
		<path d="M308.635,65.89c0-1.023,0.624-1.927,1.807-1.927c1.791,0,1.967,1.695,1.967,2.607c0,0.6-0.104,3.166-2.038,3.166
			c-1.319,0-1.672-0.959-1.672-1.503h0.704c0.04,0.567,0.376,0.919,0.951,0.919c0.768,0,1.176-0.648,1.352-2.103l-0.017-0.016
			c-0.207,0.432-0.768,0.672-1.287,0.672C309.363,67.705,308.635,67.009,308.635,65.89z M311.585,65.794
			c0-0.64-0.328-1.199-1.136-1.199c-0.655,0-1.087,0.512-1.087,1.263c0,1.08,0.672,1.215,1.144,1.215
			C310.874,67.073,311.585,66.905,311.585,65.794z"/>
	</g>
	<line class="st2" x1="74.454" y1="93.799" x2="74.454" y2="98.591"/>
	<line class="st2" x1="74.454" y1="106.716" x2="74.454" y2="111.507"/>
	<g>
		<path d="M52.594,101.528h0.583v1.727h1.727v0.583h-1.727v1.727h-0.583v-1.727h-1.735v-0.583h1.735V101.528z"/>
		<path d="M58.09,105.566h-0.752v-3.99h-1.311v-0.56c0.912-0.064,1.287-0.152,1.511-1.072h0.552V105.566z"/>
		<path d="M59.995,105.566h-0.832v-0.848h0.832V105.566z"/>
		<path d="M61.043,101.96c0-1.831,1.335-2.015,1.943-2.015c0.975,0,1.759,0.632,1.759,1.679c0,1.007-0.664,1.431-1.503,1.879
			l-0.584,0.32c-0.768,0.424-0.936,0.864-0.967,1.08h3.054v0.664h-3.846c0.04-1.167,0.567-1.791,1.319-2.231l0.744-0.432
			c0.6-0.344,1.031-0.576,1.031-1.311c0-0.448-0.288-1.016-1.111-1.016c-1.063,0-1.111,0.991-1.136,1.383H61.043z"/>
		<path d="M66.93,102.367c0.12,0.008,0.248,0.016,0.368,0.016c0.544,0,1.072-0.216,1.072-0.919c0-0.336-0.2-0.888-1.04-0.888
			c-1,0-1.063,0.815-1.096,1.208h-0.688c0-0.824,0.336-1.839,1.815-1.839c1.087,0,1.735,0.624,1.735,1.479
			c0,0.72-0.416,1.063-0.72,1.159v0.016c0.543,0.176,0.936,0.56,0.936,1.311c0,0.92-0.592,1.807-2.023,1.807
			c-0.416,0-0.768-0.104-1.04-0.248c-0.624-0.328-0.792-0.976-0.839-1.624h0.728c0.024,0.528,0.152,1.24,1.199,1.24
			c0.72,0,1.223-0.44,1.223-1.088c0-0.943-0.831-1.031-1.311-1.031c-0.104,0-0.216,0.008-0.32,0.008V102.367z"/>
		<path d="M72.946,104.198v1.367h-0.704v-1.367h-2.455v-0.688l2.575-3.566h0.584v3.646h0.823v0.608H72.946z M70.435,103.591h1.807
			v-2.55h-0.016L70.435,103.591z"/>
		<path d="M75.211,102.296c0.24-0.184,0.583-0.352,1.087-0.352c0.912,0,1.847,0.64,1.847,1.799c0,0.624-0.28,1.975-2.039,1.975
			c-0.735,0-1.679-0.296-1.815-1.551h0.728c0.072,0.656,0.56,0.944,1.191,0.944c0.728,0,1.184-0.584,1.184-1.288
			c0-0.808-0.552-1.247-1.248-1.247c-0.408,0-0.775,0.192-1.04,0.536l-0.607-0.032l0.424-3.014h2.91v0.688h-2.383L75.211,102.296z"
			/>
		<path d="M81.817,101.44c-0.088-0.496-0.36-0.863-0.967-0.863c-1.104,0-1.335,1.487-1.335,2.079l0.016,0.016
			c0.176-0.304,0.568-0.688,1.335-0.688c0.688,0,1.759,0.44,1.759,1.783c0,0.576-0.152,0.991-0.536,1.407
			c-0.296,0.328-0.632,0.543-1.423,0.543c-0.432,0-1.047-0.192-1.447-0.815c-0.336-0.528-0.432-1.215-0.432-1.951
			c0-1.231,0.4-3.006,2.079-3.006c0.647,0,1.567,0.352,1.639,1.495H81.817z M80.794,105.086c0.672,0,1.104-0.528,1.104-1.288
			c0-0.496-0.264-1.183-1.135-1.183c-0.775,0-1.151,0.56-1.151,1.223C79.611,104.438,79.971,105.086,80.794,105.086z"/>
		<path d="M83.227,100.065h3.886v0.616c-0.56,0.583-1.903,2.375-2.311,4.885h-0.776c0.192-1.543,1.215-3.558,2.295-4.813h-3.094
			V100.065z"/>
		<path d="M90.594,102.575c0.759,0.32,0.919,0.943,0.919,1.367c0,0.903-0.576,1.775-1.903,1.775c-0.312,0-0.904-0.08-1.352-0.432
			c-0.576-0.456-0.576-1.063-0.576-1.335c0-0.688,0.36-1.127,0.952-1.367c-0.48-0.184-0.76-0.567-0.76-1.095
			c0-0.584,0.36-1.543,1.703-1.543c1.248,0,1.735,0.792,1.735,1.447C91.313,102.199,90.841,102.447,90.594,102.575z M88.435,103.966
			c0,0.448,0.224,1.12,1.199,1.12c0.512,0,1.127-0.184,1.127-1.063c0-0.76-0.528-1.096-1.167-1.096
			C88.803,102.927,88.435,103.447,88.435,103.966z M90.585,101.416c0-0.344-0.224-0.839-1.047-0.839
			c-0.751,0-0.936,0.52-0.936,0.879c0,0.536,0.472,0.864,0.984,0.864C90.194,102.32,90.585,101.927,90.585,101.416z"/>
		<path d="M92.164,101.872c0-1.023,0.624-1.927,1.807-1.927c1.791,0,1.967,1.695,1.967,2.607c0,0.6-0.104,3.166-2.039,3.166
			c-1.319,0-1.671-0.959-1.671-1.503h0.704c0.04,0.567,0.375,0.919,0.951,0.919c0.768,0,1.176-0.648,1.352-2.103l-0.016-0.016
			c-0.208,0.432-0.768,0.672-1.287,0.672C92.891,103.687,92.164,102.991,92.164,101.872z M95.114,101.776
			c0-0.64-0.328-1.199-1.135-1.199c-0.656,0-1.087,0.512-1.087,1.263c0,1.08,0.671,1.215,1.144,1.215
			C94.402,103.055,95.114,102.887,95.114,101.776z"/>
	</g>
	<line class="st3" x1="56.75" y1="121.757" x2="34.843" y2="121.757"/>
	<line class="st3" x1="115.138" y1="121.757" x2="91.777" y2="121.757"/>
	<polygon points="36.445,123.469 30.436,121.603 30.436,121.603 36.445,119.738 	"/>
	<polygon points="111.586,119.738 117.595,121.603 117.595,121.603 111.586,123.469 	"/>
	<g>
		<path d="M70.699,117.152c-0.077-0.435-0.315-0.757-0.847-0.757c-0.967,0-1.17,1.303-1.17,1.821l0.014,0.014
			c0.154-0.266,0.497-0.603,1.169-0.603c0.603,0,1.541,0.385,1.541,1.562c0,0.504-0.133,0.868-0.469,1.232
			c-0.259,0.287-0.553,0.477-1.247,0.477c-0.378,0-0.917-0.168-1.268-0.715c-0.294-0.462-0.378-1.064-0.378-1.708
			c0-1.079,0.35-2.634,1.821-2.634c0.567,0,1.373,0.308,1.436,1.31H70.699z M69.802,120.345c0.588,0,0.967-0.462,0.967-1.127
			c0-0.434-0.231-1.037-0.995-1.037c-0.679,0-1.009,0.49-1.009,1.072C68.766,119.778,69.081,120.345,69.802,120.345z"/>
		<path d="M74.612,119.568v1.198h-0.616v-1.198h-2.15v-0.602l2.255-3.124h0.511v3.194h0.722v0.532H74.612z M72.413,119.035h1.583
			v-2.234h-0.014L72.413,119.035z"/>
		<path d="M75.969,120.765v-5.029h0.616v1.828h0.014c0.266-0.385,0.63-0.561,1.058-0.567c0.974,0,1.527,0.798,1.527,1.828
			c0,0.875-0.364,2.045-1.611,2.045c-0.624,0-0.883-0.357-1.009-0.56H76.55v0.455H75.969z M77.544,117.55
			c-0.889,0-0.987,0.959-0.987,1.555c0,0.973,0.609,1.232,1.001,1.232c0.672,0,0.987-0.609,0.987-1.415
			C78.546,118.454,78.497,117.55,77.544,117.55z"/>
		<path d="M79.923,116.437v-0.701h0.616v0.701H79.923z M80.54,120.765h-0.616v-3.663h0.616V120.765z"/>
		<path d="M82.22,117.613v2.381c0,0.287,0.246,0.287,0.372,0.287h0.217v0.483c-0.224,0.021-0.399,0.049-0.462,0.049
			c-0.609,0-0.743-0.343-0.743-0.784v-2.417h-0.497v-0.511h0.497v-1.022h0.616v1.022h0.588v0.511H82.22z"/>
		<path d="M63.947,123.632c-0.595,1.121-0.952,1.793-0.952,3.474c0,1.155,0.399,2.01,0.959,3.109h-0.414
			c-0.728-1.092-1.205-1.968-1.205-3.278c0-1.232,0.427-2.227,1.184-3.306H63.947z"/>
		<path d="M67.132,127.568v1.198h-0.616v-1.198h-2.15v-0.602l2.255-3.124h0.511v3.194h0.722v0.532H67.132z M64.933,127.035h1.583
			v-2.234h-0.014L64.933,127.035z"/>
		<path d="M69.876,128.765h-0.637l-1.058-3.663h0.672l0.7,2.878h0.014l0.708-2.878h0.686l0.714,2.878h0.014l0.742-2.878h0.617
			l-1.065,3.663h-0.637l-0.742-2.836H70.59L69.876,128.765z"/>
		<path d="M75.014,124.997c1.169,0,1.702,0.988,1.702,1.933s-0.532,1.933-1.702,1.933c-1.17,0-1.702-0.988-1.702-1.933
			S73.844,124.997,75.014,124.997z M75.014,128.331c0.882,0,1.064-0.911,1.064-1.401s-0.182-1.401-1.064-1.401
			c-0.883,0-1.065,0.911-1.065,1.401S74.131,128.331,75.014,128.331z"/>
		<path d="M78.114,128.765h-0.617v-3.663h0.582v0.609h0.014c0.245-0.427,0.567-0.714,1.029-0.714c0.077,0,0.112,0.007,0.161,0.021
			v0.637h-0.231c-0.574,0-0.938,0.448-0.938,0.98V128.765z"/>
		<path d="M82.645,128.765h-0.582v-0.504h-0.014c-0.266,0.498-0.686,0.609-1.043,0.609c-1.247,0-1.611-1.169-1.611-2.045
			c0-1.03,0.553-1.828,1.527-1.828c0.666,0,0.945,0.413,1.093,0.624l0.014-0.049v-1.835h0.617V128.765z M81.02,128.338
			c0.392,0,1.001-0.259,1.001-1.232c0-0.596-0.098-1.555-0.988-1.555c-0.952,0-1.001,0.904-1.001,1.373
			C80.032,127.729,80.348,128.338,81.02,128.338z"/>
		<path d="M85.577,126.146c-0.007-0.231-0.091-0.616-0.868-0.616c-0.189,0-0.729,0.063-0.729,0.519c0,0.301,0.189,0.371,0.666,0.49
			l0.616,0.154c0.763,0.189,1.029,0.469,1.029,0.967c0,0.756-0.623,1.211-1.45,1.211c-1.45,0-1.555-0.84-1.576-1.282h0.595
			c0.021,0.287,0.105,0.75,0.974,0.75c0.441,0,0.84-0.175,0.84-0.581c0-0.294-0.203-0.393-0.729-0.525l-0.714-0.175
			c-0.511-0.126-0.847-0.385-0.847-0.89c0-0.805,0.665-1.169,1.387-1.169c1.31,0,1.401,0.967,1.401,1.148H85.577z"/>
		<path d="M86.787,130.215c0.595-1.121,0.953-1.793,0.953-3.474c0-1.156-0.399-2.01-0.959-3.11h0.413
			c0.729,1.093,1.205,1.968,1.205,3.278c0,1.232-0.427,2.227-1.184,3.306H86.787z"/>
	</g>
	<line class="st3" x1="30.436" y1="111.199" x2="30.436" y2="124.365"/>
	<line class="st3" x1="119.018" y1="111.199" x2="119.018" y2="124.365"/>
	<line class="st3" x1="271.583" y1="156.426" x2="250.201" y2="156.426"/>
	<line class="st3" x1="330.496" y1="156.426" x2="307.618" y2="156.426"/>
	<polygon points="251.803,158.137 245.794,156.272 245.794,156.272 251.803,154.407 	"/>
	<polygon points="326.944,154.407 332.953,156.272 332.953,156.272 326.944,158.137 	"/>
	<g>
		<path d="M285.418,151.79c-0.077-0.435-0.315-0.757-0.848-0.757c-0.967,0-1.17,1.303-1.17,1.821l0.015,0.014
			c0.153-0.266,0.497-0.603,1.169-0.603c0.603,0,1.541,0.385,1.541,1.562c0,0.504-0.133,0.868-0.469,1.232
			c-0.26,0.287-0.554,0.477-1.247,0.477c-0.378,0-0.918-0.168-1.268-0.715c-0.294-0.462-0.378-1.064-0.378-1.708
			c0-1.079,0.35-2.634,1.82-2.634c0.567,0,1.373,0.308,1.436,1.31H285.418z M284.522,154.984c0.588,0,0.966-0.462,0.966-1.127
			c0-0.434-0.23-1.037-0.994-1.037c-0.68,0-1.009,0.49-1.009,1.072C283.485,154.417,283.8,154.984,284.522,154.984z"/>
		<path d="M289.331,154.206v1.198h-0.616v-1.198h-2.15v-0.602l2.256-3.124h0.511v3.194h0.722v0.532H289.331z M287.131,153.674h1.583
			v-2.234h-0.014L287.131,153.674z"/>
		<path d="M290.688,155.404v-5.029h0.616v1.828h0.014c0.267-0.385,0.631-0.561,1.058-0.567c0.974,0,1.527,0.798,1.527,1.828
			c0,0.875-0.364,2.045-1.611,2.045c-0.623,0-0.882-0.357-1.008-0.56h-0.015v0.455H290.688z M292.264,152.189
			c-0.89,0-0.988,0.959-0.988,1.555c0,0.973,0.609,1.232,1.002,1.232c0.672,0,0.987-0.609,0.987-1.415
			C293.265,153.093,293.216,152.189,292.264,152.189z"/>
		<path d="M294.643,151.076v-0.701h0.616v0.701H294.643z M295.259,155.404h-0.616v-3.663h0.616V155.404z"/>
		<path d="M296.939,152.252v2.381c0,0.287,0.245,0.287,0.371,0.287h0.217v0.483c-0.224,0.021-0.399,0.049-0.462,0.049
			c-0.609,0-0.742-0.343-0.742-0.784v-2.417h-0.498v-0.511h0.498v-1.022h0.616v1.022h0.588v0.511H296.939z"/>
		<path d="M278.666,158.27c-0.595,1.121-0.952,1.793-0.952,3.474c0,1.155,0.399,2.01,0.959,3.109h-0.413
			c-0.729-1.092-1.204-1.968-1.204-3.278c0-1.232,0.427-2.227,1.184-3.306H278.666z"/>
		<path d="M281.851,162.206v1.198h-0.616v-1.198h-2.15v-0.602l2.256-3.124h0.511v3.194h0.722v0.532H281.851z M279.652,161.674h1.583
			v-2.234h-0.014L279.652,161.674z"/>
		<path d="M284.594,163.404h-0.638l-1.058-3.663h0.673l0.7,2.878h0.014l0.708-2.878h0.687l0.714,2.878h0.015l0.742-2.878h0.616
			l-1.064,3.663h-0.638l-0.742-2.836h-0.014L284.594,163.404z"/>
		<path d="M289.733,159.636c1.169,0,1.702,0.988,1.702,1.933s-0.533,1.933-1.702,1.933c-1.17,0-1.702-0.988-1.702-1.933
			S288.563,159.636,289.733,159.636z M289.733,162.97c0.882,0,1.064-0.911,1.064-1.401s-0.183-1.401-1.064-1.401
			c-0.883,0-1.064,0.911-1.064,1.401S288.85,162.97,289.733,162.97z"/>
		<path d="M292.833,163.404h-0.616v-3.663h0.582v0.609h0.014c0.245-0.427,0.567-0.714,1.029-0.714c0.077,0,0.112,0.007,0.161,0.021
			v0.637h-0.231c-0.574,0-0.938,0.448-0.938,0.98V163.404z"/>
		<path d="M297.364,163.404h-0.581V162.9h-0.015c-0.266,0.498-0.687,0.609-1.043,0.609c-1.247,0-1.611-1.169-1.611-2.045
			c0-1.03,0.554-1.828,1.526-1.828c0.666,0,0.946,0.413,1.093,0.624l0.015-0.049v-1.835h0.616V163.404z M295.739,162.977
			c0.393,0,1.001-0.259,1.001-1.232c0-0.596-0.098-1.555-0.987-1.555c-0.952,0-1.001,0.904-1.001,1.373
			C294.751,162.367,295.066,162.977,295.739,162.977z"/>
		<path d="M300.295,160.784c-0.007-0.231-0.091-0.616-0.868-0.616c-0.189,0-0.729,0.063-0.729,0.519c0,0.301,0.189,0.371,0.665,0.49
			l0.616,0.154c0.764,0.189,1.03,0.469,1.03,0.967c0,0.756-0.624,1.211-1.45,1.211c-1.449,0-1.555-0.84-1.576-1.282h0.596
			c0.021,0.287,0.105,0.75,0.974,0.75c0.441,0,0.841-0.175,0.841-0.581c0-0.294-0.203-0.393-0.729-0.525l-0.715-0.175
			c-0.511-0.126-0.848-0.385-0.848-0.89c0-0.805,0.666-1.169,1.387-1.169c1.311,0,1.401,0.967,1.401,1.148H300.295z"/>
		<path d="M301.505,164.854c0.596-1.121,0.952-1.793,0.952-3.474c0-1.156-0.398-2.01-0.959-3.11h0.413
			c0.729,1.093,1.205,1.968,1.205,3.278c0,1.232-0.428,2.227-1.184,3.306H301.505z"/>
	</g>
	<line class="st3" x1="245.794" y1="146.331" x2="245.794" y2="159.497"/>
	<line class="st3" x1="334.377" y1="146.331" x2="334.377" y2="159.497"/>
	<g>
		<line class="st0" x1="2.429" y1="0" x2="2.429" y2="32.513"/>
		<line class="st0" x1="182.259" y1="0" x2="182.259" y2="32.513"/>
		<line class="st0" x1="43.143" y1="17.717" x2="182.259" y2="17.717"/>
		<line class="st0" x1="2.429" y1="17.717" x2="43.143" y2="17.717"/>
		<g>
			<rect x="20.146" y="14.202" class="st4" width="7.086" height="7.087"/>
			<line class="st0" x1="27.232" y1="14.202" x2="27.232" y2="21.289"/>
			<line class="st0" x1="20.146" y1="21.289" x2="20.146" y2="14.202"/>
		</g>
		<g>
			<rect x="51.886" y="7.327" class="st4" width="126.022" height="17.716"/>
			<rect x="51.886" y="7.327" class="st0" width="126.022" height="17.716"/>
			<line class="st0" x1="93.952" y1="25.043" x2="93.952" y2="7.327"/>
		</g>
		<rect x="54.214" y="3.616" class="st4" width="37.178" height="5.194"/>
		<g>
			<path d="M56.967,9.647h-0.776V3.906h3.974v0.688h-3.198v1.759h2.814v0.688h-2.814V9.647z"/>
			<path d="M65.724,9.647v-3.39c0-0.168,0.016-0.896,0.016-1.431h-0.016l-1.615,4.821h-0.768l-1.615-4.813H61.71
				c0,0.528,0.016,1.255,0.016,1.423v3.39h-0.752V3.906h1.112l1.639,4.853h0.016l1.631-4.853h1.103v5.741H65.724z"/>
			<path d="M70.166,9.799c-2.143,0-2.798-1.783-2.798-3.022s0.655-3.022,2.798-3.022c2.143,0,2.798,1.783,2.798,3.022
				S72.308,9.799,70.166,9.799z M70.166,4.442c-1.248,0-1.999,0.983-1.999,2.334c0,1.352,0.751,2.335,1.999,2.335
				c1.247,0,1.999-0.983,1.999-2.335C72.165,5.425,71.413,4.442,70.166,4.442z"/>
			<path d="M77.181,3.906h0.871l-2.095,5.741h-0.823L73.04,3.906h0.863L75.542,8.8h0.017L77.181,3.906z"/>
			<path d="M78.743,9.647h-0.832V8.8h0.832V9.647z"/>
			<path d="M80.086,3.906h2.327c1.495,0,2.414,1.135,2.414,2.791c0,1.287-0.56,2.95-2.446,2.95h-2.295V3.906z M80.862,8.984h1.504
				c1.007,0,1.663-0.792,1.663-2.239s-0.664-2.175-1.72-2.175h-1.447V8.984z"/>
			<path d="M86.678,9.647h-0.775V3.906h3.974v0.688h-3.198v1.759h2.814v0.688h-2.814V9.647z"/>
		</g>
		<g>
			<path d="M58.899,14.825h2.327c1.496,0,2.415,1.135,2.415,2.791c0,1.287-0.56,2.95-2.447,2.95h-2.295V14.825z M59.675,19.903
				h1.503c1.008,0,1.663-0.792,1.663-2.239s-0.664-2.175-1.719-2.175h-1.447V19.903z"/>
			<path d="M69.361,20.566v-3.39c0-0.168,0.016-0.896,0.016-1.431h-0.016l-1.615,4.821h-0.768l-1.615-4.813h-0.016
				c0,0.528,0.016,1.255,0.016,1.423v3.39h-0.752v-5.741h1.112l1.639,4.853h0.016l1.631-4.853h1.103v5.741H69.361z"/>
			<path d="M73.562,20.566h-0.752v-3.99H71.5v-0.56c0.912-0.064,1.287-0.152,1.511-1.072h0.552V20.566z"/>
			<path d="M76.922,20.718c-1.615,0-1.927-1.719-1.927-2.886s0.312-2.887,1.927-2.887s1.927,1.719,1.927,2.887
				S78.538,20.718,76.922,20.718z M76.922,15.577c-0.808,0-1.175,0.848-1.175,2.255s0.368,2.254,1.175,2.254
				s1.176-0.847,1.176-2.254S77.73,15.577,76.922,15.577z"/>
			<path d="M81.371,20.718c-1.615,0-1.927-1.719-1.927-2.886s0.312-2.887,1.927-2.887s1.927,1.719,1.927,2.887
				S82.986,20.718,81.371,20.718z M81.371,15.577c-0.808,0-1.175,0.848-1.175,2.255s0.367,2.254,1.175,2.254
				s1.176-0.847,1.176-2.254S82.178,15.577,81.371,15.577z"/>
		</g>
		<g>
			<path d="M101.27,14.825h2.327c1.495,0,2.414,1.135,2.414,2.791c0,1.287-0.56,2.95-2.446,2.95h-2.295V14.825z M102.045,19.903
				h1.504c1.007,0,1.663-0.792,1.663-2.239s-0.664-2.175-1.72-2.175h-1.447V19.903z"/>
			<path d="M111.732,20.566v-3.39c0-0.168,0.016-0.896,0.016-1.431h-0.016l-1.615,4.821h-0.768l-1.615-4.813h-0.016
				c0,0.528,0.016,1.255,0.016,1.423v3.39h-0.751v-5.741h1.111l1.639,4.853h0.017l1.631-4.853h1.104v5.741H111.732z"/>
			<path d="M113.414,16.96c0-1.831,1.336-2.015,1.943-2.015c0.976,0,1.759,0.632,1.759,1.679c0,1.007-0.664,1.431-1.503,1.879
				l-0.584,0.32c-0.768,0.424-0.936,0.864-0.968,1.08h3.055v0.664h-3.846c0.04-1.167,0.567-1.791,1.319-2.231l0.743-0.432
				c0.6-0.344,1.031-0.576,1.031-1.311c0-0.448-0.287-1.016-1.111-1.016c-1.063,0-1.111,0.992-1.135,1.383H113.414z"/>
			<path d="M119.733,20.718c-1.615,0-1.927-1.719-1.927-2.886s0.312-2.887,1.927-2.887s1.927,1.719,1.927,2.887
				S121.348,20.718,119.733,20.718z M119.733,15.577c-0.808,0-1.175,0.848-1.175,2.255s0.367,2.254,1.175,2.254
				s1.176-0.847,1.176-2.254S120.541,15.577,119.733,15.577z"/>
			<path d="M124.181,20.718c-1.615,0-1.927-1.719-1.927-2.886s0.312-2.887,1.927-2.887s1.927,1.719,1.927,2.887
				S125.796,20.718,124.181,20.718z M124.181,15.577c-0.808,0-1.175,0.848-1.175,2.255s0.367,2.254,1.175,2.254
				s1.176-0.847,1.176-2.254S124.989,15.577,124.181,15.577z"/>
		</g>
		<line class="st0" x1="177.907" y1="7.327" x2="177.907" y2="25.043"/>
		<line class="st0" x1="177.907" y1="25.043" x2="177.907" y2="7.327"/>
		<line class="st0" x1="136.019" y1="25.043" x2="136.019" y2="7.327"/>
		<g>
			<path d="M153.708,20.566h-0.527l0.231-1.679h-0.999l-0.232,1.679h-0.527l0.232-1.679h-0.824l0.072-0.503h0.823l0.152-1.136
				h-0.823l0.071-0.503h0.823l0.232-1.679h0.535l-0.231,1.679h0.991l0.232-1.679h0.535l-0.231,1.679h0.823l-0.072,0.503h-0.823
				l-0.16,1.136h0.824l-0.072,0.503h-0.823L153.708,20.566z M152.644,17.248l-0.159,1.136h0.999l0.152-1.136H152.644z"/>
			<path d="M156.461,17.296c0.239-0.184,0.583-0.352,1.087-0.352c0.911,0,1.847,0.64,1.847,1.799c0,0.624-0.279,1.975-2.038,1.975
				c-0.736,0-1.68-0.296-1.815-1.551h0.728c0.072,0.656,0.56,0.944,1.191,0.944c0.728,0,1.184-0.584,1.184-1.288
				c0-0.808-0.552-1.247-1.247-1.247c-0.408,0-0.776,0.192-1.04,0.536l-0.607-0.032l0.424-3.014h2.91v0.688h-2.383L156.461,17.296z"
				/>
		</g>
	</g>
	<g>
		<g>
			<line class="st2" x1="52.583" y1="93.799" x2="52.583" y2="98.591"/>
			<line class="st2" x1="52.583" y1="106.716" x2="52.583" y2="111.507"/>
		</g>
		<g>
			<line class="st2" x1="96.598" y1="93.799" x2="96.598" y2="98.591"/>
			<line class="st2" x1="96.598" y1="106.716" x2="96.598" y2="111.507"/>
		</g>
	</g>
	<g>
		<g>
			<line class="st2" x1="268.294" y1="57.747" x2="268.294" y2="62.538"/>
			<line class="st2" x1="268.294" y1="70.663" x2="268.294" y2="75.455"/>
		</g>
		<g>
			<line class="st2" x1="312.308" y1="57.747" x2="312.308" y2="62.538"/>
			<line class="st2" x1="312.308" y1="70.663" x2="312.308" y2="75.455"/>
		</g>
	</g>
	<g>
		<g>
			<line class="st2" x1="268.294" y1="75.464" x2="268.294" y2="80.255"/>
			<line class="st2" x1="268.294" y1="88.38" x2="268.294" y2="93.171"/>
		</g>
		<g>
			<line class="st2" x1="312.308" y1="75.464" x2="312.308" y2="80.255"/>
			<line class="st2" x1="312.308" y1="88.38" x2="312.308" y2="93.171"/>
		</g>
	</g>
	<g>
		<g>
			<line class="st2" x1="268.294" y1="93.181" x2="268.294" y2="97.972"/>
			<line class="st2" x1="268.294" y1="106.097" x2="268.294" y2="110.888"/>
		</g>
		<g>
			<line class="st2" x1="312.308" y1="93.181" x2="312.308" y2="97.972"/>
			<line class="st2" x1="312.308" y1="106.097" x2="312.308" y2="110.888"/>
		</g>
	</g>
	<g>
		<g>
			<line class="st2" x1="268.294" y1="110.906" x2="268.294" y2="115.698"/>
			<line class="st2" x1="268.294" y1="123.823" x2="268.294" y2="128.614"/>
		</g>
		<g>
			<line class="st2" x1="312.308" y1="110.906" x2="312.308" y2="115.698"/>
			<line class="st2" x1="312.308" y1="123.823" x2="312.308" y2="128.614"/>
		</g>
	</g>
	<g>
		<g>
			<line class="st2" x1="268.294" y1="128.623" x2="268.294" y2="133.414"/>
			<line class="st2" x1="268.294" y1="141.539" x2="268.294" y2="146.331"/>
		</g>
		<g>
			<line class="st2" x1="312.308" y1="128.623" x2="312.308" y2="133.414"/>
			<line class="st2" x1="312.308" y1="141.539" x2="312.308" y2="146.331"/>
		</g>
	</g>
	<g>
		<g>
			<path d="M34.945,84.9c-0.04-0.887-0.776-1.167-1.423-1.167c-0.488,0-1.311,0.136-1.311,1.007c0,0.488,0.344,0.647,0.679,0.728
				l1.639,0.376c0.744,0.176,1.303,0.624,1.303,1.535c0,1.359-1.263,1.735-2.247,1.735c-1.063,0-1.479-0.32-1.735-0.552
				c-0.488-0.439-0.584-0.919-0.584-1.455h0.728c0,1.04,0.848,1.343,1.583,1.343c0.56,0,1.503-0.144,1.503-0.967
				c0-0.6-0.28-0.792-1.223-1.016l-1.175-0.272c-0.376-0.088-1.224-0.352-1.224-1.351c0-0.896,0.584-1.775,1.975-1.775
				c2.007,0,2.207,1.199,2.239,1.831H34.945z"/>
			<path d="M37.531,88.962h-0.704V84.78h0.664v0.696h0.016c0.28-0.488,0.647-0.816,1.175-0.816c0.088,0,0.128,0.008,0.184,0.024
				v0.728h-0.264c-0.656,0-1.071,0.512-1.071,1.12V88.962z"/>
			<path d="M41.85,86.187c-0.088-0.56-0.4-0.896-0.992-0.896c-0.871,0-1.151,0.832-1.151,1.575c0,0.719,0.176,1.607,1.144,1.607
				c0.472,0,0.879-0.352,1-0.991h0.68c-0.072,0.664-0.48,1.599-1.703,1.599c-1.175,0-1.871-0.888-1.871-2.095
				c0-1.295,0.624-2.327,2.007-2.327c1.096,0,1.511,0.8,1.567,1.527H41.85z"/>
		</g>
		<g>
			<path d="M44.495,84.924h0.583v1.727h1.727v0.583h-1.727v1.727h-0.583v-1.727H42.76v-0.583h1.735V84.924z"/>
			<path d="M48.911,85.763c0.12,0.008,0.248,0.016,0.368,0.016c0.544,0,1.071-0.216,1.071-0.919c0-0.336-0.2-0.888-1.039-0.888
				c-1,0-1.063,0.815-1.096,1.208h-0.688c0-0.824,0.336-1.839,1.815-1.839c1.087,0,1.735,0.624,1.735,1.479
				c0,0.719-0.416,1.063-0.72,1.159v0.016c0.543,0.176,0.936,0.56,0.936,1.311c0,0.919-0.592,1.807-2.023,1.807
				c-0.416,0-0.768-0.104-1.04-0.248c-0.624-0.328-0.792-0.975-0.839-1.623h0.728c0.024,0.528,0.152,1.239,1.199,1.239
				c0.72,0,1.224-0.439,1.224-1.087c0-0.944-0.832-1.032-1.312-1.032c-0.104,0-0.216,0.008-0.32,0.008V85.763z"/>
		</g>
	</g>
	<g>
		<g>
			<path d="M58.759,84.9c-0.04-0.888-0.776-1.167-1.423-1.167c-0.488,0-1.311,0.136-1.311,1.007c0,0.488,0.344,0.647,0.679,0.728
				l1.639,0.376c0.744,0.176,1.303,0.624,1.303,1.535c0,1.359-1.263,1.735-2.247,1.735c-1.063,0-1.479-0.32-1.735-0.552
				c-0.488-0.439-0.584-0.919-0.584-1.455h0.728c0,1.04,0.848,1.343,1.583,1.343c0.56,0,1.503-0.144,1.503-0.967
				c0-0.6-0.28-0.792-1.223-1.016l-1.175-0.272c-0.376-0.088-1.224-0.352-1.224-1.351c0-0.896,0.584-1.775,1.975-1.775
				c2.007,0,2.207,1.199,2.239,1.831H58.759z"/>
			<path d="M61.345,88.961h-0.704v-4.182h0.664v0.695h0.016c0.28-0.487,0.647-0.815,1.175-0.815c0.088,0,0.128,0.008,0.184,0.024
				v0.728h-0.264c-0.656,0-1.071,0.512-1.071,1.119V88.961z"/>
			<path d="M65.664,86.187c-0.088-0.56-0.4-0.896-0.992-0.896c-0.871,0-1.151,0.832-1.151,1.575c0,0.72,0.176,1.607,1.144,1.607
				c0.472,0,0.879-0.352,1-0.991h0.68c-0.072,0.664-0.48,1.599-1.703,1.599c-1.175,0-1.871-0.888-1.871-2.095
				c0-1.295,0.624-2.327,2.007-2.327c1.096,0,1.511,0.8,1.567,1.527H65.664z"/>
		</g>
		<g>
			<path d="M68.592,84.924h0.583v1.727h1.727v0.583h-1.727v1.727h-0.583v-1.727h-1.735v-0.583h1.735V84.924z"/>
			<path d="M71.569,85.355c0-1.831,1.335-2.015,1.943-2.015c0.975,0,1.759,0.632,1.759,1.679c0,1.007-0.664,1.431-1.503,1.879
				l-0.584,0.32c-0.768,0.424-0.936,0.864-0.967,1.08h3.054v0.664h-3.846c0.04-1.167,0.567-1.791,1.319-2.231l0.743-0.432
				c0.6-0.344,1.032-0.576,1.032-1.311c0-0.448-0.288-1.016-1.111-1.016c-1.063,0-1.111,0.991-1.135,1.383H71.569z"/>
		</g>
	</g>
	<g>
		<g>
			<path d="M82.497,84.9c-0.04-0.887-0.776-1.167-1.423-1.167c-0.488,0-1.311,0.136-1.311,1.007c0,0.488,0.344,0.647,0.679,0.728
				l1.639,0.376c0.744,0.176,1.303,0.624,1.303,1.535c0,1.359-1.263,1.735-2.247,1.735c-1.063,0-1.479-0.32-1.735-0.552
				c-0.488-0.439-0.584-0.919-0.584-1.455h0.728c0,1.04,0.848,1.343,1.583,1.343c0.56,0,1.503-0.144,1.503-0.967
				c0-0.6-0.28-0.792-1.223-1.016l-1.175-0.272c-0.376-0.088-1.224-0.352-1.224-1.351c0-0.896,0.584-1.775,1.975-1.775
				c2.007,0,2.207,1.199,2.239,1.831H82.497z"/>
			<path d="M85.082,88.962h-0.704V84.78h0.664v0.696h0.016c0.28-0.488,0.647-0.816,1.175-0.816c0.088,0,0.128,0.008,0.184,0.024
				v0.728h-0.264c-0.656,0-1.071,0.512-1.071,1.12V88.962z"/>
			<path d="M89.401,86.187c-0.088-0.56-0.4-0.896-0.992-0.896c-0.871,0-1.151,0.832-1.151,1.575c0,0.719,0.176,1.607,1.144,1.607
				c0.472,0,0.879-0.352,1-0.991h0.68c-0.072,0.664-0.48,1.599-1.703,1.599c-1.175,0-1.871-0.888-1.871-2.095
				c0-1.295,0.624-2.327,2.007-2.327c1.096,0,1.511,0.8,1.567,1.527H89.401z"/>
		</g>
		<g>
			<path d="M92.33,84.924h0.583v1.727h1.727v0.583h-1.727v1.727H92.33v-1.727h-1.735v-0.583h1.735V84.924z"/>
			<path d="M97.826,88.962h-0.752v-3.99h-1.311v-0.56c0.912-0.064,1.287-0.152,1.511-1.072h0.552V88.962z"/>
		</g>
	</g>
	<g>
		<g>
			<path d="M106.092,84.9c-0.04-0.888-0.776-1.167-1.423-1.167c-0.488,0-1.311,0.136-1.311,1.007c0,0.488,0.344,0.647,0.679,0.728
				l1.639,0.376c0.744,0.176,1.303,0.624,1.303,1.535c0,1.359-1.263,1.735-2.247,1.735c-1.063,0-1.479-0.32-1.735-0.552
				c-0.488-0.439-0.584-0.919-0.584-1.455h0.728c0,1.04,0.848,1.343,1.583,1.343c0.56,0,1.503-0.144,1.503-0.967
				c0-0.6-0.28-0.792-1.223-1.016l-1.175-0.272c-0.376-0.088-1.224-0.352-1.224-1.351c0-0.896,0.584-1.775,1.975-1.775
				c2.007,0,2.207,1.199,2.239,1.831H106.092z"/>
			<path d="M108.677,88.961h-0.704v-4.182h0.664v0.695h0.016c0.28-0.487,0.647-0.815,1.175-0.815c0.088,0,0.128,0.008,0.184,0.024
				v0.728h-0.264c-0.656,0-1.071,0.512-1.071,1.119V88.961z"/>
			<path d="M112.996,86.187c-0.088-0.56-0.4-0.896-0.992-0.896c-0.871,0-1.151,0.832-1.151,1.575c0,0.72,0.176,1.607,1.144,1.607
				c0.472,0,0.879-0.352,1-0.991h0.68c-0.072,0.664-0.48,1.599-1.703,1.599c-1.175,0-1.871-0.888-1.871-2.095
				c0-1.295,0.624-2.327,2.007-2.327c1.096,0,1.511,0.8,1.567,1.527H112.996z"/>
		</g>
	</g>
	<g>
		<g>
			<path d="M246.599,47.596h2.327c1.495,0,2.415,1.135,2.415,2.791c0,1.287-0.56,2.95-2.447,2.95h-2.295V47.596z M247.375,52.673
				h1.503c1.007,0,1.663-0.792,1.663-2.239s-0.664-2.175-1.719-2.175h-1.447V52.673z"/>
			<path d="M254.622,50.346c-0.008-0.264-0.104-0.704-0.992-0.704c-0.216,0-0.832,0.072-0.832,0.592c0,0.344,0.216,0.423,0.76,0.56
				l0.704,0.176c0.872,0.216,1.175,0.536,1.175,1.104c0,0.863-0.711,1.383-1.655,1.383c-1.655,0-1.775-0.959-1.799-1.463h0.68
				c0.024,0.328,0.12,0.855,1.111,0.855c0.504,0,0.959-0.2,0.959-0.664c0-0.336-0.232-0.448-0.832-0.6l-0.815-0.2
				c-0.584-0.144-0.968-0.44-0.968-1.016c0-0.919,0.76-1.335,1.583-1.335c1.495,0,1.599,1.104,1.599,1.312H254.622z"/>
			<path d="M257.111,49.738v2.719c0,0.328,0.28,0.328,0.424,0.328h0.248v0.552c-0.256,0.024-0.456,0.056-0.527,0.056
				c-0.696,0-0.848-0.392-0.848-0.896v-2.759h-0.568v-0.583h0.568v-1.167h0.704v1.167h0.671v0.583H257.111z"/>
		</g>
		<g>
			<path d="M259.651,49.299h0.583v1.727h1.727v0.583h-1.727v1.727h-0.583V51.61h-1.735v-0.583h1.735V49.299z"/>
			<path d="M264.067,50.138c0.12,0.008,0.248,0.016,0.368,0.016c0.544,0,1.071-0.216,1.071-0.919c0-0.336-0.2-0.888-1.039-0.888
				c-1,0-1.063,0.815-1.096,1.208h-0.688c0-0.824,0.336-1.839,1.815-1.839c1.087,0,1.735,0.624,1.735,1.479
				c0,0.719-0.416,1.063-0.72,1.159v0.016c0.543,0.176,0.936,0.56,0.936,1.311c0,0.919-0.592,1.807-2.023,1.807
				c-0.416,0-0.768-0.104-1.04-0.248c-0.624-0.328-0.792-0.975-0.839-1.623h0.728c0.024,0.528,0.152,1.239,1.199,1.239
				c0.72,0,1.224-0.439,1.224-1.087c0-0.944-0.832-1.032-1.312-1.032c-0.104,0-0.216,0.008-0.32,0.008V50.138z"/>
		</g>
	</g>
	<g>
		<g>
			<path d="M270.413,47.595h2.327c1.495,0,2.414,1.135,2.414,2.791c0,1.287-0.56,2.95-2.446,2.95h-2.295V47.595z M271.188,52.673
				h1.504c1.007,0,1.663-0.792,1.663-2.239s-0.664-2.175-1.72-2.175h-1.447V52.673z"/>
			<path d="M278.436,50.346c-0.008-0.264-0.104-0.704-0.991-0.704c-0.216,0-0.832,0.072-0.832,0.591c0,0.344,0.216,0.424,0.76,0.56
				l0.703,0.176c0.872,0.216,1.176,0.536,1.176,1.104c0,0.863-0.712,1.383-1.655,1.383c-1.655,0-1.774-0.959-1.799-1.463h0.68
				c0.023,0.328,0.12,0.855,1.111,0.855c0.504,0,0.959-0.2,0.959-0.664c0-0.336-0.231-0.448-0.831-0.6l-0.815-0.2
				c-0.584-0.144-0.968-0.439-0.968-1.015c0-0.919,0.76-1.335,1.583-1.335c1.495,0,1.6,1.104,1.6,1.312H278.436z"/>
			<path d="M280.924,49.738v2.719c0,0.328,0.28,0.328,0.424,0.328h0.248v0.552c-0.256,0.024-0.455,0.056-0.527,0.056
				c-0.695,0-0.848-0.392-0.848-0.896v-2.759h-0.567v-0.583h0.567v-1.167h0.703v1.167h0.672v0.583H280.924z"/>
		</g>
		<g>
			<path d="M283.75,49.299h0.584v1.727h1.727v0.583h-1.727v1.727h-0.584v-1.727h-1.735v-0.583h1.735V49.299z"/>
			<path d="M286.726,49.73c0-1.831,1.336-2.015,1.943-2.015c0.976,0,1.759,0.632,1.759,1.679c0,1.007-0.664,1.431-1.503,1.879
				l-0.584,0.32c-0.768,0.424-0.936,0.864-0.968,1.08h3.055v0.664h-3.846c0.04-1.167,0.567-1.791,1.319-2.231l0.743-0.432
				c0.6-0.344,1.031-0.576,1.031-1.311c0-0.448-0.287-1.016-1.111-1.016c-1.063,0-1.111,0.991-1.135,1.383H286.726z"/>
		</g>
	</g>
	<g>
		<g>
			<path d="M294.149,47.596h2.327c1.495,0,2.414,1.135,2.414,2.791c0,1.287-0.56,2.95-2.446,2.95h-2.295V47.596z M294.924,52.673
				h1.504c1.007,0,1.663-0.792,1.663-2.239s-0.664-2.175-1.72-2.175h-1.447V52.673z"/>
			<path d="M302.171,50.346c-0.008-0.264-0.104-0.704-0.991-0.704c-0.216,0-0.832,0.072-0.832,0.592c0,0.344,0.216,0.423,0.76,0.56
				l0.703,0.176c0.872,0.216,1.176,0.536,1.176,1.104c0,0.863-0.712,1.383-1.655,1.383c-1.655,0-1.774-0.959-1.799-1.463h0.68
				c0.023,0.328,0.12,0.855,1.111,0.855c0.504,0,0.959-0.2,0.959-0.664c0-0.336-0.231-0.448-0.831-0.6l-0.815-0.2
				c-0.584-0.144-0.968-0.44-0.968-1.016c0-0.919,0.76-1.335,1.583-1.335c1.495,0,1.6,1.104,1.6,1.312H302.171z"/>
			<path d="M304.66,49.738v2.719c0,0.328,0.28,0.328,0.424,0.328h0.248v0.552c-0.256,0.024-0.455,0.056-0.527,0.056
				c-0.695,0-0.848-0.392-0.848-0.896v-2.759h-0.567v-0.583h0.567v-1.167h0.703v1.167h0.672v0.583H304.66z"/>
		</g>
		<g>
			<path d="M307.487,49.299h0.584v1.727h1.727v0.583h-1.727v1.727h-0.584V51.61h-1.735v-0.583h1.735V49.299z"/>
			<path d="M312.982,53.337h-0.751v-3.99h-1.312v-0.56c0.911-0.064,1.287-0.152,1.511-1.072h0.552V53.337z"/>
		</g>
	</g>
	<g>
		<g>
			<path d="M317.746,47.595h2.327c1.495,0,2.414,1.135,2.414,2.791c0,1.287-0.56,2.95-2.446,2.95h-2.295V47.595z M318.521,52.673
				h1.504c1.007,0,1.663-0.792,1.663-2.239s-0.664-2.175-1.72-2.175h-1.447V52.673z"/>
			<path d="M325.769,50.346c-0.008-0.264-0.104-0.704-0.991-0.704c-0.216,0-0.832,0.072-0.832,0.591c0,0.344,0.216,0.424,0.76,0.56
				l0.703,0.176c0.872,0.216,1.176,0.536,1.176,1.104c0,0.863-0.712,1.383-1.655,1.383c-1.655,0-1.774-0.959-1.799-1.463h0.68
				c0.023,0.328,0.12,0.855,1.111,0.855c0.504,0,0.959-0.2,0.959-0.664c0-0.336-0.231-0.448-0.831-0.6l-0.815-0.2
				c-0.584-0.144-0.968-0.439-0.968-1.015c0-0.919,0.76-1.335,1.583-1.335c1.495,0,1.6,1.104,1.6,1.312H325.769z"/>
			<path d="M328.257,49.738v2.719c0,0.328,0.28,0.328,0.424,0.328h0.248v0.552c-0.256,0.024-0.455,0.056-0.527,0.056
				c-0.695,0-0.848-0.392-0.848-0.896v-2.759h-0.567v-0.583h0.567v-1.167h0.703v1.167h0.672v0.583H328.257z"/>
		</g>
	</g>
</g>
<g id="レイヤー_2">
</g>
</svg>
