<?xml version="1.0" encoding="utf-8"?>
<!-- Generator: Adobe Illustrator 28.2.0, SVG Export Plug-In . SVG Version: 6.00 Build 0)  -->
<svg version="1.1" id="儗僀儎乕_1" xmlns="http://www.w3.org/2000/svg" xmlns:xlink="http://www.w3.org/1999/xlink" x="0px"
	 y="0px" width="485.53px" height="136.056px" viewBox="0 0 485.53 136.056" style="enable-background:new 0 0 485.53 136.056;"
	 xml:space="preserve">
<style type="text/css">
	.st0{fill:#FFFFFF;stroke:#000000;}
	.st1{fill:#FFFFFF;}
	.st2{fill:none;stroke:#000000;}
	.st3{stroke:#000000;stroke-linecap:square;}
	.st4{stroke:#000000;stroke-width:0.5;}
</style>
<rect x="264.867" y="11.292" class="st0" width="208.686" height="34.603"/>
<line class="st0" x1="404.358" y1="45.895" x2="404.358" y2="11.292"/>
<rect x="276.473" y="0.288" class="st1" width="47.279" height="19.232"/>
<g>
	<path d="M289.707,14.208h-0.776V8.467h3.974v0.688h-3.198v1.759h2.814v0.688h-2.814V14.208z"/>
	<path d="M298.465,14.208v-3.39c0-0.168,0.016-0.896,0.016-1.431h-0.016l-1.615,4.821h-0.768l-1.615-4.813h-0.016
		c0,0.528,0.016,1.255,0.016,1.423v3.39h-0.752V8.467h1.112l1.639,4.853h0.016l1.631-4.853h1.103v5.741H298.465z"/>
	<path d="M302.906,14.36c-2.143,0-2.798-1.783-2.798-3.022s0.655-3.022,2.798-3.022c2.143,0,2.798,1.783,2.798,3.022
		S305.049,14.36,302.906,14.36z M302.906,9.003c-1.248,0-1.999,0.983-1.999,2.334c0,1.352,0.751,2.335,1.999,2.335
		c1.247,0,1.999-0.983,1.999-2.335C304.905,9.986,304.153,9.003,302.906,9.003z"/>
	<path d="M309.922,8.467h0.872l-2.095,5.741h-0.823l-2.095-5.741h0.864l1.639,4.893h0.016L309.922,8.467z"/>
</g>
<g>
	<path d="M32.176,9.395h4.662v0.688h-1.943v5.053h-0.776v-5.053h-1.943V9.395z"/>
	<path d="M37.311,15.135h-0.704v-4.182h0.664v0.696h0.016c0.28-0.488,0.647-0.816,1.175-0.816c0.088,0,0.128,0.008,0.184,0.024
		v0.728h-0.264c-0.656,0-1.071,0.512-1.071,1.12V15.135z"/>
	<path d="M39.311,10.194V9.395h0.704v0.799H39.311z M40.015,15.135h-0.704v-4.182h0.704V15.135z"/>
	<path d="M44.541,14.792c0,0.6-0.008,2.103-1.943,2.103c-0.496,0-1.463-0.136-1.599-1.248h0.704
		c0.128,0.664,0.775,0.664,0.943,0.664c1.215,0,1.191-0.976,1.191-1.471v-0.176h-0.016v0.032c-0.184,0.296-0.552,0.56-1.111,0.56
		c-1.423,0-1.839-1.335-1.839-2.335c0-1.175,0.632-2.087,1.743-2.087c0.759,0,1.079,0.472,1.247,0.712h0.016v-0.592h0.664V14.792z
		 M42.726,14.648c0.448,0,1.144-0.296,1.144-1.407c0-0.68-0.112-1.775-1.127-1.775c-1.087,0-1.144,1.031-1.144,1.567
		C41.599,13.952,41.959,14.648,42.726,14.648z"/>
	<path d="M48.989,14.792c0,0.6-0.008,2.103-1.943,2.103c-0.496,0-1.463-0.136-1.599-1.248h0.704
		c0.128,0.664,0.775,0.664,0.943,0.664c1.215,0,1.191-0.976,1.191-1.471v-0.176h-0.016v0.032c-0.184,0.296-0.551,0.56-1.111,0.56
		c-1.423,0-1.839-1.335-1.839-2.335c0-1.175,0.632-2.087,1.743-2.087c0.759,0,1.079,0.472,1.247,0.712h0.016v-0.592h0.664V14.792z
		 M47.174,14.648c0.448,0,1.144-0.296,1.144-1.407c0-0.68-0.112-1.775-1.127-1.775c-1.087,0-1.144,1.031-1.144,1.567
		C46.047,13.952,46.407,14.648,47.174,14.648z"/>
	<path d="M53.517,13.824c-0.024,0.2-0.216,0.792-0.744,1.143c-0.192,0.128-0.464,0.288-1.135,0.288
		c-1.175,0-1.871-0.888-1.871-2.095c0-1.295,0.624-2.327,2.007-2.327c1.208,0,1.799,0.959,1.799,2.439h-3.055
		c0,0.871,0.408,1.375,1.215,1.375c0.664,0,1.056-0.512,1.08-0.823H53.517z M52.846,12.713c-0.04-0.647-0.312-1.247-1.167-1.247
		c-0.648,0-1.16,0.6-1.16,1.247H52.846z"/>
	<path d="M55.215,15.135h-0.704v-4.182h0.664v0.696h0.016c0.28-0.488,0.647-0.816,1.175-0.816c0.088,0,0.128,0.008,0.184,0.024
		v0.728h-0.264c-0.656,0-1.071,0.512-1.071,1.12V15.135z"/>
</g>
<g>
	<path d="M32.176,87.442h4.662v0.688h-1.943v5.053h-0.776v-5.053h-1.943V87.442z"/>
	<path d="M37.311,93.182h-0.704v-4.182h0.664v0.696h0.016c0.28-0.488,0.647-0.816,1.175-0.816c0.088,0,0.128,0.008,0.184,0.024
		v0.728h-0.264c-0.656,0-1.071,0.512-1.071,1.12V93.182z"/>
	<path d="M39.311,88.241v-0.799h0.704v0.799H39.311z M40.015,93.182h-0.704v-4.182h0.704V93.182z"/>
	<path d="M44.541,92.839c0,0.6-0.008,2.103-1.943,2.103c-0.496,0-1.463-0.136-1.599-1.248h0.704
		c0.128,0.664,0.775,0.664,0.943,0.664c1.215,0,1.191-0.976,1.191-1.471v-0.176h-0.016v0.032c-0.184,0.296-0.552,0.56-1.111,0.56
		c-1.423,0-1.839-1.335-1.839-2.335c0-1.175,0.632-2.087,1.743-2.087c0.759,0,1.079,0.472,1.247,0.712h0.016v-0.592h0.664V92.839z
		 M42.726,92.694c0.448,0,1.144-0.296,1.144-1.407c0-0.68-0.112-1.775-1.127-1.775c-1.087,0-1.144,1.031-1.144,1.567
		C41.599,91.999,41.959,92.694,42.726,92.694z"/>
	<path d="M48.989,92.839c0,0.6-0.008,2.103-1.943,2.103c-0.496,0-1.463-0.136-1.599-1.248h0.704
		c0.128,0.664,0.775,0.664,0.943,0.664c1.215,0,1.191-0.976,1.191-1.471v-0.176h-0.016v0.032c-0.184,0.296-0.551,0.56-1.111,0.56
		c-1.423,0-1.839-1.335-1.839-2.335c0-1.175,0.632-2.087,1.743-2.087c0.759,0,1.079,0.472,1.247,0.712h0.016v-0.592h0.664V92.839z
		 M47.174,92.694c0.448,0,1.144-0.296,1.144-1.407c0-0.68-0.112-1.775-1.127-1.775c-1.087,0-1.144,1.031-1.144,1.567
		C46.047,91.999,46.407,92.694,47.174,92.694z"/>
	<path d="M53.517,91.871c-0.024,0.2-0.216,0.792-0.744,1.143c-0.192,0.128-0.464,0.288-1.135,0.288
		c-1.175,0-1.871-0.888-1.871-2.095c0-1.295,0.624-2.327,2.007-2.327c1.208,0,1.799,0.959,1.799,2.439h-3.055
		c0,0.871,0.408,1.375,1.215,1.375c0.664,0,1.056-0.512,1.08-0.823H53.517z M52.846,90.759c-0.04-0.647-0.312-1.247-1.167-1.247
		c-0.648,0-1.16,0.6-1.16,1.247H52.846z"/>
	<path d="M55.215,93.182h-0.704v-4.182h0.664v0.696h0.016c0.28-0.488,0.647-0.816,1.175-0.816c0.088,0,0.128,0.008,0.184,0.024
		v0.728h-0.264c-0.656,0-1.071,0.512-1.071,1.12V93.182z"/>
</g>
<line class="st2" x1="53.461" y1="29.337" x2="86.763" y2="29.337"/>
<line class="st2" x1="473.5" y1="29.337" x2="485.03" y2="29.337"/>
<line class="st2" x1="87.668" y1="29.337" x2="248.876" y2="29.337"/>
<line class="st2" x1="0.5" y1="29.337" x2="34.68" y2="29.337"/>
<line class="st2" x1="0.5" y1="0" x2="0.5" y2="136.056"/>
<line class="st2" x1="485.03" y1="0" x2="485.03" y2="136.056"/>
<line class="st0" x1="53.461" y1="39.259" x2="53.461" y2="21.957"/>
<line class="st0" x1="35.162" y1="21.957" x2="35.162" y2="39.259"/>
<path class="st2" d="M1.162,136.056"/>
<g>
	<g>
		<path d="M436.19,25.831h0.752v5.741h-0.871l-2.919-4.637h-0.016v4.637h-0.752v-5.741h0.92l2.87,4.637h0.016V25.831z"/>
		<path d="M440.799,31.572v-0.608l-0.016-0.016c-0.296,0.488-0.656,0.744-1.327,0.744c-0.616,0-1.359-0.296-1.359-1.295V27.39h0.703
			v2.774c0,0.688,0.353,0.919,0.808,0.919c0.888,0,1.151-0.784,1.151-1.391V27.39h0.704v4.182H440.799z"/>
		<path d="M442.52,27.39h0.664v0.592h0.016c0.152-0.224,0.512-0.712,1.264-0.712c0.751,0,0.991,0.456,1.111,0.68
			c0.352-0.392,0.632-0.68,1.279-0.68c0.447,0,1.295,0.232,1.295,1.407v2.895h-0.703v-2.703c0-0.576-0.176-0.967-0.775-0.967
			c-0.592,0-0.984,0.56-0.984,1.119v2.551h-0.703v-2.895c0-0.352-0.136-0.775-0.655-0.775c-0.4,0-1.104,0.256-1.104,1.391v2.279
			h-0.704V27.39z"/>
	</g>
</g>
<line class="st2" x1="53.461" y1="107.08" x2="86.763" y2="107.08"/>
<line class="st2" x1="474.425" y1="107.08" x2="485.03" y2="107.08"/>
<line class="st2" x1="248.876" y1="29.337" x2="264.511" y2="29.337"/>
<line class="st2" x1="248.876" y1="107.08" x2="265.226" y2="107.08"/>
<line class="st2" x1="86.743" y1="107.08" x2="248.874" y2="107.08"/>
<line class="st2" x1="0.5" y1="107.08" x2="34.68" y2="107.08"/>
<line class="st0" x1="53.461" y1="117.001" x2="53.461" y2="99.699"/>
<line class="st0" x1="35.162" y1="99.699" x2="35.162" y2="117.001"/>
<g>
	<g>
		<path d="M365.526,25.831h2.327c1.495,0,2.414,1.135,2.414,2.791c0,1.287-0.56,2.95-2.446,2.95h-2.295V25.831z M366.301,30.908
			h1.504c1.007,0,1.663-0.792,1.663-2.239s-0.664-2.175-1.72-2.175h-1.447V30.908z"/>
		<path d="M373.549,28.582c-0.008-0.264-0.104-0.704-0.991-0.704c-0.216,0-0.832,0.072-0.832,0.592c0,0.344,0.216,0.423,0.76,0.56
			l0.703,0.176c0.872,0.216,1.176,0.536,1.176,1.104c0,0.863-0.712,1.383-1.655,1.383c-1.655,0-1.774-0.959-1.799-1.463h0.68
			c0.023,0.328,0.12,0.855,1.111,0.855c0.504,0,0.959-0.2,0.959-0.664c0-0.336-0.231-0.448-0.831-0.6l-0.815-0.2
			c-0.584-0.144-0.968-0.44-0.968-1.016c0-0.919,0.76-1.335,1.583-1.335c1.495,0,1.6,1.104,1.6,1.312H373.549z"/>
		<path d="M376.037,27.974v2.719c0,0.328,0.28,0.328,0.424,0.328h0.248v0.552c-0.256,0.024-0.455,0.056-0.527,0.056
			c-0.695,0-0.848-0.392-0.848-0.896v-2.759h-0.567V27.39h0.567v-1.167h0.703v1.167h0.672v0.583H376.037z"/>
	</g>
	<g>
	</g>
</g>
<polyline class="st0" points="264.867,88.414 473.552,88.414 473.552,123.017 264.867,123.017 "/>
<line class="st0" x1="404.358" y1="123.017" x2="404.358" y2="88.414"/>
<line class="st0" x1="334.076" y1="45.895" x2="334.076" y2="11.292"/>
<line class="st0" x1="334.076" y1="123.017" x2="334.076" y2="88.414"/>
<rect x="274.03" y="77.41" class="st1" width="52.164" height="19.232"/>
<g>
	<g>
		<path d="M436.19,104.19h0.752v5.741h-0.871l-2.919-4.637h-0.016v4.637h-0.752v-5.741h0.92l2.87,4.637h0.016V104.19z"/>
		<path d="M440.799,109.93v-0.608l-0.016-0.016c-0.296,0.488-0.656,0.744-1.327,0.744c-0.616,0-1.359-0.296-1.359-1.295v-3.006
			h0.703v2.774c0,0.688,0.353,0.919,0.808,0.919c0.888,0,1.151-0.784,1.151-1.391v-2.303h0.704v4.182H440.799z"/>
		<path d="M442.52,105.749h0.664v0.592h0.016c0.152-0.224,0.512-0.712,1.264-0.712c0.751,0,0.991,0.456,1.111,0.68
			c0.352-0.392,0.632-0.68,1.279-0.68c0.447,0,1.295,0.232,1.295,1.407v2.895h-0.703v-2.703c0-0.576-0.176-0.967-0.775-0.967
			c-0.592,0-0.984,0.56-0.984,1.119v2.551h-0.703v-2.895c0-0.352-0.136-0.775-0.655-0.775c-0.4,0-1.104,0.256-1.104,1.391v2.279
			h-0.704V105.749z"/>
	</g>
</g>
<g>
	<g>
		<path d="M365.526,104.19h2.327c1.495,0,2.414,1.135,2.414,2.791c0,1.287-0.56,2.95-2.446,2.95h-2.295V104.19z M366.301,109.267
			h1.504c1.007,0,1.663-0.792,1.663-2.239s-0.664-2.175-1.72-2.175h-1.447V109.267z"/>
		<path d="M373.549,106.94c-0.008-0.264-0.104-0.704-0.991-0.704c-0.216,0-0.832,0.072-0.832,0.592c0,0.344,0.216,0.423,0.76,0.56
			l0.703,0.176c0.872,0.216,1.176,0.536,1.176,1.104c0,0.863-0.712,1.383-1.655,1.383c-1.655,0-1.774-0.959-1.799-1.463h0.68
			c0.023,0.328,0.12,0.855,1.111,0.855c0.504,0,0.959-0.2,0.959-0.664c0-0.336-0.231-0.448-0.831-0.6l-0.815-0.2
			c-0.584-0.144-0.968-0.44-0.968-1.016c0-0.919,0.76-1.335,1.583-1.335c1.495,0,1.6,1.104,1.6,1.312H373.549z"/>
		<path d="M376.037,106.332v2.719c0,0.328,0.28,0.328,0.424,0.328h0.248v0.552c-0.256,0.024-0.455,0.056-0.527,0.056
			c-0.695,0-0.848-0.392-0.848-0.896v-2.759h-0.567v-0.583h0.567v-1.167h0.703v1.167h0.672v0.583H376.037z"/>
	</g>
</g>
<g>
	<g>
		<path d="M298.745,27.51c-0.04-0.887-0.776-1.167-1.423-1.167c-0.488,0-1.311,0.136-1.311,1.007c0,0.488,0.344,0.647,0.679,0.728
			l1.639,0.376c0.744,0.176,1.303,0.624,1.303,1.535c0,1.359-1.263,1.735-2.247,1.735c-1.063,0-1.479-0.32-1.735-0.552
			c-0.488-0.439-0.584-0.919-0.584-1.455h0.728c0,1.04,0.848,1.343,1.583,1.343c0.56,0,1.503-0.144,1.503-0.967
			c0-0.6-0.28-0.792-1.223-1.016l-1.175-0.272c-0.376-0.088-1.224-0.352-1.224-1.351c0-0.896,0.584-1.775,1.975-1.775
			c2.007,0,2.207,1.199,2.239,1.831H298.745z"/>
		<path d="M301.33,31.572h-0.704V27.39h0.664v0.696h0.016c0.28-0.488,0.647-0.816,1.175-0.816c0.088,0,0.128,0.008,0.184,0.024
			v0.728h-0.264c-0.656,0-1.071,0.512-1.071,1.12V31.572z"/>
		<path d="M305.649,28.798c-0.088-0.56-0.4-0.896-0.992-0.896c-0.871,0-1.151,0.832-1.151,1.575c0,0.719,0.176,1.607,1.144,1.607
			c0.472,0,0.879-0.352,1-0.991h0.68c-0.072,0.664-0.48,1.599-1.703,1.599c-1.175,0-1.871-0.888-1.871-2.095
			c0-1.295,0.624-2.327,2.007-2.327c1.096,0,1.511,0.8,1.567,1.527H305.649z"/>
	</g>
</g>
<g>
	<g>
		<path d="M298.745,105.868c-0.04-0.887-0.776-1.167-1.423-1.167c-0.488,0-1.311,0.136-1.311,1.007c0,0.488,0.344,0.647,0.679,0.728
			l1.639,0.376c0.744,0.176,1.303,0.624,1.303,1.535c0,1.359-1.263,1.735-2.247,1.735c-1.063,0-1.479-0.32-1.735-0.552
			c-0.488-0.439-0.584-0.919-0.584-1.455h0.728c0,1.04,0.848,1.343,1.583,1.343c0.56,0,1.503-0.144,1.503-0.967
			c0-0.6-0.28-0.792-1.223-1.016l-1.175-0.272c-0.376-0.088-1.224-0.352-1.224-1.351c0-0.896,0.584-1.775,1.975-1.775
			c2.007,0,2.207,1.199,2.239,1.831H298.745z"/>
		<path d="M301.33,109.93h-0.704v-4.182h0.664v0.696h0.016c0.28-0.488,0.647-0.816,1.175-0.816c0.088,0,0.128,0.008,0.184,0.024
			v0.728h-0.264c-0.656,0-1.071,0.512-1.071,1.12V109.93z"/>
		<path d="M305.649,107.156c-0.088-0.56-0.4-0.896-0.992-0.896c-0.871,0-1.151,0.832-1.151,1.575c0,0.719,0.176,1.607,1.144,1.607
			c0.472,0,0.879-0.352,1-0.991h0.68c-0.072,0.664-0.48,1.599-1.703,1.599c-1.175,0-1.871-0.888-1.871-2.095
			c0-1.295,0.624-2.327,2.007-2.327c1.096,0,1.511,0.8,1.567,1.527H305.649z"/>
	</g>
</g>
<g>
	<line class="st3" x1="265.104" y1="93.204" x2="265.104" y2="123.017"/>
	<polygon class="st4" points="265.033,88.669 261.766,96.282 268.686,96.282 	"/>
</g>
<g>
	<path d="M289.707,92.959h-0.776v-5.741h3.974v0.688h-3.198v1.759h2.814v0.688h-2.814V92.959z"/>
	<path d="M298.465,92.959v-3.39c0-0.168,0.016-0.896,0.016-1.431h-0.016l-1.615,4.821h-0.768l-1.615-4.813h-0.016
		c0,0.528,0.016,1.255,0.016,1.423v3.39h-0.752v-5.741h1.112l1.639,4.853h0.016l1.631-4.853h1.103v5.741H298.465z"/>
	<path d="M302.906,93.111c-2.143,0-2.798-1.783-2.798-3.022s0.655-3.022,2.798-3.022c2.143,0,2.798,1.783,2.798,3.022
		S305.049,93.111,302.906,93.111z M302.906,87.754c-1.248,0-1.999,0.983-1.999,2.334c0,1.352,0.751,2.335,1.999,2.335
		c1.247,0,1.999-0.983,1.999-2.335C304.905,88.737,304.153,87.754,302.906,87.754z"/>
	<path d="M309.922,87.218h0.872l-2.095,5.741h-0.823l-2.095-5.741h0.864l1.639,4.893h0.016L309.922,87.218z"/>
</g>
</svg>
