<?xml version="1.0" encoding="utf-8"?>
<!-- Generator: Adobe Illustrator 28.2.0, SVG Export Plug-In . SVG Version: 6.00 Build 0)  -->
<svg version="1.1" id="儗僀儎乕_1" xmlns="http://www.w3.org/2000/svg" xmlns:xlink="http://www.w3.org/1999/xlink" x="0px"
	 y="0px" width="383.951px" height="152.955px" viewBox="0 0 383.951 152.955" style="enable-background:new 0 0 383.951 152.955;"
	 xml:space="preserve">
<style type="text/css">
	.st0{fill:none;stroke:#9FA0A0;stroke-width:0.5;}
	.st1{fill:none;stroke:#000000;stroke-width:0.5;}
	.st2{fill:none;stroke:#000000;stroke-width:0.5;stroke-dasharray:2;}
	.st3{fill:#FFFFFF;stroke:#000000;}
	.st4{fill:#FFFFFF;}
	.st5{fill:none;stroke:#000000;}
	.st6{fill:#FFFFFF;stroke:#000000;stroke-width:0.5;stroke-dasharray:1;}
</style>
<line class="st0" x1="76.218" y1="91.665" x2="76.218" y2="95.653"/>
<line class="st0" x1="76.218" y1="105.16" x2="76.218" y2="109.148"/>
<line class="st0" x1="306.221" y1="58.309" x2="306.221" y2="62.452"/>
<line class="st0" x1="306.221" y1="71.234" x2="306.221" y2="75.074"/>
<line class="st0" x1="306.221" y1="75.074" x2="306.221" y2="79.248"/>
<line class="st0" x1="306.221" y1="88.47" x2="306.221" y2="91.983"/>
<line class="st0" x1="306.221" y1="92.77" x2="306.221" y2="96.923"/>
<line class="st0" x1="306.221" y1="104.936" x2="306.221" y2="109.069"/>
<line class="st0" x1="306.221" y1="109.069" x2="306.221" y2="114.268"/>
<line class="st0" x1="306.221" y1="121.842" x2="306.221" y2="125.679"/>
<line class="st0" x1="306.221" y1="125.679" x2="306.221" y2="130.405"/>
<line class="st0" x1="306.221" y1="138.529" x2="306.221" y2="142.599"/>
<line class="st1" x1="260.092" y1="125.679" x2="352.132" y2="125.679"/>
<g>
	<path d="M0.647,98.285h2.327c1.495,0,2.415,1.135,2.415,2.791c0,1.287-0.56,2.95-2.447,2.95H0.647V98.285z M1.423,103.362h1.503
		c1.007,0,1.663-0.792,1.663-2.239s-0.664-2.175-1.719-2.175H1.423V103.362z"/>
	<path d="M11.109,104.026v-3.39c0-0.168,0.016-0.896,0.016-1.431h-0.016l-1.615,4.821H8.726l-1.615-4.813H7.095
		c0,0.528,0.016,1.255,0.016,1.423v3.39H6.359v-5.741h1.111l1.639,4.853h0.016l1.631-4.853h1.103v5.741H11.109z"/>
	<path d="M15.311,104.026h-0.752v-3.99h-1.311v-0.56c0.912-0.064,1.287-0.152,1.511-1.072h0.552V104.026z"/>
	<path d="M18.67,104.178c-1.615,0-1.927-1.719-1.927-2.886c0-1.167,0.312-2.887,1.927-2.887c1.615,0,1.927,1.719,1.927,2.887
		C20.598,102.458,20.286,104.178,18.67,104.178z M18.67,99.037c-0.808,0-1.175,0.848-1.175,2.255s0.368,2.255,1.175,2.255
		s1.175-0.848,1.175-2.255S19.478,99.037,18.67,99.037z"/>
	<path d="M23.167,104.026h-0.752v-3.99h-1.311v-0.56c0.912-0.064,1.287-0.152,1.511-1.072h0.552V104.026z"/>
	<path d="M26.271,100.747H25.44V99.9h0.832V100.747z M26.271,104.026H25.44v-0.848h0.832V104.026z"/>
</g>
<g>
	<path d="M219.757,66.854l-3.314,3.985l-1.852-4.245L219.757,66.854z"/>
	<line class="st2" x1="218.781" y1="67.23" x2="163.288" y2="99.648"/>
</g>
<g>
	<path d="M220,83.61l-4.018,3.274l-1.002-4.521L220,83.61z"/>
	<line class="st2" x1="218.97" y1="83.791" x2="163.671" y2="99.648"/>
</g>
<g>
	<path d="M219.94,100.585l-4.631,2.327v-4.631L219.94,100.585z"/>
	<line class="st2" x1="218.896" y1="100.539" x2="163.671" y2="100.539"/>
</g>
<g>
	<path d="M219.884,117.003l-5.004,1.353l0.926-4.537L219.884,117.003z"/>
	<line class="st2" x1="218.869" y1="116.749" x2="164.054" y2="100.798"/>
</g>
<g>
	<path d="M219.903,133.507l-5.169,0.388l1.764-4.282L219.903,133.507z"/>
	<line class="st2" x1="218.954" y1="133.066" x2="164.438" y2="101.182"/>
</g>
<g>
	<path d="M358.351,66.512h-0.832v-0.847h0.832V66.512z M358.351,69.79h-0.832v-0.848h0.832V69.79z"/>
	<path d="M363.972,69.79h-4.237v-5.741h4.182v0.688h-3.406v1.759h3.143v0.688h-3.143v1.919h3.462V69.79z"/>
	<path d="M369.716,69.79V66.4c0-0.168,0.016-0.896,0.016-1.431h-0.016l-1.615,4.821h-0.768l-1.615-4.813h-0.016
		c0,0.528,0.016,1.255,0.016,1.423v3.39h-0.751v-5.741h1.111l1.639,4.853h0.017l1.631-4.853h1.104v5.741H369.716z"/>
	<path d="M373.917,69.79h-0.751V65.8h-1.312v-0.56c0.911-0.064,1.287-0.152,1.511-1.072h0.552V69.79z"/>
	<path d="M377.278,69.942c-1.615,0-1.927-1.719-1.927-2.886s0.312-2.887,1.927-2.887s1.927,1.719,1.927,2.887
		S378.894,69.942,377.278,69.942z M377.278,64.801c-0.808,0-1.175,0.848-1.175,2.255s0.367,2.254,1.175,2.254
		s1.176-0.847,1.176-2.254S378.086,64.801,377.278,64.801z"/>
	<path d="M382.861,68.423v1.367h-0.704v-1.367h-2.454v-0.688l2.574-3.566h0.584v3.646h0.823v0.608H382.861z M380.351,67.815h1.807
		v-2.55h-0.016L380.351,67.815z"/>
	<path d="M358.351,83.387h-0.832v-0.847h0.832V83.387z M358.351,86.665h-0.832v-0.848h0.832V86.665z"/>
	<path d="M363.972,86.665h-4.237v-5.741h4.182v0.688h-3.406v1.759h3.143v0.688h-3.143v1.919h3.462V86.665z"/>
	<path d="M369.716,86.665v-3.39c0-0.168,0.016-0.896,0.016-1.431h-0.016l-1.615,4.821h-0.768l-1.615-4.813h-0.016
		c0,0.528,0.016,1.255,0.016,1.423v3.39h-0.751v-5.741h1.111l1.639,4.853h0.017l1.631-4.853h1.104v5.741H369.716z"/>
	<path d="M373.917,86.665h-0.751v-3.99h-1.312v-0.56c0.911-0.064,1.287-0.152,1.511-1.072h0.552V86.665z"/>
	<path d="M377.278,86.817c-1.615,0-1.927-1.719-1.927-2.886s0.312-2.887,1.927-2.887s1.927,1.719,1.927,2.887
		S378.894,86.817,377.278,86.817z M377.278,81.676c-0.808,0-1.175,0.848-1.175,2.255s0.367,2.254,1.175,2.254
		s1.176-0.847,1.176-2.254S378.086,81.676,377.278,81.676z"/>
	<path d="M382.837,82.539c-0.088-0.496-0.359-0.864-0.967-0.864c-1.104,0-1.336,1.487-1.336,2.079l0.017,0.016
		c0.176-0.304,0.567-0.688,1.335-0.688c0.688,0,1.759,0.44,1.759,1.783c0,0.576-0.151,0.991-0.535,1.407
		c-0.296,0.328-0.632,0.543-1.424,0.543c-0.432,0-1.047-0.192-1.447-0.815c-0.336-0.528-0.432-1.215-0.432-1.951
		c0-1.231,0.399-3.006,2.079-3.006c0.647,0,1.567,0.352,1.639,1.496H382.837z M381.813,86.185c0.672,0,1.104-0.527,1.104-1.287
		c0-0.496-0.264-1.183-1.136-1.183c-0.775,0-1.151,0.56-1.151,1.223C380.63,85.537,380.99,86.185,381.813,86.185z"/>
	<path d="M358.351,100.262h-0.832v-0.847h0.832V100.262z M358.351,103.54h-0.832v-0.848h0.832V103.54z"/>
	<path d="M363.972,103.54h-4.237v-5.741h4.182v0.688h-3.406v1.759h3.143v0.688h-3.143v1.919h3.462V103.54z"/>
	<path d="M369.716,103.54v-3.39c0-0.168,0.016-0.896,0.016-1.431h-0.016l-1.615,4.821h-0.768l-1.615-4.813h-0.016
		c0,0.528,0.016,1.255,0.016,1.423v3.39h-0.751v-5.741h1.111l1.639,4.853h0.017l1.631-4.853h1.104v5.741H369.716z"/>
	<path d="M373.917,103.54h-0.751v-3.99h-1.312v-0.56c0.911-0.064,1.287-0.152,1.511-1.072h0.552V103.54z"/>
	<path d="M377.278,103.692c-1.615,0-1.927-1.719-1.927-2.886s0.312-2.887,1.927-2.887s1.927,1.719,1.927,2.887
		S378.894,103.692,377.278,103.692z M377.278,98.551c-0.808,0-1.175,0.848-1.175,2.255s0.367,2.254,1.175,2.254
		s1.176-0.847,1.176-2.254S378.086,98.551,377.278,98.551z"/>
	<path d="M382.717,100.55c0.76,0.32,0.92,0.943,0.92,1.367c0,0.903-0.576,1.775-1.903,1.775c-0.312,0-0.903-0.08-1.351-0.432
		c-0.576-0.456-0.576-1.063-0.576-1.335c0-0.688,0.36-1.127,0.951-1.367c-0.479-0.184-0.759-0.568-0.759-1.095
		c0-0.584,0.359-1.543,1.703-1.543c1.247,0,1.734,0.792,1.734,1.447C383.437,100.174,382.965,100.422,382.717,100.55z
		 M380.559,101.941c0,0.448,0.224,1.119,1.199,1.119c0.512,0,1.127-0.184,1.127-1.063c0-0.76-0.527-1.096-1.167-1.096
		C380.926,100.901,380.559,101.421,380.559,101.941z M382.709,99.39c0-0.344-0.224-0.839-1.047-0.839
		c-0.752,0-0.936,0.52-0.936,0.879c0,0.536,0.472,0.864,0.983,0.864C382.317,100.294,382.709,99.902,382.709,99.39z"/>
	<path d="M358.812,117.137h-0.832v-0.847h0.832V117.137z M358.812,120.415h-0.832v-0.848h0.832V120.415z"/>
	<path d="M364.433,120.415h-4.237v-5.741h4.182v0.688h-3.406v1.759h3.143v0.688h-3.143v1.919h3.462V120.415z"/>
	<path d="M370.177,120.415v-3.39c0-0.168,0.016-0.896,0.016-1.431h-0.016l-1.615,4.821h-0.768l-1.615-4.813h-0.016
		c0,0.528,0.016,1.255,0.016,1.423v3.39h-0.751v-5.741h1.111l1.639,4.853h0.017l1.631-4.853h1.104v5.741H370.177z"/>
	<path d="M374.378,120.415h-0.751v-3.99h-1.312v-0.56c0.911-0.064,1.287-0.152,1.511-1.072h0.552V120.415z"/>
	<path d="M377.906,120.415h-0.751v-3.99h-1.312v-0.56c0.911-0.064,1.287-0.152,1.511-1.072h0.552V120.415z"/>
	<path d="M381.267,120.567c-1.615,0-1.927-1.719-1.927-2.886s0.312-2.887,1.927-2.887s1.927,1.719,1.927,2.887
		S382.882,120.567,381.267,120.567z M381.267,115.426c-0.808,0-1.175,0.848-1.175,2.255s0.367,2.254,1.175,2.254
		s1.176-0.847,1.176-2.254S382.074,115.426,381.267,115.426z"/>
	<path d="M358.751,134.011h-0.832v-0.848h0.832V134.011z M358.751,137.289h-0.832v-0.848h0.832V137.289z"/>
	<path d="M364.372,137.289h-4.237v-5.741h4.182v0.688h-3.406v1.759h3.143v0.688h-3.143v1.919h3.462V137.289z"/>
	<path d="M370.116,137.289v-3.391c0-0.167,0.016-0.895,0.016-1.431h-0.016l-1.615,4.821h-0.768l-1.615-4.813h-0.016
		c0,0.528,0.016,1.256,0.016,1.423v3.391h-0.751v-5.741h1.111l1.639,4.854h0.017l1.631-4.854h1.104v5.741H370.116z"/>
	<path d="M374.317,137.289h-0.751v-3.99h-1.312v-0.56c0.911-0.063,1.287-0.151,1.511-1.071h0.552V137.289z"/>
	<path d="M377.846,137.289h-0.751v-3.99h-1.312v-0.56c0.911-0.063,1.287-0.151,1.511-1.071h0.552V137.289z"/>
	<path d="M379.455,133.683c0-1.831,1.336-2.015,1.943-2.015c0.976,0,1.759,0.632,1.759,1.68c0,1.007-0.664,1.431-1.503,1.879
		l-0.584,0.319c-0.768,0.424-0.936,0.863-0.968,1.079h3.055v0.664h-3.846c0.04-1.167,0.567-1.791,1.319-2.23l0.743-0.432
		c0.6-0.344,1.031-0.576,1.031-1.312c0-0.448-0.287-1.016-1.111-1.016c-1.063,0-1.111,0.991-1.135,1.383H379.455z"/>
</g>
<g>
	<path d="M229.899,69.79h-4.237v-5.741h4.182v0.688h-3.406v1.759h3.143v0.688h-3.143v1.919h3.462V69.79z"/>
	<path d="M235.644,69.79V66.4c0-0.168,0.016-0.896,0.016-1.431h-0.016l-1.615,4.821h-0.768l-1.615-4.813h-0.016
		c0,0.528,0.016,1.255,0.016,1.423v3.39h-0.751v-5.741h1.111l1.639,4.853h0.017l1.631-4.853h1.104v5.741H235.644z"/>
	<path d="M239.845,69.79h-0.751V65.8h-1.312v-0.56c0.911-0.064,1.287-0.152,1.511-1.072h0.552V69.79z"/>
	<path d="M243.205,69.942c-1.615,0-1.927-1.719-1.927-2.886s0.312-2.887,1.927-2.887s1.927,1.719,1.927,2.887
		S244.82,69.942,243.205,69.942z M243.205,64.801c-0.808,0-1.175,0.848-1.175,2.255s0.367,2.254,1.175,2.254
		s1.176-0.847,1.176-2.254S244.013,64.801,243.205,64.801z"/>
	<path d="M246.606,66.52c0.239-0.184,0.583-0.352,1.087-0.352c0.911,0,1.847,0.64,1.847,1.799c0,0.624-0.279,1.975-2.038,1.975
		c-0.736,0-1.68-0.296-1.815-1.551h0.728c0.072,0.656,0.56,0.944,1.191,0.944c0.728,0,1.184-0.584,1.184-1.288
		c0-0.808-0.552-1.247-1.247-1.247c-0.408,0-0.776,0.192-1.04,0.536l-0.607-0.032l0.424-3.014h2.91v0.688h-2.383L246.606,66.52z"/>
	<path d="M251.406,66.512h-0.832v-0.847h0.832V66.512z M251.406,69.79h-0.832v-0.848h0.832V69.79z"/>
	<path d="M229.899,86.665h-4.237v-5.741h4.182v0.688h-3.406v1.759h3.143v0.688h-3.143v1.919h3.462V86.665z"/>
	<path d="M235.644,86.665v-3.39c0-0.168,0.016-0.896,0.016-1.431h-0.016l-1.615,4.821h-0.768l-1.615-4.813h-0.016
		c0,0.528,0.016,1.255,0.016,1.423v3.39h-0.751v-5.741h1.111l1.639,4.853h0.017l1.631-4.853h1.104v5.741H235.644z"/>
	<path d="M239.845,86.665h-0.751v-3.99h-1.312v-0.56c0.911-0.064,1.287-0.152,1.511-1.072h0.552V86.665z"/>
	<path d="M243.205,86.817c-1.615,0-1.927-1.719-1.927-2.886s0.312-2.887,1.927-2.887s1.927,1.719,1.927,2.887
		S244.82,86.817,243.205,86.817z M243.205,81.676c-0.808,0-1.175,0.848-1.175,2.255s0.367,2.254,1.175,2.254
		s1.176-0.847,1.176-2.254S244.013,81.676,243.205,81.676z"/>
	<path d="M245.727,81.164h3.886v0.616c-0.56,0.583-1.903,2.375-2.311,4.885h-0.775c0.191-1.543,1.215-3.558,2.295-4.813h-3.095
		V81.164z"/>
	<path d="M251.406,83.387h-0.832v-0.847h0.832V83.387z M251.406,86.665h-0.832v-0.848h0.832V86.665z"/>
	<path d="M229.899,103.54h-4.237v-5.741h4.182v0.688h-3.406v1.759h3.143v0.688h-3.143v1.919h3.462V103.54z"/>
	<path d="M235.644,103.54v-3.39c0-0.168,0.016-0.896,0.016-1.431h-0.016l-1.615,4.821h-0.768l-1.615-4.813h-0.016
		c0,0.528,0.016,1.255,0.016,1.423v3.39h-0.751v-5.741h1.111l1.639,4.853h0.017l1.631-4.853h1.104v5.741H235.644z"/>
	<path d="M239.845,103.54h-0.751v-3.99h-1.312v-0.56c0.911-0.064,1.287-0.152,1.511-1.072h0.552V103.54z"/>
	<path d="M243.205,103.692c-1.615,0-1.927-1.719-1.927-2.886s0.312-2.887,1.927-2.887s1.927,1.719,1.927,2.887
		S244.82,103.692,243.205,103.692z M243.205,98.551c-0.808,0-1.175,0.848-1.175,2.255s0.367,2.254,1.175,2.254
		s1.176-0.847,1.176-2.254S244.013,98.551,243.205,98.551z"/>
	<path d="M245.767,99.846c0-1.023,0.623-1.927,1.807-1.927c1.791,0,1.967,1.695,1.967,2.607c0,0.6-0.104,3.166-2.038,3.166
		c-1.319,0-1.672-0.959-1.672-1.503h0.704c0.04,0.567,0.376,0.919,0.951,0.919c0.768,0,1.176-0.648,1.352-2.103l-0.016-0.016
		c-0.208,0.432-0.768,0.672-1.288,0.672C246.494,101.661,245.767,100.965,245.767,99.846z M248.717,99.75
		c0-0.64-0.328-1.199-1.136-1.199c-0.655,0-1.087,0.512-1.087,1.263c0,1.08,0.672,1.215,1.144,1.215
		C248.005,101.029,248.717,100.861,248.717,99.75z"/>
	<path d="M251.406,100.262h-0.832v-0.847h0.832V100.262z M251.406,103.54h-0.832v-0.848h0.832V103.54z"/>
	<path d="M229.899,120.415h-4.237v-5.741h4.182v0.688h-3.406v1.759h3.143v0.688h-3.143v1.919h3.462V120.415z"/>
	<path d="M235.644,120.415v-3.39c0-0.168,0.016-0.896,0.016-1.431h-0.016l-1.615,4.821h-0.768l-1.615-4.813h-0.016
		c0,0.528,0.016,1.255,0.016,1.423v3.39h-0.751v-5.741h1.111l1.639,4.853h0.017l1.631-4.853h1.104v5.741H235.644z"/>
	<path d="M239.845,120.415h-0.751v-3.99h-1.312v-0.56c0.911-0.064,1.287-0.152,1.511-1.072h0.552V120.415z"/>
	<path d="M243.373,120.415h-0.751v-3.99h-1.312v-0.56c0.911-0.064,1.287-0.152,1.511-1.072h0.552V120.415z"/>
	<path d="M246.9,120.415h-0.751v-3.99h-1.312v-0.56c0.911-0.064,1.287-0.152,1.511-1.072h0.552V120.415z"/>
	<path d="M250.006,117.137h-0.832v-0.847h0.832V117.137z M250.006,120.415h-0.832v-0.848h0.832V120.415z"/>
	<path d="M229.899,137.289h-4.237v-5.741h4.182v0.688h-3.406v1.759h3.143v0.688h-3.143v1.919h3.462V137.289z"/>
	<path d="M235.644,137.289v-3.391c0-0.167,0.016-0.895,0.016-1.431h-0.016l-1.615,4.821h-0.768l-1.615-4.813h-0.016
		c0,0.528,0.016,1.256,0.016,1.423v3.391h-0.751v-5.741h1.111l1.639,4.854h0.017l1.631-4.854h1.104v5.741H235.644z"/>
	<path d="M239.845,137.289h-0.751v-3.99h-1.312v-0.56c0.911-0.063,1.287-0.151,1.511-1.071h0.552V137.289z"/>
	<path d="M243.373,137.289h-0.751v-3.99h-1.312v-0.56c0.911-0.063,1.287-0.151,1.511-1.071h0.552V137.289z"/>
	<path d="M246.422,134.091c0.12,0.008,0.248,0.016,0.368,0.016c0.543,0,1.071-0.216,1.071-0.919c0-0.336-0.2-0.888-1.04-0.888
		c-0.999,0-1.063,0.815-1.095,1.207h-0.688c0-0.823,0.335-1.839,1.814-1.839c1.088,0,1.735,0.624,1.735,1.479
		c0,0.72-0.416,1.063-0.72,1.159v0.016c0.544,0.177,0.936,0.561,0.936,1.312c0,0.92-0.592,1.808-2.023,1.808
		c-0.415,0-0.768-0.104-1.039-0.248c-0.624-0.328-0.792-0.976-0.84-1.623h0.728c0.024,0.527,0.152,1.239,1.2,1.239
		c0.719,0,1.223-0.44,1.223-1.088c0-0.943-0.831-1.031-1.312-1.031c-0.104,0-0.216,0.008-0.319,0.008V134.091z"/>
	<path d="M250.606,134.011h-0.832v-0.848h0.832V134.011z M250.606,137.289h-0.832v-0.848h0.832V137.289z"/>
</g>
<rect x="153.367" y="7.634" class="st3" width="106.846" height="17.717"/>
<line class="st3" x1="224.785" y1="25.351" x2="224.785" y2="7.634"/>
<rect x="155.907" y="2" class="st4" width="30.443" height="9.847"/>
<g>
	<path d="M157.757,9.128h-0.775V3.387h3.974v0.688h-3.198v1.759h2.814v0.688h-2.814V9.128z"/>
	<path d="M166.515,9.128v-3.39c0-0.168,0.016-0.896,0.016-1.431h-0.016l-1.615,4.821h-0.768l-1.615-4.813h-0.016
		c0,0.528,0.016,1.255,0.016,1.423v3.39h-0.751V3.387h1.111l1.639,4.853h0.017l1.631-4.853h1.104v5.741H166.515z"/>
	<path d="M170.956,9.28c-2.143,0-2.799-1.783-2.799-3.022s0.656-3.022,2.799-3.022s2.799,1.783,2.799,3.022
		S173.099,9.28,170.956,9.28z M170.956,3.923c-1.247,0-1.999,0.983-1.999,2.334c0,1.352,0.752,2.335,1.999,2.335
		s1.999-0.983,1.999-2.335C172.955,4.906,172.203,3.923,170.956,3.923z"/>
	<path d="M177.972,3.387h0.871l-2.095,5.741h-0.823l-2.095-5.741h0.863l1.639,4.893h0.017L177.972,3.387z"/>
	<path d="M179.533,9.128h-0.832V8.28h0.832V9.128z"/>
	<path d="M180.877,3.387h2.327c1.495,0,2.414,1.135,2.414,2.791c0,1.287-0.56,2.95-2.446,2.95h-2.295V3.387z M181.652,8.464h1.504
		c1.007,0,1.663-0.792,1.663-2.239s-0.664-2.175-1.72-2.175h-1.447V8.464z"/>
</g>
<line class="st5" x1="28.249" y1="16.873" x2="152.452" y2="16.873"/>
<line class="st5" x1="260.187" y1="16.873" x2="266.09" y2="16.873"/>
<line class="st5" x1="1.134" y1="16.873" x2="18.634" y2="16.873"/>
<line class="st5" x1="1.134" y1="0" x2="1.134" y2="31.164"/>
<line class="st5" x1="266.09" y1="0" x2="266.09" y2="31.164"/>
<line class="st3" x1="28.249" y1="21.954" x2="28.249" y2="13.095"/>
<line class="st3" x1="18.882" y1="13.095" x2="18.882" y2="21.954"/>
<line class="st3" x1="188.801" y1="25.351" x2="188.801" y2="7.634"/>
<g>
	<path d="M159.061,14.693h2.327c1.495,0,2.414,1.135,2.414,2.791c0,1.287-0.56,2.95-2.446,2.95h-2.295V14.693z M159.836,19.77h1.504
		c1.007,0,1.663-0.792,1.663-2.239s-0.664-2.175-1.72-2.175h-1.447V19.77z"/>
	<path d="M169.521,20.434v-3.39c0-0.168,0.016-0.896,0.016-1.431h-0.016l-1.615,4.821h-0.768l-1.615-4.813h-0.016
		c0,0.528,0.016,1.255,0.016,1.423v3.39h-0.751v-5.741h1.111l1.639,4.853h0.017l1.631-4.853h1.104v5.741H169.521z"/>
	<path d="M173.723,20.434h-0.751v-3.99h-1.312v-0.56c0.911-0.064,1.287-0.152,1.511-1.072h0.552V20.434z"/>
	<path d="M177.084,20.586c-1.615,0-1.927-1.719-1.927-2.886c0-1.167,0.312-2.887,1.927-2.887s1.927,1.719,1.927,2.887
		C179.011,18.867,178.699,20.586,177.084,20.586z M177.084,15.445c-0.808,0-1.175,0.848-1.175,2.255s0.367,2.255,1.175,2.255
		s1.176-0.848,1.176-2.255S177.892,15.445,177.084,15.445z"/>
	<path d="M181.531,20.586c-1.615,0-1.927-1.719-1.927-2.886c0-1.167,0.312-2.887,1.927-2.887s1.927,1.719,1.927,2.887
		C183.458,18.867,183.146,20.586,181.531,20.586z M181.531,15.445c-0.808,0-1.175,0.848-1.175,2.255s0.367,2.255,1.175,2.255
		s1.176-0.848,1.176-2.255S182.339,15.445,181.531,15.445z"/>
</g>
<g>
	<path d="M199.228,20.434h-4.237v-5.741h4.182v0.688h-3.406v1.759h3.143v0.688h-3.143v1.919h3.462V20.434z"/>
	<path d="M204.972,20.434v-3.39c0-0.168,0.016-0.896,0.016-1.431h-0.016l-1.615,4.821h-0.768l-1.615-4.813h-0.016
		c0,0.528,0.016,1.255,0.016,1.423v3.39h-0.751v-5.741h1.111l1.639,4.853h0.017l1.631-4.853h1.104v5.741H204.972z"/>
	<path d="M209.173,20.434h-0.751v-3.99h-1.312v-0.56c0.911-0.064,1.287-0.152,1.511-1.072h0.552V20.434z"/>
	<path d="M212.533,20.586c-1.615,0-1.927-1.719-1.927-2.886c0-1.167,0.312-2.887,1.927-2.887s1.927,1.719,1.927,2.887
		C214.46,18.867,214.148,20.586,212.533,20.586z M212.533,15.445c-0.808,0-1.175,0.848-1.175,2.255s0.367,2.255,1.175,2.255
		s1.176-0.848,1.176-2.255S213.341,15.445,212.533,15.445z"/>
	<path d="M218.117,19.067v1.367h-0.704v-1.367h-2.454v-0.688l2.574-3.566h0.584v3.646h0.823v0.608H218.117z M215.606,18.459h1.807
		v-2.55h-0.016L215.606,18.459z"/>
</g>
<g>
	<path d="M240.847,20.434h-0.527l0.231-1.679h-0.999l-0.232,1.679h-0.527l0.232-1.679H238.2l0.072-0.503h0.823l0.152-1.136h-0.823
		l0.071-0.503h0.823l0.232-1.679h0.535l-0.231,1.679h0.991l0.232-1.679h0.535l-0.231,1.679h0.823l-0.072,0.503h-0.823l-0.16,1.136
		h0.824l-0.072,0.503h-0.823L240.847,20.434z M239.783,17.116l-0.159,1.136h0.999l0.152-1.136H239.783z"/>
	<path d="M243.601,17.164c0.239-0.184,0.583-0.352,1.087-0.352c0.911,0,1.847,0.64,1.847,1.799c0,0.624-0.279,1.975-2.038,1.975
		c-0.736,0-1.68-0.296-1.815-1.551h0.728c0.072,0.656,0.56,0.944,1.191,0.944c0.728,0,1.184-0.584,1.184-1.288
		c0-0.808-0.552-1.247-1.247-1.247c-0.408,0-0.776,0.192-1.04,0.536l-0.607-0.032l0.424-3.014h2.91v0.688h-2.383L243.601,17.164z"/>
</g>
<rect x="30.089" y="91.681" class="st1" width="92.371" height="17.563"/>
<g>
	<path d="M59.614,103.02h-0.846v-4.492h-1.477v-0.63c1.026-0.072,1.45-0.171,1.702-1.207h0.621V103.02z"/>
	<path d="M61.422,98.96c0-2.062,1.503-2.269,2.188-2.269c1.098,0,1.98,0.711,1.98,1.891c0,1.134-0.748,1.612-1.692,2.116
		l-0.657,0.36c-0.864,0.477-1.054,0.972-1.089,1.215h3.439v0.747H61.26c0.045-1.314,0.639-2.017,1.486-2.512l0.837-0.486
		c0.675-0.387,1.162-0.648,1.162-1.476c0-0.504-0.324-1.144-1.251-1.144c-1.197,0-1.251,1.116-1.278,1.558H61.422z"/>
	<path d="M68.046,99.419c0.135,0.009,0.279,0.018,0.414,0.018c0.612,0,1.207-0.243,1.207-1.035c0-0.378-0.225-1-1.17-1
		c-1.125,0-1.197,0.918-1.233,1.359h-0.774c0-0.927,0.378-2.071,2.044-2.071c1.224,0,1.954,0.703,1.954,1.666
		c0,0.811-0.468,1.198-0.811,1.306v0.018c0.612,0.198,1.053,0.63,1.053,1.476c0,1.036-0.666,2.035-2.277,2.035
		c-0.468,0-0.864-0.117-1.17-0.279c-0.702-0.369-0.892-1.099-0.945-1.828h0.819c0.027,0.594,0.171,1.396,1.35,1.396
		c0.811,0,1.377-0.495,1.377-1.225c0-1.062-0.936-1.161-1.477-1.161c-0.117,0-0.243,0.009-0.36,0.009V99.419z"/>
	<path d="M74.815,101.48v1.54h-0.792v-1.54h-2.764v-0.774l2.899-4.016h0.657v4.105h0.927v0.684H74.815z M71.988,100.796h2.035
		v-2.872h-0.018L71.988,100.796z"/>
	<path d="M77.361,99.338c0.27-0.207,0.657-0.396,1.225-0.396c1.026,0,2.08,0.72,2.08,2.025c0,0.702-0.315,2.224-2.296,2.224
		c-0.828,0-1.891-0.333-2.043-1.747h0.819c0.081,0.738,0.63,1.062,1.341,1.062c0.819,0,1.333-0.657,1.333-1.449
		c0-0.91-0.621-1.405-1.404-1.405c-0.459,0-0.874,0.216-1.17,0.604l-0.685-0.036l0.478-3.394h3.277V97.6h-2.683L77.361,99.338z"/>
	<path d="M84.796,98.374c-0.099-0.558-0.405-0.972-1.089-0.972c-1.243,0-1.504,1.674-1.504,2.341l0.018,0.018
		c0.198-0.342,0.639-0.774,1.503-0.774c0.774,0,1.981,0.495,1.981,2.008c0,0.648-0.171,1.116-0.604,1.584
		c-0.333,0.369-0.711,0.612-1.603,0.612c-0.486,0-1.179-0.216-1.629-0.918c-0.378-0.594-0.486-1.369-0.486-2.197
		c0-1.386,0.45-3.385,2.34-3.385c0.729,0,1.765,0.396,1.846,1.684H84.796z M83.644,102.48c0.756,0,1.243-0.594,1.243-1.45
		c0-0.558-0.297-1.332-1.278-1.332c-0.874,0-1.296,0.63-1.296,1.377C82.312,101.75,82.716,102.48,83.644,102.48z"/>
	<path d="M86.379,96.826h4.375v0.693c-0.63,0.657-2.143,2.674-2.602,5.5h-0.873c0.216-1.737,1.368-4.006,2.584-5.419h-3.484V96.826z
		"/>
	<path d="M94.669,99.653c0.855,0.36,1.035,1.062,1.035,1.54c0,1.018-0.648,1.999-2.143,1.999c-0.351,0-1.017-0.09-1.521-0.486
		c-0.648-0.513-0.648-1.198-0.648-1.503c0-0.774,0.405-1.27,1.071-1.54c-0.541-0.207-0.855-0.639-0.855-1.233
		c0-0.657,0.405-1.738,1.917-1.738c1.405,0,1.954,0.892,1.954,1.63C95.479,99.23,94.948,99.509,94.669,99.653z M92.238,101.219
		c0,0.504,0.252,1.261,1.35,1.261c0.576,0,1.27-0.207,1.27-1.197c0-0.855-0.594-1.233-1.314-1.233
		C92.652,100.049,92.238,100.634,92.238,101.219z M94.66,98.348c0-0.387-0.252-0.945-1.179-0.945c-0.846,0-1.053,0.585-1.053,0.99
		c0,0.603,0.531,0.972,1.107,0.972C94.219,99.365,94.66,98.924,94.66,98.348z"/>
</g>
<g>
	<path d="M51.726,84.759c-0.04-0.888-0.775-1.167-1.423-1.167c-0.488,0-1.311,0.136-1.311,1.007c0,0.488,0.344,0.647,0.68,0.728
		l1.639,0.376c0.744,0.176,1.304,0.624,1.304,1.535c0,1.359-1.264,1.735-2.247,1.735c-1.063,0-1.479-0.32-1.735-0.552
		c-0.488-0.439-0.584-0.919-0.584-1.455h0.728c0,1.04,0.847,1.343,1.583,1.343c0.56,0,1.503-0.144,1.503-0.967
		c0-0.6-0.28-0.792-1.223-1.016l-1.175-0.272c-0.376-0.088-1.224-0.352-1.224-1.351c0-0.896,0.584-1.775,1.975-1.775
		c2.007,0,2.207,1.199,2.239,1.831H51.726z"/>
	<path d="M54.311,88.821h-0.704v-4.182h0.664v0.695h0.016c0.28-0.487,0.647-0.815,1.175-0.815c0.088,0,0.128,0.008,0.184,0.024
		v0.728h-0.264c-0.656,0-1.071,0.512-1.071,1.119V88.821z"/>
	<path d="M58.63,86.046c-0.088-0.56-0.4-0.896-0.991-0.896c-0.872,0-1.151,0.832-1.151,1.575c0,0.72,0.176,1.607,1.143,1.607
		c0.472,0,0.879-0.352,1-0.991h0.68c-0.072,0.664-0.48,1.599-1.703,1.599c-1.175,0-1.871-0.888-1.871-2.095
		c0-1.295,0.624-2.327,2.007-2.327c1.096,0,1.511,0.8,1.567,1.527H58.63z"/>
</g>
<g>
	<path d="M93.269,84.759c-0.04-0.888-0.775-1.167-1.423-1.167c-0.488,0-1.311,0.136-1.311,1.007c0,0.488,0.344,0.647,0.68,0.728
		l1.639,0.376c0.744,0.176,1.304,0.624,1.304,1.535c0,1.359-1.264,1.735-2.247,1.735c-1.063,0-1.479-0.32-1.735-0.552
		c-0.488-0.439-0.584-0.919-0.584-1.455h0.728c0,1.04,0.847,1.343,1.583,1.343c0.56,0,1.503-0.144,1.503-0.967
		c0-0.6-0.28-0.792-1.223-1.016l-1.175-0.272c-0.376-0.088-1.224-0.352-1.224-1.351c0-0.896,0.584-1.775,1.975-1.775
		c2.007,0,2.207,1.199,2.239,1.831H93.269z"/>
	<path d="M95.854,88.821H95.15v-4.182h0.664v0.695h0.016c0.28-0.487,0.647-0.815,1.175-0.815c0.088,0,0.128,0.008,0.184,0.024v0.728
		h-0.264c-0.656,0-1.071,0.512-1.071,1.119V88.821z"/>
	<path d="M100.173,86.046c-0.088-0.56-0.4-0.896-0.991-0.896c-0.872,0-1.151,0.832-1.151,1.575c0,0.72,0.176,1.607,1.143,1.607
		c0.472,0,0.879-0.352,1-0.991h0.68c-0.072,0.664-0.48,1.599-1.703,1.599c-1.175,0-1.871-0.888-1.871-2.095
		c0-1.295,0.624-2.327,2.007-2.327c1.096,0,1.511,0.8,1.567,1.527H100.173z"/>
	<path d="M103.085,84.783h0.583v1.727h1.727v0.583h-1.727v1.727h-0.583v-1.727h-1.735V86.51h1.735V84.783z"/>
	<path d="M108.582,88.821h-0.752v-3.99h-1.311v-0.56c0.912-0.064,1.287-0.152,1.511-1.072h0.552V88.821z"/>
</g>
<g>
	<path d="M29.476,113.651l4.632-2.326v4.63L29.476,113.651z"/>
	<line class="st1" x1="30.52" y1="113.7" x2="51.079" y2="113.7"/>
</g>
<g>
	<path d="M59.406,113.016c0.09,0.006,0.186,0.012,0.276,0.012c0.408,0,0.804-0.162,0.804-0.689c0-0.252-0.15-0.666-0.78-0.666
		c-0.75,0-0.797,0.611-0.821,0.905h-0.516c0-0.618,0.252-1.379,1.361-1.379c0.815,0,1.301,0.468,1.301,1.109
		c0,0.54-0.312,0.798-0.54,0.87v0.012c0.408,0.132,0.702,0.419,0.702,0.983c0,0.689-0.444,1.355-1.517,1.355
		c-0.312,0-0.576-0.078-0.78-0.186c-0.468-0.246-0.594-0.732-0.629-1.217h0.545c0.018,0.396,0.114,0.929,0.899,0.929
		c0.54,0,0.917-0.33,0.917-0.815c0-0.708-0.624-0.773-0.983-0.773c-0.078,0-0.162,0.006-0.24,0.006V113.016z"/>
	<path d="M61.662,112.71c0-1.373,1.001-1.511,1.458-1.511c0.731,0,1.319,0.474,1.319,1.259c0,0.756-0.498,1.074-1.127,1.409
		l-0.438,0.24c-0.576,0.318-0.702,0.647-0.726,0.81h2.291v0.498h-2.885c0.03-0.875,0.426-1.343,0.99-1.673l0.558-0.324
		c0.45-0.258,0.773-0.432,0.773-0.983c0-0.336-0.216-0.761-0.833-0.761c-0.797,0-0.833,0.743-0.852,1.037H61.662z"/>
	<path d="M65.082,115.415v-4.306h0.528v1.565h0.012c0.228-0.33,0.54-0.479,0.905-0.485c0.833,0,1.307,0.684,1.307,1.565
		c0,0.75-0.312,1.751-1.379,1.751c-0.534,0-0.756-0.306-0.864-0.479H65.58v0.39H65.082z M66.432,112.662
		c-0.762,0-0.846,0.821-0.846,1.331c0,0.833,0.521,1.056,0.857,1.056c0.576,0,0.846-0.522,0.846-1.211
		C67.289,113.436,67.247,112.662,66.432,112.662z"/>
	<path d="M68.472,111.709v-0.6H69v0.6H68.472z M69,115.415h-0.528v-3.136H69V115.415z"/>
	<path d="M70.44,112.716v2.039c0,0.246,0.209,0.246,0.318,0.246h0.186v0.414c-0.192,0.018-0.342,0.042-0.396,0.042
		c-0.522,0-0.636-0.294-0.636-0.672v-2.069h-0.426v-0.438h0.426v-0.875h0.528v0.875h0.503v0.438H70.44z"/>
	<path d="M72.857,111.019c-0.51,0.959-0.815,1.535-0.815,2.974c0,0.99,0.342,1.721,0.821,2.663H72.51
		c-0.624-0.936-1.032-1.685-1.032-2.806c0-1.056,0.366-1.907,1.014-2.831H72.857z"/>
	<path d="M73.332,112.71c0-1.373,1.001-1.511,1.458-1.511c0.731,0,1.319,0.474,1.319,1.259c0,0.756-0.498,1.074-1.127,1.409
		l-0.438,0.24c-0.576,0.318-0.702,0.647-0.726,0.81h2.291v0.498h-2.885c0.03-0.875,0.426-1.343,0.99-1.673l0.558-0.324
		c0.45-0.258,0.773-0.432,0.773-0.983c0-0.336-0.216-0.761-0.833-0.761c-0.797,0-0.833,0.743-0.852,1.037H73.332z"/>
	<path d="M77.939,115.415h-0.546l-0.905-3.136h0.576l0.6,2.465h0.012l0.605-2.465h0.588l0.611,2.465h0.012l0.636-2.465h0.527
		l-0.911,3.136h-0.546l-0.636-2.429h-0.012L77.939,115.415z"/>
	<path d="M82.343,112.189c1.001,0,1.458,0.845,1.458,1.655s-0.456,1.655-1.458,1.655s-1.457-0.846-1.457-1.655
		S81.342,112.189,82.343,112.189z M82.343,115.043c0.756,0,0.912-0.78,0.912-1.2c0-0.419-0.156-1.199-0.912-1.199
		c-0.755,0-0.912,0.78-0.912,1.199C81.432,114.264,81.588,115.043,82.343,115.043z"/>
	<path d="M85.001,115.415h-0.527v-3.136h0.498v0.521h0.012c0.209-0.366,0.485-0.611,0.881-0.611c0.066,0,0.096,0.006,0.138,0.018
		v0.545h-0.198c-0.492,0-0.804,0.384-0.804,0.84V115.415z"/>
	<path d="M88.882,115.415h-0.498v-0.432h-0.012c-0.228,0.426-0.587,0.521-0.893,0.521c-1.068,0-1.379-1.001-1.379-1.751
		c0-0.881,0.474-1.565,1.307-1.565c0.57,0,0.81,0.354,0.936,0.534l0.012-0.042v-1.571h0.527V115.415z M87.491,115.049
		c0.336,0,0.857-0.222,0.857-1.056c0-0.51-0.084-1.331-0.845-1.331c-0.816,0-0.858,0.773-0.858,1.175
		C86.646,114.527,86.916,115.049,87.491,115.049z"/>
	<path d="M91.397,113.172c-0.006-0.198-0.078-0.528-0.744-0.528c-0.162,0-0.624,0.054-0.624,0.444c0,0.258,0.162,0.318,0.569,0.42
		l0.528,0.132c0.654,0.162,0.881,0.402,0.881,0.828c0,0.647-0.534,1.037-1.241,1.037c-1.241,0-1.331-0.72-1.349-1.097h0.51
		c0.018,0.246,0.09,0.642,0.833,0.642c0.378,0,0.72-0.15,0.72-0.498c0-0.251-0.174-0.335-0.624-0.45l-0.611-0.15
		c-0.438-0.108-0.726-0.33-0.726-0.761c0-0.69,0.569-1.001,1.187-1.001c1.122,0,1.2,0.827,1.2,0.983H91.397z"/>
	<path d="M92.437,116.656c0.51-0.959,0.815-1.535,0.815-2.974c0-0.99-0.342-1.721-0.821-2.663h0.354
		c0.624,0.936,1.032,1.685,1.032,2.806c0,1.056-0.366,1.907-1.014,2.831H92.437z"/>
</g>
<line class="st6" x1="30.264" y1="118.534" x2="30.264" y2="110.184"/>
<line class="st6" x1="122.105" y1="118.534" x2="122.105" y2="110.184"/>
<g>
	<path d="M122.224,113.778l-4.631,2.327v-4.631L122.224,113.778z"/>
	<line class="st1" x1="121.179" y1="113.732" x2="101.289" y2="113.732"/>
</g>
<rect x="260.092" y="58.213" class="st1" width="92.371" height="84.685"/>
<g>
	<path d="M289.617,70.32h-0.847v-4.492h-1.477v-0.63c1.026-0.072,1.449-0.171,1.701-1.207h0.622V70.32z"/>
	<path d="M291.426,66.26c0-2.062,1.503-2.269,2.188-2.269c1.098,0,1.98,0.711,1.98,1.891c0,1.134-0.747,1.612-1.692,2.116
		l-0.657,0.36c-0.864,0.477-1.054,0.972-1.09,1.215h3.439v0.747h-4.33c0.045-1.314,0.639-2.017,1.485-2.512l0.837-0.486
		c0.676-0.387,1.161-0.648,1.161-1.476c0-0.504-0.324-1.144-1.251-1.144c-1.197,0-1.251,1.116-1.278,1.558H291.426z"/>
	<path d="M298.05,66.719c0.135,0.009,0.279,0.018,0.414,0.018c0.612,0,1.206-0.243,1.206-1.035c0-0.378-0.225-1-1.17-1
		c-1.125,0-1.197,0.918-1.233,1.359h-0.774c0-0.927,0.378-2.071,2.044-2.071c1.225,0,1.953,0.703,1.953,1.666
		c0,0.811-0.468,1.198-0.81,1.306v0.018c0.611,0.198,1.053,0.63,1.053,1.476c0,1.036-0.666,2.035-2.277,2.035
		c-0.469,0-0.864-0.117-1.171-0.279c-0.702-0.369-0.891-1.099-0.945-1.828h0.819c0.027,0.594,0.172,1.396,1.351,1.396
		c0.811,0,1.378-0.495,1.378-1.225c0-1.062-0.937-1.161-1.477-1.161c-0.117,0-0.243,0.009-0.36,0.009V66.719z"/>
	<path d="M304.818,68.78v1.54h-0.792v-1.54h-2.765v-0.774l2.899-4.016h0.657v4.105h0.927v0.684H304.818z M301.991,68.096h2.035
		v-2.872h-0.019L301.991,68.096z"/>
	<path d="M307.364,66.638c0.271-0.207,0.657-0.396,1.225-0.396c1.026,0,2.079,0.72,2.079,2.025c0,0.702-0.314,2.224-2.295,2.224
		c-0.828,0-1.891-0.333-2.044-1.747h0.819c0.081,0.738,0.63,1.062,1.342,1.062c0.818,0,1.332-0.657,1.332-1.449
		c0-0.91-0.621-1.405-1.404-1.405c-0.459,0-0.873,0.216-1.171,0.604l-0.684-0.036l0.477-3.394h3.277V64.9h-2.683L307.364,66.638z"/>
	<path d="M314.799,65.674c-0.099-0.558-0.405-0.972-1.089-0.972c-1.242,0-1.504,1.674-1.504,2.341l0.019,0.018
		c0.197-0.342,0.639-0.774,1.503-0.774c0.774,0,1.98,0.495,1.98,2.008c0,0.648-0.171,1.116-0.603,1.584
		c-0.333,0.369-0.712,0.612-1.603,0.612c-0.486,0-1.18-0.216-1.63-0.918c-0.378-0.594-0.486-1.369-0.486-2.197
		c0-1.386,0.45-3.385,2.341-3.385c0.729,0,1.765,0.396,1.846,1.684H314.799z M313.646,69.78c0.757,0,1.242-0.594,1.242-1.45
		c0-0.558-0.297-1.332-1.278-1.332c-0.873,0-1.296,0.63-1.296,1.377C312.314,69.05,312.72,69.78,313.646,69.78z"/>
	<path d="M316.382,64.126h4.375v0.693c-0.63,0.657-2.143,2.674-2.602,5.5h-0.873c0.216-1.737,1.368-4.006,2.584-5.419h-3.484V64.126
		z"/>
	<path d="M324.672,66.953c0.855,0.36,1.035,1.062,1.035,1.54c0,1.018-0.648,1.999-2.143,1.999c-0.352,0-1.018-0.09-1.521-0.486
		c-0.648-0.513-0.648-1.198-0.648-1.503c0-0.774,0.405-1.27,1.071-1.54c-0.54-0.207-0.854-0.639-0.854-1.233
		c0-0.657,0.404-1.738,1.917-1.738c1.404,0,1.954,0.892,1.954,1.63C325.482,66.53,324.951,66.808,324.672,66.953z M322.241,68.519
		c0,0.504,0.252,1.261,1.351,1.261c0.576,0,1.27-0.207,1.27-1.197c0-0.855-0.595-1.233-1.314-1.233
		C322.655,67.349,322.241,67.934,322.241,68.519z M324.663,65.647c0-0.387-0.252-0.945-1.18-0.945c-0.847,0-1.054,0.585-1.054,0.99
		c0,0.603,0.531,0.972,1.107,0.972C324.222,66.664,324.663,66.224,324.663,65.647z"/>
	<path d="M289.617,87.195h-0.847v-4.492h-1.477v-0.63c1.026-0.072,1.449-0.171,1.701-1.207h0.622V87.195z"/>
	<path d="M291.426,83.135c0-2.062,1.503-2.269,2.188-2.269c1.098,0,1.98,0.711,1.98,1.891c0,1.134-0.747,1.612-1.692,2.116
		l-0.657,0.36c-0.864,0.477-1.054,0.972-1.09,1.215h3.439v0.747h-4.33c0.045-1.314,0.639-2.017,1.485-2.512l0.837-0.486
		c0.676-0.387,1.161-0.648,1.161-1.476c0-0.504-0.324-1.144-1.251-1.144c-1.197,0-1.251,1.116-1.278,1.558H291.426z"/>
	<path d="M298.05,83.594c0.135,0.009,0.279,0.018,0.414,0.018c0.612,0,1.206-0.243,1.206-1.035c0-0.378-0.225-1-1.17-1
		c-1.125,0-1.197,0.918-1.233,1.359h-0.774c0-0.927,0.378-2.071,2.044-2.071c1.225,0,1.953,0.703,1.953,1.666
		c0,0.811-0.468,1.198-0.81,1.306v0.018c0.611,0.198,1.053,0.63,1.053,1.476c0,1.036-0.666,2.035-2.277,2.035
		c-0.469,0-0.864-0.117-1.171-0.279c-0.702-0.369-0.891-1.099-0.945-1.828h0.819c0.027,0.594,0.172,1.396,1.351,1.396
		c0.811,0,1.378-0.495,1.378-1.225c0-1.062-0.937-1.161-1.477-1.161c-0.117,0-0.243,0.009-0.36,0.009V83.594z"/>
	<path d="M304.818,85.655v1.54h-0.792v-1.54h-2.765v-0.774l2.899-4.016h0.657v4.105h0.927v0.684H304.818z M301.991,84.971h2.035
		v-2.872h-0.019L301.991,84.971z"/>
	<path d="M307.364,83.513c0.271-0.207,0.657-0.396,1.225-0.396c1.026,0,2.079,0.72,2.079,2.025c0,0.702-0.314,2.224-2.295,2.224
		c-0.828,0-1.891-0.333-2.044-1.747h0.819c0.081,0.738,0.63,1.062,1.342,1.062c0.818,0,1.332-0.657,1.332-1.449
		c0-0.91-0.621-1.405-1.404-1.405c-0.459,0-0.873,0.216-1.171,0.604l-0.684-0.036l0.477-3.394h3.277v0.774h-2.683L307.364,83.513z"
		/>
	<path d="M314.799,82.549c-0.099-0.558-0.405-0.972-1.089-0.972c-1.242,0-1.504,1.674-1.504,2.341l0.019,0.018
		c0.197-0.342,0.639-0.774,1.503-0.774c0.774,0,1.98,0.495,1.98,2.008c0,0.648-0.171,1.116-0.603,1.584
		c-0.333,0.369-0.712,0.612-1.603,0.612c-0.486,0-1.18-0.216-1.63-0.918c-0.378-0.594-0.486-1.369-0.486-2.197
		c0-1.386,0.45-3.385,2.341-3.385c0.729,0,1.765,0.396,1.846,1.684H314.799z M313.646,86.655c0.757,0,1.242-0.594,1.242-1.45
		c0-0.558-0.297-1.332-1.278-1.332c-0.873,0-1.296,0.63-1.296,1.377C312.314,85.925,312.72,86.655,313.646,86.655z"/>
	<path d="M316.382,81.001h4.375v0.693c-0.63,0.657-2.143,2.674-2.602,5.5h-0.873c0.216-1.737,1.368-4.006,2.584-5.419h-3.484V81.001
		z"/>
	<path d="M324.672,83.828c0.855,0.36,1.035,1.062,1.035,1.54c0,1.018-0.648,1.999-2.143,1.999c-0.352,0-1.018-0.09-1.521-0.486
		c-0.648-0.513-0.648-1.198-0.648-1.503c0-0.774,0.405-1.27,1.071-1.54c-0.54-0.207-0.854-0.639-0.854-1.233
		c0-0.657,0.404-1.738,1.917-1.738c1.404,0,1.954,0.892,1.954,1.63C325.482,83.405,324.951,83.683,324.672,83.828z M322.241,85.394
		c0,0.504,0.252,1.261,1.351,1.261c0.576,0,1.27-0.207,1.27-1.197c0-0.855-0.595-1.233-1.314-1.233
		C322.655,84.224,322.241,84.809,322.241,85.394z M324.663,82.522c0-0.387-0.252-0.945-1.18-0.945c-0.847,0-1.054,0.585-1.054,0.99
		c0,0.603,0.531,0.972,1.107,0.972C324.222,83.539,324.663,83.099,324.663,82.522z"/>
	<path d="M289.617,104.07h-0.847v-4.492h-1.477v-0.63c1.026-0.072,1.449-0.171,1.701-1.207h0.622V104.07z"/>
	<path d="M291.426,100.01c0-2.062,1.503-2.269,2.188-2.269c1.098,0,1.98,0.711,1.98,1.891c0,1.134-0.747,1.612-1.692,2.116
		l-0.657,0.36c-0.864,0.477-1.054,0.972-1.09,1.215h3.439v0.747h-4.33c0.045-1.314,0.639-2.017,1.485-2.512l0.837-0.486
		c0.676-0.387,1.161-0.648,1.161-1.476c0-0.504-0.324-1.144-1.251-1.144c-1.197,0-1.251,1.116-1.278,1.558H291.426z"/>
	<path d="M298.05,100.469c0.135,0.009,0.279,0.018,0.414,0.018c0.612,0,1.206-0.243,1.206-1.035c0-0.378-0.225-1-1.17-1
		c-1.125,0-1.197,0.918-1.233,1.359h-0.774c0-0.927,0.378-2.071,2.044-2.071c1.225,0,1.953,0.703,1.953,1.666
		c0,0.811-0.468,1.198-0.81,1.306v0.018c0.611,0.198,1.053,0.63,1.053,1.476c0,1.036-0.666,2.035-2.277,2.035
		c-0.469,0-0.864-0.117-1.171-0.279c-0.702-0.369-0.891-1.099-0.945-1.828h0.819c0.027,0.594,0.172,1.396,1.351,1.396
		c0.811,0,1.378-0.495,1.378-1.225c0-1.062-0.937-1.161-1.477-1.161c-0.117,0-0.243,0.009-0.36,0.009V100.469z"/>
	<path d="M304.818,102.53v1.54h-0.792v-1.54h-2.765v-0.774l2.899-4.016h0.657v4.105h0.927v0.684H304.818z M301.991,101.846h2.035
		v-2.872h-0.019L301.991,101.846z"/>
	<path d="M307.364,100.388c0.271-0.207,0.657-0.396,1.225-0.396c1.026,0,2.079,0.72,2.079,2.025c0,0.702-0.314,2.224-2.295,2.224
		c-0.828,0-1.891-0.333-2.044-1.747h0.819c0.081,0.738,0.63,1.062,1.342,1.062c0.818,0,1.332-0.657,1.332-1.449
		c0-0.91-0.621-1.405-1.404-1.405c-0.459,0-0.873,0.216-1.171,0.604l-0.684-0.036l0.477-3.394h3.277v0.774h-2.683L307.364,100.388z"
		/>
	<path d="M314.799,99.424c-0.099-0.558-0.405-0.972-1.089-0.972c-1.242,0-1.504,1.674-1.504,2.341l0.019,0.018
		c0.197-0.342,0.639-0.774,1.503-0.774c0.774,0,1.98,0.495,1.98,2.008c0,0.648-0.171,1.116-0.603,1.584
		c-0.333,0.369-0.712,0.612-1.603,0.612c-0.486,0-1.18-0.216-1.63-0.918c-0.378-0.594-0.486-1.369-0.486-2.197
		c0-1.386,0.45-3.385,2.341-3.385c0.729,0,1.765,0.396,1.846,1.684H314.799z M313.646,103.53c0.757,0,1.242-0.594,1.242-1.45
		c0-0.558-0.297-1.332-1.278-1.332c-0.873,0-1.296,0.63-1.296,1.377C312.314,102.8,312.72,103.53,313.646,103.53z"/>
	<path d="M316.382,97.876h4.375v0.693c-0.63,0.657-2.143,2.674-2.602,5.5h-0.873c0.216-1.737,1.368-4.006,2.584-5.419h-3.484V97.876
		z"/>
	<path d="M324.672,100.703c0.855,0.36,1.035,1.062,1.035,1.54c0,1.018-0.648,1.999-2.143,1.999c-0.352,0-1.018-0.09-1.521-0.486
		c-0.648-0.513-0.648-1.198-0.648-1.503c0-0.774,0.405-1.27,1.071-1.54c-0.54-0.207-0.854-0.639-0.854-1.233
		c0-0.657,0.404-1.738,1.917-1.738c1.404,0,1.954,0.892,1.954,1.63C325.482,100.28,324.951,100.558,324.672,100.703z
		 M322.241,102.269c0,0.504,0.252,1.261,1.351,1.261c0.576,0,1.27-0.207,1.27-1.197c0-0.855-0.595-1.233-1.314-1.233
		C322.655,101.099,322.241,101.684,322.241,102.269z M324.663,99.397c0-0.387-0.252-0.945-1.18-0.945
		c-0.847,0-1.054,0.585-1.054,0.99c0,0.603,0.531,0.972,1.107,0.972C324.222,100.414,324.663,99.974,324.663,99.397z"/>
	<path d="M289.617,120.945h-0.847v-4.492h-1.477v-0.63c1.026-0.072,1.449-0.171,1.701-1.207h0.622V120.945z"/>
	<path d="M291.426,116.885c0-2.062,1.503-2.269,2.188-2.269c1.098,0,1.98,0.711,1.98,1.891c0,1.134-0.747,1.612-1.692,2.116
		l-0.657,0.36c-0.864,0.477-1.054,0.972-1.09,1.215h3.439v0.747h-4.33c0.045-1.314,0.639-2.017,1.485-2.512l0.837-0.486
		c0.676-0.387,1.161-0.648,1.161-1.476c0-0.504-0.324-1.144-1.251-1.144c-1.197,0-1.251,1.116-1.278,1.558H291.426z"/>
	<path d="M298.05,117.344c0.135,0.009,0.279,0.018,0.414,0.018c0.612,0,1.206-0.243,1.206-1.035c0-0.378-0.225-1-1.17-1
		c-1.125,0-1.197,0.918-1.233,1.359h-0.774c0-0.927,0.378-2.071,2.044-2.071c1.225,0,1.953,0.703,1.953,1.666
		c0,0.811-0.468,1.198-0.81,1.306v0.018c0.611,0.198,1.053,0.63,1.053,1.476c0,1.036-0.666,2.035-2.277,2.035
		c-0.469,0-0.864-0.117-1.171-0.279c-0.702-0.369-0.891-1.099-0.945-1.828h0.819c0.027,0.594,0.172,1.396,1.351,1.396
		c0.811,0,1.378-0.495,1.378-1.225c0-1.062-0.937-1.161-1.477-1.161c-0.117,0-0.243,0.009-0.36,0.009V117.344z"/>
	<path d="M304.818,119.405v1.54h-0.792v-1.54h-2.765v-0.774l2.899-4.016h0.657v4.105h0.927v0.684H304.818z M301.991,118.721h2.035
		v-2.872h-0.019L301.991,118.721z"/>
	<path d="M307.364,117.263c0.271-0.207,0.657-0.396,1.225-0.396c1.026,0,2.079,0.72,2.079,2.025c0,0.702-0.314,2.224-2.295,2.224
		c-0.828,0-1.891-0.333-2.044-1.747h0.819c0.081,0.738,0.63,1.062,1.342,1.062c0.818,0,1.332-0.657,1.332-1.449
		c0-0.91-0.621-1.405-1.404-1.405c-0.459,0-0.873,0.216-1.171,0.604l-0.684-0.036l0.477-3.394h3.277v0.774h-2.683L307.364,117.263z"
		/>
	<path d="M314.799,116.299c-0.099-0.558-0.405-0.972-1.089-0.972c-1.242,0-1.504,1.674-1.504,2.341l0.019,0.018
		c0.197-0.342,0.639-0.774,1.503-0.774c0.774,0,1.98,0.495,1.98,2.008c0,0.648-0.171,1.116-0.603,1.584
		c-0.333,0.369-0.712,0.612-1.603,0.612c-0.486,0-1.18-0.216-1.63-0.918c-0.378-0.594-0.486-1.369-0.486-2.197
		c0-1.386,0.45-3.385,2.341-3.385c0.729,0,1.765,0.396,1.846,1.684H314.799z M313.646,120.405c0.757,0,1.242-0.594,1.242-1.45
		c0-0.558-0.297-1.332-1.278-1.332c-0.873,0-1.296,0.63-1.296,1.377C312.314,119.675,312.72,120.405,313.646,120.405z"/>
	<path d="M316.382,114.751h4.375v0.693c-0.63,0.657-2.143,2.674-2.602,5.5h-0.873c0.216-1.737,1.368-4.006,2.584-5.419h-3.484
		V114.751z"/>
	<path d="M324.672,117.578c0.855,0.36,1.035,1.062,1.035,1.54c0,1.018-0.648,1.999-2.143,1.999c-0.352,0-1.018-0.09-1.521-0.486
		c-0.648-0.513-0.648-1.198-0.648-1.503c0-0.774,0.405-1.27,1.071-1.54c-0.54-0.207-0.854-0.639-0.854-1.233
		c0-0.657,0.404-1.738,1.917-1.738c1.404,0,1.954,0.892,1.954,1.63C325.482,117.155,324.951,117.433,324.672,117.578z
		 M322.241,119.144c0,0.504,0.252,1.261,1.351,1.261c0.576,0,1.27-0.207,1.27-1.197c0-0.855-0.595-1.233-1.314-1.233
		C322.655,117.974,322.241,118.559,322.241,119.144z M324.663,116.272c0-0.387-0.252-0.945-1.18-0.945
		c-0.847,0-1.054,0.585-1.054,0.99c0,0.603,0.531,0.972,1.107,0.972C324.222,117.289,324.663,116.849,324.663,116.272z"/>
	<path d="M289.617,137.82h-0.847v-4.492h-1.477v-0.63c1.026-0.072,1.449-0.172,1.701-1.207h0.622V137.82z"/>
	<path d="M291.426,133.759c0-2.062,1.503-2.269,2.188-2.269c1.098,0,1.98,0.711,1.98,1.891c0,1.135-0.747,1.611-1.692,2.116
		l-0.657,0.359c-0.864,0.478-1.054,0.973-1.09,1.216h3.439v0.747h-4.33c0.045-1.314,0.639-2.017,1.485-2.512l0.837-0.486
		c0.676-0.387,1.161-0.648,1.161-1.477c0-0.504-0.324-1.144-1.251-1.144c-1.197,0-1.251,1.117-1.278,1.558H291.426z"/>
	<path d="M298.05,134.219c0.135,0.009,0.279,0.018,0.414,0.018c0.612,0,1.206-0.243,1.206-1.035c0-0.378-0.225-1-1.17-1
		c-1.125,0-1.197,0.919-1.233,1.36h-0.774c0-0.928,0.378-2.071,2.044-2.071c1.225,0,1.953,0.702,1.953,1.666
		c0,0.81-0.468,1.197-0.81,1.305v0.019c0.611,0.198,1.053,0.63,1.053,1.477c0,1.035-0.666,2.034-2.277,2.034
		c-0.469,0-0.864-0.117-1.171-0.279c-0.702-0.369-0.891-1.098-0.945-1.827h0.819c0.027,0.594,0.172,1.396,1.351,1.396
		c0.811,0,1.378-0.495,1.378-1.225c0-1.062-0.937-1.161-1.477-1.161c-0.117,0-0.243,0.009-0.36,0.009V134.219z"/>
	<path d="M304.818,136.281v1.539h-0.792v-1.539h-2.765v-0.774l2.899-4.016h0.657v4.105h0.927v0.685H304.818z M301.991,135.596h2.035
		v-2.872h-0.019L301.991,135.596z"/>
	<path d="M307.364,134.138c0.271-0.208,0.657-0.396,1.225-0.396c1.026,0,2.079,0.72,2.079,2.025c0,0.702-0.314,2.224-2.295,2.224
		c-0.828,0-1.891-0.333-2.044-1.746h0.819c0.081,0.738,0.63,1.062,1.342,1.062c0.818,0,1.332-0.657,1.332-1.45
		c0-0.909-0.621-1.404-1.404-1.404c-0.459,0-0.873,0.216-1.171,0.604l-0.684-0.036l0.477-3.395h3.277v0.774h-2.683L307.364,134.138z
		"/>
	<path d="M314.799,133.174c-0.099-0.558-0.405-0.973-1.089-0.973c-1.242,0-1.504,1.675-1.504,2.341l0.019,0.019
		c0.197-0.342,0.639-0.774,1.503-0.774c0.774,0,1.98,0.495,1.98,2.008c0,0.648-0.171,1.116-0.603,1.584
		c-0.333,0.369-0.712,0.612-1.603,0.612c-0.486,0-1.18-0.216-1.63-0.918c-0.378-0.595-0.486-1.368-0.486-2.197
		c0-1.386,0.45-3.385,2.341-3.385c0.729,0,1.765,0.396,1.846,1.684H314.799z M313.646,137.28c0.757,0,1.242-0.595,1.242-1.449
		c0-0.559-0.297-1.333-1.278-1.333c-0.873,0-1.296,0.631-1.296,1.378C312.314,136.55,312.72,137.28,313.646,137.28z"/>
	<path d="M316.382,131.625h4.375v0.693c-0.63,0.657-2.143,2.674-2.602,5.501h-0.873c0.216-1.737,1.368-4.006,2.584-5.42h-3.484
		V131.625z"/>
	<path d="M324.672,134.453c0.855,0.36,1.035,1.062,1.035,1.54c0,1.017-0.648,1.998-2.143,1.998c-0.352,0-1.018-0.09-1.521-0.486
		c-0.648-0.513-0.648-1.197-0.648-1.503c0-0.774,0.405-1.27,1.071-1.54c-0.54-0.207-0.854-0.639-0.854-1.233
		c0-0.657,0.404-1.737,1.917-1.737c1.404,0,1.954,0.892,1.954,1.63C325.482,134.03,324.951,134.309,324.672,134.453z
		 M322.241,136.019c0,0.505,0.252,1.261,1.351,1.261c0.576,0,1.27-0.207,1.27-1.197c0-0.855-0.595-1.233-1.314-1.233
		C322.655,134.849,322.241,135.434,322.241,136.019z M324.663,133.147c0-0.387-0.252-0.945-1.18-0.945
		c-0.847,0-1.054,0.586-1.054,0.991c0,0.603,0.531,0.972,1.107,0.972C324.222,134.164,324.663,133.723,324.663,133.147z"/>
</g>
<g>
	<path d="M278.226,50.381h2.327c1.495,0,2.414,1.135,2.414,2.791c0,1.287-0.56,2.95-2.446,2.95h-2.295V50.381z M279.001,55.458
		h1.504c1.007,0,1.663-0.792,1.663-2.239s-0.664-2.175-1.72-2.175h-1.447V55.458z"/>
	<path d="M286.249,53.132c-0.008-0.264-0.104-0.704-0.991-0.704c-0.216,0-0.832,0.072-0.832,0.592c0,0.344,0.216,0.423,0.76,0.56
		l0.703,0.176c0.872,0.216,1.176,0.536,1.176,1.104c0,0.863-0.712,1.383-1.655,1.383c-1.655,0-1.774-0.959-1.799-1.463h0.68
		c0.023,0.328,0.12,0.855,1.111,0.855c0.504,0,0.959-0.2,0.959-0.664c0-0.336-0.231-0.448-0.831-0.6l-0.815-0.2
		c-0.584-0.144-0.968-0.44-0.968-1.016c0-0.919,0.76-1.335,1.583-1.335c1.495,0,1.6,1.104,1.6,1.312H286.249z"/>
	<path d="M288.737,52.524v2.719c0,0.328,0.28,0.328,0.424,0.328h0.248v0.552c-0.256,0.024-0.455,0.056-0.527,0.056
		c-0.695,0-0.848-0.392-0.848-0.896v-2.759h-0.567V51.94h0.567v-1.167h0.703v1.167h0.672v0.583H288.737z"/>
</g>
<g>
	<path d="M319.77,50.381h2.327c1.495,0,2.414,1.135,2.414,2.791c0,1.287-0.56,2.95-2.446,2.95h-2.295V50.381z M320.545,55.458h1.504
		c1.007,0,1.663-0.792,1.663-2.239s-0.664-2.175-1.72-2.175h-1.447V55.458z"/>
	<path d="M327.792,53.132c-0.008-0.264-0.104-0.704-0.991-0.704c-0.216,0-0.832,0.072-0.832,0.592c0,0.344,0.216,0.423,0.76,0.56
		l0.703,0.176c0.872,0.216,1.176,0.536,1.176,1.104c0,0.863-0.712,1.383-1.655,1.383c-1.655,0-1.774-0.959-1.799-1.463h0.68
		c0.023,0.328,0.12,0.855,1.111,0.855c0.504,0,0.959-0.2,0.959-0.664c0-0.336-0.231-0.448-0.831-0.6l-0.815-0.2
		c-0.584-0.144-0.968-0.44-0.968-1.016c0-0.919,0.76-1.335,1.583-1.335c1.495,0,1.6,1.104,1.6,1.312H327.792z"/>
	<path d="M330.28,52.524v2.719c0,0.328,0.28,0.328,0.424,0.328h0.248v0.552c-0.256,0.024-0.455,0.056-0.527,0.056
		c-0.695,0-0.848-0.392-0.848-0.896v-2.759h-0.567V51.94h0.567v-1.167h0.703v1.167h0.672v0.583H330.28z"/>
	<path d="M333.169,52.084h0.584v1.727h1.727v0.583h-1.727v1.727h-0.584v-1.727h-1.735v-0.583h1.735V52.084z"/>
	<path d="M338.664,56.122h-0.751v-3.99h-1.312v-0.56c0.911-0.064,1.287-0.152,1.511-1.072h0.552V56.122z"/>
</g>
<line class="st1" x1="260.092" y1="92.179" x2="352.132" y2="92.179"/>
<line class="st1" x1="260.092" y1="109.186" x2="352.132" y2="109.186"/>
<g>
	<path d="M259.479,148.072l4.633-2.324v4.629L259.479,148.072z"/>
	<line class="st1" x1="260.524" y1="148.121" x2="281.082" y2="148.121"/>
</g>
<g>
	<path d="M289.409,147.439c0.09,0.006,0.186,0.012,0.275,0.012c0.408,0,0.804-0.162,0.804-0.689c0-0.252-0.15-0.666-0.779-0.666
		c-0.75,0-0.798,0.612-0.822,0.905h-0.516c0-0.617,0.252-1.379,1.361-1.379c0.815,0,1.302,0.468,1.302,1.109
		c0,0.54-0.312,0.798-0.54,0.87v0.012c0.408,0.132,0.701,0.42,0.701,0.983c0,0.689-0.443,1.355-1.517,1.355
		c-0.312,0-0.576-0.078-0.779-0.187c-0.468-0.245-0.594-0.731-0.63-1.217h0.546c0.018,0.396,0.113,0.93,0.899,0.93
		c0.539,0,0.917-0.33,0.917-0.816c0-0.707-0.623-0.773-0.983-0.773c-0.078,0-0.162,0.006-0.239,0.006V147.439z"/>
	<path d="M291.665,147.133c0-1.374,1.002-1.512,1.457-1.512c0.732,0,1.319,0.474,1.319,1.26c0,0.755-0.497,1.073-1.127,1.409
		l-0.438,0.239c-0.576,0.318-0.702,0.648-0.726,0.81h2.29v0.498h-2.884c0.029-0.876,0.426-1.343,0.989-1.673l0.558-0.324
		c0.449-0.258,0.773-0.432,0.773-0.983c0-0.336-0.216-0.762-0.833-0.762c-0.798,0-0.834,0.744-0.852,1.038H291.665z"/>
	<path d="M295.085,149.837v-4.306h0.528v1.565h0.012c0.228-0.33,0.539-0.48,0.905-0.486c0.834,0,1.308,0.684,1.308,1.565
		c0,0.75-0.312,1.751-1.38,1.751c-0.533,0-0.755-0.306-0.863-0.479h-0.012v0.39H295.085z M296.435,147.084
		c-0.762,0-0.846,0.822-0.846,1.332c0,0.833,0.521,1.055,0.857,1.055c0.576,0,0.846-0.521,0.846-1.211
		C297.292,147.859,297.25,147.084,296.435,147.084z"/>
	<path d="M298.475,146.131v-0.6h0.528v0.6H298.475z M299.003,149.837h-0.528v-3.137h0.528V149.837z"/>
	<path d="M300.442,147.139v2.039c0,0.245,0.21,0.245,0.318,0.245h0.186v0.414c-0.191,0.018-0.342,0.042-0.396,0.042
		c-0.521,0-0.636-0.294-0.636-0.672v-2.068h-0.426v-0.438h0.426v-0.875h0.527v0.875h0.504v0.438H300.442z"/>
	<path d="M302.86,145.442c-0.51,0.959-0.815,1.535-0.815,2.975c0,0.989,0.342,1.721,0.821,2.662h-0.354
		c-0.624-0.936-1.031-1.685-1.031-2.807c0-1.055,0.365-1.906,1.013-2.83H302.86z"/>
	<path d="M303.335,147.133c0-1.374,1.002-1.512,1.457-1.512c0.732,0,1.319,0.474,1.319,1.26c0,0.755-0.497,1.073-1.127,1.409
		l-0.438,0.239c-0.576,0.318-0.702,0.648-0.726,0.81h2.29v0.498h-2.884c0.029-0.876,0.426-1.343,0.989-1.673l0.558-0.324
		c0.449-0.258,0.773-0.432,0.773-0.983c0-0.336-0.216-0.762-0.833-0.762c-0.798,0-0.834,0.744-0.852,1.038H303.335z"/>
	<path d="M307.942,149.837h-0.546l-0.905-3.137h0.575l0.601,2.465h0.012l0.605-2.465h0.588l0.611,2.465h0.012l0.636-2.465h0.528
		l-0.912,3.137h-0.545l-0.636-2.429h-0.013L307.942,149.837z"/>
	<path d="M312.347,146.611c1.002,0,1.457,0.846,1.457,1.655s-0.455,1.655-1.457,1.655c-1.001,0-1.457-0.846-1.457-1.655
		S311.346,146.611,312.347,146.611z M312.347,149.465c0.756,0,0.911-0.779,0.911-1.199s-0.155-1.199-0.911-1.199
		s-0.911,0.779-0.911,1.199S311.591,149.465,312.347,149.465z"/>
	<path d="M315.005,149.837h-0.527v-3.137h0.498v0.522h0.012c0.21-0.366,0.485-0.612,0.881-0.612c0.066,0,0.097,0.006,0.139,0.019
		v0.546h-0.198c-0.491,0-0.804,0.384-0.804,0.839V149.837z"/>
	<path d="M318.886,149.837h-0.498v-0.432h-0.012c-0.228,0.426-0.588,0.521-0.894,0.521c-1.067,0-1.379-1.001-1.379-1.751
		c0-0.882,0.474-1.565,1.308-1.565c0.569,0,0.81,0.354,0.936,0.534l0.012-0.042v-1.571h0.527V149.837z M317.495,149.471
		c0.335,0,0.857-0.222,0.857-1.055c0-0.51-0.084-1.332-0.846-1.332c-0.815,0-0.857,0.774-0.857,1.176
		C316.649,148.95,316.919,149.471,317.495,149.471z"/>
	<path d="M321.4,147.594c-0.006-0.197-0.078-0.527-0.744-0.527c-0.161,0-0.623,0.054-0.623,0.443c0,0.258,0.162,0.318,0.569,0.42
		l0.528,0.132c0.653,0.162,0.881,0.402,0.881,0.828c0,0.647-0.533,1.037-1.241,1.037c-1.241,0-1.331-0.72-1.35-1.098h0.51
		c0.019,0.246,0.091,0.642,0.834,0.642c0.378,0,0.72-0.149,0.72-0.497c0-0.252-0.174-0.336-0.624-0.45l-0.611-0.149
		c-0.438-0.108-0.726-0.33-0.726-0.762c0-0.689,0.569-1.002,1.188-1.002c1.121,0,1.199,0.828,1.199,0.983H321.4z"/>
	<path d="M322.439,151.079c0.51-0.959,0.815-1.535,0.815-2.975c0-0.989-0.342-1.721-0.821-2.662h0.354
		c0.624,0.936,1.031,1.685,1.031,2.807c0,1.055-0.365,1.906-1.013,2.83H322.439z"/>
</g>
<line class="st6" x1="260.268" y1="152.955" x2="260.268" y2="144.606"/>
<line class="st6" x1="352.108" y1="152.955" x2="352.108" y2="144.606"/>
<g>
	<path d="M352.227,148.199l-4.631,2.327v-4.631L352.227,148.199z"/>
	<line class="st1" x1="351.182" y1="148.153" x2="331.292" y2="148.153"/>
</g>
<line class="st1" x1="260.092" y1="75.303" x2="352.132" y2="75.303"/>
<g>
	<path d="M131.087,100.747h-0.832V99.9h0.832V100.747z M131.087,104.026h-0.832v-0.848h0.832V104.026z"/>
	<path d="M132.431,98.285h2.327c1.496,0,2.415,1.135,2.415,2.791c0,1.287-0.56,2.95-2.447,2.95h-2.295V98.285z M133.207,103.362
		h1.503c1.008,0,1.663-0.792,1.663-2.239s-0.664-2.175-1.719-2.175h-1.447V103.362z"/>
	<path d="M142.893,104.026v-3.39c0-0.168,0.016-0.896,0.016-1.431h-0.016l-1.615,4.821h-0.768l-1.615-4.813h-0.016
		c0,0.528,0.016,1.255,0.016,1.423v3.39h-0.752v-5.741h1.112l1.639,4.853h0.016l1.631-4.853h1.103v5.741H142.893z"/>
	<path d="M147.094,104.026h-0.752v-3.99h-1.311v-0.56c0.912-0.064,1.287-0.152,1.511-1.072h0.552V104.026z"/>
	<path d="M150.454,104.178c-1.615,0-1.927-1.719-1.927-2.886c0-1.167,0.312-2.887,1.927-2.887s1.927,1.719,1.927,2.887
		C152.381,102.458,152.069,104.178,150.454,104.178z M150.454,99.037c-0.808,0-1.175,0.848-1.175,2.255s0.368,2.255,1.175,2.255
		s1.176-0.848,1.176-2.255S151.262,99.037,150.454,99.037z"/>
	<path d="M154.902,104.178c-1.615,0-1.927-1.719-1.927-2.886c0-1.167,0.312-2.887,1.927-2.887s1.927,1.719,1.927,2.887
		C156.829,102.458,156.518,104.178,154.902,104.178z M154.902,99.037c-0.808,0-1.175,0.848-1.175,2.255s0.367,2.255,1.175,2.255
		s1.176-0.848,1.176-2.255S155.71,99.037,154.902,99.037z"/>
</g>
</svg>
