<?xml version="1.0" encoding="utf-8"?>
<!-- Generator: Adobe Illustrator 28.2.0, SVG Export Plug-In . SVG Version: 6.00 Build 0)  -->
<svg version="1.1" id="儗僀儎乕_1" xmlns="http://www.w3.org/2000/svg" xmlns:xlink="http://www.w3.org/1999/xlink" x="0px"
	 y="0px" width="265.956px" height="159.248px" viewBox="0 0 265.956 159.248" style="enable-background:new 0 0 265.956 159.248;"
	 xml:space="preserve">
<style type="text/css">
	.st0{fill:none;stroke:#000000;stroke-width:0.5;}
	.st1{fill:#FFFFFF;stroke:#000000;stroke-width:0.5;stroke-dasharray:1;}
	.st2{fill:none;stroke:#000000;stroke-width:0.5;stroke-dasharray:2;}
	.st3{fill:#FFFFFF;stroke:#000000;}
	.st4{fill:#FFFFFF;}
	.st5{fill:none;stroke:#000000;}
</style>
<rect x="36.696" y="92.486" class="st0" width="46.266" height="16.797"/>
<g>
	<path d="M65.758,104.593h-0.752v-3.99h-1.311v-0.56c0.912-0.064,1.287-0.152,1.511-1.072h0.552V104.593z"/>
	<path d="M67.367,100.987c0-1.831,1.335-2.015,1.943-2.015c0.975,0,1.759,0.632,1.759,1.679c0,1.007-0.664,1.431-1.503,1.879
		l-0.584,0.32c-0.768,0.424-0.936,0.864-0.967,1.08h3.054v0.664h-3.846c0.04-1.167,0.567-1.791,1.319-2.231l0.743-0.432
		c0.6-0.344,1.032-0.576,1.032-1.311c0-0.448-0.288-1.016-1.111-1.016c-1.063,0-1.111,0.991-1.135,1.383H67.367z"/>
	<path d="M73.255,101.395c0.12,0.008,0.248,0.016,0.368,0.016c0.544,0,1.072-0.216,1.072-0.919c0-0.336-0.2-0.888-1.04-0.888
		c-1,0-1.063,0.815-1.096,1.208h-0.688c0-0.824,0.336-1.839,1.815-1.839c1.087,0,1.735,0.624,1.735,1.479
		c0,0.72-0.416,1.063-0.72,1.159v0.016c0.543,0.176,0.936,0.56,0.936,1.311c0,0.92-0.592,1.807-2.023,1.807
		c-0.416,0-0.768-0.104-1.04-0.248c-0.624-0.328-0.792-0.976-0.839-1.624h0.728c0.024,0.528,0.152,1.24,1.199,1.24
		c0.72,0,1.223-0.44,1.223-1.088c0-0.943-0.831-1.031-1.311-1.031c-0.104,0-0.216,0.008-0.32,0.008V101.395z"/>
</g>
<g>
	<path d="M1.626,100.103h2.327c1.496,0,2.415,1.135,2.415,2.791c0,1.287-0.56,2.95-2.447,2.95H1.626V100.103z M2.402,105.18h1.503
		c1.008,0,1.663-0.792,1.663-2.239s-0.664-2.175-1.719-2.175H2.402V105.18z"/>
	<path d="M12.088,105.844v-3.39c0-0.168,0.016-0.896,0.016-1.431h-0.016l-1.615,4.821H9.705l-1.615-4.813H8.074
		c0,0.528,0.016,1.255,0.016,1.423v3.39H7.338v-5.741H8.45l1.639,4.853h0.016l1.631-4.853h1.103v5.741H12.088z"/>
	<path d="M16.289,105.844h-0.752v-3.99h-1.311v-0.56c0.912-0.064,1.287-0.152,1.511-1.072h0.552V105.844z"/>
	<path d="M19.649,105.996c-1.615,0-1.927-1.719-1.927-2.886c0-1.167,0.312-2.887,1.927-2.887s1.927,1.719,1.927,2.887
		C21.577,104.277,21.264,105.996,19.649,105.996z M19.649,100.855c-0.808,0-1.175,0.848-1.175,2.255s0.368,2.255,1.175,2.255
		s1.175-0.848,1.175-2.255S20.457,100.855,19.649,100.855z"/>
	<path d="M24.097,105.996c-1.615,0-1.927-1.719-1.927-2.886c0-1.167,0.312-2.887,1.927-2.887s1.927,1.719,1.927,2.887
		C26.025,104.277,25.713,105.996,24.097,105.996z M24.097,100.855c-0.808,0-1.175,0.848-1.175,2.255s0.368,2.255,1.175,2.255
		s1.175-0.848,1.175-2.255S24.905,100.855,24.097,100.855z"/>
	<path d="M27.85,102.566h-0.832v-0.848h0.832V102.566z M27.85,105.844h-0.832v-0.848h0.832V105.844z"/>
</g>
<g>
	<path d="M56.376,83.878c-0.04-0.887-0.776-1.167-1.423-1.167c-0.488,0-1.311,0.136-1.311,1.007c0,0.488,0.344,0.647,0.679,0.728
		l1.639,0.376c0.744,0.176,1.303,0.624,1.303,1.535c0,1.359-1.263,1.735-2.247,1.735c-1.063,0-1.479-0.32-1.735-0.552
		c-0.488-0.439-0.584-0.919-0.584-1.455h0.728c0,1.04,0.848,1.343,1.583,1.343c0.56,0,1.503-0.144,1.503-0.967
		c0-0.6-0.28-0.792-1.223-1.016l-1.175-0.272c-0.376-0.088-1.224-0.352-1.224-1.351c0-0.896,0.584-1.775,1.975-1.775
		c2.007,0,2.207,1.199,2.239,1.831H56.376z"/>
	<path d="M58.962,87.94h-0.704v-4.182h0.664v0.696h0.016c0.28-0.488,0.647-0.816,1.175-0.816c0.088,0,0.128,0.008,0.184,0.024v0.728
		h-0.264c-0.656,0-1.071,0.512-1.071,1.12V87.94z"/>
	<path d="M63.281,85.166c-0.088-0.56-0.4-0.896-0.992-0.896c-0.871,0-1.151,0.832-1.151,1.575c0,0.719,0.176,1.607,1.144,1.607
		c0.472,0,0.879-0.352,1-0.991h0.68c-0.072,0.664-0.48,1.599-1.703,1.599c-1.175,0-1.871-0.888-1.871-2.095
		c0-1.295,0.624-2.327,2.007-2.327c1.096,0,1.511,0.8,1.567,1.527H63.281z"/>
</g>
<g>
	<path d="M36.084,117.334l4.632-2.327v4.631L36.084,117.334z"/>
	<line class="st0" x1="37.128" y1="117.383" x2="48.932" y2="117.383"/>
</g>
<g>
	<path d="M54.853,116.303h-0.658v-3.495h-1.148v-0.49c0.798-0.056,1.127-0.133,1.324-0.938h0.483V116.303z"/>
	<path d="M58.871,112.69c-0.077-0.435-0.315-0.757-0.847-0.757c-0.967,0-1.17,1.303-1.17,1.821l0.014,0.014
		c0.154-0.266,0.497-0.603,1.169-0.603c0.603,0,1.541,0.385,1.541,1.562c0,0.504-0.133,0.868-0.469,1.232
		c-0.259,0.287-0.553,0.477-1.247,0.477c-0.378,0-0.917-0.168-1.268-0.715c-0.294-0.462-0.378-1.064-0.378-1.708
		c0-1.079,0.35-2.634,1.821-2.634c0.567,0,1.373,0.308,1.436,1.31H58.871z M57.974,115.883c0.588,0,0.967-0.462,0.967-1.127
		c0-0.434-0.231-1.037-0.995-1.037c-0.679,0-1.009,0.49-1.009,1.072C56.938,115.316,57.253,115.883,57.974,115.883z"/>
	<path d="M60.249,116.303v-5.029h0.616v1.828h0.014c0.266-0.385,0.63-0.561,1.058-0.567c0.974,0,1.527,0.798,1.527,1.828
		c0,0.875-0.364,2.045-1.611,2.045c-0.624,0-0.883-0.357-1.009-0.56H60.83v0.455H60.249z M61.825,113.089
		c-0.889,0-0.987,0.959-0.987,1.555c0,0.973,0.609,1.232,1.001,1.232c0.672,0,0.987-0.609,0.987-1.415
		C62.826,113.992,62.777,113.089,61.825,113.089z"/>
	<path d="M64.204,111.975v-0.701h0.616v0.701H64.204z M64.82,116.303h-0.616v-3.663h0.616V116.303z"/>
	<path d="M66.5,113.152v2.381c0,0.287,0.245,0.287,0.372,0.287h0.217v0.483c-0.224,0.021-0.399,0.049-0.462,0.049
		c-0.609,0-0.743-0.343-0.743-0.784v-2.417h-0.497v-0.511h0.497v-1.022H66.5v1.022h0.588v0.511H66.5z"/>
	<path d="M50.117,119.17c-0.595,1.121-0.952,1.793-0.952,3.474c0,1.155,0.399,2.01,0.959,3.109h-0.414
		c-0.728-1.092-1.205-1.968-1.205-3.278c0-1.232,0.427-2.227,1.184-3.306H50.117z"/>
	<path d="M52.875,124.303h-0.658v-3.495h-1.148v-0.49c0.798-0.056,1.127-0.133,1.324-0.938h0.483V124.303z"/>
	<path d="M56.046,124.303h-0.637l-1.058-3.663h0.672l0.7,2.878h0.014l0.708-2.878h0.686l0.714,2.878h0.014l0.742-2.878h0.617
		l-1.065,3.663h-0.637l-0.742-2.836h-0.014L56.046,124.303z"/>
	<path d="M61.184,120.535c1.169,0,1.702,0.988,1.702,1.933s-0.532,1.933-1.702,1.933c-1.17,0-1.702-0.988-1.702-1.933
		S60.014,120.535,61.184,120.535z M61.184,123.869c0.882,0,1.064-0.911,1.064-1.401s-0.182-1.401-1.064-1.401
		c-0.883,0-1.065,0.911-1.065,1.401S60.302,123.869,61.184,123.869z"/>
	<path d="M64.285,124.303h-0.617v-3.663h0.582v0.609h0.014c0.245-0.427,0.567-0.714,1.029-0.714c0.077,0,0.112,0.007,0.161,0.021
		v0.637h-0.231c-0.574,0-0.938,0.448-0.938,0.98V124.303z"/>
	<path d="M68.815,124.303h-0.582v-0.504H68.22c-0.266,0.498-0.686,0.609-1.043,0.609c-1.247,0-1.611-1.169-1.611-2.045
		c0-1.03,0.553-1.828,1.527-1.828c0.666,0,0.945,0.413,1.093,0.624l0.014-0.049v-1.835h0.617V124.303z M67.19,123.876
		c0.392,0,1.001-0.259,1.001-1.232c0-0.596-0.098-1.555-0.988-1.555c-0.952,0-1.001,0.904-1.001,1.373
		C66.202,123.267,66.518,123.876,67.19,123.876z"/>
	<path d="M69.457,125.753c0.595-1.121,0.953-1.793,0.953-3.474c0-1.156-0.399-2.01-0.959-3.11h0.413
		c0.729,1.093,1.205,1.968,1.205,3.278c0,1.232-0.427,2.227-1.184,3.306H69.457z"/>
</g>
<line class="st1" x1="36.871" y1="122.71" x2="36.871" y2="110.605"/>
<line class="st1" x1="83.075" y1="122.71" x2="83.075" y2="110.605"/>
<g>
	<path d="M83.195,117.461l-4.632,2.327v-4.631L83.195,117.461z"/>
	<line class="st0" x1="82.15" y1="117.414" x2="71.017" y2="117.414"/>
</g>
<g>
	<path d="M169.693,66.854l-3.314,3.985l-1.852-4.245L169.693,66.854z"/>
	<line class="st2" x1="168.716" y1="67.23" x2="96.472" y2="98.76"/>
</g>
<g>
	<path d="M169.935,83.61l-4.018,3.274l-1.002-4.521L169.935,83.61z"/>
	<line class="st2" x1="168.905" y1="83.791" x2="91.948" y2="100.85"/>
</g>
<g>
	<path d="M169.876,100.585l-4.631,2.327v-4.631L169.876,100.585z"/>
	<line class="st2" x1="168.831" y1="100.539" x2="90.006" y2="100.539"/>
</g>
<g>
	<path d="M169.819,117.003l-5.004,1.353l0.926-4.537L169.819,117.003z"/>
	<line class="st2" x1="168.804" y1="116.749" x2="91.573" y2="100.976"/>
</g>
<g>
	<path d="M169.838,133.507l-5.169,0.388l1.764-4.282L169.838,133.507z"/>
	<line class="st2" x1="168.889" y1="133.066" x2="96.006" y2="103.044"/>
</g>
<rect x="174.391" y="57.966" class="st0" width="46.266" height="84.302"/>
<g>
	<path d="M203.452,70.073h-0.751v-3.99h-1.312v-0.56c0.911-0.064,1.287-0.152,1.511-1.072h0.552V70.073z"/>
	<path d="M205.061,66.467c0-1.831,1.336-2.015,1.943-2.015c0.976,0,1.759,0.632,1.759,1.679c0,1.007-0.664,1.431-1.503,1.879
		l-0.584,0.32c-0.768,0.424-0.936,0.864-0.968,1.08h3.055v0.664h-3.846c0.04-1.167,0.567-1.791,1.319-2.231l0.743-0.432
		c0.6-0.344,1.031-0.576,1.031-1.311c0-0.448-0.287-1.016-1.111-1.016c-1.063,0-1.111,0.991-1.135,1.383H205.061z"/>
	<path d="M210.949,66.874c0.12,0.008,0.248,0.016,0.368,0.016c0.543,0,1.071-0.216,1.071-0.919c0-0.336-0.2-0.888-1.04-0.888
		c-0.999,0-1.063,0.815-1.095,1.208h-0.688c0-0.824,0.335-1.839,1.814-1.839c1.088,0,1.735,0.624,1.735,1.479
		c0,0.72-0.416,1.063-0.72,1.159v0.016c0.544,0.176,0.936,0.56,0.936,1.311c0,0.92-0.592,1.807-2.023,1.807
		c-0.415,0-0.768-0.104-1.039-0.248c-0.624-0.328-0.791-0.976-0.84-1.624h0.728c0.024,0.528,0.152,1.24,1.2,1.24
		c0.719,0,1.223-0.44,1.223-1.088c0-0.943-0.831-1.031-1.311-1.031c-0.104,0-0.217,0.008-0.32,0.008V66.874z"/>
	<path d="M203.452,86.948h-0.751v-3.99h-1.312v-0.56c0.911-0.064,1.287-0.152,1.511-1.072h0.552V86.948z"/>
	<path d="M205.061,83.342c0-1.831,1.336-2.015,1.943-2.015c0.976,0,1.759,0.632,1.759,1.679c0,1.007-0.664,1.431-1.503,1.879
		l-0.584,0.32c-0.768,0.424-0.936,0.864-0.968,1.08h3.055v0.664h-3.846c0.04-1.167,0.567-1.791,1.319-2.231l0.743-0.432
		c0.6-0.344,1.031-0.576,1.031-1.311c0-0.448-0.287-1.016-1.111-1.016c-1.063,0-1.111,0.991-1.135,1.383H205.061z"/>
	<path d="M210.949,83.749c0.12,0.008,0.248,0.016,0.368,0.016c0.543,0,1.071-0.216,1.071-0.919c0-0.336-0.2-0.888-1.04-0.888
		c-0.999,0-1.063,0.815-1.095,1.208h-0.688c0-0.824,0.335-1.839,1.814-1.839c1.088,0,1.735,0.624,1.735,1.479
		c0,0.72-0.416,1.063-0.72,1.159v0.016c0.544,0.176,0.936,0.56,0.936,1.311c0,0.92-0.592,1.807-2.023,1.807
		c-0.415,0-0.768-0.104-1.039-0.248c-0.624-0.328-0.791-0.976-0.84-1.624h0.728c0.024,0.528,0.152,1.24,1.2,1.24
		c0.719,0,1.223-0.44,1.223-1.088c0-0.943-0.831-1.031-1.311-1.031c-0.104,0-0.217,0.008-0.32,0.008V83.749z"/>
	<path d="M203.452,103.823h-0.751v-3.99h-1.312v-0.56c0.911-0.064,1.287-0.152,1.511-1.072h0.552V103.823z"/>
	<path d="M205.061,100.217c0-1.831,1.336-2.015,1.943-2.015c0.976,0,1.759,0.632,1.759,1.679c0,1.007-0.664,1.431-1.503,1.879
		l-0.584,0.32c-0.768,0.424-0.936,0.864-0.968,1.08h3.055v0.664h-3.846c0.04-1.167,0.567-1.791,1.319-2.231l0.743-0.432
		c0.6-0.344,1.031-0.576,1.031-1.311c0-0.448-0.287-1.016-1.111-1.016c-1.063,0-1.111,0.991-1.135,1.383H205.061z"/>
	<path d="M210.949,100.624c0.12,0.008,0.248,0.016,0.368,0.016c0.543,0,1.071-0.216,1.071-0.919c0-0.336-0.2-0.888-1.04-0.888
		c-0.999,0-1.063,0.815-1.095,1.208h-0.688c0-0.824,0.335-1.839,1.814-1.839c1.088,0,1.735,0.624,1.735,1.479
		c0,0.72-0.416,1.063-0.72,1.159v0.016c0.544,0.176,0.936,0.56,0.936,1.311c0,0.92-0.592,1.807-2.023,1.807
		c-0.415,0-0.768-0.104-1.039-0.248c-0.624-0.328-0.791-0.976-0.84-1.624h0.728c0.024,0.528,0.152,1.24,1.2,1.24
		c0.719,0,1.223-0.44,1.223-1.088c0-0.943-0.831-1.031-1.311-1.031c-0.104,0-0.217,0.008-0.32,0.008V100.624z"/>
	<path d="M203.452,120.698h-0.751v-3.99h-1.312v-0.56c0.911-0.064,1.287-0.152,1.511-1.072h0.552V120.698z"/>
	<path d="M205.061,117.092c0-1.831,1.336-2.015,1.943-2.015c0.976,0,1.759,0.632,1.759,1.679c0,1.007-0.664,1.431-1.503,1.879
		l-0.584,0.32c-0.768,0.424-0.936,0.864-0.968,1.08h3.055v0.664h-3.846c0.04-1.167,0.567-1.791,1.319-2.231l0.743-0.432
		c0.6-0.344,1.031-0.576,1.031-1.311c0-0.448-0.287-1.016-1.111-1.016c-1.063,0-1.111,0.991-1.135,1.383H205.061z"/>
	<path d="M210.949,117.499c0.12,0.008,0.248,0.016,0.368,0.016c0.543,0,1.071-0.216,1.071-0.919c0-0.336-0.2-0.888-1.04-0.888
		c-0.999,0-1.063,0.815-1.095,1.208h-0.688c0-0.824,0.335-1.839,1.814-1.839c1.088,0,1.735,0.624,1.735,1.479
		c0,0.72-0.416,1.063-0.72,1.159v0.016c0.544,0.176,0.936,0.56,0.936,1.311c0,0.92-0.592,1.807-2.023,1.807
		c-0.415,0-0.768-0.104-1.039-0.248c-0.624-0.328-0.791-0.976-0.84-1.624h0.728c0.024,0.528,0.152,1.24,1.2,1.24
		c0.719,0,1.223-0.44,1.223-1.088c0-0.943-0.831-1.031-1.311-1.031c-0.104,0-0.217,0.008-0.32,0.008V117.499z"/>
	<path d="M203.452,137.573h-0.751v-3.99h-1.312v-0.56c0.911-0.063,1.287-0.151,1.511-1.071h0.552V137.573z"/>
	<path d="M205.061,133.966c0-1.831,1.336-2.015,1.943-2.015c0.976,0,1.759,0.632,1.759,1.68c0,1.007-0.664,1.431-1.503,1.879
		l-0.584,0.319c-0.768,0.424-0.936,0.863-0.968,1.079h3.055v0.664h-3.846c0.04-1.167,0.567-1.791,1.319-2.23l0.743-0.432
		c0.6-0.344,1.031-0.576,1.031-1.312c0-0.448-0.287-1.016-1.111-1.016c-1.063,0-1.111,0.991-1.135,1.383H205.061z"/>
	<path d="M210.949,134.374c0.12,0.008,0.248,0.016,0.368,0.016c0.543,0,1.071-0.216,1.071-0.919c0-0.336-0.2-0.888-1.04-0.888
		c-0.999,0-1.063,0.815-1.095,1.207h-0.688c0-0.823,0.335-1.839,1.814-1.839c1.088,0,1.735,0.624,1.735,1.479
		c0,0.72-0.416,1.063-0.72,1.159v0.016c0.544,0.177,0.936,0.561,0.936,1.312c0,0.92-0.592,1.808-2.023,1.808
		c-0.415,0-0.768-0.104-1.039-0.248c-0.624-0.328-0.791-0.976-0.84-1.623h0.728c0.024,0.527,0.152,1.239,1.2,1.239
		c0.719,0,1.223-0.44,1.223-1.088c0-0.943-0.831-1.031-1.311-1.031c-0.104,0-0.217,0.008-0.32,0.008V134.374z"/>
</g>
<g>
	<path d="M224.776,68.046h-0.832v-0.847h0.832V68.046z M224.776,71.324h-0.832v-0.848h0.832V71.324z"/>
	<path d="M230.397,71.324h-4.237v-5.741h4.182v0.688h-3.406v1.759h3.143v0.688h-3.143v1.919h3.462V71.324z"/>
	<path d="M236.141,71.324v-3.39c0-0.168,0.016-0.896,0.016-1.431h-0.016l-1.615,4.821h-0.768l-1.615-4.813h-0.016
		c0,0.528,0.016,1.255,0.016,1.423v3.39h-0.751v-5.741h1.111l1.639,4.853h0.017l1.631-4.853h1.104v5.741H236.141z"/>
	<path d="M240.343,71.324h-0.751v-3.99h-1.312v-0.56c0.911-0.064,1.287-0.152,1.511-1.072h0.552V71.324z"/>
	<path d="M243.704,71.476c-1.615,0-1.927-1.719-1.927-2.886s0.312-2.887,1.927-2.887s1.927,1.719,1.927,2.887
		S245.319,71.476,243.704,71.476z M243.704,66.335c-0.808,0-1.175,0.848-1.175,2.255s0.367,2.254,1.175,2.254
		s1.176-0.847,1.176-2.254S244.512,66.335,243.704,66.335z"/>
	<path d="M249.287,69.957v1.367h-0.704v-1.367h-2.454v-0.688l2.574-3.566h0.584v3.646h0.823v0.608H249.287z M246.776,69.349h1.807
		v-2.55h-0.016L246.776,69.349z"/>
	<path d="M224.776,84.921h-0.832v-0.847h0.832V84.921z M224.776,88.199h-0.832v-0.848h0.832V88.199z"/>
	<path d="M230.397,88.199h-4.237v-5.741h4.182v0.688h-3.406v1.759h3.143v0.688h-3.143v1.919h3.462V88.199z"/>
	<path d="M236.141,88.199v-3.39c0-0.168,0.016-0.896,0.016-1.431h-0.016l-1.615,4.821h-0.768l-1.615-4.813h-0.016
		c0,0.528,0.016,1.255,0.016,1.423v3.39h-0.751v-5.741h1.111l1.639,4.853h0.017l1.631-4.853h1.104v5.741H236.141z"/>
	<path d="M240.343,88.199h-0.751v-3.99h-1.312v-0.56c0.911-0.064,1.287-0.152,1.511-1.072h0.552V88.199z"/>
	<path d="M243.704,88.351c-1.615,0-1.927-1.719-1.927-2.886s0.312-2.887,1.927-2.887s1.927,1.719,1.927,2.887
		S245.319,88.351,243.704,88.351z M243.704,83.21c-0.808,0-1.175,0.848-1.175,2.255s0.367,2.254,1.175,2.254
		s1.176-0.847,1.176-2.254S244.512,83.21,243.704,83.21z"/>
	<path d="M247.104,84.929c0.239-0.184,0.583-0.352,1.087-0.352c0.911,0,1.847,0.64,1.847,1.799c0,0.624-0.279,1.975-2.038,1.975
		c-0.736,0-1.68-0.296-1.815-1.551h0.728c0.072,0.656,0.56,0.944,1.191,0.944c0.728,0,1.184-0.584,1.184-1.288
		c0-0.808-0.552-1.247-1.247-1.247c-0.408,0-0.776,0.192-1.04,0.536l-0.607-0.032l0.424-3.014h2.91v0.688h-2.383L247.104,84.929z"/>
	<path d="M224.776,101.796h-0.832v-0.847h0.832V101.796z M224.776,105.074h-0.832v-0.848h0.832V105.074z"/>
	<path d="M230.397,105.074h-4.237v-5.741h4.182v0.688h-3.406v1.759h3.143v0.688h-3.143v1.919h3.462V105.074z"/>
	<path d="M236.141,105.074v-3.39c0-0.168,0.016-0.896,0.016-1.431h-0.016l-1.615,4.821h-0.768l-1.615-4.813h-0.016
		c0,0.528,0.016,1.255,0.016,1.423v3.39h-0.751v-5.741h1.111l1.639,4.853h0.017l1.631-4.853h1.104v5.741H236.141z"/>
	<path d="M240.343,105.074h-0.751v-3.99h-1.312v-0.56c0.911-0.064,1.287-0.152,1.511-1.072h0.552V105.074z"/>
	<path d="M243.704,105.226c-1.615,0-1.927-1.719-1.927-2.886s0.312-2.887,1.927-2.887s1.927,1.719,1.927,2.887
		S245.319,105.226,243.704,105.226z M243.704,100.085c-0.808,0-1.175,0.848-1.175,2.255s0.367,2.254,1.175,2.254
		s1.176-0.847,1.176-2.254S244.512,100.085,243.704,100.085z"/>
	<path d="M249.263,100.949c-0.088-0.496-0.359-0.864-0.967-0.864c-1.104,0-1.336,1.487-1.336,2.079l0.017,0.016
		c0.176-0.304,0.567-0.688,1.335-0.688c0.688,0,1.759,0.44,1.759,1.783c0,0.576-0.151,0.991-0.535,1.407
		c-0.296,0.328-0.632,0.543-1.424,0.543c-0.432,0-1.047-0.192-1.447-0.815c-0.336-0.528-0.432-1.215-0.432-1.951
		c0-1.231,0.399-3.006,2.079-3.006c0.647,0,1.567,0.352,1.639,1.496H249.263z M248.239,104.594c0.672,0,1.104-0.527,1.104-1.287
		c0-0.496-0.264-1.183-1.136-1.183c-0.775,0-1.151,0.56-1.151,1.223C247.056,103.947,247.416,104.594,248.239,104.594z"/>
	<path d="M224.776,118.671h-0.832v-0.847h0.832V118.671z M224.776,121.949h-0.832v-0.848h0.832V121.949z"/>
	<path d="M230.397,121.949h-4.237v-5.741h4.182v0.688h-3.406v1.759h3.143v0.688h-3.143v1.919h3.462V121.949z"/>
	<path d="M236.141,121.949v-3.39c0-0.168,0.016-0.896,0.016-1.431h-0.016l-1.615,4.821h-0.768l-1.615-4.813h-0.016
		c0,0.528,0.016,1.255,0.016,1.423v3.39h-0.751v-5.741h1.111l1.639,4.853h0.017l1.631-4.853h1.104v5.741H236.141z"/>
	<path d="M240.343,121.949h-0.751v-3.99h-1.312v-0.56c0.911-0.064,1.287-0.152,1.511-1.072h0.552V121.949z"/>
	<path d="M243.704,122.101c-1.615,0-1.927-1.719-1.927-2.886s0.312-2.887,1.927-2.887s1.927,1.719,1.927,2.887
		S245.319,122.101,243.704,122.101z M243.704,116.96c-0.808,0-1.175,0.848-1.175,2.255s0.367,2.254,1.175,2.254
		s1.176-0.847,1.176-2.254S244.512,116.96,243.704,116.96z"/>
	<path d="M246.224,116.448h3.886v0.616c-0.56,0.583-1.903,2.375-2.311,4.885h-0.775c0.191-1.543,1.215-3.558,2.295-4.813h-3.095
		V116.448z"/>
	<path d="M224.776,135.546h-0.832v-0.848h0.832V135.546z M224.776,138.824h-0.832v-0.848h0.832V138.824z"/>
	<path d="M230.397,138.824h-4.237v-5.741h4.182v0.688h-3.406v1.759h3.143v0.688h-3.143v1.919h3.462V138.824z"/>
	<path d="M236.141,138.824v-3.391c0-0.167,0.016-0.895,0.016-1.431h-0.016l-1.615,4.821h-0.768l-1.615-4.813h-0.016
		c0,0.528,0.016,1.256,0.016,1.423v3.391h-0.751v-5.741h1.111l1.639,4.854h0.017l1.631-4.854h1.104v5.741H236.141z"/>
	<path d="M240.343,138.824h-0.751v-3.99h-1.312v-0.56c0.911-0.063,1.287-0.151,1.511-1.071h0.552V138.824z"/>
	<path d="M243.704,138.977c-1.615,0-1.927-1.72-1.927-2.887c0-1.168,0.312-2.887,1.927-2.887s1.927,1.719,1.927,2.887
		C245.631,137.257,245.319,138.977,243.704,138.977z M243.704,133.835c-0.808,0-1.175,0.848-1.175,2.255s0.367,2.255,1.175,2.255
		s1.176-0.848,1.176-2.255S244.512,133.835,243.704,133.835z"/>
	<path d="M249.142,135.834c0.76,0.319,0.92,0.943,0.92,1.367c0,0.903-0.576,1.775-1.903,1.775c-0.312,0-0.903-0.08-1.351-0.433
		c-0.576-0.455-0.576-1.063-0.576-1.335c0-0.688,0.36-1.127,0.951-1.367c-0.479-0.184-0.759-0.567-0.759-1.096
		c0-0.583,0.359-1.543,1.703-1.543c1.247,0,1.734,0.792,1.734,1.447C249.862,135.458,249.39,135.706,249.142,135.834z
		 M246.984,137.225c0,0.448,0.224,1.12,1.199,1.12c0.512,0,1.127-0.185,1.127-1.063c0-0.76-0.527-1.096-1.167-1.096
		C247.351,136.186,246.984,136.705,246.984,137.225z M249.135,134.675c0-0.344-0.224-0.84-1.047-0.84
		c-0.752,0-0.936,0.52-0.936,0.88c0,0.535,0.472,0.863,0.983,0.863C248.743,135.578,249.135,135.187,249.135,134.675z"/>
</g>
<g>
	<path d="M190.64,47.679h2.327c1.495,0,2.414,1.135,2.414,2.791c0,1.287-0.56,2.95-2.446,2.95h-2.295V47.679z M191.416,52.756h1.504
		c1.007,0,1.663-0.792,1.663-2.239s-0.664-2.175-1.72-2.175h-1.447V52.756z"/>
	<path d="M198.664,50.429c-0.008-0.264-0.104-0.704-0.991-0.704c-0.216,0-0.832,0.072-0.832,0.592c0,0.344,0.216,0.423,0.76,0.56
		l0.703,0.176c0.872,0.216,1.176,0.536,1.176,1.104c0,0.863-0.712,1.383-1.655,1.383c-1.655,0-1.774-0.959-1.799-1.463h0.68
		c0.023,0.328,0.12,0.855,1.111,0.855c0.504,0,0.959-0.2,0.959-0.664c0-0.336-0.231-0.448-0.831-0.6l-0.815-0.2
		c-0.584-0.144-0.968-0.44-0.968-1.016c0-0.919,0.76-1.335,1.583-1.335c1.495,0,1.6,1.104,1.6,1.312H198.664z"/>
	<path d="M201.152,49.822v2.719c0,0.328,0.28,0.328,0.424,0.328h0.248v0.552c-0.256,0.024-0.455,0.056-0.527,0.056
		c-0.695,0-0.848-0.392-0.848-0.896v-2.759h-0.567v-0.583h0.567v-1.167h0.703v1.167h0.672v0.583H201.152z"/>
</g>
<line class="st0" x1="174.392" y1="91.549" x2="220.327" y2="91.549"/>
<line class="st0" x1="174.392" y1="108.555" x2="220.327" y2="108.555"/>
<g>
	<path d="M173.778,150.703l4.633-2.327v4.631L173.778,150.703z"/>
	<line class="st0" x1="174.822" y1="150.752" x2="186.626" y2="150.752"/>
</g>
<g>
	<path d="M192.547,149.673h-0.658v-3.495h-1.149v-0.49c0.799-0.056,1.128-0.133,1.324-0.938h0.483V149.673z"/>
	<path d="M196.565,146.059c-0.077-0.434-0.315-0.756-0.848-0.756c-0.967,0-1.17,1.303-1.17,1.82l0.015,0.015
		c0.153-0.267,0.497-0.603,1.169-0.603c0.603,0,1.541,0.385,1.541,1.562c0,0.505-0.133,0.869-0.469,1.233
		c-0.26,0.287-0.554,0.476-1.247,0.476c-0.378,0-0.918-0.168-1.268-0.714c-0.294-0.463-0.378-1.064-0.378-1.709
		c0-1.079,0.35-2.634,1.82-2.634c0.567,0,1.373,0.309,1.436,1.31H196.565z M195.669,149.253c0.588,0,0.966-0.463,0.966-1.128
		c0-0.435-0.23-1.036-0.994-1.036c-0.68,0-1.009,0.49-1.009,1.071C194.632,148.686,194.947,149.253,195.669,149.253z"/>
	<path d="M197.942,149.673v-5.028h0.616v1.827h0.014c0.267-0.385,0.631-0.56,1.058-0.566c0.974,0,1.527,0.798,1.527,1.827
		c0,0.876-0.364,2.046-1.611,2.046c-0.623,0-0.882-0.357-1.008-0.561h-0.015v0.455H197.942z M199.518,146.458
		c-0.89,0-0.988,0.96-0.988,1.555c0,0.974,0.609,1.233,1.002,1.233c0.672,0,0.987-0.609,0.987-1.415
		C200.519,147.362,200.471,146.458,199.518,146.458z"/>
	<path d="M201.898,145.345v-0.7h0.616v0.7H201.898z M202.514,149.673h-0.616v-3.663h0.616V149.673z"/>
	<path d="M204.194,146.522v2.381c0,0.287,0.245,0.287,0.371,0.287h0.217v0.483c-0.224,0.021-0.399,0.049-0.462,0.049
		c-0.609,0-0.742-0.343-0.742-0.784v-2.416h-0.498v-0.512h0.498v-1.022h0.616v1.022h0.588v0.512H204.194z"/>
	<path d="M187.81,152.539c-0.595,1.121-0.952,1.793-0.952,3.474c0,1.156,0.399,2.011,0.959,3.11h-0.413
		c-0.729-1.093-1.204-1.969-1.204-3.278c0-1.232,0.427-2.228,1.184-3.306H187.81z"/>
	<path d="M190.569,157.673h-0.658v-3.495h-1.149v-0.49c0.799-0.056,1.128-0.133,1.324-0.938h0.483V157.673z"/>
	<path d="M193.739,157.673h-0.638l-1.058-3.663h0.673l0.7,2.879h0.014l0.708-2.879h0.687l0.714,2.879h0.015l0.742-2.879h0.616
		l-1.064,3.663h-0.638l-0.742-2.837h-0.014L193.739,157.673z"/>
	<path d="M198.878,153.906c1.169,0,1.702,0.987,1.702,1.933s-0.533,1.933-1.702,1.933c-1.17,0-1.702-0.987-1.702-1.933
		S197.708,153.906,198.878,153.906z M198.878,157.239c0.882,0,1.064-0.91,1.064-1.4s-0.183-1.4-1.064-1.4
		c-0.883,0-1.064,0.91-1.064,1.4S197.995,157.239,198.878,157.239z"/>
	<path d="M201.977,157.673h-0.616v-3.663h0.582v0.609h0.014c0.245-0.427,0.567-0.714,1.029-0.714c0.077,0,0.112,0.007,0.161,0.021
		v0.638h-0.231c-0.574,0-0.938,0.448-0.938,0.98V157.673z"/>
	<path d="M206.509,157.673h-0.581v-0.504h-0.015c-0.266,0.497-0.687,0.609-1.043,0.609c-1.247,0-1.611-1.17-1.611-2.046
		c0-1.029,0.554-1.827,1.526-1.827c0.666,0,0.946,0.413,1.093,0.623l0.015-0.049v-1.835h0.616V157.673z M204.884,157.246
		c0.393,0,1.001-0.26,1.001-1.233c0-0.595-0.098-1.555-0.987-1.555c-0.952,0-1.001,0.903-1.001,1.373
		C203.896,156.637,204.211,157.246,204.884,157.246z"/>
	<path d="M207.15,159.123c0.596-1.121,0.952-1.793,0.952-3.475c0-1.155-0.398-2.01-0.959-3.109h0.413
		c0.729,1.093,1.205,1.968,1.205,3.277c0,1.233-0.428,2.228-1.184,3.307H207.15z"/>
</g>
<line class="st1" x1="174.566" y1="156.079" x2="174.566" y2="143.975"/>
<line class="st1" x1="220.769" y1="156.079" x2="220.769" y2="143.975"/>
<g>
	<path d="M220.889,150.83l-4.631,2.327v-4.631L220.889,150.83z"/>
	<line class="st0" x1="219.844" y1="150.784" x2="208.711" y2="150.784"/>
</g>
<line class="st0" x1="174.392" y1="75.056" x2="220.327" y2="75.056"/>
<line class="st0" x1="174.392" y1="126.098" x2="220.327" y2="126.098"/>
<rect x="152.733" y="7.634" class="st3" width="106.846" height="17.717"/>
<line class="st3" x1="224.151" y1="25.351" x2="224.151" y2="7.634"/>
<rect x="158.675" y="2" class="st4" width="24.206" height="9.847"/>
<g>
	<path d="M160.622,10.262h-0.775V4.521h3.974v0.688h-3.198v1.759h2.814v0.688h-2.814V10.262z"/>
	<path d="M169.38,10.262v-3.39c0-0.168,0.016-0.896,0.016-1.431h-0.016l-1.615,4.821h-0.768l-1.615-4.813h-0.016
		c0,0.528,0.016,1.255,0.016,1.423v3.39h-0.751V4.521h1.111l1.639,4.853h0.017l1.631-4.853h1.104v5.741H169.38z"/>
	<path d="M173.821,10.413c-2.143,0-2.799-1.783-2.799-3.022s0.656-3.022,2.799-3.022s2.799,1.783,2.799,3.022
		S175.964,10.413,173.821,10.413z M173.821,5.056c-1.247,0-1.999,0.983-1.999,2.334c0,1.352,0.752,2.335,1.999,2.335
		s1.999-0.983,1.999-2.335C175.82,6.04,175.068,5.056,173.821,5.056z"/>
	<path d="M180.837,4.521h0.871l-2.095,5.741h-0.823l-2.095-5.741h0.863l1.639,4.893h0.017L180.837,4.521z"/>
</g>
<line class="st5" x1="27.615" y1="16.873" x2="151.818" y2="16.873"/>
<line class="st5" x1="259.553" y1="16.873" x2="265.456" y2="16.873"/>
<line class="st5" x1="0.5" y1="16.873" x2="18" y2="16.873"/>
<line class="st5" x1="0.5" y1="0" x2="0.5" y2="31.164"/>
<line class="st5" x1="265.456" y1="0" x2="265.456" y2="31.164"/>
<line class="st3" x1="27.615" y1="21.954" x2="27.615" y2="13.095"/>
<line class="st3" x1="18.248" y1="13.095" x2="18.248" y2="21.954"/>
<line class="st3" x1="188.167" y1="25.351" x2="188.167" y2="7.634"/>
<g>
	<path d="M158.427,14.693h2.327c1.495,0,2.414,1.135,2.414,2.791c0,1.287-0.56,2.95-2.446,2.95h-2.295V14.693z M159.202,19.77h1.504
		c1.007,0,1.663-0.792,1.663-2.239s-0.664-2.175-1.72-2.175h-1.447V19.77z"/>
	<path d="M168.889,20.434v-3.39c0-0.168,0.016-0.896,0.016-1.431h-0.016l-1.615,4.821h-0.768l-1.615-4.813h-0.016
		c0,0.528,0.016,1.255,0.016,1.423v3.39h-0.751v-5.741h1.111l1.639,4.853h0.017l1.631-4.853h1.104v5.741H168.889z"/>
	<path d="M173.089,20.434h-0.751v-3.99h-1.312v-0.56c0.911-0.064,1.287-0.152,1.511-1.072h0.552V20.434z"/>
	<path d="M176.45,20.586c-1.615,0-1.927-1.719-1.927-2.886c0-1.167,0.312-2.887,1.927-2.887s1.927,1.719,1.927,2.887
		C178.377,18.866,178.065,20.586,176.45,20.586z M176.45,15.445c-0.808,0-1.175,0.848-1.175,2.255s0.367,2.255,1.175,2.255
		s1.176-0.848,1.176-2.255S177.258,15.445,176.45,15.445z"/>
	<path d="M180.897,20.586c-1.615,0-1.927-1.719-1.927-2.886c0-1.167,0.312-2.887,1.927-2.887s1.927,1.719,1.927,2.887
		C182.824,18.866,182.513,20.586,180.897,20.586z M180.897,15.445c-0.808,0-1.175,0.848-1.175,2.255s0.367,2.255,1.175,2.255
		s1.176-0.848,1.176-2.255S181.705,15.445,180.897,15.445z"/>
</g>
<g>
	<path d="M198.595,20.434h-4.238v-5.741h4.182v0.688h-3.406v1.759h3.143v0.688h-3.143v1.919h3.463V20.434z"/>
	<path d="M204.338,20.434v-3.39c0-0.168,0.016-0.896,0.016-1.431h-0.016l-1.615,4.821h-0.768l-1.615-4.813h-0.016
		c0,0.528,0.016,1.255,0.016,1.423v3.39h-0.751v-5.741h1.111l1.639,4.853h0.017l1.631-4.853h1.104v5.741H204.338z"/>
	<path d="M208.539,20.434h-0.751v-3.99h-1.312v-0.56c0.911-0.064,1.287-0.152,1.511-1.072h0.552V20.434z"/>
	<path d="M211.899,20.586c-1.615,0-1.927-1.719-1.927-2.886c0-1.167,0.312-2.887,1.927-2.887s1.927,1.719,1.927,2.887
		C213.826,18.866,213.514,20.586,211.899,20.586z M211.899,15.445c-0.808,0-1.175,0.848-1.175,2.255s0.367,2.255,1.175,2.255
		s1.176-0.848,1.176-2.255S212.707,15.445,211.899,15.445z"/>
	<path d="M217.483,19.067v1.367h-0.704v-1.367h-2.454v-0.688l2.574-3.566h0.584v3.646h0.823v0.608H217.483z M214.973,18.459h1.807
		v-2.55h-0.016L214.973,18.459z"/>
</g>
<g>
	<path d="M240.214,20.434h-0.527l0.231-1.679h-0.999l-0.232,1.679h-0.527l0.232-1.679h-0.824l0.072-0.503h0.823l0.152-1.136h-0.823
		l0.071-0.503h0.823l0.232-1.679h0.535l-0.231,1.679h0.991l0.232-1.679h0.535l-0.231,1.679h0.823l-0.072,0.503h-0.823l-0.16,1.136
		h0.824l-0.072,0.503h-0.823L240.214,20.434z M239.15,17.116l-0.159,1.136h0.999l0.152-1.136H239.15z"/>
	<path d="M242.968,17.164c0.239-0.184,0.583-0.352,1.087-0.352c0.911,0,1.847,0.64,1.847,1.799c0,0.624-0.279,1.975-2.038,1.975
		c-0.736,0-1.68-0.296-1.815-1.551h0.728c0.072,0.656,0.56,0.944,1.191,0.944c0.728,0,1.184-0.584,1.184-1.288
		c0-0.808-0.552-1.247-1.247-1.247c-0.408,0-0.776,0.192-1.04,0.536l-0.607-0.032l0.424-3.014h2.91v0.688h-2.383L242.968,17.164z"/>
</g>
<g>
	<rect x="85.048" y="96.136" class="st4" width="6.756" height="10.6"/>
</g>
<g>
</g>
</svg>
