<?xml version="1.0" encoding="utf-8"?>
<!-- Generator: Adobe Illustrator 28.2.0, SVG Export Plug-In . SVG Version: 6.00 Build 0)  -->
<svg version="1.1" id="儗僀儎乕_1" xmlns="http://www.w3.org/2000/svg" xmlns:xlink="http://www.w3.org/1999/xlink" x="0px"
	 y="0px" width="511.236px" height="187.142px" viewBox="0 0 511.236 187.142" style="enable-background:new 0 0 511.236 187.142;"
	 xml:space="preserve">
<style type="text/css">
	.st0{fill:none;stroke:#000000;}
	.st1{fill:#FFFFFF;}
	.st2{fill:#FFFFFF;stroke:#000000;}
	.st3{fill:none;stroke:#000000;stroke-dasharray:1;}
</style>
<line class="st0" x1="0.5" y1="100.637" x2="0.5" y2="187.142"/>
<line class="st0" x1="510.736" y1="100.637" x2="510.736" y2="187.142"/>
<line class="st0" x1="404.897" y1="117.936" x2="510.736" y2="117.936"/>
<line class="st0" x1="81.821" y1="117.936" x2="404.897" y2="117.936"/>
<line class="st0" x1="0.5" y1="117.936" x2="81.821" y2="117.936"/>
<g>
	<rect x="420.769" y="99.981" class="st1" width="76.127" height="34.602"/>
	<rect x="420.769" y="99.981" class="st0" width="76.127" height="34.602"/>
</g>
<rect x="427.58" y="90.704" class="st1" width="63.906" height="14.203"/>
<line class="st0" x1="0.5" y1="166.381" x2="510.736" y2="166.381"/>
<g>
	<rect x="420.769" y="148.425" class="st2" width="76.127" height="34.602"/>
	<rect x="420.769" y="148.425" class="st0" width="76.127" height="34.602"/>
</g>
<rect x="429.862" y="139.654" class="st1" width="59.342" height="13.189"/>
<line class="st0" x1="420.228" y1="69.493" x2="510.736" y2="69.493"/>
<line class="st3" x1="83.366" y1="69.493" x2="420.228" y2="69.493"/>
<line class="st0" x1="0.5" y1="69.493" x2="83.366" y2="69.493"/>
<line class="st0" x1="0.5" y1="3.751" x2="0.5" y2="38.352"/>
<line class="st0" x1="510.736" y1="3.751" x2="510.736" y2="38.352"/>
<line class="st0" x1="0.5" y1="21.05" x2="510.736" y2="21.05"/>
<g>
	<g>
		<rect x="420.769" y="3.095" class="st2" width="76.127" height="34.602"/>
		<rect x="420.769" y="3.095" class="st0" width="76.127" height="34.602"/>
	</g>
	<rect x="436.71" y="0.666" class="st1" width="45.648" height="5.326"/>
</g>
<g>
	<rect x="35.103" y="62.571" class="st1" width="13.842" height="13.843"/>
	<line class="st0" x1="48.944" y1="62.571" x2="48.944" y2="76.413"/>
	<line class="st0" x1="35.103" y1="76.413" x2="35.103" y2="62.571"/>
</g>
<g>
	<rect x="35.103" y="111.015" class="st1" width="13.842" height="13.843"/>
	<line class="st0" x1="48.944" y1="111.015" x2="48.944" y2="124.858"/>
	<line class="st0" x1="35.103" y1="124.858" x2="35.103" y2="111.015"/>
</g>
<path class="st2" d="M470.956,69.49c0,3.823-3.099,6.921-6.921,6.921c-3.822,0-6.921-3.098-6.921-6.921
	c0-3.822,3.099-6.92,6.921-6.92C467.857,62.57,470.956,65.668,470.956,69.49z"/>
<line class="st0" x1="0.5" y1="52.194" x2="0.5" y2="86.795"/>
<line class="st0" x1="510.736" y1="52.194" x2="510.736" y2="86.795"/>
<line class="st3" x1="0.5" y1="38.353" x2="0.5" y2="52.195"/>
<line class="st3" x1="510.736" y1="38.353" x2="510.736" y2="52.195"/>
<line class="st3" x1="0.5" y1="86.797" x2="0.5" y2="100.638"/>
<line class="st3" x1="510.736" y1="86.797" x2="510.736" y2="100.638"/>
<rect x="202.929" y="58.359" class="st1" width="89.414" height="20.392"/>
<g>
	<path d="M29.921,99.605h4.662v0.688H32.64v5.053h-0.776v-5.053h-1.943V99.605z"/>
	<path d="M35.056,105.346h-0.704v-4.182h0.664v0.695h0.016c0.28-0.487,0.647-0.815,1.175-0.815c0.088,0,0.128,0.008,0.184,0.024
		v0.728h-0.264c-0.656,0-1.071,0.512-1.071,1.119V105.346z"/>
	<path d="M37.057,100.404v-0.799h0.704v0.799H37.057z M37.76,105.346h-0.704v-4.182h0.704V105.346z"/>
	<path d="M42.287,105.002c0,0.6-0.008,2.103-1.943,2.103c-0.496,0-1.463-0.136-1.599-1.247h0.704
		c0.128,0.664,0.775,0.664,0.943,0.664c1.215,0,1.191-0.976,1.191-1.472v-0.176h-0.016v0.032c-0.184,0.296-0.552,0.56-1.111,0.56
		c-1.423,0-1.839-1.335-1.839-2.335c0-1.176,0.632-2.087,1.743-2.087c0.759,0,1.079,0.472,1.247,0.712h0.016v-0.592h0.664V105.002z
		 M40.472,104.858c0.448,0,1.144-0.296,1.144-1.407c0-0.68-0.112-1.775-1.127-1.775c-1.087,0-1.144,1.031-1.144,1.567
		C39.344,104.162,39.704,104.858,40.472,104.858z"/>
	<path d="M46.734,105.002c0,0.6-0.008,2.103-1.943,2.103c-0.496,0-1.463-0.136-1.599-1.247h0.704
		c0.128,0.664,0.775,0.664,0.943,0.664c1.215,0,1.191-0.976,1.191-1.472v-0.176h-0.016v0.032c-0.184,0.296-0.551,0.56-1.111,0.56
		c-1.423,0-1.839-1.335-1.839-2.335c0-1.176,0.632-2.087,1.743-2.087c0.759,0,1.079,0.472,1.247,0.712h0.016v-0.592h0.664V105.002z
		 M44.919,104.858c0.448,0,1.144-0.296,1.144-1.407c0-0.68-0.112-1.775-1.127-1.775c-1.087,0-1.144,1.031-1.144,1.567
		C43.792,104.162,44.152,104.858,44.919,104.858z"/>
	<path d="M51.263,104.034c-0.024,0.2-0.216,0.792-0.744,1.144c-0.192,0.128-0.464,0.288-1.135,0.288
		c-1.175,0-1.871-0.888-1.871-2.095c0-1.296,0.624-2.327,2.007-2.327c1.208,0,1.799,0.96,1.799,2.438h-3.055
		c0,0.872,0.408,1.376,1.215,1.376c0.664,0,1.056-0.512,1.08-0.824H51.263z M50.591,102.923c-0.04-0.647-0.312-1.247-1.167-1.247
		c-0.648,0-1.16,0.6-1.16,1.247H50.591z"/>
	<path d="M52.96,105.346h-0.704v-4.182h0.664v0.695h0.016c0.28-0.487,0.647-0.815,1.175-0.815c0.088,0,0.128,0.008,0.184,0.024
		v0.728h-0.264c-0.656,0-1.071,0.512-1.071,1.119V105.346z"/>
</g>
<g>
	<path d="M457.955,21.98c-0.039-0.888-0.775-1.167-1.423-1.167c-0.487,0-1.312,0.136-1.312,1.007c0,0.488,0.344,0.647,0.68,0.728
		l1.64,0.376c0.743,0.176,1.303,0.624,1.303,1.535c0,1.359-1.263,1.735-2.246,1.735c-1.063,0-1.479-0.32-1.735-0.552
		c-0.488-0.439-0.584-0.919-0.584-1.455h0.728c0,1.04,0.848,1.343,1.583,1.343c0.561,0,1.504-0.144,1.504-0.967
		c0-0.6-0.28-0.792-1.224-1.016l-1.176-0.272c-0.375-0.088-1.223-0.352-1.223-1.351c0-0.896,0.583-1.775,1.975-1.775
		c2.007,0,2.207,1.199,2.239,1.831H457.955z"/>
	<path d="M460.541,26.042h-0.704V21.86h0.664v0.695h0.016c0.28-0.487,0.648-0.815,1.176-0.815c0.088,0,0.128,0.008,0.184,0.024
		v0.728h-0.264c-0.655,0-1.071,0.512-1.071,1.119V26.042z"/>
	<path d="M464.859,23.268c-0.088-0.56-0.399-0.896-0.991-0.896c-0.871,0-1.151,0.832-1.151,1.575c0,0.72,0.176,1.607,1.144,1.607
		c0.472,0,0.88-0.352,0.999-0.991h0.68c-0.071,0.664-0.479,1.599-1.703,1.599c-1.175,0-1.87-0.888-1.87-2.095
		c0-1.295,0.623-2.327,2.007-2.327c1.095,0,1.511,0.8,1.566,1.527H464.859z"/>
</g>
<g>
	<path d="M234.074,67.589c0.161,0.167,0.362,0.31,0.602,0.43c-0.188,0.141-0.357,0.315-0.508,0.523
		c-0.12,0.188-0.234,0.359-0.344,0.516v3.25c0,0.364,0.023,0.727,0.07,1.086c-0.12-0.021-0.234-0.031-0.344-0.031
		c-0.12,0-0.234,0.01-0.344,0.031c0.042-0.359,0.062-0.722,0.062-1.086v-2.531c-0.188,0.234-0.378,0.484-0.57,0.75
		c-0.13-0.203-0.263-0.362-0.398-0.477c0.484-0.417,0.88-0.864,1.188-1.344C233.711,68.373,233.907,68,234.074,67.589z
		 M233.894,66.019c0.146,0.162,0.331,0.297,0.555,0.406c-0.156,0.115-0.3,0.253-0.43,0.414c-0.292,0.412-0.526,0.708-0.703,0.891
		c-0.183,0.214-0.378,0.445-0.586,0.695c-0.115-0.188-0.24-0.331-0.375-0.43c0.422-0.338,0.766-0.695,1.031-1.07
		C233.579,66.649,233.748,66.347,233.894,66.019z M238.925,66.112c0.062,0.183,0.167,0.362,0.312,0.539
		c-1.005,0.016-2.289,0.12-3.852,0.312v2.867c0,0.745-0.078,1.406-0.234,1.984c-0.12,0.49-0.3,0.942-0.539,1.359
		c-0.188-0.156-0.386-0.271-0.594-0.344c0.292-0.417,0.502-0.888,0.633-1.414c0.114-0.505,0.172-1.034,0.172-1.586v-2.656
		c-0.016-0.203-0.047-0.409-0.094-0.617c0.13,0.021,0.255,0.031,0.375,0.031c0.667,0,1.278-0.034,1.836-0.102
		C237.586,66.42,238.248,66.295,238.925,66.112z M235.613,67.683c0.286,0.037,0.575,0.055,0.867,0.055h0.75
		c0.021-0.281,0.044-0.57,0.07-0.867c0.188,0.089,0.427,0.138,0.719,0.148c-0.062,0.188-0.128,0.427-0.195,0.719h0.875
		c0.292,0,0.586-0.018,0.883-0.055c-0.021,0.099-0.031,0.203-0.031,0.312c0,0.099,0.01,0.203,0.031,0.312
		c-0.297-0.042-0.591-0.062-0.883-0.062h-0.969c-0.042,0.219-0.081,0.458-0.117,0.719h0.625c0.281,0,0.56-0.021,0.836-0.062
		c-0.037,0.271-0.055,0.539-0.055,0.805v2.82c0,0.271,0.018,0.542,0.055,0.812c-0.156-0.021-0.261-0.031-0.312-0.031
		c-0.052,0-0.167,0.01-0.344,0.031c0.031-0.203,0.049-0.404,0.055-0.602h-1.945c0.005,0.219,0.023,0.438,0.055,0.656
		c-0.172-0.021-0.287-0.031-0.344-0.031c-0.058,0-0.162,0.01-0.312,0.031c0.042-0.266,0.062-0.534,0.062-0.805v-2.883
		c0-0.266-0.021-0.534-0.062-0.805c0.281,0.042,0.56,0.062,0.836,0.062h0.336c0.026-0.224,0.052-0.463,0.078-0.719h-0.695
		c-0.292,0-0.581,0.021-0.867,0.062c0.021-0.109,0.031-0.213,0.031-0.312C235.644,67.886,235.633,67.782,235.613,67.683z
		 M236.511,70.05h1.969v-0.594h-1.969V70.05z M236.511,71.175h1.969v-0.688h-1.969V71.175z M236.511,72.245h1.969V71.62h-1.969
		V72.245z"/>
	<path d="M240.449,66.558c0.151,0.021,0.299,0.031,0.445,0.031h1.719c0.141,0,0.284-0.01,0.43-0.031
		c-0.016,0.099-0.023,0.203-0.023,0.312s0.008,0.224,0.023,0.344c-0.146-0.026-0.289-0.039-0.43-0.039h-0.539v1.562h0.539
		c0.141,0,0.284-0.01,0.43-0.031c-0.016,0.109-0.023,0.214-0.023,0.312c0,0.12,0.008,0.234,0.023,0.344
		c-0.146-0.016-0.289-0.023-0.43-0.023h-0.539v1.609c0.312-0.094,0.606-0.192,0.883-0.297c-0.021,0.312-0.031,0.531-0.031,0.656
		c-1.287,0.328-2.112,0.586-2.477,0.773c-0.011-0.208-0.07-0.448-0.18-0.719c0.411-0.067,0.805-0.151,1.18-0.25v-1.773h-0.523
		c-0.151,0-0.3,0.008-0.445,0.023c0.021-0.109,0.031-0.224,0.031-0.344c0-0.099-0.011-0.203-0.031-0.312
		c0.146,0.021,0.294,0.031,0.445,0.031h0.523v-1.562h-0.555c-0.146,0-0.294,0.013-0.445,0.039c0.021-0.12,0.031-0.234,0.031-0.344
		S240.469,66.657,240.449,66.558z M243.167,66.526c0.344,0.042,0.69,0.062,1.039,0.062h2.211c0.349,0,0.692-0.021,1.031-0.062
		c-0.021,0.12-0.031,0.245-0.031,0.375c0,0.109,0.01,0.224,0.031,0.344c-0.339-0.047-0.683-0.07-1.031-0.07h-0.93
		c-0.068,0.354-0.141,0.683-0.219,0.984v4.055c0,0.38,0.021,0.763,0.062,1.148c-0.13-0.016-0.255-0.023-0.375-0.023
		c-0.12,0-0.234,0.008-0.344,0.023c0.042-0.386,0.062-0.769,0.062-1.148v-2.266c-0.058,0.136-0.117,0.263-0.18,0.383
		c-0.391,0.797-0.914,1.505-1.57,2.125c-0.089-0.213-0.227-0.398-0.414-0.555c0.557-0.37,1.042-0.984,1.453-1.844
		c0.317-0.724,0.604-1.685,0.859-2.883h-0.617c-0.349,0-0.695,0.023-1.039,0.07c0.026-0.12,0.039-0.234,0.039-0.344
		C243.207,66.771,243.193,66.646,243.167,66.526z M246.167,69.144c0.38,0.802,0.883,1.628,1.508,2.477
		c-0.234,0.047-0.453,0.162-0.656,0.344c-0.443-0.953-0.945-1.789-1.508-2.508C245.782,69.394,246,69.29,246.167,69.144z"/>
	<path d="M251.105,66.487c-0.25,0.068-0.479,0.13-0.688,0.188v1.539h0.094c0.297,0,0.588-0.023,0.875-0.07
		c-0.021,0.109-0.031,0.214-0.031,0.312c0,0.109,0.01,0.214,0.031,0.312c-0.287-0.042-0.578-0.062-0.875-0.062h-0.094v0.883
		c0.151-0.052,0.276-0.117,0.375-0.195c0.172,0.349,0.401,0.703,0.688,1.062c-0.172,0.037-0.336,0.12-0.492,0.25
		c-0.172-0.354-0.362-0.667-0.57-0.938v2.688c0,0.307,0.021,0.609,0.062,0.906c-0.109-0.016-0.224-0.023-0.344-0.023
		c-0.109,0-0.224,0.008-0.344,0.023c0.047-0.297,0.07-0.599,0.07-0.906v-2.547c-0.328,0.734-0.716,1.419-1.164,2.055
		c-0.094-0.26-0.227-0.469-0.398-0.625c0.385-0.401,0.708-0.859,0.969-1.375c0.203-0.375,0.385-0.794,0.547-1.258h-0.398
		c-0.287,0-0.576,0.021-0.867,0.062c0.021-0.099,0.031-0.203,0.031-0.312c0-0.099-0.011-0.203-0.031-0.312
		c0.292,0.047,0.581,0.07,0.867,0.07h0.445v-1.391c-0.511,0.141-0.878,0.248-1.102,0.32c-0.031-0.192-0.125-0.398-0.281-0.617
		c0.911-0.026,1.786-0.258,2.625-0.695c0.088,0.214,0.224,0.445,0.406,0.695C251.35,66.5,251.214,66.487,251.105,66.487z
		 M251.511,69.276c0.297,0.042,0.588,0.062,0.875,0.062h2.125c0.297,0,0.588-0.021,0.875-0.062
		c-0.021,0.099-0.031,0.203-0.031,0.312c0,0.099,0.01,0.203,0.031,0.312c-0.287-0.047-0.578-0.07-0.875-0.07h-0.781v1.039h0.57
		c0.286,0,0.575-0.023,0.867-0.07c-0.021,0.109-0.031,0.214-0.031,0.312c0,0.109,0.01,0.214,0.031,0.312
		c-0.292-0.042-0.581-0.062-0.867-0.062h-0.57v1.164h1.062c0.297,0,0.591-0.023,0.883-0.07c-0.021,0.109-0.031,0.213-0.031,0.312
		c0,0.109,0.01,0.213,0.031,0.312c-0.292-0.042-0.586-0.062-0.883-0.062h-2.773c-0.292,0-0.586,0.021-0.883,0.062
		c0.021-0.099,0.031-0.203,0.031-0.312c0-0.099-0.011-0.203-0.031-0.312c0.297,0.047,0.591,0.07,0.883,0.07h1.117v-1.164h-0.586
		c-0.297,0-0.589,0.021-0.875,0.062c0.016-0.099,0.023-0.203,0.023-0.312c0-0.099-0.008-0.203-0.023-0.312
		c0.286,0.047,0.578,0.07,0.875,0.07h0.586v-1.039h-0.75c-0.287,0-0.578,0.023-0.875,0.07c0.026-0.109,0.039-0.213,0.039-0.312
		C251.55,69.479,251.537,69.375,251.511,69.276z M251.863,66.245c0.338,0.021,0.682,0.031,1.031,0.031h1.18
		c0.349,0,0.692-0.01,1.031-0.031c-0.021,0.172-0.031,0.347-0.031,0.523v1.281c0,0.208,0.01,0.419,0.031,0.633
		c-0.339-0.021-0.683-0.031-1.031-0.031h-1.18c-0.349,0-0.693,0.011-1.031,0.031c0.021-0.213,0.031-0.424,0.031-0.633v-1.281
		C251.873,66.592,251.863,66.417,251.863,66.245z M254.48,68.144v-1.375h-2v1.375H254.48z"/>
	<path d="M260.48,65.964c0.094,0.271,0.19,0.573,0.289,0.906h2.055c0.219,0,0.438-0.013,0.656-0.039
		c-0.021,0.099-0.031,0.193-0.031,0.281c0,0.109,0.01,0.214,0.031,0.312c-0.219-0.021-0.438-0.031-0.656-0.031h-4.805v2.227
		c-0.021,0.677-0.112,1.315-0.273,1.914c-0.109,0.479-0.362,1.07-0.758,1.773c-0.183-0.183-0.401-0.287-0.656-0.312
		c0.354-0.495,0.612-1.002,0.773-1.523c0.188-0.63,0.281-1.247,0.281-1.852v-2.031c0-0.25-0.019-0.502-0.055-0.758
		c0.234,0.026,0.471,0.039,0.711,0.039h2.195c-0.115-0.333-0.229-0.617-0.344-0.852C260.082,66.008,260.277,65.99,260.48,65.964z
		 M258.644,68.019c0.198,0.021,0.362,0.031,0.492,0.031h3.102c0.229,0,0.448-0.01,0.656-0.031c-0.021,0.078-0.031,0.164-0.031,0.258
		c0,0.183,0.01,0.357,0.031,0.523c-0.292,0.062-0.573,0.159-0.844,0.289c-0.198,0.109-0.516,0.326-0.953,0.648
		c0.021,0.016,0.034,0.026,0.039,0.031c-0.052,0.037-0.104,0.081-0.156,0.133h1.719c0.203,0,0.393-0.01,0.57-0.031
		c-0.224,0.558-0.394,1.086-0.508,1.586c-0.203-0.052-0.401-0.083-0.594-0.094c0.151-0.312,0.266-0.635,0.344-0.969h-1.469v2.57
		c0,0.161-0.094,0.278-0.281,0.352c-0.177,0.073-0.531,0.109-1.062,0.109c-0.011-0.245-0.083-0.464-0.219-0.656
		c0.338,0.042,0.602,0.062,0.789,0.062c0.135,0,0.206-0.05,0.211-0.148v-2.289h-2.211v-0.492h2.258
		c-0.312-0.312-0.628-0.586-0.945-0.82c0.13-0.099,0.245-0.203,0.344-0.312c0.271,0.24,0.555,0.477,0.852,0.711l1.266-0.953h-2.906
		c-0.172,0-0.336,0.011-0.492,0.031c0.021-0.12,0.031-0.213,0.031-0.281C258.675,68.188,258.665,68.102,258.644,68.019z"/>
</g>
<g>
	<path d="M451.143,6.64h-0.775V0.899h3.974v0.688h-3.198v1.759h2.814v0.688h-2.814V6.64z"/>
	<path d="M457.678,6.792c-2.143,0-2.799-1.783-2.799-3.022c0-1.239,0.656-3.022,2.799-3.022s2.799,1.783,2.799,3.022
		C460.477,5.009,459.821,6.792,457.678,6.792z M457.678,1.435c-1.247,0-1.999,0.983-1.999,2.334c0,1.352,0.752,2.335,1.999,2.335
		s1.999-0.983,1.999-2.335C459.677,2.418,458.925,1.435,457.678,1.435z"/>
	<path d="M462.272,6.64h-0.776V0.899h2.655c0.943,0,1.887,0.328,1.887,1.543c0,0.848-0.432,1.16-0.8,1.375
		c0.328,0.136,0.656,0.28,0.688,1.079l0.049,1.04c0.008,0.32,0.048,0.44,0.287,0.576V6.64h-0.951
		c-0.112-0.352-0.136-1.223-0.136-1.439c0-0.472-0.097-1.023-1.023-1.023h-1.879V6.64z M462.272,3.514h1.799
		c0.567,0,1.167-0.144,1.167-0.991c0-0.888-0.647-0.959-1.031-0.959h-1.935V3.514z"/>
</g>
<g>
	<path d="M452.847,145.771h0.751v5.741h-0.871l-2.919-4.638h-0.016v4.638h-0.752v-5.741h0.92l2.87,4.638h0.017V145.771z"/>
	<path d="M459.134,151.512h-4.238v-5.741h4.182v0.688h-3.406v1.759h3.143v0.688h-3.143v1.919h3.463V151.512z"/>
	<path d="M464.726,151.512h-0.96l-1.543-2.358l-1.591,2.358h-0.936l2.055-2.942l-1.927-2.799h0.975l1.456,2.199l1.455-2.199h0.927
		l-1.927,2.799L464.726,151.512z"/>
	<path d="M464.993,145.771h4.661v0.688h-1.943v5.053h-0.775v-5.053h-1.942V145.771z"/>
</g>
<g>
	<path d="M446.133,96.636h2.526c1.071,0,1.623,0.665,1.623,1.448c0,0.376-0.136,0.904-0.768,1.199
		c0.376,0.152,1.04,0.416,1.04,1.399c0,0.92-0.68,1.695-1.951,1.695h-2.471V96.636z M446.909,99.067h1.399
		c0.743,0,1.199-0.224,1.199-0.927c0-0.536-0.328-0.84-1.191-0.84h-1.407V99.067z M446.909,101.714h1.655
		c0.808,0,1.215-0.407,1.215-1.047c0-0.808-0.711-0.968-1.343-0.968h-1.527V101.714z"/>
	<path d="M452.357,102.378h-0.775v-5.742h2.654c0.943,0,1.887,0.329,1.887,1.544c0,0.847-0.432,1.159-0.8,1.375
		c0.328,0.136,0.656,0.279,0.688,1.079l0.048,1.039c0.009,0.32,0.049,0.44,0.288,0.576v0.128h-0.951
		c-0.112-0.352-0.136-1.224-0.136-1.439c0-0.472-0.096-1.023-1.023-1.023h-1.879V102.378z M452.357,99.252h1.799
		c0.567,0,1.167-0.145,1.167-0.992c0-0.887-0.647-0.959-1.031-0.959h-1.935V99.252z"/>
	<path d="M461.58,102.378h-4.238v-5.742h4.182v0.688h-3.406v1.76h3.143v0.688h-3.143v1.919h3.463V102.378z"/>
	<path d="M463.5,100.707l-0.6,1.671h-0.799l2.158-5.742h0.88l2.079,5.742h-0.848l-0.568-1.671H463.5z M465.524,100.02l-0.848-2.527
		h-0.016l-0.92,2.527H465.524z"/>
	<path d="M468.708,102.378h-0.775v-5.742h0.775v2.784l2.783-2.784h1.071l-2.391,2.32l2.454,3.422h-1.007l-2.007-2.878l-0.904,0.863
		V102.378z"/>
</g>
</svg>
