<?xml version="1.0" encoding="utf-8"?>
<!-- Generator: Adobe Illustrator 28.2.0, SVG Export Plug-In . SVG Version: 6.00 Build 0)  -->
<svg version="1.1" id="儗僀儎_xFF0D__1" xmlns="http://www.w3.org/2000/svg" xmlns:xlink="http://www.w3.org/1999/xlink" x="0px"
	 y="0px" width="511.236px" height="57.745px" viewBox="0 0 511.236 57.745" style="enable-background:new 0 0 511.236 57.745;"
	 xml:space="preserve">
<style type="text/css">
	.st0{fill:none;stroke:#000000;}
	.st1{fill:#FFFFFF;}
	.st2{fill:#FFFFFF;stroke:#000000;}
	.st3{fill:none;stroke:#000000;stroke-linejoin:round;stroke-miterlimit:10;}
</style>
<line class="st0" x1="0.5" y1="29.392" x2="32.66" y2="29.392"/>
<line class="st0" x1="0.5" y1="0" x2="0.5" y2="57.745"/>
<line class="st0" x1="510.736" y1="0" x2="510.736" y2="57.745"/>
<g>
	<rect x="32.66" y="20.847" class="st1" width="22.845" height="17.301"/>
	<line class="st2" x1="55.505" y1="38.148" x2="55.505" y2="20.847"/>
</g>
<line class="st2" x1="32.66" y1="20.847" x2="32.66" y2="38.148"/>
<line class="st0" x1="55.505" y1="29.392" x2="120.792" y2="29.392"/>
<line class="st0" x1="120.792" y1="29.392" x2="177.401" y2="29.392"/>
<line class="st0" x1="177.401" y1="29.392" x2="510.736" y2="29.392"/>
<path class="st2" d="M470.541,38.458c4.769,0,8.633-3.864,8.633-8.632c0-4.766-3.865-8.631-8.633-8.631
	c-4.766,0-8.631,3.865-8.631,8.631C461.911,34.594,465.775,38.458,470.541,38.458z"/>
<line class="st3" x1="132.283" y1="44.527" x2="164.364" y2="13.912"/>
</svg>
