<?xml version="1.0" encoding="utf-8"?>
<!-- Generator: Adobe Illustrator 28.2.0, SVG Export Plug-In . SVG Version: 6.00 Build 0)  -->
<svg version="1.1" id="儗僀儎乕_1" xmlns="http://www.w3.org/2000/svg" xmlns:xlink="http://www.w3.org/1999/xlink" x="0px"
	 y="0px" width="264.758px" height="96.631px" viewBox="0 0 264.758 96.631" style="enable-background:new 0 0 264.758 96.631;"
	 xml:space="preserve">
<style type="text/css">
	.st0{fill:url(#SVGID_1_);stroke:#B3B3B3;stroke-width:0.5;}
	.st1{fill:none;stroke:#B3B3B3;stroke-width:0.5;}
	.st2{fill:none;stroke:#000000;}
	.st3{fill:none;stroke:#000000;stroke-width:0.3;}
</style>
<linearGradient id="SVGID_1_" gradientUnits="userSpaceOnUse" x1="67.9977" y1="44.9876" x2="67.9977" y2="44.9876" gradientTransform="matrix(1 0 0 1.0267 0 0.1846)">
	<stop  offset="0" style="stop-color:#FFFFFF"/>
	<stop  offset="1" style="stop-color:#000000"/>
</linearGradient>
<line class="st0" x1="67.998" y1="0" x2="67.998" y2="92.747"/>
<line class="st1" x1="138.215" y1="0" x2="138.215" y2="92.747"/>
<line class="st1" x1="173.325" y1="0" x2="173.325" y2="92.747"/>
<line class="st1" x1="208.434" y1="0" x2="208.434" y2="92.747"/>
<g>
	<path d="M40.135,54.792c-1.877,0-2.452-1.562-2.452-2.647c0-1.086,0.575-2.647,2.452-2.647s2.451,1.562,2.451,2.647
		C42.586,53.23,42.012,54.792,40.135,54.792z M40.135,50.1c-1.093,0-1.751,0.861-1.751,2.045c0,1.184,0.658,2.045,1.751,2.045
		c1.092,0,1.751-0.861,1.751-2.045C41.886,50.961,41.227,50.1,40.135,50.1z"/>
	<path d="M44.138,54.659h-0.679V49.63h3.48v0.603h-2.801v1.541h2.465v0.603h-2.465V54.659z"/>
	<path d="M48.415,54.659h-0.679V49.63h3.48v0.603h-2.801v1.541h2.465v0.603h-2.465V54.659z"/>
</g>
<g>
	<path d="M43.635,32.398c-1.877,0-2.452-1.562-2.452-2.647c0-1.086,0.575-2.647,2.452-2.647s2.451,1.562,2.451,2.647
		C46.086,30.836,45.512,32.398,43.635,32.398z M43.635,27.705c-1.093,0-1.751,0.861-1.751,2.045c0,1.184,0.658,2.045,1.751,2.045
		c1.092,0,1.751-0.861,1.751-2.045C45.386,28.566,44.727,27.705,43.635,27.705z"/>
	<path d="M50.222,27.236h0.658v5.029h-0.763l-2.557-4.062h-0.014v4.062h-0.658v-5.029h0.806l2.514,4.062h0.014V27.236z"/>
</g>
<g>
	<path d="M40.135,95.189c-1.877,0-2.452-1.562-2.452-2.647c0-1.086,0.575-2.647,2.452-2.647s2.451,1.562,2.451,2.647
		C42.586,93.627,42.012,95.189,40.135,95.189z M40.135,90.496c-1.093,0-1.751,0.861-1.751,2.045c0,1.184,0.658,2.045,1.751,2.045
		c1.092,0,1.751-0.861,1.751-2.045C41.886,91.358,41.227,90.496,40.135,90.496z"/>
	<path d="M44.138,95.056h-0.679v-5.029h3.48v0.603h-2.801v1.541h2.465v0.603h-2.465V95.056z"/>
	<path d="M48.415,95.056h-0.679v-5.029h3.48v0.603h-2.801v1.541h2.465v0.603h-2.465V95.056z"/>
</g>
<g>
	<path d="M43.635,72.792c-1.877,0-2.452-1.562-2.452-2.647c0-1.086,0.575-2.647,2.452-2.647s2.451,1.562,2.451,2.647
		C46.086,71.23,45.512,72.792,43.635,72.792z M43.635,68.099c-1.093,0-1.751,0.861-1.751,2.045c0,1.184,0.658,2.045,1.751,2.045
		c1.092,0,1.751-0.861,1.751-2.045C45.386,68.96,44.727,68.099,43.635,68.099z"/>
	<path d="M50.222,67.63h0.658v5.029h-0.763l-2.557-4.062h-0.014v4.062h-0.658V67.63h0.806l2.514,4.062h0.014V67.63z"/>
</g>
<polyline class="st2" points="53.954,52.262 68.017,52.262 68.017,29.238 138.215,29.238 138.215,52.262 173.325,52.262 
	173.325,29.238 208.434,29.238 208.434,52.262 264.608,52.262 "/>
<polyline class="st2" points="53.954,69.598 68.017,69.598 68.017,92.624 138.215,92.624 138.215,69.598 173.325,69.598 
	173.325,92.624 208.434,92.624 208.434,69.598 264.608,69.598 "/>
<line class="st3" x1="53.954" y1="0" x2="53.954" y2="13.287"/>
<line class="st3" x1="60.976" y1="0" x2="60.976" y2="13.287"/>
<line class="st3" x1="75.02" y1="0" x2="75.02" y2="13.287"/>
<line class="st3" x1="82.041" y1="0" x2="82.041" y2="13.287"/>
<line class="st3" x1="89.063" y1="0" x2="89.063" y2="13.287"/>
<line class="st3" x1="96.085" y1="0" x2="96.085" y2="13.287"/>
<line class="st3" x1="103.107" y1="0" x2="103.107" y2="13.287"/>
<line class="st3" x1="110.129" y1="0" x2="110.129" y2="13.287"/>
<line class="st3" x1="117.15" y1="0" x2="117.15" y2="13.287"/>
<line class="st3" x1="124.171" y1="0" x2="124.171" y2="13.287"/>
<line class="st3" x1="131.193" y1="0" x2="131.193" y2="13.287"/>
<line class="st3" x1="138.215" y1="0" x2="138.215" y2="13.287"/>
<line class="st3" x1="145.237" y1="0" x2="145.237" y2="13.287"/>
<line class="st3" x1="152.259" y1="0" x2="152.259" y2="13.287"/>
<line class="st3" x1="159.281" y1="0" x2="159.281" y2="13.287"/>
<line class="st3" x1="166.302" y1="0" x2="166.302" y2="13.287"/>
<line class="st3" x1="173.325" y1="0" x2="173.325" y2="13.287"/>
<line class="st3" x1="180.347" y1="0" x2="180.347" y2="13.287"/>
<line class="st3" x1="194.389" y1="0" x2="194.389" y2="13.287"/>
<line class="st3" x1="201.411" y1="0" x2="201.411" y2="13.287"/>
<line class="st3" x1="187.369" y1="0" x2="187.369" y2="13.287"/>
<line class="st3" x1="208.434" y1="0" x2="208.434" y2="13.287"/>
<line class="st3" x1="215.453" y1="0" x2="215.453" y2="13.287"/>
<line class="st3" x1="222.478" y1="0" x2="222.478" y2="13.287"/>
<line class="st3" x1="229.498" y1="0" x2="229.498" y2="13.287"/>
<line class="st3" x1="236.52" y1="0" x2="236.52" y2="13.287"/>
<line class="st3" x1="243.542" y1="0" x2="243.542" y2="13.287"/>
<line class="st3" x1="250.564" y1="0" x2="250.564" y2="13.287"/>
<line class="st3" x1="257.586" y1="0" x2="257.586" y2="13.287"/>
<line class="st3" x1="264.608" y1="0" x2="264.608" y2="13.287"/>
<g>
	<path d="M4.07,6.717C4.03,5.829,3.294,5.549,2.646,5.549c-0.488,0-1.311,0.136-1.311,1.007c0,0.488,0.344,0.647,0.679,0.728
		L3.654,7.66c0.744,0.176,1.303,0.624,1.303,1.535c0,1.359-1.263,1.735-2.247,1.735c-1.063,0-1.479-0.32-1.735-0.552
		C0.488,9.939,0.392,9.459,0.392,8.923h0.728c0,1.04,0.848,1.343,1.583,1.343c0.56,0,1.503-0.144,1.503-0.967
		c0-0.6-0.28-0.792-1.223-1.016L1.807,8.012C1.431,7.924,0.583,7.66,0.583,6.661c0-0.896,0.584-1.775,1.975-1.775
		c2.007,0,2.207,1.199,2.239,1.831H4.07z"/>
	<path d="M8.47,8.004c-0.088-0.56-0.4-0.896-0.992-0.896c-0.871,0-1.151,0.832-1.151,1.575c0,0.72,0.176,1.607,1.144,1.607
		c0.472,0,0.879-0.352,1-0.991h0.68c-0.072,0.664-0.48,1.599-1.703,1.599c-1.175,0-1.871-0.888-1.871-2.095
		c0-1.295,0.624-2.327,2.007-2.327c1.096,0,1.511,0.8,1.567,1.527H8.47z"/>
	<path d="M9.832,7.868c0.032-1,0.696-1.392,1.727-1.392c0.336,0,1.551,0.096,1.551,1.167v2.407c0,0.176,0.088,0.248,0.232,0.248
		c0.064,0,0.152-0.016,0.232-0.032v0.512c-0.12,0.032-0.224,0.08-0.384,0.08c-0.624,0-0.72-0.32-0.744-0.64
		c-0.272,0.296-0.696,0.68-1.511,0.68c-0.768,0-1.311-0.488-1.311-1.208c0-0.352,0.104-1.167,1.271-1.311l1.16-0.144
		c0.167-0.016,0.368-0.08,0.368-0.496c0-0.44-0.32-0.68-0.983-0.68c-0.8,0-0.912,0.487-0.959,0.808H9.832z M12.406,8.643
		c-0.112,0.088-0.288,0.152-1.159,0.264c-0.344,0.048-0.896,0.152-0.896,0.68c0,0.456,0.231,0.728,0.759,0.728
		c0.656,0,1.295-0.424,1.295-0.983V8.643z"/>
	<path d="M17.71,10.778h-0.704V8.204c0-0.728-0.208-1.095-0.896-1.095c-0.4,0-1.104,0.256-1.104,1.391v2.279h-0.704V6.597h0.664
		v0.592h0.016c0.152-0.224,0.544-0.712,1.264-0.712c0.647,0,1.463,0.264,1.463,1.455V10.778z"/>
</g>
<g>
	<path d="M0.839,39.065v-5.757h0.544v5.757H0.839z"/>
	<path d="M3.416,34.044H3.399v5.021H2.856v-5.757h0.616l3.326,5.029h0.016v-5.029h0.544v5.757H6.726L3.416,34.044z"/>
	<path d="M8.144,33.309h0.567l1.735,5.117l1.727-5.117h0.567l-1.999,5.757h-0.6L8.144,33.309z"/>
	<path d="M17.109,37.522c-0.784,0.375-2.023,0.959-3.918,1.559l-0.096-0.448c0.527-0.16,0.768-0.24,0.927-0.296l-0.144-5.845h0.448
		l0.136,5.693c1.016-0.368,1.623-0.616,2.583-1.08L17.109,37.522z M15.63,39.257c1.775-0.384,3.518-1.583,3.574-4.598l0.04-2.199
		h0.448l-0.04,2.215c-0.016,0.688-0.112,1.807-0.695,2.814c0.815,0.704,1.399,1.415,1.703,1.807l-0.359,0.32
		c-0.416-0.608-0.952-1.191-1.567-1.791c-0.671,0.959-1.743,1.543-2.878,1.839L15.63,39.257z M17.221,35.459
		c-0.448-0.904-0.896-1.527-1.495-2.167l0.344-0.256c0.704,0.704,1.16,1.391,1.551,2.159L17.221,35.459z"/>
	<path d="M23.462,33.38c-0.016-0.04-0.28-0.512-0.52-0.815l0.448-0.192c0.168,0.224,0.304,0.408,0.64,1.007h1.863
		c0.264-0.392,0.344-0.551,0.543-1.007l0.512,0.16c-0.088,0.168-0.36,0.64-0.496,0.847h2.095v0.416h-7.316V33.38H23.462z
		 M24.598,34.564v4.646c0,0.176,0,0.472-0.544,0.472h-0.911l-0.112-0.472l0.856,0.016c0.167,0,0.28-0.008,0.28-0.24v-1.311h-2.007
		v2.007h-0.424v-5.117H24.598z M24.166,34.955h-2.007v0.952h2.007V34.955z M24.166,36.283h-2.007v1.015h2.007V36.283z
		 M26.133,34.564v3.782h-0.456v-3.782H26.133z M28.084,39.049c0,0.248,0,0.632-0.632,0.632h-1.239l-0.08-0.48l1.215,0.016
		c0.288,0,0.288-0.176,0.288-0.336V34.34h0.448V39.049z"/>
</g>
<g>
	<path d="M0.839,78.684v-5.757h0.544v5.757H0.839z"/>
	<path d="M3.416,73.663H3.399v5.021H2.856v-5.757h0.616l3.326,5.029h0.016v-5.029h0.544v5.757H6.726L3.416,73.663z"/>
	<path d="M8.144,72.927h0.567l1.735,5.117l1.727-5.117h0.567l-1.999,5.757h-0.6L8.144,72.927z"/>
	<path d="M17.109,77.141c-0.784,0.375-2.023,0.959-3.918,1.559l-0.096-0.448c0.527-0.16,0.768-0.24,0.927-0.296l-0.144-5.845h0.448
		l0.136,5.693c1.016-0.368,1.623-0.616,2.583-1.08L17.109,77.141z M15.63,78.876c1.775-0.384,3.518-1.583,3.574-4.598l0.04-2.199
		h0.448l-0.04,2.215c-0.016,0.688-0.112,1.807-0.695,2.814c0.815,0.704,1.399,1.415,1.703,1.807l-0.359,0.32
		c-0.416-0.608-0.952-1.191-1.567-1.791c-0.671,0.959-1.743,1.543-2.878,1.839L15.63,78.876z M17.221,75.078
		c-0.448-0.904-0.896-1.527-1.495-2.167l0.344-0.256c0.704,0.704,1.16,1.391,1.551,2.159L17.221,75.078z"/>
	<path d="M23.686,72.216v0.399c-0.256,0.624-0.695,1.463-1.015,1.967c0.552,0.576,0.967,1.247,0.967,2.055
		c0,0.336-0.096,0.991-0.912,0.991h-0.512l-0.072-0.472l0.528,0.016c0.192,0.008,0.536,0.016,0.536-0.576
		c0-0.688-0.28-1.223-0.992-1.967c0.352-0.504,0.84-1.471,1.032-2.015h-1.359v6.701h-0.424v-7.1H23.686z M28.132,76.461h-1.239
		v1.143h1.535v0.4h-1.535v1.312h-0.44v-1.312h-2.974v-0.4h0.775v-1.543h2.199v-0.52h0.44v0.52h1.239V76.461z M27.94,72.6v0.375
		c-0.232,0.344-0.648,0.919-1.447,1.52c0.647,0.416,1.375,0.671,2.127,0.815l-0.192,0.399c-1.136-0.248-1.815-0.671-2.263-0.983
		c-0.416,0.264-1.104,0.688-2.295,0.968l-0.184-0.368c0.496-0.112,1.255-0.304,2.135-0.855c-0.624-0.503-0.911-0.943-1.023-1.111
		c-0.496,0.528-0.728,0.656-0.927,0.776l-0.272-0.328c0.832-0.463,1.487-1.375,1.743-1.871l0.416,0.128
		c-0.08,0.16-0.136,0.271-0.328,0.536H27.94z M26.453,76.461h-1.767v1.143h1.767V76.461z M25.133,72.975
		c-0.032,0.048-0.048,0.064-0.088,0.112c0.112,0.184,0.408,0.655,1.095,1.175c0.8-0.584,1.151-1.063,1.312-1.288H25.133z"/>
</g>
</svg>
