<?xml version="1.0" encoding="utf-8"?>
<!-- Generator: Adobe Illustrator 28.2.0, SVG Export Plug-In . SVG Version: 6.00 Build 0)  -->
<svg version="1.1" xmlns="http://www.w3.org/2000/svg" xmlns:xlink="http://www.w3.org/1999/xlink" x="0px" y="0px"
	 width="281.185px" height="136.96px" viewBox="0 0 281.185 136.96" style="enable-background:new 0 0 281.185 136.96;"
	 xml:space="preserve">
<style type="text/css">
	.st0{fill:#F0F0F0;stroke:#828282;stroke-miterlimit:10;}
	.st1{fill:none;stroke:#828282;stroke-miterlimit:10;}
	.st2{fill:#828282;}
	.st3{fill:#FFFFFF;}
</style>
<g id="レイヤー_2">
	<rect x="20.323" y="0.5" class="st0" width="240.539" height="135.96"/>
	<line class="st1" x1="0" y1="25.814" x2="20.323" y2="25.814"/>
	<line class="st1" x1="0" y1="25.814" x2="20.323" y2="25.814"/>
	<line class="st1" x1="260.862" y1="25.814" x2="281.185" y2="25.814"/>
	<rect x="20.323" y="0.5" class="st2" width="240.539" height="21"/>
</g>
<g id="レイヤー_3">
	<g>
		<path d="M33.402,29.827c-0.454-2.215-1.686-3.061-3.679-3.061c-2.819,0-4.035,2.683-4.035,5.744c0,2.899,0.956,5.816,4.132,5.816
			c2.009,0,3.257-1.513,3.694-3.565h1.151c-0.519,2.502-1.929,4.609-5.056,4.609c-3.598,0-5.023-3.151-5.023-6.824
			c0-4.952,2.333-6.824,5.429-6.824c2.398,0,4.148,1.422,4.521,4.105H33.402z"/>
		<path d="M36.834,26.064h1.102v7.724c0,3.205,1.037,4.538,3.419,4.538c2.512,0,3.419-1.477,3.419-4.538v-7.724h1.102v8.084
			c0,3.367-1.507,5.222-4.521,5.222c-3.047,0-4.521-1.909-4.521-5.222V26.064z"/>
	</g>
	<g>
		<path d="M26.207,67.824v5.888h-1.102V60.748h4.57c2.56,0,3.97,1.008,3.97,3.403c0,1.639-0.551,2.503-1.896,3.169
			c1.377,0.522,1.458,2.143,1.491,3.511c0.049,1.962,0.194,2.503,0.486,2.755v0.126h-1.215c-0.454-0.882-0.34-3.313-0.519-4.303
			c-0.259-1.404-1.215-1.584-2.317-1.584H26.207z M29.642,66.779c1.637,0,2.901-0.756,2.901-2.575c0-1.944-1.361-2.413-2.836-2.413
			h-3.5v4.987H29.642z"/>
	</g>
	<g>
		<path d="M25.073,115.952v-12.964h4.262c3.03,0,3.808,1.674,3.808,3.619c0,2.899-2.317,3.619-4.473,3.619h-2.496v5.726H25.073z
			 M28.703,109.182c2.058,0,3.338-0.468,3.338-2.665c0-1.621-0.94-2.485-3.014-2.485h-2.852v5.149H28.703z"/>
		<path d="M33.998,102.988h1.151l3.516,11.523l3.5-11.523h1.15l-4.051,12.964H38.05L33.998,102.988z"/>
	</g>
	<g>
		<path class="st3" d="M133.986,9.063c-0.454-2.215-1.685-3.061-3.679-3.061c-2.819,0-4.035,2.683-4.035,5.744
			c0,2.899,0.956,5.816,4.132,5.816c2.009,0,3.257-1.513,3.694-3.565h1.151c-0.519,2.502-1.929,4.609-5.056,4.609
			c-3.597,0-5.023-3.151-5.023-6.824c0-4.952,2.333-6.824,5.429-6.824c2.398,0,4.148,1.422,4.521,4.105H133.986z"/>
		<path class="st3" d="M136.348,5.3h8.491v1.044h-3.695v11.919h-1.102V6.344h-3.695V5.3z"/>
		<path class="st3" d="M146.425,5.3h1.102v7.724c0,3.205,1.037,4.538,3.419,4.538c2.512,0,3.419-1.477,3.419-4.538V5.3h1.102v8.084
			c0,3.367-1.507,5.222-4.521,5.222c-3.047,0-4.521-1.909-4.521-5.222V5.3z"/>
	</g>
	<g>
		<path d="M256.743,39.194l-0.616,0.829l-1.717-1.477c-0.794,0.558-1.767,0.882-2.917,0.882c-3.598,0-5.429-3.079-5.429-6.806
			c0-3.601,1.75-6.842,5.38-6.842c3.273,0,5.494,2.431,5.494,6.842c0,2.088-0.583,3.979-1.75,5.239L256.743,39.194z M254.376,37.16
			c0.989-1.044,1.458-2.737,1.458-4.537c0-3.871-1.863-5.798-4.359-5.798c-2.998,0-4.311,2.809-4.311,5.798
			c0,3.079,1.296,5.762,4.343,5.762c0.81,0,1.491-0.216,2.042-0.576l-1.329-1.134l0.583-0.846L254.376,37.16z"/>
	</g>
	<g>
		<path d="M245.888,64.511c-0.454-2.215-1.685-3.061-3.679-3.061c-2.819,0-4.035,2.683-4.035,5.744c0,2.899,0.956,5.816,4.132,5.816
			c2.009,0,3.257-1.513,3.694-3.565h1.151c-0.519,2.502-1.929,4.609-5.056,4.609c-3.597,0-5.023-3.151-5.023-6.824
			c0-4.952,2.333-6.824,5.429-6.824c2.398,0,4.148,1.422,4.521,4.105H245.888z"/>
		<path d="M248.283,60.748h1.151l3.516,11.523l3.5-11.523h1.15l-4.051,12.964h-1.215L248.283,60.748z"/>
	</g>
	<g>
	</g>
	<g>
	</g>
	<g>
	</g>
	<g>
	</g>
	<g>
	</g>
	<g>
	</g>
	<g>
	</g>
	<g>
	</g>
	<g>
	</g>
	<g>
	</g>
	<g>
	</g>
	<g>
	</g>
	<g>
	</g>
	<g>
	</g>
	<g>
	</g>
</g>
</svg>
