<?xml version="1.0" encoding="utf-8"?>
<!-- Generator: Adobe Illustrator 28.2.0, SVG Export Plug-In . SVG Version: 6.00 Build 0)  -->
<svg version="1.1" id="_x3C_图层_x3E_" xmlns="http://www.w3.org/2000/svg" xmlns:xlink="http://www.w3.org/1999/xlink" x="0px"
	 y="0px" width="224.125px" height="87.163px" viewBox="0 0 224.125 87.163" style="enable-background:new 0 0 224.125 87.163;"
	 xml:space="preserve">
<style type="text/css">
	.st0{fill:#CCCCCC;}
	.st1{fill:none;stroke:#000000;}
	.st2{fill:#FFFFFF;stroke:#000000;}
	.st3{fill:#FFFFFF;}
	.st4{fill:none;stroke:#000000;stroke-dasharray:1,1;}
</style>
<path class="st0" d="M74.118,4.746l4.483-4.395l24.521,24.346L127.556,0l4.746,4.746l-24.346,24.609l24.346,24.697l-4.746,4.834
	l-24.433-24.785L78.601,58.887l-4.746-4.834l24.697-24.697L74.118,4.746z"/>
<line class="st1" x1="0.5" y1="18.321" x2="223.625" y2="18.321"/>
<line class="st1" x1="0.5" y1="8.946" x2="0.5" y2="62.696"/>
<line class="st1" x1="223.625" y1="8.946" x2="223.625" y2="62.696"/>
<path class="st2" d="M203.625,23.321c2.44,0,4.419-1.979,4.419-4.419c0-2.441-1.979-4.42-4.419-4.42s-4.419,1.979-4.419,4.42
	C199.206,21.343,201.185,23.321,203.625,23.321z"/>
<g>
	<rect x="19.094" y="13.946" class="st3" width="7.087" height="8.858"/>
	<line class="st2" x1="26.18" y1="22.804" x2="26.18" y2="13.946"/>
	<line class="st2" x1="19.094" y1="13.946" x2="19.094" y2="22.804"/>
</g>
<polyline class="st1" points="0.5,51.446 93.625,51.446 93.625,18.321 "/>
<g>
	<rect x="19.094" y="47.071" class="st3" width="7.087" height="8.858"/>
	<line class="st2" x1="26.18" y1="55.929" x2="26.18" y2="47.071"/>
	<line class="st2" x1="19.094" y1="47.071" x2="19.094" y2="55.929"/>
</g>
<path class="st2" d="M62.375,56.446c2.441,0,4.419-1.979,4.419-4.419c0-2.441-1.979-4.42-4.419-4.42c-2.441,0-4.42,1.979-4.42,4.42
	C57.955,54.468,59.934,56.446,62.375,56.446z"/>
<circle class="st4" cx="62.688" cy="52.384" r="10.313"/>
<path d="M69.005,64.829l7.092,2.13l-4.542,4.807L69.005,64.829z"/>
<line class="st1" x1="69.828" y1="66.13" x2="84.065" y2="79.582"/>
<g>
	<path d="M87.663,80.276l-1.116,0.693l-0.315-0.504l1.18-0.576l-1.18-0.558l0.315-0.495l1.116,0.657l-0.045-1.225h0.603
		l-0.045,1.225l1.107-0.657l0.324,0.495l-1.179,0.558l1.179,0.576l-0.324,0.504l-1.107-0.693l0.045,1.269h-0.603L87.663,80.276z"/>
</g>
</svg>
