<?xml version="1.0" encoding="utf-8"?>
<!-- Generator: Adobe Illustrator 28.2.0, SVG Export Plug-In . SVG Version: 6.00 Build 0)  -->
<svg version="1.1" xmlns="http://www.w3.org/2000/svg" xmlns:xlink="http://www.w3.org/1999/xlink" x="0px" y="0px"
	 width="281.185px" height="94.822px" viewBox="0 0 281.185 94.822" style="enable-background:new 0 0 281.185 94.822;"
	 xml:space="preserve">
<style type="text/css">
	.st0{fill:#F0F0F0;stroke:#828282;stroke-miterlimit:10;}
	.st1{fill:none;stroke:#828282;stroke-miterlimit:10;}
	.st2{fill:#828282;}
	.st3{fill:#FFFFFF;}
</style>
<g id="レイヤー_2">
	<rect x="20.323" y="0.5" class="st0" width="240.539" height="93.822"/>
	<line class="st1" x1="0" y1="25.814" x2="20.323" y2="25.814"/>
	<line class="st1" x1="0" y1="25.814" x2="20.323" y2="25.814"/>
	<line class="st1" x1="260.862" y1="25.814" x2="281.185" y2="25.814"/>
	<rect x="20.323" y="0.5" class="st2" width="240.539" height="21"/>
</g>
<g id="レイヤー_3">
	<g>
		<path d="M33.402,29.827c-0.454-2.215-1.686-3.061-3.679-3.061c-2.819,0-4.035,2.683-4.035,5.744c0,2.899,0.956,5.816,4.132,5.816
			c2.009,0,3.257-1.513,3.694-3.565h1.151c-0.519,2.502-1.929,4.609-5.056,4.609c-3.598,0-5.023-3.151-5.023-6.824
			c0-4.952,2.333-6.824,5.429-6.824c2.398,0,4.148,1.422,4.521,4.105H33.402z"/>
		<path d="M36.818,39.028V26.064h1.102v11.919h6.255v1.044H36.818z"/>
		<path d="M45.89,39.028V26.064h1.102v6.716l5.979-6.716h1.248l-4.602,5.167l5.413,7.796h-1.345l-4.861-7.04l-1.831,2.035v5.005
			H45.89z"/>
	</g>
	<g>
		<path class="st3" d="M114.779,18.264V5.3h7.519v1.044h-6.417v4.681h5.833v1.044h-5.833v6.194H114.779z"/>
		<path class="st3" d="M130.689,19.614v0.9h-8.103v-0.9H130.689z"/>
		<path class="st3" d="M130.946,5.3h8.491v1.044h-3.695v11.919h-1.102V6.344h-3.695V5.3z"/>
		<path class="st3" d="M142.093,12.376v5.888h-1.102V5.3h4.57c2.56,0,3.97,1.008,3.97,3.403c0,1.639-0.551,2.503-1.896,3.169
			c1.377,0.522,1.458,2.143,1.491,3.511c0.049,1.962,0.194,2.503,0.486,2.755v0.126h-1.215c-0.454-0.882-0.34-3.313-0.519-4.303
			c-0.259-1.404-1.215-1.584-2.317-1.584H142.093z M145.528,11.332c1.637,0,2.901-0.756,2.901-2.575
			c0-1.944-1.361-2.413-2.836-2.413h-3.5v4.987H145.528z"/>
		<path class="st3" d="M152.201,18.264V5.3h1.102v12.964H152.201z"/>
		<path class="st3" d="M161.274,12.61v-1.044h4.991v6.698h-0.94v-2.215c-0.81,1.549-2.058,2.557-4.359,2.557
			c-2.949,0-5.104-2.287-5.104-6.896c0-3.799,1.718-6.752,5.396-6.752c2.447,0,4.375,1.333,4.878,4.105h-1.134
			c-0.389-1.945-1.929-3.061-3.663-3.061c-3.079,0-4.375,2.521-4.375,6.194c0,2.863,1.556,5.366,4.229,5.366
			c1.264,0,2.754-0.594,3.516-2.269c0.373-0.811,0.486-1.711,0.502-2.683H161.274z"/>
	</g>
	<g>
		<path d="M256.743,39.194l-0.616,0.829l-1.717-1.477c-0.794,0.558-1.767,0.882-2.917,0.882c-3.598,0-5.429-3.079-5.429-6.806
			c0-3.601,1.75-6.842,5.38-6.842c3.273,0,5.494,2.431,5.494,6.842c0,2.088-0.583,3.979-1.75,5.239L256.743,39.194z M254.376,37.16
			c0.989-1.044,1.458-2.737,1.458-4.537c0-3.871-1.863-5.798-4.359-5.798c-2.998,0-4.311,2.809-4.311,5.798
			c0,3.079,1.296,5.762,4.343,5.762c0.81,0,1.491-0.216,2.042-0.576l-1.329-1.134l0.583-0.846L254.376,37.16z"/>
	</g>
	<g>
	</g>
	<g>
	</g>
	<g>
	</g>
	<g>
	</g>
	<g>
	</g>
	<g>
	</g>
	<g>
	</g>
	<g>
	</g>
	<g>
	</g>
	<g>
	</g>
	<g>
	</g>
	<g>
	</g>
	<g>
	</g>
	<g>
	</g>
	<g>
	</g>
</g>
</svg>
