<?xml version="1.0" encoding="utf-8"?>
<!-- Generator: Adobe Illustrator 28.2.0, SVG Export Plug-In . SVG Version: 6.00 Build 0)  -->
<svg version="1.1" xmlns="http://www.w3.org/2000/svg" xmlns:xlink="http://www.w3.org/1999/xlink" x="0px" y="0px"
	 width="281.185px" height="221.217px" viewBox="0 0 281.185 221.217" style="enable-background:new 0 0 281.185 221.217;"
	 xml:space="preserve">
<style type="text/css">
	.st0{fill:#F0F0F0;stroke:#828282;stroke-miterlimit:10;}
	.st1{fill:none;stroke:#828282;stroke-miterlimit:10;}
	.st2{fill:#828282;}
	.st3{fill:#FFFFFF;}
</style>
<g id="レイヤー_2">
	<rect x="20.323" y="0.5" class="st0" width="240.539" height="220.217"/>
	<line class="st1" x1="0" y1="25.814" x2="20.323" y2="25.814"/>
	<line class="st1" x1="0" y1="25.814" x2="20.323" y2="25.814"/>
	<line class="st1" x1="260.862" y1="25.814" x2="281.185" y2="25.814"/>
	<rect x="20.323" y="0.5" class="st2" width="240.539" height="21"/>
	<line class="st1" x1="66.642" y1="194.702" x2="215.177" y2="194.702"/>
	<line class="st1" x1="93.559" y1="152.904" x2="186.593" y2="152.904"/>
</g>
<g id="レイヤー_3">
	<g>
		<path d="M25.121,39.028V26.064h7.762v1.044h-6.66v4.681h6.012v1.044h-6.012v5.149h6.822v1.044H25.121z"/>
		<path d="M36.121,27.72h-0.032v11.308h-1.102V26.064h1.248l6.741,11.325h0.033V26.064h1.102v12.964h-1.28L36.121,27.72z"/>
	</g>
	<g>
		<path d="M25.511,73.711V60.748h1.102v12.964H25.511z"/>
		<path d="M30.452,73.711h-0.972v-9.327h0.972v1.296c0.778-0.918,1.54-1.549,2.706-1.549c1.021,0,1.961,0.36,2.561,1.333
			c0.405,0.667,0.421,1.369,0.421,2.143v6.104h-0.973v-6.086c0-1.674-0.616-2.521-2.171-2.521c-1.199,0-2.025,0.864-2.333,1.818
			c-0.194,0.594-0.21,1.116-0.21,1.765V73.711z"/>
	</g>
	<g>
		<path d="M25.073,115.952v-12.964h1.685l3.824,11.434h0.033l3.759-11.434h1.669v12.964h-1.102v-11.56h-0.033l-3.824,11.56h-1.037
			l-3.84-11.56h-0.033v11.56H25.073z"/>
		<path d="M42.327,110.514c0.356-0.036,0.956-0.144,1.28-0.306s0.356-0.648,0.356-0.972c0-1.099-0.583-1.891-2.09-1.891
			c-1.345,0-2.269,0.486-2.447,2.106h-0.989c0.146-2.197,1.621-3.079,3.452-3.079c1.702,0,3.046,0.738,3.046,2.899v5.078
			c0,0.846,0.195,1.044,1.021,0.72v0.846c-0.146,0.054-0.486,0.18-0.762,0.18c-0.162,0-0.292-0.018-0.438-0.054
			c-0.648-0.108-0.762-0.738-0.778-1.386c-0.81,1.008-1.912,1.548-3.127,1.548c-1.475,0-2.803-0.882-2.803-2.683
			c0-1.566,0.972-2.521,2.933-2.809L42.327,110.514z M43.964,111.054c-0.826,0.378-1.669,0.45-2.512,0.522
			c-1.475,0.126-2.366,0.72-2.366,1.981c0,1.134,0.891,1.674,1.815,1.674c1.539,0,3.062-0.828,3.062-2.719V111.054z"/>
		<path d="M50.394,111.918l-2.609,4.033h-1.183l3.225-4.825l-2.966-4.501h1.199l2.317,3.709l2.382-3.709h1.231l-3.03,4.501
			l3.144,4.825h-1.167L50.394,111.918z"/>
		<path d="M55.723,115.952v-12.964h3.986c1.296,0,2.512,0.09,3.598,0.972c1.54,1.243,1.944,3.763,1.944,5.492
			c0,1.71-0.34,3.619-1.41,4.916c-1.069,1.333-2.593,1.584-4.132,1.584H55.723z M56.826,114.907h2.641
			c0.989,0,1.848-0.072,2.739-0.594c1.556-0.882,1.945-3.097,1.945-4.861c0-1.891-0.373-3.961-2.01-4.934
			c-0.697-0.414-1.701-0.486-2.674-0.486h-2.641V114.907z"/>
		<path d="M71.131,110.514c0.356-0.036,0.956-0.144,1.28-0.306s0.356-0.648,0.356-0.972c0-1.099-0.583-1.891-2.09-1.891
			c-1.345,0-2.269,0.486-2.447,2.106h-0.989c0.146-2.197,1.621-3.079,3.452-3.079c1.702,0,3.046,0.738,3.046,2.899v5.078
			c0,0.846,0.195,1.044,1.021,0.72v0.846c-0.146,0.054-0.486,0.18-0.762,0.18c-0.162,0-0.292-0.018-0.438-0.054
			c-0.648-0.108-0.762-0.738-0.778-1.386c-0.81,1.008-1.912,1.548-3.127,1.548c-1.475,0-2.803-0.882-2.803-2.683
			c0-1.566,0.972-2.521,2.933-2.809L71.131,110.514z M72.767,111.054c-0.826,0.378-1.669,0.45-2.512,0.522
			c-1.475,0.126-2.366,0.72-2.366,1.981c0,1.134,0.891,1.674,1.815,1.674c1.539,0,3.062-0.828,3.062-2.719V111.054z"/>
		<path d="M79.231,115.988c-0.227,0.054-0.648,0.216-1.118,0.216c-0.956,0-1.491-0.468-1.491-1.854v-6.824h-1.183v-0.9h1.183v-2.593
			h0.973v2.593h1.572v0.9h-1.572v6.392c0,0.918,0.032,1.314,0.842,1.314c0.259,0,0.535-0.054,0.794-0.126V115.988z"/>
		<path d="M84.641,110.514c0.356-0.036,0.956-0.144,1.28-0.306s0.356-0.648,0.356-0.972c0-1.099-0.583-1.891-2.09-1.891
			c-1.345,0-2.269,0.486-2.447,2.106h-0.989c0.146-2.197,1.621-3.079,3.452-3.079c1.702,0,3.046,0.738,3.046,2.899v5.078
			c0,0.846,0.195,1.044,1.021,0.72v0.846c-0.146,0.054-0.486,0.18-0.762,0.18c-0.162,0-0.292-0.018-0.438-0.054
			c-0.648-0.108-0.762-0.738-0.778-1.386c-0.81,1.008-1.912,1.548-3.127,1.548c-1.475,0-2.803-0.882-2.803-2.683
			c0-1.566,0.972-2.521,2.933-2.809L84.641,110.514z M86.278,111.054c-0.826,0.378-1.669,0.45-2.512,0.522
			c-1.475,0.126-2.366,0.72-2.366,1.981c0,1.134,0.891,1.674,1.815,1.674c1.539,0,3.062-0.828,3.062-2.719V111.054z"/>
		<path d="M91.04,104.644h-0.032v11.308h-1.102v-12.964h1.248l6.741,11.325h0.033v-11.325h1.102v12.964h-1.28L91.04,104.644z"/>
		<path d="M107.176,106.625h0.973v9.327h-0.973v-1.296c-0.519,0.648-1.231,1.548-2.706,1.548c-2.236,0-2.982-1.494-2.982-3.439
			v-6.14h0.973v6.122c0,1.603,0.632,2.485,2.155,2.485c1.604,0,2.56-1.477,2.56-3.529V106.625z"/>
		<path d="M111.338,115.952h-0.972v-9.327h0.972v1.404h0.033c0.502-1.062,1.507-1.657,2.593-1.657c1.556,0,2.106,0.811,2.463,1.801
			c0.551-1.207,1.54-1.801,2.739-1.801c2.285,0,2.609,1.819,2.609,3.691v5.888h-0.972v-6.446c0-1.333-0.421-2.161-1.799-2.161
			c-0.713,0-1.41,0.342-1.896,1.062c-0.421,0.612-0.551,1.747-0.551,2.521v5.023h-0.973v-6.446c0-1.333-0.421-2.161-1.798-2.161
			c-0.713,0-1.41,0.342-1.896,1.062c-0.421,0.612-0.551,1.747-0.551,2.521V115.952z"/>
	</g>
	<g>
		<path d="M25.121,157.922v-12.963h3.986c1.296,0,2.512,0.09,3.598,0.972c1.54,1.243,1.944,3.763,1.944,5.492
			c0,1.71-0.34,3.619-1.41,4.916c-1.069,1.332-2.593,1.584-4.132,1.584H25.121z M26.223,156.878h2.642
			c0.988,0,1.847-0.072,2.738-0.595c1.556-0.882,1.945-3.096,1.945-4.861c0-1.891-0.373-3.961-2.01-4.934
			c-0.697-0.414-1.701-0.486-2.673-0.486h-2.642V156.878z"/>
		<path d="M40.529,152.485c0.356-0.036,0.956-0.144,1.28-0.306s0.356-0.648,0.356-0.972c0-1.099-0.583-1.891-2.09-1.891
			c-1.345,0-2.269,0.486-2.447,2.106h-0.989c0.146-2.197,1.621-3.079,3.452-3.079c1.702,0,3.046,0.738,3.046,2.899v5.077
			c0,0.847,0.195,1.045,1.021,0.721v0.846c-0.146,0.055-0.486,0.181-0.762,0.181c-0.162,0-0.292-0.019-0.438-0.055
			c-0.648-0.107-0.762-0.738-0.778-1.386c-0.81,1.008-1.912,1.548-3.127,1.548c-1.475,0-2.803-0.882-2.803-2.683
			c0-1.566,0.972-2.521,2.933-2.809L40.529,152.485z M42.165,153.025c-0.827,0.378-1.669,0.45-2.512,0.522
			c-1.475,0.126-2.366,0.72-2.366,1.98c0,1.135,0.891,1.675,1.815,1.675c1.539,0,3.062-0.828,3.062-2.719V153.025z"/>
		<path d="M48.629,157.958c-0.227,0.054-0.648,0.216-1.118,0.216c-0.956,0-1.491-0.468-1.491-1.854v-6.824h-1.183v-0.9h1.183v-2.593
			h0.973v2.593h1.572v0.9h-1.572v6.392c0,0.918,0.032,1.314,0.842,1.314c0.259,0,0.535-0.055,0.794-0.126V157.958z"/>
		<path d="M54.039,152.485c0.356-0.036,0.956-0.144,1.28-0.306s0.356-0.648,0.356-0.972c0-1.099-0.583-1.891-2.09-1.891
			c-1.345,0-2.269,0.486-2.447,2.106H50.15c0.146-2.197,1.621-3.079,3.452-3.079c1.702,0,3.046,0.738,3.046,2.899v5.077
			c0,0.847,0.195,1.045,1.021,0.721v0.846c-0.146,0.055-0.486,0.181-0.762,0.181c-0.162,0-0.292-0.019-0.438-0.055
			c-0.648-0.107-0.762-0.738-0.778-1.386c-0.81,1.008-1.912,1.548-3.127,1.548c-1.475,0-2.803-0.882-2.803-2.683
			c0-1.566,0.972-2.521,2.933-2.809L54.039,152.485z M55.676,153.025c-0.827,0.378-1.669,0.45-2.512,0.522
			c-1.475,0.126-2.366,0.72-2.366,1.98c0,1.135,0.891,1.675,1.815,1.675c1.539,0,3.062-0.828,3.062-2.719V153.025z"/>
		<path d="M60.438,146.615h-0.032v11.307h-1.102v-12.963h1.248l6.741,11.325h0.033v-11.325h1.102v12.963h-1.28L60.438,146.615z"/>
		<path d="M76.574,148.596h0.973v9.326h-0.973v-1.296c-0.519,0.647-1.231,1.548-2.706,1.548c-2.236,0-2.981-1.494-2.981-3.438v-6.14
			h0.972v6.121c0,1.603,0.632,2.485,2.155,2.485c1.604,0,2.56-1.477,2.56-3.529V148.596z"/>
		<path d="M80.736,157.922h-0.972v-9.326h0.972V150h0.033c0.502-1.062,1.507-1.657,2.593-1.657c1.556,0,2.106,0.811,2.463,1.801
			c0.551-1.207,1.54-1.801,2.739-1.801c2.285,0,2.609,1.819,2.609,3.691v5.887H90.2v-6.445c0-1.333-0.421-2.161-1.799-2.161
			c-0.713,0-1.41,0.342-1.896,1.062c-0.421,0.612-0.551,1.747-0.551,2.521v5.023h-0.973v-6.445c0-1.333-0.421-2.161-1.798-2.161
			c-0.713,0-1.41,0.342-1.896,1.062c-0.421,0.612-0.551,1.747-0.551,2.521V157.922z"/>
	</g>
	<g>
		<path d="M24.068,187.164h8.491v1.044h-3.694v11.92h-1.102v-11.92h-3.695V187.164z"/>
		<path d="M37.84,194.69c0.356-0.036,0.956-0.145,1.28-0.307s0.356-0.648,0.356-0.972c0-1.099-0.583-1.891-2.09-1.891
			c-1.345,0-2.269,0.485-2.447,2.106h-0.989c0.146-2.197,1.621-3.079,3.452-3.079c1.702,0,3.046,0.738,3.046,2.898v5.078
			c0,0.846,0.195,1.044,1.021,0.72v0.847c-0.146,0.054-0.486,0.18-0.762,0.18c-0.162,0-0.292-0.018-0.438-0.054
			c-0.648-0.108-0.762-0.738-0.778-1.387c-0.81,1.009-1.912,1.549-3.127,1.549c-1.475,0-2.803-0.883-2.803-2.683
			c0-1.566,0.972-2.521,2.933-2.81L37.84,194.69z M39.476,195.23c-0.826,0.378-1.669,0.45-2.512,0.521
			c-1.475,0.127-2.366,0.721-2.366,1.981c0,1.134,0.891,1.674,1.815,1.674c1.539,0,3.062-0.828,3.062-2.719V195.23z"/>
		<path d="M44.076,200.128h-0.972v-12.964h0.972v5.131c0.616-1.134,1.815-1.746,2.998-1.746c2.56,0,3.743,2.322,3.743,4.934
			c0,2.755-1.086,4.897-3.792,4.897c-1.069,0-2.35-0.666-2.917-1.891h-0.032V200.128z M46.912,199.407
			c1.637,0,2.852-1.314,2.868-3.655c0.081-2.34-0.859-4.23-2.868-4.23c-1.767,0-2.836,1.8-2.836,3.907
			C44.076,197.679,45.081,199.407,46.912,199.407z"/>
		<path d="M53.034,200.128v-12.964h0.972v12.964H53.034z"/>
		<path d="M57.084,195.717c-0.016,2.017,0.956,3.69,2.82,3.69c1.264,0,2.252-0.774,2.544-2.143h1.085
			c-0.486,1.765-1.491,3.115-3.63,3.115c-2.69,0-3.857-2.125-3.857-4.88c0-2.719,1.458-4.951,3.857-4.951
			c2.301,0,3.711,1.818,3.695,5.168H57.084z M62.561,194.816c0-1.818-0.908-3.295-2.658-3.295c-1.718,0-2.625,1.53-2.82,3.295
			H62.561z"/>
	</g>
	<g>
		<path class="st3" d="M105.78,18.264V5.3h7.519v1.044h-6.417v4.681h5.833v1.044h-5.833v6.194H105.78z"/>
		<path class="st3" d="M115.289,18.264V5.3h1.102v12.964H115.289z"/>
		<path class="st3" d="M119.29,18.264V5.3h7.519v1.044h-6.417v4.681h5.833v1.044h-5.833v6.194H119.29z"/>
		<path class="st3" d="M133.337,4.958c3.646,0,5.494,3.043,5.494,6.842c0,3.727-1.848,6.806-5.445,6.806
			c-3.598,0-5.429-3.079-5.429-6.806C127.941,8.019,129.853,4.958,133.337,4.958z M137.729,11.8c0-3.601-1.669-5.798-4.359-5.798
			c-2.998,0-4.311,2.791-4.311,5.798c0,3.061,1.296,5.762,4.343,5.762C136.432,17.562,137.729,14.825,137.729,11.8z"/>
		<path class="st3" d="M150.17,16.535h0.032L152.747,5.3h1.134l-3.062,12.964h-1.215l-2.707-11.451h-0.032l-2.706,11.451h-1.216
			L139.929,5.3h1.102l2.512,11.235h0.033L146.281,5.3h1.231L150.17,16.535z"/>
		<path class="st3" d="M156.291,18.264h-0.972V8.937h0.972v1.747h0.033c0.535-1.495,1.329-1.999,2.738-1.999v1.17
			c-2.188-0.054-2.771,1.747-2.771,3.835V18.264z"/>
		<path class="st3" d="M160.763,6.902V5.3h1.069v1.603H160.763z M160.811,18.264V8.937h0.972v9.327H160.811z"/>
		<path class="st3" d="M167.211,18.3c-0.227,0.054-0.648,0.216-1.118,0.216c-0.956,0-1.491-0.468-1.491-1.854V9.837h-1.183v-0.9
			h1.183V6.344h0.973v2.593h1.572v0.9h-1.572v6.392c0,0.918,0.032,1.314,0.842,1.314c0.259,0,0.535-0.054,0.794-0.126V18.3z"/>
		<path class="st3" d="M169.364,13.853c-0.016,2.017,0.957,3.691,2.82,3.691c1.264,0,2.252-0.774,2.544-2.143h1.086
			c-0.486,1.765-1.491,3.115-3.63,3.115c-2.69,0-3.857-2.125-3.857-4.879c0-2.719,1.458-4.952,3.857-4.952
			c2.301,0,3.711,1.819,3.695,5.168H169.364z M174.842,12.952c0-1.818-0.908-3.295-2.658-3.295c-1.718,0-2.625,1.53-2.82,3.295
			H174.842z"/>
	</g>
	<g>
		<path d="M225.004,39.086V26.123h7.762v1.044h-6.66v4.681h6.012v1.044h-6.012v5.149h6.822v1.044H225.004z"/>
		<path d="M236.004,27.779h-0.032v11.308h-1.102V26.123h1.248l6.741,11.325h0.033V26.123h1.102v12.964h-1.28L236.004,27.779z"/>
		<path d="M251.524,25.78c3.646,0,5.494,3.043,5.494,6.842c0,3.727-1.848,6.806-5.445,6.806c-3.598,0-5.429-3.079-5.429-6.806
			C246.128,28.841,248.04,25.78,251.524,25.78z M255.916,32.623c0-3.601-1.669-5.798-4.359-5.798c-2.998,0-4.311,2.791-4.311,5.798
			c0,3.061,1.296,5.762,4.343,5.762C254.619,38.384,255.916,35.647,255.916,32.623z"/>
	</g>
	<g>
		<path d="M190.789,157.922v-12.964h3.986c1.296,0,2.512,0.09,3.598,0.972c1.54,1.243,1.944,3.763,1.944,5.492
			c0,1.71-0.34,3.619-1.41,4.915c-1.069,1.333-2.593,1.585-4.132,1.585H190.789z M191.891,156.877h2.642
			c0.988,0,1.847-0.071,2.738-0.594c1.556-0.882,1.945-3.097,1.945-4.861c0-1.891-0.373-3.961-2.01-4.934
			c-0.697-0.414-1.701-0.486-2.673-0.486h-2.642V156.877z"/>
		<path d="M206.197,152.484c0.356-0.036,0.956-0.144,1.28-0.306s0.356-0.648,0.356-0.972c0-1.099-0.583-1.891-2.09-1.891
			c-1.345,0-2.269,0.486-2.447,2.106h-0.989c0.146-2.197,1.621-3.079,3.452-3.079c1.702,0,3.046,0.738,3.046,2.899v5.078
			c0,0.846,0.195,1.044,1.021,0.72v0.847c-0.146,0.054-0.486,0.18-0.762,0.18c-0.162,0-0.292-0.018-0.438-0.054
			c-0.648-0.108-0.762-0.738-0.778-1.387c-0.81,1.009-1.912,1.549-3.127,1.549c-1.475,0-2.803-0.883-2.803-2.683
			c0-1.566,0.972-2.521,2.933-2.809L206.197,152.484z M207.833,153.024c-0.827,0.378-1.669,0.45-2.512,0.522
			c-1.475,0.126-2.366,0.72-2.366,1.981c0,1.134,0.891,1.674,1.815,1.674c1.539,0,3.062-0.828,3.062-2.719V153.024z"/>
		<path d="M214.297,157.958c-0.227,0.054-0.648,0.216-1.118,0.216c-0.956,0-1.491-0.468-1.491-1.854v-6.824h-1.183v-0.9h1.183
			v-2.593h0.973v2.593h1.572v0.9h-1.572v6.392c0,0.919,0.032,1.314,0.842,1.314c0.259,0,0.535-0.054,0.794-0.126V157.958z"/>
		<path d="M219.707,152.484c0.356-0.036,0.956-0.144,1.28-0.306s0.356-0.648,0.356-0.972c0-1.099-0.583-1.891-2.09-1.891
			c-1.345,0-2.269,0.486-2.447,2.106h-0.989c0.146-2.197,1.621-3.079,3.452-3.079c1.702,0,3.046,0.738,3.046,2.899v5.078
			c0,0.846,0.195,1.044,1.021,0.72v0.847c-0.146,0.054-0.486,0.18-0.762,0.18c-0.162,0-0.292-0.018-0.438-0.054
			c-0.648-0.108-0.762-0.738-0.778-1.387c-0.81,1.009-1.912,1.549-3.127,1.549c-1.475,0-2.803-0.883-2.803-2.683
			c0-1.566,0.972-2.521,2.933-2.809L219.707,152.484z M221.344,153.024c-0.827,0.378-1.669,0.45-2.512,0.522
			c-1.475,0.126-2.366,0.72-2.366,1.981c0,1.134,0.891,1.674,1.815,1.674c1.539,0,3.062-0.828,3.062-2.719V153.024z"/>
		<path d="M226.106,146.614h-0.032v11.308h-1.102v-12.964h1.248l6.741,11.325h0.033v-11.325h1.102v12.964h-1.28L226.106,146.614z"/>
		<path d="M242.242,148.595h0.973v9.327h-0.973v-1.297c-0.519,0.648-1.231,1.549-2.706,1.549c-2.236,0-2.981-1.494-2.981-3.439
			v-6.139h0.972v6.122c0,1.603,0.632,2.484,2.155,2.484c1.604,0,2.56-1.477,2.56-3.528V148.595z"/>
		<path d="M246.404,157.922h-0.972v-9.327h0.972V150h0.033c0.502-1.062,1.507-1.657,2.593-1.657c1.556,0,2.106,0.811,2.463,1.801
			c0.551-1.207,1.54-1.801,2.739-1.801c2.285,0,2.609,1.819,2.609,3.691v5.888h-0.972v-6.446c0-1.333-0.421-2.161-1.799-2.161
			c-0.713,0-1.41,0.342-1.896,1.062c-0.421,0.612-0.551,1.747-0.551,2.521v5.023h-0.973v-6.446c0-1.333-0.421-2.161-1.798-2.161
			c-0.713,0-1.41,0.342-1.896,1.062c-0.421,0.612-0.551,1.747-0.551,2.521V157.922z"/>
	</g>
	<g>
		<path d="M217.633,187.164h8.491v1.044h-3.694v11.92h-1.102v-11.92h-3.695V187.164z"/>
		<path d="M231.404,194.69c0.356-0.036,0.956-0.145,1.28-0.307s0.356-0.648,0.356-0.972c0-1.099-0.583-1.891-2.09-1.891
			c-1.345,0-2.269,0.485-2.447,2.106h-0.989c0.146-2.197,1.621-3.079,3.452-3.079c1.702,0,3.046,0.738,3.046,2.898v5.078
			c0,0.846,0.195,1.044,1.021,0.72v0.847c-0.146,0.054-0.486,0.18-0.762,0.18c-0.162,0-0.292-0.018-0.438-0.054
			c-0.648-0.108-0.762-0.738-0.778-1.387c-0.81,1.009-1.912,1.549-3.127,1.549c-1.475,0-2.803-0.883-2.803-2.683
			c0-1.566,0.972-2.521,2.933-2.81L231.404,194.69z M233.041,195.23c-0.826,0.378-1.669,0.45-2.512,0.521
			c-1.475,0.127-2.366,0.721-2.366,1.981c0,1.134,0.891,1.674,1.815,1.674c1.539,0,3.062-0.828,3.062-2.719V195.23z"/>
		<path d="M237.64,200.128h-0.972v-12.964h0.972v5.131c0.616-1.134,1.815-1.746,2.998-1.746c2.56,0,3.743,2.322,3.743,4.934
			c0,2.755-1.086,4.897-3.792,4.897c-1.069,0-2.35-0.666-2.917-1.891h-0.032V200.128z M240.476,199.407
			c1.637,0,2.852-1.314,2.868-3.655c0.081-2.34-0.859-4.23-2.868-4.23c-1.767,0-2.836,1.8-2.836,3.907
			C237.64,197.679,238.645,199.407,240.476,199.407z"/>
		<path d="M246.598,200.128v-12.964h0.972v12.964H246.598z"/>
		<path d="M250.648,195.717c-0.016,2.017,0.956,3.69,2.82,3.69c1.264,0,2.252-0.774,2.544-2.143h1.085
			c-0.486,1.765-1.491,3.115-3.63,3.115c-2.69,0-3.857-2.125-3.857-4.88c0-2.719,1.458-4.951,3.857-4.951
			c2.301,0,3.711,1.818,3.695,5.168H250.648z M256.126,194.816c0-1.818-0.908-3.295-2.658-3.295c-1.718,0-2.625,1.53-2.82,3.295
			H256.126z"/>
	</g>
	<g>
	</g>
	<g>
	</g>
	<g>
	</g>
	<g>
	</g>
	<g>
	</g>
	<g>
	</g>
	<g>
	</g>
	<g>
	</g>
	<g>
	</g>
	<g>
	</g>
	<g>
	</g>
	<g>
	</g>
	<g>
	</g>
	<g>
	</g>
	<g>
	</g>
</g>
</svg>
