<?xml version="1.0" encoding="utf-8"?>
<!-- Generator: Adobe Illustrator 28.2.0, SVG Export Plug-In . SVG Version: 6.00 Build 0)  -->
<svg version="1.1" xmlns="http://www.w3.org/2000/svg" xmlns:xlink="http://www.w3.org/1999/xlink" x="0px" y="0px"
	 width="281.185px" height="94.822px" viewBox="0 0 281.185 94.822" style="enable-background:new 0 0 281.185 94.822;"
	 xml:space="preserve">
<style type="text/css">
	.st0{fill:#F0F0F0;stroke:#828282;stroke-miterlimit:10;}
	.st1{fill:none;stroke:#828282;stroke-miterlimit:10;}
	.st2{fill:#828282;}
	.st3{fill:#FFFFFF;}
</style>
<g id="レイヤー_2">
	<rect x="20.323" y="0.5" class="st0" width="240.539" height="93.822"/>
	<line class="st1" x1="0" y1="25.814" x2="20.323" y2="25.814"/>
	<line class="st1" x1="0" y1="25.814" x2="20.323" y2="25.814"/>
	<line class="st1" x1="260.862" y1="25.814" x2="281.185" y2="25.814"/>
	<rect x="20.323" y="0.5" class="st2" width="240.539" height="21"/>
</g>
<g id="レイヤー_3">
	<g>
		<path d="M25.121,39.028V26.064h7.762v1.044h-6.66v4.681h6.012v1.044h-6.012v5.149h6.822v1.044H25.121z"/>
		<path d="M36.121,27.72h-0.032v11.308h-1.102V26.064h1.248l6.741,11.325h0.033V26.064h1.102v12.964h-1.28L36.121,27.72z"/>
	</g>
	<g>
		<path d="M25.511,73.711V60.748h1.102v12.964H25.511z"/>
		<path d="M30.452,73.711h-0.972v-9.327h0.972v1.296c0.778-0.918,1.54-1.549,2.706-1.549c1.021,0,1.961,0.36,2.561,1.333
			c0.405,0.667,0.421,1.369,0.421,2.143v6.104h-0.973v-6.086c0-1.674-0.616-2.521-2.171-2.521c-1.199,0-2.025,0.864-2.333,1.818
			c-0.194,0.594-0.21,1.116-0.21,1.765V73.711z"/>
	</g>
	<g>
		<path class="st3" d="M102.298,12.61v-1.044h4.991v6.698h-0.94v-2.215c-0.81,1.549-2.058,2.557-4.359,2.557
			c-2.949,0-5.104-2.287-5.104-6.896c0-3.799,1.718-6.752,5.396-6.752c2.447,0,4.375,1.333,4.878,4.105h-1.134
			c-0.389-1.945-1.929-3.061-3.663-3.061c-3.079,0-4.375,2.521-4.375,6.194c0,2.863,1.556,5.366,4.229,5.366
			c1.264,0,2.755-0.594,3.516-2.269c0.373-0.811,0.486-1.711,0.502-2.683H102.298z"/>
		<path class="st3" d="M110.396,13.853c-0.016,2.017,0.957,3.691,2.82,3.691c1.264,0,2.252-0.774,2.544-2.143h1.086
			c-0.486,1.765-1.491,3.115-3.63,3.115c-2.69,0-3.857-2.125-3.857-4.879c0-2.719,1.458-4.952,3.857-4.952
			c2.301,0,3.711,1.819,3.695,5.168H110.396z M115.874,12.952c0-1.818-0.908-3.295-2.658-3.295c-1.718,0-2.625,1.53-2.82,3.295
			H115.874z"/>
		<path class="st3" d="M121.754,18.3c-0.227,0.054-0.648,0.216-1.118,0.216c-0.956,0-1.491-0.468-1.491-1.854V9.837h-1.183v-0.9
			h1.183V6.344h0.973v2.593h1.572v0.9h-1.572v6.392c0,0.918,0.032,1.314,0.842,1.314c0.259,0,0.535-0.054,0.794-0.126V18.3z"/>
		<path class="st3" d="M123.453,18.264V5.3h4.213c2.739,0,3.824,1.314,3.824,3.259c0,1.801-0.923,2.611-1.863,2.791v0.036
			c1.604,0.27,2.398,1.512,2.398,3.223c0,2.701-1.588,3.655-3.808,3.655H123.453z M124.556,11.025h2.787
			c2.301,0,3.046-0.9,3.046-2.467c0-1.62-0.875-2.214-3.29-2.214h-2.544V11.025z M124.556,17.219h2.803
			c2.431,0,3.565-0.36,3.565-2.611c0-2.143-1.361-2.539-3.436-2.539h-2.933V17.219z"/>
		<path class="st3" d="M134.048,20.802c0.259,0.054,0.535,0.108,0.81,0.108c1.102,0,1.264-1.765,1.637-2.575l-3.257-9.399h1.086
			l2.69,8.012l2.69-8.012h1.053l-3.127,9.201c-0.794,2.341-1.312,3.799-2.658,3.799c-0.34,0-0.664-0.054-0.923-0.126V20.802z"/>
		<path class="st3" d="M145.162,18.3c-0.227,0.054-0.648,0.216-1.118,0.216c-0.956,0-1.491-0.468-1.491-1.854V9.837h-1.183v-0.9
			h1.183V6.344h0.973v2.593h1.572v0.9h-1.572v6.392c0,0.918,0.032,1.314,0.842,1.314c0.259,0,0.535-0.054,0.794-0.126V18.3z"/>
		<path class="st3" d="M147.316,13.853c-0.016,2.017,0.956,3.691,2.82,3.691c1.264,0,2.252-0.774,2.544-2.143h1.085
			c-0.486,1.765-1.491,3.115-3.63,3.115c-2.69,0-3.857-2.125-3.857-4.879c0-2.719,1.458-4.952,3.857-4.952
			c2.301,0,3.711,1.819,3.695,5.168H147.316z M152.793,12.952c0-1.818-0.908-3.295-2.658-3.295c-1.718,0-2.625,1.53-2.82,3.295
			H152.793z"/>
		<path class="st3" d="M156.323,14.393c0.178,2.323,1.572,3.169,3.354,3.169c2.09,0,2.966-1.26,2.966-2.683
			c0-4.016-7.114-1.351-7.114-6.446c0-1.8,1.345-3.475,3.954-3.475c2.625,0,3.938,1.765,3.921,3.872h-1.053
			c0-1.981-1.377-2.827-2.868-2.827c-2.236,0-3.046,1.53-2.852,2.863c0.502,3.349,7.114,0.937,7.114,5.96
			c0,2.376-1.572,3.781-4.262,3.781c-2.431,0-4.229-1.405-4.229-4.213H156.323z"/>
		<path class="st3" d="M165.719,6.902V5.3h1.069v1.603H165.719z M165.767,18.264V8.937h0.972v9.327H165.767z"/>
		<path class="st3" d="M168.586,18.264V17.31l5.575-7.473h-5.202v-0.9h6.45v0.954l-5.574,7.472h5.785v0.9H168.586z"/>
		<path class="st3" d="M177.917,13.853c-0.016,2.017,0.956,3.691,2.82,3.691c1.264,0,2.252-0.774,2.544-2.143h1.085
			c-0.486,1.765-1.491,3.115-3.63,3.115c-2.69,0-3.857-2.125-3.857-4.879c0-2.719,1.458-4.952,3.857-4.952
			c2.301,0,3.711,1.819,3.695,5.168H177.917z M183.395,12.952c0-1.818-0.908-3.295-2.658-3.295c-1.718,0-2.625,1.53-2.82,3.295
			H183.395z"/>
	</g>
	<g>
		<path d="M225.004,39.086V26.123h7.762v1.044h-6.66v4.681h6.012v1.044h-6.012v5.149h6.822v1.044H225.004z"/>
		<path d="M236.004,27.779h-0.032v11.308h-1.102V26.123h1.248l6.741,11.325h0.033V26.123h1.102v12.964h-1.28L236.004,27.779z"/>
		<path d="M251.524,25.78c3.646,0,5.494,3.043,5.494,6.842c0,3.727-1.848,6.806-5.445,6.806c-3.598,0-5.429-3.079-5.429-6.806
			C246.128,28.841,248.04,25.78,251.524,25.78z M255.916,32.623c0-3.601-1.669-5.798-4.359-5.798c-2.998,0-4.311,2.791-4.311,5.798
			c0,3.061,1.296,5.762,4.343,5.762C254.619,38.384,255.916,35.647,255.916,32.623z"/>
	</g>
	<g>
		<path d="M215.268,67.824v5.888h-1.102V60.748h4.57c2.56,0,3.97,1.008,3.97,3.403c0,1.639-0.551,2.503-1.896,3.169
			c1.377,0.522,1.458,2.143,1.491,3.511c0.049,1.962,0.194,2.503,0.486,2.755v0.126h-1.215c-0.454-0.882-0.34-3.313-0.519-4.303
			c-0.259-1.404-1.215-1.584-2.317-1.584H215.268z M218.703,66.779c1.637,0,2.901-0.756,2.901-2.575
			c0-1.944-1.361-2.413-2.836-2.413h-3.5v4.987H218.703z"/>
		<path d="M225.441,69.3c-0.016,2.017,0.957,3.691,2.82,3.691c1.264,0,2.252-0.774,2.544-2.143h1.086
			c-0.486,1.765-1.491,3.115-3.63,3.115c-2.69,0-3.857-2.125-3.857-4.879c0-2.719,1.458-4.952,3.857-4.952
			c2.301,0,3.711,1.819,3.695,5.168H225.441z M230.918,68.4c0-1.818-0.908-3.295-2.658-3.295c-1.718,0-2.625,1.53-2.82,3.295
			H230.918z"/>
		<path d="M234.416,70.794c0.308,1.603,1.053,2.197,2.512,2.197c1.41,0,2.074-0.828,2.074-1.729c0-2.701-5.38-0.792-5.38-4.465
			c0-1.548,1.085-2.665,2.949-2.665c1.815,0,2.998,0.829,3.241,2.935h-0.989c-0.178-1.44-1.053-1.962-2.269-1.962
			c-1.231,0-1.896,0.648-1.896,1.603c0,2.539,5.38,0.954,5.38,4.537c0,1.783-1.442,2.719-3.419,2.719
			c-1.977,0-3.111-1.404-3.192-3.169H234.416z"/>
		<path d="M247.637,64.385h0.973v9.327h-0.973v-1.296c-0.519,0.648-1.231,1.548-2.706,1.548c-2.236,0-2.981-1.494-2.981-3.439v-6.14
			h0.972v6.122c0,1.603,0.632,2.485,2.155,2.485c1.604,0,2.56-1.477,2.56-3.529V64.385z"/>
		<path d="M251.102,73.711V60.748h0.972v12.964H251.102z"/>
		<path d="M257.502,73.748c-0.227,0.054-0.648,0.216-1.118,0.216c-0.956,0-1.491-0.468-1.491-1.854v-6.824h-1.183v-0.9h1.183v-2.593
			h0.973v2.593h1.572v0.9h-1.572v6.392c0,0.918,0.032,1.314,0.842,1.314c0.259,0,0.535-0.054,0.794-0.126V73.748z"/>
	</g>
	<g>
	</g>
	<g>
	</g>
	<g>
	</g>
	<g>
	</g>
	<g>
	</g>
	<g>
	</g>
	<g>
	</g>
	<g>
	</g>
	<g>
	</g>
	<g>
	</g>
	<g>
	</g>
	<g>
	</g>
	<g>
	</g>
	<g>
	</g>
	<g>
	</g>
</g>
</svg>
