<?xml version="1.0" encoding="utf-8"?>
<!-- Generator: Adobe Illustrator 28.2.0, SVG Export Plug-In . SVG Version: 6.00 Build 0)  -->
<svg version="1.1" xmlns="http://www.w3.org/2000/svg" xmlns:xlink="http://www.w3.org/1999/xlink" x="0px" y="0px"
	 width="281.185px" height="94.822px" viewBox="0 0 281.185 94.822" style="enable-background:new 0 0 281.185 94.822;"
	 xml:space="preserve">
<style type="text/css">
	.st0{fill:#F0F0F0;stroke:#828282;stroke-miterlimit:10;}
	.st1{fill:none;stroke:#828282;stroke-miterlimit:10;}
	.st2{fill:#828282;}
	.st3{fill:#FFFFFF;}
</style>
<g id="レイヤー_2">
	<rect x="20.323" y="0.5" class="st0" width="240.539" height="93.822"/>
	<line class="st1" x1="0" y1="25.814" x2="20.323" y2="25.814"/>
	<line class="st1" x1="0" y1="25.814" x2="20.323" y2="25.814"/>
	<line class="st1" x1="260.862" y1="25.814" x2="281.185" y2="25.814"/>
	<rect x="20.323" y="0.5" class="st2" width="240.539" height="21"/>
</g>
<g id="レイヤー_3">
	<g>
		<path d="M25.121,39.028V26.064h7.762v1.044h-6.66v4.681h6.012v1.044h-6.012v5.149h6.822v1.044H25.121z"/>
		<path d="M36.121,27.72h-0.032v11.308h-1.102V26.064h1.248l6.741,11.325h0.033V26.064h1.102v12.964h-1.28L36.121,27.72z"/>
	</g>
	<g>
		<path d="M25.511,73.711V60.748h1.102v12.964H25.511z"/>
		<path d="M29.625,73.711V60.748h3.986c1.296,0,2.512,0.09,3.598,0.972c1.54,1.243,1.944,3.763,1.944,5.492
			c0,1.71-0.34,3.619-1.41,4.916c-1.069,1.333-2.593,1.584-4.132,1.584H29.625z M30.727,72.667h2.641
			c0.989,0,1.848-0.072,2.739-0.594c1.556-0.882,1.945-3.097,1.945-4.861c0-1.891-0.373-3.961-2.01-4.934
			c-0.697-0.414-1.701-0.486-2.674-0.486h-2.641V72.667z"/>
	</g>
	<g>
		<path class="st3" d="M86.542,18.264V5.3h1.102v11.919h6.255v1.044H86.542z"/>
		<path class="st3" d="M94.853,13.6c0-2.719,1.296-4.916,3.889-4.916c2.625,0,3.889,2.179,3.889,4.916
			c0,2.953-1.54,4.916-3.889,4.916C96.603,18.479,94.853,16.859,94.853,13.6z M98.742,9.657c-2.042,0-2.852,1.926-2.852,3.943
			c0,2.323,0.989,3.943,2.852,3.943c2.042,0,2.852-1.945,2.852-3.943C101.578,11.404,100.8,9.657,98.742,9.657z"/>
		<path class="st3" d="M110.893,8.937h0.973v8.426c0,2.503-0.746,4.718-3.938,4.718c-2.463,0-3.484-1.567-3.549-2.683h1.037
			c0.292,1.404,1.361,1.71,2.512,1.71c2.658,0,3.014-2.196,2.965-4.339c-0.616,1.134-1.814,1.747-2.998,1.747
			c-2.561,0-3.744-2.323-3.744-4.934c0-2.754,1.086-4.897,3.792-4.897c1.07,0,2.35,0.667,2.917,1.891h0.032V8.937z M108.057,9.657
			c-1.637,0-2.852,1.314-2.869,3.655c-0.081,2.341,0.859,4.231,2.869,4.231c1.766,0,2.835-1.8,2.835-3.907
			C110.893,11.386,109.889,9.657,108.057,9.657z"/>
		<path class="st3" d="M120.791,8.937h0.972v8.426c0,2.503-0.746,4.718-3.938,4.718c-2.463,0-3.484-1.567-3.549-2.683h1.037
			c0.292,1.404,1.361,1.71,2.512,1.71c2.658,0,3.014-2.196,2.966-4.339c-0.616,1.134-1.815,1.747-2.998,1.747
			c-2.561,0-3.743-2.323-3.743-4.934c0-2.754,1.085-4.897,3.792-4.897c1.07,0,2.35,0.667,2.917,1.891h0.033V8.937z M117.955,9.657
			c-1.637,0-2.852,1.314-2.868,3.655c-0.081,2.341,0.858,4.231,2.868,4.231c1.766,0,2.836-1.8,2.836-3.907
			C120.791,11.386,119.786,9.657,117.955,9.657z"/>
		<path class="st3" d="M124.305,6.902V5.3h1.069v1.603H124.305z M124.353,18.264V8.937h0.972v9.327H124.353z"/>
		<path class="st3" d="M128.776,18.264h-0.973V8.937h0.973v1.296c0.778-0.918,1.54-1.549,2.706-1.549
			c1.021,0,1.961,0.36,2.561,1.333c0.405,0.667,0.421,1.369,0.421,2.143v6.104h-0.973v-6.086c0-1.674-0.616-2.521-2.171-2.521
			c-1.199,0-2.025,0.864-2.333,1.818c-0.194,0.594-0.21,1.116-0.21,1.765V18.264z"/>
		<path class="st3" d="M143.292,8.937h0.973v8.426c0,2.503-0.746,4.718-3.938,4.718c-2.463,0-3.484-1.567-3.549-2.683h1.037
			c0.292,1.404,1.361,1.71,2.512,1.71c2.658,0,3.014-2.196,2.965-4.339c-0.616,1.134-1.814,1.747-2.998,1.747
			c-2.561,0-3.744-2.323-3.744-4.934c0-2.754,1.086-4.897,3.792-4.897c1.07,0,2.35,0.667,2.917,1.891h0.032V8.937z M140.457,9.657
			c-1.637,0-2.852,1.314-2.869,3.655c-0.081,2.341,0.859,4.231,2.869,4.231c1.766,0,2.835-1.8,2.835-3.907
			C143.292,11.386,142.288,9.657,140.457,9.657z"/>
		<path class="st3" d="M146.854,18.264V5.3h7.762v1.044h-6.66v4.681h6.012v1.044h-6.012v5.149h6.822v1.044H146.854z"/>
		<path class="st3" d="M157.579,18.264h-0.972V8.937h0.972v1.296c0.778-0.918,1.54-1.549,2.706-1.549
			c1.021,0,1.961,0.36,2.561,1.333c0.405,0.667,0.421,1.369,0.421,2.143v6.104h-0.973v-6.086c0-1.674-0.616-2.521-2.171-2.521
			c-1.199,0-2.025,0.864-2.333,1.818c-0.194,0.594-0.21,1.116-0.21,1.765V18.264z"/>
		<path class="st3" d="M169.471,12.826c0.356-0.036,0.956-0.144,1.28-0.306s0.356-0.648,0.356-0.972c0-1.099-0.583-1.891-2.09-1.891
			c-1.345,0-2.269,0.486-2.447,2.106h-0.989c0.146-2.197,1.621-3.079,3.452-3.079c1.702,0,3.046,0.738,3.046,2.899v5.078
			c0,0.846,0.195,1.044,1.021,0.72v0.846c-0.146,0.054-0.486,0.18-0.762,0.18c-0.162,0-0.292-0.018-0.438-0.054
			c-0.648-0.108-0.762-0.738-0.778-1.386c-0.81,1.008-1.912,1.548-3.127,1.548c-1.475,0-2.803-0.882-2.803-2.683
			c0-1.566,0.972-2.521,2.933-2.809L169.471,12.826z M171.107,13.366c-0.827,0.378-1.669,0.45-2.512,0.522
			c-1.475,0.126-2.366,0.72-2.366,1.981c0,1.134,0.891,1.674,1.815,1.674c1.539,0,3.062-0.828,3.062-2.719V13.366z"/>
		<path class="st3" d="M175.707,18.264h-0.972V5.3h0.972v5.131c0.616-1.134,1.815-1.747,2.998-1.747c2.56,0,3.743,2.323,3.743,4.934
			c0,2.755-1.085,4.897-3.792,4.897c-1.069,0-2.35-0.666-2.917-1.891h-0.032V18.264z M178.543,17.543
			c1.637,0,2.852-1.314,2.868-3.655c0.081-2.34-0.859-4.231-2.868-4.231c-1.767,0-2.836,1.8-2.836,3.907
			C175.707,15.815,176.712,17.543,178.543,17.543z"/>
		<path class="st3" d="M184.665,18.264V5.3h0.972v12.964H184.665z"/>
		<path class="st3" d="M188.715,13.853c-0.016,2.017,0.957,3.691,2.82,3.691c1.264,0,2.252-0.774,2.544-2.143h1.086
			c-0.486,1.765-1.491,3.115-3.63,3.115c-2.69,0-3.857-2.125-3.857-4.879c0-2.719,1.458-4.952,3.857-4.952
			c2.301,0,3.711,1.819,3.695,5.168H188.715z M194.192,12.952c0-1.818-0.908-3.295-2.658-3.295c-1.718,0-2.625,1.53-2.82,3.295
			H194.192z"/>
	</g>
	<g>
		<path d="M225.004,39.086V26.123h7.762v1.044h-6.66v4.681h6.012v1.044h-6.012v5.149h6.822v1.044H225.004z"/>
		<path d="M236.004,27.779h-0.032v11.308h-1.102V26.123h1.248l6.741,11.325h0.033V26.123h1.102v12.964h-1.28L236.004,27.779z"/>
		<path d="M251.524,25.78c3.646,0,5.494,3.043,5.494,6.842c0,3.727-1.848,6.806-5.445,6.806c-3.598,0-5.429-3.079-5.429-6.806
			C246.128,28.841,248.04,25.78,251.524,25.78z M255.916,32.623c0-3.601-1.669-5.798-4.359-5.798c-2.998,0-4.311,2.791-4.311,5.798
			c0,3.061,1.296,5.762,4.343,5.762C254.619,38.384,255.916,35.647,255.916,32.623z"/>
	</g>
	<g>
	</g>
	<g>
	</g>
	<g>
	</g>
	<g>
	</g>
	<g>
	</g>
	<g>
	</g>
	<g>
	</g>
	<g>
	</g>
	<g>
	</g>
	<g>
	</g>
	<g>
	</g>
	<g>
	</g>
	<g>
	</g>
	<g>
	</g>
	<g>
	</g>
</g>
</svg>
