<?xml version="1.0" encoding="utf-8"?>
<!-- Generator: Adobe Illustrator 28.2.0, SVG Export Plug-In . SVG Version: 6.00 Build 0)  -->
<svg version="1.1" xmlns="http://www.w3.org/2000/svg" xmlns:xlink="http://www.w3.org/1999/xlink" x="0px" y="0px"
	 width="281.185px" height="347.217px" viewBox="0 0 281.185 347.217" style="enable-background:new 0 0 281.185 347.217;"
	 xml:space="preserve">
<style type="text/css">
	.st0{fill:#F0F0F0;stroke:#828282;stroke-miterlimit:10;}
	.st1{fill:none;stroke:#828282;stroke-miterlimit:10;}
	.st2{fill:#828282;}
	.st3{fill:#FFFFFF;}
</style>
<g id="レイヤー_2">
	<rect x="20.323" y="0.5" class="st0" width="240.539" height="346.217"/>
	<line class="st1" x1="0" y1="25.814" x2="20.323" y2="25.814"/>
	<line class="st1" x1="0" y1="25.814" x2="20.323" y2="25.814"/>
	<line class="st1" x1="260.862" y1="25.814" x2="281.185" y2="25.814"/>
	<rect x="20.323" y="0.5" class="st2" width="240.539" height="21"/>
</g>
<g id="レイヤー_3">
	<g>
		<path d="M25.122,39.028V26.064h7.762v1.044h-6.66v4.681h6.012v1.044h-6.012v5.149h6.822v1.044H25.122z"/>
		<path d="M37.791,34.995l-2.609,4.033h-1.183l3.225-4.825l-2.966-4.501h1.199l2.317,3.709l2.382-3.709h1.231l-3.03,4.501
			l3.144,4.825h-1.167L37.791,34.995z"/>
		<path d="M43.573,34.617c-0.016,2.017,0.956,3.691,2.82,3.691c1.264,0,2.252-0.774,2.544-2.143h1.085
			c-0.486,1.765-1.491,3.115-3.63,3.115c-2.69,0-3.857-2.125-3.857-4.879c0-2.719,1.458-4.952,3.857-4.952
			c2.301,0,3.711,1.819,3.695,5.168H43.573z M49.051,33.716c0-1.818-0.908-3.295-2.658-3.295c-1.718,0-2.625,1.53-2.82,3.295H49.051
			z"/>
		<path d="M57.928,32.636c-0.34-1.386-1.199-2.214-2.496-2.214c-1.993,0-2.819,2.017-2.819,3.961c0,1.963,0.81,3.925,2.819,3.925
			c1.442,0,2.35-0.954,2.577-2.503h1.037c-0.34,2.071-1.507,3.475-3.614,3.475c-2.674,0-3.856-2.143-3.856-4.897
			c0-2.593,1.345-4.934,3.856-4.934c1.929,0,3.192,1.026,3.484,3.187H57.928z"/>
		<path d="M66.676,29.701h0.973v9.327h-0.973v-1.296c-0.519,0.648-1.231,1.548-2.706,1.548c-2.236,0-2.982-1.494-2.982-3.439v-6.14
			h0.973v6.122c0,1.603,0.632,2.485,2.155,2.485c1.604,0,2.56-1.477,2.56-3.529V29.701z"/>
		<path d="M72.945,39.064c-0.227,0.054-0.648,0.216-1.118,0.216c-0.956,0-1.491-0.468-1.491-1.854v-6.824h-1.183v-0.9h1.183v-2.593
			h0.973v2.593h1.572v0.9h-1.572v6.392c0,0.918,0.032,1.314,0.842,1.314c0.259,0,0.535-0.054,0.794-0.126V39.064z"/>
		<path d="M75.099,34.617c-0.016,2.017,0.956,3.691,2.82,3.691c1.264,0,2.252-0.774,2.544-2.143h1.085
			c-0.486,1.765-1.491,3.115-3.63,3.115c-2.69,0-3.857-2.125-3.857-4.879c0-2.719,1.458-4.952,3.857-4.952
			c2.301,0,3.711,1.819,3.695,5.168H75.099z M80.576,33.716c0-1.818-0.908-3.295-2.658-3.295c-1.718,0-2.625,1.53-2.82,3.295H80.576
			z"/>
	</g>
	<g>
		<path d="M24.052,74.623l4.586-12.964h1.248l4.473,12.964h-1.134l-1.345-4.069h-5.315l-1.377,4.069H24.052z M26.937,69.51h4.57
			l-2.285-6.806L26.937,69.51z"/>
		<path d="M38.698,70.59l-2.609,4.033h-1.183l3.225-4.825l-2.966-4.501h1.199l2.317,3.709l2.382-3.709h1.231l-3.03,4.501
			l3.144,4.825h-1.167L38.698,70.59z"/>
		<path d="M43.979,63.262v-1.603h1.069v1.603H43.979z M44.027,74.623v-9.327h0.972v9.327H44.027z"/>
		<path d="M48.045,71.706c0.308,1.603,1.053,2.197,2.512,2.197c1.41,0,2.074-0.828,2.074-1.729c0-2.701-5.38-0.792-5.38-4.465
			c0-1.548,1.085-2.665,2.949-2.665c1.815,0,2.998,0.829,3.241,2.935h-0.988c-0.178-1.44-1.053-1.962-2.269-1.962
			c-1.231,0-1.896,0.648-1.896,1.603c0,2.539,5.38,0.954,5.38,4.537c0,1.783-1.442,2.719-3.419,2.719
			c-1.977,0-3.111-1.404-3.192-3.169H48.045z"/>
	</g>
	<g>
		<path d="M25.073,116.691v-12.964h4.262c3.03,0,3.808,1.674,3.808,3.619c0,2.899-2.317,3.619-4.473,3.619h-2.496v5.726H25.073z
			 M28.703,109.921c2.058,0,3.338-0.468,3.338-2.665c0-1.621-0.94-2.485-3.014-2.485h-2.852v5.149H28.703z"/>
		<path d="M34.323,112.027c0-2.719,1.296-4.916,3.889-4.916c2.625,0,3.889,2.179,3.889,4.916c0,2.953-1.54,4.916-3.889,4.916
			C36.073,116.907,34.323,115.287,34.323,112.027z M38.212,108.085c-2.042,0-2.852,1.926-2.852,3.943
			c0,2.323,0.989,3.943,2.852,3.943c2.042,0,2.852-1.945,2.852-3.943C41.048,109.831,40.27,108.085,38.212,108.085z"/>
		<path d="M43.979,105.33v-1.603h1.069v1.603H43.979z M44.027,116.691v-9.327h0.972v9.327H44.027z"/>
		<path d="M48.45,116.691h-0.972v-9.327h0.972v1.296c0.778-0.918,1.54-1.549,2.706-1.549c1.021,0,1.961,0.36,2.561,1.333
			c0.405,0.667,0.421,1.369,0.421,2.143v6.104h-0.973v-6.086c0-1.674-0.616-2.521-2.171-2.521c-1.199,0-2.025,0.864-2.333,1.818
			c-0.194,0.594-0.21,1.116-0.21,1.765V116.691z"/>
		<path d="M59.434,116.727c-0.227,0.054-0.648,0.216-1.118,0.216c-0.956,0-1.491-0.468-1.491-1.854v-6.824h-1.183v-0.9h1.183v-2.593
			h0.973v2.593h1.572v0.9h-1.572v6.392c0,0.918,0.032,1.314,0.842,1.314c0.259,0,0.535-0.054,0.794-0.126V116.727z"/>
		<path d="M62.236,105.383h-0.032v11.308h-1.102v-12.964h1.248l6.741,11.325h0.033v-11.325h1.102v12.964h-1.28L62.236,105.383z"/>
		<path d="M72.133,112.027c0-2.719,1.296-4.916,3.889-4.916c2.625,0,3.889,2.179,3.889,4.916c0,2.953-1.54,4.916-3.889,4.916
			C73.883,116.907,72.133,115.287,72.133,112.027z M76.023,108.085c-2.042,0-2.852,1.926-2.852,3.943
			c0,2.323,0.989,3.943,2.852,3.943c2.042,0,2.852-1.945,2.852-3.943C78.859,109.831,78.081,108.085,76.023,108.085z"/>
	</g>
	<g>
		<path d="M24.991,158.391v-12.964h6.987v1.044h-5.996v4.681h5.412v1.044h-5.412v5.149h6.142v1.044H24.991z"/>
		<path d="M33.914,158.391h-0.875v-9.327h0.875v1.296c0.7-0.918,1.386-1.549,2.436-1.549c0.919,0,1.765,0.36,2.305,1.333
			c0.365,0.667,0.379,1.369,0.379,2.143v6.104h-0.875v-6.086c0-1.674-0.554-2.521-1.955-2.521c-1.08,0-1.823,0.864-2.101,1.818
			c-0.175,0.594-0.189,1.116-0.189,1.765V158.391z"/>
		<path d="M43.888,152.953c0.321-0.036,0.861-0.144,1.152-0.306c0.292-0.162,0.321-0.648,0.321-0.972
			c0-1.099-0.525-1.891-1.882-1.891c-1.211,0-2.042,0.486-2.203,2.106h-0.89c0.131-2.197,1.459-3.079,3.107-3.079
			c1.531,0,2.742,0.738,2.742,2.899v5.078c0,0.846,0.175,1.044,0.919,0.72v0.846c-0.131,0.054-0.438,0.18-0.686,0.18
			c-0.146,0-0.263-0.018-0.394-0.054c-0.584-0.108-0.686-0.738-0.7-1.386c-0.729,1.008-1.722,1.548-2.815,1.548
			c-1.328,0-2.524-0.882-2.524-2.683c0-1.566,0.875-2.521,2.641-2.809L43.888,152.953z M45.361,153.493
			c-0.744,0.378-1.503,0.45-2.261,0.522c-1.328,0.126-2.13,0.72-2.13,1.981c0,1.134,0.802,1.674,1.634,1.674
			c1.386,0,2.757-0.828,2.757-2.719V153.493z"/>
		<path d="M48.771,158.391h-0.875v-12.964h0.875v5.131c0.554-1.134,1.634-1.747,2.699-1.747c2.305,0,3.37,2.323,3.37,4.934
			c0,2.755-0.978,4.897-3.414,4.897c-0.963,0-2.115-0.666-2.626-1.891h-0.029V158.391z M51.324,157.67
			c1.473,0,2.567-1.314,2.582-3.655c0.073-2.34-0.773-4.231-2.582-4.231c-1.59,0-2.553,1.8-2.553,3.907
			C48.771,155.942,49.675,157.67,51.324,157.67z"/>
		<path d="M56.104,158.391v-12.964h0.875v12.964H56.104z"/>
		<path d="M59.02,153.98c-0.015,2.017,0.861,3.691,2.539,3.691c1.138,0,2.027-0.774,2.29-2.143h0.978
			c-0.438,1.765-1.342,3.115-3.268,3.115c-2.422,0-3.472-2.125-3.472-4.879c0-2.719,1.313-4.952,3.472-4.952
			c2.071,0,3.34,1.819,3.326,5.168H59.02z M63.95,153.079c0-1.818-0.817-3.295-2.392-3.295c-1.546,0-2.363,1.53-2.539,3.295H63.95z"
			/>
		<path d="M65.945,158.391v-12.964h3.836c2.728,0,3.428,1.674,3.428,3.619c0,2.899-2.086,3.619-4.026,3.619h-2.247v5.726H65.945z
			 M69.213,151.621c1.853,0,3.005-0.468,3.005-2.665c0-1.621-0.846-2.485-2.713-2.485h-2.567v5.149H69.213z"/>
		<path d="M73.541,153.727c0-2.719,1.167-4.916,3.501-4.916c2.363,0,3.501,2.179,3.501,4.916c0,2.953-1.386,4.916-3.501,4.916
			C75.116,158.606,73.541,156.986,73.541,153.727z M77.042,149.784c-1.838,0-2.567,1.926-2.567,3.943
			c0,2.323,0.89,3.943,2.567,3.943c1.838,0,2.567-1.945,2.567-3.943C79.594,151.531,78.894,149.784,77.042,149.784z"/>
		<path d="M81.502,147.029v-1.603h0.963v1.603H81.502z M81.546,158.391v-9.327h0.875v9.327H81.546z"/>
		<path d="M84.797,158.391h-0.875v-9.327h0.875v1.296c0.7-0.918,1.386-1.549,2.436-1.549c0.919,0,1.765,0.36,2.305,1.333
			c0.365,0.667,0.379,1.369,0.379,2.143v6.104h-0.875v-6.086c0-1.674-0.554-2.521-1.955-2.521c-1.08,0-1.823,0.864-2.101,1.818
			c-0.175,0.594-0.189,1.116-0.189,1.765V158.391z"/>
		<path d="M93.954,158.427c-0.204,0.054-0.583,0.216-1.006,0.216c-0.861,0-1.342-0.468-1.342-1.854v-6.824H90.54v-0.9h1.065v-2.593
			h0.875v2.593h1.415v0.9h-1.415v6.392c0,0.918,0.029,1.314,0.758,1.314c0.233,0,0.481-0.054,0.715-0.126V158.427z"/>
		<path d="M93.806,145.427h7.644v1.044h-3.326v11.919h-0.992v-11.919h-3.326V145.427z"/>
		<path d="M102.92,158.391h-0.875v-9.327h0.875v1.747h0.029c0.481-1.495,1.196-1.999,2.465-1.999v1.17
			c-1.969-0.054-2.495,1.747-2.495,3.835V158.391z"/>
		<path d="M111.962,149.064h0.875v13h-0.875v-5.167c-0.554,1.134-1.634,1.747-2.699,1.747c-2.305,0-3.37-2.323-3.37-4.934
			c0-2.754,0.978-4.897,3.414-4.897c0.963,0,2.115,0.667,2.625,1.891h0.029V149.064z M109.409,149.784
			c-1.809,0-2.655,1.891-2.582,4.231c0.015,2.341,1.109,3.655,2.582,3.655c1.648,0,2.553-1.729,2.553-3.979
			C111.962,151.585,110.999,149.784,109.409,149.784z"/>
		<path d="M114.437,158.391v-12.964h0.992v11.919h5.631v1.044H114.437z"/>
		<path d="M121.771,147.029v-1.603h0.963v1.603H121.771z M121.815,158.391v-9.327h0.875v9.327H121.815z"/>
		<path d="M124.949,158.391h-0.875v-9.327h0.875v1.404h0.029c0.452-1.062,1.357-1.657,2.334-1.657c1.4,0,1.896,0.811,2.217,1.801
			c0.496-1.207,1.386-1.801,2.465-1.801c2.057,0,2.349,1.819,2.349,3.691v5.888h-0.875v-6.446c0-1.333-0.379-2.161-1.619-2.161
			c-0.642,0-1.269,0.342-1.707,1.062c-0.379,0.612-0.496,1.747-0.496,2.521v5.023h-0.875v-6.446c0-1.333-0.379-2.161-1.619-2.161
			c-0.642,0-1.269,0.342-1.707,1.062c-0.379,0.612-0.496,1.747-0.496,2.521V158.391z"/>
	</g>
	<g>
		<path d="M219.143,39.028V26.064h3.986c1.297,0,2.512,0.09,3.598,0.972c1.54,1.243,1.944,3.763,1.944,5.492
			c0,1.71-0.34,3.619-1.409,4.916c-1.069,1.333-2.593,1.584-4.133,1.584H219.143z M220.245,37.983h2.642
			c0.988,0,1.847-0.072,2.738-0.594c1.556-0.882,1.944-3.097,1.944-4.861c0-1.891-0.373-3.961-2.01-4.934
			c-0.696-0.414-1.701-0.486-2.673-0.486h-2.642V37.983z"/>
		<path d="M230.143,34.364c0-2.719,1.296-4.916,3.889-4.916c2.626,0,3.89,2.179,3.89,4.916c0,2.953-1.54,4.916-3.89,4.916
			C231.893,39.244,230.143,37.624,230.143,34.364z M234.031,30.421c-2.041,0-2.852,1.926-2.852,3.943
			c0,2.323,0.988,3.943,2.852,3.943c2.042,0,2.853-1.945,2.853-3.943C236.867,32.168,236.09,30.421,234.031,30.421z"/>
		<path d="M240.673,39.028h-0.972v-9.327h0.972v1.296c0.778-0.918,1.54-1.549,2.706-1.549c1.021,0,1.961,0.36,2.561,1.333
			c0.405,0.667,0.422,1.369,0.422,2.143v6.104h-0.973v-6.086c0-1.674-0.616-2.521-2.172-2.521c-1.199,0-2.025,0.864-2.333,1.818
			c-0.194,0.594-0.211,1.116-0.211,1.765V39.028z"/>
		<path d="M249.308,34.617c-0.017,2.017,0.956,3.691,2.819,3.691c1.265,0,2.253-0.774,2.545-2.143h1.085
			c-0.486,1.765-1.49,3.115-3.63,3.115c-2.689,0-3.856-2.125-3.856-4.879c0-2.719,1.458-4.952,3.856-4.952
			c2.302,0,3.711,1.819,3.695,5.168H249.308z M254.785,33.716c0-1.818-0.908-3.295-2.658-3.295c-1.718,0-2.625,1.53-2.819,3.295
			H254.785z"/>
	</g>
	<g>
		<path d="M221.849,74.623V61.659h4.213c2.739,0,3.824,1.314,3.824,3.259c0,1.801-0.923,2.611-1.863,2.791v0.036
			c1.604,0.27,2.398,1.512,2.398,3.223c0,2.701-1.588,3.655-3.809,3.655H221.849z M222.95,67.385h2.787
			c2.302,0,3.047-0.9,3.047-2.467c0-1.62-0.875-2.214-3.29-2.214h-2.544V67.385z M222.95,73.579h2.804
			c2.431,0,3.565-0.36,3.565-2.611c0-2.143-1.361-2.539-3.436-2.539h-2.934V73.579z"/>
		<path d="M238.195,65.296h0.973v9.327h-0.973v-1.296c-0.519,0.648-1.231,1.548-2.706,1.548c-2.236,0-2.981-1.494-2.981-3.439v-6.14
			h0.973v6.122c0,1.603,0.632,2.485,2.155,2.485c1.604,0,2.56-1.477,2.56-3.529V65.296z"/>
		<path d="M242.082,71.706c0.309,1.603,1.054,2.197,2.512,2.197c1.41,0,2.074-0.828,2.074-1.729c0-2.701-5.38-0.792-5.38-4.465
			c0-1.548,1.086-2.665,2.949-2.665c1.815,0,2.998,0.829,3.241,2.935h-0.988c-0.179-1.44-1.054-1.962-2.269-1.962
			c-1.231,0-1.896,0.648-1.896,1.603c0,2.539,5.38,0.954,5.38,4.537c0,1.783-1.442,2.719-3.419,2.719s-3.111-1.404-3.192-3.169
			H242.082z"/>
		<path d="M249.551,77.162c0.259,0.054,0.534,0.108,0.81,0.108c1.103,0,1.265-1.765,1.637-2.575l-3.257-9.399h1.086l2.689,8.012
			l2.69-8.012h1.053l-3.127,9.201c-0.794,2.341-1.312,3.799-2.658,3.799c-0.34,0-0.664-0.054-0.923-0.126V77.162z"/>
	</g>
	<g>
		<path d="M211.772,116.691l4.586-12.964h1.248l4.473,12.964h-1.135l-1.345-4.069h-5.315l-1.377,4.069H211.772z M214.656,111.578
			h4.569l-2.284-6.806L214.656,111.578z"/>
		<path d="M229.447,110.299c-0.34-1.386-1.199-2.214-2.495-2.214c-1.993,0-2.819,2.017-2.819,3.961c0,1.963,0.81,3.925,2.819,3.925
			c1.442,0,2.35-0.954,2.576-2.503h1.037c-0.34,2.071-1.507,3.475-3.613,3.475c-2.674,0-3.856-2.143-3.856-4.897
			c0-2.593,1.345-4.934,3.856-4.934c1.929,0,3.192,1.026,3.484,3.187H229.447z"/>
		<path d="M235.457,116.727c-0.227,0.054-0.648,0.216-1.118,0.216c-0.956,0-1.491-0.468-1.491-1.854v-6.824h-1.183v-0.9h1.183
			v-2.593h0.973v2.593h1.572v0.9h-1.572v6.392c0,0.918,0.032,1.314,0.843,1.314c0.259,0,0.535-0.054,0.794-0.126V116.727z"/>
		<path d="M237.109,105.33v-1.603h1.069v1.603H237.109z M237.157,116.691v-9.327h0.972v9.327H237.157z"/>
		<path d="M239.716,107.364h1.054l2.723,7.994l2.722-7.994h1.054l-3.257,9.327h-1.086L239.716,107.364z"/>
		<path d="M249.307,112.28c-0.016,2.017,0.957,3.691,2.82,3.691c1.264,0,2.252-0.774,2.544-2.143h1.086
			c-0.486,1.765-1.491,3.115-3.63,3.115c-2.69,0-3.857-2.125-3.857-4.879c0-2.719,1.459-4.952,3.857-4.952
			c2.301,0,3.711,1.819,3.694,5.168H249.307z M254.784,111.379c0-1.818-0.907-3.295-2.657-3.295c-1.718,0-2.625,1.53-2.82,3.295
			H254.784z"/>
	</g>
	<g>
		<path d="M153.954,149.19c-0.408-2.215-1.518-3.061-3.312-3.061c-2.538,0-3.632,2.683-3.632,5.744c0,2.899,0.86,5.816,3.72,5.816
			c1.809,0,2.932-1.513,3.325-3.565h1.036c-0.467,2.502-1.736,4.609-4.551,4.609c-3.238,0-4.522-3.151-4.522-6.824
			c0-4.952,2.101-6.824,4.887-6.824c2.159,0,3.734,1.422,4.069,4.105H153.954z"/>
		<path d="M155.67,153.727c0-2.719,1.167-4.916,3.501-4.916c2.363,0,3.501,2.179,3.501,4.916c0,2.953-1.386,4.916-3.501,4.916
			C157.245,158.606,155.67,156.986,155.67,153.727z M159.171,149.784c-1.838,0-2.567,1.926-2.567,3.943
			c0,2.323,0.89,3.943,2.567,3.943c1.838,0,2.567-1.945,2.567-3.943C161.724,151.531,161.024,149.784,159.171,149.784z"/>
		<path d="M164.302,158.391h-0.875v-9.327h0.875v1.404h0.029c0.452-1.062,1.356-1.657,2.334-1.657c1.4,0,1.896,0.811,2.217,1.801
			c0.496-1.207,1.386-1.801,2.466-1.801c2.057,0,2.349,1.819,2.349,3.691v5.888h-0.875v-6.446c0-1.333-0.38-2.161-1.62-2.161
			c-0.642,0-1.269,0.342-1.706,1.062c-0.38,0.612-0.496,1.747-0.496,2.521v5.023h-0.875v-6.446c0-1.333-0.38-2.161-1.619-2.161
			c-0.643,0-1.27,0.342-1.707,1.062c-0.379,0.612-0.496,1.747-0.496,2.521V158.391z"/>
		<path d="M175.718,158.391h-0.875v-9.327h0.875v1.404h0.029c0.452-1.062,1.356-1.657,2.334-1.657c1.4,0,1.896,0.811,2.217,1.801
			c0.496-1.207,1.386-1.801,2.466-1.801c2.057,0,2.349,1.819,2.349,3.691v5.888h-0.875v-6.446c0-1.333-0.38-2.161-1.62-2.161
			c-0.642,0-1.269,0.342-1.706,1.062c-0.38,0.612-0.496,1.747-0.496,2.521v5.023h-0.875v-6.446c0-1.333-0.38-2.161-1.619-2.161
			c-0.643,0-1.27,0.342-1.707,1.062c-0.379,0.612-0.496,1.747-0.496,2.521V158.391z"/>
		<path d="M189.847,152.953c0.321-0.036,0.861-0.144,1.152-0.306c0.292-0.162,0.321-0.648,0.321-0.972
			c0-1.099-0.525-1.891-1.882-1.891c-1.211,0-2.042,0.486-2.202,2.106h-0.891c0.132-2.197,1.459-3.079,3.107-3.079
			c1.532,0,2.742,0.738,2.742,2.899v5.078c0,0.846,0.176,1.044,0.919,0.72v0.846c-0.131,0.054-0.438,0.18-0.686,0.18
			c-0.146,0-0.263-0.018-0.394-0.054c-0.583-0.108-0.686-0.738-0.7-1.386c-0.729,1.008-1.722,1.548-2.815,1.548
			c-1.327,0-2.523-0.882-2.523-2.683c0-1.566,0.875-2.521,2.641-2.809L189.847,152.953z M191.32,153.493
			c-0.744,0.378-1.502,0.45-2.261,0.522c-1.328,0.126-2.13,0.72-2.13,1.981c0,1.134,0.802,1.674,1.634,1.674
			c1.386,0,2.757-0.828,2.757-2.719V153.493z"/>
		<path d="M194.628,158.391h-0.875v-9.327h0.875v1.296c0.7-0.918,1.386-1.549,2.437-1.549c0.919,0,1.765,0.36,2.305,1.333
			c0.364,0.667,0.379,1.369,0.379,2.143v6.104h-0.875v-6.086c0-1.674-0.555-2.521-1.955-2.521c-1.079,0-1.823,0.864-2.101,1.818
			c-0.175,0.594-0.189,1.116-0.189,1.765V158.391z"/>
		<path d="M206.965,145.427h0.876v12.964h-0.876v-1.639h-0.029c-0.51,1.225-1.662,1.891-2.625,1.891
			c-2.437,0-3.414-2.143-3.414-4.897c0-2.611,1.065-4.934,3.37-4.934c1.064,0,2.145,0.612,2.698,1.747V145.427z M204.412,149.784
			c-1.809,0-2.654,1.891-2.582,4.231c0.015,2.341,1.109,3.655,2.582,3.655c1.648,0,2.553-1.729,2.553-3.979
			C206.965,151.585,206.002,149.784,204.412,149.784z"/>
		<path d="M208.478,158.391l4.129-12.964h1.123l4.026,12.964h-1.021l-1.211-4.069h-4.784l-1.24,4.069H208.478z M211.074,153.277
			h4.114l-2.058-6.806L211.074,153.277z"/>
		<path d="M219.282,158.391h-0.875v-12.964h0.875v5.131c0.555-1.134,1.634-1.747,2.699-1.747c2.305,0,3.369,2.323,3.369,4.934
			c0,2.755-0.978,4.897-3.413,4.897c-0.963,0-2.115-0.666-2.626-1.891h-0.029V158.391z M221.835,157.67
			c1.474,0,2.567-1.314,2.582-3.655c0.073-2.34-0.773-4.231-2.582-4.231c-1.59,0-2.553,1.8-2.553,3.907
			C219.282,155.942,220.187,157.67,221.835,157.67z"/>
		<path d="M225.988,153.727c0-2.719,1.167-4.916,3.501-4.916c2.363,0,3.501,2.179,3.501,4.916c0,2.953-1.386,4.916-3.501,4.916
			C227.564,158.606,225.988,156.986,225.988,153.727z M229.489,149.784c-1.838,0-2.567,1.926-2.567,3.943
			c0,2.323,0.89,3.943,2.567,3.943c1.838,0,2.567-1.945,2.567-3.943C232.042,151.531,231.342,149.784,229.489,149.784z"/>
		<path d="M234.78,158.391h-0.875v-9.327h0.875v1.747h0.029c0.481-1.495,1.196-1.999,2.466-1.999v1.17
			c-1.97-0.054-2.495,1.747-2.495,3.835V158.391z"/>
		<path d="M240.643,158.427c-0.204,0.054-0.584,0.216-1.007,0.216c-0.86,0-1.342-0.468-1.342-1.854v-6.824h-1.064v-0.9h1.064v-2.593
			h0.875v2.593h1.415v0.9h-1.415v6.392c0,0.918,0.029,1.314,0.759,1.314c0.233,0,0.481-0.054,0.715-0.126V158.427z"/>
		<path d="M241.852,153.98c-0.015,2.017,0.86,3.691,2.538,3.691c1.138,0,2.027-0.774,2.29-2.143h0.978
			c-0.438,1.765-1.342,3.115-3.268,3.115c-2.422,0-3.472-2.125-3.472-4.879c0-2.719,1.312-4.952,3.472-4.952
			c2.071,0,3.341,1.819,3.326,5.168H241.852z M246.782,153.079c0-1.818-0.817-3.295-2.393-3.295c-1.546,0-2.363,1.53-2.538,3.295
			H246.782z"/>
		<path d="M254.525,145.427h0.875v12.964h-0.875v-1.639h-0.029c-0.511,1.225-1.663,1.891-2.626,1.891
			c-2.436,0-3.413-2.143-3.413-4.897c0-2.611,1.064-4.934,3.369-4.934c1.065,0,2.145,0.612,2.699,1.747V145.427z M251.972,149.784
			c-1.81,0-2.655,1.891-2.582,4.231c0.015,2.341,1.108,3.655,2.582,3.655c1.648,0,2.553-1.729,2.553-3.979
			C254.525,151.585,253.562,149.784,251.972,149.784z"/>
	</g>
	<g>
		<path d="M177.024,194.57v5.888h-1.102v-12.964h4.569c2.561,0,3.971,1.008,3.971,3.403c0,1.639-0.552,2.503-1.896,3.169
			c1.378,0.522,1.459,2.143,1.491,3.511c0.049,1.962,0.194,2.503,0.486,2.755v0.126h-1.216c-0.454-0.882-0.34-3.313-0.519-4.303
			c-0.259-1.404-1.215-1.584-2.317-1.584H177.024z M180.459,193.526c1.637,0,2.9-0.756,2.9-2.575c0-1.944-1.361-2.413-2.836-2.413
			h-3.5v4.987H180.459z"/>
		<path d="M187.196,196.047c-0.016,2.017,0.957,3.691,2.82,3.691c1.264,0,2.252-0.774,2.544-2.143h1.086
			c-0.486,1.765-1.491,3.115-3.63,3.115c-2.69,0-3.857-2.125-3.857-4.879c0-2.719,1.459-4.952,3.857-4.952
			c2.301,0,3.711,1.819,3.694,5.168H187.196z M192.674,195.147c0-1.818-0.907-3.295-2.657-3.295c-1.718,0-2.625,1.53-2.82,3.295
			H192.674z"/>
		<path d="M196.172,197.541c0.308,1.603,1.053,2.197,2.512,2.197c1.409,0,2.074-0.828,2.074-1.729c0-2.701-5.38-0.792-5.38-4.465
			c0-1.548,1.085-2.665,2.949-2.665c1.814,0,2.998,0.829,3.241,2.935h-0.989c-0.178-1.44-1.053-1.962-2.269-1.962
			c-1.231,0-1.896,0.648-1.896,1.603c0,2.539,5.38,0.954,5.38,4.537c0,1.783-1.442,2.719-3.419,2.719
			c-1.978,0-3.111-1.404-3.192-3.169H196.172z"/>
		<path d="M209.393,191.131h0.973v9.327h-0.973v-1.296c-0.519,0.648-1.231,1.548-2.706,1.548c-2.236,0-2.981-1.494-2.981-3.439
			v-6.14h0.972v6.122c0,1.603,0.632,2.485,2.155,2.485c1.604,0,2.561-1.477,2.561-3.529V191.131z"/>
		<path d="M213.555,200.458h-0.973v-9.327h0.973v1.404h0.032c0.502-1.062,1.507-1.657,2.593-1.657c1.556,0,2.106,0.811,2.463,1.801
			c0.552-1.207,1.54-1.801,2.739-1.801c2.284,0,2.608,1.819,2.608,3.691v5.888h-0.972v-6.446c0-1.333-0.422-2.161-1.799-2.161
			c-0.713,0-1.41,0.342-1.896,1.062c-0.421,0.612-0.551,1.747-0.551,2.521v5.023H217.8v-6.446c0-1.333-0.421-2.161-1.798-2.161
			c-0.714,0-1.41,0.342-1.896,1.062c-0.421,0.612-0.551,1.747-0.551,2.521V200.458z"/>
		<path d="M230.064,195.021c0.356-0.036,0.956-0.144,1.28-0.306s0.356-0.648,0.356-0.972c0-1.099-0.584-1.891-2.091-1.891
			c-1.345,0-2.269,0.486-2.446,2.106h-0.989c0.146-2.197,1.621-3.079,3.452-3.079c1.701,0,3.046,0.738,3.046,2.899v5.078
			c0,0.846,0.195,1.044,1.021,0.72v0.846c-0.146,0.054-0.486,0.18-0.762,0.18c-0.162,0-0.292-0.018-0.438-0.054
			c-0.648-0.108-0.762-0.738-0.778-1.386c-0.81,1.008-1.912,1.548-3.127,1.548c-1.475,0-2.804-0.882-2.804-2.683
			c0-1.566,0.973-2.521,2.934-2.809L230.064,195.021z M231.7,195.561c-0.826,0.378-1.669,0.45-2.512,0.522
			c-1.475,0.126-2.366,0.72-2.366,1.981c0,1.134,0.892,1.674,1.815,1.674c1.539,0,3.062-0.828,3.062-2.719V195.561z"/>
		<path d="M236.3,200.458h-0.973v-12.964h0.973v5.131c0.615-1.134,1.814-1.747,2.998-1.747c2.56,0,3.743,2.323,3.743,4.934
			c0,2.755-1.086,4.897-3.792,4.897c-1.069,0-2.35-0.666-2.917-1.891H236.3V200.458z M239.136,199.738
			c1.637,0,2.852-1.314,2.868-3.655c0.081-2.34-0.859-4.231-2.868-4.231c-1.767,0-2.836,1.8-2.836,3.907
			C236.3,198.009,237.305,199.738,239.136,199.738z"/>
		<path d="M245.258,200.458v-12.964h0.972v12.964H245.258z"/>
		<path d="M249.308,196.047c-0.017,2.017,0.956,3.691,2.819,3.691c1.265,0,2.253-0.774,2.545-2.143h1.085
			c-0.486,1.765-1.49,3.115-3.63,3.115c-2.689,0-3.856-2.125-3.856-4.879c0-2.719,1.458-4.952,3.856-4.952
			c2.302,0,3.711,1.819,3.695,5.168H249.308z M254.785,195.147c0-1.818-0.908-3.295-2.658-3.295c-1.718,0-2.625,1.53-2.819,3.295
			H254.785z"/>
	</g>
	<g>
		<path d="M222.772,283.913v-12.964h7.763v1.044h-6.66v4.681h6.012v1.044h-6.012v5.149h6.822v1.044H222.772z"/>
		<path d="M233.545,283.913h-0.973v-9.327h0.973v1.747h0.032c0.535-1.495,1.329-1.999,2.738-1.999v1.17
			c-2.188-0.054-2.771,1.747-2.771,3.835V283.913z"/>
		<path d="M238.94,283.913h-0.973v-9.327h0.973v1.747h0.032c0.535-1.495,1.329-1.999,2.738-1.999v1.17
			c-2.188-0.054-2.771,1.747-2.771,3.835V283.913z"/>
		<path d="M242.762,279.25c0-2.719,1.297-4.916,3.89-4.916c2.625,0,3.889,2.179,3.889,4.916c0,2.953-1.539,4.916-3.889,4.916
			C244.512,284.129,242.762,282.509,242.762,279.25z M246.651,275.307c-2.042,0-2.853,1.926-2.853,3.943
			c0,2.323,0.989,3.943,2.853,3.943c2.042,0,2.852-1.945,2.852-3.943C249.487,277.053,248.709,275.307,246.651,275.307z"/>
		<path d="M253.341,283.913h-0.972v-9.327h0.972v1.747h0.033c0.534-1.495,1.328-1.999,2.738-1.999v1.17
			c-2.188-0.054-2.771,1.747-2.771,3.835V283.913z"/>
	</g>
	<g>
		<path d="M198.002,238.654c0.179,2.323,1.572,3.169,3.354,3.169c2.091,0,2.966-1.26,2.966-2.683c0-4.016-7.114-1.351-7.114-6.446
			c0-1.8,1.346-3.475,3.954-3.475c2.625,0,3.938,1.765,3.922,3.872h-1.054c0-1.981-1.377-2.827-2.868-2.827
			c-2.236,0-3.046,1.53-2.852,2.863c0.502,3.349,7.113,0.937,7.113,5.96c0,2.376-1.571,3.781-4.262,3.781
			c-2.431,0-4.229-1.405-4.229-4.213H198.002z"/>
		<path d="M210.25,242.562c-0.227,0.054-0.648,0.216-1.118,0.216c-0.956,0-1.491-0.468-1.491-1.854v-6.824h-1.183v-0.9h1.183v-2.593
			h0.973v2.593h1.572v0.9h-1.572v6.392c0,0.918,0.032,1.314,0.843,1.314c0.259,0,0.535-0.054,0.794-0.126V242.562z"/>
		<path d="M215.661,237.088c0.356-0.036,0.956-0.144,1.28-0.306s0.356-0.648,0.356-0.972c0-1.099-0.584-1.891-2.091-1.891
			c-1.345,0-2.269,0.486-2.446,2.106h-0.989c0.146-2.197,1.621-3.079,3.452-3.079c1.701,0,3.046,0.738,3.046,2.899v5.078
			c0,0.846,0.195,1.044,1.021,0.72v0.846c-0.146,0.054-0.486,0.18-0.762,0.18c-0.162,0-0.292-0.018-0.438-0.054
			c-0.648-0.108-0.762-0.738-0.778-1.386c-0.81,1.008-1.912,1.548-3.127,1.548c-1.475,0-2.804-0.882-2.804-2.683
			c0-1.566,0.973-2.521,2.934-2.809L215.661,237.088z M217.298,237.628c-0.826,0.378-1.669,0.45-2.512,0.522
			c-1.475,0.126-2.366,0.72-2.366,1.981c0,1.134,0.892,1.674,1.815,1.674c1.539,0,3.062-0.828,3.062-2.719V237.628z"/>
		<path d="M221.784,242.525h-0.973v-9.327h0.973v1.296c0.777-0.918,1.539-1.549,2.706-1.549c1.021,0,1.961,0.36,2.561,1.333
			c0.404,0.667,0.421,1.369,0.421,2.143v6.104h-0.973v-6.086c0-1.674-0.615-2.521-2.171-2.521c-1.199,0-2.025,0.864-2.334,1.818
			c-0.194,0.594-0.21,1.116-0.21,1.765V242.525z"/>
		<path d="M236.301,229.562h0.973v12.964h-0.973v-1.639h-0.032c-0.567,1.225-1.848,1.891-2.917,1.891
			c-2.706,0-3.792-2.143-3.792-4.897c0-2.611,1.183-4.934,3.743-4.934c1.184,0,2.382,0.612,2.998,1.747V229.562z M233.465,233.919
			c-2.01,0-2.949,1.891-2.868,4.231c0.017,2.341,1.231,3.655,2.868,3.655c1.831,0,2.836-1.729,2.836-3.979
			C236.301,235.719,235.232,233.919,233.465,233.919z"/>
		<path d="M240.803,242.525h-0.973v-12.964h0.973v5.131c0.615-1.134,1.814-1.747,2.998-1.747c2.56,0,3.743,2.323,3.743,4.934
			c0,2.755-1.086,4.897-3.792,4.897c-1.069,0-2.35-0.666-2.917-1.891h-0.032V242.525z M243.639,241.805
			c1.637,0,2.852-1.314,2.868-3.655c0.081-2.34-0.859-4.231-2.868-4.231c-1.767,0-2.836,1.8-2.836,3.907
			C240.803,240.077,241.808,241.805,243.639,241.805z"/>
		<path d="M249.55,245.064c0.26,0.054,0.535,0.108,0.811,0.108c1.102,0,1.264-1.765,1.637-2.575l-3.258-9.399h1.086l2.69,8.012
			l2.689-8.012h1.054l-3.128,9.201c-0.794,2.341-1.312,3.799-2.657,3.799c-0.34,0-0.664-0.054-0.924-0.126V245.064z"/>
	</g>
	<g>
		<path d="M206.572,326.115v-12.964h7.762v1.044h-6.66v4.681h6.013v1.044h-6.013v5.149h6.822v1.044H206.572z"/>
		<path d="M217.345,326.115h-0.972v-9.327h0.972v1.747h0.033c0.534-1.495,1.328-1.999,2.738-1.999v1.17
			c-2.188-0.054-2.771,1.747-2.771,3.835V326.115z"/>
		<path d="M222.739,326.115h-0.972v-9.327h0.972v1.747h0.033c0.534-1.495,1.328-1.999,2.738-1.999v1.17
			c-2.188-0.054-2.771,1.747-2.771,3.835V326.115z"/>
		<path d="M226.563,321.452c0-2.719,1.296-4.916,3.889-4.916c2.626,0,3.89,2.179,3.89,4.916c0,2.953-1.54,4.916-3.89,4.916
			C228.313,326.331,226.563,324.711,226.563,321.452z M230.451,317.509c-2.041,0-2.852,1.926-2.852,3.943
			c0,2.323,0.988,3.943,2.852,3.943c2.042,0,2.853-1.945,2.853-3.943C233.287,319.255,232.51,317.509,230.451,317.509z"/>
		<path d="M237.142,326.115h-0.973v-9.327h0.973v1.747h0.032c0.535-1.495,1.329-1.999,2.738-1.999v1.17
			c-2.188-0.054-2.771,1.747-2.771,3.835V326.115z"/>
		<path d="M242.05,326.115v-12.964h1.102v12.964H242.05z"/>
		<path d="M246.164,326.115v-12.964h3.986c1.297,0,2.512,0.09,3.598,0.972c1.54,1.243,1.944,3.763,1.944,5.492
			c0,1.71-0.34,3.619-1.409,4.916c-1.069,1.333-2.593,1.584-4.133,1.584H246.164z M247.267,325.071h2.642
			c0.988,0,1.847-0.072,2.738-0.594c1.556-0.882,1.944-3.097,1.944-4.861c0-1.891-0.373-3.961-2.01-4.934
			c-0.696-0.414-1.701-0.486-2.673-0.486h-2.642V325.071z"/>
	</g>
	<g>
		<path class="st3" d="M77.316,18.264V5.3h1.685l3.824,11.434h0.033L86.617,5.3h1.669v12.964h-1.102V6.704h-0.033l-3.824,11.56
			H82.29l-3.84-11.56h-0.033v11.56H77.316z"/>
		<path class="st3" d="M99.139,9.063c-0.454-2.215-1.685-3.061-3.679-3.061c-2.819,0-4.035,2.683-4.035,5.744
			c0,2.899,0.956,5.816,4.132,5.816c2.009,0,3.257-1.513,3.694-3.565h1.151c-0.519,2.502-1.929,4.609-5.056,4.609
			c-3.597,0-5.023-3.151-5.023-6.824c0-4.952,2.333-6.824,5.429-6.824c2.398,0,4.148,1.422,4.521,4.105H99.139z"/>
		<path class="st3" d="M109.345,19.614v0.9h-8.103v-0.9H109.345z"/>
		<path class="st3" d="M110.607,18.264V5.3h1.685l3.824,11.434h0.033L119.908,5.3h1.669v12.964h-1.102V6.704h-0.033l-3.824,11.56
			h-1.037l-3.84-11.56h-0.033v11.56H110.607z"/>
		<path class="st3" d="M123.453,13.6c0-2.719,1.296-4.916,3.889-4.916c2.625,0,3.889,2.179,3.889,4.916
			c0,2.953-1.54,4.916-3.889,4.916C125.203,18.48,123.453,16.859,123.453,13.6z M127.342,9.657c-2.042,0-2.852,1.926-2.852,3.943
			c0,2.323,0.989,3.943,2.852,3.943c2.042,0,2.852-1.945,2.852-3.943C130.178,11.404,129.4,9.657,127.342,9.657z"/>
		<path class="st3" d="M132.12,8.937h1.053l2.723,7.994l2.722-7.994h1.054l-3.257,9.327h-1.086L132.12,8.937z"/>
		<path class="st3" d="M141.711,13.853c-0.016,2.017,0.957,3.691,2.82,3.691c1.264,0,2.252-0.774,2.544-2.143h1.086
			c-0.486,1.765-1.491,3.115-3.63,3.115c-2.69,0-3.857-2.125-3.857-4.879c0-2.719,1.458-4.952,3.857-4.952
			c2.301,0,3.711,1.819,3.695,5.168H141.711z M147.188,12.952c0-1.818-0.908-3.295-2.658-3.295c-1.718,0-2.625,1.53-2.82,3.295
			H147.188z"/>
		<path class="st3" d="M149.211,5.3h8.491v1.044h-3.694v11.919h-1.102V6.344h-3.695V5.3z"/>
		<path class="st3" d="M158.575,13.6c0-2.719,1.296-4.916,3.889-4.916c2.625,0,3.89,2.179,3.89,4.916c0,2.953-1.54,4.916-3.89,4.916
			C160.325,18.48,158.575,16.859,158.575,13.6z M162.464,9.657c-2.042,0-2.852,1.926-2.852,3.943c0,2.323,0.988,3.943,2.852,3.943
			c2.042,0,2.853-1.945,2.853-3.943C165.3,11.404,164.523,9.657,162.464,9.657z"/>
		<path class="st3" d="M168.231,18.264V5.3h4.262c3.03,0,3.809,1.674,3.809,3.619c0,2.899-2.317,3.619-4.473,3.619h-2.496v5.726
			H168.231z M171.86,11.494c2.058,0,3.338-0.468,3.338-2.665c0-1.621-0.939-2.485-3.014-2.485h-2.853v5.149H171.86z"/>
		<path class="st3" d="M177.481,13.6c0-2.719,1.296-4.916,3.889-4.916c2.625,0,3.89,2.179,3.89,4.916c0,2.953-1.54,4.916-3.89,4.916
			C179.231,18.48,177.481,16.859,177.481,13.6z M181.369,9.657c-2.042,0-2.852,1.926-2.852,3.943c0,2.323,0.988,3.943,2.852,3.943
			c2.042,0,2.853-1.945,2.853-3.943C184.205,11.404,183.428,9.657,181.369,9.657z"/>
		<path class="st3" d="M187.136,6.902V5.3h1.069v1.603H187.136z M187.185,18.264V8.937h0.972v9.327H187.185z"/>
		<path class="st3" d="M191.608,18.264h-0.973V8.937h0.973v1.296c0.777-0.918,1.539-1.549,2.706-1.549
			c1.021,0,1.961,0.36,2.561,1.333c0.404,0.667,0.421,1.369,0.421,2.143v6.104h-0.973v-6.086c0-1.674-0.615-2.521-2.171-2.521
			c-1.199,0-2.025,0.864-2.334,1.818c-0.194,0.594-0.21,1.116-0.21,1.765V18.264z"/>
		<path class="st3" d="M202.592,18.3c-0.228,0.054-0.648,0.216-1.118,0.216c-0.956,0-1.491-0.468-1.491-1.854V9.837H198.8v-0.9
			h1.183V6.344h0.973v2.593h1.571v0.9h-1.571v6.392c0,0.918,0.032,1.314,0.842,1.314c0.26,0,0.535-0.054,0.795-0.126V18.3z"/>
	</g>
	<g>
	</g>
	<g>
	</g>
	<g>
	</g>
	<g>
	</g>
	<g>
	</g>
	<g>
	</g>
	<g>
	</g>
	<g>
	</g>
	<g>
	</g>
	<g>
	</g>
	<g>
	</g>
	<g>
	</g>
	<g>
	</g>
	<g>
	</g>
	<g>
	</g>
</g>
</svg>
