<?xml version="1.0" encoding="utf-8"?>
<!-- Generator: Adobe Illustrator 28.2.0, SVG Export Plug-In . SVG Version: 6.00 Build 0)  -->
<svg version="1.1" xmlns="http://www.w3.org/2000/svg" xmlns:xlink="http://www.w3.org/1999/xlink" x="0px" y="0px"
	 width="281.185px" height="431.433px" viewBox="0 0 281.185 431.433" style="enable-background:new 0 0 281.185 431.433;"
	 xml:space="preserve">
<style type="text/css">
	.st0{fill:#F0F0F0;stroke:#828282;stroke-miterlimit:10;}
	.st1{fill:none;stroke:#828282;stroke-miterlimit:10;}
	.st2{fill:#828282;}
	.st3{fill:#FFFFFF;}
</style>
<g id="レイヤー_2">
	<rect x="20.323" y="0.5" class="st0" width="240.539" height="430.433"/>
	<line class="st1" x1="0" y1="25.814" x2="20.323" y2="25.814"/>
	<line class="st1" x1="0" y1="25.814" x2="20.323" y2="25.814"/>
	<line class="st1" x1="260.862" y1="25.814" x2="281.185" y2="25.814"/>
	<rect x="20.323" y="0.5" class="st2" width="240.539" height="21"/>
</g>
<g id="レイヤー_3">
	<g>
		<path d="M25.268,34.922c-0.016,1.621,0.065,3.331,2.106,3.331c1.507,0,2.058-0.99,2.058-2.809v-9.381h1.102v9.417
			c0,2.502-1.037,3.889-3.29,3.889c-2.625,0-3.079-2.143-3.079-4.448H25.268z"/>
		<path d="M32.525,34.364c0-2.719,1.296-4.916,3.889-4.916c2.625,0,3.889,2.179,3.889,4.916c0,2.953-1.54,4.916-3.889,4.916
			C34.275,39.244,32.525,37.624,32.525,34.364z M36.414,30.421c-2.042,0-2.852,1.926-2.852,3.943c0,2.323,0.989,3.943,2.852,3.943
			c2.042,0,2.852-1.945,2.852-3.943C39.25,32.168,38.472,30.421,36.414,30.421z"/>
		<path d="M48.566,29.701h0.972v8.426c0,2.503-0.746,4.718-3.938,4.718c-2.463,0-3.484-1.567-3.549-2.683h1.037
			c0.292,1.404,1.361,1.71,2.512,1.71c2.658,0,3.014-2.196,2.966-4.339c-0.616,1.134-1.815,1.747-2.998,1.747
			c-2.561,0-3.743-2.323-3.743-4.934c0-2.754,1.085-4.897,3.792-4.897c1.07,0,2.35,0.667,2.917,1.891h0.033V29.701z M45.73,30.421
			c-1.637,0-2.852,1.314-2.868,3.655c-0.081,2.341,0.858,4.231,2.868,4.231c1.766,0,2.836-1.8,2.836-3.907
			C48.566,32.15,47.561,30.421,45.73,30.421z"/>
		<path d="M52.014,39.028V26.064h7.519v1.044h-6.417v4.681h5.833v1.044h-5.833v6.194H52.014z"/>
		<path d="M60.438,34.364c0-2.719,1.296-4.916,3.889-4.916c2.625,0,3.889,2.179,3.889,4.916c0,2.953-1.54,4.916-3.889,4.916
			C62.188,39.244,60.438,37.624,60.438,34.364z M64.327,30.421c-2.042,0-2.852,1.926-2.852,3.943c0,2.323,0.989,3.943,2.852,3.943
			c2.042,0,2.852-1.945,2.852-3.943C67.163,32.168,66.385,30.421,64.327,30.421z"/>
		<path d="M71.017,39.028h-0.972v-9.327h0.972v1.747h0.033c0.535-1.495,1.329-1.999,2.738-1.999v1.17
			c-2.188-0.054-2.771,1.747-2.771,3.835V39.028z"/>
		<path d="M82.488,37.587l2.204-7.886h0.989l-2.723,9.327h-1.037l-1.831-7.833h-0.032l-1.864,7.833h-1.167l-2.56-9.327h0.972
			l2.171,7.958l1.945-7.958h1.085L82.488,37.587z"/>
		<path d="M90.943,33.59c0.356-0.036,0.956-0.144,1.28-0.306s0.356-0.648,0.356-0.972c0-1.099-0.583-1.891-2.09-1.891
			c-1.345,0-2.269,0.486-2.447,2.106h-0.989c0.146-2.197,1.621-3.079,3.452-3.079c1.702,0,3.046,0.738,3.046,2.899v5.078
			c0,0.846,0.195,1.044,1.021,0.72v0.846c-0.146,0.054-0.486,0.18-0.762,0.18c-0.162,0-0.292-0.018-0.438-0.054
			c-0.648-0.108-0.762-0.738-0.778-1.386c-0.81,1.008-1.912,1.548-3.127,1.548c-1.475,0-2.803-0.882-2.803-2.683
			c0-1.566,0.972-2.521,2.933-2.809L90.943,33.59z M92.58,34.13c-0.826,0.378-1.669,0.45-2.512,0.522
			c-1.475,0.126-2.366,0.72-2.366,1.981c0,1.134,0.891,1.674,1.815,1.674c1.539,0,3.062-0.828,3.062-2.719V34.13z"/>
		<path d="M97.115,39.028h-0.972v-9.327h0.972v1.747h0.033c0.535-1.495,1.329-1.999,2.738-1.999v1.17
			c-2.188-0.054-2.771,1.747-2.771,3.835V39.028z"/>
		<path d="M107.971,26.064h0.972v12.964h-0.972v-1.639h-0.033c-0.567,1.225-1.847,1.891-2.917,1.891
			c-2.706,0-3.792-2.143-3.792-4.897c0-2.611,1.183-4.934,3.743-4.934c1.183,0,2.382,0.612,2.998,1.747V26.064z M105.135,30.421
			c-2.01,0-2.949,1.891-2.868,4.231c0.016,2.341,1.231,3.655,2.868,3.655c1.831,0,2.836-1.729,2.836-3.979
			C107.971,32.222,106.901,30.421,105.135,30.421z"/>
	</g>
	<g>
		<path d="M24.052,74.623l4.586-12.964h1.248l4.473,12.964h-1.134l-1.345-4.069h-5.315l-1.377,4.069H24.052z M26.937,69.51h4.57
			l-2.285-6.806L26.937,69.51z"/>
		<path d="M38.698,70.59l-2.609,4.033h-1.183l3.225-4.825l-2.966-4.501h1.199l2.317,3.709l2.382-3.709h1.231l-3.03,4.501
			l3.144,4.825h-1.167L38.698,70.59z"/>
		<path d="M43.979,63.262v-1.603h1.069v1.603H43.979z M44.027,74.623v-9.327h0.972v9.327H44.027z"/>
		<path d="M48.045,71.706c0.308,1.603,1.053,2.197,2.512,2.197c1.41,0,2.074-0.828,2.074-1.729c0-2.701-5.38-0.792-5.38-4.465
			c0-1.548,1.085-2.665,2.949-2.665c1.815,0,2.998,0.829,3.241,2.935h-0.988c-0.178-1.44-1.053-1.962-2.269-1.962
			c-1.231,0-1.896,0.648-1.896,1.603c0,2.539,5.38,0.954,5.38,4.537c0,1.783-1.442,2.719-3.419,2.719
			c-1.977,0-3.111-1.404-3.192-3.169H48.045z"/>
	</g>
	<g>
		<path d="M25.187,112.585c-0.015,1.621,0.061,3.331,1.99,3.331c1.423,0,1.943-0.99,1.943-2.809v-9.381h1.041v9.417
			c0,2.502-0.979,3.889-3.107,3.889c-2.479,0-2.908-2.143-2.908-4.448H25.187z"/>
		<path d="M32.041,112.027c0-2.719,1.225-4.916,3.673-4.916c2.479,0,3.673,2.179,3.673,4.916c0,2.953-1.454,4.916-3.673,4.916
			C33.693,116.907,32.041,115.287,32.041,112.027z M35.714,108.085c-1.929,0-2.694,1.926-2.694,3.943
			c0,2.323,0.934,3.943,2.694,3.943c1.928,0,2.693-1.945,2.693-3.943C38.392,109.831,37.657,108.085,35.714,108.085z"/>
		<path d="M47.19,107.364h0.918v8.426c0,2.503-0.704,4.718-3.719,4.718c-2.326,0-3.291-1.567-3.352-2.683h0.979
			c0.275,1.404,1.286,1.71,2.372,1.71c2.51,0,2.847-2.196,2.801-4.339c-0.582,1.134-1.714,1.747-2.831,1.747
			c-2.418,0-3.536-2.323-3.536-4.934c0-2.754,1.025-4.897,3.582-4.897c1.01,0,2.219,0.667,2.755,1.891h0.03V107.364z
			 M44.511,108.085c-1.546,0-2.693,1.314-2.709,3.655c-0.076,2.341,0.811,4.231,2.709,4.231c1.668,0,2.678-1.8,2.678-3.907
			C47.19,109.813,46.241,108.085,44.511,108.085z"/>
		<path d="M50.554,116.691v-12.964h3.979c2.586,0,3.612,1.314,3.612,3.259c0,1.801-0.872,2.611-1.76,2.791v0.036
			c1.515,0.27,2.265,1.512,2.265,3.223c0,2.701-1.5,3.655-3.597,3.655H50.554z M51.594,109.453h2.632c2.173,0,2.877-0.9,2.877-2.467
			c0-1.62-0.827-2.214-3.107-2.214h-2.403V109.453z M51.594,115.647h2.648c2.295,0,3.367-0.36,3.367-2.611
			c0-2.143-1.286-2.539-3.245-2.539h-2.77V115.647z"/>
		<path d="M64.264,111.253c0.336-0.036,0.903-0.144,1.209-0.306s0.336-0.648,0.336-0.972c0-1.099-0.551-1.891-1.974-1.891
			c-1.271,0-2.143,0.486-2.311,2.106H60.59c0.138-2.197,1.53-3.079,3.26-3.079c1.607,0,2.877,0.738,2.877,2.899v5.078
			c0,0.846,0.184,1.044,0.964,0.72v0.846c-0.138,0.054-0.459,0.18-0.72,0.18c-0.153,0-0.275-0.018-0.413-0.054
			c-0.612-0.108-0.719-0.738-0.734-1.386c-0.766,1.008-1.806,1.548-2.954,1.548c-1.393,0-2.647-0.882-2.647-2.683
			c0-1.566,0.918-2.521,2.77-2.809L64.264,111.253z M65.809,111.793c-0.78,0.378-1.576,0.45-2.372,0.522
			c-1.393,0.126-2.234,0.72-2.234,1.981c0,1.134,0.842,1.674,1.714,1.674c1.454,0,2.893-0.828,2.893-2.719V111.793z"/>
		<path d="M74.745,110.299c-0.321-1.386-1.133-2.214-2.357-2.214c-1.882,0-2.663,2.017-2.663,3.961c0,1.963,0.765,3.925,2.663,3.925
			c1.362,0,2.219-0.954,2.434-2.503h0.979c-0.322,2.071-1.423,3.475-3.413,3.475c-2.525,0-3.643-2.143-3.643-4.897
			c0-2.593,1.271-4.934,3.643-4.934c1.821,0,3.015,1.026,3.291,3.187H74.745z"/>
		<path d="M77.573,116.691v-12.964h0.918v8.066l3.887-4.429h1.255l-2.969,3.367l3.321,5.96h-1.025l-2.969-5.204l-1.5,1.674v3.529
			H77.573z"/>
		<path d="M91.988,115.251l2.082-7.886h0.934l-2.571,9.327h-0.979l-1.729-7.833h-0.03l-1.76,7.833H86.83l-2.418-9.327h0.918
			l2.051,7.958l1.836-7.958h1.025L91.988,115.251z"/>
		<path d="M99.974,111.253c0.336-0.036,0.903-0.144,1.209-0.306s0.336-0.648,0.336-0.972c0-1.099-0.551-1.891-1.974-1.891
			c-1.271,0-2.143,0.486-2.311,2.106H96.3c0.138-2.197,1.53-3.079,3.26-3.079c1.607,0,2.877,0.738,2.877,2.899v5.078
			c0,0.846,0.184,1.044,0.964,0.72v0.846c-0.138,0.054-0.459,0.18-0.72,0.18c-0.153,0-0.275-0.018-0.413-0.054
			c-0.612-0.108-0.719-0.738-0.734-1.386c-0.766,1.008-1.806,1.548-2.954,1.548c-1.393,0-2.647-0.882-2.647-2.683
			c0-1.566,0.918-2.521,2.77-2.809L99.974,111.253z M101.519,111.793c-0.78,0.378-1.576,0.45-2.372,0.522
			c-1.393,0.126-2.234,0.72-2.234,1.981c0,1.134,0.842,1.674,1.714,1.674c1.454,0,2.893-0.828,2.893-2.719V111.793z"/>
		<path d="M105.802,116.691h-0.918v-9.327h0.918v1.747h0.031c0.505-1.495,1.255-1.999,2.586-1.999v1.17
			c-2.066-0.054-2.617,1.747-2.617,3.835V116.691z"/>
		<path d="M116.054,103.727h0.918v12.964h-0.918v-1.639h-0.03c-0.536,1.225-1.745,1.891-2.755,1.891
			c-2.556,0-3.582-2.143-3.582-4.897c0-2.611,1.117-4.934,3.536-4.934c1.117,0,2.25,0.612,2.831,1.747V103.727z M113.376,108.085
			c-1.898,0-2.785,1.891-2.709,4.231c0.016,2.341,1.163,3.655,2.709,3.655c1.729,0,2.678-1.729,2.678-3.979
			C116.054,109.885,115.045,108.085,113.376,108.085z"/>
	</g>
	<g>
		<path d="M25.008,158.391v-12.964h7.519v1.044H26.11v4.681h5.833v1.044H26.11v6.194H25.008z"/>
		<path d="M37.84,152.953c0.356-0.036,0.956-0.144,1.28-0.306s0.356-0.648,0.356-0.972c0-1.099-0.583-1.891-2.09-1.891
			c-1.345,0-2.269,0.486-2.447,2.106h-0.989c0.146-2.197,1.621-3.079,3.452-3.079c1.702,0,3.046,0.738,3.046,2.899v5.078
			c0,0.846,0.195,1.044,1.021,0.72v0.846c-0.146,0.054-0.486,0.18-0.762,0.18c-0.162,0-0.292-0.018-0.438-0.054
			c-0.648-0.108-0.762-0.738-0.778-1.386c-0.81,1.008-1.912,1.548-3.127,1.548c-1.475,0-2.803-0.882-2.803-2.683
			c0-1.566,0.972-2.521,2.933-2.809L37.84,152.953z M39.477,153.493c-0.826,0.378-1.669,0.45-2.512,0.522
			c-1.475,0.126-2.366,0.72-2.366,1.981c0,1.134,0.891,1.674,1.815,1.674c1.539,0,3.062-0.828,3.062-2.719V153.493z"/>
		<path d="M43.558,155.474c0.308,1.603,1.053,2.197,2.512,2.197c1.41,0,2.074-0.828,2.074-1.729c0-2.701-5.38-0.792-5.38-4.465
			c0-1.548,1.085-2.665,2.949-2.665c1.815,0,2.998,0.829,3.241,2.935h-0.989c-0.178-1.44-1.053-1.962-2.269-1.962
			c-1.231,0-1.896,0.648-1.896,1.603c0,2.539,5.38,0.954,5.38,4.537c0,1.783-1.442,2.719-3.419,2.719
			c-1.977,0-3.111-1.404-3.192-3.169H43.558z"/>
		<path d="M54.04,158.427c-0.227,0.054-0.648,0.216-1.118,0.216c-0.956,0-1.491-0.468-1.491-1.854v-6.824h-1.183v-0.9h1.183v-2.593
			h0.973v2.593h1.572v0.9h-1.572v6.392c0,0.918,0.032,1.314,0.842,1.314c0.259,0,0.535-0.054,0.794-0.126V158.427z"/>
	</g>
	<g>
		<path d="M24.101,187.494h1.151l3.516,11.523l3.5-11.523h1.15l-4.051,12.964h-1.215L24.101,187.494z"/>
		<path d="M35.473,196.047c-0.016,2.017,0.957,3.691,2.82,3.691c1.264,0,2.252-0.774,2.544-2.143h1.086
			c-0.486,1.765-1.491,3.115-3.63,3.115c-2.69,0-3.857-2.125-3.857-4.879c0-2.719,1.458-4.952,3.857-4.952
			c2.301,0,3.711,1.819,3.695,5.168H35.473z M40.951,195.147c0-1.818-0.908-3.295-2.658-3.295c-1.718,0-2.625,1.53-2.82,3.295
			H40.951z"/>
		<path d="M44.027,200.458v-12.964h0.972v12.964H44.027z"/>
		<path d="M46.926,195.794c0-2.719,1.296-4.916,3.889-4.916c2.625,0,3.889,2.179,3.889,4.916c0,2.953-1.54,4.916-3.889,4.916
			C48.676,200.674,46.926,199.054,46.926,195.794z M50.816,191.852c-2.042,0-2.852,1.926-2.852,3.943
			c0,2.323,0.989,3.943,2.852,3.943c2.042,0,2.852-1.945,2.852-3.943C53.651,193.598,52.874,191.852,50.816,191.852z"/>
		<path d="M62.432,194.066c-0.34-1.386-1.199-2.214-2.496-2.214c-1.993,0-2.819,2.017-2.819,3.961c0,1.963,0.81,3.925,2.819,3.925
			c1.442,0,2.35-0.954,2.577-2.503h1.037c-0.34,2.071-1.507,3.475-3.614,3.475c-2.673,0-3.856-2.143-3.856-4.897
			c0-2.593,1.345-4.934,3.856-4.934c1.929,0,3.192,1.026,3.484,3.187H62.432z"/>
		<path d="M65.589,189.097v-1.603h1.069v1.603H65.589z M65.638,200.458v-9.327h0.972v9.327H65.638z"/>
		<path d="M72.038,200.494c-0.227,0.054-0.648,0.216-1.118,0.216c-0.956,0-1.491-0.468-1.491-1.854v-6.824h-1.183v-0.9h1.183v-2.593
			h0.973v2.593h1.572v0.9h-1.572v6.392c0,0.918,0.032,1.314,0.842,1.314c0.259,0,0.535-0.054,0.794-0.126V200.494z"/>
		<path d="M73.527,202.997c0.259,0.054,0.535,0.108,0.81,0.108c1.102,0,1.264-1.765,1.637-2.575l-3.257-9.399h1.086l2.69,8.012
			l2.69-8.012h1.053l-3.127,9.201c-0.794,2.341-1.312,3.799-2.658,3.799c-0.34,0-0.664-0.054-0.923-0.126V202.997z"/>
	</g>
	<g>
		<path d="M24.101,229.562h1.151l3.516,11.523l3.5-11.523h1.15l-4.051,12.964h-1.215L24.101,229.562z"/>
		<path d="M35.473,238.114c-0.016,2.017,0.957,3.691,2.82,3.691c1.264,0,2.252-0.774,2.544-2.143h1.086
			c-0.486,1.765-1.491,3.115-3.63,3.115c-2.69,0-3.857-2.125-3.857-4.879c0-2.719,1.458-4.952,3.857-4.952
			c2.301,0,3.711,1.819,3.695,5.168H35.473z M40.951,237.214c0-1.818-0.908-3.295-2.658-3.295c-1.718,0-2.625,1.53-2.82,3.295
			H40.951z"/>
		<path d="M44.027,242.525v-12.964h0.972v12.964H44.027z"/>
		<path d="M46.926,237.862c0-2.719,1.296-4.916,3.889-4.916c2.625,0,3.889,2.179,3.889,4.916c0,2.953-1.54,4.916-3.889,4.916
			C48.676,242.741,46.926,241.121,46.926,237.862z M50.816,233.919c-2.042,0-2.852,1.926-2.852,3.943
			c0,2.323,0.989,3.943,2.852,3.943c2.042,0,2.852-1.945,2.852-3.943C53.651,235.666,52.874,233.919,50.816,233.919z"/>
		<path d="M62.432,236.133c-0.34-1.386-1.199-2.214-2.496-2.214c-1.993,0-2.819,2.017-2.819,3.961c0,1.963,0.81,3.925,2.819,3.925
			c1.442,0,2.35-0.954,2.577-2.503h1.037c-0.34,2.071-1.507,3.475-3.614,3.475c-2.673,0-3.856-2.143-3.856-4.897
			c0-2.593,1.345-4.934,3.856-4.934c1.929,0,3.192,1.026,3.484,3.187H62.432z"/>
		<path d="M65.589,231.164v-1.603h1.069v1.603H65.589z M65.638,242.525v-9.327h0.972v9.327H65.638z"/>
		<path d="M72.038,242.562c-0.227,0.054-0.648,0.216-1.118,0.216c-0.956,0-1.491-0.468-1.491-1.854v-6.824h-1.183v-0.9h1.183v-2.593
			h0.973v2.593h1.572v0.9h-1.572v6.392c0,0.918,0.032,1.314,0.842,1.314c0.259,0,0.535-0.054,0.794-0.126V242.562z"/>
		<path d="M73.527,245.064c0.259,0.054,0.535,0.108,0.81,0.108c1.102,0,1.264-1.765,1.637-2.575l-3.257-9.399h1.086l2.69,8.012
			l2.69-8.012h1.053l-3.127,9.201c-0.794,2.341-1.312,3.799-2.658,3.799c-0.34,0-0.664-0.054-0.923-0.126V245.064z"/>
		<path d="M81.724,242.525v-12.964h7.519v1.044h-6.417v4.681h5.833v1.044h-5.833v6.194H81.724z"/>
		<path d="M94.556,237.088c0.356-0.036,0.956-0.144,1.28-0.306s0.356-0.648,0.356-0.972c0-1.099-0.583-1.891-2.09-1.891
			c-1.345,0-2.269,0.486-2.447,2.106h-0.989c0.146-2.197,1.621-3.079,3.452-3.079c1.702,0,3.046,0.738,3.046,2.899v5.078
			c0,0.846,0.195,1.044,1.021,0.72v0.846c-0.146,0.054-0.486,0.18-0.762,0.18c-0.162,0-0.292-0.018-0.438-0.054
			c-0.648-0.108-0.762-0.738-0.778-1.386c-0.81,1.008-1.912,1.548-3.127,1.548c-1.475,0-2.803-0.882-2.803-2.683
			c0-1.566,0.972-2.521,2.933-2.809L94.556,237.088z M96.192,237.628c-0.826,0.378-1.669,0.45-2.512,0.522
			c-1.475,0.126-2.366,0.72-2.366,1.981c0,1.134,0.891,1.674,1.815,1.674c1.539,0,3.062-0.828,3.062-2.719V237.628z"/>
		<path d="M100.274,239.608c0.308,1.603,1.053,2.197,2.512,2.197c1.41,0,2.074-0.828,2.074-1.729c0-2.701-5.38-0.792-5.38-4.465
			c0-1.548,1.085-2.665,2.949-2.665c1.815,0,2.998,0.829,3.241,2.935h-0.989c-0.178-1.44-1.053-1.962-2.269-1.962
			c-1.231,0-1.896,0.648-1.896,1.603c0,2.539,5.38,0.954,5.38,4.537c0,1.783-1.442,2.719-3.419,2.719
			c-1.977,0-3.111-1.404-3.192-3.169H100.274z"/>
		<path d="M110.756,242.562c-0.227,0.054-0.648,0.216-1.118,0.216c-0.956,0-1.491-0.468-1.491-1.854v-6.824h-1.183v-0.9h1.183
			v-2.593h0.973v2.593h1.572v0.9h-1.572v6.392c0,0.918,0.032,1.314,0.842,1.314c0.259,0,0.535-0.054,0.794-0.126V242.562z"/>
	</g>
	<g>
		<path d="M25.511,284.593v-12.964h1.102v12.964H25.511z"/>
		<path d="M30.452,284.593H29.48v-9.327h0.972v1.296c0.778-0.918,1.54-1.549,2.706-1.549c1.021,0,1.961,0.36,2.561,1.333
			c0.405,0.667,0.421,1.369,0.421,2.143v6.104h-0.973v-6.086c0-1.674-0.616-2.521-2.171-2.521c-1.199,0-2.025,0.864-2.333,1.818
			c-0.194,0.594-0.21,1.116-0.21,1.765V284.593z"/>
		<path d="M44.434,278.201c-0.34-1.386-1.199-2.214-2.496-2.214c-1.993,0-2.819,2.017-2.819,3.961c0,1.963,0.81,3.925,2.819,3.925
			c1.442,0,2.35-0.954,2.577-2.503h1.037c-0.34,2.071-1.507,3.475-3.614,3.475c-2.673,0-3.856-2.143-3.856-4.897
			c0-2.593,1.345-4.934,3.856-4.934c1.929,0,3.192,1.026,3.484,3.187H44.434z"/>
		<path d="M47.494,284.593v-12.964h0.972v4.934c0.778-0.918,1.54-1.549,2.706-1.549c1.021,0,1.961,0.36,2.561,1.333
			c0.405,0.667,0.421,1.369,0.421,2.143v6.104h-0.973v-6.086c0-1.674-0.616-2.521-2.171-2.521c-1.199,0-2.025,0.864-2.333,1.818
			c-0.194,0.594-0.21,1.116-0.21,1.765v5.023H47.494z"/>
		<path d="M56.599,273.231v-1.603h1.069v1.603H56.599z M56.647,284.593v-9.327h0.972v9.327H56.647z"/>
		<path d="M61.07,284.593h-0.972v-9.327h0.972v1.296c0.778-0.918,1.54-1.549,2.706-1.549c1.021,0,1.961,0.36,2.561,1.333
			c0.405,0.667,0.421,1.369,0.421,2.143v6.104h-0.973v-6.086c0-1.674-0.616-2.521-2.171-2.521c-1.199,0-2.025,0.864-2.333,1.818
			c-0.194,0.594-0.21,1.116-0.21,1.765V284.593z"/>
		<path d="M75.587,275.266h0.972v8.426c0,2.503-0.746,4.718-3.938,4.718c-2.463,0-3.484-1.567-3.549-2.683h1.037
			c0.292,1.404,1.361,1.71,2.512,1.71c2.658,0,3.014-2.196,2.966-4.339c-0.616,1.134-1.815,1.747-2.998,1.747
			c-2.561,0-3.743-2.323-3.743-4.934c0-2.754,1.085-4.897,3.792-4.897c1.07,0,2.35,0.667,2.917,1.891h0.033V275.266z
			 M72.751,275.986c-1.637,0-2.852,1.314-2.868,3.655c-0.081,2.341,0.858,4.231,2.868,4.231c1.766,0,2.836-1.8,2.836-3.907
			C75.587,277.715,74.582,275.986,72.751,275.986z"/>
		<path d="M79.1,284.593v-12.964h1.685l3.824,11.434h0.033l3.759-11.434h1.669v12.964h-1.102v-11.56h-0.033l-3.824,11.56h-1.037
			l-3.84-11.56h-0.033v11.56H79.1z"/>
		<path d="M91.946,279.929c0-2.719,1.296-4.916,3.889-4.916c2.625,0,3.889,2.179,3.889,4.916c0,2.953-1.54,4.916-3.889,4.916
			C93.696,284.809,91.946,283.189,91.946,279.929z M95.836,275.986c-2.042,0-2.852,1.926-2.852,3.943
			c0,2.323,0.989,3.943,2.852,3.943c2.042,0,2.852-1.945,2.852-3.943C98.672,277.733,97.894,275.986,95.836,275.986z"/>
		<path d="M100.613,275.266h1.053l2.723,7.994l2.722-7.994h1.054l-3.257,9.327h-1.086L100.613,275.266z"/>
		<path d="M110.204,280.182c-0.016,2.017,0.956,3.691,2.82,3.691c1.264,0,2.252-0.774,2.544-2.143h1.085
			c-0.486,1.765-1.491,3.115-3.63,3.115c-2.69,0-3.857-2.125-3.857-4.879c0-2.719,1.458-4.952,3.857-4.952
			c2.301,0,3.711,1.819,3.695,5.168H110.204z M115.682,279.281c0-1.818-0.908-3.295-2.658-3.295c-1.718,0-2.625,1.53-2.82,3.295
			H115.682z"/>
		<path d="M119.455,284.593h-0.972v-9.327h0.972v1.404h0.033c0.502-1.062,1.507-1.657,2.593-1.657c1.556,0,2.106,0.811,2.463,1.801
			c0.551-1.207,1.54-1.801,2.739-1.801c2.285,0,2.609,1.819,2.609,3.691v5.888h-0.972v-6.446c0-1.333-0.421-2.161-1.799-2.161
			c-0.713,0-1.41,0.342-1.896,1.062c-0.421,0.612-0.551,1.747-0.551,2.521v5.023H123.7v-6.446c0-1.333-0.421-2.161-1.798-2.161
			c-0.713,0-1.41,0.342-1.896,1.062c-0.421,0.612-0.551,1.747-0.551,2.521V284.593z"/>
		<path d="M132.706,280.182c-0.016,2.017,0.956,3.691,2.82,3.691c1.264,0,2.252-0.774,2.544-2.143h1.085
			c-0.486,1.765-1.491,3.115-3.63,3.115c-2.69,0-3.857-2.125-3.857-4.879c0-2.719,1.458-4.952,3.857-4.952
			c2.301,0,3.711,1.819,3.695,5.168H132.706z M138.184,279.281c0-1.818-0.908-3.295-2.658-3.295c-1.718,0-2.625,1.53-2.82,3.295
			H138.184z"/>
		<path d="M142.087,284.593h-0.972v-9.327h0.972v1.296c0.778-0.918,1.54-1.549,2.706-1.549c1.021,0,1.961,0.36,2.561,1.333
			c0.405,0.667,0.421,1.369,0.421,2.143v6.104h-0.973v-6.086c0-1.674-0.616-2.521-2.171-2.521c-1.199,0-2.025,0.864-2.333,1.818
			c-0.194,0.594-0.21,1.116-0.21,1.765V284.593z"/>
		<path d="M153.07,284.629c-0.227,0.054-0.648,0.216-1.118,0.216c-0.956,0-1.491-0.468-1.491-1.854v-6.824h-1.183v-0.9h1.183v-2.593
			h0.972v2.593h1.572v0.9h-1.572v6.392c0,0.918,0.032,1.314,0.843,1.314c0.259,0,0.535-0.054,0.794-0.126V284.629z"/>
	</g>
	<g>
		<path d="M24.052,326.661l4.586-12.964h1.248l4.473,12.964h-1.134l-1.345-4.069h-5.315l-1.377,4.069H24.052z M26.937,321.548h4.57
			l-2.285-6.806L26.937,321.548z"/>
		<path d="M41.728,320.269c-0.34-1.386-1.199-2.214-2.496-2.214c-1.993,0-2.819,2.017-2.819,3.961c0,1.963,0.81,3.925,2.819,3.925
			c1.442,0,2.35-0.954,2.577-2.503h1.037c-0.34,2.071-1.507,3.475-3.614,3.475c-2.674,0-3.856-2.143-3.856-4.897
			c0-2.593,1.345-4.934,3.856-4.934c1.929,0,3.192,1.026,3.484,3.187H41.728z"/>
		<path d="M50.735,320.269c-0.34-1.386-1.199-2.214-2.496-2.214c-1.993,0-2.819,2.017-2.819,3.961c0,1.963,0.81,3.925,2.819,3.925
			c1.442,0,2.35-0.954,2.577-2.503h1.037c-0.34,2.071-1.507,3.475-3.614,3.475c-2.673,0-3.856-2.143-3.856-4.897
			c0-2.593,1.345-4.934,3.856-4.934c1.929,0,3.192,1.026,3.484,3.187H50.735z"/>
		<path d="M54.395,322.25c-0.016,2.017,0.957,3.691,2.82,3.691c1.264,0,2.252-0.774,2.544-2.143h1.086
			c-0.486,1.765-1.491,3.115-3.63,3.115c-2.69,0-3.857-2.125-3.857-4.879c0-2.719,1.458-4.952,3.857-4.952
			c2.301,0,3.711,1.819,3.695,5.168H54.395z M59.873,321.35c0-1.818-0.908-3.295-2.658-3.295c-1.718,0-2.625,1.53-2.82,3.295H59.873
			z"/>
		<path d="M62.949,326.661v-12.964h0.972v12.964H62.949z"/>
		<path d="M66.999,322.25c-0.016,2.017,0.957,3.691,2.82,3.691c1.264,0,2.252-0.774,2.544-2.143h1.086
			c-0.486,1.765-1.491,3.115-3.63,3.115c-2.69,0-3.857-2.125-3.857-4.879c0-2.719,1.458-4.952,3.857-4.952
			c2.301,0,3.711,1.819,3.695,5.168H66.999z M72.476,321.35c0-1.818-0.908-3.295-2.658-3.295c-1.718,0-2.625,1.53-2.82,3.295H72.476
			z"/>
		<path d="M76.427,326.661h-0.972v-9.327h0.972v1.747h0.033c0.535-1.495,1.329-1.999,2.738-1.999v1.17
			c-2.188-0.054-2.771,1.747-2.771,3.835V326.661z"/>
		<path d="M84.658,321.224c0.356-0.036,0.956-0.144,1.28-0.306s0.356-0.648,0.356-0.972c0-1.099-0.583-1.891-2.09-1.891
			c-1.345,0-2.269,0.486-2.447,2.106h-0.989c0.146-2.197,1.621-3.079,3.452-3.079c1.702,0,3.046,0.738,3.046,2.899v5.078
			c0,0.846,0.195,1.044,1.021,0.72v0.846c-0.146,0.054-0.486,0.18-0.762,0.18c-0.162,0-0.292-0.018-0.438-0.054
			c-0.648-0.108-0.762-0.738-0.778-1.386c-0.81,1.008-1.912,1.548-3.127,1.548c-1.475,0-2.803-0.882-2.803-2.683
			c0-1.566,0.972-2.521,2.933-2.809L84.658,321.224z M86.295,321.764c-0.827,0.378-1.669,0.45-2.512,0.522
			c-1.475,0.126-2.366,0.72-2.366,1.981c0,1.134,0.891,1.674,1.815,1.674c1.539,0,3.062-0.828,3.062-2.719V321.764z"/>
		<path d="M92.758,326.697c-0.227,0.054-0.648,0.216-1.118,0.216c-0.956,0-1.491-0.468-1.491-1.854v-6.824h-1.183v-0.9h1.183v-2.593
			h0.973v2.593h1.572v0.9h-1.572v6.392c0,0.918,0.032,1.314,0.842,1.314c0.259,0,0.535-0.054,0.794-0.126V326.697z"/>
		<path d="M94.409,315.3v-1.603h1.069v1.603H94.409z M94.458,326.661v-9.327h0.972v9.327H94.458z"/>
		<path d="M97.357,321.998c0-2.719,1.296-4.916,3.889-4.916c2.625,0,3.889,2.179,3.889,4.916c0,2.953-1.54,4.916-3.889,4.916
			C99.107,326.877,97.357,325.257,97.357,321.998z M101.246,318.055c-2.042,0-2.852,1.926-2.852,3.943
			c0,2.323,0.989,3.943,2.852,3.943c2.042,0,2.852-1.945,2.852-3.943C104.082,319.801,103.304,318.055,101.246,318.055z"/>
		<path d="M107.888,326.661h-0.973v-9.327h0.973v1.296c0.778-0.918,1.54-1.549,2.706-1.549c1.021,0,1.961,0.36,2.561,1.333
			c0.405,0.667,0.421,1.369,0.421,2.143v6.104h-0.973v-6.086c0-1.674-0.616-2.521-2.171-2.521c-1.199,0-2.025,0.864-2.333,1.818
			c-0.194,0.594-0.21,1.116-0.21,1.765V326.661z"/>
	</g>
	<g>
		<path d="M25.122,368.459v-12.964h3.986c1.296,0,2.512,0.09,3.598,0.972c1.54,1.243,1.944,3.764,1.944,5.492
			c0,1.71-0.34,3.619-1.41,4.915c-1.069,1.333-2.593,1.585-4.132,1.585H25.122z M26.224,367.414h2.642
			c0.988,0,1.847-0.071,2.738-0.594c1.556-0.882,1.945-3.097,1.945-4.861c0-1.891-0.373-3.961-2.01-4.934
			c-0.697-0.414-1.701-0.486-2.673-0.486h-2.642V367.414z"/>
		<path d="M37.272,364.047c-0.016,2.017,0.956,3.69,2.82,3.69c1.264,0,2.252-0.774,2.544-2.143h1.085
			c-0.486,1.765-1.491,3.115-3.63,3.115c-2.69,0-3.857-2.125-3.857-4.88c0-2.719,1.458-4.951,3.857-4.951
			c2.301,0,3.711,1.818,3.695,5.168H37.272z M42.749,363.147c0-1.818-0.908-3.295-2.658-3.295c-1.718,0-2.625,1.53-2.82,3.295
			H42.749z"/>
		<path d="M51.627,362.066c-0.34-1.386-1.199-2.214-2.496-2.214c-1.993,0-2.819,2.017-2.819,3.961c0,1.963,0.81,3.925,2.819,3.925
			c1.442,0,2.35-0.954,2.577-2.503h1.037c-0.34,2.071-1.507,3.476-3.614,3.476c-2.674,0-3.856-2.143-3.856-4.897
			c0-2.593,1.345-4.934,3.856-4.934c1.929,0,3.192,1.026,3.484,3.187H51.627z"/>
		<path d="M55.286,364.047c-0.016,2.017,0.956,3.69,2.82,3.69c1.264,0,2.252-0.774,2.544-2.143h1.085
			c-0.486,1.765-1.491,3.115-3.63,3.115c-2.69,0-3.857-2.125-3.857-4.88c0-2.719,1.458-4.951,3.857-4.951
			c2.301,0,3.711,1.818,3.695,5.168H55.286z M60.764,363.147c0-1.818-0.908-3.295-2.658-3.295c-1.718,0-2.625,1.53-2.82,3.295
			H60.764z"/>
		<path d="M63.84,368.459v-12.964h0.972v12.964H63.84z"/>
		<path d="M67.89,364.047c-0.016,2.017,0.956,3.69,2.82,3.69c1.264,0,2.252-0.774,2.544-2.143h1.085
			c-0.486,1.765-1.491,3.115-3.63,3.115c-2.69,0-3.857-2.125-3.857-4.88c0-2.719,1.458-4.951,3.857-4.951
			c2.301,0,3.711,1.818,3.695,5.168H67.89z M73.367,363.147c0-1.818-0.908-3.295-2.658-3.295c-1.718,0-2.625,1.53-2.82,3.295H73.367
			z"/>
		<path d="M77.318,368.459h-0.972v-9.327h0.972v1.747h0.033c0.535-1.495,1.329-1.999,2.738-1.999v1.17
			c-2.188-0.054-2.771,1.747-2.771,3.836V368.459z"/>
		<path d="M85.549,363.021c0.356-0.036,0.956-0.145,1.28-0.307s0.356-0.648,0.356-0.972c0-1.099-0.583-1.891-2.09-1.891
			c-1.345,0-2.269,0.485-2.447,2.106H81.66c0.146-2.197,1.621-3.079,3.452-3.079c1.702,0,3.046,0.738,3.046,2.898v5.078
			c0,0.846,0.195,1.044,1.021,0.72v0.847c-0.146,0.054-0.486,0.18-0.762,0.18c-0.162,0-0.292-0.018-0.438-0.054
			c-0.648-0.108-0.762-0.738-0.778-1.387c-0.81,1.009-1.912,1.549-3.127,1.549c-1.475,0-2.803-0.883-2.803-2.683
			c0-1.566,0.972-2.521,2.933-2.81L85.549,363.021z M87.186,363.561c-0.826,0.378-1.669,0.45-2.512,0.521
			c-1.475,0.127-2.366,0.721-2.366,1.981c0,1.134,0.891,1.674,1.815,1.674c1.539,0,3.062-0.828,3.062-2.719V363.561z"/>
		<path d="M93.649,368.495c-0.227,0.054-0.648,0.216-1.118,0.216c-0.956,0-1.491-0.468-1.491-1.854v-6.824h-1.183v-0.9h1.183v-2.593
			h0.973v2.593h1.572v0.9h-1.572v6.392c0,0.919,0.032,1.314,0.842,1.314c0.259,0,0.535-0.054,0.794-0.126V368.495z"/>
		<path d="M95.3,357.097v-1.603h1.069v1.603H95.3z M95.349,368.459v-9.327h0.972v9.327H95.349z"/>
		<path d="M98.248,363.794c0-2.719,1.296-4.915,3.889-4.915c2.625,0,3.889,2.179,3.889,4.915c0,2.953-1.54,4.916-3.889,4.916
			C99.998,368.674,98.248,367.054,98.248,363.794z M102.137,359.852c-2.042,0-2.852,1.926-2.852,3.942
			c0,2.323,0.989,3.943,2.852,3.943c2.042,0,2.852-1.944,2.852-3.943C104.973,361.598,104.195,359.852,102.137,359.852z"/>
		<path d="M108.779,368.459h-0.972v-9.327h0.972v1.297c0.778-0.919,1.54-1.549,2.706-1.549c1.021,0,1.961,0.36,2.561,1.332
			c0.405,0.667,0.421,1.369,0.421,2.143v6.104h-0.973v-6.086c0-1.675-0.616-2.521-2.171-2.521c-1.199,0-2.025,0.864-2.333,1.818
			c-0.194,0.594-0.21,1.116-0.21,1.765V368.459z"/>
	</g>
	<g>
		<path d="M25.268,406.419c-0.016,1.62,0.065,3.331,2.106,3.331c1.507,0,2.058-0.99,2.058-2.809v-9.381h1.102v9.417
			c0,2.502-1.037,3.889-3.29,3.889c-2.625,0-3.079-2.143-3.079-4.447H25.268z"/>
		<path d="M33.675,406.114c-0.016,2.017,0.957,3.69,2.82,3.69c1.264,0,2.252-0.774,2.544-2.143h1.086
			c-0.486,1.765-1.491,3.115-3.63,3.115c-2.69,0-3.857-2.125-3.857-4.88c0-2.719,1.458-4.951,3.857-4.951
			c2.301,0,3.711,1.818,3.695,5.168H33.675z M39.153,405.213c0-1.818-0.908-3.295-2.658-3.295c-1.718,0-2.625,1.53-2.82,3.295
			H39.153z"/>
		<path d="M43.104,410.525h-0.972v-9.327h0.972v1.747h0.033c0.535-1.495,1.329-1.999,2.738-1.999v1.17
			c-2.188-0.054-2.771,1.747-2.771,3.836V410.525z"/>
		<path d="M47.413,410.525v-12.964h0.972v8.066l4.116-4.43h1.329l-3.144,3.367l3.516,5.96h-1.085l-3.144-5.204l-1.588,1.675v3.529
			H47.413z"/>
	</g>
	<g>
		<path d="M219.143,39.028V26.064h3.986c1.297,0,2.512,0.09,3.598,0.972c1.54,1.243,1.944,3.763,1.944,5.492
			c0,1.71-0.34,3.619-1.409,4.916c-1.069,1.333-2.593,1.584-4.133,1.584H219.143z M220.245,37.983h2.642
			c0.988,0,1.847-0.072,2.738-0.594c1.556-0.882,1.944-3.097,1.944-4.861c0-1.891-0.373-3.961-2.01-4.934
			c-0.696-0.414-1.701-0.486-2.673-0.486h-2.642V37.983z"/>
		<path d="M230.143,34.364c0-2.719,1.296-4.916,3.889-4.916c2.626,0,3.89,2.179,3.89,4.916c0,2.953-1.54,4.916-3.89,4.916
			C231.893,39.244,230.143,37.624,230.143,34.364z M234.031,30.421c-2.041,0-2.852,1.926-2.852,3.943
			c0,2.323,0.988,3.943,2.852,3.943c2.042,0,2.853-1.945,2.853-3.943C236.867,32.168,236.09,30.421,234.031,30.421z"/>
		<path d="M240.673,39.028h-0.972v-9.327h0.972v1.296c0.778-0.918,1.54-1.549,2.706-1.549c1.021,0,1.961,0.36,2.561,1.333
			c0.405,0.667,0.422,1.369,0.422,2.143v6.104h-0.973v-6.086c0-1.674-0.616-2.521-2.172-2.521c-1.199,0-2.025,0.864-2.333,1.818
			c-0.194,0.594-0.211,1.116-0.211,1.765V39.028z"/>
		<path d="M249.308,34.617c-0.017,2.017,0.956,3.691,2.819,3.691c1.265,0,2.253-0.774,2.545-2.143h1.085
			c-0.486,1.765-1.49,3.115-3.63,3.115c-2.689,0-3.856-2.125-3.856-4.879c0-2.719,1.458-4.952,3.856-4.952
			c2.302,0,3.711,1.819,3.695,5.168H249.308z M254.785,33.716c0-1.818-0.908-3.295-2.658-3.295c-1.718,0-2.625,1.53-2.819,3.295
			H254.785z"/>
	</g>
	<g>
		<path d="M221.849,74.623V61.659h4.213c2.739,0,3.824,1.314,3.824,3.259c0,1.801-0.923,2.611-1.863,2.791v0.036
			c1.604,0.27,2.398,1.512,2.398,3.223c0,2.701-1.588,3.655-3.809,3.655H221.849z M222.95,67.385h2.787
			c2.302,0,3.047-0.9,3.047-2.467c0-1.62-0.875-2.214-3.29-2.214h-2.544V67.385z M222.95,73.579h2.804
			c2.431,0,3.565-0.36,3.565-2.611c0-2.143-1.361-2.539-3.436-2.539h-2.934V73.579z"/>
		<path d="M238.195,65.296h0.973v9.327h-0.973v-1.296c-0.519,0.648-1.231,1.548-2.706,1.548c-2.236,0-2.981-1.494-2.981-3.439v-6.14
			h0.973v6.122c0,1.603,0.632,2.485,2.155,2.485c1.604,0,2.56-1.477,2.56-3.529V65.296z"/>
		<path d="M242.082,71.706c0.309,1.603,1.054,2.197,2.512,2.197c1.41,0,2.074-0.828,2.074-1.729c0-2.701-5.38-0.792-5.38-4.465
			c0-1.548,1.086-2.665,2.949-2.665c1.815,0,2.998,0.829,3.241,2.935h-0.988c-0.179-1.44-1.054-1.962-2.269-1.962
			c-1.231,0-1.896,0.648-1.896,1.603c0,2.539,5.38,0.954,5.38,4.537c0,1.783-1.442,2.719-3.419,2.719s-3.111-1.404-3.192-3.169
			H242.082z"/>
		<path d="M249.551,77.162c0.259,0.054,0.534,0.108,0.81,0.108c1.103,0,1.265-1.765,1.637-2.575l-3.257-9.399h1.086l2.689,8.012
			l2.69-8.012h1.053l-3.127,9.201c-0.794,2.341-1.312,3.799-2.658,3.799c-0.34,0-0.664-0.054-0.923-0.126V77.162z"/>
	</g>
	<g>
		<path d="M138.942,107.49c-0.429-2.215-1.592-3.061-3.475-3.061c-2.663,0-3.811,2.683-3.811,5.744c0,2.899,0.903,5.816,3.903,5.816
			c1.897,0,3.076-1.513,3.489-3.565h1.086c-0.49,2.502-1.821,4.609-4.775,4.609c-3.397,0-4.745-3.151-4.745-6.824
			c0-4.952,2.204-6.824,5.127-6.824c2.265,0,3.918,1.422,4.27,4.105H138.942z"/>
		<path d="M141.509,112.027c0-2.719,1.225-4.916,3.673-4.916c2.479,0,3.673,2.179,3.673,4.916c0,2.953-1.454,4.916-3.673,4.916
			C143.162,116.907,141.509,115.287,141.509,112.027z M145.182,108.085c-1.929,0-2.694,1.926-2.694,3.943
			c0,2.323,0.934,3.943,2.694,3.943c1.928,0,2.693-1.945,2.693-3.943C147.86,109.831,147.126,108.085,145.182,108.085z"/>
		<path d="M151.332,116.691h-0.918v-9.327h0.918v1.404h0.03c0.475-1.062,1.423-1.657,2.448-1.657c1.47,0,1.99,0.811,2.327,1.801
			c0.52-1.207,1.453-1.801,2.586-1.801c2.158,0,2.464,1.819,2.464,3.691v5.888h-0.918v-6.446c0-1.333-0.398-2.161-1.699-2.161
			c-0.673,0-1.331,0.342-1.79,1.062c-0.398,0.612-0.521,1.747-0.521,2.521v5.023h-0.918v-6.446c0-1.333-0.398-2.161-1.699-2.161
			c-0.674,0-1.331,0.342-1.791,1.062c-0.397,0.612-0.52,1.747-0.52,2.521V116.691z"/>
		<path d="M164.076,116.691h-0.918v-9.327h0.918v1.404h0.03c0.475-1.062,1.424-1.657,2.449-1.657c1.469,0,1.989,0.811,2.326,1.801
			c0.521-1.207,1.454-1.801,2.587-1.801c2.157,0,2.464,1.819,2.464,3.691v5.888h-0.919v-6.446c0-1.333-0.397-2.161-1.698-2.161
			c-0.674,0-1.332,0.342-1.791,1.062c-0.397,0.612-0.521,1.747-0.521,2.521v5.023h-0.918v-6.446c0-1.333-0.397-2.161-1.698-2.161
			c-0.674,0-1.332,0.342-1.791,1.062c-0.398,0.612-0.521,1.747-0.521,2.521V116.691z"/>
		<path d="M179.668,111.253c0.336-0.036,0.902-0.144,1.209-0.306c0.306-0.162,0.336-0.648,0.336-0.972
			c0-1.099-0.551-1.891-1.974-1.891c-1.271,0-2.143,0.486-2.312,2.106h-0.934c0.138-2.197,1.53-3.079,3.26-3.079
			c1.607,0,2.878,0.738,2.878,2.899v5.078c0,0.846,0.184,1.044,0.964,0.72v0.846c-0.138,0.054-0.459,0.18-0.72,0.18
			c-0.152,0-0.275-0.018-0.413-0.054c-0.612-0.108-0.719-0.738-0.734-1.386c-0.766,1.008-1.806,1.548-2.954,1.548
			c-1.393,0-2.647-0.882-2.647-2.683c0-1.566,0.918-2.521,2.771-2.809L179.668,111.253z M181.213,111.793
			c-0.78,0.378-1.576,0.45-2.372,0.522c-1.393,0.126-2.234,0.72-2.234,1.981c0,1.134,0.842,1.674,1.714,1.674
			c1.454,0,2.893-0.828,2.893-2.719V111.793z"/>
		<path d="M185.45,116.691h-0.918v-9.327h0.918v1.296c0.734-0.918,1.454-1.549,2.556-1.549c0.964,0,1.852,0.36,2.418,1.333
			c0.383,0.667,0.398,1.369,0.398,2.143v6.104h-0.919v-6.086c0-1.674-0.581-2.521-2.051-2.521c-1.132,0-1.913,0.864-2.203,1.818
			c-0.184,0.594-0.199,1.116-0.199,1.765V116.691z"/>
		<path d="M199.16,103.727h0.919v12.964h-0.919v-1.639h-0.03c-0.535,1.225-1.745,1.891-2.755,1.891
			c-2.556,0-3.581-2.143-3.581-4.897c0-2.611,1.117-4.934,3.535-4.934c1.117,0,2.25,0.612,2.831,1.747V103.727z M196.483,108.085
			c-1.898,0-2.785,1.891-2.709,4.231c0.016,2.341,1.163,3.655,2.709,3.655c1.729,0,2.678-1.729,2.678-3.979
			C199.16,109.885,198.151,108.085,196.483,108.085z"/>
		<path d="M201.515,116.691l4.331-12.964h1.179l4.224,12.964h-1.071l-1.271-4.069h-5.02l-1.301,4.069H201.515z M204.238,111.578
			h4.316l-2.158-6.806L204.238,111.578z"/>
		<path d="M213.617,116.691h-0.918v-12.964h0.918v5.131c0.582-1.134,1.714-1.747,2.831-1.747c2.419,0,3.536,2.323,3.536,4.934
			c0,2.755-1.025,4.897-3.582,4.897c-1.01,0-2.219-0.666-2.755-1.891h-0.03V116.691z M216.296,115.971
			c1.546,0,2.693-1.314,2.709-3.655c0.076-2.34-0.812-4.231-2.709-4.231c-1.669,0-2.679,1.8-2.679,3.907
			C213.617,114.242,214.567,115.971,216.296,115.971z"/>
		<path d="M221.42,112.027c0-2.719,1.225-4.916,3.673-4.916c2.479,0,3.673,2.179,3.673,4.916c0,2.953-1.454,4.916-3.673,4.916
			C223.072,116.907,221.42,115.287,221.42,112.027z M225.093,108.085c-1.929,0-2.693,1.926-2.693,3.943
			c0,2.323,0.934,3.943,2.693,3.943c1.929,0,2.693-1.945,2.693-3.943C227.772,109.831,227.036,108.085,225.093,108.085z"/>
		<path d="M231.411,116.691h-0.918v-9.327h0.918v1.747h0.03c0.505-1.495,1.255-1.999,2.587-1.999v1.17
			c-2.066-0.054-2.617,1.747-2.617,3.835V116.691z"/>
		<path d="M238.327,116.727c-0.214,0.054-0.612,0.216-1.056,0.216c-0.903,0-1.408-0.468-1.408-1.854v-6.824h-1.117v-0.9h1.117
			v-2.593h0.918v2.593h1.484v0.9h-1.484v6.392c0,0.918,0.03,1.314,0.796,1.314c0.245,0,0.505-0.054,0.75-0.126V116.727z"/>
		<path d="M240.361,112.28c-0.016,2.017,0.903,3.691,2.663,3.691c1.193,0,2.127-0.774,2.402-2.143h1.025
			c-0.459,1.765-1.407,3.115-3.428,3.115c-2.541,0-3.643-2.125-3.643-4.879c0-2.719,1.377-4.952,3.643-4.952
			c2.173,0,3.505,1.819,3.489,5.168H240.361z M245.534,111.379c0-1.818-0.857-3.295-2.51-3.295c-1.622,0-2.479,1.53-2.663,3.295
			H245.534z"/>
		<path d="M254.424,103.727h0.918v12.964h-0.918v-1.639h-0.03c-0.536,1.225-1.745,1.891-2.755,1.891
			c-2.557,0-3.582-2.143-3.582-4.897c0-2.611,1.117-4.934,3.536-4.934c1.117,0,2.249,0.612,2.831,1.747V103.727z M251.745,108.085
			c-1.897,0-2.785,1.891-2.709,4.231c0.016,2.341,1.163,3.655,2.709,3.655c1.729,0,2.679-1.729,2.679-3.979
			C254.424,109.885,253.414,108.085,251.745,108.085z"/>
	</g>
	<g>
		<path d="M222.772,158.391v-12.964h7.763v1.044h-6.66v4.681h6.012v1.044h-6.012v5.149h6.822v1.044H222.772z"/>
		<path d="M233.545,158.391h-0.973v-9.327h0.973v1.747h0.032c0.535-1.495,1.329-1.999,2.738-1.999v1.17
			c-2.188-0.054-2.771,1.747-2.771,3.835V158.391z"/>
		<path d="M238.94,158.391h-0.973v-9.327h0.973v1.747h0.032c0.535-1.495,1.329-1.999,2.738-1.999v1.17
			c-2.188-0.054-2.771,1.747-2.771,3.835V158.391z"/>
		<path d="M242.762,153.727c0-2.719,1.297-4.916,3.89-4.916c2.625,0,3.889,2.179,3.889,4.916c0,2.953-1.539,4.916-3.889,4.916
			C244.512,158.606,242.762,156.986,242.762,153.727z M246.651,149.784c-2.042,0-2.853,1.926-2.853,3.943
			c0,2.323,0.989,3.943,2.853,3.943c2.042,0,2.852-1.945,2.852-3.943C249.487,151.531,248.709,149.784,246.651,149.784z"/>
		<path d="M253.341,158.391h-0.972v-9.327h0.972v1.747h0.033c0.534-1.495,1.328-1.999,2.738-1.999v1.17
			c-2.188-0.054-2.771,1.747-2.771,3.835V158.391z"/>
	</g>
	<g>
		<path d="M206.572,200.458v-12.964h7.762v1.044h-6.66v4.681h6.013v1.044h-6.013v5.149h6.822v1.044H206.572z"/>
		<path d="M217.345,200.458h-0.972v-9.327h0.972v1.747h0.033c0.534-1.495,1.328-1.999,2.738-1.999v1.17
			c-2.188-0.054-2.771,1.747-2.771,3.835V200.458z"/>
		<path d="M222.739,200.458h-0.972v-9.327h0.972v1.747h0.033c0.534-1.495,1.328-1.999,2.738-1.999v1.17
			c-2.188-0.054-2.771,1.747-2.771,3.835V200.458z"/>
		<path d="M226.563,195.794c0-2.719,1.296-4.916,3.889-4.916c2.626,0,3.89,2.179,3.89,4.916c0,2.953-1.54,4.916-3.89,4.916
			C228.313,200.674,226.563,199.054,226.563,195.794z M230.451,191.852c-2.041,0-2.852,1.926-2.852,3.943
			c0,2.323,0.988,3.943,2.852,3.943c2.042,0,2.853-1.945,2.853-3.943C233.287,193.598,232.51,191.852,230.451,191.852z"/>
		<path d="M237.142,200.458h-0.973v-9.327h0.973v1.747h0.032c0.535-1.495,1.329-1.999,2.738-1.999v1.17
			c-2.188-0.054-2.771,1.747-2.771,3.835V200.458z"/>
		<path d="M242.05,200.458v-12.964h1.102v12.964H242.05z"/>
		<path d="M246.164,200.458v-12.964h3.986c1.297,0,2.512,0.09,3.598,0.972c1.54,1.243,1.944,3.763,1.944,5.492
			c0,1.71-0.34,3.619-1.409,4.916c-1.069,1.333-2.593,1.584-4.133,1.584H246.164z M247.267,199.414h2.642
			c0.988,0,1.847-0.072,2.738-0.594c1.556-0.882,1.944-3.097,1.944-4.861c0-1.891-0.373-3.961-2.01-4.934
			c-0.696-0.414-1.701-0.486-2.673-0.486h-2.642V199.414z"/>
	</g>
	<g>
		<path class="st3" d="M110.63,18.264V5.3h1.685l3.824,11.434h0.033L119.932,5.3h1.669v12.964h-1.102V6.704h-0.033l-3.824,11.56
			h-1.037l-3.84-11.56h-0.033v11.56H110.63z"/>
		<path class="st3" d="M132.454,9.063c-0.454-2.215-1.686-3.061-3.679-3.061c-2.819,0-4.035,2.683-4.035,5.744
			c0,2.899,0.956,5.816,4.132,5.816c2.009,0,3.257-1.513,3.694-3.565h1.151c-0.519,2.502-1.929,4.609-5.056,4.609
			c-3.598,0-5.023-3.151-5.023-6.824c0-4.952,2.333-6.824,5.429-6.824c2.398,0,4.148,1.422,4.521,4.105H132.454z"/>
		<path class="st3" d="M142.66,19.614v0.9h-8.103v-0.9H142.66z"/>
		<path class="st3" d="M144.116,14.158c-0.016,1.621,0.065,3.331,2.106,3.331c1.507,0,2.058-0.99,2.058-2.809V5.3h1.102v9.417
			c0,2.502-1.037,3.889-3.29,3.889c-2.625,0-3.079-2.143-3.079-4.448H144.116z"/>
		<path class="st3" d="M151.373,13.6c0-2.719,1.297-4.916,3.89-4.916c2.625,0,3.889,2.179,3.889,4.916
			c0,2.953-1.539,4.916-3.889,4.916C153.123,18.48,151.373,16.859,151.373,13.6z M155.263,9.657c-2.042,0-2.853,1.926-2.853,3.943
			c0,2.323,0.989,3.943,2.853,3.943c2.042,0,2.852-1.945,2.852-3.943C158.099,11.404,157.32,9.657,155.263,9.657z"/>
		<path class="st3" d="M167.413,8.937h0.973v8.426c0,2.503-0.745,4.718-3.938,4.718c-2.463,0-3.484-1.567-3.549-2.683h1.037
			c0.291,1.404,1.361,1.71,2.512,1.71c2.657,0,3.014-2.196,2.965-4.339c-0.615,1.134-1.814,1.747-2.997,1.747
			c-2.561,0-3.744-2.323-3.744-4.934c0-2.754,1.086-4.897,3.792-4.897c1.07,0,2.351,0.667,2.917,1.891h0.032V8.937z M164.578,9.657
			c-1.637,0-2.853,1.314-2.869,3.655c-0.08,2.341,0.859,4.231,2.869,4.231c1.766,0,2.835-1.8,2.835-3.907
			C167.413,11.386,166.409,9.657,164.578,9.657z"/>
	</g>
	<g>
	</g>
	<g>
	</g>
	<g>
	</g>
	<g>
	</g>
	<g>
	</g>
	<g>
	</g>
	<g>
	</g>
	<g>
	</g>
	<g>
	</g>
	<g>
	</g>
	<g>
	</g>
	<g>
	</g>
	<g>
	</g>
	<g>
	</g>
	<g>
	</g>
</g>
</svg>
