<?xml version="1.0" encoding="utf-8"?>
<!-- Generator: Adobe Illustrator 28.2.0, SVG Export Plug-In . SVG Version: 6.00 Build 0)  -->
<svg version="1.1" xmlns="http://www.w3.org/2000/svg" xmlns:xlink="http://www.w3.org/1999/xlink" x="0px" y="0px"
	 width="281.185px" height="178.933px" viewBox="0 0 281.185 178.933" style="enable-background:new 0 0 281.185 178.933;"
	 xml:space="preserve">
<style type="text/css">
	.st0{fill:#F0F0F0;stroke:#828282;stroke-miterlimit:10;}
	.st1{fill:none;stroke:#828282;stroke-miterlimit:10;}
	.st2{fill:#828282;}
	.st3{fill:#FFFFFF;}
</style>
<g id="レイヤー_2">
	<rect x="20.323" y="0.5" class="st0" width="240.539" height="177.933"/>
	<line class="st1" x1="0" y1="25.814" x2="20.323" y2="25.814"/>
	<line class="st1" x1="0" y1="25.814" x2="20.323" y2="25.814"/>
	<line class="st1" x1="260.862" y1="25.814" x2="281.185" y2="25.814"/>
	<rect x="20.323" y="0.5" class="st2" width="240.539" height="21"/>
</g>
<g id="レイヤー_3">
	<g>
		<path d="M25.121,39.028V26.064h7.762v1.044h-6.66v4.681h6.012v1.044h-6.012v5.149h6.822v1.044H25.121z"/>
		<path d="M37.79,34.995l-2.609,4.033h-1.183l3.225-4.825l-2.966-4.501h1.199l2.317,3.709l2.382-3.709h1.231l-3.03,4.501
			l3.144,4.825h-1.167L37.79,34.995z"/>
		<path d="M43.573,34.617c-0.016,2.017,0.956,3.691,2.82,3.691c1.264,0,2.252-0.774,2.544-2.143h1.085
			c-0.486,1.765-1.491,3.115-3.63,3.115c-2.69,0-3.857-2.125-3.857-4.879c0-2.719,1.458-4.952,3.857-4.952
			c2.301,0,3.711,1.819,3.695,5.168H43.573z M49.051,33.716c0-1.818-0.908-3.295-2.658-3.295c-1.718,0-2.625,1.53-2.82,3.295H49.051
			z"/>
		<path d="M57.928,32.636c-0.34-1.386-1.199-2.214-2.496-2.214c-1.993,0-2.819,2.017-2.819,3.961c0,1.963,0.81,3.925,2.819,3.925
			c1.442,0,2.35-0.954,2.577-2.503h1.037c-0.34,2.071-1.507,3.475-3.614,3.475c-2.674,0-3.856-2.143-3.856-4.897
			c0-2.593,1.345-4.934,3.856-4.934c1.929,0,3.192,1.026,3.484,3.187H57.928z"/>
		<path d="M66.676,29.701h0.973v9.327h-0.973v-1.296c-0.519,0.648-1.231,1.548-2.706,1.548c-2.236,0-2.982-1.494-2.982-3.439v-6.14
			h0.973v6.122c0,1.603,0.632,2.485,2.155,2.485c1.604,0,2.56-1.477,2.56-3.529V29.701z"/>
		<path d="M72.945,39.064c-0.227,0.054-0.648,0.216-1.118,0.216c-0.956,0-1.491-0.468-1.491-1.854v-6.824h-1.183v-0.9h1.183v-2.593
			h0.973v2.593h1.572v0.9h-1.572v6.392c0,0.918,0.032,1.314,0.842,1.314c0.259,0,0.535-0.054,0.794-0.126V39.064z"/>
		<path d="M75.098,34.617c-0.016,2.017,0.956,3.691,2.82,3.691c1.264,0,2.252-0.774,2.544-2.143h1.085
			c-0.486,1.765-1.491,3.115-3.63,3.115c-2.69,0-3.857-2.125-3.857-4.879c0-2.719,1.458-4.952,3.857-4.952
			c2.301,0,3.711,1.819,3.695,5.168H75.098z M80.576,33.716c0-1.818-0.908-3.295-2.658-3.295c-1.718,0-2.625,1.53-2.82,3.295H80.576
			z"/>
	</g>
	<g>
		<path class="st3" d="M22.823,18.264V5.3h1.647l3.738,11.434h0.032L31.914,5.3h1.631v12.964h-1.077V6.704h-0.032l-3.738,11.56
			h-1.014l-3.753-11.56H23.9v11.56H22.823z"/>
		<path class="st3" d="M43.763,9.063c-0.443-2.215-1.647-3.061-3.595-3.061c-2.756,0-3.944,2.683-3.944,5.744
			c0,2.899,0.935,5.816,4.039,5.816c1.964,0,3.184-1.513,3.611-3.565h1.125c-0.507,2.502-1.885,4.609-4.941,4.609
			c-3.517,0-4.91-3.151-4.91-6.824c0-4.952,2.281-6.824,5.306-6.824c2.344,0,4.055,1.422,4.419,4.105H43.763z"/>
		<path class="st3" d="M53.346,19.614v0.9h-7.919v-0.9H53.346z"/>
		<path class="st3" d="M54.249,5.3h1.077v7.724c0,3.205,1.014,4.538,3.342,4.538c2.455,0,3.342-1.477,3.342-4.538V5.3h1.077v8.084
			c0,3.367-1.473,5.222-4.419,5.222c-2.978,0-4.419-1.909-4.419-5.222V5.3z"/>
		<path class="st3" d="M66.192,21.937h-0.95v-13h0.95v1.638h0.032c0.554-1.224,1.806-1.891,2.851-1.891
			c2.646,0,3.707,2.143,3.707,4.897c0,2.611-1.156,4.934-3.659,4.934c-1.156,0-2.329-0.612-2.93-1.747V21.937z M68.964,17.543
			c1.964,0,2.883-1.891,2.804-4.231c-0.016-2.34-1.204-3.655-2.804-3.655c-1.79,0-2.771,1.729-2.771,3.979
			C66.192,15.743,67.238,17.543,68.964,17.543z"/>
		<path class="st3" d="M80.748,5.3h0.951v12.964h-0.951v-1.639h-0.031c-0.555,1.225-1.806,1.891-2.851,1.891
			c-2.645,0-3.707-2.143-3.707-4.897c0-2.611,1.156-4.934,3.659-4.934c1.156,0,2.328,0.612,2.93,1.747V5.3z M77.977,9.657
			c-1.964,0-2.883,1.891-2.804,4.231c0.016,2.341,1.204,3.655,2.804,3.655c1.79,0,2.771-1.729,2.771-3.979
			C80.748,11.458,79.703,9.657,77.977,9.657z"/>
		<path class="st3" d="M87.465,12.826c0.348-0.036,0.934-0.144,1.251-0.306s0.349-0.648,0.349-0.972c0-1.099-0.57-1.891-2.043-1.891
			c-1.314,0-2.217,0.486-2.392,2.106h-0.966c0.143-2.197,1.583-3.079,3.374-3.079c1.663,0,2.978,0.738,2.978,2.899v5.078
			c0,0.846,0.19,1.044,0.998,0.72v0.846c-0.143,0.054-0.476,0.18-0.745,0.18c-0.158,0-0.285-0.018-0.428-0.054
			c-0.633-0.108-0.744-0.738-0.76-1.386c-0.792,1.008-1.869,1.548-3.057,1.548c-1.441,0-2.74-0.882-2.74-2.683
			c0-1.566,0.95-2.521,2.867-2.809L87.465,12.826z M89.065,13.366c-0.808,0.378-1.631,0.45-2.455,0.522
			c-1.441,0.126-2.312,0.72-2.312,1.981c0,1.134,0.871,1.674,1.774,1.674c1.505,0,2.994-0.828,2.994-2.719V13.366z"/>
		<path class="st3" d="M94.989,18.3c-0.222,0.054-0.633,0.216-1.093,0.216c-0.935,0-1.457-0.468-1.457-1.854V9.837h-1.156v-0.9
			h1.156V6.344h0.95v2.593h1.536v0.9h-1.536v6.392c0,0.918,0.032,1.314,0.824,1.314c0.253,0,0.522-0.054,0.776-0.126V18.3z"/>
		<path class="st3" d="M96.7,13.853c-0.016,2.017,0.934,3.691,2.756,3.691c1.235,0,2.202-0.774,2.487-2.143h1.061
			c-0.475,1.765-1.457,3.115-3.548,3.115c-2.629,0-3.77-2.125-3.77-4.879c0-2.719,1.425-4.952,3.77-4.952
			c2.249,0,3.627,1.819,3.611,5.168H96.7z M102.054,12.952c0-1.818-0.887-3.295-2.598-3.295c-1.679,0-2.566,1.53-2.756,3.295
			H102.054z"/>
		<path class="st3" d="M105.111,14.393c0.174,2.323,1.536,3.169,3.278,3.169c2.043,0,2.898-1.26,2.898-2.683
			c0-4.016-6.953-1.351-6.953-6.446c0-1.8,1.315-3.475,3.865-3.475c2.566,0,3.849,1.765,3.833,3.872h-1.03
			c0-1.981-1.346-2.827-2.803-2.827c-2.186,0-2.978,1.53-2.788,2.863c0.491,3.349,6.953,0.937,6.953,5.96
			c0,2.376-1.536,3.781-4.166,3.781c-2.376,0-4.134-1.405-4.134-4.213H105.111z"/>
		<path class="st3" d="M113.744,20.802c0.253,0.054,0.522,0.108,0.792,0.108c1.077,0,1.235-1.765,1.6-2.575l-3.184-9.399h1.061
			l2.629,8.012l2.629-8.012h1.03l-3.057,9.201c-0.776,2.341-1.283,3.799-2.597,3.799c-0.333,0-0.649-0.054-0.903-0.126V20.802z"/>
		<path class="st3" d="M122.282,18.264h-0.95V8.937h0.95v1.296c0.76-0.918,1.504-1.549,2.645-1.549c0.998,0,1.917,0.36,2.502,1.333
			c0.396,0.667,0.412,1.369,0.412,2.143v6.104h-0.95v-6.086c0-1.674-0.602-2.521-2.123-2.521c-1.172,0-1.979,0.864-2.281,1.818
			c-0.19,0.594-0.206,1.116-0.206,1.765V18.264z"/>
		<path class="st3" d="M135.555,11.872c-0.333-1.386-1.172-2.214-2.439-2.214c-1.948,0-2.756,2.017-2.756,3.961
			c0,1.963,0.792,3.925,2.756,3.925c1.41,0,2.296-0.954,2.518-2.503h1.014c-0.333,2.071-1.473,3.475-3.532,3.475
			c-2.614,0-3.77-2.143-3.77-4.897c0-2.593,1.314-4.934,3.77-4.934c1.885,0,3.12,1.026,3.405,3.187H135.555z"/>
		<path class="st3" d="M146.389,9.063c-0.443-2.215-1.647-3.061-3.595-3.061c-2.756,0-3.944,2.683-3.944,5.744
			c0,2.899,0.935,5.816,4.039,5.816c1.964,0,3.184-1.513,3.611-3.565h1.125c-0.507,2.502-1.885,4.609-4.941,4.609
			c-3.516,0-4.91-3.151-4.91-6.824c0-4.952,2.281-6.824,5.306-6.824c2.344,0,4.055,1.422,4.419,4.105H146.389z"/>
		<path class="st3" d="M148.655,13.6c0-2.719,1.267-4.916,3.801-4.916c2.565,0,3.801,2.179,3.801,4.916
			c0,2.953-1.505,4.916-3.801,4.916C150.366,18.479,148.655,16.859,148.655,13.6z M152.456,9.657c-1.996,0-2.788,1.926-2.788,3.943
			c0,2.323,0.966,3.943,2.788,3.943c1.996,0,2.788-1.945,2.788-3.943C155.228,11.404,154.468,9.657,152.456,9.657z"/>
		<path class="st3" d="M158.555,18.264h-0.95V8.937h0.95v1.296c0.76-0.918,1.504-1.549,2.645-1.549c0.998,0,1.917,0.36,2.502,1.333
			c0.396,0.667,0.412,1.369,0.412,2.143v6.104h-0.95v-6.086c0-1.674-0.602-2.521-2.123-2.521c-1.172,0-1.979,0.864-2.281,1.818
			c-0.19,0.594-0.206,1.116-0.206,1.765V18.264z"/>
		<path class="st3" d="M168.898,18.3c-0.222,0.054-0.633,0.216-1.093,0.216c-0.935,0-1.457-0.468-1.457-1.854V9.837h-1.156v-0.9
			h1.156V6.344h0.95v2.593h1.536v0.9h-1.536v6.392c0,0.918,0.032,1.314,0.824,1.314c0.253,0,0.522-0.054,0.776-0.126V18.3z"/>
		<path class="st3" d="M173.793,12.826c0.348-0.036,0.934-0.144,1.251-0.306s0.349-0.648,0.349-0.972
			c0-1.099-0.57-1.891-2.043-1.891c-1.314,0-2.217,0.486-2.392,2.106h-0.966c0.143-2.197,1.583-3.079,3.374-3.079
			c1.663,0,2.978,0.738,2.978,2.899v5.078c0,0.846,0.19,1.044,0.998,0.72v0.846c-0.143,0.054-0.475,0.18-0.745,0.18
			c-0.158,0-0.285-0.018-0.428-0.054c-0.633-0.108-0.744-0.738-0.76-1.386c-0.792,1.008-1.869,1.548-3.057,1.548
			c-1.441,0-2.74-0.882-2.74-2.683c0-1.566,0.95-2.521,2.867-2.809L173.793,12.826z M175.392,13.366
			c-0.808,0.378-1.631,0.45-2.455,0.522c-1.441,0.126-2.312,0.72-2.312,1.981c0,1.134,0.871,1.674,1.774,1.674
			c1.505,0,2.994-0.828,2.994-2.719V13.366z"/>
		<path class="st3" d="M184.247,11.872c-0.333-1.386-1.172-2.214-2.439-2.214c-1.948,0-2.756,2.017-2.756,3.961
			c0,1.963,0.792,3.925,2.756,3.925c1.41,0,2.296-0.954,2.518-2.503h1.014c-0.333,2.071-1.473,3.475-3.532,3.475
			c-2.613,0-3.77-2.143-3.77-4.897c0-2.593,1.314-4.934,3.77-4.934c1.885,0,3.12,1.026,3.405,3.187H184.247z"/>
		<path class="st3" d="M189.728,18.3c-0.222,0.054-0.633,0.216-1.093,0.216c-0.935,0-1.457-0.468-1.457-1.854V9.837h-1.156v-0.9
			h1.156V6.344h0.95v2.593h1.536v0.9h-1.536v6.392c0,0.918,0.032,1.314,0.824,1.314c0.253,0,0.522-0.054,0.776-0.126V18.3z"/>
		<path class="st3" d="M190.948,18.264V5.3h4.166c2.962,0,3.722,1.674,3.722,3.619c0,2.899-2.265,3.619-4.372,3.619h-2.439v5.726
			H190.948z M194.495,11.494c2.012,0,3.263-0.468,3.263-2.665c0-1.621-0.918-2.485-2.946-2.485h-2.788v5.149H194.495z"/>
		<path class="st3" d="M203.905,12.826c0.348-0.036,0.934-0.144,1.251-0.306s0.349-0.648,0.349-0.972
			c0-1.099-0.57-1.891-2.043-1.891c-1.314,0-2.217,0.486-2.392,2.106h-0.966c0.143-2.197,1.583-3.079,3.374-3.079
			c1.663,0,2.978,0.738,2.978,2.899v5.078c0,0.846,0.19,1.044,0.998,0.72v0.846c-0.143,0.054-0.476,0.18-0.745,0.18
			c-0.158,0-0.285-0.018-0.428-0.054c-0.633-0.108-0.744-0.738-0.76-1.386c-0.792,1.008-1.869,1.548-3.057,1.548
			c-1.441,0-2.74-0.882-2.74-2.683c0-1.566,0.95-2.521,2.867-2.809L203.905,12.826z M205.504,13.366
			c-0.808,0.378-1.631,0.45-2.455,0.522c-1.441,0.126-2.312,0.72-2.312,1.981c0,1.134,0.871,1.674,1.774,1.674
			c1.505,0,2.994-0.828,2.994-2.719V13.366z"/>
		<path class="st3" d="M209.544,18.264h-0.95V8.937h0.95v1.747h0.032c0.522-1.495,1.299-1.999,2.677-1.999v1.17
			c-2.138-0.054-2.708,1.747-2.708,3.835V18.264z"/>
		<path class="st3" d="M217.194,12.826c0.348-0.036,0.934-0.144,1.251-0.306s0.349-0.648,0.349-0.972
			c0-1.099-0.57-1.891-2.043-1.891c-1.314,0-2.217,0.486-2.392,2.106h-0.966c0.143-2.197,1.583-3.079,3.374-3.079
			c1.663,0,2.978,0.738,2.978,2.899v5.078c0,0.846,0.19,1.044,0.998,0.72v0.846c-0.143,0.054-0.475,0.18-0.745,0.18
			c-0.158,0-0.285-0.018-0.428-0.054c-0.633-0.108-0.744-0.738-0.76-1.386c-0.792,1.008-1.869,1.548-3.057,1.548
			c-1.441,0-2.74-0.882-2.74-2.683c0-1.566,0.95-2.521,2.867-2.809L217.194,12.826z M218.794,13.366
			c-0.808,0.378-1.631,0.45-2.455,0.522c-1.441,0.126-2.312,0.72-2.312,1.981c0,1.134,0.871,1.674,1.774,1.674
			c1.505,0,2.994-0.828,2.994-2.719V13.366z"/>
		<path class="st3" d="M222.659,18.264h-0.95V8.937h0.95v1.404h0.032c0.491-1.062,1.473-1.657,2.534-1.657
			c1.521,0,2.059,0.811,2.408,1.801c0.539-1.207,1.504-1.801,2.677-1.801c2.233,0,2.55,1.819,2.55,3.691v5.888h-0.95v-6.446
			c0-1.333-0.412-2.161-1.758-2.161c-0.697,0-1.378,0.342-1.853,1.062c-0.412,0.612-0.539,1.747-0.539,2.521v5.023h-0.95v-6.446
			c0-1.333-0.412-2.161-1.758-2.161c-0.697,0-1.378,0.342-1.853,1.062c-0.412,0.612-0.539,1.747-0.539,2.521V18.264z"/>
		<path class="st3" d="M235.221,13.853c-0.016,2.017,0.934,3.691,2.756,3.691c1.235,0,2.202-0.774,2.487-2.143h1.061
			c-0.475,1.765-1.457,3.115-3.548,3.115c-2.629,0-3.77-2.125-3.77-4.879c0-2.719,1.425-4.952,3.77-4.952
			c2.249,0,3.627,1.819,3.611,5.168H235.221z M240.574,12.952c0-1.818-0.887-3.295-2.598-3.295c-1.679,0-2.566,1.53-2.756,3.295
			H240.574z"/>
		<path class="st3" d="M245.928,18.3c-0.222,0.054-0.633,0.216-1.093,0.216c-0.935,0-1.457-0.468-1.457-1.854V9.837h-1.156v-0.9
			h1.156V6.344h0.95v2.593h1.536v0.9h-1.536v6.392c0,0.918,0.032,1.314,0.824,1.314c0.253,0,0.522-0.054,0.776-0.126V18.3z"/>
		<path class="st3" d="M247.639,13.853c-0.016,2.017,0.935,3.691,2.756,3.691c1.235,0,2.202-0.774,2.486-2.143h1.062
			c-0.475,1.765-1.457,3.115-3.548,3.115c-2.629,0-3.77-2.125-3.77-4.879c0-2.719,1.425-4.952,3.77-4.952
			c2.249,0,3.627,1.819,3.611,5.168H247.639z M252.993,12.952c0-1.818-0.887-3.295-2.598-3.295c-1.679,0-2.566,1.53-2.756,3.295
			H252.993z"/>
		<path class="st3" d="M256.462,18.264h-0.95V8.937h0.95v1.747h0.032c0.522-1.495,1.299-1.999,2.677-1.999v1.17
			c-2.138-0.054-2.708,1.747-2.708,3.835V18.264z"/>
	</g>
	<g>
		<path d="M220.484,39.086V26.123h3.986c1.296,0,2.512,0.09,3.598,0.972c1.54,1.243,1.944,3.763,1.944,5.492
			c0,1.71-0.34,3.619-1.41,4.916c-1.069,1.333-2.593,1.584-4.132,1.584H220.484z M221.586,38.042h2.642
			c0.988,0,1.847-0.072,2.738-0.594c1.556-0.882,1.945-3.097,1.945-4.861c0-1.891-0.373-3.961-2.01-4.934
			c-0.697-0.414-1.701-0.486-2.673-0.486h-2.642V38.042z"/>
		<path d="M231.483,34.423c0-2.719,1.296-4.916,3.889-4.916c2.625,0,3.889,2.179,3.889,4.916c0,2.953-1.54,4.916-3.889,4.916
			C233.233,39.302,231.483,37.682,231.483,34.423z M235.372,30.48c-2.042,0-2.852,1.926-2.852,3.943
			c0,2.323,0.989,3.943,2.852,3.943c2.042,0,2.852-1.945,2.852-3.943C238.208,32.227,237.431,30.48,235.372,30.48z"/>
		<path d="M242.014,39.086h-0.972V29.76h0.972v1.296c0.778-0.918,1.54-1.549,2.706-1.549c1.021,0,1.961,0.36,2.561,1.333
			c0.405,0.667,0.421,1.369,0.421,2.143v6.104h-0.973V33c0-1.674-0.616-2.521-2.171-2.521c-1.199,0-2.025,0.864-2.333,1.818
			c-0.194,0.594-0.21,1.116-0.21,1.765V39.086z"/>
		<path d="M250.648,34.675c-0.016,2.017,0.956,3.691,2.82,3.691c1.264,0,2.252-0.774,2.544-2.143h1.085
			c-0.486,1.765-1.491,3.115-3.63,3.115c-2.69,0-3.857-2.125-3.857-4.879c0-2.719,1.458-4.952,3.857-4.952
			c2.301,0,3.711,1.819,3.695,5.168H250.648z M256.126,33.775c0-1.818-0.908-3.295-2.658-3.295c-1.718,0-2.625,1.53-2.82,3.295
			H256.126z"/>
	</g>
	<g>
		<path d="M223.189,73.711V60.748h4.213c2.739,0,3.824,1.314,3.824,3.259c0,1.801-0.923,2.611-1.863,2.791v0.036
			c1.604,0.27,2.398,1.512,2.398,3.223c0,2.701-1.588,3.655-3.808,3.655H223.189z M224.291,66.473h2.787
			c2.301,0,3.046-0.9,3.046-2.467c0-1.62-0.875-2.214-3.29-2.214h-2.544V66.473z M224.291,72.667h2.803
			c2.431,0,3.565-0.36,3.565-2.611c0-2.143-1.361-2.539-3.436-2.539h-2.933V72.667z"/>
		<path d="M239.536,64.385h0.973v9.327h-0.973v-1.296c-0.519,0.648-1.231,1.548-2.706,1.548c-2.236,0-2.982-1.494-2.982-3.439v-6.14
			h0.973v6.122c0,1.603,0.632,2.485,2.155,2.485c1.604,0,2.56-1.477,2.56-3.529V64.385z"/>
		<path d="M243.423,70.794c0.308,1.603,1.053,2.197,2.512,2.197c1.41,0,2.074-0.828,2.074-1.729c0-2.701-5.38-0.792-5.38-4.465
			c0-1.548,1.085-2.665,2.949-2.665c1.815,0,2.998,0.829,3.241,2.935h-0.988c-0.178-1.44-1.053-1.962-2.269-1.962
			c-1.231,0-1.896,0.648-1.896,1.603c0,2.539,5.38,0.954,5.38,4.537c0,1.783-1.442,2.719-3.419,2.719
			c-1.977,0-3.111-1.404-3.192-3.169H243.423z"/>
		<path d="M250.891,76.25c0.259,0.054,0.535,0.108,0.81,0.108c1.102,0,1.264-1.765,1.637-2.575l-3.257-9.399h1.086l2.69,8.012
			l2.69-8.012h1.053l-3.127,9.201c-0.794,2.341-1.312,3.799-2.658,3.799c-0.34,0-0.664-0.054-0.923-0.126V76.25z"/>
	</g>
	<g>
		<path d="M207.913,158.289v-12.964h7.762v1.044h-6.66v4.681h6.012v1.044h-6.012v5.149h6.822v1.045H207.913z"/>
		<path d="M218.686,158.289h-0.972v-9.327h0.972v1.747h0.033c0.535-1.495,1.329-1.999,2.738-1.999v1.17
			c-2.188-0.054-2.771,1.747-2.771,3.835V158.289z"/>
		<path d="M224.08,158.289h-0.972v-9.327h0.972v1.747h0.033c0.535-1.495,1.329-1.999,2.738-1.999v1.17
			c-2.188-0.054-2.771,1.747-2.771,3.835V158.289z"/>
		<path d="M227.903,153.625c0-2.719,1.296-4.916,3.889-4.916c2.625,0,3.889,2.179,3.889,4.916c0,2.953-1.54,4.916-3.889,4.916
			C229.653,158.505,227.903,156.885,227.903,153.625z M231.792,149.683c-2.042,0-2.852,1.926-2.852,3.943
			c0,2.323,0.989,3.943,2.852,3.943c2.042,0,2.852-1.944,2.852-3.943C234.628,151.429,233.85,149.683,231.792,149.683z"/>
		<path d="M238.482,158.289h-0.972v-9.327h0.972v1.747h0.033c0.535-1.495,1.329-1.999,2.738-1.999v1.17
			c-2.188-0.054-2.771,1.747-2.771,3.835V158.289z"/>
		<path d="M243.391,158.289v-12.964h1.102v12.964H243.391z"/>
		<path d="M247.505,158.289v-12.964h3.986c1.296,0,2.512,0.09,3.598,0.972c1.54,1.243,1.944,3.763,1.944,5.492
			c0,1.71-0.34,3.619-1.41,4.915c-1.069,1.333-2.593,1.585-4.132,1.585H247.505z M248.607,157.244h2.642
			c0.988,0,1.847-0.071,2.738-0.594c1.556-0.882,1.945-3.097,1.945-4.861c0-1.891-0.373-3.961-2.01-4.934
			c-0.697-0.414-1.701-0.486-2.673-0.486h-2.642V157.244z"/>
	</g>
	<g>
		<path d="M224.113,115.952v-12.964h7.762v1.044h-6.66v4.681h6.012v1.044h-6.012v5.149h6.822v1.044H224.113z"/>
		<path d="M234.886,115.952h-0.972v-9.327h0.972v1.747h0.033c0.535-1.495,1.329-1.999,2.738-1.999v1.17
			c-2.188-0.054-2.771,1.747-2.771,3.835V115.952z"/>
		<path d="M240.28,115.952h-0.972v-9.327h0.972v1.747h0.033c0.535-1.495,1.329-1.999,2.738-1.999v1.17
			c-2.188-0.054-2.771,1.747-2.771,3.835V115.952z"/>
		<path d="M244.103,111.288c0-2.719,1.296-4.916,3.889-4.916c2.625,0,3.889,2.179,3.889,4.916c0,2.953-1.54,4.916-3.889,4.916
			C245.853,116.167,244.103,114.547,244.103,111.288z M247.992,107.345c-2.042,0-2.852,1.926-2.852,3.943
			c0,2.323,0.989,3.943,2.852,3.943c2.042,0,2.852-1.945,2.852-3.943C250.828,109.092,250.05,107.345,247.992,107.345z"/>
		<path d="M254.682,115.952h-0.972v-9.327h0.972v1.747h0.033c0.535-1.495,1.329-1.999,2.738-1.999v1.17
			c-2.188-0.054-2.771,1.747-2.771,3.835V115.952z"/>
	</g>
	<g>
	</g>
	<g>
	</g>
	<g>
	</g>
	<g>
	</g>
	<g>
	</g>
	<g>
	</g>
	<g>
	</g>
	<g>
	</g>
	<g>
	</g>
	<g>
	</g>
	<g>
	</g>
	<g>
	</g>
	<g>
	</g>
	<g>
	</g>
	<g>
	</g>
</g>
</svg>
