<?xml version="1.0" encoding="utf-8"?>
<!-- Generator: Adobe Illustrator 28.2.0, SVG Export Plug-In . SVG Version: 6.00 Build 0)  -->
<svg version="1.1" xmlns="http://www.w3.org/2000/svg" xmlns:xlink="http://www.w3.org/1999/xlink" x="0px" y="0px"
	 width="281.185px" height="306.127px" viewBox="0 0 281.185 306.127" style="enable-background:new 0 0 281.185 306.127;"
	 xml:space="preserve">
<style type="text/css">
	.st0{fill:#F0F0F0;stroke:#828282;stroke-miterlimit:10;}
	.st1{fill:none;stroke:#828282;stroke-miterlimit:10;}
	.st2{fill:#828282;}
	.st3{fill:#FFFFFF;}
</style>
<g id="レイヤー_2">
	<rect x="20.323" y="0.5" class="st0" width="240.539" height="305.127"/>
	<line class="st1" x1="0" y1="25.814" x2="20.323" y2="25.814"/>
	<line class="st1" x1="0" y1="25.814" x2="20.323" y2="25.814"/>
	<line class="st1" x1="260.862" y1="25.814" x2="281.185" y2="25.814"/>
	<rect x="20.323" y="0.5" class="st2" width="240.539" height="21"/>
</g>
<g id="レイヤー_3">
	<g>
		<path d="M25.122,39.028V26.064h7.762v1.044h-6.66v4.681h6.012v1.044h-6.012v5.149h6.822v1.044H25.122z"/>
		<path d="M37.791,34.995l-2.609,4.033h-1.183l3.225-4.825l-2.966-4.501h1.199l2.317,3.709l2.382-3.709h1.231l-3.03,4.501
			l3.144,4.825h-1.167L37.791,34.995z"/>
		<path d="M43.573,34.617c-0.016,2.017,0.956,3.691,2.82,3.691c1.264,0,2.252-0.774,2.544-2.143h1.085
			c-0.486,1.765-1.491,3.115-3.63,3.115c-2.69,0-3.857-2.125-3.857-4.879c0-2.719,1.458-4.952,3.857-4.952
			c2.301,0,3.711,1.819,3.695,5.168H43.573z M49.051,33.716c0-1.818-0.908-3.295-2.658-3.295c-1.718,0-2.625,1.53-2.82,3.295H49.051
			z"/>
		<path d="M57.928,32.636c-0.34-1.386-1.199-2.214-2.496-2.214c-1.993,0-2.819,2.017-2.819,3.961c0,1.963,0.81,3.925,2.819,3.925
			c1.442,0,2.35-0.954,2.577-2.503h1.037c-0.34,2.071-1.507,3.475-3.614,3.475c-2.674,0-3.856-2.143-3.856-4.897
			c0-2.593,1.345-4.934,3.856-4.934c1.929,0,3.192,1.026,3.484,3.187H57.928z"/>
		<path d="M66.676,29.701h0.973v9.327h-0.973v-1.296c-0.519,0.648-1.231,1.548-2.706,1.548c-2.236,0-2.982-1.494-2.982-3.439v-6.14
			h0.973v6.122c0,1.603,0.632,2.485,2.155,2.485c1.604,0,2.56-1.477,2.56-3.529V29.701z"/>
		<path d="M72.945,39.064c-0.227,0.054-0.648,0.216-1.118,0.216c-0.956,0-1.491-0.468-1.491-1.854v-6.824h-1.183v-0.9h1.183v-2.593
			h0.973v2.593h1.572v0.9h-1.572v6.392c0,0.918,0.032,1.314,0.842,1.314c0.259,0,0.535-0.054,0.794-0.126V39.064z"/>
		<path d="M75.099,34.617c-0.016,2.017,0.956,3.691,2.82,3.691c1.264,0,2.252-0.774,2.544-2.143h1.085
			c-0.486,1.765-1.491,3.115-3.63,3.115c-2.69,0-3.857-2.125-3.857-4.879c0-2.719,1.458-4.952,3.857-4.952
			c2.301,0,3.711,1.819,3.695,5.168H75.099z M80.576,33.716c0-1.818-0.908-3.295-2.658-3.295c-1.718,0-2.625,1.53-2.82,3.295H80.576
			z"/>
	</g>
	<g>
		<path d="M24.052,74.623l4.586-12.964h1.248l4.473,12.964h-1.134l-1.345-4.069h-5.315l-1.377,4.069H24.052z M26.937,69.51h4.57
			l-2.285-6.806L26.937,69.51z"/>
		<path d="M38.698,70.59l-2.609,4.033h-1.183l3.225-4.825l-2.966-4.501h1.199l2.317,3.709l2.382-3.709h1.231l-3.03,4.501
			l3.144,4.825h-1.167L38.698,70.59z"/>
		<path d="M43.979,63.262v-1.603h1.069v1.603H43.979z M44.027,74.623v-9.327h0.972v9.327H44.027z"/>
		<path d="M48.045,71.706c0.308,1.603,1.053,2.197,2.512,2.197c1.41,0,2.074-0.828,2.074-1.729c0-2.701-5.38-0.792-5.38-4.465
			c0-1.548,1.085-2.665,2.949-2.665c1.815,0,2.998,0.829,3.241,2.935h-0.988c-0.178-1.44-1.053-1.962-2.269-1.962
			c-1.231,0-1.896,0.648-1.896,1.603c0,2.539,5.38,0.954,5.38,4.537c0,1.783-1.442,2.719-3.419,2.719
			c-1.977,0-3.111-1.404-3.192-3.169H48.045z"/>
	</g>
	<g>
		<path d="M25.122,116.691v-12.964h1.102v11.919h6.255v1.044H25.122z"/>
		<path d="M34.583,112.28c-0.016,2.017,0.957,3.691,2.82,3.691c1.264,0,2.252-0.774,2.544-2.143h1.086
			c-0.486,1.765-1.491,3.115-3.63,3.115c-2.69,0-3.857-2.125-3.857-4.879c0-2.719,1.458-4.952,3.857-4.952
			c2.301,0,3.711,1.819,3.695,5.168H34.583z M40.06,111.379c0-1.818-0.908-3.295-2.658-3.295c-1.718,0-2.625,1.53-2.82,3.295H40.06z
			"/>
		<path d="M42.099,107.364h1.053l2.723,7.994l2.722-7.994h1.054l-3.257,9.327h-1.086L42.099,107.364z"/>
		<path d="M51.69,112.28c-0.016,2.017,0.957,3.691,2.82,3.691c1.264,0,2.252-0.774,2.544-2.143h1.086
			c-0.486,1.765-1.491,3.115-3.63,3.115c-2.69,0-3.857-2.125-3.857-4.879c0-2.719,1.458-4.952,3.857-4.952
			c2.301,0,3.711,1.819,3.695,5.168H51.69z M57.168,111.379c0-1.818-0.908-3.295-2.658-3.295c-1.718,0-2.625,1.53-2.82,3.295H57.168
			z"/>
		<path d="M60.244,116.691v-12.964h0.972v12.964H60.244z"/>
	</g>
	<g>
		<path d="M26.208,152.503v5.888h-1.102v-12.964h4.57c2.56,0,3.97,1.008,3.97,3.403c0,1.639-0.551,2.503-1.896,3.169
			c1.377,0.522,1.458,2.143,1.491,3.511c0.049,1.962,0.194,2.503,0.486,2.755v0.126h-1.215c-0.454-0.882-0.34-3.313-0.519-4.303
			c-0.259-1.404-1.215-1.584-2.317-1.584H26.208z M29.643,151.459c1.637,0,2.901-0.756,2.901-2.575c0-1.944-1.361-2.413-2.836-2.413
			h-3.5v4.987H29.643z"/>
		<path d="M36.38,153.98c-0.016,2.017,0.957,3.691,2.82,3.691c1.264,0,2.252-0.774,2.544-2.143h1.086
			c-0.486,1.765-1.491,3.115-3.63,3.115c-2.69,0-3.857-2.125-3.857-4.879c0-2.719,1.458-4.952,3.857-4.952
			c2.301,0,3.711,1.819,3.695,5.168H36.38z M41.858,153.079c0-1.818-0.908-3.295-2.658-3.295c-1.718,0-2.625,1.53-2.82,3.295H41.858
			z"/>
		<path d="M51.271,149.064h0.972v13h-0.972v-5.167c-0.616,1.134-1.815,1.747-2.998,1.747c-2.561,0-3.743-2.323-3.743-4.934
			c0-2.754,1.085-4.897,3.792-4.897c1.07,0,2.35,0.667,2.917,1.891h0.033V149.064z M48.435,149.784c-2.01,0-2.949,1.891-2.868,4.231
			c0.016,2.341,1.231,3.655,2.868,3.655c1.831,0,2.836-1.729,2.836-3.979C51.271,151.585,50.201,149.784,48.435,149.784z"/>
		<path d="M59.758,145.085c3.646,0,5.494,3.043,5.494,6.842c0,3.727-1.848,6.806-5.445,6.806c-3.598,0-5.429-3.079-5.429-6.806
			C54.362,148.146,56.275,145.085,59.758,145.085z M64.15,151.927c0-3.601-1.669-5.798-4.359-5.798
			c-2.998,0-4.311,2.791-4.311,5.798c0,3.061,1.296,5.762,4.343,5.762C62.854,157.689,64.15,154.952,64.15,151.927z"/>
		<path d="M68.262,158.391H67.29v-9.327h0.972v1.296c0.778-0.918,1.54-1.549,2.706-1.549c1.021,0,1.961,0.36,2.561,1.333
			c0.405,0.667,0.421,1.369,0.421,2.143v6.104h-0.973v-6.086c0-1.674-0.616-2.521-2.171-2.521c-1.199,0-2.025,0.864-2.333,1.818
			c-0.194,0.594-0.21,1.116-0.21,1.765V158.391z"/>
	</g>
	<g>
		<path d="M26.208,194.57v5.888h-1.102v-12.964h4.57c2.56,0,3.97,1.008,3.97,3.403c0,1.639-0.551,2.503-1.896,3.169
			c1.377,0.522,1.458,2.143,1.491,3.511c0.049,1.962,0.194,2.503,0.486,2.755v0.126h-1.215c-0.454-0.882-0.34-3.313-0.519-4.303
			c-0.259-1.404-1.215-1.584-2.317-1.584H26.208z M29.643,193.526c1.637,0,2.901-0.756,2.901-2.575c0-1.944-1.361-2.413-2.836-2.413
			h-3.5v4.987H29.643z"/>
		<path d="M36.38,196.047c-0.016,2.017,0.957,3.691,2.82,3.691c1.264,0,2.252-0.774,2.544-2.143h1.086
			c-0.486,1.765-1.491,3.115-3.63,3.115c-2.69,0-3.857-2.125-3.857-4.879c0-2.719,1.458-4.952,3.857-4.952
			c2.301,0,3.711,1.819,3.695,5.168H36.38z M41.858,195.147c0-1.818-0.908-3.295-2.658-3.295c-1.718,0-2.625,1.53-2.82,3.295H41.858
			z"/>
		<path d="M51.271,191.131h0.972v13h-0.972v-5.167c-0.616,1.134-1.815,1.747-2.998,1.747c-2.561,0-3.743-2.323-3.743-4.934
			c0-2.754,1.085-4.897,3.792-4.897c1.07,0,2.35,0.667,2.917,1.891h0.033V191.131z M48.435,191.852c-2.01,0-2.949,1.891-2.868,4.231
			c0.016,2.341,1.231,3.655,2.868,3.655c1.831,0,2.836-1.729,2.836-3.979C51.271,193.652,50.201,191.852,48.435,191.852z"/>
		<path d="M59.758,187.152c3.646,0,5.494,3.043,5.494,6.842c0,3.727-1.848,6.806-5.445,6.806c-3.598,0-5.429-3.079-5.429-6.806
			C54.362,190.213,56.275,187.152,59.758,187.152z M64.15,193.994c0-3.601-1.669-5.798-4.359-5.798
			c-2.998,0-4.311,2.791-4.311,5.798c0,3.061,1.296,5.762,4.343,5.762C62.854,199.756,64.15,197.019,64.15,193.994z"/>
		<path d="M66.447,192.031v-0.9h1.248v-1.477c0-1.477,0.486-2.413,1.783-2.413c0.292,0,0.551,0.018,0.81,0.072v0.99
			c-0.194-0.054-0.405-0.09-0.583-0.09c-1.004,0-1.037,0.918-1.037,1.765v1.152h1.621v0.9h-1.621v8.427h-0.972v-8.427H66.447z"/>
		<path d="M70.951,192.031v-0.9h1.248v-1.477c0-1.477,0.486-2.413,1.783-2.413c0.292,0,0.551,0.018,0.81,0.072v0.99
			c-0.194-0.054-0.405-0.09-0.583-0.09c-1.004,0-1.037,0.918-1.037,1.765v1.152h1.621v0.9h-1.621v8.427h-0.972v-8.427H70.951z"/>
	</g>
	<g>
		<path d="M25.122,242.525v-12.964h3.986c1.296,0,2.512,0.09,3.598,0.972c1.54,1.243,1.944,3.763,1.944,5.492
			c0,1.71-0.34,3.619-1.41,4.916c-1.069,1.333-2.593,1.584-4.132,1.584H25.122z M26.224,241.481h2.642
			c0.988,0,1.847-0.072,2.738-0.594c1.556-0.882,1.945-3.097,1.945-4.861c0-1.891-0.373-3.961-2.01-4.934
			c-0.697-0.414-1.701-0.486-2.673-0.486h-2.642V241.481z"/>
		<path d="M36.77,231.164v-1.603h1.069v1.603H36.77z M36.818,242.525v-9.327h0.972v9.327H36.818z"/>
		<path d="M40.836,239.608c0.308,1.603,1.053,2.197,2.512,2.197c1.41,0,2.074-0.828,2.074-1.729c0-2.701-5.38-0.792-5.38-4.465
			c0-1.548,1.085-2.665,2.949-2.665c1.815,0,2.998,0.829,3.241,2.935h-0.988c-0.178-1.44-1.053-1.962-2.269-1.962
			c-1.231,0-1.896,0.648-1.896,1.603c0,2.539,5.38,0.954,5.38,4.537c0,1.783-1.442,2.719-3.419,2.719
			c-1.977,0-3.111-1.404-3.192-3.169H40.836z"/>
		<path d="M52.225,237.088c0.356-0.036,0.956-0.144,1.28-0.306s0.356-0.648,0.356-0.972c0-1.099-0.583-1.891-2.09-1.891
			c-1.345,0-2.269,0.486-2.447,2.106h-0.989c0.146-2.197,1.621-3.079,3.452-3.079c1.702,0,3.046,0.738,3.046,2.899v5.078
			c0,0.846,0.195,1.044,1.021,0.72v0.846c-0.146,0.054-0.486,0.18-0.762,0.18c-0.162,0-0.292-0.018-0.438-0.054
			c-0.648-0.108-0.762-0.738-0.778-1.386c-0.81,1.008-1.912,1.548-3.127,1.548c-1.475,0-2.803-0.882-2.803-2.683
			c0-1.566,0.972-2.521,2.933-2.809L52.225,237.088z M53.862,237.628c-0.827,0.378-1.669,0.45-2.512,0.522
			c-1.475,0.126-2.366,0.72-2.366,1.981c0,1.134,0.891,1.674,1.815,1.674c1.539,0,3.062-0.828,3.062-2.719V237.628z"/>
		<path d="M58.462,242.525h-0.972v-12.964h0.972v5.131c0.616-1.134,1.815-1.747,2.998-1.747c2.56,0,3.743,2.323,3.743,4.934
			c0,2.755-1.085,4.897-3.792,4.897c-1.069,0-2.35-0.666-2.917-1.891h-0.032V242.525z M61.297,241.805
			c1.637,0,2.852-1.314,2.868-3.655c0.081-2.34-0.859-4.231-2.868-4.231c-1.767,0-2.836,1.8-2.836,3.907
			C58.462,240.077,59.466,241.805,61.297,241.805z"/>
		<path d="M67.42,242.525v-12.964h0.972v12.964H67.42z"/>
		<path d="M71.469,238.114c-0.016,2.017,0.957,3.691,2.82,3.691c1.264,0,2.252-0.774,2.544-2.143h1.086
			c-0.486,1.765-1.491,3.115-3.63,3.115c-2.69,0-3.857-2.125-3.857-4.879c0-2.719,1.458-4.952,3.857-4.952
			c2.301,0,3.711,1.819,3.695,5.168H71.469z M76.947,237.214c0-1.818-0.908-3.295-2.658-3.295c-1.718,0-2.625,1.53-2.82,3.295
			H76.947z"/>
		<path d="M84.949,229.219c3.646,0,5.494,3.043,5.494,6.842c0,3.727-1.848,6.806-5.445,6.806c-3.598,0-5.429-3.079-5.429-6.806
			C79.553,232.28,81.465,229.219,84.949,229.219z M89.341,236.062c0-3.601-1.669-5.798-4.359-5.798
			c-2.998,0-4.311,2.791-4.311,5.798c0,3.061,1.296,5.762,4.343,5.762C88.045,241.823,89.341,239.086,89.341,236.062z"/>
		<path d="M93.453,242.525h-0.973v-9.327h0.973v1.296c0.778-0.918,1.54-1.549,2.706-1.549c1.021,0,1.961,0.36,2.561,1.333
			c0.405,0.667,0.421,1.369,0.421,2.143v6.104h-0.973v-6.086c0-1.674-0.616-2.521-2.171-2.521c-1.199,0-2.025,0.864-2.333,1.818
			c-0.194,0.594-0.21,1.116-0.21,1.765V242.525z"/>
	</g>
	<g>
		<path d="M25.122,284.593v-12.964h3.986c1.296,0,2.512,0.09,3.598,0.972c1.54,1.243,1.944,3.763,1.944,5.492
			c0,1.71-0.34,3.619-1.41,4.916c-1.069,1.333-2.593,1.584-4.132,1.584H25.122z M26.224,283.548h2.642
			c0.988,0,1.847-0.072,2.738-0.594c1.556-0.882,1.945-3.097,1.945-4.861c0-1.891-0.373-3.961-2.01-4.934
			c-0.697-0.414-1.701-0.486-2.673-0.486h-2.642V283.548z"/>
		<path d="M36.77,273.231v-1.603h1.069v1.603H36.77z M36.818,284.593v-9.327h0.972v9.327H36.818z"/>
		<path d="M40.836,281.676c0.308,1.603,1.053,2.197,2.512,2.197c1.41,0,2.074-0.828,2.074-1.729c0-2.701-5.38-0.792-5.38-4.465
			c0-1.548,1.085-2.665,2.949-2.665c1.815,0,2.998,0.829,3.241,2.935h-0.988c-0.178-1.44-1.053-1.962-2.269-1.962
			c-1.231,0-1.896,0.648-1.896,1.603c0,2.539,5.38,0.954,5.38,4.537c0,1.783-1.442,2.719-3.419,2.719
			c-1.977,0-3.111-1.404-3.192-3.169H40.836z"/>
		<path d="M52.225,279.155c0.356-0.036,0.956-0.144,1.28-0.306s0.356-0.648,0.356-0.972c0-1.099-0.583-1.891-2.09-1.891
			c-1.345,0-2.269,0.486-2.447,2.106h-0.989c0.146-2.197,1.621-3.079,3.452-3.079c1.702,0,3.046,0.738,3.046,2.899v5.078
			c0,0.846,0.195,1.044,1.021,0.72v0.846c-0.146,0.054-0.486,0.18-0.762,0.18c-0.162,0-0.292-0.018-0.438-0.054
			c-0.648-0.108-0.762-0.738-0.778-1.386c-0.81,1.008-1.912,1.548-3.127,1.548c-1.475,0-2.803-0.882-2.803-2.683
			c0-1.566,0.972-2.521,2.933-2.809L52.225,279.155z M53.862,279.695c-0.827,0.378-1.669,0.45-2.512,0.522
			c-1.475,0.126-2.366,0.72-2.366,1.981c0,1.134,0.891,1.674,1.815,1.674c1.539,0,3.062-0.828,3.062-2.719V279.695z"/>
		<path d="M58.462,284.593h-0.972v-12.964h0.972v5.131c0.616-1.134,1.815-1.747,2.998-1.747c2.56,0,3.743,2.323,3.743,4.934
			c0,2.755-1.085,4.897-3.792,4.897c-1.069,0-2.35-0.666-2.917-1.891h-0.032V284.593z M61.297,283.873
			c1.637,0,2.852-1.314,2.868-3.655c0.081-2.34-0.859-4.231-2.868-4.231c-1.767,0-2.836,1.8-2.836,3.907
			C58.462,282.144,59.466,283.873,61.297,283.873z"/>
		<path d="M67.42,284.593v-12.964h0.972v12.964H67.42z"/>
		<path d="M71.469,280.182c-0.016,2.017,0.957,3.691,2.82,3.691c1.264,0,2.252-0.774,2.544-2.143h1.086
			c-0.486,1.765-1.491,3.115-3.63,3.115c-2.69,0-3.857-2.125-3.857-4.879c0-2.719,1.458-4.952,3.857-4.952
			c2.301,0,3.711,1.819,3.695,5.168H71.469z M76.947,279.281c0-1.818-0.908-3.295-2.658-3.295c-1.718,0-2.625,1.53-2.82,3.295
			H76.947z"/>
		<path d="M84.949,271.287c3.646,0,5.494,3.043,5.494,6.842c0,3.727-1.848,6.806-5.445,6.806c-3.598,0-5.429-3.079-5.429-6.806
			C79.553,274.348,81.465,271.287,84.949,271.287z M89.341,278.129c0-3.601-1.669-5.798-4.359-5.798
			c-2.998,0-4.311,2.791-4.311,5.798c0,3.061,1.296,5.762,4.343,5.762C88.045,283.891,89.341,281.154,89.341,278.129z"/>
		<path d="M91.638,276.166v-0.9h1.248v-1.477c0-1.477,0.486-2.413,1.783-2.413c0.292,0,0.551,0.018,0.81,0.072v0.99
			c-0.194-0.054-0.405-0.09-0.583-0.09c-1.004,0-1.037,0.918-1.037,1.765v1.152h1.621v0.9h-1.621v8.427h-0.972v-8.427H91.638z"/>
		<path d="M96.142,276.166v-0.9h1.248v-1.477c0-1.477,0.486-2.413,1.783-2.413c0.292,0,0.551,0.018,0.81,0.072v0.99
			c-0.194-0.054-0.405-0.09-0.583-0.09c-1.004,0-1.037,0.918-1.037,1.765v1.152h1.621v0.9h-1.621v8.427h-0.972v-8.427H96.142z"/>
	</g>
	<g>
		<path d="M197.549,39.028V26.064h7.762v1.044h-6.66v4.681h6.013v1.044h-6.013v5.149h6.822v1.044H197.549z"/>
		<path d="M208.274,39.028h-0.973v-9.327h0.973v1.296c0.777-0.918,1.539-1.549,2.706-1.549c1.021,0,1.961,0.36,2.561,1.333
			c0.404,0.667,0.421,1.369,0.421,2.143v6.104h-0.973v-6.086c0-1.674-0.615-2.521-2.171-2.521c-1.199,0-2.025,0.864-2.334,1.818
			c-0.194,0.594-0.21,1.116-0.21,1.765V39.028z"/>
		<path d="M220.165,33.59c0.356-0.036,0.956-0.144,1.28-0.306s0.356-0.648,0.356-0.972c0-1.099-0.584-1.891-2.091-1.891
			c-1.345,0-2.269,0.486-2.446,2.106h-0.989c0.146-2.197,1.621-3.079,3.452-3.079c1.701,0,3.046,0.738,3.046,2.899v5.078
			c0,0.846,0.195,1.044,1.021,0.72v0.846c-0.146,0.054-0.486,0.18-0.762,0.18c-0.162,0-0.292-0.018-0.438-0.054
			c-0.648-0.108-0.762-0.738-0.778-1.386c-0.81,1.008-1.912,1.548-3.127,1.548c-1.475,0-2.804-0.882-2.804-2.683
			c0-1.566,0.973-2.521,2.934-2.809L220.165,33.59z M221.802,34.13c-0.826,0.378-1.669,0.45-2.512,0.522
			c-1.475,0.126-2.366,0.72-2.366,1.981c0,1.134,0.892,1.674,1.815,1.674c1.539,0,3.062-0.828,3.062-2.719V34.13z"/>
		<path d="M226.401,39.028h-0.973V26.064h0.973v5.131c0.615-1.134,1.814-1.747,2.998-1.747c2.56,0,3.743,2.323,3.743,4.934
			c0,2.755-1.086,4.897-3.792,4.897c-1.069,0-2.35-0.666-2.917-1.891h-0.032V39.028z M229.237,38.308
			c1.637,0,2.852-1.314,2.868-3.655c0.081-2.34-0.859-4.231-2.868-4.231c-1.767,0-2.836,1.8-2.836,3.907
			C226.401,36.579,227.406,38.308,229.237,38.308z"/>
		<path d="M235.359,39.028V26.064h0.972v12.964H235.359z"/>
		<path d="M239.409,34.617c-0.017,2.017,0.956,3.691,2.819,3.691c1.265,0,2.253-0.774,2.545-2.143h1.085
			c-0.486,1.765-1.49,3.115-3.63,3.115c-2.689,0-3.856-2.125-3.856-4.879c0-2.719,1.458-4.952,3.856-4.952
			c2.302,0,3.711,1.819,3.695,5.168H239.409z M244.887,33.716c0-1.818-0.908-3.295-2.658-3.295c-1.718,0-2.625,1.53-2.819,3.295
			H244.887z"/>
		<path d="M254.299,26.064h0.973v12.964h-0.973v-1.639h-0.032c-0.567,1.225-1.848,1.891-2.917,1.891
			c-2.706,0-3.792-2.143-3.792-4.897c0-2.611,1.183-4.934,3.743-4.934c1.184,0,2.382,0.612,2.998,1.747V26.064z M251.463,30.421
			c-2.01,0-2.949,1.891-2.868,4.231c0.017,2.341,1.231,3.655,2.868,3.655c1.831,0,2.836-1.729,2.836-3.979
			C254.299,32.222,253.23,30.421,251.463,30.421z"/>
	</g>
	<g>
		<path d="M174.305,65.422c-0.454-2.215-1.686-3.061-3.679-3.061c-2.819,0-4.035,2.683-4.035,5.744c0,2.899,0.956,5.816,4.133,5.816
			c2.009,0,3.257-1.513,3.694-3.565h1.15c-0.519,2.502-1.929,4.609-5.056,4.609c-3.598,0-5.023-3.151-5.023-6.824
			c0-4.952,2.333-6.824,5.429-6.824c2.398,0,4.148,1.422,4.521,4.105H174.305z"/>
		<path d="M177.72,74.623V61.659h0.973v12.964H177.72z"/>
		<path d="M186.859,65.296h0.973v9.327h-0.973v-1.296c-0.519,0.648-1.231,1.548-2.706,1.548c-2.236,0-2.981-1.494-2.981-3.439v-6.14
			h0.972v6.122c0,1.603,0.632,2.485,2.155,2.485c1.604,0,2.561-1.477,2.561-3.529V65.296z"/>
		<path d="M193.127,74.659c-0.227,0.054-0.648,0.216-1.118,0.216c-0.956,0-1.491-0.468-1.491-1.854v-6.824h-1.183v-0.9h1.183v-2.593
			h0.973v2.593h1.572v0.9h-1.572v6.392c0,0.918,0.032,1.314,0.843,1.314c0.259,0,0.535-0.054,0.794-0.126V74.659z"/>
		<path d="M200.628,68.231c-0.34-1.386-1.199-2.214-2.495-2.214c-1.993,0-2.819,2.017-2.819,3.961c0,1.963,0.81,3.925,2.819,3.925
			c1.442,0,2.35-0.954,2.576-2.503h1.037c-0.34,2.071-1.507,3.475-3.613,3.475c-2.674,0-3.856-2.143-3.856-4.897
			c0-2.593,1.345-4.934,3.856-4.934c1.929,0,3.192,1.026,3.484,3.187H200.628z"/>
		<path d="M203.689,74.623V61.659h0.973v4.934c0.777-0.918,1.539-1.549,2.706-1.549c1.021,0,1.961,0.36,2.561,1.333
			c0.404,0.667,0.421,1.369,0.421,2.143v6.104h-0.973v-6.086c0-1.674-0.615-2.521-2.171-2.521c-1.199,0-2.025,0.864-2.334,1.818
			c-0.194,0.594-0.21,1.116-0.21,1.765v5.023H203.689z"/>
		<path d="M213.295,70.752c0.179,2.323,1.572,3.169,3.354,3.169c2.091,0,2.966-1.26,2.966-2.683c0-4.016-7.114-1.351-7.114-6.446
			c0-1.8,1.346-3.475,3.954-3.475c2.625,0,3.938,1.765,3.922,3.872h-1.054c0-1.981-1.377-2.827-2.868-2.827
			c-2.236,0-3.046,1.53-2.852,2.863c0.502,3.349,7.113,0.937,7.113,5.96c0,2.376-1.571,3.781-4.262,3.781
			c-2.431,0-4.229-1.405-4.229-4.213H213.295z"/>
		<path d="M225.543,74.659c-0.227,0.054-0.648,0.216-1.118,0.216c-0.956,0-1.491-0.468-1.491-1.854v-6.824h-1.183v-0.9h1.183v-2.593
			h0.973v2.593h1.572v0.9h-1.572v6.392c0,0.918,0.032,1.314,0.843,1.314c0.259,0,0.535-0.054,0.794-0.126V74.659z"/>
		<path d="M230.954,69.186c0.356-0.036,0.956-0.144,1.28-0.306s0.356-0.648,0.356-0.972c0-1.099-0.584-1.891-2.091-1.891
			c-1.345,0-2.269,0.486-2.446,2.106h-0.989c0.146-2.197,1.621-3.079,3.452-3.079c1.701,0,3.046,0.738,3.046,2.899v5.078
			c0,0.846,0.195,1.044,1.021,0.72v0.846c-0.146,0.054-0.486,0.18-0.762,0.18c-0.162,0-0.292-0.018-0.438-0.054
			c-0.648-0.108-0.762-0.738-0.778-1.386c-0.81,1.008-1.912,1.548-3.127,1.548c-1.475,0-2.804-0.882-2.804-2.683
			c0-1.566,0.973-2.521,2.934-2.809L230.954,69.186z M232.591,69.726c-0.826,0.378-1.669,0.45-2.512,0.522
			c-1.475,0.126-2.366,0.72-2.366,1.981c0,1.134,0.892,1.674,1.815,1.674c1.539,0,3.062-0.828,3.062-2.719V69.726z"/>
		<path d="M239.054,74.659c-0.227,0.054-0.648,0.216-1.118,0.216c-0.956,0-1.491-0.468-1.491-1.854v-6.824h-1.183v-0.9h1.183v-2.593
			h0.973v2.593h1.572v0.9h-1.572v6.392c0,0.918,0.032,1.314,0.843,1.314c0.259,0,0.535-0.054,0.794-0.126V74.659z"/>
		<path d="M246.296,65.296h0.973v9.327h-0.973v-1.296c-0.519,0.648-1.231,1.548-2.706,1.548c-2.236,0-2.981-1.494-2.981-3.439v-6.14
			h0.972v6.122c0,1.603,0.632,2.485,2.155,2.485c1.604,0,2.561-1.477,2.561-3.529V65.296z"/>
		<path d="M250.183,71.706c0.308,1.603,1.053,2.197,2.512,2.197c1.409,0,2.074-0.828,2.074-1.729c0-2.701-5.38-0.792-5.38-4.465
			c0-1.548,1.085-2.665,2.949-2.665c1.814,0,2.998,0.829,3.241,2.935h-0.989c-0.178-1.44-1.053-1.962-2.269-1.962
			c-1.231,0-1.896,0.648-1.896,1.603c0,2.539,5.38,0.954,5.38,4.537c0,1.783-1.442,2.719-3.419,2.719
			c-1.978,0-3.111-1.404-3.192-3.169H250.183z"/>
	</g>
	<g>
		<path d="M191.247,116.691v-12.964h7.762v1.044h-6.66v4.681h6.013v1.044h-6.013v5.149h6.822v1.044H191.247z"/>
		<path d="M201.972,116.691h-0.973v-9.327h0.973v1.296c0.777-0.918,1.539-1.549,2.706-1.549c1.021,0,1.961,0.36,2.561,1.333
			c0.404,0.667,0.421,1.369,0.421,2.143v6.104h-0.973v-6.086c0-1.674-0.615-2.521-2.171-2.521c-1.199,0-2.025,0.864-2.334,1.818
			c-0.194,0.594-0.21,1.116-0.21,1.765V116.691z"/>
		<path d="M216.488,107.364h0.973v8.426c0,2.503-0.746,4.718-3.938,4.718c-2.463,0-3.483-1.567-3.549-2.683h1.037
			c0.292,1.404,1.361,1.71,2.512,1.71c2.658,0,3.015-2.196,2.966-4.339c-0.616,1.134-1.814,1.747-2.998,1.747
			c-2.561,0-3.743-2.323-3.743-4.934c0-2.754,1.086-4.897,3.792-4.897c1.069,0,2.35,0.667,2.917,1.891h0.032V107.364z
			 M213.652,108.085c-1.637,0-2.852,1.314-2.868,3.655c-0.081,2.341,0.858,4.231,2.868,4.231c1.767,0,2.836-1.8,2.836-3.907
			C216.488,109.813,215.484,108.085,213.652,108.085z"/>
		<path d="M223.761,111.253c0.356-0.036,0.956-0.144,1.28-0.306s0.356-0.648,0.356-0.972c0-1.099-0.583-1.891-2.09-1.891
			c-1.346,0-2.269,0.486-2.447,2.106h-0.988c0.146-2.197,1.62-3.079,3.451-3.079c1.702,0,3.047,0.738,3.047,2.899v5.078
			c0,0.846,0.194,1.044,1.021,0.72v0.846c-0.146,0.054-0.485,0.18-0.762,0.18c-0.162,0-0.291-0.018-0.438-0.054
			c-0.647-0.108-0.762-0.738-0.777-1.386c-0.811,1.008-1.912,1.548-3.128,1.548c-1.475,0-2.803-0.882-2.803-2.683
			c0-1.566,0.972-2.521,2.933-2.809L223.761,111.253z M225.398,111.793c-0.826,0.378-1.669,0.45-2.512,0.522
			c-1.475,0.126-2.365,0.72-2.365,1.981c0,1.134,0.891,1.674,1.814,1.674c1.539,0,3.062-0.828,3.062-2.719V111.793z"/>
		<path d="M235.394,107.364h0.973v8.426c0,2.503-0.746,4.718-3.938,4.718c-2.463,0-3.483-1.567-3.549-2.683h1.037
			c0.292,1.404,1.361,1.71,2.512,1.71c2.658,0,3.015-2.196,2.966-4.339c-0.616,1.134-1.814,1.747-2.998,1.747
			c-2.561,0-3.743-2.323-3.743-4.934c0-2.754,1.086-4.897,3.792-4.897c1.069,0,2.35,0.667,2.917,1.891h0.032V107.364z
			 M232.558,108.085c-1.637,0-2.852,1.314-2.868,3.655c-0.081,2.341,0.858,4.231,2.868,4.231c1.767,0,2.836-1.8,2.836-3.907
			C235.394,109.813,234.389,108.085,232.558,108.085z"/>
		<path d="M239.409,112.28c-0.017,2.017,0.956,3.691,2.819,3.691c1.265,0,2.253-0.774,2.545-2.143h1.085
			c-0.486,1.765-1.49,3.115-3.63,3.115c-2.689,0-3.856-2.125-3.856-4.879c0-2.719,1.458-4.952,3.856-4.952
			c2.302,0,3.711,1.819,3.695,5.168H239.409z M244.887,111.379c0-1.818-0.908-3.295-2.658-3.295c-1.718,0-2.625,1.53-2.819,3.295
			H244.887z"/>
		<path d="M254.299,103.727h0.973v12.964h-0.973v-1.639h-0.032c-0.567,1.225-1.848,1.891-2.917,1.891
			c-2.706,0-3.792-2.143-3.792-4.897c0-2.611,1.183-4.934,3.743-4.934c1.184,0,2.382,0.612,2.998,1.747V103.727z M251.463,108.085
			c-2.01,0-2.949,1.891-2.868,4.231c0.017,2.341,1.231,3.655,2.868,3.655c1.831,0,2.836-1.729,2.836-3.979
			C254.299,109.885,253.23,108.085,251.463,108.085z"/>
	</g>
	<g>
		<path d="M222.772,158.391v-12.964h7.763v1.044h-6.66v4.681h6.012v1.044h-6.012v5.149h6.822v1.044H222.772z"/>
		<path d="M233.545,158.391h-0.973v-9.327h0.973v1.747h0.032c0.535-1.495,1.329-1.999,2.738-1.999v1.17
			c-2.188-0.054-2.771,1.747-2.771,3.835V158.391z"/>
		<path d="M238.94,158.391h-0.973v-9.327h0.973v1.747h0.032c0.535-1.495,1.329-1.999,2.738-1.999v1.17
			c-2.188-0.054-2.771,1.747-2.771,3.835V158.391z"/>
		<path d="M242.762,153.727c0-2.719,1.297-4.916,3.89-4.916c2.625,0,3.889,2.179,3.889,4.916c0,2.953-1.539,4.916-3.889,4.916
			C244.512,158.606,242.762,156.986,242.762,153.727z M246.651,149.784c-2.042,0-2.853,1.926-2.853,3.943
			c0,2.323,0.989,3.943,2.853,3.943c2.042,0,2.852-1.945,2.852-3.943C249.487,151.531,248.709,149.784,246.651,149.784z"/>
		<path d="M253.341,158.391h-0.972v-9.327h0.972v1.747h0.033c0.534-1.495,1.328-1.999,2.738-1.999v1.17
			c-2.188-0.054-2.771,1.747-2.771,3.835V158.391z"/>
	</g>
	<g>
		<path d="M206.572,200.458v-12.964h7.762v1.044h-6.66v4.681h6.013v1.044h-6.013v5.149h6.822v1.044H206.572z"/>
		<path d="M217.345,200.458h-0.972v-9.327h0.972v1.747h0.033c0.534-1.495,1.328-1.999,2.738-1.999v1.17
			c-2.188-0.054-2.771,1.747-2.771,3.835V200.458z"/>
		<path d="M222.739,200.458h-0.972v-9.327h0.972v1.747h0.033c0.534-1.495,1.328-1.999,2.738-1.999v1.17
			c-2.188-0.054-2.771,1.747-2.771,3.835V200.458z"/>
		<path d="M226.563,195.794c0-2.719,1.296-4.916,3.889-4.916c2.626,0,3.89,2.179,3.89,4.916c0,2.953-1.54,4.916-3.89,4.916
			C228.313,200.674,226.563,199.054,226.563,195.794z M230.451,191.852c-2.041,0-2.852,1.926-2.852,3.943
			c0,2.323,0.988,3.943,2.852,3.943c2.042,0,2.853-1.945,2.853-3.943C233.287,193.598,232.51,191.852,230.451,191.852z"/>
		<path d="M237.142,200.458h-0.973v-9.327h0.973v1.747h0.032c0.535-1.495,1.329-1.999,2.738-1.999v1.17
			c-2.188-0.054-2.771,1.747-2.771,3.835V200.458z"/>
		<path d="M242.05,200.458v-12.964h1.102v12.964H242.05z"/>
		<path d="M246.164,200.458v-12.964h3.986c1.297,0,2.512,0.09,3.598,0.972c1.54,1.243,1.944,3.763,1.944,5.492
			c0,1.71-0.34,3.619-1.409,4.916c-1.069,1.333-2.593,1.584-4.133,1.584H246.164z M247.267,199.414h2.642
			c0.988,0,1.847-0.072,2.738-0.594c1.556-0.882,1.944-3.097,1.944-4.861c0-1.891-0.373-3.961-2.01-4.934
			c-0.696-0.414-1.701-0.486-2.673-0.486h-2.642V199.414z"/>
	</g>
	<g>
		<path class="st3" d="M76.911,18.264V5.3h1.873l4.25,11.434h0.036L87.246,5.3h1.855v12.964h-1.225V6.704H87.84l-4.249,11.56h-1.152
			l-4.267-11.56h-0.036v11.56H76.911z"/>
		<path class="st3" d="M101.16,9.063c-0.504-2.215-1.873-3.061-4.087-3.061c-3.133,0-4.483,2.683-4.483,5.744
			c0,2.899,1.062,5.816,4.592,5.816c2.232,0,3.619-1.513,4.105-3.565h1.278c-0.576,2.502-2.143,4.609-5.618,4.609
			c-3.997,0-5.582-3.151-5.582-6.824c0-4.952,2.593-6.824,6.032-6.824c2.665,0,4.609,1.422,5.023,4.105H101.16z"/>
		<path class="st3" d="M112.499,19.614v0.9h-9.003v-0.9H112.499z"/>
		<path class="st3" d="M113.901,18.264V5.3h1.873l4.25,11.434h0.036L124.235,5.3h1.855v12.964h-1.225V6.704h-0.036l-4.249,11.56
			h-1.152l-4.267-11.56h-0.036v11.56H113.901z"/>
		<path class="st3" d="M133.071,12.826c0.396-0.036,1.062-0.144,1.422-0.306c0.36-0.162,0.396-0.648,0.396-0.972
			c0-1.099-0.648-1.891-2.323-1.891c-1.495,0-2.521,0.486-2.719,2.106h-1.099c0.162-2.197,1.801-3.079,3.835-3.079
			c1.89,0,3.385,0.738,3.385,2.899v5.078c0,0.846,0.216,1.044,1.134,0.72v0.846c-0.162,0.054-0.54,0.18-0.846,0.18
			c-0.18,0-0.324-0.018-0.486-0.054c-0.721-0.108-0.847-0.738-0.864-1.386c-0.9,1.008-2.125,1.548-3.475,1.548
			c-1.639,0-3.115-0.882-3.115-2.683c0-1.566,1.081-2.521,3.259-2.809L133.071,12.826z M134.89,13.366
			c-0.918,0.378-1.855,0.45-2.791,0.522c-1.639,0.126-2.629,0.72-2.629,1.981c0,1.134,0.99,1.674,2.017,1.674
			c1.71,0,3.403-0.828,3.403-2.719V13.366z"/>
		<path class="st3" d="M138.902,6.902V5.3h1.188v1.603H138.902z M138.956,18.264V8.937h1.08v9.327H138.956z"/>
		<path class="st3" d="M143.87,18.264h-1.081V8.937h1.081v1.296c0.864-0.918,1.71-1.549,3.007-1.549c1.134,0,2.179,0.36,2.845,1.333
			c0.45,0.667,0.468,1.369,0.468,2.143v6.104h-1.081v-6.086c0-1.674-0.684-2.521-2.413-2.521c-1.333,0-2.25,0.864-2.593,1.818
			c-0.216,0.594-0.234,1.116-0.234,1.765V18.264z"/>
		<path class="st3" d="M162.16,9.063c-0.504-2.215-1.872-3.061-4.087-3.061c-3.133,0-4.483,2.683-4.483,5.744
			c0,2.899,1.062,5.816,4.592,5.816c2.232,0,3.618-1.513,4.104-3.565h1.278c-0.576,2.502-2.143,4.609-5.617,4.609
			c-3.997,0-5.582-3.151-5.582-6.824c0-4.952,2.593-6.824,6.032-6.824c2.665,0,4.609,1.422,5.023,4.105H162.16z"/>
		<path class="st3" d="M165.955,18.264V5.3h1.08v12.964H165.955z"/>
		<path class="st3" d="M176.109,8.937h1.081v9.327h-1.081v-1.296c-0.576,0.648-1.368,1.548-3.007,1.548
			c-2.484,0-3.312-1.494-3.312-3.439v-6.14h1.08v6.122c0,1.603,0.702,2.485,2.395,2.485c1.782,0,2.845-1.477,2.845-3.529V8.937z"/>
		<path class="st3" d="M183.073,18.3c-0.252,0.054-0.72,0.216-1.242,0.216c-1.062,0-1.656-0.468-1.656-1.854V9.837h-1.314v-0.9
			h1.314V6.344h1.08v2.593h1.747v0.9h-1.747v6.392c0,0.918,0.036,1.314,0.937,1.314c0.288,0,0.594-0.054,0.882-0.126V18.3z"/>
		<path class="st3" d="M191.408,11.872c-0.378-1.386-1.332-2.214-2.772-2.214c-2.215,0-3.133,2.017-3.133,3.961
			c0,1.963,0.9,3.925,3.133,3.925c1.603,0,2.61-0.954,2.862-2.503h1.152c-0.378,2.071-1.674,3.475-4.015,3.475
			c-2.971,0-4.285-2.143-4.285-4.897c0-2.593,1.494-4.934,4.285-4.934c2.143,0,3.547,1.026,3.871,3.187H191.408z"/>
		<path class="st3" d="M194.809,18.264V5.3h1.08v4.934c0.864-0.918,1.711-1.549,3.007-1.549c1.135,0,2.179,0.36,2.845,1.333
			c0.45,0.667,0.469,1.369,0.469,2.143v6.104h-1.081v-6.086c0-1.674-0.684-2.521-2.412-2.521c-1.333,0-2.251,0.864-2.593,1.818
			c-0.217,0.594-0.234,1.116-0.234,1.765v5.023H194.809z"/>
	</g>
	<g>
	</g>
	<g>
	</g>
	<g>
	</g>
	<g>
	</g>
	<g>
	</g>
	<g>
	</g>
	<g>
	</g>
	<g>
	</g>
	<g>
	</g>
	<g>
	</g>
	<g>
	</g>
	<g>
	</g>
	<g>
	</g>
	<g>
	</g>
	<g>
	</g>
</g>
</svg>
