<?xml version="1.0" encoding="utf-8"?>
<!-- Generator: Adobe Illustrator 28.2.0, SVG Export Plug-In . SVG Version: 6.00 Build 0)  -->
<svg version="1.1" xmlns="http://www.w3.org/2000/svg" xmlns:xlink="http://www.w3.org/1999/xlink" x="0px" y="0px"
	 width="281.185px" height="178.933px" viewBox="0 0 281.185 178.933" style="enable-background:new 0 0 281.185 178.933;"
	 xml:space="preserve">
<style type="text/css">
	.st0{fill:#F0F0F0;stroke:#828282;stroke-miterlimit:10;}
	.st1{fill:none;stroke:#828282;stroke-miterlimit:10;}
	.st2{fill:#828282;}
	.st3{fill:#FFFFFF;}
</style>
<g id="レイヤー_2">
	<rect x="20.323" y="0.5" class="st0" width="240.539" height="177.933"/>
	<line class="st1" x1="0" y1="25.814" x2="20.323" y2="25.814"/>
	<line class="st1" x1="0" y1="25.814" x2="20.323" y2="25.814"/>
	<line class="st1" x1="260.862" y1="25.814" x2="281.185" y2="25.814"/>
	<rect x="20.323" y="0.5" class="st2" width="240.539" height="21"/>
</g>
<g id="レイヤー_3">
	<g>
		<path d="M25.121,39.028V26.064h7.762v1.044h-6.66v4.681h6.012v1.044h-6.012v5.149h6.822v1.044H25.121z"/>
		<path d="M37.79,34.995l-2.609,4.033h-1.183l3.225-4.825l-2.966-4.501h1.199l2.317,3.709l2.382-3.709h1.231l-3.03,4.501
			l3.144,4.825h-1.167L37.79,34.995z"/>
		<path d="M43.573,34.617c-0.016,2.017,0.956,3.691,2.82,3.691c1.264,0,2.252-0.774,2.544-2.143h1.085
			c-0.486,1.765-1.491,3.115-3.63,3.115c-2.69,0-3.857-2.125-3.857-4.879c0-2.719,1.458-4.952,3.857-4.952
			c2.301,0,3.711,1.819,3.695,5.168H43.573z M49.051,33.716c0-1.818-0.908-3.295-2.658-3.295c-1.718,0-2.625,1.53-2.82,3.295H49.051
			z"/>
		<path d="M57.928,32.636c-0.34-1.386-1.199-2.214-2.496-2.214c-1.993,0-2.819,2.017-2.819,3.961c0,1.963,0.81,3.925,2.819,3.925
			c1.442,0,2.35-0.954,2.577-2.503h1.037c-0.34,2.071-1.507,3.475-3.614,3.475c-2.674,0-3.856-2.143-3.856-4.897
			c0-2.593,1.345-4.934,3.856-4.934c1.929,0,3.192,1.026,3.484,3.187H57.928z"/>
		<path d="M66.676,29.701h0.973v9.327h-0.973v-1.296c-0.519,0.648-1.231,1.548-2.706,1.548c-2.236,0-2.982-1.494-2.982-3.439v-6.14
			h0.973v6.122c0,1.603,0.632,2.485,2.155,2.485c1.604,0,2.56-1.477,2.56-3.529V29.701z"/>
		<path d="M72.945,39.064c-0.227,0.054-0.648,0.216-1.118,0.216c-0.956,0-1.491-0.468-1.491-1.854v-6.824h-1.183v-0.9h1.183v-2.593
			h0.973v2.593h1.572v0.9h-1.572v6.392c0,0.918,0.032,1.314,0.842,1.314c0.259,0,0.535-0.054,0.794-0.126V39.064z"/>
		<path d="M75.098,34.617c-0.016,2.017,0.956,3.691,2.82,3.691c1.264,0,2.252-0.774,2.544-2.143h1.085
			c-0.486,1.765-1.491,3.115-3.63,3.115c-2.69,0-3.857-2.125-3.857-4.879c0-2.719,1.458-4.952,3.857-4.952
			c2.301,0,3.711,1.819,3.695,5.168H75.098z M80.576,33.716c0-1.818-0.908-3.295-2.658-3.295c-1.718,0-2.625,1.53-2.82,3.295H80.576
			z"/>
	</g>
	<g>
		<path d="M24.052,73.711l4.586-12.964h1.248l4.473,12.964h-1.134l-1.345-4.069h-5.315l-1.377,4.069H24.052z M26.936,68.598h4.57
			l-2.285-6.806L26.936,68.598z"/>
		<path d="M38.698,69.678l-2.609,4.033h-1.183l3.225-4.825l-2.966-4.501h1.199l2.317,3.709l2.382-3.709h1.231l-3.03,4.501
			l3.144,4.825h-1.167L38.698,69.678z"/>
		<path d="M43.978,62.35v-1.603h1.069v1.603H43.978z M44.027,73.711v-9.327h0.972v9.327H44.027z"/>
		<path d="M48.044,70.794c0.308,1.603,1.053,2.197,2.512,2.197c1.41,0,2.074-0.828,2.074-1.729c0-2.701-5.38-0.792-5.38-4.465
			c0-1.548,1.085-2.665,2.949-2.665c1.815,0,2.998,0.829,3.241,2.935h-0.988c-0.178-1.44-1.053-1.962-2.269-1.962
			c-1.231,0-1.896,0.648-1.896,1.603c0,2.539,5.38,0.954,5.38,4.537c0,1.783-1.442,2.719-3.419,2.719
			c-1.977,0-3.111-1.404-3.192-3.169H48.044z"/>
	</g>
	<g>
		<path class="st3" d="M49.137,18.264V5.3h1.685l3.824,11.434h0.033L58.438,5.3h1.669v12.964h-1.102V6.704h-0.033l-3.824,11.56
			h-1.037l-3.84-11.56h-0.033v11.56H49.137z"/>
		<path class="st3" d="M70.961,9.063c-0.454-2.215-1.685-3.061-3.679-3.061c-2.819,0-4.035,2.683-4.035,5.744
			c0,2.899,0.956,5.816,4.132,5.816c2.009,0,3.257-1.513,3.694-3.565h1.151c-0.519,2.502-1.929,4.609-5.056,4.609
			c-3.597,0-5.023-3.151-5.023-6.824c0-4.952,2.333-6.824,5.429-6.824c2.398,0,4.148,1.422,4.521,4.105H70.961z"/>
		<path class="st3" d="M81.166,19.614v0.9h-8.103v-0.9H81.166z"/>
		<path class="st3" d="M82.93,14.393c0.179,2.323,1.572,3.169,3.354,3.169c2.09,0,2.966-1.26,2.966-2.683
			c0-4.016-7.114-1.351-7.114-6.446c0-1.8,1.345-3.475,3.954-3.475c2.625,0,3.938,1.765,3.921,3.872h-1.053
			c0-1.981-1.377-2.827-2.868-2.827c-2.236,0-3.046,1.53-2.852,2.863c0.502,3.349,7.114,0.937,7.114,5.96
			c0,2.376-1.572,3.781-4.262,3.781c-2.431,0-4.229-1.405-4.229-4.213H82.93z"/>
		<path class="st3" d="M95.178,18.3c-0.227,0.054-0.648,0.216-1.118,0.216c-0.956,0-1.491-0.468-1.491-1.854V9.837h-1.183v-0.9
			h1.183V6.344h0.973v2.593h1.572v0.9h-1.572v6.392c0,0.918,0.032,1.314,0.842,1.314c0.259,0,0.535-0.054,0.794-0.126V18.3z"/>
		<path class="st3" d="M96.181,13.6c0-2.719,1.296-4.916,3.889-4.916c2.625,0,3.889,2.179,3.889,4.916
			c0,2.953-1.54,4.916-3.889,4.916C97.931,18.479,96.181,16.859,96.181,13.6z M100.07,9.657c-2.042,0-2.852,1.926-2.852,3.943
			c0,2.323,0.989,3.943,2.852,3.943c2.042,0,2.852-1.945,2.852-3.943C102.906,11.404,102.128,9.657,100.07,9.657z"/>
		<path class="st3" d="M106.825,21.937h-0.972v-13h0.972v1.638h0.032c0.567-1.224,1.848-1.891,2.917-1.891
			c2.707,0,3.792,2.143,3.792,4.897c0,2.611-1.183,4.934-3.743,4.934c-1.183,0-2.382-0.612-2.998-1.747V21.937z M109.661,17.543
			c2.009,0,2.949-1.891,2.868-4.231c-0.016-2.34-1.231-3.655-2.868-3.655c-1.831,0-2.836,1.729-2.836,3.979
			C106.825,15.743,107.894,17.543,109.661,17.543z"/>
		<path class="st3" d="M114.714,18.264L119.3,5.3h1.248l4.473,12.964h-1.134l-1.345-4.069h-5.315l-1.377,4.069H114.714z
			 M117.598,13.15h4.57l-2.285-6.806L117.598,13.15z"/>
		<path class="st3" d="M129.392,18.3c-0.227,0.054-0.648,0.216-1.118,0.216c-0.956,0-1.491-0.468-1.491-1.854V9.837H125.6v-0.9
			h1.183V6.344h0.973v2.593h1.572v0.9h-1.572v6.392c0,0.918,0.032,1.314,0.842,1.314c0.259,0,0.535-0.054,0.794-0.126V18.3z"/>
		<path class="st3" d="M130.038,5.3h8.491v1.044h-3.694v11.919h-1.102V6.344h-3.695V5.3z"/>
		<path class="st3" d="M143.81,12.826c0.356-0.036,0.956-0.144,1.28-0.306s0.356-0.648,0.356-0.972c0-1.099-0.583-1.891-2.09-1.891
			c-1.345,0-2.269,0.486-2.447,2.106h-0.989c0.146-2.197,1.621-3.079,3.452-3.079c1.702,0,3.046,0.738,3.046,2.899v5.078
			c0,0.846,0.195,1.044,1.021,0.72v0.846c-0.146,0.054-0.486,0.18-0.762,0.18c-0.162,0-0.292-0.018-0.438-0.054
			c-0.648-0.108-0.762-0.738-0.778-1.386c-0.81,1.008-1.912,1.548-3.127,1.548c-1.475,0-2.803-0.882-2.803-2.683
			c0-1.566,0.972-2.521,2.933-2.809L143.81,12.826z M145.447,13.366c-0.826,0.378-1.669,0.45-2.512,0.522
			c-1.475,0.126-2.366,0.72-2.366,1.981c0,1.134,0.891,1.674,1.815,1.674c1.539,0,3.062-0.828,3.062-2.719V13.366z"/>
		<path class="st3" d="M149.981,18.264h-0.972V8.937h0.972v1.747h0.033c0.535-1.495,1.329-1.999,2.738-1.999v1.17
			c-2.188-0.054-2.771,1.747-2.771,3.835V18.264z"/>
		<path class="st3" d="M160.837,8.937h0.972v8.426c0,2.503-0.746,4.718-3.938,4.718c-2.463,0-3.484-1.567-3.549-2.683h1.037
			c0.292,1.404,1.361,1.71,2.512,1.71c2.658,0,3.014-2.196,2.966-4.339c-0.616,1.134-1.815,1.747-2.998,1.747
			c-2.561,0-3.743-2.323-3.743-4.934c0-2.754,1.085-4.897,3.792-4.897c1.07,0,2.35,0.667,2.917,1.891h0.033V8.937z M158.001,9.657
			c-1.637,0-2.852,1.314-2.868,3.655c-0.081,2.341,0.858,4.231,2.868,4.231c1.766,0,2.836-1.8,2.836-3.907
			C160.837,11.386,159.832,9.657,158.001,9.657z"/>
		<path class="st3" d="M164.852,13.853c-0.016,2.017,0.957,3.691,2.82,3.691c1.264,0,2.252-0.774,2.544-2.143h1.086
			c-0.486,1.765-1.491,3.115-3.63,3.115c-2.69,0-3.857-2.125-3.857-4.879c0-2.719,1.458-4.952,3.857-4.952
			c2.301,0,3.711,1.819,3.695,5.168H164.852z M170.33,12.952c0-1.818-0.908-3.295-2.658-3.295c-1.718,0-2.625,1.53-2.82,3.295
			H170.33z"/>
		<path class="st3" d="M176.21,18.3c-0.227,0.054-0.648,0.216-1.118,0.216c-0.956,0-1.491-0.468-1.491-1.854V9.837h-1.183v-0.9
			h1.183V6.344h0.973v2.593h1.572v0.9h-1.572v6.392c0,0.918,0.032,1.314,0.842,1.314c0.259,0,0.535-0.054,0.794-0.126V18.3z"/>
		<path class="st3" d="M177.861,18.264V5.3h4.262c3.03,0,3.808,1.674,3.808,3.619c0,2.899-2.317,3.619-4.473,3.619h-2.496v5.726
			H177.861z M181.491,11.494c2.058,0,3.338-0.468,3.338-2.665c0-1.621-0.94-2.485-3.014-2.485h-2.852v5.149H181.491z"/>
		<path class="st3" d="M187.111,13.6c0-2.719,1.296-4.916,3.889-4.916c2.625,0,3.889,2.179,3.889,4.916
			c0,2.953-1.54,4.916-3.889,4.916C188.861,18.479,187.111,16.859,187.111,13.6z M191,9.657c-2.042,0-2.852,1.926-2.852,3.943
			c0,2.323,0.989,3.943,2.852,3.943c2.042,0,2.852-1.945,2.852-3.943C193.836,11.404,193.058,9.657,191,9.657z"/>
		<path class="st3" d="M197.236,15.347c0.308,1.603,1.053,2.197,2.512,2.197c1.41,0,2.074-0.828,2.074-1.729
			c0-2.701-5.38-0.792-5.38-4.465c0-1.548,1.085-2.665,2.949-2.665c1.815,0,2.998,0.829,3.241,2.935h-0.988
			c-0.178-1.44-1.053-1.962-2.269-1.962c-1.231,0-1.896,0.648-1.896,1.603c0,2.539,5.38,0.954,5.38,4.537
			c0,1.783-1.442,2.719-3.419,2.719c-1.977,0-3.111-1.404-3.192-3.169H197.236z"/>
		<path class="st3" d="M204.867,6.902V5.3h1.069v1.603H204.867z M204.915,18.264V8.937h0.972v9.327H204.915z"/>
		<path class="st3" d="M211.315,18.3c-0.227,0.054-0.648,0.216-1.118,0.216c-0.956,0-1.491-0.468-1.491-1.854V9.837h-1.183v-0.9
			h1.183V6.344h0.973v2.593h1.572v0.9h-1.572v6.392c0,0.918,0.032,1.314,0.842,1.314c0.259,0,0.535-0.054,0.794-0.126V18.3z"/>
		<path class="st3" d="M212.966,6.902V5.3h1.069v1.603H212.966z M213.014,18.264V8.937h0.972v9.327H213.014z"/>
		<path class="st3" d="M215.914,13.6c0-2.719,1.296-4.916,3.889-4.916c2.625,0,3.889,2.179,3.889,4.916
			c0,2.953-1.54,4.916-3.889,4.916C217.664,18.479,215.914,16.859,215.914,13.6z M219.803,9.657c-2.042,0-2.852,1.926-2.852,3.943
			c0,2.323,0.989,3.943,2.852,3.943c2.042,0,2.852-1.945,2.852-3.943C222.639,11.404,221.861,9.657,219.803,9.657z"/>
		<path class="st3" d="M226.445,18.264h-0.973V8.937h0.973v1.296c0.778-0.918,1.54-1.549,2.706-1.549
			c1.021,0,1.961,0.36,2.561,1.333c0.405,0.667,0.421,1.369,0.421,2.143v6.104h-0.973v-6.086c0-1.674-0.616-2.521-2.171-2.521
			c-1.199,0-2.025,0.864-2.333,1.818c-0.194,0.594-0.21,1.116-0.21,1.765V18.264z"/>
	</g>
	<g>
		<path d="M220.484,39.086V26.123h3.986c1.296,0,2.512,0.09,3.598,0.972c1.54,1.243,1.944,3.763,1.944,5.492
			c0,1.71-0.34,3.619-1.41,4.916c-1.069,1.333-2.593,1.584-4.132,1.584H220.484z M221.586,38.042h2.642
			c0.988,0,1.847-0.072,2.738-0.594c1.556-0.882,1.945-3.097,1.945-4.861c0-1.891-0.373-3.961-2.01-4.934
			c-0.697-0.414-1.701-0.486-2.673-0.486h-2.642V38.042z"/>
		<path d="M231.483,34.423c0-2.719,1.296-4.916,3.889-4.916c2.625,0,3.889,2.179,3.889,4.916c0,2.953-1.54,4.916-3.889,4.916
			C233.233,39.302,231.483,37.682,231.483,34.423z M235.372,30.48c-2.042,0-2.852,1.926-2.852,3.943
			c0,2.323,0.989,3.943,2.852,3.943c2.042,0,2.852-1.945,2.852-3.943C238.208,32.227,237.431,30.48,235.372,30.48z"/>
		<path d="M242.014,39.086h-0.972V29.76h0.972v1.296c0.778-0.918,1.54-1.549,2.706-1.549c1.021,0,1.961,0.36,2.561,1.333
			c0.405,0.667,0.421,1.369,0.421,2.143v6.104h-0.973V33c0-1.674-0.616-2.521-2.171-2.521c-1.199,0-2.025,0.864-2.333,1.818
			c-0.194,0.594-0.21,1.116-0.21,1.765V39.086z"/>
		<path d="M250.648,34.675c-0.016,2.017,0.956,3.691,2.82,3.691c1.264,0,2.252-0.774,2.544-2.143h1.085
			c-0.486,1.765-1.491,3.115-3.63,3.115c-2.69,0-3.857-2.125-3.857-4.879c0-2.719,1.458-4.952,3.857-4.952
			c2.301,0,3.711,1.819,3.695,5.168H250.648z M256.126,33.775c0-1.818-0.908-3.295-2.658-3.295c-1.718,0-2.625,1.53-2.82,3.295
			H256.126z"/>
	</g>
	<g>
		<path d="M223.189,73.711V60.748h4.213c2.739,0,3.824,1.314,3.824,3.259c0,1.801-0.923,2.611-1.863,2.791v0.036
			c1.604,0.27,2.398,1.512,2.398,3.223c0,2.701-1.588,3.655-3.808,3.655H223.189z M224.291,66.473h2.787
			c2.301,0,3.046-0.9,3.046-2.467c0-1.62-0.875-2.214-3.29-2.214h-2.544V66.473z M224.291,72.667h2.803
			c2.431,0,3.565-0.36,3.565-2.611c0-2.143-1.361-2.539-3.436-2.539h-2.933V72.667z"/>
		<path d="M239.536,64.385h0.973v9.327h-0.973v-1.296c-0.519,0.648-1.231,1.548-2.706,1.548c-2.236,0-2.982-1.494-2.982-3.439v-6.14
			h0.973v6.122c0,1.603,0.632,2.485,2.155,2.485c1.604,0,2.56-1.477,2.56-3.529V64.385z"/>
		<path d="M243.423,70.794c0.308,1.603,1.053,2.197,2.512,2.197c1.41,0,2.074-0.828,2.074-1.729c0-2.701-5.38-0.792-5.38-4.465
			c0-1.548,1.085-2.665,2.949-2.665c1.815,0,2.998,0.829,3.241,2.935h-0.988c-0.178-1.44-1.053-1.962-2.269-1.962
			c-1.231,0-1.896,0.648-1.896,1.603c0,2.539,5.38,0.954,5.38,4.537c0,1.783-1.442,2.719-3.419,2.719
			c-1.977,0-3.111-1.404-3.192-3.169H243.423z"/>
		<path d="M250.891,76.25c0.259,0.054,0.535,0.108,0.81,0.108c1.102,0,1.264-1.765,1.637-2.575l-3.257-9.399h1.086l2.69,8.012
			l2.69-8.012h1.053l-3.127,9.201c-0.794,2.341-1.312,3.799-2.658,3.799c-0.34,0-0.664-0.054-0.923-0.126V76.25z"/>
	</g>
	<g>
		<path d="M207.913,158.289v-12.964h7.762v1.044h-6.66v4.681h6.012v1.044h-6.012v5.149h6.822v1.045H207.913z"/>
		<path d="M218.686,158.289h-0.972v-9.327h0.972v1.747h0.033c0.535-1.495,1.329-1.999,2.738-1.999v1.17
			c-2.188-0.054-2.771,1.747-2.771,3.835V158.289z"/>
		<path d="M224.08,158.289h-0.972v-9.327h0.972v1.747h0.033c0.535-1.495,1.329-1.999,2.738-1.999v1.17
			c-2.188-0.054-2.771,1.747-2.771,3.835V158.289z"/>
		<path d="M227.903,153.625c0-2.719,1.296-4.916,3.889-4.916c2.625,0,3.889,2.179,3.889,4.916c0,2.953-1.54,4.916-3.889,4.916
			C229.653,158.505,227.903,156.885,227.903,153.625z M231.792,149.683c-2.042,0-2.852,1.926-2.852,3.943
			c0,2.323,0.989,3.943,2.852,3.943c2.042,0,2.852-1.944,2.852-3.943C234.628,151.429,233.85,149.683,231.792,149.683z"/>
		<path d="M238.482,158.289h-0.972v-9.327h0.972v1.747h0.033c0.535-1.495,1.329-1.999,2.738-1.999v1.17
			c-2.188-0.054-2.771,1.747-2.771,3.835V158.289z"/>
		<path d="M243.391,158.289v-12.964h1.102v12.964H243.391z"/>
		<path d="M247.505,158.289v-12.964h3.986c1.296,0,2.512,0.09,3.598,0.972c1.54,1.243,1.944,3.763,1.944,5.492
			c0,1.71-0.34,3.619-1.41,4.915c-1.069,1.333-2.593,1.585-4.132,1.585H247.505z M248.607,157.244h2.642
			c0.988,0,1.847-0.071,2.738-0.594c1.556-0.882,1.945-3.097,1.945-4.861c0-1.891-0.373-3.961-2.01-4.934
			c-0.697-0.414-1.701-0.486-2.673-0.486h-2.642V157.244z"/>
	</g>
	<g>
		<path d="M224.113,115.952v-12.964h7.762v1.044h-6.66v4.681h6.012v1.044h-6.012v5.149h6.822v1.044H224.113z"/>
		<path d="M234.886,115.952h-0.972v-9.327h0.972v1.747h0.033c0.535-1.495,1.329-1.999,2.738-1.999v1.17
			c-2.188-0.054-2.771,1.747-2.771,3.835V115.952z"/>
		<path d="M240.28,115.952h-0.972v-9.327h0.972v1.747h0.033c0.535-1.495,1.329-1.999,2.738-1.999v1.17
			c-2.188-0.054-2.771,1.747-2.771,3.835V115.952z"/>
		<path d="M244.103,111.288c0-2.719,1.296-4.916,3.889-4.916c2.625,0,3.889,2.179,3.889,4.916c0,2.953-1.54,4.916-3.889,4.916
			C245.853,116.167,244.103,114.547,244.103,111.288z M247.992,107.345c-2.042,0-2.852,1.926-2.852,3.943
			c0,2.323,0.989,3.943,2.852,3.943c2.042,0,2.852-1.945,2.852-3.943C250.828,109.092,250.05,107.345,247.992,107.345z"/>
		<path d="M254.682,115.952h-0.972v-9.327h0.972v1.747h0.033c0.535-1.495,1.329-1.999,2.738-1.999v1.17
			c-2.188-0.054-2.771,1.747-2.771,3.835V115.952z"/>
	</g>
	<g>
	</g>
	<g>
	</g>
	<g>
	</g>
	<g>
	</g>
	<g>
	</g>
	<g>
	</g>
	<g>
	</g>
	<g>
	</g>
	<g>
	</g>
	<g>
	</g>
	<g>
	</g>
	<g>
	</g>
	<g>
	</g>
	<g>
	</g>
	<g>
	</g>
</g>
</svg>
