<?xml version="1.0" encoding="utf-8"?>
<!-- Generator: Adobe Illustrator 28.2.0, SVG Export Plug-In . SVG Version: 6.00 Build 0)  -->
<svg version="1.1" xmlns="http://www.w3.org/2000/svg" xmlns:xlink="http://www.w3.org/1999/xlink" x="0px" y="0px"
	 width="281.185px" height="306.127px" viewBox="0 0 281.185 306.127" style="enable-background:new 0 0 281.185 306.127;"
	 xml:space="preserve">
<style type="text/css">
	.st0{fill:#F0F0F0;stroke:#828282;stroke-miterlimit:10;}
	.st1{fill:none;stroke:#828282;stroke-miterlimit:10;}
	.st2{fill:#828282;}
	.st3{fill:#FFFFFF;}
</style>
<g id="レイヤー_2">
	<rect x="20.323" y="0.5" class="st0" width="240.539" height="305.127"/>
	<line class="st1" x1="0" y1="25.814" x2="20.323" y2="25.814"/>
	<line class="st1" x1="0" y1="25.814" x2="20.323" y2="25.814"/>
	<line class="st1" x1="260.862" y1="25.814" x2="281.185" y2="25.814"/>
	<rect x="20.323" y="0.5" class="st2" width="240.539" height="21"/>
</g>
<g id="レイヤー_3">
	<g>
		<path d="M25.122,39.028V26.064h7.762v1.044h-6.66v4.681h6.012v1.044h-6.012v5.149h6.822v1.044H25.122z"/>
		<path d="M37.791,34.995l-2.609,4.033h-1.183l3.225-4.825l-2.966-4.501h1.199l2.317,3.709l2.382-3.709h1.231l-3.03,4.501
			l3.144,4.825h-1.167L37.791,34.995z"/>
		<path d="M43.573,34.617c-0.016,2.017,0.956,3.691,2.82,3.691c1.264,0,2.252-0.774,2.544-2.143h1.085
			c-0.486,1.765-1.491,3.115-3.63,3.115c-2.69,0-3.857-2.125-3.857-4.879c0-2.719,1.458-4.952,3.857-4.952
			c2.301,0,3.711,1.819,3.695,5.168H43.573z M49.051,33.716c0-1.818-0.908-3.295-2.658-3.295c-1.718,0-2.625,1.53-2.82,3.295H49.051
			z"/>
		<path d="M57.928,32.636c-0.34-1.386-1.199-2.214-2.496-2.214c-1.993,0-2.819,2.017-2.819,3.961c0,1.963,0.81,3.925,2.819,3.925
			c1.442,0,2.35-0.954,2.577-2.503h1.037c-0.34,2.071-1.507,3.475-3.614,3.475c-2.674,0-3.856-2.143-3.856-4.897
			c0-2.593,1.345-4.934,3.856-4.934c1.929,0,3.192,1.026,3.484,3.187H57.928z"/>
		<path d="M66.676,29.701h0.973v9.327h-0.973v-1.296c-0.519,0.648-1.231,1.548-2.706,1.548c-2.236,0-2.982-1.494-2.982-3.439v-6.14
			h0.973v6.122c0,1.603,0.632,2.485,2.155,2.485c1.604,0,2.56-1.477,2.56-3.529V29.701z"/>
		<path d="M72.945,39.064c-0.227,0.054-0.648,0.216-1.118,0.216c-0.956,0-1.491-0.468-1.491-1.854v-6.824h-1.183v-0.9h1.183v-2.593
			h0.973v2.593h1.572v0.9h-1.572v6.392c0,0.918,0.032,1.314,0.842,1.314c0.259,0,0.535-0.054,0.794-0.126V39.064z"/>
		<path d="M75.099,34.617c-0.016,2.017,0.956,3.691,2.82,3.691c1.264,0,2.252-0.774,2.544-2.143h1.085
			c-0.486,1.765-1.491,3.115-3.63,3.115c-2.69,0-3.857-2.125-3.857-4.879c0-2.719,1.458-4.952,3.857-4.952
			c2.301,0,3.711,1.819,3.695,5.168H75.099z M80.576,33.716c0-1.818-0.908-3.295-2.658-3.295c-1.718,0-2.625,1.53-2.82,3.295H80.576
			z"/>
	</g>
	<g>
		<path d="M24.052,74.623l4.586-12.964h1.248l4.473,12.964h-1.134l-1.345-4.069h-5.315l-1.377,4.069H24.052z M26.937,69.51h4.57
			l-2.285-6.806L26.937,69.51z"/>
		<path d="M38.698,70.59l-2.609,4.033h-1.183l3.225-4.825l-2.966-4.501h1.199l2.317,3.709l2.382-3.709h1.231l-3.03,4.501
			l3.144,4.825h-1.167L38.698,70.59z"/>
		<path d="M43.979,63.262v-1.603h1.069v1.603H43.979z M44.027,74.623v-9.327h0.972v9.327H44.027z"/>
		<path d="M48.045,71.706c0.308,1.603,1.053,2.197,2.512,2.197c1.41,0,2.074-0.828,2.074-1.729c0-2.701-5.38-0.792-5.38-4.465
			c0-1.548,1.085-2.665,2.949-2.665c1.815,0,2.998,0.829,3.241,2.935h-0.988c-0.178-1.44-1.053-1.962-2.269-1.962
			c-1.231,0-1.896,0.648-1.896,1.603c0,2.539,5.38,0.954,5.38,4.537c0,1.783-1.442,2.719-3.419,2.719
			c-1.977,0-3.111-1.404-3.192-3.169H48.045z"/>
	</g>
	<g>
		<path d="M25.073,116.691v-12.964h4.262c3.03,0,3.808,1.674,3.808,3.619c0,2.899-2.317,3.619-4.473,3.619h-2.496v5.726H25.073z
			 M28.703,109.921c2.058,0,3.338-0.468,3.338-2.665c0-1.621-0.94-2.485-3.014-2.485h-2.852v5.149H28.703z"/>
		<path d="M34.323,112.027c0-2.719,1.296-4.916,3.889-4.916c2.625,0,3.889,2.179,3.889,4.916c0,2.953-1.54,4.916-3.889,4.916
			C36.073,116.907,34.323,115.287,34.323,112.027z M38.212,108.085c-2.042,0-2.852,1.926-2.852,3.943
			c0,2.323,0.989,3.943,2.852,3.943c2.042,0,2.852-1.945,2.852-3.943C41.048,109.831,40.27,108.085,38.212,108.085z"/>
		<path d="M44.448,113.774c0.308,1.603,1.053,2.197,2.512,2.197c1.41,0,2.074-0.828,2.074-1.729c0-2.701-5.38-0.792-5.38-4.465
			c0-1.548,1.085-2.665,2.949-2.665c1.815,0,2.998,0.829,3.241,2.935h-0.989c-0.178-1.44-1.053-1.962-2.269-1.962
			c-1.231,0-1.896,0.648-1.896,1.603c0,2.539,5.38,0.954,5.38,4.537c0,1.783-1.442,2.719-3.419,2.719
			c-1.977,0-3.111-1.404-3.192-3.169H44.448z"/>
		<path d="M52.079,105.33v-1.603h1.069v1.603H52.079z M52.127,116.691v-9.327h0.972v9.327H52.127z"/>
		<path d="M58.527,116.727c-0.227,0.054-0.648,0.216-1.118,0.216c-0.956,0-1.491-0.468-1.491-1.854v-6.824h-1.183v-0.9h1.183v-2.593
			h0.973v2.593h1.572v0.9H56.89v6.392c0,0.918,0.032,1.314,0.842,1.314c0.259,0,0.535-0.054,0.794-0.126V116.727z"/>
		<path d="M60.178,105.33v-1.603h1.069v1.603H60.178z M60.227,116.691v-9.327h0.972v9.327H60.227z"/>
		<path d="M63.126,112.027c0-2.719,1.296-4.916,3.889-4.916c2.625,0,3.889,2.179,3.889,4.916c0,2.953-1.54,4.916-3.889,4.916
			C64.876,116.907,63.126,115.287,63.126,112.027z M67.015,108.085c-2.042,0-2.852,1.926-2.852,3.943
			c0,2.323,0.989,3.943,2.852,3.943c2.042,0,2.852-1.945,2.852-3.943C69.851,109.831,69.073,108.085,67.015,108.085z"/>
		<path d="M73.657,116.691h-0.972v-9.327h0.972v1.296c0.778-0.918,1.54-1.549,2.706-1.549c1.021,0,1.961,0.36,2.561,1.333
			c0.405,0.667,0.421,1.369,0.421,2.143v6.104h-0.973v-6.086c0-1.674-0.616-2.521-2.171-2.521c-1.199,0-2.025,0.864-2.333,1.818
			c-0.194,0.594-0.21,1.116-0.21,1.765V116.691z"/>
	</g>
	<g>
		<path d="M24.101,145.427h1.151l3.516,11.523l3.5-11.523h1.15l-4.051,12.964h-1.215L24.101,145.427z"/>
		<path d="M35.473,153.98c-0.016,2.017,0.957,3.691,2.82,3.691c1.264,0,2.252-0.774,2.544-2.143h1.086
			c-0.486,1.765-1.491,3.115-3.63,3.115c-2.69,0-3.857-2.125-3.857-4.879c0-2.719,1.458-4.952,3.857-4.952
			c2.301,0,3.711,1.819,3.695,5.168H35.473z M40.951,153.079c0-1.818-0.908-3.295-2.658-3.295c-1.718,0-2.625,1.53-2.82,3.295
			H40.951z"/>
		<path d="M44.027,158.391v-12.964h0.972v12.964H44.027z"/>
		<path d="M46.926,153.727c0-2.719,1.296-4.916,3.889-4.916c2.625,0,3.889,2.179,3.889,4.916c0,2.953-1.54,4.916-3.889,4.916
			C48.676,158.606,46.926,156.986,46.926,153.727z M50.816,149.784c-2.042,0-2.852,1.926-2.852,3.943
			c0,2.323,0.989,3.943,2.852,3.943c2.042,0,2.852-1.945,2.852-3.943C53.651,151.531,52.874,149.784,50.816,149.784z"/>
		<path d="M62.432,151.999c-0.34-1.386-1.199-2.214-2.496-2.214c-1.993,0-2.819,2.017-2.819,3.961c0,1.963,0.81,3.925,2.819,3.925
			c1.442,0,2.35-0.954,2.577-2.503h1.037c-0.34,2.071-1.507,3.475-3.614,3.475c-2.673,0-3.856-2.143-3.856-4.897
			c0-2.593,1.345-4.934,3.856-4.934c1.929,0,3.192,1.026,3.484,3.187H62.432z"/>
		<path d="M65.589,147.029v-1.603h1.069v1.603H65.589z M65.638,158.391v-9.327h0.972v9.327H65.638z"/>
		<path d="M72.038,158.427c-0.227,0.054-0.648,0.216-1.118,0.216c-0.956,0-1.491-0.468-1.491-1.854v-6.824h-1.183v-0.9h1.183v-2.593
			h0.973v2.593h1.572v0.9h-1.572v6.392c0,0.918,0.032,1.314,0.842,1.314c0.259,0,0.535-0.054,0.794-0.126V158.427z"/>
		<path d="M73.527,160.929c0.259,0.054,0.535,0.108,0.81,0.108c1.102,0,1.264-1.765,1.637-2.575l-3.257-9.399h1.086l2.69,8.012
			l2.69-8.012h1.053l-3.127,9.201c-0.794,2.341-1.312,3.799-2.658,3.799c-0.34,0-0.664-0.054-0.923-0.126V160.929z"/>
	</g>
	<g>
		<path d="M24.052,200.458l4.586-12.964h1.248l4.473,12.964h-1.134l-1.345-4.069h-5.315l-1.377,4.069H24.052z M26.937,195.345h4.57
			l-2.285-6.806L26.937,195.345z"/>
		<path d="M41.728,194.066c-0.34-1.386-1.199-2.214-2.496-2.214c-1.993,0-2.819,2.017-2.819,3.961c0,1.963,0.81,3.925,2.819,3.925
			c1.442,0,2.35-0.954,2.577-2.503h1.037c-0.34,2.071-1.507,3.475-3.614,3.475c-2.674,0-3.856-2.143-3.856-4.897
			c0-2.593,1.345-4.934,3.856-4.934c1.929,0,3.192,1.026,3.484,3.187H41.728z"/>
		<path d="M50.735,194.066c-0.34-1.386-1.199-2.214-2.496-2.214c-1.993,0-2.819,2.017-2.819,3.961c0,1.963,0.81,3.925,2.819,3.925
			c1.442,0,2.35-0.954,2.577-2.503h1.037c-0.34,2.071-1.507,3.475-3.614,3.475c-2.673,0-3.856-2.143-3.856-4.897
			c0-2.593,1.345-4.934,3.856-4.934c1.929,0,3.192,1.026,3.484,3.187H50.735z"/>
		<path d="M54.395,196.047c-0.016,2.017,0.957,3.691,2.82,3.691c1.264,0,2.252-0.774,2.544-2.143h1.086
			c-0.486,1.765-1.491,3.115-3.63,3.115c-2.69,0-3.857-2.125-3.857-4.879c0-2.719,1.458-4.952,3.857-4.952
			c2.301,0,3.711,1.819,3.695,5.168H54.395z M59.873,195.147c0-1.818-0.908-3.295-2.658-3.295c-1.718,0-2.625,1.53-2.82,3.295
			H59.873z"/>
		<path d="M62.949,200.458v-12.964h0.972v12.964H62.949z"/>
		<path d="M66.999,196.047c-0.016,2.017,0.957,3.691,2.82,3.691c1.264,0,2.252-0.774,2.544-2.143h1.086
			c-0.486,1.765-1.491,3.115-3.63,3.115c-2.69,0-3.857-2.125-3.857-4.879c0-2.719,1.458-4.952,3.857-4.952
			c2.301,0,3.711,1.819,3.695,5.168H66.999z M72.476,195.147c0-1.818-0.908-3.295-2.658-3.295c-1.718,0-2.625,1.53-2.82,3.295
			H72.476z"/>
		<path d="M76.427,200.458h-0.972v-9.327h0.972v1.747h0.033c0.535-1.495,1.329-1.999,2.738-1.999v1.17
			c-2.188-0.054-2.771,1.747-2.771,3.835V200.458z"/>
		<path d="M84.658,195.021c0.356-0.036,0.956-0.144,1.28-0.306s0.356-0.648,0.356-0.972c0-1.099-0.583-1.891-2.09-1.891
			c-1.345,0-2.269,0.486-2.447,2.106h-0.989c0.146-2.197,1.621-3.079,3.452-3.079c1.702,0,3.046,0.738,3.046,2.899v5.078
			c0,0.846,0.195,1.044,1.021,0.72v0.846c-0.146,0.054-0.486,0.18-0.762,0.18c-0.162,0-0.292-0.018-0.438-0.054
			c-0.648-0.108-0.762-0.738-0.778-1.386c-0.81,1.008-1.912,1.548-3.127,1.548c-1.475,0-2.803-0.882-2.803-2.683
			c0-1.566,0.972-2.521,2.933-2.809L84.658,195.021z M86.295,195.561c-0.827,0.378-1.669,0.45-2.512,0.522
			c-1.475,0.126-2.366,0.72-2.366,1.981c0,1.134,0.891,1.674,1.815,1.674c1.539,0,3.062-0.828,3.062-2.719V195.561z"/>
		<path d="M92.758,200.494c-0.227,0.054-0.648,0.216-1.118,0.216c-0.956,0-1.491-0.468-1.491-1.854v-6.824h-1.183v-0.9h1.183v-2.593
			h0.973v2.593h1.572v0.9h-1.572v6.392c0,0.918,0.032,1.314,0.842,1.314c0.259,0,0.535-0.054,0.794-0.126V200.494z"/>
		<path d="M94.409,189.097v-1.603h1.069v1.603H94.409z M94.458,200.458v-9.327h0.972v9.327H94.458z"/>
		<path d="M97.357,195.794c0-2.719,1.296-4.916,3.889-4.916c2.625,0,3.889,2.179,3.889,4.916c0,2.953-1.54,4.916-3.889,4.916
			C99.107,200.674,97.357,199.054,97.357,195.794z M101.246,191.852c-2.042,0-2.852,1.926-2.852,3.943
			c0,2.323,0.989,3.943,2.852,3.943c2.042,0,2.852-1.945,2.852-3.943C104.082,193.598,103.304,191.852,101.246,191.852z"/>
		<path d="M107.888,200.458h-0.973v-9.327h0.973v1.296c0.778-0.918,1.54-1.549,2.706-1.549c1.021,0,1.961,0.36,2.561,1.333
			c0.405,0.667,0.421,1.369,0.421,2.143v6.104h-0.973v-6.086c0-1.674-0.616-2.521-2.171-2.521c-1.199,0-2.025,0.864-2.333,1.818
			c-0.194,0.594-0.21,1.116-0.21,1.765V200.458z"/>
	</g>
	<g>
		<path d="M25.122,242.525v-12.964h3.986c1.296,0,2.512,0.09,3.598,0.972c1.54,1.243,1.944,3.763,1.944,5.492
			c0,1.71-0.34,3.619-1.41,4.916c-1.069,1.333-2.593,1.584-4.132,1.584H25.122z M26.224,241.481h2.642
			c0.988,0,1.847-0.072,2.738-0.594c1.556-0.882,1.945-3.097,1.945-4.861c0-1.891-0.373-3.961-2.01-4.934
			c-0.697-0.414-1.701-0.486-2.673-0.486h-2.642V241.481z"/>
		<path d="M37.272,238.114c-0.016,2.017,0.956,3.691,2.82,3.691c1.264,0,2.252-0.774,2.544-2.143h1.085
			c-0.486,1.765-1.491,3.115-3.63,3.115c-2.69,0-3.857-2.125-3.857-4.879c0-2.719,1.458-4.952,3.857-4.952
			c2.301,0,3.711,1.819,3.695,5.168H37.272z M42.749,237.214c0-1.818-0.908-3.295-2.658-3.295c-1.718,0-2.625,1.53-2.82,3.295
			H42.749z"/>
		<path d="M51.627,236.133c-0.34-1.386-1.199-2.214-2.496-2.214c-1.993,0-2.819,2.017-2.819,3.961c0,1.963,0.81,3.925,2.819,3.925
			c1.442,0,2.35-0.954,2.577-2.503h1.037c-0.34,2.071-1.507,3.475-3.614,3.475c-2.674,0-3.856-2.143-3.856-4.897
			c0-2.593,1.345-4.934,3.856-4.934c1.929,0,3.192,1.026,3.484,3.187H51.627z"/>
		<path d="M55.286,238.114c-0.016,2.017,0.956,3.691,2.82,3.691c1.264,0,2.252-0.774,2.544-2.143h1.085
			c-0.486,1.765-1.491,3.115-3.63,3.115c-2.69,0-3.857-2.125-3.857-4.879c0-2.719,1.458-4.952,3.857-4.952
			c2.301,0,3.711,1.819,3.695,5.168H55.286z M60.764,237.214c0-1.818-0.908-3.295-2.658-3.295c-1.718,0-2.625,1.53-2.82,3.295
			H60.764z"/>
		<path d="M63.84,242.525v-12.964h0.972v12.964H63.84z"/>
		<path d="M67.89,238.114c-0.016,2.017,0.956,3.691,2.82,3.691c1.264,0,2.252-0.774,2.544-2.143h1.085
			c-0.486,1.765-1.491,3.115-3.63,3.115c-2.69,0-3.857-2.125-3.857-4.879c0-2.719,1.458-4.952,3.857-4.952
			c2.301,0,3.711,1.819,3.695,5.168H67.89z M73.367,237.214c0-1.818-0.908-3.295-2.658-3.295c-1.718,0-2.625,1.53-2.82,3.295H73.367
			z"/>
		<path d="M77.318,242.525h-0.972v-9.327h0.972v1.747h0.033c0.535-1.495,1.329-1.999,2.738-1.999v1.17
			c-2.188-0.054-2.771,1.747-2.771,3.835V242.525z"/>
		<path d="M85.549,237.088c0.356-0.036,0.956-0.144,1.28-0.306s0.356-0.648,0.356-0.972c0-1.099-0.583-1.891-2.09-1.891
			c-1.345,0-2.269,0.486-2.447,2.106H81.66c0.146-2.197,1.621-3.079,3.452-3.079c1.702,0,3.046,0.738,3.046,2.899v5.078
			c0,0.846,0.195,1.044,1.021,0.72v0.846c-0.146,0.054-0.486,0.18-0.762,0.18c-0.162,0-0.292-0.018-0.438-0.054
			c-0.648-0.108-0.762-0.738-0.778-1.386c-0.81,1.008-1.912,1.548-3.127,1.548c-1.475,0-2.803-0.882-2.803-2.683
			c0-1.566,0.972-2.521,2.933-2.809L85.549,237.088z M87.186,237.628c-0.826,0.378-1.669,0.45-2.512,0.522
			c-1.475,0.126-2.366,0.72-2.366,1.981c0,1.134,0.891,1.674,1.815,1.674c1.539,0,3.062-0.828,3.062-2.719V237.628z"/>
		<path d="M93.649,242.562c-0.227,0.054-0.648,0.216-1.118,0.216c-0.956,0-1.491-0.468-1.491-1.854v-6.824h-1.183v-0.9h1.183v-2.593
			h0.973v2.593h1.572v0.9h-1.572v6.392c0,0.918,0.032,1.314,0.842,1.314c0.259,0,0.535-0.054,0.794-0.126V242.562z"/>
		<path d="M95.3,231.164v-1.603h1.069v1.603H95.3z M95.349,242.525v-9.327h0.972v9.327H95.349z"/>
		<path d="M98.248,237.862c0-2.719,1.296-4.916,3.889-4.916c2.625,0,3.889,2.179,3.889,4.916c0,2.953-1.54,4.916-3.889,4.916
			C99.998,242.741,98.248,241.121,98.248,237.862z M102.137,233.919c-2.042,0-2.852,1.926-2.852,3.943
			c0,2.323,0.989,3.943,2.852,3.943c2.042,0,2.852-1.945,2.852-3.943C104.973,235.666,104.195,233.919,102.137,233.919z"/>
		<path d="M108.779,242.525h-0.972v-9.327h0.972v1.296c0.778-0.918,1.54-1.549,2.706-1.549c1.021,0,1.961,0.36,2.561,1.333
			c0.405,0.667,0.421,1.369,0.421,2.143v6.104h-0.973v-6.086c0-1.674-0.616-2.521-2.171-2.521c-1.199,0-2.025,0.864-2.333,1.818
			c-0.194,0.594-0.21,1.116-0.21,1.765V242.525z"/>
	</g>
	<g>
		<path d="M25.268,280.487c-0.016,1.621,0.065,3.331,2.106,3.331c1.507,0,2.058-0.99,2.058-2.809v-9.381h1.102v9.417
			c0,2.502-1.037,3.889-3.29,3.889c-2.625,0-3.079-2.143-3.079-4.448H25.268z"/>
		<path d="M33.675,280.182c-0.016,2.017,0.957,3.691,2.82,3.691c1.264,0,2.252-0.774,2.544-2.143h1.086
			c-0.486,1.765-1.491,3.115-3.63,3.115c-2.69,0-3.857-2.125-3.857-4.879c0-2.719,1.458-4.952,3.857-4.952
			c2.301,0,3.711,1.819,3.695,5.168H33.675z M39.153,279.281c0-1.818-0.908-3.295-2.658-3.295c-1.718,0-2.625,1.53-2.82,3.295
			H39.153z"/>
		<path d="M43.104,284.593h-0.972v-9.327h0.972v1.747h0.033c0.535-1.495,1.329-1.999,2.738-1.999v1.17
			c-2.188-0.054-2.771,1.747-2.771,3.835V284.593z"/>
		<path d="M47.413,284.593v-12.964h0.972v8.066l4.116-4.429h1.329l-3.144,3.367l3.516,5.96h-1.085l-3.144-5.204l-1.588,1.674v3.529
			H47.413z"/>
	</g>
	<g>
		<path d="M192.527,39.028V26.064h1.102v12.964H192.527z"/>
		<path d="M197.468,39.028h-0.972v-9.327h0.972v1.296c0.778-0.918,1.54-1.549,2.706-1.549c1.021,0,1.961,0.36,2.561,1.333
			c0.405,0.667,0.422,1.369,0.422,2.143v6.104h-0.973v-6.086c0-1.674-0.616-2.521-2.172-2.521c-1.199,0-2.025,0.864-2.333,1.818
			c-0.194,0.594-0.211,1.116-0.211,1.765V39.028z"/>
		<path d="M213.93,29.827c-0.454-2.215-1.686-3.061-3.679-3.061c-2.819,0-4.035,2.683-4.035,5.744c0,2.899,0.956,5.816,4.133,5.816
			c2.009,0,3.257-1.513,3.694-3.565h1.15c-0.519,2.502-1.929,4.609-5.056,4.609c-3.598,0-5.023-3.151-5.023-6.824
			c0-4.952,2.333-6.824,5.429-6.824c2.398,0,4.148,1.422,4.521,4.105H213.93z"/>
		<path d="M216.649,34.364c0-2.719,1.296-4.916,3.889-4.916c2.626,0,3.89,2.179,3.89,4.916c0,2.953-1.54,4.916-3.89,4.916
			C218.399,39.244,216.649,37.624,216.649,34.364z M220.537,30.421c-2.041,0-2.852,1.926-2.852,3.943
			c0,2.323,0.988,3.943,2.852,3.943c2.042,0,2.853-1.945,2.853-3.943C223.373,32.168,222.596,30.421,220.537,30.421z"/>
		<path d="M227.179,39.028h-0.972v-9.327h0.972v1.296c0.778-0.918,1.54-1.549,2.706-1.549c1.021,0,1.961,0.36,2.561,1.333
			c0.405,0.667,0.422,1.369,0.422,2.143v6.104h-0.973v-6.086c0-1.674-0.616-2.521-2.172-2.521c-1.199,0-2.025,0.864-2.333,1.818
			c-0.194,0.594-0.211,1.116-0.211,1.765V39.028z"/>
		<path d="M238.163,39.064c-0.227,0.054-0.648,0.216-1.118,0.216c-0.956,0-1.491-0.468-1.491-1.854v-6.824h-1.183v-0.9h1.183v-2.593
			h0.973v2.593h1.572v0.9h-1.572v6.392c0,0.918,0.032,1.314,0.843,1.314c0.259,0,0.535-0.054,0.794-0.126V39.064z"/>
		<path d="M240.738,39.028h-0.973v-9.327h0.973v1.747h0.032c0.535-1.495,1.329-1.999,2.738-1.999v1.17
			c-2.188-0.054-2.771,1.747-2.771,3.835V39.028z"/>
		<path d="M244.561,34.364c0-2.719,1.297-4.916,3.89-4.916c2.625,0,3.889,2.179,3.889,4.916c0,2.953-1.539,4.916-3.889,4.916
			C246.311,39.244,244.561,37.624,244.561,34.364z M248.45,30.421c-2.042,0-2.853,1.926-2.853,3.943
			c0,2.323,0.989,3.943,2.853,3.943c2.042,0,2.852-1.945,2.852-3.943C251.286,32.168,250.508,30.421,248.45,30.421z"/>
		<path d="M254.265,39.028V26.064h0.973v12.964H254.265z"/>
	</g>
	<g>
		<path d="M221.849,74.623V61.659h4.213c2.739,0,3.824,1.314,3.824,3.259c0,1.801-0.923,2.611-1.863,2.791v0.036
			c1.604,0.27,2.398,1.512,2.398,3.223c0,2.701-1.588,3.655-3.809,3.655H221.849z M222.95,67.385h2.787
			c2.302,0,3.047-0.9,3.047-2.467c0-1.62-0.875-2.214-3.29-2.214h-2.544V67.385z M222.95,73.579h2.804
			c2.431,0,3.565-0.36,3.565-2.611c0-2.143-1.361-2.539-3.436-2.539h-2.934V73.579z"/>
		<path d="M238.195,65.296h0.973v9.327h-0.973v-1.296c-0.519,0.648-1.231,1.548-2.706,1.548c-2.236,0-2.981-1.494-2.981-3.439v-6.14
			h0.973v6.122c0,1.603,0.632,2.485,2.155,2.485c1.604,0,2.56-1.477,2.56-3.529V65.296z"/>
		<path d="M242.082,71.706c0.309,1.603,1.054,2.197,2.512,2.197c1.41,0,2.074-0.828,2.074-1.729c0-2.701-5.38-0.792-5.38-4.465
			c0-1.548,1.086-2.665,2.949-2.665c1.815,0,2.998,0.829,3.241,2.935h-0.988c-0.179-1.44-1.054-1.962-2.269-1.962
			c-1.231,0-1.896,0.648-1.896,1.603c0,2.539,5.38,0.954,5.38,4.537c0,1.783-1.442,2.719-3.419,2.719s-3.111-1.404-3.192-3.169
			H242.082z"/>
		<path d="M249.551,77.162c0.259,0.054,0.534,0.108,0.81,0.108c1.103,0,1.265-1.765,1.637-2.575l-3.257-9.399h1.086l2.689,8.012
			l2.69-8.012h1.053l-3.127,9.201c-0.794,2.341-1.312,3.799-2.658,3.799c-0.34,0-0.664-0.054-0.923-0.126V77.162z"/>
	</g>
	<g>
		<path d="M132.023,107.49c-0.454-2.215-1.685-3.061-3.679-3.061c-2.819,0-4.035,2.683-4.035,5.744c0,2.899,0.956,5.816,4.132,5.816
			c2.009,0,3.257-1.513,3.694-3.565h1.151c-0.519,2.502-1.929,4.609-5.056,4.609c-3.597,0-5.023-3.151-5.023-6.824
			c0-4.952,2.333-6.824,5.429-6.824c2.398,0,4.148,1.422,4.521,4.105H132.023z"/>
		<path d="M134.742,112.027c0-2.719,1.296-4.916,3.889-4.916c2.625,0,3.889,2.179,3.889,4.916c0,2.953-1.54,4.916-3.889,4.916
			C136.492,116.907,134.742,115.287,134.742,112.027z M138.631,108.085c-2.042,0-2.852,1.926-2.852,3.943
			c0,2.323,0.989,3.943,2.852,3.943c2.042,0,2.852-1.945,2.852-3.943C141.467,109.831,140.689,108.085,138.631,108.085z"/>
		<path d="M145.143,116.691h-0.972v-9.327h0.972v1.404h0.033c0.502-1.062,1.507-1.657,2.593-1.657c1.556,0,2.106,0.811,2.463,1.801
			c0.551-1.207,1.54-1.801,2.739-1.801c2.284,0,2.608,1.819,2.608,3.691v5.888h-0.972v-6.446c0-1.333-0.422-2.161-1.799-2.161
			c-0.713,0-1.41,0.342-1.896,1.062c-0.421,0.612-0.55,1.747-0.55,2.521v5.023h-0.973v-6.446c0-1.333-0.421-2.161-1.798-2.161
			c-0.713,0-1.41,0.342-1.896,1.062c-0.421,0.612-0.551,1.747-0.551,2.521V116.691z"/>
		<path d="M158.637,116.691h-0.972v-9.327h0.972v1.404h0.033c0.502-1.062,1.507-1.657,2.593-1.657c1.556,0,2.106,0.811,2.463,1.801
			c0.551-1.207,1.539-1.801,2.738-1.801c2.285,0,2.609,1.819,2.609,3.691v5.888h-0.973v-6.446c0-1.333-0.421-2.161-1.799-2.161
			c-0.713,0-1.409,0.342-1.896,1.062c-0.422,0.612-0.551,1.747-0.551,2.521v5.023h-0.973v-6.446c0-1.333-0.421-2.161-1.799-2.161
			c-0.713,0-1.41,0.342-1.896,1.062c-0.422,0.612-0.552,1.747-0.552,2.521V116.691z"/>
		<path d="M175.146,111.253c0.356-0.036,0.956-0.144,1.28-0.306s0.356-0.648,0.356-0.972c0-1.099-0.583-1.891-2.09-1.891
			c-1.346,0-2.269,0.486-2.447,2.106h-0.988c0.146-2.197,1.62-3.079,3.451-3.079c1.702,0,3.047,0.738,3.047,2.899v5.078
			c0,0.846,0.194,1.044,1.021,0.72v0.846c-0.146,0.054-0.485,0.18-0.762,0.18c-0.162,0-0.291-0.018-0.438-0.054
			c-0.647-0.108-0.762-0.738-0.777-1.386c-0.811,1.008-1.912,1.548-3.128,1.548c-1.475,0-2.803-0.882-2.803-2.683
			c0-1.566,0.972-2.521,2.933-2.809L175.146,111.253z M176.782,111.793c-0.826,0.378-1.669,0.45-2.512,0.522
			c-1.475,0.126-2.365,0.72-2.365,1.981c0,1.134,0.891,1.674,1.814,1.674c1.539,0,3.062-0.828,3.062-2.719V111.793z"/>
		<path d="M181.269,116.691h-0.972v-9.327h0.972v1.296c0.778-0.918,1.54-1.549,2.706-1.549c1.021,0,1.961,0.36,2.561,1.333
			c0.405,0.667,0.422,1.369,0.422,2.143v6.104h-0.973v-6.086c0-1.674-0.616-2.521-2.172-2.521c-1.199,0-2.025,0.864-2.333,1.818
			c-0.194,0.594-0.211,1.116-0.211,1.765V116.691z"/>
		<path d="M195.786,103.727h0.972v12.964h-0.972v-1.639h-0.033c-0.566,1.225-1.847,1.891-2.917,1.891
			c-2.706,0-3.791-2.143-3.791-4.897c0-2.611,1.183-4.934,3.743-4.934c1.183,0,2.382,0.612,2.998,1.747V103.727z M192.95,108.085
			c-2.01,0-2.949,1.891-2.868,4.231c0.016,2.341,1.231,3.655,2.868,3.655c1.831,0,2.836-1.729,2.836-3.979
			C195.786,109.885,194.716,108.085,192.95,108.085z"/>
		<path d="M198.278,116.691l4.586-12.964h1.247l4.473,12.964h-1.134l-1.346-4.069h-5.314l-1.378,4.069H198.278z M201.162,111.578
			h4.57l-2.285-6.806L201.162,111.578z"/>
		<path d="M211.093,116.691h-0.973v-12.964h0.973v5.131c0.615-1.134,1.814-1.747,2.998-1.747c2.56,0,3.743,2.323,3.743,4.934
			c0,2.755-1.086,4.897-3.792,4.897c-1.069,0-2.35-0.666-2.917-1.891h-0.032V116.691z M213.929,115.971
			c1.637,0,2.852-1.314,2.868-3.655c0.081-2.34-0.859-4.231-2.868-4.231c-1.767,0-2.836,1.8-2.836,3.907
			C211.093,114.242,212.098,115.971,213.929,115.971z"/>
		<path d="M219.354,112.027c0-2.719,1.297-4.916,3.89-4.916c2.625,0,3.889,2.179,3.889,4.916c0,2.953-1.539,4.916-3.889,4.916
			C221.104,116.907,219.354,115.287,219.354,112.027z M223.243,108.085c-2.042,0-2.853,1.926-2.853,3.943
			c0,2.323,0.989,3.943,2.853,3.943c2.042,0,2.852-1.945,2.852-3.943C226.079,109.831,225.301,108.085,223.243,108.085z"/>
		<path d="M229.933,116.691h-0.972v-9.327h0.972v1.747h0.033c0.534-1.495,1.328-1.999,2.738-1.999v1.17
			c-2.188-0.054-2.771,1.747-2.771,3.835V116.691z"/>
		<path d="M237.256,116.727c-0.227,0.054-0.648,0.216-1.118,0.216c-0.956,0-1.491-0.468-1.491-1.854v-6.824h-1.183v-0.9h1.183
			v-2.593h0.973v2.593h1.572v0.9h-1.572v6.392c0,0.918,0.032,1.314,0.843,1.314c0.259,0,0.535-0.054,0.794-0.126V116.727z"/>
		<path d="M239.409,112.28c-0.016,2.017,0.957,3.691,2.82,3.691c1.264,0,2.252-0.774,2.544-2.143h1.086
			c-0.486,1.765-1.491,3.115-3.63,3.115c-2.69,0-3.857-2.125-3.857-4.879c0-2.719,1.459-4.952,3.857-4.952
			c2.301,0,3.711,1.819,3.694,5.168H239.409z M244.887,111.379c0-1.818-0.907-3.295-2.657-3.295c-1.718,0-2.625,1.53-2.82,3.295
			H244.887z"/>
		<path d="M254.3,103.727h0.972v12.964H254.3v-1.639h-0.033c-0.566,1.225-1.847,1.891-2.917,1.891c-2.706,0-3.791-2.143-3.791-4.897
			c0-2.611,1.183-4.934,3.743-4.934c1.183,0,2.382,0.612,2.998,1.747V103.727z M251.464,108.085c-2.01,0-2.949,1.891-2.868,4.231
			c0.016,2.341,1.231,3.655,2.868,3.655c1.831,0,2.836-1.729,2.836-3.979C254.3,109.885,253.23,108.085,251.464,108.085z"/>
	</g>
	<g>
		<path d="M222.772,158.391v-12.964h7.763v1.044h-6.66v4.681h6.012v1.044h-6.012v5.149h6.822v1.044H222.772z"/>
		<path d="M233.545,158.391h-0.973v-9.327h0.973v1.747h0.032c0.535-1.495,1.329-1.999,2.738-1.999v1.17
			c-2.188-0.054-2.771,1.747-2.771,3.835V158.391z"/>
		<path d="M238.94,158.391h-0.973v-9.327h0.973v1.747h0.032c0.535-1.495,1.329-1.999,2.738-1.999v1.17
			c-2.188-0.054-2.771,1.747-2.771,3.835V158.391z"/>
		<path d="M242.762,153.727c0-2.719,1.297-4.916,3.89-4.916c2.625,0,3.889,2.179,3.889,4.916c0,2.953-1.539,4.916-3.889,4.916
			C244.512,158.606,242.762,156.986,242.762,153.727z M246.651,149.784c-2.042,0-2.853,1.926-2.853,3.943
			c0,2.323,0.989,3.943,2.853,3.943c2.042,0,2.852-1.945,2.852-3.943C249.487,151.531,248.709,149.784,246.651,149.784z"/>
		<path d="M253.341,158.391h-0.972v-9.327h0.972v1.747h0.033c0.534-1.495,1.328-1.999,2.738-1.999v1.17
			c-2.188-0.054-2.771,1.747-2.771,3.835V158.391z"/>
	</g>
	<g>
		<path d="M206.572,200.458v-12.964h7.762v1.044h-6.66v4.681h6.013v1.044h-6.013v5.149h6.822v1.044H206.572z"/>
		<path d="M217.345,200.458h-0.972v-9.327h0.972v1.747h0.033c0.534-1.495,1.328-1.999,2.738-1.999v1.17
			c-2.188-0.054-2.771,1.747-2.771,3.835V200.458z"/>
		<path d="M222.739,200.458h-0.972v-9.327h0.972v1.747h0.033c0.534-1.495,1.328-1.999,2.738-1.999v1.17
			c-2.188-0.054-2.771,1.747-2.771,3.835V200.458z"/>
		<path d="M226.563,195.794c0-2.719,1.296-4.916,3.889-4.916c2.626,0,3.89,2.179,3.89,4.916c0,2.953-1.54,4.916-3.89,4.916
			C228.313,200.674,226.563,199.054,226.563,195.794z M230.451,191.852c-2.041,0-2.852,1.926-2.852,3.943
			c0,2.323,0.988,3.943,2.852,3.943c2.042,0,2.853-1.945,2.853-3.943C233.287,193.598,232.51,191.852,230.451,191.852z"/>
		<path d="M237.142,200.458h-0.973v-9.327h0.973v1.747h0.032c0.535-1.495,1.329-1.999,2.738-1.999v1.17
			c-2.188-0.054-2.771,1.747-2.771,3.835V200.458z"/>
		<path d="M242.05,200.458v-12.964h1.102v12.964H242.05z"/>
		<path d="M246.164,200.458v-12.964h3.986c1.297,0,2.512,0.09,3.598,0.972c1.54,1.243,1.944,3.763,1.944,5.492
			c0,1.71-0.34,3.619-1.409,4.916c-1.069,1.333-2.593,1.584-4.133,1.584H246.164z M247.267,199.414h2.642
			c0.988,0,1.847-0.072,2.738-0.594c1.556-0.882,1.944-3.097,1.944-4.861c0-1.891-0.373-3.961-2.01-4.934
			c-0.696-0.414-1.701-0.486-2.673-0.486h-2.642V199.414z"/>
	</g>
	<g>
		<path class="st3" d="M25.025,18.264V5.3h1.628l3.695,11.434h0.031L34.011,5.3h1.612v12.964h-1.064V6.704h-0.031l-3.695,11.56
			h-1.002l-3.71-11.56h-0.031v11.56H25.025z"/>
		<path class="st3" d="M45.96,9.063c-0.438-2.215-1.628-3.061-3.554-3.061c-2.724,0-3.898,2.683-3.898,5.744
			c0,2.899,0.924,5.816,3.992,5.816c1.941,0,3.147-1.513,3.569-3.565h1.112c-0.501,2.502-1.863,4.609-4.885,4.609
			c-3.476,0-4.853-3.151-4.853-6.824c0-4.952,2.254-6.824,5.245-6.824c2.317,0,4.008,1.422,4.368,4.105H45.96z"/>
		<path class="st3" d="M55.669,19.614v0.9h-7.828v-0.9H55.669z"/>
		<path class="st3" d="M55.75,18.264L60.18,5.3h1.205l4.321,12.964H64.61l-1.299-4.069h-5.135l-1.331,4.069H55.75z M58.536,13.15
			h4.415l-2.208-6.806L58.536,13.15z"/>
		<path class="st3" d="M67.98,18.264H67.04V5.3h0.939v5.131c0.595-1.134,1.753-1.747,2.896-1.747c2.474,0,3.617,2.323,3.617,4.934
			c0,2.755-1.049,4.897-3.664,4.897c-1.033,0-2.27-0.666-2.818-1.891H67.98V18.264z M70.719,17.543c1.581,0,2.755-1.314,2.771-3.655
			c0.078-2.34-0.83-4.231-2.771-4.231c-1.707,0-2.74,1.8-2.74,3.907C67.98,15.815,68.95,17.543,70.719,17.543z"/>
		<path class="st3" d="M76.89,15.347c0.297,1.603,1.018,2.197,2.426,2.197c1.362,0,2.004-0.828,2.004-1.729
			c0-2.701-5.197-0.792-5.197-4.465c0-1.548,1.049-2.665,2.849-2.665c1.753,0,2.896,0.829,3.131,2.935h-0.955
			c-0.172-1.44-1.018-1.962-2.192-1.962c-1.19,0-1.832,0.648-1.832,1.603c0,2.539,5.197,0.954,5.197,4.537
			c0,1.783-1.393,2.719-3.303,2.719c-1.91,0-3.006-1.404-3.084-3.169H76.89z"/>
		<path class="st3" d="M83.484,13.6c0-2.719,1.252-4.916,3.757-4.916c2.537,0,3.757,2.179,3.757,4.916
			c0,2.953-1.487,4.916-3.757,4.916C85.174,18.48,83.484,16.859,83.484,13.6z M87.241,9.657c-1.972,0-2.755,1.926-2.755,3.943
			c0,2.323,0.955,3.943,2.755,3.943c1.973,0,2.755-1.945,2.755-3.943C89.981,11.404,89.229,9.657,87.241,9.657z"/>
		<path class="st3" d="M92.707,18.264V5.3h0.939v12.964H92.707z"/>
		<path class="st3" d="M101.38,8.937h0.939v9.327h-0.939v-1.296c-0.501,0.648-1.189,1.548-2.614,1.548
			c-2.161,0-2.88-1.494-2.88-3.439v-6.14h0.939v6.122c0,1.603,0.611,2.485,2.083,2.485c1.55,0,2.473-1.477,2.473-3.529V8.937z"/>
		<path class="st3" d="M107.286,18.3c-0.219,0.054-0.626,0.216-1.08,0.216c-0.924,0-1.44-0.468-1.44-1.854V9.837h-1.143v-0.9h1.143
			V6.344h0.939v2.593h1.519v0.9h-1.519v6.392c0,0.918,0.031,1.314,0.814,1.314c0.25,0,0.517-0.054,0.767-0.126V18.3z"/>
		<path class="st3" d="M109.213,13.853c-0.016,2.017,0.923,3.691,2.724,3.691c1.221,0,2.176-0.774,2.458-2.143h1.049
			c-0.47,1.765-1.44,3.115-3.507,3.115c-2.599,0-3.726-2.125-3.726-4.879c0-2.719,1.409-4.952,3.726-4.952
			c2.223,0,3.585,1.819,3.569,5.168H109.213z M114.504,12.952c0-1.818-0.877-3.295-2.567-3.295c-1.66,0-2.536,1.53-2.724,3.295
			H114.504z"/>
		<path class="st3" d="M117.277,18.264V5.3h4.117c2.928,0,3.679,1.674,3.679,3.619c0,2.899-2.239,3.619-4.321,3.619h-2.411v5.726
			H117.277z M120.784,11.494c1.988,0,3.225-0.468,3.225-2.665c0-1.621-0.908-2.485-2.912-2.485h-2.755v5.149H120.784z"/>
		<path class="st3" d="M126.063,13.6c0-2.719,1.252-4.916,3.757-4.916c2.537,0,3.757,2.179,3.757,4.916
			c0,2.953-1.487,4.916-3.757,4.916C127.754,18.48,126.063,16.859,126.063,13.6z M129.82,9.657c-1.972,0-2.755,1.926-2.755,3.943
			c0,2.323,0.955,3.943,2.755,3.943c1.973,0,2.755-1.945,2.755-3.943C132.56,11.404,131.808,9.657,129.82,9.657z"/>
		<path class="st3" d="M135.694,15.347c0.297,1.603,1.018,2.197,2.426,2.197c1.362,0,2.004-0.828,2.004-1.729
			c0-2.701-5.197-0.792-5.197-4.465c0-1.548,1.049-2.665,2.849-2.665c1.753,0,2.896,0.829,3.131,2.935h-0.955
			c-0.172-1.44-1.018-1.962-2.192-1.962c-1.19,0-1.832,0.648-1.832,1.603c0,2.539,5.197,0.954,5.197,4.537
			c0,1.783-1.393,2.719-3.303,2.719c-1.91,0-3.006-1.404-3.084-3.169H135.694z"/>
		<path class="st3" d="M142.851,18.264V5.3h7.264v1.044h-6.2v4.681h5.636v1.044h-5.636v6.194H142.851z"/>
		<path class="st3" d="M150.837,13.6c0-2.719,1.253-4.916,3.758-4.916c2.536,0,3.757,2.179,3.757,4.916
			c0,2.953-1.487,4.916-3.757,4.916C152.528,18.48,150.837,16.859,150.837,13.6z M154.595,9.657c-1.973,0-2.756,1.926-2.756,3.943
			c0,2.323,0.955,3.943,2.756,3.943c1.973,0,2.755-1.945,2.755-3.943C157.334,11.404,156.583,9.657,154.595,9.657z"/>
		<path class="st3" d="M160.062,18.264V5.3h0.939v12.964H160.062z"/>
		<path class="st3" d="M163.381,18.264V5.3h0.939v12.964H163.381z"/>
		<path class="st3" d="M166.026,13.6c0-2.719,1.253-4.916,3.758-4.916c2.536,0,3.757,2.179,3.757,4.916
			c0,2.953-1.487,4.916-3.757,4.916C167.718,18.48,166.026,16.859,166.026,13.6z M169.784,9.657c-1.973,0-2.756,1.926-2.756,3.943
			c0,2.323,0.955,3.943,2.756,3.943c1.973,0,2.755-1.945,2.755-3.943C172.524,11.404,171.773,9.657,169.784,9.657z"/>
		<path class="st3" d="M181.967,16.823l2.129-7.886h0.955l-2.63,9.327h-1.002l-1.77-7.833h-0.031l-1.801,7.833h-1.127l-2.474-9.327
			h0.939l2.098,7.958l1.879-7.958h1.049L181.967,16.823z"/>
		<path class="st3" d="M186.416,5.3h1.064v7.724c0,3.205,1.002,4.538,3.304,4.538c2.426,0,3.303-1.477,3.303-4.538V5.3h1.064v8.084
			c0,3.367-1.456,5.222-4.367,5.222c-2.943,0-4.368-1.909-4.368-5.222V5.3z"/>
		<path class="st3" d="M198.458,21.937h-0.939v-13h0.939v1.638h0.031c0.548-1.224,1.784-1.891,2.817-1.891
			c2.614,0,3.664,2.143,3.664,4.897c0,2.611-1.144,4.934-3.617,4.934c-1.143,0-2.301-0.612-2.896-1.747V21.937z M201.197,17.543
			c1.941,0,2.85-1.891,2.771-4.231c-0.016-2.34-1.19-3.655-2.771-3.655c-1.769,0-2.739,1.729-2.739,3.979
			C198.458,15.743,199.491,17.543,201.197,17.543z"/>
		<path class="st3" d="M214.961,9.063c-0.438-2.215-1.628-3.061-3.554-3.061c-2.724,0-3.898,2.683-3.898,5.744
			c0,2.899,0.924,5.816,3.992,5.816c1.941,0,3.147-1.513,3.569-3.565h1.112c-0.501,2.502-1.863,4.609-4.885,4.609
			c-3.476,0-4.854-3.151-4.854-6.824c0-4.952,2.255-6.824,5.245-6.824c2.316,0,4.008,1.422,4.367,4.105H214.961z"/>
		<path class="st3" d="M217.438,13.6c0-2.719,1.253-4.916,3.758-4.916c2.536,0,3.757,2.179,3.757,4.916
			c0,2.953-1.487,4.916-3.757,4.916C219.129,18.48,217.438,16.859,217.438,13.6z M221.195,9.657c-1.973,0-2.756,1.926-2.756,3.943
			c0,2.323,0.955,3.943,2.756,3.943c1.973,0,2.755-1.945,2.755-3.943C223.935,11.404,223.184,9.657,221.195,9.657z"/>
		<path class="st3" d="M227.46,18.264h-0.939V8.937h0.939v1.296c0.751-0.918,1.487-1.549,2.614-1.549
			c0.986,0,1.895,0.36,2.474,1.333c0.392,0.667,0.407,1.369,0.407,2.143v6.104h-0.939v-6.086c0-1.674-0.595-2.521-2.098-2.521
			c-1.159,0-1.957,0.864-2.255,1.818c-0.188,0.594-0.203,1.116-0.203,1.765V18.264z"/>
		<path class="st3" d="M237.92,18.3c-0.219,0.054-0.626,0.216-1.08,0.216c-0.924,0-1.44-0.468-1.44-1.854V9.837h-1.143v-0.9h1.143
			V6.344h0.939v2.593h1.519v0.9h-1.519v6.392c0,0.918,0.031,1.314,0.814,1.314c0.25,0,0.517-0.054,0.767-0.126V18.3z"/>
		<path class="st3" d="M240.254,18.264h-0.939V8.937h0.939v1.747h0.031c0.517-1.495,1.284-1.999,2.646-1.999v1.17
			c-2.113-0.054-2.677,1.747-2.677,3.835V18.264z"/>
		<path class="st3" d="M243.794,13.6c0-2.719,1.252-4.916,3.757-4.916c2.536,0,3.758,2.179,3.758,4.916
			c0,2.953-1.487,4.916-3.758,4.916C245.484,18.48,243.794,16.859,243.794,13.6z M247.551,9.657c-1.973,0-2.755,1.926-2.755,3.943
			c0,2.323,0.955,3.943,2.755,3.943c1.973,0,2.756-1.945,2.756-3.943C250.291,11.404,249.539,9.657,247.551,9.657z"/>
		<path class="st3" d="M253.018,18.264V5.3h0.939v12.964H253.018z"/>
	</g>
	<g>
	</g>
	<g>
	</g>
	<g>
	</g>
	<g>
	</g>
	<g>
	</g>
	<g>
	</g>
	<g>
	</g>
	<g>
	</g>
	<g>
	</g>
	<g>
	</g>
	<g>
	</g>
	<g>
	</g>
	<g>
	</g>
	<g>
	</g>
	<g>
	</g>
</g>
</svg>
