<?xml version="1.0" encoding="utf-8"?>
<!-- Generator: Adobe Illustrator 28.2.0, SVG Export Plug-In . SVG Version: 6.00 Build 0)  -->
<svg version="1.1" xmlns="http://www.w3.org/2000/svg" xmlns:xlink="http://www.w3.org/1999/xlink" x="0px" y="0px"
	 width="281.185px" height="431.433px" viewBox="0 0 281.185 431.433" style="enable-background:new 0 0 281.185 431.433;"
	 xml:space="preserve">
<style type="text/css">
	.st0{fill:#F0F0F0;stroke:#828282;stroke-miterlimit:10;}
	.st1{fill:none;stroke:#828282;stroke-miterlimit:10;}
	.st2{fill:#828282;}
	.st3{fill:#FFFFFF;}
</style>
<g id="レイヤー_2">
	<rect x="20.323" y="0.5" class="st0" width="240.539" height="430.433"/>
	<line class="st1" x1="0" y1="25.814" x2="20.323" y2="25.814"/>
	<line class="st1" x1="0" y1="25.814" x2="20.323" y2="25.814"/>
	<line class="st1" x1="260.862" y1="25.814" x2="281.185" y2="25.814"/>
	<rect x="20.323" y="0.5" class="st2" width="240.539" height="21"/>
</g>
<g id="レイヤー_3">
	<g>
		<path d="M25.122,39.028V26.064h7.762v1.044h-6.66v4.681h6.012v1.044h-6.012v5.149h6.822v1.044H25.122z"/>
		<path d="M37.791,34.995l-2.609,4.033h-1.183l3.225-4.825l-2.966-4.501h1.199l2.317,3.709l2.382-3.709h1.231l-3.03,4.501
			l3.144,4.825h-1.167L37.791,34.995z"/>
		<path d="M43.573,34.617c-0.016,2.017,0.956,3.691,2.82,3.691c1.264,0,2.252-0.774,2.544-2.143h1.085
			c-0.486,1.765-1.491,3.115-3.63,3.115c-2.69,0-3.857-2.125-3.857-4.879c0-2.719,1.458-4.952,3.857-4.952
			c2.301,0,3.711,1.819,3.695,5.168H43.573z M49.051,33.716c0-1.818-0.908-3.295-2.658-3.295c-1.718,0-2.625,1.53-2.82,3.295H49.051
			z"/>
		<path d="M57.928,32.636c-0.34-1.386-1.199-2.214-2.496-2.214c-1.993,0-2.819,2.017-2.819,3.961c0,1.963,0.81,3.925,2.819,3.925
			c1.442,0,2.35-0.954,2.577-2.503h1.037c-0.34,2.071-1.507,3.475-3.614,3.475c-2.674,0-3.856-2.143-3.856-4.897
			c0-2.593,1.345-4.934,3.856-4.934c1.929,0,3.192,1.026,3.484,3.187H57.928z"/>
		<path d="M66.676,29.701h0.973v9.327h-0.973v-1.296c-0.519,0.648-1.231,1.548-2.706,1.548c-2.236,0-2.982-1.494-2.982-3.439v-6.14
			h0.973v6.122c0,1.603,0.632,2.485,2.155,2.485c1.604,0,2.56-1.477,2.56-3.529V29.701z"/>
		<path d="M72.945,39.064c-0.227,0.054-0.648,0.216-1.118,0.216c-0.956,0-1.491-0.468-1.491-1.854v-6.824h-1.183v-0.9h1.183v-2.593
			h0.973v2.593h1.572v0.9h-1.572v6.392c0,0.918,0.032,1.314,0.842,1.314c0.259,0,0.535-0.054,0.794-0.126V39.064z"/>
		<path d="M75.099,34.617c-0.016,2.017,0.956,3.691,2.82,3.691c1.264,0,2.252-0.774,2.544-2.143h1.085
			c-0.486,1.765-1.491,3.115-3.63,3.115c-2.69,0-3.857-2.125-3.857-4.879c0-2.719,1.458-4.952,3.857-4.952
			c2.301,0,3.711,1.819,3.695,5.168H75.099z M80.576,33.716c0-1.818-0.908-3.295-2.658-3.295c-1.718,0-2.625,1.53-2.82,3.295H80.576
			z"/>
	</g>
	<g>
		<path d="M24.052,74.623l4.586-12.964h1.248l4.473,12.964h-1.134l-1.345-4.069h-5.315l-1.377,4.069H24.052z M26.937,69.51h4.57
			l-2.285-6.806L26.937,69.51z"/>
		<path d="M38.698,70.59l-2.609,4.033h-1.183l3.225-4.825l-2.966-4.501h1.199l2.317,3.709l2.382-3.709h1.231l-3.03,4.501
			l3.144,4.825h-1.167L38.698,70.59z"/>
		<path d="M43.979,63.262v-1.603h1.069v1.603H43.979z M44.027,74.623v-9.327h0.972v9.327H44.027z"/>
		<path d="M48.045,71.706c0.308,1.603,1.053,2.197,2.512,2.197c1.41,0,2.074-0.828,2.074-1.729c0-2.701-5.38-0.792-5.38-4.465
			c0-1.548,1.085-2.665,2.949-2.665c1.815,0,2.998,0.829,3.241,2.935h-0.988c-0.178-1.44-1.053-1.962-2.269-1.962
			c-1.231,0-1.896,0.648-1.896,1.603c0,2.539,5.38,0.954,5.38,4.537c0,1.783-1.442,2.719-3.419,2.719
			c-1.977,0-3.111-1.404-3.192-3.169H48.045z"/>
		<path d="M60.682,68.969v-1.044h4.991v6.698h-0.94v-2.215c-0.81,1.549-2.058,2.557-4.359,2.557c-2.949,0-5.104-2.287-5.104-6.896
			c0-3.799,1.718-6.752,5.396-6.752c2.447,0,4.375,1.333,4.878,4.105h-1.134c-0.389-1.945-1.929-3.061-3.663-3.061
			c-3.079,0-4.375,2.521-4.375,6.194c0,2.863,1.556,5.366,4.229,5.366c1.264,0,2.754-0.594,3.516-2.269
			c0.373-0.811,0.486-1.711,0.502-2.683H60.682z"/>
		<path d="M69.202,74.623H68.23v-9.327h0.972v1.747h0.033c0.535-1.495,1.329-1.999,2.738-1.999v1.17
			c-2.188-0.054-2.771,1.747-2.771,3.835V74.623z"/>
		<path d="M73.025,69.96c0-2.719,1.296-4.916,3.889-4.916c2.625,0,3.889,2.179,3.889,4.916c0,2.953-1.54,4.916-3.889,4.916
			C74.775,74.839,73.025,73.219,73.025,69.96z M76.914,66.017c-2.042,0-2.852,1.926-2.852,3.943c0,2.323,0.989,3.943,2.852,3.943
			c2.042,0,2.852-1.945,2.852-3.943C79.75,67.763,78.972,66.017,76.914,66.017z"/>
		<path d="M88.271,65.296h0.973v9.327h-0.973v-1.296c-0.519,0.648-1.231,1.548-2.706,1.548c-2.236,0-2.981-1.494-2.981-3.439v-6.14
			h0.972v6.122c0,1.603,0.632,2.485,2.155,2.485c1.604,0,2.56-1.477,2.56-3.529V65.296z"/>
		<path d="M92.676,78.296h-0.972v-13h0.972v1.638h0.032c0.567-1.224,1.848-1.891,2.917-1.891c2.706,0,3.792,2.143,3.792,4.897
			c0,2.611-1.183,4.934-3.743,4.934c-1.183,0-2.382-0.612-2.998-1.747V78.296z M95.512,73.903c2.009,0,2.949-1.891,2.868-4.231
			c-0.016-2.34-1.231-3.655-2.868-3.655c-1.831,0-2.836,1.729-2.836,3.979C92.676,72.103,93.745,73.903,95.512,73.903z"/>
	</g>
	<g>
		<path d="M25.268,116.691v-12.964h4.429c1.44,0,2.791,0.09,3.997,0.972c1.71,1.243,2.161,3.763,2.161,5.492
			c0,1.71-0.378,3.619-1.566,4.916c-1.188,1.333-2.881,1.584-4.591,1.584H25.268z M26.492,115.647h2.935
			c1.098,0,2.053-0.072,3.043-0.594c1.729-0.882,2.161-3.097,2.161-4.861c0-1.891-0.414-3.961-2.233-4.934
			c-0.774-0.414-1.891-0.486-2.971-0.486h-2.935V115.647z"/>
		<path d="M38.209,105.33v-1.603h1.188v1.603H38.209z M38.263,116.691v-9.327h1.08v9.327H38.263z"/>
		<path d="M42.727,113.774c0.342,1.603,1.17,2.197,2.791,2.197c1.566,0,2.305-0.828,2.305-1.729c0-2.701-5.978-0.792-5.978-4.465
			c0-1.548,1.206-2.665,3.277-2.665c2.017,0,3.331,0.829,3.601,2.935h-1.098c-0.198-1.44-1.17-1.962-2.521-1.962
			c-1.368,0-2.106,0.648-2.106,1.603c0,2.539,5.978,0.954,5.978,4.537c0,1.783-1.603,2.719-3.799,2.719
			c-2.197,0-3.457-1.404-3.547-3.169H42.727z"/>
		<path d="M54.374,116.727c-0.252,0.054-0.72,0.216-1.242,0.216c-1.062,0-1.657-0.468-1.657-1.854v-6.824H50.16v-0.9h1.314v-2.593
			h1.081v2.593h1.747v0.9h-1.747v6.392c0,0.918,0.036,1.314,0.936,1.314c0.288,0,0.594-0.054,0.882-0.126V116.727z"/>
		<path d="M60.386,111.253c0.396-0.036,1.062-0.144,1.422-0.306c0.36-0.162,0.396-0.648,0.396-0.972
			c0-1.099-0.648-1.891-2.323-1.891c-1.495,0-2.521,0.486-2.719,2.106h-1.099c0.162-2.197,1.801-3.079,3.835-3.079
			c1.89,0,3.385,0.738,3.385,2.899v5.078c0,0.846,0.216,1.044,1.134,0.72v0.846c-0.162,0.054-0.54,0.18-0.846,0.18
			c-0.18,0-0.324-0.018-0.486-0.054c-0.721-0.108-0.847-0.738-0.864-1.386c-0.9,1.008-2.125,1.548-3.475,1.548
			c-1.639,0-3.115-0.882-3.115-2.683c0-1.566,1.081-2.521,3.259-2.809L60.386,111.253z M62.205,111.793
			c-0.918,0.378-1.855,0.45-2.791,0.522c-1.639,0.126-2.629,0.72-2.629,1.981c0,1.134,0.99,1.674,2.017,1.674
			c1.71,0,3.403-0.828,3.403-2.719V111.793z"/>
		<path d="M67.189,116.691h-1.08v-9.327h1.08v1.296c0.864-0.918,1.711-1.549,3.007-1.549c1.134,0,2.178,0.36,2.845,1.333
			c0.45,0.667,0.468,1.369,0.468,2.143v6.104h-1.081v-6.086c0-1.674-0.684-2.521-2.413-2.521c-1.333,0-2.251,0.864-2.593,1.818
			c-0.216,0.594-0.234,1.116-0.234,1.765V116.691z"/>
		<path d="M82.724,110.299c-0.378-1.386-1.333-2.214-2.773-2.214c-2.214,0-3.133,2.017-3.133,3.961c0,1.963,0.9,3.925,3.133,3.925
			c1.603,0,2.611-0.954,2.863-2.503h1.152c-0.378,2.071-1.675,3.475-4.016,3.475c-2.971,0-4.285-2.143-4.285-4.897
			c0-2.593,1.495-4.934,4.285-4.934c2.143,0,3.547,1.026,3.871,3.187H82.724z"/>
		<path d="M86.79,112.28c-0.018,2.017,1.062,3.691,3.133,3.691c1.404,0,2.502-0.774,2.827-2.143h1.207
			c-0.541,1.765-1.657,3.115-4.033,3.115c-2.989,0-4.286-2.125-4.286-4.879c0-2.719,1.621-4.952,4.286-4.952
			c2.557,0,4.123,1.819,4.105,5.168H86.79z M92.876,111.379c0-1.818-1.008-3.295-2.953-3.295c-1.909,0-2.917,1.53-3.133,3.295
			H92.876z"/>
	</g>
	<g>
		<path d="M24.101,145.427h1.151l3.516,11.523l3.5-11.523h1.15l-4.051,12.964h-1.215L24.101,145.427z"/>
		<path d="M35.473,153.98c-0.016,2.017,0.957,3.691,2.82,3.691c1.264,0,2.252-0.774,2.544-2.143h1.086
			c-0.486,1.765-1.491,3.115-3.63,3.115c-2.69,0-3.857-2.125-3.857-4.879c0-2.719,1.458-4.952,3.857-4.952
			c2.301,0,3.711,1.819,3.695,5.168H35.473z M40.951,153.079c0-1.818-0.908-3.295-2.658-3.295c-1.718,0-2.625,1.53-2.82,3.295
			H40.951z"/>
		<path d="M44.027,158.391v-12.964h0.972v12.964H44.027z"/>
		<path d="M46.926,153.727c0-2.719,1.296-4.916,3.889-4.916c2.625,0,3.889,2.179,3.889,4.916c0,2.953-1.54,4.916-3.889,4.916
			C48.676,158.606,46.926,156.986,46.926,153.727z M50.816,149.784c-2.042,0-2.852,1.926-2.852,3.943
			c0,2.323,0.989,3.943,2.852,3.943c2.042,0,2.852-1.945,2.852-3.943C53.651,151.531,52.874,149.784,50.816,149.784z"/>
		<path d="M62.432,151.999c-0.34-1.386-1.199-2.214-2.496-2.214c-1.993,0-2.819,2.017-2.819,3.961c0,1.963,0.81,3.925,2.819,3.925
			c1.442,0,2.35-0.954,2.577-2.503h1.037c-0.34,2.071-1.507,3.475-3.614,3.475c-2.673,0-3.856-2.143-3.856-4.897
			c0-2.593,1.345-4.934,3.856-4.934c1.929,0,3.192,1.026,3.484,3.187H62.432z"/>
		<path d="M65.589,147.029v-1.603h1.069v1.603H65.589z M65.638,158.391v-9.327h0.972v9.327H65.638z"/>
		<path d="M72.038,158.427c-0.227,0.054-0.648,0.216-1.118,0.216c-0.956,0-1.491-0.468-1.491-1.854v-6.824h-1.183v-0.9h1.183v-2.593
			h0.973v2.593h1.572v0.9h-1.572v6.392c0,0.918,0.032,1.314,0.842,1.314c0.259,0,0.535-0.054,0.794-0.126V158.427z"/>
		<path d="M73.527,160.929c0.259,0.054,0.535,0.108,0.81,0.108c1.102,0,1.264-1.765,1.637-2.575l-3.257-9.399h1.086l2.69,8.012
			l2.69-8.012h1.053l-3.127,9.201c-0.794,2.341-1.312,3.799-2.658,3.799c-0.34,0-0.664-0.054-0.923-0.126V160.929z"/>
	</g>
	<g>
		<path d="M24.052,200.458l4.586-12.964h1.248l4.473,12.964h-1.134l-1.345-4.069h-5.315l-1.377,4.069H24.052z M26.937,195.345h4.57
			l-2.285-6.806L26.937,195.345z"/>
		<path d="M41.728,194.066c-0.34-1.386-1.199-2.214-2.496-2.214c-1.993,0-2.819,2.017-2.819,3.961c0,1.963,0.81,3.925,2.819,3.925
			c1.442,0,2.35-0.954,2.577-2.503h1.037c-0.34,2.071-1.507,3.475-3.614,3.475c-2.674,0-3.856-2.143-3.856-4.897
			c0-2.593,1.345-4.934,3.856-4.934c1.929,0,3.192,1.026,3.484,3.187H41.728z"/>
		<path d="M50.735,194.066c-0.34-1.386-1.199-2.214-2.496-2.214c-1.993,0-2.819,2.017-2.819,3.961c0,1.963,0.81,3.925,2.819,3.925
			c1.442,0,2.35-0.954,2.577-2.503h1.037c-0.34,2.071-1.507,3.475-3.614,3.475c-2.673,0-3.856-2.143-3.856-4.897
			c0-2.593,1.345-4.934,3.856-4.934c1.929,0,3.192,1.026,3.484,3.187H50.735z"/>
		<path d="M54.395,196.047c-0.016,2.017,0.957,3.691,2.82,3.691c1.264,0,2.252-0.774,2.544-2.143h1.086
			c-0.486,1.765-1.491,3.115-3.63,3.115c-2.69,0-3.857-2.125-3.857-4.879c0-2.719,1.458-4.952,3.857-4.952
			c2.301,0,3.711,1.819,3.695,5.168H54.395z M59.873,195.147c0-1.818-0.908-3.295-2.658-3.295c-1.718,0-2.625,1.53-2.82,3.295
			H59.873z"/>
		<path d="M62.949,200.458v-12.964h0.972v12.964H62.949z"/>
		<path d="M66.999,196.047c-0.016,2.017,0.957,3.691,2.82,3.691c1.264,0,2.252-0.774,2.544-2.143h1.086
			c-0.486,1.765-1.491,3.115-3.63,3.115c-2.69,0-3.857-2.125-3.857-4.879c0-2.719,1.458-4.952,3.857-4.952
			c2.301,0,3.711,1.819,3.695,5.168H66.999z M72.476,195.147c0-1.818-0.908-3.295-2.658-3.295c-1.718,0-2.625,1.53-2.82,3.295
			H72.476z"/>
		<path d="M76.427,200.458h-0.972v-9.327h0.972v1.747h0.033c0.535-1.495,1.329-1.999,2.738-1.999v1.17
			c-2.188-0.054-2.771,1.747-2.771,3.835V200.458z"/>
		<path d="M84.658,195.021c0.356-0.036,0.956-0.144,1.28-0.306s0.356-0.648,0.356-0.972c0-1.099-0.583-1.891-2.09-1.891
			c-1.345,0-2.269,0.486-2.447,2.106h-0.989c0.146-2.197,1.621-3.079,3.452-3.079c1.702,0,3.046,0.738,3.046,2.899v5.078
			c0,0.846,0.195,1.044,1.021,0.72v0.846c-0.146,0.054-0.486,0.18-0.762,0.18c-0.162,0-0.292-0.018-0.438-0.054
			c-0.648-0.108-0.762-0.738-0.778-1.386c-0.81,1.008-1.912,1.548-3.127,1.548c-1.475,0-2.803-0.882-2.803-2.683
			c0-1.566,0.972-2.521,2.933-2.809L84.658,195.021z M86.295,195.561c-0.827,0.378-1.669,0.45-2.512,0.522
			c-1.475,0.126-2.366,0.72-2.366,1.981c0,1.134,0.891,1.674,1.815,1.674c1.539,0,3.062-0.828,3.062-2.719V195.561z"/>
		<path d="M92.758,200.494c-0.227,0.054-0.648,0.216-1.118,0.216c-0.956,0-1.491-0.468-1.491-1.854v-6.824h-1.183v-0.9h1.183v-2.593
			h0.973v2.593h1.572v0.9h-1.572v6.392c0,0.918,0.032,1.314,0.842,1.314c0.259,0,0.535-0.054,0.794-0.126V200.494z"/>
		<path d="M94.409,189.097v-1.603h1.069v1.603H94.409z M94.458,200.458v-9.327h0.972v9.327H94.458z"/>
		<path d="M97.357,195.794c0-2.719,1.296-4.916,3.889-4.916c2.625,0,3.889,2.179,3.889,4.916c0,2.953-1.54,4.916-3.889,4.916
			C99.107,200.674,97.357,199.054,97.357,195.794z M101.246,191.852c-2.042,0-2.852,1.926-2.852,3.943
			c0,2.323,0.989,3.943,2.852,3.943c2.042,0,2.852-1.945,2.852-3.943C104.082,193.598,103.304,191.852,101.246,191.852z"/>
		<path d="M107.888,200.458h-0.973v-9.327h0.973v1.296c0.778-0.918,1.54-1.549,2.706-1.549c1.021,0,1.961,0.36,2.561,1.333
			c0.405,0.667,0.421,1.369,0.421,2.143v6.104h-0.973v-6.086c0-1.674-0.616-2.521-2.171-2.521c-1.199,0-2.025,0.864-2.333,1.818
			c-0.194,0.594-0.21,1.116-0.21,1.765V200.458z"/>
	</g>
	<g>
		<path d="M25.122,242.525v-12.964h3.986c1.296,0,2.512,0.09,3.598,0.972c1.54,1.243,1.944,3.763,1.944,5.492
			c0,1.71-0.34,3.619-1.41,4.916c-1.069,1.333-2.593,1.584-4.132,1.584H25.122z M26.224,241.481h2.642
			c0.988,0,1.847-0.072,2.738-0.594c1.556-0.882,1.945-3.097,1.945-4.861c0-1.891-0.373-3.961-2.01-4.934
			c-0.697-0.414-1.701-0.486-2.673-0.486h-2.642V241.481z"/>
		<path d="M37.272,238.114c-0.016,2.017,0.956,3.691,2.82,3.691c1.264,0,2.252-0.774,2.544-2.143h1.085
			c-0.486,1.765-1.491,3.115-3.63,3.115c-2.69,0-3.857-2.125-3.857-4.879c0-2.719,1.458-4.952,3.857-4.952
			c2.301,0,3.711,1.819,3.695,5.168H37.272z M42.749,237.214c0-1.818-0.908-3.295-2.658-3.295c-1.718,0-2.625,1.53-2.82,3.295
			H42.749z"/>
		<path d="M51.627,236.133c-0.34-1.386-1.199-2.214-2.496-2.214c-1.993,0-2.819,2.017-2.819,3.961c0,1.963,0.81,3.925,2.819,3.925
			c1.442,0,2.35-0.954,2.577-2.503h1.037c-0.34,2.071-1.507,3.475-3.614,3.475c-2.674,0-3.856-2.143-3.856-4.897
			c0-2.593,1.345-4.934,3.856-4.934c1.929,0,3.192,1.026,3.484,3.187H51.627z"/>
		<path d="M55.286,238.114c-0.016,2.017,0.956,3.691,2.82,3.691c1.264,0,2.252-0.774,2.544-2.143h1.085
			c-0.486,1.765-1.491,3.115-3.63,3.115c-2.69,0-3.857-2.125-3.857-4.879c0-2.719,1.458-4.952,3.857-4.952
			c2.301,0,3.711,1.819,3.695,5.168H55.286z M60.764,237.214c0-1.818-0.908-3.295-2.658-3.295c-1.718,0-2.625,1.53-2.82,3.295
			H60.764z"/>
		<path d="M63.84,242.525v-12.964h0.972v12.964H63.84z"/>
		<path d="M67.89,238.114c-0.016,2.017,0.956,3.691,2.82,3.691c1.264,0,2.252-0.774,2.544-2.143h1.085
			c-0.486,1.765-1.491,3.115-3.63,3.115c-2.69,0-3.857-2.125-3.857-4.879c0-2.719,1.458-4.952,3.857-4.952
			c2.301,0,3.711,1.819,3.695,5.168H67.89z M73.367,237.214c0-1.818-0.908-3.295-2.658-3.295c-1.718,0-2.625,1.53-2.82,3.295H73.367
			z"/>
		<path d="M77.318,242.525h-0.972v-9.327h0.972v1.747h0.033c0.535-1.495,1.329-1.999,2.738-1.999v1.17
			c-2.188-0.054-2.771,1.747-2.771,3.835V242.525z"/>
		<path d="M85.549,237.088c0.356-0.036,0.956-0.144,1.28-0.306s0.356-0.648,0.356-0.972c0-1.099-0.583-1.891-2.09-1.891
			c-1.345,0-2.269,0.486-2.447,2.106H81.66c0.146-2.197,1.621-3.079,3.452-3.079c1.702,0,3.046,0.738,3.046,2.899v5.078
			c0,0.846,0.195,1.044,1.021,0.72v0.846c-0.146,0.054-0.486,0.18-0.762,0.18c-0.162,0-0.292-0.018-0.438-0.054
			c-0.648-0.108-0.762-0.738-0.778-1.386c-0.81,1.008-1.912,1.548-3.127,1.548c-1.475,0-2.803-0.882-2.803-2.683
			c0-1.566,0.972-2.521,2.933-2.809L85.549,237.088z M87.186,237.628c-0.826,0.378-1.669,0.45-2.512,0.522
			c-1.475,0.126-2.366,0.72-2.366,1.981c0,1.134,0.891,1.674,1.815,1.674c1.539,0,3.062-0.828,3.062-2.719V237.628z"/>
		<path d="M93.649,242.562c-0.227,0.054-0.648,0.216-1.118,0.216c-0.956,0-1.491-0.468-1.491-1.854v-6.824h-1.183v-0.9h1.183v-2.593
			h0.973v2.593h1.572v0.9h-1.572v6.392c0,0.918,0.032,1.314,0.842,1.314c0.259,0,0.535-0.054,0.794-0.126V242.562z"/>
		<path d="M95.3,231.164v-1.603h1.069v1.603H95.3z M95.349,242.525v-9.327h0.972v9.327H95.349z"/>
		<path d="M98.248,237.862c0-2.719,1.296-4.916,3.889-4.916c2.625,0,3.889,2.179,3.889,4.916c0,2.953-1.54,4.916-3.889,4.916
			C99.998,242.741,98.248,241.121,98.248,237.862z M102.137,233.919c-2.042,0-2.852,1.926-2.852,3.943
			c0,2.323,0.989,3.943,2.852,3.943c2.042,0,2.852-1.945,2.852-3.943C104.973,235.666,104.195,233.919,102.137,233.919z"/>
		<path d="M108.779,242.525h-0.972v-9.327h0.972v1.296c0.778-0.918,1.54-1.549,2.706-1.549c1.021,0,1.961,0.36,2.561,1.333
			c0.405,0.667,0.421,1.369,0.421,2.143v6.104h-0.973v-6.086c0-1.674-0.616-2.521-2.171-2.521c-1.199,0-2.025,0.864-2.333,1.818
			c-0.194,0.594-0.21,1.116-0.21,1.765V242.525z"/>
	</g>
	<g>
		<path d="M25.268,280.487c-0.016,1.621,0.065,3.331,2.106,3.331c1.507,0,2.058-0.99,2.058-2.809v-9.381h1.102v9.417
			c0,2.502-1.037,3.889-3.29,3.889c-2.625,0-3.079-2.143-3.079-4.448H25.268z"/>
		<path d="M33.675,280.182c-0.016,2.017,0.957,3.691,2.82,3.691c1.264,0,2.252-0.774,2.544-2.143h1.086
			c-0.486,1.765-1.491,3.115-3.63,3.115c-2.69,0-3.857-2.125-3.857-4.879c0-2.719,1.458-4.952,3.857-4.952
			c2.301,0,3.711,1.819,3.695,5.168H33.675z M39.153,279.281c0-1.818-0.908-3.295-2.658-3.295c-1.718,0-2.625,1.53-2.82,3.295
			H39.153z"/>
		<path d="M43.104,284.593h-0.972v-9.327h0.972v1.747h0.033c0.535-1.495,1.329-1.999,2.738-1.999v1.17
			c-2.188-0.054-2.771,1.747-2.771,3.835V284.593z"/>
		<path d="M47.413,284.593v-12.964h0.972v8.066l4.116-4.429h1.329l-3.144,3.367l3.516,5.96h-1.085l-3.144-5.204l-1.588,1.674v3.529
			H47.413z"/>
	</g>
	<g>
		<path d="M25.122,326.661v-12.964h4.213c2.739,0,3.824,1.314,3.824,3.259c0,1.801-0.924,2.611-1.863,2.791v0.036
			c1.604,0.27,2.398,1.512,2.398,3.223c0,2.701-1.588,3.655-3.808,3.655H25.122z M26.224,319.423h2.787
			c2.301,0,3.046-0.9,3.046-2.467c0-1.62-0.875-2.214-3.29-2.214h-2.544V319.423z M26.224,325.617h2.803
			c2.431,0,3.565-0.36,3.565-2.611c0-2.143-1.361-2.539-3.436-2.539h-2.933V325.617z"/>
		<path d="M41.469,317.335h0.973v9.327h-0.973v-1.296c-0.519,0.648-1.231,1.548-2.706,1.548c-2.236,0-2.981-1.494-2.981-3.439v-6.14
			h0.972v6.122c0,1.603,0.632,2.485,2.155,2.485c1.604,0,2.56-1.477,2.56-3.529V317.335z"/>
		<path d="M43.946,318.234v-0.9h1.248v-1.477c0-1.477,0.486-2.413,1.783-2.413c0.292,0,0.551,0.018,0.81,0.072v0.99
			c-0.194-0.054-0.405-0.09-0.583-0.09c-1.004,0-1.037,0.918-1.037,1.765v1.152h1.621v0.9h-1.621v8.427h-0.972v-8.427H43.946z"/>
		<path d="M48.449,318.234v-0.9h1.248v-1.477c0-1.477,0.486-2.413,1.783-2.413c0.292,0,0.551,0.018,0.81,0.072v0.99
			c-0.194-0.054-0.405-0.09-0.583-0.09c-1.004,0-1.037,0.918-1.037,1.765v1.152h1.621v0.9h-1.621v8.427h-0.972v-8.427H48.449z"/>
		<path d="M54.395,322.25c-0.016,2.017,0.956,3.691,2.82,3.691c1.264,0,2.252-0.774,2.544-2.143h1.085
			c-0.486,1.765-1.491,3.115-3.63,3.115c-2.69,0-3.857-2.125-3.857-4.879c0-2.719,1.458-4.952,3.857-4.952
			c2.301,0,3.711,1.819,3.695,5.168H54.395z M59.872,321.35c0-1.818-0.908-3.295-2.658-3.295c-1.718,0-2.625,1.53-2.82,3.295H59.872
			z"/>
		<path d="M63.823,326.661h-0.972v-9.327h0.972v1.747h0.033c0.535-1.495,1.329-1.999,2.738-1.999v1.17
			c-2.188-0.054-2.771,1.747-2.771,3.835V326.661z"/>
		<path d="M68.295,326.661v-12.964h1.685l3.824,11.434h0.033l3.759-11.434h1.669v12.964h-1.102v-11.56H78.13l-3.824,11.56h-1.037
			l-3.84-11.56h-0.033v11.56H68.295z"/>
		<path d="M81.141,321.998c0-2.719,1.296-4.916,3.889-4.916c2.625,0,3.889,2.179,3.889,4.916c0,2.953-1.54,4.916-3.889,4.916
			C82.891,326.877,81.141,325.257,81.141,321.998z M85.03,318.055c-2.042,0-2.852,1.926-2.852,3.943
			c0,2.323,0.989,3.943,2.852,3.943c2.042,0,2.852-1.945,2.852-3.943C87.866,319.801,87.088,318.055,85.03,318.055z"/>
		<path d="M97.181,313.697h0.973v12.964h-0.973v-1.639h-0.032c-0.567,1.225-1.847,1.891-2.917,1.891
			c-2.706,0-3.792-2.143-3.792-4.897c0-2.611,1.183-4.934,3.744-4.934c1.183,0,2.382,0.612,2.998,1.747V313.697z M94.345,318.055
			c-2.01,0-2.949,1.891-2.869,4.231c0.017,2.341,1.232,3.655,2.869,3.655c1.831,0,2.835-1.729,2.835-3.979
			C97.181,319.855,96.111,318.055,94.345,318.055z"/>
		<path d="M101.196,322.25c-0.016,2.017,0.956,3.691,2.82,3.691c1.264,0,2.252-0.774,2.544-2.143h1.085
			c-0.486,1.765-1.491,3.115-3.63,3.115c-2.69,0-3.857-2.125-3.857-4.879c0-2.719,1.458-4.952,3.857-4.952
			c2.301,0,3.711,1.819,3.695,5.168H101.196z M106.674,321.35c0-1.818-0.908-3.295-2.658-3.295c-1.718,0-2.625,1.53-2.82,3.295
			H106.674z"/>
	</g>
	<g>
		<path d="M24.068,355.495h8.491v1.044h-3.694v11.92h-1.102v-11.92h-3.695V355.495z"/>
		<path d="M35.004,368.459h-0.972v-9.327h0.972v1.747h0.033c0.535-1.495,1.329-1.999,2.738-1.999v1.17
			c-2.188-0.054-2.771,1.747-2.771,3.836V368.459z"/>
		<path d="M43.234,363.021c0.356-0.036,0.956-0.145,1.28-0.307s0.356-0.648,0.356-0.972c0-1.099-0.583-1.891-2.09-1.891
			c-1.345,0-2.269,0.485-2.447,2.106h-0.989c0.146-2.197,1.621-3.079,3.452-3.079c1.702,0,3.046,0.738,3.046,2.898v5.078
			c0,0.846,0.195,1.044,1.021,0.72v0.847c-0.146,0.054-0.486,0.18-0.762,0.18c-0.162,0-0.292-0.018-0.438-0.054
			c-0.648-0.108-0.762-0.738-0.778-1.387c-0.81,1.009-1.912,1.549-3.127,1.549c-1.475,0-2.803-0.883-2.803-2.683
			c0-1.566,0.972-2.521,2.933-2.81L43.234,363.021z M44.871,363.561c-0.826,0.378-1.669,0.45-2.512,0.521
			c-1.475,0.127-2.366,0.721-2.366,1.981c0,1.134,0.891,1.674,1.815,1.674c1.539,0,3.062-0.828,3.062-2.719V363.561z"/>
		<path d="M49.358,368.459h-0.973v-9.327h0.973v1.297c0.778-0.919,1.54-1.549,2.706-1.549c1.021,0,1.961,0.36,2.561,1.332
			c0.405,0.667,0.421,1.369,0.421,2.143v6.104h-0.973v-6.086c0-1.675-0.616-2.521-2.171-2.521c-1.199,0-2.025,0.864-2.333,1.818
			c-0.194,0.594-0.21,1.116-0.21,1.765V368.459z"/>
		<path d="M57.96,365.542c0.308,1.603,1.053,2.196,2.512,2.196c1.41,0,2.074-0.828,2.074-1.729c0-2.7-5.38-0.792-5.38-4.465
			c0-1.549,1.085-2.665,2.949-2.665c1.815,0,2.998,0.828,3.241,2.935h-0.988c-0.178-1.44-1.053-1.962-2.269-1.962
			c-1.231,0-1.896,0.647-1.896,1.603c0,2.538,5.38,0.954,5.38,4.537c0,1.782-1.442,2.719-3.419,2.719
			c-1.977,0-3.111-1.404-3.192-3.169H57.96z"/>
		<path d="M65.59,357.097v-1.603h1.069v1.603H65.59z M65.638,368.459v-9.327h0.972v9.327H65.638z"/>
		<path d="M72.038,368.495c-0.227,0.054-0.648,0.216-1.118,0.216c-0.956,0-1.491-0.468-1.491-1.854v-6.824h-1.183v-0.9h1.183v-2.593
			h0.973v2.593h1.572v0.9h-1.572v6.392c0,0.919,0.032,1.314,0.842,1.314c0.259,0,0.535-0.054,0.794-0.126V368.495z"/>
		<path d="M73.69,357.097v-1.603h1.069v1.603H73.69z M73.738,368.459v-9.327h0.972v9.327H73.738z"/>
		<path d="M76.637,363.794c0-2.719,1.296-4.915,3.889-4.915c2.625,0,3.889,2.179,3.889,4.915c0,2.953-1.54,4.916-3.889,4.916
			C78.387,368.674,76.637,367.054,76.637,363.794z M80.526,359.852c-2.042,0-2.852,1.926-2.852,3.942
			c0,2.323,0.989,3.943,2.852,3.943c2.042,0,2.852-1.944,2.852-3.943C83.362,361.598,82.585,359.852,80.526,359.852z"/>
		<path d="M87.168,368.459h-0.973v-9.327h0.973v1.297c0.778-0.919,1.54-1.549,2.706-1.549c1.021,0,1.961,0.36,2.561,1.332
			c0.405,0.667,0.421,1.369,0.421,2.143v6.104h-0.973v-6.086c0-1.675-0.616-2.521-2.171-2.521c-1.199,0-2.025,0.864-2.333,1.818
			c-0.194,0.594-0.21,1.116-0.21,1.765V368.459z"/>
		<path d="M95.3,368.459v-12.964h1.685l3.824,11.434h0.033l3.759-11.434h1.669v12.964h-1.102v-11.56h-0.033l-3.824,11.56h-1.037
			l-3.84-11.56h-0.033v11.56H95.3z"/>
		<path d="M108.147,363.794c0-2.719,1.296-4.915,3.889-4.915c2.625,0,3.889,2.179,3.889,4.915c0,2.953-1.54,4.916-3.889,4.916
			C109.897,368.674,108.147,367.054,108.147,363.794z M112.036,359.852c-2.042,0-2.852,1.926-2.852,3.942
			c0,2.323,0.989,3.943,2.852,3.943c2.042,0,2.852-1.944,2.852-3.943C114.872,361.598,114.094,359.852,112.036,359.852z"/>
		<path d="M124.187,355.495h0.973v12.964h-0.973v-1.639h-0.032c-0.567,1.225-1.847,1.891-2.917,1.891
			c-2.706,0-3.792-2.143-3.792-4.897c0-2.611,1.183-4.934,3.744-4.934c1.183,0,2.382,0.612,2.998,1.746V355.495z M121.351,359.852
			c-2.01,0-2.949,1.891-2.869,4.23c0.017,2.341,1.232,3.655,2.869,3.655c1.831,0,2.835-1.729,2.835-3.979
			C124.187,361.652,123.117,359.852,121.351,359.852z"/>
		<path d="M128.202,364.047c-0.016,2.017,0.956,3.69,2.82,3.69c1.264,0,2.252-0.774,2.544-2.143h1.085
			c-0.486,1.765-1.491,3.115-3.63,3.115c-2.69,0-3.857-2.125-3.857-4.88c0-2.719,1.459-4.951,3.857-4.951
			c2.301,0,3.711,1.818,3.695,5.168H128.202z M133.68,363.147c0-1.818-0.908-3.295-2.658-3.295c-1.718,0-2.625,1.53-2.82,3.295
			H133.68z"/>
	</g>
	<g>
		<path d="M24.068,397.561h8.491v1.044h-3.694v11.92h-1.102v-11.92h-3.695V397.561z"/>
		<path d="M35.004,410.525h-0.972v-9.327h0.972v1.747h0.033c0.535-1.495,1.329-1.999,2.738-1.999v1.17
			c-2.188-0.054-2.771,1.747-2.771,3.836V410.525z"/>
		<path d="M43.234,405.087c0.356-0.036,0.956-0.145,1.28-0.307s0.356-0.648,0.356-0.972c0-1.099-0.583-1.891-2.09-1.891
			c-1.345,0-2.269,0.485-2.447,2.106h-0.989c0.146-2.197,1.621-3.079,3.452-3.079c1.702,0,3.046,0.738,3.046,2.898v5.078
			c0,0.846,0.195,1.044,1.021,0.72v0.847c-0.146,0.054-0.486,0.18-0.762,0.18c-0.162,0-0.292-0.018-0.438-0.054
			c-0.648-0.108-0.762-0.738-0.778-1.387c-0.81,1.009-1.912,1.549-3.127,1.549c-1.475,0-2.803-0.883-2.803-2.683
			c0-1.566,0.972-2.521,2.933-2.81L43.234,405.087z M44.871,405.627c-0.826,0.378-1.669,0.45-2.512,0.521
			c-1.475,0.127-2.366,0.721-2.366,1.981c0,1.134,0.891,1.674,1.815,1.674c1.539,0,3.062-0.828,3.062-2.719V405.627z"/>
		<path d="M49.358,410.525h-0.973v-9.327h0.973v1.297c0.778-0.919,1.54-1.549,2.706-1.549c1.021,0,1.961,0.36,2.561,1.332
			c0.405,0.667,0.421,1.369,0.421,2.143v6.104h-0.973v-6.086c0-1.675-0.616-2.521-2.171-2.521c-1.199,0-2.025,0.864-2.333,1.818
			c-0.194,0.594-0.21,1.116-0.21,1.765V410.525z"/>
		<path d="M57.96,407.608c0.308,1.603,1.053,2.196,2.512,2.196c1.41,0,2.074-0.828,2.074-1.729c0-2.7-5.38-0.792-5.38-4.465
			c0-1.549,1.085-2.665,2.949-2.665c1.815,0,2.998,0.828,3.241,2.935h-0.988c-0.178-1.44-1.053-1.962-2.269-1.962
			c-1.231,0-1.896,0.647-1.896,1.603c0,2.538,5.38,0.954,5.38,4.537c0,1.782-1.442,2.719-3.419,2.719
			c-1.977,0-3.111-1.404-3.192-3.169H57.96z"/>
		<path d="M65.59,399.164v-1.603h1.069v1.603H65.59z M65.638,410.525v-9.327h0.972v9.327H65.638z"/>
		<path d="M72.038,410.561c-0.227,0.054-0.648,0.216-1.118,0.216c-0.956,0-1.491-0.468-1.491-1.854v-6.824h-1.183v-0.9h1.183v-2.593
			h0.973v2.593h1.572v0.9h-1.572v6.392c0,0.919,0.032,1.314,0.842,1.314c0.259,0,0.535-0.054,0.794-0.126V410.561z"/>
		<path d="M73.69,399.164v-1.603h1.069v1.603H73.69z M73.738,410.525v-9.327h0.972v9.327H73.738z"/>
		<path d="M76.637,405.861c0-2.719,1.296-4.915,3.889-4.915c2.625,0,3.889,2.179,3.889,4.915c0,2.953-1.54,4.916-3.889,4.916
			C78.387,410.741,76.637,409.121,76.637,405.861z M80.526,401.918c-2.042,0-2.852,1.926-2.852,3.942
			c0,2.323,0.989,3.943,2.852,3.943c2.042,0,2.852-1.944,2.852-3.943C83.362,403.665,82.585,401.918,80.526,401.918z"/>
		<path d="M87.168,410.525h-0.973v-9.327h0.973v1.297c0.778-0.919,1.54-1.549,2.706-1.549c1.021,0,1.961,0.36,2.561,1.332
			c0.405,0.667,0.421,1.369,0.421,2.143v6.104h-0.973v-6.086c0-1.675-0.616-2.521-2.171-2.521c-1.199,0-2.025,0.864-2.333,1.818
			c-0.194,0.594-0.21,1.116-0.21,1.765V410.525z"/>
		<path d="M95.3,410.525v-12.964h4.262c3.03,0,3.808,1.674,3.808,3.619c0,2.898-2.317,3.619-4.473,3.619h-2.496v5.726H95.3z
			 M98.93,403.754c2.058,0,3.338-0.468,3.338-2.664c0-1.621-0.94-2.485-3.014-2.485h-2.852v5.149H98.93z"/>
		<path d="M108.958,405.087c0.356-0.036,0.956-0.145,1.28-0.307s0.356-0.648,0.356-0.972c0-1.099-0.583-1.891-2.09-1.891
			c-1.345,0-2.269,0.485-2.447,2.106h-0.989c0.146-2.197,1.621-3.079,3.452-3.079c1.702,0,3.046,0.738,3.046,2.898v5.078
			c0,0.846,0.195,1.044,1.021,0.72v0.847c-0.146,0.054-0.486,0.18-0.762,0.18c-0.162,0-0.292-0.018-0.438-0.054
			c-0.648-0.108-0.762-0.738-0.778-1.387c-0.81,1.009-1.912,1.549-3.127,1.549c-1.475,0-2.803-0.883-2.803-2.683
			c0-1.566,0.972-2.521,2.933-2.81L108.958,405.087z M110.594,405.627c-0.827,0.378-1.669,0.45-2.512,0.521
			c-1.475,0.127-2.366,0.721-2.366,1.981c0,1.134,0.891,1.674,1.815,1.674c1.539,0,3.062-0.828,3.062-2.719V405.627z"/>
		<path d="M115.129,410.525h-0.972v-9.327h0.972v1.747h0.033c0.535-1.495,1.329-1.999,2.738-1.999v1.17
			c-2.188-0.054-2.771,1.747-2.771,3.836V410.525z"/>
		<path d="M123.359,405.087c0.356-0.036,0.956-0.145,1.28-0.307s0.356-0.648,0.356-0.972c0-1.099-0.583-1.891-2.09-1.891
			c-1.345,0-2.269,0.485-2.447,2.106h-0.989c0.146-2.197,1.621-3.079,3.452-3.079c1.702,0,3.046,0.738,3.046,2.898v5.078
			c0,0.846,0.195,1.044,1.021,0.72v0.847c-0.146,0.054-0.486,0.18-0.762,0.18c-0.162,0-0.292-0.018-0.438-0.054
			c-0.648-0.108-0.762-0.738-0.778-1.387c-0.81,1.009-1.912,1.549-3.127,1.549c-1.475,0-2.803-0.883-2.803-2.683
			c0-1.566,0.972-2.521,2.933-2.81L123.359,405.087z M124.996,405.627c-0.826,0.378-1.669,0.45-2.512,0.521
			c-1.475,0.127-2.366,0.721-2.366,1.981c0,1.134,0.891,1.674,1.815,1.674c1.539,0,3.062-0.828,3.062-2.719V405.627z"/>
		<path d="M129.353,410.525h-0.972v-9.327h0.972v1.404h0.033c0.502-1.062,1.507-1.656,2.593-1.656c1.556,0,2.106,0.811,2.463,1.801
			c0.551-1.207,1.54-1.801,2.739-1.801c2.285,0,2.609,1.818,2.609,3.691v5.888h-0.972v-6.446c0-1.332-0.421-2.16-1.799-2.16
			c-0.713,0-1.41,0.342-1.896,1.062c-0.421,0.612-0.551,1.747-0.551,2.521v5.023h-0.973v-6.446c0-1.332-0.421-2.16-1.798-2.16
			c-0.713,0-1.41,0.342-1.896,1.062c-0.421,0.612-0.551,1.747-0.551,2.521V410.525z"/>
		<path d="M142.604,406.114c-0.016,2.017,0.957,3.69,2.82,3.69c1.264,0,2.252-0.774,2.544-2.143h1.086
			c-0.486,1.765-1.491,3.115-3.63,3.115c-2.69,0-3.857-2.125-3.857-4.88c0-2.719,1.458-4.951,3.857-4.951
			c2.301,0,3.711,1.818,3.695,5.168H142.604z M148.082,405.213c0-1.818-0.908-3.295-2.658-3.295c-1.718,0-2.625,1.53-2.82,3.295
			H148.082z"/>
		<path d="M153.961,410.561c-0.227,0.054-0.648,0.216-1.118,0.216c-0.956,0-1.491-0.468-1.491-1.854v-6.824h-1.182v-0.9h1.182
			v-2.593h0.973v2.593h1.572v0.9h-1.572v6.392c0,0.919,0.032,1.314,0.843,1.314c0.259,0,0.535-0.054,0.794-0.126V410.561z"/>
		<path d="M156.114,406.114c-0.016,2.017,0.957,3.69,2.82,3.69c1.264,0,2.252-0.774,2.544-2.143h1.086
			c-0.486,1.765-1.491,3.115-3.63,3.115c-2.69,0-3.857-2.125-3.857-4.88c0-2.719,1.459-4.951,3.857-4.951
			c2.301,0,3.711,1.818,3.694,5.168H156.114z M161.592,405.213c0-1.818-0.907-3.295-2.657-3.295c-1.718,0-2.625,1.53-2.82,3.295
			H161.592z"/>
		<path d="M165.543,410.525h-0.972v-9.327h0.972v1.747h0.033c0.534-1.495,1.328-1.999,2.738-1.999v1.17
			c-2.188-0.054-2.771,1.747-2.771,3.836V410.525z"/>
	</g>
	<g>
		<path d="M219.143,39.028V26.064h3.986c1.297,0,2.512,0.09,3.598,0.972c1.54,1.243,1.944,3.763,1.944,5.492
			c0,1.71-0.34,3.619-1.409,4.916c-1.069,1.333-2.593,1.584-4.133,1.584H219.143z M220.245,37.983h2.642
			c0.988,0,1.847-0.072,2.738-0.594c1.556-0.882,1.944-3.097,1.944-4.861c0-1.891-0.373-3.961-2.01-4.934
			c-0.696-0.414-1.701-0.486-2.673-0.486h-2.642V37.983z"/>
		<path d="M230.143,34.364c0-2.719,1.296-4.916,3.889-4.916c2.626,0,3.89,2.179,3.89,4.916c0,2.953-1.54,4.916-3.89,4.916
			C231.893,39.244,230.143,37.624,230.143,34.364z M234.031,30.421c-2.041,0-2.852,1.926-2.852,3.943
			c0,2.323,0.988,3.943,2.852,3.943c2.042,0,2.853-1.945,2.853-3.943C236.867,32.168,236.09,30.421,234.031,30.421z"/>
		<path d="M240.673,39.028h-0.972v-9.327h0.972v1.296c0.778-0.918,1.54-1.549,2.706-1.549c1.021,0,1.961,0.36,2.561,1.333
			c0.405,0.667,0.422,1.369,0.422,2.143v6.104h-0.973v-6.086c0-1.674-0.616-2.521-2.172-2.521c-1.199,0-2.025,0.864-2.333,1.818
			c-0.194,0.594-0.211,1.116-0.211,1.765V39.028z"/>
		<path d="M249.308,34.617c-0.017,2.017,0.956,3.691,2.819,3.691c1.265,0,2.253-0.774,2.545-2.143h1.085
			c-0.486,1.765-1.49,3.115-3.63,3.115c-2.689,0-3.856-2.125-3.856-4.879c0-2.719,1.458-4.952,3.856-4.952
			c2.302,0,3.711,1.819,3.695,5.168H249.308z M254.785,33.716c0-1.818-0.908-3.295-2.658-3.295c-1.718,0-2.625,1.53-2.819,3.295
			H254.785z"/>
	</g>
	<g>
		<path d="M221.849,74.623V61.659h4.213c2.739,0,3.824,1.314,3.824,3.259c0,1.801-0.923,2.611-1.863,2.791v0.036
			c1.604,0.27,2.398,1.512,2.398,3.223c0,2.701-1.588,3.655-3.809,3.655H221.849z M222.95,67.385h2.787
			c2.302,0,3.047-0.9,3.047-2.467c0-1.62-0.875-2.214-3.29-2.214h-2.544V67.385z M222.95,73.579h2.804
			c2.431,0,3.565-0.36,3.565-2.611c0-2.143-1.361-2.539-3.436-2.539h-2.934V73.579z"/>
		<path d="M238.195,65.296h0.973v9.327h-0.973v-1.296c-0.519,0.648-1.231,1.548-2.706,1.548c-2.236,0-2.981-1.494-2.981-3.439v-6.14
			h0.973v6.122c0,1.603,0.632,2.485,2.155,2.485c1.604,0,2.56-1.477,2.56-3.529V65.296z"/>
		<path d="M242.082,71.706c0.309,1.603,1.054,2.197,2.512,2.197c1.41,0,2.074-0.828,2.074-1.729c0-2.701-5.38-0.792-5.38-4.465
			c0-1.548,1.086-2.665,2.949-2.665c1.815,0,2.998,0.829,3.241,2.935h-0.988c-0.179-1.44-1.054-1.962-2.269-1.962
			c-1.231,0-1.896,0.648-1.896,1.603c0,2.539,5.38,0.954,5.38,4.537c0,1.783-1.442,2.719-3.419,2.719s-3.111-1.404-3.192-3.169
			H242.082z"/>
		<path d="M249.551,77.162c0.259,0.054,0.534,0.108,0.81,0.108c1.103,0,1.265-1.765,1.637-2.575l-3.257-9.399h1.086l2.689,8.012
			l2.69-8.012h1.053l-3.127,9.201c-0.794,2.341-1.312,3.799-2.658,3.799c-0.34,0-0.664-0.054-0.923-0.126V77.162z"/>
	</g>
	<g>
		<path d="M211.772,116.691l4.586-12.964h1.248l4.473,12.964h-1.135l-1.345-4.069h-5.315l-1.377,4.069H211.772z M214.656,111.578
			h4.569l-2.284-6.806L214.656,111.578z"/>
		<path d="M229.447,110.299c-0.34-1.386-1.199-2.214-2.495-2.214c-1.993,0-2.819,2.017-2.819,3.961c0,1.963,0.81,3.925,2.819,3.925
			c1.442,0,2.35-0.954,2.576-2.503h1.037c-0.34,2.071-1.507,3.475-3.613,3.475c-2.674,0-3.856-2.143-3.856-4.897
			c0-2.593,1.345-4.934,3.856-4.934c1.929,0,3.192,1.026,3.484,3.187H229.447z"/>
		<path d="M235.457,116.727c-0.227,0.054-0.648,0.216-1.118,0.216c-0.956,0-1.491-0.468-1.491-1.854v-6.824h-1.183v-0.9h1.183
			v-2.593h0.973v2.593h1.572v0.9h-1.572v6.392c0,0.918,0.032,1.314,0.843,1.314c0.259,0,0.535-0.054,0.794-0.126V116.727z"/>
		<path d="M237.109,105.33v-1.603h1.069v1.603H237.109z M237.157,116.691v-9.327h0.972v9.327H237.157z"/>
		<path d="M239.716,107.364h1.054l2.723,7.994l2.722-7.994h1.054l-3.257,9.327h-1.086L239.716,107.364z"/>
		<path d="M249.307,112.28c-0.016,2.017,0.957,3.691,2.82,3.691c1.264,0,2.252-0.774,2.544-2.143h1.086
			c-0.486,1.765-1.491,3.115-3.63,3.115c-2.69,0-3.857-2.125-3.857-4.879c0-2.719,1.459-4.952,3.857-4.952
			c2.301,0,3.711,1.819,3.694,5.168H249.307z M254.784,111.379c0-1.818-0.907-3.295-2.657-3.295c-1.718,0-2.625,1.53-2.82,3.295
			H254.784z"/>
	</g>
	<g>
		<path d="M138.942,149.19c-0.429-2.215-1.592-3.061-3.475-3.061c-2.663,0-3.811,2.683-3.811,5.744c0,2.899,0.903,5.816,3.903,5.816
			c1.897,0,3.076-1.513,3.489-3.565h1.086c-0.49,2.502-1.821,4.609-4.775,4.609c-3.397,0-4.745-3.151-4.745-6.824
			c0-4.952,2.204-6.824,5.127-6.824c2.265,0,3.918,1.422,4.27,4.105H138.942z"/>
		<path d="M141.509,153.727c0-2.719,1.225-4.916,3.673-4.916c2.479,0,3.673,2.179,3.673,4.916c0,2.953-1.454,4.916-3.673,4.916
			C143.162,158.606,141.509,156.986,141.509,153.727z M145.182,149.784c-1.929,0-2.694,1.926-2.694,3.943
			c0,2.323,0.934,3.943,2.694,3.943c1.928,0,2.693-1.945,2.693-3.943C147.86,151.531,147.126,149.784,145.182,149.784z"/>
		<path d="M151.332,158.391h-0.918v-9.327h0.918v1.404h0.03c0.475-1.062,1.423-1.657,2.448-1.657c1.47,0,1.99,0.811,2.327,1.801
			c0.52-1.207,1.453-1.801,2.586-1.801c2.158,0,2.464,1.819,2.464,3.691v5.888h-0.918v-6.446c0-1.333-0.398-2.161-1.699-2.161
			c-0.673,0-1.331,0.342-1.79,1.062c-0.398,0.612-0.521,1.747-0.521,2.521v5.023h-0.918v-6.446c0-1.333-0.398-2.161-1.699-2.161
			c-0.674,0-1.331,0.342-1.791,1.062c-0.397,0.612-0.52,1.747-0.52,2.521V158.391z"/>
		<path d="M164.076,158.391h-0.918v-9.327h0.918v1.404h0.03c0.475-1.062,1.424-1.657,2.449-1.657c1.469,0,1.989,0.811,2.326,1.801
			c0.521-1.207,1.454-1.801,2.587-1.801c2.157,0,2.464,1.819,2.464,3.691v5.888h-0.919v-6.446c0-1.333-0.397-2.161-1.698-2.161
			c-0.674,0-1.332,0.342-1.791,1.062c-0.397,0.612-0.521,1.747-0.521,2.521v5.023h-0.918v-6.446c0-1.333-0.397-2.161-1.698-2.161
			c-0.674,0-1.332,0.342-1.791,1.062c-0.398,0.612-0.521,1.747-0.521,2.521V158.391z"/>
		<path d="M179.668,152.953c0.336-0.036,0.902-0.144,1.209-0.306c0.306-0.162,0.336-0.648,0.336-0.972
			c0-1.099-0.551-1.891-1.974-1.891c-1.271,0-2.143,0.486-2.312,2.106h-0.934c0.138-2.197,1.53-3.079,3.26-3.079
			c1.607,0,2.878,0.738,2.878,2.899v5.078c0,0.846,0.184,1.044,0.964,0.72v0.846c-0.138,0.054-0.459,0.18-0.72,0.18
			c-0.152,0-0.275-0.018-0.413-0.054c-0.612-0.108-0.719-0.738-0.734-1.386c-0.766,1.008-1.806,1.548-2.954,1.548
			c-1.393,0-2.647-0.882-2.647-2.683c0-1.566,0.918-2.521,2.771-2.809L179.668,152.953z M181.213,153.493
			c-0.78,0.378-1.576,0.45-2.372,0.522c-1.393,0.126-2.234,0.72-2.234,1.981c0,1.134,0.842,1.674,1.714,1.674
			c1.454,0,2.893-0.828,2.893-2.719V153.493z"/>
		<path d="M185.45,158.391h-0.918v-9.327h0.918v1.296c0.734-0.918,1.454-1.549,2.556-1.549c0.964,0,1.852,0.36,2.418,1.333
			c0.383,0.667,0.398,1.369,0.398,2.143v6.104h-0.919v-6.086c0-1.674-0.581-2.521-2.051-2.521c-1.132,0-1.913,0.864-2.203,1.818
			c-0.184,0.594-0.199,1.116-0.199,1.765V158.391z"/>
		<path d="M199.16,145.427h0.919v12.964h-0.919v-1.639h-0.03c-0.535,1.225-1.745,1.891-2.755,1.891
			c-2.556,0-3.581-2.143-3.581-4.897c0-2.611,1.117-4.934,3.535-4.934c1.117,0,2.25,0.612,2.831,1.747V145.427z M196.483,149.784
			c-1.898,0-2.785,1.891-2.709,4.231c0.016,2.341,1.163,3.655,2.709,3.655c1.729,0,2.678-1.729,2.678-3.979
			C199.16,151.585,198.151,149.784,196.483,149.784z"/>
		<path d="M201.515,158.391l4.331-12.964h1.179l4.224,12.964h-1.071l-1.271-4.069h-5.02l-1.301,4.069H201.515z M204.238,153.277
			h4.316l-2.158-6.806L204.238,153.277z"/>
		<path d="M213.617,158.391h-0.918v-12.964h0.918v5.131c0.582-1.134,1.714-1.747,2.831-1.747c2.419,0,3.536,2.323,3.536,4.934
			c0,2.755-1.025,4.897-3.582,4.897c-1.01,0-2.219-0.666-2.755-1.891h-0.03V158.391z M216.296,157.67
			c1.546,0,2.693-1.314,2.709-3.655c0.076-2.34-0.812-4.231-2.709-4.231c-1.669,0-2.679,1.8-2.679,3.907
			C213.617,155.942,214.567,157.67,216.296,157.67z"/>
		<path d="M221.42,153.727c0-2.719,1.225-4.916,3.673-4.916c2.479,0,3.673,2.179,3.673,4.916c0,2.953-1.454,4.916-3.673,4.916
			C223.072,158.606,221.42,156.986,221.42,153.727z M225.093,149.784c-1.929,0-2.693,1.926-2.693,3.943
			c0,2.323,0.934,3.943,2.693,3.943c1.929,0,2.693-1.945,2.693-3.943C227.772,151.531,227.036,149.784,225.093,149.784z"/>
		<path d="M231.411,158.391h-0.918v-9.327h0.918v1.747h0.03c0.505-1.495,1.255-1.999,2.587-1.999v1.17
			c-2.066-0.054-2.617,1.747-2.617,3.835V158.391z"/>
		<path d="M238.327,158.427c-0.214,0.054-0.612,0.216-1.056,0.216c-0.903,0-1.408-0.468-1.408-1.854v-6.824h-1.117v-0.9h1.117
			v-2.593h0.918v2.593h1.484v0.9h-1.484v6.392c0,0.918,0.03,1.314,0.796,1.314c0.245,0,0.505-0.054,0.75-0.126V158.427z"/>
		<path d="M240.361,153.98c-0.016,2.017,0.903,3.691,2.663,3.691c1.193,0,2.127-0.774,2.402-2.143h1.025
			c-0.459,1.765-1.407,3.115-3.428,3.115c-2.541,0-3.643-2.125-3.643-4.879c0-2.719,1.377-4.952,3.643-4.952
			c2.173,0,3.505,1.819,3.489,5.168H240.361z M245.534,153.079c0-1.818-0.857-3.295-2.51-3.295c-1.622,0-2.479,1.53-2.663,3.295
			H245.534z"/>
		<path d="M254.424,145.427h0.918v12.964h-0.918v-1.639h-0.03c-0.536,1.225-1.745,1.891-2.755,1.891
			c-2.557,0-3.582-2.143-3.582-4.897c0-2.611,1.117-4.934,3.536-4.934c1.117,0,2.249,0.612,2.831,1.747V145.427z M251.745,149.784
			c-1.897,0-2.785,1.891-2.709,4.231c0.016,2.341,1.163,3.655,2.709,3.655c1.729,0,2.679-1.729,2.679-3.979
			C254.424,151.585,253.414,149.784,251.745,149.784z"/>
	</g>
	<g>
		<path d="M222.772,200.09v-12.964h7.763v1.044h-6.66v4.681h6.012v1.044h-6.012v5.149h6.822v1.044H222.772z"/>
		<path d="M233.545,200.09h-0.973v-9.327h0.973v1.747h0.032c0.535-1.495,1.329-1.999,2.738-1.999v1.17
			c-2.188-0.054-2.771,1.747-2.771,3.835V200.09z"/>
		<path d="M238.94,200.09h-0.973v-9.327h0.973v1.747h0.032c0.535-1.495,1.329-1.999,2.738-1.999v1.17
			c-2.188-0.054-2.771,1.747-2.771,3.835V200.09z"/>
		<path d="M242.762,195.427c0-2.719,1.297-4.916,3.89-4.916c2.625,0,3.889,2.179,3.889,4.916c0,2.953-1.539,4.916-3.889,4.916
			C244.512,200.306,242.762,198.686,242.762,195.427z M246.651,191.484c-2.042,0-2.853,1.926-2.853,3.943
			c0,2.323,0.989,3.943,2.853,3.943c2.042,0,2.852-1.945,2.852-3.943C249.487,193.23,248.709,191.484,246.651,191.484z"/>
		<path d="M253.341,200.09h-0.972v-9.327h0.972v1.747h0.033c0.534-1.495,1.328-1.999,2.738-1.999v1.17
			c-2.188-0.054-2.771,1.747-2.771,3.835V200.09z"/>
	</g>
	<g>
		<path d="M206.572,242.525v-12.964h7.762v1.044h-6.66v4.681h6.013v1.044h-6.013v5.149h6.822v1.044H206.572z"/>
		<path d="M217.345,242.525h-0.972v-9.327h0.972v1.747h0.033c0.534-1.495,1.328-1.999,2.738-1.999v1.17
			c-2.188-0.054-2.771,1.747-2.771,3.835V242.525z"/>
		<path d="M222.739,242.525h-0.972v-9.327h0.972v1.747h0.033c0.534-1.495,1.328-1.999,2.738-1.999v1.17
			c-2.188-0.054-2.771,1.747-2.771,3.835V242.525z"/>
		<path d="M226.563,237.862c0-2.719,1.296-4.916,3.889-4.916c2.626,0,3.89,2.179,3.89,4.916c0,2.953-1.54,4.916-3.89,4.916
			C228.313,242.741,226.563,241.121,226.563,237.862z M230.451,233.919c-2.041,0-2.852,1.926-2.852,3.943
			c0,2.323,0.988,3.943,2.852,3.943c2.042,0,2.853-1.945,2.853-3.943C233.287,235.666,232.51,233.919,230.451,233.919z"/>
		<path d="M237.142,242.525h-0.973v-9.327h0.973v1.747h0.032c0.535-1.495,1.329-1.999,2.738-1.999v1.17
			c-2.188-0.054-2.771,1.747-2.771,3.835V242.525z"/>
		<path d="M242.05,242.525v-12.964h1.102v12.964H242.05z"/>
		<path d="M246.164,242.525v-12.964h3.986c1.297,0,2.512,0.09,3.598,0.972c1.54,1.243,1.944,3.763,1.944,5.492
			c0,1.71-0.34,3.619-1.409,4.916c-1.069,1.333-2.593,1.584-4.133,1.584H246.164z M247.267,241.481h2.642
			c0.988,0,1.847-0.072,2.738-0.594c1.556-0.882,1.944-3.097,1.944-4.861c0-1.891-0.373-3.961-2.01-4.934
			c-0.696-0.414-1.701-0.486-2.673-0.486h-2.642V241.481z"/>
	</g>
	<g>
		<path class="st3" d="M53.007,18.264V5.3h1.685l3.824,11.434h0.033L62.309,5.3h1.669v12.964h-1.102V6.704h-0.033l-3.824,11.56
			h-1.037l-3.84-11.56h-0.033v11.56H53.007z"/>
		<path class="st3" d="M74.831,9.063c-0.454-2.215-1.686-3.061-3.679-3.061c-2.819,0-4.035,2.683-4.035,5.744
			c0,2.899,0.956,5.816,4.132,5.816c2.009,0,3.257-1.513,3.694-3.565h1.151c-0.519,2.502-1.929,4.609-5.056,4.609
			c-3.598,0-5.023-3.151-5.023-6.824c0-4.952,2.333-6.824,5.429-6.824c2.398,0,4.148,1.422,4.521,4.105H74.831z"/>
		<path class="st3" d="M85.037,19.614v0.9h-8.103v-0.9H85.037z"/>
		<path class="st3" d="M86.298,18.264V5.3h1.685l3.824,11.434h0.033L95.6,5.3h1.669v12.964h-1.102V6.704h-0.033l-3.824,11.56h-1.037
			l-3.84-11.56H87.4v11.56H86.298z"/>
		<path class="st3" d="M99.145,13.6c0-2.719,1.296-4.916,3.889-4.916c2.625,0,3.889,2.179,3.889,4.916
			c0,2.953-1.54,4.916-3.889,4.916C100.895,18.48,99.145,16.859,99.145,13.6z M103.034,9.657c-2.042,0-2.852,1.926-2.852,3.943
			c0,2.323,0.989,3.943,2.852,3.943c2.042,0,2.852-1.945,2.852-3.943C105.87,11.404,105.092,9.657,103.034,9.657z"/>
		<path class="st3" d="M107.812,8.937h1.053l2.723,7.994l2.722-7.994h1.054l-3.257,9.327h-1.086L107.812,8.937z"/>
		<path class="st3" d="M117.402,13.853c-0.016,2.017,0.956,3.691,2.82,3.691c1.264,0,2.252-0.774,2.544-2.143h1.085
			c-0.486,1.765-1.491,3.115-3.63,3.115c-2.69,0-3.857-2.125-3.857-4.879c0-2.719,1.458-4.952,3.857-4.952
			c2.301,0,3.711,1.819,3.695,5.168H117.402z M122.88,12.952c0-1.818-0.908-3.295-2.658-3.295c-1.718,0-2.625,1.53-2.82,3.295
			H122.88z"/>
		<path class="st3" d="M125.956,18.264V5.3h1.102v11.919h6.255v1.044H125.956z"/>
		<path class="st3" d="M134.915,6.902V5.3h1.069v1.603H134.915z M134.964,18.264V8.937h0.972v9.327H134.964z"/>
		<path class="st3" d="M139.386,18.264h-0.972V8.937h0.972v1.296c0.778-0.918,1.54-1.549,2.706-1.549
			c1.021,0,1.961,0.36,2.561,1.333c0.405,0.667,0.421,1.369,0.421,2.143v6.104h-0.973v-6.086c0-1.674-0.616-2.521-2.171-2.521
			c-1.199,0-2.025,0.864-2.333,1.818c-0.194,0.594-0.21,1.116-0.21,1.765V18.264z"/>
		<path class="st3" d="M148.021,13.853c-0.016,2.017,0.956,3.691,2.82,3.691c1.264,0,2.252-0.774,2.544-2.143h1.086
			c-0.486,1.765-1.491,3.115-3.63,3.115c-2.69,0-3.857-2.125-3.857-4.879c0-2.719,1.458-4.952,3.857-4.952
			c2.301,0,3.711,1.819,3.694,5.168H148.021z M153.498,12.952c0-1.818-0.907-3.295-2.657-3.295c-1.718,0-2.625,1.53-2.82,3.295
			H153.498z"/>
		<path class="st3" d="M160.285,12.826c0.356-0.036,0.956-0.144,1.28-0.306s0.356-0.648,0.356-0.972c0-1.099-0.583-1.891-2.09-1.891
			c-1.346,0-2.269,0.486-2.447,2.106h-0.988c0.146-2.197,1.62-3.079,3.451-3.079c1.702,0,3.047,0.738,3.047,2.899v5.078
			c0,0.846,0.194,1.044,1.021,0.72v0.846c-0.146,0.054-0.486,0.18-0.762,0.18c-0.162,0-0.291-0.018-0.438-0.054
			c-0.647-0.108-0.762-0.738-0.777-1.386c-0.811,1.008-1.912,1.548-3.128,1.548c-1.475,0-2.803-0.882-2.803-2.683
			c0-1.566,0.972-2.521,2.933-2.809L160.285,12.826z M161.922,13.366c-0.826,0.378-1.669,0.45-2.512,0.522
			c-1.475,0.126-2.365,0.72-2.365,1.981c0,1.134,0.891,1.674,1.814,1.674c1.539,0,3.062-0.828,3.062-2.719V13.366z"/>
		<path class="st3" d="M166.457,18.264h-0.973V8.937h0.973v1.747h0.032c0.535-1.495,1.329-1.999,2.738-1.999v1.17
			c-2.188-0.054-2.771,1.747-2.771,3.835V18.264z"/>
		<path class="st3" d="M172.063,12.376v5.888h-1.103V5.3h4.57c2.56,0,3.97,1.008,3.97,3.403c0,1.639-0.551,2.503-1.896,3.169
			c1.377,0.522,1.458,2.143,1.49,3.511c0.049,1.962,0.194,2.503,0.486,2.755v0.126h-1.215c-0.454-0.882-0.341-3.313-0.519-4.303
			c-0.26-1.404-1.216-1.584-2.317-1.584H172.063z M175.497,11.332c1.637,0,2.901-0.756,2.901-2.575c0-1.944-1.361-2.413-2.836-2.413
			h-3.5v4.987H175.497z"/>
		<path class="st3" d="M182.235,13.853c-0.017,2.017,0.956,3.691,2.819,3.691c1.265,0,2.253-0.774,2.544-2.143h1.086
			c-0.486,1.765-1.49,3.115-3.63,3.115c-2.689,0-3.856-2.125-3.856-4.879c0-2.719,1.458-4.952,3.856-4.952
			c2.302,0,3.711,1.819,3.695,5.168H182.235z M187.713,12.952c0-1.818-0.908-3.295-2.658-3.295c-1.718,0-2.625,1.53-2.819,3.295
			H187.713z"/>
		<path class="st3" d="M190.789,18.264V5.3h0.972v12.964H190.789z"/>
		<path class="st3" d="M198.096,12.826c0.356-0.036,0.956-0.144,1.28-0.306s0.356-0.648,0.356-0.972c0-1.099-0.583-1.891-2.09-1.891
			c-1.346,0-2.269,0.486-2.447,2.106h-0.988c0.146-2.197,1.62-3.079,3.451-3.079c1.702,0,3.047,0.738,3.047,2.899v5.078
			c0,0.846,0.194,1.044,1.021,0.72v0.846c-0.146,0.054-0.486,0.18-0.762,0.18c-0.162,0-0.291-0.018-0.438-0.054
			c-0.647-0.108-0.762-0.738-0.777-1.386c-0.811,1.008-1.912,1.548-3.128,1.548c-1.475,0-2.803-0.882-2.803-2.683
			c0-1.566,0.972-2.521,2.933-2.809L198.096,12.826z M199.733,13.366c-0.826,0.378-1.669,0.45-2.512,0.522
			c-1.475,0.126-2.365,0.72-2.365,1.981c0,1.134,0.891,1.674,1.814,1.674c1.539,0,3.062-0.828,3.062-2.719V13.366z"/>
		<path class="st3" d="M206.196,18.3c-0.228,0.054-0.648,0.216-1.118,0.216c-0.956,0-1.491-0.468-1.491-1.854V9.837h-1.183v-0.9
			h1.183V6.344h0.973v2.593h1.571v0.9h-1.571v6.392c0,0.918,0.032,1.314,0.842,1.314c0.26,0,0.535-0.054,0.795-0.126V18.3z"/>
		<path class="st3" d="M207.848,6.902V5.3h1.069v1.603H207.848z M207.896,18.264V8.937h0.973v9.327H207.896z"/>
		<path class="st3" d="M210.455,8.937h1.053l2.723,7.994l2.723-7.994h1.054l-3.258,9.327h-1.086L210.455,8.937z"/>
		<path class="st3" d="M220.046,13.853c-0.017,2.017,0.956,3.691,2.819,3.691c1.265,0,2.253-0.774,2.544-2.143h1.086
			c-0.486,1.765-1.49,3.115-3.63,3.115c-2.689,0-3.856-2.125-3.856-4.879c0-2.719,1.458-4.952,3.856-4.952
			c2.302,0,3.711,1.819,3.695,5.168H220.046z M225.524,12.952c0-1.818-0.908-3.295-2.658-3.295c-1.718,0-2.625,1.53-2.819,3.295
			H225.524z"/>
	</g>
	<g>
	</g>
	<g>
	</g>
	<g>
	</g>
	<g>
	</g>
	<g>
	</g>
	<g>
	</g>
	<g>
	</g>
	<g>
	</g>
	<g>
	</g>
	<g>
	</g>
	<g>
	</g>
	<g>
	</g>
	<g>
	</g>
	<g>
	</g>
	<g>
	</g>
</g>
</svg>
