<?xml version="1.0" encoding="utf-8"?>
<!-- Generator: Adobe Illustrator 28.2.0, SVG Export Plug-In . SVG Version: 6.00 Build 0)  -->
<svg version="1.1" xmlns="http://www.w3.org/2000/svg" xmlns:xlink="http://www.w3.org/1999/xlink" x="0px" y="0px"
	 width="281.185px" height="221.217px" viewBox="0 0 281.185 221.217" style="enable-background:new 0 0 281.185 221.217;"
	 xml:space="preserve">
<style type="text/css">
	.st0{fill:#F0F0F0;stroke:#828282;stroke-miterlimit:10;}
	.st1{fill:none;stroke:#828282;stroke-miterlimit:10;}
	.st2{fill:#828282;}
	.st3{fill:#FFFFFF;}
</style>
<g id="レイヤー_2">
	<rect x="20.323" y="0.5" class="st0" width="240.539" height="220.217"/>
	<line class="st1" x1="0" y1="25.814" x2="20.323" y2="25.814"/>
	<line class="st1" x1="0" y1="25.814" x2="20.323" y2="25.814"/>
	<line class="st1" x1="260.862" y1="25.814" x2="281.185" y2="25.814"/>
	<rect x="20.323" y="0.5" class="st2" width="240.539" height="21"/>
</g>
<g id="レイヤー_3">
	<g>
		<path d="M25.121,39.028V26.064h7.762v1.044h-6.66v4.681h6.012v1.044h-6.012v5.149h6.822v1.044H25.121z"/>
		<path d="M37.79,34.995l-2.609,4.033h-1.183l3.225-4.825l-2.966-4.501h1.199l2.317,3.709l2.382-3.709h1.231l-3.03,4.501
			l3.144,4.825h-1.167L37.79,34.995z"/>
		<path d="M48.921,32.636c-0.34-1.386-1.199-2.214-2.496-2.214c-1.993,0-2.819,2.017-2.819,3.961c0,1.963,0.81,3.925,2.819,3.925
			c1.442,0,2.35-0.954,2.577-2.503h1.037c-0.34,2.071-1.507,3.475-3.614,3.475c-2.673,0-3.856-2.143-3.856-4.897
			c0-2.593,1.345-4.934,3.856-4.934c1.929,0,3.192,1.026,3.484,3.187H48.921z"/>
		<path d="M57.669,29.701h0.973v9.327h-0.973v-1.296c-0.519,0.648-1.231,1.548-2.706,1.548c-2.236,0-2.981-1.494-2.981-3.439v-6.14
			h0.972v6.122c0,1.603,0.632,2.485,2.155,2.485c1.604,0,2.56-1.477,2.56-3.529V29.701z"/>
		<path d="M63.938,39.064c-0.227,0.054-0.648,0.216-1.118,0.216c-0.956,0-1.491-0.468-1.491-1.854v-6.824h-1.183v-0.9h1.183v-2.593
			h0.973v2.593h1.572v0.9h-1.572v6.392c0,0.918,0.032,1.314,0.842,1.314c0.259,0,0.535-0.054,0.794-0.126V39.064z"/>
		<path d="M66.091,34.617c-0.016,2.017,0.957,3.691,2.82,3.691c1.264,0,2.252-0.774,2.544-2.143h1.086
			c-0.486,1.765-1.491,3.115-3.63,3.115c-2.69,0-3.857-2.125-3.857-4.879c0-2.719,1.458-4.952,3.857-4.952
			c2.301,0,3.711,1.819,3.695,5.168H66.091z M71.569,33.716c0-1.818-0.908-3.295-2.658-3.295c-1.718,0-2.625,1.53-2.82,3.295H71.569
			z"/>
	</g>
	<g>
		<path d="M24.052,73.711l4.586-12.964h1.248l4.473,12.964h-1.134l-1.345-4.069h-5.315l-1.377,4.069H24.052z M26.936,68.598h4.57
			l-2.285-6.806L26.936,68.598z"/>
		<path d="M38.698,69.678l-2.609,4.033h-1.183l3.225-4.825l-2.966-4.501h1.199l2.317,3.709l2.382-3.709h1.231l-3.03,4.501
			l3.144,4.825h-1.167L38.698,69.678z"/>
		<path d="M43.978,62.35v-1.603h1.069v1.603H43.978z M44.027,73.711v-9.327h0.972v9.327H44.027z"/>
		<path d="M48.044,70.794c0.308,1.603,1.053,2.197,2.512,2.197c1.41,0,2.074-0.828,2.074-1.729c0-2.701-5.38-0.792-5.38-4.465
			c0-1.548,1.085-2.665,2.949-2.665c1.815,0,2.998,0.829,3.241,2.935h-0.988c-0.178-1.44-1.053-1.962-2.269-1.962
			c-1.231,0-1.896,0.648-1.896,1.603c0,2.539,5.38,0.954,5.38,4.537c0,1.783-1.442,2.719-3.419,2.719
			c-1.977,0-3.111-1.404-3.192-3.169H48.044z"/>
		<path d="M60.682,68.058v-1.044h4.991v6.698h-0.94v-2.215c-0.81,1.549-2.058,2.557-4.359,2.557c-2.949,0-5.104-2.287-5.104-6.896
			c0-3.799,1.718-6.752,5.396-6.752c2.447,0,4.375,1.333,4.878,4.105h-1.134c-0.389-1.945-1.929-3.061-3.663-3.061
			c-3.079,0-4.375,2.521-4.375,6.194c0,2.863,1.556,5.366,4.229,5.366c1.264,0,2.754-0.594,3.516-2.269
			c0.373-0.811,0.486-1.711,0.502-2.683H60.682z"/>
		<path d="M69.202,73.711h-0.972v-9.327h0.972v1.747h0.033c0.535-1.495,1.329-1.999,2.738-1.999v1.17
			c-2.188-0.054-2.771,1.747-2.771,3.835V73.711z"/>
		<path d="M73.024,69.048c0-2.719,1.296-4.916,3.889-4.916c2.625,0,3.889,2.179,3.889,4.916c0,2.953-1.54,4.916-3.889,4.916
			C74.774,73.927,73.024,72.307,73.024,69.048z M76.913,65.105c-2.042,0-2.852,1.926-2.852,3.943c0,2.323,0.989,3.943,2.852,3.943
			c2.042,0,2.852-1.945,2.852-3.943C79.749,66.852,78.972,65.105,76.913,65.105z"/>
		<path d="M88.27,64.385h0.973v9.327H88.27v-1.296c-0.519,0.648-1.231,1.548-2.706,1.548c-2.236,0-2.981-1.494-2.981-3.439v-6.14
			h0.972v6.122c0,1.603,0.632,2.485,2.155,2.485c1.604,0,2.56-1.477,2.56-3.529V64.385z"/>
		<path d="M92.676,77.384h-0.972v-13h0.972v1.638h0.032c0.567-1.224,1.848-1.891,2.917-1.891c2.706,0,3.792,2.143,3.792,4.897
			c0,2.611-1.183,4.934-3.743,4.934c-1.183,0-2.382-0.612-2.998-1.747V77.384z M95.512,72.991c2.009,0,2.949-1.891,2.868-4.231
			c-0.016-2.34-1.231-3.655-2.868-3.655c-1.831,0-2.836,1.729-2.836,3.979C92.676,71.191,93.745,72.991,95.512,72.991z"/>
	</g>
	<g>
		<path d="M25.121,115.951v-12.964h3.986c1.296,0,2.512,0.09,3.598,0.972c1.54,1.243,1.944,3.763,1.944,5.492
			c0,1.71-0.34,3.619-1.41,4.916c-1.069,1.333-2.593,1.584-4.132,1.584H25.121z M26.223,114.907h2.642
			c0.988,0,1.847-0.072,2.738-0.594c1.556-0.882,1.945-3.097,1.945-4.861c0-1.891-0.373-3.961-2.01-4.934
			c-0.697-0.414-1.701-0.486-2.673-0.486h-2.642V114.907z"/>
		<path d="M37.109,111.54c-0.016,2.017,0.956,3.691,2.82,3.691c1.264,0,2.252-0.774,2.544-2.143h1.085
			c-0.486,1.765-1.491,3.115-3.63,3.115c-2.69,0-3.857-2.125-3.857-4.879c0-2.719,1.458-4.952,3.857-4.952
			c2.301,0,3.711,1.819,3.695,5.168H37.109z M42.587,110.64c0-1.818-0.908-3.295-2.658-3.295c-1.718,0-2.625,1.53-2.82,3.295H42.587
			z"/>
		<path d="M51.302,109.559c-0.34-1.386-1.199-2.214-2.496-2.214c-1.993,0-2.819,2.017-2.819,3.961c0,1.963,0.81,3.925,2.819,3.925
			c1.442,0,2.35-0.954,2.577-2.503h1.037c-0.34,2.071-1.507,3.475-3.614,3.475c-2.674,0-3.856-2.143-3.856-4.897
			c0-2.593,1.345-4.934,3.856-4.934c1.929,0,3.192,1.026,3.484,3.187H51.302z"/>
		<path d="M54.8,111.54c-0.016,2.017,0.957,3.691,2.82,3.691c1.264,0,2.252-0.774,2.544-2.143h1.086
			c-0.486,1.765-1.491,3.115-3.63,3.115c-2.69,0-3.857-2.125-3.857-4.879c0-2.719,1.458-4.952,3.857-4.952
			c2.301,0,3.711,1.819,3.695,5.168H54.8z M60.278,110.64c0-1.818-0.908-3.295-2.658-3.295c-1.718,0-2.625,1.53-2.82,3.295H60.278z"
			/>
		<path d="M63.192,115.951v-12.964h0.972v12.964H63.192z"/>
		<path d="M67.079,111.54c-0.016,2.017,0.957,3.691,2.82,3.691c1.264,0,2.252-0.774,2.544-2.143h1.086
			c-0.486,1.765-1.491,3.115-3.63,3.115c-2.69,0-3.857-2.125-3.857-4.879c0-2.719,1.458-4.952,3.857-4.952
			c2.301,0,3.711,1.819,3.695,5.168H67.079z M72.557,110.64c0-1.818-0.908-3.295-2.658-3.295c-1.718,0-2.625,1.53-2.82,3.295H72.557
			z"/>
		<path d="M76.346,115.951h-0.972v-9.327h0.972v1.747h0.033c0.535-1.495,1.329-1.999,2.738-1.999v1.17
			c-2.188-0.054-2.771,1.747-2.771,3.835V115.951z"/>
		<path d="M84.415,110.514c0.356-0.036,0.956-0.144,1.28-0.306s0.356-0.648,0.356-0.972c0-1.099-0.583-1.891-2.09-1.891
			c-1.345,0-2.269,0.486-2.447,2.106h-0.989c0.146-2.197,1.621-3.079,3.452-3.079c1.702,0,3.046,0.738,3.046,2.899v5.078
			c0,0.846,0.195,1.044,1.021,0.72v0.846c-0.146,0.054-0.486,0.18-0.762,0.18c-0.162,0-0.292-0.018-0.438-0.054
			c-0.648-0.108-0.762-0.738-0.778-1.386c-0.81,1.008-1.912,1.548-3.127,1.548c-1.475,0-2.803-0.882-2.803-2.683
			c0-1.566,0.972-2.521,2.933-2.809L84.415,110.514z M86.052,111.054c-0.826,0.378-1.669,0.45-2.512,0.522
			c-1.475,0.126-2.366,0.72-2.366,1.981c0,1.134,0.891,1.674,1.815,1.674c1.539,0,3.062-0.828,3.062-2.719V111.054z"/>
		<path d="M92.353,115.987c-0.227,0.054-0.648,0.216-1.118,0.216c-0.956,0-1.491-0.468-1.491-1.854v-6.824h-1.183v-0.9h1.183v-2.593
			h0.973v2.593h1.572v0.9h-1.572v6.392c0,0.918,0.032,1.314,0.842,1.314c0.259,0,0.535-0.054,0.794-0.126V115.987z"/>
		<path d="M93.842,104.59v-1.603h1.069v1.603H93.842z M93.89,115.951v-9.327h0.972v9.327H93.89z"/>
		<path d="M96.628,111.288c0-2.719,1.296-4.916,3.889-4.916c2.625,0,3.889,2.179,3.889,4.916c0,2.953-1.54,4.916-3.889,4.916
			C98.378,116.167,96.628,114.547,96.628,111.288z M100.517,107.345c-2.042,0-2.852,1.926-2.852,3.943
			c0,2.323,0.989,3.943,2.852,3.943c2.042,0,2.852-1.945,2.852-3.943C103.353,109.091,102.575,107.345,100.517,107.345z"/>
		<path d="M106.996,115.951h-0.972v-9.327h0.972v1.296c0.778-0.918,1.54-1.549,2.706-1.549c1.021,0,1.961,0.36,2.561,1.333
			c0.405,0.667,0.421,1.369,0.421,2.143v6.104h-0.973v-6.086c0-1.674-0.616-2.521-2.171-2.521c-1.199,0-2.025,0.864-2.333,1.818
			c-0.194,0.594-0.21,1.116-0.21,1.765V115.951z"/>
	</g>
	<g>
		<path d="M25.267,153.816c-0.016,1.621,0.065,3.331,2.106,3.331c1.507,0,2.058-0.99,2.058-2.809v-9.381h1.102v9.417
			c0,2.503-1.037,3.89-3.29,3.89c-2.625,0-3.079-2.144-3.079-4.448H25.267z"/>
		<path d="M33.675,153.511c-0.016,2.017,0.957,3.691,2.82,3.691c1.264,0,2.252-0.774,2.544-2.143h1.086
			c-0.486,1.765-1.491,3.114-3.63,3.114c-2.69,0-3.857-2.124-3.857-4.879c0-2.719,1.458-4.952,3.857-4.952
			c2.301,0,3.711,1.819,3.695,5.168H33.675z M39.153,152.61c0-1.818-0.908-3.295-2.658-3.295c-1.718,0-2.625,1.53-2.82,3.295H39.153
			z"/>
		<path d="M43.104,157.922h-0.972v-9.327h0.972v1.747h0.033c0.535-1.495,1.329-1.999,2.738-1.999v1.17
			c-2.188-0.054-2.771,1.747-2.771,3.835V157.922z"/>
		<path d="M47.413,157.922v-12.964h0.972v8.066l4.116-4.429h1.329l-3.144,3.367l3.516,5.96h-1.085l-3.144-5.204l-1.588,1.674v3.529
			H47.413z"/>
	</g>
	<g>
		<path class="st3" d="M79.493,18.264V5.3h1.873l4.25,11.434h0.036L89.827,5.3h1.855v12.964h-1.225V6.704h-0.036l-4.249,11.56H85.02
			l-4.267-11.56h-0.036v11.56H79.493z"/>
		<path class="st3" d="M103.741,9.063c-0.504-2.215-1.873-3.061-4.087-3.061c-3.133,0-4.483,2.683-4.483,5.744
			c0,2.899,1.062,5.816,4.592,5.816c2.232,0,3.619-1.513,4.105-3.565h1.278c-0.576,2.502-2.143,4.609-5.618,4.609
			c-3.997,0-5.582-3.151-5.582-6.824c0-4.952,2.593-6.824,6.032-6.824c2.665,0,4.609,1.422,5.023,4.105H103.741z"/>
		<path class="st3" d="M115.08,19.614v0.9h-9.003v-0.9H115.08z"/>
		<path class="st3" d="M122.046,12.61v-1.044h5.545v6.698h-1.044v-2.215c-0.9,1.549-2.287,2.557-4.843,2.557
			c-3.277,0-5.672-2.287-5.672-6.896c0-3.799,1.909-6.752,5.996-6.752c2.719,0,4.861,1.333,5.419,4.105h-1.26
			c-0.432-1.945-2.143-3.061-4.069-3.061c-3.421,0-4.861,2.521-4.861,6.194c0,2.863,1.729,5.366,4.699,5.366
			c1.404,0,3.061-0.594,3.907-2.269c0.414-0.811,0.54-1.711,0.558-2.683H122.046z"/>
		<path class="st3" d="M131.512,18.264h-1.08V8.937h1.08v1.747h0.036c0.594-1.495,1.477-1.999,3.043-1.999v1.17
			c-2.431-0.054-3.079,1.747-3.079,3.835V18.264z"/>
		<path class="st3" d="M135.759,13.6c0-2.719,1.44-4.916,4.321-4.916c2.917,0,4.321,2.179,4.321,4.916
			c0,2.953-1.71,4.916-4.321,4.916C137.704,18.479,135.759,16.859,135.759,13.6z M140.08,9.657c-2.269,0-3.169,1.926-3.169,3.943
			c0,2.323,1.099,3.943,3.169,3.943c2.269,0,3.169-1.945,3.169-3.943C143.231,11.404,142.367,9.657,140.08,9.657z"/>
		<path class="st3" d="M152.699,8.937h1.081v9.327h-1.081v-1.296c-0.576,0.648-1.368,1.548-3.007,1.548
			c-2.485,0-3.313-1.494-3.313-3.439v-6.14h1.08v6.122c0,1.603,0.703,2.485,2.395,2.485c1.783,0,2.845-1.477,2.845-3.529V8.937z"/>
		<path class="st3" d="M157.594,21.937h-1.081v-13h1.081v1.638h0.036c0.63-1.224,2.053-1.891,3.241-1.891
			c3.007,0,4.213,2.143,4.213,4.897c0,2.611-1.314,4.934-4.16,4.934c-1.314,0-2.646-0.612-3.331-1.747V21.937z M160.744,17.543
			c2.232,0,3.277-1.891,3.187-4.231c-0.018-2.34-1.369-3.655-3.187-3.655c-2.035,0-3.151,1.729-3.151,3.979
			C157.594,15.743,158.782,17.543,160.744,17.543z"/>
		<path class="st3" d="M168.051,14.393c0.198,2.323,1.747,3.169,3.728,3.169c2.322,0,3.295-1.26,3.295-2.683
			c0-4.016-7.904-1.351-7.904-6.446c0-1.8,1.494-3.475,4.393-3.475c2.917,0,4.375,1.765,4.357,3.872h-1.17
			c0-1.981-1.53-2.827-3.187-2.827c-2.485,0-3.385,1.53-3.169,2.863c0.558,3.349,7.904,0.937,7.904,5.96
			c0,2.376-1.747,3.781-4.735,3.781c-2.701,0-4.699-1.405-4.699-4.213H168.051z"/>
		<path class="st3" d="M181.66,18.3c-0.252,0.054-0.72,0.216-1.242,0.216c-1.062,0-1.657-0.468-1.657-1.854V9.837h-1.314v-0.9h1.314
			V6.344h1.081v2.593h1.747v0.9h-1.747v6.392c0,0.918,0.036,1.314,0.936,1.314c0.288,0,0.594-0.054,0.882-0.126V18.3z"/>
		<path class="st3" d="M182.775,13.6c0-2.719,1.44-4.916,4.321-4.916c2.917,0,4.321,2.179,4.321,4.916
			c0,2.953-1.71,4.916-4.321,4.916C184.72,18.479,182.775,16.859,182.775,13.6z M187.096,9.657c-2.269,0-3.169,1.926-3.169,3.943
			c0,2.323,1.099,3.943,3.169,3.943c2.269,0,3.169-1.945,3.169-3.943C190.247,11.404,189.383,9.657,187.096,9.657z"/>
		<path class="st3" d="M194.601,21.937h-1.081v-13h1.081v1.638h0.036c0.63-1.224,2.053-1.891,3.241-1.891
			c3.007,0,4.213,2.143,4.213,4.897c0,2.611-1.314,4.934-4.16,4.934c-1.314,0-2.646-0.612-3.331-1.747V21.937z M197.752,17.543
			c2.232,0,3.277-1.891,3.187-4.231c-0.018-2.34-1.369-3.655-3.187-3.655c-2.035,0-3.151,1.729-3.151,3.979
			C194.601,15.743,195.789,17.543,197.752,17.543z"/>
	</g>
	<g>
		<path d="M220.484,39.086V26.123h3.986c1.296,0,2.512,0.09,3.598,0.972c1.54,1.243,1.944,3.763,1.944,5.492
			c0,1.71-0.34,3.619-1.41,4.916c-1.069,1.333-2.593,1.584-4.132,1.584H220.484z M221.586,38.042h2.642
			c0.988,0,1.847-0.072,2.738-0.594c1.556-0.882,1.945-3.097,1.945-4.861c0-1.891-0.373-3.961-2.01-4.934
			c-0.697-0.414-1.701-0.486-2.673-0.486h-2.642V38.042z"/>
		<path d="M231.483,34.423c0-2.719,1.296-4.916,3.889-4.916c2.625,0,3.889,2.179,3.889,4.916c0,2.953-1.54,4.916-3.889,4.916
			C233.233,39.302,231.483,37.682,231.483,34.423z M235.372,30.48c-2.042,0-2.852,1.926-2.852,3.943
			c0,2.323,0.989,3.943,2.852,3.943c2.042,0,2.852-1.945,2.852-3.943C238.208,32.227,237.431,30.48,235.372,30.48z"/>
		<path d="M242.014,39.086h-0.972V29.76h0.972v1.296c0.778-0.918,1.54-1.549,2.706-1.549c1.021,0,1.961,0.36,2.561,1.333
			c0.405,0.667,0.421,1.369,0.421,2.143v6.104h-0.973V33c0-1.674-0.616-2.521-2.171-2.521c-1.199,0-2.025,0.864-2.333,1.818
			c-0.194,0.594-0.21,1.116-0.21,1.765V39.086z"/>
		<path d="M250.648,34.675c-0.016,2.017,0.956,3.691,2.82,3.691c1.264,0,2.252-0.774,2.544-2.143h1.085
			c-0.486,1.765-1.491,3.115-3.63,3.115c-2.69,0-3.857-2.125-3.857-4.879c0-2.719,1.458-4.952,3.857-4.952
			c2.301,0,3.711,1.819,3.695,5.168H250.648z M256.126,33.775c0-1.818-0.908-3.295-2.658-3.295c-1.718,0-2.625,1.53-2.82,3.295
			H256.126z"/>
	</g>
	<g>
		<path d="M223.189,73.711V60.748h4.213c2.739,0,3.824,1.314,3.824,3.259c0,1.801-0.923,2.611-1.863,2.791v0.036
			c1.604,0.27,2.398,1.512,2.398,3.223c0,2.701-1.588,3.655-3.808,3.655H223.189z M224.291,66.473h2.787
			c2.301,0,3.046-0.9,3.046-2.467c0-1.62-0.875-2.214-3.29-2.214h-2.544V66.473z M224.291,72.667h2.803
			c2.431,0,3.565-0.36,3.565-2.611c0-2.143-1.361-2.539-3.436-2.539h-2.933V72.667z"/>
		<path d="M239.536,64.385h0.973v9.327h-0.973v-1.296c-0.519,0.648-1.231,1.548-2.706,1.548c-2.236,0-2.982-1.494-2.982-3.439v-6.14
			h0.973v6.122c0,1.603,0.632,2.485,2.155,2.485c1.604,0,2.56-1.477,2.56-3.529V64.385z"/>
		<path d="M243.423,70.794c0.308,1.603,1.053,2.197,2.512,2.197c1.41,0,2.074-0.828,2.074-1.729c0-2.701-5.38-0.792-5.38-4.465
			c0-1.548,1.085-2.665,2.949-2.665c1.815,0,2.998,0.829,3.241,2.935h-0.988c-0.178-1.44-1.053-1.962-2.269-1.962
			c-1.231,0-1.896,0.648-1.896,1.603c0,2.539,5.38,0.954,5.38,4.537c0,1.783-1.442,2.719-3.419,2.719
			c-1.977,0-3.111-1.404-3.192-3.169H243.423z"/>
		<path d="M250.891,76.25c0.259,0.054,0.535,0.108,0.81,0.108c1.102,0,1.264-1.765,1.637-2.575l-3.257-9.399h1.086l2.69,8.012
			l2.69-8.012h1.053l-3.127,9.201c-0.794,2.341-1.312,3.799-2.658,3.799c-0.34,0-0.664-0.054-0.923-0.126V76.25z"/>
	</g>
	<g>
		<path d="M135.47,106.751c-0.454-2.215-1.686-3.061-3.679-3.061c-2.819,0-4.035,2.683-4.035,5.744c0,2.899,0.956,5.816,4.132,5.816
			c2.009,0,3.257-1.513,3.694-3.565h1.151c-0.519,2.502-1.929,4.609-5.056,4.609c-3.598,0-5.023-3.151-5.023-6.824
			c0-4.952,2.333-6.824,5.429-6.824c2.398,0,4.148,1.422,4.521,4.105H135.47z"/>
		<path d="M138.026,111.288c0-2.719,1.296-4.916,3.889-4.916c2.625,0,3.889,2.179,3.889,4.916c0,2.953-1.54,4.916-3.889,4.916
			C139.776,116.167,138.026,114.547,138.026,111.288z M141.915,107.345c-2.042,0-2.852,1.926-2.852,3.943
			c0,2.323,0.989,3.943,2.852,3.943c2.042,0,2.852-1.945,2.852-3.943C144.751,109.092,143.973,107.345,141.915,107.345z"/>
		<path d="M148.265,115.952h-0.972v-9.327h0.972v1.404h0.033c0.502-1.062,1.507-1.657,2.593-1.657c1.556,0,2.106,0.811,2.463,1.801
			c0.551-1.207,1.54-1.801,2.739-1.801c2.285,0,2.609,1.819,2.609,3.691v5.888h-0.972v-6.446c0-1.333-0.421-2.161-1.799-2.161
			c-0.713,0-1.41,0.342-1.896,1.062c-0.421,0.612-0.551,1.747-0.551,2.521v5.023h-0.973v-6.446c0-1.333-0.421-2.161-1.798-2.161
			c-0.713,0-1.41,0.342-1.896,1.062c-0.421,0.612-0.551,1.747-0.551,2.521V115.952z"/>
		<path d="M161.598,115.952h-0.972v-9.327h0.972v1.404h0.033c0.502-1.062,1.507-1.657,2.593-1.657c1.556,0,2.106,0.811,2.463,1.801
			c0.551-1.207,1.54-1.801,2.739-1.801c2.285,0,2.609,1.819,2.609,3.691v5.888h-0.972v-6.446c0-1.333-0.421-2.161-1.799-2.161
			c-0.713,0-1.41,0.342-1.896,1.062c-0.421,0.612-0.551,1.747-0.551,2.521v5.023h-0.973v-6.446c0-1.333-0.421-2.161-1.798-2.161
			c-0.713,0-1.41,0.342-1.896,1.062c-0.421,0.612-0.551,1.747-0.551,2.521V115.952z"/>
		<path d="M177.945,110.514c0.356-0.036,0.956-0.144,1.28-0.306s0.356-0.648,0.356-0.972c0-1.099-0.583-1.891-2.09-1.891
			c-1.345,0-2.269,0.486-2.447,2.106h-0.989c0.146-2.197,1.621-3.079,3.452-3.079c1.702,0,3.046,0.738,3.046,2.899v5.078
			c0,0.846,0.195,1.044,1.021,0.72v0.846c-0.146,0.054-0.486,0.18-0.762,0.18c-0.162,0-0.292-0.018-0.438-0.054
			c-0.648-0.108-0.762-0.738-0.778-1.386c-0.81,1.008-1.912,1.548-3.127,1.548c-1.475,0-2.803-0.882-2.803-2.683
			c0-1.566,0.972-2.521,2.933-2.809L177.945,110.514z M179.581,111.054c-0.827,0.378-1.669,0.45-2.512,0.522
			c-1.475,0.126-2.366,0.72-2.366,1.981c0,1.134,0.891,1.674,1.815,1.674c1.539,0,3.062-0.828,3.062-2.719V111.054z"/>
		<path d="M183.906,115.952h-0.972v-9.327h0.972v1.296c0.778-0.918,1.54-1.549,2.706-1.549c1.021,0,1.961,0.36,2.561,1.333
			c0.405,0.667,0.421,1.369,0.421,2.143v6.104h-0.973v-6.086c0-1.674-0.616-2.521-2.171-2.521c-1.199,0-2.025,0.864-2.333,1.818
			c-0.194,0.594-0.21,1.116-0.21,1.765V115.952z"/>
		<path d="M198.261,102.988h0.972v12.964h-0.972v-1.639h-0.033c-0.567,1.225-1.847,1.891-2.917,1.891
			c-2.706,0-3.792-2.143-3.792-4.897c0-2.611,1.183-4.934,3.743-4.934c1.183,0,2.382,0.612,2.998,1.747V102.988z M195.425,107.345
			c-2.01,0-2.949,1.891-2.868,4.231c0.016,2.341,1.231,3.655,2.868,3.655c1.831,0,2.836-1.729,2.836-3.979
			C198.261,109.146,197.191,107.345,195.425,107.345z"/>
		<path d="M200.591,115.952l4.586-12.964h1.248l4.473,12.964h-1.134l-1.345-4.069h-5.315l-1.377,4.069H200.591z M203.475,110.838
			h4.57l-2.285-6.806L203.475,110.838z"/>
		<path d="M213.243,115.952h-0.972v-12.964h0.972v5.131c0.616-1.134,1.815-1.747,2.998-1.747c2.56,0,3.743,2.323,3.743,4.934
			c0,2.755-1.085,4.897-3.792,4.897c-1.069,0-2.35-0.666-2.917-1.891h-0.032V115.952z M216.079,115.231
			c1.637,0,2.852-1.314,2.868-3.655c0.081-2.34-0.859-4.231-2.868-4.231c-1.767,0-2.836,1.8-2.836,3.907
			C213.243,113.503,214.248,115.231,216.079,115.231z"/>
		<path d="M221.343,111.288c0-2.719,1.296-4.916,3.889-4.916c2.625,0,3.889,2.179,3.889,4.916c0,2.953-1.54,4.916-3.889,4.916
			C223.093,116.167,221.343,114.547,221.343,111.288z M225.232,107.345c-2.042,0-2.852,1.926-2.852,3.943
			c0,2.323,0.989,3.943,2.852,3.943c2.042,0,2.852-1.945,2.852-3.943C228.068,109.092,227.29,107.345,225.232,107.345z"/>
		<path d="M231.76,115.952h-0.972v-9.327h0.972v1.747h0.033c0.535-1.495,1.329-1.999,2.738-1.999v1.17
			c-2.188-0.054-2.771,1.747-2.771,3.835V115.952z"/>
		<path d="M238.921,115.988c-0.227,0.054-0.648,0.216-1.118,0.216c-0.956,0-1.491-0.468-1.491-1.854v-6.824h-1.183v-0.9h1.183
			v-2.593h0.973v2.593h1.572v0.9h-1.572v6.392c0,0.918,0.032,1.314,0.842,1.314c0.259,0,0.535-0.054,0.794-0.126V115.988z"/>
		<path d="M240.912,111.541c-0.016,2.017,0.957,3.691,2.82,3.691c1.264,0,2.252-0.774,2.544-2.143h1.086
			c-0.486,1.765-1.491,3.115-3.63,3.115c-2.69,0-3.857-2.125-3.857-4.879c0-2.719,1.458-4.952,3.857-4.952
			c2.301,0,3.711,1.819,3.695,5.168H240.912z M246.39,110.64c0-1.818-0.908-3.295-2.658-3.295c-1.718,0-2.625,1.53-2.82,3.295
			H246.39z"/>
		<path d="M255.64,102.988h0.972v12.964h-0.972v-1.639h-0.033c-0.567,1.225-1.847,1.891-2.917,1.891
			c-2.706,0-3.792-2.143-3.792-4.897c0-2.611,1.183-4.934,3.743-4.934c1.183,0,2.382,0.612,2.998,1.747V102.988z M252.805,107.345
			c-2.01,0-2.949,1.891-2.868,4.231c0.016,2.341,1.231,3.655,2.868,3.655c1.831,0,2.836-1.729,2.836-3.979
			C255.64,109.146,254.571,107.345,252.805,107.345z"/>
	</g>
	<g>
		<path d="M224.113,157.922v-12.964h7.762v1.044h-6.66v4.681h6.012v1.044h-6.012v5.149h6.822v1.045H224.113z"/>
		<path d="M234.886,157.922h-0.972v-9.327h0.972v1.747h0.033c0.535-1.495,1.329-1.999,2.738-1.999v1.17
			c-2.188-0.054-2.771,1.747-2.771,3.835V157.922z"/>
		<path d="M240.28,157.922h-0.972v-9.327h0.972v1.747h0.033c0.535-1.495,1.329-1.999,2.738-1.999v1.17
			c-2.188-0.054-2.771,1.747-2.771,3.835V157.922z"/>
		<path d="M244.103,153.258c0-2.719,1.296-4.916,3.889-4.916c2.625,0,3.889,2.179,3.889,4.916c0,2.953-1.54,4.916-3.889,4.916
			C245.853,158.138,244.103,156.518,244.103,153.258z M247.992,149.315c-2.042,0-2.852,1.926-2.852,3.943
			c0,2.323,0.989,3.943,2.852,3.943c2.042,0,2.852-1.944,2.852-3.943C250.828,151.062,250.05,149.315,247.992,149.315z"/>
		<path d="M254.682,157.922h-0.972v-9.327h0.972v1.747h0.033c0.535-1.495,1.329-1.999,2.738-1.999v1.17
			c-2.188-0.054-2.771,1.747-2.771,3.835V157.922z"/>
	</g>
	<g>
		<path d="M207.913,200.128v-12.964h7.762v1.044h-6.66v4.682h6.012v1.044h-6.012v5.149h6.822v1.045H207.913z"/>
		<path d="M218.686,200.128h-0.972v-9.327h0.972v1.747h0.033c0.535-1.495,1.329-1.999,2.738-1.999v1.17
			c-2.188-0.054-2.771,1.747-2.771,3.836V200.128z"/>
		<path d="M224.08,200.128h-0.972v-9.327h0.972v1.747h0.033c0.535-1.495,1.329-1.999,2.738-1.999v1.17
			c-2.188-0.054-2.771,1.747-2.771,3.836V200.128z"/>
		<path d="M227.903,195.464c0-2.719,1.296-4.915,3.889-4.915c2.625,0,3.889,2.179,3.889,4.915c0,2.953-1.54,4.916-3.889,4.916
			C229.653,200.344,227.903,198.724,227.903,195.464z M231.792,191.521c-2.042,0-2.852,1.926-2.852,3.942
			c0,2.323,0.989,3.943,2.852,3.943c2.042,0,2.852-1.944,2.852-3.943C234.628,193.268,233.85,191.521,231.792,191.521z"/>
		<path d="M238.482,200.128h-0.972v-9.327h0.972v1.747h0.033c0.535-1.495,1.329-1.999,2.738-1.999v1.17
			c-2.188-0.054-2.771,1.747-2.771,3.836V200.128z"/>
		<path d="M243.391,200.128v-12.964h1.102v12.964H243.391z"/>
		<path d="M247.505,200.128v-12.964h3.986c1.296,0,2.512,0.09,3.598,0.972c1.54,1.243,1.944,3.764,1.944,5.492
			c0,1.71-0.34,3.619-1.41,4.915c-1.069,1.333-2.593,1.585-4.132,1.585H247.505z M248.607,199.083h2.642
			c0.988,0,1.847-0.071,2.738-0.594c1.556-0.882,1.945-3.097,1.945-4.861c0-1.891-0.373-3.961-2.01-4.934
			c-0.697-0.414-1.701-0.486-2.673-0.486h-2.642V199.083z"/>
	</g>
	<g>
	</g>
	<g>
	</g>
	<g>
	</g>
	<g>
	</g>
	<g>
	</g>
	<g>
	</g>
	<g>
	</g>
	<g>
	</g>
	<g>
	</g>
	<g>
	</g>
	<g>
	</g>
	<g>
	</g>
	<g>
	</g>
	<g>
	</g>
	<g>
	</g>
</g>
</svg>
