<?xml version="1.0" encoding="utf-8"?>
<!-- Generator: Adobe Illustrator 28.2.0, SVG Export Plug-In . SVG Version: 6.00 Build 0)  -->
<svg version="1.1" xmlns="http://www.w3.org/2000/svg" xmlns:xlink="http://www.w3.org/1999/xlink" x="0px" y="0px"
	 width="281.185px" height="94.822px" viewBox="0 0 281.185 94.822" style="enable-background:new 0 0 281.185 94.822;"
	 xml:space="preserve">
<style type="text/css">
	.st0{fill:#F0F0F0;stroke:#828282;stroke-miterlimit:10;}
	.st1{fill:none;stroke:#828282;stroke-miterlimit:10;}
	.st2{fill:#828282;}
	.st3{fill:#FFFFFF;}
</style>
<g id="レイヤー_2">
	<rect x="20.323" y="0.5" class="st0" width="240.539" height="93.822"/>
	<line class="st1" x1="0" y1="25.814" x2="20.323" y2="25.814"/>
	<line class="st1" x1="0" y1="25.814" x2="20.323" y2="25.814"/>
	<line class="st1" x1="260.862" y1="25.814" x2="281.185" y2="25.814"/>
	<rect x="20.323" y="0.5" class="st2" width="240.539" height="21"/>
</g>
<g id="レイヤー_3">
	<g>
		<path d="M25.121,39.028V26.064h7.762v1.044h-6.66v4.681h6.012v1.044h-6.012v5.149h6.822v1.044H25.121z"/>
		<path d="M36.121,27.72h-0.032v11.308h-1.102V26.064h1.248l6.741,11.325h0.033V26.064h1.102v12.964h-1.28L36.121,27.72z"/>
	</g>
	<g>
		<path d="M25.511,73.711V60.748h1.102v12.964H25.511z"/>
		<path d="M29.625,73.711V60.748h3.986c1.296,0,2.512,0.09,3.598,0.972c1.54,1.243,1.944,3.763,1.944,5.492
			c0,1.71-0.34,3.619-1.41,4.916c-1.069,1.333-2.593,1.584-4.132,1.584H29.625z M30.727,72.667h2.641
			c0.989,0,1.848-0.072,2.739-0.594c1.556-0.882,1.945-3.097,1.945-4.861c0-1.891-0.373-3.961-2.01-4.934
			c-0.697-0.414-1.701-0.486-2.674-0.486h-2.641V72.667z"/>
	</g>
	<g>
		<path class="st3" d="M55.002,4.958c3.646,0,5.494,3.043,5.494,6.842c0,3.727-1.848,6.806-5.445,6.806
			c-3.598,0-5.429-3.079-5.429-6.806C49.606,8.019,51.518,4.958,55.002,4.958z M59.394,11.8c0-3.601-1.669-5.798-4.359-5.798
			c-2.998,0-4.311,2.791-4.311,5.798c0,3.061,1.296,5.762,4.343,5.762C58.098,17.562,59.394,14.825,59.394,11.8z"/>
		<path class="st3" d="M63.619,21.937h-0.972v-13h0.972v1.638h0.032c0.567-1.224,1.848-1.891,2.917-1.891
			c2.706,0,3.792,2.143,3.792,4.897c0,2.611-1.183,4.934-3.743,4.934c-1.183,0-2.382-0.612-2.998-1.747V21.937z M66.455,17.543
			c2.009,0,2.949-1.891,2.868-4.231c-0.016-2.34-1.231-3.655-2.868-3.655c-1.831,0-2.836,1.729-2.836,3.979
			C63.619,15.743,64.689,17.543,66.455,17.543z"/>
		<path class="st3" d="M73.031,13.853c-0.016,2.017,0.957,3.691,2.82,3.691c1.264,0,2.252-0.774,2.544-2.143h1.086
			c-0.486,1.765-1.491,3.115-3.63,3.115c-2.69,0-3.857-2.125-3.857-4.879c0-2.719,1.458-4.952,3.857-4.952
			c2.301,0,3.711,1.819,3.695,5.168H73.031z M78.509,12.952c0-1.818-0.908-3.295-2.658-3.295c-1.718,0-2.625,1.53-2.82,3.295H78.509
			z"/>
		<path class="st3" d="M82.46,18.264h-0.972V8.937h0.972v1.747h0.033c0.535-1.495,1.329-1.999,2.738-1.999v1.17
			c-2.188-0.054-2.771,1.747-2.771,3.835V18.264z"/>
		<path class="st3" d="M90.69,12.826c0.356-0.036,0.956-0.144,1.28-0.306s0.356-0.648,0.356-0.972c0-1.099-0.583-1.891-2.09-1.891
			c-1.345,0-2.269,0.486-2.447,2.106h-0.989c0.146-2.197,1.621-3.079,3.452-3.079c1.702,0,3.046,0.738,3.046,2.899v5.078
			c0,0.846,0.195,1.044,1.021,0.72v0.846c-0.146,0.054-0.486,0.18-0.762,0.18c-0.162,0-0.292-0.018-0.438-0.054
			c-0.648-0.108-0.762-0.738-0.778-1.386c-0.81,1.008-1.912,1.548-3.127,1.548c-1.475,0-2.803-0.882-2.803-2.683
			c0-1.566,0.972-2.521,2.933-2.809L90.69,12.826z M92.327,13.366c-0.827,0.378-1.669,0.45-2.512,0.522
			c-1.475,0.126-2.366,0.72-2.366,1.981c0,1.134,0.891,1.674,1.815,1.674c1.539,0,3.062-0.828,3.062-2.719V13.366z"/>
		<path class="st3" d="M98.79,18.3c-0.227,0.054-0.648,0.216-1.118,0.216c-0.956,0-1.491-0.468-1.491-1.854V9.837h-1.183v-0.9h1.183
			V6.344h0.973v2.593h1.572v0.9h-1.572v6.392c0,0.918,0.032,1.314,0.842,1.314c0.259,0,0.535-0.054,0.794-0.126V18.3z"/>
		<path class="st3" d="M100.442,6.902V5.3h1.069v1.603H100.442z M100.49,18.264V8.937h0.972v9.327H100.49z"/>
		<path class="st3" d="M103.389,13.6c0-2.719,1.296-4.916,3.889-4.916c2.625,0,3.889,2.179,3.889,4.916
			c0,2.953-1.54,4.916-3.889,4.916C105.139,18.479,103.389,16.859,103.389,13.6z M107.279,9.657c-2.042,0-2.852,1.926-2.852,3.943
			c0,2.323,0.989,3.943,2.852,3.943c2.042,0,2.852-1.945,2.852-3.943C110.115,11.404,109.337,9.657,107.279,9.657z"/>
		<path class="st3" d="M113.92,18.264h-0.973V8.937h0.973v1.296c0.778-0.918,1.54-1.549,2.706-1.549c1.021,0,1.961,0.36,2.561,1.333
			c0.405,0.667,0.421,1.369,0.421,2.143v6.104h-0.973v-6.086c0-1.674-0.616-2.521-2.171-2.521c-1.199,0-2.025,0.864-2.333,1.818
			c-0.194,0.594-0.21,1.116-0.21,1.765V18.264z"/>
		<path class="st3" d="M123.187,12.376v5.888h-1.102V5.3h4.57c2.561,0,3.97,1.008,3.97,3.403c0,1.639-0.551,2.503-1.896,3.169
			c1.377,0.522,1.458,2.143,1.491,3.511c0.049,1.962,0.194,2.503,0.486,2.755v0.126h-1.215c-0.454-0.882-0.34-3.313-0.519-4.303
			c-0.259-1.404-1.215-1.584-2.317-1.584H123.187z M126.622,11.332c1.636,0,2.9-0.756,2.9-2.575c0-1.944-1.361-2.413-2.836-2.413
			h-3.5v4.987H126.622z"/>
		<path class="st3" d="M133.36,13.853c-0.016,2.017,0.956,3.691,2.82,3.691c1.264,0,2.252-0.774,2.544-2.143h1.085
			c-0.486,1.765-1.491,3.115-3.63,3.115c-2.69,0-3.857-2.125-3.857-4.879c0-2.719,1.458-4.952,3.857-4.952
			c2.301,0,3.711,1.819,3.695,5.168H133.36z M138.837,12.952c0-1.818-0.908-3.295-2.658-3.295c-1.718,0-2.625,1.53-2.82,3.295
			H138.837z"/>
		<path class="st3" d="M147.715,11.872c-0.34-1.386-1.199-2.214-2.496-2.214c-1.993,0-2.819,2.017-2.819,3.961
			c0,1.963,0.81,3.925,2.819,3.925c1.442,0,2.35-0.954,2.577-2.503h1.037c-0.34,2.071-1.507,3.475-3.614,3.475
			c-2.674,0-3.856-2.143-3.856-4.897c0-2.593,1.345-4.934,3.856-4.934c1.929,0,3.192,1.026,3.484,3.187H147.715z"/>
		<path class="st3" d="M150.224,13.6c0-2.719,1.296-4.916,3.889-4.916c2.625,0,3.889,2.179,3.889,4.916
			c0,2.953-1.54,4.916-3.889,4.916C151.974,18.479,150.224,16.859,150.224,13.6z M154.113,9.657c-2.042,0-2.852,1.926-2.852,3.943
			c0,2.323,0.989,3.943,2.852,3.943c2.042,0,2.852-1.945,2.852-3.943C156.949,11.404,156.171,9.657,154.113,9.657z"/>
		<path class="st3" d="M160.803,18.264h-0.972V8.937h0.972v1.747h0.033c0.535-1.495,1.329-1.999,2.738-1.999v1.17
			c-2.188-0.054-2.771,1.747-2.771,3.835V18.264z"/>
		<path class="st3" d="M171.659,5.3h0.973v12.964h-0.973v-1.639h-0.032c-0.567,1.225-1.847,1.891-2.917,1.891
			c-2.706,0-3.792-2.143-3.792-4.897c0-2.611,1.183-4.934,3.744-4.934c1.183,0,2.382,0.612,2.998,1.747V5.3z M168.823,9.657
			c-2.01,0-2.949,1.891-2.869,4.231c0.017,2.341,1.232,3.655,2.869,3.655c1.831,0,2.835-1.729,2.835-3.979
			C171.659,11.458,170.589,9.657,168.823,9.657z"/>
		<path class="st3" d="M183.501,9.063c-0.454-2.215-1.686-3.061-3.679-3.061c-2.819,0-4.035,2.683-4.035,5.744
			c0,2.899,0.956,5.816,4.132,5.816c2.009,0,3.257-1.513,3.694-3.565h1.151c-0.519,2.502-1.929,4.609-5.056,4.609
			c-3.598,0-5.023-3.151-5.023-6.824c0-4.952,2.333-6.824,5.429-6.824c2.398,0,4.148,1.422,4.521,4.105H183.501z"/>
		<path class="st3" d="M190.628,12.826c0.356-0.036,0.956-0.144,1.28-0.306s0.356-0.648,0.356-0.972c0-1.099-0.583-1.891-2.09-1.891
			c-1.345,0-2.269,0.486-2.447,2.106h-0.989c0.146-2.197,1.621-3.079,3.452-3.079c1.702,0,3.046,0.738,3.046,2.899v5.078
			c0,0.846,0.195,1.044,1.021,0.72v0.846c-0.146,0.054-0.486,0.18-0.762,0.18c-0.162,0-0.292-0.018-0.438-0.054
			c-0.648-0.108-0.762-0.738-0.778-1.386c-0.81,1.008-1.912,1.548-3.127,1.548c-1.475,0-2.803-0.882-2.803-2.683
			c0-1.566,0.972-2.521,2.933-2.809L190.628,12.826z M192.264,13.366c-0.827,0.378-1.669,0.45-2.512,0.522
			c-1.475,0.126-2.366,0.72-2.366,1.981c0,1.134,0.891,1.674,1.815,1.674c1.539,0,3.062-0.828,3.062-2.719V13.366z"/>
		<path class="st3" d="M196.864,21.937h-0.972v-13h0.972v1.638h0.032c0.567-1.224,1.848-1.891,2.917-1.891
			c2.707,0,3.792,2.143,3.792,4.897c0,2.611-1.183,4.934-3.743,4.934c-1.183,0-2.382-0.612-2.998-1.747V21.937z M199.7,17.543
			c2.009,0,2.949-1.891,2.868-4.231c-0.016-2.34-1.231-3.655-2.868-3.655c-1.831,0-2.836,1.729-2.836,3.979
			C196.864,15.743,197.933,17.543,199.7,17.543z"/>
		<path class="st3" d="M208.626,18.3c-0.227,0.054-0.648,0.216-1.118,0.216c-0.956,0-1.491-0.468-1.491-1.854V9.837h-1.183v-0.9
			h1.183V6.344h0.973v2.593h1.572v0.9h-1.572v6.392c0,0.918,0.032,1.314,0.842,1.314c0.259,0,0.535-0.054,0.794-0.126V18.3z"/>
		<path class="st3" d="M215.868,8.937h0.973v9.327h-0.973v-1.296c-0.519,0.648-1.231,1.548-2.706,1.548
			c-2.236,0-2.981-1.494-2.981-3.439v-6.14h0.972v6.122c0,1.603,0.632,2.485,2.155,2.485c1.604,0,2.56-1.477,2.56-3.529V8.937z"/>
		<path class="st3" d="M220.208,18.264h-0.972V8.937h0.972v1.747h0.033c0.535-1.495,1.329-1.999,2.738-1.999v1.17
			c-2.188-0.054-2.771,1.747-2.771,3.835V18.264z"/>
		<path class="st3" d="M225.181,13.853c-0.016,2.017,0.956,3.691,2.82,3.691c1.264,0,2.252-0.774,2.544-2.143h1.085
			c-0.486,1.765-1.491,3.115-3.63,3.115c-2.69,0-3.857-2.125-3.857-4.879c0-2.719,1.458-4.952,3.857-4.952
			c2.301,0,3.711,1.819,3.695,5.168H225.181z M230.659,12.952c0-1.818-0.908-3.295-2.658-3.295c-1.718,0-2.625,1.53-2.82,3.295
			H230.659z"/>
	</g>
	<g>
		<path d="M225.004,39.086V26.123h7.762v1.044h-6.66v4.681h6.012v1.044h-6.012v5.149h6.822v1.044H225.004z"/>
		<path d="M236.004,27.779h-0.032v11.308h-1.102V26.123h1.248l6.741,11.325h0.033V26.123h1.102v12.964h-1.28L236.004,27.779z"/>
		<path d="M251.524,25.78c3.646,0,5.494,3.043,5.494,6.842c0,3.727-1.848,6.806-5.445,6.806c-3.598,0-5.429-3.079-5.429-6.806
			C246.128,28.841,248.04,25.78,251.524,25.78z M255.916,32.623c0-3.601-1.669-5.798-4.359-5.798c-2.998,0-4.311,2.791-4.311,5.798
			c0,3.061,1.296,5.762,4.343,5.762C254.619,38.384,255.916,35.647,255.916,32.623z"/>
	</g>
	<g>
	</g>
	<g>
	</g>
	<g>
	</g>
	<g>
	</g>
	<g>
	</g>
	<g>
	</g>
	<g>
	</g>
	<g>
	</g>
	<g>
	</g>
	<g>
	</g>
	<g>
	</g>
	<g>
	</g>
	<g>
	</g>
	<g>
	</g>
	<g>
	</g>
</g>
</svg>
