<?xml version="1.0" encoding="utf-8"?>
<!-- Generator: Adobe Illustrator 28.2.0, SVG Export Plug-In . SVG Version: 6.00 Build 0)  -->
<svg version="1.1" xmlns="http://www.w3.org/2000/svg" xmlns:xlink="http://www.w3.org/1999/xlink" x="0px" y="0px" width="281px"
	 height="809px" viewBox="0 0 281 809" style="enable-background:new 0 0 281 809;" xml:space="preserve">
<style type="text/css">
	.st0{fill:#F0F0F0;stroke:#828282;stroke-miterlimit:10;}
	.st1{fill:none;stroke:#828282;stroke-miterlimit:10;}
	.st2{fill:#828282;}
	.st3{fill:#FFFFFF;}
</style>
<g id="レイヤー_2">
	<rect x="20.23" class="st0" width="240.539" height="809"/>
	<line class="st1" x1="-0.093" y1="25.314" x2="20.23" y2="25.314"/>
	<line class="st1" x1="-0.093" y1="25.314" x2="20.23" y2="25.314"/>
	<line class="st1" x1="260.77" y1="25.314" x2="281.093" y2="25.314"/>
	<rect x="20.23" class="st2" width="240.539" height="21"/>
	<line class="st1" x1="49.084" y1="782.444" x2="230.298" y2="782.444"/>
	<line class="st1" x1="45.309" y1="488.511" x2="234.613" y2="488.511"/>
	<line class="st1" x1="40.186" y1="446.43" x2="240.815" y2="446.43"/>
	<line class="st1" x1="36.141" y1="404.5" x2="242.702" y2="404.5"/>
</g>
<g id="レイヤー_3">
	<g>
		<path d="M25.029,38.528V25.564h7.762v1.044h-6.66v4.681h6.012v1.044h-6.012v5.149h6.822v1.044H25.029z"/>
		<path d="M35.754,38.528h-0.972v-9.327h0.972v1.296c0.778-0.918,1.54-1.549,2.706-1.549c1.021,0,1.961,0.36,2.561,1.333
			c0.405,0.667,0.421,1.369,0.421,2.143v6.104h-0.973v-6.086c0-1.674-0.616-2.521-2.171-2.521c-1.199,0-2.025,0.864-2.333,1.818
			c-0.194,0.594-0.21,1.116-0.21,1.765V38.528z"/>
		<path d="M47.645,33.09c0.356-0.036,0.956-0.144,1.28-0.306s0.356-0.648,0.356-0.972c0-1.099-0.583-1.891-2.09-1.891
			c-1.345,0-2.269,0.486-2.447,2.106h-0.989c0.146-2.197,1.621-3.079,3.452-3.079c1.702,0,3.046,0.738,3.046,2.899v5.078
			c0,0.846,0.195,1.044,1.021,0.72v0.846c-0.146,0.054-0.486,0.18-0.762,0.18c-0.162,0-0.292-0.018-0.438-0.054
			c-0.648-0.108-0.762-0.738-0.778-1.386c-0.81,1.008-1.912,1.548-3.127,1.548c-1.475,0-2.803-0.882-2.803-2.683
			c0-1.566,0.972-2.521,2.933-2.809L47.645,33.09z M49.282,33.63c-0.827,0.378-1.669,0.45-2.512,0.522
			c-1.475,0.126-2.366,0.72-2.366,1.981c0,1.134,0.891,1.674,1.815,1.674c1.539,0,3.062-0.828,3.062-2.719V33.63z"/>
		<path d="M53.882,38.528h-0.972V25.564h0.972v5.131c0.616-1.134,1.815-1.747,2.998-1.747c2.56,0,3.743,2.323,3.743,4.934
			c0,2.755-1.085,4.897-3.792,4.897c-1.069,0-2.35-0.666-2.917-1.891h-0.032V38.528z M56.718,37.808
			c1.637,0,2.852-1.314,2.868-3.655c0.081-2.34-0.859-4.231-2.868-4.231c-1.767,0-2.836,1.8-2.836,3.907
			C53.882,36.079,54.887,37.808,56.718,37.808z"/>
		<path d="M62.84,38.528V25.564h0.972v12.964H62.84z"/>
		<path d="M66.889,34.117c-0.016,2.017,0.957,3.691,2.82,3.691c1.264,0,2.252-0.774,2.544-2.143h1.086
			c-0.486,1.765-1.491,3.115-3.63,3.115c-2.69,0-3.857-2.125-3.857-4.879c0-2.719,1.458-4.952,3.857-4.952
			c2.301,0,3.711,1.819,3.695,5.168H66.889z M72.367,33.216c0-1.818-0.908-3.295-2.658-3.295c-1.718,0-2.625,1.53-2.82,3.295H72.367
			z"/>
	</g>
	<g>
		<path d="M24.981,74.123V61.159h1.685l3.824,11.434h0.033l3.759-11.434h1.669v12.964h-1.102v-11.56h-0.033l-3.824,11.56h-1.037
			l-3.84-11.56h-0.033v11.56H24.981z"/>
		<path d="M42.235,68.686c0.356-0.036,0.956-0.144,1.28-0.306s0.356-0.648,0.356-0.972c0-1.099-0.583-1.891-2.09-1.891
			c-1.345,0-2.269,0.486-2.447,2.106h-0.989c0.146-2.197,1.621-3.079,3.452-3.079c1.702,0,3.046,0.738,3.046,2.899v5.078
			c0,0.846,0.195,1.044,1.021,0.72v0.846c-0.146,0.054-0.486,0.18-0.762,0.18c-0.162,0-0.292-0.018-0.438-0.054
			c-0.648-0.108-0.762-0.738-0.778-1.386c-0.81,1.008-1.912,1.548-3.127,1.548c-1.475,0-2.803-0.882-2.803-2.683
			c0-1.566,0.972-2.521,2.933-2.809L42.235,68.686z M43.871,69.226c-0.826,0.378-1.669,0.45-2.512,0.522
			c-1.475,0.126-2.366,0.72-2.366,1.981c0,1.134,0.891,1.674,1.815,1.674c1.539,0,3.062-0.828,3.062-2.719V69.226z"/>
		<path d="M48.358,74.123h-0.973v-9.327h0.973v1.296c0.778-0.918,1.54-1.549,2.706-1.549c1.021,0,1.961,0.36,2.561,1.333
			c0.405,0.667,0.421,1.369,0.421,2.143v6.104h-0.973v-6.086c0-1.674-0.616-2.521-2.171-2.521c-1.199,0-2.025,0.864-2.333,1.818
			c-0.194,0.594-0.21,1.116-0.21,1.765V74.123z"/>
		<path d="M62.08,64.796h0.973v9.327H62.08v-1.296c-0.519,0.648-1.231,1.548-2.706,1.548c-2.236,0-2.981-1.494-2.981-3.439v-6.14
			h0.972v6.122c0,1.603,0.632,2.485,2.155,2.485c1.604,0,2.56-1.477,2.56-3.529V64.796z"/>
		<path d="M69.257,68.686c0.356-0.036,0.956-0.144,1.28-0.306s0.356-0.648,0.356-0.972c0-1.099-0.583-1.891-2.09-1.891
			c-1.345,0-2.269,0.486-2.447,2.106h-0.989c0.146-2.197,1.621-3.079,3.452-3.079c1.702,0,3.046,0.738,3.046,2.899v5.078
			c0,0.846,0.195,1.044,1.021,0.72v0.846c-0.146,0.054-0.486,0.18-0.762,0.18c-0.162,0-0.292-0.018-0.438-0.054
			c-0.648-0.108-0.762-0.738-0.778-1.386c-0.81,1.008-1.912,1.548-3.127,1.548c-1.475,0-2.803-0.882-2.803-2.683
			c0-1.566,0.972-2.521,2.933-2.809L69.257,68.686z M70.893,69.226c-0.827,0.378-1.669,0.45-2.512,0.522
			c-1.475,0.126-2.366,0.72-2.366,1.981c0,1.134,0.891,1.674,1.815,1.674c1.539,0,3.062-0.828,3.062-2.719V69.226z"/>
		<path d="M74.553,74.123V61.159h0.972v12.964H74.553z"/>
		<path d="M78.101,74.123V61.159h1.685l3.824,11.434h0.033l3.759-11.434h1.669v12.964H87.97v-11.56h-0.033l-3.824,11.56h-1.037
			l-3.84-11.56h-0.033v11.56H78.101z"/>
		<path d="M90.947,69.46c0-2.719,1.296-4.916,3.889-4.916c2.625,0,3.889,2.179,3.889,4.916c0,2.953-1.54,4.916-3.889,4.916
			C92.697,74.339,90.947,72.719,90.947,69.46z M94.836,65.517c-2.042,0-2.852,1.926-2.852,3.943c0,2.323,0.989,3.943,2.852,3.943
			c2.042,0,2.852-1.945,2.852-3.943C97.672,67.263,96.894,65.517,94.836,65.517z"/>
		<path d="M106.988,61.159h0.972v12.964h-0.972v-1.639h-0.033c-0.567,1.225-1.847,1.891-2.917,1.891
			c-2.706,0-3.792-2.143-3.792-4.897c0-2.611,1.183-4.934,3.743-4.934c1.183,0,2.382,0.612,2.998,1.747V61.159z M104.152,65.517
			c-2.01,0-2.949,1.891-2.868,4.231c0.016,2.341,1.231,3.655,2.868,3.655c1.831,0,2.836-1.729,2.836-3.979
			C106.988,67.317,105.918,65.517,104.152,65.517z"/>
		<path d="M111.003,69.712c-0.016,2.017,0.957,3.691,2.82,3.691c1.264,0,2.252-0.774,2.544-2.143h1.086
			c-0.486,1.765-1.491,3.115-3.63,3.115c-2.69,0-3.857-2.125-3.857-4.879c0-2.719,1.458-4.952,3.857-4.952
			c2.301,0,3.711,1.819,3.695,5.168H111.003z M116.48,68.812c0-1.818-0.908-3.295-2.658-3.295c-1.718,0-2.625,1.53-2.82,3.295
			H116.48z"/>
	</g>
	<g>
		<path d="M23.96,116.191l4.586-12.964h1.248l4.473,12.964h-1.134l-1.345-4.069h-5.315l-1.377,4.069H23.96z M26.844,111.078h4.57
			l-2.285-6.806L26.844,111.078z"/>
		<path d="M34.781,103.227h8.491v1.044h-3.695v11.919h-1.102v-11.919h-3.695V103.227z"/>
		<path d="M45.295,112.32c0.179,2.323,1.572,3.169,3.354,3.169c2.09,0,2.966-1.26,2.966-2.683c0-4.016-7.114-1.351-7.114-6.446
			c0-1.8,1.345-3.475,3.954-3.475c2.625,0,3.938,1.765,3.921,3.872h-1.053c0-1.981-1.377-2.827-2.868-2.827
			c-2.236,0-3.046,1.53-2.852,2.863c0.502,3.349,7.114,0.937,7.114,5.96c0,2.376-1.572,3.781-4.262,3.781
			c-2.431,0-4.229-1.405-4.229-4.213H45.295z"/>
		<path d="M57.543,116.227c-0.227,0.054-0.648,0.216-1.118,0.216c-0.956,0-1.491-0.468-1.491-1.854v-6.824h-1.183v-0.9h1.183v-2.593
			h0.973v2.593h1.572v0.9h-1.572v6.392c0,0.918,0.032,1.314,0.842,1.314c0.259,0,0.535-0.054,0.794-0.126V116.227z"/>
		<path d="M62.954,110.753c0.356-0.036,0.956-0.144,1.28-0.306c0.324-0.162,0.356-0.648,0.356-0.972c0-1.099-0.583-1.891-2.09-1.891
			c-1.345,0-2.269,0.486-2.447,2.106h-0.989c0.146-2.197,1.621-3.079,3.452-3.079c1.702,0,3.046,0.738,3.046,2.899v5.078
			c0,0.846,0.195,1.044,1.021,0.72v0.846c-0.146,0.054-0.486,0.18-0.762,0.18c-0.162,0-0.292-0.018-0.438-0.054
			c-0.648-0.108-0.762-0.738-0.778-1.386c-0.81,1.008-1.912,1.548-3.127,1.548c-1.475,0-2.803-0.882-2.803-2.683
			c0-1.566,0.972-2.521,2.933-2.809L62.954,110.753z M64.591,111.293c-0.827,0.378-1.669,0.45-2.512,0.522
			c-1.475,0.126-2.366,0.72-2.366,1.981c0,1.134,0.891,1.674,1.815,1.674c1.539,0,3.062-0.828,3.062-2.719V111.293z"/>
		<path d="M69.125,116.191h-0.972v-9.327h0.972v1.747h0.033c0.535-1.495,1.329-1.999,2.738-1.999v1.17
			c-2.188-0.054-2.771,1.747-2.771,3.835V116.191z"/>
		<path d="M76.449,116.227c-0.227,0.054-0.648,0.216-1.118,0.216c-0.956,0-1.491-0.468-1.491-1.854v-6.824h-1.183v-0.9h1.183v-2.593
			h0.973v2.593h1.572v0.9h-1.572v6.392c0,0.918,0.032,1.314,0.842,1.314c0.259,0,0.535-0.054,0.794-0.126V116.227z"/>
	</g>
	<g>
		<path d="M24.981,157.891v-12.964h4.262c3.03,0,3.808,1.674,3.808,3.619c0,2.899-2.317,3.619-4.473,3.619h-2.496v5.726H24.981z
			 M28.611,151.121c2.058,0,3.338-0.468,3.338-2.665c0-1.621-0.94-2.485-3.014-2.485h-2.852v5.149H28.611z"/>
		<path d="M33.906,144.927h1.151l3.516,11.523l3.5-11.523h1.15l-4.051,12.964h-1.215L33.906,144.927z"/>
	</g>
	<g>
		<path d="M25.483,196.087c0.179,2.323,1.572,3.169,3.354,3.169c2.09,0,2.966-1.26,2.966-2.683c0-4.016-7.114-1.351-7.114-6.446
			c0-1.8,1.345-3.475,3.954-3.475c2.625,0,3.938,1.765,3.921,3.872h-1.053c0-1.981-1.377-2.827-2.868-2.827
			c-2.236,0-3.046,1.53-2.852,2.863c0.502,3.349,7.114,0.937,7.114,5.96c0,2.376-1.572,3.781-4.262,3.781
			c-2.431,0-4.229-1.405-4.229-4.213H25.483z"/>
		<path d="M33.906,186.994h1.151l3.516,11.523l3.5-11.523h1.15l-4.051,12.964h-1.215L33.906,186.994z"/>
	</g>
	<g>
		<path d="M33.31,232.825c-0.454-2.215-1.686-3.061-3.679-3.061c-2.819,0-4.035,2.683-4.035,5.744c0,2.899,0.956,5.816,4.132,5.816
			c2.009,0,3.257-1.513,3.694-3.565h1.151c-0.519,2.502-1.929,4.609-5.056,4.609c-3.598,0-5.023-3.151-5.023-6.824
			c0-4.952,2.333-6.824,5.429-6.824c2.398,0,4.148,1.422,4.521,4.105H33.31z"/>
		<path d="M40.436,236.588c0.356-0.036,0.956-0.144,1.28-0.306s0.356-0.648,0.356-0.972c0-1.099-0.583-1.891-2.09-1.891
			c-1.345,0-2.269,0.486-2.447,2.106h-0.989c0.146-2.197,1.621-3.079,3.452-3.079c1.702,0,3.046,0.738,3.046,2.899v5.078
			c0,0.846,0.195,1.044,1.021,0.72v0.846c-0.146,0.054-0.486,0.18-0.762,0.18c-0.162,0-0.292-0.018-0.438-0.054
			c-0.648-0.108-0.762-0.738-0.778-1.386c-0.81,1.008-1.912,1.548-3.127,1.548c-1.475,0-2.803-0.882-2.803-2.683
			c0-1.566,0.972-2.521,2.933-2.809L40.436,236.588z M42.073,237.128c-0.827,0.378-1.669,0.45-2.512,0.522
			c-1.475,0.126-2.366,0.72-2.366,1.981c0,1.134,0.891,1.674,1.815,1.674c1.539,0,3.062-0.828,3.062-2.719V237.128z"/>
		<path d="M45.733,242.025v-12.964h0.972v12.964H45.733z"/>
		<path d="M55.13,235.633c-0.34-1.386-1.199-2.214-2.496-2.214c-1.993,0-2.819,2.017-2.819,3.961c0,1.963,0.81,3.925,2.819,3.925
			c1.442,0,2.35-0.954,2.577-2.503h1.037c-0.34,2.071-1.507,3.475-3.614,3.475c-2.673,0-3.856-2.143-3.856-4.897
			c0-2.593,1.345-4.934,3.856-4.934c1.929,0,3.192,1.026,3.484,3.187H55.13z"/>
		<path d="M57.283,229.062h8.491v1.044h-3.695v11.919h-1.102v-11.919h-3.695V229.062z"/>
		<path d="M67.295,230.664v-1.603h1.069v1.603H67.295z M67.344,242.025v-9.327h0.972v9.327H67.344z"/>
		<path d="M71.637,242.025h-0.972v-9.327h0.972v1.404h0.033c0.502-1.062,1.507-1.657,2.593-1.657c1.556,0,2.106,0.811,2.463,1.801
			c0.551-1.207,1.54-1.801,2.739-1.801c2.285,0,2.609,1.819,2.609,3.691v5.888H81.1v-6.446c0-1.333-0.421-2.161-1.799-2.161
			c-0.713,0-1.41,0.342-1.896,1.062c-0.421,0.612-0.551,1.747-0.551,2.521v5.023h-0.973v-6.446c0-1.333-0.421-2.161-1.798-2.161
			c-0.713,0-1.41,0.342-1.896,1.062c-0.421,0.612-0.551,1.747-0.551,2.521V242.025z"/>
		<path d="M84.888,237.614c-0.016,2.017,0.956,3.691,2.82,3.691c1.264,0,2.252-0.774,2.544-2.143h1.085
			c-0.486,1.765-1.491,3.115-3.63,3.115c-2.69,0-3.857-2.125-3.857-4.879c0-2.719,1.458-4.952,3.857-4.952
			c2.301,0,3.711,1.819,3.695,5.168H84.888z M90.366,236.714c0-1.818-0.908-3.295-2.658-3.295c-1.718,0-2.625,1.53-2.82,3.295
			H90.366z"/>
	</g>
	<g>
		<path d="M25.029,284.093v-12.964h1.102v11.919h6.255v1.044H25.029z"/>
		<path d="M33.988,272.731v-1.603h1.069v1.603H33.988z M34.036,284.093v-9.327h0.972v9.327H34.036z"/>
		<path d="M38.329,284.093h-0.972v-9.327h0.972v1.404h0.033c0.502-1.062,1.507-1.657,2.593-1.657c1.556,0,2.106,0.811,2.463,1.801
			c0.551-1.207,1.54-1.801,2.739-1.801c2.285,0,2.609,1.819,2.609,3.691v5.888h-0.972v-6.446c0-1.333-0.421-2.161-1.799-2.161
			c-0.713,0-1.41,0.342-1.896,1.062c-0.421,0.612-0.551,1.747-0.551,2.521v5.023h-0.973v-6.446c0-1.333-0.421-2.161-1.798-2.161
			c-0.713,0-1.41,0.342-1.896,1.062c-0.421,0.612-0.551,1.747-0.551,2.521V284.093z"/>
		<path d="M51.079,272.731v-1.603h1.069v1.603H51.079z M51.127,284.093v-9.327h0.972v9.327H51.127z"/>
		<path d="M57.527,284.129c-0.227,0.054-0.648,0.216-1.118,0.216c-0.956,0-1.491-0.468-1.491-1.854v-6.824h-1.183v-0.9h1.183v-2.593
			h0.973v2.593h1.572v0.9H55.89v6.392c0,0.918,0.032,1.314,0.842,1.314c0.259,0,0.535-0.054,0.794-0.126V284.129z"/>
		<path d="M59.179,284.093v-12.964h1.685l3.824,11.434h0.033l3.759-11.434h1.669v12.964h-1.102v-11.56h-0.033l-3.824,11.56h-1.037
			l-3.84-11.56H60.28v11.56H59.179z"/>
		<path d="M72.673,272.731v-1.603h1.069v1.603H72.673z M72.721,284.093v-9.327h0.972v9.327H72.721z"/>
		<path d="M77.144,284.093h-0.972v-9.327h0.972v1.296c0.778-0.918,1.54-1.549,2.706-1.549c1.021,0,1.961,0.36,2.561,1.333
			c0.405,0.667,0.421,1.369,0.421,2.143v6.104H81.86v-6.086c0-1.674-0.616-2.521-2.171-2.521c-1.199,0-2.025,0.864-2.333,1.818
			c-0.194,0.594-0.21,1.116-0.21,1.765V284.093z"/>
		<path d="M85.277,284.093v-12.964h1.685l3.824,11.434h0.033l3.759-11.434h1.669v12.964h-1.102v-11.56h-0.033l-3.824,11.56h-1.037
			l-3.84-11.56h-0.033v11.56H85.277z"/>
		<path d="M97.799,271.129h1.151l3.516,11.523l3.5-11.523h1.15l-4.051,12.964h-1.215L97.799,271.129z"/>
	</g>
	<g>
		<path d="M25.029,326.161v-12.964h1.102v11.919h6.255v1.044H25.029z"/>
		<path d="M33.988,314.799v-1.603h1.069v1.603H33.988z M34.036,326.161v-9.327h0.972v9.327H34.036z"/>
		<path d="M38.329,326.161h-0.972v-9.327h0.972v1.404h0.033c0.502-1.062,1.507-1.657,2.593-1.657c1.556,0,2.106,0.811,2.463,1.801
			c0.551-1.207,1.54-1.801,2.739-1.801c2.285,0,2.609,1.819,2.609,3.691v5.888h-0.972v-6.446c0-1.333-0.421-2.161-1.799-2.161
			c-0.713,0-1.41,0.342-1.896,1.062c-0.421,0.612-0.551,1.747-0.551,2.521v5.023h-0.973v-6.446c0-1.333-0.421-2.161-1.798-2.161
			c-0.713,0-1.41,0.342-1.896,1.062c-0.421,0.612-0.551,1.747-0.551,2.521V326.161z"/>
		<path d="M51.079,314.799v-1.603h1.069v1.603H51.079z M51.127,326.161v-9.327h0.972v9.327H51.127z"/>
		<path d="M57.527,326.197c-0.227,0.054-0.648,0.216-1.118,0.216c-0.956,0-1.491-0.468-1.491-1.854v-6.824h-1.183v-0.9h1.183v-2.593
			h0.973v2.593h1.572v0.9H55.89v6.392c0,0.918,0.032,1.314,0.842,1.314c0.259,0,0.535-0.054,0.794-0.126V326.197z"/>
		<path d="M59.179,326.161v-12.964h1.685l3.824,11.434h0.033l3.759-11.434h1.669v12.964h-1.102v-11.56h-0.033l-3.824,11.56h-1.037
			l-3.84-11.56H60.28v11.56H59.179z"/>
		<path d="M76.432,320.723c0.356-0.036,0.956-0.144,1.28-0.306s0.356-0.648,0.356-0.972c0-1.099-0.583-1.891-2.09-1.891
			c-1.345,0-2.269,0.486-2.447,2.106h-0.989c0.146-2.197,1.621-3.079,3.452-3.079c1.702,0,3.046,0.738,3.046,2.899v5.078
			c0,0.846,0.195,1.044,1.021,0.72v0.846c-0.146,0.054-0.486,0.18-0.762,0.18c-0.162,0-0.292-0.018-0.438-0.054
			c-0.648-0.108-0.762-0.738-0.778-1.386c-0.81,1.008-1.912,1.548-3.127,1.548c-1.475,0-2.803-0.882-2.803-2.683
			c0-1.566,0.972-2.521,2.933-2.809L76.432,320.723z M78.069,321.263c-0.827,0.378-1.669,0.45-2.512,0.522
			c-1.475,0.126-2.366,0.72-2.366,1.981c0,1.134,0.891,1.674,1.815,1.674c1.539,0,3.062-0.828,3.062-2.719V321.263z"/>
		<path d="M84.5,322.127l-2.609,4.033h-1.183l3.225-4.825l-2.966-4.501h1.199l2.317,3.709l2.382-3.709h1.231l-3.03,4.501
			l3.144,4.825h-1.167L84.5,322.127z"/>
		<path d="M89.781,326.161v-12.964h1.685l3.824,11.434h0.033l3.759-11.434h1.669v12.964h-1.102v-11.56h-0.033l-3.824,11.56h-1.037
			l-3.84-11.56h-0.033v11.56H89.781z"/>
		<path d="M102.303,313.197h1.151l3.516,11.523l3.5-11.523h1.15l-4.051,12.964h-1.215L102.303,313.197z"/>
	</g>
	<g>
		<path d="M25.029,367.959v-12.964h3.986c1.296,0,2.512,0.09,3.598,0.972c1.54,1.243,1.944,3.764,1.944,5.492
			c0,1.71-0.34,3.619-1.41,4.915c-1.069,1.333-2.593,1.585-4.132,1.585H25.029z M26.131,366.914h2.642
			c0.988,0,1.847-0.071,2.738-0.594c1.556-0.882,1.945-3.097,1.945-4.861c0-1.891-0.373-3.961-2.01-4.934
			c-0.697-0.414-1.701-0.486-2.673-0.486h-2.642V366.914z"/>
		<path d="M36.677,356.597v-1.603h1.069v1.603H36.677z M36.725,367.959v-9.327h0.972v9.327H36.725z"/>
		<path d="M41.197,367.959h-0.972v-9.327h0.972v1.747h0.033c0.535-1.495,1.329-1.999,2.738-1.999v1.17
			c-2.188-0.054-2.771,1.747-2.771,3.836V367.959z"/>
		<path d="M46.17,363.547c-0.016,2.017,0.957,3.69,2.82,3.69c1.264,0,2.252-0.774,2.544-2.143h1.086
			c-0.486,1.765-1.491,3.115-3.63,3.115c-2.69,0-3.857-2.125-3.857-4.88c0-2.719,1.458-4.951,3.857-4.951
			c2.301,0,3.711,1.818,3.695,5.168H46.17z M51.647,362.647c0-1.818-0.908-3.295-2.658-3.295c-1.718,0-2.625,1.53-2.82,3.295H51.647
			z"/>
		<path d="M60.525,361.566c-0.34-1.386-1.199-2.214-2.496-2.214c-1.993,0-2.819,2.017-2.819,3.961c0,1.963,0.81,3.925,2.819,3.925
			c1.442,0,2.35-0.954,2.577-2.503h1.037c-0.34,2.071-1.507,3.476-3.614,3.476c-2.673,0-3.856-2.143-3.856-4.897
			c0-2.593,1.345-4.934,3.856-4.934c1.929,0,3.192,1.026,3.484,3.187H60.525z"/>
		<path d="M66.534,367.995c-0.227,0.054-0.648,0.216-1.118,0.216c-0.956,0-1.491-0.468-1.491-1.854v-6.824h-1.183v-0.9h1.183v-2.593
			h0.973v2.593h1.572v0.9h-1.572v6.392c0,0.919,0.032,1.314,0.842,1.314c0.259,0,0.535-0.054,0.794-0.126V367.995z"/>
		<path d="M68.186,356.597v-1.603h1.069v1.603H68.186z M68.234,367.959v-9.327h0.972v9.327H68.234z"/>
		<path d="M71.134,363.294c0-2.719,1.296-4.915,3.889-4.915c2.625,0,3.889,2.179,3.889,4.915c0,2.953-1.54,4.916-3.889,4.916
			C72.884,368.174,71.134,366.554,71.134,363.294z M75.023,359.352c-2.042,0-2.852,1.926-2.852,3.942
			c0,2.323,0.989,3.943,2.852,3.943c2.042,0,2.852-1.944,2.852-3.943C77.859,361.098,77.081,359.352,75.023,359.352z"/>
		<path d="M81.664,367.959h-0.973v-9.327h0.973v1.297c0.778-0.919,1.54-1.549,2.706-1.549c1.021,0,1.961,0.36,2.561,1.332
			c0.405,0.667,0.421,1.369,0.421,2.143v6.104H86.38v-6.086c0-1.675-0.616-2.521-2.171-2.521c-1.199,0-2.025,0.864-2.333,1.818
			c-0.194,0.594-0.21,1.116-0.21,1.765V367.959z"/>
	</g>
	<g>
		<path d="M24.981,410.025v-12.964h4.262c3.03,0,3.808,1.675,3.808,3.619c0,2.899-2.317,3.619-4.473,3.619h-2.496v5.726H24.981z
			 M28.611,403.255c2.058,0,3.338-0.469,3.338-2.665c0-1.62-0.94-2.484-3.014-2.484h-2.852v5.149H28.611z"/>
	</g>
	<g>
		<path d="M23.976,438.859h8.491v1.045h-3.694v11.919h-1.102v-11.919h-3.695V438.859z"/>
		<path d="M33.988,440.461v-1.603h1.069v1.603H33.988z M34.036,451.823v-9.326h0.972v9.326H34.036z"/>
	</g>
	<g>
		<path d="M23.976,480.926h8.491v1.045h-3.694v11.919h-1.102v-11.919h-3.695V480.926z"/>
		<path d="M40.372,480.926h0.973v12.964h-0.973v-1.639H40.34c-0.567,1.225-1.847,1.891-2.917,1.891
			c-2.706,0-3.792-2.143-3.792-4.897c0-2.61,1.183-4.934,3.744-4.934c1.183,0,2.382,0.612,2.998,1.747V480.926z M37.537,485.284
			c-2.01,0-2.949,1.891-2.869,4.231c0.017,2.341,1.232,3.655,2.869,3.655c1.831,0,2.835-1.729,2.835-3.979
			C40.372,487.085,39.303,485.284,37.537,485.284z"/>
	</g>
	<g>
		<path d="M23.96,535.959l4.586-12.964h1.248l4.473,12.964h-1.134l-1.345-4.069h-5.315l-1.377,4.069H23.96z M26.844,530.845h4.57
			l-2.285-6.807L26.844,530.845z"/>
		<path d="M35.834,535.959v-12.964h0.972v12.964H35.834z"/>
		<path d="M40.37,539.631h-0.972v-13h0.972v1.639h0.032c0.567-1.225,1.848-1.891,2.917-1.891c2.706,0,3.792,2.143,3.792,4.897
			c0,2.61-1.183,4.934-3.743,4.934c-1.183,0-2.382-0.612-2.998-1.747V539.631z M43.206,535.238c2.009,0,2.949-1.891,2.868-4.231
			c-0.016-2.34-1.231-3.654-2.868-3.654c-1.831,0-2.836,1.729-2.836,3.979C40.37,533.438,41.44,535.238,43.206,535.238z"/>
		<path d="M49.183,535.959v-12.964h0.972v4.934c0.778-0.919,1.54-1.549,2.706-1.549c1.021,0,1.961,0.36,2.561,1.332
			c0.405,0.667,0.421,1.369,0.421,2.143v6.104H54.87v-6.086c0-1.675-0.616-2.521-2.171-2.521c-1.199,0-2.025,0.864-2.333,1.818
			c-0.194,0.594-0.21,1.116-0.21,1.765v5.023H49.183z"/>
		<path d="M62.047,530.521c0.356-0.036,0.956-0.145,1.28-0.307s0.356-0.648,0.356-0.972c0-1.099-0.583-1.891-2.09-1.891
			c-1.345,0-2.269,0.485-2.447,2.106h-0.989c0.146-2.197,1.621-3.079,3.452-3.079c1.702,0,3.046,0.738,3.046,2.898v5.078
			c0,0.846,0.195,1.044,1.021,0.72v0.847c-0.146,0.054-0.486,0.18-0.762,0.18c-0.162,0-0.292-0.018-0.438-0.054
			c-0.648-0.108-0.762-0.738-0.778-1.387c-0.81,1.009-1.912,1.549-3.127,1.549c-1.475,0-2.803-0.883-2.803-2.683
			c0-1.566,0.972-2.521,2.933-2.81L62.047,530.521z M63.683,531.061c-0.827,0.378-1.669,0.45-2.512,0.521
			c-1.475,0.127-2.366,0.721-2.366,1.981c0,1.134,0.891,1.674,1.815,1.674c1.539,0,3.062-0.828,3.062-2.719V531.061z"/>
	</g>
	<g>
		<path d="M25.029,578.026v-12.964h4.213c2.739,0,3.824,1.314,3.824,3.259c0,1.801-0.924,2.61-1.863,2.791v0.036
			c1.604,0.27,2.398,1.512,2.398,3.223c0,2.701-1.588,3.655-3.808,3.655H25.029z M26.131,570.788h2.787
			c2.301,0,3.046-0.9,3.046-2.467c0-1.62-0.875-2.215-3.29-2.215h-2.544V570.788z M26.131,576.981h2.803
			c2.431,0,3.565-0.359,3.565-2.61c0-2.143-1.361-2.539-3.436-2.539h-2.933V576.981z"/>
		<path d="M36.288,573.615c-0.016,2.017,0.957,3.69,2.82,3.69c1.264,0,2.252-0.774,2.544-2.143h1.086
			c-0.486,1.765-1.491,3.115-3.63,3.115c-2.69,0-3.857-2.125-3.857-4.88c0-2.719,1.458-4.951,3.857-4.951
			c2.301,0,3.711,1.818,3.695,5.168H36.288z M41.765,572.714c0-1.818-0.908-3.295-2.658-3.295c-1.718,0-2.625,1.53-2.82,3.295
			H41.765z"/>
		<path d="M47.645,578.062c-0.227,0.054-0.648,0.216-1.118,0.216c-0.956,0-1.491-0.468-1.491-1.854v-6.824h-1.183v-0.9h1.183v-2.593
			h0.973v2.593h1.572v0.9h-1.572v6.392c0,0.919,0.032,1.314,0.842,1.314c0.259,0,0.535-0.054,0.794-0.126V578.062z"/>
		<path d="M53.056,572.588c0.356-0.036,0.956-0.145,1.28-0.307s0.356-0.648,0.356-0.972c0-1.099-0.583-1.891-2.09-1.891
			c-1.345,0-2.269,0.485-2.447,2.106h-0.989c0.146-2.197,1.621-3.079,3.452-3.079c1.702,0,3.046,0.738,3.046,2.898v5.078
			c0,0.846,0.195,1.044,1.021,0.72v0.847c-0.146,0.054-0.486,0.18-0.762,0.18c-0.162,0-0.292-0.018-0.438-0.054
			c-0.648-0.108-0.762-0.738-0.778-1.387c-0.81,1.009-1.912,1.549-3.127,1.549c-1.475,0-2.803-0.883-2.803-2.683
			c0-1.566,0.972-2.521,2.933-2.81L53.056,572.588z M54.693,573.128c-0.826,0.378-1.669,0.45-2.512,0.521
			c-1.475,0.127-2.366,0.721-2.366,1.981c0,1.134,0.891,1.674,1.815,1.674c1.539,0,3.062-0.828,3.062-2.719V573.128z"/>
	</g>
	<g>
		<path d="M29.988,614.439v-1.044h4.991v6.698h-0.94v-2.215c-0.81,1.549-2.058,2.557-4.359,2.557c-2.949,0-5.104-2.286-5.104-6.896
			c0-3.8,1.718-6.753,5.396-6.753c2.447,0,4.375,1.333,4.878,4.105h-1.134c-0.389-1.944-1.929-3.061-3.663-3.061
			c-3.079,0-4.375,2.521-4.375,6.193c0,2.863,1.556,5.366,4.229,5.366c1.264,0,2.754-0.595,3.516-2.269
			c0.373-0.811,0.486-1.711,0.502-2.684H29.988z"/>
		<path d="M41.344,614.656c0.356-0.036,0.956-0.145,1.28-0.307s0.356-0.648,0.356-0.972c0-1.099-0.583-1.891-2.09-1.891
			c-1.345,0-2.269,0.485-2.447,2.106h-0.989c0.146-2.197,1.621-3.079,3.452-3.079c1.702,0,3.046,0.738,3.046,2.898v5.078
			c0,0.846,0.195,1.044,1.021,0.72v0.847c-0.146,0.054-0.486,0.18-0.762,0.18c-0.162,0-0.292-0.018-0.438-0.054
			c-0.648-0.108-0.762-0.738-0.778-1.387c-0.81,1.009-1.912,1.549-3.127,1.549c-1.475,0-2.803-0.883-2.803-2.683
			c0-1.566,0.972-2.521,2.933-2.81L41.344,614.656z M42.98,615.196c-0.827,0.378-1.669,0.45-2.512,0.521
			c-1.475,0.127-2.366,0.721-2.366,1.981c0,1.134,0.891,1.674,1.815,1.674c1.539,0,3.062-0.828,3.062-2.719V615.196z"/>
		<path d="M47.337,620.093h-0.972v-9.327h0.972v1.404h0.033c0.502-1.062,1.507-1.656,2.593-1.656c1.556,0,2.106,0.811,2.463,1.801
			c0.551-1.207,1.54-1.801,2.739-1.801c2.285,0,2.609,1.818,2.609,3.691v5.888h-0.972v-6.446c0-1.332-0.421-2.16-1.799-2.16
			c-0.713,0-1.41,0.342-1.896,1.062c-0.421,0.612-0.551,1.747-0.551,2.521v5.023h-0.973v-6.446c0-1.332-0.421-2.16-1.798-2.16
			c-0.713,0-1.41,0.342-1.896,1.062c-0.421,0.612-0.551,1.747-0.551,2.521V620.093z"/>
		<path d="M60.831,620.093h-0.972v-9.327h0.972v1.404h0.033c0.502-1.062,1.507-1.656,2.593-1.656c1.556,0,2.106,0.811,2.463,1.801
			c0.551-1.207,1.54-1.801,2.739-1.801c2.285,0,2.609,1.818,2.609,3.691v5.888h-0.972v-6.446c0-1.332-0.421-2.16-1.799-2.16
			c-0.713,0-1.41,0.342-1.896,1.062c-0.421,0.612-0.551,1.747-0.551,2.521v5.023h-0.973v-6.446c0-1.332-0.421-2.16-1.798-2.16
			c-0.713,0-1.41,0.342-1.896,1.062c-0.421,0.612-0.551,1.747-0.551,2.521V620.093z"/>
		<path d="M77.34,614.656c0.356-0.036,0.956-0.145,1.28-0.307s0.356-0.648,0.356-0.972c0-1.099-0.583-1.891-2.09-1.891
			c-1.345,0-2.269,0.485-2.447,2.106h-0.989c0.146-2.197,1.621-3.079,3.452-3.079c1.702,0,3.046,0.738,3.046,2.898v5.078
			c0,0.846,0.195,1.044,1.021,0.72v0.847c-0.146,0.054-0.486,0.18-0.762,0.18c-0.162,0-0.292-0.018-0.438-0.054
			c-0.648-0.108-0.762-0.738-0.778-1.387c-0.81,1.009-1.912,1.549-3.127,1.549c-1.475,0-2.803-0.883-2.803-2.683
			c0-1.566,0.972-2.521,2.933-2.81L77.34,614.656z M78.977,615.196c-0.826,0.378-1.669,0.45-2.512,0.521
			c-1.475,0.127-2.366,0.721-2.366,1.981c0,1.134,0.891,1.674,1.815,1.674c1.539,0,3.062-0.828,3.062-2.719V615.196z"/>
	</g>
	<g>
		<path d="M23.96,661.89l4.586-12.964h1.248l4.473,12.964h-1.134l-1.345-4.069h-5.315l-1.377,4.069H23.96z M26.844,656.777h4.57
			l-2.285-6.806L26.844,656.777z"/>
		<path d="M34.781,648.926h8.491v1.045h-3.695v11.919h-1.102v-11.919h-3.695V648.926z"/>
		<path d="M44.826,661.89v-12.964h1.102v5.563h6.903v-5.563h1.102v12.964h-1.102v-6.355h-6.903v6.355H44.826z"/>
		<path d="M56.327,664.429c0.259,0.054,0.535,0.108,0.81,0.108c1.102,0,1.264-1.765,1.637-2.575l-3.257-9.398h1.086l2.69,8.012
			l2.69-8.012h1.053l-3.127,9.2c-0.794,2.341-1.312,3.799-2.658,3.799c-0.34,0-0.664-0.054-0.923-0.126V664.429z"/>
		<path d="M65.059,658.973c0.308,1.603,1.053,2.197,2.512,2.197c1.41,0,2.074-0.828,2.074-1.729c0-2.701-5.38-0.793-5.38-4.466
			c0-1.548,1.085-2.665,2.949-2.665c1.815,0,2.998,0.829,3.241,2.936h-0.988c-0.178-1.44-1.053-1.963-2.269-1.963
			c-1.231,0-1.896,0.648-1.896,1.603c0,2.539,5.38,0.954,5.38,4.537c0,1.783-1.442,2.719-3.419,2.719
			c-1.977,0-3.111-1.404-3.192-3.169H65.059z"/>
	</g>
	<g>
		<path d="M23.96,703.959l4.586-12.965h1.248l4.473,12.965h-1.134l-1.345-4.07h-5.315l-1.377,4.07H23.96z M26.844,698.845h4.57
			l-2.285-6.807L26.844,698.845z"/>
		<path d="M34.781,690.994h8.491v1.045h-3.695v11.92h-1.102v-11.92h-3.695V690.994z"/>
		<path d="M44.728,703.959v-12.965h7.519v1.045H45.83v4.682h5.833v1.044H45.83v6.194H44.728z"/>
		<path d="M53.801,692.597v-1.604h1.069v1.604H53.801z M53.849,703.959v-9.327h0.972v9.327H53.849z"/>
		<path d="M58.272,703.959h-0.973v-9.327h0.973v1.296c0.778-0.918,1.54-1.549,2.706-1.549c1.021,0,1.961,0.361,2.561,1.333
			c0.405,0.667,0.421,1.368,0.421,2.143v6.104h-0.973v-6.086c0-1.675-0.616-2.521-2.171-2.521c-1.199,0-2.025,0.865-2.333,1.818
			c-0.194,0.595-0.21,1.117-0.21,1.766V703.959z"/>
		<path d="M66.906,699.546c-0.016,2.018,0.957,3.691,2.82,3.691c1.264,0,2.252-0.774,2.544-2.143h1.086
			c-0.486,1.765-1.491,3.115-3.63,3.115c-2.69,0-3.857-2.125-3.857-4.88c0-2.719,1.458-4.952,3.857-4.952
			c2.301,0,3.711,1.819,3.695,5.168H66.906z M72.384,698.646c0-1.818-0.908-3.295-2.658-3.295c-1.718,0-2.625,1.531-2.82,3.295
			H72.384z"/>
		<path d="M74.407,690.994h8.491v1.045h-3.694v11.92h-1.102v-11.92h-3.695V690.994z"/>
		<path d="M90.009,694.631h0.973v9.327h-0.973v-1.297c-0.519,0.648-1.231,1.549-2.706,1.549c-2.236,0-2.981-1.494-2.981-3.439v-6.14
			h0.972v6.122c0,1.602,0.632,2.484,2.155,2.484c1.604,0,2.56-1.477,2.56-3.529V694.631z"/>
		<path d="M94.301,703.959h-0.973v-9.327h0.973v1.296c0.778-0.918,1.54-1.549,2.706-1.549c1.021,0,1.961,0.361,2.561,1.333
			c0.405,0.667,0.421,1.368,0.421,2.143v6.104h-0.973v-6.086c0-1.675-0.616-2.521-2.171-2.521c-1.199,0-2.025,0.865-2.333,1.818
			c-0.194,0.595-0.21,1.117-0.21,1.766V703.959z"/>
		<path d="M102.935,699.546c-0.016,2.018,0.957,3.691,2.82,3.691c1.264,0,2.252-0.774,2.544-2.143h1.086
			c-0.486,1.765-1.491,3.115-3.63,3.115c-2.69,0-3.857-2.125-3.857-4.88c0-2.719,1.458-4.952,3.857-4.952
			c2.301,0,3.711,1.819,3.695,5.168H102.935z M108.413,698.646c0-1.818-0.908-3.295-2.658-3.295c-1.718,0-2.625,1.531-2.82,3.295
			H108.413z"/>
	</g>
	<g>
		<path d="M24.981,746.026v-12.964h1.685l3.824,11.434h0.033l3.759-11.434h1.669v12.964h-1.102v-11.56h-0.033l-3.824,11.56h-1.037
			l-3.84-11.56h-0.033v11.56H24.981z"/>
		<path d="M42.235,740.588c0.356-0.036,0.956-0.145,1.28-0.307s0.356-0.648,0.356-0.972c0-1.099-0.583-1.891-2.09-1.891
			c-1.345,0-2.269,0.485-2.447,2.106h-0.989c0.146-2.197,1.621-3.079,3.452-3.079c1.702,0,3.046,0.738,3.046,2.898v5.078
			c0,0.846,0.195,1.044,1.021,0.72v0.847c-0.146,0.054-0.486,0.18-0.762,0.18c-0.162,0-0.292-0.018-0.438-0.054
			c-0.648-0.108-0.762-0.738-0.778-1.387c-0.81,1.009-1.912,1.549-3.127,1.549c-1.475,0-2.803-0.883-2.803-2.683
			c0-1.566,0.972-2.521,2.933-2.81L42.235,740.588z M43.871,741.128c-0.826,0.378-1.669,0.45-2.512,0.521
			c-1.475,0.127-2.366,0.721-2.366,1.981c0,1.134,0.891,1.674,1.815,1.674c1.539,0,3.062-0.828,3.062-2.719V741.128z"/>
		<path d="M48.358,746.026h-0.973v-9.327h0.973v1.297c0.778-0.919,1.54-1.549,2.706-1.549c1.021,0,1.961,0.36,2.561,1.332
			c0.405,0.667,0.421,1.369,0.421,2.143v6.104h-0.973v-6.086c0-1.675-0.616-2.521-2.171-2.521c-1.199,0-2.025,0.864-2.333,1.818
			c-0.194,0.594-0.21,1.116-0.21,1.765V746.026z"/>
		<path d="M62.08,736.699h0.973v9.327H62.08v-1.297c-0.519,0.648-1.231,1.549-2.706,1.549c-2.236,0-2.981-1.494-2.981-3.439v-6.14
			h0.972v6.122c0,1.603,0.632,2.484,2.155,2.484c1.604,0,2.56-1.477,2.56-3.528V736.699z"/>
		<path d="M69.257,740.588c0.356-0.036,0.956-0.145,1.28-0.307s0.356-0.648,0.356-0.972c0-1.099-0.583-1.891-2.09-1.891
			c-1.345,0-2.269,0.485-2.447,2.106h-0.989c0.146-2.197,1.621-3.079,3.452-3.079c1.702,0,3.046,0.738,3.046,2.898v5.078
			c0,0.846,0.195,1.044,1.021,0.72v0.847c-0.146,0.054-0.486,0.18-0.762,0.18c-0.162,0-0.292-0.018-0.438-0.054
			c-0.648-0.108-0.762-0.738-0.778-1.387c-0.81,1.009-1.912,1.549-3.127,1.549c-1.475,0-2.803-0.883-2.803-2.683
			c0-1.566,0.972-2.521,2.933-2.81L69.257,740.588z M70.893,741.128c-0.827,0.378-1.669,0.45-2.512,0.521
			c-1.475,0.127-2.366,0.721-2.366,1.981c0,1.134,0.891,1.674,1.815,1.674c1.539,0,3.062-0.828,3.062-2.719V741.128z"/>
		<path d="M74.553,746.026v-12.964h0.972v12.964H74.553z"/>
		<path d="M78.101,746.026v-12.964h1.685l3.824,11.434h0.033l3.759-11.434h1.669v12.964H87.97v-11.56h-0.033l-3.824,11.56h-1.037
			l-3.84-11.56h-0.033v11.56H78.101z"/>
		<path d="M90.623,733.062h1.151l3.516,11.523l3.5-11.523h1.15l-4.051,12.964h-1.215L90.623,733.062z"/>
	</g>
	<g>
		<path d="M24.981,787.823v-12.964h1.685l3.824,11.434h0.033l3.759-11.434h1.669v12.964h-1.102v-11.56h-0.033l-3.824,11.56h-1.037
			l-3.84-11.56h-0.033v11.56H24.981z"/>
		<path d="M37.503,774.859h1.151l3.516,11.523l3.5-11.523h1.15l-4.051,12.964h-1.215L37.503,774.859z"/>
	</g>
	<g>
		<path d="M213.202,34.657c0.179,2.323,1.572,3.169,3.354,3.169c2.09,0,2.966-1.26,2.966-2.683c0-4.016-7.114-1.351-7.114-6.446
			c0-1.8,1.345-3.475,3.954-3.475c2.625,0,3.938,1.765,3.921,3.872h-1.053c0-1.981-1.378-2.827-2.868-2.827
			c-2.236,0-3.047,1.53-2.853,2.863c0.503,3.349,7.114,0.937,7.114,5.96c0,2.376-1.572,3.781-4.262,3.781
			c-2.431,0-4.229-1.405-4.229-4.213H213.202z"/>
		<path d="M225.451,38.564c-0.228,0.054-0.648,0.216-1.118,0.216c-0.956,0-1.491-0.468-1.491-1.854v-6.824h-1.183v-0.9h1.183v-2.593
			h0.973v2.593h1.571v0.9h-1.571v6.392c0,0.918,0.032,1.314,0.842,1.314c0.26,0,0.535-0.054,0.795-0.126V38.564z"/>
		<path d="M230.861,33.09c0.356-0.036,0.956-0.144,1.28-0.306s0.356-0.648,0.356-0.972c0-1.099-0.583-1.891-2.09-1.891
			c-1.346,0-2.269,0.486-2.447,2.106h-0.988c0.146-2.197,1.62-3.079,3.451-3.079c1.702,0,3.047,0.738,3.047,2.899v5.078
			c0,0.846,0.194,1.044,1.021,0.72v0.846c-0.146,0.054-0.485,0.18-0.762,0.18c-0.162,0-0.291-0.018-0.438-0.054
			c-0.647-0.108-0.762-0.738-0.777-1.386c-0.811,1.008-1.912,1.548-3.128,1.548c-1.475,0-2.803-0.882-2.803-2.683
			c0-1.566,0.972-2.521,2.933-2.809L230.861,33.09z M232.497,33.63c-0.826,0.378-1.669,0.45-2.512,0.522
			c-1.475,0.126-2.365,0.72-2.365,1.981c0,1.134,0.891,1.674,1.814,1.674c1.539,0,3.062-0.828,3.062-2.719V33.63z"/>
		<path d="M238.961,38.564c-0.228,0.054-0.648,0.216-1.118,0.216c-0.956,0-1.491-0.468-1.491-1.854v-6.824h-1.183v-0.9h1.183v-2.593
			h0.973v2.593h1.571v0.9h-1.571v6.392c0,0.918,0.032,1.314,0.842,1.314c0.26,0,0.535-0.054,0.795-0.126V38.564z"/>
		<path d="M246.202,29.201h0.973v9.327h-0.973v-1.296c-0.519,0.648-1.231,1.548-2.706,1.548c-2.236,0-2.981-1.494-2.981-3.439v-6.14
			h0.973v6.122c0,1.603,0.632,2.485,2.155,2.485c1.604,0,2.56-1.477,2.56-3.529V29.201z"/>
		<path d="M250.089,35.611c0.309,1.603,1.054,2.197,2.512,2.197c1.41,0,2.074-0.828,2.074-1.729c0-2.701-5.38-0.792-5.38-4.465
			c0-1.548,1.086-2.665,2.949-2.665c1.815,0,2.998,0.829,3.241,2.935h-0.988c-0.179-1.44-1.054-1.962-2.269-1.962
			c-1.231,0-1.896,0.648-1.896,1.603c0,2.539,5.38,0.954,5.38,4.537c0,1.783-1.442,2.719-3.419,2.719s-3.111-1.404-3.192-3.169
			H250.089z"/>
	</g>
	<g>
		<path d="M198.168,74.123l4.586-12.964h1.248l4.473,12.964h-1.135l-1.345-4.069h-5.315l-1.377,4.069H198.168z M201.053,69.01h4.569
			l-2.284-6.806L201.053,69.01z"/>
		<path d="M208.99,61.159h8.491v1.044h-3.694v11.919h-1.102V62.204h-3.695V61.159z"/>
		<path d="M219.05,74.123V61.159h3.986c1.297,0,2.512,0.09,3.598,0.972c1.54,1.243,1.944,3.763,1.944,5.492
			c0,1.71-0.34,3.619-1.409,4.916c-1.069,1.333-2.593,1.584-4.133,1.584H219.05z M220.153,73.079h2.642
			c0.988,0,1.847-0.072,2.738-0.594c1.556-0.882,1.944-3.097,1.944-4.861c0-1.891-0.373-3.961-2.01-4.934
			c-0.696-0.414-1.701-0.486-2.673-0.486h-2.642V73.079z"/>
		<path d="M230.05,69.46c0-2.719,1.296-4.916,3.889-4.916c2.626,0,3.89,2.179,3.89,4.916c0,2.953-1.54,4.916-3.89,4.916
			C231.8,74.339,230.05,72.719,230.05,69.46z M233.939,65.517c-2.041,0-2.852,1.926-2.852,3.943c0,2.323,0.988,3.943,2.852,3.943
			c2.042,0,2.853-1.945,2.853-3.943C236.775,67.263,235.997,65.517,233.939,65.517z"/>
		<path d="M240.58,74.123h-0.972v-9.327h0.972v1.296c0.778-0.918,1.54-1.549,2.706-1.549c1.021,0,1.961,0.36,2.561,1.333
			c0.405,0.667,0.422,1.369,0.422,2.143v6.104h-0.973v-6.086c0-1.674-0.616-2.521-2.172-2.521c-1.199,0-2.025,0.864-2.333,1.818
			c-0.194,0.594-0.211,1.116-0.211,1.765V74.123z"/>
		<path d="M249.215,69.712c-0.017,2.017,0.956,3.691,2.819,3.691c1.265,0,2.253-0.774,2.545-2.143h1.085
			c-0.486,1.765-1.49,3.115-3.63,3.115c-2.689,0-3.856-2.125-3.856-4.879c0-2.719,1.458-4.952,3.856-4.952
			c2.302,0,3.711,1.819,3.695,5.168H249.215z M254.693,68.812c0-1.818-0.908-3.295-2.658-3.295c-1.718,0-2.625,1.53-2.819,3.295
			H254.693z"/>
	</g>
	<g>
		<path d="M200.874,116.191l4.586-12.964h1.247l4.473,12.964h-1.134l-1.346-4.069h-5.314l-1.378,4.069H200.874z M203.758,111.078
			h4.57l-2.285-6.806L203.758,111.078z"/>
		<path d="M211.696,103.227h8.491v1.044h-3.694v11.919h-1.103v-11.919h-3.694V103.227z"/>
		<path d="M221.756,116.191v-12.964h4.213c2.739,0,3.824,1.314,3.824,3.259c0,1.801-0.923,2.611-1.863,2.791v0.036
			c1.604,0.27,2.398,1.512,2.398,3.223c0,2.701-1.588,3.655-3.809,3.655H221.756z M222.858,108.953h2.787
			c2.302,0,3.047-0.9,3.047-2.467c0-1.62-0.875-2.214-3.29-2.214h-2.544V108.953z M222.858,115.147h2.804
			c2.431,0,3.565-0.36,3.565-2.611c0-2.143-1.361-2.539-3.436-2.539h-2.934V115.147z"/>
		<path d="M238.103,106.864h0.973v9.327h-0.973v-1.296c-0.519,0.648-1.231,1.548-2.706,1.548c-2.236,0-2.981-1.494-2.981-3.439
			v-6.14h0.973v6.122c0,1.603,0.632,2.485,2.155,2.485c1.604,0,2.56-1.477,2.56-3.529V106.864z"/>
		<path d="M241.99,113.274c0.309,1.603,1.054,2.197,2.512,2.197c1.41,0,2.074-0.828,2.074-1.729c0-2.701-5.38-0.792-5.38-4.465
			c0-1.548,1.086-2.665,2.949-2.665c1.815,0,2.998,0.829,3.241,2.935h-0.988c-0.179-1.44-1.054-1.962-2.269-1.962
			c-1.231,0-1.896,0.648-1.896,1.603c0,2.539,5.38,0.954,5.38,4.537c0,1.783-1.442,2.719-3.419,2.719s-3.111-1.404-3.192-3.169
			H241.99z"/>
		<path d="M249.458,118.73c0.259,0.054,0.534,0.108,0.81,0.108c1.103,0,1.265-1.765,1.637-2.575l-3.257-9.399h1.086l2.689,8.012
			l2.69-8.012h1.053l-3.127,9.201c-0.794,2.341-1.312,3.799-2.658,3.799c-0.34,0-0.664-0.054-0.923-0.126V118.73z"/>
	</g>
	<g>
		<path d="M183.849,157.891v-12.964h7.519v1.044h-6.417v4.681h5.834v1.044h-5.834v6.194H183.849z"/>
		<path d="M192.921,146.529v-1.603h1.069v1.603H192.921z M192.969,157.891v-9.327h0.973v9.327H192.969z"/>
		<path d="M196.566,157.891v-12.964h0.972v12.964H196.566z"/>
		<path d="M202.965,157.927c-0.227,0.054-0.648,0.216-1.118,0.216c-0.956,0-1.491-0.468-1.491-1.854v-6.824h-1.183v-0.9h1.183
			v-2.593h0.973v2.593h1.572v0.9h-1.572v6.392c0,0.918,0.032,1.314,0.843,1.314c0.259,0,0.535-0.054,0.794-0.126V157.927z"/>
		<path d="M205.118,153.48c-0.016,2.017,0.957,3.691,2.82,3.691c1.264,0,2.252-0.774,2.544-2.143h1.086
			c-0.486,1.765-1.491,3.115-3.63,3.115c-2.69,0-3.857-2.125-3.857-4.879c0-2.719,1.459-4.952,3.857-4.952
			c2.301,0,3.711,1.819,3.694,5.168H205.118z M210.596,152.579c0-1.818-0.907-3.295-2.657-3.295c-1.718,0-2.625,1.53-2.82,3.295
			H210.596z"/>
		<path d="M214.547,157.891h-0.972v-9.327h0.972v1.747h0.033c0.534-1.495,1.328-1.999,2.738-1.999v1.17
			c-2.188-0.054-2.771,1.747-2.771,3.835V157.891z"/>
		<path d="M219.521,153.48c-0.017,2.017,0.956,3.691,2.819,3.691c1.265,0,2.253-0.774,2.545-2.143h1.085
			c-0.486,1.765-1.49,3.115-3.63,3.115c-2.689,0-3.856-2.125-3.856-4.879c0-2.719,1.458-4.952,3.856-4.952
			c2.302,0,3.711,1.819,3.695,5.168H219.521z M224.998,152.579c0-1.818-0.908-3.295-2.658-3.295c-1.718,0-2.625,1.53-2.819,3.295
			H224.998z"/>
		<path d="M234.41,144.927h0.973v12.964h-0.973v-1.639h-0.032c-0.567,1.225-1.848,1.891-2.917,1.891
			c-2.706,0-3.792-2.143-3.792-4.897c0-2.611,1.183-4.934,3.743-4.934c1.184,0,2.382,0.612,2.998,1.747V144.927z M231.575,149.284
			c-2.01,0-2.949,1.891-2.868,4.231c0.017,2.341,1.231,3.655,2.868,3.655c1.831,0,2.836-1.729,2.836-3.979
			C234.41,151.085,233.341,149.284,231.575,149.284z"/>
		<path d="M238.426,154.02c0.179,2.323,1.572,3.169,3.354,3.169c2.09,0,2.966-1.26,2.966-2.683c0-4.016-7.114-1.351-7.114-6.446
			c0-1.8,1.345-3.475,3.954-3.475c2.625,0,3.938,1.765,3.921,3.872h-1.053c0-1.981-1.378-2.827-2.868-2.827
			c-2.236,0-3.047,1.53-2.853,2.863c0.503,3.349,7.114,0.937,7.114,5.96c0,2.376-1.572,3.781-4.262,3.781
			c-2.431,0-4.229-1.405-4.229-4.213H238.426z"/>
		<path d="M246.849,144.927H248l3.516,11.523l3.501-11.523h1.15l-4.052,12.964h-1.215L246.849,144.927z"/>
	</g>
	<g>
		<path d="M222.679,199.958v-12.964h7.763v1.044h-6.66v4.681h6.012v1.044h-6.012v5.149h6.822v1.044H222.679z"/>
		<path d="M233.452,199.958h-0.973v-9.327h0.973v1.747h0.032c0.535-1.495,1.329-1.999,2.738-1.999v1.17
			c-2.188-0.054-2.771,1.747-2.771,3.835V199.958z"/>
		<path d="M238.847,199.958h-0.973v-9.327h0.973v1.747h0.032c0.535-1.495,1.329-1.999,2.738-1.999v1.17
			c-2.188-0.054-2.771,1.747-2.771,3.835V199.958z"/>
		<path d="M242.669,195.294c0-2.719,1.297-4.916,3.89-4.916c2.625,0,3.889,2.179,3.889,4.916c0,2.953-1.539,4.916-3.889,4.916
			C244.419,200.174,242.669,198.554,242.669,195.294z M246.559,191.352c-2.042,0-2.853,1.926-2.853,3.943
			c0,2.323,0.989,3.943,2.853,3.943c2.042,0,2.852-1.945,2.852-3.943C249.395,193.098,248.617,191.352,246.559,191.352z"/>
		<path d="M253.248,199.958h-0.972v-9.327h0.972v1.747h0.033c0.534-1.495,1.328-1.999,2.738-1.999v1.17
			c-2.188-0.054-2.771,1.747-2.771,3.835V199.958z"/>
	</g>
	<g>
		<path d="M206.48,242.025v-12.964h7.762v1.044h-6.66v4.681h6.013v1.044h-6.013v5.149h6.822v1.044H206.48z"/>
		<path d="M217.252,242.025h-0.972v-9.327h0.972v1.747h0.033c0.534-1.495,1.328-1.999,2.738-1.999v1.17
			c-2.188-0.054-2.771,1.747-2.771,3.835V242.025z"/>
		<path d="M222.647,242.025h-0.972v-9.327h0.972v1.747h0.033c0.534-1.495,1.328-1.999,2.738-1.999v1.17
			c-2.188-0.054-2.771,1.747-2.771,3.835V242.025z"/>
		<path d="M226.47,237.362c0-2.719,1.296-4.916,3.889-4.916c2.626,0,3.89,2.179,3.89,4.916c0,2.953-1.54,4.916-3.89,4.916
			C228.22,242.241,226.47,240.621,226.47,237.362z M230.359,233.419c-2.041,0-2.852,1.926-2.852,3.943
			c0,2.323,0.988,3.943,2.852,3.943c2.042,0,2.853-1.945,2.853-3.943C233.195,235.166,232.417,233.419,230.359,233.419z"/>
		<path d="M237.049,242.025h-0.973v-9.327h0.973v1.747h0.032c0.535-1.495,1.329-1.999,2.738-1.999v1.17
			c-2.188-0.054-2.771,1.747-2.771,3.835V242.025z"/>
		<path d="M241.957,242.025v-12.964h1.102v12.964H241.957z"/>
		<path d="M246.072,242.025v-12.964h3.986c1.297,0,2.512,0.09,3.598,0.972c1.54,1.243,1.944,3.763,1.944,5.492
			c0,1.71-0.34,3.619-1.409,4.916c-1.069,1.333-2.593,1.584-4.133,1.584H246.072z M247.174,240.981h2.642
			c0.988,0,1.847-0.072,2.738-0.594c1.556-0.882,1.944-3.097,1.944-4.861c0-1.891-0.373-3.961-2.01-4.934
			c-0.696-0.414-1.701-0.486-2.673-0.486h-2.642V240.981z"/>
	</g>
	<g>
		<path d="M247.822,410.025v-12.964h4.262c3.03,0,3.809,1.674,3.809,3.619c0,2.898-2.317,3.619-4.473,3.619h-2.496v5.726H247.822z
			 M251.451,403.254c2.058,0,3.338-0.468,3.338-2.664c0-1.621-0.939-2.485-3.014-2.485h-2.853v5.149H251.451z"/>
	</g>
	<g>
		<path d="M244.112,438.859h8.491v1.044h-3.694v11.92h-1.103v-11.92h-3.694V438.859z"/>
		<path d="M254.123,440.461v-1.603h1.069v1.603H254.123z M254.172,451.823v-9.327h0.972v9.327H254.172z"/>
	</g>
	<g>
		<path d="M237.81,480.926h8.491v1.044h-3.694v11.92h-1.103v-11.92h-3.694V480.926z"/>
		<path d="M254.206,480.926h0.973v12.964h-0.973v-1.639h-0.032c-0.567,1.225-1.848,1.891-2.917,1.891
			c-2.706,0-3.792-2.143-3.792-4.897c0-2.611,1.183-4.934,3.743-4.934c1.184,0,2.382,0.612,2.998,1.746V480.926z M251.37,485.284
			c-2.01,0-2.949,1.891-2.868,4.23c0.017,2.341,1.231,3.655,2.868,3.655c1.831,0,2.836-1.729,2.836-3.979
			C254.206,487.084,253.137,485.284,251.37,485.284z"/>
	</g>
	<g>
		<path d="M234.327,787.823v-12.964h1.685l3.824,11.434h0.033l3.759-11.434h1.67v12.964h-1.103v-11.56h-0.032l-3.824,11.56h-1.037
			l-3.841-11.56h-0.032v11.56H234.327z"/>
		<path d="M246.849,774.859H248l3.516,11.523l3.501-11.523h1.15l-4.052,12.964h-1.215L246.849,774.859z"/>
	</g>
	<g>
		<path class="st3" d="M127.637,17.764V4.8h4.262c3.03,0,3.808,1.674,3.808,3.619c0,2.899-2.317,3.619-4.473,3.619h-2.496v5.726
			H127.637z M131.267,10.994c2.058,0,3.338-0.468,3.338-2.665c0-1.621-0.94-2.485-3.014-2.485h-2.852v5.149H131.267z"/>
		<path class="st3" d="M137.972,17.764V4.8h1.102v12.964H137.972z"/>
		<path class="st3" d="M142.087,17.764V4.8h3.986c1.296,0,2.512,0.09,3.598,0.972c1.54,1.243,1.945,3.763,1.945,5.492
			c0,1.71-0.341,3.619-1.41,4.916c-1.069,1.333-2.593,1.584-4.132,1.584H142.087z M143.189,16.719h2.642
			c0.988,0,1.847-0.072,2.738-0.594c1.556-0.882,1.945-3.097,1.945-4.861c0-1.891-0.373-3.961-2.01-4.934
			c-0.697-0.414-1.701-0.486-2.673-0.486h-2.642V16.719z"/>
	</g>
	<g>
	</g>
	<g>
	</g>
	<g>
	</g>
	<g>
	</g>
	<g>
	</g>
	<g>
	</g>
	<g>
	</g>
	<g>
	</g>
	<g>
	</g>
	<g>
	</g>
	<g>
	</g>
	<g>
	</g>
	<g>
	</g>
	<g>
	</g>
	<g>
	</g>
</g>
</svg>
