<?xml version="1.0" encoding="utf-8"?>
<!-- Generator: Adobe Illustrator 28.2.0, SVG Export Plug-In . SVG Version: 6.00 Build 0)  -->
<svg version="1.1" xmlns="http://www.w3.org/2000/svg" xmlns:xlink="http://www.w3.org/1999/xlink" x="0px" y="0px"
	 width="281.185px" height="94.822px" viewBox="0 0 281.185 94.822" style="enable-background:new 0 0 281.185 94.822;"
	 xml:space="preserve">
<style type="text/css">
	.st0{fill:#F0F0F0;stroke:#828282;stroke-miterlimit:10;}
	.st1{fill:none;stroke:#828282;stroke-miterlimit:10;}
	.st2{fill:#828282;}
	.st3{fill:#FFFFFF;}
</style>
<g id="レイヤー_2">
	<rect x="20.323" y="0.5" class="st0" width="240.539" height="93.822"/>
	<line class="st1" x1="0" y1="25.814" x2="20.323" y2="25.814"/>
	<line class="st1" x1="0" y1="25.814" x2="20.323" y2="25.814"/>
	<line class="st1" x1="260.862" y1="25.814" x2="281.185" y2="25.814"/>
	<rect x="20.323" y="0.5" class="st2" width="240.539" height="21"/>
</g>
<g id="レイヤー_3">
	<g>
		<path d="M25.575,35.157c0.179,2.323,1.572,3.169,3.354,3.169c2.09,0,2.966-1.26,2.966-2.683c0-4.016-7.114-1.351-7.114-6.446
			c0-1.8,1.345-3.475,3.954-3.475c2.625,0,3.938,1.765,3.921,3.872h-1.053c0-1.981-1.377-2.827-2.868-2.827
			c-2.236,0-3.046,1.53-2.852,2.863c0.502,3.349,7.114,0.937,7.114,5.96c0,2.376-1.572,3.781-4.262,3.781
			c-2.431,0-4.229-1.405-4.229-4.213H25.575z"/>
		<path d="M35.473,34.617c-0.016,2.017,0.957,3.691,2.82,3.691c1.264,0,2.252-0.774,2.544-2.143h1.086
			c-0.486,1.765-1.491,3.115-3.63,3.115c-2.69,0-3.857-2.125-3.857-4.879c0-2.719,1.458-4.952,3.857-4.952
			c2.301,0,3.711,1.819,3.695,5.168H35.473z M40.951,33.716c0-1.818-0.908-3.295-2.658-3.295c-1.718,0-2.625,1.53-2.82,3.295H40.951
			z"/>
		<path d="M46.83,39.064c-0.227,0.054-0.648,0.216-1.118,0.216c-0.956,0-1.491-0.468-1.491-1.854v-6.824h-1.183v-0.9h1.183v-2.593
			h0.973v2.593h1.572v0.9h-1.572v6.392c0,0.918,0.032,1.314,0.842,1.314c0.259,0,0.535-0.054,0.794-0.126V39.064z"/>
	</g>
	<g>
		<path d="M26.207,67.824v5.888h-1.102V60.748h4.57c2.56,0,3.97,1.008,3.97,3.403c0,1.639-0.551,2.503-1.896,3.169
			c1.377,0.522,1.458,2.143,1.491,3.511c0.049,1.962,0.194,2.503,0.486,2.755v0.126h-1.215c-0.454-0.882-0.34-3.313-0.519-4.303
			c-0.259-1.404-1.215-1.584-2.317-1.584H26.207z M29.642,66.779c1.637,0,2.901-0.756,2.901-2.575c0-1.944-1.361-2.413-2.836-2.413
			h-3.5v4.987H29.642z"/>
		<path d="M36.38,69.3c-0.016,2.017,0.957,3.691,2.82,3.691c1.264,0,2.252-0.774,2.544-2.143h1.086
			c-0.486,1.765-1.491,3.115-3.63,3.115c-2.69,0-3.857-2.125-3.857-4.879c0-2.719,1.458-4.952,3.857-4.952
			c2.301,0,3.711,1.819,3.695,5.168H36.38z M41.858,68.4c0-1.818-0.908-3.295-2.658-3.295c-1.718,0-2.625,1.53-2.82,3.295H41.858z"
			/>
		<path d="M45.355,70.794c0.308,1.603,1.053,2.197,2.512,2.197c1.41,0,2.074-0.828,2.074-1.729c0-2.701-5.38-0.792-5.38-4.465
			c0-1.548,1.085-2.665,2.949-2.665c1.815,0,2.998,0.829,3.241,2.935h-0.989c-0.178-1.44-1.053-1.962-2.269-1.962
			c-1.231,0-1.896,0.648-1.896,1.603c0,2.539,5.38,0.954,5.38,4.537c0,1.783-1.442,2.719-3.419,2.719
			c-1.977,0-3.111-1.404-3.192-3.169H45.355z"/>
		<path d="M53.488,69.3c-0.016,2.017,0.957,3.691,2.82,3.691c1.264,0,2.252-0.774,2.544-2.143h1.086
			c-0.486,1.765-1.491,3.115-3.63,3.115c-2.69,0-3.857-2.125-3.857-4.879c0-2.719,1.458-4.952,3.857-4.952
			c2.301,0,3.711,1.819,3.695,5.168H53.488z M58.965,68.4c0-1.818-0.908-3.295-2.658-3.295c-1.718,0-2.625,1.53-2.82,3.295H58.965z"
			/>
		<path d="M64.845,73.748c-0.227,0.054-0.648,0.216-1.118,0.216c-0.956,0-1.491-0.468-1.491-1.854v-6.824h-1.183v-0.9h1.183v-2.593
			h0.973v2.593h1.572v0.9h-1.572v6.392c0,0.918,0.032,1.314,0.842,1.314c0.259,0,0.535-0.054,0.794-0.126V73.748z"/>
		<path d="M70.126,64.277h-2.95v-0.756c1.734-0.126,2.82-0.324,3.16-2.503h0.827v12.694h-1.037V64.277z"/>
	</g>
	<g>
		<path class="st3" d="M132.639,12.376v5.888h-1.102V5.3h4.57c2.56,0,3.97,1.008,3.97,3.403c0,1.639-0.551,2.503-1.896,3.169
			c1.377,0.522,1.458,2.143,1.491,3.511c0.049,1.962,0.194,2.503,0.486,2.755v0.126h-1.215c-0.454-0.882-0.34-3.313-0.519-4.303
			c-0.259-1.404-1.215-1.584-2.317-1.584H132.639z M136.075,11.332c1.637,0,2.901-0.756,2.901-2.575
			c0-1.944-1.361-2.413-2.836-2.413h-3.5v4.987H136.075z"/>
		<path class="st3" d="M142.812,14.393c0.178,2.323,1.572,3.169,3.354,3.169c2.09,0,2.966-1.26,2.966-2.683
			c0-4.016-7.114-1.351-7.114-6.446c0-1.8,1.345-3.475,3.954-3.475c2.625,0,3.938,1.765,3.921,3.872h-1.053
			c0-1.981-1.377-2.827-2.868-2.827c-2.236,0-3.046,1.53-2.852,2.863c0.502,3.349,7.114,0.937,7.114,5.96
			c0,2.376-1.572,3.781-4.262,3.781c-2.431,0-4.229-1.405-4.229-4.213H142.812z"/>
	</g>
	<g>
		<path d="M247.735,39.194l-0.616,0.829l-1.717-1.477c-0.794,0.558-1.767,0.882-2.917,0.882c-3.598,0-5.429-3.079-5.429-6.806
			c0-3.601,1.75-6.842,5.38-6.842c3.273,0,5.494,2.431,5.494,6.842c0,2.088-0.583,3.979-1.75,5.239L247.735,39.194z M245.369,37.16
			c0.989-1.044,1.458-2.737,1.458-4.537c0-3.871-1.864-5.798-4.359-5.798c-2.998,0-4.311,2.809-4.311,5.798
			c0,3.079,1.296,5.762,4.343,5.762c0.81,0,1.491-0.216,2.042-0.576l-1.329-1.134l0.583-0.846L245.369,37.16z"/>
		<path d="M253.776,29.652h-2.95v-0.756c1.734-0.126,2.82-0.324,3.16-2.503h0.827v12.694h-1.037V29.652z"/>
	</g>
	<g>
	</g>
	<g>
	</g>
	<g>
	</g>
	<g>
	</g>
	<g>
	</g>
	<g>
	</g>
	<g>
	</g>
	<g>
	</g>
	<g>
	</g>
	<g>
	</g>
	<g>
	</g>
	<g>
	</g>
	<g>
	</g>
	<g>
	</g>
	<g>
	</g>
</g>
</svg>
