<?xml version="1.0" encoding="utf-8"?>
<!-- Generator: Adobe Illustrator 28.2.0, SVG Export Plug-In . SVG Version: 6.00 Build 0)  -->
<svg version="1.1" xmlns="http://www.w3.org/2000/svg" xmlns:xlink="http://www.w3.org/1999/xlink" x="0px" y="0px"
	 width="281.185px" height="262.933px" viewBox="0 0 281.185 262.933" style="enable-background:new 0 0 281.185 262.933;"
	 xml:space="preserve">
<style type="text/css">
	.st0{fill:#F0F0F0;stroke:#828282;stroke-miterlimit:10;}
	.st1{fill:none;stroke:#828282;stroke-miterlimit:10;}
	.st2{fill:#828282;}
	.st3{fill:#FFFFFF;}
</style>
<g id="レイヤー_2">
	<rect x="20.323" y="0.5" class="st0" width="240.539" height="261.933"/>
	<line class="st1" x1="0" y1="25.814" x2="20.323" y2="25.814"/>
	<line class="st1" x1="0" y1="25.814" x2="20.323" y2="25.814"/>
	<line class="st1" x1="260.862" y1="25.814" x2="281.185" y2="25.814"/>
	<rect x="20.323" y="0.5" class="st2" width="240.539" height="21"/>
	<line class="st1" x1="77.655" y1="237.806" x2="202.83" y2="237.806"/>
</g>
<g id="レイヤー_3">
	<g>
		<path d="M25.122,39.028V26.064h7.762v1.044h-6.66v4.681h6.012v1.044h-6.012v5.149h6.822v1.044H25.122z"/>
		<path d="M37.791,34.995l-2.609,4.033h-1.183l3.225-4.825l-2.966-4.501h1.199l2.317,3.709l2.382-3.709h1.231l-3.03,4.501
			l3.144,4.825h-1.167L37.791,34.995z"/>
		<path d="M43.573,34.617c-0.016,2.017,0.956,3.691,2.82,3.691c1.264,0,2.252-0.774,2.544-2.143h1.085
			c-0.486,1.765-1.491,3.115-3.63,3.115c-2.69,0-3.857-2.125-3.857-4.879c0-2.719,1.458-4.952,3.857-4.952
			c2.301,0,3.711,1.819,3.695,5.168H43.573z M49.051,33.716c0-1.818-0.908-3.295-2.658-3.295c-1.718,0-2.625,1.53-2.82,3.295H49.051
			z"/>
		<path d="M57.928,32.636c-0.34-1.386-1.199-2.214-2.496-2.214c-1.993,0-2.819,2.017-2.819,3.961c0,1.963,0.81,3.925,2.819,3.925
			c1.442,0,2.35-0.954,2.577-2.503h1.037c-0.34,2.071-1.507,3.475-3.614,3.475c-2.674,0-3.856-2.143-3.856-4.897
			c0-2.593,1.345-4.934,3.856-4.934c1.929,0,3.192,1.026,3.484,3.187H57.928z"/>
		<path d="M66.676,29.701h0.973v9.327h-0.973v-1.296c-0.519,0.648-1.231,1.548-2.706,1.548c-2.236,0-2.982-1.494-2.982-3.439v-6.14
			h0.973v6.122c0,1.603,0.632,2.485,2.155,2.485c1.604,0,2.56-1.477,2.56-3.529V29.701z"/>
		<path d="M72.945,39.064c-0.227,0.054-0.648,0.216-1.118,0.216c-0.956,0-1.491-0.468-1.491-1.854v-6.824h-1.183v-0.9h1.183v-2.593
			h0.973v2.593h1.572v0.9h-1.572v6.392c0,0.918,0.032,1.314,0.842,1.314c0.259,0,0.535-0.054,0.794-0.126V39.064z"/>
		<path d="M75.099,34.617c-0.016,2.017,0.956,3.691,2.82,3.691c1.264,0,2.252-0.774,2.544-2.143h1.085
			c-0.486,1.765-1.491,3.115-3.63,3.115c-2.69,0-3.857-2.125-3.857-4.879c0-2.719,1.458-4.952,3.857-4.952
			c2.301,0,3.711,1.819,3.695,5.168H75.099z M80.576,33.716c0-1.818-0.908-3.295-2.658-3.295c-1.718,0-2.625,1.53-2.82,3.295H80.576
			z"/>
	</g>
	<g>
		<path d="M25.122,74.623V61.659h3.986c1.296,0,2.512,0.09,3.598,0.972c1.54,1.243,1.944,3.763,1.944,5.492
			c0,1.71-0.34,3.619-1.41,4.916c-1.069,1.333-2.593,1.584-4.132,1.584H25.122z M26.224,73.579h2.642
			c0.988,0,1.847-0.072,2.738-0.594c1.556-0.882,1.945-3.097,1.945-4.861c0-1.891-0.373-3.961-2.01-4.934
			c-0.697-0.414-1.701-0.486-2.673-0.486h-2.642V73.579z"/>
		<path d="M36.77,63.262v-1.603h1.069v1.603H36.77z M36.818,74.623v-9.327h0.972v9.327H36.818z"/>
		<path d="M41.289,74.623h-0.972v-9.327h0.972v1.747h0.033c0.535-1.495,1.329-1.999,2.738-1.999v1.17
			c-2.188-0.054-2.771,1.747-2.771,3.835V74.623z"/>
		<path d="M45.76,74.623V61.659h4.262c3.03,0,3.808,1.674,3.808,3.619c0,2.899-2.317,3.619-4.473,3.619h-2.496v5.726H45.76z
			 M49.39,67.853c2.058,0,3.338-0.468,3.338-2.665c0-1.621-0.94-2.485-3.014-2.485h-2.852v5.149H49.39z"/>
		<path d="M59.418,69.186c0.356-0.036,0.956-0.144,1.28-0.306s0.356-0.648,0.356-0.972c0-1.099-0.583-1.891-2.09-1.891
			c-1.345,0-2.269,0.486-2.447,2.106h-0.989c0.146-2.197,1.621-3.079,3.452-3.079c1.702,0,3.046,0.738,3.046,2.899v5.078
			c0,0.846,0.195,1.044,1.021,0.72v0.846c-0.146,0.054-0.486,0.18-0.762,0.18c-0.162,0-0.292-0.018-0.438-0.054
			c-0.648-0.108-0.762-0.738-0.778-1.386c-0.81,1.008-1.912,1.548-3.127,1.548c-1.475,0-2.803-0.882-2.803-2.683
			c0-1.566,0.972-2.521,2.933-2.809L59.418,69.186z M61.054,69.726c-0.827,0.378-1.669,0.45-2.512,0.522
			c-1.475,0.126-2.366,0.72-2.366,1.981c0,1.134,0.891,1.674,1.815,1.674c1.539,0,3.062-0.828,3.062-2.719V69.726z"/>
		<path d="M67.518,74.659c-0.227,0.054-0.648,0.216-1.118,0.216c-0.956,0-1.491-0.468-1.491-1.854v-6.824h-1.183v-0.9h1.183v-2.593
			h0.973v2.593h1.572v0.9h-1.572v6.392c0,0.918,0.032,1.314,0.842,1.314c0.259,0,0.535-0.054,0.794-0.126V74.659z"/>
		<path d="M69.071,74.623V61.659h0.973v4.934c0.778-0.918,1.54-1.549,2.706-1.549c1.021,0,1.961,0.36,2.561,1.333
			c0.405,0.667,0.421,1.369,0.421,2.143v6.104h-0.973v-6.086c0-1.674-0.616-2.521-2.171-2.521c-1.199,0-2.025,0.864-2.333,1.818
			c-0.194,0.594-0.21,1.116-0.21,1.765v5.023H69.071z"/>
	</g>
	<g>
		<path d="M25.575,112.82c0.179,2.323,1.572,3.169,3.354,3.169c2.09,0,2.966-1.26,2.966-2.683c0-4.016-7.114-1.351-7.114-6.446
			c0-1.8,1.345-3.475,3.954-3.475c2.625,0,3.938,1.765,3.921,3.872h-1.053c0-1.981-1.377-2.827-2.868-2.827
			c-2.236,0-3.046,1.53-2.852,2.863c0.502,3.349,7.114,0.937,7.114,5.96c0,2.376-1.572,3.781-4.262,3.781
			c-2.431,0-4.229-1.405-4.229-4.213H25.575z"/>
		<path d="M35.473,112.28c-0.016,2.017,0.957,3.691,2.82,3.691c1.264,0,2.252-0.774,2.544-2.143h1.086
			c-0.486,1.765-1.491,3.115-3.63,3.115c-2.69,0-3.857-2.125-3.857-4.879c0-2.719,1.458-4.952,3.857-4.952
			c2.301,0,3.711,1.819,3.695,5.168H35.473z M40.951,111.379c0-1.818-0.908-3.295-2.658-3.295c-1.718,0-2.625,1.53-2.82,3.295
			H40.951z"/>
		<path d="M47.738,111.253c0.356-0.036,0.956-0.144,1.28-0.306s0.356-0.648,0.356-0.972c0-1.099-0.583-1.891-2.09-1.891
			c-1.345,0-2.269,0.486-2.447,2.106h-0.989c0.146-2.197,1.621-3.079,3.452-3.079c1.702,0,3.046,0.738,3.046,2.899v5.078
			c0,0.846,0.195,1.044,1.021,0.72v0.846c-0.146,0.054-0.486,0.18-0.762,0.18c-0.162,0-0.292-0.018-0.438-0.054
			c-0.648-0.108-0.762-0.738-0.778-1.386c-0.81,1.008-1.912,1.548-3.127,1.548c-1.475,0-2.803-0.882-2.803-2.683
			c0-1.566,0.972-2.521,2.933-2.809L47.738,111.253z M49.375,111.793c-0.827,0.378-1.669,0.45-2.512,0.522
			c-1.475,0.126-2.366,0.72-2.366,1.981c0,1.134,0.891,1.674,1.815,1.674c1.539,0,3.062-0.828,3.062-2.719V111.793z"/>
		<path d="M53.909,116.691h-0.972v-9.327h0.972v1.747h0.033c0.535-1.495,1.329-1.999,2.738-1.999v1.17
			c-2.188-0.054-2.771,1.747-2.771,3.835V116.691z"/>
		<path d="M64.23,110.299c-0.34-1.386-1.199-2.214-2.496-2.214c-1.993,0-2.819,2.017-2.819,3.961c0,1.963,0.81,3.925,2.819,3.925
			c1.442,0,2.35-0.954,2.577-2.503h1.037c-0.34,2.071-1.507,3.475-3.614,3.475c-2.674,0-3.856-2.143-3.856-4.897
			c0-2.593,1.345-4.934,3.856-4.934c1.929,0,3.192,1.026,3.484,3.187H64.23z"/>
		<path d="M67.29,116.691v-12.964h0.973v4.934c0.778-0.918,1.54-1.549,2.706-1.549c1.021,0,1.961,0.36,2.561,1.333
			c0.405,0.667,0.421,1.369,0.421,2.143v6.104h-0.973v-6.086c0-1.674-0.616-2.521-2.171-2.521c-1.199,0-2.025,0.864-2.333,1.818
			c-0.194,0.594-0.21,1.116-0.21,1.765v5.023H67.29z"/>
		<path d="M76.33,116.691v-12.964h7.519v1.044h-6.417v4.681h5.833v1.044h-5.833v6.194H76.33z"/>
		<path d="M85.402,105.33v-1.603h1.069v1.603H85.402z M85.451,116.691v-9.327h0.972v9.327H85.451z"/>
		<path d="M89.047,116.691v-12.964h0.972v12.964H89.047z"/>
		<path d="M93.097,112.28c-0.016,2.017,0.956,3.691,2.82,3.691c1.264,0,2.252-0.774,2.544-2.143h1.085
			c-0.486,1.765-1.491,3.115-3.63,3.115c-2.69,0-3.857-2.125-3.857-4.879c0-2.719,1.458-4.952,3.857-4.952
			c2.301,0,3.711,1.819,3.695,5.168H93.097z M98.574,111.379c0-1.818-0.908-3.295-2.658-3.295c-1.718,0-2.625,1.53-2.82,3.295
			H98.574z"/>
		<path d="M102.753,105.383h-0.032v11.308h-1.102v-12.964h1.248l6.741,11.325h0.033v-11.325h1.102v12.964h-1.28L102.753,105.383z"/>
		<path d="M117.058,111.253c0.356-0.036,0.956-0.144,1.28-0.306s0.356-0.648,0.356-0.972c0-1.099-0.583-1.891-2.09-1.891
			c-1.345,0-2.269,0.486-2.447,2.106h-0.989c0.146-2.197,1.621-3.079,3.452-3.079c1.702,0,3.046,0.738,3.046,2.899v5.078
			c0,0.846,0.195,1.044,1.021,0.72v0.846c-0.146,0.054-0.486,0.18-0.762,0.18c-0.162,0-0.292-0.018-0.438-0.054
			c-0.648-0.108-0.762-0.738-0.778-1.386c-0.81,1.008-1.912,1.548-3.127,1.548c-1.475,0-2.803-0.882-2.803-2.683
			c0-1.566,0.972-2.521,2.933-2.809L117.058,111.253z M118.694,111.793c-0.826,0.378-1.669,0.45-2.512,0.522
			c-1.475,0.126-2.366,0.72-2.366,1.981c0,1.134,0.891,1.674,1.815,1.674c1.539,0,3.062-0.828,3.062-2.719V111.793z"/>
		<path d="M123.051,116.691h-0.972v-9.327h0.972v1.404h0.033c0.502-1.062,1.507-1.657,2.593-1.657c1.556,0,2.106,0.811,2.463,1.801
			c0.551-1.207,1.54-1.801,2.739-1.801c2.285,0,2.609,1.819,2.609,3.691v5.888h-0.972v-6.446c0-1.333-0.421-2.161-1.799-2.161
			c-0.713,0-1.41,0.342-1.896,1.062c-0.421,0.612-0.551,1.747-0.551,2.521v5.023h-0.973v-6.446c0-1.333-0.421-2.161-1.798-2.161
			c-0.713,0-1.41,0.342-1.896,1.062c-0.421,0.612-0.551,1.747-0.551,2.521V116.691z"/>
		<path d="M136.302,112.28c-0.016,2.017,0.957,3.691,2.82,3.691c1.264,0,2.252-0.774,2.544-2.143h1.086
			c-0.486,1.765-1.491,3.115-3.63,3.115c-2.69,0-3.857-2.125-3.857-4.879c0-2.719,1.458-4.952,3.857-4.952
			c2.301,0,3.711,1.819,3.695,5.168H136.302z M141.78,111.379c0-1.818-0.908-3.295-2.658-3.295c-1.718,0-2.625,1.53-2.82,3.295
			H141.78z"/>
	</g>
	<g>
		<path d="M30.048,145.085c3.646,0,5.494,3.043,5.494,6.842c0,3.727-1.848,6.806-5.445,6.806c-3.598,0-5.429-3.079-5.429-6.806
			C24.652,148.146,26.564,145.085,30.048,145.085z M34.44,151.927c0-3.601-1.669-5.798-4.359-5.798
			c-2.998,0-4.311,2.791-4.311,5.798c0,3.061,1.296,5.762,4.343,5.762C33.143,157.689,34.44,154.952,34.44,151.927z"/>
		<path d="M38.6,158.391h-0.972v-9.327H38.6v1.747h0.033c0.535-1.495,1.329-1.999,2.738-1.999v1.17
			c-2.188-0.054-2.771,1.747-2.771,3.835V158.391z"/>
		<path d="M49.456,145.427h0.972v12.964h-0.972v-1.639h-0.033c-0.567,1.225-1.847,1.891-2.917,1.891
			c-2.706,0-3.792-2.143-3.792-4.897c0-2.611,1.183-4.934,3.743-4.934c1.183,0,2.382,0.612,2.998,1.747V145.427z M46.62,149.784
			c-2.01,0-2.949,1.891-2.868,4.231c0.016,2.341,1.231,3.655,2.868,3.655c1.831,0,2.836-1.729,2.836-3.979
			C49.456,151.585,48.386,149.784,46.62,149.784z"/>
		<path d="M53.471,153.98c-0.016,2.017,0.957,3.691,2.82,3.691c1.264,0,2.252-0.774,2.544-2.143h1.086
			c-0.486,1.765-1.491,3.115-3.63,3.115c-2.69,0-3.857-2.125-3.857-4.879c0-2.719,1.458-4.952,3.857-4.952
			c2.301,0,3.711,1.819,3.695,5.168H53.471z M58.949,153.079c0-1.818-0.908-3.295-2.658-3.295c-1.718,0-2.625,1.53-2.82,3.295
			H58.949z"/>
		<path d="M62.9,158.391h-0.972v-9.327H62.9v1.747h0.033c0.535-1.495,1.329-1.999,2.738-1.999v1.17
			c-2.188-0.054-2.771,1.747-2.771,3.835V158.391z"/>
	</g>
	<g>
		<path d="M25.073,200.458v-12.964h1.685l3.824,11.434h0.033l3.759-11.434h1.669v12.964h-1.102v-11.56h-0.033l-3.824,11.56h-1.037
			l-3.84-11.56h-0.033v11.56H25.073z"/>
		<path d="M42.327,195.021c0.356-0.036,0.956-0.144,1.28-0.306s0.356-0.648,0.356-0.972c0-1.099-0.583-1.891-2.09-1.891
			c-1.345,0-2.269,0.486-2.447,2.106h-0.989c0.146-2.197,1.621-3.079,3.452-3.079c1.702,0,3.046,0.738,3.046,2.899v5.078
			c0,0.846,0.195,1.044,1.021,0.72v0.846c-0.146,0.054-0.486,0.18-0.762,0.18c-0.162,0-0.292-0.018-0.438-0.054
			c-0.648-0.108-0.762-0.738-0.778-1.386c-0.81,1.008-1.912,1.548-3.127,1.548c-1.475,0-2.803-0.882-2.803-2.683
			c0-1.566,0.972-2.521,2.933-2.809L42.327,195.021z M43.964,195.561c-0.826,0.378-1.669,0.45-2.512,0.522
			c-1.475,0.126-2.366,0.72-2.366,1.981c0,1.134,0.891,1.674,1.815,1.674c1.539,0,3.062-0.828,3.062-2.719V195.561z"/>
		<path d="M50.395,196.425l-2.609,4.033h-1.183l3.225-4.825l-2.966-4.501h1.199l2.317,3.709l2.382-3.709h1.231l-3.03,4.501
			l3.144,4.825h-1.167L50.395,196.425z"/>
		<path d="M55.61,200.458v-12.964h7.519v1.044h-6.417v4.681h5.833v1.044h-5.833v6.194H55.61z"/>
		<path d="M64.683,189.097v-1.603h1.069v1.603H64.683z M64.731,200.458v-9.327h0.972v9.327H64.731z"/>
		<path d="M68.327,200.458v-12.964h0.972v12.964H68.327z"/>
		<path d="M72.377,196.047c-0.016,2.017,0.956,3.691,2.82,3.691c1.264,0,2.252-0.774,2.544-2.143h1.085
			c-0.486,1.765-1.491,3.115-3.63,3.115c-2.69,0-3.857-2.125-3.857-4.879c0-2.719,1.458-4.952,3.857-4.952
			c2.301,0,3.711,1.819,3.695,5.168H72.377z M77.855,195.147c0-1.818-0.908-3.295-2.658-3.295c-1.718,0-2.625,1.53-2.82,3.295
			H77.855z"/>
		<path d="M80.931,200.458v-12.964h1.102v11.919h6.255v1.044H80.931z"/>
		<path d="M89.89,189.097v-1.603h1.069v1.603H89.89z M89.938,200.458v-9.327h0.972v9.327H89.938z"/>
		<path d="M93.956,197.541c0.308,1.603,1.053,2.197,2.512,2.197c1.41,0,2.074-0.828,2.074-1.729c0-2.701-5.38-0.792-5.38-4.465
			c0-1.548,1.085-2.665,2.949-2.665c1.815,0,2.998,0.829,3.241,2.935h-0.988c-0.178-1.44-1.053-1.962-2.269-1.962
			c-1.231,0-1.896,0.648-1.896,1.603c0,2.539,5.38,0.954,5.38,4.537c0,1.783-1.442,2.719-3.419,2.719
			c-1.977,0-3.111-1.404-3.192-3.169H93.956z"/>
		<path d="M104.438,200.494c-0.227,0.054-0.648,0.216-1.118,0.216c-0.956,0-1.491-0.468-1.491-1.854v-6.824h-1.183v-0.9h1.183
			v-2.593h0.973v2.593h1.572v0.9h-1.572v6.392c0,0.918,0.032,1.314,0.842,1.314c0.259,0,0.535-0.054,0.794-0.126V200.494z"/>
		<path d="M107.24,189.15h-0.032v11.308h-1.102v-12.964h1.248l6.741,11.325h0.033v-11.325h1.102v12.964h-1.28L107.24,189.15z"/>
		<path d="M123.376,191.131h0.973v9.327h-0.973v-1.296c-0.519,0.648-1.231,1.548-2.706,1.548c-2.236,0-2.981-1.494-2.981-3.439
			v-6.14h0.972v6.122c0,1.603,0.632,2.485,2.155,2.485c1.604,0,2.56-1.477,2.56-3.529V191.131z"/>
		<path d="M127.538,200.458h-0.972v-9.327h0.972v1.404h0.033c0.502-1.062,1.507-1.657,2.593-1.657c1.556,0,2.106,0.811,2.463,1.801
			c0.551-1.207,1.54-1.801,2.739-1.801c2.285,0,2.609,1.819,2.609,3.691v5.888h-0.972v-6.446c0-1.333-0.421-2.161-1.799-2.161
			c-0.713,0-1.41,0.342-1.896,1.062c-0.421,0.612-0.551,1.747-0.551,2.521v5.023h-0.973v-6.446c0-1.333-0.421-2.161-1.798-2.161
			c-0.713,0-1.41,0.342-1.896,1.062c-0.421,0.612-0.551,1.747-0.551,2.521V200.458z"/>
	</g>
	<g>
		<path d="M25.008,242.525v-12.964h7.519v1.044H26.11v4.681h5.833v1.044H26.11v6.194H25.008z"/>
		<path d="M34.081,231.164v-1.603h1.069v1.603H34.081z M34.129,242.525v-9.327h0.972v9.327H34.129z"/>
		<path d="M37.725,242.525v-12.964h0.972v12.964H37.725z"/>
		<path d="M41.775,238.114c-0.016,2.017,0.957,3.691,2.82,3.691c1.264,0,2.252-0.774,2.544-2.143h1.086
			c-0.486,1.765-1.491,3.115-3.63,3.115c-2.69,0-3.857-2.125-3.857-4.879c0-2.719,1.458-4.952,3.857-4.952
			c2.301,0,3.711,1.819,3.695,5.168H41.775z M47.253,237.214c0-1.818-0.908-3.295-2.658-3.295c-1.718,0-2.625,1.53-2.82,3.295
			H47.253z"/>
		<path d="M50.329,242.525v-12.964h1.102v11.919h6.255v1.044H50.329z"/>
		<path d="M59.288,231.164v-1.603h1.069v1.603H59.288z M59.336,242.525v-9.327h0.972v9.327H59.336z"/>
		<path d="M63.354,239.608c0.308,1.603,1.053,2.197,2.512,2.197c1.41,0,2.074-0.828,2.074-1.729c0-2.701-5.38-0.792-5.38-4.465
			c0-1.548,1.085-2.665,2.949-2.665c1.815,0,2.998,0.829,3.241,2.935h-0.989c-0.178-1.44-1.053-1.962-2.269-1.962
			c-1.231,0-1.896,0.648-1.896,1.603c0,2.539,5.38,0.954,5.38,4.537c0,1.783-1.442,2.719-3.419,2.719
			c-1.977,0-3.111-1.404-3.192-3.169H63.354z"/>
		<path d="M73.836,242.562c-0.227,0.054-0.648,0.216-1.118,0.216c-0.956,0-1.491-0.468-1.491-1.854v-6.824h-1.183v-0.9h1.183v-2.593
			h0.973v2.593h1.572v0.9h-1.572v6.392c0,0.918,0.032,1.314,0.842,1.314c0.259,0,0.535-0.054,0.794-0.126V242.562z"/>
	</g>
	<g>
		<path d="M219.143,39.028V26.064h3.986c1.297,0,2.512,0.09,3.598,0.972c1.54,1.243,1.944,3.763,1.944,5.492
			c0,1.71-0.34,3.619-1.409,4.916c-1.069,1.333-2.593,1.584-4.133,1.584H219.143z M220.245,37.983h2.642
			c0.988,0,1.847-0.072,2.738-0.594c1.556-0.882,1.944-3.097,1.944-4.861c0-1.891-0.373-3.961-2.01-4.934
			c-0.696-0.414-1.701-0.486-2.673-0.486h-2.642V37.983z"/>
		<path d="M230.143,34.364c0-2.719,1.296-4.916,3.889-4.916c2.626,0,3.89,2.179,3.89,4.916c0,2.953-1.54,4.916-3.89,4.916
			C231.893,39.244,230.143,37.624,230.143,34.364z M234.031,30.421c-2.041,0-2.852,1.926-2.852,3.943
			c0,2.323,0.988,3.943,2.852,3.943c2.042,0,2.853-1.945,2.853-3.943C236.867,32.168,236.09,30.421,234.031,30.421z"/>
		<path d="M240.673,39.028h-0.972v-9.327h0.972v1.296c0.778-0.918,1.54-1.549,2.706-1.549c1.021,0,1.961,0.36,2.561,1.333
			c0.405,0.667,0.422,1.369,0.422,2.143v6.104h-0.973v-6.086c0-1.674-0.616-2.521-2.172-2.521c-1.199,0-2.025,0.864-2.333,1.818
			c-0.194,0.594-0.211,1.116-0.211,1.765V39.028z"/>
		<path d="M249.308,34.617c-0.017,2.017,0.956,3.691,2.819,3.691c1.265,0,2.253-0.774,2.545-2.143h1.085
			c-0.486,1.765-1.49,3.115-3.63,3.115c-2.689,0-3.856-2.125-3.856-4.879c0-2.719,1.458-4.952,3.856-4.952
			c2.302,0,3.711,1.819,3.695,5.168H249.308z M254.785,33.716c0-1.818-0.908-3.295-2.658-3.295c-1.718,0-2.625,1.53-2.819,3.295
			H254.785z"/>
	</g>
	<g>
		<path d="M179.73,68.735v5.888h-1.103V61.659h4.57c2.561,0,3.97,1.008,3.97,3.403c0,1.639-0.551,2.503-1.896,3.169
			c1.377,0.522,1.458,2.143,1.49,3.511c0.049,1.962,0.194,2.503,0.486,2.755v0.126h-1.215c-0.454-0.882-0.341-3.313-0.519-4.303
			c-0.26-1.404-1.216-1.584-2.317-1.584H179.73z M183.165,67.691c1.636,0,2.9-0.756,2.9-2.575c0-1.944-1.361-2.413-2.836-2.413h-3.5
			v4.987H183.165z"/>
		<path d="M189.902,70.212c-0.017,2.017,0.956,3.691,2.819,3.691c1.265,0,2.253-0.774,2.545-2.143h1.085
			c-0.486,1.765-1.49,3.115-3.63,3.115c-2.689,0-3.856-2.125-3.856-4.879c0-2.719,1.458-4.952,3.856-4.952
			c2.302,0,3.711,1.819,3.695,5.168H189.902z M195.38,69.312c0-1.818-0.908-3.295-2.658-3.295c-1.718,0-2.625,1.53-2.819,3.295
			H195.38z"/>
		<path d="M198.877,71.706c0.309,1.603,1.054,2.197,2.512,2.197c1.41,0,2.074-0.828,2.074-1.729c0-2.701-5.38-0.792-5.38-4.465
			c0-1.548,1.086-2.665,2.949-2.665c1.815,0,2.998,0.829,3.241,2.935h-0.988c-0.179-1.44-1.054-1.962-2.269-1.962
			c-1.231,0-1.896,0.648-1.896,1.603c0,2.539,5.38,0.954,5.38,4.537c0,1.783-1.442,2.719-3.419,2.719s-3.111-1.404-3.192-3.169
			H198.877z"/>
		<path d="M212.098,65.296h0.973v9.327h-0.973v-1.296c-0.519,0.648-1.231,1.548-2.706,1.548c-2.236,0-2.981-1.494-2.981-3.439v-6.14
			h0.973v6.122c0,1.603,0.632,2.485,2.155,2.485c1.604,0,2.56-1.477,2.56-3.529V65.296z"/>
		<path d="M215.564,74.623V61.659h0.972v12.964H215.564z"/>
		<path d="M221.963,74.659c-0.227,0.054-0.648,0.216-1.118,0.216c-0.956,0-1.491-0.468-1.491-1.854v-6.824h-1.183v-0.9h1.183v-2.593
			h0.973v2.593h1.572v0.9h-1.572v6.392c0,0.918,0.032,1.314,0.843,1.314c0.259,0,0.535-0.054,0.794-0.126V74.659z"/>
		<path d="M224.765,63.315h-0.032v11.308h-1.102V61.659h1.247l6.741,11.325h0.033V61.659h1.102v12.964h-1.28L224.765,63.315z"/>
		<path d="M240.901,65.296h0.973v9.327h-0.973v-1.296c-0.519,0.648-1.231,1.548-2.706,1.548c-2.236,0-2.981-1.494-2.981-3.439v-6.14
			h0.972v6.122c0,1.603,0.632,2.485,2.155,2.485c1.604,0,2.561-1.477,2.561-3.529V65.296z"/>
		<path d="M245.064,74.623h-0.973v-9.327h0.973v1.404h0.032c0.502-1.062,1.507-1.657,2.593-1.657c1.556,0,2.106,0.811,2.463,1.801
			c0.552-1.207,1.54-1.801,2.739-1.801c2.284,0,2.608,1.819,2.608,3.691v5.888h-0.972v-6.446c0-1.333-0.422-2.161-1.799-2.161
			c-0.713,0-1.41,0.342-1.896,1.062c-0.421,0.612-0.551,1.747-0.551,2.521v5.023h-0.973v-6.446c0-1.333-0.421-2.161-1.798-2.161
			c-0.714,0-1.41,0.342-1.896,1.062c-0.421,0.612-0.551,1.747-0.551,2.521V74.623z"/>
	</g>
	<g>
		<path d="M221.849,116.691v-12.964h4.213c2.739,0,3.824,1.314,3.824,3.259c0,1.801-0.923,2.611-1.863,2.791v0.036
			c1.604,0.27,2.398,1.512,2.398,3.223c0,2.701-1.588,3.655-3.809,3.655H221.849z M222.95,109.453h2.787
			c2.302,0,3.047-0.9,3.047-2.467c0-1.62-0.875-2.214-3.29-2.214h-2.544V109.453z M222.95,115.647h2.804
			c2.431,0,3.565-0.36,3.565-2.611c0-2.143-1.361-2.539-3.436-2.539h-2.934V115.647z"/>
		<path d="M238.195,107.364h0.973v9.327h-0.973v-1.296c-0.519,0.648-1.231,1.548-2.706,1.548c-2.236,0-2.981-1.494-2.981-3.439
			v-6.14h0.973v6.122c0,1.603,0.632,2.485,2.155,2.485c1.604,0,2.56-1.477,2.56-3.529V107.364z"/>
		<path d="M242.082,113.774c0.309,1.603,1.054,2.197,2.512,2.197c1.41,0,2.074-0.828,2.074-1.729c0-2.701-5.38-0.792-5.38-4.465
			c0-1.548,1.086-2.665,2.949-2.665c1.815,0,2.998,0.829,3.241,2.935h-0.988c-0.179-1.44-1.054-1.962-2.269-1.962
			c-1.231,0-1.896,0.648-1.896,1.603c0,2.539,5.38,0.954,5.38,4.537c0,1.783-1.442,2.719-3.419,2.719s-3.111-1.404-3.192-3.169
			H242.082z"/>
		<path d="M249.551,119.23c0.259,0.054,0.534,0.108,0.81,0.108c1.103,0,1.265-1.765,1.637-2.575l-3.257-9.399h1.086l2.689,8.012
			l2.69-8.012h1.053l-3.127,9.201c-0.794,2.341-1.312,3.799-2.658,3.799c-0.34,0-0.664-0.054-0.923-0.126V119.23z"/>
	</g>
	<g>
		<path d="M222.772,158.391v-12.964h7.763v1.044h-6.66v4.681h6.012v1.044h-6.012v5.149h6.822v1.044H222.772z"/>
		<path d="M233.545,158.391h-0.973v-9.327h0.973v1.747h0.032c0.535-1.495,1.329-1.999,2.738-1.999v1.17
			c-2.188-0.054-2.771,1.747-2.771,3.835V158.391z"/>
		<path d="M238.94,158.391h-0.973v-9.327h0.973v1.747h0.032c0.535-1.495,1.329-1.999,2.738-1.999v1.17
			c-2.188-0.054-2.771,1.747-2.771,3.835V158.391z"/>
		<path d="M242.762,153.727c0-2.719,1.297-4.916,3.89-4.916c2.625,0,3.889,2.179,3.889,4.916c0,2.953-1.539,4.916-3.889,4.916
			C244.512,158.606,242.762,156.986,242.762,153.727z M246.651,149.784c-2.042,0-2.853,1.926-2.853,3.943
			c0,2.323,0.989,3.943,2.853,3.943c2.042,0,2.852-1.945,2.852-3.943C249.487,151.531,248.709,149.784,246.651,149.784z"/>
		<path d="M253.341,158.391h-0.972v-9.327h0.972v1.747h0.033c0.534-1.495,1.328-1.999,2.738-1.999v1.17
			c-2.188-0.054-2.771,1.747-2.771,3.835V158.391z"/>
	</g>
	<g>
		<path d="M206.572,200.458v-12.964h7.762v1.044h-6.66v4.681h6.013v1.044h-6.013v5.149h6.822v1.044H206.572z"/>
		<path d="M217.345,200.458h-0.972v-9.327h0.972v1.747h0.033c0.534-1.495,1.328-1.999,2.738-1.999v1.17
			c-2.188-0.054-2.771,1.747-2.771,3.835V200.458z"/>
		<path d="M222.739,200.458h-0.972v-9.327h0.972v1.747h0.033c0.534-1.495,1.328-1.999,2.738-1.999v1.17
			c-2.188-0.054-2.771,1.747-2.771,3.835V200.458z"/>
		<path d="M226.563,195.794c0-2.719,1.296-4.916,3.889-4.916c2.626,0,3.89,2.179,3.89,4.916c0,2.953-1.54,4.916-3.89,4.916
			C228.313,200.674,226.563,199.054,226.563,195.794z M230.451,191.852c-2.041,0-2.852,1.926-2.852,3.943
			c0,2.323,0.988,3.943,2.852,3.943c2.042,0,2.853-1.945,2.853-3.943C233.287,193.598,232.51,191.852,230.451,191.852z"/>
		<path d="M237.142,200.458h-0.973v-9.327h0.973v1.747h0.032c0.535-1.495,1.329-1.999,2.738-1.999v1.17
			c-2.188-0.054-2.771,1.747-2.771,3.835V200.458z"/>
		<path d="M242.05,200.458v-12.964h1.102v12.964H242.05z"/>
		<path d="M246.164,200.458v-12.964h3.986c1.297,0,2.512,0.09,3.598,0.972c1.54,1.243,1.944,3.763,1.944,5.492
			c0,1.71-0.34,3.619-1.409,4.916c-1.069,1.333-2.593,1.584-4.133,1.584H246.164z M247.267,199.414h2.642
			c0.988,0,1.847-0.072,2.738-0.594c1.556-0.882,1.944-3.097,1.944-4.861c0-1.891-0.373-3.961-2.01-4.934
			c-0.696-0.414-1.701-0.486-2.673-0.486h-2.642V199.414z"/>
	</g>
	<g>
		<path d="M207.334,242.525v-12.964h7.519v1.044h-6.417v4.681h5.834v1.044h-5.834v6.194H207.334z"/>
		<path d="M216.406,231.164v-1.603h1.069v1.603H216.406z M216.454,242.525v-9.327h0.973v9.327H216.454z"/>
		<path d="M220.051,242.525v-12.964h0.972v12.964H220.051z"/>
		<path d="M224.101,238.114c-0.017,2.017,0.956,3.691,2.819,3.691c1.265,0,2.253-0.774,2.545-2.143h1.085
			c-0.486,1.765-1.49,3.115-3.63,3.115c-2.689,0-3.856-2.125-3.856-4.879c0-2.719,1.458-4.952,3.856-4.952
			c2.302,0,3.711,1.819,3.695,5.168H224.101z M229.578,237.214c0-1.818-0.908-3.295-2.658-3.295c-1.718,0-2.625,1.53-2.819,3.295
			H229.578z"/>
		<path d="M232.654,242.525v-12.964h1.102v11.919h6.255v1.044H232.654z"/>
		<path d="M241.613,231.164v-1.603h1.069v1.603H241.613z M241.661,242.525v-9.327h0.973v9.327H241.661z"/>
		<path d="M245.679,239.608c0.309,1.603,1.054,2.197,2.512,2.197c1.41,0,2.074-0.828,2.074-1.729c0-2.701-5.38-0.792-5.38-4.465
			c0-1.548,1.086-2.665,2.949-2.665c1.815,0,2.998,0.829,3.241,2.935h-0.988c-0.179-1.44-1.054-1.962-2.269-1.962
			c-1.231,0-1.896,0.648-1.896,1.603c0,2.539,5.38,0.954,5.38,4.537c0,1.783-1.442,2.719-3.419,2.719s-3.111-1.404-3.192-3.169
			H245.679z"/>
		<path d="M256.161,242.562c-0.227,0.054-0.648,0.216-1.118,0.216c-0.956,0-1.491-0.468-1.491-1.854v-6.824h-1.183v-0.9h1.183
			v-2.593h0.973v2.593h1.572v0.9h-1.572v6.392c0,0.918,0.032,1.314,0.843,1.314c0.259,0,0.535-0.054,0.794-0.126V242.562z"/>
	</g>
	<g>
		<path class="st3" d="M74.658,14.393c0.179,2.323,1.572,3.169,3.354,3.169c2.09,0,2.966-1.26,2.966-2.683
			c0-4.016-7.114-1.351-7.114-6.446c0-1.8,1.345-3.475,3.954-3.475c2.625,0,3.938,1.765,3.921,3.872h-1.053
			c0-1.981-1.377-2.827-2.868-2.827c-2.236,0-3.046,1.53-2.852,2.863c0.502,3.349,7.114,0.937,7.114,5.96
			c0,2.376-1.572,3.781-4.262,3.781c-2.431,0-4.229-1.405-4.229-4.213H74.658z"/>
		<path class="st3" d="M86.906,18.3c-0.227,0.054-0.648,0.216-1.118,0.216c-0.956,0-1.491-0.468-1.491-1.854V9.837h-1.183v-0.9
			h1.183V6.344h0.973v2.593h1.572v0.9H85.27v6.392c0,0.918,0.032,1.314,0.842,1.314c0.259,0,0.535-0.054,0.794-0.126V18.3z"/>
		<path class="st3" d="M87.909,13.6c0-2.719,1.296-4.916,3.889-4.916c2.625,0,3.889,2.179,3.889,4.916
			c0,2.953-1.54,4.916-3.889,4.916C89.659,18.48,87.909,16.859,87.909,13.6z M91.798,9.657c-2.042,0-2.852,1.926-2.852,3.943
			c0,2.323,0.989,3.943,2.852,3.943c2.042,0,2.852-1.945,2.852-3.943C94.634,11.404,93.857,9.657,91.798,9.657z"/>
		<path class="st3" d="M98.488,18.264h-0.972V8.937h0.972v1.747h0.033c0.535-1.495,1.329-1.999,2.738-1.999v1.17
			c-2.188-0.054-2.771,1.747-2.771,3.835V18.264z"/>
		<path class="st3" d="M106.719,12.826c0.356-0.036,0.956-0.144,1.28-0.306s0.356-0.648,0.356-0.972c0-1.099-0.583-1.891-2.09-1.891
			c-1.345,0-2.269,0.486-2.447,2.106h-0.989c0.146-2.197,1.621-3.079,3.452-3.079c1.702,0,3.046,0.738,3.046,2.899v5.078
			c0,0.846,0.195,1.044,1.021,0.72v0.846c-0.146,0.054-0.486,0.18-0.762,0.18c-0.162,0-0.292-0.018-0.438-0.054
			c-0.648-0.108-0.762-0.738-0.778-1.386c-0.81,1.008-1.912,1.548-3.127,1.548c-1.475,0-2.803-0.882-2.803-2.683
			c0-1.566,0.972-2.521,2.933-2.809L106.719,12.826z M108.356,13.366c-0.826,0.378-1.669,0.45-2.512,0.522
			c-1.475,0.126-2.366,0.72-2.366,1.981c0,1.134,0.891,1.674,1.815,1.674c1.539,0,3.062-0.828,3.062-2.719V13.366z"/>
		<path class="st3" d="M118.352,8.937h0.972v8.426c0,2.503-0.746,4.718-3.938,4.718c-2.463,0-3.484-1.567-3.549-2.683h1.037
			c0.292,1.404,1.361,1.71,2.512,1.71c2.658,0,3.014-2.196,2.966-4.339c-0.616,1.134-1.815,1.747-2.998,1.747
			c-2.561,0-3.743-2.323-3.743-4.934c0-2.754,1.085-4.897,3.792-4.897c1.07,0,2.35,0.667,2.917,1.891h0.033V8.937z M115.516,9.657
			c-1.637,0-2.852,1.314-2.868,3.655c-0.081,2.341,0.858,4.231,2.868,4.231c1.766,0,2.836-1.8,2.836-3.907
			C118.352,11.386,117.347,9.657,115.516,9.657z"/>
		<path class="st3" d="M122.367,13.853c-0.016,2.017,0.957,3.691,2.82,3.691c1.264,0,2.252-0.774,2.544-2.143h1.086
			c-0.486,1.765-1.491,3.115-3.63,3.115c-2.69,0-3.857-2.125-3.857-4.879c0-2.719,1.458-4.952,3.857-4.952
			c2.301,0,3.711,1.819,3.695,5.168H122.367z M127.844,12.952c0-1.818-0.908-3.295-2.658-3.295c-1.718,0-2.625,1.53-2.82,3.295
			H127.844z"/>
		<path class="st3" d="M135.88,12.61v-1.044h4.991v6.698h-0.94v-2.215c-0.81,1.549-2.058,2.557-4.359,2.557
			c-2.949,0-5.104-2.287-5.104-6.896c0-3.799,1.718-6.752,5.396-6.752c2.447,0,4.375,1.333,4.878,4.105h-1.134
			c-0.389-1.945-1.929-3.061-3.663-3.061c-3.079,0-4.375,2.521-4.375,6.194c0,2.863,1.556,5.366,4.229,5.366
			c1.264,0,2.754-0.594,3.516-2.269c0.373-0.811,0.486-1.711,0.502-2.683H135.88z"/>
		<path class="st3" d="M143.978,13.853c-0.016,2.017,0.956,3.691,2.82,3.691c1.264,0,2.252-0.774,2.544-2.143h1.085
			c-0.486,1.765-1.491,3.115-3.63,3.115c-2.69,0-3.857-2.125-3.857-4.879c0-2.719,1.458-4.952,3.857-4.952
			c2.301,0,3.711,1.819,3.695,5.168H143.978z M149.455,12.952c0-1.818-0.908-3.295-2.658-3.295c-1.718,0-2.625,1.53-2.82,3.295
			H149.455z"/>
		<path class="st3" d="M155.335,18.3c-0.227,0.054-0.648,0.216-1.118,0.216c-0.956,0-1.491-0.468-1.491-1.854V9.837h-1.183v-0.9
			h1.183V6.344h0.973v2.593h1.572v0.9h-1.572v6.392c0,0.918,0.032,1.314,0.843,1.314c0.259,0,0.535-0.054,0.794-0.126V18.3z"/>
		<path class="st3" d="M156.922,18.264V5.3h7.519v1.044h-6.417v4.681h5.834v1.044h-5.834v6.194H156.922z"/>
		<path class="st3" d="M165.994,6.902V5.3h1.069v1.603H165.994z M166.042,18.264V8.937h0.973v9.327H166.042z"/>
		<path class="st3" d="M169.639,18.264V5.3h0.972v12.964H169.639z"/>
		<path class="st3" d="M173.689,13.853c-0.017,2.017,0.956,3.691,2.819,3.691c1.265,0,2.253-0.774,2.544-2.143h1.086
			c-0.486,1.765-1.49,3.115-3.63,3.115c-2.689,0-3.856-2.125-3.856-4.879c0-2.719,1.458-4.952,3.856-4.952
			c2.302,0,3.711,1.819,3.695,5.168H173.689z M179.166,12.952c0-1.818-0.908-3.295-2.658-3.295c-1.718,0-2.625,1.53-2.819,3.295
			H179.166z"/>
		<path class="st3" d="M182.242,18.264V5.3h1.102v11.919h6.255v1.044H182.242z"/>
		<path class="st3" d="M191.201,6.902V5.3h1.069v1.603H191.201z M191.249,18.264V8.937h0.973v9.327H191.249z"/>
		<path class="st3" d="M195.267,15.347c0.309,1.603,1.054,2.197,2.512,2.197c1.41,0,2.074-0.828,2.074-1.729
			c0-2.701-5.38-0.792-5.38-4.465c0-1.548,1.086-2.665,2.949-2.665c1.815,0,2.998,0.829,3.241,2.935h-0.988
			c-0.179-1.44-1.054-1.962-2.269-1.962c-1.231,0-1.896,0.648-1.896,1.603c0,2.539,5.38,0.954,5.38,4.537
			c0,1.783-1.442,2.719-3.419,2.719s-3.111-1.404-3.192-3.169H195.267z"/>
		<path class="st3" d="M205.749,18.3c-0.227,0.054-0.648,0.216-1.118,0.216c-0.956,0-1.491-0.468-1.491-1.854V9.837h-1.183v-0.9
			h1.183V6.344h0.973v2.593h1.572v0.9h-1.572v6.392c0,0.918,0.032,1.314,0.843,1.314c0.259,0,0.535-0.054,0.794-0.126V18.3z"/>
	</g>
	<g>
	</g>
	<g>
	</g>
	<g>
	</g>
	<g>
	</g>
	<g>
	</g>
	<g>
	</g>
	<g>
	</g>
	<g>
	</g>
	<g>
	</g>
	<g>
	</g>
	<g>
	</g>
	<g>
	</g>
	<g>
	</g>
	<g>
	</g>
	<g>
	</g>
</g>
</svg>
