<?xml version="1.0" encoding="utf-8"?>
<!-- Generator: Adobe Illustrator 28.2.0, SVG Export Plug-In . SVG Version: 6.00 Build 0)  -->
<svg version="1.1" xmlns="http://www.w3.org/2000/svg" xmlns:xlink="http://www.w3.org/1999/xlink" x="0px" y="0px"
	 width="281.185px" height="431.433px" viewBox="0 0 281.185 431.433" style="enable-background:new 0 0 281.185 431.433;"
	 xml:space="preserve">
<style type="text/css">
	.st0{fill:#F0F0F0;stroke:#828282;stroke-miterlimit:10;}
	.st1{fill:none;stroke:#828282;stroke-miterlimit:10;}
	.st2{fill:#828282;}
	.st3{fill:#FFFFFF;}
</style>
<g id="レイヤー_2">
	<rect x="20.323" y="0.5" class="st0" width="240.539" height="430.433"/>
	<line class="st1" x1="0" y1="25.814" x2="20.323" y2="25.814"/>
	<line class="st1" x1="0" y1="25.814" x2="20.323" y2="25.814"/>
	<line class="st1" x1="260.862" y1="25.814" x2="281.185" y2="25.814"/>
	<rect x="20.323" y="0.5" class="st2" width="240.539" height="21"/>
	<line class="st1" x1="52.171" y1="237.402" x2="229.07" y2="237.402"/>
	<line class="st1" x1="92.62" y1="195.335" x2="188.351" y2="195.335"/>
</g>
<g id="レイヤー_3">
	<g>
		<path d="M25.122,39.028V26.064h7.762v1.044h-6.66v4.681h6.012v1.044h-6.012v5.149h6.822v1.044H25.122z"/>
		<path d="M37.791,34.995l-2.609,4.033h-1.183l3.225-4.825l-2.966-4.501h1.199l2.317,3.709l2.382-3.709h1.231l-3.03,4.501
			l3.144,4.825h-1.167L37.791,34.995z"/>
		<path d="M43.573,34.617c-0.016,2.017,0.956,3.691,2.82,3.691c1.264,0,2.252-0.774,2.544-2.143h1.085
			c-0.486,1.765-1.491,3.115-3.63,3.115c-2.69,0-3.857-2.125-3.857-4.879c0-2.719,1.458-4.952,3.857-4.952
			c2.301,0,3.711,1.819,3.695,5.168H43.573z M49.051,33.716c0-1.818-0.908-3.295-2.658-3.295c-1.718,0-2.625,1.53-2.82,3.295H49.051
			z"/>
		<path d="M57.928,32.636c-0.34-1.386-1.199-2.214-2.496-2.214c-1.993,0-2.819,2.017-2.819,3.961c0,1.963,0.81,3.925,2.819,3.925
			c1.442,0,2.35-0.954,2.577-2.503h1.037c-0.34,2.071-1.507,3.475-3.614,3.475c-2.674,0-3.856-2.143-3.856-4.897
			c0-2.593,1.345-4.934,3.856-4.934c1.929,0,3.192,1.026,3.484,3.187H57.928z"/>
		<path d="M66.676,29.701h0.973v9.327h-0.973v-1.296c-0.519,0.648-1.231,1.548-2.706,1.548c-2.236,0-2.982-1.494-2.982-3.439v-6.14
			h0.973v6.122c0,1.603,0.632,2.485,2.155,2.485c1.604,0,2.56-1.477,2.56-3.529V29.701z"/>
		<path d="M72.945,39.064c-0.227,0.054-0.648,0.216-1.118,0.216c-0.956,0-1.491-0.468-1.491-1.854v-6.824h-1.183v-0.9h1.183v-2.593
			h0.973v2.593h1.572v0.9h-1.572v6.392c0,0.918,0.032,1.314,0.842,1.314c0.259,0,0.535-0.054,0.794-0.126V39.064z"/>
		<path d="M75.099,34.617c-0.016,2.017,0.956,3.691,2.82,3.691c1.264,0,2.252-0.774,2.544-2.143h1.085
			c-0.486,1.765-1.491,3.115-3.63,3.115c-2.69,0-3.857-2.125-3.857-4.879c0-2.719,1.458-4.952,3.857-4.952
			c2.301,0,3.711,1.819,3.695,5.168H75.099z M80.576,33.716c0-1.818-0.908-3.295-2.658-3.295c-1.718,0-2.625,1.53-2.82,3.295H80.576
			z"/>
	</g>
	<g>
		<path d="M25.073,74.623V61.659h4.262c3.03,0,3.808,1.674,3.808,3.619c0,2.899-2.317,3.619-4.473,3.619h-2.496v5.726H25.073z
			 M28.703,67.853c2.058,0,3.338-0.468,3.338-2.665c0-1.621-0.94-2.485-3.014-2.485h-2.852v5.149H28.703z"/>
		<path d="M38.731,69.186c0.356-0.036,0.956-0.144,1.28-0.306s0.356-0.648,0.356-0.972c0-1.099-0.583-1.891-2.09-1.891
			c-1.345,0-2.269,0.486-2.447,2.106h-0.989c0.146-2.197,1.621-3.079,3.452-3.079c1.702,0,3.046,0.738,3.046,2.899v5.078
			c0,0.846,0.195,1.044,1.021,0.72v0.846c-0.146,0.054-0.486,0.18-0.762,0.18c-0.162,0-0.292-0.018-0.438-0.054
			c-0.648-0.108-0.762-0.738-0.778-1.386c-0.81,1.008-1.912,1.548-3.127,1.548c-1.475,0-2.803-0.882-2.803-2.683
			c0-1.566,0.972-2.521,2.933-2.809L38.731,69.186z M40.367,69.726c-0.826,0.378-1.669,0.45-2.512,0.522
			c-1.475,0.126-2.366,0.72-2.366,1.981c0,1.134,0.891,1.674,1.815,1.674c1.539,0,3.062-0.828,3.062-2.719V69.726z"/>
		<path d="M46.831,74.659c-0.227,0.054-0.648,0.216-1.118,0.216c-0.956,0-1.491-0.468-1.491-1.854v-6.824h-1.183v-0.9h1.183v-2.593
			h0.973v2.593h1.572v0.9h-1.572v6.392c0,0.918,0.032,1.314,0.842,1.314c0.259,0,0.535-0.054,0.794-0.126V74.659z"/>
		<path d="M48.385,74.623V61.659h0.972v4.934c0.778-0.918,1.54-1.549,2.706-1.549c1.021,0,1.961,0.36,2.561,1.333
			c0.405,0.667,0.421,1.369,0.421,2.143v6.104h-0.973v-6.086c0-1.674-0.616-2.521-2.171-2.521c-1.199,0-2.025,0.864-2.333,1.818
			c-0.194,0.594-0.21,1.116-0.21,1.765v5.023H48.385z"/>
	</g>
	<g>
		<path d="M25.003,116.691v-12.964h1.592l3.612,11.434h0.03l3.551-11.434h1.577v12.964h-1.041v-11.56h-0.031l-3.612,11.56h-0.979
			l-3.627-11.56h-0.031v11.56H25.003z"/>
		<path d="M41.298,111.253c0.336-0.036,0.903-0.144,1.209-0.306s0.336-0.648,0.336-0.972c0-1.099-0.551-1.891-1.974-1.891
			c-1.271,0-2.143,0.486-2.311,2.106h-0.934c0.138-2.197,1.53-3.079,3.26-3.079c1.607,0,2.877,0.738,2.877,2.899v5.078
			c0,0.846,0.184,1.044,0.964,0.72v0.846c-0.138,0.054-0.459,0.18-0.72,0.18c-0.153,0-0.275-0.018-0.413-0.054
			c-0.612-0.108-0.719-0.738-0.734-1.386c-0.766,1.008-1.806,1.548-2.954,1.548c-1.393,0-2.647-0.882-2.647-2.683
			c0-1.566,0.918-2.521,2.77-2.809L41.298,111.253z M42.844,111.793c-0.78,0.378-1.576,0.45-2.372,0.522
			c-1.393,0.126-2.234,0.72-2.234,1.981c0,1.134,0.842,1.674,1.714,1.674c1.454,0,2.893-0.828,2.893-2.719V111.793z"/>
		<path d="M48.918,112.658l-2.464,4.033h-1.117l3.046-4.825l-2.801-4.501h1.132l2.188,3.709l2.25-3.709h1.163l-2.862,4.501
			l2.969,4.825H51.32L48.918,112.658z"/>
		<path d="M54.976,110.803v5.888h-1.041v-12.964h4.316c2.418,0,3.75,1.008,3.75,3.403c0,1.639-0.521,2.503-1.791,3.169
			c1.301,0.522,1.377,2.143,1.408,3.511c0.046,1.962,0.184,2.503,0.459,2.755v0.126h-1.147c-0.429-0.882-0.322-3.313-0.49-4.303
			c-0.245-1.404-1.148-1.584-2.189-1.584H54.976z M58.22,109.759c1.545,0,2.739-0.756,2.739-2.575c0-1.944-1.286-2.413-2.678-2.413
			h-3.306v4.987H58.22z"/>
		<path d="M64.584,112.28c-0.015,2.017,0.903,3.691,2.663,3.691c1.194,0,2.127-0.774,2.403-2.143h1.025
			c-0.459,1.765-1.408,3.115-3.428,3.115c-2.541,0-3.643-2.125-3.643-4.879c0-2.719,1.377-4.952,3.643-4.952
			c2.173,0,3.505,1.819,3.49,5.168H64.584z M69.757,111.379c0-1.818-0.857-3.295-2.51-3.295c-1.622,0-2.479,1.53-2.663,3.295H69.757
			z"/>
		<path d="M76.167,111.253c0.336-0.036,0.903-0.144,1.209-0.306s0.336-0.648,0.336-0.972c0-1.099-0.551-1.891-1.974-1.891
			c-1.271,0-2.143,0.486-2.311,2.106h-0.934c0.138-2.197,1.53-3.079,3.26-3.079c1.607,0,2.877,0.738,2.877,2.899v5.078
			c0,0.846,0.184,1.044,0.964,0.72v0.846c-0.138,0.054-0.459,0.18-0.72,0.18c-0.153,0-0.275-0.018-0.413-0.054
			c-0.612-0.108-0.719-0.738-0.734-1.386c-0.766,1.008-1.806,1.548-2.954,1.548c-1.393,0-2.647-0.882-2.647-2.683
			c0-1.566,0.918-2.521,2.77-2.809L76.167,111.253z M77.713,111.793c-0.78,0.378-1.576,0.45-2.372,0.522
			c-1.393,0.126-2.234,0.72-2.234,1.981c0,1.134,0.842,1.674,1.714,1.674c1.454,0,2.893-0.828,2.893-2.719V111.793z"/>
		<path d="M87.153,103.727h0.918v12.964h-0.918v-1.639h-0.03c-0.536,1.225-1.745,1.891-2.755,1.891
			c-2.556,0-3.582-2.143-3.582-4.897c0-2.611,1.117-4.934,3.536-4.934c1.117,0,2.25,0.612,2.831,1.747V103.727z M84.475,108.085
			c-1.898,0-2.785,1.891-2.709,4.231c0.016,2.341,1.163,3.655,2.709,3.655c1.729,0,2.678-1.729,2.678-3.979
			C87.153,109.885,86.143,108.085,84.475,108.085z"/>
		<path d="M90.517,116.691v-12.964h1.041v11.919h5.908v1.044H90.517z"/>
		<path d="M98.978,105.33v-1.603h1.01v1.603H98.978z M99.024,116.691v-9.327h0.918v9.327H99.024z"/>
		<path d="M103.201,116.691h-0.918v-9.327h0.918v1.296c0.735-0.918,1.454-1.549,2.556-1.549c0.964,0,1.852,0.36,2.418,1.333
			c0.383,0.667,0.398,1.369,0.398,2.143v6.104h-0.918v-6.086c0-1.674-0.582-2.521-2.051-2.521c-1.132,0-1.913,0.864-2.204,1.818
			c-0.184,0.594-0.199,1.116-0.199,1.765V116.691z"/>
		<path d="M111.356,112.28c-0.015,2.017,0.903,3.691,2.663,3.691c1.194,0,2.127-0.774,2.403-2.143h1.025
			c-0.459,1.765-1.408,3.115-3.428,3.115c-2.541,0-3.643-2.125-3.643-4.879c0-2.719,1.377-4.952,3.643-4.952
			c2.173,0,3.505,1.819,3.49,5.168H111.356z M116.529,111.379c0-1.818-0.857-3.295-2.51-3.295c-1.622,0-2.479,1.53-2.663,3.295
			H116.529z"/>
		<path d="M120.475,105.383h-0.03v11.308h-1.041v-12.964h1.179l6.367,11.325h0.03v-11.325h1.041v12.964h-1.209L120.475,105.383z"/>
		<path d="M135.714,107.364h0.918v9.327h-0.918v-1.296c-0.49,0.648-1.163,1.548-2.556,1.548c-2.112,0-2.816-1.494-2.816-3.439v-6.14
			h0.918v6.122c0,1.603,0.597,2.485,2.036,2.485c1.515,0,2.418-1.477,2.418-3.529V107.364z"/>
		<path d="M139.646,116.691h-0.918v-9.327h0.918v1.404h0.03c0.475-1.062,1.423-1.657,2.449-1.657c1.469,0,1.99,0.811,2.327,1.801
			c0.52-1.207,1.454-1.801,2.586-1.801c2.158,0,2.464,1.819,2.464,3.691v5.888h-0.918v-6.446c0-1.333-0.398-2.161-1.699-2.161
			c-0.673,0-1.332,0.342-1.791,1.062c-0.398,0.612-0.521,1.747-0.521,2.521v5.023h-0.918v-6.446c0-1.333-0.398-2.161-1.699-2.161
			c-0.674,0-1.332,0.342-1.791,1.062c-0.398,0.612-0.52,1.747-0.52,2.521V116.691z"/>
	</g>
	<g>
		<path d="M25.073,158.391v-12.964h1.685l3.824,11.434h0.033l3.759-11.434h1.669v12.964h-1.102v-11.56h-0.033l-3.824,11.56h-1.037
			l-3.84-11.56h-0.033v11.56H25.073z"/>
		<path d="M42.327,152.953c0.356-0.036,0.956-0.144,1.28-0.306s0.356-0.648,0.356-0.972c0-1.099-0.583-1.891-2.09-1.891
			c-1.345,0-2.269,0.486-2.447,2.106h-0.989c0.146-2.197,1.621-3.079,3.452-3.079c1.702,0,3.046,0.738,3.046,2.899v5.078
			c0,0.846,0.195,1.044,1.021,0.72v0.846c-0.146,0.054-0.486,0.18-0.762,0.18c-0.162,0-0.292-0.018-0.438-0.054
			c-0.648-0.108-0.762-0.738-0.778-1.386c-0.81,1.008-1.912,1.548-3.127,1.548c-1.475,0-2.803-0.882-2.803-2.683
			c0-1.566,0.972-2.521,2.933-2.809L42.327,152.953z M43.964,153.493c-0.826,0.378-1.669,0.45-2.512,0.522
			c-1.475,0.126-2.366,0.72-2.366,1.981c0,1.134,0.891,1.674,1.815,1.674c1.539,0,3.062-0.828,3.062-2.719V153.493z"/>
		<path d="M50.395,154.357l-2.609,4.033h-1.183l3.225-4.825l-2.966-4.501h1.199l2.317,3.709l2.382-3.709h1.231l-3.03,4.501
			l3.144,4.825h-1.167L50.395,154.357z"/>
		<path d="M55.724,158.391v-12.964h4.213c2.739,0,3.824,1.314,3.824,3.259c0,1.801-0.923,2.611-1.863,2.791v0.036
			c1.604,0.27,2.398,1.512,2.398,3.223c0,2.701-1.588,3.655-3.808,3.655H55.724z M56.826,151.152h2.787
			c2.301,0,3.046-0.9,3.046-2.467c0-1.62-0.875-2.214-3.29-2.214h-2.544V151.152z M56.826,157.346h2.803
			c2.431,0,3.565-0.36,3.565-2.611c0-2.143-1.361-2.539-3.436-2.539h-2.933V157.346z"/>
		<path d="M66.318,160.929c0.259,0.054,0.535,0.108,0.81,0.108c1.102,0,1.264-1.765,1.637-2.575l-3.257-9.399h1.086l2.69,8.012
			l2.69-8.012h1.053l-3.127,9.201c-0.794,2.341-1.312,3.799-2.658,3.799c-0.34,0-0.664-0.054-0.923-0.126V160.929z"/>
		<path d="M77.433,158.427c-0.227,0.054-0.648,0.216-1.118,0.216c-0.956,0-1.491-0.468-1.491-1.854v-6.824h-1.183v-0.9h1.183v-2.593
			h0.973v2.593h1.572v0.9h-1.572v6.392c0,0.918,0.032,1.314,0.842,1.314c0.259,0,0.535-0.054,0.794-0.126V158.427z"/>
		<path d="M79.586,153.98c-0.016,2.017,0.956,3.691,2.82,3.691c1.264,0,2.252-0.774,2.544-2.143h1.085
			c-0.486,1.765-1.491,3.115-3.63,3.115c-2.69,0-3.857-2.125-3.857-4.879c0-2.719,1.458-4.952,3.857-4.952
			c2.301,0,3.711,1.819,3.695,5.168H79.586z M85.064,153.079c0-1.818-0.908-3.295-2.658-3.295c-1.718,0-2.625,1.53-2.82,3.295
			H85.064z"/>
		<path d="M88.593,154.52c0.178,2.323,1.572,3.169,3.354,3.169c2.09,0,2.966-1.26,2.966-2.683c0-4.016-7.114-1.351-7.114-6.446
			c0-1.8,1.345-3.475,3.954-3.475c2.625,0,3.938,1.765,3.921,3.872h-1.053c0-1.981-1.377-2.827-2.868-2.827
			c-2.236,0-3.046,1.53-2.852,2.863c0.502,3.349,7.114,0.937,7.114,5.96c0,2.376-1.572,3.781-4.262,3.781
			c-2.431,0-4.229-1.405-4.229-4.213H88.593z"/>
		<path d="M97.989,147.029v-1.603h1.069v1.603H97.989z M98.038,158.391v-9.327h0.972v9.327H98.038z"/>
		<path d="M100.856,158.391v-0.954l5.575-7.473h-5.202v-0.9h6.45v0.954l-5.574,7.472h5.785v0.9H100.856z"/>
		<path d="M110.188,153.98c-0.016,2.017,0.956,3.691,2.82,3.691c1.264,0,2.252-0.774,2.544-2.143h1.085
			c-0.486,1.765-1.491,3.115-3.63,3.115c-2.69,0-3.857-2.125-3.857-4.879c0-2.719,1.458-4.952,3.857-4.952
			c2.301,0,3.711,1.819,3.695,5.168H110.188z M115.665,153.079c0-1.818-0.908-3.295-2.658-3.295c-1.718,0-2.625,1.53-2.82,3.295
			H115.665z"/>
	</g>
	<g>
		<path d="M26.208,194.57v5.888h-1.102v-12.964h4.57c2.56,0,3.97,1.008,3.97,3.403c0,1.639-0.551,2.503-1.896,3.169
			c1.377,0.522,1.458,2.143,1.491,3.511c0.049,1.962,0.194,2.503,0.486,2.755v0.126h-1.215c-0.454-0.882-0.34-3.313-0.519-4.303
			c-0.259-1.404-1.215-1.584-2.317-1.584H26.208z M29.643,193.526c1.637,0,2.901-0.756,2.901-2.575c0-1.944-1.361-2.413-2.836-2.413
			h-3.5v4.987H29.643z"/>
		<path d="M36.38,196.047c-0.016,2.017,0.957,3.691,2.82,3.691c1.264,0,2.252-0.774,2.544-2.143h1.086
			c-0.486,1.765-1.491,3.115-3.63,3.115c-2.69,0-3.857-2.125-3.857-4.879c0-2.719,1.458-4.952,3.857-4.952
			c2.301,0,3.711,1.819,3.695,5.168H36.38z M41.858,195.147c0-1.818-0.908-3.295-2.658-3.295c-1.718,0-2.625,1.53-2.82,3.295H41.858
			z"/>
		<path d="M48.645,195.021c0.356-0.036,0.956-0.144,1.28-0.306s0.356-0.648,0.356-0.972c0-1.099-0.583-1.891-2.09-1.891
			c-1.345,0-2.269,0.486-2.447,2.106h-0.989c0.146-2.197,1.621-3.079,3.452-3.079c1.702,0,3.046,0.738,3.046,2.899v5.078
			c0,0.846,0.195,1.044,1.021,0.72v0.846c-0.146,0.054-0.486,0.18-0.762,0.18c-0.162,0-0.292-0.018-0.438-0.054
			c-0.648-0.108-0.762-0.738-0.778-1.386c-0.81,1.008-1.912,1.548-3.127,1.548c-1.475,0-2.803-0.882-2.803-2.683
			c0-1.566,0.972-2.521,2.933-2.809L48.645,195.021z M50.282,195.561c-0.827,0.378-1.669,0.45-2.512,0.522
			c-1.475,0.126-2.366,0.72-2.366,1.981c0,1.134,0.891,1.674,1.815,1.674c1.539,0,3.062-0.828,3.062-2.719V195.561z"/>
		<path d="M60.277,187.494h0.973v12.964h-0.973v-1.639h-0.032c-0.567,1.225-1.847,1.891-2.917,1.891
			c-2.706,0-3.792-2.143-3.792-4.897c0-2.611,1.183-4.934,3.744-4.934c1.183,0,2.382,0.612,2.998,1.747V187.494z M57.442,191.852
			c-2.01,0-2.949,1.891-2.869,4.231c0.017,2.341,1.232,3.655,2.869,3.655c1.831,0,2.835-1.729,2.835-3.979
			C60.277,193.652,59.208,191.852,57.442,191.852z"/>
		<path d="M63.791,200.458v-12.964h4.262c3.03,0,3.808,1.674,3.808,3.619c0,2.899-2.317,3.619-4.473,3.619h-2.496v5.726H63.791z
			 M67.421,193.688c2.058,0,3.338-0.468,3.338-2.665c0-1.621-0.94-2.485-3.014-2.485h-2.852v5.149H67.421z"/>
		<path d="M73.041,195.794c0-2.719,1.296-4.916,3.889-4.916c2.625,0,3.889,2.179,3.889,4.916c0,2.953-1.54,4.916-3.889,4.916
			C74.791,200.674,73.041,199.054,73.041,195.794z M76.93,191.852c-2.042,0-2.852,1.926-2.852,3.943
			c0,2.323,0.989,3.943,2.852,3.943c2.042,0,2.852-1.945,2.852-3.943C79.766,193.598,78.988,191.852,76.93,191.852z"/>
		<path d="M83.166,197.541c0.308,1.603,1.053,2.197,2.512,2.197c1.41,0,2.074-0.828,2.074-1.729c0-2.701-5.38-0.792-5.38-4.465
			c0-1.548,1.085-2.665,2.949-2.665c1.815,0,2.998,0.829,3.241,2.935h-0.989c-0.178-1.44-1.053-1.962-2.269-1.962
			c-1.231,0-1.896,0.648-1.896,1.603c0,2.539,5.38,0.954,5.38,4.537c0,1.783-1.442,2.719-3.419,2.719
			c-1.977,0-3.111-1.404-3.192-3.169H83.166z"/>
	</g>
	<g>
		<path d="M25.122,242.525v-12.964h3.986c1.296,0,2.512,0.09,3.598,0.972c1.54,1.243,1.944,3.763,1.944,5.492
			c0,1.71-0.34,3.619-1.41,4.916c-1.069,1.333-2.593,1.584-4.132,1.584H25.122z M26.224,241.481h2.642
			c0.988,0,1.847-0.072,2.738-0.594c1.556-0.882,1.945-3.097,1.945-4.861c0-1.891-0.373-3.961-2.01-4.934
			c-0.697-0.414-1.701-0.486-2.673-0.486h-2.642V241.481z"/>
		<path d="M37.239,239.608c0.308,1.603,1.053,2.197,2.512,2.197c1.41,0,2.074-0.828,2.074-1.729c0-2.701-5.38-0.792-5.38-4.465
			c0-1.548,1.085-2.665,2.949-2.665c1.815,0,2.998,0.829,3.241,2.935h-0.989c-0.178-1.44-1.053-1.962-2.269-1.962
			c-1.231,0-1.896,0.648-1.896,1.603c0,2.539,5.38,0.954,5.38,4.537c0,1.783-1.442,2.719-3.419,2.719
			c-1.977,0-3.111-1.404-3.192-3.169H37.239z"/>
		<path d="M47.722,242.562c-0.227,0.054-0.648,0.216-1.118,0.216c-0.956,0-1.491-0.468-1.491-1.854v-6.824H43.93v-0.9h1.183v-2.593
			h0.973v2.593h1.572v0.9h-1.572v6.392c0,0.918,0.032,1.314,0.842,1.314c0.259,0,0.535-0.054,0.794-0.126V242.562z"/>
	</g>
	<g>
		<path d="M219.143,39.028V26.064h3.986c1.297,0,2.512,0.09,3.598,0.972c1.54,1.243,1.944,3.763,1.944,5.492
			c0,1.71-0.34,3.619-1.409,4.916c-1.069,1.333-2.593,1.584-4.133,1.584H219.143z M220.245,37.983h2.642
			c0.988,0,1.847-0.072,2.738-0.594c1.556-0.882,1.944-3.097,1.944-4.861c0-1.891-0.373-3.961-2.01-4.934
			c-0.696-0.414-1.701-0.486-2.673-0.486h-2.642V37.983z"/>
		<path d="M230.143,34.364c0-2.719,1.296-4.916,3.889-4.916c2.626,0,3.89,2.179,3.89,4.916c0,2.953-1.54,4.916-3.89,4.916
			C231.893,39.244,230.143,37.624,230.143,34.364z M234.031,30.421c-2.041,0-2.852,1.926-2.852,3.943
			c0,2.323,0.988,3.943,2.852,3.943c2.042,0,2.853-1.945,2.853-3.943C236.867,32.168,236.09,30.421,234.031,30.421z"/>
		<path d="M240.673,39.028h-0.972v-9.327h0.972v1.296c0.778-0.918,1.54-1.549,2.706-1.549c1.021,0,1.961,0.36,2.561,1.333
			c0.405,0.667,0.422,1.369,0.422,2.143v6.104h-0.973v-6.086c0-1.674-0.616-2.521-2.172-2.521c-1.199,0-2.025,0.864-2.333,1.818
			c-0.194,0.594-0.211,1.116-0.211,1.765V39.028z"/>
		<path d="M249.308,34.617c-0.017,2.017,0.956,3.691,2.819,3.691c1.265,0,2.253-0.774,2.545-2.143h1.085
			c-0.486,1.765-1.49,3.115-3.63,3.115c-2.689,0-3.856-2.125-3.856-4.879c0-2.719,1.458-4.952,3.856-4.952
			c2.302,0,3.711,1.819,3.695,5.168H249.308z M254.785,33.716c0-1.818-0.908-3.295-2.658-3.295c-1.718,0-2.625,1.53-2.819,3.295
			H254.785z"/>
	</g>
	<g>
		<path d="M166.931,74.623V61.659h4.214c2.738,0,3.824,1.314,3.824,3.259c0,1.801-0.924,2.611-1.863,2.791v0.036
			c1.604,0.27,2.397,1.512,2.397,3.223c0,2.701-1.588,3.655-3.808,3.655H166.931z M168.033,67.385h2.787
			c2.301,0,3.046-0.9,3.046-2.467c0-1.62-0.875-2.214-3.289-2.214h-2.544V67.385z M168.033,73.579h2.803
			c2.432,0,3.565-0.36,3.565-2.611c0-2.143-1.361-2.539-3.436-2.539h-2.933V73.579z"/>
		<path d="M177.526,77.162c0.26,0.054,0.535,0.108,0.811,0.108c1.102,0,1.264-1.765,1.637-2.575l-3.258-9.399h1.086l2.69,8.012
			l2.689-8.012h1.054l-3.128,9.201c-0.794,2.341-1.312,3.799-2.657,3.799c-0.34,0-0.664-0.054-0.924-0.126V77.162z"/>
		<path d="M188.64,74.659c-0.227,0.054-0.648,0.216-1.118,0.216c-0.956,0-1.491-0.468-1.491-1.854v-6.824h-1.183v-0.9h1.183v-2.593
			h0.973v2.593h1.572v0.9h-1.572v6.392c0,0.918,0.032,1.314,0.843,1.314c0.259,0,0.535-0.054,0.794-0.126V74.659z"/>
		<path d="M190.793,70.212c-0.016,2.017,0.957,3.691,2.82,3.691c1.264,0,2.252-0.774,2.544-2.143h1.086
			c-0.486,1.765-1.491,3.115-3.63,3.115c-2.69,0-3.857-2.125-3.857-4.879c0-2.719,1.459-4.952,3.857-4.952
			c2.301,0,3.711,1.819,3.694,5.168H190.793z M196.271,69.312c0-1.818-0.907-3.295-2.657-3.295c-1.718,0-2.625,1.53-2.82,3.295
			H196.271z"/>
		<path d="M199.801,70.752c0.179,2.323,1.572,3.169,3.354,3.169c2.09,0,2.966-1.26,2.966-2.683c0-4.016-7.114-1.351-7.114-6.446
			c0-1.8,1.345-3.475,3.954-3.475c2.625,0,3.938,1.765,3.921,3.872h-1.053c0-1.981-1.378-2.827-2.868-2.827
			c-2.236,0-3.047,1.53-2.853,2.863c0.503,3.349,7.114,0.937,7.114,5.96c0,2.376-1.572,3.781-4.262,3.781
			c-2.431,0-4.229-1.405-4.229-4.213H199.801z"/>
		<path d="M209.196,63.262v-1.603h1.069v1.603H209.196z M209.245,74.623v-9.327h0.972v9.327H209.245z"/>
		<path d="M212.064,74.623v-0.954l5.574-7.473h-5.201v-0.9h6.449v0.954l-5.574,7.472h5.785v0.9H212.064z"/>
		<path d="M221.395,70.212c-0.016,2.017,0.957,3.691,2.82,3.691c1.264,0,2.252-0.774,2.544-2.143h1.086
			c-0.486,1.765-1.491,3.115-3.63,3.115c-2.69,0-3.857-2.125-3.857-4.879c0-2.719,1.459-4.952,3.857-4.952
			c2.301,0,3.711,1.819,3.694,5.168H221.395z M226.872,69.312c0-1.818-0.907-3.295-2.657-3.295c-1.718,0-2.625,1.53-2.82,3.295
			H226.872z"/>
		<path d="M231.034,68.735v5.888h-1.102V61.659h4.569c2.561,0,3.971,1.008,3.971,3.403c0,1.639-0.552,2.503-1.896,3.169
			c1.378,0.522,1.459,2.143,1.491,3.511c0.049,1.962,0.194,2.503,0.486,2.755v0.126h-1.216c-0.454-0.882-0.34-3.313-0.519-4.303
			c-0.259-1.404-1.215-1.584-2.317-1.584H231.034z M234.47,67.691c1.637,0,2.9-0.756,2.9-2.575c0-1.944-1.361-2.413-2.836-2.413
			h-3.5v4.987H234.47z"/>
		<path d="M241.207,70.212c-0.016,2.017,0.957,3.691,2.82,3.691c1.264,0,2.252-0.774,2.544-2.143h1.086
			c-0.486,1.765-1.491,3.115-3.63,3.115c-2.69,0-3.857-2.125-3.857-4.879c0-2.719,1.459-4.952,3.857-4.952
			c2.301,0,3.711,1.819,3.694,5.168H241.207z M246.685,69.312c0-1.818-0.907-3.295-2.657-3.295c-1.718,0-2.625,1.53-2.82,3.295
			H246.685z"/>
		<path d="M250.183,71.706c0.308,1.603,1.053,2.197,2.512,2.197c1.409,0,2.074-0.828,2.074-1.729c0-2.701-5.38-0.792-5.38-4.465
			c0-1.548,1.085-2.665,2.949-2.665c1.814,0,2.998,0.829,3.241,2.935h-0.989c-0.178-1.44-1.053-1.962-2.269-1.962
			c-1.231,0-1.896,0.648-1.896,1.603c0,2.539,5.38,0.954,5.38,4.537c0,1.783-1.442,2.719-3.419,2.719
			c-1.978,0-3.111-1.404-3.192-3.169H250.183z"/>
	</g>
	<g>
		<path d="M161.032,110.803v5.888h-1.041v-12.964h4.315c2.419,0,3.75,1.008,3.75,3.403c0,1.639-0.521,2.503-1.791,3.169
			c1.302,0.522,1.378,2.143,1.408,3.511c0.046,1.962,0.184,2.503,0.459,2.755v0.126h-1.147c-0.429-0.882-0.321-3.313-0.489-4.303
			c-0.245-1.404-1.148-1.584-2.189-1.584H161.032z M164.276,109.759c1.546,0,2.739-0.756,2.739-2.575
			c0-1.944-1.285-2.413-2.678-2.413h-3.306v4.987H164.276z"/>
		<path d="M170.64,112.28c-0.015,2.017,0.903,3.691,2.663,3.691c1.194,0,2.128-0.774,2.403-2.143h1.025
			c-0.459,1.765-1.408,3.115-3.429,3.115c-2.54,0-3.643-2.125-3.643-4.879c0-2.719,1.378-4.952,3.643-4.952
			c2.174,0,3.505,1.819,3.49,5.168H170.64z M175.814,111.379c0-1.818-0.857-3.295-2.511-3.295c-1.622,0-2.479,1.53-2.663,3.295
			H175.814z"/>
		<path d="M182.224,111.253c0.336-0.036,0.902-0.144,1.209-0.306c0.306-0.162,0.336-0.648,0.336-0.972
			c0-1.099-0.551-1.891-1.974-1.891c-1.271,0-2.143,0.486-2.312,2.106h-0.934c0.138-2.197,1.53-3.079,3.26-3.079
			c1.607,0,2.878,0.738,2.878,2.899v5.078c0,0.846,0.184,1.044,0.964,0.72v0.846c-0.138,0.054-0.459,0.18-0.72,0.18
			c-0.152,0-0.275-0.018-0.413-0.054c-0.612-0.108-0.719-0.738-0.734-1.386c-0.766,1.008-1.806,1.548-2.954,1.548
			c-1.393,0-2.647-0.882-2.647-2.683c0-1.566,0.918-2.521,2.771-2.809L182.224,111.253z M183.769,111.793
			c-0.78,0.378-1.576,0.45-2.372,0.522c-1.393,0.126-2.234,0.72-2.234,1.981c0,1.134,0.842,1.674,1.714,1.674
			c1.454,0,2.893-0.828,2.893-2.719V111.793z"/>
		<path d="M193.209,103.727h0.919v12.964h-0.919v-1.639h-0.03c-0.535,1.225-1.745,1.891-2.755,1.891
			c-2.556,0-3.581-2.143-3.581-4.897c0-2.611,1.117-4.934,3.535-4.934c1.117,0,2.25,0.612,2.831,1.747V103.727z M190.531,108.085
			c-1.898,0-2.785,1.891-2.709,4.231c0.016,2.341,1.163,3.655,2.709,3.655c1.729,0,2.678-1.729,2.678-3.979
			C193.209,109.885,192.199,108.085,190.531,108.085z"/>
		<path d="M196.573,116.691v-12.964h1.041v11.919h5.907v1.044H196.573z"/>
		<path d="M205.034,105.33v-1.603h1.011v1.603H205.034z M205.08,116.691v-9.327h0.918v9.327H205.08z"/>
		<path d="M209.257,116.691h-0.918v-9.327h0.918v1.296c0.735-0.918,1.454-1.549,2.557-1.549c0.964,0,1.852,0.36,2.418,1.333
			c0.383,0.667,0.397,1.369,0.397,2.143v6.104h-0.918v-6.086c0-1.674-0.582-2.521-2.051-2.521c-1.133,0-1.913,0.864-2.204,1.818
			c-0.184,0.594-0.199,1.116-0.199,1.765V116.691z"/>
		<path d="M217.412,112.28c-0.016,2.017,0.903,3.691,2.663,3.691c1.193,0,2.127-0.774,2.402-2.143h1.025
			c-0.459,1.765-1.407,3.115-3.428,3.115c-2.541,0-3.643-2.125-3.643-4.879c0-2.719,1.377-4.952,3.643-4.952
			c2.173,0,3.505,1.819,3.489,5.168H217.412z M222.585,111.379c0-1.818-0.857-3.295-2.51-3.295c-1.622,0-2.479,1.53-2.663,3.295
			H222.585z"/>
		<path d="M226.531,105.383h-0.03v11.308h-1.041v-12.964h1.179l6.366,11.325h0.03v-11.325h1.041v12.964h-1.209L226.531,105.383z"/>
		<path d="M241.771,107.364h0.919v9.327h-0.919v-1.296c-0.489,0.648-1.163,1.548-2.556,1.548c-2.111,0-2.815-1.494-2.815-3.439
			v-6.14h0.918v6.122c0,1.603,0.597,2.485,2.035,2.485c1.516,0,2.418-1.477,2.418-3.529V107.364z"/>
		<path d="M245.702,116.691h-0.919v-9.327h0.919v1.404h0.03c0.475-1.062,1.423-1.657,2.448-1.657c1.47,0,1.99,0.811,2.327,1.801
			c0.52-1.207,1.453-1.801,2.586-1.801c2.158,0,2.464,1.819,2.464,3.691v5.888h-0.918v-6.446c0-1.333-0.398-2.161-1.699-2.161
			c-0.673,0-1.331,0.342-1.79,1.062c-0.398,0.612-0.521,1.747-0.521,2.521v5.023h-0.918v-6.446c0-1.333-0.398-2.161-1.699-2.161
			c-0.674,0-1.331,0.342-1.791,1.062c-0.397,0.612-0.52,1.747-0.52,2.521V116.691z"/>
	</g>
	<g>
		<path d="M226.352,158.391v-12.964h7.763v1.044h-6.66v4.681h6.012v1.044h-6.012v5.149h6.822v1.044H226.352z"/>
		<path d="M241.176,145.085c3.646,0,5.494,3.043,5.494,6.842c0,3.727-1.848,6.806-5.445,6.806s-5.429-3.079-5.429-6.806
			C235.78,148.146,237.693,145.085,241.176,145.085z M245.568,151.927c0-3.601-1.669-5.798-4.358-5.798
			c-2.998,0-4.311,2.791-4.311,5.798c0,3.061,1.296,5.762,4.343,5.762C244.272,157.689,245.568,154.952,245.568,151.927z"/>
		<path d="M248.74,158.391v-12.964h7.519v1.044h-6.417v4.681h5.834v1.044h-5.834v6.194H248.74z"/>
	</g>
	<g>
		<path d="M193.224,194.57v5.888h-1.103v-12.964h4.57c2.561,0,3.97,1.008,3.97,3.403c0,1.639-0.551,2.503-1.896,3.169
			c1.377,0.522,1.458,2.143,1.49,3.511c0.049,1.962,0.194,2.503,0.486,2.755v0.126h-1.215c-0.454-0.882-0.341-3.313-0.519-4.303
			c-0.26-1.404-1.216-1.584-2.317-1.584H193.224z M196.659,193.526c1.636,0,2.9-0.756,2.9-2.575c0-1.944-1.361-2.413-2.836-2.413
			h-3.5v4.987H196.659z"/>
		<path d="M203.397,196.047c-0.017,2.017,0.956,3.691,2.819,3.691c1.265,0,2.253-0.774,2.545-2.143h1.085
			c-0.486,1.765-1.49,3.115-3.63,3.115c-2.689,0-3.856-2.125-3.856-4.879c0-2.719,1.458-4.952,3.856-4.952
			c2.302,0,3.711,1.819,3.695,5.168H203.397z M208.874,195.147c0-1.818-0.908-3.295-2.658-3.295c-1.718,0-2.625,1.53-2.819,3.295
			H208.874z"/>
		<path d="M215.661,195.021c0.356-0.036,0.956-0.144,1.28-0.306s0.356-0.648,0.356-0.972c0-1.099-0.584-1.891-2.091-1.891
			c-1.345,0-2.269,0.486-2.446,2.106h-0.989c0.146-2.197,1.621-3.079,3.452-3.079c1.701,0,3.046,0.738,3.046,2.899v5.078
			c0,0.846,0.195,1.044,1.021,0.72v0.846c-0.146,0.054-0.486,0.18-0.762,0.18c-0.162,0-0.292-0.018-0.438-0.054
			c-0.648-0.108-0.762-0.738-0.778-1.386c-0.81,1.008-1.912,1.548-3.127,1.548c-1.475,0-2.804-0.882-2.804-2.683
			c0-1.566,0.973-2.521,2.934-2.809L215.661,195.021z M217.298,195.561c-0.826,0.378-1.669,0.45-2.512,0.522
			c-1.475,0.126-2.366,0.72-2.366,1.981c0,1.134,0.892,1.674,1.815,1.674c1.539,0,3.062-0.828,3.062-2.719V195.561z"/>
		<path d="M227.294,187.494h0.972v12.964h-0.972v-1.639h-0.033c-0.566,1.225-1.847,1.891-2.917,1.891
			c-2.706,0-3.791-2.143-3.791-4.897c0-2.611,1.183-4.934,3.743-4.934c1.183,0,2.382,0.612,2.998,1.747V187.494z M224.458,191.852
			c-2.01,0-2.949,1.891-2.868,4.231c0.016,2.341,1.231,3.655,2.868,3.655c1.831,0,2.836-1.729,2.836-3.979
			C227.294,193.652,226.224,191.852,224.458,191.852z"/>
		<path d="M230.807,200.458v-12.964h4.262c3.03,0,3.809,1.674,3.809,3.619c0,2.899-2.317,3.619-4.473,3.619h-2.496v5.726H230.807z
			 M234.437,193.688c2.058,0,3.338-0.468,3.338-2.665c0-1.621-0.939-2.485-3.014-2.485h-2.853v5.149H234.437z"/>
		<path d="M240.057,195.794c0-2.719,1.296-4.916,3.889-4.916c2.626,0,3.89,2.179,3.89,4.916c0,2.953-1.54,4.916-3.89,4.916
			C241.807,200.674,240.057,199.054,240.057,195.794z M243.945,191.852c-2.041,0-2.852,1.926-2.852,3.943
			c0,2.323,0.988,3.943,2.852,3.943c2.042,0,2.853-1.945,2.853-3.943C246.781,193.598,246.004,191.852,243.945,191.852z"/>
		<path d="M250.182,197.541c0.309,1.603,1.054,2.197,2.512,2.197c1.41,0,2.074-0.828,2.074-1.729c0-2.701-5.38-0.792-5.38-4.465
			c0-1.548,1.086-2.665,2.949-2.665c1.815,0,2.998,0.829,3.241,2.935h-0.988c-0.179-1.44-1.054-1.962-2.269-1.962
			c-1.231,0-1.896,0.648-1.896,1.603c0,2.539,5.38,0.954,5.38,4.537c0,1.783-1.442,2.719-3.419,2.719s-3.111-1.404-3.192-3.169
			H250.182z"/>
	</g>
	<g>
		<path d="M233.561,242.525v-12.964h3.986c1.297,0,2.512,0.09,3.598,0.972c1.54,1.243,1.944,3.763,1.944,5.492
			c0,1.71-0.34,3.619-1.409,4.916c-1.069,1.333-2.593,1.584-4.133,1.584H233.561z M234.663,241.481h2.642
			c0.988,0,1.847-0.072,2.738-0.594c1.556-0.882,1.944-3.097,1.944-4.861c0-1.891-0.373-3.961-2.01-4.934
			c-0.696-0.414-1.701-0.486-2.673-0.486h-2.642V241.481z"/>
		<path d="M245.679,239.608c0.308,1.603,1.053,2.197,2.512,2.197c1.409,0,2.074-0.828,2.074-1.729c0-2.701-5.38-0.792-5.38-4.465
			c0-1.548,1.085-2.665,2.949-2.665c1.814,0,2.998,0.829,3.241,2.935h-0.989c-0.178-1.44-1.053-1.962-2.269-1.962
			c-1.231,0-1.896,0.648-1.896,1.603c0,2.539,5.38,0.954,5.38,4.537c0,1.783-1.442,2.719-3.419,2.719
			c-1.978,0-3.111-1.404-3.192-3.169H245.679z"/>
		<path d="M256.161,242.562c-0.228,0.054-0.648,0.216-1.118,0.216c-0.956,0-1.491-0.468-1.491-1.854v-6.824h-1.183v-0.9h1.183
			v-2.593h0.973v2.593h1.571v0.9h-1.571v6.392c0,0.918,0.032,1.314,0.842,1.314c0.26,0,0.535-0.054,0.795-0.126V242.562z"/>
	</g>
	<g>
		<path d="M197.743,273.285h-0.032v11.308h-1.102v-12.964h1.247l6.741,11.325h0.033v-11.325h1.102v12.964h-1.28L197.743,273.285z"/>
		<path d="M207.641,279.929c0-2.719,1.297-4.916,3.89-4.916c2.625,0,3.889,2.179,3.889,4.916c0,2.953-1.539,4.916-3.889,4.916
			C209.391,284.809,207.641,283.189,207.641,279.929z M211.53,275.986c-2.042,0-2.853,1.926-2.853,3.943
			c0,2.323,0.989,3.943,2.853,3.943c2.042,0,2.852-1.945,2.852-3.943C214.366,277.733,213.588,275.986,211.53,275.986z"/>
		<path d="M225.626,275.392c-0.454-2.215-1.686-3.061-3.679-3.061c-2.819,0-4.035,2.683-4.035,5.744
			c0,2.899,0.956,5.816,4.133,5.816c2.009,0,3.257-1.513,3.694-3.565h1.15c-0.519,2.502-1.929,4.609-5.056,4.609
			c-3.598,0-5.023-3.151-5.023-6.824c0-4.952,2.333-6.824,5.429-6.824c2.398,0,4.148,1.422,4.521,4.105H225.626z"/>
		<path d="M230.127,278.705v5.888h-1.102v-12.964h4.569c2.561,0,3.971,1.008,3.971,3.403c0,1.639-0.552,2.503-1.896,3.169
			c1.378,0.522,1.459,2.143,1.491,3.511c0.049,1.962,0.194,2.503,0.486,2.755v0.126h-1.216c-0.454-0.882-0.34-3.313-0.519-4.303
			c-0.259-1.404-1.215-1.584-2.317-1.584H230.127z M233.563,277.661c1.637,0,2.9-0.756,2.9-2.575c0-1.944-1.361-2.413-2.836-2.413
			h-3.5v4.987H233.563z"/>
		<path d="M239.847,284.593v-12.964h1.102v11.919h6.255v1.044H239.847z"/>
		<path d="M248.74,284.593v-12.964h7.52v1.044h-6.417v4.681h5.833v1.044h-5.833v6.194H248.74z"/>
	</g>
	<g>
		<path d="M221.849,326.661v-12.964h4.213c2.739,0,3.824,1.314,3.824,3.259c0,1.801-0.923,2.611-1.863,2.791v0.036
			c1.604,0.27,2.398,1.512,2.398,3.223c0,2.701-1.588,3.655-3.809,3.655H221.849z M222.95,319.422h2.787
			c2.302,0,3.047-0.9,3.047-2.467c0-1.62-0.875-2.214-3.29-2.214h-2.544V319.422z M222.95,325.616h2.804
			c2.431,0,3.565-0.36,3.565-2.611c0-2.143-1.361-2.539-3.436-2.539h-2.934V325.616z"/>
		<path d="M238.195,317.334h0.973v9.327h-0.973v-1.296c-0.519,0.648-1.231,1.548-2.706,1.548c-2.236,0-2.981-1.494-2.981-3.439
			v-6.14h0.973v6.122c0,1.603,0.632,2.485,2.155,2.485c1.604,0,2.56-1.477,2.56-3.529V317.334z"/>
		<path d="M242.082,323.744c0.309,1.603,1.054,2.197,2.512,2.197c1.41,0,2.074-0.828,2.074-1.729c0-2.701-5.38-0.792-5.38-4.465
			c0-1.548,1.086-2.665,2.949-2.665c1.815,0,2.998,0.829,3.241,2.935h-0.988c-0.179-1.44-1.054-1.962-2.269-1.962
			c-1.231,0-1.896,0.648-1.896,1.603c0,2.539,5.38,0.954,5.38,4.537c0,1.783-1.442,2.719-3.419,2.719s-3.111-1.404-3.192-3.169
			H242.082z"/>
		<path d="M249.551,329.199c0.259,0.054,0.534,0.108,0.81,0.108c1.103,0,1.265-1.765,1.637-2.575l-3.257-9.399h1.086l2.689,8.012
			l2.69-8.012h1.053l-3.127,9.201c-0.794,2.341-1.312,3.799-2.658,3.799c-0.34,0-0.664-0.054-0.923-0.126V329.199z"/>
	</g>
	<g>
		<path d="M222.772,368.459v-12.964h7.763v1.045h-6.66v4.681h6.012v1.045h-6.012v5.149h6.822v1.044H222.772z"/>
		<path d="M233.545,368.459h-0.973v-9.326h0.973v1.746h0.032c0.535-1.494,1.329-1.999,2.738-1.999v1.171
			c-2.188-0.054-2.771,1.746-2.771,3.835V368.459z"/>
		<path d="M238.94,368.459h-0.973v-9.326h0.973v1.746h0.032c0.535-1.494,1.329-1.999,2.738-1.999v1.171
			c-2.188-0.054-2.771,1.746-2.771,3.835V368.459z"/>
		<path d="M242.762,363.795c0-2.719,1.297-4.916,3.89-4.916c2.625,0,3.889,2.179,3.889,4.916c0,2.953-1.539,4.915-3.889,4.915
			C244.512,368.674,242.762,367.054,242.762,363.795z M246.651,359.852c-2.042,0-2.853,1.927-2.853,3.943
			c0,2.322,0.989,3.943,2.853,3.943c2.042,0,2.852-1.945,2.852-3.943C249.487,361.599,248.709,359.852,246.651,359.852z"/>
		<path d="M253.341,368.459h-0.972v-9.326h0.972v1.746h0.033c0.534-1.494,1.328-1.999,2.738-1.999v1.171
			c-2.188-0.054-2.771,1.746-2.771,3.835V368.459z"/>
	</g>
	<g>
		<path d="M206.572,410.525v-12.964h7.762v1.044h-6.66v4.682h6.013v1.044h-6.013v5.149h6.822v1.045H206.572z"/>
		<path d="M217.345,410.525h-0.972v-9.327h0.972v1.747h0.033c0.534-1.495,1.328-1.999,2.738-1.999v1.17
			c-2.188-0.054-2.771,1.747-2.771,3.836V410.525z"/>
		<path d="M222.739,410.525h-0.972v-9.327h0.972v1.747h0.033c0.534-1.495,1.328-1.999,2.738-1.999v1.17
			c-2.188-0.054-2.771,1.747-2.771,3.836V410.525z"/>
		<path d="M226.563,405.861c0-2.719,1.296-4.915,3.889-4.915c2.626,0,3.89,2.179,3.89,4.915c0,2.953-1.54,4.916-3.89,4.916
			C228.313,410.741,226.563,409.121,226.563,405.861z M230.451,401.918c-2.041,0-2.852,1.926-2.852,3.942
			c0,2.323,0.988,3.943,2.852,3.943c2.042,0,2.853-1.944,2.853-3.943C233.287,403.665,232.51,401.918,230.451,401.918z"/>
		<path d="M237.142,410.525h-0.973v-9.327h0.973v1.747h0.032c0.535-1.495,1.329-1.999,2.738-1.999v1.17
			c-2.188-0.054-2.771,1.747-2.771,3.836V410.525z"/>
		<path d="M242.05,410.525v-12.964h1.102v12.964H242.05z"/>
		<path d="M246.164,410.525v-12.964h3.986c1.297,0,2.512,0.09,3.598,0.972c1.54,1.243,1.944,3.764,1.944,5.492
			c0,1.71-0.34,3.619-1.409,4.915c-1.069,1.333-2.593,1.585-4.133,1.585H246.164z M247.267,409.48h2.642
			c0.988,0,1.847-0.071,2.738-0.594c1.556-0.882,1.944-3.097,1.944-4.861c0-1.891-0.373-3.961-2.01-4.934
			c-0.696-0.414-1.701-0.486-2.673-0.486h-2.642V409.48z"/>
	</g>
	<g>
		<path class="st3" d="M78.255,14.393c0.179,2.323,1.572,3.169,3.354,3.169c2.09,0,2.966-1.26,2.966-2.683
			c0-4.016-7.114-1.351-7.114-6.446c0-1.8,1.345-3.475,3.954-3.475c2.625,0,3.938,1.765,3.921,3.872h-1.053
			c0-1.981-1.377-2.827-2.868-2.827c-2.236,0-3.046,1.53-2.852,2.863c0.502,3.349,7.114,0.937,7.114,5.96
			c0,2.376-1.572,3.781-4.262,3.781c-2.431,0-4.229-1.405-4.229-4.213H78.255z"/>
		<path class="st3" d="M90.503,18.3c-0.227,0.054-0.648,0.216-1.118,0.216c-0.956,0-1.491-0.468-1.491-1.854V9.837h-1.183v-0.9
			h1.183V6.344h0.973v2.593h1.572v0.9h-1.572v6.392c0,0.918,0.032,1.314,0.842,1.314c0.259,0,0.535-0.054,0.794-0.126V18.3z"/>
		<path class="st3" d="M91.506,13.6c0-2.719,1.296-4.916,3.889-4.916c2.625,0,3.889,2.179,3.889,4.916
			c0,2.953-1.54,4.916-3.889,4.916C93.256,18.48,91.506,16.859,91.506,13.6z M95.395,9.657c-2.042,0-2.852,1.926-2.852,3.943
			c0,2.323,0.989,3.943,2.852,3.943c2.042,0,2.852-1.945,2.852-3.943C98.231,11.404,97.453,9.657,95.395,9.657z"/>
		<path class="st3" d="M102.085,18.264h-0.972V8.937h0.972v1.747h0.033c0.535-1.495,1.329-1.999,2.738-1.999v1.17
			c-2.188-0.054-2.771,1.747-2.771,3.835V18.264z"/>
		<path class="st3" d="M110.316,12.826c0.356-0.036,0.956-0.144,1.28-0.306s0.356-0.648,0.356-0.972c0-1.099-0.583-1.891-2.09-1.891
			c-1.345,0-2.269,0.486-2.447,2.106h-0.989c0.146-2.197,1.621-3.079,3.452-3.079c1.702,0,3.046,0.738,3.046,2.899v5.078
			c0,0.846,0.195,1.044,1.021,0.72v0.846c-0.146,0.054-0.486,0.18-0.762,0.18c-0.162,0-0.292-0.018-0.438-0.054
			c-0.648-0.108-0.762-0.738-0.778-1.386c-0.81,1.008-1.912,1.548-3.127,1.548c-1.475,0-2.803-0.882-2.803-2.683
			c0-1.566,0.972-2.521,2.933-2.809L110.316,12.826z M111.952,13.366c-0.826,0.378-1.669,0.45-2.512,0.522
			c-1.475,0.126-2.366,0.72-2.366,1.981c0,1.134,0.891,1.674,1.815,1.674c1.539,0,3.062-0.828,3.062-2.719V13.366z"/>
		<path class="st3" d="M121.948,8.937h0.972v8.426c0,2.503-0.746,4.718-3.938,4.718c-2.463,0-3.484-1.567-3.549-2.683h1.037
			c0.292,1.404,1.361,1.71,2.512,1.71c2.658,0,3.014-2.196,2.966-4.339c-0.616,1.134-1.815,1.747-2.998,1.747
			c-2.561,0-3.743-2.323-3.743-4.934c0-2.754,1.085-4.897,3.792-4.897c1.07,0,2.35,0.667,2.917,1.891h0.033V8.937z M119.112,9.657
			c-1.637,0-2.852,1.314-2.868,3.655c-0.081,2.341,0.858,4.231,2.868,4.231c1.766,0,2.836-1.8,2.836-3.907
			C121.948,11.386,120.943,9.657,119.112,9.657z"/>
		<path class="st3" d="M125.963,13.853c-0.016,2.017,0.957,3.691,2.82,3.691c1.264,0,2.252-0.774,2.544-2.143h1.086
			c-0.486,1.765-1.491,3.115-3.63,3.115c-2.69,0-3.857-2.125-3.857-4.879c0-2.719,1.458-4.952,3.857-4.952
			c2.301,0,3.711,1.819,3.695,5.168H125.963z M131.441,12.952c0-1.818-0.908-3.295-2.658-3.295c-1.718,0-2.625,1.53-2.82,3.295
			H131.441z"/>
		<path class="st3" d="M135.603,12.376v5.888h-1.102V5.3h4.57c2.56,0,3.97,1.008,3.97,3.403c0,1.639-0.551,2.503-1.896,3.169
			c1.377,0.522,1.458,2.143,1.491,3.511c0.049,1.962,0.194,2.503,0.486,2.755v0.126h-1.215c-0.454-0.882-0.34-3.313-0.519-4.303
			c-0.259-1.404-1.215-1.584-2.317-1.584H135.603z M139.038,11.332c1.637,0,2.901-0.756,2.901-2.575
			c0-1.944-1.361-2.413-2.836-2.413h-3.5v4.987H139.038z"/>
		<path class="st3" d="M145.776,13.853c-0.016,2.017,0.957,3.691,2.82,3.691c1.264,0,2.253-0.774,2.544-2.143h1.086
			c-0.486,1.765-1.491,3.115-3.63,3.115c-2.69,0-3.857-2.125-3.857-4.879c0-2.719,1.458-4.952,3.857-4.952
			c2.302,0,3.711,1.819,3.695,5.168H145.776z M151.254,12.952c0-1.818-0.908-3.295-2.658-3.295c-1.718,0-2.625,1.53-2.82,3.295
			H151.254z"/>
		<path class="st3" d="M158.041,12.826c0.356-0.036,0.956-0.144,1.28-0.306s0.356-0.648,0.356-0.972
			c0-1.099-0.584-1.891-2.091-1.891c-1.345,0-2.269,0.486-2.446,2.106h-0.989c0.146-2.197,1.621-3.079,3.452-3.079
			c1.701,0,3.046,0.738,3.046,2.899v5.078c0,0.846,0.195,1.044,1.021,0.72v0.846c-0.146,0.054-0.486,0.18-0.762,0.18
			c-0.162,0-0.292-0.018-0.438-0.054c-0.648-0.108-0.762-0.738-0.778-1.386c-0.81,1.008-1.912,1.548-3.127,1.548
			c-1.475,0-2.804-0.882-2.804-2.683c0-1.566,0.973-2.521,2.934-2.809L158.041,12.826z M159.678,13.366
			c-0.827,0.378-1.669,0.45-2.512,0.522c-1.475,0.126-2.366,0.72-2.366,1.981c0,1.134,0.892,1.674,1.815,1.674
			c1.539,0,3.062-0.828,3.062-2.719V13.366z"/>
		<path class="st3" d="M169.673,5.3h0.973v12.964h-0.973v-1.639h-0.032c-0.566,1.225-1.847,1.891-2.917,1.891
			c-2.706,0-3.792-2.143-3.792-4.897c0-2.611,1.184-4.934,3.744-4.934c1.183,0,2.382,0.612,2.997,1.747V5.3z M166.838,9.657
			c-2.01,0-2.949,1.891-2.869,4.231c0.017,2.341,1.232,3.655,2.869,3.655c1.831,0,2.835-1.729,2.835-3.979
			C169.673,11.458,168.604,9.657,166.838,9.657z"/>
		<path class="st3" d="M173.235,18.264V5.3h1.102v11.919h6.255v1.044H173.235z"/>
		<path class="st3" d="M182.194,6.902V5.3h1.069v1.603H182.194z M182.242,18.264V8.937h0.973v9.327H182.242z"/>
		<path class="st3" d="M186.665,18.264h-0.973V8.937h0.973v1.296c0.778-0.918,1.54-1.549,2.706-1.549
			c1.021,0,1.961,0.36,2.561,1.333c0.405,0.667,0.422,1.369,0.422,2.143v6.104h-0.973v-6.086c0-1.674-0.616-2.521-2.172-2.521
			c-1.199,0-2.025,0.864-2.333,1.818c-0.194,0.594-0.211,1.116-0.211,1.765V18.264z"/>
		<path class="st3" d="M195.3,13.853c-0.017,2.017,0.956,3.691,2.819,3.691c1.265,0,2.253-0.774,2.544-2.143h1.086
			c-0.486,1.765-1.49,3.115-3.63,3.115c-2.689,0-3.856-2.125-3.856-4.879c0-2.719,1.458-4.952,3.856-4.952
			c2.302,0,3.711,1.819,3.695,5.168H195.3z M200.777,12.952c0-1.818-0.908-3.295-2.658-3.295c-1.718,0-2.625,1.53-2.819,3.295
			H200.777z"/>
	</g>
	<g>
	</g>
	<g>
	</g>
	<g>
	</g>
	<g>
	</g>
	<g>
	</g>
	<g>
	</g>
	<g>
	</g>
	<g>
	</g>
	<g>
	</g>
	<g>
	</g>
	<g>
	</g>
	<g>
	</g>
	<g>
	</g>
	<g>
	</g>
	<g>
	</g>
</g>
</svg>
