<?xml version="1.0" encoding="utf-8"?>
<!-- Generator: Adobe Illustrator 28.2.0, SVG Export Plug-In . SVG Version: 6.00 Build 0)  -->
<svg version="1.1" xmlns="http://www.w3.org/2000/svg" xmlns:xlink="http://www.w3.org/1999/xlink" x="0px" y="0px"
	 width="281.185px" height="262.933px" viewBox="0 0 281.185 262.933" style="enable-background:new 0 0 281.185 262.933;"
	 xml:space="preserve">
<style type="text/css">
	.st0{fill:#F0F0F0;stroke:#828282;stroke-miterlimit:10;}
	.st1{fill:none;stroke:#828282;stroke-miterlimit:10;}
	.st2{fill:#828282;}
	.st3{fill:#FFFFFF;}
</style>
<g id="レイヤー_2">
	<rect x="20.323" y="0.5" class="st0" width="240.539" height="261.933"/>
	<line class="st1" x1="0" y1="25.814" x2="20.323" y2="25.814"/>
	<line class="st1" x1="0" y1="25.814" x2="20.323" y2="25.814"/>
	<line class="st1" x1="260.862" y1="25.814" x2="281.185" y2="25.814"/>
	<rect x="20.323" y="0.5" class="st2" width="240.539" height="21"/>
</g>
<g id="レイヤー_3">
	<g>
		<path d="M25.122,39.028V26.064h7.762v1.044h-6.66v4.681h6.012v1.044h-6.012v5.149h6.822v1.044H25.122z"/>
		<path d="M37.791,34.995l-2.609,4.033h-1.183l3.225-4.825l-2.966-4.501h1.199l2.317,3.709l2.382-3.709h1.231l-3.03,4.501
			l3.144,4.825h-1.167L37.791,34.995z"/>
		<path d="M43.573,34.617c-0.016,2.017,0.956,3.691,2.82,3.691c1.264,0,2.252-0.774,2.544-2.143h1.085
			c-0.486,1.765-1.491,3.115-3.63,3.115c-2.69,0-3.857-2.125-3.857-4.879c0-2.719,1.458-4.952,3.857-4.952
			c2.301,0,3.711,1.819,3.695,5.168H43.573z M49.051,33.716c0-1.818-0.908-3.295-2.658-3.295c-1.718,0-2.625,1.53-2.82,3.295H49.051
			z"/>
		<path d="M57.928,32.636c-0.34-1.386-1.199-2.214-2.496-2.214c-1.993,0-2.819,2.017-2.819,3.961c0,1.963,0.81,3.925,2.819,3.925
			c1.442,0,2.35-0.954,2.577-2.503h1.037c-0.34,2.071-1.507,3.475-3.614,3.475c-2.674,0-3.856-2.143-3.856-4.897
			c0-2.593,1.345-4.934,3.856-4.934c1.929,0,3.192,1.026,3.484,3.187H57.928z"/>
		<path d="M66.676,29.701h0.973v9.327h-0.973v-1.296c-0.519,0.648-1.231,1.548-2.706,1.548c-2.236,0-2.982-1.494-2.982-3.439v-6.14
			h0.973v6.122c0,1.603,0.632,2.485,2.155,2.485c1.604,0,2.56-1.477,2.56-3.529V29.701z"/>
		<path d="M72.945,39.064c-0.227,0.054-0.648,0.216-1.118,0.216c-0.956,0-1.491-0.468-1.491-1.854v-6.824h-1.183v-0.9h1.183v-2.593
			h0.973v2.593h1.572v0.9h-1.572v6.392c0,0.918,0.032,1.314,0.842,1.314c0.259,0,0.535-0.054,0.794-0.126V39.064z"/>
		<path d="M75.099,34.617c-0.016,2.017,0.956,3.691,2.82,3.691c1.264,0,2.252-0.774,2.544-2.143h1.085
			c-0.486,1.765-1.491,3.115-3.63,3.115c-2.69,0-3.857-2.125-3.857-4.879c0-2.719,1.458-4.952,3.857-4.952
			c2.301,0,3.711,1.819,3.695,5.168H75.099z M80.576,33.716c0-1.818-0.908-3.295-2.658-3.295c-1.718,0-2.625,1.53-2.82,3.295H80.576
			z"/>
	</g>
	<g>
		<path d="M25.575,70.752c0.179,2.323,1.572,3.169,3.354,3.169c2.09,0,2.966-1.26,2.966-2.683c0-4.016-7.114-1.351-7.114-6.446
			c0-1.8,1.345-3.475,3.954-3.475c2.625,0,3.938,1.765,3.921,3.872h-1.053c0-1.981-1.377-2.827-2.868-2.827
			c-2.236,0-3.046,1.53-2.852,2.863c0.502,3.349,7.114,0.937,7.114,5.96c0,2.376-1.572,3.781-4.262,3.781
			c-2.431,0-4.229-1.405-4.229-4.213H25.575z"/>
		<path d="M34.323,69.96c0-2.719,1.296-4.916,3.889-4.916c2.625,0,3.889,2.179,3.889,4.916c0,2.953-1.54,4.916-3.889,4.916
			C36.073,74.839,34.323,73.219,34.323,69.96z M38.212,66.017c-2.042,0-2.852,1.926-2.852,3.943c0,2.323,0.989,3.943,2.852,3.943
			c2.042,0,2.852-1.945,2.852-3.943C41.048,67.763,40.27,66.017,38.212,66.017z"/>
		<path d="M49.828,68.231c-0.34-1.386-1.199-2.214-2.496-2.214c-1.993,0-2.819,2.017-2.819,3.961c0,1.963,0.81,3.925,2.819,3.925
			c1.442,0,2.35-0.954,2.577-2.503h1.037c-0.34,2.071-1.507,3.475-3.614,3.475c-2.673,0-3.856-2.143-3.856-4.897
			c0-2.593,1.345-4.934,3.856-4.934c1.929,0,3.192,1.026,3.484,3.187H49.828z"/>
		<path d="M52.824,74.623V61.659h0.972v8.066l4.116-4.429h1.329l-3.144,3.367l3.516,5.96h-1.085l-3.144-5.204l-1.588,1.674v3.529
			H52.824z"/>
		<path d="M61.588,70.212c-0.016,2.017,0.956,3.691,2.82,3.691c1.264,0,2.252-0.774,2.544-2.143h1.085
			c-0.486,1.765-1.491,3.115-3.63,3.115c-2.69,0-3.857-2.125-3.857-4.879c0-2.719,1.458-4.952,3.857-4.952
			c2.301,0,3.711,1.819,3.695,5.168H61.588z M67.066,69.312c0-1.818-0.908-3.295-2.658-3.295c-1.718,0-2.625,1.53-2.82,3.295H67.066
			z"/>
		<path d="M72.945,74.659c-0.227,0.054-0.648,0.216-1.118,0.216c-0.956,0-1.491-0.468-1.491-1.854v-6.824h-1.183v-0.9h1.183v-2.593
			h0.973v2.593h1.572v0.9h-1.572v6.392c0,0.918,0.032,1.314,0.842,1.314c0.259,0,0.535-0.054,0.794-0.126V74.659z"/>
		<path d="M75.747,63.315h-0.032v11.308h-1.102V61.659h1.248l6.741,11.325h0.033V61.659h1.102v12.964h-1.28L75.747,63.315z"/>
		<path d="M85.645,69.96c0-2.719,1.296-4.916,3.889-4.916c2.625,0,3.889,2.179,3.889,4.916c0,2.953-1.54,4.916-3.889,4.916
			C87.395,74.839,85.645,73.219,85.645,69.96z M89.534,66.017c-2.042,0-2.852,1.926-2.852,3.943c0,2.323,0.989,3.943,2.852,3.943
			c2.042,0,2.852-1.945,2.852-3.943C92.37,67.763,91.592,66.017,89.534,66.017z"/>
	</g>
	<g>
		<path d="M25.122,116.691v-12.964h3.986c1.296,0,2.512,0.09,3.598,0.972c1.54,1.243,1.944,3.763,1.944,5.492
			c0,1.71-0.34,3.619-1.41,4.916c-1.069,1.333-2.593,1.584-4.132,1.584H25.122z M26.224,115.647h2.642
			c0.988,0,1.847-0.072,2.738-0.594c1.556-0.882,1.945-3.097,1.945-4.861c0-1.891-0.373-3.961-2.01-4.934
			c-0.697-0.414-1.701-0.486-2.673-0.486h-2.642V115.647z"/>
		<path d="M37.239,113.774c0.308,1.603,1.053,2.197,2.512,2.197c1.41,0,2.074-0.828,2.074-1.729c0-2.701-5.38-0.792-5.38-4.465
			c0-1.548,1.085-2.665,2.949-2.665c1.815,0,2.998,0.829,3.241,2.935h-0.989c-0.178-1.44-1.053-1.962-2.269-1.962
			c-1.231,0-1.896,0.648-1.896,1.603c0,2.539,5.38,0.954,5.38,4.537c0,1.783-1.442,2.719-3.419,2.719
			c-1.977,0-3.111-1.404-3.192-3.169H37.239z"/>
		<path d="M47.722,116.727c-0.227,0.054-0.648,0.216-1.118,0.216c-0.956,0-1.491-0.468-1.491-1.854v-6.824H43.93v-0.9h1.183v-2.593
			h0.973v2.593h1.572v0.9h-1.572v6.392c0,0.918,0.032,1.314,0.842,1.314c0.259,0,0.535-0.054,0.794-0.126V116.727z"/>
		<path d="M48.352,116.691l4.586-12.964h1.248l4.473,12.964h-1.134l-1.345-4.069h-5.315l-1.377,4.069H48.352z M51.236,111.578h4.57
			l-2.285-6.806L51.236,111.578z"/>
		<path d="M66.563,103.727h0.973v12.964h-0.973v-1.639H66.53c-0.567,1.225-1.847,1.891-2.917,1.891
			c-2.706,0-3.792-2.143-3.792-4.897c0-2.611,1.183-4.934,3.744-4.934c1.183,0,2.382,0.612,2.998,1.747V103.727z M63.727,108.085
			c-2.01,0-2.949,1.891-2.869,4.231c0.017,2.341,1.232,3.655,2.869,3.655c1.831,0,2.835-1.729,2.835-3.979
			C66.563,109.885,65.493,108.085,63.727,108.085z"/>
		<path d="M76.461,103.727h0.972v12.964h-0.972v-1.639h-0.033c-0.567,1.225-1.847,1.891-2.917,1.891
			c-2.706,0-3.792-2.143-3.792-4.897c0-2.611,1.183-4.934,3.743-4.934c1.183,0,2.382,0.612,2.998,1.747V103.727z M73.625,108.085
			c-2.01,0-2.949,1.891-2.868,4.231c0.016,2.341,1.231,3.655,2.868,3.655c1.831,0,2.836-1.729,2.836-3.979
			C76.461,109.885,75.391,108.085,73.625,108.085z"/>
		<path d="M80.898,116.691h-0.972v-9.327h0.972v1.747h0.033c0.535-1.495,1.329-1.999,2.738-1.999v1.17
			c-2.188-0.054-2.771,1.747-2.771,3.835V116.691z"/>
		<path d="M85.871,112.28c-0.016,2.017,0.957,3.691,2.82,3.691c1.264,0,2.252-0.774,2.544-2.143h1.086
			c-0.486,1.765-1.491,3.115-3.63,3.115c-2.69,0-3.857-2.125-3.857-4.879c0-2.719,1.458-4.952,3.857-4.952
			c2.301,0,3.711,1.819,3.695,5.168H85.871z M91.348,111.379c0-1.818-0.908-3.295-2.658-3.295c-1.718,0-2.625,1.53-2.82,3.295
			H91.348z"/>
		<path d="M94.846,113.774c0.308,1.603,1.053,2.197,2.512,2.197c1.41,0,2.074-0.828,2.074-1.729c0-2.701-5.38-0.792-5.38-4.465
			c0-1.548,1.085-2.665,2.949-2.665c1.815,0,2.998,0.829,3.241,2.935h-0.989c-0.178-1.44-1.053-1.962-2.269-1.962
			c-1.231,0-1.896,0.648-1.896,1.603c0,2.539,5.38,0.954,5.38,4.537c0,1.783-1.442,2.719-3.419,2.719
			c-1.977,0-3.111-1.404-3.192-3.169H94.846z"/>
		<path d="M102.946,113.774c0.308,1.603,1.053,2.197,2.512,2.197c1.41,0,2.074-0.828,2.074-1.729c0-2.701-5.38-0.792-5.38-4.465
			c0-1.548,1.085-2.665,2.949-2.665c1.815,0,2.998,0.829,3.241,2.935h-0.988c-0.178-1.44-1.053-1.962-2.269-1.962
			c-1.231,0-1.896,0.648-1.896,1.603c0,2.539,5.38,0.954,5.38,4.537c0,1.783-1.442,2.719-3.419,2.719
			c-1.977,0-3.111-1.404-3.192-3.169H102.946z"/>
	</g>
	<g>
		<path d="M25.122,158.391v-12.964h3.986c1.296,0,2.512,0.09,3.598,0.972c1.54,1.243,1.944,3.763,1.944,5.492
			c0,1.71-0.34,3.619-1.41,4.916c-1.069,1.333-2.593,1.584-4.132,1.584H25.122z M26.224,157.346h2.642
			c0.988,0,1.847-0.072,2.738-0.594c1.556-0.882,1.945-3.097,1.945-4.861c0-1.891-0.373-3.961-2.01-4.934
			c-0.697-0.414-1.701-0.486-2.673-0.486h-2.642V157.346z"/>
		<path d="M37.239,155.474c0.308,1.603,1.053,2.197,2.512,2.197c1.41,0,2.074-0.828,2.074-1.729c0-2.701-5.38-0.792-5.38-4.465
			c0-1.548,1.085-2.665,2.949-2.665c1.815,0,2.998,0.829,3.241,2.935h-0.989c-0.178-1.44-1.053-1.962-2.269-1.962
			c-1.231,0-1.896,0.648-1.896,1.603c0,2.539,5.38,0.954,5.38,4.537c0,1.783-1.442,2.719-3.419,2.719
			c-1.977,0-3.111-1.404-3.192-3.169H37.239z"/>
		<path d="M47.722,158.427c-0.227,0.054-0.648,0.216-1.118,0.216c-0.956,0-1.491-0.468-1.491-1.854v-6.824H43.93v-0.9h1.183v-2.593
			h0.973v2.593h1.572v0.9h-1.572v6.392c0,0.918,0.032,1.314,0.842,1.314c0.259,0,0.535-0.054,0.794-0.126V158.427z"/>
		<path d="M49.373,158.391v-12.964h4.262c3.03,0,3.808,1.674,3.808,3.619c0,2.899-2.317,3.619-4.473,3.619h-2.496v5.726H49.373z
			 M53.003,151.621c2.058,0,3.338-0.468,3.338-2.665c0-1.621-0.94-2.485-3.014-2.485h-2.852v5.149H53.003z"/>
		<path d="M58.623,153.727c0-2.719,1.296-4.916,3.889-4.916c2.625,0,3.889,2.179,3.889,4.916c0,2.953-1.54,4.916-3.889,4.916
			C60.373,158.606,58.623,156.986,58.623,153.727z M62.512,149.784c-2.042,0-2.852,1.926-2.852,3.943
			c0,2.323,0.989,3.943,2.852,3.943c2.042,0,2.852-1.945,2.852-3.943C65.348,151.531,64.57,149.784,62.512,149.784z"/>
		<path d="M69.202,158.391H68.23v-9.327h0.972v1.747h0.033c0.535-1.495,1.329-1.999,2.738-1.999v1.17
			c-2.188-0.054-2.771,1.747-2.771,3.835V158.391z"/>
		<path d="M76.525,158.427c-0.227,0.054-0.648,0.216-1.118,0.216c-0.956,0-1.491-0.468-1.491-1.854v-6.824h-1.183v-0.9h1.183v-2.593
			h0.973v2.593h1.572v0.9h-1.572v6.392c0,0.918,0.032,1.314,0.842,1.314c0.259,0,0.535-0.054,0.794-0.126V158.427z"/>
		<path d="M79.327,147.083h-0.032v11.308h-1.102v-12.964h1.248l6.741,11.325h0.033v-11.325h1.102v12.964h-1.28L79.327,147.083z"/>
		<path d="M89.224,153.727c0-2.719,1.296-4.916,3.889-4.916c2.625,0,3.889,2.179,3.889,4.916c0,2.953-1.54,4.916-3.889,4.916
			C90.974,158.606,89.224,156.986,89.224,153.727z M93.113,149.784c-2.042,0-2.852,1.926-2.852,3.943
			c0,2.323,0.989,3.943,2.852,3.943c2.042,0,2.852-1.945,2.852-3.943C95.949,151.531,95.172,149.784,93.113,149.784z"/>
	</g>
	<g>
		<path d="M25.122,200.458v-12.964h4.213c2.739,0,3.824,1.314,3.824,3.259c0,1.801-0.924,2.611-1.863,2.791v0.036
			c1.604,0.27,2.398,1.512,2.398,3.223c0,2.701-1.588,3.655-3.808,3.655H25.122z M26.224,193.22h2.787
			c2.301,0,3.046-0.9,3.046-2.467c0-1.62-0.875-2.214-3.29-2.214h-2.544V193.22z M26.224,199.414h2.803
			c2.431,0,3.565-0.36,3.565-2.611c0-2.143-1.361-2.539-3.436-2.539h-2.933V199.414z"/>
		<path d="M35.716,202.997c0.259,0.054,0.535,0.108,0.81,0.108c1.102,0,1.264-1.765,1.637-2.575l-3.257-9.399h1.086l2.69,8.012
			l2.69-8.012h1.053l-3.127,9.201c-0.794,2.341-1.312,3.799-2.658,3.799c-0.34,0-0.664-0.054-0.923-0.126V202.997z"/>
		<path d="M46.831,200.494c-0.227,0.054-0.648,0.216-1.118,0.216c-0.956,0-1.491-0.468-1.491-1.854v-6.824h-1.183v-0.9h1.183v-2.593
			h0.973v2.593h1.572v0.9h-1.572v6.392c0,0.918,0.032,1.314,0.842,1.314c0.259,0,0.535-0.054,0.794-0.126V200.494z"/>
		<path d="M48.984,196.047c-0.016,2.017,0.957,3.691,2.82,3.691c1.264,0,2.252-0.774,2.544-2.143h1.086
			c-0.486,1.765-1.491,3.115-3.63,3.115c-2.69,0-3.857-2.125-3.857-4.879c0-2.719,1.458-4.952,3.857-4.952
			c2.301,0,3.711,1.819,3.695,5.168H48.984z M54.462,195.147c0-1.818-0.908-3.295-2.658-3.295c-1.718,0-2.625,1.53-2.82,3.295
			H54.462z"/>
		<path d="M57.991,196.587c0.179,2.323,1.572,3.169,3.354,3.169c2.09,0,2.966-1.26,2.966-2.683c0-4.016-7.114-1.351-7.114-6.446
			c0-1.8,1.345-3.475,3.954-3.475c2.625,0,3.938,1.765,3.921,3.872H64.02c0-1.981-1.377-2.827-2.868-2.827
			c-2.236,0-3.046,1.53-2.852,2.863c0.502,3.349,7.114,0.937,7.114,5.96c0,2.376-1.572,3.781-4.262,3.781
			c-2.431,0-4.229-1.405-4.229-4.213H57.991z"/>
		<path d="M67.387,189.097v-1.603h1.069v1.603H67.387z M67.436,200.458v-9.327h0.972v9.327H67.436z"/>
		<path d="M70.254,200.458v-0.954l5.575-7.473h-5.202v-0.9h6.449v0.954l-5.574,7.472h5.785v0.9H70.254z"/>
		<path d="M79.586,196.047c-0.016,2.017,0.957,3.691,2.82,3.691c1.264,0,2.252-0.774,2.544-2.143h1.086
			c-0.486,1.765-1.491,3.115-3.63,3.115c-2.69,0-3.857-2.125-3.857-4.879c0-2.719,1.458-4.952,3.857-4.952
			c2.301,0,3.711,1.819,3.695,5.168H79.586z M85.063,195.147c0-1.818-0.908-3.295-2.658-3.295c-1.718,0-2.625,1.53-2.82,3.295
			H85.063z"/>
	</g>
	<g>
		<path d="M25.575,238.654c0.179,2.323,1.572,3.169,3.354,3.169c2.09,0,2.966-1.26,2.966-2.683c0-4.016-7.114-1.351-7.114-6.446
			c0-1.8,1.345-3.475,3.954-3.475c2.625,0,3.938,1.765,3.921,3.872h-1.053c0-1.981-1.377-2.827-2.868-2.827
			c-2.236,0-3.046,1.53-2.852,2.863c0.502,3.349,7.114,0.937,7.114,5.96c0,2.376-1.572,3.781-4.262,3.781
			c-2.431,0-4.229-1.405-4.229-4.213H25.575z"/>
		<path d="M35.895,242.525h-0.972v-9.327h0.972v1.747h0.033c0.535-1.495,1.329-1.999,2.738-1.999v1.17
			c-2.188-0.054-2.771,1.747-2.771,3.835V242.525z"/>
		<path d="M46.215,236.133c-0.34-1.386-1.199-2.214-2.496-2.214c-1.993,0-2.819,2.017-2.819,3.961c0,1.963,0.81,3.925,2.819,3.925
			c1.442,0,2.35-0.954,2.577-2.503h1.037c-0.34,2.071-1.507,3.475-3.614,3.475c-2.674,0-3.856-2.143-3.856-4.897
			c0-2.593,1.345-4.934,3.856-4.934c1.929,0,3.192,1.026,3.484,3.187H46.215z"/>
	</g>
	<g>
		<path d="M219.143,39.028V26.064h3.986c1.297,0,2.512,0.09,3.598,0.972c1.54,1.243,1.944,3.763,1.944,5.492
			c0,1.71-0.34,3.619-1.409,4.916c-1.069,1.333-2.593,1.584-4.133,1.584H219.143z M220.245,37.983h2.642
			c0.988,0,1.847-0.072,2.738-0.594c1.556-0.882,1.944-3.097,1.944-4.861c0-1.891-0.373-3.961-2.01-4.934
			c-0.696-0.414-1.701-0.486-2.673-0.486h-2.642V37.983z"/>
		<path d="M230.143,34.364c0-2.719,1.296-4.916,3.889-4.916c2.626,0,3.89,2.179,3.89,4.916c0,2.953-1.54,4.916-3.89,4.916
			C231.893,39.244,230.143,37.624,230.143,34.364z M234.031,30.421c-2.041,0-2.852,1.926-2.852,3.943
			c0,2.323,0.988,3.943,2.852,3.943c2.042,0,2.853-1.945,2.853-3.943C236.867,32.168,236.09,30.421,234.031,30.421z"/>
		<path d="M240.673,39.028h-0.972v-9.327h0.972v1.296c0.778-0.918,1.54-1.549,2.706-1.549c1.021,0,1.961,0.36,2.561,1.333
			c0.405,0.667,0.422,1.369,0.422,2.143v6.104h-0.973v-6.086c0-1.674-0.616-2.521-2.172-2.521c-1.199,0-2.025,0.864-2.333,1.818
			c-0.194,0.594-0.211,1.116-0.211,1.765V39.028z"/>
		<path d="M249.308,34.617c-0.017,2.017,0.956,3.691,2.819,3.691c1.265,0,2.253-0.774,2.545-2.143h1.085
			c-0.486,1.765-1.49,3.115-3.63,3.115c-2.689,0-3.856-2.125-3.856-4.879c0-2.719,1.458-4.952,3.856-4.952
			c2.302,0,3.711,1.819,3.695,5.168H249.308z M254.785,33.716c0-1.818-0.908-3.295-2.658-3.295c-1.718,0-2.625,1.53-2.819,3.295
			H254.785z"/>
	</g>
	<g>
		<path d="M221.849,74.623V61.659h4.213c2.739,0,3.824,1.314,3.824,3.259c0,1.801-0.923,2.611-1.863,2.791v0.036
			c1.604,0.27,2.398,1.512,2.398,3.223c0,2.701-1.588,3.655-3.809,3.655H221.849z M222.95,67.385h2.787
			c2.302,0,3.047-0.9,3.047-2.467c0-1.62-0.875-2.214-3.29-2.214h-2.544V67.385z M222.95,73.579h2.804
			c2.431,0,3.565-0.36,3.565-2.611c0-2.143-1.361-2.539-3.436-2.539h-2.934V73.579z"/>
		<path d="M238.195,65.296h0.973v9.327h-0.973v-1.296c-0.519,0.648-1.231,1.548-2.706,1.548c-2.236,0-2.981-1.494-2.981-3.439v-6.14
			h0.973v6.122c0,1.603,0.632,2.485,2.155,2.485c1.604,0,2.56-1.477,2.56-3.529V65.296z"/>
		<path d="M242.082,71.706c0.309,1.603,1.054,2.197,2.512,2.197c1.41,0,2.074-0.828,2.074-1.729c0-2.701-5.38-0.792-5.38-4.465
			c0-1.548,1.086-2.665,2.949-2.665c1.815,0,2.998,0.829,3.241,2.935h-0.988c-0.179-1.44-1.054-1.962-2.269-1.962
			c-1.231,0-1.896,0.648-1.896,1.603c0,2.539,5.38,0.954,5.38,4.537c0,1.783-1.442,2.719-3.419,2.719s-3.111-1.404-3.192-3.169
			H242.082z"/>
		<path d="M249.551,77.162c0.259,0.054,0.534,0.108,0.81,0.108c1.103,0,1.265-1.765,1.637-2.575l-3.257-9.399h1.086l2.689,8.012
			l2.69-8.012h1.053l-3.127,9.201c-0.794,2.341-1.312,3.799-2.658,3.799c-0.34,0-0.664-0.054-0.923-0.126V77.162z"/>
	</g>
	<g>
		<path d="M222.772,116.691v-12.964h7.763v1.044h-6.66v4.681h6.012v1.044h-6.012v5.149h6.822v1.044H222.772z"/>
		<path d="M233.545,116.691h-0.973v-9.327h0.973v1.747h0.032c0.535-1.495,1.329-1.999,2.738-1.999v1.17
			c-2.188-0.054-2.771,1.747-2.771,3.835V116.691z"/>
		<path d="M238.94,116.691h-0.973v-9.327h0.973v1.747h0.032c0.535-1.495,1.329-1.999,2.738-1.999v1.17
			c-2.188-0.054-2.771,1.747-2.771,3.835V116.691z"/>
		<path d="M242.762,112.027c0-2.719,1.297-4.916,3.89-4.916c2.625,0,3.889,2.179,3.889,4.916c0,2.953-1.539,4.916-3.889,4.916
			C244.512,116.907,242.762,115.287,242.762,112.027z M246.651,108.085c-2.042,0-2.853,1.926-2.853,3.943
			c0,2.323,0.989,3.943,2.853,3.943c2.042,0,2.852-1.945,2.852-3.943C249.487,109.831,248.709,108.085,246.651,108.085z"/>
		<path d="M253.341,116.691h-0.972v-9.327h0.972v1.747h0.033c0.534-1.495,1.328-1.999,2.738-1.999v1.17
			c-2.188-0.054-2.771,1.747-2.771,3.835V116.691z"/>
	</g>
	<g>
		<path d="M206.572,158.391v-12.964h7.762v1.044h-6.66v4.681h6.013v1.044h-6.013v5.149h6.822v1.044H206.572z"/>
		<path d="M217.345,158.391h-0.972v-9.327h0.972v1.747h0.033c0.534-1.495,1.328-1.999,2.738-1.999v1.17
			c-2.188-0.054-2.771,1.747-2.771,3.835V158.391z"/>
		<path d="M222.739,158.391h-0.972v-9.327h0.972v1.747h0.033c0.534-1.495,1.328-1.999,2.738-1.999v1.17
			c-2.188-0.054-2.771,1.747-2.771,3.835V158.391z"/>
		<path d="M226.563,153.727c0-2.719,1.296-4.916,3.889-4.916c2.626,0,3.89,2.179,3.89,4.916c0,2.953-1.54,4.916-3.89,4.916
			C228.313,158.606,226.563,156.986,226.563,153.727z M230.451,149.784c-2.041,0-2.852,1.926-2.852,3.943
			c0,2.323,0.988,3.943,2.852,3.943c2.042,0,2.853-1.945,2.853-3.943C233.287,151.531,232.51,149.784,230.451,149.784z"/>
		<path d="M237.142,158.391h-0.973v-9.327h0.973v1.747h0.032c0.535-1.495,1.329-1.999,2.738-1.999v1.17
			c-2.188-0.054-2.771,1.747-2.771,3.835V158.391z"/>
		<path d="M242.05,158.391v-12.964h1.102v12.964H242.05z"/>
		<path d="M246.164,158.391v-12.964h3.986c1.297,0,2.512,0.09,3.598,0.972c1.54,1.243,1.944,3.763,1.944,5.492
			c0,1.71-0.34,3.619-1.409,4.916c-1.069,1.333-2.593,1.584-4.133,1.584H246.164z M247.267,157.346h2.642
			c0.988,0,1.847-0.072,2.738-0.594c1.556-0.882,1.944-3.097,1.944-4.861c0-1.891-0.373-3.961-2.01-4.934
			c-0.696-0.414-1.701-0.486-2.673-0.486h-2.642V157.346z"/>
	</g>
	<g>
		<path class="st3" d="M76.919,14.393c0.178,2.323,1.572,3.169,3.354,3.169c2.09,0,2.966-1.26,2.966-2.683
			c0-4.016-7.114-1.351-7.114-6.446c0-1.8,1.345-3.475,3.954-3.475c2.625,0,3.938,1.765,3.921,3.872h-1.053
			c0-1.981-1.377-2.827-2.868-2.827c-2.236,0-3.046,1.53-2.852,2.863c0.502,3.349,7.114,0.937,7.114,5.96
			c0,2.376-1.572,3.781-4.262,3.781c-2.431,0-4.229-1.405-4.229-4.213H76.919z"/>
		<path class="st3" d="M85.666,13.6c0-2.719,1.296-4.916,3.889-4.916c2.625,0,3.889,2.179,3.889,4.916
			c0,2.953-1.54,4.916-3.889,4.916C87.416,18.48,85.666,16.859,85.666,13.6z M89.555,9.657c-2.042,0-2.852,1.926-2.852,3.943
			c0,2.323,0.989,3.943,2.852,3.943c2.042,0,2.852-1.945,2.852-3.943C92.391,11.404,91.613,9.657,89.555,9.657z"/>
		<path class="st3" d="M101.172,11.872c-0.34-1.386-1.199-2.214-2.496-2.214c-1.993,0-2.819,2.017-2.819,3.961
			c0,1.963,0.81,3.925,2.819,3.925c1.442,0,2.35-0.954,2.577-2.503h1.037c-0.34,2.071-1.507,3.475-3.614,3.475
			c-2.674,0-3.856-2.143-3.856-4.897c0-2.593,1.345-4.934,3.856-4.934c1.929,0,3.192,1.026,3.484,3.187H101.172z"/>
		<path class="st3" d="M104.167,18.264V5.3h0.972v8.066l4.116-4.429h1.329l-3.144,3.367l3.516,5.96h-1.085l-3.144-5.204
			l-1.588,1.674v3.529H104.167z"/>
		<path class="st3" d="M112.931,13.853c-0.016,2.017,0.957,3.691,2.82,3.691c1.264,0,2.252-0.774,2.544-2.143h1.086
			c-0.486,1.765-1.491,3.115-3.63,3.115c-2.69,0-3.857-2.125-3.857-4.879c0-2.719,1.458-4.952,3.857-4.952
			c2.301,0,3.711,1.819,3.695,5.168H112.931z M118.409,12.952c0-1.818-0.908-3.295-2.658-3.295c-1.718,0-2.625,1.53-2.82,3.295
			H118.409z"/>
		<path class="st3" d="M124.289,18.3c-0.227,0.054-0.648,0.216-1.118,0.216c-0.956,0-1.491-0.468-1.491-1.854V9.837h-1.183v-0.9
			h1.183V6.344h0.973v2.593h1.572v0.9h-1.572v6.392c0,0.918,0.032,1.314,0.842,1.314c0.259,0,0.535-0.054,0.794-0.126V18.3z"/>
		<path class="st3" d="M126.005,5.3h1.102v7.724c0,3.205,1.037,4.538,3.419,4.538c2.512,0,3.419-1.477,3.419-4.538V5.3h1.102v8.084
			c0,3.367-1.507,5.222-4.521,5.222c-3.047,0-4.521-1.909-4.521-5.222V5.3z"/>
		<path class="st3" d="M137.685,18.264V5.3h3.986c1.296,0,2.512,0.09,3.598,0.972c1.54,1.243,1.944,3.763,1.944,5.492
			c0,1.71-0.34,3.619-1.41,4.916c-1.069,1.333-2.593,1.584-4.132,1.584H137.685z M138.787,17.219h2.641
			c0.989,0,1.848-0.072,2.739-0.594c1.556-0.882,1.945-3.097,1.945-4.861c0-1.891-0.373-3.961-2.01-4.934
			c-0.697-0.414-1.701-0.486-2.674-0.486h-2.641V17.219z"/>
		<path class="st3" d="M149.333,18.264V5.3h4.262c3.03,0,3.808,1.674,3.808,3.619c0,2.899-2.317,3.619-4.473,3.619h-2.496v5.726
			H149.333z M152.963,11.494c2.058,0,3.338-0.468,3.338-2.665c0-1.621-0.94-2.485-3.015-2.485h-2.852v5.149H152.963z"/>
		<path class="st3" d="M166.069,19.614v0.9h-8.103v-0.9H166.069z"/>
		<path class="st3" d="M167.833,14.393c0.178,2.323,1.572,3.169,3.354,3.169c2.09,0,2.966-1.26,2.966-2.683
			c0-4.016-7.114-1.351-7.114-6.446c0-1.8,1.345-3.475,3.954-3.475c2.625,0,3.938,1.765,3.921,3.872h-1.053
			c0-1.981-1.378-2.827-2.868-2.827c-2.236,0-3.047,1.53-2.853,2.863c0.503,3.349,7.114,0.937,7.114,5.96
			c0,2.376-1.572,3.781-4.262,3.781c-2.431,0-4.229-1.405-4.229-4.213H167.833z"/>
		<path class="st3" d="M177.731,13.853c-0.016,2.017,0.956,3.691,2.82,3.691c1.264,0,2.252-0.774,2.544-2.143h1.086
			c-0.486,1.765-1.491,3.115-3.63,3.115c-2.69,0-3.857-2.125-3.857-4.879c0-2.719,1.459-4.952,3.857-4.952
			c2.301,0,3.711,1.819,3.694,5.168H177.731z M183.208,12.952c0-1.818-0.907-3.295-2.657-3.295c-1.718,0-2.625,1.53-2.82,3.295
			H183.208z"/>
		<path class="st3" d="M187.111,18.264h-0.973V8.937h0.973v1.296c0.777-0.918,1.539-1.549,2.706-1.549
			c1.021,0,1.961,0.36,2.561,1.333c0.404,0.667,0.421,1.369,0.421,2.143v6.104h-0.973v-6.086c0-1.674-0.615-2.521-2.171-2.521
			c-1.199,0-2.025,0.864-2.334,1.818c-0.194,0.594-0.21,1.116-0.21,1.765V18.264z"/>
		<path class="st3" d="M201.628,5.3h0.973v12.964h-0.973v-1.639h-0.032c-0.567,1.225-1.848,1.891-2.917,1.891
			c-2.706,0-3.792-2.143-3.792-4.897c0-2.611,1.183-4.934,3.743-4.934c1.183,0,2.382,0.612,2.998,1.747V5.3z M198.792,9.657
			c-2.01,0-2.949,1.891-2.868,4.231c0.017,2.341,1.231,3.655,2.868,3.655c1.831,0,2.836-1.729,2.836-3.979
			C201.628,11.458,200.559,9.657,198.792,9.657z"/>
	</g>
	<g>
	</g>
	<g>
	</g>
	<g>
	</g>
	<g>
	</g>
	<g>
	</g>
	<g>
	</g>
	<g>
	</g>
	<g>
	</g>
	<g>
	</g>
	<g>
	</g>
	<g>
	</g>
	<g>
	</g>
	<g>
	</g>
	<g>
	</g>
	<g>
	</g>
</g>
</svg>
