<?xml version="1.0" encoding="utf-8"?>
<!-- Generator: Adobe Illustrator 28.2.0, SVG Export Plug-In . SVG Version: 6.00 Build 0)  -->
<svg version="1.1" xmlns="http://www.w3.org/2000/svg" xmlns:xlink="http://www.w3.org/1999/xlink" x="0px" y="0px"
	 width="281.185px" height="136.96px" viewBox="0 0 281.185 136.96" style="enable-background:new 0 0 281.185 136.96;"
	 xml:space="preserve">
<style type="text/css">
	.st0{fill:#F0F0F0;stroke:#828282;stroke-miterlimit:10;}
	.st1{fill:none;stroke:#828282;stroke-miterlimit:10;}
	.st2{fill:#828282;}
	.st3{fill:#FFFFFF;}
</style>
<g id="レイヤー_2">
	<rect x="20.323" y="0.5" class="st0" width="240.539" height="135.96"/>
	<line class="st1" x1="0" y1="25.814" x2="20.323" y2="25.814"/>
	<line class="st1" x1="0" y1="25.814" x2="20.323" y2="25.814"/>
	<line class="st1" x1="260.862" y1="25.814" x2="281.185" y2="25.814"/>
	<rect x="20.323" y="0.5" class="st2" width="240.539" height="21"/>
</g>
<g id="レイヤー_3">
	<g>
		<path d="M25.121,39.028V26.064h7.762v1.044h-6.66v4.681h6.012v1.044h-6.012v5.149h6.822v1.044H25.121z"/>
		<path d="M35.846,39.028h-0.972v-9.327h0.972v1.296c0.778-0.918,1.54-1.549,2.706-1.549c1.021,0,1.961,0.36,2.561,1.333
			c0.405,0.667,0.421,1.369,0.421,2.143v6.104h-0.973v-6.086c0-1.674-0.616-2.521-2.171-2.521c-1.199,0-2.025,0.864-2.333,1.818
			c-0.194,0.594-0.21,1.116-0.21,1.765V39.028z"/>
		<path d="M47.738,33.59c0.356-0.036,0.956-0.144,1.28-0.306s0.356-0.648,0.356-0.972c0-1.099-0.583-1.891-2.09-1.891
			c-1.345,0-2.269,0.486-2.447,2.106h-0.989c0.146-2.197,1.621-3.079,3.452-3.079c1.702,0,3.046,0.738,3.046,2.899v5.078
			c0,0.846,0.195,1.044,1.021,0.72v0.846c-0.146,0.054-0.486,0.18-0.762,0.18c-0.162,0-0.292-0.018-0.438-0.054
			c-0.648-0.108-0.762-0.738-0.778-1.386c-0.81,1.008-1.912,1.548-3.127,1.548c-1.475,0-2.803-0.882-2.803-2.683
			c0-1.566,0.972-2.521,2.933-2.809L47.738,33.59z M49.374,34.13c-0.827,0.378-1.669,0.45-2.512,0.522
			c-1.475,0.126-2.366,0.72-2.366,1.981c0,1.134,0.891,1.674,1.815,1.674c1.539,0,3.062-0.828,3.062-2.719V34.13z"/>
		<path d="M53.974,39.028h-0.972V26.064h0.972v5.131c0.616-1.134,1.815-1.747,2.998-1.747c2.56,0,3.743,2.323,3.743,4.934
			c0,2.755-1.085,4.897-3.792,4.897c-1.069,0-2.35-0.666-2.917-1.891h-0.032V39.028z M56.81,38.308c1.637,0,2.852-1.314,2.868-3.655
			c0.081-2.34-0.859-4.231-2.868-4.231c-1.767,0-2.836,1.8-2.836,3.907C53.974,36.579,54.979,38.308,56.81,38.308z"/>
		<path d="M62.932,39.028V26.064h0.972v12.964H62.932z"/>
		<path d="M66.982,34.617c-0.016,2.017,0.957,3.691,2.82,3.691c1.264,0,2.252-0.774,2.544-2.143h1.086
			c-0.486,1.765-1.491,3.115-3.63,3.115c-2.69,0-3.857-2.125-3.857-4.879c0-2.719,1.458-4.952,3.857-4.952
			c2.301,0,3.711,1.819,3.695,5.168H66.982z M72.459,33.716c0-1.818-0.908-3.295-2.658-3.295c-1.718,0-2.625,1.53-2.82,3.295H72.459
			z"/>
	</g>
	<g>
		<path d="M30.048,60.405c3.646,0,5.494,3.043,5.494,6.842c0,3.727-1.848,6.806-5.445,6.806c-3.598,0-5.429-3.079-5.429-6.806
			C24.652,63.466,26.564,60.405,30.048,60.405z M34.439,67.248c0-3.601-1.669-5.798-4.359-5.798c-2.998,0-4.311,2.791-4.311,5.798
			c0,3.061,1.296,5.762,4.343,5.762C33.143,73.009,34.439,70.272,34.439,67.248z"/>
		<path d="M38.827,62.404h-0.032v11.308h-1.102V60.748h1.248l6.741,11.325h0.033V60.748h1.102v12.964h-1.28L38.827,62.404z"/>
		<path d="M48.368,60.748h8.491v1.044h-3.694v11.919h-1.102V61.792h-3.695V60.748z"/>
		<path d="M58.38,62.35v-1.603h1.069v1.603H58.38z M58.429,73.711v-9.327h0.972v9.327H58.429z"/>
		<path d="M62.722,73.711h-0.972v-9.327h0.972v1.404h0.033c0.502-1.062,1.507-1.657,2.593-1.657c1.556,0,2.106,0.811,2.463,1.801
			c0.551-1.207,1.54-1.801,2.739-1.801c2.285,0,2.609,1.819,2.609,3.691v5.888h-0.972v-6.446c0-1.333-0.421-2.161-1.799-2.161
			c-0.713,0-1.41,0.342-1.896,1.062c-0.421,0.612-0.551,1.747-0.551,2.521v5.023h-0.973v-6.446c0-1.333-0.421-2.161-1.798-2.161
			c-0.713,0-1.41,0.342-1.896,1.062c-0.421,0.612-0.551,1.747-0.551,2.521V73.711z"/>
		<path d="M75.973,69.3c-0.016,2.017,0.957,3.691,2.82,3.691c1.264,0,2.252-0.774,2.544-2.143h1.086
			c-0.486,1.765-1.491,3.115-3.63,3.115c-2.69,0-3.857-2.125-3.857-4.879c0-2.719,1.458-4.952,3.857-4.952
			c2.301,0,3.711,1.819,3.695,5.168H75.973z M81.451,68.4c0-1.818-0.908-3.295-2.658-3.295c-1.718,0-2.625,1.53-2.82,3.295H81.451z"
			/>
	</g>
	<g>
		<path d="M33.402,106.751c-0.454-2.215-1.686-3.061-3.679-3.061c-2.819,0-4.035,2.683-4.035,5.744c0,2.899,0.956,5.816,4.132,5.816
			c2.009,0,3.257-1.513,3.694-3.565h1.151c-0.519,2.502-1.929,4.609-5.056,4.609c-3.598,0-5.023-3.151-5.023-6.824
			c0-4.952,2.333-6.824,5.429-6.824c2.398,0,4.148,1.422,4.521,4.105H33.402z"/>
		<path d="M36.607,118.49c0.259,0.054,0.535,0.108,0.81,0.108c1.102,0,1.264-1.765,1.637-2.575l-3.257-9.399h1.086l2.69,8.012
			l2.69-8.012h1.053l-3.127,9.201c-0.794,2.341-1.312,3.799-2.658,3.799c-0.34,0-0.664-0.054-0.923-0.126V118.49z"/>
		<path d="M50.719,109.56c-0.34-1.386-1.199-2.214-2.496-2.214c-1.993,0-2.819,2.017-2.819,3.961c0,1.963,0.81,3.925,2.819,3.925
			c1.442,0,2.35-0.954,2.577-2.503h1.037c-0.34,2.071-1.507,3.475-3.614,3.475c-2.674,0-3.856-2.143-3.856-4.897
			c0-2.593,1.345-4.934,3.856-4.934c1.929,0,3.192,1.026,3.484,3.187H50.719z"/>
		<path d="M53.925,115.952v-12.964h0.972v12.964H53.925z"/>
		<path d="M57.975,111.541c-0.016,2.017,0.957,3.691,2.82,3.691c1.264,0,2.252-0.774,2.544-2.143h1.086
			c-0.486,1.765-1.491,3.115-3.63,3.115c-2.69,0-3.857-2.125-3.857-4.879c0-2.719,1.458-4.952,3.857-4.952
			c2.301,0,3.711,1.819,3.695,5.168H57.975z M63.452,110.64c0-1.818-0.908-3.295-2.658-3.295c-1.718,0-2.625,1.53-2.82,3.295H63.452
			z"/>
	</g>
	<g>
		<path class="st3" d="M66.584,5.3h8.491v1.044H71.38v11.919h-1.102V6.344h-3.695V5.3z"/>
		<path class="st3" d="M76.596,6.902V5.3h1.069v1.603H76.596z M76.644,18.264V8.937h0.972v9.327H76.644z"/>
		<path class="st3" d="M80.937,18.264h-0.972V8.937h0.972v1.404h0.033c0.502-1.062,1.507-1.657,2.593-1.657
			c1.556,0,2.106,0.811,2.463,1.801c0.551-1.207,1.54-1.801,2.739-1.801c2.285,0,2.609,1.819,2.609,3.691v5.888h-0.972v-6.446
			c0-1.333-0.421-2.161-1.799-2.161c-0.713,0-1.41,0.342-1.896,1.062c-0.421,0.612-0.551,1.747-0.551,2.521v5.023h-0.973v-6.446
			c0-1.333-0.421-2.161-1.798-2.161c-0.713,0-1.41,0.342-1.896,1.062c-0.421,0.612-0.551,1.747-0.551,2.521V18.264z"/>
		<path class="st3" d="M94.189,13.853c-0.016,2.017,0.956,3.691,2.82,3.691c1.264,0,2.252-0.774,2.544-2.143h1.085
			c-0.486,1.765-1.491,3.115-3.63,3.115c-2.69,0-3.857-2.125-3.857-4.879c0-2.719,1.458-4.952,3.857-4.952
			c2.301,0,3.711,1.819,3.695,5.168H94.189z M99.666,12.952c0-1.818-0.908-3.295-2.658-3.295c-1.718,0-2.625,1.53-2.82,3.295H99.666
			z"/>
		<path class="st3" d="M102.694,18.264V5.3h4.262c3.03,0,3.808,1.674,3.808,3.619c0,2.899-2.317,3.619-4.473,3.619h-2.496v5.726
			H102.694z M106.324,11.494c2.058,0,3.338-0.468,3.338-2.665c0-1.621-0.94-2.485-3.014-2.485h-2.852v5.149H106.324z"/>
		<path class="st3" d="M113.515,18.264h-0.972V8.937h0.972v1.747h0.033c0.535-1.495,1.329-1.999,2.738-1.999v1.17
			c-2.188-0.054-2.771,1.747-2.771,3.835V18.264z"/>
		<path class="st3" d="M117.338,13.6c0-2.719,1.296-4.916,3.889-4.916c2.625,0,3.889,2.179,3.889,4.916
			c0,2.953-1.54,4.916-3.889,4.916C119.088,18.479,117.338,16.859,117.338,13.6z M121.227,9.657c-2.042,0-2.852,1.926-2.852,3.943
			c0,2.323,0.989,3.943,2.852,3.943c2.042,0,2.852-1.945,2.852-3.943C124.063,11.404,123.285,9.657,121.227,9.657z"/>
		<path class="st3" d="M127.982,21.937h-0.972v-13h0.972v1.638h0.032c0.567-1.224,1.848-1.891,2.917-1.891
			c2.707,0,3.792,2.143,3.792,4.897c0,2.611-1.183,4.934-3.743,4.934c-1.183,0-2.382-0.612-2.998-1.747V21.937z M130.818,17.543
			c2.009,0,2.949-1.891,2.868-4.231c-0.016-2.34-1.231-3.655-2.868-3.655c-1.831,0-2.836,1.729-2.836,3.979
			C127.982,15.743,129.052,17.543,130.818,17.543z"/>
		<path class="st3" d="M136.243,13.6c0-2.719,1.296-4.916,3.889-4.916c2.625,0,3.889,2.179,3.889,4.916
			c0,2.953-1.54,4.916-3.889,4.916C137.993,18.479,136.243,16.859,136.243,13.6z M140.133,9.657c-2.042,0-2.852,1.926-2.852,3.943
			c0,2.323,0.989,3.943,2.852,3.943c2.042,0,2.852-1.945,2.852-3.943C142.969,11.404,142.191,9.657,140.133,9.657z"/>
		<path class="st3" d="M146.823,18.264h-0.972V8.937h0.972v1.747h0.033c0.535-1.495,1.329-1.999,2.738-1.999v1.17
			c-2.188-0.054-2.771,1.747-2.771,3.835V18.264z"/>
		<path class="st3" d="M154.146,18.3c-0.227,0.054-0.648,0.216-1.118,0.216c-0.956,0-1.491-0.468-1.491-1.854V9.837h-1.183v-0.9
			h1.183V6.344h0.973v2.593h1.572v0.9h-1.572v6.392c0,0.918,0.032,1.314,0.842,1.314c0.259,0,0.535-0.054,0.794-0.126V18.3z"/>
		<path class="st3" d="M155.797,6.902V5.3h1.069v1.603H155.797z M155.846,18.264V8.937h0.972v9.327H155.846z"/>
		<path class="st3" d="M158.745,13.6c0-2.719,1.296-4.916,3.889-4.916c2.625,0,3.889,2.179,3.889,4.916
			c0,2.953-1.54,4.916-3.889,4.916C160.495,18.479,158.745,16.859,158.745,13.6z M162.634,9.657c-2.042,0-2.852,1.926-2.852,3.943
			c0,2.323,0.989,3.943,2.852,3.943c2.042,0,2.852-1.945,2.852-3.943C165.47,11.404,164.692,9.657,162.634,9.657z"/>
		<path class="st3" d="M169.276,18.264h-0.973V8.937h0.973v1.296c0.778-0.918,1.54-1.549,2.706-1.549
			c1.021,0,1.961,0.36,2.561,1.333c0.405,0.667,0.421,1.369,0.421,2.143v6.104h-0.973v-6.086c0-1.674-0.616-2.521-2.171-2.521
			c-1.199,0-2.025,0.864-2.333,1.818c-0.194,0.594-0.21,1.116-0.21,1.765V18.264z"/>
		<path class="st3" d="M181.167,12.826c0.356-0.036,0.956-0.144,1.28-0.306s0.356-0.648,0.356-0.972c0-1.099-0.583-1.891-2.09-1.891
			c-1.345,0-2.269,0.486-2.447,2.106h-0.989c0.146-2.197,1.621-3.079,3.452-3.079c1.702,0,3.046,0.738,3.046,2.899v5.078
			c0,0.846,0.195,1.044,1.021,0.72v0.846c-0.146,0.054-0.486,0.18-0.762,0.18c-0.162,0-0.292-0.018-0.438-0.054
			c-0.648-0.108-0.762-0.738-0.778-1.386c-0.81,1.008-1.912,1.548-3.127,1.548c-1.475,0-2.803-0.882-2.803-2.683
			c0-1.566,0.972-2.521,2.933-2.809L181.167,12.826z M182.804,13.366c-0.826,0.378-1.669,0.45-2.512,0.522
			c-1.475,0.126-2.366,0.72-2.366,1.981c0,1.134,0.891,1.674,1.815,1.674c1.539,0,3.062-0.828,3.062-2.719V13.366z"/>
		<path class="st3" d="M186.464,18.264V5.3h0.972v12.964H186.464z"/>
		<path class="st3" d="M194.986,4.958c3.646,0,5.494,3.043,5.494,6.842c0,3.727-1.848,6.806-5.445,6.806
			c-3.598,0-5.429-3.079-5.429-6.806C189.59,8.019,191.502,4.958,194.986,4.958z M199.378,11.8c0-3.601-1.669-5.798-4.359-5.798
			c-2.998,0-4.311,2.791-4.311,5.798c0,3.061,1.296,5.762,4.343,5.762C198.081,17.562,199.378,14.825,199.378,11.8z"/>
		<path class="st3" d="M208.205,8.937h0.973v9.327h-0.973v-1.296c-0.519,0.648-1.231,1.548-2.706,1.548
			c-2.236,0-2.981-1.494-2.981-3.439v-6.14h0.972v6.122c0,1.603,0.632,2.485,2.155,2.485c1.604,0,2.56-1.477,2.56-3.529V8.937z"/>
		<path class="st3" d="M214.474,18.3c-0.227,0.054-0.648,0.216-1.118,0.216c-0.956,0-1.491-0.468-1.491-1.854V9.837h-1.183v-0.9
			h1.183V6.344h0.973v2.593h1.572v0.9h-1.572v6.392c0,0.918,0.032,1.314,0.842,1.314c0.259,0,0.535-0.054,0.794-0.126V18.3z"/>
	</g>
	<g>
		<path d="M198.889,39.086V26.123h7.762v1.044h-6.66v4.681h6.012v1.044h-6.012v5.149h6.822v1.044H198.889z"/>
		<path d="M209.614,39.086h-0.973V29.76h0.973v1.296c0.778-0.918,1.54-1.549,2.706-1.549c1.021,0,1.961,0.36,2.561,1.333
			c0.405,0.667,0.421,1.369,0.421,2.143v6.104h-0.973V33c0-1.674-0.616-2.521-2.171-2.521c-1.199,0-2.025,0.864-2.333,1.818
			c-0.194,0.594-0.21,1.116-0.21,1.765V39.086z"/>
		<path d="M221.506,33.649c0.356-0.036,0.956-0.144,1.28-0.306s0.356-0.648,0.356-0.972c0-1.099-0.583-1.891-2.09-1.891
			c-1.345,0-2.269,0.486-2.447,2.106h-0.989c0.146-2.197,1.621-3.079,3.452-3.079c1.702,0,3.046,0.738,3.046,2.899v5.078
			c0,0.846,0.195,1.044,1.021,0.72v0.846c-0.146,0.054-0.486,0.18-0.762,0.18c-0.162,0-0.292-0.018-0.438-0.054
			c-0.648-0.108-0.762-0.738-0.778-1.386c-0.81,1.008-1.912,1.548-3.127,1.548c-1.475,0-2.803-0.882-2.803-2.683
			c0-1.566,0.972-2.521,2.933-2.809L221.506,33.649z M223.142,34.189c-0.826,0.378-1.669,0.45-2.512,0.522
			c-1.475,0.126-2.366,0.72-2.366,1.981c0,1.134,0.891,1.674,1.815,1.674c1.539,0,3.062-0.828,3.062-2.719V34.189z"/>
		<path d="M227.742,39.086h-0.972V26.123h0.972v5.131c0.616-1.134,1.815-1.747,2.998-1.747c2.56,0,3.743,2.323,3.743,4.934
			c0,2.755-1.086,4.897-3.792,4.897c-1.069,0-2.35-0.666-2.917-1.891h-0.032V39.086z M230.578,38.366
			c1.637,0,2.852-1.314,2.868-3.655c0.081-2.34-0.859-4.231-2.868-4.231c-1.767,0-2.836,1.8-2.836,3.907
			C227.742,36.638,228.747,38.366,230.578,38.366z"/>
		<path d="M236.7,39.086V26.123h0.972v12.964H236.7z"/>
		<path d="M240.75,34.675c-0.016,2.017,0.956,3.691,2.82,3.691c1.264,0,2.252-0.774,2.544-2.143h1.085
			c-0.486,1.765-1.491,3.115-3.63,3.115c-2.69,0-3.857-2.125-3.857-4.879c0-2.719,1.458-4.952,3.857-4.952
			c2.301,0,3.711,1.819,3.695,5.168H240.75z M246.227,33.775c0-1.818-0.908-3.295-2.658-3.295c-1.718,0-2.625,1.53-2.82,3.295
			H246.227z"/>
		<path d="M255.639,26.123h0.973v12.964h-0.973v-1.639h-0.032c-0.567,1.225-1.847,1.891-2.917,1.891
			c-2.706,0-3.792-2.143-3.792-4.897c0-2.611,1.183-4.934,3.744-4.934c1.183,0,2.382,0.612,2.998,1.747V26.123z M252.804,30.48
			c-2.01,0-2.949,1.891-2.869,4.231c0.017,2.341,1.232,3.655,2.869,3.655c1.831,0,2.835-1.729,2.835-3.979
			C255.639,32.28,254.57,30.48,252.804,30.48z"/>
	</g>
	<g>
		<path d="M238.014,60.405c3.646,0,5.494,3.043,5.494,6.842c0,3.727-1.848,6.806-5.445,6.806c-3.598,0-5.429-3.079-5.429-6.806
			C232.618,63.466,234.53,60.405,238.014,60.405z M242.405,67.248c0-3.601-1.669-5.798-4.359-5.798
			c-2.998,0-4.311,2.791-4.311,5.798c0,3.061,1.296,5.762,4.343,5.762C241.109,73.009,242.405,70.272,242.405,67.248z"/>
		<path d="M251.233,64.385h0.973v9.327h-0.973v-1.296c-0.519,0.648-1.231,1.548-2.706,1.548c-2.236,0-2.982-1.494-2.982-3.439v-6.14
			h0.973v6.122c0,1.603,0.632,2.485,2.155,2.485c1.604,0,2.56-1.477,2.56-3.529V64.385z"/>
		<path d="M257.502,73.748c-0.227,0.054-0.648,0.216-1.118,0.216c-0.956,0-1.491-0.468-1.491-1.854v-6.824h-1.183v-0.9h1.183v-2.593
			h0.973v2.593h1.572v0.9h-1.572v6.392c0,0.918,0.032,1.314,0.842,1.314c0.259,0,0.535-0.054,0.794-0.126V73.748z"/>
	</g>
	<g>
	</g>
	<g>
	</g>
	<g>
	</g>
	<g>
	</g>
	<g>
	</g>
	<g>
	</g>
	<g>
	</g>
	<g>
	</g>
	<g>
	</g>
	<g>
	</g>
	<g>
	</g>
	<g>
	</g>
	<g>
	</g>
	<g>
	</g>
	<g>
	</g>
</g>
</svg>
