<?xml version="1.0" encoding="utf-8"?>
<!-- Generator: Adobe Illustrator 28.2.0, SVG Export Plug-In . SVG Version: 6.00 Build 0)  -->
<svg version="1.1" xmlns="http://www.w3.org/2000/svg" xmlns:xlink="http://www.w3.org/1999/xlink" x="0px" y="0px"
	 width="281.185px" height="94.822px" viewBox="0 0 281.185 94.822" style="enable-background:new 0 0 281.185 94.822;"
	 xml:space="preserve">
<style type="text/css">
	.st0{fill:#F0F0F0;stroke:#828282;stroke-miterlimit:10;}
	.st1{fill:none;stroke:#828282;stroke-miterlimit:10;}
	.st2{fill:#828282;}
	.st3{fill:#FFFFFF;}
</style>
<g id="レイヤー_2">
	<rect x="20.323" y="0.5" class="st0" width="240.539" height="93.822"/>
	<line class="st1" x1="0" y1="25.814" x2="20.323" y2="25.814"/>
	<line class="st1" x1="0" y1="25.814" x2="20.323" y2="25.814"/>
	<line class="st1" x1="260.862" y1="25.814" x2="281.185" y2="25.814"/>
	<rect x="20.323" y="0.5" class="st2" width="240.539" height="21"/>
</g>
<g id="レイヤー_3">
	<g>
		<path d="M25.511,39.028V26.064h1.102v12.964H25.511z"/>
		<path d="M30.452,39.028h-0.972v-9.327h0.972v1.296c0.778-0.918,1.54-1.549,2.706-1.549c1.021,0,1.961,0.36,2.561,1.333
			c0.405,0.667,0.421,1.369,0.421,2.143v6.104h-0.973v-6.086c0-1.674-0.616-2.521-2.171-2.521c-1.199,0-2.025,0.864-2.333,1.818
			c-0.194,0.594-0.21,1.116-0.21,1.765V39.028z"/>
	</g>
	<g>
		<path d="M25.073,73.711V60.748h4.262c3.03,0,3.808,1.674,3.808,3.619c0,2.899-2.317,3.619-4.473,3.619h-2.496v5.726H25.073z
			 M28.703,66.941c2.058,0,3.338-0.468,3.338-2.665c0-1.621-0.94-2.485-3.014-2.485h-2.852v5.149H28.703z"/>
		<path d="M33.966,60.748h8.491v1.044h-3.695v11.919h-1.102V61.792h-3.695V60.748z"/>
	</g>
	<g>
		<path class="st3" d="M131.399,5.3h8.491v1.044h-3.695v11.919h-1.102V6.344h-3.695V5.3z"/>
		<path class="st3" d="M141.411,18.264V5.3h4.262c3.03,0,3.808,1.674,3.808,3.619c0,2.899-2.317,3.619-4.473,3.619h-2.496v5.726
			H141.411z M145.041,11.494c2.058,0,3.338-0.468,3.338-2.665c0-1.621-0.94-2.485-3.014-2.485h-2.852v5.149H145.041z"/>
	</g>
	<g>
		<path d="M256.743,39.194l-0.616,0.829l-1.717-1.477c-0.794,0.558-1.767,0.882-2.917,0.882c-3.598,0-5.429-3.079-5.429-6.806
			c0-3.601,1.75-6.842,5.38-6.842c3.273,0,5.494,2.431,5.494,6.842c0,2.088-0.583,3.979-1.75,5.239L256.743,39.194z M254.376,37.16
			c0.989-1.044,1.458-2.737,1.458-4.537c0-3.871-1.863-5.798-4.359-5.798c-2.998,0-4.311,2.809-4.311,5.798
			c0,3.079,1.296,5.762,4.343,5.762c0.81,0,1.491-0.216,2.042-0.576l-1.329-1.134l0.583-0.846L254.376,37.16z"/>
	</g>
	<g>
		<path d="M240.296,73.711V60.748h7.762v1.044h-6.66v4.681h6.012v1.044h-6.012v5.149h6.822v1.044H240.296z"/>
		<path d="M249.141,60.748h8.491v1.044h-3.695v11.919h-1.102V61.792h-3.695V60.748z"/>
	</g>
	<g>
	</g>
	<g>
	</g>
	<g>
	</g>
	<g>
	</g>
	<g>
	</g>
	<g>
	</g>
	<g>
	</g>
	<g>
	</g>
	<g>
	</g>
	<g>
	</g>
	<g>
	</g>
	<g>
	</g>
	<g>
	</g>
	<g>
	</g>
	<g>
	</g>
</g>
</svg>
