<?xml version="1.0" encoding="utf-8"?>
<!-- Generator: Adobe Illustrator 28.2.0, SVG Export Plug-In . SVG Version: 6.00 Build 0)  -->
<svg version="1.1" xmlns="http://www.w3.org/2000/svg" xmlns:xlink="http://www.w3.org/1999/xlink" x="0px" y="0px"
	 width="281.185px" height="178.933px" viewBox="0 0 281.185 178.933" style="enable-background:new 0 0 281.185 178.933;"
	 xml:space="preserve">
<style type="text/css">
	.st0{fill:#F0F0F0;stroke:#828282;stroke-miterlimit:10;}
	.st1{fill:none;stroke:#828282;stroke-miterlimit:10;}
	.st2{fill:#828282;}
	.st3{fill:#FFFFFF;}
</style>
<g id="レイヤー_2">
	<rect x="20.323" y="0.5" class="st0" width="240.539" height="177.933"/>
	<line class="st1" x1="0" y1="25.814" x2="20.323" y2="25.814"/>
	<line class="st1" x1="0" y1="25.814" x2="20.323" y2="25.814"/>
	<line class="st1" x1="260.862" y1="25.814" x2="281.185" y2="25.814"/>
	<rect x="20.323" y="0.5" class="st2" width="240.539" height="21"/>
</g>
<g id="レイヤー_3">
	<g>
		<path d="M25.121,39.028V26.064h7.762v1.044h-6.66v4.681h6.012v1.044h-6.012v5.149h6.822v1.044H25.121z"/>
		<path d="M36.121,27.72h-0.032v11.308h-1.102V26.064h1.248l6.741,11.325h0.033V26.064h1.102v12.964h-1.28L36.121,27.72z"/>
	</g>
	<g>
		<path d="M25.138,60.748h1.102v7.724c0,3.205,1.037,4.538,3.419,4.538c2.512,0,3.419-1.477,3.419-4.538v-7.724h1.102v8.084
			c0,3.367-1.507,5.222-4.521,5.222c-3.047,0-4.521-1.909-4.521-5.222V60.748z"/>
		<path d="M37.644,73.711h-0.973v-9.327h0.973v1.296c0.778-0.918,1.54-1.549,2.706-1.549c1.021,0,1.961,0.36,2.561,1.333
			c0.405,0.667,0.421,1.369,0.421,2.143v6.104H42.36v-6.086c0-1.674-0.616-2.521-2.171-2.521c-1.199,0-2.025,0.864-2.333,1.818
			c-0.194,0.594-0.21,1.116-0.21,1.765V73.711z"/>
		<path d="M45.777,62.35v-1.603h1.069v1.603H45.777z M45.825,73.711v-9.327h0.972v9.327H45.825z"/>
		<path d="M52.225,73.748c-0.227,0.054-0.648,0.216-1.118,0.216c-0.956,0-1.491-0.468-1.491-1.854v-6.824h-1.183v-0.9h1.183v-2.593
			h0.973v2.593h1.572v0.9h-1.572v6.392c0,0.918,0.032,1.314,0.842,1.314c0.259,0,0.535-0.054,0.794-0.126V73.748z"/>
	</g>
	<g>
		<path d="M25.575,112.081c0.179,2.323,1.572,3.169,3.354,3.169c2.09,0,2.966-1.26,2.966-2.683c0-4.016-7.114-1.351-7.114-6.446
			c0-1.8,1.345-3.475,3.954-3.475c2.625,0,3.938,1.765,3.921,3.872h-1.053c0-1.981-1.377-2.827-2.868-2.827
			c-2.236,0-3.046,1.53-2.852,2.863c0.502,3.349,7.114,0.937,7.114,5.96c0,2.376-1.572,3.781-4.262,3.781
			c-2.431,0-4.229-1.405-4.229-4.213H25.575z"/>
		<path d="M34.323,111.288c0-2.719,1.296-4.916,3.889-4.916c2.625,0,3.889,2.179,3.889,4.916c0,2.953-1.54,4.916-3.889,4.916
			C36.073,116.167,34.323,114.547,34.323,111.288z M38.212,107.345c-2.042,0-2.852,1.926-2.852,3.943
			c0,2.323,0.989,3.943,2.852,3.943c2.042,0,2.852-1.945,2.852-3.943C41.048,109.092,40.27,107.345,38.212,107.345z"/>
		<path d="M49.828,109.56c-0.34-1.386-1.199-2.214-2.496-2.214c-1.993,0-2.819,2.017-2.819,3.961c0,1.963,0.81,3.925,2.819,3.925
			c1.442,0,2.35-0.954,2.577-2.503h1.037c-0.34,2.071-1.507,3.475-3.614,3.475c-2.673,0-3.856-2.143-3.856-4.897
			c0-2.593,1.345-4.934,3.856-4.934c1.929,0,3.192,1.026,3.484,3.187H49.828z"/>
		<path d="M52.824,115.952v-12.964h0.972v8.066l4.116-4.429h1.329l-3.144,3.367l3.516,5.96h-1.085l-3.144-5.204l-1.588,1.674v3.529
			H52.824z"/>
		<path d="M61.588,111.541c-0.016,2.017,0.956,3.691,2.82,3.691c1.264,0,2.252-0.774,2.544-2.143h1.085
			c-0.486,1.765-1.491,3.115-3.63,3.115c-2.69,0-3.857-2.125-3.857-4.879c0-2.719,1.458-4.952,3.857-4.952
			c2.301,0,3.711,1.819,3.695,5.168H61.588z M67.065,110.64c0-1.818-0.908-3.295-2.658-3.295c-1.718,0-2.625,1.53-2.82,3.295H67.065
			z"/>
		<path d="M72.945,115.988c-0.227,0.054-0.648,0.216-1.118,0.216c-0.956,0-1.491-0.468-1.491-1.854v-6.824h-1.183v-0.9h1.183v-2.593
			h0.973v2.593h1.572v0.9h-1.572v6.392c0,0.918,0.032,1.314,0.842,1.314c0.259,0,0.535-0.054,0.794-0.126V115.988z"/>
	</g>
	<g>
		<path d="M25.575,154.418c0.179,2.322,1.572,3.169,3.354,3.169c2.09,0,2.966-1.261,2.966-2.683c0-4.016-7.114-1.351-7.114-6.446
			c0-1.8,1.345-3.475,3.954-3.475c2.625,0,3.938,1.765,3.921,3.872h-1.053c0-1.981-1.377-2.827-2.868-2.827
			c-2.236,0-3.046,1.53-2.852,2.863c0.502,3.349,7.114,0.937,7.114,5.959c0,2.377-1.572,3.781-4.262,3.781
			c-2.431,0-4.229-1.404-4.229-4.213H25.575z"/>
		<path d="M35.473,153.878c-0.016,2.017,0.957,3.69,2.82,3.69c1.264,0,2.252-0.774,2.544-2.143h1.086
			c-0.486,1.765-1.491,3.115-3.63,3.115c-2.69,0-3.857-2.125-3.857-4.879c0-2.719,1.458-4.952,3.857-4.952
			c2.301,0,3.711,1.819,3.695,5.168H35.473z M40.951,152.978c0-1.818-0.908-3.295-2.658-3.295c-1.718,0-2.625,1.53-2.82,3.295
			H40.951z"/>
		<path d="M44.853,158.289h-0.973v-9.327h0.973v1.296c0.778-0.918,1.54-1.549,2.706-1.549c1.021,0,1.961,0.36,2.561,1.333
			c0.405,0.667,0.421,1.369,0.421,2.143v6.104h-0.973v-6.086c0-1.674-0.616-2.521-2.171-2.521c-1.199,0-2.025,0.864-2.333,1.818
			c-0.194,0.594-0.21,1.116-0.21,1.765V158.289z"/>
		<path d="M59.37,145.325h0.973v12.964H59.37v-1.639h-0.032c-0.567,1.225-1.847,1.891-2.917,1.891c-2.706,0-3.792-2.143-3.792-4.897
			c0-2.611,1.183-4.934,3.744-4.934c1.183,0,2.382,0.612,2.998,1.747V145.325z M56.535,149.683c-2.01,0-2.949,1.891-2.869,4.231
			c0.017,2.34,1.232,3.655,2.869,3.655c1.831,0,2.835-1.729,2.835-3.979C59.37,151.483,58.301,149.683,56.535,149.683z"/>
		<path d="M62.932,158.289v-12.964h3.986c1.296,0,2.512,0.09,3.598,0.972c1.54,1.243,1.944,3.763,1.944,5.492
			c0,1.71-0.34,3.619-1.41,4.915c-1.069,1.333-2.593,1.585-4.132,1.585H62.932z M64.034,157.244h2.642
			c0.988,0,1.847-0.071,2.738-0.594c1.556-0.882,1.945-3.097,1.945-4.861c0-1.891-0.373-3.961-2.01-4.934
			c-0.697-0.414-1.701-0.486-2.673-0.486h-2.642V157.244z"/>
		<path d="M78.339,152.852c0.356-0.036,0.956-0.144,1.28-0.306s0.356-0.648,0.356-0.972c0-1.099-0.583-1.891-2.09-1.891
			c-1.345,0-2.269,0.486-2.447,2.106H74.45c0.146-2.197,1.621-3.079,3.452-3.079c1.702,0,3.046,0.738,3.046,2.899v5.078
			c0,0.846,0.195,1.044,1.021,0.72v0.847c-0.146,0.054-0.486,0.18-0.762,0.18c-0.162,0-0.292-0.018-0.438-0.054
			c-0.648-0.108-0.762-0.738-0.778-1.387c-0.81,1.009-1.912,1.549-3.127,1.549c-1.475,0-2.803-0.883-2.803-2.683
			c0-1.566,0.972-2.521,2.933-2.809L78.339,152.852z M79.976,153.392c-0.827,0.378-1.669,0.45-2.512,0.522
			c-1.475,0.126-2.366,0.72-2.366,1.981c0,1.134,0.891,1.674,1.815,1.674c1.539,0,3.062-0.828,3.062-2.719V153.392z"/>
		<path d="M86.439,158.325c-0.227,0.054-0.648,0.216-1.118,0.216c-0.956,0-1.491-0.468-1.491-1.854v-6.824h-1.183v-0.9h1.183v-2.593
			h0.973v2.593h1.572v0.9h-1.572v6.392c0,0.919,0.032,1.314,0.842,1.314c0.259,0,0.535-0.054,0.794-0.126V158.325z"/>
		<path d="M91.85,152.852c0.356-0.036,0.956-0.144,1.28-0.306s0.356-0.648,0.356-0.972c0-1.099-0.583-1.891-2.09-1.891
			c-1.345,0-2.269,0.486-2.447,2.106h-0.989c0.146-2.197,1.621-3.079,3.452-3.079c1.702,0,3.046,0.738,3.046,2.899v5.078
			c0,0.846,0.195,1.044,1.021,0.72v0.847c-0.146,0.054-0.486,0.18-0.762,0.18c-0.162,0-0.292-0.018-0.438-0.054
			c-0.648-0.108-0.762-0.738-0.778-1.387c-0.81,1.009-1.912,1.549-3.127,1.549c-1.475,0-2.803-0.883-2.803-2.683
			c0-1.566,0.972-2.521,2.933-2.809L91.85,152.852z M93.487,153.392c-0.827,0.378-1.669,0.45-2.512,0.522
			c-1.475,0.126-2.366,0.72-2.366,1.981c0,1.134,0.891,1.674,1.815,1.674c1.539,0,3.062-0.828,3.062-2.719V153.392z"/>
	</g>
	<g>
		<path class="st3" d="M83.408,5.3h1.102v7.724c0,3.205,1.037,4.538,3.419,4.538c2.512,0,3.419-1.477,3.419-4.538V5.3h1.102v8.084
			c0,3.367-1.507,5.222-4.521,5.222c-3.047,0-4.521-1.909-4.521-5.222V5.3z"/>
		<path class="st3" d="M101.878,19.614v0.9h-8.103v-0.9H101.878z"/>
		<path class="st3" d="M103.641,14.393c0.178,2.323,1.572,3.169,3.354,3.169c2.09,0,2.966-1.26,2.966-2.683
			c0-4.016-7.114-1.351-7.114-6.446c0-1.8,1.345-3.475,3.954-3.475c2.625,0,3.938,1.765,3.921,3.872h-1.053
			c0-1.981-1.377-2.827-2.868-2.827c-2.236,0-3.046,1.53-2.852,2.863c0.502,3.349,7.114,0.937,7.114,5.96
			c0,2.376-1.572,3.781-4.262,3.781c-2.431,0-4.229-1.405-4.229-4.213H103.641z"/>
		<path class="st3" d="M112.389,13.6c0-2.719,1.296-4.916,3.889-4.916c2.625,0,3.889,2.179,3.889,4.916
			c0,2.953-1.54,4.916-3.889,4.916C114.139,18.479,112.389,16.859,112.389,13.6z M116.278,9.657c-2.042,0-2.852,1.926-2.852,3.943
			c0,2.323,0.989,3.943,2.852,3.943c2.042,0,2.852-1.945,2.852-3.943C119.114,11.404,118.336,9.657,116.278,9.657z"/>
		<path class="st3" d="M127.894,11.872c-0.34-1.386-1.199-2.214-2.496-2.214c-1.993,0-2.819,2.017-2.819,3.961
			c0,1.963,0.81,3.925,2.819,3.925c1.442,0,2.35-0.954,2.577-2.503h1.037c-0.34,2.071-1.507,3.475-3.614,3.475
			c-2.674,0-3.856-2.143-3.856-4.897c0-2.593,1.345-4.934,3.856-4.934c1.929,0,3.192,1.026,3.484,3.187H127.894z"/>
		<path class="st3" d="M130.89,18.264V5.3h0.972v8.066l4.116-4.429h1.329l-3.144,3.367l3.516,5.96h-1.085l-3.144-5.204l-1.588,1.674
			v3.529H130.89z"/>
		<path class="st3" d="M148.356,16.535h0.033L150.933,5.3h1.134l-3.062,12.964h-1.215l-2.707-11.451h-0.032l-2.706,11.451h-1.215
			L138.115,5.3h1.102l2.512,11.235h0.033L144.467,5.3h1.231L148.356,16.535z"/>
		<path class="st3" d="M154.477,18.264h-0.972V8.937h0.972v1.747h0.033c0.535-1.495,1.329-1.999,2.738-1.999v1.17
			c-2.188-0.054-2.771,1.747-2.771,3.835V18.264z"/>
		<path class="st3" d="M158.949,6.902V5.3h1.069v1.603H158.949z M158.997,18.264V8.937h0.972v9.327H158.997z"/>
		<path class="st3" d="M165.397,18.3c-0.227,0.054-0.648,0.216-1.118,0.216c-0.956,0-1.491-0.468-1.491-1.854V9.837h-1.183v-0.9
			h1.183V6.344h0.973v2.593h1.572v0.9h-1.572v6.392c0,0.918,0.032,1.314,0.842,1.314c0.259,0,0.535-0.054,0.794-0.126V18.3z"/>
		<path class="st3" d="M167.55,13.853c-0.016,2.017,0.956,3.691,2.82,3.691c1.264,0,2.252-0.774,2.544-2.143H174
			c-0.486,1.765-1.491,3.115-3.63,3.115c-2.69,0-3.857-2.125-3.857-4.879c0-2.719,1.458-4.952,3.857-4.952
			c2.301,0,3.711,1.819,3.695,5.168H167.55z M173.028,12.952c0-1.818-0.908-3.295-2.658-3.295c-1.718,0-2.625,1.53-2.82,3.295
			H173.028z"/>
		<path class="st3" d="M176.104,18.264V5.3h4.213c2.739,0,3.824,1.314,3.824,3.259c0,1.801-0.923,2.611-1.863,2.791v0.036
			c1.604,0.27,2.398,1.512,2.398,3.223c0,2.701-1.588,3.655-3.808,3.655H176.104z M177.206,11.025h2.787
			c2.301,0,3.046-0.9,3.046-2.467c0-1.62-0.875-2.214-3.29-2.214h-2.544V11.025z M177.206,17.219h2.803
			c2.431,0,3.565-0.36,3.565-2.611c0-2.143-1.361-2.539-3.436-2.539h-2.933V17.219z"/>
		<path class="st3" d="M192.451,8.937h0.973v9.327h-0.973v-1.296c-0.519,0.648-1.231,1.548-2.706,1.548
			c-2.236,0-2.982-1.494-2.982-3.439v-6.14h0.973v6.122c0,1.603,0.632,2.485,2.155,2.485c1.604,0,2.56-1.477,2.56-3.529V8.937z"/>
		<path class="st3" d="M194.928,9.837v-0.9h1.248V7.46c0-1.477,0.486-2.413,1.783-2.413c0.292,0,0.551,0.018,0.81,0.072v0.99
			c-0.194-0.054-0.405-0.09-0.583-0.09c-1.004,0-1.037,0.918-1.037,1.765v1.152h1.621v0.9h-1.621v8.427h-0.972V9.837H194.928z"/>
	</g>
	<g>
		<path d="M225.004,39.086V26.123h7.762v1.044h-6.66v4.681h6.012v1.044h-6.012v5.149h6.822v1.044H225.004z"/>
		<path d="M236.004,27.779h-0.032v11.308h-1.102V26.123h1.248l6.741,11.325h0.033V26.123h1.102v12.964h-1.28L236.004,27.779z"/>
		<path d="M251.524,25.78c3.646,0,5.494,3.043,5.494,6.842c0,3.727-1.848,6.806-5.445,6.806c-3.598,0-5.429-3.079-5.429-6.806
			C246.128,28.841,248.04,25.78,251.524,25.78z M255.916,32.623c0-3.601-1.669-5.798-4.359-5.798c-2.998,0-4.311,2.791-4.311,5.798
			c0,3.061,1.296,5.762,4.343,5.762C254.619,38.384,255.916,35.647,255.916,32.623z"/>
	</g>
	<g>
	</g>
	<g>
	</g>
	<g>
	</g>
	<g>
	</g>
	<g>
	</g>
	<g>
	</g>
	<g>
	</g>
	<g>
	</g>
	<g>
	</g>
	<g>
	</g>
	<g>
	</g>
	<g>
	</g>
	<g>
	</g>
	<g>
	</g>
	<g>
	</g>
</g>
</svg>
