<?xml version="1.0" encoding="utf-8"?>
<!-- Generator: Adobe Illustrator 28.2.0, SVG Export Plug-In . SVG Version: 6.00 Build 0)  -->
<svg version="1.1" xmlns="http://www.w3.org/2000/svg" xmlns:xlink="http://www.w3.org/1999/xlink" x="0px" y="0px"
	 width="281.185px" height="136.96px" viewBox="0 0 281.185 136.96" style="enable-background:new 0 0 281.185 136.96;"
	 xml:space="preserve">
<style type="text/css">
	.st0{fill:#F0F0F0;stroke:#828282;stroke-miterlimit:10;}
	.st1{fill:none;stroke:#828282;stroke-miterlimit:10;}
	.st2{fill:#828282;}
	.st3{fill:#FFFFFF;}
</style>
<g id="レイヤー_2">
	<rect x="20.323" y="0.5" class="st0" width="240.539" height="135.96"/>
	<line class="st1" x1="0" y1="25.814" x2="20.323" y2="25.814"/>
	<line class="st1" x1="0" y1="25.814" x2="20.323" y2="25.814"/>
	<line class="st1" x1="260.862" y1="25.814" x2="281.185" y2="25.814"/>
	<rect x="20.323" y="0.5" class="st2" width="240.539" height="21"/>
</g>
<g id="レイヤー_3">
	<g>
		<path d="M25.121,39.028V26.064h7.762v1.044h-6.66v4.681h6.012v1.044h-6.012v5.149h6.822v1.044H25.121z"/>
		<path d="M36.121,27.72h-0.032v11.308h-1.102V26.064h1.248l6.741,11.325h0.033V26.064h1.102v12.964h-1.28L36.121,27.72z"/>
	</g>
	<g>
		<path d="M25.138,60.748h1.102v7.724c0,3.205,1.037,4.538,3.419,4.538c2.512,0,3.419-1.477,3.419-4.538v-7.724h1.102v8.084
			c0,3.367-1.507,5.222-4.521,5.222c-3.047,0-4.521-1.909-4.521-5.222V60.748z"/>
		<path d="M37.644,73.711h-0.973v-9.327h0.973v1.296c0.778-0.918,1.54-1.549,2.706-1.549c1.021,0,1.961,0.36,2.561,1.333
			c0.405,0.667,0.421,1.369,0.421,2.143v6.104H42.36v-6.086c0-1.674-0.616-2.521-2.171-2.521c-1.199,0-2.025,0.864-2.333,1.818
			c-0.194,0.594-0.21,1.116-0.21,1.765V73.711z"/>
		<path d="M45.777,62.35v-1.603h1.069v1.603H45.777z M45.825,73.711v-9.327h0.972v9.327H45.825z"/>
		<path d="M52.225,73.748c-0.227,0.054-0.648,0.216-1.118,0.216c-0.956,0-1.491-0.468-1.491-1.854v-6.824h-1.183v-0.9h1.183v-2.593
			h0.973v2.593h1.572v0.9h-1.572v6.392c0,0.918,0.032,1.314,0.842,1.314c0.259,0,0.535-0.054,0.794-0.126V73.748z"/>
	</g>
	<g>
		<path d="M25.008,115.952v-12.964h7.519v1.044H26.11v4.681h5.833v1.044H26.11v6.194H25.008z"/>
		<path d="M34.129,115.952v-12.964h0.972v12.964H34.129z"/>
		<path d="M41.436,110.514c0.356-0.036,0.956-0.144,1.28-0.306s0.356-0.648,0.356-0.972c0-1.099-0.583-1.891-2.09-1.891
			c-1.345,0-2.269,0.486-2.447,2.106h-0.989c0.146-2.197,1.621-3.079,3.452-3.079c1.702,0,3.046,0.738,3.046,2.899v5.078
			c0,0.846,0.195,1.044,1.021,0.72v0.846c-0.146,0.054-0.486,0.18-0.762,0.18c-0.162,0-0.292-0.018-0.438-0.054
			c-0.648-0.108-0.762-0.738-0.778-1.386c-0.81,1.008-1.912,1.548-3.127,1.548c-1.475,0-2.803-0.882-2.803-2.683
			c0-1.566,0.972-2.521,2.933-2.809L41.436,110.514z M43.073,111.054c-0.827,0.378-1.669,0.45-2.512,0.522
			c-1.475,0.126-2.366,0.72-2.366,1.981c0,1.134,0.891,1.674,1.815,1.674c1.539,0,3.062-0.828,3.062-2.719V111.054z"/>
		<path d="M53.068,106.625h0.973v8.426c0,2.503-0.746,4.718-3.938,4.718c-2.463,0-3.484-1.567-3.549-2.683h1.037
			c0.292,1.404,1.361,1.71,2.512,1.71c2.658,0,3.014-2.196,2.965-4.339c-0.616,1.134-1.814,1.747-2.998,1.747
			c-2.561,0-3.744-2.323-3.744-4.934c0-2.754,1.086-4.897,3.792-4.897c1.07,0,2.35,0.667,2.917,1.891h0.032V106.625z
			 M50.233,107.345c-1.637,0-2.852,1.314-2.869,3.655c-0.081,2.341,0.859,4.231,2.869,4.231c1.766,0,2.835-1.8,2.835-3.907
			C53.068,109.074,52.064,107.345,50.233,107.345z"/>
		<path d="M57.052,113.035c0.308,1.603,1.053,2.197,2.512,2.197c1.41,0,2.074-0.828,2.074-1.729c0-2.701-5.38-0.792-5.38-4.465
			c0-1.548,1.085-2.665,2.949-2.665c1.815,0,2.998,0.829,3.241,2.935h-0.989c-0.178-1.44-1.053-1.962-2.269-1.962
			c-1.231,0-1.896,0.648-1.896,1.603c0,2.539,5.38,0.954,5.38,4.537c0,1.783-1.442,2.719-3.419,2.719
			c-1.977,0-3.111-1.404-3.192-3.169H57.052z"/>
	</g>
	<g>
		<path class="st3" d="M76.223,5.3h1.102v7.724c0,3.205,1.037,4.538,3.419,4.538c2.512,0,3.419-1.477,3.419-4.538V5.3h1.102v8.084
			c0,3.367-1.507,5.222-4.521,5.222c-3.047,0-4.521-1.909-4.521-5.222V5.3z"/>
		<path class="st3" d="M94.693,19.614v0.9h-8.103v-0.9H94.693z"/>
		<path class="st3" d="M96.003,18.264V5.3h3.986c1.296,0,2.512,0.09,3.598,0.972c1.54,1.243,1.944,3.763,1.944,5.492
			c0,1.71-0.34,3.619-1.41,4.916c-1.069,1.333-2.593,1.584-4.132,1.584H96.003z M97.105,17.219h2.641
			c0.989,0,1.848-0.072,2.739-0.594c1.556-0.882,1.945-3.097,1.945-4.861c0-1.891-0.373-3.961-2.01-4.934
			c-0.697-0.414-1.701-0.486-2.674-0.486h-2.641V17.219z"/>
		<path class="st3" d="M107.651,6.902V5.3h1.069v1.603H107.651z M107.7,18.264V8.937h0.972v9.327H107.7z"/>
		<path class="st3" d="M111.717,15.347c0.308,1.603,1.053,2.197,2.512,2.197c1.41,0,2.074-0.828,2.074-1.729
			c0-2.701-5.38-0.792-5.38-4.465c0-1.548,1.085-2.665,2.949-2.665c1.815,0,2.998,0.829,3.241,2.935h-0.989
			c-0.178-1.44-1.053-1.962-2.269-1.962c-1.231,0-1.896,0.648-1.896,1.603c0,2.539,5.38,0.954,5.38,4.537
			c0,1.783-1.442,2.719-3.419,2.719c-1.977,0-3.111-1.404-3.192-3.169H111.717z"/>
		<path class="st3" d="M123.107,12.826c0.356-0.036,0.956-0.144,1.28-0.306s0.356-0.648,0.356-0.972c0-1.099-0.583-1.891-2.09-1.891
			c-1.345,0-2.269,0.486-2.447,2.106h-0.989c0.146-2.197,1.621-3.079,3.452-3.079c1.702,0,3.046,0.738,3.046,2.899v5.078
			c0,0.846,0.195,1.044,1.021,0.72v0.846c-0.146,0.054-0.486,0.18-0.762,0.18c-0.162,0-0.292-0.018-0.438-0.054
			c-0.648-0.108-0.762-0.738-0.778-1.386c-0.81,1.008-1.912,1.548-3.127,1.548c-1.475,0-2.803-0.882-2.803-2.683
			c0-1.566,0.972-2.521,2.933-2.809L123.107,12.826z M124.743,13.366c-0.826,0.378-1.669,0.45-2.512,0.522
			c-1.475,0.126-2.366,0.72-2.366,1.981c0,1.134,0.891,1.674,1.815,1.674c1.539,0,3.062-0.828,3.062-2.719V13.366z"/>
		<path class="st3" d="M129.343,18.264h-0.972V5.3h0.972v5.131c0.616-1.134,1.815-1.747,2.998-1.747c2.56,0,3.743,2.323,3.743,4.934
			c0,2.755-1.086,4.897-3.792,4.897c-1.069,0-2.35-0.666-2.917-1.891h-0.032V18.264z M132.179,17.543
			c1.637,0,2.852-1.314,2.868-3.655c0.081-2.34-0.859-4.231-2.868-4.231c-1.767,0-2.836,1.8-2.836,3.907
			C129.343,15.815,130.348,17.543,132.179,17.543z"/>
		<path class="st3" d="M138.301,18.264V5.3h0.972v12.964H138.301z"/>
		<path class="st3" d="M142.351,13.853c-0.016,2.017,0.956,3.691,2.82,3.691c1.264,0,2.252-0.774,2.544-2.143h1.085
			c-0.486,1.765-1.491,3.115-3.63,3.115c-2.69,0-3.857-2.125-3.857-4.879c0-2.719,1.458-4.952,3.857-4.952
			c2.301,0,3.711,1.819,3.695,5.168H142.351z M147.828,12.952c0-1.818-0.908-3.295-2.658-3.295c-1.718,0-2.625,1.53-2.82,3.295
			H147.828z"/>
		<path class="st3" d="M155.831,4.958c3.646,0,5.494,3.043,5.494,6.842c0,3.727-1.848,6.806-5.445,6.806
			c-3.598,0-5.429-3.079-5.429-6.806C150.435,8.019,152.347,4.958,155.831,4.958z M160.223,11.8c0-3.601-1.669-5.798-4.359-5.798
			c-2.998,0-4.311,2.791-4.311,5.798c0,3.061,1.296,5.762,4.343,5.762C158.926,17.562,160.223,14.825,160.223,11.8z"/>
		<path class="st3" d="M162.471,8.937h1.053l2.723,7.994l2.722-7.994h1.054l-3.257,9.327h-1.086L162.471,8.937z"/>
		<path class="st3" d="M172.062,13.853c-0.016,2.017,0.956,3.691,2.82,3.691c1.264,0,2.252-0.774,2.544-2.143h1.085
			c-0.486,1.765-1.491,3.115-3.63,3.115c-2.69,0-3.857-2.125-3.857-4.879c0-2.719,1.458-4.952,3.857-4.952
			c2.301,0,3.711,1.819,3.695,5.168H172.062z M177.539,12.952c0-1.818-0.908-3.295-2.658-3.295c-1.718,0-2.625,1.53-2.82,3.295
			H177.539z"/>
		<path class="st3" d="M181.491,18.264h-0.972V8.937h0.972v1.747h0.033c0.535-1.495,1.329-1.999,2.738-1.999v1.17
			c-2.188-0.054-2.771,1.747-2.771,3.835V18.264z"/>
		<path class="st3" d="M194.291,9.063c-0.454-2.215-1.685-3.061-3.679-3.061c-2.819,0-4.035,2.683-4.035,5.744
			c0,2.899,0.956,5.816,4.132,5.816c2.009,0,3.257-1.513,3.694-3.565h1.151c-0.519,2.502-1.929,4.609-5.056,4.609
			c-3.597,0-5.023-3.151-5.023-6.824c0-4.952,2.333-6.824,5.429-6.824c2.398,0,4.148,1.422,4.521,4.105H194.291z"/>
		<path class="st3" d="M197.658,18.264V5.3h4.262c3.03,0,3.808,1.674,3.808,3.619c0,2.899-2.317,3.619-4.473,3.619h-2.496v5.726
			H197.658z M201.288,11.494c2.058,0,3.338-0.468,3.338-2.665c0-1.621-0.94-2.485-3.014-2.485h-2.852v5.149H201.288z"/>
	</g>
	<g>
		<path d="M225.004,39.086V26.123h7.762v1.044h-6.66v4.681h6.012v1.044h-6.012v5.149h6.822v1.044H225.004z"/>
		<path d="M236.004,27.779h-0.032v11.308h-1.102V26.123h1.248l6.741,11.325h0.033V26.123h1.102v12.964h-1.28L236.004,27.779z"/>
		<path d="M251.524,25.78c3.646,0,5.494,3.043,5.494,6.842c0,3.727-1.848,6.806-5.445,6.806c-3.598,0-5.429-3.079-5.429-6.806
			C246.128,28.841,248.04,25.78,251.524,25.78z M255.916,32.623c0-3.601-1.669-5.798-4.359-5.798c-2.998,0-4.311,2.791-4.311,5.798
			c0,3.061,1.296,5.762,4.343,5.762C254.619,38.384,255.916,35.647,255.916,32.623z"/>
	</g>
	<g>
	</g>
	<g>
	</g>
	<g>
	</g>
	<g>
	</g>
	<g>
	</g>
	<g>
	</g>
	<g>
	</g>
	<g>
	</g>
	<g>
	</g>
	<g>
	</g>
	<g>
	</g>
	<g>
	</g>
	<g>
	</g>
	<g>
	</g>
	<g>
	</g>
</g>
</svg>
