<?xml version="1.0" encoding="utf-8"?>
<!-- Generator: Adobe Illustrator 28.2.0, SVG Export Plug-In . SVG Version: 6.00 Build 0)  -->
<svg version="1.1" xmlns="http://www.w3.org/2000/svg" xmlns:xlink="http://www.w3.org/1999/xlink" x="0px" y="0px"
	 width="281.185px" height="136.96px" viewBox="0 0 281.185 136.96" style="enable-background:new 0 0 281.185 136.96;"
	 xml:space="preserve">
<style type="text/css">
	.st0{fill:#F0F0F0;stroke:#828282;stroke-miterlimit:10;}
	.st1{fill:none;stroke:#828282;stroke-miterlimit:10;}
	.st2{fill:#828282;}
	.st3{fill:#FFFFFF;}
</style>
<g id="レイヤー_2">
	<rect x="20.323" y="0.5" class="st0" width="240.539" height="135.96"/>
	<line class="st1" x1="0" y1="25.814" x2="20.323" y2="25.814"/>
	<line class="st1" x1="0" y1="25.814" x2="20.323" y2="25.814"/>
	<line class="st1" x1="260.862" y1="25.814" x2="281.185" y2="25.814"/>
	<rect x="20.323" y="0.5" class="st2" width="240.539" height="21"/>
</g>
<g id="レイヤー_3">
	<g>
		<path d="M25.121,39.028V26.064h7.762v1.044h-6.66v4.681h6.012v1.044h-6.012v5.149h6.822v1.044H25.121z"/>
		<path d="M36.121,27.72h-0.032v11.308h-1.102V26.064h1.248l6.741,11.325h0.033V26.064h1.102v12.964h-1.28L36.121,27.72z"/>
	</g>
	<g>
		<path d="M25.138,60.748h1.102v7.724c0,3.205,1.037,4.538,3.419,4.538c2.512,0,3.419-1.477,3.419-4.538v-7.724h1.102v8.084
			c0,3.367-1.507,5.222-4.521,5.222c-3.047,0-4.521-1.909-4.521-5.222V60.748z"/>
		<path d="M37.644,73.711h-0.973v-9.327h0.973v1.296c0.778-0.918,1.54-1.549,2.706-1.549c1.021,0,1.961,0.36,2.561,1.333
			c0.405,0.667,0.421,1.369,0.421,2.143v6.104H42.36v-6.086c0-1.674-0.616-2.521-2.171-2.521c-1.199,0-2.025,0.864-2.333,1.818
			c-0.194,0.594-0.21,1.116-0.21,1.765V73.711z"/>
		<path d="M45.777,62.35v-1.603h1.069v1.603H45.777z M45.825,73.711v-9.327h0.972v9.327H45.825z"/>
		<path d="M52.225,73.748c-0.227,0.054-0.648,0.216-1.118,0.216c-0.956,0-1.491-0.468-1.491-1.854v-6.824h-1.183v-0.9h1.183v-2.593
			h0.973v2.593h1.572v0.9h-1.572v6.392c0,0.918,0.032,1.314,0.842,1.314c0.259,0,0.535-0.054,0.794-0.126V73.748z"/>
	</g>
	<g>
		<path d="M25.575,112.081c0.179,2.323,1.572,3.169,3.354,3.169c2.09,0,2.966-1.26,2.966-2.683c0-4.016-7.114-1.351-7.114-6.446
			c0-1.8,1.345-3.475,3.954-3.475c2.625,0,3.938,1.765,3.921,3.872h-1.053c0-1.981-1.377-2.827-2.868-2.827
			c-2.236,0-3.046,1.53-2.852,2.863c0.502,3.349,7.114,0.937,7.114,5.96c0,2.376-1.572,3.781-4.262,3.781
			c-2.431,0-4.229-1.405-4.229-4.213H25.575z"/>
		<path d="M35.473,111.541c-0.016,2.017,0.957,3.691,2.82,3.691c1.264,0,2.252-0.774,2.544-2.143h1.086
			c-0.486,1.765-1.491,3.115-3.63,3.115c-2.69,0-3.857-2.125-3.857-4.879c0-2.719,1.458-4.952,3.857-4.952
			c2.301,0,3.711,1.819,3.695,5.168H35.473z M40.951,110.64c0-1.818-0.908-3.295-2.658-3.295c-1.718,0-2.625,1.53-2.82,3.295H40.951
			z"/>
		<path d="M46.83,115.988c-0.227,0.054-0.648,0.216-1.118,0.216c-0.956,0-1.491-0.468-1.491-1.854v-6.824h-1.183v-0.9h1.183v-2.593
			h0.973v2.593h1.572v0.9h-1.572v6.392c0,0.918,0.032,1.314,0.842,1.314c0.259,0,0.535-0.054,0.794-0.126V115.988z"/>
		<path d="M51.334,115.988c-0.227,0.054-0.648,0.216-1.118,0.216c-0.956,0-1.491-0.468-1.491-1.854v-6.824h-1.183v-0.9h1.183v-2.593
			h0.973v2.593h1.572v0.9h-1.572v6.392c0,0.918,0.032,1.314,0.842,1.314c0.259,0,0.535-0.054,0.794-0.126V115.988z"/>
		<path d="M52.985,104.59v-1.603h1.069v1.603H52.985z M53.034,115.952v-9.327h0.972v9.327H53.034z"/>
		<path d="M57.456,115.952h-0.972v-9.327h0.972v1.296c0.778-0.918,1.54-1.549,2.706-1.549c1.021,0,1.961,0.36,2.561,1.333
			c0.405,0.667,0.421,1.369,0.421,2.143v6.104h-0.973v-6.086c0-1.674-0.616-2.521-2.171-2.521c-1.199,0-2.025,0.864-2.333,1.818
			c-0.194,0.594-0.21,1.116-0.21,1.765V115.952z"/>
		<path d="M71.973,106.625h0.972v8.426c0,2.503-0.746,4.718-3.938,4.718c-2.463,0-3.484-1.567-3.549-2.683h1.037
			c0.292,1.404,1.361,1.71,2.512,1.71c2.658,0,3.014-2.196,2.966-4.339c-0.616,1.134-1.815,1.747-2.998,1.747
			c-2.561,0-3.743-2.323-3.743-4.934c0-2.754,1.085-4.897,3.792-4.897c1.07,0,2.35,0.667,2.917,1.891h0.033V106.625z
			 M69.138,107.345c-1.637,0-2.852,1.314-2.868,3.655c-0.081,2.341,0.858,4.231,2.868,4.231c1.766,0,2.836-1.8,2.836-3.907
			C71.973,109.074,70.969,107.345,69.138,107.345z"/>
	</g>
	<g>
		<path class="st3" d="M107.27,5.3h1.102v7.724c0,3.205,1.037,4.538,3.419,4.538c2.512,0,3.419-1.477,3.419-4.538V5.3h1.102v8.084
			c0,3.367-1.507,5.222-4.521,5.222c-3.047,0-4.521-1.909-4.521-5.222V5.3z"/>
		<path class="st3" d="M125.74,19.614v0.9h-8.103v-0.9H125.74z"/>
		<path class="st3" d="M127.002,18.264V5.3h1.685l3.824,11.434h0.033L136.303,5.3h1.669v12.964h-1.102V6.704h-0.033l-3.824,11.56
			h-1.037l-3.84-11.56h-0.033v11.56H127.002z"/>
		<path class="st3" d="M140.966,15.347c0.308,1.603,1.053,2.197,2.512,2.197c1.41,0,2.074-0.828,2.074-1.729
			c0-2.701-5.38-0.792-5.38-4.465c0-1.548,1.085-2.665,2.949-2.665c1.815,0,2.998,0.829,3.241,2.935h-0.989
			c-0.178-1.44-1.053-1.962-2.269-1.962c-1.231,0-1.896,0.648-1.896,1.603c0,2.539,5.38,0.954,5.38,4.537
			c0,1.783-1.442,2.719-3.419,2.719c-1.977,0-3.111-1.404-3.192-3.169H140.966z"/>
		<path class="st3" d="M154.981,8.937h0.973v8.426c0,2.503-0.746,4.718-3.938,4.718c-2.463,0-3.484-1.567-3.549-2.683h1.037
			c0.292,1.404,1.361,1.71,2.512,1.71c2.658,0,3.014-2.196,2.965-4.339c-0.616,1.134-1.814,1.747-2.998,1.747
			c-2.561,0-3.744-2.323-3.744-4.934c0-2.754,1.086-4.897,3.792-4.897c1.07,0,2.35,0.667,2.917,1.891h0.032V8.937z M152.145,9.657
			c-1.637,0-2.852,1.314-2.869,3.655c-0.081,2.341,0.859,4.231,2.869,4.231c1.766,0,2.835-1.8,2.835-3.907
			C154.981,11.386,153.976,9.657,152.145,9.657z"/>
		<path class="st3" d="M157.49,5.3h8.491v1.044h-3.694v11.919h-1.102V6.344h-3.695V5.3z"/>
		<path class="st3" d="M166.853,13.6c0-2.719,1.296-4.916,3.889-4.916c2.625,0,3.889,2.179,3.889,4.916
			c0,2.953-1.54,4.916-3.889,4.916C168.603,18.479,166.853,16.859,166.853,13.6z M170.743,9.657c-2.042,0-2.852,1.926-2.852,3.943
			c0,2.323,0.989,3.943,2.852,3.943c2.042,0,2.852-1.945,2.852-3.943C173.578,11.404,172.801,9.657,170.743,9.657z"/>
	</g>
	<g>
		<path d="M225.004,39.086V26.123h7.762v1.044h-6.66v4.681h6.012v1.044h-6.012v5.149h6.822v1.044H225.004z"/>
		<path d="M236.004,27.779h-0.032v11.308h-1.102V26.123h1.248l6.741,11.325h0.033V26.123h1.102v12.964h-1.28L236.004,27.779z"/>
		<path d="M251.524,25.78c3.646,0,5.494,3.043,5.494,6.842c0,3.727-1.848,6.806-5.445,6.806c-3.598,0-5.429-3.079-5.429-6.806
			C246.128,28.841,248.04,25.78,251.524,25.78z M255.916,32.623c0-3.601-1.669-5.798-4.359-5.798c-2.998,0-4.311,2.791-4.311,5.798
			c0,3.061,1.296,5.762,4.343,5.762C254.619,38.384,255.916,35.647,255.916,32.623z"/>
	</g>
	<g>
	</g>
	<g>
	</g>
	<g>
	</g>
	<g>
	</g>
	<g>
	</g>
	<g>
	</g>
	<g>
	</g>
	<g>
	</g>
	<g>
	</g>
	<g>
	</g>
	<g>
	</g>
	<g>
	</g>
	<g>
	</g>
	<g>
	</g>
	<g>
	</g>
</g>
</svg>
