<?xml version="1.0" encoding="utf-8"?>
<!-- Generator: Adobe Illustrator 28.2.0, SVG Export Plug-In . SVG Version: 6.00 Build 0)  -->
<svg version="1.1" xmlns="http://www.w3.org/2000/svg" xmlns:xlink="http://www.w3.org/1999/xlink" x="0px" y="0px"
	 width="281.185px" height="221.217px" viewBox="0 0 281.185 221.217" style="enable-background:new 0 0 281.185 221.217;"
	 xml:space="preserve">
<style type="text/css">
	.st0{fill:#F0F0F0;stroke:#828282;stroke-miterlimit:10;}
	.st1{fill:none;stroke:#828282;stroke-miterlimit:10;}
	.st2{fill:#828282;}
	.st3{fill:#FFFFFF;}
</style>
<g id="レイヤー_2">
	<rect x="20.323" y="0.5" class="st0" width="240.539" height="220.217"/>
	<line class="st1" x1="0" y1="25.814" x2="20.323" y2="25.814"/>
	<line class="st1" x1="0" y1="25.814" x2="20.323" y2="25.814"/>
	<line class="st1" x1="260.862" y1="25.814" x2="281.185" y2="25.814"/>
	<rect x="20.323" y="0.5" class="st2" width="240.539" height="21"/>
	<line class="st1" x1="51.038" y1="152.971" x2="231.896" y2="152.971"/>
</g>
<g id="レイヤー_3">
	<g>
		<path d="M25.121,39.028V26.064h7.762v1.044h-6.66v4.681h6.012v1.044h-6.012v5.149h6.822v1.044H25.121z"/>
		<path d="M36.121,27.72h-0.032v11.308h-1.102V26.064h1.248l6.741,11.325h0.033V26.064h1.102v12.964h-1.28L36.121,27.72z"/>
	</g>
	<g>
		<path d="M25.138,60.748h1.102v7.724c0,3.205,1.037,4.538,3.419,4.538c2.512,0,3.419-1.477,3.419-4.538v-7.724h1.102v8.084
			c0,3.367-1.507,5.222-4.521,5.222c-3.047,0-4.521-1.909-4.521-5.222V60.748z"/>
		<path d="M37.644,73.711h-0.973v-9.327h0.973v1.296c0.778-0.918,1.54-1.549,2.706-1.549c1.021,0,1.961,0.36,2.561,1.333
			c0.405,0.667,0.421,1.369,0.421,2.143v6.104H42.36v-6.086c0-1.674-0.616-2.521-2.171-2.521c-1.199,0-2.025,0.864-2.333,1.818
			c-0.194,0.594-0.21,1.116-0.21,1.765V73.711z"/>
		<path d="M45.777,62.35v-1.603h1.069v1.603H45.777z M45.825,73.711v-9.327h0.972v9.327H45.825z"/>
		<path d="M52.225,73.748c-0.227,0.054-0.648,0.216-1.118,0.216c-0.956,0-1.491-0.468-1.491-1.854v-6.824h-1.183v-0.9h1.183v-2.593
			h0.973v2.593h1.572v0.9h-1.572v6.392c0,0.918,0.032,1.314,0.842,1.314c0.259,0,0.535-0.054,0.794-0.126V73.748z"/>
	</g>
	<g>
		<path d="M25.121,115.952v-12.964h4.213c2.739,0,3.824,1.314,3.824,3.259c0,1.801-0.924,2.611-1.863,2.791v0.036
			c1.604,0.27,2.398,1.512,2.398,3.223c0,2.701-1.588,3.655-3.808,3.655H25.121z M26.223,108.713h2.787
			c2.301,0,3.046-0.9,3.046-2.467c0-1.62-0.875-2.214-3.29-2.214h-2.544V108.713z M26.223,114.907h2.803
			c2.431,0,3.565-0.36,3.565-2.611c0-2.143-1.361-2.539-3.436-2.539h-2.933V114.907z"/>
		<path d="M41.469,106.625h0.973v9.327h-0.973v-1.296c-0.519,0.648-1.231,1.548-2.706,1.548c-2.236,0-2.981-1.494-2.981-3.439v-6.14
			h0.972v6.122c0,1.603,0.632,2.485,2.155,2.485c1.604,0,2.56-1.477,2.56-3.529V106.625z"/>
		<path d="M43.946,107.525v-0.9h1.248v-1.477c0-1.477,0.486-2.413,1.783-2.413c0.292,0,0.551,0.018,0.81,0.072v0.99
			c-0.194-0.054-0.405-0.09-0.583-0.09c-1.004,0-1.037,0.918-1.037,1.765v1.152h1.621v0.9h-1.621v8.427h-0.972v-8.427H43.946z"/>
		<path d="M50.134,115.952h-0.972v-9.327h0.972v1.404h0.033c0.502-1.062,1.507-1.657,2.593-1.657c1.556,0,2.106,0.811,2.463,1.801
			c0.551-1.207,1.54-1.801,2.739-1.801c2.285,0,2.609,1.819,2.609,3.691v5.888h-0.972v-6.446c0-1.333-0.421-2.161-1.799-2.161
			c-0.713,0-1.41,0.342-1.896,1.062c-0.421,0.612-0.551,1.747-0.551,2.521v5.023H54.38v-6.446c0-1.333-0.421-2.161-1.798-2.161
			c-0.713,0-1.41,0.342-1.896,1.062c-0.421,0.612-0.551,1.747-0.551,2.521V115.952z"/>
		<path d="M63.386,111.541c-0.016,2.017,0.956,3.691,2.82,3.691c1.264,0,2.252-0.774,2.544-2.143h1.085
			c-0.486,1.765-1.491,3.115-3.63,3.115c-2.69,0-3.857-2.125-3.857-4.879c0-2.719,1.458-4.952,3.857-4.952
			c2.301,0,3.711,1.819,3.695,5.168H63.386z M68.863,110.64c0-1.818-0.908-3.295-2.658-3.295c-1.718,0-2.625,1.53-2.82,3.295H68.863
			z"/>
		<path d="M72.636,115.952h-0.972v-9.327h0.972v1.404h0.033c0.502-1.062,1.507-1.657,2.593-1.657c1.556,0,2.106,0.811,2.463,1.801
			c0.551-1.207,1.54-1.801,2.739-1.801c2.285,0,2.609,1.819,2.609,3.691v5.888H82.1v-6.446c0-1.333-0.421-2.161-1.799-2.161
			c-0.713,0-1.41,0.342-1.896,1.062c-0.421,0.612-0.551,1.747-0.551,2.521v5.023h-0.973v-6.446c0-1.333-0.421-2.161-1.798-2.161
			c-0.713,0-1.41,0.342-1.896,1.062c-0.421,0.612-0.551,1.747-0.551,2.521V115.952z"/>
		<path d="M84.365,115.952l4.586-12.964h1.248l4.473,12.964h-1.134l-1.345-4.069h-5.315l-1.377,4.069H84.365z M87.249,110.838h4.57
			l-2.285-6.806L87.249,110.838z"/>
		<path d="M102.575,102.988h0.973v12.964h-0.973v-1.639h-0.032c-0.567,1.225-1.847,1.891-2.917,1.891
			c-2.706,0-3.792-2.143-3.792-4.897c0-2.611,1.183-4.934,3.744-4.934c1.183,0,2.382,0.612,2.998,1.747V102.988z M99.74,107.345
			c-2.01,0-2.949,1.891-2.869,4.231c0.017,2.341,1.232,3.655,2.869,3.655c1.831,0,2.835-1.729,2.835-3.979
			C102.575,109.146,101.506,107.345,99.74,107.345z"/>
		<path d="M112.473,102.988h0.972v12.964h-0.972v-1.639h-0.033c-0.567,1.225-1.847,1.891-2.917,1.891
			c-2.706,0-3.792-2.143-3.792-4.897c0-2.611,1.183-4.934,3.743-4.934c1.183,0,2.382,0.612,2.998,1.747V102.988z M109.638,107.345
			c-2.01,0-2.949,1.891-2.868,4.231c0.016,2.341,1.231,3.655,2.868,3.655c1.831,0,2.836-1.729,2.836-3.979
			C112.473,109.146,111.404,107.345,109.638,107.345z"/>
		<path d="M116.91,115.952h-0.972v-9.327h0.972v1.747h0.033c0.535-1.495,1.329-1.999,2.738-1.999v1.17
			c-2.188-0.054-2.771,1.747-2.771,3.835V115.952z"/>
		<path d="M121.883,111.541c-0.016,2.017,0.957,3.691,2.82,3.691c1.264,0,2.252-0.774,2.544-2.143h1.086
			c-0.486,1.765-1.491,3.115-3.63,3.115c-2.69,0-3.857-2.125-3.857-4.879c0-2.719,1.458-4.952,3.857-4.952
			c2.301,0,3.711,1.819,3.695,5.168H121.883z M127.361,110.64c0-1.818-0.908-3.295-2.658-3.295c-1.718,0-2.625,1.53-2.82,3.295
			H127.361z"/>
		<path d="M130.858,113.035c0.308,1.603,1.053,2.197,2.512,2.197c1.41,0,2.074-0.828,2.074-1.729c0-2.701-5.38-0.792-5.38-4.465
			c0-1.548,1.085-2.665,2.949-2.665c1.815,0,2.998,0.829,3.241,2.935h-0.989c-0.178-1.44-1.053-1.962-2.269-1.962
			c-1.231,0-1.896,0.648-1.896,1.603c0,2.539,5.38,0.954,5.38,4.537c0,1.783-1.442,2.719-3.419,2.719
			c-1.977,0-3.111-1.404-3.192-3.169H130.858z"/>
		<path d="M138.958,113.035c0.308,1.603,1.053,2.197,2.512,2.197c1.41,0,2.074-0.828,2.074-1.729c0-2.701-5.38-0.792-5.38-4.465
			c0-1.548,1.085-2.665,2.949-2.665c1.815,0,2.998,0.829,3.241,2.935h-0.988c-0.178-1.44-1.053-1.962-2.269-1.962
			c-1.231,0-1.896,0.648-1.896,1.603c0,2.539,5.38,0.954,5.38,4.537c0,1.783-1.442,2.719-3.419,2.719
			c-1.977,0-3.111-1.404-3.192-3.169H138.958z"/>
	</g>
	<g>
		<path d="M25.121,157.922v-12.963h3.986c1.296,0,2.512,0.09,3.598,0.972c1.54,1.243,1.944,3.763,1.944,5.492
			c0,1.71-0.34,3.619-1.41,4.916c-1.069,1.332-2.593,1.584-4.132,1.584H25.121z M26.223,156.878h2.642
			c0.988,0,1.847-0.072,2.738-0.595c1.556-0.882,1.945-3.096,1.945-4.861c0-1.891-0.373-3.961-2.01-4.934
			c-0.697-0.414-1.701-0.486-2.673-0.486h-2.642V156.878z"/>
		<path d="M37.239,155.005c0.308,1.603,1.053,2.197,2.512,2.197c1.41,0,2.074-0.828,2.074-1.729c0-2.701-5.38-0.793-5.38-4.465
			c0-1.548,1.085-2.665,2.949-2.665c1.815,0,2.998,0.829,3.241,2.935h-0.989c-0.178-1.44-1.053-1.962-2.269-1.962
			c-1.231,0-1.896,0.648-1.896,1.603c0,2.539,5.38,0.954,5.38,4.537c0,1.783-1.442,2.719-3.419,2.719
			c-1.977,0-3.111-1.404-3.192-3.169H37.239z"/>
		<path d="M47.722,157.958c-0.227,0.054-0.648,0.216-1.118,0.216c-0.956,0-1.491-0.468-1.491-1.854v-6.824H43.93v-0.9h1.183v-2.593
			h0.973v2.593h1.572v0.9h-1.572v6.392c0,0.918,0.032,1.314,0.842,1.314c0.259,0,0.535-0.055,0.794-0.126V157.958z"/>
	</g>
	<g>
		<path d="M34.277,198.399h0.032l2.544-11.235h1.134l-3.062,12.964H33.71l-2.707-11.451h-0.032l-2.706,11.451H27.05l-3.014-12.964
			h1.102l2.512,11.235h0.033l2.706-11.235h1.231L34.277,198.399z"/>
		<path d="M38.827,195.464c0-2.719,1.296-4.915,3.889-4.915c2.625,0,3.889,2.179,3.889,4.915c0,2.953-1.54,4.916-3.889,4.916
			C40.577,200.344,38.827,198.724,38.827,195.464z M42.716,191.521c-2.042,0-2.852,1.926-2.852,3.942
			c0,2.323,0.989,3.943,2.852,3.943c2.042,0,2.852-1.944,2.852-3.943C45.552,193.268,44.774,191.521,42.716,191.521z"/>
		<path d="M49.406,200.128h-0.972v-9.327h0.972v1.747h0.033c0.535-1.495,1.329-1.999,2.738-1.999v1.17
			c-2.188-0.054-2.771,1.747-2.771,3.836V200.128z"/>
		<path d="M60.262,187.164h0.972v12.964h-0.972v-1.639h-0.033c-0.567,1.225-1.847,1.891-2.917,1.891
			c-2.706,0-3.792-2.143-3.792-4.897c0-2.611,1.183-4.934,3.743-4.934c1.183,0,2.382,0.612,2.998,1.746V187.164z M57.426,191.521
			c-2.01,0-2.949,1.891-2.868,4.23c0.016,2.341,1.231,3.655,2.868,3.655c1.831,0,2.836-1.729,2.836-3.979
			C60.262,193.321,59.192,191.521,57.426,191.521z"/>
		<path d="M64.244,197.211c0.308,1.603,1.053,2.196,2.512,2.196c1.41,0,2.074-0.828,2.074-1.729c0-2.7-5.38-0.792-5.38-4.465
			c0-1.549,1.085-2.665,2.949-2.665c1.815,0,2.998,0.828,3.241,2.935h-0.988c-0.178-1.44-1.053-1.962-2.269-1.962
			c-1.231,0-1.896,0.647-1.896,1.603c0,2.538,5.38,0.954,5.38,4.537c0,1.782-1.442,2.719-3.419,2.719
			c-1.977,0-3.111-1.404-3.192-3.169H64.244z"/>
		<path d="M71.875,188.767v-1.603h1.069v1.603H71.875z M71.923,200.128v-9.327h0.972v9.327H71.923z"/>
		<path d="M74.742,200.128v-0.954l5.575-7.473h-5.202v-0.9h6.45v0.954l-5.574,7.473h5.785v0.9H74.742z"/>
		<path d="M84.073,195.717c-0.016,2.017,0.956,3.69,2.82,3.69c1.264,0,2.252-0.774,2.544-2.143h1.085
			c-0.486,1.765-1.491,3.115-3.63,3.115c-2.69,0-3.857-2.125-3.857-4.88c0-2.719,1.458-4.951,3.857-4.951
			c2.301,0,3.711,1.818,3.695,5.168H84.073z M89.551,194.816c0-1.818-0.908-3.295-2.658-3.295c-1.718,0-2.625,1.53-2.82,3.295
			H89.551z"/>
	</g>
	<g>
		<path class="st3" d="M57.747,5.3h1.102v7.724c0,3.205,1.037,4.538,3.419,4.538c2.512,0,3.419-1.477,3.419-4.538V5.3h1.102v8.084
			c0,3.367-1.507,5.222-4.521,5.222c-3.047,0-4.521-1.909-4.521-5.222V5.3z"/>
		<path class="st3" d="M70.254,18.264h-0.972V8.937h0.972v1.296c0.778-0.918,1.54-1.549,2.706-1.549c1.021,0,1.961,0.36,2.561,1.333
			c0.405,0.667,0.421,1.369,0.421,2.143v6.104h-0.973v-6.086c0-1.674-0.616-2.521-2.171-2.521c-1.199,0-2.025,0.864-2.333,1.818
			c-0.194,0.594-0.21,1.116-0.21,1.765V18.264z"/>
		<path class="st3" d="M78.386,6.902V5.3h1.069v1.603H78.386z M78.434,18.264V8.937h0.972v9.327H78.434z"/>
		<path class="st3" d="M84.834,18.3c-0.227,0.054-0.648,0.216-1.118,0.216c-0.956,0-1.491-0.468-1.491-1.854V9.837h-1.183v-0.9
			h1.183V6.344h0.973v2.593h1.572v0.9h-1.572v6.392c0,0.918,0.032,1.314,0.842,1.314c0.259,0,0.535-0.054,0.794-0.126V18.3z"/>
		<path class="st3" d="M86.534,18.264V5.3h4.213c2.739,0,3.824,1.314,3.824,3.259c0,1.801-0.924,2.611-1.863,2.791v0.036
			c1.604,0.27,2.398,1.512,2.398,3.223c0,2.701-1.588,3.655-3.808,3.655H86.534z M87.636,11.025h2.787
			c2.301,0,3.046-0.9,3.046-2.467c0-1.62-0.875-2.214-3.29-2.214h-2.544V11.025z M87.636,17.219h2.803
			c2.431,0,3.565-0.36,3.565-2.611c0-2.143-1.361-2.539-3.436-2.539h-2.933V17.219z"/>
		<path class="st3" d="M102.881,8.937h0.973v9.327h-0.973v-1.296c-0.519,0.648-1.231,1.548-2.706,1.548
			c-2.236,0-2.981-1.494-2.981-3.439v-6.14h0.972v6.122c0,1.603,0.632,2.485,2.155,2.485c1.604,0,2.56-1.477,2.56-3.529V8.937z"/>
		<path class="st3" d="M105.358,9.837v-0.9h1.248V7.46c0-1.477,0.486-2.413,1.783-2.413c0.292,0,0.551,0.018,0.81,0.072v0.99
			c-0.194-0.054-0.405-0.09-0.583-0.09c-1.004,0-1.037,0.918-1.037,1.765v1.152h1.621v0.9h-1.621v8.427h-0.972V9.837H105.358z"/>
		<path class="st3" d="M111.547,18.264h-0.972V8.937h0.972v1.404h0.033c0.502-1.062,1.507-1.657,2.593-1.657
			c1.556,0,2.106,0.811,2.463,1.801c0.551-1.207,1.54-1.801,2.739-1.801c2.285,0,2.609,1.819,2.609,3.691v5.888h-0.972v-6.446
			c0-1.333-0.421-2.161-1.799-2.161c-0.713,0-1.41,0.342-1.896,1.062c-0.421,0.612-0.551,1.747-0.551,2.521v5.023h-0.973v-6.446
			c0-1.333-0.421-2.161-1.798-2.161c-0.713,0-1.41,0.342-1.896,1.062c-0.421,0.612-0.551,1.747-0.551,2.521V18.264z"/>
		<path class="st3" d="M124.798,13.853c-0.016,2.017,0.956,3.691,2.82,3.691c1.264,0,2.252-0.774,2.544-2.143h1.085
			c-0.486,1.765-1.491,3.115-3.63,3.115c-2.69,0-3.857-2.125-3.857-4.879c0-2.719,1.458-4.952,3.857-4.952
			c2.301,0,3.711,1.819,3.695,5.168H124.798z M130.276,12.952c0-1.818-0.908-3.295-2.658-3.295c-1.718,0-2.625,1.53-2.82,3.295
			H130.276z"/>
		<path class="st3" d="M134.049,18.264h-0.972V8.937h0.972v1.404h0.033c0.502-1.062,1.507-1.657,2.593-1.657
			c1.556,0,2.106,0.811,2.463,1.801c0.551-1.207,1.54-1.801,2.739-1.801c2.285,0,2.609,1.819,2.609,3.691v5.888h-0.972v-6.446
			c0-1.333-0.421-2.161-1.799-2.161c-0.713,0-1.41,0.342-1.896,1.062c-0.421,0.612-0.551,1.747-0.551,2.521v5.023h-0.973v-6.446
			c0-1.333-0.421-2.161-1.798-2.161c-0.713,0-1.41,0.342-1.896,1.062c-0.421,0.612-0.551,1.747-0.551,2.521V18.264z"/>
		<path class="st3" d="M146.847,18.264V5.3h4.213c2.739,0,3.824,1.314,3.824,3.259c0,1.801-0.924,2.611-1.863,2.791v0.036
			c1.604,0.27,2.398,1.512,2.398,3.223c0,2.701-1.588,3.655-3.808,3.655H146.847z M147.949,11.025h2.787
			c2.301,0,3.046-0.9,3.046-2.467c0-1.62-0.875-2.214-3.29-2.214h-2.544V11.025z M147.949,17.219h2.803
			c2.431,0,3.565-0.36,3.565-2.611c0-2.143-1.361-2.539-3.436-2.539h-2.933V17.219z"/>
		<path class="st3" d="M157.652,18.264V5.3h0.972v12.964H157.652z"/>
		<path class="st3" d="M160.551,13.6c0-2.719,1.296-4.916,3.889-4.916c2.625,0,3.889,2.179,3.889,4.916
			c0,2.953-1.54,4.916-3.889,4.916C162.301,18.479,160.551,16.859,160.551,13.6z M164.44,9.657c-2.042,0-2.852,1.926-2.852,3.943
			c0,2.323,0.989,3.943,2.852,3.943c2.042,0,2.852-1.945,2.852-3.943C167.276,11.404,166.498,9.657,164.44,9.657z"/>
		<path class="st3" d="M176.056,11.872c-0.34-1.386-1.199-2.214-2.496-2.214c-1.993,0-2.819,2.017-2.819,3.961
			c0,1.963,0.81,3.925,2.819,3.925c1.442,0,2.35-0.954,2.577-2.503h1.037c-0.34,2.071-1.507,3.475-3.614,3.475
			c-2.674,0-3.856-2.143-3.856-4.897c0-2.593,1.345-4.934,3.856-4.934c1.929,0,3.192,1.026,3.484,3.187H176.056z"/>
		<path class="st3" d="M179.052,18.264V5.3h0.972v8.066l4.116-4.429h1.329l-3.144,3.367l3.516,5.96h-1.085l-3.144-5.204
			l-1.588,1.674v3.529H179.052z"/>
		<path class="st3" d="M188.449,12.376v5.888h-1.102V5.3h4.57c2.561,0,3.97,1.008,3.97,3.403c0,1.639-0.551,2.503-1.896,3.169
			c1.377,0.522,1.458,2.143,1.491,3.511c0.049,1.962,0.194,2.503,0.486,2.755v0.126h-1.215c-0.454-0.882-0.34-3.313-0.519-4.303
			c-0.259-1.404-1.215-1.584-2.317-1.584H188.449z M191.884,11.332c1.636,0,2.9-0.756,2.9-2.575c0-1.944-1.361-2.413-2.836-2.413
			h-3.5v4.987H191.884z"/>
		<path class="st3" d="M198.621,13.853c-0.016,2.017,0.956,3.691,2.82,3.691c1.264,0,2.252-0.774,2.544-2.143h1.085
			c-0.486,1.765-1.491,3.115-3.63,3.115c-2.69,0-3.857-2.125-3.857-4.879c0-2.719,1.458-4.952,3.857-4.952
			c2.301,0,3.711,1.819,3.695,5.168H198.621z M204.099,12.952c0-1.818-0.908-3.295-2.658-3.295c-1.718,0-2.625,1.53-2.82,3.295
			H204.099z"/>
		<path class="st3" d="M210.886,12.826c0.356-0.036,0.956-0.144,1.28-0.306s0.356-0.648,0.356-0.972c0-1.099-0.583-1.891-2.09-1.891
			c-1.345,0-2.269,0.486-2.447,2.106h-0.989c0.146-2.197,1.621-3.079,3.452-3.079c1.702,0,3.046,0.738,3.046,2.899v5.078
			c0,0.846,0.195,1.044,1.021,0.72v0.846c-0.146,0.054-0.486,0.18-0.762,0.18c-0.162,0-0.292-0.018-0.438-0.054
			c-0.648-0.108-0.762-0.738-0.778-1.386c-0.81,1.008-1.912,1.548-3.127,1.548c-1.475,0-2.803-0.882-2.803-2.683
			c0-1.566,0.972-2.521,2.933-2.809L210.886,12.826z M212.523,13.366c-0.826,0.378-1.669,0.45-2.512,0.522
			c-1.475,0.126-2.366,0.72-2.366,1.981c0,1.134,0.891,1.674,1.815,1.674c1.539,0,3.062-0.828,3.062-2.719V13.366z"/>
		<path class="st3" d="M222.519,5.3h0.972v12.964h-0.972v-1.639h-0.033c-0.567,1.225-1.847,1.891-2.917,1.891
			c-2.706,0-3.792-2.143-3.792-4.897c0-2.611,1.183-4.934,3.743-4.934c1.183,0,2.382,0.612,2.998,1.747V5.3z M219.683,9.657
			c-2.01,0-2.949,1.891-2.868,4.231c0.016,2.341,1.231,3.655,2.868,3.655c1.831,0,2.836-1.729,2.836-3.979
			C222.519,11.458,221.449,9.657,219.683,9.657z"/>
	</g>
	<g>
		<path d="M225.004,39.086V26.123h7.762v1.044h-6.66v4.681h6.012v1.044h-6.012v5.149h6.822v1.044H225.004z"/>
		<path d="M236.004,27.779h-0.032v11.308h-1.102V26.123h1.248l6.741,11.325h0.033V26.123h1.102v12.964h-1.28L236.004,27.779z"/>
		<path d="M251.524,25.78c3.646,0,5.494,3.043,5.494,6.842c0,3.727-1.848,6.806-5.445,6.806c-3.598,0-5.429-3.079-5.429-6.806
			C246.128,28.841,248.04,25.78,251.524,25.78z M255.916,32.623c0-3.601-1.669-5.798-4.359-5.798c-2.998,0-4.311,2.791-4.311,5.798
			c0,3.061,1.296,5.762,4.343,5.762C254.619,38.384,255.916,35.647,255.916,32.623z"/>
	</g>
	<g>
		<path d="M234.902,157.922v-12.964h3.986c1.296,0,2.512,0.09,3.598,0.972c1.54,1.243,1.944,3.763,1.944,5.492
			c0,1.71-0.34,3.619-1.41,4.915c-1.069,1.333-2.593,1.585-4.132,1.585H234.902z M236.004,156.877h2.642
			c0.988,0,1.847-0.071,2.738-0.594c1.556-0.882,1.945-3.097,1.945-4.861c0-1.891-0.373-3.961-2.01-4.934
			c-0.697-0.414-1.701-0.486-2.673-0.486h-2.642V156.877z"/>
		<path d="M247.019,155.005c0.308,1.603,1.053,2.196,2.512,2.196c1.41,0,2.074-0.828,2.074-1.729c0-2.7-5.38-0.792-5.38-4.465
			c0-1.548,1.085-2.665,2.949-2.665c1.815,0,2.998,0.829,3.241,2.935h-0.989c-0.178-1.44-1.053-1.962-2.269-1.962
			c-1.231,0-1.896,0.648-1.896,1.603c0,2.539,5.38,0.954,5.38,4.537c0,1.782-1.442,2.719-3.419,2.719
			c-1.977,0-3.111-1.404-3.192-3.169H247.019z"/>
		<path d="M257.502,157.958c-0.227,0.054-0.648,0.216-1.118,0.216c-0.956,0-1.491-0.468-1.491-1.854v-6.824h-1.183v-0.9h1.183
			v-2.593h0.973v2.593h1.572v0.9h-1.572v6.392c0,0.919,0.032,1.314,0.842,1.314c0.259,0,0.535-0.054,0.794-0.126V157.958z"/>
	</g>
	<g>
	</g>
	<g>
	</g>
	<g>
	</g>
	<g>
	</g>
	<g>
	</g>
	<g>
	</g>
	<g>
	</g>
	<g>
	</g>
	<g>
	</g>
	<g>
	</g>
	<g>
	</g>
	<g>
	</g>
	<g>
	</g>
	<g>
	</g>
	<g>
	</g>
</g>
</svg>
