<?xml version="1.0" encoding="utf-8"?>
<!-- Generator: Adobe Illustrator 28.2.0, SVG Export Plug-In . SVG Version: 6.00 Build 0)  -->
<svg version="1.1" xmlns="http://www.w3.org/2000/svg" xmlns:xlink="http://www.w3.org/1999/xlink" x="0px" y="0px"
	 width="281.185px" height="136.96px" viewBox="0 0 281.185 136.96" style="enable-background:new 0 0 281.185 136.96;"
	 xml:space="preserve">
<style type="text/css">
	.st0{fill:#F0F0F0;stroke:#828282;stroke-miterlimit:10;}
	.st1{fill:none;stroke:#828282;stroke-miterlimit:10;}
	.st2{fill:#828282;}
	.st3{fill:#FFFFFF;}
</style>
<g id="レイヤー_2">
	<rect x="20.323" y="0.5" class="st0" width="240.539" height="135.96"/>
	<line class="st1" x1="0" y1="25.814" x2="20.323" y2="25.814"/>
	<line class="st1" x1="0" y1="25.814" x2="20.323" y2="25.814"/>
	<line class="st1" x1="260.862" y1="25.814" x2="281.185" y2="25.814"/>
	<rect x="20.323" y="0.5" class="st2" width="240.539" height="21"/>
</g>
<g id="レイヤー_3">
	<g>
		<path d="M25.121,39.028V26.064h7.762v1.044h-6.66v4.681h6.012v1.044h-6.012v5.149h6.822v1.044H25.121z"/>
		<path d="M36.121,27.72h-0.032v11.308h-1.102V26.064h1.248l6.741,11.325h0.033V26.064h1.102v12.964h-1.28L36.121,27.72z"/>
	</g>
	<g>
		<path d="M25.138,60.748h1.102v7.724c0,3.205,1.037,4.538,3.419,4.538c2.512,0,3.419-1.477,3.419-4.538v-7.724h1.102v8.084
			c0,3.367-1.507,5.222-4.521,5.222c-3.047,0-4.521-1.909-4.521-5.222V60.748z"/>
		<path d="M37.644,73.711h-0.973v-9.327h0.973v1.296c0.778-0.918,1.54-1.549,2.706-1.549c1.021,0,1.961,0.36,2.561,1.333
			c0.405,0.667,0.421,1.369,0.421,2.143v6.104H42.36v-6.086c0-1.674-0.616-2.521-2.171-2.521c-1.199,0-2.025,0.864-2.333,1.818
			c-0.194,0.594-0.21,1.116-0.21,1.765V73.711z"/>
		<path d="M45.777,62.35v-1.603h1.069v1.603H45.777z M45.825,73.711v-9.327h0.972v9.327H45.825z"/>
		<path d="M52.225,73.748c-0.227,0.054-0.648,0.216-1.118,0.216c-0.956,0-1.491-0.468-1.491-1.854v-6.824h-1.183v-0.9h1.183v-2.593
			h0.973v2.593h1.572v0.9h-1.572v6.392c0,0.918,0.032,1.314,0.842,1.314c0.259,0,0.535-0.054,0.794-0.126V73.748z"/>
	</g>
	<g>
		<path d="M25.511,115.952v-12.964h1.102v12.964H25.511z"/>
		<path d="M30.452,115.952h-0.972v-9.327h0.972v1.296c0.778-0.918,1.54-1.549,2.706-1.549c1.021,0,1.961,0.36,2.561,1.333
			c0.405,0.667,0.421,1.369,0.421,2.143v6.104h-0.973v-6.086c0-1.674-0.616-2.521-2.171-2.521c-1.199,0-2.025,0.864-2.333,1.818
			c-0.194,0.594-0.21,1.116-0.21,1.765V115.952z"/>
	</g>
	<g>
		<path class="st3" d="M92.868,5.3h1.102v7.724c0,3.205,1.037,4.538,3.419,4.538c2.512,0,3.419-1.477,3.419-4.538V5.3h1.102v8.084
			c0,3.367-1.507,5.222-4.521,5.222c-3.047,0-4.521-1.909-4.521-5.222V5.3z"/>
		<path class="st3" d="M111.339,19.614v0.9h-8.103v-0.9H111.339z"/>
		<path class="st3" d="M120.93,9.063c-0.454-2.215-1.685-3.061-3.679-3.061c-2.819,0-4.035,2.683-4.035,5.744
			c0,2.899,0.956,5.816,4.132,5.816c2.009,0,3.257-1.513,3.694-3.565h1.151c-0.519,2.502-1.929,4.609-5.056,4.609
			c-3.597,0-5.023-3.151-5.023-6.824c0-4.952,2.333-6.824,5.429-6.824c2.398,0,4.148,1.422,4.521,4.105H120.93z"/>
		<path class="st3" d="M124.135,20.802c0.259,0.054,0.535,0.108,0.81,0.108c1.102,0,1.264-1.765,1.637-2.575l-3.257-9.399h1.086
			l2.69,8.012l2.69-8.012h1.053l-3.127,9.201c-0.794,2.341-1.312,3.799-2.658,3.799c-0.34,0-0.664-0.054-0.923-0.126V20.802z"/>
		<path class="st3" d="M138.246,11.872c-0.34-1.386-1.199-2.214-2.496-2.214c-1.993,0-2.819,2.017-2.819,3.961
			c0,1.963,0.81,3.925,2.819,3.925c1.442,0,2.35-0.954,2.577-2.503h1.037c-0.34,2.071-1.507,3.475-3.614,3.475
			c-2.673,0-3.856-2.143-3.856-4.897c0-2.593,1.345-4.934,3.856-4.934c1.929,0,3.192,1.026,3.484,3.187H138.246z"/>
		<path class="st3" d="M141.452,18.264V5.3h0.972v12.964H141.452z"/>
		<path class="st3" d="M145,6.902V5.3h1.069v1.603H145z M145.049,18.264V8.937h0.972v9.327H145.049z"/>
		<path class="st3" d="M154.446,11.872c-0.34-1.386-1.199-2.214-2.496-2.214c-1.993,0-2.819,2.017-2.819,3.961
			c0,1.963,0.81,3.925,2.819,3.925c1.442,0,2.35-0.954,2.577-2.503h1.037c-0.34,2.071-1.507,3.475-3.614,3.475
			c-2.674,0-3.856-2.143-3.856-4.897c0-2.593,1.345-4.934,3.856-4.934c1.929,0,3.192,1.026,3.484,3.187H154.446z"/>
		<path class="st3" d="M158.106,14.393c0.179,2.323,1.572,3.169,3.354,3.169c2.09,0,2.966-1.26,2.966-2.683
			c0-4.016-7.114-1.351-7.114-6.446c0-1.8,1.345-3.475,3.954-3.475c2.625,0,3.938,1.765,3.921,3.872h-1.053
			c0-1.981-1.377-2.827-2.868-2.827c-2.236,0-3.046,1.53-2.852,2.863c0.502,3.349,7.114,0.937,7.114,5.96
			c0,2.376-1.572,3.781-4.262,3.781c-2.431,0-4.229-1.405-4.229-4.213H158.106z"/>
		<path class="st3" d="M170.354,18.3c-0.227,0.054-0.648,0.216-1.118,0.216c-0.956,0-1.491-0.468-1.491-1.854V9.837h-1.183v-0.9
			h1.183V6.344h0.973v2.593h1.572v0.9h-1.572v6.392c0,0.918,0.032,1.314,0.842,1.314c0.259,0,0.535-0.054,0.794-0.126V18.3z"/>
		<path class="st3" d="M175.764,12.826c0.356-0.036,0.956-0.144,1.28-0.306s0.356-0.648,0.356-0.972c0-1.099-0.583-1.891-2.09-1.891
			c-1.345,0-2.269,0.486-2.447,2.106h-0.989c0.146-2.197,1.621-3.079,3.452-3.079c1.702,0,3.046,0.738,3.046,2.899v5.078
			c0,0.846,0.195,1.044,1.021,0.72v0.846c-0.146,0.054-0.486,0.18-0.762,0.18c-0.162,0-0.292-0.018-0.438-0.054
			c-0.648-0.108-0.762-0.738-0.778-1.386c-0.81,1.008-1.912,1.548-3.127,1.548c-1.475,0-2.803-0.882-2.803-2.683
			c0-1.566,0.972-2.521,2.933-2.809L175.764,12.826z M177.401,13.366c-0.827,0.378-1.669,0.45-2.512,0.522
			c-1.475,0.126-2.366,0.72-2.366,1.981c0,1.134,0.891,1.674,1.815,1.674c1.539,0,3.062-0.828,3.062-2.719V13.366z"/>
		<path class="st3" d="M181.936,18.264h-0.972V8.937h0.972v1.747h0.033c0.535-1.495,1.329-1.999,2.738-1.999v1.17
			c-2.188-0.054-2.771,1.747-2.771,3.835V18.264z"/>
		<path class="st3" d="M189.259,18.3c-0.227,0.054-0.648,0.216-1.118,0.216c-0.956,0-1.491-0.468-1.491-1.854V9.837h-1.183v-0.9
			h1.183V6.344h0.973v2.593h1.572v0.9h-1.572v6.392c0,0.918,0.032,1.314,0.842,1.314c0.259,0,0.535-0.054,0.794-0.126V18.3z"/>
	</g>
	<g>
		<path d="M225.004,39.086V26.123h7.762v1.044h-6.66v4.681h6.012v1.044h-6.012v5.149h6.822v1.044H225.004z"/>
		<path d="M236.004,27.779h-0.032v11.308h-1.102V26.123h1.248l6.741,11.325h0.033V26.123h1.102v12.964h-1.28L236.004,27.779z"/>
		<path d="M251.524,25.78c3.646,0,5.494,3.043,5.494,6.842c0,3.727-1.848,6.806-5.445,6.806c-3.598,0-5.429-3.079-5.429-6.806
			C246.128,28.841,248.04,25.78,251.524,25.78z M255.916,32.623c0-3.601-1.669-5.798-4.359-5.798c-2.998,0-4.311,2.791-4.311,5.798
			c0,3.061,1.296,5.762,4.343,5.762C254.619,38.384,255.916,35.647,255.916,32.623z"/>
	</g>
	<g>
	</g>
	<g>
	</g>
	<g>
	</g>
	<g>
	</g>
	<g>
	</g>
	<g>
	</g>
	<g>
	</g>
	<g>
	</g>
	<g>
	</g>
	<g>
	</g>
	<g>
	</g>
	<g>
	</g>
	<g>
	</g>
	<g>
	</g>
	<g>
	</g>
</g>
</svg>
