<?xml version="1.0" encoding="utf-8"?>
<!-- Generator: Adobe Illustrator 28.2.0, SVG Export Plug-In . SVG Version: 6.00 Build 0)  -->
<svg version="1.1" xmlns="http://www.w3.org/2000/svg" xmlns:xlink="http://www.w3.org/1999/xlink" x="0px" y="0px"
	 width="281.185px" height="178.933px" viewBox="0 0 281.185 178.933" style="enable-background:new 0 0 281.185 178.933;"
	 xml:space="preserve">
<style type="text/css">
	.st0{fill:#F0F0F0;stroke:#828282;stroke-miterlimit:10;}
	.st1{fill:none;stroke:#828282;stroke-miterlimit:10;}
	.st2{fill:#828282;}
	.st3{fill:#FFFFFF;}
</style>
<g id="レイヤー_2">
	<rect x="20.323" y="0.5" class="st0" width="240.539" height="177.933"/>
	<line class="st1" x1="0" y1="25.814" x2="20.323" y2="25.814"/>
	<line class="st1" x1="0" y1="25.814" x2="20.323" y2="25.814"/>
	<line class="st1" x1="260.862" y1="25.814" x2="281.185" y2="25.814"/>
	<rect x="20.323" y="0.5" class="st2" width="240.539" height="21"/>
</g>
<g id="レイヤー_3">
	<g>
		<path d="M25.121,39.028V26.064h7.762v1.044h-6.66v4.681h6.012v1.044h-6.012v5.149h6.822v1.044H25.121z"/>
		<path d="M36.121,27.72h-0.032v11.308h-1.102V26.064h1.248l6.741,11.325h0.033V26.064h1.102v12.964h-1.28L36.121,27.72z"/>
	</g>
	<g>
		<path d="M25.511,73.711V60.748h1.102v12.964H25.511z"/>
		<path d="M30.452,73.711h-0.972v-9.327h0.972v1.296c0.778-0.918,1.54-1.549,2.706-1.549c1.021,0,1.961,0.36,2.561,1.333
			c0.405,0.667,0.421,1.369,0.421,2.143v6.104h-0.973v-6.086c0-1.674-0.616-2.521-2.171-2.521c-1.199,0-2.025,0.864-2.333,1.818
			c-0.194,0.594-0.21,1.116-0.21,1.765V73.711z"/>
	</g>
	<g>
		<path d="M25.073,115.952v-12.964h1.685l3.824,11.434h0.033l3.759-11.434h1.669v12.964h-1.102v-11.56h-0.033l-3.824,11.56h-1.037
			l-3.84-11.56h-0.033v11.56H25.073z"/>
		<path d="M42.327,110.514c0.356-0.036,0.956-0.144,1.28-0.306s0.356-0.648,0.356-0.972c0-1.099-0.583-1.891-2.09-1.891
			c-1.345,0-2.269,0.486-2.447,2.106h-0.989c0.146-2.197,1.621-3.079,3.452-3.079c1.702,0,3.046,0.738,3.046,2.899v5.078
			c0,0.846,0.195,1.044,1.021,0.72v0.846c-0.146,0.054-0.486,0.18-0.762,0.18c-0.162,0-0.292-0.018-0.438-0.054
			c-0.648-0.108-0.762-0.738-0.778-1.386c-0.81,1.008-1.912,1.548-3.127,1.548c-1.475,0-2.803-0.882-2.803-2.683
			c0-1.566,0.972-2.521,2.933-2.809L42.327,110.514z M43.964,111.054c-0.826,0.378-1.669,0.45-2.512,0.522
			c-1.475,0.126-2.366,0.72-2.366,1.981c0,1.134,0.891,1.674,1.815,1.674c1.539,0,3.062-0.828,3.062-2.719V111.054z"/>
		<path d="M50.394,111.918l-2.609,4.033h-1.183l3.225-4.825l-2.966-4.501h1.199l2.317,3.709l2.382-3.709h1.231l-3.03,4.501
			l3.144,4.825h-1.167L50.394,111.918z"/>
	</g>
	<g>
		<path d="M25.073,158.289v-12.964h1.685l3.824,11.434h0.033l3.759-11.434h1.669v12.964h-1.102v-11.56h-0.033l-3.824,11.56h-1.037
			l-3.84-11.56h-0.033v11.56H25.073z"/>
		<path d="M38.568,146.927v-1.603h1.069v1.603H38.568z M38.616,158.289v-9.327h0.972v9.327H38.616z"/>
		<path d="M43.039,158.289h-0.973v-9.327h0.973v1.296c0.778-0.918,1.54-1.549,2.706-1.549c1.021,0,1.961,0.36,2.561,1.333
			c0.405,0.667,0.421,1.369,0.421,2.143v6.104h-0.973v-6.086c0-1.674-0.616-2.521-2.171-2.521c-1.199,0-2.025,0.864-2.333,1.818
			c-0.194,0.594-0.21,1.116-0.21,1.765V158.289z"/>
	</g>
	<g>
		<path class="st3" d="M105.091,18.264v-1.026l7.47-10.893h-6.838V5.3h8.2v1.026l-7.47,10.893h7.519v1.044H105.091z"/>
		<path class="st3" d="M115.102,13.6c0-2.719,1.296-4.916,3.889-4.916c2.625,0,3.889,2.179,3.889,4.916
			c0,2.953-1.54,4.916-3.889,4.916C116.852,18.479,115.102,16.859,115.102,13.6z M118.991,9.657c-2.042,0-2.852,1.926-2.852,3.943
			c0,2.323,0.989,3.943,2.852,3.943c2.042,0,2.852-1.945,2.852-3.943C121.827,11.404,121.049,9.657,118.991,9.657z"/>
		<path class="st3" d="M125.633,18.264h-0.972V8.937h0.972v1.296c0.778-0.918,1.54-1.549,2.706-1.549
			c1.021,0,1.961,0.36,2.561,1.333c0.405,0.667,0.421,1.369,0.421,2.143v6.104h-0.973v-6.086c0-1.674-0.616-2.521-2.171-2.521
			c-1.199,0-2.025,0.864-2.333,1.818c-0.194,0.594-0.21,1.116-0.21,1.765V18.264z"/>
		<path class="st3" d="M134.267,13.853c-0.016,2.017,0.956,3.691,2.82,3.691c1.264,0,2.252-0.774,2.544-2.143h1.085
			c-0.486,1.765-1.491,3.115-3.63,3.115c-2.69,0-3.857-2.125-3.857-4.879c0-2.719,1.458-4.952,3.857-4.952
			c2.301,0,3.711,1.819,3.695,5.168H134.267z M139.744,12.952c0-1.818-0.908-3.295-2.658-3.295c-1.718,0-2.625,1.53-2.82,3.295
			H139.744z"/>
		<path class="st3" d="M151.101,9.063c-0.454-2.215-1.685-3.061-3.679-3.061c-2.819,0-4.035,2.683-4.035,5.744
			c0,2.899,0.956,5.816,4.132,5.816c2.009,0,3.257-1.513,3.694-3.565h1.151c-0.519,2.502-1.929,4.609-5.056,4.609
			c-3.597,0-5.023-3.151-5.023-6.824c0-4.952,2.333-6.824,5.429-6.824c2.398,0,4.148,1.422,4.521,4.105H151.101z"/>
		<path class="st3" d="M155.214,18.264h-0.972V8.937h0.972v1.404h0.033c0.502-1.062,1.507-1.657,2.593-1.657
			c1.556,0,2.106,0.811,2.463,1.801c0.551-1.207,1.54-1.801,2.739-1.801c2.285,0,2.609,1.819,2.609,3.691v5.888h-0.972v-6.446
			c0-1.333-0.421-2.161-1.799-2.161c-0.713,0-1.41,0.342-1.896,1.062c-0.421,0.612-0.551,1.747-0.551,2.521v5.023h-0.973v-6.446
			c0-1.333-0.421-2.161-1.798-2.161c-0.713,0-1.41,0.342-1.896,1.062c-0.421,0.612-0.551,1.747-0.551,2.521V18.264z"/>
		<path class="st3" d="M168.952,21.937h-0.972v-13h0.972v1.638h0.032c0.567-1.224,1.848-1.891,2.917-1.891
			c2.706,0,3.792,2.143,3.792,4.897c0,2.611-1.183,4.934-3.743,4.934c-1.183,0-2.382-0.612-2.998-1.747V21.937z M171.787,17.543
			c2.009,0,2.949-1.891,2.868-4.231c-0.016-2.34-1.231-3.655-2.868-3.655c-1.831,0-2.836,1.729-2.836,3.979
			C168.952,15.743,170.021,17.543,171.787,17.543z"/>
	</g>
	<g>
		<path d="M215.268,33.199v5.888h-1.102V26.123h4.57c2.56,0,3.97,1.008,3.97,3.403c0,1.639-0.551,2.503-1.896,3.169
			c1.377,0.522,1.458,2.143,1.491,3.511c0.049,1.962,0.194,2.503,0.486,2.755v0.126h-1.215c-0.454-0.882-0.34-3.313-0.519-4.303
			c-0.259-1.404-1.215-1.584-2.317-1.584H215.268z M218.703,32.154c1.637,0,2.901-0.756,2.901-2.575
			c0-1.944-1.361-2.413-2.836-2.413h-3.5v4.987H218.703z"/>
		<path d="M225.441,34.675c-0.016,2.017,0.957,3.691,2.82,3.691c1.264,0,2.252-0.774,2.544-2.143h1.086
			c-0.486,1.765-1.491,3.115-3.63,3.115c-2.69,0-3.857-2.125-3.857-4.879c0-2.719,1.458-4.952,3.857-4.952
			c2.301,0,3.711,1.819,3.695,5.168H225.441z M230.918,33.775c0-1.818-0.908-3.295-2.658-3.295c-1.718,0-2.625,1.53-2.82,3.295
			H230.918z"/>
		<path d="M234.416,36.169c0.308,1.603,1.053,2.197,2.512,2.197c1.41,0,2.074-0.828,2.074-1.729c0-2.701-5.38-0.792-5.38-4.465
			c0-1.548,1.085-2.665,2.949-2.665c1.815,0,2.998,0.829,3.241,2.935h-0.989c-0.178-1.44-1.053-1.962-2.269-1.962
			c-1.231,0-1.896,0.648-1.896,1.603c0,2.539,5.38,0.954,5.38,4.537c0,1.783-1.442,2.719-3.419,2.719
			c-1.977,0-3.111-1.404-3.192-3.169H234.416z"/>
		<path d="M247.637,29.76h0.973v9.327h-0.973V37.79c-0.519,0.648-1.231,1.548-2.706,1.548c-2.236,0-2.981-1.494-2.981-3.439v-6.14
			h0.972v6.122c0,1.603,0.632,2.485,2.155,2.485c1.604,0,2.56-1.477,2.56-3.529V29.76z"/>
		<path d="M251.102,39.086V26.123h0.972v12.964H251.102z"/>
		<path d="M257.502,39.123c-0.227,0.054-0.648,0.216-1.118,0.216c-0.956,0-1.491-0.468-1.491-1.854V30.66h-1.183v-0.9h1.183v-2.593
			h0.973v2.593h1.572v0.9h-1.572v6.392c0,0.918,0.032,1.314,0.842,1.314c0.259,0,0.535-0.054,0.794-0.126V39.123z"/>
	</g>
	<g>
	</g>
	<g>
	</g>
	<g>
	</g>
	<g>
	</g>
	<g>
	</g>
	<g>
	</g>
	<g>
	</g>
	<g>
	</g>
	<g>
	</g>
	<g>
	</g>
	<g>
	</g>
	<g>
	</g>
	<g>
	</g>
	<g>
	</g>
	<g>
	</g>
</g>
</svg>
