<?xml version="1.0" encoding="utf-8"?>
<!-- Generator: Adobe Illustrator 28.2.0, SVG Export Plug-In . SVG Version: 6.00 Build 0)  -->
<svg version="1.1" id="儗僀儎_xFF0D__1" xmlns="http://www.w3.org/2000/svg" xmlns:xlink="http://www.w3.org/1999/xlink" x="0px"
	 y="0px" width="224.125px" height="92.373px" viewBox="0 0 224.125 92.373" style="enable-background:new 0 0 224.125 92.373;"
	 xml:space="preserve">
<style type="text/css">
	.st0{fill:#CCCCCC;}
	.st1{fill:none;stroke:#000000;}
	.st2{fill:#FFFFFF;stroke:#000000;}
	.st3{fill:#FFFFFF;}
	.st4{fill:none;stroke:#000000;stroke-width:0.5;}
	.st5{stroke:#000000;stroke-width:0.5;}
	.st6{fill:none;stroke:#000000;stroke-dasharray:1,1;}
</style>
<path class="st0" d="M74.118,4.746l4.483-4.395l24.521,24.346L127.556,0l4.746,4.746l-24.346,24.609l24.346,24.697l-4.746,4.834
	l-24.433-24.785L78.601,58.887l-4.746-4.834l24.697-24.697L74.118,4.746z"/>
<line class="st1" x1="0.5" y1="18.321" x2="223.625" y2="18.321"/>
<line class="st1" x1="0.5" y1="8.946" x2="0.5" y2="62.696"/>
<line class="st1" x1="223.625" y1="8.946" x2="223.625" y2="62.696"/>
<path class="st2" d="M203.625,23.321c2.44,0,4.419-1.979,4.419-4.419c0-2.441-1.979-4.42-4.419-4.42s-4.419,1.979-4.419,4.42
	C199.206,21.343,201.185,23.321,203.625,23.321z"/>
<g>
	<rect x="19.094" y="13.946" class="st3" width="8.504" height="8.858"/>
	<line class="st2" x1="27.598" y1="22.804" x2="27.598" y2="13.946"/>
	<line class="st2" x1="19.094" y1="13.946" x2="19.094" y2="22.804"/>
</g>
<polyline class="st1" points="0.5,51.446 93.625,51.446 93.625,18.321 "/>
<g>
	<rect x="19.094" y="47.071" class="st3" width="8.504" height="8.858"/>
	<line class="st2" x1="27.598" y1="55.929" x2="27.598" y2="47.071"/>
	<line class="st2" x1="19.094" y1="47.071" x2="19.094" y2="55.929"/>
</g>
<path class="st2" d="M62.375,56.446c2.441,0,4.419-1.979,4.419-4.419c0-2.441-1.979-4.42-4.419-4.42c-2.441,0-4.42,1.979-4.42,4.42
	C57.955,54.468,59.934,56.446,62.375,56.446z"/>
<g>
	<line class="st4" x1="23.605" y1="23.742" x2="23.605" y2="16.169"/>
	<polygon class="st5" points="23.605,13.962 24.875,17.071 23.605,16.334 22.335,17.071 	"/>
</g>
<circle class="st6" cx="62.721" cy="51.672" r="10.312"/>
<path d="M69.038,64.117l7.092,2.13l-4.541,4.807L69.038,64.117z"/>
<line class="st1" x1="69.861" y1="65.417" x2="84.099" y2="78.87"/>
<g>
	<path d="M89.262,81.154l-1.891-0.994l0.35-0.588l1.807,1.079L89.5,78.647h0.687l-0.042,2.003l1.807-1.079l0.351,0.588l-1.877,0.994
		l1.877,0.995l-0.351,0.588l-1.807-1.093l0.042,2.018H89.5l0.028-2.018l-1.807,1.093l-0.35-0.588L89.262,81.154z"/>
</g>
</svg>
