<?xml version="1.0" encoding="utf-8"?>
<!-- Generator: Adobe Illustrator 28.2.0, SVG Export Plug-In . SVG Version: 6.00 Build 0)  -->
<svg version="1.1" id="儗僀儎_xFF0D__1" xmlns="http://www.w3.org/2000/svg" xmlns:xlink="http://www.w3.org/1999/xlink" x="0px"
	 y="0px" width="273.556px" height="107.963px" viewBox="0 0 273.556 107.963" style="enable-background:new 0 0 273.556 107.963;"
	 xml:space="preserve">
<style type="text/css">
	.st0{fill:#CCCCCC;}
	.st1{stroke:#000000;stroke-width:0.8;}
	.st2{fill:none;stroke:#B3B3B3;stroke-width:0.5;}
	.st3{fill:none;stroke:#000000;stroke-width:0.8;}
	.st4{fill:none;stroke:#000000;stroke-width:0.5;}
</style>
<rect x="175.582" y="54.387" class="st0" width="7.759" height="17.891"/>
<g>
	<polygon class="st1" points="62.566,24.337 65.106,30.556 62.566,29.08 60.026,30.556 	"/>
	<polygon class="st1" points="137.985,41.904 135.444,35.685 137.985,37.161 140.525,35.685 	"/>
</g>
<polygon class="st1" points="175.691,24.337 178.231,30.556 175.691,29.08 173.15,30.556 "/>
<polygon class="st1" points="213.193,41.904 210.654,35.685 213.193,37.161 215.734,35.685 "/>
<line class="st2" x1="213.108" y1="10.296" x2="213.108" y2="90.9"/>
<line class="st2" x1="220.625" y1="10.296" x2="220.625" y2="90.9"/>
<line class="st2" x1="175.521" y1="0" x2="175.521" y2="54.254"/>
<line class="st2" x1="183.021" y1="0" x2="183.021" y2="54.254"/>
<line class="st2" x1="138.002" y1="10.296" x2="138.002" y2="90.9"/>
<line class="st2" x1="145.445" y1="10.296" x2="145.445" y2="90.9"/>
<line class="st2" x1="62.495" y1="0" x2="62.495" y2="54.735"/>
<line class="st2" x1="70.07" y1="0" x2="70.07" y2="54.735"/>
<rect x="62.36" y="54.366" class="st0" width="7.783" height="17.891"/>
<rect x="138.101" y="83.202" class="st0" width="7.549" height="17.578"/>
<rect x="213.331" y="83.202" class="st0" width="7.549" height="17.578"/>
<g>
	<line class="st3" x1="62.61" y1="43.035" x2="62.61" y2="23.258"/>
</g>
<line class="st4" x1="47.433" y1="0" x2="47.433" y2="9.974"/>
<line class="st4" x1="54.963" y1="0" x2="54.963" y2="9.974"/>
<line class="st4" x1="77.552" y1="0" x2="77.552" y2="9.974"/>
<line class="st4" x1="85.082" y1="0" x2="85.082" y2="9.974"/>
<line class="st4" x1="62.499" y1="0" x2="62.499" y2="9.974"/>
<line class="st4" x1="70.029" y1="0" x2="70.029" y2="9.974"/>
<line class="st3" x1="47.954" y1="42.539" x2="62.949" y2="42.539"/>
<line class="st4" x1="92.611" y1="0" x2="92.611" y2="9.974"/>
<line class="st4" x1="100.141" y1="0" x2="100.141" y2="9.974"/>
<line class="st4" x1="107.671" y1="0" x2="107.671" y2="9.974"/>
<line class="st4" x1="115.201" y1="0" x2="115.201" y2="9.974"/>
<line class="st4" x1="122.73" y1="0" x2="122.73" y2="9.974"/>
<line class="st4" x1="130.26" y1="0" x2="130.26" y2="9.974"/>
<line class="st4" x1="137.79" y1="0" x2="137.79" y2="9.974"/>
<line class="st4" x1="145.319" y1="0" x2="145.319" y2="9.974"/>
<line class="st4" x1="152.848" y1="0" x2="152.848" y2="9.974"/>
<line class="st4" x1="160.379" y1="0" x2="160.379" y2="9.974"/>
<line class="st4" x1="167.906" y1="0" x2="167.906" y2="9.974"/>
<line class="st4" x1="175.433" y1="0" x2="175.433" y2="9.974"/>
<line class="st4" x1="198.016" y1="0" x2="198.016" y2="9.974"/>
<line class="st4" x1="205.544" y1="0" x2="205.544" y2="9.974"/>
<line class="st4" x1="182.977" y1="0" x2="182.977" y2="9.974"/>
<line class="st4" x1="190.504" y1="0" x2="190.504" y2="9.974"/>
<line class="st4" x1="213.073" y1="0" x2="213.073" y2="9.974"/>
<line class="st4" x1="220.602" y1="0" x2="220.602" y2="9.974"/>
<line class="st4" x1="228.132" y1="0" x2="228.132" y2="9.974"/>
<line class="st4" x1="250.718" y1="0" x2="250.718" y2="9.974"/>
<line class="st4" x1="258.249" y1="0" x2="258.249" y2="9.974"/>
<line class="st4" x1="167.938" y1="0" x2="167.938" y2="9.974"/>
<line class="st4" x1="175.464" y1="0" x2="175.464" y2="9.974"/>
<line class="st4" x1="235.676" y1="0" x2="235.676" y2="9.974"/>
<line class="st4" x1="243.206" y1="0" x2="243.206" y2="9.974"/>
<line class="st4" x1="265.777" y1="0" x2="265.777" y2="9.974"/>
<line class="st4" x1="273.306" y1="0" x2="273.306" y2="9.974"/>
<polyline class="st3" points="47.407,54.319 62.482,54.319 62.482,72.444 70.075,72.444 70.075,54.319 175.507,54.319 
	175.507,72.444 183.013,72.444 183.013,54.319 273.038,54.319 "/>
<polyline class="st3" points="47.407,83.09 137.963,83.09 137.963,100.79 145.367,100.79 145.367,83.09 213.099,83.09 
	213.099,100.79 220.584,100.79 220.584,83.09 273.038,83.09 "/>
<g>
	<path d="M33.414,26.322c-2.143,0-2.798-1.783-2.798-3.022c0-1.239,0.655-3.022,2.798-3.022c2.143,0,2.798,1.783,2.798,3.022
		C36.212,24.539,35.556,26.322,33.414,26.322z M33.414,20.965c-1.248,0-1.999,0.983-1.999,2.334c0,1.352,0.751,2.335,1.999,2.335
		c1.247,0,1.999-0.983,1.999-2.335C35.413,21.948,34.661,20.965,33.414,20.965z"/>
	<path d="M40.941,20.429h0.751v5.741h-0.872l-2.918-4.638h-0.016v4.638h-0.752v-5.741h0.92l2.87,4.637h0.016V20.429z"/>
</g>
<g>
	<path d="M33.414,44.239c-2.143,0-2.798-1.783-2.798-3.022c0-1.239,0.655-3.022,2.798-3.022c2.143,0,2.798,1.783,2.798,3.022
		C36.212,42.456,35.556,44.239,33.414,44.239z M33.414,38.882c-1.248,0-1.999,0.983-1.999,2.334c0,1.352,0.751,2.335,1.999,2.335
		c1.247,0,1.999-0.983,1.999-2.335C35.413,39.865,34.661,38.882,33.414,38.882z"/>
	<path d="M37.991,44.087h-0.776v-5.741h3.974v0.688h-3.198v1.759h2.814v0.688h-2.814V44.087z"/>
	<path d="M42.878,44.087h-0.776v-5.741h3.974v0.688h-3.198v1.759h2.814v0.688h-2.814V44.087z"/>
</g>
<g>
	<path d="M33.414,56.634c-2.143,0-2.798-1.783-2.798-3.022c0-1.239,0.655-3.022,2.798-3.022c2.143,0,2.798,1.783,2.798,3.022
		C36.212,54.852,35.556,56.634,33.414,56.634z M33.414,51.277c-1.248,0-1.999,0.983-1.999,2.334c0,1.352,0.751,2.335,1.999,2.335
		c1.247,0,1.999-0.983,1.999-2.335C35.413,52.261,34.661,51.277,33.414,51.277z"/>
	<path d="M40.941,50.742h0.751v5.741h-0.872l-2.918-4.638h-0.016v4.638h-0.752v-5.741h0.92l2.87,4.637h0.016V50.742z"/>
</g>
<g>
	<path d="M33.414,74.551c-2.143,0-2.798-1.783-2.798-3.022c0-1.239,0.655-3.022,2.798-3.022c2.143,0,2.798,1.783,2.798,3.022
		C36.212,72.768,35.556,74.551,33.414,74.551z M33.414,69.194c-1.248,0-1.999,0.983-1.999,2.334c0,1.352,0.751,2.335,1.999,2.335
		c1.247,0,1.999-0.983,1.999-2.335C35.413,70.178,34.661,69.194,33.414,69.194z"/>
	<path d="M37.991,74.399h-0.776v-5.741h3.974v0.688h-3.198v1.759h2.814v0.688h-2.814V74.399z"/>
	<path d="M42.878,74.399h-0.776v-5.741h3.974v0.688h-3.198v1.759h2.814v0.688h-2.814V74.399z"/>
</g>
<g>
	<path d="M33.414,85.176c-2.143,0-2.798-1.783-2.798-3.022s0.655-3.022,2.798-3.022c2.143,0,2.798,1.783,2.798,3.022
		S35.556,85.176,33.414,85.176z M33.414,79.818c-1.248,0-1.999,0.983-1.999,2.335c0,1.351,0.751,2.334,1.999,2.334
		c1.247,0,1.999-0.983,1.999-2.334C35.413,80.802,34.661,79.818,33.414,79.818z"/>
	<path d="M40.941,79.282h0.751v5.741h-0.872l-2.918-4.638h-0.016v4.638h-0.752v-5.741h0.92l2.87,4.638h0.016V79.282z"/>
</g>
<g>
	<path d="M33.414,103.094c-2.143,0-2.798-1.783-2.798-3.022s0.655-3.022,2.798-3.022c2.143,0,2.798,1.783,2.798,3.022
		S35.556,103.094,33.414,103.094z M33.414,97.736c-1.248,0-1.999,0.983-1.999,2.335c0,1.351,0.751,2.334,1.999,2.334
		c1.247,0,1.999-0.983,1.999-2.334C35.413,98.72,34.661,97.736,33.414,97.736z"/>
	<path d="M37.991,102.941h-0.776V97.2h3.974v0.688h-3.198v1.76h2.814v0.688h-2.814V102.941z"/>
	<path d="M42.878,102.941h-0.776V97.2h3.974v0.688h-3.198v1.76h2.814v0.688h-2.814V102.941z"/>
</g>
<g>
	<path d="M4.07,4.578C4.03,3.69,3.294,3.41,2.646,3.41c-0.488,0-1.311,0.136-1.311,1.007c0,0.488,0.344,0.647,0.679,0.728
		l1.639,0.376c0.744,0.176,1.303,0.624,1.303,1.535c0,1.359-1.263,1.735-2.247,1.735c-1.063,0-1.479-0.32-1.735-0.552
		C0.488,7.8,0.392,7.32,0.392,6.784h0.728c0,1.04,0.848,1.343,1.583,1.343c0.56,0,1.503-0.144,1.503-0.967
		c0-0.6-0.28-0.792-1.223-1.016L1.807,5.873C1.431,5.785,0.583,5.521,0.583,4.521c0-0.896,0.584-1.775,1.975-1.775
		c2.007,0,2.207,1.199,2.239,1.831H4.07z"/>
	<path d="M8.47,5.865c-0.088-0.56-0.4-0.896-0.992-0.896c-0.871,0-1.151,0.832-1.151,1.575c0,0.72,0.176,1.607,1.144,1.607
		c0.472,0,0.879-0.352,1-0.991h0.68C9.078,7.824,8.67,8.759,7.447,8.759c-1.175,0-1.871-0.888-1.871-2.095
		c0-1.295,0.624-2.327,2.007-2.327c1.096,0,1.511,0.8,1.567,1.527H8.47z"/>
	<path d="M9.832,5.729c0.032-1,0.696-1.392,1.727-1.392c0.336,0,1.551,0.096,1.551,1.167v2.407c0,0.176,0.088,0.248,0.232,0.248
		c0.064,0,0.152-0.016,0.232-0.032v0.512c-0.12,0.032-0.224,0.08-0.384,0.08c-0.624,0-0.72-0.32-0.744-0.64
		c-0.272,0.296-0.696,0.68-1.511,0.68c-0.768,0-1.311-0.488-1.311-1.208c0-0.352,0.104-1.167,1.271-1.311l1.16-0.144
		c0.167-0.016,0.368-0.08,0.368-0.496c0-0.44-0.32-0.68-0.983-0.68c-0.8,0-0.912,0.487-0.959,0.808H9.832z M12.406,6.504
		c-0.112,0.088-0.288,0.152-1.159,0.264c-0.344,0.048-0.896,0.152-0.896,0.68c0,0.456,0.231,0.728,0.759,0.728
		c0.656,0,1.295-0.424,1.295-0.983V6.504z"/>
	<path d="M17.71,8.639h-0.704V6.064c0-0.728-0.208-1.095-0.896-1.095c-0.4,0-1.104,0.256-1.104,1.391v2.279h-0.704V4.457h0.664
		v0.592h0.016c0.152-0.224,0.544-0.712,1.264-0.712c0.647,0,1.463,0.264,1.463,1.455V8.639z"/>
</g>
<g>
	<path d="M0.647,57.774v-5.757h0.544v5.293h3.086v0.464H0.647z"/>
	<path d="M5.096,57.774v-5.757h1.967c0.64,0,1.239,0.04,1.775,0.432c0.76,0.552,0.959,1.671,0.959,2.439
		c0,0.759-0.168,1.607-0.696,2.183c-0.527,0.592-1.279,0.704-2.039,0.704H5.096z M5.64,57.31h1.303c0.488,0,0.912-0.032,1.351-0.264
		c0.768-0.392,0.959-1.375,0.959-2.159c0-0.84-0.184-1.759-0.991-2.191c-0.344-0.184-0.839-0.216-1.319-0.216H5.64V57.31z"/>
	<path d="M10.847,57.774v-5.757h2.103c1.495,0,1.879,0.744,1.879,1.607c0,1.288-1.144,1.607-2.207,1.607h-1.231v2.542H10.847z
		 M12.638,54.768c1.016,0,1.647-0.208,1.647-1.184c0-0.719-0.463-1.103-1.487-1.103h-1.407v2.287H12.638z"/>
	<path d="M15.759,57.774v-5.757h2.079c1.351,0,1.887,0.583,1.887,1.447c0,0.799-0.456,1.159-0.919,1.239v0.016
		c0.792,0.12,1.184,0.671,1.184,1.431c0,1.199-0.784,1.623-1.879,1.623H15.759z M16.303,54.56h1.375
		c1.136,0,1.503-0.399,1.503-1.095c0-0.72-0.432-0.983-1.623-0.983h-1.255V54.56z M16.303,57.31h1.383
		c1.199,0,1.759-0.16,1.759-1.159c0-0.952-0.671-1.127-1.695-1.127h-1.447V57.31z"/>
	<path d="M0.12,66.774l2.263-5.757h0.616l2.207,5.757h-0.56l-0.664-1.807H1.359l-0.68,1.807H0.12z M1.543,64.503h2.255L2.67,61.481
		L1.543,64.503z"/>
	<path d="M6.527,61.753H6.511v5.021H5.968v-5.757h0.615l3.326,5.029h0.016v-5.029h0.544v5.757H9.837L6.527,61.753z"/>
	<path d="M11.735,66.774v-5.757h2.103c1.495,0,1.879,0.744,1.879,1.607c0,1.288-1.144,1.607-2.207,1.607h-1.231v2.542H11.735z
		 M13.526,63.768c1.016,0,1.647-0.208,1.647-1.184c0-0.719-0.464-1.103-1.487-1.103h-1.407v2.287H13.526z"/>
	<path d="M16.647,66.774v-5.757h2.079c1.351,0,1.887,0.583,1.887,1.447c0,0.799-0.456,1.159-0.919,1.239v0.016
		c0.792,0.12,1.184,0.671,1.184,1.431c0,1.199-0.784,1.623-1.879,1.623H16.647z M17.191,63.56h1.375
		c1.136,0,1.503-0.399,1.503-1.095c0-0.72-0.432-0.983-1.623-0.983h-1.255V63.56z M17.191,66.31h1.383
		c1.199,0,1.759-0.16,1.759-1.159c0-0.952-0.671-1.127-1.695-1.127h-1.447V66.31z"/>
	<path d="M3.078,69.866c1.799,0,2.711,1.351,2.711,3.038c0,1.655-0.912,3.022-2.687,3.022c-1.775,0-2.679-1.367-2.679-3.022
		C0.416,71.225,1.359,69.866,3.078,69.866z M5.245,72.904c0-1.599-0.824-2.574-2.151-2.574c-1.479,0-2.127,1.239-2.127,2.574
		c0,1.359,0.64,2.559,2.143,2.559C4.605,75.462,5.245,74.247,5.245,72.904z"/>
	<path d="M7.407,73.16v2.615H6.864v-5.757h2.255c1.263,0,1.959,0.448,1.959,1.511c0,0.728-0.272,1.111-0.936,1.407
		c0.68,0.232,0.719,0.951,0.735,1.559c0.024,0.872,0.096,1.111,0.24,1.223v0.056h-0.6c-0.224-0.392-0.168-1.471-0.256-1.911
		c-0.128-0.624-0.6-0.704-1.143-0.704H7.407z M9.103,72.696c0.808,0,1.431-0.336,1.431-1.144c0-0.864-0.671-1.071-1.399-1.071H7.407
		v2.215H9.103z"/>
	<path d="M12.184,75.774v-5.757h2.103c1.495,0,1.879,0.744,1.879,1.607c0,1.288-1.144,1.607-2.207,1.607h-1.231v2.542H12.184z
		 M13.975,72.768c1.016,0,1.647-0.208,1.647-1.184c0-0.719-0.464-1.103-1.487-1.103h-1.407v2.287H13.975z"/>
	<path d="M17.095,75.774v-5.757h2.079c1.351,0,1.887,0.583,1.887,1.447c0,0.799-0.456,1.159-0.919,1.239v0.016
		c0.792,0.12,1.184,0.671,1.184,1.431c0,1.199-0.784,1.623-1.879,1.623H17.095z M17.639,72.56h1.375
		c1.136,0,1.503-0.399,1.503-1.095c0-0.72-0.432-0.983-1.623-0.983h-1.255V72.56z M17.639,75.31h1.383
		c1.199,0,1.759-0.16,1.759-1.159c0-0.952-0.671-1.127-1.695-1.127h-1.447V75.31z"/>
</g>
<g>
	<g>
		<path d="M4.07,33.614c-0.04-0.888-0.775-1.167-1.423-1.167c-0.488,0-1.311,0.136-1.311,1.007c0,0.488,0.344,0.647,0.68,0.728
			l1.639,0.376c0.744,0.176,1.304,0.624,1.304,1.535c0,1.359-1.264,1.735-2.247,1.735c-1.063,0-1.479-0.32-1.735-0.552
			c-0.488-0.439-0.584-0.919-0.584-1.455H1.12c0,1.04,0.847,1.343,1.583,1.343c0.56,0,1.503-0.144,1.503-0.967
			c0-0.6-0.28-0.792-1.223-1.016l-1.175-0.272c-0.376-0.088-1.224-0.352-1.224-1.351c0-0.896,0.584-1.775,1.975-1.775
			c2.007,0,2.207,1.199,2.239,1.831H4.07z"/>
		<path d="M6.655,37.675H5.952v-4.182h0.664v0.695h0.016c0.28-0.487,0.647-0.815,1.175-0.815c0.088,0,0.128,0.008,0.184,0.024v0.728
			H7.727c-0.656,0-1.071,0.512-1.071,1.119V37.675z"/>
		<path d="M10.974,34.901c-0.088-0.56-0.4-0.896-0.991-0.896c-0.872,0-1.151,0.832-1.151,1.575c0,0.72,0.176,1.607,1.143,1.607
			c0.472,0,0.879-0.352,1-0.991h0.68c-0.072,0.664-0.48,1.599-1.703,1.599c-1.175,0-1.871-0.888-1.871-2.095
			c0-1.295,0.624-2.327,2.007-2.327c1.096,0,1.511,0.8,1.567,1.527H10.974z"/>
	</g>
</g>
<path d="M29.17,63.319v0.342c-0.301,0.016-1.58,0.061-1.71,0.134c-0.183,0.106-0.307,0.25-0.372,0.433
	c-0.049,0.142-0.073,0.388-0.073,0.739v11.328c0,0.33-0.049,0.588-0.146,0.775c-0.098,0.187-0.254,0.352-0.47,0.494
	c-0.301,0.191-0.726,0.305-1.276,0.342v-0.33c0.448-0.098,0.747-0.236,0.897-0.415c0.151-0.179,0.226-0.485,0.226-0.915V64.821
	c0-0.525,0.133-0.908,0.397-1.147c0.085-0.073,0.23-0.139,0.433-0.195c-0.297-0.065-0.507-0.181-0.629-0.348
	c-0.118-0.167-0.177-0.452-0.177-0.854V51.06c0-0.276-0.101-0.535-0.305-0.775c-0.162-0.187-0.443-0.32-0.842-0.397V49.54
	c0.476,0.073,0.82,0.164,1.031,0.274c0.574,0.294,0.861,0.727,0.861,1.3v10.862c0,0.48,0.084,0.826,0.25,1.037
	C27.383,63.156,28.727,63.258,29.17,63.319z"/>
<g>
	<path d="M0.647,87.833v-5.757h0.544v5.293h3.086v0.464H0.647z"/>
	<path d="M5.096,87.833v-5.757h1.967c0.64,0,1.239,0.04,1.775,0.432c0.76,0.552,0.959,1.671,0.959,2.438
		c0,0.76-0.168,1.607-0.696,2.183c-0.527,0.592-1.279,0.704-2.039,0.704H5.096z M5.64,87.369h1.303c0.488,0,0.912-0.032,1.351-0.264
		c0.768-0.392,0.959-1.375,0.959-2.159c0-0.839-0.184-1.759-0.991-2.19c-0.344-0.184-0.839-0.216-1.319-0.216H5.64V87.369z"/>
	<path d="M10.815,87.833v-5.757h3.71v0.464h-3.167v2.079h2.878v0.463h-2.878v2.751H10.815z"/>
	<path d="M15.319,87.833v-5.757h2.079c1.351,0,1.887,0.584,1.887,1.447c0,0.8-0.456,1.159-0.919,1.239v0.016
		c0.792,0.12,1.184,0.672,1.184,1.432c0,1.199-0.784,1.623-1.879,1.623H15.319z M15.863,84.619h1.375c1.136,0,1.503-0.4,1.503-1.096
		c0-0.72-0.432-0.983-1.623-0.983h-1.255V84.619z M15.863,87.369h1.383c1.199,0,1.759-0.16,1.759-1.159
		c0-0.951-0.671-1.128-1.695-1.128h-1.447V87.369z"/>
	<path d="M0.12,96.833l2.263-5.757h0.616l2.207,5.757h-0.56l-0.664-1.807H1.359l-0.68,1.807H0.12z M1.543,94.562h2.255L2.67,91.54
		L1.543,94.562z"/>
	<path d="M6.527,91.811H6.511v5.021H5.968v-5.757h0.615l3.326,5.029h0.016v-5.029h0.544v5.757H9.837L6.527,91.811z"/>
	<path d="M11.704,96.833v-5.757h3.71v0.464h-3.167v2.079h2.878v0.463h-2.878v2.751H11.704z"/>
	<path d="M16.207,96.833v-5.757h2.079c1.351,0,1.887,0.584,1.887,1.447c0,0.8-0.456,1.159-0.919,1.239v0.016
		c0.792,0.12,1.184,0.672,1.184,1.432c0,1.199-0.784,1.623-1.879,1.623H16.207z M16.751,93.619h1.375c1.136,0,1.503-0.4,1.503-1.096
		c0-0.72-0.432-0.983-1.623-0.983h-1.255V93.619z M16.751,96.369h1.383c1.199,0,1.759-0.16,1.759-1.159
		c0-0.951-0.671-1.128-1.695-1.128h-1.447V96.369z"/>
	<path d="M3.078,99.924c1.799,0,2.711,1.352,2.711,3.039c0,1.654-0.912,3.022-2.687,3.022c-1.775,0-2.679-1.368-2.679-3.022
		C0.416,101.283,1.359,99.924,3.078,99.924z M5.245,102.963c0-1.6-0.824-2.575-2.151-2.575c-1.479,0-2.127,1.239-2.127,2.575
		c0,1.359,0.64,2.559,2.143,2.559C4.605,105.521,5.245,104.306,5.245,102.963z"/>
	<path d="M7.407,103.219v2.614H6.864v-5.757h2.255c1.263,0,1.959,0.447,1.959,1.511c0,0.728-0.272,1.112-0.936,1.407
		c0.68,0.232,0.719,0.952,0.735,1.56c0.024,0.871,0.096,1.111,0.24,1.224v0.056h-0.6c-0.224-0.392-0.168-1.472-0.256-1.911
		c-0.128-0.623-0.6-0.703-1.143-0.703H7.407z M9.103,102.755c0.808,0,1.431-0.336,1.431-1.144c0-0.863-0.671-1.071-1.399-1.071
		H7.407v2.215H9.103z"/>
	<path d="M12.152,105.833v-5.757h3.71v0.464h-3.167v2.079h2.878v0.463h-2.878v2.751H12.152z"/>
	<path d="M16.655,105.833v-5.757h2.079c1.351,0,1.887,0.584,1.887,1.447c0,0.8-0.456,1.159-0.919,1.239v0.016
		c0.792,0.12,1.184,0.672,1.184,1.432c0,1.199-0.784,1.623-1.879,1.623H16.655z M17.199,102.619h1.375
		c1.136,0,1.503-0.4,1.503-1.096c0-0.72-0.432-0.983-1.623-0.983h-1.255V102.619z M17.199,105.369h1.383
		c1.199,0,1.759-0.16,1.759-1.159c0-0.951-0.671-1.128-1.695-1.128h-1.447V105.369z"/>
</g>
<path d="M29.17,93.376v0.342c-0.301,0.017-1.58,0.061-1.71,0.134c-0.183,0.106-0.307,0.252-0.372,0.435
	c-0.049,0.142-0.073,0.388-0.073,0.737v11.328c0,0.33-0.049,0.588-0.146,0.776c-0.098,0.187-0.254,0.352-0.47,0.493
	c-0.301,0.192-0.726,0.305-1.276,0.342v-0.33c0.448-0.098,0.747-0.235,0.897-0.415c0.151-0.178,0.226-0.483,0.226-0.916V94.877
	c0-0.525,0.133-0.907,0.397-1.147c0.085-0.073,0.23-0.138,0.433-0.195c-0.297-0.065-0.507-0.181-0.629-0.347
	c-0.118-0.167-0.177-0.452-0.177-0.854V81.118c0-0.277-0.101-0.535-0.305-0.775c-0.162-0.187-0.443-0.32-0.842-0.397v-0.348
	c0.476,0.073,0.82,0.165,1.031,0.275c0.574,0.293,0.861,0.726,0.861,1.3v10.861c0,0.481,0.084,0.826,0.25,1.037
	C27.383,93.214,28.727,93.315,29.17,93.376z"/>
<g>
	<polyline class="st3" points="62.636,23.737 137.974,23.737 137.945,42.539 175.541,42.539 175.541,23.259 	"/>
</g>
<g>
	<polyline class="st3" points="175.394,23.737 213.2,23.737 213.215,42.539 273.038,42.539 	"/>
</g>
</svg>
