<?xml version="1.0" encoding="utf-8"?>
<!-- Generator: Adobe Illustrator 28.2.0, SVG Export Plug-In . SVG Version: 6.00 Build 0)  -->
<svg version="1.1" id="レイヤー_1" xmlns="http://www.w3.org/2000/svg" xmlns:xlink="http://www.w3.org/1999/xlink" x="0px"
	 y="0px" width="76.973px" height="25.602px" viewBox="0 0 76.973 25.602" style="enable-background:new 0 0 76.973 25.602;"
	 xml:space="preserve">
<style type="text/css">
	.st0{fill:none;stroke:#000000;stroke-width:0.5;stroke-miterlimit:8;}
</style>
<g>
	<g>
		<path d="M2.719,10.541l1.954-3.124h0.711l-2.35,3.655v2.826H2.422v-2.781l-2.314-3.7H0.81L2.719,10.541z"/>
		<path d="M7.993,7.246c-0.855,1.242-1.377,2.7-1.377,4.213c0,1.494,0.549,2.926,1.377,4.159H7.534
			c-0.99-1.368-1.54-2.494-1.54-4.204c0-1.647,0.567-2.872,1.54-4.168H7.993z"/>
		<path d="M9.459,12.44c0.171,0.801,0.585,1.098,1.396,1.098c0.783,0,1.152-0.414,1.152-0.864c0-1.35-2.989-0.396-2.989-2.232
			c0-0.774,0.604-1.332,1.639-1.332c1.008,0,1.666,0.414,1.8,1.468h-0.549c-0.099-0.721-0.585-0.981-1.26-0.981
			c-0.685,0-1.054,0.324-1.054,0.801c0,1.27,2.989,0.478,2.989,2.269c0,0.892-0.801,1.359-1.9,1.359
			c-1.098,0-1.729-0.702-1.773-1.584H9.459z"/>
		<path d="M13.5,15.618c0.855-1.242,1.377-2.701,1.377-4.213c0-1.495-0.549-2.926-1.377-4.159h0.459
			c0.99,1.368,1.54,2.493,1.54,4.204c0,1.647-0.567,2.872-1.54,4.168H13.5z"/>
		<path d="M23.717,11.036h-4.501v-0.54h4.501V11.036z M23.717,12.782h-4.501v-0.54h4.501V12.782z"/>
	</g>
</g>
<g>
	<g>
		<path d="M30.45,2.753h-1.639V2.375c0.963-0.063,1.567-0.162,1.756-1.251h0.459v6.347H30.45V2.753z"/>
		<path d="M37.938,2.969h0.541V4.95h1.98v0.54h-1.98v1.98h-0.541V5.49h-1.98V4.95h1.98V2.969z"/>
		<path d="M43.823,0.988h4.717v0.522h-2.052v5.96h-0.612v-5.96h-2.053V0.988z"/>
		<path d="M49.045,7.979c0-0.729,0.472-1.213,1.202-1.213c0.746,0,1.139,0.457,1.139,1.024c0,0.981-1.06,1.228-1.611,1.647
			c-0.242,0.184-0.467,0.394-0.483,0.746h2.063v0.283h-2.42c0.005-0.352,0.052-0.63,0.289-0.903
			c0.771-0.892,1.795-0.882,1.795-1.753c0-0.482-0.357-0.761-0.814-0.761c-0.482,0-0.824,0.43-0.803,0.929H49.045z"/>
		<path d="M52.563,6.012c0.171,0.802,0.585,1.099,1.396,1.099c0.783,0,1.152-0.414,1.152-0.864c0-1.351-2.989-0.396-2.989-2.232
			c0-0.774,0.604-1.333,1.639-1.333c1.008,0,1.666,0.414,1.8,1.468h-0.549c-0.099-0.72-0.585-0.981-1.26-0.981
			c-0.685,0-1.054,0.324-1.054,0.802c0,1.27,2.989,0.477,2.989,2.269c0,0.891-0.801,1.359-1.9,1.359
			c-1.098,0-1.729-0.702-1.773-1.585H52.563z"/>
	</g>
</g>
<g>
	<g>
		<path d="M30.45,15.637h-1.639v-0.378c0.963-0.063,1.567-0.162,1.756-1.251h0.459v6.347H30.45V15.637z"/>
		<path d="M37.938,15.853h0.541v1.981h1.98v0.54h-1.98v1.98h-0.541v-1.98h-1.98v-0.54h1.98V15.853z"/>
		<path d="M43.823,13.872h4.717v0.522h-2.052v5.96h-0.612v-5.96h-2.053V13.872z"/>
		<path d="M50.268,20.601h-0.956v-0.22c0.562-0.037,0.914-0.095,1.023-0.73h0.268v3.701h-0.336V20.601z"/>
		<path d="M52.563,18.896c0.171,0.802,0.585,1.099,1.396,1.099c0.783,0,1.152-0.414,1.152-0.864c0-1.351-2.989-0.396-2.989-2.232
			c0-0.774,0.604-1.333,1.639-1.333c1.008,0,1.666,0.414,1.8,1.468h-0.549c-0.099-0.72-0.585-0.981-1.26-0.981
			c-0.685,0-1.054,0.324-1.054,0.802c0,1.27,2.989,0.477,2.989,2.269c0,0.891-0.801,1.359-1.9,1.359
			c-1.098,0-1.729-0.702-1.773-1.585H52.563z"/>
	</g>
</g>
<g>
	<g>
		<path d="M63.716,11.035l-1.881,2.863h-0.693l2.232-3.331l-2.143-3.151h0.711l1.773,2.729l1.783-2.729h0.711l-2.125,3.151
			l2.224,3.331h-0.702L63.716,11.035z"/>
		<path d="M68.972,7.245c-0.855,1.242-1.377,2.701-1.377,4.213c0,1.495,0.549,2.927,1.377,4.16h-0.459
			c-0.99-1.369-1.54-2.494-1.54-4.205c0-1.647,0.567-2.871,1.54-4.168H68.972z"/>
		<path d="M70.439,12.439c0.171,0.802,0.585,1.099,1.396,1.099c0.783,0,1.152-0.414,1.152-0.864c0-1.351-2.989-0.396-2.989-2.232
			c0-0.774,0.604-1.333,1.639-1.333c1.008,0,1.666,0.414,1.8,1.468h-0.549c-0.099-0.72-0.585-0.981-1.26-0.981
			c-0.685,0-1.054,0.324-1.054,0.802c0,1.27,2.989,0.477,2.989,2.269c0,0.891-0.801,1.359-1.9,1.359
			c-1.098,0-1.729-0.702-1.773-1.585H70.439z"/>
		<path d="M74.479,15.618c0.855-1.243,1.377-2.701,1.377-4.214c0-1.494-0.549-2.926-1.377-4.159h0.459
			c0.99,1.368,1.54,2.494,1.54,4.204c0,1.647-0.567,2.872-1.54,4.169H74.479z"/>
	</g>
</g>
<g>
	<line class="st0" x1="25.968" y1="11.989" x2="59.038" y2="11.989"/>
</g>
<g>
</g>
<g>
</g>
<g>
</g>
<g>
</g>
<g>
</g>
<g>
</g>
<g>
</g>
<g>
</g>
<g>
</g>
<g>
</g>
<g>
</g>
<g>
</g>
<g>
</g>
<g>
</g>
<g>
</g>
</svg>
