<?xml version="1.0" encoding="utf-8"?>
<!-- Generator: Adobe Illustrator 28.2.0, SVG Export Plug-In . SVG Version: 6.00 Build 0)  -->
<svg version="1.1" id="レイヤー_1" xmlns="http://www.w3.org/2000/svg" xmlns:xlink="http://www.w3.org/1999/xlink" x="0px"
	 y="0px" width="8.504px" height="8.504px" viewBox="0 0 8.504 8.504" style="enable-background:new 0 0 8.504 8.504;"
	 xml:space="preserve">
<style type="text/css">
	.st0{fill:#09A603;}
</style>
<g>
	<path class="st0" d="M6.929,6.839c0,0.484-0.394,0.877-0.878,0.877H1.665c-0.484,0-0.878-0.393-0.878-0.877V2.452
		c0-0.484,0.394-0.878,0.878-0.878h1.481V0.787H1.665C0.747,0.787,0,1.534,0,2.452v4.387c0,0.918,0.747,1.664,1.665,1.664h4.387
		c0.918,0,1.665-0.747,1.665-1.664V5.358H6.929V6.839z"/>
	<polygon class="st0" points="4.131,0 4.131,0.787 7.16,0.787 3.116,4.831 3.673,5.388 7.717,1.344 7.717,4.373 8.504,4.373 
		8.504,0 	"/>
</g>
<g>
</g>
<g>
</g>
<g>
</g>
<g>
</g>
<g>
</g>
<g>
</g>
<g>
</g>
<g>
</g>
<g>
</g>
<g>
</g>
<g>
</g>
<g>
</g>
<g>
</g>
<g>
</g>
<g>
</g>
</svg>
