<?xml version="1.0" encoding="utf-8"?>
<!-- Generator: Adobe Illustrator 28.2.0, SVG Export Plug-In . SVG Version: 6.00 Build 0)  -->
<svg version="1.1" id="レイヤー_1" xmlns="http://www.w3.org/2000/svg" xmlns:xlink="http://www.w3.org/1999/xlink" x="0px"
	 y="0px" width="17.232px" height="8.952px" viewBox="0 0 17.232 8.952" style="enable-background:new 0 0 17.232 8.952;"
	 xml:space="preserve">
<style type="text/css">
	.st0{fill:none;stroke:#000000;stroke-width:0.5;stroke-miterlimit:10;}
</style>
<g>
	<path d="M8.352,0.568c0.729,0,2.598,0,2.598,1.899c0,1.199-0.759,1.589-1.199,1.819c0.46,0.16,1.479,0.53,1.479,1.949
		c0,2.148-2.108,2.148-2.818,2.148H6.002V0.568H8.352z M6.653,1.158v2.869h1.738c0.561,0,1.909-0.04,1.909-1.479
		c0-1.389-1.169-1.389-2.028-1.389H6.653z M6.653,4.596v3.198h1.688c0.75,0,2.229,0,2.229-1.539c0-1.639-1.55-1.659-2.129-1.659
		H6.653z"/>
</g>
<line class="st0" x1="0.112" y1="8.728" x2="17.12" y2="0.224"/>
<g>
</g>
<g>
</g>
<g>
</g>
<g>
</g>
<g>
</g>
<g>
</g>
<g>
</g>
<g>
</g>
<g>
</g>
<g>
</g>
<g>
</g>
<g>
</g>
<g>
</g>
<g>
</g>
<g>
</g>
</svg>
