<?xml version="1.0" encoding="utf-8"?>
<!-- Generator: Adobe Illustrator 28.2.0, SVG Export Plug-In . SVG Version: 6.00 Build 0)  -->
<svg version="1.1" id="レイヤー_1" xmlns="http://www.w3.org/2000/svg" xmlns:xlink="http://www.w3.org/1999/xlink" x="0px"
	 y="0px" width="17.232px" height="8.951px" viewBox="0 0 17.232 8.951" style="enable-background:new 0 0 17.232 8.951;"
	 xml:space="preserve">
<style type="text/css">
	.st0{fill:none;stroke:#000000;stroke-width:0.5;stroke-miterlimit:10;}
</style>
<g>
	<path d="M3.196,0.567c0.729,0,2.598,0,2.598,1.899c0,1.199-0.759,1.589-1.199,1.819c0.46,0.159,1.479,0.529,1.479,1.948
		c0,2.149-2.108,2.149-2.818,2.149H0.846V0.567H3.196z M1.497,1.157v2.869h1.738c0.561,0,1.909-0.04,1.909-1.479
		c0-1.39-1.169-1.39-2.028-1.39H1.497z M1.497,4.596v3.198h1.688c0.75,0,2.229,0,2.229-1.539c0-1.64-1.55-1.659-2.129-1.659H1.497z"
		/>
	<path d="M8.396,7.274v1.109H7.338V7.274H8.396z"/>
	<path d="M9.966,0.567h2.858c0.83,0,1.409,0.08,1.999,0.3c1.39,0.521,2.129,1.859,2.129,3.608c0,1.02-0.27,2.449-1.459,3.259
		c-0.74,0.499-1.56,0.649-2.698,0.649H9.966V0.567z M10.626,7.794h2.148c1.1,0,1.799-0.18,2.329-0.55
		c0.859-0.609,1.189-1.699,1.189-2.759c0-3.328-2.649-3.328-3.498-3.328h-2.169V7.794z"/>
</g>
<line class="st0" x1="0.112" y1="8.728" x2="17.12" y2="0.224"/>
<g>
</g>
<g>
</g>
<g>
</g>
<g>
</g>
<g>
</g>
<g>
</g>
<g>
</g>
<g>
</g>
<g>
</g>
<g>
</g>
<g>
</g>
<g>
</g>
<g>
</g>
<g>
</g>
<g>
</g>
</svg>
