<?xml version="1.0" encoding="utf-8"?>
<!-- Generator: Adobe Illustrator 28.2.0, SVG Export Plug-In . SVG Version: 6.00 Build 0)  -->
<svg version="1.1" id="レイヤー_1" xmlns="http://www.w3.org/2000/svg" xmlns:xlink="http://www.w3.org/1999/xlink" x="0px"
	 y="0px" width="349.634px" height="215.156px" viewBox="0 0 349.634 215.156" style="enable-background:new 0 0 349.634 215.156;"
	 xml:space="preserve">
<style type="text/css">
	.st0{fill:none;stroke:#808080;stroke-dasharray:1;}
	.st1{fill:none;stroke:#000000;}
	.st2{fill:#FFFFFF;}
	.st3{fill:#FFFFFF;stroke:#000000;}
</style>
<line class="st0" x1="58.584" y1="18.078" x2="83.386" y2="18.078"/>
<line class="st1" x1="12.52" y1="18.078" x2="349.134" y2="18.078"/>
<line class="st1" x1="12.52" y1="47.629" x2="12.52" y2="131.094"/>
<polyline class="st1" points="12.52,0 12.52,34.688 0.5,34.688 0.5,147.813 12.52,147.813 12.52,215.156 "/>
<line class="st1" x1="349.134" y1="0" x2="349.134" y2="215.156"/>
<g>
	<rect x="30.237" y="14.561" class="st2" width="7.087" height="7.087"/>
	<line class="st1" x1="37.324" y1="14.561" x2="37.324" y2="21.649"/>
	<line class="st1" x1="30.237" y1="21.649" x2="30.237" y2="14.561"/>
</g>
<g>
	<path d="M25.581,12.324h-0.775V6.584h2.655c0.943,0,1.887,0.328,1.887,1.543c0,0.848-0.432,1.16-0.8,1.375
		c0.328,0.136,0.656,0.28,0.688,1.079l0.048,1.04c0.008,0.32,0.048,0.44,0.288,0.576v0.128h-0.951
		c-0.112-0.352-0.136-1.223-0.136-1.439c0-0.472-0.096-1.023-1.023-1.023h-1.879V12.324z M25.581,9.198h1.799
		c0.567,0,1.167-0.144,1.167-0.991c0-0.888-0.647-0.959-1.031-0.959h-1.935V9.198z"/>
	<path d="M32.1,12.476c-1.615,0-1.927-1.719-1.927-2.886c0-1.167,0.312-2.887,1.927-2.887c1.615,0,1.927,1.719,1.927,2.887
		C34.027,10.757,33.715,12.476,32.1,12.476z M32.1,7.335c-0.808,0-1.175,0.848-1.175,2.255s0.368,2.255,1.175,2.255
		c0.808,0,1.175-0.848,1.175-2.255S32.908,7.335,32.1,7.335z"/>
	<path d="M36.548,12.476c-1.615,0-1.927-1.719-1.927-2.886c0-1.167,0.312-2.887,1.927-2.887s1.927,1.719,1.927,2.887
		C38.475,10.757,38.163,12.476,36.548,12.476z M36.548,7.335c-0.808,0-1.175,0.848-1.175,2.255s0.368,2.255,1.175,2.255
		s1.175-0.848,1.175-2.255S37.356,7.335,36.548,7.335z"/>
	<path d="M40.996,12.476c-1.615,0-1.927-1.719-1.927-2.886c0-1.167,0.312-2.887,1.927-2.887s1.927,1.719,1.927,2.887
		C42.923,10.757,42.611,12.476,40.996,12.476z M40.996,7.335c-0.808,0-1.175,0.848-1.175,2.255s0.368,2.255,1.175,2.255
		s1.175-0.848,1.175-2.255S41.804,7.335,40.996,7.335z"/>
</g>
<g>
	<line class="st1" x1="12.52" y1="64.141" x2="349.134" y2="64.141"/>
	<g>
		<rect x="30.237" y="60.624" class="st2" width="7.087" height="7.087"/>
		<line class="st1" x1="37.324" y1="60.624" x2="37.324" y2="67.712"/>
		<line class="st1" x1="30.237" y1="67.712" x2="30.237" y2="60.624"/>
	</g>
	<path class="st3" d="M331.418,63.972c0,1.958-1.587,3.544-3.545,3.544c-1.956,0-3.543-1.586-3.543-3.544
		c0-1.957,1.587-3.542,3.543-3.542C329.831,60.429,331.418,62.015,331.418,63.972z"/>
	<g>
		<path d="M25.881,57.215h-0.775v-5.741h2.654c0.944,0,1.887,0.328,1.887,1.543c0,0.848-0.432,1.16-0.799,1.375
			c0.328,0.136,0.655,0.28,0.688,1.079l0.048,1.04c0.008,0.32,0.048,0.44,0.288,0.576v0.128H28.92
			c-0.112-0.352-0.136-1.223-0.136-1.439c0-0.472-0.096-1.023-1.023-1.023h-1.879V57.215z M25.881,54.088h1.799
			c0.567,0,1.167-0.144,1.167-0.991c0-0.888-0.648-0.959-1.032-0.959h-1.935V54.088z"/>
		<path d="M32.401,57.367c-1.615,0-1.927-1.719-1.927-2.886c0-1.167,0.312-2.887,1.927-2.887c1.615,0,1.927,1.719,1.927,2.887
			C34.328,55.648,34.016,57.367,32.401,57.367z M32.401,52.226c-0.808,0-1.175,0.848-1.175,2.255s0.368,2.255,1.175,2.255
			c0.808,0,1.175-0.848,1.175-2.255S33.208,52.226,32.401,52.226z"/>
		<path d="M36.849,57.367c-1.615,0-1.927-1.719-1.927-2.886c0-1.167,0.312-2.887,1.927-2.887s1.927,1.719,1.927,2.887
			C38.776,55.648,38.464,57.367,36.849,57.367z M36.849,52.226c-0.808,0-1.175,0.848-1.175,2.255s0.368,2.255,1.175,2.255
			s1.175-0.848,1.175-2.255S37.656,52.226,36.849,52.226z"/>
		<path d="M41.344,57.215h-0.752v-3.99h-1.311v-0.56c0.912-0.064,1.287-0.152,1.511-1.072h0.552V57.215z"/>
	</g>
	<g>
		<path d="M319.628,57.831h-0.776V52.09h2.655c0.943,0,1.887,0.328,1.887,1.543c0,0.848-0.432,1.16-0.8,1.375
			c0.328,0.136,0.656,0.28,0.688,1.079l0.049,1.04c0.008,0.32,0.048,0.44,0.287,0.576v0.128h-0.951
			c-0.112-0.352-0.136-1.223-0.136-1.439c0-0.472-0.097-1.023-1.023-1.023h-1.879V57.831z M319.628,54.705h1.799
			c0.567,0,1.167-0.144,1.167-0.991c0-0.888-0.647-0.959-1.031-0.959h-1.935V54.705z"/>
		<path d="M325.1,54.561c0.239-0.184,0.583-0.352,1.087-0.352c0.911,0,1.847,0.64,1.847,1.799c0,0.624-0.279,1.975-2.038,1.975
			c-0.736,0-1.68-0.296-1.815-1.551h0.728c0.072,0.656,0.56,0.944,1.191,0.944c0.728,0,1.184-0.584,1.184-1.288
			c0-0.808-0.552-1.247-1.247-1.247c-0.408,0-0.776,0.192-1.04,0.536l-0.607-0.032l0.424-3.014h2.91v0.688h-2.383L325.1,54.561z"/>
		<path d="M330.595,57.983c-1.615,0-1.927-1.719-1.927-2.886c0-1.167,0.312-2.887,1.927-2.887s1.927,1.719,1.927,2.887
			C332.522,56.264,332.21,57.983,330.595,57.983z M330.595,52.842c-0.808,0-1.175,0.848-1.175,2.255s0.367,2.255,1.175,2.255
			s1.176-0.848,1.176-2.255S331.402,52.842,330.595,52.842z"/>
		<path d="M335.043,57.983c-1.615,0-1.927-1.719-1.927-2.886c0-1.167,0.312-2.887,1.927-2.887s1.927,1.719,1.927,2.887
			C336.97,56.264,336.658,57.983,335.043,57.983z M335.043,52.842c-0.808,0-1.175,0.848-1.175,2.255s0.367,2.255,1.175,2.255
			s1.176-0.848,1.176-2.255S335.851,52.842,335.043,52.842z"/>
	</g>
</g>
<g>
	<line class="st0" x1="58.584" y1="110.204" x2="83.386" y2="110.204"/>
	<line class="st1" x1="12.52" y1="110.204" x2="349.134" y2="110.204"/>
	<g>
		<rect x="30.237" y="106.687" class="st2" width="7.087" height="7.087"/>
		<line class="st1" x1="37.324" y1="106.687" x2="37.324" y2="113.774"/>
		<line class="st1" x1="30.237" y1="113.774" x2="30.237" y2="106.687"/>
	</g>
	<path class="st3" d="M331.418,110.231c0,1.957-1.587,3.543-3.545,3.543c-1.956,0-3.543-1.586-3.543-3.543
		c0-1.958,1.587-3.544,3.543-3.544C329.831,106.687,331.418,108.273,331.418,110.231z"/>
	<g>
		<path d="M319.928,104.507h-0.775v-5.741h2.654c0.943,0,1.887,0.328,1.887,1.544c0,0.847-0.432,1.159-0.8,1.375
			c0.328,0.136,0.656,0.279,0.688,1.079l0.048,1.039c0.009,0.32,0.049,0.44,0.288,0.576v0.128h-0.951
			c-0.112-0.352-0.136-1.224-0.136-1.439c0-0.472-0.096-1.023-1.023-1.023h-1.879V104.507z M319.928,101.381h1.799
			c0.567,0,1.167-0.145,1.167-0.992c0-0.887-0.647-0.959-1.031-0.959h-1.935V101.381z"/>
		<path d="M325.401,101.236c0.239-0.184,0.583-0.352,1.087-0.352c0.911,0,1.847,0.64,1.847,1.799c0,0.624-0.279,1.976-2.038,1.976
			c-0.736,0-1.68-0.296-1.815-1.552h0.728c0.072,0.656,0.56,0.943,1.191,0.943c0.728,0,1.184-0.583,1.184-1.287
			c0-0.808-0.552-1.247-1.247-1.247c-0.408,0-0.776,0.191-1.04,0.535l-0.607-0.031l0.424-3.015h2.91v0.688h-2.383L325.401,101.236z"
			/>
		<path d="M330.895,104.659c-1.615,0-1.927-1.72-1.927-2.887s0.312-2.887,1.927-2.887s1.927,1.72,1.927,2.887
			S332.51,104.659,330.895,104.659z M330.895,99.518c-0.808,0-1.175,0.848-1.175,2.255s0.367,2.255,1.175,2.255
			s1.176-0.848,1.176-2.255S331.702,99.518,330.895,99.518z"/>
		<path d="M335.391,104.507h-0.751v-3.99h-1.312v-0.56c0.911-0.063,1.287-0.151,1.511-1.071h0.552V104.507z"/>
	</g>
	<g>
		<path d="M25.581,103.97h-0.775v-5.741h2.655c0.943,0,1.887,0.328,1.887,1.544c0,0.847-0.432,1.159-0.8,1.375
			c0.328,0.136,0.656,0.279,0.688,1.079l0.048,1.039c0.008,0.32,0.048,0.44,0.288,0.576v0.128h-0.951
			c-0.112-0.352-0.136-1.224-0.136-1.439c0-0.472-0.096-1.023-1.023-1.023h-1.879V103.97z M25.581,100.844h1.799
			c0.567,0,1.167-0.145,1.167-0.992c0-0.887-0.647-0.959-1.031-0.959h-1.935V100.844z"/>
		<path d="M32.1,104.122c-1.615,0-1.927-1.72-1.927-2.887s0.312-2.887,1.927-2.887c1.615,0,1.927,1.72,1.927,2.887
			S33.715,104.122,32.1,104.122z M32.1,98.981c-0.808,0-1.175,0.848-1.175,2.255s0.368,2.255,1.175,2.255
			c0.808,0,1.175-0.848,1.175-2.255S32.908,98.981,32.1,98.981z"/>
		<path d="M36.548,104.122c-1.615,0-1.927-1.72-1.927-2.887s0.312-2.887,1.927-2.887s1.927,1.72,1.927,2.887
			S38.163,104.122,36.548,104.122z M36.548,98.981c-0.808,0-1.175,0.848-1.175,2.255s0.368,2.255,1.175,2.255
			s1.175-0.848,1.175-2.255S37.356,98.981,36.548,98.981z"/>
		<path d="M39.125,100.363c0-1.83,1.335-2.015,1.943-2.015c0.975,0,1.759,0.632,1.759,1.68c0,1.007-0.664,1.431-1.503,1.879
			l-0.584,0.319c-0.768,0.424-0.936,0.863-0.967,1.079h3.054v0.664h-3.846c0.04-1.167,0.567-1.791,1.319-2.23l0.743-0.432
			c0.6-0.345,1.032-0.576,1.032-1.312c0-0.448-0.288-1.016-1.111-1.016c-1.063,0-1.111,0.991-1.135,1.383H39.125z"/>
	</g>
</g>
<g>
	<line class="st0" x1="58.584" y1="202.33" x2="83.386" y2="202.33"/>
	<line class="st1" x1="12.52" y1="202.33" x2="349.134" y2="202.33"/>
	<g>
		<rect x="30.237" y="198.813" class="st2" width="7.087" height="7.088"/>
		<line class="st1" x1="37.324" y1="198.813" x2="37.324" y2="205.901"/>
		<line class="st1" x1="30.237" y1="205.901" x2="30.237" y2="198.813"/>
	</g>
	<path class="st3" d="M331.418,202.357c0,1.957-1.587,3.543-3.545,3.543c-1.956,0-3.543-1.586-3.543-3.543
		c0-1.958,1.587-3.544,3.543-3.544C329.831,198.813,331.418,200.399,331.418,202.357z"/>
	<g>
		<path d="M319.628,196.634h-0.776v-5.741h2.655c0.943,0,1.887,0.328,1.887,1.544c0,0.847-0.432,1.159-0.8,1.375
			c0.328,0.136,0.656,0.279,0.688,1.079l0.049,1.039c0.008,0.32,0.048,0.44,0.287,0.576v0.128h-0.951
			c-0.112-0.352-0.136-1.224-0.136-1.439c0-0.472-0.097-1.023-1.023-1.023h-1.879V196.634z M319.628,193.508h1.799
			c0.567,0,1.167-0.145,1.167-0.992c0-0.887-0.647-0.959-1.031-0.959h-1.935V193.508z"/>
		<path d="M325.1,193.363c0.239-0.184,0.583-0.352,1.087-0.352c0.911,0,1.847,0.64,1.847,1.799c0,0.624-0.279,1.976-2.038,1.976
			c-0.736,0-1.68-0.296-1.815-1.552h0.728c0.072,0.656,0.56,0.943,1.191,0.943c0.728,0,1.184-0.583,1.184-1.287
			c0-0.808-0.552-1.247-1.247-1.247c-0.408,0-0.776,0.191-1.04,0.535l-0.607-0.031l0.424-3.015h2.91v0.688h-2.383L325.1,193.363z"/>
		<path d="M330.595,196.786c-1.615,0-1.927-1.72-1.927-2.887s0.312-2.887,1.927-2.887s1.927,1.72,1.927,2.887
			S332.21,196.786,330.595,196.786z M330.595,191.645c-0.808,0-1.175,0.848-1.175,2.255s0.367,2.255,1.175,2.255
			s1.176-0.848,1.176-2.255S331.402,191.645,330.595,191.645z"/>
		<path d="M333.172,193.027c0-1.83,1.336-2.015,1.943-2.015c0.976,0,1.759,0.632,1.759,1.68c0,1.007-0.663,1.431-1.503,1.879
			l-0.584,0.319c-0.768,0.424-0.936,0.863-0.968,1.079h3.055v0.664h-3.846c0.04-1.167,0.567-1.791,1.319-2.23l0.743-0.432
			c0.6-0.345,1.031-0.576,1.031-1.312c0-0.448-0.287-1.016-1.111-1.016c-1.063,0-1.111,0.991-1.135,1.383H333.172z"/>
	</g>
	<g>
		<path d="M25.581,196.097h-0.775v-5.741h2.655c0.943,0,1.887,0.328,1.887,1.544c0,0.847-0.432,1.159-0.8,1.375
			c0.328,0.136,0.656,0.279,0.688,1.079l0.048,1.039c0.008,0.32,0.048,0.44,0.288,0.576v0.128h-0.951
			c-0.112-0.352-0.136-1.224-0.136-1.439c0-0.472-0.096-1.023-1.023-1.023h-1.879V196.097z M25.581,192.971h1.799
			c0.567,0,1.167-0.145,1.167-0.992c0-0.887-0.647-0.959-1.031-0.959h-1.935V192.971z"/>
		<path d="M32.1,196.249c-1.615,0-1.927-1.72-1.927-2.887s0.312-2.887,1.927-2.887c1.615,0,1.927,1.72,1.927,2.887
			S33.715,196.249,32.1,196.249z M32.1,191.107c-0.808,0-1.175,0.848-1.175,2.255s0.368,2.255,1.175,2.255
			c0.808,0,1.175-0.848,1.175-2.255S32.908,191.107,32.1,191.107z"/>
		<path d="M36.548,196.249c-1.615,0-1.927-1.72-1.927-2.887s0.312-2.887,1.927-2.887s1.927,1.72,1.927,2.887
			S38.163,196.249,36.548,196.249z M36.548,191.107c-0.808,0-1.175,0.848-1.175,2.255s0.368,2.255,1.175,2.255
			s1.175-0.848,1.175-2.255S37.356,191.107,36.548,191.107z"/>
		<path d="M40.565,192.898c0.12,0.008,0.248,0.016,0.368,0.016c0.544,0,1.072-0.216,1.072-0.919c0-0.336-0.2-0.888-1.04-0.888
			c-1,0-1.063,0.815-1.096,1.207h-0.688c0-0.823,0.336-1.839,1.815-1.839c1.087,0,1.735,0.624,1.735,1.479
			c0,0.72-0.416,1.063-0.72,1.159v0.016c0.543,0.177,0.936,0.561,0.936,1.312c0,0.92-0.592,1.808-2.023,1.808
			c-0.416,0-0.768-0.104-1.04-0.248c-0.624-0.328-0.792-0.976-0.839-1.623h0.728c0.024,0.527,0.152,1.239,1.199,1.239
			c0.72,0,1.223-0.44,1.223-1.088c0-0.943-0.831-1.031-1.311-1.031c-0.104,0-0.216,0.008-0.32,0.008V192.898z"/>
	</g>
</g>
<g>
	<g>
		<rect x="305.136" y="9.123" class="st2" width="38.977" height="17.717"/>
		<rect x="305.136" y="9.123" class="st1" width="38.977" height="17.717"/>
	</g>
	<rect x="314.25" y="5.413" class="st2" width="20.312" height="5.194"/>
	<g>
		<path d="M323.981,11.704v-3.39c0-0.168,0.016-0.896,0.016-1.431h-0.016l-1.615,4.821h-0.768l-1.615-4.813h-0.016
			c0,0.528,0.016,1.255,0.016,1.423v3.39h-0.751V5.963h1.111l1.639,4.853h0.017l1.631-4.853h1.104v5.741H323.981z"/>
		<path d="M329.949,7.69c-0.216-1.008-1.056-1.191-1.607-1.191c-1.039,0-1.879,0.768-1.879,2.279c0,1.351,0.479,2.391,1.903,2.391
			c0.503,0,1.375-0.24,1.639-1.575h0.752c-0.32,2.167-2.079,2.263-2.511,2.263c-1.304,0-2.583-0.848-2.583-3.054
			c0-1.767,1.008-2.99,2.679-2.99c1.479,0,2.247,0.919,2.358,1.879H329.949z"/>
	</g>
</g>
<g>
	<line class="st1" x1="12.52" y1="156.267" x2="349.134" y2="156.267"/>
	<g>
		<g>
			<rect x="305.136" y="147.355" class="st2" width="38.977" height="17.717"/>
			<rect x="305.136" y="147.355" class="st1" width="38.977" height="17.717"/>
		</g>
		<rect x="310.954" y="143.645" class="st2" width="27.358" height="5.194"/>
		<g>
			<path d="M320.556,149.937v-3.39c0-0.168,0.016-0.896,0.016-1.432h-0.016l-1.615,4.821h-0.768l-1.615-4.813h-0.016
				c0,0.527,0.016,1.256,0.016,1.424v3.39h-0.751v-5.741h1.111l1.639,4.854h0.017l1.631-4.854h1.104v5.741H320.556z"/>
			<path d="M326.525,145.923c-0.216-1.008-1.056-1.191-1.607-1.191c-1.039,0-1.879,0.768-1.879,2.278
				c0,1.352,0.479,2.391,1.903,2.391c0.503,0,1.375-0.239,1.639-1.574h0.752c-0.32,2.166-2.079,2.263-2.511,2.263
				c-1.304,0-2.583-0.848-2.583-3.055c0-1.767,1.008-2.99,2.679-2.99c1.479,0,2.247,0.919,2.358,1.879H326.525z"/>
			<path d="M329.142,149.937h-0.776v-5.741h2.655c0.943,0,1.887,0.328,1.887,1.544c0,0.847-0.432,1.159-0.8,1.375
				c0.328,0.136,0.656,0.279,0.688,1.079l0.049,1.039c0.008,0.32,0.048,0.44,0.287,0.576v0.128h-0.951
				c-0.112-0.352-0.136-1.224-0.136-1.439c0-0.472-0.097-1.023-1.023-1.023h-1.879V149.937z M329.142,146.811h1.799
				c0.567,0,1.167-0.145,1.167-0.992c0-0.887-0.647-0.959-1.031-0.959h-1.935V146.811z"/>
		</g>
	</g>
</g>
</svg>
