<?xml version="1.0" encoding="utf-8"?>
<!-- Generator: Adobe Illustrator 28.2.0, SVG Export Plug-In . SVG Version: 6.00 Build 0)  -->
<svg version="1.1" id="儗僀儎乕_1" xmlns="http://www.w3.org/2000/svg" xmlns:xlink="http://www.w3.org/1999/xlink" x="0px"
	 y="0px" width="177.311px" height="97.461px" viewBox="0 0 177.311 97.461" style="enable-background:new 0 0 177.311 97.461;"
	 xml:space="preserve">
<style type="text/css">
	.st0{fill:none;stroke:#808080;stroke-dasharray:1;}
	.st1{fill:none;stroke:#000000;}
	.st2{fill:#FFFFFF;}
	.st3{fill:#FFFFFF;stroke:#000000;}
</style>
<line class="st0" x1="46.563" y1="12.395" x2="71.366" y2="12.395"/>
<line class="st1" x1="0.5" y1="12.395" x2="159.948" y2="12.395"/>
<line class="st1" x1="0.5" y1="1.792" x2="0.5" y2="97.461"/>
<line class="st1" x1="159.948" y1="1.792" x2="159.948" y2="97.461"/>
<g>
	<rect x="18.217" y="8.878" class="st2" width="7.087" height="7.087"/>
	<line class="st1" x1="25.303" y1="8.878" x2="25.303" y2="15.965"/>
	<line class="st1" x1="18.217" y1="15.965" x2="18.217" y2="8.878"/>
</g>
<line class="st1" x1="0.5" y1="37.198" x2="159.948" y2="37.198"/>
<g>
	<rect x="18.217" y="33.681" class="st2" width="7.087" height="7.087"/>
	<line class="st1" x1="25.303" y1="33.681" x2="25.303" y2="40.768"/>
	<line class="st1" x1="18.217" y1="40.768" x2="18.217" y2="33.681"/>
</g>
<g>
	<g>
		<rect x="115.951" y="28.003" class="st2" width="38.977" height="17.717"/>
		<rect x="115.951" y="28.003" class="st1" width="38.977" height="17.717"/>
	</g>
	<rect x="124.112" y="24.293" class="st2" width="23.372" height="5.194"/>
</g>
<path class="st3" d="M142.232,12.421c0,1.957-1.587,3.544-3.545,3.544c-1.955,0-3.542-1.586-3.542-3.544
	c0-1.957,1.587-3.543,3.542-3.543C140.645,8.878,142.232,10.464,142.232,12.421z"/>
<line class="st0" x1="46.563" y1="62.001" x2="71.366" y2="62.001"/>
<line class="st1" x1="0.5" y1="62.001" x2="159.948" y2="62.001"/>
<g>
	<rect x="18.217" y="58.484" class="st2" width="7.087" height="7.088"/>
	<line class="st1" x1="25.303" y1="58.484" x2="25.303" y2="65.572"/>
	<line class="st1" x1="18.217" y1="65.572" x2="18.217" y2="58.484"/>
</g>
<line class="st1" x1="0.5" y1="86.805" x2="159.948" y2="86.805"/>
<g>
	<g>
		<rect x="115.951" y="77.609" class="st2" width="38.977" height="17.717"/>
		<rect x="115.951" y="77.609" class="st1" width="38.977" height="17.717"/>
	</g>
	<rect x="121.611" y="73.899" class="st2" width="25.873" height="5.194"/>
</g>
<path class="st3" d="M142.232,62.027c0,1.957-1.587,3.544-3.545,3.544c-1.955,0-3.542-1.586-3.542-3.544
	c0-1.957,1.587-3.543,3.542-3.543C140.645,58.484,142.232,60.071,142.232,62.027z"/>
<g>
	<path d="M13.86,30.271h-0.775V24.53h2.654c0.944,0,1.887,0.328,1.887,1.543c0,0.848-0.432,1.159-0.799,1.375
		c0.328,0.136,0.655,0.28,0.688,1.079l0.048,1.04c0.008,0.32,0.048,0.44,0.288,0.576v0.128h-0.952
		c-0.112-0.352-0.136-1.223-0.136-1.439c0-0.472-0.096-1.023-1.023-1.023H13.86V30.271z M13.86,27.145h1.799
		c0.567,0,1.167-0.144,1.167-0.991c0-0.888-0.648-0.959-1.032-0.959H13.86V27.145z"/>
	<path d="M20.38,30.423c-1.615,0-1.927-1.719-1.927-2.886s0.312-2.887,1.927-2.887s1.927,1.719,1.927,2.887
		S21.995,30.423,20.38,30.423z M20.38,25.282c-0.808,0-1.175,0.848-1.175,2.255s0.368,2.254,1.175,2.254s1.175-0.847,1.175-2.254
		S21.188,25.282,20.38,25.282z"/>
	<path d="M24.828,30.423c-1.615,0-1.927-1.719-1.927-2.886s0.312-2.887,1.927-2.887s1.927,1.719,1.927,2.887
		S26.443,30.423,24.828,30.423z M24.828,25.282c-0.808,0-1.175,0.848-1.175,2.255s0.368,2.254,1.175,2.254s1.175-0.847,1.175-2.254
		S25.636,25.282,24.828,25.282z"/>
	<path d="M29.324,30.271h-0.752v-3.99h-1.311v-0.56c0.912-0.064,1.287-0.152,1.511-1.072h0.552V30.271z"/>
</g>
<g>
	<path d="M13.56,6.64h-0.775V0.899h2.655c0.943,0,1.887,0.328,1.887,1.543c0,0.848-0.432,1.159-0.8,1.375
		c0.328,0.136,0.656,0.28,0.688,1.079l0.048,1.04c0.008,0.32,0.048,0.44,0.288,0.576V6.64h-0.951
		c-0.112-0.352-0.136-1.223-0.136-1.439c0-0.472-0.096-1.023-1.023-1.023H13.56V6.64z M13.56,3.514h1.799
		c0.567,0,1.167-0.144,1.167-0.991c0-0.888-0.647-0.959-1.031-0.959H13.56V3.514z"/>
	<path d="M20.08,6.792c-1.615,0-1.927-1.719-1.927-2.886s0.312-2.887,1.927-2.887c1.615,0,1.927,1.719,1.927,2.887
		S21.695,6.792,20.08,6.792z M20.08,1.651c-0.808,0-1.175,0.848-1.175,2.255S19.272,6.16,20.08,6.16s1.175-0.847,1.175-2.254
		S20.887,1.651,20.08,1.651z"/>
	<path d="M24.527,6.792c-1.615,0-1.927-1.719-1.927-2.886s0.312-2.887,1.927-2.887s1.927,1.719,1.927,2.887
		S26.143,6.792,24.527,6.792z M24.527,1.651c-0.808,0-1.175,0.848-1.175,2.255S23.72,6.16,24.527,6.16s1.175-0.847,1.175-2.254
		S25.335,1.651,24.527,1.651z"/>
	<path d="M28.544,3.442c0.12,0.008,0.248,0.016,0.368,0.016c0.544,0,1.072-0.216,1.072-0.919c0-0.336-0.2-0.888-1.04-0.888
		c-1,0-1.063,0.815-1.096,1.208h-0.688c0-0.824,0.336-1.839,1.815-1.839c1.087,0,1.735,0.624,1.735,1.479
		c0,0.719-0.416,1.063-0.72,1.159v0.016c0.543,0.176,0.936,0.56,0.936,1.311c0,0.919-0.592,1.807-2.023,1.807
		c-0.416,0-0.768-0.104-1.04-0.248c-0.624-0.328-0.792-0.975-0.839-1.623h0.728c0.024,0.528,0.152,1.239,1.199,1.239
		c0.72,0,1.223-0.439,1.223-1.087c0-0.944-0.831-1.032-1.311-1.032c-0.104,0-0.216,0.008-0.32,0.008V3.442z"/>
</g>
<g>
	<path d="M130.795,6.951h-0.775V1.21h2.654c0.944,0,1.887,0.328,1.887,1.543c0,0.848-0.432,1.16-0.799,1.375
		c0.328,0.136,0.655,0.28,0.688,1.079l0.048,1.04c0.008,0.32,0.048,0.44,0.288,0.576v0.128h-0.952
		c-0.112-0.352-0.136-1.223-0.136-1.439c0-0.472-0.096-1.023-1.023-1.023h-1.879V6.951z M130.795,3.825h1.799
		c0.567,0,1.167-0.144,1.167-0.991c0-0.888-0.648-0.959-1.032-0.959h-1.935V3.825z"/>
	<path d="M136.267,3.681c0.24-0.184,0.583-0.352,1.087-0.352c0.911,0,1.847,0.64,1.847,1.799c0,0.624-0.279,1.975-2.038,1.975
		c-0.736,0-1.68-0.296-1.815-1.551h0.728c0.072,0.656,0.56,0.944,1.191,0.944c0.728,0,1.184-0.584,1.184-1.288
		c0-0.808-0.552-1.247-1.247-1.247c-0.408,0-0.776,0.192-1.04,0.536l-0.607-0.032l0.424-3.014h2.91v0.688h-2.383L136.267,3.681z"/>
	<path d="M141.763,7.103c-1.615,0-1.927-1.719-1.927-2.886c0-1.167,0.312-2.887,1.927-2.887s1.927,1.719,1.927,2.887
		C143.69,5.384,143.378,7.103,141.763,7.103z M141.763,1.962c-0.808,0-1.175,0.848-1.175,2.255s0.367,2.255,1.175,2.255
		s1.176-0.848,1.176-2.255S142.57,1.962,141.763,1.962z"/>
	<path d="M146.211,7.103c-1.615,0-1.927-1.719-1.927-2.886c0-1.167,0.312-2.887,1.927-2.887s1.927,1.719,1.927,2.887
		C148.138,5.384,147.826,7.103,146.211,7.103z M146.211,1.962c-0.808,0-1.175,0.848-1.175,2.255s0.367,2.255,1.175,2.255
		s1.176-0.848,1.176-2.255S147.019,1.962,146.211,1.962z"/>
</g>
<g>
	<path d="M130.795,56.078h-0.775v-5.741h2.654c0.944,0,1.887,0.328,1.887,1.543c0,0.848-0.432,1.159-0.799,1.375
		c0.328,0.136,0.655,0.28,0.688,1.079l0.048,1.04c0.008,0.32,0.048,0.44,0.288,0.576v0.128h-0.952
		c-0.112-0.352-0.136-1.223-0.136-1.439c0-0.472-0.096-1.023-1.023-1.023h-1.879V56.078z M130.795,52.951h1.799
		c0.567,0,1.167-0.144,1.167-0.991c0-0.888-0.648-0.959-1.032-0.959h-1.935V52.951z"/>
	<path d="M136.267,52.808c0.24-0.184,0.583-0.352,1.087-0.352c0.911,0,1.847,0.64,1.847,1.799c0,0.624-0.279,1.975-2.038,1.975
		c-0.736,0-1.68-0.296-1.815-1.551h0.728c0.072,0.656,0.56,0.944,1.191,0.944c0.728,0,1.184-0.584,1.184-1.288
		c0-0.808-0.552-1.247-1.247-1.247c-0.408,0-0.776,0.192-1.04,0.536l-0.607-0.032l0.424-3.014h2.91v0.688h-2.383L136.267,52.808z"/>
	<path d="M141.763,56.229c-1.615,0-1.927-1.719-1.927-2.886s0.312-2.887,1.927-2.887s1.927,1.719,1.927,2.887
		S143.378,56.229,141.763,56.229z M141.763,51.088c-0.808,0-1.175,0.848-1.175,2.255s0.367,2.254,1.175,2.254
		s1.176-0.847,1.176-2.254S142.57,51.088,141.763,51.088z"/>
	<path d="M146.211,56.229c-1.615,0-1.927-1.719-1.927-2.886s0.312-2.887,1.927-2.887s1.927,1.719,1.927,2.887
		S147.826,56.229,146.211,56.229z M146.211,51.088c-0.808,0-1.175,0.848-1.175,2.255s0.367,2.254,1.175,2.254
		s1.176-0.847,1.176-2.254S147.019,51.088,146.211,51.088z"/>
</g>
<g>
	<path d="M13.56,55.767h-0.775v-5.741h2.655c0.943,0,1.887,0.328,1.887,1.543c0,0.848-0.432,1.159-0.8,1.375
		c0.328,0.136,0.656,0.28,0.688,1.079l0.048,1.04c0.008,0.32,0.048,0.44,0.288,0.576v0.128h-0.951
		c-0.112-0.352-0.136-1.223-0.136-1.439c0-0.472-0.096-1.023-1.023-1.023H13.56V55.767z M13.56,52.641h1.799
		c0.567,0,1.167-0.144,1.167-0.991c0-0.888-0.647-0.959-1.031-0.959H13.56V52.641z"/>
	<path d="M20.08,55.919c-1.615,0-1.927-1.719-1.927-2.886s0.312-2.887,1.927-2.887c1.615,0,1.927,1.719,1.927,2.887
		S21.695,55.919,20.08,55.919z M20.08,50.778c-0.808,0-1.175,0.848-1.175,2.255s0.368,2.254,1.175,2.254s1.175-0.847,1.175-2.254
		S20.887,50.778,20.08,50.778z"/>
	<path d="M24.527,55.919c-1.615,0-1.927-1.719-1.927-2.886s0.312-2.887,1.927-2.887s1.927,1.719,1.927,2.887
		S26.143,55.919,24.527,55.919z M24.527,50.778c-0.808,0-1.175,0.848-1.175,2.255s0.368,2.254,1.175,2.254s1.175-0.847,1.175-2.254
		S25.335,50.778,24.527,50.778z"/>
	<path d="M27.105,52.161c0-1.831,1.335-2.015,1.943-2.015c0.975,0,1.759,0.632,1.759,1.679c0,1.007-0.664,1.431-1.503,1.879
		l-0.584,0.32c-0.768,0.424-0.936,0.864-0.967,1.08h3.054v0.664h-3.846c0.04-1.167,0.567-1.791,1.319-2.231l0.743-0.432
		c0.6-0.344,1.032-0.576,1.032-1.311c0-0.448-0.288-1.016-1.111-1.016c-1.063,0-1.111,0.992-1.135,1.383H27.105z"/>
</g>
<g>
	<path d="M134.978,30.583v-3.39c0-0.168,0.016-0.896,0.016-1.431h-0.016l-1.615,4.821h-0.768l-1.615-4.813h-0.016
		c0,0.528,0.016,1.255,0.016,1.423v3.39h-0.752v-5.741h1.111l1.639,4.853h0.016l1.631-4.853h1.103v5.741H134.978z"/>
	<path d="M140.946,26.57c-0.216-1.007-1.056-1.191-1.607-1.191c-1.039,0-1.879,0.768-1.879,2.279c0,1.351,0.48,2.391,1.903,2.391
		c0.504,0,1.375-0.24,1.639-1.575h0.752c-0.32,2.167-2.079,2.263-2.511,2.263c-1.303,0-2.583-0.848-2.583-3.054
		c0-1.767,1.007-2.99,2.678-2.99c1.479,0,2.247,0.919,2.359,1.879H140.946z"/>
</g>
<g>
	<path d="M130.772,81.39V78c0-0.168,0.016-0.896,0.016-1.432h-0.016l-1.615,4.821h-0.768l-1.615-4.813h-0.016
		c0,0.527,0.016,1.256,0.016,1.424v3.39h-0.752v-5.741h1.112l1.639,4.854h0.016l1.631-4.854h1.103v5.741H130.772z"/>
	<path d="M136.741,77.376c-0.217-1.008-1.056-1.191-1.608-1.191c-1.04,0-1.879,0.768-1.879,2.278c0,1.352,0.479,2.391,1.903,2.391
		c0.504,0,1.375-0.239,1.64-1.574h0.751c-0.319,2.166-2.079,2.263-2.51,2.263c-1.304,0-2.583-0.848-2.583-3.055
		c0-1.767,1.008-2.99,2.679-2.99c1.479,0,2.248,0.919,2.359,1.879H136.741z"/>
	<path d="M139.359,81.39h-0.775v-5.741h2.654c0.943,0,1.887,0.328,1.887,1.544c0,0.847-0.432,1.159-0.799,1.375
		c0.327,0.136,0.655,0.279,0.688,1.079l0.048,1.039c0.008,0.32,0.048,0.44,0.288,0.576v0.128h-0.952
		c-0.111-0.352-0.136-1.224-0.136-1.439c0-0.472-0.096-1.023-1.023-1.023h-1.879V81.39z M139.359,78.264h1.799
		c0.567,0,1.168-0.145,1.168-0.992c0-0.887-0.648-0.959-1.032-0.959h-1.935V78.264z"/>
</g>
<g>
	<path d="M166.512,61.19v1.103h4.917v0.48h-4.917v1.104l-2.271-1.344L166.512,61.19z"/>
</g>
<g>
	<path d="M175.31,62.454l-0.991,0.616l-0.279-0.448l1.047-0.512l-1.047-0.496l0.279-0.44l0.991,0.584l-0.04-1.088h0.536l-0.04,1.088
		l0.983-0.584l0.288,0.44l-1.048,0.496l1.048,0.512l-0.288,0.448l-0.983-0.616l0.04,1.127h-0.536L175.31,62.454z"/>
</g>
</svg>
