<?xml version="1.0" encoding="utf-8"?>
<!-- Generator: Adobe Illustrator 28.2.0, SVG Export Plug-In . SVG Version: 6.00 Build 0)  -->
<svg version="1.1" xmlns="http://www.w3.org/2000/svg" xmlns:xlink="http://www.w3.org/1999/xlink" x="0px" y="0px"
	 width="154.327px" height="87.572px" viewBox="0 0 154.327 87.572" style="enable-background:new 0 0 154.327 87.572;"
	 xml:space="preserve">
<style type="text/css">
	.st0{fill:none;stroke:#000000;}
	.st1{fill:none;stroke:#000000;stroke-dasharray:1;}
	.st2{fill:#FFFFFF;}
	.st3{fill:none;stroke:#000000;stroke-width:0.2;}
</style>
<g id="儗僀儎乕_1">
	<g>
		<line class="st0" x1="0.5" y1="3.34" x2="0.5" y2="19.285"/>
		<line class="st0" x1="144.003" y1="3.34" x2="144.003" y2="19.285"/>
		<line class="st1" x1="0.5" y1="19.285" x2="0.5" y2="25.663"/>
		<line class="st1" x1="144.003" y1="19.285" x2="144.003" y2="25.663"/>
		<line class="st1" x1="0.5" y1="41.607" x2="0.5" y2="47.985"/>
		<line class="st1" x1="144.003" y1="41.607" x2="144.003" y2="47.985"/>
		<line class="st1" x1="0.5" y1="63.93" x2="0.5" y2="70.308"/>
		<line class="st1" x1="144.003" y1="63.93" x2="144.003" y2="70.308"/>
		<line class="st0" x1="0.5" y1="25.662" x2="0.5" y2="41.607"/>
		<line class="st0" x1="144.003" y1="25.662" x2="144.003" y2="41.607"/>
		<line class="st0" x1="0.5" y1="47.985" x2="0.5" y2="63.93"/>
		<line class="st0" x1="144.003" y1="47.985" x2="144.003" y2="63.93"/>
		<line class="st0" x1="0.5" y1="70.308" x2="0.5" y2="86.253"/>
		<line class="st0" x1="144.003" y1="70.308" x2="144.003" y2="86.253"/>
		<line class="st0" x1="0.5" y1="33.61" x2="144.003" y2="33.61"/>
		<line class="st0" x1="0.5" y1="55.933" x2="144.003" y2="55.933"/>
		<line class="st0" x1="0.5" y1="78.256" x2="144.003" y2="78.256"/>
		<line class="st0" x1="0.5" y1="11.288" x2="144.003" y2="11.288"/>
		<g>
			<rect x="16.445" y="8.122" class="st2" width="6.378" height="6.379"/>
			<line class="st0" x1="22.823" y1="8.122" x2="22.823" y2="14.501"/>
			<line class="st0" x1="16.445" y1="14.501" x2="16.445" y2="8.122"/>
		</g>
		<g>
			<g>
				<rect x="104.241" y="71.127" class="st2" width="35.079" height="15.946"/>
				<rect x="104.241" y="71.127" class="st0" width="35.079" height="15.946"/>
			</g>
			<rect x="111.586" y="67.787" class="st2" width="21.034" height="4.675"/>
		</g>
		<g>
			<g>
				<rect x="104.138" y="25.976" class="st2" width="35.08" height="15.945"/>
				<rect x="104.138" y="25.976" class="st0" width="35.08" height="15.945"/>
			</g>
			<rect x="111.483" y="22.637" class="st2" width="21.036" height="4.675"/>
		</g>
		<g>
			<g>
				<rect x="104.138" y="48.161" class="st2" width="35.08" height="15.946"/>
				<rect x="104.138" y="48.161" class="st0" width="35.08" height="15.946"/>
			</g>
			<rect x="111.483" y="44.822" class="st2" width="21.036" height="4.674"/>
		</g>
		<g>
			<g>
				<rect x="104.138" y="3.528" class="st2" width="35.08" height="15.945"/>
				<rect x="104.138" y="3.528" class="st0" width="35.08" height="15.945"/>
			</g>
			<rect x="111.483" y="0.189" class="st2" width="21.036" height="4.675"/>
		</g>
		<g>
			<path d="M121.209,6.64V3.25c0-0.168,0.016-0.896,0.016-1.431h-0.016l-1.615,4.821h-0.768l-1.615-4.813h-0.016
				c0,0.528,0.016,1.255,0.016,1.423v3.39h-0.751V0.899h1.111l1.639,4.853h0.017l1.631-4.853h1.104V6.64H121.209z"/>
			<path d="M127.178,2.626c-0.216-1.007-1.056-1.191-1.607-1.191c-1.039,0-1.879,0.768-1.879,2.279c0,1.351,0.479,2.391,1.903,2.391
				c0.503,0,1.375-0.24,1.639-1.575h0.752c-0.32,2.167-2.079,2.263-2.511,2.263c-1.304,0-2.583-0.848-2.583-3.054
				c0-1.767,1.008-2.99,2.679-2.99c1.479,0,2.247,0.919,2.358,1.879H127.178z"/>
		</g>
		<g>
			<path d="M118.321,29.14v-3.39c0-0.168,0.016-0.896,0.016-1.431h-0.016l-1.615,4.821h-0.768l-1.615-4.813h-0.016
				c0,0.528,0.016,1.255,0.016,1.423v3.39h-0.751v-5.741h1.111l1.639,4.853h0.017l1.631-4.853h1.104v5.741H118.321z"/>
			<path d="M124.29,25.126c-0.216-1.007-1.056-1.191-1.607-1.191c-1.039,0-1.879,0.768-1.879,2.279c0,1.351,0.479,2.391,1.903,2.391
				c0.503,0,1.375-0.24,1.639-1.575h0.752c-0.32,2.167-2.079,2.263-2.511,2.263c-1.304,0-2.583-0.848-2.583-3.054
				c0-1.767,1.008-2.99,2.679-2.99c1.479,0,2.247,0.919,2.358,1.879H124.29z"/>
			<path d="M126.907,29.14h-0.776v-5.741h2.655c0.943,0,1.887,0.328,1.887,1.543c0,0.848-0.432,1.159-0.8,1.375
				c0.328,0.136,0.656,0.28,0.688,1.079l0.049,1.04c0.008,0.32,0.048,0.44,0.287,0.576v0.128h-0.951
				c-0.112-0.352-0.136-1.223-0.136-1.439c0-0.472-0.097-1.023-1.023-1.023h-1.879V29.14z M126.907,26.014h1.799
				c0.567,0,1.167-0.144,1.167-0.991c0-0.888-0.647-0.959-1.031-0.959h-1.935V26.014z"/>
		</g>
		<g>
			<path d="M121.209,51.283v-3.39c0-0.168,0.016-0.896,0.016-1.431h-0.016l-1.615,4.821h-0.768l-1.615-4.813h-0.016
				c0,0.528,0.016,1.255,0.016,1.423v3.39h-0.751v-5.741h1.111l1.639,4.853h0.017l1.631-4.853h1.104v5.741H121.209z"/>
			<path d="M127.178,47.269c-0.216-1.007-1.056-1.191-1.607-1.191c-1.039,0-1.879,0.768-1.879,2.279
				c0,1.351,0.479,2.391,1.903,2.391c0.503,0,1.375-0.24,1.639-1.575h0.752c-0.32,2.167-2.079,2.263-2.511,2.263
				c-1.304,0-2.583-0.848-2.583-3.054c0-1.767,1.008-2.99,2.679-2.99c1.479,0,2.247,0.919,2.358,1.879H127.178z"/>
		</g>
		<g>
			<path d="M118.321,74.059v-3.391c0-0.167,0.016-0.895,0.016-1.431h-0.016l-1.615,4.821h-0.768l-1.615-4.813h-0.016
				c0,0.528,0.016,1.256,0.016,1.423v3.391h-0.751v-5.741h1.111l1.639,4.854h0.017l1.631-4.854h1.104v5.741H118.321z"/>
			<path d="M124.29,70.045c-0.216-1.008-1.056-1.191-1.607-1.191c-1.039,0-1.879,0.768-1.879,2.278c0,1.352,0.479,2.391,1.903,2.391
				c0.503,0,1.375-0.239,1.639-1.575h0.752c-0.32,2.167-2.079,2.264-2.511,2.264c-1.304,0-2.583-0.848-2.583-3.055
				c0-1.768,1.008-2.99,2.679-2.99c1.479,0,2.247,0.919,2.358,1.879H124.29z"/>
			<path d="M126.907,74.059h-0.776v-5.741h2.655c0.943,0,1.887,0.328,1.887,1.544c0,0.847-0.432,1.159-0.8,1.375
				c0.328,0.136,0.656,0.279,0.688,1.079l0.049,1.04c0.008,0.319,0.048,0.439,0.287,0.575v0.128h-0.951
				c-0.112-0.352-0.136-1.224-0.136-1.439c0-0.472-0.097-1.023-1.023-1.023h-1.879V74.059z M126.907,70.933h1.799
				c0.567,0,1.167-0.145,1.167-0.992c0-0.887-0.647-0.959-1.031-0.959h-1.935V70.933z"/>
		</g>
		<path class="st3" d="M148.56,11.572c0,0,12.751,8.626,0,21.375"/>
		<path class="st3" d="M148.56,56.401c0,0,12.751,8.625,0,21.375"/>
		<g>
			<rect x="16.445" y="52.632" class="st2" width="6.378" height="6.379"/>
			<line class="st0" x1="22.823" y1="52.632" x2="22.823" y2="59.011"/>
			<line class="st0" x1="16.445" y1="59.011" x2="16.445" y2="52.632"/>
		</g>
	</g>
</g>
<g id="儗僀儎乕_2">
</g>
</svg>
