<?xml version="1.0" encoding="utf-8"?>
<!-- Generator: Adobe Illustrator 28.2.0, SVG Export Plug-In . SVG Version: 6.00 Build 0)  -->
<svg version="1.1" id="レイヤー_1" xmlns="http://www.w3.org/2000/svg" xmlns:xlink="http://www.w3.org/1999/xlink" x="0px"
	 y="0px" width="141.348px" height="110.989px" viewBox="0 0 141.348 110.989" style="enable-background:new 0 0 141.348 110.989;"
	 xml:space="preserve">
<style type="text/css">
	.st0{fill:none;stroke:#000000;}
	.st1{fill:#FFFFFF;stroke:#000000;}
	.st2{fill:#FFFFFF;}
	.st3{stroke:#000000;stroke-width:0.25;}
	.st4{stroke:#000000;stroke-width:0.72;}
	.st5{fill:none;stroke:#000000;stroke-width:0.8;}
</style>
<g>
	<line class="st0" x1="0.5" y1="1.042" x2="0.5" y2="15.234"/>
	<line class="st0" x1="0.804" y1="8.265" x2="127.225" y2="8.265"/>
	<path class="st1" d="M117.521,10.493c1.172,0,2.122-0.949,2.122-2.121c0-1.171-0.95-2.121-2.122-2.121
		c-1.171,0-2.121,0.95-2.121,2.121C115.4,9.544,116.35,10.493,117.521,10.493z"/>
	<line class="st0" x1="127.399" y1="1.042" x2="127.399" y2="15.234"/>
	<line class="st0" x1="0.5" y1="32.466" x2="8.179" y2="32.466"/>
	<line class="st0" x1="0.5" y1="25.242" x2="0.5" y2="39.433"/>
	<g>
		<rect x="8.404" y="30.366" class="st2" width="5.614" height="4.252"/>
		<line class="st1" x1="14.018" y1="34.617" x2="14.018" y2="30.366"/>
	</g>
	<line class="st1" x1="8.404" y1="30.366" x2="8.404" y2="34.617"/>
	<line class="st0" x1="14.018" y1="32.466" x2="127.225" y2="32.466"/>
	<path class="st1" d="M117.521,34.694c1.172,0,2.122-0.95,2.122-2.122c0-1.171-0.95-2.121-2.122-2.121
		c-1.171,0-2.121,0.95-2.121,2.121C115.4,33.744,116.35,34.694,117.521,34.694z"/>
	<line class="st0" x1="127.399" y1="25.242" x2="127.399" y2="39.433"/>
	<g>
		<g>
			<rect x="32.887" y="30.366" class="st2" width="5.614" height="4.252"/>
			<line class="st1" x1="38.501" y1="34.617" x2="38.501" y2="30.366"/>
		</g>
		<line class="st1" x1="32.887" y1="30.366" x2="32.887" y2="34.617"/>
	</g>
	<polyline class="st0" points="23.446,32.598 23.446,44.787 47.934,44.787 47.934,32.698 	"/>
	<g>
		<rect x="32.887" y="6.165" class="st2" width="5.614" height="4.252"/>
		<line class="st1" x1="38.501" y1="10.417" x2="38.501" y2="6.165"/>
	</g>
	<line class="st1" x1="32.887" y1="6.165" x2="32.887" y2="10.417"/>
	<g>
		<path class="st3" d="M140.194,5.439l0.365,0.365l-2.62,2.62l2.62,2.621l-0.365,0.365l-2.62-2.621l-2.62,2.621l-0.365-0.365
			l2.62-2.621l-2.62-2.62l0.365-0.365l2.62,2.62L140.194,5.439z"/>
	</g>
	<g>
		<path class="st3" d="M140.194,29.456l0.365,0.365l-2.62,2.62l2.62,2.621l-0.365,0.364l-2.62-2.62l-2.62,2.62l-0.365-0.364
			l2.62-2.621l-2.62-2.62l0.365-0.365l2.62,2.62L140.194,29.456z"/>
	</g>
	<line class="st0" x1="0.5" y1="79.954" x2="8.179" y2="79.954"/>
	<line class="st0" x1="0.5" y1="72.73" x2="0.5" y2="86.922"/>
	<g>
		<rect x="8.404" y="77.854" class="st2" width="5.614" height="4.252"/>
		<line class="st1" x1="14.018" y1="82.106" x2="14.018" y2="77.854"/>
	</g>
	<line class="st1" x1="8.404" y1="77.854" x2="8.404" y2="82.106"/>
	<line class="st0" x1="14.018" y1="79.954" x2="127.225" y2="79.954"/>
	<path class="st1" d="M117.521,82.182c1.172,0,2.122-0.95,2.122-2.122c0-1.171-0.95-2.121-2.122-2.121
		c-1.171,0-2.121,0.95-2.121,2.121C115.4,81.232,116.35,82.182,117.521,82.182z"/>
	<line class="st0" x1="127.399" y1="72.73" x2="127.399" y2="86.922"/>
	<g>
		<g>
			<rect x="32.887" y="77.854" class="st2" width="5.614" height="4.252"/>
			<line class="st1" x1="38.501" y1="82.106" x2="38.501" y2="77.854"/>
		</g>
		<line class="st1" x1="32.887" y1="77.854" x2="32.887" y2="82.106"/>
	</g>
	<polyline class="st0" points="23.446,80.087 23.446,92.275 70.129,92.275 70.129,80.186 	"/>
	<g>
		<path class="st3" d="M140.194,76.944l0.365,0.365l-2.62,2.62l2.62,2.621l-0.365,0.365l-2.62-2.621l-2.62,2.621l-0.365-0.365
			l2.62-2.621l-2.62-2.62l0.365-0.365l2.62,2.62L140.194,76.944z"/>
	</g>
	<line class="st0" x1="0.5" y1="56.21" x2="8.179" y2="56.21"/>
	<line class="st0" x1="0.5" y1="48.987" x2="0.5" y2="63.178"/>
	<g>
		<rect x="8.404" y="54.11" class="st2" width="5.614" height="4.252"/>
		<line class="st1" x1="14.018" y1="58.362" x2="14.018" y2="54.11"/>
	</g>
	<line class="st1" x1="8.404" y1="54.11" x2="8.404" y2="58.362"/>
	<line class="st0" x1="14.018" y1="56.21" x2="127.225" y2="56.21"/>
	<path class="st1" d="M117.521,58.438c1.172,0,2.122-0.95,2.122-2.122c0-1.171-0.95-2.121-2.122-2.121
		c-1.171,0-2.121,0.95-2.121,2.121C115.4,57.488,116.35,58.438,117.521,58.438z"/>
	<line class="st0" x1="127.399" y1="48.987" x2="127.399" y2="63.178"/>
	<polyline class="st0" points="23.446,56.342 23.446,68.531 47.934,68.531 47.934,56.441 	"/>
	<g>
		<path class="st3" d="M140.194,53.2l0.365,0.365l-2.62,2.62l2.62,2.621l-0.365,0.364l-2.62-2.62l-2.62,2.62l-0.365-0.364
			l2.62-2.621l-2.62-2.62l0.365-0.365l2.62,2.62L140.194,53.2z"/>
	</g>
	<g>
		<g>
			<rect x="32.887" y="66.301" class="st2" width="5.614" height="4.251"/>
			<line class="st1" x1="38.501" y1="70.552" x2="38.501" y2="66.301"/>
		</g>
		<line class="st1" x1="32.887" y1="66.301" x2="32.887" y2="70.552"/>
	</g>
	<g>
		<g>
			<rect x="58.07" y="90.148" class="st2" width="5.615" height="4.253"/>
			<line class="st1" x1="63.685" y1="94.401" x2="63.685" y2="90.148"/>
		</g>
		<line class="st1" x1="58.07" y1="90.148" x2="58.07" y2="94.401"/>
	</g>
	<line class="st0" x1="0.5" y1="103.698" x2="8.179" y2="103.698"/>
	<line class="st0" x1="0.5" y1="96.475" x2="0.5" y2="110.667"/>
	<g>
		<rect x="8.404" y="101.598" class="st2" width="5.614" height="4.252"/>
		<line class="st1" x1="14.018" y1="105.85" x2="14.018" y2="101.598"/>
	</g>
	<line class="st1" x1="8.404" y1="101.598" x2="8.404" y2="105.85"/>
	<line class="st0" x1="14.018" y1="103.698" x2="127.225" y2="103.698"/>
	<line class="st0" x1="127.399" y1="96.475" x2="127.399" y2="110.667"/>
	<g>
		<path class="st3" d="M140.194,100.689l0.365,0.365l-2.62,2.62l2.62,2.621l-0.365,0.365l-2.62-2.621l-2.62,2.621l-0.365-0.365
			l2.62-2.621l-2.62-2.62l0.365-0.365l2.62,2.62L140.194,100.689z"/>
	</g>
</g>
<polygon class="st4" points="35.823,36.198 37.652,40.676 33.994,40.676 "/>
<g>
	<line class="st5" x1="35.858" y1="48.073" x2="35.858" y2="36.534"/>
</g>
<polygon class="st4" points="35.823,49.615 37.652,54.092 33.994,54.092 "/>
<g>
	<line class="st5" x1="35.858" y1="61.489" x2="35.858" y2="49.951"/>
</g>
<polygon class="st4" points="10.821,0.952 12.65,5.429 8.992,5.429 "/>
<g>
	<line class="st5" x1="10.856" y1="12.826" x2="10.856" y2="1.288"/>
</g>
<polygon class="st4" points="35.823,85.25 37.652,89.728 33.994,89.728 "/>
<g>
	<line class="st5" x1="35.858" y1="97.125" x2="35.858" y2="85.587"/>
</g>
<polygon class="st4" points="117.288,96.884 119.117,101.361 115.459,101.361 "/>
<g>
	<line class="st5" x1="117.323" y1="108.758" x2="117.323" y2="97.22"/>
</g>
<g>
</g>
<g>
</g>
<g>
</g>
<g>
</g>
<g>
</g>
<g>
</g>
<g>
</g>
<g>
</g>
<g>
</g>
<g>
</g>
<g>
</g>
<g>
</g>
</svg>
