<?xml version="1.0" encoding="utf-8"?>
<!-- Generator: Adobe Illustrator 28.2.0, SVG Export Plug-In . SVG Version: 6.00 Build 0)  -->
<svg version="1.1" id="レイヤ_xFF0D__1" xmlns="http://www.w3.org/2000/svg" xmlns:xlink="http://www.w3.org/1999/xlink" x="0px"
	 y="0px" width="142.5px" height="83.182px" viewBox="0 0 142.5 83.182" style="enable-background:new 0 0 142.5 83.182;"
	 xml:space="preserve">
<style type="text/css">
	.st0{fill:none;stroke:#000000;}
	.st1{fill:#FFFFFF;}
	.st2{fill:#FFFFFF;stroke:#000000;}
	.st3{stroke:#000000;stroke-width:0.25;}
	.st4{stroke:#000000;stroke-width:0.72;}
	.st5{fill:none;stroke:#000000;stroke-width:0.8;}
</style>
<g>
	<line class="st0" x1="0.5" y1="8.112" x2="8.179" y2="8.112"/>
	<line class="st0" x1="0.5" y1="0.889" x2="0.5" y2="15.08"/>
	<g>
		<rect x="8.404" y="6.012" class="st1" width="5.614" height="4.252"/>
		<line class="st2" x1="14.018" y1="10.264" x2="14.018" y2="6.012"/>
	</g>
	<line class="st2" x1="8.404" y1="6.012" x2="8.404" y2="10.264"/>
	<line class="st0" x1="14.018" y1="8.112" x2="127.225" y2="8.112"/>
	<path class="st2" d="M117.521,10.34c1.172,0,2.122-0.949,2.122-2.121c0-1.171-0.95-2.121-2.122-2.121
		c-1.171,0-2.121,0.95-2.121,2.121C115.4,9.391,116.35,10.34,117.521,10.34z"/>
	<line class="st0" x1="127.399" y1="0.889" x2="127.399" y2="15.08"/>
	<line class="st0" x1="0.5" y1="31.712" x2="8.179" y2="31.712"/>
	<line class="st0" x1="0.5" y1="24.489" x2="0.5" y2="38.68"/>
	<g>
		<rect x="8.404" y="29.613" class="st1" width="5.614" height="4.252"/>
		<line class="st2" x1="14.018" y1="33.864" x2="14.018" y2="29.613"/>
	</g>
	<line class="st2" x1="8.404" y1="29.613" x2="8.404" y2="33.864"/>
	<line class="st0" x1="14.018" y1="31.712" x2="127.225" y2="31.712"/>
	<path class="st2" d="M117.521,33.94c1.172,0,2.122-0.949,2.122-2.121c0-1.171-0.95-2.121-2.122-2.121
		c-1.171,0-2.121,0.95-2.121,2.121C115.4,32.991,116.35,33.94,117.521,33.94z"/>
	<line class="st0" x1="127.399" y1="24.489" x2="127.399" y2="49.545"/>
	<polyline class="st0" points="78.346,31.844 78.346,44.033 127.604,44.033 	"/>
	<g>
		<path class="st3" d="M141.835,8.298c0,2.351-1.91,4.261-4.262,4.261c-2.342,0-4.261-1.9-4.261-4.261
			c0-2.38,1.929-4.262,4.261-4.262C139.916,4.036,141.835,5.927,141.835,8.298z M133.658,8.298c0,2.169,1.766,3.916,3.916,3.916
			c2.16,0,3.916-1.756,3.916-3.916c0-2.169-1.766-3.916-3.916-3.916C135.434,4.382,133.658,6.109,133.658,8.298z"/>
	</g>
	<g>
		<path class="st3" d="M141.835,37.993c0,2.351-1.91,4.261-4.262,4.261c-2.342,0-4.261-1.9-4.261-4.261
			c0-2.38,1.929-4.262,4.261-4.262C139.916,33.731,141.835,35.622,141.835,37.993z M133.658,37.993c0,2.169,1.766,3.916,3.916,3.916
			c2.16,0,3.916-1.756,3.916-3.916c0-2.169-1.766-3.916-3.916-3.916C135.434,34.077,133.658,35.804,133.658,37.993z"/>
	</g>
	<line class="st0" x1="0.5" y1="65.744" x2="8.179" y2="65.744"/>
	<line class="st0" x1="0.5" y1="58.521" x2="0.5" y2="72.713"/>
	<g>
		<rect x="8.404" y="63.644" class="st1" width="5.614" height="4.252"/>
		<line class="st2" x1="14.018" y1="67.896" x2="14.018" y2="63.644"/>
	</g>
	<line class="st2" x1="8.404" y1="63.644" x2="8.404" y2="67.896"/>
	<line class="st0" x1="14.018" y1="65.744" x2="127.225" y2="65.744"/>
	<path class="st2" d="M117.521,67.972c1.172,0,2.122-0.949,2.122-2.121c0-1.171-0.95-2.121-2.122-2.121
		c-1.171,0-2.121,0.95-2.121,2.121C115.4,67.023,116.35,67.972,117.521,67.972z"/>
	<line class="st0" x1="127.399" y1="58.521" x2="127.399" y2="72.713"/>
	<g>
		<g>
			<rect x="32.887" y="63.644" class="st1" width="5.614" height="4.252"/>
			<line class="st2" x1="38.501" y1="67.896" x2="38.501" y2="63.644"/>
		</g>
		<line class="st2" x1="32.887" y1="63.644" x2="32.887" y2="67.896"/>
	</g>
	<polyline class="st0" points="23.446,65.877 23.446,78.066 70.129,78.066 70.129,65.976 	"/>
	<g>
		<g>
			<rect x="32.887" y="75.926" class="st1" width="5.614" height="4.252"/>
			<line class="st2" x1="38.501" y1="80.178" x2="38.501" y2="75.926"/>
		</g>
		<line class="st2" x1="32.887" y1="75.926" x2="32.887" y2="80.178"/>
	</g>
	<g>
		<path class="st3" d="M141.835,65.874c0,2.351-1.91,4.261-4.262,4.261c-2.342,0-4.261-1.9-4.261-4.261
			c0-2.38,1.929-4.262,4.261-4.262C139.916,61.613,141.835,63.504,141.835,65.874z M133.658,65.874c0,2.169,1.766,3.916,3.916,3.916
			c2.16,0,3.916-1.756,3.916-3.916c0-2.169-1.766-3.916-3.916-3.916C135.434,61.958,133.658,63.686,133.658,65.874z"/>
	</g>
	<path class="st2" d="M117.521,46.24c1.172,0,2.122-0.95,2.122-2.121c0-1.171-0.95-2.121-2.122-2.121
		c-1.171,0-2.121,0.95-2.121,2.121C115.4,45.291,116.35,46.24,117.521,46.24z"/>
</g>
<polygon class="st4" points="36.638,0.952 38.467,5.429 34.809,5.429 "/>
<g>
	<line class="st5" x1="36.673" y1="12.826" x2="36.673" y2="1.288"/>
</g>
<polygon class="st4" points="87.812,36.933 89.641,41.41 85.983,41.41 "/>
<g>
	<line class="st5" x1="87.847" y1="48.807" x2="87.847" y2="37.269"/>
</g>
<polygon class="st4" points="61.078,71.308 62.907,75.785 59.248,75.785 "/>
<g>
	<line class="st5" x1="61.113" y1="83.182" x2="61.113" y2="71.644"/>
</g>
</svg>
