<?xml version="1.0" encoding="utf-8"?>
<!-- Generator: Adobe Illustrator 28.2.0, SVG Export Plug-In . SVG Version: 6.00 Build 0)  -->
<svg version="1.1" id="儗僀儎_xFF0D__1" xmlns="http://www.w3.org/2000/svg" xmlns:xlink="http://www.w3.org/1999/xlink" x="0px"
	 y="0px" width="511.236px" height="137.635px" viewBox="0 0 511.236 137.635" style="enable-background:new 0 0 511.236 137.635;"
	 xml:space="preserve">
<style type="text/css">
	.st0{fill:none;stroke:#000000;}
	.st1{fill:#FFFFFF;}
	.st2{fill:#FFFFFF;stroke:#000000;}
</style>
<line class="st0" x1="0.5" y1="29.392" x2="32.66" y2="29.392"/>
<g>
	<rect x="32.66" y="20.847" class="st1" width="22.845" height="17.301"/>
	<line class="st2" x1="55.506" y1="38.148" x2="55.506" y2="20.847"/>
</g>
<line class="st2" x1="32.66" y1="20.847" x2="32.66" y2="38.148"/>
<line class="st0" x1="55.506" y1="29.392" x2="120.792" y2="29.392"/>
<line class="st0" x1="120.792" y1="29.392" x2="176.536" y2="29.392"/>
<line class="st0" x1="176.536" y1="29.392" x2="510.736" y2="29.392"/>
<path class="st2" d="M470.544,38.458c4.768,0,8.631-3.864,8.631-8.632c0-4.766-3.863-8.631-8.631-8.631s-8.631,3.865-8.631,8.631
	C461.913,34.594,465.775,38.458,470.544,38.458z"/>
<path d="M141.77,18.175l7.324-14.648l7.324,14.648 M150.852,46.3h-3.662V15.684h3.662V46.3z"/>
<line class="st0" x1="0.5" y1="109.283" x2="32.66" y2="109.283"/>
<g>
	<rect x="32.66" y="100.738" class="st1" width="22.845" height="17.301"/>
	<line class="st2" x1="55.506" y1="118.039" x2="55.506" y2="100.738"/>
</g>
<line class="st2" x1="32.66" y1="100.738" x2="32.66" y2="118.039"/>
<line class="st0" x1="55.506" y1="109.283" x2="120.792" y2="109.283"/>
<line class="st0" x1="120.792" y1="109.283" x2="176.536" y2="109.283"/>
<line class="st0" x1="176.536" y1="109.283" x2="510.736" y2="109.283"/>
<path class="st2" d="M470.544,118.349c4.768,0,8.631-3.864,8.631-8.632c0-4.766-3.863-8.631-8.631-8.631s-8.631,3.865-8.631,8.631
	C461.913,114.485,465.775,118.349,470.544,118.349z"/>
<path d="M156.419,122.329l-7.324,14.648l-7.324-14.648 M150.852,124.819h-3.662V94.204h3.662V124.819z"/>
<line class="st0" x1="0.5" y1="0" x2="0.5" y2="57.745"/>
<line class="st0" x1="510.736" y1="0" x2="510.736" y2="57.745"/>
<line class="st0" x1="0.5" y1="79.891" x2="0.5" y2="137.635"/>
<line class="st0" x1="510.736" y1="79.891" x2="510.736" y2="137.635"/>
</svg>
