<?xml version="1.0" encoding="utf-8"?>
<!-- Generator: Adobe Illustrator 28.2.0, SVG Export Plug-In . SVG Version: 6.00 Build 0)  -->
<svg version="1.1" xmlns="http://www.w3.org/2000/svg" xmlns:xlink="http://www.w3.org/1999/xlink" x="0px" y="0px"
	 width="357.165px" height="392.152px" viewBox="0 0 357.165 392.152" style="enable-background:new 0 0 357.165 392.152;"
	 xml:space="preserve">
<style type="text/css">
	.st0{fill:none;stroke:#666666;stroke-width:0.5;stroke-miterlimit:10;stroke-dasharray:1;}
	.st1{fill:none;stroke:#000000;stroke-width:0.5;stroke-miterlimit:10;}
	.st2{fill:#233B59;}
</style>
<g id="レイヤー_3">
</g>
<g id="レイヤー_1">
	<line class="st0" x1="73.701" y1="386.483" x2="357.165" y2="386.483"/>
	<line class="st0" x1="328.819" y1="12.309" x2="328.819" y2="392.152"/>
	<line class="st0" x1="306.142" y1="12.309" x2="306.142" y2="392.152"/>
	<line class="st0" x1="294.803" y1="12.309" x2="294.803" y2="392.152"/>
	<line class="st0" x1="85.039" y1="12.309" x2="85.039" y2="392.152"/>
	<polyline class="st1" points="357.165,46.325 306.142,46.325 306.142,23.648 85.039,23.648 85.039,46.325 73.701,46.325 	"/>
	<polyline class="st1" points="357.165,103.018 153.071,103.018 153.071,80.341 85.039,80.341 85.039,103.018 73.701,103.018 	"/>
	<polyline class="st1" points="357.165,131.365 153.071,131.365 153.071,108.687 85.039,108.687 85.039,131.365 73.701,131.365 	"/>
	<polyline class="st1" points="357.165,159.711 306.142,159.711 306.142,137.034 153.071,137.034 153.071,159.711 73.701,159.711 	
		"/>
	<polyline class="st1" points="357.165,222.073 328.819,222.073 328.819,199.396 153.219,199.396 153.219,222.073 73.701,222.073 	
		"/>
	<polyline class="st1" points="357.165,250.42 328.819,250.42 328.819,227.742 294.803,227.742 294.803,250.42 73.701,250.42 	"/>
	<polyline class="st1" points="357.165,278.766 294.803,278.766 294.803,256.089 153.071,256.089 153.071,278.766 73.701,278.766 	
		"/>
	<polyline class="st1" points="357.165,307.113 294.803,307.113 294.803,284.435 153.071,284.435 153.071,307.113 73.701,307.113 	
		"/>
	<line class="st1" x1="357.165" y1="335.459" x2="73.701" y2="335.459"/>
	<line class="st1" x1="357.165" y1="74.672" x2="73.701" y2="74.672"/>
	<polyline class="st1" points="357.165,386.483 289.134,386.483 266.457,341.082 164.409,341.082 153.001,363.805 96.378,363.805 
		85.039,386.483 73.701,386.483 	"/>
	<line class="st0" x1="153.071" y1="12.309" x2="153.071" y2="392.152"/>
</g>
<g id="レイヤー_2">
	<g>
		<path d="M44.053,37.254h-4.238v-5.741h4.182v0.688h-3.406v1.759h3.142v0.688h-3.142v1.919h3.462V37.254z"/>
		<path d="M48.382,37.254h-0.896l-1.04-1.575l-1.007,1.575h-0.888l1.471-2.151l-1.399-2.031h0.904l0.967,1.471l0.968-1.471h0.863
			l-1.415,2.031L48.382,37.254z"/>
		<path d="M52.534,35.943c-0.024,0.2-0.216,0.792-0.744,1.144c-0.192,0.128-0.464,0.288-1.135,0.288
			c-1.175,0-1.871-0.888-1.871-2.095c0-1.295,0.624-2.327,2.007-2.327c1.208,0,1.799,0.959,1.799,2.439h-3.054
			c0,0.872,0.408,1.375,1.215,1.375c0.664,0,1.056-0.512,1.08-0.824H52.534z M51.862,34.832c-0.04-0.647-0.312-1.247-1.167-1.247
			c-0.648,0-1.16,0.6-1.16,1.247H51.862z"/>
		<path d="M56.046,34.48c-0.088-0.56-0.4-0.896-0.992-0.896c-0.871,0-1.151,0.832-1.151,1.575c0,0.72,0.176,1.607,1.144,1.607
			c0.472,0,0.879-0.352,1-0.991h0.68c-0.072,0.664-0.48,1.599-1.703,1.599c-1.175,0-1.871-0.888-1.871-2.095
			c0-1.295,0.624-2.327,2.007-2.327c1.096,0,1.511,0.8,1.567,1.527H56.046z"/>
		<path d="M60.158,37.254v-0.607l-0.016-0.016c-0.296,0.488-0.656,0.744-1.328,0.744c-0.616,0-1.359-0.296-1.359-1.295v-3.006h0.703
			v2.774c0,0.688,0.352,0.919,0.808,0.919c0.888,0,1.151-0.784,1.151-1.391v-2.303h0.704v4.182H60.158z"/>
		<path d="M62.743,33.656v2.719c0,0.328,0.28,0.328,0.424,0.328h0.248v0.552c-0.256,0.024-0.456,0.056-0.527,0.056
			c-0.696,0-0.848-0.392-0.848-0.896v-2.759h-0.568v-0.583h0.568v-1.167h0.704v1.167h0.671v0.583H62.743z"/>
		<path d="M67.654,35.943c-0.024,0.2-0.216,0.792-0.744,1.144c-0.192,0.128-0.464,0.288-1.135,0.288
			c-1.175,0-1.871-0.888-1.871-2.095c0-1.295,0.624-2.327,2.007-2.327c1.208,0,1.799,0.959,1.799,2.439h-3.054
			c0,0.872,0.408,1.375,1.215,1.375c0.664,0,1.056-0.512,1.08-0.824H67.654z M66.982,34.832c-0.04-0.647-0.312-1.247-1.167-1.247
			c-0.648,0-1.16,0.6-1.16,1.247H66.982z"/>
	</g>
	<g>
		<path class="st2" d="M2.035,17.979H0.684v-6.464h4.601v1.143h-3.25v1.458h2.845v1.144H2.035V17.979z"/>
		<path class="st2" d="M6.183,11.515h3.142c1.584,0,1.99,0.99,1.99,1.656c0,0.927-0.522,1.188-0.792,1.324
			c0.792,0.297,1,0.927,1,1.566c0,0.513-0.216,0.999-0.558,1.333c-0.369,0.36-0.72,0.585-2.044,0.585H6.183V11.515z M7.48,14.045
			h1.584c0.531,0,0.955-0.207,0.955-0.72c0-0.531-0.378-0.693-0.99-0.693H7.48V14.045z M7.48,16.863h1.657
			c0.657,0,1.035-0.288,1.035-0.945c0-0.567-0.486-0.783-0.972-0.783H7.48V16.863z"/>
		<path class="st2" d="M17.003,18.654v0.45h-5.005v-0.45H17.003z"/>
		<path class="st2" d="M19.504,11.587c1.503,0,2.214,1.036,2.214,3.277s-0.711,3.286-2.214,3.286s-2.215-1.044-2.215-3.286
			S18.001,11.587,19.504,11.587z M19.504,17.142c0.72,0,0.918-0.63,0.918-2.277s-0.198-2.269-0.918-2.269s-0.918,0.622-0.918,2.269
			S18.784,17.142,19.504,17.142z"/>
	</g>
	<g>
		<path d="M7.757,146.627c-0.216-1.008-1.055-1.191-1.607-1.191c-1.04,0-1.879,0.768-1.879,2.279c0,1.351,0.48,2.391,1.903,2.391
			c0.504,0,1.375-0.24,1.639-1.575h0.751c-0.32,2.167-2.079,2.263-2.51,2.263c-1.303,0-2.583-0.848-2.583-3.054
			c0-1.767,1.007-2.99,2.678-2.99c1.479,0,2.247,0.919,2.359,1.879H7.757z"/>
		<path d="M11.119,146.339c1.335,0,1.943,1.127,1.943,2.207c0,1.079-0.607,2.207-1.943,2.207c-1.335,0-1.943-1.127-1.943-2.207
			C9.176,147.466,9.784,146.339,11.119,146.339z M11.119,150.145c1.008,0,1.215-1.04,1.215-1.599s-0.208-1.599-1.215-1.599
			c-1.007,0-1.215,1.04-1.215,1.599S10.111,150.145,11.119,150.145z"/>
		<path d="M13.864,146.459h0.664v0.592h0.016c0.152-0.224,0.512-0.712,1.264-0.712c0.751,0,0.991,0.456,1.111,0.68
			c0.352-0.392,0.631-0.68,1.279-0.68c0.448,0,1.295,0.232,1.295,1.407v2.895h-0.704v-2.703c0-0.576-0.176-0.967-0.775-0.967
			c-0.592,0-0.983,0.56-0.983,1.119v2.551h-0.704v-2.895c0-0.352-0.136-0.775-0.656-0.775c-0.4,0-1.104,0.256-1.104,1.391v2.279
			h-0.704V146.459z"/>
		<path d="M20.528,146.459h0.664v0.592h0.016c0.152-0.224,0.512-0.712,1.264-0.712c0.751,0,0.991,0.456,1.111,0.68
			c0.352-0.392,0.631-0.68,1.279-0.68c0.448,0,1.295,0.232,1.295,1.407v2.895h-0.704v-2.703c0-0.576-0.176-0.967-0.775-0.967
			c-0.592,0-0.983,0.56-0.983,1.119v2.551h-0.704v-2.895c0-0.352-0.136-0.775-0.656-0.775c-0.4,0-1.104,0.256-1.104,1.391v2.279
			h-0.704V146.459z"/>
		<path d="M27.168,147.73c0.032-1,0.696-1.392,1.727-1.392c0.336,0,1.551,0.096,1.551,1.167v2.407c0,0.176,0.088,0.248,0.232,0.248
			c0.064,0,0.152-0.016,0.232-0.032v0.512c-0.12,0.032-0.224,0.08-0.384,0.08c-0.624,0-0.72-0.32-0.744-0.64
			c-0.272,0.296-0.696,0.68-1.511,0.68c-0.768,0-1.311-0.488-1.311-1.208c0-0.352,0.104-1.167,1.271-1.311l1.16-0.144
			c0.167-0.016,0.368-0.08,0.368-0.496c0-0.44-0.32-0.68-0.983-0.68c-0.8,0-0.912,0.487-0.959,0.808H27.168z M29.743,148.506
			c-0.112,0.088-0.288,0.152-1.159,0.264c-0.344,0.048-0.896,0.152-0.896,0.68c0,0.456,0.231,0.728,0.759,0.728
			c0.656,0,1.295-0.424,1.295-0.983V148.506z"/>
		<path d="M35.046,150.641h-0.704v-2.575c0-0.728-0.208-1.095-0.896-1.095c-0.4,0-1.104,0.256-1.104,1.391v2.279H31.64v-4.182h0.664
			v0.592h0.016c0.152-0.224,0.544-0.712,1.264-0.712c0.647,0,1.463,0.264,1.463,1.455V150.641z"/>
		<path d="M39.559,150.641h-0.664v-0.576h-0.016c-0.304,0.568-0.784,0.696-1.191,0.696c-1.423,0-1.839-1.335-1.839-2.335
			c0-1.175,0.632-2.087,1.743-2.087c0.759,0,1.08,0.472,1.247,0.712l0.016-0.056V144.9h0.704V150.641z M37.704,150.153
			c0.448,0,1.144-0.296,1.144-1.407c0-0.68-0.112-1.775-1.127-1.775c-1.087,0-1.144,1.031-1.144,1.567
			C36.576,149.457,36.936,150.153,37.704,150.153z"/>
		<path d="M41.528,148.97l-0.6,1.671h-0.8l2.159-5.741h0.88l2.079,5.741h-0.847l-0.568-1.671H41.528z M43.551,148.282l-0.848-2.526
			h-0.016l-0.919,2.526H43.551z"/>
		<path d="M45.817,150.641V144.9h0.704v2.087h0.016c0.304-0.44,0.719-0.64,1.207-0.648c1.111,0,1.743,0.912,1.743,2.087
			c0,1-0.416,2.335-1.839,2.335c-0.712,0-1.008-0.408-1.151-0.64h-0.016v0.52H45.817z M47.616,146.971
			c-1.016,0-1.127,1.095-1.127,1.775c0,1.111,0.696,1.407,1.144,1.407c0.768,0,1.127-0.696,1.127-1.615
			C48.759,148.002,48.703,146.971,47.616,146.971z"/>
		<path d="M52.024,146.339c1.335,0,1.943,1.127,1.943,2.207c0,1.079-0.607,2.207-1.943,2.207c-1.335,0-1.943-1.127-1.943-2.207
			C50.081,147.466,50.689,146.339,52.024,146.339z M52.024,150.145c1.008,0,1.215-1.04,1.215-1.599s-0.208-1.599-1.215-1.599
			c-1.007,0-1.215,1.04-1.215,1.599S51.017,150.145,52.024,150.145z"/>
		<path d="M55.569,150.641h-0.704v-4.182h0.664v0.695h0.016c0.28-0.487,0.647-0.815,1.175-0.815c0.088,0,0.128,0.008,0.184,0.024
			v0.728H56.64c-0.656,0-1.071,0.512-1.071,1.119V150.641z"/>
		<path d="M58.297,147.042v2.719c0,0.328,0.28,0.328,0.424,0.328h0.248v0.552c-0.256,0.024-0.456,0.056-0.527,0.056
			c-0.696,0-0.848-0.392-0.848-0.896v-2.759h-0.568v-0.583h0.568v-1.167h0.704v1.167h0.671v0.583H58.297z"/>
		<path d="M63.208,149.329c-0.024,0.2-0.216,0.792-0.744,1.144c-0.192,0.128-0.464,0.288-1.135,0.288
			c-1.175,0-1.871-0.888-1.871-2.095c0-1.295,0.624-2.327,2.007-2.327c1.208,0,1.799,0.959,1.799,2.439h-3.054
			c0,0.872,0.408,1.375,1.215,1.375c0.664,0,1.056-0.512,1.08-0.824H63.208z M62.536,148.218c-0.04-0.647-0.312-1.247-1.167-1.247
			c-0.648,0-1.16,0.6-1.16,1.247H62.536z"/>
		<path d="M67.575,150.641h-0.664v-0.576h-0.016c-0.304,0.568-0.784,0.696-1.191,0.696c-1.423,0-1.839-1.335-1.839-2.335
			c0-1.175,0.632-2.087,1.743-2.087c0.759,0,1.08,0.472,1.247,0.712l0.016-0.056V144.9h0.704V150.641z M65.72,150.153
			c0.448,0,1.144-0.296,1.144-1.407c0-0.68-0.112-1.775-1.127-1.775c-1.087,0-1.144,1.031-1.144,1.567
			C64.593,149.457,64.953,150.153,65.72,150.153z"/>
	</g>
	<g>
		<path d="M49.559,59.86h2.327c1.495,0,2.415,1.135,2.415,2.791c0,1.287-0.56,2.95-2.447,2.95h-2.295V59.86z M50.335,64.937h1.503
			c1.007,0,1.663-0.792,1.663-2.239s-0.664-2.175-1.719-2.175h-1.447V64.937z"/>
		<path d="M56.91,61.299c1.335,0,1.943,1.127,1.943,2.207c0,1.079-0.607,2.207-1.943,2.207c-1.335,0-1.943-1.127-1.943-2.207
			C54.967,62.426,55.575,61.299,56.91,61.299z M56.91,65.105c1.007,0,1.215-1.04,1.215-1.599s-0.208-1.599-1.215-1.599
			s-1.215,1.04-1.215,1.599S55.903,65.105,56.91,65.105z"/>
		<path d="M63.061,65.601h-0.704v-2.575c0-0.728-0.208-1.095-0.896-1.095c-0.4,0-1.104,0.256-1.104,1.391v2.279h-0.704v-4.182h0.664
			v0.592h0.016c0.152-0.224,0.544-0.712,1.264-0.712c0.647,0,1.463,0.264,1.463,1.455V65.601z"/>
		<path d="M67.653,64.289c-0.024,0.2-0.216,0.792-0.744,1.144c-0.192,0.128-0.464,0.288-1.135,0.288
			c-1.175,0-1.871-0.888-1.871-2.095c0-1.295,0.624-2.327,2.007-2.327c1.208,0,1.799,0.959,1.799,2.439h-3.055
			c0,0.872,0.408,1.375,1.215,1.375c0.664,0,1.056-0.512,1.08-0.824H67.653z M66.982,63.178c-0.04-0.647-0.312-1.247-1.167-1.247
			c-0.648,0-1.16,0.6-1.16,1.247H66.982z"/>
	</g>
	<g>
		<path d="M50.839,88.207h2.526c1.071,0,1.623,0.664,1.623,1.447c0,0.375-0.136,0.903-0.768,1.199
			c0.376,0.152,1.04,0.416,1.04,1.399c0,0.92-0.68,1.695-1.951,1.695h-2.471V88.207z M51.615,90.637h1.399
			c0.744,0,1.199-0.224,1.199-0.928c0-0.536-0.328-0.839-1.191-0.839h-1.407V90.637z M51.615,93.284h1.655
			c0.808,0,1.215-0.408,1.215-1.047c0-0.808-0.712-0.968-1.343-0.968h-1.527V93.284z"/>
		<path d="M58.83,93.947V93.34l-0.016-0.016c-0.296,0.488-0.656,0.744-1.328,0.744c-0.616,0-1.359-0.296-1.359-1.295v-3.006h0.703
			v2.774c0,0.688,0.352,0.919,0.808,0.919c0.888,0,1.151-0.784,1.151-1.391v-2.303h0.704v4.182H58.83z"/>
		<path d="M62.926,90.957c-0.008-0.264-0.104-0.704-0.992-0.704c-0.216,0-0.832,0.072-0.832,0.591c0,0.344,0.216,0.424,0.76,0.56
			l0.704,0.176c0.872,0.216,1.175,0.536,1.175,1.104c0,0.863-0.711,1.383-1.655,1.383c-1.655,0-1.775-0.959-1.799-1.463h0.68
			c0.024,0.328,0.12,0.855,1.111,0.855c0.504,0,0.959-0.2,0.959-0.664c0-0.336-0.232-0.448-0.832-0.6l-0.815-0.2
			c-0.584-0.144-0.968-0.439-0.968-1.015c0-0.919,0.76-1.335,1.583-1.335c1.495,0,1.599,1.104,1.599,1.312H62.926z"/>
		<path d="M67.166,89.766h0.775c-0.488,1.367-0.967,2.734-1.503,4.102c-0.664,1.695-0.736,1.791-1.639,1.791
			c-0.104,0-0.184-0.032-0.296-0.064v-0.64c0.088,0.032,0.232,0.072,0.424,0.072c0.368,0,0.408-0.104,0.744-0.968l-1.551-4.293h0.8
			l1.111,3.406h0.016L67.166,89.766z"/>
	</g>
	<g>
		<path d="M47.759,120.623l-0.6,1.671h-0.8l2.159-5.741h0.879l2.079,5.741h-0.848l-0.567-1.671H47.759z M49.782,119.935
			l-0.848-2.526h-0.016l-0.919,2.526H49.782z"/>
		<path d="M54.718,119.52c-0.088-0.56-0.4-0.896-0.991-0.896c-0.872,0-1.151,0.832-1.151,1.575c0,0.72,0.176,1.607,1.143,1.607
			c0.472,0,0.879-0.352,1-0.991h0.68c-0.072,0.664-0.48,1.599-1.703,1.599c-1.175,0-1.871-0.888-1.871-2.095
			c0-1.295,0.624-2.327,2.007-2.327c1.096,0,1.511,0.8,1.567,1.527H54.718z"/>
		<path d="M56.967,118.696v2.719c0,0.328,0.28,0.328,0.424,0.328h0.248v0.552c-0.256,0.024-0.456,0.056-0.527,0.056
			c-0.696,0-0.848-0.392-0.848-0.896v-2.759h-0.568v-0.583h0.568v-1.167h0.704v1.167h0.671v0.583H56.967z"/>
		<path d="M58.344,117.353v-0.799h0.704v0.799H58.344z M59.047,122.294h-0.704v-4.182h0.704V122.294z"/>
		<path d="M62.751,118.112h0.768l-1.591,4.182h-0.751l-1.527-4.182h0.815l1.087,3.406h0.016L62.751,118.112z"/>
		<path d="M67.654,120.982c-0.024,0.2-0.216,0.792-0.744,1.144c-0.192,0.128-0.464,0.288-1.135,0.288
			c-1.175,0-1.871-0.888-1.871-2.095c0-1.295,0.624-2.327,2.007-2.327c1.208,0,1.799,0.959,1.799,2.439h-3.054
			c0,0.872,0.408,1.375,1.215,1.375c0.664,0,1.056-0.512,1.08-0.824H67.654z M66.982,119.871c-0.04-0.647-0.312-1.247-1.167-1.247
			c-0.648,0-1.16,0.6-1.16,1.247H66.982z"/>
	</g>
	<g>
		<path d="M82.534,0.779c-0.68,1.279-1.087,2.047-1.087,3.966c0,1.319,0.456,2.295,1.095,3.55H82.07
			c-0.832-1.248-1.375-2.247-1.375-3.742c0-1.407,0.487-2.542,1.351-3.774H82.534z"/>
		<path d="M85.686,6.64h-0.752V2.65h-1.311v-0.56c0.912-0.064,1.287-0.152,1.511-1.072h0.552V6.64z"/>
		<path d="M87.544,8.295c0.68-1.279,1.087-2.047,1.087-3.966c0-1.319-0.456-2.295-1.095-3.55h0.472
			c0.832,1.248,1.375,2.247,1.375,3.742c0,1.407-0.488,2.542-1.351,3.774H87.544z"/>
	</g>
	<g>
		<path d="M150.565,0.779c-0.68,1.279-1.087,2.047-1.087,3.966c0,1.319,0.456,2.295,1.095,3.55h-0.472
			c-0.832-1.248-1.375-2.247-1.375-3.742c0-1.407,0.487-2.542,1.351-3.774H150.565z"/>
		<path d="M151.198,3.034c0-1.831,1.335-2.015,1.943-2.015c0.975,0,1.759,0.632,1.759,1.679c0,1.007-0.664,1.431-1.503,1.879
			l-0.584,0.32c-0.768,0.424-0.936,0.864-0.967,1.08h3.054V6.64h-3.846c0.04-1.167,0.567-1.791,1.319-2.231l0.743-0.432
			c0.6-0.344,1.032-0.576,1.032-1.311c0-0.448-0.288-1.016-1.111-1.016c-1.063,0-1.111,0.991-1.135,1.383H151.198z"/>
		<path d="M155.575,8.295c0.68-1.279,1.087-2.047,1.087-3.966c0-1.319-0.456-2.295-1.095-3.55h0.472
			c0.832,1.248,1.375,2.247,1.375,3.742c0,1.407-0.488,2.542-1.351,3.774H155.575z"/>
	</g>
	<g>
		<path d="M292.298,0.779c-0.68,1.279-1.087,2.047-1.087,3.966c0,1.319,0.455,2.295,1.095,3.55h-0.472
			c-0.831-1.248-1.375-2.247-1.375-3.742c0-1.407,0.487-2.542,1.352-3.774H292.298z"/>
		<path d="M294.37,3.442c0.12,0.008,0.248,0.016,0.368,0.016c0.544,0,1.071-0.216,1.071-0.919c0-0.336-0.2-0.888-1.039-0.888
			c-1,0-1.063,0.815-1.096,1.208h-0.688c0-0.824,0.336-1.839,1.814-1.839c1.088,0,1.735,0.624,1.735,1.479
			c0,0.72-0.416,1.063-0.72,1.159v0.016c0.544,0.176,0.936,0.56,0.936,1.311c0,0.92-0.592,1.807-2.022,1.807
			c-0.416,0-0.768-0.104-1.04-0.248c-0.623-0.328-0.791-0.976-0.839-1.624h0.728c0.023,0.528,0.151,1.24,1.199,1.24
			c0.72,0,1.223-0.44,1.223-1.088c0-0.943-0.831-1.031-1.311-1.031c-0.104,0-0.216,0.008-0.32,0.008V3.442z"/>
		<path d="M297.308,8.295c0.68-1.279,1.087-2.047,1.087-3.966c0-1.319-0.455-2.295-1.095-3.55h0.472
			c0.831,1.248,1.375,2.247,1.375,3.742c0,1.407-0.488,2.542-1.352,3.774H297.308z"/>
	</g>
	<g>
		<path d="M303.637,0.779c-0.68,1.279-1.087,2.047-1.087,3.966c0,1.319,0.455,2.295,1.095,3.55h-0.472
			c-0.831-1.248-1.375-2.247-1.375-3.742c0-1.407,0.487-2.542,1.352-3.774H303.637z"/>
		<path d="M307.276,5.273V6.64h-0.704V5.273h-2.454V4.585l2.574-3.566h0.584v3.646h0.823v0.608H307.276z M304.766,4.665h1.807v-2.55
			h-0.016L304.766,4.665z"/>
		<path d="M308.647,8.295c0.68-1.279,1.087-2.047,1.087-3.966c0-1.319-0.455-2.295-1.095-3.55h0.472
			c0.831,1.248,1.375,2.247,1.375,3.742c0,1.407-0.488,2.542-1.352,3.774H308.647z"/>
	</g>
	<g>
		<path d="M326.314,0.779c-0.68,1.279-1.087,2.047-1.087,3.966c0,1.319,0.455,2.295,1.095,3.55h-0.472
			c-0.831-1.248-1.375-2.247-1.375-3.742c0-1.407,0.487-2.542,1.352-3.774H326.314z"/>
		<path d="M327.771,3.37c0.239-0.184,0.583-0.352,1.087-0.352c0.912,0,1.848,0.64,1.848,1.799c0,0.624-0.28,1.975-2.039,1.975
			c-0.735,0-1.68-0.296-1.815-1.551h0.728c0.072,0.656,0.56,0.944,1.191,0.944c0.728,0,1.184-0.584,1.184-1.288
			c0-0.808-0.552-1.247-1.247-1.247c-0.408,0-0.775,0.192-1.04,0.536l-0.607-0.032l0.424-3.014h2.91v0.688h-2.383L327.771,3.37z"/>
		<path d="M331.323,8.295c0.68-1.279,1.087-2.047,1.087-3.966c0-1.319-0.455-2.295-1.095-3.55h0.472
			c0.831,1.248,1.375,2.247,1.375,3.742c0,1.407-0.488,2.542-1.352,3.774H331.323z"/>
	</g>
	<g>
		<path d="M44.053,213.001h-4.238v-5.74h4.182v0.688h-3.406v1.759h3.142v0.688h-3.142v1.919h3.462V213.001z"/>
		<path d="M48.382,213.001h-0.896l-1.04-1.575l-1.007,1.575h-0.888l1.471-2.15l-1.399-2.031h0.904l0.967,1.472l0.968-1.472h0.863
			l-1.415,2.031L48.382,213.001z"/>
		<path d="M52.534,211.69c-0.024,0.2-0.216,0.792-0.744,1.144c-0.192,0.128-0.464,0.288-1.135,0.288
			c-1.175,0-1.871-0.888-1.871-2.095c0-1.295,0.624-2.327,2.007-2.327c1.208,0,1.799,0.96,1.799,2.439h-3.054
			c0,0.871,0.408,1.375,1.215,1.375c0.664,0,1.056-0.512,1.08-0.824H52.534z M51.862,210.579c-0.04-0.647-0.312-1.247-1.167-1.247
			c-0.648,0-1.16,0.6-1.16,1.247H51.862z"/>
		<path d="M56.046,210.227c-0.088-0.56-0.4-0.896-0.992-0.896c-0.871,0-1.151,0.832-1.151,1.575c0,0.72,0.176,1.607,1.144,1.607
			c0.472,0,0.879-0.352,1-0.991h0.68c-0.072,0.663-0.48,1.599-1.703,1.599c-1.175,0-1.871-0.888-1.871-2.095
			c0-1.295,0.624-2.327,2.007-2.327c1.096,0,1.511,0.8,1.567,1.527H56.046z"/>
		<path d="M60.158,213.001v-0.607l-0.016-0.016c-0.296,0.487-0.656,0.743-1.328,0.743c-0.616,0-1.359-0.296-1.359-1.295v-3.007
			h0.703v2.774c0,0.688,0.352,0.92,0.808,0.92c0.888,0,1.151-0.784,1.151-1.392v-2.303h0.704v4.182H60.158z"/>
		<path d="M62.743,209.404v2.719c0,0.327,0.28,0.327,0.424,0.327h0.248v0.552c-0.256,0.024-0.456,0.057-0.527,0.057
			c-0.696,0-0.848-0.393-0.848-0.896v-2.759h-0.568v-0.584h0.568v-1.167h0.704v1.167h0.671v0.584H62.743z"/>
		<path d="M67.654,211.69c-0.024,0.2-0.216,0.792-0.744,1.144c-0.192,0.128-0.464,0.288-1.135,0.288
			c-1.175,0-1.871-0.888-1.871-2.095c0-1.295,0.624-2.327,2.007-2.327c1.208,0,1.799,0.96,1.799,2.439h-3.054
			c0,0.871,0.408,1.375,1.215,1.375c0.664,0,1.056-0.512,1.08-0.824H67.654z M66.982,210.579c-0.04-0.647-0.312-1.247-1.167-1.247
			c-0.648,0-1.16,0.6-1.16,1.247H66.982z"/>
	</g>
	<g>
		<path class="st2" d="M2.035,188.057H0.684v-6.464h4.601v1.143h-3.25v1.459h2.845v1.144H2.035V188.057z"/>
		<path class="st2" d="M6.183,181.593h3.142c1.584,0,1.99,0.99,1.99,1.656c0,0.927-0.522,1.188-0.792,1.323
			c0.792,0.297,1,0.928,1,1.566c0,0.514-0.216,0.999-0.558,1.333c-0.369,0.359-0.72,0.585-2.044,0.585H6.183V181.593z M7.48,184.123
			h1.584c0.531,0,0.955-0.207,0.955-0.72c0-0.531-0.378-0.693-0.99-0.693H7.48V184.123z M7.48,186.941h1.657
			c0.657,0,1.035-0.288,1.035-0.945c0-0.567-0.486-0.783-0.972-0.783H7.48V186.941z"/>
		<path class="st2" d="M17.003,188.732v0.45h-5.005v-0.45H17.003z"/>
		<path class="st2" d="M17.622,182.772h0.18c1.215,0,1.54-0.63,1.566-1.107h1.035v6.393h-1.26v-4.402h-1.521V182.772z"/>
		<path class="st2" d="M23.904,189.929c-0.801-1.08-1.584-2.467-1.584-4.222c0-1.756,0.748-3.143,1.584-4.259h0.927
			c-0.693,1.18-1.215,2.395-1.215,4.259c0,1.863,0.558,3.078,1.215,4.222H23.904z"/>
		<path class="st2" d="M26.605,188.057h-1.422l2.305-6.464h1.557l2.278,6.464h-1.467l-0.414-1.333h-2.386L26.605,188.057z
			 M27.415,185.608h1.647l-0.801-2.557h-0.018L27.415,185.608z"/>
		<path class="st2" d="M33.31,183.888h0.018c0.198-0.306,0.576-0.747,1.386-0.747c1.053,0,1.99,0.811,1.99,2.467
			c0,1.314-0.594,2.575-2.017,2.575c-0.522,0-1.081-0.189-1.386-0.729h-0.018v0.604h-1.233v-6.464h1.26V183.888z M34.336,184.231
			c-0.864,0-1.081,0.774-1.081,1.539c0,0.711,0.315,1.378,1.117,1.378c0.81,0,1.035-0.883,1.035-1.45
			C35.407,184.942,35.137,184.231,34.336,184.231z"/>
		<path class="st2" d="M39.754,188.183c-1.288,0-2.449-0.792-2.449-2.521s1.161-2.521,2.449-2.521c1.287,0,2.449,0.793,2.449,2.521
			S41.041,188.183,39.754,188.183z M39.754,184.204c-0.972,0-1.152,0.847-1.152,1.459c0,0.611,0.18,1.458,1.152,1.458
			s1.152-0.847,1.152-1.458C40.906,185.05,40.726,184.204,39.754,184.204z"/>
		<path class="st2" d="M43.074,183.267h1.207v0.829h0.018c0.261-0.486,0.549-0.955,1.314-0.955c0.081,0,0.162,0.01,0.243,0.019
			v1.278c-0.108-0.019-0.243-0.019-0.36-0.019c-0.981,0-1.162,0.612-1.162,1.144v2.494h-1.26V183.267z"/>
		<path class="st2" d="M47.998,183.267h0.783v0.9h-0.783v2.602c0,0.279,0.009,0.388,0.522,0.388c0.081,0,0.171-0.009,0.261-0.019
			v0.955c-0.198,0.009-0.396,0.018-0.594,0.018h-0.162c-1.089,0-1.287-0.414-1.287-1.035v-2.908h-0.648v-0.9h0.648v-1.296h1.26
			V183.267z"/>
		<path class="st2" d="M50.878,182.701h-1.26v-1.171h1.26V182.701z M50.878,183.267v4.79h-1.26v-4.79H50.878z"/>
		<path class="st2" d="M56.414,188.057h-1.26v-2.908c0-0.351-0.018-0.945-0.819-0.945c-0.558,0-0.99,0.378-0.99,1.107v2.746h-1.261
			v-4.79h1.207v0.702h0.018c0.171-0.288,0.531-0.828,1.44-0.828c0.936,0,1.666,0.55,1.666,1.603V188.057z"/>
		<path class="st2" d="M61.976,183.267v4.538c0,0.828-0.063,2.205-2.422,2.205c-0.99,0-2.035-0.423-2.088-1.44h1.368
			c0.054,0.243,0.153,0.486,0.882,0.486c0.675,0,1-0.324,1-1.099v-0.576l-0.018-0.018c-0.207,0.369-0.522,0.72-1.278,0.72
			c-1.152,0-2.062-0.801-2.062-2.476c0-1.656,0.936-2.467,1.989-2.467c0.892,0,1.251,0.522,1.404,0.838h0.018v-0.712H61.976z
			 M59.653,187.022c0.855,0,1.071-0.729,1.071-1.387c0-0.774-0.378-1.404-1.08-1.404c-0.468,0-0.991,0.342-0.991,1.458
			C58.653,186.301,58.906,187.022,59.653,187.022z"/>
		<path class="st2" d="M63.594,181.449c0.801,1.08,1.584,2.467,1.584,4.223c0,1.755-0.747,3.142-1.584,4.258h-0.927
			c0.693-1.179,1.215-2.395,1.215-4.258s-0.558-3.079-1.215-4.223H63.594z"/>
	</g>
	<g>
		<path d="M7.757,322.375c-0.216-1.008-1.055-1.191-1.607-1.191c-1.04,0-1.879,0.768-1.879,2.278c0,1.352,0.48,2.391,1.903,2.391
			c0.504,0,1.375-0.239,1.639-1.575h0.751c-0.32,2.167-2.079,2.263-2.51,2.263c-1.303,0-2.583-0.848-2.583-3.054
			c0-1.768,1.007-2.99,2.678-2.99c1.479,0,2.247,0.919,2.359,1.879H7.757z"/>
		<path d="M11.119,322.086c1.335,0,1.943,1.127,1.943,2.207c0,1.079-0.607,2.206-1.943,2.206c-1.335,0-1.943-1.127-1.943-2.206
			C9.176,323.213,9.784,322.086,11.119,322.086z M11.119,325.892c1.008,0,1.215-1.039,1.215-1.599s-0.208-1.6-1.215-1.6
			c-1.007,0-1.215,1.04-1.215,1.6S10.111,325.892,11.119,325.892z"/>
		<path d="M13.864,322.207h0.664v0.592h0.016c0.152-0.225,0.512-0.712,1.264-0.712c0.751,0,0.991,0.456,1.111,0.68
			c0.352-0.392,0.631-0.68,1.279-0.68c0.448,0,1.295,0.231,1.295,1.407v2.895h-0.704v-2.703c0-0.575-0.176-0.967-0.775-0.967
			c-0.592,0-0.983,0.56-0.983,1.119v2.551h-0.704v-2.895c0-0.352-0.136-0.775-0.656-0.775c-0.4,0-1.104,0.256-1.104,1.391v2.279
			h-0.704V322.207z"/>
		<path d="M20.528,322.207h0.664v0.592h0.016c0.152-0.225,0.512-0.712,1.264-0.712c0.751,0,0.991,0.456,1.111,0.68
			c0.352-0.392,0.631-0.68,1.279-0.68c0.448,0,1.295,0.231,1.295,1.407v2.895h-0.704v-2.703c0-0.575-0.176-0.967-0.775-0.967
			c-0.592,0-0.983,0.56-0.983,1.119v2.551h-0.704v-2.895c0-0.352-0.136-0.775-0.656-0.775c-0.4,0-1.104,0.256-1.104,1.391v2.279
			h-0.704V322.207z"/>
		<path d="M27.168,323.478c0.032-1,0.696-1.392,1.727-1.392c0.336,0,1.551,0.096,1.551,1.167v2.407c0,0.176,0.088,0.248,0.232,0.248
			c0.064,0,0.152-0.017,0.232-0.032v0.512c-0.12,0.032-0.224,0.08-0.384,0.08c-0.624,0-0.72-0.32-0.744-0.64
			c-0.272,0.296-0.696,0.68-1.511,0.68c-0.768,0-1.311-0.488-1.311-1.208c0-0.352,0.104-1.167,1.271-1.311l1.16-0.145
			c0.167-0.016,0.368-0.08,0.368-0.495c0-0.44-0.32-0.68-0.983-0.68c-0.8,0-0.912,0.487-0.959,0.808H27.168z M29.743,324.253
			c-0.112,0.088-0.288,0.151-1.159,0.264c-0.344,0.048-0.896,0.151-0.896,0.68c0,0.456,0.231,0.728,0.759,0.728
			c0.656,0,1.295-0.424,1.295-0.983V324.253z"/>
		<path d="M35.046,326.388h-0.704v-2.575c0-0.728-0.208-1.095-0.896-1.095c-0.4,0-1.104,0.256-1.104,1.391v2.279H31.64v-4.182h0.664
			v0.592h0.016c0.152-0.225,0.544-0.712,1.264-0.712c0.647,0,1.463,0.264,1.463,1.455V326.388z"/>
		<path d="M39.559,326.388h-0.664v-0.576h-0.016c-0.304,0.568-0.784,0.696-1.191,0.696c-1.423,0-1.839-1.336-1.839-2.335
			c0-1.176,0.632-2.087,1.743-2.087c0.759,0,1.08,0.472,1.247,0.712l0.016-0.057v-2.095h0.704V326.388z M37.704,325.9
			c0.448,0,1.144-0.296,1.144-1.407c0-0.68-0.112-1.774-1.127-1.774c-1.087,0-1.144,1.031-1.144,1.566
			C36.576,325.205,36.936,325.9,37.704,325.9z"/>
		<path d="M41.528,324.717l-0.6,1.671h-0.8l2.159-5.741h0.88l2.079,5.741h-0.847l-0.568-1.671H41.528z M43.551,324.029l-0.848-2.526
			h-0.016l-0.919,2.526H43.551z"/>
		<path d="M45.817,326.388v-5.741h0.704v2.087h0.016c0.304-0.439,0.719-0.64,1.207-0.647c1.111,0,1.743,0.911,1.743,2.087
			c0,0.999-0.416,2.335-1.839,2.335c-0.712,0-1.008-0.408-1.151-0.64h-0.016v0.52H45.817z M47.616,322.718
			c-1.016,0-1.127,1.095-1.127,1.774c0,1.111,0.696,1.407,1.144,1.407c0.768,0,1.127-0.695,1.127-1.615
			C48.759,323.75,48.703,322.718,47.616,322.718z"/>
		<path d="M52.024,322.086c1.335,0,1.943,1.127,1.943,2.207c0,1.079-0.607,2.206-1.943,2.206c-1.335,0-1.943-1.127-1.943-2.206
			C50.081,323.213,50.689,322.086,52.024,322.086z M52.024,325.892c1.008,0,1.215-1.039,1.215-1.599s-0.208-1.6-1.215-1.6
			c-1.007,0-1.215,1.04-1.215,1.6S51.017,325.892,52.024,325.892z"/>
		<path d="M55.569,326.388h-0.704v-4.182h0.664v0.695h0.016c0.28-0.487,0.647-0.815,1.175-0.815c0.088,0,0.128,0.008,0.184,0.023
			v0.729H56.64c-0.656,0-1.071,0.512-1.071,1.119V326.388z"/>
		<path d="M58.297,322.79v2.719c0,0.328,0.28,0.328,0.424,0.328h0.248v0.552c-0.256,0.023-0.456,0.056-0.527,0.056
			c-0.696,0-0.848-0.392-0.848-0.896v-2.759h-0.568v-0.583h0.568v-1.168h0.704v1.168h0.671v0.583H58.297z"/>
		<path d="M63.208,325.077c-0.024,0.2-0.216,0.792-0.744,1.144c-0.192,0.128-0.464,0.288-1.135,0.288
			c-1.175,0-1.871-0.888-1.871-2.096c0-1.295,0.624-2.326,2.007-2.326c1.208,0,1.799,0.959,1.799,2.438h-3.054
			c0,0.872,0.408,1.375,1.215,1.375c0.664,0,1.056-0.512,1.08-0.823H63.208z M62.536,323.965c-0.04-0.647-0.312-1.247-1.167-1.247
			c-0.648,0-1.16,0.6-1.16,1.247H62.536z"/>
		<path d="M67.575,326.388h-0.664v-0.576h-0.016c-0.304,0.568-0.784,0.696-1.191,0.696c-1.423,0-1.839-1.336-1.839-2.335
			c0-1.176,0.632-2.087,1.743-2.087c0.759,0,1.08,0.472,1.247,0.712l0.016-0.057v-2.095h0.704V326.388z M65.72,325.9
			c0.448,0,1.144-0.296,1.144-1.407c0-0.68-0.112-1.774-1.127-1.774c-1.087,0-1.144,1.031-1.144,1.566
			C64.593,325.205,64.953,325.9,65.72,325.9z"/>
	</g>
	<g>
		<g>
			<path d="M48.974,362.012c-0.04-0.888-0.776-1.168-1.423-1.168c-0.488,0-1.311,0.136-1.311,1.008c0,0.487,0.344,0.647,0.679,0.728
				l1.639,0.376c0.744,0.176,1.303,0.623,1.303,1.535c0,1.359-1.263,1.734-2.247,1.734c-1.063,0-1.479-0.319-1.735-0.552
				c-0.488-0.439-0.584-0.919-0.584-1.455h0.728c0,1.04,0.848,1.344,1.583,1.344c0.56,0,1.503-0.145,1.503-0.968
				c0-0.6-0.28-0.791-1.223-1.016l-1.175-0.271c-0.376-0.088-1.224-0.352-1.224-1.352c0-0.896,0.584-1.774,1.975-1.774
				c2.007,0,2.207,1.199,2.239,1.831H48.974z"/>
			<path d="M50.704,361.892h0.664v0.592h0.016c0.168-0.24,0.487-0.712,1.247-0.712c1.111,0,1.743,0.911,1.743,2.087
				c0,0.999-0.416,2.335-1.839,2.335c-0.56,0-0.928-0.265-1.111-0.561h-0.016v2.096h-0.704V361.892z M52.519,365.585
				c0.768,0,1.127-0.695,1.127-1.615c0-0.535-0.056-1.566-1.144-1.566c-1.016,0-1.127,1.095-1.127,1.774
				C51.375,365.29,52.071,365.585,52.519,365.585z"/>
			<path d="M58.758,364.762c-0.024,0.2-0.216,0.792-0.744,1.144c-0.192,0.128-0.464,0.288-1.135,0.288
				c-1.175,0-1.871-0.888-1.871-2.096c0-1.295,0.624-2.326,2.007-2.326c1.208,0,1.799,0.959,1.799,2.438h-3.055
				c0,0.872,0.408,1.375,1.215,1.375c0.664,0,1.056-0.512,1.08-0.823H58.758z M58.086,363.651c-0.04-0.647-0.312-1.247-1.167-1.247
				c-0.648,0-1.16,0.6-1.16,1.247H58.086z"/>
			<path d="M63.206,364.762c-0.024,0.2-0.216,0.792-0.744,1.144c-0.192,0.128-0.464,0.288-1.135,0.288
				c-1.175,0-1.871-0.888-1.871-2.096c0-1.295,0.624-2.326,2.007-2.326c1.208,0,1.799,0.959,1.799,2.438h-3.055
				c0,0.872,0.408,1.375,1.215,1.375c0.664,0,1.056-0.512,1.08-0.823H63.206z M62.534,363.651c-0.04-0.647-0.312-1.247-1.167-1.247
				c-0.648,0-1.16,0.6-1.16,1.247H62.534z"/>
			<path d="M67.574,366.074h-0.664v-0.576h-0.016c-0.304,0.568-0.784,0.696-1.191,0.696c-1.423,0-1.839-1.336-1.839-2.335
				c0-1.176,0.632-2.087,1.743-2.087c0.759,0,1.08,0.472,1.247,0.712l0.016-0.057v-2.095h0.704V366.074z M65.719,365.585
				c0.448,0,1.144-0.296,1.144-1.407c0-0.68-0.112-1.774-1.127-1.774c-1.087,0-1.144,1.031-1.144,1.566
				C64.592,364.89,64.952,365.585,65.719,365.585z"/>
		</g>
	</g>
	<g>
		<path d="M49.559,235.607h2.327c1.495,0,2.415,1.136,2.415,2.791c0,1.287-0.56,2.95-2.447,2.95h-2.295V235.607z M50.335,240.684
			h1.503c1.007,0,1.663-0.791,1.663-2.238s-0.664-2.175-1.719-2.175h-1.447V240.684z"/>
		<path d="M56.91,237.046c1.335,0,1.943,1.127,1.943,2.207c0,1.079-0.607,2.206-1.943,2.206c-1.335,0-1.943-1.127-1.943-2.206
			C54.967,238.173,55.575,237.046,56.91,237.046z M56.91,240.852c1.007,0,1.215-1.039,1.215-1.599s-0.208-1.6-1.215-1.6
			s-1.215,1.04-1.215,1.6S55.903,240.852,56.91,240.852z"/>
		<path d="M63.061,241.348h-0.704v-2.575c0-0.728-0.208-1.095-0.896-1.095c-0.4,0-1.104,0.256-1.104,1.391v2.279h-0.704v-4.182
			h0.664v0.592h0.016c0.152-0.225,0.544-0.712,1.264-0.712c0.647,0,1.463,0.264,1.463,1.455V241.348z"/>
		<path d="M67.653,240.037c-0.024,0.2-0.216,0.792-0.744,1.144c-0.192,0.128-0.464,0.288-1.135,0.288
			c-1.175,0-1.871-0.888-1.871-2.096c0-1.295,0.624-2.326,2.007-2.326c1.208,0,1.799,0.959,1.799,2.438h-3.055
			c0,0.872,0.408,1.375,1.215,1.375c0.664,0,1.056-0.512,1.08-0.823H67.653z M66.982,238.925c-0.04-0.647-0.312-1.247-1.167-1.247
			c-0.648,0-1.16,0.6-1.16,1.247H66.982z"/>
	</g>
	<g>
		<path d="M50.839,263.954h2.526c1.071,0,1.623,0.664,1.623,1.447c0,0.376-0.136,0.903-0.768,1.199
			c0.376,0.152,1.04,0.416,1.04,1.399c0,0.92-0.68,1.695-1.951,1.695h-2.471V263.954z M51.615,266.384h1.399
			c0.744,0,1.199-0.224,1.199-0.928c0-0.535-0.328-0.839-1.191-0.839h-1.407V266.384z M51.615,269.031h1.655
			c0.808,0,1.215-0.407,1.215-1.047c0-0.808-0.712-0.968-1.343-0.968h-1.527V269.031z"/>
		<path d="M58.83,269.695v-0.607l-0.016-0.017c-0.296,0.488-0.656,0.744-1.328,0.744c-0.616,0-1.359-0.296-1.359-1.296v-3.006h0.703
			v2.774c0,0.688,0.352,0.919,0.808,0.919c0.888,0,1.151-0.783,1.151-1.391v-2.303h0.704v4.182H58.83z"/>
		<path d="M62.926,266.705C62.918,266.44,62.822,266,61.935,266c-0.216,0-0.832,0.072-0.832,0.592c0,0.344,0.216,0.424,0.76,0.56
			l0.704,0.176c0.872,0.216,1.175,0.536,1.175,1.104c0,0.863-0.711,1.384-1.655,1.384c-1.655,0-1.775-0.96-1.799-1.464h0.68
			c0.024,0.328,0.12,0.855,1.111,0.855c0.504,0,0.959-0.199,0.959-0.663c0-0.336-0.232-0.448-0.832-0.6l-0.815-0.2
			c-0.584-0.144-0.968-0.439-0.968-1.016c0-0.919,0.76-1.335,1.583-1.335c1.495,0,1.599,1.104,1.599,1.312H62.926z"/>
		<path d="M67.166,265.513h0.775c-0.488,1.367-0.967,2.734-1.503,4.102c-0.664,1.695-0.736,1.791-1.639,1.791
			c-0.104,0-0.184-0.032-0.296-0.064v-0.64c0.088,0.032,0.232,0.072,0.424,0.072c0.368,0,0.408-0.104,0.744-0.968l-1.551-4.293h0.8
			l1.111,3.406h0.016L67.166,265.513z"/>
	</g>
	<g>
		<path d="M47.759,296.371l-0.6,1.671h-0.8l2.159-5.741h0.879l2.079,5.741h-0.848l-0.567-1.671H47.759z M49.782,295.682
			l-0.848-2.526h-0.016l-0.919,2.526H49.782z"/>
		<path d="M54.718,295.267c-0.088-0.56-0.4-0.896-0.991-0.896c-0.872,0-1.151,0.831-1.151,1.575c0,0.72,0.176,1.606,1.143,1.606
			c0.472,0,0.879-0.352,1-0.991h0.68c-0.072,0.664-0.48,1.6-1.703,1.6c-1.175,0-1.871-0.888-1.871-2.096
			c0-1.295,0.624-2.326,2.007-2.326c1.096,0,1.511,0.8,1.567,1.527H54.718z"/>
		<path d="M56.967,294.443v2.719c0,0.328,0.28,0.328,0.424,0.328h0.248v0.552c-0.256,0.023-0.456,0.056-0.527,0.056
			c-0.696,0-0.848-0.392-0.848-0.896v-2.759h-0.568v-0.583h0.568v-1.168h0.704v1.168h0.671v0.583H56.967z"/>
		<path d="M58.344,293.1v-0.8h0.704v0.8H58.344z M59.047,298.042h-0.704v-4.182h0.704V298.042z"/>
		<path d="M62.751,293.86h0.768l-1.591,4.182h-0.751l-1.527-4.182h0.815l1.087,3.406h0.016L62.751,293.86z"/>
		<path d="M67.654,296.73c-0.024,0.2-0.216,0.792-0.744,1.144c-0.192,0.128-0.464,0.288-1.135,0.288
			c-1.175,0-1.871-0.888-1.871-2.096c0-1.295,0.624-2.326,2.007-2.326c1.208,0,1.799,0.959,1.799,2.438h-3.054
			c0,0.872,0.408,1.375,1.215,1.375c0.664,0,1.056-0.512,1.08-0.823H67.654z M66.982,295.619c-0.04-0.647-0.312-1.247-1.167-1.247
			c-0.648,0-1.16,0.6-1.16,1.247H66.982z"/>
	</g>
	<g>
	</g>
	<g>
	</g>
	<g>
	</g>
	<g>
	</g>
	<g>
	</g>
	<g>
	</g>
	<g>
	</g>
	<g>
	</g>
	<g>
	</g>
	<g>
	</g>
	<g>
	</g>
	<g>
	</g>
	<g>
	</g>
	<g>
	</g>
	<g>
	</g>
</g>
</svg>
