<?xml version="1.0" encoding="utf-8"?>
<!-- Generator: Adobe Illustrator 28.2.0, SVG Export Plug-In . SVG Version: 6.00 Build 0)  -->
<svg version="1.1" xmlns="http://www.w3.org/2000/svg" xmlns:xlink="http://www.w3.org/1999/xlink" x="0px" y="0px"
	 width="335.235px" height="98.977px" viewBox="0 0 335.235 98.977" style="enable-background:new 0 0 335.235 98.977;"
	 xml:space="preserve">
<style type="text/css">
	.st0{fill:none;stroke:#040000;stroke-width:0.5;stroke-miterlimit:10;}
	.st1{fill:#040000;}
	.st2{fill:none;stroke:#666666;stroke-linejoin:bevel;}
	.st3{fill:none;stroke:#666666;stroke-linejoin:bevel;stroke-dasharray:1.0035,1.0035;}
	.st4{fill:none;stroke:#666666;stroke-linejoin:bevel;stroke-dasharray:0.9954,0.9954;}
	.st5{fill:none;stroke:#666666;stroke-linejoin:bevel;stroke-dasharray:0.7678,0.7678;}
	.st6{fill:none;stroke:#666666;stroke-linejoin:bevel;stroke-dasharray:1.0307,1.0307;}
	.st7{fill:none;stroke:#666666;stroke-linejoin:bevel;stroke-dasharray:0.9968,0.9968;}
	.st8{fill:none;stroke:#666666;stroke-linejoin:bevel;stroke-dasharray:1.0088,1.0088;}
	.st9{fill:none;stroke:#666666;stroke-linejoin:bevel;stroke-dasharray:1.0049,1.0049;}
	.st10{fill:none;stroke:#666666;stroke-linecap:round;stroke-miterlimit:10;}
	.st11{fill:none;stroke:#666666;stroke-width:0.5;stroke-linejoin:bevel;stroke-miterlimit:10;}
	.st12{fill:none;stroke:#666666;stroke-linecap:round;stroke-linejoin:bevel;stroke-miterlimit:10;}
</style>
<g id="レイヤー_1">
	<g>
		<g>
			<polyline class="st0" points="10.045,13.774 10.045,97.525 326.042,97.525 			"/>
			<g>
				<polygon class="st1" points="8.592,14.764 10.045,9.344 11.498,14.764 				"/>
			</g>
			<g>
				<polygon class="st1" points="325.052,98.977 330.472,97.525 325.052,96.072 				"/>
			</g>
		</g>
	</g>
	<g>
		<g>
			<line class="st2" x1="12.539" y1="97.524" x2="12.854" y2="97.136"/>
			<line class="st3" x1="13.487" y1="96.356" x2="70.088" y2="26.627"/>
			<polyline class="st2" points="70.404,26.238 70.719,25.85 70.719,26.35 			"/>
			<line class="st4" x1="70.719" y1="27.345" x2="70.719" y2="96.526"/>
			<polyline class="st2" points="70.719,97.024 70.719,97.524 71.219,97.524 			"/>
			<line class="st5" x1="71.987" y1="97.524" x2="73.139" y2="97.524"/>
			<polyline class="st2" points="73.522,97.524 74.022,97.525 74.33,97.13 			"/>
			<line class="st6" x1="74.965" y1="96.318" x2="92.408" y2="73.977"/>
			<polyline class="st2" points="92.725,73.57 93.033,73.176 93.533,73.176 			"/>
			<path class="st7" d="M94.53,73.176h11.447l18.583,12.539l72.428-0.404c0,0,61.78-16.876,96.871-61.639"/>
			<path class="st2" d="M294.166,23.279c0.102-0.132,0.204-0.263,0.306-0.395v0.5"/>
			<line class="st8" x1="294.472" y1="24.393" x2="294.472" y2="96.52"/>
			<path class="st2" d="M294.472,97.025v0.5c0.155-0.061,0.311-0.123,0.465-0.184"/>
			<path class="st9" d="M295.871,96.969c17.222-6.901,29.254-13.98,38.382-27.11"/>
			<path class="st2" d="M334.538,69.447c0.095-0.138,0.189-0.277,0.283-0.417"/>
		</g>
	</g>
	<g>
		<g>
			<line class="st0" x1="90.189" y1="14.625" x2="90.189" y2="67.295"/>
			<g>
				<polygon class="st1" points="88.736,66.305 90.189,71.725 91.641,66.305 				"/>
			</g>
		</g>
	</g>
	<g>
		<g>
			<line class="st0" x1="202.024" y1="14.625" x2="202.024" y2="76.467"/>
			<g>
				<polygon class="st1" points="200.571,75.476 202.024,80.897 203.476,75.476 				"/>
			</g>
		</g>
	</g>
	<g>
		<g>
			<line class="st0" x1="320.959" y1="14.625" x2="320.959" y2="78.168"/>
			<g>
				<polygon class="st1" points="319.506,77.177 320.959,82.598 322.411,77.177 				"/>
			</g>
		</g>
	</g>
	<g>
		<line class="st10" x1="10.045" y1="97.525" x2="70.719" y2="22.289"/>
		<line class="st11" x1="70.719" y1="22.289" x2="70.719" y2="97.525"/>
	</g>
	<g>
		<line class="st12" x1="70.719" y1="97.525" x2="131.393" y2="22.289"/>
		<line class="st11" x1="131.393" y1="22.289" x2="131.393" y2="97.525"/>
	</g>
	<g>
		<line class="st12" x1="131.393" y1="97.525" x2="191.217" y2="22.682"/>
		<line class="st11" x1="191.217" y1="22.289" x2="191.217" y2="97.525"/>
	</g>
	<g>
		<line class="st12" x1="191.217" y1="97.525" x2="251.324" y2="22.682"/>
		<line class="st11" x1="251.324" y1="22.289" x2="251.324" y2="97.525"/>
	</g>
	<g>
		<line class="st12" x1="251.324" y1="97.525" x2="311.148" y2="22.289"/>
		<line class="st11" x1="311.148" y1="22.289" x2="311.148" y2="97.525"/>
	</g>
	<line class="st12" x1="310.721" y1="97.525" x2="334.163" y2="67.835"/>
</g>
<g id="レイヤー_2">
	<g>
		<path d="M27.138,5.914c0.12,0.021,0.234,0.031,0.344,0.031h0.727c0.083-0.344,0.164-0.727,0.242-1.148
			c0.219,0.052,0.469,0.091,0.75,0.117c-0.146,0.151-0.273,0.425-0.383,0.82c-0.021,0.073-0.039,0.144-0.055,0.211h1.031
			c0.12,0,0.234-0.01,0.344-0.031c-0.021,0.089-0.031,0.172-0.031,0.25c0,0.094,0.01,0.19,0.031,0.289
			c-0.109-0.021-0.224-0.031-0.344-0.031H28.63c-0.219,0.755-0.443,1.357-0.672,1.805h0.781V7.766c0-0.292-0.021-0.586-0.062-0.883
			c0.188,0.021,0.417,0.031,0.688,0.031c-0.068,0.146-0.102,0.326-0.102,0.539v0.773h0.039c0.234,0,0.495-0.01,0.781-0.031
			c-0.021,0.099-0.031,0.195-0.031,0.289c0,0.078,0.01,0.172,0.031,0.281c-0.287-0.021-0.547-0.031-0.781-0.031h-0.039v1.141
			c0.37-0.042,0.727-0.088,1.07-0.141v0.523c-0.396,0.047-0.753,0.089-1.07,0.125v0.633c0,0.339,0.023,0.682,0.07,1.031
			c-0.12-0.021-0.234-0.031-0.344-0.031s-0.214,0.01-0.312,0.031c0.042-0.349,0.062-0.692,0.062-1.031v-0.57
			c-0.693,0.083-1.172,0.159-1.438,0.227c-0.011-0.172-0.065-0.37-0.164-0.594c0.562-0.036,1.096-0.083,1.602-0.141V8.734h-0.883
			c-0.188,0-0.396,0.011-0.625,0.031c-0.031-0.161-0.062-0.307-0.094-0.438c0.135-0.104,0.263-0.25,0.383-0.438
			c0.114-0.172,0.237-0.44,0.367-0.805c0.067-0.188,0.135-0.409,0.203-0.664h-0.609c-0.109,0-0.224,0.011-0.344,0.031
			c0.021-0.099,0.031-0.195,0.031-0.289C27.169,6.086,27.159,6.003,27.138,5.914z M30.365,5.914
			c0.271,0.042,0.539,0.062,0.805,0.062h0.281c0.073-0.484,0.127-0.877,0.164-1.18c0.161,0.047,0.391,0.086,0.688,0.117
			c-0.109,0.255-0.208,0.609-0.297,1.062h1.047c0.266,0,0.534-0.021,0.805-0.062c-0.021,0.109-0.031,0.214-0.031,0.312
			c0,0.099,0.01,0.193,0.031,0.281c-0.271-0.036-0.539-0.055-0.805-0.055h-1.133c-0.068,0.391-0.136,0.753-0.203,1.086h1.734
			c0.271,0,0.542-0.018,0.812-0.055c-0.021,0.099-0.031,0.203-0.031,0.312c0,0.089,0.01,0.183,0.031,0.281
			c-0.271-0.042-0.542-0.062-0.812-0.062h-1.828c-0.078,0.333-0.154,0.644-0.227,0.93h1.969c0.219,0,0.438-0.021,0.656-0.062
			C34,8.992,33.99,9.097,33.99,9.195c0,0.13,0.01,0.255,0.031,0.375c-0.229,0.083-0.761,0.586-1.594,1.508
			c0.442,0.203,0.849,0.377,1.219,0.523c-0.198,0.156-0.357,0.336-0.477,0.539c-0.261-0.214-0.633-0.445-1.117-0.695
			c-0.427-0.208-0.951-0.424-1.57-0.648c0.219-0.141,0.377-0.276,0.477-0.406c0.396,0.198,0.773,0.375,1.133,0.531l1.172-1.5h-0.844
			c-0.604,0-1.125,0.06-1.562,0.18c-0.021-0.255-0.081-0.474-0.18-0.656c0.12-0.062,0.195-0.125,0.227-0.188
			c0.042-0.088,0.102-0.336,0.18-0.742h-0.195c-0.271,0-0.539,0.021-0.805,0.062c0.016-0.099,0.023-0.192,0.023-0.281
			c0-0.109-0.008-0.213-0.023-0.312c0.266,0.037,0.534,0.055,0.805,0.055h0.281c0.005-0.01,0.008-0.018,0.008-0.023
			c0.073-0.391,0.138-0.745,0.195-1.062h-0.203c-0.266,0-0.534,0.019-0.805,0.055c0.021-0.088,0.031-0.182,0.031-0.281
			C30.396,6.128,30.385,6.023,30.365,5.914z"/>
		<path d="M36.513,4.766c0.135,0.052,0.375,0.112,0.719,0.18c-0.125,0.156-0.24,0.354-0.344,0.594
			c-0.094,0.255-0.183,0.484-0.266,0.688h1.023c0.25,0,0.518-0.01,0.805-0.031c-0.016,0.104-0.023,0.201-0.023,0.289
			c0,0.12,0.008,0.224,0.023,0.312c-0.193-0.021-0.461-0.031-0.805-0.031h-0.312c-0.005,0.636-0.029,1.188-0.07,1.656h0.312
			c0.307,0,0.609-0.021,0.906-0.062c-0.021,0.109-0.031,0.224-0.031,0.344c0,0.099,0.01,0.203,0.031,0.312
			c-0.297-0.047-0.599-0.07-0.906-0.07h-0.359c-0.021,0.203-0.042,0.383-0.062,0.539c0.417,0.406,0.924,0.927,1.523,1.562
			c-0.177,0.104-0.357,0.25-0.539,0.438c-0.167-0.307-0.534-0.792-1.102-1.453c-0.172,0.761-0.625,1.453-1.359,2.078
			c-0.183-0.198-0.391-0.357-0.625-0.477c0.552-0.323,0.974-0.778,1.266-1.367c0.141-0.297,0.25-0.737,0.328-1.32h-0.383
			c-0.302,0-0.602,0.023-0.898,0.07c0.021-0.109,0.031-0.213,0.031-0.312c0-0.12-0.011-0.234-0.031-0.344
			c0.297,0.042,0.596,0.062,0.898,0.062h0.438c0.042-0.484,0.065-1.036,0.07-1.656h-0.375c-0.073,0.177-0.141,0.32-0.203,0.43
			c-0.115,0.234-0.216,0.474-0.305,0.719c-0.193-0.114-0.433-0.195-0.719-0.242c0.312-0.292,0.622-0.815,0.93-1.57
			C36.318,5.57,36.456,5.125,36.513,4.766z M42.169,5.289c-0.021,0.109-0.031,0.214-0.031,0.312c0,0.12,0.01,0.234,0.031,0.344
			c-0.359-0.042-0.722-0.062-1.086-0.062h-1.633v1.477h1.258c0.349,0,0.703-0.023,1.062-0.07c-0.042,0.287-0.062,0.57-0.062,0.852
			v1.055c0,0.281,0.021,0.565,0.062,0.852c-0.359-0.047-0.714-0.07-1.062-0.07h-1.258v1.281h1.852c0.359,0,0.724-0.021,1.094-0.062
			c-0.021,0.12-0.031,0.234-0.031,0.344s0.01,0.213,0.031,0.312c-0.37-0.037-0.734-0.055-1.094-0.055h-1.445
			c-0.349,0-0.703,0.018-1.062,0.055c0.042-0.308,0.062-0.62,0.062-0.938V6.227c0-0.307-0.021-0.62-0.062-0.938
			c0.422,0.047,0.841,0.07,1.258,0.07h1.031C41.448,5.359,41.81,5.336,42.169,5.289z M39.451,9.453h1.656v-1.57h-1.656V9.453z"/>
		<path d="M43.482,5.078c0.219,0.021,0.438,0.031,0.656,0.031h0.945c0.255,0,0.513-0.01,0.773-0.031
			c-0.089,0.245-0.357,1.169-0.805,2.773c0.531,0.745,0.799,1.362,0.805,1.852c0,0.365-0.099,0.633-0.297,0.805
			c-0.255,0.208-0.615,0.312-1.078,0.312c0-0.203-0.073-0.422-0.219-0.656c0.198,0.021,0.336,0.031,0.414,0.031
			c0.417,0,0.625-0.164,0.625-0.492c0-0.442-0.273-1.039-0.82-1.789c0.192-0.719,0.383-1.5,0.57-2.344h-0.969v5.594
			c0,0.328,0.008,0.653,0.023,0.977c-0.099-0.021-0.203-0.031-0.312-0.031c-0.099,0-0.203,0.01-0.312,0.031
			c0.021-0.323,0.031-0.648,0.031-0.977V5.703C43.513,5.495,43.502,5.287,43.482,5.078z M49.513,5.109
			c-0.042,0.24-0.062,0.477-0.062,0.711v2.125c0,0.24,0.021,0.482,0.062,0.727c-0.229-0.026-0.458-0.039-0.688-0.039H47.99
			c0.078,0.505,0.19,0.917,0.336,1.234c0.359-0.276,0.716-0.604,1.07-0.984c0.12,0.188,0.284,0.347,0.492,0.477
			c-0.183,0.073-0.633,0.367-1.352,0.883c0.432,0.589,1.008,0.982,1.727,1.18c-0.261,0.161-0.49,0.38-0.688,0.656
			c-0.74-0.511-1.266-1.06-1.578-1.648c-0.245-0.463-0.409-1.062-0.492-1.797h-0.68v2.531c0.344-0.151,0.677-0.315,1-0.492
			c0.021,0.234,0.052,0.44,0.094,0.617c-0.542,0.245-1.104,0.547-1.688,0.906c-0.083-0.162-0.198-0.305-0.344-0.43
			c0.276-0.172,0.414-0.287,0.414-0.344V5.82c0-0.234-0.023-0.471-0.07-0.711c0.229,0.021,0.458,0.031,0.688,0.031h1.906
			C49.055,5.141,49.284,5.13,49.513,5.109z M48.919,5.602h-2.094v1.07h2.094V5.602z M48.919,7.141h-2.094v1.023h2.094V7.141z"/>
		<path d="M52.138,5.227c0.172,0.073,0.391,0.128,0.656,0.164c-0.078,0.094-0.183,0.281-0.312,0.562
			c-0.011,0.037-0.023,0.068-0.039,0.094h0.891V5.703c0-0.297-0.023-0.591-0.07-0.883c0.192,0.021,0.424,0.031,0.695,0.031
			c-0.068,0.146-0.102,0.326-0.102,0.539v0.656h0.82c0.224,0,0.463-0.01,0.719-0.031c-0.021,0.089-0.031,0.169-0.031,0.242
			c0,0.109,0.01,0.203,0.031,0.281c-0.177-0.021-0.417-0.031-0.719-0.031h-0.82v1.094h0.938c0.292,0,0.586-0.021,0.883-0.062
			c-0.021,0.109-0.031,0.214-0.031,0.312c0,0.109,0.01,0.214,0.031,0.312c-0.297-0.036-0.591-0.055-0.883-0.055h-0.938v0.773h0.82
			c0.26,0,0.518-0.021,0.773-0.062c-0.037,0.203-0.055,0.404-0.055,0.602v1.312c0,0.271-0.052,0.445-0.156,0.523
			c-0.125,0.156-0.417,0.25-0.875,0.281c-0.037-0.234-0.123-0.442-0.258-0.625h0.469c0.12,0,0.198-0.023,0.234-0.07
			c0.031-0.031,0.047-0.112,0.047-0.242V9.359h-1v1.617c0,0.344,0.021,0.69,0.062,1.039c-0.109-0.026-0.224-0.039-0.344-0.039
			c-0.099,0-0.203,0.013-0.312,0.039c0.047-0.349,0.07-0.695,0.07-1.039V9.359h-1.031v1.586c0,0.188,0.021,0.375,0.062,0.562
			c-0.12-0.016-0.234-0.023-0.344-0.023s-0.214,0.008-0.312,0.023c0.042-0.188,0.062-0.375,0.062-0.562V9.422
			c0-0.198-0.021-0.398-0.062-0.602c0.239,0.042,0.479,0.062,0.719,0.062h0.906V8.109h-1.227c-0.287,0-0.578,0.019-0.875,0.055
			c0.021-0.099,0.031-0.203,0.031-0.312c0-0.099-0.011-0.203-0.031-0.312c0.297,0.042,0.588,0.062,0.875,0.062h1.227V6.508H52.24
			c-0.146,0.328-0.302,0.623-0.469,0.883c-0.156-0.135-0.326-0.211-0.508-0.227c0.203-0.245,0.391-0.565,0.562-0.961
			C51.982,5.865,52.086,5.539,52.138,5.227z M56.052,5.945c0.182,0.021,0.401,0.031,0.656,0.031
			c-0.062,0.136-0.094,0.305-0.094,0.508v3.117c0,0.328,0.021,0.651,0.062,0.969c-0.109-0.021-0.214-0.031-0.312-0.031
			c-0.109,0-0.214,0.011-0.312,0.031c0.036-0.317,0.055-0.641,0.055-0.969V6.797C56.107,6.516,56.088,6.232,56.052,5.945z
			 M57.365,4.82c0.203,0.021,0.422,0.031,0.656,0.031c-0.068,0.156-0.102,0.336-0.102,0.539v6.094c0,0.255-0.107,0.424-0.32,0.508
			c-0.208,0.078-0.516,0.117-0.922,0.117c-0.058-0.25-0.162-0.458-0.312-0.625h0.43c0.401,0,0.602-0.097,0.602-0.289V5.328
			C57.396,5.162,57.385,4.992,57.365,4.82z"/>
		<path d="M62.99,4.797c0.073,0.25,0.151,0.519,0.234,0.805h2.078c0.292,0,0.581-0.021,0.867-0.062
			c-0.021,0.109-0.031,0.214-0.031,0.312c0,0.109,0.01,0.214,0.031,0.312c-0.287-0.036-0.576-0.055-0.867-0.055h-5.133
			c-0.287,0-0.576,0.019-0.867,0.055c0.021-0.099,0.031-0.203,0.031-0.312c0-0.099-0.011-0.203-0.031-0.312
			c0.292,0.042,0.581,0.062,0.867,0.062h2.461c-0.104-0.281-0.203-0.521-0.297-0.719C62.542,4.862,62.76,4.833,62.99,4.797z
			 M60.052,6.508c0.229,0.052,0.477,0.083,0.742,0.094c-0.058,0.151-0.086,0.3-0.086,0.445v1.031h4.062V6.977
			c0-0.151-0.021-0.307-0.062-0.469c0.203,0.031,0.45,0.052,0.742,0.062c-0.058,0.156-0.086,0.336-0.086,0.539v0.969
			c0,0.151,0.01,0.305,0.031,0.461c-0.183-0.021-0.362-0.031-0.539-0.031h-2.055l0.367,0.227c-0.104,0.068-0.222,0.193-0.352,0.375
			h2.289c0.229,0,0.458-0.01,0.688-0.031c-0.016,0.271-0.023,0.539-0.023,0.805v1.602c0,0.255-0.117,0.432-0.352,0.531
			c-0.245,0.099-0.503,0.148-0.773,0.148c-0.021-0.234-0.104-0.482-0.25-0.742c0.198,0.042,0.362,0.062,0.492,0.062
			c0.167,0,0.25-0.125,0.25-0.375V9.57h-2.625c-0.344,0.531-0.591,0.875-0.742,1.031l1.906-0.18
			c-0.141-0.182-0.289-0.352-0.445-0.508c0.203-0.047,0.372-0.117,0.508-0.211c0.234,0.391,0.547,0.794,0.938,1.211
			c-0.177,0.042-0.347,0.125-0.508,0.25c-0.062-0.109-0.125-0.213-0.188-0.312c-1.12,0.068-2.078,0.172-2.875,0.312l-0.117-0.656
			c0.224-0.083,0.401-0.211,0.531-0.383c0.151-0.208,0.278-0.393,0.383-0.555h-1.477v1.852c0,0.229,0.008,0.458,0.023,0.688
			c-0.109-0.021-0.224-0.031-0.344-0.031c-0.109,0-0.222,0.01-0.336,0.031c0.016-0.229,0.023-0.458,0.023-0.688V9.883
			c0-0.266-0.008-0.534-0.023-0.805c0.224,0.021,0.45,0.031,0.68,0.031h1.742c0.005-0.01,0.01-0.021,0.016-0.031
			c0.141-0.239,0.234-0.43,0.281-0.57h-1.812c-0.208,0-0.417,0.011-0.625,0.031c0.036-0.141,0.055-0.284,0.055-0.43V6.977
			C60.107,6.826,60.088,6.669,60.052,6.508z M63.958,6.141c0.141,0.125,0.297,0.229,0.469,0.312
			c-0.099,0.026-0.318,0.146-0.656,0.359c-0.115,0.078-0.229,0.151-0.344,0.219c0.328,0.13,0.669,0.261,1.023,0.391
			c-0.136,0.083-0.258,0.208-0.367,0.375c-0.245-0.156-0.597-0.341-1.055-0.555c-0.068,0.031-0.128,0.062-0.18,0.094
			c-0.333,0.162-0.779,0.344-1.336,0.547c-0.083-0.135-0.208-0.25-0.375-0.344c0.495-0.141,0.956-0.31,1.383-0.508
			c-0.479-0.198-0.93-0.362-1.352-0.492c0.125-0.088,0.229-0.203,0.312-0.344c0.417,0.198,0.898,0.409,1.445,0.633
			C63.255,6.651,63.599,6.422,63.958,6.141z"/>
		<path d="M70.513,4.734c0.26,0.125,0.534,0.206,0.82,0.242c-0.13,0.099-0.255,0.219-0.375,0.359
			c0.317,0.495,0.727,0.914,1.227,1.258c0.489,0.344,1.206,0.648,2.148,0.914c-0.198,0.183-0.357,0.401-0.477,0.656
			c-0.526-0.229-0.977-0.456-1.352-0.68c-0.016,0.104-0.023,0.208-0.023,0.312c0,0.109,0.01,0.224,0.031,0.344
			c-0.339-0.042-0.683-0.062-1.031-0.062h-1.594c-0.339,0-0.683,0.021-1.031,0.062c0.021-0.12,0.031-0.234,0.031-0.344
			c0-0.083-0.005-0.167-0.016-0.25c-0.38,0.328-0.789,0.641-1.227,0.938c-0.125-0.188-0.312-0.367-0.562-0.539
			c0.849-0.406,1.557-0.898,2.125-1.477C69.776,5.933,70.211,5.354,70.513,4.734z M68.263,8.797c0.317,0.037,0.63,0.055,0.938,0.055
			h2.969c0.317,0,0.63-0.018,0.938-0.055c-0.037,0.297-0.055,0.599-0.055,0.906v1.523c0,0.307,0.018,0.612,0.055,0.914
			c-0.172-0.021-0.284-0.031-0.336-0.031c-0.062,0-0.188,0.01-0.375,0.031c0.026-0.224,0.042-0.443,0.047-0.656h-3.516
			c0.01,0.255,0.031,0.502,0.062,0.742c-0.188-0.021-0.312-0.031-0.375-0.031s-0.18,0.01-0.352,0.031
			c0.047-0.297,0.07-0.597,0.07-0.898V9.703C68.333,9.396,68.31,9.094,68.263,8.797z M68.919,10.914h3.531V9.422h-3.531V10.914z
			 M69.013,7.438c0.297,0.031,0.588,0.047,0.875,0.047h1.594c0.317,0,0.63-0.018,0.938-0.055c-0.255-0.156-0.474-0.31-0.656-0.461
			c-0.448-0.333-0.812-0.76-1.094-1.281C70.206,6.297,69.654,6.88,69.013,7.438z"/>
		<path d="M79.138,5.078c0.292,0.021,0.586,0.031,0.883,0.031h0.773c0.292,0,0.586-0.01,0.883-0.031
			c-0.021,0.151-0.031,0.305-0.031,0.461v0.945c0,0.177,0.01,0.354,0.031,0.531c-0.297-0.026-0.591-0.039-0.883-0.039H80.31
			c0.177,0.162,0.424,0.32,0.742,0.477c-0.13,0.068-0.248,0.162-0.352,0.281h0.664c0.25,0,0.497-0.021,0.742-0.062
			c-0.016,0.094-0.023,0.185-0.023,0.273c0,0.099,0.008,0.193,0.023,0.281c-0.245-0.042-0.492-0.062-0.742-0.062h-2.211
			c0.224,0.24,0.51,0.409,0.859,0.508c0.469,0.151,1.263,0.242,2.383,0.273C82.219,9.112,82.083,9.3,81.99,9.508
			c-1.193-0.141-1.995-0.323-2.406-0.547c-0.386-0.182-0.675-0.448-0.867-0.797h-0.008c-0.083,0.162-0.183,0.3-0.297,0.414
			c-0.266,0.261-0.607,0.464-1.023,0.609c-0.406,0.136-1.021,0.273-1.844,0.414c-0.083-0.182-0.229-0.356-0.438-0.523
			c0.63-0.047,1.203-0.13,1.719-0.25c0.432-0.088,0.805-0.26,1.117-0.516C78,8.266,78.052,8.216,78.099,8.164h-1.898
			c-0.25,0-0.5,0.021-0.75,0.062c0.021-0.088,0.031-0.182,0.031-0.281c0-0.088-0.011-0.18-0.031-0.273
			c0.25,0.042,0.5,0.062,0.75,0.062h2.156c0.073-0.182,0.125-0.391,0.156-0.625c0.224,0.073,0.442,0.112,0.656,0.117
			c-0.141,0.193-0.242,0.362-0.305,0.508h1.711c-0.193-0.208-0.433-0.388-0.719-0.539c0.146-0.052,0.268-0.125,0.367-0.219h-0.203
			c-0.297,0-0.591,0.013-0.883,0.039c0.021-0.177,0.031-0.354,0.031-0.531V5.539C79.148,5.383,79.138,5.229,79.138,5.078z
			 M75.99,5.078c0.292,0.021,0.581,0.031,0.867,0.031h0.688c0.297,0,0.591-0.01,0.883-0.031c-0.021,0.151-0.031,0.305-0.031,0.461
			v0.969c0,0.183,0.01,0.362,0.031,0.539c-0.292-0.021-0.586-0.031-0.883-0.031h-0.688c-0.287,0-0.576,0.011-0.867,0.031
			c0.021-0.177,0.031-0.356,0.031-0.539V5.539C76,5.383,75.99,5.229,75.99,5.078z M76.021,9.539
			c0.271,0.042,0.539,0.062,0.805,0.062h0.852c0.271,0,0.539-0.021,0.805-0.062c-0.037,0.24-0.055,0.479-0.055,0.719v1.133
			c0,0.26,0.018,0.518,0.055,0.773c-0.156-0.016-0.261-0.023-0.312-0.023c-0.047,0-0.151,0.008-0.312,0.023
			c0.036-0.219,0.055-0.438,0.055-0.656h-1.336c0.005,0.239,0.028,0.479,0.07,0.719c-0.156-0.021-0.261-0.031-0.312-0.031
			c-0.058,0-0.162,0.01-0.312,0.031c0.042-0.261,0.062-0.519,0.062-0.773v-1.195C76.083,10.019,76.062,9.779,76.021,9.539z
			 M77.888,6.57V5.539h-1.375V6.57H77.888z M76.576,11.078h1.344v-1.031h-1.344V11.078z M79.083,9.539
			c0.266,0.042,0.534,0.062,0.805,0.062h0.938c0.271,0,0.544-0.021,0.82-0.062c-0.047,0.24-0.07,0.479-0.07,0.719v1.133
			c0,0.26,0.023,0.518,0.07,0.773c-0.156-0.016-0.261-0.023-0.312-0.023c-0.058,0-0.162,0.008-0.312,0.023
			c0.036-0.219,0.055-0.438,0.055-0.656h-1.422c0.005,0.213,0.023,0.424,0.055,0.633c-0.162-0.021-0.266-0.031-0.312-0.031
			c-0.052,0-0.156,0.01-0.312,0.031c0.036-0.261,0.055-0.521,0.055-0.781v-1.102C79.138,10.019,79.12,9.779,79.083,9.539z
			 M79.646,11.078h1.438v-1.031h-1.438V11.078z M81.138,6.539v-1h-1.461v1H81.138z"/>
		<path d="M87.881,11.276c-2.143,0-2.798-1.783-2.798-3.022c0-1.239,0.655-3.022,2.798-3.022c2.143,0,2.799,1.783,2.799,3.022
			C90.68,9.493,90.024,11.276,87.881,11.276z M87.881,5.919c-1.248,0-1.999,0.983-1.999,2.334c0,1.352,0.751,2.335,1.999,2.335
			c1.247,0,1.999-0.983,1.999-2.335C89.88,6.902,89.128,5.919,87.881,5.919z"/>
		<path d="M92.458,11.124h-0.775V5.383h3.974v0.688h-3.198V7.83h2.814v0.688h-2.814V11.124z"/>
		<path d="M97.345,11.124H96.57V5.383h3.974v0.688h-3.198V7.83h2.814v0.688h-2.814V11.124z"/>
	</g>
	<g>
		<path d="M287.997,8.484c0.317,0.047,0.641,0.07,0.969,0.07h4.555c0.328,0,0.651-0.023,0.969-0.07
			c-0.021,0.12-0.031,0.234-0.031,0.344c0,0.12,0.011,0.234,0.031,0.344c-0.317-0.042-0.641-0.062-0.969-0.062h-1.344v1.938
			c0,0.12,0.019,0.2,0.055,0.242c0.026,0.052,0.102,0.078,0.227,0.078h0.914c0.188,0,0.312-0.039,0.375-0.117
			c0.062-0.104,0.122-0.391,0.18-0.859c0.167,0.156,0.375,0.271,0.625,0.344c-0.099,0.469-0.198,0.771-0.297,0.906
			c-0.125,0.192-0.37,0.289-0.734,0.289h-1.312c-0.255,0-0.419-0.062-0.492-0.188c-0.089-0.104-0.133-0.281-0.133-0.531V9.109
			h-0.977c-0.031,0.787-0.156,1.354-0.375,1.703c-0.229,0.463-0.925,0.885-2.086,1.266c-0.188-0.208-0.406-0.373-0.656-0.492
			c0.828-0.172,1.453-0.417,1.875-0.734c0.401-0.297,0.62-0.877,0.656-1.742h-1.055c-0.328,0-0.651,0.021-0.969,0.062
			c0.021-0.109,0.031-0.224,0.031-0.344C288.028,8.718,288.018,8.604,287.997,8.484z M291.489,4.679
			c0.114,0.287,0.231,0.599,0.352,0.938h1.617c0.339,0,0.672-0.01,1-0.031c-0.016,0.219-0.023,0.438-0.023,0.656
			c0,0.359,0.008,0.724,0.023,1.094c-0.109-0.021-0.222-0.031-0.336-0.031c-0.12,0-0.234,0.011-0.344,0.031
			c0.016-0.391,0.023-0.778,0.023-1.164h-5.117c0,0.375,0.011,0.753,0.031,1.133c-0.12-0.021-0.234-0.031-0.344-0.031
			c-0.12,0-0.234,0.011-0.344,0.031c0.021-0.349,0.031-0.692,0.031-1.031c0-0.229-0.011-0.458-0.031-0.688
			c0.328,0.021,0.661,0.031,1,0.031h2.148c-0.13-0.338-0.263-0.622-0.398-0.852C291.008,4.745,291.244,4.716,291.489,4.679z
			 M289.177,7.109c0.308,0.042,0.612,0.062,0.914,0.062h2.219c0.302,0,0.602-0.021,0.898-0.062c-0.021,0.12-0.031,0.234-0.031,0.344
			s0.011,0.214,0.031,0.312c-0.297-0.042-0.597-0.062-0.898-0.062h-2.219c-0.302,0-0.606,0.021-0.914,0.062
			c0.021-0.099,0.031-0.203,0.031-0.312S289.197,7.229,289.177,7.109z"/>
		<path d="M302.31,6.109c-0.026,0.099-0.039,0.193-0.039,0.281c0,0.109,0.013,0.214,0.039,0.312
			c-0.219-0.016-0.438-0.023-0.656-0.023h-1.805c0.052,0.761,0.156,1.484,0.312,2.172c0.047,0.219,0.102,0.422,0.164,0.609
			c0.067-0.114,0.133-0.231,0.195-0.352c0.328-0.583,0.591-1.206,0.789-1.867c0.239,0.177,0.458,0.302,0.656,0.375
			c-0.094,0.089-0.211,0.261-0.352,0.516c-0.323,0.802-0.667,1.474-1.031,2.016c0.13,0.271,0.271,0.495,0.422,0.672
			c0.302,0.302,0.519,0.453,0.648,0.453c0.099,0,0.214-0.294,0.344-0.883c0.156,0.193,0.362,0.339,0.617,0.438
			c-0.12,0.463-0.231,0.773-0.336,0.93c-0.125,0.192-0.273,0.289-0.445,0.289c-0.224,0-0.448-0.078-0.672-0.234
			c-0.396-0.271-0.722-0.646-0.977-1.125c-0.078,0.089-0.156,0.175-0.234,0.258c-0.438,0.5-0.883,0.877-1.336,1.133
			c-0.125-0.255-0.3-0.453-0.523-0.594c0.62-0.255,1.117-0.599,1.492-1.031c0.114-0.12,0.222-0.247,0.32-0.383
			c-0.042-0.114-0.081-0.234-0.117-0.359c-0.146-0.463-0.278-1.125-0.398-1.984c-0.036-0.344-0.073-0.692-0.109-1.047h-2.156v1.117
			h1.281c0.167,0,0.331-0.01,0.492-0.031c-0.026,0.406-0.062,1.034-0.109,1.883c-0.021,0.474-0.156,0.792-0.406,0.953
			c-0.271,0.198-0.567,0.297-0.891,0.297c-0.047-0.224-0.141-0.432-0.281-0.625c0.183,0.021,0.331,0.031,0.445,0.031
			c0.354,0,0.547-0.255,0.578-0.766l0.078-1.234h-1.188c-0.021,0.662-0.112,1.281-0.273,1.859c-0.109,0.464-0.362,1.042-0.758,1.734
			c-0.172-0.183-0.383-0.287-0.633-0.312c0.359-0.484,0.62-0.979,0.781-1.484c0.188-0.614,0.281-1.213,0.281-1.797V6.859
			c0-0.25-0.021-0.5-0.062-0.75c0.229,0.021,0.458,0.031,0.688,0.031h2.086c-0.036-0.51-0.065-1.028-0.086-1.555
			c0.308,0.062,0.558,0.094,0.75,0.094c-0.062,0.292-0.094,0.583-0.094,0.875c0,0.198,0.005,0.394,0.016,0.586h1.836
			C301.872,6.14,302.091,6.13,302.31,6.109z M301.122,4.648c0.021,0.047,0.067,0.123,0.141,0.227
			c0.12,0.162,0.216,0.312,0.289,0.453c0.058,0.089,0.112,0.175,0.164,0.258c-0.146,0.042-0.344,0.146-0.594,0.312
			c-0.036-0.12-0.104-0.268-0.203-0.445c-0.104-0.198-0.216-0.362-0.336-0.492C300.797,4.872,300.977,4.768,301.122,4.648z"/>
		<path d="M309.341,5.304c-0.614,0.062-1.281,0.117-2,0.164V6.14h2.438c0.286,0,0.578-0.021,0.875-0.062
			c-0.026,0.109-0.039,0.214-0.039,0.312c0,0.109,0.013,0.214,0.039,0.312c-0.297-0.036-0.589-0.055-0.875-0.055h-2.438V7.21h1.312
			c0.317,0,0.638-0.013,0.961-0.039c-0.021,0.167-0.031,0.336-0.031,0.508v1.43c0,0.198,0.011,0.396,0.031,0.594
			c-0.323-0.016-0.644-0.023-0.961-0.023h-1.312v0.531h1.719c0.266,0,0.534-0.023,0.805-0.07c-0.021,0.109-0.031,0.214-0.031,0.312
			c0,0.099,0.011,0.193,0.031,0.281c-0.271-0.036-0.539-0.055-0.805-0.055h-1.719v0.625h2.461c0.292,0,0.586-0.021,0.883-0.062
			c-0.021,0.099-0.031,0.203-0.031,0.312c0,0.099,0.011,0.2,0.031,0.305c-0.297-0.042-0.591-0.062-0.883-0.062h-5.367
			c-0.292,0-0.586,0.021-0.883,0.062c0.021-0.104,0.031-0.206,0.031-0.305c0-0.109-0.011-0.214-0.031-0.312
			c0.297,0.042,0.591,0.062,0.883,0.062h2.344v-0.625h-1.656c-0.271,0-0.542,0.019-0.812,0.055c0.021-0.088,0.031-0.182,0.031-0.281
			c0-0.099-0.011-0.203-0.031-0.312c0.271,0.047,0.542,0.07,0.812,0.07h1.656V9.679h-1.195c-0.317,0-0.641,0.008-0.969,0.023
			c0.026-0.198,0.039-0.396,0.039-0.594v-1.43c-0.026-0.172-0.039-0.341-0.039-0.508c0.328,0.026,0.651,0.039,0.969,0.039h1.195
			V6.648h-2.32c-0.286,0-0.578,0.019-0.875,0.055c0.021-0.099,0.031-0.203,0.031-0.312c0-0.099-0.011-0.203-0.031-0.312
			c0.297,0.042,0.589,0.062,0.875,0.062h2.32V5.507c-0.786,0.047-1.633,0.083-2.539,0.109c-0.073-0.25-0.144-0.44-0.211-0.57
			c0.271,0.042,0.539,0.062,0.805,0.062c0.812,0,1.656-0.028,2.531-0.086c0.646-0.042,1.325-0.148,2.039-0.32
			c0.083,0.24,0.188,0.451,0.312,0.633C309.549,5.315,309.424,5.304,309.341,5.304z M305.208,8.242h1.57V7.679h-1.57V8.242z
			 M306.778,9.21V8.648h-1.57V9.21H306.778z M307.341,7.679v0.562h1.688V7.679H307.341z M309.028,9.21V8.648h-1.688V9.21H309.028z"
			/>
		<path d="M312.583,9.679c0.156,0.068,0.344,0.128,0.562,0.18c-0.062,0.058-0.136,0.154-0.219,0.289
			c-0.271,0.484-0.604,0.93-1,1.336c-0.104-0.12-0.25-0.224-0.438-0.312c0.302-0.239,0.536-0.487,0.703-0.742
			C312.391,10.143,312.521,9.893,312.583,9.679z M314.435,6.273c0.229,0.125,0.427,0.206,0.594,0.242
			c-0.203,0.162-0.435,0.453-0.695,0.875h0.352c0.271,0,0.539-0.018,0.805-0.055c-0.021,0.099-0.031,0.203-0.031,0.312
			c0,0.089,0.011,0.183,0.031,0.281c-0.266-0.047-0.534-0.07-0.805-0.07h-0.688v0.906h0.586c0.276,0,0.55-0.021,0.82-0.062
			c-0.021,0.104-0.031,0.211-0.031,0.32c0,0.089,0.011,0.183,0.031,0.281c-0.271-0.042-0.544-0.062-0.82-0.062h-0.586v2.211
			c0,0.156-0.094,0.266-0.281,0.328c-0.172,0.078-0.516,0.117-1.031,0.117c-0.011-0.234-0.075-0.443-0.195-0.625
			c0.328,0.042,0.578,0.062,0.75,0.062c0.141,0,0.214-0.055,0.219-0.164v-1.93h-0.875c-0.271,0-0.539,0.021-0.805,0.062
			c0.016-0.099,0.023-0.192,0.023-0.281c0-0.109-0.008-0.216-0.023-0.32c0.266,0.042,0.534,0.062,0.805,0.062h0.875V7.859h-0.969
			c-0.266,0-0.534,0.023-0.805,0.07c0.021-0.099,0.031-0.192,0.031-0.281c0-0.109-0.011-0.213-0.031-0.312
			c0.271,0.037,0.539,0.055,0.805,0.055h1.484C314.188,6.984,314.341,6.612,314.435,6.273z M313.927,4.765
			c0.078,0.229,0.159,0.479,0.242,0.75h0.414c0.276,0,0.55-0.021,0.82-0.062c-0.021,0.109-0.031,0.214-0.031,0.312
			c0,0.099,0.011,0.193,0.031,0.281c-0.271-0.036-0.544-0.055-0.82-0.055h-1.836c-0.271,0-0.544,0.019-0.82,0.055
			c0.026-0.088,0.039-0.182,0.039-0.281c0-0.099-0.013-0.203-0.039-0.312c0.276,0.042,0.55,0.062,0.82,0.062h0.891
			c-0.099-0.271-0.198-0.5-0.297-0.688C313.523,4.812,313.719,4.792,313.927,4.765z M312.864,6.21c0.13,0.281,0.3,0.57,0.508,0.867
			c-0.161,0.037-0.31,0.112-0.445,0.227c-0.141-0.349-0.305-0.653-0.492-0.914C312.611,6.354,312.755,6.294,312.864,6.21z
			 M314.552,9.765c0.198,0.328,0.461,0.662,0.789,1c-0.167,0.042-0.325,0.128-0.477,0.258c-0.229-0.396-0.487-0.739-0.773-1.031
			C314.278,9.945,314.432,9.87,314.552,9.765z M318.208,4.898c0.083,0.208,0.208,0.414,0.375,0.617
			c-0.567,0.021-1.294,0.125-2.18,0.312V7.39h1.594c0.239,0,0.5-0.008,0.781-0.023c-0.021,0.099-0.031,0.193-0.031,0.281
			c0,0.104,0.011,0.198,0.031,0.281c-0.192-0.021-0.453-0.031-0.781-0.031h-0.164v3.242c0,0.307,0.021,0.609,0.062,0.906
			c-0.109-0.016-0.224-0.023-0.344-0.023c-0.109,0-0.224,0.008-0.344,0.023c0.042-0.297,0.062-0.599,0.062-0.906V7.898h-0.867v0.656
			c0,0.792-0.125,1.503-0.375,2.133c-0.192,0.521-0.477,1.005-0.852,1.453c-0.188-0.156-0.386-0.271-0.594-0.344
			c0.458-0.458,0.784-0.969,0.977-1.531c0.183-0.552,0.273-1.122,0.273-1.711V6.078c-0.016-0.239-0.044-0.477-0.086-0.711
			c0.12,0.016,0.245,0.023,0.375,0.023c0.364,0,0.698-0.034,1-0.102C317.477,5.221,317.838,5.091,318.208,4.898z"/>
		<path d="M319.458,7.39c0.219,0.021,0.44,0.031,0.664,0.031h0.055c0.308,0,0.612-0.01,0.914-0.031
			c-0.021,0.292-0.031,0.586-0.031,0.883v1.344c0,0.245,0.008,0.492,0.023,0.742c0.021,0.016,0.036,0.026,0.047,0.031
			c0.724,0.479,1.669,0.719,2.836,0.719c0.547,0,1.474-0.06,2.781-0.18c-0.141,0.203-0.237,0.471-0.289,0.805h-2.25
			c-1.308,0-2.333-0.253-3.078-0.758c-0.167-0.12-0.284-0.18-0.352-0.18c-0.188,0-0.481,0.253-0.883,0.758
			c-0.156-0.214-0.352-0.383-0.586-0.508l0.828-0.602c0.109-0.073,0.211-0.127,0.305-0.164c0.011-0.224,0.016-0.445,0.016-0.664
			V7.96h-0.336c-0.224,0-0.445,0.011-0.664,0.031c0.021-0.109,0.031-0.213,0.031-0.312C319.489,7.585,319.479,7.489,319.458,7.39z
			 M320.583,4.992c0.151,0.464,0.349,0.961,0.594,1.492c-0.192,0.037-0.391,0.102-0.594,0.195c-0.104-0.469-0.3-0.981-0.586-1.539
			C320.205,5.114,320.4,5.065,320.583,4.992z M321.489,5.554c0.302,0.042,0.606,0.062,0.914,0.062h0.805
			c0.094-0.219,0.183-0.445,0.266-0.68c0.052-0.182,0.078-0.299,0.078-0.352c0.25,0.089,0.534,0.159,0.852,0.211
			c-0.161,0.136-0.312,0.339-0.453,0.609c-0.036,0.073-0.07,0.144-0.102,0.211h1.703c0.308,0,0.609-0.021,0.906-0.062
			c-0.016,0.109-0.023,0.224-0.023,0.344c0,0.099,0.008,0.203,0.023,0.312c-0.297-0.047-0.599-0.07-0.906-0.07h-1.969
			c-0.224,0.438-0.474,0.919-0.75,1.445h0.969V7.453c0-0.307-0.019-0.62-0.055-0.938c0.198,0.026,0.435,0.039,0.711,0.039
			c-0.058,0.146-0.086,0.331-0.086,0.555v0.477h0.938c0.261,0,0.521-0.01,0.781-0.031c-0.021,0.094-0.031,0.185-0.031,0.273
			c0,0.089,0.011,0.183,0.031,0.281c-0.219-0.021-0.479-0.031-0.781-0.031h-0.938v1h1.086c0.302,0,0.606-0.018,0.914-0.055
			c-0.021,0.109-0.031,0.224-0.031,0.344c0,0.099,0.011,0.203,0.031,0.312c-0.308-0.042-0.612-0.062-0.914-0.062h-1.086v0.062
			c0,0.365,0.021,0.727,0.062,1.086c-0.12-0.021-0.234-0.031-0.344-0.031c-0.12,0-0.234,0.011-0.344,0.031
			c0.036-0.359,0.055-0.721,0.055-1.086V9.617h-1.344c-0.297,0-0.599,0.021-0.906,0.062c0.021-0.109,0.031-0.213,0.031-0.312
			c0-0.12-0.011-0.234-0.031-0.344c0.308,0.037,0.609,0.055,0.906,0.055h1.344v-1h-1.117c-0.219,0-0.472,0.021-0.758,0.062
			c-0.047-0.188-0.106-0.352-0.18-0.492c0.333-0.094,0.56-0.239,0.68-0.438c0.192-0.312,0.38-0.669,0.562-1.07h-0.586
			c-0.308,0-0.612,0.023-0.914,0.07c0.021-0.109,0.031-0.213,0.031-0.312C321.521,5.778,321.51,5.664,321.489,5.554z"/>
		<path d="M327.552,6.273c0.13,0.021,0.255,0.031,0.375,0.031h0.758V5.21c0-0.167-0.011-0.336-0.031-0.508
			c0.198,0.021,0.417,0.031,0.656,0.031c-0.067,0.156-0.102,0.336-0.102,0.539v1.031h0.539c0.12,0,0.245-0.01,0.375-0.031
			c-0.021,0.089-0.031,0.183-0.031,0.281c0,0.099,0.011,0.201,0.031,0.305c-0.13-0.021-0.255-0.031-0.375-0.031h-0.539v1.336
			c0.234-0.13,0.464-0.273,0.688-0.43c-0.021,0.339-0.031,0.568-0.031,0.688c-0.239,0.115-0.458,0.219-0.656,0.312v2.602
			c0,0.255-0.097,0.422-0.289,0.5c-0.188,0.083-0.464,0.125-0.828,0.125c-0.052-0.25-0.156-0.458-0.312-0.625h0.43
			c0.317,0,0.477-0.096,0.477-0.289V9.007c-0.464,0.25-0.786,0.464-0.969,0.641c-0.016-0.219-0.091-0.469-0.227-0.75
			c0.417-0.13,0.815-0.284,1.195-0.461V6.828h-0.758c-0.12,0-0.245,0.011-0.375,0.031c0.021-0.104,0.031-0.206,0.031-0.305
			C327.583,6.456,327.572,6.362,327.552,6.273z M331.716,8.14c0.167,0.062,0.375,0.117,0.625,0.164
			c-0.203,0.177-0.356,0.378-0.461,0.602c-0.005,0.011-0.008,0.019-0.008,0.023h1.992c0.271,0,0.544-0.023,0.82-0.07
			c-0.021,0.109-0.031,0.214-0.031,0.312c0,0.099,0.011,0.193,0.031,0.281c-0.276-0.042-0.55-0.062-0.82-0.062h-0.312
			c-0.099,0.365-0.242,0.693-0.43,0.984c-0.078,0.136-0.169,0.253-0.273,0.352c0.562,0.255,1.13,0.531,1.703,0.828
			c-0.151,0.167-0.266,0.341-0.344,0.523c-0.344-0.24-0.825-0.526-1.445-0.859c-0.099-0.057-0.2-0.109-0.305-0.156
			c-0.192,0.141-0.411,0.266-0.656,0.375c-0.516,0.239-1.141,0.435-1.875,0.586c-0.094-0.224-0.239-0.425-0.438-0.602
			c0.839-0.073,1.479-0.2,1.922-0.383c0.177-0.067,0.333-0.143,0.469-0.227c-0.391-0.151-0.854-0.31-1.391-0.477
			c0.317-0.417,0.534-0.731,0.648-0.945h-0.484c-0.276,0-0.55,0.021-0.82,0.062c0.021-0.088,0.031-0.182,0.031-0.281
			c0-0.099-0.011-0.203-0.031-0.312c0.271,0.047,0.544,0.07,0.82,0.07h0.734C331.492,8.706,331.602,8.442,331.716,8.14z
			 M333.028,6.242c0.266,0.141,0.495,0.232,0.688,0.273c-0.25,0.193-0.534,0.539-0.852,1.039h0.789c0.271,0,0.539-0.023,0.805-0.07
			c-0.016,0.109-0.023,0.214-0.023,0.312c0,0.099,0.008,0.193,0.023,0.281c-0.266-0.036-0.534-0.055-0.805-0.055h-2.789
			c-0.271,0-0.539,0.019-0.805,0.055c0.021-0.088,0.031-0.182,0.031-0.281c0-0.099-0.011-0.203-0.031-0.312
			c0.266,0.047,0.534,0.07,0.805,0.07h1.586C332.711,7.081,332.903,6.643,333.028,6.242z M332.341,4.703
			c0.089,0.281,0.188,0.586,0.297,0.914h0.852c0.271,0,0.544-0.021,0.82-0.062c-0.026,0.099-0.039,0.201-0.039,0.305
			c0,0.099,0.013,0.193,0.039,0.281c-0.276-0.042-0.55-0.062-0.82-0.062h-2.367c-0.271,0-0.542,0.021-0.812,0.062
			c0.021-0.088,0.031-0.182,0.031-0.281c0-0.104-0.011-0.206-0.031-0.305c0.271,0.042,0.542,0.062,0.812,0.062h0.914
			c-0.12-0.323-0.237-0.596-0.352-0.82C331.893,4.776,332.111,4.745,332.341,4.703z M331.341,6.304
			c0.13,0.302,0.305,0.615,0.523,0.938c-0.177,0.037-0.341,0.117-0.492,0.242c-0.161-0.364-0.341-0.688-0.539-0.969
			C331.036,6.468,331.205,6.398,331.341,6.304z M333.005,9.39h-1.336c-0.104,0.219-0.214,0.448-0.328,0.688
			c0.328,0.136,0.661,0.273,1,0.414c0.089-0.073,0.164-0.148,0.227-0.227C332.75,10.052,332.896,9.76,333.005,9.39z"/>
	</g>
	<g>
		<path d="M0.346,1.712c0.098,0.016,0.193,0.023,0.287,0.023h0.674V1.038c0-0.223-0.016-0.443-0.047-0.662
			c0.145,0.016,0.316,0.023,0.516,0.023C1.732,0.509,1.711,0.644,1.711,0.804v0.932H2.25c0.094,0,0.186-0.008,0.275-0.023
			C2.51,1.786,2.502,1.856,2.502,1.923c0,0.074,0.008,0.145,0.023,0.211C2.436,2.122,2.344,2.116,2.25,2.116H1.711v0.826
			C1.832,2.907,1.932,2.858,2.01,2.796c0.16,0.254,0.373,0.52,0.639,0.797C2.523,3.62,2.404,3.683,2.291,3.78
			c-0.172-0.293-0.365-0.549-0.58-0.768v2.145c0,0.262,0.014,0.52,0.041,0.773C1.67,5.915,1.586,5.907,1.5,5.907
			c-0.078,0-0.158,0.008-0.24,0.023c0.031-0.254,0.047-0.512,0.047-0.773V2.919C1.092,3.524,0.834,4.085,0.533,4.601
			c-0.07-0.188-0.17-0.338-0.299-0.451c0.242-0.301,0.445-0.65,0.609-1.049c0.133-0.297,0.252-0.625,0.357-0.984H0.633
			c-0.094,0-0.189,0.006-0.287,0.018c0.016-0.066,0.023-0.137,0.023-0.211C0.369,1.856,0.361,1.786,0.346,1.712z M2.719,0.757
			c0.223,0.031,0.449,0.047,0.68,0.047h1.312c0.223,0,0.449-0.016,0.68-0.047C5.355,0.96,5.338,1.163,5.338,1.366v3.791
			c0,0.219,0.018,0.439,0.053,0.662C5.262,5.804,5.176,5.796,5.133,5.796c-0.047,0-0.135,0.008-0.264,0.023
			C4.9,5.632,4.916,5.444,4.916,5.257H3.193c0,0.191,0.014,0.379,0.041,0.562C3.102,5.804,3.016,5.796,2.977,5.796
			c-0.043,0-0.129,0.008-0.258,0.023C2.746,5.597,2.76,5.376,2.76,5.157V1.366C2.76,1.163,2.746,0.96,2.719,0.757z M3.188,2.257
			h1.734V1.173H3.188V2.257z M3.188,3.546h1.734V2.608H3.188V3.546z M3.188,4.876h1.734V3.892H3.188V4.876z"/>
		<path d="M7.588,0.288c0.176,0.113,0.365,0.191,0.568,0.234C8.047,0.62,7.928,0.825,7.799,1.138
			C7.729,1.345,7.643,1.55,7.541,1.753v3.381c0,0.262,0.016,0.52,0.047,0.773C7.506,5.892,7.42,5.884,7.33,5.884
			c-0.074,0-0.152,0.008-0.234,0.023c0.035-0.254,0.053-0.512,0.053-0.773V2.468C6.957,2.769,6.744,3.065,6.51,3.358
			C6.443,3.175,6.357,3.024,6.252,2.907c0.359-0.367,0.645-0.76,0.855-1.178C7.322,1.319,7.482,0.839,7.588,0.288z M10.33,2.181
			c0.238,0.133,0.443,0.219,0.615,0.258c-0.23,0.457-0.494,1.318-0.791,2.584h0.791c0.254,0,0.512-0.018,0.773-0.053
			c-0.016,0.098-0.023,0.193-0.023,0.287c0,0.082,0.008,0.168,0.023,0.258c-0.262-0.035-0.52-0.053-0.773-0.053H8.572
			c-0.254,0-0.512,0.018-0.773,0.053c0.016-0.09,0.023-0.176,0.023-0.258c0-0.094-0.008-0.189-0.023-0.287
			c0.262,0.035,0.52,0.053,0.773,0.053h1.213C10.039,4.011,10.221,3.063,10.33,2.181z M8.057,1.431
			c0.262,0.031,0.52,0.047,0.773,0.047h1.904c0.254,0,0.51-0.016,0.768-0.047c-0.012,0.098-0.018,0.191-0.018,0.281
			s0.006,0.176,0.018,0.258c-0.258-0.031-0.514-0.047-0.768-0.047H8.83c-0.254,0-0.512,0.016-0.773,0.047
			C8.072,1.888,8.08,1.802,8.08,1.712S8.072,1.528,8.057,1.431z M8.783,2.374l0.639,2.08c-0.18,0.02-0.344,0.053-0.492,0.1
			C8.777,3.694,8.588,2.997,8.361,2.462C8.49,2.458,8.631,2.429,8.783,2.374z M9.604,0.288c0.117,0.27,0.273,0.549,0.469,0.838
			C9.932,1.161,9.801,1.233,9.68,1.343C9.543,1.011,9.387,0.72,9.211,0.47C9.371,0.431,9.502,0.37,9.604,0.288z"/>
	</g>
	<g>
		<path d="M168.346,7.673c0.098,0.016,0.193,0.023,0.287,0.023h0.674V7c0-0.223-0.016-0.443-0.047-0.662
			c0.145,0.016,0.316,0.023,0.516,0.023c-0.043,0.109-0.064,0.244-0.064,0.404v0.932h0.539c0.094,0,0.186-0.008,0.275-0.023
			c-0.016,0.074-0.023,0.145-0.023,0.211c0,0.074,0.008,0.145,0.023,0.211c-0.09-0.012-0.182-0.018-0.275-0.018h-0.539v0.826
			c0.121-0.035,0.221-0.084,0.299-0.146c0.16,0.254,0.373,0.52,0.639,0.797c-0.125,0.027-0.244,0.09-0.357,0.188
			c-0.172-0.293-0.365-0.549-0.58-0.768v2.145c0,0.262,0.014,0.52,0.041,0.773c-0.082-0.016-0.166-0.023-0.252-0.023
			c-0.078,0-0.158,0.008-0.24,0.023c0.031-0.254,0.047-0.512,0.047-0.773V8.88c-0.215,0.605-0.473,1.166-0.773,1.682
			c-0.07-0.188-0.17-0.338-0.299-0.451c0.242-0.301,0.445-0.65,0.609-1.049c0.133-0.297,0.252-0.625,0.357-0.984h-0.568
			c-0.094,0-0.189,0.006-0.287,0.018c0.016-0.066,0.023-0.137,0.023-0.211C168.369,7.818,168.361,7.748,168.346,7.673z
			 M170.719,6.718c0.223,0.031,0.449,0.047,0.68,0.047h1.312c0.223,0,0.449-0.016,0.68-0.047c-0.035,0.203-0.053,0.406-0.053,0.609
			v3.791c0,0.219,0.018,0.439,0.053,0.662c-0.129-0.016-0.215-0.023-0.258-0.023c-0.047,0-0.135,0.008-0.264,0.023
			c0.031-0.188,0.047-0.375,0.047-0.562h-1.723c0,0.191,0.014,0.379,0.041,0.562c-0.133-0.016-0.219-0.023-0.258-0.023
			c-0.043,0-0.129,0.008-0.258,0.023c0.027-0.223,0.041-0.443,0.041-0.662V7.328C170.76,7.125,170.746,6.921,170.719,6.718z
			 M171.188,8.218h1.734V7.134h-1.734V8.218z M171.188,9.507h1.734V8.57h-1.734V9.507z M171.188,10.837h1.734V9.853h-1.734V10.837z"
			/>
		<path d="M175.588,6.25c0.176,0.113,0.365,0.191,0.568,0.234c-0.109,0.098-0.229,0.303-0.357,0.615
			c-0.07,0.207-0.156,0.412-0.258,0.615v3.381c0,0.262,0.016,0.52,0.047,0.773c-0.082-0.016-0.168-0.023-0.258-0.023
			c-0.074,0-0.152,0.008-0.234,0.023c0.035-0.254,0.053-0.512,0.053-0.773V8.429c-0.191,0.301-0.404,0.598-0.639,0.891
			c-0.066-0.184-0.152-0.334-0.258-0.451c0.359-0.367,0.645-0.76,0.855-1.178C175.322,7.281,175.482,6.8,175.588,6.25z
			 M178.33,8.142c0.238,0.133,0.443,0.219,0.615,0.258c-0.23,0.457-0.494,1.318-0.791,2.584h0.791c0.254,0,0.512-0.018,0.773-0.053
			c-0.016,0.098-0.023,0.193-0.023,0.287c0,0.082,0.008,0.168,0.023,0.258c-0.262-0.035-0.52-0.053-0.773-0.053h-2.373
			c-0.254,0-0.512,0.018-0.773,0.053c0.016-0.09,0.023-0.176,0.023-0.258c0-0.094-0.008-0.189-0.023-0.287
			c0.262,0.035,0.52,0.053,0.773,0.053h1.213C178.039,9.972,178.221,9.025,178.33,8.142z M176.057,7.392
			c0.262,0.031,0.52,0.047,0.773,0.047h1.904c0.254,0,0.51-0.016,0.768-0.047c-0.012,0.098-0.018,0.191-0.018,0.281
			s0.006,0.176,0.018,0.258c-0.258-0.031-0.514-0.047-0.768-0.047h-1.904c-0.254,0-0.512,0.016-0.773,0.047
			c0.016-0.082,0.023-0.168,0.023-0.258S176.072,7.49,176.057,7.392z M176.783,8.335l0.639,2.08c-0.18,0.02-0.344,0.053-0.492,0.1
			c-0.152-0.859-0.342-1.557-0.568-2.092C176.49,8.419,176.631,8.39,176.783,8.335z M177.604,6.25
			c0.117,0.27,0.273,0.549,0.469,0.838c-0.141,0.035-0.271,0.107-0.393,0.217c-0.137-0.332-0.293-0.623-0.469-0.873
			C177.371,6.392,177.502,6.332,177.604,6.25z"/>
		<path d="M180.422,8.587c0.262,0.031,0.527,0.047,0.797,0.047h3.516c0.266,0,0.529-0.016,0.791-0.047
			c-0.016,0.098-0.023,0.191-0.023,0.281c0,0.098,0.008,0.191,0.023,0.281c-0.262-0.031-0.525-0.047-0.791-0.047h-3.516
			c-0.27,0-0.535,0.016-0.797,0.047c0.016-0.09,0.023-0.184,0.023-0.281C180.445,8.779,180.438,8.685,180.422,8.587z"/>
		<path d="M187.383,7.158c0.141,0.094,0.303,0.18,0.486,0.258c-0.156,0.16-0.309,0.34-0.457,0.539
			c-0.164,0.238-0.33,0.436-0.498,0.592c0.492-0.109,0.98-0.176,1.465-0.199c-0.125-0.176-0.254-0.338-0.387-0.486
			c0.152-0.031,0.275-0.086,0.369-0.164c0.164,0.297,0.377,0.598,0.639,0.902c0.148-0.27,0.287-0.57,0.416-0.902
			c0.199-0.496,0.332-0.963,0.398-1.4c0.145,0.062,0.334,0.107,0.568,0.135c-0.098,0.141-0.227,0.414-0.387,0.82
			c-0.043,0.129-0.088,0.254-0.135,0.375h1.195c0.191,0,0.396-0.008,0.615-0.023c-0.016,0.078-0.023,0.15-0.023,0.217
			c0,0.086,0.008,0.164,0.023,0.234c-0.145-0.016-0.35-0.023-0.615-0.023h-0.094c-0.016,0.648-0.088,1.193-0.217,1.635
			c-0.102,0.328-0.234,0.617-0.398,0.867c0.105,0.137,0.217,0.242,0.334,0.316c0.273,0.195,0.619,0.334,1.037,0.416
			c-0.156,0.105-0.283,0.262-0.381,0.469c-0.367-0.133-0.703-0.338-1.008-0.615c-0.082-0.078-0.16-0.164-0.234-0.258
			c-0.066,0.078-0.135,0.148-0.205,0.211c-0.324,0.301-0.723,0.545-1.195,0.732c-0.117-0.18-0.236-0.314-0.357-0.404
			c0.406-0.109,0.773-0.275,1.102-0.498c0.164-0.117,0.305-0.248,0.422-0.393c-0.074-0.129-0.141-0.266-0.199-0.41
			c-0.148-0.391-0.256-0.795-0.322-1.213c-0.066,0.141-0.133,0.277-0.199,0.41c-0.137-0.129-0.285-0.199-0.445-0.211
			c0.07-0.102,0.139-0.205,0.205-0.311c-0.066,0.035-0.127,0.074-0.182,0.117c-0.043-0.078-0.088-0.154-0.135-0.229
			c-0.266,0.008-0.512,0.021-0.738,0.041v0.826h0.404c0.199,0,0.4-0.016,0.604-0.047c-0.016,0.074-0.023,0.152-0.023,0.234
			c0,0.07,0.008,0.139,0.023,0.205c-0.203-0.031-0.404-0.047-0.604-0.047h-0.404v0.797c0.387-0.062,0.756-0.131,1.107-0.205
			c-0.016,0.203-0.023,0.342-0.023,0.416c-1.332,0.199-2.186,0.355-2.561,0.469c-0.008-0.133-0.047-0.289-0.117-0.469
			c0.418-0.043,0.818-0.092,1.201-0.146V9.876h-0.381c-0.203,0-0.404,0.016-0.604,0.047c0.016-0.066,0.023-0.135,0.023-0.205
			c0-0.082-0.008-0.16-0.023-0.234c0.199,0.031,0.4,0.047,0.604,0.047h0.381V8.746c-0.414,0.051-0.742,0.125-0.984,0.223l-0.1-0.469
			c0.219-0.086,0.402-0.229,0.551-0.428C187.053,7.908,187.207,7.603,187.383,7.158z M186.346,6.742
			c0.223,0.031,0.441,0.047,0.656,0.047h1.266c0.219,0,0.439-0.016,0.662-0.047c-0.016,0.074-0.023,0.152-0.023,0.234
			c0,0.074,0.008,0.15,0.023,0.229c-0.223-0.031-0.443-0.047-0.662-0.047h-1.266c-0.215,0-0.434,0.016-0.656,0.047
			c0.016-0.078,0.023-0.154,0.023-0.229C186.369,6.894,186.361,6.816,186.346,6.742z M189.398,8.775
			c0.129-0.012,0.252-0.035,0.369-0.07c0.016,0.484,0.104,0.912,0.264,1.283c0.027,0.062,0.055,0.119,0.082,0.17
			c0.039-0.059,0.072-0.117,0.1-0.176c0.137-0.277,0.234-0.621,0.293-1.031c0.031-0.289,0.051-0.596,0.059-0.92h-0.85
			C189.613,8.289,189.508,8.537,189.398,8.775z"/>
		<path d="M192.492,6.789c0.23,0.031,0.465,0.047,0.703,0.047h0.58c0.238,0,0.475-0.016,0.709-0.047
			c-0.031,0.207-0.047,0.416-0.047,0.627v3.1c0,0.223,0.016,0.447,0.047,0.674c-0.133-0.016-0.219-0.023-0.258-0.023
			c-0.047,0-0.141,0.008-0.281,0.023c0.023-0.168,0.037-0.332,0.041-0.492h-1.002v0.076c0,0.223,0.014,0.447,0.041,0.674
			c-0.141-0.016-0.232-0.023-0.275-0.023s-0.129,0.008-0.258,0.023c0.027-0.227,0.041-0.451,0.041-0.674V7.416
			C192.533,7.205,192.52,6.996,192.492,6.789z M192.984,8.57h1.008V7.234h-1.008V8.57z M192.984,10.304h1.008V8.939h-1.008V10.304z
			 M194.572,7.697c0.23,0.035,0.457,0.053,0.68,0.053h1.248V6.689c0-0.137-0.008-0.275-0.023-0.416
			c0.168,0.031,0.346,0.047,0.533,0.047c-0.043,0.129-0.064,0.277-0.064,0.445V7.75h0.064c0.227,0,0.455-0.018,0.686-0.053
			c-0.016,0.09-0.023,0.176-0.023,0.258s0.008,0.16,0.023,0.234c-0.23-0.031-0.459-0.047-0.686-0.047h-0.064v3.211
			c0,0.215-0.092,0.355-0.275,0.422c-0.18,0.062-0.439,0.094-0.779,0.094c-0.043-0.203-0.129-0.375-0.258-0.516h0.369
			c0.332,0,0.498-0.078,0.498-0.234V8.142h-1.248c-0.223,0-0.449,0.016-0.68,0.047c0.016-0.074,0.023-0.152,0.023-0.234
			S194.588,7.787,194.572,7.697z M195.322,8.658l0.568,1.318c-0.184,0.02-0.348,0.051-0.492,0.094
			c-0.137-0.543-0.301-0.98-0.492-1.312C195.031,8.75,195.17,8.716,195.322,8.658z"/>
		<path d="M198.791,6.595c0.23,0.031,0.459,0.047,0.686,0.047h3.164c0.227,0,0.451-0.016,0.674-0.047
			c-0.016,0.09-0.023,0.176-0.023,0.258s0.008,0.16,0.023,0.234c-0.223-0.027-0.447-0.041-0.674-0.041h-0.469v1.734h0.773
			c0.238,0,0.48-0.016,0.727-0.047c-0.016,0.082-0.023,0.168-0.023,0.258c0,0.082,0.008,0.168,0.023,0.258
			c-0.246-0.035-0.488-0.053-0.727-0.053h-0.773v1.945c0,0.254,0.016,0.504,0.047,0.75c-0.098-0.016-0.191-0.023-0.281-0.023
			c-0.098,0-0.191,0.008-0.281,0.023c0.031-0.246,0.047-0.496,0.047-0.75V9.197h-1.195c-0.02,0.148-0.043,0.295-0.07,0.439
			c-0.113,0.516-0.27,0.945-0.469,1.289c-0.223,0.387-0.582,0.725-1.078,1.014c-0.141-0.176-0.305-0.314-0.492-0.416
			c0.496-0.172,0.863-0.428,1.102-0.768c0.203-0.305,0.361-0.688,0.475-1.148c0.027-0.137,0.051-0.273,0.07-0.41h-0.996
			c-0.238,0-0.48,0.018-0.727,0.053c0.016-0.09,0.023-0.176,0.023-0.258c0-0.09-0.008-0.176-0.023-0.258
			c0.246,0.031,0.488,0.047,0.727,0.047h1.043c0.008-0.133,0.012-0.266,0.012-0.398V7.046h-0.627c-0.227,0-0.455,0.014-0.686,0.041
			c0.016-0.074,0.023-0.152,0.023-0.234S198.807,6.685,198.791,6.595z M201.703,8.781V7.046h-1.131v1.201
			c0,0.176-0.008,0.354-0.023,0.533H201.703z"/>
		<path d="M205.172,6.32c0.141,0.051,0.312,0.105,0.516,0.164c-0.051,0.102-0.096,0.244-0.135,0.428
			c-0.035,0.266-0.07,0.512-0.105,0.738h0.422c0.215,0,0.426-0.016,0.633-0.047c-0.027,0.152-0.057,0.303-0.088,0.451
			c-0.121,0.969-0.275,1.668-0.463,2.098c0.297,0.219,0.574,0.441,0.832,0.668c-0.148,0.121-0.264,0.254-0.346,0.398
			c-0.223-0.25-0.449-0.477-0.68-0.68c-0.238,0.422-0.605,0.82-1.102,1.195c-0.102-0.164-0.229-0.291-0.381-0.381
			c0.48-0.301,0.85-0.645,1.107-1.031c0.012-0.02,0.023-0.037,0.035-0.053c-0.234-0.164-0.514-0.34-0.838-0.527
			c0.176-0.625,0.297-1.115,0.363-1.471c0.012-0.07,0.023-0.143,0.035-0.217h-0.041c-0.203,0-0.408,0.014-0.615,0.041
			c0.016-0.082,0.023-0.168,0.023-0.258c0-0.074-0.008-0.152-0.023-0.234c0.207,0.031,0.412,0.047,0.615,0.047h0.1
			C205.088,7.267,205.133,6.824,205.172,6.32z M205.594,9.9c0.172-0.441,0.305-1.057,0.398-1.846h-0.609
			c-0.105,0.641-0.201,1.148-0.287,1.523C205.271,9.687,205.438,9.794,205.594,9.9z M207.75,6.273
			c0.168,0.102,0.361,0.203,0.58,0.305c-0.191,0.25-0.373,0.533-0.545,0.85c-0.195,0.375-0.395,0.684-0.598,0.926
			c0.523-0.09,1.045-0.148,1.564-0.176c-0.18-0.242-0.365-0.463-0.557-0.662c0.18-0.047,0.328-0.117,0.445-0.211
			c0.281,0.48,0.654,0.973,1.119,1.477c-0.164,0.035-0.32,0.113-0.469,0.234c-0.094-0.168-0.191-0.33-0.293-0.486
			c-1.074,0.027-1.857,0.127-2.35,0.299l-0.123-0.562c0.262-0.125,0.482-0.338,0.662-0.639C207.352,7.38,207.539,6.929,207.75,6.273
			z M206.783,9.226c0.238,0.031,0.475,0.047,0.709,0.047h1.025c0.234,0,0.471-0.016,0.709-0.047
			c-0.031,0.211-0.047,0.42-0.047,0.627v1.289c0,0.23,0.016,0.459,0.047,0.686c-0.133-0.016-0.219-0.023-0.258-0.023
			c-0.047,0-0.141,0.008-0.281,0.023c0.027-0.207,0.043-0.41,0.047-0.609h-1.459c0.004,0.203,0.02,0.406,0.047,0.609
			c-0.141-0.016-0.234-0.023-0.281-0.023c-0.039,0-0.125,0.008-0.258,0.023c0.031-0.227,0.047-0.455,0.047-0.686V9.853
			C206.83,9.646,206.814,9.437,206.783,9.226z M207.275,10.82h1.459V9.666h-1.459V10.82z"/>
		<path d="M214.664,6.789c-0.461,0.047-0.961,0.088-1.5,0.123v0.504h1.828c0.215,0,0.434-0.016,0.656-0.047
			c-0.02,0.082-0.029,0.16-0.029,0.234c0,0.082,0.01,0.16,0.029,0.234c-0.223-0.027-0.441-0.041-0.656-0.041h-1.828v0.422h0.984
			c0.238,0,0.479-0.01,0.721-0.029c-0.016,0.125-0.023,0.252-0.023,0.381v1.072c0,0.148,0.008,0.297,0.023,0.445
			c-0.242-0.012-0.482-0.018-0.721-0.018h-0.984v0.398h1.289c0.199,0,0.4-0.018,0.604-0.053c-0.016,0.082-0.023,0.16-0.023,0.234
			s0.008,0.145,0.023,0.211c-0.203-0.027-0.404-0.041-0.604-0.041h-1.289v0.469h1.846c0.219,0,0.439-0.016,0.662-0.047
			c-0.016,0.074-0.023,0.152-0.023,0.234c0,0.074,0.008,0.15,0.023,0.229c-0.223-0.031-0.443-0.047-0.662-0.047h-4.025
			c-0.219,0-0.439,0.016-0.662,0.047c0.016-0.078,0.023-0.154,0.023-0.229c0-0.082-0.008-0.16-0.023-0.234
			c0.223,0.031,0.443,0.047,0.662,0.047h1.758V10.82H211.5c-0.203,0-0.406,0.014-0.609,0.041c0.016-0.066,0.023-0.137,0.023-0.211
			s-0.008-0.152-0.023-0.234c0.203,0.035,0.406,0.053,0.609,0.053h1.242V10.07h-0.896c-0.238,0-0.48,0.006-0.727,0.018
			c0.02-0.148,0.029-0.297,0.029-0.445V8.57c-0.02-0.129-0.029-0.256-0.029-0.381c0.246,0.02,0.488,0.029,0.727,0.029h0.896V7.796
			h-1.74c-0.215,0-0.434,0.014-0.656,0.041c0.016-0.074,0.023-0.152,0.023-0.234c0-0.074-0.008-0.152-0.023-0.234
			c0.223,0.031,0.441,0.047,0.656,0.047h1.74V6.941c-0.59,0.035-1.225,0.062-1.904,0.082c-0.055-0.188-0.107-0.33-0.158-0.428
			c0.203,0.031,0.404,0.047,0.604,0.047c0.609,0,1.242-0.021,1.898-0.064c0.484-0.031,0.994-0.111,1.529-0.24
			c0.062,0.18,0.141,0.338,0.234,0.475C214.82,6.796,214.727,6.789,214.664,6.789z M211.564,8.992h1.178V8.57h-1.178V8.992z
			 M212.742,9.718V9.296h-1.178v0.422H212.742z M213.164,8.57v0.422h1.266V8.57H213.164z M214.43,9.718V9.296h-1.266v0.422H214.43z"
			/>
		<path d="M217.096,10.07c0.117,0.051,0.258,0.096,0.422,0.135c-0.047,0.043-0.102,0.115-0.164,0.217
			c-0.203,0.363-0.453,0.697-0.75,1.002c-0.078-0.09-0.188-0.168-0.328-0.234c0.227-0.18,0.402-0.365,0.527-0.557
			C216.951,10.417,217.049,10.23,217.096,10.07z M218.484,7.515c0.172,0.094,0.32,0.154,0.445,0.182
			c-0.152,0.121-0.326,0.34-0.521,0.656h0.264c0.203,0,0.404-0.014,0.604-0.041c-0.016,0.074-0.023,0.152-0.023,0.234
			c0,0.066,0.008,0.137,0.023,0.211c-0.199-0.035-0.4-0.053-0.604-0.053h-0.516v0.68h0.439c0.207,0,0.412-0.016,0.615-0.047
			c-0.016,0.078-0.023,0.158-0.023,0.24c0,0.066,0.008,0.137,0.023,0.211c-0.203-0.031-0.408-0.047-0.615-0.047h-0.439V11.4
			c0,0.117-0.07,0.199-0.211,0.246c-0.129,0.059-0.387,0.088-0.773,0.088c-0.008-0.176-0.057-0.332-0.146-0.469
			c0.246,0.031,0.434,0.047,0.562,0.047c0.105,0,0.16-0.041,0.164-0.123V9.742h-0.656c-0.203,0-0.404,0.016-0.604,0.047
			c0.012-0.074,0.018-0.145,0.018-0.211c0-0.082-0.006-0.162-0.018-0.24c0.199,0.031,0.4,0.047,0.604,0.047h0.656v-0.68h-0.727
			c-0.199,0-0.4,0.018-0.604,0.053c0.016-0.074,0.023-0.145,0.023-0.211c0-0.082-0.008-0.16-0.023-0.234
			c0.203,0.027,0.404,0.041,0.604,0.041h1.113C218.299,8.048,218.414,7.769,218.484,7.515z M218.104,6.384
			c0.059,0.172,0.119,0.359,0.182,0.562h0.311c0.207,0,0.412-0.016,0.615-0.047c-0.016,0.082-0.023,0.16-0.023,0.234
			s0.008,0.145,0.023,0.211c-0.203-0.027-0.408-0.041-0.615-0.041h-1.377c-0.203,0-0.408,0.014-0.615,0.041
			c0.02-0.066,0.029-0.137,0.029-0.211s-0.01-0.152-0.029-0.234c0.207,0.031,0.412,0.047,0.615,0.047h0.668
			c-0.074-0.203-0.148-0.375-0.223-0.516C217.801,6.419,217.947,6.404,218.104,6.384z M217.307,7.468
			c0.098,0.211,0.225,0.428,0.381,0.65c-0.121,0.027-0.232,0.084-0.334,0.17c-0.105-0.262-0.229-0.49-0.369-0.686
			C217.117,7.576,217.225,7.531,217.307,7.468z M218.572,10.134c0.148,0.246,0.346,0.496,0.592,0.75
			c-0.125,0.031-0.244,0.096-0.357,0.193c-0.172-0.297-0.365-0.555-0.58-0.773C218.367,10.269,218.482,10.212,218.572,10.134z
			 M221.314,6.484c0.062,0.156,0.156,0.311,0.281,0.463c-0.426,0.016-0.971,0.094-1.635,0.234v1.172h1.195
			c0.18,0,0.375-0.006,0.586-0.018c-0.016,0.074-0.023,0.145-0.023,0.211c0,0.078,0.008,0.148,0.023,0.211
			c-0.145-0.016-0.34-0.023-0.586-0.023h-0.123v2.432c0,0.23,0.016,0.457,0.047,0.68c-0.082-0.012-0.168-0.018-0.258-0.018
			c-0.082,0-0.168,0.006-0.258,0.018c0.031-0.223,0.047-0.449,0.047-0.68V8.734h-0.65v0.492c0,0.594-0.094,1.127-0.281,1.6
			c-0.145,0.391-0.357,0.754-0.639,1.09c-0.141-0.117-0.289-0.203-0.445-0.258c0.344-0.344,0.588-0.727,0.732-1.148
			c0.137-0.414,0.205-0.842,0.205-1.283V7.369c-0.012-0.18-0.033-0.357-0.064-0.533c0.09,0.012,0.184,0.018,0.281,0.018
			c0.273,0,0.523-0.025,0.75-0.076C220.766,6.726,221.037,6.628,221.314,6.484z"/>
		<path d="M222.252,8.353c0.164,0.016,0.33,0.023,0.498,0.023h0.041c0.23,0,0.459-0.008,0.686-0.023
			c-0.016,0.219-0.023,0.439-0.023,0.662v1.008c0,0.184,0.006,0.369,0.018,0.557c0.016,0.012,0.027,0.02,0.035,0.023
			c0.543,0.359,1.252,0.539,2.127,0.539c0.41,0,1.105-0.045,2.086-0.135c-0.105,0.152-0.178,0.354-0.217,0.604h-1.688
			c-0.98,0-1.75-0.189-2.309-0.568c-0.125-0.09-0.213-0.135-0.264-0.135c-0.141,0-0.361,0.189-0.662,0.568
			c-0.117-0.16-0.264-0.287-0.439-0.381l0.621-0.451c0.082-0.055,0.158-0.096,0.229-0.123c0.008-0.168,0.012-0.334,0.012-0.498
			V8.781h-0.252c-0.168,0-0.334,0.008-0.498,0.023c0.016-0.082,0.023-0.16,0.023-0.234C222.275,8.5,222.268,8.427,222.252,8.353z
			 M223.096,6.554c0.113,0.348,0.262,0.721,0.445,1.119c-0.145,0.027-0.293,0.076-0.445,0.146c-0.078-0.352-0.225-0.736-0.439-1.154
			C222.812,6.646,222.959,6.609,223.096,6.554z M223.775,6.976c0.227,0.031,0.455,0.047,0.686,0.047h0.604
			c0.07-0.164,0.137-0.334,0.199-0.51c0.039-0.137,0.059-0.225,0.059-0.264c0.188,0.066,0.4,0.119,0.639,0.158
			c-0.121,0.102-0.234,0.254-0.34,0.457c-0.027,0.055-0.053,0.107-0.076,0.158h1.277c0.23,0,0.457-0.016,0.68-0.047
			c-0.012,0.082-0.018,0.168-0.018,0.258c0,0.074,0.006,0.152,0.018,0.234c-0.223-0.035-0.449-0.053-0.68-0.053h-1.477
			c-0.168,0.328-0.355,0.689-0.562,1.084h0.727V8.4c0-0.23-0.014-0.465-0.041-0.703c0.148,0.02,0.326,0.029,0.533,0.029
			c-0.043,0.109-0.064,0.248-0.064,0.416V8.5h0.703c0.195,0,0.391-0.008,0.586-0.023c-0.016,0.07-0.023,0.139-0.023,0.205
			s0.008,0.137,0.023,0.211c-0.164-0.016-0.359-0.023-0.586-0.023h-0.703v0.75h0.814c0.227,0,0.455-0.014,0.686-0.041
			c-0.016,0.082-0.023,0.168-0.023,0.258c0,0.074,0.008,0.152,0.023,0.234c-0.23-0.031-0.459-0.047-0.686-0.047h-0.814v0.047
			c0,0.273,0.016,0.545,0.047,0.814c-0.09-0.016-0.176-0.023-0.258-0.023c-0.09,0-0.176,0.008-0.258,0.023
			c0.027-0.27,0.041-0.541,0.041-0.814v-0.047h-1.008c-0.223,0-0.449,0.016-0.68,0.047c0.016-0.082,0.023-0.16,0.023-0.234
			c0-0.09-0.008-0.176-0.023-0.258c0.23,0.027,0.457,0.041,0.68,0.041h1.008v-0.75h-0.838c-0.164,0-0.354,0.016-0.568,0.047
			c-0.035-0.141-0.08-0.264-0.135-0.369c0.25-0.07,0.42-0.18,0.51-0.328c0.145-0.234,0.285-0.502,0.422-0.803h-0.439
			c-0.23,0-0.459,0.018-0.686,0.053c0.016-0.082,0.023-0.16,0.023-0.234C223.799,7.144,223.791,7.058,223.775,6.976z"/>
		<path d="M228.322,7.515c0.098,0.016,0.191,0.023,0.281,0.023h0.568v-0.82c0-0.125-0.008-0.252-0.023-0.381
			c0.148,0.016,0.312,0.023,0.492,0.023c-0.051,0.117-0.076,0.252-0.076,0.404v0.773h0.404c0.09,0,0.184-0.008,0.281-0.023
			c-0.016,0.066-0.023,0.137-0.023,0.211s0.008,0.15,0.023,0.229c-0.098-0.016-0.191-0.023-0.281-0.023h-0.404v1.002
			c0.176-0.098,0.348-0.205,0.516-0.322c-0.016,0.254-0.023,0.426-0.023,0.516c-0.18,0.086-0.344,0.164-0.492,0.234v1.951
			c0,0.191-0.072,0.316-0.217,0.375c-0.141,0.062-0.348,0.094-0.621,0.094c-0.039-0.188-0.117-0.344-0.234-0.469h0.322
			c0.238,0,0.357-0.072,0.357-0.217V9.566c-0.348,0.188-0.59,0.348-0.727,0.48c-0.012-0.164-0.068-0.352-0.17-0.562
			c0.312-0.098,0.611-0.213,0.896-0.346V7.931h-0.568c-0.09,0-0.184,0.008-0.281,0.023c0.016-0.078,0.023-0.154,0.023-0.229
			S228.338,7.582,228.322,7.515z M231.445,8.916c0.125,0.047,0.281,0.088,0.469,0.123c-0.152,0.133-0.268,0.283-0.346,0.451
			c-0.004,0.008-0.006,0.014-0.006,0.018h1.494c0.203,0,0.408-0.018,0.615-0.053c-0.016,0.082-0.023,0.16-0.023,0.234
			s0.008,0.145,0.023,0.211c-0.207-0.031-0.412-0.047-0.615-0.047h-0.234c-0.074,0.273-0.182,0.52-0.322,0.738
			c-0.059,0.102-0.127,0.189-0.205,0.264c0.422,0.191,0.848,0.398,1.277,0.621c-0.113,0.125-0.199,0.256-0.258,0.393
			c-0.258-0.18-0.619-0.395-1.084-0.645c-0.074-0.043-0.15-0.082-0.229-0.117c-0.145,0.105-0.309,0.199-0.492,0.281
			c-0.387,0.18-0.855,0.326-1.406,0.439c-0.07-0.168-0.18-0.318-0.328-0.451c0.629-0.055,1.109-0.15,1.441-0.287
			c0.133-0.051,0.25-0.107,0.352-0.17c-0.293-0.113-0.641-0.232-1.043-0.357c0.238-0.312,0.4-0.549,0.486-0.709h-0.363
			c-0.207,0-0.412,0.016-0.615,0.047c0.016-0.066,0.023-0.137,0.023-0.211s-0.008-0.152-0.023-0.234
			c0.203,0.035,0.408,0.053,0.615,0.053h0.551C231.277,9.339,231.359,9.142,231.445,8.916z M232.43,7.492
			c0.199,0.105,0.371,0.174,0.516,0.205c-0.188,0.145-0.4,0.404-0.639,0.779h0.592c0.203,0,0.404-0.018,0.604-0.053
			c-0.012,0.082-0.018,0.16-0.018,0.234s0.006,0.145,0.018,0.211c-0.199-0.027-0.4-0.041-0.604-0.041h-2.092
			c-0.203,0-0.404,0.014-0.604,0.041c0.016-0.066,0.023-0.137,0.023-0.211s-0.008-0.152-0.023-0.234
			c0.199,0.035,0.4,0.053,0.604,0.053h1.189C232.191,8.121,232.336,7.792,232.43,7.492z M231.914,6.337
			c0.066,0.211,0.141,0.439,0.223,0.686h0.639c0.203,0,0.408-0.016,0.615-0.047c-0.02,0.074-0.029,0.15-0.029,0.229
			c0,0.074,0.01,0.145,0.029,0.211c-0.207-0.031-0.412-0.047-0.615-0.047H231c-0.203,0-0.406,0.016-0.609,0.047
			c0.016-0.066,0.023-0.137,0.023-0.211c0-0.078-0.008-0.154-0.023-0.229c0.203,0.031,0.406,0.047,0.609,0.047h0.686
			c-0.09-0.242-0.178-0.447-0.264-0.615C231.578,6.392,231.742,6.369,231.914,6.337z M231.164,7.539
			c0.098,0.227,0.229,0.461,0.393,0.703c-0.133,0.027-0.256,0.088-0.369,0.182c-0.121-0.273-0.256-0.516-0.404-0.727
			C230.936,7.662,231.062,7.609,231.164,7.539z M232.412,9.853h-1.002c-0.078,0.164-0.16,0.336-0.246,0.516
			c0.246,0.102,0.496,0.205,0.75,0.311c0.066-0.055,0.123-0.111,0.17-0.17C232.221,10.349,232.33,10.13,232.412,9.853z"/>
	</g>
	<g>
	</g>
	<g>
	</g>
	<g>
	</g>
	<g>
	</g>
	<g>
	</g>
	<g>
	</g>
	<g>
	</g>
	<g>
	</g>
	<g>
	</g>
	<g>
	</g>
	<g>
	</g>
	<g>
	</g>
	<g>
	</g>
	<g>
	</g>
	<g>
	</g>
	<g>
	</g>
</g>
</svg>
