<?xml version="1.0" encoding="utf-8"?>
<!-- Generator: Adobe Illustrator 28.2.0, SVG Export Plug-In . SVG Version: 6.00 Build 0)  -->
<svg version="1.1" xmlns="http://www.w3.org/2000/svg" xmlns:xlink="http://www.w3.org/1999/xlink" x="0px" y="0px"
	 width="445.121px" height="306.491px" viewBox="0 0 445.121 306.491" style="enable-background:new 0 0 445.121 306.491;"
	 xml:space="preserve">
<style type="text/css">
	.st0{fill:none;stroke:#666666;stroke-width:0.5;stroke-miterlimit:10;stroke-dasharray:1;}
	.st1{fill:none;stroke:#040000;stroke-miterlimit:10;}
	.st2{fill:#040000;}
</style>
<g id="レイヤー_1">
	<line class="st0" x1="422.23" y1="10.155" x2="422.23" y2="94.83"/>
	<line class="st0" x1="330.247" y1="10.155" x2="330.247" y2="306.491"/>
	<line class="st0" x1="318.382" y1="10.155" x2="318.382" y2="234.761"/>
	<line class="st0" x1="56.768" y1="10.155" x2="56.768" y2="306.491"/>
	<line class="st0" x1="68.135" y1="10.155" x2="68.135" y2="234.762"/>
	<line class="st0" x1="57.065" y1="291.922" x2="330.247" y2="291.922"/>
	<line class="st0" x1="57.065" y1="199.707" x2="445.111" y2="199.707"/>
	<polyline class="st1" points="445.11,50.401 422.208,49.895 422.208,27.178 56.661,27.684 56.661,50.401 36.571,50.401 	"/>
	<polyline class="st1" points="445.11,117.547 330.247,117.547 330.247,94.83 56.661,94.83 56.661,117.547 36.571,117.547 	"/>
	<polyline class="st1" points="445.111,131.752 330.247,131.751 56.661,199.707 36.571,199.707 	"/>
	<polyline class="st1" points="445.11,83.974 422.208,83.974 422.208,61.257 330.039,61.257 330.039,83.974 36.571,83.974 	"/>
	<polyline class="st1" points="445.11,291.639 330.247,291.638 318.382,234.761 68.135,234.762 57.065,291.922 36.571,291.639 	"/>
</g>
<g id="レイヤー_2">
	<g>
		<path class="st2" d="M327.742,0.779c-0.68,1.279-1.087,2.047-1.087,3.966c0,1.319,0.455,2.295,1.095,3.55h-0.472
			c-0.831-1.248-1.375-2.247-1.375-3.742c0-1.407,0.487-2.542,1.352-3.774H327.742z"/>
		<path class="st2" d="M331.381,5.273V6.64h-0.703V5.273h-2.455V4.585l2.574-3.566h0.584v3.646h0.823v0.608H331.381z M328.871,4.665
			h1.808v-2.55h-0.017L328.871,4.665z"/>
		<path class="st2" d="M332.75,8.295c0.68-1.279,1.088-2.047,1.088-3.966c0-1.319-0.456-2.295-1.096-3.55h0.472
			c0.832,1.248,1.375,2.247,1.375,3.742c0,1.407-0.487,2.542-1.351,3.774H332.75z"/>
	</g>
	<g>
		<path class="st2" d="M419.724,0.779c-0.68,1.279-1.087,2.047-1.087,3.966c0,1.319,0.455,2.295,1.095,3.55h-0.472
			c-0.831-1.248-1.375-2.247-1.375-3.742c0-1.407,0.487-2.542,1.352-3.774H419.724z"/>
		<path class="st2" d="M421.181,3.37c0.239-0.184,0.584-0.352,1.087-0.352c0.912,0,1.848,0.64,1.848,1.799
			c0,0.624-0.28,1.975-2.039,1.975c-0.735,0-1.68-0.296-1.815-1.551h0.728c0.072,0.656,0.56,0.944,1.191,0.944
			c0.728,0,1.184-0.584,1.184-1.288c0-0.808-0.552-1.247-1.247-1.247c-0.408,0-0.775,0.192-1.04,0.536l-0.607-0.032l0.424-3.014
			h2.91v0.688h-2.383L421.181,3.37z"/>
		<path class="st2" d="M424.733,8.295c0.68-1.279,1.088-2.047,1.088-3.966c0-1.319-0.456-2.295-1.096-3.55h0.472
			c0.832,1.248,1.375,2.247,1.375,3.742c0,1.407-0.487,2.542-1.351,3.774H424.733z"/>
	</g>
	<g>
		<path class="st2" d="M315.876,0.779c-0.68,1.279-1.087,2.047-1.087,3.966c0,1.319,0.455,2.295,1.095,3.55h-0.472
			c-0.831-1.248-1.375-2.247-1.375-3.742c0-1.407,0.487-2.542,1.352-3.774H315.876z"/>
		<path class="st2" d="M317.949,3.442c0.12,0.008,0.248,0.016,0.368,0.016c0.544,0,1.071-0.216,1.071-0.919
			c0-0.336-0.2-0.888-1.039-0.888c-1,0-1.063,0.815-1.096,1.208h-0.688c0-0.824,0.336-1.839,1.814-1.839
			c1.088,0,1.735,0.624,1.735,1.479c0,0.72-0.416,1.063-0.72,1.159v0.016c0.544,0.176,0.936,0.56,0.936,1.311
			c0,0.92-0.592,1.807-2.022,1.807c-0.416,0-0.768-0.104-1.04-0.248c-0.623-0.328-0.791-0.976-0.839-1.624h0.728
			c0.023,0.528,0.151,1.24,1.199,1.24c0.72,0,1.224-0.44,1.224-1.088c0-0.943-0.832-1.031-1.312-1.031
			c-0.104,0-0.216,0.008-0.32,0.008V3.442z"/>
		<path class="st2" d="M320.885,8.295c0.68-1.279,1.088-2.047,1.088-3.966c0-1.319-0.456-2.295-1.096-3.55h0.472
			c0.832,1.248,1.375,2.247,1.375,3.742c0,1.407-0.487,2.542-1.351,3.774H320.885z"/>
	</g>
	<g>
		<path class="st2" d="M65.63,0.779c-0.68,1.279-1.087,2.047-1.087,3.966c0,1.319,0.456,2.295,1.095,3.55h-0.472
			c-0.832-1.248-1.375-2.247-1.375-3.742c0-1.407,0.488-2.542,1.352-3.774H65.63z"/>
		<path class="st2" d="M66.263,3.034c0-1.831,1.335-2.015,1.943-2.015c0.975,0,1.759,0.632,1.759,1.679
			c0,1.007-0.664,1.431-1.503,1.879l-0.584,0.32c-0.768,0.424-0.936,0.864-0.967,1.08h3.054V6.64h-3.846
			c0.04-1.167,0.567-1.791,1.319-2.231l0.744-0.432c0.6-0.344,1.031-0.576,1.031-1.311c0-0.448-0.288-1.016-1.111-1.016
			c-1.063,0-1.111,0.991-1.136,1.383H66.263z"/>
		<path class="st2" d="M70.639,8.295c0.68-1.279,1.087-2.047,1.087-3.966c0-1.319-0.456-2.295-1.095-3.55h0.472
			c0.832,1.248,1.375,2.247,1.375,3.742c0,1.407-0.488,2.542-1.351,3.774H70.639z"/>
	</g>
	<g>
		<path class="st2" d="M54.978,0.779c-0.68,1.279-1.087,2.047-1.087,3.966c0,1.319,0.456,2.295,1.095,3.55h-0.472
			c-0.832-1.248-1.375-2.247-1.375-3.742c0-1.407,0.488-2.542,1.352-3.774H54.978z"/>
		<path class="st2" d="M58.13,6.64h-0.752V2.65h-1.311v-0.56c0.912-0.064,1.287-0.152,1.511-1.072h0.552V6.64z"/>
		<path class="st2" d="M59.987,8.295c0.68-1.279,1.087-2.047,1.087-3.966c0-1.319-0.456-2.295-1.095-3.55h0.472
			c0.832,1.248,1.375,2.247,1.375,3.742c0,1.407-0.488,2.542-1.351,3.774H59.987z"/>
	</g>
	<g>
		<path class="st2" d="M8.021,42.123H3.784v-5.741h4.182v0.688H4.56v1.759h3.142v0.688H4.56v1.919h3.462V42.123z"/>
		<path class="st2" d="M12.35,42.123h-0.896l-1.04-1.575l-1.007,1.575H8.52l1.471-2.151l-1.399-2.031h0.904l0.967,1.471l0.968-1.471
			h0.863l-1.415,2.031L12.35,42.123z"/>
		<path class="st2" d="M16.502,40.812c-0.024,0.2-0.216,0.792-0.744,1.144c-0.192,0.128-0.464,0.288-1.135,0.288
			c-1.175,0-1.871-0.888-1.871-2.095c0-1.295,0.624-2.327,2.007-2.327c1.208,0,1.799,0.959,1.799,2.439h-3.054
			c0,0.872,0.408,1.375,1.215,1.375c0.664,0,1.056-0.512,1.08-0.824H16.502z M15.83,39.7c-0.04-0.647-0.312-1.247-1.167-1.247
			c-0.648,0-1.16,0.6-1.16,1.247H15.83z"/>
		<path class="st2" d="M20.014,39.349c-0.088-0.56-0.4-0.896-0.992-0.896c-0.871,0-1.151,0.832-1.151,1.575
			c0,0.72,0.176,1.607,1.144,1.607c0.472,0,0.879-0.352,1-0.991h0.68c-0.072,0.664-0.48,1.599-1.703,1.599
			c-1.175,0-1.871-0.888-1.871-2.095c0-1.295,0.624-2.327,2.007-2.327c1.096,0,1.511,0.8,1.567,1.527H20.014z"/>
		<path class="st2" d="M24.126,42.123v-0.607L24.11,41.5c-0.296,0.488-0.656,0.744-1.328,0.744c-0.616,0-1.359-0.296-1.359-1.295
			v-3.006h0.703v2.774c0,0.688,0.352,0.919,0.808,0.919c0.888,0,1.151-0.784,1.151-1.391v-2.303h0.704v4.182H24.126z"/>
		<path class="st2" d="M26.711,38.525v2.719c0,0.328,0.28,0.328,0.424,0.328h0.248v0.552c-0.256,0.024-0.456,0.056-0.527,0.056
			c-0.696,0-0.848-0.392-0.848-0.896v-2.759H25.44v-0.583h0.568v-1.167h0.704v1.167h0.671v0.583H26.711z"/>
		<path class="st2" d="M31.622,40.812c-0.024,0.2-0.216,0.792-0.744,1.144c-0.192,0.128-0.464,0.288-1.135,0.288
			c-1.175,0-1.871-0.888-1.871-2.095c0-1.295,0.624-2.327,2.007-2.327c1.208,0,1.799,0.959,1.799,2.439h-3.054
			c0,0.872,0.408,1.375,1.215,1.375c0.664,0,1.056-0.512,1.08-0.824H31.622z M30.95,39.7c-0.04-0.647-0.312-1.247-1.167-1.247
			c-0.648,0-1.16,0.6-1.16,1.247H30.95z"/>
	</g>
	<g>
		<path class="st2" d="M13.528,69.832h2.327c1.496,0,2.415,1.135,2.415,2.791c0,1.287-0.56,2.95-2.447,2.95h-2.295V69.832z
			 M14.304,74.909h1.503c1.008,0,1.663-0.792,1.663-2.239s-0.664-2.175-1.719-2.175h-1.447V74.909z"/>
		<path class="st2" d="M20.879,71.271c1.335,0,1.943,1.127,1.943,2.207c0,1.079-0.607,2.207-1.943,2.207
			c-1.335,0-1.943-1.127-1.943-2.207C18.936,72.398,19.544,71.271,20.879,71.271z M20.879,75.077c1.008,0,1.215-1.04,1.215-1.599
			s-0.208-1.599-1.215-1.599c-1.007,0-1.215,1.04-1.215,1.599S19.872,75.077,20.879,75.077z"/>
		<path class="st2" d="M27.03,75.572h-0.704v-2.575c0-0.728-0.208-1.095-0.896-1.095c-0.4,0-1.104,0.256-1.104,1.391v2.279h-0.704
			v-4.182h0.664v0.592h0.016c0.152-0.224,0.544-0.712,1.264-0.712c0.647,0,1.463,0.264,1.463,1.455V75.572z"/>
		<path class="st2" d="M31.623,74.261c-0.024,0.2-0.216,0.792-0.744,1.144c-0.192,0.128-0.464,0.288-1.135,0.288
			c-1.175,0-1.871-0.888-1.871-2.095c0-1.295,0.624-2.327,2.007-2.327c1.208,0,1.799,0.959,1.799,2.439h-3.055
			c0,0.872,0.408,1.375,1.215,1.375c0.664,0,1.056-0.512,1.08-0.824H31.623z M30.951,73.149c-0.04-0.647-0.312-1.247-1.167-1.247
			c-0.648,0-1.16,0.6-1.16,1.247H30.951z"/>
	</g>
	<g>
		<path class="st2" d="M14.808,104.13h2.526c1.071,0,1.623,0.664,1.623,1.447c0,0.375-0.136,0.903-0.768,1.199
			c0.376,0.152,1.04,0.416,1.04,1.399c0,0.92-0.68,1.695-1.951,1.695h-2.471V104.13z M15.583,106.561h1.399
			c0.744,0,1.199-0.224,1.199-0.928c0-0.536-0.328-0.839-1.191-0.839h-1.407V106.561z M15.583,109.208h1.655
			c0.808,0,1.215-0.408,1.215-1.047c0-0.808-0.712-0.968-1.343-0.968h-1.527V109.208z"/>
		<path class="st2" d="M22.798,109.871v-0.607l-0.016-0.016c-0.296,0.488-0.656,0.744-1.328,0.744c-0.616,0-1.359-0.296-1.359-1.295
			v-3.006h0.703v2.774c0,0.688,0.352,0.919,0.808,0.919c0.888,0,1.151-0.784,1.151-1.391v-2.303h0.704v4.182H22.798z"/>
		<path class="st2" d="M26.895,106.881c-0.008-0.264-0.104-0.704-0.992-0.704c-0.216,0-0.832,0.072-0.832,0.591
			c0,0.344,0.216,0.424,0.76,0.56l0.704,0.176c0.872,0.216,1.175,0.536,1.175,1.104c0,0.863-0.711,1.383-1.655,1.383
			c-1.655,0-1.775-0.959-1.799-1.463h0.68c0.024,0.328,0.12,0.855,1.111,0.855c0.504,0,0.959-0.2,0.959-0.664
			c0-0.336-0.232-0.448-0.832-0.6l-0.815-0.2c-0.584-0.144-0.968-0.439-0.968-1.015c0-0.919,0.76-1.335,1.583-1.335
			c1.495,0,1.599,1.104,1.599,1.312H26.895z"/>
		<path class="st2" d="M31.134,105.689h0.775c-0.488,1.367-0.967,2.734-1.503,4.102c-0.664,1.695-0.736,1.791-1.639,1.791
			c-0.104,0-0.184-0.032-0.296-0.064v-0.64c0.088,0.032,0.232,0.072,0.424,0.072c0.368,0,0.408-0.104,0.744-0.968l-1.551-4.293h0.8
			l1.111,3.406h0.016L31.134,105.689z"/>
	</g>
	<g>
		<path class="st2" d="M0.43,163.253c0.13,0.026,0.255,0.039,0.375,0.039h0.852v-1.039c0-0.172-0.011-0.346-0.031-0.523
			c0.213,0.037,0.442,0.055,0.688,0.055c-0.062,0.167-0.094,0.357-0.094,0.57v0.938h0.492c0.13,0,0.255-0.013,0.375-0.039
			c-0.021,0.099-0.031,0.193-0.031,0.281c0,0.109,0.01,0.214,0.031,0.312c-0.12-0.021-0.245-0.031-0.375-0.031H2.219v1.398
			c0.307-0.114,0.596-0.237,0.867-0.367c-0.021,0.308-0.031,0.516-0.031,0.625c-0.312,0.104-0.591,0.198-0.836,0.281v2.695
			c0,0.271-0.102,0.448-0.305,0.531c-0.193,0.083-0.479,0.125-0.859,0.125c-0.047-0.261-0.151-0.479-0.312-0.656h0.477
			c0.292,0,0.438-0.107,0.438-0.32v-2.172c-0.521,0.193-0.886,0.357-1.094,0.492c-0.011-0.203-0.076-0.432-0.195-0.688
			c0.448-0.094,0.877-0.208,1.289-0.344v-1.602H0.805c-0.12,0-0.245,0.011-0.375,0.031c0.021-0.099,0.031-0.203,0.031-0.312
			C0.461,163.446,0.45,163.353,0.43,163.253z M3.492,165.222c0.286,0.047,0.567,0.07,0.844,0.07h1.852
			c0.281,0,0.56-0.023,0.836-0.07c-0.037,0.25-0.055,0.503-0.055,0.758v2.273c0,0.276,0.018,0.549,0.055,0.82
			c-0.156-0.021-0.261-0.031-0.312-0.031c-0.052,0-0.167,0.01-0.344,0.031c0.036-0.219,0.055-0.438,0.055-0.656H4.094
			c0.005,0.219,0.023,0.438,0.055,0.656c-0.167-0.021-0.281-0.031-0.344-0.031c-0.052,0-0.156,0.01-0.312,0.031
			c0.047-0.271,0.07-0.544,0.07-0.82v-2.273C3.562,165.725,3.539,165.472,3.492,165.222z M6.875,162.105
			c0.109,0.229,0.255,0.417,0.438,0.562c-0.141,0.016-0.378,0.065-0.711,0.148c-0.802,0.234-1.62,0.445-2.453,0.633v0.625
			c0,0.146,0.062,0.219,0.188,0.219h2.031c0.234,0,0.403-0.049,0.508-0.148c0.099-0.083,0.148-0.307,0.148-0.672
			c0.114,0.151,0.284,0.255,0.508,0.312c-0.058,0.339-0.141,0.576-0.25,0.711c-0.141,0.177-0.404,0.266-0.789,0.266H4.117
			c-0.323,0-0.487-0.114-0.492-0.344v-2.164c0-0.172-0.021-0.346-0.062-0.523c0.219,0.037,0.438,0.055,0.656,0.055
			c-0.047,0.094-0.07,0.201-0.07,0.32v0.938c0.438-0.109,0.864-0.229,1.281-0.359C6.002,162.511,6.484,162.319,6.875,162.105z
			 M4.086,166.566H6.43v-0.805H4.086V166.566z M4.086,167.941H6.43v-0.898H4.086V167.941z"/>
		<path class="st2" d="M11.68,161.699c0.286,0.141,0.591,0.234,0.914,0.281c-0.13,0.089-0.258,0.201-0.383,0.336
			c0.328,0.511,0.747,0.948,1.258,1.312c0.505,0.365,1.242,0.688,2.211,0.969c-0.208,0.198-0.373,0.44-0.492,0.727
			c-0.943-0.432-1.662-0.862-2.156-1.289c-0.464-0.364-0.839-0.82-1.125-1.367c-0.781,0.958-1.802,1.844-3.062,2.656
			c-0.136-0.192-0.344-0.38-0.625-0.562c0.849-0.396,1.565-0.867,2.148-1.414C10.94,162.832,11.377,162.282,11.68,161.699z
			 M9.086,165.535c0.208,0.021,0.417,0.031,0.625,0.031h3.781c0.328,0,0.651-0.01,0.969-0.031c-0.484,0.568-1.195,1.427-2.133,2.578
			c0.417,0.172,0.838,0.346,1.266,0.523c-0.214,0.198-0.362,0.393-0.445,0.586c-1.167-0.646-2.341-1.174-3.523-1.586
			c0.172-0.151,0.315-0.32,0.43-0.508c0.536,0.24,1.094,0.484,1.672,0.734l1.555-1.734h-3.57c-0.208,0-0.417,0.011-0.625,0.031
			c0.021-0.099,0.031-0.203,0.031-0.312C9.117,165.749,9.106,165.644,9.086,165.535z M11.969,163.699
			c0.12,0.354,0.284,0.737,0.492,1.148c-0.203,0.042-0.409,0.117-0.617,0.227c-0.089-0.375-0.248-0.784-0.477-1.227
			C11.581,163.821,11.781,163.772,11.969,163.699z"/>
		<path class="st2" d="M19.625,161.847c0.203,0.058,0.44,0.089,0.711,0.094c-0.058,0.136-0.086,0.312-0.086,0.531v3.75h1.688
			c0.286,0,0.575-0.021,0.867-0.062c-0.021,0.109-0.031,0.214-0.031,0.312c0,0.109,0.01,0.214,0.031,0.312
			c-0.292-0.036-0.581-0.055-0.867-0.055H20.25v1.43h2.406c0.297,0,0.599-0.018,0.906-0.055c-0.021,0.109-0.031,0.224-0.031,0.344
			c0,0.099,0.01,0.203,0.031,0.312c-0.308-0.042-0.609-0.062-0.906-0.062h-5.258c-0.297,0-0.599,0.021-0.906,0.062
			c0.026-0.109,0.039-0.214,0.039-0.312c0-0.12-0.013-0.234-0.039-0.344c0.307,0.037,0.609,0.055,0.906,0.055h2.281v-1.43H18
			c-0.292,0-0.586,0.019-0.883,0.055c0.021-0.099,0.031-0.203,0.031-0.312c0-0.099-0.011-0.203-0.031-0.312
			c0.297,0.042,0.591,0.062,0.883,0.062h1.68v-3.75C19.68,162.264,19.661,162.056,19.625,161.847z M18.086,162.16
			c0.234,0.099,0.463,0.164,0.688,0.195c-0.083,0.109-0.203,0.354-0.359,0.734c-0.052,0.162-0.104,0.31-0.156,0.445
			c0.359,0.354,0.784,0.781,1.273,1.281c-0.156,0.104-0.315,0.24-0.477,0.406c-0.151-0.271-0.477-0.69-0.977-1.258
			c-0.078,0.183-0.162,0.354-0.25,0.516c-0.229,0.422-0.477,0.818-0.742,1.188c-0.146-0.13-0.344-0.234-0.594-0.312
			c0.349-0.38,0.659-0.825,0.93-1.336C17.661,163.571,17.883,162.952,18.086,162.16z M21.805,162.222
			c0.234,0.099,0.463,0.164,0.688,0.195c-0.078,0.104-0.193,0.336-0.344,0.695c-0.068,0.193-0.133,0.373-0.195,0.539
			c0.432,0.323,0.935,0.722,1.508,1.195c-0.162,0.115-0.326,0.263-0.492,0.445c-0.183-0.266-0.581-0.674-1.195-1.227
			c-0.062,0.136-0.125,0.263-0.188,0.383c-0.224,0.401-0.461,0.773-0.711,1.117c-0.151-0.125-0.349-0.229-0.594-0.312
			c0.328-0.354,0.625-0.776,0.891-1.266C21.401,163.561,21.612,162.972,21.805,162.222z"/>
		<path class="st2" d="M24.398,163.597c0.13,0.026,0.255,0.039,0.375,0.039h0.789v-0.969c0-0.317-0.023-0.63-0.07-0.938
			c0.198,0.021,0.44,0.031,0.727,0.031c-0.068,0.146-0.102,0.333-0.102,0.562v1.312h0.688c0.13,0,0.258-0.013,0.383-0.039
			c-0.026,0.099-0.039,0.193-0.039,0.281c0,0.099,0.013,0.193,0.039,0.281c-0.125-0.021-0.253-0.031-0.383-0.031h-0.688v1.383
			c0.167-0.042,0.325-0.104,0.477-0.188c0.208,0.412,0.477,0.776,0.805,1.094c-0.193,0.021-0.401,0.094-0.625,0.219
			c-0.203-0.411-0.422-0.742-0.656-0.992v2.43c0,0.364,0.023,0.727,0.07,1.086c-0.12-0.021-0.234-0.031-0.344-0.031
			c-0.12,0-0.237,0.01-0.352,0.031c0.047-0.359,0.07-0.722,0.07-1.086v-2.68c-0.281,0.755-0.604,1.458-0.969,2.109
			c-0.109-0.281-0.258-0.51-0.445-0.688c0.333-0.396,0.609-0.856,0.828-1.383c0.177-0.391,0.336-0.825,0.477-1.305h-0.68
			c-0.12,0-0.245,0.011-0.375,0.031c0.021-0.088,0.031-0.182,0.031-0.281C24.43,163.79,24.419,163.696,24.398,163.597z
			 M27.773,165.761c0.13,0.052,0.359,0.112,0.688,0.18c-0.104,0.12-0.201,0.271-0.289,0.453c-0.255,0.604-0.448,1.023-0.578,1.258
			c-0.099,0.172-0.185,0.352-0.258,0.539c-0.177-0.114-0.396-0.198-0.656-0.25c0.25-0.213,0.502-0.604,0.758-1.172
			C27.614,166.368,27.727,166.032,27.773,165.761z M27.117,164.253c0.297,0.047,0.591,0.07,0.883,0.07h2.461
			c0.297,0,0.588-0.023,0.875-0.07c-0.016,0.109-0.023,0.214-0.023,0.312c0,0.109,0.008,0.214,0.023,0.312
			c-0.287-0.042-0.578-0.062-0.875-0.062h-1v3.75c0,0.177-0.089,0.302-0.266,0.375c-0.167,0.088-0.503,0.133-1.008,0.133
			c-0.011-0.261-0.083-0.49-0.219-0.688c0.276,0.042,0.495,0.062,0.656,0.062c0.156,0,0.239-0.065,0.25-0.195v-3.438H28
			c-0.292,0-0.586,0.021-0.883,0.062c0.021-0.099,0.031-0.203,0.031-0.312C27.148,164.467,27.138,164.363,27.117,164.253z
			 M27.461,162.324c0.297,0.042,0.588,0.062,0.875,0.062h1.633c0.286,0,0.578-0.021,0.875-0.062
			c-0.026,0.099-0.039,0.203-0.039,0.312c0,0.099,0.013,0.201,0.039,0.305c-0.297-0.042-0.589-0.062-0.875-0.062h-1.633
			c-0.287,0-0.578,0.021-0.875,0.062c0.021-0.104,0.031-0.206,0.031-0.305C27.492,162.527,27.481,162.423,27.461,162.324z
			 M30.367,165.667c0.052,0.12,0.148,0.292,0.289,0.516c0.229,0.391,0.419,0.74,0.57,1.047c0.104,0.203,0.206,0.398,0.305,0.586
			c-0.146,0.047-0.344,0.151-0.594,0.312c-0.073-0.26-0.208-0.596-0.406-1.008c-0.224-0.453-0.453-0.833-0.688-1.141
			C30.052,165.892,30.227,165.788,30.367,165.667z"/>
	</g>
	<g>
		<path class="st2" d="M0.43,256.024c0.13,0.026,0.255,0.039,0.375,0.039h0.852v-1.039c0-0.172-0.011-0.346-0.031-0.523
			c0.213,0.037,0.442,0.055,0.688,0.055c-0.062,0.167-0.094,0.357-0.094,0.57v0.938h0.492c0.13,0,0.255-0.013,0.375-0.039
			c-0.021,0.099-0.031,0.193-0.031,0.281c0,0.109,0.01,0.214,0.031,0.312c-0.12-0.021-0.245-0.031-0.375-0.031H2.219v1.398
			c0.307-0.114,0.596-0.237,0.867-0.367c-0.021,0.308-0.031,0.516-0.031,0.625c-0.312,0.104-0.591,0.198-0.836,0.281v2.695
			c0,0.271-0.102,0.448-0.305,0.531c-0.193,0.083-0.479,0.125-0.859,0.125c-0.047-0.261-0.151-0.479-0.312-0.656h0.477
			c0.292,0,0.438-0.107,0.438-0.32v-2.172c-0.521,0.193-0.886,0.357-1.094,0.492c-0.011-0.203-0.076-0.432-0.195-0.688
			c0.448-0.094,0.877-0.208,1.289-0.344v-1.602H0.805c-0.12,0-0.245,0.011-0.375,0.031c0.021-0.099,0.031-0.203,0.031-0.312
			C0.461,256.217,0.45,256.124,0.43,256.024z M3.492,257.993c0.286,0.047,0.567,0.07,0.844,0.07h1.852
			c0.281,0,0.56-0.023,0.836-0.07c-0.037,0.25-0.055,0.503-0.055,0.758v2.273c0,0.276,0.018,0.549,0.055,0.82
			c-0.156-0.021-0.261-0.031-0.312-0.031c-0.052,0-0.167,0.01-0.344,0.031c0.036-0.219,0.055-0.438,0.055-0.656H4.094
			c0.005,0.219,0.023,0.438,0.055,0.656c-0.167-0.021-0.281-0.031-0.344-0.031c-0.052,0-0.156,0.01-0.312,0.031
			c0.047-0.271,0.07-0.544,0.07-0.82v-2.273C3.562,258.496,3.539,258.243,3.492,257.993z M6.875,254.876
			c0.109,0.229,0.255,0.417,0.438,0.562c-0.141,0.016-0.378,0.065-0.711,0.148c-0.802,0.234-1.62,0.445-2.453,0.633v0.625
			c0,0.146,0.062,0.219,0.188,0.219h2.031c0.234,0,0.403-0.049,0.508-0.148c0.099-0.083,0.148-0.307,0.148-0.672
			c0.114,0.151,0.284,0.255,0.508,0.312c-0.058,0.339-0.141,0.576-0.25,0.711c-0.141,0.177-0.404,0.266-0.789,0.266H4.117
			c-0.323,0-0.487-0.114-0.492-0.344v-2.164c0-0.172-0.021-0.346-0.062-0.523c0.219,0.037,0.438,0.055,0.656,0.055
			c-0.047,0.094-0.07,0.201-0.07,0.32v0.938c0.438-0.109,0.864-0.229,1.281-0.359C6.002,255.282,6.484,255.09,6.875,254.876z
			 M4.086,259.337H6.43v-0.805H4.086V259.337z M4.086,260.712H6.43v-0.898H4.086V260.712z"/>
		<path class="st2" d="M11.68,254.47c0.286,0.141,0.591,0.234,0.914,0.281c-0.13,0.089-0.258,0.201-0.383,0.336
			c0.328,0.511,0.747,0.948,1.258,1.312c0.505,0.365,1.242,0.688,2.211,0.969c-0.208,0.198-0.373,0.44-0.492,0.727
			c-0.943-0.432-1.662-0.862-2.156-1.289c-0.464-0.364-0.839-0.82-1.125-1.367c-0.781,0.958-1.802,1.844-3.062,2.656
			c-0.136-0.192-0.344-0.38-0.625-0.562c0.849-0.396,1.565-0.867,2.148-1.414C10.94,255.603,11.377,255.053,11.68,254.47z
			 M9.086,258.306c0.208,0.021,0.417,0.031,0.625,0.031h3.781c0.328,0,0.651-0.01,0.969-0.031c-0.484,0.568-1.195,1.427-2.133,2.578
			c0.417,0.172,0.838,0.346,1.266,0.523c-0.214,0.198-0.362,0.393-0.445,0.586c-1.167-0.646-2.341-1.174-3.523-1.586
			c0.172-0.151,0.315-0.32,0.43-0.508c0.536,0.24,1.094,0.484,1.672,0.734l1.555-1.734h-3.57c-0.208,0-0.417,0.011-0.625,0.031
			c0.021-0.099,0.031-0.203,0.031-0.312C9.117,258.52,9.106,258.415,9.086,258.306z M11.969,256.47
			c0.12,0.354,0.284,0.737,0.492,1.148c-0.203,0.042-0.409,0.117-0.617,0.227c-0.089-0.375-0.248-0.784-0.477-1.227
			C11.581,256.592,11.781,256.543,11.969,256.47z"/>
		<path class="st2" d="M16.531,257.47c0.338,0.021,0.682,0.031,1.031,0.031c0.161,0,0.325-0.01,0.492-0.031
			c-0.021,0.219-0.031,0.438-0.031,0.656v2.383c0.036,0.016,0.07,0.031,0.102,0.047c0.766,0.401,1.763,0.602,2.992,0.602
			c0.5,0,1.336-0.044,2.508-0.133c-0.109,0.167-0.185,0.385-0.227,0.656h-2.062c-1.365,0-2.435-0.211-3.211-0.633
			c-0.177-0.099-0.305-0.148-0.383-0.148c-0.193,0-0.505,0.26-0.938,0.781c-0.13-0.172-0.294-0.308-0.492-0.406l0.812-0.625
			c0.12-0.083,0.231-0.146,0.336-0.188v-2.438c-0.308,0-0.617,0.013-0.93,0.039c0.021-0.109,0.031-0.213,0.031-0.312
			C16.562,257.652,16.552,257.559,16.531,257.47z M17.461,254.931c0.177,0.583,0.406,1.097,0.688,1.539
			c-0.188,0.021-0.394,0.091-0.617,0.211c-0.193-0.635-0.401-1.143-0.625-1.523C17.094,255.121,17.278,255.045,17.461,254.931z
			 M18.492,255.368c0.297,0.047,0.588,0.07,0.875,0.07h1.289c0-0.312-0.021-0.614-0.062-0.906c0.198,0.016,0.438,0.023,0.719,0.023
			c-0.062,0.151-0.094,0.341-0.094,0.57v0.312h1.375c0.286,0,0.575-0.023,0.867-0.07c-0.021,0.109-0.031,0.214-0.031,0.312
			c0,0.109,0.01,0.214,0.031,0.312c-0.292-0.042-0.581-0.062-0.867-0.062h-1.375v0.656h0.898c0.328,0,0.651-0.01,0.969-0.031
			c-0.021,0.172-0.031,0.341-0.031,0.508v0.898c0,0.198,0.01,0.396,0.031,0.594c-0.318-0.016-0.641-0.023-0.969-0.023h-0.898v1.25
			c0,0.359,0.021,0.724,0.062,1.094c-0.12-0.021-0.234-0.031-0.344-0.031c-0.12,0-0.234,0.011-0.344,0.031
			c0.042-0.37,0.062-0.734,0.062-1.094v-1.219c-0.484,0.797-1.112,1.472-1.883,2.023c-0.109-0.146-0.255-0.289-0.438-0.43
			c0.692-0.344,1.289-0.885,1.789-1.625h-0.383c-0.318,0-0.641,0.008-0.969,0.023c0.021-0.198,0.031-0.396,0.031-0.594v-0.898
			c-0.021-0.167-0.031-0.336-0.031-0.508c0.328,0.021,0.651,0.031,0.969,0.031h0.914v-0.656h-1.289
			c-0.287,0-0.578,0.021-0.875,0.062c0.026-0.099,0.039-0.203,0.039-0.312C18.531,255.582,18.518,255.478,18.492,255.368z
			 M20.656,258.063v-1h-1.289v1H20.656z M22.492,258.063v-1h-1.273v1H22.492z M21.742,258.845c0.469,0.354,0.992,0.727,1.57,1.117
			c-0.172,0.167-0.287,0.326-0.344,0.477c-0.531-0.489-1.065-0.888-1.602-1.195C21.518,259.129,21.643,258.996,21.742,258.845z"/>
		<path class="st2" d="M28.562,254.532c0.114,0.271,0.239,0.562,0.375,0.875h1.773c0.219,0,0.438-0.013,0.656-0.039
			c-0.021,0.099-0.031,0.193-0.031,0.281c0,0.109,0.01,0.214,0.031,0.312c-0.219-0.021-0.438-0.031-0.656-0.031h-4.688v0.945h1.312
			v-0.406c0-0.141-0.019-0.276-0.055-0.406c0.208,0.047,0.438,0.078,0.688,0.094c-0.062,0.125-0.094,0.25-0.094,0.375v0.344h1.617
			v-0.32c0-0.135-0.021-0.268-0.062-0.398c0.188,0.031,0.417,0.052,0.688,0.062c-0.062,0.136-0.094,0.289-0.094,0.461v0.195h0.688
			c0.245,0,0.505-0.01,0.781-0.031c-0.021,0.099-0.031,0.193-0.031,0.281c0,0.104,0.01,0.198,0.031,0.281
			c-0.183-0.026-0.443-0.039-0.781-0.039h-0.688v0.758c0,0.162,0.01,0.326,0.031,0.492c-0.156-0.021-0.31-0.031-0.461-0.031h-1.75
			c-0.188,0-0.375,0.011-0.562,0.031c0.036-0.151,0.055-0.305,0.055-0.461v-0.789h-1.312v1.07c-0.016,0.62-0.107,1.203-0.273,1.75
			c-0.115,0.438-0.375,0.979-0.781,1.625c-0.172-0.183-0.383-0.287-0.633-0.312c0.37-0.448,0.638-0.909,0.805-1.383
			c0.192-0.573,0.289-1.133,0.289-1.68v-2.312c0-0.25-0.021-0.502-0.062-0.758c0.229,0.026,0.458,0.039,0.688,0.039h2.25
			c-0.141-0.307-0.284-0.57-0.43-0.789C28.094,254.598,28.323,254.569,28.562,254.532z M26.531,259.095
			c0.182,0.021,0.367,0.031,0.555,0.031h2.758c0.26,0,0.521-0.01,0.781-0.031c-0.391,0.594-0.779,1.065-1.164,1.414
			c-0.109,0.094-0.229,0.188-0.359,0.281c0.031,0.011,0.06,0.021,0.086,0.031c0.594,0.234,1.362,0.396,2.305,0.484
			c-0.188,0.234-0.323,0.442-0.406,0.625c-0.958-0.183-1.732-0.422-2.32-0.719c-0.068-0.037-0.13-0.07-0.188-0.102
			c-0.25,0.13-0.519,0.247-0.805,0.352c-0.62,0.208-1.172,0.354-1.656,0.438c-0.094-0.224-0.248-0.422-0.461-0.594
			c0.708-0.062,1.305-0.167,1.789-0.312c0.208-0.062,0.403-0.135,0.586-0.219c-0.349-0.245-0.685-0.536-1.008-0.875
			c0.203-0.083,0.372-0.188,0.508-0.312c0.286,0.365,0.63,0.667,1.031,0.906c0.057-0.031,0.109-0.062,0.156-0.094
			c0.281-0.203,0.562-0.474,0.844-0.812h-2.477c-0.188,0-0.373,0.011-0.555,0.031c0.021-0.088,0.031-0.182,0.031-0.281
			C26.562,259.259,26.552,259.178,26.531,259.095z M27.875,257.368v0.758h1.617v-0.758H27.875z"/>
	</g>
	<g>
	</g>
	<g>
	</g>
	<g>
	</g>
	<g>
	</g>
	<g>
	</g>
	<g>
	</g>
</g>
</svg>
