<?xml version="1.0" encoding="utf-8"?>
<!-- Generator: Adobe Illustrator 28.2.0, SVG Export Plug-In . SVG Version: 6.00 Build 0)  -->
<svg version="1.1" xmlns="http://www.w3.org/2000/svg" xmlns:xlink="http://www.w3.org/1999/xlink" x="0px" y="0px"
	 width="636.56px" height="428.197px" viewBox="0 0 636.56 428.197" style="enable-background:new 0 0 636.56 428.197;"
	 xml:space="preserve">
<style type="text/css">
	.st0{fill:none;stroke:#666666;stroke-width:0.5;stroke-miterlimit:10;stroke-dasharray:1;}
	.st1{fill:none;stroke:#000000;stroke-miterlimit:10;}
	.st2{display:none;}
	.st3{display:inline;}
	.st4{display:inline;fill:#3574F2;}
</style>
<g id="レイヤー_1">
	<line class="st0" x1="121.413" y1="15.058" x2="121.413" y2="428.197"/>
	<line class="st0" x1="157.113" y1="15.058" x2="157.113" y2="428.197"/>
	<line class="st0" x1="495.796" y1="15.058" x2="495.796" y2="384.13"/>
	<line class="st0" x1="427.032" y1="15.058" x2="427.032" y2="384.13"/>
	<line class="st0" x1="343.706" y1="15.058" x2="343.706" y2="428.197"/>
	<line class="st0" x1="577.909" y1="15.058" x2="577.909" y2="376.348"/>
	<polyline class="st1" points="636.56,65.321 427.032,65.321 427.032,31.305 121.413,31.305 121.413,65.321 92.393,65.321 	"/>
	<polyline class="st1" points="636.56,115.584 343.706,115.584 343.706,81.568 157.113,81.568 157.113,115.584 92.393,115.584 	"/>
	<polyline class="st1" points="636.56,167.037 343.706,167.037 343.706,133.021 121.413,133.021 121.413,167.037 92.393,167.037 	
		"/>
	<polyline class="st1" points="636.56,217.044 427.032,217.044 427.032,183.029 343.706,183.029 343.706,217.044 92.393,217.044 	
		"/>
	<polyline class="st1" points="636.56,317.595 577.909,317.595 577.909,283.579 343.706,283.579 343.706,317.595 92.393,317.595 	
		"/>
	<polyline class="st1" points="636.56,418.146 495.796,418.146 495.796,384.13 343.706,384.13 343.706,418.146 92.393,418.146 	"/>
	<polyline class="st1" points="636.56,368.484 577.909,368.484 577.909,334.468 495.796,334.468 495.796,368.484 92.393,368.484 	
		"/>
</g>
<g id="レイヤー_2">
	<g class="st2">
		<path class="st3" d="M179.834,279.598h-4.238v-5.74h4.182v0.688h-3.406v1.759h3.142v0.688h-3.142v1.919h3.462V279.598z"/>
		<path class="st3" d="M184.163,279.598h-0.896l-1.04-1.575l-1.007,1.575h-0.888l1.471-2.15l-1.399-2.031h0.903l0.967,1.472
			l0.968-1.472h0.863l-1.415,2.031L184.163,279.598z"/>
		<path class="st3" d="M188.314,278.287c-0.024,0.2-0.216,0.792-0.744,1.144c-0.192,0.128-0.464,0.288-1.135,0.288
			c-1.175,0-1.871-0.888-1.871-2.095c0-1.295,0.624-2.327,2.007-2.327c1.208,0,1.799,0.96,1.799,2.439h-3.055
			c0,0.871,0.408,1.375,1.215,1.375c0.664,0,1.056-0.512,1.08-0.824H188.314z M187.643,277.175c-0.04-0.647-0.312-1.247-1.167-1.247
			c-0.648,0-1.16,0.6-1.16,1.247H187.643z"/>
		<path class="st3" d="M191.827,276.824c-0.088-0.56-0.4-0.896-0.992-0.896c-0.871,0-1.151,0.832-1.151,1.575
			c0,0.72,0.176,1.607,1.144,1.607c0.472,0,0.879-0.352,1-0.991h0.68c-0.072,0.663-0.48,1.599-1.703,1.599
			c-1.175,0-1.871-0.888-1.871-2.095c0-1.295,0.624-2.327,2.007-2.327c1.096,0,1.511,0.8,1.567,1.527H191.827z"/>
		<path class="st3" d="M195.939,279.598v-0.607l-0.016-0.016c-0.296,0.487-0.655,0.743-1.327,0.743
			c-0.616,0-1.359-0.296-1.359-1.295v-3.007h0.703v2.774c0,0.688,0.353,0.92,0.808,0.92c0.888,0,1.151-0.784,1.151-1.392v-2.303
			h0.704v4.182H195.939z"/>
		<path class="st3" d="M198.525,276v2.719c0,0.327,0.279,0.327,0.424,0.327h0.247v0.552c-0.256,0.024-0.455,0.057-0.527,0.057
			c-0.695,0-0.848-0.393-0.848-0.896V276h-0.567v-0.584h0.567v-1.167h0.704v1.167h0.671V276H198.525z"/>
		<path class="st3" d="M203.435,278.287c-0.023,0.2-0.216,0.792-0.743,1.144c-0.192,0.128-0.464,0.288-1.136,0.288
			c-1.175,0-1.871-0.888-1.871-2.095c0-1.295,0.624-2.327,2.007-2.327c1.208,0,1.799,0.96,1.799,2.439h-3.054
			c0,0.871,0.407,1.375,1.215,1.375c0.664,0,1.056-0.512,1.08-0.824H203.435z M202.763,277.175c-0.04-0.647-0.312-1.247-1.167-1.247
			c-0.647,0-1.159,0.6-1.159,1.247H202.763z"/>
	</g>
	<g class="st2">
		<path class="st3" d="M175.5,302.204h2.526c1.071,0,1.623,0.664,1.623,1.447c0,0.376-0.136,0.903-0.768,1.199
			c0.376,0.152,1.04,0.416,1.04,1.399c0,0.92-0.68,1.695-1.951,1.695H175.5V302.204z M176.276,304.634h1.399
			c0.744,0,1.199-0.224,1.199-0.928c0-0.535-0.328-0.839-1.191-0.839h-1.407V304.634z M176.276,307.281h1.655
			c0.808,0,1.215-0.407,1.215-1.047c0-0.808-0.712-0.968-1.343-0.968h-1.527V307.281z"/>
		<path class="st3" d="M183.491,307.945v-0.607l-0.016-0.017c-0.296,0.488-0.656,0.744-1.328,0.744
			c-0.616,0-1.359-0.296-1.359-1.296v-3.006h0.703v2.774c0,0.688,0.352,0.919,0.808,0.919c0.888,0,1.151-0.783,1.151-1.391v-2.303
			h0.704v4.182H183.491z"/>
		<path class="st3" d="M187.587,304.955c-0.008-0.265-0.104-0.704-0.992-0.704c-0.216,0-0.832,0.072-0.832,0.592
			c0,0.344,0.216,0.424,0.76,0.56l0.704,0.176c0.872,0.216,1.175,0.536,1.175,1.104c0,0.863-0.711,1.384-1.655,1.384
			c-1.655,0-1.775-0.96-1.799-1.464h0.68c0.024,0.328,0.12,0.855,1.111,0.855c0.504,0,0.959-0.199,0.959-0.663
			c0-0.336-0.232-0.448-0.832-0.6l-0.815-0.2c-0.584-0.144-0.968-0.439-0.968-1.016c0-0.919,0.76-1.335,1.583-1.335
			c1.495,0,1.599,1.104,1.599,1.312H187.587z"/>
		<path class="st3" d="M191.827,303.763h0.775c-0.488,1.367-0.967,2.734-1.503,4.102c-0.664,1.695-0.736,1.791-1.639,1.791
			c-0.104,0-0.184-0.032-0.296-0.064v-0.64c0.088,0.032,0.232,0.072,0.424,0.072c0.368,0,0.408-0.104,0.744-0.968l-1.551-4.293h0.8
			l1.111,3.406h0.016L191.827,303.763z"/>
	</g>
	<g class="st2">
		<path class="st3" d="M175.556,330.551h2.327c1.495,0,2.415,1.135,2.415,2.79c0,1.287-0.56,2.95-2.447,2.95h-2.295V330.551z
			 M176.332,335.628h1.503c1.007,0,1.663-0.792,1.663-2.239s-0.664-2.175-1.719-2.175h-1.447V335.628z"/>
		<path class="st3" d="M182.907,331.99c1.335,0,1.943,1.128,1.943,2.207s-0.607,2.207-1.943,2.207c-1.335,0-1.943-1.128-1.943-2.207
			S181.572,331.99,182.907,331.99z M182.907,335.796c1.007,0,1.215-1.04,1.215-1.6s-0.208-1.599-1.215-1.599
			s-1.215,1.039-1.215,1.599S181.9,335.796,182.907,335.796z"/>
		<path class="st3" d="M189.058,336.292h-0.704v-2.574c0-0.728-0.208-1.096-0.896-1.096c-0.4,0-1.104,0.256-1.104,1.392v2.278
			h-0.704v-4.182h0.664v0.592h0.016c0.152-0.224,0.544-0.712,1.264-0.712c0.647,0,1.463,0.265,1.463,1.455V336.292z"/>
		<path class="st3" d="M193.65,334.98c-0.024,0.2-0.216,0.792-0.744,1.144c-0.192,0.128-0.464,0.288-1.135,0.288
			c-1.175,0-1.871-0.888-1.871-2.095c0-1.295,0.624-2.327,2.007-2.327c1.208,0,1.799,0.96,1.799,2.439h-3.055
			c0,0.871,0.408,1.375,1.215,1.375c0.664,0,1.056-0.512,1.08-0.824H193.65z M192.979,333.869c-0.04-0.647-0.312-1.247-1.167-1.247
			c-0.648,0-1.16,0.6-1.16,1.247H192.979z"/>
	</g>
	<g class="st2">
		<path class="st3" d="M179.834,364.637h-4.238v-5.74h4.182v0.688h-3.406v1.759h3.142v0.688h-3.142v1.919h3.462V364.637z"/>
		<path class="st3" d="M181.564,364.637h-0.704v-4.182h0.664v0.695h0.016c0.28-0.487,0.647-0.815,1.175-0.815
			c0.088,0,0.128,0.009,0.184,0.024v0.728h-0.264c-0.656,0-1.071,0.512-1.071,1.119V364.637z"/>
		<path class="st3" d="M184.229,364.637h-0.704v-4.182h0.664v0.695h0.016c0.28-0.487,0.647-0.815,1.175-0.815
			c0.088,0,0.128,0.009,0.184,0.024v0.728H185.3c-0.656,0-1.071,0.512-1.071,1.119V364.637z"/>
		<path class="st3" d="M187.796,360.335c1.335,0,1.943,1.128,1.943,2.207s-0.607,2.207-1.943,2.207
			c-1.335,0-1.943-1.128-1.943-2.207S186.461,360.335,187.796,360.335z M187.796,364.142c1.008,0,1.215-1.04,1.215-1.6
			s-0.208-1.599-1.215-1.599c-1.007,0-1.215,1.039-1.215,1.599S186.789,364.142,187.796,364.142z"/>
		<path class="st3" d="M191.341,364.637h-0.704v-4.182h0.664v0.695h0.016c0.28-0.487,0.647-0.815,1.175-0.815
			c0.088,0,0.128,0.009,0.184,0.024v0.728h-0.264c-0.656,0-1.071,0.512-1.071,1.119V364.637z"/>
	</g>
	<g class="st2">
		<path class="st3" d="M179.834,392.985h-4.238v-5.741h4.182v0.688h-3.406v1.76h3.142v0.688h-3.142v1.919h3.462V392.985z"/>
		<path class="st3" d="M181.564,392.985h-0.704v-4.182h0.664v0.695h0.016c0.28-0.487,0.647-0.815,1.175-0.815
			c0.088,0,0.128,0.008,0.184,0.023v0.729h-0.264c-0.656,0-1.071,0.512-1.071,1.119V392.985z"/>
		<path class="st3" d="M184.229,392.985h-0.704v-4.182h0.664v0.695h0.016c0.28-0.487,0.647-0.815,1.175-0.815
			c0.088,0,0.128,0.008,0.184,0.023v0.729H185.3c-0.656,0-1.071,0.512-1.071,1.119V392.985z"/>
		<path class="st3" d="M187.796,388.683c1.335,0,1.943,1.127,1.943,2.207c0,1.079-0.607,2.206-1.943,2.206
			c-1.335,0-1.943-1.127-1.943-2.206C185.853,389.81,186.461,388.683,187.796,388.683z M187.796,392.489
			c1.008,0,1.215-1.039,1.215-1.599s-0.208-1.6-1.215-1.6c-1.007,0-1.215,1.04-1.215,1.6S186.789,392.489,187.796,392.489z"/>
		<path class="st3" d="M191.341,392.985h-0.704v-4.182h0.664v0.695h0.016c0.28-0.487,0.647-0.815,1.175-0.815
			c0.088,0,0.128,0.008,0.184,0.023v0.729h-0.264c-0.656,0-1.071,0.512-1.071,1.119V392.985z"/>
		<path class="st3" d="M194.188,392.985h-0.775v-5.741h0.775V392.985z"/>
		<path class="st3" d="M195.557,387.244h2.326c1.496,0,2.415,1.136,2.415,2.791c0,1.287-0.56,2.95-2.446,2.95h-2.295V387.244z
			 M196.333,392.321h1.503c1.008,0,1.663-0.791,1.663-2.238s-0.663-2.175-1.719-2.175h-1.447V392.321z"/>
	</g>
	<g class="st2">
		<path class="st3" d="M244.06,393.136c-1.614,0-1.927-1.72-1.927-2.887s0.312-2.887,1.927-2.887c1.615,0,1.928,1.72,1.928,2.887
			S245.675,393.136,244.06,393.136z M244.06,387.995c-0.808,0-1.175,0.848-1.175,2.255s0.367,2.255,1.175,2.255
			s1.176-0.848,1.176-2.255S244.868,387.995,244.06,387.995z"/>
	</g>
	<g class="st2">
		<path class="st4" d="M226.734,245.391c-0.68,1.279-1.088,2.047-1.088,3.966c0,1.319,0.456,2.295,1.096,3.551h-0.472
			c-0.832-1.248-1.375-2.247-1.375-3.742c0-1.407,0.487-2.543,1.351-3.774H226.734z"/>
		<path class="st4" d="M229.885,251.252h-0.752v-3.99h-1.311v-0.56c0.911-0.063,1.287-0.152,1.511-1.071h0.552V251.252z"/>
		<path class="st4" d="M231.743,252.908c0.68-1.279,1.088-2.047,1.088-3.966c0-1.319-0.456-2.295-1.096-3.551h0.472
			c0.832,1.248,1.375,2.247,1.375,3.742c0,1.407-0.487,2.543-1.351,3.774H231.743z"/>
	</g>
	<g class="st2">
		<path class="st4" d="M289.726,245.391c-0.68,1.279-1.088,2.047-1.088,3.966c0,1.319,0.456,2.295,1.096,3.551h-0.472
			c-0.832-1.248-1.375-2.247-1.375-3.742c0-1.407,0.487-2.543,1.351-3.774H289.726z"/>
		<path class="st4" d="M290.359,247.646c0-1.831,1.335-2.015,1.943-2.015c0.975,0,1.759,0.632,1.759,1.679
			c0,1.008-0.664,1.432-1.503,1.879l-0.584,0.32c-0.768,0.424-0.936,0.863-0.968,1.079h3.055v0.664h-3.846
			c0.04-1.168,0.567-1.791,1.319-2.231l0.743-0.432c0.6-0.344,1.031-0.575,1.031-1.311c0-0.448-0.288-1.016-1.111-1.016
			c-1.063,0-1.111,0.991-1.135,1.383H290.359z"/>
		<path class="st4" d="M294.735,252.908c0.68-1.279,1.088-2.047,1.088-3.966c0-1.319-0.456-2.295-1.096-3.551h0.472
			c0.832,1.248,1.375,2.247,1.375,3.742c0,1.407-0.487,2.543-1.351,3.774H294.735z"/>
	</g>
	<g class="st2">
		<path class="st4" d="M321.222,245.391c-0.68,1.279-1.088,2.047-1.088,3.966c0,1.319,0.456,2.295,1.096,3.551h-0.472
			c-0.832-1.248-1.375-2.247-1.375-3.742c0-1.407,0.487-2.543,1.351-3.774H321.222z"/>
		<path class="st4" d="M323.294,248.054c0.12,0.008,0.248,0.016,0.367,0.016c0.544,0,1.072-0.216,1.072-0.919
			c0-0.336-0.2-0.888-1.04-0.888c-0.999,0-1.063,0.815-1.096,1.207h-0.688c0-0.823,0.336-1.839,1.815-1.839
			c1.087,0,1.735,0.624,1.735,1.479c0,0.719-0.416,1.063-0.72,1.159v0.016c0.543,0.176,0.936,0.56,0.936,1.312
			c0,0.919-0.592,1.807-2.023,1.807c-0.416,0-0.768-0.104-1.039-0.248c-0.624-0.327-0.792-0.975-0.84-1.623h0.728
			c0.024,0.528,0.152,1.239,1.199,1.239c0.72,0,1.224-0.439,1.224-1.087c0-0.943-0.831-1.031-1.312-1.031
			c-0.104,0-0.216,0.008-0.319,0.008V248.054z"/>
		<path class="st4" d="M326.231,252.908c0.68-1.279,1.088-2.047,1.088-3.966c0-1.319-0.456-2.295-1.096-3.551h0.472
			c0.832,1.248,1.375,2.247,1.375,3.742c0,1.407-0.487,2.543-1.351,3.774H326.231z"/>
	</g>
	<g class="st2">
		<path class="st4" d="M428.311,245.391c-0.68,1.279-1.088,2.047-1.088,3.966c0,1.319,0.456,2.295,1.096,3.551h-0.472
			c-0.832-1.248-1.375-2.247-1.375-3.742c0-1.407,0.487-2.543,1.351-3.774H428.311z"/>
		<path class="st4" d="M431.951,249.885v1.367h-0.704v-1.367h-2.454v-0.688l2.574-3.566h0.584v3.646h0.823v0.608H431.951z
			 M429.44,249.277h1.807v-2.55h-0.016L429.44,249.277z"/>
		<path class="st4" d="M433.321,252.908c0.679-1.279,1.087-2.047,1.087-3.966c0-1.319-0.456-2.295-1.096-3.551h0.472
			c0.832,1.248,1.376,2.247,1.376,3.742c0,1.407-0.488,2.543-1.352,3.774H433.321z"/>
	</g>
	<g class="st2">
		<path class="st4" d="M478.706,245.391c-0.68,1.279-1.088,2.047-1.088,3.966c0,1.319,0.456,2.295,1.096,3.551h-0.472
			c-0.832-1.248-1.375-2.247-1.375-3.742c0-1.407,0.487-2.543,1.351-3.774H478.706z"/>
		<path class="st4" d="M480.163,247.982c0.239-0.184,0.583-0.352,1.087-0.352c0.911,0,1.847,0.64,1.847,1.799
			c0,0.624-0.279,1.975-2.038,1.975c-0.736,0-1.68-0.296-1.815-1.551h0.728c0.072,0.655,0.56,0.943,1.191,0.943
			c0.728,0,1.184-0.584,1.184-1.287c0-0.808-0.552-1.247-1.248-1.247c-0.407,0-0.775,0.191-1.039,0.535l-0.607-0.032l0.424-3.014
			h2.91v0.688h-2.383L480.163,247.982z"/>
		<path class="st4" d="M483.715,252.908c0.679-1.279,1.087-2.047,1.087-3.966c0-1.319-0.456-2.295-1.096-3.551h0.472
			c0.832,1.248,1.376,2.247,1.376,3.742c0,1.407-0.488,2.543-1.352,3.774H483.715z"/>
	</g>
	<g class="st2">
		<path class="st4" d="M491.302,245.391c-0.68,1.279-1.088,2.047-1.088,3.966c0,1.319,0.456,2.295,1.096,3.551h-0.472
			c-0.831-1.248-1.375-2.247-1.375-3.742c0-1.407,0.487-2.543,1.351-3.774H491.302z"/>
		<path class="st4" d="M494.917,247.126c-0.088-0.496-0.359-0.863-0.967-0.863c-1.104,0-1.336,1.487-1.336,2.078l0.017,0.017
			c0.176-0.304,0.567-0.688,1.335-0.688c0.688,0,1.759,0.439,1.759,1.783c0,0.575-0.151,0.991-0.535,1.407
			c-0.296,0.327-0.632,0.543-1.424,0.543c-0.432,0-1.047-0.191-1.447-0.815c-0.336-0.527-0.432-1.215-0.432-1.951
			c0-1.23,0.399-3.006,2.079-3.006c0.647,0,1.567,0.352,1.639,1.495H494.917z M493.894,250.772c0.672,0,1.104-0.527,1.104-1.287
			c0-0.495-0.264-1.183-1.136-1.183c-0.775,0-1.151,0.56-1.151,1.223C492.71,250.125,493.071,250.772,493.894,250.772z"/>
		<path class="st4" d="M496.312,252.908c0.68-1.279,1.087-2.047,1.087-3.966c0-1.319-0.456-2.295-1.096-3.551h0.472
			c0.832,1.248,1.376,2.247,1.376,3.742c0,1.407-0.488,2.543-1.352,3.774H496.312z"/>
	</g>
	<g>
		<path d="M57.312,51.38h-4.238V45.64h4.182v0.688H53.85v1.759h3.142v0.688H53.85v1.919h3.462V51.38z"/>
		<path d="M61.641,51.38h-0.896l-1.04-1.575l-1.007,1.575h-0.888l1.471-2.151l-1.399-2.031h0.904l0.967,1.471l0.968-1.471h0.863
			l-1.415,2.031L61.641,51.38z"/>
		<path d="M65.792,50.069c-0.024,0.2-0.216,0.792-0.744,1.144c-0.192,0.128-0.464,0.288-1.135,0.288
			c-1.175,0-1.871-0.888-1.871-2.095c0-1.295,0.624-2.327,2.007-2.327c1.208,0,1.799,0.959,1.799,2.439h-3.054
			c0,0.872,0.408,1.375,1.215,1.375c0.664,0,1.056-0.512,1.08-0.824H65.792z M65.121,48.958c-0.04-0.647-0.312-1.247-1.167-1.247
			c-0.648,0-1.16,0.6-1.16,1.247H65.121z"/>
		<path d="M69.305,48.606c-0.088-0.56-0.4-0.896-0.992-0.896c-0.871,0-1.151,0.832-1.151,1.575c0,0.72,0.176,1.607,1.144,1.607
			c0.472,0,0.879-0.352,1-0.991h0.68c-0.072,0.664-0.48,1.599-1.703,1.599c-1.175,0-1.871-0.888-1.871-2.095
			c0-1.295,0.624-2.327,2.007-2.327c1.096,0,1.511,0.8,1.567,1.527H69.305z"/>
		<path d="M73.417,51.38v-0.607l-0.016-0.016c-0.296,0.488-0.656,0.744-1.328,0.744c-0.616,0-1.359-0.296-1.359-1.295v-3.006h0.703
			v2.774c0,0.688,0.352,0.919,0.808,0.919c0.888,0,1.151-0.784,1.151-1.391v-2.303h0.704v4.182H73.417z"/>
		<path d="M76.002,47.782v2.719c0,0.328,0.28,0.328,0.424,0.328h0.248v0.552c-0.256,0.024-0.456,0.056-0.527,0.056
			c-0.696,0-0.848-0.392-0.848-0.896v-2.759H74.73v-0.583h0.568v-1.167h0.704v1.167h0.671v0.583H76.002z"/>
		<path d="M80.913,50.069c-0.024,0.2-0.216,0.792-0.744,1.144c-0.192,0.128-0.464,0.288-1.135,0.288
			c-1.175,0-1.871-0.888-1.871-2.095c0-1.295,0.624-2.327,2.007-2.327c1.208,0,1.799,0.959,1.799,2.439h-3.054
			c0,0.872,0.408,1.375,1.215,1.375c0.664,0,1.056-0.512,1.08-0.824H80.913z M80.241,48.958c-0.04-0.647-0.312-1.247-1.167-1.247
			c-0.648,0-1.16,0.6-1.16,1.247H80.241z"/>
	</g>
	<g>
		<path d="M57.312,306.241h-4.238V300.5h4.182v0.688H53.85v1.76h3.142v0.688H53.85v1.919h3.462V306.241z"/>
		<path d="M61.641,306.241h-0.896l-1.04-1.575l-1.007,1.575h-0.888l1.471-2.151l-1.399-2.03h0.904l0.967,1.471l0.968-1.471h0.863
			l-1.415,2.03L61.641,306.241z"/>
		<path d="M65.792,304.929c-0.024,0.2-0.216,0.792-0.744,1.144c-0.192,0.128-0.464,0.288-1.135,0.288
			c-1.175,0-1.871-0.888-1.871-2.096c0-1.295,0.624-2.326,2.007-2.326c1.208,0,1.799,0.959,1.799,2.438h-3.054
			c0,0.872,0.408,1.375,1.215,1.375c0.664,0,1.056-0.512,1.08-0.823H65.792z M65.121,303.818c-0.04-0.647-0.312-1.247-1.167-1.247
			c-0.648,0-1.16,0.6-1.16,1.247H65.121z"/>
		<path d="M69.305,303.466c-0.088-0.56-0.4-0.896-0.992-0.896c-0.871,0-1.151,0.831-1.151,1.575c0,0.72,0.176,1.606,1.144,1.606
			c0.472,0,0.879-0.352,1-0.991h0.68c-0.072,0.664-0.48,1.6-1.703,1.6c-1.175,0-1.871-0.888-1.871-2.096
			c0-1.295,0.624-2.326,2.007-2.326c1.096,0,1.511,0.8,1.567,1.527H69.305z"/>
		<path d="M73.417,306.241v-0.607l-0.016-0.017c-0.296,0.488-0.656,0.744-1.328,0.744c-0.616,0-1.359-0.296-1.359-1.296v-3.006
			h0.703v2.774c0,0.688,0.352,0.919,0.808,0.919c0.888,0,1.151-0.783,1.151-1.391v-2.303h0.704v4.182H73.417z"/>
		<path d="M76.002,302.642v2.719c0,0.328,0.28,0.328,0.424,0.328h0.248v0.552c-0.256,0.023-0.456,0.056-0.527,0.056
			c-0.696,0-0.848-0.392-0.848-0.896v-2.759H74.73v-0.583h0.568v-1.168h0.704v1.168h0.671v0.583H76.002z"/>
		<path d="M80.913,304.929c-0.024,0.2-0.216,0.792-0.744,1.144c-0.192,0.128-0.464,0.288-1.135,0.288
			c-1.175,0-1.871-0.888-1.871-2.096c0-1.295,0.624-2.326,2.007-2.326c1.208,0,1.799,0.959,1.799,2.438h-3.054
			c0,0.872,0.408,1.375,1.215,1.375c0.664,0,1.056-0.512,1.08-0.823H80.913z M80.241,303.818c-0.04-0.647-0.312-1.247-1.167-1.247
			c-0.648,0-1.16,0.6-1.16,1.247H80.241z"/>
	</g>
	<g>
		<path d="M21.016,199.285c-0.216-1.008-1.055-1.191-1.607-1.191c-1.04,0-1.879,0.768-1.879,2.278c0,1.352,0.48,2.391,1.903,2.391
			c0.504,0,1.375-0.239,1.639-1.575h0.751c-0.32,2.167-2.079,2.263-2.51,2.263c-1.303,0-2.583-0.848-2.583-3.054
			c0-1.768,1.007-2.99,2.678-2.99c1.479,0,2.247,0.919,2.359,1.879H21.016z"/>
		<path d="M24.377,198.997c1.335,0,1.943,1.127,1.943,2.207c0,1.079-0.607,2.206-1.943,2.206c-1.335,0-1.943-1.127-1.943-2.206
			C22.435,200.124,23.042,198.997,24.377,198.997z M24.377,202.802c1.008,0,1.215-1.039,1.215-1.599s-0.208-1.6-1.215-1.6
			c-1.007,0-1.215,1.04-1.215,1.6S23.37,202.802,24.377,202.802z"/>
		<path d="M27.123,199.117h0.664v0.592h0.016c0.152-0.225,0.512-0.712,1.264-0.712c0.751,0,0.991,0.456,1.111,0.68
			c0.352-0.392,0.631-0.68,1.279-0.68c0.448,0,1.295,0.231,1.295,1.407v2.895h-0.704v-2.703c0-0.575-0.176-0.967-0.775-0.967
			c-0.592,0-0.983,0.56-0.983,1.119v2.551h-0.704v-2.895c0-0.352-0.136-0.775-0.656-0.775c-0.4,0-1.104,0.256-1.104,1.391v2.279
			h-0.704V199.117z"/>
		<path d="M33.787,199.117h0.664v0.592h0.016c0.152-0.225,0.512-0.712,1.264-0.712c0.751,0,0.991,0.456,1.111,0.68
			c0.352-0.392,0.631-0.68,1.279-0.68c0.448,0,1.295,0.231,1.295,1.407v2.895h-0.704v-2.703c0-0.575-0.176-0.967-0.775-0.967
			c-0.592,0-0.983,0.56-0.983,1.119v2.551H36.25v-2.895c0-0.352-0.136-0.775-0.656-0.775c-0.4,0-1.104,0.256-1.104,1.391v2.279
			h-0.704V199.117z"/>
		<path d="M40.427,200.388c0.032-1,0.696-1.392,1.727-1.392c0.336,0,1.551,0.096,1.551,1.167v2.407c0,0.176,0.088,0.248,0.232,0.248
			c0.064,0,0.152-0.017,0.232-0.032v0.512c-0.12,0.032-0.224,0.08-0.384,0.08c-0.624,0-0.72-0.32-0.744-0.64
			c-0.272,0.296-0.696,0.68-1.511,0.68c-0.768,0-1.311-0.488-1.311-1.208c0-0.352,0.104-1.167,1.271-1.311l1.16-0.145
			c0.167-0.016,0.368-0.08,0.368-0.495c0-0.44-0.32-0.68-0.983-0.68c-0.8,0-0.912,0.487-0.959,0.808H40.427z M43.001,201.164
			c-0.112,0.088-0.288,0.151-1.159,0.264c-0.344,0.048-0.896,0.151-0.896,0.68c0,0.456,0.231,0.728,0.759,0.728
			c0.656,0,1.295-0.424,1.295-0.983V201.164z"/>
		<path d="M48.305,203.298h-0.704v-2.575c0-0.728-0.208-1.095-0.896-1.095c-0.4,0-1.104,0.256-1.104,1.391v2.279h-0.704v-4.182
			h0.664v0.592h0.016c0.152-0.225,0.544-0.712,1.264-0.712c0.647,0,1.463,0.264,1.463,1.455V203.298z"/>
		<path d="M52.817,203.298h-0.664v-0.576h-0.016c-0.304,0.568-0.784,0.696-1.191,0.696c-1.423,0-1.839-1.336-1.839-2.335
			c0-1.176,0.632-2.087,1.743-2.087c0.759,0,1.08,0.472,1.247,0.712l0.016-0.057v-2.095h0.704V203.298z M50.962,202.81
			c0.448,0,1.144-0.296,1.144-1.407c0-0.68-0.112-1.774-1.127-1.774c-1.087,0-1.144,1.031-1.144,1.566
			C49.835,202.115,50.195,202.81,50.962,202.81z"/>
		<path d="M54.787,201.627l-0.6,1.671h-0.8l2.159-5.741h0.88l2.079,5.741h-0.847l-0.568-1.671H54.787z M56.81,200.939l-0.848-2.526
			h-0.016l-0.919,2.526H56.81z"/>
		<path d="M59.076,203.298v-5.741h0.704v2.087h0.016c0.304-0.439,0.719-0.64,1.207-0.647c1.111,0,1.743,0.911,1.743,2.087
			c0,0.999-0.416,2.335-1.839,2.335c-0.712,0-1.008-0.408-1.151-0.64h-0.016v0.52H59.076z M60.875,199.628
			c-1.016,0-1.127,1.095-1.127,1.774c0,1.111,0.696,1.407,1.144,1.407c0.768,0,1.127-0.695,1.127-1.615
			C62.018,200.66,61.962,199.628,60.875,199.628z"/>
		<path d="M65.283,198.997c1.335,0,1.943,1.127,1.943,2.207c0,1.079-0.607,2.206-1.943,2.206c-1.335,0-1.943-1.127-1.943-2.206
			C63.34,200.124,63.948,198.997,65.283,198.997z M65.283,202.802c1.008,0,1.215-1.039,1.215-1.599s-0.208-1.6-1.215-1.6
			c-1.007,0-1.215,1.04-1.215,1.6S64.275,202.802,65.283,202.802z"/>
		<path d="M68.828,203.298h-0.704v-4.182h0.664v0.695h0.016c0.28-0.487,0.647-0.815,1.175-0.815c0.088,0,0.128,0.008,0.184,0.023
			v0.729h-0.264c-0.656,0-1.071,0.512-1.071,1.119V203.298z"/>
		<path d="M71.556,199.7v2.719c0,0.328,0.28,0.328,0.424,0.328h0.248v0.552c-0.256,0.023-0.456,0.056-0.527,0.056
			c-0.696,0-0.848-0.392-0.848-0.896V199.7h-0.568v-0.583h0.568v-1.168h0.704v1.168h0.671v0.583H71.556z"/>
		<path d="M76.466,201.987c-0.024,0.2-0.216,0.792-0.744,1.144c-0.192,0.128-0.464,0.288-1.135,0.288
			c-1.175,0-1.871-0.888-1.871-2.096c0-1.295,0.624-2.326,2.007-2.326c1.208,0,1.799,0.959,1.799,2.438h-3.054
			c0,0.872,0.408,1.375,1.215,1.375c0.664,0,1.056-0.512,1.08-0.823H76.466z M75.794,200.875c-0.04-0.647-0.312-1.247-1.167-1.247
			c-0.648,0-1.16,0.6-1.16,1.247H75.794z"/>
		<path d="M80.834,203.298H80.17v-0.576h-0.016c-0.304,0.568-0.784,0.696-1.191,0.696c-1.423,0-1.839-1.336-1.839-2.335
			c0-1.176,0.632-2.087,1.743-2.087c0.759,0,1.08,0.472,1.247,0.712l0.016-0.057v-2.095h0.704V203.298z M78.979,202.81
			c0.448,0,1.144-0.296,1.144-1.407c0-0.68-0.112-1.774-1.127-1.774c-1.087,0-1.144,1.031-1.144,1.566
			C77.852,202.115,78.211,202.81,78.979,202.81z"/>
	</g>
	<g>
		<path d="M35.575,271.727h-1.261v-5.401h-0.018l-1.207,5.401h-1.323l-1.18-5.401h-0.018v5.401h-1.26v-6.464h1.972l1.17,5.096h0.018
			l1.152-5.096h1.954V271.727z"/>
		<path d="M40.992,267.379c-0.108-0.388-0.315-1.117-1.432-1.117c-0.648,0-1.603,0.433-1.603,2.26c0,1.162,0.459,2.206,1.603,2.206
			c0.747,0,1.27-0.423,1.432-1.216h1.35c-0.27,1.405-1.188,2.386-2.809,2.386c-1.72,0-2.953-1.161-2.953-3.394
			c0-2.26,1.306-3.412,2.971-3.412c1.936,0,2.719,1.332,2.791,2.287H40.992z"/>
		<path d="M47.688,272.403v0.45h-5.005v-0.45H47.688z"/>
		<path d="M49.334,269.738c0.009,0.36,0.189,1.044,1.369,1.044c0.639,0,1.35-0.152,1.35-0.837c0-0.504-0.486-0.64-1.17-0.802
			l-0.693-0.161c-1.044-0.243-2.053-0.478-2.053-1.9c0-0.72,0.387-1.989,2.485-1.989c1.98,0,2.512,1.297,2.521,2.089h-1.296
			c-0.036-0.288-0.144-0.973-1.323-0.973c-0.513,0-1.125,0.189-1.125,0.774c0,0.504,0.414,0.612,0.684,0.675l1.576,0.388
			c0.882,0.216,1.692,0.576,1.692,1.737c0,1.944-1.98,2.115-2.548,2.115c-2.358,0-2.764-1.359-2.764-2.16H49.334z"/>
		<path d="M55.688,266.938h0.783v0.9h-0.783v2.602c0,0.279,0.009,0.387,0.522,0.387c0.081,0,0.171-0.009,0.261-0.018v0.954
			c-0.198,0.009-0.396,0.019-0.594,0.019h-0.162c-1.089,0-1.287-0.415-1.287-1.036v-2.907h-0.648v-0.9h0.648v-1.297h1.26V266.938z"
			/>
		<path d="M59.441,271.853c-1.288,0-2.449-0.792-2.449-2.521s1.161-2.521,2.449-2.521c1.287,0,2.449,0.792,2.449,2.521
			S60.729,271.853,59.441,271.853z M59.441,267.875c-0.972,0-1.152,0.846-1.152,1.458s0.18,1.458,1.152,1.458
			s1.152-0.846,1.152-1.458S60.414,267.875,59.441,267.875z"/>
		<path d="M63.95,267.631h0.018c0.234-0.378,0.585-0.819,1.431-0.819c1.053,0,1.99,0.81,1.99,2.467c0,1.314-0.594,2.574-2.017,2.574
			c-0.882,0-1.197-0.477-1.351-0.738h-0.018v2.477h-1.26v-6.653h1.207V267.631z M65.058,270.818c0.81,0,1.035-0.882,1.035-1.449
			c0-0.756-0.27-1.468-1.071-1.468c-0.864,0-1.071,0.774-1.071,1.54C63.95,270.152,64.256,270.818,65.058,270.818z"/>
	</g>
	<g>
		<path d="M6.887,12.014H5.626V6.612H5.609l-1.207,5.401H3.079l-1.18-5.401H1.881v5.401h-1.26V5.55h1.972l1.17,5.096h0.018
			L4.934,5.55h1.954V12.014z"/>
		<path d="M12.305,7.666c-0.108-0.387-0.315-1.117-1.432-1.117c-0.648,0-1.603,0.432-1.603,2.26c0,1.162,0.459,2.206,1.603,2.206
			c0.747,0,1.27-0.423,1.432-1.215h1.35c-0.27,1.405-1.188,2.386-2.809,2.386c-1.72,0-2.953-1.161-2.953-3.394
			c0-2.259,1.306-3.412,2.971-3.412c1.936,0,2.719,1.332,2.791,2.287H12.305z"/>
		<path d="M19,12.689v0.45h-5.005v-0.45H19z"/>
		<path d="M20.646,10.024c0.009,0.36,0.189,1.044,1.369,1.044c0.639,0,1.35-0.153,1.35-0.837c0-0.504-0.486-0.639-1.17-0.801
			l-0.693-0.162c-1.044-0.243-2.053-0.478-2.053-1.9c0-0.72,0.387-1.989,2.485-1.989c1.98,0,2.512,1.296,2.521,2.088h-1.296
			c-0.036-0.288-0.144-0.972-1.323-0.972c-0.513,0-1.125,0.189-1.125,0.774c0,0.504,0.414,0.612,0.684,0.675l1.576,0.387
			c0.882,0.216,1.692,0.576,1.692,1.738c0,1.944-1.98,2.115-2.548,2.115c-2.358,0-2.764-1.359-2.764-2.161H20.646z"/>
		<path d="M28.207,11.933c-0.594,1.773-0.756,2.008-1.854,2.008c-0.171,0-0.387-0.009-0.567-0.018v-1.008
			c0.054,0.009,0.135,0.018,0.243,0.018c0.459,0,0.711-0.063,0.828-0.72l-1.765-4.988h1.405l1.026,3.529h0.018l0.981-3.529h1.333
			L28.207,11.933z"/>
		<path d="M34.921,12.014h-1.26V9.106c0-0.351-0.018-0.945-0.819-0.945c-0.558,0-0.99,0.378-0.99,1.107v2.746h-1.261v-4.79h1.207
			v0.702h0.018c0.171-0.288,0.531-0.828,1.44-0.828c0.936,0,1.666,0.549,1.666,1.603V12.014z"/>
		<path d="M40.213,10.267c-0.045,0.495-0.432,1.873-2.188,1.873c-1.8,0-2.214-1.377-2.214-2.386c0-1.548,0.675-2.656,2.295-2.656
			c0.756,0,1.999,0.342,2.116,1.836h-1.278C38.89,8.629,38.71,8.161,38.17,8.161h-0.063c-0.792,0-0.999,0.792-0.999,1.386
			c0,0.522,0.018,1.558,0.972,1.558c0.639,0,0.855-0.612,0.855-0.837H40.213z"/>
		<path d="M45.316,7.666c-0.108-0.387-0.315-1.117-1.432-1.117c-0.648,0-1.603,0.432-1.603,2.26c0,1.162,0.459,2.206,1.603,2.206
			c0.747,0,1.27-0.423,1.432-1.215h1.35c-0.27,1.405-1.188,2.386-2.809,2.386c-1.72,0-2.953-1.161-2.953-3.394
			c0-2.259,1.306-3.412,2.971-3.412c1.936,0,2.719,1.332,2.791,2.287H45.316z"/>
		<path d="M49.762,12.14c-1.288,0-2.449-0.792-2.449-2.521s1.161-2.521,2.449-2.521c1.287,0,2.449,0.792,2.449,2.521
			S51.049,12.14,49.762,12.14z M49.762,8.161c-0.972,0-1.152,0.846-1.152,1.458c0,0.612,0.18,1.458,1.152,1.458
			s1.152-0.846,1.152-1.458C50.914,9.007,50.734,8.161,49.762,8.161z"/>
		<path d="M57.421,12.014h-1.26V9.106c0-0.351-0.018-0.945-0.819-0.945c-0.558,0-0.99,0.378-0.99,1.107v2.746h-1.261v-4.79h1.207
			v0.702h0.018c0.171-0.288,0.531-0.828,1.44-0.828c0.936,0,1.666,0.549,1.666,1.603V12.014z"/>
		<path d="M60.003,7.224h0.783v0.9h-0.783v2.602c0,0.279,0.009,0.387,0.522,0.387c0.081,0,0.171-0.009,0.261-0.018v0.955
			c-0.198,0.009-0.396,0.018-0.594,0.018H60.03c-1.089,0-1.287-0.415-1.287-1.036V8.125h-0.648v-0.9h0.648V5.928h1.26V7.224z"/>
		<path d="M61.578,7.224h1.207v0.829h0.018c0.261-0.486,0.549-0.955,1.314-0.955c0.081,0,0.162,0.009,0.243,0.018v1.278
			C64.252,8.376,64.117,8.376,64,8.376c-0.981,0-1.162,0.612-1.162,1.144v2.494h-1.26V7.224z"/>
		<path d="M67.258,12.14c-1.288,0-2.449-0.792-2.449-2.521s1.161-2.521,2.449-2.521c1.287,0,2.449,0.792,2.449,2.521
			S68.545,12.14,67.258,12.14z M67.258,8.161c-0.972,0-1.152,0.846-1.152,1.458c0,0.612,0.18,1.458,1.152,1.458
			s1.152-0.846,1.152-1.458C68.41,9.007,68.23,8.161,67.258,8.161z"/>
		<path d="M71.883,12.014h-1.26V5.55h1.26V12.014z"/>
	</g>
	<g>
		<path d="M64.098,147.623h2.526c1.071,0,1.623,0.664,1.623,1.447c0,0.375-0.136,0.903-0.768,1.199
			c0.376,0.152,1.04,0.416,1.04,1.399c0,0.92-0.68,1.695-1.951,1.695h-2.471V147.623z M64.874,150.054h1.399
			c0.744,0,1.199-0.224,1.199-0.928c0-0.536-0.328-0.839-1.191-0.839h-1.407V150.054z M64.874,152.7h1.655
			c0.808,0,1.215-0.408,1.215-1.047c0-0.808-0.712-0.968-1.343-0.968h-1.527V152.7z"/>
		<path d="M72.088,153.364v-0.607l-0.016-0.016c-0.296,0.488-0.656,0.744-1.328,0.744c-0.616,0-1.359-0.296-1.359-1.295v-3.006
			h0.703v2.774c0,0.688,0.352,0.919,0.808,0.919c0.888,0,1.151-0.784,1.151-1.391v-2.303h0.704v4.182H72.088z"/>
		<path d="M76.185,150.374c-0.008-0.264-0.104-0.704-0.992-0.704c-0.216,0-0.832,0.072-0.832,0.591c0,0.344,0.216,0.424,0.76,0.56
			l0.704,0.176c0.872,0.216,1.175,0.536,1.175,1.104c0,0.863-0.711,1.383-1.655,1.383c-1.655,0-1.775-0.959-1.799-1.463h0.68
			c0.024,0.328,0.12,0.855,1.111,0.855c0.504,0,0.959-0.2,0.959-0.664c0-0.336-0.232-0.448-0.832-0.6l-0.815-0.2
			c-0.584-0.144-0.968-0.439-0.968-1.015c0-0.919,0.76-1.335,1.583-1.335c1.495,0,1.599,1.104,1.599,1.312H76.185z"/>
		<path d="M80.425,149.182H81.2c-0.488,1.367-0.967,2.734-1.503,4.102c-0.664,1.695-0.736,1.791-1.639,1.791
			c-0.104,0-0.184-0.032-0.296-0.064v-0.64c0.088,0.032,0.232,0.072,0.424,0.072c0.368,0,0.408-0.104,0.744-0.968l-1.551-4.293h0.8
			l1.111,3.406h0.016L80.425,149.182z"/>
	</g>
	<g>
		<path d="M64.098,399.651h2.526c1.071,0,1.623,0.664,1.623,1.447c0,0.376-0.136,0.903-0.768,1.199
			c0.376,0.152,1.04,0.416,1.04,1.399c0,0.92-0.68,1.695-1.951,1.695h-2.471V399.651z M64.874,402.082h1.399
			c0.744,0,1.199-0.224,1.199-0.928c0-0.535-0.328-0.839-1.191-0.839h-1.407V402.082z M64.874,404.728h1.655
			c0.808,0,1.215-0.407,1.215-1.047c0-0.808-0.712-0.968-1.343-0.968h-1.527V404.728z"/>
		<path d="M72.088,405.392v-0.607l-0.016-0.017c-0.296,0.488-0.656,0.744-1.328,0.744c-0.616,0-1.359-0.296-1.359-1.296v-3.006
			h0.703v2.774c0,0.688,0.352,0.919,0.808,0.919c0.888,0,1.151-0.783,1.151-1.391v-2.303h0.704v4.182H72.088z"/>
		<path d="M76.185,402.402c-0.008-0.265-0.104-0.704-0.992-0.704c-0.216,0-0.832,0.072-0.832,0.592c0,0.344,0.216,0.424,0.76,0.56
			l0.704,0.176c0.872,0.216,1.175,0.536,1.175,1.104c0,0.863-0.711,1.384-1.655,1.384c-1.655,0-1.775-0.96-1.799-1.464h0.68
			c0.024,0.328,0.12,0.855,1.111,0.855c0.504,0,0.959-0.199,0.959-0.663c0-0.336-0.232-0.448-0.832-0.6l-0.815-0.2
			c-0.584-0.144-0.968-0.439-0.968-1.016c0-0.919,0.76-1.335,1.583-1.335c1.495,0,1.599,1.104,1.599,1.312H76.185z"/>
		<path d="M80.425,401.21H81.2c-0.488,1.367-0.967,2.734-1.503,4.102c-0.664,1.695-0.736,1.791-1.639,1.791
			c-0.104,0-0.184-0.032-0.296-0.064v-0.64c0.088,0.032,0.232,0.072,0.424,0.072c0.368,0,0.408-0.104,0.744-0.968l-1.551-4.293h0.8
			l1.111,3.406h0.016L80.425,401.21z"/>
	</g>
	<g>
		<path d="M50.338,103.257h-0.776v-5.741h0.776V103.257z"/>
		<path d="M54.985,103.257h-0.704v-2.575c0-0.728-0.208-1.095-0.896-1.095c-0.4,0-1.104,0.256-1.104,1.391v2.279h-0.704v-4.182
			h0.664v0.592h0.016c0.152-0.224,0.544-0.712,1.264-0.712c0.647,0,1.463,0.264,1.463,1.455V103.257z"/>
		<path d="M60.145,99.244c-0.216-1.008-1.056-1.191-1.607-1.191c-1.04,0-1.879,0.768-1.879,2.279c0,1.351,0.479,2.391,1.903,2.391
			c0.504,0,1.375-0.24,1.639-1.575h0.751c-0.32,2.167-2.079,2.263-2.51,2.263c-1.304,0-2.583-0.848-2.583-3.054
			c0-1.767,1.008-2.99,2.679-2.99c1.479,0,2.247,0.919,2.359,1.879H60.145z"/>
		<path d="M63.506,98.956c1.335,0,1.943,1.127,1.943,2.207c0,1.079-0.607,2.207-1.943,2.207c-1.335,0-1.943-1.127-1.943-2.207
			C61.563,100.083,62.171,98.956,63.506,98.956z M63.506,102.762c1.007,0,1.215-1.04,1.215-1.599s-0.208-1.599-1.215-1.599
			s-1.215,1.04-1.215,1.599S62.499,102.762,63.506,102.762z"/>
		<path d="M69.657,103.257h-0.704v-2.575c0-0.728-0.208-1.095-0.896-1.095c-0.4,0-1.104,0.256-1.104,1.391v2.279H66.25v-4.182h0.664
			v0.592h0.016c0.152-0.224,0.544-0.712,1.264-0.712c0.647,0,1.463,0.264,1.463,1.455V103.257z"/>
		<path d="M71.562,99.659v2.719c0,0.328,0.28,0.328,0.424,0.328h0.248v0.552c-0.256,0.024-0.456,0.056-0.527,0.056
			c-0.696,0-0.848-0.392-0.848-0.896v-2.759h-0.568v-0.583h0.568v-1.167h0.704v1.167h0.671v0.583H71.562z"/>
		<path d="M73.723,103.257h-0.704v-4.182h0.664v0.695h0.016c0.28-0.487,0.647-0.815,1.175-0.815c0.088,0,0.128,0.008,0.184,0.024
			v0.728h-0.264c-0.656,0-1.071,0.512-1.071,1.119V103.257z"/>
		<path d="M77.29,98.956c1.335,0,1.943,1.127,1.943,2.207c0,1.079-0.607,2.207-1.943,2.207c-1.335,0-1.943-1.127-1.943-2.207
			C75.347,100.083,75.955,98.956,77.29,98.956z M77.29,102.762c1.007,0,1.215-1.04,1.215-1.599s-0.208-1.599-1.215-1.599
			s-1.215,1.04-1.215,1.599S76.283,102.762,77.29,102.762z"/>
		<path d="M80.754,103.257h-0.704v-5.741h0.704V103.257z"/>
	</g>
	<g>
		<path d="M62.818,349.243h2.327c1.496,0,2.415,1.136,2.415,2.791c0,1.287-0.56,2.95-2.447,2.95h-2.295V349.243z M63.594,354.32
			h1.503c1.008,0,1.663-0.791,1.663-2.238s-0.664-2.175-1.719-2.175h-1.447V354.32z"/>
		<path d="M70.169,350.682c1.335,0,1.943,1.127,1.943,2.207c0,1.079-0.607,2.206-1.943,2.206c-1.335,0-1.943-1.127-1.943-2.206
			C68.227,351.809,68.834,350.682,70.169,350.682z M70.169,354.488c1.008,0,1.215-1.039,1.215-1.599s-0.208-1.6-1.215-1.6
			c-1.007,0-1.215,1.04-1.215,1.6S69.162,354.488,70.169,354.488z"/>
		<path d="M76.321,354.984h-0.704v-2.575c0-0.728-0.208-1.095-0.896-1.095c-0.4,0-1.104,0.256-1.104,1.391v2.279h-0.704v-4.182
			h0.664v0.592h0.016c0.152-0.225,0.544-0.712,1.264-0.712c0.647,0,1.463,0.264,1.463,1.455V354.984z"/>
		<path d="M80.913,353.672c-0.024,0.2-0.216,0.792-0.744,1.144c-0.192,0.128-0.464,0.288-1.135,0.288
			c-1.175,0-1.871-0.888-1.871-2.096c0-1.295,0.624-2.326,2.007-2.326c1.208,0,1.799,0.959,1.799,2.438h-3.055
			c0,0.872,0.408,1.375,1.215,1.375c0.664,0,1.056-0.512,1.08-0.823H80.913z M80.241,352.561c-0.04-0.647-0.312-1.247-1.167-1.247
			c-0.648,0-1.16,0.6-1.16,1.247H80.241z"/>
	</g>
	<g>
		<path d="M118.908,0.779c-0.68,1.279-1.087,2.047-1.087,3.966c0,1.319,0.456,2.295,1.095,3.55h-0.472
			c-0.832-1.248-1.375-2.247-1.375-3.742c0-1.407,0.488-2.542,1.352-3.774H118.908z"/>
		<path d="M122.06,6.64h-0.752V2.65h-1.311v-0.56c0.912-0.064,1.287-0.152,1.511-1.072h0.552V6.64z"/>
		<path d="M123.917,8.295c0.68-1.279,1.087-2.047,1.087-3.966c0-1.319-0.456-2.295-1.095-3.55h0.472
			c0.832,1.248,1.375,2.247,1.375,3.742c0,1.407-0.488,2.542-1.351,3.774H123.917z"/>
	</g>
	<g>
		<path d="M154.607,0.779c-0.68,1.279-1.087,2.047-1.087,3.966c0,1.319,0.456,2.295,1.095,3.55h-0.472
			c-0.832-1.248-1.375-2.247-1.375-3.742c0-1.407,0.488-2.542,1.352-3.774H154.607z"/>
		<path d="M155.24,3.034c0-1.831,1.335-2.015,1.943-2.015c0.975,0,1.759,0.632,1.759,1.679c0,1.007-0.664,1.431-1.503,1.879
			l-0.584,0.32c-0.768,0.424-0.936,0.864-0.967,1.08h3.054V6.64h-3.846c0.04-1.167,0.567-1.791,1.319-2.231l0.744-0.432
			c0.6-0.344,1.031-0.576,1.031-1.311c0-0.448-0.288-1.016-1.111-1.016c-1.063,0-1.111,0.991-1.136,1.383H155.24z"/>
		<path d="M159.616,8.295c0.68-1.279,1.087-2.047,1.087-3.966c0-1.319-0.456-2.295-1.095-3.55h0.472
			c0.832,1.248,1.375,2.247,1.375,3.742c0,1.407-0.488,2.542-1.351,3.774H159.616z"/>
	</g>
	<g>
		<path d="M341.202,0.779c-0.68,1.279-1.088,2.047-1.088,3.966c0,1.319,0.456,2.295,1.096,3.55h-0.472
			c-0.832-1.248-1.375-2.247-1.375-3.742c0-1.407,0.487-2.542,1.351-3.774H341.202z"/>
		<path d="M343.274,3.442c0.12,0.008,0.248,0.016,0.367,0.016c0.544,0,1.072-0.216,1.072-0.919c0-0.336-0.2-0.888-1.04-0.888
			c-0.999,0-1.063,0.815-1.096,1.208h-0.688c0-0.824,0.336-1.839,1.815-1.839c1.087,0,1.735,0.624,1.735,1.479
			c0,0.72-0.416,1.063-0.72,1.159v0.016c0.543,0.176,0.936,0.56,0.936,1.311c0,0.92-0.592,1.807-2.023,1.807
			c-0.416,0-0.768-0.104-1.039-0.248c-0.624-0.328-0.792-0.976-0.84-1.624h0.728c0.024,0.528,0.152,1.24,1.199,1.24
			c0.72,0,1.224-0.44,1.224-1.088c0-0.943-0.831-1.031-1.312-1.031c-0.104,0-0.216,0.008-0.319,0.008V3.442z"/>
		<path d="M346.21,8.295c0.68-1.279,1.088-2.047,1.088-3.966c0-1.319-0.456-2.295-1.096-3.55h0.472
			c0.832,1.248,1.375,2.247,1.375,3.742c0,1.407-0.487,2.542-1.351,3.774H346.21z"/>
	</g>
	<g>
		<path d="M424.527,0.779c-0.68,1.279-1.087,2.047-1.087,3.966c0,1.319,0.456,2.295,1.095,3.55h-0.471
			c-0.832-1.248-1.375-2.247-1.375-3.742c0-1.407,0.486-2.542,1.351-3.774H424.527z"/>
		<path d="M428.167,5.273V6.64h-0.705V5.273h-2.454V4.585l2.575-3.566h0.584v3.646h0.822v0.608H428.167z M425.656,4.665h1.807v-2.55
			h-0.016L425.656,4.665z"/>
		<path d="M429.537,8.295c0.68-1.279,1.088-2.047,1.088-3.966c0-1.319-0.456-2.295-1.096-3.55H430
			c0.831,1.248,1.375,2.247,1.375,3.742c0,1.407-0.487,2.542-1.351,3.774H429.537z"/>
	</g>
	<g>
		<path d="M493.292,0.779c-0.68,1.279-1.087,2.047-1.087,3.966c0,1.319,0.455,2.295,1.095,3.55h-0.472
			c-0.831-1.248-1.375-2.247-1.375-3.742c0-1.407,0.487-2.542,1.352-3.774H493.292z"/>
		<path d="M494.749,3.37c0.239-0.184,0.583-0.352,1.087-0.352c0.912,0,1.848,0.64,1.848,1.799c0,0.624-0.28,1.975-2.039,1.975
			c-0.735,0-1.68-0.296-1.815-1.551h0.728c0.072,0.656,0.56,0.944,1.191,0.944c0.728,0,1.184-0.584,1.184-1.288
			c0-0.808-0.552-1.247-1.247-1.247c-0.408,0-0.775,0.192-1.04,0.536l-0.607-0.032l0.424-3.014h2.91v0.688h-2.383L494.749,3.37z"/>
		<path d="M498.301,8.295c0.68-1.279,1.087-2.047,1.087-3.966c0-1.319-0.455-2.295-1.095-3.55h0.472
			c0.831,1.248,1.375,2.247,1.375,3.742c0,1.407-0.488,2.542-1.352,3.774H498.301z"/>
	</g>
	<g>
		<path d="M575.404,0.779c-0.68,1.279-1.087,2.047-1.087,3.966c0,1.319,0.455,2.295,1.095,3.55h-0.472
			c-0.831-1.248-1.375-2.247-1.375-3.742c0-1.407,0.487-2.542,1.352-3.774H575.404z"/>
		<path d="M579.019,2.514c-0.088-0.496-0.359-0.863-0.967-0.863c-1.104,0-1.336,1.487-1.336,2.079l0.017,0.016
			c0.176-0.304,0.567-0.688,1.335-0.688c0.688,0,1.759,0.44,1.759,1.783c0,0.576-0.151,0.991-0.535,1.407
			c-0.296,0.328-0.632,0.543-1.424,0.543c-0.432,0-1.047-0.192-1.447-0.815c-0.335-0.528-0.432-1.215-0.432-1.951
			c0-1.231,0.4-3.006,2.079-3.006c0.647,0,1.567,0.352,1.64,1.495H579.019z M577.996,6.161c0.672,0,1.104-0.528,1.104-1.288
			c0-0.496-0.264-1.183-1.135-1.183c-0.776,0-1.151,0.56-1.151,1.223C576.813,5.513,577.172,6.161,577.996,6.161z"/>
		<path d="M580.414,8.295c0.68-1.279,1.087-2.047,1.087-3.966c0-1.319-0.455-2.295-1.095-3.55h0.472
			c0.831,1.248,1.375,2.247,1.375,3.742c0,1.407-0.488,2.542-1.352,3.774H580.414z"/>
	</g>
	<g>
	</g>
	<g>
	</g>
	<g>
	</g>
	<g>
	</g>
	<g>
	</g>
	<g>
	</g>
	<g>
	</g>
	<g>
	</g>
	<g>
	</g>
	<g>
	</g>
	<g>
	</g>
	<g>
	</g>
	<g>
	</g>
	<g>
	</g>
	<g>
	</g>
</g>
</svg>
