<?xml version="1.0" encoding="utf-8"?>
<!-- Generator: Adobe Illustrator 28.2.0, SVG Export Plug-In . SVG Version: 6.00 Build 0)  -->
<svg version="1.1" xmlns="http://www.w3.org/2000/svg" xmlns:xlink="http://www.w3.org/1999/xlink" x="0px" y="0px"
	 width="400.997px" height="112.694px" viewBox="0 0 400.997 112.694" style="enable-background:new 0 0 400.997 112.694;"
	 xml:space="preserve">
<style type="text/css">
	.st0{fill:none;stroke:#666666;stroke-width:0.5;stroke-miterlimit:10;stroke-dasharray:1;}
	.st1{fill:none;stroke:#040000;stroke-width:0.5;stroke-miterlimit:10;}
	.st2{fill:none;stroke:#040000;stroke-miterlimit:10;}
	.st3{fill:#FFFFFF;stroke:#040000;stroke-width:0.5;stroke-miterlimit:10;}
	.st4{fill:#040000;}
	.st5{fill:#231815;}
</style>
<g id="レイヤー_3">
	<line class="st0" x1="269.132" y1="75.639" x2="36.952" y2="75.639"/>
	<line class="st1" x1="269.132" y1="19.819" x2="269.132" y2="75.637"/>
	<line class="st1" x1="360.499" y1="47.728" x2="360.499" y2="75.637"/>
	<line class="st1" x1="269.132" y1="75.639" x2="342.682" y2="75.639"/>
	<polyline class="st2" points="36.951,19.819 110.165,19.819 342.682,75.639 400.997,75.639 	"/>
	<path class="st3" d="M65.126,85.61H196.39l30.033-26.401L212.165,85.61h5.663c2.558,0,4.652,2.093,4.652,4.652v17.531
		c0,2.558-2.093,4.652-4.652,4.652H65.126c-2.558,0-4.652-2.093-4.652-4.652V90.261C60.474,87.703,62.568,85.61,65.126,85.61z"/>
	<line class="st0" x1="111.015" y1="12.358" x2="111.015" y2="75.639"/>
	<polyline class="st0" points="111.015,19.819 269.132,19.819 295.586,38.156 314.885,38.156 360.499,75.637 	"/>
</g>
<g id="レイヤー_2">
	<g>
		<path class="st4" d="M0.43,45.504c0.13,0.026,0.255,0.039,0.375,0.039h0.852v-1.039c0-0.172-0.011-0.346-0.031-0.523
			c0.213,0.037,0.442,0.055,0.688,0.055c-0.062,0.167-0.094,0.357-0.094,0.57v0.938h0.492c0.13,0,0.255-0.013,0.375-0.039
			c-0.021,0.099-0.031,0.193-0.031,0.281c0,0.109,0.01,0.214,0.031,0.312c-0.12-0.021-0.245-0.031-0.375-0.031H2.219v1.398
			c0.307-0.114,0.596-0.237,0.867-0.367c-0.021,0.308-0.031,0.516-0.031,0.625c-0.312,0.104-0.591,0.198-0.836,0.281v2.695
			c0,0.271-0.102,0.448-0.305,0.531c-0.193,0.083-0.479,0.125-0.859,0.125c-0.047-0.261-0.151-0.479-0.312-0.656h0.477
			c0.292,0,0.438-0.107,0.438-0.32v-2.172c-0.521,0.193-0.886,0.357-1.094,0.492c-0.011-0.203-0.076-0.432-0.195-0.688
			c0.448-0.094,0.877-0.208,1.289-0.344v-1.602H0.805c-0.12,0-0.245,0.011-0.375,0.031c0.021-0.099,0.031-0.203,0.031-0.312
			C0.461,45.697,0.45,45.603,0.43,45.504z M3.492,47.473c0.286,0.047,0.567,0.07,0.844,0.07h1.852c0.281,0,0.56-0.023,0.836-0.07
			c-0.037,0.25-0.055,0.503-0.055,0.758v2.273c0,0.276,0.018,0.549,0.055,0.82c-0.156-0.021-0.261-0.031-0.312-0.031
			c-0.052,0-0.167,0.01-0.344,0.031c0.036-0.219,0.055-0.438,0.055-0.656H4.094c0.005,0.219,0.023,0.438,0.055,0.656
			c-0.167-0.021-0.281-0.031-0.344-0.031c-0.052,0-0.156,0.01-0.312,0.031c0.047-0.271,0.07-0.544,0.07-0.82V48.23
			C3.562,47.976,3.539,47.723,3.492,47.473z M6.875,44.355c0.109,0.229,0.255,0.417,0.438,0.562
			c-0.141,0.016-0.378,0.065-0.711,0.148c-0.802,0.234-1.62,0.445-2.453,0.633v0.625c0,0.146,0.062,0.219,0.188,0.219h2.031
			c0.234,0,0.403-0.049,0.508-0.148c0.099-0.083,0.148-0.307,0.148-0.672c0.114,0.151,0.284,0.255,0.508,0.312
			c-0.058,0.339-0.141,0.576-0.25,0.711c-0.141,0.177-0.404,0.266-0.789,0.266H4.117c-0.323,0-0.487-0.114-0.492-0.344v-2.164
			c0-0.172-0.021-0.346-0.062-0.523C3.781,44.017,4,44.035,4.219,44.035c-0.047,0.094-0.07,0.201-0.07,0.32v0.938
			c0.438-0.109,0.864-0.229,1.281-0.359C6.002,44.762,6.484,44.569,6.875,44.355z M4.086,48.816H6.43v-0.805H4.086V48.816z
			 M4.086,50.191H6.43v-0.898H4.086V50.191z"/>
		<path class="st4" d="M11.68,43.949c0.286,0.141,0.591,0.234,0.914,0.281c-0.13,0.089-0.258,0.201-0.383,0.336
			c0.328,0.511,0.747,0.948,1.258,1.312c0.505,0.365,1.242,0.688,2.211,0.969c-0.208,0.198-0.373,0.44-0.492,0.727
			c-0.943-0.432-1.662-0.862-2.156-1.289c-0.464-0.364-0.839-0.82-1.125-1.367c-0.781,0.958-1.802,1.844-3.062,2.656
			c-0.136-0.192-0.344-0.38-0.625-0.562c0.849-0.396,1.565-0.867,2.148-1.414C10.94,45.082,11.377,44.533,11.68,43.949z
			 M9.086,47.785c0.208,0.021,0.417,0.031,0.625,0.031h3.781c0.328,0,0.651-0.01,0.969-0.031c-0.484,0.568-1.195,1.427-2.133,2.578
			c0.417,0.172,0.838,0.346,1.266,0.523c-0.214,0.198-0.362,0.393-0.445,0.586c-1.167-0.646-2.341-1.174-3.523-1.586
			c0.172-0.151,0.315-0.32,0.43-0.508c0.536,0.24,1.094,0.484,1.672,0.734l1.555-1.734h-3.57c-0.208,0-0.417,0.011-0.625,0.031
			c0.021-0.099,0.031-0.203,0.031-0.312C9.117,47.999,9.106,47.895,9.086,47.785z M11.969,45.949
			c0.12,0.354,0.284,0.737,0.492,1.148c-0.203,0.042-0.409,0.117-0.617,0.227c-0.089-0.375-0.248-0.784-0.477-1.227
			C11.581,46.072,11.781,46.022,11.969,45.949z"/>
		<path class="st4" d="M16.531,46.949c0.338,0.021,0.682,0.031,1.031,0.031c0.161,0,0.325-0.01,0.492-0.031
			c-0.021,0.219-0.031,0.438-0.031,0.656v2.383c0.036,0.016,0.07,0.031,0.102,0.047c0.766,0.401,1.763,0.602,2.992,0.602
			c0.5,0,1.336-0.044,2.508-0.133c-0.109,0.167-0.185,0.385-0.227,0.656h-2.062c-1.365,0-2.435-0.211-3.211-0.633
			c-0.177-0.099-0.305-0.148-0.383-0.148c-0.193,0-0.505,0.26-0.938,0.781c-0.13-0.172-0.294-0.308-0.492-0.406l0.812-0.625
			c0.12-0.083,0.231-0.146,0.336-0.188v-2.438c-0.308,0-0.617,0.013-0.93,0.039c0.021-0.109,0.031-0.213,0.031-0.312
			C16.562,47.132,16.552,47.038,16.531,46.949z M17.461,44.41c0.177,0.583,0.406,1.097,0.688,1.539
			c-0.188,0.021-0.394,0.091-0.617,0.211c-0.193-0.635-0.401-1.143-0.625-1.523C17.094,44.601,17.278,44.525,17.461,44.41z
			 M18.492,44.848c0.297,0.047,0.588,0.07,0.875,0.07h1.289c0-0.312-0.021-0.614-0.062-0.906c0.198,0.016,0.438,0.023,0.719,0.023
			c-0.062,0.151-0.094,0.341-0.094,0.57v0.312h1.375c0.286,0,0.575-0.023,0.867-0.07c-0.021,0.109-0.031,0.214-0.031,0.312
			c0,0.109,0.01,0.214,0.031,0.312c-0.292-0.042-0.581-0.062-0.867-0.062h-1.375v0.656h0.898c0.328,0,0.651-0.01,0.969-0.031
			c-0.021,0.172-0.031,0.341-0.031,0.508v0.898c0,0.198,0.01,0.396,0.031,0.594c-0.318-0.016-0.641-0.023-0.969-0.023h-0.898v1.25
			c0,0.359,0.021,0.724,0.062,1.094c-0.12-0.021-0.234-0.031-0.344-0.031c-0.12,0-0.234,0.011-0.344,0.031
			c0.042-0.37,0.062-0.734,0.062-1.094v-1.219c-0.484,0.797-1.112,1.472-1.883,2.023c-0.109-0.146-0.255-0.289-0.438-0.43
			c0.692-0.344,1.289-0.885,1.789-1.625h-0.383c-0.318,0-0.641,0.008-0.969,0.023c0.021-0.198,0.031-0.396,0.031-0.594v-0.898
			c-0.021-0.167-0.031-0.336-0.031-0.508c0.328,0.021,0.651,0.031,0.969,0.031h0.914V45.41h-1.289c-0.287,0-0.578,0.021-0.875,0.062
			c0.026-0.099,0.039-0.203,0.039-0.312C18.531,45.062,18.518,44.957,18.492,44.848z M20.656,47.543v-1h-1.289v1H20.656z
			 M22.492,47.543v-1h-1.273v1H22.492z M21.742,48.324c0.469,0.354,0.992,0.727,1.57,1.117c-0.172,0.167-0.287,0.326-0.344,0.477
			c-0.531-0.489-1.065-0.888-1.602-1.195C21.518,48.608,21.643,48.476,21.742,48.324z"/>
		<path class="st4" d="M28.562,44.012c0.114,0.271,0.239,0.562,0.375,0.875h1.773c0.219,0,0.438-0.013,0.656-0.039
			c-0.021,0.099-0.031,0.193-0.031,0.281c0,0.109,0.01,0.214,0.031,0.312c-0.219-0.021-0.438-0.031-0.656-0.031h-4.688v0.945h1.312
			v-0.406c0-0.141-0.019-0.276-0.055-0.406c0.208,0.047,0.438,0.078,0.688,0.094c-0.062,0.125-0.094,0.25-0.094,0.375v0.344h1.617
			v-0.32c0-0.135-0.021-0.268-0.062-0.398c0.188,0.031,0.417,0.052,0.688,0.062c-0.062,0.136-0.094,0.289-0.094,0.461v0.195h0.688
			c0.245,0,0.505-0.01,0.781-0.031c-0.021,0.099-0.031,0.193-0.031,0.281c0,0.104,0.01,0.198,0.031,0.281
			c-0.183-0.026-0.443-0.039-0.781-0.039h-0.688v0.758c0,0.162,0.01,0.326,0.031,0.492c-0.156-0.021-0.31-0.031-0.461-0.031h-1.75
			c-0.188,0-0.375,0.011-0.562,0.031c0.036-0.151,0.055-0.305,0.055-0.461v-0.789h-1.312v1.07c-0.016,0.62-0.107,1.203-0.273,1.75
			c-0.115,0.438-0.375,0.979-0.781,1.625c-0.172-0.183-0.383-0.287-0.633-0.312c0.37-0.448,0.638-0.909,0.805-1.383
			c0.192-0.573,0.289-1.133,0.289-1.68v-2.312c0-0.25-0.021-0.502-0.062-0.758c0.229,0.026,0.458,0.039,0.688,0.039h2.25
			c-0.141-0.307-0.284-0.57-0.43-0.789C28.094,44.077,28.323,44.048,28.562,44.012z M26.531,48.574
			c0.182,0.021,0.367,0.031,0.555,0.031h2.758c0.26,0,0.521-0.01,0.781-0.031c-0.391,0.594-0.779,1.065-1.164,1.414
			c-0.109,0.094-0.229,0.188-0.359,0.281c0.031,0.011,0.06,0.021,0.086,0.031c0.594,0.234,1.362,0.396,2.305,0.484
			c-0.188,0.234-0.323,0.442-0.406,0.625c-0.958-0.183-1.732-0.422-2.32-0.719c-0.068-0.037-0.13-0.07-0.188-0.102
			c-0.25,0.13-0.519,0.247-0.805,0.352c-0.62,0.208-1.172,0.354-1.656,0.438c-0.094-0.224-0.248-0.422-0.461-0.594
			c0.708-0.062,1.305-0.167,1.789-0.312c0.208-0.062,0.403-0.135,0.586-0.219c-0.349-0.245-0.685-0.536-1.008-0.875
			c0.203-0.083,0.372-0.188,0.508-0.312c0.286,0.365,0.63,0.667,1.031,0.906c0.057-0.031,0.109-0.062,0.156-0.094
			c0.281-0.203,0.562-0.474,0.844-0.812h-2.477c-0.188,0-0.373,0.011-0.555,0.031c0.021-0.088,0.031-0.182,0.031-0.281
			C26.562,48.738,26.552,48.658,26.531,48.574z M27.875,46.848v0.758h1.617v-0.758H27.875z"/>
	</g>
	<g>
		<path class="st4" d="M246.259,91.715h-0.775v-5.741h3.974v0.688h-3.198v1.759h2.814v0.688h-2.814V91.715z"/>
		<path class="st4" d="M250.276,85.974h2.526c1.071,0,1.623,0.664,1.623,1.447c0,0.375-0.136,0.903-0.768,1.199
			c0.376,0.152,1.039,0.416,1.039,1.399c0,0.919-0.68,1.695-1.95,1.695h-2.471V85.974z M251.051,88.405h1.399
			c0.743,0,1.199-0.224,1.199-0.928c0-0.536-0.328-0.839-1.191-0.839h-1.407V88.405z M251.051,91.051h1.655
			c0.808,0,1.215-0.408,1.215-1.047c0-0.808-0.712-0.968-1.343-0.968h-1.527V91.051z"/>
		<path class="st4" d="M257.89,91.715h-0.752v-3.99h-1.311v-0.56c0.911-0.064,1.287-0.152,1.511-1.072h0.552V91.715z"/>
		<path class="st4" d="M263,85.7c0.312,0.037,0.622,0.055,0.93,0.055h2.969c0.317,0,0.63-0.018,0.938-0.055
			c-0.037,0.297-0.055,0.599-0.055,0.906v5.242c0,0.307,0.018,0.609,0.055,0.906c-0.172-0.016-0.287-0.023-0.344-0.023
			c-0.058,0-0.18,0.008-0.367,0.023c0.031-0.271,0.049-0.539,0.055-0.805h-3.523c0.005,0.271,0.025,0.539,0.062,0.805
			c-0.188-0.016-0.312-0.023-0.375-0.023s-0.178,0.008-0.344,0.023c0.041-0.297,0.062-0.599,0.062-0.906v-5.242
			C263.062,86.299,263.041,85.997,263,85.7z M263.656,87.606h3.523v-1.281h-3.523V87.606z M263.656,89.474h3.523V88.13h-3.523
			V89.474z M263.656,91.388h3.523v-1.375h-3.523V91.388z"/>
		<path class="st4" d="M269.867,87.224c0.13,0.026,0.255,0.039,0.375,0.039h0.789v-0.969c0-0.317-0.023-0.63-0.07-0.938
			c0.197,0.021,0.439,0.031,0.727,0.031c-0.068,0.146-0.102,0.333-0.102,0.562v1.312h0.688c0.13,0,0.258-0.013,0.383-0.039
			c-0.026,0.099-0.039,0.193-0.039,0.281c0,0.099,0.013,0.193,0.039,0.281c-0.125-0.021-0.253-0.031-0.383-0.031h-0.688v1.383
			c0.166-0.042,0.325-0.104,0.477-0.188c0.208,0.412,0.477,0.776,0.805,1.094c-0.193,0.021-0.401,0.094-0.625,0.219
			c-0.203-0.411-0.422-0.742-0.656-0.992v2.43c0,0.364,0.023,0.727,0.07,1.086c-0.12-0.021-0.234-0.031-0.344-0.031
			c-0.12,0-0.237,0.01-0.352,0.031c0.047-0.359,0.07-0.722,0.07-1.086v-2.68c-0.281,0.755-0.604,1.458-0.969,2.109
			c-0.109-0.281-0.258-0.51-0.445-0.688c0.333-0.396,0.609-0.856,0.828-1.383c0.177-0.391,0.336-0.825,0.477-1.305h-0.68
			c-0.12,0-0.245,0.011-0.375,0.031c0.021-0.088,0.031-0.182,0.031-0.281C269.898,87.417,269.887,87.323,269.867,87.224z
			 M273.242,89.388c0.13,0.052,0.359,0.112,0.688,0.18c-0.104,0.12-0.201,0.271-0.289,0.453c-0.256,0.604-0.448,1.023-0.578,1.258
			c-0.1,0.172-0.186,0.352-0.258,0.539c-0.178-0.114-0.396-0.198-0.656-0.25c0.25-0.213,0.502-0.604,0.758-1.172
			C273.083,89.995,273.195,89.659,273.242,89.388z M272.585,87.88c0.297,0.047,0.591,0.07,0.883,0.07h2.461
			c0.297,0,0.588-0.023,0.875-0.07c-0.016,0.109-0.023,0.214-0.023,0.312c0,0.109,0.008,0.214,0.023,0.312
			c-0.287-0.042-0.578-0.062-0.875-0.062h-1v3.75c0,0.177-0.089,0.302-0.266,0.375c-0.167,0.088-0.503,0.133-1.008,0.133
			c-0.011-0.261-0.084-0.49-0.219-0.688c0.275,0.042,0.494,0.062,0.656,0.062c0.156,0,0.239-0.065,0.25-0.195v-3.438h-0.875
			c-0.292,0-0.586,0.021-0.883,0.062c0.021-0.099,0.031-0.203,0.031-0.312C272.617,88.094,272.606,87.989,272.585,87.88z
			 M272.929,85.95c0.297,0.042,0.588,0.062,0.875,0.062h1.633c0.286,0,0.578-0.021,0.875-0.062
			c-0.026,0.099-0.039,0.203-0.039,0.312c0,0.099,0.013,0.201,0.039,0.305c-0.297-0.042-0.589-0.062-0.875-0.062h-1.633
			c-0.287,0-0.578,0.021-0.875,0.062c0.021-0.104,0.031-0.206,0.031-0.305C272.96,86.153,272.95,86.049,272.929,85.95z
			 M275.835,89.294c0.052,0.12,0.148,0.292,0.289,0.516c0.229,0.391,0.419,0.74,0.57,1.047c0.104,0.203,0.205,0.398,0.305,0.586
			c-0.146,0.047-0.344,0.151-0.594,0.312c-0.073-0.26-0.209-0.596-0.406-1.008c-0.225-0.453-0.453-0.833-0.688-1.141
			C275.52,89.518,275.695,89.414,275.835,89.294z"/>
		<path class="st4" d="M281.093,85.474c0.203,0.058,0.439,0.089,0.711,0.094c-0.058,0.136-0.086,0.312-0.086,0.531v3.75h1.688
			c0.286,0,0.575-0.021,0.867-0.062c-0.021,0.109-0.031,0.214-0.031,0.312c0,0.109,0.01,0.214,0.031,0.312
			c-0.292-0.036-0.581-0.055-0.867-0.055h-1.688v1.43h2.406c0.297,0,0.599-0.018,0.906-0.055c-0.021,0.109-0.031,0.224-0.031,0.344
			c0,0.099,0.01,0.203,0.031,0.312c-0.308-0.042-0.609-0.062-0.906-0.062h-5.258c-0.297,0-0.6,0.021-0.906,0.062
			c0.025-0.109,0.039-0.214,0.039-0.312c0-0.12-0.014-0.234-0.039-0.344c0.307,0.037,0.609,0.055,0.906,0.055h2.281v-1.43h-1.68
			c-0.292,0-0.586,0.019-0.883,0.055c0.021-0.099,0.031-0.203,0.031-0.312c0-0.099-0.011-0.203-0.031-0.312
			c0.297,0.042,0.591,0.062,0.883,0.062h1.68v-3.75C281.148,85.891,281.129,85.682,281.093,85.474z M279.554,85.786
			c0.234,0.099,0.463,0.164,0.688,0.195c-0.084,0.109-0.203,0.354-0.359,0.734c-0.053,0.162-0.104,0.31-0.156,0.445
			c0.359,0.354,0.783,0.781,1.273,1.281c-0.156,0.104-0.315,0.24-0.477,0.406c-0.151-0.271-0.477-0.69-0.977-1.258
			c-0.078,0.183-0.162,0.354-0.25,0.516c-0.229,0.422-0.477,0.818-0.742,1.188c-0.146-0.13-0.344-0.234-0.594-0.312
			c0.349-0.38,0.658-0.825,0.93-1.336C279.129,87.198,279.351,86.578,279.554,85.786z M283.273,85.849
			c0.234,0.099,0.463,0.164,0.688,0.195c-0.078,0.104-0.193,0.336-0.344,0.695c-0.068,0.193-0.133,0.373-0.195,0.539
			c0.432,0.323,0.935,0.722,1.508,1.195c-0.162,0.115-0.326,0.263-0.492,0.445c-0.183-0.266-0.581-0.674-1.195-1.227
			c-0.062,0.136-0.125,0.263-0.188,0.383c-0.225,0.401-0.461,0.773-0.711,1.117c-0.151-0.125-0.35-0.229-0.594-0.312
			c0.328-0.354,0.625-0.776,0.891-1.266C282.869,87.188,283.08,86.599,283.273,85.849z"/>
		<path class="st4" d="M285.867,87.224c0.13,0.026,0.255,0.039,0.375,0.039h0.789v-0.969c0-0.317-0.023-0.63-0.07-0.938
			c0.197,0.021,0.439,0.031,0.727,0.031c-0.068,0.146-0.102,0.333-0.102,0.562v1.312h0.688c0.13,0,0.258-0.013,0.383-0.039
			c-0.026,0.099-0.039,0.193-0.039,0.281c0,0.099,0.013,0.193,0.039,0.281c-0.125-0.021-0.253-0.031-0.383-0.031h-0.688v1.383
			c0.166-0.042,0.325-0.104,0.477-0.188c0.208,0.412,0.477,0.776,0.805,1.094c-0.193,0.021-0.401,0.094-0.625,0.219
			c-0.203-0.411-0.422-0.742-0.656-0.992v2.43c0,0.364,0.023,0.727,0.07,1.086c-0.12-0.021-0.234-0.031-0.344-0.031
			c-0.12,0-0.237,0.01-0.352,0.031c0.047-0.359,0.07-0.722,0.07-1.086v-2.68c-0.281,0.755-0.604,1.458-0.969,2.109
			c-0.109-0.281-0.258-0.51-0.445-0.688c0.333-0.396,0.609-0.856,0.828-1.383c0.177-0.391,0.336-0.825,0.477-1.305h-0.68
			c-0.12,0-0.245,0.011-0.375,0.031c0.021-0.088,0.031-0.182,0.031-0.281C285.898,87.417,285.887,87.323,285.867,87.224z
			 M289.242,89.388c0.13,0.052,0.359,0.112,0.688,0.18c-0.104,0.12-0.201,0.271-0.289,0.453c-0.256,0.604-0.448,1.023-0.578,1.258
			c-0.1,0.172-0.186,0.352-0.258,0.539c-0.178-0.114-0.396-0.198-0.656-0.25c0.25-0.213,0.502-0.604,0.758-1.172
			C289.083,89.995,289.195,89.659,289.242,89.388z M288.585,87.88c0.297,0.047,0.591,0.07,0.883,0.07h2.461
			c0.297,0,0.588-0.023,0.875-0.07c-0.016,0.109-0.023,0.214-0.023,0.312c0,0.109,0.008,0.214,0.023,0.312
			c-0.287-0.042-0.578-0.062-0.875-0.062h-1v3.75c0,0.177-0.089,0.302-0.266,0.375c-0.167,0.088-0.503,0.133-1.008,0.133
			c-0.011-0.261-0.084-0.49-0.219-0.688c0.275,0.042,0.494,0.062,0.656,0.062c0.156,0,0.239-0.065,0.25-0.195v-3.438h-0.875
			c-0.292,0-0.586,0.021-0.883,0.062c0.021-0.099,0.031-0.203,0.031-0.312C288.617,88.094,288.606,87.989,288.585,87.88z
			 M288.929,85.95c0.297,0.042,0.588,0.062,0.875,0.062h1.633c0.286,0,0.578-0.021,0.875-0.062
			c-0.026,0.099-0.039,0.203-0.039,0.312c0,0.099,0.013,0.201,0.039,0.305c-0.297-0.042-0.589-0.062-0.875-0.062h-1.633
			c-0.287,0-0.578,0.021-0.875,0.062c0.021-0.104,0.031-0.206,0.031-0.305C288.96,86.153,288.95,86.049,288.929,85.95z
			 M291.835,89.294c0.052,0.12,0.148,0.292,0.289,0.516c0.229,0.391,0.419,0.74,0.57,1.047c0.104,0.203,0.205,0.398,0.305,0.586
			c-0.146,0.047-0.344,0.151-0.594,0.312c-0.073-0.26-0.209-0.596-0.406-1.008c-0.225-0.453-0.453-0.833-0.688-1.141
			C291.52,89.518,291.695,89.414,291.835,89.294z"/>
	</g>
	<g>
		<path class="st4" d="M337.625,91.715h-0.775v-5.741h3.974v0.688h-3.198v1.759h2.814v0.688h-2.814V91.715z"/>
		<path class="st4" d="M341.642,85.974h2.526c1.071,0,1.623,0.664,1.623,1.447c0,0.375-0.136,0.903-0.768,1.199
			c0.376,0.152,1.039,0.416,1.039,1.399c0,0.919-0.68,1.695-1.95,1.695h-2.471V85.974z M342.417,88.405h1.399
			c0.743,0,1.199-0.224,1.199-0.928c0-0.536-0.328-0.839-1.191-0.839h-1.407V88.405z M342.417,91.051h1.655
			c0.808,0,1.215-0.408,1.215-1.047c0-0.808-0.712-0.968-1.343-0.968h-1.527V91.051z"/>
		<path class="st4" d="M346.738,88.109c0-1.831,1.335-2.015,1.943-2.015c0.975,0,1.759,0.632,1.759,1.679
			c0,1.007-0.664,1.431-1.503,1.879l-0.584,0.32c-0.768,0.424-0.936,0.864-0.968,1.08h3.055v0.664h-3.846
			c0.04-1.167,0.567-1.791,1.319-2.231l0.743-0.432c0.6-0.344,1.031-0.576,1.031-1.311c0-0.448-0.288-1.016-1.111-1.016
			c-1.063,0-1.111,0.992-1.135,1.383H346.738z"/>
		<path class="st4" d="M354.366,85.7c0.312,0.037,0.622,0.055,0.93,0.055h2.969c0.317,0,0.63-0.018,0.938-0.055
			c-0.037,0.297-0.055,0.599-0.055,0.906v5.242c0,0.307,0.018,0.609,0.055,0.906c-0.172-0.016-0.287-0.023-0.344-0.023
			c-0.058,0-0.18,0.008-0.367,0.023c0.031-0.271,0.049-0.539,0.055-0.805h-3.523c0.005,0.271,0.025,0.539,0.062,0.805
			c-0.188-0.016-0.312-0.023-0.375-0.023s-0.178,0.008-0.344,0.023c0.041-0.297,0.062-0.599,0.062-0.906v-5.242
			C354.428,86.299,354.407,85.997,354.366,85.7z M355.022,87.606h3.523v-1.281h-3.523V87.606z M355.022,89.474h3.523V88.13h-3.523
			V89.474z M355.022,91.388h3.523v-1.375h-3.523V91.388z"/>
		<path class="st4" d="M361.233,87.224c0.13,0.026,0.255,0.039,0.375,0.039h0.789v-0.969c0-0.317-0.023-0.63-0.07-0.938
			c0.197,0.021,0.439,0.031,0.727,0.031c-0.068,0.146-0.102,0.333-0.102,0.562v1.312h0.688c0.13,0,0.258-0.013,0.383-0.039
			c-0.026,0.099-0.039,0.193-0.039,0.281c0,0.099,0.013,0.193,0.039,0.281c-0.125-0.021-0.253-0.031-0.383-0.031h-0.688v1.383
			c0.166-0.042,0.325-0.104,0.477-0.188c0.208,0.412,0.477,0.776,0.805,1.094c-0.193,0.021-0.401,0.094-0.625,0.219
			c-0.203-0.411-0.422-0.742-0.656-0.992v2.43c0,0.364,0.023,0.727,0.07,1.086c-0.12-0.021-0.234-0.031-0.344-0.031
			c-0.12,0-0.237,0.01-0.352,0.031c0.047-0.359,0.07-0.722,0.07-1.086v-2.68c-0.281,0.755-0.604,1.458-0.969,2.109
			c-0.109-0.281-0.258-0.51-0.445-0.688c0.333-0.396,0.609-0.856,0.828-1.383c0.177-0.391,0.336-0.825,0.477-1.305h-0.68
			c-0.12,0-0.245,0.011-0.375,0.031c0.021-0.088,0.031-0.182,0.031-0.281C361.264,87.417,361.253,87.323,361.233,87.224z
			 M364.608,89.388c0.13,0.052,0.359,0.112,0.688,0.18c-0.104,0.12-0.201,0.271-0.289,0.453c-0.256,0.604-0.448,1.023-0.578,1.258
			c-0.1,0.172-0.186,0.352-0.258,0.539c-0.178-0.114-0.396-0.198-0.656-0.25c0.25-0.213,0.502-0.604,0.758-1.172
			C364.449,89.995,364.561,89.659,364.608,89.388z M363.952,87.88c0.297,0.047,0.591,0.07,0.883,0.07h2.461
			c0.297,0,0.588-0.023,0.875-0.07c-0.016,0.109-0.023,0.214-0.023,0.312c0,0.109,0.008,0.214,0.023,0.312
			c-0.287-0.042-0.578-0.062-0.875-0.062h-1v3.75c0,0.177-0.089,0.302-0.266,0.375c-0.167,0.088-0.503,0.133-1.008,0.133
			c-0.011-0.261-0.084-0.49-0.219-0.688c0.275,0.042,0.494,0.062,0.656,0.062c0.156,0,0.239-0.065,0.25-0.195v-3.438h-0.875
			c-0.292,0-0.586,0.021-0.883,0.062c0.021-0.099,0.031-0.203,0.031-0.312C363.983,88.094,363.972,87.989,363.952,87.88z
			 M364.295,85.95c0.297,0.042,0.588,0.062,0.875,0.062h1.633c0.286,0,0.578-0.021,0.875-0.062
			c-0.026,0.099-0.039,0.203-0.039,0.312c0,0.099,0.013,0.201,0.039,0.305c-0.297-0.042-0.589-0.062-0.875-0.062h-1.633
			c-0.287,0-0.578,0.021-0.875,0.062c0.021-0.104,0.031-0.206,0.031-0.305C364.327,86.153,364.316,86.049,364.295,85.95z
			 M367.202,89.294c0.052,0.12,0.148,0.292,0.289,0.516c0.229,0.391,0.419,0.74,0.57,1.047c0.104,0.203,0.205,0.398,0.305,0.586
			c-0.146,0.047-0.344,0.151-0.594,0.312c-0.073-0.26-0.209-0.596-0.406-1.008c-0.225-0.453-0.453-0.833-0.688-1.141
			C366.886,89.518,367.061,89.414,367.202,89.294z"/>
		<path class="st4" d="M372.459,85.474c0.203,0.058,0.439,0.089,0.711,0.094c-0.058,0.136-0.086,0.312-0.086,0.531v3.75h1.688
			c0.286,0,0.575-0.021,0.867-0.062c-0.021,0.109-0.031,0.214-0.031,0.312c0,0.109,0.01,0.214,0.031,0.312
			c-0.292-0.036-0.581-0.055-0.867-0.055h-1.688v1.43h2.406c0.297,0,0.599-0.018,0.906-0.055c-0.021,0.109-0.031,0.224-0.031,0.344
			c0,0.099,0.01,0.203,0.031,0.312c-0.308-0.042-0.609-0.062-0.906-0.062h-5.258c-0.297,0-0.6,0.021-0.906,0.062
			c0.025-0.109,0.039-0.214,0.039-0.312c0-0.12-0.014-0.234-0.039-0.344c0.307,0.037,0.609,0.055,0.906,0.055h2.281v-1.43h-1.68
			c-0.292,0-0.586,0.019-0.883,0.055c0.021-0.099,0.031-0.203,0.031-0.312c0-0.099-0.011-0.203-0.031-0.312
			c0.297,0.042,0.591,0.062,0.883,0.062h1.68v-3.75C372.514,85.891,372.496,85.682,372.459,85.474z M370.92,85.786
			c0.234,0.099,0.463,0.164,0.688,0.195c-0.084,0.109-0.203,0.354-0.359,0.734c-0.053,0.162-0.104,0.31-0.156,0.445
			c0.359,0.354,0.783,0.781,1.273,1.281c-0.156,0.104-0.315,0.24-0.477,0.406c-0.151-0.271-0.477-0.69-0.977-1.258
			c-0.078,0.183-0.162,0.354-0.25,0.516c-0.229,0.422-0.477,0.818-0.742,1.188c-0.146-0.13-0.344-0.234-0.594-0.312
			c0.349-0.38,0.658-0.825,0.93-1.336C370.496,87.198,370.717,86.578,370.92,85.786z M374.639,85.849
			c0.234,0.099,0.463,0.164,0.688,0.195c-0.078,0.104-0.193,0.336-0.344,0.695c-0.068,0.193-0.133,0.373-0.195,0.539
			c0.432,0.323,0.935,0.722,1.508,1.195c-0.162,0.115-0.326,0.263-0.492,0.445c-0.183-0.266-0.581-0.674-1.195-1.227
			c-0.062,0.136-0.125,0.263-0.188,0.383c-0.225,0.401-0.461,0.773-0.711,1.117c-0.151-0.125-0.35-0.229-0.594-0.312
			c0.328-0.354,0.625-0.776,0.891-1.266C374.235,87.188,374.446,86.599,374.639,85.849z"/>
		<path class="st4" d="M377.233,87.224c0.13,0.026,0.255,0.039,0.375,0.039h0.789v-0.969c0-0.317-0.023-0.63-0.07-0.938
			c0.197,0.021,0.439,0.031,0.727,0.031c-0.068,0.146-0.102,0.333-0.102,0.562v1.312h0.688c0.13,0,0.258-0.013,0.383-0.039
			c-0.026,0.099-0.039,0.193-0.039,0.281c0,0.099,0.013,0.193,0.039,0.281c-0.125-0.021-0.253-0.031-0.383-0.031h-0.688v1.383
			c0.166-0.042,0.325-0.104,0.477-0.188c0.208,0.412,0.477,0.776,0.805,1.094c-0.193,0.021-0.401,0.094-0.625,0.219
			c-0.203-0.411-0.422-0.742-0.656-0.992v2.43c0,0.364,0.023,0.727,0.07,1.086c-0.12-0.021-0.234-0.031-0.344-0.031
			c-0.12,0-0.237,0.01-0.352,0.031c0.047-0.359,0.07-0.722,0.07-1.086v-2.68c-0.281,0.755-0.604,1.458-0.969,2.109
			c-0.109-0.281-0.258-0.51-0.445-0.688c0.333-0.396,0.609-0.856,0.828-1.383c0.177-0.391,0.336-0.825,0.477-1.305h-0.68
			c-0.12,0-0.245,0.011-0.375,0.031c0.021-0.088,0.031-0.182,0.031-0.281C377.264,87.417,377.253,87.323,377.233,87.224z
			 M380.608,89.388c0.13,0.052,0.359,0.112,0.688,0.18c-0.104,0.12-0.201,0.271-0.289,0.453c-0.256,0.604-0.448,1.023-0.578,1.258
			c-0.1,0.172-0.186,0.352-0.258,0.539c-0.178-0.114-0.396-0.198-0.656-0.25c0.25-0.213,0.502-0.604,0.758-1.172
			C380.449,89.995,380.561,89.659,380.608,89.388z M379.952,87.88c0.297,0.047,0.591,0.07,0.883,0.07h2.461
			c0.297,0,0.588-0.023,0.875-0.07c-0.016,0.109-0.023,0.214-0.023,0.312c0,0.109,0.008,0.214,0.023,0.312
			c-0.287-0.042-0.578-0.062-0.875-0.062h-1v3.75c0,0.177-0.089,0.302-0.266,0.375c-0.167,0.088-0.503,0.133-1.008,0.133
			c-0.011-0.261-0.084-0.49-0.219-0.688c0.275,0.042,0.494,0.062,0.656,0.062c0.156,0,0.239-0.065,0.25-0.195v-3.438h-0.875
			c-0.292,0-0.586,0.021-0.883,0.062c0.021-0.099,0.031-0.203,0.031-0.312C379.983,88.094,379.972,87.989,379.952,87.88z
			 M380.295,85.95c0.297,0.042,0.588,0.062,0.875,0.062h1.633c0.286,0,0.578-0.021,0.875-0.062
			c-0.026,0.099-0.039,0.203-0.039,0.312c0,0.099,0.013,0.201,0.039,0.305c-0.297-0.042-0.589-0.062-0.875-0.062h-1.633
			c-0.287,0-0.578,0.021-0.875,0.062c0.021-0.104,0.031-0.206,0.031-0.305C380.327,86.153,380.316,86.049,380.295,85.95z
			 M383.202,89.294c0.052,0.12,0.148,0.292,0.289,0.516c0.229,0.391,0.419,0.74,0.57,1.047c0.104,0.203,0.205,0.398,0.305,0.586
			c-0.146,0.047-0.344,0.151-0.594,0.312c-0.073-0.26-0.209-0.596-0.406-1.008c-0.225-0.453-0.453-0.833-0.688-1.141
			C382.886,89.518,383.061,89.414,383.202,89.294z"/>
	</g>
	<g>
		<path class="st4" d="M90.676,6.757v-3.39c0-0.168,0.016-0.896,0.016-1.431h-0.016l-1.615,4.821h-0.768l-1.615-4.813h-0.016
			c0,0.528,0.016,1.255,0.016,1.423v3.39h-0.752V1.017h1.112l1.639,4.853h0.016l1.631-4.853h1.103v5.741H90.676z"/>
		<path class="st4" d="M96.645,2.744c-0.216-1.007-1.056-1.191-1.607-1.191c-1.04,0-1.879,0.768-1.879,2.279
			c0,1.351,0.479,2.391,1.903,2.391c0.504,0,1.375-0.24,1.639-1.575h0.751c-0.32,2.167-2.079,2.263-2.51,2.263
			c-1.304,0-2.583-0.848-2.583-3.054c0-1.767,1.008-2.99,2.679-2.99c1.479,0,2.247,0.919,2.359,1.879H96.645z"/>
		<path class="st4" d="M97.783,7.757v-0.4h4.446v0.4H97.783z"/>
		<path class="st4" d="M106.301,2.695c-0.04-0.887-0.776-1.167-1.423-1.167c-0.488,0-1.311,0.136-1.311,1.007
			c0,0.488,0.344,0.647,0.679,0.728l1.639,0.376c0.744,0.176,1.303,0.624,1.303,1.535c0,1.359-1.263,1.735-2.247,1.735
			c-1.063,0-1.479-0.32-1.735-0.552c-0.488-0.439-0.584-0.919-0.584-1.455h0.728c0,1.04,0.848,1.343,1.583,1.343
			c0.56,0,1.503-0.144,1.503-0.967c0-0.6-0.28-0.792-1.223-1.016l-1.175-0.272c-0.376-0.088-1.224-0.352-1.224-1.351
			c0-0.896,0.584-1.775,1.975-1.775c2.007,0,2.207,1.199,2.239,1.831H106.301z"/>
		<path class="st4" d="M108.95,3.159v2.719c0,0.328,0.28,0.328,0.424,0.328h0.248v0.552c-0.256,0.024-0.456,0.056-0.527,0.056
			c-0.696,0-0.848-0.392-0.848-0.896V3.159h-0.568V2.576h0.568V1.408h0.704v1.167h0.671v0.583H108.95z"/>
		<path class="st4" d="M112.014,2.456c1.335,0,1.943,1.127,1.943,2.207c0,1.079-0.607,2.207-1.943,2.207
			c-1.335,0-1.943-1.127-1.943-2.207C110.071,3.583,110.679,2.456,112.014,2.456z M112.014,6.262c1.007,0,1.215-1.04,1.215-1.599
			c0-0.56-0.208-1.599-1.215-1.599s-1.215,1.039-1.215,1.599C110.798,5.222,111.006,6.262,112.014,6.262z"/>
		<path class="st4" d="M114.703,2.576h0.664v0.592h0.016c0.168-0.24,0.487-0.712,1.247-0.712c1.111,0,1.743,0.912,1.743,2.087
			c0,1-0.416,2.335-1.839,2.335c-0.56,0-0.928-0.264-1.111-0.56h-0.016v2.095h-0.704V2.576z M116.518,6.27
			c0.768,0,1.127-0.695,1.127-1.615c0-0.536-0.056-1.567-1.144-1.567c-1.016,0-1.127,1.095-1.127,1.775
			C115.374,5.974,116.07,6.27,116.518,6.27z"/>
		<path class="st4" d="M125.218,0.399c0.104,0.266,0.219,0.555,0.344,0.867H127c0.286,0,0.578-0.01,0.875-0.031
			c-0.026,0.146-0.039,0.294-0.039,0.445v1.461c0,0.151,0.013,0.297,0.039,0.438c-0.297-0.021-0.589-0.031-0.875-0.031h-4v0.031
			c0,0.562-0.112,1.229-0.336,2c-0.198,0.745-0.534,1.456-1.008,2.133c-0.156-0.172-0.357-0.308-0.602-0.406
			c0.474-0.614,0.805-1.239,0.992-1.875c0.213-0.708,0.32-1.325,0.32-1.852v-1.75c0-0.198-0.008-0.396-0.023-0.594
			c0.286,0.021,0.578,0.031,0.875,0.031h1.68c-0.136-0.302-0.271-0.562-0.406-0.781C124.726,0.464,124.968,0.436,125.218,0.399z
			 M127.218,1.797H123v1.227h4.219V1.797z M123.429,4.516c0.317,0.042,0.63,0.062,0.938,0.062H127c0.307,0,0.62-0.021,0.938-0.062
			c-0.042,0.281-0.062,0.565-0.062,0.852v1.523c0,0.307,0.021,0.609,0.062,0.906c-0.172-0.016-0.287-0.023-0.344-0.023
			c-0.068,0-0.193,0.008-0.375,0.023c0.026-0.203,0.044-0.401,0.055-0.594h-3.18c0.01,0.198,0.028,0.396,0.055,0.594
			c-0.183-0.016-0.308-0.023-0.375-0.023c-0.058,0-0.172,0.008-0.344,0.023c0.042-0.297,0.062-0.599,0.062-0.906V5.368
			C123.492,5.082,123.471,4.797,123.429,4.516z M124.085,6.68h3.195V5.118h-3.195V6.68z"/>
		<path class="st4" d="M129.343,2.961c0.297,0.042,0.599,0.062,0.906,0.062h1.555c0.307,0,0.609-0.021,0.906-0.062
			c-0.016,0.109-0.023,0.224-0.023,0.344c0,0.099,0.008,0.201,0.023,0.305c-0.297-0.042-0.599-0.062-0.906-0.062h-0.398
			l-1.156,2.375c0.604-0.125,1.203-0.219,1.797-0.281c-0.151-0.312-0.302-0.573-0.453-0.781c0.188-0.073,0.341-0.167,0.461-0.281
			c0.042,0.099,0.114,0.237,0.219,0.414c0.172,0.302,0.315,0.573,0.43,0.812c0.078,0.167,0.156,0.32,0.234,0.461
			c-0.13,0.042-0.31,0.136-0.539,0.281c-0.026-0.109-0.065-0.231-0.117-0.367c-1.188,0.026-2.073,0.183-2.656,0.469
			c-0.109-0.266-0.214-0.484-0.312-0.656c0.266-0.192,0.453-0.375,0.562-0.547c0.13-0.177,0.417-0.81,0.859-1.898h-0.484
			c-0.308,0-0.609,0.021-0.906,0.062c0.016-0.104,0.023-0.206,0.023-0.305C129.367,3.186,129.359,3.071,129.343,2.961z
			 M129.71,1.235c0.13,0.021,0.255,0.031,0.375,0.031h2.164c0.12,0,0.245-0.01,0.375-0.031c-0.021,0.099-0.031,0.193-0.031,0.281
			c0,0.109,0.01,0.214,0.031,0.312c-0.13-0.021-0.255-0.031-0.375-0.031h-2.164c-0.12,0-0.245,0.011-0.375,0.031
			c0.021-0.099,0.031-0.203,0.031-0.312C129.742,1.428,129.731,1.334,129.71,1.235z M132.46,2.235c0.276,0.047,0.549,0.07,0.82,0.07
			h0.523V1.711c0-0.406-0.031-0.833-0.094-1.281c0.234,0.016,0.484,0.023,0.75,0.023c-0.078,0.245-0.117,0.555-0.117,0.93v0.922
			h1.219c0.25,0,0.5-0.013,0.75-0.039c-0.094,0.24-0.148,0.492-0.164,0.758l-0.18,3.836c-0.021,0.302-0.203,0.502-0.547,0.602
			c-0.386,0.109-0.716,0.172-0.992,0.188c0-0.25-0.083-0.458-0.25-0.625h0.445c0.312,0,0.531-0.057,0.656-0.172
			c0.078-0.083,0.117-0.174,0.117-0.273l0.195-3.75h-1.258c-0.037,1.312-0.167,2.269-0.391,2.867c-0.25,0.818-0.849,1.5-1.797,2.047
			c-0.125-0.214-0.31-0.394-0.555-0.539c0.87-0.354,1.43-0.817,1.68-1.391c0.338-0.713,0.516-1.708,0.531-2.984h-0.523
			c-0.271,0-0.544,0.021-0.82,0.062c0.021-0.109,0.031-0.224,0.031-0.344C132.492,2.449,132.481,2.344,132.46,2.235z"/>
	</g>
	<g>
		<path class="st5" d="M67.149,90.103c0.203,0.078,0.453,0.159,0.75,0.242c-0.078,0.151-0.148,0.359-0.211,0.625
			c-0.067,0.37-0.128,0.714-0.18,1.031h0.867c0.261,0,0.519-0.021,0.773-0.062c-0.036,0.198-0.075,0.396-0.117,0.594
			c-0.224,1.453-0.508,2.469-0.852,3.047c0.453,0.302,0.88,0.612,1.281,0.93c-0.188,0.141-0.331,0.294-0.43,0.461
			c-0.364-0.359-0.734-0.685-1.109-0.977c-0.401,0.578-1.011,1.122-1.828,1.633c-0.136-0.203-0.305-0.357-0.508-0.461
			c0.817-0.427,1.442-0.909,1.875-1.445c0.005-0.01,0.011-0.018,0.016-0.023c-0.323-0.203-0.711-0.422-1.164-0.656
			c0.25-0.906,0.422-1.617,0.516-2.133c0.021-0.12,0.042-0.245,0.062-0.375h-0.398c-0.266,0-0.534,0.021-0.805,0.062
			c0.021-0.109,0.031-0.224,0.031-0.344c0-0.099-0.011-0.203-0.031-0.312c0.271,0.042,0.539,0.062,0.805,0.062h0.477
			C67.037,91.45,67.098,90.817,67.149,90.103z M67.735,95.291c0.339-0.62,0.591-1.539,0.758-2.758h-1.078
			c-0.177,0.958-0.339,1.722-0.484,2.289C67.212,94.978,67.48,95.134,67.735,95.291z M69.618,91.189
			c0.308,0.042,0.609,0.062,0.906,0.062h1.062c0.308,0,0.609-0.021,0.906-0.062c-0.036,0.281-0.055,0.565-0.055,0.852v4.18
			c0,0.292,0.019,0.586,0.055,0.883c-0.172-0.021-0.286-0.031-0.344-0.031c-0.052,0-0.167,0.01-0.344,0.031
			c0.031-0.214,0.05-0.422,0.055-0.625h-1.609c0.005,0.229,0.026,0.458,0.062,0.688c-0.172-0.021-0.286-0.031-0.344-0.031
			c-0.062,0-0.18,0.01-0.352,0.031c0.047-0.292,0.07-0.586,0.07-0.883v-4.242C69.688,91.754,69.665,91.47,69.618,91.189z
			 M70.243,95.939h1.625v-4.148h-1.625V95.939z"/>
		<path class="st5" d="M73.657,91.041c0.302,0.042,0.602,0.062,0.898,0.062h1.758c0.151-0.349,0.276-0.703,0.375-1.062
			c0.188,0.12,0.396,0.211,0.625,0.273c-0.109,0.146-0.239,0.357-0.391,0.633c-0.021,0.058-0.044,0.109-0.07,0.156h2.898
			c0.297,0,0.599-0.021,0.906-0.062c-0.026,0.109-0.039,0.224-0.039,0.344c0,0.099,0.013,0.203,0.039,0.312
			c-0.308-0.047-0.609-0.07-0.906-0.07h-3.148c-0.177,0.365-0.356,0.695-0.539,0.992c0.136,0.005,0.269,0.008,0.398,0.008h2.375
			c0.261,0,0.521-0.01,0.781-0.031c-0.021,0.219-0.031,0.438-0.031,0.656v3.602c0,0.281-0.075,0.461-0.227,0.539
			c-0.229,0.114-0.558,0.172-0.984,0.172c-0.021-0.234-0.104-0.443-0.25-0.625c0.37,0.021,0.589,0.031,0.656,0.031
			c0.146,0,0.219-0.091,0.219-0.273v-0.938h-3.102v0.586c0,0.385,0.023,0.773,0.07,1.164c-0.125-0.021-0.253-0.031-0.383-0.031
			c-0.109,0-0.224,0.01-0.344,0.031c0.047-0.391,0.07-0.779,0.07-1.164v-2.688c-0.359,0.433-0.831,0.87-1.414,1.312
			c-0.099-0.156-0.263-0.302-0.492-0.438c0.526-0.276,0.992-0.643,1.398-1.102c0.391-0.401,0.763-0.924,1.117-1.57
			c0.047-0.073,0.091-0.151,0.133-0.234h-1.5c-0.297,0-0.597,0.023-0.898,0.07c0.021-0.109,0.031-0.213,0.031-0.312
			C73.688,91.265,73.678,91.15,73.657,91.041z M75.899,93.97h3.102v-0.805h-2.539c-0.192,0-0.38,0.005-0.562,0.016V93.97z
			 M75.899,95.251h3.102v-0.773h-3.102V95.251z"/>
		<path class="st5" d="M81.868,90.533c0.25,0.021,0.5,0.031,0.75,0.031h3.789c0.328,0,0.661-0.01,1-0.031
			c-0.021,0.328-0.031,0.654-0.031,0.977v1.68c0,0.339,0.011,0.672,0.031,1c-0.12-0.016-0.234-0.023-0.344-0.023
			c-0.13,0-0.255,0.008-0.375,0.023c0.016-0.213,0.023-0.422,0.023-0.625h-3.812v2.688c0,0.208,0.083,0.312,0.25,0.312h3.75
			c0.297,0,0.505-0.083,0.625-0.25c0.13-0.141,0.195-0.523,0.195-1.148c0.146,0.188,0.375,0.32,0.688,0.398
			c-0.073,0.568-0.18,0.964-0.32,1.188c-0.183,0.292-0.523,0.438-1.023,0.438h-4.195c-0.406,0-0.614-0.154-0.625-0.461V92.97
			c0-0.219-0.021-0.438-0.062-0.656c0.261,0.047,0.523,0.07,0.789,0.07c-0.047,0.115-0.07,0.25-0.07,0.406v0.18h3.82v-1.805h-4.102
			c-0.25,0-0.5,0.008-0.75,0.023c0.021-0.109,0.031-0.221,0.031-0.336C81.899,90.749,81.889,90.642,81.868,90.533z"/>
		<path class="st5" d="M92.001,95.533c-0.021,0.099-0.031,0.195-0.031,0.289c0,0.083,0.011,0.177,0.031,0.281
			c-0.823,0.125-1.604,0.279-2.344,0.461c-0.042-0.229-0.114-0.448-0.219-0.656C90.376,95.851,91.23,95.726,92.001,95.533z
			 M90.751,90.251c0.177,0.136,0.425,0.25,0.742,0.344c-0.161,0.125-0.31,0.312-0.445,0.562c-0.203,0.417-0.511,0.886-0.922,1.406
			l1.227-0.148c0.198-0.344,0.32-0.606,0.367-0.789l0.656,0.414c-0.183,0.104-0.383,0.318-0.602,0.641
			c-0.656,0.958-1.112,1.568-1.367,1.828l1.398-0.258c-0.016,0.177-0.023,0.357-0.023,0.539c-0.823,0.073-1.521,0.188-2.094,0.344
			l-0.133-0.688c0.317-0.114,0.565-0.286,0.742-0.516c0.328-0.427,0.591-0.789,0.789-1.086c-0.656,0.094-1.133,0.201-1.43,0.32
			c-0.026-0.25-0.081-0.479-0.164-0.688c0.239-0.088,0.45-0.305,0.633-0.648C90.345,91.47,90.553,90.944,90.751,90.251z
			 M95.438,91.166c0.25,0.141,0.469,0.234,0.656,0.281c-0.234,0.198-0.5,0.56-0.797,1.086h0.047c0.292,0,0.581-0.018,0.867-0.055
			c-0.021,0.099-0.031,0.203-0.031,0.312c0,0.099,0.011,0.203,0.031,0.312c-0.286-0.042-0.575-0.062-0.867-0.062h-1.195
			c-0.052,0.198-0.104,0.383-0.156,0.555h1.625c0.297,0,0.589-0.021,0.875-0.062c-0.021,0.109-0.031,0.216-0.031,0.32
			c0,0.099,0.011,0.203,0.031,0.312c-0.286-0.042-0.578-0.062-0.875-0.062h-1.797c-0.067,0.188-0.141,0.362-0.219,0.523h1.578
			c0.349,0,0.692-0.01,1.031-0.031c-0.479,0.771-0.911,1.339-1.297,1.703c0.464,0.24,1.021,0.425,1.672,0.555
			c-0.208,0.151-0.372,0.349-0.492,0.594c-0.661-0.219-1.203-0.474-1.625-0.766c-0.375,0.271-0.93,0.547-1.664,0.828
			c-0.146-0.224-0.31-0.394-0.492-0.508c0.63-0.125,1.156-0.331,1.578-0.617c0.036-0.026,0.075-0.049,0.117-0.07
			c-0.312-0.281-0.57-0.596-0.773-0.945c-0.036,0.062-0.073,0.12-0.109,0.172c-0.406,0.641-0.95,1.211-1.633,1.711
			c-0.067-0.188-0.183-0.352-0.344-0.492c0.589-0.297,1.099-0.786,1.531-1.469c0.198-0.338,0.38-0.734,0.547-1.188h-0.328
			c-0.292,0-0.581,0.021-0.867,0.062c0.021-0.109,0.031-0.213,0.031-0.312c0-0.104-0.011-0.211-0.031-0.32
			c0.286,0.042,0.575,0.062,0.867,0.062h0.508c0.062-0.182,0.12-0.367,0.172-0.555h-0.367c-0.286,0-0.575,0.021-0.867,0.062
			c0.021-0.109,0.031-0.213,0.031-0.312c0-0.109-0.011-0.213-0.031-0.312c0.292,0.037,0.581,0.055,0.867,0.055h1.672
			C95.139,92.048,95.324,91.593,95.438,91.166z M95.931,90.876c-0.183,0-1.378,0.146-3.586,0.438
			c-0.067-0.208-0.172-0.414-0.312-0.617c0.25,0.021,0.573,0.031,0.969,0.031c1.245-0.083,2.245-0.242,3-0.477
			c0.114,0.276,0.25,0.495,0.406,0.656C96.24,90.887,96.082,90.876,95.931,90.876z M93.032,91.509l0.375,0.773
			c-0.192,0.021-0.372,0.055-0.539,0.102c-0.083-0.328-0.188-0.591-0.312-0.789C92.701,91.59,92.86,91.562,93.032,91.509z
			 M93.743,95.103c0.192,0.375,0.419,0.667,0.68,0.875c0.245-0.224,0.497-0.516,0.758-0.875H93.743z M94.243,91.345l0.344,0.844
			c-0.188,0.021-0.362,0.052-0.523,0.094c-0.083-0.344-0.177-0.622-0.281-0.836C93.923,91.442,94.076,91.408,94.243,91.345z"/>
		<path class="st5" d="M98.837,93.103c0.146,0.115,0.336,0.229,0.57,0.344c-0.386,1.219-0.7,2.383-0.945,3.492
			c-0.255-0.188-0.481-0.323-0.68-0.406C98.126,95.804,98.478,94.661,98.837,93.103z M98.618,90.697
			c0.239,0.526,0.552,1.065,0.938,1.617c-0.208,0.052-0.403,0.156-0.586,0.312c-0.271-0.63-0.573-1.182-0.906-1.656
			C98.287,90.913,98.473,90.822,98.618,90.697z M99.931,91.478c0.317,0.037,0.63,0.055,0.938,0.055h0.969v-0.461
			c0-0.338-0.019-0.672-0.055-1c0.208,0.021,0.456,0.031,0.742,0.031c-0.058,0.151-0.086,0.349-0.086,0.594v0.836h1.023
			c0.312,0,0.628-0.018,0.945-0.055c-0.042,0.276-0.062,0.555-0.062,0.836v2.477c0,0.297,0.021,0.599,0.062,0.906
			c-0.177-0.026-0.292-0.039-0.344-0.039c-0.062,0-0.188,0.013-0.375,0.039c0.036-0.281,0.058-0.555,0.062-0.82h-1.312v1.602
			c0,0.385,0.019,0.768,0.055,1.148c-0.12-0.021-0.242-0.031-0.367-0.031c-0.12,0-0.234,0.01-0.344,0.031
			c0.036-0.38,0.055-0.763,0.055-1.148v-1.602h-1.25c0.005,0.281,0.028,0.565,0.07,0.852c-0.188-0.021-0.315-0.031-0.383-0.031
			c-0.058,0-0.172,0.011-0.344,0.031c0.047-0.307,0.07-0.609,0.07-0.906v-2.508C100.001,92.033,99.978,91.754,99.931,91.478z
			 M100.587,94.345h1.25v-2.273h-1.25V94.345z M102.438,92.072v2.273h1.312v-2.273H102.438z"/>
		<path class="st5" d="M106.931,90.166c0.192,0.083,0.435,0.133,0.727,0.148c-0.146,0.276-0.292,0.714-0.438,1.312h0.617
			c0.281,0,0.565-0.021,0.852-0.062c-0.047,0.271-0.07,0.544-0.07,0.82v4.125c0,0.266,0.023,0.534,0.07,0.805
			c-0.156-0.021-0.261-0.031-0.312-0.031c-0.062,0-0.177,0.01-0.344,0.031c0.042-0.271,0.062-0.539,0.062-0.805h-1.656v0.023
			c0,0.271,0.019,0.542,0.055,0.812c-0.172-0.021-0.286-0.031-0.344-0.031c-0.047,0-0.151,0.01-0.312,0.031
			c0.042-0.271,0.062-0.542,0.062-0.812v-4.148c0-0.276-0.021-0.549-0.062-0.82c0.281,0.042,0.565,0.062,0.852,0.062h0.023
			C106.779,91.226,106.853,90.739,106.931,90.166z M106.438,93.853h1.656v-1.719h-1.656V93.853z M106.438,96.001h1.656v-1.688
			h-1.656V96.001z M110.149,90.134c0.224,0.104,0.474,0.175,0.75,0.211c-0.125,0.172-0.292,0.472-0.5,0.898
			c-0.052,0.12-0.106,0.237-0.164,0.352h1.484c0.271,0,0.539-0.021,0.805-0.062c-0.062,0.198-0.102,0.417-0.117,0.656l-0.164,4.438
			c-0.036,0.37-0.237,0.609-0.602,0.719c-0.266,0.083-0.688,0.146-1.266,0.188c0-0.203-0.094-0.422-0.281-0.656
			c0.312,0.021,0.531,0.031,0.656,0.031c0.391,0,0.653-0.076,0.789-0.227c0.099-0.088,0.148-0.211,0.148-0.367l0.148-4.211h-1.828
			c-0.219,0.464-0.464,0.94-0.734,1.43c-0.177-0.141-0.383-0.234-0.617-0.281c0.317-0.338,0.633-0.838,0.945-1.5
			C109.759,91.46,109.941,90.921,110.149,90.134z M110.032,93.509c0.203,0.469,0.503,0.945,0.898,1.43
			c-0.177,0.099-0.352,0.234-0.523,0.406c-0.229-0.588-0.534-1.096-0.914-1.523C109.696,93.744,109.876,93.64,110.032,93.509z"/>
		<path class="st5" d="M118.728,91.369h-2.633v2.055h2.25v0.531h-2.25v2.711h-0.57v-5.82h3.203V91.369z"/>
		<path class="st5" d="M122.821,95.095c0,0.526-0.214,0.933-0.641,1.219c-0.344,0.234-0.753,0.352-1.227,0.352h-1.523v-5.82h1.438
			c0.5,0,0.903,0.097,1.211,0.289c0.401,0.25,0.602,0.641,0.602,1.172c0,0.287-0.081,0.547-0.242,0.781
			c-0.156,0.24-0.354,0.412-0.594,0.516c0.281,0.115,0.508,0.292,0.68,0.531C122.723,94.405,122.821,94.726,122.821,95.095z
			 M122.118,92.306c0-0.625-0.445-0.938-1.336-0.938h-0.781v2.016h0.773c0.396,0,0.719-0.099,0.969-0.297
			C121.993,92.895,122.118,92.634,122.118,92.306z M122.267,95.095c0-0.411-0.148-0.721-0.445-0.93
			c-0.25-0.177-0.567-0.266-0.953-0.266h-0.867v2.25h0.867c0.396,0,0.727-0.099,0.992-0.297
			C122.131,95.65,122.267,95.397,122.267,95.095z"/>
		<path class="st5" d="M125.587,96.626c0,0.438-0.2,0.81-0.602,1.117l-0.234-0.273c0.25-0.203,0.401-0.448,0.453-0.734h-0.531
			v-0.891h0.914V96.626z"/>
		<path class="st5" d="M133.438,91.791c0.177,0.042,0.406,0.062,0.688,0.062c-0.083,0.271-0.125,0.591-0.125,0.961v1.008
			c0,1.146-0.148,1.945-0.445,2.398s-0.815,0.862-1.555,1.227c-0.13-0.188-0.3-0.336-0.508-0.445
			c0.839-0.344,1.386-0.713,1.641-1.109c0.239-0.375,0.359-1.065,0.359-2.07v-0.758C133.493,92.689,133.475,92.265,133.438,91.791z
			 M132.095,90.697c0.297,0.042,0.599,0.062,0.906,0.062h1.461c0.302,0,0.606-0.021,0.914-0.062
			c-0.042,0.271-0.062,0.542-0.062,0.812v3.117c0,0.297,0.021,0.591,0.062,0.883c-0.172-0.021-0.286-0.031-0.344-0.031
			c-0.062,0-0.177,0.011-0.344,0.031c0.042-0.292,0.062-0.586,0.062-0.883v-3.375h-2.031v3.312c0,0.292,0.021,0.586,0.062,0.883
			c-0.177-0.021-0.292-0.031-0.344-0.031c-0.058,0-0.172,0.011-0.344,0.031c0.036-0.297,0.055-0.591,0.055-0.883v-3.055
			C132.149,91.239,132.131,90.968,132.095,90.697z M134.345,95.626c0.417,0.433,0.896,0.841,1.438,1.227
			c-0.136,0.073-0.292,0.237-0.469,0.492c-0.411-0.5-0.883-0.935-1.414-1.305C134.071,95.931,134.22,95.793,134.345,95.626z
			 M136.149,91.314c0.192,0.021,0.422,0.031,0.688,0.031c-0.058,0.141-0.086,0.318-0.086,0.531v2.945
			c0,0.339,0.019,0.683,0.055,1.031c-0.109-0.021-0.224-0.031-0.344-0.031c-0.099,0-0.203,0.011-0.312,0.031
			c0.042-0.349,0.062-0.692,0.062-1.031v-2.633C136.212,91.903,136.191,91.611,136.149,91.314z M137.556,90.189
			c0.219,0.042,0.448,0.062,0.688,0.062c-0.062,0.167-0.094,0.357-0.094,0.57v6c0,0.271-0.104,0.445-0.312,0.523
			c-0.208,0.088-0.511,0.133-0.906,0.133c-0.052-0.261-0.156-0.479-0.312-0.656h0.477c0.328,0,0.492-0.104,0.492-0.312v-5.781
			C137.587,90.551,137.576,90.372,137.556,90.189z"/>
		<path class="st5" d="M139.97,91.283c0.302,0.042,0.602,0.062,0.898,0.062h1.555c0.167-0.385,0.286-0.778,0.359-1.18
			c0.239,0.094,0.519,0.154,0.836,0.18c-0.146,0.177-0.3,0.44-0.461,0.789c-0.031,0.073-0.062,0.144-0.094,0.211h2.773
			c0.308,0,0.612-0.021,0.914-0.062c-0.021,0.12-0.031,0.234-0.031,0.344s0.011,0.214,0.031,0.312
			c-0.302-0.042-0.606-0.062-0.914-0.062h-3.023c-0.339,0.688-0.695,1.263-1.07,1.727c-0.042,0.052-0.083,0.104-0.125,0.156v2.688
			c0,0.359,0.023,0.721,0.07,1.086c-0.12-0.016-0.234-0.023-0.344-0.023c-0.12,0-0.234,0.008-0.344,0.023
			c0.042-0.365,0.062-0.727,0.062-1.086v-2.078c-0.302,0.292-0.646,0.586-1.031,0.883c-0.177-0.177-0.396-0.302-0.656-0.375
			c0.656-0.417,1.2-0.859,1.633-1.328c0.021-0.021,0.034-0.036,0.039-0.047c-0.011-0.156-0.026-0.31-0.047-0.461
			c0.12,0.016,0.255,0.023,0.406,0.023c0.255-0.328,0.474-0.656,0.656-0.984c0.036-0.073,0.073-0.141,0.109-0.203h-1.305
			c-0.297,0-0.597,0.021-0.898,0.062c0.021-0.099,0.031-0.203,0.031-0.312S139.99,91.403,139.97,91.283z M142.149,93.876
			c0.292,0.042,0.586,0.062,0.883,0.062h0.836v-0.867c0-0.208-0.021-0.417-0.062-0.625c0.208,0.052,0.448,0.081,0.719,0.086
			c-0.058,0.136-0.086,0.315-0.086,0.539v0.867h1.023c0.292,0,0.586-0.021,0.883-0.062c-0.021,0.109-0.031,0.214-0.031,0.312
			c0,0.104,0.011,0.211,0.031,0.32c-0.297-0.042-0.591-0.062-0.883-0.062h-1.023v2.031h1.312c0.297,0,0.599-0.021,0.906-0.062
			c-0.026,0.109-0.039,0.224-0.039,0.344c0,0.099,0.013,0.203,0.039,0.312c-0.308-0.047-0.609-0.07-0.906-0.07h-3
			c-0.302,0-0.606,0.023-0.914,0.07c0.021-0.109,0.031-0.214,0.031-0.312c0-0.12-0.011-0.234-0.031-0.344
			c0.308,0.042,0.612,0.062,0.914,0.062h1.117v-2.031h-0.836c-0.297,0-0.591,0.021-0.883,0.062c0.021-0.109,0.031-0.216,0.031-0.32
			C142.181,94.09,142.17,93.986,142.149,93.876z"/>
		<path class="st5" d="M147.97,91.384c0.12,0.021,0.245,0.031,0.375,0.031h0.867v-0.719c0-0.208-0.021-0.417-0.062-0.625
			c0.203,0.058,0.442,0.089,0.719,0.094c-0.058,0.13-0.086,0.308-0.086,0.531v0.719h0.711c0.13,0,0.255-0.01,0.375-0.031
			c-0.021,0.089-0.031,0.18-0.031,0.273c0,0.099,0.011,0.193,0.031,0.281c-0.12-0.021-0.245-0.031-0.375-0.031h-0.711v1h0.344
			c0.286,0,0.578-0.018,0.875-0.055c-0.011,0.062-0.019,0.128-0.023,0.195c0.302-0.135,0.536-0.31,0.703-0.523
			c0.192-0.229,0.323-0.703,0.391-1.422h-0.516c-0.151,0-0.305,0.011-0.461,0.031c0.021-0.099,0.031-0.192,0.031-0.281
			c0-0.094-0.011-0.19-0.031-0.289c0.156,0.021,0.31,0.031,0.461,0.031h2.062c0.208,0,0.417-0.01,0.625-0.031
			c-0.011,0.172-0.06,0.81-0.148,1.914c-0.036,0.375-0.141,0.609-0.312,0.703c-0.229,0.136-0.555,0.203-0.977,0.203
			c0-0.198-0.039-0.396-0.117-0.594c0.188,0.021,0.312,0.031,0.375,0.031c0.271,0,0.425-0.096,0.461-0.289l0.133-1.43h-1.086
			c-0.052,0.698-0.156,1.193-0.312,1.484c-0.109,0.271-0.364,0.537-0.766,0.797c-0.141-0.125-0.315-0.211-0.523-0.258v0.039
			c0,0.099,0.011,0.203,0.031,0.312c-0.297-0.042-0.589-0.062-0.875-0.062h-0.227v1.031h0.164c0.25,0,0.519-0.01,0.805-0.031
			c-0.021,0.099-0.031,0.193-0.031,0.281c0,0.115,0.011,0.216,0.031,0.305c-0.192-0.021-0.461-0.031-0.805-0.031h-0.164v1.305
			c0.281,0.146,0.586,0.242,0.914,0.289c0.333,0.042,0.753,0.062,1.258,0.062c0.906,0,1.8-0.049,2.68-0.148
			c-0.156,0.229-0.242,0.477-0.258,0.742h-2.109c-0.469,0-0.938-0.023-1.406-0.07c-0.604-0.058-1.086-0.193-1.445-0.406
			c-0.312-0.161-0.651-0.45-1.016-0.867c-0.156,0.573-0.352,1.075-0.586,1.508c-0.161-0.156-0.336-0.261-0.523-0.312
			c0.198-0.302,0.386-0.719,0.562-1.25c0.177-0.557,0.292-1.206,0.344-1.945c0.245,0.089,0.464,0.144,0.656,0.164
			c-0.062,0.183-0.159,0.576-0.289,1.18c0.255,0.297,0.477,0.523,0.664,0.68v-2.484h-0.727c-0.292,0-0.581,0.021-0.867,0.062
			c0.021-0.109,0.031-0.213,0.031-0.312c0-0.109-0.011-0.213-0.031-0.312c0.286,0.037,0.575,0.055,0.867,0.055h0.594v-1h-0.867
			c-0.13,0-0.255,0.011-0.375,0.031c0.021-0.088,0.031-0.182,0.031-0.281C148.001,91.564,147.99,91.473,147.97,91.384z
			 M151.181,93.564c0.328,0.021,0.651,0.031,0.969,0.031h1c0.328,0,0.653-0.01,0.977-0.031c-0.021,0.183-0.031,0.362-0.031,0.539
			v1.375c0,0.198,0.011,0.396,0.031,0.594c-0.323-0.021-0.648-0.031-0.977-0.031h-1c-0.317,0-0.641,0.011-0.969,0.031
			c0.021-0.198,0.031-0.396,0.031-0.594v-1.375C151.191,93.926,151.181,93.747,151.181,93.564z M153.524,95.533v-1.43h-1.742v1.43
			H153.524z"/>
		<path class="st5" d="M155.493,92.853c0.427,0.016,0.856,0.023,1.289,0.023c0.177,0,0.354-0.008,0.531-0.023
			c-0.026,0.224-0.039,0.451-0.039,0.68v2.328c0.058,0.021,0.117,0.047,0.18,0.078c0.901,0.479,2.083,0.719,3.547,0.719
			c0.349,0,0.942-0.06,1.781-0.18c-0.141,0.214-0.237,0.492-0.289,0.836h-1.219c-1.63,0-2.906-0.253-3.828-0.758
			c-0.214-0.114-0.362-0.172-0.445-0.172c-0.183,0-0.474,0.31-0.875,0.93c-0.172-0.224-0.383-0.398-0.633-0.523l0.859-0.734
			c0.104-0.094,0.206-0.164,0.305-0.211v-2.398c-0.386,0-0.773,0.011-1.164,0.031c0.021-0.109,0.031-0.213,0.031-0.312
			C155.524,93.056,155.514,92.952,155.493,92.853z M156.376,90.447c0.297,0.464,0.69,0.94,1.18,1.43
			c-0.229,0.052-0.448,0.167-0.656,0.344c-0.333-0.567-0.716-1.065-1.148-1.492C156.001,90.666,156.209,90.572,156.376,90.447z
			 M157.806,91.509c0.328,0.037,0.653,0.055,0.977,0.055h1.969v-0.906c0-0.182-0.011-0.367-0.031-0.555
			c0.224,0.042,0.464,0.062,0.719,0.062c-0.062,0.172-0.094,0.37-0.094,0.594v0.805h0.344c0.317,0,0.641-0.018,0.969-0.055
			c-0.026,0.109-0.039,0.224-0.039,0.344c0,0.115,0.013,0.227,0.039,0.336c-0.328-0.036-0.651-0.055-0.969-0.055h-0.344v3.43
			c0,0.287-0.104,0.474-0.312,0.562c-0.198,0.083-0.492,0.125-0.883,0.125c-0.052-0.271-0.167-0.5-0.344-0.688h0.508
			c0.292,0,0.438-0.104,0.438-0.312v-3.117h-1.969c-0.323,0-0.648,0.019-0.977,0.055c0.021-0.109,0.031-0.221,0.031-0.336
			C157.837,91.733,157.826,91.619,157.806,91.509z M159.095,92.759c0.208,0.651,0.477,1.224,0.805,1.719
			c-0.203,0.026-0.422,0.109-0.656,0.25c-0.229-0.719-0.479-1.294-0.75-1.727C158.691,92.96,158.892,92.879,159.095,92.759z"/>
		<path class="st5" d="M165.345,90.384c0.234,0.089,0.464,0.148,0.688,0.18c-0.067,0.078-0.156,0.25-0.266,0.516
			c-0.067,0.193-0.138,0.365-0.211,0.516h1.414v-0.805c0-0.219-0.023-0.438-0.07-0.656c0.214,0.073,0.466,0.112,0.758,0.117
			c-0.067,0.136-0.102,0.315-0.102,0.539v0.805h1.414c0.25,0,0.521-0.01,0.812-0.031c-0.021,0.104-0.031,0.201-0.031,0.289
			c0,0.12,0.011,0.224,0.031,0.312c-0.198-0.021-0.469-0.031-0.812-0.031h-1.414v1.18h2.164c0.297,0,0.597-0.021,0.898-0.062
			c-0.021,0.12-0.031,0.234-0.031,0.344s0.011,0.214,0.031,0.312c-0.302-0.036-0.602-0.055-0.898-0.055h-1.625v2.656
			c0,0.099,0.019,0.169,0.055,0.211c0.031,0.047,0.117,0.07,0.258,0.07h0.805c0.266,0,0.44-0.047,0.523-0.141
			c0.094-0.125,0.183-0.477,0.266-1.055c0.146,0.141,0.331,0.245,0.555,0.312c-0.12,0.542-0.237,0.891-0.352,1.047
			c-0.151,0.219-0.438,0.328-0.859,0.328h-1.195c-0.276,0-0.458-0.052-0.547-0.156c-0.094-0.099-0.141-0.266-0.141-0.5v-2.773
			h-0.977c-0.016,0.625-0.089,1.151-0.219,1.578c-0.183,0.583-0.474,1.052-0.875,1.406c-0.339,0.297-0.753,0.539-1.242,0.727
			c-0.161-0.234-0.325-0.409-0.492-0.523c0.417-0.115,0.794-0.279,1.133-0.492c0.364-0.245,0.633-0.539,0.805-0.883
			c0.141-0.271,0.242-0.602,0.305-0.992c0.031-0.26,0.055-0.534,0.07-0.82h-1.477c-0.297,0-0.599,0.019-0.906,0.055
			c0.021-0.099,0.031-0.203,0.031-0.312s-0.011-0.224-0.031-0.344c0.308,0.042,0.609,0.062,0.906,0.062h2.477v-1.18h-1.695
			c-0.151,0.266-0.315,0.513-0.492,0.742c-0.151-0.13-0.352-0.234-0.602-0.312c0.255-0.255,0.479-0.56,0.672-0.914
			C165.029,91.343,165.193,90.921,165.345,90.384z"/>
		<path class="st5" d="M171.524,91.697c0.297,0.042,0.591,0.062,0.883,0.062h0.281v-1.133c0-0.161-0.011-0.325-0.031-0.492
			c0.198,0.021,0.417,0.031,0.656,0.031c-0.067,0.151-0.102,0.328-0.102,0.531v1.062h0.031c0.297,0,0.591-0.021,0.883-0.062
			c-0.021,0.104-0.031,0.206-0.031,0.305c0,0.109,0.011,0.214,0.031,0.312c-0.292-0.042-0.586-0.062-0.883-0.062h-0.031v1.719
			c0.323-0.135,0.628-0.281,0.914-0.438c-0.021,0.302-0.031,0.513-0.031,0.633c-0.328,0.109-0.622,0.216-0.883,0.32v2.367
			c0,0.255-0.104,0.424-0.312,0.508c-0.208,0.078-0.508,0.117-0.898,0.117c-0.058-0.25-0.161-0.458-0.312-0.625h0.438
			c0.375,0,0.562-0.097,0.562-0.289v-1.859c-0.526,0.219-0.894,0.401-1.102,0.547c-0.011-0.198-0.07-0.427-0.18-0.688
			c0.448-0.104,0.875-0.231,1.281-0.383v-1.93h-0.281c-0.292,0-0.586,0.021-0.883,0.062c0.021-0.099,0.031-0.203,0.031-0.312
			C171.556,91.903,171.545,91.801,171.524,91.697z M175.376,90.134c0.177,0.037,0.406,0.055,0.688,0.055
			c-0.089,0.312-0.133,0.675-0.133,1.086v0.453h0.789c0.297,0,0.597-0.023,0.898-0.07c-0.042,0.198-0.062,0.396-0.062,0.594
			c0,1.953,0.058,3.141,0.172,3.562c0.125,0.542,0.227,0.812,0.305,0.812c0.036-0.094,0.086-0.438,0.148-1.031
			c0.172,0.219,0.372,0.378,0.602,0.477c-0.219,0.917-0.409,1.375-0.57,1.375c-0.183-0.016-0.375-0.162-0.578-0.438
			c-0.203-0.297-0.359-0.713-0.469-1.25c-0.109-0.635-0.164-1.805-0.164-3.508h-1.07v0.164c0,0.859-0.039,1.576-0.117,2.148
			c0.25,0.188,0.508,0.378,0.773,0.57c-0.192,0.183-0.328,0.357-0.406,0.523c-0.167-0.161-0.325-0.312-0.477-0.453
			c-0.062,0.229-0.128,0.425-0.195,0.586c-0.292,0.641-0.794,1.213-1.508,1.719c-0.13-0.193-0.3-0.339-0.508-0.438
			c0.812-0.516,1.344-1.057,1.594-1.625c0.067-0.167,0.125-0.37,0.172-0.609c-0.328-0.266-0.656-0.5-0.984-0.703
			c0.161-0.135,0.3-0.281,0.414-0.438c0.214,0.167,0.438,0.339,0.672,0.516c0.052-0.5,0.078-1.099,0.078-1.797v-0.164h-0.289
			c-0.266,0-0.534,0.021-0.805,0.062c0.021-0.109,0.031-0.224,0.031-0.344c0-0.099-0.011-0.203-0.031-0.312
			c0.271,0.047,0.539,0.07,0.805,0.07h0.289v-0.164C175.438,91.142,175.418,90.666,175.376,90.134z"/>
		<path class="st5" d="M181.212,90.22c0.198,0.104,0.438,0.19,0.719,0.258c-0.109,0.068-0.231,0.193-0.367,0.375
			c-0.453,0.641-1.008,1.232-1.664,1.773c-0.13-0.156-0.315-0.292-0.555-0.406c0.516-0.312,0.917-0.643,1.203-0.992
			C180.887,90.843,181.107,90.507,181.212,90.22z M181.618,91.853c0.224,0.141,0.466,0.234,0.727,0.281
			c-0.172,0.099-0.356,0.308-0.555,0.625c-0.13,0.24-0.278,0.469-0.445,0.688v2.938c0,0.391,0.021,0.784,0.062,1.18
			c-0.13-0.021-0.255-0.031-0.375-0.031c-0.13,0-0.255,0.01-0.375,0.031c0.042-0.396,0.062-0.789,0.062-1.18v-2.219
			c-0.276,0.281-0.589,0.56-0.938,0.836c-0.094-0.229-0.208-0.414-0.344-0.555c0.583-0.37,1.047-0.76,1.391-1.172
			C181.184,92.869,181.446,92.395,181.618,91.853z M182.407,92.728c0.339,0.042,0.683,0.062,1.031,0.062h2.344
			c0.344,0,0.685-0.021,1.023-0.062c-0.016,0.12-0.023,0.245-0.023,0.375c0,0.109,0.008,0.224,0.023,0.344
			c-0.339-0.042-0.68-0.062-1.023-0.062h-0.539v3.719c0,0.172-0.097,0.297-0.289,0.375c-0.177,0.078-0.539,0.117-1.086,0.117
			c-0.011-0.266-0.094-0.505-0.25-0.719c0.328,0.042,0.581,0.062,0.758,0.062c0.156,0,0.237-0.06,0.242-0.18v-3.375h-1.18
			c-0.349,0-0.692,0.021-1.031,0.062c0.021-0.12,0.031-0.234,0.031-0.344C182.438,92.973,182.428,92.848,182.407,92.728z
			 M182.868,90.595c0.349,0.042,0.692,0.062,1.031,0.062h1.312c0.349,0,0.692-0.021,1.031-0.062
			c-0.021,0.13-0.031,0.255-0.031,0.375c0,0.12,0.011,0.234,0.031,0.344c-0.339-0.042-0.683-0.062-1.031-0.062h-1.312
			c-0.339,0-0.683,0.021-1.031,0.062c0.021-0.109,0.031-0.224,0.031-0.344C182.899,90.851,182.889,90.726,182.868,90.595z"/>
		<path class="st5" d="M188.931,90.166c0.192,0.083,0.435,0.133,0.727,0.148c-0.146,0.276-0.292,0.714-0.438,1.312h0.617
			c0.281,0,0.565-0.021,0.852-0.062c-0.047,0.271-0.07,0.544-0.07,0.82v4.125c0,0.266,0.023,0.534,0.07,0.805
			c-0.156-0.021-0.261-0.031-0.312-0.031c-0.062,0-0.177,0.01-0.344,0.031c0.042-0.271,0.062-0.539,0.062-0.805h-1.656v0.023
			c0,0.271,0.019,0.542,0.055,0.812c-0.172-0.021-0.286-0.031-0.344-0.031c-0.047,0-0.151,0.01-0.312,0.031
			c0.042-0.271,0.062-0.542,0.062-0.812v-4.148c0-0.276-0.021-0.549-0.062-0.82c0.281,0.042,0.565,0.062,0.852,0.062h0.023
			C188.779,91.226,188.853,90.739,188.931,90.166z M188.438,93.853h1.656v-1.719h-1.656V93.853z M188.438,96.001h1.656v-1.688
			h-1.656V96.001z M192.149,90.134c0.224,0.104,0.474,0.175,0.75,0.211c-0.125,0.172-0.292,0.472-0.5,0.898
			c-0.052,0.12-0.106,0.237-0.164,0.352h1.484c0.271,0,0.539-0.021,0.805-0.062c-0.062,0.198-0.102,0.417-0.117,0.656l-0.164,4.438
			c-0.036,0.37-0.237,0.609-0.602,0.719c-0.266,0.083-0.688,0.146-1.266,0.188c0-0.203-0.094-0.422-0.281-0.656
			c0.312,0.021,0.531,0.031,0.656,0.031c0.391,0,0.653-0.076,0.789-0.227c0.099-0.088,0.148-0.211,0.148-0.367l0.148-4.211h-1.828
			c-0.219,0.464-0.464,0.94-0.734,1.43c-0.177-0.141-0.383-0.234-0.617-0.281c0.317-0.338,0.633-0.838,0.945-1.5
			C191.759,91.46,191.941,90.921,192.149,90.134z M192.032,93.509c0.203,0.469,0.503,0.945,0.898,1.43
			c-0.177,0.099-0.352,0.234-0.523,0.406c-0.229-0.588-0.534-1.096-0.914-1.523C191.696,93.744,191.876,93.64,192.032,93.509z"/>
		<path class="st5" d="M200.728,91.369h-2.633v2.055h2.25v0.531h-2.25v2.711h-0.57v-5.82h3.203V91.369z"/>
		<path class="st5" d="M204.821,95.095c0,0.526-0.214,0.933-0.641,1.219c-0.344,0.234-0.753,0.352-1.227,0.352h-1.523v-5.82h1.438
			c0.5,0,0.903,0.097,1.211,0.289c0.401,0.25,0.602,0.641,0.602,1.172c0,0.287-0.081,0.547-0.242,0.781
			c-0.156,0.24-0.354,0.412-0.594,0.516c0.281,0.115,0.508,0.292,0.68,0.531C204.723,94.405,204.821,94.726,204.821,95.095z
			 M204.118,92.306c0-0.625-0.445-0.938-1.336-0.938h-0.781v2.016h0.773c0.396,0,0.719-0.099,0.969-0.297
			C203.993,92.895,204.118,92.634,204.118,92.306z M204.267,95.095c0-0.411-0.148-0.721-0.445-0.93
			c-0.25-0.177-0.567-0.266-0.953-0.266h-0.867v2.25h0.867c0.396,0,0.727-0.099,0.992-0.297
			C204.131,95.65,204.267,95.397,204.267,95.095z"/>
		<path class="st5" d="M208.931,90.166c0.192,0.083,0.435,0.133,0.727,0.148c-0.146,0.276-0.292,0.714-0.438,1.312h0.617
			c0.281,0,0.565-0.021,0.852-0.062c-0.047,0.271-0.07,0.544-0.07,0.82v4.125c0,0.266,0.023,0.534,0.07,0.805
			c-0.156-0.021-0.261-0.031-0.312-0.031c-0.062,0-0.177,0.01-0.344,0.031c0.042-0.271,0.062-0.539,0.062-0.805h-1.656v0.023
			c0,0.271,0.019,0.542,0.055,0.812c-0.172-0.021-0.286-0.031-0.344-0.031c-0.047,0-0.151,0.01-0.312,0.031
			c0.042-0.271,0.062-0.542,0.062-0.812v-4.148c0-0.276-0.021-0.549-0.062-0.82c0.281,0.042,0.565,0.062,0.852,0.062h0.023
			C208.779,91.226,208.853,90.739,208.931,90.166z M208.438,93.853h1.656v-1.719h-1.656V93.853z M208.438,96.001h1.656v-1.688
			h-1.656V96.001z M212.149,90.134c0.224,0.104,0.474,0.175,0.75,0.211c-0.125,0.172-0.292,0.472-0.5,0.898
			c-0.052,0.12-0.106,0.237-0.164,0.352h1.484c0.271,0,0.54-0.021,0.805-0.062c-0.062,0.198-0.102,0.417-0.117,0.656l-0.164,4.438
			c-0.036,0.37-0.237,0.609-0.602,0.719c-0.266,0.083-0.688,0.146-1.266,0.188c0-0.203-0.094-0.422-0.281-0.656
			c0.312,0.021,0.531,0.031,0.656,0.031c0.391,0,0.653-0.076,0.789-0.227c0.099-0.088,0.148-0.211,0.148-0.367l0.148-4.211h-1.828
			c-0.219,0.464-0.464,0.94-0.734,1.43c-0.177-0.141-0.383-0.234-0.617-0.281c0.317-0.338,0.633-0.838,0.945-1.5
			C211.759,91.46,211.941,90.921,212.149,90.134z M212.032,93.509c0.203,0.469,0.503,0.945,0.898,1.43
			c-0.177,0.099-0.352,0.234-0.523,0.406c-0.229-0.588-0.534-1.096-0.914-1.523C211.696,93.744,211.876,93.64,212.032,93.509z"/>
		<path class="st5" d="M66.657,100.478c0.312,0.037,0.622,0.055,0.93,0.055h2.969c0.317,0,0.63-0.018,0.938-0.055
			c-0.036,0.297-0.055,0.599-0.055,0.906v5.242c0,0.307,0.019,0.609,0.055,0.906c-0.172-0.016-0.286-0.023-0.344-0.023
			s-0.18,0.008-0.367,0.023c0.031-0.271,0.05-0.539,0.055-0.805h-3.523c0.005,0.271,0.026,0.539,0.062,0.805
			c-0.188-0.016-0.312-0.023-0.375-0.023s-0.177,0.008-0.344,0.023c0.042-0.297,0.062-0.599,0.062-0.906v-5.242
			C66.72,101.077,66.699,100.775,66.657,100.478z M67.313,102.384h3.523v-1.281h-3.523V102.384z M67.313,104.251h3.523v-1.344
			h-3.523V104.251z M67.313,106.166h3.523v-1.375h-3.523V106.166z"/>
		<path class="st5" d="M73.524,102.001c0.13,0.026,0.255,0.039,0.375,0.039h0.789v-0.969c0-0.317-0.023-0.63-0.07-0.938
			c0.198,0.021,0.44,0.031,0.727,0.031c-0.067,0.146-0.102,0.333-0.102,0.562v1.312h0.688c0.13,0,0.258-0.013,0.383-0.039
			c-0.026,0.099-0.039,0.193-0.039,0.281c0,0.099,0.013,0.193,0.039,0.281c-0.125-0.021-0.253-0.031-0.383-0.031h-0.688v1.383
			c0.167-0.042,0.325-0.104,0.477-0.188c0.208,0.412,0.477,0.776,0.805,1.094c-0.192,0.021-0.401,0.094-0.625,0.219
			c-0.203-0.411-0.422-0.742-0.656-0.992v2.43c0,0.364,0.023,0.727,0.07,1.086c-0.12-0.021-0.234-0.031-0.344-0.031
			c-0.12,0-0.237,0.01-0.352,0.031c0.047-0.359,0.07-0.722,0.07-1.086v-2.68c-0.281,0.755-0.604,1.458-0.969,2.109
			c-0.109-0.281-0.258-0.51-0.445-0.688c0.333-0.396,0.609-0.856,0.828-1.383c0.177-0.391,0.336-0.825,0.477-1.305h-0.68
			c-0.12,0-0.245,0.011-0.375,0.031c0.021-0.088,0.031-0.182,0.031-0.281C73.556,102.194,73.545,102.101,73.524,102.001z
			 M76.899,104.166c0.13,0.052,0.359,0.112,0.688,0.18c-0.104,0.12-0.2,0.271-0.289,0.453c-0.255,0.604-0.448,1.023-0.578,1.258
			c-0.099,0.172-0.185,0.352-0.258,0.539c-0.177-0.114-0.396-0.198-0.656-0.25c0.25-0.213,0.503-0.604,0.758-1.172
			C76.74,104.772,76.853,104.437,76.899,104.166z M76.243,102.658c0.297,0.047,0.591,0.07,0.883,0.07h2.461
			c0.297,0,0.589-0.023,0.875-0.07c-0.016,0.109-0.023,0.214-0.023,0.312c0,0.109,0.008,0.214,0.023,0.312
			c-0.286-0.042-0.578-0.062-0.875-0.062h-1v3.75c0,0.177-0.089,0.302-0.266,0.375c-0.167,0.088-0.503,0.133-1.008,0.133
			c-0.011-0.261-0.083-0.49-0.219-0.688c0.276,0.042,0.495,0.062,0.656,0.062c0.156,0,0.239-0.065,0.25-0.195v-3.438h-0.875
			c-0.292,0-0.586,0.021-0.883,0.062c0.021-0.099,0.031-0.203,0.031-0.312C76.274,102.872,76.264,102.767,76.243,102.658z
			 M76.587,100.728c0.297,0.042,0.589,0.062,0.875,0.062h1.633c0.286,0,0.578-0.021,0.875-0.062
			c-0.026,0.099-0.039,0.203-0.039,0.312c0,0.099,0.013,0.201,0.039,0.305c-0.297-0.042-0.589-0.062-0.875-0.062h-1.633
			c-0.286,0-0.578,0.021-0.875,0.062c0.021-0.104,0.031-0.206,0.031-0.305C76.618,100.931,76.607,100.827,76.587,100.728z
			 M79.493,104.072c0.052,0.12,0.148,0.292,0.289,0.516c0.229,0.391,0.419,0.74,0.57,1.047c0.104,0.203,0.206,0.398,0.305,0.586
			c-0.146,0.047-0.344,0.151-0.594,0.312c-0.073-0.26-0.208-0.596-0.406-1.008c-0.224-0.453-0.453-0.833-0.688-1.141
			C79.178,104.296,79.353,104.192,79.493,104.072z"/>
		<path class="st5" d="M84.751,100.251c0.203,0.058,0.44,0.089,0.711,0.094c-0.058,0.136-0.086,0.312-0.086,0.531v3.75h1.688
			c0.286,0,0.575-0.021,0.867-0.062c-0.021,0.109-0.031,0.214-0.031,0.312c0,0.109,0.011,0.214,0.031,0.312
			c-0.292-0.036-0.581-0.055-0.867-0.055h-1.688v1.43h2.406c0.297,0,0.599-0.018,0.906-0.055c-0.021,0.109-0.031,0.224-0.031,0.344
			c0,0.099,0.011,0.203,0.031,0.312c-0.308-0.042-0.609-0.062-0.906-0.062h-5.258c-0.297,0-0.599,0.021-0.906,0.062
			c0.026-0.109,0.039-0.214,0.039-0.312c0-0.12-0.013-0.234-0.039-0.344c0.308,0.037,0.609,0.055,0.906,0.055h2.281v-1.43h-1.68
			c-0.292,0-0.586,0.019-0.883,0.055c0.021-0.099,0.031-0.203,0.031-0.312c0-0.099-0.011-0.203-0.031-0.312
			c0.297,0.042,0.591,0.062,0.883,0.062h1.68v-3.75C84.806,100.668,84.787,100.46,84.751,100.251z M83.212,100.564
			c0.234,0.099,0.464,0.164,0.688,0.195c-0.083,0.109-0.203,0.354-0.359,0.734c-0.052,0.162-0.104,0.31-0.156,0.445
			c0.359,0.354,0.784,0.781,1.273,1.281c-0.156,0.104-0.315,0.24-0.477,0.406c-0.151-0.271-0.477-0.69-0.977-1.258
			c-0.078,0.183-0.161,0.354-0.25,0.516c-0.229,0.422-0.477,0.818-0.742,1.188c-0.146-0.13-0.344-0.234-0.594-0.312
			c0.349-0.38,0.659-0.825,0.93-1.336C82.787,101.976,83.009,101.356,83.212,100.564z M86.931,100.626
			c0.234,0.099,0.464,0.164,0.688,0.195c-0.078,0.104-0.192,0.336-0.344,0.695c-0.067,0.193-0.133,0.373-0.195,0.539
			c0.433,0.323,0.935,0.722,1.508,1.195c-0.161,0.115-0.325,0.263-0.492,0.445c-0.183-0.266-0.581-0.674-1.195-1.227
			c-0.062,0.136-0.125,0.263-0.188,0.383c-0.224,0.401-0.461,0.773-0.711,1.117c-0.151-0.125-0.349-0.229-0.594-0.312
			c0.328-0.354,0.625-0.776,0.891-1.266C86.527,101.965,86.738,101.376,86.931,100.626z"/>
		<path class="st5" d="M89.524,102.001c0.13,0.026,0.255,0.039,0.375,0.039h0.789v-0.969c0-0.317-0.023-0.63-0.07-0.938
			c0.198,0.021,0.44,0.031,0.727,0.031c-0.067,0.146-0.102,0.333-0.102,0.562v1.312h0.688c0.13,0,0.258-0.013,0.383-0.039
			c-0.026,0.099-0.039,0.193-0.039,0.281c0,0.099,0.013,0.193,0.039,0.281c-0.125-0.021-0.253-0.031-0.383-0.031h-0.688v1.383
			c0.167-0.042,0.325-0.104,0.477-0.188c0.208,0.412,0.477,0.776,0.805,1.094c-0.192,0.021-0.401,0.094-0.625,0.219
			c-0.203-0.411-0.422-0.742-0.656-0.992v2.43c0,0.364,0.023,0.727,0.07,1.086c-0.12-0.021-0.234-0.031-0.344-0.031
			c-0.12,0-0.237,0.01-0.352,0.031c0.047-0.359,0.07-0.722,0.07-1.086v-2.68c-0.281,0.755-0.604,1.458-0.969,2.109
			c-0.109-0.281-0.258-0.51-0.445-0.688c0.333-0.396,0.609-0.856,0.828-1.383c0.177-0.391,0.336-0.825,0.477-1.305h-0.68
			c-0.12,0-0.245,0.011-0.375,0.031c0.021-0.088,0.031-0.182,0.031-0.281C89.556,102.194,89.545,102.101,89.524,102.001z
			 M92.899,104.166c0.13,0.052,0.359,0.112,0.688,0.18c-0.104,0.12-0.2,0.271-0.289,0.453c-0.255,0.604-0.448,1.023-0.578,1.258
			c-0.099,0.172-0.185,0.352-0.258,0.539c-0.177-0.114-0.396-0.198-0.656-0.25c0.25-0.213,0.503-0.604,0.758-1.172
			C92.74,104.772,92.853,104.437,92.899,104.166z M92.243,102.658c0.297,0.047,0.591,0.07,0.883,0.07h2.461
			c0.297,0,0.589-0.023,0.875-0.07c-0.016,0.109-0.023,0.214-0.023,0.312c0,0.109,0.008,0.214,0.023,0.312
			c-0.286-0.042-0.578-0.062-0.875-0.062h-1v3.75c0,0.177-0.089,0.302-0.266,0.375c-0.167,0.088-0.503,0.133-1.008,0.133
			c-0.011-0.261-0.083-0.49-0.219-0.688c0.276,0.042,0.495,0.062,0.656,0.062c0.156,0,0.239-0.065,0.25-0.195v-3.438h-0.875
			c-0.292,0-0.586,0.021-0.883,0.062c0.021-0.099,0.031-0.203,0.031-0.312C92.274,102.872,92.264,102.767,92.243,102.658z
			 M92.587,100.728c0.297,0.042,0.589,0.062,0.875,0.062h1.633c0.286,0,0.578-0.021,0.875-0.062
			c-0.026,0.099-0.039,0.203-0.039,0.312c0,0.099,0.013,0.201,0.039,0.305c-0.297-0.042-0.589-0.062-0.875-0.062h-1.633
			c-0.286,0-0.578,0.021-0.875,0.062c0.021-0.104,0.031-0.206,0.031-0.305C92.618,100.931,92.607,100.827,92.587,100.728z
			 M95.493,104.072c0.052,0.12,0.148,0.292,0.289,0.516c0.229,0.391,0.419,0.74,0.57,1.047c0.104,0.203,0.206,0.398,0.305,0.586
			c-0.146,0.047-0.344,0.151-0.594,0.312c-0.073-0.26-0.208-0.596-0.406-1.008c-0.224-0.453-0.453-0.833-0.688-1.141
			C95.178,104.296,95.353,104.192,95.493,104.072z"/>
		<path class="st5" d="M97.782,100.791c0.308,0.042,0.62,0.062,0.938,0.062h0.773c0.317,0,0.633-0.021,0.945-0.062
			c-0.042,0.276-0.062,0.555-0.062,0.836v4.133c0,0.297,0.021,0.597,0.062,0.898c-0.177-0.021-0.292-0.031-0.344-0.031
			c-0.062,0-0.188,0.011-0.375,0.031c0.031-0.224,0.05-0.442,0.055-0.656h-1.336v0.102c0,0.297,0.019,0.597,0.055,0.898
			c-0.188-0.021-0.31-0.031-0.367-0.031s-0.172,0.01-0.344,0.031c0.036-0.302,0.055-0.602,0.055-0.898v-4.477
			C97.837,101.345,97.818,101.067,97.782,100.791z M98.438,103.166h1.344v-1.781h-1.344V103.166z M98.438,105.478h1.344v-1.82
			h-1.344V105.478z M100.556,102.001c0.308,0.047,0.609,0.07,0.906,0.07h1.664v-1.414c0-0.182-0.011-0.367-0.031-0.555
			c0.224,0.042,0.461,0.062,0.711,0.062c-0.058,0.172-0.086,0.37-0.086,0.594v1.312h0.086c0.302,0,0.606-0.023,0.914-0.07
			c-0.021,0.12-0.031,0.234-0.031,0.344s0.011,0.214,0.031,0.312c-0.308-0.042-0.612-0.062-0.914-0.062h-0.086v4.281
			c0,0.286-0.122,0.474-0.367,0.562c-0.239,0.083-0.586,0.125-1.039,0.125c-0.058-0.271-0.172-0.5-0.344-0.688h0.492
			c0.442,0,0.664-0.104,0.664-0.312v-3.969h-1.664c-0.297,0-0.599,0.021-0.906,0.062c0.021-0.099,0.031-0.203,0.031-0.312
			S100.576,102.122,100.556,102.001z M101.556,103.283l0.758,1.758c-0.245,0.026-0.464,0.068-0.656,0.125
			c-0.183-0.724-0.401-1.307-0.656-1.75C101.168,103.405,101.353,103.361,101.556,103.283z"/>
		<path class="st5" d="M106.407,103.908c0.104,0.104,0.247,0.198,0.43,0.281c-0.339,0.917-0.617,1.794-0.836,2.633
			c-0.214-0.161-0.401-0.276-0.562-0.344C105.751,105.926,106.074,105.069,106.407,103.908z M106.063,101.134
			c0.036,0.094,0.106,0.232,0.211,0.414c0.172,0.318,0.315,0.602,0.43,0.852c0.078,0.167,0.153,0.326,0.227,0.477
			c-0.125,0.042-0.3,0.138-0.523,0.289c-0.052-0.219-0.153-0.495-0.305-0.828c-0.167-0.364-0.339-0.672-0.516-0.922
			C105.774,101.337,105.934,101.244,106.063,101.134z M112.212,101.595c-0.021,0.089-0.031,0.175-0.031,0.258
			c0,0.089,0.011,0.183,0.031,0.281c-0.188-0.021-0.372-0.031-0.555-0.031h-1.211v0.109c0.005,1.312,0.12,2.339,0.344,3.078
			c0.136-0.234,0.242-0.479,0.32-0.734c0.146-0.484,0.245-1.034,0.297-1.648c0.224,0.089,0.453,0.144,0.688,0.164
			c-0.109,0.219-0.208,0.516-0.297,0.891c-0.161,0.792-0.394,1.412-0.695,1.859c-0.021,0.037-0.042,0.068-0.062,0.094
			c0.031,0.052,0.058,0.099,0.078,0.141c0.302,0.49,0.542,0.734,0.719,0.734c0.136,0,0.239-0.263,0.312-0.789
			c0.109,0.146,0.278,0.284,0.508,0.414c-0.281,0.745-0.511,1.117-0.688,1.117c-0.208,0-0.479-0.154-0.812-0.461
			c-0.188-0.214-0.349-0.445-0.484-0.695c-0.354,0.375-0.831,0.752-1.43,1.133c-0.12-0.151-0.294-0.287-0.523-0.406
			c0.656-0.333,1.208-0.739,1.656-1.219c0.021-0.021,0.034-0.039,0.039-0.055c-0.109-0.281-0.195-0.586-0.258-0.914
			c-0.146-0.677-0.219-1.547-0.219-2.609v-0.203h-2.188v2.312c-0.016,0.552-0.086,1.07-0.211,1.555
			c-0.089,0.391-0.292,0.872-0.609,1.445c-0.141-0.146-0.315-0.229-0.523-0.25c0.276-0.406,0.481-0.82,0.617-1.242
			c0.146-0.516,0.219-1.018,0.219-1.508v-2.164c0-0.219-0.021-0.438-0.062-0.656c0.198,0.021,0.398,0.031,0.602,0.031h2.148
			c-0.011-0.786-0.031-1.294-0.062-1.523c0.214,0.031,0.442,0.052,0.688,0.062c-0.058,0.255-0.091,0.742-0.102,1.461h1.203
			C111.84,101.626,112.024,101.616,112.212,101.595z M108.126,102.939c0.245,0.042,0.492,0.062,0.742,0.062h0.227
			c0.245,0,0.492-0.021,0.742-0.062c-0.021,0.099-0.031,0.193-0.031,0.281c0,0.099,0.011,0.195,0.031,0.289
			c-0.25-0.042-0.497-0.062-0.742-0.062h-0.227c-0.25,0-0.497,0.021-0.742,0.062c0.016-0.094,0.023-0.19,0.023-0.289
			C108.149,103.132,108.142,103.038,108.126,102.939z M108.126,104.072c0.266,0.021,0.534,0.031,0.805,0.031h0.102
			c0.271,0,0.539-0.01,0.805-0.031c-0.021,0.13-0.031,0.266-0.031,0.406v1.086c0,0.172,0.011,0.341,0.031,0.508
			c-0.266-0.021-0.534-0.031-0.805-0.031h-0.102c-0.271,0-0.539,0.011-0.805,0.031c0.016-0.167,0.023-0.336,0.023-0.508v-1.086
			C108.134,104.337,108.126,104.202,108.126,104.072z M109.345,105.658v-1.18h-0.727v1.18H109.345z M111.345,100.189
			c0.026,0.058,0.073,0.141,0.141,0.25c0.12,0.177,0.219,0.336,0.297,0.477c0.052,0.099,0.102,0.19,0.148,0.273
			c-0.125,0.042-0.3,0.138-0.523,0.289c-0.036-0.125-0.104-0.284-0.203-0.477c-0.104-0.213-0.216-0.388-0.336-0.523
			C111.056,100.4,111.215,100.304,111.345,100.189z"/>
		<path class="st5" d="M113.657,103.103c0.339,0.021,0.683,0.031,1.031,0.031c0.161,0,0.325-0.01,0.492-0.031
			c-0.021,0.219-0.031,0.438-0.031,0.656v2.383c0.036,0.016,0.07,0.031,0.102,0.047c0.766,0.401,1.763,0.602,2.992,0.602
			c0.5,0,1.336-0.044,2.508-0.133c-0.109,0.167-0.185,0.385-0.227,0.656h-2.062c-1.364,0-2.435-0.211-3.211-0.633
			c-0.177-0.099-0.305-0.148-0.383-0.148c-0.192,0-0.505,0.26-0.938,0.781c-0.13-0.172-0.294-0.308-0.492-0.406l0.812-0.625
			c0.12-0.083,0.231-0.146,0.336-0.188v-2.438c-0.308,0-0.617,0.013-0.93,0.039c0.021-0.109,0.031-0.213,0.031-0.312
			C113.688,103.286,113.678,103.192,113.657,103.103z M114.587,100.564c0.177,0.583,0.406,1.097,0.688,1.539
			c-0.188,0.021-0.394,0.091-0.617,0.211c-0.192-0.635-0.401-1.143-0.625-1.523C114.22,100.754,114.404,100.679,114.587,100.564z
			 M115.618,101.001c0.297,0.047,0.589,0.07,0.875,0.07h1.289c0-0.312-0.021-0.614-0.062-0.906c0.198,0.016,0.438,0.023,0.719,0.023
			c-0.062,0.151-0.094,0.341-0.094,0.57v0.312h1.375c0.286,0,0.575-0.023,0.867-0.07c-0.021,0.109-0.031,0.214-0.031,0.312
			c0,0.109,0.011,0.214,0.031,0.312c-0.292-0.042-0.581-0.062-0.867-0.062h-1.375v0.656h0.898c0.328,0,0.651-0.01,0.969-0.031
			c-0.021,0.172-0.031,0.341-0.031,0.508v0.898c0,0.198,0.011,0.396,0.031,0.594c-0.317-0.016-0.641-0.023-0.969-0.023h-0.898v1.25
			c0,0.359,0.021,0.724,0.062,1.094c-0.12-0.021-0.234-0.031-0.344-0.031c-0.12,0-0.234,0.011-0.344,0.031
			c0.042-0.37,0.062-0.734,0.062-1.094v-1.219c-0.484,0.797-1.112,1.472-1.883,2.023c-0.109-0.146-0.255-0.289-0.438-0.43
			c0.692-0.344,1.289-0.885,1.789-1.625h-0.383c-0.317,0-0.641,0.008-0.969,0.023c0.021-0.198,0.031-0.396,0.031-0.594v-0.898
			c-0.021-0.167-0.031-0.336-0.031-0.508c0.328,0.021,0.651,0.031,0.969,0.031h0.914v-0.656h-1.289
			c-0.286,0-0.578,0.021-0.875,0.062c0.026-0.099,0.039-0.203,0.039-0.312C115.657,101.215,115.645,101.111,115.618,101.001z
			 M117.782,103.697v-1h-1.289v1H117.782z M119.618,103.697v-1h-1.273v1H119.618z M118.868,104.478
			c0.469,0.354,0.992,0.727,1.57,1.117c-0.172,0.167-0.286,0.326-0.344,0.477c-0.531-0.489-1.065-0.888-1.602-1.195
			C118.645,104.762,118.77,104.629,118.868,104.478z"/>
		<path class="st5" d="M123.001,100.072c0.198,0.12,0.477,0.211,0.836,0.273c-0.167,0.203-0.364,0.594-0.594,1.172v4.828
			c0,0.365,0.023,0.731,0.07,1.102c-0.12-0.021-0.234-0.031-0.344-0.031c-0.12,0-0.237,0.01-0.352,0.031
			c0.047-0.37,0.07-0.737,0.07-1.102v-3.594c-0.234,0.453-0.497,0.894-0.789,1.32c-0.114-0.172-0.31-0.331-0.586-0.477
			c0.505-0.609,0.891-1.216,1.156-1.82C122.709,101.212,122.887,100.645,123.001,100.072z M123.657,104.072
			c0.292,0.021,0.581,0.031,0.867,0.031h3.227c0.286,0,0.575-0.01,0.867-0.031c-0.021,0.172-0.031,0.347-0.031,0.523
			c0,0.24,0.011,0.479,0.031,0.719c-0.094-0.021-0.185-0.031-0.273-0.031c-0.109,0-0.214,0.011-0.312,0.031
			c0.021-0.25,0.031-0.5,0.031-0.75h-3.852c0,0.203,0.008,0.406,0.023,0.609c0.255,0.031,0.511,0.047,0.766,0.047h2.18
			c0.271,0,0.544-0.018,0.82-0.055c-0.021,0.099-0.031,0.203-0.031,0.312c0,0.089,0.011,0.183,0.031,0.281
			c-0.276-0.042-0.55-0.062-0.82-0.062h-0.625v1.406c0,0.146-0.102,0.255-0.305,0.328c-0.183,0.067-0.558,0.102-1.125,0.102
			c-0.011-0.234-0.075-0.443-0.195-0.625c0.38,0.042,0.672,0.062,0.875,0.062c0.141,0,0.216-0.05,0.227-0.148v-1.125h-1.031
			c-0.276,0-0.55,0.021-0.82,0.062c0.021-0.099,0.031-0.192,0.031-0.281c0-0.057-0.003-0.114-0.008-0.172
			c-0.094-0.016-0.185-0.023-0.273-0.023c-0.094,0-0.185,0.011-0.273,0.031c0.021-0.219,0.031-0.438,0.031-0.656
			C123.688,104.465,123.678,104.27,123.657,104.072z M126.274,100.103c0.099,0.266,0.198,0.555,0.297,0.867h1.148
			c0.286,0,0.575-0.021,0.867-0.062c-0.021,0.109-0.031,0.214-0.031,0.312c0,0.109,0.011,0.214,0.031,0.312
			c-0.292-0.036-0.581-0.055-0.867-0.055h-3c-0.297,0-0.591,0.019-0.883,0.055c0.021-0.099,0.031-0.203,0.031-0.312
			c0-0.099-0.011-0.203-0.031-0.312c0.292,0.042,0.586,0.062,0.883,0.062h1.289c-0.12-0.317-0.237-0.586-0.352-0.805
			C125.855,100.15,126.061,100.129,126.274,100.103z M124.345,101.97c0.297,0.021,0.597,0.031,0.898,0.031h1.625
			c0.308,0,0.612-0.01,0.914-0.031c-0.021,0.146-0.031,0.294-0.031,0.445v0.656c0,0.183,0.011,0.367,0.031,0.555
			c-0.302-0.021-0.606-0.031-0.914-0.031h-1.625c-0.302,0-0.602,0.011-0.898,0.031c0.021-0.188,0.031-0.372,0.031-0.555v-0.656
			C124.355,102.265,124.345,102.116,124.345,101.97z M127.212,103.189v-0.773h-2.312v0.773H127.212z"/>
		<path class="st5" d="M132.97,100.134c0.208,0.073,0.458,0.112,0.75,0.117c-0.067,0.136-0.102,0.315-0.102,0.539v1.906h1.562
			c0.255,0,0.528-0.013,0.82-0.039c-0.021,0.104-0.031,0.198-0.031,0.281c0,0.125,0.011,0.229,0.031,0.312
			c-0.192-0.021-0.466-0.031-0.82-0.031h-1.562v3.258h2.219c0.308,0,0.612-0.021,0.914-0.062c-0.021,0.109-0.031,0.224-0.031,0.344
			c0,0.099,0.011,0.203,0.031,0.312c-0.302-0.047-0.606-0.07-0.914-0.07h-5.43c-0.308,0-0.612,0.023-0.914,0.07
			c0.021-0.109,0.031-0.214,0.031-0.312c0-0.12-0.011-0.234-0.031-0.344c0.302,0.042,0.606,0.062,0.914,0.062h0.492v-4.195
			c0-0.219-0.021-0.438-0.062-0.656c0.214,0.078,0.464,0.123,0.75,0.133c-0.062,0.13-0.094,0.305-0.094,0.523v4.195h1.539v-5.688
			C133.032,100.572,133.012,100.353,132.97,100.134z"/>
	</g>
	<g>
	</g>
	<g>
	</g>
	<g>
	</g>
	<g>
	</g>
	<g>
	</g>
	<g>
	</g>
</g>
</svg>
