<?xml version="1.0" encoding="utf-8"?>
<!-- Generator: Adobe Illustrator 28.2.0, SVG Export Plug-In . SVG Version: 6.00 Build 0)  -->
<svg version="1.1" xmlns="http://www.w3.org/2000/svg" xmlns:xlink="http://www.w3.org/1999/xlink" x="0px" y="0px"
	 width="498.124px" height="153.631px" viewBox="0 0 498.124 153.631" style="enable-background:new 0 0 498.124 153.631;"
	 xml:space="preserve">
<style type="text/css">
	.st0{fill:none;stroke:#000000;stroke-miterlimit:10;}
	.st1{fill:none;stroke:#666666;stroke-width:0.5;stroke-miterlimit:10;stroke-dasharray:1;}
	.st2{fill:none;stroke:#000000;stroke-width:0.5;stroke-miterlimit:10;stroke-dasharray:1;}
	.st3{fill:none;stroke:#040000;stroke-width:0.5;stroke-miterlimit:10;}
	.st4{fill:#040000;}
	.st5{display:none;}
	.st6{display:inline;}
	.st7{display:inline;fill:#3574F2;}
</style>
<g id="レイヤー_1">
	<polyline class="st0" points="498.124,2.396 406.074,2.396 389.906,23.531 175.906,23.531 161.887,2.396 120.332,2.396 	"/>
	<line class="st1" x1="398.619" y1="0" x2="398.619" y2="153.631"/>
	<line class="st1" x1="168.866" y1="0" x2="168.866" y2="153.631"/>
	<polyline class="st0" points="498.124,83.517 398.214,83.517 398.214,65.994 168.987,65.994 168.987,100.009 122.349,100.009 	"/>
	<polyline class="st0" points="498.124,144.475 145.655,144.475 122.349,144.475 	"/>
	<polyline class="st0" points="498.124,23.531 406.074,23.531 389.906,2.396 175.906,2.396 161.887,23.531 120.332,23.531 	"/>
	<line class="st2" x1="398.619" y1="83.517" x2="122.349" y2="83.517"/>
	<line class="st2" x1="168.866" y1="65.994" x2="122.349" y2="65.994"/>
	<g>
		<g>
			<polyline class="st3" points="132.461,56.385 132.461,117.374 493.695,117.374 			"/>
			<g>
				<polygon class="st4" points="131.009,57.375 132.461,51.955 133.914,57.375 				"/>
			</g>
			<g>
				<polygon class="st4" points="492.704,118.826 498.124,117.374 492.704,115.921 				"/>
			</g>
		</g>
	</g>
</g>
<g id="レイヤー_2">
	<g class="st5">
		<path class="st6" d="M226.778,314.287h-4.238v-5.74h4.182v0.688h-3.406v1.759h3.142v0.688h-3.142v1.919h3.462V314.287z"/>
		<path class="st6" d="M231.107,314.287h-0.896l-1.04-1.575l-1.007,1.575h-0.888l1.471-2.15l-1.399-2.031h0.903l0.967,1.472
			l0.968-1.472h0.863l-1.415,2.031L231.107,314.287z"/>
		<path class="st6" d="M235.259,312.975c-0.024,0.2-0.216,0.792-0.744,1.144c-0.192,0.128-0.464,0.288-1.135,0.288
			c-1.175,0-1.871-0.888-1.871-2.095c0-1.295,0.624-2.327,2.007-2.327c1.208,0,1.799,0.96,1.799,2.439h-3.055
			c0,0.871,0.408,1.375,1.215,1.375c0.664,0,1.056-0.512,1.08-0.824H235.259z M234.587,311.864c-0.04-0.647-0.312-1.247-1.167-1.247
			c-0.648,0-1.16,0.6-1.16,1.247H234.587z"/>
		<path class="st6" d="M238.771,311.512c-0.088-0.56-0.4-0.896-0.992-0.896c-0.871,0-1.151,0.832-1.151,1.575
			c0,0.72,0.176,1.607,1.144,1.607c0.472,0,0.879-0.352,1-0.991h0.68c-0.072,0.663-0.48,1.599-1.703,1.599
			c-1.175,0-1.871-0.888-1.871-2.095c0-1.295,0.624-2.327,2.007-2.327c1.096,0,1.511,0.8,1.567,1.527H238.771z"/>
		<path class="st6" d="M242.883,314.287v-0.607l-0.016-0.016c-0.296,0.487-0.655,0.743-1.327,0.743
			c-0.616,0-1.359-0.296-1.359-1.295v-3.007h0.703v2.774c0,0.688,0.353,0.92,0.808,0.92c0.888,0,1.151-0.784,1.151-1.392v-2.303
			h0.704v4.182H242.883z"/>
		<path class="st6" d="M245.469,310.689v2.719c0,0.327,0.279,0.327,0.424,0.327h0.247v0.552c-0.256,0.024-0.455,0.057-0.527,0.057
			c-0.695,0-0.848-0.393-0.848-0.896v-2.759h-0.567v-0.584h0.567v-1.167h0.704v1.167h0.671v0.584H245.469z"/>
		<path class="st6" d="M250.379,312.975c-0.023,0.2-0.216,0.792-0.743,1.144c-0.192,0.128-0.464,0.288-1.136,0.288
			c-1.175,0-1.871-0.888-1.871-2.095c0-1.295,0.624-2.327,2.007-2.327c1.208,0,1.799,0.96,1.799,2.439h-3.054
			c0,0.871,0.407,1.375,1.215,1.375c0.664,0,1.056-0.512,1.08-0.824H250.379z M249.708,311.864c-0.04-0.647-0.312-1.247-1.167-1.247
			c-0.647,0-1.159,0.6-1.159,1.247H249.708z"/>
	</g>
	<g class="st5">
		<path class="st6" d="M222.445,336.892h2.526c1.071,0,1.623,0.664,1.623,1.447c0,0.376-0.136,0.903-0.768,1.199
			c0.376,0.152,1.04,0.416,1.04,1.399c0,0.92-0.68,1.695-1.951,1.695h-2.471V336.892z M223.22,339.323h1.399
			c0.744,0,1.199-0.224,1.199-0.928c0-0.535-0.328-0.839-1.191-0.839h-1.407V339.323z M223.22,341.969h1.655
			c0.808,0,1.215-0.407,1.215-1.047c0-0.808-0.712-0.968-1.343-0.968h-1.527V341.969z"/>
		<path class="st6" d="M230.435,342.633v-0.607l-0.016-0.017c-0.296,0.488-0.656,0.744-1.328,0.744
			c-0.616,0-1.359-0.296-1.359-1.296v-3.006h0.703v2.774c0,0.688,0.352,0.919,0.808,0.919c0.888,0,1.151-0.783,1.151-1.391v-2.303
			h0.704v4.182H230.435z"/>
		<path class="st6" d="M234.532,339.643c-0.008-0.265-0.104-0.704-0.992-0.704c-0.216,0-0.832,0.072-0.832,0.592
			c0,0.344,0.216,0.424,0.76,0.56l0.704,0.176c0.872,0.216,1.175,0.536,1.175,1.104c0,0.863-0.711,1.384-1.655,1.384
			c-1.655,0-1.775-0.96-1.799-1.464h0.68c0.024,0.328,0.12,0.855,1.111,0.855c0.504,0,0.959-0.199,0.959-0.663
			c0-0.336-0.232-0.448-0.832-0.6l-0.815-0.2c-0.584-0.144-0.968-0.439-0.968-1.016c0-0.919,0.76-1.335,1.583-1.335
			c1.495,0,1.599,1.104,1.599,1.312H234.532z"/>
		<path class="st6" d="M238.771,338.452h0.775c-0.488,1.367-0.967,2.734-1.503,4.102c-0.664,1.695-0.736,1.791-1.639,1.791
			c-0.104,0-0.184-0.032-0.296-0.064v-0.64c0.088,0.032,0.232,0.072,0.424,0.072c0.368,0,0.408-0.104,0.744-0.968l-1.551-4.293h0.8
			l1.111,3.406h0.016L238.771,338.452z"/>
	</g>
	<g class="st5">
		<path class="st6" d="M222.5,365.24h2.327c1.495,0,2.415,1.135,2.415,2.79c0,1.287-0.56,2.95-2.447,2.95H222.5V365.24z
			 M223.276,370.317h1.503c1.007,0,1.663-0.792,1.663-2.239s-0.664-2.175-1.719-2.175h-1.447V370.317z"/>
		<path class="st6" d="M229.852,366.678c1.335,0,1.943,1.128,1.943,2.207s-0.607,2.207-1.943,2.207
			c-1.335,0-1.943-1.128-1.943-2.207S228.517,366.678,229.852,366.678z M229.852,370.485c1.007,0,1.215-1.04,1.215-1.6
			s-0.208-1.599-1.215-1.599s-1.215,1.039-1.215,1.599S228.844,370.485,229.852,370.485z"/>
		<path class="st6" d="M236.002,370.98h-0.704v-2.574c0-0.728-0.208-1.096-0.896-1.096c-0.4,0-1.104,0.256-1.104,1.392v2.278h-0.704
			v-4.182h0.664v0.592h0.016c0.152-0.224,0.544-0.712,1.264-0.712c0.647,0,1.463,0.265,1.463,1.455V370.98z"/>
		<path class="st6" d="M240.595,369.668c-0.024,0.2-0.216,0.792-0.744,1.144c-0.192,0.128-0.464,0.288-1.135,0.288
			c-1.175,0-1.871-0.888-1.871-2.095c0-1.295,0.624-2.327,2.007-2.327c1.208,0,1.799,0.96,1.799,2.439h-3.055
			c0,0.871,0.408,1.375,1.215,1.375c0.664,0,1.056-0.512,1.08-0.824H240.595z M239.923,368.557c-0.04-0.647-0.312-1.247-1.167-1.247
			c-0.648,0-1.16,0.6-1.16,1.247H239.923z"/>
	</g>
	<g class="st5">
		<path class="st6" d="M226.779,399.326h-4.238v-5.74h4.182v0.688h-3.406v1.759h3.142v0.688h-3.142v1.919h3.462V399.326z"/>
		<path class="st6" d="M228.509,399.326h-0.704v-4.182h0.664v0.695h0.016c0.28-0.487,0.647-0.815,1.175-0.815
			c0.088,0,0.128,0.009,0.184,0.024v0.728h-0.264c-0.656,0-1.071,0.512-1.071,1.119V399.326z"/>
		<path class="st6" d="M231.173,399.326h-0.704v-4.182h0.664v0.695h0.016c0.28-0.487,0.647-0.815,1.175-0.815
			c0.088,0,0.128,0.009,0.184,0.024v0.728h-0.264c-0.656,0-1.071,0.512-1.071,1.119V399.326z"/>
		<path class="st6" d="M234.74,395.024c1.335,0,1.943,1.128,1.943,2.207s-0.607,2.207-1.943,2.207c-1.335,0-1.943-1.128-1.943-2.207
			S233.405,395.024,234.74,395.024z M234.74,398.831c1.008,0,1.215-1.04,1.215-1.6s-0.208-1.599-1.215-1.599
			c-1.007,0-1.215,1.039-1.215,1.599S233.733,398.831,234.74,398.831z"/>
		<path class="st6" d="M238.285,399.326h-0.704v-4.182h0.664v0.695h0.016c0.28-0.487,0.647-0.815,1.175-0.815
			c0.088,0,0.128,0.009,0.184,0.024v0.728h-0.264c-0.656,0-1.071,0.512-1.071,1.119V399.326z"/>
	</g>
	<g class="st5">
		<path class="st6" d="M226.779,427.673h-4.238v-5.741h4.182v0.688h-3.406v1.76h3.142v0.688h-3.142v1.919h3.462V427.673z"/>
		<path class="st6" d="M228.509,427.673h-0.704v-4.182h0.664v0.695h0.016c0.28-0.487,0.647-0.815,1.175-0.815
			c0.088,0,0.128,0.008,0.184,0.023v0.729h-0.264c-0.656,0-1.071,0.512-1.071,1.119V427.673z"/>
		<path class="st6" d="M231.173,427.673h-0.704v-4.182h0.664v0.695h0.016c0.28-0.487,0.647-0.815,1.175-0.815
			c0.088,0,0.128,0.008,0.184,0.023v0.729h-0.264c-0.656,0-1.071,0.512-1.071,1.119V427.673z"/>
		<path class="st6" d="M234.74,423.372c1.335,0,1.943,1.127,1.943,2.207c0,1.079-0.607,2.206-1.943,2.206
			c-1.335,0-1.943-1.127-1.943-2.206C232.797,424.499,233.405,423.372,234.74,423.372z M234.74,427.177
			c1.008,0,1.215-1.039,1.215-1.599s-0.208-1.6-1.215-1.6c-1.007,0-1.215,1.04-1.215,1.6S233.733,427.177,234.74,427.177z"/>
		<path class="st6" d="M238.285,427.673h-0.704v-4.182h0.664v0.695h0.016c0.28-0.487,0.647-0.815,1.175-0.815
			c0.088,0,0.128,0.008,0.184,0.023v0.729h-0.264c-0.656,0-1.071,0.512-1.071,1.119V427.673z"/>
		<path class="st6" d="M241.132,427.673h-0.775v-5.741h0.775V427.673z"/>
		<path class="st6" d="M242.501,421.932h2.326c1.496,0,2.415,1.136,2.415,2.791c0,1.287-0.56,2.95-2.446,2.95h-2.295V421.932z
			 M243.277,427.009h1.503c1.008,0,1.663-0.791,1.663-2.238s-0.663-2.175-1.719-2.175h-1.447V427.009z"/>
	</g>
	<g class="st5">
		<path class="st6" d="M291.004,427.825c-1.614,0-1.927-1.72-1.927-2.887s0.312-2.887,1.927-2.887c1.615,0,1.928,1.72,1.928,2.887
			S292.62,427.825,291.004,427.825z M291.004,422.683c-0.808,0-1.175,0.848-1.175,2.255s0.367,2.255,1.175,2.255
			s1.176-0.848,1.176-2.255S291.812,422.683,291.004,422.683z"/>
	</g>
	<g class="st5">
		<path class="st7" d="M273.678,280.08c-0.68,1.279-1.088,2.047-1.088,3.966c0,1.319,0.456,2.295,1.096,3.551h-0.472
			c-0.832-1.248-1.375-2.247-1.375-3.742c0-1.407,0.487-2.543,1.351-3.774H273.678z"/>
		<path class="st7" d="M276.83,285.941h-0.752v-3.99h-1.311v-0.56c0.911-0.063,1.287-0.152,1.511-1.071h0.552V285.941z"/>
		<path class="st7" d="M278.687,287.596c0.68-1.279,1.088-2.047,1.088-3.966c0-1.319-0.456-2.295-1.096-3.551h0.472
			c0.832,1.248,1.375,2.247,1.375,3.742c0,1.407-0.487,2.543-1.351,3.774H278.687z"/>
	</g>
	<g class="st5">
		<path class="st7" d="M336.67,280.08c-0.68,1.279-1.088,2.047-1.088,3.966c0,1.319,0.456,2.295,1.096,3.551h-0.472
			c-0.832-1.248-1.375-2.247-1.375-3.742c0-1.407,0.487-2.543,1.351-3.774H336.67z"/>
		<path class="st7" d="M337.303,282.334c0-1.831,1.335-2.015,1.943-2.015c0.975,0,1.759,0.632,1.759,1.679
			c0,1.008-0.664,1.432-1.503,1.879l-0.584,0.32c-0.768,0.424-0.936,0.863-0.968,1.079h3.055v0.664h-3.846
			c0.04-1.168,0.567-1.791,1.319-2.231l0.743-0.432c0.6-0.344,1.031-0.575,1.031-1.311c0-0.448-0.288-1.016-1.111-1.016
			c-1.063,0-1.111,0.991-1.135,1.383H337.303z"/>
		<path class="st7" d="M341.679,287.596c0.68-1.279,1.088-2.047,1.088-3.966c0-1.319-0.456-2.295-1.096-3.551h0.472
			c0.832,1.248,1.375,2.247,1.375,3.742c0,1.407-0.487,2.543-1.351,3.774H341.679z"/>
	</g>
	<g class="st5">
		<path class="st7" d="M368.167,280.08c-0.68,1.279-1.088,2.047-1.088,3.966c0,1.319,0.456,2.295,1.096,3.551h-0.472
			c-0.832-1.248-1.375-2.247-1.375-3.742c0-1.407,0.487-2.543,1.351-3.774H368.167z"/>
		<path class="st7" d="M370.239,282.743c0.12,0.008,0.248,0.016,0.367,0.016c0.544,0,1.072-0.216,1.072-0.919
			c0-0.336-0.2-0.888-1.04-0.888c-0.999,0-1.063,0.815-1.096,1.207h-0.688c0-0.823,0.336-1.839,1.815-1.839
			c1.087,0,1.735,0.624,1.735,1.479c0,0.719-0.416,1.063-0.72,1.159v0.016c0.543,0.176,0.936,0.56,0.936,1.312
			c0,0.919-0.592,1.807-2.023,1.807c-0.416,0-0.768-0.104-1.039-0.248c-0.624-0.327-0.792-0.975-0.84-1.623h0.728
			c0.024,0.528,0.152,1.239,1.199,1.239c0.72,0,1.224-0.439,1.224-1.087c0-0.943-0.831-1.031-1.312-1.031
			c-0.104,0-0.216,0.008-0.319,0.008V282.743z"/>
		<path class="st7" d="M373.175,287.596c0.68-1.279,1.088-2.047,1.088-3.966c0-1.319-0.456-2.295-1.096-3.551h0.472
			c0.832,1.248,1.375,2.247,1.375,3.742c0,1.407-0.487,2.543-1.351,3.774H373.175z"/>
	</g>
	<g class="st5">
		<path class="st7" d="M475.255,280.08c-0.68,1.279-1.088,2.047-1.088,3.966c0,1.319,0.456,2.295,1.096,3.551h-0.472
			c-0.832-1.248-1.375-2.247-1.375-3.742c0-1.407,0.487-2.543,1.351-3.774H475.255z"/>
		<path class="st7" d="M478.895,284.574v1.367h-0.704v-1.367h-2.454v-0.688l2.574-3.566h0.584v3.646h0.823v0.608H478.895z
			 M476.384,283.965h1.807v-2.55h-0.016L476.384,283.965z"/>
		<path class="st7" d="M480.265,287.596c0.679-1.279,1.087-2.047,1.087-3.966c0-1.319-0.456-2.295-1.096-3.551h0.472
			c0.832,1.248,1.376,2.247,1.376,3.742c0,1.407-0.488,2.543-1.352,3.774H480.265z"/>
	</g>
	<g class="st5">
		<path class="st7" d="M525.65,280.08c-0.68,1.279-1.088,2.047-1.088,3.966c0,1.319,0.456,2.295,1.096,3.551h-0.472
			c-0.832-1.248-1.375-2.247-1.375-3.742c0-1.407,0.487-2.543,1.351-3.774H525.65z"/>
		<path class="st7" d="M527.107,282.67c0.239-0.184,0.583-0.352,1.087-0.352c0.911,0,1.847,0.64,1.847,1.799
			c0,0.624-0.279,1.975-2.038,1.975c-0.736,0-1.68-0.296-1.815-1.551h0.728c0.072,0.655,0.56,0.943,1.191,0.943
			c0.728,0,1.184-0.584,1.184-1.287c0-0.808-0.552-1.247-1.248-1.247c-0.407,0-0.775,0.191-1.039,0.535l-0.607-0.032l0.424-3.014
			h2.91v0.688h-2.383L527.107,282.67z"/>
		<path class="st7" d="M530.66,287.596c0.679-1.279,1.087-2.047,1.087-3.966c0-1.319-0.456-2.295-1.096-3.551h0.472
			c0.832,1.248,1.376,2.247,1.376,3.742c0,1.407-0.488,2.543-1.352,3.774H530.66z"/>
	</g>
	<g class="st5">
		<path class="st7" d="M538.247,280.08c-0.68,1.279-1.088,2.047-1.088,3.966c0,1.319,0.456,2.295,1.096,3.551h-0.472
			c-0.831-1.248-1.375-2.247-1.375-3.742c0-1.407,0.487-2.543,1.351-3.774H538.247z"/>
		<path class="st7" d="M541.862,281.815c-0.088-0.496-0.359-0.863-0.967-0.863c-1.104,0-1.336,1.487-1.336,2.078l0.017,0.017
			c0.176-0.304,0.567-0.688,1.335-0.688c0.688,0,1.759,0.439,1.759,1.783c0,0.575-0.151,0.991-0.535,1.407
			c-0.296,0.327-0.632,0.543-1.424,0.543c-0.432,0-1.047-0.191-1.447-0.815c-0.336-0.527-0.432-1.215-0.432-1.951
			c0-1.23,0.399-3.006,2.079-3.006c0.647,0,1.567,0.352,1.639,1.495H541.862z M540.838,285.46c0.672,0,1.104-0.527,1.104-1.287
			c0-0.495-0.264-1.183-1.136-1.183c-0.775,0-1.151,0.56-1.151,1.223C539.655,284.813,540.015,285.46,540.838,285.46z"/>
		<path class="st7" d="M543.256,287.596c0.68-1.279,1.087-2.047,1.087-3.966c0-1.319-0.456-2.295-1.096-3.551h0.472
			c0.832,1.248,1.376,2.247,1.376,3.742c0,1.407-0.488,2.543-1.352,3.774H543.256z"/>
	</g>
	<g>
		<path d="M68.969,12.455c-0.216-1.008-1.056-1.191-1.607-1.191c-1.04,0-1.879,0.768-1.879,2.279c0,1.351,0.479,2.391,1.903,2.391
			c0.504,0,1.375-0.24,1.639-1.575h0.751c-0.32,2.167-2.079,2.263-2.51,2.263c-1.304,0-2.583-0.848-2.583-3.054
			c0-1.767,1.008-2.99,2.679-2.99c1.479,0,2.247,0.919,2.359,1.879H68.969z"/>
		<path d="M70.627,12.287h0.664v0.592h0.016c0.152-0.224,0.512-0.712,1.263-0.712c0.752,0,0.992,0.456,1.112,0.68
			c0.352-0.392,0.631-0.68,1.279-0.68c0.448,0,1.295,0.232,1.295,1.407v2.895h-0.704v-2.703c0-0.576-0.176-0.967-0.775-0.967
			c-0.592,0-0.983,0.56-0.983,1.119v2.551H73.09v-2.895c0-0.352-0.136-0.775-0.656-0.775c-0.4,0-1.104,0.256-1.104,1.391v2.279
			h-0.704V12.287z"/>
		<path d="M80.761,16.468h-0.664v-0.576h-0.016c-0.304,0.568-0.783,0.696-1.191,0.696c-1.423,0-1.839-1.335-1.839-2.335
			c0-1.175,0.632-2.087,1.743-2.087c0.76,0,1.079,0.472,1.247,0.712l0.016-0.056v-2.095h0.704V16.468z M78.906,15.98
			c0.448,0,1.144-0.296,1.144-1.407c0-0.68-0.112-1.775-1.127-1.775c-1.087,0-1.144,1.031-1.144,1.567
			C77.779,15.285,78.139,15.98,78.906,15.98z"/>
		<path d="M85.521,10.728h0.872l-2.095,5.741h-0.823l-2.095-5.741h0.863l1.639,4.893h0.016L85.521,10.728z"/>
		<path d="M87.051,13.558c0.032-1,0.696-1.392,1.727-1.392c0.336,0,1.551,0.096,1.551,1.167v2.407c0,0.176,0.088,0.248,0.232,0.248
			c0.064,0,0.152-0.016,0.232-0.032v0.512c-0.12,0.032-0.224,0.08-0.384,0.08c-0.624,0-0.72-0.32-0.744-0.64
			c-0.272,0.296-0.696,0.68-1.511,0.68c-0.768,0-1.311-0.488-1.311-1.208c0-0.352,0.104-1.167,1.271-1.311l1.16-0.144
			c0.167-0.016,0.368-0.08,0.368-0.496c0-0.44-0.32-0.68-0.983-0.68c-0.8,0-0.912,0.487-0.959,0.808H87.051z M89.625,14.333
			c-0.112,0.088-0.288,0.152-1.159,0.264c-0.344,0.048-0.896,0.152-0.896,0.68c0,0.456,0.231,0.728,0.759,0.728
			c0.656,0,1.295-0.424,1.295-0.983V14.333z"/>
		<path d="M92.243,16.468h-0.704v-5.741h0.704V16.468z"/>
		<path d="M96.025,16.468v-0.607l-0.016-0.016c-0.295,0.488-0.655,0.744-1.327,0.744c-0.616,0-1.359-0.296-1.359-1.295v-3.006h0.704
			v2.774c0,0.688,0.352,0.919,0.807,0.919c0.888,0,1.151-0.784,1.151-1.391v-2.303h0.704v4.182H96.025z"/>
		<path d="M101.297,15.157c-0.024,0.2-0.216,0.792-0.744,1.144c-0.192,0.128-0.464,0.288-1.135,0.288
			c-1.175,0-1.871-0.888-1.871-2.095c0-1.295,0.624-2.327,2.007-2.327c1.208,0,1.799,0.959,1.799,2.439h-3.055
			c0,0.872,0.408,1.375,1.215,1.375c0.664,0,1.056-0.512,1.08-0.824H101.297z M100.625,14.045c-0.04-0.647-0.312-1.247-1.167-1.247
			c-0.648,0-1.16,0.6-1.16,1.247H100.625z"/>
	</g>
	<g>
		<path d="M15.12,84.784v-0.4h4.446v0.4H15.12z"/>
		<path d="M24.9,83.784v-3.39c0-0.168,0.016-0.896,0.016-1.431H24.9l-1.615,4.821h-0.768l-1.615-4.813h-0.016
			c0,0.528,0.016,1.255,0.016,1.423v3.39h-0.752v-5.741h1.112l1.639,4.853h0.016l1.631-4.853h1.103v5.741H24.9z"/>
		<path d="M30.869,79.771c-0.216-1.008-1.056-1.191-1.607-1.191c-1.04,0-1.879,0.768-1.879,2.279c0,1.351,0.479,2.391,1.903,2.391
			c0.504,0,1.375-0.24,1.639-1.575h0.751c-0.32,2.167-2.079,2.263-2.51,2.263c-1.304,0-2.583-0.848-2.583-3.054
			c0-1.767,1.008-2.99,2.679-2.99c1.479,0,2.247,0.919,2.359,1.879H30.869z"/>
		<path d="M32.007,84.784v-0.4h4.446v0.4H32.007z"/>
		<path d="M37.966,82.113l-0.6,1.671h-0.8l2.159-5.741h0.88l2.079,5.741h-0.847l-0.568-1.671H37.966z M39.989,81.425l-0.848-2.526
			h-0.016l-0.919,2.526H39.989z"/>
		<path d="M45.709,83.784h-0.896l-1.04-1.575l-1.007,1.575h-0.888l1.471-2.151l-1.399-2.031h0.903l0.967,1.471l0.968-1.471h0.863
			l-1.415,2.031L45.709,83.784z"/>
		<path d="M46.327,78.843v-0.799h0.704v0.799H46.327z M47.03,83.784h-0.704v-4.182h0.704V83.784z"/>
		<path d="M50.461,80.794c-0.008-0.264-0.104-0.704-0.992-0.704c-0.216,0-0.832,0.072-0.832,0.591c0,0.344,0.216,0.424,0.76,0.56
			l0.704,0.176c0.872,0.216,1.175,0.536,1.175,1.104c0,0.863-0.711,1.383-1.655,1.383c-1.655,0-1.775-0.959-1.799-1.463h0.68
			c0.024,0.328,0.12,0.855,1.111,0.855c0.504,0,0.959-0.2,0.959-0.664c0-0.336-0.232-0.448-0.832-0.6l-0.815-0.2
			c-0.584-0.144-0.968-0.439-0.968-1.015c0-0.919,0.76-1.335,1.583-1.335c1.495,0,1.599,1.104,1.599,1.312H50.461z"/>
		<path d="M52.702,84.784h0.864v0.568h-1.495v-7.34h1.495v0.568h-0.864V84.784z"/>
		<path d="M58.205,78.043h0.751v5.741h-0.872l-2.918-4.638H55.15v4.638h-0.752v-5.741h0.92l2.87,4.637h0.016V78.043z"/>
		<path d="M60.654,78.579h-0.863v-0.568h1.495v7.34h-1.495v-0.568h0.863V78.579z"/>
		<path d="M63.318,83.784h-0.832v-0.848h0.832V83.784z"/>
		<path d="M68.085,79.723c-0.04-0.888-0.775-1.167-1.423-1.167c-0.488,0-1.311,0.136-1.311,1.007c0,0.488,0.344,0.647,0.68,0.728
			l1.639,0.376c0.744,0.176,1.304,0.624,1.304,1.535c0,1.359-1.264,1.735-2.247,1.735c-1.063,0-1.479-0.32-1.735-0.552
			c-0.488-0.439-0.584-0.919-0.584-1.455h0.728c0,1.04,0.847,1.343,1.583,1.343c0.56,0,1.503-0.144,1.503-0.967
			c0-0.6-0.28-0.792-1.223-1.016l-1.175-0.272c-0.376-0.088-1.224-0.352-1.224-1.351c0-0.896,0.584-1.775,1.975-1.775
			c2.007,0,2.207,1.199,2.239,1.831H68.085z"/>
		<path d="M72.485,79.603h0.775c-0.487,1.367-0.967,2.734-1.503,4.102c-0.664,1.695-0.736,1.791-1.639,1.791
			c-0.104,0-0.184-0.032-0.296-0.064v-0.64c0.088,0.032,0.232,0.072,0.424,0.072c0.368,0,0.408-0.104,0.744-0.968l-1.551-4.293h0.8
			l1.111,3.406h0.016L72.485,79.603z"/>
		<path d="M77.277,83.784h-0.704v-2.575c0-0.728-0.208-1.095-0.896-1.095c-0.4,0-1.104,0.256-1.104,1.391v2.279h-0.704v-4.182h0.664
			v0.592h0.016c0.152-0.224,0.544-0.712,1.263-0.712c0.648,0,1.463,0.264,1.463,1.455V83.784z"/>
		<path d="M80.933,81.01c-0.088-0.56-0.4-0.896-0.992-0.896c-0.871,0-1.151,0.832-1.151,1.575c0,0.72,0.176,1.607,1.144,1.607
			c0.472,0,0.879-0.352,1-0.991h0.68c-0.072,0.664-0.48,1.599-1.703,1.599c-1.175,0-1.871-0.888-1.871-2.095
			c0-1.295,0.624-2.327,2.007-2.327c1.096,0,1.511,0.8,1.567,1.527H80.933z"/>
		<path d="M85.869,79.723c-0.04-0.888-0.776-1.167-1.423-1.167c-0.488,0-1.311,0.136-1.311,1.007c0,0.488,0.344,0.647,0.679,0.728
			l1.639,0.376c0.744,0.176,1.303,0.624,1.303,1.535c0,1.359-1.263,1.735-2.247,1.735c-1.063,0-1.479-0.32-1.735-0.552
			c-0.488-0.439-0.584-0.919-0.584-1.455h0.728c0,1.04,0.848,1.343,1.583,1.343c0.56,0,1.503-0.144,1.503-0.967
			c0-0.6-0.28-0.792-1.223-1.016l-1.175-0.272c-0.376-0.088-1.224-0.352-1.224-1.351c0-0.896,0.584-1.775,1.975-1.775
			c2.007,0,2.207,1.199,2.239,1.831H85.869z"/>
		<path d="M88.518,80.186v2.719c0,0.328,0.28,0.328,0.424,0.328h0.248v0.552c-0.256,0.024-0.456,0.056-0.527,0.056
			c-0.696,0-0.848-0.392-0.848-0.896v-2.759h-0.568v-0.583h0.568v-1.167h0.704v1.167h0.671v0.583H88.518z"/>
		<path d="M89.854,80.874c0.032-1,0.696-1.392,1.727-1.392c0.336,0,1.551,0.096,1.551,1.167v2.407c0,0.176,0.088,0.248,0.232,0.248
			c0.064,0,0.152-0.016,0.232-0.032v0.512c-0.12,0.032-0.224,0.08-0.384,0.08c-0.624,0-0.72-0.32-0.744-0.64
			c-0.272,0.296-0.696,0.68-1.511,0.68c-0.768,0-1.312-0.488-1.312-1.208c0-0.352,0.104-1.167,1.271-1.311l1.159-0.144
			c0.168-0.016,0.368-0.08,0.368-0.496c0-0.44-0.32-0.68-0.983-0.68c-0.8,0-0.912,0.487-0.959,0.808H89.854z M92.429,81.649
			c-0.112,0.088-0.288,0.152-1.159,0.264c-0.344,0.048-0.896,0.152-0.896,0.68c0,0.456,0.232,0.728,0.759,0.728
			c0.656,0,1.295-0.424,1.295-0.983V81.649z"/>
		<path d="M95.19,80.186v2.719c0,0.328,0.28,0.328,0.424,0.328h0.248v0.552c-0.256,0.024-0.456,0.056-0.527,0.056
			c-0.696,0-0.848-0.392-0.848-0.896v-2.759h-0.568v-0.583h0.568v-1.167h0.704v1.167h0.671v0.583H95.19z"/>
		<path d="M99.277,83.784v-0.607l-0.016-0.016c-0.295,0.488-0.655,0.744-1.327,0.744c-0.616,0-1.359-0.296-1.359-1.295v-3.006h0.704
			v2.774c0,0.688,0.352,0.919,0.807,0.919c0.888,0,1.151-0.784,1.151-1.391v-2.303h0.704v4.182H99.277z"/>
		<path d="M103.373,80.794c-0.008-0.264-0.104-0.704-0.992-0.704c-0.216,0-0.832,0.072-0.832,0.591c0,0.344,0.216,0.424,0.76,0.56
			l0.704,0.176c0.872,0.216,1.175,0.536,1.175,1.104c0,0.863-0.711,1.383-1.655,1.383c-1.655,0-1.775-0.959-1.799-1.463h0.68
			c0.024,0.328,0.12,0.855,1.111,0.855c0.504,0,0.959-0.2,0.959-0.664c0-0.336-0.232-0.448-0.832-0.6l-0.815-0.2
			c-0.584-0.144-0.968-0.439-0.968-1.015c0-0.919,0.76-1.335,1.583-1.335c1.495,0,1.599,1.104,1.599,1.312H103.373z"/>
		<path d="M106.006,83.784h-0.832v-0.848h0.832V83.784z"/>
		<path d="M5.333,97.784v-3.39c0-0.168,0.016-0.896,0.016-1.431H5.333l-1.615,4.821H2.95l-1.615-4.813H1.319
			c0,0.528,0.016,1.255,0.016,1.423v3.39H0.583v-5.741h1.112l1.639,4.853H3.35l1.631-4.853h1.103v5.741H5.333z"/>
		<path d="M7.16,94.874c0.032-1,0.696-1.392,1.727-1.392c0.336,0,1.551,0.096,1.551,1.167v2.407c0,0.176,0.088,0.248,0.232,0.248
			c0.064,0,0.152-0.016,0.232-0.032v0.512c-0.12,0.032-0.224,0.08-0.384,0.08c-0.624,0-0.72-0.32-0.744-0.64
			c-0.272,0.296-0.696,0.68-1.511,0.68c-0.768,0-1.311-0.488-1.311-1.208c0-0.352,0.104-1.167,1.271-1.311l1.16-0.144
			c0.167-0.016,0.368-0.08,0.368-0.496c0-0.44-0.32-0.68-0.983-0.68c-0.8,0-0.912,0.487-0.959,0.808H7.16z M9.734,95.649
			c-0.112,0.088-0.288,0.152-1.159,0.264c-0.344,0.048-0.896,0.152-0.896,0.68c0,0.456,0.231,0.728,0.759,0.728
			c0.656,0,1.295-0.424,1.295-0.983V95.649z"/>
		<path d="M11.648,92.843v-0.799h0.704v0.799H11.648z M12.352,97.784h-0.704v-4.182h0.704V97.784z"/>
		<path d="M16.814,97.784H16.11v-2.575c0-0.728-0.208-1.095-0.896-1.095c-0.4,0-1.104,0.256-1.104,1.391v2.279h-0.704v-4.182h0.664
			v0.592h0.016c0.152-0.224,0.544-0.712,1.263-0.712c0.648,0,1.463,0.264,1.463,1.455V97.784z"/>
		<path d="M18.847,96.113l-0.6,1.671h-0.8l2.159-5.741h0.88l2.079,5.741h-0.847l-0.568-1.671H18.847z M20.87,95.425l-0.848-2.526
			h-0.016l-0.919,2.526H20.87z"/>
		<path d="M26.59,97.784h-0.896l-1.04-1.575l-1.007,1.575H22.76l1.471-2.151l-1.399-2.031h0.903l0.967,1.471l0.968-1.471h0.863
			l-1.415,2.031L26.59,97.784z"/>
		<path d="M27.208,92.843v-0.799h0.704v0.799H27.208z M27.911,97.784h-0.704v-4.182h0.704V97.784z"/>
		<path d="M31.342,94.794c-0.008-0.264-0.104-0.704-0.992-0.704c-0.216,0-0.832,0.072-0.832,0.591c0,0.344,0.216,0.424,0.76,0.56
			l0.704,0.176c0.872,0.216,1.175,0.536,1.175,1.104c0,0.863-0.711,1.383-1.655,1.383c-1.655,0-1.775-0.959-1.799-1.463h0.68
			c0.024,0.328,0.12,0.855,1.111,0.855c0.504,0,0.959-0.2,0.959-0.664c0-0.336-0.232-0.448-0.832-0.6l-0.815-0.2
			c-0.584-0.144-0.968-0.439-0.968-1.015c0-0.919,0.76-1.335,1.583-1.335c1.495,0,1.599,1.104,1.599,1.312H31.342z"/>
		<path d="M33.911,97.784h-0.776v-5.741h2.583c1.063,0,1.703,0.688,1.703,1.615c0,0.8-0.456,1.703-1.703,1.703h-1.807V97.784z
			 M33.911,94.698h1.543c0.696,0,1.167-0.256,1.167-1.031c0-0.728-0.496-0.959-1.135-0.959h-1.575V94.698z"/>
		<path d="M41.709,97.784h-0.704V95.05c0-0.568-0.16-0.936-0.832-0.936c-0.576,0-1.167,0.336-1.167,1.391v2.279h-0.704v-5.741h0.704
			v2.119h0.016c0.2-0.264,0.552-0.68,1.223-0.68c0.648,0,1.463,0.264,1.463,1.455V97.784z"/>
		<path d="M42.727,94.874c0.032-1,0.696-1.392,1.727-1.392c0.336,0,1.551,0.096,1.551,1.167v2.407c0,0.176,0.088,0.248,0.232,0.248
			c0.064,0,0.152-0.016,0.232-0.032v0.512c-0.12,0.032-0.224,0.08-0.384,0.08c-0.624,0-0.72-0.32-0.744-0.64
			c-0.272,0.296-0.696,0.68-1.511,0.68c-0.768,0-1.311-0.488-1.311-1.208c0-0.352,0.104-1.167,1.271-1.311l1.16-0.144
			c0.167-0.016,0.368-0.08,0.368-0.496c0-0.44-0.32-0.68-0.983-0.68c-0.8,0-0.912,0.487-0.959,0.808H42.727z M45.302,95.649
			c-0.112,0.088-0.288,0.152-1.159,0.264c-0.344,0.048-0.896,0.152-0.896,0.68c0,0.456,0.231,0.728,0.759,0.728
			c0.656,0,1.295-0.424,1.295-0.983V95.649z"/>
		<path d="M49.574,94.794c-0.008-0.264-0.104-0.704-0.992-0.704c-0.216,0-0.832,0.072-0.832,0.591c0,0.344,0.216,0.424,0.76,0.56
			l0.704,0.176c0.872,0.216,1.175,0.536,1.175,1.104c0,0.863-0.711,1.383-1.655,1.383c-1.655,0-1.775-0.959-1.799-1.463h0.68
			c0.024,0.328,0.12,0.855,1.111,0.855c0.504,0,0.959-0.2,0.959-0.664c0-0.336-0.232-0.448-0.832-0.6l-0.815-0.2
			c-0.584-0.144-0.968-0.439-0.968-1.015c0-0.919,0.76-1.335,1.583-1.335c1.495,0,1.599,1.104,1.599,1.312H49.574z"/>
		<path d="M54.75,96.473c-0.024,0.2-0.216,0.792-0.744,1.144c-0.192,0.128-0.464,0.288-1.135,0.288
			c-1.175,0-1.871-0.888-1.871-2.095c0-1.295,0.624-2.327,2.007-2.327c1.208,0,1.799,0.959,1.799,2.439h-3.055
			c0,0.872,0.408,1.375,1.215,1.375c0.664,0,1.056-0.512,1.08-0.824H54.75z M54.078,95.361c-0.04-0.647-0.312-1.247-1.167-1.247
			c-0.648,0-1.16,0.6-1.16,1.247H54.078z"/>
		<path d="M59.766,93.771c-0.216-1.008-1.056-1.191-1.607-1.191c-1.04,0-1.879,0.768-1.879,2.279c0,1.351,0.479,2.391,1.903,2.391
			c0.504,0,1.375-0.24,1.639-1.575h0.751c-0.32,2.167-2.079,2.263-2.51,2.263c-1.304,0-2.583-0.848-2.583-3.054
			c0-1.767,1.008-2.99,2.679-2.99c1.479,0,2.247,0.919,2.359,1.879H59.766z"/>
		<path d="M63.126,93.482c1.335,0,1.943,1.127,1.943,2.207c0,1.079-0.607,2.207-1.943,2.207c-1.335,0-1.943-1.127-1.943-2.207
			C61.184,94.61,61.792,93.482,63.126,93.482z M63.126,97.289c1.007,0,1.215-1.04,1.215-1.599s-0.208-1.599-1.215-1.599
			s-1.215,1.04-1.215,1.599S62.119,97.289,63.126,97.289z"/>
		<path d="M65.871,93.603h0.664v0.592h0.016c0.152-0.224,0.512-0.712,1.264-0.712c0.751,0,0.991,0.456,1.111,0.68
			c0.352-0.392,0.631-0.68,1.279-0.68c0.448,0,1.295,0.232,1.295,1.407v2.895h-0.704v-2.703c0-0.576-0.176-0.967-0.775-0.967
			c-0.592,0-0.983,0.56-0.983,1.119v2.551h-0.704V94.89c0-0.352-0.136-0.775-0.656-0.775c-0.4,0-1.104,0.256-1.104,1.391v2.279
			h-0.704V93.603z"/>
		<path d="M72.479,93.603h0.664v0.592h0.016c0.168-0.24,0.487-0.712,1.247-0.712c1.111,0,1.743,0.912,1.743,2.087
			c0,1-0.416,2.335-1.839,2.335c-0.56,0-0.928-0.264-1.111-0.56h-0.016v2.095h-0.704V93.603z M74.294,97.296
			c0.768,0,1.127-0.696,1.127-1.615c0-0.536-0.056-1.567-1.144-1.567c-1.016,0-1.127,1.095-1.127,1.775
			C73.151,97,73.847,97.296,74.294,97.296z"/>
		<path d="M80.534,96.473c-0.024,0.2-0.216,0.792-0.744,1.144c-0.192,0.128-0.464,0.288-1.135,0.288
			c-1.175,0-1.871-0.888-1.871-2.095c0-1.295,0.624-2.327,2.007-2.327c1.208,0,1.799,0.959,1.799,2.439h-3.055
			c0,0.872,0.408,1.375,1.215,1.375c0.664,0,1.056-0.512,1.08-0.824H80.534z M79.862,95.361c-0.04-0.647-0.312-1.247-1.167-1.247
			c-0.648,0-1.16,0.6-1.16,1.247H79.862z"/>
		<path d="M84.838,97.784h-0.704v-2.575c0-0.728-0.208-1.095-0.896-1.095c-0.4,0-1.104,0.256-1.104,1.391v2.279h-0.704v-4.182h0.664
			v0.592h0.016c0.152-0.224,0.544-0.712,1.264-0.712c0.647,0,1.463,0.264,1.463,1.455V97.784z"/>
		<path d="M88.255,94.794c-0.008-0.264-0.104-0.704-0.992-0.704c-0.216,0-0.832,0.072-0.832,0.591c0,0.344,0.216,0.424,0.76,0.56
			l0.704,0.176c0.872,0.216,1.175,0.536,1.175,1.104c0,0.863-0.711,1.383-1.655,1.383c-1.655,0-1.775-0.959-1.799-1.463h0.68
			c0.024,0.328,0.12,0.855,1.111,0.855c0.504,0,0.959-0.2,0.959-0.664c0-0.336-0.232-0.448-0.832-0.6l-0.815-0.2
			c-0.584-0.144-0.968-0.439-0.968-1.015c0-0.919,0.76-1.335,1.583-1.335c1.495,0,1.599,1.104,1.599,1.312H88.255z"/>
		<path d="M89.856,94.874c0.032-1,0.696-1.392,1.727-1.392c0.336,0,1.551,0.096,1.551,1.167v2.407c0,0.176,0.088,0.248,0.232,0.248
			c0.064,0,0.152-0.016,0.232-0.032v0.512c-0.12,0.032-0.224,0.08-0.384,0.08c-0.624,0-0.72-0.32-0.744-0.64
			c-0.272,0.296-0.696,0.68-1.511,0.68c-0.768,0-1.311-0.488-1.311-1.208c0-0.352,0.104-1.167,1.271-1.311l1.16-0.144
			c0.167-0.016,0.368-0.08,0.368-0.496c0-0.44-0.32-0.68-0.983-0.68c-0.8,0-0.912,0.487-0.959,0.808H89.856z M92.431,95.649
			c-0.112,0.088-0.288,0.152-1.159,0.264c-0.344,0.048-0.896,0.152-0.896,0.68c0,0.456,0.231,0.728,0.759,0.728
			c0.656,0,1.295-0.424,1.295-0.983V95.649z"/>
		<path d="M95.192,94.186v2.719c0,0.328,0.28,0.328,0.424,0.328h0.248v0.552c-0.256,0.024-0.456,0.056-0.527,0.056
			c-0.696,0-0.848-0.392-0.848-0.896v-2.759H93.92v-0.583h0.568v-1.167h0.704v1.167h0.671v0.583H95.192z"/>
		<path d="M96.568,92.843v-0.799h0.704v0.799H96.568z M97.272,97.784h-0.704v-4.182h0.704V97.784z"/>
		<path d="M100.031,93.482c1.335,0,1.943,1.127,1.943,2.207c0,1.079-0.607,2.207-1.943,2.207c-1.335,0-1.943-1.127-1.943-2.207
			C98.088,94.61,98.696,93.482,100.031,93.482z M100.031,97.289c1.008,0,1.215-1.04,1.215-1.599s-0.208-1.599-1.215-1.599
			c-1.007,0-1.215,1.04-1.215,1.599S99.024,97.289,100.031,97.289z"/>
		<path d="M106.183,97.784h-0.704v-2.575c0-0.728-0.208-1.095-0.896-1.095c-0.4,0-1.104,0.256-1.104,1.391v2.279h-0.704v-4.182
			h0.664v0.592h0.016c0.152-0.224,0.544-0.712,1.264-0.712c0.647,0,1.463,0.264,1.463,1.455V97.784z"/>
	</g>
	<g>
		<path d="M72.073,134.017c-0.216-1.008-1.055-1.191-1.607-1.191c-1.04,0-1.879,0.768-1.879,2.279c0,1.351,0.48,2.391,1.903,2.391
			c0.504,0,1.375-0.24,1.639-1.575h0.751c-0.32,2.167-2.079,2.263-2.51,2.263c-1.303,0-2.583-0.848-2.583-3.054
			c0-1.767,1.007-2.99,2.678-2.99c1.479,0,2.247,0.919,2.359,1.879H72.073z"/>
		<path d="M77.137,138.03h-0.704v-2.734c0-0.568-0.16-0.936-0.832-0.936c-0.576,0-1.167,0.336-1.167,1.391v2.279h-0.704v-5.741
			h0.704v2.119h0.016c0.2-0.264,0.552-0.68,1.224-0.68c0.647,0,1.463,0.264,1.463,1.455V138.03z"/>
		<path d="M78.155,135.12c0.032-1,0.696-1.392,1.727-1.392c0.336,0,1.551,0.096,1.551,1.167v2.407c0,0.176,0.088,0.248,0.232,0.248
			c0.064,0,0.152-0.016,0.232-0.032v0.512c-0.12,0.032-0.224,0.08-0.384,0.08c-0.624,0-0.72-0.32-0.744-0.64
			c-0.272,0.296-0.696,0.68-1.511,0.68c-0.768,0-1.311-0.488-1.311-1.208c0-0.352,0.104-1.167,1.271-1.311l1.16-0.144
			c0.167-0.016,0.368-0.08,0.368-0.496c0-0.44-0.32-0.68-0.983-0.68c-0.8,0-0.912,0.487-0.959,0.808H78.155z M80.73,135.896
			c-0.112,0.088-0.288,0.152-1.159,0.264c-0.344,0.048-0.896,0.152-0.896,0.68c0,0.456,0.231,0.728,0.759,0.728
			c0.656,0,1.295-0.424,1.295-0.983V135.896z"/>
		<path d="M86.034,138.03H85.33v-2.575c0-0.728-0.208-1.095-0.896-1.095c-0.4,0-1.104,0.256-1.104,1.391v2.279h-0.704v-4.182h0.664
			v0.592h0.016c0.152-0.224,0.544-0.712,1.264-0.712c0.647,0,1.463,0.264,1.463,1.455V138.03z"/>
		<path d="M90.546,137.687c0,0.6-0.008,2.103-1.943,2.103c-0.496,0-1.463-0.136-1.599-1.247h0.704
			c0.128,0.664,0.775,0.664,0.943,0.664c1.215,0,1.191-0.976,1.191-1.471v-0.176h-0.016v0.032c-0.184,0.296-0.551,0.56-1.111,0.56
			c-1.423,0-1.839-1.335-1.839-2.335c0-1.175,0.632-2.087,1.743-2.087c0.759,0,1.079,0.472,1.247,0.712h0.016v-0.592h0.664V137.687z
			 M88.731,137.542c0.448,0,1.144-0.296,1.144-1.407c0-0.68-0.112-1.775-1.127-1.775c-1.087,0-1.144,1.031-1.144,1.567
			C87.604,136.847,87.963,137.542,88.731,137.542z"/>
		<path d="M91.54,133.089v-0.799h0.704v0.799H91.54z M92.244,138.03H91.54v-4.182h0.704V138.03z"/>
		<path d="M96.706,138.03h-0.704v-2.575c0-0.728-0.208-1.095-0.896-1.095c-0.4,0-1.104,0.256-1.104,1.391v2.279H93.3v-4.182h0.664
			v0.592h0.016c0.152-0.224,0.544-0.712,1.263-0.712c0.648,0,1.463,0.264,1.463,1.455V138.03z"/>
		<path d="M101.218,137.687c0,0.6-0.008,2.103-1.943,2.103c-0.496,0-1.463-0.136-1.599-1.247h0.704
			c0.128,0.664,0.775,0.664,0.943,0.664c1.215,0,1.191-0.976,1.191-1.471v-0.176h-0.016v0.032c-0.184,0.296-0.551,0.56-1.111,0.56
			c-1.423,0-1.839-1.335-1.839-2.335c0-1.175,0.632-2.087,1.743-2.087c0.759,0,1.079,0.472,1.247,0.712h0.016v-0.592h0.664V137.687z
			 M99.403,137.542c0.448,0,1.144-0.296,1.144-1.407c0-0.68-0.112-1.775-1.127-1.775c-1.087,0-1.144,1.031-1.144,1.567
			C98.275,136.847,98.635,137.542,99.403,137.542z"/>
	</g>
	<g>
		<path d="M451.993,16.468h-0.752v-3.99h-1.311v-0.56c0.911-0.064,1.287-0.152,1.511-1.072h0.552V16.468z"/>
		<path d="M454.746,13.198c0.24-0.184,0.584-0.352,1.088-0.352c0.911,0,1.847,0.64,1.847,1.799c0,0.624-0.279,1.975-2.039,1.975
			c-0.735,0-1.679-0.296-1.814-1.551h0.728c0.072,0.656,0.56,0.944,1.191,0.944c0.728,0,1.184-0.584,1.184-1.288
			c0-0.808-0.552-1.247-1.248-1.247c-0.407,0-0.775,0.192-1.039,0.536l-0.607-0.032l0.424-3.014h2.91v0.688h-2.383L454.746,13.198z"
			/>
		<path d="M460.242,16.62c-1.615,0-1.927-1.719-1.927-2.886c0-1.167,0.312-2.887,1.927-2.887s1.927,1.719,1.927,2.887
			C462.168,14.901,461.857,16.62,460.242,16.62z M460.242,11.479c-0.808,0-1.176,0.848-1.176,2.255s0.368,2.255,1.176,2.255
			s1.175-0.848,1.175-2.255S461.049,11.479,460.242,11.479z"/>
	</g>
	<g>
		<path d="M277.421,12.862c0-1.831,1.336-2.015,1.943-2.015c0.976,0,1.759,0.632,1.759,1.679c0,1.007-0.663,1.431-1.503,1.879
			l-0.584,0.32c-0.768,0.424-0.936,0.864-0.967,1.08h3.054v0.664h-3.846c0.04-1.167,0.567-1.791,1.319-2.231l0.743-0.432
			c0.601-0.344,1.032-0.576,1.032-1.311c0-0.448-0.288-1.016-1.111-1.016c-1.063,0-1.111,0.991-1.136,1.383H277.421z"/>
		<path d="M283.741,16.62c-1.615,0-1.927-1.719-1.927-2.886c0-1.167,0.312-2.887,1.927-2.887s1.928,1.719,1.928,2.887
			C285.668,14.901,285.356,16.62,283.741,16.62z M283.741,11.479c-0.808,0-1.175,0.848-1.175,2.255s0.367,2.255,1.175,2.255
			s1.176-0.848,1.176-2.255S284.548,11.479,283.741,11.479z"/>
		<path d="M288.189,16.62c-1.615,0-1.927-1.719-1.927-2.886c0-1.167,0.312-2.887,1.927-2.887s1.928,1.719,1.928,2.887
			C290.117,14.901,289.804,16.62,288.189,16.62z M288.189,11.479c-0.808,0-1.175,0.848-1.175,2.255s0.367,2.255,1.175,2.255
			s1.176-0.848,1.176-2.255S288.997,11.479,288.189,11.479z"/>
	</g>
	<g>
		<path d="M136.91,16.468h-0.752v-3.99h-1.311v-0.56c0.912-0.064,1.287-0.152,1.511-1.072h0.552V16.468z"/>
		<path d="M140.71,16.62c-1.615,0-1.927-1.719-1.927-2.886c0-1.167,0.312-2.887,1.927-2.887s1.927,1.719,1.927,2.887
			C142.637,14.901,142.325,16.62,140.71,16.62z M140.71,11.479c-0.808,0-1.175,0.848-1.175,2.255s0.368,2.255,1.175,2.255
			s1.175-0.848,1.175-2.255S141.518,11.479,140.71,11.479z"/>
		<path d="M145.158,16.62c-1.615,0-1.927-1.719-1.927-2.886c0-1.167,0.312-2.887,1.927-2.887s1.927,1.719,1.927,2.887
			C147.085,14.901,146.773,16.62,145.158,16.62z M145.158,11.479c-0.808,0-1.175,0.848-1.175,2.255s0.368,2.255,1.175,2.255
			s1.175-0.848,1.175-2.255S145.966,11.479,145.158,11.479z"/>
	</g>
	<g>
		<path d="M143.791,96.373h-0.752v-3.99h-1.311v-0.56c0.912-0.064,1.287-0.152,1.511-1.072h0.552V96.373z"/>
		<path d="M147.591,96.525c-1.615,0-1.927-1.719-1.927-2.886c0-1.167,0.312-2.887,1.927-2.887s1.927,1.719,1.927,2.887
			C149.518,94.806,149.206,96.525,147.591,96.525z M147.591,91.384c-0.808,0-1.175,0.848-1.175,2.255s0.368,2.255,1.175,2.255
			s1.175-0.848,1.175-2.255S148.398,91.384,147.591,91.384z"/>
		<path d="M152.039,96.525c-1.615,0-1.927-1.719-1.927-2.886c0-1.167,0.312-2.887,1.927-2.887s1.927,1.719,1.927,2.887
			C153.966,94.806,153.654,96.525,152.039,96.525z M152.039,91.384c-0.808,0-1.175,0.848-1.175,2.255s0.368,2.255,1.175,2.255
			s1.175-0.848,1.175-2.255S152.847,91.384,152.039,91.384z"/>
	</g>
	<g>
		<path d="M143.791,79.888h-0.752v-3.99h-1.311v-0.56c0.912-0.064,1.287-0.152,1.511-1.072h0.552V79.888z"/>
		<path d="M146.543,76.618c0.24-0.184,0.583-0.352,1.087-0.352c0.912,0,1.847,0.64,1.847,1.799c0,0.624-0.28,1.975-2.039,1.975
			c-0.735,0-1.679-0.296-1.815-1.551h0.728c0.072,0.656,0.56,0.944,1.191,0.944c0.728,0,1.184-0.584,1.184-1.288
			c0-0.808-0.552-1.247-1.248-1.247c-0.408,0-0.775,0.192-1.04,0.536l-0.607-0.032l0.424-3.014h2.91v0.688h-2.383L146.543,76.618z"
			/>
		<path d="M152.039,80.04c-1.615,0-1.927-1.719-1.927-2.886c0-1.167,0.312-2.887,1.927-2.887s1.927,1.719,1.927,2.887
			C153.966,78.321,153.654,80.04,152.039,80.04z M152.039,74.899c-0.808,0-1.175,0.848-1.175,2.255s0.368,2.255,1.175,2.255
			s1.175-0.848,1.175-2.255S152.847,74.899,152.039,74.899z"/>
	</g>
	<g>
		<path d="M141.271,59.797c0-1.831,1.335-2.015,1.943-2.015c0.975,0,1.759,0.632,1.759,1.679c0,1.007-0.664,1.431-1.503,1.879
			l-0.584,0.32c-0.768,0.424-0.936,0.864-0.967,1.08h3.054v0.664h-3.846c0.04-1.167,0.567-1.791,1.319-2.231l0.743-0.432
			c0.6-0.344,1.032-0.576,1.032-1.311c0-0.448-0.288-1.016-1.111-1.016c-1.063,0-1.111,0.991-1.135,1.383H141.271z"/>
		<path d="M147.591,63.555c-1.615,0-1.927-1.719-1.927-2.886c0-1.167,0.312-2.887,1.927-2.887s1.927,1.719,1.927,2.887
			C149.518,61.836,149.206,63.555,147.591,63.555z M147.591,58.414c-0.808,0-1.175,0.848-1.175,2.255s0.368,2.255,1.175,2.255
			s1.175-0.848,1.175-2.255S148.398,58.414,147.591,58.414z"/>
		<path d="M152.039,63.555c-1.615,0-1.927-1.719-1.927-2.886c0-1.167,0.312-2.887,1.927-2.887s1.927,1.719,1.927,2.887
			C153.966,61.836,153.654,63.555,152.039,63.555z M152.039,58.414c-0.808,0-1.175,0.848-1.175,2.255s0.368,2.255,1.175,2.255
			s1.175-0.848,1.175-2.255S152.847,58.414,152.039,58.414z"/>
	</g>
	<g>
	</g>
	<g>
	</g>
	<g>
	</g>
	<g>
	</g>
	<g>
	</g>
	<g>
	</g>
	<g>
	</g>
	<g>
	</g>
	<g>
	</g>
	<g>
	</g>
	<g>
	</g>
	<g>
	</g>
	<g>
	</g>
	<g>
	</g>
	<g>
	</g>
	<g>
	</g>
</g>
</svg>
