<?xml version="1.0" encoding="utf-8"?>
<!-- Generator: Adobe Illustrator 28.2.0, SVG Export Plug-In . SVG Version: 6.00 Build 0)  -->
<svg version="1.1" xmlns="http://www.w3.org/2000/svg" xmlns:xlink="http://www.w3.org/1999/xlink" x="0px" y="0px"
	 width="340.157px" height="284.422px" viewBox="0 0 340.157 284.422" style="enable-background:new 0 0 340.157 284.422;"
	 xml:space="preserve">
<style type="text/css">
	.st0{fill:none;stroke:#666666;stroke-width:0.5;stroke-miterlimit:10;stroke-dasharray:1;}
	.st1{fill:none;stroke:#000000;stroke-miterlimit:10;}
	.st2{fill:#FFFFFF;}
	.st3{fill:#78C8FF;}
	.st4{fill:none;stroke:#000000;stroke-width:0.5;stroke-miterlimit:10;}
	.st5{display:none;}
	.st6{display:inline;}
	.st7{display:inline;fill:#3574F2;}
</style>
<g id="レイヤー_3">
</g>
<g id="レイヤー_1">
	<line class="st0" x1="102.047" y1="12.309" x2="102.047" y2="284.422"/>
	<line class="st0" x1="113.386" y1="12.309" x2="113.386" y2="284.422"/>
	<line class="st0" x1="147.402" y1="12.309" x2="147.402" y2="284.422"/>
	<line class="st0" x1="158.74" y1="12.309" x2="158.74" y2="284.422"/>
	<line class="st0" x1="277.795" y1="12.309" x2="277.795" y2="284.422"/>
	<line class="st0" x1="306.142" y1="12.309" x2="306.142" y2="284.422"/>
	<polyline class="st1" points="340.157,51.994 306.142,51.994 306.142,17.979 232.441,17.979 232.441,51.994 147.402,51.994 
		147.402,17.979 102.047,17.979 102.047,51.994 79.37,51.994 	"/>
	<polyline class="st1" points="340.157,97.349 277.869,97.349 277.869,63.333 232.441,63.333 232.441,97.349 147.402,97.349 
		147.402,63.333 102.047,63.333 102.047,97.349 79.37,97.349 	"/>
	<polyline class="st1" points="340.157,142.703 277.795,142.703 277.795,108.687 243.78,108.687 243.78,142.703 158.74,142.703 
		158.74,108.687 113.426,108.687 113.426,142.703 79.37,142.703 	"/>
	<polyline class="st1" points="340.157,188.057 306.142,188.057 306.142,154.042 277.69,154.042 277.69,188.057 79.37,188.057 	"/>
	<g>
		<rect x="79.37" y="244.75" class="st2" width="260.787" height="34.016"/>
		<rect x="113.386" y="244.75" class="st3" width="45.354" height="34.016"/>
		<rect x="243.866" y="244.75" class="st3" width="33.929" height="34.016"/>
		<line class="st4" x1="340.157" y1="278.766" x2="79.37" y2="278.766"/>
		<line class="st4" x1="340.157" y1="244.75" x2="79.37" y2="244.75"/>
	</g>
	<g>
		<polygon class="st2" points="340.157,233.412 289.239,233.412 266.457,199.396 243.78,199.396 221.322,233.412 113.386,233.412 
			90.709,199.396 79.37,199.396 79.37,233.412 90.709,233.412 113.386,199.396 221.322,199.396 243.78,233.412 266.457,233.412 
			289.239,199.396 340.157,199.396 		"/>
		<polyline class="st1" points="340.157,199.396 289.239,199.396 266.457,233.412 243.78,233.412 221.322,199.396 113.386,199.396 
			90.709,233.412 79.37,233.412 		"/>
		<polyline class="st1" points="340.157,233.412 289.239,233.412 266.457,199.396 243.78,199.396 221.322,233.412 113.386,233.412 
			90.709,199.396 79.37,199.396 		"/>
	</g>
</g>
<g id="レイヤー_2">
	<g class="st5">
		<path class="st6" d="M160.468,266.271h-4.238v-5.74h4.182v0.688h-3.406v1.759h3.142v0.688h-3.142v1.919h3.462V266.271z"/>
		<path class="st6" d="M164.797,266.271h-0.896l-1.04-1.575l-1.007,1.575h-0.888l1.471-2.15l-1.399-2.031h0.903l0.967,1.472
			l0.968-1.472h0.863l-1.415,2.031L164.797,266.271z"/>
		<path class="st6" d="M168.949,264.96c-0.024,0.2-0.216,0.792-0.744,1.144c-0.192,0.128-0.464,0.288-1.135,0.288
			c-1.175,0-1.871-0.888-1.871-2.095c0-1.295,0.624-2.327,2.007-2.327c1.208,0,1.799,0.96,1.799,2.439h-3.055
			c0,0.871,0.408,1.375,1.215,1.375c0.664,0,1.056-0.512,1.08-0.824H168.949z M168.277,263.849c-0.04-0.647-0.312-1.247-1.167-1.247
			c-0.648,0-1.16,0.6-1.16,1.247H168.277z"/>
		<path class="st6" d="M172.461,263.497c-0.088-0.56-0.4-0.896-0.992-0.896c-0.871,0-1.151,0.832-1.151,1.575
			c0,0.72,0.176,1.607,1.144,1.607c0.472,0,0.879-0.352,1-0.991h0.68c-0.072,0.663-0.48,1.599-1.703,1.599
			c-1.175,0-1.871-0.888-1.871-2.095c0-1.295,0.624-2.327,2.007-2.327c1.096,0,1.511,0.8,1.567,1.527H172.461z"/>
		<path class="st6" d="M176.573,266.271v-0.607l-0.016-0.016c-0.296,0.487-0.655,0.743-1.327,0.743
			c-0.616,0-1.359-0.296-1.359-1.295v-3.007h0.703v2.774c0,0.688,0.353,0.92,0.808,0.92c0.888,0,1.151-0.784,1.151-1.392v-2.303
			h0.704v4.182H176.573z"/>
		<path class="st6" d="M179.159,262.674v2.719c0,0.327,0.279,0.327,0.424,0.327h0.247v0.552c-0.256,0.024-0.455,0.057-0.527,0.057
			c-0.695,0-0.848-0.393-0.848-0.896v-2.759h-0.567v-0.584h0.567v-1.167h0.704v1.167h0.671v0.584H179.159z"/>
		<path class="st6" d="M184.069,264.96c-0.023,0.2-0.216,0.792-0.743,1.144c-0.192,0.128-0.464,0.288-1.136,0.288
			c-1.175,0-1.871-0.888-1.871-2.095c0-1.295,0.624-2.327,2.007-2.327c1.208,0,1.799,0.96,1.799,2.439h-3.054
			c0,0.871,0.407,1.375,1.215,1.375c0.664,0,1.056-0.512,1.08-0.824H184.069z M183.397,263.849c-0.04-0.647-0.312-1.247-1.167-1.247
			c-0.647,0-1.159,0.6-1.159,1.247H183.397z"/>
	</g>
	<g class="st5">
		<path class="st6" d="M156.135,288.877h2.526c1.071,0,1.623,0.664,1.623,1.447c0,0.376-0.136,0.903-0.768,1.199
			c0.376,0.152,1.04,0.416,1.04,1.399c0,0.92-0.68,1.695-1.951,1.695h-2.471V288.877z M156.91,291.308h1.399
			c0.744,0,1.199-0.224,1.199-0.928c0-0.535-0.328-0.839-1.191-0.839h-1.407V291.308z M156.91,293.954h1.655
			c0.808,0,1.215-0.407,1.215-1.047c0-0.808-0.712-0.968-1.343-0.968h-1.527V293.954z"/>
		<path class="st6" d="M164.125,294.618v-0.607l-0.016-0.017c-0.296,0.488-0.656,0.744-1.328,0.744
			c-0.616,0-1.359-0.296-1.359-1.296v-3.006h0.703v2.774c0,0.688,0.352,0.919,0.808,0.919c0.888,0,1.151-0.783,1.151-1.391v-2.303
			h0.704v4.182H164.125z"/>
		<path class="st6" d="M168.222,291.628c-0.008-0.265-0.104-0.704-0.992-0.704c-0.216,0-0.832,0.072-0.832,0.592
			c0,0.344,0.216,0.424,0.76,0.56l0.704,0.176c0.872,0.216,1.175,0.536,1.175,1.104c0,0.863-0.711,1.384-1.655,1.384
			c-1.655,0-1.775-0.96-1.799-1.464h0.68c0.024,0.328,0.12,0.855,1.111,0.855c0.504,0,0.959-0.199,0.959-0.663
			c0-0.336-0.232-0.448-0.832-0.6l-0.815-0.2c-0.584-0.144-0.968-0.439-0.968-1.016c0-0.919,0.76-1.335,1.583-1.335
			c1.495,0,1.599,1.104,1.599,1.312H168.222z"/>
		<path class="st6" d="M172.461,290.437h0.775c-0.488,1.367-0.967,2.734-1.503,4.102c-0.664,1.695-0.736,1.791-1.639,1.791
			c-0.104,0-0.184-0.032-0.296-0.064v-0.64c0.088,0.032,0.232,0.072,0.424,0.072c0.368,0,0.408-0.104,0.744-0.968l-1.551-4.293h0.8
			l1.111,3.406h0.016L172.461,290.437z"/>
	</g>
	<g class="st5">
		<path class="st6" d="M156.19,317.225h2.327c1.495,0,2.415,1.135,2.415,2.79c0,1.287-0.56,2.95-2.447,2.95h-2.295V317.225z
			 M156.966,322.302h1.503c1.007,0,1.663-0.792,1.663-2.239s-0.664-2.175-1.719-2.175h-1.447V322.302z"/>
		<path class="st6" d="M163.542,318.663c1.335,0,1.943,1.128,1.943,2.207s-0.607,2.207-1.943,2.207
			c-1.335,0-1.943-1.128-1.943-2.207S162.207,318.663,163.542,318.663z M163.542,322.47c1.007,0,1.215-1.04,1.215-1.6
			s-0.208-1.599-1.215-1.599s-1.215,1.039-1.215,1.599S162.534,322.47,163.542,322.47z"/>
		<path class="st6" d="M169.692,322.965h-0.704v-2.574c0-0.728-0.208-1.096-0.896-1.096c-0.4,0-1.104,0.256-1.104,1.392v2.278
			h-0.704v-4.182h0.664v0.592h0.016c0.152-0.224,0.544-0.712,1.264-0.712c0.647,0,1.463,0.265,1.463,1.455V322.965z"/>
		<path class="st6" d="M174.285,321.653c-0.024,0.2-0.216,0.792-0.744,1.144c-0.192,0.128-0.464,0.288-1.135,0.288
			c-1.175,0-1.871-0.888-1.871-2.095c0-1.295,0.624-2.327,2.007-2.327c1.208,0,1.799,0.96,1.799,2.439h-3.055
			c0,0.871,0.408,1.375,1.215,1.375c0.664,0,1.056-0.512,1.08-0.824H174.285z M173.613,320.542c-0.04-0.647-0.312-1.247-1.167-1.247
			c-0.648,0-1.16,0.6-1.16,1.247H173.613z"/>
	</g>
	<g class="st5">
		<path class="st6" d="M160.469,351.311h-4.238v-5.74h4.182v0.688h-3.406v1.759h3.142v0.688h-3.142v1.919h3.462V351.311z"/>
		<path class="st6" d="M162.199,351.311h-0.704v-4.182h0.664v0.695h0.016c0.28-0.487,0.647-0.815,1.175-0.815
			c0.088,0,0.128,0.009,0.184,0.024v0.728h-0.264c-0.656,0-1.071,0.512-1.071,1.119V351.311z"/>
		<path class="st6" d="M164.863,351.311h-0.704v-4.182h0.664v0.695h0.016c0.28-0.487,0.647-0.815,1.175-0.815
			c0.088,0,0.128,0.009,0.184,0.024v0.728h-0.264c-0.656,0-1.071,0.512-1.071,1.119V351.311z"/>
		<path class="st6" d="M168.43,347.009c1.335,0,1.943,1.128,1.943,2.207s-0.607,2.207-1.943,2.207c-1.335,0-1.943-1.128-1.943-2.207
			S167.095,347.009,168.43,347.009z M168.43,350.815c1.008,0,1.215-1.04,1.215-1.6s-0.208-1.599-1.215-1.599
			c-1.007,0-1.215,1.039-1.215,1.599S167.423,350.815,168.43,350.815z"/>
		<path class="st6" d="M171.975,351.311h-0.704v-4.182h0.664v0.695h0.016c0.28-0.487,0.647-0.815,1.175-0.815
			c0.088,0,0.128,0.009,0.184,0.024v0.728h-0.264c-0.656,0-1.071,0.512-1.071,1.119V351.311z"/>
	</g>
	<g class="st5">
		<path class="st6" d="M160.469,379.658h-4.238v-5.741h4.182v0.688h-3.406v1.76h3.142v0.688h-3.142v1.919h3.462V379.658z"/>
		<path class="st6" d="M162.199,379.658h-0.704v-4.182h0.664v0.695h0.016c0.28-0.487,0.647-0.815,1.175-0.815
			c0.088,0,0.128,0.008,0.184,0.023v0.729h-0.264c-0.656,0-1.071,0.512-1.071,1.119V379.658z"/>
		<path class="st6" d="M164.863,379.658h-0.704v-4.182h0.664v0.695h0.016c0.28-0.487,0.647-0.815,1.175-0.815
			c0.088,0,0.128,0.008,0.184,0.023v0.729h-0.264c-0.656,0-1.071,0.512-1.071,1.119V379.658z"/>
		<path class="st6" d="M168.43,375.356c1.335,0,1.943,1.127,1.943,2.207c0,1.079-0.607,2.206-1.943,2.206
			c-1.335,0-1.943-1.127-1.943-2.206C166.487,376.483,167.095,375.356,168.43,375.356z M168.43,379.162
			c1.008,0,1.215-1.039,1.215-1.599s-0.208-1.6-1.215-1.6c-1.007,0-1.215,1.04-1.215,1.6S167.423,379.162,168.43,379.162z"/>
		<path class="st6" d="M171.975,379.658h-0.704v-4.182h0.664v0.695h0.016c0.28-0.487,0.647-0.815,1.175-0.815
			c0.088,0,0.128,0.008,0.184,0.023v0.729h-0.264c-0.656,0-1.071,0.512-1.071,1.119V379.658z"/>
		<path class="st6" d="M174.822,379.658h-0.775v-5.741h0.775V379.658z"/>
		<path class="st6" d="M176.191,373.917h2.326c1.496,0,2.415,1.136,2.415,2.791c0,1.287-0.56,2.95-2.446,2.95h-2.295V373.917z
			 M176.967,378.994h1.503c1.008,0,1.663-0.791,1.663-2.238s-0.663-2.175-1.719-2.175h-1.447V378.994z"/>
	</g>
	<g class="st5">
		<path class="st6" d="M224.694,379.81c-1.614,0-1.927-1.72-1.927-2.887s0.312-2.887,1.927-2.887c1.615,0,1.928,1.72,1.928,2.887
			S226.31,379.81,224.694,379.81z M224.694,374.668c-0.808,0-1.175,0.848-1.175,2.255s0.367,2.255,1.175,2.255
			s1.176-0.848,1.176-2.255S225.502,374.668,224.694,374.668z"/>
	</g>
	<g class="st5">
		<path class="st7" d="M207.368,232.064c-0.68,1.279-1.088,2.047-1.088,3.966c0,1.319,0.456,2.295,1.096,3.551h-0.472
			c-0.832-1.248-1.375-2.247-1.375-3.742c0-1.407,0.487-2.543,1.351-3.774H207.368z"/>
		<path class="st7" d="M210.52,237.926h-0.752v-3.99h-1.311v-0.56c0.911-0.063,1.287-0.152,1.511-1.071h0.552V237.926z"/>
		<path class="st7" d="M212.377,239.581c0.68-1.279,1.088-2.047,1.088-3.966c0-1.319-0.456-2.295-1.096-3.551h0.472
			c0.832,1.248,1.375,2.247,1.375,3.742c0,1.407-0.487,2.543-1.351,3.774H212.377z"/>
	</g>
	<g class="st5">
		<path class="st7" d="M270.36,232.064c-0.68,1.279-1.088,2.047-1.088,3.966c0,1.319,0.456,2.295,1.096,3.551h-0.472
			c-0.832-1.248-1.375-2.247-1.375-3.742c0-1.407,0.487-2.543,1.351-3.774H270.36z"/>
		<path class="st7" d="M270.993,234.319c0-1.831,1.335-2.015,1.943-2.015c0.975,0,1.759,0.632,1.759,1.679
			c0,1.008-0.664,1.432-1.503,1.879l-0.584,0.32c-0.768,0.424-0.936,0.863-0.968,1.079h3.055v0.664h-3.846
			c0.04-1.168,0.567-1.791,1.319-2.231l0.743-0.432c0.6-0.344,1.031-0.575,1.031-1.311c0-0.448-0.288-1.016-1.111-1.016
			c-1.063,0-1.111,0.991-1.135,1.383H270.993z"/>
		<path class="st7" d="M275.369,239.581c0.68-1.279,1.088-2.047,1.088-3.966c0-1.319-0.456-2.295-1.096-3.551h0.472
			c0.832,1.248,1.375,2.247,1.375,3.742c0,1.407-0.487,2.543-1.351,3.774H275.369z"/>
	</g>
	<g class="st5">
		<path class="st7" d="M301.856,232.064c-0.68,1.279-1.088,2.047-1.088,3.966c0,1.319,0.456,2.295,1.096,3.551h-0.472
			c-0.832-1.248-1.375-2.247-1.375-3.742c0-1.407,0.487-2.543,1.351-3.774H301.856z"/>
		<path class="st7" d="M303.929,234.728c0.12,0.008,0.248,0.016,0.367,0.016c0.544,0,1.072-0.216,1.072-0.919
			c0-0.336-0.2-0.888-1.04-0.888c-0.999,0-1.063,0.815-1.096,1.207h-0.688c0-0.823,0.336-1.839,1.815-1.839
			c1.087,0,1.735,0.624,1.735,1.479c0,0.719-0.416,1.063-0.72,1.159v0.016c0.543,0.176,0.936,0.56,0.936,1.312
			c0,0.919-0.592,1.807-2.023,1.807c-0.416,0-0.768-0.104-1.039-0.248c-0.624-0.327-0.792-0.975-0.84-1.623h0.728
			c0.024,0.528,0.152,1.239,1.199,1.239c0.72,0,1.224-0.439,1.224-1.087c0-0.943-0.831-1.031-1.312-1.031
			c-0.104,0-0.216,0.008-0.319,0.008V234.728z"/>
		<path class="st7" d="M306.865,239.581c0.68-1.279,1.088-2.047,1.088-3.966c0-1.319-0.456-2.295-1.096-3.551h0.472
			c0.832,1.248,1.375,2.247,1.375,3.742c0,1.407-0.487,2.543-1.351,3.774H306.865z"/>
	</g>
	<g class="st5">
		<path class="st7" d="M408.945,232.064c-0.68,1.279-1.088,2.047-1.088,3.966c0,1.319,0.456,2.295,1.096,3.551h-0.472
			c-0.832-1.248-1.375-2.247-1.375-3.742c0-1.407,0.487-2.543,1.351-3.774H408.945z"/>
		<path class="st7" d="M412.585,236.559v1.367h-0.704v-1.367h-2.454v-0.688l2.574-3.566h0.584v3.646h0.823v0.608H412.585z
			 M410.074,235.95h1.807v-2.55h-0.016L410.074,235.95z"/>
		<path class="st7" d="M413.955,239.581c0.679-1.279,1.087-2.047,1.087-3.966c0-1.319-0.456-2.295-1.096-3.551h0.472
			c0.832,1.248,1.376,2.247,1.376,3.742c0,1.407-0.488,2.543-1.352,3.774H413.955z"/>
	</g>
	<g class="st5">
		<path class="st7" d="M459.34,232.064c-0.68,1.279-1.088,2.047-1.088,3.966c0,1.319,0.456,2.295,1.096,3.551h-0.472
			c-0.832-1.248-1.375-2.247-1.375-3.742c0-1.407,0.487-2.543,1.351-3.774H459.34z"/>
		<path class="st7" d="M460.797,234.655c0.239-0.184,0.583-0.352,1.087-0.352c0.911,0,1.847,0.64,1.847,1.799
			c0,0.624-0.279,1.975-2.038,1.975c-0.736,0-1.68-0.296-1.815-1.551h0.728c0.072,0.655,0.56,0.943,1.191,0.943
			c0.728,0,1.184-0.584,1.184-1.287c0-0.808-0.552-1.247-1.248-1.247c-0.407,0-0.775,0.191-1.039,0.535l-0.607-0.032l0.424-3.014
			h2.91v0.688h-2.383L460.797,234.655z"/>
		<path class="st7" d="M464.35,239.581c0.679-1.279,1.087-2.047,1.087-3.966c0-1.319-0.456-2.295-1.096-3.551h0.472
			c0.832,1.248,1.376,2.247,1.376,3.742c0,1.407-0.488,2.543-1.352,3.774H464.35z"/>
	</g>
	<g class="st5">
		<path class="st7" d="M471.937,232.064c-0.68,1.279-1.088,2.047-1.088,3.966c0,1.319,0.456,2.295,1.096,3.551h-0.472
			c-0.831-1.248-1.375-2.247-1.375-3.742c0-1.407,0.487-2.543,1.351-3.774H471.937z"/>
		<path class="st7" d="M475.552,233.8c-0.088-0.496-0.359-0.863-0.967-0.863c-1.104,0-1.336,1.487-1.336,2.078l0.017,0.017
			c0.176-0.304,0.567-0.688,1.335-0.688c0.688,0,1.759,0.439,1.759,1.783c0,0.575-0.151,0.991-0.535,1.407
			c-0.296,0.327-0.632,0.543-1.424,0.543c-0.432,0-1.047-0.191-1.447-0.815c-0.336-0.527-0.432-1.215-0.432-1.951
			c0-1.23,0.399-3.006,2.079-3.006c0.647,0,1.567,0.352,1.639,1.495H475.552z M474.528,237.445c0.672,0,1.104-0.527,1.104-1.287
			c0-0.495-0.264-1.183-1.136-1.183c-0.775,0-1.151,0.56-1.151,1.223C473.345,236.798,473.705,237.445,474.528,237.445z"/>
		<path class="st7" d="M476.946,239.581c0.68-1.279,1.087-2.047,1.087-3.966c0-1.319-0.456-2.295-1.096-3.551h0.472
			c0.832,1.248,1.376,2.247,1.376,3.742c0,1.407-0.488,2.543-1.352,3.774H476.946z"/>
	</g>
	<g>
		<path d="M4.925,34.986H0.688v-5.74h4.182v0.688H1.463v1.759h3.142v0.688H1.463v1.919h3.462V34.986z"/>
		<path d="M9.262,34.986H8.558v-2.574c0-0.728-0.208-1.096-0.896-1.096c-0.4,0-1.104,0.256-1.104,1.392v2.278H5.855v-4.182H6.52
			v0.592h0.016c0.152-0.224,0.544-0.712,1.264-0.712c0.647,0,1.463,0.265,1.463,1.455V34.986z"/>
		<path d="M10.28,32.076c0.032-0.999,0.696-1.392,1.727-1.392c0.336,0,1.551,0.097,1.551,1.168v2.406
			c0,0.176,0.088,0.248,0.232,0.248c0.064,0,0.152-0.016,0.232-0.032v0.512c-0.12,0.032-0.224,0.08-0.384,0.08
			c-0.624,0-0.72-0.319-0.744-0.64c-0.272,0.296-0.696,0.68-1.511,0.68c-0.768,0-1.311-0.487-1.311-1.207
			c0-0.353,0.104-1.168,1.271-1.312l1.16-0.144c0.167-0.017,0.368-0.08,0.368-0.496c0-0.439-0.32-0.68-0.983-0.68
			c-0.8,0-0.912,0.487-0.959,0.808H10.28z M12.854,32.852c-0.112,0.088-0.288,0.152-1.159,0.264
			c-0.344,0.048-0.896,0.152-0.896,0.68c0,0.456,0.231,0.728,0.759,0.728c0.656,0,1.295-0.424,1.295-0.983V32.852z"/>
		<path d="M14.696,34.986v-5.74H15.4v2.087h0.016c0.304-0.44,0.719-0.64,1.207-0.648c1.111,0,1.743,0.912,1.743,2.087
			c0,1-0.416,2.335-1.839,2.335c-0.712,0-1.008-0.408-1.151-0.64H15.36v0.52H14.696z M16.495,31.316
			c-1.016,0-1.127,1.096-1.127,1.775c0,1.111,0.696,1.407,1.144,1.407c0.768,0,1.127-0.696,1.127-1.615
			C17.639,32.348,17.583,31.316,16.495,31.316z"/>
		<path d="M19.92,34.986h-0.704v-5.74h0.704V34.986z"/>
		<path d="M24.526,33.675c-0.024,0.2-0.216,0.792-0.744,1.144c-0.192,0.128-0.464,0.288-1.135,0.288
			c-1.175,0-1.871-0.888-1.871-2.095c0-1.295,0.624-2.327,2.007-2.327c1.208,0,1.799,0.96,1.799,2.439h-3.054
			c0,0.871,0.408,1.375,1.215,1.375c0.664,0,1.056-0.512,1.08-0.824H24.526z M23.854,32.563c-0.04-0.647-0.312-1.247-1.167-1.247
			c-0.648,0-1.16,0.6-1.16,1.247H23.854z"/>
	</g>
	<g>
		<path d="M4.925,216.403H0.688v-5.74h4.182v0.688H1.463v1.759h3.142v0.688H1.463v1.919h3.462V216.403z"/>
		<path d="M6.655,216.403H5.952v-4.182h0.664v0.695h0.016c0.28-0.487,0.647-0.815,1.175-0.815c0.088,0,0.128,0.009,0.184,0.024
			v0.728H7.727c-0.656,0-1.071,0.512-1.071,1.119V216.403z"/>
		<path d="M9.319,216.403H8.616v-4.182h0.664v0.695h0.016c0.28-0.487,0.647-0.815,1.175-0.815c0.088,0,0.128,0.009,0.184,0.024
			v0.728h-0.264c-0.656,0-1.071,0.512-1.071,1.119V216.403z"/>
		<path d="M12.887,212.102c1.335,0,1.943,1.128,1.943,2.207s-0.607,2.207-1.943,2.207c-1.335,0-1.943-1.128-1.943-2.207
			S11.552,212.102,12.887,212.102z M12.887,215.908c1.008,0,1.215-1.04,1.215-1.6s-0.208-1.599-1.215-1.599
			c-1.007,0-1.215,1.039-1.215,1.599S11.879,215.908,12.887,215.908z"/>
		<path d="M16.432,216.403h-0.704v-4.182h0.664v0.695h0.016c0.28-0.487,0.647-0.815,1.175-0.815c0.088,0,0.128,0.009,0.184,0.024
			v0.728h-0.264c-0.656,0-1.071,0.512-1.071,1.119V216.403z"/>
		<path d="M19.279,216.403h-0.775v-5.74h0.775V216.403z"/>
		<path d="M20.648,210.663h2.327c1.496,0,2.415,1.135,2.415,2.79c0,1.287-0.56,2.95-2.447,2.95h-2.295V210.663z M21.424,215.74
			h1.503c1.008,0,1.663-0.792,1.663-2.239s-0.664-2.175-1.719-2.175h-1.447V215.74z"/>
	</g>
	<g>
		<path d="M0.592,74.6h2.526c1.071,0,1.623,0.664,1.623,1.447c0,0.375-0.136,0.903-0.768,1.199c0.376,0.152,1.04,0.416,1.04,1.399
			c0,0.92-0.68,1.695-1.951,1.695H0.592V74.6z M1.367,77.031h1.399c0.744,0,1.199-0.224,1.199-0.928
			c0-0.536-0.328-0.839-1.191-0.839H1.367V77.031z M1.367,79.677h1.655c0.808,0,1.215-0.408,1.215-1.047
			c0-0.808-0.712-0.968-1.343-0.968H1.367V79.677z"/>
		<path d="M8.582,80.341v-0.607l-0.016-0.016c-0.296,0.488-0.656,0.744-1.328,0.744c-0.616,0-1.359-0.296-1.359-1.295v-3.006h0.703
			v2.774c0,0.688,0.352,0.919,0.808,0.919c0.888,0,1.151-0.784,1.151-1.391v-2.303h0.704v4.182H8.582z"/>
		<path d="M12.679,77.351c-0.008-0.264-0.104-0.704-0.992-0.704c-0.216,0-0.832,0.072-0.832,0.591c0,0.344,0.216,0.424,0.76,0.56
			l0.704,0.176c0.872,0.216,1.175,0.536,1.175,1.104c0,0.863-0.711,1.383-1.655,1.383c-1.655,0-1.775-0.959-1.799-1.463h0.68
			c0.024,0.328,0.12,0.855,1.111,0.855c0.504,0,0.959-0.2,0.959-0.664c0-0.336-0.232-0.448-0.832-0.6l-0.815-0.2
			c-0.584-0.144-0.968-0.439-0.968-1.015c0-0.919,0.76-1.335,1.583-1.335c1.495,0,1.599,1.104,1.599,1.312H12.679z"/>
		<path d="M16.918,76.159h0.775c-0.488,1.367-0.967,2.734-1.503,4.102c-0.664,1.695-0.736,1.791-1.639,1.791
			c-0.104,0-0.184-0.032-0.296-0.064v-0.64c0.088,0.032,0.232,0.072,0.424,0.072c0.368,0,0.408-0.104,0.744-0.968l-1.551-4.293h0.8
			l1.111,3.406h0.016L16.918,76.159z"/>
	</g>
	<g>
		<path d="M4.07,121.634c-0.04-0.888-0.776-1.167-1.423-1.167c-0.488,0-1.311,0.136-1.311,1.007c0,0.488,0.344,0.647,0.679,0.728
			l1.639,0.376c0.744,0.176,1.303,0.624,1.303,1.535c0,1.359-1.263,1.735-2.247,1.735c-1.063,0-1.479-0.32-1.735-0.552
			c-0.488-0.439-0.584-0.919-0.584-1.455h0.728c0,1.04,0.848,1.343,1.583,1.343c0.56,0,1.503-0.144,1.503-0.967
			c0-0.6-0.28-0.792-1.223-1.016l-1.175-0.272c-0.376-0.088-1.224-0.352-1.224-1.351c0-0.896,0.584-1.775,1.975-1.775
			c2.007,0,2.207,1.199,2.239,1.831H4.07z"/>
		<path d="M6.719,122.097v2.719c0,0.328,0.28,0.328,0.424,0.328h0.248v0.552c-0.256,0.024-0.456,0.056-0.527,0.056
			c-0.696,0-0.848-0.392-0.848-0.896v-2.759H5.448v-0.583h0.568v-1.167h0.704v1.167h0.671v0.583H6.719z"/>
		<path d="M8.056,122.785c0.032-1,0.696-1.392,1.727-1.392c0.336,0,1.551,0.096,1.551,1.167v2.407c0,0.176,0.088,0.248,0.232,0.248
			c0.064,0,0.152-0.016,0.232-0.032v0.512c-0.12,0.032-0.224,0.08-0.384,0.08c-0.624,0-0.72-0.32-0.744-0.64
			c-0.272,0.296-0.696,0.68-1.511,0.68c-0.768,0-1.312-0.488-1.312-1.208c0-0.352,0.104-1.167,1.271-1.311l1.159-0.144
			c0.168-0.016,0.368-0.08,0.368-0.496c0-0.44-0.32-0.68-0.983-0.68c-0.8,0-0.912,0.487-0.959,0.808H8.056z M10.63,123.561
			c-0.112,0.088-0.288,0.152-1.159,0.264c-0.344,0.048-0.896,0.152-0.896,0.68c0,0.456,0.232,0.728,0.759,0.728
			c0.656,0,1.295-0.424,1.295-0.983V123.561z"/>
		<path d="M13.391,122.097v2.719c0,0.328,0.28,0.328,0.424,0.328h0.248v0.552c-0.256,0.024-0.456,0.056-0.527,0.056
			c-0.696,0-0.848-0.392-0.848-0.896v-2.759H12.12v-0.583h0.568v-1.167h0.704v1.167h0.671v0.583H13.391z"/>
		<path d="M17.478,125.695v-0.607l-0.016-0.016c-0.295,0.488-0.655,0.744-1.327,0.744c-0.616,0-1.359-0.296-1.359-1.295v-3.006
			h0.704v2.774c0,0.688,0.352,0.919,0.807,0.919c0.888,0,1.151-0.784,1.151-1.391v-2.303h0.704v4.182H17.478z"/>
		<path d="M21.574,122.705c-0.008-0.264-0.104-0.704-0.992-0.704c-0.216,0-0.832,0.072-0.832,0.591c0,0.344,0.216,0.424,0.76,0.56
			l0.704,0.176c0.872,0.216,1.175,0.536,1.175,1.104c0,0.863-0.711,1.383-1.655,1.383c-1.655,0-1.775-0.959-1.799-1.463h0.68
			c0.024,0.328,0.12,0.855,1.111,0.855c0.504,0,0.959-0.2,0.959-0.664c0-0.336-0.232-0.448-0.832-0.6l-0.815-0.2
			c-0.584-0.144-0.968-0.439-0.968-1.015c0-0.919,0.76-1.335,1.583-1.335c1.495,0,1.599,1.104,1.599,1.312H21.574z"/>
	</g>
	<g>
		<path d="M4.925,171.05H0.688v-5.741h4.182v0.688H1.463v1.76h3.142v0.688H1.463v1.919h3.462V171.05z"/>
		<path d="M6.655,171.05H5.952v-4.182h0.664v0.695h0.016c0.28-0.487,0.647-0.815,1.175-0.815c0.088,0,0.128,0.008,0.184,0.023v0.729
			H7.727c-0.656,0-1.071,0.512-1.071,1.119V171.05z"/>
		<path d="M9.319,171.05H8.616v-4.182h0.664v0.695h0.016c0.28-0.487,0.647-0.815,1.175-0.815c0.088,0,0.128,0.008,0.184,0.023v0.729
			h-0.264c-0.656,0-1.071,0.512-1.071,1.119V171.05z"/>
		<path d="M12.887,166.748c1.335,0,1.943,1.127,1.943,2.207c0,1.079-0.607,2.206-1.943,2.206c-1.335,0-1.943-1.127-1.943-2.206
			C10.944,167.875,11.552,166.748,12.887,166.748z M12.887,170.554c1.008,0,1.215-1.039,1.215-1.599s-0.208-1.6-1.215-1.6
			c-1.007,0-1.215,1.04-1.215,1.6S11.879,170.554,12.887,170.554z"/>
		<path d="M16.432,171.05h-0.704v-4.182h0.664v0.695h0.016c0.28-0.487,0.647-0.815,1.175-0.815c0.088,0,0.128,0.008,0.184,0.023
			v0.729h-0.264c-0.656,0-1.071,0.512-1.071,1.119V171.05z"/>
	</g>
	<g>
		<path d="M99.542,0.779c-0.68,1.279-1.087,2.047-1.087,3.966c0,1.319,0.456,2.295,1.095,3.55h-0.472
			c-0.832-1.248-1.375-2.247-1.375-3.742c0-1.407,0.488-2.542,1.352-3.774H99.542z"/>
		<path d="M102.694,6.64h-0.752V2.65h-1.311v-0.56c0.912-0.064,1.287-0.152,1.511-1.072h0.552V6.64z"/>
		<path d="M104.551,8.295c0.68-1.279,1.087-2.047,1.087-3.966c0-1.319-0.456-2.295-1.095-3.55h0.472
			c0.832,1.248,1.375,2.247,1.375,3.742c0,1.407-0.488,2.542-1.351,3.774H104.551z"/>
	</g>
	<g>
		<path d="M110.881,0.779c-0.68,1.279-1.087,2.047-1.087,3.966c0,1.319,0.456,2.295,1.095,3.55h-0.472
			c-0.832-1.248-1.375-2.247-1.375-3.742c0-1.407,0.487-2.542,1.351-3.774H110.881z"/>
		<path d="M111.514,3.034c0-1.831,1.335-2.015,1.943-2.015c0.975,0,1.759,0.632,1.759,1.679c0,1.007-0.664,1.431-1.503,1.879
			l-0.584,0.32c-0.768,0.424-0.936,0.864-0.967,1.08h3.054V6.64h-3.846c0.04-1.167,0.567-1.791,1.319-2.231l0.743-0.432
			c0.6-0.344,1.032-0.576,1.032-1.311c0-0.448-0.288-1.016-1.111-1.016c-1.063,0-1.111,0.991-1.135,1.383H111.514z"/>
		<path d="M115.89,8.295c0.68-1.279,1.087-2.047,1.087-3.966c0-1.319-0.456-2.295-1.095-3.55h0.472
			c0.832,1.248,1.375,2.247,1.375,3.742c0,1.407-0.488,2.542-1.351,3.774H115.89z"/>
	</g>
	<g>
		<path d="M144.896,0.779c-0.68,1.279-1.087,2.047-1.087,3.966c0,1.319,0.456,2.295,1.095,3.55h-0.472
			c-0.832-1.248-1.375-2.247-1.375-3.742c0-1.407,0.488-2.542,1.352-3.774H144.896z"/>
		<path d="M146.968,3.442c0.12,0.008,0.248,0.016,0.368,0.016c0.544,0,1.071-0.216,1.071-0.919c0-0.336-0.2-0.888-1.039-0.888
			c-1,0-1.063,0.815-1.096,1.208h-0.688c0-0.824,0.336-1.839,1.815-1.839c1.087,0,1.735,0.624,1.735,1.479
			c0,0.72-0.416,1.063-0.72,1.159v0.016c0.543,0.176,0.936,0.56,0.936,1.311c0,0.92-0.592,1.807-2.023,1.807
			c-0.416,0-0.768-0.104-1.04-0.248c-0.624-0.328-0.792-0.976-0.839-1.624h0.728c0.024,0.528,0.152,1.24,1.199,1.24
			c0.72,0,1.224-0.44,1.224-1.088c0-0.943-0.832-1.031-1.312-1.031c-0.104,0-0.216,0.008-0.32,0.008V3.442z"/>
		<path d="M149.905,8.295c0.68-1.279,1.087-2.047,1.087-3.966c0-1.319-0.456-2.295-1.095-3.55h0.472
			c0.832,1.248,1.375,2.247,1.375,3.742c0,1.407-0.488,2.542-1.351,3.774H149.905z"/>
	</g>
	<g>
		<path d="M156.235,0.779c-0.68,1.279-1.087,2.047-1.087,3.966c0,1.319,0.456,2.295,1.095,3.55h-0.472
			c-0.832-1.248-1.375-2.247-1.375-3.742c0-1.407,0.488-2.542,1.352-3.774H156.235z"/>
		<path d="M159.874,5.273V6.64h-0.703V5.273h-2.455V4.585l2.575-3.566h0.583v3.646h0.824v0.608H159.874z M157.364,4.665h1.807v-2.55
			h-0.016L157.364,4.665z"/>
		<path d="M161.244,8.295c0.68-1.279,1.087-2.047,1.087-3.966c0-1.319-0.456-2.295-1.095-3.55h0.472
			c0.832,1.248,1.375,2.247,1.375,3.742c0,1.407-0.488,2.542-1.351,3.774H161.244z"/>
	</g>
	<g>
		<path d="M275.29,0.779c-0.68,1.279-1.088,2.047-1.088,3.966c0,1.319,0.456,2.295,1.096,3.55h-0.472
			c-0.832-1.248-1.376-2.247-1.376-3.742c0-1.407,0.488-2.542,1.352-3.774H275.29z"/>
		<path d="M276.746,3.37c0.24-0.184,0.584-0.352,1.088-0.352c0.911,0,1.847,0.64,1.847,1.799c0,0.624-0.279,1.975-2.039,1.975
			c-0.735,0-1.679-0.296-1.814-1.551h0.728c0.071,0.656,0.56,0.944,1.191,0.944c0.728,0,1.183-0.584,1.183-1.288
			c0-0.808-0.551-1.247-1.247-1.247c-0.407,0-0.775,0.192-1.039,0.536l-0.607-0.032l0.424-3.014h2.91v0.688h-2.383L276.746,3.37z"/>
		<path d="M280.299,8.295c0.68-1.279,1.087-2.047,1.087-3.966c0-1.319-0.455-2.295-1.095-3.55h0.472
			c0.831,1.248,1.375,2.247,1.375,3.742c0,1.407-0.488,2.542-1.352,3.774H280.299z"/>
	</g>
	<g>
		<path d="M303.637,0.779c-0.68,1.279-1.087,2.047-1.087,3.966c0,1.319,0.455,2.295,1.095,3.55h-0.472
			c-0.832-1.248-1.375-2.247-1.375-3.742c0-1.407,0.487-2.542,1.352-3.774H303.637z"/>
		<path d="M307.252,2.514c-0.088-0.496-0.36-0.863-0.968-0.863c-1.104,0-1.335,1.487-1.335,2.079l0.017,0.016
			c0.176-0.304,0.567-0.688,1.335-0.688c0.688,0,1.759,0.44,1.759,1.783c0,0.576-0.152,0.991-0.535,1.407
			c-0.297,0.328-0.633,0.543-1.424,0.543c-0.432,0-1.047-0.192-1.447-0.815c-0.336-0.528-0.432-1.215-0.432-1.951
			c0-1.231,0.4-3.006,2.079-3.006c0.647,0,1.567,0.352,1.64,1.495H307.252z M306.229,6.161c0.672,0,1.104-0.528,1.104-1.288
			c0-0.496-0.264-1.183-1.136-1.183c-0.775,0-1.15,0.56-1.15,1.223C305.046,5.513,305.405,6.161,306.229,6.161z"/>
		<path d="M308.646,8.295c0.68-1.279,1.088-2.047,1.088-3.966c0-1.319-0.456-2.295-1.096-3.55h0.472
			c0.831,1.248,1.375,2.247,1.375,3.742c0,1.407-0.487,2.542-1.351,3.774H308.646z"/>
	</g>
	<g>
		<path d="M170.077,219.106c-1.615,0-1.927-1.72-1.927-2.887s0.312-2.887,1.927-2.887c1.615,0,1.927,1.72,1.927,2.887
			S171.692,219.106,170.077,219.106z M170.077,213.965c-0.808,0-1.175,0.848-1.175,2.255s0.368,2.255,1.175,2.255
			s1.175-0.848,1.175-2.255S170.885,213.965,170.077,213.965z"/>
	</g>
	<g>
		<path d="M255.117,219.106c-1.615,0-1.927-1.72-1.927-2.887s0.312-2.887,1.927-2.887s1.927,1.72,1.927,2.887
			S256.732,219.106,255.117,219.106z M255.117,213.965c-0.808,0-1.176,0.848-1.176,2.255s0.368,2.255,1.176,2.255
			s1.175-0.848,1.175-2.255S255.925,213.965,255.117,213.965z"/>
	</g>
	<g>
		<path d="M298.289,218.954h-4.238v-5.74h4.182v0.688h-3.405v1.759h3.142v0.688h-3.142v1.919h3.462V218.954z"/>
		<path d="M300.019,218.954h-0.703v-4.182h0.663v0.695h0.017c0.279-0.487,0.647-0.815,1.175-0.815c0.088,0,0.128,0.009,0.185,0.024
			v0.728h-0.265c-0.655,0-1.071,0.512-1.071,1.119V218.954z"/>
		<path d="M302.683,218.954h-0.703v-4.182h0.663v0.695h0.017c0.279-0.487,0.647-0.815,1.175-0.815c0.088,0,0.128,0.009,0.185,0.024
			v0.728h-0.265c-0.655,0-1.071,0.512-1.071,1.119V218.954z"/>
		<path d="M306.25,214.652c1.336,0,1.943,1.128,1.943,2.207s-0.607,2.207-1.943,2.207c-1.335,0-1.942-1.128-1.942-2.207
			S304.915,214.652,306.25,214.652z M306.25,218.459c1.008,0,1.216-1.04,1.216-1.6s-0.208-1.599-1.216-1.599
			c-1.007,0-1.215,1.039-1.215,1.599S305.243,218.459,306.25,218.459z"/>
		<path d="M309.795,218.954h-0.704v-4.182h0.664v0.695h0.016c0.28-0.487,0.647-0.815,1.176-0.815c0.088,0,0.128,0.009,0.184,0.024
			v0.728h-0.264c-0.656,0-1.071,0.512-1.071,1.119V218.954z"/>
		<path d="M315.777,214.94c-0.217-1.008-1.056-1.191-1.607-1.191c-1.04,0-1.879,0.768-1.879,2.279c0,1.351,0.479,2.391,1.902,2.391
			c0.504,0,1.376-0.24,1.64-1.575h0.751c-0.319,2.167-2.078,2.263-2.51,2.263c-1.304,0-2.583-0.848-2.583-3.055
			c0-1.767,1.008-2.99,2.679-2.99c1.479,0,2.247,0.92,2.358,1.879H315.777z"/>
		<path d="M319.138,214.652c1.336,0,1.943,1.128,1.943,2.207s-0.607,2.207-1.943,2.207c-1.335,0-1.942-1.128-1.942-2.207
			S317.803,214.652,319.138,214.652z M319.138,218.459c1.008,0,1.216-1.04,1.216-1.6s-0.208-1.599-1.216-1.599
			c-1.007,0-1.215,1.039-1.215,1.599S318.131,218.459,319.138,218.459z"/>
		<path d="M325.353,218.954h-0.663v-0.575h-0.017c-0.304,0.567-0.783,0.695-1.191,0.695c-1.423,0-1.839-1.335-1.839-2.335
			c0-1.175,0.632-2.087,1.743-2.087c0.76,0,1.08,0.472,1.247,0.712l0.017-0.056v-2.095h0.703V218.954z M323.498,218.467
			c0.447,0,1.144-0.296,1.144-1.407c0-0.68-0.112-1.775-1.128-1.775c-1.087,0-1.144,1.031-1.144,1.567
			C322.37,217.771,322.73,218.467,323.498,218.467z"/>
		<path d="M329.881,217.643c-0.023,0.2-0.216,0.792-0.743,1.144c-0.192,0.128-0.464,0.288-1.136,0.288
			c-1.175,0-1.871-0.888-1.871-2.095c0-1.295,0.624-2.327,2.007-2.327c1.208,0,1.8,0.96,1.8,2.439h-3.055
			c0,0.871,0.407,1.375,1.215,1.375c0.664,0,1.056-0.512,1.08-0.824H329.881z M329.209,216.531
			c-0.039-0.647-0.312-1.247-1.167-1.247c-0.647,0-1.159,0.6-1.159,1.247H329.209z"/>
	</g>
	<g>
		<path d="M0.367,257.962c0.13,0.021,0.255,0.031,0.375,0.031H1.43c0.177,0,0.356-0.01,0.539-0.031
			c-0.037,0.193-0.058,0.381-0.062,0.562v2.883c0.208-0.239,0.417-0.523,0.625-0.852c0.062,0.203,0.167,0.378,0.312,0.523
			c-0.479,0.464-0.982,1.016-1.508,1.656c-0.12-0.183-0.253-0.336-0.398-0.461c0.161-0.172,0.273-0.328,0.336-0.469
			c0.042-0.125,0.062-0.236,0.062-0.336v-2.945H0.742c-0.12,0-0.245,0.011-0.375,0.031c0.021-0.109,0.031-0.213,0.031-0.312
			C0.398,258.145,0.388,258.051,0.367,257.962z M1.398,255.767c0.229,0.417,0.534,0.844,0.914,1.281
			c-0.224,0.053-0.435,0.156-0.633,0.312c-0.25-0.494-0.542-0.932-0.875-1.312C1.049,255.991,1.247,255.897,1.398,255.767z
			 M2.594,256.274c0.239,0.042,0.479,0.062,0.719,0.062h1.281v-0.227c0-0.197-0.021-0.393-0.062-0.586
			c0.188,0.058,0.417,0.089,0.688,0.094c-0.068,0.12-0.102,0.284-0.102,0.492v0.227h1.445c0.239,0,0.479-0.021,0.719-0.062
			c-0.021,0.089-0.031,0.183-0.031,0.281c0,0.078,0.01,0.159,0.031,0.242c-0.24-0.041-0.479-0.062-0.719-0.062H5.117v0.602h1.164
			c0.239,0,0.479-0.021,0.719-0.062c-0.021,0.089-0.031,0.183-0.031,0.281c0,0.078,0.01,0.159,0.031,0.242
			c-0.24-0.041-0.479-0.062-0.719-0.062H5.117v0.656h1.594c0.25,0,0.5-0.018,0.75-0.055c-0.021,0.089-0.031,0.183-0.031,0.281
			c0,0.089,0.01,0.183,0.031,0.281c-0.25-0.047-0.5-0.07-0.75-0.07H3.148c-0.25,0-0.5,0.023-0.75,0.07
			c0.021-0.099,0.031-0.192,0.031-0.281c0-0.099-0.011-0.192-0.031-0.281c0.25,0.037,0.5,0.055,0.75,0.055h1.445v-0.656H3.562
			c-0.24,0-0.479,0.021-0.719,0.062c0.021-0.083,0.031-0.164,0.031-0.242c0-0.099-0.011-0.192-0.031-0.281
			c0.239,0.042,0.479,0.062,0.719,0.062h1.031v-0.602H3.312c-0.24,0-0.479,0.021-0.719,0.062c0.021-0.083,0.031-0.164,0.031-0.242
			C2.625,256.457,2.614,256.363,2.594,256.274z M3.055,259.306c0.239,0.037,0.479,0.055,0.719,0.055h2.195
			c0.255,0,0.513-0.018,0.773-0.055c-0.042,0.178-0.062,0.352-0.062,0.523v2.414c0,0.271-0.058,0.445-0.172,0.523
			c-0.151,0.156-0.5,0.25-1.047,0.281c-0.037-0.234-0.117-0.442-0.242-0.625H5.68c0.192,0,0.323-0.023,0.391-0.07
			c0.052-0.031,0.078-0.112,0.078-0.242v-0.375H3.656v0.719c0,0.188,0.018,0.375,0.055,0.562c-0.109-0.016-0.224-0.023-0.344-0.023
			c-0.099,0-0.203,0.008-0.312,0.023c0.042-0.188,0.062-0.375,0.062-0.562v-2.625C3.117,259.657,3.096,259.483,3.055,259.306z
			 M3.656,260.36h2.492v-0.594H3.656V260.36z M3.656,261.36h2.492v-0.625H3.656V261.36z"/>
		<path d="M8.43,256.993c0.328,0.037,0.651,0.055,0.969,0.055h2.062v-0.867c0-0.197-0.011-0.396-0.031-0.594
			c0.234,0.042,0.487,0.062,0.758,0.062c-0.068,0.183-0.102,0.391-0.102,0.625v0.773h2.344c0.328,0,0.651-0.018,0.969-0.055
			c-0.021,0.109-0.031,0.225-0.031,0.344c0,0.115,0.01,0.227,0.031,0.336c-0.318-0.036-0.641-0.055-0.969-0.055h-2.18
			c0.177,0.776,0.398,1.422,0.664,1.938c0.552-0.505,0.963-0.986,1.234-1.445c0.224,0.219,0.442,0.389,0.656,0.508
			c-0.365,0.219-0.896,0.695-1.594,1.43c0.042,0.062,0.081,0.12,0.117,0.172c0.552,0.631,1.307,1.167,2.266,1.609
			c-0.224,0.104-0.422,0.281-0.594,0.531c-1.104-0.692-1.93-1.497-2.477-2.414c-0.177-0.312-0.323-0.625-0.438-0.938v3.328
			c0,0.297-0.107,0.492-0.32,0.586c-0.214,0.083-0.521,0.125-0.922,0.125c-0.058-0.281-0.175-0.519-0.352-0.711h0.531
			c0.292,0,0.438-0.114,0.438-0.344v-1.766c-0.531,0.359-1.323,0.998-2.375,1.914c-0.177-0.328-0.362-0.557-0.555-0.688
			c0.771-0.364,1.398-0.736,1.883-1.117c0.359-0.239,0.708-0.549,1.047-0.93v-1.789H9.398c-0.318,0-0.641,0.019-0.969,0.055
			c0.021-0.109,0.031-0.221,0.031-0.336C8.461,257.218,8.45,257.103,8.43,256.993z M9.531,258.274
			c0.328,0.276,0.766,0.6,1.312,0.969c-0.183,0.12-0.352,0.295-0.508,0.523c-0.12-0.135-0.3-0.302-0.539-0.5
			c-0.25-0.208-0.487-0.375-0.711-0.5C9.258,258.642,9.406,258.478,9.531,258.274z M13.25,255.673c0.297,0.219,0.69,0.469,1.18,0.75
			c-0.167,0.115-0.32,0.273-0.461,0.477c-0.109-0.114-0.269-0.25-0.477-0.406c-0.224-0.156-0.43-0.283-0.617-0.383
			C13.016,256.001,13.141,255.855,13.25,255.673z"/>
		<path d="M17.805,255.649c0.192,0.084,0.435,0.133,0.727,0.148c-0.146,0.276-0.292,0.714-0.438,1.312h0.617
			c0.281,0,0.565-0.021,0.852-0.062c-0.047,0.271-0.07,0.545-0.07,0.82v4.125c0,0.266,0.023,0.534,0.07,0.805
			c-0.156-0.021-0.261-0.031-0.312-0.031c-0.062,0-0.177,0.011-0.344,0.031c0.042-0.271,0.062-0.539,0.062-0.805h-1.656v0.023
			c0,0.271,0.018,0.542,0.055,0.812c-0.172-0.021-0.287-0.031-0.344-0.031c-0.047,0-0.151,0.011-0.312,0.031
			c0.042-0.271,0.062-0.542,0.062-0.812v-4.148c0-0.275-0.021-0.549-0.062-0.82c0.281,0.042,0.565,0.062,0.852,0.062h0.023
			C17.653,256.71,17.727,256.223,17.805,255.649z M17.312,259.337h1.656v-1.719h-1.656V259.337z M17.312,261.485h1.656v-1.688
			h-1.656V261.485z M21.023,255.618c0.224,0.104,0.474,0.175,0.75,0.211c-0.125,0.172-0.292,0.472-0.5,0.898
			c-0.052,0.12-0.107,0.237-0.164,0.352h1.484c0.271,0,0.539-0.021,0.805-0.062c-0.062,0.198-0.102,0.417-0.117,0.656l-0.164,4.438
			c-0.037,0.37-0.237,0.609-0.602,0.719c-0.266,0.083-0.688,0.146-1.266,0.188c0-0.203-0.094-0.422-0.281-0.656
			c0.312,0.021,0.531,0.031,0.656,0.031c0.391,0,0.653-0.075,0.789-0.227c0.099-0.088,0.148-0.211,0.148-0.367l0.148-4.211h-1.828
			c-0.219,0.464-0.464,0.94-0.734,1.43c-0.177-0.141-0.383-0.234-0.617-0.281c0.317-0.338,0.633-0.838,0.945-1.5
			C20.633,256.944,20.815,256.405,21.023,255.618z M20.906,258.993c0.203,0.469,0.502,0.945,0.898,1.43
			c-0.177,0.1-0.352,0.234-0.523,0.406c-0.229-0.588-0.534-1.096-0.914-1.523C20.57,259.228,20.75,259.124,20.906,258.993z"/>
		<path d="M24.656,258.181c0.297,0.042,0.599,0.062,0.906,0.062h1.555c0.307,0,0.609-0.021,0.906-0.062
			C28.008,258.29,28,258.405,28,258.524c0,0.1,0.008,0.201,0.023,0.305c-0.297-0.041-0.599-0.062-0.906-0.062h-0.398l-1.156,2.375
			c0.604-0.125,1.203-0.219,1.797-0.281c-0.151-0.312-0.302-0.572-0.453-0.781c0.188-0.072,0.341-0.166,0.461-0.281
			c0.042,0.1,0.114,0.237,0.219,0.414c0.172,0.303,0.315,0.573,0.43,0.812c0.078,0.167,0.156,0.32,0.234,0.461
			c-0.13,0.042-0.31,0.136-0.539,0.281c-0.026-0.109-0.065-0.231-0.117-0.367c-1.188,0.026-2.073,0.183-2.656,0.469
			c-0.109-0.266-0.214-0.484-0.312-0.656c0.266-0.192,0.453-0.375,0.562-0.547c0.13-0.177,0.417-0.81,0.859-1.898h-0.484
			c-0.308,0-0.609,0.021-0.906,0.062c0.016-0.104,0.023-0.205,0.023-0.305C24.68,258.405,24.672,258.29,24.656,258.181z
			 M25.023,256.454c0.13,0.021,0.255,0.031,0.375,0.031h2.164c0.12,0,0.245-0.01,0.375-0.031c-0.021,0.1-0.031,0.193-0.031,0.281
			c0,0.109,0.01,0.214,0.031,0.312c-0.13-0.021-0.255-0.031-0.375-0.031h-2.164c-0.12,0-0.245,0.011-0.375,0.031
			c0.021-0.099,0.031-0.203,0.031-0.312C25.055,256.647,25.044,256.554,25.023,256.454z M27.773,257.454
			c0.276,0.047,0.549,0.07,0.82,0.07h0.523v-0.594c0-0.406-0.031-0.833-0.094-1.281c0.234,0.016,0.484,0.023,0.75,0.023
			c-0.078,0.245-0.117,0.555-0.117,0.93v0.922h1.219c0.25,0,0.5-0.013,0.75-0.039c-0.094,0.24-0.148,0.492-0.164,0.758l-0.18,3.836
			c-0.021,0.302-0.203,0.503-0.547,0.602c-0.386,0.109-0.716,0.172-0.992,0.188c0-0.25-0.083-0.458-0.25-0.625h0.445
			c0.312,0,0.531-0.057,0.656-0.172c0.078-0.083,0.117-0.174,0.117-0.273l0.195-3.75h-1.258c-0.037,1.312-0.167,2.269-0.391,2.867
			c-0.25,0.818-0.849,1.5-1.797,2.047c-0.125-0.214-0.31-0.394-0.555-0.539c0.87-0.354,1.43-0.817,1.68-1.391
			c0.338-0.713,0.516-1.708,0.531-2.984h-0.523c-0.271,0-0.544,0.021-0.82,0.062c0.021-0.109,0.031-0.224,0.031-0.344
			C27.805,257.668,27.794,257.563,27.773,257.454z"/>
		<path d="M34.148,255.587c0.192,0.104,0.466,0.186,0.82,0.242c-0.198,0.225-0.433,0.664-0.703,1.32
			c-0.026,0.068-0.052,0.131-0.078,0.188v4.461c0,0.386,0.021,0.773,0.062,1.164c-0.13-0.021-0.255-0.031-0.375-0.031
			c-0.12,0-0.234,0.011-0.344,0.031c0.042-0.391,0.062-0.778,0.062-1.164v-3.273c-0.24,0.428-0.503,0.842-0.789,1.242
			c-0.109-0.15-0.294-0.294-0.555-0.43c0.567-0.65,1.005-1.297,1.312-1.938C33.833,256.806,34.028,256.202,34.148,255.587z
			 M36.367,255.556c0.188,0.104,0.448,0.186,0.781,0.242c-0.172,0.188-0.386,0.558-0.641,1.109
			c-0.016,0.021-0.026,0.039-0.031,0.055h2.203c0.276,0,0.57-0.01,0.883-0.031c-0.021,0.109-0.031,0.214-0.031,0.312
			c0,0.115,0.01,0.219,0.031,0.312c-0.208-0.021-0.503-0.031-0.883-0.031h-1.836v1.273h1.812c0.25,0,0.518-0.01,0.805-0.031
			c-0.021,0.104-0.031,0.198-0.031,0.281c0,0.125,0.01,0.229,0.031,0.312c-0.188-0.016-0.456-0.023-0.805-0.023h-1.812v1.312h1.812
			c0.25,0,0.518-0.01,0.805-0.031c-0.021,0.1-0.031,0.193-0.031,0.281c0,0.115,0.01,0.219,0.031,0.312
			c-0.188-0.021-0.456-0.031-0.805-0.031h-1.812v0.836c0,0.302,0.021,0.606,0.062,0.914c-0.12-0.021-0.234-0.031-0.344-0.031
			c-0.12,0-0.234,0.011-0.344,0.031c0.042-0.308,0.062-0.612,0.062-0.914v-4.492h-0.086c-0.297,0.531-0.646,1.05-1.047,1.555
			c-0.099-0.141-0.273-0.275-0.523-0.406c0.521-0.536,0.922-1.072,1.203-1.609C36.078,256.569,36.258,256.066,36.367,255.556z"/>
		<path d="M2.273,270.716l-0.305,0.352c-0.391-0.387-0.697-0.828-0.92-1.324c-0.219-0.492-0.328-1.004-0.328-1.535
			s0.111-1.047,0.334-1.547c0.219-0.488,0.523-0.926,0.914-1.312l0.305,0.352c-0.336,0.332-0.598,0.717-0.785,1.154
			c-0.191,0.438-0.287,0.889-0.287,1.354s0.096,0.916,0.287,1.354C1.676,269.999,1.938,270.384,2.273,270.716z"/>
		<path d="M3.51,267.065c0.277,0.211,0.613,0.408,1.008,0.592c-0.105,0.113-0.197,0.252-0.275,0.416
			c-0.414-0.324-0.758-0.533-1.031-0.627C3.312,267.349,3.412,267.222,3.51,267.065z M4.219,268.495
			c0.09,0.086,0.213,0.164,0.369,0.234c-0.301,0.734-0.551,1.438-0.75,2.109c-0.176-0.125-0.332-0.219-0.469-0.281
			C3.646,270.12,3.93,269.433,4.219,268.495z M3.938,265.776c0.285,0.227,0.605,0.461,0.961,0.703
			c-0.137,0.133-0.232,0.26-0.287,0.381c-0.316-0.305-0.635-0.555-0.955-0.75C3.766,266.013,3.859,265.901,3.938,265.776z
			 M6.322,267.681c0.164,0.059,0.336,0.104,0.516,0.135c-0.039,0.109-0.062,0.229-0.07,0.357c0,0.398,0.057,0.736,0.17,1.014
			c0.105,0.277,0.268,0.506,0.486,0.686c0.285,0.258,0.725,0.479,1.318,0.662c-0.18,0.098-0.33,0.246-0.451,0.445
			c-0.395-0.199-0.736-0.453-1.025-0.762c-0.281-0.293-0.518-0.68-0.709-1.16c-0.098,0.402-0.27,0.74-0.516,1.014
			c-0.273,0.324-0.664,0.627-1.172,0.908c-0.086-0.176-0.217-0.316-0.393-0.422c0.566-0.164,0.979-0.363,1.236-0.598
			c0.246-0.215,0.42-0.512,0.521-0.891c0.074-0.328,0.111-0.635,0.111-0.92C6.346,267.993,6.338,267.837,6.322,267.681z
			 M6.398,265.454c0.133,0.027,0.297,0.041,0.492,0.041c-0.035,0.172-0.059,0.352-0.07,0.539c-0.023,0.262-0.074,0.5-0.152,0.715
			c0.559,0.254,1.234,0.572,2.027,0.955c-0.141,0.086-0.283,0.201-0.428,0.346c-0.25-0.199-0.832-0.514-1.746-0.943
			c-0.023,0.043-0.047,0.086-0.07,0.129c-0.266,0.434-0.752,0.809-1.459,1.125c-0.082-0.168-0.191-0.309-0.328-0.422
			c0.684-0.16,1.162-0.471,1.436-0.932c0.199-0.363,0.307-0.781,0.322-1.254C6.422,265.628,6.414,265.528,6.398,265.454z
			 M5.314,268.431c0.16,0.059,0.316,0.096,0.469,0.111c-0.082,0.133-0.223,0.469-0.422,1.008c-0.125-0.059-0.256-0.096-0.393-0.111
			C5.113,269.134,5.229,268.798,5.314,268.431z M5.438,265.876c0.156,0.062,0.312,0.1,0.469,0.111
			c-0.086,0.133-0.227,0.469-0.422,1.008c-0.133-0.059-0.268-0.096-0.404-0.111C5.229,266.583,5.348,266.247,5.438,265.876z
			 M7.711,265.8c0.102,0.07,0.242,0.127,0.422,0.17c-0.191,0.23-0.348,0.535-0.469,0.914c-0.121-0.098-0.248-0.168-0.381-0.211
			C7.447,266.431,7.59,266.14,7.711,265.8z M7.688,268.284c0.086,0.035,0.242,0.076,0.469,0.123c-0.039,0.047-0.072,0.107-0.1,0.182
			c-0.086,0.262-0.15,0.443-0.193,0.545c-0.035,0.074-0.064,0.152-0.088,0.234c-0.125-0.078-0.281-0.133-0.469-0.164
			c0.09-0.094,0.176-0.26,0.258-0.498C7.627,268.542,7.668,268.401,7.688,268.284z"/>
		<path d="M10.025,269.058c0.156,0.016,0.314,0.023,0.475,0.023h3.064c0.156,0,0.312-0.008,0.469-0.023
			c-0.016,0.109-0.023,0.221-0.023,0.334v1.008c0.211,0,0.424-0.016,0.639-0.047c-0.02,0.082-0.029,0.168-0.029,0.258
			c0,0.074,0.01,0.15,0.029,0.229c-0.23-0.031-0.457-0.047-0.68-0.047H9.984c-0.227,0-0.455,0.016-0.686,0.047
			c0.016-0.078,0.023-0.154,0.023-0.229c0-0.09-0.008-0.176-0.023-0.258c0.23,0.031,0.459,0.047,0.686,0.047h0.064v-1.008
			C10.049,269.278,10.041,269.167,10.025,269.058z M9.322,265.97c0.23,0.027,0.457,0.041,0.68,0.041h1.008v-0.369
			c0-0.059-0.006-0.115-0.018-0.17c0.172,0.047,0.35,0.07,0.533,0.07c-0.043,0.09-0.064,0.168-0.064,0.234v0.234h1.072v-0.393
			c0-0.059-0.008-0.113-0.023-0.164c0.176,0.043,0.355,0.064,0.539,0.064c-0.043,0.09-0.064,0.168-0.064,0.234v0.258h0.961
			c0.223,0,0.447-0.014,0.674-0.041c-0.016,0.086-0.023,0.17-0.023,0.252c0,0.078,0.008,0.158,0.023,0.24
			c-0.227-0.031-0.451-0.047-0.674-0.047h-0.961v0.281c0,0.059,0.006,0.121,0.018,0.188c-0.082-0.016-0.166-0.023-0.252-0.023
			c-0.078,0-0.158,0.008-0.24,0.023c0.016-0.066,0.023-0.129,0.023-0.188v-0.281h-1.072v0.281c0,0.059,0.008,0.121,0.023,0.188
			c-0.09-0.016-0.176-0.023-0.258-0.023s-0.16,0.008-0.234,0.023c0.012-0.066,0.018-0.129,0.018-0.188v-0.281h-1.008
			c-0.223,0-0.449,0.016-0.68,0.047c0.016-0.082,0.023-0.162,0.023-0.24C9.346,266.14,9.338,266.056,9.322,265.97z M10.096,267.142
			c0.137,0.016,0.301,0.023,0.492,0.023c-0.047,0.098-0.07,0.221-0.07,0.369v0.516c0,0.246,0.016,0.488,0.047,0.727
			c-0.074-0.016-0.152-0.023-0.234-0.023c-0.074,0-0.152,0.008-0.234,0.023c0.035-0.238,0.053-0.48,0.053-0.727v-0.281
			C10.148,267.562,10.131,267.353,10.096,267.142z M10.477,270.399h0.791v-1.008h-0.791V270.399z M11.156,266.995
			c0.133,0.016,0.297,0.023,0.492,0.023c-0.051,0.102-0.076,0.229-0.076,0.381v0.674c0,0.246,0.016,0.488,0.047,0.727
			c-0.078-0.016-0.154-0.023-0.229-0.023c-0.082,0-0.16,0.008-0.234,0.023c0.031-0.238,0.047-0.48,0.047-0.727v-0.439
			C11.203,267.419,11.188,267.206,11.156,266.995z M11.648,270.399h0.773v-1.008h-0.773V270.399z M12.58,266.884
			c0.148,0.066,0.312,0.111,0.492,0.135c-0.07,0.082-0.158,0.217-0.264,0.404h0.902c0.18,0,0.373-0.008,0.58-0.023
			c-0.016,0.074-0.023,0.145-0.023,0.211c0,0.078,0.008,0.146,0.023,0.205c-0.141-0.016-0.334-0.023-0.58-0.023h-1.102
			c-0.145,0.281-0.311,0.572-0.498,0.873c-0.121-0.098-0.26-0.162-0.416-0.193c0.191-0.172,0.377-0.426,0.557-0.762
			C12.346,267.558,12.455,267.282,12.58,266.884z M13.172,268.026c0.133,0.207,0.312,0.42,0.539,0.639
			c-0.141,0.031-0.275,0.102-0.404,0.211c-0.156-0.254-0.336-0.473-0.539-0.656C12.928,268.181,13.062,268.116,13.172,268.026z
			 M12.791,270.399h0.797v-1.008h-0.797V270.399z"/>
		<path d="M17.08,265.431c0.18,0.082,0.369,0.135,0.568,0.158c-0.105,0.086-0.217,0.207-0.334,0.363
			c-0.023,0.031-0.043,0.059-0.059,0.082h1.582c0.18,0,0.361-0.008,0.545-0.023c-0.102,0.105-0.191,0.225-0.27,0.357l-0.48,0.773
			h0.955c0.164,0,0.328-0.008,0.492-0.023c-0.016,0.156-0.023,0.311-0.023,0.463v1.107c0,0.18,0.008,0.357,0.023,0.533
			c-0.074-0.012-0.152-0.018-0.234-0.018s-0.168,0.006-0.258,0.018c0.012-0.117,0.018-0.232,0.018-0.346h-2.994v1.354
			c0.012,0.082,0.059,0.123,0.141,0.123h2.889c0.176,0,0.295-0.029,0.357-0.088c0.098-0.066,0.188-0.271,0.27-0.615
			c0.121,0.102,0.264,0.18,0.428,0.234c-0.168,0.426-0.322,0.686-0.463,0.779c-0.094,0.07-0.238,0.105-0.434,0.105h-3.047
			c-0.203,0-0.355-0.025-0.457-0.076c-0.082-0.055-0.123-0.145-0.123-0.27v-2.842c0-0.129-0.006-0.256-0.018-0.381
			c-0.164,0.145-0.338,0.281-0.521,0.41c-0.082-0.121-0.209-0.24-0.381-0.357c0.453-0.23,0.832-0.51,1.137-0.838
			C16.689,266.11,16.92,265.782,17.08,265.431z M16.248,267.124c0.133,0.012,0.264,0.018,0.393,0.018h1.465l0.551-0.75h-1.682
			C16.76,266.646,16.518,266.89,16.248,267.124z M16.611,268.495h1.242v-0.984h-1.242V268.495z M18.275,268.495h1.336v-0.984h-1.336
			V268.495z"/>
		<path d="M23.461,266.696c0.18,0.094,0.336,0.156,0.469,0.188c-0.164,0.129-0.354,0.371-0.568,0.727h0.398
			c0.219,0,0.439-0.018,0.662-0.053c-0.016,0.082-0.023,0.16-0.023,0.234c0,0.082,0.008,0.16,0.023,0.234
			c-0.223-0.031-0.443-0.047-0.662-0.047h-1.869c-0.223,0-0.441,0.016-0.656,0.047c0.012-0.074,0.018-0.152,0.018-0.234
			c0-0.074-0.006-0.152-0.018-0.234c0.215,0.035,0.434,0.053,0.656,0.053h1.189C23.256,267.282,23.383,266.978,23.461,266.696z
			 M21.469,266.11c0.215,0.031,0.432,0.047,0.65,0.047h1.5c0.223,0,0.441-0.016,0.656-0.047c-0.016,0.074-0.023,0.15-0.023,0.229
			c0,0.082,0.008,0.16,0.023,0.234c-0.215-0.031-0.434-0.047-0.656-0.047h-1.5c-0.219,0-0.436,0.016-0.65,0.047
			c0.016-0.074,0.023-0.152,0.023-0.234C21.492,266.261,21.484,266.185,21.469,266.11z M21.727,268.431
			c0.223,0.027,0.449,0.041,0.68,0.041h0.885c0.23,0,0.459-0.014,0.686-0.041c-0.031,0.199-0.047,0.4-0.047,0.604v1.107
			c0,0.219,0.016,0.436,0.047,0.65c-0.133-0.016-0.219-0.023-0.258-0.023c-0.043,0-0.129,0.008-0.258,0.023
			c0.023-0.188,0.037-0.375,0.041-0.562h-1.307c0,0.211,0.016,0.424,0.047,0.639c-0.133-0.02-0.219-0.029-0.258-0.029
			c-0.043,0-0.129,0.01-0.258,0.029c0.027-0.223,0.041-0.441,0.041-0.656v-1.178C21.768,268.831,21.754,268.63,21.727,268.431z
			 M22.26,266.808l0.381,0.615c-0.164,0.02-0.312,0.049-0.445,0.088c-0.094-0.258-0.205-0.467-0.334-0.627
			C21.982,266.88,22.115,266.854,22.26,266.808z M22.195,269.86h1.307v-1.008h-1.307V269.86z M22.846,265.308
			c0.098,0.207,0.225,0.42,0.381,0.639c-0.152,0.031-0.295,0.102-0.428,0.211c-0.102-0.254-0.217-0.475-0.346-0.662
			C22.613,265.46,22.744,265.397,22.846,265.308z M24.58,265.8c0.164,0.016,0.328,0.023,0.492,0.023h0.873
			c0.188,0,0.373-0.008,0.557-0.023c-0.066,0.184-0.268,0.881-0.604,2.092c0.477,0.539,0.717,0.982,0.721,1.33
			c0,0.34-0.088,0.588-0.264,0.744c-0.223,0.191-0.539,0.287-0.949,0.287c0-0.152-0.055-0.316-0.164-0.492
			c0.145,0.016,0.244,0.023,0.299,0.023c0.441,0,0.662-0.188,0.662-0.562c0-0.32-0.242-0.748-0.727-1.283
			c0.148-0.535,0.297-1.113,0.445-1.734h-0.896v4.049c0,0.246,0.008,0.488,0.023,0.727c-0.074-0.012-0.152-0.018-0.234-0.018
			c-0.074,0-0.152,0.006-0.234,0.018c0.016-0.238,0.023-0.48,0.023-0.727v-3.961C24.604,266.128,24.596,265.964,24.58,265.8z"/>
		<path d="M29.227,265.542c0.16,0.086,0.354,0.156,0.58,0.211c-0.117,0.09-0.246,0.244-0.387,0.463
			c-0.48,0.77-1.068,1.484-1.764,2.145c-0.113-0.137-0.27-0.256-0.469-0.357c0.559-0.391,0.996-0.797,1.312-1.219
			C28.863,266.308,29.105,265.894,29.227,265.542z M28.33,267.704c0.223,0.027,0.443,0.041,0.662,0.041h1.945
			c0.203,0,0.404-0.008,0.604-0.023c-0.062,0.191-0.1,0.395-0.111,0.609l-0.17,1.992c-0.012,0.242-0.137,0.406-0.375,0.492
			c-0.273,0.086-0.506,0.135-0.697,0.146c0-0.215-0.07-0.395-0.211-0.539c0.16,0.016,0.275,0.023,0.346,0.023
			c0.191,0,0.324-0.045,0.398-0.135c0.047-0.07,0.07-0.145,0.07-0.223l0.17-1.916h-1.277c-0.043,0.562-0.086,0.939-0.129,1.131
			c-0.09,0.355-0.236,0.633-0.439,0.832c-0.277,0.301-0.703,0.582-1.277,0.844c-0.094-0.156-0.25-0.264-0.469-0.322
			c0.531-0.191,0.906-0.377,1.125-0.557c0.27-0.184,0.461-0.428,0.574-0.732c0.09-0.242,0.152-0.641,0.188-1.195h-0.264
			c-0.219,0-0.439,0.016-0.662,0.047c0.016-0.09,0.023-0.176,0.023-0.258C28.354,267.872,28.346,267.786,28.33,267.704z
			 M30.75,265.407c0.191,0.578,0.434,1.039,0.727,1.383c0.316,0.348,0.738,0.637,1.266,0.867c-0.129,0.133-0.256,0.32-0.381,0.562
			c-0.527-0.328-0.936-0.666-1.225-1.014c-0.316-0.336-0.625-0.898-0.926-1.688C30.391,265.499,30.57,265.462,30.75,265.407z"/>
		<path d="M33.322,266.573c0.098,0.02,0.191,0.029,0.281,0.029h0.639v-0.779c0-0.129-0.008-0.26-0.023-0.393
			c0.16,0.027,0.332,0.041,0.516,0.041c-0.047,0.125-0.07,0.268-0.07,0.428v0.703h0.369c0.098,0,0.191-0.01,0.281-0.029
			c-0.016,0.074-0.023,0.145-0.023,0.211c0,0.082,0.008,0.16,0.023,0.234c-0.09-0.016-0.184-0.023-0.281-0.023h-0.369v1.049
			c0.23-0.086,0.447-0.178,0.65-0.275c-0.016,0.23-0.023,0.387-0.023,0.469c-0.234,0.078-0.443,0.148-0.627,0.211v2.021
			c0,0.203-0.076,0.336-0.229,0.398c-0.145,0.062-0.359,0.094-0.645,0.094c-0.035-0.195-0.113-0.359-0.234-0.492h0.357
			c0.219,0,0.328-0.08,0.328-0.24v-1.629c-0.391,0.145-0.664,0.268-0.82,0.369c-0.008-0.152-0.057-0.324-0.146-0.516
			c0.336-0.07,0.658-0.156,0.967-0.258v-1.201h-0.639c-0.09,0-0.184,0.008-0.281,0.023c0.016-0.074,0.023-0.152,0.023-0.234
			C33.346,266.718,33.338,266.647,33.322,266.573z M35.619,268.05c0.215,0.035,0.426,0.053,0.633,0.053h1.389
			c0.211,0,0.42-0.018,0.627-0.053c-0.027,0.188-0.041,0.377-0.041,0.568v1.705c0,0.207,0.014,0.412,0.041,0.615
			c-0.117-0.016-0.195-0.023-0.234-0.023s-0.125,0.008-0.258,0.023c0.027-0.164,0.041-0.328,0.041-0.492H36.07
			c0.004,0.164,0.018,0.328,0.041,0.492c-0.125-0.016-0.211-0.023-0.258-0.023c-0.039,0-0.117,0.008-0.234,0.023
			c0.035-0.203,0.053-0.408,0.053-0.615v-1.705C35.672,268.427,35.654,268.237,35.619,268.05z M38.156,265.712
			c0.082,0.172,0.191,0.312,0.328,0.422c-0.105,0.012-0.283,0.049-0.533,0.111c-0.602,0.176-1.215,0.334-1.84,0.475v0.469
			c0,0.109,0.047,0.164,0.141,0.164h1.523c0.176,0,0.303-0.037,0.381-0.111c0.074-0.062,0.111-0.23,0.111-0.504
			c0.086,0.113,0.213,0.191,0.381,0.234c-0.043,0.254-0.105,0.432-0.188,0.533c-0.105,0.133-0.303,0.199-0.592,0.199h-1.781
			c-0.242,0-0.365-0.086-0.369-0.258v-1.623c0-0.129-0.016-0.26-0.047-0.393c0.164,0.027,0.328,0.041,0.492,0.041
			c-0.035,0.07-0.053,0.15-0.053,0.24v0.703c0.328-0.082,0.648-0.172,0.961-0.27C37.502,266.017,37.863,265.872,38.156,265.712z
			 M36.064,269.058h1.758v-0.604h-1.758V269.058z M36.064,270.089h1.758v-0.674h-1.758V270.089z"/>
		<path d="M39.492,267.353c0.223,0.031,0.449,0.047,0.68,0.047h1.166c0.23,0,0.457-0.016,0.68-0.047
			C42.006,267.435,42,267.521,42,267.61c0,0.074,0.006,0.15,0.018,0.229c-0.223-0.031-0.449-0.047-0.68-0.047h-0.299l-0.867,1.781
			c0.453-0.094,0.902-0.164,1.348-0.211c-0.113-0.234-0.227-0.43-0.34-0.586c0.141-0.055,0.256-0.125,0.346-0.211
			c0.031,0.074,0.086,0.178,0.164,0.311c0.129,0.227,0.236,0.43,0.322,0.609c0.059,0.125,0.117,0.24,0.176,0.346
			c-0.098,0.031-0.232,0.102-0.404,0.211c-0.02-0.082-0.049-0.174-0.088-0.275c-0.891,0.02-1.555,0.137-1.992,0.352
			c-0.082-0.199-0.16-0.363-0.234-0.492c0.199-0.145,0.34-0.281,0.422-0.41c0.098-0.133,0.312-0.607,0.645-1.424h-0.363
			c-0.23,0-0.457,0.016-0.68,0.047c0.012-0.078,0.018-0.154,0.018-0.229C39.51,267.521,39.504,267.435,39.492,267.353z
			 M39.768,266.058c0.098,0.016,0.191,0.023,0.281,0.023h1.623c0.09,0,0.184-0.008,0.281-0.023
			c-0.016,0.074-0.023,0.145-0.023,0.211c0,0.082,0.008,0.16,0.023,0.234c-0.098-0.016-0.191-0.023-0.281-0.023h-1.623
			c-0.09,0-0.184,0.008-0.281,0.023c0.016-0.074,0.023-0.152,0.023-0.234C39.791,266.202,39.783,266.132,39.768,266.058z
			 M41.83,266.808c0.207,0.035,0.412,0.053,0.615,0.053h0.393v-0.445c0-0.305-0.023-0.625-0.07-0.961
			c0.176,0.012,0.363,0.018,0.562,0.018c-0.059,0.184-0.088,0.416-0.088,0.697v0.691h0.914c0.188,0,0.375-0.01,0.562-0.029
			c-0.07,0.18-0.111,0.369-0.123,0.568l-0.135,2.877c-0.016,0.227-0.152,0.377-0.41,0.451c-0.289,0.082-0.537,0.129-0.744,0.141
			c0-0.188-0.062-0.344-0.188-0.469h0.334c0.234,0,0.398-0.043,0.492-0.129c0.059-0.062,0.088-0.131,0.088-0.205l0.146-2.812h-0.943
			c-0.027,0.984-0.125,1.701-0.293,2.15c-0.188,0.613-0.637,1.125-1.348,1.535c-0.094-0.16-0.232-0.295-0.416-0.404
			c0.652-0.266,1.072-0.613,1.26-1.043c0.254-0.535,0.387-1.281,0.398-2.238h-0.393c-0.203,0-0.408,0.016-0.615,0.047
			c0.016-0.082,0.023-0.168,0.023-0.258C41.854,266.968,41.846,266.89,41.83,266.808z"/>
		<path d="M46.611,265.407c0.145,0.078,0.35,0.139,0.615,0.182c-0.148,0.168-0.324,0.498-0.527,0.99
			c-0.02,0.051-0.039,0.098-0.059,0.141v3.346c0,0.289,0.016,0.58,0.047,0.873c-0.098-0.016-0.191-0.023-0.281-0.023
			s-0.176,0.008-0.258,0.023c0.031-0.293,0.047-0.584,0.047-0.873v-2.455c-0.18,0.32-0.377,0.631-0.592,0.932
			c-0.082-0.113-0.221-0.221-0.416-0.322c0.426-0.488,0.754-0.973,0.984-1.453C46.375,266.321,46.521,265.868,46.611,265.407z
			 M48.275,265.384c0.141,0.078,0.336,0.139,0.586,0.182c-0.129,0.141-0.289,0.418-0.48,0.832c-0.012,0.016-0.02,0.029-0.023,0.041
			h1.652c0.207,0,0.428-0.008,0.662-0.023c-0.016,0.082-0.023,0.16-0.023,0.234c0,0.086,0.008,0.164,0.023,0.234
			c-0.156-0.016-0.377-0.023-0.662-0.023h-1.377v0.955h1.359c0.188,0,0.389-0.008,0.604-0.023c-0.016,0.078-0.023,0.148-0.023,0.211
			c0,0.094,0.008,0.172,0.023,0.234c-0.141-0.012-0.342-0.018-0.604-0.018h-1.359v0.984h1.359c0.188,0,0.389-0.008,0.604-0.023
			c-0.016,0.074-0.023,0.145-0.023,0.211c0,0.086,0.008,0.164,0.023,0.234c-0.141-0.016-0.342-0.023-0.604-0.023h-1.359v0.627
			c0,0.227,0.016,0.455,0.047,0.686c-0.09-0.016-0.176-0.023-0.258-0.023c-0.09,0-0.176,0.008-0.258,0.023
			c0.031-0.23,0.047-0.459,0.047-0.686v-3.369h-0.064c-0.223,0.398-0.484,0.787-0.785,1.166c-0.074-0.105-0.205-0.207-0.393-0.305
			c0.391-0.402,0.691-0.805,0.902-1.207C48.059,266.144,48.193,265.767,48.275,265.384z"/>
		<path d="M51.58,266.573c0.238,0.035,0.473,0.053,0.703,0.053h1.412v-0.422c0-0.254-0.016-0.504-0.047-0.75
			c0.156,0.012,0.344,0.018,0.562,0.018c-0.047,0.121-0.07,0.271-0.07,0.451v0.703h1.424c0.238,0,0.473-0.018,0.703-0.053
			c-0.027,0.215-0.041,0.428-0.041,0.639v1.43c0,0.223,0.014,0.447,0.041,0.674c-0.129-0.016-0.215-0.023-0.258-0.023
			s-0.135,0.008-0.275,0.023c0.02-0.145,0.031-0.291,0.035-0.439h-1.629v1.213c0,0.289,0.016,0.58,0.047,0.873
			c-0.098-0.016-0.191-0.023-0.281-0.023s-0.176,0.008-0.258,0.023c0.031-0.293,0.047-0.584,0.047-0.873v-1.213h-1.617
			c0.004,0.164,0.018,0.328,0.041,0.492c-0.137-0.02-0.23-0.029-0.281-0.029c-0.043,0-0.129,0.01-0.258,0.029
			c0.035-0.23,0.053-0.457,0.053-0.68v-1.477C51.633,267.001,51.615,266.788,51.58,266.573z M52.072,268.472h1.623v-1.453h-1.623
			V268.472z M54.141,267.019v1.453h1.635v-1.453H54.141z"/>
		<path d="M59.279,268.208c0,0.531-0.109,1.043-0.328,1.535c-0.223,0.496-0.529,0.938-0.92,1.324l-0.305-0.352
			c0.336-0.332,0.598-0.717,0.785-1.154c0.191-0.438,0.287-0.889,0.287-1.354s-0.096-0.916-0.287-1.354
			c-0.188-0.438-0.449-0.822-0.785-1.154l0.305-0.352c0.391,0.387,0.695,0.824,0.914,1.312
			C59.168,267.161,59.279,267.677,59.279,268.208z"/>
	</g>
	<g>
	</g>
	<g>
	</g>
	<g>
	</g>
	<g>
	</g>
	<g>
	</g>
	<g>
	</g>
	<g>
	</g>
	<g>
	</g>
	<g>
	</g>
	<g>
	</g>
	<g>
	</g>
	<g>
	</g>
	<g>
	</g>
	<g>
	</g>
	<g>
	</g>
</g>
</svg>
