<?xml version="1.0" encoding="utf-8"?>
<!-- Generator: Adobe Illustrator 28.2.0, SVG Export Plug-In . SVG Version: 6.00 Build 0)  -->
<svg version="1.1" xmlns="http://www.w3.org/2000/svg" xmlns:xlink="http://www.w3.org/1999/xlink" x="0px" y="0px"
	 width="463.108px" height="392.152px" viewBox="0 0 463.108 392.152" style="enable-background:new 0 0 463.108 392.152;"
	 xml:space="preserve">
<style type="text/css">
	.st0{fill:none;stroke:#666666;stroke-width:0.5;stroke-miterlimit:10;stroke-dasharray:1;}
	.st1{fill:none;stroke:#000000;stroke-miterlimit:10;}
	.st2{fill:#233B59;}
</style>
<g id="レイヤー_1">
	<line class="st0" x1="86.185" y1="389.317" x2="394.33" y2="389.317"/>
	<line class="st0" x1="73.701" y1="297.74" x2="463.108" y2="297.74"/>
	<line class="st0" x1="394.33" y1="12.309" x2="394.33" y2="392.152"/>
	<line class="st0" x1="450.891" y1="12.309" x2="450.891" y2="392.152"/>
	<line class="st0" x1="348.629" y1="12.309" x2="348.628" y2="392.152"/>
	<line class="st0" x1="291.162" y1="12.309" x2="291.162" y2="392.152"/>
	<line class="st0" x1="86.185" y1="12.309" x2="86.185" y2="392.152"/>
	<polyline class="st1" points="463.108,46.325 348.628,46.325 348.628,23.648 86.185,23.648 86.185,46.325 73.701,46.325 	"/>
	<polyline class="st1" points="463.108,80.387 291.162,80.387 291.162,57.71 165.97,58.249 165.97,80.926 73.701,80.387 	"/>
	<polyline class="st1" points="463.108,114.988 291.162,114.988 291.162,92.311 86.185,92.311 86.185,114.988 73.701,114.988 	"/>
	<polyline class="st1" points="463.108,148.939 348.628,148.939 348.628,126.262 291.162,126.262 291.162,148.939 73.701,148.939 	
		"/>
	<polyline class="st1" points="463.108,217.83 450.891,217.83 450.891,195.153 291.162,195.153 291.162,217.83 73.701,217.83 	"/>
	<polyline class="st1" points="463.108,252.404 450.891,252.404 450.891,229.727 394.33,229.727 394.33,252.404 73.701,252.404 	"/>
	<polyline class="st1" points="463.108,286.41 394.33,286.41 394.33,263.733 291.162,263.733 291.162,286.41 73.701,286.41 	"/>
	<polyline class="st1" points="463.108,389.317 394.33,389.317 291.162,332.018 165.823,332.02 86.185,389.317 73.701,389.317 	"/>
	<line class="st0" x1="165.823" y1="12.309" x2="165.823" y2="392.152"/>
</g>
<g id="レイヤー_2">
	<g>
		<path d="M44.053,37.254h-4.238v-5.741h4.182v0.688h-3.406v1.759h3.142v0.688h-3.142v1.919h3.462V37.254z"/>
		<path d="M48.382,37.254h-0.896l-1.04-1.575l-1.007,1.575h-0.888l1.471-2.151l-1.399-2.031h0.904l0.967,1.471l0.968-1.471h0.863
			l-1.415,2.031L48.382,37.254z"/>
		<path d="M52.534,35.943c-0.024,0.2-0.216,0.792-0.744,1.144c-0.192,0.128-0.464,0.288-1.135,0.288
			c-1.175,0-1.871-0.888-1.871-2.095c0-1.295,0.624-2.327,2.007-2.327c1.208,0,1.799,0.959,1.799,2.439h-3.054
			c0,0.872,0.408,1.375,1.215,1.375c0.664,0,1.056-0.512,1.08-0.824H52.534z M51.862,34.832c-0.04-0.647-0.312-1.247-1.167-1.247
			c-0.648,0-1.16,0.6-1.16,1.247H51.862z"/>
		<path d="M56.046,34.48c-0.088-0.56-0.4-0.896-0.992-0.896c-0.871,0-1.151,0.832-1.151,1.575c0,0.72,0.176,1.607,1.144,1.607
			c0.472,0,0.879-0.352,1-0.991h0.68c-0.072,0.664-0.48,1.599-1.703,1.599c-1.175,0-1.871-0.888-1.871-2.095
			c0-1.295,0.624-2.327,2.007-2.327c1.096,0,1.511,0.8,1.567,1.527H56.046z"/>
		<path d="M60.158,37.254v-0.607l-0.016-0.016c-0.296,0.488-0.656,0.744-1.328,0.744c-0.616,0-1.359-0.296-1.359-1.295v-3.006h0.703
			v2.774c0,0.688,0.352,0.919,0.808,0.919c0.888,0,1.151-0.784,1.151-1.391v-2.303h0.704v4.182H60.158z"/>
		<path d="M62.743,33.656v2.719c0,0.328,0.28,0.328,0.424,0.328h0.248v0.552c-0.256,0.024-0.456,0.056-0.527,0.056
			c-0.696,0-0.848-0.392-0.848-0.896v-2.759h-0.568v-0.583h0.568v-1.167h0.704v1.167h0.671v0.583H62.743z"/>
		<path d="M67.654,35.943c-0.024,0.2-0.216,0.792-0.744,1.144c-0.192,0.128-0.464,0.288-1.135,0.288
			c-1.175,0-1.871-0.888-1.871-2.095c0-1.295,0.624-2.327,2.007-2.327c1.208,0,1.799,0.959,1.799,2.439h-3.054
			c0,0.872,0.408,1.375,1.215,1.375c0.664,0,1.056-0.512,1.08-0.824H67.654z M66.982,34.832c-0.04-0.647-0.312-1.247-1.167-1.247
			c-0.648,0-1.16,0.6-1.16,1.247H66.982z"/>
	</g>
	<g>
		<path class="st2" d="M6.887,21.947H5.626v-5.401H5.609l-1.207,5.401H3.079l-1.18-5.401H1.881v5.401h-1.26v-6.464h1.972l1.17,5.096
			h0.018l1.152-5.096h1.954V21.947z"/>
		<path class="st2" d="M12.305,17.599c-0.108-0.387-0.315-1.117-1.432-1.117c-0.648,0-1.603,0.432-1.603,2.26
			c0,1.162,0.459,2.206,1.603,2.206c0.747,0,1.27-0.423,1.432-1.215h1.35c-0.27,1.405-1.188,2.386-2.809,2.386
			c-1.72,0-2.953-1.161-2.953-3.394c0-2.259,1.306-3.412,2.971-3.412c1.936,0,2.719,1.332,2.791,2.287H12.305z"/>
		<path class="st2" d="M19,22.623v0.45h-5.005v-0.45H19z"/>
		<path class="st2" d="M25.886,21.947h-1.261v-5.401h-0.018l-1.207,5.401h-1.323l-1.18-5.401H20.88v5.401h-1.26v-6.464h1.972
			l1.17,5.096h0.018l1.152-5.096h1.954V21.947z"/>
		<path class="st2" d="M29.251,22.073c-1.288,0-2.449-0.792-2.449-2.521s1.161-2.521,2.449-2.521c1.287,0,2.449,0.792,2.449,2.521
			S30.538,22.073,29.251,22.073z M29.251,18.094c-0.972,0-1.152,0.846-1.152,1.458c0,0.612,0.18,1.458,1.152,1.458
			s1.152-0.846,1.152-1.458C30.403,18.94,30.223,18.094,29.251,18.094z"/>
		<path class="st2" d="M35.155,21.947h-1.324l-1.719-4.79h1.404l0.99,3.529h0.018l1.017-3.529h1.342L35.155,21.947z"/>
		<path class="st2" d="M41.698,20.543c-0.333,1.152-1.287,1.53-2.106,1.53c-1.351,0-2.386-0.648-2.386-2.62
			c0-0.576,0.198-2.422,2.296-2.422c0.945,0,2.25,0.45,2.25,2.638v0.225h-3.286c0.036,0.36,0.108,1.17,1.125,1.17
			c0.351,0,0.711-0.18,0.81-0.522H41.698z M40.456,19.075c-0.072-0.774-0.567-1.008-0.972-1.008c-0.594,0-0.909,0.378-0.981,1.008
			H40.456z"/>
		<path class="st2" d="M46.432,15.483h1.405l-2.197,6.464h-1.288l-2.179-6.464h1.45l1.386,4.897h0.018L46.432,15.483z"/>
		<path class="st2" d="M52.705,20.543c-0.333,1.152-1.287,1.53-2.106,1.53c-1.351,0-2.386-0.648-2.386-2.62
			c0-0.576,0.198-2.422,2.296-2.422c0.945,0,2.25,0.45,2.25,2.638v0.225h-3.286c0.036,0.36,0.108,1.17,1.125,1.17
			c0.351,0,0.711-0.18,0.81-0.522H52.705z M51.463,19.075c-0.072-0.774-0.567-1.008-0.972-1.008c-0.594,0-0.909,0.378-0.981,1.008
			H51.463z"/>
		<path class="st2" d="M54.891,21.947h-1.26v-6.464h1.26V21.947z"/>
		<path class="st2" d="M58.267,22.073c-1.288,0-2.449-0.792-2.449-2.521s1.161-2.521,2.449-2.521c1.287,0,2.449,0.792,2.449,2.521
			S59.554,22.073,58.267,22.073z M58.267,18.094c-0.972,0-1.152,0.846-1.152,1.458c0,0.612,0.18,1.458,1.152,1.458
			s1.152-0.846,1.152-1.458C59.419,18.94,59.239,18.094,58.267,18.094z"/>
		<path class="st2" d="M65.719,20.201c-0.045,0.495-0.432,1.873-2.188,1.873c-1.8,0-2.214-1.377-2.214-2.386
			c0-1.548,0.675-2.656,2.295-2.656c0.756,0,1.999,0.342,2.116,1.836H64.45c-0.054-0.306-0.234-0.774-0.774-0.774h-0.063
			c-0.792,0-0.999,0.792-0.999,1.386c0,0.522,0.018,1.558,0.972,1.558c0.639,0,0.855-0.612,0.855-0.837H65.719z"/>
		<path class="st2" d="M67.896,16.591h-1.26v-1.17h1.26V16.591z M67.896,17.158v4.79h-1.26v-4.79H67.896z"/>
		<path class="st2" d="M70.515,17.158h0.783v0.9h-0.783v2.602c0,0.279,0.009,0.387,0.522,0.387c0.081,0,0.171-0.009,0.261-0.018
			v0.955c-0.198,0.009-0.396,0.018-0.594,0.018h-0.162c-1.089,0-1.287-0.415-1.287-1.036v-2.908h-0.648v-0.9h0.648v-1.296h1.26
			V17.158z"/>
		<path class="st2" d="M74.719,21.866c-0.594,1.773-0.756,2.008-1.854,2.008c-0.171,0-0.387-0.009-0.567-0.018v-1.008
			c0.054,0.009,0.135,0.018,0.243,0.018c0.459,0,0.711-0.063,0.828-0.72l-1.765-4.988h1.405l1.026,3.529h0.018l0.981-3.529h1.333
			L74.719,21.866z"/>
	</g>
	<g>
		<path d="M7.757,136.95c-0.216-1.008-1.055-1.191-1.607-1.191c-1.04,0-1.879,0.768-1.879,2.278c0,1.352,0.48,2.391,1.903,2.391
			c0.504,0,1.375-0.239,1.639-1.575h0.751c-0.32,2.167-2.079,2.263-2.51,2.263c-1.303,0-2.583-0.848-2.583-3.054
			c0-1.768,1.007-2.99,2.678-2.99c1.479,0,2.247,0.919,2.359,1.879H7.757z"/>
		<path d="M11.119,136.662c1.335,0,1.943,1.127,1.943,2.207c0,1.079-0.607,2.206-1.943,2.206c-1.335,0-1.943-1.127-1.943-2.206
			C9.176,137.789,9.784,136.662,11.119,136.662z M11.119,140.467c1.008,0,1.215-1.039,1.215-1.599s-0.208-1.6-1.215-1.6
			c-1.007,0-1.215,1.04-1.215,1.6S10.111,140.467,11.119,140.467z"/>
		<path d="M13.864,136.782h0.664v0.592h0.016c0.152-0.225,0.512-0.712,1.264-0.712c0.751,0,0.991,0.456,1.111,0.68
			c0.352-0.392,0.631-0.68,1.279-0.68c0.448,0,1.295,0.231,1.295,1.407v2.895h-0.704v-2.703c0-0.575-0.176-0.967-0.775-0.967
			c-0.592,0-0.983,0.56-0.983,1.119v2.551h-0.704v-2.895c0-0.352-0.136-0.775-0.656-0.775c-0.4,0-1.104,0.256-1.104,1.391v2.279
			h-0.704V136.782z"/>
		<path d="M20.528,136.782h0.664v0.592h0.016c0.152-0.225,0.512-0.712,1.264-0.712c0.751,0,0.991,0.456,1.111,0.68
			c0.352-0.392,0.631-0.68,1.279-0.68c0.448,0,1.295,0.231,1.295,1.407v2.895h-0.704v-2.703c0-0.575-0.176-0.967-0.775-0.967
			c-0.592,0-0.983,0.56-0.983,1.119v2.551h-0.704v-2.895c0-0.352-0.136-0.775-0.656-0.775c-0.4,0-1.104,0.256-1.104,1.391v2.279
			h-0.704V136.782z"/>
		<path d="M27.168,138.053c0.032-1,0.696-1.392,1.727-1.392c0.336,0,1.551,0.096,1.551,1.167v2.407c0,0.176,0.088,0.248,0.232,0.248
			c0.064,0,0.152-0.017,0.232-0.032v0.512c-0.12,0.032-0.224,0.08-0.384,0.08c-0.624,0-0.72-0.32-0.744-0.64
			c-0.272,0.296-0.696,0.68-1.511,0.68c-0.768,0-1.311-0.488-1.311-1.208c0-0.352,0.104-1.167,1.271-1.311l1.16-0.145
			c0.167-0.016,0.368-0.08,0.368-0.495c0-0.44-0.32-0.68-0.983-0.68c-0.8,0-0.912,0.487-0.959,0.808H27.168z M29.743,138.829
			c-0.112,0.088-0.288,0.151-1.159,0.264c-0.344,0.048-0.896,0.151-0.896,0.68c0,0.456,0.231,0.728,0.759,0.728
			c0.656,0,1.295-0.424,1.295-0.983V138.829z"/>
		<path d="M35.046,140.963h-0.704v-2.575c0-0.728-0.208-1.095-0.896-1.095c-0.4,0-1.104,0.256-1.104,1.391v2.279H31.64v-4.182h0.664
			v0.592h0.016c0.152-0.225,0.544-0.712,1.264-0.712c0.647,0,1.463,0.264,1.463,1.455V140.963z"/>
		<path d="M39.559,140.963h-0.664v-0.576h-0.016c-0.304,0.568-0.784,0.696-1.191,0.696c-1.423,0-1.839-1.336-1.839-2.335
			c0-1.176,0.632-2.087,1.743-2.087c0.759,0,1.08,0.472,1.247,0.712l0.016-0.057v-2.095h0.704V140.963z M37.704,140.475
			c0.448,0,1.144-0.296,1.144-1.407c0-0.68-0.112-1.774-1.127-1.774c-1.087,0-1.144,1.031-1.144,1.566
			C36.576,139.78,36.936,140.475,37.704,140.475z"/>
		<path d="M41.528,139.292l-0.6,1.671h-0.8l2.159-5.741h0.88l2.079,5.741h-0.847l-0.568-1.671H41.528z M43.551,138.604l-0.848-2.526
			h-0.016l-0.919,2.526H43.551z"/>
		<path d="M45.817,140.963v-5.741h0.704v2.087h0.016c0.304-0.439,0.719-0.64,1.207-0.647c1.111,0,1.743,0.911,1.743,2.087
			c0,0.999-0.416,2.335-1.839,2.335c-0.712,0-1.008-0.408-1.151-0.64H46.48v0.52H45.817z M47.616,137.293
			c-1.016,0-1.127,1.095-1.127,1.774c0,1.111,0.696,1.407,1.144,1.407c0.768,0,1.127-0.695,1.127-1.615
			C48.759,138.325,48.703,137.293,47.616,137.293z"/>
		<path d="M52.024,136.662c1.335,0,1.943,1.127,1.943,2.207c0,1.079-0.607,2.206-1.943,2.206c-1.335,0-1.943-1.127-1.943-2.206
			C50.081,137.789,50.689,136.662,52.024,136.662z M52.024,140.467c1.008,0,1.215-1.039,1.215-1.599s-0.208-1.6-1.215-1.6
			c-1.007,0-1.215,1.04-1.215,1.6S51.017,140.467,52.024,140.467z"/>
		<path d="M55.569,140.963h-0.704v-4.182h0.664v0.695h0.016c0.28-0.487,0.647-0.815,1.175-0.815c0.088,0,0.128,0.008,0.184,0.023
			v0.729H56.64c-0.656,0-1.071,0.512-1.071,1.119V140.963z"/>
		<path d="M58.297,137.365v2.719c0,0.328,0.28,0.328,0.424,0.328h0.248v0.552c-0.256,0.023-0.456,0.056-0.527,0.056
			c-0.696,0-0.848-0.392-0.848-0.896v-2.759h-0.568v-0.583h0.568v-1.168h0.704v1.168h0.671v0.583H58.297z"/>
		<path d="M63.208,139.652c-0.024,0.2-0.216,0.792-0.744,1.144c-0.192,0.128-0.464,0.288-1.135,0.288
			c-1.175,0-1.871-0.888-1.871-2.096c0-1.295,0.624-2.326,2.007-2.326c1.208,0,1.799,0.959,1.799,2.438h-3.054
			c0,0.872,0.408,1.375,1.215,1.375c0.664,0,1.056-0.512,1.08-0.823H63.208z M62.536,138.541c-0.04-0.647-0.312-1.247-1.167-1.247
			c-0.648,0-1.16,0.6-1.16,1.247H62.536z"/>
		<path d="M67.575,140.963h-0.664v-0.576h-0.016c-0.304,0.568-0.784,0.696-1.191,0.696c-1.423,0-1.839-1.336-1.839-2.335
			c0-1.176,0.632-2.087,1.743-2.087c0.759,0,1.08,0.472,1.247,0.712l0.016-0.057v-2.095h0.704V140.963z M65.72,140.475
			c0.448,0,1.144-0.296,1.144-1.407c0-0.68-0.112-1.774-1.127-1.774c-1.087,0-1.144,1.031-1.144,1.566
			C64.593,139.78,64.953,140.475,65.72,140.475z"/>
	</g>
	<g>
		<path d="M34.855,72.052H34.08v-5.741h0.775V72.052z"/>
		<path d="M39.502,72.052h-0.704v-2.575c0-0.728-0.208-1.095-0.896-1.095c-0.4,0-1.104,0.256-1.104,1.391v2.279h-0.704v-4.182h0.664
			v0.592h0.016c0.152-0.224,0.544-0.712,1.263-0.712c0.648,0,1.463,0.264,1.463,1.455V72.052z"/>
		<path d="M44.326,66.312h0.872l-2.095,5.741h-0.823l-2.095-5.741h0.863l1.639,4.893h0.016L44.326,66.312z"/>
		<path d="M49.43,70.741c-0.024,0.2-0.216,0.792-0.744,1.144c-0.192,0.128-0.464,0.288-1.135,0.288
			c-1.175,0-1.871-0.888-1.871-2.095c0-1.295,0.624-2.327,2.007-2.327c1.208,0,1.799,0.959,1.799,2.439h-3.055
			c0,0.872,0.408,1.375,1.215,1.375c0.664,0,1.056-0.512,1.08-0.824H49.43z M48.758,69.629c-0.04-0.647-0.312-1.247-1.167-1.247
			c-0.648,0-1.16,0.6-1.16,1.247H48.758z"/>
		<path d="M51.047,72.052h-0.704v-5.741h0.704V72.052z"/>
		<path d="M53.807,67.75c1.335,0,1.943,1.127,1.943,2.207c0,1.079-0.607,2.207-1.943,2.207c-1.335,0-1.943-1.127-1.943-2.207
			C51.864,68.878,52.472,67.75,53.807,67.75z M53.807,71.557c1.007,0,1.215-1.04,1.215-1.599s-0.208-1.599-1.215-1.599
			s-1.215,1.04-1.215,1.599S52.799,71.557,53.807,71.557z"/>
		<path d="M59.166,69.278c-0.088-0.56-0.4-0.896-0.992-0.896c-0.871,0-1.151,0.832-1.151,1.575c0,0.72,0.176,1.607,1.144,1.607
			c0.472,0,0.879-0.352,1-0.991h0.68c-0.072,0.664-0.48,1.599-1.703,1.599c-1.175,0-1.871-0.888-1.871-2.095
			c0-1.295,0.624-2.327,2.007-2.327c1.096,0,1.511,0.8,1.567,1.527H59.166z"/>
		<path d="M60.567,67.111v-0.799h0.704v0.799H60.567z M61.271,72.052h-0.704v-4.182h0.704V72.052z"/>
		<path d="M63.191,68.454v2.719c0,0.328,0.28,0.328,0.424,0.328h0.248v0.552c-0.256,0.024-0.456,0.056-0.527,0.056
			c-0.696,0-0.848-0.392-0.848-0.896v-2.759h-0.568v-0.583h0.568v-1.167h0.704v1.167h0.671v0.583H63.191z"/>
		<path d="M67.166,67.871h0.775c-0.488,1.367-0.967,2.734-1.503,4.102c-0.664,1.695-0.736,1.791-1.639,1.791
			c-0.104,0-0.184-0.032-0.296-0.064v-0.64c0.088,0.032,0.232,0.072,0.424,0.072c0.368,0,0.408-0.104,0.744-0.968l-1.551-4.293h0.8
			l1.111,3.406h0.016L67.166,67.871z"/>
	</g>
	<g>
		<path d="M50.839,101.11h2.526c1.071,0,1.623,0.664,1.623,1.447c0,0.375-0.136,0.903-0.768,1.199
			c0.376,0.152,1.04,0.416,1.04,1.399c0,0.92-0.68,1.695-1.951,1.695h-2.471V101.11z M51.615,103.541h1.399
			c0.744,0,1.199-0.224,1.199-0.928c0-0.536-0.328-0.839-1.191-0.839h-1.407V103.541z M51.615,106.187h1.655
			c0.808,0,1.215-0.408,1.215-1.047c0-0.808-0.712-0.968-1.343-0.968h-1.527V106.187z"/>
		<path d="M58.83,106.851v-0.607l-0.016-0.016c-0.296,0.488-0.656,0.744-1.328,0.744c-0.616,0-1.359-0.296-1.359-1.295v-3.006h0.703
			v2.774c0,0.688,0.352,0.919,0.808,0.919c0.888,0,1.151-0.784,1.151-1.391v-2.303h0.704v4.182H58.83z"/>
		<path d="M62.926,103.86c-0.008-0.264-0.104-0.704-0.992-0.704c-0.216,0-0.832,0.072-0.832,0.591c0,0.344,0.216,0.424,0.76,0.56
			l0.704,0.176c0.872,0.216,1.175,0.536,1.175,1.104c0,0.863-0.711,1.383-1.655,1.383c-1.655,0-1.775-0.959-1.799-1.463h0.68
			c0.024,0.328,0.12,0.855,1.111,0.855c0.504,0,0.959-0.2,0.959-0.664c0-0.336-0.232-0.448-0.832-0.6l-0.815-0.2
			c-0.584-0.144-0.968-0.439-0.968-1.015c0-0.919,0.76-1.335,1.583-1.335c1.495,0,1.599,1.104,1.599,1.312H62.926z"/>
		<path d="M67.166,102.669h0.775c-0.488,1.367-0.967,2.734-1.503,4.102c-0.664,1.695-0.736,1.791-1.639,1.791
			c-0.104,0-0.184-0.032-0.296-0.064v-0.64c0.088,0.032,0.232,0.072,0.424,0.072c0.368,0,0.408-0.104,0.744-0.968l-1.551-4.293h0.8
			l1.111,3.406h0.016L67.166,102.669z"/>
	</g>
	<g>
		<path d="M83.68,0.779C83,2.059,82.592,2.826,82.592,4.745c0,1.319,0.456,2.295,1.095,3.55h-0.472
			c-0.832-1.248-1.375-2.247-1.375-3.742c0-1.407,0.488-2.542,1.352-3.774H83.68z"/>
		<path d="M86.832,6.64H86.08V2.65h-1.311v-0.56c0.912-0.064,1.287-0.152,1.511-1.072h0.552V6.64z"/>
		<path d="M88.688,8.295c0.68-1.279,1.087-2.047,1.087-3.966c0-1.319-0.456-2.295-1.095-3.55h0.472
			c0.832,1.248,1.375,2.247,1.375,3.742c0,1.407-0.488,2.542-1.351,3.774H88.688z"/>
	</g>
	<g>
		<path d="M163.318,0.779c-0.68,1.279-1.087,2.047-1.087,3.966c0,1.319,0.456,2.295,1.095,3.55h-0.472
			c-0.832-1.248-1.375-2.247-1.375-3.742c0-1.407,0.487-2.542,1.351-3.774H163.318z"/>
		<path d="M163.951,3.034c0-1.831,1.335-2.015,1.943-2.015c0.975,0,1.759,0.632,1.759,1.679c0,1.007-0.664,1.431-1.503,1.879
			l-0.584,0.32c-0.768,0.424-0.936,0.864-0.967,1.08h3.054V6.64h-3.846c0.04-1.167,0.567-1.791,1.319-2.231l0.743-0.432
			c0.6-0.344,1.032-0.576,1.032-1.311c0-0.448-0.288-1.016-1.111-1.016c-1.063,0-1.111,0.991-1.135,1.383H163.951z"/>
		<path d="M168.328,8.295c0.68-1.279,1.087-2.047,1.087-3.966c0-1.319-0.456-2.295-1.095-3.55h0.472
			c0.832,1.248,1.375,2.247,1.375,3.742c0,1.407-0.488,2.542-1.351,3.774H168.328z"/>
	</g>
	<g>
		<path d="M288.658,0.779c-0.68,1.279-1.088,2.047-1.088,3.966c0,1.319,0.456,2.295,1.096,3.55h-0.472
			c-0.832-1.248-1.375-2.247-1.375-3.742c0-1.407,0.487-2.542,1.351-3.774H288.658z"/>
		<path d="M290.73,3.442c0.12,0.008,0.248,0.016,0.367,0.016c0.544,0,1.072-0.216,1.072-0.919c0-0.336-0.2-0.888-1.04-0.888
			c-0.999,0-1.063,0.815-1.096,1.208h-0.688c0-0.824,0.336-1.839,1.815-1.839c1.087,0,1.735,0.624,1.735,1.479
			c0,0.72-0.416,1.063-0.72,1.159v0.016c0.543,0.176,0.936,0.56,0.936,1.311c0,0.92-0.592,1.807-2.023,1.807
			c-0.416,0-0.768-0.104-1.039-0.248c-0.624-0.328-0.792-0.976-0.84-1.624h0.728c0.024,0.528,0.152,1.24,1.199,1.24
			c0.72,0,1.224-0.44,1.224-1.088c0-0.943-0.831-1.031-1.312-1.031c-0.104,0-0.216,0.008-0.319,0.008V3.442z"/>
		<path d="M293.667,8.295c0.68-1.279,1.088-2.047,1.088-3.966c0-1.319-0.456-2.295-1.096-3.55h0.472
			c0.832,1.248,1.375,2.247,1.375,3.742c0,1.407-0.487,2.542-1.351,3.774H293.667z"/>
	</g>
	<g>
		<path d="M346.123,0.779c-0.68,1.279-1.087,2.047-1.087,3.966c0,1.319,0.455,2.295,1.095,3.55h-0.472
			c-0.831-1.248-1.375-2.247-1.375-3.742c0-1.407,0.487-2.542,1.352-3.774H346.123z"/>
		<path d="M349.763,5.273V6.64h-0.704V5.273h-2.454V4.585l2.574-3.566h0.584v3.646h0.823v0.608H349.763z M347.252,4.665h1.807v-2.55
			h-0.016L347.252,4.665z"/>
		<path d="M351.133,8.295c0.68-1.279,1.087-2.047,1.087-3.966c0-1.319-0.455-2.295-1.095-3.55h0.472
			c0.831,1.248,1.375,2.247,1.375,3.742c0,1.407-0.488,2.542-1.352,3.774H351.133z"/>
	</g>
	<g>
		<path d="M391.825,0.779c-0.68,1.279-1.087,2.047-1.087,3.966c0,1.319,0.455,2.295,1.095,3.55h-0.472
			c-0.831-1.248-1.375-2.247-1.375-3.742c0-1.407,0.487-2.542,1.352-3.774H391.825z"/>
		<path d="M393.282,3.37c0.239-0.184,0.583-0.352,1.087-0.352c0.912,0,1.848,0.64,1.848,1.799c0,0.624-0.28,1.975-2.039,1.975
			c-0.735,0-1.68-0.296-1.815-1.551h0.728c0.072,0.656,0.56,0.944,1.191,0.944c0.728,0,1.184-0.584,1.184-1.288
			c0-0.808-0.552-1.247-1.247-1.247c-0.408,0-0.775,0.192-1.04,0.536l-0.607-0.032l0.424-3.014h2.91v0.688h-2.383L393.282,3.37z"/>
		<path d="M396.835,8.295c0.68-1.279,1.087-2.047,1.087-3.966c0-1.319-0.455-2.295-1.095-3.55h0.472
			c0.831,1.248,1.375,2.247,1.375,3.742c0,1.407-0.488,2.542-1.352,3.774H396.835z"/>
	</g>
	<g>
		<path d="M448.386,0.779c-0.68,1.279-1.087,2.047-1.087,3.966c0,1.319,0.455,2.295,1.095,3.55h-0.472
			c-0.831-1.248-1.375-2.247-1.375-3.742c0-1.407,0.487-2.542,1.352-3.774H448.386z"/>
		<path d="M452.001,2.514c-0.088-0.496-0.359-0.863-0.967-0.863c-1.104,0-1.336,1.487-1.336,2.079l0.017,0.016
			c0.176-0.304,0.567-0.688,1.335-0.688c0.688,0,1.759,0.44,1.759,1.783c0,0.576-0.151,0.991-0.535,1.407
			c-0.296,0.328-0.632,0.543-1.424,0.543c-0.432,0-1.047-0.192-1.447-0.815c-0.335-0.528-0.432-1.215-0.432-1.951
			c0-1.231,0.4-3.006,2.079-3.006c0.647,0,1.567,0.352,1.64,1.495H452.001z M450.978,6.161c0.672,0,1.104-0.528,1.104-1.288
			c0-0.496-0.264-1.183-1.135-1.183c-0.776,0-1.151,0.56-1.151,1.223C449.795,5.513,450.154,6.161,450.978,6.161z"/>
		<path d="M453.396,8.295c0.68-1.279,1.087-2.047,1.087-3.966c0-1.319-0.455-2.295-1.095-3.55h0.472
			c0.831,1.248,1.375,2.247,1.375,3.742c0,1.407-0.488,2.542-1.352,3.774H453.396z"/>
	</g>
	<g>
		<path d="M44.053,209.315h-4.238v-5.74h4.182v0.688h-3.406v1.759h3.142v0.688h-3.142v1.919h3.462V209.315z"/>
		<path d="M48.382,209.315h-0.896l-1.04-1.575l-1.007,1.575h-0.888l1.471-2.15l-1.399-2.031h0.904l0.967,1.472l0.968-1.472h0.863
			l-1.415,2.031L48.382,209.315z"/>
		<path d="M52.534,208.003c-0.024,0.2-0.216,0.792-0.744,1.144c-0.192,0.128-0.464,0.288-1.135,0.288
			c-1.175,0-1.871-0.888-1.871-2.095c0-1.295,0.624-2.327,2.007-2.327c1.208,0,1.799,0.96,1.799,2.439h-3.054
			c0,0.871,0.408,1.375,1.215,1.375c0.664,0,1.056-0.512,1.08-0.824H52.534z M51.862,206.892c-0.04-0.647-0.312-1.247-1.167-1.247
			c-0.648,0-1.16,0.6-1.16,1.247H51.862z"/>
		<path d="M56.046,206.541c-0.088-0.56-0.4-0.896-0.992-0.896c-0.871,0-1.151,0.832-1.151,1.575c0,0.72,0.176,1.607,1.144,1.607
			c0.472,0,0.879-0.352,1-0.991h0.68c-0.072,0.663-0.48,1.599-1.703,1.599c-1.175,0-1.871-0.888-1.871-2.095
			c0-1.295,0.624-2.327,2.007-2.327c1.096,0,1.511,0.8,1.567,1.527H56.046z"/>
		<path d="M60.158,209.315v-0.607l-0.016-0.016c-0.296,0.487-0.656,0.743-1.328,0.743c-0.616,0-1.359-0.296-1.359-1.295v-3.007
			h0.703v2.774c0,0.688,0.352,0.92,0.808,0.92c0.888,0,1.151-0.784,1.151-1.392v-2.303h0.704v4.182H60.158z"/>
		<path d="M62.743,205.717v2.719c0,0.327,0.28,0.327,0.424,0.327h0.248v0.552c-0.256,0.024-0.456,0.057-0.527,0.057
			c-0.696,0-0.848-0.393-0.848-0.896v-2.759h-0.568v-0.584h0.568v-1.167h0.704v1.167h0.671v0.584H62.743z"/>
		<path d="M67.654,208.003c-0.024,0.2-0.216,0.792-0.744,1.144c-0.192,0.128-0.464,0.288-1.135,0.288
			c-1.175,0-1.871-0.888-1.871-2.095c0-1.295,0.624-2.327,2.007-2.327c1.208,0,1.799,0.96,1.799,2.439h-3.054
			c0,0.871,0.408,1.375,1.215,1.375c0.664,0,1.056-0.512,1.08-0.824H67.654z M66.982,206.892c-0.04-0.647-0.312-1.247-1.167-1.247
			c-0.648,0-1.16,0.6-1.16,1.247H66.982z"/>
	</g>
	<g>
		<path class="st2" d="M27.58,185.292h-1.261v-5.401h-0.018l-1.207,5.401h-1.323l-1.18-5.401h-0.018v5.401h-1.26v-6.464h1.972
			l1.17,5.096h0.018l1.152-5.096h1.954V185.292z"/>
		<path class="st2" d="M32.998,180.944c-0.108-0.388-0.315-1.117-1.432-1.117c-0.648,0-1.603,0.433-1.603,2.26
			c0,1.162,0.459,2.206,1.603,2.206c0.747,0,1.27-0.423,1.432-1.216h1.35c-0.27,1.405-1.188,2.386-2.809,2.386
			c-1.72,0-2.953-1.161-2.953-3.394c0-2.26,1.306-3.412,2.971-3.412c1.936,0,2.719,1.332,2.791,2.287H32.998z"/>
		<path class="st2" d="M39.693,185.967v0.45h-5.005v-0.45H39.693z"/>
		<path class="st2" d="M41.339,183.302c0.009,0.36,0.189,1.044,1.369,1.044c0.639,0,1.35-0.152,1.35-0.837
			c0-0.504-0.486-0.64-1.17-0.802l-0.693-0.161c-1.044-0.243-2.053-0.478-2.053-1.9c0-0.72,0.387-1.989,2.485-1.989
			c1.98,0,2.512,1.297,2.521,2.089h-1.296c-0.036-0.288-0.144-0.973-1.323-0.973c-0.513,0-1.125,0.189-1.125,0.774
			c0,0.504,0.414,0.612,0.684,0.675l1.576,0.388c0.882,0.216,1.692,0.576,1.692,1.737c0,1.944-1.98,2.115-2.548,2.115
			c-2.358,0-2.764-1.359-2.764-2.16H41.339z"/>
		<path class="st2" d="M47.693,180.502h0.783v0.9h-0.783v2.602c0,0.279,0.009,0.387,0.522,0.387c0.081,0,0.171-0.009,0.261-0.018
			v0.954c-0.198,0.009-0.396,0.019-0.594,0.019H47.72c-1.089,0-1.287-0.415-1.287-1.036v-2.907h-0.648v-0.9h0.648v-1.297h1.26
			V180.502z"/>
		<path class="st2" d="M51.447,185.417c-1.288,0-2.449-0.792-2.449-2.521s1.161-2.521,2.449-2.521c1.287,0,2.449,0.792,2.449,2.521
			S52.734,185.417,51.447,185.417z M51.447,181.439c-0.972,0-1.152,0.846-1.152,1.458s0.18,1.458,1.152,1.458
			s1.152-0.846,1.152-1.458S52.419,181.439,51.447,181.439z"/>
		<path class="st2" d="M55.956,181.196h0.018c0.234-0.378,0.585-0.819,1.431-0.819c1.053,0,1.99,0.81,1.99,2.467
			c0,1.314-0.594,2.574-2.017,2.574c-0.882,0-1.197-0.477-1.351-0.738h-0.018v2.477h-1.26v-6.653h1.207V181.196z M57.063,184.382
			c0.81,0,1.035-0.882,1.035-1.449c0-0.756-0.27-1.468-1.071-1.468c-0.864,0-1.071,0.774-1.071,1.54
			C55.956,183.716,56.262,184.382,57.063,184.382z"/>
	</g>
	<g>
		<g>
			<path d="M36.461,352.708c0.13,0.026,0.255,0.039,0.375,0.039h0.852v-1.039c0-0.172-0.011-0.347-0.031-0.523
				c0.213,0.036,0.442,0.055,0.688,0.055c-0.062,0.167-0.094,0.356-0.094,0.57v0.938h0.492c0.13,0,0.255-0.013,0.375-0.039
				c-0.021,0.099-0.031,0.192-0.031,0.281c0,0.109,0.01,0.214,0.031,0.312c-0.12-0.021-0.245-0.031-0.375-0.031H38.25v1.398
				c0.307-0.114,0.596-0.237,0.867-0.367c-0.021,0.308-0.031,0.516-0.031,0.625c-0.312,0.104-0.591,0.198-0.836,0.281v2.695
				c0,0.271-0.102,0.447-0.305,0.531c-0.193,0.083-0.479,0.125-0.859,0.125c-0.047-0.261-0.151-0.479-0.312-0.656h0.477
				c0.292,0,0.438-0.107,0.438-0.32v-2.172c-0.521,0.192-0.886,0.356-1.094,0.492c-0.011-0.203-0.076-0.433-0.195-0.688
				c0.448-0.094,0.877-0.208,1.289-0.344v-1.602h-0.852c-0.12,0-0.245,0.011-0.375,0.031c0.021-0.099,0.031-0.203,0.031-0.312
				C36.493,352.901,36.482,352.807,36.461,352.708z M39.524,354.677c0.286,0.047,0.567,0.07,0.844,0.07h1.852
				c0.281,0,0.56-0.023,0.836-0.07c-0.037,0.25-0.055,0.503-0.055,0.758v2.273c0,0.275,0.018,0.549,0.055,0.82
				c-0.156-0.021-0.261-0.031-0.312-0.031c-0.052,0-0.167,0.01-0.344,0.031c0.036-0.219,0.055-0.438,0.055-0.656h-2.328
				c0.005,0.219,0.023,0.438,0.055,0.656c-0.167-0.021-0.281-0.031-0.344-0.031c-0.052,0-0.156,0.01-0.312,0.031
				c0.047-0.271,0.07-0.545,0.07-0.82v-2.273C39.594,355.18,39.571,354.927,39.524,354.677z M42.907,351.56
				c0.109,0.229,0.255,0.417,0.438,0.562c-0.141,0.016-0.378,0.065-0.711,0.148c-0.802,0.234-1.62,0.445-2.453,0.633v0.625
				c0,0.146,0.062,0.219,0.188,0.219h2.031c0.234,0,0.403-0.05,0.508-0.148c0.099-0.083,0.148-0.308,0.148-0.672
				c0.114,0.151,0.284,0.255,0.508,0.312c-0.058,0.339-0.141,0.575-0.25,0.711c-0.141,0.177-0.404,0.266-0.789,0.266h-2.375
				c-0.323,0-0.487-0.114-0.492-0.344v-2.164c0-0.172-0.021-0.347-0.062-0.523c0.219,0.036,0.438,0.055,0.656,0.055
				c-0.047,0.094-0.07,0.2-0.07,0.32v0.938c0.438-0.109,0.864-0.229,1.281-0.359C42.034,351.966,42.516,351.774,42.907,351.56z
				 M40.118,356.021h2.344v-0.805h-2.344V356.021z M40.118,357.396h2.344v-0.898h-2.344V357.396z"/>
			<path d="M47.711,351.154c0.286,0.141,0.591,0.234,0.914,0.281c-0.13,0.089-0.258,0.2-0.383,0.336
				c0.328,0.511,0.747,0.948,1.258,1.312c0.505,0.364,1.242,0.688,2.211,0.969c-0.208,0.198-0.373,0.44-0.492,0.727
				c-0.943-0.433-1.662-0.862-2.156-1.289c-0.464-0.364-0.839-0.82-1.125-1.367c-0.781,0.958-1.802,1.844-3.062,2.656
				c-0.136-0.192-0.344-0.38-0.625-0.562c0.849-0.396,1.565-0.867,2.148-1.414C46.972,352.287,47.409,351.737,47.711,351.154z
				 M45.118,354.99c0.208,0.021,0.417,0.031,0.625,0.031h3.781c0.328,0,0.651-0.011,0.969-0.031
				c-0.484,0.567-1.195,1.427-2.133,2.578c0.417,0.172,0.838,0.346,1.266,0.523c-0.214,0.197-0.362,0.393-0.445,0.586
				c-1.167-0.646-2.341-1.175-3.523-1.586c0.172-0.151,0.315-0.32,0.43-0.508c0.536,0.239,1.094,0.484,1.672,0.734l1.555-1.734
				h-3.57c-0.208,0-0.417,0.011-0.625,0.031c0.021-0.099,0.031-0.203,0.031-0.312C45.149,355.204,45.138,355.099,45.118,354.99z
				 M48,353.154c0.12,0.354,0.284,0.737,0.492,1.148c-0.203,0.042-0.409,0.117-0.617,0.227c-0.089-0.375-0.248-0.784-0.477-1.227
				C47.612,353.276,47.813,353.227,48,353.154z"/>
			<path d="M52.563,354.154c0.338,0.021,0.682,0.031,1.031,0.031c0.161,0,0.325-0.011,0.492-0.031
				c-0.021,0.219-0.031,0.438-0.031,0.656v2.383c0.036,0.016,0.07,0.031,0.102,0.047c0.766,0.401,1.763,0.602,2.992,0.602
				c0.5,0,1.336-0.045,2.508-0.133c-0.109,0.166-0.185,0.385-0.227,0.656h-2.062c-1.365,0-2.435-0.211-3.211-0.633
				c-0.177-0.099-0.305-0.148-0.383-0.148c-0.193,0-0.505,0.26-0.938,0.781c-0.13-0.172-0.294-0.308-0.492-0.406l0.812-0.625
				c0.12-0.083,0.231-0.146,0.336-0.188v-2.438c-0.308,0-0.617,0.013-0.93,0.039c0.021-0.109,0.031-0.214,0.031-0.312
				S52.583,354.243,52.563,354.154z M53.493,351.615c0.177,0.583,0.406,1.097,0.688,1.539c-0.188,0.021-0.394,0.091-0.617,0.211
				c-0.193-0.636-0.401-1.144-0.625-1.523C53.125,351.805,53.31,351.729,53.493,351.615z M54.524,352.052
				c0.297,0.047,0.588,0.07,0.875,0.07h1.289c0-0.312-0.021-0.614-0.062-0.906c0.198,0.016,0.438,0.023,0.719,0.023
				c-0.062,0.151-0.094,0.341-0.094,0.57v0.312h1.375c0.286,0,0.575-0.023,0.867-0.07c-0.021,0.109-0.031,0.214-0.031,0.312
				c0,0.109,0.01,0.214,0.031,0.312c-0.292-0.042-0.581-0.062-0.867-0.062H57.25v0.656h0.898c0.328,0,0.651-0.011,0.969-0.031
				c-0.021,0.172-0.031,0.341-0.031,0.508v0.898c0,0.198,0.01,0.396,0.031,0.594c-0.318-0.016-0.641-0.023-0.969-0.023H57.25v1.25
				c0,0.359,0.021,0.724,0.062,1.094c-0.12-0.021-0.234-0.031-0.344-0.031c-0.12,0-0.234,0.011-0.344,0.031
				c0.042-0.37,0.062-0.734,0.062-1.094v-1.219c-0.484,0.797-1.112,1.472-1.883,2.023c-0.109-0.146-0.255-0.289-0.438-0.43
				c0.692-0.344,1.289-0.886,1.789-1.625h-0.383c-0.318,0-0.641,0.008-0.969,0.023c0.021-0.198,0.031-0.396,0.031-0.594v-0.898
				c-0.021-0.167-0.031-0.336-0.031-0.508c0.328,0.021,0.651,0.031,0.969,0.031h0.914v-0.656h-1.289
				c-0.287,0-0.578,0.021-0.875,0.062c0.026-0.099,0.039-0.203,0.039-0.312C54.563,352.266,54.55,352.162,54.524,352.052z
				 M56.688,354.748v-1h-1.289v1H56.688z M58.524,354.748v-1H57.25v1H58.524z M57.774,355.529c0.469,0.354,0.992,0.727,1.57,1.117
				c-0.172,0.167-0.287,0.325-0.344,0.477c-0.531-0.489-1.065-0.888-1.602-1.195C57.55,355.813,57.675,355.68,57.774,355.529z"/>
			<path d="M64.594,351.216c0.114,0.271,0.239,0.562,0.375,0.875h1.773c0.219,0,0.438-0.013,0.656-0.039
				c-0.021,0.099-0.031,0.192-0.031,0.281c0,0.109,0.01,0.214,0.031,0.312c-0.219-0.021-0.438-0.031-0.656-0.031h-4.688v0.945h1.312
				v-0.406c0-0.141-0.019-0.276-0.055-0.406c0.208,0.047,0.438,0.078,0.688,0.094c-0.062,0.125-0.094,0.25-0.094,0.375v0.344h1.617
				v-0.32c0-0.136-0.021-0.269-0.062-0.398c0.188,0.031,0.417,0.052,0.688,0.062c-0.062,0.136-0.094,0.289-0.094,0.461v0.195h0.688
				c0.245,0,0.505-0.011,0.781-0.031c-0.021,0.099-0.031,0.192-0.031,0.281c0,0.104,0.01,0.198,0.031,0.281
				c-0.183-0.026-0.443-0.039-0.781-0.039h-0.688v0.758c0,0.161,0.01,0.325,0.031,0.492c-0.156-0.021-0.31-0.031-0.461-0.031h-1.75
				c-0.188,0-0.375,0.011-0.562,0.031c0.036-0.151,0.055-0.305,0.055-0.461v-0.789h-1.312v1.07c-0.016,0.62-0.107,1.203-0.273,1.75
				c-0.115,0.438-0.375,0.979-0.781,1.625c-0.172-0.183-0.383-0.287-0.633-0.312c0.37-0.448,0.638-0.909,0.805-1.383
				c0.192-0.573,0.289-1.133,0.289-1.68v-2.312c0-0.25-0.021-0.503-0.062-0.758c0.229,0.026,0.458,0.039,0.688,0.039h2.25
				c-0.141-0.308-0.284-0.57-0.43-0.789C64.125,351.282,64.354,351.252,64.594,351.216z M62.563,355.779
				c0.182,0.021,0.367,0.031,0.555,0.031h2.758c0.26,0,0.521-0.011,0.781-0.031c-0.391,0.594-0.779,1.065-1.164,1.414
				c-0.109,0.094-0.229,0.188-0.359,0.281c0.031,0.011,0.06,0.021,0.086,0.031c0.594,0.234,1.362,0.396,2.305,0.484
				c-0.188,0.234-0.323,0.442-0.406,0.625c-0.958-0.183-1.732-0.422-2.32-0.719c-0.068-0.037-0.13-0.07-0.188-0.102
				c-0.25,0.13-0.519,0.247-0.805,0.352c-0.62,0.208-1.172,0.354-1.656,0.438c-0.094-0.225-0.248-0.422-0.461-0.594
				c0.708-0.062,1.305-0.167,1.789-0.312c0.208-0.062,0.403-0.136,0.586-0.219c-0.349-0.245-0.685-0.536-1.008-0.875
				c0.203-0.083,0.372-0.188,0.508-0.312c0.286,0.364,0.63,0.667,1.031,0.906c0.057-0.031,0.109-0.062,0.156-0.094
				c0.281-0.203,0.562-0.474,0.844-0.812h-2.477c-0.188,0-0.373,0.011-0.555,0.031c0.021-0.089,0.031-0.183,0.031-0.281
				C62.594,355.943,62.583,355.862,62.563,355.779z M63.907,354.052v0.758h1.617v-0.758H63.907z"/>
		</g>
	</g>
	<g>
		<path d="M49.56,238.373h2.327c1.496,0,2.415,1.135,2.415,2.79c0,1.287-0.56,2.95-2.447,2.95H49.56V238.373z M50.335,243.45h1.503
			c1.008,0,1.663-0.792,1.663-2.239s-0.664-2.175-1.719-2.175h-1.447V243.45z"/>
		<path d="M56.911,239.811c1.335,0,1.943,1.128,1.943,2.207s-0.607,2.207-1.943,2.207c-1.335,0-1.943-1.128-1.943-2.207
			S55.576,239.811,56.911,239.811z M56.911,243.618c1.008,0,1.215-1.04,1.215-1.6s-0.208-1.599-1.215-1.599
			c-1.007,0-1.215,1.039-1.215,1.599S55.903,243.618,56.911,243.618z"/>
		<path d="M63.062,244.113h-0.704v-2.574c0-0.728-0.208-1.096-0.896-1.096c-0.4,0-1.104,0.256-1.104,1.392v2.278h-0.704v-4.182
			h0.664v0.592h0.016c0.152-0.224,0.544-0.712,1.264-0.712c0.647,0,1.463,0.265,1.463,1.455V244.113z"/>
		<path d="M67.654,242.801c-0.024,0.2-0.216,0.792-0.744,1.144c-0.192,0.128-0.464,0.288-1.135,0.288
			c-1.175,0-1.871-0.888-1.871-2.095c0-1.295,0.624-2.327,2.007-2.327c1.208,0,1.799,0.96,1.799,2.439h-3.055
			c0,0.871,0.408,1.375,1.215,1.375c0.664,0,1.056-0.512,1.08-0.824H67.654z M66.982,241.69c-0.04-0.647-0.312-1.247-1.167-1.247
			c-0.648,0-1.16,0.6-1.16,1.247H66.982z"/>
	</g>
	<g>
		<path d="M50.839,272.249h2.526c1.071,0,1.623,0.664,1.623,1.447c0,0.376-0.136,0.903-0.768,1.199
			c0.376,0.152,1.04,0.416,1.04,1.399c0,0.92-0.68,1.695-1.951,1.695h-2.471V272.249z M51.615,274.679h1.399
			c0.744,0,1.199-0.224,1.199-0.928c0-0.535-0.328-0.839-1.191-0.839h-1.407V274.679z M51.615,277.326h1.655
			c0.808,0,1.215-0.407,1.215-1.047c0-0.808-0.712-0.968-1.343-0.968h-1.527V277.326z"/>
		<path d="M58.83,277.99v-0.607l-0.016-0.017c-0.296,0.488-0.656,0.744-1.328,0.744c-0.616,0-1.359-0.296-1.359-1.296v-3.006h0.703
			v2.774c0,0.688,0.352,0.919,0.808,0.919c0.888,0,1.151-0.783,1.151-1.391v-2.303h0.704v4.182H58.83z"/>
		<path d="M62.926,275c-0.008-0.265-0.104-0.704-0.992-0.704c-0.216,0-0.832,0.072-0.832,0.592c0,0.344,0.216,0.424,0.76,0.56
			l0.704,0.176c0.872,0.216,1.175,0.536,1.175,1.104c0,0.863-0.711,1.384-1.655,1.384c-1.655,0-1.775-0.96-1.799-1.464h0.68
			c0.024,0.328,0.12,0.855,1.111,0.855c0.504,0,0.959-0.199,0.959-0.663c0-0.336-0.232-0.448-0.832-0.6l-0.815-0.2
			c-0.584-0.144-0.968-0.439-0.968-1.016c0-0.919,0.76-1.335,1.583-1.335c1.495,0,1.599,1.104,1.599,1.312H62.926z"/>
		<path d="M67.166,273.808h0.775c-0.488,1.367-0.967,2.734-1.503,4.102c-0.664,1.695-0.736,1.791-1.639,1.791
			c-0.104,0-0.184-0.032-0.296-0.064v-0.64c0.088,0.032,0.232,0.072,0.424,0.072c0.368,0,0.408-0.104,0.744-0.968l-1.551-4.293h0.8
			l1.111,3.406h0.016L67.166,273.808z"/>
	</g>
	<g>
	</g>
	<g>
	</g>
	<g>
	</g>
	<g>
	</g>
	<g>
	</g>
	<g>
	</g>
	<g>
	</g>
	<g>
	</g>
	<g>
	</g>
	<g>
	</g>
	<g>
	</g>
	<g>
	</g>
	<g>
	</g>
	<g>
	</g>
	<g>
	</g>
</g>
</svg>
