<?xml version="1.0" encoding="utf-8"?>
<!-- Generator: Adobe Illustrator 28.2.0, SVG Export Plug-In . SVG Version: 6.00 Build 0)  -->
<svg version="1.1" id="レイヤー_1" xmlns="http://www.w3.org/2000/svg" xmlns:xlink="http://www.w3.org/1999/xlink" x="0px"
	 y="0px" width="241.174px" height="193.111px" viewBox="0 0 241.174 193.111" style="enable-background:new 0 0 241.174 193.111;"
	 xml:space="preserve">
<style type="text/css">
	.st0{fill:none;stroke:#000000;}
	.st1{fill:none;stroke:#241C1D;stroke-miterlimit:10;}
	.st2{fill-rule:evenodd;clip-rule:evenodd;fill:#FFFFFF;stroke:#241C1D;stroke-linecap:round;stroke-miterlimit:10;}
	.st3{fill-rule:evenodd;clip-rule:evenodd;fill:#231815;stroke:#241C1D;stroke-linecap:round;stroke-miterlimit:10;}
	.st4{fill:#FFFFFF;}
	.st5{fill:#09A603;}
	.st6{fill:none;stroke:#241C1D;stroke-linecap:round;stroke-miterlimit:10;}
	.st7{fill:#241C1D;}
</style>
<g>
	<line class="st0" x1="0.5" y1="35.58" x2="240.674" y2="35.58"/>
	<line class="st0" x1="0.5" y1="0" x2="0.5" y2="193.111"/>
	<g>
		<rect x="11.971" y="30.064" width="11.073" height="11.074"/>
		<line class="st0" x1="23.045" y1="30.064" x2="23.045" y2="41.138"/>
		<line class="st0" x1="11.971" y1="41.138" x2="11.971" y2="30.064"/>
	</g>
	<line class="st0" x1="240.674" y1="0" x2="240.674" y2="192.155"/>
</g>
<g>
	<line class="st1" x1="133.512" y1="50.385" x2="137.412" y2="50.385"/>
	<rect x="137.412" y="15.34" class="st2" width="90.305" height="73.677"/>
	<rect x="137.412" y="15.34" class="st3" width="90.305" height="14.74"/>
	<g>
		<path class="st4" d="M168.418,26.058v-3.391c0-0.167,0.016-0.895,0.016-1.431h-0.016l-1.615,4.821h-0.768l-1.615-4.813h-0.016
			c0,0.528,0.016,1.256,0.016,1.423v3.391h-0.752v-5.741h1.111l1.64,4.854h0.016l1.631-4.854h1.104v5.741H168.418z"/>
		<path class="st4" d="M174.386,22.044c-0.216-1.008-1.056-1.191-1.607-1.191c-1.039,0-1.879,0.768-1.879,2.278
			c0,1.352,0.479,2.391,1.903,2.391c0.503,0,1.375-0.239,1.639-1.575h0.752c-0.32,2.167-2.079,2.264-2.511,2.264
			c-1.304,0-2.583-0.848-2.583-3.055c0-1.768,1.008-2.99,2.679-2.99c1.479,0,2.247,0.919,2.358,1.879H174.386z"/>
		<path class="st4" d="M175.525,27.057v-0.399h4.445v0.399H175.525z"/>
		<path class="st4" d="M181.436,26.058h-0.775v-5.741h2.583c1.063,0,1.703,0.688,1.703,1.615c0,0.8-0.456,1.703-1.703,1.703h-1.808
			V26.058z M181.436,22.972h1.544c0.695,0,1.167-0.256,1.167-1.032c0-0.728-0.496-0.959-1.136-0.959h-1.575V22.972z"/>
		<path class="st4" d="M187.131,21.756c1.335,0,1.943,1.128,1.943,2.207s-0.608,2.207-1.943,2.207s-1.942-1.128-1.942-2.207
			S185.796,21.756,187.131,21.756z M187.131,25.562c1.008,0,1.216-1.039,1.216-1.599s-0.208-1.6-1.216-1.6
			c-1.007,0-1.215,1.04-1.215,1.6S186.124,25.562,187.131,25.562z"/>
		<path class="st4" d="M191.283,26.058h-0.728l-1.207-4.182h0.768l0.799,3.286h0.017l0.808-3.286h0.783l0.815,3.286h0.017
			l0.847-3.286h0.704l-1.216,4.182h-0.728l-0.848-3.238h-0.016L191.283,26.058z"/>
		<path class="st4" d="M199.002,24.746c-0.023,0.2-0.216,0.792-0.743,1.144c-0.191,0.128-0.464,0.288-1.136,0.288
			c-1.175,0-1.87-0.888-1.87-2.095c0-1.296,0.623-2.327,2.007-2.327c1.207,0,1.799,0.96,1.799,2.438h-3.055
			c0,0.872,0.408,1.376,1.216,1.376c0.663,0,1.055-0.512,1.079-0.824H199.002z M198.331,23.635c-0.04-0.647-0.312-1.247-1.168-1.247
			c-0.647,0-1.159,0.6-1.159,1.247H198.331z"/>
		<path class="st4" d="M200.699,26.058h-0.704v-4.182h0.664v0.695h0.016c0.28-0.487,0.648-0.815,1.176-0.815
			c0.088,0,0.128,0.008,0.184,0.024v0.728h-0.264c-0.655,0-1.071,0.512-1.071,1.119V26.058z"/>
	</g>
	<g>
		<path class="st5" d="M166.861,10.704V7.314c0-0.167,0.016-0.895,0.016-1.431h-0.016l-1.615,4.821h-0.768l-1.615-4.813h-0.016
			c0,0.528,0.016,1.256,0.016,1.423v3.391h-0.752V4.963h1.112l1.639,4.854h0.016l1.631-4.854h1.104v5.741H166.861z"/>
		<path class="st5" d="M172.83,6.691c-0.216-1.008-1.056-1.191-1.607-1.191c-1.039,0-1.879,0.768-1.879,2.278
			c0,1.352,0.479,2.391,1.903,2.391c0.503,0,1.375-0.239,1.639-1.575h0.752c-0.32,2.167-2.079,2.264-2.511,2.264
			c-1.304,0-2.583-0.848-2.583-3.055c0-1.768,1.008-2.99,2.679-2.99c1.479,0,2.247,0.919,2.358,1.879H172.83z"/>
		<path class="st5" d="M173.968,11.703v-0.399h4.445v0.399H173.968z"/>
		<path class="st5" d="M179.896,10.704h-0.775V4.963h2.654c0.943,0,1.887,0.328,1.887,1.544c0,0.847-0.432,1.159-0.8,1.375
			c0.328,0.136,0.656,0.279,0.688,1.079l0.048,1.04c0.009,0.319,0.049,0.439,0.288,0.575v0.128h-0.951
			c-0.112-0.352-0.136-1.224-0.136-1.439c0-0.472-0.096-1.023-1.023-1.023h-1.879V10.704z M179.896,7.578h1.799
			c0.567,0,1.167-0.145,1.167-0.992c0-0.887-0.647-0.959-1.031-0.959h-1.935V7.578z"/>
		<path class="st5" d="M188.102,9.393c-0.023,0.2-0.216,0.792-0.743,1.144c-0.191,0.128-0.464,0.288-1.136,0.288
			c-1.175,0-1.87-0.888-1.87-2.095c0-1.296,0.623-2.327,2.007-2.327c1.207,0,1.799,0.96,1.799,2.438h-3.055
			c0,0.872,0.408,1.376,1.216,1.376c0.663,0,1.055-0.512,1.079-0.824H188.102z M187.431,8.282c-0.04-0.647-0.312-1.247-1.168-1.247
			c-0.647,0-1.159,0.6-1.159,1.247H187.431z"/>
		<path class="st5" d="M191.375,7.714c-0.008-0.264-0.104-0.704-0.991-0.704c-0.216,0-0.832,0.072-0.832,0.592
			c0,0.344,0.216,0.424,0.76,0.56l0.703,0.176c0.872,0.217,1.176,0.536,1.176,1.104c0,0.864-0.712,1.384-1.655,1.384
			c-1.655,0-1.774-0.96-1.799-1.464h0.68c0.024,0.328,0.12,0.856,1.111,0.856c0.504,0,0.96-0.2,0.96-0.664
			c0-0.336-0.232-0.448-0.832-0.6l-0.815-0.2c-0.584-0.144-0.968-0.439-0.968-1.016c0-0.919,0.76-1.335,1.583-1.335
			c1.495,0,1.6,1.104,1.6,1.312H191.375z"/>
		<path class="st5" d="M196.55,9.393c-0.023,0.2-0.216,0.792-0.743,1.144c-0.192,0.128-0.464,0.288-1.136,0.288
			c-1.175,0-1.871-0.888-1.871-2.095c0-1.296,0.624-2.327,2.008-2.327c1.207,0,1.799,0.96,1.799,2.438h-3.055
			c0,0.872,0.408,1.376,1.216,1.376c0.663,0,1.055-0.512,1.079-0.824H196.55z M195.879,8.282c-0.04-0.647-0.312-1.247-1.168-1.247
			c-0.647,0-1.159,0.6-1.159,1.247H195.879z"/>
		<path class="st5" d="M198.311,7.107v2.718c0,0.328,0.28,0.328,0.424,0.328h0.248v0.552c-0.256,0.024-0.456,0.056-0.527,0.056
			c-0.696,0-0.848-0.392-0.848-0.896V7.107h-0.567V6.523h0.567V5.356h0.703v1.167h0.672v0.584H198.311z"/>
		<path class="st5" d="M202.023,10.704h-0.751v-3.99h-1.312v-0.56c0.911-0.063,1.287-0.151,1.511-1.071h0.552V10.704z"/>
	</g>
	<line class="st6" x1="137.479" y1="30.08" x2="227.651" y2="30.08"/>
	<g>
		<path class="st7" d="M140.184,52.993l2.263-5.757h0.616l2.207,5.757h-0.56l-0.664-1.807h-2.623l-0.68,1.807H140.184z
			 M141.607,50.723h2.255l-1.127-3.022L141.607,50.723z"/>
		<path class="st7" d="M147.415,51.202l-1.288,1.791h-0.583l1.591-2.143l-1.463-1.999h0.592l1.143,1.647l1.175-1.647h0.608
			l-1.495,1.999l1.551,2.143h-0.576L147.415,51.202z"/>
		<path class="st7" d="M150.024,47.949v-0.712h0.528v0.712H150.024z M150.048,52.993v-4.142h0.48v4.142H150.048z"/>
		<path class="st7" d="M152.031,51.699c0.152,0.711,0.52,0.975,1.239,0.975c0.696,0,1.023-0.367,1.023-0.768
			c0-1.199-2.654-0.352-2.654-1.982c0-0.688,0.536-1.184,1.455-1.184c0.896,0,1.479,0.368,1.599,1.304h-0.488
			c-0.088-0.64-0.52-0.872-1.119-0.872c-0.608,0-0.936,0.288-0.936,0.712c0,1.128,2.654,0.424,2.654,2.015
			c0,0.792-0.711,1.208-1.687,1.208s-1.535-0.624-1.575-1.407H152.031z"/>
	</g>
	<g>
		<path class="st7" d="M85.967,53.593v0.399h-3.998v-0.399H85.967z"/>
		<path class="st7" d="M86.593,52.993v-5.757h0.832l1.887,5.077h0.016l1.855-5.077h0.823v5.757h-0.543v-5.133h-0.016l-1.887,5.133
			h-0.512l-1.895-5.133h-0.016v5.133H86.593z"/>
		<path class="st7" d="M97.367,48.908c-0.224-0.983-0.832-1.359-1.815-1.359c-1.391,0-1.991,1.191-1.991,2.551
			c0,1.287,0.472,2.583,2.039,2.583c0.992,0,1.607-0.672,1.823-1.583h0.567c-0.256,1.111-0.951,2.047-2.495,2.047
			c-1.775,0-2.479-1.399-2.479-3.031c0-2.198,1.151-3.03,2.679-3.03c1.183,0,2.047,0.632,2.23,1.823H97.367z"/>
		<path class="st7" d="M102.407,53.593v0.399h-3.998v-0.399H102.407z"/>
		<path class="st7" d="M102.529,52.993l2.263-5.757h0.616l2.207,5.757h-0.56l-0.664-1.807h-2.623l-0.68,1.807H102.529z
			 M103.952,50.723h2.255l-1.127-3.022L103.952,50.723z"/>
		<path class="st7" d="M109.76,51.202l-1.287,1.791h-0.583l1.591-2.143l-1.463-1.999h0.591l1.144,1.647l1.175-1.647h0.608
			l-1.495,1.999l1.551,2.143h-0.576L109.76,51.202z"/>
		<path class="st7" d="M112.369,47.949v-0.712h0.528v0.712H112.369z M112.393,52.993v-4.142h0.48v4.142H112.393z"/>
		<path class="st7" d="M114.377,51.699c0.152,0.711,0.52,0.975,1.239,0.975c0.696,0,1.023-0.367,1.023-0.768
			c0-1.199-2.654-0.352-2.654-1.982c0-0.688,0.536-1.184,1.455-1.184c0.896,0,1.479,0.368,1.599,1.304h-0.488
			c-0.088-0.64-0.52-0.872-1.119-0.872c-0.608,0-0.936,0.288-0.936,0.712c0,1.128,2.654,0.424,2.654,2.015
			c0,0.792-0.711,1.208-1.687,1.208s-1.535-0.624-1.575-1.407H114.377z"/>
		<path class="st7" d="M118.249,54.521v-7.437h1.527v0.4h-1.016v6.636h1v0.4H118.249z"/>
		<path class="st7" d="M124.215,51.17h-0.888l-0.256,1.823h-0.472l0.248-1.823h-1.095l-0.272,1.823h-0.472l0.271-1.823h-0.879
			v-0.472h0.952l0.168-1.119h-0.896v-0.472h0.959l0.256-1.695h0.479l-0.256,1.695h1.087l0.248-1.695h0.472l-0.248,1.695h0.8v0.472
			h-0.864l-0.16,1.119h0.815V51.17z M122,49.579l-0.176,1.119h1.104l0.16-1.119H122z"/>
		<path class="st7" d="M127.048,48.804h-1.455v-0.336c0.855-0.056,1.391-0.145,1.559-1.111h0.408v5.637h-0.512V48.804z"/>
		<path class="st7" d="M131.016,54.521h-1.527v-0.4h1.016v-6.636h-1v-0.4h1.511V54.521z"/>
	</g>
	<g>
		<path class="st7" d="M140.712,39.11v-5.757h3.83v0.464h-3.286v2.079h2.966v0.463h-2.966v2.287h3.366v0.464H140.712z"/>
		<path class="st7" d="M146.967,37.319l-1.287,1.791h-0.583l1.591-2.143l-1.463-1.999h0.591l1.144,1.646l1.175-1.646h0.608
			l-1.495,1.999l1.551,2.143h-0.576L146.967,37.319z"/>
		<path class="st7" d="M149.824,37.151c-0.008,0.896,0.472,1.64,1.391,1.64c0.624,0,1.111-0.345,1.255-0.952h0.536
			c-0.24,0.784-0.735,1.384-1.791,1.384c-1.327,0-1.903-0.943-1.903-2.167c0-1.208,0.72-2.199,1.903-2.199
			c1.135,0,1.831,0.808,1.823,2.295H149.824z M152.527,36.751c0-0.808-0.448-1.464-1.312-1.464c-0.848,0-1.295,0.68-1.391,1.464
			H152.527z"/>
		<path class="st7" d="M156.91,36.271c-0.168-0.615-0.592-0.983-1.231-0.983c-0.983,0-1.391,0.896-1.391,1.76
			c0,0.871,0.399,1.743,1.391,1.743c0.711,0,1.159-0.424,1.271-1.112h0.512c-0.168,0.92-0.744,1.544-1.783,1.544
			c-1.319,0-1.903-0.952-1.903-2.175c0-1.151,0.664-2.191,1.903-2.191c0.951,0,1.575,0.456,1.719,1.415H156.91z"/>
		<path class="st7" d="M161.23,34.968h0.479v4.142h-0.479v-0.575c-0.256,0.287-0.608,0.688-1.335,0.688
			c-1.104,0-1.471-0.664-1.471-1.527v-2.727h0.48v2.719c0,0.711,0.312,1.104,1.063,1.104c0.792,0,1.264-0.656,1.264-1.567V34.968z"
			/>
		<path class="st7" d="M164.327,39.125c-0.112,0.024-0.32,0.097-0.552,0.097c-0.472,0-0.735-0.208-0.735-0.824v-3.03h-0.583v-0.399
			h0.583v-1.151h0.479v1.151h0.776v0.399h-0.776v2.839c0,0.407,0.016,0.584,0.416,0.584c0.128,0,0.264-0.024,0.392-0.057V39.125z"/>
		<path class="st7" d="M165.392,37.151c-0.008,0.896,0.472,1.64,1.391,1.64c0.624,0,1.111-0.345,1.255-0.952h0.536
			c-0.24,0.784-0.735,1.384-1.791,1.384c-1.327,0-1.903-0.943-1.903-2.167c0-1.208,0.72-2.199,1.903-2.199
			c1.135,0,1.831,0.808,1.823,2.295H165.392z M168.094,36.751c0-0.808-0.448-1.464-1.312-1.464c-0.848,0-1.295,0.68-1.391,1.464
			H168.094z"/>
	</g>
	<g>
		<path class="st7" d="M207.069,39.11v-5.757h1.967c0.64,0,1.239,0.04,1.775,0.432c0.76,0.552,0.959,1.671,0.959,2.438
			c0,0.76-0.168,1.607-0.695,2.183c-0.527,0.592-1.279,0.704-2.039,0.704H207.069z M207.612,38.646h1.304
			c0.487,0,0.911-0.032,1.351-0.264c0.768-0.392,0.96-1.375,0.96-2.159c0-0.839-0.185-1.759-0.992-2.19
			c-0.344-0.184-0.839-0.216-1.318-0.216h-1.304V38.646z"/>
		<path class="st7" d="M212.501,37.038c0-1.207,0.64-2.183,1.919-2.183c1.295,0,1.919,0.968,1.919,2.183
			c0,1.312-0.76,2.184-1.919,2.184C213.364,39.205,212.501,38.486,212.501,37.038z M214.42,35.287c-1.008,0-1.407,0.855-1.407,1.751
			c0,1.032,0.488,1.752,1.407,1.752c1.008,0,1.407-0.864,1.407-1.752C215.819,36.064,215.436,35.287,214.42,35.287z"/>
		<path class="st7" d="M217.7,39.11h-0.479v-4.142h0.479v0.575c0.384-0.407,0.76-0.688,1.335-0.688c0.504,0,0.968,0.16,1.264,0.592
			c0.199,0.296,0.208,0.607,0.208,0.951v2.711h-0.48v-2.702c0-0.744-0.304-1.12-1.071-1.12c-0.592,0-0.999,0.384-1.151,0.808
			c-0.096,0.264-0.104,0.496-0.104,0.784V39.11z"/>
		<path class="st7" d="M221.964,37.151c-0.008,0.896,0.472,1.64,1.392,1.64c0.624,0,1.111-0.345,1.256-0.952h0.535
			c-0.24,0.784-0.735,1.384-1.791,1.384c-1.327,0-1.903-0.943-1.903-2.167c0-1.208,0.72-2.199,1.903-2.199
			c1.136,0,1.831,0.808,1.823,2.295H221.964z M224.667,36.751c0-0.808-0.448-1.464-1.312-1.464c-0.848,0-1.295,0.68-1.392,1.464
			H224.667z"/>
	</g>
	<g>
		<path class="st7" d="M208.404,52.993v-5.757h2.079c1.352,0,1.887,0.584,1.887,1.447c0,0.8-0.456,1.159-0.919,1.239v0.016
			c0.791,0.12,1.183,0.672,1.183,1.432c0,1.199-0.783,1.623-1.879,1.623H208.404z M208.948,49.78h1.375
			c1.136,0,1.503-0.4,1.503-1.096c0-0.72-0.432-0.983-1.623-0.983h-1.255V49.78z M208.948,52.53h1.383c1.2,0,1.76-0.16,1.76-1.159
			c0-0.951-0.672-1.127-1.695-1.127h-1.447V52.53z"/>
		<path class="st7" d="M216.475,48.852h0.48v4.142h-0.48v-0.576c-0.256,0.288-0.607,0.688-1.335,0.688
			c-1.104,0-1.472-0.664-1.472-1.527v-2.727h0.48v2.719c0,0.711,0.312,1.103,1.063,1.103c0.791,0,1.263-0.655,1.263-1.566V48.852z"
			/>
		<path class="st7" d="M218.397,51.699c0.152,0.711,0.52,0.975,1.239,0.975c0.695,0,1.023-0.367,1.023-0.768
			c0-1.199-2.654-0.352-2.654-1.982c0-0.688,0.535-1.184,1.455-1.184c0.896,0,1.479,0.368,1.599,1.304h-0.487
			c-0.088-0.64-0.52-0.872-1.119-0.872c-0.607,0-0.936,0.288-0.936,0.712c0,1.128,2.654,0.424,2.654,2.015
			c0,0.792-0.712,1.208-1.687,1.208c-0.976,0-1.535-0.624-1.575-1.407H218.397z"/>
		<path class="st7" d="M222.085,54.12c0.128,0.024,0.264,0.049,0.399,0.049c0.544,0,0.624-0.784,0.808-1.144l-1.607-4.174h0.536
			l1.327,3.558l1.327-3.558h0.52l-1.543,4.086c-0.392,1.039-0.647,1.687-1.312,1.687c-0.167,0-0.327-0.023-0.455-0.056V54.12z"/>
	</g>
	<g>
		<path class="st7" d="M209.005,66.88v-5.757h3.83v0.464h-3.286v2.079h2.967v0.464h-2.967v2.286h3.366v0.464H209.005z"/>
		<path class="st7" d="M214.324,66.88h-0.479v-4.142h0.479v0.775h0.017c0.264-0.663,0.655-0.888,1.351-0.888v0.52
			c-1.079-0.023-1.367,0.776-1.367,1.703V66.88z"/>
		<path class="st7" d="M216.988,66.88h-0.479v-4.142h0.479v0.775h0.017c0.264-0.663,0.655-0.888,1.351-0.888v0.52
			c-1.079-0.023-1.367,0.776-1.367,1.703V66.88z"/>
		<path class="st7" d="M218.734,64.809c0-1.207,0.64-2.183,1.919-2.183c1.295,0,1.919,0.968,1.919,2.183
			c0,1.312-0.76,2.184-1.919,2.184C219.597,66.976,218.734,66.256,218.734,64.809z M220.652,63.058
			c-1.008,0-1.407,0.855-1.407,1.751c0,1.032,0.488,1.751,1.407,1.751c1.008,0,1.407-0.863,1.407-1.751
			C222.052,63.834,221.668,63.058,220.652,63.058z"/>
		<path class="st7" d="M223.956,66.88h-0.479v-4.142h0.479v0.775h0.017c0.264-0.663,0.655-0.888,1.351-0.888v0.52
			c-1.079-0.023-1.367,0.776-1.367,1.703V66.88z"/>
	</g>
	<g>
		<path class="st7" d="M201.005,80.764v-5.757h3.83v0.464h-3.286v2.079h2.967v0.463h-2.967V80.3h3.366v0.464H201.005z"/>
		<path class="st7" d="M206.324,80.764h-0.479v-4.142h0.479v0.775h0.017c0.264-0.664,0.655-0.888,1.351-0.888v0.52
			c-1.079-0.023-1.367,0.776-1.367,1.703V80.764z"/>
		<path class="st7" d="M208.988,80.764h-0.479v-4.142h0.479v0.775h0.017c0.264-0.664,0.655-0.888,1.351-0.888v0.52
			c-1.079-0.023-1.367,0.776-1.367,1.703V80.764z"/>
		<path class="st7" d="M210.734,78.693c0-1.207,0.64-2.183,1.919-2.183c1.295,0,1.919,0.968,1.919,2.183
			c0,1.312-0.76,2.184-1.919,2.184C211.597,80.86,210.734,80.14,210.734,78.693z M212.652,76.942c-1.008,0-1.407,0.855-1.407,1.751
			c0,1.032,0.488,1.752,1.407,1.752c1.008,0,1.407-0.864,1.407-1.752C214.052,77.718,213.668,76.942,212.652,76.942z"/>
		<path class="st7" d="M215.956,80.764h-0.479v-4.142h0.479v0.775h0.017c0.264-0.664,0.655-0.888,1.351-0.888v0.52
			c-1.079-0.023-1.367,0.776-1.367,1.703V80.764z"/>
		<path class="st7" d="M218.381,80.764v-5.757h0.543v5.757H218.381z"/>
		<path class="st7" d="M220.413,80.764v-5.757h1.967c0.64,0,1.239,0.04,1.775,0.432c0.76,0.552,0.959,1.671,0.959,2.438
			c0,0.76-0.167,1.607-0.695,2.183c-0.527,0.592-1.279,0.704-2.039,0.704H220.413z M220.957,80.3h1.303
			c0.488,0,0.912-0.032,1.352-0.264c0.768-0.392,0.96-1.375,0.96-2.159c0-0.839-0.185-1.759-0.992-2.19
			c-0.344-0.184-0.839-0.216-1.319-0.216h-1.303V80.3z"/>
	</g>
</g>
<line class="st0" x1="0.5" y1="130.213" x2="240.674" y2="130.213"/>
<g>
	<rect x="11.971" y="124.697" width="11.073" height="11.074"/>
	<line class="st0" x1="23.045" y1="124.697" x2="23.045" y2="135.771"/>
	<line class="st0" x1="11.971" y1="135.771" x2="11.971" y2="124.697"/>
</g>
<g>
	<line class="st1" x1="133.512" y1="145.018" x2="137.412" y2="145.018"/>
	<rect x="137.412" y="109.974" class="st2" width="90.305" height="73.677"/>
	<rect x="137.412" y="109.974" class="st3" width="90.305" height="14.74"/>
	<g>
		<path class="st4" d="M168.418,120.692v-3.391c0-0.167,0.016-0.895,0.016-1.431h-0.016l-1.615,4.821h-0.768l-1.615-4.813h-0.016
			c0,0.528,0.016,1.256,0.016,1.423v3.391h-0.752v-5.741h1.111l1.64,4.854h0.016l1.631-4.854h1.104v5.741H168.418z"/>
		<path class="st4" d="M174.386,116.678c-0.216-1.008-1.056-1.191-1.607-1.191c-1.039,0-1.879,0.768-1.879,2.278
			c0,1.352,0.479,2.391,1.903,2.391c0.503,0,1.375-0.239,1.639-1.575h0.752c-0.32,2.167-2.079,2.264-2.511,2.264
			c-1.304,0-2.583-0.848-2.583-3.055c0-1.768,1.008-2.99,2.679-2.99c1.479,0,2.247,0.919,2.358,1.879H174.386z"/>
		<path class="st4" d="M175.525,121.691v-0.399h4.445v0.399H175.525z"/>
		<path class="st4" d="M181.436,120.692h-0.775v-5.741h2.583c1.063,0,1.703,0.688,1.703,1.615c0,0.8-0.456,1.703-1.703,1.703h-1.808
			V120.692z M181.436,117.606h1.544c0.695,0,1.167-0.256,1.167-1.032c0-0.728-0.496-0.959-1.136-0.959h-1.575V117.606z"/>
		<path class="st4" d="M187.131,116.39c1.335,0,1.943,1.128,1.943,2.207s-0.608,2.207-1.943,2.207s-1.942-1.128-1.942-2.207
			S185.796,116.39,187.131,116.39z M187.131,120.196c1.008,0,1.216-1.039,1.216-1.599s-0.208-1.6-1.216-1.6
			c-1.007,0-1.215,1.04-1.215,1.6S186.124,120.196,187.131,120.196z"/>
		<path class="st4" d="M191.283,120.692h-0.728l-1.207-4.182h0.768l0.799,3.286h0.017l0.808-3.286h0.783l0.815,3.286h0.017
			l0.847-3.286h0.704l-1.216,4.182h-0.728l-0.848-3.238h-0.016L191.283,120.692z"/>
		<path class="st4" d="M199.002,119.38c-0.023,0.2-0.216,0.792-0.743,1.144c-0.191,0.128-0.464,0.288-1.136,0.288
			c-1.175,0-1.87-0.888-1.87-2.095c0-1.296,0.623-2.327,2.007-2.327c1.207,0,1.799,0.96,1.799,2.438h-3.055
			c0,0.872,0.408,1.376,1.216,1.376c0.663,0,1.055-0.512,1.079-0.824H199.002z M198.331,118.269
			c-0.04-0.647-0.312-1.247-1.168-1.247c-0.647,0-1.159,0.6-1.159,1.247H198.331z"/>
		<path class="st4" d="M200.699,120.692h-0.704v-4.182h0.664v0.695h0.016c0.28-0.487,0.648-0.815,1.176-0.815
			c0.088,0,0.128,0.008,0.184,0.024v0.728h-0.264c-0.655,0-1.071,0.512-1.071,1.119V120.692z"/>
	</g>
	<g>
		<path class="st5" d="M166.861,105.338v-3.391c0-0.167,0.016-0.895,0.016-1.431h-0.016l-1.615,4.821h-0.768l-1.615-4.813h-0.016
			c0,0.528,0.016,1.256,0.016,1.423v3.391h-0.752v-5.741h1.112l1.639,4.854h0.016l1.631-4.854h1.104v5.741H166.861z"/>
		<path class="st5" d="M172.83,101.325c-0.216-1.008-1.056-1.191-1.607-1.191c-1.039,0-1.879,0.768-1.879,2.278
			c0,1.352,0.479,2.391,1.903,2.391c0.503,0,1.375-0.239,1.639-1.575h0.752c-0.32,2.167-2.079,2.264-2.511,2.264
			c-1.304,0-2.583-0.848-2.583-3.055c0-1.768,1.008-2.99,2.679-2.99c1.479,0,2.247,0.919,2.358,1.879H172.83z"/>
		<path class="st5" d="M173.968,106.337v-0.399h4.445v0.399H173.968z"/>
		<path class="st5" d="M179.896,105.338h-0.775v-5.741h2.654c0.943,0,1.887,0.328,1.887,1.544c0,0.847-0.432,1.159-0.8,1.375
			c0.328,0.136,0.656,0.279,0.688,1.079l0.048,1.04c0.009,0.319,0.049,0.439,0.288,0.575v0.128h-0.951
			c-0.112-0.352-0.136-1.224-0.136-1.439c0-0.472-0.096-1.023-1.023-1.023h-1.879V105.338z M179.896,102.212h1.799
			c0.567,0,1.167-0.145,1.167-0.992c0-0.887-0.647-0.959-1.031-0.959h-1.935V102.212z"/>
		<path class="st5" d="M188.102,104.027c-0.023,0.2-0.216,0.792-0.743,1.144c-0.191,0.128-0.464,0.288-1.136,0.288
			c-1.175,0-1.87-0.888-1.87-2.095c0-1.296,0.623-2.327,2.007-2.327c1.207,0,1.799,0.96,1.799,2.438h-3.055
			c0,0.872,0.408,1.376,1.216,1.376c0.663,0,1.055-0.512,1.079-0.824H188.102z M187.431,102.915
			c-0.04-0.647-0.312-1.247-1.168-1.247c-0.647,0-1.159,0.6-1.159,1.247H187.431z"/>
		<path class="st5" d="M191.375,102.348c-0.008-0.264-0.104-0.704-0.991-0.704c-0.216,0-0.832,0.072-0.832,0.592
			c0,0.344,0.216,0.424,0.76,0.56l0.703,0.176c0.872,0.217,1.176,0.536,1.176,1.104c0,0.864-0.712,1.384-1.655,1.384
			c-1.655,0-1.774-0.96-1.799-1.464h0.68c0.024,0.328,0.12,0.856,1.111,0.856c0.504,0,0.96-0.2,0.96-0.664
			c0-0.336-0.232-0.448-0.832-0.6l-0.815-0.2c-0.584-0.144-0.968-0.439-0.968-1.016c0-0.919,0.76-1.335,1.583-1.335
			c1.495,0,1.6,1.104,1.6,1.312H191.375z"/>
		<path class="st5" d="M196.55,104.027c-0.023,0.2-0.216,0.792-0.743,1.144c-0.192,0.128-0.464,0.288-1.136,0.288
			c-1.175,0-1.871-0.888-1.871-2.095c0-1.296,0.624-2.327,2.008-2.327c1.207,0,1.799,0.96,1.799,2.438h-3.055
			c0,0.872,0.408,1.376,1.216,1.376c0.663,0,1.055-0.512,1.079-0.824H196.55z M195.879,102.915c-0.04-0.647-0.312-1.247-1.168-1.247
			c-0.647,0-1.159,0.6-1.159,1.247H195.879z"/>
		<path class="st5" d="M198.311,101.741v2.718c0,0.328,0.28,0.328,0.424,0.328h0.248v0.552c-0.256,0.024-0.456,0.056-0.527,0.056
			c-0.696,0-0.848-0.392-0.848-0.896v-2.758h-0.567v-0.584h0.567V99.99h0.703v1.167h0.672v0.584H198.311z"/>
		<path class="st5" d="M199.504,101.732c0-1.831,1.336-2.015,1.943-2.015c0.976,0,1.759,0.632,1.759,1.68
			c0,1.007-0.664,1.431-1.503,1.879l-0.584,0.319c-0.768,0.424-0.936,0.863-0.968,1.079h3.055v0.664h-3.846
			c0.04-1.167,0.567-1.791,1.319-2.23l0.743-0.432c0.6-0.344,1.031-0.576,1.031-1.312c0-0.448-0.287-1.016-1.111-1.016
			c-1.063,0-1.111,0.991-1.135,1.383H199.504z"/>
	</g>
	<line class="st6" x1="137.479" y1="124.714" x2="227.651" y2="124.714"/>
	<g>
		<path class="st7" d="M140.184,147.627l2.263-5.757h0.616l2.207,5.757h-0.56l-0.664-1.807h-2.623l-0.68,1.807H140.184z
			 M141.607,145.357h2.255l-1.127-3.022L141.607,145.357z"/>
		<path class="st7" d="M147.415,145.836l-1.288,1.791h-0.583l1.591-2.143l-1.463-1.999h0.592l1.143,1.647l1.175-1.647h0.608
			l-1.495,1.999l1.551,2.143h-0.576L147.415,145.836z"/>
		<path class="st7" d="M150.024,142.582v-0.712h0.528v0.712H150.024z M150.048,147.627v-4.142h0.48v4.142H150.048z"/>
		<path class="st7" d="M152.031,146.332c0.152,0.711,0.52,0.975,1.239,0.975c0.696,0,1.023-0.367,1.023-0.768
			c0-1.199-2.654-0.352-2.654-1.982c0-0.688,0.536-1.184,1.455-1.184c0.896,0,1.479,0.368,1.599,1.304h-0.488
			c-0.088-0.64-0.52-0.872-1.119-0.872c-0.608,0-0.936,0.288-0.936,0.712c0,1.128,2.654,0.424,2.654,2.015
			c0,0.792-0.711,1.208-1.687,1.208s-1.535-0.624-1.575-1.407H152.031z"/>
	</g>
	<g>
		<path class="st7" d="M85.967,148.227v0.399h-3.998v-0.399H85.967z"/>
		<path class="st7" d="M86.593,147.627v-5.757h0.832l1.887,5.077h0.016l1.855-5.077h0.823v5.757h-0.543v-5.133h-0.016l-1.887,5.133
			h-0.512l-1.895-5.133h-0.016v5.133H86.593z"/>
		<path class="st7" d="M97.367,143.541c-0.224-0.983-0.832-1.359-1.815-1.359c-1.391,0-1.991,1.191-1.991,2.551
			c0,1.287,0.472,2.583,2.039,2.583c0.992,0,1.607-0.672,1.823-1.583h0.567c-0.256,1.111-0.951,2.047-2.495,2.047
			c-1.775,0-2.479-1.399-2.479-3.031c0-2.198,1.151-3.03,2.679-3.03c1.183,0,2.047,0.632,2.23,1.823H97.367z"/>
		<path class="st7" d="M102.407,148.227v0.399h-3.998v-0.399H102.407z"/>
		<path class="st7" d="M102.529,147.627l2.263-5.757h0.616l2.207,5.757h-0.56l-0.664-1.807h-2.623l-0.68,1.807H102.529z
			 M103.952,145.357h2.255l-1.127-3.022L103.952,145.357z"/>
		<path class="st7" d="M109.76,145.836l-1.287,1.791h-0.583l1.591-2.143l-1.463-1.999h0.591l1.144,1.647l1.175-1.647h0.608
			l-1.495,1.999l1.551,2.143h-0.576L109.76,145.836z"/>
		<path class="st7" d="M112.369,142.582v-0.712h0.528v0.712H112.369z M112.393,147.627v-4.142h0.48v4.142H112.393z"/>
		<path class="st7" d="M114.377,146.332c0.152,0.711,0.52,0.975,1.239,0.975c0.696,0,1.023-0.367,1.023-0.768
			c0-1.199-2.654-0.352-2.654-1.982c0-0.688,0.536-1.184,1.455-1.184c0.896,0,1.479,0.368,1.599,1.304h-0.488
			c-0.088-0.64-0.52-0.872-1.119-0.872c-0.608,0-0.936,0.288-0.936,0.712c0,1.128,2.654,0.424,2.654,2.015
			c0,0.792-0.711,1.208-1.687,1.208s-1.535-0.624-1.575-1.407H114.377z"/>
		<path class="st7" d="M118.249,149.155v-7.437h1.527v0.4h-1.016v6.636h1v0.4H118.249z"/>
		<path class="st7" d="M124.215,145.804h-0.888l-0.256,1.823h-0.472l0.248-1.823h-1.095l-0.272,1.823h-0.472l0.271-1.823h-0.879
			v-0.472h0.952l0.168-1.119h-0.896v-0.472h0.959l0.256-1.695h0.479l-0.256,1.695h1.087l0.248-1.695h0.472l-0.248,1.695h0.8v0.472
			h-0.864l-0.16,1.119h0.815V145.804z M122,144.213l-0.176,1.119h1.104l0.16-1.119H122z"/>
		<path class="st7" d="M127.048,143.438h-1.455v-0.336c0.855-0.056,1.391-0.145,1.559-1.111h0.408v5.637h-0.512V143.438z"/>
		<path class="st7" d="M131.016,149.155h-1.527v-0.4h1.016v-6.636h-1v-0.4h1.511V149.155z"/>
	</g>
	<g>
		<path class="st7" d="M140.712,133.743v-5.757h3.83v0.464h-3.286v2.079h2.966v0.463h-2.966v2.287h3.366v0.464H140.712z"/>
		<path class="st7" d="M146.967,131.952l-1.287,1.791h-0.583l1.591-2.143l-1.463-1.999h0.591l1.144,1.646l1.175-1.646h0.608
			l-1.495,1.999l1.551,2.143h-0.576L146.967,131.952z"/>
		<path class="st7" d="M149.824,131.785c-0.008,0.896,0.472,1.64,1.391,1.64c0.624,0,1.111-0.345,1.255-0.952h0.536
			c-0.24,0.784-0.735,1.384-1.791,1.384c-1.327,0-1.903-0.943-1.903-2.167c0-1.208,0.72-2.199,1.903-2.199
			c1.135,0,1.831,0.808,1.823,2.295H149.824z M152.527,131.385c0-0.808-0.448-1.464-1.312-1.464c-0.848,0-1.295,0.68-1.391,1.464
			H152.527z"/>
		<path class="st7" d="M156.91,130.905c-0.168-0.615-0.592-0.983-1.231-0.983c-0.983,0-1.391,0.896-1.391,1.76
			c0,0.871,0.399,1.743,1.391,1.743c0.711,0,1.159-0.424,1.271-1.112h0.512c-0.168,0.92-0.744,1.544-1.783,1.544
			c-1.319,0-1.903-0.952-1.903-2.175c0-1.151,0.664-2.191,1.903-2.191c0.951,0,1.575,0.456,1.719,1.415H156.91z"/>
		<path class="st7" d="M161.23,129.602h0.479v4.142h-0.479v-0.575c-0.256,0.287-0.608,0.688-1.335,0.688
			c-1.104,0-1.471-0.664-1.471-1.527v-2.727h0.48v2.719c0,0.711,0.312,1.104,1.063,1.104c0.792,0,1.264-0.656,1.264-1.567V129.602z"
			/>
		<path class="st7" d="M164.327,133.759c-0.112,0.024-0.32,0.097-0.552,0.097c-0.472,0-0.735-0.208-0.735-0.824v-3.03h-0.583v-0.399
			h0.583v-1.151h0.479v1.151h0.776v0.399h-0.776v2.839c0,0.407,0.016,0.584,0.416,0.584c0.128,0,0.264-0.024,0.392-0.057V133.759z"
			/>
		<path class="st7" d="M165.392,131.785c-0.008,0.896,0.472,1.64,1.391,1.64c0.624,0,1.111-0.345,1.255-0.952h0.536
			c-0.24,0.784-0.735,1.384-1.791,1.384c-1.327,0-1.903-0.943-1.903-2.167c0-1.208,0.72-2.199,1.903-2.199
			c1.135,0,1.831,0.808,1.823,2.295H165.392z M168.094,131.385c0-0.808-0.448-1.464-1.312-1.464c-0.848,0-1.295,0.68-1.391,1.464
			H168.094z"/>
	</g>
	<g>
		<path class="st7" d="M207.069,133.743v-5.757h1.967c0.64,0,1.239,0.04,1.775,0.432c0.76,0.552,0.959,1.671,0.959,2.438
			c0,0.76-0.168,1.607-0.695,2.183c-0.527,0.592-1.279,0.704-2.039,0.704H207.069z M207.612,133.28h1.304
			c0.487,0,0.911-0.032,1.351-0.264c0.768-0.392,0.96-1.375,0.96-2.159c0-0.839-0.185-1.759-0.992-2.19
			c-0.344-0.184-0.839-0.216-1.318-0.216h-1.304V133.28z"/>
		<path class="st7" d="M212.501,131.672c0-1.207,0.64-2.183,1.919-2.183c1.295,0,1.919,0.968,1.919,2.183
			c0,1.312-0.76,2.184-1.919,2.184C213.364,133.839,212.501,133.119,212.501,131.672z M214.42,129.921
			c-1.008,0-1.407,0.855-1.407,1.751c0,1.032,0.488,1.752,1.407,1.752c1.008,0,1.407-0.864,1.407-1.752
			C215.819,130.698,215.436,129.921,214.42,129.921z"/>
		<path class="st7" d="M217.7,133.743h-0.479v-4.142h0.479v0.575c0.384-0.407,0.76-0.688,1.335-0.688
			c0.504,0,0.968,0.16,1.264,0.592c0.199,0.296,0.208,0.607,0.208,0.951v2.711h-0.48v-2.702c0-0.744-0.304-1.12-1.071-1.12
			c-0.592,0-0.999,0.384-1.151,0.808c-0.096,0.264-0.104,0.496-0.104,0.784V133.743z"/>
		<path class="st7" d="M221.964,131.785c-0.008,0.896,0.472,1.64,1.392,1.64c0.624,0,1.111-0.345,1.256-0.952h0.535
			c-0.24,0.784-0.735,1.384-1.791,1.384c-1.327,0-1.903-0.943-1.903-2.167c0-1.208,0.72-2.199,1.903-2.199
			c1.136,0,1.831,0.808,1.823,2.295H221.964z M224.667,131.385c0-0.808-0.448-1.464-1.312-1.464c-0.848,0-1.295,0.68-1.392,1.464
			H224.667z"/>
	</g>
	<g>
		<path class="st7" d="M208.404,147.627v-5.757h2.079c1.352,0,1.887,0.584,1.887,1.447c0,0.8-0.456,1.159-0.919,1.239v0.016
			c0.791,0.12,1.183,0.672,1.183,1.432c0,1.199-0.783,1.623-1.879,1.623H208.404z M208.948,144.413h1.375
			c1.136,0,1.503-0.4,1.503-1.096c0-0.72-0.432-0.983-1.623-0.983h-1.255V144.413z M208.948,147.163h1.383
			c1.2,0,1.76-0.16,1.76-1.159c0-0.951-0.672-1.127-1.695-1.127h-1.447V147.163z"/>
		<path class="st7" d="M216.475,143.486h0.48v4.142h-0.48v-0.576c-0.256,0.288-0.607,0.688-1.335,0.688
			c-1.104,0-1.472-0.664-1.472-1.527v-2.727h0.48v2.719c0,0.711,0.312,1.103,1.063,1.103c0.791,0,1.263-0.655,1.263-1.566V143.486z"
			/>
		<path class="st7" d="M218.397,146.332c0.152,0.711,0.52,0.975,1.239,0.975c0.695,0,1.023-0.367,1.023-0.768
			c0-1.199-2.654-0.352-2.654-1.982c0-0.688,0.535-1.184,1.455-1.184c0.896,0,1.479,0.368,1.599,1.304h-0.487
			c-0.088-0.64-0.52-0.872-1.119-0.872c-0.607,0-0.936,0.288-0.936,0.712c0,1.128,2.654,0.424,2.654,2.015
			c0,0.792-0.712,1.208-1.687,1.208c-0.976,0-1.535-0.624-1.575-1.407H218.397z"/>
		<path class="st7" d="M222.085,148.754c0.128,0.024,0.264,0.049,0.399,0.049c0.544,0,0.624-0.784,0.808-1.144l-1.607-4.174h0.536
			l1.327,3.558l1.327-3.558h0.52l-1.543,4.086c-0.392,1.039-0.647,1.687-1.312,1.687c-0.167,0-0.327-0.023-0.455-0.056V148.754z"/>
	</g>
	<g>
		<path class="st7" d="M209.005,161.514v-5.757h3.83v0.464h-3.286v2.079h2.967v0.464h-2.967v2.286h3.366v0.464H209.005z"/>
		<path class="st7" d="M214.324,161.514h-0.479v-4.142h0.479v0.775h0.017c0.264-0.663,0.655-0.888,1.351-0.888v0.52
			c-1.079-0.023-1.367,0.776-1.367,1.703V161.514z"/>
		<path class="st7" d="M216.988,161.514h-0.479v-4.142h0.479v0.775h0.017c0.264-0.663,0.655-0.888,1.351-0.888v0.52
			c-1.079-0.023-1.367,0.776-1.367,1.703V161.514z"/>
		<path class="st7" d="M218.734,159.443c0-1.207,0.64-2.183,1.919-2.183c1.295,0,1.919,0.968,1.919,2.183
			c0,1.312-0.76,2.184-1.919,2.184C219.597,161.61,218.734,160.89,218.734,159.443z M220.652,157.692
			c-1.008,0-1.407,0.855-1.407,1.751c0,1.032,0.488,1.751,1.407,1.751c1.008,0,1.407-0.863,1.407-1.751
			C222.052,158.468,221.668,157.692,220.652,157.692z"/>
		<path class="st7" d="M223.956,161.514h-0.479v-4.142h0.479v0.775h0.017c0.264-0.663,0.655-0.888,1.351-0.888v0.52
			c-1.079-0.023-1.367,0.776-1.367,1.703V161.514z"/>
	</g>
	<g>
		<path class="st7" d="M201.005,175.398v-5.757h3.83v0.464h-3.286v2.079h2.967v0.463h-2.967v2.287h3.366v0.464H201.005z"/>
		<path class="st7" d="M206.324,175.398h-0.479v-4.142h0.479v0.775h0.017c0.264-0.664,0.655-0.888,1.351-0.888v0.52
			c-1.079-0.023-1.367,0.776-1.367,1.703V175.398z"/>
		<path class="st7" d="M208.988,175.398h-0.479v-4.142h0.479v0.775h0.017c0.264-0.664,0.655-0.888,1.351-0.888v0.52
			c-1.079-0.023-1.367,0.776-1.367,1.703V175.398z"/>
		<path class="st7" d="M210.734,173.326c0-1.207,0.64-2.183,1.919-2.183c1.295,0,1.919,0.968,1.919,2.183
			c0,1.312-0.76,2.184-1.919,2.184C211.597,175.493,210.734,174.774,210.734,173.326z M212.652,171.576
			c-1.008,0-1.407,0.855-1.407,1.751c0,1.032,0.488,1.752,1.407,1.752c1.008,0,1.407-0.864,1.407-1.752
			C214.052,172.352,213.668,171.576,212.652,171.576z"/>
		<path class="st7" d="M215.956,175.398h-0.479v-4.142h0.479v0.775h0.017c0.264-0.664,0.655-0.888,1.351-0.888v0.52
			c-1.079-0.023-1.367,0.776-1.367,1.703V175.398z"/>
		<path class="st7" d="M218.381,175.398v-5.757h0.543v5.757H218.381z"/>
		<path class="st7" d="M220.413,175.398v-5.757h1.967c0.64,0,1.239,0.04,1.775,0.432c0.76,0.552,0.959,1.671,0.959,2.438
			c0,0.76-0.167,1.607-0.695,2.183c-0.527,0.592-1.279,0.704-2.039,0.704H220.413z M220.957,174.934h1.303
			c0.488,0,0.912-0.032,1.352-0.264c0.768-0.392,0.96-1.375,0.96-2.159c0-0.839-0.185-1.759-0.992-2.19
			c-0.344-0.184-0.839-0.216-1.319-0.216h-1.303V174.934z"/>
	</g>
</g>
</svg>
