<?xml version="1.0" encoding="utf-8"?>
<!-- Generator: Adobe Illustrator 28.2.0, SVG Export Plug-In . SVG Version: 6.00 Build 0)  -->
<svg version="1.1" xmlns="http://www.w3.org/2000/svg" xmlns:xlink="http://www.w3.org/1999/xlink" x="0px" y="0px"
	 width="200.045px" height="90.934px" viewBox="0 0 200.045 90.934" style="enable-background:new 0 0 200.045 90.934;"
	 xml:space="preserve">
<style type="text/css">
	.st0{fill:none;stroke:#231815;stroke-linejoin:round;stroke-miterlimit:10;}
	.st1{fill:none;stroke:#231815;stroke-width:0.5;stroke-linejoin:round;stroke-miterlimit:10;}
	.st2{fill:none;stroke:#231815;stroke-width:0.75;stroke-linejoin:round;stroke-miterlimit:10;}
</style>
<g id="レイヤー_1">
</g>
<g id="レイヤー_2">
	<g>
		<path d="M2.599,0.834h0.528v6.252H2.591V1.418L1.319,2.281l-0.072-0.52L2.599,0.834z"/>
		<path d="M5.792,3.96c0-0.695,0.008-3.254,2.127-3.254c2.103,0,2.126,2.535,2.126,3.254c0,0.728-0.024,3.254-2.126,3.254
			C5.799,7.214,5.792,4.648,5.792,3.96z M9.525,3.96c0-0.911-0.104-2.782-1.607-2.782c-1.479,0-1.607,1.815-1.607,2.782
			c0,0.928,0.112,2.783,1.607,2.783C9.405,6.743,9.525,4.912,9.525,3.96z"/>
		<path d="M11.071,3.96c0-0.695,0.008-3.254,2.127-3.254c2.103,0,2.127,2.535,2.127,3.254c0,0.728-0.024,3.254-2.127,3.254
			C11.079,7.214,11.071,4.648,11.071,3.96z M14.805,3.96c0-0.911-0.104-2.782-1.607-2.782c-1.479,0-1.607,1.815-1.607,2.782
			c0,0.928,0.112,2.783,1.607,2.783C14.686,6.743,14.805,4.912,14.805,3.96z"/>
		<path d="M17.67,0.706c0.839,0,1.471,0.68,1.471,1.671c0,0.992-0.624,1.671-1.471,1.671c-0.839,0-1.471-0.664-1.471-1.671
			S16.839,0.706,17.67,0.706z M17.67,3.625c0.512,0,1.023-0.376,1.023-1.248c0-0.848-0.496-1.247-1.023-1.247
			s-1.023,0.399-1.023,1.247C16.647,3.249,17.159,3.625,17.67,3.625z M21.269,0.834h0.472l-4.294,6.252h-0.479L21.269,0.834z
			 M21.044,3.872c0.832,0,1.471,0.672,1.471,1.671c0,0.999-0.64,1.671-1.471,1.671c-0.848,0-1.471-0.68-1.471-1.671
			C19.573,4.552,20.197,3.872,21.044,3.872z M21.044,6.791c0.536,0,1.023-0.408,1.023-1.247c0-0.855-0.503-1.248-1.023-1.248
			c-0.528,0-1.023,0.392-1.023,1.248C20.021,6.383,20.509,6.791,21.044,6.791z"/>
	</g>
	<g>
		<path d="M10.006,62.795v0.472h-4.27c0.576-0.568,1.575-1.559,2.407-2.551c0.712-0.847,1.047-1.391,1.047-2.071
			c0-0.744-0.527-1.287-1.271-1.287c-0.704,0-1.255,0.384-1.623,1.007L6.08,57.822c0.688-0.936,1.631-0.936,1.815-0.936
			c0.815,0,1.823,0.488,1.823,1.743c0,0.656-0.224,1.2-0.863,1.991c-0.312,0.392-0.944,1.111-1.967,2.175H10.006z"/>
		<path d="M11.072,60.141c0-0.695,0.008-3.254,2.127-3.254c2.103,0,2.126,2.535,2.126,3.254c0,0.728-0.024,3.254-2.126,3.254
			C11.08,63.395,11.072,60.829,11.072,60.141z M14.806,60.141c0-0.911-0.104-2.782-1.607-2.782c-1.479,0-1.607,1.815-1.607,2.782
			c0,0.928,0.112,2.783,1.607,2.783C14.686,62.923,14.806,61.092,14.806,60.141z"/>
		<path d="M17.671,56.887c0.839,0,1.471,0.68,1.471,1.671c0,0.992-0.624,1.671-1.471,1.671c-0.84,0-1.471-0.664-1.471-1.671
			S16.839,56.887,17.671,56.887z M17.671,59.805c0.512,0,1.023-0.376,1.023-1.248c0-0.848-0.496-1.247-1.023-1.247
			s-1.023,0.399-1.023,1.247C16.647,59.429,17.159,59.805,17.671,59.805z M21.269,57.015h0.472l-4.294,6.252h-0.479L21.269,57.015z
			 M21.045,60.053c0.832,0,1.471,0.672,1.471,1.671c0,0.999-0.64,1.671-1.471,1.671c-0.848,0-1.471-0.68-1.471-1.671
			C19.574,60.732,20.197,60.053,21.045,60.053z M21.045,62.971c0.536,0,1.023-0.408,1.023-1.247c0-0.855-0.504-1.248-1.023-1.248
			c-0.528,0-1.023,0.392-1.023,1.248C20.021,62.564,20.509,62.971,21.045,62.971z"/>
	</g>
	<g>
		<path d="M58.118,82.29h-2.774v2.231c0.192-0.096,0.544-0.288,1.159-0.288c1.279,0,2.143,0.824,2.143,1.951
			c0,1.119-0.864,2.015-2.359,2.015c-0.64,0-1.271-0.168-1.831-0.472l0.152-0.464c0.735,0.464,1.463,0.464,1.647,0.464
			c1.279,0,1.871-0.728,1.871-1.551c0-0.896-0.679-1.479-1.647-1.479c-0.408,0-0.815,0.112-1.135,0.368h-0.479v-3.246h3.254V82.29z"
			/>
		<path d="M59.728,84.944c0-0.695,0.008-3.254,2.127-3.254c2.103,0,2.126,2.535,2.126,3.254c0,0.728-0.024,3.254-2.126,3.254
			C59.735,88.198,59.728,85.632,59.728,84.944z M63.461,84.944c0-0.911-0.104-2.782-1.607-2.782c-1.479,0-1.607,1.815-1.607,2.782
			c0,0.928,0.112,2.783,1.607,2.783C63.341,87.727,63.461,85.896,63.461,84.944z"/>
		<path d="M65.007,84.944c0-0.695,0.008-3.254,2.127-3.254c2.103,0,2.127,2.535,2.127,3.254c0,0.728-0.024,3.254-2.127,3.254
			C65.015,88.198,65.007,85.632,65.007,84.944z M68.741,84.944c0-0.911-0.104-2.782-1.607-2.782c-1.479,0-1.607,1.815-1.607,2.782
			c0,0.928,0.112,2.783,1.607,2.783C68.622,87.727,68.741,85.896,68.741,84.944z"/>
	</g>
	<g>
		<path d="M141.061,87.599v0.472h-4.27c0.576-0.568,1.575-1.559,2.407-2.551c0.712-0.847,1.047-1.391,1.047-2.071
			c0-0.744-0.527-1.287-1.271-1.287c-0.704,0-1.255,0.384-1.623,1.007l-0.216-0.543c0.688-0.936,1.631-0.936,1.815-0.936
			c0.815,0,1.823,0.488,1.823,1.743c0,0.656-0.224,1.2-0.863,1.991c-0.312,0.392-0.944,1.111-1.967,2.175H141.061z"/>
		<path d="M142.127,84.944c0-0.695,0.008-3.254,2.127-3.254c2.103,0,2.126,2.535,2.126,3.254c0,0.728-0.024,3.254-2.126,3.254
			C142.135,88.198,142.127,85.632,142.127,84.944z M145.861,84.944c0-0.911-0.104-2.782-1.607-2.782
			c-1.479,0-1.607,1.815-1.607,2.782c0,0.928,0.112,2.783,1.607,2.783C145.741,87.727,145.861,85.896,145.861,84.944z"/>
		<path d="M147.407,84.944c0-0.695,0.008-3.254,2.127-3.254c2.103,0,2.127,2.535,2.127,3.254c0,0.728-0.024,3.254-2.127,3.254
			C147.415,88.198,147.407,85.632,147.407,84.944z M151.141,84.944c0-0.911-0.104-2.782-1.607-2.782
			c-1.479,0-1.607,1.815-1.607,2.782c0,0.928,0.112,2.783,1.607,2.783C151.021,87.727,151.141,85.896,151.141,84.944z"/>
		<path d="M152.687,84.944c0-0.695,0.008-3.254,2.127-3.254c2.103,0,2.126,2.535,2.126,3.254c0,0.728-0.024,3.254-2.126,3.254
			C152.694,88.198,152.687,85.632,152.687,84.944z M156.42,84.944c0-0.911-0.104-2.782-1.607-2.782
			c-1.479,0-1.607,1.815-1.607,2.782c0,0.928,0.112,2.783,1.607,2.783C156.3,87.727,156.42,85.896,156.42,84.944z"/>
	</g>
	<g>
		<path d="M183.581,87.599v0.472h-4.27c0.576-0.568,1.575-1.559,2.407-2.551c0.712-0.847,1.047-1.391,1.047-2.071
			c0-0.744-0.527-1.287-1.271-1.287c-0.704,0-1.255,0.384-1.623,1.007l-0.216-0.543c0.688-0.936,1.631-0.936,1.815-0.936
			c0.815,0,1.823,0.488,1.823,1.743c0,0.656-0.224,1.2-0.863,1.991c-0.312,0.392-0.944,1.111-1.967,2.175H183.581z"/>
		<path d="M184.647,84.944c0-0.695,0.008-3.254,2.127-3.254c2.103,0,2.126,2.535,2.126,3.254c0,0.728-0.024,3.254-2.126,3.254
			C184.655,88.198,184.647,85.632,184.647,84.944z M188.381,84.944c0-0.911-0.104-2.782-1.607-2.782
			c-1.479,0-1.607,1.815-1.607,2.782c0,0.928,0.112,2.783,1.607,2.783C188.261,87.727,188.381,85.896,188.381,84.944z"/>
		<path d="M192.877,88.07v-1.455h-3.03v-0.456l2.99-4.341h0.56v4.341h0.887v0.456h-0.887v1.455H192.877z M190.398,86.159h2.479
			v-3.606L190.398,86.159z"/>
		<path d="M199.484,86.255c0,1.183-0.992,1.943-2.151,1.943c-1.167,0-2.151-0.76-2.151-1.943c0-0.344,0.072-1.223,1.167-1.703
			c-0.528-0.256-0.792-0.799-0.792-1.303c0-0.696,0.496-1.559,1.775-1.559c1.271,0,1.775,0.847,1.775,1.559
			c0,0.504-0.264,1.047-0.792,1.303C199.108,84.88,199.484,85.544,199.484,86.255z M198.957,86.239c0-0.6-0.392-1.391-1.623-1.391
			c-1.231,0-1.623,0.792-1.623,1.391c0,0.815,0.647,1.487,1.623,1.487C198.309,87.727,198.957,87.055,198.957,86.239z
			 M198.589,83.273c0-0.608-0.416-1.12-1.255-1.12c-0.848,0-1.255,0.52-1.255,1.12c0,0.624,0.439,1.104,1.255,1.104
			C198.157,84.376,198.589,83.881,198.589,83.273z"/>
	</g>
</g>
<g id="Layer_3">
	<polyline class="st0" points="26.423,77.44 61.856,66.81 146.364,7.972 189.415,77.44 	"/>
	<polyline class="st1" points="26.068,66.81 61.856,66.81 61.856,77.44 	"/>
	<polyline class="st1" points="26.423,6.574 146.768,6.574 146.768,77.44 	"/>
	<polyline class="st2" points="26.423,0 26.423,77.44 200.045,77.44 	"/>
	<g>
	</g>
	<g>
	</g>
	<g>
	</g>
	<g>
	</g>
	<g>
	</g>
	<g>
	</g>
	<g>
	</g>
	<g>
	</g>
	<g>
	</g>
	<g>
	</g>
	<g>
	</g>
	<g>
	</g>
	<g>
	</g>
	<g>
	</g>
	<g>
	</g>
</g>
</svg>
