<?xml version="1.0" encoding="utf-8"?>
<!-- Generator: Adobe Illustrator 28.2.0, SVG Export Plug-In . SVG Version: 6.00 Build 0)  -->
<svg version="1.1" xmlns="http://www.w3.org/2000/svg" xmlns:xlink="http://www.w3.org/1999/xlink" x="0px" y="0px"
	 width="510.434px" height="481.902px" viewBox="0 0 510.434 481.902" style="enable-background:new 0 0 510.434 481.902;"
	 xml:space="preserve">
<style type="text/css">
	.st0{fill:none;stroke:#000000;stroke-miterlimit:10;}
	.st1{fill:none;stroke:#666666;stroke-width:0.5;stroke-miterlimit:10;stroke-dasharray:1;}
	.st2{display:none;}
	.st3{display:inline;}
	.st4{display:inline;fill:#3574F2;}
</style>
<g id="レイヤー_1">
	<polyline class="st0" points="510.434,126.644 345.466,126.644 322.684,92.629 283.164,92.629 260.706,126.644 219.39,126.644 
		196.713,92.629 155.159,92.629 	"/>
	<line class="st1" x1="177.836" y1="9.706" x2="177.836" y2="481.902"/>
	<line class="st1" x1="198.165" y1="9.706" x2="198.165" y2="481.902"/>
	<line class="st1" x1="208.681" y1="54.186" x2="208.681" y2="109.636"/>
	<line class="st1" x1="271.783" y1="75.235" x2="271.783" y2="109.866"/>
	<line class="st1" x1="427.917" y1="9.706" x2="427.917" y2="481.902"/>
	<line class="st1" x1="407.693" y1="9.706" x2="407.693" y2="481.902"/>
	<line class="st1" x1="365.625" y1="9.706" x2="365.625" y2="481.902"/>
	<line class="st1" x1="469.176" y1="9.706" x2="469.176" y2="481.902"/>
	<polyline class="st0" points="510.434,182.86 407.693,182.86 407.693,148.844 178.465,148.844 178.465,182.86 155.159,182.86 	"/>
	<line class="st0" x1="510.434" y1="59.903" x2="155.159" y2="59.903"/>
	<polyline class="st0" points="510.434,228.134 365.625,228.134 365.625,194.119 178.465,194.119 178.465,228.134 155.159,228.134 	
		"/>
	<polyline class="st0" points="510.434,273.569 365.625,273.569 365.625,239.553 198.165,239.553 198.165,273.569 155.159,273.569 	
		"/>
	<polyline class="st0" points="510.434,318.923 407.693,318.923 407.693,284.907 365.625,284.907 365.625,318.923 155.159,318.923 	
		"/>
	<polyline class="st0" points="510.434,386.292 469.176,386.292 469.176,352.276 365.625,352.276 365.625,386.292 155.159,386.292 	
		"/>
	<polyline class="st0" points="510.434,476.898 469.176,476.898 469.176,442.883 427.917,442.883 427.917,476.898 155.159,476.898 	
		"/>
	<polyline class="st0" points="510.434,430.786 427.917,430.786 427.917,396.77 365.625,396.77 365.625,430.786 155.159,430.786 	
		"/>
	<polyline class="st0" points="510.434,92.629 345.466,92.629 322.684,126.644 283.164,126.644 260.706,92.629 219.39,92.629 
		196.713,126.644 155.159,126.644 	"/>
	<polyline class="st0" points="208.681,59.903 208.681,36.404 218.389,26.696 244.277,26.696 253.176,36.404 253.176,59.903 	"/>
	<polyline class="st0" points="271.783,59.903 271.783,75.235 277.445,81.707 315.468,81.707 321.94,75.235 321.94,59.903 	"/>
</g>
<g id="レイヤー_2">
	<g class="st2">
		<path class="st3" d="M236.257,397.137h-4.238v-5.74h4.182v0.688h-3.406v1.759h3.142v0.688h-3.142v1.919h3.462V397.137z"/>
		<path class="st3" d="M240.585,397.137h-0.896l-1.04-1.575l-1.007,1.575h-0.888l1.471-2.15l-1.399-2.031h0.903l0.967,1.472
			l0.968-1.472h0.863l-1.415,2.031L240.585,397.137z"/>
		<path class="st3" d="M244.737,395.826c-0.024,0.2-0.216,0.792-0.744,1.144c-0.192,0.128-0.464,0.288-1.135,0.288
			c-1.175,0-1.871-0.888-1.871-2.095c0-1.295,0.624-2.327,2.007-2.327c1.208,0,1.799,0.96,1.799,2.439h-3.055
			c0,0.871,0.408,1.375,1.215,1.375c0.664,0,1.056-0.512,1.08-0.824H244.737z M244.065,394.714c-0.04-0.647-0.312-1.247-1.167-1.247
			c-0.648,0-1.16,0.6-1.16,1.247H244.065z"/>
		<path class="st3" d="M248.25,394.363c-0.088-0.56-0.4-0.896-0.992-0.896c-0.871,0-1.151,0.832-1.151,1.575
			c0,0.72,0.176,1.607,1.144,1.607c0.472,0,0.879-0.352,1-0.991h0.68c-0.072,0.663-0.48,1.599-1.703,1.599
			c-1.175,0-1.871-0.888-1.871-2.095c0-1.295,0.624-2.327,2.007-2.327c1.096,0,1.511,0.8,1.567,1.527H248.25z"/>
		<path class="st3" d="M252.362,397.137v-0.607l-0.016-0.016c-0.296,0.487-0.655,0.743-1.327,0.743
			c-0.616,0-1.359-0.296-1.359-1.295v-3.007h0.703v2.774c0,0.688,0.353,0.92,0.808,0.92c0.888,0,1.151-0.784,1.151-1.392v-2.303
			h0.704v4.182H252.362z"/>
		<path class="st3" d="M254.948,393.54v2.719c0,0.327,0.279,0.327,0.424,0.327h0.247v0.552c-0.256,0.024-0.455,0.057-0.527,0.057
			c-0.695,0-0.848-0.393-0.848-0.896v-2.759h-0.567v-0.584h0.567v-1.167h0.704v1.167h0.671v0.584H254.948z"/>
		<path class="st3" d="M259.858,395.826c-0.023,0.2-0.216,0.792-0.743,1.144c-0.192,0.128-0.464,0.288-1.136,0.288
			c-1.175,0-1.871-0.888-1.871-2.095c0-1.295,0.624-2.327,2.007-2.327c1.208,0,1.799,0.96,1.799,2.439h-3.054
			c0,0.871,0.407,1.375,1.215,1.375c0.664,0,1.056-0.512,1.08-0.824H259.858z M259.186,394.714c-0.04-0.647-0.312-1.247-1.167-1.247
			c-0.647,0-1.159,0.6-1.159,1.247H259.186z"/>
	</g>
	<g class="st2">
		<path class="st3" d="M231.923,419.743h2.526c1.071,0,1.623,0.664,1.623,1.447c0,0.376-0.136,0.903-0.768,1.199
			c0.376,0.152,1.04,0.416,1.04,1.399c0,0.92-0.68,1.695-1.951,1.695h-2.471V419.743z M232.699,422.173h1.399
			c0.744,0,1.199-0.224,1.199-0.928c0-0.535-0.328-0.839-1.191-0.839h-1.407V422.173z M232.699,424.82h1.655
			c0.808,0,1.215-0.407,1.215-1.047c0-0.808-0.712-0.968-1.343-0.968h-1.527V424.82z"/>
		<path class="st3" d="M239.914,425.484v-0.607l-0.016-0.017c-0.296,0.488-0.656,0.744-1.328,0.744
			c-0.616,0-1.359-0.296-1.359-1.296v-3.006h0.703v2.774c0,0.688,0.352,0.919,0.808,0.919c0.888,0,1.151-0.783,1.151-1.391v-2.303
			h0.704v4.182H239.914z"/>
		<path class="st3" d="M244.01,422.494c-0.008-0.265-0.104-0.704-0.992-0.704c-0.216,0-0.832,0.072-0.832,0.592
			c0,0.344,0.216,0.424,0.76,0.56l0.704,0.176c0.872,0.216,1.175,0.536,1.175,1.104c0,0.863-0.711,1.384-1.655,1.384
			c-1.655,0-1.775-0.96-1.799-1.464h0.68c0.024,0.328,0.12,0.855,1.111,0.855c0.504,0,0.959-0.199,0.959-0.663
			c0-0.336-0.232-0.448-0.832-0.6l-0.815-0.2c-0.584-0.144-0.968-0.439-0.968-1.016c0-0.919,0.76-1.335,1.583-1.335
			c1.495,0,1.599,1.104,1.599,1.312H244.01z"/>
		<path class="st3" d="M248.25,421.302h0.775c-0.488,1.367-0.967,2.734-1.503,4.102c-0.664,1.695-0.736,1.791-1.639,1.791
			c-0.104,0-0.184-0.032-0.296-0.064v-0.64c0.088,0.032,0.232,0.072,0.424,0.072c0.368,0,0.408-0.104,0.744-0.968l-1.551-4.293h0.8
			l1.111,3.406h0.016L248.25,421.302z"/>
	</g>
	<g class="st2">
		<path class="st3" d="M231.979,448.09h2.327c1.495,0,2.415,1.135,2.415,2.79c0,1.287-0.56,2.95-2.447,2.95h-2.295V448.09z
			 M232.755,453.167h1.503c1.007,0,1.663-0.792,1.663-2.239s-0.664-2.175-1.719-2.175h-1.447V453.167z"/>
		<path class="st3" d="M239.33,449.529c1.335,0,1.943,1.128,1.943,2.207s-0.607,2.207-1.943,2.207c-1.335,0-1.943-1.128-1.943-2.207
			S237.995,449.529,239.33,449.529z M239.33,453.335c1.007,0,1.215-1.04,1.215-1.6s-0.208-1.599-1.215-1.599
			s-1.215,1.039-1.215,1.599S238.323,453.335,239.33,453.335z"/>
		<path class="st3" d="M245.481,453.831h-0.704v-2.574c0-0.728-0.208-1.096-0.896-1.096c-0.4,0-1.104,0.256-1.104,1.392v2.278
			h-0.704v-4.182h0.664v0.592h0.016c0.152-0.224,0.544-0.712,1.264-0.712c0.647,0,1.463,0.265,1.463,1.455V453.831z"/>
		<path class="st3" d="M250.073,452.519c-0.024,0.2-0.216,0.792-0.744,1.144c-0.192,0.128-0.464,0.288-1.135,0.288
			c-1.175,0-1.871-0.888-1.871-2.095c0-1.295,0.624-2.327,2.007-2.327c1.208,0,1.799,0.96,1.799,2.439h-3.055
			c0,0.871,0.408,1.375,1.215,1.375c0.664,0,1.056-0.512,1.08-0.824H250.073z M249.401,451.408c-0.04-0.647-0.312-1.247-1.167-1.247
			c-0.648,0-1.16,0.6-1.16,1.247H249.401z"/>
	</g>
	<g class="st2">
		<path class="st3" d="M236.257,482.176h-4.238v-5.74h4.182v0.688h-3.406v1.759h3.142v0.688h-3.142v1.919h3.462V482.176z"/>
		<path class="st3" d="M237.987,482.176h-0.704v-4.182h0.664v0.695h0.016c0.28-0.487,0.647-0.815,1.175-0.815
			c0.088,0,0.128,0.009,0.184,0.024v0.728h-0.264c-0.656,0-1.071,0.512-1.071,1.119V482.176z"/>
		<path class="st3" d="M240.651,482.176h-0.704v-4.182h0.664v0.695h0.016c0.28-0.487,0.647-0.815,1.175-0.815
			c0.088,0,0.128,0.009,0.184,0.024v0.728h-0.264c-0.656,0-1.071,0.512-1.071,1.119V482.176z"/>
		<path class="st3" d="M244.219,477.875c1.335,0,1.943,1.128,1.943,2.207s-0.607,2.207-1.943,2.207
			c-1.335,0-1.943-1.128-1.943-2.207S242.884,477.875,244.219,477.875z M244.219,481.681c1.008,0,1.215-1.04,1.215-1.6
			s-0.208-1.599-1.215-1.599c-1.007,0-1.215,1.039-1.215,1.599S243.211,481.681,244.219,481.681z"/>
		<path class="st3" d="M247.764,482.176h-0.704v-4.182h0.664v0.695h0.016c0.28-0.487,0.647-0.815,1.175-0.815
			c0.088,0,0.128,0.009,0.184,0.024v0.728h-0.264c-0.656,0-1.071,0.512-1.071,1.119V482.176z"/>
	</g>
	<g class="st2">
		<path class="st3" d="M236.257,510.524h-4.238v-5.741h4.182v0.688h-3.406v1.76h3.142v0.688h-3.142v1.919h3.462V510.524z"/>
		<path class="st3" d="M237.987,510.524h-0.704v-4.182h0.664v0.695h0.016c0.28-0.487,0.647-0.815,1.175-0.815
			c0.088,0,0.128,0.008,0.184,0.023v0.729h-0.264c-0.656,0-1.071,0.512-1.071,1.119V510.524z"/>
		<path class="st3" d="M240.651,510.524h-0.704v-4.182h0.664v0.695h0.016c0.28-0.487,0.647-0.815,1.175-0.815
			c0.088,0,0.128,0.008,0.184,0.023v0.729h-0.264c-0.656,0-1.071,0.512-1.071,1.119V510.524z"/>
		<path class="st3" d="M244.219,506.222c1.335,0,1.943,1.127,1.943,2.207c0,1.079-0.607,2.206-1.943,2.206
			c-1.335,0-1.943-1.127-1.943-2.206C242.276,507.349,242.884,506.222,244.219,506.222z M244.219,510.028
			c1.008,0,1.215-1.039,1.215-1.599s-0.208-1.6-1.215-1.6c-1.007,0-1.215,1.04-1.215,1.6S243.211,510.028,244.219,510.028z"/>
		<path class="st3" d="M247.764,510.524h-0.704v-4.182h0.664v0.695h0.016c0.28-0.487,0.647-0.815,1.175-0.815
			c0.088,0,0.128,0.008,0.184,0.023v0.729h-0.264c-0.656,0-1.071,0.512-1.071,1.119V510.524z"/>
		<path class="st3" d="M250.611,510.524h-0.775v-5.741h0.775V510.524z"/>
		<path class="st3" d="M251.98,504.783h2.326c1.496,0,2.415,1.136,2.415,2.791c0,1.287-0.56,2.95-2.446,2.95h-2.295V504.783z
			 M252.755,509.86h1.503c1.008,0,1.663-0.791,1.663-2.238s-0.663-2.175-1.719-2.175h-1.447V509.86z"/>
	</g>
	<g class="st2">
		<path class="st3" d="M300.483,510.675c-1.614,0-1.927-1.72-1.927-2.887s0.312-2.887,1.927-2.887c1.615,0,1.928,1.72,1.928,2.887
			S302.098,510.675,300.483,510.675z M300.483,505.534c-0.808,0-1.175,0.848-1.175,2.255s0.367,2.255,1.175,2.255
			s1.176-0.848,1.176-2.255S301.291,505.534,300.483,505.534z"/>
	</g>
	<g class="st2">
		<path class="st4" d="M283.157,362.93c-0.68,1.279-1.088,2.047-1.088,3.966c0,1.319,0.456,2.295,1.096,3.551h-0.472
			c-0.832-1.248-1.375-2.247-1.375-3.742c0-1.407,0.487-2.543,1.351-3.774H283.157z"/>
		<path class="st4" d="M286.308,368.792h-0.752v-3.99h-1.311v-0.56c0.911-0.063,1.287-0.152,1.511-1.071h0.552V368.792z"/>
		<path class="st4" d="M288.166,370.447c0.68-1.279,1.088-2.047,1.088-3.966c0-1.319-0.456-2.295-1.096-3.551h0.472
			c0.832,1.248,1.375,2.247,1.375,3.742c0,1.407-0.487,2.543-1.351,3.774H288.166z"/>
	</g>
	<g class="st2">
		<path class="st4" d="M346.149,362.93c-0.68,1.279-1.088,2.047-1.088,3.966c0,1.319,0.456,2.295,1.096,3.551h-0.472
			c-0.832-1.248-1.375-2.247-1.375-3.742c0-1.407,0.487-2.543,1.351-3.774H346.149z"/>
		<path class="st4" d="M346.782,365.185c0-1.831,1.335-2.015,1.943-2.015c0.975,0,1.759,0.632,1.759,1.679
			c0,1.008-0.664,1.432-1.503,1.879l-0.584,0.32c-0.768,0.424-0.936,0.863-0.968,1.079h3.055v0.664h-3.846
			c0.04-1.168,0.567-1.791,1.319-2.231l0.743-0.432c0.6-0.344,1.031-0.575,1.031-1.311c0-0.448-0.288-1.016-1.111-1.016
			c-1.063,0-1.111,0.991-1.135,1.383H346.782z"/>
		<path class="st4" d="M351.158,370.447c0.68-1.279,1.088-2.047,1.088-3.966c0-1.319-0.456-2.295-1.096-3.551h0.472
			c0.832,1.248,1.375,2.247,1.375,3.742c0,1.407-0.487,2.543-1.351,3.774H351.158z"/>
	</g>
	<g class="st2">
		<path class="st4" d="M377.645,362.93c-0.68,1.279-1.088,2.047-1.088,3.966c0,1.319,0.456,2.295,1.096,3.551h-0.472
			c-0.832-1.248-1.375-2.247-1.375-3.742c0-1.407,0.487-2.543,1.351-3.774H377.645z"/>
		<path class="st4" d="M379.717,365.593c0.12,0.008,0.248,0.016,0.367,0.016c0.544,0,1.072-0.216,1.072-0.919
			c0-0.336-0.2-0.888-1.04-0.888c-0.999,0-1.063,0.815-1.096,1.207h-0.688c0-0.823,0.336-1.839,1.815-1.839
			c1.087,0,1.735,0.624,1.735,1.479c0,0.719-0.416,1.063-0.72,1.159v0.016c0.543,0.176,0.936,0.56,0.936,1.312
			c0,0.919-0.592,1.807-2.023,1.807c-0.416,0-0.768-0.104-1.039-0.248c-0.624-0.327-0.792-0.975-0.84-1.623h0.728
			c0.024,0.528,0.152,1.239,1.199,1.239c0.72,0,1.224-0.439,1.224-1.087c0-0.943-0.831-1.031-1.312-1.031
			c-0.104,0-0.216,0.008-0.319,0.008V365.593z"/>
		<path class="st4" d="M382.654,370.447c0.68-1.279,1.088-2.047,1.088-3.966c0-1.319-0.456-2.295-1.096-3.551h0.472
			c0.832,1.248,1.375,2.247,1.375,3.742c0,1.407-0.487,2.543-1.351,3.774H382.654z"/>
	</g>
	<g class="st2">
		<path class="st4" d="M484.734,362.93c-0.68,1.279-1.088,2.047-1.088,3.966c0,1.319,0.456,2.295,1.096,3.551h-0.472
			c-0.832-1.248-1.375-2.247-1.375-3.742c0-1.407,0.487-2.543,1.351-3.774H484.734z"/>
		<path class="st4" d="M488.374,367.424v1.367h-0.704v-1.367h-2.454v-0.688l2.574-3.566h0.584v3.646h0.823v0.608H488.374z
			 M485.863,366.816h1.807v-2.55h-0.016L485.863,366.816z"/>
		<path class="st4" d="M489.744,370.447c0.679-1.279,1.087-2.047,1.087-3.966c0-1.319-0.456-2.295-1.096-3.551h0.472
			c0.832,1.248,1.376,2.247,1.376,3.742c0,1.407-0.488,2.543-1.352,3.774H489.744z"/>
	</g>
	<g class="st2">
		<path class="st4" d="M535.128,362.93c-0.68,1.279-1.088,2.047-1.088,3.966c0,1.319,0.456,2.295,1.096,3.551h-0.472
			c-0.832-1.248-1.375-2.247-1.375-3.742c0-1.407,0.487-2.543,1.351-3.774H535.128z"/>
		<path class="st4" d="M536.585,365.521c0.239-0.184,0.583-0.352,1.087-0.352c0.911,0,1.847,0.64,1.847,1.799
			c0,0.624-0.279,1.975-2.038,1.975c-0.736,0-1.68-0.296-1.815-1.551h0.728c0.072,0.655,0.56,0.943,1.191,0.943
			c0.728,0,1.184-0.584,1.184-1.287c0-0.808-0.552-1.247-1.248-1.247c-0.407,0-0.775,0.191-1.039,0.535l-0.607-0.032l0.424-3.014
			h2.91v0.688h-2.383L536.585,365.521z"/>
		<path class="st4" d="M540.138,370.447c0.679-1.279,1.087-2.047,1.087-3.966c0-1.319-0.456-2.295-1.096-3.551h0.472
			c0.832,1.248,1.376,2.247,1.376,3.742c0,1.407-0.488,2.543-1.352,3.774H540.138z"/>
	</g>
	<g class="st2">
		<path class="st4" d="M547.725,362.93c-0.68,1.279-1.088,2.047-1.088,3.966c0,1.319,0.456,2.295,1.096,3.551h-0.472
			c-0.831-1.248-1.375-2.247-1.375-3.742c0-1.407,0.487-2.543,1.351-3.774H547.725z"/>
		<path class="st4" d="M551.34,364.666c-0.088-0.496-0.359-0.863-0.967-0.863c-1.104,0-1.336,1.487-1.336,2.078l0.017,0.017
			c0.176-0.304,0.567-0.688,1.335-0.688c0.688,0,1.759,0.439,1.759,1.783c0,0.575-0.151,0.991-0.535,1.407
			c-0.296,0.327-0.632,0.543-1.424,0.543c-0.432,0-1.047-0.191-1.447-0.815c-0.336-0.527-0.432-1.215-0.432-1.951
			c0-1.23,0.399-3.006,2.079-3.006c0.647,0,1.567,0.352,1.639,1.495H551.34z M550.317,368.311c0.672,0,1.104-0.527,1.104-1.287
			c0-0.495-0.264-1.183-1.136-1.183c-0.775,0-1.151,0.56-1.151,1.223C549.133,367.664,549.494,368.311,550.317,368.311z"/>
		<path class="st4" d="M552.735,370.447c0.68-1.279,1.087-2.047,1.087-3.966c0-1.319-0.456-2.295-1.096-3.551h0.472
			c0.832,1.248,1.376,2.247,1.376,3.742c0,1.407-0.488,2.543-1.352,3.774H552.735z"/>
	</g>
	<g>
		<path d="M131.31,170.302h-4.238v-5.741h4.182v0.688h-3.406v1.759h3.142v0.688h-3.142v1.919h3.462V170.302z"/>
		<path d="M135.638,170.302h-0.896l-1.04-1.575l-1.007,1.575h-0.888l1.471-2.151l-1.399-2.031h0.904l0.967,1.471l0.968-1.471h0.863
			l-1.415,2.031L135.638,170.302z"/>
		<path d="M139.79,168.99c-0.024,0.2-0.216,0.792-0.744,1.144c-0.192,0.128-0.464,0.288-1.135,0.288
			c-1.175,0-1.871-0.888-1.871-2.095c0-1.295,0.624-2.327,2.007-2.327c1.208,0,1.799,0.959,1.799,2.439h-3.054
			c0,0.872,0.408,1.375,1.215,1.375c0.664,0,1.056-0.512,1.08-0.824H139.79z M139.118,167.879c-0.04-0.647-0.312-1.247-1.167-1.247
			c-0.648,0-1.16,0.6-1.16,1.247H139.118z"/>
		<path d="M143.302,167.527c-0.088-0.56-0.4-0.896-0.992-0.896c-0.871,0-1.151,0.832-1.151,1.575c0,0.72,0.176,1.607,1.144,1.607
			c0.472,0,0.879-0.352,1-0.991h0.68c-0.072,0.664-0.48,1.599-1.703,1.599c-1.175,0-1.871-0.888-1.871-2.095
			c0-1.295,0.624-2.327,2.007-2.327c1.096,0,1.511,0.8,1.567,1.527H143.302z"/>
		<path d="M147.414,170.302v-0.607l-0.016-0.016c-0.296,0.488-0.656,0.744-1.328,0.744c-0.616,0-1.359-0.296-1.359-1.295v-3.006
			h0.703v2.774c0,0.688,0.352,0.919,0.808,0.919c0.888,0,1.151-0.784,1.151-1.391v-2.303h0.704v4.182H147.414z"/>
		<path d="M150,166.704v2.719c0,0.328,0.28,0.328,0.424,0.328h0.248v0.552c-0.256,0.024-0.456,0.056-0.527,0.056
			c-0.696,0-0.848-0.392-0.848-0.896v-2.759h-0.568v-0.583h0.568v-1.167H150v1.167h0.671v0.583H150z"/>
		<path d="M154.91,168.99c-0.024,0.2-0.216,0.792-0.744,1.144c-0.192,0.128-0.464,0.288-1.135,0.288
			c-1.175,0-1.871-0.888-1.871-2.095c0-1.295,0.624-2.327,2.007-2.327c1.208,0,1.799,0.959,1.799,2.439h-3.054
			c0,0.872,0.408,1.375,1.215,1.375c0.664,0,1.056-0.512,1.08-0.824H154.91z M154.238,167.879c-0.04-0.647-0.312-1.247-1.167-1.247
			c-0.648,0-1.16,0.6-1.16,1.247H154.238z"/>
	</g>
	<g>
		<path d="M128.296,113.672h-0.776v-5.741h2.583c1.063,0,1.703,0.688,1.703,1.615c0,0.8-0.456,1.703-1.703,1.703h-1.807V113.672z
			 M128.296,110.586h1.543c0.696,0,1.167-0.256,1.167-1.031c0-0.728-0.496-0.959-1.135-0.959h-1.575V110.586z"/>
		<path d="M134.391,109.371c1.335,0,1.943,1.127,1.943,2.207c0,1.079-0.607,2.207-1.943,2.207c-1.335,0-1.943-1.127-1.943-2.207
			C132.448,110.498,133.056,109.371,134.391,109.371z M134.391,113.177c1.007,0,1.215-1.04,1.215-1.599s-0.208-1.599-1.215-1.599
			s-1.215,1.04-1.215,1.599S133.384,113.177,134.391,113.177z"/>
		<path d="M139.511,110.682c-0.008-0.264-0.104-0.704-0.992-0.704c-0.216,0-0.832,0.072-0.832,0.591c0,0.344,0.216,0.424,0.76,0.56
			l0.704,0.176c0.872,0.216,1.175,0.536,1.175,1.104c0,0.863-0.711,1.383-1.655,1.383c-1.655,0-1.775-0.959-1.799-1.463h0.68
			c0.024,0.328,0.12,0.855,1.111,0.855c0.504,0,0.959-0.2,0.959-0.664c0-0.336-0.232-0.448-0.832-0.6l-0.815-0.2
			c-0.584-0.144-0.968-0.439-0.968-1.015c0-0.919,0.76-1.335,1.583-1.335c1.495,0,1.599,1.104,1.599,1.312H139.511z"/>
		<path d="M141.152,108.731v-0.799h0.704v0.799H141.152z M141.855,113.672h-0.704v-4.182h0.704V113.672z"/>
		<path d="M143.775,110.074v2.719c0,0.328,0.28,0.328,0.424,0.328h0.248v0.552c-0.256,0.024-0.456,0.056-0.527,0.056
			c-0.696,0-0.848-0.392-0.848-0.896v-2.759h-0.568v-0.583h0.568v-1.167h0.704v1.167h0.671v0.583H143.775z"/>
		<path d="M145.152,108.731v-0.799h0.704v0.799H145.152z M145.855,113.672h-0.704v-4.182h0.704V113.672z"/>
		<path d="M148.615,109.371c1.335,0,1.943,1.127,1.943,2.207c0,1.079-0.607,2.207-1.943,2.207c-1.335,0-1.943-1.127-1.943-2.207
			C146.672,110.498,147.28,109.371,148.615,109.371z M148.615,113.177c1.007,0,1.215-1.04,1.215-1.599s-0.208-1.599-1.215-1.599
			s-1.215,1.04-1.215,1.599S147.607,113.177,148.615,113.177z"/>
		<path d="M154.766,113.672h-0.704v-2.575c0-0.728-0.208-1.095-0.896-1.095c-0.4,0-1.104,0.256-1.104,1.391v2.279h-0.704v-4.182
			h0.664v0.592h0.016c0.152-0.224,0.544-0.712,1.264-0.712c0.647,0,1.463,0.264,1.463,1.455V113.672z"/>
	</g>
	<g>
		<path d="M131.31,373.762h-4.238v-5.74h4.182v0.688h-3.406v1.759h3.142v0.688h-3.142v1.919h3.462V373.762z"/>
		<path d="M135.638,373.762h-0.896l-1.04-1.575l-1.007,1.575h-0.888l1.471-2.15l-1.399-2.031h0.904l0.967,1.472l0.968-1.472h0.863
			l-1.415,2.031L135.638,373.762z"/>
		<path d="M139.79,372.451c-0.024,0.2-0.216,0.792-0.744,1.144c-0.192,0.128-0.464,0.288-1.135,0.288
			c-1.175,0-1.871-0.888-1.871-2.095c0-1.295,0.624-2.327,2.007-2.327c1.208,0,1.799,0.96,1.799,2.439h-3.054
			c0,0.871,0.408,1.375,1.215,1.375c0.664,0,1.056-0.512,1.08-0.824H139.79z M139.118,371.339c-0.04-0.647-0.312-1.247-1.167-1.247
			c-0.648,0-1.16,0.6-1.16,1.247H139.118z"/>
		<path d="M143.302,370.988c-0.088-0.56-0.4-0.896-0.992-0.896c-0.871,0-1.151,0.832-1.151,1.575c0,0.72,0.176,1.607,1.144,1.607
			c0.472,0,0.879-0.352,1-0.991h0.68c-0.072,0.663-0.48,1.599-1.703,1.599c-1.175,0-1.871-0.888-1.871-2.095
			c0-1.295,0.624-2.327,2.007-2.327c1.096,0,1.511,0.8,1.567,1.527H143.302z"/>
		<path d="M147.414,373.762v-0.607l-0.016-0.016c-0.296,0.487-0.656,0.743-1.328,0.743c-0.616,0-1.359-0.296-1.359-1.295v-3.007
			h0.703v2.774c0,0.688,0.352,0.92,0.808,0.92c0.888,0,1.151-0.784,1.151-1.392v-2.303h0.704v4.182H147.414z"/>
		<path d="M150,370.165v2.719c0,0.327,0.28,0.327,0.424,0.327h0.248v0.552c-0.256,0.024-0.456,0.057-0.527,0.057
			c-0.696,0-0.848-0.393-0.848-0.896v-2.759h-0.568v-0.584h0.568v-1.167H150v1.167h0.671v0.584H150z"/>
		<path d="M154.91,372.451c-0.024,0.2-0.216,0.792-0.744,1.144c-0.192,0.128-0.464,0.288-1.135,0.288
			c-1.175,0-1.871-0.888-1.871-2.095c0-1.295,0.624-2.327,2.007-2.327c1.208,0,1.799,0.96,1.799,2.439h-3.054
			c0,0.871,0.408,1.375,1.215,1.375c0.664,0,1.056-0.512,1.08-0.824H154.91z M154.238,371.339c-0.04-0.647-0.312-1.247-1.167-1.247
			c-0.648,0-1.16,0.6-1.16,1.247H154.238z"/>
	</g>
	<g>
		<path d="M95.014,301.217c-0.216-1.008-1.055-1.191-1.607-1.191c-1.04,0-1.879,0.768-1.879,2.278c0,1.352,0.48,2.391,1.903,2.391
			c0.504,0,1.375-0.239,1.639-1.575h0.751c-0.32,2.167-2.079,2.263-2.51,2.263c-1.303,0-2.583-0.848-2.583-3.054
			c0-1.768,1.007-2.99,2.678-2.99c1.479,0,2.247,0.919,2.359,1.879H95.014z"/>
		<path d="M98.375,300.929c1.335,0,1.943,1.127,1.943,2.207c0,1.079-0.607,2.206-1.943,2.206c-1.335,0-1.943-1.127-1.943-2.206
			C96.432,302.056,97.04,300.929,98.375,300.929z M98.375,304.735c1.008,0,1.215-1.039,1.215-1.599s-0.208-1.6-1.215-1.6
			c-1.007,0-1.215,1.04-1.215,1.6S97.368,304.735,98.375,304.735z"/>
		<path d="M101.12,301.049h0.664v0.592h0.016c0.152-0.225,0.512-0.712,1.264-0.712c0.751,0,0.991,0.456,1.111,0.68
			c0.352-0.392,0.631-0.68,1.279-0.68c0.448,0,1.295,0.231,1.295,1.407v2.895h-0.704v-2.703c0-0.575-0.176-0.967-0.775-0.967
			c-0.592,0-0.983,0.56-0.983,1.119v2.551h-0.704v-2.895c0-0.352-0.136-0.775-0.656-0.775c-0.4,0-1.104,0.256-1.104,1.391v2.279
			h-0.704V301.049z"/>
		<path d="M107.784,301.049h0.664v0.592h0.016c0.152-0.225,0.512-0.712,1.264-0.712c0.751,0,0.991,0.456,1.111,0.68
			c0.352-0.392,0.631-0.68,1.279-0.68c0.448,0,1.295,0.231,1.295,1.407v2.895h-0.704v-2.703c0-0.575-0.176-0.967-0.775-0.967
			c-0.592,0-0.983,0.56-0.983,1.119v2.551h-0.704v-2.895c0-0.352-0.136-0.775-0.656-0.775c-0.4,0-1.104,0.256-1.104,1.391v2.279
			h-0.704V301.049z"/>
		<path d="M114.424,302.321c0.032-1,0.696-1.392,1.727-1.392c0.336,0,1.551,0.096,1.551,1.167v2.407
			c0,0.176,0.088,0.248,0.232,0.248c0.064,0,0.152-0.017,0.232-0.032v0.512c-0.12,0.032-0.224,0.08-0.384,0.08
			c-0.624,0-0.72-0.32-0.744-0.64c-0.272,0.296-0.696,0.68-1.511,0.68c-0.768,0-1.311-0.488-1.311-1.208
			c0-0.352,0.104-1.167,1.271-1.311l1.16-0.145c0.167-0.016,0.368-0.08,0.368-0.495c0-0.44-0.32-0.68-0.983-0.68
			c-0.8,0-0.912,0.487-0.959,0.808H114.424z M116.999,303.096c-0.112,0.088-0.288,0.151-1.159,0.264
			c-0.344,0.048-0.896,0.151-0.896,0.68c0,0.456,0.231,0.728,0.759,0.728c0.656,0,1.295-0.424,1.295-0.983V303.096z"/>
		<path d="M122.303,305.231h-0.704v-2.575c0-0.728-0.208-1.095-0.896-1.095c-0.4,0-1.104,0.256-1.104,1.391v2.279h-0.704v-4.182
			h0.664v0.592h0.016c0.152-0.225,0.544-0.712,1.264-0.712c0.647,0,1.463,0.264,1.463,1.455V305.231z"/>
		<path d="M126.815,305.231h-0.664v-0.576h-0.016c-0.304,0.568-0.784,0.696-1.191,0.696c-1.423,0-1.839-1.336-1.839-2.335
			c0-1.176,0.632-2.087,1.743-2.087c0.759,0,1.08,0.472,1.247,0.712l0.016-0.057v-2.095h0.704V305.231z M124.96,304.743
			c0.448,0,1.144-0.296,1.144-1.407c0-0.68-0.112-1.774-1.127-1.774c-1.087,0-1.144,1.031-1.144,1.566
			C123.833,304.047,124.192,304.743,124.96,304.743z"/>
		<path d="M128.785,303.56l-0.6,1.671h-0.8l2.159-5.741h0.88l2.079,5.741h-0.847l-0.568-1.671H128.785z M130.808,302.872
			l-0.848-2.526h-0.016l-0.919,2.526H130.808z"/>
		<path d="M133.073,305.231v-5.741h0.704v2.087h0.016c0.304-0.439,0.719-0.64,1.207-0.647c1.111,0,1.743,0.911,1.743,2.087
			c0,0.999-0.416,2.335-1.839,2.335c-0.712,0-1.008-0.408-1.151-0.64h-0.016v0.52H133.073z M134.872,301.561
			c-1.016,0-1.127,1.095-1.127,1.774c0,1.111,0.696,1.407,1.144,1.407c0.768,0,1.127-0.695,1.127-1.615
			C136.016,302.592,135.959,301.561,134.872,301.561z"/>
		<path d="M139.28,300.929c1.335,0,1.943,1.127,1.943,2.207c0,1.079-0.607,2.206-1.943,2.206c-1.335,0-1.943-1.127-1.943-2.206
			C137.337,302.056,137.945,300.929,139.28,300.929z M139.28,304.735c1.008,0,1.215-1.039,1.215-1.599s-0.208-1.6-1.215-1.6
			c-1.007,0-1.215,1.04-1.215,1.6S138.273,304.735,139.28,304.735z"/>
		<path d="M142.825,305.231h-0.704v-4.182h0.664v0.695h0.016c0.28-0.487,0.647-0.815,1.175-0.815c0.088,0,0.128,0.008,0.184,0.023
			v0.729h-0.264c-0.656,0-1.071,0.512-1.071,1.119V305.231z"/>
		<path d="M145.553,301.632v2.719c0,0.328,0.28,0.328,0.424,0.328h0.248v0.552c-0.256,0.023-0.456,0.056-0.527,0.056
			c-0.696,0-0.848-0.392-0.848-0.896v-2.759h-0.568v-0.583h0.568v-1.168h0.704v1.168h0.671v0.583H145.553z"/>
		<path d="M150.464,303.919c-0.024,0.2-0.216,0.792-0.744,1.144c-0.192,0.128-0.464,0.288-1.135,0.288
			c-1.175,0-1.871-0.888-1.871-2.096c0-1.295,0.624-2.326,2.007-2.326c1.208,0,1.799,0.959,1.799,2.438h-3.054
			c0,0.872,0.408,1.375,1.215,1.375c0.664,0,1.056-0.512,1.08-0.823H150.464z M149.792,302.808c-0.04-0.647-0.312-1.247-1.167-1.247
			c-0.648,0-1.16,0.6-1.16,1.247H149.792z"/>
		<path d="M154.832,305.231h-0.664v-0.576h-0.016c-0.304,0.568-0.784,0.696-1.191,0.696c-1.423,0-1.839-1.336-1.839-2.335
			c0-1.176,0.632-2.087,1.743-2.087c0.759,0,1.08,0.472,1.247,0.712l0.016-0.057v-2.095h0.704V305.231z M152.977,304.743
			c0.448,0,1.144-0.296,1.144-1.407c0-0.68-0.112-1.774-1.127-1.774c-1.087,0-1.144,1.031-1.144,1.566
			C151.849,304.047,152.209,304.743,152.977,304.743z"/>
	</g>
	<g>
		<path d="M114.391,339.25h-1.261v-5.401h-0.018l-1.207,5.401h-1.323l-1.18-5.401h-0.018v5.401h-1.26v-6.464h1.972l1.17,5.096h0.018
			l1.152-5.096h1.954V339.25z"/>
		<path d="M119.809,334.901c-0.108-0.387-0.315-1.116-1.432-1.116c-0.648,0-1.603,0.432-1.603,2.26c0,1.161,0.459,2.205,1.603,2.205
			c0.747,0,1.27-0.423,1.432-1.215h1.35c-0.27,1.404-1.188,2.386-2.809,2.386c-1.72,0-2.953-1.161-2.953-3.395
			c0-2.259,1.306-3.411,2.971-3.411c1.936,0,2.719,1.332,2.791,2.286H119.809z"/>
		<path d="M126.504,339.924v0.45h-5.005v-0.45H126.504z"/>
		<path d="M128.15,337.259c0.009,0.36,0.189,1.045,1.369,1.045c0.639,0,1.35-0.153,1.35-0.838c0-0.504-0.486-0.639-1.17-0.801
			l-0.693-0.162c-1.044-0.243-2.053-0.478-2.053-1.899c0-0.721,0.387-1.989,2.485-1.989c1.98,0,2.512,1.296,2.521,2.088h-1.296
			c-0.036-0.288-0.144-0.972-1.323-0.972c-0.513,0-1.125,0.188-1.125,0.773c0,0.505,0.414,0.612,0.684,0.676l1.576,0.387
			c0.882,0.217,1.692,0.576,1.692,1.738c0,1.944-1.98,2.115-2.548,2.115c-2.358,0-2.764-1.359-2.764-2.161H128.15z"/>
		<path d="M134.504,334.459h0.783v0.9h-0.783v2.602c0,0.279,0.009,0.388,0.522,0.388c0.081,0,0.171-0.009,0.261-0.019v0.955
			c-0.198,0.009-0.396,0.018-0.594,0.018h-0.162c-1.089,0-1.287-0.414-1.287-1.035v-2.908h-0.648v-0.9h0.648v-1.296h1.26V334.459z"
			/>
		<path d="M138.258,339.375c-1.288,0-2.449-0.792-2.449-2.521s1.161-2.521,2.449-2.521c1.287,0,2.449,0.793,2.449,2.521
			S139.545,339.375,138.258,339.375z M138.258,335.396c-0.972,0-1.152,0.847-1.152,1.459c0,0.611,0.18,1.458,1.152,1.458
			s1.152-0.847,1.152-1.458C139.41,336.243,139.23,335.396,138.258,335.396z"/>
		<path d="M142.767,335.153h0.018c0.234-0.378,0.585-0.819,1.431-0.819c1.053,0,1.99,0.811,1.99,2.467
			c0,1.314-0.594,2.575-2.017,2.575c-0.882,0-1.197-0.478-1.351-0.738h-0.018v2.476h-1.26v-6.653h1.207V335.153z M143.874,338.34
			c0.81,0,1.035-0.883,1.035-1.45c0-0.756-0.27-1.467-1.071-1.467c-0.864,0-1.071,0.774-1.071,1.539
			C142.767,337.673,143.073,338.34,143.874,338.34z"/>
	</g>
	<g>
		<path d="M6.887,79.969H5.626v-5.401H5.609l-1.207,5.401H3.079l-1.18-5.401H1.881v5.401h-1.26v-6.464h1.972l1.17,5.096h0.018
			l1.152-5.096h1.954V79.969z"/>
		<path d="M12.305,75.621c-0.108-0.387-0.315-1.117-1.432-1.117c-0.648,0-1.603,0.432-1.603,2.26c0,1.162,0.459,2.206,1.603,2.206
			c0.747,0,1.27-0.423,1.432-1.215h1.35c-0.27,1.405-1.188,2.386-2.809,2.386c-1.72,0-2.953-1.161-2.953-3.394
			c0-2.259,1.306-3.412,2.971-3.412c1.936,0,2.719,1.332,2.791,2.287H12.305z"/>
		<path d="M19,80.644v0.45h-5.005v-0.45H19z"/>
		<path d="M20.602,79.969h-1.422l2.305-6.464h1.557l2.278,6.464h-1.467l-0.414-1.333h-2.386L20.602,79.969z M21.412,77.52h1.647
			l-0.801-2.557H22.24L21.412,77.52z"/>
		<path d="M27.307,75.8h0.018c0.198-0.306,0.576-0.747,1.386-0.747c1.053,0,1.99,0.81,1.99,2.467c0,1.314-0.594,2.575-2.017,2.575
			c-0.522,0-1.081-0.189-1.387-0.729H27.28v0.603h-1.233v-6.464h1.26V75.8z M28.333,76.143c-0.864,0-1.081,0.774-1.081,1.54
			c0,0.711,0.315,1.377,1.117,1.377c0.81,0,1.035-0.882,1.035-1.45C29.404,76.854,29.134,76.143,28.333,76.143z"/>
		<path d="M34.291,76.638c-0.054-0.306-0.162-0.63-0.846-0.63s-0.774,0.261-0.774,0.468c0,0.756,2.998,0.207,2.998,1.972
			c0,1.396-1.351,1.647-2.098,1.647c-1.089,0-2.269-0.378-2.305-1.656h1.296c0,0.405,0.252,0.702,1.044,0.702
			c0.648,0,0.801-0.315,0.801-0.495c0-0.801-2.971-0.198-2.971-1.99c0-0.702,0.441-1.603,1.936-1.603
			c0.937,0,2.053,0.234,2.152,1.584H34.291z"/>
		<path d="M38.755,80.095c-1.288,0-2.449-0.792-2.449-2.521s1.161-2.521,2.449-2.521c1.287,0,2.449,0.792,2.449,2.521
			S40.042,80.095,38.755,80.095z M38.755,76.116c-0.972,0-1.152,0.846-1.152,1.458c0,0.612,0.18,1.458,1.152,1.458
			s1.152-0.846,1.152-1.458C39.907,76.962,39.727,76.116,38.755,76.116z"/>
		<path d="M43.38,79.969h-1.26v-6.464h1.26V79.969z"/>
		<path d="M48.907,79.969h-1.206v-0.675h-0.018c-0.288,0.513-0.792,0.801-1.458,0.801c-0.945,0-1.629-0.54-1.629-1.765v-3.151h1.26
			v2.971c0,0.738,0.432,0.882,0.819,0.882c0.414,0,0.972-0.234,0.972-1.089v-2.764h1.26V79.969z"/>
		<path d="M51.499,75.179h0.783v0.9h-0.783v2.602c0,0.279,0.009,0.387,0.522,0.387c0.081,0,0.171-0.009,0.261-0.018v0.955
			c-0.198,0.009-0.396,0.018-0.594,0.018h-0.162c-1.089,0-1.287-0.415-1.287-1.036V76.08H49.59v-0.9h0.648v-1.296h1.26V75.179z"/>
		<path d="M57.196,78.564c-0.333,1.152-1.287,1.53-2.106,1.53c-1.351,0-2.386-0.648-2.386-2.62c0-0.576,0.198-2.422,2.296-2.422
			c0.945,0,2.25,0.45,2.25,2.638v0.225h-3.286c0.036,0.36,0.108,1.17,1.125,1.17c0.351,0,0.711-0.18,0.81-0.522H57.196z
			 M55.954,77.097c-0.072-0.774-0.567-1.008-0.972-1.008c-0.594,0-0.909,0.378-0.981,1.008H55.954z"/>
		<path d="M59.536,79.969h-1.351v-6.464h2.953c1.251,0,2.007,0.801,2.007,2.07c0,0.585-0.324,2.062-2.062,2.062h-1.548V79.969z
			 M60.787,76.521c1.008,0,1.008-0.72,1.008-1.008c0-0.63-0.351-0.891-1.188-0.891h-1.071v1.899H60.787z"/>
		<path d="M66.259,80.095c-1.288,0-2.449-0.792-2.449-2.521s1.161-2.521,2.449-2.521c1.287,0,2.449,0.792,2.449,2.521
			S67.546,80.095,66.259,80.095z M66.259,76.116c-0.972,0-1.152,0.846-1.152,1.458c0,0.612,0.18,1.458,1.152,1.458
			s1.152-0.846,1.152-1.458C67.411,76.962,67.231,76.116,66.259,76.116z"/>
		<path d="M72.298,76.638c-0.054-0.306-0.162-0.63-0.846-0.63s-0.774,0.261-0.774,0.468c0,0.756,2.998,0.207,2.998,1.972
			c0,1.396-1.351,1.647-2.098,1.647c-1.089,0-2.269-0.378-2.305-1.656h1.296c0,0.405,0.252,0.702,1.044,0.702
			c0.648,0,0.801-0.315,0.801-0.495c0-0.801-2.971-0.198-2.971-1.99c0-0.702,0.441-1.603,1.936-1.603
			c0.937,0,2.053,0.234,2.152,1.584H72.298z"/>
		<path d="M76.042,79.969h-1.351v-6.464h4.601v1.143h-3.25v1.458h2.845v1.144h-2.845V79.969z"/>
		<path d="M82.261,80.095c-1.288,0-2.449-0.792-2.449-2.521s1.161-2.521,2.449-2.521c1.287,0,2.449,0.792,2.449,2.521
			S83.548,80.095,82.261,80.095z M82.261,76.116c-0.972,0-1.152,0.846-1.152,1.458c0,0.612,0.18,1.458,1.152,1.458
			s1.152-0.846,1.152-1.458C83.413,76.962,83.233,76.116,82.261,76.116z"/>
		<path d="M86.886,79.969h-1.26v-6.464h1.26V79.969z"/>
		<path d="M89.388,79.969h-1.26v-6.464h1.26V79.969z"/>
		<path d="M92.764,80.095c-1.288,0-2.449-0.792-2.449-2.521s1.161-2.521,2.449-2.521c1.287,0,2.449,0.792,2.449,2.521
			S94.051,80.095,92.764,80.095z M92.764,76.116c-0.972,0-1.152,0.846-1.152,1.458c0,0.612,0.18,1.458,1.152,1.458
			s1.152-0.846,1.152-1.458C93.916,76.962,93.736,76.116,92.764,76.116z"/>
		<path d="M101.053,79.969h-1.296l-0.748-3.493h-0.018l-0.747,3.493h-1.296l-1.351-4.79h1.342l0.747,3.439h0.018l0.675-3.439h1.269
			l0.72,3.439h0.018l0.747-3.439h1.296L101.053,79.969z"/>
		<path d="M108.371,77.709c0,1.702-1.026,2.431-2.656,2.431c-0.594,0-1.477-0.144-2.053-0.783c-0.351-0.396-0.486-0.918-0.504-1.566
			v-4.285h1.377V77.7c0,0.9,0.522,1.296,1.152,1.296c0.927,0,1.306-0.45,1.306-1.233v-4.258h1.377V77.709z"/>
		<path d="M110.772,75.873h0.018c0.234-0.378,0.585-0.819,1.431-0.819c1.053,0,1.99,0.81,1.99,2.467
			c0,1.314-0.594,2.575-2.017,2.575c-0.882,0-1.197-0.477-1.351-0.738h-0.018v2.476h-1.26v-6.653h1.207V75.873z M111.88,79.06
			c0.81,0,1.035-0.882,1.035-1.45c0-0.756-0.27-1.467-1.071-1.467c-0.864,0-1.071,0.774-1.071,1.54
			C110.772,78.393,111.079,79.06,111.88,79.06z"/>
		<path d="M119.314,75.621c-0.108-0.387-0.315-1.117-1.432-1.117c-0.648,0-1.603,0.432-1.603,2.26c0,1.162,0.459,2.206,1.603,2.206
			c0.747,0,1.27-0.423,1.432-1.215h1.35c-0.27,1.405-1.188,2.386-2.809,2.386c-1.72,0-2.953-1.161-2.953-3.394
			c0-2.259,1.306-3.412,2.971-3.412c1.936,0,2.719,1.332,2.791,2.287H119.314z"/>
		<path d="M123.76,80.095c-1.288,0-2.449-0.792-2.449-2.521s1.161-2.521,2.449-2.521c1.287,0,2.449,0.792,2.449,2.521
			S125.047,80.095,123.76,80.095z M123.76,76.116c-0.972,0-1.152,0.846-1.152,1.458c0,0.612,0.18,1.458,1.152,1.458
			s1.152-0.846,1.152-1.458C124.912,76.962,124.732,76.116,123.76,76.116z"/>
		<path d="M131.419,79.969h-1.26v-2.908c0-0.351-0.018-0.945-0.819-0.945c-0.558,0-0.99,0.378-0.99,1.107v2.746h-1.261v-4.79h1.207
			v0.702h0.018c0.171-0.288,0.531-0.828,1.44-0.828c0.936,0,1.666,0.549,1.666,1.603V79.969z"/>
		<path d="M134.001,75.179h0.783v0.9h-0.783v2.602c0,0.279,0.009,0.387,0.522,0.387c0.081,0,0.171-0.009,0.261-0.018v0.955
			c-0.198,0.009-0.396,0.018-0.594,0.018h-0.162c-1.089,0-1.287-0.415-1.287-1.036V76.08h-0.648v-0.9h0.648v-1.296h1.26V75.179z"/>
		<path d="M135.576,75.179h1.207v0.829h0.018c0.261-0.486,0.549-0.955,1.314-0.955c0.081,0,0.162,0.009,0.243,0.018v1.278
			c-0.108-0.018-0.243-0.018-0.36-0.018c-0.981,0-1.162,0.612-1.162,1.144v2.494h-1.26V75.179z"/>
		<path d="M141.256,80.095c-1.288,0-2.449-0.792-2.449-2.521s1.161-2.521,2.449-2.521c1.287,0,2.449,0.792,2.449,2.521
			S142.543,80.095,141.256,80.095z M141.256,76.116c-0.972,0-1.152,0.846-1.152,1.458c0,0.612,0.18,1.458,1.152,1.458
			s1.152-0.846,1.152-1.458C142.408,76.962,142.228,76.116,141.256,76.116z"/>
		<path d="M145.881,79.969h-1.26v-6.464h1.26V79.969z"/>
	</g>
	<g>
		<path d="M80.218,36.894h1.405l-2.197,6.464h-1.288l-2.179-6.464h1.45l1.386,4.897h0.018L80.218,36.894z"/>
		<path d="M86.491,41.953c-0.333,1.152-1.287,1.53-2.106,1.53c-1.351,0-2.386-0.648-2.386-2.62c0-0.576,0.198-2.422,2.296-2.422
			c0.945,0,2.25,0.45,2.25,2.638v0.225h-3.286c0.036,0.36,0.108,1.17,1.125,1.17c0.351,0,0.711-0.18,0.81-0.522H86.491z
			 M85.249,40.485c-0.072-0.774-0.567-1.008-0.972-1.008c-0.594,0-0.909,0.378-0.981,1.008H85.249z"/>
		<path d="M88.677,43.357h-1.26v-6.464h1.26V43.357z"/>
		<path d="M92.052,43.483c-1.288,0-2.449-0.792-2.449-2.521s1.161-2.521,2.449-2.521c1.287,0,2.449,0.792,2.449,2.521
			S93.339,43.483,92.052,43.483z M92.052,39.504c-0.972,0-1.152,0.846-1.152,1.458c0,0.612,0.18,1.458,1.152,1.458
			s1.152-0.846,1.152-1.458C93.205,40.351,93.024,39.504,92.052,39.504z"/>
		<path d="M99.505,41.611c-0.045,0.495-0.432,1.873-2.188,1.873c-1.8,0-2.214-1.377-2.214-2.386c0-1.548,0.675-2.656,2.295-2.656
			c0.756,0,1.999,0.342,2.116,1.836h-1.278c-0.054-0.306-0.234-0.774-0.774-0.774h-0.063c-0.792,0-0.999,0.792-0.999,1.386
			c0,0.522,0.018,1.558,0.972,1.558c0.639,0,0.855-0.612,0.855-0.837H99.505z"/>
		<path d="M101.682,38.001h-1.26v-1.17h1.26V38.001z M101.682,38.568v4.79h-1.26v-4.79H101.682z"/>
		<path d="M104.301,38.568h0.783v0.9h-0.783v2.602c0,0.279,0.009,0.387,0.522,0.387c0.081,0,0.171-0.009,0.261-0.018v0.955
			c-0.198,0.009-0.396,0.018-0.594,0.018h-0.162c-1.089,0-1.287-0.415-1.287-1.036v-2.908h-0.648v-0.9h0.648v-1.296h1.26V38.568z"/>
		<path d="M108.504,43.276c-0.594,1.773-0.756,2.008-1.854,2.008c-0.171,0-0.387-0.009-0.567-0.018v-1.008
			c0.054,0.009,0.135,0.018,0.243,0.018c0.459,0,0.711-0.063,0.828-0.72l-1.765-4.988h1.405l1.026,3.529h0.018l0.981-3.529h1.333
			L108.504,43.276z"/>
	</g>
	<g>
		<path d="M138.096,209.915h2.526c1.071,0,1.623,0.664,1.623,1.447c0,0.375-0.136,0.903-0.768,1.199
			c0.376,0.152,1.04,0.416,1.04,1.399c0,0.92-0.68,1.695-1.951,1.695h-2.471V209.915z M138.871,212.346h1.399
			c0.744,0,1.199-0.224,1.199-0.928c0-0.536-0.328-0.839-1.191-0.839h-1.407V212.346z M138.871,214.992h1.655
			c0.808,0,1.215-0.408,1.215-1.047c0-0.808-0.712-0.968-1.343-0.968h-1.527V214.992z"/>
		<path d="M146.086,215.656v-0.607l-0.016-0.016c-0.296,0.488-0.656,0.744-1.328,0.744c-0.616,0-1.359-0.296-1.359-1.295v-3.006
			h0.703v2.774c0,0.688,0.352,0.919,0.808,0.919c0.888,0,1.151-0.784,1.151-1.391v-2.303h0.704v4.182H146.086z"/>
		<path d="M150.183,212.666c-0.008-0.264-0.104-0.704-0.992-0.704c-0.216,0-0.832,0.072-0.832,0.591c0,0.344,0.216,0.424,0.76,0.56
			l0.704,0.176c0.872,0.216,1.175,0.536,1.175,1.104c0,0.863-0.711,1.383-1.655,1.383c-1.655,0-1.775-0.959-1.799-1.463h0.68
			c0.024,0.328,0.12,0.855,1.111,0.855c0.504,0,0.959-0.2,0.959-0.664c0-0.336-0.232-0.448-0.832-0.6l-0.815-0.2
			c-0.584-0.144-0.968-0.439-0.968-1.015c0-0.919,0.76-1.335,1.583-1.335c1.495,0,1.599,1.104,1.599,1.312H150.183z"/>
		<path d="M154.422,211.474h0.775c-0.488,1.367-0.967,2.734-1.503,4.102c-0.664,1.695-0.736,1.791-1.639,1.791
			c-0.104,0-0.184-0.032-0.296-0.064v-0.64c0.088,0.032,0.232,0.072,0.424,0.072c0.368,0,0.408-0.104,0.744-0.968l-1.551-4.293h0.8
			l1.111,3.406h0.016L154.422,211.474z"/>
	</g>
	<g>
		<path d="M138.096,412.971h2.526c1.071,0,1.623,0.664,1.623,1.447c0,0.376-0.136,0.903-0.768,1.199
			c0.376,0.152,1.04,0.416,1.04,1.399c0,0.92-0.68,1.695-1.951,1.695h-2.471V412.971z M138.871,415.402h1.399
			c0.744,0,1.199-0.224,1.199-0.928c0-0.535-0.328-0.839-1.191-0.839h-1.407V415.402z M138.871,418.048h1.655
			c0.808,0,1.215-0.407,1.215-1.047c0-0.808-0.712-0.968-1.343-0.968h-1.527V418.048z"/>
		<path d="M146.086,418.712v-0.607l-0.016-0.017c-0.296,0.488-0.656,0.744-1.328,0.744c-0.616,0-1.359-0.296-1.359-1.296v-3.006
			h0.703v2.774c0,0.688,0.352,0.919,0.808,0.919c0.888,0,1.151-0.783,1.151-1.391v-2.303h0.704v4.182H146.086z"/>
		<path d="M150.183,415.722c-0.008-0.265-0.104-0.704-0.992-0.704c-0.216,0-0.832,0.072-0.832,0.592c0,0.344,0.216,0.424,0.76,0.56
			l0.704,0.176c0.872,0.216,1.175,0.536,1.175,1.104c0,0.863-0.711,1.384-1.655,1.384c-1.655,0-1.775-0.96-1.799-1.464h0.68
			c0.024,0.328,0.12,0.855,1.111,0.855c0.504,0,0.959-0.199,0.959-0.663c0-0.336-0.232-0.448-0.832-0.6l-0.815-0.2
			c-0.584-0.144-0.968-0.439-0.968-1.016c0-0.919,0.76-1.335,1.583-1.335c1.495,0,1.599,1.104,1.599,1.312H150.183z"/>
		<path d="M154.422,414.531h0.775c-0.488,1.367-0.967,2.734-1.503,4.102c-0.664,1.695-0.736,1.791-1.639,1.791
			c-0.104,0-0.184-0.032-0.296-0.064v-0.64c0.088,0.032,0.232,0.072,0.424,0.072c0.368,0,0.408-0.104,0.744-0.968l-1.551-4.293h0.8
			l1.111,3.406h0.016L154.422,414.531z"/>
	</g>
	<g>
		<path d="M124.336,261.01h-0.776v-5.741h0.776V261.01z"/>
		<path d="M128.982,261.01h-0.704v-2.575c0-0.728-0.208-1.095-0.896-1.095c-0.4,0-1.104,0.256-1.104,1.391v2.279h-0.704v-4.182
			h0.664v0.592h0.016c0.152-0.224,0.544-0.712,1.264-0.712c0.647,0,1.463,0.264,1.463,1.455V261.01z"/>
		<path d="M134.143,256.997c-0.216-1.008-1.056-1.191-1.607-1.191c-1.04,0-1.879,0.768-1.879,2.279c0,1.351,0.479,2.391,1.903,2.391
			c0.504,0,1.375-0.24,1.639-1.575h0.751c-0.32,2.167-2.079,2.263-2.51,2.263c-1.304,0-2.583-0.848-2.583-3.054
			c0-1.767,1.008-2.99,2.679-2.99c1.479,0,2.247,0.919,2.359,1.879H134.143z"/>
		<path d="M137.503,256.708c1.335,0,1.943,1.127,1.943,2.207c0,1.079-0.607,2.207-1.943,2.207c-1.335,0-1.943-1.127-1.943-2.207
			C135.561,257.836,136.168,256.708,137.503,256.708z M137.503,260.515c1.007,0,1.215-1.04,1.215-1.599s-0.208-1.599-1.215-1.599
			s-1.215,1.04-1.215,1.599S136.496,260.515,137.503,260.515z"/>
		<path d="M143.654,261.01h-0.704v-2.575c0-0.728-0.208-1.095-0.896-1.095c-0.4,0-1.104,0.256-1.104,1.391v2.279h-0.704v-4.182
			h0.664v0.592h0.016c0.152-0.224,0.544-0.712,1.264-0.712c0.647,0,1.463,0.264,1.463,1.455V261.01z"/>
		<path d="M145.56,257.412v2.719c0,0.328,0.28,0.328,0.424,0.328h0.248v0.552c-0.256,0.024-0.456,0.056-0.527,0.056
			c-0.696,0-0.848-0.392-0.848-0.896v-2.759h-0.568v-0.583h0.568v-1.167h0.704v1.167h0.671v0.583H145.56z"/>
		<path d="M147.72,261.01h-0.704v-4.182h0.664v0.695h0.016c0.28-0.487,0.647-0.815,1.175-0.815c0.088,0,0.128,0.008,0.184,0.024
			v0.728h-0.264c-0.656,0-1.071,0.512-1.071,1.119V261.01z"/>
		<path d="M151.288,256.708c1.335,0,1.943,1.127,1.943,2.207c0,1.079-0.607,2.207-1.943,2.207c-1.335,0-1.943-1.127-1.943-2.207
			C149.345,257.836,149.953,256.708,151.288,256.708z M151.288,260.515c1.007,0,1.215-1.04,1.215-1.599s-0.208-1.599-1.215-1.599
			s-1.215,1.04-1.215,1.599S150.28,260.515,151.288,260.515z"/>
		<path d="M154.752,261.01h-0.704v-5.741h0.704V261.01z"/>
	</g>
	<g>
		<path d="M136.816,457.214h2.327c1.496,0,2.415,1.136,2.415,2.791c0,1.287-0.56,2.95-2.447,2.95h-2.295V457.214z M137.592,462.292
			h1.503c1.008,0,1.663-0.791,1.663-2.238s-0.664-2.175-1.719-2.175h-1.447V462.292z"/>
		<path d="M144.167,458.654c1.335,0,1.943,1.127,1.943,2.207c0,1.079-0.607,2.206-1.943,2.206c-1.335,0-1.943-1.127-1.943-2.206
			C142.224,459.781,142.832,458.654,144.167,458.654z M144.167,462.459c1.008,0,1.215-1.039,1.215-1.599s-0.208-1.6-1.215-1.6
			c-1.007,0-1.215,1.04-1.215,1.6S143.16,462.459,144.167,462.459z"/>
		<path d="M150.318,462.956h-0.704v-2.575c0-0.728-0.208-1.095-0.896-1.095c-0.4,0-1.104,0.256-1.104,1.391v2.279h-0.704v-4.182
			h0.664v0.592h0.016c0.152-0.225,0.544-0.712,1.264-0.712c0.647,0,1.463,0.264,1.463,1.455V462.956z"/>
		<path d="M154.911,461.644c-0.024,0.2-0.216,0.792-0.744,1.144c-0.192,0.128-0.464,0.288-1.135,0.288
			c-1.175,0-1.871-0.888-1.871-2.096c0-1.295,0.624-2.326,2.007-2.326c1.208,0,1.799,0.959,1.799,2.438h-3.055
			c0,0.872,0.408,1.375,1.215,1.375c0.664,0,1.056-0.512,1.08-0.823H154.911z M154.239,460.533c-0.04-0.647-0.312-1.247-1.167-1.247
			c-0.648,0-1.16,0.6-1.16,1.247H154.239z"/>
	</g>
	<g>
		<path d="M175.331,0.779c-0.68,1.279-1.087,2.047-1.087,3.966c0,1.319,0.456,2.295,1.095,3.55h-0.472
			c-0.832-1.248-1.375-2.247-1.375-3.742c0-1.407,0.488-2.542,1.352-3.774H175.331z"/>
		<path d="M178.482,6.64h-0.752V2.65h-1.311v-0.56c0.912-0.064,1.287-0.152,1.511-1.072h0.552V6.64z"/>
		<path d="M180.339,8.295c0.68-1.279,1.087-2.047,1.087-3.966c0-1.319-0.456-2.295-1.095-3.55h0.472
			c0.832,1.248,1.375,2.247,1.375,3.742c0,1.407-0.488,2.542-1.351,3.774H180.339z"/>
	</g>
	<g>
		<path d="M195.659,0.779c-0.68,1.279-1.087,2.047-1.087,3.966c0,1.319,0.456,2.295,1.095,3.55h-0.472
			c-0.832-1.248-1.375-2.247-1.375-3.742c0-1.407,0.488-2.542,1.352-3.774H195.659z"/>
		<path d="M196.292,3.034c0-1.831,1.335-2.015,1.943-2.015c0.975,0,1.759,0.632,1.759,1.679c0,1.007-0.664,1.431-1.503,1.879
			l-0.584,0.32c-0.768,0.424-0.936,0.864-0.967,1.08h3.054V6.64h-3.846c0.04-1.167,0.567-1.791,1.319-2.231l0.744-0.432
			c0.6-0.344,1.031-0.576,1.031-1.311c0-0.448-0.288-1.016-1.111-1.016c-1.063,0-1.111,0.991-1.136,1.383H196.292z"/>
		<path d="M200.668,8.295c0.68-1.279,1.087-2.047,1.087-3.966c0-1.319-0.456-2.295-1.095-3.55h0.472
			c0.832,1.248,1.375,2.247,1.375,3.742c0,1.407-0.488,2.542-1.351,3.774H200.668z"/>
	</g>
	<g>
		<path d="M363.12,0.779c-0.68,1.279-1.087,2.047-1.087,3.966c0,1.319,0.455,2.295,1.095,3.55h-0.472
			c-0.831-1.248-1.375-2.247-1.375-3.742c0-1.407,0.487-2.542,1.352-3.774H363.12z"/>
		<path d="M365.192,3.442c0.12,0.008,0.248,0.016,0.368,0.016c0.544,0,1.071-0.216,1.071-0.919c0-0.336-0.2-0.888-1.039-0.888
			c-1,0-1.063,0.815-1.096,1.208h-0.688c0-0.824,0.336-1.839,1.814-1.839c1.088,0,1.735,0.624,1.735,1.479
			c0,0.72-0.416,1.063-0.72,1.159v0.016c0.544,0.176,0.936,0.56,0.936,1.311c0,0.92-0.592,1.807-2.022,1.807
			c-0.416,0-0.768-0.104-1.04-0.248c-0.623-0.328-0.791-0.976-0.839-1.624h0.728c0.023,0.528,0.151,1.24,1.199,1.24
			c0.72,0,1.224-0.44,1.224-1.088c0-0.943-0.832-1.031-1.312-1.031c-0.104,0-0.216,0.008-0.32,0.008V3.442z"/>
		<path d="M368.128,8.295c0.68-1.279,1.088-2.047,1.088-3.966c0-1.319-0.456-2.295-1.096-3.55h0.472
			c0.832,1.248,1.375,2.247,1.375,3.742c0,1.407-0.487,2.542-1.351,3.774H368.128z"/>
	</g>
	<g>
		<path d="M405.187,0.779c-0.68,1.279-1.087,2.047-1.087,3.966c0,1.319,0.455,2.295,1.095,3.55h-0.472
			c-0.831-1.248-1.375-2.247-1.375-3.742c0-1.407,0.487-2.542,1.352-3.774H405.187z"/>
		<path d="M408.827,5.273V6.64h-0.703V5.273h-2.455V4.585l2.574-3.566h0.584v3.646h0.823v0.608H408.827z M406.316,4.665h1.808v-2.55
			h-0.017L406.316,4.665z"/>
		<path d="M410.196,8.295c0.68-1.279,1.088-2.047,1.088-3.966c0-1.319-0.456-2.295-1.096-3.55h0.472
			c0.832,1.248,1.375,2.247,1.375,3.742c0,1.407-0.487,2.542-1.351,3.774H410.196z"/>
	</g>
	<g>
		<path d="M425.413,0.779c-0.68,1.279-1.088,2.047-1.088,3.966c0,1.319,0.456,2.295,1.096,3.55h-0.472
			c-0.832-1.248-1.376-2.247-1.376-3.742c0-1.407,0.488-2.542,1.352-3.774H425.413z"/>
		<path d="M426.869,3.37c0.24-0.184,0.584-0.352,1.088-0.352c0.911,0,1.847,0.64,1.847,1.799c0,0.624-0.279,1.975-2.039,1.975
			c-0.735,0-1.679-0.296-1.814-1.551h0.728c0.071,0.656,0.56,0.944,1.191,0.944c0.728,0,1.183-0.584,1.183-1.288
			c0-0.808-0.551-1.247-1.247-1.247c-0.407,0-0.775,0.192-1.039,0.536l-0.607-0.032l0.424-3.014h2.91v0.688h-2.383L426.869,3.37z"/>
		<path d="M430.421,8.295c0.68-1.279,1.087-2.047,1.087-3.966c0-1.319-0.455-2.295-1.095-3.55h0.472
			c0.831,1.248,1.375,2.247,1.375,3.742c0,1.407-0.488,2.542-1.352,3.774H430.421z"/>
	</g>
	<g>
		<path d="M466.671,0.779c-0.68,1.279-1.088,2.047-1.088,3.966c0,1.319,0.456,2.295,1.096,3.55h-0.472
			c-0.832-1.248-1.376-2.247-1.376-3.742c0-1.407,0.488-2.542,1.352-3.774H466.671z"/>
		<path d="M470.287,2.514c-0.088-0.496-0.36-0.863-0.968-0.863c-1.104,0-1.335,1.487-1.335,2.079L468,3.746
			c0.176-0.304,0.568-0.688,1.336-0.688c0.688,0,1.759,0.44,1.759,1.783c0,0.576-0.152,0.991-0.536,1.407
			c-0.296,0.328-0.632,0.543-1.423,0.543c-0.432,0-1.048-0.192-1.447-0.815c-0.336-0.528-0.432-1.215-0.432-1.951
			c0-1.231,0.399-3.006,2.079-3.006c0.647,0,1.566,0.352,1.639,1.495H470.287z M469.263,6.161c0.672,0,1.104-0.528,1.104-1.288
			c0-0.496-0.264-1.183-1.136-1.183c-0.775,0-1.151,0.56-1.151,1.223C468.08,5.513,468.44,6.161,469.263,6.161z"/>
		<path d="M471.68,8.295c0.68-1.279,1.087-2.047,1.087-3.966c0-1.319-0.455-2.295-1.095-3.55h0.472
			c0.831,1.248,1.375,2.247,1.375,3.742c0,1.407-0.488,2.542-1.352,3.774H471.68z"/>
	</g>
	<g>
		<path d="M178.464,113.823c-1.615,0-1.927-1.719-1.927-2.886c0-1.167,0.312-2.887,1.927-2.887c1.615,0,1.927,1.719,1.927,2.887
			C180.391,112.104,180.079,113.823,178.464,113.823z M178.464,108.682c-0.808,0-1.175,0.848-1.175,2.255s0.368,2.255,1.175,2.255
			s1.175-0.848,1.175-2.255S179.271,108.682,178.464,108.682z"/>
	</g>
	<g>
		<path d="M233.912,110.065c0-1.831,1.335-2.015,1.943-2.015c0.975,0,1.759,0.632,1.759,1.679c0,1.007-0.664,1.431-1.503,1.879
			l-0.584,0.32c-0.768,0.424-0.936,0.864-0.967,1.08h3.054v0.664h-3.846c0.04-1.167,0.567-1.791,1.319-2.231l0.743-0.432
			c0.6-0.344,1.032-0.576,1.032-1.311c0-0.448-0.288-1.016-1.111-1.016c-1.063,0-1.111,0.991-1.135,1.383H233.912z"/>
		<path d="M240.231,113.823c-1.615,0-1.927-1.719-1.927-2.886c0-1.167,0.312-2.887,1.927-2.887s1.927,1.719,1.927,2.887
			C242.158,112.104,241.846,113.823,240.231,113.823z M240.231,108.682c-0.808,0-1.175,0.848-1.175,2.255s0.368,2.255,1.175,2.255
			s1.175-0.848,1.175-2.255S241.039,108.682,240.231,108.682z"/>
		<path d="M244.679,113.823c-1.615,0-1.927-1.719-1.927-2.886c0-1.167,0.312-2.887,1.927-2.887s1.927,1.719,1.927,2.887
			C246.606,112.104,246.294,113.823,244.679,113.823z M244.679,108.682c-0.808,0-1.175,0.848-1.175,2.255s0.368,2.255,1.175,2.255
			s1.175-0.848,1.175-2.255S245.487,108.682,244.679,108.682z"/>
	</g>
	<g>
		<path d="M297.639,111.816h-1.959v-0.72h1.959V111.816z"/>
		<path d="M300.864,113.671h-0.752v-3.99h-1.311v-0.56c0.911-0.064,1.287-0.152,1.511-1.072h0.552V113.671z"/>
		<path d="M304.665,113.823c-1.615,0-1.928-1.719-1.928-2.886c0-1.167,0.312-2.887,1.928-2.887s1.927,1.719,1.927,2.887
			C306.591,112.104,306.28,113.823,304.665,113.823z M304.665,108.682c-0.809,0-1.176,0.848-1.176,2.255s0.367,2.255,1.176,2.255
			c0.807,0,1.175-0.848,1.175-2.255S305.471,108.682,304.665,108.682z"/>
		<path d="M309.112,113.823c-1.615,0-1.926-1.719-1.926-2.886c0-1.167,0.311-2.887,1.926-2.887s1.928,1.719,1.928,2.887
			C311.04,112.104,310.727,113.823,309.112,113.823z M309.112,108.682c-0.807,0-1.175,0.848-1.175,2.255s0.368,2.255,1.175,2.255
			c0.809,0,1.176-0.848,1.176-2.255S309.92,108.682,309.112,108.682z"/>
	</g>
	<g>
	</g>
	<g>
	</g>
	<g>
	</g>
	<g>
	</g>
	<g>
	</g>
	<g>
	</g>
	<g>
	</g>
	<g>
	</g>
	<g>
	</g>
	<g>
	</g>
	<g>
	</g>
	<g>
	</g>
	<g>
	</g>
	<g>
	</g>
	<g>
	</g>
</g>
</svg>
