<?xml version="1.0" encoding="utf-8"?>
<!-- Generator: Adobe Illustrator 28.2.0, SVG Export Plug-In . SVG Version: 6.00 Build 0)  -->
<svg version="1.1" xmlns="http://www.w3.org/2000/svg" xmlns:xlink="http://www.w3.org/1999/xlink" x="0px" y="0px"
	 width="121.544px" height="80.729px" viewBox="0 0 121.544 80.729" style="enable-background:new 0 0 121.544 80.729;"
	 xml:space="preserve">
<style type="text/css">
	.st0{fill:none;stroke:#040000;stroke-width:0.5;stroke-miterlimit:10;}
	.st1{fill:none;stroke:#666666;stroke-linejoin:bevel;}
	.st2{fill:none;stroke:#666666;stroke-linejoin:bevel;stroke-dasharray:0.9911,0.9911;}
	.st3{fill:none;stroke:#666666;stroke-linejoin:bevel;stroke-dasharray:0.9861,0.9861;}
	.st4{fill:none;stroke:#666666;stroke-linecap:round;stroke-miterlimit:10;}
</style>
<g id="レイヤー_1">
	<polyline class="st0" points="11.17,9.588 11.17,70.293 104.446,70.293 	"/>
	<g>
		<g>
			<line class="st1" x1="11.17" y1="29.266" x2="11.67" y2="29.264"/>
			<line class="st2" x1="12.662" y1="29.258" x2="85.508" y2="28.867"/>
			<line class="st1" x1="86.004" y1="28.864" x2="86.504" y2="28.862"/>
		</g>
	</g>
	<g>
		<g>
			<line class="st1" x1="86.504" y1="28.862" x2="86.504" y2="29.362"/>
			<line class="st3" x1="86.504" y1="30.348" x2="86.504" y2="69.299"/>
			<line class="st1" x1="86.504" y1="69.792" x2="86.504" y2="70.292"/>
		</g>
	</g>
	<g>
		<line class="st4" x1="11.17" y1="70.293" x2="86.504" y2="29.01"/>
	</g>
	<circle cx="86.504" cy="29.01" r="4.925"/>
</g>
<g id="レイヤー_2">
	<g>
		<path d="M5.049,3.727L4.6,4.98H4l1.619-4.306h0.66L7.838,4.98H7.202L6.776,3.727H5.049z M6.566,3.211L5.931,1.316H5.919
			L5.229,3.211H6.566z"/>
		<path d="M10.856,4.98h-0.672L9.405,3.799L8.649,4.98H7.984l1.104-1.613L8.038,1.844h0.677l0.726,1.104l0.726-1.104h0.648
			L9.753,3.367L10.856,4.98z"/>
		<path d="M11.32,1.274v-0.6h0.528v0.6H11.32z M11.848,4.98H11.32V1.844h0.528V4.98z"/>
		<path d="M14.421,2.737c-0.006-0.198-0.078-0.528-0.744-0.528c-0.162,0-0.624,0.054-0.624,0.444c0,0.258,0.162,0.318,0.569,0.42
			l0.528,0.132c0.654,0.162,0.882,0.402,0.882,0.828c0,0.647-0.534,1.037-1.242,1.037c-1.241,0-1.331-0.72-1.349-1.097h0.51
			c0.018,0.246,0.09,0.642,0.833,0.642c0.378,0,0.72-0.15,0.72-0.498c0-0.252-0.174-0.336-0.624-0.45l-0.612-0.15
			c-0.438-0.108-0.726-0.33-0.726-0.761c0-0.69,0.57-1.001,1.187-1.001c1.122,0,1.2,0.828,1.2,0.983H14.421z"/>
		<path d="M17.769,3.955V4.98h-0.528V3.955H15.4V3.439l1.931-2.675h0.438v2.735h0.618v0.456H17.769z M15.886,3.499h1.355V1.586
			h-0.012L15.886,3.499z"/>
	</g>
	<g>
		<path d="M3.196,26.964H1.169v1.415c0.156-0.06,0.342-0.138,0.731-0.138c1.104,0,1.685,0.738,1.685,1.5
			c0,0.731-0.552,1.529-1.835,1.529c-0.521,0-0.965-0.114-1.415-0.372l0.174-0.516c0.36,0.252,0.792,0.372,1.235,0.372
			c1.025,0,1.271-0.624,1.271-1.025c0-0.618-0.492-0.995-1.139-0.995c-0.402,0-0.624,0.15-0.713,0.209H0.647v-2.495h2.549V26.964z"
			/>
		<path d="M4.302,28.811c0-0.474,0-2.458,1.637-2.458s1.637,1.985,1.637,2.458s0,2.458-1.637,2.458S4.302,29.291,4.302,28.811z
			 M7.012,28.811c0-0.786-0.12-1.943-1.073-1.943c-0.941,0-1.074,1.127-1.074,1.943c0,0.846,0.144,1.943,1.074,1.943
			C6.88,30.753,7.012,29.62,7.012,28.811z"/>
	</g>
	<g>
		<path d="M82.477,73.777h0.503v4.725h-0.576v-4.095L81.5,75.031l-0.078-0.534L82.477,73.777z"/>
		<path d="M84.866,76.14c0-0.474,0-2.458,1.637-2.458s1.637,1.985,1.637,2.458s0,2.458-1.637,2.458S84.866,76.62,84.866,76.14z
			 M87.576,76.14c0-0.786-0.12-1.943-1.073-1.943c-0.941,0-1.074,1.127-1.074,1.943c0,0.846,0.144,1.942,1.074,1.942
			C87.444,78.083,87.576,76.95,87.576,76.14z"/>
		<path d="M88.826,76.14c0-0.474,0-2.458,1.637-2.458S92.1,75.667,92.1,76.14s0,2.458-1.637,2.458S88.826,76.62,88.826,76.14z
			 M91.536,76.14c0-0.786-0.12-1.943-1.073-1.943c-0.941,0-1.074,1.127-1.074,1.943c0,0.846,0.144,1.942,1.074,1.942
			C91.404,78.083,91.536,76.95,91.536,76.14z"/>
	</g>
	<g>
		<path d="M95.811,31.737c-0.87-1.097-1.085-2.194-1.085-2.842c0-0.647,0.216-1.745,1.085-2.842h0.474
			c-0.629,0.815-1.025,1.805-1.025,2.842c0,0.24,0,1.505,1.025,2.842H95.811z"/>
		<path d="M98.327,26.448h0.503v4.726h-0.576v-4.096l-0.905,0.624l-0.078-0.534L98.327,26.448z"/>
		<path d="M100.716,28.811c0-0.474,0-2.458,1.637-2.458s1.637,1.985,1.637,2.458s0,2.458-1.637,2.458S100.716,29.291,100.716,28.811
			z M103.426,28.811c0-0.786-0.12-1.943-1.073-1.943c-0.941,0-1.074,1.127-1.074,1.943c0,0.846,0.144,1.943,1.074,1.943
			C103.294,30.754,103.426,29.621,103.426,28.811z"/>
		<path d="M104.676,28.811c0-0.474,0-2.458,1.637-2.458s1.637,1.985,1.637,2.458s0,2.458-1.637,2.458S104.676,29.291,104.676,28.811
			z M107.386,28.811c0-0.786-0.12-1.943-1.073-1.943c-0.941,0-1.074,1.127-1.074,1.943c0,0.846,0.144,1.943,1.074,1.943
			C107.254,30.754,107.386,29.621,107.386,28.811z"/>
		<path d="M109.481,30.394v0.726c0,0.486-0.216,0.636-0.762,0.66v-0.317c0.348-0.012,0.372-0.138,0.378-0.306h-0.378v-0.762H109.481
			z"/>
		<path d="M113.104,26.964h-2.027v1.415c0.156-0.06,0.342-0.138,0.731-0.138c1.104,0,1.685,0.738,1.685,1.5
			c0,0.731-0.552,1.529-1.835,1.529c-0.521,0-0.965-0.114-1.415-0.372l0.174-0.516c0.36,0.252,0.792,0.372,1.235,0.372
			c1.025,0,1.271-0.624,1.271-1.025c0-0.618-0.492-0.995-1.139-0.995c-0.402,0-0.624,0.15-0.713,0.209h-0.516v-2.495h2.549V26.964z"
			/>
		<path d="M114.209,28.811c0-0.474,0-2.458,1.637-2.458s1.637,1.985,1.637,2.458s0,2.458-1.637,2.458S114.209,29.291,114.209,28.811
			z M116.92,28.811c0-0.786-0.12-1.943-1.073-1.943c-0.941,0-1.074,1.127-1.074,1.943c0,0.846,0.144,1.943,1.074,1.943
			C116.788,30.754,116.92,29.621,116.92,28.811z"/>
		<path d="M117.954,31.737c1.025-1.337,1.025-2.603,1.025-2.842c0-1.038-0.396-2.027-1.025-2.842h0.474
			c0.87,1.097,1.085,2.195,1.085,2.842c0,0.648-0.216,1.745-1.085,2.842H117.954z"/>
	</g>
	<g>
		<path d="M108.008,71.057l-0.45,1.253h-0.6l1.619-4.306h0.66l1.559,4.306h-0.636l-0.426-1.253H108.008z M109.525,70.542
			l-0.635-1.895h-0.012l-0.689,1.895H109.525z"/>
		<path d="M113.815,72.311h-0.672l-0.779-1.181l-0.756,1.181h-0.666l1.104-1.613l-1.049-1.523h0.677l0.726,1.104l0.726-1.104h0.648
			l-1.062,1.523L113.815,72.311z"/>
		<path d="M114.278,68.604v-0.6h0.528v0.6H114.278z M114.806,72.311h-0.528v-3.136h0.528V72.311z"/>
		<path d="M117.379,70.068c-0.006-0.198-0.078-0.528-0.744-0.528c-0.162,0-0.624,0.054-0.624,0.444c0,0.258,0.162,0.318,0.569,0.42
			l0.528,0.132c0.654,0.162,0.882,0.402,0.882,0.828c0,0.647-0.534,1.037-1.242,1.037c-1.241,0-1.331-0.72-1.349-1.097h0.51
			c0.018,0.246,0.09,0.642,0.833,0.642c0.378,0,0.72-0.15,0.72-0.498c0-0.252-0.174-0.336-0.624-0.45l-0.612-0.15
			c-0.438-0.108-0.726-0.33-0.726-0.761c0-0.69,0.57-1.001,1.187-1.001c1.122,0,1.2,0.828,1.2,0.983H117.379z"/>
		<path d="M119.552,69.912c0.09,0.006,0.186,0.012,0.276,0.012c0.408,0,0.804-0.162,0.804-0.689c0-0.252-0.15-0.666-0.78-0.666
			c-0.75,0-0.797,0.612-0.821,0.906h-0.516c0-0.618,0.252-1.379,1.361-1.379c0.815,0,1.301,0.468,1.301,1.109
			c0,0.54-0.312,0.798-0.54,0.87v0.012c0.408,0.132,0.702,0.419,0.702,0.983c0,0.689-0.444,1.355-1.517,1.355
			c-0.312,0-0.576-0.078-0.78-0.186c-0.468-0.246-0.594-0.732-0.629-1.217h0.545c0.018,0.396,0.114,0.929,0.899,0.929
			c0.54,0,0.917-0.33,0.917-0.815c0-0.708-0.624-0.773-0.983-0.773c-0.078,0-0.162,0.006-0.24,0.006V69.912z"/>
	</g>
	<g>
	</g>
	<g>
	</g>
	<g>
	</g>
	<g>
	</g>
	<g>
	</g>
	<g>
	</g>
	<g>
	</g>
	<g>
	</g>
	<g>
	</g>
	<g>
	</g>
	<g>
	</g>
	<g>
	</g>
	<g>
	</g>
	<g>
	</g>
	<g>
	</g>
</g>
</svg>
