<?xml version="1.0" encoding="utf-8"?>
<!-- Generator: Adobe Illustrator 28.2.0, SVG Export Plug-In . SVG Version: 6.00 Build 0)  -->
<svg version="1.1" xmlns="http://www.w3.org/2000/svg" xmlns:xlink="http://www.w3.org/1999/xlink" x="0px" y="0px"
	 width="337.136px" height="228.742px" viewBox="0 0 337.136 228.742" style="enable-background:new 0 0 337.136 228.742;"
	 xml:space="preserve">
<style type="text/css">
	.st0{fill:none;stroke:#666666;stroke-width:0.5;stroke-miterlimit:10;stroke-dasharray:1;}
	.st1{fill:none;stroke:#040000;stroke-miterlimit:10;}
	.st2{fill:none;stroke:#040000;stroke-width:0.5;stroke-miterlimit:10;}
	.st3{fill:#040000;}
	.st4{fill:none;stroke:#040000;stroke-miterlimit:10;stroke-dasharray:1;}
</style>
<g id="レイヤー_1">
	<line class="st0" x1="288.702" y1="10.92" x2="288.702" y2="228.742"/>
	<line class="st0" x1="228.837" y1="10.92" x2="228.837" y2="228.742"/>
	<line class="st0" x1="183.533" y1="10.92" x2="183.533" y2="228.742"/>
	<polyline class="st1" points="324.297,156.806 288.702,156.3 288.702,133.583 183.533,134.089 183.533,156.806 33.474,156.806 	"/>
	<polyline class="st1" points="324.297,222.818 228.837,222.818 228.837,200.101 183.533,200.101 183.533,222.818 33.474,222.818 	
		"/>
	<polyline class="st1" points="324.297,189.812 288.702,189.812 288.702,167.095 228.837,167.095 228.837,189.812 33.474,189.812 	
		"/>
	<line class="st1" x1="101.556" y1="10.92" x2="101.556" y2="119.83"/>
	<line class="st1" x1="179.219" y1="10.92" x2="179.219" y2="119.83"/>
	<line class="st1" x1="256.342" y1="10.92" x2="256.342" y2="119.83"/>
	<g>
		<g>
			<polyline class="st2" points="61.106,34.95 61.106,105.078 331.193,105.078 			"/>
			<g>
				<polygon class="st3" points="330.203,106.531 335.623,105.078 330.203,103.625 				"/>
			</g>
		</g>
	</g>
	<g>
		<g>
			<line class="st2" x1="185.863" y1="110.191" x2="222.192" y2="110.191"/>
			<g>
				<polygon class="st3" points="187.349,112.37 179.219,110.191 187.349,108.012 				"/>
			</g>
			<g>
				<polygon class="st3" points="220.706,112.37 228.837,110.191 220.706,108.012 				"/>
			</g>
		</g>
	</g>
	<path class="st1" d="M22.971,105.078c9.551-0.001,21.573-1.898,24.27-6.213c8.89-14.224,4.045-39.91,13.865-39.91
		c6.36,0,4.202,20.775,7.169,23.061c2.966,2.287,6.431-1.459,9.169,2.287c5.124,7.011,2.427,20.775,24.112,20.775
		c9.551-0.001,21.573-1.898,24.27-6.213c8.89-14.224,4.064-40.516,13.865-39.91c4.36,0.27,4.202,20.775,7.169,23.061
		c2.966,2.287,6.431-1.459,9.169,2.287c5.124,7.011,2.427,20.775,24.112,20.775c9.551-0.001,20-1.359,22.697-5.673
		c8.89-14.224,5.933-40.18,13.256-40.069c5.595,0.084,5.322,23.032,12.095,22.592c3.228-0.21,6.063-0.273,10.733-5.316
		c4.365-4.713,19.461-2.881,24.843-3.523c2.973-0.354,4.551-2.129,5.137-4.696c1.59-6.96,2.969-33.443,9.98-33.443
		c8.09,0,9.82,32.634,18.067,33.174c6.733,0.441,9.474,0.302,13.691-0.21c4.885-0.594,4.376-6.478,9.124-7.897
		c5.318-1.59,9.538-1.171,17.365-1.061"/>
	<path class="st4" d="M179.219,86.73c7.169,0,10.079-1.347,11.483-3.506c3.357-5.159,2.966-35.596,10.517-35.596
		c12.674,0,0.115,36.797,26.969,34.298c12.132-1.129,3.773,23.151,28.155,23.15"/>
	<circle class="st3" cx="228.837" cy="81.927" r="3.211"/>
</g>
<g id="レイヤー_2">
	<g>
		<path class="st3" d="M226.332,0.779c-0.68,1.279-1.088,2.047-1.088,3.966c0,1.319,0.456,2.295,1.096,3.55h-0.472
			c-0.832-1.248-1.375-2.247-1.375-3.742c0-1.407,0.487-2.542,1.351-3.774H226.332z"/>
		<path class="st3" d="M226.965,3.034c0-1.831,1.335-2.015,1.943-2.015c0.975,0,1.759,0.632,1.759,1.679
			c0,1.007-0.664,1.431-1.503,1.879l-0.584,0.32c-0.768,0.424-0.936,0.864-0.968,1.08h3.055V6.64h-3.846
			c0.04-1.167,0.567-1.791,1.319-2.231l0.743-0.432c0.6-0.344,1.031-0.576,1.031-1.311c0-0.448-0.288-1.016-1.111-1.016
			c-1.063,0-1.111,0.991-1.135,1.383H226.965z"/>
		<path class="st3" d="M231.341,8.295c0.68-1.279,1.088-2.047,1.088-3.966c0-1.319-0.456-2.295-1.096-3.55h0.472
			c0.832,1.248,1.375,2.247,1.375,3.742c0,1.407-0.487,2.542-1.351,3.774H231.341z"/>
	</g>
	<g>
		<path class="st3" d="M286.196,0.779c-0.68,1.279-1.087,2.047-1.087,3.966c0,1.319,0.455,2.295,1.095,3.55h-0.472
			c-0.831-1.248-1.375-2.247-1.375-3.742c0-1.407,0.487-2.542,1.352-3.774H286.196z"/>
		<path class="st3" d="M288.269,3.442c0.12,0.008,0.248,0.016,0.368,0.016c0.544,0,1.071-0.216,1.071-0.919
			c0-0.336-0.2-0.888-1.039-0.888c-1,0-1.063,0.815-1.096,1.208h-0.688c0-0.824,0.336-1.839,1.814-1.839
			c1.088,0,1.735,0.624,1.735,1.479c0,0.72-0.416,1.063-0.72,1.159v0.016c0.544,0.176,0.936,0.56,0.936,1.311
			c0,0.92-0.592,1.807-2.022,1.807c-0.416,0-0.768-0.104-1.04-0.248c-0.623-0.328-0.791-0.976-0.839-1.624h0.728
			c0.023,0.528,0.151,1.24,1.199,1.24c0.72,0,1.223-0.44,1.223-1.088c0-0.943-0.831-1.031-1.311-1.031
			c-0.104,0-0.216,0.008-0.32,0.008V3.442z"/>
		<path class="st3" d="M291.206,8.295c0.68-1.279,1.087-2.047,1.087-3.966c0-1.319-0.455-2.295-1.095-3.55h0.472
			c0.831,1.248,1.375,2.247,1.375,3.742c0,1.407-0.488,2.542-1.352,3.774H291.206z"/>
	</g>
	<g>
		<path class="st3" d="M181.028,0.779c-0.68,1.279-1.087,2.047-1.087,3.966c0,1.319,0.456,2.295,1.095,3.55h-0.472
			c-0.832-1.248-1.375-2.247-1.375-3.742c0-1.407,0.487-2.542,1.351-3.774H181.028z"/>
		<path class="st3" d="M184.18,6.64h-0.752V2.65h-1.311v-0.56c0.912-0.064,1.287-0.152,1.511-1.072h0.552V6.64z"/>
		<path class="st3" d="M186.038,8.295c0.68-1.279,1.087-2.047,1.087-3.966c0-1.319-0.456-2.295-1.095-3.55h0.472
			c0.832,1.248,1.375,2.247,1.375,3.742c0,1.407-0.488,2.542-1.351,3.774H186.038z"/>
	</g>
	<g>
		<path class="st3" d="M4.925,148.517H0.688v-5.741h4.182v0.688H1.463v1.759h3.142v0.688H1.463v1.919h3.462V148.517z"/>
		<path class="st3" d="M9.254,148.517H8.358l-1.04-1.575l-1.007,1.575H5.424l1.471-2.151l-1.399-2.031h0.904l0.967,1.471
			l0.968-1.471h0.863l-1.415,2.031L9.254,148.517z"/>
		<path class="st3" d="M13.406,147.206c-0.024,0.2-0.216,0.792-0.744,1.144c-0.192,0.128-0.464,0.288-1.135,0.288
			c-1.175,0-1.871-0.888-1.871-2.095c0-1.295,0.624-2.327,2.007-2.327c1.208,0,1.799,0.959,1.799,2.439h-3.054
			c0,0.872,0.408,1.375,1.215,1.375c0.664,0,1.056-0.512,1.08-0.824H13.406z M12.734,146.094c-0.04-0.647-0.312-1.247-1.167-1.247
			c-0.648,0-1.16,0.6-1.16,1.247H12.734z"/>
		<path class="st3" d="M16.918,145.743c-0.088-0.56-0.4-0.896-0.992-0.896c-0.871,0-1.151,0.832-1.151,1.575
			c0,0.72,0.176,1.607,1.144,1.607c0.472,0,0.879-0.352,1-0.991h0.68c-0.072,0.664-0.48,1.599-1.703,1.599
			c-1.175,0-1.871-0.888-1.871-2.095c0-1.295,0.624-2.327,2.007-2.327c1.096,0,1.511,0.8,1.567,1.527H16.918z"/>
		<path class="st3" d="M21.03,148.517v-0.607l-0.016-0.016c-0.296,0.488-0.656,0.744-1.328,0.744c-0.616,0-1.359-0.296-1.359-1.295
			v-3.006h0.703v2.774c0,0.688,0.352,0.919,0.808,0.919c0.888,0,1.151-0.784,1.151-1.391v-2.303h0.704v4.182H21.03z"/>
		<path class="st3" d="M23.615,144.919v2.719c0,0.328,0.28,0.328,0.424,0.328h0.248v0.552c-0.256,0.024-0.456,0.056-0.527,0.056
			c-0.696,0-0.848-0.392-0.848-0.896v-2.759h-0.568v-0.583h0.568v-1.167h0.704v1.167h0.671v0.583H23.615z"/>
		<path class="st3" d="M28.526,147.206c-0.024,0.2-0.216,0.792-0.744,1.144c-0.192,0.128-0.464,0.288-1.135,0.288
			c-1.175,0-1.871-0.888-1.871-2.095c0-1.295,0.624-2.327,2.007-2.327c1.208,0,1.799,0.959,1.799,2.439h-3.054
			c0,0.872,0.408,1.375,1.215,1.375c0.664,0,1.056-0.512,1.08-0.824H28.526z M27.854,146.094c-0.04-0.647-0.312-1.247-1.167-1.247
			c-0.648,0-1.16,0.6-1.16,1.247H27.854z"/>
	</g>
	<g>
		<path class="st3" d="M189.425,115.568c-0.04-0.888-0.776-1.167-1.423-1.167c-0.488,0-1.311,0.136-1.311,1.007
			c0,0.488,0.344,0.647,0.679,0.728l1.639,0.376c0.744,0.176,1.303,0.624,1.303,1.535c0,1.359-1.263,1.735-2.247,1.735
			c-1.063,0-1.479-0.32-1.735-0.552c-0.488-0.439-0.584-0.919-0.584-1.455h0.728c0,1.04,0.848,1.343,1.583,1.343
			c0.56,0,1.503-0.144,1.503-0.967c0-0.6-0.28-0.792-1.223-1.016l-1.175-0.272c-0.376-0.088-1.224-0.352-1.224-1.351
			c0-0.896,0.584-1.775,1.975-1.775c2.007,0,2.207,1.199,2.239,1.831H189.425z"/>
		<path class="st3" d="M192.738,119.629h-0.728l-1.208-4.182h0.768l0.8,3.286h0.016l0.807-3.286h0.784l0.815,3.286h0.016
			l0.848-3.286h0.704l-1.215,4.182h-0.728l-0.848-3.238h-0.016L192.738,119.629z"/>
		<path class="st3" d="M197.003,114.688v-0.799h0.704v0.799H197.003z M197.707,119.629h-0.704v-4.182h0.704V119.629z"/>
		<path class="st3" d="M199.626,116.031v2.719c0,0.328,0.28,0.328,0.424,0.328h0.248v0.552c-0.256,0.024-0.456,0.056-0.527,0.056
			c-0.696,0-0.848-0.392-0.848-0.896v-2.759h-0.568v-0.583h0.568v-1.167h0.704v1.167h0.671v0.583H199.626z"/>
		<path class="st3" d="M203.602,116.855c-0.088-0.56-0.4-0.896-0.991-0.896c-0.872,0-1.151,0.832-1.151,1.575
			c0,0.72,0.176,1.607,1.143,1.607c0.472,0,0.879-0.352,1-0.991h0.68c-0.072,0.664-0.48,1.599-1.703,1.599
			c-1.175,0-1.871-0.888-1.871-2.095c0-1.295,0.624-2.327,2.007-2.327c1.096,0,1.511,0.8,1.567,1.527H203.602z"/>
		<path class="st3" d="M208.393,119.629h-0.704v-2.734c0-0.568-0.16-0.936-0.832-0.936c-0.576,0-1.167,0.336-1.167,1.391v2.279
			h-0.704v-5.741h0.704v2.119h0.016c0.2-0.264,0.552-0.68,1.223-0.68c0.648,0,1.463,0.264,1.463,1.455V119.629z"/>
		<path class="st3" d="M210.378,119.629h-0.776v-5.741h2.583c1.063,0,1.704,0.688,1.704,1.615c0,0.8-0.456,1.703-1.704,1.703h-1.807
			V119.629z M210.378,116.543h1.543c0.696,0,1.167-0.256,1.167-1.031c0-0.728-0.496-0.959-1.136-0.959h-1.575V116.543z"/>
		<path class="st3" d="M216.474,115.328c1.336,0,1.943,1.127,1.943,2.207c0,1.079-0.607,2.207-1.943,2.207
			c-1.335,0-1.942-1.127-1.942-2.207C214.531,116.455,215.139,115.328,216.474,115.328z M216.474,119.134
			c1.008,0,1.216-1.04,1.216-1.599s-0.208-1.599-1.216-1.599c-1.007,0-1.215,1.04-1.215,1.599S215.467,119.134,216.474,119.134z"/>
		<path class="st3" d="M221.594,116.639c-0.008-0.264-0.104-0.704-0.991-0.704c-0.216,0-0.832,0.072-0.832,0.591
			c0,0.344,0.216,0.424,0.76,0.56l0.704,0.176c0.871,0.216,1.175,0.536,1.175,1.104c0,0.863-0.711,1.383-1.655,1.383
			c-1.654,0-1.774-0.959-1.799-1.463h0.68c0.024,0.328,0.12,0.855,1.111,0.855c0.504,0,0.96-0.2,0.96-0.664
			c0-0.336-0.232-0.448-0.832-0.6l-0.815-0.2c-0.584-0.144-0.968-0.439-0.968-1.015c0-0.919,0.76-1.335,1.584-1.335
			c1.495,0,1.599,1.104,1.599,1.312H221.594z"/>
	</g>
	<g>
		<path class="st3" d="M10.431,175.092h2.327c1.495,0,2.415,1.135,2.415,2.791c0,1.287-0.56,2.95-2.447,2.95h-2.295V175.092z
			 M11.207,180.169h1.503c1.007,0,1.663-0.792,1.663-2.239s-0.664-2.175-1.719-2.175h-1.447V180.169z"/>
		<path class="st3" d="M17.782,176.531c1.335,0,1.943,1.127,1.943,2.207c0,1.079-0.607,2.207-1.943,2.207
			c-1.335,0-1.943-1.127-1.943-2.207C15.839,177.658,16.447,176.531,17.782,176.531z M17.782,180.337
			c1.007,0,1.215-1.04,1.215-1.599s-0.208-1.599-1.215-1.599s-1.215,1.04-1.215,1.599S16.775,180.337,17.782,180.337z"/>
		<path class="st3" d="M23.933,180.833h-0.704v-2.575c0-0.728-0.208-1.095-0.896-1.095c-0.4,0-1.104,0.256-1.104,1.391v2.279h-0.704
			v-4.182h0.664v0.592h0.016c0.152-0.224,0.544-0.712,1.264-0.712c0.647,0,1.463,0.264,1.463,1.455V180.833z"/>
		<path class="st3" d="M28.525,179.521c-0.024,0.2-0.216,0.792-0.744,1.144c-0.192,0.128-0.464,0.288-1.135,0.288
			c-1.175,0-1.871-0.888-1.871-2.095c0-1.295,0.624-2.327,2.007-2.327c1.208,0,1.799,0.959,1.799,2.439h-3.055
			c0,0.872,0.408,1.375,1.215,1.375c0.664,0,1.056-0.512,1.08-0.824H28.525z M27.854,178.41c-0.04-0.647-0.312-1.247-1.167-1.247
			c-0.648,0-1.16,0.6-1.16,1.247H27.854z"/>
	</g>
	<g>
		<path class="st3" d="M11.711,208.54h2.526c1.071,0,1.623,0.664,1.623,1.447c0,0.375-0.136,0.903-0.768,1.199
			c0.376,0.152,1.04,0.416,1.04,1.399c0,0.92-0.68,1.695-1.951,1.695h-2.471V208.54z M12.487,210.971h1.399
			c0.744,0,1.199-0.224,1.199-0.928c0-0.536-0.328-0.839-1.191-0.839h-1.407V210.971z M12.487,213.617h1.655
			c0.808,0,1.215-0.408,1.215-1.047c0-0.808-0.712-0.968-1.343-0.968h-1.527V213.617z"/>
		<path class="st3" d="M19.702,214.281v-0.607l-0.016-0.016c-0.296,0.488-0.656,0.744-1.328,0.744c-0.616,0-1.359-0.296-1.359-1.295
			v-3.006h0.703v2.774c0,0.688,0.352,0.919,0.808,0.919c0.888,0,1.151-0.784,1.151-1.391v-2.303h0.704v4.182H19.702z"/>
		<path class="st3" d="M23.798,211.291c-0.008-0.264-0.104-0.704-0.992-0.704c-0.216,0-0.832,0.072-0.832,0.591
			c0,0.344,0.216,0.424,0.76,0.56l0.704,0.176c0.872,0.216,1.175,0.536,1.175,1.104c0,0.863-0.711,1.383-1.655,1.383
			c-1.655,0-1.775-0.959-1.799-1.463h0.68c0.024,0.328,0.12,0.855,1.111,0.855c0.504,0,0.959-0.2,0.959-0.664
			c0-0.336-0.232-0.448-0.832-0.6l-0.815-0.2c-0.584-0.144-0.968-0.439-0.968-1.015c0-0.919,0.76-1.335,1.583-1.335
			c1.495,0,1.599,1.104,1.599,1.312H23.798z"/>
		<path class="st3" d="M28.038,210.099h0.775c-0.488,1.367-0.967,2.734-1.503,4.102c-0.664,1.695-0.736,1.791-1.639,1.791
			c-0.104,0-0.184-0.032-0.296-0.064v-0.64c0.088,0.032,0.232,0.072,0.424,0.072c0.368,0,0.408-0.104,0.744-0.968l-1.551-4.293h0.8
			l1.111,3.406h0.016L28.038,210.099z"/>
	</g>
	<g>
	</g>
	<g>
	</g>
	<g>
	</g>
	<g>
	</g>
	<g>
	</g>
	<g>
	</g>
	<g>
	</g>
</g>
</svg>
