<?xml version="1.0" encoding="utf-8"?>
<!-- Generator: Adobe Illustrator 28.2.0, SVG Export Plug-In . SVG Version: 6.00 Build 0)  -->
<svg version="1.1" xmlns="http://www.w3.org/2000/svg" xmlns:xlink="http://www.w3.org/1999/xlink" x="0px" y="0px"
	 width="362.086px" height="163.396px" viewBox="0 0 362.086 163.396" style="enable-background:new 0 0 362.086 163.396;"
	 xml:space="preserve">
<style type="text/css">
	.st0{fill:none;stroke:#666666;stroke-width:0.5;stroke-miterlimit:10;stroke-dasharray:1;}
	.st1{fill:none;stroke:#000000;stroke-width:0.5;stroke-miterlimit:10;}
	.st2{fill:#A0C8FF;}
	.st3{display:none;}
	.st4{display:inline;}
	.st5{display:inline;fill:#3574F2;}
	.st6{fill:#FFFFFF;}
</style>
<g id="レイヤー_1">
	<line class="st0" x1="50.272" y1="10.325" x2="50.272" y2="152.058"/>
	<line class="st0" x1="33.264" y1="146.388" x2="186.322" y2="146.388"/>
	<line class="st0" x1="186.286" y1="10.325" x2="186.286" y2="152.058"/>
	<line class="st0" x1="236.848" y1="10.325" x2="236.848" y2="152.058"/>
	<line class="st0" x1="271.23" y1="10.325" x2="271.23" y2="152.058"/>
	<line class="st0" x1="322.398" y1="10.325" x2="322.398" y2="152.058"/>
	<polyline class="st1" points="33.264,33.003 50.272,33.003 50.272,15.986 237.306,15.986 237.306,33.003 271.013,33.003 
		271.013,15.581 321.715,15.581 321.715,33.003 321.715,33.003 362.083,33.003 	"/>
	<polyline class="st1" points="33.264,84.026 50.272,84.026 50.272,67.009 186.388,67.009 186.388,84.026 362.083,84.026 	"/>
	<polyline class="st1" points="32.743,95.521 49.751,95.521 186.388,146.388 362.083,146.388 	"/>
	<polyline class="st1" points="33.264,56.093 186.231,56.093 186.231,39.076 237.306,39.076 237.306,56.093 271.013,56.093 
		271.013,38.672 321.715,38.672 321.715,56.093 321.715,56.093 362.083,55.68 	"/>
	<rect x="33.264" y="152.058" class="st2" width="328.819" height="11.339"/>
	<rect x="50.272" y="152.058" width="187.087" height="11.339"/>
	<rect x="271.375" y="152.058" width="51.024" height="11.339"/>
</g>
<g id="レイヤー_2">
	<g class="st3">
		<path class="st4" d="M108.693,247.28h-4.238v-5.74h4.182v0.688h-3.406v1.759h3.142v0.688h-3.142v1.919h3.462V247.28z"/>
		<path class="st4" d="M113.022,247.28h-0.896l-1.04-1.575l-1.007,1.575h-0.888l1.471-2.15l-1.399-2.031h0.903l0.967,1.472
			l0.968-1.472h0.863l-1.415,2.031L113.022,247.28z"/>
		<path class="st4" d="M117.174,245.968c-0.024,0.2-0.216,0.792-0.744,1.144c-0.192,0.128-0.464,0.288-1.135,0.288
			c-1.175,0-1.871-0.888-1.871-2.095c0-1.295,0.624-2.327,2.007-2.327c1.208,0,1.799,0.96,1.799,2.439h-3.055
			c0,0.871,0.408,1.375,1.215,1.375c0.664,0,1.056-0.512,1.08-0.824H117.174z M116.502,244.857c-0.04-0.647-0.312-1.247-1.167-1.247
			c-0.648,0-1.16,0.6-1.16,1.247H116.502z"/>
		<path class="st4" d="M120.687,244.505c-0.088-0.56-0.4-0.896-0.992-0.896c-0.871,0-1.151,0.832-1.151,1.575
			c0,0.72,0.176,1.607,1.144,1.607c0.472,0,0.879-0.352,1-0.991h0.68c-0.072,0.663-0.48,1.599-1.703,1.599
			c-1.175,0-1.871-0.888-1.871-2.095c0-1.295,0.624-2.327,2.007-2.327c1.096,0,1.511,0.8,1.567,1.527H120.687z"/>
		<path class="st4" d="M124.798,247.28v-0.607l-0.016-0.016c-0.296,0.487-0.655,0.743-1.327,0.743c-0.616,0-1.359-0.296-1.359-1.295
			v-3.007h0.703v2.774c0,0.688,0.353,0.92,0.808,0.92c0.888,0,1.151-0.784,1.151-1.392v-2.303h0.704v4.182H124.798z"/>
		<path class="st4" d="M127.384,243.682v2.719c0,0.327,0.279,0.327,0.424,0.327h0.247v0.552c-0.256,0.024-0.455,0.057-0.527,0.057
			c-0.695,0-0.848-0.393-0.848-0.896v-2.759h-0.567v-0.584h0.567v-1.167h0.704v1.167h0.671v0.584H127.384z"/>
		<path class="st4" d="M132.294,245.968c-0.023,0.2-0.216,0.792-0.743,1.144c-0.192,0.128-0.464,0.288-1.136,0.288
			c-1.175,0-1.871-0.888-1.871-2.095c0-1.295,0.624-2.327,2.007-2.327c1.208,0,1.799,0.96,1.799,2.439h-3.054
			c0,0.871,0.407,1.375,1.215,1.375c0.664,0,1.056-0.512,1.08-0.824H132.294z M131.623,244.857c-0.04-0.647-0.312-1.247-1.167-1.247
			c-0.647,0-1.159,0.6-1.159,1.247H131.623z"/>
	</g>
	<g class="st3">
		<path class="st4" d="M104.36,269.885h2.526c1.071,0,1.623,0.664,1.623,1.447c0,0.376-0.136,0.903-0.768,1.199
			c0.376,0.152,1.04,0.416,1.04,1.399c0,0.92-0.68,1.695-1.951,1.695h-2.471V269.885z M105.135,272.316h1.399
			c0.744,0,1.199-0.224,1.199-0.928c0-0.535-0.328-0.839-1.191-0.839h-1.407V272.316z M105.135,274.962h1.655
			c0.808,0,1.215-0.407,1.215-1.047c0-0.808-0.712-0.968-1.343-0.968h-1.527V274.962z"/>
		<path class="st4" d="M112.35,275.626v-0.607l-0.016-0.017c-0.296,0.488-0.656,0.744-1.328,0.744c-0.616,0-1.359-0.296-1.359-1.296
			v-3.006h0.703v2.774c0,0.688,0.352,0.919,0.808,0.919c0.888,0,1.151-0.783,1.151-1.391v-2.303h0.704v4.182H112.35z"/>
		<path class="st4" d="M116.447,272.636c-0.008-0.265-0.104-0.704-0.992-0.704c-0.216,0-0.832,0.072-0.832,0.592
			c0,0.344,0.216,0.424,0.76,0.56l0.704,0.176c0.872,0.216,1.175,0.536,1.175,1.104c0,0.863-0.711,1.384-1.655,1.384
			c-1.655,0-1.775-0.96-1.799-1.464h0.68c0.024,0.328,0.12,0.855,1.111,0.855c0.504,0,0.959-0.199,0.959-0.663
			c0-0.336-0.232-0.448-0.832-0.6l-0.815-0.2c-0.584-0.144-0.968-0.439-0.968-1.016c0-0.919,0.76-1.335,1.583-1.335
			c1.495,0,1.599,1.104,1.599,1.312H116.447z"/>
		<path class="st4" d="M120.687,271.445h0.775c-0.488,1.367-0.967,2.734-1.503,4.102c-0.664,1.695-0.736,1.791-1.639,1.791
			c-0.104,0-0.184-0.032-0.296-0.064v-0.64c0.088,0.032,0.232,0.072,0.424,0.072c0.368,0,0.408-0.104,0.744-0.968l-1.551-4.293h0.8
			l1.111,3.406h0.016L120.687,271.445z"/>
	</g>
	<g class="st3">
		<path class="st4" d="M104.416,298.233h2.327c1.495,0,2.415,1.135,2.415,2.79c0,1.287-0.56,2.95-2.447,2.95h-2.295V298.233z
			 M105.191,303.31h1.503c1.007,0,1.663-0.792,1.663-2.239s-0.664-2.175-1.719-2.175h-1.447V303.31z"/>
		<path class="st4" d="M111.767,299.671c1.335,0,1.943,1.128,1.943,2.207s-0.607,2.207-1.943,2.207
			c-1.335,0-1.943-1.128-1.943-2.207S110.432,299.671,111.767,299.671z M111.767,303.478c1.007,0,1.215-1.04,1.215-1.6
			s-0.208-1.599-1.215-1.599s-1.215,1.039-1.215,1.599S110.759,303.478,111.767,303.478z"/>
		<path class="st4" d="M117.917,303.973h-0.704v-2.574c0-0.728-0.208-1.096-0.896-1.096c-0.4,0-1.104,0.256-1.104,1.392v2.278
			h-0.704v-4.182h0.664v0.592h0.016c0.152-0.224,0.544-0.712,1.264-0.712c0.647,0,1.463,0.265,1.463,1.455V303.973z"/>
		<path class="st4" d="M122.51,302.662c-0.024,0.2-0.216,0.792-0.744,1.144c-0.192,0.128-0.464,0.288-1.135,0.288
			c-1.175,0-1.871-0.888-1.871-2.095c0-1.295,0.624-2.327,2.007-2.327c1.208,0,1.799,0.96,1.799,2.439h-3.055
			c0,0.871,0.408,1.375,1.215,1.375c0.664,0,1.056-0.512,1.08-0.824H122.51z M121.838,301.55c-0.04-0.647-0.312-1.247-1.167-1.247
			c-0.648,0-1.16,0.6-1.16,1.247H121.838z"/>
	</g>
	<g class="st3">
		<path class="st4" d="M108.694,332.319h-4.238v-5.74h4.182v0.688h-3.406v1.759h3.142v0.688h-3.142v1.919h3.462V332.319z"/>
		<path class="st4" d="M110.424,332.319h-0.704v-4.182h0.664v0.695h0.016c0.28-0.487,0.647-0.815,1.175-0.815
			c0.088,0,0.128,0.009,0.184,0.024v0.728h-0.264c-0.656,0-1.071,0.512-1.071,1.119V332.319z"/>
		<path class="st4" d="M113.088,332.319h-0.704v-4.182h0.664v0.695h0.016c0.28-0.487,0.647-0.815,1.175-0.815
			c0.088,0,0.128,0.009,0.184,0.024v0.728h-0.264c-0.656,0-1.071,0.512-1.071,1.119V332.319z"/>
		<path class="st4" d="M116.655,328.017c1.335,0,1.943,1.128,1.943,2.207s-0.607,2.207-1.943,2.207
			c-1.335,0-1.943-1.128-1.943-2.207S115.32,328.017,116.655,328.017z M116.655,331.824c1.008,0,1.215-1.04,1.215-1.6
			s-0.208-1.599-1.215-1.599c-1.007,0-1.215,1.039-1.215,1.599S115.648,331.824,116.655,331.824z"/>
		<path class="st4" d="M120.2,332.319h-0.704v-4.182h0.664v0.695h0.016c0.28-0.487,0.647-0.815,1.175-0.815
			c0.088,0,0.128,0.009,0.184,0.024v0.728h-0.264c-0.656,0-1.071,0.512-1.071,1.119V332.319z"/>
	</g>
	<g class="st3">
		<path class="st4" d="M108.694,360.667h-4.238v-5.741h4.182v0.688h-3.406v1.76h3.142v0.688h-3.142v1.919h3.462V360.667z"/>
		<path class="st4" d="M110.424,360.667h-0.704v-4.182h0.664v0.695h0.016c0.28-0.487,0.647-0.815,1.175-0.815
			c0.088,0,0.128,0.008,0.184,0.023v0.729h-0.264c-0.656,0-1.071,0.512-1.071,1.119V360.667z"/>
		<path class="st4" d="M113.088,360.667h-0.704v-4.182h0.664v0.695h0.016c0.28-0.487,0.647-0.815,1.175-0.815
			c0.088,0,0.128,0.008,0.184,0.023v0.729h-0.264c-0.656,0-1.071,0.512-1.071,1.119V360.667z"/>
		<path class="st4" d="M116.655,356.365c1.335,0,1.943,1.127,1.943,2.207c0,1.079-0.607,2.206-1.943,2.206
			c-1.335,0-1.943-1.127-1.943-2.206C114.712,357.492,115.32,356.365,116.655,356.365z M116.655,360.17
			c1.008,0,1.215-1.039,1.215-1.599s-0.208-1.6-1.215-1.6c-1.007,0-1.215,1.04-1.215,1.6S115.648,360.17,116.655,360.17z"/>
		<path class="st4" d="M120.2,360.667h-0.704v-4.182h0.664v0.695h0.016c0.28-0.487,0.647-0.815,1.175-0.815
			c0.088,0,0.128,0.008,0.184,0.023v0.729h-0.264c-0.656,0-1.071,0.512-1.071,1.119V360.667z"/>
		<path class="st4" d="M123.047,360.667h-0.775v-5.741h0.775V360.667z"/>
		<path class="st4" d="M124.417,354.925h2.326c1.496,0,2.415,1.136,2.415,2.791c0,1.287-0.56,2.95-2.446,2.95h-2.295V354.925z
			 M125.192,360.002h1.503c1.008,0,1.663-0.791,1.663-2.238s-0.663-2.175-1.719-2.175h-1.447V360.002z"/>
	</g>
	<g class="st3">
		<path class="st4" d="M172.919,360.818c-1.614,0-1.927-1.72-1.927-2.887s0.312-2.887,1.927-2.887c1.615,0,1.928,1.72,1.928,2.887
			S174.535,360.818,172.919,360.818z M172.919,355.676c-0.808,0-1.175,0.848-1.175,2.255s0.367,2.255,1.175,2.255
			s1.176-0.848,1.176-2.255S173.727,355.676,172.919,355.676z"/>
	</g>
	<g class="st3">
		<path class="st5" d="M155.593,213.073c-0.68,1.279-1.088,2.047-1.088,3.966c0,1.319,0.456,2.295,1.096,3.551h-0.472
			c-0.832-1.248-1.375-2.247-1.375-3.742c0-1.407,0.487-2.543,1.351-3.774H155.593z"/>
		<path class="st5" d="M158.745,218.934h-0.752v-3.99h-1.311v-0.56c0.911-0.063,1.287-0.152,1.511-1.071h0.552V218.934z"/>
		<path class="st5" d="M160.602,220.589c0.68-1.279,1.088-2.047,1.088-3.966c0-1.319-0.456-2.295-1.096-3.551h0.472
			c0.832,1.248,1.375,2.247,1.375,3.742c0,1.407-0.487,2.543-1.351,3.774H160.602z"/>
	</g>
	<g class="st3">
		<path class="st5" d="M218.585,213.073c-0.68,1.279-1.088,2.047-1.088,3.966c0,1.319,0.456,2.295,1.096,3.551h-0.472
			c-0.832-1.248-1.375-2.247-1.375-3.742c0-1.407,0.487-2.543,1.351-3.774H218.585z"/>
		<path class="st5" d="M219.218,215.328c0-1.831,1.335-2.015,1.943-2.015c0.975,0,1.759,0.632,1.759,1.679
			c0,1.008-0.664,1.432-1.503,1.879l-0.584,0.32c-0.768,0.424-0.936,0.863-0.968,1.079h3.055v0.664h-3.846
			c0.04-1.168,0.567-1.791,1.319-2.231l0.743-0.432c0.6-0.344,1.031-0.575,1.031-1.311c0-0.448-0.288-1.016-1.111-1.016
			c-1.063,0-1.111,0.991-1.135,1.383H219.218z"/>
		<path class="st5" d="M223.594,220.589c0.68-1.279,1.088-2.047,1.088-3.966c0-1.319-0.456-2.295-1.096-3.551h0.472
			c0.832,1.248,1.375,2.247,1.375,3.742c0,1.407-0.487,2.543-1.351,3.774H223.594z"/>
	</g>
	<g class="st3">
		<path class="st5" d="M250.082,213.073c-0.68,1.279-1.088,2.047-1.088,3.966c0,1.319,0.456,2.295,1.096,3.551h-0.472
			c-0.832-1.248-1.375-2.247-1.375-3.742c0-1.407,0.487-2.543,1.351-3.774H250.082z"/>
		<path class="st5" d="M252.154,215.736c0.12,0.008,0.248,0.016,0.367,0.016c0.544,0,1.072-0.216,1.072-0.919
			c0-0.336-0.2-0.888-1.04-0.888c-0.999,0-1.063,0.815-1.096,1.207h-0.688c0-0.823,0.336-1.839,1.815-1.839
			c1.087,0,1.735,0.624,1.735,1.479c0,0.719-0.416,1.063-0.72,1.159v0.016c0.543,0.176,0.936,0.56,0.936,1.312
			c0,0.919-0.592,1.807-2.023,1.807c-0.416,0-0.768-0.104-1.039-0.248c-0.624-0.327-0.792-0.975-0.84-1.623h0.728
			c0.024,0.528,0.152,1.239,1.199,1.239c0.72,0,1.224-0.439,1.224-1.087c0-0.943-0.831-1.031-1.312-1.031
			c-0.104,0-0.216,0.008-0.319,0.008V215.736z"/>
		<path class="st5" d="M255.09,220.589c0.68-1.279,1.088-2.047,1.088-3.966c0-1.319-0.456-2.295-1.096-3.551h0.472
			c0.832,1.248,1.375,2.247,1.375,3.742c0,1.407-0.487,2.543-1.351,3.774H255.09z"/>
	</g>
	<g class="st3">
		<path class="st5" d="M357.17,213.073c-0.68,1.279-1.088,2.047-1.088,3.966c0,1.319,0.456,2.295,1.096,3.551h-0.472
			c-0.832-1.248-1.375-2.247-1.375-3.742c0-1.407,0.487-2.543,1.351-3.774H357.17z"/>
		<path class="st5" d="M360.81,217.567v1.367h-0.704v-1.367h-2.454v-0.688l2.574-3.566h0.584v3.646h0.823v0.608H360.81z
			 M358.299,216.958h1.807v-2.55h-0.016L358.299,216.958z"/>
		<path class="st5" d="M362.18,220.589c0.679-1.279,1.087-2.047,1.087-3.966c0-1.319-0.456-2.295-1.096-3.551h0.472
			c0.832,1.248,1.376,2.247,1.376,3.742c0,1.407-0.488,2.543-1.352,3.774H362.18z"/>
	</g>
	<g class="st3">
		<path class="st5" d="M407.565,213.073c-0.68,1.279-1.088,2.047-1.088,3.966c0,1.319,0.456,2.295,1.096,3.551h-0.472
			c-0.832-1.248-1.375-2.247-1.375-3.742c0-1.407,0.487-2.543,1.351-3.774H407.565z"/>
		<path class="st5" d="M409.022,215.664c0.239-0.184,0.583-0.352,1.087-0.352c0.911,0,1.847,0.64,1.847,1.799
			c0,0.624-0.279,1.975-2.038,1.975c-0.736,0-1.68-0.296-1.815-1.551h0.728c0.072,0.655,0.56,0.943,1.191,0.943
			c0.728,0,1.184-0.584,1.184-1.287c0-0.808-0.552-1.247-1.248-1.247c-0.407,0-0.775,0.191-1.039,0.535l-0.607-0.032l0.424-3.014
			h2.91v0.688h-2.383L409.022,215.664z"/>
		<path class="st5" d="M412.575,220.589c0.679-1.279,1.087-2.047,1.087-3.966c0-1.319-0.456-2.295-1.096-3.551h0.472
			c0.832,1.248,1.376,2.247,1.376,3.742c0,1.407-0.488,2.543-1.352,3.774H412.575z"/>
	</g>
	<g class="st3">
		<path class="st5" d="M420.162,213.073c-0.68,1.279-1.088,2.047-1.088,3.966c0,1.319,0.456,2.295,1.096,3.551h-0.472
			c-0.831-1.248-1.375-2.247-1.375-3.742c0-1.407,0.487-2.543,1.351-3.774H420.162z"/>
		<path class="st5" d="M423.777,214.808c-0.088-0.496-0.359-0.863-0.967-0.863c-1.104,0-1.336,1.487-1.336,2.078l0.017,0.017
			c0.176-0.304,0.567-0.688,1.335-0.688c0.688,0,1.759,0.439,1.759,1.783c0,0.575-0.151,0.991-0.535,1.407
			c-0.296,0.327-0.632,0.543-1.424,0.543c-0.432,0-1.047-0.191-1.447-0.815c-0.336-0.527-0.432-1.215-0.432-1.951
			c0-1.23,0.399-3.006,2.079-3.006c0.647,0,1.567,0.352,1.639,1.495H423.777z M422.753,218.454c0.672,0,1.104-0.527,1.104-1.287
			c0-0.495-0.264-1.183-1.136-1.183c-0.775,0-1.151,0.56-1.151,1.223C421.57,217.806,421.93,218.454,422.753,218.454z"/>
		<path class="st5" d="M425.171,220.589c0.68-1.279,1.087-2.047,1.087-3.966c0-1.319-0.456-2.295-1.096-3.551h0.472
			c0.832,1.248,1.376,2.247,1.376,3.742c0,1.407-0.488,2.543-1.352,3.774H425.171z"/>
	</g>
	<g>
		<path d="M4.925,27.333H0.688v-5.741h4.182v0.688H1.463v1.759h3.142v0.688H1.463v1.919h3.462V27.333z"/>
		<path d="M9.254,27.333H8.358l-1.04-1.575l-1.007,1.575H5.424l1.471-2.151l-1.399-2.031h0.903l0.967,1.471l0.968-1.471h0.863
			l-1.415,2.031L9.254,27.333z"/>
		<path d="M13.406,26.022c-0.024,0.2-0.216,0.792-0.744,1.144c-0.192,0.128-0.464,0.288-1.135,0.288
			c-1.175,0-1.871-0.888-1.871-2.095c0-1.295,0.624-2.327,2.007-2.327c1.208,0,1.799,0.959,1.799,2.439h-3.055
			c0,0.872,0.408,1.375,1.215,1.375c0.664,0,1.056-0.512,1.08-0.824H13.406z M12.734,24.911c-0.04-0.647-0.312-1.247-1.167-1.247
			c-0.648,0-1.16,0.6-1.16,1.247H12.734z"/>
		<path d="M16.918,24.559c-0.088-0.56-0.4-0.896-0.992-0.896c-0.871,0-1.151,0.832-1.151,1.575c0,0.72,0.176,1.607,1.144,1.607
			c0.472,0,0.879-0.352,1-0.991h0.68c-0.072,0.664-0.48,1.599-1.703,1.599c-1.175,0-1.871-0.888-1.871-2.095
			c0-1.295,0.624-2.327,2.007-2.327c1.096,0,1.511,0.8,1.567,1.527H16.918z"/>
		<path d="M21.03,27.333v-0.607l-0.016-0.016c-0.296,0.488-0.656,0.744-1.328,0.744c-0.616,0-1.359-0.296-1.359-1.295v-3.006h0.703
			v2.774c0,0.688,0.352,0.919,0.808,0.919c0.888,0,1.151-0.784,1.151-1.391v-2.303h0.704v4.182H21.03z"/>
		<path d="M23.616,23.735v2.719c0,0.328,0.28,0.328,0.424,0.328h0.248v0.552c-0.256,0.024-0.456,0.056-0.527,0.056
			c-0.696,0-0.848-0.392-0.848-0.896v-2.759h-0.568v-0.583h0.568v-1.167h0.704v1.167h0.671v0.583H23.616z"/>
		<path d="M28.526,26.022c-0.024,0.2-0.216,0.792-0.744,1.144c-0.192,0.128-0.464,0.288-1.135,0.288
			c-1.175,0-1.871-0.888-1.871-2.095c0-1.295,0.624-2.327,2.007-2.327c1.208,0,1.799,0.959,1.799,2.439h-3.054
			c0,0.872,0.408,1.375,1.215,1.375c0.664,0,1.056-0.512,1.08-0.824H28.526z M27.854,24.911c-0.04-0.647-0.312-1.247-1.167-1.247
			c-0.648,0-1.16,0.6-1.16,1.247H27.854z"/>
	</g>
	<g>
		<path d="M0.43,118.641c0.13,0.026,0.255,0.039,0.375,0.039h0.852v-1.039c0-0.172-0.011-0.346-0.031-0.523
			c0.213,0.037,0.442,0.055,0.688,0.055c-0.062,0.167-0.094,0.357-0.094,0.57v0.938h0.492c0.13,0,0.255-0.013,0.375-0.039
			c-0.021,0.099-0.031,0.193-0.031,0.281c0,0.109,0.01,0.214,0.031,0.312c-0.12-0.021-0.245-0.031-0.375-0.031H2.219v1.398
			c0.307-0.114,0.596-0.237,0.867-0.367c-0.021,0.308-0.031,0.516-0.031,0.625c-0.312,0.104-0.591,0.198-0.836,0.281v2.695
			c0,0.271-0.102,0.448-0.305,0.531c-0.193,0.083-0.479,0.125-0.859,0.125c-0.047-0.261-0.151-0.479-0.312-0.656h0.477
			c0.292,0,0.438-0.107,0.438-0.32v-2.172c-0.521,0.193-0.886,0.357-1.094,0.492c-0.011-0.203-0.076-0.432-0.195-0.688
			c0.448-0.094,0.877-0.208,1.289-0.344v-1.602H0.805c-0.12,0-0.245,0.011-0.375,0.031c0.021-0.099,0.031-0.203,0.031-0.312
			C0.461,118.834,0.45,118.74,0.43,118.641z M3.492,120.61c0.286,0.047,0.567,0.07,0.844,0.07h1.852c0.281,0,0.56-0.023,0.836-0.07
			c-0.037,0.25-0.055,0.503-0.055,0.758v2.273c0,0.276,0.018,0.549,0.055,0.82c-0.156-0.021-0.261-0.031-0.312-0.031
			c-0.052,0-0.167,0.01-0.344,0.031c0.036-0.219,0.055-0.438,0.055-0.656H4.094c0.005,0.219,0.023,0.438,0.055,0.656
			c-0.167-0.021-0.281-0.031-0.344-0.031c-0.052,0-0.156,0.01-0.312,0.031c0.047-0.271,0.07-0.544,0.07-0.82v-2.273
			C3.562,121.113,3.539,120.86,3.492,120.61z M6.875,117.493c0.109,0.229,0.255,0.417,0.438,0.562
			c-0.141,0.016-0.378,0.065-0.711,0.148c-0.802,0.234-1.62,0.445-2.453,0.633v0.625c0,0.146,0.062,0.219,0.188,0.219h2.031
			c0.234,0,0.403-0.049,0.508-0.148c0.099-0.083,0.148-0.307,0.148-0.672c0.114,0.151,0.284,0.255,0.508,0.312
			c-0.058,0.339-0.141,0.576-0.25,0.711c-0.141,0.177-0.404,0.266-0.789,0.266H4.117c-0.323,0-0.487-0.114-0.492-0.344v-2.164
			c0-0.172-0.021-0.346-0.062-0.523c0.219,0.037,0.438,0.055,0.656,0.055c-0.047,0.094-0.07,0.201-0.07,0.32v0.938
			c0.438-0.109,0.864-0.229,1.281-0.359C6.002,117.899,6.484,117.707,6.875,117.493z M4.086,121.954H6.43v-0.805H4.086V121.954z
			 M4.086,123.329H6.43v-0.898H4.086V123.329z"/>
		<path d="M11.68,117.086c0.286,0.141,0.591,0.234,0.914,0.281c-0.13,0.089-0.258,0.201-0.383,0.336
			c0.328,0.511,0.747,0.948,1.258,1.312c0.505,0.365,1.242,0.688,2.211,0.969c-0.208,0.198-0.373,0.44-0.492,0.727
			c-0.943-0.432-1.662-0.862-2.156-1.289c-0.464-0.364-0.839-0.82-1.125-1.367c-0.781,0.958-1.802,1.844-3.062,2.656
			c-0.136-0.192-0.344-0.38-0.625-0.562c0.849-0.396,1.565-0.867,2.148-1.414C10.94,118.219,11.377,117.67,11.68,117.086z
			 M9.086,120.922c0.208,0.021,0.417,0.031,0.625,0.031h3.781c0.328,0,0.651-0.01,0.969-0.031c-0.484,0.568-1.195,1.427-2.133,2.578
			c0.417,0.172,0.838,0.346,1.266,0.523c-0.214,0.198-0.362,0.393-0.445,0.586c-1.167-0.646-2.341-1.174-3.523-1.586
			c0.172-0.151,0.315-0.32,0.43-0.508c0.536,0.24,1.094,0.484,1.672,0.734l1.555-1.734h-3.57c-0.208,0-0.417,0.011-0.625,0.031
			c0.021-0.099,0.031-0.203,0.031-0.312C9.117,121.136,9.106,121.032,9.086,120.922z M11.969,119.086
			c0.12,0.354,0.284,0.737,0.492,1.148c-0.203,0.042-0.409,0.117-0.617,0.227c-0.089-0.375-0.248-0.784-0.477-1.227
			C11.581,119.209,11.781,119.16,11.969,119.086z"/>
		<path d="M16.531,120.086c0.338,0.021,0.682,0.031,1.031,0.031c0.161,0,0.325-0.01,0.492-0.031
			c-0.021,0.219-0.031,0.438-0.031,0.656v2.383c0.036,0.016,0.07,0.031,0.102,0.047c0.766,0.401,1.763,0.602,2.992,0.602
			c0.5,0,1.336-0.044,2.508-0.133c-0.109,0.167-0.185,0.385-0.227,0.656h-2.062c-1.365,0-2.435-0.211-3.211-0.633
			c-0.177-0.099-0.305-0.148-0.383-0.148c-0.193,0-0.505,0.26-0.938,0.781c-0.13-0.172-0.294-0.308-0.492-0.406l0.812-0.625
			c0.12-0.083,0.231-0.146,0.336-0.188v-2.438c-0.308,0-0.617,0.013-0.93,0.039c0.021-0.109,0.031-0.213,0.031-0.312
			C16.562,120.269,16.552,120.175,16.531,120.086z M17.461,117.547c0.177,0.583,0.406,1.097,0.688,1.539
			c-0.188,0.021-0.394,0.091-0.617,0.211c-0.193-0.635-0.401-1.143-0.625-1.523C17.094,117.738,17.278,117.662,17.461,117.547z
			 M18.492,117.985c0.297,0.047,0.588,0.07,0.875,0.07h1.289c0-0.312-0.021-0.614-0.062-0.906c0.198,0.016,0.438,0.023,0.719,0.023
			c-0.062,0.151-0.094,0.341-0.094,0.57v0.312h1.375c0.286,0,0.575-0.023,0.867-0.07c-0.021,0.109-0.031,0.214-0.031,0.312
			c0,0.109,0.01,0.214,0.031,0.312c-0.292-0.042-0.581-0.062-0.867-0.062h-1.375v0.656h0.898c0.328,0,0.651-0.01,0.969-0.031
			c-0.021,0.172-0.031,0.341-0.031,0.508v0.898c0,0.198,0.01,0.396,0.031,0.594c-0.318-0.016-0.641-0.023-0.969-0.023h-0.898v1.25
			c0,0.359,0.021,0.724,0.062,1.094c-0.12-0.021-0.234-0.031-0.344-0.031c-0.12,0-0.234,0.011-0.344,0.031
			c0.042-0.37,0.062-0.734,0.062-1.094v-1.219c-0.484,0.797-1.112,1.472-1.883,2.023c-0.109-0.146-0.255-0.289-0.438-0.43
			c0.692-0.344,1.289-0.885,1.789-1.625h-0.383c-0.318,0-0.641,0.008-0.969,0.023c0.021-0.198,0.031-0.396,0.031-0.594v-0.898
			c-0.021-0.167-0.031-0.336-0.031-0.508c0.328,0.021,0.651,0.031,0.969,0.031h0.914v-0.656h-1.289
			c-0.287,0-0.578,0.021-0.875,0.062c0.026-0.099,0.039-0.203,0.039-0.312C18.531,118.199,18.518,118.094,18.492,117.985z
			 M20.656,120.68v-1h-1.289v1H20.656z M22.492,120.68v-1h-1.273v1H22.492z M21.742,121.461c0.469,0.354,0.992,0.727,1.57,1.117
			c-0.172,0.167-0.287,0.326-0.344,0.477c-0.531-0.489-1.065-0.888-1.602-1.195C21.518,121.746,21.643,121.613,21.742,121.461z"/>
		<path d="M28.562,117.149c0.114,0.271,0.239,0.562,0.375,0.875h1.773c0.219,0,0.438-0.013,0.656-0.039
			c-0.021,0.099-0.031,0.193-0.031,0.281c0,0.109,0.01,0.214,0.031,0.312c-0.219-0.021-0.438-0.031-0.656-0.031h-4.688v0.945h1.312
			v-0.406c0-0.141-0.019-0.276-0.055-0.406c0.208,0.047,0.438,0.078,0.688,0.094c-0.062,0.125-0.094,0.25-0.094,0.375v0.344h1.617
			v-0.32c0-0.135-0.021-0.268-0.062-0.398c0.188,0.031,0.417,0.052,0.688,0.062c-0.062,0.136-0.094,0.289-0.094,0.461v0.195h0.688
			c0.245,0,0.505-0.01,0.781-0.031c-0.021,0.099-0.031,0.193-0.031,0.281c0,0.104,0.01,0.198,0.031,0.281
			c-0.183-0.026-0.443-0.039-0.781-0.039h-0.688v0.758c0,0.162,0.01,0.326,0.031,0.492c-0.156-0.021-0.31-0.031-0.461-0.031h-1.75
			c-0.188,0-0.375,0.011-0.562,0.031c0.036-0.151,0.055-0.305,0.055-0.461v-0.789h-1.312v1.07c-0.016,0.62-0.107,1.203-0.273,1.75
			c-0.115,0.438-0.375,0.979-0.781,1.625c-0.172-0.183-0.383-0.287-0.633-0.312c0.37-0.448,0.638-0.909,0.805-1.383
			c0.192-0.573,0.289-1.133,0.289-1.68v-2.312c0-0.25-0.021-0.502-0.062-0.758c0.229,0.026,0.458,0.039,0.688,0.039h2.25
			c-0.141-0.307-0.284-0.57-0.43-0.789C28.094,117.214,28.323,117.186,28.562,117.149z M26.531,121.711
			c0.182,0.021,0.367,0.031,0.555,0.031h2.758c0.26,0,0.521-0.01,0.781-0.031c-0.391,0.594-0.779,1.065-1.164,1.414
			c-0.109,0.094-0.229,0.188-0.359,0.281c0.031,0.011,0.06,0.021,0.086,0.031c0.594,0.234,1.362,0.396,2.305,0.484
			c-0.188,0.234-0.323,0.442-0.406,0.625c-0.958-0.183-1.732-0.422-2.32-0.719c-0.068-0.037-0.13-0.07-0.188-0.102
			c-0.25,0.13-0.519,0.247-0.805,0.352c-0.62,0.208-1.172,0.354-1.656,0.438c-0.094-0.224-0.248-0.422-0.461-0.594
			c0.708-0.062,1.305-0.167,1.789-0.312c0.208-0.062,0.403-0.135,0.586-0.219c-0.349-0.245-0.685-0.536-1.008-0.875
			c0.203-0.083,0.372-0.188,0.508-0.312c0.286,0.365,0.63,0.667,1.031,0.906c0.057-0.031,0.109-0.062,0.156-0.094
			c0.281-0.203,0.562-0.474,0.844-0.812h-2.477c-0.188,0-0.373,0.011-0.555,0.031c0.021-0.088,0.031-0.182,0.031-0.281
			C26.562,121.875,26.552,121.795,26.531,121.711z M27.875,119.985v0.758h1.617v-0.758H27.875z"/>
	</g>
	<g>
		<path d="M0.647,44.27h2.327c1.495,0,2.415,1.135,2.415,2.791c0,1.287-0.56,2.95-2.447,2.95H0.647V44.27z M1.423,49.347h1.503
			c1.007,0,1.663-0.792,1.663-2.239s-0.664-2.175-1.719-2.175H1.423V49.347z"/>
		<path d="M7.999,45.708c1.335,0,1.943,1.127,1.943,2.207c0,1.079-0.607,2.207-1.943,2.207c-1.335,0-1.943-1.127-1.943-2.207
			C6.056,46.836,6.664,45.708,7.999,45.708z M7.999,49.515c1.007,0,1.215-1.04,1.215-1.599s-0.208-1.599-1.215-1.599
			s-1.215,1.04-1.215,1.599S6.991,49.515,7.999,49.515z"/>
		<path d="M14.149,50.01h-0.704v-2.575c0-0.728-0.208-1.095-0.896-1.095c-0.4,0-1.104,0.256-1.104,1.391v2.279h-0.704v-4.182h0.664
			v0.592h0.016c0.152-0.224,0.544-0.712,1.264-0.712c0.647,0,1.463,0.264,1.463,1.455V50.01z"/>
		<path d="M18.742,48.699c-0.024,0.2-0.216,0.792-0.744,1.144c-0.192,0.128-0.464,0.288-1.135,0.288
			c-1.175,0-1.871-0.888-1.871-2.095c0-1.295,0.624-2.327,2.007-2.327c1.208,0,1.799,0.959,1.799,2.439h-3.055
			c0,0.872,0.408,1.375,1.215,1.375c0.664,0,1.056-0.512,1.08-0.824H18.742z M18.07,47.587c-0.04-0.647-0.312-1.247-1.167-1.247
			c-0.648,0-1.16,0.6-1.16,1.247H18.07z"/>
	</g>
	<g>
		<path d="M0.592,72.616h2.526c1.071,0,1.623,0.664,1.623,1.447c0,0.375-0.136,0.903-0.768,1.199c0.376,0.152,1.04,0.416,1.04,1.399
			c0,0.92-0.68,1.695-1.951,1.695H0.592V72.616z M1.367,75.047h1.399c0.744,0,1.199-0.224,1.199-0.928
			c0-0.536-0.328-0.839-1.191-0.839H1.367V75.047z M1.367,77.693h1.655c0.808,0,1.215-0.408,1.215-1.047
			c0-0.808-0.712-0.968-1.343-0.968H1.367V77.693z"/>
		<path d="M8.582,78.357V77.75l-0.016-0.016c-0.296,0.488-0.656,0.744-1.328,0.744c-0.616,0-1.359-0.296-1.359-1.295v-3.006h0.703
			v2.774c0,0.688,0.352,0.919,0.808,0.919c0.888,0,1.151-0.784,1.151-1.391v-2.303h0.704v4.182H8.582z"/>
		<path d="M12.679,75.367c-0.008-0.264-0.104-0.704-0.992-0.704c-0.216,0-0.832,0.072-0.832,0.591c0,0.344,0.216,0.424,0.76,0.56
			l0.704,0.176c0.872,0.216,1.175,0.536,1.175,1.104c0,0.863-0.711,1.383-1.655,1.383c-1.655,0-1.775-0.959-1.799-1.463h0.68
			c0.024,0.328,0.12,0.855,1.111,0.855c0.504,0,0.959-0.2,0.959-0.664c0-0.336-0.232-0.448-0.832-0.6l-0.815-0.2
			c-0.584-0.144-0.968-0.439-0.968-1.015c0-0.919,0.76-1.335,1.583-1.335c1.495,0,1.599,1.104,1.599,1.312H12.679z"/>
		<path d="M16.918,74.175h0.775c-0.488,1.367-0.967,2.734-1.503,4.102c-0.664,1.695-0.736,1.791-1.639,1.791
			c-0.104,0-0.184-0.032-0.296-0.064v-0.64c0.088,0.032,0.232,0.072,0.424,0.072c0.368,0,0.408-0.104,0.744-0.968l-1.551-4.293h0.8
			l1.111,3.406h0.016L16.918,74.175z"/>
	</g>
	<g>
		<path d="M47.767,0.779c-0.68,1.279-1.087,2.047-1.087,3.966c0,1.319,0.456,2.295,1.095,3.55h-0.472
			c-0.832-1.248-1.375-2.247-1.375-3.742c0-1.407,0.488-2.542,1.352-3.774H47.767z"/>
		<path d="M50.919,6.64h-0.752V2.65h-1.311v-0.56c0.912-0.064,1.287-0.152,1.511-1.072h0.552V6.64z"/>
		<path d="M52.776,8.295c0.68-1.279,1.087-2.047,1.087-3.966c0-1.319-0.456-2.295-1.095-3.55h0.472
			c0.832,1.248,1.375,2.247,1.375,3.742c0,1.407-0.488,2.542-1.351,3.774H52.776z"/>
	</g>
	<g>
		<path d="M183.781,0.779c-0.68,1.279-1.087,2.047-1.087,3.966c0,1.319,0.455,2.295,1.095,3.55h-0.472
			c-0.831-1.248-1.375-2.247-1.375-3.742c0-1.407,0.487-2.542,1.352-3.774H183.781z"/>
		<path d="M184.415,3.034c0-1.831,1.335-2.015,1.942-2.015c0.976,0,1.759,0.632,1.759,1.679c0,1.007-0.663,1.431-1.503,1.879
			l-0.584,0.32c-0.768,0.424-0.936,0.864-0.967,1.08h3.054V6.64h-3.846c0.04-1.167,0.567-1.791,1.319-2.231l0.744-0.432
			c0.6-0.344,1.031-0.576,1.031-1.311c0-0.448-0.288-1.016-1.111-1.016c-1.063,0-1.111,0.991-1.136,1.383H184.415z"/>
		<path d="M188.79,8.295c0.68-1.279,1.088-2.047,1.088-3.966c0-1.319-0.456-2.295-1.096-3.55h0.472
			c0.832,1.248,1.375,2.247,1.375,3.742c0,1.407-0.487,2.542-1.351,3.774H188.79z"/>
	</g>
	<g>
		<path d="M234.343,0.779c-0.68,1.279-1.088,2.047-1.088,3.966c0,1.319,0.456,2.295,1.096,3.55h-0.472
			c-0.832-1.248-1.376-2.247-1.376-3.742c0-1.407,0.488-2.542,1.352-3.774H234.343z"/>
		<path d="M236.416,3.442c0.12,0.008,0.248,0.016,0.367,0.016c0.544,0,1.071-0.216,1.071-0.919c0-0.336-0.199-0.888-1.039-0.888
			c-0.999,0-1.063,0.815-1.096,1.208h-0.688c0-0.824,0.336-1.839,1.815-1.839c1.087,0,1.735,0.624,1.735,1.479
			c0,0.72-0.416,1.063-0.72,1.159v0.016c0.543,0.176,0.936,0.56,0.936,1.311c0,0.92-0.592,1.807-2.023,1.807
			c-0.416,0-0.768-0.104-1.039-0.248c-0.624-0.328-0.792-0.976-0.84-1.624h0.728c0.024,0.528,0.152,1.24,1.199,1.24
			c0.72,0,1.224-0.44,1.224-1.088c0-0.943-0.832-1.031-1.312-1.031c-0.104,0-0.216,0.008-0.319,0.008V3.442z"/>
		<path d="M239.352,8.295c0.68-1.279,1.087-2.047,1.087-3.966c0-1.319-0.455-2.295-1.095-3.55h0.472
			c0.831,1.248,1.375,2.247,1.375,3.742c0,1.407-0.488,2.542-1.352,3.774H239.352z"/>
	</g>
	<g>
		<path d="M268.725,0.779c-0.68,1.279-1.088,2.047-1.088,3.966c0,1.319,0.456,2.295,1.096,3.55h-0.472
			c-0.832-1.248-1.376-2.247-1.376-3.742c0-1.407,0.488-2.542,1.352-3.774H268.725z"/>
		<path d="M272.364,5.273V6.64h-0.703V5.273h-2.455V4.585l2.575-3.566h0.583v3.646h0.824v0.608H272.364z M269.854,4.665h1.807v-2.55
			h-0.016L269.854,4.665z"/>
		<path d="M273.734,8.295c0.68-1.279,1.087-2.047,1.087-3.966c0-1.319-0.455-2.295-1.095-3.55h0.472
			c0.831,1.248,1.375,2.247,1.375,3.742c0,1.407-0.488,2.542-1.352,3.774H273.734z"/>
	</g>
	<g>
		<path d="M319.893,0.779c-0.68,1.279-1.087,2.047-1.087,3.966c0,1.319,0.455,2.295,1.095,3.55h-0.472
			c-0.831-1.248-1.375-2.247-1.375-3.742c0-1.407,0.487-2.542,1.352-3.774H319.893z"/>
		<path d="M321.35,3.37c0.239-0.184,0.584-0.352,1.087-0.352c0.912,0,1.848,0.64,1.848,1.799c0,0.624-0.28,1.975-2.039,1.975
			c-0.735,0-1.68-0.296-1.815-1.551h0.728c0.072,0.656,0.56,0.944,1.191,0.944c0.728,0,1.184-0.584,1.184-1.288
			c0-0.808-0.552-1.247-1.247-1.247c-0.408,0-0.775,0.192-1.04,0.536l-0.607-0.032l0.424-3.014h2.91v0.688h-2.383L321.35,3.37z"/>
		<path d="M324.902,8.295c0.68-1.279,1.088-2.047,1.088-3.966c0-1.319-0.456-2.295-1.096-3.55h0.472
			c0.832,1.248,1.375,2.247,1.375,3.742c0,1.407-0.487,2.542-1.351,3.774H324.902z"/>
	</g>
	<g>
		<path class="st6" d="M130.273,158.105v-1.17c-0.282,0.45-0.653,0.864-1.002,1.115c-0.065-0.09-0.174-0.222-0.258-0.281
			c0.402-0.246,0.84-0.726,1.122-1.205h-0.99v-0.342h1.128v-0.666l0.498,0.03c-0.007,0.042-0.042,0.071-0.12,0.084v0.552h0.989
			v0.342h-0.989v0.132c0.228,0.144,0.852,0.569,1.007,0.689l-0.222,0.281c-0.149-0.138-0.51-0.419-0.785-0.629v1.067H130.273z
			 M130.764,159.963c-0.023,0.042-0.071,0.055-0.125,0.048c-0.294,0.391-0.774,0.792-1.212,1.044
			c-0.072-0.072-0.216-0.192-0.306-0.252c0.432-0.222,0.899-0.611,1.175-1.014L130.764,159.963z M129.175,159.538v-0.354h5.295
			v0.354h-2.446v1.151c0,0.229-0.054,0.33-0.246,0.39c-0.186,0.061-0.497,0.061-0.978,0.061c-0.023-0.108-0.09-0.252-0.144-0.36
			c0.233,0.007,0.443,0.013,0.6,0.013c0.317,0,0.359,0,0.359-0.108v-1.146H129.175z M129.883,158.657v-0.342h3.951v0.342H129.883z
			 M134.525,156.564h-1.05c0.3,0.443,0.762,0.905,1.151,1.151c-0.078,0.06-0.198,0.191-0.258,0.275
			c-0.348-0.246-0.743-0.678-1.043-1.121v1.235h-0.378v-1.235c-0.307,0.455-0.72,0.881-1.109,1.127
			c-0.061-0.084-0.168-0.216-0.252-0.275c0.426-0.234,0.899-0.696,1.193-1.157h-0.936v-0.342h1.104v-0.666l0.497,0.03
			c-0.006,0.042-0.036,0.071-0.119,0.084v0.552h1.199V156.564z M134.063,161.079c-0.258-0.3-0.804-0.761-1.241-1.079l0.317-0.198
			c0.438,0.312,0.989,0.756,1.26,1.056L134.063,161.079z"/>
		<path class="st6" d="M140.153,155.994v4.558c0,0.552-0.264,0.558-1.397,0.546c-0.018-0.103-0.084-0.282-0.144-0.39
			c0.222,0.006,0.438,0.012,0.611,0.012c0.498,0,0.527,0,0.527-0.168v-1.301h-1.727v1.822h-0.39v-1.822h-1.577
			c-0.09,0.684-0.294,1.385-0.768,1.912c-0.061-0.077-0.216-0.216-0.306-0.27c0.671-0.756,0.737-1.835,0.737-2.692v-2.207H140.153z
			 M136.117,158.201c0,0.21-0.006,0.432-0.023,0.666h1.541v-1.05h-1.518V158.201z M137.634,156.377h-1.518v1.062h1.518V156.377z
			 M139.75,157.439v-1.062h-1.727v1.062H139.75z M138.024,158.867h1.727v-1.05h-1.727V158.867z"/>
		<path class="st6" d="M142.246,157.312c0.141,0.016,0.312,0.023,0.516,0.023c-0.051,0.105-0.076,0.238-0.076,0.398v0.65h0.076
			c0.176,0,0.369-0.008,0.58-0.023c-0.016,0.074-0.023,0.146-0.023,0.217c0,0.059,0.008,0.129,0.023,0.211
			c-0.211-0.016-0.404-0.023-0.58-0.023h-0.076v0.773c0.23-0.035,0.449-0.076,0.656-0.123v0.404
			c-0.238,0.031-0.457,0.062-0.656,0.094v0.375c0,0.254,0.018,0.512,0.053,0.773c-0.09-0.016-0.176-0.023-0.258-0.023
			s-0.16,0.008-0.234,0.023c0.031-0.262,0.047-0.52,0.047-0.773v-0.311c-0.531,0.086-0.9,0.156-1.107,0.211
			c-0.008-0.125-0.047-0.271-0.117-0.439c0.43-0.043,0.838-0.092,1.225-0.146v-0.838h-0.686c-0.141,0-0.297,0.008-0.469,0.023
			c-0.023-0.129-0.047-0.248-0.07-0.357c0.098-0.078,0.188-0.193,0.27-0.346c0.086-0.141,0.176-0.361,0.27-0.662
			c0.051-0.164,0.102-0.357,0.152-0.58h-0.434c-0.094,0-0.186,0.006-0.275,0.018c0.012-0.066,0.018-0.137,0.018-0.211
			c0-0.066-0.006-0.137-0.018-0.211c0.09,0.016,0.182,0.023,0.275,0.023h0.516c0.055-0.266,0.111-0.561,0.17-0.885
			c0.164,0.039,0.35,0.068,0.557,0.088c-0.105,0.121-0.195,0.346-0.27,0.674c-0.008,0.043-0.018,0.084-0.029,0.123h0.838
			c0.098,0,0.191-0.008,0.281-0.023c-0.016,0.074-0.023,0.145-0.023,0.211c0,0.074,0.008,0.145,0.023,0.211
			c-0.09-0.012-0.184-0.018-0.281-0.018h-0.932c-0.164,0.652-0.33,1.166-0.498,1.541h0.615v-0.422
			C142.292,157.744,142.277,157.527,142.246,157.312z M143.558,156.82c0.207,0.027,0.416,0.041,0.627,0.041h0.568v-0.838
			c0-0.148-0.016-0.297-0.047-0.445c0.141,0.039,0.312,0.061,0.516,0.064c-0.051,0.098-0.076,0.225-0.076,0.381v0.838h0.539
			c0.215,0,0.426-0.014,0.633-0.041c-0.027,0.199-0.041,0.4-0.041,0.604v3.023c0,0.207,0.014,0.412,0.041,0.615
			c-0.117-0.016-0.195-0.023-0.234-0.023s-0.125,0.008-0.258,0.023c0.023-0.156,0.037-0.312,0.041-0.469h-1.857
			c0.004,0.16,0.018,0.316,0.041,0.469c-0.133-0.016-0.219-0.023-0.258-0.023s-0.117,0.008-0.234,0.023
			c0.027-0.203,0.041-0.408,0.041-0.615v-3.023C143.599,157.22,143.585,157.019,143.558,156.82z M144.003,158.484h0.75v-1.242h-0.75
			V158.484z M144.003,160.189h0.75v-1.336h-0.75V160.189z M145.146,157.242v1.242h0.727v-1.242H145.146z M145.146,158.853v1.336
			h0.727v-1.336H145.146z"/>
		<path class="st6" d="M148.909,158.548l-0.684,0.246v1.853c0,0.438-0.187,0.498-0.954,0.486c-0.018-0.097-0.071-0.264-0.126-0.378
			c0.168,0.006,0.312,0.012,0.426,0.012c0.246,0,0.276,0,0.276-0.12v-1.721l-0.618,0.21c-0.006,0.054-0.042,0.084-0.077,0.102
			l-0.15-0.462c0.234-0.065,0.527-0.155,0.846-0.251v-1.332h-0.785v-0.378h0.785v-1.253l0.491,0.03
			c-0.006,0.048-0.035,0.071-0.113,0.084v1.139h0.665v0.378h-0.665v1.212l0.63-0.204L148.909,158.548z M150.887,160.605h1.709v0.36
			h-3.79v-0.36h1.691v-1.307h-1.289v-0.366h3.022v0.366h-1.344V160.605z M150.408,156.917c-0.006,0.042-0.042,0.072-0.114,0.078
			c-0.065,0.821-0.258,1.403-1.151,1.715c-0.036-0.09-0.126-0.216-0.21-0.282c0.78-0.258,0.948-0.749,0.996-1.553L150.408,156.917z
			 M149.382,156.624v0.714h-0.359v-1.062h1.475v-0.72l0.51,0.03c-0.006,0.042-0.036,0.071-0.114,0.084v0.605h1.565v1.062h-0.372
			v-0.714H149.382z M150.996,156.833l0.491,0.036c-0.006,0.036-0.036,0.065-0.113,0.078v0.995c0,0.12,0.023,0.144,0.174,0.144h0.51
			c0.126,0,0.149-0.054,0.168-0.462c0.077,0.061,0.228,0.114,0.335,0.133c-0.035,0.533-0.144,0.671-0.455,0.671H151.5
			c-0.408,0-0.504-0.107-0.504-0.479V156.833z"/>
		<path class="st6" d="M154.926,156.845v0.737h1.457v0.372h-1.457v0.6h1.224v1.691c0,0.39-0.168,0.42-0.894,0.42
			c-0.012-0.108-0.06-0.246-0.108-0.342c0.133,0,0.246,0.006,0.342,0.006c0.259,0,0.288,0,0.288-0.084v-1.319h-0.852v2.201h-0.384
			v-2.201h-0.815v1.733h-0.372v-2.105h1.188v-0.6h-1.511v-0.372h1.511v-0.737h-0.804c-0.077,0.276-0.168,0.534-0.264,0.726
			c-0.084-0.06-0.233-0.12-0.33-0.162c0.192-0.396,0.349-1.067,0.45-1.69l0.479,0.12c-0.012,0.042-0.048,0.065-0.126,0.065
			c-0.029,0.18-0.065,0.372-0.113,0.563h0.707v-0.905l0.504,0.036c-0.006,0.042-0.036,0.065-0.12,0.078v0.791h1.229v0.378H154.926z
			 M157.181,156.324c-0.006,0.042-0.036,0.072-0.114,0.078v3.244h-0.384v-3.353L157.181,156.324z M157.949,155.676l0.504,0.029
			c-0.006,0.042-0.036,0.072-0.114,0.084v4.815c0,0.516-0.27,0.54-1.205,0.528c-0.024-0.103-0.084-0.276-0.138-0.396
			c0.222,0.007,0.426,0.013,0.581,0.013c0.318,0,0.372,0,0.372-0.145V155.676z"/>
	</g>
	<g>
		<path class="st6" d="M283.343,158.105v-1.17c-0.281,0.45-0.653,0.864-1.002,1.115c-0.065-0.09-0.174-0.222-0.258-0.281
			c0.402-0.246,0.84-0.726,1.122-1.205h-0.989v-0.342h1.127v-0.666l0.498,0.03c-0.006,0.042-0.042,0.071-0.12,0.084v0.552h0.989
			v0.342h-0.989v0.132c0.228,0.144,0.852,0.569,1.007,0.689l-0.221,0.281c-0.15-0.138-0.51-0.419-0.786-0.629v1.067H283.343z
			 M283.835,159.963c-0.024,0.042-0.072,0.055-0.126,0.048c-0.294,0.391-0.774,0.792-1.212,1.044
			c-0.072-0.072-0.215-0.192-0.306-0.252c0.433-0.222,0.899-0.611,1.175-1.014L283.835,159.963z M282.246,159.538v-0.354h5.295
			v0.354h-2.446v1.151c0,0.229-0.054,0.33-0.245,0.39c-0.187,0.061-0.498,0.061-0.979,0.061c-0.023-0.108-0.09-0.252-0.144-0.36
			c0.233,0.007,0.444,0.013,0.6,0.013c0.317,0,0.36,0,0.36-0.108v-1.146H282.246z M282.954,158.657v-0.342h3.952v0.342H282.954z
			 M287.595,156.564h-1.049c0.299,0.443,0.761,0.905,1.15,1.151c-0.078,0.06-0.197,0.191-0.258,0.275
			c-0.348-0.246-0.743-0.678-1.043-1.121v1.235h-0.378v-1.235c-0.306,0.455-0.72,0.881-1.109,1.127
			c-0.06-0.084-0.168-0.216-0.252-0.275c0.426-0.234,0.899-0.696,1.193-1.157h-0.936v-0.342h1.104v-0.666l0.497,0.03
			c-0.006,0.042-0.035,0.071-0.119,0.084v0.552h1.199V156.564z M287.133,161.079c-0.258-0.3-0.804-0.761-1.241-1.079l0.318-0.198
			c0.438,0.312,0.988,0.756,1.259,1.056L287.133,161.079z"/>
		<path class="st6" d="M293.223,155.994v4.558c0,0.552-0.264,0.558-1.397,0.546c-0.018-0.103-0.084-0.282-0.144-0.39
			c0.222,0.006,0.438,0.012,0.612,0.012c0.497,0,0.527,0,0.527-0.168v-1.301h-1.728v1.822h-0.39v-1.822h-1.577
			c-0.09,0.684-0.294,1.385-0.768,1.912c-0.06-0.077-0.216-0.216-0.306-0.27c0.672-0.756,0.737-1.835,0.737-2.692v-2.207H293.223z
			 M289.187,158.201c0,0.21-0.006,0.432-0.023,0.666h1.541v-1.05h-1.518V158.201z M290.705,156.377h-1.518v1.062h1.518V156.377z
			 M292.822,157.439v-1.062h-1.728v1.062H292.822z M291.094,158.867h1.728v-1.05h-1.728V158.867z"/>
		<path class="st6" d="M295.316,157.312c0.141,0.016,0.312,0.023,0.516,0.023c-0.051,0.105-0.076,0.238-0.076,0.398v0.65h0.076
			c0.176,0,0.369-0.008,0.58-0.023c-0.016,0.074-0.023,0.146-0.023,0.217c0,0.059,0.008,0.129,0.023,0.211
			c-0.211-0.016-0.404-0.023-0.58-0.023h-0.076v0.773c0.23-0.035,0.449-0.076,0.656-0.123v0.404
			c-0.238,0.031-0.457,0.062-0.656,0.094v0.375c0,0.254,0.018,0.512,0.053,0.773c-0.09-0.016-0.176-0.023-0.258-0.023
			s-0.16,0.008-0.234,0.023c0.031-0.262,0.047-0.52,0.047-0.773v-0.311c-0.531,0.086-0.9,0.156-1.107,0.211
			c-0.008-0.125-0.047-0.271-0.117-0.439c0.43-0.043,0.838-0.092,1.225-0.146v-0.838h-0.686c-0.141,0-0.297,0.008-0.469,0.023
			c-0.023-0.129-0.047-0.248-0.07-0.357c0.098-0.078,0.188-0.193,0.27-0.346c0.086-0.141,0.176-0.361,0.27-0.662
			c0.051-0.164,0.102-0.357,0.152-0.58h-0.434c-0.094,0-0.186,0.006-0.275,0.018c0.012-0.066,0.018-0.137,0.018-0.211
			c0-0.066-0.006-0.137-0.018-0.211c0.09,0.016,0.182,0.023,0.275,0.023h0.516c0.055-0.266,0.111-0.561,0.17-0.885
			c0.164,0.039,0.35,0.068,0.557,0.088c-0.105,0.121-0.195,0.346-0.27,0.674c-0.008,0.043-0.018,0.084-0.029,0.123h0.838
			c0.098,0,0.191-0.008,0.281-0.023c-0.016,0.074-0.023,0.145-0.023,0.211c0,0.074,0.008,0.145,0.023,0.211
			c-0.09-0.012-0.184-0.018-0.281-0.018h-0.932c-0.164,0.652-0.33,1.166-0.498,1.541h0.615v-0.422
			C295.363,157.744,295.347,157.527,295.316,157.312z M296.628,156.82c0.207,0.027,0.416,0.041,0.627,0.041h0.568v-0.838
			c0-0.148-0.016-0.297-0.047-0.445c0.141,0.039,0.312,0.061,0.516,0.064c-0.051,0.098-0.076,0.225-0.076,0.381v0.838h0.539
			c0.215,0,0.426-0.014,0.633-0.041c-0.027,0.199-0.041,0.4-0.041,0.604v3.023c0,0.207,0.014,0.412,0.041,0.615
			c-0.117-0.016-0.195-0.023-0.234-0.023s-0.125,0.008-0.258,0.023c0.023-0.156,0.037-0.312,0.041-0.469h-1.857
			c0.004,0.16,0.018,0.316,0.041,0.469c-0.133-0.016-0.219-0.023-0.258-0.023s-0.117,0.008-0.234,0.023
			c0.027-0.203,0.041-0.408,0.041-0.615v-3.023C296.669,157.22,296.656,157.019,296.628,156.82z M297.074,158.484h0.75v-1.242h-0.75
			V158.484z M297.074,160.189h0.75v-1.336h-0.75V160.189z M298.216,157.242v1.242h0.727v-1.242H298.216z M298.216,158.853v1.336
			h0.727v-1.336H298.216z"/>
		<path class="st6" d="M301.979,158.548l-0.684,0.246v1.853c0,0.438-0.187,0.498-0.954,0.486c-0.018-0.097-0.071-0.264-0.125-0.378
			c0.168,0.006,0.312,0.012,0.426,0.012c0.246,0,0.275,0,0.275-0.12v-1.721l-0.617,0.21c-0.006,0.054-0.043,0.084-0.078,0.102
			l-0.15-0.462c0.234-0.065,0.527-0.155,0.846-0.251v-1.332h-0.785v-0.378h0.785v-1.253l0.492,0.03
			c-0.006,0.048-0.036,0.071-0.114,0.084v1.139h0.665v0.378h-0.665v1.212l0.63-0.204L301.979,158.548z M303.958,160.605h1.709v0.36
			h-3.791v-0.36h1.691v-1.307h-1.289v-0.366h3.022v0.366h-1.343V160.605z M303.478,156.917c-0.006,0.042-0.042,0.072-0.113,0.078
			c-0.066,0.821-0.258,1.403-1.152,1.715c-0.035-0.09-0.125-0.216-0.209-0.282c0.779-0.258,0.947-0.749,0.995-1.553L303.478,156.917
			z M302.453,156.624v0.714h-0.359v-1.062h1.475v-0.72l0.51,0.03c-0.006,0.042-0.035,0.071-0.113,0.084v0.605h1.564v1.062h-0.371
			v-0.714H302.453z M304.066,156.833l0.492,0.036c-0.006,0.036-0.037,0.065-0.114,0.078v0.995c0,0.12,0.024,0.144,0.174,0.144h0.51
			c0.126,0,0.149-0.054,0.168-0.462c0.077,0.061,0.228,0.114,0.335,0.133c-0.035,0.533-0.143,0.671-0.455,0.671h-0.605
			c-0.408,0-0.504-0.107-0.504-0.479V156.833z"/>
		<path class="st6" d="M307.998,156.845v0.737h1.457v0.372h-1.457v0.6h1.223v1.691c0,0.39-0.168,0.42-0.894,0.42
			c-0.012-0.108-0.06-0.246-0.108-0.342c0.133,0,0.246,0.006,0.342,0.006c0.259,0,0.289,0,0.289-0.084v-1.319h-0.852v2.201h-0.385
			v-2.201h-0.814v1.733h-0.373v-2.105h1.188v-0.6h-1.511v-0.372h1.511v-0.737h-0.803c-0.078,0.276-0.168,0.534-0.264,0.726
			c-0.084-0.06-0.234-0.12-0.33-0.162c0.191-0.396,0.348-1.067,0.449-1.69l0.48,0.12c-0.013,0.042-0.049,0.065-0.127,0.065
			c-0.029,0.18-0.065,0.372-0.113,0.563h0.707v-0.905l0.504,0.036c-0.006,0.042-0.035,0.065-0.119,0.078v0.791h1.229v0.378H307.998z
			 M310.251,156.324c-0.006,0.042-0.035,0.072-0.113,0.078v3.244h-0.385v-3.353L310.251,156.324z M311.019,155.676l0.504,0.029
			c-0.006,0.042-0.035,0.072-0.113,0.084v4.815c0,0.516-0.271,0.54-1.206,0.528c-0.024-0.103-0.083-0.276-0.138-0.396
			c0.222,0.007,0.426,0.013,0.582,0.013c0.317,0,0.371,0,0.371-0.145V155.676z"/>
	</g>
	<g>
		<path d="M245.082,156.278v0.408h-0.762v4.125c0,0.307-0.077,0.45-0.3,0.522c-0.233,0.071-0.653,0.071-1.247,0.071
			c-0.03-0.119-0.114-0.317-0.174-0.438c0.276,0.012,0.546,0.019,0.762,0.019c0.521,0,0.546,0,0.546-0.181v-4.119h-4.234v-0.408
			H245.082z M242.773,159.87h-2.129v0.498h-0.396v-2.746h2.524V159.87z M242.372,158.005h-1.728v1.48h1.728V158.005z"/>
		<path d="M250.704,156.278v4.558c0,0.552-0.264,0.558-1.396,0.546c-0.019-0.103-0.084-0.282-0.145-0.39
			c0.222,0.006,0.438,0.012,0.612,0.012c0.497,0,0.527,0,0.527-0.168v-1.301h-1.728v1.822h-0.39v-1.822h-1.577
			c-0.09,0.684-0.294,1.385-0.768,1.912c-0.06-0.077-0.216-0.216-0.306-0.27c0.672-0.756,0.737-1.835,0.737-2.692v-2.207H250.704z
			 M246.668,158.485c0,0.21-0.006,0.432-0.024,0.666h1.541v-1.05h-1.517V158.485z M248.185,156.662h-1.517v1.062h1.517V156.662z
			 M250.302,157.723v-1.062h-1.728v1.062H250.302z M248.575,159.151h1.728v-1.05h-1.728V159.151z"/>
		<path d="M252.796,157.596c0.141,0.016,0.312,0.023,0.516,0.023c-0.051,0.105-0.076,0.238-0.076,0.398v0.65h0.076
			c0.176,0,0.369-0.008,0.58-0.023c-0.016,0.074-0.023,0.146-0.023,0.217c0,0.059,0.008,0.129,0.023,0.211
			c-0.211-0.016-0.404-0.023-0.58-0.023h-0.076v0.773c0.23-0.035,0.449-0.076,0.656-0.123v0.404
			c-0.238,0.031-0.457,0.062-0.656,0.094v0.375c0,0.254,0.018,0.512,0.053,0.773c-0.09-0.016-0.176-0.023-0.258-0.023
			s-0.16,0.008-0.234,0.023c0.031-0.262,0.047-0.52,0.047-0.773v-0.311c-0.531,0.086-0.9,0.156-1.107,0.211
			c-0.008-0.125-0.047-0.271-0.117-0.439c0.43-0.043,0.838-0.092,1.225-0.146v-0.838h-0.686c-0.141,0-0.297,0.008-0.469,0.023
			c-0.023-0.129-0.047-0.248-0.07-0.357c0.098-0.078,0.188-0.193,0.27-0.346c0.086-0.141,0.176-0.361,0.27-0.662
			c0.051-0.164,0.102-0.357,0.152-0.58h-0.434c-0.094,0-0.186,0.006-0.275,0.018c0.012-0.066,0.018-0.137,0.018-0.211
			c0-0.066-0.006-0.137-0.018-0.211c0.09,0.016,0.182,0.023,0.275,0.023h0.516c0.055-0.266,0.111-0.561,0.17-0.885
			c0.164,0.039,0.35,0.068,0.557,0.088c-0.105,0.121-0.195,0.346-0.27,0.674c-0.008,0.043-0.018,0.084-0.029,0.123h0.838
			c0.098,0,0.191-0.008,0.281-0.023c-0.016,0.074-0.023,0.145-0.023,0.211c0,0.074,0.008,0.145,0.023,0.211
			c-0.09-0.012-0.184-0.018-0.281-0.018h-0.932c-0.164,0.652-0.33,1.166-0.498,1.541h0.615v-0.422
			C252.843,158.028,252.828,157.811,252.796,157.596z M254.109,157.104c0.207,0.027,0.416,0.041,0.627,0.041h0.568v-0.838
			c0-0.148-0.016-0.297-0.047-0.445c0.141,0.039,0.312,0.061,0.516,0.064c-0.051,0.098-0.076,0.225-0.076,0.381v0.838h0.539
			c0.215,0,0.426-0.014,0.633-0.041c-0.027,0.199-0.041,0.4-0.041,0.604v3.023c0,0.207,0.014,0.412,0.041,0.615
			c-0.117-0.016-0.195-0.023-0.234-0.023s-0.125,0.008-0.258,0.023c0.023-0.156,0.037-0.312,0.041-0.469h-1.857
			c0.004,0.16,0.018,0.316,0.041,0.469c-0.133-0.016-0.219-0.023-0.258-0.023s-0.117,0.008-0.234,0.023
			c0.027-0.203,0.041-0.408,0.041-0.615v-3.023C254.15,157.504,254.136,157.303,254.109,157.104z M254.554,158.768h0.75v-1.242
			h-0.75V158.768z M254.554,160.473h0.75v-1.336h-0.75V160.473z M255.697,157.526v1.242h0.727v-1.242H255.697z M255.697,159.137
			v1.336h0.727v-1.336H255.697z"/>
		<path d="M259.459,158.833l-0.684,0.246v1.853c0,0.438-0.186,0.498-0.953,0.486c-0.018-0.097-0.072-0.264-0.126-0.378
			c0.168,0.006,0.312,0.012,0.426,0.012c0.246,0,0.275,0,0.275-0.12v-1.721l-0.617,0.21c-0.006,0.054-0.042,0.084-0.078,0.102
			l-0.149-0.462c0.233-0.065,0.527-0.155,0.845-0.251v-1.332h-0.785v-0.378h0.785v-1.253l0.492,0.03
			c-0.006,0.048-0.036,0.071-0.114,0.084v1.139h0.666v0.378h-0.666v1.212l0.63-0.204L259.459,158.833z M261.439,160.889h1.709v0.36
			h-3.79v-0.36h1.691v-1.307h-1.29v-0.366h3.022v0.366h-1.343V160.889z M260.958,157.202c-0.006,0.042-0.042,0.072-0.113,0.078
			c-0.066,0.821-0.258,1.403-1.151,1.715c-0.036-0.09-0.126-0.216-0.21-0.282c0.779-0.258,0.947-0.749,0.995-1.553L260.958,157.202z
			 M259.933,156.908v0.714h-0.359v-1.062h1.476v-0.72l0.51,0.03c-0.007,0.042-0.036,0.071-0.114,0.084v0.605h1.565v1.062h-0.372
			v-0.714H259.933z M261.546,157.118l0.492,0.036c-0.006,0.036-0.036,0.065-0.114,0.078v0.995c0,0.12,0.024,0.144,0.174,0.144h0.51
			c0.126,0,0.15-0.054,0.168-0.462c0.078,0.061,0.228,0.114,0.336,0.133c-0.036,0.533-0.144,0.671-0.456,0.671h-0.605
			c-0.407,0-0.504-0.107-0.504-0.479V157.118z"/>
		<path d="M265.478,157.129v0.737h1.457v0.372h-1.457v0.6h1.223v1.691c0,0.39-0.168,0.42-0.894,0.42
			c-0.012-0.108-0.06-0.246-0.107-0.342c0.132,0,0.246,0.006,0.342,0.006c0.258,0,0.288,0,0.288-0.084v-1.319h-0.852v2.201h-0.384
			v-2.201h-0.815v1.733h-0.372v-2.105h1.188v-0.6h-1.512v-0.372h1.512v-0.737h-0.804c-0.078,0.276-0.168,0.534-0.264,0.726
			c-0.084-0.06-0.234-0.12-0.33-0.162c0.191-0.396,0.348-1.067,0.45-1.69l0.479,0.12c-0.013,0.042-0.048,0.065-0.126,0.065
			c-0.03,0.18-0.066,0.372-0.114,0.563h0.708v-0.905l0.504,0.036c-0.007,0.042-0.036,0.065-0.12,0.078v0.791h1.229v0.378H265.478z
			 M267.733,156.608c-0.007,0.042-0.036,0.072-0.114,0.078v3.244h-0.384v-3.353L267.733,156.608z M268.5,155.96l0.503,0.029
			c-0.006,0.042-0.035,0.072-0.113,0.084v4.815c0,0.516-0.271,0.54-1.206,0.528c-0.023-0.103-0.083-0.276-0.138-0.396
			c0.222,0.007,0.426,0.013,0.582,0.013c0.317,0,0.372,0,0.372-0.145V155.96z"/>
	</g>
	<g>
		<path d="M333.541,156.278v0.408h-0.762v4.125c0,0.307-0.077,0.45-0.3,0.522c-0.233,0.071-0.653,0.071-1.247,0.071
			c-0.03-0.119-0.114-0.317-0.174-0.438c0.276,0.012,0.546,0.019,0.762,0.019c0.521,0,0.546,0,0.546-0.181v-4.119h-4.234v-0.408
			H333.541z M331.232,159.87h-2.129v0.498h-0.396v-2.746h2.524V159.87z M330.831,158.005h-1.728v1.48h1.728V158.005z"/>
		<path d="M339.163,156.278v4.558c0,0.552-0.264,0.558-1.396,0.546c-0.019-0.103-0.084-0.282-0.145-0.39
			c0.222,0.006,0.438,0.012,0.612,0.012c0.497,0,0.527,0,0.527-0.168v-1.301h-1.728v1.822h-0.39v-1.822h-1.577
			c-0.09,0.684-0.294,1.385-0.768,1.912c-0.06-0.077-0.216-0.216-0.306-0.27c0.672-0.756,0.737-1.835,0.737-2.692v-2.207H339.163z
			 M335.127,158.485c0,0.21-0.006,0.432-0.024,0.666h1.541v-1.05h-1.517V158.485z M336.644,156.662h-1.517v1.062h1.517V156.662z
			 M338.761,157.723v-1.062h-1.728v1.062H338.761z M337.034,159.151h1.728v-1.05h-1.728V159.151z"/>
		<path d="M341.255,157.596c0.141,0.016,0.312,0.023,0.516,0.023c-0.051,0.105-0.076,0.238-0.076,0.398v0.65h0.076
			c0.176,0,0.369-0.008,0.58-0.023c-0.016,0.074-0.023,0.146-0.023,0.217c0,0.059,0.008,0.129,0.023,0.211
			c-0.211-0.016-0.404-0.023-0.58-0.023h-0.076v0.773c0.23-0.035,0.449-0.076,0.656-0.123v0.404
			c-0.238,0.031-0.457,0.062-0.656,0.094v0.375c0,0.254,0.018,0.512,0.053,0.773c-0.09-0.016-0.176-0.023-0.258-0.023
			s-0.16,0.008-0.234,0.023c0.031-0.262,0.047-0.52,0.047-0.773v-0.311c-0.531,0.086-0.9,0.156-1.107,0.211
			c-0.008-0.125-0.047-0.271-0.117-0.439c0.43-0.043,0.838-0.092,1.225-0.146v-0.838h-0.686c-0.141,0-0.297,0.008-0.469,0.023
			c-0.023-0.129-0.047-0.248-0.07-0.357c0.098-0.078,0.188-0.193,0.27-0.346c0.086-0.141,0.176-0.361,0.27-0.662
			c0.051-0.164,0.102-0.357,0.152-0.58h-0.434c-0.094,0-0.186,0.006-0.275,0.018c0.012-0.066,0.018-0.137,0.018-0.211
			c0-0.066-0.006-0.137-0.018-0.211c0.09,0.016,0.182,0.023,0.275,0.023h0.516c0.055-0.266,0.111-0.561,0.17-0.885
			c0.164,0.039,0.35,0.068,0.557,0.088c-0.105,0.121-0.195,0.346-0.27,0.674c-0.008,0.043-0.018,0.084-0.029,0.123h0.838
			c0.098,0,0.191-0.008,0.281-0.023c-0.016,0.074-0.023,0.145-0.023,0.211c0,0.074,0.008,0.145,0.023,0.211
			c-0.09-0.012-0.184-0.018-0.281-0.018h-0.932c-0.164,0.652-0.33,1.166-0.498,1.541h0.615v-0.422
			C341.302,158.028,341.287,157.811,341.255,157.596z M342.568,157.104c0.207,0.027,0.416,0.041,0.627,0.041h0.568v-0.838
			c0-0.148-0.016-0.297-0.047-0.445c0.141,0.039,0.312,0.061,0.516,0.064c-0.051,0.098-0.076,0.225-0.076,0.381v0.838h0.539
			c0.215,0,0.426-0.014,0.633-0.041c-0.027,0.199-0.041,0.4-0.041,0.604v3.023c0,0.207,0.014,0.412,0.041,0.615
			c-0.117-0.016-0.195-0.023-0.234-0.023s-0.125,0.008-0.258,0.023c0.023-0.156,0.037-0.312,0.041-0.469h-1.857
			c0.004,0.16,0.018,0.316,0.041,0.469c-0.133-0.016-0.219-0.023-0.258-0.023s-0.117,0.008-0.234,0.023
			c0.027-0.203,0.041-0.408,0.041-0.615v-3.023C342.609,157.504,342.595,157.303,342.568,157.104z M343.013,158.768h0.75v-1.242
			h-0.75V158.768z M343.013,160.473h0.75v-1.336h-0.75V160.473z M344.156,157.526v1.242h0.727v-1.242H344.156z M344.156,159.137
			v1.336h0.727v-1.336H344.156z"/>
		<path d="M347.918,158.833l-0.684,0.246v1.853c0,0.438-0.186,0.498-0.953,0.486c-0.018-0.097-0.072-0.264-0.126-0.378
			c0.168,0.006,0.312,0.012,0.426,0.012c0.246,0,0.275,0,0.275-0.12v-1.721l-0.617,0.21c-0.006,0.054-0.042,0.084-0.078,0.102
			l-0.149-0.462c0.233-0.065,0.527-0.155,0.845-0.251v-1.332h-0.785v-0.378h0.785v-1.253l0.492,0.03
			c-0.006,0.048-0.036,0.071-0.114,0.084v1.139h0.666v0.378h-0.666v1.212l0.63-0.204L347.918,158.833z M349.898,160.889h1.709v0.36
			h-3.79v-0.36h1.691v-1.307h-1.29v-0.366h3.022v0.366h-1.343V160.889z M349.417,157.202c-0.006,0.042-0.042,0.072-0.113,0.078
			c-0.066,0.821-0.258,1.403-1.151,1.715c-0.036-0.09-0.126-0.216-0.21-0.282c0.779-0.258,0.947-0.749,0.995-1.553L349.417,157.202z
			 M348.392,156.908v0.714h-0.359v-1.062h1.476v-0.72l0.51,0.03c-0.007,0.042-0.036,0.071-0.114,0.084v0.605h1.565v1.062h-0.372
			v-0.714H348.392z M350.005,157.118l0.492,0.036c-0.006,0.036-0.036,0.065-0.114,0.078v0.995c0,0.12,0.024,0.144,0.174,0.144h0.51
			c0.126,0,0.15-0.054,0.168-0.462c0.078,0.061,0.228,0.114,0.336,0.133c-0.036,0.533-0.144,0.671-0.456,0.671h-0.605
			c-0.407,0-0.504-0.107-0.504-0.479V157.118z"/>
		<path d="M353.937,157.129v0.737h1.457v0.372h-1.457v0.6h1.223v1.691c0,0.39-0.168,0.42-0.894,0.42
			c-0.012-0.108-0.06-0.246-0.107-0.342c0.132,0,0.246,0.006,0.342,0.006c0.258,0,0.288,0,0.288-0.084v-1.319h-0.852v2.201h-0.384
			v-2.201h-0.815v1.733h-0.372v-2.105h1.188v-0.6h-1.512v-0.372h1.512v-0.737h-0.804c-0.078,0.276-0.168,0.534-0.264,0.726
			c-0.084-0.06-0.234-0.12-0.33-0.162c0.191-0.396,0.348-1.067,0.45-1.69l0.479,0.12c-0.013,0.042-0.048,0.065-0.126,0.065
			c-0.03,0.18-0.066,0.372-0.114,0.563h0.708v-0.905l0.504,0.036c-0.007,0.042-0.036,0.065-0.12,0.078v0.791h1.229v0.378H353.937z
			 M356.192,156.608c-0.007,0.042-0.036,0.072-0.114,0.078v3.244h-0.384v-3.353L356.192,156.608z M356.959,155.96l0.503,0.029
			c-0.006,0.042-0.035,0.072-0.113,0.084v4.815c0,0.516-0.271,0.54-1.206,0.528c-0.023-0.103-0.083-0.276-0.138-0.396
			c0.222,0.007,0.426,0.013,0.582,0.013c0.317,0,0.372,0,0.372-0.145V155.96z"/>
	</g>
	<g>
	</g>
	<g>
	</g>
	<g>
	</g>
	<g>
	</g>
	<g>
	</g>
	<g>
	</g>
	<g>
	</g>
	<g>
	</g>
	<g>
	</g>
	<g>
	</g>
	<g>
	</g>
	<g>
	</g>
	<g>
	</g>
	<g>
	</g>
	<g>
	</g>
</g>
</svg>
