<?xml version="1.0" encoding="utf-8"?>
<!-- Generator: Adobe Illustrator 28.2.0, SVG Export Plug-In . SVG Version: 6.00 Build 0)  -->
<svg version="1.1" xmlns="http://www.w3.org/2000/svg" xmlns:xlink="http://www.w3.org/1999/xlink" x="0px" y="0px"
	 width="230.43px" height="76.472px" viewBox="0 0 230.43 76.472" style="enable-background:new 0 0 230.43 76.472;"
	 xml:space="preserve">
<style type="text/css">
	.st0{fill:none;stroke:#666666;stroke-width:0.5;stroke-miterlimit:10;stroke-dasharray:1;}
	.st1{fill:none;stroke:#000000;stroke-width:0.5;stroke-miterlimit:10;}
</style>
<g id="レイヤー_1">
	<line class="st0" x1="121.89" y1="11.339" x2="121.89" y2="68.032"/>
	<line class="st1" x1="133.228" y1="11.339" x2="133.228" y2="68.032"/>
	<line class="st0" x1="48.189" y1="62.362" x2="229.606" y2="62.362"/>
	<polyline class="st1" points="229.606,62.362 212.598,62.362 189.921,17.008 133.228,17.008 121.89,39.685 76.535,39.685 
		65.197,62.362 48.189,62.362 	"/>
</g>
<g id="レイヤー_2">
	<g>
		<path d="M119.385,2.643c-0.68,1.279-1.087,2.047-1.087,3.966c0,1.319,0.456,2.295,1.095,3.55h-0.472
			c-0.832-1.248-1.375-2.247-1.375-3.742c0-1.407,0.487-2.542,1.351-3.774H119.385z"/>
		<path d="M122.537,8.504h-0.752v-3.99h-1.311v-0.56c0.912-0.064,1.287-0.152,1.511-1.072h0.552V8.504z"/>
		<path d="M124.394,10.159c0.68-1.279,1.087-2.047,1.087-3.966c0-1.319-0.456-2.295-1.095-3.55h0.472
			c0.832,1.248,1.375,2.247,1.375,3.742c0,1.407-0.488,2.542-1.351,3.774H124.394z"/>
	</g>
	<g>
		<path d="M18.475,28.275h0.872l-2.095,5.741h-0.823l-2.095-5.741h0.864l1.639,4.893h0.016L18.475,28.275z"/>
		<path d="M23.579,32.705c-0.024,0.2-0.216,0.792-0.744,1.143c-0.192,0.128-0.464,0.288-1.135,0.288
			c-1.175,0-1.871-0.888-1.871-2.095c0-1.295,0.624-2.327,2.007-2.327c1.208,0,1.799,0.959,1.799,2.439H20.58
			c0,0.871,0.408,1.375,1.215,1.375c0.664,0,1.056-0.512,1.08-0.823H23.579z M22.907,31.593c-0.04-0.647-0.312-1.247-1.167-1.247
			c-0.648,0-1.16,0.6-1.16,1.247H22.907z"/>
		<path d="M25.196,34.016h-0.704v-5.741h0.704V34.016z"/>
		<path d="M27.955,29.714c1.335,0,1.943,1.127,1.943,2.207c0,1.079-0.607,2.207-1.943,2.207c-1.335,0-1.943-1.127-1.943-2.207
			C26.013,30.841,26.62,29.714,27.955,29.714z M27.955,33.52c1.007,0,1.215-1.04,1.215-1.599c0-0.56-0.208-1.599-1.215-1.599
			s-1.215,1.039-1.215,1.599C26.74,32.48,26.948,33.52,27.955,33.52z"/>
		<path d="M33.315,31.241c-0.088-0.56-0.4-0.896-0.992-0.896c-0.871,0-1.151,0.832-1.151,1.575c0,0.719,0.176,1.607,1.144,1.607
			c0.472,0,0.879-0.352,1-0.991h0.68c-0.072,0.664-0.48,1.599-1.703,1.599c-1.175,0-1.871-0.888-1.871-2.095
			c0-1.295,0.624-2.327,2.007-2.327c1.096,0,1.511,0.8,1.567,1.527H33.315z"/>
		<path d="M34.716,29.074v-0.799h0.704v0.799H34.716z M35.42,34.016h-0.704v-4.182h0.704V34.016z"/>
		<path d="M37.34,30.417v2.719c0,0.328,0.28,0.328,0.424,0.328h0.248v0.552c-0.256,0.024-0.456,0.056-0.527,0.056
			c-0.696,0-0.848-0.392-0.848-0.896v-2.759h-0.568v-0.583h0.568v-1.167h0.704v1.167h0.671v0.583H37.34z"/>
		<path d="M41.315,29.834h0.775c-0.488,1.367-0.967,2.734-1.503,4.102c-0.664,1.695-0.736,1.791-1.639,1.791
			c-0.104,0-0.184-0.032-0.296-0.064v-0.64c0.088,0.032,0.232,0.072,0.424,0.072c0.368,0,0.408-0.104,0.744-0.968l-1.551-4.293h0.8
			l1.111,3.406h0.016L41.315,29.834z"/>
	</g>
	<g>
		<path d="M96.447,73.701h-0.776v-5.74h3.974v0.688h-3.198v1.759h2.814v0.688h-2.814V73.701z"/>
		<path d="M100.463,67.96h2.526c1.071,0,1.623,0.663,1.623,1.447c0,0.375-0.136,0.903-0.768,1.199
			c0.376,0.151,1.04,0.415,1.04,1.399c0,0.919-0.68,1.694-1.951,1.694h-2.471V67.96z M101.238,70.391h1.399
			c0.744,0,1.199-0.225,1.199-0.928c0-0.536-0.328-0.84-1.191-0.84h-1.407V70.391z M101.238,73.038h1.655
			c0.808,0,1.215-0.408,1.215-1.048c0-0.808-0.712-0.968-1.343-0.968h-1.527V73.038z"/>
		<path d="M105.207,74.701v-0.4h4.445v0.4H105.207z"/>
		<path d="M111.878,73.853c-1.615,0-1.927-1.719-1.927-2.887c0-1.167,0.312-2.887,1.927-2.887s1.927,1.72,1.927,2.887
			C113.805,72.134,113.493,73.853,111.878,73.853z M111.878,68.711c-0.808,0-1.175,0.848-1.175,2.255s0.368,2.255,1.175,2.255
			s1.175-0.848,1.175-2.255S112.685,68.711,111.878,68.711z"/>
	</g>
	<g>
		<path d="M164.478,73.701h-0.776v-5.74h3.974v0.688h-3.198v1.759h2.814v0.688h-2.814V73.701z"/>
		<path d="M168.494,67.96h2.526c1.071,0,1.623,0.663,1.623,1.447c0,0.375-0.136,0.903-0.768,1.199
			c0.376,0.151,1.04,0.415,1.04,1.399c0,0.919-0.68,1.694-1.951,1.694h-2.471V67.96z M169.269,70.391h1.399
			c0.744,0,1.199-0.225,1.199-0.928c0-0.536-0.328-0.84-1.191-0.84h-1.407V70.391z M169.269,73.038h1.655
			c0.808,0,1.215-0.408,1.215-1.048c0-0.808-0.712-0.968-1.343-0.968h-1.527V73.038z"/>
		<path d="M173.238,74.701v-0.4h4.445v0.4H173.238z"/>
		<path d="M180.557,73.701h-0.752v-3.989h-1.311v-0.56c0.912-0.064,1.287-0.152,1.511-1.072h0.552V73.701z"/>
	</g>
	<g>
	</g>
	<g>
	</g>
	<g>
	</g>
	<g>
	</g>
	<g>
	</g>
	<g>
	</g>
	<g>
	</g>
	<g>
	</g>
	<g>
	</g>
	<g>
	</g>
	<g>
	</g>
	<g>
	</g>
	<g>
	</g>
	<g>
	</g>
	<g>
	</g>
</g>
</svg>
