<?xml version="1.0" encoding="utf-8"?>
<!-- Generator: Adobe Illustrator 28.2.0, SVG Export Plug-In . SVG Version: 6.00 Build 0)  -->
<svg version="1.1" xmlns="http://www.w3.org/2000/svg" xmlns:xlink="http://www.w3.org/1999/xlink" x="0px" y="0px"
	 width="192.756px" height="130.394px" viewBox="0 0 192.756 130.394" style="enable-background:new 0 0 192.756 130.394;"
	 xml:space="preserve">
<style type="text/css">
	.st0{fill:none;stroke:#666666;stroke-width:0.5;stroke-miterlimit:10;stroke-dasharray:1;}
	.st1{stroke:#000000;stroke-width:0.5;stroke-miterlimit:10;}
	.st2{fill:none;stroke:#000000;stroke-width:0.5;stroke-miterlimit:10;}
	.st3{fill:#FFFFFF;stroke:#000000;stroke-width:0.5;stroke-miterlimit:10;}
	.st4{fill:none;stroke:#FFFFFF;stroke-width:3;stroke-linecap:round;stroke-linejoin:round;}
	.st5{fill:none;stroke:#FFFFFF;stroke-width:2;}
</style>
<g id="レイヤー_1">
	<line class="st0" x1="51.024" y1="0" x2="51.024" y2="124.724"/>
	<line class="st0" x1="39.685" y1="113.386" x2="170.079" y2="113.386"/>
	<circle class="st1" cx="73.694" cy="68.031" r="3.322"/>
	<line class="st2" x1="141.732" y1="113.386" x2="96.365" y2="22.677"/>
	<circle class="st3" cx="141.732" cy="113.386" r="3.322"/>
	<polyline class="st2" points="96.365,22.677 73.694,68.031 51.024,113.386 	"/>
	<circle class="st3" cx="96.365" cy="22.677" r="3.322"/>
</g>
<g id="レイヤー_2">
	<g>
		<g>
			<path class="st4" d="M59.443,56.05c0.114,0.078,0.273,0.148,0.477,0.211c-0.109,0.125-0.234,0.362-0.375,0.711
				c-0.245,0.672-0.508,1.206-0.789,1.602l0.984-0.156c0.229-0.442,0.37-0.773,0.422-0.992l0.508,0.312
				c-0.156,0.104-0.328,0.318-0.516,0.641c-0.62,1.109-1.065,1.812-1.336,2.109l1.562-0.289c-0.016,0.12-0.023,0.234-0.023,0.344
				c-0.683,0.084-1.38,0.229-2.094,0.438l-0.102-0.523c0.297-0.125,0.526-0.31,0.688-0.555c0.307-0.458,0.549-0.846,0.727-1.164
				c-0.662,0.089-1.144,0.193-1.445,0.312c-0.011-0.15-0.031-0.289-0.062-0.414c0.26-0.094,0.492-0.344,0.695-0.75
				C59.003,57.47,59.229,56.857,59.443,56.05z M60.326,61.362c0.016,0.115,0.044,0.24,0.086,0.375c-0.74,0.12-1.49,0.305-2.25,0.555
				c-0.011-0.177-0.042-0.341-0.094-0.492C58.704,61.764,59.456,61.618,60.326,61.362z M64.381,56.737
				c0.208,0.104,0.388,0.175,0.539,0.211c-0.224,0.234-0.513,0.662-0.867,1.281h0.273c0.198,0,0.396-0.021,0.594-0.062
				c-0.021,0.084-0.031,0.17-0.031,0.258c0,0.068,0.01,0.139,0.031,0.211c-0.198-0.041-0.396-0.062-0.594-0.062h-1.609
				c-0.062,0.229-0.13,0.448-0.203,0.656h2.156c0.198,0,0.396-0.021,0.594-0.062c-0.021,0.084-0.031,0.17-0.031,0.258
				c0,0.068,0.01,0.139,0.031,0.211c-0.198-0.041-0.396-0.062-0.594-0.062h-2.273c-0.094,0.25-0.193,0.479-0.297,0.688h2.031
				c0.229,0,0.458-0.01,0.688-0.031c-0.458,0.797-0.922,1.381-1.391,1.75c-0.021,0.021-0.037,0.037-0.047,0.047
				c0.463,0.281,1.102,0.508,1.914,0.68c-0.136,0.089-0.24,0.214-0.312,0.375c-0.724-0.183-1.349-0.466-1.875-0.852
				c-0.552,0.401-1.156,0.685-1.812,0.852c-0.104-0.156-0.219-0.271-0.344-0.344c0.646-0.109,1.25-0.349,1.812-0.719
				c0.016-0.01,0.028-0.023,0.039-0.039c-0.37-0.333-0.688-0.755-0.953-1.266c-0.083,0.156-0.169,0.3-0.258,0.43
				c-0.386,0.625-0.894,1.123-1.523,1.492c-0.052-0.141-0.146-0.266-0.281-0.375c0.599-0.25,1.125-0.721,1.578-1.414
				c0.229-0.344,0.44-0.768,0.633-1.273h-0.867c-0.198,0-0.394,0.021-0.586,0.062c0.021-0.072,0.031-0.143,0.031-0.211
				c0-0.088-0.011-0.174-0.031-0.258c0.192,0.042,0.388,0.062,0.586,0.062h0.992c0.078-0.213,0.148-0.432,0.211-0.656h-0.695
				c-0.198,0-0.398,0.021-0.602,0.062c0.021-0.072,0.031-0.143,0.031-0.211c0-0.088-0.011-0.174-0.031-0.258
				c0.203,0.042,0.403,0.062,0.602,0.062h2.109C64.039,57.693,64.25,57.196,64.381,56.737z M64.982,56.393
				c-1.094,0.146-2.437,0.25-4.031,0.312c-0.052-0.182-0.107-0.32-0.164-0.414c0.198,0.026,0.396,0.039,0.594,0.039
				c0.614,0,1.258-0.031,1.93-0.094c0.531-0.052,1.044-0.148,1.539-0.289c0.088,0.167,0.192,0.315,0.312,0.445H64.982z
				 M61.639,57.081l0.398,0.898c-0.146,0.021-0.279,0.055-0.398,0.102c-0.104-0.391-0.229-0.703-0.375-0.938
				C61.373,57.139,61.498,57.118,61.639,57.081z M62.185,60.604c0.239,0.537,0.531,0.936,0.875,1.195
				c0.422-0.322,0.778-0.721,1.07-1.195H62.185z M62.92,56.917l0.375,0.906c-0.151,0.021-0.287,0.053-0.406,0.094
				c-0.099-0.385-0.214-0.697-0.344-0.938C62.654,56.974,62.779,56.954,62.92,56.917z"/>
			<path class="st4" d="M67.443,58.917c0.104,0.094,0.239,0.178,0.406,0.25c-0.458,1.256-0.833,2.456-1.125,3.602
				c-0.188-0.146-0.352-0.25-0.492-0.312C66.628,61.696,67.032,60.516,67.443,58.917z M67.037,56.331
				c0.338,0.609,0.703,1.183,1.094,1.719c-0.141,0.031-0.276,0.102-0.406,0.211c-0.323-0.635-0.685-1.219-1.086-1.75
				C66.8,56.474,66.933,56.415,67.037,56.331z M68.506,57.604c0.208,0.047,0.417,0.07,0.625,0.07h1.445v-1.188
				c0-0.213-0.023-0.424-0.07-0.633h0.562c-0.078,0.109-0.117,0.245-0.117,0.406v1.414h1.461c0.208,0,0.417-0.023,0.625-0.07
				c-0.037,0.188-0.055,0.375-0.055,0.562v2.062c0,0.198,0.018,0.396,0.055,0.594c-0.125-0.016-0.208-0.023-0.25-0.023
				c-0.042,0-0.123,0.008-0.242,0.023c0.031-0.135,0.049-0.268,0.055-0.398h-1.648v2c0,0.239,0.021,0.479,0.062,0.719
				c-0.083-0.021-0.169-0.031-0.258-0.031c-0.078,0-0.162,0.011-0.25,0.031c0.047-0.239,0.07-0.479,0.07-0.719v-2h-1.617
				c0.005,0.172,0.023,0.336,0.055,0.492c-0.13-0.021-0.216-0.031-0.258-0.031c-0.037,0-0.12,0.011-0.25,0.031
				c0.047-0.197,0.07-0.393,0.07-0.586v-2.164C68.576,57.979,68.553,57.792,68.506,57.604z M68.951,60.081h1.625v-2.062h-1.625
				V60.081z M70.951,58.018v2.062h1.656v-2.062H70.951z"/>
		</g>
		<g>
			<path d="M59.443,56.05c0.114,0.078,0.273,0.148,0.477,0.211c-0.109,0.125-0.234,0.362-0.375,0.711
				c-0.245,0.672-0.508,1.206-0.789,1.602l0.984-0.156c0.229-0.442,0.37-0.773,0.422-0.992l0.508,0.312
				c-0.156,0.104-0.328,0.318-0.516,0.641c-0.62,1.109-1.065,1.812-1.336,2.109l1.562-0.289c-0.016,0.12-0.023,0.234-0.023,0.344
				c-0.683,0.084-1.38,0.229-2.094,0.438l-0.102-0.523c0.297-0.125,0.526-0.31,0.688-0.555c0.307-0.458,0.549-0.846,0.727-1.164
				c-0.662,0.089-1.144,0.193-1.445,0.312c-0.011-0.15-0.031-0.289-0.062-0.414c0.26-0.094,0.492-0.344,0.695-0.75
				C59.003,57.47,59.229,56.857,59.443,56.05z M60.326,61.362c0.016,0.115,0.044,0.24,0.086,0.375c-0.74,0.12-1.49,0.305-2.25,0.555
				c-0.011-0.177-0.042-0.341-0.094-0.492C58.704,61.764,59.456,61.618,60.326,61.362z M64.381,56.737
				c0.208,0.104,0.388,0.175,0.539,0.211c-0.224,0.234-0.513,0.662-0.867,1.281h0.273c0.198,0,0.396-0.021,0.594-0.062
				c-0.021,0.084-0.031,0.17-0.031,0.258c0,0.068,0.01,0.139,0.031,0.211c-0.198-0.041-0.396-0.062-0.594-0.062h-1.609
				c-0.062,0.229-0.13,0.448-0.203,0.656h2.156c0.198,0,0.396-0.021,0.594-0.062c-0.021,0.084-0.031,0.17-0.031,0.258
				c0,0.068,0.01,0.139,0.031,0.211c-0.198-0.041-0.396-0.062-0.594-0.062h-2.273c-0.094,0.25-0.193,0.479-0.297,0.688h2.031
				c0.229,0,0.458-0.01,0.688-0.031c-0.458,0.797-0.922,1.381-1.391,1.75c-0.021,0.021-0.037,0.037-0.047,0.047
				c0.463,0.281,1.102,0.508,1.914,0.68c-0.136,0.089-0.24,0.214-0.312,0.375c-0.724-0.183-1.349-0.466-1.875-0.852
				c-0.552,0.401-1.156,0.685-1.812,0.852c-0.104-0.156-0.219-0.271-0.344-0.344c0.646-0.109,1.25-0.349,1.812-0.719
				c0.016-0.01,0.028-0.023,0.039-0.039c-0.37-0.333-0.688-0.755-0.953-1.266c-0.083,0.156-0.169,0.3-0.258,0.43
				c-0.386,0.625-0.894,1.123-1.523,1.492c-0.052-0.141-0.146-0.266-0.281-0.375c0.599-0.25,1.125-0.721,1.578-1.414
				c0.229-0.344,0.44-0.768,0.633-1.273h-0.867c-0.198,0-0.394,0.021-0.586,0.062c0.021-0.072,0.031-0.143,0.031-0.211
				c0-0.088-0.011-0.174-0.031-0.258c0.192,0.042,0.388,0.062,0.586,0.062h0.992c0.078-0.213,0.148-0.432,0.211-0.656h-0.695
				c-0.198,0-0.398,0.021-0.602,0.062c0.021-0.072,0.031-0.143,0.031-0.211c0-0.088-0.011-0.174-0.031-0.258
				c0.203,0.042,0.403,0.062,0.602,0.062h2.109C64.039,57.693,64.25,57.196,64.381,56.737z M64.982,56.393
				c-1.094,0.146-2.437,0.25-4.031,0.312c-0.052-0.182-0.107-0.32-0.164-0.414c0.198,0.026,0.396,0.039,0.594,0.039
				c0.614,0,1.258-0.031,1.93-0.094c0.531-0.052,1.044-0.148,1.539-0.289c0.088,0.167,0.192,0.315,0.312,0.445H64.982z
				 M61.639,57.081l0.398,0.898c-0.146,0.021-0.279,0.055-0.398,0.102c-0.104-0.391-0.229-0.703-0.375-0.938
				C61.373,57.139,61.498,57.118,61.639,57.081z M62.185,60.604c0.239,0.537,0.531,0.936,0.875,1.195
				c0.422-0.322,0.778-0.721,1.07-1.195H62.185z M62.92,56.917l0.375,0.906c-0.151,0.021-0.287,0.053-0.406,0.094
				c-0.099-0.385-0.214-0.697-0.344-0.938C62.654,56.974,62.779,56.954,62.92,56.917z"/>
			<path d="M67.443,58.917c0.104,0.094,0.239,0.178,0.406,0.25c-0.458,1.256-0.833,2.456-1.125,3.602
				c-0.188-0.146-0.352-0.25-0.492-0.312C66.628,61.696,67.032,60.516,67.443,58.917z M67.037,56.331
				c0.338,0.609,0.703,1.183,1.094,1.719c-0.141,0.031-0.276,0.102-0.406,0.211c-0.323-0.635-0.685-1.219-1.086-1.75
				C66.8,56.474,66.933,56.415,67.037,56.331z M68.506,57.604c0.208,0.047,0.417,0.07,0.625,0.07h1.445v-1.188
				c0-0.213-0.023-0.424-0.07-0.633h0.562c-0.078,0.109-0.117,0.245-0.117,0.406v1.414h1.461c0.208,0,0.417-0.023,0.625-0.07
				c-0.037,0.188-0.055,0.375-0.055,0.562v2.062c0,0.198,0.018,0.396,0.055,0.594c-0.125-0.016-0.208-0.023-0.25-0.023
				c-0.042,0-0.123,0.008-0.242,0.023c0.031-0.135,0.049-0.268,0.055-0.398h-1.648v2c0,0.239,0.021,0.479,0.062,0.719
				c-0.083-0.021-0.169-0.031-0.258-0.031c-0.078,0-0.162,0.011-0.25,0.031c0.047-0.239,0.07-0.479,0.07-0.719v-2h-1.617
				c0.005,0.172,0.023,0.336,0.055,0.492c-0.13-0.021-0.216-0.031-0.258-0.031c-0.037,0-0.12,0.011-0.25,0.031
				c0.047-0.197,0.07-0.393,0.07-0.586v-2.164C68.576,57.979,68.553,57.792,68.506,57.604z M68.951,60.081h1.625v-2.062h-1.625
				V60.081z M70.951,58.018v2.062h1.656v-2.062H70.951z"/>
		</g>
	</g>
	<g>
		<g>
			<path class="st5" d="M100.279,19.238v-5.757h3.71v0.464h-3.167v2.079h2.878v0.464h-2.878v2.75H100.279z"/>
			<path class="st5" d="M104.783,19.238v-5.757h2.079c1.351,0,1.887,0.583,1.887,1.447c0,0.799-0.456,1.159-0.919,1.239v0.016
				c0.792,0.12,1.184,0.671,1.184,1.431c0,1.199-0.784,1.623-1.879,1.623H104.783z M105.327,16.023h1.375
				c1.136,0,1.503-0.399,1.503-1.095c0-0.72-0.432-0.983-1.623-0.983h-1.255V16.023z M105.327,18.774h1.383
				c1.199,0,1.759-0.16,1.759-1.159c0-0.952-0.671-1.127-1.695-1.127h-1.447V18.774z"/>
			<path class="st5" d="M113.469,19.837v0.4h-3.998v-0.4H113.469z"/>
			<path class="st5" d="M117.597,16.519c0,1.495-0.352,2.83-1.903,2.83c-1.559,0-1.911-1.327-1.911-2.886
				c0-1.423,0.288-2.862,1.911-2.862C117.365,13.601,117.597,15.208,117.597,16.519z M115.678,14.033
				c-1.12,0-1.383,1.239-1.383,2.487c0,1.447,0.32,2.398,1.399,2.398c1.215,0,1.392-1.319,1.392-2.455
				C117.085,15.248,116.869,14.033,115.678,14.033z"/>
			<path class="st5" d="M121.768,13.504c0.208,0.042,0.417,0.062,0.625,0.062h3.406c0.208,0,0.417-0.021,0.625-0.062
				c-0.042,0.188-0.062,0.373-0.062,0.555v5.445c0,0.198,0.021,0.393,0.062,0.586c-0.13-0.021-0.216-0.031-0.258-0.031
				c-0.037,0-0.12,0.01-0.25,0.031c0.047-0.193,0.07-0.388,0.07-0.586v-0.281h-3.789v0.281c0,0.198,0.021,0.393,0.062,0.586
				c-0.12-0.021-0.201-0.031-0.242-0.031c-0.047,0-0.13,0.01-0.25,0.031c0.036-0.193,0.055-0.388,0.055-0.586v-5.445
				C121.823,13.877,121.805,13.692,121.768,13.504z M122.198,15.254h3.789v-1.344h-3.789V15.254z M122.198,17.059h3.789v-1.461
				h-3.789V17.059z M122.198,18.879h3.789v-1.477h-3.789V18.879z"/>
			<path class="st5" d="M128.542,14.848c0.088,0.021,0.174,0.031,0.258,0.031h1v-1.312c0-0.208-0.021-0.419-0.062-0.633h0.555
				c-0.083,0.104-0.125,0.24-0.125,0.406v1.539h0.914c0.078,0,0.161-0.01,0.25-0.031c-0.026,0.058-0.039,0.117-0.039,0.18
				c0,0.078,0.013,0.154,0.039,0.227c-0.089-0.021-0.172-0.031-0.25-0.031h-0.914v4.312c0,0.239,0.021,0.479,0.062,0.719
				c-0.078-0.021-0.159-0.031-0.242-0.031c-0.089,0-0.172,0.01-0.25,0.031c0.042-0.24,0.062-0.479,0.062-0.719v-3.344
				c-0.297,0.948-0.685,1.779-1.164,2.492c-0.058-0.172-0.138-0.307-0.242-0.406c0.312-0.406,0.599-0.94,0.859-1.602
				c0.188-0.448,0.344-0.932,0.469-1.453H128.8c-0.083,0-0.169,0.011-0.258,0.031c0.021-0.073,0.031-0.148,0.031-0.227
				C128.573,14.965,128.562,14.906,128.542,14.848z M130.636,16.278c0.286,0.448,0.609,0.867,0.969,1.258
				c-0.115,0.062-0.229,0.156-0.344,0.281c-0.271-0.448-0.594-0.885-0.969-1.312C130.422,16.447,130.537,16.371,130.636,16.278z
				 M132.05,16.786c0.078,0.037,0.221,0.078,0.43,0.125c-0.083,0.12-0.164,0.287-0.242,0.5c-0.183,0.568-0.333,0.982-0.453,1.242
				c-0.089,0.219-0.159,0.409-0.211,0.57c-0.115-0.073-0.258-0.127-0.43-0.164c0.167-0.213,0.367-0.625,0.602-1.234
				C131.906,17.371,132.008,17.025,132.05,16.786z M131.331,15.371c0.172,0.047,0.346,0.07,0.523,0.07h3.094
				c0.177,0,0.354-0.023,0.531-0.07c-0.016,0.078-0.023,0.154-0.023,0.227c0,0.068,0.008,0.141,0.023,0.219
				c-0.177-0.047-0.354-0.07-0.531-0.07h-1.375v4.039c0,0.114-0.086,0.198-0.258,0.25c-0.162,0.062-0.49,0.094-0.984,0.094
				c-0.005-0.156-0.05-0.294-0.133-0.414h0.852c0.094,0,0.143-0.039,0.148-0.117v-3.852h-1.344c-0.177,0-0.352,0.023-0.523,0.07
				c0.021-0.078,0.031-0.151,0.031-0.219C131.362,15.525,131.351,15.45,131.331,15.371z M131.675,13.371
				c0.172,0.047,0.346,0.07,0.523,0.07h2.312c0.182,0,0.362-0.023,0.539-0.07c-0.021,0.078-0.031,0.154-0.031,0.227
				c0,0.068,0.01,0.141,0.031,0.219c-0.177-0.047-0.357-0.07-0.539-0.07h-2.312c-0.177,0-0.352,0.023-0.523,0.07
				c0.021-0.078,0.031-0.151,0.031-0.219C131.706,13.525,131.695,13.45,131.675,13.371z M134.511,16.715
				c0.057,0.136,0.161,0.336,0.312,0.602c0.224,0.406,0.427,0.773,0.609,1.102c0.12,0.234,0.221,0.448,0.305,0.641
				c-0.094,0.031-0.219,0.097-0.375,0.195c-0.062-0.224-0.248-0.641-0.555-1.25c-0.214-0.417-0.427-0.781-0.641-1.094
				C134.308,16.859,134.422,16.793,134.511,16.715z"/>
			<path class="st5" d="M139.886,12.996c0.151,0.037,0.331,0.058,0.539,0.062c-0.062,0.089-0.094,0.203-0.094,0.344v4.164h2.148
				c0.203,0,0.403-0.021,0.602-0.062c-0.021,0.078-0.031,0.159-0.031,0.242c0,0.078,0.01,0.151,0.031,0.219
				c-0.198-0.036-0.398-0.055-0.602-0.055h-2.148v1.492h2.781c0.198,0,0.396-0.021,0.594-0.062
				c-0.021,0.089-0.031,0.174-0.031,0.258c0,0.067,0.01,0.141,0.031,0.219c-0.198-0.047-0.396-0.07-0.594-0.07h-5.914
				c-0.198,0-0.396,0.023-0.594,0.07c0.021-0.078,0.031-0.151,0.031-0.219c0-0.083-0.011-0.169-0.031-0.258
				c0.198,0.042,0.396,0.062,0.594,0.062h2.75v-1.492h-2.062c-0.198,0-0.396,0.019-0.594,0.055c0.026-0.067,0.039-0.141,0.039-0.219
				c0-0.083-0.013-0.164-0.039-0.242c0.198,0.042,0.396,0.062,0.594,0.062h2.062v-4.164
				C139.948,13.273,139.927,13.137,139.886,12.996z M138.362,13.403c0.146,0.068,0.292,0.112,0.438,0.133
				c-0.062,0.089-0.175,0.341-0.336,0.758c-0.042,0.115-0.083,0.219-0.125,0.312c0.364,0.386,0.81,0.87,1.336,1.453
				c-0.13,0.083-0.258,0.188-0.383,0.312c-0.156-0.302-0.521-0.786-1.094-1.453c-0.125,0.281-0.261,0.544-0.406,0.789
				c-0.229,0.427-0.477,0.797-0.742,1.109c-0.104-0.104-0.242-0.188-0.414-0.25c0.354-0.333,0.692-0.794,1.016-1.383
				C137.917,14.715,138.154,14.121,138.362,13.403z M142.05,13.371c0.146,0.068,0.289,0.112,0.43,0.133
				c-0.052,0.089-0.154,0.336-0.305,0.742c-0.058,0.162-0.117,0.315-0.18,0.461c0.442,0.375,0.969,0.849,1.578,1.422
				c-0.13,0.083-0.266,0.198-0.406,0.344c-0.193-0.307-0.633-0.784-1.32-1.43c-0.089,0.198-0.183,0.388-0.281,0.57
				c-0.208,0.417-0.435,0.773-0.68,1.07c-0.099-0.099-0.234-0.18-0.406-0.242c0.323-0.323,0.63-0.773,0.922-1.352
				C141.646,14.637,141.862,14.064,142.05,13.371z"/>
			<path class="st5" d="M144.542,14.848c0.088,0.021,0.174,0.031,0.258,0.031h1v-1.312c0-0.208-0.021-0.419-0.062-0.633h0.555
				c-0.083,0.104-0.125,0.24-0.125,0.406v1.539h0.914c0.078,0,0.161-0.01,0.25-0.031c-0.026,0.058-0.039,0.117-0.039,0.18
				c0,0.078,0.013,0.154,0.039,0.227c-0.089-0.021-0.172-0.031-0.25-0.031h-0.914v4.312c0,0.239,0.021,0.479,0.062,0.719
				c-0.078-0.021-0.159-0.031-0.242-0.031c-0.089,0-0.172,0.01-0.25,0.031c0.042-0.24,0.062-0.479,0.062-0.719v-3.344
				c-0.297,0.948-0.685,1.779-1.164,2.492c-0.058-0.172-0.138-0.307-0.242-0.406c0.312-0.406,0.599-0.94,0.859-1.602
				c0.188-0.448,0.344-0.932,0.469-1.453H144.8c-0.083,0-0.169,0.011-0.258,0.031c0.021-0.073,0.031-0.148,0.031-0.227
				C144.573,14.965,144.562,14.906,144.542,14.848z M146.636,16.278c0.286,0.448,0.609,0.867,0.969,1.258
				c-0.115,0.062-0.229,0.156-0.344,0.281c-0.271-0.448-0.594-0.885-0.969-1.312C146.422,16.447,146.537,16.371,146.636,16.278z
				 M148.05,16.786c0.078,0.037,0.221,0.078,0.43,0.125c-0.083,0.12-0.164,0.287-0.242,0.5c-0.183,0.568-0.333,0.982-0.453,1.242
				c-0.089,0.219-0.159,0.409-0.211,0.57c-0.115-0.073-0.258-0.127-0.43-0.164c0.167-0.213,0.367-0.625,0.602-1.234
				C147.906,17.371,148.008,17.025,148.05,16.786z M147.331,15.371c0.172,0.047,0.346,0.07,0.523,0.07h3.094
				c0.177,0,0.354-0.023,0.531-0.07c-0.016,0.078-0.023,0.154-0.023,0.227c0,0.068,0.008,0.141,0.023,0.219
				c-0.177-0.047-0.354-0.07-0.531-0.07h-1.375v4.039c0,0.114-0.086,0.198-0.258,0.25c-0.162,0.062-0.49,0.094-0.984,0.094
				c-0.005-0.156-0.05-0.294-0.133-0.414h0.852c0.094,0,0.143-0.039,0.148-0.117v-3.852h-1.344c-0.177,0-0.352,0.023-0.523,0.07
				c0.021-0.078,0.031-0.151,0.031-0.219C147.362,15.525,147.351,15.45,147.331,15.371z M147.675,13.371
				c0.172,0.047,0.346,0.07,0.523,0.07h2.312c0.182,0,0.362-0.023,0.539-0.07c-0.021,0.078-0.031,0.154-0.031,0.227
				c0,0.068,0.01,0.141,0.031,0.219c-0.177-0.047-0.357-0.07-0.539-0.07h-2.312c-0.177,0-0.352,0.023-0.523,0.07
				c0.021-0.078,0.031-0.151,0.031-0.219C147.706,13.525,147.695,13.45,147.675,13.371z M150.511,16.715
				c0.057,0.136,0.161,0.336,0.312,0.602c0.224,0.406,0.427,0.773,0.609,1.102c0.12,0.234,0.221,0.448,0.305,0.641
				c-0.094,0.031-0.219,0.097-0.375,0.195c-0.062-0.224-0.248-0.641-0.555-1.25c-0.214-0.417-0.427-0.781-0.641-1.094
				C150.308,16.859,150.422,16.793,150.511,16.715z"/>
		</g>
		<g>
			<path d="M100.279,19.238v-5.757h3.71v0.464h-3.167v2.079h2.878v0.464h-2.878v2.75H100.279z"/>
			<path d="M104.783,19.238v-5.757h2.079c1.351,0,1.887,0.583,1.887,1.447c0,0.799-0.456,1.159-0.919,1.239v0.016
				c0.792,0.12,1.184,0.671,1.184,1.431c0,1.199-0.784,1.623-1.879,1.623H104.783z M105.327,16.023h1.375
				c1.136,0,1.503-0.399,1.503-1.095c0-0.72-0.432-0.983-1.623-0.983h-1.255V16.023z M105.327,18.774h1.383
				c1.199,0,1.759-0.16,1.759-1.159c0-0.952-0.671-1.127-1.695-1.127h-1.447V18.774z"/>
			<path d="M113.469,19.837v0.4h-3.998v-0.4H113.469z"/>
			<path d="M117.597,16.519c0,1.495-0.352,2.83-1.903,2.83c-1.559,0-1.911-1.327-1.911-2.886c0-1.423,0.288-2.862,1.911-2.862
				C117.365,13.601,117.597,15.208,117.597,16.519z M115.678,14.033c-1.12,0-1.383,1.239-1.383,2.487
				c0,1.447,0.32,2.398,1.399,2.398c1.215,0,1.392-1.319,1.392-2.455C117.085,15.248,116.869,14.033,115.678,14.033z"/>
			<path d="M121.768,13.504c0.208,0.042,0.417,0.062,0.625,0.062h3.406c0.208,0,0.417-0.021,0.625-0.062
				c-0.042,0.188-0.062,0.373-0.062,0.555v5.445c0,0.198,0.021,0.393,0.062,0.586c-0.13-0.021-0.216-0.031-0.258-0.031
				c-0.037,0-0.12,0.01-0.25,0.031c0.047-0.193,0.07-0.388,0.07-0.586v-0.281h-3.789v0.281c0,0.198,0.021,0.393,0.062,0.586
				c-0.12-0.021-0.201-0.031-0.242-0.031c-0.047,0-0.13,0.01-0.25,0.031c0.036-0.193,0.055-0.388,0.055-0.586v-5.445
				C121.823,13.877,121.805,13.692,121.768,13.504z M122.198,15.254h3.789v-1.344h-3.789V15.254z M122.198,17.059h3.789v-1.461
				h-3.789V17.059z M122.198,18.879h3.789v-1.477h-3.789V18.879z"/>
			<path d="M128.542,14.848c0.088,0.021,0.174,0.031,0.258,0.031h1v-1.312c0-0.208-0.021-0.419-0.062-0.633h0.555
				c-0.083,0.104-0.125,0.24-0.125,0.406v1.539h0.914c0.078,0,0.161-0.01,0.25-0.031c-0.026,0.058-0.039,0.117-0.039,0.18
				c0,0.078,0.013,0.154,0.039,0.227c-0.089-0.021-0.172-0.031-0.25-0.031h-0.914v4.312c0,0.239,0.021,0.479,0.062,0.719
				c-0.078-0.021-0.159-0.031-0.242-0.031c-0.089,0-0.172,0.01-0.25,0.031c0.042-0.24,0.062-0.479,0.062-0.719v-3.344
				c-0.297,0.948-0.685,1.779-1.164,2.492c-0.058-0.172-0.138-0.307-0.242-0.406c0.312-0.406,0.599-0.94,0.859-1.602
				c0.188-0.448,0.344-0.932,0.469-1.453H128.8c-0.083,0-0.169,0.011-0.258,0.031c0.021-0.073,0.031-0.148,0.031-0.227
				C128.573,14.965,128.562,14.906,128.542,14.848z M130.636,16.278c0.286,0.448,0.609,0.867,0.969,1.258
				c-0.115,0.062-0.229,0.156-0.344,0.281c-0.271-0.448-0.594-0.885-0.969-1.312C130.422,16.447,130.537,16.371,130.636,16.278z
				 M132.05,16.786c0.078,0.037,0.221,0.078,0.43,0.125c-0.083,0.12-0.164,0.287-0.242,0.5c-0.183,0.568-0.333,0.982-0.453,1.242
				c-0.089,0.219-0.159,0.409-0.211,0.57c-0.115-0.073-0.258-0.127-0.43-0.164c0.167-0.213,0.367-0.625,0.602-1.234
				C131.906,17.371,132.008,17.025,132.05,16.786z M131.331,15.371c0.172,0.047,0.346,0.07,0.523,0.07h3.094
				c0.177,0,0.354-0.023,0.531-0.07c-0.016,0.078-0.023,0.154-0.023,0.227c0,0.068,0.008,0.141,0.023,0.219
				c-0.177-0.047-0.354-0.07-0.531-0.07h-1.375v4.039c0,0.114-0.086,0.198-0.258,0.25c-0.162,0.062-0.49,0.094-0.984,0.094
				c-0.005-0.156-0.05-0.294-0.133-0.414h0.852c0.094,0,0.143-0.039,0.148-0.117v-3.852h-1.344c-0.177,0-0.352,0.023-0.523,0.07
				c0.021-0.078,0.031-0.151,0.031-0.219C131.362,15.525,131.351,15.45,131.331,15.371z M131.675,13.371
				c0.172,0.047,0.346,0.07,0.523,0.07h2.312c0.182,0,0.362-0.023,0.539-0.07c-0.021,0.078-0.031,0.154-0.031,0.227
				c0,0.068,0.01,0.141,0.031,0.219c-0.177-0.047-0.357-0.07-0.539-0.07h-2.312c-0.177,0-0.352,0.023-0.523,0.07
				c0.021-0.078,0.031-0.151,0.031-0.219C131.706,13.525,131.695,13.45,131.675,13.371z M134.511,16.715
				c0.057,0.136,0.161,0.336,0.312,0.602c0.224,0.406,0.427,0.773,0.609,1.102c0.12,0.234,0.221,0.448,0.305,0.641
				c-0.094,0.031-0.219,0.097-0.375,0.195c-0.062-0.224-0.248-0.641-0.555-1.25c-0.214-0.417-0.427-0.781-0.641-1.094
				C134.308,16.859,134.422,16.793,134.511,16.715z"/>
			<path d="M139.886,12.996c0.151,0.037,0.331,0.058,0.539,0.062c-0.062,0.089-0.094,0.203-0.094,0.344v4.164h2.148
				c0.203,0,0.403-0.021,0.602-0.062c-0.021,0.078-0.031,0.159-0.031,0.242c0,0.078,0.01,0.151,0.031,0.219
				c-0.198-0.036-0.398-0.055-0.602-0.055h-2.148v1.492h2.781c0.198,0,0.396-0.021,0.594-0.062
				c-0.021,0.089-0.031,0.174-0.031,0.258c0,0.067,0.01,0.141,0.031,0.219c-0.198-0.047-0.396-0.07-0.594-0.07h-5.914
				c-0.198,0-0.396,0.023-0.594,0.07c0.021-0.078,0.031-0.151,0.031-0.219c0-0.083-0.011-0.169-0.031-0.258
				c0.198,0.042,0.396,0.062,0.594,0.062h2.75v-1.492h-2.062c-0.198,0-0.396,0.019-0.594,0.055c0.026-0.067,0.039-0.141,0.039-0.219
				c0-0.083-0.013-0.164-0.039-0.242c0.198,0.042,0.396,0.062,0.594,0.062h2.062v-4.164
				C139.948,13.273,139.927,13.137,139.886,12.996z M138.362,13.403c0.146,0.068,0.292,0.112,0.438,0.133
				c-0.062,0.089-0.175,0.341-0.336,0.758c-0.042,0.115-0.083,0.219-0.125,0.312c0.364,0.386,0.81,0.87,1.336,1.453
				c-0.13,0.083-0.258,0.188-0.383,0.312c-0.156-0.302-0.521-0.786-1.094-1.453c-0.125,0.281-0.261,0.544-0.406,0.789
				c-0.229,0.427-0.477,0.797-0.742,1.109c-0.104-0.104-0.242-0.188-0.414-0.25c0.354-0.333,0.692-0.794,1.016-1.383
				C137.917,14.715,138.154,14.121,138.362,13.403z M142.05,13.371c0.146,0.068,0.289,0.112,0.43,0.133
				c-0.052,0.089-0.154,0.336-0.305,0.742c-0.058,0.162-0.117,0.315-0.18,0.461c0.442,0.375,0.969,0.849,1.578,1.422
				c-0.13,0.083-0.266,0.198-0.406,0.344c-0.193-0.307-0.633-0.784-1.32-1.43c-0.089,0.198-0.183,0.388-0.281,0.57
				c-0.208,0.417-0.435,0.773-0.68,1.07c-0.099-0.099-0.234-0.18-0.406-0.242c0.323-0.323,0.63-0.773,0.922-1.352
				C141.646,14.637,141.862,14.064,142.05,13.371z"/>
			<path d="M144.542,14.848c0.088,0.021,0.174,0.031,0.258,0.031h1v-1.312c0-0.208-0.021-0.419-0.062-0.633h0.555
				c-0.083,0.104-0.125,0.24-0.125,0.406v1.539h0.914c0.078,0,0.161-0.01,0.25-0.031c-0.026,0.058-0.039,0.117-0.039,0.18
				c0,0.078,0.013,0.154,0.039,0.227c-0.089-0.021-0.172-0.031-0.25-0.031h-0.914v4.312c0,0.239,0.021,0.479,0.062,0.719
				c-0.078-0.021-0.159-0.031-0.242-0.031c-0.089,0-0.172,0.01-0.25,0.031c0.042-0.24,0.062-0.479,0.062-0.719v-3.344
				c-0.297,0.948-0.685,1.779-1.164,2.492c-0.058-0.172-0.138-0.307-0.242-0.406c0.312-0.406,0.599-0.94,0.859-1.602
				c0.188-0.448,0.344-0.932,0.469-1.453H144.8c-0.083,0-0.169,0.011-0.258,0.031c0.021-0.073,0.031-0.148,0.031-0.227
				C144.573,14.965,144.562,14.906,144.542,14.848z M146.636,16.278c0.286,0.448,0.609,0.867,0.969,1.258
				c-0.115,0.062-0.229,0.156-0.344,0.281c-0.271-0.448-0.594-0.885-0.969-1.312C146.422,16.447,146.537,16.371,146.636,16.278z
				 M148.05,16.786c0.078,0.037,0.221,0.078,0.43,0.125c-0.083,0.12-0.164,0.287-0.242,0.5c-0.183,0.568-0.333,0.982-0.453,1.242
				c-0.089,0.219-0.159,0.409-0.211,0.57c-0.115-0.073-0.258-0.127-0.43-0.164c0.167-0.213,0.367-0.625,0.602-1.234
				C147.906,17.371,148.008,17.025,148.05,16.786z M147.331,15.371c0.172,0.047,0.346,0.07,0.523,0.07h3.094
				c0.177,0,0.354-0.023,0.531-0.07c-0.016,0.078-0.023,0.154-0.023,0.227c0,0.068,0.008,0.141,0.023,0.219
				c-0.177-0.047-0.354-0.07-0.531-0.07h-1.375v4.039c0,0.114-0.086,0.198-0.258,0.25c-0.162,0.062-0.49,0.094-0.984,0.094
				c-0.005-0.156-0.05-0.294-0.133-0.414h0.852c0.094,0,0.143-0.039,0.148-0.117v-3.852h-1.344c-0.177,0-0.352,0.023-0.523,0.07
				c0.021-0.078,0.031-0.151,0.031-0.219C147.362,15.525,147.351,15.45,147.331,15.371z M147.675,13.371
				c0.172,0.047,0.346,0.07,0.523,0.07h2.312c0.182,0,0.362-0.023,0.539-0.07c-0.021,0.078-0.031,0.154-0.031,0.227
				c0,0.068,0.01,0.141,0.031,0.219c-0.177-0.047-0.357-0.07-0.539-0.07h-2.312c-0.177,0-0.352,0.023-0.523,0.07
				c0.021-0.078,0.031-0.151,0.031-0.219C147.706,13.525,147.695,13.45,147.675,13.371z M150.511,16.715
				c0.057,0.136,0.161,0.336,0.312,0.602c0.224,0.406,0.427,0.773,0.609,1.102c0.12,0.234,0.221,0.448,0.305,0.641
				c-0.094,0.031-0.219,0.097-0.375,0.195c-0.062-0.224-0.248-0.641-0.555-1.25c-0.214-0.417-0.427-0.781-0.641-1.094
				C150.308,16.859,150.422,16.793,150.511,16.715z"/>
		</g>
	</g>
	<g>
		<g>
			<path class="st5" d="M136.655,126.024v-5.757h3.71v0.464h-3.167v2.079h2.878v0.464h-2.878v2.75H136.655z"/>
			<path class="st5" d="M141.159,126.024v-5.757h2.079c1.351,0,1.887,0.584,1.887,1.447c0,0.8-0.456,1.159-0.919,1.239v0.017
				c0.792,0.119,1.184,0.671,1.184,1.431c0,1.199-0.784,1.623-1.879,1.623H141.159z M141.703,122.81h1.375
				c1.136,0,1.503-0.399,1.503-1.096c0-0.72-0.432-0.983-1.623-0.983h-1.255V122.81z M141.703,125.56h1.383
				c1.199,0,1.759-0.159,1.759-1.159c0-0.951-0.671-1.127-1.695-1.127h-1.447V125.56z"/>
			<path class="st5" d="M149.845,126.624v0.4h-3.998v-0.4H149.845z"/>
			<path class="st5" d="M152.262,121.835h-1.455v-0.336c0.855-0.056,1.391-0.144,1.559-1.111h0.408v5.637h-0.512V121.835z"/>
			<path class="st5" d="M158.144,120.291c0.208,0.042,0.417,0.062,0.625,0.062h3.406c0.208,0,0.417-0.021,0.625-0.062
				c-0.042,0.188-0.062,0.373-0.062,0.555v5.445c0,0.198,0.021,0.394,0.062,0.586c-0.13-0.021-0.216-0.031-0.258-0.031
				c-0.037,0-0.12,0.011-0.25,0.031c0.047-0.192,0.07-0.388,0.07-0.586v-0.281h-3.789v0.281c0,0.198,0.021,0.394,0.062,0.586
				c-0.12-0.021-0.201-0.031-0.242-0.031c-0.047,0-0.13,0.011-0.25,0.031c0.036-0.192,0.055-0.388,0.055-0.586v-5.445
				C158.199,120.664,158.181,120.478,158.144,120.291z M158.574,122.041h3.789v-1.344h-3.789V122.041z M158.574,123.846h3.789
				v-1.461h-3.789V123.846z M158.574,125.666h3.789v-1.477h-3.789V125.666z"/>
			<path class="st5" d="M164.918,121.635c0.088,0.021,0.174,0.031,0.258,0.031h1v-1.312c0-0.208-0.021-0.419-0.062-0.633h0.555
				c-0.083,0.104-0.125,0.24-0.125,0.406v1.539h0.914c0.078,0,0.161-0.01,0.25-0.031c-0.026,0.058-0.039,0.117-0.039,0.18
				c0,0.078,0.013,0.154,0.039,0.227c-0.089-0.021-0.172-0.031-0.25-0.031h-0.914v4.312c0,0.239,0.021,0.479,0.062,0.719
				c-0.078-0.021-0.159-0.031-0.242-0.031c-0.089,0-0.172,0.011-0.25,0.031c0.042-0.239,0.062-0.479,0.062-0.719v-3.344
				c-0.297,0.948-0.685,1.779-1.164,2.492c-0.058-0.172-0.138-0.307-0.242-0.406c0.312-0.406,0.599-0.939,0.859-1.602
				c0.188-0.447,0.344-0.932,0.469-1.453h-0.922c-0.083,0-0.169,0.011-0.258,0.031c0.021-0.072,0.031-0.148,0.031-0.227
				C164.949,121.752,164.938,121.692,164.918,121.635z M167.012,123.064c0.286,0.448,0.609,0.867,0.969,1.258
				c-0.115,0.062-0.229,0.156-0.344,0.281c-0.271-0.447-0.594-0.885-0.969-1.312C166.798,123.234,166.913,123.158,167.012,123.064z
				 M168.426,123.572c0.078,0.037,0.221,0.078,0.43,0.125c-0.083,0.12-0.164,0.287-0.242,0.5c-0.183,0.568-0.333,0.982-0.453,1.242
				c-0.089,0.219-0.159,0.409-0.211,0.57c-0.115-0.072-0.258-0.127-0.43-0.164c0.167-0.213,0.367-0.625,0.602-1.234
				C168.282,124.158,168.384,123.812,168.426,123.572z M167.707,122.158c0.172,0.047,0.346,0.07,0.523,0.07h3.094
				c0.177,0,0.354-0.023,0.531-0.07c-0.016,0.078-0.023,0.154-0.023,0.227c0,0.068,0.008,0.141,0.023,0.219
				c-0.177-0.047-0.354-0.07-0.531-0.07h-1.375v4.039c0,0.114-0.086,0.198-0.258,0.25c-0.162,0.062-0.49,0.094-0.984,0.094
				c-0.005-0.156-0.05-0.294-0.133-0.414h0.852c0.094,0,0.143-0.039,0.148-0.117v-3.852h-1.344c-0.177,0-0.352,0.023-0.523,0.07
				c0.021-0.078,0.031-0.15,0.031-0.219C167.738,122.312,167.727,122.236,167.707,122.158z M168.051,120.158
				c0.172,0.047,0.346,0.07,0.523,0.07h2.312c0.182,0,0.362-0.023,0.539-0.07c-0.021,0.078-0.031,0.154-0.031,0.227
				c0,0.068,0.01,0.141,0.031,0.219c-0.177-0.047-0.357-0.07-0.539-0.07h-2.312c-0.177,0-0.352,0.023-0.523,0.07
				c0.021-0.078,0.031-0.15,0.031-0.219C168.082,120.312,168.071,120.236,168.051,120.158z M170.887,123.502
				c0.057,0.136,0.161,0.336,0.312,0.602c0.224,0.406,0.427,0.773,0.609,1.102c0.12,0.234,0.221,0.448,0.305,0.641
				c-0.094,0.031-0.219,0.097-0.375,0.195c-0.062-0.224-0.248-0.641-0.555-1.25c-0.214-0.416-0.427-0.781-0.641-1.094
				C170.684,123.645,170.798,123.58,170.887,123.502z"/>
			<path class="st5" d="M176.262,119.783c0.151,0.037,0.331,0.058,0.539,0.062c-0.062,0.089-0.094,0.203-0.094,0.344v4.164h2.148
				c0.203,0,0.403-0.021,0.602-0.062c-0.021,0.078-0.031,0.159-0.031,0.242c0,0.078,0.01,0.151,0.031,0.219
				c-0.198-0.036-0.398-0.055-0.602-0.055h-2.148v1.492h2.781c0.198,0,0.396-0.021,0.594-0.062
				c-0.021,0.089-0.031,0.175-0.031,0.258c0,0.067,0.01,0.141,0.031,0.219c-0.198-0.047-0.396-0.07-0.594-0.07h-5.914
				c-0.198,0-0.396,0.023-0.594,0.07c0.021-0.078,0.031-0.151,0.031-0.219c0-0.083-0.011-0.169-0.031-0.258
				c0.198,0.042,0.396,0.062,0.594,0.062h2.75v-1.492h-2.062c-0.198,0-0.396,0.019-0.594,0.055c0.026-0.067,0.039-0.141,0.039-0.219
				c0-0.083-0.013-0.164-0.039-0.242c0.198,0.042,0.396,0.062,0.594,0.062h2.062v-4.164
				C176.324,120.059,176.303,119.924,176.262,119.783z M174.738,120.189c0.146,0.068,0.292,0.112,0.438,0.133
				c-0.062,0.089-0.175,0.342-0.336,0.758c-0.042,0.115-0.083,0.219-0.125,0.312c0.364,0.386,0.81,0.87,1.336,1.453
				c-0.13,0.084-0.258,0.188-0.383,0.312c-0.156-0.302-0.521-0.786-1.094-1.453c-0.125,0.281-0.261,0.545-0.406,0.789
				c-0.229,0.428-0.477,0.797-0.742,1.109c-0.104-0.104-0.242-0.188-0.414-0.25c0.354-0.333,0.692-0.794,1.016-1.383
				C174.293,121.502,174.53,120.908,174.738,120.189z M178.426,120.158c0.146,0.068,0.289,0.112,0.43,0.133
				c-0.052,0.089-0.154,0.336-0.305,0.742c-0.058,0.162-0.117,0.315-0.18,0.461c0.442,0.375,0.969,0.85,1.578,1.422
				c-0.13,0.084-0.266,0.198-0.406,0.344c-0.193-0.307-0.633-0.783-1.32-1.43c-0.089,0.198-0.183,0.389-0.281,0.57
				c-0.208,0.417-0.435,0.773-0.68,1.07c-0.099-0.099-0.234-0.18-0.406-0.242c0.323-0.322,0.63-0.773,0.922-1.352
				C178.022,121.424,178.238,120.851,178.426,120.158z"/>
			<path class="st5" d="M180.918,121.635c0.088,0.021,0.174,0.031,0.258,0.031h1v-1.312c0-0.208-0.021-0.419-0.062-0.633h0.555
				c-0.083,0.104-0.125,0.24-0.125,0.406v1.539h0.914c0.078,0,0.161-0.01,0.25-0.031c-0.026,0.058-0.039,0.117-0.039,0.18
				c0,0.078,0.013,0.154,0.039,0.227c-0.089-0.021-0.172-0.031-0.25-0.031h-0.914v4.312c0,0.239,0.021,0.479,0.062,0.719
				c-0.078-0.021-0.159-0.031-0.242-0.031c-0.089,0-0.172,0.011-0.25,0.031c0.042-0.239,0.062-0.479,0.062-0.719v-3.344
				c-0.297,0.948-0.685,1.779-1.164,2.492c-0.058-0.172-0.138-0.307-0.242-0.406c0.312-0.406,0.599-0.939,0.859-1.602
				c0.188-0.447,0.344-0.932,0.469-1.453h-0.922c-0.083,0-0.169,0.011-0.258,0.031c0.021-0.072,0.031-0.148,0.031-0.227
				C180.949,121.752,180.938,121.692,180.918,121.635z M183.012,123.064c0.286,0.448,0.609,0.867,0.969,1.258
				c-0.115,0.062-0.229,0.156-0.344,0.281c-0.271-0.447-0.594-0.885-0.969-1.312C182.798,123.234,182.913,123.158,183.012,123.064z
				 M184.426,123.572c0.078,0.037,0.221,0.078,0.43,0.125c-0.083,0.12-0.164,0.287-0.242,0.5c-0.183,0.568-0.333,0.982-0.453,1.242
				c-0.089,0.219-0.159,0.409-0.211,0.57c-0.115-0.072-0.258-0.127-0.43-0.164c0.167-0.213,0.367-0.625,0.602-1.234
				C184.282,124.158,184.384,123.812,184.426,123.572z M183.707,122.158c0.172,0.047,0.346,0.07,0.523,0.07h3.094
				c0.177,0,0.354-0.023,0.531-0.07c-0.016,0.078-0.023,0.154-0.023,0.227c0,0.068,0.008,0.141,0.023,0.219
				c-0.177-0.047-0.354-0.07-0.531-0.07h-1.375v4.039c0,0.114-0.086,0.198-0.258,0.25c-0.162,0.062-0.49,0.094-0.984,0.094
				c-0.005-0.156-0.05-0.294-0.133-0.414h0.852c0.094,0,0.143-0.039,0.148-0.117v-3.852h-1.344c-0.177,0-0.352,0.023-0.523,0.07
				c0.021-0.078,0.031-0.15,0.031-0.219C183.738,122.312,183.727,122.236,183.707,122.158z M184.051,120.158
				c0.172,0.047,0.346,0.07,0.523,0.07h2.312c0.182,0,0.362-0.023,0.539-0.07c-0.021,0.078-0.031,0.154-0.031,0.227
				c0,0.068,0.01,0.141,0.031,0.219c-0.177-0.047-0.357-0.07-0.539-0.07h-2.312c-0.177,0-0.352,0.023-0.523,0.07
				c0.021-0.078,0.031-0.15,0.031-0.219C184.082,120.312,184.071,120.236,184.051,120.158z M186.887,123.502
				c0.057,0.136,0.161,0.336,0.312,0.602c0.224,0.406,0.427,0.773,0.609,1.102c0.12,0.234,0.221,0.448,0.305,0.641
				c-0.094,0.031-0.219,0.097-0.375,0.195c-0.062-0.224-0.248-0.641-0.555-1.25c-0.214-0.416-0.427-0.781-0.641-1.094
				C186.684,123.645,186.798,123.58,186.887,123.502z"/>
		</g>
		<g>
			<path d="M136.655,126.024v-5.757h3.71v0.464h-3.167v2.079h2.878v0.464h-2.878v2.75H136.655z"/>
			<path d="M141.159,126.024v-5.757h2.079c1.351,0,1.887,0.584,1.887,1.447c0,0.8-0.456,1.159-0.919,1.239v0.017
				c0.792,0.119,1.184,0.671,1.184,1.431c0,1.199-0.784,1.623-1.879,1.623H141.159z M141.703,122.81h1.375
				c1.136,0,1.503-0.399,1.503-1.096c0-0.72-0.432-0.983-1.623-0.983h-1.255V122.81z M141.703,125.56h1.383
				c1.199,0,1.759-0.159,1.759-1.159c0-0.951-0.671-1.127-1.695-1.127h-1.447V125.56z"/>
			<path d="M149.845,126.624v0.4h-3.998v-0.4H149.845z"/>
			<path d="M152.262,121.835h-1.455v-0.336c0.855-0.056,1.391-0.144,1.559-1.111h0.408v5.637h-0.512V121.835z"/>
			<path d="M158.144,120.291c0.208,0.042,0.417,0.062,0.625,0.062h3.406c0.208,0,0.417-0.021,0.625-0.062
				c-0.042,0.188-0.062,0.373-0.062,0.555v5.445c0,0.198,0.021,0.394,0.062,0.586c-0.13-0.021-0.216-0.031-0.258-0.031
				c-0.037,0-0.12,0.011-0.25,0.031c0.047-0.192,0.07-0.388,0.07-0.586v-0.281h-3.789v0.281c0,0.198,0.021,0.394,0.062,0.586
				c-0.12-0.021-0.201-0.031-0.242-0.031c-0.047,0-0.13,0.011-0.25,0.031c0.036-0.192,0.055-0.388,0.055-0.586v-5.445
				C158.199,120.664,158.181,120.478,158.144,120.291z M158.574,122.041h3.789v-1.344h-3.789V122.041z M158.574,123.846h3.789
				v-1.461h-3.789V123.846z M158.574,125.666h3.789v-1.477h-3.789V125.666z"/>
			<path d="M164.918,121.635c0.088,0.021,0.174,0.031,0.258,0.031h1v-1.312c0-0.208-0.021-0.419-0.062-0.633h0.555
				c-0.083,0.104-0.125,0.24-0.125,0.406v1.539h0.914c0.078,0,0.161-0.01,0.25-0.031c-0.026,0.058-0.039,0.117-0.039,0.18
				c0,0.078,0.013,0.154,0.039,0.227c-0.089-0.021-0.172-0.031-0.25-0.031h-0.914v4.312c0,0.239,0.021,0.479,0.062,0.719
				c-0.078-0.021-0.159-0.031-0.242-0.031c-0.089,0-0.172,0.011-0.25,0.031c0.042-0.239,0.062-0.479,0.062-0.719v-3.344
				c-0.297,0.948-0.685,1.779-1.164,2.492c-0.058-0.172-0.138-0.307-0.242-0.406c0.312-0.406,0.599-0.939,0.859-1.602
				c0.188-0.447,0.344-0.932,0.469-1.453h-0.922c-0.083,0-0.169,0.011-0.258,0.031c0.021-0.072,0.031-0.148,0.031-0.227
				C164.949,121.752,164.938,121.692,164.918,121.635z M167.012,123.064c0.286,0.448,0.609,0.867,0.969,1.258
				c-0.115,0.062-0.229,0.156-0.344,0.281c-0.271-0.447-0.594-0.885-0.969-1.312C166.798,123.234,166.913,123.158,167.012,123.064z
				 M168.426,123.572c0.078,0.037,0.221,0.078,0.43,0.125c-0.083,0.12-0.164,0.287-0.242,0.5c-0.183,0.568-0.333,0.982-0.453,1.242
				c-0.089,0.219-0.159,0.409-0.211,0.57c-0.115-0.072-0.258-0.127-0.43-0.164c0.167-0.213,0.367-0.625,0.602-1.234
				C168.282,124.158,168.384,123.812,168.426,123.572z M167.707,122.158c0.172,0.047,0.346,0.07,0.523,0.07h3.094
				c0.177,0,0.354-0.023,0.531-0.07c-0.016,0.078-0.023,0.154-0.023,0.227c0,0.068,0.008,0.141,0.023,0.219
				c-0.177-0.047-0.354-0.07-0.531-0.07h-1.375v4.039c0,0.114-0.086,0.198-0.258,0.25c-0.162,0.062-0.49,0.094-0.984,0.094
				c-0.005-0.156-0.05-0.294-0.133-0.414h0.852c0.094,0,0.143-0.039,0.148-0.117v-3.852h-1.344c-0.177,0-0.352,0.023-0.523,0.07
				c0.021-0.078,0.031-0.15,0.031-0.219C167.738,122.312,167.727,122.236,167.707,122.158z M168.051,120.158
				c0.172,0.047,0.346,0.07,0.523,0.07h2.312c0.182,0,0.362-0.023,0.539-0.07c-0.021,0.078-0.031,0.154-0.031,0.227
				c0,0.068,0.01,0.141,0.031,0.219c-0.177-0.047-0.357-0.07-0.539-0.07h-2.312c-0.177,0-0.352,0.023-0.523,0.07
				c0.021-0.078,0.031-0.15,0.031-0.219C168.082,120.312,168.071,120.236,168.051,120.158z M170.887,123.502
				c0.057,0.136,0.161,0.336,0.312,0.602c0.224,0.406,0.427,0.773,0.609,1.102c0.12,0.234,0.221,0.448,0.305,0.641
				c-0.094,0.031-0.219,0.097-0.375,0.195c-0.062-0.224-0.248-0.641-0.555-1.25c-0.214-0.416-0.427-0.781-0.641-1.094
				C170.684,123.645,170.798,123.58,170.887,123.502z"/>
			<path d="M176.262,119.783c0.151,0.037,0.331,0.058,0.539,0.062c-0.062,0.089-0.094,0.203-0.094,0.344v4.164h2.148
				c0.203,0,0.403-0.021,0.602-0.062c-0.021,0.078-0.031,0.159-0.031,0.242c0,0.078,0.01,0.151,0.031,0.219
				c-0.198-0.036-0.398-0.055-0.602-0.055h-2.148v1.492h2.781c0.198,0,0.396-0.021,0.594-0.062
				c-0.021,0.089-0.031,0.175-0.031,0.258c0,0.067,0.01,0.141,0.031,0.219c-0.198-0.047-0.396-0.07-0.594-0.07h-5.914
				c-0.198,0-0.396,0.023-0.594,0.07c0.021-0.078,0.031-0.151,0.031-0.219c0-0.083-0.011-0.169-0.031-0.258
				c0.198,0.042,0.396,0.062,0.594,0.062h2.75v-1.492h-2.062c-0.198,0-0.396,0.019-0.594,0.055c0.026-0.067,0.039-0.141,0.039-0.219
				c0-0.083-0.013-0.164-0.039-0.242c0.198,0.042,0.396,0.062,0.594,0.062h2.062v-4.164
				C176.324,120.059,176.303,119.924,176.262,119.783z M174.738,120.189c0.146,0.068,0.292,0.112,0.438,0.133
				c-0.062,0.089-0.175,0.342-0.336,0.758c-0.042,0.115-0.083,0.219-0.125,0.312c0.364,0.386,0.81,0.87,1.336,1.453
				c-0.13,0.084-0.258,0.188-0.383,0.312c-0.156-0.302-0.521-0.786-1.094-1.453c-0.125,0.281-0.261,0.545-0.406,0.789
				c-0.229,0.428-0.477,0.797-0.742,1.109c-0.104-0.104-0.242-0.188-0.414-0.25c0.354-0.333,0.692-0.794,1.016-1.383
				C174.293,121.502,174.53,120.908,174.738,120.189z M178.426,120.158c0.146,0.068,0.289,0.112,0.43,0.133
				c-0.052,0.089-0.154,0.336-0.305,0.742c-0.058,0.162-0.117,0.315-0.18,0.461c0.442,0.375,0.969,0.85,1.578,1.422
				c-0.13,0.084-0.266,0.198-0.406,0.344c-0.193-0.307-0.633-0.783-1.32-1.43c-0.089,0.198-0.183,0.389-0.281,0.57
				c-0.208,0.417-0.435,0.773-0.68,1.07c-0.099-0.099-0.234-0.18-0.406-0.242c0.323-0.322,0.63-0.773,0.922-1.352
				C178.022,121.424,178.238,120.851,178.426,120.158z"/>
			<path d="M180.918,121.635c0.088,0.021,0.174,0.031,0.258,0.031h1v-1.312c0-0.208-0.021-0.419-0.062-0.633h0.555
				c-0.083,0.104-0.125,0.24-0.125,0.406v1.539h0.914c0.078,0,0.161-0.01,0.25-0.031c-0.026,0.058-0.039,0.117-0.039,0.18
				c0,0.078,0.013,0.154,0.039,0.227c-0.089-0.021-0.172-0.031-0.25-0.031h-0.914v4.312c0,0.239,0.021,0.479,0.062,0.719
				c-0.078-0.021-0.159-0.031-0.242-0.031c-0.089,0-0.172,0.011-0.25,0.031c0.042-0.239,0.062-0.479,0.062-0.719v-3.344
				c-0.297,0.948-0.685,1.779-1.164,2.492c-0.058-0.172-0.138-0.307-0.242-0.406c0.312-0.406,0.599-0.939,0.859-1.602
				c0.188-0.447,0.344-0.932,0.469-1.453h-0.922c-0.083,0-0.169,0.011-0.258,0.031c0.021-0.072,0.031-0.148,0.031-0.227
				C180.949,121.752,180.938,121.692,180.918,121.635z M183.012,123.064c0.286,0.448,0.609,0.867,0.969,1.258
				c-0.115,0.062-0.229,0.156-0.344,0.281c-0.271-0.447-0.594-0.885-0.969-1.312C182.798,123.234,182.913,123.158,183.012,123.064z
				 M184.426,123.572c0.078,0.037,0.221,0.078,0.43,0.125c-0.083,0.12-0.164,0.287-0.242,0.5c-0.183,0.568-0.333,0.982-0.453,1.242
				c-0.089,0.219-0.159,0.409-0.211,0.57c-0.115-0.072-0.258-0.127-0.43-0.164c0.167-0.213,0.367-0.625,0.602-1.234
				C184.282,124.158,184.384,123.812,184.426,123.572z M183.707,122.158c0.172,0.047,0.346,0.07,0.523,0.07h3.094
				c0.177,0,0.354-0.023,0.531-0.07c-0.016,0.078-0.023,0.154-0.023,0.227c0,0.068,0.008,0.141,0.023,0.219
				c-0.177-0.047-0.354-0.07-0.531-0.07h-1.375v4.039c0,0.114-0.086,0.198-0.258,0.25c-0.162,0.062-0.49,0.094-0.984,0.094
				c-0.005-0.156-0.05-0.294-0.133-0.414h0.852c0.094,0,0.143-0.039,0.148-0.117v-3.852h-1.344c-0.177,0-0.352,0.023-0.523,0.07
				c0.021-0.078,0.031-0.15,0.031-0.219C183.738,122.312,183.727,122.236,183.707,122.158z M184.051,120.158
				c0.172,0.047,0.346,0.07,0.523,0.07h2.312c0.182,0,0.362-0.023,0.539-0.07c-0.021,0.078-0.031,0.154-0.031,0.227
				c0,0.068,0.01,0.141,0.031,0.219c-0.177-0.047-0.357-0.07-0.539-0.07h-2.312c-0.177,0-0.352,0.023-0.523,0.07
				c0.021-0.078,0.031-0.15,0.031-0.219C184.082,120.312,184.071,120.236,184.051,120.158z M186.887,123.502
				c0.057,0.136,0.161,0.336,0.312,0.602c0.224,0.406,0.427,0.773,0.609,1.102c0.12,0.234,0.221,0.448,0.305,0.641
				c-0.094,0.031-0.219,0.097-0.375,0.195c-0.062-0.224-0.248-0.641-0.555-1.25c-0.214-0.416-0.427-0.781-0.641-1.094
				C186.684,123.645,186.798,123.58,186.887,123.502z"/>
		</g>
	</g>
	<g>
	</g>
	<g>
	</g>
	<g>
	</g>
	<g>
	</g>
	<g>
	</g>
	<g>
	</g>
	<g>
	</g>
	<g>
	</g>
	<g>
	</g>
	<g>
	</g>
	<g>
	</g>
	<g>
	</g>
	<g>
	</g>
	<g>
	</g>
	<g>
	</g>
</g>
</svg>
