<?xml version="1.0" encoding="utf-8"?>
<!-- Generator: Adobe Illustrator 28.2.0, SVG Export Plug-In . SVG Version: 6.00 Build 0)  -->
<svg version="1.1" xmlns="http://www.w3.org/2000/svg" xmlns:xlink="http://www.w3.org/1999/xlink" x="0px" y="0px"
	 width="215.644px" height="130.394px" viewBox="0 0 215.644 130.394" style="enable-background:new 0 0 215.644 130.394;"
	 xml:space="preserve">
<style type="text/css">
	.st0{fill:none;stroke:#666666;stroke-width:0.5;stroke-miterlimit:10;}
	.st1{fill:none;stroke:#666666;stroke-width:0.5;stroke-miterlimit:10;stroke-dasharray:0.9739,0.9739;}
	.st2{fill:none;stroke:#666666;stroke-width:0.5;stroke-miterlimit:10;stroke-dasharray:0.9758,0.9758;}
	.st3{fill:none;stroke:#666666;stroke-width:0.5;stroke-miterlimit:10;stroke-dasharray:1;}
	.st4{stroke:#000000;stroke-width:0.5;stroke-miterlimit:10;}
	.st5{fill:none;stroke:#666666;stroke-width:0.5;stroke-miterlimit:10;stroke-dasharray:1.0671,1.0671;}
	.st6{fill:none;stroke:#666666;stroke-width:0.5;stroke-miterlimit:10;stroke-dasharray:1.0608,1.0608;}
	.st7{fill:none;stroke:#000000;stroke-width:0.5;stroke-miterlimit:10;}
	.st8{fill:#FFFFFF;stroke:#000000;stroke-width:0.5;stroke-miterlimit:10;}
	.st9{fill:none;stroke:#FFFFFF;stroke-width:3;stroke-linecap:round;stroke-linejoin:round;}
	.st10{fill:none;stroke:#FFFFFF;stroke-width:2;}
	.st11{fill:none;stroke:#FFFFFF;stroke-width:2;stroke-linecap:round;stroke-linejoin:round;}
	.st12{fill:none;stroke:#000000;stroke-width:0.5;stroke-linecap:round;stroke-linejoin:round;}
</style>
<g id="レイヤー_1">
	<polyline class="st0" points="72.405,47.109 74.272,43.376 70.539,41.509 	"/>
	<g>
		<g>
			<line class="st0" x1="68.674" y1="45.347" x2="68.898" y2="44.899"/>
			<line class="st1" x1="69.334" y1="44.028" x2="79.574" y2="23.56"/>
			<polyline class="st0" points="79.792,23.124 80.015,22.677 80.24,23.124 			"/>
			<line class="st2" x1="80.677" y1="23.996" x2="90.955" y2="44.495"/>
			<line class="st0" x1="91.173" y1="44.931" x2="91.397" y2="45.378"/>
		</g>
	</g>
	<line class="st3" x1="34.674" y1="0" x2="34.674" y2="124.724"/>
	<line class="st3" x1="23.335" y1="113.386" x2="153.729" y2="113.386"/>
	<circle class="st4" cx="57.401" cy="68.031" r="3.322"/>
	<g>
		<g>
			<line class="st0" x1="68.674" y1="45.347" x2="69.121" y2="45.57"/>
			<line class="st5" x1="70.076" y1="46.048" x2="79.143" y2="50.582"/>
			<polyline class="st0" points="79.62,50.821 80.067,51.045 80.514,50.821 			"/>
			<line class="st6" x1="81.463" y1="50.346" x2="90.476" y2="45.839"/>
			<line class="st0" x1="90.95" y1="45.601" x2="91.397" y2="45.378"/>
		</g>
	</g>
	<line class="st7" x1="125.383" y1="113.386" x2="91.397" y2="45.378"/>
	<circle class="st8" cx="125.383" cy="113.386" r="3.322"/>
	<line class="st7" x1="34.648" y1="113.386" x2="68.674" y2="45.347"/>
	<circle class="st8" cx="80.015" cy="22.677" r="3.322"/>
	<path class="st7" d="M91.397,45.378c-2.08-4.18-6.383-7.059-11.369-7.059c-4.974,0-9.268,2.865-11.354,7.028"/>
</g>
<g id="レイヤー_2">
	<g>
		<g>
			<path class="st9" d="M40.265,56.05c0.114,0.078,0.273,0.148,0.477,0.211c-0.109,0.125-0.234,0.362-0.375,0.711
				c-0.245,0.672-0.508,1.206-0.789,1.602l0.984-0.156c0.229-0.442,0.37-0.773,0.422-0.992l0.508,0.312
				c-0.156,0.104-0.328,0.318-0.516,0.641c-0.62,1.109-1.065,1.812-1.336,2.109l1.562-0.289c-0.016,0.12-0.023,0.234-0.023,0.344
				c-0.683,0.084-1.38,0.229-2.094,0.438l-0.102-0.523c0.297-0.125,0.526-0.31,0.688-0.555c0.308-0.458,0.55-0.846,0.727-1.164
				c-0.661,0.089-1.144,0.193-1.445,0.312c-0.011-0.15-0.031-0.289-0.062-0.414c0.261-0.094,0.492-0.344,0.695-0.75
				C39.825,57.47,40.051,56.857,40.265,56.05z M41.148,61.362c0.016,0.115,0.044,0.24,0.086,0.375
				c-0.739,0.12-1.489,0.305-2.25,0.555c-0.011-0.177-0.042-0.341-0.094-0.492C39.526,61.764,40.278,61.618,41.148,61.362z
				 M45.203,56.737c0.208,0.104,0.388,0.175,0.539,0.211c-0.224,0.234-0.513,0.662-0.867,1.281h0.273
				c0.198,0,0.396-0.021,0.594-0.062c-0.021,0.084-0.031,0.17-0.031,0.258c0,0.068,0.011,0.139,0.031,0.211
				c-0.198-0.041-0.396-0.062-0.594-0.062h-1.609c-0.062,0.229-0.13,0.448-0.203,0.656h2.156c0.198,0,0.396-0.021,0.594-0.062
				c-0.021,0.084-0.031,0.17-0.031,0.258c0,0.068,0.011,0.139,0.031,0.211c-0.198-0.041-0.396-0.062-0.594-0.062h-2.273
				c-0.094,0.25-0.192,0.479-0.297,0.688h2.031c0.229,0,0.458-0.01,0.688-0.031c-0.458,0.797-0.922,1.381-1.391,1.75
				c-0.021,0.021-0.036,0.037-0.047,0.047c0.464,0.281,1.102,0.508,1.914,0.68c-0.136,0.089-0.239,0.214-0.312,0.375
				c-0.724-0.183-1.349-0.466-1.875-0.852c-0.552,0.401-1.156,0.685-1.812,0.852c-0.104-0.156-0.219-0.271-0.344-0.344
				c0.646-0.109,1.25-0.349,1.812-0.719c0.016-0.01,0.028-0.023,0.039-0.039c-0.37-0.333-0.688-0.755-0.953-1.266
				c-0.083,0.156-0.169,0.3-0.258,0.43c-0.386,0.625-0.894,1.123-1.523,1.492c-0.052-0.141-0.146-0.266-0.281-0.375
				c0.599-0.25,1.125-0.721,1.578-1.414c0.229-0.344,0.44-0.768,0.633-1.273h-0.867c-0.198,0-0.394,0.021-0.586,0.062
				c0.021-0.072,0.031-0.143,0.031-0.211c0-0.088-0.011-0.174-0.031-0.258c0.192,0.042,0.388,0.062,0.586,0.062h0.992
				c0.078-0.213,0.148-0.432,0.211-0.656H42.46c-0.198,0-0.398,0.021-0.602,0.062c0.021-0.072,0.031-0.143,0.031-0.211
				c0-0.088-0.011-0.174-0.031-0.258c0.203,0.042,0.403,0.062,0.602,0.062h2.109C44.862,57.693,45.073,57.196,45.203,56.737z
				 M45.804,56.393c-1.094,0.146-2.438,0.25-4.031,0.312c-0.052-0.182-0.106-0.32-0.164-0.414c0.198,0.026,0.396,0.039,0.594,0.039
				c0.614,0,1.258-0.031,1.93-0.094c0.531-0.052,1.044-0.148,1.539-0.289c0.089,0.167,0.192,0.315,0.312,0.445H45.804z
				 M42.46,57.081l0.398,0.898c-0.146,0.021-0.278,0.055-0.398,0.102c-0.104-0.391-0.229-0.703-0.375-0.938
				C42.195,57.139,42.32,57.118,42.46,57.081z M43.007,60.604c0.239,0.537,0.531,0.936,0.875,1.195
				c0.422-0.322,0.778-0.721,1.07-1.195H43.007z M43.742,56.917l0.375,0.906c-0.151,0.021-0.286,0.053-0.406,0.094
				c-0.099-0.385-0.214-0.697-0.344-0.938C43.476,56.974,43.601,56.954,43.742,56.917z"/>
			<path class="st9" d="M48.265,58.917c0.104,0.094,0.239,0.178,0.406,0.25c-0.458,1.256-0.833,2.456-1.125,3.602
				c-0.188-0.146-0.352-0.25-0.492-0.312C47.45,61.696,47.854,60.516,48.265,58.917z M47.859,56.331
				c0.339,0.609,0.703,1.183,1.094,1.719c-0.141,0.031-0.276,0.102-0.406,0.211c-0.323-0.635-0.685-1.219-1.086-1.75
				C47.621,56.474,47.754,56.415,47.859,56.331z M49.328,57.604c0.208,0.047,0.417,0.07,0.625,0.07h1.445v-1.188
				c0-0.213-0.023-0.424-0.07-0.633h0.562c-0.078,0.109-0.117,0.245-0.117,0.406v1.414h1.461c0.208,0,0.417-0.023,0.625-0.07
				c-0.036,0.188-0.055,0.375-0.055,0.562v2.062c0,0.198,0.019,0.396,0.055,0.594c-0.125-0.016-0.208-0.023-0.25-0.023
				s-0.122,0.008-0.242,0.023c0.031-0.135,0.05-0.268,0.055-0.398h-1.648v2c0,0.239,0.021,0.479,0.062,0.719
				c-0.083-0.021-0.169-0.031-0.258-0.031c-0.078,0-0.161,0.011-0.25,0.031c0.047-0.239,0.07-0.479,0.07-0.719v-2h-1.617
				c0.005,0.172,0.023,0.336,0.055,0.492c-0.13-0.021-0.216-0.031-0.258-0.031c-0.036,0-0.12,0.011-0.25,0.031
				c0.047-0.197,0.07-0.393,0.07-0.586v-2.164C49.398,57.979,49.374,57.792,49.328,57.604z M49.773,60.081h1.625v-2.062h-1.625
				V60.081z M51.773,58.018v2.062h1.656v-2.062H51.773z"/>
		</g>
		<g>
			<path d="M40.265,56.05c0.114,0.078,0.273,0.148,0.477,0.211c-0.109,0.125-0.234,0.362-0.375,0.711
				c-0.245,0.672-0.508,1.206-0.789,1.602l0.984-0.156c0.229-0.442,0.37-0.773,0.422-0.992l0.508,0.312
				c-0.156,0.104-0.328,0.318-0.516,0.641c-0.62,1.109-1.065,1.812-1.336,2.109l1.562-0.289c-0.016,0.12-0.023,0.234-0.023,0.344
				c-0.683,0.084-1.38,0.229-2.094,0.438l-0.102-0.523c0.297-0.125,0.526-0.31,0.688-0.555c0.308-0.458,0.55-0.846,0.727-1.164
				c-0.661,0.089-1.144,0.193-1.445,0.312c-0.011-0.15-0.031-0.289-0.062-0.414c0.261-0.094,0.492-0.344,0.695-0.75
				C39.825,57.47,40.051,56.857,40.265,56.05z M41.148,61.362c0.016,0.115,0.044,0.24,0.086,0.375
				c-0.739,0.12-1.489,0.305-2.25,0.555c-0.011-0.177-0.042-0.341-0.094-0.492C39.526,61.764,40.278,61.618,41.148,61.362z
				 M45.203,56.737c0.208,0.104,0.388,0.175,0.539,0.211c-0.224,0.234-0.513,0.662-0.867,1.281h0.273
				c0.198,0,0.396-0.021,0.594-0.062c-0.021,0.084-0.031,0.17-0.031,0.258c0,0.068,0.011,0.139,0.031,0.211
				c-0.198-0.041-0.396-0.062-0.594-0.062h-1.609c-0.062,0.229-0.13,0.448-0.203,0.656h2.156c0.198,0,0.396-0.021,0.594-0.062
				c-0.021,0.084-0.031,0.17-0.031,0.258c0,0.068,0.011,0.139,0.031,0.211c-0.198-0.041-0.396-0.062-0.594-0.062h-2.273
				c-0.094,0.25-0.192,0.479-0.297,0.688h2.031c0.229,0,0.458-0.01,0.688-0.031c-0.458,0.797-0.922,1.381-1.391,1.75
				c-0.021,0.021-0.036,0.037-0.047,0.047c0.464,0.281,1.102,0.508,1.914,0.68c-0.136,0.089-0.239,0.214-0.312,0.375
				c-0.724-0.183-1.349-0.466-1.875-0.852c-0.552,0.401-1.156,0.685-1.812,0.852c-0.104-0.156-0.219-0.271-0.344-0.344
				c0.646-0.109,1.25-0.349,1.812-0.719c0.016-0.01,0.028-0.023,0.039-0.039c-0.37-0.333-0.688-0.755-0.953-1.266
				c-0.083,0.156-0.169,0.3-0.258,0.43c-0.386,0.625-0.894,1.123-1.523,1.492c-0.052-0.141-0.146-0.266-0.281-0.375
				c0.599-0.25,1.125-0.721,1.578-1.414c0.229-0.344,0.44-0.768,0.633-1.273h-0.867c-0.198,0-0.394,0.021-0.586,0.062
				c0.021-0.072,0.031-0.143,0.031-0.211c0-0.088-0.011-0.174-0.031-0.258c0.192,0.042,0.388,0.062,0.586,0.062h0.992
				c0.078-0.213,0.148-0.432,0.211-0.656H42.46c-0.198,0-0.398,0.021-0.602,0.062c0.021-0.072,0.031-0.143,0.031-0.211
				c0-0.088-0.011-0.174-0.031-0.258c0.203,0.042,0.403,0.062,0.602,0.062h2.109C44.862,57.693,45.073,57.196,45.203,56.737z
				 M45.804,56.393c-1.094,0.146-2.438,0.25-4.031,0.312c-0.052-0.182-0.106-0.32-0.164-0.414c0.198,0.026,0.396,0.039,0.594,0.039
				c0.614,0,1.258-0.031,1.93-0.094c0.531-0.052,1.044-0.148,1.539-0.289c0.089,0.167,0.192,0.315,0.312,0.445H45.804z
				 M42.46,57.081l0.398,0.898c-0.146,0.021-0.278,0.055-0.398,0.102c-0.104-0.391-0.229-0.703-0.375-0.938
				C42.195,57.139,42.32,57.118,42.46,57.081z M43.007,60.604c0.239,0.537,0.531,0.936,0.875,1.195
				c0.422-0.322,0.778-0.721,1.07-1.195H43.007z M43.742,56.917l0.375,0.906c-0.151,0.021-0.286,0.053-0.406,0.094
				c-0.099-0.385-0.214-0.697-0.344-0.938C43.476,56.974,43.601,56.954,43.742,56.917z"/>
			<path d="M48.265,58.917c0.104,0.094,0.239,0.178,0.406,0.25c-0.458,1.256-0.833,2.456-1.125,3.602
				c-0.188-0.146-0.352-0.25-0.492-0.312C47.45,61.696,47.854,60.516,48.265,58.917z M47.859,56.331
				c0.339,0.609,0.703,1.183,1.094,1.719c-0.141,0.031-0.276,0.102-0.406,0.211c-0.323-0.635-0.685-1.219-1.086-1.75
				C47.621,56.474,47.754,56.415,47.859,56.331z M49.328,57.604c0.208,0.047,0.417,0.07,0.625,0.07h1.445v-1.188
				c0-0.213-0.023-0.424-0.07-0.633h0.562c-0.078,0.109-0.117,0.245-0.117,0.406v1.414h1.461c0.208,0,0.417-0.023,0.625-0.07
				c-0.036,0.188-0.055,0.375-0.055,0.562v2.062c0,0.198,0.019,0.396,0.055,0.594c-0.125-0.016-0.208-0.023-0.25-0.023
				s-0.122,0.008-0.242,0.023c0.031-0.135,0.05-0.268,0.055-0.398h-1.648v2c0,0.239,0.021,0.479,0.062,0.719
				c-0.083-0.021-0.169-0.031-0.258-0.031c-0.078,0-0.161,0.011-0.25,0.031c0.047-0.239,0.07-0.479,0.07-0.719v-2h-1.617
				c0.005,0.172,0.023,0.336,0.055,0.492c-0.13-0.021-0.216-0.031-0.258-0.031c-0.036,0-0.12,0.011-0.25,0.031
				c0.047-0.197,0.07-0.393,0.07-0.586v-2.164C49.398,57.979,49.374,57.792,49.328,57.604z M49.773,60.081h1.625v-2.062h-1.625
				V60.081z M51.773,58.018v2.062h1.656v-2.062H51.773z"/>
		</g>
	</g>
	<g>
		<g>
			<path class="st10" d="M83.929,19.238v-5.757h3.71v0.464h-3.167v2.079h2.878v0.464h-2.878v2.75H83.929z"/>
			<path class="st10" d="M88.433,19.238v-5.757h2.079c1.351,0,1.887,0.583,1.887,1.447c0,0.799-0.456,1.159-0.919,1.239v0.016
				c0.792,0.12,1.184,0.671,1.184,1.431c0,1.199-0.784,1.623-1.879,1.623H88.433z M88.977,16.023h1.375
				c1.136,0,1.503-0.399,1.503-1.095c0-0.72-0.432-0.983-1.623-0.983h-1.255V16.023z M88.977,18.774h1.383
				c1.199,0,1.759-0.16,1.759-1.159c0-0.952-0.671-1.127-1.695-1.127h-1.447V18.774z"/>
			<path class="st10" d="M97.12,19.837v0.4h-3.998v-0.4H97.12z"/>
			<path class="st10" d="M101.247,16.519c0,1.495-0.352,2.83-1.903,2.83c-1.559,0-1.911-1.327-1.911-2.886
				c0-1.423,0.288-2.862,1.911-2.862C101.016,13.601,101.247,15.208,101.247,16.519z M99.329,14.033
				c-1.12,0-1.383,1.239-1.383,2.487c0,1.447,0.32,2.398,1.399,2.398c1.215,0,1.392-1.319,1.392-2.455
				C100.736,15.248,100.519,14.033,99.329,14.033z"/>
			<path class="st10" d="M105.419,13.504c0.208,0.042,0.417,0.062,0.625,0.062h3.406c0.208,0,0.417-0.021,0.625-0.062
				c-0.042,0.188-0.062,0.373-0.062,0.555v5.445c0,0.198,0.021,0.393,0.062,0.586c-0.13-0.021-0.216-0.031-0.258-0.031
				c-0.037,0-0.12,0.01-0.25,0.031c0.047-0.193,0.07-0.388,0.07-0.586v-0.281h-3.789v0.281c0,0.198,0.021,0.393,0.062,0.586
				c-0.12-0.021-0.201-0.031-0.242-0.031c-0.047,0-0.13,0.01-0.25,0.031c0.036-0.193,0.055-0.388,0.055-0.586v-5.445
				C105.474,13.877,105.455,13.692,105.419,13.504z M105.849,15.254h3.789v-1.344h-3.789V15.254z M105.849,17.059h3.789v-1.461
				h-3.789V17.059z M105.849,18.879h3.789v-1.477h-3.789V18.879z"/>
			<path class="st10" d="M112.192,14.848c0.088,0.021,0.174,0.031,0.258,0.031h1v-1.312c0-0.208-0.021-0.419-0.062-0.633h0.555
				c-0.083,0.104-0.125,0.24-0.125,0.406v1.539h0.914c0.078,0,0.161-0.01,0.25-0.031c-0.026,0.058-0.039,0.117-0.039,0.18
				c0,0.078,0.013,0.154,0.039,0.227c-0.089-0.021-0.172-0.031-0.25-0.031h-0.914v4.312c0,0.239,0.021,0.479,0.062,0.719
				c-0.078-0.021-0.159-0.031-0.242-0.031c-0.089,0-0.172,0.01-0.25,0.031c0.042-0.24,0.062-0.479,0.062-0.719v-3.344
				c-0.297,0.948-0.685,1.779-1.164,2.492c-0.058-0.172-0.138-0.307-0.242-0.406c0.312-0.406,0.599-0.94,0.859-1.602
				c0.188-0.448,0.344-0.932,0.469-1.453h-0.922c-0.083,0-0.169,0.011-0.258,0.031c0.021-0.073,0.031-0.148,0.031-0.227
				C112.224,14.965,112.213,14.906,112.192,14.848z M114.286,16.278c0.286,0.448,0.609,0.867,0.969,1.258
				c-0.115,0.062-0.229,0.156-0.344,0.281c-0.271-0.448-0.594-0.885-0.969-1.312C114.072,16.447,114.187,16.371,114.286,16.278z
				 M115.7,16.786c0.078,0.037,0.221,0.078,0.43,0.125c-0.083,0.12-0.164,0.287-0.242,0.5c-0.183,0.568-0.333,0.982-0.453,1.242
				c-0.089,0.219-0.159,0.409-0.211,0.57c-0.115-0.073-0.258-0.127-0.43-0.164c0.167-0.213,0.367-0.625,0.602-1.234
				C115.557,17.371,115.658,17.025,115.7,16.786z M114.981,15.371c0.172,0.047,0.346,0.07,0.523,0.07h3.094
				c0.177,0,0.354-0.023,0.531-0.07c-0.016,0.078-0.023,0.154-0.023,0.227c0,0.068,0.008,0.141,0.023,0.219
				c-0.177-0.047-0.354-0.07-0.531-0.07h-1.375v4.039c0,0.114-0.086,0.198-0.258,0.25c-0.162,0.062-0.49,0.094-0.984,0.094
				c-0.005-0.156-0.05-0.294-0.133-0.414h0.852c0.094,0,0.143-0.039,0.148-0.117v-3.852h-1.344c-0.177,0-0.352,0.023-0.523,0.07
				c0.021-0.078,0.031-0.151,0.031-0.219C115.013,15.525,115.002,15.45,114.981,15.371z M115.325,13.371
				c0.172,0.047,0.346,0.07,0.523,0.07h2.312c0.182,0,0.362-0.023,0.539-0.07c-0.021,0.078-0.031,0.154-0.031,0.227
				c0,0.068,0.01,0.141,0.031,0.219c-0.177-0.047-0.357-0.07-0.539-0.07h-2.312c-0.177,0-0.352,0.023-0.523,0.07
				c0.021-0.078,0.031-0.151,0.031-0.219C115.356,13.525,115.346,13.45,115.325,13.371z M118.161,16.715
				c0.057,0.136,0.161,0.336,0.312,0.602c0.224,0.406,0.427,0.773,0.609,1.102c0.12,0.234,0.221,0.448,0.305,0.641
				c-0.094,0.031-0.219,0.097-0.375,0.195c-0.062-0.224-0.248-0.641-0.555-1.25c-0.214-0.417-0.427-0.781-0.641-1.094
				C117.958,16.859,118.072,16.793,118.161,16.715z"/>
			<path class="st10" d="M123.536,12.996c0.151,0.037,0.331,0.058,0.539,0.062c-0.062,0.089-0.094,0.203-0.094,0.344v4.164h2.148
				c0.203,0,0.403-0.021,0.602-0.062c-0.021,0.078-0.031,0.159-0.031,0.242c0,0.078,0.01,0.151,0.031,0.219
				c-0.198-0.036-0.398-0.055-0.602-0.055h-2.148v1.492h2.781c0.198,0,0.396-0.021,0.594-0.062
				c-0.021,0.089-0.031,0.174-0.031,0.258c0,0.067,0.01,0.141,0.031,0.219c-0.198-0.047-0.396-0.07-0.594-0.07h-5.914
				c-0.198,0-0.396,0.023-0.594,0.07c0.021-0.078,0.031-0.151,0.031-0.219c0-0.083-0.011-0.169-0.031-0.258
				c0.198,0.042,0.396,0.062,0.594,0.062h2.75v-1.492h-2.062c-0.198,0-0.396,0.019-0.594,0.055c0.026-0.067,0.039-0.141,0.039-0.219
				c0-0.083-0.013-0.164-0.039-0.242c0.198,0.042,0.396,0.062,0.594,0.062h2.062v-4.164
				C123.599,13.273,123.578,13.137,123.536,12.996z M122.013,13.403c0.146,0.068,0.292,0.112,0.438,0.133
				c-0.062,0.089-0.175,0.341-0.336,0.758c-0.042,0.115-0.083,0.219-0.125,0.312c0.364,0.386,0.81,0.87,1.336,1.453
				c-0.13,0.083-0.258,0.188-0.383,0.312c-0.156-0.302-0.521-0.786-1.094-1.453c-0.125,0.281-0.261,0.544-0.406,0.789
				c-0.229,0.427-0.477,0.797-0.742,1.109c-0.104-0.104-0.242-0.188-0.414-0.25c0.354-0.333,0.692-0.794,1.016-1.383
				C121.567,14.715,121.804,14.121,122.013,13.403z M125.7,13.371c0.146,0.068,0.289,0.112,0.43,0.133
				c-0.052,0.089-0.154,0.336-0.305,0.742c-0.058,0.162-0.117,0.315-0.18,0.461c0.442,0.375,0.969,0.849,1.578,1.422
				c-0.13,0.083-0.266,0.198-0.406,0.344c-0.193-0.307-0.633-0.784-1.32-1.43c-0.089,0.198-0.183,0.388-0.281,0.57
				c-0.208,0.417-0.435,0.773-0.68,1.07c-0.099-0.099-0.234-0.18-0.406-0.242c0.323-0.323,0.63-0.773,0.922-1.352
				C125.296,14.637,125.513,14.064,125.7,13.371z"/>
			<path class="st10" d="M128.192,14.848c0.088,0.021,0.174,0.031,0.258,0.031h1v-1.312c0-0.208-0.021-0.419-0.062-0.633h0.555
				c-0.083,0.104-0.125,0.24-0.125,0.406v1.539h0.914c0.078,0,0.161-0.01,0.25-0.031c-0.026,0.058-0.039,0.117-0.039,0.18
				c0,0.078,0.013,0.154,0.039,0.227c-0.089-0.021-0.172-0.031-0.25-0.031h-0.914v4.312c0,0.239,0.021,0.479,0.062,0.719
				c-0.078-0.021-0.159-0.031-0.242-0.031c-0.089,0-0.172,0.01-0.25,0.031c0.042-0.24,0.062-0.479,0.062-0.719v-3.344
				c-0.297,0.948-0.685,1.779-1.164,2.492c-0.058-0.172-0.138-0.307-0.242-0.406c0.312-0.406,0.599-0.94,0.859-1.602
				c0.188-0.448,0.344-0.932,0.469-1.453h-0.922c-0.083,0-0.169,0.011-0.258,0.031c0.021-0.073,0.031-0.148,0.031-0.227
				C128.224,14.965,128.213,14.906,128.192,14.848z M130.286,16.278c0.286,0.448,0.609,0.867,0.969,1.258
				c-0.115,0.062-0.229,0.156-0.344,0.281c-0.271-0.448-0.594-0.885-0.969-1.312C130.072,16.447,130.187,16.371,130.286,16.278z
				 M131.7,16.786c0.078,0.037,0.221,0.078,0.43,0.125c-0.083,0.12-0.164,0.287-0.242,0.5c-0.183,0.568-0.333,0.982-0.453,1.242
				c-0.089,0.219-0.159,0.409-0.211,0.57c-0.115-0.073-0.258-0.127-0.43-0.164c0.167-0.213,0.367-0.625,0.602-1.234
				C131.557,17.371,131.658,17.025,131.7,16.786z M130.981,15.371c0.172,0.047,0.346,0.07,0.523,0.07h3.094
				c0.177,0,0.354-0.023,0.531-0.07c-0.016,0.078-0.023,0.154-0.023,0.227c0,0.068,0.008,0.141,0.023,0.219
				c-0.177-0.047-0.354-0.07-0.531-0.07h-1.375v4.039c0,0.114-0.086,0.198-0.258,0.25c-0.162,0.062-0.49,0.094-0.984,0.094
				c-0.005-0.156-0.05-0.294-0.133-0.414h0.852c0.094,0,0.143-0.039,0.148-0.117v-3.852h-1.344c-0.177,0-0.352,0.023-0.523,0.07
				c0.021-0.078,0.031-0.151,0.031-0.219C131.013,15.525,131.002,15.45,130.981,15.371z M131.325,13.371
				c0.172,0.047,0.346,0.07,0.523,0.07h2.312c0.182,0,0.362-0.023,0.539-0.07c-0.021,0.078-0.031,0.154-0.031,0.227
				c0,0.068,0.01,0.141,0.031,0.219c-0.177-0.047-0.357-0.07-0.539-0.07h-2.312c-0.177,0-0.352,0.023-0.523,0.07
				c0.021-0.078,0.031-0.151,0.031-0.219C131.356,13.525,131.346,13.45,131.325,13.371z M134.161,16.715
				c0.057,0.136,0.161,0.336,0.312,0.602c0.224,0.406,0.427,0.773,0.609,1.102c0.12,0.234,0.221,0.448,0.305,0.641
				c-0.094,0.031-0.219,0.097-0.375,0.195c-0.062-0.224-0.248-0.641-0.555-1.25c-0.214-0.417-0.427-0.781-0.641-1.094
				C133.958,16.859,134.072,16.793,134.161,16.715z"/>
		</g>
		<g>
			<path d="M83.929,19.238v-5.757h3.71v0.464h-3.167v2.079h2.878v0.464h-2.878v2.75H83.929z"/>
			<path d="M88.433,19.238v-5.757h2.079c1.351,0,1.887,0.583,1.887,1.447c0,0.799-0.456,1.159-0.919,1.239v0.016
				c0.792,0.12,1.184,0.671,1.184,1.431c0,1.199-0.784,1.623-1.879,1.623H88.433z M88.977,16.023h1.375
				c1.136,0,1.503-0.399,1.503-1.095c0-0.72-0.432-0.983-1.623-0.983h-1.255V16.023z M88.977,18.774h1.383
				c1.199,0,1.759-0.16,1.759-1.159c0-0.952-0.671-1.127-1.695-1.127h-1.447V18.774z"/>
			<path d="M97.12,19.837v0.4h-3.998v-0.4H97.12z"/>
			<path d="M101.247,16.519c0,1.495-0.352,2.83-1.903,2.83c-1.559,0-1.911-1.327-1.911-2.886c0-1.423,0.288-2.862,1.911-2.862
				C101.016,13.601,101.247,15.208,101.247,16.519z M99.329,14.033c-1.12,0-1.383,1.239-1.383,2.487c0,1.447,0.32,2.398,1.399,2.398
				c1.215,0,1.392-1.319,1.392-2.455C100.736,15.248,100.519,14.033,99.329,14.033z"/>
			<path d="M105.419,13.504c0.208,0.042,0.417,0.062,0.625,0.062h3.406c0.208,0,0.417-0.021,0.625-0.062
				c-0.042,0.188-0.062,0.373-0.062,0.555v5.445c0,0.198,0.021,0.393,0.062,0.586c-0.13-0.021-0.216-0.031-0.258-0.031
				c-0.037,0-0.12,0.01-0.25,0.031c0.047-0.193,0.07-0.388,0.07-0.586v-0.281h-3.789v0.281c0,0.198,0.021,0.393,0.062,0.586
				c-0.12-0.021-0.201-0.031-0.242-0.031c-0.047,0-0.13,0.01-0.25,0.031c0.036-0.193,0.055-0.388,0.055-0.586v-5.445
				C105.474,13.877,105.455,13.692,105.419,13.504z M105.849,15.254h3.789v-1.344h-3.789V15.254z M105.849,17.059h3.789v-1.461
				h-3.789V17.059z M105.849,18.879h3.789v-1.477h-3.789V18.879z"/>
			<path d="M112.192,14.848c0.088,0.021,0.174,0.031,0.258,0.031h1v-1.312c0-0.208-0.021-0.419-0.062-0.633h0.555
				c-0.083,0.104-0.125,0.24-0.125,0.406v1.539h0.914c0.078,0,0.161-0.01,0.25-0.031c-0.026,0.058-0.039,0.117-0.039,0.18
				c0,0.078,0.013,0.154,0.039,0.227c-0.089-0.021-0.172-0.031-0.25-0.031h-0.914v4.312c0,0.239,0.021,0.479,0.062,0.719
				c-0.078-0.021-0.159-0.031-0.242-0.031c-0.089,0-0.172,0.01-0.25,0.031c0.042-0.24,0.062-0.479,0.062-0.719v-3.344
				c-0.297,0.948-0.685,1.779-1.164,2.492c-0.058-0.172-0.138-0.307-0.242-0.406c0.312-0.406,0.599-0.94,0.859-1.602
				c0.188-0.448,0.344-0.932,0.469-1.453h-0.922c-0.083,0-0.169,0.011-0.258,0.031c0.021-0.073,0.031-0.148,0.031-0.227
				C112.224,14.965,112.213,14.906,112.192,14.848z M114.286,16.278c0.286,0.448,0.609,0.867,0.969,1.258
				c-0.115,0.062-0.229,0.156-0.344,0.281c-0.271-0.448-0.594-0.885-0.969-1.312C114.072,16.447,114.187,16.371,114.286,16.278z
				 M115.7,16.786c0.078,0.037,0.221,0.078,0.43,0.125c-0.083,0.12-0.164,0.287-0.242,0.5c-0.183,0.568-0.333,0.982-0.453,1.242
				c-0.089,0.219-0.159,0.409-0.211,0.57c-0.115-0.073-0.258-0.127-0.43-0.164c0.167-0.213,0.367-0.625,0.602-1.234
				C115.557,17.371,115.658,17.025,115.7,16.786z M114.981,15.371c0.172,0.047,0.346,0.07,0.523,0.07h3.094
				c0.177,0,0.354-0.023,0.531-0.07c-0.016,0.078-0.023,0.154-0.023,0.227c0,0.068,0.008,0.141,0.023,0.219
				c-0.177-0.047-0.354-0.07-0.531-0.07h-1.375v4.039c0,0.114-0.086,0.198-0.258,0.25c-0.162,0.062-0.49,0.094-0.984,0.094
				c-0.005-0.156-0.05-0.294-0.133-0.414h0.852c0.094,0,0.143-0.039,0.148-0.117v-3.852h-1.344c-0.177,0-0.352,0.023-0.523,0.07
				c0.021-0.078,0.031-0.151,0.031-0.219C115.013,15.525,115.002,15.45,114.981,15.371z M115.325,13.371
				c0.172,0.047,0.346,0.07,0.523,0.07h2.312c0.182,0,0.362-0.023,0.539-0.07c-0.021,0.078-0.031,0.154-0.031,0.227
				c0,0.068,0.01,0.141,0.031,0.219c-0.177-0.047-0.357-0.07-0.539-0.07h-2.312c-0.177,0-0.352,0.023-0.523,0.07
				c0.021-0.078,0.031-0.151,0.031-0.219C115.356,13.525,115.346,13.45,115.325,13.371z M118.161,16.715
				c0.057,0.136,0.161,0.336,0.312,0.602c0.224,0.406,0.427,0.773,0.609,1.102c0.12,0.234,0.221,0.448,0.305,0.641
				c-0.094,0.031-0.219,0.097-0.375,0.195c-0.062-0.224-0.248-0.641-0.555-1.25c-0.214-0.417-0.427-0.781-0.641-1.094
				C117.958,16.859,118.072,16.793,118.161,16.715z"/>
			<path d="M123.536,12.996c0.151,0.037,0.331,0.058,0.539,0.062c-0.062,0.089-0.094,0.203-0.094,0.344v4.164h2.148
				c0.203,0,0.403-0.021,0.602-0.062c-0.021,0.078-0.031,0.159-0.031,0.242c0,0.078,0.01,0.151,0.031,0.219
				c-0.198-0.036-0.398-0.055-0.602-0.055h-2.148v1.492h2.781c0.198,0,0.396-0.021,0.594-0.062
				c-0.021,0.089-0.031,0.174-0.031,0.258c0,0.067,0.01,0.141,0.031,0.219c-0.198-0.047-0.396-0.07-0.594-0.07h-5.914
				c-0.198,0-0.396,0.023-0.594,0.07c0.021-0.078,0.031-0.151,0.031-0.219c0-0.083-0.011-0.169-0.031-0.258
				c0.198,0.042,0.396,0.062,0.594,0.062h2.75v-1.492h-2.062c-0.198,0-0.396,0.019-0.594,0.055c0.026-0.067,0.039-0.141,0.039-0.219
				c0-0.083-0.013-0.164-0.039-0.242c0.198,0.042,0.396,0.062,0.594,0.062h2.062v-4.164
				C123.599,13.273,123.578,13.137,123.536,12.996z M122.013,13.403c0.146,0.068,0.292,0.112,0.438,0.133
				c-0.062,0.089-0.175,0.341-0.336,0.758c-0.042,0.115-0.083,0.219-0.125,0.312c0.364,0.386,0.81,0.87,1.336,1.453
				c-0.13,0.083-0.258,0.188-0.383,0.312c-0.156-0.302-0.521-0.786-1.094-1.453c-0.125,0.281-0.261,0.544-0.406,0.789
				c-0.229,0.427-0.477,0.797-0.742,1.109c-0.104-0.104-0.242-0.188-0.414-0.25c0.354-0.333,0.692-0.794,1.016-1.383
				C121.567,14.715,121.804,14.121,122.013,13.403z M125.7,13.371c0.146,0.068,0.289,0.112,0.43,0.133
				c-0.052,0.089-0.154,0.336-0.305,0.742c-0.058,0.162-0.117,0.315-0.18,0.461c0.442,0.375,0.969,0.849,1.578,1.422
				c-0.13,0.083-0.266,0.198-0.406,0.344c-0.193-0.307-0.633-0.784-1.32-1.43c-0.089,0.198-0.183,0.388-0.281,0.57
				c-0.208,0.417-0.435,0.773-0.68,1.07c-0.099-0.099-0.234-0.18-0.406-0.242c0.323-0.323,0.63-0.773,0.922-1.352
				C125.296,14.637,125.513,14.064,125.7,13.371z"/>
			<path d="M128.192,14.848c0.088,0.021,0.174,0.031,0.258,0.031h1v-1.312c0-0.208-0.021-0.419-0.062-0.633h0.555
				c-0.083,0.104-0.125,0.24-0.125,0.406v1.539h0.914c0.078,0,0.161-0.01,0.25-0.031c-0.026,0.058-0.039,0.117-0.039,0.18
				c0,0.078,0.013,0.154,0.039,0.227c-0.089-0.021-0.172-0.031-0.25-0.031h-0.914v4.312c0,0.239,0.021,0.479,0.062,0.719
				c-0.078-0.021-0.159-0.031-0.242-0.031c-0.089,0-0.172,0.01-0.25,0.031c0.042-0.24,0.062-0.479,0.062-0.719v-3.344
				c-0.297,0.948-0.685,1.779-1.164,2.492c-0.058-0.172-0.138-0.307-0.242-0.406c0.312-0.406,0.599-0.94,0.859-1.602
				c0.188-0.448,0.344-0.932,0.469-1.453h-0.922c-0.083,0-0.169,0.011-0.258,0.031c0.021-0.073,0.031-0.148,0.031-0.227
				C128.224,14.965,128.213,14.906,128.192,14.848z M130.286,16.278c0.286,0.448,0.609,0.867,0.969,1.258
				c-0.115,0.062-0.229,0.156-0.344,0.281c-0.271-0.448-0.594-0.885-0.969-1.312C130.072,16.447,130.187,16.371,130.286,16.278z
				 M131.7,16.786c0.078,0.037,0.221,0.078,0.43,0.125c-0.083,0.12-0.164,0.287-0.242,0.5c-0.183,0.568-0.333,0.982-0.453,1.242
				c-0.089,0.219-0.159,0.409-0.211,0.57c-0.115-0.073-0.258-0.127-0.43-0.164c0.167-0.213,0.367-0.625,0.602-1.234
				C131.557,17.371,131.658,17.025,131.7,16.786z M130.981,15.371c0.172,0.047,0.346,0.07,0.523,0.07h3.094
				c0.177,0,0.354-0.023,0.531-0.07c-0.016,0.078-0.023,0.154-0.023,0.227c0,0.068,0.008,0.141,0.023,0.219
				c-0.177-0.047-0.354-0.07-0.531-0.07h-1.375v4.039c0,0.114-0.086,0.198-0.258,0.25c-0.162,0.062-0.49,0.094-0.984,0.094
				c-0.005-0.156-0.05-0.294-0.133-0.414h0.852c0.094,0,0.143-0.039,0.148-0.117v-3.852h-1.344c-0.177,0-0.352,0.023-0.523,0.07
				c0.021-0.078,0.031-0.151,0.031-0.219C131.013,15.525,131.002,15.45,130.981,15.371z M131.325,13.371
				c0.172,0.047,0.346,0.07,0.523,0.07h2.312c0.182,0,0.362-0.023,0.539-0.07c-0.021,0.078-0.031,0.154-0.031,0.227
				c0,0.068,0.01,0.141,0.031,0.219c-0.177-0.047-0.357-0.07-0.539-0.07h-2.312c-0.177,0-0.352,0.023-0.523,0.07
				c0.021-0.078,0.031-0.151,0.031-0.219C131.356,13.525,131.346,13.45,131.325,13.371z M134.161,16.715
				c0.057,0.136,0.161,0.336,0.312,0.602c0.224,0.406,0.427,0.773,0.609,1.102c0.12,0.234,0.221,0.448,0.305,0.641
				c-0.094,0.031-0.219,0.097-0.375,0.195c-0.062-0.224-0.248-0.641-0.555-1.25c-0.214-0.417-0.427-0.781-0.641-1.094
				C133.958,16.859,134.072,16.793,134.161,16.715z"/>
		</g>
	</g>
	<g>
		<g>
			<path class="st10" d="M120.305,126.024v-5.757h3.71v0.464h-3.167v2.079h2.878v0.464h-2.878v2.75H120.305z"/>
			<path class="st10" d="M124.809,126.024v-5.757h2.079c1.351,0,1.887,0.584,1.887,1.447c0,0.8-0.456,1.159-0.919,1.239v0.017
				c0.792,0.119,1.184,0.671,1.184,1.431c0,1.199-0.784,1.623-1.879,1.623H124.809z M125.353,122.81h1.375
				c1.136,0,1.503-0.399,1.503-1.096c0-0.72-0.432-0.983-1.623-0.983h-1.255V122.81z M125.353,125.56h1.383
				c1.199,0,1.759-0.159,1.759-1.159c0-0.951-0.671-1.127-1.695-1.127h-1.447V125.56z"/>
			<path class="st10" d="M133.496,126.624v0.4h-3.998v-0.4H133.496z"/>
			<path class="st10" d="M135.912,121.835h-1.455v-0.336c0.855-0.056,1.391-0.144,1.559-1.111h0.408v5.637h-0.512V121.835z"/>
			<path class="st10" d="M141.795,120.291c0.208,0.042,0.417,0.062,0.625,0.062h3.406c0.208,0,0.417-0.021,0.625-0.062
				c-0.042,0.188-0.062,0.373-0.062,0.555v5.445c0,0.198,0.021,0.394,0.062,0.586c-0.13-0.021-0.216-0.031-0.258-0.031
				c-0.037,0-0.12,0.011-0.25,0.031c0.047-0.192,0.07-0.388,0.07-0.586v-0.281h-3.789v0.281c0,0.198,0.021,0.394,0.062,0.586
				c-0.12-0.021-0.201-0.031-0.242-0.031c-0.047,0-0.13,0.011-0.25,0.031c0.036-0.192,0.055-0.388,0.055-0.586v-5.445
				C141.85,120.664,141.831,120.478,141.795,120.291z M142.225,122.041h3.789v-1.344h-3.789V122.041z M142.225,123.846h3.789v-1.461
				h-3.789V123.846z M142.225,125.666h3.789v-1.477h-3.789V125.666z"/>
			<path class="st10" d="M148.568,121.635c0.088,0.021,0.174,0.031,0.258,0.031h1v-1.312c0-0.208-0.021-0.419-0.062-0.633h0.555
				c-0.083,0.104-0.125,0.24-0.125,0.406v1.539h0.914c0.078,0,0.161-0.01,0.25-0.031c-0.026,0.058-0.039,0.117-0.039,0.18
				c0,0.078,0.013,0.154,0.039,0.227c-0.089-0.021-0.172-0.031-0.25-0.031h-0.914v4.312c0,0.239,0.021,0.479,0.062,0.719
				c-0.078-0.021-0.159-0.031-0.242-0.031c-0.089,0-0.172,0.011-0.25,0.031c0.042-0.239,0.062-0.479,0.062-0.719v-3.344
				c-0.297,0.948-0.685,1.779-1.164,2.492c-0.058-0.172-0.138-0.307-0.242-0.406c0.312-0.406,0.599-0.939,0.859-1.602
				c0.188-0.447,0.344-0.932,0.469-1.453h-0.922c-0.083,0-0.169,0.011-0.258,0.031c0.021-0.072,0.031-0.148,0.031-0.227
				C148.6,121.752,148.589,121.692,148.568,121.635z M150.662,123.064c0.286,0.448,0.609,0.867,0.969,1.258
				c-0.115,0.062-0.229,0.156-0.344,0.281c-0.271-0.447-0.594-0.885-0.969-1.312C150.448,123.234,150.563,123.158,150.662,123.064z
				 M152.076,123.572c0.078,0.037,0.221,0.078,0.43,0.125c-0.083,0.12-0.164,0.287-0.242,0.5c-0.183,0.568-0.333,0.982-0.453,1.242
				c-0.089,0.219-0.159,0.409-0.211,0.57c-0.115-0.072-0.258-0.127-0.43-0.164c0.167-0.213,0.367-0.625,0.602-1.234
				C151.933,124.158,152.034,123.812,152.076,123.572z M151.357,122.158c0.172,0.047,0.346,0.07,0.523,0.07h3.094
				c0.177,0,0.354-0.023,0.531-0.07c-0.016,0.078-0.023,0.154-0.023,0.227c0,0.068,0.008,0.141,0.023,0.219
				c-0.177-0.047-0.354-0.07-0.531-0.07H153.6v4.039c0,0.114-0.086,0.198-0.258,0.25c-0.162,0.062-0.49,0.094-0.984,0.094
				c-0.005-0.156-0.05-0.294-0.133-0.414h0.852c0.094,0,0.143-0.039,0.148-0.117v-3.852h-1.344c-0.177,0-0.352,0.023-0.523,0.07
				c0.021-0.078,0.031-0.15,0.031-0.219C151.389,122.312,151.378,122.236,151.357,122.158z M151.701,120.158
				c0.172,0.047,0.346,0.07,0.523,0.07h2.312c0.182,0,0.362-0.023,0.539-0.07c-0.021,0.078-0.031,0.154-0.031,0.227
				c0,0.068,0.01,0.141,0.031,0.219c-0.177-0.047-0.357-0.07-0.539-0.07h-2.312c-0.177,0-0.352,0.023-0.523,0.07
				c0.021-0.078,0.031-0.15,0.031-0.219C151.732,120.312,151.722,120.236,151.701,120.158z M154.537,123.502
				c0.057,0.136,0.161,0.336,0.312,0.602c0.224,0.406,0.427,0.773,0.609,1.102c0.12,0.234,0.221,0.448,0.305,0.641
				c-0.094,0.031-0.219,0.097-0.375,0.195c-0.062-0.224-0.248-0.641-0.555-1.25c-0.214-0.416-0.427-0.781-0.641-1.094
				C154.334,123.645,154.448,123.58,154.537,123.502z"/>
			<path class="st10" d="M159.912,119.783c0.151,0.037,0.331,0.058,0.539,0.062c-0.062,0.089-0.094,0.203-0.094,0.344v4.164h2.148
				c0.203,0,0.403-0.021,0.602-0.062c-0.021,0.078-0.031,0.159-0.031,0.242c0,0.078,0.01,0.151,0.031,0.219
				c-0.198-0.036-0.398-0.055-0.602-0.055h-2.148v1.492h2.781c0.198,0,0.396-0.021,0.594-0.062
				c-0.021,0.089-0.031,0.175-0.031,0.258c0,0.067,0.01,0.141,0.031,0.219c-0.198-0.047-0.396-0.07-0.594-0.07h-5.914
				c-0.198,0-0.396,0.023-0.594,0.07c0.021-0.078,0.031-0.151,0.031-0.219c0-0.083-0.011-0.169-0.031-0.258
				c0.198,0.042,0.396,0.062,0.594,0.062h2.75v-1.492h-2.062c-0.198,0-0.396,0.019-0.594,0.055c0.026-0.067,0.039-0.141,0.039-0.219
				c0-0.083-0.013-0.164-0.039-0.242c0.198,0.042,0.396,0.062,0.594,0.062h2.062v-4.164
				C159.975,120.059,159.954,119.924,159.912,119.783z M158.389,120.189c0.146,0.068,0.292,0.112,0.438,0.133
				c-0.062,0.089-0.175,0.342-0.336,0.758c-0.042,0.115-0.083,0.219-0.125,0.312c0.364,0.386,0.81,0.87,1.336,1.453
				c-0.13,0.084-0.258,0.188-0.383,0.312c-0.156-0.302-0.521-0.786-1.094-1.453c-0.125,0.281-0.261,0.545-0.406,0.789
				c-0.229,0.428-0.477,0.797-0.742,1.109c-0.104-0.104-0.242-0.188-0.414-0.25c0.354-0.333,0.692-0.794,1.016-1.383
				C157.943,121.502,158.18,120.908,158.389,120.189z M162.076,120.158c0.146,0.068,0.289,0.112,0.43,0.133
				c-0.052,0.089-0.154,0.336-0.305,0.742c-0.058,0.162-0.117,0.315-0.18,0.461c0.442,0.375,0.969,0.85,1.578,1.422
				c-0.13,0.084-0.266,0.198-0.406,0.344c-0.193-0.307-0.633-0.783-1.32-1.43c-0.089,0.198-0.183,0.389-0.281,0.57
				c-0.208,0.417-0.435,0.773-0.68,1.07c-0.099-0.099-0.234-0.18-0.406-0.242c0.323-0.322,0.63-0.773,0.922-1.352
				C161.672,121.424,161.889,120.851,162.076,120.158z"/>
			<path class="st10" d="M164.568,121.635c0.088,0.021,0.174,0.031,0.258,0.031h1v-1.312c0-0.208-0.021-0.419-0.062-0.633h0.555
				c-0.083,0.104-0.125,0.24-0.125,0.406v1.539h0.914c0.078,0,0.161-0.01,0.25-0.031c-0.026,0.058-0.039,0.117-0.039,0.18
				c0,0.078,0.013,0.154,0.039,0.227c-0.089-0.021-0.172-0.031-0.25-0.031h-0.914v4.312c0,0.239,0.021,0.479,0.062,0.719
				c-0.078-0.021-0.159-0.031-0.242-0.031c-0.089,0-0.172,0.011-0.25,0.031c0.042-0.239,0.062-0.479,0.062-0.719v-3.344
				c-0.297,0.948-0.685,1.779-1.164,2.492c-0.058-0.172-0.138-0.307-0.242-0.406c0.312-0.406,0.599-0.939,0.859-1.602
				c0.188-0.447,0.344-0.932,0.469-1.453h-0.922c-0.083,0-0.169,0.011-0.258,0.031c0.021-0.072,0.031-0.148,0.031-0.227
				C164.6,121.752,164.589,121.692,164.568,121.635z M166.662,123.064c0.286,0.448,0.609,0.867,0.969,1.258
				c-0.115,0.062-0.229,0.156-0.344,0.281c-0.271-0.447-0.594-0.885-0.969-1.312C166.448,123.234,166.563,123.158,166.662,123.064z
				 M168.076,123.572c0.078,0.037,0.221,0.078,0.43,0.125c-0.083,0.12-0.164,0.287-0.242,0.5c-0.183,0.568-0.333,0.982-0.453,1.242
				c-0.089,0.219-0.159,0.409-0.211,0.57c-0.115-0.072-0.258-0.127-0.43-0.164c0.167-0.213,0.367-0.625,0.602-1.234
				C167.933,124.158,168.034,123.812,168.076,123.572z M167.357,122.158c0.172,0.047,0.346,0.07,0.523,0.07h3.094
				c0.177,0,0.354-0.023,0.531-0.07c-0.016,0.078-0.023,0.154-0.023,0.227c0,0.068,0.008,0.141,0.023,0.219
				c-0.177-0.047-0.354-0.07-0.531-0.07H169.6v4.039c0,0.114-0.086,0.198-0.258,0.25c-0.162,0.062-0.49,0.094-0.984,0.094
				c-0.005-0.156-0.05-0.294-0.133-0.414h0.852c0.094,0,0.143-0.039,0.148-0.117v-3.852h-1.344c-0.177,0-0.352,0.023-0.523,0.07
				c0.021-0.078,0.031-0.15,0.031-0.219C167.389,122.312,167.378,122.236,167.357,122.158z M167.701,120.158
				c0.172,0.047,0.346,0.07,0.523,0.07h2.312c0.182,0,0.362-0.023,0.539-0.07c-0.021,0.078-0.031,0.154-0.031,0.227
				c0,0.068,0.01,0.141,0.031,0.219c-0.177-0.047-0.357-0.07-0.539-0.07h-2.312c-0.177,0-0.352,0.023-0.523,0.07
				c0.021-0.078,0.031-0.15,0.031-0.219C167.732,120.312,167.722,120.236,167.701,120.158z M170.537,123.502
				c0.057,0.136,0.161,0.336,0.312,0.602c0.224,0.406,0.427,0.773,0.609,1.102c0.12,0.234,0.221,0.448,0.305,0.641
				c-0.094,0.031-0.219,0.097-0.375,0.195c-0.062-0.224-0.248-0.641-0.555-1.25c-0.214-0.416-0.427-0.781-0.641-1.094
				C170.334,123.645,170.448,123.58,170.537,123.502z"/>
		</g>
		<g>
			<path d="M120.305,126.024v-5.757h3.71v0.464h-3.167v2.079h2.878v0.464h-2.878v2.75H120.305z"/>
			<path d="M124.809,126.024v-5.757h2.079c1.351,0,1.887,0.584,1.887,1.447c0,0.8-0.456,1.159-0.919,1.239v0.017
				c0.792,0.119,1.184,0.671,1.184,1.431c0,1.199-0.784,1.623-1.879,1.623H124.809z M125.353,122.81h1.375
				c1.136,0,1.503-0.399,1.503-1.096c0-0.72-0.432-0.983-1.623-0.983h-1.255V122.81z M125.353,125.56h1.383
				c1.199,0,1.759-0.159,1.759-1.159c0-0.951-0.671-1.127-1.695-1.127h-1.447V125.56z"/>
			<path d="M133.496,126.624v0.4h-3.998v-0.4H133.496z"/>
			<path d="M135.912,121.835h-1.455v-0.336c0.855-0.056,1.391-0.144,1.559-1.111h0.408v5.637h-0.512V121.835z"/>
			<path d="M141.795,120.291c0.208,0.042,0.417,0.062,0.625,0.062h3.406c0.208,0,0.417-0.021,0.625-0.062
				c-0.042,0.188-0.062,0.373-0.062,0.555v5.445c0,0.198,0.021,0.394,0.062,0.586c-0.13-0.021-0.216-0.031-0.258-0.031
				c-0.037,0-0.12,0.011-0.25,0.031c0.047-0.192,0.07-0.388,0.07-0.586v-0.281h-3.789v0.281c0,0.198,0.021,0.394,0.062,0.586
				c-0.12-0.021-0.201-0.031-0.242-0.031c-0.047,0-0.13,0.011-0.25,0.031c0.036-0.192,0.055-0.388,0.055-0.586v-5.445
				C141.85,120.664,141.831,120.478,141.795,120.291z M142.225,122.041h3.789v-1.344h-3.789V122.041z M142.225,123.846h3.789v-1.461
				h-3.789V123.846z M142.225,125.666h3.789v-1.477h-3.789V125.666z"/>
			<path d="M148.568,121.635c0.088,0.021,0.174,0.031,0.258,0.031h1v-1.312c0-0.208-0.021-0.419-0.062-0.633h0.555
				c-0.083,0.104-0.125,0.24-0.125,0.406v1.539h0.914c0.078,0,0.161-0.01,0.25-0.031c-0.026,0.058-0.039,0.117-0.039,0.18
				c0,0.078,0.013,0.154,0.039,0.227c-0.089-0.021-0.172-0.031-0.25-0.031h-0.914v4.312c0,0.239,0.021,0.479,0.062,0.719
				c-0.078-0.021-0.159-0.031-0.242-0.031c-0.089,0-0.172,0.011-0.25,0.031c0.042-0.239,0.062-0.479,0.062-0.719v-3.344
				c-0.297,0.948-0.685,1.779-1.164,2.492c-0.058-0.172-0.138-0.307-0.242-0.406c0.312-0.406,0.599-0.939,0.859-1.602
				c0.188-0.447,0.344-0.932,0.469-1.453h-0.922c-0.083,0-0.169,0.011-0.258,0.031c0.021-0.072,0.031-0.148,0.031-0.227
				C148.6,121.752,148.589,121.692,148.568,121.635z M150.662,123.064c0.286,0.448,0.609,0.867,0.969,1.258
				c-0.115,0.062-0.229,0.156-0.344,0.281c-0.271-0.447-0.594-0.885-0.969-1.312C150.448,123.234,150.563,123.158,150.662,123.064z
				 M152.076,123.572c0.078,0.037,0.221,0.078,0.43,0.125c-0.083,0.12-0.164,0.287-0.242,0.5c-0.183,0.568-0.333,0.982-0.453,1.242
				c-0.089,0.219-0.159,0.409-0.211,0.57c-0.115-0.072-0.258-0.127-0.43-0.164c0.167-0.213,0.367-0.625,0.602-1.234
				C151.933,124.158,152.034,123.812,152.076,123.572z M151.357,122.158c0.172,0.047,0.346,0.07,0.523,0.07h3.094
				c0.177,0,0.354-0.023,0.531-0.07c-0.016,0.078-0.023,0.154-0.023,0.227c0,0.068,0.008,0.141,0.023,0.219
				c-0.177-0.047-0.354-0.07-0.531-0.07H153.6v4.039c0,0.114-0.086,0.198-0.258,0.25c-0.162,0.062-0.49,0.094-0.984,0.094
				c-0.005-0.156-0.05-0.294-0.133-0.414h0.852c0.094,0,0.143-0.039,0.148-0.117v-3.852h-1.344c-0.177,0-0.352,0.023-0.523,0.07
				c0.021-0.078,0.031-0.15,0.031-0.219C151.389,122.312,151.378,122.236,151.357,122.158z M151.701,120.158
				c0.172,0.047,0.346,0.07,0.523,0.07h2.312c0.182,0,0.362-0.023,0.539-0.07c-0.021,0.078-0.031,0.154-0.031,0.227
				c0,0.068,0.01,0.141,0.031,0.219c-0.177-0.047-0.357-0.07-0.539-0.07h-2.312c-0.177,0-0.352,0.023-0.523,0.07
				c0.021-0.078,0.031-0.15,0.031-0.219C151.732,120.312,151.722,120.236,151.701,120.158z M154.537,123.502
				c0.057,0.136,0.161,0.336,0.312,0.602c0.224,0.406,0.427,0.773,0.609,1.102c0.12,0.234,0.221,0.448,0.305,0.641
				c-0.094,0.031-0.219,0.097-0.375,0.195c-0.062-0.224-0.248-0.641-0.555-1.25c-0.214-0.416-0.427-0.781-0.641-1.094
				C154.334,123.645,154.448,123.58,154.537,123.502z"/>
			<path d="M159.912,119.783c0.151,0.037,0.331,0.058,0.539,0.062c-0.062,0.089-0.094,0.203-0.094,0.344v4.164h2.148
				c0.203,0,0.403-0.021,0.602-0.062c-0.021,0.078-0.031,0.159-0.031,0.242c0,0.078,0.01,0.151,0.031,0.219
				c-0.198-0.036-0.398-0.055-0.602-0.055h-2.148v1.492h2.781c0.198,0,0.396-0.021,0.594-0.062
				c-0.021,0.089-0.031,0.175-0.031,0.258c0,0.067,0.01,0.141,0.031,0.219c-0.198-0.047-0.396-0.07-0.594-0.07h-5.914
				c-0.198,0-0.396,0.023-0.594,0.07c0.021-0.078,0.031-0.151,0.031-0.219c0-0.083-0.011-0.169-0.031-0.258
				c0.198,0.042,0.396,0.062,0.594,0.062h2.75v-1.492h-2.062c-0.198,0-0.396,0.019-0.594,0.055c0.026-0.067,0.039-0.141,0.039-0.219
				c0-0.083-0.013-0.164-0.039-0.242c0.198,0.042,0.396,0.062,0.594,0.062h2.062v-4.164
				C159.975,120.059,159.954,119.924,159.912,119.783z M158.389,120.189c0.146,0.068,0.292,0.112,0.438,0.133
				c-0.062,0.089-0.175,0.342-0.336,0.758c-0.042,0.115-0.083,0.219-0.125,0.312c0.364,0.386,0.81,0.87,1.336,1.453
				c-0.13,0.084-0.258,0.188-0.383,0.312c-0.156-0.302-0.521-0.786-1.094-1.453c-0.125,0.281-0.261,0.545-0.406,0.789
				c-0.229,0.428-0.477,0.797-0.742,1.109c-0.104-0.104-0.242-0.188-0.414-0.25c0.354-0.333,0.692-0.794,1.016-1.383
				C157.943,121.502,158.18,120.908,158.389,120.189z M162.076,120.158c0.146,0.068,0.289,0.112,0.43,0.133
				c-0.052,0.089-0.154,0.336-0.305,0.742c-0.058,0.162-0.117,0.315-0.18,0.461c0.442,0.375,0.969,0.85,1.578,1.422
				c-0.13,0.084-0.266,0.198-0.406,0.344c-0.193-0.307-0.633-0.783-1.32-1.43c-0.089,0.198-0.183,0.389-0.281,0.57
				c-0.208,0.417-0.435,0.773-0.68,1.07c-0.099-0.099-0.234-0.18-0.406-0.242c0.323-0.322,0.63-0.773,0.922-1.352
				C161.672,121.424,161.889,120.851,162.076,120.158z"/>
			<path d="M164.568,121.635c0.088,0.021,0.174,0.031,0.258,0.031h1v-1.312c0-0.208-0.021-0.419-0.062-0.633h0.555
				c-0.083,0.104-0.125,0.24-0.125,0.406v1.539h0.914c0.078,0,0.161-0.01,0.25-0.031c-0.026,0.058-0.039,0.117-0.039,0.18
				c0,0.078,0.013,0.154,0.039,0.227c-0.089-0.021-0.172-0.031-0.25-0.031h-0.914v4.312c0,0.239,0.021,0.479,0.062,0.719
				c-0.078-0.021-0.159-0.031-0.242-0.031c-0.089,0-0.172,0.011-0.25,0.031c0.042-0.239,0.062-0.479,0.062-0.719v-3.344
				c-0.297,0.948-0.685,1.779-1.164,2.492c-0.058-0.172-0.138-0.307-0.242-0.406c0.312-0.406,0.599-0.939,0.859-1.602
				c0.188-0.447,0.344-0.932,0.469-1.453h-0.922c-0.083,0-0.169,0.011-0.258,0.031c0.021-0.072,0.031-0.148,0.031-0.227
				C164.6,121.752,164.589,121.692,164.568,121.635z M166.662,123.064c0.286,0.448,0.609,0.867,0.969,1.258
				c-0.115,0.062-0.229,0.156-0.344,0.281c-0.271-0.447-0.594-0.885-0.969-1.312C166.448,123.234,166.563,123.158,166.662,123.064z
				 M168.076,123.572c0.078,0.037,0.221,0.078,0.43,0.125c-0.083,0.12-0.164,0.287-0.242,0.5c-0.183,0.568-0.333,0.982-0.453,1.242
				c-0.089,0.219-0.159,0.409-0.211,0.57c-0.115-0.072-0.258-0.127-0.43-0.164c0.167-0.213,0.367-0.625,0.602-1.234
				C167.933,124.158,168.034,123.812,168.076,123.572z M167.357,122.158c0.172,0.047,0.346,0.07,0.523,0.07h3.094
				c0.177,0,0.354-0.023,0.531-0.07c-0.016,0.078-0.023,0.154-0.023,0.227c0,0.068,0.008,0.141,0.023,0.219
				c-0.177-0.047-0.354-0.07-0.531-0.07H169.6v4.039c0,0.114-0.086,0.198-0.258,0.25c-0.162,0.062-0.49,0.094-0.984,0.094
				c-0.005-0.156-0.05-0.294-0.133-0.414h0.852c0.094,0,0.143-0.039,0.148-0.117v-3.852h-1.344c-0.177,0-0.352,0.023-0.523,0.07
				c0.021-0.078,0.031-0.15,0.031-0.219C167.389,122.312,167.378,122.236,167.357,122.158z M167.701,120.158
				c0.172,0.047,0.346,0.07,0.523,0.07h2.312c0.182,0,0.362-0.023,0.539-0.07c-0.021,0.078-0.031,0.154-0.031,0.227
				c0,0.068,0.01,0.141,0.031,0.219c-0.177-0.047-0.357-0.07-0.539-0.07h-2.312c-0.177,0-0.352,0.023-0.523,0.07
				c0.021-0.078,0.031-0.15,0.031-0.219C167.732,120.312,167.722,120.236,167.701,120.158z M170.537,123.502
				c0.057,0.136,0.161,0.336,0.312,0.602c0.224,0.406,0.427,0.773,0.609,1.102c0.12,0.234,0.221,0.448,0.305,0.641
				c-0.094,0.031-0.219,0.097-0.375,0.195c-0.062-0.224-0.248-0.641-0.555-1.25c-0.214-0.416-0.427-0.781-0.641-1.094
				C170.334,123.645,170.448,123.58,170.537,123.502z"/>
		</g>
	</g>
	<g>
		<g>
			<path class="st11" d="M122.012,49.131c0.198,0.036,0.396,0.055,0.594,0.055h0.297c0.104-0.406,0.195-0.844,0.273-1.312
				c0.161,0.058,0.349,0.099,0.562,0.125c-0.089,0.109-0.18,0.308-0.273,0.594c-0.062,0.214-0.123,0.411-0.18,0.594h0.797
				c0.192,0,0.388-0.019,0.586-0.055c-0.021,0.078-0.031,0.161-0.031,0.25c0,0.073,0.01,0.144,0.031,0.211
				c-0.198-0.042-0.394-0.062-0.586-0.062h-0.898c-0.261,0.833-0.513,1.472-0.758,1.914h1v-0.688c0-0.208-0.023-0.417-0.07-0.625
				h0.562c-0.078,0.104-0.117,0.237-0.117,0.398v0.914h0.344c0.156,0,0.331-0.011,0.523-0.031c-0.021,0.067-0.031,0.138-0.031,0.211
				c0,0.058,0.01,0.122,0.031,0.195c-0.193-0.021-0.367-0.031-0.523-0.031h-0.344v1.203c0.281-0.062,0.549-0.13,0.805-0.203v0.398
				c-0.297,0.058-0.565,0.112-0.805,0.164v1.031c0,0.239,0.021,0.479,0.062,0.719c-0.083-0.021-0.169-0.031-0.258-0.031
				c-0.078,0-0.162,0.01-0.25,0.031c0.047-0.24,0.07-0.479,0.07-0.719v-0.953c-0.688,0.141-1.159,0.261-1.414,0.359
				c-0.005-0.13-0.047-0.276-0.125-0.438c0.542-0.078,1.055-0.167,1.539-0.266v-1.297h-0.906c-0.151,0-0.32,0.011-0.508,0.031
				c-0.031-0.114-0.062-0.219-0.094-0.312c0.151-0.12,0.271-0.269,0.359-0.445c0.109-0.214,0.227-0.519,0.352-0.914
				c0.067-0.198,0.13-0.403,0.188-0.617h-0.211c-0.198,0-0.396,0.021-0.594,0.062c0.021-0.067,0.031-0.138,0.031-0.211
				C122.043,49.292,122.032,49.209,122.012,49.131z M124.887,48.998c0.203,0.047,0.403,0.07,0.602,0.07h1.211v-0.625
				c0-0.208-0.021-0.417-0.062-0.625h0.57c-0.083,0.104-0.125,0.237-0.125,0.398v0.852h1.312c0.192,0,0.388-0.023,0.586-0.07
				c-0.021,0.089-0.031,0.172-0.031,0.25s0.01,0.153,0.031,0.227c-0.198-0.042-0.394-0.062-0.586-0.062h-1.312v0.836h1.062
				c0.188,0,0.372-0.021,0.555-0.062c-0.042,0.161-0.062,0.317-0.062,0.469v3.969c0,0.203-0.044,0.336-0.133,0.398
				c-0.099,0.062-0.398,0.117-0.898,0.164c-0.026-0.167-0.086-0.311-0.18-0.43h0.344c0.234,0,0.38-0.016,0.438-0.047
				c0.036-0.021,0.055-0.081,0.055-0.18v-1.18h-1.18v1c0,0.239,0.021,0.479,0.062,0.719c-0.089-0.021-0.175-0.031-0.258-0.031
				c-0.078,0-0.162,0.01-0.25,0.031c0.042-0.24,0.062-0.479,0.062-0.719v-1h-1.148v1.406c0,0.13,0.018,0.266,0.055,0.406
				c-0.078-0.021-0.162-0.031-0.25-0.031c-0.083,0-0.164,0.01-0.242,0.031c0.042-0.141,0.062-0.276,0.062-0.406v-4.102
				c0-0.151-0.021-0.308-0.062-0.469c0.172,0.042,0.346,0.062,0.523,0.062h1.062v-0.836h-1.211c-0.198,0-0.398,0.021-0.602,0.062
				c0.021-0.073,0.031-0.148,0.031-0.227S124.907,49.087,124.887,48.998z M125.551,51.693h1.148v-1.102h-1.148V51.693z
				 M125.551,53.037h1.148v-1.039h-1.148V53.037z M127.082,50.592v1.102h1.18v-1.102H127.082z M127.082,51.998v1.039h1.18v-1.039
				H127.082z M128.082,47.904c0.156,0.349,0.362,0.653,0.617,0.914c-0.13,0.011-0.276,0.06-0.438,0.148
				c-0.183-0.375-0.38-0.675-0.594-0.898C127.809,48.042,127.946,47.987,128.082,47.904z"/>
			<path class="st11" d="M133.476,53.515c-1.535,0.432-2.846,0.647-3.558,0.751l-0.064-0.407c0.288-0.048,0.384-0.057,0.496-0.08
				v-5.613h2.702v5.062c0.2-0.056,0.248-0.072,0.424-0.12V53.515z M132.629,48.556h-1.855v1.279h1.855V48.556z M132.629,50.204
				h-1.855v1.327h1.855V50.204z M130.774,53.706c0.904-0.16,1.063-0.191,1.855-0.376v-1.423h-1.855V53.706z M132.429,54.794
				c1.031-0.712,2.287-1.775,2.351-4.782h-1.399v-0.407h1.399v-1.759h0.44v1.759h1.815c0,0.712-0.016,3.23-0.28,4.638
				c-0.136,0.703-0.376,0.927-0.888,0.927h-0.936l-0.096-0.472l0.823,0.04c0.384,0.017,0.504-0.008,0.624-0.392
				c0.248-0.783,0.344-3.334,0.344-4.334h-1.407c-0.12,3.047-1.239,4.278-2.431,5.134L132.429,54.794z"/>
			<path class="st11" d="M138.519,48.162c0.188,0.036,0.375,0.055,0.562,0.055h4.836c0.192,0,0.383-0.019,0.57-0.055
				c-0.042,0.177-0.062,0.354-0.062,0.531v5.867c0,0.182,0.021,0.361,0.062,0.539c-0.115-0.021-0.19-0.031-0.227-0.031
				c-0.037,0-0.12,0.01-0.25,0.031c0.042-0.162,0.065-0.32,0.07-0.477h-5.164c0.005,0.161,0.026,0.32,0.062,0.477
				c-0.12-0.021-0.201-0.031-0.242-0.031c-0.042,0-0.115,0.01-0.219,0.031c0.036-0.178,0.055-0.357,0.055-0.539v-5.867
				C138.574,48.516,138.556,48.339,138.519,48.162z M138.918,54.31h5.164v-5.781h-5.164V54.31z M141.394,51.787
				c0.135,0.031,0.271,0.05,0.406,0.055c-0.078,0.13-0.141,0.294-0.188,0.492c-0.062,0.302-0.164,0.555-0.305,0.758
				c-0.162,0.239-0.375,0.425-0.641,0.555c-0.302,0.151-0.685,0.281-1.148,0.391c-0.058-0.114-0.154-0.219-0.289-0.312
				c0.453-0.062,0.812-0.144,1.078-0.242c0.312-0.12,0.549-0.297,0.711-0.531C141.217,52.675,141.342,52.287,141.394,51.787z
				 M139.832,51.037c0.188,0.042,0.375,0.062,0.562,0.062h2.211c0.188,0,0.377-0.021,0.57-0.062
				c-0.042,0.151-0.062,0.308-0.062,0.469v0.875c0,0.172,0.021,0.347,0.062,0.523c-0.115-0.021-0.19-0.031-0.227-0.031
				c-0.042,0-0.125,0.011-0.25,0.031c0.047-0.177,0.07-0.352,0.07-0.523v-1h-2.539v1.062c0,0.177,0.021,0.352,0.062,0.523
				c-0.12-0.021-0.203-0.031-0.25-0.031c-0.037,0-0.107,0.011-0.211,0.031c0.036-0.172,0.055-0.347,0.055-0.523v-0.938
				C139.887,51.345,139.868,51.188,139.832,51.037z M140.082,49.131c0.192,0.021,0.388,0.031,0.586,0.031h1.688
				c0.198,0,0.396-0.011,0.594-0.031c-0.021,0.099-0.031,0.203-0.031,0.312v0.719c0,0.125,0.01,0.247,0.031,0.367
				c-0.198-0.016-0.396-0.023-0.594-0.023h-1.688c-0.198,0-0.394,0.008-0.586,0.023c0.021-0.12,0.031-0.242,0.031-0.367v-0.719
				C140.092,49.334,140.082,49.229,140.082,49.131z M142.574,50.217v-0.773h-2.117v0.773H142.574z M141.887,52.756
				c0.635,0.406,1.18,0.729,1.633,0.969c-0.109,0.078-0.195,0.169-0.258,0.273c-0.214-0.177-0.477-0.364-0.789-0.562
				c-0.287-0.183-0.565-0.339-0.836-0.469C141.756,52.893,141.84,52.823,141.887,52.756z"/>
			<path class="st11" d="M148.125,48.077v2.318h-1.527c-0.016,0.128-0.168,1.184-0.2,1.384h1.775
				c-0.008,1.224-0.232,2.599-0.384,2.927c-0.144,0.312-0.432,0.463-0.775,0.463h-0.808l-0.104-0.463l0.863,0.016
				c0.288,0.008,0.376-0.112,0.448-0.256c0.184-0.344,0.304-1.775,0.312-2.295h-1.831c0.12-0.376,0.296-1.991,0.312-2.167h1.503
				v-1.543h-1.823v-0.384H148.125z M152.971,55.145c-1.016-2.191-1.071-5.325-1.04-6.652c-0.567,0.12-0.847,0.16-1.135,0.208v5.269
				c0.24-0.04,0.568-0.096,0.792-0.144c-0.032-0.072-0.44-1.111-0.44-1.119l0.344-0.145c0.36,0.792,0.631,1.472,0.855,2.287
				l-0.416,0.128c-0.064-0.24-0.12-0.464-0.216-0.8c-0.759,0.145-1.08,0.208-1.104,0.208c-1.055,0.176-1.167,0.192-1.303,0.224
				l-0.128-0.415c0.064-0.009,1.056-0.145,1.199-0.168v-5.27c-0.208,0.024-0.463,0.064-1.071,0.104v2.495
				c0,2.278-0.56,3.286-0.839,3.79l-0.352-0.344c0.536-0.903,0.776-1.815,0.776-3.446v-2.847c0.896-0.056,3.126-0.312,3.87-0.672
				l0.208,0.368c-0.144,0.056-0.248,0.096-0.616,0.192c-0.024,1.055-0.016,4.341,0.943,6.364L152.971,55.145z"/>
			<path class="st11" d="M157.796,47.837v2.639h3.182v0.416h-3.182v1.663h3.406v0.408h-3.406v2.198h-0.472v-2.198h-3.43v-0.408h3.43
				v-1.663h-3.214v-0.416h3.214v-2.639H157.796z M155.742,50.012c-0.048-0.136-0.352-0.935-0.872-1.623l0.416-0.199
				c0.256,0.336,0.744,1.183,0.896,1.646L155.742,50.012z M158.86,49.805c0.184-0.256,0.552-0.76,0.864-1.663l0.472,0.168
				c-0.328,0.791-0.584,1.223-0.92,1.687L158.86,49.805z"/>
			<path class="st11" d="M161.79,52.058c0.504-0.367,1.312-1.103,1.959-2.606l0.344,0.192c-0.136,0.328-0.328,0.775-0.847,1.511
				v4.014h-0.44v-3.454c-0.408,0.472-0.632,0.64-0.839,0.792L161.79,52.058z M163.773,48.005c-0.336,0.64-0.872,1.512-1.767,2.175
				l-0.184-0.439c0.943-0.688,1.423-1.623,1.583-1.919L163.773,48.005z M163.718,51.38c0.359-0.072,1.263-0.248,2.486-0.904
				c-0.496-0.375-1.015-0.871-1.375-1.526l0.368-0.217c0.2,0.345,0.583,0.944,1.399,1.496c0.543-0.368,1.159-0.92,1.527-1.703
				h-3.974v-0.4h4.461v0.36c-0.168,0.384-0.52,1.191-1.623,1.999c0.912,0.527,1.743,0.768,2.303,0.903l-0.208,0.424
				c-0.887-0.248-1.727-0.592-2.486-1.071c-0.384,0.231-1.303,0.735-2.695,1.079L163.718,51.38z M168.891,52.787h-2.087v1.614h2.415
				v0.4h-5.317v-0.4h2.447v-1.614h-2.087v-0.4h2.087v-0.888h0.456v0.888h2.087V52.787z"/>
			<path class="st11" d="M123.766,58.037c-0.76,1.104-1.224,2.398-1.224,3.741c0,1.328,0.488,2.599,1.224,3.694h-0.408
				c-0.879-1.215-1.367-2.215-1.367-3.733c0-1.464,0.503-2.551,1.367-3.702H123.766z"/>
			<path class="st11" d="M124.343,58.188h4.189v0.464h-1.823v5.293h-0.543v-5.293h-1.823V58.188z"/>
			<path class="st11" d="M129.743,63.945h-0.48v-4.142h0.48v0.775h0.016c0.264-0.663,0.656-0.887,1.352-0.887v0.52
				c-1.08-0.024-1.367,0.775-1.367,1.703V63.945z"/>
			<path class="st11" d="M133.806,61.531c0.176-0.017,0.472-0.064,0.632-0.137c0.16-0.071,0.176-0.287,0.176-0.432
				c0-0.487-0.288-0.839-1.031-0.839c-0.664,0-1.12,0.216-1.208,0.936h-0.488c0.072-0.976,0.8-1.367,1.703-1.367
				c0.84,0,1.503,0.327,1.503,1.287v2.255c0,0.375,0.096,0.463,0.503,0.319v0.376c-0.072,0.023-0.24,0.08-0.375,0.08
				c-0.08,0-0.144-0.008-0.216-0.024c-0.319-0.048-0.375-0.327-0.384-0.615c-0.399,0.447-0.943,0.687-1.543,0.687
				c-0.728,0-1.383-0.392-1.383-1.191c0-0.695,0.48-1.119,1.447-1.247L133.806,61.531z M134.613,61.77
				c-0.408,0.168-0.823,0.2-1.239,0.232c-0.728,0.056-1.167,0.319-1.167,0.879c0,0.504,0.44,0.744,0.896,0.744
				c0.76,0,1.511-0.368,1.511-1.208V61.77z"/>
			<path class="st11" d="M136.831,63.945h-0.48v-4.142h0.48v0.576c0.384-0.408,0.759-0.688,1.335-0.688
				c0.504,0,0.968,0.159,1.263,0.591c0.2,0.296,0.208,0.608,0.208,0.952v2.71h-0.479v-2.702c0-0.744-0.304-1.119-1.072-1.119
				c-0.591,0-0.999,0.384-1.151,0.808c-0.096,0.264-0.104,0.495-0.104,0.783V63.945z"/>
			<path class="st11" d="M141.079,62.65c0.152,0.712,0.52,0.976,1.239,0.976c0.696,0,1.023-0.368,1.023-0.768
				c0-1.199-2.654-0.352-2.654-1.983c0-0.688,0.536-1.183,1.455-1.183c0.896,0,1.479,0.367,1.599,1.303h-0.488
				c-0.088-0.64-0.52-0.871-1.119-0.871c-0.608,0-0.936,0.287-0.936,0.711c0,1.128,2.654,0.424,2.654,2.016
				c0,0.791-0.711,1.207-1.687,1.207s-1.535-0.624-1.575-1.407H141.079z"/>
			<path class="st11" d="M144.847,58.9v-0.712h0.528V58.9H144.847z M144.871,63.945v-4.142h0.48v4.142H144.871z"/>
			<path class="st11" d="M148.03,63.962c-0.112,0.023-0.32,0.096-0.552,0.096c-0.472,0-0.735-0.208-0.735-0.823v-3.03h-0.584v-0.4
				h0.584v-1.151h0.479v1.151h0.776v0.4h-0.776v2.838c0,0.408,0.016,0.584,0.416,0.584c0.128,0,0.264-0.024,0.392-0.057V63.962z"/>
			<path class="st11" d="M148.847,58.9v-0.712h0.528V58.9H148.847z M148.871,63.945v-4.142h0.48v4.142H148.871z"/>
			<path class="st11" d="M150.303,61.875c0-1.208,0.64-2.183,1.919-2.183c1.295,0,1.919,0.967,1.919,2.183
				c0,1.311-0.759,2.183-1.919,2.183C151.167,64.042,150.303,63.322,150.303,61.875z M152.222,60.124
				c-1.007,0-1.407,0.855-1.407,1.751c0,1.031,0.488,1.751,1.407,1.751c1.007,0,1.407-0.863,1.407-1.751
				C153.621,60.899,153.238,60.124,152.222,60.124z"/>
			<path class="st11" d="M155.503,63.945h-0.48v-4.142h0.48v0.576c0.384-0.408,0.759-0.688,1.335-0.688
				c0.504,0,0.968,0.159,1.263,0.591c0.2,0.296,0.208,0.608,0.208,0.952v2.71h-0.479v-2.702c0-0.744-0.304-1.119-1.072-1.119
				c-0.591,0-0.999,0.384-1.151,0.808c-0.096,0.264-0.104,0.495-0.104,0.783V63.945z"/>
			<path class="st11" d="M159.519,63.945v-5.757h2.103c1.495,0,1.879,0.744,1.879,1.607c0,1.287-1.144,1.607-2.207,1.607h-1.231
				v2.542H159.519z M161.31,60.939c1.016,0,1.647-0.208,1.647-1.184c0-0.72-0.463-1.104-1.487-1.104h-1.407v2.287H161.31z"/>
			<path class="st11" d="M166.262,61.531c0.176-0.017,0.472-0.064,0.632-0.137c0.16-0.071,0.176-0.287,0.176-0.432
				c0-0.487-0.288-0.839-1.031-0.839c-0.664,0-1.12,0.216-1.208,0.936h-0.488c0.072-0.976,0.8-1.367,1.703-1.367
				c0.84,0,1.503,0.327,1.503,1.287v2.255c0,0.375,0.096,0.463,0.503,0.319v0.376c-0.072,0.023-0.24,0.08-0.375,0.08
				c-0.08,0-0.144-0.008-0.216-0.024c-0.319-0.048-0.375-0.327-0.384-0.615c-0.399,0.447-0.943,0.687-1.543,0.687
				c-0.728,0-1.383-0.392-1.383-1.191c0-0.695,0.48-1.119,1.447-1.247L166.262,61.531z M167.069,61.77
				c-0.408,0.168-0.823,0.2-1.239,0.232c-0.728,0.056-1.167,0.319-1.167,0.879c0,0.504,0.44,0.744,0.896,0.744
				c0.76,0,1.511-0.368,1.511-1.208V61.77z"/>
			<path class="st11" d="M169.311,63.945h-0.48v-4.142h0.48v0.775h0.016c0.264-0.663,0.656-0.887,1.352-0.887v0.52
				c-1.08-0.024-1.367,0.775-1.367,1.703V63.945z"/>
			<path class="st11" d="M173.374,61.531c0.176-0.017,0.472-0.064,0.632-0.137c0.16-0.071,0.176-0.287,0.176-0.432
				c0-0.487-0.288-0.839-1.031-0.839c-0.664,0-1.12,0.216-1.208,0.936h-0.488c0.072-0.976,0.8-1.367,1.703-1.367
				c0.84,0,1.503,0.327,1.503,1.287v2.255c0,0.375,0.096,0.463,0.503,0.319v0.376c-0.072,0.023-0.24,0.08-0.375,0.08
				c-0.08,0-0.144-0.008-0.216-0.024c-0.319-0.048-0.375-0.327-0.384-0.615c-0.399,0.447-0.943,0.687-1.543,0.687
				c-0.728,0-1.383-0.392-1.383-1.191c0-0.695,0.48-1.119,1.447-1.247L173.374,61.531z M174.182,61.77
				c-0.408,0.168-0.823,0.2-1.239,0.232c-0.728,0.056-1.167,0.319-1.167,0.879c0,0.504,0.44,0.744,0.896,0.744
				c0.76,0,1.511-0.368,1.511-1.208V61.77z"/>
			<path class="st11" d="M176.335,63.945h-0.479v-4.142h0.479v0.624h0.016c0.248-0.472,0.744-0.735,1.279-0.735
				c0.768,0,1.04,0.359,1.215,0.799c0.272-0.535,0.76-0.799,1.352-0.799c1.127,0,1.287,0.807,1.287,1.639v2.614h-0.479v-2.862
				c0-0.592-0.208-0.959-0.888-0.959c-0.353,0-0.696,0.151-0.936,0.472c-0.208,0.271-0.272,0.775-0.272,1.119v2.23h-0.479v-2.862
				c0-0.592-0.208-0.959-0.888-0.959c-0.352,0-0.696,0.151-0.936,0.472c-0.208,0.271-0.272,0.775-0.272,1.119V63.945z"/>
			<path class="st11" d="M182.879,61.986c-0.008,0.896,0.472,1.64,1.392,1.64c0.623,0,1.111-0.344,1.255-0.952h0.536
				c-0.24,0.784-0.735,1.384-1.791,1.384c-1.327,0-1.903-0.943-1.903-2.167c0-1.207,0.72-2.198,1.903-2.198
				c1.135,0,1.831,0.807,1.823,2.294H182.879z M185.582,61.587c0-0.808-0.448-1.463-1.312-1.463c-0.848,0-1.296,0.68-1.392,1.463
				H185.582z"/>
			<path class="st11" d="M188.487,63.962c-0.111,0.023-0.319,0.096-0.552,0.096c-0.472,0-0.735-0.208-0.735-0.823v-3.03h-0.583v-0.4
				h0.583v-1.151h0.479v1.151h0.776v0.4h-0.776v2.838c0,0.408,0.017,0.584,0.416,0.584c0.128,0,0.264-0.024,0.392-0.057V63.962z"/>
			<path class="st11" d="M189.552,61.986c-0.008,0.896,0.472,1.64,1.392,1.64c0.623,0,1.111-0.344,1.255-0.952h0.536
				c-0.24,0.784-0.736,1.384-1.791,1.384c-1.328,0-1.903-0.943-1.903-2.167c0-1.207,0.72-2.198,1.903-2.198
				c1.135,0,1.831,0.807,1.822,2.294H189.552z M192.254,61.587c0-0.808-0.447-1.463-1.311-1.463c-0.849,0-1.296,0.68-1.392,1.463
				H192.254z"/>
			<path class="st11" d="M194.207,63.945h-0.479v-4.142h0.479v0.775h0.017c0.264-0.663,0.655-0.887,1.351-0.887v0.52
				c-1.079-0.024-1.367,0.775-1.367,1.703V63.945z"/>
			<path class="st11" d="M196.24,65.473c0.76-1.104,1.224-2.398,1.224-3.742c0-1.327-0.487-2.599-1.224-3.693h0.408
				c0.88,1.215,1.367,2.215,1.367,3.733c0,1.464-0.504,2.551-1.367,3.702H196.24z"/>
		</g>
		<g>
			<path d="M122.012,49.131c0.198,0.036,0.396,0.055,0.594,0.055h0.297c0.104-0.406,0.195-0.844,0.273-1.312
				c0.161,0.058,0.349,0.099,0.562,0.125c-0.089,0.109-0.18,0.308-0.273,0.594c-0.062,0.214-0.123,0.411-0.18,0.594h0.797
				c0.192,0,0.388-0.019,0.586-0.055c-0.021,0.078-0.031,0.161-0.031,0.25c0,0.073,0.01,0.144,0.031,0.211
				c-0.198-0.042-0.394-0.062-0.586-0.062h-0.898c-0.261,0.833-0.513,1.472-0.758,1.914h1v-0.688c0-0.208-0.023-0.417-0.07-0.625
				h0.562c-0.078,0.104-0.117,0.237-0.117,0.398v0.914h0.344c0.156,0,0.331-0.011,0.523-0.031c-0.021,0.067-0.031,0.138-0.031,0.211
				c0,0.058,0.01,0.122,0.031,0.195c-0.193-0.021-0.367-0.031-0.523-0.031h-0.344v1.203c0.281-0.062,0.549-0.13,0.805-0.203v0.398
				c-0.297,0.058-0.565,0.112-0.805,0.164v1.031c0,0.239,0.021,0.479,0.062,0.719c-0.083-0.021-0.169-0.031-0.258-0.031
				c-0.078,0-0.162,0.01-0.25,0.031c0.047-0.24,0.07-0.479,0.07-0.719v-0.953c-0.688,0.141-1.159,0.261-1.414,0.359
				c-0.005-0.13-0.047-0.276-0.125-0.438c0.542-0.078,1.055-0.167,1.539-0.266v-1.297h-0.906c-0.151,0-0.32,0.011-0.508,0.031
				c-0.031-0.114-0.062-0.219-0.094-0.312c0.151-0.12,0.271-0.269,0.359-0.445c0.109-0.214,0.227-0.519,0.352-0.914
				c0.067-0.198,0.13-0.403,0.188-0.617h-0.211c-0.198,0-0.396,0.021-0.594,0.062c0.021-0.067,0.031-0.138,0.031-0.211
				C122.043,49.292,122.032,49.209,122.012,49.131z M124.887,48.998c0.203,0.047,0.403,0.07,0.602,0.07h1.211v-0.625
				c0-0.208-0.021-0.417-0.062-0.625h0.57c-0.083,0.104-0.125,0.237-0.125,0.398v0.852h1.312c0.192,0,0.388-0.023,0.586-0.07
				c-0.021,0.089-0.031,0.172-0.031,0.25s0.01,0.153,0.031,0.227c-0.198-0.042-0.394-0.062-0.586-0.062h-1.312v0.836h1.062
				c0.188,0,0.372-0.021,0.555-0.062c-0.042,0.161-0.062,0.317-0.062,0.469v3.969c0,0.203-0.044,0.336-0.133,0.398
				c-0.099,0.062-0.398,0.117-0.898,0.164c-0.026-0.167-0.086-0.311-0.18-0.43h0.344c0.234,0,0.38-0.016,0.438-0.047
				c0.036-0.021,0.055-0.081,0.055-0.18v-1.18h-1.18v1c0,0.239,0.021,0.479,0.062,0.719c-0.089-0.021-0.175-0.031-0.258-0.031
				c-0.078,0-0.162,0.01-0.25,0.031c0.042-0.24,0.062-0.479,0.062-0.719v-1h-1.148v1.406c0,0.13,0.018,0.266,0.055,0.406
				c-0.078-0.021-0.162-0.031-0.25-0.031c-0.083,0-0.164,0.01-0.242,0.031c0.042-0.141,0.062-0.276,0.062-0.406v-4.102
				c0-0.151-0.021-0.308-0.062-0.469c0.172,0.042,0.346,0.062,0.523,0.062h1.062v-0.836h-1.211c-0.198,0-0.398,0.021-0.602,0.062
				c0.021-0.073,0.031-0.148,0.031-0.227S124.907,49.087,124.887,48.998z M125.551,51.693h1.148v-1.102h-1.148V51.693z
				 M125.551,53.037h1.148v-1.039h-1.148V53.037z M127.082,50.592v1.102h1.18v-1.102H127.082z M127.082,51.998v1.039h1.18v-1.039
				H127.082z M128.082,47.904c0.156,0.349,0.362,0.653,0.617,0.914c-0.13,0.011-0.276,0.06-0.438,0.148
				c-0.183-0.375-0.38-0.675-0.594-0.898C127.809,48.042,127.946,47.987,128.082,47.904z"/>
			<path d="M133.476,53.515c-1.535,0.432-2.846,0.647-3.558,0.751l-0.064-0.407c0.288-0.048,0.384-0.057,0.496-0.08v-5.613h2.702
				v5.062c0.2-0.056,0.248-0.072,0.424-0.12V53.515z M132.629,48.556h-1.855v1.279h1.855V48.556z M132.629,50.204h-1.855v1.327
				h1.855V50.204z M130.774,53.706c0.904-0.16,1.063-0.191,1.855-0.376v-1.423h-1.855V53.706z M132.429,54.794
				c1.031-0.712,2.287-1.775,2.351-4.782h-1.399v-0.407h1.399v-1.759h0.44v1.759h1.815c0,0.712-0.016,3.23-0.28,4.638
				c-0.136,0.703-0.376,0.927-0.888,0.927h-0.936l-0.096-0.472l0.823,0.04c0.384,0.017,0.504-0.008,0.624-0.392
				c0.248-0.783,0.344-3.334,0.344-4.334h-1.407c-0.12,3.047-1.239,4.278-2.431,5.134L132.429,54.794z"/>
			<path d="M138.519,48.162c0.188,0.036,0.375,0.055,0.562,0.055h4.836c0.192,0,0.383-0.019,0.57-0.055
				c-0.042,0.177-0.062,0.354-0.062,0.531v5.867c0,0.182,0.021,0.361,0.062,0.539c-0.115-0.021-0.19-0.031-0.227-0.031
				c-0.037,0-0.12,0.01-0.25,0.031c0.042-0.162,0.065-0.32,0.07-0.477h-5.164c0.005,0.161,0.026,0.32,0.062,0.477
				c-0.12-0.021-0.201-0.031-0.242-0.031c-0.042,0-0.115,0.01-0.219,0.031c0.036-0.178,0.055-0.357,0.055-0.539v-5.867
				C138.574,48.516,138.556,48.339,138.519,48.162z M138.918,54.31h5.164v-5.781h-5.164V54.31z M141.394,51.787
				c0.135,0.031,0.271,0.05,0.406,0.055c-0.078,0.13-0.141,0.294-0.188,0.492c-0.062,0.302-0.164,0.555-0.305,0.758
				c-0.162,0.239-0.375,0.425-0.641,0.555c-0.302,0.151-0.685,0.281-1.148,0.391c-0.058-0.114-0.154-0.219-0.289-0.312
				c0.453-0.062,0.812-0.144,1.078-0.242c0.312-0.12,0.549-0.297,0.711-0.531C141.217,52.675,141.342,52.287,141.394,51.787z
				 M139.832,51.037c0.188,0.042,0.375,0.062,0.562,0.062h2.211c0.188,0,0.377-0.021,0.57-0.062
				c-0.042,0.151-0.062,0.308-0.062,0.469v0.875c0,0.172,0.021,0.347,0.062,0.523c-0.115-0.021-0.19-0.031-0.227-0.031
				c-0.042,0-0.125,0.011-0.25,0.031c0.047-0.177,0.07-0.352,0.07-0.523v-1h-2.539v1.062c0,0.177,0.021,0.352,0.062,0.523
				c-0.12-0.021-0.203-0.031-0.25-0.031c-0.037,0-0.107,0.011-0.211,0.031c0.036-0.172,0.055-0.347,0.055-0.523v-0.938
				C139.887,51.345,139.868,51.188,139.832,51.037z M140.082,49.131c0.192,0.021,0.388,0.031,0.586,0.031h1.688
				c0.198,0,0.396-0.011,0.594-0.031c-0.021,0.099-0.031,0.203-0.031,0.312v0.719c0,0.125,0.01,0.247,0.031,0.367
				c-0.198-0.016-0.396-0.023-0.594-0.023h-1.688c-0.198,0-0.394,0.008-0.586,0.023c0.021-0.12,0.031-0.242,0.031-0.367v-0.719
				C140.092,49.334,140.082,49.229,140.082,49.131z M142.574,50.217v-0.773h-2.117v0.773H142.574z M141.887,52.756
				c0.635,0.406,1.18,0.729,1.633,0.969c-0.109,0.078-0.195,0.169-0.258,0.273c-0.214-0.177-0.477-0.364-0.789-0.562
				c-0.287-0.183-0.565-0.339-0.836-0.469C141.756,52.893,141.84,52.823,141.887,52.756z"/>
			<path d="M148.125,48.077v2.318h-1.527c-0.016,0.128-0.168,1.184-0.2,1.384h1.775c-0.008,1.224-0.232,2.599-0.384,2.927
				c-0.144,0.312-0.432,0.463-0.775,0.463h-0.808l-0.104-0.463l0.863,0.016c0.288,0.008,0.376-0.112,0.448-0.256
				c0.184-0.344,0.304-1.775,0.312-2.295h-1.831c0.12-0.376,0.296-1.991,0.312-2.167h1.503v-1.543h-1.823v-0.384H148.125z
				 M152.971,55.145c-1.016-2.191-1.071-5.325-1.04-6.652c-0.567,0.12-0.847,0.16-1.135,0.208v5.269
				c0.24-0.04,0.568-0.096,0.792-0.144c-0.032-0.072-0.44-1.111-0.44-1.119l0.344-0.145c0.36,0.792,0.631,1.472,0.855,2.287
				l-0.416,0.128c-0.064-0.24-0.12-0.464-0.216-0.8c-0.759,0.145-1.08,0.208-1.104,0.208c-1.055,0.176-1.167,0.192-1.303,0.224
				l-0.128-0.415c0.064-0.009,1.056-0.145,1.199-0.168v-5.27c-0.208,0.024-0.463,0.064-1.071,0.104v2.495
				c0,2.278-0.56,3.286-0.839,3.79l-0.352-0.344c0.536-0.903,0.776-1.815,0.776-3.446v-2.847c0.896-0.056,3.126-0.312,3.87-0.672
				l0.208,0.368c-0.144,0.056-0.248,0.096-0.616,0.192c-0.024,1.055-0.016,4.341,0.943,6.364L152.971,55.145z"/>
			<path d="M157.796,47.837v2.639h3.182v0.416h-3.182v1.663h3.406v0.408h-3.406v2.198h-0.472v-2.198h-3.43v-0.408h3.43v-1.663
				h-3.214v-0.416h3.214v-2.639H157.796z M155.742,50.012c-0.048-0.136-0.352-0.935-0.872-1.623l0.416-0.199
				c0.256,0.336,0.744,1.183,0.896,1.646L155.742,50.012z M158.86,49.805c0.184-0.256,0.552-0.76,0.864-1.663l0.472,0.168
				c-0.328,0.791-0.584,1.223-0.92,1.687L158.86,49.805z"/>
			<path d="M161.79,52.058c0.504-0.367,1.312-1.103,1.959-2.606l0.344,0.192c-0.136,0.328-0.328,0.775-0.847,1.511v4.014h-0.44
				v-3.454c-0.408,0.472-0.632,0.64-0.839,0.792L161.79,52.058z M163.773,48.005c-0.336,0.64-0.872,1.512-1.767,2.175l-0.184-0.439
				c0.943-0.688,1.423-1.623,1.583-1.919L163.773,48.005z M163.718,51.38c0.359-0.072,1.263-0.248,2.486-0.904
				c-0.496-0.375-1.015-0.871-1.375-1.526l0.368-0.217c0.2,0.345,0.583,0.944,1.399,1.496c0.543-0.368,1.159-0.92,1.527-1.703
				h-3.974v-0.4h4.461v0.36c-0.168,0.384-0.52,1.191-1.623,1.999c0.912,0.527,1.743,0.768,2.303,0.903l-0.208,0.424
				c-0.887-0.248-1.727-0.592-2.486-1.071c-0.384,0.231-1.303,0.735-2.695,1.079L163.718,51.38z M168.891,52.787h-2.087v1.614h2.415
				v0.4h-5.317v-0.4h2.447v-1.614h-2.087v-0.4h2.087v-0.888h0.456v0.888h2.087V52.787z"/>
			<path d="M123.766,58.037c-0.76,1.104-1.224,2.398-1.224,3.741c0,1.328,0.488,2.599,1.224,3.694h-0.408
				c-0.879-1.215-1.367-2.215-1.367-3.733c0-1.464,0.503-2.551,1.367-3.702H123.766z"/>
			<path d="M124.343,58.188h4.189v0.464h-1.823v5.293h-0.543v-5.293h-1.823V58.188z"/>
			<path d="M129.743,63.945h-0.48v-4.142h0.48v0.775h0.016c0.264-0.663,0.656-0.887,1.352-0.887v0.52
				c-1.08-0.024-1.367,0.775-1.367,1.703V63.945z"/>
			<path d="M133.806,61.531c0.176-0.017,0.472-0.064,0.632-0.137c0.16-0.071,0.176-0.287,0.176-0.432
				c0-0.487-0.288-0.839-1.031-0.839c-0.664,0-1.12,0.216-1.208,0.936h-0.488c0.072-0.976,0.8-1.367,1.703-1.367
				c0.84,0,1.503,0.327,1.503,1.287v2.255c0,0.375,0.096,0.463,0.503,0.319v0.376c-0.072,0.023-0.24,0.08-0.375,0.08
				c-0.08,0-0.144-0.008-0.216-0.024c-0.319-0.048-0.375-0.327-0.384-0.615c-0.399,0.447-0.943,0.687-1.543,0.687
				c-0.728,0-1.383-0.392-1.383-1.191c0-0.695,0.48-1.119,1.447-1.247L133.806,61.531z M134.613,61.77
				c-0.408,0.168-0.823,0.2-1.239,0.232c-0.728,0.056-1.167,0.319-1.167,0.879c0,0.504,0.44,0.744,0.896,0.744
				c0.76,0,1.511-0.368,1.511-1.208V61.77z"/>
			<path d="M136.831,63.945h-0.48v-4.142h0.48v0.576c0.384-0.408,0.759-0.688,1.335-0.688c0.504,0,0.968,0.159,1.263,0.591
				c0.2,0.296,0.208,0.608,0.208,0.952v2.71h-0.479v-2.702c0-0.744-0.304-1.119-1.072-1.119c-0.591,0-0.999,0.384-1.151,0.808
				c-0.096,0.264-0.104,0.495-0.104,0.783V63.945z"/>
			<path d="M141.079,62.65c0.152,0.712,0.52,0.976,1.239,0.976c0.696,0,1.023-0.368,1.023-0.768c0-1.199-2.654-0.352-2.654-1.983
				c0-0.688,0.536-1.183,1.455-1.183c0.896,0,1.479,0.367,1.599,1.303h-0.488c-0.088-0.64-0.52-0.871-1.119-0.871
				c-0.608,0-0.936,0.287-0.936,0.711c0,1.128,2.654,0.424,2.654,2.016c0,0.791-0.711,1.207-1.687,1.207s-1.535-0.624-1.575-1.407
				H141.079z"/>
			<path d="M144.847,58.9v-0.712h0.528V58.9H144.847z M144.871,63.945v-4.142h0.48v4.142H144.871z"/>
			<path d="M148.03,63.962c-0.112,0.023-0.32,0.096-0.552,0.096c-0.472,0-0.735-0.208-0.735-0.823v-3.03h-0.584v-0.4h0.584v-1.151
				h0.479v1.151h0.776v0.4h-0.776v2.838c0,0.408,0.016,0.584,0.416,0.584c0.128,0,0.264-0.024,0.392-0.057V63.962z"/>
			<path d="M148.847,58.9v-0.712h0.528V58.9H148.847z M148.871,63.945v-4.142h0.48v4.142H148.871z"/>
			<path d="M150.303,61.875c0-1.208,0.64-2.183,1.919-2.183c1.295,0,1.919,0.967,1.919,2.183c0,1.311-0.759,2.183-1.919,2.183
				C151.167,64.042,150.303,63.322,150.303,61.875z M152.222,60.124c-1.007,0-1.407,0.855-1.407,1.751
				c0,1.031,0.488,1.751,1.407,1.751c1.007,0,1.407-0.863,1.407-1.751C153.621,60.899,153.238,60.124,152.222,60.124z"/>
			<path d="M155.503,63.945h-0.48v-4.142h0.48v0.576c0.384-0.408,0.759-0.688,1.335-0.688c0.504,0,0.968,0.159,1.263,0.591
				c0.2,0.296,0.208,0.608,0.208,0.952v2.71h-0.479v-2.702c0-0.744-0.304-1.119-1.072-1.119c-0.591,0-0.999,0.384-1.151,0.808
				c-0.096,0.264-0.104,0.495-0.104,0.783V63.945z"/>
			<path d="M159.519,63.945v-5.757h2.103c1.495,0,1.879,0.744,1.879,1.607c0,1.287-1.144,1.607-2.207,1.607h-1.231v2.542H159.519z
				 M161.31,60.939c1.016,0,1.647-0.208,1.647-1.184c0-0.72-0.463-1.104-1.487-1.104h-1.407v2.287H161.31z"/>
			<path d="M166.262,61.531c0.176-0.017,0.472-0.064,0.632-0.137c0.16-0.071,0.176-0.287,0.176-0.432
				c0-0.487-0.288-0.839-1.031-0.839c-0.664,0-1.12,0.216-1.208,0.936h-0.488c0.072-0.976,0.8-1.367,1.703-1.367
				c0.84,0,1.503,0.327,1.503,1.287v2.255c0,0.375,0.096,0.463,0.503,0.319v0.376c-0.072,0.023-0.24,0.08-0.375,0.08
				c-0.08,0-0.144-0.008-0.216-0.024c-0.319-0.048-0.375-0.327-0.384-0.615c-0.399,0.447-0.943,0.687-1.543,0.687
				c-0.728,0-1.383-0.392-1.383-1.191c0-0.695,0.48-1.119,1.447-1.247L166.262,61.531z M167.069,61.77
				c-0.408,0.168-0.823,0.2-1.239,0.232c-0.728,0.056-1.167,0.319-1.167,0.879c0,0.504,0.44,0.744,0.896,0.744
				c0.76,0,1.511-0.368,1.511-1.208V61.77z"/>
			<path d="M169.311,63.945h-0.48v-4.142h0.48v0.775h0.016c0.264-0.663,0.656-0.887,1.352-0.887v0.52
				c-1.08-0.024-1.367,0.775-1.367,1.703V63.945z"/>
			<path d="M173.374,61.531c0.176-0.017,0.472-0.064,0.632-0.137c0.16-0.071,0.176-0.287,0.176-0.432
				c0-0.487-0.288-0.839-1.031-0.839c-0.664,0-1.12,0.216-1.208,0.936h-0.488c0.072-0.976,0.8-1.367,1.703-1.367
				c0.84,0,1.503,0.327,1.503,1.287v2.255c0,0.375,0.096,0.463,0.503,0.319v0.376c-0.072,0.023-0.24,0.08-0.375,0.08
				c-0.08,0-0.144-0.008-0.216-0.024c-0.319-0.048-0.375-0.327-0.384-0.615c-0.399,0.447-0.943,0.687-1.543,0.687
				c-0.728,0-1.383-0.392-1.383-1.191c0-0.695,0.48-1.119,1.447-1.247L173.374,61.531z M174.182,61.77
				c-0.408,0.168-0.823,0.2-1.239,0.232c-0.728,0.056-1.167,0.319-1.167,0.879c0,0.504,0.44,0.744,0.896,0.744
				c0.76,0,1.511-0.368,1.511-1.208V61.77z"/>
			<path d="M176.335,63.945h-0.479v-4.142h0.479v0.624h0.016c0.248-0.472,0.744-0.735,1.279-0.735c0.768,0,1.04,0.359,1.215,0.799
				c0.272-0.535,0.76-0.799,1.352-0.799c1.127,0,1.287,0.807,1.287,1.639v2.614h-0.479v-2.862c0-0.592-0.208-0.959-0.888-0.959
				c-0.353,0-0.696,0.151-0.936,0.472c-0.208,0.271-0.272,0.775-0.272,1.119v2.23h-0.479v-2.862c0-0.592-0.208-0.959-0.888-0.959
				c-0.352,0-0.696,0.151-0.936,0.472c-0.208,0.271-0.272,0.775-0.272,1.119V63.945z"/>
			<path d="M182.879,61.986c-0.008,0.896,0.472,1.64,1.392,1.64c0.623,0,1.111-0.344,1.255-0.952h0.536
				c-0.24,0.784-0.735,1.384-1.791,1.384c-1.327,0-1.903-0.943-1.903-2.167c0-1.207,0.72-2.198,1.903-2.198
				c1.135,0,1.831,0.807,1.823,2.294H182.879z M185.582,61.587c0-0.808-0.448-1.463-1.312-1.463c-0.848,0-1.296,0.68-1.392,1.463
				H185.582z"/>
			<path d="M188.487,63.962c-0.111,0.023-0.319,0.096-0.552,0.096c-0.472,0-0.735-0.208-0.735-0.823v-3.03h-0.583v-0.4h0.583v-1.151
				h0.479v1.151h0.776v0.4h-0.776v2.838c0,0.408,0.017,0.584,0.416,0.584c0.128,0,0.264-0.024,0.392-0.057V63.962z"/>
			<path d="M189.552,61.986c-0.008,0.896,0.472,1.64,1.392,1.64c0.623,0,1.111-0.344,1.255-0.952h0.536
				c-0.24,0.784-0.736,1.384-1.791,1.384c-1.328,0-1.903-0.943-1.903-2.167c0-1.207,0.72-2.198,1.903-2.198
				c1.135,0,1.831,0.807,1.822,2.294H189.552z M192.254,61.587c0-0.808-0.447-1.463-1.311-1.463c-0.849,0-1.296,0.68-1.392,1.463
				H192.254z"/>
			<path d="M194.207,63.945h-0.479v-4.142h0.479v0.775h0.017c0.264-0.663,0.655-0.887,1.351-0.887v0.52
				c-1.079-0.024-1.367,0.775-1.367,1.703V63.945z"/>
			<path d="M196.24,65.473c0.76-1.104,1.224-2.398,1.224-3.742c0-1.327-0.487-2.599-1.224-3.693h0.408
				c0.88,1.215,1.367,2.215,1.367,3.733c0,1.464-0.504,2.551-1.367,3.702H196.24z"/>
		</g>
	</g>
	<g>
		<g>
			<line class="st12" x1="86.298" y1="48.244" x2="119.713" y2="51.045"/>
			<g>
				<polygon points="87.779,50.42 88.149,50.083 86.49,48.26 88.429,46.738 88.12,46.345 85.758,48.199 				"/>
			</g>
		</g>
	</g>
	<g>
	</g>
	<g>
	</g>
	<g>
	</g>
	<g>
	</g>
	<g>
	</g>
	<g>
	</g>
	<g>
	</g>
	<g>
	</g>
	<g>
	</g>
	<g>
	</g>
	<g>
	</g>
	<g>
	</g>
	<g>
	</g>
	<g>
	</g>
	<g>
	</g>
	<g>
	</g>
</g>
</svg>
