<?xml version="1.0" encoding="utf-8"?>
<!-- Generator: Adobe Illustrator 28.2.0, SVG Export Plug-In . SVG Version: 6.00 Build 0)  -->
<svg version="1.1" xmlns="http://www.w3.org/2000/svg" xmlns:xlink="http://www.w3.org/1999/xlink" x="0px" y="0px"
	 width="415.031px" height="139.227px" viewBox="0 0 415.031 139.227" style="enable-background:new 0 0 415.031 139.227;"
	 xml:space="preserve">
<style type="text/css">
	.st0{fill:none;stroke:#000000;stroke-miterlimit:10;}
	.st1{fill:none;stroke:#666666;stroke-width:0.5;stroke-miterlimit:10;stroke-dasharray:1;}
	.st2{fill:none;stroke:#000000;stroke-width:0.5;stroke-miterlimit:10;}
</style>
<g id="レイヤー_1">
	<polyline class="st0" points="415.031,52.61 358.025,52.61 358.025,28.275 237.081,28.275 237.081,52.61 217.261,52.61 
		217.261,28.275 187.733,28.275 187.733,52.61 116.946,52.61 116.946,28.275 87.049,28.275 87.049,52.61 62.073,52.61 	"/>
	<polyline class="st0" points="415.031,104.268 358.43,104.268 358.43,79.933 187.733,79.933 187.733,104.268 134.744,104.268 
		134.744,79.933 87.049,79.933 87.049,104.268 62.073,104.268 	"/>
	<line class="st1" x1="237.081" y1="52.61" x2="237.081" y2="104.268"/>
	<g>
		<g>
			<line class="st2" x1="116.837" y1="9.873" x2="110.2" y2="24.253"/>
			<g>
				<polygon points="109.296,22.745 108.343,28.275 111.934,23.962 				"/>
			</g>
		</g>
	</g>
	<line class="st2" x1="87.049" y1="104.268" x2="87.049" y2="120.852"/>
	<line class="st2" x1="134.744" y1="104.268" x2="134.744" y2="120.852"/>
	<g>
		<g>
			<line class="st2" x1="130.314" y1="112.56" x2="91.478" y2="112.56"/>
			<g>
				<polygon points="129.324,111.107 134.744,112.56 129.324,114.012 				"/>
			</g>
			<g>
				<polygon points="92.469,111.107 87.049,112.56 92.469,114.012 				"/>
			</g>
		</g>
	</g>
	<g>
		<g>
			<line class="st2" x1="116.837" y1="9.873" x2="183.445" y2="27.162"/>
			<g>
				<polygon points="182.121,28.319 187.733,28.275 182.851,25.507 				"/>
			</g>
		</g>
	</g>
	<path class="st2" d="M357.485,107.179c0,3.236-4.716,2.771-4.716,2.771s-43.305,0.27-49.308,0.307
		c-6.003,0.037-6.003,3.677-6.003,3.677s0-3.64-6.003-3.677s-49.308-0.307-49.308-0.307s-4.716,0.465-4.716-2.771"/>
</g>
<g id="レイヤー_2">
	<g>
		<path d="M72.728,85.662c-2.143,0-2.798-1.782-2.798-3.022c0-1.239,0.655-3.021,2.798-3.021c2.143,0,2.798,1.782,2.798,3.021
			C75.526,83.879,74.87,85.662,72.728,85.662z M72.728,80.305c-1.248,0-1.999,0.983-1.999,2.334c0,1.352,0.751,2.335,1.999,2.335
			c1.247,0,1.999-0.983,1.999-2.335C74.727,81.289,73.975,80.305,72.728,80.305z"/>
		<path d="M80.255,79.769h0.751v5.741h-0.872l-2.918-4.638h-0.016v4.638h-0.751v-5.741h0.919l2.87,4.638h0.016V79.769z"/>
	</g>
	<g>
		<path d="M173.447,85.662c-2.143,0-2.798-1.782-2.798-3.022c0-1.239,0.655-3.021,2.798-3.021c2.143,0,2.798,1.782,2.798,3.021
			C176.245,83.879,175.589,85.662,173.447,85.662z M173.447,80.305c-1.248,0-1.999,0.983-1.999,2.334
			c0,1.352,0.751,2.335,1.999,2.335c1.247,0,1.999-0.983,1.999-2.335C175.446,81.289,174.694,80.305,173.447,80.305z"/>
		<path d="M180.974,79.769h0.751v5.741h-0.872l-2.918-4.638h-0.016v4.638h-0.751v-5.741h0.919l2.87,4.638h0.016V79.769z"/>
	</g>
	<g>
		<path d="M90.227,128.454c0-1.83,1.335-2.015,1.943-2.015c0.975,0,1.759,0.632,1.759,1.679c0,1.008-0.664,1.432-1.503,1.879
			l-0.584,0.32c-0.768,0.424-0.936,0.863-0.967,1.08h3.054v0.663h-3.846c0.04-1.167,0.567-1.791,1.319-2.231l0.743-0.432
			c0.6-0.344,1.032-0.575,1.032-1.311c0-0.447-0.288-1.016-1.111-1.016c-1.063,0-1.111,0.992-1.135,1.383H90.227z"/>
		<path d="M96.546,132.211c-1.615,0-1.927-1.719-1.927-2.886s0.312-2.887,1.927-2.887s1.927,1.72,1.927,2.887
			S98.162,132.211,96.546,132.211z M96.546,127.071c-0.808,0-1.175,0.848-1.175,2.255s0.368,2.255,1.175,2.255
			s1.175-0.848,1.175-2.255S97.354,127.071,96.546,127.071z"/>
		<path d="M100.995,132.211c-1.615,0-1.927-1.719-1.927-2.886s0.312-2.887,1.927-2.887s1.927,1.72,1.927,2.887
			S102.61,132.211,100.995,132.211z M100.995,127.071c-0.808,0-1.175,0.848-1.175,2.255s0.368,2.255,1.175,2.255
			s1.175-0.848,1.175-2.255S101.802,127.071,100.995,127.071z"/>
		<path d="M103.74,127.878h0.664v0.592h0.016c0.152-0.224,0.512-0.712,1.264-0.712c0.751,0,0.991,0.456,1.111,0.68
			c0.352-0.392,0.631-0.68,1.279-0.68c0.448,0,1.295,0.232,1.295,1.407v2.895h-0.704v-2.702c0-0.576-0.176-0.968-0.775-0.968
			c-0.592,0-0.983,0.56-0.983,1.119v2.551h-0.704v-2.895c0-0.352-0.136-0.775-0.656-0.775c-0.4,0-1.104,0.256-1.104,1.392v2.278
			h-0.704V127.878z"/>
		<path d="M112.779,129.07c-0.008-0.265-0.104-0.704-0.992-0.704c-0.216,0-0.832,0.072-0.832,0.592c0,0.344,0.216,0.424,0.76,0.561
			l0.704,0.176c0.872,0.215,1.175,0.535,1.175,1.104c0,0.863-0.711,1.383-1.655,1.383c-1.655,0-1.775-0.959-1.799-1.463h0.68
			c0.024,0.327,0.12,0.855,1.111,0.855c0.504,0,0.959-0.2,0.959-0.664c0-0.336-0.232-0.447-0.832-0.6l-0.815-0.199
			c-0.584-0.145-0.968-0.44-0.968-1.016c0-0.92,0.76-1.336,1.583-1.336c1.495,0,1.599,1.104,1.599,1.312H112.779z"/>
		<path d="M116.908,126.131c0.234,0.062,0.484,0.107,0.75,0.133c-0.078,0.193-0.117,0.422-0.117,0.688v4.438l1.344-1.688
			c0.031,0.234,0.114,0.433,0.25,0.594c-0.672,0.631-1.373,1.422-2.102,2.375c-0.141-0.24-0.305-0.458-0.492-0.656
			c0.146-0.125,0.247-0.244,0.305-0.359c0.062-0.13,0.094-0.26,0.094-0.391v-4.312C116.939,126.739,116.928,126.465,116.908,126.131
			z M121.478,125.756c0.323,0.073,0.591,0.115,0.805,0.125c-0.078,0.245-0.117,0.508-0.117,0.789c0,0.99-0.078,1.847-0.234,2.57
			c-0.099,0.479-0.237,0.898-0.414,1.258c0.505,0.553,1.055,1.117,1.648,1.695c-0.167,0.109-0.326,0.268-0.477,0.477
			c-0.474-0.625-0.964-1.174-1.469-1.648c-0.203,0.312-0.438,0.578-0.703,0.797c-0.287,0.308-0.966,0.744-2.039,1.312
			c-0.172-0.261-0.38-0.459-0.625-0.594c0.901-0.24,1.594-0.528,2.078-0.867c0.63-0.463,1.057-1.055,1.281-1.773
			c0.188-0.541,0.297-1.18,0.328-1.914C121.541,127.202,121.52,126.459,121.478,125.756z M118.908,126.569
			c0.354,0.584,0.867,1.18,1.539,1.789c-0.193,0.1-0.38,0.242-0.562,0.43c-0.386-0.719-0.898-1.344-1.539-1.875
			C118.559,126.83,118.746,126.715,118.908,126.569z"/>
		<path d="M124.283,126.358c0.328,0.042,0.651,0.062,0.969,0.062h5.258c0.317,0,0.641-0.021,0.969-0.062
			c-0.021,0.109-0.031,0.225-0.031,0.344c0,0.109,0.01,0.225,0.031,0.344c-0.328-0.041-0.651-0.062-0.969-0.062h-2.57v5.18
			c0,0.338,0.021,0.672,0.062,1c-0.12-0.021-0.245-0.031-0.375-0.031c-0.12,0-0.245,0.01-0.375,0.031
			c0.042-0.328,0.062-0.662,0.062-1v-5.18h-2.062c-0.318,0-0.641,0.021-0.969,0.062c0.021-0.119,0.031-0.234,0.031-0.344
			C124.314,126.583,124.303,126.467,124.283,126.358z M128.791,128.264c0.578,0.589,1.349,1.266,2.312,2.031
			c-0.198,0.125-0.378,0.311-0.539,0.555c-0.208-0.286-0.526-0.641-0.953-1.062c-0.453-0.432-0.875-0.775-1.266-1.031
			C128.517,128.626,128.666,128.462,128.791,128.264z"/>
	</g>
	<g>
		<path d="M239.487,119.988c0.172,0.114,0.411,0.219,0.719,0.312c-0.156,0.151-0.297,0.38-0.422,0.688
			c-0.192,0.516-0.481,1.097-0.867,1.742l1.328-0.234c0.229-0.411,0.37-0.727,0.422-0.945l0.656,0.406
			c-0.188,0.12-0.394,0.364-0.617,0.734c-0.677,1.104-1.148,1.805-1.414,2.102l1.719-0.273c-0.021,0.172-0.031,0.347-0.031,0.523
			c-0.948,0.083-1.758,0.208-2.43,0.375l-0.125-0.719c0.323-0.12,0.581-0.31,0.773-0.57c0.323-0.458,0.583-0.849,0.781-1.172
			c-0.729,0.125-1.261,0.269-1.594,0.43c-0.021-0.271-0.073-0.519-0.156-0.742c0.239-0.104,0.453-0.362,0.641-0.773
			C239.083,121.444,239.289,120.816,239.487,119.988z M240.917,125.925c-0.016,0.286-0.023,0.484-0.023,0.594
			c-1.276,0.192-2.089,0.349-2.438,0.469c-0.011-0.193-0.075-0.412-0.195-0.656C239.229,126.233,240.115,126.097,240.917,125.925z
			 M241.292,120.519c0.281,0.021,0.555,0.031,0.82,0.031h1.586c0.354,0,0.711-0.011,1.07-0.031
			c-0.354,0.677-0.683,1.227-0.984,1.648c0.495,0.396,1.102,0.833,1.82,1.312c-0.183,0.125-0.347,0.302-0.492,0.531
			c-0.192-0.214-0.487-0.477-0.883-0.789c-0.286-0.224-0.56-0.417-0.82-0.578c-0.042,0.047-0.083,0.091-0.125,0.133
			c-0.328,0.401-0.972,0.823-1.93,1.266c-0.151-0.234-0.325-0.409-0.523-0.523c0.636-0.167,1.161-0.433,1.578-0.797
			c0.401-0.281,0.831-0.831,1.289-1.648h-1.586c-0.25,0-0.523,0.011-0.82,0.031c0.021-0.109,0.031-0.214,0.031-0.312
			C241.323,120.688,241.312,120.597,241.292,120.519z M241.323,124.167c0.308,0.047,0.609,0.07,0.906,0.07h1.945
			c0.297,0,0.599-0.023,0.906-0.07c-0.026,0.114-0.039,0.231-0.039,0.352c0,0.104,0.013,0.206,0.039,0.305
			c-0.308-0.042-0.609-0.062-0.906-0.062h-0.719v1.789h1.062c0.297,0,0.599-0.023,0.906-0.07c-0.026,0.119-0.039,0.234-0.039,0.344
			s0.013,0.213,0.039,0.312c-0.308-0.042-0.609-0.062-0.906-0.062h-2.625c-0.302,0-0.606,0.021-0.914,0.062
			c0.021-0.1,0.031-0.203,0.031-0.312s-0.011-0.225-0.031-0.344c0.308,0.047,0.612,0.07,0.914,0.07h0.969v-1.789h-0.633
			c-0.297,0-0.599,0.021-0.906,0.062c0.021-0.099,0.031-0.2,0.031-0.305C241.354,124.399,241.343,124.282,241.323,124.167z"/>
		<path d="M246.26,122.675c0.427,0.016,0.856,0.023,1.289,0.023c0.177,0,0.354-0.008,0.531-0.023
			c-0.026,0.224-0.039,0.45-0.039,0.68v2.328c0.058,0.021,0.117,0.047,0.18,0.078c0.901,0.479,2.083,0.719,3.547,0.719
			c0.349,0,0.942-0.06,1.781-0.18c-0.141,0.214-0.237,0.492-0.289,0.836h-1.219c-1.63,0-2.906-0.253-3.828-0.758
			c-0.214-0.114-0.362-0.172-0.445-0.172c-0.183,0-0.474,0.31-0.875,0.93c-0.172-0.225-0.383-0.398-0.633-0.523l0.859-0.734
			c0.104-0.094,0.206-0.164,0.305-0.211v-2.398c-0.386,0-0.773,0.011-1.164,0.031c0.021-0.109,0.031-0.214,0.031-0.312
			C246.292,122.878,246.281,122.774,246.26,122.675z M247.143,120.269c0.297,0.464,0.69,0.94,1.18,1.43
			c-0.229,0.052-0.448,0.167-0.656,0.344c-0.333-0.567-0.716-1.065-1.148-1.492C246.768,120.488,246.976,120.394,247.143,120.269z
			 M248.573,121.332c0.328,0.036,0.653,0.055,0.977,0.055h1.969v-0.906c0-0.183-0.011-0.367-0.031-0.555
			c0.224,0.042,0.464,0.062,0.719,0.062c-0.062,0.172-0.094,0.37-0.094,0.594v0.805h0.344c0.317,0,0.641-0.019,0.969-0.055
			c-0.026,0.109-0.039,0.224-0.039,0.344c0,0.114,0.013,0.227,0.039,0.336c-0.328-0.036-0.651-0.055-0.969-0.055h-0.344v3.43
			c0,0.286-0.104,0.474-0.312,0.562c-0.198,0.083-0.492,0.125-0.883,0.125c-0.052-0.271-0.167-0.5-0.344-0.688h0.508
			c0.292,0,0.438-0.104,0.438-0.312v-3.117h-1.969c-0.323,0-0.648,0.019-0.977,0.055c0.021-0.109,0.031-0.222,0.031-0.336
			C248.604,121.555,248.593,121.441,248.573,121.332z M249.862,122.582c0.208,0.651,0.477,1.224,0.805,1.719
			c-0.203,0.026-0.422,0.109-0.656,0.25c-0.229-0.719-0.479-1.294-0.75-1.727C249.458,122.782,249.659,122.702,249.862,122.582z"/>
		<path d="M255.604,119.988c0.198,0.141,0.472,0.263,0.82,0.367c-0.177,0.141-0.341,0.349-0.492,0.625
			c-0.219,0.464-0.547,0.987-0.984,1.57l1.375-0.141v-0.008c0.276-0.474,0.445-0.831,0.508-1.07l0.656,0.398
			c-0.192,0.13-0.406,0.38-0.641,0.75c-0.698,1.12-1.185,1.831-1.461,2.133l2.039-0.312c-0.047,0.188-0.07,0.375-0.07,0.562
			c-1.058,0.089-1.964,0.224-2.719,0.406l-0.117-0.719c0.333-0.13,0.597-0.325,0.789-0.586c0.323-0.448,0.586-0.833,0.789-1.156
			c-0.755,0.109-1.302,0.229-1.641,0.359c-0.026-0.261-0.081-0.5-0.164-0.719c0.25-0.089,0.472-0.325,0.664-0.711
			C255.185,121.336,255.401,120.753,255.604,119.988z M257.456,125.613c-0.021,0.104-0.031,0.208-0.031,0.312
			c0,0.094,0.011,0.198,0.031,0.312c-1.021,0.177-1.989,0.396-2.906,0.656c-0.042-0.261-0.128-0.503-0.258-0.727
			C255.453,126.079,256.507,125.894,257.456,125.613z M258.768,120.011c0.214,0.104,0.492,0.18,0.836,0.227
			c-0.156,0.167-0.356,0.497-0.602,0.992c-0.036,0.089-0.073,0.172-0.109,0.25h1.531c0.281,0,0.56-0.021,0.836-0.062
			c-0.062,0.203-0.102,0.433-0.117,0.688l-0.133,4.281c-0.031,0.396-0.222,0.65-0.57,0.766c-0.261,0.094-0.664,0.161-1.211,0.203
			c0-0.214-0.094-0.44-0.281-0.68c0.349,0.016,0.589,0.023,0.719,0.023c0.317,0,0.531-0.078,0.641-0.234
			c0.078-0.094,0.117-0.224,0.117-0.391l0.125-4.062h-1.906c-0.312,0.636-0.648,1.208-1.008,1.719
			c-0.198-0.188-0.417-0.292-0.656-0.312c0.411-0.433,0.794-0.995,1.148-1.688C258.44,121.125,258.654,120.553,258.768,120.011z
			 M258.979,123.105c0.203,0.521,0.477,1.052,0.82,1.594c-0.224,0.052-0.433,0.156-0.625,0.312c-0.229-0.62-0.492-1.161-0.789-1.625
			C258.63,123.329,258.828,123.235,258.979,123.105z"/>
		<path d="M264.245,122.708c0-1.831,1.336-2.015,1.943-2.015c0.976,0,1.759,0.632,1.759,1.679c0,1.008-0.663,1.432-1.503,1.879
			l-0.584,0.32c-0.768,0.424-0.936,0.863-0.967,1.079h3.054v0.664h-3.846c0.04-1.168,0.567-1.791,1.319-2.231l0.743-0.432
			c0.601-0.344,1.032-0.575,1.032-1.311c0-0.448-0.288-1.016-1.111-1.016c-1.063,0-1.111,0.991-1.136,1.383H264.245z"/>
		<path d="M270.564,126.466c-1.615,0-1.927-1.719-1.927-2.886c0-1.168,0.312-2.887,1.927-2.887s1.928,1.719,1.928,2.887
			C272.492,124.748,272.179,126.466,270.564,126.466z M270.564,121.326c-0.808,0-1.175,0.848-1.175,2.255s0.367,2.255,1.175,2.255
			s1.176-0.848,1.176-2.255S271.372,121.326,270.564,121.326z"/>
		<path d="M275.012,126.466c-1.615,0-1.927-1.719-1.927-2.886c0-1.168,0.312-2.887,1.927-2.887s1.928,1.719,1.928,2.887
			C276.94,124.748,276.627,126.466,275.012,126.466z M275.012,121.326c-0.808,0-1.175,0.848-1.175,2.255s0.367,2.255,1.175,2.255
			s1.176-0.848,1.176-2.255S275.82,121.326,275.012,121.326z"/>
		<path d="M277.757,122.133h0.664v0.592h0.016c0.152-0.225,0.512-0.712,1.264-0.712s0.991,0.456,1.111,0.68
			c0.352-0.392,0.632-0.68,1.279-0.68c0.448,0,1.295,0.231,1.295,1.407v2.895h-0.703v-2.703c0-0.575-0.176-0.967-0.775-0.967
			c-0.592,0-0.983,0.56-0.983,1.119v2.551h-0.704v-2.895c0-0.352-0.136-0.775-0.655-0.775c-0.4,0-1.104,0.256-1.104,1.391v2.279
			h-0.704V122.133z"/>
		<path d="M286.796,123.325c-0.008-0.265-0.104-0.704-0.991-0.704c-0.216,0-0.832,0.072-0.832,0.592c0,0.344,0.216,0.424,0.76,0.56
			l0.704,0.176c0.871,0.216,1.175,0.536,1.175,1.104c0,0.863-0.711,1.384-1.655,1.384c-1.654,0-1.774-0.96-1.799-1.464h0.68
			c0.024,0.328,0.12,0.855,1.111,0.855c0.504,0,0.96-0.199,0.96-0.663c0-0.336-0.232-0.448-0.832-0.6l-0.815-0.2
			c-0.584-0.144-0.968-0.439-0.968-1.016c0-0.919,0.76-1.335,1.584-1.335c1.495,0,1.599,1.104,1.599,1.312H286.796z"/>
		<path d="M291.613,122.213h6.021v0.52h-6.021c0,1.08-0.031,3.19-1.071,4.67c-0.08-0.112-0.279-0.296-0.416-0.36
			c0.864-1.247,0.952-2.934,0.952-4.197v-2.247l0.575,0.128c1.768-0.144,3.734-0.392,4.838-0.688l0.487,0.448
			c-0.023,0.023-0.056,0.031-0.096,0.031c-0.024,0-0.048,0-0.072-0.008c-1.271,0.304-3.35,0.552-5.197,0.696V122.213z
			 M292.365,127.403v-3.462h4.55v3.454h-0.536v-0.424h-3.494v0.432H292.365z M296.378,124.453h-3.494v2.015h3.494V124.453z"/>
		<path d="M298.518,127.475c0.128-0.4,0.287-1.191,0.352-1.703l0.863-0.112c-0.168,0.607-0.504,1.439-0.688,1.751L298.518,127.475z"
			/>
		<path d="M308.756,124.14l-0.808,0.256v2.327c0,0.615-0.296,0.68-1.319,0.664c-0.016-0.137-0.096-0.368-0.168-0.521
			c0.225,0.009,0.424,0.017,0.584,0.017c0.344,0,0.384,0,0.384-0.16v-2.167c-0.384,0.12-0.728,0.224-0.999,0.304
			c-0.009,0.064-0.057,0.104-0.112,0.12l-0.184-0.615c0.352-0.088,0.799-0.208,1.295-0.344v-1.911h-1.207v-0.504h1.207v-1.639
			l0.672,0.039c-0.008,0.064-0.048,0.097-0.152,0.112v1.487h0.888v0.504h-0.888v1.767l0.752-0.199L308.756,124.14z M313.618,123.781
			h-0.888c-0.151,0.84-0.432,1.503-0.839,2.031c0.671,0.352,1.271,0.759,1.663,1.159l-0.376,0.432
			c-0.376-0.399-0.976-0.815-1.655-1.191c-0.64,0.592-1.511,0.959-2.654,1.191c-0.057-0.128-0.176-0.336-0.264-0.448
			c1.039-0.184,1.847-0.487,2.431-0.991c-0.393-0.191-0.8-0.367-1.2-0.512l-0.111,0.272l-0.496-0.152
			c0.2-0.472,0.448-1.119,0.68-1.791h-0.999v-0.496h1.175c0.16-0.487,0.32-0.967,0.448-1.383l0.672,0.112
			c-0.024,0.056-0.072,0.088-0.177,0.088c-0.111,0.352-0.247,0.759-0.399,1.183h2.99V123.781z M309.5,121.63v1.015h-0.504v-1.503
			h1.895v-1.175l0.696,0.039c-0.009,0.064-0.049,0.097-0.16,0.112v1.023h2.039v1.503h-0.528v-1.015H309.5z M310.459,123.781
			c-0.151,0.424-0.312,0.848-0.456,1.231c0.464,0.151,0.952,0.344,1.407,0.56c0.376-0.464,0.632-1.048,0.768-1.791H310.459z"/>
		<path d="M316.765,124.467v0.4c0,0.688,0.328,0.936,0.864,0.936c0.72,0,0.919-0.432,0.919-0.991v-4.238h0.775v4.189
			c0,1.344-0.879,1.703-1.654,1.703c-1.336,0-1.632-0.896-1.632-1.431v-0.568H316.765z"/>
		<path d="M323.012,126.466c-2.143,0-2.798-1.782-2.798-3.022c0-1.239,0.655-3.021,2.798-3.021s2.799,1.782,2.799,3.021
			C325.811,124.684,325.155,126.466,323.012,126.466z M323.012,121.11c-1.247,0-1.999,0.983-1.999,2.334
			c0,1.352,0.752,2.335,1.999,2.335s1.999-0.983,1.999-2.335C325.011,122.093,324.259,121.11,323.012,121.11z"/>
		<path d="M329.237,123.245h2.519v3.07h-0.504l-0.184-0.744c-0.393,0.544-1.111,0.896-1.896,0.896c-0.983,0-1.463-0.359-1.759-0.647
			c-0.88-0.831-0.903-1.814-0.903-2.423c0-1.398,0.848-2.974,2.718-2.974c1.072,0,2.264,0.607,2.431,1.895h-0.751
			c-0.248-0.999-1.088-1.207-1.719-1.207c-1.032,0-1.88,0.823-1.88,2.326c0,1.168,0.384,2.367,1.911,2.367
			c0.288,0,0.752-0.032,1.176-0.368c0.504-0.399,0.632-0.911,0.632-1.527h-1.791V123.245z"/>
		<path d="M341.306,123.749h-5.301c-0.048,1.151-0.248,2.543-0.951,3.59c-0.072-0.119-0.288-0.296-0.424-0.367
			c0.775-1.159,0.848-2.719,0.848-3.91v-2.486l0.327,0.096c1.751-0.136,3.758-0.384,4.87-0.68l0.472,0.432
			c-0.017,0.017-0.049,0.024-0.08,0.024c-0.024,0-0.057,0-0.088-0.008c-1.208,0.287-3.19,0.527-4.958,0.663v0.536h5.285V123.749z
			 M340.779,122.118h-4.758v1.159h4.758V122.118z M336.454,124.652h4.965v2.719h-0.544v-0.319h-3.901v0.344h-0.52V124.652z
			 M336.973,126.58h3.901v-1.456h-3.901V126.58z"/>
		<path d="M343.006,122.519c0.297,0.042,0.599,0.062,0.906,0.062h1.555c0.308,0,0.609-0.021,0.906-0.062
			c-0.016,0.109-0.023,0.224-0.023,0.344c0,0.099,0.008,0.2,0.023,0.305c-0.297-0.042-0.599-0.062-0.906-0.062h-0.398l-1.156,2.375
			c0.604-0.125,1.203-0.219,1.797-0.281c-0.151-0.312-0.302-0.573-0.453-0.781c0.188-0.073,0.341-0.167,0.461-0.281
			c0.042,0.099,0.114,0.237,0.219,0.414c0.172,0.302,0.315,0.573,0.43,0.812c0.078,0.167,0.156,0.32,0.234,0.461
			c-0.13,0.042-0.31,0.136-0.539,0.281c-0.026-0.109-0.065-0.231-0.117-0.367c-1.188,0.026-2.073,0.183-2.656,0.469
			c-0.109-0.266-0.214-0.484-0.312-0.656c0.266-0.192,0.453-0.375,0.562-0.547c0.13-0.177,0.417-0.81,0.859-1.898h-0.484
			c-0.308,0-0.609,0.021-0.906,0.062c0.016-0.104,0.023-0.206,0.023-0.305C343.03,122.743,343.022,122.628,343.006,122.519z
			 M343.374,120.792c0.13,0.021,0.255,0.031,0.375,0.031h2.164c0.12,0,0.245-0.011,0.375-0.031
			c-0.021,0.099-0.031,0.192-0.031,0.281c0,0.109,0.011,0.214,0.031,0.312c-0.13-0.021-0.255-0.031-0.375-0.031h-2.164
			c-0.12,0-0.245,0.011-0.375,0.031c0.021-0.099,0.031-0.203,0.031-0.312C343.405,120.985,343.394,120.891,343.374,120.792z
			 M346.124,121.792c0.276,0.047,0.55,0.07,0.82,0.07h0.523v-0.594c0-0.406-0.031-0.833-0.094-1.281
			c0.234,0.016,0.484,0.023,0.75,0.023c-0.078,0.245-0.117,0.555-0.117,0.93v0.922h1.219c0.25,0,0.5-0.013,0.75-0.039
			c-0.094,0.239-0.148,0.492-0.164,0.758l-0.18,3.836c-0.021,0.302-0.203,0.502-0.547,0.602c-0.386,0.109-0.716,0.172-0.992,0.188
			c0-0.25-0.083-0.459-0.25-0.625h0.445c0.312,0,0.531-0.058,0.656-0.172c0.078-0.083,0.117-0.175,0.117-0.273l0.195-3.75h-1.258
			c-0.036,1.312-0.167,2.269-0.391,2.867c-0.25,0.817-0.849,1.5-1.797,2.047c-0.125-0.214-0.31-0.394-0.555-0.539
			c0.87-0.354,1.43-0.817,1.68-1.391c0.339-0.714,0.516-1.708,0.531-2.984h-0.523c-0.271,0-0.544,0.021-0.82,0.062
			c0.021-0.109,0.031-0.224,0.031-0.344C346.155,122.006,346.144,121.902,346.124,121.792z"/>
		<path d="M352.389,123.166v2.614c0.624,0.951,1.767,0.951,3.206,0.951c0.863,0,1.879-0.023,2.503-0.063
			c-0.064,0.128-0.16,0.384-0.176,0.543c-0.552,0.024-1.432,0.04-2.223,0.04c-1.647,0-2.743,0-3.551-0.991
			c-0.392,0.352-0.815,0.712-1.159,0.983c0.008,0.072-0.016,0.104-0.071,0.128l-0.312-0.592c0.384-0.256,0.855-0.623,1.264-0.976
			v-2.126h-1.176v-0.512H352.389z M351.198,120.167c0.536,0.344,1.151,0.872,1.432,1.264l-0.424,0.359
			c-0.264-0.399-0.872-0.943-1.407-1.303L351.198,120.167z M355.068,126.412v-2.071c-0.504,0.744-1.271,1.423-1.983,1.791
			c-0.08-0.128-0.231-0.312-0.352-0.407c0.735-0.328,1.551-1,2.031-1.695h-1.472v-1.959h1.775v-0.704h-2.207v-0.472h2.207v-0.927
			l0.68,0.048c-0.008,0.056-0.048,0.096-0.152,0.104v0.775h2.375v0.472h-2.375v0.704h1.855v1.959h-1.552
			c0.504,0.663,1.352,1.335,2.079,1.663c-0.12,0.104-0.288,0.288-0.368,0.424c-0.688-0.376-1.479-1.08-2.015-1.791v2.087H355.068z
			 M353.796,122.501v1.096h1.271v-1.096H353.796z M356.931,122.501h-1.336v1.096h1.336V122.501z"/>
		<path d="M366.002,121.286h-6.197v1.855c0,1.247-0.096,3.062-0.799,4.285c-0.088-0.096-0.312-0.247-0.44-0.304
			c0.664-1.159,0.72-2.806,0.72-3.981v-2.351h3.015v-0.823l0.712,0.048c-0.009,0.056-0.049,0.096-0.16,0.111v0.664h3.15V121.286z
			 M364.931,124.573l0.359,0.176c-0.016,0.04-0.048,0.063-0.08,0.08c-0.368,0.663-0.936,1.175-1.631,1.559
			c0.735,0.28,1.583,0.464,2.494,0.552c-0.119,0.12-0.247,0.328-0.319,0.472c-1.008-0.136-1.943-0.376-2.742-0.743
			c-0.864,0.375-1.871,0.6-2.903,0.728c-0.039-0.136-0.144-0.336-0.231-0.456c0.903-0.096,1.807-0.271,2.599-0.56
			c-0.552-0.328-0.999-0.728-1.335-1.207l0.336-0.128h-1.271v-0.448h4.629L364.931,124.573z M364.507,124.012h-3.062v-1.327h-1.304
			v-0.447h1.304v-0.735l0.672,0.048c-0.009,0.056-0.057,0.096-0.16,0.104v0.584h2.022v-0.735l0.688,0.048
			c-0.008,0.056-0.056,0.096-0.159,0.104v0.584h1.447v0.447h-1.447V124.012z M361.636,125.044c0.328,0.447,0.808,0.808,1.392,1.103
			c0.584-0.287,1.079-0.647,1.431-1.103H361.636z M363.979,122.685h-2.022v0.896h2.022V122.685z"/>
		<path d="M238.354,132.519c0.208,0.021,0.417,0.031,0.625,0.031h0.031c0.297,0,0.591-0.011,0.883-0.031
			c-0.021,0.323-0.031,0.644-0.031,0.961v1.82c0,0.219,0.005,0.435,0.016,0.648c0.031,0.011,0.058,0.021,0.078,0.031
			c0.839,0.38,1.93,0.57,3.273,0.57c0.427,0,1.146-0.055,2.156-0.164c-0.12,0.192-0.2,0.442-0.242,0.75h-1.656
			c-1.5,0-2.677-0.201-3.531-0.602c-0.192-0.099-0.328-0.148-0.406-0.148c-0.167,0-0.427,0.239-0.781,0.719
			c-0.151-0.198-0.339-0.352-0.562-0.461l0.758-0.586c0.114-0.078,0.219-0.136,0.312-0.172c0.011-0.203,0.016-0.398,0.016-0.586
			v-2.164h-0.312c-0.208,0-0.417,0.011-0.625,0.031c0.021-0.109,0.031-0.224,0.031-0.344
			C238.385,132.725,238.375,132.624,238.354,132.519z M239.354,130.136c0.188,0.464,0.44,0.966,0.758,1.508
			c-0.219,0.036-0.438,0.109-0.656,0.219c-0.136-0.479-0.375-1-0.719-1.562C238.96,130.274,239.167,130.219,239.354,130.136z
			 M241.604,129.894c0.245,0.062,0.519,0.094,0.82,0.094c-0.062,0.229-0.102,0.695-0.117,1.398h1.047v-1.375h0.594v1.375h0.281
			c0.292,0,0.586-0.019,0.883-0.055c-0.021,0.099-0.031,0.203-0.031,0.312c0,0.099,0.011,0.203,0.031,0.312
			c-0.297-0.042-0.591-0.062-0.883-0.062h-0.281v1.312h0.508c0.292,0,0.581-0.023,0.867-0.07c-0.021,0.109-0.031,0.214-0.031,0.312
			c0,0.109,0.011,0.214,0.031,0.312c-0.286-0.042-0.575-0.062-0.867-0.062h-0.508v1.57c0,0.317,0.021,0.641,0.062,0.969
			c-0.12-0.021-0.245-0.031-0.375-0.031c-0.109,0-0.224,0.011-0.344,0.031c0.042-0.328,0.062-0.651,0.062-0.969v-1.57h-1.094
			c-0.042,0.594-0.13,1.028-0.266,1.305c-0.234,0.469-0.539,0.87-0.914,1.203c-0.239-0.146-0.481-0.261-0.727-0.344
			c0.63-0.464,1.026-1.003,1.188-1.617c0.042-0.161,0.075-0.344,0.102-0.547h-0.469c-0.292,0-0.586,0.021-0.883,0.062
			c0.021-0.099,0.031-0.203,0.031-0.312c0-0.099-0.011-0.203-0.031-0.312c0.297,0.047,0.591,0.07,0.883,0.07h0.508
			c0.011-0.161,0.016-0.331,0.016-0.508c0-0.286-0.003-0.555-0.008-0.805h-0.305c-0.292,0-0.581,0.021-0.867,0.062
			c0.021-0.109,0.031-0.214,0.031-0.312c0-0.109-0.011-0.214-0.031-0.312c0.286,0.036,0.575,0.055,0.867,0.055h0.297
			C241.667,130.813,241.64,130.316,241.604,129.894z M243.354,133.207v-1.312h-1.055c-0.005,0.245-0.008,0.513-0.008,0.805
			c0,0.183-0.003,0.352-0.008,0.508H243.354z"/>
		<path d="M248.636,130.231c-0.017,0.04-0.08,0.071-0.177,0.056c-0.463,0.584-1.295,1.344-2.007,1.847
			c-0.063-0.119-0.216-0.327-0.312-0.432c0.672-0.439,1.463-1.151,1.871-1.734L248.636,130.231z M247.413,137.395v-3.519
			c-0.304,0.336-0.607,0.647-0.912,0.912c-0.071-0.104-0.239-0.32-0.344-0.416c0.76-0.632,1.64-1.68,2.191-2.679l0.623,0.256
			c-0.023,0.048-0.088,0.08-0.184,0.064c-0.24,0.399-0.52,0.807-0.823,1.199l0.144,0.048c-0.016,0.048-0.063,0.088-0.16,0.104v4.03
			H247.413z M253.593,132.797v0.52h-1.271v3.382c0,0.672-0.256,0.688-1.871,0.688c-0.023-0.152-0.096-0.368-0.176-0.528
			c0.352,0.008,0.68,0.017,0.928,0.017c0.52,0,0.575,0,0.575-0.185v-3.374h-2.782v-0.52H253.593z M253.29,130.47v0.512h-3.99v-0.512
			H253.29z"/>
		<path d="M256.756,134.467v0.4c0,0.688,0.328,0.936,0.864,0.936c0.72,0,0.919-0.432,0.919-0.991v-4.238h0.775v4.189
			c0,1.344-0.879,1.703-1.654,1.703c-1.336,0-1.632-0.896-1.632-1.431v-0.568H256.756z"/>
		<path d="M263.003,136.466c-2.143,0-2.798-1.782-2.798-3.022c0-1.239,0.655-3.021,2.798-3.021s2.799,1.782,2.799,3.021
			C265.802,134.684,265.146,136.466,263.003,136.466z M263.003,131.11c-1.247,0-1.999,0.983-1.999,2.334
			c0,1.352,0.752,2.335,1.999,2.335s1.999-0.983,1.999-2.335C265.002,132.093,264.25,131.11,263.003,131.11z"/>
		<path d="M269.228,133.245h2.519v3.07h-0.504l-0.184-0.744c-0.393,0.544-1.111,0.896-1.896,0.896c-0.983,0-1.463-0.359-1.759-0.647
			c-0.88-0.831-0.903-1.814-0.903-2.423c0-1.398,0.848-2.974,2.718-2.974c1.072,0,2.264,0.607,2.431,1.895h-0.751
			c-0.248-0.999-1.088-1.207-1.719-1.207c-1.032,0-1.88,0.823-1.88,2.326c0,1.168,0.384,2.367,1.911,2.367
			c0.288,0,0.752-0.032,1.176-0.368c0.504-0.399,0.632-0.911,0.632-1.527h-1.791V133.245z"/>
		<path d="M276.285,133.749v2.047c0.64,0.952,1.807,0.952,3.142,0.952c0.904,0,1.999-0.024,2.655-0.064
			c-0.064,0.12-0.152,0.376-0.185,0.536c-0.543,0.016-1.407,0.031-2.198,0.031c-1.743,0-2.839,0-3.646-0.983
			c-0.375,0.353-0.768,0.704-1.095,0.976c0.008,0.072-0.009,0.096-0.072,0.128l-0.312-0.575c0.359-0.265,0.791-0.608,1.183-0.96
			v-1.583h-1.087v-0.504H276.285z M275.061,131.709c0.52,0.232,1.136,0.624,1.432,0.936l-0.368,0.393
			c-0.288-0.312-0.896-0.72-1.415-0.976L275.061,131.709z M275.381,130.071c0.487,0.256,1.079,0.664,1.358,0.983l-0.384,0.368
			c-0.264-0.32-0.839-0.744-1.335-1.008L275.381,130.071z M280.434,133.397c0.64,0.712,1.319,1.688,1.583,2.335
			c-0.04,0.023-0.08,0.063-0.464,0.256c-0.08-0.192-0.191-0.424-0.327-0.664c-1.447,0.16-2.959,0.312-3.942,0.4
			c-0.008,0.063-0.056,0.104-0.111,0.111l-0.248-0.623l0.768-0.049c0.288-0.615,0.632-1.559,0.839-2.294h-1.671v-0.512h5.182v0.512
			h-2.759c-0.032,0.04-0.096,0.063-0.176,0.063c-0.208,0.632-0.552,1.527-0.863,2.19c0.831-0.063,1.791-0.136,2.727-0.216
			c-0.288-0.447-0.632-0.911-0.968-1.295L280.434,133.397z M281.458,130.447v0.504h-4.069v-0.504H281.458z"/>
		<path d="M282.708,131.105c0.12,0.021,0.234,0.031,0.344,0.031h0.727c0.083-0.344,0.164-0.727,0.242-1.148
			c0.219,0.052,0.469,0.091,0.75,0.117c-0.146,0.151-0.273,0.425-0.383,0.82c-0.021,0.073-0.039,0.144-0.055,0.211h1.031
			c0.12,0,0.234-0.011,0.344-0.031c-0.021,0.089-0.031,0.172-0.031,0.25c0,0.094,0.011,0.19,0.031,0.289
			c-0.109-0.021-0.224-0.031-0.344-0.031h-1.164c-0.219,0.755-0.442,1.356-0.672,1.805h0.781v-0.461
			c0-0.292-0.021-0.586-0.062-0.883c0.188,0.021,0.417,0.031,0.688,0.031c-0.067,0.146-0.102,0.325-0.102,0.539v0.773h0.039
			c0.234,0,0.495-0.011,0.781-0.031c-0.021,0.099-0.031,0.195-0.031,0.289c0,0.078,0.011,0.172,0.031,0.281
			c-0.286-0.021-0.547-0.031-0.781-0.031h-0.039v1.141c0.37-0.042,0.727-0.089,1.07-0.141v0.523
			c-0.396,0.047-0.753,0.089-1.07,0.125v0.633c0,0.339,0.023,0.682,0.07,1.031c-0.12-0.021-0.234-0.031-0.344-0.031
			s-0.214,0.01-0.312,0.031c0.042-0.35,0.062-0.692,0.062-1.031v-0.57c-0.692,0.083-1.172,0.159-1.438,0.227
			c-0.011-0.172-0.065-0.37-0.164-0.594c0.562-0.036,1.097-0.083,1.602-0.141v-1.203h-0.883c-0.188,0-0.396,0.011-0.625,0.031
			c-0.031-0.161-0.062-0.308-0.094-0.438c0.136-0.104,0.263-0.25,0.383-0.438c0.114-0.172,0.237-0.44,0.367-0.805
			c0.067-0.188,0.136-0.409,0.203-0.664h-0.609c-0.109,0-0.224,0.011-0.344,0.031c0.021-0.099,0.031-0.195,0.031-0.289
			C282.74,131.277,282.729,131.194,282.708,131.105z M285.935,131.105c0.271,0.042,0.539,0.062,0.805,0.062h0.281
			c0.073-0.484,0.128-0.878,0.164-1.18c0.161,0.047,0.391,0.086,0.688,0.117c-0.109,0.255-0.208,0.609-0.297,1.062h1.047
			c0.266,0,0.534-0.021,0.805-0.062c-0.021,0.109-0.031,0.214-0.031,0.312s0.011,0.192,0.031,0.281
			c-0.271-0.036-0.539-0.055-0.805-0.055h-1.133c-0.067,0.391-0.136,0.753-0.203,1.086h1.734c0.271,0,0.542-0.019,0.812-0.055
			c-0.021,0.099-0.031,0.203-0.031,0.312c0,0.089,0.011,0.183,0.031,0.281c-0.271-0.042-0.542-0.062-0.812-0.062h-1.828
			c-0.078,0.333-0.153,0.644-0.227,0.93h1.969c0.219,0,0.438-0.021,0.656-0.062c-0.021,0.109-0.031,0.214-0.031,0.312
			c0,0.13,0.011,0.255,0.031,0.375c-0.229,0.083-0.761,0.586-1.594,1.508c0.442,0.203,0.849,0.377,1.219,0.523
			c-0.198,0.156-0.356,0.336-0.477,0.539c-0.261-0.214-0.633-0.445-1.117-0.695c-0.427-0.208-0.95-0.425-1.57-0.648
			c0.219-0.141,0.378-0.276,0.477-0.406c0.396,0.198,0.773,0.375,1.133,0.531l1.172-1.5h-0.844c-0.604,0-1.125,0.06-1.562,0.18
			c-0.021-0.255-0.081-0.474-0.18-0.656c0.12-0.062,0.195-0.125,0.227-0.188c0.042-0.089,0.102-0.336,0.18-0.742h-0.195
			c-0.271,0-0.539,0.021-0.805,0.062c0.016-0.099,0.023-0.192,0.023-0.281c0-0.109-0.008-0.214-0.023-0.312
			c0.266,0.036,0.534,0.055,0.805,0.055h0.281c0.005-0.011,0.008-0.019,0.008-0.023c0.073-0.391,0.138-0.745,0.195-1.062h-0.203
			c-0.266,0-0.534,0.019-0.805,0.055c0.021-0.089,0.031-0.183,0.031-0.281S285.956,131.214,285.935,131.105z"/>
		<path d="M292.86,136.275c0,0.616-0.504,1.12-1.119,1.12s-1.119-0.504-1.119-1.12c0-0.615,0.504-1.119,1.119-1.119
			C292.373,135.156,292.86,135.675,292.86,136.275z M292.573,136.275c0-0.463-0.368-0.831-0.832-0.831
			c-0.456,0-0.823,0.368-0.823,0.831c0,0.456,0.367,0.824,0.823,0.824C292.22,137.099,292.573,136.715,292.573,136.275z"/>
	</g>
	<g>
		<path d="M16.891,27.799c0.208,0.021,0.414,0.031,0.617,0.031h0.875c0.208,0,0.419-0.01,0.633-0.031
			c-0.021,0.24-0.031,0.479-0.031,0.719v5.211c0,0.213-0.058,0.37-0.172,0.469c-0.094,0.083-0.38,0.156-0.859,0.219
			c-0.058-0.229-0.162-0.425-0.312-0.586c0.224,0.021,0.377,0.031,0.461,0.031c0.208,0,0.312-0.075,0.312-0.227v-1.773h-0.969
			c-0.016,0.328-0.047,0.625-0.094,0.891c-0.109,0.63-0.263,1.185-0.461,1.664c-0.198-0.109-0.396-0.18-0.594-0.211
			c0.255-0.547,0.419-1.052,0.492-1.516c0.088-0.469,0.133-1.049,0.133-1.742v-2.43C16.932,28.278,16.922,28.039,16.891,27.799z
			 M17.469,31.385h0.945v-1.344h-0.938v0.906C17.477,31.104,17.474,31.25,17.469,31.385z M17.477,29.58h0.938v-1.289h-0.938V29.58z
			 M19.352,30.236c0.239,0.037,0.479,0.055,0.719,0.055h0.344c0.188,0,0.377-0.018,0.57-0.055c-0.193,1.183-0.378,1.966-0.555,2.352
			c-0.172,0.401-0.479,0.781-0.922,1.141c-0.12-0.234-0.234-0.391-0.344-0.469c0.328-0.161,0.581-0.417,0.758-0.766
			c0.182-0.359,0.325-0.935,0.43-1.727H20.07c-0.24,0-0.479,0.021-0.719,0.062c0.021-0.109,0.031-0.213,0.031-0.312
			C19.383,30.419,19.372,30.325,19.352,30.236z M19.727,28.666c0.239,0.021,0.479,0.031,0.719,0.031h0.57
			c0.255,0,0.513-0.01,0.773-0.031c-0.021,0.208-0.031,0.417-0.031,0.625v0.75c0.052,0.224,0.109,0.433,0.172,0.625
			c0.349-0.307,0.7-0.69,1.055-1.148c0.114,0.146,0.289,0.3,0.523,0.461c-0.266,0.078-0.75,0.438-1.453,1.078
			c0.125,0.354,0.258,0.646,0.398,0.875c0.37,0.547,0.825,1.021,1.367,1.422c-0.229,0.042-0.448,0.136-0.656,0.281
			c-0.505-0.567-0.896-1.143-1.172-1.727c-0.078-0.182-0.156-0.375-0.234-0.578v2.5c0,0.281-0.083,0.458-0.25,0.531
			c-0.234,0.125-0.578,0.188-1.031,0.188c-0.021-0.234-0.102-0.443-0.242-0.625c0.401,0.016,0.641,0.023,0.719,0.023
			c0.141,0,0.211-0.094,0.211-0.281v-4.461h-0.719c-0.24,0-0.479,0.011-0.719,0.031c0.021-0.094,0.031-0.19,0.031-0.289
			C19.758,28.859,19.747,28.765,19.727,28.666z M20.672,27.205c0.51,0.276,1.081,0.565,1.711,0.867
			c-0.183,0.172-0.305,0.341-0.367,0.508c-0.573-0.385-1.146-0.7-1.719-0.945C20.438,27.51,20.562,27.367,20.672,27.205z"/>
		<path d="M25.727,30.174c0.146,0.115,0.336,0.229,0.57,0.344c-0.386,1.219-0.701,2.383-0.945,3.492
			c-0.255-0.188-0.482-0.323-0.68-0.406C25.016,32.875,25.367,31.731,25.727,30.174z M25.508,27.768
			c0.239,0.526,0.552,1.065,0.938,1.617c-0.208,0.052-0.404,0.156-0.586,0.312c-0.271-0.63-0.573-1.182-0.906-1.656
			C25.177,27.984,25.362,27.893,25.508,27.768z M26.82,28.549c0.317,0.037,0.63,0.055,0.938,0.055h0.969v-0.461
			c0-0.338-0.019-0.672-0.055-1c0.208,0.021,0.456,0.031,0.742,0.031c-0.058,0.151-0.086,0.349-0.086,0.594v0.836h1.023
			c0.312,0,0.627-0.018,0.945-0.055c-0.042,0.276-0.062,0.555-0.062,0.836v2.477c0,0.297,0.021,0.599,0.062,0.906
			c-0.177-0.026-0.292-0.039-0.344-0.039c-0.062,0-0.188,0.013-0.375,0.039c0.036-0.281,0.057-0.555,0.062-0.82h-1.312v1.602
			c0,0.385,0.018,0.768,0.055,1.148c-0.12-0.021-0.242-0.031-0.367-0.031c-0.12,0-0.234,0.01-0.344,0.031
			c0.036-0.38,0.055-0.763,0.055-1.148v-1.602h-1.25c0.005,0.281,0.028,0.565,0.07,0.852c-0.188-0.021-0.315-0.031-0.383-0.031
			c-0.058,0-0.172,0.011-0.344,0.031c0.047-0.307,0.07-0.609,0.07-0.906v-2.508C26.891,29.104,26.867,28.825,26.82,28.549z
			 M27.477,31.416h1.25v-2.273h-1.25V31.416z M29.328,29.143v2.273h1.312v-2.273H29.328z"/>
		<path d="M32.328,28.486c0.109,0.021,0.224,0.031,0.344,0.031h0.562c0.067-0.338,0.138-0.716,0.211-1.133
			c0.182,0.058,0.391,0.102,0.625,0.133c-0.12,0.146-0.227,0.419-0.32,0.82c-0.016,0.068-0.029,0.128-0.039,0.18h0.961
			c0.109,0,0.224-0.01,0.344-0.031c-0.021,0.078-0.031,0.159-0.031,0.242c0,0.099,0.01,0.193,0.031,0.281
			c-0.12-0.021-0.234-0.031-0.344-0.031h-1.07c-0.193,0.808-0.388,1.445-0.586,1.914h0.711v-0.508c0-0.26-0.019-0.521-0.055-0.781
			c0.172,0.021,0.38,0.031,0.625,0.031c-0.062,0.125-0.094,0.284-0.094,0.477v0.781c0.219,0,0.458-0.01,0.719-0.031
			c-0.021,0.089-0.031,0.183-0.031,0.281c0,0.073,0.01,0.154,0.031,0.242c-0.261-0.021-0.5-0.031-0.719-0.031v1
			c0.26-0.052,0.51-0.112,0.75-0.18c-0.021,0.083-0.031,0.164-0.031,0.242c0,0.083,0.01,0.167,0.031,0.25
			c-0.255,0.047-0.505,0.097-0.75,0.148v0.914c0,0.307,0.021,0.609,0.062,0.906c-0.109-0.021-0.214-0.031-0.312-0.031
			c-0.099,0-0.193,0.01-0.281,0.031c0.036-0.297,0.055-0.599,0.055-0.906v-0.82c-0.417,0.089-0.823,0.188-1.219,0.297
			c-0.031-0.213-0.091-0.414-0.18-0.602c0.495-0.031,0.961-0.083,1.398-0.156v-1.094h-0.805c-0.151,0-0.32,0.011-0.508,0.031
			c-0.031-0.234-0.06-0.453-0.086-0.656c0.109-0.094,0.216-0.229,0.32-0.406c0.099-0.167,0.206-0.422,0.32-0.766
			c0.052-0.167,0.104-0.359,0.156-0.578h-0.453c-0.12,0-0.234,0.011-0.344,0.031c0.016-0.088,0.023-0.182,0.023-0.281
			C32.352,28.646,32.344,28.564,32.328,28.486z M36.758,27.205c0.198,0.094,0.406,0.154,0.625,0.18
			c-0.083,0.073-0.164,0.156-0.242,0.25c0.234,0.406,0.536,0.748,0.906,1.023c0.359,0.271,0.88,0.513,1.562,0.727
			c-0.162,0.146-0.287,0.326-0.375,0.539c-0.505-0.25-0.914-0.492-1.227-0.727c-0.016,0.062-0.023,0.125-0.023,0.188
			c0,0.089,0.01,0.172,0.031,0.25c-0.104-0.021-0.211-0.031-0.32-0.031h-1.461c-0.109,0-0.214,0.011-0.312,0.031
			c0.021-0.078,0.031-0.161,0.031-0.25c0-0.073-0.011-0.143-0.031-0.211c0.099,0.021,0.203,0.031,0.312,0.031h1.461
			c0.099,0,0.195-0.008,0.289-0.023c-0.109-0.083-0.198-0.156-0.266-0.219c-0.323-0.276-0.589-0.622-0.797-1.039
			c-0.526,0.755-1.214,1.451-2.062,2.086c-0.099-0.135-0.248-0.271-0.445-0.406c0.583-0.302,1.07-0.669,1.461-1.102
			C36.255,28.101,36.549,27.669,36.758,27.205z M35.039,30.041c0.203,0.047,0.403,0.07,0.602,0.07h0.688
			c0.219,0,0.438-0.023,0.656-0.07c-0.042,0.177-0.062,0.357-0.062,0.539v3.281c0,0.219-0.044,0.359-0.133,0.422
			c-0.099,0.13-0.339,0.208-0.719,0.234c-0.031-0.203-0.102-0.383-0.211-0.539c0.192,0.021,0.317,0.031,0.375,0.031
			c0.099,0,0.167-0.019,0.203-0.055c0.026-0.026,0.039-0.089,0.039-0.188v-0.844h-0.93v1.188c0,0.151,0.021,0.307,0.062,0.469
			c-0.099-0.021-0.193-0.031-0.281-0.031c-0.094,0-0.19,0.01-0.289,0.031c0.042-0.162,0.062-0.318,0.062-0.469V30.58
			C35.102,30.398,35.081,30.218,35.039,30.041z M35.547,31.354h0.93v-0.836h-0.93V31.354z M35.547,32.518h0.93v-0.75h-0.93V32.518z
			 M37.352,30.26c0.161,0.021,0.352,0.031,0.57,0.031c-0.068,0.109-0.102,0.245-0.102,0.406v1.789c0,0.261,0.023,0.519,0.07,0.773
			c-0.099-0.016-0.193-0.023-0.281-0.023c-0.089,0-0.175,0.008-0.258,0.023c0.042-0.255,0.062-0.513,0.062-0.773v-1.539
			C37.414,30.718,37.393,30.489,37.352,30.26z M38.297,30.041c0.177,0.021,0.364,0.031,0.562,0.031
			c-0.068,0.13-0.102,0.279-0.102,0.445v3.594c0,0.203-0.078,0.338-0.234,0.406c-0.162,0.057-0.396,0.086-0.703,0.086
			c-0.042-0.198-0.123-0.362-0.242-0.492h0.375c0.25,0,0.375-0.083,0.375-0.25v-3.406C38.328,30.32,38.317,30.182,38.297,30.041z"/>
		<path d="M41.102,27.924c0.229,0.026,0.481,0.044,0.758,0.055c-0.068,0.099-0.102,0.214-0.102,0.344v1.789h1.789V27.83
			c0-0.219-0.023-0.438-0.07-0.656c0.213,0.073,0.466,0.112,0.758,0.117c-0.068,0.136-0.102,0.315-0.102,0.539v2.281h1.75
			c0.005-0.078,0.008-0.151,0.008-0.219v-1c0-0.338-0.023-0.672-0.07-1c0.208,0.021,0.461,0.031,0.758,0.031
			c-0.068,0.156-0.102,0.354-0.102,0.594v1.375c0,0.386,0.023,0.769,0.07,1.148c-0.13-0.021-0.258-0.031-0.383-0.031
			c-0.109,0-0.224,0.011-0.344,0.031c0.016-0.135,0.028-0.271,0.039-0.406h-1.727v2.852h1.906v-1.164c0-0.328-0.019-0.661-0.055-1
			c0.208,0.021,0.456,0.031,0.742,0.031c-0.058,0.156-0.086,0.354-0.086,0.594v1.539c0,0.38,0.018,0.763,0.055,1.148
			c-0.125-0.021-0.248-0.031-0.367-0.031c-0.12,0-0.234,0.01-0.344,0.031c0.021-0.208,0.034-0.417,0.039-0.625h-4.414
			c-0.24,0-0.479,0.01-0.719,0.031c0.042-0.172,0.062-0.346,0.062-0.523v-1.75c0-0.156-0.021-0.315-0.062-0.477
			c0.229,0.031,0.479,0.052,0.75,0.062c-0.062,0.099-0.094,0.214-0.094,0.344v1.789h2v-2.852H41.82c-0.24,0-0.479,0.011-0.719,0.031
			c0.042-0.177,0.062-0.352,0.062-0.523v-1.758C41.164,28.234,41.143,28.08,41.102,27.924z"/>
	</g>
	<g>
		<path d="M6.647,78.873v0.4c0,0.688,0.328,0.936,0.864,0.936c0.72,0,0.919-0.432,0.919-0.991v-4.238h0.775v4.189
			c0,1.344-0.879,1.703-1.655,1.703c-1.335,0-1.631-0.896-1.631-1.431v-0.568H6.647z"/>
		<path d="M12.007,76.418c1.335,0,1.943,1.127,1.943,2.207c0,1.079-0.607,2.206-1.943,2.206c-1.335,0-1.943-1.127-1.943-2.206
			C10.064,77.545,10.672,76.418,12.007,76.418z M12.007,80.224c1.008,0,1.215-1.039,1.215-1.599s-0.208-1.6-1.215-1.6
			c-1.007,0-1.215,1.04-1.215,1.6S11,80.224,12.007,80.224z"/>
		<path d="M18.222,80.376c0,0.6-0.008,2.103-1.943,2.103c-0.496,0-1.463-0.136-1.599-1.247h0.704
			c0.128,0.663,0.775,0.663,0.943,0.663c1.215,0,1.191-0.976,1.191-1.471v-0.176h-0.016v0.031c-0.184,0.296-0.551,0.561-1.111,0.561
			c-1.423,0-1.839-1.336-1.839-2.335c0-1.176,0.632-2.087,1.743-2.087c0.759,0,1.079,0.472,1.247,0.712h0.016v-0.592h0.664V80.376z
			 M16.407,80.232c0.448,0,1.144-0.296,1.144-1.407c0-0.68-0.112-1.774-1.127-1.774c-1.087,0-1.144,1.031-1.144,1.566
			C15.28,79.537,15.64,80.232,16.407,80.232z"/>
		<path d="M20.144,80.72h-0.776v-5.741h3.974v0.688h-3.198v1.76h2.814v0.688h-2.814V80.72z"/>
		<path d="M25.791,76.418c1.335,0,1.943,1.127,1.943,2.207c0,1.079-0.607,2.206-1.943,2.206c-1.335,0-1.943-1.127-1.943-2.206
			C23.848,77.545,24.456,76.418,25.791,76.418z M25.791,80.224c1.008,0,1.215-1.039,1.215-1.599s-0.208-1.6-1.215-1.6
			c-1.007,0-1.215,1.04-1.215,1.6S24.784,80.224,25.791,80.224z"/>
		<path d="M29.336,80.72h-0.704v-4.182h0.664v0.695h0.016c0.28-0.487,0.647-0.815,1.175-0.815c0.088,0,0.128,0.008,0.184,0.023
			v0.729h-0.264c-0.656,0-1.071,0.512-1.071,1.119V80.72z"/>
		<path d="M32.728,80.72H32l-1.208-4.182h0.768l0.8,3.286h0.016l0.807-3.286h0.784l0.815,3.286h0.016l0.848-3.286h0.704
			l-1.215,4.182h-0.728l-0.848-3.238h-0.016L32.728,80.72z"/>
		<path d="M36.952,77.81c0.032-1,0.696-1.392,1.727-1.392c0.336,0,1.551,0.096,1.551,1.167v2.407c0,0.176,0.088,0.248,0.232,0.248
			c0.064,0,0.152-0.017,0.232-0.032v0.512c-0.12,0.032-0.224,0.08-0.384,0.08c-0.624,0-0.72-0.32-0.744-0.64
			c-0.272,0.296-0.696,0.68-1.511,0.68c-0.768,0-1.312-0.488-1.312-1.208c0-0.352,0.104-1.167,1.271-1.311l1.159-0.145
			c0.168-0.016,0.368-0.08,0.368-0.495c0-0.44-0.32-0.68-0.983-0.68c-0.8,0-0.912,0.487-0.959,0.808H36.952z M39.527,78.585
			c-0.112,0.088-0.288,0.151-1.159,0.264c-0.344,0.048-0.896,0.151-0.896,0.68c0,0.456,0.232,0.728,0.759,0.728
			c0.656,0,1.295-0.424,1.295-0.983V78.585z"/>
		<path d="M42.224,80.72H41.52v-4.182h0.664v0.695H42.2c0.28-0.487,0.647-0.815,1.175-0.815c0.088,0,0.128,0.008,0.184,0.023v0.729
			h-0.264c-0.656,0-1.071,0.512-1.071,1.119V80.72z"/>
		<path d="M47.558,80.72h-0.664v-0.576h-0.016c-0.304,0.568-0.784,0.696-1.191,0.696c-1.423,0-1.839-1.336-1.839-2.335
			c0-1.176,0.632-2.087,1.743-2.087c0.759,0,1.08,0.472,1.247,0.712l0.016-0.057v-2.095h0.704V80.72z M45.703,80.232
			c0.448,0,1.144-0.296,1.144-1.407c0-0.68-0.112-1.774-1.127-1.774c-1.087,0-1.144,1.031-1.144,1.566
			C44.576,79.537,44.936,80.232,45.703,80.232z"/>
	</g>
	<g>
		<path d="M0.863,104.356v0.399c0,0.688,0.328,0.936,0.864,0.936c0.72,0,0.919-0.432,0.919-0.991v-4.237h0.775v4.189
			c0,1.343-0.879,1.703-1.655,1.703c-1.335,0-1.631-0.896-1.631-1.432v-0.567H0.863z"/>
		<path d="M6.223,101.901c1.335,0,1.943,1.128,1.943,2.207s-0.607,2.207-1.943,2.207c-1.335,0-1.943-1.128-1.943-2.207
			S4.888,101.901,6.223,101.901z M6.223,105.708c1.008,0,1.215-1.04,1.215-1.6s-0.208-1.599-1.215-1.599
			c-1.007,0-1.215,1.039-1.215,1.599S5.215,105.708,6.223,105.708z"/>
		<path d="M12.438,105.859c0,0.6-0.008,2.103-1.943,2.103c-0.496,0-1.463-0.136-1.599-1.247H9.6
			c0.128,0.664,0.775,0.664,0.943,0.664c1.215,0,1.191-0.976,1.191-1.472v-0.176h-0.016v0.032c-0.184,0.296-0.551,0.56-1.111,0.56
			c-1.423,0-1.839-1.335-1.839-2.335c0-1.175,0.632-2.087,1.743-2.087c0.759,0,1.079,0.472,1.247,0.712h0.016v-0.592h0.664V105.859z
			 M10.623,105.715c0.448,0,1.144-0.296,1.144-1.407c0-0.68-0.112-1.775-1.127-1.775c-1.087,0-1.144,1.031-1.144,1.567
			C9.496,105.019,9.855,105.715,10.623,105.715z"/>
		<path d="M13.488,100.462h2.526c1.071,0,1.623,0.663,1.623,1.447c0,0.375-0.136,0.903-0.768,1.199
			c0.376,0.151,1.04,0.415,1.04,1.398c0,0.92-0.68,1.695-1.951,1.695h-2.471V100.462z M14.264,102.893h1.399
			c0.744,0,1.199-0.225,1.199-0.928c0-0.536-0.328-0.84-1.191-0.84h-1.407V102.893z M14.264,105.54h1.655
			c0.808,0,1.215-0.408,1.215-1.048c0-0.808-0.712-0.968-1.343-0.968h-1.527V105.54z"/>
		<path d="M18.728,103.292c0.032-0.999,0.696-1.392,1.727-1.392c0.336,0,1.551,0.097,1.551,1.168v2.406
			c0,0.176,0.088,0.248,0.232,0.248c0.064,0,0.152-0.016,0.232-0.032v0.512c-0.12,0.032-0.224,0.08-0.384,0.08
			c-0.624,0-0.72-0.319-0.744-0.64c-0.272,0.296-0.696,0.68-1.511,0.68c-0.768,0-1.311-0.487-1.311-1.207
			c0-0.353,0.104-1.168,1.271-1.312l1.16-0.144c0.167-0.017,0.368-0.08,0.368-0.496c0-0.439-0.32-0.68-0.983-0.68
			c-0.8,0-0.912,0.487-0.959,0.808H18.728z M21.303,104.068c-0.112,0.088-0.288,0.152-1.159,0.264
			c-0.344,0.048-0.896,0.152-0.896,0.68c0,0.456,0.231,0.728,0.759,0.728c0.656,0,1.295-0.424,1.295-0.983V104.068z"/>
		<path d="M25.815,103.428c-0.088-0.56-0.4-0.896-0.992-0.896c-0.871,0-1.151,0.832-1.151,1.575c0,0.72,0.176,1.607,1.144,1.607
			c0.472,0,0.879-0.352,1-0.991h0.68c-0.072,0.663-0.48,1.599-1.703,1.599c-1.175,0-1.871-0.888-1.871-2.095
			c0-1.295,0.624-2.327,2.007-2.327c1.096,0,1.511,0.8,1.567,1.527H25.815z"/>
		<path d="M30.687,106.203h-0.903l-1.304-2.11l-0.583,0.527v1.583h-0.68v-5.74h0.68v3.326l1.799-1.768h0.896l-1.599,1.56
			L30.687,106.203z"/>
		<path d="M32.728,106.203H32l-1.208-4.182h0.768l0.8,3.286h0.016l0.807-3.286h0.784l0.815,3.286h0.016l0.848-3.286h0.704
			l-1.215,4.182h-0.728l-0.848-3.238h-0.016L32.728,106.203z"/>
		<path d="M36.952,103.292c0.032-0.999,0.696-1.392,1.727-1.392c0.336,0,1.551,0.097,1.551,1.168v2.406
			c0,0.176,0.088,0.248,0.232,0.248c0.064,0,0.152-0.016,0.232-0.032v0.512c-0.12,0.032-0.224,0.08-0.384,0.08
			c-0.624,0-0.72-0.319-0.744-0.64c-0.272,0.296-0.696,0.68-1.511,0.68c-0.768,0-1.312-0.487-1.312-1.207
			c0-0.353,0.104-1.168,1.271-1.312l1.159-0.144c0.168-0.017,0.368-0.08,0.368-0.496c0-0.439-0.32-0.68-0.983-0.68
			c-0.8,0-0.912,0.487-0.959,0.808H36.952z M39.527,104.068c-0.112,0.088-0.288,0.152-1.159,0.264
			c-0.344,0.048-0.896,0.152-0.896,0.68c0,0.456,0.232,0.728,0.759,0.728c0.656,0,1.295-0.424,1.295-0.983V104.068z"/>
		<path d="M42.224,106.203H41.52v-4.182h0.664v0.695H42.2c0.28-0.487,0.647-0.815,1.175-0.815c0.088,0,0.128,0.009,0.184,0.024
			v0.728h-0.264c-0.656,0-1.071,0.512-1.071,1.119V106.203z"/>
		<path d="M47.558,106.203h-0.664v-0.575h-0.016c-0.304,0.567-0.784,0.695-1.191,0.695c-1.423,0-1.839-1.335-1.839-2.335
			c0-1.175,0.632-2.087,1.743-2.087c0.759,0,1.08,0.472,1.247,0.712l0.016-0.056v-2.095h0.704V106.203z M45.703,105.715
			c0.448,0,1.144-0.296,1.144-1.407c0-0.68-0.112-1.775-1.127-1.775c-1.087,0-1.144,1.031-1.144,1.567
			C44.576,105.019,44.936,105.715,45.703,105.715z"/>
	</g>
	<g>
		<path d="M82.782,4.91v0.4c0,0.688,0.328,0.936,0.864,0.936c0.72,0,0.919-0.432,0.919-0.992V1.017h0.775v4.189
			c0,1.343-0.879,1.703-1.655,1.703c-1.335,0-1.631-0.896-1.631-1.431V4.91H82.782z"/>
		<path d="M89.029,6.909c-2.143,0-2.798-1.783-2.798-3.022s0.655-3.022,2.798-3.022c2.143,0,2.798,1.783,2.798,3.022
			S91.172,6.909,89.029,6.909z M89.029,1.552c-1.248,0-1.999,0.983-1.999,2.334c0,1.352,0.751,2.335,1.999,2.335
			c1.247,0,1.999-0.983,1.999-2.335C91.028,2.536,90.276,1.552,89.029,1.552z"/>
		<path d="M95.253,3.687h2.519v3.07h-0.504l-0.184-0.744c-0.392,0.544-1.111,0.896-1.895,0.896c-0.983,0-1.463-0.36-1.759-0.647
			c-0.879-0.832-0.903-1.815-0.903-2.423c0-1.399,0.848-2.974,2.718-2.974c1.072,0,2.263,0.607,2.431,1.895h-0.751
			c-0.248-1-1.087-1.208-1.719-1.208c-1.032,0-1.879,0.824-1.879,2.327c0,1.167,0.384,2.367,1.911,2.367
			c0.288,0,0.751-0.032,1.175-0.368c0.504-0.4,0.632-0.912,0.632-1.527h-1.791V3.687z"/>
		<path d="M100.961,2.266c0.338,0.047,0.682,0.07,1.031,0.07h3.344V1.024c0-0.198-0.011-0.396-0.031-0.594
			c0.234,0.037,0.481,0.055,0.742,0.055c-0.058,0.188-0.086,0.398-0.086,0.633v1.219h0.805c0.349,0,0.692-0.023,1.031-0.07
			c-0.021,0.125-0.031,0.253-0.031,0.383c0,0.109,0.01,0.224,0.031,0.344c-0.339-0.047-0.683-0.07-1.031-0.07h-0.805v4.102
			c0,0.297-0.125,0.489-0.375,0.578c-0.245,0.094-0.602,0.141-1.07,0.141c-0.052-0.287-0.167-0.526-0.344-0.719h0.531
			c0.422,0,0.633-0.114,0.633-0.344V2.922h-3.344c-0.349,0-0.693,0.023-1.031,0.07c0.021-0.12,0.031-0.234,0.031-0.344
			C100.992,2.519,100.981,2.391,100.961,2.266z M102.797,3.579c0.057,0.099,0.153,0.24,0.289,0.422
			c0.239,0.308,0.438,0.583,0.594,0.828c0.104,0.167,0.208,0.326,0.312,0.477c-0.162,0.047-0.38,0.162-0.656,0.344
			c-0.073-0.213-0.211-0.484-0.414-0.812c-0.229-0.359-0.466-0.664-0.711-0.914C102.445,3.829,102.641,3.714,102.797,3.579z"/>
		<path d="M109.023,2.961c0.297,0.042,0.599,0.062,0.906,0.062h1.555c0.307,0,0.609-0.021,0.906-0.062
			c-0.016,0.109-0.023,0.224-0.023,0.344c0,0.099,0.008,0.201,0.023,0.305c-0.297-0.042-0.599-0.062-0.906-0.062h-0.398
			l-1.156,2.375c0.604-0.125,1.203-0.219,1.797-0.281c-0.151-0.312-0.302-0.573-0.453-0.781c0.188-0.073,0.341-0.167,0.461-0.281
			c0.042,0.099,0.114,0.237,0.219,0.414c0.172,0.302,0.315,0.573,0.43,0.812c0.078,0.167,0.156,0.32,0.234,0.461
			c-0.13,0.042-0.31,0.136-0.539,0.281c-0.026-0.109-0.065-0.231-0.117-0.367c-1.188,0.026-2.073,0.183-2.656,0.469
			c-0.109-0.266-0.214-0.484-0.312-0.656c0.266-0.192,0.453-0.375,0.562-0.547c0.13-0.177,0.417-0.81,0.859-1.898h-0.484
			c-0.308,0-0.609,0.021-0.906,0.062c0.016-0.104,0.023-0.206,0.023-0.305C109.047,3.186,109.039,3.071,109.023,2.961z
			 M109.391,1.235c0.13,0.021,0.255,0.031,0.375,0.031h2.164c0.12,0,0.245-0.01,0.375-0.031c-0.021,0.099-0.031,0.193-0.031,0.281
			c0,0.109,0.01,0.214,0.031,0.312c-0.13-0.021-0.255-0.031-0.375-0.031h-2.164c-0.12,0-0.245,0.011-0.375,0.031
			c0.021-0.099,0.031-0.203,0.031-0.312C109.422,1.428,109.411,1.334,109.391,1.235z M112.141,2.235
			c0.276,0.047,0.549,0.07,0.82,0.07h0.523V1.711c0-0.406-0.031-0.833-0.094-1.281c0.234,0.016,0.484,0.023,0.75,0.023
			c-0.078,0.245-0.117,0.555-0.117,0.93v0.922h1.219c0.25,0,0.5-0.013,0.75-0.039c-0.094,0.24-0.148,0.492-0.164,0.758l-0.18,3.836
			c-0.021,0.302-0.203,0.502-0.547,0.602c-0.386,0.109-0.716,0.172-0.992,0.188c0-0.25-0.083-0.458-0.25-0.625h0.445
			c0.312,0,0.531-0.057,0.656-0.172c0.078-0.083,0.117-0.174,0.117-0.273l0.195-3.75h-1.258c-0.037,1.312-0.167,2.269-0.391,2.867
			c-0.25,0.818-0.849,1.5-1.797,2.047c-0.125-0.214-0.31-0.394-0.555-0.539c0.87-0.354,1.43-0.817,1.68-1.391
			c0.338-0.713,0.516-1.708,0.531-2.984h-0.523c-0.271,0-0.544,0.021-0.82,0.062c0.021-0.109,0.031-0.224,0.031-0.344
			C112.172,2.449,112.161,2.344,112.141,2.235z"/>
		<path d="M116.766,2.993c0.401,0.021,0.799,0.031,1.195,0.031c0.167,0,0.331-0.01,0.492-0.031
			c-0.021,0.219-0.031,0.438-0.031,0.656v2.672c0.036,0.016,0.078,0.034,0.125,0.055c0.797,0.433,1.841,0.648,3.133,0.648
			c0.448,0,1.208-0.055,2.281-0.164c-0.125,0.182-0.211,0.422-0.258,0.719h-1.805c-1.433,0-2.552-0.229-3.359-0.688
			c-0.183-0.099-0.315-0.148-0.398-0.148c-0.193,0-0.503,0.289-0.93,0.867c-0.146-0.183-0.323-0.328-0.531-0.438l0.828-0.688
			c0.13-0.104,0.247-0.177,0.352-0.219V3.547c-0.359,0-0.724,0.011-1.094,0.031c0.021-0.099,0.031-0.203,0.031-0.312
			C116.797,3.172,116.786,3.082,116.766,2.993z M117.93,0.43c0.208,0.594,0.477,1.115,0.805,1.562
			c-0.214,0.026-0.443,0.107-0.688,0.242c-0.229-0.651-0.477-1.169-0.742-1.555C117.513,0.633,117.721,0.55,117.93,0.43z
			 M118.859,2.61c0.307,0.047,0.609,0.07,0.906,0.07h3.133c0.302,0,0.602-0.023,0.898-0.07c-0.021,0.115-0.031,0.232-0.031,0.352
			c0,0.104,0.01,0.206,0.031,0.305c-0.297-0.042-0.597-0.062-0.898-0.062h-1.516l-1.242,2.312c0.766-0.13,1.526-0.227,2.281-0.289
			c-0.25-0.442-0.508-0.812-0.773-1.109c0.224-0.088,0.411-0.195,0.562-0.32c0.062,0.13,0.172,0.31,0.328,0.539
			c0.266,0.396,0.484,0.755,0.656,1.078c0.125,0.214,0.245,0.417,0.359,0.609c-0.151,0.042-0.359,0.146-0.625,0.312
			c-0.052-0.172-0.133-0.37-0.242-0.594c-1.417,0.026-2.474,0.18-3.172,0.461c-0.099-0.26-0.201-0.479-0.305-0.656
			c0.286-0.182,0.484-0.356,0.594-0.523c0.141-0.167,0.445-0.773,0.914-1.82h-0.953c-0.297,0-0.599,0.021-0.906,0.062
			c0.026-0.099,0.039-0.2,0.039-0.305C118.898,2.842,118.885,2.725,118.859,2.61z M119.516,0.774
			c0.297,0.037,0.588,0.055,0.875,0.055h2c0.292,0,0.586-0.018,0.883-0.055c-0.021,0.099-0.031,0.203-0.031,0.312
			c0,0.099,0.01,0.203,0.031,0.312c-0.297-0.042-0.591-0.062-0.883-0.062h-2c-0.287,0-0.578,0.021-0.875,0.062
			c0.026-0.109,0.039-0.213,0.039-0.312C119.555,0.977,119.542,0.873,119.516,0.774z"/>
		<path d="M124.734,1.547c0.12,0.021,0.234,0.031,0.344,0.031h0.727c0.083-0.344,0.164-0.727,0.242-1.148
			c0.219,0.052,0.469,0.091,0.75,0.117c-0.146,0.151-0.273,0.425-0.383,0.82c-0.021,0.073-0.039,0.144-0.055,0.211h1.031
			c0.12,0,0.234-0.01,0.344-0.031c-0.021,0.089-0.031,0.172-0.031,0.25c0,0.094,0.01,0.19,0.031,0.289
			c-0.109-0.021-0.224-0.031-0.344-0.031h-1.164c-0.219,0.755-0.443,1.357-0.672,1.805h0.781V3.399c0-0.292-0.021-0.586-0.062-0.883
			c0.188,0.021,0.417,0.031,0.688,0.031c-0.068,0.146-0.102,0.326-0.102,0.539V3.86h0.039c0.234,0,0.495-0.01,0.781-0.031
			c-0.021,0.099-0.031,0.195-0.031,0.289c0,0.078,0.01,0.172,0.031,0.281c-0.287-0.021-0.547-0.031-0.781-0.031h-0.039v1.141
			c0.37-0.042,0.727-0.088,1.07-0.141v0.523c-0.396,0.047-0.753,0.089-1.07,0.125v0.633c0,0.339,0.023,0.682,0.07,1.031
			c-0.12-0.021-0.234-0.031-0.344-0.031s-0.214,0.01-0.312,0.031c0.042-0.349,0.062-0.692,0.062-1.031v-0.57
			c-0.693,0.083-1.172,0.159-1.438,0.227c-0.011-0.172-0.065-0.37-0.164-0.594c0.562-0.036,1.096-0.083,1.602-0.141V4.368h-0.883
			c-0.188,0-0.396,0.011-0.625,0.031c-0.031-0.161-0.062-0.307-0.094-0.438c0.135-0.104,0.263-0.25,0.383-0.438
			c0.114-0.172,0.237-0.44,0.367-0.805c0.067-0.188,0.135-0.409,0.203-0.664h-0.609c-0.109,0-0.224,0.011-0.344,0.031
			c0.021-0.099,0.031-0.195,0.031-0.289C124.766,1.719,124.755,1.636,124.734,1.547z M127.961,1.547
			c0.271,0.042,0.539,0.062,0.805,0.062h0.281c0.073-0.484,0.127-0.877,0.164-1.18c0.161,0.047,0.391,0.086,0.688,0.117
			c-0.109,0.255-0.208,0.609-0.297,1.062h1.047c0.266,0,0.534-0.021,0.805-0.062c-0.021,0.109-0.031,0.214-0.031,0.312
			c0,0.099,0.01,0.193,0.031,0.281c-0.271-0.036-0.539-0.055-0.805-0.055h-1.133c-0.068,0.391-0.136,0.753-0.203,1.086h1.734
			c0.271,0,0.542-0.018,0.812-0.055c-0.021,0.099-0.031,0.203-0.031,0.312c0,0.089,0.01,0.183,0.031,0.281
			c-0.271-0.042-0.542-0.062-0.812-0.062h-1.828c-0.078,0.333-0.154,0.644-0.227,0.93h1.969c0.219,0,0.438-0.021,0.656-0.062
			c-0.021,0.109-0.031,0.214-0.031,0.312c0,0.13,0.01,0.255,0.031,0.375c-0.229,0.083-0.761,0.586-1.594,1.508
			c0.442,0.203,0.849,0.377,1.219,0.523c-0.198,0.156-0.357,0.336-0.477,0.539c-0.261-0.214-0.633-0.445-1.117-0.695
			c-0.427-0.208-0.951-0.424-1.57-0.648c0.219-0.141,0.377-0.276,0.477-0.406c0.396,0.198,0.773,0.375,1.133,0.531l1.172-1.5h-0.844
			c-0.604,0-1.125,0.06-1.562,0.18c-0.021-0.255-0.081-0.474-0.18-0.656c0.12-0.062,0.195-0.125,0.227-0.188
			c0.042-0.088,0.102-0.336,0.18-0.742h-0.195c-0.271,0-0.539,0.021-0.805,0.062c0.016-0.099,0.023-0.192,0.023-0.281
			c0-0.109-0.008-0.213-0.023-0.312c0.266,0.037,0.534,0.055,0.805,0.055h0.281c0.005-0.01,0.008-0.018,0.008-0.023
			c0.073-0.391,0.138-0.745,0.195-1.062h-0.203c-0.266,0-0.534,0.019-0.805,0.055c0.021-0.088,0.031-0.182,0.031-0.281
			C127.992,1.761,127.981,1.657,127.961,1.547z"/>
	</g>
	<g>
		<path d="M274.077,4.91v0.4c0,0.688,0.328,0.936,0.863,0.936c0.72,0,0.92-0.432,0.92-0.992V1.017h0.775v4.189
			c0,1.343-0.88,1.703-1.655,1.703c-1.335,0-1.631-0.896-1.631-1.431V4.91H274.077z"/>
		<path d="M280.324,6.909c-2.144,0-2.799-1.783-2.799-3.022s0.655-3.022,2.799-3.022c2.143,0,2.798,1.783,2.798,3.022
			S282.466,6.909,280.324,6.909z M280.324,1.552c-1.248,0-1.999,0.983-1.999,2.334c0,1.352,0.751,2.335,1.999,2.335
			c1.247,0,1.999-0.983,1.999-2.335C282.323,2.536,281.571,1.552,280.324,1.552z"/>
		<path d="M286.547,3.687h2.519v3.07h-0.504l-0.184-0.744c-0.392,0.544-1.111,0.896-1.895,0.896c-0.983,0-1.464-0.36-1.76-0.647
			c-0.879-0.832-0.903-1.815-0.903-2.423c0-1.399,0.848-2.974,2.719-2.974c1.071,0,2.263,0.607,2.431,1.895h-0.752
			c-0.247-1-1.087-1.208-1.719-1.208c-1.031,0-1.879,0.824-1.879,2.327c0,1.167,0.384,2.367,1.911,2.367
			c0.288,0,0.751-0.032,1.175-0.368c0.504-0.4,0.632-0.912,0.632-1.527h-1.791V3.687z"/>
		<path d="M292.06,2.993c0.4,0.021,0.799,0.031,1.195,0.031c0.166,0,0.33-0.01,0.492-0.031c-0.021,0.219-0.031,0.438-0.031,0.656
			v2.672c0.036,0.016,0.078,0.034,0.125,0.055c0.797,0.433,1.841,0.648,3.133,0.648c0.447,0,1.208-0.055,2.281-0.164
			c-0.125,0.182-0.211,0.422-0.258,0.719h-1.805c-1.433,0-2.553-0.229-3.359-0.688c-0.183-0.099-0.315-0.148-0.398-0.148
			c-0.193,0-0.503,0.289-0.93,0.867c-0.146-0.183-0.323-0.328-0.531-0.438l0.828-0.688c0.13-0.104,0.247-0.177,0.352-0.219V3.547
			c-0.359,0-0.725,0.011-1.094,0.031c0.021-0.099,0.031-0.203,0.031-0.312C292.091,3.172,292.081,3.082,292.06,2.993z M293.224,0.43
			c0.208,0.594,0.477,1.115,0.805,1.562c-0.214,0.026-0.443,0.107-0.688,0.242c-0.229-0.651-0.477-1.169-0.742-1.555
			C292.807,0.633,293.015,0.55,293.224,0.43z M294.154,2.61c0.307,0.047,0.609,0.07,0.906,0.07h3.133
			c0.302,0,0.602-0.023,0.898-0.07c-0.021,0.115-0.031,0.232-0.031,0.352c0,0.104,0.01,0.206,0.031,0.305
			c-0.297-0.042-0.597-0.062-0.898-0.062h-1.516l-1.242,2.312c0.766-0.13,1.525-0.227,2.281-0.289
			c-0.25-0.442-0.508-0.812-0.773-1.109c0.224-0.088,0.411-0.195,0.562-0.32c0.062,0.13,0.172,0.31,0.328,0.539
			c0.266,0.396,0.484,0.755,0.656,1.078c0.125,0.214,0.244,0.417,0.359,0.609c-0.151,0.042-0.359,0.146-0.625,0.312
			c-0.053-0.172-0.133-0.37-0.242-0.594c-1.417,0.026-2.475,0.18-3.172,0.461c-0.1-0.26-0.201-0.479-0.305-0.656
			c0.286-0.182,0.484-0.356,0.594-0.523c0.141-0.167,0.445-0.773,0.914-1.82h-0.953c-0.297,0-0.6,0.021-0.906,0.062
			c0.025-0.099,0.039-0.2,0.039-0.305C294.193,2.842,294.179,2.725,294.154,2.61z M294.81,0.774
			c0.297,0.037,0.588,0.055,0.875,0.055h2c0.291,0,0.586-0.018,0.883-0.055c-0.021,0.099-0.031,0.203-0.031,0.312
			c0,0.099,0.01,0.203,0.031,0.312c-0.297-0.042-0.592-0.062-0.883-0.062h-2c-0.287,0-0.578,0.021-0.875,0.062
			c0.025-0.109,0.039-0.213,0.039-0.312C294.849,0.977,294.835,0.873,294.81,0.774z"/>
		<path d="M300.029,1.547c0.119,0.021,0.234,0.031,0.344,0.031h0.727c0.083-0.344,0.164-0.727,0.242-1.148
			c0.219,0.052,0.469,0.091,0.75,0.117c-0.146,0.151-0.273,0.425-0.383,0.82c-0.021,0.073-0.039,0.144-0.055,0.211h1.031
			c0.119,0,0.234-0.01,0.344-0.031c-0.021,0.089-0.031,0.172-0.031,0.25c0,0.094,0.01,0.19,0.031,0.289
			c-0.109-0.021-0.225-0.031-0.344-0.031h-1.164c-0.219,0.755-0.443,1.357-0.672,1.805h0.781V3.399c0-0.292-0.021-0.586-0.062-0.883
			c0.188,0.021,0.416,0.031,0.688,0.031c-0.068,0.146-0.102,0.326-0.102,0.539V3.86h0.039c0.234,0,0.494-0.01,0.781-0.031
			c-0.021,0.099-0.031,0.195-0.031,0.289c0,0.078,0.01,0.172,0.031,0.281c-0.287-0.021-0.547-0.031-0.781-0.031h-0.039v1.141
			c0.369-0.042,0.727-0.088,1.07-0.141v0.523c-0.396,0.047-0.753,0.089-1.07,0.125v0.633c0,0.339,0.023,0.682,0.07,1.031
			c-0.12-0.021-0.234-0.031-0.344-0.031s-0.214,0.01-0.312,0.031c0.041-0.349,0.062-0.692,0.062-1.031v-0.57
			c-0.693,0.083-1.172,0.159-1.438,0.227c-0.011-0.172-0.065-0.37-0.164-0.594c0.562-0.036,1.096-0.083,1.602-0.141V4.368h-0.883
			c-0.188,0-0.396,0.011-0.625,0.031c-0.031-0.161-0.062-0.307-0.094-0.438c0.135-0.104,0.263-0.25,0.383-0.438
			c0.114-0.172,0.236-0.44,0.367-0.805c0.067-0.188,0.135-0.409,0.203-0.664h-0.609c-0.109,0-0.225,0.011-0.344,0.031
			c0.021-0.099,0.031-0.195,0.031-0.289C300.06,1.719,300.049,1.636,300.029,1.547z M303.255,1.547
			c0.271,0.042,0.539,0.062,0.805,0.062h0.281c0.072-0.484,0.127-0.877,0.164-1.18c0.161,0.047,0.391,0.086,0.688,0.117
			c-0.109,0.255-0.209,0.609-0.297,1.062h1.047c0.266,0,0.533-0.021,0.805-0.062c-0.021,0.109-0.031,0.214-0.031,0.312
			c0,0.099,0.01,0.193,0.031,0.281c-0.271-0.036-0.539-0.055-0.805-0.055h-1.133c-0.068,0.391-0.136,0.753-0.203,1.086h1.734
			c0.271,0,0.541-0.018,0.812-0.055c-0.021,0.099-0.031,0.203-0.031,0.312c0,0.089,0.01,0.183,0.031,0.281
			c-0.271-0.042-0.542-0.062-0.812-0.062h-1.828c-0.078,0.333-0.154,0.644-0.227,0.93h1.969c0.219,0,0.438-0.021,0.656-0.062
			c-0.021,0.109-0.031,0.214-0.031,0.312c0,0.13,0.01,0.255,0.031,0.375c-0.229,0.083-0.761,0.586-1.594,1.508
			c0.442,0.203,0.849,0.377,1.219,0.523c-0.198,0.156-0.357,0.336-0.477,0.539c-0.261-0.214-0.633-0.445-1.117-0.695
			c-0.428-0.208-0.951-0.424-1.57-0.648c0.219-0.141,0.377-0.276,0.477-0.406c0.396,0.198,0.773,0.375,1.133,0.531l1.172-1.5h-0.844
			c-0.604,0-1.125,0.06-1.562,0.18c-0.021-0.255-0.081-0.474-0.18-0.656c0.119-0.062,0.195-0.125,0.227-0.188
			c0.041-0.088,0.102-0.336,0.18-0.742h-0.195c-0.271,0-0.539,0.021-0.805,0.062c0.016-0.099,0.023-0.192,0.023-0.281
			c0-0.109-0.008-0.213-0.023-0.312c0.266,0.037,0.533,0.055,0.805,0.055h0.281c0.005-0.01,0.008-0.018,0.008-0.023
			c0.072-0.391,0.138-0.745,0.195-1.062h-0.203c-0.266,0-0.534,0.019-0.805,0.055c0.021-0.088,0.031-0.182,0.031-0.281
			C303.287,1.761,303.276,1.657,303.255,1.547z"/>
	</g>
	<g>
	</g>
	<g>
	</g>
	<g>
	</g>
	<g>
	</g>
	<g>
	</g>
	<g>
	</g>
	<g>
	</g>
	<g>
	</g>
	<g>
	</g>
	<g>
	</g>
	<g>
	</g>
	<g>
	</g>
	<g>
	</g>
	<g>
	</g>
	<g>
	</g>
	<g>
	</g>
</g>
</svg>
