<?xml version="1.0" encoding="utf-8"?>
<!-- Generator: Adobe Illustrator 28.2.0, SVG Export Plug-In . SVG Version: 6.00 Build 0)  -->
<svg version="1.1" xmlns="http://www.w3.org/2000/svg" xmlns:xlink="http://www.w3.org/1999/xlink" x="0px" y="0px"
	 width="566.235px" height="502.636px" viewBox="0 0 566.235 502.636" style="enable-background:new 0 0 566.235 502.636;"
	 xml:space="preserve">
<style type="text/css">
	.st0{fill:none;stroke:#000000;stroke-miterlimit:10;}
	.st1{fill:none;stroke:#666666;stroke-width:0.5;stroke-miterlimit:10;stroke-dasharray:1;}
	.st2{display:none;}
	.st3{display:inline;}
	.st4{display:inline;fill:#3574F2;}
</style>
<g id="レイヤー_1">
	<polyline class="st0" points="566.235,102.266 456.46,102.265 433.022,136.282 412.707,136.282 392.441,102.266 370.639,102.266 
		349.724,136.282 327.918,136.282 305.136,102.266 244.313,102.266 221.855,136.282 201.359,136.282 178.999,102.266 
		135.993,102.266 	"/>
	<line class="st1" x1="158.67" y1="11.689" x2="158.67" y2="502.636"/>
	<line class="st1" x1="178.999" y1="11.689" x2="178.999" y2="502.635"/>
	<line class="st1" x1="189.799" y1="11.688" x2="189.799" y2="119.273"/>
	<line class="st1" x1="232.406" y1="11.688" x2="232.406" y2="119.273"/>
	<line class="st1" x1="275.552" y1="11.688" x2="275.552" y2="102.266"/>
	<line class="st1" x1="316.769" y1="11.688" x2="316.769" y2="119.273"/>
	<line class="st1" x1="359.404" y1="11.688" x2="359.404" y2="119.273"/>
	<line class="st1" x1="402.418" y1="11.688" x2="402.418" y2="119.273"/>
	<line class="st1" x1="476.347" y1="11.69" x2="476.347" y2="502.633"/>
	<line class="st1" x1="497.381" y1="11.69" x2="497.381" y2="502.632"/>
	<line class="st1" x1="540.527" y1="11.69" x2="540.527" y2="502.635"/>
	<line class="st1" x1="433.023" y1="11.69" x2="433.023" y2="502.634"/>
	<polyline class="st0" points="566.235,192.498 476.347,192.498 476.347,158.482 158.505,158.482 158.505,192.498 138.01,192.498 	
		"/>
	<line class="st0" x1="540.527" y1="60.928" x2="160.622" y2="60.928"/>
	<polyline class="st0" points="566.235,237.772 433.022,237.772 433.022,203.756 158.505,203.756 158.505,237.772 138.01,237.772 	
		"/>
	<polyline class="st0" points="566.235,283.206 433.022,283.206 433.022,249.191 179.538,249.191 179.538,283.206 138.01,283.206 	
		"/>
	<polyline class="st0" points="566.235,328.561 476.347,328.561 476.347,294.545 433.022,294.545 433.022,328.561 138.01,328.561 	
		"/>
	<polyline class="st0" points="566.235,398.48 540.527,398.48 540.527,364.465 433.022,364.465 433.022,398.48 135.993,398.48 	"/>
	<polyline class="st0" points="566.235,490.505 540.527,490.505 540.527,456.489 497.381,456.489 497.381,490.505 135.993,490.505 	
		"/>
	<polyline class="st0" points="566.235,444.392 497.381,444.392 497.381,410.376 433.022,410.376 433.022,444.392 135.993,444.392 	
		"/>
	<polyline class="st0" points="566.235,136.282 456.46,136.281 433.022,102.264 412.707,102.265 391.846,136.282 370.1,136.282 
		350.138,102.265 327.918,102.266 305.136,136.282 244.313,136.282 221.855,102.266 201.359,102.266 178.999,136.282 
		135.993,136.282 	"/>
	<polyline class="st0" points="190.325,60.927 232.932,39.895 276.078,77.108 316.527,77.108 358.595,67.4 402.418,36.699 
		433.022,16.704 	"/>
</g>
<g id="レイヤー_2">
	<g class="st2">
		<path class="st3" d="M217.091,406.775h-4.238v-5.74h4.182v0.688h-3.406v1.759h3.142v0.688h-3.142v1.919h3.462V406.775z"/>
		<path class="st3" d="M221.42,406.775h-0.896l-1.04-1.575l-1.007,1.575h-0.888l1.471-2.15l-1.399-2.031h0.903l0.967,1.472
			l0.968-1.472h0.863l-1.415,2.031L221.42,406.775z"/>
		<path class="st3" d="M225.572,405.463c-0.024,0.2-0.216,0.792-0.744,1.144c-0.192,0.128-0.464,0.288-1.135,0.288
			c-1.175,0-1.871-0.888-1.871-2.095c0-1.295,0.624-2.327,2.007-2.327c1.208,0,1.799,0.96,1.799,2.439h-3.055
			c0,0.871,0.408,1.375,1.215,1.375c0.664,0,1.056-0.512,1.08-0.824H225.572z M224.9,404.352c-0.04-0.647-0.312-1.247-1.167-1.247
			c-0.648,0-1.16,0.6-1.16,1.247H224.9z"/>
		<path class="st3" d="M229.084,404c-0.088-0.56-0.4-0.896-0.992-0.896c-0.871,0-1.151,0.832-1.151,1.575
			c0,0.72,0.176,1.607,1.144,1.607c0.472,0,0.879-0.352,1-0.991h0.68c-0.072,0.663-0.48,1.599-1.703,1.599
			c-1.175,0-1.871-0.888-1.871-2.095c0-1.295,0.624-2.327,2.007-2.327c1.096,0,1.511,0.8,1.567,1.527H229.084z"/>
		<path class="st3" d="M233.196,406.775v-0.607l-0.016-0.016c-0.296,0.487-0.655,0.743-1.327,0.743
			c-0.616,0-1.359-0.296-1.359-1.295v-3.007h0.703v2.774c0,0.688,0.353,0.92,0.808,0.92c0.888,0,1.151-0.784,1.151-1.392v-2.303
			h0.704v4.182H233.196z"/>
		<path class="st3" d="M235.782,403.177v2.719c0,0.327,0.279,0.327,0.424,0.327h0.247v0.552c-0.256,0.024-0.455,0.057-0.527,0.057
			c-0.695,0-0.848-0.393-0.848-0.896v-2.759h-0.567v-0.584h0.567v-1.167h0.704v1.167h0.671v0.584H235.782z"/>
		<path class="st3" d="M240.692,405.463c-0.023,0.2-0.216,0.792-0.743,1.144c-0.192,0.128-0.464,0.288-1.136,0.288
			c-1.175,0-1.871-0.888-1.871-2.095c0-1.295,0.624-2.327,2.007-2.327c1.208,0,1.799,0.96,1.799,2.439h-3.054
			c0,0.871,0.407,1.375,1.215,1.375c0.664,0,1.056-0.512,1.08-0.824H240.692z M240.021,404.352c-0.04-0.647-0.312-1.247-1.167-1.247
			c-0.647,0-1.159,0.6-1.159,1.247H240.021z"/>
	</g>
	<g class="st2">
		<path class="st3" d="M212.758,429.38h2.526c1.071,0,1.623,0.664,1.623,1.447c0,0.376-0.136,0.903-0.768,1.199
			c0.376,0.152,1.04,0.416,1.04,1.399c0,0.92-0.68,1.695-1.951,1.695h-2.471V429.38z M213.533,431.811h1.399
			c0.744,0,1.199-0.224,1.199-0.928c0-0.535-0.328-0.839-1.191-0.839h-1.407V431.811z M213.533,434.458h1.655
			c0.808,0,1.215-0.407,1.215-1.047c0-0.808-0.712-0.968-1.343-0.968h-1.527V434.458z"/>
		<path class="st3" d="M220.748,435.122v-0.607l-0.016-0.017c-0.296,0.488-0.656,0.744-1.328,0.744
			c-0.616,0-1.359-0.296-1.359-1.296v-3.006h0.703v2.774c0,0.688,0.352,0.919,0.808,0.919c0.888,0,1.151-0.783,1.151-1.391v-2.303
			h0.704v4.182H220.748z"/>
		<path class="st3" d="M224.845,432.131c-0.008-0.265-0.104-0.704-0.992-0.704c-0.216,0-0.832,0.072-0.832,0.592
			c0,0.344,0.216,0.424,0.76,0.56l0.704,0.176c0.872,0.216,1.175,0.536,1.175,1.104c0,0.863-0.711,1.384-1.655,1.384
			c-1.655,0-1.775-0.96-1.799-1.464h0.68c0.024,0.328,0.12,0.855,1.111,0.855c0.504,0,0.959-0.199,0.959-0.663
			c0-0.336-0.232-0.448-0.832-0.6l-0.815-0.2c-0.584-0.144-0.968-0.439-0.968-1.016c0-0.919,0.76-1.335,1.583-1.335
			c1.495,0,1.599,1.104,1.599,1.312H224.845z"/>
		<path class="st3" d="M229.084,430.94h0.775c-0.488,1.367-0.967,2.734-1.503,4.102c-0.664,1.695-0.736,1.791-1.639,1.791
			c-0.104,0-0.184-0.032-0.296-0.064v-0.64c0.088,0.032,0.232,0.072,0.424,0.072c0.368,0,0.408-0.104,0.744-0.968l-1.551-4.293h0.8
			l1.111,3.406h0.016L229.084,430.94z"/>
	</g>
	<g class="st2">
		<path class="st3" d="M212.813,457.728h2.327c1.495,0,2.415,1.135,2.415,2.79c0,1.287-0.56,2.95-2.447,2.95h-2.295V457.728z
			 M213.589,462.805h1.503c1.007,0,1.663-0.792,1.663-2.239s-0.664-2.175-1.719-2.175h-1.447V462.805z"/>
		<path class="st3" d="M220.165,459.167c1.335,0,1.943,1.128,1.943,2.207s-0.607,2.207-1.943,2.207
			c-1.335,0-1.943-1.128-1.943-2.207S218.83,459.167,220.165,459.167z M220.165,462.973c1.007,0,1.215-1.04,1.215-1.6
			s-0.208-1.599-1.215-1.599s-1.215,1.039-1.215,1.599S219.157,462.973,220.165,462.973z"/>
		<path class="st3" d="M226.315,463.468h-0.704v-2.574c0-0.728-0.208-1.096-0.896-1.096c-0.4,0-1.104,0.256-1.104,1.392v2.278
			h-0.704v-4.182h0.664v0.592h0.016c0.152-0.224,0.544-0.712,1.264-0.712c0.647,0,1.463,0.265,1.463,1.455V463.468z"/>
		<path class="st3" d="M230.908,462.157c-0.024,0.2-0.216,0.792-0.744,1.144c-0.192,0.128-0.464,0.288-1.135,0.288
			c-1.175,0-1.871-0.888-1.871-2.095c0-1.295,0.624-2.327,2.007-2.327c1.208,0,1.799,0.96,1.799,2.439h-3.055
			c0,0.871,0.408,1.375,1.215,1.375c0.664,0,1.056-0.512,1.08-0.824H230.908z M230.236,461.045c-0.04-0.647-0.312-1.247-1.167-1.247
			c-0.648,0-1.16,0.6-1.16,1.247H230.236z"/>
	</g>
	<g class="st2">
		<path class="st3" d="M217.092,491.814h-4.238v-5.74h4.182v0.688h-3.406v1.759h3.142v0.688h-3.142v1.919h3.462V491.814z"/>
		<path class="st3" d="M218.822,491.814h-0.704v-4.182h0.664v0.695h0.016c0.28-0.487,0.647-0.815,1.175-0.815
			c0.088,0,0.128,0.009,0.184,0.024v0.728h-0.264c-0.656,0-1.071,0.512-1.071,1.119V491.814z"/>
		<path class="st3" d="M221.486,491.814h-0.704v-4.182h0.664v0.695h0.016c0.28-0.487,0.647-0.815,1.175-0.815
			c0.088,0,0.128,0.009,0.184,0.024v0.728h-0.264c-0.656,0-1.071,0.512-1.071,1.119V491.814z"/>
		<path class="st3" d="M225.053,487.512c1.335,0,1.943,1.128,1.943,2.207s-0.607,2.207-1.943,2.207
			c-1.335,0-1.943-1.128-1.943-2.207S223.718,487.512,225.053,487.512z M225.053,491.319c1.008,0,1.215-1.04,1.215-1.6
			s-0.208-1.599-1.215-1.599c-1.007,0-1.215,1.039-1.215,1.599S224.046,491.319,225.053,491.319z"/>
		<path class="st3" d="M228.598,491.814h-0.704v-4.182h0.664v0.695h0.016c0.28-0.487,0.647-0.815,1.175-0.815
			c0.088,0,0.128,0.009,0.184,0.024v0.728h-0.264c-0.656,0-1.071,0.512-1.071,1.119V491.814z"/>
	</g>
	<g class="st2">
		<path class="st3" d="M217.092,520.162h-4.238v-5.741h4.182v0.688h-3.406v1.76h3.142v0.688h-3.142v1.919h3.462V520.162z"/>
		<path class="st3" d="M218.822,520.162h-0.704v-4.182h0.664v0.695h0.016c0.28-0.487,0.647-0.815,1.175-0.815
			c0.088,0,0.128,0.008,0.184,0.023v0.729h-0.264c-0.656,0-1.071,0.512-1.071,1.119V520.162z"/>
		<path class="st3" d="M221.486,520.162h-0.704v-4.182h0.664v0.695h0.016c0.28-0.487,0.647-0.815,1.175-0.815
			c0.088,0,0.128,0.008,0.184,0.023v0.729h-0.264c-0.656,0-1.071,0.512-1.071,1.119V520.162z"/>
		<path class="st3" d="M225.053,515.86c1.335,0,1.943,1.127,1.943,2.207c0,1.079-0.607,2.206-1.943,2.206
			c-1.335,0-1.943-1.127-1.943-2.206C223.11,516.987,223.718,515.86,225.053,515.86z M225.053,519.666
			c1.008,0,1.215-1.039,1.215-1.599s-0.208-1.6-1.215-1.6c-1.007,0-1.215,1.04-1.215,1.6S224.046,519.666,225.053,519.666z"/>
		<path class="st3" d="M228.598,520.162h-0.704v-4.182h0.664v0.695h0.016c0.28-0.487,0.647-0.815,1.175-0.815
			c0.088,0,0.128,0.008,0.184,0.023v0.729h-0.264c-0.656,0-1.071,0.512-1.071,1.119V520.162z"/>
		<path class="st3" d="M231.445,520.162h-0.775v-5.741h0.775V520.162z"/>
		<path class="st3" d="M232.814,514.42h2.326c1.496,0,2.415,1.136,2.415,2.791c0,1.287-0.56,2.95-2.446,2.95h-2.295V514.42z
			 M233.59,519.498h1.503c1.008,0,1.663-0.791,1.663-2.238s-0.663-2.175-1.719-2.175h-1.447V519.498z"/>
	</g>
	<g class="st2">
		<path class="st3" d="M281.317,520.313c-1.614,0-1.927-1.72-1.927-2.887s0.312-2.887,1.927-2.887c1.615,0,1.928,1.72,1.928,2.887
			S282.933,520.313,281.317,520.313z M281.317,515.171c-0.808,0-1.175,0.848-1.175,2.255s0.367,2.255,1.175,2.255
			s1.176-0.848,1.176-2.255S282.125,515.171,281.317,515.171z"/>
	</g>
	<g class="st2">
		<path class="st4" d="M263.991,372.568c-0.68,1.279-1.088,2.047-1.088,3.966c0,1.319,0.456,2.295,1.096,3.551h-0.472
			c-0.832-1.248-1.375-2.247-1.375-3.742c0-1.407,0.487-2.543,1.351-3.774H263.991z"/>
		<path class="st4" d="M267.143,378.429h-0.752v-3.99h-1.311v-0.56c0.911-0.063,1.287-0.152,1.511-1.071h0.552V378.429z"/>
		<path class="st4" d="M269,380.084c0.68-1.279,1.088-2.047,1.088-3.966c0-1.319-0.456-2.295-1.096-3.551h0.472
			c0.832,1.248,1.375,2.247,1.375,3.742c0,1.407-0.487,2.543-1.351,3.774H269z"/>
	</g>
	<g class="st2">
		<path class="st4" d="M326.983,372.568c-0.68,1.279-1.088,2.047-1.088,3.966c0,1.319,0.456,2.295,1.096,3.551h-0.472
			c-0.832-1.248-1.375-2.247-1.375-3.742c0-1.407,0.487-2.543,1.351-3.774H326.983z"/>
		<path class="st4" d="M327.616,374.823c0-1.831,1.335-2.015,1.943-2.015c0.975,0,1.759,0.632,1.759,1.679
			c0,1.008-0.664,1.432-1.503,1.879l-0.584,0.32c-0.768,0.424-0.936,0.863-0.968,1.079h3.055v0.664h-3.846
			c0.04-1.168,0.567-1.791,1.319-2.231l0.743-0.432c0.6-0.344,1.031-0.575,1.031-1.311c0-0.448-0.288-1.016-1.111-1.016
			c-1.063,0-1.111,0.991-1.135,1.383H327.616z"/>
		<path class="st4" d="M331.992,380.084c0.68-1.279,1.088-2.047,1.088-3.966c0-1.319-0.456-2.295-1.096-3.551h0.472
			c0.832,1.248,1.375,2.247,1.375,3.742c0,1.407-0.487,2.543-1.351,3.774H331.992z"/>
	</g>
	<g class="st2">
		<path class="st4" d="M358.479,372.568c-0.68,1.279-1.088,2.047-1.088,3.966c0,1.319,0.456,2.295,1.096,3.551h-0.472
			c-0.832-1.248-1.375-2.247-1.375-3.742c0-1.407,0.487-2.543,1.351-3.774H358.479z"/>
		<path class="st4" d="M360.552,375.231c0.12,0.008,0.248,0.016,0.367,0.016c0.544,0,1.072-0.216,1.072-0.919
			c0-0.336-0.2-0.888-1.04-0.888c-0.999,0-1.063,0.815-1.096,1.207h-0.688c0-0.823,0.336-1.839,1.815-1.839
			c1.087,0,1.735,0.624,1.735,1.479c0,0.719-0.416,1.063-0.72,1.159v0.016c0.543,0.176,0.936,0.56,0.936,1.312
			c0,0.919-0.592,1.807-2.023,1.807c-0.416,0-0.768-0.104-1.039-0.248c-0.624-0.327-0.792-0.975-0.84-1.623h0.728
			c0.024,0.528,0.152,1.239,1.199,1.239c0.72,0,1.224-0.439,1.224-1.087c0-0.943-0.831-1.031-1.312-1.031
			c-0.104,0-0.216,0.008-0.319,0.008V375.231z"/>
		<path class="st4" d="M363.488,380.084c0.68-1.279,1.088-2.047,1.088-3.966c0-1.319-0.456-2.295-1.096-3.551h0.472
			c0.832,1.248,1.375,2.247,1.375,3.742c0,1.407-0.487,2.543-1.351,3.774H363.488z"/>
	</g>
	<g class="st2">
		<path class="st4" d="M465.568,372.568c-0.68,1.279-1.088,2.047-1.088,3.966c0,1.319,0.456,2.295,1.096,3.551h-0.472
			c-0.832-1.248-1.375-2.247-1.375-3.742c0-1.407,0.487-2.543,1.351-3.774H465.568z"/>
		<path class="st4" d="M469.208,377.062v1.367h-0.704v-1.367h-2.454v-0.688l2.574-3.566h0.584v3.646h0.823v0.608H469.208z
			 M466.697,376.454h1.807v-2.55h-0.016L466.697,376.454z"/>
		<path class="st4" d="M470.578,380.084c0.679-1.279,1.087-2.047,1.087-3.966c0-1.319-0.456-2.295-1.096-3.551h0.472
			c0.832,1.248,1.376,2.247,1.376,3.742c0,1.407-0.488,2.543-1.352,3.774H470.578z"/>
	</g>
	<g class="st2">
		<path class="st4" d="M515.963,372.568c-0.68,1.279-1.088,2.047-1.088,3.966c0,1.319,0.456,2.295,1.096,3.551h-0.472
			c-0.832-1.248-1.375-2.247-1.375-3.742c0-1.407,0.487-2.543,1.351-3.774H515.963z"/>
		<path class="st4" d="M517.42,375.159c0.239-0.184,0.583-0.352,1.087-0.352c0.911,0,1.847,0.64,1.847,1.799
			c0,0.624-0.279,1.975-2.038,1.975c-0.736,0-1.68-0.296-1.815-1.551h0.728c0.072,0.655,0.56,0.943,1.191,0.943
			c0.728,0,1.184-0.584,1.184-1.287c0-0.808-0.552-1.247-1.248-1.247c-0.407,0-0.775,0.191-1.039,0.535l-0.607-0.032l0.424-3.014
			h2.91v0.688h-2.383L517.42,375.159z"/>
		<path class="st4" d="M520.973,380.084c0.679-1.279,1.087-2.047,1.087-3.966c0-1.319-0.456-2.295-1.096-3.551h0.472
			c0.832,1.248,1.376,2.247,1.376,3.742c0,1.407-0.488,2.543-1.352,3.774H520.973z"/>
	</g>
	<g class="st2">
		<path class="st4" d="M528.56,372.568c-0.68,1.279-1.088,2.047-1.088,3.966c0,1.319,0.456,2.295,1.096,3.551h-0.472
			c-0.831-1.248-1.375-2.247-1.375-3.742c0-1.407,0.487-2.543,1.351-3.774H528.56z"/>
		<path class="st4" d="M532.175,374.303c-0.088-0.496-0.359-0.863-0.967-0.863c-1.104,0-1.336,1.487-1.336,2.078l0.017,0.017
			c0.176-0.304,0.567-0.688,1.335-0.688c0.688,0,1.759,0.439,1.759,1.783c0,0.575-0.151,0.991-0.535,1.407
			c-0.296,0.327-0.632,0.543-1.424,0.543c-0.432,0-1.047-0.191-1.447-0.815c-0.336-0.527-0.432-1.215-0.432-1.951
			c0-1.23,0.399-3.006,2.079-3.006c0.647,0,1.567,0.352,1.639,1.495H532.175z M531.151,377.949c0.672,0,1.104-0.527,1.104-1.287
			c0-0.495-0.264-1.183-1.136-1.183c-0.775,0-1.151,0.56-1.151,1.223C529.968,377.301,530.328,377.949,531.151,377.949z"/>
		<path class="st4" d="M533.569,380.084c0.68-1.279,1.087-2.047,1.087-3.966c0-1.319-0.456-2.295-1.096-3.551h0.472
			c0.832,1.248,1.376,2.247,1.376,3.742c0,1.407-0.488,2.543-1.352,3.774H533.569z"/>
	</g>
	<g>
		<path d="M103.417,175.926c-0.216-1.008-1.056-1.191-1.607-1.191c-1.04,0-1.879,0.768-1.879,2.279c0,1.351,0.479,2.391,1.903,2.391
			c0.504,0,1.375-0.24,1.639-1.575h0.751c-0.32,2.167-2.079,2.263-2.51,2.263c-1.304,0-2.583-0.848-2.583-3.054
			c0-1.767,1.008-2.99,2.679-2.99c1.479,0,2.247,0.919,2.359,1.879H103.417z"/>
		<path d="M105.074,175.758h0.664v0.592h0.016c0.152-0.224,0.512-0.712,1.263-0.712c0.752,0,0.992,0.456,1.112,0.68
			c0.352-0.392,0.631-0.68,1.279-0.68c0.448,0,1.295,0.232,1.295,1.407v2.895H110v-2.703c0-0.576-0.176-0.967-0.775-0.967
			c-0.592,0-0.983,0.56-0.983,1.119v2.551h-0.704v-2.895c0-0.352-0.136-0.775-0.656-0.775c-0.4,0-1.104,0.256-1.104,1.391v2.279
			h-0.704V175.758z"/>
		<path d="M115.208,179.939h-0.664v-0.576h-0.016c-0.304,0.568-0.783,0.696-1.191,0.696c-1.423,0-1.839-1.335-1.839-2.335
			c0-1.175,0.632-2.087,1.743-2.087c0.76,0,1.079,0.472,1.247,0.712l0.016-0.056v-2.095h0.704V179.939z M113.354,179.452
			c0.448,0,1.144-0.296,1.144-1.407c0-0.68-0.112-1.775-1.127-1.775c-1.087,0-1.144,1.031-1.144,1.567
			C112.226,178.756,112.586,179.452,113.354,179.452z"/>
		<path d="M119.968,174.199h0.872l-2.095,5.741h-0.823l-2.095-5.741h0.863l1.639,4.893h0.016L119.968,174.199z"/>
		<path d="M121.498,177.029c0.032-1,0.696-1.392,1.727-1.392c0.336,0,1.551,0.096,1.551,1.167v2.407
			c0,0.176,0.088,0.248,0.232,0.248c0.064,0,0.152-0.016,0.232-0.032v0.512c-0.12,0.032-0.224,0.08-0.384,0.08
			c-0.624,0-0.72-0.32-0.744-0.64c-0.272,0.296-0.696,0.68-1.511,0.68c-0.768,0-1.311-0.488-1.311-1.208
			c0-0.352,0.104-1.167,1.271-1.311l1.16-0.144c0.167-0.016,0.368-0.08,0.368-0.496c0-0.44-0.32-0.68-0.983-0.68
			c-0.8,0-0.912,0.487-0.959,0.808H121.498z M124.073,177.805c-0.112,0.088-0.288,0.152-1.159,0.264
			c-0.344,0.048-0.896,0.152-0.896,0.68c0,0.456,0.231,0.728,0.759,0.728c0.656,0,1.295-0.424,1.295-0.983V177.805z"/>
		<path d="M126.69,179.939h-0.704v-5.741h0.704V179.939z"/>
		<path d="M130.473,179.939v-0.607l-0.016-0.016c-0.295,0.488-0.655,0.744-1.327,0.744c-0.616,0-1.359-0.296-1.359-1.295v-3.006
			h0.704v2.774c0,0.688,0.352,0.919,0.807,0.919c0.888,0,1.151-0.784,1.151-1.391v-2.303h0.704v4.182H130.473z"/>
		<path d="M135.744,178.628c-0.024,0.2-0.216,0.792-0.744,1.144c-0.192,0.128-0.464,0.288-1.135,0.288
			c-1.175,0-1.871-0.888-1.871-2.095c0-1.295,0.624-2.327,2.007-2.327c1.208,0,1.799,0.959,1.799,2.439h-3.055
			c0,0.872,0.408,1.375,1.215,1.375c0.664,0,1.056-0.512,1.08-0.824H135.744z M135.072,177.517c-0.04-0.647-0.312-1.247-1.167-1.247
			c-0.648,0-1.16,0.6-1.16,1.247H135.072z"/>
	</g>
	<g>
		<path d="M109.13,123.31h-0.776v-5.741h2.583c1.063,0,1.703,0.688,1.703,1.615c0,0.8-0.456,1.703-1.703,1.703h-1.807V123.31z
			 M109.13,120.224h1.543c0.696,0,1.167-0.256,1.167-1.031c0-0.728-0.496-0.959-1.135-0.959h-1.575V120.224z"/>
		<path d="M115.226,119.008c1.335,0,1.943,1.127,1.943,2.207c0,1.079-0.607,2.207-1.943,2.207c-1.335,0-1.943-1.127-1.943-2.207
			C113.283,120.136,113.891,119.008,115.226,119.008z M115.226,122.814c1.007,0,1.215-1.04,1.215-1.599s-0.208-1.599-1.215-1.599
			s-1.215,1.04-1.215,1.599S114.218,122.814,115.226,122.814z"/>
		<path d="M120.345,120.32c-0.008-0.264-0.104-0.704-0.992-0.704c-0.216,0-0.832,0.072-0.832,0.591c0,0.344,0.216,0.424,0.76,0.56
			l0.704,0.176c0.872,0.216,1.175,0.536,1.175,1.104c0,0.863-0.711,1.383-1.655,1.383c-1.655,0-1.775-0.959-1.799-1.463h0.68
			c0.024,0.328,0.12,0.855,1.111,0.855c0.504,0,0.959-0.2,0.959-0.664c0-0.336-0.232-0.448-0.832-0.6l-0.815-0.2
			c-0.584-0.144-0.968-0.439-0.968-1.015c0-0.919,0.76-1.335,1.583-1.335c1.495,0,1.599,1.104,1.599,1.312H120.345z"/>
		<path d="M121.986,118.369v-0.799h0.704v0.799H121.986z M122.69,123.31h-0.704v-4.182h0.704V123.31z"/>
		<path d="M124.61,119.712v2.719c0,0.328,0.28,0.328,0.424,0.328h0.248v0.552c-0.256,0.024-0.456,0.056-0.527,0.056
			c-0.696,0-0.848-0.392-0.848-0.896v-2.759h-0.568v-0.583h0.568v-1.167h0.704v1.167h0.671v0.583H124.61z"/>
		<path d="M125.986,118.369v-0.799h0.704v0.799H125.986z M126.69,123.31h-0.704v-4.182h0.704V123.31z"/>
		<path d="M129.449,119.008c1.335,0,1.943,1.127,1.943,2.207c0,1.079-0.607,2.207-1.943,2.207c-1.335,0-1.943-1.127-1.943-2.207
			C127.506,120.136,128.114,119.008,129.449,119.008z M129.449,122.814c1.007,0,1.215-1.04,1.215-1.599s-0.208-1.599-1.215-1.599
			s-1.215,1.04-1.215,1.599S128.442,122.814,129.449,122.814z"/>
		<path d="M135.6,123.31h-0.704v-2.575c0-0.728-0.208-1.095-0.896-1.095c-0.4,0-1.104,0.256-1.104,1.391v2.279h-0.704v-4.182h0.664
			v0.592h0.016c0.152-0.224,0.544-0.712,1.264-0.712c0.647,0,1.463,0.264,1.463,1.455V123.31z"/>
	</g>
	<g>
		<path d="M112.144,385.952h-4.238v-5.741h4.182v0.688h-3.406v1.76h3.142v0.688h-3.142v1.919h3.462V385.952z"/>
		<path d="M116.473,385.952h-0.896l-1.04-1.575l-1.007,1.575h-0.888l1.471-2.151l-1.399-2.03h0.904l0.967,1.471l0.968-1.471h0.863
			l-1.415,2.03L116.473,385.952z"/>
		<path d="M120.625,384.64c-0.024,0.2-0.216,0.792-0.744,1.144c-0.192,0.128-0.464,0.288-1.135,0.288
			c-1.175,0-1.871-0.888-1.871-2.096c0-1.295,0.624-2.326,2.007-2.326c1.208,0,1.799,0.959,1.799,2.438h-3.054
			c0,0.872,0.408,1.375,1.215,1.375c0.664,0,1.056-0.512,1.08-0.823H120.625z M119.953,383.529c-0.04-0.647-0.312-1.247-1.167-1.247
			c-0.648,0-1.16,0.6-1.16,1.247H119.953z"/>
		<path d="M124.137,383.177c-0.088-0.56-0.4-0.896-0.992-0.896c-0.871,0-1.151,0.831-1.151,1.575c0,0.72,0.176,1.606,1.144,1.606
			c0.472,0,0.879-0.352,1-0.991h0.68c-0.072,0.664-0.48,1.6-1.703,1.6c-1.175,0-1.871-0.888-1.871-2.096
			c0-1.295,0.624-2.326,2.007-2.326c1.096,0,1.511,0.8,1.567,1.527H124.137z"/>
		<path d="M128.249,385.952v-0.607l-0.016-0.017c-0.296,0.488-0.656,0.744-1.328,0.744c-0.616,0-1.359-0.296-1.359-1.296v-3.006
			h0.703v2.774c0,0.688,0.352,0.919,0.808,0.919c0.888,0,1.151-0.783,1.151-1.391v-2.303h0.704v4.182H128.249z"/>
		<path d="M130.834,382.353v2.719c0,0.328,0.28,0.328,0.424,0.328h0.248v0.552c-0.256,0.023-0.456,0.056-0.527,0.056
			c-0.696,0-0.848-0.392-0.848-0.896v-2.759h-0.568v-0.583h0.568v-1.168h0.704v1.168h0.671v0.583H130.834z"/>
		<path d="M135.745,384.64c-0.024,0.2-0.216,0.792-0.744,1.144c-0.192,0.128-0.464,0.288-1.135,0.288
			c-1.175,0-1.871-0.888-1.871-2.096c0-1.295,0.624-2.326,2.007-2.326c1.208,0,1.799,0.959,1.799,2.438h-3.054
			c0,0.872,0.408,1.375,1.215,1.375c0.664,0,1.056-0.512,1.08-0.823H135.745z M135.073,383.529c-0.04-0.647-0.312-1.247-1.167-1.247
			c-0.648,0-1.16,0.6-1.16,1.247H135.073z"/>
	</g>
	<g>
		<path d="M75.848,311.989c-0.216-1.008-1.055-1.191-1.607-1.191c-1.04,0-1.879,0.768-1.879,2.278c0,1.352,0.48,2.391,1.903,2.391
			c0.504,0,1.375-0.239,1.639-1.575h0.751c-0.32,2.167-2.079,2.263-2.51,2.263c-1.303,0-2.583-0.848-2.583-3.054
			c0-1.768,1.007-2.99,2.678-2.99c1.479,0,2.247,0.919,2.359,1.879H75.848z"/>
		<path d="M79.209,311.701c1.335,0,1.943,1.127,1.943,2.207c0,1.079-0.607,2.206-1.943,2.206c-1.335,0-1.943-1.127-1.943-2.206
			C77.267,312.828,77.875,311.701,79.209,311.701z M79.209,315.506c1.008,0,1.215-1.039,1.215-1.599s-0.208-1.6-1.215-1.6
			c-1.007,0-1.215,1.04-1.215,1.6S78.202,315.506,79.209,315.506z"/>
		<path d="M81.955,311.821h0.664v0.592h0.016c0.152-0.225,0.512-0.712,1.264-0.712c0.751,0,0.991,0.456,1.111,0.68
			c0.352-0.392,0.631-0.68,1.279-0.68c0.448,0,1.295,0.231,1.295,1.407v2.895H86.88v-2.703c0-0.575-0.176-0.967-0.775-0.967
			c-0.592,0-0.983,0.56-0.983,1.119v2.551h-0.704v-2.895c0-0.352-0.136-0.775-0.656-0.775c-0.4,0-1.104,0.256-1.104,1.391v2.279
			h-0.704V311.821z"/>
		<path d="M88.619,311.821h0.664v0.592h0.016c0.152-0.225,0.512-0.712,1.264-0.712c0.751,0,0.991,0.456,1.111,0.68
			c0.352-0.392,0.631-0.68,1.279-0.68c0.448,0,1.295,0.231,1.295,1.407v2.895h-0.704v-2.703c0-0.575-0.176-0.967-0.775-0.967
			c-0.592,0-0.983,0.56-0.983,1.119v2.551h-0.704v-2.895c0-0.352-0.136-0.775-0.656-0.775c-0.4,0-1.104,0.256-1.104,1.391v2.279
			h-0.704V311.821z"/>
		<path d="M95.259,313.092c0.032-1,0.696-1.392,1.727-1.392c0.336,0,1.551,0.096,1.551,1.167v2.407c0,0.176,0.088,0.248,0.232,0.248
			c0.064,0,0.152-0.017,0.232-0.032v0.512c-0.12,0.032-0.224,0.08-0.384,0.08c-0.624,0-0.72-0.32-0.744-0.64
			c-0.272,0.296-0.696,0.68-1.511,0.68c-0.768,0-1.311-0.488-1.311-1.208c0-0.352,0.104-1.167,1.271-1.311l1.16-0.145
			c0.167-0.016,0.368-0.08,0.368-0.495c0-0.44-0.32-0.68-0.983-0.68c-0.8,0-0.912,0.487-0.959,0.808H95.259z M97.833,313.868
			c-0.112,0.088-0.288,0.151-1.159,0.264c-0.344,0.048-0.896,0.151-0.896,0.68c0,0.456,0.231,0.728,0.759,0.728
			c0.656,0,1.295-0.424,1.295-0.983V313.868z"/>
		<path d="M103.137,316.002h-0.704v-2.575c0-0.728-0.208-1.095-0.896-1.095c-0.4,0-1.104,0.256-1.104,1.391v2.279h-0.704v-4.182
			h0.664v0.592h0.016c0.152-0.225,0.544-0.712,1.264-0.712c0.647,0,1.463,0.264,1.463,1.455V316.002z"/>
		<path d="M107.649,316.002h-0.664v-0.576h-0.016c-0.304,0.568-0.784,0.696-1.191,0.696c-1.423,0-1.839-1.336-1.839-2.335
			c0-1.176,0.632-2.087,1.743-2.087c0.759,0,1.08,0.472,1.247,0.712l0.016-0.057v-2.095h0.704V316.002z M105.794,315.514
			c0.448,0,1.144-0.296,1.144-1.407c0-0.68-0.112-1.774-1.127-1.774c-1.087,0-1.144,1.031-1.144,1.566
			C104.667,314.819,105.027,315.514,105.794,315.514z"/>
		<path d="M109.619,314.332l-0.6,1.671h-0.8l2.159-5.741h0.88l2.079,5.741h-0.847l-0.568-1.671H109.619z M111.642,313.643
			l-0.848-2.526h-0.016l-0.919,2.526H111.642z"/>
		<path d="M113.908,316.002v-5.741h0.704v2.087h0.016c0.304-0.439,0.719-0.64,1.207-0.647c1.111,0,1.743,0.911,1.743,2.087
			c0,0.999-0.416,2.335-1.839,2.335c-0.712,0-1.008-0.408-1.151-0.64h-0.016v0.52H113.908z M115.707,312.333
			c-1.016,0-1.127,1.095-1.127,1.774c0,1.111,0.696,1.407,1.144,1.407c0.768,0,1.127-0.695,1.127-1.615
			C116.85,313.364,116.794,312.333,115.707,312.333z"/>
		<path d="M120.115,311.701c1.335,0,1.943,1.127,1.943,2.207c0,1.079-0.607,2.206-1.943,2.206c-1.335,0-1.943-1.127-1.943-2.206
			C118.172,312.828,118.78,311.701,120.115,311.701z M120.115,315.506c1.008,0,1.215-1.039,1.215-1.599s-0.208-1.6-1.215-1.6
			c-1.007,0-1.215,1.04-1.215,1.6S119.107,315.506,120.115,315.506z"/>
		<path d="M123.66,316.002h-0.704v-4.182h0.664v0.695h0.016c0.28-0.487,0.647-0.815,1.175-0.815c0.088,0,0.128,0.008,0.184,0.023
			v0.729h-0.264c-0.656,0-1.071,0.512-1.071,1.119V316.002z"/>
		<path d="M126.388,312.404v2.719c0,0.328,0.28,0.328,0.424,0.328h0.248v0.552c-0.256,0.023-0.456,0.056-0.527,0.056
			c-0.696,0-0.848-0.392-0.848-0.896v-2.759h-0.568v-0.583h0.568v-1.168h0.704v1.168h0.671v0.583H126.388z"/>
		<path d="M131.298,314.691c-0.024,0.2-0.216,0.792-0.744,1.144c-0.192,0.128-0.464,0.288-1.135,0.288
			c-1.175,0-1.871-0.888-1.871-2.096c0-1.295,0.624-2.326,2.007-2.326c1.208,0,1.799,0.959,1.799,2.438H128.3
			c0,0.872,0.408,1.375,1.215,1.375c0.664,0,1.056-0.512,1.08-0.823H131.298z M130.626,313.58c-0.04-0.647-0.312-1.247-1.167-1.247
			c-0.648,0-1.16,0.6-1.16,1.247H130.626z"/>
		<path d="M135.666,316.002h-0.664v-0.576h-0.016c-0.304,0.568-0.784,0.696-1.191,0.696c-1.423,0-1.839-1.336-1.839-2.335
			c0-1.176,0.632-2.087,1.743-2.087c0.759,0,1.08,0.472,1.247,0.712l0.016-0.057v-2.095h0.704V316.002z M133.811,315.514
			c0.448,0,1.144-0.296,1.144-1.407c0-0.68-0.112-1.774-1.127-1.774c-1.087,0-1.144,1.031-1.144,1.566
			C132.684,314.819,133.043,315.514,133.811,315.514z"/>
	</g>
	<g>
		<path d="M95.226,351.438h-1.261v-5.401h-0.018l-1.207,5.401h-1.323l-1.18-5.401H90.22v5.401h-1.26v-6.464h1.972l1.17,5.096h0.018
			l1.152-5.096h1.954V351.438z"/>
		<path d="M100.643,347.09c-0.108-0.388-0.315-1.117-1.432-1.117c-0.648,0-1.603,0.433-1.603,2.26c0,1.162,0.459,2.206,1.603,2.206
			c0.747,0,1.27-0.423,1.432-1.216h1.35c-0.27,1.405-1.188,2.386-2.809,2.386c-1.72,0-2.953-1.161-2.953-3.394
			c0-2.26,1.306-3.412,2.971-3.412c1.936,0,2.719,1.332,2.791,2.287H100.643z"/>
		<path d="M107.339,352.114v0.45h-5.005v-0.45H107.339z"/>
		<path d="M108.985,349.449c0.009,0.36,0.189,1.044,1.369,1.044c0.639,0,1.35-0.152,1.35-0.837c0-0.504-0.486-0.64-1.17-0.802
			l-0.693-0.161c-1.044-0.243-2.053-0.478-2.053-1.9c0-0.72,0.387-1.989,2.485-1.989c1.98,0,2.512,1.297,2.521,2.089h-1.296
			c-0.036-0.288-0.144-0.973-1.323-0.973c-0.513,0-1.125,0.189-1.125,0.774c0,0.504,0.414,0.612,0.684,0.675l1.576,0.388
			c0.882,0.216,1.692,0.576,1.692,1.737c0,1.944-1.98,2.115-2.548,2.115c-2.358,0-2.764-1.359-2.764-2.16H108.985z"/>
		<path d="M115.339,346.649h0.783v0.9h-0.783v2.602c0,0.279,0.009,0.387,0.522,0.387c0.081,0,0.171-0.009,0.261-0.018v0.954
			c-0.198,0.009-0.396,0.019-0.594,0.019h-0.162c-1.089,0-1.287-0.415-1.287-1.036v-2.907h-0.648v-0.9h0.648v-1.297h1.26V346.649z"
			/>
		<path d="M119.092,351.564c-1.288,0-2.449-0.792-2.449-2.521s1.161-2.521,2.449-2.521c1.287,0,2.449,0.792,2.449,2.521
			S120.379,351.564,119.092,351.564z M119.092,347.585c-0.972,0-1.152,0.846-1.152,1.458s0.18,1.458,1.152,1.458
			s1.152-0.846,1.152-1.458S120.064,347.585,119.092,347.585z"/>
		<path d="M123.601,347.342h0.018c0.234-0.378,0.585-0.819,1.431-0.819c1.053,0,1.99,0.81,1.99,2.467
			c0,1.314-0.594,2.574-2.017,2.574c-0.882,0-1.197-0.477-1.351-0.738h-0.018v2.477h-1.26v-6.653h1.207V347.342z M124.708,350.529
			c0.81,0,1.035-0.882,1.035-1.449c0-0.756-0.27-1.468-1.071-1.468c-0.864,0-1.071,0.774-1.071,1.54
			C123.601,349.863,123.907,350.529,124.708,350.529z"/>
	</g>
	<g>
		<path d="M6.887,87.705H5.626v-5.401H5.609l-1.207,5.401H3.079l-1.18-5.401H1.881v5.401h-1.26v-6.464h1.972l1.17,5.096h0.018
			l1.152-5.096h1.954V87.705z"/>
		<path d="M12.305,83.356c-0.108-0.387-0.315-1.117-1.432-1.117c-0.648,0-1.603,0.432-1.603,2.26c0,1.162,0.459,2.206,1.603,2.206
			c0.747,0,1.27-0.423,1.432-1.215h1.35c-0.27,1.405-1.188,2.386-2.809,2.386c-1.72,0-2.953-1.161-2.953-3.394
			c0-2.259,1.306-3.412,2.971-3.412c1.936,0,2.719,1.332,2.791,2.287H12.305z"/>
		<path d="M19,88.38v0.45h-5.005v-0.45H19z"/>
		<path d="M20.646,85.715c0.009,0.36,0.189,1.044,1.369,1.044c0.639,0,1.35-0.153,1.35-0.837c0-0.504-0.486-0.639-1.17-0.801
			l-0.693-0.162c-1.044-0.243-2.053-0.478-2.053-1.9c0-0.72,0.387-1.989,2.485-1.989c1.98,0,2.512,1.296,2.521,2.088h-1.296
			c-0.036-0.288-0.144-0.972-1.323-0.972c-0.513,0-1.125,0.189-1.125,0.774c0,0.504,0.414,0.612,0.684,0.675l1.576,0.387
			c0.882,0.216,1.692,0.576,1.692,1.738c0,1.944-1.98,2.115-2.548,2.115c-2.358,0-2.764-1.359-2.764-2.161H20.646z"/>
		<path d="M28.207,87.624c-0.594,1.773-0.756,2.008-1.854,2.008c-0.171,0-0.387-0.009-0.567-0.018v-1.008
			c0.054,0.009,0.135,0.018,0.243,0.018c0.459,0,0.711-0.063,0.828-0.72l-1.765-4.988h1.405l1.026,3.529h0.018l0.981-3.529h1.333
			L28.207,87.624z"/>
		<path d="M34.921,87.705h-1.26v-2.908c0-0.351-0.018-0.945-0.819-0.945c-0.558,0-0.99,0.378-0.99,1.107v2.746h-1.261v-4.79h1.207
			v0.702h0.018c0.171-0.288,0.531-0.828,1.44-0.828c0.936,0,1.666,0.549,1.666,1.603V87.705z"/>
		<path d="M40.213,85.958c-0.045,0.495-0.432,1.873-2.188,1.873c-1.8,0-2.214-1.377-2.214-2.386c0-1.548,0.675-2.656,2.295-2.656
			c0.756,0,1.999,0.342,2.116,1.836h-1.278c-0.054-0.306-0.234-0.774-0.774-0.774h-0.063c-0.792,0-0.999,0.792-0.999,1.386
			c0,0.522,0.018,1.558,0.972,1.558c0.639,0,0.855-0.612,0.855-0.837H40.213z"/>
		<path d="M43.939,87.705h-1.351v-5.321h-1.954v-1.143h5.258v1.143h-1.954V87.705z"/>
		<path d="M49.213,87.624c-0.594,1.773-0.756,2.008-1.854,2.008c-0.171,0-0.387-0.009-0.567-0.018v-1.008
			c0.054,0.009,0.135,0.018,0.243,0.018c0.459,0,0.711-0.063,0.828-0.72l-1.765-4.988h1.405l1.026,3.529h0.018l0.981-3.529h1.333
			L49.213,87.624z"/>
		<path d="M52.776,83.608h0.018c0.234-0.378,0.585-0.819,1.431-0.819c1.053,0,1.99,0.81,1.99,2.467c0,1.314-0.594,2.575-2.017,2.575
			c-0.882,0-1.197-0.477-1.351-0.738H52.83v2.476h-1.26v-6.653h1.207V83.608z M53.884,86.795c0.81,0,1.035-0.882,1.035-1.45
			c0-0.756-0.27-1.467-1.071-1.467c-0.864,0-1.071,0.774-1.071,1.54C52.776,86.129,53.083,86.795,53.884,86.795z"/>
		<path d="M61.21,86.3c-0.333,1.152-1.287,1.53-2.106,1.53c-1.351,0-2.386-0.648-2.386-2.62c0-0.576,0.198-2.422,2.296-2.422
			c0.945,0,2.25,0.45,2.25,2.638v0.225h-3.286c0.036,0.36,0.108,1.17,1.125,1.17c0.351,0,0.711-0.18,0.81-0.522H61.21z
			 M59.968,84.833c-0.072-0.774-0.567-1.008-0.972-1.008c-0.594,0-0.909,0.378-0.981,1.008H59.968z"/>
		<path d="M63.549,87.705h-1.351v-6.464h4.601v1.143h-3.25v1.458h2.845v1.144h-2.845V87.705z"/>
		<path d="M69.769,87.831c-1.288,0-2.449-0.792-2.449-2.521s1.161-2.521,2.449-2.521c1.287,0,2.449,0.792,2.449,2.521
			S71.056,87.831,69.769,87.831z M69.769,83.852c-0.972,0-1.152,0.846-1.152,1.458c0,0.612,0.18,1.458,1.152,1.458
			s1.152-0.846,1.152-1.458C70.921,84.698,70.741,83.852,69.769,83.852z"/>
		<path d="M74.394,87.705h-1.26v-6.464h1.26V87.705z"/>
		<path d="M76.896,87.705h-1.26v-6.464h1.26V87.705z"/>
		<path d="M80.271,87.831c-1.288,0-2.449-0.792-2.449-2.521s1.161-2.521,2.449-2.521c1.287,0,2.449,0.792,2.449,2.521
			S81.559,87.831,80.271,87.831z M80.271,83.852c-0.972,0-1.152,0.846-1.152,1.458c0,0.612,0.18,1.458,1.152,1.458
			s1.152-0.846,1.152-1.458C81.424,84.698,81.244,83.852,80.271,83.852z"/>
		<path d="M88.562,87.705h-1.297l-0.747-3.493H86.5l-0.747,3.493h-1.296l-1.351-4.79h1.342l0.747,3.439h0.018l0.675-3.439h1.269
			l0.72,3.439h0.018l0.747-3.439h1.296L88.562,87.705z"/>
		<path d="M95.878,85.445c0,1.702-1.026,2.431-2.656,2.431c-0.594,0-1.477-0.144-2.053-0.783c-0.351-0.396-0.486-0.918-0.504-1.566
			v-4.285h1.377v4.195c0,0.9,0.522,1.296,1.152,1.296c0.928,0,1.306-0.45,1.306-1.233v-4.258h1.377V85.445z"/>
		<path d="M98.28,83.608h0.018c0.234-0.378,0.585-0.819,1.431-0.819c1.053,0,1.99,0.81,1.99,2.467c0,1.314-0.594,2.575-2.017,2.575
			c-0.882,0-1.197-0.477-1.351-0.738h-0.018v2.476h-1.26v-6.653h1.207V83.608z M99.388,86.795c0.81,0,1.035-0.882,1.035-1.45
			c0-0.756-0.27-1.467-1.071-1.467c-0.864,0-1.071,0.774-1.071,1.54C98.28,86.129,98.586,86.795,99.388,86.795z"/>
		<path d="M106.822,83.356c-0.108-0.387-0.315-1.117-1.432-1.117c-0.648,0-1.603,0.432-1.603,2.26c0,1.162,0.459,2.206,1.603,2.206
			c0.747,0,1.27-0.423,1.432-1.215h1.35c-0.27,1.405-1.188,2.386-2.809,2.386c-1.72,0-2.953-1.161-2.953-3.394
			c0-2.259,1.306-3.412,2.971-3.412c1.936,0,2.719,1.332,2.791,2.287H106.822z"/>
		<path d="M111.268,87.831c-1.288,0-2.449-0.792-2.449-2.521s1.161-2.521,2.449-2.521c1.287,0,2.449,0.792,2.449,2.521
			S112.555,87.831,111.268,87.831z M111.268,83.852c-0.972,0-1.152,0.846-1.152,1.458c0,0.612,0.18,1.458,1.152,1.458
			s1.152-0.846,1.152-1.458C112.42,84.698,112.24,83.852,111.268,83.852z"/>
		<path d="M118.927,87.705h-1.26v-2.908c0-0.351-0.018-0.945-0.819-0.945c-0.558,0-0.99,0.378-0.99,1.107v2.746h-1.261v-4.79h1.207
			v0.702h0.018c0.171-0.288,0.531-0.828,1.44-0.828c0.936,0,1.666,0.549,1.666,1.603V87.705z"/>
		<path d="M121.509,82.915h0.783v0.9h-0.783v2.602c0,0.279,0.009,0.387,0.522,0.387c0.081,0,0.171-0.009,0.261-0.018v0.955
			c-0.198,0.009-0.396,0.018-0.594,0.018h-0.162c-1.089,0-1.287-0.415-1.287-1.036v-2.908h-0.648v-0.9h0.648v-1.296h1.26V82.915z"/>
		<path d="M123.084,82.915h1.207v0.829h0.018c0.261-0.486,0.549-0.955,1.314-0.955c0.081,0,0.162,0.009,0.243,0.018v1.278
			c-0.108-0.018-0.243-0.018-0.36-0.018c-0.981,0-1.162,0.612-1.162,1.144v2.494h-1.26V82.915z"/>
		<path d="M128.764,87.831c-1.288,0-2.449-0.792-2.449-2.521s1.161-2.521,2.449-2.521c1.287,0,2.449,0.792,2.449,2.521
			S130.051,87.831,128.764,87.831z M128.764,83.852c-0.972,0-1.152,0.846-1.152,1.458c0,0.612,0.18,1.458,1.152,1.458
			s1.152-0.846,1.152-1.458C129.916,84.698,129.736,83.852,128.764,83.852z"/>
		<path d="M133.389,87.705h-1.26v-6.464h1.26V87.705z"/>
	</g>
	<g>
		<path d="M103.923,36.284h1.405l-2.197,6.464h-1.288l-2.179-6.464h1.45l1.386,4.897h0.018L103.923,36.284z"/>
		<path d="M110.196,41.344c-0.333,1.152-1.287,1.53-2.106,1.53c-1.351,0-2.386-0.648-2.386-2.62c0-0.576,0.198-2.422,2.296-2.422
			c0.945,0,2.25,0.45,2.25,2.638v0.225h-3.286c0.036,0.36,0.108,1.17,1.125,1.17c0.351,0,0.711-0.18,0.81-0.522H110.196z
			 M108.954,39.876c-0.072-0.774-0.567-1.008-0.972-1.008c-0.594,0-0.909,0.378-0.981,1.008H108.954z"/>
		<path d="M112.382,42.748h-1.26v-6.464h1.26V42.748z"/>
		<path d="M115.758,42.874c-1.288,0-2.449-0.792-2.449-2.521s1.161-2.521,2.449-2.521c1.287,0,2.449,0.792,2.449,2.521
			S117.045,42.874,115.758,42.874z M115.758,38.895c-0.972,0-1.152,0.846-1.152,1.458c0,0.612,0.18,1.458,1.152,1.458
			s1.152-0.846,1.152-1.458C116.91,39.741,116.73,38.895,115.758,38.895z"/>
		<path d="M123.21,41.001c-0.045,0.495-0.432,1.873-2.188,1.873c-1.8,0-2.214-1.377-2.214-2.386c0-1.548,0.675-2.656,2.295-2.656
			c0.756,0,1.999,0.342,2.116,1.836h-1.278c-0.054-0.306-0.234-0.774-0.774-0.774h-0.063c-0.792,0-0.999,0.792-0.999,1.386
			c0,0.522,0.018,1.558,0.972,1.558c0.639,0,0.855-0.612,0.855-0.837H123.21z"/>
		<path d="M125.387,37.392h-1.26v-1.17h1.26V37.392z M125.387,37.958v4.79h-1.26v-4.79H125.387z"/>
		<path d="M128.006,37.958h0.783v0.9h-0.783v2.602c0,0.279,0.009,0.387,0.522,0.387c0.081,0,0.171-0.009,0.261-0.018v0.955
			c-0.198,0.009-0.396,0.018-0.594,0.018h-0.162c-1.089,0-1.287-0.415-1.287-1.036v-2.908h-0.648v-0.9h0.648v-1.296h1.26V37.958z"/>
		<path d="M132.21,42.667c-0.594,1.773-0.756,2.008-1.854,2.008c-0.171,0-0.387-0.009-0.567-0.018v-1.008
			c0.054,0.009,0.135,0.018,0.243,0.018c0.459,0,0.711-0.063,0.828-0.72l-1.765-4.988h1.405l1.026,3.529h0.018l0.981-3.529h1.333
			L132.21,42.667z"/>
	</g>
	<g>
		<path d="M118.93,219.553h2.526c1.071,0,1.623,0.664,1.623,1.447c0,0.375-0.136,0.903-0.768,1.199
			c0.376,0.152,1.04,0.416,1.04,1.399c0,0.92-0.68,1.695-1.951,1.695h-2.471V219.553z M119.706,221.983h1.399
			c0.744,0,1.199-0.224,1.199-0.928c0-0.536-0.328-0.839-1.191-0.839h-1.407V221.983z M119.706,224.63h1.655
			c0.808,0,1.215-0.408,1.215-1.047c0-0.808-0.712-0.968-1.343-0.968h-1.527V224.63z"/>
		<path d="M126.92,225.293v-0.607l-0.016-0.016c-0.296,0.488-0.656,0.744-1.328,0.744c-0.616,0-1.359-0.296-1.359-1.295v-3.006
			h0.703v2.774c0,0.688,0.352,0.919,0.808,0.919c0.888,0,1.151-0.784,1.151-1.391v-2.303h0.704v4.182H126.92z"/>
		<path d="M131.017,222.303c-0.008-0.264-0.104-0.704-0.992-0.704c-0.216,0-0.832,0.072-0.832,0.591c0,0.344,0.216,0.424,0.76,0.56
			l0.704,0.176c0.872,0.216,1.175,0.536,1.175,1.104c0,0.863-0.711,1.383-1.655,1.383c-1.655,0-1.775-0.959-1.799-1.463h0.68
			c0.024,0.328,0.12,0.855,1.111,0.855c0.504,0,0.959-0.2,0.959-0.664c0-0.336-0.232-0.448-0.832-0.6l-0.815-0.2
			c-0.584-0.144-0.968-0.439-0.968-1.015c0-0.919,0.76-1.335,1.583-1.335c1.495,0,1.599,1.104,1.599,1.312H131.017z"/>
		<path d="M135.257,221.112h0.775c-0.488,1.367-0.967,2.734-1.503,4.102c-0.664,1.695-0.736,1.791-1.639,1.791
			c-0.104,0-0.184-0.032-0.296-0.064v-0.64c0.088,0.032,0.232,0.072,0.424,0.072c0.368,0,0.408-0.104,0.744-0.968l-1.551-4.293h0.8
			l1.111,3.406h0.016L135.257,221.112z"/>
	</g>
	<g>
		<path d="M118.93,425.727h2.526c1.071,0,1.623,0.664,1.623,1.447c0,0.376-0.136,0.903-0.768,1.199
			c0.376,0.152,1.04,0.416,1.04,1.399c0,0.92-0.68,1.695-1.951,1.695h-2.471V425.727z M119.706,428.158h1.399
			c0.744,0,1.199-0.224,1.199-0.928c0-0.535-0.328-0.839-1.191-0.839h-1.407V428.158z M119.706,430.804h1.655
			c0.808,0,1.215-0.407,1.215-1.047c0-0.808-0.712-0.968-1.343-0.968h-1.527V430.804z"/>
		<path d="M126.92,431.468v-0.607l-0.016-0.017c-0.296,0.488-0.656,0.744-1.328,0.744c-0.616,0-1.359-0.296-1.359-1.296v-3.006
			h0.703v2.774c0,0.688,0.352,0.919,0.808,0.919c0.888,0,1.151-0.783,1.151-1.391v-2.303h0.704v4.182H126.92z"/>
		<path d="M131.017,428.478c-0.008-0.265-0.104-0.704-0.992-0.704c-0.216,0-0.832,0.072-0.832,0.592c0,0.344,0.216,0.424,0.76,0.56
			l0.704,0.176c0.872,0.216,1.175,0.536,1.175,1.104c0,0.863-0.711,1.384-1.655,1.384c-1.655,0-1.775-0.96-1.799-1.464h0.68
			c0.024,0.328,0.12,0.855,1.111,0.855c0.504,0,0.959-0.199,0.959-0.663c0-0.336-0.232-0.448-0.832-0.6l-0.815-0.2
			c-0.584-0.144-0.968-0.439-0.968-1.016c0-0.919,0.76-1.335,1.583-1.335c1.495,0,1.599,1.104,1.599,1.312H131.017z"/>
		<path d="M135.257,427.287h0.775c-0.488,1.367-0.967,2.734-1.503,4.102c-0.664,1.695-0.736,1.791-1.639,1.791
			c-0.104,0-0.184-0.032-0.296-0.064v-0.64c0.088,0.032,0.232,0.072,0.424,0.072c0.368,0,0.408-0.104,0.744-0.968l-1.551-4.293h0.8
			l1.111,3.406h0.016L135.257,427.287z"/>
	</g>
	<g>
		<path d="M105.17,270.648h-0.776v-5.741h0.776V270.648z"/>
		<path d="M109.817,270.648h-0.704v-2.575c0-0.728-0.208-1.095-0.896-1.095c-0.4,0-1.104,0.256-1.104,1.391v2.279h-0.704v-4.182
			h0.664v0.592h0.016c0.152-0.224,0.544-0.712,1.264-0.712c0.647,0,1.463,0.264,1.463,1.455V270.648z"/>
		<path d="M114.977,266.634c-0.216-1.008-1.056-1.191-1.607-1.191c-1.04,0-1.879,0.768-1.879,2.279c0,1.351,0.479,2.391,1.903,2.391
			c0.504,0,1.375-0.24,1.639-1.575h0.751c-0.32,2.167-2.079,2.263-2.51,2.263c-1.304,0-2.583-0.848-2.583-3.054
			c0-1.767,1.008-2.99,2.679-2.99c1.479,0,2.247,0.919,2.359,1.879H114.977z"/>
		<path d="M118.338,266.346c1.335,0,1.943,1.127,1.943,2.207c0,1.079-0.607,2.207-1.943,2.207c-1.335,0-1.943-1.127-1.943-2.207
			C116.395,267.474,117.003,266.346,118.338,266.346z M118.338,270.152c1.007,0,1.215-1.04,1.215-1.599s-0.208-1.599-1.215-1.599
			s-1.215,1.04-1.215,1.599S117.331,270.152,118.338,270.152z"/>
		<path d="M124.489,270.648h-0.704v-2.575c0-0.728-0.208-1.095-0.896-1.095c-0.4,0-1.104,0.256-1.104,1.391v2.279h-0.704v-4.182
			h0.664v0.592h0.016c0.152-0.224,0.544-0.712,1.264-0.712c0.647,0,1.463,0.264,1.463,1.455V270.648z"/>
		<path d="M126.395,267.05v2.719c0,0.328,0.28,0.328,0.424,0.328h0.248v0.552c-0.256,0.024-0.456,0.056-0.527,0.056
			c-0.696,0-0.848-0.392-0.848-0.896v-2.759h-0.568v-0.583h0.568v-1.167h0.704v1.167h0.671v0.583H126.395z"/>
		<path d="M128.555,270.648h-0.704v-4.182h0.664v0.695h0.016c0.28-0.487,0.647-0.815,1.175-0.815c0.088,0,0.128,0.008,0.184,0.024
			v0.728h-0.264c-0.656,0-1.071,0.512-1.071,1.119V270.648z"/>
		<path d="M132.122,266.346c1.335,0,1.943,1.127,1.943,2.207c0,1.079-0.607,2.207-1.943,2.207c-1.335,0-1.943-1.127-1.943-2.207
			C130.179,267.474,130.787,266.346,132.122,266.346z M132.122,270.152c1.007,0,1.215-1.04,1.215-1.599s-0.208-1.599-1.215-1.599
			s-1.215,1.04-1.215,1.599S131.115,270.152,132.122,270.152z"/>
		<path d="M135.586,270.648h-0.704v-5.741h0.704V270.648z"/>
	</g>
	<g>
		<path d="M117.65,471.104h2.327c1.496,0,2.415,1.136,2.415,2.791c0,1.287-0.56,2.95-2.447,2.95h-2.295V471.104z M118.426,476.181
			h1.503c1.008,0,1.663-0.791,1.663-2.238s-0.664-2.175-1.719-2.175h-1.447V476.181z"/>
		<path d="M125.001,472.543c1.335,0,1.943,1.127,1.943,2.207c0,1.079-0.607,2.206-1.943,2.206c-1.335,0-1.943-1.127-1.943-2.206
			C123.059,473.67,123.667,472.543,125.001,472.543z M125.001,476.349c1.008,0,1.215-1.039,1.215-1.599s-0.208-1.6-1.215-1.6
			c-1.007,0-1.215,1.04-1.215,1.6S123.994,476.349,125.001,476.349z"/>
		<path d="M131.153,476.845h-0.704v-2.575c0-0.728-0.208-1.095-0.896-1.095c-0.4,0-1.104,0.256-1.104,1.391v2.279h-0.704v-4.182
			h0.664v0.592h0.016c0.152-0.225,0.544-0.712,1.264-0.712c0.647,0,1.463,0.264,1.463,1.455V476.845z"/>
		<path d="M135.745,475.534c-0.024,0.2-0.216,0.792-0.744,1.144c-0.192,0.128-0.464,0.288-1.135,0.288
			c-1.175,0-1.871-0.888-1.871-2.096c0-1.295,0.624-2.326,2.007-2.326c1.208,0,1.799,0.959,1.799,2.438h-3.055
			c0,0.872,0.408,1.375,1.215,1.375c0.664,0,1.056-0.512,1.08-0.823H135.745z M135.073,474.422c-0.04-0.647-0.312-1.247-1.167-1.247
			c-0.648,0-1.16,0.6-1.16,1.247H135.073z"/>
	</g>
	<g>
		<path d="M156.165,0.779c-0.68,1.279-1.087,2.047-1.087,3.966c0,1.319,0.456,2.295,1.095,3.55h-0.472
			c-0.832-1.248-1.375-2.247-1.375-3.742c0-1.407,0.488-2.542,1.352-3.774H156.165z"/>
		<path d="M159.317,6.64h-0.752V2.65h-1.311v-0.56c0.912-0.064,1.287-0.152,1.511-1.072h0.552V6.64z"/>
		<path d="M161.174,8.295c0.68-1.279,1.087-2.047,1.087-3.966c0-1.319-0.456-2.295-1.095-3.55h0.472
			c0.832,1.248,1.375,2.247,1.375,3.742c0,1.407-0.488,2.542-1.351,3.774H161.174z"/>
	</g>
	<g>
		<path d="M176.494,0.779c-0.68,1.279-1.087,2.047-1.087,3.966c0,1.319,0.456,2.295,1.095,3.55h-0.472
			c-0.832-1.248-1.375-2.247-1.375-3.742c0-1.407,0.488-2.542,1.352-3.774H176.494z"/>
		<path d="M177.127,3.034c0-1.831,1.335-2.015,1.943-2.015c0.975,0,1.759,0.632,1.759,1.679c0,1.007-0.664,1.431-1.503,1.879
			l-0.584,0.32c-0.768,0.424-0.936,0.864-0.967,1.08h3.054V6.64h-3.846c0.04-1.167,0.567-1.791,1.319-2.231l0.744-0.432
			c0.6-0.344,1.031-0.576,1.031-1.311c0-0.448-0.288-1.016-1.111-1.016c-1.063,0-1.111,0.991-1.136,1.383H177.127z"/>
		<path d="M181.502,8.295c0.68-1.279,1.087-2.047,1.087-3.966c0-1.319-0.456-2.295-1.095-3.55h0.472
			c0.832,1.248,1.375,2.247,1.375,3.742c0,1.407-0.488,2.542-1.351,3.774H181.502z"/>
	</g>
	<g>
		<path d="M430.517,0.779c-0.68,1.279-1.087,2.047-1.087,3.966c0,1.319,0.455,2.295,1.095,3.55h-0.472
			c-0.831-1.248-1.375-2.247-1.375-3.742c0-1.407,0.487-2.542,1.352-3.774H430.517z"/>
		<path d="M432.589,3.442c0.12,0.008,0.248,0.016,0.368,0.016c0.544,0,1.071-0.216,1.071-0.919c0-0.336-0.2-0.888-1.039-0.888
			c-1,0-1.063,0.815-1.096,1.208h-0.688c0-0.824,0.336-1.839,1.814-1.839c1.088,0,1.735,0.624,1.735,1.479
			c0,0.72-0.416,1.063-0.72,1.159v0.016c0.544,0.176,0.936,0.56,0.936,1.311c0,0.92-0.592,1.807-2.022,1.807
			c-0.416,0-0.768-0.104-1.04-0.248c-0.623-0.328-0.791-0.976-0.839-1.624h0.728c0.023,0.528,0.151,1.24,1.199,1.24
			c0.72,0,1.224-0.44,1.224-1.088c0-0.943-0.832-1.031-1.312-1.031c-0.104,0-0.216,0.008-0.32,0.008V3.442z"/>
		<path d="M435.525,8.295c0.68-1.279,1.088-2.047,1.088-3.966c0-1.319-0.456-2.295-1.096-3.55h0.472
			c0.832,1.248,1.375,2.247,1.375,3.742c0,1.407-0.487,2.542-1.351,3.774H435.525z"/>
	</g>
	<g>
		<path d="M473.842,0.779c-0.68,1.279-1.087,2.047-1.087,3.966c0,1.319,0.455,2.295,1.095,3.55h-0.472
			c-0.831-1.248-1.375-2.247-1.375-3.742c0-1.407,0.487-2.542,1.352-3.774H473.842z"/>
		<path d="M477.481,5.273V6.64h-0.703V5.273h-2.455V4.585l2.574-3.566h0.584v3.646h0.823v0.608H477.481z M474.971,4.665h1.808v-2.55
			h-0.017L474.971,4.665z"/>
		<path d="M478.851,8.295c0.68-1.279,1.088-2.047,1.088-3.966c0-1.319-0.456-2.295-1.096-3.55h0.472
			c0.832,1.248,1.375,2.247,1.375,3.742c0,1.407-0.487,2.542-1.351,3.774H478.851z"/>
	</g>
	<g>
		<path d="M494.876,0.779c-0.68,1.279-1.088,2.047-1.088,3.966c0,1.319,0.456,2.295,1.096,3.55h-0.472
			c-0.831-1.248-1.376-2.247-1.376-3.742c0-1.407,0.488-2.542,1.352-3.774H494.876z"/>
		<path d="M496.333,3.37c0.239-0.184,0.584-0.352,1.087-0.352c0.911,0,1.847,0.64,1.847,1.799c0,0.624-0.279,1.975-2.039,1.975
			c-0.734,0-1.679-0.296-1.814-1.551h0.728c0.071,0.656,0.56,0.944,1.191,0.944c0.728,0,1.183-0.584,1.183-1.288
			c0-0.808-0.551-1.247-1.246-1.247c-0.408,0-0.775,0.192-1.04,0.536l-0.607-0.032l0.424-3.014h2.91v0.688h-2.383L496.333,3.37z"/>
		<path d="M499.885,8.295c0.68-1.279,1.087-2.047,1.087-3.966c0-1.319-0.455-2.295-1.095-3.55h0.472
			c0.832,1.248,1.375,2.247,1.375,3.742c0,1.407-0.488,2.542-1.352,3.774H499.885z"/>
	</g>
	<g>
		<path d="M538.021,0.779c-0.68,1.279-1.087,2.047-1.087,3.966c0,1.319,0.455,2.295,1.095,3.55h-0.472
			c-0.831-1.248-1.375-2.247-1.375-3.742c0-1.407,0.487-2.542,1.352-3.774H538.021z"/>
		<path d="M541.637,2.514c-0.088-0.496-0.359-0.863-0.967-0.863c-1.104,0-1.336,1.487-1.336,2.079l0.017,0.016
			c0.176-0.304,0.567-0.688,1.335-0.688c0.688,0,1.759,0.44,1.759,1.783c0,0.576-0.151,0.991-0.535,1.407
			c-0.296,0.328-0.632,0.543-1.424,0.543c-0.432,0-1.047-0.192-1.446-0.815c-0.336-0.528-0.433-1.215-0.433-1.951
			c0-1.231,0.4-3.006,2.079-3.006c0.647,0,1.567,0.352,1.64,1.495H541.637z M540.613,6.161c0.672,0,1.104-0.528,1.104-1.288
			c0-0.496-0.264-1.183-1.135-1.183c-0.775,0-1.151,0.56-1.151,1.223C539.431,5.513,539.79,6.161,540.613,6.161z"/>
		<path d="M543.03,8.295c0.68-1.279,1.088-2.047,1.088-3.966c0-1.319-0.456-2.295-1.096-3.55h0.472
			c0.832,1.248,1.375,2.247,1.375,3.742c0,1.407-0.487,2.542-1.351,3.774H543.03z"/>
	</g>
	<g>
		<path d="M152.979,118.569c0-1.831,1.335-2.015,1.943-2.015c0.975,0,1.759,0.632,1.759,1.679c0,1.007-0.664,1.431-1.503,1.879
			l-0.584,0.32c-0.768,0.424-0.936,0.864-0.967,1.08h3.054v0.664h-3.846c0.04-1.167,0.567-1.791,1.319-2.231l0.743-0.432
			c0.6-0.344,1.032-0.576,1.032-1.311c0-0.448-0.288-1.016-1.111-1.016c-1.063,0-1.111,0.991-1.135,1.383H152.979z"/>
		<path d="M159.299,122.327c-1.615,0-1.927-1.719-1.927-2.886c0-1.167,0.312-2.887,1.927-2.887s1.927,1.719,1.927,2.887
			C161.226,120.608,160.914,122.327,159.299,122.327z M159.299,117.186c-0.808,0-1.175,0.848-1.175,2.255s0.368,2.255,1.175,2.255
			s1.175-0.848,1.175-2.255S160.106,117.186,159.299,117.186z"/>
		<path d="M163.747,122.327c-1.615,0-1.927-1.719-1.927-2.886c0-1.167,0.312-2.887,1.927-2.887s1.927,1.719,1.927,2.887
			C165.674,120.608,165.362,122.327,163.747,122.327z M163.747,117.186c-0.808,0-1.175,0.848-1.175,2.255s0.368,2.255,1.175,2.255
			s1.175-0.848,1.175-2.255S164.555,117.186,163.747,117.186z"/>
	</g>
	<g>
		<path d="M205.392,118.569c0-1.831,1.335-2.015,1.943-2.015c0.975,0,1.759,0.632,1.759,1.679c0,1.007-0.664,1.431-1.503,1.879
			l-0.584,0.32c-0.768,0.424-0.936,0.864-0.967,1.08h3.054v0.664h-3.846c0.04-1.167,0.567-1.791,1.319-2.231l0.743-0.432
			c0.6-0.344,1.032-0.576,1.032-1.311c0-0.448-0.288-1.016-1.111-1.016c-1.063,0-1.111,0.991-1.135,1.383H205.392z"/>
		<path d="M212.359,122.175h-0.752v-3.99h-1.311v-0.56c0.912-0.064,1.287-0.152,1.511-1.072h0.552V122.175z"/>
		<path d="M216.159,122.327c-1.615,0-1.927-1.719-1.927-2.886c0-1.167,0.312-2.887,1.927-2.887s1.927,1.719,1.927,2.887
			C218.086,120.608,217.774,122.327,216.159,122.327z M216.159,117.186c-0.808,0-1.175,0.848-1.175,2.255s0.368,2.255,1.175,2.255
			s1.175-0.848,1.175-2.255S216.967,117.186,216.159,117.186z"/>
	</g>
	<g>
		<path d="M251.242,122.175h-0.752v-3.99h-1.311v-0.56c0.911-0.064,1.287-0.152,1.511-1.072h0.552V122.175z"/>
		<path d="M253.156,118.481c0-1.023,0.623-1.927,1.807-1.927c1.791,0,1.967,1.695,1.967,2.607c0,0.6-0.104,3.166-2.039,3.166
			c-1.319,0-1.671-0.959-1.671-1.503h0.704c0.04,0.567,0.375,0.919,0.951,0.919c0.768,0,1.176-0.648,1.352-2.103l-0.017-0.016
			c-0.208,0.432-0.768,0.672-1.287,0.672C253.884,120.296,253.156,119.601,253.156,118.481z M256.106,118.385
			c0-0.64-0.328-1.199-1.136-1.199c-0.655,0-1.087,0.512-1.087,1.263c0,1.08,0.671,1.215,1.144,1.215
			C255.395,119.665,256.106,119.497,256.106,118.385z"/>
		<path d="M259.491,122.327c-1.615,0-1.927-1.719-1.927-2.886c0-1.167,0.312-2.887,1.927-2.887s1.927,1.719,1.927,2.887
			C261.418,120.608,261.106,122.327,259.491,122.327z M259.491,117.186c-0.808,0-1.176,0.848-1.176,2.255s0.368,2.255,1.176,2.255
			s1.175-0.848,1.175-2.255S260.299,117.186,259.491,117.186z"/>
	</g>
	<g>
		<path d="M336.097,122.175h-0.752v-3.99h-1.312v-0.56c0.912-0.064,1.287-0.152,1.512-1.072h0.552V122.175z"/>
		<path d="M338.01,118.481c0-1.023,0.624-1.927,1.807-1.927c1.791,0,1.968,1.695,1.968,2.607c0,0.6-0.104,3.166-2.039,3.166
			c-1.319,0-1.671-0.959-1.671-1.503h0.703c0.04,0.567,0.376,0.919,0.951,0.919c0.768,0,1.176-0.648,1.352-2.103l-0.016-0.016
			c-0.208,0.432-0.768,0.672-1.287,0.672C338.737,120.296,338.01,119.601,338.01,118.481z M340.96,118.385
			c0-0.64-0.327-1.199-1.135-1.199c-0.656,0-1.088,0.512-1.088,1.263c0,1.08,0.672,1.215,1.144,1.215
			C340.249,119.665,340.96,119.497,340.96,118.385z"/>
		<path d="M343.298,118.905c0.239-0.184,0.583-0.352,1.087-0.352c0.912,0,1.848,0.64,1.848,1.799c0,0.624-0.28,1.975-2.039,1.975
			c-0.735,0-1.68-0.296-1.815-1.551h0.728c0.072,0.656,0.56,0.944,1.191,0.944c0.728,0,1.184-0.584,1.184-1.288
			c0-0.808-0.552-1.247-1.247-1.247c-0.408,0-0.775,0.192-1.04,0.536l-0.607-0.032l0.424-3.014h2.91v0.688h-2.383L343.298,118.905z"
			/>
	</g>
	<g>
		<path d="M376.185,118.569c0-1.831,1.336-2.015,1.943-2.015c0.976,0,1.759,0.632,1.759,1.679c0,1.007-0.663,1.431-1.503,1.879
			l-0.584,0.32c-0.768,0.424-0.936,0.864-0.967,1.08h3.054v0.664h-3.846c0.04-1.167,0.567-1.791,1.319-2.231l0.743-0.432
			c0.601-0.344,1.032-0.576,1.032-1.311c0-0.448-0.288-1.016-1.111-1.016c-1.063,0-1.111,0.991-1.136,1.383H376.185z"/>
		<path d="M383.152,122.175H382.4v-3.99h-1.312v-0.56c0.912-0.064,1.287-0.152,1.512-1.072h0.552V122.175z"/>
		<path d="M386.952,122.327c-1.615,0-1.927-1.719-1.927-2.886c0-1.167,0.312-2.887,1.927-2.887s1.928,1.719,1.928,2.887
			C388.88,120.608,388.567,122.327,386.952,122.327z M386.952,117.186c-0.808,0-1.175,0.848-1.175,2.255s0.367,2.255,1.175,2.255
			s1.176-0.848,1.176-2.255S387.76,117.186,386.952,117.186z"/>
	</g>
	<g>
		<path d="M417.848,118.569c0-1.831,1.336-2.015,1.943-2.015c0.976,0,1.759,0.632,1.759,1.679c0,1.007-0.663,1.431-1.503,1.879
			l-0.584,0.32c-0.768,0.424-0.936,0.864-0.967,1.08h3.054v0.664h-3.846c0.04-1.167,0.567-1.791,1.319-2.231l0.743-0.432
			c0.601-0.344,1.032-0.576,1.032-1.311c0-0.448-0.288-1.016-1.111-1.016c-1.063,0-1.111,0.991-1.136,1.383H417.848z"/>
		<path d="M422.296,118.569c0-1.831,1.336-2.015,1.943-2.015c0.976,0,1.759,0.632,1.759,1.679c0,1.007-0.663,1.431-1.503,1.879
			l-0.584,0.32c-0.768,0.424-0.936,0.864-0.967,1.08h3.054v0.664h-3.846c0.04-1.167,0.567-1.791,1.319-2.231l0.743-0.432
			c0.601-0.344,1.032-0.576,1.032-1.311c0-0.448-0.288-1.016-1.111-1.016c-1.063,0-1.111,0.991-1.136,1.383H422.296z"/>
		<path d="M428.615,122.327c-1.615,0-1.927-1.719-1.927-2.886c0-1.167,0.312-2.887,1.927-2.887s1.928,1.719,1.928,2.887
			C430.543,120.608,430.23,122.327,428.615,122.327z M428.615,117.186c-0.808,0-1.175,0.848-1.175,2.255s0.367,2.255,1.175,2.255
			s1.176-0.848,1.176-2.255S429.423,117.186,428.615,117.186z"/>
	</g>
	<g>
	</g>
	<g>
	</g>
	<g>
	</g>
	<g>
	</g>
	<g>
	</g>
	<g>
	</g>
	<g>
	</g>
	<g>
	</g>
	<g>
	</g>
	<g>
	</g>
	<g>
	</g>
	<g>
	</g>
	<g>
	</g>
	<g>
	</g>
	<g>
	</g>
</g>
</svg>
