<?xml version="1.0" encoding="utf-8"?>
<!-- Generator: Adobe Illustrator 28.2.0, SVG Export Plug-In . SVG Version: 6.00 Build 0)  -->
<svg version="1.1" xmlns="http://www.w3.org/2000/svg" xmlns:xlink="http://www.w3.org/1999/xlink" x="0px" y="0px"
	 width="118.647px" height="70.054px" viewBox="0 0 118.647 70.054" style="enable-background:new 0 0 118.647 70.054;"
	 xml:space="preserve">
<style type="text/css">
	.st0{fill:none;stroke:#040000;stroke-width:0.5;stroke-miterlimit:10;}
	.st1{fill:#040000;}
</style>
<g id="レイヤー_1">
	<polyline class="st0" points="7.335,9.29 7.335,66.369 100.611,66.369 	"/>
	<g>
		<g>
			<line class="st0" x1="19.416" y1="50.117" x2="77.1" y2="21.275"/>
			<g>
				<polygon class="st1" points="75.167,24.019 74.804,23.675 77.056,21.297 73.802,21.671 73.745,21.175 78.363,20.643 				"/>
			</g>
		</g>
	</g>
	<polyline class="st0" points="19.416,50.117 78.363,50.117 78.363,20.643 	"/>
</g>
<g id="レイヤー_2">
	<g>
		<path d="M84.459,34.811h-2.027v1.415c0.156-0.06,0.342-0.138,0.731-0.138c1.104,0,1.685,0.738,1.685,1.5
			c0,0.731-0.552,1.529-1.835,1.529c-0.521,0-0.965-0.114-1.415-0.372l0.174-0.516c0.36,0.252,0.792,0.372,1.235,0.372
			c1.025,0,1.271-0.624,1.271-1.025c0-0.618-0.492-0.995-1.139-0.995c-0.402,0-0.624,0.15-0.713,0.209H81.91v-2.495h2.549V34.811z"
			/>
		<path d="M85.564,36.658c0-0.474,0-2.458,1.637-2.458s1.637,1.985,1.637,2.458s0,2.458-1.637,2.458S85.564,37.138,85.564,36.658z
			 M88.275,36.658c0-0.786-0.12-1.943-1.073-1.943c-0.941,0-1.074,1.127-1.074,1.943c0,0.846,0.144,1.943,1.074,1.943
			C88.143,38.601,88.275,37.467,88.275,36.658z"/>
	</g>
	<g>
		<path d="M44.863,53.555h0.503v4.726h-0.576v-4.096l-0.905,0.624l-0.078-0.534L44.863,53.555z"/>
		<path d="M47.251,55.918c0-0.474,0-2.458,1.637-2.458s1.637,1.985,1.637,2.458s0,2.458-1.637,2.458S47.251,56.398,47.251,55.918z
			 M49.962,55.918c0-0.786-0.12-1.943-1.073-1.943c-0.941,0-1.074,1.127-1.074,1.943c0,0.846,0.144,1.943,1.074,1.943
			C49.83,57.861,49.962,56.728,49.962,55.918z"/>
		<path d="M51.211,55.918c0-0.474,0-2.458,1.637-2.458s1.637,1.985,1.637,2.458s0,2.458-1.637,2.458S51.211,56.398,51.211,55.918z
			 M53.922,55.918c0-0.786-0.12-1.943-1.073-1.943c-0.941,0-1.074,1.127-1.074,1.943c0,0.846,0.144,1.943,1.074,1.943
			C53.79,57.861,53.922,56.728,53.922,55.918z"/>
	</g>
	<g>
		<path d="M1.133,3.727L0.684,4.98h-0.6l1.619-4.306h0.66L3.922,4.98H3.286L2.86,3.727H1.133z M2.65,3.211L2.015,1.316H2.003
			L1.313,3.211H2.65z"/>
		<path d="M6.94,4.98H6.269L5.489,3.799L4.733,4.98H4.068l1.104-1.613L4.122,1.844h0.677l0.726,1.104L6.25,1.844h0.648L5.837,3.367
			L6.94,4.98z"/>
		<path d="M7.404,1.274v-0.6h0.528v0.6H7.404z M7.932,4.98H7.404V1.844h0.528V4.98z"/>
		<path d="M10.505,2.737c-0.006-0.198-0.078-0.528-0.744-0.528c-0.162,0-0.624,0.054-0.624,0.444c0,0.258,0.162,0.318,0.569,0.42
			l0.528,0.132c0.654,0.162,0.882,0.402,0.882,0.828c0,0.647-0.534,1.037-1.242,1.037c-1.241,0-1.331-0.72-1.349-1.097h0.51
			c0.018,0.246,0.09,0.642,0.833,0.642c0.378,0,0.72-0.15,0.72-0.498c0-0.252-0.174-0.336-0.624-0.45l-0.612-0.15
			c-0.438-0.108-0.726-0.33-0.726-0.761c0-0.69,0.57-1.001,1.187-1.001c1.122,0,1.2,0.828,1.2,0.983H10.505z"/>
		<path d="M13.853,3.955V4.98h-0.528V3.955h-1.841V3.439l1.931-2.675h0.438v2.735h0.618v0.456H13.853z M11.97,3.499h1.355V1.586
			h-0.012L11.97,3.499z"/>
	</g>
	<g>
		<path d="M105.111,67.45l-0.45,1.253h-0.6l1.619-4.306h0.66l1.559,4.306h-0.636l-0.426-1.253H105.111z M106.628,66.935
			l-0.635-1.895h-0.012l-0.689,1.895H106.628z"/>
		<path d="M110.918,68.704h-0.672l-0.779-1.181l-0.756,1.181h-0.666l1.104-1.613l-1.049-1.523h0.677l0.726,1.104l0.726-1.104h0.648
			l-1.062,1.523L110.918,68.704z"/>
		<path d="M111.381,64.998v-0.6h0.528v0.6H111.381z M111.909,68.704h-0.528v-3.136h0.528V68.704z"/>
		<path d="M114.482,66.461c-0.006-0.198-0.078-0.528-0.744-0.528c-0.162,0-0.624,0.054-0.624,0.444c0,0.258,0.162,0.318,0.569,0.42
			l0.528,0.132c0.654,0.162,0.882,0.402,0.882,0.828c0,0.647-0.534,1.037-1.242,1.037c-1.241,0-1.331-0.72-1.349-1.097h0.51
			c0.018,0.246,0.09,0.642,0.833,0.642c0.378,0,0.72-0.15,0.72-0.498c0-0.252-0.174-0.336-0.624-0.45l-0.612-0.15
			c-0.438-0.108-0.726-0.33-0.726-0.761c0-0.69,0.57-1.001,1.187-1.001c1.122,0,1.2,0.828,1.2,0.983H114.482z"/>
		<path d="M116.655,66.305c0.09,0.006,0.186,0.012,0.276,0.012c0.408,0,0.804-0.162,0.804-0.689c0-0.252-0.15-0.666-0.78-0.666
			c-0.75,0-0.797,0.612-0.821,0.906h-0.516c0-0.618,0.252-1.379,1.361-1.379c0.815,0,1.301,0.468,1.301,1.109
			c0,0.54-0.312,0.798-0.54,0.87v0.012c0.408,0.132,0.702,0.419,0.702,0.983c0,0.689-0.444,1.355-1.517,1.355
			c-0.312,0-0.576-0.078-0.78-0.186c-0.468-0.246-0.594-0.732-0.629-1.217h0.545c0.018,0.396,0.114,0.929,0.899,0.929
			c0.54,0,0.917-0.33,0.917-0.815c0-0.708-0.624-0.773-0.983-0.773c-0.078,0-0.162,0.006-0.24,0.006V66.305z"/>
	</g>
	<g>
	</g>
	<g>
	</g>
	<g>
	</g>
	<g>
	</g>
	<g>
	</g>
	<g>
	</g>
	<g>
	</g>
	<g>
	</g>
	<g>
	</g>
	<g>
	</g>
	<g>
	</g>
	<g>
	</g>
	<g>
	</g>
	<g>
	</g>
	<g>
	</g>
	<g>
	</g>
</g>
</svg>
