<?xml version="1.0" encoding="utf-8"?>
<!-- Generator: Adobe Illustrator 28.2.0, SVG Export Plug-In . SVG Version: 6.00 Build 0)  -->
<svg version="1.1" xmlns="http://www.w3.org/2000/svg" xmlns:xlink="http://www.w3.org/1999/xlink" x="0px" y="0px"
	 width="367.265px" height="207.555px" viewBox="0 0 367.265 207.555" style="enable-background:new 0 0 367.265 207.555;"
	 xml:space="preserve">
<style type="text/css">
	.st0{fill:#D3D3D4;}
	.st1{fill:none;stroke:#000000;stroke-miterlimit:10;}
	.st2{fill:none;stroke:#666666;stroke-width:0.5;stroke-miterlimit:10;stroke-dasharray:1;}
	.st3{fill:none;stroke:#000000;stroke-width:0.5;stroke-miterlimit:10;}
</style>
<g id="レイヤー_1">
	<rect x="46.636" y="182.765" class="st0" width="60.674" height="24.54"/>
	<rect x="260.479" y="182.765" class="st0" width="106.247" height="24.54"/>
	<polyline class="st1" points="367.265,108.404 92.209,108.404 92.209,84.069 61.704,84.069 61.704,108.404 46.366,108.404 	"/>
	<polyline class="st1" points="366.726,42.737 122.444,42.737 122.444,18.402 107.31,18.402 107.31,42.737 76.838,42.737 
		76.838,18.402 61.704,18.402 61.704,42.737 46.366,42.737 	"/>
	<polyline class="st1" points="366.726,75.57 275.677,75.57 275.677,51.235 260.544,51.235 260.544,75.57 230.072,75.57 
		230.072,51.235 214.938,51.235 214.938,75.57 46.366,75.57 	"/>
	<polyline class="st1" points="367.265,141.238 245.14,141.238 245.14,116.903 214.636,116.903 214.636,141.238 46.366,141.238 	"/>
	<polyline class="st1" points="367.265,174.071 260.479,174.071 260.479,149.736 107.58,149.736 107.58,174.071 46.366,174.071 	"/>
	<line class="st2" x1="61.704" y1="11.26" x2="61.704" y2="182.765"/>
	<line class="st2" x1="107.31" y1="11.26" x2="107.31" y2="182.765"/>
	<line class="st2" x1="214.938" y1="11.26" x2="214.938" y2="182.765"/>
	<line class="st2" x1="260.479" y1="11.26" x2="260.479" y2="182.765"/>
	<line class="st3" x1="366.726" y1="182.765" x2="46.636" y2="182.765"/>
	<line class="st3" x1="366.726" y1="207.305" x2="46.636" y2="207.305"/>
	<line class="st3" x1="107.31" y1="182.765" x2="107.31" y2="207.305"/>
	<line class="st3" x1="260.479" y1="182.765" x2="260.479" y2="207.305"/>
</g>
<g id="レイヤー_2">
	<g>
		<path d="M257.974,0.779c-0.68,1.279-1.088,2.047-1.088,3.966c0,1.319,0.456,2.295,1.096,3.55h-0.472
			c-0.832-1.248-1.376-2.247-1.376-3.742c0-1.407,0.488-2.542,1.352-3.774H257.974z"/>
		<path d="M261.612,5.273V6.64h-0.703V5.273h-2.455V4.585l2.575-3.566h0.583v3.646h0.824v0.608H261.612z M259.103,4.665h1.807v-2.55
			h-0.016L259.103,4.665z"/>
		<path d="M262.982,8.295c0.68-1.279,1.087-2.047,1.087-3.966c0-1.319-0.455-2.295-1.095-3.55h0.472
			c0.831,1.248,1.375,2.247,1.375,3.742c0,1.407-0.488,2.542-1.352,3.774H262.982z"/>
	</g>
	<g>
		<path d="M212.67,0.779c-0.68,1.279-1.087,2.047-1.087,3.966c0,1.319,0.455,2.295,1.095,3.55h-0.472
			c-0.831-1.248-1.375-2.247-1.375-3.742c0-1.407,0.487-2.542,1.352-3.774H212.67z"/>
		<path d="M214.742,3.442c0.12,0.008,0.248,0.016,0.368,0.016c0.544,0,1.071-0.216,1.071-0.919c0-0.336-0.2-0.888-1.039-0.888
			c-1,0-1.063,0.815-1.096,1.208h-0.688c0-0.824,0.336-1.839,1.814-1.839c1.088,0,1.735,0.624,1.735,1.479
			c0,0.72-0.416,1.063-0.72,1.159v0.016c0.544,0.176,0.936,0.56,0.936,1.311c0,0.92-0.592,1.807-2.022,1.807
			c-0.416,0-0.768-0.104-1.04-0.248c-0.623-0.328-0.791-0.976-0.839-1.624h0.728c0.023,0.528,0.151,1.24,1.199,1.24
			c0.72,0,1.224-0.44,1.224-1.088c0-0.943-0.832-1.031-1.312-1.031c-0.104,0-0.216,0.008-0.32,0.008V3.442z"/>
		<path d="M217.679,8.295c0.68-1.279,1.088-2.047,1.088-3.966c0-1.319-0.456-2.295-1.096-3.55h0.472
			c0.832,1.248,1.375,2.247,1.375,3.742c0,1.407-0.487,2.542-1.351,3.774H217.679z"/>
	</g>
	<g>
		<path d="M104.805,0.779c-0.68,1.279-1.087,2.047-1.087,3.966c0,1.319,0.456,2.295,1.095,3.55h-0.472
			c-0.832-1.248-1.375-2.247-1.375-3.742c0-1.407,0.488-2.542,1.352-3.774H104.805z"/>
		<path d="M105.438,3.034c0-1.831,1.335-2.015,1.943-2.015c0.975,0,1.759,0.632,1.759,1.679c0,1.007-0.664,1.431-1.503,1.879
			l-0.584,0.32c-0.768,0.424-0.936,0.864-0.967,1.08h3.054V6.64h-3.846c0.04-1.167,0.567-1.791,1.319-2.231l0.744-0.432
			c0.6-0.344,1.031-0.576,1.031-1.311c0-0.448-0.288-1.016-1.111-1.016c-1.063,0-1.111,0.991-1.136,1.383H105.438z"/>
		<path d="M109.813,8.295c0.68-1.279,1.087-2.047,1.087-3.966c0-1.319-0.456-2.295-1.095-3.55h0.472
			c0.832,1.248,1.375,2.247,1.375,3.742c0,1.407-0.488,2.542-1.351,3.774H109.813z"/>
	</g>
	<g>
		<path d="M59.231,0.779c-0.68,1.279-1.087,2.047-1.087,3.966c0,1.319,0.456,2.295,1.095,3.55h-0.472
			c-0.832-1.248-1.375-2.247-1.375-3.742c0-1.407,0.488-2.542,1.352-3.774H59.231z"/>
		<path d="M62.383,6.64h-0.752V2.65H60.32v-0.56c0.912-0.064,1.287-0.152,1.511-1.072h0.552V6.64z"/>
		<path d="M64.24,8.295c0.68-1.279,1.087-2.047,1.087-3.966c0-1.319-0.456-2.295-1.095-3.55h0.472
			c0.832,1.248,1.375,2.247,1.375,3.742c0,1.407-0.488,2.542-1.351,3.774H64.24z"/>
	</g>
	<g>
		<path d="M21.487,33.569h-0.775v-5.741h2.655c0.943,0,1.887,0.328,1.887,1.543c0,0.848-0.432,1.16-0.8,1.375
			c0.328,0.136,0.656,0.28,0.688,1.079l0.048,1.04c0.008,0.32,0.048,0.44,0.288,0.576v0.128h-0.951
			c-0.112-0.352-0.136-1.223-0.136-1.439c0-0.472-0.096-1.023-1.023-1.023h-1.879V33.569z M21.487,30.443h1.799
			c0.567,0,1.167-0.144,1.167-0.991c0-0.888-0.647-0.959-1.031-0.959h-1.935V30.443z"/>
		<path d="M29.854,32.258c-0.024,0.2-0.216,0.792-0.744,1.144c-0.192,0.128-0.464,0.288-1.135,0.288
			c-1.175,0-1.871-0.888-1.871-2.095c0-1.295,0.624-2.327,2.007-2.327c1.208,0,1.799,0.959,1.799,2.439h-3.054
			c0,0.872,0.408,1.375,1.215,1.375c0.664,0,1.056-0.512,1.08-0.824H29.854z M29.182,31.146c-0.04-0.647-0.312-1.247-1.167-1.247
			c-0.648,0-1.16,0.6-1.16,1.247H29.182z"/>
		<path d="M34.181,35.225h-0.704v-2.095h-0.016c-0.184,0.296-0.552,0.56-1.112,0.56c-1.423,0-1.839-1.335-1.839-2.335
			c0-1.175,0.632-2.087,1.743-2.087c0.759,0,1.08,0.472,1.247,0.712h0.016v-0.592h0.664V35.225z M32.382,29.899
			c-1.087,0-1.144,1.031-1.144,1.567c0,0.919,0.36,1.615,1.127,1.615c0.448,0,1.144-0.296,1.144-1.407
			C33.51,30.995,33.397,29.899,32.382,29.899z"/>
		<path d="M37.79,33.721c-2.143,0-2.798-1.783-2.798-3.022c0-1.239,0.655-3.022,2.798-3.022c2.143,0,2.798,1.783,2.798,3.022
			C40.588,31.938,39.933,33.721,37.79,33.721z M37.79,28.364c-1.248,0-1.999,0.983-1.999,2.334c0,1.352,0.751,2.335,1.999,2.335
			c1.247,0,1.999-0.983,1.999-2.335C39.789,29.348,39.037,28.364,37.79,28.364z"/>
		<path d="M44.83,33.569h-0.704v-2.575c0-0.728-0.208-1.095-0.896-1.095c-0.4,0-1.104,0.256-1.104,1.391v2.279h-0.704v-4.182h0.664
			v0.592h0.016c0.152-0.224,0.544-0.712,1.263-0.712c0.648,0,1.463,0.264,1.463,1.455V33.569z"/>
	</g>
	<g>
		<path d="M21.487,65.885h-0.775v-5.741h2.655c0.943,0,1.887,0.327,1.887,1.543c0,0.848-0.432,1.159-0.8,1.376
			c0.328,0.135,0.656,0.279,0.688,1.078l0.048,1.04c0.008,0.319,0.048,0.44,0.288,0.575v0.129h-0.951
			c-0.112-0.352-0.136-1.224-0.136-1.439c0-0.473-0.096-1.023-1.023-1.023h-1.879V65.885z M21.487,62.758h1.799
			c0.567,0,1.167-0.144,1.167-0.991c0-0.888-0.647-0.96-1.031-0.96h-1.935V62.758z"/>
		<path d="M29.854,64.573c-0.024,0.201-0.216,0.793-0.744,1.145c-0.192,0.127-0.464,0.287-1.135,0.287
			c-1.175,0-1.871-0.887-1.871-2.095c0-1.295,0.624-2.327,2.007-2.327c1.208,0,1.799,0.96,1.799,2.439h-3.054
			c0,0.871,0.408,1.375,1.215,1.375c0.664,0,1.056-0.512,1.08-0.824H29.854z M29.182,63.461c-0.04-0.646-0.312-1.246-1.167-1.246
			c-0.648,0-1.16,0.6-1.16,1.246H29.182z"/>
		<path d="M34.181,67.54h-0.704v-2.095h-0.016c-0.184,0.296-0.552,0.56-1.112,0.56c-1.423,0-1.839-1.335-1.839-2.334
			c0-1.176,0.632-2.088,1.743-2.088c0.759,0,1.08,0.473,1.247,0.713h0.016v-0.592h0.664V67.54z M32.382,62.215
			c-1.087,0-1.144,1.031-1.144,1.566c0,0.92,0.36,1.615,1.127,1.615c0.448,0,1.144-0.296,1.144-1.407
			C33.51,63.31,33.397,62.215,32.382,62.215z"/>
		<path d="M37.79,66.037c-2.143,0-2.798-1.782-2.798-3.022c0-1.239,0.655-3.021,2.798-3.021c2.143,0,2.798,1.782,2.798,3.021
			C40.588,64.254,39.933,66.037,37.79,66.037z M37.79,60.68c-1.248,0-1.999,0.982-1.999,2.334s0.751,2.335,1.999,2.335
			c1.247,0,1.999-0.983,1.999-2.335S39.037,60.68,37.79,60.68z"/>
		<path d="M42.295,62.287v3.599h-0.704v-3.599h-0.576v-0.583h0.576v-0.721c0-0.631,0.4-0.919,1.087-0.919
			c0.104,0,0.208,0.008,0.32,0.017v0.631c-0.088-0.008-0.2-0.016-0.288-0.016c-0.304,0-0.416,0.152-0.416,0.488v0.52h0.704v0.583
			H42.295z"/>
		<path d="M44.519,62.287v3.599h-0.704v-3.599H43.24v-0.583h0.576v-0.721c0-0.631,0.4-0.919,1.087-0.919
			c0.104,0,0.208,0.008,0.32,0.017v0.631c-0.088-0.008-0.2-0.016-0.288-0.016c-0.304,0-0.416,0.152-0.416,0.488v0.52h0.704v0.583
			H44.519z"/>
	</g>
	<g>
		<path d="M8.655,93.592h2.327c1.495,0,2.415,1.136,2.415,2.791c0,1.287-0.56,2.95-2.447,2.95H8.655V93.592z M9.431,98.669h1.503
			c1.007,0,1.663-0.791,1.663-2.238s-0.664-2.175-1.719-2.175H9.431V98.669z"/>
		<path d="M14.319,94.392v-0.8h0.704v0.8H14.319z M15.023,99.333h-0.704v-4.182h0.704V99.333z"/>
		<path d="M18.454,96.343c-0.008-0.265-0.104-0.704-0.992-0.704c-0.216,0-0.832,0.072-0.832,0.592c0,0.344,0.216,0.424,0.76,0.56
			l0.704,0.176c0.872,0.216,1.175,0.536,1.175,1.104c0,0.863-0.711,1.384-1.655,1.384c-1.655,0-1.775-0.96-1.799-1.464h0.68
			c0.024,0.328,0.12,0.855,1.111,0.855c0.504,0,0.959-0.199,0.959-0.663c0-0.336-0.232-0.448-0.832-0.6l-0.815-0.2
			c-0.584-0.144-0.968-0.439-0.968-1.016c0-0.919,0.76-1.335,1.583-1.335c1.495,0,1.599,1.104,1.599,1.312H18.454z"/>
		<path d="M20.055,96.423c0.032-1,0.696-1.392,1.727-1.392c0.336,0,1.551,0.096,1.551,1.167v2.407c0,0.176,0.088,0.248,0.232,0.248
			c0.064,0,0.152-0.017,0.232-0.032v0.512c-0.12,0.032-0.224,0.08-0.384,0.08c-0.624,0-0.72-0.32-0.744-0.64
			c-0.272,0.296-0.696,0.68-1.511,0.68c-0.768,0-1.311-0.488-1.311-1.208c0-0.352,0.104-1.167,1.271-1.311l1.16-0.145
			c0.167-0.016,0.368-0.08,0.368-0.495c0-0.44-0.32-0.68-0.983-0.68c-0.8,0-0.912,0.487-0.959,0.808H20.055z M22.63,97.199
			c-0.112,0.088-0.288,0.151-1.159,0.264c-0.344,0.048-0.896,0.151-0.896,0.68c0,0.456,0.231,0.728,0.759,0.728
			c0.656,0,1.295-0.424,1.295-0.983V97.199z"/>
		<path d="M24.472,99.333v-5.741h0.704v2.087h0.016c0.304-0.439,0.719-0.64,1.207-0.647c1.111,0,1.743,0.911,1.743,2.087
			c0,0.999-0.416,2.335-1.839,2.335c-0.712,0-1.008-0.408-1.151-0.64h-0.016v0.52H24.472z M26.271,95.664
			c-1.016,0-1.127,1.095-1.127,1.774c0,1.111,0.696,1.407,1.144,1.407c0.768,0,1.127-0.695,1.127-1.615
			C27.414,96.695,27.358,95.664,26.271,95.664z"/>
		<path d="M29.695,99.333h-0.704v-5.741h0.704V99.333z"/>
		<path d="M34.302,98.022c-0.024,0.2-0.216,0.792-0.744,1.144c-0.192,0.128-0.464,0.288-1.135,0.288
			c-1.175,0-1.871-0.888-1.871-2.096c0-1.295,0.624-2.326,2.007-2.326c1.208,0,1.799,0.959,1.799,2.438h-3.054
			c0,0.872,0.408,1.375,1.215,1.375c0.664,0,1.056-0.512,1.08-0.823H34.302z M33.63,96.911c-0.04-0.647-0.312-1.247-1.167-1.247
			c-0.648,0-1.16,0.6-1.16,1.247H33.63z"/>
		<path d="M37.79,99.485c-2.143,0-2.798-1.782-2.798-3.022c0-1.239,0.655-3.021,2.798-3.021c2.143,0,2.798,1.782,2.798,3.021
			C40.588,97.703,39.933,99.485,37.79,99.485z M37.79,94.128c-1.248,0-1.999,0.983-1.999,2.334c0,1.352,0.751,2.335,1.999,2.335
			c1.247,0,1.999-0.983,1.999-2.335C39.789,95.112,39.037,94.128,37.79,94.128z"/>
		<path d="M44.83,99.333h-0.704v-2.575c0-0.728-0.208-1.095-0.896-1.095c-0.4,0-1.104,0.256-1.104,1.391v2.279h-0.704v-4.182h0.664
			v0.592h0.016c0.152-0.225,0.544-0.712,1.263-0.712c0.648,0,1.463,0.264,1.463,1.455V99.333z"/>
	</g>
	<g>
		<path d="M8.655,126.474h2.327c1.495,0,2.415,1.136,2.415,2.791c0,1.287-0.56,2.95-2.447,2.95H8.655V126.474z M9.431,131.551h1.503
			c1.007,0,1.663-0.791,1.663-2.238s-0.664-2.175-1.719-2.175H9.431V131.551z"/>
		<path d="M14.319,127.274v-0.8h0.704v0.8H14.319z M15.023,132.215h-0.704v-4.182h0.704V132.215z"/>
		<path d="M18.454,129.225c-0.008-0.265-0.104-0.704-0.992-0.704c-0.216,0-0.832,0.072-0.832,0.592c0,0.344,0.216,0.424,0.76,0.56
			l0.704,0.176c0.872,0.216,1.175,0.536,1.175,1.104c0,0.863-0.711,1.384-1.655,1.384c-1.655,0-1.775-0.96-1.799-1.464h0.68
			c0.024,0.328,0.12,0.855,1.111,0.855c0.504,0,0.959-0.199,0.959-0.663c0-0.336-0.232-0.448-0.832-0.6l-0.815-0.2
			c-0.584-0.144-0.968-0.439-0.968-1.016c0-0.919,0.76-1.335,1.583-1.335c1.495,0,1.599,1.104,1.599,1.312H18.454z"/>
		<path d="M20.055,129.305c0.032-1,0.696-1.392,1.727-1.392c0.336,0,1.551,0.096,1.551,1.167v2.407c0,0.176,0.088,0.248,0.232,0.248
			c0.064,0,0.152-0.017,0.232-0.032v0.512c-0.12,0.032-0.224,0.08-0.384,0.08c-0.624,0-0.72-0.32-0.744-0.64
			c-0.272,0.296-0.696,0.68-1.511,0.68c-0.768,0-1.311-0.488-1.311-1.208c0-0.352,0.104-1.167,1.271-1.311l1.16-0.145
			c0.167-0.016,0.368-0.08,0.368-0.495c0-0.44-0.32-0.68-0.983-0.68c-0.8,0-0.912,0.487-0.959,0.808H20.055z M22.63,130.081
			c-0.112,0.088-0.288,0.151-1.159,0.264c-0.344,0.048-0.896,0.151-0.896,0.68c0,0.456,0.231,0.728,0.759,0.728
			c0.656,0,1.295-0.424,1.295-0.983V130.081z"/>
		<path d="M24.472,132.215v-5.741h0.704v2.087h0.016c0.304-0.439,0.719-0.64,1.207-0.647c1.111,0,1.743,0.911,1.743,2.087
			c0,0.999-0.416,2.335-1.839,2.335c-0.712,0-1.008-0.408-1.151-0.64h-0.016v0.52H24.472z M26.271,128.545
			c-1.016,0-1.127,1.095-1.127,1.774c0,1.111,0.696,1.407,1.144,1.407c0.768,0,1.127-0.695,1.127-1.615
			C27.414,129.577,27.358,128.545,26.271,128.545z"/>
		<path d="M29.695,132.215h-0.704v-5.741h0.704V132.215z"/>
		<path d="M34.302,130.904c-0.024,0.2-0.216,0.792-0.744,1.144c-0.192,0.128-0.464,0.288-1.135,0.288
			c-1.175,0-1.871-0.888-1.871-2.096c0-1.295,0.624-2.326,2.007-2.326c1.208,0,1.799,0.959,1.799,2.438h-3.054
			c0,0.872,0.408,1.375,1.215,1.375c0.664,0,1.056-0.512,1.08-0.823H34.302z M33.63,129.792c-0.04-0.647-0.312-1.247-1.167-1.247
			c-0.648,0-1.16,0.6-1.16,1.247H33.63z"/>
		<path d="M37.79,132.367c-2.143,0-2.798-1.782-2.798-3.022c0-1.239,0.655-3.021,2.798-3.021c2.143,0,2.798,1.782,2.798,3.021
			C40.588,130.584,39.933,132.367,37.79,132.367z M37.79,127.01c-1.248,0-1.999,0.983-1.999,2.334c0,1.352,0.751,2.335,1.999,2.335
			c1.247,0,1.999-0.983,1.999-2.335C39.789,127.994,39.037,127.01,37.79,127.01z"/>
		<path d="M42.295,128.617v3.599h-0.704v-3.599h-0.576v-0.583h0.576v-0.72c0-0.632,0.4-0.92,1.087-0.92
			c0.104,0,0.208,0.008,0.32,0.017v0.631c-0.088-0.008-0.2-0.016-0.288-0.016c-0.304,0-0.416,0.152-0.416,0.488v0.52h0.704v0.583
			H42.295z"/>
		<path d="M44.519,128.617v3.599h-0.704v-3.599H43.24v-0.583h0.576v-0.72c0-0.632,0.4-0.92,1.087-0.92
			c0.104,0,0.208,0.008,0.32,0.017v0.631c-0.088-0.008-0.2-0.016-0.288-0.016c-0.304,0-0.416,0.152-0.416,0.488v0.52h0.704v0.583
			H44.519z"/>
	</g>
	<g>
		<path d="M4.638,156.832c-0.216-1.008-1.056-1.191-1.607-1.191c-1.04,0-1.879,0.768-1.879,2.278c0,1.352,0.479,2.391,1.903,2.391
			c0.504,0,1.375-0.239,1.639-1.575h0.751c-0.32,2.167-2.079,2.263-2.51,2.263c-1.304,0-2.583-0.848-2.583-3.054
			c0-1.768,1.008-2.99,2.679-2.99c1.479,0,2.247,0.919,2.359,1.879H4.638z"/>
		<path d="M7.015,160.845H6.312v-5.741h0.704V160.845z"/>
		<path d="M10.798,160.845v-0.607l-0.016-0.017c-0.296,0.488-0.656,0.744-1.328,0.744c-0.616,0-1.359-0.296-1.359-1.296v-3.006
			h0.703v2.774c0,0.688,0.352,0.919,0.808,0.919c0.888,0,1.151-0.783,1.151-1.391v-2.303h0.704v4.182H10.798z"/>
		<path d="M13.383,157.247v2.719c0,0.328,0.28,0.328,0.424,0.328h0.248v0.552c-0.256,0.023-0.456,0.056-0.527,0.056
			c-0.696,0-0.848-0.392-0.848-0.896v-2.759h-0.568v-0.583h0.568v-1.168h0.704v1.168h0.671v0.583H13.383z"/>
		<path d="M17.358,158.071c-0.088-0.56-0.4-0.896-0.991-0.896c-0.872,0-1.151,0.831-1.151,1.575c0,0.72,0.176,1.606,1.143,1.606
			c0.472,0,0.879-0.352,1-0.991h0.68c-0.072,0.664-0.48,1.6-1.703,1.6c-1.175,0-1.871-0.888-1.871-2.096
			c0-1.295,0.624-2.326,2.007-2.326c1.096,0,1.511,0.8,1.567,1.527H17.358z"/>
		<path d="M22.15,160.845h-0.704v-2.734c0-0.568-0.16-0.936-0.832-0.936c-0.576,0-1.167,0.336-1.167,1.391v2.279h-0.704v-5.741
			h0.704v2.119h0.016c0.2-0.264,0.552-0.68,1.223-0.68c0.648,0,1.463,0.264,1.463,1.455V160.845z"/>
		<path d="M26.742,156.784c-0.04-0.888-0.776-1.168-1.423-1.168c-0.488,0-1.311,0.136-1.311,1.008c0,0.487,0.344,0.647,0.679,0.728
			l1.639,0.376c0.744,0.176,1.303,0.623,1.303,1.535c0,1.359-1.263,1.734-2.247,1.734c-1.063,0-1.479-0.319-1.735-0.552
			c-0.488-0.439-0.584-0.919-0.584-1.455h0.728c0,1.04,0.848,1.344,1.583,1.344c0.56,0,1.503-0.145,1.503-0.968
			c0-0.6-0.28-0.791-1.223-1.016l-1.175-0.271c-0.376-0.088-1.224-0.352-1.224-1.352c0-0.896,0.584-1.774,1.975-1.774
			c2.007,0,2.207,1.199,2.239,1.831H26.742z"/>
		<path d="M29.391,157.247v2.719c0,0.328,0.28,0.328,0.424,0.328h0.248v0.552c-0.256,0.023-0.456,0.056-0.527,0.056
			c-0.696,0-0.848-0.392-0.848-0.896v-2.759H28.12v-0.583h0.568v-1.168h0.704v1.168h0.671v0.583H29.391z"/>
		<path d="M30.728,157.935c0.032-1,0.696-1.392,1.727-1.392c0.336,0,1.551,0.096,1.551,1.167v2.407c0,0.176,0.088,0.248,0.232,0.248
			c0.064,0,0.152-0.017,0.232-0.032v0.512c-0.12,0.032-0.224,0.08-0.384,0.08c-0.624,0-0.72-0.32-0.744-0.64
			c-0.272,0.296-0.696,0.68-1.511,0.68c-0.768,0-1.312-0.488-1.312-1.208c0-0.352,0.104-1.167,1.271-1.311l1.159-0.145
			c0.168-0.016,0.368-0.08,0.368-0.495c0-0.44-0.32-0.68-0.983-0.68c-0.8,0-0.912,0.487-0.959,0.808H30.728z M33.302,158.71
			c-0.112,0.088-0.288,0.151-1.159,0.264c-0.344,0.048-0.896,0.151-0.896,0.68c0,0.456,0.232,0.728,0.759,0.728
			c0.656,0,1.295-0.424,1.295-0.983V158.71z"/>
		<path d="M36.063,157.247v2.719c0,0.328,0.28,0.328,0.424,0.328h0.248v0.552c-0.256,0.023-0.456,0.056-0.527,0.056
			c-0.696,0-0.848-0.392-0.848-0.896v-2.759h-0.568v-0.583h0.568v-1.168h0.704v1.168h0.671v0.583H36.063z"/>
		<path d="M40.15,160.845v-0.607l-0.016-0.017c-0.295,0.488-0.655,0.744-1.327,0.744c-0.616,0-1.359-0.296-1.359-1.296v-3.006h0.704
			v2.774c0,0.688,0.352,0.919,0.807,0.919c0.888,0,1.151-0.783,1.151-1.391v-2.303h0.704v4.182H40.15z"/>
		<path d="M44.246,157.855c-0.008-0.265-0.104-0.704-0.992-0.704c-0.216,0-0.832,0.072-0.832,0.592c0,0.344,0.216,0.424,0.76,0.56
			l0.704,0.176c0.872,0.216,1.175,0.536,1.175,1.104c0,0.863-0.711,1.384-1.655,1.384c-1.655,0-1.775-0.96-1.799-1.464h0.68
			c0.024,0.328,0.12,0.855,1.111,0.855c0.504,0,0.959-0.199,0.959-0.663c0-0.336-0.232-0.448-0.832-0.6l-0.815-0.2
			c-0.584-0.144-0.968-0.439-0.968-1.016c0-0.919,0.76-1.335,1.583-1.335c1.495,0,1.599,1.104,1.599,1.312H44.246z"/>
		<path d="M18.253,170.845h-4.238v-5.741h4.182v0.688h-3.406v1.76h3.142v0.688h-3.142v1.919h3.462V170.845z"/>
		<path d="M22.589,170.845h-0.704v-2.575c0-0.728-0.208-1.095-0.896-1.095c-0.4,0-1.104,0.256-1.104,1.391v2.279h-0.704v-4.182
			h0.664v0.592h0.016c0.152-0.225,0.544-0.712,1.263-0.712c0.648,0,1.463,0.264,1.463,1.455V170.845z"/>
		<path d="M27.101,170.501c0,0.6-0.008,2.103-1.943,2.103c-0.496,0-1.463-0.136-1.599-1.247h0.704
			c0.128,0.663,0.775,0.663,0.943,0.663c1.215,0,1.191-0.976,1.191-1.471v-0.176h-0.016v0.031c-0.184,0.296-0.551,0.561-1.111,0.561
			c-1.423,0-1.839-1.336-1.839-2.335c0-1.176,0.632-2.087,1.743-2.087c0.759,0,1.079,0.472,1.247,0.712h0.016v-0.592h0.664V170.501z
			 M25.286,170.357c0.448,0,1.144-0.296,1.144-1.407c0-0.68-0.112-1.774-1.127-1.774c-1.087,0-1.144,1.031-1.144,1.566
			C24.159,169.662,24.519,170.357,25.286,170.357z"/>
		<path d="M28.055,167.935c0.032-1,0.696-1.392,1.727-1.392c0.336,0,1.551,0.096,1.551,1.167v2.407c0,0.176,0.088,0.248,0.232,0.248
			c0.064,0,0.152-0.017,0.232-0.032v0.512c-0.12,0.032-0.224,0.08-0.384,0.08c-0.624,0-0.72-0.32-0.744-0.64
			c-0.272,0.296-0.696,0.68-1.511,0.68c-0.768,0-1.311-0.488-1.311-1.208c0-0.352,0.104-1.167,1.271-1.311l1.16-0.145
			c0.167-0.016,0.368-0.08,0.368-0.495c0-0.44-0.32-0.68-0.983-0.68c-0.8,0-0.912,0.487-0.959,0.808H28.055z M30.63,168.71
			c-0.112,0.088-0.288,0.151-1.159,0.264c-0.344,0.048-0.896,0.151-0.896,0.68c0,0.456,0.231,0.728,0.759,0.728
			c0.656,0,1.295-0.424,1.295-0.983V168.71z"/>
		<path d="M35.998,170.501c0,0.6-0.008,2.103-1.943,2.103c-0.496,0-1.463-0.136-1.599-1.247h0.704
			c0.128,0.663,0.775,0.663,0.943,0.663c1.215,0,1.191-0.976,1.191-1.471v-0.176h-0.016v0.031c-0.184,0.296-0.551,0.561-1.111,0.561
			c-1.423,0-1.839-1.336-1.839-2.335c0-1.176,0.632-2.087,1.743-2.087c0.759,0,1.079,0.472,1.247,0.712h0.016v-0.592h0.664V170.501z
			 M34.183,170.357c0.448,0,1.144-0.296,1.144-1.407c0-0.68-0.112-1.774-1.127-1.774c-1.087,0-1.144,1.031-1.144,1.566
			C33.055,169.662,33.415,170.357,34.183,170.357z"/>
		<path d="M40.526,169.534c-0.024,0.2-0.216,0.792-0.744,1.144c-0.192,0.128-0.464,0.288-1.135,0.288
			c-1.175,0-1.871-0.888-1.871-2.096c0-1.295,0.624-2.326,2.007-2.326c1.208,0,1.799,0.959,1.799,2.438h-3.055
			c0,0.872,0.408,1.375,1.215,1.375c0.664,0,1.056-0.512,1.08-0.823H40.526z M39.854,168.422c-0.04-0.647-0.312-1.247-1.167-1.247
			c-0.648,0-1.16,0.6-1.16,1.247H39.854z"/>
		<path d="M44.894,170.845H44.23v-0.576h-0.016c-0.304,0.568-0.784,0.696-1.191,0.696c-1.423,0-1.839-1.336-1.839-2.335
			c0-1.176,0.632-2.087,1.743-2.087c0.759,0,1.08,0.472,1.247,0.712l0.016-0.057v-2.095h0.704V170.845z M43.039,170.357
			c0.448,0,1.144-0.296,1.144-1.407c0-0.68-0.112-1.774-1.127-1.774c-1.087,0-1.144,1.031-1.144,1.566
			C41.912,169.662,42.271,170.357,43.039,170.357z"/>
	</g>
	<g>
		<path d="M14.094,193.098c0.307,0.042,0.612,0.062,0.914,0.062h4.68c0.302,0,0.606-0.021,0.914-0.062
			c-0.021,0.12-0.031,0.234-0.031,0.344s0.01,0.214,0.031,0.312c-0.308-0.036-0.612-0.055-0.914-0.055h-2.086v1.836h1.625
			c0.302,0,0.602-0.021,0.898-0.062c-0.021,0.12-0.031,0.234-0.031,0.344s0.01,0.214,0.031,0.312
			c-0.297-0.041-0.597-0.062-0.898-0.062h-1.625v2.125h2.43c0.302,0,0.606-0.021,0.914-0.062c-0.021,0.12-0.031,0.234-0.031,0.344
			s0.01,0.214,0.031,0.312c-0.308-0.042-0.612-0.062-0.914-0.062h-5.344c-0.297,0-0.599,0.021-0.906,0.062
			c0.021-0.099,0.031-0.203,0.031-0.312s-0.011-0.224-0.031-0.344c0.307,0.042,0.609,0.062,0.906,0.062h2.32v-2.125h-1.656
			c-0.302,0-0.607,0.021-0.914,0.062c0.021-0.099,0.031-0.203,0.031-0.312s-0.011-0.224-0.031-0.344
			c0.307,0.042,0.612,0.062,0.914,0.062h1.656V193.7h-2c-0.302,0-0.607,0.019-0.914,0.055c0.021-0.099,0.031-0.203,0.031-0.312
			S14.114,193.218,14.094,193.098z M17.195,191.668c0.182,0.401,0.422,0.753,0.719,1.055c-0.214,0.026-0.443,0.112-0.688,0.258
			c-0.203-0.442-0.422-0.797-0.656-1.062C16.778,191.872,16.987,191.789,17.195,191.668z"/>
		<path d="M25.57,191.7c0.073,0.25,0.151,0.519,0.234,0.805h2.078c0.292,0,0.581-0.021,0.867-0.062
			c-0.021,0.109-0.031,0.214-0.031,0.312c0,0.109,0.01,0.214,0.031,0.312c-0.287-0.036-0.576-0.055-0.867-0.055H22.75
			c-0.287,0-0.576,0.019-0.867,0.055c0.021-0.099,0.031-0.203,0.031-0.312c0-0.099-0.011-0.203-0.031-0.312
			c0.292,0.042,0.581,0.062,0.867,0.062h2.461c-0.104-0.281-0.203-0.521-0.297-0.719C25.122,191.765,25.341,191.737,25.57,191.7z
			 M22.633,193.411c0.229,0.053,0.477,0.084,0.742,0.094c-0.058,0.151-0.086,0.3-0.086,0.445v1.031h4.062v-1.102
			c0-0.15-0.021-0.307-0.062-0.469c0.203,0.031,0.45,0.053,0.742,0.062c-0.058,0.156-0.086,0.336-0.086,0.539v0.969
			c0,0.151,0.01,0.305,0.031,0.461c-0.183-0.021-0.362-0.031-0.539-0.031h-2.055l0.367,0.227c-0.104,0.068-0.222,0.193-0.352,0.375
			h2.289c0.229,0,0.458-0.01,0.688-0.031c-0.016,0.271-0.023,0.539-0.023,0.805v1.602c0,0.255-0.117,0.433-0.352,0.531
			c-0.245,0.099-0.503,0.148-0.773,0.148c-0.021-0.234-0.104-0.481-0.25-0.742c0.198,0.042,0.362,0.062,0.492,0.062
			c0.167,0,0.25-0.125,0.25-0.375v-1.539h-2.625c-0.344,0.531-0.591,0.875-0.742,1.031l1.906-0.18
			c-0.141-0.182-0.289-0.352-0.445-0.508c0.203-0.047,0.372-0.117,0.508-0.211c0.234,0.391,0.547,0.795,0.938,1.211
			c-0.177,0.042-0.347,0.125-0.508,0.25c-0.062-0.109-0.125-0.213-0.188-0.312c-1.12,0.068-2.078,0.172-2.875,0.312l-0.117-0.656
			c0.224-0.083,0.401-0.211,0.531-0.383c0.151-0.208,0.278-0.393,0.383-0.555h-1.477v1.852c0,0.229,0.008,0.458,0.023,0.688
			c-0.109-0.021-0.224-0.031-0.344-0.031c-0.109,0-0.222,0.011-0.336,0.031c0.016-0.229,0.023-0.458,0.023-0.688v-1.539
			c0-0.266-0.008-0.533-0.023-0.805c0.224,0.021,0.45,0.031,0.68,0.031h1.742c0.005-0.01,0.01-0.021,0.016-0.031
			c0.141-0.239,0.234-0.43,0.281-0.57h-1.812c-0.208,0-0.417,0.011-0.625,0.031c0.036-0.141,0.055-0.283,0.055-0.43v-1.133
			C22.688,193.729,22.669,193.573,22.633,193.411z M26.539,193.043c0.141,0.125,0.297,0.229,0.469,0.312
			c-0.099,0.026-0.318,0.146-0.656,0.359c-0.115,0.078-0.229,0.151-0.344,0.219c0.328,0.131,0.669,0.261,1.023,0.391
			c-0.136,0.084-0.258,0.209-0.367,0.375c-0.245-0.156-0.597-0.341-1.055-0.555c-0.068,0.031-0.128,0.062-0.18,0.094
			c-0.333,0.162-0.779,0.344-1.336,0.547c-0.083-0.135-0.208-0.25-0.375-0.344c0.495-0.141,0.956-0.31,1.383-0.508
			c-0.479-0.197-0.93-0.361-1.352-0.492c0.125-0.088,0.229-0.203,0.312-0.344c0.417,0.198,0.898,0.409,1.445,0.633
			C25.836,193.554,26.18,193.325,26.539,193.043z"/>
		<path d="M33.094,191.637c0.26,0.125,0.534,0.206,0.82,0.242c-0.13,0.1-0.255,0.219-0.375,0.359
			c0.317,0.495,0.727,0.914,1.227,1.258c0.489,0.344,1.206,0.648,2.148,0.914c-0.198,0.183-0.357,0.401-0.477,0.656
			c-0.526-0.229-0.977-0.455-1.352-0.68c-0.016,0.104-0.023,0.209-0.023,0.312c0,0.109,0.01,0.225,0.031,0.344
			c-0.339-0.041-0.683-0.062-1.031-0.062h-1.594c-0.339,0-0.683,0.021-1.031,0.062c0.021-0.119,0.031-0.234,0.031-0.344
			c0-0.083-0.005-0.166-0.016-0.25c-0.38,0.328-0.789,0.641-1.227,0.938c-0.125-0.188-0.312-0.367-0.562-0.539
			c0.849-0.406,1.557-0.898,2.125-1.477C32.356,192.835,32.792,192.257,33.094,191.637z M30.844,195.7
			c0.317,0.037,0.63,0.055,0.938,0.055h2.969c0.317,0,0.63-0.018,0.938-0.055c-0.037,0.297-0.055,0.6-0.055,0.906v1.523
			c0,0.308,0.018,0.612,0.055,0.914c-0.172-0.021-0.284-0.031-0.336-0.031c-0.062,0-0.188,0.011-0.375,0.031
			c0.026-0.224,0.042-0.442,0.047-0.656h-3.516c0.01,0.255,0.031,0.503,0.062,0.742c-0.188-0.021-0.312-0.031-0.375-0.031
			s-0.18,0.011-0.352,0.031c0.047-0.297,0.07-0.597,0.07-0.898v-1.625C30.914,196.299,30.891,195.997,30.844,195.7z M31.5,197.817
			h3.531v-1.492H31.5V197.817z M31.594,194.34c0.297,0.031,0.588,0.047,0.875,0.047h1.594c0.317,0,0.63-0.018,0.938-0.055
			c-0.255-0.156-0.474-0.31-0.656-0.461c-0.448-0.333-0.812-0.76-1.094-1.281C32.786,193.2,32.234,193.784,31.594,194.34z"/>
		<path d="M41.719,191.981c0.292,0.021,0.586,0.031,0.883,0.031h0.773c0.292,0,0.586-0.01,0.883-0.031
			c-0.021,0.151-0.031,0.305-0.031,0.461v0.945c0,0.178,0.01,0.354,0.031,0.531c-0.297-0.025-0.591-0.039-0.883-0.039h-0.484
			c0.177,0.162,0.424,0.32,0.742,0.477c-0.13,0.068-0.248,0.162-0.352,0.281h0.664c0.25,0,0.497-0.021,0.742-0.062
			c-0.016,0.094-0.023,0.186-0.023,0.273c0,0.1,0.008,0.193,0.023,0.281c-0.245-0.041-0.492-0.062-0.742-0.062h-2.211
			c0.224,0.24,0.51,0.409,0.859,0.508c0.469,0.151,1.263,0.242,2.383,0.273c-0.177,0.167-0.312,0.354-0.406,0.562
			c-1.193-0.141-1.995-0.322-2.406-0.547c-0.386-0.182-0.675-0.447-0.867-0.797h-0.008c-0.083,0.162-0.183,0.3-0.297,0.414
			c-0.266,0.261-0.607,0.464-1.023,0.609c-0.406,0.136-1.021,0.273-1.844,0.414c-0.083-0.182-0.229-0.356-0.438-0.523
			c0.63-0.047,1.203-0.13,1.719-0.25c0.432-0.088,0.805-0.26,1.117-0.516c0.057-0.047,0.109-0.096,0.156-0.148h-1.898
			c-0.25,0-0.5,0.021-0.75,0.062c0.021-0.088,0.031-0.182,0.031-0.281c0-0.088-0.011-0.18-0.031-0.273
			c0.25,0.042,0.5,0.062,0.75,0.062h2.156c0.073-0.182,0.125-0.391,0.156-0.625c0.224,0.073,0.442,0.112,0.656,0.117
			c-0.141,0.193-0.242,0.362-0.305,0.508h1.711c-0.193-0.208-0.433-0.388-0.719-0.539c0.146-0.052,0.268-0.125,0.367-0.219h-0.203
			c-0.297,0-0.591,0.014-0.883,0.039c0.021-0.177,0.031-0.354,0.031-0.531v-0.945C41.729,192.286,41.719,192.132,41.719,191.981z
			 M38.57,191.981c0.292,0.021,0.581,0.031,0.867,0.031h0.688c0.297,0,0.591-0.01,0.883-0.031c-0.021,0.151-0.031,0.305-0.031,0.461
			v0.969c0,0.183,0.01,0.362,0.031,0.539c-0.292-0.021-0.586-0.031-0.883-0.031h-0.688c-0.287,0-0.576,0.011-0.867,0.031
			c0.021-0.177,0.031-0.356,0.031-0.539v-0.969C38.581,192.286,38.57,192.132,38.57,191.981z M38.602,196.442
			c0.271,0.042,0.539,0.062,0.805,0.062h0.852c0.271,0,0.539-0.021,0.805-0.062c-0.037,0.24-0.055,0.479-0.055,0.719v1.133
			c0,0.261,0.018,0.519,0.055,0.773c-0.156-0.016-0.261-0.023-0.312-0.023c-0.047,0-0.151,0.008-0.312,0.023
			c0.036-0.219,0.055-0.438,0.055-0.656h-1.336c0.005,0.239,0.028,0.479,0.07,0.719c-0.156-0.021-0.261-0.031-0.312-0.031
			c-0.058,0-0.162,0.011-0.312,0.031c0.042-0.261,0.062-0.519,0.062-0.773v-1.195C38.664,196.921,38.643,196.682,38.602,196.442z
			 M40.469,193.473v-1.031h-1.375v1.031H40.469z M39.156,197.981H40.5v-1.031h-1.344V197.981z M41.664,196.442
			c0.266,0.042,0.534,0.062,0.805,0.062h0.938c0.271,0,0.544-0.021,0.82-0.062c-0.047,0.24-0.07,0.479-0.07,0.719v1.133
			c0,0.261,0.023,0.519,0.07,0.773c-0.156-0.016-0.261-0.023-0.312-0.023c-0.058,0-0.162,0.008-0.312,0.023
			c0.036-0.219,0.055-0.438,0.055-0.656h-1.422c0.005,0.214,0.023,0.425,0.055,0.633c-0.162-0.021-0.266-0.031-0.312-0.031
			c-0.052,0-0.156,0.011-0.312,0.031c0.036-0.261,0.055-0.521,0.055-0.781v-1.102C41.719,196.921,41.7,196.682,41.664,196.442z
			 M42.227,197.981h1.438v-1.031h-1.438V197.981z M43.719,193.442v-1h-1.461v1H43.719z"/>
	</g>
	<g>
		<path d="M70.814,192.161c0.234,0.047,0.474,0.07,0.719,0.07c-0.083,0.162-0.125,0.422-0.125,0.781v4.906h1.32
			c0.385,0,0.768-0.023,1.148-0.07c-0.021,0.109-0.031,0.214-0.031,0.312c0,0.1,0.008,0.188,0.023,0.266
			c0.328-0.447,0.567-0.924,0.719-1.43c0.172-0.609,0.258-1.242,0.258-1.898v-2.18c-0.016-0.229-0.047-0.458-0.094-0.688
			c0.12,0.021,0.234,0.031,0.344,0.031c0.359,0,0.685-0.033,0.977-0.102c0.344-0.067,0.695-0.192,1.055-0.375
			c0.078,0.203,0.192,0.404,0.344,0.602c-0.542,0.016-1.237,0.109-2.086,0.281v1.562h1.43c0.245,0,0.508-0.013,0.789-0.039
			c-0.026,0.104-0.039,0.198-0.039,0.281c0,0.109,0.013,0.203,0.039,0.281c-0.188-0.021-0.451-0.031-0.789-0.031h-0.086v3.375
			c0,0.292,0.018,0.586,0.055,0.883c-0.109-0.021-0.224-0.031-0.344-0.031c-0.099,0-0.203,0.011-0.312,0.031
			c0.042-0.297,0.062-0.591,0.062-0.883v-3.375h-0.805v0.375c0,0.865-0.12,1.639-0.359,2.32c-0.183,0.573-0.451,1.104-0.805,1.594
			c-0.177-0.151-0.362-0.255-0.555-0.312c0.062-0.073,0.12-0.148,0.172-0.227c-0.37-0.042-0.74-0.062-1.109-0.062h-0.781
			c-0.365,0-0.732,0.021-1.102,0.062c0.021-0.275,0.031-0.525,0.031-0.75v-4.711C70.877,192.731,70.856,192.448,70.814,192.161z
			 M71.666,194.129c0.271,0.042,0.539,0.062,0.805,0.062h0.312v-1.719c0-0.281-0.019-0.56-0.055-0.836
			c0.182,0.021,0.401,0.031,0.656,0.031c-0.062,0.131-0.094,0.295-0.094,0.492v2.031h0.273c0.276,0,0.549-0.021,0.82-0.062
			c-0.021,0.109-0.031,0.214-0.031,0.312c0,0.1,0.01,0.193,0.031,0.281c-0.271-0.036-0.544-0.055-0.82-0.055h-0.273v1.906
			c0,0.318,0.021,0.639,0.062,0.961c-0.109-0.021-0.214-0.031-0.312-0.031c-0.109,0-0.214,0.011-0.312,0.031
			c0.036-0.322,0.055-0.643,0.055-0.961v-1.492c-0.25,0.766-0.562,1.459-0.938,2.078c-0.078-0.219-0.193-0.393-0.344-0.523
			c0.266-0.302,0.489-0.648,0.672-1.039c0.141-0.281,0.268-0.591,0.383-0.93h-0.086c-0.266,0-0.534,0.019-0.805,0.055
			c0.021-0.088,0.031-0.182,0.031-0.281C71.697,194.343,71.687,194.239,71.666,194.129z M72.096,192.129l0.406,1.477
			c-0.193,0.016-0.367,0.047-0.523,0.094c-0.099-0.609-0.214-1.099-0.344-1.469C71.77,192.221,71.924,192.187,72.096,192.129z
			 M73.752,195.231c0.031,0.058,0.091,0.141,0.18,0.25c0.141,0.193,0.258,0.365,0.352,0.516c0.067,0.1,0.13,0.198,0.188,0.297
			c-0.115,0.037-0.279,0.117-0.492,0.242c-0.052-0.125-0.138-0.289-0.258-0.492c-0.141-0.224-0.284-0.414-0.43-0.57
			C73.473,195.411,73.627,195.331,73.752,195.231z M74.01,192.098c0.198,0.089,0.396,0.144,0.594,0.164
			c-0.136,0.198-0.365,0.706-0.688,1.523c-0.162-0.078-0.331-0.127-0.508-0.148C73.658,193.179,73.858,192.667,74.01,192.098z"/>
		<path d="M79.127,192.067c0.307,0.042,0.612,0.062,0.914,0.062h4.219c0.302,0,0.602-0.021,0.898-0.062
			c-0.021,0.12-0.031,0.234-0.031,0.344s0.01,0.214,0.031,0.312c-0.297-0.036-0.597-0.055-0.898-0.055h-0.625v2.312h1.031
			c0.317,0,0.641-0.021,0.969-0.062c-0.021,0.109-0.031,0.225-0.031,0.344c0,0.109,0.01,0.225,0.031,0.344
			c-0.328-0.047-0.651-0.07-0.969-0.07h-1.031v2.594c0,0.339,0.021,0.672,0.062,1c-0.13-0.021-0.255-0.031-0.375-0.031
			c-0.13,0-0.255,0.011-0.375,0.031c0.042-0.328,0.062-0.661,0.062-1v-2.594h-1.594c-0.026,0.198-0.058,0.394-0.094,0.586
			c-0.151,0.688-0.359,1.261-0.625,1.719c-0.297,0.516-0.776,0.966-1.438,1.352c-0.188-0.234-0.406-0.419-0.656-0.555
			c0.661-0.229,1.151-0.57,1.469-1.023c0.271-0.406,0.481-0.916,0.633-1.531c0.036-0.182,0.067-0.364,0.094-0.547h-1.328
			c-0.318,0-0.641,0.023-0.969,0.07c0.021-0.119,0.031-0.234,0.031-0.344c0-0.119-0.011-0.234-0.031-0.344
			c0.328,0.042,0.651,0.062,0.969,0.062h1.391c0.01-0.177,0.016-0.354,0.016-0.531v-1.781h-0.836c-0.302,0-0.607,0.019-0.914,0.055
			c0.021-0.099,0.031-0.203,0.031-0.312S79.147,192.187,79.127,192.067z M83.01,194.981v-2.312h-1.508v1.602
			c0,0.234-0.011,0.472-0.031,0.711H83.01z"/>
	</g>
	<g>
		<path d="M172.171,194.411c0.219,0.021,0.44,0.031,0.664,0.031h0.055c0.307,0,0.612-0.01,0.914-0.031
			c-0.021,0.292-0.031,0.586-0.031,0.883v1.344c0,0.245,0.008,0.492,0.023,0.742c0.021,0.016,0.036,0.026,0.047,0.031
			c0.724,0.479,1.669,0.719,2.836,0.719c0.547,0,1.474-0.06,2.781-0.18c-0.141,0.203-0.237,0.472-0.289,0.805h-2.25
			c-1.308,0-2.333-0.253-3.078-0.758c-0.167-0.119-0.284-0.18-0.352-0.18c-0.188,0-0.482,0.253-0.883,0.758
			c-0.156-0.214-0.352-0.383-0.586-0.508l0.828-0.602c0.109-0.072,0.211-0.127,0.305-0.164c0.01-0.224,0.016-0.445,0.016-0.664
			v-1.656h-0.336c-0.224,0-0.445,0.011-0.664,0.031c0.021-0.109,0.031-0.213,0.031-0.312
			C172.202,194.606,172.191,194.51,172.171,194.411z M173.296,192.012c0.151,0.464,0.349,0.961,0.594,1.492
			c-0.193,0.037-0.391,0.102-0.594,0.195c-0.104-0.469-0.3-0.981-0.586-1.539C172.918,192.135,173.113,192.085,173.296,192.012z
			 M174.202,192.575c0.302,0.042,0.606,0.062,0.914,0.062h0.805c0.094-0.219,0.182-0.445,0.266-0.68
			c0.052-0.182,0.078-0.299,0.078-0.352c0.25,0.089,0.534,0.159,0.852,0.211c-0.162,0.136-0.312,0.339-0.453,0.609
			c-0.037,0.073-0.07,0.144-0.102,0.211h1.703c0.307,0,0.609-0.021,0.906-0.062c-0.016,0.109-0.023,0.225-0.023,0.344
			c0,0.1,0.008,0.203,0.023,0.312c-0.297-0.047-0.599-0.07-0.906-0.07h-1.969c-0.224,0.438-0.474,0.92-0.75,1.445h0.969v-0.133
			c0-0.307-0.019-0.619-0.055-0.938c0.198,0.026,0.435,0.039,0.711,0.039c-0.058,0.146-0.086,0.331-0.086,0.555v0.477h0.938
			c0.26,0,0.521-0.01,0.781-0.031c-0.021,0.094-0.031,0.186-0.031,0.273c0,0.089,0.01,0.183,0.031,0.281
			c-0.219-0.021-0.479-0.031-0.781-0.031h-0.938v1h1.086c0.302,0,0.606-0.018,0.914-0.055c-0.021,0.109-0.031,0.225-0.031,0.344
			c0,0.1,0.01,0.203,0.031,0.312c-0.308-0.041-0.612-0.062-0.914-0.062h-1.086v0.062c0,0.365,0.021,0.727,0.062,1.086
			c-0.12-0.021-0.234-0.031-0.344-0.031c-0.12,0-0.234,0.011-0.344,0.031c0.036-0.359,0.055-0.721,0.055-1.086v-0.062h-1.344
			c-0.297,0-0.599,0.021-0.906,0.062c0.021-0.109,0.031-0.213,0.031-0.312c0-0.119-0.011-0.234-0.031-0.344
			c0.307,0.037,0.609,0.055,0.906,0.055h1.344v-1h-1.117c-0.219,0-0.472,0.021-0.758,0.062c-0.047-0.188-0.107-0.352-0.18-0.492
			c0.333-0.094,0.56-0.239,0.68-0.438c0.192-0.312,0.38-0.669,0.562-1.07h-0.586c-0.308,0-0.612,0.023-0.914,0.07
			c0.021-0.109,0.031-0.213,0.031-0.312C174.233,192.799,174.223,192.684,174.202,192.575z"/>
		<path d="M180.265,193.293c0.13,0.021,0.255,0.031,0.375,0.031h0.758v-1.094c0-0.166-0.011-0.336-0.031-0.508
			c0.198,0.021,0.417,0.031,0.656,0.031c-0.068,0.156-0.102,0.336-0.102,0.539v1.031h0.539c0.12,0,0.245-0.01,0.375-0.031
			c-0.021,0.089-0.031,0.183-0.031,0.281c0,0.1,0.01,0.201,0.031,0.305c-0.13-0.021-0.255-0.031-0.375-0.031h-0.539v1.336
			c0.234-0.13,0.463-0.273,0.688-0.43c-0.021,0.339-0.031,0.568-0.031,0.688c-0.24,0.115-0.458,0.219-0.656,0.312v2.602
			c0,0.255-0.097,0.422-0.289,0.5c-0.188,0.083-0.464,0.125-0.828,0.125c-0.052-0.25-0.156-0.458-0.312-0.625h0.43
			c0.317,0,0.477-0.096,0.477-0.289v-2.039c-0.464,0.25-0.787,0.464-0.969,0.641c-0.016-0.219-0.091-0.469-0.227-0.75
			c0.417-0.13,0.815-0.283,1.195-0.461v-1.609h-0.758c-0.12,0-0.245,0.011-0.375,0.031c0.021-0.104,0.031-0.205,0.031-0.305
			C180.296,193.476,180.285,193.382,180.265,193.293z M184.429,195.161c0.167,0.062,0.375,0.117,0.625,0.164
			c-0.203,0.178-0.357,0.378-0.461,0.602c-0.005,0.011-0.008,0.019-0.008,0.023h1.992c0.271,0,0.544-0.023,0.82-0.07
			c-0.021,0.109-0.031,0.214-0.031,0.312c0,0.1,0.01,0.193,0.031,0.281c-0.276-0.041-0.55-0.062-0.82-0.062h-0.312
			c-0.099,0.365-0.242,0.693-0.43,0.984c-0.078,0.136-0.169,0.253-0.273,0.352c0.562,0.256,1.13,0.531,1.703,0.828
			c-0.151,0.167-0.266,0.341-0.344,0.523c-0.344-0.239-0.826-0.526-1.445-0.859c-0.099-0.057-0.201-0.109-0.305-0.156
			c-0.193,0.141-0.412,0.266-0.656,0.375c-0.516,0.239-1.141,0.435-1.875,0.586c-0.094-0.224-0.24-0.425-0.438-0.602
			c0.838-0.073,1.479-0.2,1.922-0.383c0.177-0.067,0.333-0.143,0.469-0.227c-0.391-0.15-0.854-0.31-1.391-0.477
			c0.317-0.416,0.534-0.731,0.648-0.945h-0.484c-0.276,0-0.55,0.021-0.82,0.062c0.021-0.088,0.031-0.182,0.031-0.281
			c0-0.099-0.011-0.203-0.031-0.312c0.271,0.047,0.544,0.07,0.82,0.07h0.734C184.205,195.726,184.314,195.463,184.429,195.161z
			 M185.741,193.262c0.266,0.141,0.495,0.232,0.688,0.273c-0.25,0.193-0.534,0.539-0.852,1.039h0.789
			c0.271,0,0.539-0.023,0.805-0.07c-0.016,0.109-0.023,0.214-0.023,0.312c0,0.1,0.008,0.193,0.023,0.281
			c-0.266-0.036-0.534-0.055-0.805-0.055h-2.789c-0.271,0-0.539,0.019-0.805,0.055c0.021-0.088,0.031-0.182,0.031-0.281
			c0-0.099-0.011-0.203-0.031-0.312c0.266,0.047,0.534,0.07,0.805,0.07h1.586C185.423,194.101,185.616,193.664,185.741,193.262z
			 M185.054,191.723c0.088,0.281,0.188,0.586,0.297,0.914h0.852c0.271,0,0.544-0.021,0.82-0.062c-0.026,0.1-0.039,0.201-0.039,0.305
			c0,0.1,0.013,0.193,0.039,0.281c-0.276-0.041-0.55-0.062-0.82-0.062h-2.367c-0.271,0-0.542,0.021-0.812,0.062
			c0.021-0.088,0.031-0.182,0.031-0.281c0-0.104-0.011-0.205-0.031-0.305c0.271,0.042,0.542,0.062,0.812,0.062h0.914
			c-0.12-0.322-0.237-0.596-0.352-0.82C184.605,191.796,184.824,191.765,185.054,191.723z M184.054,193.325
			c0.13,0.303,0.305,0.615,0.523,0.938c-0.177,0.037-0.341,0.117-0.492,0.242c-0.162-0.364-0.341-0.688-0.539-0.969
			C183.749,193.489,183.918,193.418,184.054,193.325z M185.718,196.411h-1.336c-0.104,0.219-0.214,0.448-0.328,0.688
			c0.328,0.136,0.661,0.273,1,0.414c0.088-0.072,0.164-0.148,0.227-0.227C185.462,197.073,185.608,196.781,185.718,196.411z"/>
	</g>
	<g>
		<path d="M306.075,192.161c0.234,0.047,0.474,0.07,0.719,0.07c-0.084,0.162-0.125,0.422-0.125,0.781v4.906h1.32
			c0.385,0,0.768-0.023,1.148-0.07c-0.021,0.109-0.031,0.214-0.031,0.312c0,0.1,0.008,0.188,0.023,0.266
			c0.328-0.447,0.567-0.924,0.719-1.43c0.172-0.609,0.258-1.242,0.258-1.898v-2.18c-0.016-0.229-0.047-0.458-0.094-0.688
			c0.119,0.021,0.234,0.031,0.344,0.031c0.359,0,0.685-0.033,0.977-0.102c0.344-0.067,0.695-0.192,1.055-0.375
			c0.078,0.203,0.192,0.404,0.344,0.602c-0.542,0.016-1.237,0.109-2.086,0.281v1.562h1.43c0.244,0,0.508-0.013,0.789-0.039
			c-0.026,0.104-0.039,0.198-0.039,0.281c0,0.109,0.013,0.203,0.039,0.281c-0.188-0.021-0.451-0.031-0.789-0.031h-0.086v3.375
			c0,0.292,0.018,0.586,0.055,0.883c-0.109-0.021-0.225-0.031-0.344-0.031c-0.1,0-0.203,0.011-0.312,0.031
			c0.041-0.297,0.062-0.591,0.062-0.883v-3.375h-0.805v0.375c0,0.865-0.12,1.639-0.359,2.32c-0.183,0.573-0.451,1.104-0.805,1.594
			c-0.178-0.151-0.362-0.255-0.555-0.312c0.062-0.073,0.119-0.148,0.172-0.227c-0.37-0.042-0.74-0.062-1.109-0.062h-0.781
			c-0.365,0-0.732,0.021-1.102,0.062c0.021-0.275,0.031-0.525,0.031-0.75v-4.711C306.138,192.731,306.116,192.448,306.075,192.161z
			 M306.927,194.129c0.271,0.042,0.539,0.062,0.805,0.062h0.312v-1.719c0-0.281-0.019-0.56-0.055-0.836
			c0.182,0.021,0.4,0.031,0.656,0.031c-0.062,0.131-0.094,0.295-0.094,0.492v2.031h0.273c0.275,0,0.549-0.021,0.82-0.062
			c-0.021,0.109-0.031,0.214-0.031,0.312c0,0.1,0.01,0.193,0.031,0.281c-0.271-0.036-0.545-0.055-0.82-0.055h-0.273v1.906
			c0,0.318,0.021,0.639,0.062,0.961c-0.109-0.021-0.214-0.031-0.312-0.031c-0.109,0-0.214,0.011-0.312,0.031
			c0.036-0.322,0.055-0.643,0.055-0.961v-1.492c-0.25,0.766-0.562,1.459-0.938,2.078c-0.078-0.219-0.193-0.393-0.344-0.523
			c0.266-0.302,0.489-0.648,0.672-1.039c0.141-0.281,0.268-0.591,0.383-0.93h-0.086c-0.266,0-0.534,0.019-0.805,0.055
			c0.021-0.088,0.031-0.182,0.031-0.281C306.958,194.343,306.947,194.239,306.927,194.129z M307.356,192.129l0.406,1.477
			c-0.193,0.016-0.367,0.047-0.523,0.094c-0.1-0.609-0.214-1.099-0.344-1.469C307.03,192.221,307.185,192.187,307.356,192.129z
			 M309.013,195.231c0.031,0.058,0.091,0.141,0.18,0.25c0.141,0.193,0.258,0.365,0.352,0.516c0.067,0.1,0.13,0.198,0.188,0.297
			c-0.115,0.037-0.279,0.117-0.492,0.242c-0.053-0.125-0.139-0.289-0.258-0.492c-0.141-0.224-0.284-0.414-0.43-0.57
			C308.733,195.411,308.888,195.331,309.013,195.231z M309.271,192.098c0.197,0.089,0.396,0.144,0.594,0.164
			c-0.136,0.198-0.365,0.706-0.688,1.523c-0.162-0.078-0.331-0.127-0.508-0.148C308.919,193.179,309.119,192.667,309.271,192.098z"
			/>
		<path d="M314.388,192.067c0.307,0.042,0.611,0.062,0.914,0.062h4.219c0.302,0,0.602-0.021,0.898-0.062
			c-0.021,0.12-0.031,0.234-0.031,0.344s0.01,0.214,0.031,0.312c-0.297-0.036-0.597-0.055-0.898-0.055h-0.625v2.312h1.031
			c0.317,0,0.641-0.021,0.969-0.062c-0.021,0.109-0.031,0.225-0.031,0.344c0,0.109,0.01,0.225,0.031,0.344
			c-0.328-0.047-0.651-0.07-0.969-0.07h-1.031v2.594c0,0.339,0.021,0.672,0.062,1c-0.131-0.021-0.256-0.031-0.375-0.031
			c-0.131,0-0.256,0.011-0.375,0.031c0.041-0.328,0.062-0.661,0.062-1v-2.594h-1.594c-0.026,0.198-0.058,0.394-0.094,0.586
			c-0.151,0.688-0.359,1.261-0.625,1.719c-0.297,0.516-0.776,0.966-1.438,1.352c-0.188-0.234-0.406-0.419-0.656-0.555
			c0.661-0.229,1.15-0.57,1.469-1.023c0.271-0.406,0.481-0.916,0.633-1.531c0.036-0.182,0.067-0.364,0.094-0.547h-1.328
			c-0.318,0-0.641,0.023-0.969,0.07c0.021-0.119,0.031-0.234,0.031-0.344c0-0.119-0.011-0.234-0.031-0.344
			c0.328,0.042,0.65,0.062,0.969,0.062h1.391c0.01-0.177,0.016-0.354,0.016-0.531v-1.781h-0.836c-0.303,0-0.607,0.019-0.914,0.055
			c0.021-0.099,0.031-0.203,0.031-0.312S314.408,192.187,314.388,192.067z M318.271,194.981v-2.312h-1.508v1.602
			c0,0.234-0.011,0.472-0.031,0.711H318.271z"/>
	</g>
	<g>
	</g>
	<g>
	</g>
	<g>
	</g>
	<g>
	</g>
	<g>
	</g>
	<g>
	</g>
	<g>
	</g>
	<g>
	</g>
	<g>
	</g>
	<g>
	</g>
	<g>
	</g>
	<g>
	</g>
	<g>
	</g>
	<g>
	</g>
	<g>
	</g>
</g>
</svg>
