<?xml version="1.0" encoding="utf-8"?>
<!-- Generator: Adobe Illustrator 28.2.0, SVG Export Plug-In . SVG Version: 6.00 Build 0)  -->
<svg version="1.1" xmlns="http://www.w3.org/2000/svg" xmlns:xlink="http://www.w3.org/1999/xlink" x="0px" y="0px"
	 width="314.345px" height="148.036px" viewBox="0 0 314.345 148.036" style="enable-background:new 0 0 314.345 148.036;"
	 xml:space="preserve">
<style type="text/css">
	.st0{fill:none;stroke:#000000;stroke-miterlimit:10;}
	.st1{fill:none;stroke:#666666;stroke-width:0.5;stroke-miterlimit:10;stroke-dasharray:1;}
</style>
<g id="レイヤー_1">
	<polyline class="st0" points="314.345,108.653 106.705,108.653 106.705,84.318 45.626,84.318 45.626,108.653 29.918,108.653 	"/>
	<polyline class="st0" points="313.806,42.986 137.109,42.986 137.109,18.651 45.626,18.651 45.626,42.986 29.918,42.986 	"/>
	<polyline class="st0" points="313.806,75.819 137.109,75.819 137.109,51.484 106.705,51.484 106.705,75.819 29.918,75.819 	"/>
	<polyline class="st0" points="314.345,141.487 106.705,141.487 106.705,117.152 60.997,117.152 60.997,141.487 29.918,141.487 	"/>
	<line class="st1" x1="45.626" y1="11.26" x2="45.626" y2="148.036"/>
	<line class="st1" x1="60.997" y1="11.26" x2="60.997" y2="148.036"/>
	<line class="st1" x1="106.705" y1="11.26" x2="106.705" y2="148.036"/>
	<line class="st1" x1="137.109" y1="11.26" x2="137.109" y2="148.036"/>
</g>
<g id="レイヤー_2">
	<g>
		<path d="M4.925,33.818H0.688v-5.741h4.182v0.688H1.463v1.759h3.142v0.688H1.463v1.919h3.462V33.818z"/>
		<path d="M9.254,33.818H8.358l-1.04-1.575l-1.007,1.575H5.424l1.471-2.151l-1.399-2.031h0.904l0.967,1.471l0.968-1.471h0.863
			l-1.415,2.031L9.254,33.818z"/>
		<path d="M13.406,32.507c-0.024,0.2-0.216,0.792-0.744,1.144c-0.192,0.128-0.464,0.288-1.135,0.288
			c-1.175,0-1.871-0.888-1.871-2.095c0-1.295,0.624-2.327,2.007-2.327c1.208,0,1.799,0.959,1.799,2.439h-3.054
			c0,0.872,0.408,1.375,1.215,1.375c0.664,0,1.056-0.512,1.08-0.824H13.406z M12.734,31.396c-0.04-0.647-0.312-1.247-1.167-1.247
			c-0.648,0-1.16,0.6-1.16,1.247H12.734z"/>
		<path d="M16.918,31.044c-0.088-0.56-0.4-0.896-0.992-0.896c-0.871,0-1.151,0.832-1.151,1.575c0,0.72,0.176,1.607,1.144,1.607
			c0.472,0,0.879-0.352,1-0.991h0.68c-0.072,0.664-0.48,1.599-1.703,1.599c-1.175,0-1.871-0.888-1.871-2.095
			c0-1.295,0.624-2.327,2.007-2.327c1.096,0,1.511,0.8,1.567,1.527H16.918z"/>
		<path d="M21.03,33.818v-0.607l-0.016-0.016c-0.296,0.488-0.656,0.744-1.328,0.744c-0.616,0-1.359-0.296-1.359-1.295v-3.006h0.703
			v2.774c0,0.688,0.352,0.919,0.808,0.919c0.888,0,1.151-0.784,1.151-1.391v-2.303h0.704v4.182H21.03z"/>
		<path d="M23.615,30.22v2.719c0,0.328,0.28,0.328,0.424,0.328h0.248v0.552c-0.256,0.024-0.456,0.056-0.527,0.056
			c-0.696,0-0.848-0.392-0.848-0.896V30.22h-0.568v-0.583h0.568v-1.167h0.704v1.167h0.671v0.583H23.615z"/>
		<path d="M28.526,32.507c-0.024,0.2-0.216,0.792-0.744,1.144c-0.192,0.128-0.464,0.288-1.135,0.288
			c-1.175,0-1.871-0.888-1.871-2.095c0-1.295,0.624-2.327,2.007-2.327c1.208,0,1.799,0.959,1.799,2.439h-3.054
			c0,0.872,0.408,1.375,1.215,1.375c0.664,0,1.056-0.512,1.08-0.824H28.526z M27.854,31.396c-0.04-0.647-0.312-1.247-1.167-1.247
			c-0.648,0-1.16,0.6-1.16,1.247H27.854z"/>
	</g>
	<g>
		<path d="M10.432,60.393h2.327c1.496,0,2.415,1.136,2.415,2.79c0,1.287-0.56,2.951-2.447,2.951h-2.295V60.393z M11.208,65.47h1.503
			c1.008,0,1.663-0.791,1.663-2.238s-0.664-2.176-1.719-2.176h-1.447V65.47z"/>
		<path d="M17.783,61.832c1.335,0,1.943,1.128,1.943,2.207c0,1.08-0.607,2.207-1.943,2.207c-1.335,0-1.943-1.127-1.943-2.207
			C15.84,62.959,16.448,61.832,17.783,61.832z M17.783,65.638c1.008,0,1.215-1.039,1.215-1.6c0-0.559-0.208-1.599-1.215-1.599
			c-1.007,0-1.215,1.04-1.215,1.599C16.567,64.599,16.775,65.638,17.783,65.638z"/>
		<path d="M23.934,66.134H23.23v-2.575c0-0.728-0.208-1.095-0.896-1.095c-0.4,0-1.104,0.256-1.104,1.391v2.279h-0.704v-4.182h0.664
			v0.592h0.016c0.152-0.225,0.544-0.713,1.264-0.713c0.647,0,1.463,0.265,1.463,1.455V66.134z"/>
		<path d="M28.526,64.822c-0.024,0.201-0.216,0.793-0.744,1.145c-0.192,0.127-0.464,0.287-1.135,0.287
			c-1.175,0-1.871-0.887-1.871-2.095c0-1.295,0.624-2.327,2.007-2.327c1.208,0,1.799,0.96,1.799,2.439h-3.055
			c0,0.871,0.408,1.375,1.215,1.375c0.664,0,1.056-0.512,1.08-0.824H28.526z M27.854,63.71c-0.04-0.646-0.312-1.246-1.167-1.246
			c-0.648,0-1.16,0.6-1.16,1.246H27.854z"/>
	</g>
	<g>
		<path d="M11.711,93.841h2.526c1.071,0,1.623,0.664,1.623,1.447c0,0.376-0.136,0.903-0.768,1.199
			c0.376,0.152,1.04,0.416,1.04,1.399c0,0.92-0.68,1.695-1.951,1.695h-2.471V93.841z M12.487,96.272h1.399
			c0.744,0,1.199-0.224,1.199-0.928c0-0.535-0.328-0.839-1.191-0.839h-1.407V96.272z M12.487,98.918h1.655
			c0.808,0,1.215-0.407,1.215-1.047c0-0.808-0.712-0.968-1.343-0.968h-1.527V98.918z"/>
		<path d="M19.702,99.583v-0.607l-0.016-0.017c-0.296,0.488-0.656,0.744-1.328,0.744c-0.616,0-1.359-0.296-1.359-1.296v-3.006h0.703
			v2.774c0,0.688,0.352,0.919,0.808,0.919c0.888,0,1.151-0.783,1.151-1.391v-2.303h0.704v4.182H19.702z"/>
		<path d="M23.798,96.592c-0.008-0.265-0.104-0.704-0.992-0.704c-0.216,0-0.832,0.072-0.832,0.592c0,0.344,0.216,0.424,0.76,0.56
			l0.704,0.176c0.872,0.216,1.175,0.536,1.175,1.104c0,0.863-0.711,1.384-1.655,1.384c-1.655,0-1.775-0.96-1.799-1.464h0.68
			c0.024,0.328,0.12,0.855,1.111,0.855c0.504,0,0.959-0.199,0.959-0.663c0-0.336-0.232-0.448-0.832-0.6l-0.815-0.2
			c-0.584-0.144-0.968-0.439-0.968-1.016c0-0.919,0.76-1.335,1.583-1.335c1.495,0,1.599,1.104,1.599,1.312H23.798z"/>
		<path d="M28.038,95.401h0.775c-0.488,1.367-0.967,2.734-1.503,4.102c-0.664,1.695-0.736,1.791-1.639,1.791
			c-0.104,0-0.184-0.032-0.296-0.064v-0.64c0.088,0.032,0.232,0.072,0.424,0.072c0.368,0,0.408-0.104,0.744-0.968l-1.551-4.293h0.8
			l1.111,3.406h0.016L28.038,95.401z"/>
	</g>
	<g>
		<path d="M8.631,130.793l-0.6,1.671h-0.8l2.159-5.741h0.879l2.079,5.741h-0.848l-0.567-1.671H8.631z M10.654,130.105l-0.848-2.526
			H9.791l-0.919,2.526H10.654z"/>
		<path d="M15.59,129.69c-0.088-0.56-0.4-0.896-0.991-0.896c-0.872,0-1.151,0.831-1.151,1.575c0,0.72,0.176,1.606,1.143,1.606
			c0.472,0,0.879-0.352,1-0.991h0.68c-0.072,0.664-0.48,1.6-1.703,1.6c-1.175,0-1.871-0.888-1.871-2.096
			c0-1.295,0.624-2.326,2.007-2.326c1.096,0,1.511,0.8,1.567,1.527H15.59z"/>
		<path d="M17.839,128.866v2.719c0,0.328,0.28,0.328,0.424,0.328h0.248v0.552c-0.256,0.023-0.456,0.056-0.527,0.056
			c-0.696,0-0.848-0.392-0.848-0.896v-2.759h-0.568v-0.583h0.568v-1.168h0.704v1.168h0.671v0.583H17.839z"/>
		<path d="M19.216,127.523v-0.8h0.704v0.8H19.216z M19.919,132.464h-0.704v-4.182h0.704V132.464z"/>
		<path d="M23.623,128.283h0.768l-1.591,4.182h-0.751l-1.527-4.182h0.815l1.087,3.406h0.016L23.623,128.283z"/>
		<path d="M28.526,131.153c-0.024,0.2-0.216,0.792-0.744,1.144c-0.192,0.128-0.464,0.288-1.135,0.288
			c-1.175,0-1.871-0.888-1.871-2.096c0-1.295,0.624-2.326,2.007-2.326c1.208,0,1.799,0.959,1.799,2.438h-3.054
			c0,0.872,0.408,1.375,1.215,1.375c0.664,0,1.056-0.512,1.08-0.823H28.526z M27.854,130.042c-0.04-0.647-0.312-1.247-1.167-1.247
			c-0.648,0-1.16,0.6-1.16,1.247H27.854z"/>
	</g>
	<g>
		<path d="M134.604,0.779c-0.68,1.279-1.087,2.047-1.087,3.966c0,1.319,0.456,2.295,1.095,3.55h-0.472
			c-0.832-1.248-1.375-2.247-1.375-3.742c0-1.407,0.488-2.542,1.352-3.774H134.604z"/>
		<path d="M138.244,5.273V6.64h-0.703V5.273h-2.455V4.585l2.575-3.566h0.583v3.646h0.824v0.608H138.244z M135.733,4.665h1.807v-2.55
			h-0.016L135.733,4.665z"/>
		<path d="M139.613,8.295c0.68-1.279,1.087-2.047,1.087-3.966c0-1.319-0.456-2.295-1.095-3.55h0.472
			c0.832,1.248,1.375,2.247,1.375,3.742c0,1.407-0.488,2.542-1.351,3.774H139.613z"/>
	</g>
	<g>
		<path d="M104.437,0.779c-0.68,1.279-1.087,2.047-1.087,3.966c0,1.319,0.456,2.295,1.095,3.55h-0.472
			c-0.832-1.248-1.375-2.247-1.375-3.742c0-1.407,0.488-2.542,1.352-3.774H104.437z"/>
		<path d="M106.509,3.442c0.12,0.008,0.248,0.016,0.368,0.016c0.544,0,1.071-0.216,1.071-0.919c0-0.336-0.2-0.888-1.039-0.888
			c-1,0-1.063,0.815-1.096,1.208h-0.688c0-0.824,0.336-1.839,1.815-1.839c1.087,0,1.735,0.624,1.735,1.479
			c0,0.72-0.416,1.063-0.72,1.159v0.016c0.543,0.176,0.936,0.56,0.936,1.311c0,0.92-0.592,1.807-2.023,1.807
			c-0.416,0-0.768-0.104-1.04-0.248c-0.624-0.328-0.792-0.976-0.839-1.624h0.728c0.024,0.528,0.152,1.24,1.199,1.24
			c0.72,0,1.224-0.44,1.224-1.088c0-0.943-0.832-1.031-1.312-1.031c-0.104,0-0.216,0.008-0.32,0.008V3.442z"/>
		<path d="M109.446,8.295c0.68-1.279,1.087-2.047,1.087-3.966c0-1.319-0.456-2.295-1.095-3.55h0.472
			c0.832,1.248,1.375,2.247,1.375,3.742c0,1.407-0.488,2.542-1.351,3.774H109.446z"/>
	</g>
	<g>
		<path d="M58.492,0.779c-0.68,1.279-1.087,2.047-1.087,3.966c0,1.319,0.456,2.295,1.095,3.55h-0.472
			c-0.832-1.248-1.375-2.247-1.375-3.742c0-1.407,0.488-2.542,1.352-3.774H58.492z"/>
		<path d="M59.125,3.034c0-1.831,1.335-2.015,1.943-2.015c0.975,0,1.759,0.632,1.759,1.679c0,1.007-0.664,1.431-1.503,1.879
			l-0.584,0.32c-0.768,0.424-0.936,0.864-0.967,1.08h3.054V6.64h-3.846c0.04-1.167,0.567-1.791,1.319-2.231l0.744-0.432
			c0.6-0.344,1.031-0.576,1.031-1.311c0-0.448-0.288-1.016-1.111-1.016c-1.063,0-1.111,0.991-1.136,1.383H59.125z"/>
		<path d="M63.5,8.295c0.68-1.279,1.087-2.047,1.087-3.966c0-1.319-0.456-2.295-1.095-3.55h0.472
			c0.832,1.248,1.375,2.247,1.375,3.742c0,1.407-0.488,2.542-1.351,3.774H63.5z"/>
	</g>
	<g>
		<path d="M43.153,0.779c-0.68,1.279-1.087,2.047-1.087,3.966c0,1.319,0.456,2.295,1.095,3.55h-0.472
			c-0.832-1.248-1.375-2.247-1.375-3.742c0-1.407,0.488-2.542,1.352-3.774H43.153z"/>
		<path d="M46.305,6.64h-0.752V2.65h-1.311v-0.56c0.912-0.064,1.287-0.152,1.511-1.072h0.552V6.64z"/>
		<path d="M48.162,8.295c0.68-1.279,1.087-2.047,1.087-3.966c0-1.319-0.456-2.295-1.095-3.55h0.472
			c0.832,1.248,1.375,2.247,1.375,3.742c0,1.407-0.488,2.542-1.351,3.774H48.162z"/>
	</g>
	<g>
	</g>
	<g>
	</g>
	<g>
	</g>
	<g>
	</g>
	<g>
	</g>
	<g>
	</g>
	<g>
	</g>
	<g>
	</g>
	<g>
	</g>
	<g>
	</g>
	<g>
	</g>
	<g>
	</g>
	<g>
	</g>
	<g>
	</g>
	<g>
	</g>
</g>
</svg>
