<?xml version="1.0" encoding="utf-8"?>
<!-- Generator: Adobe Illustrator 28.2.0, SVG Export Plug-In . SVG Version: 6.00 Build 0)  -->
<svg version="1.1" id="レイヤー_1" xmlns="http://www.w3.org/2000/svg" xmlns:xlink="http://www.w3.org/1999/xlink" x="0px"
	 y="0px" width="332.87px" height="100.094px" viewBox="0 0 332.87 100.094" style="enable-background:new 0 0 332.87 100.094;"
	 xml:space="preserve">
<style type="text/css">
	.st0{fill:#FFFFFF;stroke:#000000;}
	.st1{fill:#FFFFFF;}
	.st2{fill:none;stroke:#000000;}
	.st3{fill:none;stroke:#808080;}
	.st4{stroke:#000000;}
	.st5{stroke:#000000;stroke-width:0.5;}
</style>
<rect x="236.439" y="12.669" class="st0" width="88.583" height="22.146"/>
<line class="st0" x1="280.731" y1="34.815" x2="280.731" y2="12.669"/>
<rect x="243.275" y="5.627" class="st1" width="30.257" height="12.309"/>
<g>
	<path d="M253.602,14.536v-4.238c0-0.21,0.021-1.119,0.021-1.789h-0.021l-2.019,6.027h-0.96l-2.019-6.017h-0.02
		c0,0.66,0.02,1.569,0.02,1.779v4.238h-0.939V7.36h1.39l2.049,6.067h0.02l2.039-6.067h1.379v7.176H253.602z"/>
	<path d="M259.154,14.726c-2.679,0-3.498-2.229-3.498-3.778c0-1.549,0.819-3.778,3.498-3.778s3.498,2.229,3.498,3.778
		C262.652,12.497,261.833,14.726,259.154,14.726z M259.154,8.029c-1.559,0-2.498,1.229-2.498,2.918c0,1.689,0.939,2.918,2.498,2.918
		c1.56,0,2.499-1.229,2.499-2.918C261.653,9.258,260.714,8.029,259.154,8.029z"/>
	<path d="M267.924,7.36h1.09l-2.619,7.176h-1.029l-2.618-7.176h1.079l2.049,6.117h0.021L267.924,7.36z"/>
</g>
<g>
	<path d="M13.267,7.36h5.827v0.86h-2.429v6.316h-0.97V8.219h-2.428V7.36z"/>
	<path d="M19.686,14.536h-0.879V9.309h0.83v0.87h0.02c0.35-0.61,0.81-1.02,1.469-1.02c0.11,0,0.16,0.01,0.23,0.03v0.91h-0.33
		c-0.819,0-1.339,0.64-1.339,1.399V14.536z"/>
	<path d="M22.187,8.359v-1h0.88v1H22.187z M23.067,14.536h-0.88V9.309h0.88V14.536z"/>
	<path d="M28.724,14.106c0,0.75-0.01,2.628-2.429,2.628c-0.62,0-1.829-0.17-1.999-1.559h0.88c0.16,0.83,0.969,0.83,1.179,0.83
		c1.519,0,1.489-1.219,1.489-1.839v-0.22h-0.02v0.04c-0.23,0.37-0.69,0.7-1.389,0.7c-1.779,0-2.299-1.669-2.299-2.918
		c0-1.469,0.79-2.608,2.179-2.608c0.949,0,1.349,0.589,1.559,0.89h0.02v-0.74h0.83V14.106z M26.456,13.926
		c0.56,0,1.429-0.37,1.429-1.759c0-0.85-0.14-2.219-1.41-2.219c-1.359,0-1.429,1.289-1.429,1.959
		C25.046,13.057,25.496,13.926,26.456,13.926z"/>
	<path d="M34.284,14.106c0,0.75-0.01,2.628-2.429,2.628c-0.62,0-1.829-0.17-1.999-1.559h0.879c0.16,0.83,0.97,0.83,1.18,0.83
		c1.519,0,1.489-1.219,1.489-1.839v-0.22h-0.02v0.04c-0.23,0.37-0.69,0.7-1.389,0.7c-1.779,0-2.299-1.669-2.299-2.918
		c0-1.469,0.79-2.608,2.179-2.608c0.949,0,1.349,0.589,1.559,0.89h0.02v-0.74h0.83V14.106z M32.015,13.926
		c0.56,0,1.43-0.37,1.43-1.759c0-0.85-0.14-2.219-1.41-2.219c-1.359,0-1.429,1.289-1.429,1.959
		C30.606,13.057,31.056,13.926,32.015,13.926z"/>
	<path d="M39.945,12.897c-0.03,0.25-0.27,0.99-0.93,1.429c-0.24,0.16-0.58,0.36-1.419,0.36c-1.469,0-2.338-1.109-2.338-2.619
		c0-1.619,0.779-2.908,2.508-2.908c1.509,0,2.249,1.199,2.249,3.048h-3.818c0,1.089,0.51,1.719,1.519,1.719
		c0.83,0,1.319-0.64,1.349-1.029H39.945z M39.105,11.508c-0.05-0.81-0.39-1.559-1.459-1.559c-0.81,0-1.449,0.75-1.449,1.559H39.105z
		"/>
	<path d="M42.066,14.536h-0.879V9.309h0.83v0.87h0.02c0.35-0.61,0.81-1.02,1.469-1.02c0.11,0,0.16,0.01,0.23,0.03v0.91h-0.33
		c-0.819,0-1.339,0.64-1.339,1.399V14.536z"/>
</g>
<g>
	<path d="M11.878,58.261h5.827v0.86h-2.429v6.316h-0.97v-6.316h-2.428V58.261z"/>
	<path d="M18.296,65.437h-0.879V60.21h0.83v0.87h0.02c0.35-0.61,0.81-1.02,1.469-1.02c0.11,0,0.16,0.01,0.23,0.03V61h-0.33
		c-0.819,0-1.339,0.64-1.339,1.399V65.437z"/>
	<path d="M20.797,59.26v-1h0.88v1H20.797z M21.677,65.437h-0.88V60.21h0.88V65.437z"/>
	<path d="M27.335,65.008c0,0.75-0.01,2.628-2.429,2.628c-0.62,0-1.829-0.17-1.999-1.559h0.88c0.16,0.83,0.969,0.83,1.179,0.83
		c1.519,0,1.489-1.219,1.489-1.839v-0.22h-0.02v0.04c-0.23,0.37-0.69,0.7-1.389,0.7c-1.779,0-2.299-1.669-2.299-2.918
		c0-1.469,0.79-2.608,2.179-2.608c0.949,0,1.349,0.589,1.559,0.89h0.02v-0.74h0.83V65.008z M25.066,64.827
		c0.56,0,1.429-0.37,1.429-1.759c0-0.85-0.14-2.219-1.41-2.219c-1.359,0-1.429,1.289-1.429,1.959
		C23.657,63.958,24.106,64.827,25.066,64.827z"/>
	<path d="M32.895,65.008c0,0.75-0.01,2.628-2.429,2.628c-0.62,0-1.829-0.17-1.999-1.559h0.879c0.16,0.83,0.97,0.83,1.18,0.83
		c1.519,0,1.489-1.219,1.489-1.839v-0.22h-0.02v0.04c-0.23,0.37-0.69,0.7-1.389,0.7c-1.779,0-2.299-1.669-2.299-2.918
		c0-1.469,0.79-2.608,2.179-2.608c0.949,0,1.349,0.589,1.559,0.89h0.02v-0.74h0.83V65.008z M30.626,64.827
		c0.56,0,1.43-0.37,1.43-1.759c0-0.85-0.14-2.219-1.41-2.219c-1.359,0-1.429,1.289-1.429,1.959
		C29.217,63.958,29.667,64.827,30.626,64.827z"/>
	<path d="M38.555,63.798c-0.03,0.25-0.27,0.99-0.93,1.429c-0.24,0.16-0.58,0.36-1.419,0.36c-1.469,0-2.338-1.109-2.338-2.619
		c0-1.619,0.779-2.908,2.508-2.908c1.509,0,2.249,1.199,2.249,3.048h-3.818c0,1.089,0.51,1.719,1.519,1.719
		c0.83,0,1.319-0.64,1.349-1.029H38.555z M37.715,62.409c-0.05-0.81-0.39-1.559-1.459-1.559c-0.81,0-1.449,0.75-1.449,1.559H37.715z
		"/>
	<path d="M40.677,65.437h-0.879V60.21h0.83v0.87h0.02c0.35-0.61,0.81-1.02,1.469-1.02c0.11,0,0.16,0.01,0.23,0.03V61h-0.33
		c-0.819,0-1.339,0.64-1.339,1.399V65.437z"/>
</g>
<line class="st2" x1="34.395" y1="24.218" x2="55.709" y2="24.218"/>
<line class="st2" x1="324.991" y1="24.218" x2="332.37" y2="24.218"/>
<line class="st3" x1="40.605" y1="24.218" x2="226.205" y2="24.218"/>
<line class="st2" x1="0.5" y1="24.218" x2="22.375" y2="24.218"/>
<line class="st2" x1="0.5" y1="0" x2="0.5" y2="100.094"/>
<line class="st2" x1="332.37" y1="0" x2="332.37" y2="100.094"/>
<line class="st0" x1="34.395" y1="30.569" x2="34.395" y2="19.495"/>
<line class="st0" x1="22.684" y1="19.495" x2="22.684" y2="30.569"/>
<path class="st2" d="M0.923,100.094"/>
<g>
	<g>
		<path d="M297.001,21.703h2.908c1.869,0,3.019,1.419,3.019,3.488c0,1.609-0.699,3.688-3.059,3.688h-2.868V21.703z M297.97,28.05
			h1.879c1.259,0,2.079-0.989,2.079-2.798s-0.83-2.719-2.149-2.719h-1.809V28.05z"/>
		<path d="M307.029,25.142c-0.01-0.33-0.13-0.88-1.239-0.88c-0.271,0-1.04,0.09-1.04,0.74c0,0.43,0.271,0.53,0.95,0.7l0.879,0.22
			c1.09,0.27,1.47,0.67,1.47,1.379c0,1.08-0.89,1.729-2.069,1.729c-2.068,0-2.219-1.199-2.248-1.829h0.849
			c0.03,0.41,0.15,1.069,1.39,1.069c0.63,0,1.199-0.25,1.199-0.83c0-0.419-0.29-0.56-1.039-0.75l-1.02-0.25
			c-0.729-0.18-1.21-0.55-1.21-1.27c0-1.149,0.95-1.669,1.979-1.669c1.869,0,1.999,1.379,1.999,1.639H307.029z"/>
		<path d="M310.14,24.382v3.398c0,0.41,0.35,0.41,0.529,0.41h0.31v0.689c-0.319,0.03-0.569,0.07-0.659,0.07
			c-0.87,0-1.06-0.49-1.06-1.119v-3.448h-0.71v-0.729h0.71v-1.459h0.88v1.459h0.839v0.729H310.14z"/>
	</g>
	<g>
	</g>
</g>
<line class="st2" x1="34.395" y1="76.107" x2="55.709" y2="76.107"/>
<line class="st2" x1="325.583" y1="76.107" x2="332.37" y2="76.107"/>
<line class="st2" x1="226.205" y1="24.218" x2="236.212" y2="24.218"/>
<line class="st2" x1="226.205" y1="76.107" x2="236.688" y2="76.107"/>
<line class="st3" x1="40.605" y1="76.107" x2="226.203" y2="76.107"/>
<line class="st2" x1="0.5" y1="76.107" x2="22.375" y2="76.107"/>
<line class="st0" x1="34.395" y1="82.456" x2="34.395" y2="71.383"/>
<line class="st0" x1="22.684" y1="71.383" x2="22.684" y2="82.456"/>
<g>
	<g>
		<path d="M256.99,23.607c-0.05-1.109-0.969-1.459-1.778-1.459c-0.61,0-1.64,0.17-1.64,1.259c0,0.61,0.43,0.81,0.85,0.91l2.049,0.47
			c0.93,0.22,1.629,0.78,1.629,1.919c0,1.699-1.579,2.169-2.809,2.169c-1.329,0-1.849-0.4-2.168-0.689
			c-0.61-0.55-0.73-1.149-0.73-1.819h0.91c0,1.299,1.06,1.679,1.979,1.679c0.7,0,1.879-0.18,1.879-1.209
			c0-0.75-0.35-0.989-1.529-1.269l-1.469-0.34c-0.47-0.11-1.529-0.44-1.529-1.689c0-1.12,0.729-2.219,2.469-2.219
			c2.509,0,2.759,1.499,2.799,2.289H256.99z"/>
		<path d="M260.222,28.684h-0.88v-5.227h0.83v0.87h0.02c0.35-0.61,0.81-1.02,1.469-1.02c0.11,0,0.16,0.01,0.23,0.03v0.91h-0.33
			c-0.819,0-1.339,0.64-1.339,1.399V28.684z"/>
		<path d="M265.621,25.216c-0.11-0.699-0.5-1.119-1.239-1.119c-1.09,0-1.439,1.04-1.439,1.969c0,0.899,0.22,2.009,1.43,2.009
			c0.589,0,1.099-0.439,1.249-1.239h0.85c-0.09,0.83-0.6,1.999-2.129,1.999c-1.47,0-2.339-1.109-2.339-2.619
			c0-1.619,0.779-2.908,2.509-2.908c1.369,0,1.889,1,1.959,1.909H265.621z"/>
	</g>
	<g>
	</g>
</g>
<polyline class="st0" points="236.439,64.161 325.022,64.161 325.022,86.307 236.439,86.307 "/>
<line class="st0" x1="280.731" y1="86.307" x2="280.731" y2="64.161"/>
<rect x="243.275" y="57.118" class="st1" width="30.257" height="12.309"/>
<g>
	<path d="M253.602,66.028V61.79c0-0.21,0.021-1.119,0.021-1.789h-0.021l-2.019,6.027h-0.96l-2.019-6.017h-0.02
		c0,0.66,0.02,1.569,0.02,1.779v4.238h-0.939v-7.176h1.39l2.049,6.067h0.02l2.039-6.067h1.379v7.176H253.602z"/>
	<path d="M259.154,66.218c-2.679,0-3.498-2.229-3.498-3.778c0-1.549,0.819-3.778,3.498-3.778s3.498,2.229,3.498,3.778
		C262.652,63.989,261.833,66.218,259.154,66.218z M259.154,59.522c-1.559,0-2.498,1.229-2.498,2.918
		c0,1.689,0.939,2.918,2.498,2.918c1.56,0,2.499-1.229,2.499-2.918C261.653,60.751,260.714,59.522,259.154,59.522z"/>
	<path d="M267.924,58.852h1.09l-2.619,7.176h-1.029l-2.618-7.176h1.079l2.049,6.117h0.021L267.924,58.852z"/>
</g>
<g>
	<g>
		<path d="M297.001,73.196h2.908c1.869,0,3.019,1.419,3.019,3.488c0,1.609-0.699,3.688-3.059,3.688h-2.868V73.196z M297.97,79.542
			h1.879c1.259,0,2.079-0.989,2.079-2.798s-0.83-2.719-2.149-2.719h-1.809V79.542z"/>
		<path d="M307.029,76.634c-0.01-0.33-0.13-0.88-1.239-0.88c-0.271,0-1.04,0.09-1.04,0.74c0,0.43,0.271,0.53,0.95,0.7l0.879,0.22
			c1.09,0.27,1.47,0.67,1.47,1.379c0,1.08-0.89,1.729-2.069,1.729c-2.068,0-2.219-1.199-2.248-1.829h0.849
			c0.03,0.41,0.15,1.069,1.39,1.069c0.63,0,1.199-0.25,1.199-0.83c0-0.419-0.29-0.56-1.039-0.75l-1.02-0.25
			c-0.729-0.18-1.21-0.55-1.21-1.27c0-1.149,0.95-1.669,1.979-1.669c1.869,0,1.999,1.379,1.999,1.639H307.029z"/>
		<path d="M310.14,75.874v3.398c0,0.41,0.35,0.41,0.529,0.41h0.31v0.689c-0.319,0.03-0.569,0.07-0.659,0.07
			c-0.87,0-1.06-0.49-1.06-1.119v-3.448h-0.71v-0.729h0.71v-1.459h0.88v1.459h0.839v0.729H310.14z"/>
	</g>
	<g>
	</g>
</g>
<g>
	<g>
		<path d="M256.99,75.099c-0.05-1.109-0.969-1.459-1.778-1.459c-0.61,0-1.64,0.17-1.64,1.259c0,0.61,0.43,0.81,0.85,0.91l2.049,0.47
			c0.93,0.22,1.629,0.78,1.629,1.919c0,1.699-1.579,2.169-2.809,2.169c-1.329,0-1.849-0.4-2.168-0.689
			c-0.61-0.55-0.73-1.149-0.73-1.819h0.91c0,1.299,1.06,1.679,1.979,1.679c0.7,0,1.879-0.18,1.879-1.209
			c0-0.75-0.35-0.989-1.529-1.269l-1.469-0.34c-0.47-0.11-1.529-0.44-1.529-1.689c0-1.12,0.729-2.219,2.469-2.219
			c2.509,0,2.759,1.499,2.799,2.289H256.99z"/>
		<path d="M260.222,80.176h-0.88v-5.227h0.83v0.87h0.02c0.35-0.61,0.81-1.02,1.469-1.02c0.11,0,0.16,0.01,0.23,0.03v0.91h-0.33
			c-0.819,0-1.339,0.64-1.339,1.399V80.176z"/>
		<path d="M265.621,76.708c-0.11-0.699-0.5-1.119-1.239-1.119c-1.09,0-1.439,1.04-1.439,1.969c0,0.899,0.22,2.009,1.43,2.009
			c0.589,0,1.099-0.439,1.249-1.239h0.85c-0.09,0.83-0.6,1.999-2.129,1.999c-1.47,0-2.339-1.109-2.339-2.619
			c0-1.619,0.779-2.908,2.509-2.908c1.369,0,1.889,1,1.959,1.909H265.621z"/>
	</g>
	<g>
	</g>
</g>
<g>
	<line class="st4" x1="236.688" y1="67.755" x2="236.688" y2="86.835"/>
	<polygon class="st5" points="236.504,64.893 234.413,69.765 238.841,69.765 	"/>
</g>
</svg>
