<?xml version="1.0" encoding="utf-8"?>
<!-- Generator: Adobe Illustrator 28.2.0, SVG Export Plug-In . SVG Version: 6.00 Build 0)  -->
<svg version="1.1" xmlns="http://www.w3.org/2000/svg" xmlns:xlink="http://www.w3.org/1999/xlink" x="0px" y="0px"
	 width="294.583px" height="58.918px" viewBox="0 0 294.583 58.918" style="enable-background:new 0 0 294.583 58.918;"
	 xml:space="preserve">
<style type="text/css">
	.st0{fill:#CCCCCC;}
	.st1{fill:none;stroke:#000000;}
	.st2{fill:#FFFFFF;}
	.st3{fill:none;stroke:#000000;stroke-width:0.5;}
	.st4{fill:#808080;}
	.st5{fill:#FFFFFF;stroke:#000000;}
</style>
<g id="レイヤ_xFF0D__1">
	<g>
		<rect x="145.756" y="12.696" class="st0" width="25.08" height="14.631"/>
		<rect x="145.756" y="12.696" class="st0" width="25.08" height="14.631"/>
		<rect x="179.196" y="12.696" class="st0" width="8.36" height="14.631"/>
		<rect x="195.916" y="12.696" class="st0" width="8.361" height="14.631"/>
		<rect x="212.635" y="12.696" class="st0" width="8.362" height="14.631"/>
		<rect x="229.355" y="12.696" class="st0" width="8.362" height="14.631"/>
		<rect x="246.076" y="12.696" class="st0" width="8.361" height="14.631"/>
		<rect x="262.796" y="12.696" class="st0" width="8.36" height="14.631"/>
		<rect x="179.196" y="44.046" class="st0" width="8.36" height="14.631"/>
		<rect x="195.916" y="44.046" class="st0" width="8.361" height="14.631"/>
		<rect x="212.635" y="44.046" class="st0" width="8.362" height="14.631"/>
		<rect x="229.355" y="44.046" class="st0" width="8.362" height="14.631"/>
		<rect x="246.076" y="44.046" class="st0" width="8.361" height="14.631"/>
		<rect x="262.796" y="44.046" class="st0" width="8.36" height="14.631"/>
		<rect x="145.756" y="43.35" class="st0" width="25.08" height="14.63"/>
		<line class="st1" x1="0.5" y1="7.515" x2="0.5" y2="40.563"/>
		<line class="st1" x1="139.201" y1="7.515" x2="139.201" y2="40.563"/>
		<path class="st1" d="M0.783,40.563"/>
		<line class="st1" x1="129.73" y1="27.046" x2="139.201" y2="27.046"/>
		<line class="st1" x1="0.5" y1="26.629" x2="73.475" y2="26.629"/>
		<g>
			<g>
			</g>
		</g>
		<g>
			<g>
				<path d="M11.528,16.038c-0.197-0.921-0.965-1.089-1.469-1.089c-0.95,0-1.717,0.702-1.717,2.083c0,1.235,0.438,2.186,1.739,2.186
					c0.46,0,1.257-0.219,1.499-1.44h0.687c-0.292,1.981-1.9,2.068-2.295,2.068c-1.191,0-2.361-0.774-2.361-2.792
					c0-1.615,0.921-2.733,2.448-2.733c1.352,0,2.054,0.84,2.156,1.718H11.528z"/>
				<path d="M13.922,19.707h-0.709v-5.248h2.427c0.862,0,1.725,0.3,1.725,1.411c0,0.775-0.395,1.06-0.731,1.257
					c0.299,0.125,0.599,0.256,0.628,0.987l0.044,0.95c0.007,0.292,0.044,0.402,0.263,0.526v0.117h-0.87
					c-0.102-0.322-0.124-1.118-0.124-1.315c0-0.432-0.088-0.936-0.936-0.936h-1.718V19.707z M13.922,16.849h1.645
					c0.519,0,1.067-0.131,1.067-0.906c0-0.811-0.592-0.877-0.943-0.877h-1.769V16.849z"/>
				<path d="M18.173,16.411c0-1.674,1.22-1.842,1.776-1.842c0.892,0,1.608,0.577,1.608,1.535c0,0.921-0.606,1.309-1.374,1.718
					l-0.534,0.292c-0.702,0.387-0.855,0.789-0.884,0.987h2.792v0.606h-3.516c0.037-1.067,0.519-1.637,1.206-2.039l0.68-0.395
					c0.548-0.314,0.943-0.526,0.943-1.198c0-0.41-0.263-0.929-1.016-0.929c-0.972,0-1.016,0.907-1.038,1.265H18.173z"/>
				<path d="M23.95,19.846c-1.476,0-1.761-1.571-1.761-2.638c0-1.067,0.285-2.639,1.761-2.639c1.477,0,1.762,1.571,1.762,2.639
					C25.712,18.274,25.427,19.846,23.95,19.846z M23.95,15.146c-0.738,0-1.074,0.775-1.074,2.062c0,1.286,0.336,2.061,1.074,2.061
					s1.075-0.775,1.075-2.061C25.025,15.921,24.689,15.146,23.95,15.146z"/>
				<path d="M28.018,19.846c-1.476,0-1.761-1.571-1.761-2.638c0-1.067,0.285-2.639,1.761-2.639c1.477,0,1.762,1.571,1.762,2.639
					C29.779,18.274,29.494,19.846,28.018,19.846z M28.018,15.146c-0.738,0-1.074,0.775-1.074,2.062c0,1.286,0.336,2.061,1.074,2.061
					s1.075-0.775,1.075-2.061C29.092,15.921,28.756,15.146,28.018,15.146z"/>
				<path d="M30.375,16.411c0-1.674,1.22-1.842,1.776-1.842c0.892,0,1.608,0.577,1.608,1.535c0,0.921-0.606,1.309-1.374,1.718
					l-0.534,0.292c-0.702,0.387-0.855,0.789-0.884,0.987h2.792v0.606h-3.516c0.037-1.067,0.519-1.637,1.206-2.039l0.68-0.395
					c0.548-0.314,0.943-0.526,0.943-1.198c0-0.41-0.263-0.929-1.016-0.929c-0.972,0-1.016,0.907-1.038,1.265H30.375z"/>
			</g>
			<g>
			</g>
		</g>
		<g>
			<rect x="17.218" y="23.667" class="st2" width="5.925" height="5.926"/>
			<line class="st1" x1="23.143" y1="23.667" x2="23.143" y2="29.593"/>
			<line class="st1" x1="17.218" y1="29.593" x2="17.218" y2="23.667"/>
		</g>
		<g>
			<path d="M145.093,10.789h-0.506V7.042h1.733c0.616,0,1.231,0.214,1.231,1.007c0,0.553-0.282,0.757-0.522,0.897
				c0.214,0.089,0.428,0.183,0.449,0.705l0.032,0.678c0.005,0.209,0.031,0.287,0.188,0.376v0.083h-0.621
				c-0.073-0.229-0.088-0.798-0.088-0.939c0-0.308-0.063-0.668-0.668-0.668h-1.227V10.789z M145.093,8.749h1.174
				c0.371,0,0.762-0.094,0.762-0.647c0-0.579-0.422-0.626-0.673-0.626h-1.263V8.749z"/>
			<path d="M149.774,10.789h-0.491V8.185h-0.856V7.82c0.595-0.042,0.84-0.099,0.986-0.699h0.36V10.789z"/>
			<path d="M151.969,10.888c-1.054,0-1.258-1.122-1.258-1.884s0.204-1.884,1.258-1.884s1.258,1.122,1.258,1.884
				S153.023,10.888,151.969,10.888z M151.969,7.533c-0.527,0-0.767,0.553-0.767,1.472s0.24,1.472,0.767,1.472
				c0.527,0,0.767-0.553,0.767-1.472S152.496,7.533,151.969,7.533z"/>
			<path d="M153.653,8.436c0-1.195,0.872-1.315,1.268-1.315c0.637,0,1.148,0.412,1.148,1.096c0,0.658-0.433,0.934-0.981,1.227
				l-0.381,0.208c-0.501,0.277-0.61,0.563-0.631,0.705h1.994v0.433h-2.51c0.026-0.762,0.371-1.169,0.861-1.456l0.485-0.282
				c0.392-0.225,0.673-0.375,0.673-0.856c0-0.292-0.188-0.663-0.726-0.663c-0.694,0-0.725,0.647-0.741,0.903H153.653z"/>
		</g>
		<g>
			<path d="M270.436,11.137h-0.507V7.39h1.732c0.616,0,1.231,0.214,1.231,1.007c0,0.553-0.281,0.757-0.521,0.897
				c0.214,0.089,0.428,0.183,0.449,0.705l0.031,0.678c0.005,0.209,0.031,0.287,0.188,0.376v0.083h-0.621
				c-0.073-0.229-0.089-0.798-0.089-0.939c0-0.308-0.062-0.668-0.668-0.668h-1.226V11.137z M270.436,9.096h1.174
				c0.37,0,0.762-0.094,0.762-0.647c0-0.579-0.423-0.626-0.673-0.626h-1.263V9.096z"/>
			<path d="M274.694,11.236c-1.055,0-1.258-1.122-1.258-1.884s0.203-1.884,1.258-1.884c1.054,0,1.257,1.122,1.257,1.884
				S275.748,11.236,274.694,11.236z M274.694,7.88c-0.527,0-0.768,0.553-0.768,1.472s0.24,1.472,0.768,1.472
				c0.526,0,0.767-0.553,0.767-1.472S275.22,7.88,274.694,7.88z"/>
			<path d="M277.599,11.236c-1.055,0-1.258-1.122-1.258-1.884s0.203-1.884,1.258-1.884c1.054,0,1.257,1.122,1.257,1.884
				S278.653,11.236,277.599,11.236z M277.599,7.88c-0.527,0-0.768,0.553-0.768,1.472s0.24,1.472,0.768,1.472
				c0.526,0,0.767-0.553,0.767-1.472S278.126,7.88,277.599,7.88z"/>
			<path d="M280.222,9.049c0.078,0.005,0.162,0.01,0.24,0.01c0.354,0,0.699-0.141,0.699-0.6c0-0.219-0.131-0.579-0.679-0.579
				c-0.652,0-0.694,0.532-0.715,0.788h-0.448c0-0.538,0.219-1.2,1.185-1.2c0.709,0,1.132,0.407,1.132,0.965
				c0,0.47-0.271,0.694-0.47,0.757v0.01c0.355,0.115,0.61,0.365,0.61,0.856c0,0.6-0.386,1.179-1.32,1.179
				c-0.271,0-0.501-0.068-0.678-0.162c-0.407-0.214-0.517-0.637-0.548-1.06h0.475c0.016,0.345,0.1,0.809,0.783,0.809
				c0.469,0,0.798-0.287,0.798-0.71c0-0.616-0.543-0.673-0.855-0.673c-0.068,0-0.142,0.005-0.209,0.005V9.049z"/>
		</g>
		<rect x="145.985" y="12.953" class="st3" width="133.3" height="14.811"/>
		<line class="st3" x1="154.374" y1="24.1" x2="154.374" y2="27.583"/>
		<line class="st3" x1="162.706" y1="24.1" x2="162.706" y2="27.583"/>
		<line class="st3" x1="171.038" y1="24.1" x2="171.038" y2="27.583"/>
		<line class="st3" x1="179.368" y1="24.1" x2="179.368" y2="27.583"/>
		<line class="st3" x1="187.7" y1="24.1" x2="187.7" y2="27.583"/>
		<line class="st3" x1="196.03" y1="24.1" x2="196.03" y2="27.583"/>
		<line class="st3" x1="204.362" y1="24.1" x2="204.362" y2="27.583"/>
		<line class="st3" x1="212.694" y1="24.1" x2="212.694" y2="27.583"/>
		<line class="st3" x1="221.024" y1="24.1" x2="221.024" y2="27.583"/>
		<line class="st3" x1="229.355" y1="24.1" x2="229.355" y2="27.583"/>
		<line class="st3" x1="237.688" y1="24.1" x2="237.688" y2="27.583"/>
		<line class="st3" x1="246.018" y1="24.1" x2="246.018" y2="27.583"/>
		<line class="st3" x1="254.349" y1="24.1" x2="254.349" y2="27.583"/>
		<line class="st3" x1="262.681" y1="24.1" x2="262.681" y2="27.583"/>
		<line class="st3" x1="271.012" y1="24.1" x2="271.012" y2="27.583"/>
		<line class="st3" x1="154.374" y1="13.301" x2="154.374" y2="16.785"/>
		<line class="st3" x1="162.706" y1="13.301" x2="162.706" y2="16.785"/>
		<line class="st3" x1="171.038" y1="13.301" x2="171.038" y2="16.785"/>
		<line class="st3" x1="179.368" y1="13.301" x2="179.368" y2="16.785"/>
		<line class="st3" x1="187.7" y1="13.301" x2="187.7" y2="16.785"/>
		<line class="st3" x1="196.03" y1="13.301" x2="196.03" y2="16.785"/>
		<line class="st3" x1="204.362" y1="13.301" x2="204.362" y2="16.785"/>
		<line class="st3" x1="212.694" y1="13.301" x2="212.694" y2="16.785"/>
		<line class="st3" x1="221.024" y1="13.301" x2="221.024" y2="16.785"/>
		<line class="st3" x1="229.355" y1="13.301" x2="229.355" y2="16.785"/>
		<line class="st3" x1="237.688" y1="13.301" x2="237.688" y2="16.785"/>
		<line class="st3" x1="246.018" y1="13.301" x2="246.018" y2="16.785"/>
		<line class="st3" x1="254.349" y1="13.301" x2="254.349" y2="16.785"/>
		<line class="st3" x1="262.681" y1="13.301" x2="262.681" y2="16.785"/>
		<line class="st3" x1="271.012" y1="13.301" x2="271.012" y2="16.785"/>
		<line class="st1" x1="145.985" y1="27.765" x2="279.285" y2="27.765"/>
		<line class="st1" x1="279.285" y1="27.765" x2="279.285" y2="12.953"/>
		<polygon class="st4" points="204.805,31.838 204.805,36.597 202.056,36.597 206.791,40.232 211.373,36.597 208.471,36.597 
			208.471,31.838 		"/>
		<g>
			<g>
			</g>
		</g>
		<g>
			<path d="M283.975,48.841h1.519c0.976,0,1.576,0.741,1.576,1.821c0,0.84-0.365,1.926-1.597,1.926h-1.498V48.841z M284.481,52.155
				h0.981c0.657,0,1.085-0.517,1.085-1.461c0-0.944-0.433-1.419-1.122-1.419h-0.944V52.155z"/>
			<path d="M290.805,52.588v-2.212c0-0.11,0.011-0.585,0.011-0.935h-0.011l-1.054,3.147h-0.501l-1.055-3.142h-0.01
				c0,0.344,0.01,0.819,0.01,0.929v2.212h-0.49v-3.747h0.726l1.069,3.168h0.011l1.064-3.168h0.721v3.747H290.805z"/>
			<path d="M293.129,52.687c-1.055,0-1.258-1.122-1.258-1.884s0.203-1.884,1.258-1.884c1.054,0,1.257,1.122,1.257,1.884
				S294.182,52.687,293.129,52.687z M293.129,49.332c-0.527,0-0.768,0.553-0.768,1.472s0.24,1.472,0.768,1.472
				c0.526,0,0.767-0.553,0.767-1.472S293.655,49.332,293.129,49.332z"/>
		</g>
		<rect x="145.985" y="43.606" class="st3" width="133.3" height="14.811"/>
		<line class="st3" x1="154.374" y1="54.752" x2="154.374" y2="58.237"/>
		<line class="st3" x1="162.706" y1="54.752" x2="162.706" y2="58.237"/>
		<line class="st3" x1="171.038" y1="54.752" x2="171.038" y2="58.237"/>
		<line class="st3" x1="179.368" y1="54.752" x2="179.368" y2="58.237"/>
		<line class="st3" x1="187.7" y1="54.752" x2="187.7" y2="58.237"/>
		<line class="st3" x1="196.03" y1="54.752" x2="196.03" y2="58.237"/>
		<line class="st3" x1="204.362" y1="54.752" x2="204.362" y2="58.237"/>
		<line class="st3" x1="212.694" y1="54.752" x2="212.694" y2="58.237"/>
		<line class="st3" x1="221.024" y1="54.752" x2="221.024" y2="58.237"/>
		<line class="st3" x1="229.355" y1="54.752" x2="229.355" y2="58.237"/>
		<line class="st3" x1="237.688" y1="54.752" x2="237.688" y2="58.237"/>
		<line class="st3" x1="246.018" y1="54.752" x2="246.018" y2="58.237"/>
		<line class="st3" x1="254.349" y1="54.752" x2="254.349" y2="58.237"/>
		<line class="st3" x1="262.681" y1="54.752" x2="262.681" y2="58.237"/>
		<line class="st3" x1="271.012" y1="54.752" x2="271.012" y2="58.237"/>
		<line class="st3" x1="154.374" y1="43.954" x2="154.374" y2="47.438"/>
		<line class="st3" x1="162.706" y1="43.954" x2="162.706" y2="47.438"/>
		<line class="st3" x1="171.038" y1="43.954" x2="171.038" y2="47.438"/>
		<line class="st3" x1="179.368" y1="43.954" x2="179.368" y2="47.438"/>
		<line class="st3" x1="187.7" y1="43.954" x2="187.7" y2="47.438"/>
		<line class="st3" x1="196.03" y1="43.954" x2="196.03" y2="47.438"/>
		<line class="st3" x1="204.362" y1="43.954" x2="204.362" y2="47.438"/>
		<line class="st3" x1="212.694" y1="43.954" x2="212.694" y2="47.438"/>
		<line class="st3" x1="221.024" y1="43.954" x2="221.024" y2="47.438"/>
		<line class="st3" x1="229.355" y1="43.954" x2="229.355" y2="47.438"/>
		<line class="st3" x1="237.688" y1="43.954" x2="237.688" y2="47.438"/>
		<line class="st3" x1="246.018" y1="43.954" x2="246.018" y2="47.438"/>
		<line class="st3" x1="254.349" y1="43.954" x2="254.349" y2="47.438"/>
		<line class="st3" x1="262.681" y1="43.954" x2="262.681" y2="47.438"/>
		<line class="st3" x1="271.012" y1="43.954" x2="271.012" y2="47.438"/>
		<line class="st1" x1="145.985" y1="58.418" x2="279.285" y2="58.418"/>
		<line class="st1" x1="279.285" y1="58.418" x2="279.285" y2="43.606"/>
		<rect x="73.779" y="18.857" class="st5" width="59.244" height="14.811"/>
		<line class="st5" x1="103.402" y1="33.668" x2="103.402" y2="18.857"/>
		<rect x="78.351" y="14.148" class="st2" width="20.237" height="8.231"/>
		<g>
			<path d="M80.949,29.486H80.24v-5.248h2.427c0.862,0,1.725,0.3,1.725,1.411c0,0.775-0.395,1.06-0.73,1.257
				c0.299,0.125,0.599,0.256,0.628,0.987l0.044,0.95c0.007,0.292,0.044,0.402,0.263,0.526v0.117h-0.87
				c-0.102-0.322-0.124-1.118-0.124-1.315c0-0.432-0.088-0.936-0.936-0.936h-1.718V29.486z M80.949,26.628h1.645
				c0.519,0,1.067-0.131,1.067-0.906c0-0.811-0.592-0.877-0.943-0.877h-1.769V26.628z"/>
			<path d="M86.91,29.625c-1.476,0-1.761-1.571-1.761-2.638c0-1.067,0.285-2.639,1.761-2.639c1.477,0,1.762,1.571,1.762,2.639
				C88.672,28.054,88.386,29.625,86.91,29.625z M86.91,24.925c-0.738,0-1.074,0.775-1.074,2.062c0,1.286,0.336,2.061,1.074,2.061
				s1.075-0.775,1.075-2.061C87.985,25.7,87.648,24.925,86.91,24.925z"/>
			<path d="M90.977,29.625c-1.476,0-1.761-1.571-1.761-2.638c0-1.067,0.285-2.639,1.761-2.639c1.477,0,1.762,1.571,1.762,2.639
				C92.738,28.054,92.453,29.625,90.977,29.625z M90.977,24.925c-0.738,0-1.074,0.775-1.074,2.062c0,1.286,0.336,2.061,1.074,2.061
				s1.075-0.775,1.075-2.061C92.051,25.7,91.715,24.925,90.977,24.925z"/>
			<path d="M94.65,26.563c0.11,0.007,0.227,0.014,0.336,0.014c0.497,0,0.979-0.197,0.979-0.84c0-0.307-0.183-0.812-0.95-0.812
				c-0.914,0-0.972,0.746-1.001,1.104h-0.629c0-0.753,0.307-1.681,1.659-1.681c0.994,0,1.586,0.57,1.586,1.352
				c0,0.658-0.38,0.972-0.658,1.06v0.015c0.497,0.161,0.855,0.511,0.855,1.198c0,0.841-0.541,1.652-1.849,1.652
				c-0.38,0-0.702-0.095-0.95-0.227c-0.57-0.299-0.724-0.892-0.768-1.483h0.665c0.022,0.482,0.139,1.133,1.096,1.133
				c0.658,0,1.119-0.402,1.119-0.994c0-0.862-0.76-0.943-1.199-0.943c-0.095,0-0.197,0.007-0.292,0.007V26.563z"/>
		</g>
		<g>
			<path d="M110.908,24.238h2.127c1.367,0,2.208,1.038,2.208,2.551c0,1.177-0.512,2.697-2.236,2.697h-2.098V24.238z M111.617,28.88
				h1.375c0.921,0,1.52-0.724,1.52-2.047c0-1.323-0.606-1.988-1.571-1.988h-1.323V28.88z"/>
			<path d="M120.473,29.486v-3.099c0-0.153,0.015-0.818,0.015-1.308h-0.015l-1.477,4.407h-0.702l-1.476-4.4h-0.015
				c0,0.482,0.015,1.147,0.015,1.301v3.099h-0.687v-5.248h1.016l1.499,4.437h0.015l1.491-4.437h1.008v5.248H120.473z"/>
			<path d="M123.723,29.625c-1.476,0-1.761-1.571-1.761-2.638c0-1.067,0.285-2.639,1.761-2.639c1.477,0,1.762,1.571,1.762,2.639
				C125.485,28.054,125.199,29.625,123.723,29.625z M123.723,24.925c-0.738,0-1.074,0.775-1.074,2.062
				c0,1.286,0.336,2.061,1.074,2.061s1.075-0.775,1.075-2.061C124.798,25.7,124.461,24.925,123.723,24.925z"/>
		</g>
		<g>
			<path d="M84.976,20.107v-3.099c0-0.153,0.015-0.818,0.015-1.308h-0.015L83.5,20.107h-0.702l-1.476-4.4h-0.015
				c0,0.482,0.015,1.147,0.015,1.301v3.099h-0.687v-5.248h1.016l1.499,4.437h0.015l1.491-4.437h1.008v5.248H84.976z"/>
			<path d="M89.038,20.246c-1.959,0-2.558-1.63-2.558-2.763s0.599-2.763,2.558-2.763c1.958,0,2.558,1.63,2.558,2.763
				S90.996,20.246,89.038,20.246z M89.038,15.349c-1.14,0-1.827,0.899-1.827,2.134c0,1.235,0.687,2.134,1.827,2.134
				s1.827-0.899,1.827-2.134C90.865,16.249,90.178,15.349,89.038,15.349z"/>
			<path d="M95.452,14.859h0.797l-1.915,5.248h-0.753l-1.915-5.248h0.79l1.499,4.473h0.015L95.452,14.859z"/>
		</g>
		<g>
			<path d="M220.304,38.569V35.47c0-0.153,0.015-0.818,0.015-1.308h-0.015l-1.477,4.407h-0.701l-1.477-4.4h-0.015
				c0,0.482,0.015,1.147,0.015,1.301v3.099h-0.688v-5.248h1.017l1.498,4.437h0.015l1.491-4.437h1.009v5.248H220.304z"/>
			<path d="M224.366,38.708c-1.958,0-2.558-1.63-2.558-2.763s0.6-2.763,2.558-2.763c1.959,0,2.559,1.63,2.559,2.763
				S226.325,38.708,224.366,38.708z M224.366,33.811c-1.14,0-1.827,0.899-1.827,2.134c0,1.235,0.688,2.134,1.827,2.134
				c1.141,0,1.828-0.899,1.828-2.134C226.194,34.71,225.507,33.811,224.366,33.811z"/>
			<path d="M230.782,33.321h0.796l-1.915,5.248h-0.752l-1.915-5.248h0.789l1.498,4.473h0.015L230.782,33.321z"/>
		</g>
		<line class="st3" x1="171.096" y1="5.549" x2="171.096" y2="12.425"/>
		<g>
			<path d="M162.229,4.337h-0.491V1.733h-0.856V1.368c0.595-0.042,0.84-0.099,0.986-0.699h0.36V4.337z"/>
			<path d="M165.306,2.526c-0.058-0.365-0.261-0.584-0.647-0.584c-0.569,0-0.751,0.543-0.751,1.028c0,0.47,0.115,1.049,0.747,1.049
				c0.308,0,0.574-0.229,0.652-0.647h0.443c-0.047,0.433-0.313,1.043-1.111,1.043c-0.768,0-1.221-0.579-1.221-1.367
				c0-0.845,0.407-1.519,1.31-1.519c0.715,0,0.987,0.522,1.023,0.997H165.306z"/>
			<path d="M168.435,4.337h-0.459V2.552c0-0.371-0.104-0.611-0.543-0.611c-0.376,0-0.762,0.219-0.762,0.908v1.487h-0.46V0.59h0.46
				v1.383h0.01c0.131-0.172,0.36-0.444,0.799-0.444c0.423,0,0.955,0.172,0.955,0.95V4.337z"/>
		</g>
		<g>
			<path d="M173.649,4.436c-1.055,0-1.258-1.122-1.258-1.884s0.203-1.884,1.258-1.884c1.054,0,1.257,1.122,1.257,1.884
				S174.703,4.436,173.649,4.436z M173.649,1.081c-0.527,0-0.768,0.553-0.768,1.472s0.24,1.472,0.768,1.472
				c0.526,0,0.767-0.553,0.767-1.472S174.175,1.081,173.649,1.081z"/>
			<path d="M177.149,2.526c-0.058-0.365-0.261-0.584-0.647-0.584c-0.568,0-0.751,0.543-0.751,1.028c0,0.47,0.114,1.049,0.746,1.049
				c0.308,0,0.574-0.229,0.652-0.647h0.443c-0.047,0.433-0.313,1.043-1.111,1.043c-0.768,0-1.222-0.579-1.222-1.367
				c0-0.845,0.407-1.519,1.311-1.519c0.715,0,0.986,0.522,1.022,0.997H177.149z"/>
			<path d="M180.278,4.337h-0.459V2.552c0-0.371-0.104-0.611-0.543-0.611c-0.376,0-0.762,0.219-0.762,0.908v1.487h-0.46V0.59h0.46
				v1.383h0.01c0.131-0.172,0.36-0.444,0.799-0.444c0.423,0,0.955,0.172,0.955,0.95V4.337z"/>
		</g>
		<g>
			<path d="M176.19,8.181V7.172h-4.495V6.734h4.495V5.725l2.075,1.228L176.19,8.181z"/>
		</g>
		<g>
			<path d="M166.302,5.963v1.009h4.495v0.438h-4.495v1.009l-2.076-1.228L166.302,5.963z"/>
		</g>
	</g>
	<g>
		<g>
			<g>
				<path d="M150.516,22.779h-0.658v-3.495h-1.148v-0.49c0.798-0.056,1.127-0.133,1.324-0.938h0.483V22.779z"/>
			</g>
		</g>
		<g>
			<g>
				<path d="M158.877,22.779h-0.658v-3.495h-1.148v-0.49c0.798-0.056,1.127-0.133,1.324-0.938h0.483V22.779z"/>
			</g>
		</g>
		<g>
			<g>
				<path d="M167.237,22.779h-0.658v-3.495h-1.148v-0.49c0.798-0.056,1.128-0.133,1.323-0.938h0.483V22.779z"/>
			</g>
		</g>
		<g>
			<g>
				<path d="M175.03,22.913c-1.415,0-1.688-1.506-1.688-2.529c0-1.022,0.273-2.528,1.688-2.528c1.414,0,1.688,1.506,1.688,2.528
					C176.717,21.407,176.444,22.913,175.03,22.913z M175.03,18.409c-0.708,0-1.029,0.743-1.029,1.975
					c0,1.233,0.321,1.975,1.029,1.975c0.707,0,1.029-0.742,1.029-1.975C176.059,19.151,175.737,18.409,175.03,18.409z"/>
			</g>
		</g>
		<g>
			<g>
				<path d="M183.959,22.779H183.3v-3.495h-1.149v-0.49c0.799-0.056,1.128-0.133,1.324-0.938h0.483V22.779z"/>
			</g>
		</g>
		<g>
			<g>
				<path d="M191.751,22.913c-1.415,0-1.688-1.506-1.688-2.529c0-1.022,0.273-2.528,1.688-2.528c1.414,0,1.688,1.506,1.688,2.528
					C193.438,21.407,193.165,22.913,191.751,22.913z M191.751,18.409c-0.708,0-1.029,0.743-1.029,1.975
					c0,1.233,0.321,1.975,1.029,1.975c0.707,0,1.029-0.742,1.029-1.975C192.78,19.151,192.458,18.409,191.751,18.409z"/>
			</g>
		</g>
		<g>
			<g>
				<path d="M200.679,22.779h-0.658v-3.495h-1.149v-0.49c0.799-0.056,1.128-0.133,1.324-0.938h0.483V22.779z"/>
			</g>
		</g>
		<g>
			<g>
				<path d="M217.399,22.779h-0.658v-3.495h-1.149v-0.49c0.799-0.056,1.128-0.133,1.324-0.938h0.483V22.779z"/>
			</g>
		</g>
		<g>
			<g>
				<path d="M225.193,22.913c-1.415,0-1.688-1.506-1.688-2.529c0-1.022,0.273-2.528,1.688-2.528s1.688,1.506,1.688,2.528
					C226.881,21.407,226.608,22.913,225.193,22.913z M225.193,18.409c-0.708,0-1.029,0.743-1.029,1.975
					c0,1.233,0.321,1.975,1.029,1.975c0.707,0,1.029-0.742,1.029-1.975C226.222,19.151,225.9,18.409,225.193,18.409z"/>
			</g>
		</g>
		<g>
			<g>
				<path d="M234.12,22.779h-0.658v-3.495h-1.149v-0.49c0.799-0.056,1.128-0.133,1.324-0.938h0.483V22.779z"/>
			</g>
		</g>
		<g>
			<g>
				<path d="M241.915,22.913c-1.415,0-1.688-1.506-1.688-2.529c0-1.022,0.273-2.528,1.688-2.528c1.414,0,1.688,1.506,1.688,2.528
					C243.602,21.407,243.329,22.913,241.915,22.913z M241.915,18.409c-0.708,0-1.029,0.743-1.029,1.975
					c0,1.233,0.321,1.975,1.029,1.975c0.707,0,1.029-0.742,1.029-1.975C242.944,19.151,242.622,18.409,241.915,18.409z"/>
			</g>
		</g>
		<g>
			<g>
				<path d="M250.841,22.779h-0.658v-3.495h-1.149v-0.49c0.799-0.056,1.128-0.133,1.324-0.938h0.483V22.779z"/>
			</g>
		</g>
		<g>
			<g>
				<path d="M258.634,22.913c-1.415,0-1.688-1.506-1.688-2.529c0-1.022,0.273-2.528,1.688-2.528s1.688,1.506,1.688,2.528
					C260.322,21.407,260.049,22.913,258.634,22.913z M258.634,18.409c-0.708,0-1.029,0.743-1.029,1.975
					c0,1.233,0.321,1.975,1.029,1.975c0.707,0,1.029-0.742,1.029-1.975C259.664,19.151,259.341,18.409,258.634,18.409z"/>
			</g>
		</g>
		<g>
			<g>
				<path d="M267.563,22.779h-0.658v-3.495h-1.149v-0.49c0.799-0.056,1.128-0.133,1.324-0.938h0.483V22.779z"/>
			</g>
		</g>
		<g>
			<g>
				<path d="M275.356,22.913c-1.415,0-1.688-1.506-1.688-2.529c0-1.022,0.273-2.528,1.688-2.528c1.414,0,1.688,1.506,1.688,2.528
					C277.044,21.407,276.77,22.913,275.356,22.913z M275.356,18.409c-0.708,0-1.029,0.743-1.029,1.975
					c0,1.233,0.321,1.975,1.029,1.975c0.707,0,1.029-0.742,1.029-1.975C276.385,19.151,276.063,18.409,275.356,18.409z"/>
			</g>
		</g>
		<g>
			<g>
				<path d="M208.472,22.913c-1.415,0-1.688-1.506-1.688-2.529c0-1.022,0.273-2.528,1.688-2.528s1.688,1.506,1.688,2.528
					C210.16,21.407,209.887,22.913,208.472,22.913z M208.472,18.409c-0.708,0-1.029,0.743-1.029,1.975
					c0,1.233,0.321,1.975,1.029,1.975c0.707,0,1.029-0.742,1.029-1.975C209.502,19.151,209.179,18.409,208.472,18.409z"/>
			</g>
		</g>
	</g>
	<g>
		<g>
			<g>
				<path d="M150.516,53.823h-0.658v-3.495h-1.148v-0.49c0.798-0.056,1.127-0.133,1.324-0.938h0.483V53.823z"/>
			</g>
		</g>
		<g>
			<g>
				<path d="M158.877,53.823h-0.658v-3.495h-1.148v-0.49c0.798-0.056,1.127-0.133,1.324-0.938h0.483V53.823z"/>
			</g>
		</g>
		<g>
			<g>
				<path d="M167.237,53.823h-0.658v-3.495h-1.148v-0.49c0.798-0.056,1.128-0.133,1.323-0.938h0.483V53.823z"/>
			</g>
		</g>
		<g>
			<g>
				<path d="M175.03,53.957c-1.415,0-1.688-1.506-1.688-2.529c0-1.022,0.273-2.528,1.688-2.528c1.414,0,1.688,1.506,1.688,2.528
					C176.717,52.451,176.444,53.957,175.03,53.957z M175.03,49.453c-0.708,0-1.029,0.743-1.029,1.975
					c0,1.233,0.321,1.975,1.029,1.975c0.707,0,1.029-0.742,1.029-1.975C176.059,50.195,175.737,49.453,175.03,49.453z"/>
			</g>
		</g>
		<g>
			<g>
				<path d="M183.959,53.823H183.3v-3.495h-1.149v-0.49c0.799-0.056,1.128-0.133,1.324-0.938h0.483V53.823z"/>
			</g>
		</g>
		<g>
			<g>
				<path d="M191.751,53.957c-1.415,0-1.688-1.506-1.688-2.529c0-1.022,0.273-2.528,1.688-2.528c1.414,0,1.688,1.506,1.688,2.528
					C193.438,52.451,193.165,53.957,191.751,53.957z M191.751,49.453c-0.708,0-1.029,0.743-1.029,1.975
					c0,1.233,0.321,1.975,1.029,1.975c0.707,0,1.029-0.742,1.029-1.975C192.78,50.195,192.458,49.453,191.751,49.453z"/>
			</g>
		</g>
		<g>
			<g>
				<path d="M200.679,53.823h-0.658v-3.495h-1.149v-0.49c0.799-0.056,1.128-0.133,1.324-0.938h0.483V53.823z"/>
			</g>
		</g>
		<g>
			<g>
				<path d="M217.399,53.823h-0.658v-3.495h-1.149v-0.49c0.799-0.056,1.128-0.133,1.324-0.938h0.483V53.823z"/>
			</g>
		</g>
		<g>
			<g>
				<path d="M225.193,53.957c-1.415,0-1.688-1.506-1.688-2.529c0-1.022,0.273-2.528,1.688-2.528s1.688,1.506,1.688,2.528
					C226.881,52.451,226.608,53.957,225.193,53.957z M225.193,49.453c-0.708,0-1.029,0.743-1.029,1.975
					c0,1.233,0.321,1.975,1.029,1.975c0.707,0,1.029-0.742,1.029-1.975C226.222,50.195,225.9,49.453,225.193,49.453z"/>
			</g>
		</g>
		<g>
			<g>
				<path d="M234.12,53.823h-0.658v-3.495h-1.149v-0.49c0.799-0.056,1.128-0.133,1.324-0.938h0.483V53.823z"/>
			</g>
		</g>
		<g>
			<g>
				<path d="M241.915,53.957c-1.415,0-1.688-1.506-1.688-2.529c0-1.022,0.273-2.528,1.688-2.528c1.414,0,1.688,1.506,1.688,2.528
					C243.602,52.451,243.329,53.957,241.915,53.957z M241.915,49.453c-0.708,0-1.029,0.743-1.029,1.975
					c0,1.233,0.321,1.975,1.029,1.975c0.707,0,1.029-0.742,1.029-1.975C242.944,50.195,242.622,49.453,241.915,49.453z"/>
			</g>
		</g>
		<g>
			<g>
				<path d="M250.841,53.823h-0.658v-3.495h-1.149v-0.49c0.799-0.056,1.128-0.133,1.324-0.938h0.483V53.823z"/>
			</g>
		</g>
		<g>
			<g>
				<path d="M258.634,53.957c-1.415,0-1.688-1.506-1.688-2.529c0-1.022,0.273-2.528,1.688-2.528s1.688,1.506,1.688,2.528
					C260.322,52.451,260.049,53.957,258.634,53.957z M258.634,49.453c-0.708,0-1.029,0.743-1.029,1.975
					c0,1.233,0.321,1.975,1.029,1.975c0.707,0,1.029-0.742,1.029-1.975C259.664,50.195,259.341,49.453,258.634,49.453z"/>
			</g>
		</g>
		<g>
			<g>
				<path d="M267.563,53.823h-0.658v-3.495h-1.149v-0.49c0.799-0.056,1.128-0.133,1.324-0.938h0.483V53.823z"/>
			</g>
		</g>
		<g>
			<g>
				<path d="M275.356,53.957c-1.415,0-1.688-1.506-1.688-2.529c0-1.022,0.273-2.528,1.688-2.528c1.414,0,1.688,1.506,1.688,2.528
					C277.044,52.451,276.77,53.957,275.356,53.957z M275.356,49.453c-0.708,0-1.029,0.743-1.029,1.975
					c0,1.233,0.321,1.975,1.029,1.975c0.707,0,1.029-0.742,1.029-1.975C276.385,50.195,276.063,49.453,275.356,49.453z"/>
			</g>
		</g>
		<g>
			<g>
				<path d="M208.472,53.957c-1.415,0-1.688-1.506-1.688-2.529c0-1.022,0.273-2.528,1.688-2.528s1.688,1.506,1.688,2.528
					C210.16,52.451,209.887,53.957,208.472,53.957z M208.472,49.453c-0.708,0-1.029,0.743-1.029,1.975
					c0,1.233,0.321,1.975,1.029,1.975c0.707,0,1.029-0.742,1.029-1.975C209.502,50.195,209.179,49.453,208.472,49.453z"/>
			</g>
		</g>
	</g>
</g>
<g id="レイヤー_2">
</g>
</svg>
