<?xml version="1.0" encoding="utf-8"?>
<!-- Generator: Adobe Illustrator 28.2.0, SVG Export Plug-In . SVG Version: 6.00 Build 0)  -->
<svg version="1.1" xmlns="http://www.w3.org/2000/svg" xmlns:xlink="http://www.w3.org/1999/xlink" x="0px" y="0px"
	 width="334.42px" height="59.552px" viewBox="0 0 334.42 59.552" style="enable-background:new 0 0 334.42 59.552;"
	 xml:space="preserve">
<style type="text/css">
	.st0{fill:#CCCCCC;}
	.st1{fill:none;stroke:#000000;}
	.st2{fill:#FFFFFF;}
	.st3{fill:none;stroke:#000000;stroke-width:0.5;}
	.st4{fill:#808080;}
	.st5{fill:#FFFFFF;stroke:#000000;}
</style>
<g id="レイヤ_xFF0D__1">
	<g>
		<rect x="165.301" y="7.096" class="st0" width="28.5" height="16.625"/>
		<rect x="165.301" y="7.096" class="st0" width="28.5" height="16.625"/>
		<rect x="203.301" y="7.096" class="st0" width="9.501" height="16.625"/>
		<rect x="222.301" y="7.096" class="st0" width="9.501" height="16.625"/>
		<rect x="241.301" y="7.096" class="st0" width="9.499" height="16.625"/>
		<rect x="260.302" y="7.096" class="st0" width="9.5" height="16.625"/>
		<rect x="279.302" y="7.096" class="st0" width="9.499" height="16.625"/>
		<rect x="298.301" y="7.096" class="st0" width="9.501" height="16.625"/>
		<rect x="203.301" y="42.721" class="st0" width="9.501" height="16.625"/>
		<rect x="222.301" y="42.721" class="st0" width="9.501" height="16.625"/>
		<rect x="241.301" y="42.721" class="st0" width="9.499" height="16.625"/>
		<rect x="260.302" y="42.721" class="st0" width="9.5" height="16.625"/>
		<rect x="279.302" y="42.721" class="st0" width="9.499" height="16.625"/>
		<rect x="298.301" y="42.721" class="st0" width="9.501" height="16.625"/>
		<rect x="165.301" y="41.93" class="st0" width="28.5" height="16.625"/>
		<line class="st1" x1="0.5" y1="1.208" x2="0.5" y2="38.763"/>
		<line class="st1" x1="157.852" y1="1.208" x2="157.852" y2="38.763"/>
		<path class="st1" d="M0.822,38.763"/>
		<line class="st1" x1="147.09" y1="23.402" x2="157.852" y2="23.402"/>
		<line class="st1" x1="0.5" y1="22.929" x2="83.164" y2="22.929"/>
		<g>
			<g>
			</g>
		</g>
		<g>
			<g>
				<path d="M13.037,10.887c-0.225-1.048-1.098-1.239-1.671-1.239c-1.081,0-1.955,0.798-1.955,2.37c0,1.405,0.499,2.486,1.979,2.486
					c0.524,0,1.43-0.25,1.705-1.638h0.782c-0.333,2.253-2.162,2.354-2.611,2.354c-1.355,0-2.686-0.882-2.686-3.177
					c0-1.838,1.048-3.11,2.786-3.11c1.539,0,2.337,0.957,2.453,1.954H13.037z"/>
				<path d="M15.753,15.062h-0.807V9.091h2.761c0.981,0,1.963,0.341,1.963,1.605c0,0.881-0.449,1.206-0.832,1.43
					c0.341,0.141,0.682,0.291,0.715,1.123l0.05,1.081c0.008,0.333,0.05,0.458,0.299,0.599v0.133h-0.989
					c-0.117-0.366-0.142-1.272-0.142-1.497c0-0.49-0.1-1.064-1.064-1.064h-1.954V15.062z M15.753,11.811h1.871
					c0.59,0,1.214-0.15,1.214-1.031c0-0.923-0.673-0.998-1.073-0.998h-2.012V11.811z"/>
				<path d="M20.582,11.312c0-1.904,1.389-2.096,2.021-2.096c1.015,0,1.83,0.657,1.83,1.747c0,1.048-0.69,1.488-1.563,1.954
					l-0.607,0.333c-0.798,0.441-0.973,0.898-1.006,1.123h3.177v0.69h-4c0.042-1.214,0.59-1.863,1.372-2.32l0.773-0.449
					c0.624-0.358,1.073-0.599,1.073-1.364c0-0.465-0.299-1.056-1.156-1.056c-1.106,0-1.156,1.031-1.181,1.438H20.582z"/>
				<path d="M27.15,15.22c-1.68,0-2.004-1.788-2.004-3.002c0-1.214,0.324-3.002,2.004-3.002c1.68,0,2.004,1.788,2.004,3.002
					C29.154,13.432,28.83,15.22,27.15,15.22z M27.15,9.873c-0.84,0-1.223,0.881-1.223,2.345c0,1.464,0.383,2.345,1.223,2.345
					s1.222-0.881,1.222-2.345C28.372,10.754,27.99,9.873,27.15,9.873z"/>
				<path d="M31.771,15.22c-1.68,0-2.004-1.788-2.004-3.002c0-1.214,0.324-3.002,2.004-3.002c1.68,0,2.004,1.788,2.004,3.002
					C33.775,13.432,33.451,15.22,31.771,15.22z M31.771,9.873c-0.84,0-1.223,0.881-1.223,2.345c0,1.464,0.383,2.345,1.223,2.345
					s1.222-0.881,1.222-2.345C32.994,10.754,32.611,9.873,31.771,9.873z"/>
				<path d="M34.447,11.312c0-1.904,1.389-2.096,2.021-2.096c1.015,0,1.83,0.657,1.83,1.747c0,1.048-0.69,1.488-1.563,1.954
					l-0.607,0.333c-0.798,0.441-0.973,0.898-1.006,1.123h3.177v0.69h-4c0.042-1.214,0.59-1.863,1.372-2.32l0.773-0.449
					c0.624-0.358,1.073-0.599,1.073-1.364c0-0.465-0.299-1.056-1.156-1.056c-1.106,0-1.156,1.031-1.181,1.438H34.447z"/>
			</g>
			<g>
			</g>
		</g>
		<g>
			<rect x="19.498" y="19.563" class="st2" width="6.732" height="6.733"/>
			<line class="st1" x1="26.231" y1="19.563" x2="26.231" y2="26.295"/>
			<line class="st1" x1="19.498" y1="26.295" x2="19.498" y2="19.563"/>
		</g>
		<g>
			<path d="M163.239,4.928h-0.576V0.667h1.971c0.7,0,1.4,0.243,1.4,1.146c0,0.629-0.32,0.861-0.593,1.021
				c0.243,0.101,0.487,0.208,0.51,0.801l0.036,0.771c0.006,0.238,0.036,0.327,0.214,0.427v0.095h-0.707
				c-0.083-0.261-0.101-0.908-0.101-1.068c0-0.35-0.071-0.76-0.76-0.76h-1.395V4.928z M163.239,2.607h1.335
				c0.421,0,0.867-0.107,0.867-0.736c0-0.659-0.481-0.712-0.766-0.712h-1.437V2.607z"/>
			<path d="M168.559,4.928H168V1.966h-0.973V1.551c0.677-0.047,0.956-0.113,1.122-0.795h0.41V4.928z"/>
			<path d="M171.052,5.041c-1.199,0-1.43-1.276-1.43-2.143c0-0.867,0.231-2.143,1.43-2.143c1.199,0,1.431,1.276,1.431,2.143
				C172.483,3.765,172.251,5.041,171.052,5.041z M171.052,1.225c-0.599,0-0.873,0.629-0.873,1.674c0,1.044,0.273,1.674,0.873,1.674
				c0.6,0,0.873-0.629,0.873-1.674C171.925,1.854,171.652,1.225,171.052,1.225z"/>
			<path d="M174.389,4.928h-0.558V1.966h-0.973V1.551c0.677-0.047,0.956-0.113,1.122-0.795h0.41V4.928z"/>
			<path d="M176.195,2.5c0.178-0.136,0.433-0.261,0.807-0.261c0.677,0,1.371,0.475,1.371,1.335c0,0.463-0.208,1.466-1.514,1.466
				c-0.546,0-1.246-0.22-1.347-1.151h0.54c0.054,0.486,0.416,0.7,0.885,0.7c0.54,0,0.878-0.433,0.878-0.956
				c0-0.6-0.41-0.926-0.926-0.926c-0.303,0-0.576,0.142-0.771,0.397l-0.451-0.024l0.314-2.237h2.161v0.51h-1.769L176.195,2.5z"/>
		</g>
		<g>
			<path d="M305.495,5.324h-0.575V1.062h1.971c0.7,0,1.4,0.243,1.4,1.146c0,0.629-0.32,0.861-0.594,1.021
				c0.244,0.101,0.487,0.208,0.511,0.801l0.036,0.771c0.006,0.238,0.035,0.327,0.213,0.427v0.095h-0.706
				c-0.083-0.261-0.101-0.908-0.101-1.068c0-0.35-0.071-0.76-0.76-0.76h-1.396V5.324z M305.495,3.003h1.336
				c0.422,0,0.866-0.107,0.866-0.736c0-0.659-0.48-0.712-0.766-0.712h-1.437V3.003z"/>
			<path d="M310.815,5.324h-0.558V2.362h-0.974V1.946c0.677-0.047,0.955-0.113,1.122-0.795h0.409V5.324z"/>
			<path d="M313.309,5.437c-1.199,0-1.431-1.276-1.431-2.143c0-0.867,0.231-2.143,1.431-2.143c1.198,0,1.431,1.276,1.431,2.143
				C314.74,4.16,314.507,5.437,313.309,5.437z M313.309,1.62c-0.6,0-0.873,0.629-0.873,1.674c0,1.044,0.273,1.674,0.873,1.674
				s0.872-0.629,0.872-1.674C314.181,2.249,313.909,1.62,313.309,1.62z"/>
			<path d="M316.61,5.437c-1.199,0-1.431-1.276-1.431-2.143c0-0.867,0.231-2.143,1.431-2.143c1.198,0,1.431,1.276,1.431,2.143
				C318.04,4.16,317.808,5.437,316.61,5.437z M316.61,1.62c-0.6,0-0.873,0.629-0.873,1.674c0,1.044,0.273,1.674,0.873,1.674
				s0.872-0.629,0.872-1.674C317.482,2.249,317.209,1.62,316.61,1.62z"/>
			<path d="M319.911,5.437c-1.199,0-1.431-1.276-1.431-2.143c0-0.867,0.231-2.143,1.431-2.143c1.198,0,1.431,1.276,1.431,2.143
				C321.341,4.16,321.109,5.437,319.911,5.437z M319.911,1.62c-0.6,0-0.873,0.629-0.873,1.674c0,1.044,0.273,1.674,0.873,1.674
				s0.872-0.629,0.872-1.674C320.783,2.249,320.51,1.62,319.911,1.62z"/>
		</g>
		<rect x="165.562" y="7.388" class="st3" width="151.478" height="16.83"/>
		<line class="st3" x1="175.094" y1="20.054" x2="175.094" y2="24.013"/>
		<line class="st3" x1="184.562" y1="20.054" x2="184.562" y2="24.013"/>
		<line class="st3" x1="194.031" y1="20.054" x2="194.031" y2="24.013"/>
		<line class="st3" x1="203.496" y1="20.054" x2="203.496" y2="24.013"/>
		<line class="st3" x1="212.964" y1="20.054" x2="212.964" y2="24.013"/>
		<line class="st3" x1="222.432" y1="20.054" x2="222.432" y2="24.013"/>
		<line class="st3" x1="231.898" y1="20.054" x2="231.898" y2="24.013"/>
		<line class="st3" x1="241.366" y1="20.054" x2="241.366" y2="24.013"/>
		<line class="st3" x1="250.834" y1="20.054" x2="250.834" y2="24.013"/>
		<line class="st3" x1="260.302" y1="20.054" x2="260.302" y2="24.013"/>
		<line class="st3" x1="269.769" y1="20.054" x2="269.769" y2="24.013"/>
		<line class="st3" x1="279.235" y1="20.054" x2="279.235" y2="24.013"/>
		<line class="st3" x1="288.701" y1="20.054" x2="288.701" y2="24.013"/>
		<line class="st3" x1="298.171" y1="20.054" x2="298.171" y2="24.013"/>
		<line class="st3" x1="307.637" y1="20.054" x2="307.637" y2="24.013"/>
		<line class="st3" x1="175.094" y1="7.783" x2="175.094" y2="11.742"/>
		<line class="st3" x1="184.562" y1="7.783" x2="184.562" y2="11.742"/>
		<line class="st3" x1="194.031" y1="7.783" x2="194.031" y2="11.742"/>
		<line class="st3" x1="203.496" y1="7.783" x2="203.496" y2="11.742"/>
		<line class="st3" x1="212.964" y1="7.783" x2="212.964" y2="11.742"/>
		<line class="st3" x1="222.432" y1="7.783" x2="222.432" y2="11.742"/>
		<line class="st3" x1="231.898" y1="7.783" x2="231.898" y2="11.742"/>
		<line class="st3" x1="241.366" y1="7.783" x2="241.366" y2="11.742"/>
		<line class="st3" x1="250.834" y1="7.783" x2="250.834" y2="11.742"/>
		<line class="st3" x1="260.302" y1="7.783" x2="260.302" y2="11.742"/>
		<line class="st3" x1="269.769" y1="7.783" x2="269.769" y2="11.742"/>
		<line class="st3" x1="279.235" y1="7.783" x2="279.235" y2="11.742"/>
		<line class="st3" x1="288.701" y1="7.783" x2="288.701" y2="11.742"/>
		<line class="st3" x1="298.171" y1="7.783" x2="298.171" y2="11.742"/>
		<line class="st3" x1="307.637" y1="7.783" x2="307.637" y2="11.742"/>
		<line class="st1" x1="165.562" y1="24.218" x2="317.04" y2="24.218"/>
		<line class="st1" x1="317.04" y1="24.218" x2="317.04" y2="7.388"/>
		<polygon class="st4" points="232.402,28.847 232.402,34.255 229.277,34.255 234.658,38.386 239.866,34.255 236.567,34.255 
			236.567,28.847 		"/>
		<g>
			<g>
			</g>
		</g>
		<g>
			<path d="M322.367,48.165h1.728c1.11,0,1.793,0.843,1.793,2.071c0,0.956-0.416,2.19-1.816,2.19h-1.704V48.165z M322.943,51.934
				h1.116c0.747,0,1.234-0.587,1.234-1.662c0-1.074-0.493-1.614-1.276-1.614h-1.074V51.934z"/>
			<path d="M330.132,52.426V49.91c0-0.125,0.012-0.665,0.012-1.062h-0.012l-1.199,3.579h-0.569l-1.199-3.573h-0.012
				c0,0.392,0.012,0.932,0.012,1.057v2.517h-0.558v-4.262h0.825l1.217,3.603h0.012l1.211-3.603h0.818v4.262H330.132z"/>
			<path d="M332.77,52.539c-1.199,0-1.431-1.276-1.431-2.143c0-0.867,0.231-2.143,1.431-2.143c1.198,0,1.431,1.276,1.431,2.143
				C334.201,51.263,333.968,52.539,332.77,52.539z M332.77,48.723c-0.6,0-0.873,0.629-0.873,1.674c0,1.044,0.273,1.674,0.873,1.674
				s0.872-0.629,0.872-1.674C333.642,49.352,333.37,48.723,332.77,48.723z"/>
		</g>
		<rect x="165.562" y="42.221" class="st3" width="151.478" height="16.831"/>
		<line class="st3" x1="175.094" y1="54.887" x2="175.094" y2="58.846"/>
		<line class="st3" x1="184.562" y1="54.887" x2="184.562" y2="58.846"/>
		<line class="st3" x1="194.031" y1="54.887" x2="194.031" y2="58.846"/>
		<line class="st3" x1="203.496" y1="54.887" x2="203.496" y2="58.846"/>
		<line class="st3" x1="212.964" y1="54.887" x2="212.964" y2="58.846"/>
		<line class="st3" x1="222.432" y1="54.887" x2="222.432" y2="58.846"/>
		<line class="st3" x1="231.898" y1="54.887" x2="231.898" y2="58.846"/>
		<line class="st3" x1="241.366" y1="54.887" x2="241.366" y2="58.846"/>
		<line class="st3" x1="250.834" y1="54.887" x2="250.834" y2="58.846"/>
		<line class="st3" x1="260.302" y1="54.887" x2="260.302" y2="58.846"/>
		<line class="st3" x1="269.769" y1="54.887" x2="269.769" y2="58.846"/>
		<line class="st3" x1="279.235" y1="54.887" x2="279.235" y2="58.846"/>
		<line class="st3" x1="288.701" y1="54.887" x2="288.701" y2="58.846"/>
		<line class="st3" x1="298.171" y1="54.887" x2="298.171" y2="58.846"/>
		<line class="st3" x1="307.637" y1="54.887" x2="307.637" y2="58.846"/>
		<line class="st3" x1="175.094" y1="42.616" x2="175.094" y2="46.575"/>
		<line class="st3" x1="184.562" y1="42.616" x2="184.562" y2="46.575"/>
		<line class="st3" x1="194.031" y1="42.616" x2="194.031" y2="46.575"/>
		<line class="st3" x1="203.496" y1="42.616" x2="203.496" y2="46.575"/>
		<line class="st3" x1="212.964" y1="42.616" x2="212.964" y2="46.575"/>
		<line class="st3" x1="222.432" y1="42.616" x2="222.432" y2="46.575"/>
		<line class="st3" x1="231.898" y1="42.616" x2="231.898" y2="46.575"/>
		<line class="st3" x1="241.366" y1="42.616" x2="241.366" y2="46.575"/>
		<line class="st3" x1="250.834" y1="42.616" x2="250.834" y2="46.575"/>
		<line class="st3" x1="260.302" y1="42.616" x2="260.302" y2="46.575"/>
		<line class="st3" x1="269.769" y1="42.616" x2="269.769" y2="46.575"/>
		<line class="st3" x1="279.235" y1="42.616" x2="279.235" y2="46.575"/>
		<line class="st3" x1="288.701" y1="42.616" x2="288.701" y2="46.575"/>
		<line class="st3" x1="298.171" y1="42.616" x2="298.171" y2="46.575"/>
		<line class="st3" x1="307.637" y1="42.616" x2="307.637" y2="46.575"/>
		<line class="st1" x1="165.562" y1="59.052" x2="317.04" y2="59.052"/>
		<line class="st1" x1="317.04" y1="59.052" x2="317.04" y2="42.221"/>
		<rect x="83.509" y="14.097" class="st5" width="67.323" height="16.83"/>
		<line class="st5" x1="117.172" y1="30.927" x2="117.172" y2="14.097"/>
		<rect x="88.704" y="8.745" class="st2" width="22.996" height="9.354"/>
		<g>
			<path d="M89.575,26.175h-0.807v-5.971h2.761c0.981,0,1.962,0.341,1.962,1.605c0,0.881-0.449,1.206-0.832,1.43
				c0.341,0.141,0.682,0.291,0.715,1.123l0.05,1.081c0.008,0.333,0.05,0.458,0.299,0.599v0.133h-0.989
				c-0.117-0.366-0.142-1.272-0.142-1.497c0-0.49-0.1-1.064-1.064-1.064h-1.954V26.175z M89.575,22.924h1.871
				c0.59,0,1.214-0.15,1.214-1.031c0-0.923-0.673-0.998-1.073-0.998h-2.012V22.924z"/>
			<path d="M97.023,26.175h-0.782v-4.15h-1.364v-0.582c0.948-0.066,1.339-0.158,1.572-1.114h0.574V26.175z"/>
			<path d="M100.515,26.333c-1.68,0-2.004-1.788-2.004-3.002c0-1.214,0.324-3.002,2.004-3.002c1.68,0,2.004,1.788,2.004,3.002
				C102.519,24.545,102.194,26.333,100.515,26.333z M100.515,20.986c-0.84,0-1.223,0.881-1.223,2.345
				c0,1.464,0.383,2.345,1.223,2.345s1.222-0.881,1.222-2.345C101.737,21.868,101.354,20.986,100.515,20.986z"/>
			<path d="M105.136,26.333c-1.68,0-2.004-1.788-2.004-3.002c0-1.214,0.324-3.002,2.004-3.002c1.68,0,2.004,1.788,2.004,3.002
				C107.14,24.545,106.816,26.333,105.136,26.333z M105.136,20.986c-0.84,0-1.223,0.881-1.223,2.345
				c0,1.464,0.383,2.345,1.223,2.345s1.222-0.881,1.222-2.345C106.358,21.868,105.976,20.986,105.136,20.986z"/>
			<path d="M109.758,26.333c-1.68,0-2.004-1.788-2.004-3.002c0-1.214,0.324-3.002,2.004-3.002c1.68,0,2.004,1.788,2.004,3.002
				C111.762,24.545,111.437,26.333,109.758,26.333z M109.758,20.986c-0.84,0-1.223,0.881-1.223,2.345
				c0,1.464,0.383,2.345,1.223,2.345s1.222-0.881,1.222-2.345C110.98,21.868,110.598,20.986,109.758,20.986z"/>
		</g>
		<g>
			<path d="M125.702,20.205h2.42c1.555,0,2.511,1.181,2.511,2.902c0,1.339-0.582,3.069-2.545,3.069h-2.386V20.205z M126.509,25.485
				h1.563c1.048,0,1.73-0.823,1.73-2.328c0-1.505-0.69-2.262-1.788-2.262h-1.505V25.485z"/>
			<path d="M136.577,26.175v-3.526c0-0.175,0.017-0.932,0.017-1.489h-0.017l-1.68,5.015h-0.798l-1.68-5.006h-0.017
				c0,0.549,0.017,1.306,0.017,1.48v3.526h-0.782v-5.971h1.156l1.705,5.048h0.017l1.696-5.048h1.148v5.971H136.577z"/>
			<path d="M140.266,26.333c-1.68,0-2.004-1.788-2.004-3.002c0-1.214,0.324-3.002,2.004-3.002c1.68,0,2.004,1.788,2.004,3.002
				C142.27,24.545,141.946,26.333,140.266,26.333z M140.266,20.986c-0.84,0-1.223,0.881-1.223,2.345
				c0,1.464,0.383,2.345,1.223,2.345s1.222-0.881,1.222-2.345C141.488,21.868,141.106,20.986,140.266,20.986z"/>
		</g>
		<g>
			<path d="M96.24,15.517v-3.526c0-0.175,0.017-0.932,0.017-1.489H96.24l-1.68,5.015h-0.798l-1.68-5.006h-0.017
				c0,0.549,0.017,1.306,0.017,1.48v3.526H91.3V9.546h1.156l1.705,5.048h0.017l1.696-5.048h1.148v5.971H96.24z"/>
			<path d="M100.853,15.675c-2.229,0-2.911-1.854-2.911-3.144s0.682-3.144,2.911-3.144c2.229,0,2.911,1.854,2.911,3.144
				S103.082,15.675,100.853,15.675z M100.853,10.104c-1.297,0-2.079,1.022-2.079,2.428c0,1.405,0.782,2.428,2.079,2.428
				s2.079-1.023,2.079-2.428C102.932,11.126,102.15,10.104,100.853,10.104z"/>
			<path d="M108.144,9.546h0.906l-2.179,5.971h-0.856l-2.179-5.971h0.898l1.705,5.089h0.017L108.144,9.546z"/>
		</g>
		<g>
			<path d="M249.627,36.891v-3.526c0-0.175,0.017-0.932,0.017-1.489h-0.017l-1.68,5.015h-0.799l-1.68-5.006h-0.017
				c0,0.549,0.017,1.306,0.017,1.48v3.526h-0.781V30.92h1.155l1.705,5.048h0.017l1.696-5.048h1.147v5.971H249.627z"/>
			<path d="M254.24,37.049c-2.229,0-2.911-1.854-2.911-3.144s0.682-3.144,2.911-3.144c2.229,0,2.91,1.854,2.91,3.144
				S256.468,37.049,254.24,37.049z M254.24,31.478c-1.298,0-2.079,1.022-2.079,2.428c0,1.405,0.781,2.428,2.079,2.428
				c1.297,0,2.078-1.023,2.078-2.428C256.318,32.5,255.537,31.478,254.24,31.478z"/>
			<path d="M261.53,30.92h0.907l-2.179,5.971h-0.857l-2.179-5.971h0.898l1.705,5.089h0.017L261.53,30.92z"/>
		</g>
	</g>
	<g>
		<g>
			<g>
				<path d="M171.057,18.635h-0.782v-4.15h-1.364v-0.582c0.948-0.066,1.339-0.158,1.572-1.114h0.574V18.635z"/>
			</g>
		</g>
		<g>
			<g>
				<path d="M180.504,18.635h-0.782v-4.15h-1.364v-0.582c0.948-0.066,1.339-0.158,1.572-1.114h0.574V18.635z"/>
			</g>
		</g>
		<g>
			<g>
				<path d="M189.951,18.635h-0.781v-4.15h-1.364v-0.582c0.948-0.066,1.339-0.158,1.572-1.114h0.573V18.635z"/>
			</g>
		</g>
		<g>
			<g>
				<path d="M198.724,18.793c-1.68,0-2.004-1.788-2.004-3.002c0-1.214,0.324-3.002,2.004-3.002s2.005,1.788,2.005,3.002
					C200.729,17.005,200.404,18.793,198.724,18.793z M198.724,13.446c-0.84,0-1.222,0.881-1.222,2.345
					c0,1.464,0.382,2.345,1.222,2.345s1.223-0.881,1.223-2.345C199.947,14.328,199.564,13.446,198.724,13.446z"/>
			</g>
		</g>
		<g>
			<g>
				<path d="M208.845,18.635h-0.781v-4.15H206.7v-0.582c0.948-0.066,1.339-0.158,1.572-1.114h0.573V18.635z"/>
			</g>
		</g>
		<g>
			<g>
				<path d="M217.618,18.793c-1.68,0-2.004-1.788-2.004-3.002c0-1.214,0.324-3.002,2.004-3.002c1.681,0,2.005,1.788,2.005,3.002
					C219.623,17.005,219.298,18.793,217.618,18.793z M217.618,13.446c-0.84,0-1.222,0.881-1.222,2.345
					c0,1.464,0.382,2.345,1.222,2.345s1.223-0.881,1.223-2.345C218.84,14.328,218.457,13.446,217.618,13.446z"/>
			</g>
		</g>
		<g>
			<g>
				<path d="M227.739,18.635h-0.781v-4.15h-1.364v-0.582c0.948-0.066,1.339-0.158,1.572-1.114h0.573V18.635z"/>
			</g>
		</g>
		<g>
			<g>
				<path d="M246.632,18.635h-0.781v-4.15h-1.364v-0.582c0.948-0.066,1.339-0.158,1.572-1.114h0.573V18.635z"/>
			</g>
		</g>
		<g>
			<g>
				<path d="M255.406,18.793c-1.68,0-2.004-1.788-2.004-3.002c0-1.214,0.324-3.002,2.004-3.002c1.68,0,2.005,1.788,2.005,3.002
					C257.411,17.005,257.085,18.793,255.406,18.793z M255.406,13.446c-0.84,0-1.222,0.881-1.222,2.345
					c0,1.464,0.382,2.345,1.222,2.345c0.84,0,1.223-0.881,1.223-2.345C256.628,14.328,256.246,13.446,255.406,13.446z"/>
			</g>
		</g>
		<g>
			<g>
				<path d="M265.526,18.635h-0.781v-4.15h-1.364v-0.582c0.948-0.066,1.339-0.158,1.572-1.114h0.573V18.635z"/>
			</g>
		</g>
		<g>
			<g>
				<path d="M274.3,18.793c-1.68,0-2.004-1.788-2.004-3.002c0-1.214,0.324-3.002,2.004-3.002s2.005,1.788,2.005,3.002
					C276.305,17.005,275.98,18.793,274.3,18.793z M274.3,13.446c-0.84,0-1.222,0.881-1.222,2.345c0,1.464,0.382,2.345,1.222,2.345
					s1.223-0.881,1.223-2.345C275.523,14.328,275.14,13.446,274.3,13.446z"/>
			</g>
		</g>
		<g>
			<g>
				<path d="M284.42,18.635h-0.781v-4.15h-1.364v-0.582c0.948-0.066,1.339-0.158,1.572-1.114h0.573V18.635z"/>
			</g>
		</g>
		<g>
			<g>
				<path d="M293.193,18.793c-1.68,0-2.004-1.788-2.004-3.002c0-1.214,0.324-3.002,2.004-3.002s2.005,1.788,2.005,3.002
					C295.198,17.005,294.873,18.793,293.193,18.793z M293.193,13.446c-0.84,0-1.222,0.881-1.222,2.345
					c0,1.464,0.382,2.345,1.222,2.345s1.223-0.881,1.223-2.345C294.415,14.328,294.033,13.446,293.193,13.446z"/>
			</g>
		</g>
		<g>
			<g>
				<path d="M303.315,18.635h-0.781v-4.15h-1.364v-0.582c0.948-0.066,1.339-0.158,1.572-1.114h0.573V18.635z"/>
			</g>
		</g>
		<g>
			<g>
				<path d="M312.087,18.793c-1.68,0-2.004-1.788-2.004-3.002c0-1.214,0.324-3.002,2.004-3.002s2.005,1.788,2.005,3.002
					C314.092,17.005,313.767,18.793,312.087,18.793z M312.087,13.446c-0.84,0-1.222,0.881-1.222,2.345
					c0,1.464,0.382,2.345,1.222,2.345s1.223-0.881,1.223-2.345C313.31,14.328,312.927,13.446,312.087,13.446z"/>
			</g>
		</g>
		<g>
			<g>
				<path d="M236.512,18.793c-1.68,0-2.004-1.788-2.004-3.002c0-1.214,0.324-3.002,2.004-3.002c1.681,0,2.005,1.788,2.005,3.002
					C238.517,17.005,238.193,18.793,236.512,18.793z M236.512,13.446c-0.84,0-1.222,0.881-1.222,2.345
					c0,1.464,0.382,2.345,1.222,2.345s1.223-0.881,1.223-2.345C237.735,14.328,237.352,13.446,236.512,13.446z"/>
			</g>
		</g>
	</g>
	<g>
		<g>
			<g>
				<path d="M171.057,54.175h-0.782v-4.15h-1.364v-0.582c0.948-0.066,1.339-0.158,1.572-1.114h0.574V54.175z"/>
			</g>
		</g>
		<g>
			<g>
				<path d="M180.504,54.175h-0.782v-4.15h-1.364v-0.582c0.948-0.066,1.339-0.158,1.572-1.114h0.574V54.175z"/>
			</g>
		</g>
		<g>
			<g>
				<path d="M189.951,54.175h-0.781v-4.15h-1.364v-0.582c0.948-0.066,1.339-0.158,1.572-1.114h0.573V54.175z"/>
			</g>
		</g>
		<g>
			<g>
				<path d="M198.724,54.333c-1.68,0-2.004-1.788-2.004-3.002c0-1.214,0.324-3.002,2.004-3.002s2.005,1.788,2.005,3.002
					C200.729,52.545,200.404,54.333,198.724,54.333z M198.724,48.986c-0.84,0-1.222,0.881-1.222,2.345
					c0,1.464,0.382,2.345,1.222,2.345s1.223-0.881,1.223-2.345C199.947,49.868,199.564,48.986,198.724,48.986z"/>
			</g>
		</g>
		<g>
			<g>
				<path d="M208.845,54.175h-0.781v-4.15H206.7v-0.582c0.948-0.066,1.339-0.158,1.572-1.114h0.573V54.175z"/>
			</g>
		</g>
		<g>
			<g>
				<path d="M217.618,54.333c-1.68,0-2.004-1.788-2.004-3.002c0-1.214,0.324-3.002,2.004-3.002c1.681,0,2.005,1.788,2.005,3.002
					C219.623,52.545,219.298,54.333,217.618,54.333z M217.618,48.986c-0.84,0-1.222,0.881-1.222,2.345
					c0,1.464,0.382,2.345,1.222,2.345s1.223-0.881,1.223-2.345C218.84,49.868,218.457,48.986,217.618,48.986z"/>
			</g>
		</g>
		<g>
			<g>
				<path d="M227.739,54.175h-0.781v-4.15h-1.364v-0.582c0.948-0.066,1.339-0.158,1.572-1.114h0.573V54.175z"/>
			</g>
		</g>
		<g>
			<g>
				<path d="M246.632,54.175h-0.781v-4.15h-1.364v-0.582c0.948-0.066,1.339-0.158,1.572-1.114h0.573V54.175z"/>
			</g>
		</g>
		<g>
			<g>
				<path d="M255.406,54.333c-1.68,0-2.004-1.788-2.004-3.002c0-1.214,0.324-3.002,2.004-3.002c1.68,0,2.005,1.788,2.005,3.002
					C257.411,52.545,257.085,54.333,255.406,54.333z M255.406,48.986c-0.84,0-1.222,0.881-1.222,2.345
					c0,1.464,0.382,2.345,1.222,2.345c0.84,0,1.223-0.881,1.223-2.345C256.628,49.868,256.246,48.986,255.406,48.986z"/>
			</g>
		</g>
		<g>
			<g>
				<path d="M265.526,54.175h-0.781v-4.15h-1.364v-0.582c0.948-0.066,1.339-0.158,1.572-1.114h0.573V54.175z"/>
			</g>
		</g>
		<g>
			<g>
				<path d="M274.3,54.333c-1.68,0-2.004-1.788-2.004-3.002c0-1.214,0.324-3.002,2.004-3.002s2.005,1.788,2.005,3.002
					C276.305,52.545,275.98,54.333,274.3,54.333z M274.3,48.986c-0.84,0-1.222,0.881-1.222,2.345c0,1.464,0.382,2.345,1.222,2.345
					s1.223-0.881,1.223-2.345C275.523,49.868,275.14,48.986,274.3,48.986z"/>
			</g>
		</g>
		<g>
			<g>
				<path d="M284.42,54.175h-0.781v-4.15h-1.364v-0.582c0.948-0.066,1.339-0.158,1.572-1.114h0.573V54.175z"/>
			</g>
		</g>
		<g>
			<g>
				<path d="M293.193,54.333c-1.68,0-2.004-1.788-2.004-3.002c0-1.214,0.324-3.002,2.004-3.002s2.005,1.788,2.005,3.002
					C295.198,52.545,294.873,54.333,293.193,54.333z M293.193,48.986c-0.84,0-1.222,0.881-1.222,2.345
					c0,1.464,0.382,2.345,1.222,2.345s1.223-0.881,1.223-2.345C294.415,49.868,294.033,48.986,293.193,48.986z"/>
			</g>
		</g>
		<g>
			<g>
				<path d="M303.315,54.175h-0.781v-4.15h-1.364v-0.582c0.948-0.066,1.339-0.158,1.572-1.114h0.573V54.175z"/>
			</g>
		</g>
		<g>
			<g>
				<path d="M312.087,54.333c-1.68,0-2.004-1.788-2.004-3.002c0-1.214,0.324-3.002,2.004-3.002s2.005,1.788,2.005,3.002
					C314.092,52.545,313.767,54.333,312.087,54.333z M312.087,48.986c-0.84,0-1.222,0.881-1.222,2.345
					c0,1.464,0.382,2.345,1.222,2.345s1.223-0.881,1.223-2.345C313.31,49.868,312.927,48.986,312.087,48.986z"/>
			</g>
		</g>
		<g>
			<g>
				<path d="M236.512,54.333c-1.68,0-2.004-1.788-2.004-3.002c0-1.214,0.324-3.002,2.004-3.002c1.681,0,2.005,1.788,2.005,3.002
					C238.517,52.545,238.193,54.333,236.512,54.333z M236.512,48.986c-0.84,0-1.222,0.881-1.222,2.345
					c0,1.464,0.382,2.345,1.222,2.345s1.223-0.881,1.223-2.345C237.735,49.868,237.352,48.986,236.512,48.986z"/>
			</g>
		</g>
	</g>
</g>
<g id="レイヤー_2">
</g>
</svg>
