<?xml version="1.0" encoding="utf-8"?>
<!-- Generator: Adobe Illustrator 28.2.0, SVG Export Plug-In . SVG Version: 6.00 Build 0)  -->
<svg version="1.1" xmlns="http://www.w3.org/2000/svg" xmlns:xlink="http://www.w3.org/1999/xlink" x="0px" y="0px"
	 width="383.511px" height="285.734px" viewBox="0 0 383.511 285.734" style="enable-background:new 0 0 383.511 285.734;"
	 xml:space="preserve">
<style type="text/css">
	.st0{fill:none;stroke:#000000;}
	.st1{fill:#FFFFFF;}
	.st2{fill:#FFFFFF;stroke:#000000;}
	.st3{fill:none;stroke:#000000;stroke-linecap:round;stroke-linejoin:round;stroke-dasharray:0.5,4;}
</style>
<g id="レイヤー1">
	<line class="st0" x1="0.5" y1="4.244" x2="0.5" y2="227.369"/>
	<line class="st0" x1="283.964" y1="4.244" x2="283.964" y2="227.369"/>
	<line class="st0" x1="0.5" y1="16.744" x2="283.964" y2="16.744"/>
	<polyline class="st0" points="283.964,41.548 227.272,41.548 227.272,16.119 	"/>
	<polyline class="st0" points="283.964,66.351 198.925,66.351 198.925,16.119 	"/>
	<polyline class="st0" points="283.964,91.154 170.579,91.154 170.579,16.119 	"/>
	<polyline class="st0" points="283.964,115.957 142.232,115.957 142.232,16.744 	"/>
	<polyline class="st0" points="283.964,140.76 113.886,140.76 113.886,16.744 	"/>
	<polyline class="st0" points="283.964,165.563 85.539,165.563 85.539,16.744 	"/>
	<polyline class="st0" points="283.964,190.366 57.193,190.366 57.193,17.369 	"/>
	<polyline class="st0" points="283.964,215.17 28.846,215.17 28.846,16.744 	"/>
	<g>
		<rect x="11.13" y="13.201" class="st1" width="7.087" height="7.088"/>
		<line class="st0" x1="18.217" y1="13.201" x2="18.217" y2="20.288"/>
		<line class="st0" x1="11.13" y1="20.288" x2="11.13" y2="13.201"/>
	</g>
	<g>
		<rect x="39.476" y="13.201" class="st1" width="7.087" height="7.088"/>
		<line class="st0" x1="46.563" y1="13.201" x2="46.563" y2="20.288"/>
		<line class="st0" x1="39.476" y1="20.288" x2="39.476" y2="13.201"/>
	</g>
	<g>
		<rect x="67.822" y="13.201" class="st1" width="7.087" height="7.088"/>
		<line class="st0" x1="74.91" y1="13.201" x2="74.91" y2="20.288"/>
		<line class="st0" x1="67.822" y1="20.288" x2="67.822" y2="13.201"/>
	</g>
	<g>
		<rect x="96.169" y="13.201" class="st1" width="7.087" height="7.088"/>
		<line class="st0" x1="103.256" y1="13.201" x2="103.256" y2="20.288"/>
		<line class="st0" x1="96.169" y1="20.288" x2="96.169" y2="13.201"/>
	</g>
	<g>
		<rect x="124.515" y="13.201" class="st1" width="7.087" height="7.088"/>
		<line class="st0" x1="131.602" y1="13.201" x2="131.602" y2="20.288"/>
		<line class="st0" x1="124.515" y1="20.288" x2="124.515" y2="13.201"/>
	</g>
	<g>
		<rect x="152.862" y="13.201" class="st1" width="7.087" height="7.088"/>
		<line class="st0" x1="159.949" y1="13.201" x2="159.949" y2="20.288"/>
		<line class="st0" x1="152.862" y1="20.288" x2="152.862" y2="13.201"/>
	</g>
	<g>
		<rect x="181.209" y="13.201" class="st1" width="7.087" height="7.088"/>
		<line class="st0" x1="188.295" y1="13.201" x2="188.295" y2="20.288"/>
		<line class="st0" x1="181.209" y1="20.288" x2="181.209" y2="13.201"/>
	</g>
	<g>
		<rect x="209.555" y="13.201" class="st1" width="7.087" height="7.088"/>
		<line class="st0" x1="216.642" y1="13.201" x2="216.642" y2="20.288"/>
		<line class="st0" x1="209.555" y1="20.288" x2="209.555" y2="13.201"/>
	</g>
	<g>
		<rect x="237.901" y="13.201" class="st1" width="7.087" height="7.088"/>
		<line class="st0" x1="244.988" y1="13.201" x2="244.988" y2="20.288"/>
		<line class="st0" x1="237.901" y1="20.288" x2="237.901" y2="13.201"/>
	</g>
	<g>
		<rect x="237.901" y="38.004" class="st1" width="7.087" height="7.087"/>
		<line class="st0" x1="244.988" y1="38.004" x2="244.988" y2="45.092"/>
		<line class="st0" x1="237.901" y1="45.092" x2="237.901" y2="38.004"/>
	</g>
	<g>
		<rect x="237.901" y="62.807" class="st1" width="7.087" height="7.087"/>
		<line class="st0" x1="244.988" y1="62.807" x2="244.988" y2="69.894"/>
		<line class="st0" x1="237.901" y1="69.894" x2="237.901" y2="62.807"/>
	</g>
	<g>
		<rect x="237.901" y="87.61" class="st1" width="7.087" height="7.087"/>
		<line class="st0" x1="244.988" y1="87.61" x2="244.988" y2="94.697"/>
		<line class="st0" x1="237.901" y1="94.697" x2="237.901" y2="87.61"/>
	</g>
	<g>
		<rect x="237.901" y="112.413" class="st1" width="7.087" height="7.087"/>
		<line class="st0" x1="244.988" y1="112.413" x2="244.988" y2="119.501"/>
		<line class="st0" x1="237.901" y1="119.501" x2="237.901" y2="112.413"/>
	</g>
	<g>
		<rect x="237.901" y="137.216" class="st1" width="7.087" height="7.087"/>
		<line class="st0" x1="244.988" y1="137.216" x2="244.988" y2="144.304"/>
		<line class="st0" x1="237.901" y1="144.304" x2="237.901" y2="137.216"/>
	</g>
	<g>
		<rect x="237.901" y="162.02" class="st1" width="7.087" height="7.087"/>
		<line class="st0" x1="244.988" y1="162.02" x2="244.988" y2="169.107"/>
		<line class="st0" x1="237.901" y1="169.107" x2="237.901" y2="162.02"/>
	</g>
	<g>
		<rect x="237.901" y="186.823" class="st1" width="7.087" height="7.087"/>
		<line class="st0" x1="244.988" y1="186.823" x2="244.988" y2="193.91"/>
		<line class="st0" x1="237.901" y1="193.91" x2="237.901" y2="186.823"/>
	</g>
	<g>
		<rect x="237.901" y="211.626" class="st1" width="7.087" height="7.087"/>
		<line class="st0" x1="244.988" y1="211.626" x2="244.988" y2="218.713"/>
		<line class="st0" x1="237.901" y1="218.713" x2="237.901" y2="211.626"/>
	</g>
	<path class="st2" d="M273.336,16.744c0,1.957-1.586,3.544-3.543,3.544c-1.958,0-3.544-1.587-3.544-3.544
		c0-1.957,1.586-3.544,3.544-3.544C271.75,13.201,273.336,14.788,273.336,16.744z"/>
	<path class="st2" d="M273.336,41.547c0,1.957-1.586,3.544-3.543,3.544c-1.958,0-3.544-1.586-3.544-3.544
		c0-1.957,1.586-3.543,3.544-3.543C271.75,38.004,273.336,39.591,273.336,41.547z"/>
	<path class="st2" d="M273.336,66.35c0,1.957-1.586,3.544-3.543,3.544c-1.958,0-3.544-1.586-3.544-3.544
		c0-1.957,1.586-3.543,3.544-3.543C271.75,62.807,273.336,64.393,273.336,66.35z"/>
	<path class="st2" d="M273.336,91.154c0,1.957-1.586,3.544-3.543,3.544c-1.958,0-3.544-1.586-3.544-3.544
		c0-1.957,1.586-3.543,3.544-3.543C271.75,87.611,273.336,89.197,273.336,91.154z"/>
	<path class="st2" d="M273.336,115.956c0,1.957-1.586,3.544-3.543,3.544c-1.958,0-3.544-1.586-3.544-3.544
		c0-1.957,1.586-3.543,3.544-3.543C271.75,112.413,273.336,114,273.336,115.956z"/>
	<path class="st2" d="M273.336,140.76c0,1.957-1.586,3.544-3.543,3.544c-1.958,0-3.544-1.586-3.544-3.544
		c0-1.957,1.586-3.543,3.544-3.543C271.75,137.217,273.336,138.803,273.336,140.76z"/>
	<path class="st2" d="M273.336,165.563c0,1.957-1.586,3.544-3.543,3.544c-1.958,0-3.544-1.586-3.544-3.544
		c0-1.957,1.586-3.543,3.544-3.543C271.75,162.02,273.336,163.606,273.336,165.563z"/>
	<path class="st2" d="M273.336,190.366c0,1.957-1.586,3.544-3.543,3.544c-1.958,0-3.544-1.586-3.544-3.544
		c0-1.957,1.586-3.543,3.544-3.543C271.75,186.823,273.336,188.409,273.336,190.366z"/>
	<path class="st2" d="M273.336,215.169c0,1.958-1.586,3.544-3.543,3.544c-1.958,0-3.544-1.586-3.544-3.544
		c0-1.957,1.586-3.543,3.544-3.543C271.75,211.626,273.336,213.212,273.336,215.169z"/>
	<g>
		<path d="M5.687,6.64H4.912V0.899h2.654c0.944,0,1.887,0.328,1.887,1.543c0,0.848-0.432,1.16-0.799,1.375
			c0.328,0.136,0.655,0.28,0.688,1.079l0.048,1.04c0.008,0.32,0.048,0.44,0.288,0.576V6.64H8.726C8.614,6.289,8.59,5.417,8.59,5.201
			c0-0.472-0.096-1.023-1.023-1.023H5.687V6.64z M5.687,3.514h1.799c0.567,0,1.167-0.144,1.167-0.991
			c0-0.888-0.648-0.959-1.032-0.959H5.687V3.514z"/>
		<path d="M12.207,6.792c-1.615,0-1.927-1.719-1.927-2.886c0-1.167,0.312-2.887,1.927-2.887s1.927,1.719,1.927,2.887
			C14.134,5.073,13.822,6.792,12.207,6.792z M12.207,1.651c-0.808,0-1.175,0.848-1.175,2.255s0.368,2.255,1.175,2.255
			s1.175-0.848,1.175-2.255S13.014,1.651,12.207,1.651z"/>
		<path d="M16.655,6.792c-1.615,0-1.927-1.719-1.927-2.886c0-1.167,0.312-2.887,1.927-2.887s1.927,1.719,1.927,2.887
			C18.582,5.073,18.27,6.792,16.655,6.792z M16.655,1.651c-0.808,0-1.175,0.848-1.175,2.255s0.368,2.255,1.175,2.255
			s1.175-0.848,1.175-2.255S17.463,1.651,16.655,1.651z"/>
		<path d="M21.103,6.792c-1.615,0-1.927-1.719-1.927-2.886c0-1.167,0.312-2.887,1.927-2.887c1.615,0,1.927,1.719,1.927,2.887
			C23.03,5.073,22.718,6.792,21.103,6.792z M21.103,1.651c-0.808,0-1.175,0.848-1.175,2.255s0.368,2.255,1.175,2.255
			s1.175-0.848,1.175-2.255S21.91,1.651,21.103,1.651z"/>
	</g>
	<g>
		<path d="M34.334,6.64h-0.775V0.899h2.655c0.943,0,1.887,0.328,1.887,1.543c0,0.848-0.432,1.16-0.8,1.375
			c0.328,0.136,0.656,0.28,0.688,1.079l0.048,1.04c0.008,0.32,0.048,0.44,0.288,0.576V6.64h-0.951
			c-0.112-0.352-0.136-1.223-0.136-1.439c0-0.472-0.096-1.023-1.023-1.023h-1.879V6.64z M34.334,3.514h1.799
			c0.567,0,1.167-0.144,1.167-0.991c0-0.888-0.647-0.959-1.031-0.959h-1.935V3.514z"/>
		<path d="M40.854,6.792c-1.615,0-1.927-1.719-1.927-2.886c0-1.167,0.312-2.887,1.927-2.887c1.615,0,1.927,1.719,1.927,2.887
			C42.781,5.073,42.469,6.792,40.854,6.792z M40.854,1.651c-0.808,0-1.175,0.848-1.175,2.255s0.368,2.255,1.175,2.255
			s1.175-0.848,1.175-2.255S41.661,1.651,40.854,1.651z"/>
		<path d="M45.302,6.792c-1.615,0-1.927-1.719-1.927-2.886c0-1.167,0.312-2.887,1.927-2.887s1.927,1.719,1.927,2.887
			C47.229,5.073,46.917,6.792,45.302,6.792z M45.302,1.651c-0.808,0-1.175,0.848-1.175,2.255s0.368,2.255,1.175,2.255
			s1.175-0.848,1.175-2.255S46.109,1.651,45.302,1.651z"/>
		<path d="M49.798,6.64h-0.752V2.65h-1.311v-0.56c0.912-0.064,1.287-0.152,1.511-1.072h0.552V6.64z"/>
	</g>
	<g>
		<path d="M62.381,6.64h-0.775V0.899h2.654c0.944,0,1.887,0.328,1.887,1.543c0,0.848-0.432,1.16-0.799,1.375
			c0.328,0.136,0.655,0.28,0.688,1.079l0.048,1.04c0.008,0.32,0.048,0.44,0.288,0.576V6.64h-0.952
			c-0.112-0.352-0.136-1.223-0.136-1.439c0-0.472-0.096-1.023-1.023-1.023h-1.879V6.64z M62.381,3.514h1.799
			c0.567,0,1.167-0.144,1.167-0.991c0-0.888-0.648-0.959-1.032-0.959h-1.935V3.514z"/>
		<path d="M68.9,6.792c-1.615,0-1.927-1.719-1.927-2.886c0-1.167,0.312-2.887,1.927-2.887s1.927,1.719,1.927,2.887
			C70.827,5.073,70.515,6.792,68.9,6.792z M68.9,1.651c-0.808,0-1.175,0.848-1.175,2.255s0.368,2.255,1.175,2.255
			s1.175-0.848,1.175-2.255S69.708,1.651,68.9,1.651z"/>
		<path d="M73.348,6.792c-1.615,0-1.927-1.719-1.927-2.886c0-1.167,0.312-2.887,1.927-2.887s1.927,1.719,1.927,2.887
			C75.276,5.073,74.964,6.792,73.348,6.792z M73.348,1.651c-0.808,0-1.175,0.848-1.175,2.255s0.368,2.255,1.175,2.255
			s1.175-0.848,1.175-2.255S74.156,1.651,73.348,1.651z"/>
		<path d="M75.926,3.034c0-1.831,1.335-2.015,1.943-2.015c0.975,0,1.759,0.632,1.759,1.679c0,1.007-0.664,1.431-1.503,1.879
			l-0.584,0.32c-0.768,0.424-0.936,0.864-0.967,1.08h3.054V6.64h-3.846c0.04-1.167,0.567-1.791,1.319-2.231l0.744-0.432
			c0.6-0.344,1.031-0.576,1.031-1.311c0-0.448-0.288-1.016-1.111-1.016c-1.063,0-1.111,0.991-1.136,1.383H75.926z"/>
	</g>
	<g>
		<path d="M90.726,6.64h-0.775V0.899h2.654c0.944,0,1.887,0.328,1.887,1.543c0,0.848-0.432,1.16-0.799,1.375
			c0.328,0.136,0.655,0.28,0.688,1.079l0.048,1.04c0.008,0.32,0.048,0.44,0.288,0.576V6.64h-0.952
			c-0.112-0.352-0.136-1.223-0.136-1.439c0-0.472-0.096-1.023-1.023-1.023h-1.879V6.64z M90.726,3.514h1.799
			c0.567,0,1.167-0.144,1.167-0.991c0-0.888-0.648-0.959-1.032-0.959h-1.935V3.514z"/>
		<path d="M97.246,6.792c-1.615,0-1.927-1.719-1.927-2.886c0-1.167,0.312-2.887,1.927-2.887s1.927,1.719,1.927,2.887
			C99.173,5.073,98.861,6.792,97.246,6.792z M97.246,1.651c-0.808,0-1.175,0.848-1.175,2.255s0.368,2.255,1.175,2.255
			s1.175-0.848,1.175-2.255S98.053,1.651,97.246,1.651z"/>
		<path d="M101.694,6.792c-1.615,0-1.927-1.719-1.927-2.886c0-1.167,0.312-2.887,1.927-2.887s1.927,1.719,1.927,2.887
			C103.621,5.073,103.309,6.792,101.694,6.792z M101.694,1.651c-0.808,0-1.175,0.848-1.175,2.255s0.368,2.255,1.175,2.255
			s1.175-0.848,1.175-2.255S102.502,1.651,101.694,1.651z"/>
		<path d="M105.71,3.442c0.12,0.008,0.248,0.016,0.368,0.016c0.544,0,1.071-0.216,1.071-0.919c0-0.336-0.2-0.888-1.039-0.888
			c-1,0-1.063,0.815-1.096,1.208h-0.688c0-0.824,0.336-1.839,1.815-1.839c1.087,0,1.735,0.624,1.735,1.479
			c0,0.72-0.416,1.063-0.72,1.159v0.016c0.543,0.176,0.936,0.56,0.936,1.311c0,0.92-0.592,1.807-2.023,1.807
			c-0.416,0-0.768-0.104-1.04-0.248c-0.624-0.328-0.792-0.976-0.839-1.624h0.728c0.024,0.528,0.152,1.24,1.199,1.24
			c0.72,0,1.224-0.44,1.224-1.088c0-0.943-0.832-1.031-1.312-1.031c-0.104,0-0.216,0.008-0.32,0.008V3.442z"/>
	</g>
	<g>
		<path d="M119.073,6.64h-0.775V0.899h2.654c0.944,0,1.887,0.328,1.887,1.543c0,0.848-0.432,1.16-0.799,1.375
			c0.328,0.136,0.655,0.28,0.688,1.079l0.048,1.04c0.008,0.32,0.048,0.44,0.288,0.576V6.64h-0.952
			c-0.112-0.352-0.136-1.223-0.136-1.439c0-0.472-0.096-1.023-1.023-1.023h-1.879V6.64z M119.073,3.514h1.799
			c0.567,0,1.167-0.144,1.167-0.991c0-0.888-0.648-0.959-1.032-0.959h-1.935V3.514z"/>
		<path d="M125.593,6.792c-1.615,0-1.927-1.719-1.927-2.886c0-1.167,0.312-2.887,1.927-2.887s1.927,1.719,1.927,2.887
			C127.52,5.073,127.208,6.792,125.593,6.792z M125.593,1.651c-0.808,0-1.175,0.848-1.175,2.255s0.368,2.255,1.175,2.255
			s1.175-0.848,1.175-2.255S126.4,1.651,125.593,1.651z"/>
		<path d="M130.041,6.792c-1.615,0-1.927-1.719-1.927-2.886c0-1.167,0.312-2.887,1.927-2.887s1.927,1.719,1.927,2.887
			C131.968,5.073,131.656,6.792,130.041,6.792z M130.041,1.651c-0.808,0-1.175,0.848-1.175,2.255s0.368,2.255,1.175,2.255
			s1.175-0.848,1.175-2.255S130.848,1.651,130.041,1.651z"/>
		<path d="M135.624,5.273V6.64h-0.703V5.273h-2.455V4.585l2.575-3.566h0.583v3.646h0.824v0.608H135.624z M133.114,4.665h1.807v-2.55
			h-0.016L133.114,4.665z"/>
	</g>
	<g>
		<path d="M147.42,6.64h-0.775V0.899h2.654c0.944,0,1.887,0.328,1.887,1.543c0,0.848-0.432,1.16-0.799,1.375
			c0.328,0.136,0.655,0.28,0.688,1.079l0.048,1.04c0.008,0.32,0.048,0.44,0.288,0.576V6.64h-0.952
			c-0.112-0.352-0.136-1.223-0.136-1.439c0-0.472-0.096-1.023-1.023-1.023h-1.879V6.64z M147.42,3.514h1.799
			c0.567,0,1.167-0.144,1.167-0.991c0-0.888-0.648-0.959-1.032-0.959h-1.935V3.514z"/>
		<path d="M153.939,6.792c-1.615,0-1.927-1.719-1.927-2.886c0-1.167,0.312-2.887,1.927-2.887s1.927,1.719,1.927,2.887
			C155.866,5.073,155.554,6.792,153.939,6.792z M153.939,1.651c-0.808,0-1.175,0.848-1.175,2.255s0.368,2.255,1.175,2.255
			s1.175-0.848,1.175-2.255S154.747,1.651,153.939,1.651z"/>
		<path d="M158.387,6.792c-1.615,0-1.927-1.719-1.927-2.886c0-1.167,0.312-2.887,1.927-2.887s1.927,1.719,1.927,2.887
			C160.315,5.073,160.003,6.792,158.387,6.792z M158.387,1.651c-0.808,0-1.175,0.848-1.175,2.255s0.368,2.255,1.175,2.255
			s1.175-0.848,1.175-2.255S159.195,1.651,158.387,1.651z"/>
		<path d="M161.788,3.37c0.24-0.184,0.584-0.352,1.087-0.352c0.912,0,1.847,0.64,1.847,1.799c0,0.624-0.28,1.975-2.039,1.975
			c-0.735,0-1.679-0.296-1.815-1.551h0.728c0.072,0.656,0.56,0.944,1.191,0.944c0.728,0,1.183-0.584,1.183-1.288
			c0-0.808-0.551-1.247-1.247-1.247c-0.408,0-0.775,0.192-1.04,0.536l-0.607-0.032l0.424-3.014h2.91v0.688h-2.383L161.788,3.37z"/>
	</g>
	<g>
		<path d="M175.766,6.64h-0.775V0.899h2.654c0.944,0,1.887,0.328,1.887,1.543c0,0.848-0.432,1.16-0.799,1.375
			c0.328,0.136,0.655,0.28,0.688,1.079l0.048,1.04c0.008,0.32,0.048,0.44,0.288,0.576V6.64h-0.952
			c-0.112-0.352-0.136-1.223-0.136-1.439c0-0.472-0.096-1.023-1.023-1.023h-1.879V6.64z M175.766,3.514h1.799
			c0.567,0,1.167-0.144,1.167-0.991c0-0.888-0.648-0.959-1.032-0.959h-1.935V3.514z"/>
		<path d="M182.286,6.792c-1.615,0-1.927-1.719-1.927-2.886c0-1.167,0.312-2.887,1.927-2.887s1.927,1.719,1.927,2.887
			C184.213,5.073,183.901,6.792,182.286,6.792z M182.286,1.651c-0.808,0-1.175,0.848-1.175,2.255s0.368,2.255,1.175,2.255
			s1.175-0.848,1.175-2.255S183.094,1.651,182.286,1.651z"/>
		<path d="M186.734,6.792c-1.615,0-1.927-1.719-1.927-2.886c0-1.167,0.312-2.887,1.927-2.887s1.927,1.719,1.927,2.887
			C188.661,5.073,188.349,6.792,186.734,6.792z M186.734,1.651c-0.808,0-1.175,0.848-1.175,2.255s0.368,2.255,1.175,2.255
			s1.175-0.848,1.175-2.255S187.542,1.651,186.734,1.651z"/>
		<path d="M192.293,2.514c-0.088-0.496-0.36-0.863-0.967-0.863c-1.104,0-1.335,1.487-1.335,2.079l0.016,0.016
			c0.176-0.304,0.568-0.688,1.335-0.688c0.688,0,1.759,0.44,1.759,1.783c0,0.576-0.152,0.991-0.536,1.407
			c-0.296,0.328-0.632,0.543-1.423,0.543c-0.432,0-1.047-0.192-1.447-0.815c-0.336-0.528-0.432-1.215-0.432-1.951
			c0-1.231,0.4-3.006,2.079-3.006c0.647,0,1.567,0.352,1.639,1.495H192.293z M191.27,6.161c0.672,0,1.104-0.528,1.104-1.288
			c0-0.496-0.264-1.183-1.135-1.183c-0.775,0-1.151,0.56-1.151,1.223C190.087,5.513,190.447,6.161,191.27,6.161z"/>
	</g>
	<g>
		<path d="M204.113,6.64h-0.775V0.899h2.655c0.943,0,1.887,0.328,1.887,1.543c0,0.848-0.432,1.16-0.8,1.375
			c0.328,0.136,0.656,0.28,0.688,1.079l0.048,1.04c0.008,0.32,0.048,0.44,0.288,0.576V6.64h-0.951
			c-0.112-0.352-0.136-1.223-0.136-1.439c0-0.472-0.096-1.023-1.023-1.023h-1.879V6.64z M204.113,3.514h1.799
			c0.567,0,1.167-0.144,1.167-0.991c0-0.888-0.647-0.959-1.031-0.959h-1.935V3.514z"/>
		<path d="M210.632,6.792c-1.615,0-1.927-1.719-1.927-2.886c0-1.167,0.312-2.887,1.927-2.887c1.615,0,1.927,1.719,1.927,2.887
			C212.559,5.073,212.247,6.792,210.632,6.792z M210.632,1.651c-0.808,0-1.175,0.848-1.175,2.255s0.368,2.255,1.175,2.255
			s1.175-0.848,1.175-2.255S211.44,1.651,210.632,1.651z"/>
		<path d="M215.08,6.792c-1.615,0-1.927-1.719-1.927-2.886c0-1.167,0.312-2.887,1.927-2.887s1.927,1.719,1.927,2.887
			C217.007,5.073,216.695,6.792,215.08,6.792z M215.08,1.651c-0.808,0-1.175,0.848-1.175,2.255s0.368,2.255,1.175,2.255
			s1.175-0.848,1.175-2.255S215.887,1.651,215.08,1.651z"/>
		<path d="M217.601,1.139h3.886v0.616c-0.56,0.583-1.903,2.375-2.311,4.885h-0.776c0.192-1.543,1.215-3.558,2.294-4.813h-3.094
			V1.139z"/>
	</g>
	<g>
		<path d="M232.459,6.64h-0.775V0.899h2.654c0.943,0,1.887,0.328,1.887,1.543c0,0.848-0.432,1.16-0.8,1.375
			c0.328,0.136,0.656,0.28,0.688,1.079l0.048,1.04c0.009,0.32,0.049,0.44,0.288,0.576V6.64h-0.951
			c-0.112-0.352-0.136-1.223-0.136-1.439c0-0.472-0.096-1.023-1.023-1.023h-1.879V6.64z M232.459,3.514h1.799
			c0.567,0,1.167-0.144,1.167-0.991c0-0.888-0.647-0.959-1.031-0.959h-1.935V3.514z"/>
		<path d="M238.978,6.792c-1.615,0-1.927-1.719-1.927-2.886c0-1.167,0.312-2.887,1.927-2.887s1.927,1.719,1.927,2.887
			C240.905,5.073,240.594,6.792,238.978,6.792z M238.978,1.651c-0.808,0-1.175,0.848-1.175,2.255s0.367,2.255,1.175,2.255
			s1.176-0.848,1.176-2.255S239.786,1.651,238.978,1.651z"/>
		<path d="M243.426,6.792c-1.615,0-1.927-1.719-1.927-2.886c0-1.167,0.312-2.887,1.927-2.887s1.927,1.719,1.927,2.887
			C245.352,5.073,245.041,6.792,243.426,6.792z M243.426,1.651c-0.808,0-1.175,0.848-1.175,2.255s0.367,2.255,1.175,2.255
			s1.176-0.848,1.176-2.255S244.233,1.651,243.426,1.651z"/>
		<path d="M248.865,3.65c0.76,0.32,0.92,0.943,0.92,1.367c0,0.903-0.576,1.775-1.903,1.775c-0.312,0-0.903-0.08-1.351-0.432
			c-0.576-0.456-0.576-1.063-0.576-1.335c0-0.688,0.36-1.127,0.951-1.367c-0.479-0.184-0.759-0.567-0.759-1.095
			c0-0.584,0.359-1.543,1.703-1.543c1.247,0,1.734,0.792,1.734,1.447C249.585,3.274,249.113,3.522,248.865,3.65z M246.707,5.041
			c0,0.448,0.224,1.12,1.199,1.12c0.512,0,1.127-0.184,1.127-1.063c0-0.76-0.527-1.096-1.167-1.096
			C247.074,4.001,246.707,4.521,246.707,5.041z M248.857,2.49c0-0.344-0.224-0.839-1.047-0.839c-0.752,0-0.936,0.52-0.936,0.879
			c0,0.536,0.472,0.864,0.983,0.864C248.466,3.394,248.857,3.002,248.857,2.49z"/>
	</g>
	<g>
		<path d="M260.806,6.64h-0.775V0.899h2.654c0.943,0,1.887,0.328,1.887,1.543c0,0.848-0.432,1.16-0.8,1.375
			c0.328,0.136,0.656,0.28,0.688,1.079l0.048,1.04c0.009,0.32,0.049,0.44,0.288,0.576V6.64h-0.951
			c-0.112-0.352-0.136-1.223-0.136-1.439c0-0.472-0.096-1.023-1.023-1.023h-1.879V6.64z M260.806,3.514h1.799
			c0.567,0,1.167-0.144,1.167-0.991c0-0.888-0.647-0.959-1.031-0.959h-1.935V3.514z"/>
		<path d="M266.279,3.37c0.239-0.184,0.583-0.352,1.087-0.352c0.911,0,1.847,0.64,1.847,1.799c0,0.624-0.279,1.975-2.038,1.975
			c-0.736,0-1.68-0.296-1.815-1.551h0.728c0.072,0.656,0.56,0.944,1.191,0.944c0.728,0,1.184-0.584,1.184-1.288
			c0-0.808-0.552-1.247-1.247-1.247c-0.408,0-0.776,0.192-1.04,0.536l-0.607-0.032l0.424-3.014h2.91v0.688h-2.383L266.279,3.37z"/>
		<path d="M271.773,6.792c-1.615,0-1.927-1.719-1.927-2.886c0-1.167,0.312-2.887,1.927-2.887s1.927,1.719,1.927,2.887
			C273.7,5.073,273.388,6.792,271.773,6.792z M271.773,1.651c-0.808,0-1.175,0.848-1.175,2.255s0.367,2.255,1.175,2.255
			s1.176-0.848,1.176-2.255S272.581,1.651,271.773,1.651z"/>
		<path d="M276.221,6.792c-1.615,0-1.927-1.719-1.927-2.886c0-1.167,0.312-2.887,1.927-2.887s1.927,1.719,1.927,2.887
			C278.148,5.073,277.837,6.792,276.221,6.792z M276.221,1.651c-0.808,0-1.175,0.848-1.175,2.255s0.367,2.255,1.175,2.255
			s1.176-0.848,1.176-2.255S277.029,1.651,276.221,1.651z"/>
	</g>
	<g>
		<path d="M231.562,33.215h-0.775v-5.741h2.654c0.943,0,1.887,0.328,1.887,1.543c0,0.848-0.432,1.16-0.8,1.375
			c0.328,0.136,0.656,0.28,0.688,1.079l0.048,1.04c0.009,0.32,0.049,0.44,0.288,0.576v0.128H234.6
			c-0.112-0.352-0.136-1.223-0.136-1.439c0-0.472-0.096-1.023-1.023-1.023h-1.879V33.215z M231.562,30.089h1.799
			c0.567,0,1.167-0.144,1.167-0.991c0-0.888-0.647-0.959-1.031-0.959h-1.935V30.089z"/>
		<path d="M238.082,33.367c-1.615,0-1.927-1.719-1.927-2.886c0-1.167,0.312-2.887,1.927-2.887s1.927,1.719,1.927,2.887
			C240.009,31.648,239.697,33.367,238.082,33.367z M238.082,28.226c-0.808,0-1.175,0.848-1.175,2.255s0.367,2.255,1.175,2.255
			s1.176-0.848,1.176-2.255S238.889,28.226,238.082,28.226z"/>
		<path d="M242.529,33.367c-1.615,0-1.927-1.719-1.927-2.886c0-1.167,0.312-2.887,1.927-2.887s1.927,1.719,1.927,2.887
			C244.456,31.648,244.144,33.367,242.529,33.367z M242.529,28.226c-0.808,0-1.175,0.848-1.175,2.255s0.367,2.255,1.175,2.255
			s1.176-0.848,1.176-2.255S243.337,28.226,242.529,28.226z"/>
		<path d="M245.091,29.521c0-1.023,0.624-1.927,1.807-1.927c1.791,0,1.967,1.695,1.967,2.607c0,0.6-0.104,3.166-2.038,3.166
			c-1.319,0-1.672-0.959-1.672-1.503h0.704c0.04,0.567,0.376,0.919,0.951,0.919c0.768,0,1.176-0.648,1.352-2.103l-0.017-0.016
			c-0.207,0.432-0.768,0.672-1.287,0.672C245.818,31.336,245.091,30.641,245.091,29.521z M248.041,29.425
			c0-0.64-0.328-1.199-1.136-1.199c-0.655,0-1.087,0.512-1.087,1.263c0,1.08,0.672,1.215,1.144,1.215
			C247.329,30.705,248.041,30.537,248.041,29.425z"/>
	</g>
	<g>
		<path d="M258.658,33.215h-0.775v-5.741h2.654c0.943,0,1.887,0.328,1.887,1.543c0,0.848-0.432,1.16-0.8,1.375
			c0.328,0.136,0.656,0.28,0.688,1.079l0.048,1.04c0.009,0.32,0.049,0.44,0.288,0.576v0.128h-0.951
			c-0.112-0.352-0.136-1.223-0.136-1.439c0-0.472-0.096-1.023-1.023-1.023h-1.879V33.215z M258.658,30.089h1.799
			c0.567,0,1.167-0.144,1.167-0.991c0-0.888-0.647-0.959-1.031-0.959h-1.935V30.089z"/>
		<path d="M264.131,29.945c0.239-0.184,0.583-0.352,1.087-0.352c0.911,0,1.847,0.64,1.847,1.799c0,0.624-0.279,1.975-2.038,1.975
			c-0.736,0-1.68-0.296-1.815-1.551h0.728c0.072,0.656,0.56,0.944,1.191,0.944c0.728,0,1.184-0.584,1.184-1.288
			c0-0.808-0.552-1.247-1.247-1.247c-0.408,0-0.776,0.192-1.04,0.536l-0.607-0.032l0.424-3.014h2.91v0.688h-2.383L264.131,29.945z"
			/>
		<path d="M269.625,33.367c-1.615,0-1.927-1.719-1.927-2.886c0-1.167,0.312-2.887,1.927-2.887s1.927,1.719,1.927,2.887
			C271.552,31.648,271.24,33.367,269.625,33.367z M269.625,28.226c-0.808,0-1.175,0.848-1.175,2.255s0.367,2.255,1.175,2.255
			s1.176-0.848,1.176-2.255S270.432,28.226,269.625,28.226z"/>
		<path d="M274.121,33.215h-0.751v-3.99h-1.312v-0.56c0.911-0.064,1.287-0.152,1.511-1.072h0.552V33.215z"/>
	</g>
	<g>
		<path d="M231.562,58.018h-0.775v-5.741h2.654c0.943,0,1.887,0.328,1.887,1.543c0,0.848-0.432,1.16-0.8,1.375
			c0.328,0.136,0.656,0.28,0.688,1.079l0.048,1.04c0.009,0.32,0.049,0.44,0.288,0.576v0.128H234.6
			c-0.112-0.352-0.136-1.223-0.136-1.439c0-0.472-0.096-1.023-1.023-1.023h-1.879V58.018z M231.562,54.892h1.799
			c0.567,0,1.167-0.144,1.167-0.991c0-0.888-0.647-0.959-1.031-0.959h-1.935V54.892z"/>
		<path d="M238.082,58.17c-1.615,0-1.927-1.719-1.927-2.886c0-1.167,0.312-2.887,1.927-2.887s1.927,1.719,1.927,2.887
			C240.009,56.451,239.697,58.17,238.082,58.17z M238.082,53.029c-0.808,0-1.175,0.848-1.175,2.255s0.367,2.255,1.175,2.255
			s1.176-0.848,1.176-2.255S238.889,53.029,238.082,53.029z"/>
		<path d="M242.577,58.018h-0.751v-3.99h-1.312v-0.56c0.911-0.064,1.287-0.152,1.511-1.072h0.552V58.018z"/>
		<path d="M245.937,58.17c-1.615,0-1.927-1.719-1.927-2.886c0-1.167,0.312-2.887,1.927-2.887s1.927,1.719,1.927,2.887
			C247.864,56.451,247.552,58.17,245.937,58.17z M245.937,53.029c-0.808,0-1.175,0.848-1.175,2.255s0.367,2.255,1.175,2.255
			s1.176-0.848,1.176-2.255S246.745,53.029,245.937,53.029z"/>
	</g>
	<g>
		<path d="M258.658,58.018h-0.775v-5.741h2.654c0.943,0,1.887,0.328,1.887,1.543c0,0.848-0.432,1.16-0.8,1.375
			c0.328,0.136,0.656,0.28,0.688,1.079l0.048,1.04c0.009,0.32,0.049,0.44,0.288,0.576v0.128h-0.951
			c-0.112-0.352-0.136-1.223-0.136-1.439c0-0.472-0.096-1.023-1.023-1.023h-1.879V58.018z M258.658,54.892h1.799
			c0.567,0,1.167-0.144,1.167-0.991c0-0.888-0.647-0.959-1.031-0.959h-1.935V54.892z"/>
		<path d="M264.131,54.748c0.239-0.184,0.583-0.352,1.087-0.352c0.911,0,1.847,0.64,1.847,1.799c0,0.624-0.279,1.975-2.038,1.975
			c-0.736,0-1.68-0.296-1.815-1.551h0.728c0.072,0.656,0.56,0.944,1.191,0.944c0.728,0,1.184-0.584,1.184-1.288
			c0-0.808-0.552-1.247-1.247-1.247c-0.408,0-0.776,0.192-1.04,0.536l-0.607-0.032l0.424-3.014h2.91v0.688h-2.383L264.131,54.748z"
			/>
		<path d="M269.625,58.17c-1.615,0-1.927-1.719-1.927-2.886c0-1.167,0.312-2.887,1.927-2.887s1.927,1.719,1.927,2.887
			C271.552,56.451,271.24,58.17,269.625,58.17z M269.625,53.029c-0.808,0-1.175,0.848-1.175,2.255s0.367,2.255,1.175,2.255
			s1.176-0.848,1.176-2.255S270.432,53.029,269.625,53.029z"/>
		<path d="M272.202,54.412c0-1.831,1.336-2.015,1.943-2.015c0.976,0,1.759,0.632,1.759,1.679c0,1.007-0.664,1.431-1.503,1.879
			l-0.584,0.32c-0.768,0.424-0.936,0.864-0.968,1.08h3.055v0.664h-3.846c0.04-1.167,0.567-1.791,1.319-2.231l0.743-0.432
			c0.6-0.344,1.031-0.576,1.031-1.311c0-0.448-0.287-1.016-1.111-1.016c-1.063,0-1.111,0.991-1.135,1.383H272.202z"/>
	</g>
	<g>
		<path d="M231.562,82.821h-0.775V77.08h2.654c0.943,0,1.887,0.328,1.887,1.543c0,0.848-0.432,1.16-0.8,1.375
			c0.328,0.136,0.656,0.28,0.688,1.079l0.048,1.04c0.009,0.32,0.049,0.44,0.288,0.576v0.128H234.6
			c-0.112-0.352-0.136-1.223-0.136-1.439c0-0.472-0.096-1.023-1.023-1.023h-1.879V82.821z M231.562,79.694h1.799
			c0.567,0,1.167-0.144,1.167-0.991c0-0.888-0.647-0.959-1.031-0.959h-1.935V79.694z"/>
		<path d="M238.082,82.973c-1.615,0-1.927-1.719-1.927-2.886c0-1.167,0.312-2.887,1.927-2.887s1.927,1.719,1.927,2.887
			C240.009,81.253,239.697,82.973,238.082,82.973z M238.082,77.832c-0.808,0-1.175,0.848-1.175,2.255s0.367,2.255,1.175,2.255
			s1.176-0.848,1.176-2.255S238.889,77.832,238.082,77.832z"/>
		<path d="M242.577,82.821h-0.751v-3.99h-1.312v-0.56c0.911-0.064,1.287-0.152,1.511-1.072h0.552V82.821z"/>
		<path d="M246.105,82.821h-0.751v-3.99h-1.312v-0.56c0.911-0.064,1.287-0.152,1.511-1.072h0.552V82.821z"/>
	</g>
	<g>
		<path d="M258.658,82.821h-0.775V77.08h2.654c0.943,0,1.887,0.328,1.887,1.543c0,0.848-0.432,1.16-0.8,1.375
			c0.328,0.136,0.656,0.28,0.688,1.079l0.048,1.04c0.009,0.32,0.049,0.44,0.288,0.576v0.128h-0.951
			c-0.112-0.352-0.136-1.223-0.136-1.439c0-0.472-0.096-1.023-1.023-1.023h-1.879V82.821z M258.658,79.694h1.799
			c0.567,0,1.167-0.144,1.167-0.991c0-0.888-0.647-0.959-1.031-0.959h-1.935V79.694z"/>
		<path d="M264.131,79.551c0.239-0.184,0.583-0.352,1.087-0.352c0.911,0,1.847,0.64,1.847,1.799c0,0.624-0.279,1.975-2.038,1.975
			c-0.736,0-1.68-0.296-1.815-1.551h0.728c0.072,0.656,0.56,0.944,1.191,0.944c0.728,0,1.184-0.584,1.184-1.288
			c0-0.808-0.552-1.247-1.247-1.247c-0.408,0-0.776,0.192-1.04,0.536l-0.607-0.032l0.424-3.014h2.91v0.688h-2.383L264.131,79.551z"
			/>
		<path d="M269.625,82.973c-1.615,0-1.927-1.719-1.927-2.886c0-1.167,0.312-2.887,1.927-2.887s1.927,1.719,1.927,2.887
			C271.552,81.253,271.24,82.973,269.625,82.973z M269.625,77.832c-0.808,0-1.175,0.848-1.175,2.255s0.367,2.255,1.175,2.255
			s1.176-0.848,1.176-2.255S270.432,77.832,269.625,77.832z"/>
		<path d="M273.641,79.623c0.12,0.008,0.248,0.016,0.368,0.016c0.543,0,1.071-0.216,1.071-0.919c0-0.336-0.2-0.888-1.04-0.888
			c-0.999,0-1.063,0.815-1.095,1.208h-0.688c0-0.824,0.335-1.839,1.814-1.839c1.088,0,1.735,0.624,1.735,1.479
			c0,0.72-0.416,1.063-0.72,1.159v0.016c0.544,0.176,0.936,0.56,0.936,1.311c0,0.92-0.592,1.807-2.023,1.807
			c-0.415,0-0.768-0.104-1.039-0.248c-0.624-0.328-0.792-0.976-0.84-1.624h0.728c0.024,0.528,0.152,1.24,1.2,1.24
			c0.719,0,1.223-0.44,1.223-1.088c0-0.943-0.831-1.031-1.312-1.031c-0.104,0-0.216,0.008-0.319,0.008V79.623z"/>
	</g>
	<g>
		<path d="M231.562,107.625h-0.775v-5.741h2.654c0.943,0,1.887,0.328,1.887,1.543c0,0.848-0.432,1.16-0.8,1.375
			c0.328,0.136,0.656,0.28,0.688,1.079l0.048,1.04c0.009,0.32,0.049,0.44,0.288,0.576v0.128H234.6
			c-0.112-0.352-0.136-1.223-0.136-1.439c0-0.472-0.096-1.023-1.023-1.023h-1.879V107.625z M231.562,104.498h1.799
			c0.567,0,1.167-0.144,1.167-0.991c0-0.888-0.647-0.959-1.031-0.959h-1.935V104.498z"/>
		<path d="M238.082,107.776c-1.615,0-1.927-1.719-1.927-2.886c0-1.167,0.312-2.887,1.927-2.887s1.927,1.719,1.927,2.887
			C240.009,106.057,239.697,107.776,238.082,107.776z M238.082,102.635c-0.808,0-1.175,0.848-1.175,2.255s0.367,2.255,1.175,2.255
			s1.176-0.848,1.176-2.255S238.889,102.635,238.082,102.635z"/>
		<path d="M242.577,107.625h-0.751v-3.99h-1.312v-0.56c0.911-0.064,1.287-0.152,1.511-1.072h0.552V107.625z"/>
		<path d="M244.186,104.019c0-1.831,1.336-2.015,1.943-2.015c0.976,0,1.759,0.632,1.759,1.679c0,1.007-0.664,1.431-1.503,1.879
			l-0.584,0.32c-0.768,0.424-0.936,0.864-0.968,1.08h3.055v0.664h-3.846c0.04-1.167,0.567-1.791,1.319-2.231l0.743-0.432
			c0.6-0.344,1.031-0.576,1.031-1.311c0-0.448-0.287-1.016-1.111-1.016c-1.063,0-1.111,0.991-1.135,1.383H244.186z"/>
	</g>
	<g>
		<path d="M258.658,107.625h-0.775v-5.741h2.654c0.943,0,1.887,0.328,1.887,1.543c0,0.848-0.432,1.16-0.8,1.375
			c0.328,0.136,0.656,0.28,0.688,1.079l0.048,1.04c0.009,0.32,0.049,0.44,0.288,0.576v0.128h-0.951
			c-0.112-0.352-0.136-1.223-0.136-1.439c0-0.472-0.096-1.023-1.023-1.023h-1.879V107.625z M258.658,104.498h1.799
			c0.567,0,1.167-0.144,1.167-0.991c0-0.888-0.647-0.959-1.031-0.959h-1.935V104.498z"/>
		<path d="M264.131,104.354c0.239-0.184,0.583-0.352,1.087-0.352c0.911,0,1.847,0.64,1.847,1.799c0,0.624-0.279,1.975-2.038,1.975
			c-0.736,0-1.68-0.296-1.815-1.551h0.728c0.072,0.656,0.56,0.944,1.191,0.944c0.728,0,1.184-0.584,1.184-1.288
			c0-0.808-0.552-1.247-1.247-1.247c-0.408,0-0.776,0.192-1.04,0.536l-0.607-0.032l0.424-3.014h2.91v0.688h-2.383L264.131,104.354z"
			/>
		<path d="M269.625,107.776c-1.615,0-1.927-1.719-1.927-2.886c0-1.167,0.312-2.887,1.927-2.887s1.927,1.719,1.927,2.887
			C271.552,106.057,271.24,107.776,269.625,107.776z M269.625,102.635c-0.808,0-1.175,0.848-1.175,2.255s0.367,2.255,1.175,2.255
			s1.176-0.848,1.176-2.255S270.432,102.635,269.625,102.635z"/>
		<path d="M275.209,106.257v1.367h-0.704v-1.367h-2.454v-0.688l2.574-3.566h0.584v3.646h0.823v0.608H275.209z M272.698,105.649
			h1.807v-2.55h-0.016L272.698,105.649z"/>
	</g>
	<g>
		<path d="M231.562,132.427h-0.775v-5.741h2.654c0.943,0,1.887,0.328,1.887,1.543c0,0.848-0.432,1.16-0.8,1.375
			c0.328,0.136,0.656,0.28,0.688,1.079l0.048,1.04c0.009,0.32,0.049,0.44,0.288,0.576v0.128H234.6
			c-0.112-0.352-0.136-1.223-0.136-1.439c0-0.472-0.096-1.023-1.023-1.023h-1.879V132.427z M231.562,129.301h1.799
			c0.567,0,1.167-0.144,1.167-0.991c0-0.888-0.647-0.959-1.031-0.959h-1.935V129.301z"/>
		<path d="M238.082,132.579c-1.615,0-1.927-1.719-1.927-2.886c0-1.167,0.312-2.887,1.927-2.887s1.927,1.719,1.927,2.887
			C240.009,130.86,239.697,132.579,238.082,132.579z M238.082,127.438c-0.808,0-1.175,0.848-1.175,2.255s0.367,2.255,1.175,2.255
			s1.176-0.848,1.176-2.255S238.889,127.438,238.082,127.438z"/>
		<path d="M242.577,132.427h-0.751v-3.99h-1.312v-0.56c0.911-0.064,1.287-0.152,1.511-1.072h0.552V132.427z"/>
		<path d="M245.626,129.229c0.12,0.008,0.248,0.016,0.368,0.016c0.543,0,1.071-0.216,1.071-0.919c0-0.336-0.2-0.888-1.04-0.888
			c-0.999,0-1.063,0.815-1.095,1.208h-0.688c0-0.824,0.335-1.839,1.814-1.839c1.088,0,1.735,0.624,1.735,1.479
			c0,0.72-0.416,1.063-0.72,1.159v0.016c0.544,0.176,0.936,0.56,0.936,1.311c0,0.92-0.592,1.807-2.023,1.807
			c-0.415,0-0.768-0.104-1.039-0.248c-0.624-0.328-0.792-0.976-0.84-1.624h0.728c0.024,0.528,0.152,1.24,1.2,1.24
			c0.719,0,1.223-0.44,1.223-1.088c0-0.943-0.831-1.031-1.312-1.031c-0.104,0-0.216,0.008-0.319,0.008V129.229z"/>
	</g>
	<g>
		<path d="M258.658,132.427h-0.775v-5.741h2.654c0.943,0,1.887,0.328,1.887,1.543c0,0.848-0.432,1.16-0.8,1.375
			c0.328,0.136,0.656,0.28,0.688,1.079l0.048,1.04c0.009,0.32,0.049,0.44,0.288,0.576v0.128h-0.951
			c-0.112-0.352-0.136-1.223-0.136-1.439c0-0.472-0.096-1.023-1.023-1.023h-1.879V132.427z M258.658,129.301h1.799
			c0.567,0,1.167-0.144,1.167-0.991c0-0.888-0.647-0.959-1.031-0.959h-1.935V129.301z"/>
		<path d="M264.131,129.157c0.239-0.184,0.583-0.352,1.087-0.352c0.911,0,1.847,0.64,1.847,1.799c0,0.624-0.279,1.975-2.038,1.975
			c-0.736,0-1.68-0.296-1.815-1.551h0.728c0.072,0.656,0.56,0.944,1.191,0.944c0.728,0,1.184-0.584,1.184-1.288
			c0-0.808-0.552-1.247-1.247-1.247c-0.408,0-0.776,0.192-1.04,0.536l-0.607-0.032l0.424-3.014h2.91v0.688h-2.383L264.131,129.157z"
			/>
		<path d="M269.625,132.579c-1.615,0-1.927-1.719-1.927-2.886c0-1.167,0.312-2.887,1.927-2.887s1.927,1.719,1.927,2.887
			C271.552,130.86,271.24,132.579,269.625,132.579z M269.625,127.438c-0.808,0-1.175,0.848-1.175,2.255s0.367,2.255,1.175,2.255
			s1.176-0.848,1.176-2.255S270.432,127.438,269.625,127.438z"/>
		<path d="M273.026,129.157c0.239-0.184,0.583-0.352,1.087-0.352c0.911,0,1.847,0.64,1.847,1.799c0,0.624-0.279,1.975-2.038,1.975
			c-0.736,0-1.68-0.296-1.815-1.551h0.728c0.072,0.656,0.56,0.944,1.191,0.944c0.728,0,1.184-0.584,1.184-1.288
			c0-0.808-0.552-1.247-1.248-1.247c-0.407,0-0.775,0.192-1.039,0.536l-0.607-0.032l0.424-3.014h2.91v0.688h-2.383L273.026,129.157z
			"/>
	</g>
	<g>
		<path d="M231.562,157.231h-0.775v-5.741h2.654c0.943,0,1.887,0.328,1.887,1.543c0,0.848-0.432,1.16-0.8,1.375
			c0.328,0.136,0.656,0.28,0.688,1.079l0.048,1.04c0.009,0.32,0.049,0.44,0.288,0.576v0.128H234.6
			c-0.112-0.352-0.136-1.223-0.136-1.439c0-0.472-0.096-1.023-1.023-1.023h-1.879V157.231z M231.562,154.104h1.799
			c0.567,0,1.167-0.144,1.167-0.991c0-0.888-0.647-0.959-1.031-0.959h-1.935V154.104z"/>
		<path d="M238.082,157.383c-1.615,0-1.927-1.719-1.927-2.886c0-1.167,0.312-2.887,1.927-2.887s1.927,1.719,1.927,2.887
			C240.009,155.664,239.697,157.383,238.082,157.383z M238.082,152.242c-0.808,0-1.175,0.848-1.175,2.255s0.367,2.255,1.175,2.255
			s1.176-0.848,1.176-2.255S238.889,152.242,238.082,152.242z"/>
		<path d="M242.577,157.231h-0.751v-3.99h-1.312v-0.56c0.911-0.064,1.287-0.152,1.511-1.072h0.552V157.231z"/>
		<path d="M247.193,155.864v1.367h-0.704v-1.367h-2.454v-0.688l2.574-3.566h0.584v3.646h0.823v0.608H247.193z M244.682,155.256
			h1.807v-2.55h-0.016L244.682,155.256z"/>
	</g>
	<g>
		<path d="M258.658,157.231h-0.775v-5.741h2.654c0.943,0,1.887,0.328,1.887,1.543c0,0.848-0.432,1.16-0.8,1.375
			c0.328,0.136,0.656,0.28,0.688,1.079l0.048,1.04c0.009,0.32,0.049,0.44,0.288,0.576v0.128h-0.951
			c-0.112-0.352-0.136-1.223-0.136-1.439c0-0.472-0.096-1.023-1.023-1.023h-1.879V157.231z M258.658,154.104h1.799
			c0.567,0,1.167-0.144,1.167-0.991c0-0.888-0.647-0.959-1.031-0.959h-1.935V154.104z"/>
		<path d="M264.131,153.961c0.239-0.184,0.583-0.352,1.087-0.352c0.911,0,1.847,0.64,1.847,1.799c0,0.624-0.279,1.975-2.038,1.975
			c-0.736,0-1.68-0.296-1.815-1.551h0.728c0.072,0.656,0.56,0.944,1.191,0.944c0.728,0,1.184-0.584,1.184-1.288
			c0-0.808-0.552-1.247-1.247-1.247c-0.408,0-0.776,0.192-1.04,0.536l-0.607-0.032l0.424-3.014h2.91v0.688h-2.383L264.131,153.961z"
			/>
		<path d="M269.625,157.383c-1.615,0-1.927-1.719-1.927-2.886c0-1.167,0.312-2.887,1.927-2.887s1.927,1.719,1.927,2.887
			C271.552,155.664,271.24,157.383,269.625,157.383z M269.625,152.242c-0.808,0-1.175,0.848-1.175,2.255s0.367,2.255,1.175,2.255
			s1.176-0.848,1.176-2.255S270.432,152.242,269.625,152.242z"/>
		<path d="M275.184,153.105c-0.088-0.496-0.359-0.863-0.968-0.863c-1.103,0-1.335,1.487-1.335,2.079l0.017,0.016
			c0.176-0.304,0.567-0.688,1.335-0.688c0.688,0,1.759,0.44,1.759,1.783c0,0.576-0.151,0.991-0.535,1.407
			c-0.296,0.328-0.632,0.543-1.424,0.543c-0.432,0-1.047-0.192-1.447-0.815c-0.336-0.528-0.432-1.215-0.432-1.951
			c0-1.231,0.4-3.006,2.079-3.006c0.647,0,1.567,0.352,1.639,1.495H275.184z M274.161,156.751c0.672,0,1.104-0.528,1.104-1.288
			c0-0.496-0.264-1.183-1.136-1.183c-0.775,0-1.151,0.56-1.151,1.223C272.977,156.104,273.338,156.751,274.161,156.751z"/>
	</g>
	<g>
		<path d="M231.562,182.034h-0.775v-5.741h2.654c0.943,0,1.887,0.328,1.887,1.543c0,0.848-0.432,1.16-0.8,1.375
			c0.328,0.136,0.656,0.28,0.688,1.079l0.048,1.04c0.009,0.32,0.049,0.44,0.288,0.576v0.128H234.6
			c-0.112-0.352-0.136-1.223-0.136-1.439c0-0.472-0.096-1.023-1.023-1.023h-1.879V182.034z M231.562,178.907h1.799
			c0.567,0,1.167-0.144,1.167-0.991c0-0.888-0.647-0.959-1.031-0.959h-1.935V178.907z"/>
		<path d="M238.082,182.186c-1.615,0-1.927-1.719-1.927-2.886c0-1.167,0.312-2.887,1.927-2.887s1.927,1.719,1.927,2.887
			C240.009,180.466,239.697,182.186,238.082,182.186z M238.082,177.044c-0.808,0-1.175,0.848-1.175,2.255s0.367,2.255,1.175,2.255
			s1.176-0.848,1.176-2.255S238.889,177.044,238.082,177.044z"/>
		<path d="M242.577,182.034h-0.751v-3.99h-1.312v-0.56c0.911-0.064,1.287-0.152,1.511-1.072h0.552V182.034z"/>
		<path d="M245.01,178.764c0.239-0.184,0.583-0.352,1.087-0.352c0.911,0,1.847,0.64,1.847,1.799c0,0.624-0.279,1.975-2.038,1.975
			c-0.736,0-1.68-0.296-1.815-1.551h0.728c0.072,0.656,0.56,0.944,1.191,0.944c0.728,0,1.184-0.584,1.184-1.288
			c0-0.808-0.552-1.247-1.248-1.247c-0.407,0-0.775,0.192-1.039,0.536l-0.607-0.032l0.424-3.014h2.91v0.688h-2.383L245.01,178.764z"
			/>
	</g>
	<g>
		<path d="M258.658,182.034h-0.775v-5.741h2.654c0.943,0,1.887,0.328,1.887,1.543c0,0.848-0.432,1.16-0.8,1.375
			c0.328,0.136,0.656,0.28,0.688,1.079l0.048,1.04c0.009,0.32,0.049,0.44,0.288,0.576v0.128h-0.951
			c-0.112-0.352-0.136-1.223-0.136-1.439c0-0.472-0.096-1.023-1.023-1.023h-1.879V182.034z M258.658,178.907h1.799
			c0.567,0,1.167-0.144,1.167-0.991c0-0.888-0.647-0.959-1.031-0.959h-1.935V178.907z"/>
		<path d="M264.131,178.764c0.239-0.184,0.583-0.352,1.087-0.352c0.911,0,1.847,0.64,1.847,1.799c0,0.624-0.279,1.975-2.038,1.975
			c-0.736,0-1.68-0.296-1.815-1.551h0.728c0.072,0.656,0.56,0.944,1.191,0.944c0.728,0,1.184-0.584,1.184-1.288
			c0-0.808-0.552-1.247-1.247-1.247c-0.408,0-0.776,0.192-1.04,0.536l-0.607-0.032l0.424-3.014h2.91v0.688h-2.383L264.131,178.764z"
			/>
		<path d="M269.625,182.186c-1.615,0-1.927-1.719-1.927-2.886c0-1.167,0.312-2.887,1.927-2.887s1.927,1.719,1.927,2.887
			C271.552,180.466,271.24,182.186,269.625,182.186z M269.625,177.044c-0.808,0-1.175,0.848-1.175,2.255s0.367,2.255,1.175,2.255
			s1.176-0.848,1.176-2.255S270.432,177.044,269.625,177.044z"/>
		<path d="M272.146,176.533h3.886v0.616c-0.56,0.583-1.903,2.375-2.311,4.885h-0.775c0.191-1.543,1.215-3.558,2.294-4.813h-3.094
			V176.533z"/>
	</g>
	<g>
		<path d="M231.562,206.837h-0.775v-5.741h2.654c0.943,0,1.887,0.328,1.887,1.543c0,0.848-0.432,1.16-0.8,1.375
			c0.328,0.136,0.656,0.28,0.688,1.079l0.048,1.04c0.009,0.32,0.049,0.44,0.288,0.576v0.128H234.6
			c-0.112-0.352-0.136-1.223-0.136-1.439c0-0.472-0.096-1.023-1.023-1.023h-1.879V206.837z M231.562,203.711h1.799
			c0.567,0,1.167-0.144,1.167-0.991c0-0.888-0.647-0.959-1.031-0.959h-1.935V203.711z"/>
		<path d="M238.729,206.837h-0.751v-3.99h-1.312v-0.56c0.911-0.064,1.287-0.152,1.511-1.072h0.552V206.837z"/>
		<path d="M242.09,206.989c-1.615,0-1.927-1.719-1.927-2.886c0-1.167,0.312-2.887,1.927-2.887s1.927,1.719,1.927,2.887
			C244.016,205.27,243.705,206.989,242.09,206.989z M242.09,201.848c-0.808,0-1.175,0.848-1.175,2.255s0.367,2.255,1.175,2.255
			s1.176-0.848,1.176-2.255S242.897,201.848,242.09,201.848z"/>
		<path d="M246.537,206.989c-1.615,0-1.927-1.719-1.927-2.886c0-1.167,0.312-2.887,1.927-2.887s1.927,1.719,1.927,2.887
			C248.464,205.27,248.152,206.989,246.537,206.989z M246.537,201.848c-0.808,0-1.175,0.848-1.175,2.255s0.367,2.255,1.175,2.255
			s1.176-0.848,1.176-2.255S247.344,201.848,246.537,201.848z"/>
	</g>
	<g>
		<path d="M258.658,206.837h-0.775v-5.741h2.654c0.943,0,1.887,0.328,1.887,1.543c0,0.848-0.432,1.16-0.8,1.375
			c0.328,0.136,0.656,0.28,0.688,1.079l0.048,1.04c0.009,0.32,0.049,0.44,0.288,0.576v0.128h-0.951
			c-0.112-0.352-0.136-1.223-0.136-1.439c0-0.472-0.096-1.023-1.023-1.023h-1.879V206.837z M258.658,203.711h1.799
			c0.567,0,1.167-0.144,1.167-0.991c0-0.888-0.647-0.959-1.031-0.959h-1.935V203.711z"/>
		<path d="M264.131,203.567c0.239-0.184,0.583-0.352,1.087-0.352c0.911,0,1.847,0.64,1.847,1.799c0,0.624-0.279,1.975-2.038,1.975
			c-0.736,0-1.68-0.296-1.815-1.551h0.728c0.072,0.656,0.56,0.944,1.191,0.944c0.728,0,1.184-0.584,1.184-1.288
			c0-0.808-0.552-1.247-1.247-1.247c-0.408,0-0.776,0.192-1.04,0.536l-0.607-0.032l0.424-3.014h2.91v0.688h-2.383L264.131,203.567z"
			/>
		<path d="M269.625,206.989c-1.615,0-1.927-1.719-1.927-2.886c0-1.167,0.312-2.887,1.927-2.887s1.927,1.719,1.927,2.887
			C271.552,205.27,271.24,206.989,269.625,206.989z M269.625,201.848c-0.808,0-1.175,0.848-1.175,2.255s0.367,2.255,1.175,2.255
			s1.176-0.848,1.176-2.255S270.432,201.848,269.625,201.848z"/>
		<path d="M275.064,203.847c0.76,0.32,0.92,0.943,0.92,1.367c0,0.903-0.576,1.775-1.903,1.775c-0.312,0-0.903-0.08-1.351-0.432
			c-0.576-0.456-0.576-1.063-0.576-1.335c0-0.688,0.36-1.127,0.951-1.367c-0.479-0.184-0.759-0.567-0.759-1.095
			c0-0.584,0.359-1.543,1.703-1.543c1.247,0,1.734,0.792,1.734,1.447C275.784,203.471,275.312,203.719,275.064,203.847z
			 M272.906,205.238c0,0.448,0.224,1.12,1.199,1.12c0.512,0,1.127-0.184,1.127-1.063c0-0.76-0.527-1.096-1.167-1.096
			C273.273,204.199,272.906,204.719,272.906,205.238z M275.056,202.688c0-0.344-0.224-0.839-1.047-0.839
			c-0.752,0-0.936,0.52-0.936,0.879c0,0.536,0.472,0.864,0.983,0.864C274.665,203.591,275.056,203.199,275.056,202.688z"/>
	</g>
	<g>
		<path d="M12.87,27.362c-0.839,1.056-1.375,2.335-1.375,3.686c0,1.352,0.536,2.631,1.375,3.686h-0.631
			c-1.16-1.431-1.456-2.854-1.456-3.686s0.288-2.254,1.456-3.686H12.87z"/>
		<path d="M15.582,27.362h0.671v6.301h-0.768v-5.461l-1.207,0.832l-0.104-0.711L15.582,27.362z"/>
		<path d="M19.111,27.362c1.159,1.432,1.447,2.854,1.447,3.686s-0.288,2.255-1.447,3.686h-0.632
			c0.832-1.055,1.367-2.334,1.367-3.686c0-1.351-0.536-2.63-1.367-3.686H19.111z"/>
	</g>
	<g>
		<path d="M25.242,23.476l-0.78-0.78l-3.477,3.477l-0.339-0.339l3.477-3.477l-0.78-0.78l2.556-0.656L25.242,23.476z"/>
	</g>
	<g>
		<path d="M41.217,27.362c-0.839,1.056-1.375,2.335-1.375,3.686c0,1.352,0.536,2.631,1.375,3.686h-0.631
			c-1.16-1.431-1.456-2.854-1.456-3.686s0.288-2.254,1.456-3.686H41.217z"/>
		<path d="M46.247,32.975v0.688h-4.509c0.504-0.496,1.359-1.327,2.199-2.303c0.959-1.111,1.279-1.639,1.279-2.287
			c0-0.76-0.568-1.151-1.183-1.151c-0.992,0-1.456,0.832-1.6,1.087l-0.304-0.8c0.472-0.624,1.127-0.976,1.903-0.976
			c0.799,0,1.935,0.456,1.935,1.831c0,0.608-0.184,1.111-0.823,1.935c-0.336,0.432-0.848,1.047-1.743,1.975H46.247z"/>
		<path d="M47.458,27.362c1.159,1.432,1.447,2.854,1.447,3.686s-0.288,2.255-1.447,3.686h-0.632
			c0.832-1.055,1.367-2.334,1.367-3.686c0-1.351-0.536-2.63-1.367-3.686H47.458z"/>
	</g>
	<g>
		<path d="M53.589,23.476l-0.78-0.78l-3.477,3.477l-0.339-0.339l3.477-3.477l-0.78-0.78l2.556-0.655L53.589,23.476z"/>
	</g>
	<g>
		<path d="M69.563,27.362c-0.839,1.056-1.375,2.335-1.375,3.686c0,1.352,0.536,2.631,1.375,3.686h-0.631
			c-1.16-1.431-1.456-2.854-1.456-3.686s0.288-2.254,1.456-3.686H69.563z"/>
		<path d="M70.372,32.607c0.744,0.504,1.52,0.504,1.743,0.504c1.239,0,1.663-0.72,1.663-1.287c0-0.672-0.576-1.167-1.663-1.167
			h-0.583v-0.68h0.592c0.927,0,1.287-0.583,1.287-1.071c0-0.616-0.488-0.983-1.184-0.983c-0.615,0-1.127,0.256-1.535,0.719
			l-0.288-0.695c0.815-0.712,1.639-0.712,1.823-0.712c0.912,0,1.911,0.52,1.911,1.631c0,0.264-0.048,0.992-0.936,1.383
			c0.84,0.272,1.335,0.815,1.335,1.631c0,0.792-0.592,1.911-2.431,1.911c-0.712,0-1.335-0.152-1.959-0.488L70.372,32.607z"/>
		<path d="M75.804,27.362c1.159,1.432,1.447,2.854,1.447,3.686s-0.288,2.255-1.447,3.686h-0.632
			c0.832-1.055,1.367-2.334,1.367-3.686c0-1.351-0.536-2.63-1.367-3.686H75.804z"/>
	</g>
	<g>
		<path d="M81.935,23.476l-0.781-0.781l-3.477,3.477l-0.339-0.339l3.477-3.477l-0.78-0.78l2.556-0.655L81.935,23.476z"/>
	</g>
	<g>
		<path d="M97.909,27.362c-0.839,1.056-1.375,2.335-1.375,3.686c0,1.352,0.536,2.631,1.375,3.686h-0.631
			c-1.16-1.431-1.456-2.854-1.456-3.686s0.288-2.254,1.456-3.686H97.909z"/>
		<path d="M101.381,33.663v-1.407h-2.934V31.6l2.886-4.238h0.8v4.222h0.863v0.672h-0.863v1.407H101.381z M99.214,31.583h2.167
			v-3.206L99.214,31.583z"/>
		<path d="M104.15,27.362c1.159,1.432,1.447,2.854,1.447,3.686s-0.288,2.255-1.447,3.686h-0.632
			c0.832-1.055,1.367-2.334,1.367-3.686c0-1.351-0.536-2.63-1.367-3.686H104.15z"/>
	</g>
	<g>
		<path d="M110.281,23.476l-0.78-0.78l-3.477,3.477l-0.339-0.339l3.477-3.477l-0.78-0.78l2.556-0.655L110.281,23.476z"/>
	</g>
	<g>
		<path d="M126.256,27.362c-0.839,1.056-1.375,2.335-1.375,3.686c0,1.352,0.536,2.631,1.375,3.686h-0.631
			c-1.16-1.431-1.456-2.854-1.456-3.686s0.288-2.254,1.456-3.686H126.256z"/>
		<path d="M130.679,28.05h-2.703v1.887c0.208-0.08,0.456-0.184,0.976-0.184c1.471,0,2.247,0.983,2.247,1.999
			c0,0.976-0.735,2.039-2.447,2.039c-0.695,0-1.287-0.152-1.887-0.496l0.232-0.688c0.479,0.336,1.055,0.496,1.647,0.496
			c1.367,0,1.695-0.832,1.695-1.367c0-0.824-0.656-1.328-1.52-1.328c-0.536,0-0.832,0.2-0.951,0.28h-0.688v-3.326h3.398V28.05z"/>
		<path d="M132.497,27.362c1.159,1.432,1.447,2.854,1.447,3.686s-0.288,2.255-1.447,3.686h-0.632
			c0.832-1.055,1.367-2.334,1.367-3.686c0-1.351-0.536-2.63-1.367-3.686H132.497z"/>
	</g>
	<g>
		<path d="M138.628,23.476l-0.78-0.78l-3.477,3.477l-0.339-0.339l3.477-3.477l-0.78-0.78l2.556-0.655L138.628,23.476z"/>
	</g>
	<g>
		<path d="M154.602,27.362c-0.839,1.056-1.375,2.335-1.375,3.686c0,1.352,0.536,2.631,1.375,3.686h-0.631
			c-1.16-1.431-1.456-2.854-1.456-3.686s0.288-2.254,1.456-3.686H154.602z"/>
		<path d="M158.578,27.93c-1.935-0.136-2.583,1.471-2.71,2.551c0.416-0.512,1.04-0.824,1.695-0.824c1.104,0,2.063,0.792,2.063,2.015
			c0,1.215-0.952,2.119-2.151,2.119c-0.903,0-2.311-0.56-2.311-2.831c0-1.695,0.943-3.862,3.414-3.718V27.93z M157.49,30.329
			c-0.672,0-1.519,0.424-1.519,1.311c0,0.751,0.583,1.463,1.487,1.463c0.872,0,1.407-0.632,1.407-1.375
			C158.865,30.432,157.77,30.329,157.49,30.329z"/>
		<path d="M160.844,27.362c1.159,1.432,1.447,2.854,1.447,3.686s-0.288,2.255-1.447,3.686h-0.632
			c0.832-1.055,1.367-2.334,1.367-3.686c0-1.351-0.536-2.63-1.367-3.686H160.844z"/>
	</g>
	<g>
		<path d="M166.974,23.476l-0.78-0.78l-3.477,3.477l-0.339-0.339l3.477-3.477l-0.78-0.78l2.556-0.655L166.974,23.476z"/>
	</g>
	<g>
		<path d="M182.949,27.362c-0.839,1.056-1.375,2.335-1.375,3.686c0,1.352,0.536,2.631,1.375,3.686h-0.631
			c-1.16-1.431-1.456-2.854-1.456-3.686s0.288-2.254,1.456-3.686H182.949z"/>
		<path d="M187.98,27.362v0.728l-3.254,5.573h-0.855l3.31-5.613h-3.662v-0.688H187.98z"/>
		<path d="M189.19,27.362c1.159,1.432,1.447,2.854,1.447,3.686s-0.288,2.255-1.447,3.686h-0.632
			c0.832-1.055,1.367-2.334,1.367-3.686c0-1.351-0.536-2.63-1.367-3.686H189.19z"/>
	</g>
	<g>
		<path d="M195.321,23.476l-0.78-0.78l-3.477,3.477l-0.339-0.339l3.477-3.477l-0.781-0.781l2.556-0.656L195.321,23.476z"/>
	</g>
	<g>
		<path d="M211.296,27.362c-0.839,1.056-1.375,2.335-1.375,3.686c0,1.352,0.536,2.631,1.375,3.686h-0.631
			c-1.16-1.431-1.456-2.854-1.456-3.686s0.288-2.254,1.456-3.686H211.296z"/>
		<path d="M216.302,31.839c0,1.136-1.015,1.951-2.207,1.951s-2.207-0.815-2.207-1.951c0-0.951,0.664-1.487,1.135-1.687
			c-0.496-0.256-0.768-0.775-0.768-1.319c0-0.864,0.632-1.6,1.879-1.6c1,0,1.799,0.616,1.799,1.591c0,0.552-0.272,1.071-0.768,1.327
			C215.703,30.393,216.302,30.936,216.302,31.839z M215.551,31.832c0-0.472-0.32-1.271-1.455-1.271c-1.144,0-1.456,0.8-1.456,1.271
			c0,0.704,0.6,1.271,1.456,1.271S215.551,32.535,215.551,31.832z M215.191,28.873c0-0.647-0.512-0.983-1.095-0.983
			c-0.584,0-1.096,0.336-1.096,0.983c0,0.312,0.16,0.984,1.096,0.984S215.191,29.185,215.191,28.873z"/>
		<path d="M217.537,27.362c1.159,1.432,1.447,2.854,1.447,3.686s-0.288,2.255-1.447,3.686h-0.632
			c0.832-1.055,1.367-2.334,1.367-3.686c0-1.351-0.536-2.63-1.367-3.686H217.537z"/>
	</g>
	<g>
		<path d="M223.668,23.476l-0.78-0.78l-3.477,3.477l-0.339-0.339l3.477-3.477l-0.78-0.78l2.557-0.655L223.668,23.476z"/>
	</g>
	<g>
		<path d="M292.891,6.315h2.911v0.688h-3.687V1.262h0.775V6.315z"/>
		<path d="M296.604,1.262h2.327c1.495,0,2.414,1.135,2.414,2.791c0,1.287-0.56,2.95-2.446,2.95h-2.295V1.262z M297.38,6.339h1.504
			c1.007,0,1.663-0.792,1.663-2.239s-0.664-2.175-1.72-2.175h-1.447V6.339z"/>
	</g>
	<g>
		<path d="M297.625,19.178h-1.119v-4.797h-0.016l-1.071,4.797h-1.176l-1.047-4.797h-0.017v4.797h-1.119v-5.741h1.751l1.039,4.525
			h0.017l1.023-4.525h1.734V19.178z"/>
		<path d="M299.979,19.178h-1.199v-5.741h2.623c1.111,0,1.783,0.711,1.783,1.839c0,0.52-0.288,1.831-1.831,1.831h-1.376V19.178z
			 M301.091,16.116c0.896,0,0.896-0.64,0.896-0.896c0-0.56-0.312-0.792-1.055-0.792h-0.952v1.687H301.091z"/>
		<path d="M304.971,17.411c0.009,0.32,0.168,0.928,1.216,0.928c0.567,0,1.199-0.136,1.199-0.744c0-0.448-0.432-0.568-1.039-0.712
			l-0.616-0.144c-0.928-0.216-1.823-0.424-1.823-1.688c0-0.64,0.344-1.767,2.207-1.767c1.759,0,2.23,1.151,2.239,1.855h-1.151
			c-0.032-0.256-0.128-0.864-1.176-0.864c-0.456,0-0.999,0.168-0.999,0.688c0,0.448,0.367,0.544,0.607,0.6l1.399,0.344
			c0.783,0.192,1.503,0.512,1.503,1.543c0,1.727-1.759,1.879-2.263,1.879c-2.095,0-2.455-1.208-2.455-1.919H304.971z"/>
	</g>
	<g>
		<path d="M293.019,29.53l-0.6,1.671h-0.799l2.158-5.741h0.88l2.079,5.741h-0.848l-0.568-1.671H293.019z M295.043,28.842
			l-0.848-2.526h-0.016l-0.92,2.526H295.043z"/>
		<path d="M301.258,25.46h0.752v5.741h-0.871l-2.919-4.638h-0.016v4.638h-0.752V25.46h0.92l2.87,4.637h0.016V25.46z"/>
		<path d="M303.268,25.46h2.327c1.495,0,2.414,1.135,2.414,2.791c0,1.287-0.56,2.95-2.446,2.95h-2.295V25.46z M304.044,30.537h1.504
			c1.007,0,1.663-0.792,1.663-2.239s-0.664-2.175-1.72-2.175h-1.447V30.537z"/>
	</g>
	<g>
		<path d="M293.019,64.977l-0.6,1.671h-0.799l2.158-5.741h0.88l2.079,5.741h-0.848l-0.568-1.671H293.019z M295.043,64.289
			l-0.848-2.526h-0.016l-0.92,2.526H295.043z"/>
		<path d="M301.258,60.907h0.752v5.741h-0.871l-2.919-4.638h-0.016v4.638h-0.752v-5.741h0.92l2.87,4.637h0.016V60.907z"/>
		<path d="M303.268,60.907h2.327c1.495,0,2.414,1.135,2.414,2.791c0,1.287-0.56,2.95-2.446,2.95h-2.295V60.907z M304.044,65.984
			h1.504c1.007,0,1.663-0.792,1.663-2.239s-0.664-2.175-1.72-2.175h-1.447V65.984z"/>
	</g>
	<g>
		<path d="M297.625,43.376h-1.119v-4.797h-0.016l-1.071,4.797h-1.176l-1.047-4.797h-0.017v4.797h-1.119v-5.741h1.751l1.039,4.525
			h0.017l1.023-4.525h1.734V43.376z"/>
		<path d="M299.979,43.376h-1.199v-5.741h2.623c1.111,0,1.783,0.711,1.783,1.839c0,0.52-0.288,1.831-1.831,1.831h-1.376V43.376z
			 M301.091,40.314c0.896,0,0.896-0.64,0.896-0.896c0-0.56-0.312-0.792-1.055-0.792h-0.952v1.687H301.091z"/>
		<path d="M304.971,41.609c0.009,0.32,0.168,0.928,1.216,0.928c0.567,0,1.199-0.136,1.199-0.744c0-0.448-0.432-0.568-1.039-0.712
			l-0.616-0.144c-0.928-0.216-1.823-0.424-1.823-1.688c0-0.64,0.344-1.767,2.207-1.767c1.759,0,2.23,1.151,2.239,1.855h-1.151
			c-0.032-0.256-0.128-0.864-1.176-0.864c-0.456,0-0.999,0.168-0.999,0.688c0,0.448,0.367,0.544,0.607,0.6l1.399,0.344
			c0.783,0.192,1.503,0.512,1.503,1.543c0,1.727-1.759,1.879-2.263,1.879c-2.095,0-2.455-1.208-2.455-1.919H304.971z"/>
	</g>
	<g>
		<path d="M297.625,77.173h-1.119v-4.797h-0.016l-1.071,4.797h-1.176l-1.047-4.797h-0.017v4.797h-1.119v-5.741h1.751l1.039,4.525
			h0.017l1.023-4.525h1.734V77.173z"/>
		<path d="M299.979,77.173h-1.199v-5.741h2.623c1.111,0,1.783,0.711,1.783,1.839c0,0.52-0.288,1.831-1.831,1.831h-1.376V77.173z
			 M301.091,74.11c0.896,0,0.896-0.64,0.896-0.896c0-0.56-0.312-0.792-1.055-0.792h-0.952v1.687H301.091z"/>
		<path d="M304.971,75.406c0.009,0.32,0.168,0.928,1.216,0.928c0.567,0,1.199-0.136,1.199-0.744c0-0.448-0.432-0.568-1.039-0.712
			l-0.616-0.144c-0.928-0.216-1.823-0.424-1.823-1.687c0-0.64,0.344-1.767,2.207-1.767c1.759,0,2.23,1.151,2.239,1.855h-1.151
			c-0.032-0.256-0.128-0.864-1.176-0.864c-0.456,0-0.999,0.168-0.999,0.688c0,0.448,0.367,0.544,0.607,0.6l1.399,0.344
			c0.783,0.192,1.503,0.512,1.503,1.543c0,1.727-1.759,1.879-2.263,1.879c-2.095,0-2.455-1.207-2.455-1.919H304.971z"/>
	</g>
	<g>
		<path d="M293.019,86.274l-0.6,1.671h-0.799l2.158-5.741h0.88l2.079,5.741h-0.848l-0.568-1.671H293.019z M295.043,85.586
			l-0.848-2.526h-0.016l-0.92,2.526H295.043z"/>
		<path d="M301.258,82.204h0.752v5.741h-0.871l-2.919-4.638h-0.016v4.638h-0.752v-5.741h0.92l2.87,4.637h0.016V82.204z"/>
		<path d="M303.268,82.204h2.327c1.495,0,2.414,1.135,2.414,2.791c0,1.287-0.56,2.95-2.446,2.95h-2.295V82.204z M304.044,87.281
			h1.504c1.007,0,1.663-0.792,1.663-2.239s-0.664-2.175-1.72-2.175h-1.447V87.281z"/>
	</g>
	<g>
		<path d="M297.625,98.47h-1.119v-4.797h-0.016l-1.071,4.797h-1.176l-1.047-4.797h-0.017v4.797h-1.119v-5.741h1.751l1.039,4.525
			h0.017l1.023-4.525h1.734V98.47z"/>
		<path d="M299.979,98.47h-1.199v-5.741h2.623c1.111,0,1.783,0.711,1.783,1.839c0,0.52-0.288,1.831-1.831,1.831h-1.376V98.47z
			 M301.091,95.407c0.896,0,0.896-0.64,0.896-0.896c0-0.56-0.312-0.792-1.055-0.792h-0.952v1.687H301.091z"/>
		<path d="M304.971,96.703c0.009,0.32,0.168,0.928,1.216,0.928c0.567,0,1.199-0.136,1.199-0.744c0-0.448-0.432-0.568-1.039-0.712
			l-0.616-0.144c-0.928-0.216-1.823-0.424-1.823-1.687c0-0.64,0.344-1.767,2.207-1.767c1.759,0,2.23,1.151,2.239,1.855h-1.151
			c-0.032-0.256-0.128-0.864-1.176-0.864c-0.456,0-0.999,0.168-0.999,0.688c0,0.448,0.367,0.544,0.607,0.6l1.399,0.344
			c0.783,0.192,1.503,0.512,1.503,1.543c0,1.727-1.759,1.879-2.263,1.879c-2.095,0-2.455-1.207-2.455-1.919H304.971z"/>
	</g>
	<g>
		<path d="M293.019,108.821l-0.6,1.671h-0.799l2.158-5.741h0.88l2.079,5.741h-0.848l-0.568-1.671H293.019z M295.043,108.133
			l-0.848-2.526h-0.016l-0.92,2.526H295.043z"/>
		<path d="M301.258,104.751h0.752v5.741h-0.871l-2.919-4.638h-0.016v4.638h-0.752v-5.741h0.92l2.87,4.637h0.016V104.751z"/>
		<path d="M303.268,104.751h2.327c1.495,0,2.414,1.135,2.414,2.791c0,1.287-0.56,2.95-2.446,2.95h-2.295V104.751z M304.044,109.828
			h1.504c1.007,0,1.663-0.792,1.663-2.239s-0.664-2.175-1.72-2.175h-1.447V109.828z"/>
	</g>
	<g>
		<path d="M297.625,142.892h-1.119v-4.797h-0.016l-1.071,4.797h-1.176l-1.047-4.797h-0.017v4.797h-1.119v-5.741h1.751l1.039,4.525
			h0.017l1.023-4.525h1.734V142.892z"/>
		<path d="M299.979,142.892h-1.199v-5.741h2.623c1.111,0,1.783,0.711,1.783,1.839c0,0.52-0.288,1.831-1.831,1.831h-1.376V142.892z
			 M301.091,139.83c0.896,0,0.896-0.64,0.896-0.896c0-0.56-0.312-0.792-1.055-0.792h-0.952v1.687H301.091z"/>
		<path d="M305.315,142.892h-1.199v-5.741h2.623c1.111,0,1.783,0.711,1.783,1.839c0,0.52-0.288,1.831-1.831,1.831h-1.376V142.892z
			 M306.427,139.83c0.896,0,0.896-0.64,0.896-0.896c0-0.56-0.312-0.792-1.055-0.792h-0.952v1.687H306.427z"/>
	</g>
	<g>
		<path d="M294.619,122.743c-2.143,0-2.799-1.783-2.799-3.022s0.656-3.022,2.799-3.022s2.799,1.783,2.799,3.022
			S296.761,122.743,294.619,122.743z M294.619,117.386c-1.247,0-1.999,0.983-1.999,2.334c0,1.352,0.752,2.335,1.999,2.335
			s1.999-0.983,1.999-2.335C296.618,118.369,295.866,117.386,294.619,117.386z"/>
		<path d="M302.882,116.85v3.726c0,1.176-0.735,2.167-2.311,2.167c-1.544,0-2.207-0.991-2.207-2.063v-3.83h0.775v3.614
			c0,1.248,0.76,1.591,1.455,1.591c0.712,0,1.512-0.328,1.512-1.575v-3.63H302.882z"/>
		<path d="M303.621,116.85h4.661v0.688h-1.943v5.053h-0.775v-5.053h-1.942V116.85z"/>
	</g>
	<g>
		<path d="M297.625,175.438h-1.119v-4.797h-0.016l-1.071,4.797h-1.176l-1.047-4.797h-0.017v4.797h-1.119v-5.741h1.751l1.039,4.525
			h0.017l1.023-4.525h1.734V175.438z"/>
		<path d="M299.979,175.438h-1.199v-5.741h2.623c1.111,0,1.783,0.711,1.783,1.839c0,0.52-0.288,1.831-1.831,1.831h-1.376V175.438z
			 M301.091,172.375c0.896,0,0.896-0.64,0.896-0.896c0-0.56-0.312-0.792-1.055-0.792h-0.952v1.687H301.091z"/>
		<path d="M305.315,175.438h-1.199v-5.741h2.623c1.111,0,1.783,0.711,1.783,1.839c0,0.52-0.288,1.831-1.831,1.831h-1.376V175.438z
			 M306.427,172.375c0.896,0,0.896-0.64,0.896-0.896c0-0.56-0.312-0.792-1.055-0.792h-0.952v1.687H306.427z"/>
	</g>
	<g>
		<path d="M293.019,185.79l-0.6,1.671h-0.799l2.158-5.741h0.88l2.079,5.741h-0.848l-0.568-1.671H293.019z M295.043,185.102
			l-0.848-2.526h-0.016l-0.92,2.526H295.043z"/>
		<path d="M301.258,181.72h0.752v5.741h-0.871l-2.919-4.637h-0.016v4.637h-0.752v-5.741h0.92l2.87,4.637h0.016V181.72z"/>
		<path d="M303.268,181.72h2.327c1.495,0,2.414,1.135,2.414,2.791c0,1.287-0.56,2.95-2.446,2.95h-2.295V181.72z M304.044,186.797
			h1.504c1.007,0,1.663-0.792,1.663-2.239s-0.664-2.175-1.72-2.175h-1.447V186.797z"/>
	</g>
	<g>
		<path d="M294.619,199.711c-2.143,0-2.799-1.783-2.799-3.022c0-1.239,0.656-3.022,2.799-3.022s2.799,1.783,2.799,3.022
			C297.418,197.928,296.761,199.711,294.619,199.711z M294.619,194.354c-1.247,0-1.999,0.983-1.999,2.334
			c0,1.352,0.752,2.335,1.999,2.335s1.999-0.983,1.999-2.335C296.618,195.337,295.866,194.354,294.619,194.354z"/>
		<path d="M302.882,193.818v3.726c0,1.175-0.735,2.167-2.311,2.167c-1.544,0-2.207-0.991-2.207-2.063v-3.83h0.775v3.614
			c0,1.248,0.76,1.591,1.455,1.591c0.712,0,1.512-0.328,1.512-1.575v-3.63H302.882z"/>
		<path d="M303.621,193.818h4.661v0.688h-1.943v5.053h-0.775v-5.053h-1.942V193.818z"/>
	</g>
	<g>
		<path d="M293.019,151.368l-0.6,1.671h-0.799l2.158-5.741h0.88l2.079,5.741h-0.848l-0.568-1.671H293.019z M295.043,150.68
			l-0.848-2.526h-0.016l-0.92,2.526H295.043z"/>
		<path d="M301.258,147.298h0.752v5.741h-0.871l-2.919-4.637h-0.016v4.637h-0.752v-5.741h0.92l2.87,4.637h0.016V147.298z"/>
		<path d="M303.268,147.298h2.327c1.495,0,2.414,1.135,2.414,2.791c0,1.287-0.56,2.95-2.446,2.95h-2.295V147.298z M304.044,152.375
			h1.504c1.007,0,1.663-0.792,1.663-2.239s-0.664-2.175-1.72-2.175h-1.447V152.375z"/>
	</g>
	<g>
		<path d="M294.619,165.29c-2.143,0-2.799-1.783-2.799-3.022c0-1.239,0.656-3.022,2.799-3.022s2.799,1.783,2.799,3.022
			C297.418,163.507,296.761,165.29,294.619,165.29z M294.619,159.933c-1.247,0-1.999,0.983-1.999,2.334
			c0,1.352,0.752,2.335,1.999,2.335s1.999-0.983,1.999-2.335C296.618,160.917,295.866,159.933,294.619,159.933z"/>
		<path d="M302.882,159.397v3.726c0,1.175-0.735,2.167-2.311,2.167c-1.544,0-2.207-0.991-2.207-2.063v-3.83h0.775v3.614
			c0,1.248,0.76,1.591,1.455,1.591c0.712,0,1.512-0.328,1.512-1.575v-3.63H302.882z"/>
		<path d="M303.621,159.397h4.661v0.688h-1.943v5.053h-0.775v-5.053h-1.942V159.397z"/>
	</g>
	<g>
		<path d="M321.504,7.002h-0.775V1.262h2.654c0.943,0,1.887,0.328,1.887,1.543c0,0.848-0.432,1.16-0.8,1.375
			c0.328,0.136,0.656,0.28,0.688,1.079l0.048,1.04c0.009,0.32,0.049,0.44,0.288,0.576v0.128h-0.951
			c-0.112-0.352-0.136-1.223-0.136-1.439c0-0.472-0.096-1.023-1.023-1.023h-1.879V7.002z M321.504,3.876h1.799
			c0.567,0,1.167-0.144,1.167-0.991c0-0.888-0.647-0.959-1.031-0.959h-1.935V3.876z"/>
		<path d="M328.023,7.154c-1.615,0-1.927-1.719-1.927-2.886c0-1.167,0.312-2.887,1.927-2.887s1.927,1.719,1.927,2.887
			C329.95,5.435,329.638,7.154,328.023,7.154z M328.023,2.013c-0.808,0-1.175,0.848-1.175,2.255s0.367,2.255,1.175,2.255
			s1.176-0.848,1.176-2.255S328.831,2.013,328.023,2.013z"/>
		<path d="M332.47,7.154c-1.615,0-1.927-1.719-1.927-2.886c0-1.167,0.312-2.887,1.927-2.887s1.927,1.719,1.927,2.887
			C334.397,5.435,334.086,7.154,332.47,7.154z M332.47,2.013c-0.808,0-1.175,0.848-1.175,2.255s0.367,2.255,1.175,2.255
			s1.176-0.848,1.176-2.255S333.278,2.013,332.47,2.013z"/>
		<path d="M336.919,7.154c-1.615,0-1.927-1.719-1.927-2.886c0-1.167,0.312-2.887,1.927-2.887s1.927,1.719,1.927,2.887
			C338.845,5.435,338.534,7.154,336.919,7.154z M336.919,2.013c-0.808,0-1.175,0.848-1.175,2.255s0.367,2.255,1.175,2.255
			s1.176-0.848,1.176-2.255S337.726,2.013,336.919,2.013z"/>
	</g>
	<g>
		<path d="M321.504,31.201h-0.775V25.46h2.654c0.943,0,1.887,0.328,1.887,1.543c0,0.848-0.432,1.16-0.8,1.375
			c0.328,0.136,0.656,0.28,0.688,1.079l0.048,1.04c0.009,0.32,0.049,0.44,0.288,0.576v0.128h-0.951
			c-0.112-0.352-0.136-1.223-0.136-1.439c0-0.472-0.096-1.023-1.023-1.023h-1.879V31.201z M321.504,28.074h1.799
			c0.567,0,1.167-0.144,1.167-0.991c0-0.888-0.647-0.959-1.031-0.959h-1.935V28.074z"/>
		<path d="M328.023,31.353c-1.615,0-1.927-1.719-1.927-2.886c0-1.167,0.312-2.887,1.927-2.887s1.927,1.719,1.927,2.887
			C329.95,29.633,329.638,31.353,328.023,31.353z M328.023,26.211c-0.808,0-1.175,0.848-1.175,2.255s0.367,2.255,1.175,2.255
			s1.176-0.848,1.176-2.255S328.831,26.211,328.023,26.211z"/>
		<path d="M332.47,31.353c-1.615,0-1.927-1.719-1.927-2.886c0-1.167,0.312-2.887,1.927-2.887s1.927,1.719,1.927,2.887
			C334.397,29.633,334.086,31.353,332.47,31.353z M332.47,26.211c-0.808,0-1.175,0.848-1.175,2.255s0.367,2.255,1.175,2.255
			s1.176-0.848,1.176-2.255S333.278,26.211,332.47,26.211z"/>
		<path d="M336.967,31.201h-0.751v-3.99h-1.312v-0.56c0.911-0.064,1.287-0.152,1.511-1.072h0.552V31.201z"/>
	</g>
	<g>
		<path d="M321.504,66.648h-0.775v-5.741h2.654c0.943,0,1.887,0.328,1.887,1.543c0,0.848-0.432,1.16-0.8,1.375
			c0.328,0.136,0.656,0.28,0.688,1.079l0.048,1.04c0.009,0.32,0.049,0.44,0.288,0.576v0.128h-0.951
			c-0.112-0.352-0.136-1.223-0.136-1.439c0-0.472-0.096-1.023-1.023-1.023h-1.879V66.648z M321.504,63.521h1.799
			c0.567,0,1.167-0.144,1.167-0.991c0-0.888-0.647-0.959-1.031-0.959h-1.935V63.521z"/>
		<path d="M328.023,66.8c-1.615,0-1.927-1.719-1.927-2.886c0-1.167,0.312-2.887,1.927-2.887s1.927,1.719,1.927,2.887
			C329.95,65.081,329.638,66.8,328.023,66.8z M328.023,61.659c-0.808,0-1.175,0.848-1.175,2.255s0.367,2.255,1.175,2.255
			s1.176-0.848,1.176-2.255S328.831,61.659,328.023,61.659z"/>
		<path d="M332.47,66.8c-1.615,0-1.927-1.719-1.927-2.886c0-1.167,0.312-2.887,1.927-2.887s1.927,1.719,1.927,2.887
			C334.397,65.081,334.086,66.8,332.47,66.8z M332.47,61.659c-0.808,0-1.175,0.848-1.175,2.255s0.367,2.255,1.175,2.255
			s1.176-0.848,1.176-2.255S333.278,61.659,332.47,61.659z"/>
		<path d="M338.03,62.522c-0.088-0.496-0.359-0.863-0.968-0.863c-1.103,0-1.335,1.487-1.335,2.079l0.017,0.016
			c0.176-0.304,0.567-0.688,1.335-0.688c0.688,0,1.759,0.44,1.759,1.783c0,0.576-0.151,0.991-0.535,1.407
			c-0.296,0.328-0.632,0.543-1.424,0.543c-0.432,0-1.047-0.192-1.447-0.815c-0.336-0.528-0.432-1.215-0.432-1.951
			c0-1.231,0.4-3.006,2.079-3.006c0.647,0,1.567,0.352,1.639,1.495H338.03z M337.007,66.168c0.672,0,1.104-0.528,1.104-1.288
			c0-0.496-0.264-1.183-1.136-1.183c-0.775,0-1.151,0.56-1.151,1.223C335.823,65.521,336.183,66.168,337.007,66.168z"/>
	</g>
	<g>
		<path d="M321.504,87.945h-0.775v-5.741h2.654c0.943,0,1.887,0.328,1.887,1.543c0,0.848-0.432,1.16-0.8,1.375
			c0.328,0.136,0.656,0.28,0.688,1.079l0.048,1.04c0.009,0.32,0.049,0.44,0.288,0.576v0.128h-0.951
			c-0.112-0.352-0.136-1.223-0.136-1.439c0-0.472-0.096-1.023-1.023-1.023h-1.879V87.945z M321.504,84.818h1.799
			c0.567,0,1.167-0.144,1.167-0.991c0-0.888-0.647-0.959-1.031-0.959h-1.935V84.818z"/>
		<path d="M328.023,88.097c-1.615,0-1.927-1.719-1.927-2.886c0-1.167,0.312-2.887,1.927-2.887s1.927,1.719,1.927,2.887
			C329.95,86.377,329.638,88.097,328.023,88.097z M328.023,82.956c-0.808,0-1.175,0.848-1.175,2.255s0.367,2.255,1.175,2.255
			s1.176-0.848,1.176-2.255S328.831,82.956,328.023,82.956z"/>
		<path d="M332.47,88.097c-1.615,0-1.927-1.719-1.927-2.886c0-1.167,0.312-2.887,1.927-2.887s1.927,1.719,1.927,2.887
			C334.397,86.377,334.086,88.097,332.47,88.097z M332.47,82.956c-0.808,0-1.175,0.848-1.175,2.255s0.367,2.255,1.175,2.255
			s1.176-0.848,1.176-2.255S333.278,82.956,332.47,82.956z"/>
		<path d="M334.992,82.444h3.886v0.616c-0.56,0.583-1.903,2.375-2.311,4.885h-0.775c0.191-1.543,1.215-3.558,2.294-4.813h-3.094
			V82.444z"/>
	</g>
	<g>
		<path d="M321.504,110.492h-0.775v-5.741h2.654c0.943,0,1.887,0.328,1.887,1.543c0,0.848-0.432,1.16-0.8,1.375
			c0.328,0.136,0.656,0.28,0.688,1.079l0.048,1.04c0.009,0.32,0.049,0.44,0.288,0.576v0.128h-0.951
			c-0.112-0.352-0.136-1.223-0.136-1.439c0-0.472-0.096-1.023-1.023-1.023h-1.879V110.492z M321.504,107.365h1.799
			c0.567,0,1.167-0.144,1.167-0.991c0-0.888-0.647-0.959-1.031-0.959h-1.935V107.365z"/>
		<path d="M328.023,110.644c-1.615,0-1.927-1.719-1.927-2.886c0-1.167,0.312-2.887,1.927-2.887s1.927,1.719,1.927,2.887
			C329.95,108.924,329.638,110.644,328.023,110.644z M328.023,105.502c-0.808,0-1.175,0.848-1.175,2.255s0.367,2.255,1.175,2.255
			s1.176-0.848,1.176-2.255S328.831,105.502,328.023,105.502z"/>
		<path d="M332.47,110.644c-1.615,0-1.927-1.719-1.927-2.886c0-1.167,0.312-2.887,1.927-2.887s1.927,1.719,1.927,2.887
			C334.397,108.924,334.086,110.644,332.47,110.644z M332.47,105.502c-0.808,0-1.175,0.848-1.175,2.255s0.367,2.255,1.175,2.255
			s1.176-0.848,1.176-2.255S333.278,105.502,332.47,105.502z"/>
		<path d="M337.91,107.501c0.76,0.32,0.92,0.943,0.92,1.367c0,0.903-0.576,1.775-1.903,1.775c-0.312,0-0.903-0.08-1.351-0.432
			C335,109.756,335,109.148,335,108.876c0-0.688,0.36-1.127,0.951-1.367c-0.479-0.184-0.759-0.567-0.759-1.095
			c0-0.584,0.359-1.543,1.703-1.543c1.247,0,1.734,0.792,1.734,1.447C338.63,107.125,338.158,107.374,337.91,107.501z
			 M335.752,108.893c0,0.448,0.224,1.12,1.199,1.12c0.512,0,1.127-0.184,1.127-1.063c0-0.76-0.527-1.096-1.167-1.096
			C336.119,107.853,335.752,108.373,335.752,108.893z M337.902,106.342c0-0.344-0.224-0.839-1.047-0.839
			c-0.752,0-0.936,0.52-0.936,0.879c0,0.536,0.472,0.864,0.983,0.864C337.51,107.246,337.902,106.854,337.902,106.342z"/>
	</g>
	<g>
		<path d="M321.504,122.591h-0.775v-5.741h2.654c0.943,0,1.887,0.328,1.887,1.543c0,0.848-0.432,1.159-0.8,1.375
			c0.328,0.136,0.656,0.28,0.688,1.079l0.048,1.04c0.009,0.32,0.049,0.44,0.288,0.576v0.128h-0.951
			c-0.112-0.352-0.136-1.223-0.136-1.439c0-0.472-0.096-1.023-1.023-1.023h-1.879V122.591z M321.504,119.464h1.799
			c0.567,0,1.167-0.144,1.167-0.991c0-0.888-0.647-0.959-1.031-0.959h-1.935V119.464z"/>
		<path d="M326.976,119.321c0.239-0.184,0.583-0.352,1.087-0.352c0.911,0,1.847,0.64,1.847,1.799c0,0.624-0.279,1.975-2.038,1.975
			c-0.736,0-1.68-0.296-1.815-1.551h0.728c0.072,0.656,0.56,0.944,1.191,0.944c0.728,0,1.184-0.584,1.184-1.288
			c0-0.808-0.552-1.247-1.247-1.247c-0.408,0-0.776,0.192-1.04,0.536l-0.607-0.032l0.424-3.014h2.91v0.688h-2.383L326.976,119.321z"
			/>
		<path d="M332.47,122.743c-1.615,0-1.927-1.719-1.927-2.886s0.312-2.887,1.927-2.887s1.927,1.719,1.927,2.887
			S334.086,122.743,332.47,122.743z M332.47,117.602c-0.808,0-1.175,0.848-1.175,2.255s0.367,2.254,1.175,2.254
			s1.176-0.847,1.176-2.254S333.278,117.602,332.47,117.602z"/>
		<path d="M336.919,122.743c-1.615,0-1.927-1.719-1.927-2.886s0.312-2.887,1.927-2.887s1.927,1.719,1.927,2.887
			S338.534,122.743,336.919,122.743z M336.919,117.602c-0.808,0-1.175,0.848-1.175,2.255s0.367,2.254,1.175,2.254
			s1.176-0.847,1.176-2.254S337.726,117.602,336.919,117.602z"/>
	</g>
	<g>
		<path d="M321.504,187.461h-0.775v-5.741h2.654c0.943,0,1.887,0.328,1.887,1.543c0,0.848-0.432,1.159-0.8,1.375
			c0.328,0.136,0.656,0.28,0.688,1.079l0.048,1.04c0.009,0.32,0.049,0.44,0.288,0.576v0.128h-0.951
			c-0.112-0.352-0.136-1.223-0.136-1.439c0-0.472-0.096-1.023-1.023-1.023h-1.879V187.461z M321.504,184.334h1.799
			c0.567,0,1.167-0.144,1.167-0.991c0-0.888-0.647-0.959-1.031-0.959h-1.935V184.334z"/>
		<path d="M328.023,187.613c-1.615,0-1.927-1.719-1.927-2.886s0.312-2.887,1.927-2.887s1.927,1.719,1.927,2.887
			S329.638,187.613,328.023,187.613z M328.023,182.472c-0.808,0-1.175,0.848-1.175,2.255s0.367,2.254,1.175,2.254
			s1.176-0.847,1.176-2.254S328.831,182.472,328.023,182.472z"/>
		<path d="M332.518,187.461h-0.751v-3.99h-1.312v-0.56c0.911-0.064,1.287-0.152,1.511-1.072h0.552V187.461z"/>
		<path d="M335.879,187.613c-1.615,0-1.927-1.719-1.927-2.886s0.312-2.887,1.927-2.887s1.927,1.719,1.927,2.887
			S337.494,187.613,335.879,187.613z M335.879,182.472c-0.808,0-1.175,0.848-1.175,2.255s0.367,2.254,1.175,2.254
			s1.176-0.847,1.176-2.254S336.686,182.472,335.879,182.472z"/>
	</g>
	<g>
		<path d="M321.504,199.559h-0.775v-5.741h2.654c0.943,0,1.887,0.328,1.887,1.543c0,0.848-0.432,1.16-0.8,1.375
			c0.328,0.136,0.656,0.28,0.688,1.079l0.048,1.04c0.009,0.32,0.049,0.44,0.288,0.576v0.128h-0.951
			c-0.112-0.352-0.136-1.223-0.136-1.439c0-0.472-0.096-1.023-1.023-1.023h-1.879V199.559z M321.504,196.433h1.799
			c0.567,0,1.167-0.144,1.167-0.991c0-0.888-0.647-0.959-1.031-0.959h-1.935V196.433z"/>
		<path d="M326.976,196.289c0.239-0.184,0.583-0.352,1.087-0.352c0.911,0,1.847,0.64,1.847,1.799c0,0.624-0.279,1.975-2.038,1.975
			c-0.736,0-1.68-0.296-1.815-1.551h0.728c0.072,0.656,0.56,0.944,1.191,0.944c0.728,0,1.184-0.584,1.184-1.288
			c0-0.808-0.552-1.247-1.247-1.247c-0.408,0-0.776,0.192-1.04,0.536l-0.607-0.032l0.424-3.014h2.91v0.688h-2.383L326.976,196.289z"
			/>
		<path d="M332.47,199.711c-1.615,0-1.927-1.719-1.927-2.886c0-1.167,0.312-2.887,1.927-2.887s1.927,1.719,1.927,2.887
			C334.397,197.992,334.086,199.711,332.47,199.711z M332.47,194.57c-0.808,0-1.175,0.848-1.175,2.255s0.367,2.255,1.175,2.255
			s1.176-0.848,1.176-2.255S333.278,194.57,332.47,194.57z"/>
		<path d="M335.048,195.953c0-1.831,1.336-2.015,1.943-2.015c0.976,0,1.759,0.632,1.759,1.679c0,1.007-0.664,1.431-1.503,1.879
			l-0.584,0.32c-0.768,0.424-0.936,0.864-0.968,1.08h3.055v0.664h-3.846c0.04-1.167,0.567-1.791,1.319-2.231l0.743-0.432
			c0.6-0.344,1.031-0.576,1.031-1.311c0-0.448-0.287-1.016-1.111-1.016c-1.063,0-1.111,0.991-1.135,1.383H335.048z"/>
	</g>
	<g>
		<path d="M321.504,153.039h-0.775v-5.741h2.654c0.943,0,1.887,0.328,1.887,1.543c0,0.848-0.432,1.159-0.8,1.375
			c0.328,0.136,0.656,0.28,0.688,1.079l0.048,1.04c0.009,0.32,0.049,0.44,0.288,0.576v0.128h-0.951
			c-0.112-0.352-0.136-1.223-0.136-1.439c0-0.472-0.096-1.023-1.023-1.023h-1.879V153.039z M321.504,149.913h1.799
			c0.567,0,1.167-0.144,1.167-0.991c0-0.888-0.647-0.959-1.031-0.959h-1.935V149.913z"/>
		<path d="M328.023,153.191c-1.615,0-1.927-1.719-1.927-2.886s0.312-2.887,1.927-2.887s1.927,1.719,1.927,2.887
			S329.638,153.191,328.023,153.191z M328.023,148.05c-0.808,0-1.175,0.848-1.175,2.255s0.367,2.254,1.175,2.254
			s1.176-0.847,1.176-2.254S328.831,148.05,328.023,148.05z"/>
		<path d="M332.47,153.191c-1.615,0-1.927-1.719-1.927-2.886s0.312-2.887,1.927-2.887s1.927,1.719,1.927,2.887
			S334.086,153.191,332.47,153.191z M332.47,148.05c-0.808,0-1.175,0.848-1.175,2.255s0.367,2.254,1.175,2.254
			s1.176-0.847,1.176-2.254S333.278,148.05,332.47,148.05z"/>
		<path d="M335.032,149.345c0-1.023,0.624-1.927,1.807-1.927c1.791,0,1.967,1.695,1.967,2.607c0,0.6-0.104,3.166-2.038,3.166
			c-1.319,0-1.672-0.959-1.672-1.503h0.704c0.04,0.567,0.376,0.919,0.951,0.919c0.768,0,1.176-0.648,1.352-2.103l-0.017-0.016
			c-0.207,0.432-0.768,0.672-1.287,0.672C335.76,151.16,335.032,150.464,335.032,149.345z M337.982,149.249
			c0-0.64-0.328-1.199-1.136-1.199c-0.655,0-1.087,0.512-1.087,1.263c0,1.08,0.672,1.215,1.144,1.215
			C337.27,150.528,337.982,150.36,337.982,149.249z"/>
	</g>
	<g>
		<path d="M321.504,165.138h-0.775v-5.741h2.654c0.943,0,1.887,0.328,1.887,1.543c0,0.848-0.432,1.16-0.8,1.375
			c0.328,0.136,0.656,0.28,0.688,1.079l0.048,1.04c0.009,0.32,0.049,0.44,0.288,0.576v0.128h-0.951
			c-0.112-0.352-0.136-1.223-0.136-1.439c0-0.472-0.096-1.023-1.023-1.023h-1.879V165.138z M321.504,162.012h1.799
			c0.567,0,1.167-0.144,1.167-0.991c0-0.888-0.647-0.959-1.031-0.959h-1.935V162.012z"/>
		<path d="M326.976,161.868c0.239-0.184,0.583-0.352,1.087-0.352c0.911,0,1.847,0.64,1.847,1.799c0,0.624-0.279,1.975-2.038,1.975
			c-0.736,0-1.68-0.296-1.815-1.551h0.728c0.072,0.656,0.56,0.944,1.191,0.944c0.728,0,1.184-0.584,1.184-1.288
			c0-0.808-0.552-1.247-1.247-1.247c-0.408,0-0.776,0.192-1.04,0.536l-0.607-0.032l0.424-3.014h2.91v0.688h-2.383L326.976,161.868z"
			/>
		<path d="M332.47,165.29c-1.615,0-1.927-1.719-1.927-2.886c0-1.167,0.312-2.887,1.927-2.887s1.927,1.719,1.927,2.887
			C334.397,163.571,334.086,165.29,332.47,165.29z M332.47,160.149c-0.808,0-1.175,0.848-1.175,2.255s0.367,2.255,1.175,2.255
			s1.176-0.848,1.176-2.255S333.278,160.149,332.47,160.149z"/>
		<path d="M336.967,165.138h-0.751v-3.99h-1.312v-0.56c0.911-0.064,1.287-0.152,1.511-1.072h0.552V165.138z"/>
	</g>
	<g>
		<path d="M297.625,224.188h-1.119v-4.797h-0.016l-1.071,4.797h-1.176l-1.047-4.797h-0.017v4.797h-1.119v-5.741h1.751l1.039,4.526
			h0.017l1.023-4.526h1.734V224.188z"/>
		<path d="M299.979,224.188h-1.199v-5.741h2.623c1.111,0,1.783,0.712,1.783,1.839c0,0.521-0.288,1.831-1.831,1.831h-1.376V224.188z
			 M301.091,221.125c0.896,0,0.896-0.64,0.896-0.896c0-0.56-0.312-0.791-1.055-0.791h-0.952v1.687H301.091z"/>
		<path d="M305.315,224.188h-1.199v-5.741h2.623c1.111,0,1.783,0.712,1.783,1.839c0,0.521-0.288,1.831-1.831,1.831h-1.376V224.188z
			 M306.427,221.125c0.896,0,0.896-0.64,0.896-0.896c0-0.56-0.312-0.791-1.055-0.791h-0.952v1.687H306.427z"/>
	</g>
	<g>
		<path d="M293.019,234.541l-0.6,1.671h-0.799l2.158-5.741h0.88l2.079,5.741h-0.848l-0.568-1.671H293.019z M295.043,233.853
			l-0.848-2.527h-0.016l-0.92,2.527H295.043z"/>
		<path d="M301.258,230.47h0.752v5.741h-0.871l-2.919-4.638h-0.016v4.638h-0.752v-5.741h0.92l2.87,4.638h0.016V230.47z"/>
		<path d="M303.268,230.47h2.327c1.495,0,2.414,1.136,2.414,2.791c0,1.287-0.56,2.95-2.446,2.95h-2.295V230.47z M304.044,235.547
			h1.504c1.007,0,1.663-0.791,1.663-2.238s-0.664-2.175-1.72-2.175h-1.447V235.547z"/>
	</g>
	<g>
		<path d="M294.619,248.461c-2.143,0-2.799-1.783-2.799-3.022s0.656-3.022,2.799-3.022s2.799,1.783,2.799,3.022
			S296.761,248.461,294.619,248.461z M294.619,243.104c-1.247,0-1.999,0.983-1.999,2.335c0,1.351,0.752,2.334,1.999,2.334
			s1.999-0.983,1.999-2.334C296.618,244.087,295.866,243.104,294.619,243.104z"/>
		<path d="M302.882,242.568v3.727c0,1.175-0.735,2.167-2.311,2.167c-1.544,0-2.207-0.992-2.207-2.063v-3.83h0.775v3.614
			c0,1.247,0.76,1.591,1.455,1.591c0.712,0,1.512-0.327,1.512-1.575v-3.63H302.882z"/>
		<path d="M303.621,242.568h4.661v0.688h-1.943v5.053h-0.775v-5.053h-1.942V242.568z"/>
	</g>
	<g>
		<path d="M321.504,236.211h-0.775v-5.741h2.654c0.943,0,1.887,0.328,1.887,1.544c0,0.847-0.432,1.159-0.8,1.375
			c0.328,0.136,0.656,0.279,0.688,1.079l0.048,1.04c0.009,0.319,0.049,0.439,0.288,0.575v0.128h-0.951
			c-0.112-0.352-0.136-1.224-0.136-1.439c0-0.472-0.096-1.023-1.023-1.023h-1.879V236.211z M321.504,233.085h1.799
			c0.567,0,1.167-0.145,1.167-0.992c0-0.887-0.647-0.959-1.031-0.959h-1.935V233.085z"/>
		<path d="M328.023,236.364c-1.615,0-1.927-1.72-1.927-2.887c0-1.168,0.312-2.887,1.927-2.887s1.927,1.719,1.927,2.887
			C329.95,234.644,329.638,236.364,328.023,236.364z M328.023,231.222c-0.808,0-1.175,0.848-1.175,2.255s0.367,2.255,1.175,2.255
			s1.176-0.848,1.176-2.255S328.831,231.222,328.023,231.222z"/>
		<path d="M332.518,236.211h-0.751v-3.99h-1.312v-0.56c0.911-0.063,1.287-0.151,1.511-1.071h0.552V236.211z"/>
		<path d="M334.952,232.941c0.239-0.184,0.583-0.352,1.087-0.352c0.911,0,1.847,0.64,1.847,1.799c0,0.624-0.279,1.976-2.038,1.976
			c-0.736,0-1.68-0.296-1.815-1.552h0.728c0.072,0.656,0.56,0.943,1.191,0.943c0.728,0,1.184-0.583,1.184-1.287
			c0-0.808-0.552-1.247-1.248-1.247c-0.407,0-0.775,0.191-1.039,0.535l-0.607-0.031l0.424-3.015h2.91v0.688h-2.383L334.952,232.941z
			"/>
	</g>
	<g>
		<path d="M321.504,248.309h-0.775v-5.741h2.654c0.943,0,1.887,0.328,1.887,1.544c0,0.847-0.432,1.159-0.8,1.375
			c0.328,0.136,0.656,0.279,0.688,1.079l0.048,1.04c0.009,0.319,0.049,0.439,0.288,0.575v0.128h-0.951
			c-0.112-0.352-0.136-1.224-0.136-1.439c0-0.472-0.096-1.023-1.023-1.023h-1.879V248.309z M321.504,245.183h1.799
			c0.567,0,1.167-0.145,1.167-0.992c0-0.887-0.647-0.959-1.031-0.959h-1.935V245.183z"/>
		<path d="M326.976,245.039c0.239-0.184,0.583-0.352,1.087-0.352c0.911,0,1.847,0.64,1.847,1.799c0,0.624-0.279,1.976-2.038,1.976
			c-0.736,0-1.68-0.296-1.815-1.552h0.728c0.072,0.656,0.56,0.943,1.191,0.943c0.728,0,1.184-0.583,1.184-1.287
			c0-0.808-0.552-1.247-1.247-1.247c-0.408,0-0.776,0.191-1.04,0.535l-0.607-0.031l0.424-3.015h2.91v0.688h-2.383L326.976,245.039z"
			/>
		<path d="M332.47,248.461c-1.615,0-1.927-1.72-1.927-2.887c0-1.168,0.312-2.887,1.927-2.887s1.927,1.719,1.927,2.887
			C334.397,246.742,334.086,248.461,332.47,248.461z M332.47,243.32c-0.808,0-1.175,0.848-1.175,2.255s0.367,2.255,1.175,2.255
			s1.176-0.848,1.176-2.255S333.278,243.32,332.47,243.32z"/>
		<path d="M334.992,242.808h3.886v0.615c-0.56,0.584-1.903,2.375-2.311,4.886h-0.775c0.191-1.543,1.215-3.558,2.294-4.813h-3.094
			V242.808z"/>
	</g>
	<g>
		<path d="M297.625,259.813h-1.119v-4.797h-0.016l-1.071,4.797h-1.176l-1.047-4.797h-0.017v4.797h-1.119v-5.741h1.751l1.039,4.526
			h0.017l1.023-4.526h1.734V259.813z"/>
		<path d="M299.979,259.813h-1.199v-5.741h2.623c1.111,0,1.783,0.712,1.783,1.839c0,0.521-0.288,1.831-1.831,1.831h-1.376V259.813z
			 M301.091,256.75c0.896,0,0.896-0.64,0.896-0.896c0-0.56-0.312-0.791-1.055-0.791h-0.952v1.687H301.091z"/>
		<path d="M305.315,259.813h-1.199v-5.741h2.623c1.111,0,1.783,0.712,1.783,1.839c0,0.521-0.288,1.831-1.831,1.831h-1.376V259.813z
			 M306.427,256.75c0.896,0,0.896-0.64,0.896-0.896c0-0.56-0.312-0.791-1.055-0.791h-0.952v1.687H306.427z"/>
	</g>
	<g>
		<path d="M293.019,270.166l-0.6,1.671h-0.799l2.158-5.741h0.88l2.079,5.741h-0.848l-0.568-1.671H293.019z M295.043,269.478
			l-0.848-2.527h-0.016l-0.92,2.527H295.043z"/>
		<path d="M301.258,266.095h0.752v5.741h-0.871l-2.919-4.638h-0.016v4.638h-0.752v-5.741h0.92l2.87,4.638h0.016V266.095z"/>
		<path d="M303.268,266.095h2.327c1.495,0,2.414,1.136,2.414,2.791c0,1.287-0.56,2.95-2.446,2.95h-2.295V266.095z M304.044,271.172
			h1.504c1.007,0,1.663-0.791,1.663-2.238s-0.664-2.175-1.72-2.175h-1.447V271.172z"/>
	</g>
	<g>
		<path d="M294.619,284.086c-2.143,0-2.799-1.783-2.799-3.022s0.656-3.022,2.799-3.022s2.799,1.783,2.799,3.022
			S296.761,284.086,294.619,284.086z M294.619,278.729c-1.247,0-1.999,0.983-1.999,2.335c0,1.351,0.752,2.334,1.999,2.334
			s1.999-0.983,1.999-2.334C296.618,279.712,295.866,278.729,294.619,278.729z"/>
		<path d="M302.882,278.193v3.727c0,1.175-0.735,2.167-2.311,2.167c-1.544,0-2.207-0.992-2.207-2.063v-3.83h0.775v3.614
			c0,1.247,0.76,1.591,1.455,1.591c0.712,0,1.512-0.327,1.512-1.575v-3.63H302.882z"/>
		<path d="M303.621,278.193h4.661v0.688h-1.943v5.053h-0.775v-5.053h-1.942V278.193z"/>
	</g>
	<g>
		<path d="M321.504,271.836h-0.775v-5.741h2.654c0.943,0,1.887,0.328,1.887,1.544c0,0.847-0.432,1.159-0.8,1.375
			c0.328,0.136,0.656,0.279,0.688,1.079l0.048,1.04c0.009,0.319,0.049,0.439,0.288,0.575v0.128h-0.951
			c-0.112-0.352-0.136-1.224-0.136-1.439c0-0.472-0.096-1.023-1.023-1.023h-1.879V271.836z M321.504,268.71h1.799
			c0.567,0,1.167-0.145,1.167-0.992c0-0.887-0.647-0.959-1.031-0.959h-1.935V268.71z"/>
		<path d="M328.671,271.836h-0.751v-3.99h-1.312v-0.56c0.911-0.063,1.287-0.151,1.511-1.071h0.552V271.836z"/>
		<path d="M332.031,271.989c-1.615,0-1.927-1.72-1.927-2.887c0-1.168,0.312-2.887,1.927-2.887s1.927,1.719,1.927,2.887
			C333.958,270.269,333.646,271.989,332.031,271.989z M332.031,266.847c-0.808,0-1.175,0.848-1.175,2.255s0.367,2.255,1.175,2.255
			s1.176-0.848,1.176-2.255S332.839,266.847,332.031,266.847z"/>
		<path d="M336.478,271.989c-1.615,0-1.927-1.72-1.927-2.887c0-1.168,0.312-2.887,1.927-2.887s1.927,1.719,1.927,2.887
			C338.405,270.269,338.094,271.989,336.478,271.989z M336.478,266.847c-0.808,0-1.175,0.848-1.175,2.255s0.367,2.255,1.175,2.255
			s1.176-0.848,1.176-2.255S337.286,266.847,336.478,266.847z"/>
	</g>
	<g>
		<path d="M321.504,283.934h-0.775v-5.741h2.654c0.943,0,1.887,0.328,1.887,1.544c0,0.847-0.432,1.159-0.8,1.375
			c0.328,0.136,0.656,0.279,0.688,1.079l0.048,1.04c0.009,0.319,0.049,0.439,0.288,0.575v0.128h-0.951
			c-0.112-0.352-0.136-1.224-0.136-1.439c0-0.472-0.096-1.023-1.023-1.023h-1.879V283.934z M321.504,280.808h1.799
			c0.567,0,1.167-0.145,1.167-0.992c0-0.887-0.647-0.959-1.031-0.959h-1.935V280.808z"/>
		<path d="M326.976,280.664c0.239-0.184,0.583-0.352,1.087-0.352c0.911,0,1.847,0.64,1.847,1.799c0,0.624-0.279,1.976-2.038,1.976
			c-0.736,0-1.68-0.296-1.815-1.552h0.728c0.072,0.656,0.56,0.943,1.191,0.943c0.728,0,1.184-0.583,1.184-1.287
			c0-0.808-0.552-1.247-1.247-1.247c-0.408,0-0.776,0.191-1.04,0.535l-0.607-0.031l0.424-3.015h2.91v0.688h-2.383L326.976,280.664z"
			/>
		<path d="M332.47,284.086c-1.615,0-1.927-1.72-1.927-2.887c0-1.168,0.312-2.887,1.927-2.887s1.927,1.719,1.927,2.887
			C334.397,282.367,334.086,284.086,332.47,284.086z M332.47,278.945c-0.808,0-1.175,0.848-1.175,2.255s0.367,2.255,1.175,2.255
			s1.176-0.848,1.176-2.255S333.278,278.945,332.47,278.945z"/>
		<path d="M337.91,280.944c0.76,0.319,0.92,0.943,0.92,1.367c0,0.903-0.576,1.775-1.903,1.775c-0.312,0-0.903-0.08-1.351-0.433
			C335,283.199,335,282.59,335,282.319c0-0.688,0.36-1.127,0.951-1.367c-0.479-0.184-0.759-0.567-0.759-1.096
			c0-0.583,0.359-1.543,1.703-1.543c1.247,0,1.734,0.792,1.734,1.447C338.63,280.568,338.158,280.816,337.91,280.944z
			 M335.752,282.334c0,0.448,0.224,1.12,1.199,1.12c0.512,0,1.127-0.185,1.127-1.063c0-0.76-0.527-1.096-1.167-1.096
			C336.119,281.295,335.752,281.815,335.752,282.334z M337.902,279.785c0-0.344-0.224-0.84-1.047-0.84
			c-0.752,0-0.936,0.52-0.936,0.88c0,0.535,0.472,0.863,0.983,0.863C337.51,280.688,337.902,280.296,337.902,279.785z"/>
	</g>
	<g>
		<path d="M301.948,54.742v0.832H301.1v-0.832H301.948z"/>
		<path d="M301.948,50.774v0.832H301.1v-0.832H301.948z"/>
		<path d="M301.948,46.806v0.832H301.1v-0.832H301.948z"/>
	</g>
	<g>
		<path d="M301.948,212.372v0.832H301.1v-0.832H301.948z"/>
		<path d="M301.948,208.404v0.832H301.1v-0.832H301.948z"/>
		<path d="M301.948,204.436v0.832H301.1v-0.832H301.948z"/>
	</g>
	<line class="st3" x1="320.024" y1="16.119" x2="371.557" y2="16.119"/>
	<line class="st3" x1="320.024" y1="40.414" x2="371.557" y2="40.414"/>
	<line class="st3" x1="320.024" y1="73.919" x2="371.557" y2="73.919"/>
	<line class="st3" x1="320.024" y1="95.264" x2="371.557" y2="95.264"/>
	<line class="st3" x1="320.024" y1="172.749" x2="371.557" y2="172.749"/>
	<line class="st3" x1="320.024" y1="221.136" x2="371.557" y2="221.136"/>
	<line class="st3" x1="320.024" y1="139.626" x2="371.557" y2="139.626"/>
	<line class="st3" x1="320.024" y1="256.62" x2="371.557" y2="256.62"/>
	<g>
		<path d="M376.127,14.357l-1.079-0.568l0.199-0.335l1.031,0.615l-0.016-1.143h0.392l-0.023,1.143l1.031-0.615l0.2,0.335
			l-1.072,0.568l1.072,0.567l-0.2,0.336l-1.031-0.624l0.023,1.151h-0.392l0.016-1.151l-1.031,0.624l-0.199-0.336L376.127,14.357z"/>
		<path d="M380.83,12.926h0.527v6.252h-0.535v-5.669l-1.271,0.864l-0.072-0.52L380.83,12.926z"/>
	</g>
	<g>
		<path d="M376.127,38.555l-1.079-0.568l0.199-0.335l1.031,0.615l-0.016-1.143h0.392l-0.023,1.143l1.031-0.615l0.2,0.335
			l-1.072,0.568l1.072,0.567l-0.2,0.336l-1.031-0.624l0.023,1.151h-0.392l0.016-1.151l-1.031,0.624l-0.199-0.336L376.127,38.555z"/>
		<path d="M382.957,42.905v0.472h-4.27c0.575-0.568,1.575-1.559,2.406-2.551c0.712-0.847,1.048-1.391,1.048-2.071
			c0-0.744-0.528-1.287-1.271-1.287c-0.704,0-1.256,0.384-1.623,1.007l-0.216-0.543c0.688-0.936,1.631-0.936,1.814-0.936
			c0.815,0,1.823,0.488,1.823,1.743c0,0.656-0.224,1.2-0.863,1.991c-0.312,0.392-0.943,1.111-1.967,2.175H382.957z"/>
	</g>
	<g>
		<path d="M376.127,72.352l-1.079-0.568l0.199-0.335l1.031,0.615l-0.016-1.143h0.392l-0.023,1.143l1.031-0.615l0.2,0.335
			l-1.072,0.568l1.072,0.567l-0.2,0.336l-1.031-0.624l0.023,1.151h-0.392l0.016-1.151l-1.031,0.624l-0.199-0.336L376.127,72.352z"/>
		<path d="M378.886,76.373c0.521,0.32,1.096,0.456,1.703,0.456c1.384,0,1.863-0.8,1.863-1.439c0-0.399-0.208-1.319-1.895-1.319
			h-0.424v-0.456h0.432c0.768,0,1.479-0.44,1.479-1.223c0-0.776-0.655-1.127-1.319-1.127c-0.863,0-1.375,0.503-1.535,0.656
			l-0.191-0.464c0.52-0.424,1.079-0.664,1.735-0.664c0.951,0,1.831,0.56,1.831,1.575c0,0.384-0.145,1.087-1.072,1.431
			c1.176,0.248,1.479,1.071,1.479,1.639c0,0.832-0.615,1.863-2.383,1.863c-0.879,0-1.471-0.264-1.854-0.456L378.886,76.373z"/>
	</g>
	<g>
		<path d="M376.127,93.728l-1.079-0.568l0.199-0.335l1.031,0.615l-0.016-1.143h0.392l-0.023,1.143l1.031-0.615l0.2,0.335
			l-1.072,0.568l1.072,0.567l-0.2,0.336l-1.031-0.624l0.023,1.151h-0.392l0.016-1.151l-1.031,0.624l-0.199-0.336L376.127,93.728z"/>
		<path d="M381.693,98.549v-1.455h-3.03v-0.456l2.99-4.341h0.56v4.341h0.888v0.456h-0.888v1.455H381.693z M379.215,96.638h2.479
			v-3.606L379.215,96.638z"/>
	</g>
	<g>
		<path d="M376.127,138.908l-1.079-0.568l0.199-0.335l1.031,0.615l-0.016-1.143h0.392l-0.023,1.143l1.031-0.615l0.2,0.335
			l-1.072,0.568l1.072,0.567l-0.2,0.336l-1.031-0.624l0.023,1.151h-0.392l0.016-1.151l-1.031,0.624l-0.199-0.336L376.127,138.908z"
			/>
		<path d="M382.413,137.949h-2.774v2.231c0.192-0.096,0.544-0.288,1.159-0.288c1.279,0,2.143,0.824,2.143,1.951
			c0,1.119-0.863,2.015-2.358,2.015c-0.64,0-1.271-0.168-1.831-0.472l0.152-0.464c0.735,0.464,1.463,0.464,1.646,0.464
			c1.279,0,1.871-0.728,1.871-1.551c0-0.896-0.68-1.479-1.646-1.479c-0.408,0-0.816,0.112-1.136,0.368h-0.479v-3.246h3.254V137.949z
			"/>
	</g>
	<g>
		<path d="M376.127,170.97l-1.079-0.568l0.199-0.335l1.031,0.615l-0.016-1.143h0.392l-0.023,1.143l1.031-0.615l0.2,0.335
			l-1.072,0.568l1.072,0.567l-0.2,0.336l-1.031-0.624l0.023,1.151h-0.392l0.016-1.151l-1.031,0.624l-0.199-0.336L376.127,170.97z"/>
		<path d="M381.949,169.898c-1.239-0.128-2.574,0.783-2.75,2.926c0.552-0.904,1.375-1.007,1.814-1.007
			c1.151,0,2.031,0.799,2.031,1.999c0,1.319-0.991,2.103-2.103,2.103c-1.08,0-2.247-0.728-2.247-2.758
			c0-2.087,1.224-3.75,2.998-3.75c0.104,0,0.152,0.008,0.256,0.016V169.898z M380.981,172.289c-0.791,0-1.679,0.512-1.679,1.511
			c0,0.839,0.592,1.647,1.631,1.647c0.855,0,1.583-0.568,1.583-1.591C382.516,172.665,381.637,172.289,380.981,172.289z"/>
	</g>
	<g>
		<path d="M376.127,221.345l-1.079-0.567l0.199-0.336l1.031,0.615l-0.016-1.143h0.392l-0.023,1.143l1.031-0.615l0.2,0.336
			l-1.072,0.567l1.072,0.567l-0.2,0.336l-1.031-0.623l0.023,1.151h-0.392l0.016-1.151l-1.031,0.623l-0.199-0.336L376.127,221.345z"
			/>
		<path d="M383.045,219.915v0.552l-3.311,5.7h-0.575l3.374-5.78h-3.838v-0.472H383.045z"/>
	</g>
	<g>
		<path d="M376.127,254.779l-1.079-0.567l0.199-0.336l1.031,0.615l-0.016-1.143h0.392l-0.023,1.143l1.031-0.615l0.2,0.336
			l-1.072,0.567l1.072,0.567l-0.2,0.336l-1.031-0.623l0.023,1.151h-0.392l0.016-1.151l-1.031,0.623l-0.199-0.336L376.127,254.779z"
			/>
		<path d="M383.02,257.786c0,1.183-0.991,1.942-2.15,1.942c-1.168,0-2.151-0.76-2.151-1.942c0-0.344,0.072-1.224,1.168-1.703
			c-0.528-0.256-0.792-0.8-0.792-1.304c0-0.695,0.496-1.559,1.775-1.559c1.271,0,1.775,0.847,1.775,1.559
			c0,0.504-0.265,1.048-0.792,1.304C382.645,256.41,383.02,257.074,383.02,257.786z M382.493,257.769c0-0.6-0.392-1.391-1.623-1.391
			s-1.623,0.791-1.623,1.391c0,0.815,0.647,1.487,1.623,1.487S382.493,258.584,382.493,257.769z M382.125,254.803
			c0-0.608-0.415-1.12-1.255-1.12c-0.848,0-1.256,0.521-1.256,1.12c0,0.623,0.44,1.104,1.256,1.104
			C381.693,255.907,382.125,255.411,382.125,254.803z"/>
	</g>
</g>
<g id="レイヤー_2">
</g>
</svg>
