<?xml version="1.0" encoding="utf-8"?>
<!-- Generator: Adobe Illustrator 28.2.0, SVG Export Plug-In . SVG Version: 6.00 Build 0)  -->
<svg version="1.1" id="儗僀儎乕1" xmlns="http://www.w3.org/2000/svg" xmlns:xlink="http://www.w3.org/1999/xlink" x="0px"
	 y="0px" width="511.236px" height="177.625px" viewBox="0 0 511.236 177.625" style="enable-background:new 0 0 511.236 177.625;"
	 xml:space="preserve">
<style type="text/css">
	.st0{fill:none;stroke:#000000;}
	.st1{fill:#FFFFFF;}
	.st2{fill:#FFFFFF;stroke:#000000;}
</style>
<rect x="66.758" y="8.498" class="st0" width="35.529" height="35.529"/>
<rect x="67.215" y="69.366" class="st0" width="35.529" height="35.529"/>
<rect x="67.215" y="129.558" class="st0" width="35.529" height="35.529"/>
<line class="st0" x1="101.395" y1="26.098" x2="510.736" y2="26.098"/>
<line class="st0" x1="66.555" y1="26.098" x2="101.395" y2="26.098"/>
<line class="st0" x1="0.5" y1="26.098" x2="66.555" y2="26.098"/>
<line class="st0" x1="102.913" y1="86.801" x2="510.736" y2="86.801"/>
<polyline class="st0" points="102.407,147.501 84.729,147.501 84.729,86.801 102.913,86.801 "/>
<line class="st0" x1="510.736" y1="147.501" x2="102.407" y2="147.501"/>
<line class="st0" x1="0.5" y1="0" x2="0.5" y2="174.339"/>
<line class="st0" x1="510.736" y1="0" x2="510.736" y2="174.339"/>
<g>
	<rect x="35.103" y="19.176" class="st1" width="13.841" height="13.844"/>
	<line class="st0" x1="48.944" y1="19.176" x2="48.944" y2="33.02"/>
	<line class="st0" x1="35.103" y1="33.02" x2="35.103" y2="19.176"/>
</g>
<g>
	<rect x="118.149" y="19.176" class="st1" width="13.842" height="13.844"/>
	<line class="st0" x1="131.99" y1="19.176" x2="131.99" y2="33.02"/>
	<line class="st0" x1="118.149" y1="33.02" x2="118.149" y2="19.176"/>
</g>
<g>
	<rect x="118.149" y="79.878" class="st1" width="13.842" height="13.843"/>
	<line class="st0" x1="131.99" y1="79.878" x2="131.99" y2="93.721"/>
	<line class="st0" x1="118.149" y1="93.721" x2="118.149" y2="79.878"/>
</g>
<g>
	<rect x="118.149" y="140.632" class="st1" width="13.842" height="13.843"/>
	<line class="st0" x1="131.99" y1="140.632" x2="131.99" y2="154.475"/>
	<line class="st0" x1="118.149" y1="154.475" x2="118.149" y2="140.632"/>
</g>
<path class="st2" d="M476.135,147.499c0,3.824-3.1,6.923-6.924,6.923c-3.819,0-6.919-3.098-6.919-6.923
	c0-3.821,3.099-6.919,6.919-6.919C473.035,140.58,476.135,143.678,476.135,147.499z"/>
<path class="st2" d="M476.135,86.325c0,3.824-3.1,6.924-6.924,6.924c-3.819,0-6.919-3.099-6.919-6.924
	c0-3.82,3.099-6.919,6.919-6.919C473.035,79.406,476.135,82.506,476.135,86.325z"/>
<path class="st2" d="M476.135,25.249c0,3.824-3.1,6.924-6.924,6.924c-3.819,0-6.919-3.099-6.919-6.924
	c0-3.82,3.099-6.919,6.919-6.919C473.035,18.33,476.135,21.429,476.135,25.249z"/>
<line class="st0" x1="84.675" y1="25.758" x2="84.675" y2="86.801"/>
<g>
	<path d="M43.959,57.062v-3.39c0-0.168,0.016-0.896,0.016-1.431h-0.016l-1.615,4.821h-0.768l-1.615-4.813h-0.016
		c0,0.528,0.016,1.255,0.016,1.423v3.39H39.21v-5.741h1.112l1.639,4.853h0.016l1.631-4.853h1.103v5.741H43.959z"/>
	<path d="M46.754,57.062h-0.776v-5.741h2.583c1.063,0,1.703,0.688,1.703,1.615c0,0.799-0.456,1.703-1.703,1.703h-1.807V57.062z
		 M46.754,53.976h1.543c0.696,0,1.167-0.256,1.167-1.031c0-0.728-0.496-0.959-1.136-0.959h-1.575V53.976z"/>
	<path d="M54.696,53c-0.04-0.887-0.776-1.167-1.423-1.167c-0.488,0-1.311,0.136-1.311,1.007c0,0.488,0.344,0.647,0.679,0.728
		l1.639,0.376c0.744,0.176,1.303,0.624,1.303,1.535c0,1.359-1.263,1.735-2.247,1.735c-1.063,0-1.479-0.32-1.735-0.552
		c-0.488-0.439-0.584-0.919-0.584-1.455h0.728c0,1.04,0.848,1.343,1.583,1.343c0.56,0,1.503-0.144,1.503-0.967
		c0-0.6-0.28-0.792-1.223-1.016l-1.175-0.272c-0.376-0.088-1.224-0.352-1.224-1.351c0-0.896,0.584-1.775,1.975-1.775
		c2.007,0,2.207,1.199,2.239,1.831H54.696z"/>
</g>
<g>
	<path d="M42.014,116.738v-3.39c0-0.168,0.016-0.896,0.016-1.431h-0.016l-1.615,4.821h-0.768l-1.615-4.813H38
		c0,0.528,0.016,1.255,0.016,1.423v3.39h-0.752v-5.741h1.112l1.639,4.853h0.016l1.631-4.853h1.103v5.741H42.014z"/>
	<path d="M44.824,116.738h-0.775v-5.741h2.655c0.943,0,1.887,0.328,1.887,1.543c0,0.848-0.432,1.159-0.8,1.375
		c0.328,0.136,0.656,0.28,0.688,1.079l0.048,1.04c0.008,0.32,0.048,0.44,0.288,0.576v0.128h-0.951
		c-0.112-0.352-0.136-1.223-0.136-1.439c0-0.472-0.096-1.023-1.023-1.023h-1.879V116.738z M44.824,113.611h1.799
		c0.567,0,1.167-0.144,1.167-0.991c0-0.888-0.647-0.959-1.031-0.959h-1.935V113.611z"/>
	<path d="M49.768,110.997h2.327c1.496,0,2.415,1.135,2.415,2.791c0,1.287-0.56,2.95-2.447,2.95h-2.295V110.997z M50.544,116.074
		h1.503c1.008,0,1.663-0.792,1.663-2.239s-0.664-2.175-1.719-2.175h-1.447V116.074z"/>
</g>
<g>
	<path d="M41.705,175.825v-3.391c0-0.167,0.016-0.895,0.016-1.431h-0.016l-1.615,4.821h-0.768l-1.615-4.813h-0.016
		c0,0.528,0.016,1.256,0.016,1.423v3.391h-0.752v-5.741h1.112l1.639,4.854h0.016l1.631-4.854h1.103v5.741H41.705z"/>
	<path d="M44.499,175.825h-0.776v-5.741h2.583c1.063,0,1.703,0.688,1.703,1.615c0,0.8-0.456,1.703-1.703,1.703h-1.807V175.825z
		 M44.499,172.739h1.543c0.696,0,1.167-0.256,1.167-1.032c0-0.728-0.496-0.959-1.136-0.959h-1.575V172.739z"/>
	<path d="M49.835,175.825h-0.776v-5.741h2.583c1.063,0,1.703,0.688,1.703,1.615c0,0.8-0.456,1.703-1.703,1.703h-1.807V175.825z
		 M49.835,172.739h1.543c0.696,0,1.167-0.256,1.167-1.032c0-0.728-0.496-0.959-1.136-0.959h-1.575V172.739z"/>
</g>
<g>
	<path d="M64.311,49.897l-0.552-0.955l-4.258,2.459l-0.24-0.416l4.259-2.459l-0.552-0.955l2.638,0.028L64.311,49.897z"/>
</g>
<g>
	<path d="M63.246,110.184l-0.552-0.955l-4.259,2.459l-0.24-0.415l4.259-2.459l-0.552-0.956l2.639,0.028L63.246,110.184z"/>
</g>
<g>
	<path d="M62.056,169.27l-0.552-0.955l-4.259,2.459l-0.239-0.416l4.259-2.459l-0.552-0.955l2.638,0.028L62.056,169.27z"/>
</g>
</svg>
