<?xml version="1.0" encoding="utf-8"?>
<!-- Generator: Adobe Illustrator 28.2.0, SVG Export Plug-In . SVG Version: 6.00 Build 0)  -->
<svg version="1.1" id="レイヤー1" xmlns="http://www.w3.org/2000/svg" xmlns:xlink="http://www.w3.org/1999/xlink" x="0px"
	 y="0px" width="275.026px" height="216.303px" viewBox="0 0 275.026 216.303" style="enable-background:new 0 0 275.026 216.303;"
	 xml:space="preserve">
<style type="text/css">
	.st0{fill:none;stroke:#000000;}
	.st1{fill:#FFFFFF;}
	.st2{fill:#FFFFFF;stroke:#000000;}
	.st3{fill:none;stroke:#000000;stroke-linecap:round;stroke-linejoin:round;stroke-dasharray:0.5,4;}
</style>
<g>
	<path d="M164.405,8.134h2.911v0.688h-3.687V3.081h0.775V8.134z"/>
	<path d="M168.117,3.081h2.327c1.495,0,2.414,1.135,2.414,2.791c0,1.287-0.56,2.95-2.446,2.95h-2.295V3.081z M168.893,8.158h1.504
		c1.007,0,1.663-0.792,1.663-2.239s-0.664-2.175-1.72-2.175h-1.447V8.158z"/>
</g>
<g>
	<path d="M169.138,20.998h-1.119V16.2h-0.016l-1.071,4.797h-1.176l-1.047-4.797h-0.017v4.797h-1.119v-5.741h1.751l1.039,4.525h0.017
		l1.023-4.525h1.734V20.998z"/>
	<path d="M171.492,20.998h-1.199v-5.741h2.623c1.111,0,1.783,0.711,1.783,1.839c0,0.52-0.288,1.831-1.831,1.831h-1.376V20.998z
		 M172.604,17.935c0.896,0,0.896-0.64,0.896-0.896c0-0.56-0.312-0.792-1.055-0.792h-0.952v1.687H172.604z"/>
	<path d="M176.485,19.23c0.008,0.32,0.168,0.928,1.216,0.928c0.567,0,1.199-0.136,1.199-0.744c0-0.448-0.432-0.568-1.039-0.712
		l-0.616-0.144c-0.928-0.216-1.823-0.424-1.823-1.688c0-0.64,0.344-1.767,2.207-1.767c1.759,0,2.23,1.151,2.239,1.855h-1.151
		c-0.032-0.256-0.128-0.864-1.176-0.864c-0.456,0-0.999,0.168-0.999,0.688c0,0.448,0.367,0.544,0.607,0.6l1.399,0.344
		c0.783,0.192,1.503,0.512,1.503,1.543c0,1.727-1.759,1.879-2.263,1.879c-2.095,0-2.455-1.208-2.455-1.919H176.485z"/>
</g>
<g>
	<path d="M166.132,33.171c-2.143,0-2.799-1.783-2.799-3.022s0.656-3.022,2.799-3.022s2.799,1.783,2.799,3.022
		S168.275,33.171,166.132,33.171z M166.132,27.814c-1.247,0-1.999,0.983-1.999,2.334c0,1.352,0.752,2.335,1.999,2.335
		s1.999-0.983,1.999-2.335C168.131,28.798,167.379,27.814,166.132,27.814z"/>
	<path d="M174.395,27.279v3.726c0,1.176-0.736,2.167-2.311,2.167c-1.544,0-2.207-0.991-2.207-2.063v-3.83h0.775v3.614
		c0,1.248,0.76,1.591,1.455,1.591c0.712,0,1.512-0.328,1.512-1.575v-3.63H174.395z"/>
	<path d="M175.134,27.279h4.661v0.688h-1.943v5.053h-0.775v-5.053h-1.942V27.279z"/>
</g>
<g>
	<path d="M164.532,55.546l-0.6,1.671h-0.799l2.158-5.741h0.88l2.079,5.741h-0.848l-0.568-1.671H164.532z M166.556,54.858
		l-0.848-2.526h-0.016l-0.92,2.526H166.556z"/>
	<path d="M172.772,51.477h0.751v5.741h-0.871l-2.919-4.638h-0.016v4.638h-0.752v-5.741h0.92l2.87,4.637h0.017V51.477z"/>
	<path d="M174.781,51.477h2.327c1.495,0,2.414,1.135,2.414,2.791c0,1.287-0.56,2.95-2.446,2.95h-2.295V51.477z M175.556,56.554
		h1.504c1.007,0,1.663-0.792,1.663-2.239s-0.664-2.175-1.72-2.175h-1.447V56.554z"/>
</g>
<g>
	<path d="M169.138,45.195h-1.119v-4.797h-0.016l-1.071,4.797h-1.176l-1.047-4.797h-0.017v4.797h-1.119v-5.741h1.751l1.039,4.525
		h0.017l1.023-4.525h1.734V45.195z"/>
	<path d="M170.293,39.455h2.902c1.527,0,1.808,1.127,1.808,1.623c0,0.632-0.32,1.175-0.888,1.367
		c0.472,0.208,0.728,0.384,0.728,1.455c0,0.84,0,1.047,0.256,1.144v0.152h-1.327c-0.08-0.272-0.128-0.568-0.128-1.159
		c0-0.784-0.048-1.087-0.936-1.087h-1.239v2.247h-1.176V39.455z M172.876,41.981c0.623,0,0.928-0.216,0.928-0.783
		c0-0.304-0.137-0.752-0.84-0.752h-1.495v1.535H172.876z"/>
	<path d="M176.069,39.455h2.535c1.935,0,2.334,1.647,2.334,2.734c0,1.231-0.487,3.006-2.382,3.006h-2.487V39.455z M177.244,44.204
		h1.167c0.976,0,1.304-0.983,1.304-1.927c0-1.695-0.808-1.831-1.319-1.831h-1.151V44.204z"/>
</g>
<g>
	<path d="M166.132,69.468c-2.143,0-2.799-1.783-2.799-3.022s0.656-3.022,2.799-3.022s2.799,1.783,2.799,3.022
		S168.275,69.468,166.132,69.468z M166.132,64.111c-1.247,0-1.999,0.983-1.999,2.334c0,1.352,0.752,2.335,1.999,2.335
		s1.999-0.983,1.999-2.335C168.131,65.095,167.379,64.111,166.132,64.111z"/>
	<path d="M174.395,63.576v3.726c0,1.176-0.736,2.167-2.311,2.167c-1.544,0-2.207-0.991-2.207-2.063v-3.83h0.775v3.614
		c0,1.248,0.76,1.591,1.455,1.591c0.712,0,1.512-0.328,1.512-1.575v-3.63H174.395z"/>
	<path d="M175.134,63.576h4.661v0.688h-1.943v5.053h-0.775v-5.053h-1.942V63.576z"/>
</g>
<g>
	<path d="M169.138,81.492h-1.119v-4.797h-0.016l-1.071,4.797h-1.176l-1.047-4.797h-0.017v4.797h-1.119v-5.741h1.751l1.039,4.525
		h0.017l1.023-4.525h1.734V81.492z"/>
	<path d="M170.293,75.751h2.902c1.527,0,1.808,1.127,1.808,1.623c0,0.631-0.32,1.175-0.888,1.367
		c0.472,0.208,0.728,0.384,0.728,1.455c0,0.84,0,1.047,0.256,1.144v0.152h-1.327c-0.08-0.272-0.128-0.568-0.128-1.159
		c0-0.784-0.048-1.087-0.936-1.087h-1.239v2.247h-1.176V75.751z M172.876,78.277c0.623,0,0.928-0.216,0.928-0.784
		c0-0.304-0.137-0.751-0.84-0.751h-1.495v1.535H172.876z"/>
	<path d="M176.069,75.751h2.535c1.935,0,2.334,1.647,2.334,2.734c0,1.231-0.487,3.006-2.382,3.006h-2.487V75.751z M177.244,80.5
		h1.167c0.976,0,1.304-0.984,1.304-1.927c0-1.695-0.808-1.831-1.319-1.831h-1.151V80.5z"/>
</g>
<g>
	<path d="M164.532,91.843l-0.6,1.671h-0.799l2.158-5.741h0.88l2.079,5.741h-0.848l-0.568-1.671H164.532z M166.556,91.155
		l-0.848-2.526h-0.016l-0.92,2.526H166.556z"/>
	<path d="M172.772,87.773h0.751v5.741h-0.871l-2.919-4.637h-0.016v4.637h-0.752v-5.741h0.92l2.87,4.637h0.017V87.773z"/>
	<path d="M174.781,87.773h2.327c1.495,0,2.414,1.135,2.414,2.791c0,1.287-0.56,2.95-2.446,2.95h-2.295V87.773z M175.556,92.85h1.504
		c1.007,0,1.663-0.792,1.663-2.239s-0.664-2.175-1.72-2.175h-1.447V92.85z"/>
</g>
<g>
	<path d="M166.132,105.765c-2.143,0-2.799-1.783-2.799-3.022c0-1.239,0.656-3.022,2.799-3.022s2.799,1.783,2.799,3.022
		C168.931,103.982,168.275,105.765,166.132,105.765z M166.132,100.408c-1.247,0-1.999,0.983-1.999,2.334
		c0,1.352,0.752,2.335,1.999,2.335s1.999-0.983,1.999-2.335C168.131,101.391,167.379,100.408,166.132,100.408z"/>
	<path d="M174.395,99.872v3.726c0,1.175-0.736,2.167-2.311,2.167c-1.544,0-2.207-0.991-2.207-2.063v-3.83h0.775v3.614
		c0,1.248,0.76,1.591,1.455,1.591c0.712,0,1.512-0.328,1.512-1.575v-3.63H174.395z"/>
	<path d="M175.134,99.872h4.661v0.688h-1.943v5.053h-0.775v-5.053h-1.942V99.872z"/>
</g>
<g>
	<path d="M169.138,117.79h-1.119v-4.798h-0.016l-1.071,4.798h-1.176l-1.047-4.798h-0.017v4.798h-1.119v-5.741h1.751l1.039,4.525
		h0.017l1.023-4.525h1.734V117.79z"/>
	<path d="M170.293,112.048h2.902c1.527,0,1.808,1.128,1.808,1.623c0,0.632-0.32,1.176-0.888,1.367
		c0.472,0.208,0.728,0.385,0.728,1.456c0,0.839,0,1.047,0.256,1.143v0.152h-1.327c-0.08-0.271-0.128-0.567-0.128-1.159
		c0-0.784-0.048-1.088-0.936-1.088h-1.239v2.247h-1.176V112.048z M172.876,114.576c0.623,0,0.928-0.216,0.928-0.784
		c0-0.304-0.137-0.751-0.84-0.751h-1.495v1.535H172.876z"/>
	<path d="M176.069,112.048h2.535c1.935,0,2.334,1.647,2.334,2.734c0,1.231-0.487,3.007-2.382,3.007h-2.487V112.048z
		 M177.244,116.798h1.167c0.976,0,1.304-0.983,1.304-1.927c0-1.695-0.808-1.831-1.319-1.831h-1.151V116.798z"/>
</g>
<g>
	<path d="M164.532,128.14l-0.6,1.671h-0.799l2.158-5.741h0.88l2.079,5.741h-0.848l-0.568-1.671H164.532z M166.556,127.453
		l-0.848-2.527h-0.016l-0.92,2.527H166.556z"/>
	<path d="M172.772,124.07h0.751v5.741h-0.871l-2.919-4.638h-0.016v4.638h-0.752v-5.741h0.92l2.87,4.638h0.017V124.07z"/>
	<path d="M174.781,124.07h2.327c1.495,0,2.414,1.136,2.414,2.791c0,1.287-0.56,2.95-2.446,2.95h-2.295V124.07z M175.556,129.147
		h1.504c1.007,0,1.663-0.791,1.663-2.238s-0.664-2.175-1.72-2.175h-1.447V129.147z"/>
</g>
<g>
	<path d="M169.138,154.085h-1.119v-4.797h-0.016l-1.071,4.797h-1.176l-1.047-4.797h-0.017v4.797h-1.119v-5.741h1.751l1.039,4.526
		h0.017l1.023-4.526h1.734V154.085z"/>
	<path d="M170.293,148.344h2.902c1.527,0,1.808,1.128,1.808,1.623c0,0.632-0.32,1.176-0.888,1.368
		c0.472,0.207,0.728,0.383,0.728,1.455c0,0.839,0,1.047,0.256,1.143v0.152h-1.327c-0.08-0.271-0.128-0.567-0.128-1.159
		c0-0.784-0.048-1.088-0.936-1.088h-1.239v2.247h-1.176V148.344z M172.876,150.872c0.623,0,0.928-0.216,0.928-0.784
		c0-0.304-0.137-0.751-0.84-0.751h-1.495v1.535H172.876z"/>
	<path d="M176.069,148.344h2.535c1.935,0,2.334,1.647,2.334,2.735c0,1.23-0.487,3.006-2.382,3.006h-2.487V148.344z M177.244,153.094
		h1.167c0.976,0,1.304-0.983,1.304-1.927c0-1.695-0.808-1.831-1.319-1.831h-1.151V153.094z"/>
</g>
<g>
	<path d="M166.132,142.062c-2.143,0-2.799-1.783-2.799-3.022s0.656-3.022,2.799-3.022s2.799,1.783,2.799,3.022
		S168.275,142.062,166.132,142.062z M166.132,136.705c-1.247,0-1.999,0.983-1.999,2.335c0,1.351,0.752,2.334,1.999,2.334
		s1.999-0.983,1.999-2.334C168.131,137.688,167.379,136.705,166.132,136.705z"/>
	<path d="M174.395,136.168v3.727c0,1.175-0.736,2.167-2.311,2.167c-1.544,0-2.207-0.992-2.207-2.063v-3.83h0.775v3.614
		c0,1.247,0.76,1.591,1.455,1.591c0.712,0,1.512-0.327,1.512-1.575v-3.63H174.395z"/>
	<path d="M175.134,136.168h4.661v0.688h-1.943v5.053h-0.775v-5.053h-1.942V136.168z"/>
</g>
<g>
	<path d="M169.138,190.382h-1.119v-4.797h-0.016l-1.071,4.797h-1.176l-1.047-4.797h-0.017v4.797h-1.119v-5.741h1.751l1.039,4.526
		h0.017l1.023-4.526h1.734V190.382z"/>
	<path d="M171.492,190.382h-1.199v-5.741h2.623c1.111,0,1.783,0.712,1.783,1.839c0,0.521-0.288,1.831-1.831,1.831h-1.376V190.382z
		 M172.604,187.32c0.896,0,0.896-0.64,0.896-0.896c0-0.56-0.312-0.791-1.055-0.791h-0.952v1.687H172.604z"/>
	<path d="M176.828,190.382h-1.199v-5.741h2.623c1.111,0,1.783,0.712,1.783,1.839c0,0.521-0.288,1.831-1.831,1.831h-1.376V190.382z
		 M177.94,187.32c0.896,0,0.896-0.64,0.896-0.896c0-0.56-0.312-0.791-1.055-0.791h-0.952v1.687H177.94z"/>
</g>
<g>
	<path d="M164.532,200.734l-0.6,1.671h-0.799l2.158-5.741h0.88l2.079,5.741h-0.848l-0.568-1.671H164.532z M166.556,200.046
		l-0.848-2.527h-0.016l-0.92,2.527H166.556z"/>
	<path d="M172.772,196.664h0.751v5.741h-0.871l-2.919-4.638h-0.016v4.638h-0.752v-5.741h0.92l2.87,4.638h0.017V196.664z"/>
	<path d="M174.781,196.664h2.327c1.495,0,2.414,1.136,2.414,2.791c0,1.287-0.56,2.95-2.446,2.95h-2.295V196.664z M175.556,201.741
		h1.504c1.007,0,1.663-0.791,1.663-2.238s-0.664-2.175-1.72-2.175h-1.447V201.741z"/>
</g>
<g>
	<path d="M166.132,214.656c-2.143,0-2.799-1.783-2.799-3.022s0.656-3.022,2.799-3.022s2.799,1.783,2.799,3.022
		S168.275,214.656,166.132,214.656z M166.132,209.298c-1.247,0-1.999,0.983-1.999,2.335c0,1.351,0.752,2.334,1.999,2.334
		s1.999-0.983,1.999-2.334C168.131,210.282,167.379,209.298,166.132,209.298z"/>
	<path d="M174.395,208.762v3.727c0,1.175-0.736,2.167-2.311,2.167c-1.544,0-2.207-0.992-2.207-2.063v-3.83h0.775v3.614
		c0,1.247,0.76,1.591,1.455,1.591c0.712,0,1.512-0.327,1.512-1.575v-3.63H174.395z"/>
	<path d="M175.134,208.762h4.661v0.688h-1.943v5.053h-0.775v-5.053h-1.942V208.762z"/>
</g>
<line class="st0" x1="0.5" y1="202.362" x2="0.5" y2="1.468"/>
<line class="st0" x1="43.034" y1="190.799" x2="43.034" y2="12.979"/>
<line class="st0" x1="135.145" y1="202.362" x2="135.145" y2="1.468"/>
<line class="st0" x1="43.034" y1="190.327" x2="135.198" y2="190.327"/>
<line class="st0" x1="43.034" y1="154.895" x2="135.198" y2="154.895"/>
<line class="st0" x1="43.034" y1="119.462" x2="135.198" y2="119.462"/>
<line class="st0" x1="43.034" y1="84.029" x2="135.198" y2="84.029"/>
<line class="st0" x1="43.034" y1="48.596" x2="135.198" y2="48.596"/>
<line class="st0" x1="0.552" y1="13.163" x2="135.198" y2="13.163"/>
<g>
	<rect x="18.215" y="9.625" class="st1" width="7.087" height="7.087"/>
	<line class="st0" x1="25.302" y1="9.625" x2="25.302" y2="16.712"/>
	<line class="st0" x1="18.215" y1="16.712" x2="18.215" y2="9.625"/>
</g>
<path class="st2" d="M116.328,13.104c0,1.957-1.584,3.544-3.542,3.544c-1.958,0-3.544-1.586-3.544-3.544
	c0-1.957,1.586-3.543,3.544-3.543C114.743,9.561,116.328,11.147,116.328,13.104z"/>
<path class="st2" d="M116.328,48.538c0,1.958-1.584,3.544-3.542,3.544c-1.958,0-3.544-1.586-3.544-3.544
	c0-1.957,1.586-3.543,3.544-3.543C114.743,44.994,116.328,46.581,116.328,48.538z"/>
<g>
	<path d="M104.615,6.64h-0.775V0.899h2.654c0.944,0,1.887,0.328,1.887,1.543c0,0.848-0.432,1.16-0.799,1.375
		c0.328,0.136,0.655,0.28,0.688,1.079l0.048,1.04c0.008,0.32,0.048,0.44,0.288,0.576V6.64h-0.952
		c-0.112-0.352-0.136-1.223-0.136-1.439c0-0.472-0.096-1.023-1.023-1.023h-1.879V6.64z M104.615,3.514h1.799
		c0.567,0,1.167-0.144,1.167-0.991c0-0.888-0.648-0.959-1.032-0.959h-1.935V3.514z"/>
	<path d="M110.087,3.37c0.24-0.184,0.583-0.352,1.087-0.352c0.912,0,1.847,0.64,1.847,1.799c0,0.624-0.28,1.975-2.039,1.975
		c-0.735,0-1.679-0.296-1.815-1.551h0.728c0.072,0.656,0.56,0.944,1.191,0.944c0.728,0,1.184-0.584,1.184-1.288
		c0-0.808-0.552-1.247-1.248-1.247c-0.408,0-0.775,0.192-1.04,0.536l-0.607-0.032l0.424-3.014h2.91v0.688h-2.383L110.087,3.37z"/>
	<path d="M115.582,6.792c-1.615,0-1.927-1.719-1.927-2.886c0-1.167,0.312-2.887,1.927-2.887s1.927,1.719,1.927,2.887
		C117.51,5.073,117.198,6.792,115.582,6.792z M115.582,1.651c-0.808,0-1.175,0.848-1.175,2.255s0.368,2.255,1.175,2.255
		s1.175-0.848,1.175-2.255S116.39,1.651,115.582,1.651z"/>
	<path d="M120.03,6.792c-1.615,0-1.927-1.719-1.927-2.886c0-1.167,0.312-2.887,1.927-2.887c1.615,0,1.927,1.719,1.927,2.887
		C121.957,5.073,121.645,6.792,120.03,6.792z M120.03,1.651c-0.808,0-1.175,0.848-1.175,2.255s0.368,2.255,1.175,2.255
		s1.175-0.848,1.175-2.255S120.838,1.651,120.03,1.651z"/>
</g>
<g>
	<path d="M104.915,42.335h-0.775v-5.741h2.655c0.943,0,1.887,0.328,1.887,1.543c0,0.848-0.432,1.16-0.8,1.375
		c0.328,0.136,0.656,0.28,0.688,1.079l0.048,1.04c0.008,0.32,0.048,0.44,0.288,0.576v0.128h-0.951
		c-0.112-0.352-0.136-1.223-0.136-1.439c0-0.472-0.096-1.023-1.023-1.023h-1.879V42.335z M104.915,39.209h1.799
		c0.567,0,1.167-0.144,1.167-0.991c0-0.888-0.647-0.959-1.031-0.959h-1.935V39.209z"/>
	<path d="M110.387,39.065c0.24-0.184,0.584-0.352,1.087-0.352c0.912,0,1.847,0.64,1.847,1.799c0,0.624-0.28,1.975-2.039,1.975
		c-0.735,0-1.679-0.296-1.815-1.551h0.728c0.072,0.656,0.56,0.944,1.191,0.944c0.728,0,1.183-0.584,1.183-1.288
		c0-0.808-0.551-1.247-1.247-1.247c-0.408,0-0.775,0.192-1.04,0.536l-0.607-0.032l0.424-3.014h2.91v0.688h-2.383L110.387,39.065z"/>
	<path d="M115.882,42.487c-1.615,0-1.927-1.719-1.927-2.886c0-1.167,0.312-2.887,1.927-2.887s1.927,1.719,1.927,2.887
		C117.809,40.768,117.497,42.487,115.882,42.487z M115.882,37.346c-0.808,0-1.175,0.848-1.175,2.255s0.368,2.255,1.175,2.255
		s1.175-0.848,1.175-2.255S116.69,37.346,115.882,37.346z"/>
	<path d="M120.378,42.335h-0.752v-3.99h-1.311v-0.56c0.912-0.064,1.287-0.152,1.511-1.072h0.552V42.335z"/>
</g>
<path class="st2" d="M116.328,84.006c0,1.958-1.584,3.544-3.542,3.544c-1.958,0-3.544-1.586-3.544-3.544
	c0-1.957,1.586-3.543,3.544-3.543C114.743,80.463,116.328,82.049,116.328,84.006z"/>
<g>
	<path d="M104.615,77.804h-0.775v-5.741h2.654c0.944,0,1.887,0.328,1.887,1.543c0,0.848-0.432,1.16-0.799,1.375
		c0.328,0.136,0.655,0.28,0.688,1.079l0.048,1.04c0.008,0.32,0.048,0.44,0.288,0.576v0.128h-0.952
		c-0.112-0.352-0.136-1.223-0.136-1.439c0-0.472-0.096-1.023-1.023-1.023h-1.879V77.804z M104.615,74.678h1.799
		c0.567,0,1.167-0.144,1.167-0.991c0-0.888-0.648-0.959-1.032-0.959h-1.935V74.678z"/>
	<path d="M110.087,74.534c0.24-0.184,0.583-0.352,1.087-0.352c0.912,0,1.847,0.64,1.847,1.799c0,0.624-0.28,1.975-2.039,1.975
		c-0.735,0-1.679-0.296-1.815-1.551h0.728c0.072,0.656,0.56,0.944,1.191,0.944c0.728,0,1.184-0.584,1.184-1.288
		c0-0.808-0.552-1.247-1.248-1.247c-0.408,0-0.775,0.192-1.04,0.536l-0.607-0.032l0.424-3.014h2.91v0.688h-2.383L110.087,74.534z"/>
	<path d="M115.582,77.956c-1.615,0-1.927-1.719-1.927-2.886c0-1.167,0.312-2.887,1.927-2.887s1.927,1.719,1.927,2.887
		C117.51,76.237,117.198,77.956,115.582,77.956z M115.582,72.815c-0.808,0-1.175,0.848-1.175,2.255s0.368,2.255,1.175,2.255
		s1.175-0.848,1.175-2.255S116.39,72.815,115.582,72.815z"/>
	<path d="M118.159,74.198c0-1.831,1.335-2.015,1.943-2.015c0.975,0,1.759,0.632,1.759,1.679c0,1.007-0.664,1.431-1.503,1.879
		l-0.584,0.32c-0.768,0.424-0.936,0.864-0.967,1.08h3.054v0.664h-3.846c0.04-1.167,0.567-1.791,1.319-2.231l0.744-0.432
		c0.6-0.344,1.031-0.576,1.031-1.311c0-0.448-0.288-1.016-1.111-1.016c-1.063,0-1.111,0.991-1.136,1.383H118.159z"/>
</g>
<path class="st2" d="M116.328,119.475c0,1.958-1.584,3.544-3.542,3.544c-1.958,0-3.544-1.586-3.544-3.544
	c0-1.957,1.586-3.543,3.544-3.543C114.743,115.933,116.328,117.518,116.328,119.475z"/>
<g>
	<path d="M104.615,113.273h-0.775v-5.741h2.654c0.944,0,1.887,0.328,1.887,1.543c0,0.848-0.432,1.16-0.799,1.375
		c0.328,0.136,0.655,0.279,0.688,1.079l0.048,1.04c0.008,0.319,0.048,0.439,0.288,0.575v0.128h-0.952
		c-0.112-0.352-0.136-1.224-0.136-1.439c0-0.472-0.096-1.023-1.023-1.023h-1.879V113.273z M104.615,110.146h1.799
		c0.567,0,1.167-0.144,1.167-0.991c0-0.888-0.648-0.959-1.032-0.959h-1.935V110.146z"/>
	<path d="M110.087,110.003c0.24-0.184,0.583-0.352,1.087-0.352c0.912,0,1.847,0.64,1.847,1.799c0,0.624-0.28,1.976-2.039,1.976
		c-0.735,0-1.679-0.296-1.815-1.552h0.728c0.072,0.656,0.56,0.943,1.191,0.943c0.728,0,1.184-0.583,1.184-1.287
		c0-0.808-0.552-1.247-1.248-1.247c-0.408,0-0.775,0.191-1.04,0.535l-0.607-0.031l0.424-3.015h2.91v0.688h-2.383L110.087,110.003z"
		/>
	<path d="M115.582,113.425c-1.615,0-1.927-1.72-1.927-2.887c0-1.167,0.312-2.887,1.927-2.887s1.927,1.719,1.927,2.887
		C117.51,111.706,117.198,113.425,115.582,113.425z M115.582,108.284c-0.808,0-1.175,0.848-1.175,2.255s0.368,2.255,1.175,2.255
		s1.175-0.848,1.175-2.255S116.39,108.284,115.582,108.284z"/>
	<path d="M119.598,110.075c0.12,0.008,0.248,0.016,0.368,0.016c0.544,0,1.071-0.216,1.071-0.919c0-0.336-0.2-0.888-1.039-0.888
		c-1,0-1.063,0.815-1.096,1.208h-0.688c0-0.824,0.336-1.839,1.815-1.839c1.087,0,1.735,0.624,1.735,1.479
		c0,0.72-0.416,1.063-0.72,1.159v0.016c0.543,0.177,0.936,0.561,0.936,1.312c0,0.92-0.592,1.808-2.023,1.808
		c-0.416,0-0.768-0.104-1.04-0.248c-0.624-0.328-0.792-0.976-0.839-1.623h0.728c0.024,0.527,0.152,1.239,1.199,1.239
		c0.72,0,1.224-0.44,1.224-1.088c0-0.943-0.832-1.031-1.312-1.031c-0.104,0-0.216,0.008-0.32,0.008V110.075z"/>
</g>
<path class="st2" d="M116.328,154.944c0,1.958-1.584,3.544-3.542,3.544c-1.958,0-3.544-1.586-3.544-3.544
	c0-1.957,1.586-3.543,3.544-3.543C114.743,151.401,116.328,152.987,116.328,154.944z"/>
<g>
	<path d="M104.615,148.742h-0.775V143h2.654c0.944,0,1.887,0.328,1.887,1.544c0,0.847-0.432,1.159-0.799,1.375
		c0.328,0.136,0.655,0.279,0.688,1.079l0.048,1.04c0.008,0.319,0.048,0.439,0.288,0.575v0.128h-0.952
		c-0.112-0.352-0.136-1.224-0.136-1.439c0-0.472-0.096-1.023-1.023-1.023h-1.879V148.742z M104.615,145.616h1.799
		c0.567,0,1.167-0.145,1.167-0.992c0-0.887-0.648-0.959-1.032-0.959h-1.935V145.616z"/>
	<path d="M110.087,145.471c0.24-0.184,0.583-0.352,1.087-0.352c0.912,0,1.847,0.64,1.847,1.799c0,0.624-0.28,1.976-2.039,1.976
		c-0.735,0-1.679-0.296-1.815-1.552h0.728c0.072,0.656,0.56,0.943,1.191,0.943c0.728,0,1.184-0.583,1.184-1.287
		c0-0.808-0.552-1.247-1.248-1.247c-0.408,0-0.775,0.191-1.04,0.535l-0.607-0.031l0.424-3.015h2.91v0.688h-2.383L110.087,145.471z"
		/>
	<path d="M115.582,148.894c-1.615,0-1.927-1.72-1.927-2.887c0-1.168,0.312-2.887,1.927-2.887s1.927,1.719,1.927,2.887
		C117.51,147.174,117.198,148.894,115.582,148.894z M115.582,143.752c-0.808,0-1.175,0.848-1.175,2.255s0.368,2.255,1.175,2.255
		s1.175-0.848,1.175-2.255S116.39,143.752,115.582,143.752z"/>
	<path d="M121.165,147.375v1.367h-0.703v-1.367h-2.455v-0.688l2.575-3.566h0.583v3.646h0.824v0.607H121.165z M118.655,146.767h1.807
		v-2.551h-0.016L118.655,146.767z"/>
</g>
<path class="st2" d="M116.328,190.413c0,1.958-1.584,3.544-3.542,3.544c-1.958,0-3.544-1.586-3.544-3.544
	c0-1.957,1.586-3.543,3.544-3.543C114.743,186.87,116.328,188.456,116.328,190.413z"/>
<g>
	<path d="M104.615,184.21h-0.775v-5.741h2.654c0.944,0,1.887,0.328,1.887,1.544c0,0.847-0.432,1.159-0.799,1.375
		c0.328,0.136,0.655,0.279,0.688,1.079l0.048,1.04c0.008,0.319,0.048,0.439,0.288,0.575v0.128h-0.952
		c-0.112-0.352-0.136-1.224-0.136-1.439c0-0.472-0.096-1.023-1.023-1.023h-1.879V184.21z M104.615,181.084h1.799
		c0.567,0,1.167-0.145,1.167-0.992c0-0.887-0.648-0.959-1.032-0.959h-1.935V181.084z"/>
	<path d="M110.087,180.94c0.24-0.184,0.583-0.352,1.087-0.352c0.912,0,1.847,0.64,1.847,1.799c0,0.624-0.28,1.976-2.039,1.976
		c-0.735,0-1.679-0.296-1.815-1.552h0.728c0.072,0.656,0.56,0.943,1.191,0.943c0.728,0,1.184-0.583,1.184-1.287
		c0-0.808-0.552-1.247-1.248-1.247c-0.408,0-0.775,0.191-1.04,0.535l-0.607-0.031l0.424-3.015h2.91v0.688h-2.383L110.087,180.94z"/>
	<path d="M115.582,184.363c-1.615,0-1.927-1.72-1.927-2.887c0-1.168,0.312-2.887,1.927-2.887s1.927,1.719,1.927,2.887
		C117.51,182.643,117.198,184.363,115.582,184.363z M115.582,179.221c-0.808,0-1.175,0.848-1.175,2.255s0.368,2.255,1.175,2.255
		s1.175-0.848,1.175-2.255S116.39,179.221,115.582,179.221z"/>
	<path d="M118.983,180.94c0.24-0.184,0.584-0.352,1.087-0.352c0.912,0,1.847,0.64,1.847,1.799c0,0.624-0.28,1.976-2.039,1.976
		c-0.735,0-1.679-0.296-1.815-1.552h0.728c0.072,0.656,0.56,0.943,1.191,0.943c0.728,0,1.183-0.583,1.183-1.287
		c0-0.808-0.551-1.247-1.247-1.247c-0.408,0-0.775,0.191-1.04,0.535l-0.607-0.031l0.424-3.015h2.91v0.688h-2.383L118.983,180.94z"/>
</g>
<g>
	<path d="M14.187,6.704h-0.775V0.963h2.655c0.943,0,1.887,0.328,1.887,1.543c0,0.848-0.432,1.16-0.8,1.375
		c0.328,0.136,0.656,0.28,0.688,1.079L17.889,6c0.008,0.32,0.048,0.44,0.288,0.576v0.128h-0.951
		C17.114,6.352,17.09,5.48,17.09,5.264c0-0.472-0.096-1.023-1.023-1.023h-1.879V6.704z M14.187,3.577h1.799
		c0.567,0,1.167-0.144,1.167-0.991c0-0.888-0.647-0.959-1.031-0.959h-1.935V3.577z"/>
	<path d="M20.707,6.855c-1.615,0-1.927-1.719-1.927-2.886c0-1.167,0.312-2.887,1.927-2.887c1.615,0,1.927,1.719,1.927,2.887
		C22.634,5.136,22.322,6.855,20.707,6.855z M20.707,1.714c-0.808,0-1.175,0.848-1.175,2.255s0.368,2.255,1.175,2.255
		s1.175-0.848,1.175-2.255S21.514,1.714,20.707,1.714z"/>
	<path d="M25.155,6.855c-1.615,0-1.927-1.719-1.927-2.886c0-1.167,0.312-2.887,1.927-2.887s1.927,1.719,1.927,2.887
		C27.082,5.136,26.77,6.855,25.155,6.855z M25.155,1.714c-0.808,0-1.175,0.848-1.175,2.255s0.368,2.255,1.175,2.255
		s1.175-0.848,1.175-2.255S25.962,1.714,25.155,1.714z"/>
	<path d="M29.603,6.855c-1.615,0-1.927-1.719-1.927-2.886c0-1.167,0.312-2.887,1.927-2.887s1.927,1.719,1.927,2.887
		C31.53,5.136,31.218,6.855,29.603,6.855z M29.603,1.714c-0.808,0-1.175,0.848-1.175,2.255s0.368,2.255,1.175,2.255
		s1.175-0.848,1.175-2.255S30.41,1.714,29.603,1.714z"/>
</g>
<g>
	<rect x="60.717" y="186.914" class="st1" width="7.087" height="7.088"/>
	<line class="st0" x1="67.803" y1="186.914" x2="67.803" y2="194.001"/>
	<line class="st0" x1="60.717" y1="194.001" x2="60.717" y2="186.914"/>
</g>
<g>
	<path d="M56.689,183.993h-0.775v-5.741h2.654c0.944,0,1.887,0.328,1.887,1.544c0,0.847-0.432,1.159-0.799,1.375
		c0.328,0.136,0.655,0.279,0.688,1.079l0.048,1.039c0.008,0.32,0.048,0.44,0.288,0.576v0.128h-0.952
		c-0.112-0.352-0.136-1.224-0.136-1.439c0-0.472-0.096-1.023-1.023-1.023h-1.879V183.993z M56.689,180.867h1.799
		c0.567,0,1.167-0.145,1.167-0.992c0-0.887-0.648-0.959-1.032-0.959h-1.935V180.867z"/>
	<path d="M63.208,184.145c-1.615,0-1.927-1.72-1.927-2.887s0.312-2.887,1.927-2.887s1.927,1.72,1.927,2.887
		S64.823,184.145,63.208,184.145z M63.208,179.003c-0.808,0-1.175,0.848-1.175,2.255s0.368,2.255,1.175,2.255
		s1.175-0.848,1.175-2.255S64.016,179.003,63.208,179.003z"/>
	<path d="M67.656,184.145c-1.615,0-1.927-1.72-1.927-2.887s0.312-2.887,1.927-2.887s1.927,1.72,1.927,2.887
		S69.272,184.145,67.656,184.145z M67.656,179.003c-0.808,0-1.175,0.848-1.175,2.255s0.368,2.255,1.175,2.255
		s1.175-0.848,1.175-2.255S68.464,179.003,67.656,179.003z"/>
	<path d="M71.057,180.722c0.24-0.184,0.584-0.352,1.087-0.352c0.912,0,1.847,0.64,1.847,1.799c0,0.624-0.28,1.976-2.039,1.976
		c-0.735,0-1.679-0.296-1.815-1.552h0.728c0.072,0.656,0.56,0.943,1.191,0.943c0.728,0,1.183-0.583,1.183-1.287
		c0-0.808-0.551-1.247-1.247-1.247c-0.408,0-0.775,0.191-1.04,0.535l-0.607-0.031l0.424-3.015h2.91v0.688h-2.383L71.057,180.722z"/>
</g>
<g>
	<rect x="60.717" y="151.395" class="st1" width="7.087" height="7.087"/>
	<line class="st0" x1="67.803" y1="151.395" x2="67.803" y2="158.483"/>
	<line class="st0" x1="60.717" y1="158.483" x2="60.717" y2="151.395"/>
</g>
<g>
	<path d="M56.689,148.474h-0.775v-5.741h2.654c0.944,0,1.887,0.328,1.887,1.544c0,0.847-0.432,1.159-0.799,1.375
		c0.328,0.136,0.655,0.279,0.688,1.079l0.048,1.04c0.008,0.319,0.048,0.439,0.288,0.575v0.128h-0.952
		c-0.112-0.352-0.136-1.224-0.136-1.439c0-0.472-0.096-1.023-1.023-1.023h-1.879V148.474z M56.689,145.348h1.799
		c0.567,0,1.167-0.145,1.167-0.992c0-0.887-0.648-0.959-1.032-0.959h-1.935V145.348z"/>
	<path d="M63.208,148.626c-1.615,0-1.927-1.72-1.927-2.887c0-1.168,0.312-2.887,1.927-2.887s1.927,1.719,1.927,2.887
		C65.135,146.907,64.823,148.626,63.208,148.626z M63.208,143.485c-0.808,0-1.175,0.848-1.175,2.255s0.368,2.255,1.175,2.255
		s1.175-0.848,1.175-2.255S64.016,143.485,63.208,143.485z"/>
	<path d="M67.656,148.626c-1.615,0-1.927-1.72-1.927-2.887c0-1.168,0.312-2.887,1.927-2.887s1.927,1.719,1.927,2.887
		C69.584,146.907,69.272,148.626,67.656,148.626z M67.656,143.485c-0.808,0-1.175,0.848-1.175,2.255s0.368,2.255,1.175,2.255
		s1.175-0.848,1.175-2.255S68.464,143.485,67.656,143.485z"/>
	<path d="M73.24,147.107v1.367h-0.703v-1.367h-2.455v-0.688l2.575-3.566h0.583v3.646h0.824v0.607H73.24z M70.729,146.5h1.807v-2.551
		H72.52L70.729,146.5z"/>
</g>
<g>
	<rect x="60.717" y="115.876" class="st1" width="7.087" height="7.087"/>
	<line class="st0" x1="67.803" y1="115.876" x2="67.803" y2="122.964"/>
	<line class="st0" x1="60.717" y1="122.964" x2="60.717" y2="115.876"/>
</g>
<g>
	<path d="M56.689,112.956h-0.775v-5.741h2.654c0.944,0,1.887,0.328,1.887,1.543c0,0.848-0.432,1.16-0.799,1.375
		c0.328,0.136,0.655,0.279,0.688,1.079l0.048,1.039c0.008,0.32,0.048,0.44,0.288,0.576v0.128h-0.952
		c-0.112-0.352-0.136-1.224-0.136-1.439c0-0.472-0.096-1.023-1.023-1.023h-1.879V112.956z M56.689,109.829h1.799
		c0.567,0,1.167-0.144,1.167-0.991c0-0.888-0.648-0.959-1.032-0.959h-1.935V109.829z"/>
	<path d="M63.208,113.108c-1.615,0-1.927-1.72-1.927-2.887c0-1.167,0.312-2.887,1.927-2.887s1.927,1.719,1.927,2.887
		C65.135,111.388,64.823,113.108,63.208,113.108z M63.208,107.966c-0.808,0-1.175,0.848-1.175,2.255s0.368,2.255,1.175,2.255
		s1.175-0.848,1.175-2.255S64.016,107.966,63.208,107.966z"/>
	<path d="M67.656,113.108c-1.615,0-1.927-1.72-1.927-2.887c0-1.167,0.312-2.887,1.927-2.887s1.927,1.719,1.927,2.887
		C69.584,111.388,69.272,113.108,67.656,113.108z M67.656,107.966c-0.808,0-1.175,0.848-1.175,2.255s0.368,2.255,1.175,2.255
		s1.175-0.848,1.175-2.255S68.464,107.966,67.656,107.966z"/>
	<path d="M71.673,109.757c0.12,0.008,0.248,0.016,0.368,0.016c0.544,0,1.071-0.216,1.071-0.919c0-0.336-0.2-0.888-1.039-0.888
		c-1,0-1.063,0.815-1.096,1.208h-0.688c0-0.824,0.336-1.839,1.815-1.839c1.087,0,1.735,0.624,1.735,1.479
		c0,0.72-0.416,1.063-0.72,1.159v0.016c0.543,0.176,0.936,0.56,0.936,1.311c0,0.92-0.592,1.808-2.023,1.808
		c-0.416,0-0.768-0.104-1.04-0.248c-0.624-0.328-0.792-0.976-0.839-1.623h0.728c0.024,0.527,0.152,1.239,1.199,1.239
		c0.72,0,1.224-0.44,1.224-1.088c0-0.943-0.832-1.031-1.312-1.031c-0.104,0-0.216,0.008-0.32,0.008V109.757z"/>
</g>
<g>
	<rect x="60.717" y="80.358" class="st1" width="7.087" height="7.087"/>
	<line class="st0" x1="67.803" y1="80.358" x2="67.803" y2="87.446"/>
	<line class="st0" x1="60.717" y1="87.446" x2="60.717" y2="80.358"/>
</g>
<g>
	<path d="M56.689,77.437h-0.775v-5.741h2.654c0.944,0,1.887,0.328,1.887,1.543c0,0.848-0.432,1.16-0.799,1.375
		c0.328,0.136,0.655,0.28,0.688,1.079l0.048,1.04c0.008,0.32,0.048,0.44,0.288,0.576v0.128h-0.952
		c-0.112-0.352-0.136-1.223-0.136-1.439c0-0.472-0.096-1.023-1.023-1.023h-1.879V77.437z M56.689,74.311h1.799
		c0.567,0,1.167-0.144,1.167-0.991c0-0.888-0.648-0.959-1.032-0.959h-1.935V74.311z"/>
	<path d="M63.208,77.589c-1.615,0-1.927-1.719-1.927-2.886c0-1.167,0.312-2.887,1.927-2.887s1.927,1.719,1.927,2.887
		C65.135,75.87,64.823,77.589,63.208,77.589z M63.208,72.448c-0.808,0-1.175,0.848-1.175,2.255s0.368,2.255,1.175,2.255
		s1.175-0.848,1.175-2.255S64.016,72.448,63.208,72.448z"/>
	<path d="M67.656,77.589c-1.615,0-1.927-1.719-1.927-2.886c0-1.167,0.312-2.887,1.927-2.887s1.927,1.719,1.927,2.887
		C69.584,75.87,69.272,77.589,67.656,77.589z M67.656,72.448c-0.808,0-1.175,0.848-1.175,2.255s0.368,2.255,1.175,2.255
		s1.175-0.848,1.175-2.255S68.464,72.448,67.656,72.448z"/>
	<path d="M70.234,73.831c0-1.831,1.335-2.015,1.943-2.015c0.975,0,1.759,0.632,1.759,1.679c0,1.007-0.664,1.431-1.503,1.879
		l-0.584,0.32c-0.768,0.424-0.936,0.864-0.967,1.08h3.054v0.664H70.09c0.04-1.167,0.567-1.791,1.319-2.231l0.744-0.432
		c0.6-0.344,1.031-0.576,1.031-1.311c0-0.448-0.288-1.016-1.111-1.016c-1.063,0-1.111,0.991-1.136,1.383H70.234z"/>
</g>
<g>
	<rect x="60.717" y="44.839" class="st1" width="7.087" height="7.087"/>
	<line class="st0" x1="67.803" y1="44.839" x2="67.803" y2="51.926"/>
	<line class="st0" x1="60.717" y1="51.926" x2="60.717" y2="44.839"/>
</g>
<g>
	<path d="M56.989,41.918h-0.775v-5.741h2.655c0.943,0,1.887,0.328,1.887,1.543c0,0.848-0.432,1.159-0.8,1.375
		c0.328,0.136,0.656,0.28,0.688,1.079l0.048,1.04c0.008,0.32,0.048,0.44,0.288,0.576v0.128h-0.951
		c-0.112-0.352-0.136-1.223-0.136-1.439c0-0.472-0.096-1.023-1.023-1.023h-1.879V41.918z M56.989,38.792h1.799
		c0.567,0,1.167-0.144,1.167-0.991c0-0.888-0.647-0.959-1.031-0.959h-1.935V38.792z"/>
	<path d="M63.509,42.07c-1.615,0-1.927-1.719-1.927-2.886s0.312-2.887,1.927-2.887c1.615,0,1.927,1.719,1.927,2.887
		S65.124,42.07,63.509,42.07z M63.509,36.929c-0.808,0-1.175,0.848-1.175,2.255s0.368,2.254,1.175,2.254s1.175-0.847,1.175-2.254
		S64.316,36.929,63.509,36.929z"/>
	<path d="M67.956,42.07c-1.615,0-1.927-1.719-1.927-2.886s0.312-2.887,1.927-2.887s1.927,1.719,1.927,2.887
		S69.572,42.07,67.956,42.07z M67.956,36.929c-0.808,0-1.175,0.848-1.175,2.255s0.368,2.254,1.175,2.254s1.175-0.847,1.175-2.254
		S68.764,36.929,67.956,36.929z"/>
	<path d="M72.452,41.918H71.7v-3.99h-1.311v-0.56c0.912-0.064,1.287-0.152,1.511-1.072h0.552V41.918z"/>
</g>
<g>
	<path d="M33.368,23.715l-0.552-0.955l-4.259,2.459l-0.239-0.416l4.259-2.459l-0.552-0.955l2.638,0.028L33.368,23.715z"/>
</g>
<g>
	<path d="M20.244,26.058c-0.68,1.279-1.087,2.047-1.087,3.966c0,1.319,0.456,2.295,1.095,3.55H19.78
		c-0.832-1.248-1.375-2.247-1.375-3.742c0-1.407,0.488-2.542,1.352-3.774H20.244z"/>
	<path d="M23.396,31.918h-0.752v-3.99h-1.311v-0.56c0.912-0.064,1.287-0.152,1.511-1.072h0.552V31.918z"/>
	<path d="M25.253,33.574c0.68-1.279,1.087-2.047,1.087-3.966c0-1.319-0.456-2.295-1.095-3.55h0.472
		c0.832,1.248,1.375,2.247,1.375,3.742c0,1.407-0.488,2.542-1.351,3.774H25.253z"/>
</g>
<g>
	<path d="M164.532,164.436l-0.6,1.671h-0.799l2.158-5.741h0.88l2.079,5.741h-0.848l-0.568-1.671H164.532z M166.556,163.749
		l-0.848-2.527h-0.016l-0.92,2.527H166.556z"/>
	<path d="M172.772,160.366h0.751v5.741h-0.871l-2.919-4.638h-0.016v4.638h-0.752v-5.741h0.92l2.87,4.638h0.017V160.366z"/>
	<path d="M174.781,160.366h2.327c1.495,0,2.414,1.136,2.414,2.791c0,1.287-0.56,2.95-2.446,2.95h-2.295V160.366z M175.556,165.443
		h1.504c1.007,0,1.663-0.791,1.663-2.238s-0.664-2.175-1.72-2.175h-1.447V165.443z"/>
</g>
<g>
	<path d="M166.132,178.359c-2.143,0-2.799-1.783-2.799-3.022s0.656-3.022,2.799-3.022s2.799,1.783,2.799,3.022
		S168.275,178.359,166.132,178.359z M166.132,173.001c-1.247,0-1.999,0.983-1.999,2.335c0,1.351,0.752,2.334,1.999,2.334
		s1.999-0.983,1.999-2.334C168.131,173.985,167.379,173.001,166.132,173.001z"/>
	<path d="M174.395,172.465v3.727c0,1.175-0.736,2.167-2.311,2.167c-1.544,0-2.207-0.992-2.207-2.063v-3.83h0.775v3.614
		c0,1.247,0.76,1.591,1.455,1.591c0.712,0,1.512-0.327,1.512-1.575v-3.63H174.395z"/>
	<path d="M175.134,172.465h4.661v0.688h-1.943v5.053h-0.775v-5.053h-1.942V172.465z"/>
</g>
<g>
	<path d="M210.751,8.821h-0.776V3.081h2.655c0.943,0,1.887,0.328,1.887,1.543c0,0.848-0.432,1.159-0.8,1.375
		c0.328,0.136,0.656,0.28,0.688,1.079l0.049,1.04c0.008,0.32,0.048,0.44,0.287,0.576v0.128h-0.951
		c-0.112-0.352-0.136-1.223-0.136-1.439c0-0.472-0.097-1.023-1.023-1.023h-1.879V8.821z M210.751,5.695h1.799
		c0.567,0,1.167-0.144,1.167-0.991c0-0.888-0.647-0.959-1.031-0.959h-1.935V5.695z"/>
	<path d="M217.27,8.973c-1.615,0-1.927-1.719-1.927-2.886S215.655,3.2,217.27,3.2s1.927,1.719,1.927,2.887
		S218.885,8.973,217.27,8.973z M217.27,3.832c-0.808,0-1.175,0.848-1.175,2.255s0.367,2.254,1.175,2.254s1.176-0.847,1.176-2.254
		S218.077,3.832,217.27,3.832z"/>
	<path d="M221.718,8.973c-1.615,0-1.927-1.719-1.927-2.886s0.312-2.887,1.927-2.887s1.927,1.719,1.927,2.887
		S223.333,8.973,221.718,8.973z M221.718,3.832c-0.808,0-1.175,0.848-1.175,2.255s0.367,2.254,1.175,2.254s1.176-0.847,1.176-2.254
		S222.526,3.832,221.718,3.832z"/>
	<path d="M226.166,8.973c-1.615,0-1.927-1.719-1.927-2.886s0.312-2.887,1.927-2.887s1.927,1.719,1.927,2.887
		S227.781,8.973,226.166,8.973z M226.166,3.832c-0.808,0-1.175,0.848-1.175,2.255s0.367,2.254,1.175,2.254s1.176-0.847,1.176-2.254
		S226.974,3.832,226.166,3.832z"/>
</g>
<g>
	<path d="M210.751,33.02h-0.776v-5.741h2.655c0.943,0,1.887,0.328,1.887,1.543c0,0.848-0.432,1.159-0.8,1.375
		c0.328,0.136,0.656,0.28,0.688,1.079l0.049,1.04c0.008,0.32,0.048,0.44,0.287,0.576v0.128h-0.951
		c-0.112-0.352-0.136-1.223-0.136-1.439c0-0.472-0.097-1.023-1.023-1.023h-1.879V33.02z M210.751,29.893h1.799
		c0.567,0,1.167-0.144,1.167-0.991c0-0.888-0.647-0.959-1.031-0.959h-1.935V29.893z"/>
	<path d="M216.223,29.75c0.239-0.184,0.583-0.352,1.087-0.352c0.911,0,1.847,0.64,1.847,1.799c0,0.624-0.279,1.975-2.038,1.975
		c-0.736,0-1.68-0.296-1.815-1.551h0.728c0.072,0.656,0.56,0.944,1.191,0.944c0.728,0,1.184-0.584,1.184-1.288
		c0-0.808-0.552-1.247-1.247-1.247c-0.408,0-0.776,0.192-1.04,0.536l-0.607-0.032l0.424-3.014h2.91v0.688h-2.383L216.223,29.75z"/>
	<path d="M221.718,33.171c-1.615,0-1.927-1.719-1.927-2.886s0.312-2.887,1.927-2.887s1.927,1.719,1.927,2.887
		S223.333,33.171,221.718,33.171z M221.718,28.03c-0.808,0-1.175,0.848-1.175,2.255s0.367,2.254,1.175,2.254
		s1.176-0.847,1.176-2.254S222.526,28.03,221.718,28.03z"/>
	<path d="M226.166,33.171c-1.615,0-1.927-1.719-1.927-2.886s0.312-2.887,1.927-2.887s1.927,1.719,1.927,2.887
		S227.781,33.171,226.166,33.171z M226.166,28.03c-0.808,0-1.175,0.848-1.175,2.255s0.367,2.254,1.175,2.254
		s1.176-0.847,1.176-2.254S226.974,28.03,226.166,28.03z"/>
</g>
<g>
	<path d="M210.751,57.217h-0.776v-5.741h2.655c0.943,0,1.887,0.328,1.887,1.543c0,0.848-0.432,1.16-0.8,1.375
		c0.328,0.136,0.656,0.28,0.688,1.079l0.049,1.04c0.008,0.32,0.048,0.44,0.287,0.576v0.128h-0.951
		c-0.112-0.352-0.136-1.223-0.136-1.439c0-0.472-0.097-1.023-1.023-1.023h-1.879V57.217z M210.751,54.091h1.799
		c0.567,0,1.167-0.144,1.167-0.991c0-0.888-0.647-0.959-1.031-0.959h-1.935V54.091z"/>
	<path d="M217.27,57.369c-1.615,0-1.927-1.719-1.927-2.886c0-1.167,0.312-2.887,1.927-2.887s1.927,1.719,1.927,2.887
		C219.197,55.65,218.885,57.369,217.27,57.369z M217.27,52.228c-0.808,0-1.175,0.848-1.175,2.255s0.367,2.255,1.175,2.255
		s1.176-0.848,1.176-2.255S218.077,52.228,217.27,52.228z"/>
	<path d="M221.718,57.369c-1.615,0-1.927-1.719-1.927-2.886c0-1.167,0.312-2.887,1.927-2.887s1.927,1.719,1.927,2.887
		C223.645,55.65,223.333,57.369,221.718,57.369z M221.718,52.228c-0.808,0-1.175,0.848-1.175,2.255s0.367,2.255,1.175,2.255
		s1.176-0.848,1.176-2.255S222.526,52.228,221.718,52.228z"/>
	<path d="M226.214,57.217h-0.751v-3.99h-1.312v-0.56c0.911-0.064,1.287-0.152,1.511-1.072h0.552V57.217z"/>
</g>
<g>
	<path d="M210.751,69.316h-0.776v-5.741h2.655c0.943,0,1.887,0.328,1.887,1.543c0,0.848-0.432,1.159-0.8,1.375
		c0.328,0.136,0.656,0.28,0.688,1.079l0.049,1.04c0.008,0.32,0.048,0.44,0.287,0.576v0.128h-0.951
		c-0.112-0.352-0.136-1.223-0.136-1.439c0-0.472-0.097-1.023-1.023-1.023h-1.879V69.316z M210.751,66.19h1.799
		c0.567,0,1.167-0.144,1.167-0.991c0-0.888-0.647-0.959-1.031-0.959h-1.935V66.19z"/>
	<path d="M216.223,66.046c0.239-0.184,0.583-0.352,1.087-0.352c0.911,0,1.847,0.64,1.847,1.799c0,0.624-0.279,1.975-2.038,1.975
		c-0.736,0-1.68-0.296-1.815-1.551h0.728c0.072,0.656,0.56,0.944,1.191,0.944c0.728,0,1.184-0.584,1.184-1.288
		c0-0.808-0.552-1.247-1.247-1.247c-0.408,0-0.776,0.192-1.04,0.536l-0.607-0.032l0.424-3.014h2.91v0.688h-2.383L216.223,66.046z"/>
	<path d="M221.718,69.468c-1.615,0-1.927-1.719-1.927-2.886s0.312-2.887,1.927-2.887s1.927,1.719,1.927,2.887
		S223.333,69.468,221.718,69.468z M221.718,64.327c-0.808,0-1.175,0.848-1.175,2.255s0.367,2.254,1.175,2.254
		s1.176-0.847,1.176-2.254S222.526,64.327,221.718,64.327z"/>
	<path d="M226.214,69.316h-0.751v-3.99h-1.312v-0.56c0.911-0.064,1.287-0.152,1.511-1.072h0.552V69.316z"/>
</g>
<g>
	<path d="M210.751,93.514h-0.776v-5.741h2.655c0.943,0,1.887,0.328,1.887,1.543c0,0.848-0.432,1.159-0.8,1.375
		c0.328,0.136,0.656,0.28,0.688,1.079l0.049,1.04c0.008,0.32,0.048,0.44,0.287,0.576v0.128h-0.951
		c-0.112-0.352-0.136-1.223-0.136-1.439c0-0.472-0.097-1.023-1.023-1.023h-1.879V93.514z M210.751,90.387h1.799
		c0.567,0,1.167-0.144,1.167-0.991c0-0.888-0.647-0.959-1.031-0.959h-1.935V90.387z"/>
	<path d="M217.27,93.666c-1.615,0-1.927-1.719-1.927-2.886s0.312-2.887,1.927-2.887s1.927,1.719,1.927,2.887
		S218.885,93.666,217.27,93.666z M217.27,88.524c-0.808,0-1.175,0.848-1.175,2.255s0.367,2.254,1.175,2.254s1.176-0.847,1.176-2.254
		S218.077,88.524,217.27,88.524z"/>
	<path d="M221.718,93.666c-1.615,0-1.927-1.719-1.927-2.886s0.312-2.887,1.927-2.887s1.927,1.719,1.927,2.887
		S223.333,93.666,221.718,93.666z M221.718,88.524c-0.808,0-1.175,0.848-1.175,2.255s0.367,2.254,1.175,2.254
		s1.176-0.847,1.176-2.254S222.526,88.524,221.718,88.524z"/>
	<path d="M224.295,89.908c0-1.831,1.336-2.015,1.943-2.015c0.976,0,1.759,0.632,1.759,1.679c0,1.007-0.663,1.431-1.503,1.879
		l-0.584,0.32c-0.768,0.424-0.936,0.864-0.968,1.08h3.055v0.664h-3.846c0.04-1.167,0.567-1.791,1.319-2.231l0.743-0.432
		c0.6-0.344,1.031-0.576,1.031-1.311c0-0.448-0.287-1.016-1.111-1.016c-1.063,0-1.111,0.992-1.135,1.383H224.295z"/>
</g>
<g>
	<path d="M210.751,105.613h-0.776v-5.741h2.655c0.943,0,1.887,0.328,1.887,1.543c0,0.848-0.432,1.16-0.8,1.375
		c0.328,0.136,0.656,0.28,0.688,1.079l0.049,1.04c0.008,0.32,0.048,0.44,0.287,0.576v0.128h-0.951
		c-0.112-0.352-0.136-1.223-0.136-1.439c0-0.472-0.097-1.023-1.023-1.023h-1.879V105.613z M210.751,102.486h1.799
		c0.567,0,1.167-0.144,1.167-0.991c0-0.888-0.647-0.959-1.031-0.959h-1.935V102.486z"/>
	<path d="M216.223,102.343c0.239-0.184,0.583-0.352,1.087-0.352c0.911,0,1.847,0.64,1.847,1.799c0,0.624-0.279,1.975-2.038,1.975
		c-0.736,0-1.68-0.296-1.815-1.551h0.728c0.072,0.656,0.56,0.944,1.191,0.944c0.728,0,1.184-0.584,1.184-1.288
		c0-0.808-0.552-1.247-1.247-1.247c-0.408,0-0.776,0.192-1.04,0.536l-0.607-0.032l0.424-3.014h2.91v0.688h-2.383L216.223,102.343z"
		/>
	<path d="M221.718,105.765c-1.615,0-1.927-1.719-1.927-2.886c0-1.167,0.312-2.887,1.927-2.887s1.927,1.719,1.927,2.887
		C223.645,104.045,223.333,105.765,221.718,105.765z M221.718,100.624c-0.808,0-1.175,0.848-1.175,2.255s0.367,2.255,1.175,2.255
		s1.176-0.848,1.176-2.255S222.526,100.624,221.718,100.624z"/>
	<path d="M224.295,102.007c0-1.831,1.336-2.015,1.943-2.015c0.976,0,1.759,0.632,1.759,1.679c0,1.007-0.663,1.431-1.503,1.879
		l-0.584,0.32c-0.768,0.424-0.936,0.864-0.968,1.08h3.055v0.664h-3.846c0.04-1.167,0.567-1.791,1.319-2.231l0.743-0.432
		c0.6-0.344,1.031-0.576,1.031-1.311c0-0.448-0.287-1.016-1.111-1.016c-1.063,0-1.111,0.991-1.135,1.383H224.295z"/>
</g>
<g>
	<path d="M210.751,129.811h-0.776v-5.741h2.655c0.943,0,1.887,0.328,1.887,1.544c0,0.847-0.432,1.159-0.8,1.375
		c0.328,0.136,0.656,0.279,0.688,1.079l0.049,1.039c0.008,0.32,0.048,0.44,0.287,0.576v0.128h-0.951
		c-0.112-0.352-0.136-1.224-0.136-1.439c0-0.472-0.097-1.023-1.023-1.023h-1.879V129.811z M210.751,126.685h1.799
		c0.567,0,1.167-0.145,1.167-0.992c0-0.887-0.647-0.959-1.031-0.959h-1.935V126.685z"/>
	<path d="M217.27,129.963c-1.615,0-1.927-1.72-1.927-2.887s0.312-2.887,1.927-2.887s1.927,1.72,1.927,2.887
		S218.885,129.963,217.27,129.963z M217.27,124.822c-0.808,0-1.175,0.848-1.175,2.255s0.367,2.255,1.175,2.255
		s1.176-0.848,1.176-2.255S218.077,124.822,217.27,124.822z"/>
	<path d="M221.718,129.963c-1.615,0-1.927-1.72-1.927-2.887s0.312-2.887,1.927-2.887s1.927,1.72,1.927,2.887
		S223.333,129.963,221.718,129.963z M221.718,124.822c-0.808,0-1.175,0.848-1.175,2.255s0.367,2.255,1.175,2.255
		s1.176-0.848,1.176-2.255S222.526,124.822,221.718,124.822z"/>
	<path d="M225.735,126.613c0.12,0.008,0.248,0.016,0.368,0.016c0.543,0,1.071-0.216,1.071-0.919c0-0.336-0.2-0.888-1.04-0.888
		c-0.999,0-1.063,0.815-1.095,1.207h-0.688c0-0.823,0.335-1.839,1.814-1.839c1.088,0,1.735,0.624,1.735,1.479
		c0,0.72-0.416,1.063-0.72,1.159v0.016c0.544,0.177,0.936,0.561,0.936,1.312c0,0.92-0.592,1.808-2.023,1.808
		c-0.415,0-0.768-0.104-1.039-0.248c-0.624-0.328-0.791-0.976-0.84-1.623h0.728c0.024,0.527,0.152,1.239,1.2,1.239
		c0.719,0,1.223-0.44,1.223-1.088c0-0.943-0.831-1.031-1.311-1.031c-0.104,0-0.217,0.008-0.32,0.008V126.613z"/>
</g>
<g>
	<path d="M210.751,141.91h-0.776v-5.741h2.655c0.943,0,1.887,0.328,1.887,1.544c0,0.847-0.432,1.159-0.8,1.375
		c0.328,0.136,0.656,0.279,0.688,1.079l0.049,1.04c0.008,0.319,0.048,0.439,0.287,0.575v0.128h-0.951
		c-0.112-0.352-0.136-1.224-0.136-1.439c0-0.472-0.097-1.023-1.023-1.023h-1.879V141.91z M210.751,138.784h1.799
		c0.567,0,1.167-0.145,1.167-0.992c0-0.887-0.647-0.959-1.031-0.959h-1.935V138.784z"/>
	<path d="M216.223,138.639c0.239-0.184,0.583-0.352,1.087-0.352c0.911,0,1.847,0.64,1.847,1.799c0,0.624-0.279,1.976-2.038,1.976
		c-0.736,0-1.68-0.296-1.815-1.552h0.728c0.072,0.656,0.56,0.943,1.191,0.943c0.728,0,1.184-0.583,1.184-1.287
		c0-0.808-0.552-1.247-1.247-1.247c-0.408,0-0.776,0.191-1.04,0.535l-0.607-0.031l0.424-3.015h2.91v0.688h-2.383L216.223,138.639z"
		/>
	<path d="M221.718,142.062c-1.615,0-1.927-1.72-1.927-2.887c0-1.168,0.312-2.887,1.927-2.887s1.927,1.719,1.927,2.887
		C223.645,140.342,223.333,142.062,221.718,142.062z M221.718,136.92c-0.808,0-1.175,0.848-1.175,2.255s0.367,2.255,1.175,2.255
		s1.176-0.848,1.176-2.255S222.526,136.92,221.718,136.92z"/>
	<path d="M225.735,138.711c0.12,0.008,0.248,0.016,0.368,0.016c0.543,0,1.071-0.216,1.071-0.919c0-0.336-0.2-0.888-1.04-0.888
		c-0.999,0-1.063,0.815-1.095,1.207h-0.688c0-0.823,0.335-1.839,1.814-1.839c1.088,0,1.735,0.624,1.735,1.479
		c0,0.72-0.416,1.063-0.72,1.159v0.016c0.544,0.177,0.936,0.561,0.936,1.312c0,0.92-0.592,1.808-2.023,1.808
		c-0.415,0-0.768-0.104-1.039-0.248c-0.624-0.328-0.791-0.976-0.84-1.623h0.728c0.024,0.527,0.152,1.239,1.2,1.239
		c0.719,0,1.223-0.44,1.223-1.088c0-0.943-0.831-1.031-1.311-1.031c-0.104,0-0.217,0.008-0.32,0.008V138.711z"/>
</g>
<g>
	<path d="M210.751,202.405h-0.776v-5.741h2.655c0.943,0,1.887,0.328,1.887,1.544c0,0.847-0.432,1.159-0.8,1.375
		c0.328,0.136,0.656,0.279,0.688,1.079l0.049,1.039c0.008,0.32,0.048,0.44,0.287,0.576v0.128h-0.951
		c-0.112-0.352-0.136-1.224-0.136-1.439c0-0.472-0.097-1.023-1.023-1.023h-1.879V202.405z M210.751,199.279h1.799
		c0.567,0,1.167-0.145,1.167-0.992c0-0.887-0.647-0.959-1.031-0.959h-1.935V199.279z"/>
	<path d="M217.27,202.557c-1.615,0-1.927-1.72-1.927-2.887s0.312-2.887,1.927-2.887s1.927,1.72,1.927,2.887
		S218.885,202.557,217.27,202.557z M217.27,197.416c-0.808,0-1.175,0.848-1.175,2.255s0.367,2.255,1.175,2.255
		s1.176-0.848,1.176-2.255S218.077,197.416,217.27,197.416z"/>
	<path d="M221.718,202.557c-1.615,0-1.927-1.72-1.927-2.887s0.312-2.887,1.927-2.887s1.927,1.72,1.927,2.887
		S223.333,202.557,221.718,202.557z M221.718,197.416c-0.808,0-1.175,0.848-1.175,2.255s0.367,2.255,1.175,2.255
		s1.176-0.848,1.176-2.255S222.526,197.416,221.718,197.416z"/>
	<path d="M225.119,199.134c0.239-0.184,0.583-0.352,1.087-0.352c0.911,0,1.847,0.64,1.847,1.799c0,0.624-0.279,1.976-2.038,1.976
		c-0.736,0-1.68-0.296-1.815-1.552h0.728c0.072,0.656,0.56,0.943,1.191,0.943c0.728,0,1.184-0.583,1.184-1.287
		c0-0.808-0.552-1.247-1.247-1.247c-0.408,0-0.776,0.191-1.04,0.535l-0.607-0.031l0.424-3.015h2.91v0.688h-2.383L225.119,199.134z"
		/>
</g>
<g>
	<path d="M210.751,214.503h-0.776v-5.741h2.655c0.943,0,1.887,0.328,1.887,1.544c0,0.847-0.432,1.159-0.8,1.375
		c0.328,0.136,0.656,0.279,0.688,1.079l0.049,1.04c0.008,0.319,0.048,0.439,0.287,0.575v0.128h-0.951
		c-0.112-0.352-0.136-1.224-0.136-1.439c0-0.472-0.097-1.023-1.023-1.023h-1.879V214.503z M210.751,211.377h1.799
		c0.567,0,1.167-0.145,1.167-0.992c0-0.887-0.647-0.959-1.031-0.959h-1.935V211.377z"/>
	<path d="M216.223,211.233c0.239-0.184,0.583-0.352,1.087-0.352c0.911,0,1.847,0.64,1.847,1.799c0,0.624-0.279,1.976-2.038,1.976
		c-0.736,0-1.68-0.296-1.815-1.552h0.728c0.072,0.656,0.56,0.943,1.191,0.943c0.728,0,1.184-0.583,1.184-1.287
		c0-0.808-0.552-1.247-1.247-1.247c-0.408,0-0.776,0.191-1.04,0.535l-0.607-0.031l0.424-3.015h2.91v0.688h-2.383L216.223,211.233z"
		/>
	<path d="M221.718,214.656c-1.615,0-1.927-1.72-1.927-2.887c0-1.168,0.312-2.887,1.927-2.887s1.927,1.719,1.927,2.887
		C223.645,212.936,223.333,214.656,221.718,214.656z M221.718,209.514c-0.808,0-1.175,0.848-1.175,2.255s0.367,2.255,1.175,2.255
		s1.176-0.848,1.176-2.255S222.526,209.514,221.718,209.514z"/>
	<path d="M225.119,211.233c0.239-0.184,0.583-0.352,1.087-0.352c0.911,0,1.847,0.64,1.847,1.799c0,0.624-0.279,1.976-2.038,1.976
		c-0.736,0-1.68-0.296-1.815-1.552h0.728c0.072,0.656,0.56,0.943,1.191,0.943c0.728,0,1.184-0.583,1.184-1.287
		c0-0.808-0.552-1.247-1.247-1.247c-0.408,0-0.776,0.191-1.04,0.535l-0.607-0.031l0.424-3.015h2.91v0.688h-2.383L225.119,211.233z"
		/>
</g>
<g>
	<path d="M210.751,166.107h-0.776v-5.741h2.655c0.943,0,1.887,0.328,1.887,1.544c0,0.847-0.432,1.159-0.8,1.375
		c0.328,0.136,0.656,0.279,0.688,1.079l0.049,1.04c0.008,0.319,0.048,0.439,0.287,0.575v0.128h-0.951
		c-0.112-0.352-0.136-1.224-0.136-1.439c0-0.472-0.097-1.023-1.023-1.023h-1.879V166.107z M210.751,162.981h1.799
		c0.567,0,1.167-0.145,1.167-0.992c0-0.887-0.647-0.959-1.031-0.959h-1.935V162.981z"/>
	<path d="M217.27,166.259c-1.615,0-1.927-1.72-1.927-2.887c0-1.168,0.312-2.887,1.927-2.887s1.927,1.719,1.927,2.887
		C219.197,164.54,218.885,166.259,217.27,166.259z M217.27,161.118c-0.808,0-1.175,0.848-1.175,2.255s0.367,2.255,1.175,2.255
		s1.176-0.848,1.176-2.255S218.077,161.118,217.27,161.118z"/>
	<path d="M221.718,166.259c-1.615,0-1.927-1.72-1.927-2.887c0-1.168,0.312-2.887,1.927-2.887s1.927,1.719,1.927,2.887
		C223.645,164.54,223.333,166.259,221.718,166.259z M221.718,161.118c-0.808,0-1.175,0.848-1.175,2.255s0.367,2.255,1.175,2.255
		s1.176-0.848,1.176-2.255S222.526,161.118,221.718,161.118z"/>
	<path d="M227.302,164.74v1.367h-0.704v-1.367h-2.454v-0.688l2.574-3.566h0.584v3.646h0.823v0.607H227.302z M224.791,164.132h1.807
		v-2.551h-0.016L224.791,164.132z"/>
</g>
<g>
	<path d="M210.751,178.207h-0.776v-5.741h2.655c0.943,0,1.887,0.328,1.887,1.544c0,0.847-0.432,1.159-0.8,1.375
		c0.328,0.136,0.656,0.279,0.688,1.079l0.049,1.04c0.008,0.319,0.048,0.439,0.287,0.575v0.128h-0.951
		c-0.112-0.352-0.136-1.224-0.136-1.439c0-0.472-0.097-1.023-1.023-1.023h-1.879V178.207z M210.751,175.081h1.799
		c0.567,0,1.167-0.145,1.167-0.992c0-0.887-0.647-0.959-1.031-0.959h-1.935V175.081z"/>
	<path d="M216.223,174.936c0.239-0.184,0.583-0.352,1.087-0.352c0.911,0,1.847,0.64,1.847,1.799c0,0.624-0.279,1.976-2.038,1.976
		c-0.736,0-1.68-0.296-1.815-1.552h0.728c0.072,0.656,0.56,0.943,1.191,0.943c0.728,0,1.184-0.583,1.184-1.287
		c0-0.808-0.552-1.247-1.247-1.247c-0.408,0-0.776,0.191-1.04,0.535l-0.607-0.031l0.424-3.015h2.91v0.688h-2.383L216.223,174.936z"
		/>
	<path d="M221.718,178.359c-1.615,0-1.927-1.72-1.927-2.887c0-1.168,0.312-2.887,1.927-2.887s1.927,1.719,1.927,2.887
		C223.645,176.639,223.333,178.359,221.718,178.359z M221.718,173.217c-0.808,0-1.175,0.848-1.175,2.255s0.367,2.255,1.175,2.255
		s1.176-0.848,1.176-2.255S222.526,173.217,221.718,173.217z"/>
	<path d="M227.302,176.839v1.367h-0.704v-1.367h-2.454v-0.688l2.574-3.566h0.584v3.646h0.823v0.607H227.302z M224.791,176.232h1.807
		v-2.551h-0.016L224.791,176.232z"/>
</g>
<g>
	<path d="M265.873,15.833l0.84,0.304v-0.879h0.479v0.879l0.84-0.304l0.159,0.439l-0.863,0.272l0.536,0.736l-0.392,0.271
		l-0.521-0.751l-0.52,0.751l-0.392-0.271l0.536-0.736l-0.864-0.272L265.873,15.833z"/>
	<path d="M271.384,20.998h-0.751v-3.99h-1.312v-0.56c0.911-0.064,1.287-0.152,1.511-1.072h0.552V20.998z"/>
</g>
<g>
	<path d="M265.873,39.904l0.84,0.304v-0.879h0.479v0.879l0.84-0.304l0.159,0.439l-0.863,0.272l0.536,0.736l-0.392,0.271
		l-0.521-0.751l-0.52,0.751l-0.392-0.271l0.536-0.736l-0.864-0.272L265.873,39.904z"/>
	<path d="M268.865,41.463c0-1.831,1.336-2.015,1.943-2.015c0.976,0,1.759,0.632,1.759,1.679c0,1.007-0.664,1.431-1.503,1.879
		l-0.584,0.32c-0.768,0.424-0.936,0.864-0.968,1.08h3.055v0.664h-3.846c0.04-1.167,0.567-1.791,1.319-2.231l0.743-0.432
		c0.6-0.344,1.031-0.576,1.031-1.311c0-0.448-0.287-1.016-1.111-1.016c-1.063,0-1.111,0.992-1.135,1.383H268.865z"/>
</g>
<g>
	<path d="M265.873,77.333l0.84,0.304v-0.879h0.479v0.879l0.84-0.304l0.159,0.439l-0.863,0.272l0.536,0.736l-0.392,0.271
		l-0.521-0.751l-0.52,0.751l-0.392-0.271l0.536-0.736l-0.864-0.272L265.873,77.333z"/>
	<path d="M268.865,78.892c0-1.831,1.336-2.015,1.943-2.015c0.976,0,1.759,0.632,1.759,1.679c0,1.007-0.664,1.431-1.503,1.879
		l-0.584,0.32c-0.768,0.424-0.936,0.864-0.968,1.08h3.055v0.664h-3.846c0.04-1.167,0.567-1.791,1.319-2.231l0.743-0.432
		c0.6-0.344,1.031-0.576,1.031-1.311c0-0.448-0.287-1.016-1.111-1.016c-1.063,0-1.111,0.992-1.135,1.383H268.865z"/>
</g>
<g>
	<path d="M265.873,114.228l0.84,0.304v-0.88h0.479v0.88l0.84-0.304l0.159,0.439l-0.863,0.271l0.536,0.736l-0.392,0.271l-0.521-0.752
		l-0.52,0.752l-0.392-0.271l0.536-0.736l-0.864-0.271L265.873,114.228z"/>
	<path d="M268.865,115.787c0-1.831,1.336-2.015,1.943-2.015c0.976,0,1.759,0.632,1.759,1.679c0,1.008-0.664,1.432-1.503,1.879
		l-0.584,0.32c-0.768,0.424-0.936,0.863-0.968,1.079h3.055v0.664h-3.846c0.04-1.168,0.567-1.791,1.319-2.231l0.743-0.432
		c0.6-0.344,1.031-0.575,1.031-1.311c0-0.448-0.287-1.016-1.111-1.016c-1.063,0-1.111,0.991-1.135,1.383H268.865z"/>
</g>
<g>
	<path d="M265.873,150.793l0.84,0.304v-0.88h0.479v0.88l0.84-0.304l0.159,0.439l-0.863,0.271l0.536,0.736l-0.392,0.271l-0.521-0.752
		l-0.52,0.752l-0.392-0.271l0.536-0.736l-0.864-0.271L265.873,150.793z"/>
	<path d="M268.865,152.352c0-1.831,1.336-2.015,1.943-2.015c0.976,0,1.759,0.632,1.759,1.679c0,1.008-0.664,1.432-1.503,1.879
		l-0.584,0.32c-0.768,0.424-0.936,0.863-0.968,1.079h3.055v0.664h-3.846c0.04-1.168,0.567-1.791,1.319-2.231l0.743-0.432
		c0.6-0.344,1.031-0.575,1.031-1.311c0-0.448-0.287-1.016-1.111-1.016c-1.063,0-1.111,0.991-1.135,1.383H268.865z"/>
</g>
<g>
	<path d="M265.873,185.191l0.84,0.304v-0.88h0.479v0.88l0.84-0.304l0.159,0.439l-0.863,0.271l0.536,0.736l-0.392,0.271l-0.521-0.752
		l-0.52,0.752l-0.392-0.271l0.536-0.736l-0.864-0.271L265.873,185.191z"/>
	<path d="M270.305,187.158c0.12,0.008,0.248,0.016,0.368,0.016c0.543,0,1.071-0.216,1.071-0.919c0-0.336-0.2-0.888-1.04-0.888
		c-0.999,0-1.063,0.815-1.095,1.207h-0.688c0-0.823,0.335-1.839,1.814-1.839c1.088,0,1.735,0.624,1.735,1.479
		c0,0.719-0.416,1.063-0.72,1.159v0.016c0.544,0.176,0.936,0.56,0.936,1.312c0,0.919-0.592,1.807-2.023,1.807
		c-0.415,0-0.768-0.104-1.039-0.248c-0.624-0.327-0.792-0.975-0.84-1.623h0.728c0.024,0.528,0.152,1.239,1.2,1.239
		c0.719,0,1.223-0.439,1.223-1.087c0-0.943-0.831-1.031-1.312-1.031c-0.104,0-0.216,0.008-0.319,0.008V187.158z"/>
</g>
<line class="st3" x1="209.272" y1="16.712" x2="260.804" y2="16.712"/>
<line class="st3" x1="209.272" y1="42.335" x2="260.804" y2="42.335"/>
<line class="st3" x1="209.272" y1="80.358" x2="260.804" y2="80.358"/>
<line class="st3" x1="209.272" y1="115.933" x2="260.804" y2="115.933"/>
<line class="st3" x1="209.272" y1="151.395" x2="260.804" y2="151.395"/>
<line class="st3" x1="209.272" y1="186.914" x2="260.804" y2="186.914"/>
</svg>
