<?xml version="1.0" encoding="utf-8"?>
<!-- Generator: Adobe Illustrator 28.4.1, SVG Export Plug-In . SVG Version: 6.00 Build 0)  -->
<svg version="1.1" xmlns="http://www.w3.org/2000/svg" xmlns:xlink="http://www.w3.org/1999/xlink" x="0px" y="0px"
	 width="464.673px" height="71.366px" viewBox="0 0 464.673 71.366" style="enable-background:new 0 0 464.673 71.366;"
	 xml:space="preserve">
<style type="text/css">
	.st0{fill:none;stroke:#000000;stroke-width:0.5;stroke-miterlimit:10;}
</style>
<g id="レイヤー_1">
	<rect x="0.25" y="17.967" class="st0" width="171.85" height="53.15"/>
	<line class="st0" x1="0.25" y1="35.683" x2="172.1" y2="35.683"/>
	<line class="st0" x1="0.25" y1="52.514" x2="172.1" y2="52.514"/>
	<line class="st0" x1="0.25" y1="53.843" x2="172.1" y2="53.843"/>
	<line class="st0" x1="39.226" y1="71.116" x2="39.226" y2="17.967"/>
	<line class="st0" x1="65.801" y1="71.116" x2="65.801" y2="17.967"/>
	<line class="st0" x1="92.376" y1="71.116" x2="92.376" y2="17.967"/>
	<line class="st0" x1="118.951" y1="71.116" x2="118.951" y2="17.967"/>
	<line class="st0" x1="145.526" y1="71.116" x2="145.526" y2="17.967"/>
	<rect x="172.1" y="17.967" class="st0" width="132.874" height="53.15"/>
	<line class="st0" x1="172.1" y1="35.683" x2="304.974" y2="35.683"/>
	<line class="st0" x1="172.1" y1="52.514" x2="304.974" y2="52.514"/>
	<line class="st0" x1="172.1" y1="53.843" x2="304.974" y2="53.843"/>
	<line class="st0" x1="198.675" y1="71.116" x2="198.675" y2="17.967"/>
	<line class="st0" x1="225.25" y1="71.116" x2="225.25" y2="17.967"/>
	<line class="st0" x1="251.825" y1="71.116" x2="251.825" y2="17.967"/>
	<line class="st0" x1="278.4" y1="71.116" x2="278.4" y2="17.967"/>
	<rect x="304.974" y="17.967" class="st0" width="132.874" height="53.15"/>
	<line class="st0" x1="304.974" y1="35.683" x2="437.848" y2="35.683"/>
	<line class="st0" x1="304.974" y1="52.514" x2="437.848" y2="52.514"/>
	<line class="st0" x1="304.974" y1="53.843" x2="437.848" y2="53.843"/>
	<line class="st0" x1="331.549" y1="71.116" x2="331.549" y2="17.967"/>
	<line class="st0" x1="358.124" y1="71.116" x2="358.124" y2="17.967"/>
	<line class="st0" x1="384.699" y1="71.116" x2="384.699" y2="17.967"/>
	<line class="st0" x1="411.274" y1="71.116" x2="411.274" y2="17.967"/>
	<rect x="437.848" y="17.967" class="st0" width="26.575" height="53.15"/>
	<line class="st0" x1="437.848" y1="35.683" x2="464.423" y2="35.683"/>
	<line class="st0" x1="437.848" y1="52.514" x2="464.423" y2="52.514"/>
	<line class="st0" x1="437.848" y1="53.843" x2="464.423" y2="53.843"/>
	<rect x="172.1" y="0.25" class="st0" width="132.874" height="17.717"/>
	<line class="st0" x1="198.675" y1="17.967" x2="198.675" y2="0.25"/>
	<line class="st0" x1="225.25" y1="17.967" x2="225.25" y2="0.25"/>
	<line class="st0" x1="251.825" y1="17.967" x2="251.825" y2="0.25"/>
	<line class="st0" x1="278.4" y1="17.967" x2="278.4" y2="0.25"/>
	<rect x="39.226" y="0.25" class="st0" width="132.874" height="17.717"/>
	<line class="st0" x1="65.801" y1="17.967" x2="65.801" y2="0.25"/>
	<line class="st0" x1="92.376" y1="17.967" x2="92.376" y2="0.25"/>
	<line class="st0" x1="118.951" y1="17.967" x2="118.951" y2="0.25"/>
	<line class="st0" x1="145.526" y1="17.967" x2="145.526" y2="0.25"/>
	<rect x="304.974" y="0.25" class="st0" width="132.874" height="17.717"/>
	<line class="st0" x1="331.549" y1="17.967" x2="331.549" y2="0.25"/>
	<line class="st0" x1="358.124" y1="17.967" x2="358.124" y2="0.25"/>
	<line class="st0" x1="384.699" y1="17.967" x2="384.699" y2="0.25"/>
	<line class="st0" x1="411.274" y1="17.967" x2="411.274" y2="0.25"/>
	<rect x="437.848" y="0.25" class="st0" width="26.575" height="17.717"/>
</g>
<g id="レイヤー_2">
	<g>
		<path d="M52.704,26.146h-1.455V25.81c0.855-0.056,1.391-0.144,1.559-1.111h0.408v5.637h-0.512V26.146z"/>
	</g>
	<g>
		<path d="M80.989,27.618c0,1.495-0.352,2.83-1.903,2.83c-1.559,0-1.911-1.327-1.911-2.886c0-1.423,0.288-2.862,1.911-2.862
			C80.758,24.699,80.989,26.306,80.989,27.618z M79.07,25.131c-1.119,0-1.383,1.239-1.383,2.487c0,1.447,0.32,2.398,1.399,2.398
			c1.215,0,1.391-1.319,1.391-2.455C80.478,26.346,80.262,25.131,79.07,25.131z"/>
	</g>
	<g>
		<path d="M105.855,26.146H104.4V25.81c0.855-0.056,1.391-0.144,1.559-1.111h0.408v5.637h-0.512V26.146z"/>
	</g>
	<g>
		<path d="M132.429,26.146h-1.455V25.81c0.855-0.056,1.391-0.144,1.559-1.111h0.408v5.637h-0.512V26.146z"/>
	</g>
	<g>
		<path d="M159.004,26.146h-1.456V25.81c0.856-0.056,1.392-0.144,1.56-1.111h0.408v5.637h-0.512V26.146z"/>
	</g>
	<g>
		<path d="M54.415,45.334c0,1.495-0.352,2.83-1.903,2.83c-1.559,0-1.911-1.327-1.911-2.886c0-1.423,0.288-2.862,1.911-2.862
			C54.184,42.416,54.415,44.023,54.415,45.334z M52.496,42.848c-1.119,0-1.383,1.239-1.383,2.487c0,1.447,0.32,2.398,1.399,2.398
			c1.215,0,1.391-1.319,1.391-2.455C53.903,44.063,53.688,42.848,52.496,42.848z"/>
	</g>
	<g>
		<path d="M80.989,45.334c0,1.495-0.352,2.83-1.903,2.83c-1.559,0-1.911-1.327-1.911-2.886c0-1.423,0.288-2.862,1.911-2.862
			C80.758,42.416,80.989,44.023,80.989,45.334z M79.07,42.848c-1.119,0-1.383,1.239-1.383,2.487c0,1.447,0.32,2.398,1.399,2.398
			c1.215,0,1.391-1.319,1.391-2.455C80.478,44.063,80.262,42.848,79.07,42.848z"/>
	</g>
	<g>
		<path d="M105.855,43.863H104.4v-0.335c0.855-0.056,1.391-0.144,1.559-1.111h0.408v5.637h-0.512V43.863z"/>
	</g>
	<g>
		<path d="M132.429,43.863h-1.455v-0.335c0.855-0.056,1.391-0.144,1.559-1.111h0.408v5.637h-0.512V43.863z"/>
	</g>
	<g>
		<path d="M160.715,45.334c0,1.495-0.353,2.83-1.903,2.83c-1.559,0-1.911-1.327-1.911-2.886c0-1.423,0.288-2.862,1.911-2.862
			C160.483,42.416,160.715,44.023,160.715,45.334z M158.796,42.848c-1.119,0-1.384,1.239-1.384,2.487
			c0,1.447,0.32,2.398,1.399,2.398c1.216,0,1.392-1.319,1.392-2.455C160.203,44.063,159.987,42.848,158.796,42.848z"/>
	</g>
	<g>
		<path d="M52.704,61.58h-1.455v-0.335c0.855-0.056,1.391-0.144,1.559-1.111h0.408v5.637h-0.512V61.58z"/>
	</g>
	<g>
		<path d="M7.734,30.336v-5.757h0.544v5.757H7.734z"/>
		<path d="M10.174,30.336H9.694v-4.142h0.479v0.576c0.384-0.408,0.76-0.688,1.335-0.688c0.504,0,0.967,0.16,1.263,0.591
			c0.2,0.296,0.208,0.608,0.208,0.952v2.71h-0.479v-2.703c0-0.744-0.304-1.119-1.072-1.119c-0.591,0-1,0.384-1.151,0.808
			c-0.096,0.264-0.104,0.496-0.104,0.783V30.336z"/>
		<path d="M15.981,26.146h-1.455V25.81c0.855-0.056,1.391-0.144,1.559-1.111h0.408v5.637h-0.512V26.146z"/>
	</g>
	<g>
		<path d="M7.734,48.053v-5.757h0.544v5.757H7.734z"/>
		<path d="M10.174,48.053H9.694v-4.142h0.479v0.576c0.384-0.408,0.76-0.688,1.335-0.688c0.504,0,0.967,0.16,1.263,0.591
			c0.2,0.296,0.208,0.608,0.208,0.952v2.71h-0.479V45.35c0-0.744-0.304-1.119-1.072-1.119c-0.591,0-1,0.384-1.151,0.808
			c-0.096,0.264-0.104,0.496-0.104,0.783V48.053z"/>
		<path d="M14.118,44.263c0-1.111,0.72-1.847,1.831-1.847c1.135,0,1.735,0.695,1.735,1.559c0,1.495-1.615,1.871-2.455,2.511
			c-0.368,0.28-0.711,0.6-0.735,1.135h3.142v0.432H13.95c0.008-0.536,0.08-0.959,0.44-1.375c1.175-1.359,2.734-1.343,2.734-2.67
			c0-0.735-0.544-1.159-1.239-1.159c-0.736,0-1.255,0.656-1.224,1.415H14.118z"/>
	</g>
	<g>
		<path d="M8.078,63.155v2.615H7.534v-5.757h2.255c1.263,0,1.959,0.448,1.959,1.511c0,0.728-0.272,1.111-0.936,1.407
			c0.68,0.232,0.72,0.951,0.735,1.559c0.024,0.872,0.096,1.111,0.24,1.223v0.056h-0.6c-0.224-0.392-0.167-1.471-0.256-1.911
			c-0.128-0.624-0.6-0.704-1.143-0.704H8.078z M9.773,62.691c0.808,0,1.431-0.336,1.431-1.144c0-0.864-0.671-1.071-1.399-1.071
			H8.078v2.215H9.773z"/>
		<path d="M13.102,63.81c-0.008,0.896,0.472,1.639,1.391,1.639c0.624,0,1.111-0.344,1.255-0.952h0.536
			c-0.24,0.784-0.735,1.383-1.791,1.383c-1.327,0-1.903-0.943-1.903-2.167c0-1.208,0.72-2.199,1.903-2.199
			c1.135,0,1.831,0.807,1.823,2.294H13.102z M15.804,63.411c0-0.808-0.448-1.463-1.312-1.463c-0.848,0-1.295,0.68-1.391,1.463
			H15.804z"/>
		<path d="M17.534,64.474c0.152,0.712,0.52,0.976,1.239,0.976c0.696,0,1.023-0.368,1.023-0.768c0-1.199-2.654-0.352-2.654-1.983
			c0-0.688,0.536-1.183,1.455-1.183c0.896,0,1.479,0.368,1.599,1.303h-0.488c-0.088-0.64-0.52-0.872-1.119-0.872
			c-0.608,0-0.936,0.288-0.936,0.711c0,1.127,2.654,0.424,2.654,2.015c0,0.792-0.711,1.207-1.687,1.207s-1.535-0.624-1.575-1.407
			H17.534z"/>
		<path d="M24.061,61.628h0.479v4.142h-0.479v-0.576c-0.256,0.288-0.608,0.688-1.335,0.688c-1.104,0-1.471-0.664-1.471-1.527v-2.727
			h0.48v2.718c0,0.712,0.312,1.104,1.063,1.104c0.792,0,1.264-0.656,1.264-1.567V61.628z"/>
		<path d="M25.774,65.769v-5.757h0.48v5.757H25.774z"/>
		<path d="M28.933,65.786c-0.112,0.024-0.32,0.096-0.552,0.096c-0.472,0-0.735-0.208-0.735-0.823v-3.03h-0.583v-0.4h0.583v-1.151
			h0.479v1.151h0.776v0.4h-0.776v2.838c0,0.408,0.016,0.583,0.416,0.583c0.128,0,0.264-0.024,0.392-0.056V65.786z"/>
	</g>
	<g>
		<path d="M80.989,63.051c0,1.495-0.352,2.83-1.903,2.83c-1.559,0-1.911-1.327-1.911-2.886c0-1.423,0.288-2.862,1.911-2.862
			C80.758,60.133,80.989,61.74,80.989,63.051z M79.07,60.564c-1.119,0-1.383,1.239-1.383,2.487c0,1.447,0.32,2.398,1.399,2.398
			c1.215,0,1.391-1.319,1.391-2.455C80.478,61.78,80.262,60.564,79.07,60.564z"/>
	</g>
	<g>
		<path d="M105.855,61.58H104.4v-0.335c0.855-0.056,1.391-0.144,1.559-1.111h0.408v5.637h-0.512V61.58z"/>
	</g>
	<g>
		<path d="M132.429,61.58h-1.455v-0.335c0.855-0.056,1.391-0.144,1.559-1.111h0.408v5.637h-0.512V61.58z"/>
	</g>
	<g>
		<path d="M159.004,61.58h-1.456v-0.335c0.856-0.056,1.392-0.144,1.56-1.111h0.408v5.637h-0.512V61.58z"/>
	</g>
	<g>
		<path d="M185.406,26.146h-1.455V25.81c0.855-0.056,1.392-0.144,1.56-1.111h0.407v5.637h-0.512V26.146z"/>
	</g>
	<g>
		<path d="M213.692,27.618c0,1.495-0.352,2.83-1.902,2.83c-1.56,0-1.911-1.327-1.911-2.886c0-1.423,0.288-2.862,1.911-2.862
			C213.46,24.699,213.692,26.306,213.692,27.618z M211.773,25.131c-1.119,0-1.383,1.239-1.383,2.487c0,1.447,0.32,2.398,1.399,2.398
			c1.215,0,1.391-1.319,1.391-2.455C213.18,26.346,212.964,25.131,211.773,25.131z"/>
	</g>
	<g>
		<path d="M238.557,26.146h-1.455V25.81c0.855-0.056,1.392-0.144,1.56-1.111h0.407v5.637h-0.512V26.146z"/>
	</g>
	<g>
		<path d="M265.131,26.146h-1.455V25.81c0.855-0.056,1.392-0.144,1.56-1.111h0.407v5.637h-0.512V26.146z"/>
	</g>
	<g>
		<path d="M291.706,26.146h-1.456V25.81c0.856-0.056,1.392-0.144,1.56-1.111h0.408v5.637h-0.512V26.146z"/>
	</g>
	<g>
		<path d="M187.117,45.334c0,1.495-0.352,2.83-1.902,2.83c-1.56,0-1.911-1.327-1.911-2.886c0-1.423,0.288-2.862,1.911-2.862
			C186.886,42.416,187.117,44.023,187.117,45.334z M185.198,42.848c-1.119,0-1.383,1.239-1.383,2.487
			c0,1.447,0.32,2.398,1.399,2.398c1.215,0,1.391-1.319,1.391-2.455C186.606,44.063,186.39,42.848,185.198,42.848z"/>
	</g>
	<g>
		<path d="M213.692,45.334c0,1.495-0.352,2.83-1.902,2.83c-1.56,0-1.911-1.327-1.911-2.886c0-1.423,0.288-2.862,1.911-2.862
			C213.46,42.416,213.692,44.023,213.692,45.334z M211.773,42.848c-1.119,0-1.383,1.239-1.383,2.487c0,1.447,0.32,2.398,1.399,2.398
			c1.215,0,1.391-1.319,1.391-2.455C213.18,44.063,212.964,42.848,211.773,42.848z"/>
	</g>
	<g>
		<path d="M238.557,43.863h-1.455v-0.335c0.855-0.056,1.392-0.144,1.56-1.111h0.407v5.637h-0.512V43.863z"/>
	</g>
	<g>
		<path d="M265.131,43.863h-1.455v-0.335c0.855-0.056,1.392-0.144,1.56-1.111h0.407v5.637h-0.512V43.863z"/>
	</g>
	<g>
		<path d="M293.417,45.334c0,1.495-0.353,2.83-1.903,2.83c-1.559,0-1.911-1.327-1.911-2.886c0-1.423,0.288-2.862,1.911-2.862
			C293.185,42.416,293.417,44.023,293.417,45.334z M291.498,42.848c-1.119,0-1.384,1.239-1.384,2.487
			c0,1.447,0.32,2.398,1.399,2.398c1.216,0,1.392-1.319,1.392-2.455C292.905,44.063,292.69,42.848,291.498,42.848z"/>
	</g>
	<g>
		<path d="M185.406,61.58h-1.455v-0.335c0.855-0.056,1.392-0.144,1.56-1.111h0.407v5.637h-0.512V61.58z"/>
	</g>
	<g>
		<path d="M213.692,63.051c0,1.495-0.352,2.83-1.902,2.83c-1.56,0-1.911-1.327-1.911-2.886c0-1.423,0.288-2.862,1.911-2.862
			C213.46,60.133,213.692,61.74,213.692,63.051z M211.773,60.564c-1.119,0-1.383,1.239-1.383,2.487c0,1.447,0.32,2.398,1.399,2.398
			c1.215,0,1.391-1.319,1.391-2.455C213.18,61.78,212.964,60.564,211.773,60.564z"/>
	</g>
	<g>
		<path d="M238.557,61.58h-1.455v-0.335c0.855-0.056,1.392-0.144,1.56-1.111h0.407v5.637h-0.512V61.58z"/>
	</g>
	<g>
		<path d="M265.131,61.58h-1.455v-0.335c0.855-0.056,1.392-0.144,1.56-1.111h0.407v5.637h-0.512V61.58z"/>
	</g>
	<g>
		<path d="M291.706,61.58h-1.456v-0.335c0.856-0.056,1.392-0.144,1.56-1.111h0.408v5.637h-0.512V61.58z"/>
	</g>
	<g>
		<path d="M318.453,26.146h-1.455V25.81c0.855-0.056,1.391-0.144,1.559-1.111h0.408v5.637h-0.512V26.146z"/>
	</g>
	<g>
		<path d="M346.738,27.618c0,1.495-0.352,2.83-1.903,2.83c-1.559,0-1.91-1.327-1.91-2.886c0-1.423,0.287-2.862,1.91-2.862
			C346.507,24.699,346.738,26.306,346.738,27.618z M344.819,25.131c-1.119,0-1.383,1.239-1.383,2.487
			c0,1.447,0.319,2.398,1.398,2.398c1.216,0,1.392-1.319,1.392-2.455C346.227,26.346,346.011,25.131,344.819,25.131z"/>
	</g>
	<g>
		<path d="M371.604,26.146h-1.455V25.81c0.855-0.056,1.391-0.144,1.559-1.111h0.408v5.637h-0.512V26.146z"/>
	</g>
	<g>
		<path d="M398.178,26.146h-1.455V25.81c0.855-0.056,1.391-0.144,1.559-1.111h0.408v5.637h-0.512V26.146z"/>
	</g>
	<g>
		<path d="M424.753,26.146h-1.456V25.81c0.856-0.056,1.392-0.144,1.56-1.111h0.408v5.637h-0.512V26.146z"/>
	</g>
	<g>
		<path d="M320.164,45.334c0,1.495-0.352,2.83-1.903,2.83c-1.559,0-1.91-1.327-1.91-2.886c0-1.423,0.287-2.862,1.91-2.862
			C319.933,42.416,320.164,44.023,320.164,45.334z M318.245,42.848c-1.119,0-1.383,1.239-1.383,2.487
			c0,1.447,0.319,2.398,1.398,2.398c1.216,0,1.392-1.319,1.392-2.455C319.652,44.063,319.437,42.848,318.245,42.848z"/>
	</g>
	<g>
		<path d="M346.738,45.334c0,1.495-0.352,2.83-1.903,2.83c-1.559,0-1.91-1.327-1.91-2.886c0-1.423,0.287-2.862,1.91-2.862
			C346.507,42.416,346.738,44.023,346.738,45.334z M344.819,42.848c-1.119,0-1.383,1.239-1.383,2.487
			c0,1.447,0.319,2.398,1.398,2.398c1.216,0,1.392-1.319,1.392-2.455C346.227,44.063,346.011,42.848,344.819,42.848z"/>
	</g>
	<g>
		<path d="M371.604,43.863h-1.455v-0.335c0.855-0.056,1.391-0.144,1.559-1.111h0.408v5.637h-0.512V43.863z"/>
	</g>
	<g>
		<path d="M398.178,43.863h-1.455v-0.335c0.855-0.056,1.391-0.144,1.559-1.111h0.408v5.637h-0.512V43.863z"/>
	</g>
	<g>
		<path d="M426.464,45.334c0,1.495-0.353,2.83-1.903,2.83c-1.559,0-1.911-1.327-1.911-2.886c0-1.423,0.288-2.862,1.911-2.862
			C426.232,42.416,426.464,44.023,426.464,45.334z M424.545,42.848c-1.119,0-1.384,1.239-1.384,2.487
			c0,1.447,0.32,2.398,1.399,2.398c1.216,0,1.392-1.319,1.392-2.455C425.952,44.063,425.736,42.848,424.545,42.848z"/>
	</g>
	<g>
		<path d="M318.453,61.58h-1.455v-0.335c0.855-0.056,1.391-0.144,1.559-1.111h0.408v5.637h-0.512V61.58z"/>
	</g>
	<g>
		<path d="M346.738,63.051c0,1.495-0.352,2.83-1.903,2.83c-1.559,0-1.91-1.327-1.91-2.886c0-1.423,0.287-2.862,1.91-2.862
			C346.507,60.133,346.738,61.74,346.738,63.051z M344.819,60.564c-1.119,0-1.383,1.239-1.383,2.487
			c0,1.447,0.319,2.398,1.398,2.398c1.216,0,1.392-1.319,1.392-2.455C346.227,61.78,346.011,60.564,344.819,60.564z"/>
	</g>
	<g>
		<path d="M371.604,61.58h-1.455v-0.335c0.855-0.056,1.391-0.144,1.559-1.111h0.408v5.637h-0.512V61.58z"/>
	</g>
	<g>
		<path d="M398.178,61.58h-1.455v-0.335c0.855-0.056,1.391-0.144,1.559-1.111h0.408v5.637h-0.512V61.58z"/>
	</g>
	<g>
		<path d="M424.753,61.58h-1.456v-0.335c0.856-0.056,1.392-0.144,1.56-1.111h0.408v5.637h-0.512V61.58z"/>
	</g>
	<g>
		<path d="M451.798,26.146h-1.456V25.81c0.856-0.056,1.392-0.144,1.56-1.111h0.408v5.637h-0.512V26.146z"/>
	</g>
	<g>
		<path d="M453.509,45.334c0,1.495-0.353,2.83-1.903,2.83c-1.559,0-1.911-1.327-1.911-2.886c0-1.423,0.288-2.862,1.911-2.862
			C453.277,42.416,453.509,44.023,453.509,45.334z M451.59,42.848c-1.119,0-1.384,1.239-1.384,2.487c0,1.447,0.32,2.398,1.399,2.398
			c1.216,0,1.392-1.319,1.392-2.455C452.997,44.063,452.781,42.848,451.59,42.848z"/>
	</g>
	<g>
		<path d="M451.798,61.58h-1.456v-0.335c0.856-0.056,1.392-0.144,1.56-1.111h0.408v5.637h-0.512V61.58z"/>
	</g>
	<g>
		<path d="M46.957,12.043h-0.479V6.286h0.479v2.279c0.304-0.504,0.896-0.775,1.479-0.775c1.263,0,1.847,1.031,1.847,2.19
			c0,1.224-0.536,2.175-1.871,2.175c-0.527,0-1.159-0.296-1.439-0.839h-0.016V12.043z M48.357,11.723
			c0.808,0,1.407-0.583,1.415-1.623c0.04-1.04-0.424-1.879-1.415-1.879c-0.872,0-1.399,0.799-1.399,1.735
			C46.957,10.956,47.453,11.723,48.357,11.723z"/>
		<path d="M51.357,6.998V6.286h0.528v0.711H51.357z M51.381,12.043V7.901h0.48v4.142H51.381z"/>
		<path d="M54.541,12.059c-0.112,0.024-0.32,0.096-0.552,0.096c-0.472,0-0.735-0.208-0.735-0.823v-3.03H52.67v-0.4h0.583V6.75h0.479
			v1.151h0.776v0.4h-0.776v2.838c0,0.408,0.016,0.583,0.416,0.583c0.128,0,0.264-0.024,0.392-0.056V12.059z"/>
		<path d="M58.86,9.325c0,1.495-0.352,2.83-1.903,2.83c-1.559,0-1.911-1.327-1.911-2.886c0-1.423,0.288-2.862,1.911-2.862
			C58.628,6.406,58.86,8.013,58.86,9.325z M56.941,6.838c-1.12,0-1.383,1.239-1.383,2.487c0,1.447,0.32,2.398,1.399,2.398
			c1.215,0,1.392-1.319,1.392-2.455C58.348,8.053,58.132,6.838,56.941,6.838z"/>
	</g>
	<g>
		<path d="M73.531,12.043h-0.479V6.286h0.479v2.279c0.304-0.504,0.896-0.775,1.479-0.775c1.263,0,1.847,1.031,1.847,2.19
			c0,1.224-0.536,2.175-1.871,2.175c-0.527,0-1.159-0.296-1.439-0.839h-0.016V12.043z M74.931,11.723
			c0.808,0,1.407-0.583,1.415-1.623c0.04-1.04-0.424-1.879-1.415-1.879c-0.872,0-1.399,0.799-1.399,1.735
			C73.531,10.956,74.027,11.723,74.931,11.723z"/>
		<path d="M77.931,6.998V6.286h0.528v0.711H77.931z M77.955,12.043V7.901h0.48v4.142H77.955z"/>
		<path d="M81.115,12.059c-0.112,0.024-0.32,0.096-0.552,0.096c-0.472,0-0.735-0.208-0.735-0.823v-3.03h-0.583v-0.4h0.583V6.75
			h0.479v1.151h0.776v0.4h-0.776v2.838c0,0.408,0.016,0.583,0.416,0.583c0.128,0,0.264-0.024,0.392-0.056V12.059z"/>
		<path d="M83.722,7.853h-1.455V7.518c0.855-0.056,1.391-0.144,1.559-1.111h0.408v5.637h-0.512V7.853z"/>
	</g>
	<g>
		<path d="M100.108,12.043h-0.479V6.286h0.479v2.279c0.304-0.504,0.896-0.775,1.479-0.775c1.263,0,1.847,1.031,1.847,2.19
			c0,1.224-0.536,2.175-1.871,2.175c-0.527,0-1.159-0.296-1.439-0.839h-0.016V12.043z M101.507,11.723
			c0.808,0,1.407-0.583,1.415-1.623c0.04-1.04-0.424-1.879-1.415-1.879c-0.872,0-1.399,0.799-1.399,1.735
			C100.108,10.956,100.603,11.723,101.507,11.723z"/>
		<path d="M104.507,6.998V6.286h0.528v0.711H104.507z M104.531,12.043V7.901h0.48v4.142H104.531z"/>
		<path d="M107.691,12.059c-0.112,0.024-0.32,0.096-0.552,0.096c-0.472,0-0.735-0.208-0.735-0.823v-3.03h-0.583v-0.4h0.583V6.75
			h0.479v1.151h0.776v0.4h-0.776v2.838c0,0.408,0.016,0.583,0.416,0.583c0.128,0,0.264-0.024,0.392-0.056V12.059z"/>
		<path d="M108.436,8.253c0-1.111,0.72-1.847,1.831-1.847c1.135,0,1.735,0.695,1.735,1.559c0,1.495-1.615,1.871-2.455,2.511
			c-0.368,0.28-0.711,0.6-0.735,1.135h3.142v0.432h-3.686c0.008-0.536,0.08-0.959,0.44-1.375c1.175-1.359,2.734-1.343,2.734-2.67
			c0-0.735-0.544-1.159-1.239-1.159c-0.736,0-1.255,0.656-1.224,1.415H108.436z"/>
	</g>
	<g>
		<path d="M126.682,12.043h-0.479V6.286h0.479v2.279c0.304-0.504,0.896-0.775,1.479-0.775c1.263,0,1.847,1.031,1.847,2.19
			c0,1.224-0.536,2.175-1.871,2.175c-0.527,0-1.159-0.296-1.439-0.839h-0.016V12.043z M128.081,11.723
			c0.808,0,1.407-0.583,1.415-1.623c0.04-1.04-0.424-1.879-1.415-1.879c-0.872,0-1.399,0.799-1.399,1.735
			C126.682,10.956,127.177,11.723,128.081,11.723z"/>
		<path d="M131.082,6.998V6.286h0.528v0.711H131.082z M131.106,12.043V7.901h0.48v4.142H131.106z"/>
		<path d="M134.265,12.059c-0.112,0.024-0.32,0.096-0.552,0.096c-0.472,0-0.735-0.208-0.735-0.823v-3.03h-0.583v-0.4h0.583V6.75
			h0.479v1.151h0.776v0.4h-0.776v2.838c0,0.408,0.016,0.583,0.416,0.583c0.128,0,0.264-0.024,0.392-0.056V12.059z"/>
		<path d="M136.225,8.909c0.952,0.008,1.615-0.216,1.615-1.08c0-0.695-0.552-0.991-1.199-0.991c-0.72,0-1.207,0.503-1.207,1.208
			h-0.512c0-0.504,0.168-0.912,0.544-1.264c0.352-0.32,0.815-0.375,1.279-0.375c0.887,0,1.606,0.448,1.606,1.391
			c0,0.583-0.256,1.023-0.799,1.255c0.815,0.256,0.999,0.872,0.999,1.391c0,0.928-0.655,1.679-1.815,1.711
			c-1.303,0-1.887-0.432-2.006-1.743h0.512c0,0.856,0.568,1.312,1.399,1.312c0.815,0,1.432-0.607,1.399-1.271
			c-0.032-0.911-0.823-1.199-1.815-1.127V8.909z"/>
	</g>
	<g>
		<path d="M153.256,12.043h-0.479V6.286h0.479v2.279c0.304-0.504,0.896-0.775,1.479-0.775c1.263,0,1.847,1.031,1.847,2.19
			c0,1.224-0.536,2.175-1.871,2.175c-0.527,0-1.159-0.296-1.439-0.839h-0.016V12.043z M154.655,11.723
			c0.808,0,1.407-0.583,1.415-1.623c0.04-1.04-0.424-1.879-1.415-1.879c-0.872,0-1.399,0.799-1.399,1.735
			C153.256,10.956,153.752,11.723,154.655,11.723z"/>
		<path d="M157.656,6.998V6.286h0.527v0.711H157.656z M157.68,12.043V7.901h0.479v4.142H157.68z"/>
		<path d="M160.84,12.059c-0.112,0.024-0.32,0.096-0.552,0.096c-0.472,0-0.736-0.208-0.736-0.823v-3.03h-0.583v-0.4h0.583V6.75h0.48
			v1.151h0.775v0.4h-0.775v2.838c0,0.408,0.016,0.583,0.415,0.583c0.128,0,0.265-0.024,0.393-0.056V12.059z"/>
		<path d="M163.895,10.652h-2.574v-0.44l2.622-3.75h0.464v3.758h0.784v0.432h-0.784v1.391h-0.512V10.652z M161.824,10.22h2.07V7.229
			L161.824,10.22z"/>
	</g>
	<g>
		<path d="M179.659,12.043h-0.479V6.286h0.479v2.279c0.304-0.504,0.896-0.775,1.479-0.775c1.264,0,1.847,1.031,1.847,2.19
			c0,1.224-0.535,2.175-1.871,2.175c-0.527,0-1.159-0.296-1.438-0.839h-0.017V12.043z M181.059,11.723
			c0.808,0,1.407-0.583,1.415-1.623c0.04-1.04-0.424-1.879-1.415-1.879c-0.871,0-1.399,0.799-1.399,1.735
			C179.659,10.956,180.155,11.723,181.059,11.723z"/>
		<path d="M184.06,6.998V6.286h0.527v0.711H184.06z M184.083,12.043V7.901h0.48v4.142H184.083z"/>
		<path d="M187.243,12.059c-0.112,0.024-0.32,0.096-0.552,0.096c-0.472,0-0.735-0.208-0.735-0.823v-3.03h-0.584v-0.4h0.584V6.75
			h0.479v1.151h0.775v0.4h-0.775v2.838c0,0.408,0.016,0.583,0.416,0.583c0.128,0,0.264-0.024,0.392-0.056V12.059z"/>
		<path d="M188.228,10.58c0.104,0.76,0.655,1.144,1.391,1.144c0.84,0,1.352-0.64,1.352-1.439c0-0.839-0.544-1.431-1.399-1.431
			c-0.504,0-0.911,0.176-1.223,0.584l-0.424-0.056l0.455-2.918h2.799v0.432h-2.367l-0.352,1.895c0.44-0.288,0.728-0.368,1.239-0.368
			c1.031,0,1.783,0.704,1.783,1.863c0,1.184-0.855,1.871-1.783,1.871c-1.063,0-1.895-0.408-1.982-1.575H188.228z"/>
	</g>
	<g>
		<path d="M206.234,12.043h-0.479V6.286h0.479v2.279c0.304-0.504,0.896-0.775,1.479-0.775c1.264,0,1.847,1.031,1.847,2.19
			c0,1.224-0.535,2.175-1.871,2.175c-0.527,0-1.159-0.296-1.438-0.839h-0.017V12.043z M207.633,11.723
			c0.808,0,1.407-0.583,1.415-1.623c0.04-1.04-0.424-1.879-1.415-1.879c-0.871,0-1.399,0.799-1.399,1.735
			C206.234,10.956,206.73,11.723,207.633,11.723z"/>
		<path d="M210.634,6.998V6.286h0.527v0.711H210.634z M210.657,12.043V7.901h0.48v4.142H210.657z"/>
		<path d="M213.818,12.059c-0.112,0.024-0.32,0.096-0.552,0.096c-0.472,0-0.735-0.208-0.735-0.823v-3.03h-0.584v-0.4h0.584V6.75
			h0.479v1.151h0.775v0.4h-0.775v2.838c0,0.408,0.016,0.583,0.416,0.583c0.128,0,0.264-0.024,0.392-0.056V12.059z"/>
		<path d="M217.504,7.789c-0.111-0.576-0.472-0.952-1.071-0.952c-1.383,0-1.503,1.487-1.583,2.55
			c0.319-0.432,0.655-0.879,1.479-0.879c1.135,0,1.791,0.688,1.791,1.815c0,1.136-0.664,1.831-1.808,1.831
			c-1.127,0-1.975-0.704-1.975-2.694c0-1.335,0.392-3.054,2.047-3.054c0.888,0,1.543,0.479,1.647,1.383H217.504z M215.041,10.34
			c0,0.632,0.353,1.383,1.279,1.383c0.952,0,1.288-0.735,1.288-1.415c0-0.872-0.416-1.367-1.296-1.367
			C215.522,8.941,215.041,9.581,215.041,10.34z"/>
	</g>
	<g>
		<path d="M232.81,12.043h-0.479V6.286h0.479v2.279c0.304-0.504,0.896-0.775,1.479-0.775c1.264,0,1.847,1.031,1.847,2.19
			c0,1.224-0.535,2.175-1.871,2.175c-0.527,0-1.159-0.296-1.438-0.839h-0.017V12.043z M234.209,11.723
			c0.808,0,1.407-0.583,1.415-1.623c0.04-1.04-0.424-1.879-1.415-1.879c-0.871,0-1.399,0.799-1.399,1.735
			C232.81,10.956,233.306,11.723,234.209,11.723z"/>
		<path d="M237.21,6.998V6.286h0.527v0.711H237.21z M237.234,12.043V7.901h0.48v4.142H237.234z"/>
		<path d="M240.394,12.059c-0.112,0.024-0.32,0.096-0.552,0.096c-0.472,0-0.735-0.208-0.735-0.823v-3.03h-0.584v-0.4h0.584V6.75
			h0.479v1.151h0.775v0.4h-0.775v2.838c0,0.408,0.016,0.583,0.416,0.583c0.128,0,0.264-0.024,0.392-0.056V12.059z"/>
		<path d="M241.058,6.462h3.59v0.48c-1.614,1.823-2.223,3.998-2.286,5.101h-0.56c0.111-1.631,1.151-3.742,2.23-5.069h-2.975V6.462z"
			/>
	</g>
	<g>
		<path d="M259.384,12.043h-0.479V6.286h0.479v2.279c0.304-0.504,0.896-0.775,1.479-0.775c1.264,0,1.847,1.031,1.847,2.19
			c0,1.224-0.535,2.175-1.871,2.175c-0.527,0-1.159-0.296-1.438-0.839h-0.017V12.043z M260.783,11.723
			c0.808,0,1.407-0.583,1.415-1.623c0.04-1.04-0.424-1.879-1.415-1.879c-0.871,0-1.399,0.799-1.399,1.735
			C259.384,10.956,259.88,11.723,260.783,11.723z"/>
		<path d="M263.784,6.998V6.286h0.527v0.711H263.784z M263.808,12.043V7.901h0.48v4.142H263.808z"/>
		<path d="M266.968,12.059c-0.112,0.024-0.32,0.096-0.552,0.096c-0.472,0-0.735-0.208-0.735-0.823v-3.03h-0.584v-0.4h0.584V6.75
			h0.479v1.151h0.775v0.4h-0.775v2.838c0,0.408,0.016,0.583,0.416,0.583c0.128,0,0.264-0.024,0.392-0.056V12.059z"/>
		<path d="M267.712,7.781c0-0.775,0.72-1.407,1.607-1.375c0.863,0,1.703,0.408,1.703,1.375c0,0.583-0.232,1-0.768,1.263
			c0.615,0.224,0.999,0.744,0.999,1.399c0,1.104-0.783,1.711-1.982,1.711c-0.816,0-1.76-0.56-1.76-1.663
			c0-0.671,0.345-1.231,0.983-1.479C267.952,8.669,267.712,8.453,267.712,7.781z M268.024,10.492c0,0.696,0.544,1.231,1.399,1.231
			c0.743,0,1.319-0.512,1.319-1.263c0-0.792-0.6-1.175-1.352-1.175C268.608,9.285,268.024,9.66,268.024,10.492z M268.224,7.853
			c0,0.696,0.575,1,1.199,1c0.616,0,1.088-0.312,1.088-1.111c0-0.567-0.368-0.903-1.144-0.903
			C268.736,6.838,268.224,7.189,268.224,7.853z"/>
	</g>
	<g>
		<path d="M285.958,12.043h-0.479V6.286h0.479v2.279c0.304-0.504,0.896-0.775,1.479-0.775c1.263,0,1.847,1.031,1.847,2.19
			c0,1.224-0.536,2.175-1.871,2.175c-0.527,0-1.159-0.296-1.439-0.839h-0.016V12.043z M287.358,11.723
			c0.808,0,1.407-0.583,1.415-1.623c0.04-1.04-0.424-1.879-1.415-1.879c-0.872,0-1.399,0.799-1.399,1.735
			C285.958,10.956,286.454,11.723,287.358,11.723z"/>
		<path d="M290.359,6.998V6.286h0.527v0.711H290.359z M290.382,12.043V7.901h0.479v4.142H290.382z"/>
		<path d="M293.542,12.059c-0.112,0.024-0.32,0.096-0.552,0.096c-0.472,0-0.736-0.208-0.736-0.823v-3.03h-0.583v-0.4h0.583V6.75
			h0.48v1.151h0.775v0.4h-0.775v2.838c0,0.408,0.016,0.583,0.415,0.583c0.128,0,0.265-0.024,0.393-0.056V12.059z"/>
		<path d="M294.678,10.804c0.12,0.6,0.472,0.919,1.096,0.919c1.335,0,1.519-1.487,1.567-2.502l-0.017-0.016
			c-0.344,0.567-0.848,0.879-1.519,0.879c-1.056,0-1.743-0.72-1.743-1.815c0-1.063,0.583-1.863,1.814-1.863
			c1.52,0,1.976,1.271,1.976,2.846c0,1.911-0.864,2.902-2.056,2.902c-0.879,0-1.551-0.432-1.639-1.351H294.678z M294.574,8.285
			c0,0.855,0.479,1.367,1.303,1.367c0.8,0,1.264-0.64,1.264-1.399c0-0.832-0.472-1.399-1.264-1.415
			C295.014,6.854,294.574,7.406,294.574,8.285z"/>
	</g>
	<g>
		<path d="M310.482,12.043h-0.479V6.286h0.479v2.279c0.304-0.504,0.896-0.775,1.479-0.775c1.264,0,1.848,1.031,1.848,2.19
			c0,1.224-0.535,2.175-1.871,2.175c-0.527,0-1.159-0.296-1.439-0.839h-0.016V12.043z M311.881,11.723
			c0.808,0,1.407-0.583,1.415-1.623c0.04-1.04-0.424-1.879-1.415-1.879c-0.872,0-1.399,0.799-1.399,1.735
			C310.482,10.956,310.978,11.723,311.881,11.723z"/>
		<path d="M314.882,6.998V6.286h0.527v0.711H314.882z M314.905,12.043V7.901h0.48v4.142H314.905z"/>
		<path d="M318.065,12.059c-0.112,0.024-0.319,0.096-0.552,0.096c-0.472,0-0.735-0.208-0.735-0.823v-3.03h-0.583v-0.4h0.583V6.75
			h0.479v1.151h0.775v0.4h-0.775v2.838c0,0.408,0.016,0.583,0.416,0.583c0.128,0,0.264-0.024,0.392-0.056V12.059z"/>
		<path d="M320.673,7.853h-1.455V7.518c0.855-0.056,1.391-0.144,1.559-1.111h0.408v5.637h-0.512V7.853z"/>
		<path d="M326.831,9.325c0,1.495-0.352,2.83-1.902,2.83c-1.559,0-1.91-1.327-1.91-2.886c0-1.423,0.287-2.862,1.91-2.862
			C326.601,6.406,326.831,8.013,326.831,9.325z M324.913,6.838c-1.119,0-1.383,1.239-1.383,2.487c0,1.447,0.319,2.398,1.398,2.398
			c1.215,0,1.391-1.319,1.391-2.455C326.319,8.053,326.105,6.838,324.913,6.838z"/>
	</g>
	<g>
		<path d="M337.056,12.043h-0.479V6.286h0.479v2.279c0.304-0.504,0.896-0.775,1.479-0.775c1.264,0,1.848,1.031,1.848,2.19
			c0,1.224-0.535,2.175-1.871,2.175c-0.527,0-1.159-0.296-1.439-0.839h-0.016V12.043z M338.455,11.723
			c0.808,0,1.407-0.583,1.415-1.623c0.04-1.04-0.424-1.879-1.415-1.879c-0.872,0-1.399,0.799-1.399,1.735
			C337.056,10.956,337.552,11.723,338.455,11.723z"/>
		<path d="M341.456,6.998V6.286h0.527v0.711H341.456z M341.48,12.043V7.901h0.48v4.142H341.48z"/>
		<path d="M344.639,12.059c-0.112,0.024-0.319,0.096-0.552,0.096c-0.472,0-0.735-0.208-0.735-0.823v-3.03h-0.583v-0.4h0.583V6.75
			h0.479v1.151h0.775v0.4h-0.775v2.838c0,0.408,0.016,0.583,0.416,0.583c0.128,0,0.264-0.024,0.392-0.056V12.059z"/>
		<path d="M347.247,7.853h-1.455V7.518c0.855-0.056,1.391-0.144,1.559-1.111h0.408v5.637h-0.512V7.853z"/>
		<path d="M351.694,7.853h-1.455V7.518c0.855-0.056,1.392-0.144,1.56-1.111h0.407v5.637h-0.512V7.853z"/>
	</g>
	<g>
		<path d="M363.632,12.043h-0.479V6.286h0.479v2.279c0.304-0.504,0.896-0.775,1.479-0.775c1.264,0,1.848,1.031,1.848,2.19
			c0,1.224-0.535,2.175-1.871,2.175c-0.527,0-1.159-0.296-1.439-0.839h-0.016V12.043z M365.031,11.723
			c0.808,0,1.407-0.583,1.415-1.623c0.04-1.04-0.424-1.879-1.415-1.879c-0.872,0-1.399,0.799-1.399,1.735
			C363.632,10.956,364.128,11.723,365.031,11.723z"/>
		<path d="M368.032,6.998V6.286h0.527v0.711H368.032z M368.056,12.043V7.901h0.48v4.142H368.056z"/>
		<path d="M371.215,12.059c-0.112,0.024-0.319,0.096-0.552,0.096c-0.472,0-0.735-0.208-0.735-0.823v-3.03h-0.583v-0.4h0.583V6.75
			h0.479v1.151h0.775v0.4h-0.775v2.838c0,0.408,0.016,0.583,0.416,0.583c0.128,0,0.264-0.024,0.392-0.056V12.059z"/>
		<path d="M373.823,7.853h-1.455V7.518c0.855-0.056,1.391-0.144,1.559-1.111h0.408v5.637h-0.512V7.853z"/>
		<path d="M376.408,8.253c0-1.111,0.72-1.847,1.831-1.847c1.135,0,1.734,0.695,1.734,1.559c0,1.495-1.615,1.871-2.454,2.511
			c-0.368,0.28-0.712,0.6-0.735,1.135h3.143v0.432h-3.687c0.008-0.536,0.08-0.959,0.44-1.375c1.175-1.359,2.734-1.343,2.734-2.67
			c0-0.735-0.545-1.159-1.24-1.159c-0.735,0-1.255,0.656-1.223,1.415H376.408z"/>
	</g>
	<g>
		<path d="M390.206,12.043h-0.479V6.286h0.479v2.279c0.304-0.504,0.896-0.775,1.479-0.775c1.264,0,1.848,1.031,1.848,2.19
			c0,1.224-0.535,2.175-1.871,2.175c-0.527,0-1.159-0.296-1.439-0.839h-0.016V12.043z M391.606,11.723
			c0.808,0,1.407-0.583,1.415-1.623c0.04-1.04-0.424-1.879-1.415-1.879c-0.872,0-1.399,0.799-1.399,1.735
			C390.206,10.956,390.702,11.723,391.606,11.723z"/>
		<path d="M394.607,6.998V6.286h0.527v0.711H394.607z M394.63,12.043V7.901h0.48v4.142H394.63z"/>
		<path d="M397.789,12.059c-0.112,0.024-0.319,0.096-0.552,0.096c-0.472,0-0.735-0.208-0.735-0.823v-3.03h-0.583v-0.4h0.583V6.75
			h0.479v1.151h0.775v0.4h-0.775v2.838c0,0.408,0.016,0.583,0.416,0.583c0.128,0,0.264-0.024,0.392-0.056V12.059z"/>
		<path d="M400.398,7.853h-1.455V7.518c0.855-0.056,1.391-0.144,1.559-1.111h0.408v5.637h-0.512V7.853z"/>
		<path d="M404.196,8.909c0.953,0.008,1.615-0.216,1.615-1.08c0-0.695-0.551-0.991-1.199-0.991c-0.719,0-1.207,0.503-1.207,1.208
			h-0.512c0-0.504,0.168-0.912,0.545-1.264c0.352-0.32,0.814-0.375,1.279-0.375c0.887,0,1.605,0.448,1.605,1.391
			c0,0.583-0.256,1.023-0.799,1.255c0.816,0.256,1,0.872,1,1.391c0,0.928-0.656,1.679-1.816,1.711c-1.303,0-1.887-0.432-2.006-1.743
			h0.512c0,0.856,0.568,1.312,1.398,1.312c0.816,0,1.432-0.607,1.4-1.271c-0.033-0.911-0.824-1.199-1.816-1.127V8.909z"/>
	</g>
	<g>
		<path d="M416.78,12.043h-0.479V6.286h0.479v2.279c0.305-0.504,0.896-0.775,1.48-0.775c1.262,0,1.846,1.031,1.846,2.19
			c0,1.224-0.535,2.175-1.871,2.175c-0.527,0-1.158-0.296-1.439-0.839h-0.016V12.043z M418.181,11.723
			c0.807,0,1.406-0.583,1.414-1.623c0.041-1.04-0.424-1.879-1.414-1.879c-0.873,0-1.4,0.799-1.4,1.735
			C416.78,10.956,417.277,11.723,418.181,11.723z"/>
		<path d="M421.181,6.998V6.286h0.527v0.711H421.181z M421.204,12.043V7.901h0.48v4.142H421.204z"/>
		<path d="M424.364,12.059c-0.111,0.024-0.32,0.096-0.551,0.096c-0.473,0-0.736-0.208-0.736-0.823v-3.03h-0.584v-0.4h0.584V6.75
			h0.48v1.151h0.775v0.4h-0.775v2.838c0,0.408,0.016,0.583,0.414,0.583c0.129,0,0.266-0.024,0.393-0.056V12.059z"/>
		<path d="M426.972,7.853h-1.455V7.518c0.855-0.056,1.391-0.144,1.559-1.111h0.408v5.637h-0.512V7.853z"/>
		<path d="M431.868,10.652h-2.574v-0.44l2.621-3.75h0.465v3.758h0.783v0.432h-0.783v1.391h-0.512V10.652z M429.798,10.22h2.07V7.229
			L429.798,10.22z"/>
	</g>
	<g>
		<path d="M443.826,12.043h-0.479V6.286h0.479v2.279c0.304-0.504,0.896-0.775,1.479-0.775c1.264,0,1.848,1.031,1.848,2.19
			c0,1.224-0.536,2.175-1.871,2.175c-0.527,0-1.159-0.296-1.439-0.839h-0.016V12.043z M445.226,11.723
			c0.808,0,1.407-0.583,1.415-1.623c0.04-1.04-0.424-1.879-1.415-1.879c-0.872,0-1.399,0.799-1.399,1.735
			C443.826,10.956,444.321,11.723,445.226,11.723z"/>
		<path d="M448.227,6.998V6.286h0.527v0.711H448.227z M448.25,12.043V7.901h0.48v4.142H448.25z"/>
		<path d="M451.409,12.059c-0.112,0.024-0.32,0.096-0.552,0.096c-0.472,0-0.735-0.208-0.735-0.823v-3.03h-0.584v-0.4h0.584V6.75
			h0.479v1.151h0.775v0.4h-0.775v2.838c0,0.408,0.016,0.583,0.416,0.583c0.128,0,0.264-0.024,0.392-0.056V12.059z"/>
		<path d="M454.017,7.853h-1.455V7.518c0.855-0.056,1.392-0.144,1.56-1.111h0.407v5.637h-0.512V7.853z"/>
		<path d="M456.842,10.58c0.104,0.76,0.656,1.144,1.392,1.144c0.84,0,1.352-0.64,1.352-1.439c0-0.839-0.544-1.431-1.399-1.431
			c-0.504,0-0.912,0.176-1.224,0.584l-0.424-0.056l0.456-2.918h2.798v0.432h-2.366l-0.352,1.895
			c0.439-0.288,0.728-0.368,1.239-0.368c1.031,0,1.783,0.704,1.783,1.863c0,1.184-0.855,1.871-1.783,1.871
			c-1.063,0-1.896-0.408-1.983-1.575H456.842z"/>
	</g>
	<g>
	</g>
	<g>
	</g>
	<g>
	</g>
	<g>
	</g>
	<g>
	</g>
	<g>
	</g>
	<g>
	</g>
	<g>
	</g>
	<g>
	</g>
	<g>
	</g>
	<g>
	</g>
	<g>
	</g>
	<g>
	</g>
	<g>
	</g>
	<g>
	</g>
</g>
</svg>
