<?xml version="1.0" encoding="utf-8"?>
<!-- Generator: Adobe Illustrator 28.2.0, SVG Export Plug-In . SVG Version: 6.00 Build 0)  -->
<svg version="1.1" id="图层_1" xmlns="http://www.w3.org/2000/svg" xmlns:xlink="http://www.w3.org/1999/xlink" x="0px" y="0px"
	 width="511.236px" height="121.109px" viewBox="0 0 511.236 121.109" style="enable-background:new 0 0 511.236 121.109;"
	 xml:space="preserve">
<style type="text/css">
	.st0{fill:none;stroke:#000000;}
	.st1{fill:#FFFFFF;}
	.st2{fill:#FFFFFF;stroke:#231815;}
	.st3{fill:#231815;}
	.st4{fill:#FFFFFF;stroke:#000000;}
</style>
<line class="st0" x1="395.122" y1="24.222" x2="510.736" y2="24.222"/>
<line class="st0" x1="83.452" y1="24.222" x2="395.122" y2="24.222"/>
<line class="st0" x1="0.5" y1="24.222" x2="83.452" y2="24.222"/>
<polyline class="st0" points="427.69,24.221 427.69,93.427 510.736,93.427 "/>
<line class="st0" x1="0.5" y1="0" x2="0.5" y2="121.109"/>
<line class="st0" x1="510.736" y1="0" x2="510.736" y2="121.109"/>
<g>
	<rect x="35.103" y="17.301" class="st1" width="13.842" height="13.843"/>
	<line class="st0" x1="48.944" y1="17.301" x2="48.944" y2="31.143"/>
	<line class="st0" x1="35.103" y1="31.143" x2="35.103" y2="17.301"/>
</g>
<path class="st2" d="M476.134,93.424c0,3.824-3.099,6.924-6.924,6.924c-3.82,0-6.919-3.099-6.919-6.924
	c0-3.82,3.099-6.919,6.919-6.919C473.035,86.505,476.134,89.605,476.134,93.424z"/>
<path class="st2" d="M476.134,24.219c0,3.824-3.099,6.924-6.924,6.924c-3.82,0-6.919-3.1-6.919-6.924
	c0-3.819,3.099-6.919,6.919-6.919C473.035,17.3,476.134,20.399,476.134,24.219z"/>
<g>
	<path class="st3" d="M29.887,4.917h4.662v0.688h-1.943v5.053H31.83V5.605h-1.943V4.917z"/>
	<path class="st3" d="M35.023,10.658h-0.704V6.476h0.664v0.696h0.016c0.28-0.488,0.647-0.816,1.175-0.816
		c0.088,0,0.128,0.008,0.184,0.024v0.728h-0.264c-0.656,0-1.071,0.512-1.071,1.12V10.658z"/>
	<path class="st3" d="M37.023,5.716V4.917h0.704v0.799H37.023z M37.727,10.658h-0.704V6.476h0.704V10.658z"/>
	<path class="st3" d="M42.253,10.314c0,0.6-0.008,2.103-1.943,2.103c-0.496,0-1.463-0.136-1.599-1.248h0.704
		c0.128,0.664,0.775,0.664,0.943,0.664c1.215,0,1.191-0.976,1.191-1.471v-0.176h-0.016v0.032c-0.184,0.296-0.551,0.56-1.111,0.56
		c-1.423,0-1.839-1.335-1.839-2.335c0-1.175,0.632-2.087,1.743-2.087c0.759,0,1.079,0.472,1.247,0.712h0.016V6.476h0.664V10.314z
		 M40.438,10.17c0.448,0,1.144-0.296,1.144-1.407c0-0.68-0.112-1.775-1.127-1.775c-1.087,0-1.144,1.031-1.144,1.567
		C39.311,9.475,39.671,10.17,40.438,10.17z"/>
	<path class="st3" d="M46.701,10.314c0,0.6-0.008,2.103-1.943,2.103c-0.496,0-1.463-0.136-1.599-1.248h0.704
		c0.128,0.664,0.775,0.664,0.943,0.664c1.215,0,1.191-0.976,1.191-1.471v-0.176h-0.016v0.032c-0.184,0.296-0.551,0.56-1.111,0.56
		c-1.423,0-1.839-1.335-1.839-2.335c0-1.175,0.632-2.087,1.743-2.087c0.759,0,1.079,0.472,1.247,0.712h0.016V6.476h0.664V10.314z
		 M44.886,10.17c0.448,0,1.144-0.296,1.144-1.407c0-0.68-0.112-1.775-1.127-1.775c-1.087,0-1.144,1.031-1.144,1.567
		C43.759,9.475,44.119,10.17,44.886,10.17z"/>
	<path class="st3" d="M51.229,9.347c-0.024,0.2-0.216,0.792-0.744,1.143c-0.192,0.128-0.464,0.288-1.135,0.288
		c-1.175,0-1.871-0.888-1.871-2.095c0-1.295,0.624-2.327,2.007-2.327c1.208,0,1.799,0.959,1.799,2.439h-3.054
		c0,0.871,0.408,1.375,1.215,1.375c0.664,0,1.056-0.512,1.08-0.823H51.229z M50.557,8.235c-0.04-0.647-0.312-1.247-1.167-1.247
		c-0.648,0-1.16,0.6-1.16,1.247H50.557z"/>
	<path class="st3" d="M52.926,10.658h-0.704V6.476h0.664v0.696h0.016c0.28-0.488,0.647-0.816,1.175-0.816
		c0.088,0,0.128,0.008,0.184,0.024v0.728h-0.264c-0.656,0-1.071,0.512-1.071,1.12V10.658z"/>
</g>
<g>
	<path d="M463.858,4.915h2.327c1.495,0,2.414,1.135,2.414,2.791c0,1.287-0.56,2.95-2.446,2.95h-2.295V4.915z M464.633,9.992h1.504
		c1.007,0,1.663-0.792,1.663-2.239s-0.664-2.175-1.72-2.175h-1.447V9.992z"/>
	<path d="M471.88,7.666c-0.008-0.264-0.104-0.704-0.991-0.704c-0.216,0-0.832,0.072-0.832,0.592c0,0.344,0.216,0.423,0.76,0.56
		l0.703,0.176c0.872,0.216,1.176,0.536,1.176,1.104c0,0.863-0.712,1.383-1.655,1.383c-1.655,0-1.774-0.959-1.799-1.463h0.68
		c0.023,0.328,0.12,0.855,1.111,0.855c0.504,0,0.959-0.2,0.959-0.664c0-0.336-0.231-0.448-0.831-0.6l-0.815-0.2
		c-0.584-0.144-0.968-0.44-0.968-1.016c0-0.919,0.76-1.335,1.583-1.335c1.495,0,1.6,1.104,1.6,1.312H471.88z"/>
	<path d="M474.369,7.058v2.719c0,0.328,0.28,0.328,0.424,0.328h0.248v0.552c-0.256,0.024-0.455,0.056-0.527,0.056
		c-0.695,0-0.848-0.392-0.848-0.896V7.058h-0.567V6.474h0.567V5.307h0.703v1.167h0.672v0.583H474.369z"/>
</g>
<g>
	<path d="M463.858,74.12h2.327c1.495,0,2.414,1.136,2.414,2.791c0,1.287-0.56,2.95-2.446,2.95h-2.295V74.12z M464.633,79.197h1.504
		c1.007,0,1.663-0.791,1.663-2.238s-0.664-2.175-1.72-2.175h-1.447V79.197z"/>
	<path d="M471.88,76.871c-0.008-0.264-0.104-0.704-0.991-0.704c-0.216,0-0.832,0.072-0.832,0.592c0,0.344,0.216,0.424,0.76,0.56
		l0.703,0.176c0.872,0.217,1.176,0.536,1.176,1.104c0,0.864-0.712,1.384-1.655,1.384c-1.655,0-1.774-0.96-1.799-1.464h0.68
		c0.023,0.328,0.12,0.856,1.111,0.856c0.504,0,0.959-0.2,0.959-0.664c0-0.336-0.231-0.448-0.831-0.6l-0.815-0.2
		c-0.584-0.144-0.968-0.439-0.968-1.016c0-0.919,0.76-1.335,1.583-1.335c1.495,0,1.6,1.104,1.6,1.312H471.88z"/>
	<path d="M474.369,76.264v2.718c0,0.328,0.28,0.328,0.424,0.328h0.248v0.552c-0.256,0.024-0.455,0.056-0.527,0.056
		c-0.695,0-0.848-0.392-0.848-0.896v-2.758h-0.567V75.68h0.567v-1.167h0.703v1.167h0.672v0.584H474.369z"/>
</g>
<line class="st4" x1="477.863" y1="84.777" x2="460.563" y2="102.078"/>
<g>
</g>
<g>
</g>
<g>
</g>
<g>
</g>
<g>
</g>
</svg>
