<?xml version="1.0" encoding="utf-8"?>
<!-- Generator: Adobe Illustrator 28.2.0, SVG Export Plug-In . SVG Version: 6.00 Build 0)  -->
<svg version="1.1" xmlns="http://www.w3.org/2000/svg" xmlns:xlink="http://www.w3.org/1999/xlink" x="0px" y="0px"
	 width="271.616px" height="109.1px" viewBox="0 0 271.616 109.1" style="enable-background:new 0 0 271.616 109.1;"
	 xml:space="preserve">
<style type="text/css">
	.st0{fill:none;stroke:#B3B3B3;stroke-width:0.5;}
	.st1{fill:none;stroke:#000000;stroke-width:0.8;}
	.st2{fill:none;stroke:#000000;stroke-width:0.4;}
</style>
<g id="レイヤー_1">
	<line class="st0" x1="59.538" y1="0" x2="59.538" y2="88.238"/>
	<line class="st0" x1="151.551" y1="0.207" x2="151.551" y2="88.446"/>
	<line class="st0" x1="194.851" y1="0.207" x2="194.851" y2="88.446"/>
	<line class="st0" x1="238.151" y1="0.207" x2="238.151" y2="88.446"/>
	<polyline class="st1" points="48.288,37.907 59.538,37.907 59.538,19.486 151.412,19.486 151.412,37.907 194.993,37.907 
		194.993,19.486 238.22,19.486 238.22,37.907 271.616,37.907 	"/>
	<polyline class="st1" points="48.288,72.594 59.538,72.594 59.538,54.174 151.412,54.174 151.412,72.594 194.993,72.594 
		194.993,54.174 238.22,54.174 238.22,72.594 271.616,72.594 	"/>
	<polyline class="st1" points="48.288,87.574 59.538,87.574 59.538,105.994 151.412,105.994 151.412,87.574 194.993,87.574 
		194.993,105.994 238.22,105.994 238.22,87.574 271.616,87.574 	"/>
	<g>
		<path d="M33.154,40.316c-2.143,0-2.798-1.783-2.798-3.022c0-1.239,0.655-3.022,2.798-3.022c2.143,0,2.798,1.783,2.798,3.022
			C35.952,38.533,35.296,40.316,33.154,40.316z M33.154,34.959c-1.248,0-1.999,0.983-1.999,2.334c0,1.352,0.751,2.335,1.999,2.335
			c1.247,0,1.999-0.983,1.999-2.335C35.153,35.942,34.401,34.959,33.154,34.959z"/>
		<path d="M37.731,40.164h-0.776v-5.741h3.974v0.688h-3.198v1.759h2.814v0.688h-2.814V40.164z"/>
		<path d="M42.619,40.164h-0.776v-5.741h3.974v0.688h-3.198v1.759h2.814v0.688h-2.814V40.164z"/>
	</g>
	<g>
		<path d="M33.154,22.398c-2.143,0-2.798-1.783-2.798-3.022s0.655-3.022,2.798-3.022c2.143,0,2.798,1.783,2.798,3.022
			S35.296,22.398,33.154,22.398z M33.154,17.042c-1.248,0-1.999,0.983-1.999,2.334c0,1.352,0.751,2.335,1.999,2.335
			c1.247,0,1.999-0.983,1.999-2.335C35.153,18.025,34.401,17.042,33.154,17.042z"/>
		<path d="M40.681,16.506h0.751v5.741h-0.872l-2.918-4.637h-0.016v4.637h-0.752v-5.741h0.92l2.87,4.637h0.016V16.506z"/>
	</g>
	<g>
		<path d="M33.154,74.376c-2.143,0-2.798-1.783-2.798-3.022s0.655-3.022,2.798-3.022c2.143,0,2.798,1.783,2.798,3.022
			S35.296,74.376,33.154,74.376z M33.154,69.019c-1.248,0-1.999,0.983-1.999,2.334c0,1.352,0.751,2.335,1.999,2.335
			c1.247,0,1.999-0.983,1.999-2.335C35.153,70.002,34.401,69.019,33.154,69.019z"/>
		<path d="M37.731,74.224h-0.776v-5.741h3.974v0.688h-3.198v1.759h2.814v0.688h-2.814V74.224z"/>
		<path d="M42.619,74.224h-0.776v-5.741h3.974v0.688h-3.198v1.759h2.814v0.688h-2.814V74.224z"/>
	</g>
	<g>
		<path d="M33.154,57.169c-2.143,0-2.798-1.783-2.798-3.022s0.655-3.022,2.798-3.022c2.143,0,2.798,1.783,2.798,3.022
			S35.296,57.169,33.154,57.169z M33.154,51.812c-1.248,0-1.999,0.983-1.999,2.334c0,1.352,0.751,2.335,1.999,2.335
			c1.247,0,1.999-0.983,1.999-2.335C35.153,52.795,34.401,51.812,33.154,51.812z"/>
		<path d="M40.681,51.276h0.751v5.741h-0.872l-2.918-4.637h-0.016v4.637h-0.752v-5.741h0.92l2.87,4.637h0.016V51.276z"/>
	</g>
	<g>
		<path d="M33.154,107.902c-2.143,0-2.798-1.783-2.798-3.022s0.655-3.022,2.798-3.022c2.143,0,2.798,1.783,2.798,3.022
			S35.296,107.902,33.154,107.902z M33.154,102.545c-1.248,0-1.999,0.983-1.999,2.335c0,1.351,0.751,2.334,1.999,2.334
			c1.247,0,1.999-0.983,1.999-2.334C35.153,103.528,34.401,102.545,33.154,102.545z"/>
		<path d="M37.731,107.75h-0.776v-5.741h3.974v0.688h-3.198v1.759h2.814v0.688h-2.814V107.75z"/>
		<path d="M42.619,107.75h-0.776v-5.741h3.974v0.688h-3.198v1.759h2.814v0.688h-2.814V107.75z"/>
	</g>
	<g>
		<path d="M33.154,90.339c-2.143,0-2.798-1.783-2.798-3.022s0.655-3.022,2.798-3.022c2.143,0,2.798,1.783,2.798,3.022
			S35.296,90.339,33.154,90.339z M33.154,84.981c-1.248,0-1.999,0.983-1.999,2.335c0,1.351,0.751,2.334,1.999,2.334
			c1.247,0,1.999-0.983,1.999-2.334C35.153,85.965,34.401,84.981,33.154,84.981z"/>
		<path d="M40.681,84.445h0.751v5.741h-0.872l-2.918-4.638h-0.016v4.638h-0.752v-5.741h0.92l2.87,4.638h0.016V84.445z"/>
	</g>
	<line class="st2" x1="48.713" y1="0" x2="48.713" y2="10.63"/>
	<line class="st2" x1="54.126" y1="0" x2="54.126" y2="10.63"/>
	<line class="st2" x1="64.951" y1="0" x2="64.951" y2="10.63"/>
	<line class="st2" x1="70.363" y1="0" x2="70.363" y2="10.63"/>
	<line class="st2" x1="75.775" y1="0" x2="75.775" y2="10.63"/>
	<line class="st2" x1="81.188" y1="0" x2="81.188" y2="10.63"/>
	<line class="st2" x1="86.601" y1="0" x2="86.601" y2="10.63"/>
	<line class="st2" x1="92.013" y1="0" x2="92.013" y2="10.63"/>
	<line class="st2" x1="97.426" y1="0" x2="97.426" y2="10.63"/>
	<line class="st2" x1="102.838" y1="0" x2="102.838" y2="10.63"/>
	<line class="st2" x1="108.251" y1="0" x2="108.251" y2="10.63"/>
	<line class="st2" x1="113.663" y1="0" x2="113.663" y2="10.63"/>
	<line class="st2" x1="119.075" y1="0.207" x2="119.075" y2="10.837"/>
	<line class="st2" x1="124.488" y1="0.207" x2="124.488" y2="10.837"/>
	<line class="st2" x1="129.901" y1="0.207" x2="129.901" y2="10.837"/>
	<line class="st2" x1="135.313" y1="0.207" x2="135.313" y2="10.837"/>
	<line class="st2" x1="140.726" y1="0.207" x2="140.726" y2="10.837"/>
	<line class="st2" x1="146.138" y1="0.207" x2="146.138" y2="10.837"/>
	<line class="st2" x1="156.964" y1="0.207" x2="156.964" y2="10.837"/>
	<line class="st2" x1="162.376" y1="0.207" x2="162.376" y2="10.837"/>
	<line class="st2" x1="167.789" y1="0.207" x2="167.789" y2="10.837"/>
	<line class="st2" x1="173.2" y1="0.207" x2="173.2" y2="10.837"/>
	<line class="st2" x1="178.613" y1="0.207" x2="178.613" y2="10.837"/>
	<line class="st2" x1="184.025" y1="0.207" x2="184.025" y2="10.837"/>
	<line class="st2" x1="189.438" y1="0.207" x2="189.438" y2="10.837"/>
	<line class="st2" x1="200.263" y1="0.207" x2="200.263" y2="10.837"/>
	<line class="st2" x1="205.676" y1="0.207" x2="205.676" y2="10.837"/>
	<line class="st2" x1="211.088" y1="0.207" x2="211.088" y2="10.837"/>
	<line class="st2" x1="216.501" y1="0.207" x2="216.501" y2="10.837"/>
	<line class="st2" x1="221.914" y1="0.207" x2="221.914" y2="10.837"/>
	<line class="st2" x1="227.326" y1="0.207" x2="227.326" y2="10.837"/>
	<line class="st2" x1="232.739" y1="0.207" x2="232.739" y2="10.837"/>
	<line class="st2" x1="243.564" y1="0.207" x2="243.564" y2="10.837"/>
	<line class="st2" x1="248.977" y1="0.207" x2="248.977" y2="10.837"/>
	<line class="st2" x1="254.388" y1="0.207" x2="254.388" y2="10.837"/>
	<line class="st2" x1="259.801" y1="0.207" x2="259.801" y2="10.837"/>
	<line class="st2" x1="270.627" y1="0.207" x2="270.627" y2="10.837"/>
	<line class="st2" x1="265.214" y1="0.207" x2="265.214" y2="10.837"/>
	<g>
		<path d="M4.07,4.534C4.03,3.647,3.294,3.367,2.646,3.367c-0.488,0-1.311,0.136-1.311,1.007c0,0.488,0.344,0.647,0.679,0.728
			l1.639,0.376c0.744,0.176,1.303,0.624,1.303,1.535c0,1.359-1.263,1.735-2.247,1.735c-1.063,0-1.479-0.32-1.735-0.552
			C0.488,7.756,0.392,7.276,0.392,6.741h0.728c0,1.04,0.848,1.343,1.583,1.343c0.56,0,1.503-0.144,1.503-0.967
			c0-0.6-0.28-0.792-1.223-1.016L1.807,5.829C1.431,5.741,0.583,5.478,0.583,4.478c0-0.896,0.584-1.775,1.975-1.775
			c2.007,0,2.207,1.199,2.239,1.831H4.07z"/>
		<path d="M8.47,5.821c-0.088-0.56-0.4-0.896-0.992-0.896c-0.871,0-1.151,0.832-1.151,1.575c0,0.72,0.176,1.607,1.144,1.607
			c0.472,0,0.879-0.352,1-0.991h0.68C9.078,7.78,8.67,8.716,7.447,8.716c-1.175,0-1.871-0.888-1.871-2.095
			c0-1.295,0.624-2.327,2.007-2.327c1.096,0,1.511,0.8,1.567,1.527H8.47z"/>
		<path d="M9.832,5.686c0.032-1,0.696-1.392,1.727-1.392c0.336,0,1.551,0.096,1.551,1.167v2.407c0,0.176,0.088,0.248,0.232,0.248
			c0.064,0,0.152-0.016,0.232-0.032v0.512c-0.12,0.032-0.224,0.08-0.384,0.08c-0.624,0-0.72-0.32-0.744-0.64
			c-0.272,0.296-0.696,0.68-1.511,0.68c-0.768,0-1.311-0.488-1.311-1.208c0-0.352,0.104-1.167,1.271-1.311l1.16-0.144
			c0.167-0.016,0.368-0.08,0.368-0.496c0-0.44-0.32-0.68-0.983-0.68c-0.8,0-0.912,0.487-0.959,0.808H9.832z M12.406,6.461
			c-0.112,0.088-0.288,0.152-1.159,0.264c-0.344,0.048-0.896,0.152-0.896,0.68c0,0.456,0.231,0.728,0.759,0.728
			c0.656,0,1.295-0.424,1.295-0.983V6.461z"/>
		<path d="M17.71,8.596h-0.704V6.021c0-0.728-0.208-1.095-0.896-1.095c-0.4,0-1.104,0.256-1.104,1.391v2.279h-0.704V4.414h0.664
			v0.592h0.016c0.152-0.224,0.544-0.712,1.264-0.712c0.647,0,1.463,0.264,1.463,1.455V8.596z"/>
	</g>
	<g>
		<path d="M0.112,27.152h4.662v0.688H2.831v5.053H2.055v-5.053H0.112V27.152z"/>
		<path d="M5.248,32.893H4.544v-4.182h0.664v0.695h0.016c0.28-0.487,0.647-0.815,1.175-0.815c0.088,0,0.128,0.008,0.184,0.024v0.728
			H6.319c-0.656,0-1.071,0.512-1.071,1.119V32.893z"/>
		<path d="M7.248,27.951v-0.799h0.704v0.799H7.248z M7.951,32.893H7.248v-4.182h0.704V32.893z"/>
		<path d="M12.478,32.549c0,0.6-0.008,2.103-1.943,2.103c-0.496,0-1.463-0.136-1.599-1.247h0.704
			c0.128,0.664,0.775,0.664,0.943,0.664c1.215,0,1.191-0.976,1.191-1.471v-0.176h-0.016v0.032c-0.184,0.296-0.551,0.56-1.111,0.56
			c-1.423,0-1.839-1.335-1.839-2.335c0-1.175,0.632-2.087,1.743-2.087c0.759,0,1.079,0.472,1.247,0.712h0.016v-0.592h0.664V32.549z
			 M10.663,32.405c0.448,0,1.144-0.296,1.144-1.407c0-0.68-0.112-1.775-1.127-1.775c-1.087,0-1.144,1.031-1.144,1.567
			C9.535,31.709,9.895,32.405,10.663,32.405z"/>
		<path d="M16.926,32.549c0,0.6-0.008,2.103-1.943,2.103c-0.496,0-1.463-0.136-1.599-1.247h0.704
			c0.128,0.664,0.775,0.664,0.943,0.664c1.215,0,1.191-0.976,1.191-1.471v-0.176h-0.016v0.032c-0.184,0.296-0.551,0.56-1.111,0.56
			c-1.423,0-1.839-1.335-1.839-2.335c0-1.175,0.632-2.087,1.743-2.087c0.759,0,1.079,0.472,1.247,0.712h0.016v-0.592h0.664V32.549z
			 M15.111,32.405c0.448,0,1.144-0.296,1.144-1.407c0-0.68-0.112-1.775-1.127-1.775c-1.087,0-1.144,1.031-1.144,1.567
			C13.983,31.709,14.343,32.405,15.111,32.405z"/>
		<path d="M21.454,31.581c-0.024,0.2-0.216,0.792-0.744,1.144c-0.192,0.128-0.464,0.288-1.135,0.288
			c-1.175,0-1.871-0.888-1.871-2.095c0-1.295,0.624-2.327,2.007-2.327c1.208,0,1.799,0.959,1.799,2.439h-3.054
			c0,0.872,0.408,1.375,1.215,1.375c0.664,0,1.056-0.512,1.08-0.824H21.454z M20.782,30.47c-0.04-0.647-0.312-1.247-1.167-1.247
			c-0.648,0-1.16,0.6-1.16,1.247H20.782z"/>
		<path d="M23.151,32.893h-0.704v-4.182h0.664v0.695h0.016c0.28-0.487,0.647-0.815,1.175-0.815c0.088,0,0.128,0.008,0.184,0.024
			v0.728h-0.264c-0.656,0-1.071,0.512-1.071,1.119V32.893z"/>
	</g>
	<g>
		<path d="M3.11,68.509c-2.143,0-2.798-1.783-2.798-3.022c0-1.239,0.655-3.022,2.798-3.022c2.143,0,2.798,1.783,2.798,3.022
			C5.909,66.727,5.253,68.509,3.11,68.509z M3.11,63.152c-1.248,0-1.999,0.983-1.999,2.334c0,1.352,0.751,2.335,1.999,2.335
			c1.247,0,1.999-0.983,1.999-2.335C5.109,64.136,4.357,63.152,3.11,63.152z"/>
		<path d="M11.374,62.617v3.726c0,1.175-0.736,2.167-2.311,2.167c-1.543,0-2.207-0.991-2.207-2.063v-3.83h0.775v3.614
			c0,1.248,0.76,1.591,1.455,1.591c0.712,0,1.511-0.328,1.511-1.575v-3.63H11.374z"/>
		<path d="M12.112,62.617h4.662v0.688h-1.943v5.053h-0.776v-5.053h-1.943V62.617z"/>
	</g>
	<g>
		<path d="M3.11,102.478c-2.143,0-2.798-1.783-2.798-3.022s0.655-3.022,2.798-3.022c2.143,0,2.798,1.783,2.798,3.022
			S5.253,102.478,3.11,102.478z M3.11,97.12c-1.248,0-1.999,0.983-1.999,2.335c0,1.351,0.751,2.334,1.999,2.334
			c1.247,0,1.999-0.983,1.999-2.334C5.109,98.104,4.357,97.12,3.11,97.12z"/>
		<path d="M11.374,96.584v3.727c0,1.175-0.736,2.167-2.311,2.167c-1.543,0-2.207-0.992-2.207-2.063v-3.83h0.775v3.614
			c0,1.247,0.76,1.591,1.455,1.591c0.712,0,1.511-0.327,1.511-1.574v-3.631H11.374z"/>
		<path d="M12.592,96.584h2.526c1.072,0,1.623,0.664,1.623,1.447c0,0.376-0.136,0.904-0.768,1.199
			c0.376,0.152,1.04,0.416,1.04,1.399c0,0.92-0.68,1.695-1.951,1.695h-2.471V96.584z M13.367,99.015h1.399
			c0.744,0,1.199-0.224,1.199-0.927c0-0.536-0.328-0.84-1.191-0.84h-1.407V99.015z M13.367,101.661h1.655
			c0.808,0,1.215-0.407,1.215-1.047c0-0.808-0.712-0.968-1.343-0.968h-1.527V101.661z"/>
	</g>
</g>
<g id="儗僀儎_xFF0D__1">
</g>
</svg>
