<?xml version="1.0" encoding="utf-8"?>
<!-- Generator: Adobe Illustrator 28.2.0, SVG Export Plug-In . SVG Version: 6.00 Build 0)  -->
<svg version="1.1" id="儗僀儎乕_1" xmlns="http://www.w3.org/2000/svg" xmlns:xlink="http://www.w3.org/1999/xlink" x="0px"
	 y="0px" width="273.835px" height="118.669px" viewBox="0 0 273.835 118.669" style="enable-background:new 0 0 273.835 118.669;"
	 xml:space="preserve">
<style type="text/css">
	.st0{fill:none;stroke:#000000;}
	.st1{fill:#FFFFFF;}
	.st2{fill:#FFFFFF;stroke:#000000;}
	.st3{stroke:#000000;stroke-width:0.0283;}
</style>
<line class="st0" x1="0.5" y1="17.716" x2="226.292" y2="17.716"/>
<line class="st0" x1="0.5" y1="0" x2="0.5" y2="118.669"/>
<line class="st0" x1="273.335" y1="0" x2="273.335" y2="118.669"/>
<g>
	<rect x="18.217" y="14.174" class="st1" width="7.087" height="7.087"/>
	<line class="st0" x1="25.304" y1="14.174" x2="25.304" y2="21.261"/>
	<line class="st0" x1="18.217" y1="21.261" x2="18.217" y2="14.174"/>
</g>
<line class="st0" x1="0.756" y1="60.236" x2="273.591" y2="60.236"/>
<g>
	<rect x="18.217" y="56.693" class="st1" width="7.087" height="7.088"/>
	<line class="st0" x1="25.304" y1="56.693" x2="25.304" y2="63.781"/>
	<line class="st0" x1="18.217" y1="63.781" x2="18.217" y2="56.693"/>
</g>
<path class="st2" d="M247.164,60.234c0,1.958-1.587,3.545-3.545,3.545c-1.955,0-3.542-1.587-3.542-3.545
	c0-1.956,1.587-3.541,3.542-3.541C245.577,56.693,247.164,58.278,247.164,60.234z"/>
<g>
	<path d="M13.523,10.175h-0.775V4.434h2.655c0.943,0,1.887,0.328,1.887,1.543c0,0.848-0.432,1.159-0.8,1.375
		c0.328,0.136,0.656,0.28,0.688,1.079l0.048,1.04c0.008,0.32,0.048,0.44,0.288,0.576v0.128h-0.951
		c-0.112-0.352-0.136-1.223-0.136-1.439c0-0.472-0.096-1.023-1.023-1.023h-1.879V10.175z M13.523,7.048h1.799
		c0.567,0,1.167-0.144,1.167-0.991c0-0.888-0.647-0.959-1.031-0.959h-1.935V7.048z"/>
	<path d="M20.043,10.326c-1.615,0-1.927-1.719-1.927-2.886s0.312-2.887,1.927-2.887c1.615,0,1.927,1.719,1.927,2.887
		S21.658,10.326,20.043,10.326z M20.043,5.185c-0.808,0-1.175,0.848-1.175,2.255s0.368,2.254,1.175,2.254s1.175-0.847,1.175-2.254
		S20.851,5.185,20.043,5.185z"/>
	<path d="M24.491,10.326c-1.615,0-1.927-1.719-1.927-2.886s0.312-2.887,1.927-2.887s1.927,1.719,1.927,2.887
		S26.106,10.326,24.491,10.326z M24.491,5.185c-0.808,0-1.175,0.848-1.175,2.255s0.368,2.254,1.175,2.254s1.175-0.847,1.175-2.254
		S25.298,5.185,24.491,5.185z"/>
	<path d="M28.939,10.326c-1.615,0-1.927-1.719-1.927-2.886s0.312-2.887,1.927-2.887s1.927,1.719,1.927,2.887
		S30.554,10.326,28.939,10.326z M28.939,5.185c-0.808,0-1.175,0.848-1.175,2.255s0.368,2.254,1.175,2.254s1.175-0.847,1.175-2.254
		S29.747,5.185,28.939,5.185z"/>
</g>
<g>
	<path d="M21.13,48.661c-0.216-1.007-1.056-1.191-1.607-1.191c-1.04,0-1.879,0.768-1.879,2.279c0,1.351,0.479,2.391,1.903,2.391
		c0.504,0,1.375-0.24,1.639-1.575h0.751c-0.32,2.167-2.079,2.263-2.51,2.263c-1.304,0-2.583-0.848-2.583-3.054
		c0-1.767,1.008-2.99,2.679-2.99c1.479,0,2.247,0.919,2.359,1.879H21.13z"/>
	<path d="M24.491,52.826c-1.615,0-1.927-1.719-1.927-2.886s0.312-2.887,1.927-2.887c1.615,0,1.927,1.719,1.927,2.887
		S26.106,52.826,24.491,52.826z M24.491,47.685c-0.808,0-1.175,0.848-1.175,2.255s0.368,2.254,1.175,2.254s1.175-0.847,1.175-2.254
		S25.299,47.685,24.491,47.685z"/>
</g>
<g>
	<path d="M235.542,52.675h-0.776v-5.741h2.655c0.943,0,1.887,0.328,1.887,1.543c0,0.848-0.432,1.159-0.8,1.375
		c0.328,0.136,0.656,0.28,0.688,1.079l0.049,1.04c0.008,0.32,0.048,0.44,0.287,0.576v0.128h-0.951
		c-0.112-0.352-0.136-1.223-0.136-1.439c0-0.472-0.097-1.023-1.023-1.023h-1.879V52.675z M235.542,49.548h1.799
		c0.567,0,1.167-0.144,1.167-0.991c0-0.888-0.647-0.959-1.031-0.959h-1.935V49.548z"/>
	<path d="M241.013,49.404c0.239-0.184,0.583-0.352,1.087-0.352c0.911,0,1.847,0.64,1.847,1.799c0,0.624-0.279,1.975-2.038,1.975
		c-0.736,0-1.68-0.296-1.815-1.551h0.728c0.072,0.656,0.56,0.944,1.191,0.944c0.728,0,1.184-0.584,1.184-1.288
		c0-0.808-0.552-1.247-1.247-1.247c-0.408,0-0.776,0.192-1.04,0.536l-0.607-0.032l0.424-3.014h2.91v0.688h-2.383L241.013,49.404z"/>
	<path d="M246.508,52.826c-1.615,0-1.927-1.719-1.927-2.886s0.312-2.887,1.927-2.887s1.927,1.719,1.927,2.887
		S248.124,52.826,246.508,52.826z M246.508,47.685c-0.808,0-1.175,0.848-1.175,2.255s0.367,2.254,1.175,2.254
		s1.176-0.847,1.176-2.254S247.316,47.685,246.508,47.685z"/>
	<path d="M250.957,52.826c-1.615,0-1.927-1.719-1.927-2.886s0.312-2.887,1.927-2.887s1.927,1.719,1.927,2.887
		S252.572,52.826,250.957,52.826z M250.957,47.685c-0.808,0-1.175,0.848-1.175,2.255s0.367,2.254,1.175,2.254
		s1.176-0.847,1.176-2.254S251.764,47.685,250.957,47.685z"/>
</g>
<line class="st0" x1="0.756" y1="101.804" x2="226.207" y2="101.804"/>
<g>
	<rect x="18.217" y="98.261" class="st1" width="7.087" height="7.087"/>
	<line class="st0" x1="25.304" y1="98.261" x2="25.304" y2="105.349"/>
	<line class="st0" x1="18.217" y1="105.349" x2="18.217" y2="98.261"/>
</g>
<path class="st2" d="M259.349,98.261c1.958,0,3.545,1.584,3.545,3.54c0,1.958-1.587,3.545-3.545,3.545"/>
<g>
	<path d="M13.824,94.242h-0.775v-5.741h2.654c0.944,0,1.887,0.328,1.887,1.543c0,0.848-0.432,1.16-0.799,1.375
		c0.328,0.136,0.655,0.28,0.688,1.079l0.048,1.04c0.008,0.32,0.048,0.44,0.288,0.576v0.128h-0.952
		c-0.112-0.352-0.136-1.223-0.136-1.439c0-0.472-0.096-1.023-1.023-1.023h-1.879V94.242z M13.824,91.116h1.799
		c0.567,0,1.167-0.144,1.167-0.991c0-0.888-0.648-0.959-1.032-0.959h-1.935V91.116z"/>
	<path d="M20.343,94.394c-1.615,0-1.927-1.719-1.927-2.886c0-1.167,0.312-2.887,1.927-2.887s1.927,1.719,1.927,2.887
		C22.271,92.675,21.959,94.394,20.343,94.394z M20.343,89.253c-0.808,0-1.175,0.848-1.175,2.255s0.368,2.255,1.175,2.255
		s1.175-0.848,1.175-2.255S21.151,89.253,20.343,89.253z"/>
	<path d="M24.792,94.394c-1.615,0-1.927-1.719-1.927-2.886c0-1.167,0.312-2.887,1.927-2.887s1.927,1.719,1.927,2.887
		C26.719,92.675,26.407,94.394,24.792,94.394z M24.792,89.253c-0.808,0-1.175,0.848-1.175,2.255s0.368,2.255,1.175,2.255
		s1.175-0.848,1.175-2.255S25.599,89.253,24.792,89.253z"/>
	<path d="M29.287,94.242h-0.752v-3.99h-1.311v-0.56c0.912-0.064,1.287-0.152,1.511-1.072h0.552V94.242z"/>
</g>
<g>
	<path d="M243.147,90.229c-0.216-1.008-1.056-1.191-1.607-1.191c-1.039,0-1.879,0.768-1.879,2.279c0,1.351,0.479,2.391,1.903,2.391
		c0.503,0,1.375-0.24,1.639-1.575h0.752c-0.32,2.167-2.079,2.263-2.511,2.263c-1.304,0-2.583-0.848-2.583-3.054
		c0-1.767,1.008-2.99,2.679-2.99c1.479,0,2.247,0.919,2.358,1.879H243.147z"/>
	<path d="M246.507,94.394c-1.615,0-1.927-1.719-1.927-2.886c0-1.167,0.312-2.887,1.927-2.887s1.927,1.719,1.927,2.887
		C248.434,92.675,248.123,94.394,246.507,94.394z M246.507,89.253c-0.808,0-1.175,0.848-1.175,2.255s0.367,2.255,1.175,2.255
		s1.176-0.848,1.176-2.255S247.315,89.253,246.507,89.253z"/>
</g>
<path class="st2" d="M229.749,105.346c-1.955,0-3.542-1.587-3.542-3.545c0-1.956,1.587-3.54,3.542-3.54"/>
<line class="st0" x1="262.894" y1="101.801" x2="273.335" y2="101.801"/>
<g>
	<path d="M237.786,104.767h-0.776v-5.741h2.655c0.943,0,1.887,0.328,1.887,1.543c0,0.848-0.432,1.159-0.8,1.375
		c0.328,0.136,0.656,0.28,0.688,1.079l0.049,1.04c0.008,0.32,0.048,0.44,0.287,0.576v0.128h-0.951
		c-0.112-0.352-0.136-1.223-0.136-1.439c0-0.472-0.097-1.023-1.023-1.023h-1.879V104.767z M237.786,101.64h1.799
		c0.567,0,1.167-0.144,1.167-0.991c0-0.888-0.647-0.959-1.031-0.959h-1.935V101.64z"/>
	<path d="M247.007,104.767h-4.238v-5.741h4.182v0.688h-3.406v1.759h3.143v0.688h-3.143v1.919h3.463V104.767z"/>
	<path d="M251.487,100.705c-0.04-0.887-0.775-1.167-1.423-1.167c-0.487,0-1.312,0.136-1.312,1.007c0,0.488,0.344,0.647,0.68,0.728
		l1.64,0.376c0.743,0.176,1.303,0.624,1.303,1.535c0,1.359-1.263,1.735-2.246,1.735c-1.063,0-1.479-0.32-1.735-0.552
		c-0.488-0.439-0.584-0.919-0.584-1.455h0.728c0,1.04,0.848,1.343,1.583,1.343c0.56,0,1.504-0.144,1.504-0.967
		c0-0.6-0.28-0.792-1.224-1.016L249.224,102c-0.375-0.088-1.223-0.352-1.223-1.351c0-0.896,0.583-1.775,1.975-1.775
		c2.007,0,2.207,1.199,2.238,1.831H251.487z"/>
</g>
<path class="st2" d="M259.349,14.175c1.958,0,3.545,1.586,3.545,3.541c0,1.958-1.587,3.545-3.545,3.545"/>
<g>
	<path d="M240.038,10.156h-0.527l0.231-1.679h-0.999l-0.231,1.679h-0.528l0.232-1.679h-0.824l0.072-0.503h0.823l0.152-1.136h-0.824
		l0.072-0.503h0.824l0.231-1.679h0.536l-0.232,1.679h0.991l0.232-1.679h0.535l-0.231,1.679h0.823l-0.071,0.503h-0.824l-0.16,1.136
		h0.824l-0.072,0.503h-0.823L240.038,10.156z M238.974,6.838l-0.159,1.136h0.999l0.152-1.136H238.974z"/>
	<path d="M244.486,10.156h-0.751v-3.99h-1.312v-0.56c0.911-0.064,1.287-0.152,1.511-1.072h0.552V10.156z"/>
	<path d="M247.846,10.308c-1.615,0-1.927-1.719-1.927-2.886c0-1.167,0.312-2.887,1.927-2.887s1.927,1.719,1.927,2.887
		C249.773,8.589,249.461,10.308,247.846,10.308z M247.846,5.167c-0.808,0-1.175,0.848-1.175,2.255s0.367,2.255,1.175,2.255
		s1.176-0.848,1.176-2.255S248.654,5.167,247.846,5.167z"/>
</g>
<path class="st2" d="M229.749,21.261c-1.955,0-3.542-1.587-3.542-3.545c0-1.956,1.587-3.541,3.542-3.541"/>
<g>
	<path class="st3" d="M244.053,17.235c-0.216-1.007-1.056-1.191-1.607-1.191c-1.039,0-1.879,0.768-1.879,2.279
		c0,1.351,0.479,2.391,1.903,2.391c0.503,0,1.375-0.24,1.639-1.575h0.752c-0.32,2.167-2.079,2.263-2.511,2.263
		c-1.304,0-2.583-0.848-2.583-3.054c0-1.767,1.008-2.99,2.679-2.99c1.479,0,2.247,0.919,2.358,1.879H244.053z"/>
	<path class="st3" d="M247.414,21.401c-1.615,0-1.927-1.719-1.927-2.886s0.312-2.887,1.927-2.887s1.927,1.719,1.927,2.887
		S249.029,21.401,247.414,21.401z M247.414,16.259c-0.808,0-1.175,0.848-1.175,2.255s0.367,2.254,1.175,2.254
		s1.176-0.847,1.176-2.254S248.221,16.259,247.414,16.259z"/>
</g>
<line class="st0" x1="262.894" y1="17.716" x2="273.335" y2="17.716"/>
</svg>
