<?xml version="1.0" encoding="utf-8"?>
<!-- Generator: Adobe Illustrator 28.2.0, SVG Export Plug-In . SVG Version: 6.00 Build 0)  -->
<svg version="1.1" id="儗僀儎乕_1" xmlns="http://www.w3.org/2000/svg" xmlns:xlink="http://www.w3.org/1999/xlink" x="0px"
	 y="0px" width="511.236px" height="155.711px" viewBox="0 0 511.236 155.711" style="enable-background:new 0 0 511.236 155.711;"
	 xml:space="preserve">
<style type="text/css">
	.st0{fill:none;stroke:#000000;}
	.st1{fill:#FFFFFF;}
	.st2{fill:#FFFFFF;stroke:#000000;}
</style>
<line class="st0" x1="0.5" y1="34.602" x2="420.695" y2="34.602"/>
<line class="st0" x1="510.736" y1="0" x2="510.736" y2="155.711"/>
<g>
	<rect x="35.103" y="27.683" class="st1" width="13.841" height="13.843"/>
	<line class="st0" x1="48.944" y1="27.683" x2="48.944" y2="41.525"/>
	<line class="st0" x1="35.103" y1="41.525" x2="35.103" y2="27.683"/>
</g>
<line class="st0" x1="84.059" y1="117.648" x2="510.736" y2="117.648"/>
<line class="st0" x1="0.5" y1="117.648" x2="84.059" y2="117.648"/>
<g>
	<rect x="35.103" y="110.729" class="st1" width="13.841" height="13.843"/>
	<line class="st0" x1="48.944" y1="110.729" x2="48.944" y2="124.571"/>
	<line class="st0" x1="35.103" y1="124.571" x2="35.103" y2="110.729"/>
</g>
<path class="st2" d="M469.213,117.645c0,3.824-3.1,6.924-6.924,6.924c-3.819,0-6.919-3.099-6.919-6.924
	c0-3.82,3.099-6.917,6.919-6.917C466.114,110.729,469.213,113.826,469.213,117.645z"/>
<g>
	<path d="M29.888,16.273h4.662v0.688h-1.943v5.053h-0.776V16.96h-1.943V16.273z"/>
	<path d="M35.023,22.014h-0.704v-4.182h0.664v0.695h0.016c0.28-0.487,0.647-0.815,1.175-0.815c0.088,0,0.128,0.008,0.184,0.024
		v0.728h-0.264c-0.656,0-1.071,0.512-1.071,1.119V22.014z"/>
	<path d="M37.023,17.072v-0.799h0.704v0.799H37.023z M37.727,22.014h-0.704v-4.182h0.704V22.014z"/>
	<path d="M42.253,21.67c0,0.6-0.008,2.103-1.943,2.103c-0.496,0-1.463-0.136-1.599-1.247h0.704c0.128,0.664,0.775,0.664,0.943,0.664
		c1.215,0,1.191-0.976,1.191-1.471v-0.176h-0.016v0.032c-0.184,0.296-0.552,0.56-1.111,0.56c-1.423,0-1.839-1.335-1.839-2.335
		c0-1.175,0.632-2.087,1.743-2.087c0.759,0,1.079,0.472,1.247,0.712h0.016v-0.592h0.664V21.67z M40.438,21.526
		c0.448,0,1.144-0.296,1.144-1.407c0-0.68-0.112-1.775-1.127-1.775c-1.087,0-1.144,1.031-1.144,1.567
		C39.311,20.83,39.671,21.526,40.438,21.526z"/>
	<path d="M46.701,21.67c0,0.6-0.008,2.103-1.943,2.103c-0.496,0-1.463-0.136-1.599-1.247h0.704c0.128,0.664,0.775,0.664,0.943,0.664
		c1.215,0,1.191-0.976,1.191-1.471v-0.176h-0.016v0.032c-0.184,0.296-0.551,0.56-1.111,0.56c-1.423,0-1.839-1.335-1.839-2.335
		c0-1.175,0.632-2.087,1.743-2.087c0.759,0,1.079,0.472,1.247,0.712h0.016v-0.592h0.664V21.67z M44.886,21.526
		c0.448,0,1.144-0.296,1.144-1.407c0-0.68-0.112-1.775-1.127-1.775c-1.087,0-1.144,1.031-1.144,1.567
		C43.759,20.83,44.119,21.526,44.886,21.526z"/>
	<path d="M51.229,20.702c-0.024,0.2-0.216,0.792-0.744,1.144c-0.192,0.128-0.464,0.288-1.135,0.288
		c-1.175,0-1.871-0.888-1.871-2.095c0-1.295,0.624-2.327,2.007-2.327c1.208,0,1.799,0.959,1.799,2.439h-3.055
		c0,0.872,0.408,1.375,1.215,1.375c0.664,0,1.056-0.512,1.08-0.824H51.229z M50.558,19.591c-0.04-0.647-0.312-1.247-1.167-1.247
		c-0.648,0-1.16,0.6-1.16,1.247H50.558z"/>
	<path d="M52.927,22.014h-0.704v-4.182h0.664v0.695h0.016c0.28-0.487,0.647-0.815,1.175-0.815c0.088,0,0.128,0.008,0.184,0.024
		v0.728h-0.264c-0.656,0-1.071,0.512-1.071,1.119V22.014z"/>
</g>
<g>
	<path d="M34.019,101.046c-0.216-1.008-1.056-1.191-1.607-1.191c-1.04,0-1.879,0.768-1.879,2.278c0,1.352,0.479,2.391,1.903,2.391
		c0.504,0,1.375-0.239,1.639-1.575h0.751c-0.32,2.167-2.079,2.264-2.51,2.264c-1.304,0-2.583-0.848-2.583-3.055
		c0-1.768,1.008-2.99,2.679-2.99c1.479,0,2.247,0.919,2.359,1.879H34.019z"/>
</g>
<g>
	<path d="M44.914,99.318h0.751v5.741h-0.872l-2.918-4.638H41.86v4.638h-0.751v-5.741h0.919l2.87,4.638h0.016V99.318z"/>
	<path d="M49.522,105.059v-0.607l-0.016-0.017c-0.296,0.488-0.656,0.744-1.328,0.744c-0.616,0-1.359-0.296-1.359-1.296v-3.006h0.703
		v2.774c0,0.688,0.352,0.92,0.808,0.92c0.888,0,1.151-0.784,1.151-1.392v-2.303h0.704v4.182H49.522z"/>
	<path d="M51.244,100.878h0.664v0.592h0.016c0.152-0.224,0.512-0.712,1.264-0.712c0.751,0,0.991,0.456,1.111,0.68
		c0.352-0.392,0.631-0.68,1.279-0.68c0.448,0,1.295,0.232,1.295,1.407v2.895h-0.704v-2.702c0-0.576-0.176-0.968-0.775-0.968
		c-0.592,0-0.983,0.56-0.983,1.119v2.551h-0.704v-2.895c0-0.352-0.136-0.775-0.656-0.775c-0.4,0-1.104,0.256-1.104,1.392v2.278
		h-0.704V100.878z"/>
</g>
<line class="st0" x1="510.736" y1="34.602" x2="500.408" y2="34.602"/>
<g>
	<path d="M463.447,15.727c-0.039-0.888-0.775-1.167-1.423-1.167c-0.487,0-1.312,0.136-1.312,1.007c0,0.488,0.344,0.647,0.68,0.728
		l1.64,0.376c0.743,0.176,1.303,0.624,1.303,1.535c0,1.359-1.263,1.735-2.246,1.735c-1.063,0-1.479-0.32-1.735-0.552
		c-0.488-0.439-0.584-0.919-0.584-1.455h0.728c0,1.04,0.848,1.343,1.583,1.343c0.561,0,1.504-0.144,1.504-0.967
		c0-0.6-0.28-0.792-1.224-1.016l-1.176-0.272c-0.375-0.088-1.223-0.352-1.223-1.351c0-0.896,0.583-1.775,1.975-1.775
		c2.007,0,2.207,1.199,2.239,1.831H463.447z"/>
	<path d="M466.033,19.789h-0.704v-4.182h0.664v0.695h0.016c0.28-0.487,0.648-0.815,1.176-0.815c0.088,0,0.128,0.008,0.184,0.024
		v0.728h-0.264c-0.655,0-1.071,0.512-1.071,1.119V19.789z"/>
	<path d="M470.351,17.014c-0.088-0.56-0.399-0.896-0.991-0.896c-0.871,0-1.151,0.832-1.151,1.575c0,0.72,0.176,1.607,1.144,1.607
		c0.472,0,0.88-0.352,0.999-0.991h0.68c-0.071,0.664-0.479,1.599-1.703,1.599c-1.175,0-1.87-0.888-1.87-2.095
		c0-1.295,0.623-2.327,2.007-2.327c1.095,0,1.511,0.8,1.566,1.527H470.351z"/>
</g>
<g>
	<path d="M450.094,33.722c-0.216-1.008-1.056-1.191-1.607-1.191c-1.039,0-1.879,0.768-1.879,2.279c0,1.351,0.479,2.391,1.903,2.391
		c0.503,0,1.375-0.24,1.639-1.575h0.752c-0.32,2.167-2.079,2.263-2.511,2.263c-1.304,0-2.583-0.848-2.583-3.054
		c0-1.767,1.008-2.99,2.679-2.99c1.479,0,2.247,0.919,2.358,1.879H450.094z"/>
</g>
<path class="st2" d="M494.645,24.219c4.582,0,8.302,4.649,8.302,10.383c0,5.731-3.719,10.381-8.302,10.381"/>
<g>
	<path d="M468.72,31.994h0.752v5.741h-0.871l-2.919-4.638h-0.016v4.638h-0.752v-5.741h0.92l2.87,4.637h0.016V31.994z"/>
	<path d="M473.33,37.735v-0.607l-0.016-0.016c-0.296,0.488-0.656,0.744-1.327,0.744c-0.616,0-1.359-0.296-1.359-1.295v-3.006h0.703
		v2.774c0,0.688,0.353,0.919,0.808,0.919c0.888,0,1.151-0.784,1.151-1.391v-2.303h0.704v4.182H473.33z"/>
	<path d="M475.05,33.554h0.664v0.592h0.016c0.152-0.224,0.512-0.712,1.264-0.712c0.751,0,0.991,0.456,1.111,0.68
		c0.352-0.392,0.632-0.68,1.279-0.68c0.447,0,1.295,0.232,1.295,1.407v2.895h-0.703v-2.703c0-0.576-0.176-0.967-0.775-0.967
		c-0.592,0-0.984,0.56-0.984,1.119v2.551h-0.703v-2.895c0-0.352-0.136-0.775-0.655-0.775c-0.4,0-1.104,0.256-1.104,1.391v2.279
		h-0.704V33.554z"/>
</g>
<line class="st0" x1="431.023" y1="34.602" x2="420.695" y2="34.602"/>
<path class="st2" d="M436.817,44.982c-4.582,0-8.302-4.649-8.302-10.381c0-5.734,3.719-10.383,8.302-10.383"/>
<line class="st0" x1="0.5" y1="0" x2="0.5" y2="155.711"/>
</svg>
