<?xml version="1.0" encoding="utf-8"?>
<!-- Generator: Adobe Illustrator 28.2.0, SVG Export Plug-In . SVG Version: 6.00 Build 0)  -->
<svg version="1.1" id="儗僀儎乕_1" xmlns="http://www.w3.org/2000/svg" xmlns:xlink="http://www.w3.org/1999/xlink" x="0px"
	 y="0px" width="455.016px" height="162.667px" viewBox="0 0 455.016 162.667" style="enable-background:new 0 0 455.016 162.667;"
	 xml:space="preserve">
<style type="text/css">
	.st0{fill:#CCCCCC;}
	.st1{fill:none;stroke:#000000;}
	.st2{fill:none;stroke:#000000;stroke-width:0.3;}
	.st3{fill:#FFFFFF;}
	.st4{fill:#FFFFFF;stroke:#000000;}
</style>
<rect x="398.161" y="104.907" class="st0" width="34.082" height="17.578"/>
<polyline class="st1" points="223.961,122.07 398.161,122.07 398.161,104.492 432.247,104.492 432.247,122.07 454.274,122.07 "/>
<g>
	<path d="M210.899,23.011c-1.607,0-2.099-1.337-2.099-2.267s0.492-2.267,2.099-2.267c1.607,0,2.099,1.337,2.099,2.267
		S212.507,23.011,210.899,23.011z M210.899,18.994c-0.935,0-1.499,0.737-1.499,1.751s0.564,1.751,1.499,1.751
		c0.936,0,1.5-0.737,1.5-1.751S211.835,18.994,210.899,18.994z"/>
	<path d="M214.332,22.897h-0.582v-4.306h2.98v0.516h-2.399v1.319h2.111v0.516h-2.111V22.897z"/>
	<path d="M217.998,22.897h-0.582v-4.306h2.98v0.516h-2.399v1.319h2.111v0.516h-2.111V22.897z"/>
</g>
<g>
	<path d="M212.399,5.094c-1.607,0-2.099-1.337-2.099-2.267s0.492-2.267,2.099-2.267c1.607,0,2.099,1.337,2.099,2.267
		S214.007,5.094,212.399,5.094z M212.399,1.076c-0.935,0-1.499,0.738-1.499,1.751c0,1.014,0.564,1.751,1.499,1.751
		c0.936,0,1.5-0.737,1.5-1.751C213.899,1.814,213.335,1.076,212.399,1.076z"/>
	<path d="M218.045,0.674h0.564V4.98h-0.654l-2.189-3.478h-0.012V4.98h-0.564V0.674h0.69l2.153,3.478h0.012V0.674z"/>
</g>
<g>
	<path d="M210.899,124.725c-1.607,0-2.099-1.337-2.099-2.267s0.492-2.267,2.099-2.267c1.607,0,2.099,1.337,2.099,2.267
		S212.507,124.725,210.899,124.725z M210.899,120.707c-0.935,0-1.499,0.738-1.499,1.751c0,1.014,0.564,1.751,1.499,1.751
		c0.936,0,1.5-0.737,1.5-1.751C212.399,121.445,211.835,120.707,210.899,120.707z"/>
	<path d="M214.332,124.611h-0.582v-4.306h2.98v0.516h-2.399v1.319h2.111v0.516h-2.111V124.611z"/>
	<path d="M217.998,124.611h-0.582v-4.306h2.98v0.516h-2.399v1.319h2.111v0.516h-2.111V124.611z"/>
</g>
<g>
	<path d="M212.399,106.807c-1.607,0-2.099-1.337-2.099-2.267s0.492-2.267,2.099-2.267c1.607,0,2.099,1.337,2.099,2.267
		S214.007,106.807,212.399,106.807z M212.399,102.79c-0.935,0-1.499,0.737-1.499,1.751s0.564,1.751,1.499,1.751
		c0.936,0,1.5-0.737,1.5-1.751S213.335,102.79,212.399,102.79z"/>
	<path d="M218.045,102.388h0.564v4.306h-0.654l-2.189-3.478h-0.012v3.478h-0.564v-4.306h0.69l2.153,3.478h0.012V102.388z"/>
</g>
<polyline class="st1" points="224.116,20.952 229.898,20.952 229.898,3.452 241.304,3.452 241.304,20.952 246.773,20.952 
	246.773,3.452 258.076,3.452 258.076,20.952 263.335,20.952 263.335,3.452 275.054,3.452 275.054,20.952 280.21,20.952 
	280.21,3.452 291.929,3.452 291.929,20.952 297.085,20.952 297.085,3.452 303.074,3.452 303.074,20.952 308.44,20.952 308.44,3.452 
	314.273,3.452 314.273,20.952 320.003,20.952 320.003,3.452 325.366,3.452 325.366,20.952 330.94,20.952 330.94,3.452 
	336.616,3.452 336.616,20.952 364.69,20.952 364.69,3.452 370.68,3.452 370.68,20.952 375.94,20.952 375.94,3.452 382.086,3.452 
	382.086,20.952 387.19,20.952 387.19,3.452 393.18,3.452 393.18,20.952 398.44,20.952 398.44,3.452 404.325,3.452 404.325,20.952 
	455.016,20.952 "/>
<polyline class="st1" points="224.273,89.684 229.898,89.684 229.898,83.391 246.773,83.391 246.773,80.019 263.335,80.019 
	263.335,76.208 280.21,76.208 280.21,72.502 297.085,72.502 297.085,69.057 308.44,69.057 308.44,62.204 320.003,62.204 
	320.003,58.496 330.94,58.496 330.94,54.739 364.69,54.739 364.69,51.243 375.94,51.243 375.94,47.534 387.19,47.534 387.19,44.197 
	398.44,44.197 398.44,40.36 432.086,40.36 432.086,89.965 454.274,89.965 "/>
<line class="st2" x1="210.878" y1="89.995" x2="432.086" y2="89.995"/>
<line class="st2" x1="207.398" y1="40.778" x2="432.086" y2="40.778"/>
<line class="st2" x1="229.898" y1="20.952" x2="229.898" y2="83.391"/>
<line class="st2" x1="246.773" y1="20.952" x2="246.773" y2="83.391"/>
<line class="st2" x1="263.648" y1="20.952" x2="263.648" y2="75.891"/>
<line class="st2" x1="280.523" y1="20.744" x2="280.523" y2="76.621"/>
<line class="st2" x1="297.398" y1="20.952" x2="297.398" y2="72.766"/>
<line class="st2" x1="308.753" y1="20.952" x2="308.753" y2="62.141"/>
<line class="st2" x1="320.108" y1="20.952" x2="320.108" y2="58.704"/>
<line class="st2" x1="331.045" y1="20.952" x2="331.045" y2="54.954"/>
<line class="st2" x1="398.544" y1="18.296" x2="398.544" y2="105.109"/>
<line class="st2" x1="432.19" y1="40.778" x2="432.19" y2="137.137"/>
<g>
	<g>
		<path class="st3" d="M351.618,9.049c0,0,4.274,3.472,0,10.952"/>
		<path class="st3" d="M351.618,30.953c0,0-4.274-3.472,0-10.952"/>
		<path class="st3" d="M349.747,9.049c0,0,4.275,3.472,0,10.952"/>
		<path class="st3" d="M349.747,30.953c0,0-4.274-3.472,0-10.952"/>
		<path class="st3" d="M351.618,20.001c4.274-7.479,0-10.952,0-10.952h-1.87c0,0,4.275,3.472,0,10.952"/>
		<path class="st3" d="M349.747,20.001c-4.274,7.48,0,10.952,0,10.952h1.87c0,0-4.274-3.472,0-10.952"/>
	</g>
	<path class="st2" d="M351.618,9.049c0,0,4.274,3.472,0,10.952"/>
	<path class="st2" d="M351.618,30.953c0,0-4.274-3.472,0-10.952"/>
	<path class="st2" d="M349.747,9.049c0,0,4.275,3.472,0,10.952"/>
	<path class="st2" d="M349.747,30.953c0,0-4.274-3.472,0-10.952"/>
	<path class="st2" d="M351.618,20.001c4.274-7.479,0-10.952,0-10.952"/>
	<path class="st2" d="M351.618,30.953c0,0-4.274-3.472,0-10.952"/>
	<path class="st2" d="M349.747,9.049c0,0,4.275,3.472,0,10.952"/>
	<path class="st2" d="M349.747,20.001c-4.274,7.48,0,10.952,0,10.952"/>
</g>
<g>
	<g>
		<path class="st3" d="M351.618,43.889c0,0,4.274,3.472,0,10.95"/>
		<path class="st3" d="M351.618,65.793c0,0-4.274-3.474,0-10.954"/>
		<path class="st3" d="M349.747,43.889c0,0,4.275,3.472,0,10.95"/>
		<path class="st3" d="M349.747,65.793c0,0-4.274-3.474,0-10.954"/>
		<path class="st3" d="M351.618,54.839c4.274-7.478,0-10.95,0-10.95h-1.87c0,0,4.275,3.472,0,10.95"/>
		<path class="st3" d="M349.747,54.839c-4.274,7.48,0,10.954,0,10.954h1.87c0,0-4.274-3.474,0-10.954"/>
	</g>
	<path class="st2" d="M351.618,43.889c0,0,4.274,3.472,0,10.95"/>
	<path class="st2" d="M351.618,65.793c0,0-4.274-3.474,0-10.954"/>
	<path class="st2" d="M349.747,43.889c0,0,4.275,3.472,0,10.95"/>
	<path class="st2" d="M349.747,65.793c0,0-4.274-3.474,0-10.954"/>
	<path class="st2" d="M351.618,54.839c4.274-7.478,0-10.95,0-10.95"/>
	<path class="st2" d="M351.618,65.793c0,0-4.274-3.474,0-10.954"/>
	<path class="st2" d="M349.747,43.889c0,0,4.275,3.472,0,10.95"/>
	<path class="st2" d="M349.747,54.839c-4.274,7.48,0,10.954,0,10.954"/>
</g>
<g>
	<g>
		<path class="st3" d="M351.618,102.951c0,0,4.274,3.472,0,10.95"/>
		<path class="st3" d="M351.618,124.855c0,0-4.274-3.474,0-10.955"/>
		<path class="st3" d="M349.747,102.951c0,0,4.275,3.472,0,10.95"/>
		<path class="st3" d="M349.747,124.855c0,0-4.274-3.474,0-10.955"/>
		<path class="st3" d="M351.618,113.901c4.274-7.478,0-10.95,0-10.95h-1.87c0,0,4.275,3.472,0,10.95"/>
		<path class="st3" d="M349.747,113.901c-4.274,7.48,0,10.955,0,10.955h1.87c0,0-4.274-3.474,0-10.955"/>
	</g>
	<path class="st2" d="M351.618,102.951c0,0,4.274,3.472,0,10.95"/>
	<path class="st2" d="M351.618,124.855c0,0-4.274-3.474,0-10.955"/>
	<path class="st2" d="M349.747,102.951c0,0,4.275,3.472,0,10.95"/>
	<path class="st2" d="M349.747,124.855c0,0-4.274-3.474,0-10.955"/>
	<path class="st2" d="M351.618,113.901c4.274-7.478,0-10.95,0-10.95"/>
	<path class="st2" d="M351.618,124.855c0,0-4.274-3.474,0-10.955"/>
	<path class="st2" d="M349.747,102.951c0,0,4.275,3.472,0,10.95"/>
	<path class="st2" d="M349.747,113.901c-4.274,7.48,0,10.955,0,10.955"/>
</g>
<path d="M229.844,3.488l3.322,6.618h-6.614L229.844,3.488z"/>
<path d="M246.719,3.488l3.322,6.618h-6.614L246.719,3.488z"/>
<path d="M263.359,3.488l3.322,6.618h-6.614L263.359,3.488z"/>
<path d="M280.234,3.488l3.322,6.618h-6.614L280.234,3.488z"/>
<path d="M297.031,3.488l3.322,6.618h-6.614L297.031,3.488z"/>
<path d="M308.438,3.488l3.322,6.618h-6.614L308.438,3.488z"/>
<path d="M320.078,3.488l3.322,6.618h-6.614L320.078,3.488z"/>
<path d="M330.938,3.488l3.322,6.618h-6.614L330.938,3.488z"/>
<path d="M364.688,3.488l3.322,6.618h-6.614L364.688,3.488z"/>
<path d="M375.938,3.488l3.322,6.618h-6.614L375.938,3.488z"/>
<path d="M387.109,3.488l3.322,6.618h-6.614L387.109,3.488z"/>
<path d="M398.463,3.488l3.323,6.618h-6.614L398.463,3.488z"/>
<g>
	<g>
		<path d="M181.131,112.661c-0.216-1.007-1.056-1.191-1.607-1.191c-1.04,0-1.879,0.768-1.879,2.279c0,1.351,0.479,2.391,1.903,2.391
			c0.504,0,1.375-0.24,1.639-1.575h0.751c-0.32,2.167-2.079,2.263-2.51,2.263c-1.304,0-2.583-0.848-2.583-3.054
			c0-1.767,1.008-2.99,2.679-2.99c1.479,0,2.247,0.919,2.359,1.879H181.131z"/>
	</g>
	<g>
		<path d="M188.222,110.793h0.658v5.029h-0.763l-2.557-4.062h-0.014v4.062h-0.658v-5.029h0.806l2.514,4.062h0.014V110.793z"/>
		<path d="M192.253,115.822v-0.532l-0.014-0.014c-0.259,0.427-0.574,0.651-1.163,0.651c-0.54,0-1.191-0.259-1.191-1.135v-2.633
			h0.617v2.43c0,0.603,0.308,0.806,0.707,0.806c0.777,0,1.009-0.687,1.009-1.219v-2.017h0.616v3.663H192.253z"/>
		<path d="M193.756,112.159h0.582v0.519h0.014c0.133-0.196,0.448-0.624,1.106-0.624s0.869,0.399,0.974,0.595
			c0.308-0.343,0.553-0.595,1.121-0.595c0.392,0,1.134,0.203,1.134,1.233v2.535h-0.616v-2.367c0-0.504-0.154-0.848-0.679-0.848
			c-0.519,0-0.862,0.49-0.862,0.98v2.234h-0.616v-2.535c0-0.309-0.119-0.68-0.574-0.68c-0.35,0-0.966,0.224-0.966,1.219v1.996
			h-0.617V112.159z"/>
	</g>
</g>
<g>
	<path d="M169.922,6.537h4.662v0.688h-1.943v5.053h-0.776V7.224h-1.943V6.537z"/>
	<path d="M175.058,12.277h-0.704V8.096h0.664v0.696h0.016c0.28-0.488,0.647-0.816,1.175-0.816c0.088,0,0.128,0.008,0.184,0.024
		v0.728h-0.264c-0.656,0-1.071,0.512-1.071,1.12V12.277z"/>
	<path d="M177.058,7.336V6.537h0.704v0.799H177.058z M177.762,12.277h-0.704V8.096h0.704V12.277z"/>
	<path d="M182.288,11.934c0,0.6-0.008,2.103-1.943,2.103c-0.496,0-1.463-0.136-1.599-1.248h0.704
		c0.128,0.664,0.775,0.664,0.943,0.664c1.215,0,1.191-0.976,1.191-1.471v-0.176h-0.016v0.032c-0.184,0.296-0.552,0.56-1.111,0.56
		c-1.423,0-1.839-1.335-1.839-2.335c0-1.175,0.632-2.087,1.743-2.087c0.759,0,1.079,0.472,1.247,0.712h0.016V8.096h0.664V11.934z
		 M180.473,11.79c0.448,0,1.144-0.296,1.144-1.407c0-0.68-0.112-1.775-1.127-1.775c-1.087,0-1.144,1.031-1.144,1.567
		C179.346,11.094,179.706,11.79,180.473,11.79z"/>
	<path d="M186.736,11.934c0,0.6-0.008,2.103-1.943,2.103c-0.496,0-1.463-0.136-1.599-1.248h0.704
		c0.128,0.664,0.775,0.664,0.943,0.664c1.215,0,1.191-0.976,1.191-1.471v-0.176h-0.016v0.032c-0.184,0.296-0.551,0.56-1.111,0.56
		c-1.423,0-1.839-1.335-1.839-2.335c0-1.175,0.632-2.087,1.743-2.087c0.759,0,1.079,0.472,1.247,0.712h0.016V8.096h0.664V11.934z
		 M184.921,11.79c0.448,0,1.144-0.296,1.144-1.407c0-0.68-0.112-1.775-1.127-1.775c-1.087,0-1.144,1.031-1.144,1.567
		C183.793,11.094,184.153,11.79,184.921,11.79z"/>
	<path d="M191.264,10.966c-0.024,0.2-0.216,0.792-0.744,1.143c-0.192,0.128-0.464,0.288-1.135,0.288
		c-1.175,0-1.871-0.888-1.871-2.095c0-1.295,0.624-2.327,2.007-2.327c1.208,0,1.799,0.959,1.799,2.439h-3.055
		c0,0.871,0.408,1.375,1.215,1.375c0.664,0,1.056-0.512,1.08-0.823H191.264z M190.592,9.854c-0.04-0.647-0.312-1.247-1.167-1.247
		c-0.648,0-1.16,0.6-1.16,1.247H190.592z"/>
	<path d="M192.962,12.277h-0.704V8.096h0.664v0.696h0.016c0.28-0.488,0.647-0.816,1.175-0.816c0.088,0,0.128,0.008,0.184,0.024
		v0.728h-0.264c-0.656,0-1.071,0.512-1.071,1.12V12.277z"/>
	<path d="M171.29,21.277h-0.775v-5.741h2.655c0.943,0,1.887,0.328,1.887,1.543c0,0.848-0.432,1.159-0.8,1.375
		c0.328,0.136,0.656,0.28,0.688,1.079l0.048,1.04c0.008,0.32,0.048,0.44,0.288,0.576v0.128h-0.951
		c-0.112-0.352-0.136-1.223-0.136-1.439c0-0.472-0.096-1.023-1.023-1.023h-1.879V21.277z M171.29,18.151h1.799
		c0.567,0,1.167-0.144,1.167-0.991c0-0.888-0.647-0.959-1.031-0.959h-1.935V18.151z"/>
	<path d="M177.809,21.429c-1.615,0-1.927-1.719-1.927-2.886s0.312-2.887,1.927-2.887c1.615,0,1.927,1.719,1.927,2.887
		S179.424,21.429,177.809,21.429z M177.809,16.288c-0.808,0-1.175,0.848-1.175,2.255s0.368,2.254,1.175,2.254
		s1.175-0.847,1.175-2.254S178.617,16.288,177.809,16.288z"/>
	<path d="M182.257,21.429c-1.615,0-1.927-1.719-1.927-2.886s0.312-2.887,1.927-2.887s1.927,1.719,1.927,2.887
		S183.872,21.429,182.257,21.429z M182.257,16.288c-0.808,0-1.175,0.848-1.175,2.255s0.368,2.254,1.175,2.254
		s1.175-0.847,1.175-2.254S183.064,16.288,182.257,16.288z"/>
	<path d="M186.705,21.429c-1.615,0-1.927-1.719-1.927-2.886s0.312-2.887,1.927-2.887s1.927,1.719,1.927,2.887
		S188.32,21.429,186.705,21.429z M186.705,16.288c-0.808,0-1.175,0.848-1.175,2.255s0.368,2.254,1.175,2.254
		s1.175-0.847,1.175-2.254S187.513,16.288,186.705,16.288z"/>
</g>
<g>
	<path d="M180.481,92.577c-0.576,0.328-1.255,0.464-1.927,0.464c-2.126,0-3.35-1.447-3.35-3.262c0-2.063,1.535-3.294,3.342-3.294
		c0.72,0,1.335,0.184,1.935,0.576l-0.256,0.688c-0.208-0.16-0.736-0.576-1.695-0.576c-1.623,0-2.575,1.191-2.575,2.59
		c0,1.239,0.76,2.591,2.655,2.591c1.04,0,1.583-0.4,1.871-0.608V92.577z"/>
	<path d="M183.499,88.075c1.231,0,2.327,0.919,2.327,2.487c0,1.551-1.095,2.479-2.319,2.479c-1.231,0-2.327-0.919-2.327-2.479
		C181.18,88.987,182.284,88.075,183.499,88.075z M183.499,92.385c0.688,0,1.607-0.448,1.607-1.823c0-1.375-0.919-1.823-1.599-1.823
		s-1.607,0.44-1.607,1.823C181.9,91.937,182.827,92.385,183.499,92.385z"/>
	<path d="M190.53,88.203v4.709h-0.719v-0.624c-0.496,0.744-1.328,0.751-1.479,0.751c-0.735,0-1.167-0.392-1.351-0.751
		c-0.176-0.36-0.2-0.688-0.2-1.431v-2.655h0.712v2.655c0,0.743,0,1.527,1.016,1.527c0.224,0,1.303-0.056,1.303-1.527v-2.655H190.53z
		"/>
	<path d="M191.74,92.913v-4.709h0.712v0.624c0.36-0.543,0.959-0.751,1.479-0.751c0.736,0,1.175,0.392,1.352,0.751
		c0.176,0.36,0.208,0.712,0.208,1.432v2.654h-0.719v-2.654c0-0.736,0-1.527-1.016-1.527c-0.224,0-1.303,0.064-1.303,1.527v2.654
		H191.74z"/>
	<path d="M196.844,86.852h0.712v1.351h1.431v0.664h-1.431v2.687c0,0.44,0,0.832,0.728,0.832c0.104,0,0.288-0.008,0.64-0.056v0.655
		c-0.168,0.024-0.416,0.056-0.744,0.056c-1.303,0-1.335-0.784-1.335-1.487v-2.687h-0.607v-0.664h0.607V86.852z"/>
</g>
<g>
	<path d="M191.362,40.206c-0.04-0.888-0.775-1.167-1.423-1.167c-0.488,0-1.311,0.136-1.311,1.007c0,0.488,0.344,0.647,0.68,0.728
		l1.639,0.376c0.744,0.176,1.304,0.624,1.304,1.535c0,1.359-1.264,1.735-2.247,1.735c-1.063,0-1.479-0.32-1.735-0.552
		c-0.488-0.439-0.584-0.919-0.584-1.455h0.728c0,1.04,0.847,1.343,1.583,1.343c0.56,0,1.503-0.144,1.503-0.967
		c0-0.6-0.28-0.792-1.223-1.016L189.1,41.5c-0.376-0.088-1.224-0.352-1.224-1.351c0-0.896,0.584-1.775,1.975-1.775
		c2.007,0,2.207,1.199,2.239,1.831H191.362z"/>
	<path d="M193.948,44.267h-0.704v-4.182h0.664v0.695h0.016c0.28-0.487,0.647-0.815,1.175-0.815c0.088,0,0.128,0.008,0.184,0.024
		v0.728h-0.264c-0.656,0-1.071,0.512-1.071,1.119V44.267z"/>
	<path d="M198.267,41.493c-0.088-0.56-0.4-0.896-0.991-0.896c-0.872,0-1.151,0.832-1.151,1.575c0,0.72,0.176,1.607,1.143,1.607
		c0.472,0,0.879-0.352,1-0.991h0.68c-0.072,0.664-0.48,1.599-1.703,1.599c-1.175,0-1.871-0.888-1.871-2.095
		c0-1.295,0.624-2.327,2.007-2.327c1.096,0,1.511,0.8,1.567,1.527H198.267z"/>
</g>
<g>
	<path d="M412.312,117.803c-2.143,0-2.799-1.783-2.799-3.022s0.656-3.022,2.799-3.022s2.799,1.783,2.799,3.022
		S414.454,117.803,412.312,117.803z M412.312,112.446c-1.247,0-1.999,0.983-1.999,2.334c0,1.352,0.752,2.335,1.999,2.335
		s1.999-0.983,1.999-2.335C414.311,113.43,413.559,112.446,412.312,112.446z"/>
	<path d="M419.839,111.911h0.751v5.741h-0.871l-2.919-4.637h-0.016v4.637h-0.752v-5.741h0.92l2.87,4.637h0.017V111.911z"/>
</g>
<g>
	<path d="M237.977,92.026h-0.751v-3.99h-1.312v-0.56c0.911-0.064,1.287-0.152,1.511-1.072h0.552V92.026z"/>
</g>
<g>
	<path d="M252.437,84.775c0-1.831,1.336-2.015,1.943-2.015c0.976,0,1.759,0.632,1.759,1.679c0,1.007-0.663,1.431-1.503,1.879
		l-0.584,0.32c-0.768,0.424-0.936,0.864-0.968,1.08h3.055v0.664h-3.846c0.04-1.167,0.567-1.791,1.319-2.231l0.743-0.432
		c0.6-0.344,1.031-0.576,1.031-1.311c0-0.448-0.287-1.016-1.111-1.016c-1.063,0-1.111,0.991-1.135,1.383H252.437z"/>
</g>
<g>
	<path d="M270.647,81.538c0.12,0.008,0.248,0.016,0.368,0.016c0.543,0,1.071-0.216,1.071-0.919c0-0.336-0.2-0.888-1.04-0.888
		c-0.999,0-1.063,0.815-1.095,1.208h-0.688c0-0.824,0.335-1.839,1.814-1.839c1.088,0,1.735,0.624,1.735,1.479
		c0,0.719-0.416,1.063-0.72,1.159v0.016c0.544,0.176,0.936,0.56,0.936,1.311c0,0.919-0.592,1.807-2.023,1.807
		c-0.415,0-0.768-0.104-1.039-0.248c-0.624-0.328-0.791-0.975-0.84-1.623h0.728c0.024,0.528,0.152,1.239,1.2,1.239
		c0.719,0,1.223-0.439,1.223-1.087c0-0.944-0.831-1.032-1.311-1.032c-0.104,0-0.217,0.008-0.32,0.008V81.538z"/>
</g>
<g>
	<path d="M289.506,80.034v1.367h-0.704v-1.367h-2.454v-0.688l2.574-3.566h0.584v3.646h0.823v0.608H289.506z M286.995,79.426h1.807
		v-2.55h-0.016L286.995,79.426z"/>
</g>
<g>
	<path d="M301.282,74.591c0.239-0.184,0.583-0.352,1.087-0.352c0.911,0,1.847,0.64,1.847,1.799c0,0.624-0.279,1.975-2.038,1.975
		c-0.736,0-1.68-0.296-1.815-1.551h0.728c0.072,0.656,0.56,0.944,1.191,0.944c0.728,0,1.184-0.584,1.184-1.288
		c0-0.808-0.552-1.247-1.247-1.247c-0.408,0-0.776,0.192-1.04,0.536l-0.607-0.032l0.424-3.014h2.91v0.688h-2.383L301.282,74.591z"/>
</g>
<g>
	<path d="M314.97,66.851c-0.088-0.496-0.359-0.864-0.967-0.864c-1.104,0-1.336,1.487-1.336,2.079l0.017,0.016
		c0.176-0.304,0.567-0.688,1.335-0.688c0.688,0,1.759,0.44,1.759,1.783c0,0.576-0.151,0.991-0.535,1.407
		c-0.296,0.328-0.632,0.543-1.424,0.543c-0.432,0-1.047-0.192-1.447-0.815c-0.336-0.528-0.432-1.215-0.432-1.951
		c0-1.231,0.399-3.006,2.079-3.006c0.647,0,1.567,0.352,1.639,1.496H314.97z M313.946,70.497c0.672,0,1.104-0.527,1.104-1.287
		c0-0.496-0.264-1.183-1.136-1.183c-0.775,0-1.151,0.56-1.151,1.223C312.763,69.849,313.123,70.497,313.946,70.497z"/>
</g>
<g>
	<path d="M323.078,61.701h3.886v0.616c-0.56,0.583-1.903,2.375-2.311,4.885h-0.775c0.191-1.543,1.215-3.558,2.295-4.813h-3.095
		V61.701z"/>
</g>
<g>
	<path d="M368.228,56.009c0-1.023,0.623-1.927,1.807-1.927c1.791,0,1.967,1.695,1.967,2.607c0,0.6-0.104,3.166-2.038,3.166
		c-1.319,0-1.672-0.959-1.672-1.503h0.704c0.04,0.567,0.376,0.919,0.951,0.919c0.768,0,1.176-0.648,1.352-2.103l-0.016-0.016
		c-0.208,0.432-0.768,0.672-1.288,0.672C368.955,57.824,368.228,57.128,368.228,56.009z M371.178,55.913
		c0-0.64-0.328-1.199-1.136-1.199c-0.655,0-1.087,0.512-1.087,1.263c0,1.08,0.672,1.215,1.144,1.215
		C370.466,57.192,371.178,57.024,371.178,55.913z"/>
</g>
<g>
	<path d="M380.922,55.978h-0.751v-3.99h-1.312v-0.56c0.911-0.064,1.287-0.152,1.511-1.072h0.552V55.978z"/>
	<path d="M384.282,56.129c-1.615,0-1.927-1.719-1.927-2.886s0.312-2.887,1.927-2.887s1.927,1.719,1.927,2.887
		S385.897,56.129,384.282,56.129z M384.282,50.988c-0.808,0-1.175,0.848-1.175,2.255s0.367,2.254,1.175,2.254
		s1.176-0.847,1.176-2.254S385.09,50.988,384.282,50.988z"/>
</g>
<g>
	<path d="M392.391,52.774h-0.751v-3.99h-1.312v-0.56c0.911-0.064,1.287-0.152,1.511-1.072h0.552V52.774z"/>
	<path d="M395.919,52.774h-0.751v-3.99h-1.312v-0.56c0.911-0.064,1.287-0.152,1.511-1.072h0.552V52.774z"/>
</g>
<g>
	<path d="M336.861,60.286c0.76,0.32,0.92,0.943,0.92,1.367c0,0.903-0.576,1.775-1.903,1.775c-0.312,0-0.903-0.08-1.351-0.432
		c-0.576-0.456-0.576-1.063-0.576-1.335c0-0.688,0.36-1.127,0.951-1.367c-0.479-0.184-0.759-0.568-0.759-1.095
		c0-0.584,0.359-1.543,1.703-1.543c1.247,0,1.734,0.792,1.734,1.447C337.581,59.91,337.109,60.158,336.861,60.286z M334.703,61.677
		c0,0.448,0.224,1.119,1.199,1.119c0.512,0,1.127-0.184,1.127-1.063c0-0.76-0.527-1.096-1.167-1.096
		C335.07,60.638,334.703,61.158,334.703,61.677z M336.854,59.126c0-0.344-0.224-0.839-1.047-0.839c-0.752,0-0.936,0.52-0.936,0.879
		c0,0.536,0.472,0.864,0.983,0.864C336.462,60.03,336.854,59.638,336.854,59.126z"/>
</g>
<line class="st1" x1="0.5" y1="21.674" x2="103.233" y2="21.674"/>
<line class="st1" x1="0.5" y1="3.958" x2="0.5" y2="122.626"/>
<line class="st1" x1="150.36" y1="3.958" x2="150.36" y2="122.626"/>
<g>
	<rect x="18.217" y="18.132" class="st3" width="7.087" height="7.088"/>
	<line class="st1" x1="25.303" y1="18.132" x2="25.303" y2="25.219"/>
	<line class="st1" x1="18.217" y1="25.219" x2="18.217" y2="18.132"/>
</g>
<line class="st1" x1="0.756" y1="64.194" x2="150.615" y2="64.194"/>
<g>
	<rect x="18.217" y="60.651" class="st3" width="7.087" height="7.087"/>
	<line class="st1" x1="25.303" y1="60.651" x2="25.303" y2="67.739"/>
	<line class="st1" x1="18.217" y1="67.739" x2="18.217" y2="60.651"/>
</g>
<path class="st4" d="M124.19,64.193c0,1.958-1.587,3.545-3.545,3.545c-1.956,0-3.542-1.587-3.542-3.545
	c0-1.956,1.587-3.541,3.542-3.541C122.603,60.651,124.19,62.237,124.19,64.193z"/>
<g>
	<path d="M13.524,14.133h-0.775V8.393h2.655c0.943,0,1.887,0.328,1.887,1.543c0,0.848-0.432,1.16-0.8,1.375
		c0.328,0.136,0.656,0.28,0.688,1.079l0.048,1.04c0.008,0.32,0.048,0.44,0.288,0.576v0.128h-0.951
		c-0.112-0.352-0.136-1.223-0.136-1.439c0-0.472-0.096-1.023-1.023-1.023h-1.879V14.133z M13.524,11.007h1.799
		c0.567,0,1.167-0.144,1.167-0.991c0-0.888-0.647-0.959-1.031-0.959h-1.935V11.007z"/>
	<path d="M20.043,14.285c-1.615,0-1.927-1.719-1.927-2.886c0-1.167,0.312-2.887,1.927-2.887c1.615,0,1.927,1.719,1.927,2.887
		C21.971,12.566,21.659,14.285,20.043,14.285z M20.043,9.144c-0.808,0-1.175,0.848-1.175,2.255s0.368,2.255,1.175,2.255
		s1.175-0.848,1.175-2.255S20.851,9.144,20.043,9.144z"/>
	<path d="M24.491,14.285c-1.615,0-1.927-1.719-1.927-2.886c0-1.167,0.312-2.887,1.927-2.887s1.927,1.719,1.927,2.887
		C26.418,12.566,26.106,14.285,24.491,14.285z M24.491,9.144c-0.808,0-1.175,0.848-1.175,2.255s0.368,2.255,1.175,2.255
		s1.175-0.848,1.175-2.255S25.299,9.144,24.491,9.144z"/>
	<path d="M28.939,14.285c-1.615,0-1.927-1.719-1.927-2.886c0-1.167,0.312-2.887,1.927-2.887s1.927,1.719,1.927,2.887
		C30.867,12.566,30.555,14.285,28.939,14.285z M28.939,9.144c-0.808,0-1.175,0.848-1.175,2.255s0.368,2.255,1.175,2.255
		s1.175-0.848,1.175-2.255S29.747,9.144,28.939,9.144z"/>
</g>
<g>
	<path d="M21.131,52.62c-0.216-1.008-1.056-1.191-1.607-1.191c-1.04,0-1.879,0.768-1.879,2.279c0,1.351,0.479,2.391,1.903,2.391
		c0.504,0,1.375-0.24,1.639-1.575h0.751c-0.32,2.167-2.079,2.263-2.51,2.263c-1.304,0-2.583-0.848-2.583-3.054
		c0-1.767,1.008-2.99,2.679-2.99c1.479,0,2.247,0.919,2.359,1.879H21.131z"/>
	<path d="M24.492,56.785c-1.615,0-1.927-1.719-1.927-2.886c0-1.167,0.312-2.887,1.927-2.887c1.615,0,1.927,1.719,1.927,2.887
		C26.419,55.066,26.107,56.785,24.492,56.785z M24.492,51.644c-0.808,0-1.175,0.848-1.175,2.255s0.368,2.255,1.175,2.255
		s1.175-0.848,1.175-2.255S25.299,51.644,24.492,51.644z"/>
</g>
<polyline class="st1" points="223.961,159.335 432.247,159.335 432.234,137.137 454.274,137.137 "/>
<path d="M432.234,137.137l3.322,6.616h-6.614L432.234,137.137z"/>
<g>
	<path d="M210.899,161.431c-1.607,0-2.099-1.338-2.099-2.267c0-0.93,0.492-2.268,2.099-2.268c1.607,0,2.099,1.338,2.099,2.268
		C212.999,160.093,212.507,161.431,210.899,161.431z M210.899,157.413c-0.935,0-1.499,0.738-1.499,1.752
		c0,1.013,0.564,1.751,1.499,1.751c0.936,0,1.5-0.738,1.5-1.751C212.399,158.151,211.835,157.413,210.899,157.413z"/>
	<path d="M214.332,161.317h-0.582v-4.306h2.98v0.516h-2.399v1.319h2.111v0.516h-2.111V161.317z"/>
	<path d="M217.998,161.317h-0.582v-4.306h2.98v0.516h-2.399v1.319h2.111v0.516h-2.111V161.317z"/>
</g>
<g>
	<path d="M212.399,143.515c-1.607,0-2.099-1.338-2.099-2.267c0-0.93,0.492-2.267,2.099-2.267c1.607,0,2.099,1.337,2.099,2.267
		C214.499,142.177,214.007,143.515,212.399,143.515z M212.399,139.497c-0.935,0-1.499,0.738-1.499,1.751
		c0,1.013,0.564,1.751,1.499,1.751c0.936,0,1.5-0.738,1.5-1.751C213.899,140.235,213.335,139.497,212.399,139.497z"/>
	<path d="M218.045,139.095h0.564v4.306h-0.654l-2.189-3.478h-0.012v3.478h-0.564v-4.306h0.69l2.153,3.479h0.012V139.095z"/>
</g>
<g>
	<path d="M180.739,148.073c0.496,0,0.88,0.024,1.231,0.208c0.752,0.4,0.864,1.119,0.864,1.543c0,1.08-0.768,1.655-1.719,1.775
		l2.151,2.774h-0.919l-2.063-2.767h-0.52v2.767h-0.751v-6.301H180.739z M179.764,148.76v2.175h0.839c0.392,0,1.487-0.04,1.487-1.111
		c0-1.063-0.936-1.063-1.479-1.063H179.764z"/>
	<path d="M183.749,151.223c0-0.632,0-3.278,2.183-3.278c2.183,0,2.183,2.646,2.183,3.278s0,3.278-2.183,3.278
		C183.749,154.501,183.749,151.863,183.749,151.223z M187.363,151.223c0-1.047-0.16-2.591-1.431-2.591
		c-1.255,0-1.431,1.504-1.431,2.591c0,1.128,0.192,2.591,1.431,2.591C187.187,153.814,187.363,152.302,187.363,151.223z"/>
	<path d="M189.028,151.223c0-0.632,0-3.278,2.183-3.278c2.183,0,2.183,2.646,2.183,3.278s0,3.278-2.183,3.278
		C189.028,154.501,189.028,151.863,189.028,151.223z M192.643,151.223c0-1.047-0.16-2.591-1.431-2.591
		c-1.255,0-1.431,1.504-1.431,2.591c0,1.128,0.192,2.591,1.431,2.591C192.467,153.814,192.643,152.302,192.643,151.223z"/>
	<path d="M196.403,148.073h0.671v6.301h-0.768v-5.461l-1.208,0.831l-0.104-0.711L196.403,148.073z"/>
</g>
<g>
	<path d="M404.036,48.901h-0.751v-3.99h-1.312v-0.56c0.911-0.064,1.287-0.152,1.511-1.072h0.552V48.901z"/>
	<path d="M405.646,45.295c0-1.831,1.336-2.015,1.943-2.015c0.976,0,1.759,0.632,1.759,1.679c0,1.007-0.663,1.431-1.503,1.879
		l-0.584,0.32c-0.768,0.424-0.936,0.864-0.968,1.08h3.055v0.664h-3.846c0.04-1.167,0.567-1.791,1.319-2.231l0.743-0.432
		c0.6-0.344,1.031-0.576,1.031-1.311c0-0.448-0.287-1.016-1.111-1.016c-1.063,0-1.111,0.992-1.135,1.383H405.646z"/>
</g>
<line class="st1" x1="0.756" y1="105.761" x2="103.233" y2="105.761"/>
<g>
	<rect x="18.217" y="102.219" class="st3" width="7.087" height="7.087"/>
	<line class="st1" x1="25.303" y1="102.219" x2="25.303" y2="109.306"/>
	<line class="st1" x1="18.217" y1="109.306" x2="18.217" y2="102.219"/>
</g>
<path class="st4" d="M136.374,102.219c1.958,0,3.545,1.586,3.545,3.541c0,1.958-1.587,3.545-3.545,3.545"/>
<g>
	<path d="M13.824,98.201h-0.775V92.46h2.654c0.944,0,1.887,0.328,1.887,1.543c0,0.848-0.432,1.16-0.799,1.375
		c0.328,0.136,0.655,0.28,0.688,1.079l0.048,1.04c0.008,0.32,0.048,0.44,0.288,0.576v0.128h-0.952
		c-0.112-0.352-0.136-1.223-0.136-1.439c0-0.472-0.096-1.023-1.023-1.023h-1.879V98.201z M13.824,95.074h1.799
		c0.567,0,1.167-0.144,1.167-0.991c0-0.888-0.648-0.959-1.032-0.959h-1.935V95.074z"/>
	<path d="M20.344,98.353c-1.615,0-1.927-1.719-1.927-2.886c0-1.167,0.312-2.887,1.927-2.887s1.927,1.719,1.927,2.887
		C22.271,96.633,21.959,98.353,20.344,98.353z M20.344,93.211c-0.808,0-1.175,0.848-1.175,2.255s0.368,2.255,1.175,2.255
		s1.175-0.848,1.175-2.255S21.151,93.211,20.344,93.211z"/>
	<path d="M24.792,98.353c-1.615,0-1.927-1.719-1.927-2.886c0-1.167,0.312-2.887,1.927-2.887s1.927,1.719,1.927,2.887
		C26.719,96.633,26.407,98.353,24.792,98.353z M24.792,93.211c-0.808,0-1.175,0.848-1.175,2.255s0.368,2.255,1.175,2.255
		s1.175-0.848,1.175-2.255S25.6,93.211,24.792,93.211z"/>
	<path d="M29.288,98.201h-0.752v-3.99h-1.311v-0.56c0.912-0.064,1.287-0.152,1.511-1.072h0.552V98.201z"/>
</g>
<g>
	<path d="M120.172,94.187c-0.216-1.008-1.056-1.191-1.607-1.191c-1.04,0-1.879,0.768-1.879,2.279c0,1.351,0.479,2.391,1.903,2.391
		c0.504,0,1.375-0.24,1.639-1.575h0.751c-0.32,2.167-2.079,2.263-2.51,2.263c-1.304,0-2.583-0.848-2.583-3.054
		c0-1.767,1.008-2.99,2.679-2.99c1.479,0,2.247,0.919,2.359,1.879H120.172z"/>
	<path d="M123.533,98.353c-1.615,0-1.927-1.719-1.927-2.886c0-1.167,0.312-2.887,1.927-2.887c1.615,0,1.927,1.719,1.927,2.887
		C125.46,96.633,125.148,98.353,123.533,98.353z M123.533,93.211c-0.808,0-1.175,0.848-1.175,2.255s0.368,2.255,1.175,2.255
		s1.175-0.848,1.175-2.255S124.34,93.211,123.533,93.211z"/>
</g>
<path class="st4" d="M106.775,109.305c-1.956,0-3.543-1.587-3.543-3.545c0-1.956,1.587-3.541,3.543-3.541"/>
<line class="st1" x1="139.919" y1="105.76" x2="150.36" y2="105.76"/>
<g>
	<path d="M114.809,109.293h-0.775v-5.741h2.655c0.943,0,1.887,0.328,1.887,1.543c0,0.848-0.432,1.16-0.8,1.375
		c0.328,0.136,0.656,0.28,0.688,1.079l0.048,1.04c0.008,0.32,0.048,0.44,0.288,0.576v0.128h-0.951
		c-0.112-0.352-0.136-1.223-0.136-1.439c0-0.472-0.096-1.023-1.023-1.023h-1.879V109.293z M114.809,106.167h1.799
		c0.567,0,1.167-0.144,1.167-0.991c0-0.888-0.647-0.959-1.031-0.959h-1.935V106.167z"/>
	<path d="M124.031,109.293h-4.238v-5.741h4.182v0.688h-3.406V106h3.142v0.688h-3.142v1.919h3.462V109.293z"/>
	<path d="M128.512,105.232c-0.04-0.888-0.775-1.167-1.423-1.167c-0.488,0-1.311,0.136-1.311,1.007c0,0.488,0.344,0.647,0.68,0.728
		l1.639,0.376c0.744,0.176,1.304,0.624,1.304,1.535c0,1.359-1.264,1.735-2.247,1.735c-1.063,0-1.479-0.32-1.735-0.552
		c-0.488-0.439-0.584-0.919-0.584-1.455h0.728c0,1.04,0.847,1.343,1.583,1.343c0.56,0,1.503-0.144,1.503-0.967
		c0-0.6-0.28-0.792-1.223-1.016l-1.175-0.272c-0.376-0.088-1.224-0.352-1.224-1.351c0-0.896,0.584-1.775,1.975-1.775
		c2.007,0,2.207,1.199,2.239,1.831H128.512z"/>
</g>
<path class="st4" d="M136.374,18.133c1.958,0,3.545,1.586,3.545,3.541c0,1.958-1.587,3.545-3.545,3.545"/>
<g>
	<path d="M117.004,14.115h-0.528l0.232-1.679h-1l-0.232,1.679h-0.528l0.232-1.679h-0.824l0.072-0.503h0.823l0.152-1.136h-0.824
		l0.072-0.503h0.824l0.232-1.679h0.536l-0.232,1.679h0.992l0.232-1.679h0.536l-0.232,1.679h0.823l-0.072,0.503h-0.824l-0.16,1.136
		h0.824l-0.072,0.503h-0.823L117.004,14.115z M115.941,10.797l-0.16,1.136h1l0.152-1.136H115.941z"/>
	<path d="M121.453,14.115h-0.752v-3.99h-1.311v-0.56c0.912-0.064,1.287-0.152,1.511-1.072h0.552V14.115z"/>
	<path d="M123.062,10.509c0-1.831,1.335-2.015,1.943-2.015c0.975,0,1.759,0.632,1.759,1.679c0,1.007-0.664,1.431-1.503,1.879
		l-0.584,0.32c-0.768,0.424-0.936,0.864-0.967,1.08h3.054v0.664h-3.846c0.04-1.167,0.567-1.791,1.319-2.231l0.743-0.432
		c0.6-0.344,1.032-0.576,1.032-1.311c0-0.448-0.288-1.016-1.111-1.016c-1.063,0-1.111,0.992-1.135,1.383H123.062z"/>
</g>
<path class="st4" d="M106.775,25.219c-1.956,0-3.543-1.587-3.543-3.545c0-1.955,1.587-3.541,3.543-3.541"/>
<g>
	<g>
		<path d="M121.08,21.194c-0.216-1.008-1.056-1.191-1.607-1.191c-1.04,0-1.879,0.768-1.879,2.279c0,1.351,0.479,2.391,1.903,2.391
			c0.504,0,1.375-0.24,1.639-1.575h0.751c-0.32,2.167-2.079,2.263-2.51,2.263c-1.304,0-2.583-0.848-2.583-3.054
			c0-1.767,1.008-2.99,2.679-2.99c1.479,0,2.247,0.919,2.359,1.879H121.08z"/>
		<path d="M124.441,25.359c-1.615,0-1.927-1.719-1.927-2.886c0-1.167,0.312-2.887,1.927-2.887c1.615,0,1.927,1.719,1.927,2.887
			C126.368,23.64,126.056,25.359,124.441,25.359z M124.441,20.218c-0.808,0-1.175,0.848-1.175,2.255s0.368,2.255,1.175,2.255
			s1.175-0.848,1.175-2.255S125.249,20.218,124.441,20.218z"/>
	</g>
</g>
<line class="st1" x1="139.919" y1="21.674" x2="150.36" y2="21.674"/>
</svg>
