<?xml version="1.0" encoding="utf-8"?>
<!-- Generator: Adobe Illustrator 28.2.0, SVG Export Plug-In . SVG Version: 6.00 Build 0)  -->
<svg version="1.1" xmlns="http://www.w3.org/2000/svg" xmlns:xlink="http://www.w3.org/1999/xlink" x="0px" y="0px"
	 width="249.449px" height="65.333px" viewBox="0 0 249.449 65.333" style="enable-background:new 0 0 249.449 65.333;"
	 xml:space="preserve">
<style type="text/css">
	.st0{fill:none;stroke:#666666;stroke-width:0.5;stroke-miterlimit:10;stroke-dasharray:1;}
	.st1{fill:none;stroke:#000000;stroke-width:0.5;stroke-miterlimit:10;}
</style>
<g id="レイヤー_1">
	<g>
		<line class="st0" x1="22.632" y1="3.806" x2="22.632" y2="60.498"/>
		<line class="st0" x1="107.658" y1="9.475" x2="107.658" y2="60.498"/>
		<line class="st0" x1="51.023" y1="3.806" x2="51.023" y2="46.311"/>
	</g>
	<g>
		<g>
			<g>
				<line class="st1" x1="107.174" y1="54.829" x2="23.219" y2="54.829"/>
				<g>
					<polygon points="105.517,52.784 105.176,53.15 106.982,54.829 105.176,56.507 105.517,56.874 107.716,54.829 					"/>
				</g>
				<g>
					<polygon points="24.876,52.784 25.217,53.15 23.411,54.829 25.217,56.507 24.876,56.874 22.677,54.829 					"/>
				</g>
			</g>
		</g>
	</g>
	<polyline class="st1" points="249.449,46.325 221.102,46.311 221.102,17.966 192.756,17.979 192.756,46.325 136.063,46.311 
		136.063,17.966 107.716,17.979 107.716,46.325 51.023,46.311 51.023,17.966 22.677,17.979 22.677,46.325 0,46.325 	"/>
	<g>
		<g>
			<g>
				<line class="st1" x1="50.481" y1="9.475" x2="23.219" y2="9.475"/>
				<g>
					<polygon points="48.824,7.43 48.483,7.796 50.289,9.474 48.483,11.153 48.824,11.519 51.023,9.474 					"/>
				</g>
				<g>
					<polygon points="24.876,7.43 25.217,7.796 23.411,9.474 25.217,11.153 24.876,11.519 22.677,9.474 					"/>
				</g>
			</g>
		</g>
	</g>
</g>
<g id="レイヤー_2">
	<g>
		<path d="M43.792,59.591v-0.4h0.616v-0.656c0-0.656,0.24-1.071,0.88-1.071c0.144,0,0.271,0.008,0.399,0.032v0.44
			c-0.096-0.024-0.2-0.04-0.288-0.04c-0.496,0-0.512,0.408-0.512,0.784v0.512h0.799v0.4h-0.799v3.742h-0.48v-3.742H43.792z"/>
		<path d="M45.985,57.576h4.189v0.464h-1.823v5.293h-0.543V58.04h-1.823V57.576z"/>
		<path d="M51.416,64.964h-0.479v-5.773h0.479v0.728h0.016c0.28-0.544,0.912-0.839,1.439-0.839c1.335,0,1.871,0.951,1.871,2.175
			c0,1.159-0.583,2.19-1.847,2.19c-0.584,0-1.176-0.271-1.479-0.775V64.964z M52.816,63.013c0.991,0,1.455-0.839,1.415-1.879
			c-0.008-1.04-0.607-1.623-1.415-1.623c-0.904,0-1.399,0.768-1.399,1.767C51.416,62.213,51.944,63.013,52.816,63.013z"/>
		<path d="M55.497,61.262c0-1.208,0.64-2.183,1.919-2.183c1.295,0,1.919,0.967,1.919,2.183c0,1.311-0.759,2.183-1.919,2.183
			C56.36,63.429,55.497,62.709,55.497,61.262z M57.415,59.511c-1.007,0-1.407,0.855-1.407,1.751c0,1.031,0.488,1.751,1.407,1.751
			c1.008,0,1.407-0.863,1.407-1.751C58.815,60.287,58.431,59.511,57.415,59.511z"/>
		<path d="M63.023,59.191h0.479v4.142h-0.479v-0.576c-0.256,0.288-0.608,0.688-1.335,0.688c-1.104,0-1.471-0.664-1.471-1.527v-2.727
			h0.48v2.718c0,0.712,0.312,1.104,1.063,1.104c0.792,0,1.264-0.656,1.264-1.567V59.191z"/>
		<path d="M66.12,63.349c-0.112,0.024-0.32,0.096-0.552,0.096c-0.472,0-0.735-0.208-0.735-0.823v-3.03h-0.583v-0.4h0.583V58.04
			h0.479v1.151h0.776v0.4h-0.776v2.838c0,0.408,0.016,0.583,0.416,0.583c0.128,0,0.264-0.024,0.392-0.056V63.349z"/>
		<path d="M71.047,59.247c-0.224-0.983-0.832-1.359-1.815-1.359c-1.391,0-1.991,1.191-1.991,2.55c0,1.288,0.472,2.583,2.039,2.583
			c0.992,0,1.607-0.671,1.823-1.583h0.567c-0.256,1.111-0.951,2.047-2.495,2.047c-1.775,0-2.479-1.399-2.479-3.03
			c0-2.199,1.151-3.03,2.679-3.03c1.183,0,2.047,0.632,2.23,1.823H71.047z"/>
		<path d="M72.633,64.46c0.128,0.024,0.264,0.048,0.399,0.048c0.544,0,0.624-0.784,0.808-1.144l-1.607-4.173h0.536l1.327,3.558
			l1.327-3.558h0.52L74.4,63.277c-0.392,1.04-0.647,1.688-1.311,1.688c-0.168,0-0.328-0.024-0.456-0.056V64.46z"/>
		<path d="M79.6,60.495c-0.168-0.616-0.592-0.983-1.231-0.983c-0.983,0-1.391,0.896-1.391,1.759c0,0.872,0.399,1.743,1.391,1.743
			c0.711,0,1.159-0.424,1.271-1.111h0.512c-0.167,0.919-0.743,1.543-1.783,1.543c-1.319,0-1.903-0.951-1.903-2.175
			c0-1.151,0.664-2.19,1.903-2.19c0.952,0,1.575,0.456,1.719,1.415H79.6z"/>
		<path d="M81.185,63.333v-5.757h0.48v5.757H81.185z"/>
		<path d="M83.185,61.374c-0.008,0.896,0.472,1.639,1.391,1.639c0.624,0,1.111-0.344,1.255-0.952h0.536
			c-0.24,0.784-0.735,1.383-1.791,1.383c-1.327,0-1.903-0.943-1.903-2.167c0-1.208,0.72-2.199,1.903-2.199
			c1.135,0,1.831,0.807,1.823,2.294H83.185z M85.888,60.974c0-0.808-0.448-1.463-1.312-1.463c-0.848,0-1.295,0.68-1.391,1.463
			H85.888z"/>
	</g>
	<g>
		<path d="M30.123,2.898v-0.4h0.615V1.843c0-0.656,0.24-1.071,0.88-1.071c0.144,0,0.271,0.008,0.399,0.032v0.44
			c-0.096-0.024-0.2-0.04-0.288-0.04c-0.496,0-0.512,0.408-0.512,0.784v0.512h0.799v0.4h-0.799V6.64h-0.48V2.898H30.123z"/>
		<path d="M32.81,6.64V0.883h0.832l1.887,5.077h0.016L37.4,0.883h0.823V6.64H37.68V1.507h-0.016L35.776,6.64h-0.512L33.37,1.507
			h-0.016V6.64H32.81z"/>
		<path d="M38.995,0.883h0.567L41.297,6l1.727-5.117h0.567L41.593,6.64h-0.6L38.995,0.883z"/>
	</g>
	<g>
	</g>
	<g>
	</g>
	<g>
	</g>
	<g>
	</g>
	<g>
	</g>
	<g>
	</g>
	<g>
	</g>
	<g>
	</g>
	<g>
	</g>
	<g>
	</g>
	<g>
	</g>
	<g>
	</g>
	<g>
	</g>
	<g>
	</g>
	<g>
	</g>
	<g>
	</g>
</g>
</svg>
