<?xml version="1.0" encoding="utf-8"?>
<!-- Generator: Adobe Illustrator 28.2.0, SVG Export Plug-In . SVG Version: 6.00 Build 0)  -->
<svg version="1.1" xmlns="http://www.w3.org/2000/svg" xmlns:xlink="http://www.w3.org/1999/xlink" x="0px" y="0px"
	 width="213.113px" height="120.467px" viewBox="0 0 213.113 120.467" style="enable-background:new 0 0 213.113 120.467;"
	 xml:space="preserve">
<style type="text/css">
	.st0{fill:none;stroke:#000000;}
	.st1{fill:none;stroke:#000000;stroke-width:0.5;}
	.st2{fill:#040000;}
	.st3{fill:none;stroke:#040000;stroke-width:0.5;}
	.st4{fill:none;stroke:#808080;}
	.st5{fill:#3574F2;}
</style>
<g id="レイヤー_1">
	<g>
		<polyline class="st0" points="19.314,10.381 19.314,117.989 208.794,117.989 		"/>
		<polygon points="19.314,8.965 16.835,15.749 21.793,15.749 19.314,8.965 16.835,15.749 21.793,15.749 		"/>
		<polygon points="213.113,117.989 206.328,115.511 206.328,120.467 213.113,117.989 206.328,115.511 206.328,120.467 		"/>
		<line class="st1" x1="19.108" y1="43.603" x2="206.184" y2="43.603"/>
		<g>
			<polygon points="60.956,35.488 62.25,31.363 59.662,31.363 60.956,35.488 62.25,31.363 59.662,31.363 			"/>
			<line class="st1" x1="60.956" y1="33.335" x2="60.956" y2="26.936"/>
		</g>
		<g>
			<path class="st2" d="M0.872,44.388c0.088,1.032,0.775,1.407,1.655,1.407c1.032,0,1.463-0.56,1.463-1.191
				c0-1.783-3.51-0.6-3.51-2.863c0-0.799,0.664-1.543,1.951-1.543c1.295,0,1.943,0.784,1.935,1.719h-0.52
				c0-0.88-0.68-1.255-1.415-1.255c-1.104,0-1.503,0.679-1.407,1.271c0.248,1.487,3.51,0.416,3.51,2.646
				c0,1.056-0.776,1.679-2.103,1.679c-1.199,0-2.087-0.624-2.087-1.871H0.872z"/>
			<path class="st2" d="M5.032,40.351h0.567l1.735,5.117l1.727-5.117h0.567L7.63,46.107h-0.6L5.032,40.351z"/>
		</g>
		<polygon class="st3" points="19.108,44.18 15.669,45.459 12.234,46.738 12.234,44.18 12.234,41.621 15.669,42.9 		"/>
		<g>
			<polygon points="123.097,55.979 125.669,59.454 127.192,57.363 123.097,55.979 125.669,59.454 127.192,57.363 			"/>
			<line class="st1" x1="124.837" y1="57.246" x2="135.916" y2="65.021"/>
		</g>
		<g>
			<polygon points="51.222,62.853 53.794,66.329 55.317,64.238 51.222,62.853 53.794,66.329 55.317,64.238 			"/>
			<line class="st1" x1="52.962" y1="64.122" x2="64.041" y2="71.896"/>
		</g>
		<g>
			<polygon points="120.483,37.992 123.377,34.778 121.023,33.704 120.483,37.992 123.377,34.778 121.023,33.704 			"/>
			<line class="st1" x1="121.379" y1="36.033" x2="127.427" y2="22.801"/>
		</g>
		<g>
			<path class="st2" d="M15.05,6.64V0.883h2.103c1.495,0,1.879,0.744,1.879,1.607c0,1.288-1.144,1.607-2.207,1.607h-1.231V6.64
				H15.05z M16.841,3.634c1.016,0,1.647-0.208,1.647-1.184c0-0.719-0.463-1.103-1.487-1.103h-1.407v2.287H16.841z"/>
			<path class="st2" d="M19.458,0.883h0.567L21.761,6l1.727-5.117h0.567L22.057,6.64h-0.6L19.458,0.883z"/>
		</g>
		<path class="st0" d="M18.782,117.093c0,0,36.081-77.708,43.125-77.708c3.843,0,4.585,9.584,9.584,9.584
			c4.999,0,2.916-9.584,6.459-9.584c3.54,0,2.707,10.209,6.04,10.209c3.335,0,3.52-10.085,8.312-10.085
			c3.148,0,2.938,9.877,5.438,9.877s4.585-12.291,8.542-12.291c3.958,0,6.043,11.667,6.043,33.959
			c2.707-19.167,4.165-31.459,8.54-31.459s1.876,10.208,7.71,10.208c5.833,0,3.54-10.208,10.208-10.208
			c4.375,0,3.125,9.375,7.292,9.375c1.875,0,1.665-9.167,6.458-9.167c2.917,0,2.292,8.959,5.625,8.959
			c3.332,0,3.542-8.125,7.709-8.125c2.084,0,1.666,6.666,5.625,6.666c3.959,0,2.5-6.666,6.25-6.666s0.834,6.875,6.25,6.875
			c3.541,0,2.709-5.625,6.25-5.625c3.541,0,2.709,4.375,7.5,4.375c4.791,0,5.416-2.5,7.5-2.5"/>
		<path class="st4" d="M204.824,43.762c0,0-45,0-66.875,0c-11.668,0-22.084,18.903-26.043,26.971c0-5.947-2.916-26.759-2.916-26.759
			s-26.666,0-43.334,0s-46.458,74.335-46.458,74.335"/>
	</g>
</g>
<g id="レイヤー_2">
	<g>
		<path class="st5" d="M58.282,18.421c-0.76,1.104-1.224,2.398-1.224,3.742c0,1.328,0.488,2.599,1.224,3.694h-0.408
			c-0.879-1.215-1.367-2.215-1.367-3.734c0-1.463,0.503-2.551,1.367-3.702H58.282z"/>
		<path class="st5" d="M61.146,20.14h-1.455v-0.335c0.855-0.056,1.391-0.144,1.559-1.111h0.408v5.637h-0.512V20.14z"/>
		<path class="st5" d="M63.627,25.857c0.76-1.104,1.223-2.399,1.223-3.742c0-1.327-0.487-2.599-1.223-3.694h0.408
			c0.879,1.215,1.367,2.215,1.367,3.734c0,1.463-0.503,2.551-1.367,3.702H63.627z"/>
	</g>
	<g>
		<path class="st5" d="M124.52,14.725c-0.76,1.104-1.224,2.398-1.224,3.742c0,1.328,0.488,2.599,1.224,3.694h-0.408
			c-0.879-1.215-1.367-2.215-1.367-3.734c0-1.463,0.504-2.551,1.367-3.702H124.52z"/>
		<path class="st5" d="M127.384,16.443h-1.456v-0.335c0.856-0.056,1.392-0.144,1.56-1.111h0.408v5.637h-0.512V16.443z"/>
		<path class="st5" d="M129.865,22.161c0.759-1.104,1.223-2.399,1.223-3.742c0-1.327-0.487-2.599-1.223-3.694h0.407
			c0.88,1.215,1.367,2.215,1.367,3.734c0,1.463-0.504,2.551-1.367,3.702H129.865z"/>
	</g>
	<g>
		<path class="st5" d="M138.259,63.729c-0.76,1.104-1.224,2.399-1.224,3.742c0,1.327,0.488,2.599,1.224,3.694h-0.408
			c-0.879-1.216-1.367-2.215-1.367-3.734c0-1.463,0.504-2.55,1.367-3.702H138.259z"/>
		<path class="st5" d="M139.26,65.848c0-1.111,0.72-1.847,1.831-1.847c1.136,0,1.735,0.695,1.735,1.559
			c0,1.495-1.615,1.871-2.455,2.511c-0.368,0.28-0.712,0.6-0.735,1.136h3.142v0.432h-3.686c0.008-0.536,0.08-0.959,0.439-1.375
			c1.176-1.359,2.734-1.344,2.734-2.671c0-0.735-0.543-1.159-1.239-1.159c-0.735,0-1.255,0.655-1.223,1.415H139.26z"/>
		<path class="st5" d="M143.604,71.165c0.76-1.104,1.224-2.398,1.224-3.742c0-1.327-0.487-2.599-1.224-3.694h0.408
			c0.88,1.215,1.367,2.214,1.367,3.734c0,1.463-0.504,2.551-1.367,3.702H143.604z"/>
	</g>
	<g>
		<path class="st5" d="M66.245,71.186c-0.76,1.104-1.224,2.399-1.224,3.742c0,1.327,0.488,2.599,1.224,3.694h-0.408
			c-0.879-1.216-1.367-2.215-1.367-3.734c0-1.463,0.503-2.551,1.367-3.702H66.245z"/>
		<path class="st5" d="M67.246,73.305c0-1.111,0.72-1.847,1.831-1.847c1.135,0,1.735,0.695,1.735,1.559
			c0,1.495-1.615,1.871-2.455,2.511c-0.368,0.28-0.711,0.6-0.735,1.136h3.142v0.432h-3.686c0.008-0.536,0.08-0.959,0.44-1.375
			c1.175-1.359,2.734-1.344,2.734-2.671c0-0.735-0.544-1.159-1.239-1.159c-0.736,0-1.255,0.655-1.224,1.415H67.246z"/>
		<path class="st5" d="M71.59,78.622c0.76-1.104,1.223-2.398,1.223-3.742c0-1.327-0.487-2.599-1.223-3.694h0.408
			c0.879,1.216,1.367,2.215,1.367,3.734c0,1.463-0.503,2.551-1.367,3.702H71.59z"/>
	</g>
	<g>
	</g>
	<g>
	</g>
	<g>
	</g>
	<g>
	</g>
	<g>
	</g>
	<g>
	</g>
	<g>
	</g>
	<g>
	</g>
	<g>
	</g>
	<g>
	</g>
	<g>
	</g>
	<g>
	</g>
	<g>
	</g>
	<g>
	</g>
	<g>
	</g>
</g>
</svg>
