<?xml version="1.0" encoding="utf-8"?>
<!-- Generator: Adobe Illustrator 28.2.0, SVG Export Plug-In . SVG Version: 6.00 Build 0)  -->
<svg version="1.1" id="レイヤー_1" xmlns="http://www.w3.org/2000/svg" xmlns:xlink="http://www.w3.org/1999/xlink" x="0px"
	 y="0px" width="208.224px" height="78.57px" viewBox="0 0 208.224 78.57" style="enable-background:new 0 0 208.224 78.57;"
	 xml:space="preserve">
<style type="text/css">
	.st0{fill:none;stroke:#000000;stroke-width:1.5;stroke-linejoin:round;stroke-miterlimit:10;}
	.st1{fill:none;stroke:#4D4D4D;stroke-width:1.5;stroke-linejoin:round;stroke-miterlimit:10;stroke-dasharray:6,4.5;}
	.st2{fill:#040000;}
	.st3{fill:none;stroke:#000000;stroke-width:0.75;stroke-linecap:round;stroke-linejoin:round;stroke-miterlimit:10;}
</style>
<line class="st0" x1="0.001" y1="77.148" x2="58.224" y2="77.196"/>
<line class="st0" x1="58.224" y1="77.82" x2="58.272" y2="16.044"/>
<line class="st0" x1="58.224" y1="16.044" x2="208.224" y2="16.044"/>
<path class="st1" d="M0.001,77.773l58.224,0.048 M58.224,55.02l0.048,22.8 M148.224,16.044h60 M58.224,52.044
	c2.976-3.6,6.576-7.2,14.976-12s21.6-12,34.224-16.224c12.577-4.176,26.977-6,42-7.776"/>
<g>
	<path d="M33.792,14.758c0.088,1.031,0.775,1.407,1.655,1.407c1.031,0,1.463-0.56,1.463-1.191c0-1.783-3.51-0.6-3.51-2.862
		c0-0.8,0.664-1.544,1.951-1.544c1.295,0,1.943,0.784,1.935,1.72h-0.52c0-0.88-0.679-1.256-1.415-1.256
		c-1.104,0-1.503,0.68-1.407,1.271c0.248,1.487,3.51,0.416,3.51,2.646c0,1.056-0.776,1.68-2.103,1.68
		c-1.199,0-2.087-0.624-2.087-1.871H33.792z"/>
	<path d="M37.953,10.72h0.567l1.735,5.117l1.727-5.117h0.567l-1.999,5.757h-0.6L37.953,10.72z"/>
</g>
<g>
	<path d="M116.609,55.021v-5.757h3.71v0.464h-3.166v2.079h2.878v0.464h-2.878v2.75H116.609z"/>
	<path d="M121.089,49.976v-0.712h0.527v0.712H121.089z M121.113,55.021v-4.142h0.479v4.142H121.113z"/>
	<path d="M122.888,55.021v-5.757h0.479v5.757H122.888z"/>
	<path d="M126.048,55.036c-0.112,0.024-0.32,0.097-0.552,0.097c-0.472,0-0.736-0.208-0.736-0.824v-3.03h-0.583v-0.399h0.583v-1.151
		h0.48v1.151h0.775v0.399h-0.775v2.839c0,0.407,0.016,0.583,0.415,0.583c0.128,0,0.265-0.023,0.393-0.056V55.036z"/>
	<path d="M127.112,53.062c-0.008,0.896,0.473,1.639,1.392,1.639c0.624,0,1.111-0.344,1.255-0.951h0.536
		c-0.24,0.784-0.735,1.384-1.791,1.384c-1.327,0-1.903-0.944-1.903-2.167c0-1.207,0.72-2.199,1.903-2.199
		c1.136,0,1.831,0.808,1.823,2.295H127.112z M129.815,52.662c0-0.808-0.448-1.464-1.312-1.464c-0.848,0-1.295,0.68-1.392,1.464
		H129.815z"/>
	<path d="M131.768,55.021h-0.479v-4.142h0.479v0.775h0.017c0.264-0.663,0.655-0.888,1.351-0.888v0.52
		c-1.079-0.023-1.367,0.776-1.367,1.703V55.021z"/>
	<path d="M134.224,53.062c-0.008,0.896,0.472,1.639,1.392,1.639c0.624,0,1.111-0.344,1.256-0.951h0.535
		c-0.24,0.784-0.735,1.384-1.791,1.384c-1.327,0-1.903-0.944-1.903-2.167c0-1.207,0.72-2.199,1.903-2.199
		c1.136,0,1.831,0.808,1.823,2.295H134.224z M136.927,52.662c0-0.808-0.448-1.464-1.312-1.464c-0.848,0-1.295,0.68-1.392,1.464
		H136.927z"/>
	<path d="M141.575,49.264h0.48v5.757h-0.48v-0.728h-0.016c-0.279,0.544-0.911,0.84-1.439,0.84c-1.335,0-1.871-0.952-1.871-2.175
		c0-1.16,0.584-2.191,1.848-2.191c0.584,0,1.175,0.272,1.479,0.775V49.264z M140.176,51.198c-0.992,0-1.455,0.84-1.416,1.879
		c0.009,1.04,0.608,1.623,1.416,1.623c0.903,0,1.398-0.768,1.398-1.767C141.575,51.998,141.047,51.198,140.176,51.198z"/>
	<path d="M143.56,53.302c0.089,1.031,0.776,1.407,1.655,1.407c1.031,0,1.464-0.56,1.464-1.191c0-1.783-3.511-0.6-3.511-2.862
		c0-0.8,0.664-1.544,1.951-1.544c1.295,0,1.943,0.784,1.935,1.72h-0.52c0-0.88-0.68-1.256-1.415-1.256
		c-1.104,0-1.503,0.68-1.407,1.271c0.248,1.487,3.51,0.416,3.51,2.646c0,1.056-0.775,1.68-2.103,1.68
		c-1.199,0-2.087-0.624-2.087-1.871H143.56z"/>
	<path d="M147.72,49.264h0.568l1.734,5.117l1.728-5.117h0.567l-1.999,5.757h-0.6L147.72,49.264z"/>
</g>
<path d="M53.713,53.628l0.048,22.032l-0.096,0.241l-0.192,0.048l-0.24-0.048l-0.096-0.241V53.628l0.048-0.191l0.24-0.096
	l0.192,0.096L53.713,53.628z"/>
<path d="M59.809,10.237l86.784,0.048l0.24,0.096l0.096,0.192l-0.096,0.24l-0.24,0.096L59.809,10.86l-0.192-0.096l-0.096-0.191
	l0.096-0.24L59.809,10.237z"/>
<g>
	<path d="M96.532,6.64V0.883h2.079c1.351,0,1.887,0.584,1.887,1.447c0,0.8-0.456,1.159-0.919,1.239v0.016
		c0.792,0.12,1.184,0.672,1.184,1.432c0,1.199-0.784,1.623-1.879,1.623H96.532z M97.076,3.426h1.375c1.136,0,1.503-0.4,1.503-1.096
		c0-0.72-0.432-0.983-1.623-0.983h-1.255V3.426z M97.076,6.176h1.383c1.199,0,1.759-0.16,1.759-1.159
		c0-0.951-0.671-1.127-1.695-1.127h-1.447V6.176z"/>
	<path d="M102.092,4.681c-0.008,0.896,0.472,1.639,1.391,1.639c0.624,0,1.111-0.344,1.255-0.951h0.536
		c-0.24,0.784-0.736,1.384-1.792,1.384c-1.327,0-1.903-0.944-1.903-2.167c0-1.207,0.72-2.199,1.903-2.199
		c1.135,0,1.832,0.808,1.823,2.295H102.092z M104.795,4.281c0-0.808-0.448-1.464-1.312-1.464c-0.848,0-1.295,0.68-1.391,1.464
		H104.795z"/>
	<path d="M107.7,6.655c-0.112,0.024-0.32,0.097-0.552,0.097c-0.472,0-0.736-0.208-0.736-0.824v-3.03h-0.583V2.498h0.583V1.347h0.48
		v1.151h0.775v0.399h-0.775v2.839c0,0.407,0.016,0.583,0.415,0.583c0.128,0,0.265-0.023,0.393-0.056V6.655z"/>
	<path d="M110.372,4.225c0.176-0.016,0.472-0.063,0.632-0.136s0.176-0.288,0.176-0.432c0-0.487-0.288-0.84-1.031-0.84
		c-0.664,0-1.119,0.216-1.207,0.936h-0.488c0.072-0.976,0.8-1.367,1.703-1.367c0.84,0,1.503,0.328,1.503,1.287v2.255
		c0,0.376,0.097,0.464,0.504,0.32v0.376c-0.072,0.023-0.24,0.08-0.376,0.08c-0.08,0-0.144-0.009-0.216-0.024
		c-0.319-0.048-0.376-0.328-0.384-0.616c-0.399,0.448-0.943,0.688-1.543,0.688c-0.728,0-1.383-0.393-1.383-1.191
		c0-0.696,0.479-1.12,1.447-1.248L110.372,4.225z M111.179,4.465c-0.407,0.168-0.823,0.2-1.239,0.231
		c-0.728,0.057-1.167,0.32-1.167,0.88c0,0.504,0.439,0.743,0.896,0.743c0.759,0,1.511-0.367,1.511-1.207V4.465z"/>
</g>
<g>
	<path class="st2" d="M27.787,65.909l2.263-5.757h0.616l2.207,5.757h-0.56l-0.664-1.807h-2.623l-0.68,1.807H27.787z M29.209,63.639
		h2.255l-1.127-3.022L29.209,63.639z"/>
	<path class="st2" d="M33.65,65.909v-5.757h0.48v5.757H33.65z"/>
	<path class="st2" d="M35.89,67.54H35.41v-5.772h0.479v0.728h0.016c0.28-0.544,0.912-0.84,1.439-0.84
		c1.335,0,1.871,0.952,1.871,2.175c0,1.159-0.583,2.191-1.847,2.191c-0.583,0-1.175-0.272-1.479-0.776V67.54z M37.289,65.589
		c0.991,0,1.455-0.839,1.415-1.879c-0.008-1.039-0.607-1.623-1.415-1.623c-0.904,0-1.399,0.768-1.399,1.768
		C35.89,64.79,36.417,65.589,37.289,65.589z"/>
	<path class="st2" d="M40.242,65.909v-5.757h0.48v2.19c0.384-0.407,0.759-0.688,1.335-0.688c0.504,0,0.968,0.16,1.263,0.592
		c0.2,0.296,0.208,0.607,0.208,0.951v2.711h-0.479v-2.702c0-0.744-0.304-1.12-1.072-1.12c-0.591,0-0.999,0.384-1.151,0.808
		c-0.096,0.265-0.104,0.496-0.104,0.784v2.23H40.242z"/>
	<path class="st2" d="M46.593,63.494c0.176-0.016,0.472-0.063,0.632-0.136c0.16-0.072,0.176-0.288,0.176-0.432
		c0-0.487-0.288-0.84-1.031-0.84c-0.664,0-1.12,0.216-1.208,0.936h-0.488c0.072-0.976,0.8-1.367,1.703-1.367
		c0.839,0,1.503,0.328,1.503,1.287v2.255c0,0.376,0.096,0.464,0.503,0.32v0.376c-0.072,0.023-0.24,0.08-0.375,0.08
		c-0.08,0-0.144-0.009-0.216-0.024c-0.32-0.048-0.376-0.328-0.384-0.616c-0.4,0.448-0.944,0.688-1.543,0.688
		c-0.728,0-1.383-0.393-1.383-1.191c0-0.696,0.48-1.12,1.447-1.248L46.593,63.494z M47.4,63.734c-0.408,0.168-0.824,0.2-1.239,0.231
		c-0.728,0.057-1.167,0.32-1.167,0.88c0,0.504,0.44,0.743,0.896,0.743c0.76,0,1.511-0.367,1.511-1.207V63.734z"/>
</g>
<polyline class="st3" points="86.497,34.428 104.593,52.524 114.049,52.524 "/>
<line class="st3" x1="57.553" y1="26.364" x2="44.497" y2="17.196"/>
<polygon points="146.819,10.729 141.181,8.082 141.181,13.377 146.819,10.729 141.181,8.082 141.181,13.377 "/>
<polygon points="59.582,10.698 65.219,13.345 65.219,8.05 59.582,10.698 65.219,13.345 65.219,8.05 "/>
<polygon points="53.527,76.113 56.466,70.476 50.587,70.476 53.527,76.113 56.466,70.476 50.587,70.476 "/>
<polygon points="53.492,53.401 50.553,59.039 56.432,59.039 53.492,53.401 50.553,59.039 56.432,59.039 "/>
</svg>
