<?xml version="1.0" encoding="utf-8"?>
<!-- Generator: Adobe Illustrator 28.2.0, SVG Export Plug-In . SVG Version: 6.00 Build 0)  -->
<svg version="1.1" xmlns="http://www.w3.org/2000/svg" xmlns:xlink="http://www.w3.org/1999/xlink" x="0px" y="0px"
	 width="147.645px" height="67.959px" viewBox="0 0 147.645 67.959" style="enable-background:new 0 0 147.645 67.959;"
	 xml:space="preserve">
<style type="text/css">
	.st0{fill:none;stroke:#000000;stroke-width:0.5;}
	.st1{fill:none;stroke:#000000;stroke-width:0.25;}
</style>
<g id="レイヤー_1">
</g>
<g id="レイヤー_2">
	<polyline class="st0" points="0.25,0 0.25,67.709 143.479,67.709 	"/>
	<line class="st1" x1="147.645" y1="32.552" x2="0.25" y2="32.552"/>
	<path class="st0" d="M147.516,33.073c-3.385,0-2.604,2.995-6.12,2.995s-2.344-6.12-5.339-6.12s-4.297,5.859-6.641,5.859
		c-6.902,0-7.682-8.854-11.067-8.854c-7.552,0-4.167,13.412-11.98,13.412S92.959,21.354,86.709,21.354
		c-4.948,0-9.376,11.589-14.323,11.589c0,0-7.942,0-26.172,0S6.37,60.547,0.51,67.709"/>
	<g>
	</g>
	<g>
	</g>
	<g>
	</g>
	<g>
	</g>
	<g>
	</g>
	<g>
	</g>
	<g>
	</g>
	<g>
	</g>
	<g>
	</g>
	<g>
	</g>
	<g>
	</g>
	<g>
	</g>
	<g>
	</g>
	<g>
	</g>
	<g>
	</g>
</g>
</svg>
