<?xml version="1.0" encoding="utf-8"?>
<!-- Generator: Adobe Illustrator 28.0.0, SVG Export Plug-In . SVG Version: 6.00 Build 0)  -->
<svg version="1.1" id="レイヤー_1" xmlns="http://www.w3.org/2000/svg" xmlns:xlink="http://www.w3.org/1999/xlink" x="0px"
	 y="0px" width="42.4px" height="12.8px" viewBox="0 0 42.4 12.8" style="enable-background:new 0 0 42.4 12.8;"
	 xml:space="preserve">
<style type="text/css">
	.st0{fill:#DCDDDD;}
	.st1{fill:#231815;}
	.st2{fill:none;}
</style>
<g>
	<g>
		<rect class="st0" width="42.4" height="12.8"/>
		<g>
			<path class="st1" d="M10.144,9.186c0.291,0.502,0.12,1.146-0.383,1.436c-0.503,0.291-1.147,0.117-1.438-0.385
				C8.034,9.735,8.205,9.091,8.709,8.801C9.212,8.51,9.855,8.684,10.144,9.186z"/>
			<path class="st1" d="M8.912,7.636c0.112,0.295-0.037,0.659-0.367,0.848C8.188,8.69,7.754,8.61,7.577,8.302L4.3,4.023
				C4.269,3.988,4.241,3.95,4.217,3.909C3.931,3.414,4.26,2.69,4.952,2.291c0.689-0.398,1.479-0.32,1.765,0.174
				c0.024,0.043,0.047,0.087,0.061,0.134L8.912,7.636z"/>
		</g>
	</g>
	<g>
		<rect x="13.155" y="2.685" class="st2" width="28.891" height="7.431"/>
		<path class="st1" d="M21.188,6.626c0.223,0.079,0.498,0.148,0.824,0.208c-0.173,0.133-0.31,0.272-0.408,0.416h2.731
			c0.331,0,0.668-0.02,1.01-0.06c-0.021,0.124-0.03,0.243-0.03,0.356c0,0.123,0.01,0.242,0.03,0.356
			c-0.342-0.04-0.679-0.06-1.01-0.06h-0.809c-0.213,0.386-0.445,0.703-0.698,0.95c0.703,0.173,1.413,0.361,2.13,0.563
			c-0.188,0.213-0.329,0.431-0.423,0.653c-0.431-0.188-1.029-0.413-1.796-0.675c-0.129-0.045-0.268-0.087-0.416-0.127
			c-0.247,0.153-0.537,0.285-0.868,0.394c-0.46,0.153-1.271,0.29-2.434,0.408c-0.089-0.257-0.24-0.502-0.453-0.734
			c0.252,0.039,0.621,0.06,1.105,0.06c0.639-0.011,1.185-0.092,1.641-0.245c0.094-0.024,0.18-0.052,0.26-0.082
			c-0.465-0.118-1.01-0.237-1.633-0.356c0.292-0.346,0.497-0.615,0.616-0.809h-1.128c-0.332,0-0.668,0.02-1.009,0.06
			c0.02-0.114,0.029-0.233,0.029-0.356c0-0.113-0.01-0.232-0.029-0.356c0.341,0.04,0.678,0.06,1.009,0.06h1.477
			C20.995,7.067,21.089,6.859,21.188,6.626z M18.509,3.153c0.341,0.044,0.678,0.066,1.009,0.066h4.58
			c0.336,0,0.67-0.022,1.002-0.066c-0.021,0.119-0.03,0.24-0.03,0.363c0,0.114,0.01,0.233,0.03,0.356
			c-0.332-0.04-0.666-0.06-1.002-0.06H22.85v0.713h0.534c0.371,0,0.745-0.01,1.121-0.03c-0.021,0.208-0.03,0.416-0.03,0.624v0.764
			c0,0.228,0.01,0.456,0.03,0.683c-0.376-0.02-0.75-0.03-1.121-0.03h-3.117c-0.381,0-0.759,0.01-1.135,0.03
			c0.02-0.228,0.03-0.456,0.03-0.683V5.12c-0.02-0.208-0.03-0.416-0.03-0.624c0.376,0.02,0.754,0.03,1.135,0.03h0.438V3.813h-1.188
			c-0.332,0-0.668,0.02-1.009,0.06c0.02-0.124,0.03-0.242,0.03-0.356C18.538,3.393,18.528,3.272,18.509,3.153z M20.705,5.943V5.12
			h-0.891v0.824H20.705z M22.873,7.843h-1.604c-0.089,0.163-0.188,0.334-0.297,0.512c0.421,0.09,0.844,0.188,1.27,0.297
			c0.034-0.024,0.064-0.049,0.089-0.074C22.539,8.424,22.72,8.179,22.873,7.843z M22.22,4.526V3.813h-0.891v0.713H22.22z
			 M22.22,5.943V5.12h-0.891v0.824H22.22z M23.823,5.943V5.12H22.85v0.824H23.823z"/>
		<path class="st1" d="M30.747,8.2c0.183,0.124,0.428,0.223,0.734,0.297c-0.366,0.4-0.673,0.925-0.92,1.573
			c-0.198-0.158-0.406-0.277-0.624-0.356C30.255,9.298,30.524,8.794,30.747,8.2z M32.699,2.893C32.941,2.963,33.23,3,33.567,3.004
			c-0.104,0.153-0.156,0.354-0.156,0.601v0.378h1.93c0.292,0,0.599-0.01,0.921-0.03c-0.021,0.119-0.03,0.228-0.03,0.327
			c0,0.129,0.01,0.237,0.03,0.327c-0.218-0.015-0.525-0.022-0.921-0.022h-1.93v0.832h1.076c0.376,0,0.75-0.01,1.121-0.03
			c-0.021,0.208-0.03,0.413-0.03,0.616V7.25c0,0.232,0.01,0.463,0.03,0.69c-0.371-0.024-0.745-0.037-1.121-0.037h-2.382
			c-0.377,0-0.75,0.013-1.121,0.037c0.02-0.228,0.029-0.458,0.029-0.69V6.003c-0.02-0.203-0.029-0.408-0.029-0.616
			c0.371,0.02,0.744,0.03,1.121,0.03h0.652V3.606C32.758,3.368,32.738,3.13,32.699,2.893z M34.926,7.317V6.003h-3.259v1.314H34.926z
			 M32.646,8.466c0.153,0.5,0.263,0.926,0.327,1.277c-0.297,0-0.534,0.02-0.713,0.059c0-0.42-0.089-0.846-0.267-1.276
			C32.305,8.526,32.523,8.506,32.646,8.466z M34.161,8.355l0.557,1.299c-0.268,0.03-0.515,0.079-0.742,0.148
			c-0.124-0.534-0.28-0.97-0.468-1.306C33.701,8.487,33.918,8.44,34.161,8.355z M35.705,8.237c0.242,0.431,0.568,0.896,0.979,1.396
			c-0.248,0.039-0.497,0.118-0.75,0.237c-0.168-0.445-0.484-0.933-0.95-1.462C35.242,8.382,35.482,8.326,35.705,8.237z"/>
	</g>
</g>
<g>
</g>
</svg>
