<?xml version="1.0" encoding="utf-8"?>
<!-- Generator: Adobe Illustrator 28.2.0, SVG Export Plug-In . SVG Version: 6.00 Build 0)  -->
<svg version="1.1" id="レイヤー_1" xmlns="http://www.w3.org/2000/svg" xmlns:xlink="http://www.w3.org/1999/xlink" x="0px"
	 y="0px" width="320.057px" height="214.944px" viewBox="0 0 320.057 214.944" style="enable-background:new 0 0 320.057 214.944;"
	 xml:space="preserve">
<style type="text/css">
	.st0{fill:none;stroke:#000000;}
	.st1{fill:#FFFFFF;}
	.st2{fill:#FFFFFF;stroke:#000000;}
</style>
<line class="st0" x1="0.5" y1="17.717" x2="319.397" y2="17.717"/>
<line class="st0" x1="0.5" y1="53.583" x2="319.397" y2="53.583"/>
<line class="st0" x1="0.5" y1="89.016" x2="319.397" y2="89.016"/>
<line class="st0" x1="0.5" y1="124.449" x2="224.812" y2="124.449"/>
<line class="st0" x1="308.621" y1="124.449" x2="319.094" y2="124.449"/>
<line class="st0" x1="0.5" y1="159.883" x2="319.397" y2="159.883"/>
<line class="st0" x1="0.5" y1="195.316" x2="319.397" y2="195.316"/>
<line class="st0" x1="0.5" y1="0" x2="0.5" y2="214.944"/>
<line class="st0" x1="319.557" y1="0" x2="319.557" y2="214.944"/>
<g>
	<path d="M13.679,10.761h-0.775V5.02h2.654c0.944,0,1.887,0.328,1.887,1.543c0,0.848-0.432,1.16-0.799,1.375
		c0.328,0.136,0.655,0.28,0.688,1.079l0.048,1.04c0.008,0.32,0.048,0.44,0.288,0.576v0.128h-0.952
		c-0.112-0.352-0.136-1.223-0.136-1.439c0-0.472-0.096-1.023-1.023-1.023h-1.879V10.761z M13.679,7.635h1.799
		c0.567,0,1.167-0.144,1.167-0.991c0-0.888-0.648-0.959-1.032-0.959h-1.935V7.635z"/>
	<path d="M20.199,10.913c-1.615,0-1.927-1.719-1.927-2.886c0-1.167,0.312-2.887,1.927-2.887s1.927,1.719,1.927,2.887
		C22.126,9.194,21.814,10.913,20.199,10.913z M20.199,5.772c-0.808,0-1.175,0.848-1.175,2.255s0.368,2.255,1.175,2.255
		s1.175-0.848,1.175-2.255S21.006,5.772,20.199,5.772z"/>
	<path d="M24.647,10.913c-1.615,0-1.927-1.719-1.927-2.886c0-1.167,0.312-2.887,1.927-2.887s1.927,1.719,1.927,2.887
		C26.574,9.194,26.262,10.913,24.647,10.913z M24.647,5.772c-0.808,0-1.175,0.848-1.175,2.255s0.368,2.255,1.175,2.255
		s1.175-0.848,1.175-2.255S25.454,5.772,24.647,5.772z"/>
	<path d="M29.095,10.913c-1.615,0-1.927-1.719-1.927-2.886c0-1.167,0.312-2.887,1.927-2.887c1.615,0,1.927,1.719,1.927,2.887
		C31.022,9.194,30.71,10.913,29.095,10.913z M29.095,5.772c-0.808,0-1.175,0.848-1.175,2.255s0.368,2.255,1.175,2.255
		s1.175-0.848,1.175-2.255S29.902,5.772,29.095,5.772z"/>
</g>
<g>
	<rect x="272.601" y="14.173" class="st1" width="35.432" height="7.087"/>
	<line class="st0" x1="308.033" y1="14.173" x2="308.033" y2="21.26"/>
	<line class="st0" x1="272.601" y1="21.26" x2="272.601" y2="14.173"/>
</g>
<g>
	<rect x="18.217" y="14.173" class="st1" width="7.087" height="7.087"/>
	<line class="st0" x1="25.303" y1="14.173" x2="25.303" y2="21.26"/>
	<line class="st0" x1="18.217" y1="21.26" x2="18.217" y2="14.173"/>
</g>
<g>
	<path d="M14.152,117.332h-0.775v-5.741h2.655c0.943,0,1.887,0.328,1.887,1.544c0,0.847-0.432,1.159-0.8,1.375
		c0.328,0.136,0.656,0.279,0.688,1.079l0.048,1.039c0.008,0.32,0.048,0.44,0.288,0.576v0.128H17.19
		c-0.112-0.352-0.136-1.224-0.136-1.439c0-0.472-0.096-1.023-1.023-1.023h-1.879V117.332z M14.152,114.206h1.799
		c0.567,0,1.167-0.145,1.167-0.992c0-0.887-0.647-0.959-1.031-0.959h-1.935V114.206z"/>
	<path d="M20.671,117.485c-1.615,0-1.927-1.72-1.927-2.887s0.312-2.887,1.927-2.887c1.615,0,1.927,1.72,1.927,2.887
		S22.287,117.485,20.671,117.485z M20.671,112.343c-0.808,0-1.175,0.848-1.175,2.255s0.368,2.255,1.175,2.255
		s1.175-0.848,1.175-2.255S21.479,112.343,20.671,112.343z"/>
	<path d="M25.119,117.485c-1.615,0-1.927-1.72-1.927-2.887s0.312-2.887,1.927-2.887s1.927,1.72,1.927,2.887
		S26.734,117.485,25.119,117.485z M25.119,112.343c-0.808,0-1.175,0.848-1.175,2.255s0.368,2.255,1.175,2.255
		s1.175-0.848,1.175-2.255S25.927,112.343,25.119,112.343z"/>
	<path d="M29.615,117.332h-0.752v-3.99h-1.311v-0.56c0.912-0.063,1.287-0.151,1.511-1.071h0.552V117.332z"/>
</g>
<g>
	<path d="M8.693,100.579c0.037,0.041,0.093,0.107,0.171,0.198c0.137,0.142,0.249,0.273,0.335,0.396
		c0.064,0.077,0.125,0.152,0.185,0.226c-0.105,0.032-0.235,0.094-0.39,0.185h1.251c0.219-0.388,0.376-0.75,0.472-1.087
		c0.278,0.15,0.517,0.251,0.718,0.301c-0.214,0.146-0.458,0.408-0.731,0.786h0.861c0.287,0,0.57-0.019,0.848-0.055
		c-0.018,0.104-0.027,0.205-0.027,0.301c0,0.104,0.009,0.205,0.027,0.301c-0.278-0.032-0.561-0.048-0.848-0.048H9.916
		c-0.037,0.214-0.075,0.412-0.116,0.595h1.579c0.264,0,0.526-0.016,0.786-0.048c-0.018,0.096-0.027,0.196-0.027,0.301
		c0,0.087,0.009,0.178,0.027,0.273c-0.26-0.036-0.522-0.055-0.786-0.055H9.698c-0.059,0.237-0.125,0.446-0.198,0.629h2.393
		c0.287,0,0.57-0.019,0.848-0.055c-0.018,0.096-0.027,0.196-0.027,0.301c0,0.096,0.009,0.196,0.027,0.301
		c-0.278-0.041-0.561-0.062-0.848-0.062H9.308c-0.096,0.214-0.212,0.417-0.349,0.608c0.201,0.019,0.394,0.027,0.581,0.027h1.647
		c0.278,0,0.561-0.021,0.848-0.062c-0.018,0.104-0.027,0.205-0.027,0.301c0,0.101,0.009,0.203,0.027,0.308
		c-0.287-0.041-0.57-0.062-0.848-0.062h-0.827v0.964h1.401c0.278,0,0.561-0.021,0.848-0.062c-0.018,0.104-0.027,0.205-0.027,0.301
		c0,0.104,0.009,0.205,0.027,0.301c-0.287-0.036-0.57-0.055-0.848-0.055H8.583c-0.278,0-0.561,0.019-0.848,0.055
		c0.018-0.096,0.027-0.196,0.027-0.301c0-0.096-0.009-0.196-0.027-0.301c0.287,0.041,0.57,0.062,0.848,0.062h1.258v-0.964H9.54
		c-0.278,0-0.561,0.021-0.848,0.062c0.023-0.091,0.034-0.176,0.034-0.253c-0.078,0.087-0.157,0.173-0.239,0.26
		c-0.451,0.405-0.966,0.766-1.545,1.08c-0.114-0.187-0.276-0.34-0.485-0.458c0.561-0.2,1.053-0.494,1.477-0.882
		c0.305-0.255,0.565-0.565,0.779-0.93H7.517c-0.278,0-0.561,0.021-0.848,0.062c0.023-0.104,0.034-0.205,0.034-0.301
		c0-0.104-0.011-0.205-0.034-0.301c0.287,0.036,0.57,0.055,0.848,0.055h1.442c0.078-0.196,0.144-0.405,0.198-0.629H8.064
		c-0.26,0-0.522,0.019-0.786,0.055c0.018-0.096,0.027-0.187,0.027-0.273c0-0.104-0.009-0.205-0.027-0.301
		c0.264,0.032,0.526,0.048,0.786,0.048h1.203c0.041-0.191,0.078-0.39,0.109-0.595H7.763c-0.278,0-0.561,0.016-0.848,0.048
		c0.018-0.096,0.027-0.196,0.027-0.301c0-0.096-0.009-0.196-0.027-0.301c0.287,0.036,0.57,0.055,0.848,0.055h1.06
		c-0.045-0.087-0.112-0.187-0.198-0.301c-0.123-0.173-0.253-0.316-0.39-0.431C8.417,100.776,8.57,100.684,8.693,100.579z"/>
	<path d="M15.836,100.709c0.187,0.101,0.413,0.183,0.677,0.246c-0.137,0.104-0.287,0.285-0.451,0.54
		c-0.561,0.897-1.247,1.731-2.058,2.502c-0.132-0.159-0.314-0.299-0.547-0.417c0.652-0.456,1.162-0.93,1.531-1.422
		C15.413,101.603,15.695,101.119,15.836,100.709z M14.79,103.232c0.26,0.032,0.517,0.048,0.772,0.048h2.27
		c0.237,0,0.472-0.009,0.704-0.027c-0.073,0.224-0.116,0.46-0.13,0.711l-0.198,2.324c-0.014,0.282-0.16,0.474-0.438,0.574
		c-0.319,0.101-0.59,0.157-0.813,0.171c0-0.251-0.082-0.46-0.246-0.629c0.187,0.019,0.321,0.027,0.403,0.027
		c0.223,0,0.378-0.053,0.465-0.157c0.055-0.082,0.082-0.169,0.082-0.26l0.198-2.235h-1.49c-0.05,0.656-0.1,1.096-0.15,1.319
		c-0.105,0.415-0.276,0.738-0.513,0.971c-0.324,0.351-0.82,0.679-1.49,0.984c-0.109-0.183-0.292-0.308-0.547-0.376
		c0.62-0.224,1.057-0.439,1.312-0.649c0.314-0.214,0.538-0.499,0.67-0.854c0.105-0.282,0.178-0.747,0.219-1.395h-0.308
		c-0.255,0-0.513,0.019-0.772,0.055c0.018-0.104,0.027-0.205,0.027-0.301C14.818,103.428,14.808,103.327,14.79,103.232z
		 M17.614,100.552c0.223,0.675,0.506,1.212,0.848,1.613c0.369,0.405,0.861,0.743,1.477,1.012c-0.15,0.155-0.298,0.374-0.444,0.656
		c-0.615-0.383-1.091-0.777-1.429-1.183c-0.369-0.392-0.729-1.048-1.08-1.969C17.194,100.659,17.404,100.615,17.614,100.552z"/>
	<path d="M20.587,101.947c0.26,0.036,0.517,0.055,0.772,0.055h0.246v-0.991c0-0.142-0.009-0.285-0.027-0.431
		c0.173,0.019,0.365,0.027,0.574,0.027c-0.059,0.132-0.089,0.287-0.089,0.465v0.93h0.027c0.26,0,0.517-0.019,0.772-0.055
		c-0.018,0.091-0.027,0.18-0.027,0.267c0,0.096,0.009,0.187,0.027,0.273c-0.255-0.036-0.513-0.055-0.772-0.055h-0.027v1.504
		c0.283-0.118,0.549-0.246,0.8-0.383c-0.018,0.265-0.027,0.449-0.027,0.554c-0.287,0.096-0.544,0.189-0.772,0.28v2.071
		c0,0.224-0.091,0.371-0.273,0.444c-0.182,0.068-0.444,0.103-0.786,0.103c-0.05-0.219-0.141-0.401-0.273-0.547h0.383
		c0.328,0,0.492-0.084,0.492-0.253v-1.627c-0.46,0.191-0.782,0.351-0.964,0.479c-0.009-0.173-0.062-0.374-0.157-0.602
		c0.392-0.091,0.766-0.203,1.121-0.335v-1.688H21.36c-0.255,0-0.513,0.019-0.772,0.055c0.018-0.087,0.027-0.178,0.027-0.273
		C20.615,102.126,20.605,102.037,20.587,101.947z M23.957,100.579c0.155,0.032,0.355,0.048,0.602,0.048
		c-0.078,0.273-0.116,0.59-0.116,0.95v0.396h0.69c0.26,0,0.522-0.021,0.786-0.062c-0.037,0.173-0.055,0.347-0.055,0.52
		c0,1.709,0.05,2.748,0.15,3.117c0.109,0.474,0.198,0.711,0.267,0.711c0.032-0.082,0.075-0.383,0.13-0.902
		c0.15,0.191,0.326,0.33,0.526,0.417c-0.191,0.802-0.358,1.203-0.499,1.203c-0.16-0.014-0.328-0.142-0.506-0.383
		c-0.178-0.26-0.314-0.624-0.41-1.094c-0.096-0.556-0.144-1.579-0.144-3.069h-0.937v0.144c0,0.752-0.034,1.379-0.103,1.88
		c0.219,0.164,0.444,0.33,0.677,0.499c-0.168,0.159-0.287,0.312-0.355,0.458c-0.146-0.142-0.285-0.273-0.417-0.396
		c-0.055,0.2-0.112,0.371-0.171,0.513c-0.255,0.561-0.695,1.062-1.319,1.504c-0.114-0.169-0.262-0.296-0.444-0.383
		c0.711-0.451,1.176-0.925,1.395-1.422c0.059-0.146,0.109-0.323,0.15-0.533c-0.287-0.232-0.574-0.438-0.861-0.615
		c0.141-0.118,0.262-0.246,0.362-0.383c0.187,0.146,0.383,0.296,0.588,0.451c0.045-0.438,0.068-0.962,0.068-1.572v-0.144h-0.253
		c-0.232,0-0.467,0.019-0.704,0.055c0.018-0.096,0.027-0.196,0.027-0.301c0-0.087-0.009-0.178-0.027-0.273
		c0.237,0.041,0.472,0.062,0.704,0.062h0.253v-0.144C24.012,101.461,23.994,101.044,23.957,100.579z"/>
	<path d="M29.064,100.655c0.173,0.091,0.383,0.166,0.629,0.226c-0.096,0.06-0.203,0.169-0.321,0.328
		c-0.396,0.561-0.882,1.078-1.456,1.552c-0.114-0.137-0.276-0.255-0.485-0.355c0.451-0.273,0.802-0.562,1.053-0.868
		C28.779,101.199,28.973,100.906,29.064,100.655z M29.419,102.083c0.196,0.123,0.408,0.205,0.636,0.246
		c-0.15,0.087-0.312,0.269-0.485,0.547c-0.114,0.21-0.244,0.41-0.39,0.602v2.57c0,0.342,0.018,0.686,0.055,1.032
		c-0.114-0.019-0.223-0.027-0.328-0.027c-0.114,0-0.223,0.009-0.328,0.027c0.037-0.347,0.055-0.69,0.055-1.032v-1.941
		c-0.242,0.246-0.515,0.49-0.82,0.731c-0.082-0.2-0.182-0.362-0.301-0.485c0.51-0.323,0.916-0.665,1.217-1.025
		C29.039,102.972,29.269,102.557,29.419,102.083z M30.11,102.849c0.296,0.036,0.597,0.055,0.902,0.055h2.051
		c0.301,0,0.599-0.019,0.896-0.055c-0.014,0.104-0.021,0.214-0.021,0.328c0,0.096,0.007,0.196,0.021,0.301
		c-0.296-0.036-0.595-0.055-0.896-0.055h-0.472v3.254c0,0.15-0.084,0.26-0.253,0.328c-0.155,0.068-0.472,0.103-0.95,0.103
		c-0.009-0.232-0.082-0.442-0.219-0.629c0.287,0.036,0.508,0.055,0.663,0.055c0.137,0,0.208-0.053,0.212-0.157v-2.953h-1.032
		c-0.305,0-0.606,0.019-0.902,0.055c0.018-0.104,0.027-0.205,0.027-0.301C30.137,103.063,30.128,102.953,30.11,102.849z
		 M30.513,100.983c0.305,0.036,0.606,0.055,0.902,0.055h1.148c0.305,0,0.606-0.019,0.902-0.055
		c-0.018,0.114-0.027,0.224-0.027,0.328s0.009,0.205,0.027,0.301c-0.296-0.036-0.597-0.055-0.902-0.055h-1.148
		c-0.296,0-0.597,0.019-0.902,0.055c0.018-0.096,0.027-0.196,0.027-0.301S30.531,101.097,30.513,100.983z"/>
	<path d="M34.977,100.853c0.264,0.036,0.526,0.055,0.786,0.055h1.62c0.26,0,0.522-0.019,0.786-0.055
		c-0.018,0.096-0.027,0.196-0.027,0.301c0,0.087,0.009,0.178,0.027,0.273c-0.209-0.027-0.419-0.043-0.629-0.048v1.135
		c0.25-0.005,0.499-0.022,0.745-0.055c-0.018,0.104-0.027,0.205-0.027,0.301s0.009,0.187,0.027,0.273
		c-0.246-0.032-0.495-0.05-0.745-0.055v0.629c0,0.269,0.021,0.535,0.062,0.8c-0.105-0.019-0.208-0.027-0.308-0.027
		c-0.096,0-0.196,0.009-0.301,0.027c0.041-0.265,0.062-0.531,0.062-0.8v-0.629h-0.827c-0.045,0.542-0.144,0.923-0.294,1.142
		c-0.164,0.269-0.495,0.508-0.991,0.718c-0.064-0.178-0.191-0.34-0.383-0.485c0.51-0.159,0.836-0.369,0.978-0.629
		c0.1-0.159,0.171-0.408,0.212-0.745h-0.287c-0.26,0-0.524,0.019-0.793,0.055c0.023-0.087,0.034-0.178,0.034-0.273
		s-0.011-0.196-0.034-0.301c0.269,0.036,0.533,0.055,0.793,0.055h0.321c0.004-0.114,0.007-0.232,0.007-0.355v-0.786h-0.027
		c-0.26,0-0.522,0.019-0.786,0.055c0.018-0.096,0.027-0.187,0.027-0.273C35.004,101.049,34.995,100.948,34.977,100.853z
		 M35.408,105.03c0.264,0.036,0.531,0.055,0.8,0.055h1.251v-0.103c0-0.183-0.016-0.367-0.048-0.554
		c0.178,0.05,0.385,0.077,0.622,0.082c-0.05,0.118-0.075,0.275-0.075,0.472v0.103h1.251c0.264,0,0.531-0.019,0.8-0.055
		c-0.018,0.104-0.027,0.205-0.027,0.301s0.009,0.187,0.027,0.273c-0.269-0.032-0.536-0.048-0.8-0.048h-1.251v0.793h1.962
		c0.269,0,0.533-0.021,0.793-0.062c-0.018,0.104-0.027,0.205-0.027,0.301s0.009,0.187,0.027,0.273
		c-0.26-0.036-0.524-0.055-0.793-0.055h-4.402c-0.264,0-0.526,0.019-0.786,0.055c0.018-0.087,0.027-0.178,0.027-0.273
		s-0.009-0.196-0.027-0.301c0.26,0.041,0.522,0.062,0.786,0.062h1.941v-0.793h-1.251c-0.269,0-0.536,0.016-0.8,0.048
		c0.018-0.087,0.027-0.178,0.027-0.273S35.426,105.134,35.408,105.03z M37.055,102.514v-1.142h-0.793v0.786
		c0,0.128-0.002,0.246-0.007,0.355H37.055z M38.532,101.154c0.173,0.019,0.383,0.027,0.629,0.027
		c-0.055,0.128-0.082,0.292-0.082,0.492v1.258c0,0.319,0.018,0.636,0.055,0.95c-0.105-0.019-0.205-0.027-0.301-0.027
		c-0.105,0-0.205,0.009-0.301,0.027c0.037-0.314,0.055-0.631,0.055-0.95v-0.957C38.586,101.696,38.568,101.422,38.532,101.154z
		 M39.865,100.607c0.191,0.032,0.392,0.048,0.602,0.048c-0.055,0.146-0.082,0.312-0.082,0.499v3.083c0,0.241-0.093,0.398-0.28,0.472
		c-0.187,0.068-0.458,0.103-0.813,0.103c-0.045-0.228-0.137-0.419-0.273-0.574h0.417c0.305,0,0.458-0.091,0.458-0.273v-2.892
		C39.892,100.916,39.883,100.762,39.865,100.607z"/>
	<path d="M41.615,101.912c0.114,0.022,0.223,0.034,0.328,0.034h0.745v-0.909c0-0.15-0.009-0.303-0.027-0.458
		c0.187,0.032,0.387,0.048,0.602,0.048c-0.055,0.146-0.082,0.312-0.082,0.499v0.82h0.431c0.114,0,0.223-0.012,0.328-0.034
		c-0.018,0.087-0.027,0.169-0.027,0.246c0,0.096,0.009,0.187,0.027,0.273c-0.105-0.019-0.214-0.027-0.328-0.027H43.18v1.224
		c0.269-0.101,0.522-0.207,0.759-0.321c-0.018,0.269-0.027,0.451-0.027,0.547c-0.273,0.091-0.517,0.173-0.731,0.246v2.358
		c0,0.237-0.089,0.392-0.267,0.465c-0.168,0.073-0.419,0.109-0.752,0.109c-0.041-0.228-0.132-0.419-0.273-0.574h0.417
		c0.255,0,0.383-0.094,0.383-0.28v-1.9c-0.456,0.169-0.775,0.312-0.957,0.431c-0.009-0.178-0.066-0.378-0.171-0.602
		c0.392-0.082,0.768-0.183,1.128-0.301v-1.401h-0.745c-0.105,0-0.214,0.009-0.328,0.027c0.018-0.087,0.027-0.178,0.027-0.273
		C41.642,102.081,41.633,101.999,41.615,101.912z M44.294,103.635c0.25,0.041,0.497,0.062,0.738,0.062h1.62
		c0.246,0,0.49-0.021,0.731-0.062c-0.032,0.219-0.048,0.439-0.048,0.663v1.989c0,0.241,0.016,0.48,0.048,0.718
		c-0.137-0.019-0.228-0.027-0.273-0.027s-0.146,0.009-0.301,0.027c0.032-0.191,0.048-0.383,0.048-0.574h-2.037
		c0.004,0.191,0.021,0.383,0.048,0.574c-0.146-0.019-0.246-0.027-0.301-0.027c-0.045,0-0.137,0.009-0.273,0.027
		c0.041-0.237,0.062-0.477,0.062-0.718v-1.989C44.356,104.074,44.335,103.854,44.294,103.635z M47.254,100.907
		c0.096,0.2,0.223,0.364,0.383,0.492c-0.123,0.014-0.331,0.057-0.622,0.13c-0.702,0.205-1.417,0.39-2.146,0.554v0.547
		c0,0.128,0.055,0.191,0.164,0.191h1.777c0.205,0,0.353-0.043,0.444-0.13c0.086-0.073,0.13-0.269,0.13-0.588
		c0.1,0.132,0.249,0.224,0.444,0.273c-0.05,0.296-0.123,0.504-0.219,0.622c-0.123,0.155-0.353,0.232-0.69,0.232h-2.078
		c-0.283,0-0.426-0.101-0.431-0.301v-1.894c0-0.15-0.018-0.303-0.055-0.458c0.191,0.032,0.383,0.048,0.574,0.048
		c-0.041,0.082-0.062,0.176-0.062,0.28v0.82c0.383-0.096,0.756-0.2,1.121-0.314C46.491,101.263,46.912,101.094,47.254,100.907z
		 M44.814,104.811h2.051v-0.704h-2.051V104.811z M44.814,106.014h2.051v-0.786h-2.051V106.014z"/>
	<path d="M51.458,100.552c0.25,0.123,0.517,0.205,0.8,0.246c-0.114,0.077-0.226,0.176-0.335,0.294
		c0.287,0.446,0.654,0.829,1.101,1.148c0.442,0.319,1.087,0.602,1.935,0.848c-0.182,0.173-0.326,0.385-0.431,0.636
		c-0.825-0.378-1.454-0.754-1.887-1.128c-0.406-0.319-0.734-0.718-0.984-1.196c-0.684,0.839-1.577,1.613-2.68,2.324
		c-0.119-0.169-0.301-0.333-0.547-0.492c0.743-0.347,1.37-0.759,1.88-1.237C50.811,101.543,51.194,101.063,51.458,100.552z
		 M49.189,103.908c0.182,0.019,0.365,0.027,0.547,0.027h3.309c0.287,0,0.57-0.009,0.848-0.027c-0.424,0.497-1.046,1.249-1.866,2.256
		c0.365,0.15,0.734,0.303,1.107,0.458c-0.187,0.173-0.317,0.344-0.39,0.513c-1.021-0.565-2.048-1.027-3.083-1.388
		c0.15-0.132,0.276-0.28,0.376-0.444c0.469,0.21,0.957,0.424,1.463,0.643l1.36-1.518h-3.124c-0.182,0-0.365,0.009-0.547,0.027
		c0.018-0.087,0.027-0.178,0.027-0.273C49.216,104.095,49.207,104.004,49.189,103.908z M51.711,102.302
		c0.105,0.31,0.249,0.645,0.431,1.005c-0.178,0.036-0.358,0.103-0.54,0.198c-0.078-0.328-0.216-0.686-0.417-1.073
		C51.372,102.409,51.547,102.365,51.711,102.302z"/>
	<path d="M56.818,100.607c0.168,0.073,0.38,0.116,0.636,0.13c-0.127,0.241-0.255,0.624-0.383,1.148h0.54
		c0.246,0,0.495-0.019,0.745-0.055c-0.041,0.237-0.062,0.477-0.062,0.718v3.609c0,0.232,0.021,0.467,0.062,0.704
		c-0.137-0.019-0.228-0.027-0.273-0.027c-0.055,0-0.155,0.009-0.301,0.027c0.037-0.237,0.055-0.472,0.055-0.704h-1.449v0.021
		c0,0.237,0.016,0.474,0.048,0.711c-0.15-0.019-0.25-0.027-0.301-0.027c-0.041,0-0.132,0.009-0.273,0.027
		c0.037-0.237,0.055-0.474,0.055-0.711v-3.63c0-0.241-0.018-0.48-0.055-0.718c0.246,0.036,0.495,0.055,0.745,0.055h0.021
		C56.685,101.534,56.749,101.108,56.818,100.607z M56.387,103.833h1.449v-1.504h-1.449V103.833z M56.387,105.713h1.449v-1.477
		h-1.449V105.713z M59.634,100.579c0.196,0.091,0.415,0.152,0.656,0.185c-0.109,0.15-0.255,0.412-0.438,0.786
		c-0.045,0.104-0.093,0.207-0.144,0.308h1.299c0.237,0,0.472-0.019,0.704-0.055c-0.055,0.173-0.089,0.364-0.103,0.574l-0.144,3.883
		c-0.032,0.323-0.208,0.533-0.526,0.629c-0.232,0.073-0.602,0.128-1.107,0.164c0-0.178-0.082-0.369-0.246-0.574
		c0.273,0.019,0.465,0.027,0.574,0.027c0.342,0,0.572-0.066,0.69-0.198c0.086-0.077,0.13-0.185,0.13-0.321l0.13-3.685h-1.6
		c-0.191,0.405-0.406,0.822-0.643,1.251c-0.155-0.123-0.335-0.205-0.54-0.246c0.278-0.296,0.554-0.733,0.827-1.312
		C59.292,101.739,59.452,101.268,59.634,100.579z M59.532,103.532c0.178,0.41,0.44,0.827,0.786,1.251
		c-0.155,0.087-0.308,0.205-0.458,0.355c-0.201-0.515-0.467-0.959-0.8-1.333C59.238,103.738,59.395,103.647,59.532,103.532z"/>
	<path d="M62.587,101.947c0.26,0.036,0.517,0.055,0.772,0.055h0.246v-0.991c0-0.142-0.009-0.285-0.027-0.431
		c0.173,0.019,0.365,0.027,0.574,0.027c-0.059,0.132-0.089,0.287-0.089,0.465v0.93h0.027c0.26,0,0.517-0.019,0.772-0.055
		c-0.018,0.091-0.027,0.18-0.027,0.267c0,0.096,0.009,0.187,0.027,0.273c-0.255-0.036-0.513-0.055-0.772-0.055h-0.027v1.504
		c0.283-0.118,0.549-0.246,0.8-0.383c-0.018,0.265-0.027,0.449-0.027,0.554c-0.287,0.096-0.544,0.189-0.772,0.28v2.071
		c0,0.224-0.091,0.371-0.273,0.444c-0.182,0.068-0.444,0.103-0.786,0.103c-0.05-0.219-0.141-0.401-0.273-0.547h0.383
		c0.328,0,0.492-0.084,0.492-0.253v-1.627c-0.46,0.191-0.782,0.351-0.964,0.479c-0.009-0.173-0.062-0.374-0.157-0.602
		c0.392-0.091,0.766-0.203,1.121-0.335v-1.688H63.36c-0.255,0-0.513,0.019-0.772,0.055c0.018-0.087,0.027-0.178,0.027-0.273
		C62.615,102.126,62.605,102.037,62.587,101.947z M65.957,100.579c0.155,0.032,0.355,0.048,0.602,0.048
		c-0.078,0.273-0.116,0.59-0.116,0.95v0.396h0.69c0.26,0,0.522-0.021,0.786-0.062c-0.037,0.173-0.055,0.347-0.055,0.52
		c0,1.709,0.05,2.748,0.15,3.117c0.109,0.474,0.198,0.711,0.267,0.711c0.032-0.082,0.075-0.383,0.13-0.902
		c0.15,0.191,0.326,0.33,0.526,0.417c-0.191,0.802-0.358,1.203-0.499,1.203c-0.16-0.014-0.328-0.142-0.506-0.383
		c-0.178-0.26-0.314-0.624-0.41-1.094c-0.096-0.556-0.144-1.579-0.144-3.069h-0.937v0.144c0,0.752-0.034,1.379-0.103,1.88
		c0.219,0.164,0.444,0.33,0.677,0.499c-0.168,0.159-0.287,0.312-0.355,0.458c-0.146-0.142-0.285-0.273-0.417-0.396
		c-0.055,0.2-0.112,0.371-0.171,0.513c-0.255,0.561-0.695,1.062-1.319,1.504c-0.114-0.169-0.262-0.296-0.444-0.383
		c0.711-0.451,1.176-0.925,1.395-1.422c0.059-0.146,0.109-0.323,0.15-0.533c-0.287-0.232-0.574-0.438-0.861-0.615
		c0.141-0.118,0.262-0.246,0.362-0.383c0.187,0.146,0.383,0.296,0.588,0.451c0.045-0.438,0.068-0.962,0.068-1.572v-0.144h-0.253
		c-0.232,0-0.467,0.019-0.704,0.055c0.018-0.096,0.027-0.196,0.027-0.301c0-0.087-0.009-0.178-0.027-0.273
		c0.237,0.041,0.472,0.062,0.704,0.062h0.253v-0.144C66.012,101.461,65.994,101.044,65.957,100.579z"/>
	<path d="M71.064,100.655c0.173,0.091,0.383,0.166,0.629,0.226c-0.096,0.06-0.203,0.169-0.321,0.328
		c-0.396,0.561-0.882,1.078-1.456,1.552c-0.114-0.137-0.276-0.255-0.485-0.355c0.451-0.273,0.802-0.562,1.053-0.868
		C70.779,101.199,70.973,100.906,71.064,100.655z M71.419,102.083c0.196,0.123,0.408,0.205,0.636,0.246
		c-0.15,0.087-0.312,0.269-0.485,0.547c-0.114,0.21-0.244,0.41-0.39,0.602v2.57c0,0.342,0.018,0.686,0.055,1.032
		c-0.114-0.019-0.223-0.027-0.328-0.027c-0.114,0-0.223,0.009-0.328,0.027c0.037-0.347,0.055-0.69,0.055-1.032v-1.941
		c-0.242,0.246-0.515,0.49-0.82,0.731c-0.082-0.2-0.182-0.362-0.301-0.485c0.51-0.323,0.916-0.665,1.217-1.025
		C71.039,102.972,71.269,102.557,71.419,102.083z M72.11,102.849c0.296,0.036,0.597,0.055,0.902,0.055h2.051
		c0.301,0,0.599-0.019,0.896-0.055c-0.014,0.104-0.021,0.214-0.021,0.328c0,0.096,0.007,0.196,0.021,0.301
		c-0.296-0.036-0.595-0.055-0.896-0.055h-0.472v3.254c0,0.15-0.084,0.26-0.253,0.328c-0.155,0.068-0.472,0.103-0.95,0.103
		c-0.009-0.232-0.082-0.442-0.219-0.629c0.287,0.036,0.508,0.055,0.663,0.055c0.137,0,0.208-0.053,0.212-0.157v-2.953h-1.032
		c-0.305,0-0.606,0.019-0.902,0.055c0.018-0.104,0.027-0.205,0.027-0.301C72.137,103.063,72.128,102.953,72.11,102.849z
		 M72.513,100.983c0.305,0.036,0.606,0.055,0.902,0.055h1.148c0.305,0,0.606-0.019,0.902-0.055
		c-0.018,0.114-0.027,0.224-0.027,0.328s0.009,0.205,0.027,0.301c-0.296-0.036-0.597-0.055-0.902-0.055h-1.148
		c-0.296,0-0.597,0.019-0.902,0.055c0.018-0.096,0.027-0.196,0.027-0.301S72.531,101.097,72.513,100.983z"/>
	<path d="M78.782,100.497c0.219,0.104,0.462,0.176,0.731,0.212c-0.132,0.118-0.308,0.31-0.526,0.574h2.146
		c0.237,0,0.472-0.009,0.704-0.027c-0.419,0.624-0.838,1.116-1.258,1.477c-0.078,0.068-0.153,0.128-0.226,0.178
		c0.037,0.019,0.073,0.034,0.109,0.048c0.538,0.232,1.363,0.424,2.475,0.574c-0.191,0.159-0.319,0.351-0.383,0.574
		c-1.135-0.273-1.985-0.572-2.55-0.896c-0.023-0.009-0.041-0.021-0.055-0.034c-0.355,0.21-0.759,0.395-1.21,0.554
		c-0.674,0.21-1.274,0.36-1.798,0.451c-0.082-0.196-0.219-0.369-0.41-0.52c0.793-0.073,1.463-0.191,2.01-0.355
		c0.351-0.109,0.672-0.244,0.964-0.403c-0.36-0.273-0.672-0.624-0.937-1.053c-0.278,0.369-0.581,0.745-0.909,1.128
		c-0.182-0.15-0.392-0.251-0.629-0.301c0.378-0.237,0.748-0.588,1.107-1.053C78.317,101.42,78.531,101.044,78.782,100.497z
		 M78.508,105.228c0.164,0.173,0.326,0.308,0.485,0.403c-0.561,0.237-1.153,0.604-1.777,1.101c-0.146-0.173-0.317-0.31-0.513-0.41
		C77.337,106.084,77.938,105.72,78.508,105.228z M77.189,104.428c0.269,0.036,0.536,0.055,0.8,0.055h1.552v-0.355
		c0-0.155-0.009-0.31-0.027-0.465c0.191,0.041,0.392,0.062,0.602,0.062c-0.055,0.142-0.082,0.303-0.082,0.485v0.273h1.401
		c0.26,0,0.524-0.019,0.793-0.055c-0.023,0.104-0.034,0.205-0.034,0.301s0.011,0.187,0.034,0.273
		c-0.269-0.032-0.533-0.048-0.793-0.048h-1.401v1.524c0,0.241-0.086,0.398-0.26,0.472c-0.173,0.068-0.421,0.103-0.745,0.103
		c-0.05-0.224-0.141-0.415-0.273-0.574h0.403c0.255,0,0.383-0.091,0.383-0.273v-1.251h-1.552c-0.264,0-0.531,0.016-0.8,0.048
		c0.018-0.087,0.027-0.178,0.027-0.273S77.207,104.532,77.189,104.428z M78.891,101.735c0.301,0.388,0.64,0.699,1.019,0.937
		c0.014-0.009,0.027-0.019,0.041-0.027c0.314-0.232,0.626-0.538,0.937-0.916h-1.832C78.996,101.728,78.941,101.73,78.891,101.735z
		 M80.86,105.255c0.428,0.319,1.002,0.684,1.723,1.094c-0.16,0.101-0.308,0.244-0.444,0.431c-0.155-0.155-0.39-0.344-0.704-0.567
		c-0.333-0.228-0.643-0.412-0.93-0.554C80.637,105.554,80.755,105.419,80.86,105.255z"/>
	<path d="M85.119,100.579c0.164,0.082,0.367,0.155,0.608,0.219c-0.105,0.101-0.214,0.278-0.328,0.533
		c-0.086,0.2-0.18,0.396-0.28,0.588v4.067c0,0.319,0.021,0.641,0.062,0.964c-0.105-0.019-0.205-0.027-0.301-0.027
		c-0.105,0-0.205,0.009-0.301,0.027c0.037-0.323,0.055-0.645,0.055-0.964v-3.165c-0.219,0.364-0.458,0.718-0.718,1.06
		c-0.109-0.137-0.262-0.253-0.458-0.349c0.456-0.47,0.811-0.959,1.066-1.47C84.829,101.493,85.027,100.998,85.119,100.579z
		 M86.438,101.229c0.168,0.068,0.36,0.135,0.574,0.198c-0.055,0.068-0.119,0.193-0.191,0.376c-0.059,0.173-0.119,0.34-0.178,0.499
		h0.916v-0.848c0-0.278-0.018-0.554-0.055-0.827c0.173,0.019,0.383,0.027,0.629,0.027c-0.059,0.132-0.089,0.299-0.089,0.499v1.148
		h0.991c0.209,0,0.435-0.009,0.677-0.027c-0.018,0.087-0.027,0.166-0.027,0.239c0,0.096,0.009,0.178,0.027,0.246
		c-0.164-0.019-0.39-0.027-0.677-0.027h-0.991v1.62h1.039c0.255,0,0.513-0.019,0.772-0.055c-0.018,0.087-0.027,0.178-0.027,0.273
		c0,0.091,0.009,0.18,0.027,0.267c-0.26-0.036-0.517-0.055-0.772-0.055h-1.039v1.347c0,0.319,0.021,0.636,0.062,0.95
		c-0.105-0.019-0.205-0.027-0.301-0.027c-0.105,0-0.205,0.009-0.301,0.027c0.037-0.314,0.055-0.631,0.055-0.95v-1.347h-1.265
		c-0.255,0-0.508,0.019-0.759,0.055c0.018-0.087,0.027-0.176,0.027-0.267c0-0.096-0.009-0.187-0.027-0.273
		c0.25,0.036,0.503,0.055,0.759,0.055h1.265v-1.62h-1.101c-0.178,0.388-0.36,0.727-0.547,1.019
		c-0.105-0.101-0.257-0.191-0.458-0.273c0.264-0.351,0.469-0.699,0.615-1.046C86.228,102.072,86.351,101.671,86.438,101.229z"/>
</g>
<rect x="18.217" y="120.746" class="st1" width="7.087" height="7.087"/>
<line class="st0" x1="25.303" y1="120.746" x2="25.303" y2="127.833"/>
<line class="st0" x1="18.217" y1="127.833" x2="18.217" y2="120.746"/>
<g>
	<path d="M288.431,10.361h-0.527l0.231-1.679h-0.999l-0.232,1.679h-0.527l0.232-1.679h-0.824l0.072-0.503h0.823l0.152-1.136h-0.823
		l0.071-0.503h0.823l0.232-1.679h0.535l-0.231,1.679h0.991l0.232-1.679h0.535l-0.231,1.679h0.823l-0.072,0.503h-0.823l-0.16,1.136
		h0.824l-0.072,0.503h-0.823L288.431,10.361z M287.367,7.042l-0.159,1.136h0.999l0.152-1.136H287.367z"/>
	<path d="M292.231,10.512c-1.615,0-1.927-1.719-1.927-2.886c0-1.167,0.312-2.887,1.927-2.887s1.927,1.719,1.927,2.887
		C294.158,8.793,293.847,10.512,292.231,10.512z M292.231,5.371c-0.808,0-1.175,0.848-1.175,2.255s0.367,2.255,1.175,2.255
		s1.176-0.848,1.176-2.255S293.039,5.371,292.231,5.371z"/>
</g>
<g>
	<path d="M285.423,16.208c-0.216-1.008-1.056-1.191-1.607-1.191c-1.039,0-1.879,0.768-1.879,2.279c0,1.351,0.479,2.391,1.903,2.391
		c0.503,0,1.375-0.24,1.639-1.575h0.752c-0.32,2.167-2.079,2.263-2.511,2.263c-1.304,0-2.583-0.848-2.583-3.054
		c0-1.767,1.008-2.99,2.679-2.99c1.479,0,2.247,0.919,2.358,1.879H285.423z"/>
	<path d="M287.752,18.551l-0.6,1.671h-0.799l2.158-5.741h0.88l2.079,5.741h-0.848l-0.568-1.671H287.752z M289.775,17.863
		l-0.848-2.526h-0.016l-0.92,2.526H289.775z"/>
	<path d="M292.96,19.534h2.911v0.688h-3.687v-5.741h0.775V19.534z"/>
	<path d="M297.408,19.534h2.911v0.688h-3.687v-5.741h0.775V19.534z"/>
</g>
<g>
	<rect x="262.557" y="44.697" class="st2" width="46.063" height="17.717"/>
	<rect x="268.453" y="40.11" class="st1" width="33.414" height="8.517"/>
</g>
<g>
	<path d="M281.972,47.317h-4.238v-5.741h4.182v0.688h-3.406v1.759h3.143v0.688h-3.143v1.919h3.463V47.317z"/>
	<path d="M286.796,41.576h0.751v5.741h-0.871l-2.919-4.638h-0.016v4.638h-0.752v-5.741h0.92l2.87,4.637h0.017V41.576z"/>
	<path d="M288.805,41.576h2.327c1.495,0,2.414,1.135,2.414,2.791c0,1.287-0.56,2.95-2.446,2.95h-2.295V41.576z M289.58,46.653h1.504
		c1.007,0,1.663-0.792,1.663-2.239s-0.664-2.175-1.72-2.175h-1.447V46.653z"/>
</g>
<g>
	<rect x="262.557" y="150.181" class="st2" width="46.063" height="17.716"/>
	<rect x="268.453" y="145.594" class="st1" width="33.414" height="8.517"/>
</g>
<g>
	<path d="M278.969,152.801h-0.776v-5.741h2.655c0.943,0,1.887,0.328,1.887,1.544c0,0.847-0.432,1.159-0.8,1.375
		c0.328,0.136,0.656,0.279,0.688,1.079l0.049,1.039c0.008,0.32,0.048,0.44,0.287,0.576v0.128h-0.951
		c-0.112-0.352-0.136-1.224-0.136-1.439c0-0.472-0.097-1.023-1.023-1.023h-1.879V152.801z M278.969,149.675h1.799
		c0.567,0,1.167-0.145,1.167-0.992c0-0.887-0.647-0.959-1.031-0.959h-1.935V149.675z"/>
	<path d="M288.19,152.801h-4.238v-5.741h4.182v0.688h-3.406v1.76h3.143v0.688h-3.143v1.919h3.463V152.801z"/>
	<path d="M288.713,147.06h4.661v0.688h-1.943v5.054h-0.775v-5.054h-1.942V147.06z"/>
</g>
<g>
	<rect x="262.557" y="185.614" class="st2" width="46.063" height="17.716"/>
	<rect x="268.453" y="181.028" class="st1" width="33.414" height="8.517"/>
</g>
<g>
	<path d="M279.083,188.235h-4.238v-5.741h4.182v0.688h-3.406v1.76h3.143v0.688h-3.143v1.919h3.463V188.235z"/>
	<path d="M283.907,182.493h0.751v5.741h-0.871l-2.919-4.638h-0.016v4.638H280.1v-5.741h0.92l2.87,4.638h0.017V182.493z"/>
	<path d="M285.916,182.493h2.327c1.495,0,2.414,1.136,2.414,2.791c0,1.287-0.56,2.95-2.446,2.95h-2.295V182.493z M286.691,187.571
		h1.504c1.007,0,1.663-0.791,1.663-2.238s-0.664-2.175-1.72-2.175h-1.447V187.571z"/>
	<path d="M295.434,182.493h0.775v5.741h-0.775v-2.679h-2.998v2.679h-0.776v-5.741h0.776v2.375h2.998V182.493z"/>
</g>
<g>
	<rect x="262.557" y="80.129" class="st2" width="46.063" height="17.717"/>
	<rect x="268.453" y="75.543" class="st1" width="33.414" height="8.517"/>
</g>
<g>
	<path d="M281.335,78.689c-0.039-0.888-0.775-1.167-1.423-1.167c-0.487,0-1.312,0.136-1.312,1.007c0,0.488,0.344,0.647,0.68,0.728
		l1.64,0.376c0.743,0.176,1.303,0.624,1.303,1.535c0,1.359-1.263,1.735-2.246,1.735c-1.063,0-1.479-0.32-1.735-0.552
		c-0.488-0.439-0.584-0.919-0.584-1.455h0.728c0,1.04,0.848,1.343,1.583,1.343c0.561,0,1.504-0.144,1.504-0.967
		c0-0.6-0.28-0.792-1.224-1.016l-1.176-0.272c-0.375-0.088-1.223-0.352-1.223-1.351c0-0.896,0.583-1.775,1.975-1.775
		c2.007,0,2.207,1.199,2.239,1.831H281.335z"/>
	<path d="M283.193,77.01h2.526c1.071,0,1.623,0.664,1.623,1.447c0,0.375-0.136,0.903-0.768,1.199c0.376,0.152,1.04,0.416,1.04,1.399
		c0,0.92-0.68,1.695-1.951,1.695h-2.471V77.01z M283.969,79.44h1.399c0.743,0,1.199-0.224,1.199-0.928
		c0-0.536-0.328-0.839-1.191-0.839h-1.407V79.44z M283.969,82.087h1.655c0.808,0,1.215-0.408,1.215-1.047
		c0-0.808-0.711-0.968-1.343-0.968h-1.527V82.087z"/>
	<path d="M292.35,77.01h0.752v5.741h-0.871l-2.919-4.638h-0.016v4.638h-0.752V77.01h0.92l2.87,4.637h0.016V77.01z"/>
</g>
<g>
	<path d="M282.533,93.949h-0.527l0.231-1.679h-0.999l-0.231,1.679h-0.528l0.232-1.679h-0.824l0.072-0.503h0.823l0.152-1.136h-0.824
		l0.072-0.503h0.824l0.231-1.679h0.536l-0.232,1.679h0.991l0.232-1.679h0.535l-0.231,1.679h0.823l-0.071,0.503h-0.824l-0.16,1.136
		h0.824l-0.072,0.503h-0.823L282.533,93.949z M281.47,90.631l-0.159,1.136h0.999l0.152-1.136H281.47z"/>
	<path d="M286.334,94.101c-1.615,0-1.927-1.719-1.927-2.886s0.312-2.887,1.927-2.887s1.927,1.719,1.927,2.887
		S287.949,94.101,286.334,94.101z M286.334,88.96c-0.808,0-1.175,0.848-1.175,2.255s0.367,2.254,1.175,2.254
		s1.176-0.847,1.176-2.254S287.142,88.96,286.334,88.96z"/>
</g>
<g>
	<g>
		<rect x="216.494" y="115.591" class="st2" width="46.063" height="17.716"/>
		<g>
			<g>
				<line class="st0" x1="216.494" y1="119.179" x2="216.494" y2="122.679"/>
				<g>
					<polygon points="214.001,119.909 216.494,115.591 218.987,119.909 					"/>
				</g>
			</g>
		</g>
		<rect x="222.39" y="111.005" class="st1" width="33.414" height="8.517"/>
	</g>
	<g>
		<path d="M235.847,118.212v-3.39c0-0.168,0.016-0.896,0.016-1.432h-0.016l-1.615,4.821h-0.768l-1.615-4.813h-0.016
			c0,0.527,0.016,1.256,0.016,1.424v3.39h-0.751v-5.741h1.111l1.639,4.854h0.017l1.631-4.854h1.104v5.741H235.847z"/>
		<path d="M240.288,118.364c-2.143,0-2.799-1.783-2.799-3.022s0.656-3.022,2.799-3.022s2.799,1.783,2.799,3.022
			S242.431,118.364,240.288,118.364z M240.288,113.007c-1.247,0-1.999,0.983-1.999,2.335c0,1.351,0.752,2.334,1.999,2.334
			s1.999-0.983,1.999-2.334C242.287,113.99,241.535,113.007,240.288,113.007z"/>
		<path d="M247.304,112.471h0.871l-2.095,5.741h-0.823l-2.095-5.741h0.863l1.639,4.894h0.017L247.304,112.471z"/>
	</g>
	<g>
		<rect x="262.557" y="115.591" class="st2" width="46.063" height="17.716"/>
	</g>
	<g>
		<path d="M231.629,122.106h2.327c1.495,0,2.414,1.136,2.414,2.791c0,1.287-0.56,2.95-2.446,2.95h-2.295V122.106z M232.404,127.183
			h1.504c1.007,0,1.663-0.791,1.663-2.238s-0.664-2.175-1.72-2.175h-1.447V127.183z"/>
		<path d="M242.091,127.847v-3.39c0-0.168,0.016-0.896,0.016-1.432h-0.016l-1.615,4.821h-0.768l-1.615-4.813h-0.016
			c0,0.527,0.016,1.256,0.016,1.424v3.39h-0.751v-5.741h1.111l1.639,4.854h0.017l1.631-4.854h1.104v5.741H242.091z"/>
		<path d="M245.643,127.999c-1.615,0-1.927-1.72-1.927-2.887s0.312-2.887,1.927-2.887s1.927,1.72,1.927,2.887
			S247.259,127.999,245.643,127.999z M245.643,122.858c-0.808,0-1.175,0.848-1.175,2.255s0.367,2.255,1.175,2.255
			s1.176-0.848,1.176-2.255S246.451,122.858,245.643,122.858z"/>
	</g>
	<g>
		<path d="M277.692,122.106h2.327c1.495,0,2.414,1.136,2.414,2.791c0,1.287-0.56,2.95-2.446,2.95h-2.295V122.106z M278.468,127.183
			h1.504c1.007,0,1.663-0.791,1.663-2.238s-0.664-2.175-1.72-2.175h-1.447V127.183z"/>
		<path d="M288.154,127.847v-3.39c0-0.168,0.016-0.896,0.016-1.432h-0.016l-1.615,4.821h-0.768l-1.615-4.813h-0.016
			c0,0.527,0.016,1.256,0.016,1.424v3.39h-0.751v-5.741h1.111l1.639,4.854h0.017l1.631-4.854h1.104v5.741H288.154z"/>
		<path d="M292.354,127.847h-0.751v-3.99h-1.312v-0.56c0.911-0.063,1.287-0.151,1.511-1.071h0.552V127.847z"/>
	</g>
</g>
<g>
</g>
</svg>
