<?xml version="1.0" encoding="utf-8"?>
<!-- Generator: Adobe Illustrator 28.2.0, SVG Export Plug-In . SVG Version: 6.00 Build 0)  -->
<svg version="1.1" id="レイヤー_1" xmlns="http://www.w3.org/2000/svg" xmlns:xlink="http://www.w3.org/1999/xlink" x="0px"
	 y="0px" width="482.614px" height="221.641px" viewBox="0 0 482.614 221.641" style="enable-background:new 0 0 482.614 221.641;"
	 xml:space="preserve">
<style type="text/css">
	.st0{fill:none;stroke:#9FA0A0;}
	.st1{fill:#CCCCCC;}
	.st2{fill:none;stroke:#000000;}
	.st3{fill:none;stroke:#000000;stroke-width:0.5;}
	.st4{fill:none;stroke:#000000;stroke-width:0.5;stroke-dasharray:1;}
</style>
<path class="st0" d="M433.815,146.759c0,4.971-4.03,8.999-9,8.999c-4.969,0-9-4.028-9-8.999s4.031-9,9-9
	C429.785,137.759,433.815,141.788,433.815,146.759z"/>
<path class="st0" d="M433.815,188.44c0,4.971-4.03,8.999-9,8.999c-4.969,0-9-4.028-9-8.999c0-4.971,4.031-9,9-9
	C429.785,179.44,433.815,183.469,433.815,188.44z"/>
<path class="st0" d="M197.457,164.207c0,4.971-4.029,8.999-9,8.999c-4.971,0-9-4.028-9-8.999s4.03-9,9-9
	C193.427,155.206,197.457,159.236,197.457,164.207z"/>
<path class="st0" d="M197.457,188.44c0,4.971-4.029,8.999-9,8.999c-4.971,0-9-4.028-9-8.999c0-4.971,4.03-9,9-9
	C193.427,179.44,197.457,183.469,197.457,188.44z"/>
<rect x="105.914" y="32.981" class="st1" width="10.63" height="18.25"/>
<rect x="184.059" y="32.981" class="st1" width="10.63" height="18.25"/>
<rect x="420.618" y="33.515" class="st1" width="10.63" height="17.717"/>
<rect x="88.197" y="33.515" class="st2" width="393.306" height="17.717"/>
<line class="st2" x1="88.197" y1="32.981" x2="88.197" y2="51.231"/>
<line class="st2" x1="105.914" y1="32.981" x2="105.914" y2="51.231"/>
<line class="st2" x1="116.544" y1="32.981" x2="116.544" y2="51.231"/>
<line class="st2" x1="481.504" y1="32.981" x2="481.504" y2="51.231"/>
<line class="st2" x1="402.845" y1="33.826" x2="402.845" y2="50.386"/>
<line class="st2" x1="420.559" y1="33.826" x2="420.559" y2="50.386"/>
<line class="st2" x1="431.189" y1="33.826" x2="431.189" y2="50.386"/>
<line class="st2" x1="245.52" y1="33.826" x2="245.52" y2="51.478"/>
<line class="st2" x1="324.182" y1="33.826" x2="324.182" y2="50.386"/>
<line class="st2" x1="166.859" y1="33.826" x2="166.859" y2="51.478"/>
<line class="st2" x1="184.575" y1="33.826" x2="184.575" y2="51.478"/>
<line class="st2" x1="195.205" y1="33.826" x2="195.205" y2="51.478"/>
<path d="M115.957,42.215c0,2.642-2.142,4.783-4.783,4.783c-2.641,0-4.783-2.142-4.783-4.783c0-2.642,2.142-4.783,4.783-4.783
	C113.816,37.431,115.957,39.573,115.957,42.215z"/>
<path d="M194.636,42.215c0,2.642-2.142,4.783-4.783,4.783s-4.783-2.142-4.783-4.783c0-2.642,2.142-4.783,4.783-4.783
	S194.636,39.573,194.636,42.215z"/>
<path d="M430.418,42.215c0,2.642-2.144,4.783-4.785,4.783c-2.642,0-4.783-2.142-4.783-4.783c0-2.642,2.141-4.783,4.783-4.783
	C428.274,37.431,430.418,39.573,430.418,42.215z"/>
<path class="st3" d="M88.343,33.785c0,0,0-5.458,4.832-5.458c4.832,0,31.551,0,31.551,0s2.842,1.091,2.842-4.731"/>
<path class="st3" d="M167.077,33.785c0,0,0-5.458-4.86-5.458c-4.86,0-31.736,0-31.736,0s-2.859,1.091-2.859-4.731v-11.55"/>
<g>
	<path class="st3" d="M116.831,51.573c0,0,0,2.7-0.687,2.7c-1.736,0,0.22,0-3.904,0c0,0-0.991,2.023-0.991,3.187"/>
	<path class="st3" d="M105.627,51.573c0,0,0,2.7,0.687,2.7c0.687,0,3.896,0,3.896,0s0.998,2.023,0.998,3.187
		c0,0-0.094,6.833,3.757,6.833c3.851,0,10.664,0,10.664,0s6.517-1.777,6.517,4.443"/>
</g>
<g>
	<path d="M108.621,1.876c0.307,0.042,0.612,0.062,0.914,0.062h4.68c0.302,0,0.606-0.021,0.914-0.062
		c-0.021,0.12-0.031,0.234-0.031,0.344s0.01,0.214,0.031,0.312c-0.308-0.036-0.612-0.055-0.914-0.055h-2.086v1.836h1.625
		c0.302,0,0.602-0.021,0.898-0.062c-0.021,0.12-0.031,0.234-0.031,0.344s0.01,0.214,0.031,0.312
		c-0.297-0.042-0.597-0.062-0.898-0.062h-1.625V6.97h2.43c0.302,0,0.606-0.021,0.914-0.062c-0.021,0.12-0.031,0.234-0.031,0.344
		s0.01,0.213,0.031,0.312c-0.308-0.042-0.612-0.062-0.914-0.062h-5.344c-0.297,0-0.599,0.021-0.906,0.062
		c0.021-0.099,0.031-0.203,0.031-0.312s-0.011-0.224-0.031-0.344c0.307,0.042,0.609,0.062,0.906,0.062h2.32V4.845h-1.656
		c-0.302,0-0.607,0.021-0.914,0.062c0.021-0.099,0.031-0.203,0.031-0.312s-0.011-0.224-0.031-0.344
		c0.307,0.042,0.612,0.062,0.914,0.062h1.656V2.478h-2c-0.302,0-0.607,0.019-0.914,0.055c0.021-0.099,0.031-0.203,0.031-0.312
		S108.641,1.996,108.621,1.876z M111.722,0.446c0.182,0.401,0.422,0.753,0.719,1.055c-0.214,0.026-0.443,0.112-0.688,0.258
		c-0.203-0.442-0.422-0.797-0.656-1.062C111.305,0.649,111.514,0.566,111.722,0.446z"/>
	<path d="M118.964,0.97c-0.25,0.068-0.479,0.13-0.688,0.188v1.539h0.094c0.297,0,0.588-0.023,0.875-0.07
		c-0.021,0.109-0.031,0.214-0.031,0.312c0,0.109,0.01,0.214,0.031,0.312c-0.287-0.042-0.578-0.062-0.875-0.062h-0.094v0.883
		c0.151-0.052,0.276-0.117,0.375-0.195c0.172,0.349,0.401,0.703,0.688,1.062c-0.172,0.037-0.336,0.12-0.492,0.25
		c-0.172-0.354-0.362-0.667-0.57-0.938v2.688c0,0.307,0.021,0.609,0.062,0.906c-0.109-0.016-0.224-0.023-0.344-0.023
		c-0.109,0-0.224,0.008-0.344,0.023c0.047-0.297,0.07-0.599,0.07-0.906V4.392c-0.328,0.734-0.716,1.419-1.164,2.055
		c-0.094-0.26-0.227-0.469-0.398-0.625c0.385-0.401,0.708-0.859,0.969-1.375c0.203-0.375,0.385-0.794,0.547-1.258h-0.398
		c-0.287,0-0.576,0.021-0.867,0.062c0.021-0.099,0.031-0.203,0.031-0.312c0-0.099-0.011-0.203-0.031-0.312
		c0.292,0.047,0.581,0.07,0.867,0.07h0.445V1.306c-0.511,0.141-0.878,0.248-1.102,0.32c-0.031-0.192-0.125-0.398-0.281-0.617
		c0.911-0.026,1.786-0.258,2.625-0.695c0.088,0.214,0.224,0.445,0.406,0.695C119.209,0.983,119.074,0.97,118.964,0.97z
		 M119.371,3.759c0.297,0.042,0.588,0.062,0.875,0.062h2.125c0.297,0,0.588-0.021,0.875-0.062c-0.021,0.099-0.031,0.203-0.031,0.312
		c0,0.099,0.01,0.203,0.031,0.312c-0.287-0.047-0.578-0.07-0.875-0.07h-0.781v1.039h0.57c0.286,0,0.575-0.023,0.867-0.07
		c-0.021,0.109-0.031,0.214-0.031,0.312c0,0.109,0.01,0.214,0.031,0.312c-0.292-0.042-0.581-0.062-0.867-0.062h-0.57v1.164h1.062
		c0.297,0,0.591-0.023,0.883-0.07c-0.021,0.109-0.031,0.213-0.031,0.312c0,0.109,0.01,0.213,0.031,0.312
		c-0.292-0.042-0.586-0.062-0.883-0.062h-2.773c-0.292,0-0.586,0.021-0.883,0.062c0.021-0.099,0.031-0.203,0.031-0.312
		c0-0.099-0.011-0.203-0.031-0.312c0.297,0.047,0.591,0.07,0.883,0.07h1.117V5.845h-0.586c-0.297,0-0.589,0.021-0.875,0.062
		c0.016-0.099,0.023-0.203,0.023-0.312c0-0.099-0.008-0.203-0.023-0.312c0.286,0.047,0.578,0.07,0.875,0.07h0.586V4.313h-0.75
		c-0.287,0-0.578,0.023-0.875,0.07c0.026-0.109,0.039-0.213,0.039-0.312C119.41,3.962,119.396,3.858,119.371,3.759z M119.722,0.728
		c0.338,0.021,0.682,0.031,1.031,0.031h1.18c0.349,0,0.692-0.01,1.031-0.031c-0.021,0.172-0.031,0.347-0.031,0.523v1.281
		c0,0.208,0.01,0.419,0.031,0.633c-0.339-0.021-0.683-0.031-1.031-0.031h-1.18c-0.349,0-0.693,0.011-1.031,0.031
		c0.021-0.213,0.031-0.424,0.031-0.633V1.251C119.732,1.074,119.722,0.899,119.722,0.728z M122.339,2.626V1.251h-2v1.375H122.339z"
		/>
	<path d="M128.339,0.446c0.094,0.271,0.19,0.573,0.289,0.906h2.055c0.219,0,0.438-0.013,0.656-0.039
		c-0.021,0.099-0.031,0.193-0.031,0.281c0,0.109,0.01,0.214,0.031,0.312c-0.219-0.021-0.438-0.031-0.656-0.031h-4.805v2.227
		c-0.021,0.677-0.112,1.315-0.273,1.914c-0.109,0.479-0.362,1.07-0.758,1.773c-0.183-0.183-0.401-0.287-0.656-0.312
		c0.354-0.495,0.612-1.002,0.773-1.523c0.188-0.63,0.281-1.247,0.281-1.852V2.071c0-0.25-0.019-0.502-0.055-0.758
		c0.234,0.026,0.471,0.039,0.711,0.039h2.195c-0.115-0.333-0.229-0.617-0.344-0.852C127.941,0.491,128.136,0.473,128.339,0.446z
		 M126.503,2.501c0.198,0.021,0.362,0.031,0.492,0.031h3.102c0.229,0,0.448-0.01,0.656-0.031c-0.021,0.078-0.031,0.164-0.031,0.258
		c0,0.183,0.01,0.357,0.031,0.523c-0.292,0.062-0.573,0.159-0.844,0.289c-0.198,0.109-0.516,0.326-0.953,0.648
		c0.021,0.016,0.034,0.026,0.039,0.031c-0.052,0.037-0.104,0.081-0.156,0.133h1.719c0.203,0,0.393-0.01,0.57-0.031
		c-0.224,0.558-0.394,1.086-0.508,1.586c-0.203-0.052-0.401-0.083-0.594-0.094c0.151-0.312,0.266-0.635,0.344-0.969h-1.469v2.57
		c0,0.161-0.094,0.278-0.281,0.352c-0.177,0.073-0.531,0.109-1.062,0.109c-0.011-0.245-0.083-0.464-0.219-0.656
		c0.338,0.042,0.602,0.062,0.789,0.062c0.135,0,0.206-0.05,0.211-0.148V4.876h-2.211V4.384h2.258
		c-0.312-0.312-0.628-0.586-0.945-0.82c0.13-0.099,0.245-0.203,0.344-0.312c0.271,0.24,0.555,0.477,0.852,0.711l1.266-0.953h-2.906
		c-0.172,0-0.336,0.011-0.492,0.031c0.021-0.12,0.031-0.213,0.031-0.281C126.535,2.67,126.524,2.584,126.503,2.501z"/>
	<path d="M132.41,2.103c0.302,0.042,0.602,0.062,0.898,0.062h0.344V1.009c0-0.188-0.011-0.375-0.031-0.562
		c0.224,0.037,0.463,0.055,0.719,0.055c-0.062,0.177-0.094,0.378-0.094,0.602v1.062h0.289c0.297,0,0.599-0.021,0.906-0.062
		c-0.021,0.109-0.031,0.224-0.031,0.344c0,0.099,0.01,0.203,0.031,0.312c-0.308-0.042-0.609-0.062-0.906-0.062h-0.289v1.438
		c0.385-0.151,0.75-0.32,1.094-0.508c-0.021,0.323-0.031,0.542-0.031,0.656c-0.391,0.141-0.745,0.271-1.062,0.391v2.461
		c0,0.281-0.104,0.466-0.312,0.555c-0.208,0.088-0.511,0.133-0.906,0.133c-0.052-0.276-0.167-0.505-0.344-0.688h0.508
		c0.307,0,0.461-0.104,0.461-0.312V4.899c-0.542,0.224-0.925,0.417-1.148,0.578c-0.011-0.208-0.076-0.448-0.195-0.719
		c0.463-0.114,0.911-0.247,1.344-0.398V2.696h-0.344c-0.297,0-0.597,0.021-0.898,0.062c0.021-0.109,0.031-0.213,0.031-0.312
		C132.441,2.327,132.43,2.212,132.41,2.103z M135.472,1.313c0.219,0.026,0.438,0.039,0.656,0.039h2.062
		c0.297,0,0.599-0.013,0.906-0.039c-0.021,0.297-0.031,0.589-0.031,0.875v4.633c0,0.297,0.01,0.599,0.031,0.906
		c-0.109-0.021-0.214-0.031-0.312-0.031c-0.12,0-0.234,0.01-0.344,0.031c0.021-0.281,0.031-0.555,0.031-0.82h-2.508
		c-0.25,0-0.519,0.011-0.805,0.031c0.021-0.109,0.031-0.213,0.031-0.312c0-0.104-0.011-0.195-0.031-0.273
		c0.276,0.021,0.544,0.031,0.805,0.031h2.508v-2.07h-1.938c-0.25,0-0.521,0.013-0.812,0.039c0.021-0.12,0.031-0.224,0.031-0.312
		c0-0.109-0.011-0.203-0.031-0.281c0.281,0.021,0.552,0.031,0.812,0.031h1.938V1.876h-2.344c-0.219,0-0.438,0.011-0.656,0.031
		c0.021-0.099,0.031-0.203,0.031-0.312C135.503,1.506,135.493,1.413,135.472,1.313z"/>
	<path d="M140.214,2.22c0.292,0.042,0.586,0.062,0.883,0.062h0.211V1.009c0-0.177-0.011-0.354-0.031-0.531
		c0.219,0.037,0.448,0.055,0.688,0.055c-0.058,0.167-0.086,0.357-0.086,0.57v1.18h0.023c0.276,0,0.555-0.018,0.836-0.055
		c0.01-0.073,0.016-0.146,0.016-0.219c0-0.12-0.011-0.237-0.031-0.352c0.302,0.047,0.602,0.07,0.898,0.07h0.312v-1
		c0-0.078-0.011-0.153-0.031-0.227c0.224,0.042,0.453,0.062,0.688,0.062c-0.058,0.12-0.086,0.224-0.086,0.312v0.852h1.117V0.696
		c0-0.078-0.011-0.151-0.031-0.219c0.224,0.037,0.453,0.055,0.688,0.055c-0.058,0.12-0.086,0.224-0.086,0.312v0.883h0.398
		c0.307,0,0.612-0.023,0.914-0.07c-0.021,0.115-0.031,0.232-0.031,0.352c0,0.104,0.01,0.206,0.031,0.305
		c-0.302-0.042-0.607-0.062-0.914-0.062h-0.398V3.04c0,0.083,0.008,0.164,0.023,0.242c-0.099-0.021-0.203-0.031-0.312-0.031
		c-0.099,0-0.203,0.011-0.312,0.031c0.021-0.078,0.031-0.159,0.031-0.242V2.251h-1.117v0.758c0,0.083,0.01,0.164,0.031,0.242
		c-0.109-0.021-0.216-0.031-0.32-0.031c-0.099,0-0.203,0.011-0.312,0.031c0.021-0.078,0.031-0.159,0.031-0.242V2.251h-0.312
		c-0.281,0-0.565,0.019-0.852,0.055c-0.011,0.083-0.016,0.159-0.016,0.227c0,0.109,0.01,0.214,0.031,0.312
		c-0.297-0.036-0.591-0.055-0.883-0.055h-0.023v1.281c0.312-0.125,0.614-0.263,0.906-0.414c-0.021,0.292-0.031,0.49-0.031,0.594
		c-0.328,0.115-0.62,0.219-0.875,0.312v2.539c0,0.271-0.104,0.448-0.312,0.531c-0.203,0.083-0.498,0.125-0.883,0.125
		c-0.052-0.261-0.156-0.479-0.312-0.656h0.477c0.307,0,0.461-0.104,0.461-0.312V4.782c-0.453,0.188-0.776,0.344-0.969,0.469
		c-0.011-0.188-0.07-0.406-0.18-0.656c0.406-0.088,0.789-0.195,1.148-0.32V2.79h-0.211c-0.297,0-0.591,0.019-0.883,0.055
		c0.021-0.099,0.031-0.203,0.031-0.312C140.246,2.434,140.235,2.329,140.214,2.22z M143.066,3.563
		c0.281,0.042,0.56,0.062,0.836,0.062h2.312c0.281,0,0.565-0.021,0.852-0.062c-0.047,0.271-0.07,0.544-0.07,0.82V6.97
		c0,0.276,0.023,0.549,0.07,0.82c-0.156-0.021-0.261-0.031-0.312-0.031c-0.062,0-0.177,0.01-0.344,0.031
		c0.026-0.183,0.044-0.362,0.055-0.539h-2.805c0.01,0.182,0.031,0.362,0.062,0.539c-0.172-0.021-0.289-0.031-0.352-0.031
		c-0.052,0-0.154,0.01-0.305,0.031c0.042-0.271,0.062-0.544,0.062-0.82V4.384C143.128,4.108,143.107,3.834,143.066,3.563z
		 M143.652,5.22h1.133V4.134h-1.133V5.22z M143.652,6.759h1.133V5.696h-1.133V6.759z M145.277,4.134V5.22h1.195V4.134H145.277z
		 M145.277,5.696v1.062h1.195V5.696H145.277z"/>
</g>
<g>
	<path d="M133.144,74.389c0.255,0.042,0.508,0.062,0.758,0.062h4.148c0.292,0,0.586-0.021,0.883-0.062
		c-0.021,0.104-0.031,0.206-0.031,0.305c0,0.125,0.01,0.253,0.031,0.383c-0.24,0.021-0.433,0.07-0.578,0.148
		c-0.208,0.099-0.862,0.547-1.961,1.344v0.75h2.164c0.317,0,0.641-0.021,0.969-0.062c-0.026,0.12-0.039,0.234-0.039,0.344
		c0,0.12,0.013,0.234,0.039,0.344c-0.328-0.042-0.651-0.062-0.969-0.062h-2.164v2.57c0,0.25-0.091,0.43-0.273,0.539
		c-0.141,0.109-0.558,0.18-1.25,0.211c-0.042-0.224-0.146-0.464-0.312-0.719c0.208,0.021,0.362,0.031,0.461,0.031
		c0.5,0,0.75-0.065,0.75-0.195v-2.438h-2.375c-0.318,0-0.641,0.021-0.969,0.062c0.021-0.109,0.031-0.224,0.031-0.344
		c0-0.109-0.011-0.224-0.031-0.344c0.328,0.042,0.651,0.062,0.969,0.062h2.375V76.35l1.938-1.375h-3.805
		c-0.25,0-0.503,0.021-0.758,0.062c0.026-0.109,0.039-0.224,0.039-0.344C133.183,74.595,133.17,74.493,133.144,74.389z"/>
	<path d="M143.082,74.35c-0.25,0.068-0.479,0.13-0.688,0.188v1.539h0.094c0.297,0,0.588-0.023,0.875-0.07
		c-0.021,0.109-0.031,0.214-0.031,0.312c0,0.109,0.01,0.214,0.031,0.312c-0.287-0.042-0.578-0.062-0.875-0.062h-0.094v0.883
		c0.151-0.052,0.276-0.117,0.375-0.195c0.172,0.349,0.401,0.703,0.688,1.062c-0.172,0.037-0.336,0.12-0.492,0.25
		c-0.172-0.354-0.362-0.667-0.57-0.938v2.688c0,0.307,0.021,0.609,0.062,0.906c-0.109-0.016-0.224-0.023-0.344-0.023
		c-0.109,0-0.224,0.008-0.344,0.023c0.047-0.297,0.07-0.599,0.07-0.906v-2.547c-0.328,0.734-0.716,1.419-1.164,2.055
		c-0.094-0.26-0.227-0.469-0.398-0.625c0.385-0.401,0.708-0.859,0.969-1.375c0.203-0.375,0.385-0.794,0.547-1.258h-0.398
		c-0.287,0-0.576,0.021-0.867,0.062c0.021-0.099,0.031-0.203,0.031-0.312c0-0.099-0.011-0.203-0.031-0.312
		c0.292,0.047,0.581,0.07,0.867,0.07h0.445v-1.391c-0.511,0.141-0.878,0.248-1.102,0.32c-0.031-0.192-0.125-0.398-0.281-0.617
		c0.911-0.026,1.786-0.258,2.625-0.695c0.088,0.214,0.224,0.445,0.406,0.695C143.326,74.363,143.191,74.35,143.082,74.35z
		 M143.488,77.139c0.297,0.042,0.588,0.062,0.875,0.062h2.125c0.297,0,0.588-0.021,0.875-0.062
		c-0.021,0.099-0.031,0.203-0.031,0.312c0,0.099,0.01,0.203,0.031,0.312c-0.287-0.047-0.578-0.07-0.875-0.07h-0.781v1.039h0.57
		c0.286,0,0.575-0.023,0.867-0.07c-0.021,0.109-0.031,0.214-0.031,0.312c0,0.109,0.01,0.214,0.031,0.312
		c-0.292-0.042-0.581-0.062-0.867-0.062h-0.57v1.164h1.062c0.297,0,0.591-0.023,0.883-0.07c-0.021,0.109-0.031,0.213-0.031,0.312
		c0,0.109,0.01,0.213,0.031,0.312c-0.292-0.042-0.586-0.062-0.883-0.062h-2.773c-0.292,0-0.586,0.021-0.883,0.062
		c0.021-0.099,0.031-0.203,0.031-0.312c0-0.099-0.011-0.203-0.031-0.312c0.297,0.047,0.591,0.07,0.883,0.07h1.117v-1.164h-0.586
		c-0.297,0-0.589,0.021-0.875,0.062c0.016-0.099,0.023-0.203,0.023-0.312c0-0.099-0.008-0.203-0.023-0.312
		c0.286,0.047,0.578,0.07,0.875,0.07h0.586v-1.039h-0.75c-0.287,0-0.578,0.023-0.875,0.07c0.026-0.109,0.039-0.213,0.039-0.312
		C143.527,77.342,143.514,77.238,143.488,77.139z M143.839,74.107c0.338,0.021,0.682,0.031,1.031,0.031h1.18
		c0.349,0,0.692-0.01,1.031-0.031c-0.021,0.172-0.031,0.347-0.031,0.523v1.281c0,0.208,0.01,0.419,0.031,0.633
		c-0.339-0.021-0.683-0.031-1.031-0.031h-1.18c-0.349,0-0.693,0.011-1.031,0.031c0.021-0.213,0.031-0.424,0.031-0.633v-1.281
		C143.85,74.454,143.839,74.279,143.839,74.107z M146.457,76.006v-1.375h-2v1.375H146.457z"/>
	<path d="M152.457,73.826c0.094,0.271,0.19,0.573,0.289,0.906h2.055c0.219,0,0.438-0.013,0.656-0.039
		c-0.021,0.099-0.031,0.193-0.031,0.281c0,0.109,0.01,0.214,0.031,0.312c-0.219-0.021-0.438-0.031-0.656-0.031h-4.805v2.227
		c-0.021,0.677-0.112,1.315-0.273,1.914c-0.109,0.479-0.362,1.07-0.758,1.773c-0.183-0.183-0.401-0.287-0.656-0.312
		c0.354-0.495,0.612-1.002,0.773-1.523c0.188-0.63,0.281-1.247,0.281-1.852v-2.031c0-0.25-0.019-0.502-0.055-0.758
		c0.234,0.026,0.471,0.039,0.711,0.039h2.195c-0.115-0.333-0.229-0.617-0.344-0.852C152.058,73.871,152.253,73.853,152.457,73.826z
		 M150.621,75.881c0.198,0.021,0.362,0.031,0.492,0.031h3.102c0.229,0,0.448-0.01,0.656-0.031c-0.021,0.078-0.031,0.164-0.031,0.258
		c0,0.183,0.01,0.357,0.031,0.523c-0.292,0.062-0.573,0.159-0.844,0.289c-0.198,0.109-0.516,0.326-0.953,0.648
		c0.021,0.016,0.034,0.026,0.039,0.031c-0.052,0.037-0.104,0.081-0.156,0.133h1.719c0.203,0,0.393-0.01,0.57-0.031
		c-0.224,0.558-0.394,1.086-0.508,1.586c-0.203-0.052-0.401-0.083-0.594-0.094c0.151-0.312,0.266-0.635,0.344-0.969h-1.469v2.57
		c0,0.161-0.094,0.278-0.281,0.352c-0.177,0.073-0.531,0.109-1.062,0.109c-0.011-0.245-0.083-0.464-0.219-0.656
		c0.338,0.042,0.602,0.062,0.789,0.062c0.135,0,0.206-0.05,0.211-0.148v-2.289h-2.211v-0.492h2.258
		c-0.312-0.312-0.628-0.586-0.945-0.82c0.13-0.099,0.245-0.203,0.344-0.312c0.271,0.24,0.555,0.477,0.852,0.711l1.266-0.953h-2.906
		c-0.172,0-0.336,0.011-0.492,0.031c0.021-0.12,0.031-0.213,0.031-0.281C150.652,76.05,150.641,75.964,150.621,75.881z"/>
</g>
<g>
	<path d="M446.77,68.409c0.234,0.104,0.497,0.175,0.789,0.211c-0.146,0.115-0.336,0.31-0.57,0.586
		c-0.011,0.016-0.021,0.029-0.031,0.039h1.125c0.224,0,0.464-0.01,0.719-0.031c-0.021,0.094-0.031,0.18-0.031,0.258
		c0,0.104,0.011,0.198,0.031,0.281c-0.167-0.021-0.406-0.031-0.719-0.031h-0.438l0.32,0.688c-0.229,0.026-0.44,0.065-0.633,0.117
		c-0.083-0.323-0.183-0.591-0.297-0.805h-0.445c-0.255,0.323-0.539,0.656-0.852,1c-0.188-0.156-0.406-0.26-0.656-0.312
		c0.37-0.219,0.724-0.539,1.062-0.961C446.322,69.256,446.531,68.909,446.77,68.409z M445.903,70.651
		c0.286,0.026,0.575,0.039,0.867,0.039h3.539c0.344,0,0.685-0.013,1.023-0.039c-0.016,0.177-0.023,0.354-0.023,0.531v0.781
		c0,0.177,0.008,0.354,0.023,0.531c-0.339-0.016-0.68-0.023-1.023-0.023h-1.258v0.805h1.656c0.38,0,0.758-0.01,1.133-0.031
		c-0.089,1.021-0.231,1.589-0.43,1.703c-0.219,0.182-0.651,0.281-1.297,0.297c0-0.198-0.07-0.406-0.211-0.625
		c0.208,0.021,0.344,0.031,0.406,0.031c0.25,0,0.433-0.031,0.547-0.094c0.219-0.062,0.328-0.32,0.328-0.773h-2.133v1.117
		c0,0.328,0.021,0.651,0.062,0.969c-0.12-0.021-0.245-0.031-0.375-0.031c-0.109,0-0.224,0.01-0.344,0.031
		c0.042-0.318,0.062-0.641,0.062-0.969v-0.992c-0.573,0.609-1.528,1.213-2.867,1.812c-0.104-0.167-0.273-0.326-0.508-0.477
		c0.719-0.183,1.347-0.427,1.883-0.734c0.401-0.198,0.753-0.44,1.055-0.727h-1.219c-0.271,0-0.542,0.011-0.812,0.031l0.125-1.883
		c0.276,0.021,0.55,0.031,0.82,0.031h1.523v-0.781h-1.688c-0.292,0-0.581,0.011-0.867,0.031c0.021-0.088,0.031-0.182,0.031-0.281
		C445.934,70.844,445.923,70.75,445.903,70.651z M448.458,73.276v-0.805h-1.805l-0.062,0.805H448.458z M449.77,68.409
		c0.224,0.104,0.477,0.175,0.758,0.211c-0.13,0.115-0.297,0.302-0.5,0.562c-0.011,0.016-0.019,0.026-0.023,0.031h1.523
		c0.224,0,0.464-0.01,0.719-0.031c-0.021,0.089-0.031,0.175-0.031,0.258c0,0.104,0.011,0.198,0.031,0.281
		c-0.177-0.021-0.417-0.031-0.719-0.031h-0.602l0.352,0.719c-0.229,0.026-0.438,0.065-0.625,0.117
		c-0.094-0.333-0.206-0.612-0.336-0.836h-0.648c-0.224,0.302-0.469,0.612-0.734,0.93c-0.188-0.135-0.396-0.227-0.625-0.273
		c0.312-0.213,0.62-0.526,0.922-0.938C449.382,69.227,449.562,68.894,449.77,68.409z M449.051,71.183v0.781h1.656v-0.781H449.051z"
		/>
	<path d="M460.579,75.034h-0.703v-2.575c0-0.728-0.208-1.095-0.896-1.095c-0.4,0-1.104,0.256-1.104,1.391v2.279h-0.704v-4.182h0.664
		v0.592h0.016c0.152-0.224,0.544-0.712,1.264-0.712c0.647,0,1.463,0.264,1.463,1.455V75.034z"/>
	<path d="M463.148,70.997h0.584v1.727h1.727v0.583h-1.727v1.727h-0.584v-1.727h-1.735v-0.583h1.735V70.997z"/>
	<path d="M468.643,75.034h-0.751v-3.99h-1.312v-0.56c0.911-0.064,1.287-0.152,1.511-1.072h0.552V75.034z"/>
	<path d="M476.096,71.933c0.136,0.125,0.32,0.24,0.555,0.344c-0.594,1.047-1.081,2.047-1.461,3
		c-0.261-0.183-0.489-0.317-0.688-0.406C475.018,74.245,475.549,73.266,476.096,71.933z M475.44,69.159
		c0.292,0.651,0.664,1.222,1.117,1.711c-0.219,0.031-0.456,0.128-0.711,0.289c-0.328-0.719-0.683-1.292-1.062-1.719
		C475.002,69.394,475.221,69.3,475.44,69.159z M478.44,71.034c0.245,0.094,0.505,0.164,0.781,0.211
		c-0.058,0.156-0.089,0.326-0.094,0.508c0,0.578,0.073,1.068,0.219,1.469c0.146,0.401,0.364,0.732,0.656,0.992
		c0.386,0.38,0.979,0.703,1.781,0.969c-0.271,0.146-0.489,0.364-0.656,0.656c-0.536-0.287-0.992-0.654-1.367-1.102
		c-0.38-0.422-0.695-0.979-0.945-1.672c-0.151,0.589-0.401,1.086-0.75,1.492c-0.396,0.479-0.961,0.927-1.695,1.344
		c-0.136-0.261-0.341-0.469-0.617-0.625c0.823-0.24,1.419-0.531,1.789-0.875c0.364-0.317,0.614-0.75,0.75-1.297
		c0.12-0.479,0.18-0.93,0.18-1.352C478.471,71.514,478.46,71.274,478.44,71.034z M478.127,68.44c0.25,0.12,0.528,0.203,0.836,0.25
		c-0.146,0.183-0.341,0.503-0.586,0.961c-0.062,0.141-0.125,0.279-0.188,0.414h2.562c0.25,0,0.489-0.01,0.719-0.031
		c-0.339,0.708-0.591,1.375-0.758,2c-0.255-0.073-0.505-0.117-0.75-0.133c0.245-0.438,0.435-0.885,0.57-1.344h-2.594
		c-0.255,0.521-0.536,1.055-0.844,1.602c-0.208-0.177-0.45-0.292-0.727-0.344c0.38-0.375,0.75-0.919,1.109-1.633
		C477.662,69.87,477.877,69.29,478.127,68.44z"/>
</g>
<g>
	<path d="M221.55,68.409c0.234,0.104,0.497,0.175,0.789,0.211c-0.146,0.115-0.336,0.31-0.57,0.586
		c-0.011,0.016-0.021,0.029-0.031,0.039h1.125c0.224,0,0.463-0.01,0.719-0.031c-0.021,0.094-0.031,0.18-0.031,0.258
		c0,0.104,0.01,0.198,0.031,0.281c-0.167-0.021-0.406-0.031-0.719-0.031h-0.438l0.32,0.688c-0.229,0.026-0.44,0.065-0.633,0.117
		c-0.083-0.323-0.183-0.591-0.297-0.805h-0.445c-0.255,0.323-0.539,0.656-0.852,1c-0.188-0.156-0.406-0.26-0.656-0.312
		c0.37-0.219,0.724-0.539,1.062-0.961C221.102,69.256,221.311,68.909,221.55,68.409z M220.683,70.651
		c0.286,0.026,0.575,0.039,0.867,0.039h3.539c0.344,0,0.685-0.013,1.023-0.039c-0.016,0.177-0.023,0.354-0.023,0.531v0.781
		c0,0.177,0.008,0.354,0.023,0.531c-0.339-0.016-0.68-0.023-1.023-0.023h-1.258v0.805h1.656c0.38,0,0.758-0.01,1.133-0.031
		c-0.089,1.021-0.232,1.589-0.43,1.703c-0.219,0.182-0.651,0.281-1.297,0.297c0-0.198-0.07-0.406-0.211-0.625
		c0.208,0.021,0.344,0.031,0.406,0.031c0.25,0,0.432-0.031,0.547-0.094c0.219-0.062,0.328-0.32,0.328-0.773h-2.133v1.117
		c0,0.328,0.021,0.651,0.062,0.969c-0.12-0.021-0.245-0.031-0.375-0.031c-0.109,0-0.224,0.01-0.344,0.031
		c0.042-0.318,0.062-0.641,0.062-0.969v-0.992c-0.573,0.609-1.529,1.213-2.867,1.812c-0.104-0.167-0.273-0.326-0.508-0.477
		c0.719-0.183,1.346-0.427,1.883-0.734c0.401-0.198,0.752-0.44,1.055-0.727h-1.219c-0.271,0-0.542,0.011-0.812,0.031l0.125-1.883
		c0.276,0.021,0.549,0.031,0.82,0.031h1.523v-0.781h-1.688c-0.292,0-0.581,0.011-0.867,0.031c0.021-0.088,0.031-0.182,0.031-0.281
		C220.714,70.844,220.704,70.75,220.683,70.651z M223.238,73.276v-0.805h-1.805l-0.062,0.805H223.238z M224.55,68.409
		c0.224,0.104,0.477,0.175,0.758,0.211c-0.13,0.115-0.297,0.302-0.5,0.562c-0.011,0.016-0.019,0.026-0.023,0.031h1.523
		c0.224,0,0.463-0.01,0.719-0.031c-0.021,0.089-0.031,0.175-0.031,0.258c0,0.104,0.01,0.198,0.031,0.281
		c-0.177-0.021-0.417-0.031-0.719-0.031h-0.602l0.352,0.719c-0.229,0.026-0.438,0.065-0.625,0.117
		c-0.094-0.333-0.206-0.612-0.336-0.836h-0.648c-0.224,0.302-0.469,0.612-0.734,0.93c-0.188-0.135-0.396-0.227-0.625-0.273
		c0.312-0.213,0.62-0.526,0.922-0.938C224.162,69.227,224.342,68.894,224.55,68.409z M223.832,71.183v0.781h1.656v-0.781H223.832z"
		/>
	<path d="M235.359,75.034h-0.704v-2.575c0-0.728-0.208-1.095-0.896-1.095c-0.4,0-1.104,0.256-1.104,1.391v2.279h-0.704v-4.182h0.664
		v0.592h0.016c0.152-0.224,0.544-0.712,1.263-0.712c0.648,0,1.463,0.264,1.463,1.456V75.034z"/>
	<path d="M241.756,71.933c0.135,0.125,0.32,0.24,0.555,0.344c-0.594,1.047-1.081,2.047-1.461,3c-0.261-0.183-0.49-0.317-0.688-0.406
		C240.678,74.245,241.209,73.266,241.756,71.933z M241.1,69.159c0.292,0.651,0.664,1.222,1.117,1.711
		c-0.219,0.031-0.456,0.128-0.711,0.289c-0.328-0.719-0.683-1.292-1.062-1.719C240.662,69.394,240.881,69.3,241.1,69.159z
		 M244.1,71.034c0.245,0.094,0.505,0.164,0.781,0.211c-0.058,0.156-0.089,0.326-0.094,0.508c0,0.578,0.073,1.068,0.219,1.469
		c0.146,0.401,0.364,0.732,0.656,0.992c0.385,0.38,0.979,0.703,1.781,0.969c-0.271,0.146-0.49,0.364-0.656,0.656
		c-0.537-0.287-0.992-0.654-1.367-1.102c-0.38-0.422-0.695-0.979-0.945-1.672c-0.151,0.589-0.401,1.086-0.75,1.492
		c-0.396,0.479-0.961,0.927-1.695,1.344c-0.136-0.261-0.341-0.469-0.617-0.625c0.823-0.24,1.419-0.531,1.789-0.875
		c0.364-0.317,0.614-0.75,0.75-1.297c0.12-0.479,0.18-0.93,0.18-1.352C244.131,71.514,244.12,71.274,244.1,71.034z M243.787,68.44
		c0.25,0.12,0.528,0.203,0.836,0.25c-0.146,0.183-0.341,0.503-0.586,0.961c-0.062,0.141-0.125,0.279-0.188,0.414h2.562
		c0.25,0,0.489-0.01,0.719-0.031c-0.339,0.708-0.591,1.375-0.758,2c-0.255-0.073-0.505-0.117-0.75-0.133
		c0.245-0.438,0.435-0.885,0.57-1.344H243.6c-0.255,0.521-0.537,1.055-0.844,1.602c-0.208-0.177-0.451-0.292-0.727-0.344
		c0.38-0.375,0.75-0.919,1.109-1.633C243.321,69.87,243.537,69.29,243.787,68.44z"/>
</g>
<line class="st3" x1="193.269" y1="45.538" x2="216.942" y2="68.914"/>
<line class="st3" x1="428.321" y1="45.538" x2="443.488" y2="68.914"/>
<g>
	<path d="M436.734,21.337c0.188,0.058,0.417,0.089,0.688,0.094c-0.067,0.125-0.102,0.294-0.102,0.508v2h0.344
		c0.255,0,0.528-0.01,0.82-0.031c-0.021,0.099-0.031,0.193-0.031,0.281c0,0.115,0.011,0.219,0.031,0.312
		c-0.192-0.021-0.466-0.031-0.82-0.031h-0.344v2.648c0.396-0.083,0.773-0.174,1.133-0.273c-0.021,0.287-0.031,0.482-0.031,0.586
		c-1.953,0.349-3.206,0.622-3.758,0.82c-0.011-0.193-0.07-0.412-0.18-0.656c0.281-0.036,0.56-0.073,0.836-0.109v-4.055
		c0-0.192-0.021-0.388-0.062-0.586c0.192,0.058,0.422,0.089,0.688,0.094c-0.058,0.125-0.086,0.289-0.086,0.492v3.961
		c0.317-0.047,0.63-0.102,0.938-0.164v-5.289C436.796,21.736,436.776,21.536,436.734,21.337z M438.734,21.275
		c0.229,0.042,0.458,0.062,0.688,0.062c-0.047,0.104-0.07,0.219-0.07,0.344v2.898c0.63-0.391,1.216-0.854,1.758-1.391
		c0.099,0.214,0.263,0.433,0.492,0.656c-0.141,0.052-0.344,0.164-0.609,0.336c-0.411,0.292-0.958,0.609-1.641,0.953v2.461
		c0,0.188,0.073,0.281,0.219,0.281h0.945c0.208,0,0.356-0.067,0.445-0.203c0.099-0.114,0.148-0.424,0.148-0.93
		c0.125,0.177,0.32,0.305,0.586,0.383c-0.052,0.453-0.133,0.771-0.242,0.953c-0.141,0.234-0.403,0.352-0.789,0.352h-1.312
		c-0.364,0-0.55-0.136-0.555-0.406v-6.18C438.796,21.658,438.776,21.468,438.734,21.275z"/>
	<path d="M444.078,24.712c0.136,0.125,0.32,0.24,0.555,0.344c-0.594,1.047-1.081,2.047-1.461,3
		c-0.261-0.183-0.489-0.317-0.688-0.406C443,27.025,443.531,26.046,444.078,24.712z M443.421,21.939
		c0.292,0.651,0.664,1.222,1.117,1.711c-0.219,0.031-0.456,0.128-0.711,0.289c-0.328-0.719-0.683-1.292-1.062-1.719
		C442.984,22.173,443.203,22.08,443.421,21.939z M446.421,23.814c0.245,0.094,0.505,0.164,0.781,0.211
		c-0.058,0.156-0.089,0.326-0.094,0.508c0,0.578,0.073,1.068,0.219,1.469c0.146,0.401,0.364,0.732,0.656,0.992
		c0.386,0.38,0.979,0.703,1.781,0.969c-0.271,0.146-0.489,0.364-0.656,0.656c-0.536-0.287-0.992-0.654-1.367-1.102
		c-0.38-0.422-0.695-0.979-0.945-1.672c-0.151,0.589-0.401,1.086-0.75,1.492c-0.396,0.479-0.961,0.927-1.695,1.344
		c-0.136-0.261-0.341-0.469-0.617-0.625c0.823-0.24,1.419-0.531,1.789-0.875c0.364-0.317,0.614-0.75,0.75-1.297
		c0.12-0.479,0.18-0.93,0.18-1.352C446.453,24.293,446.442,24.054,446.421,23.814z M446.109,21.22c0.25,0.12,0.528,0.203,0.836,0.25
		c-0.146,0.183-0.341,0.503-0.586,0.961c-0.062,0.141-0.125,0.279-0.188,0.414h2.562c0.25,0,0.489-0.01,0.719-0.031
		c-0.339,0.708-0.591,1.375-0.758,2c-0.255-0.073-0.505-0.117-0.75-0.133c0.245-0.438,0.435-0.885,0.57-1.344h-2.594
		c-0.255,0.521-0.536,1.055-0.844,1.602c-0.208-0.177-0.45-0.292-0.727-0.344c0.38-0.375,0.75-0.919,1.109-1.633
		C445.643,22.65,445.859,22.069,446.109,21.22z"/>
</g>
<g>
	<path d="M197.465,21.189c0.229,0.073,0.497,0.112,0.805,0.117c-0.062,0.151-0.094,0.352-0.094,0.602v1.773h2
		c0.276,0,0.57-0.01,0.883-0.031c-0.021,0.115-0.031,0.219-0.031,0.312c0,0.125,0.01,0.229,0.031,0.312
		c-0.208-0.016-0.503-0.023-0.883-0.023h-2v3.281h2.539c0.338,0,0.682-0.021,1.031-0.062c-0.021,0.12-0.031,0.245-0.031,0.375
		c0,0.109,0.01,0.224,0.031,0.344c-0.349-0.042-0.693-0.062-1.031-0.062h-5.195c-0.339,0-0.683,0.021-1.031,0.062
		c0.021-0.12,0.031-0.234,0.031-0.344c0-0.13-0.011-0.255-0.031-0.375c0.349,0.042,0.692,0.062,1.031,0.062h2v-5.625
		C197.52,21.668,197.501,21.429,197.465,21.189z"/>
	<path d="M202.715,24.275c0.349,0.042,0.703,0.062,1.062,0.062h4.688c0.354,0,0.706-0.021,1.055-0.062
		c-0.021,0.13-0.031,0.255-0.031,0.375c0,0.13,0.01,0.255,0.031,0.375c-0.349-0.042-0.701-0.062-1.055-0.062h-4.688
		c-0.359,0-0.714,0.021-1.062,0.062c0.021-0.12,0.031-0.245,0.031-0.375C202.746,24.53,202.735,24.405,202.715,24.275z"/>
	<path d="M212.027,24.712c0.135,0.125,0.32,0.24,0.555,0.344c-0.594,1.047-1.081,2.047-1.461,3c-0.261-0.183-0.49-0.317-0.688-0.406
		C210.949,27.025,211.48,26.046,212.027,24.712z M211.371,21.939c0.292,0.651,0.664,1.222,1.117,1.711
		c-0.219,0.031-0.456,0.128-0.711,0.289c-0.328-0.719-0.683-1.292-1.062-1.719C210.934,22.173,211.152,22.08,211.371,21.939z
		 M214.371,23.814c0.245,0.094,0.505,0.164,0.781,0.211c-0.058,0.156-0.089,0.326-0.094,0.508c0,0.578,0.073,1.068,0.219,1.469
		c0.146,0.401,0.364,0.732,0.656,0.992c0.385,0.38,0.979,0.703,1.781,0.969c-0.271,0.146-0.49,0.364-0.656,0.656
		c-0.537-0.287-0.992-0.654-1.367-1.102c-0.38-0.422-0.695-0.979-0.945-1.672c-0.151,0.589-0.401,1.086-0.75,1.492
		c-0.396,0.479-0.961,0.927-1.695,1.344c-0.136-0.261-0.341-0.469-0.617-0.625c0.823-0.24,1.419-0.531,1.789-0.875
		c0.364-0.317,0.614-0.75,0.75-1.297c0.12-0.479,0.18-0.93,0.18-1.352C214.402,24.293,214.392,24.054,214.371,23.814z
		 M214.059,21.22c0.25,0.12,0.528,0.203,0.836,0.25c-0.146,0.183-0.341,0.503-0.586,0.961c-0.062,0.141-0.125,0.279-0.188,0.414
		h2.562c0.25,0,0.489-0.01,0.719-0.031c-0.339,0.708-0.591,1.375-0.758,2c-0.255-0.073-0.505-0.117-0.75-0.133
		c0.245-0.438,0.435-0.885,0.57-1.344h-2.594c-0.255,0.521-0.537,1.055-0.844,1.602c-0.208-0.177-0.451-0.292-0.727-0.344
		c0.38-0.375,0.75-0.919,1.109-1.633C213.592,22.65,213.809,22.069,214.059,21.22z"/>
</g>
<line class="st4" x1="189.113" y1="50.282" x2="189.113" y2="220.934"/>
<line class="st4" x1="425.022" y1="50.989" x2="425.022" y2="221.641"/>
<polyline class="st2" points="480.878,104.101 404.69,104.101 404.69,121.235 "/>
<polyline class="st2" points="405.341,121.809 246.456,121.809 246.456,104.092 87.572,104.092 "/>
<polyline class="st2" points="246.101,206.848 246.456,206.809 246.456,189.092 166.101,188.311 "/>
<polyline class="st2" points="481.057,146.613 324.716,146.613 324.716,164.329 87.572,164.329 "/>
<polyline class="st2" points="481.057,189.132 324.536,189.132 324.536,206.848 245.829,206.848 "/>
<polyline class="st2" points="167.036,188.804 167.036,188.804 167.036,206.837 88.329,206.837 "/>
<g>
	<path d="M437.787,161.01c-2.143,0-2.799-1.783-2.799-3.022s0.656-3.022,2.799-3.022s2.799,1.783,2.799,3.022
		S439.929,161.01,437.787,161.01z M437.787,155.652c-1.247,0-1.999,0.983-1.999,2.335c0,1.351,0.752,2.334,1.999,2.334
		s1.999-0.983,1.999-2.334C439.786,156.636,439.034,155.652,437.787,155.652z"/>
	<path d="M445.313,155.116h0.752v5.741h-0.871l-2.919-4.638h-0.016v4.638h-0.752v-5.741h0.92l2.87,4.638h0.016V155.116z"/>
</g>
<g>
	<path d="M437.787,203.746c-2.143,0-2.799-1.783-2.799-3.022s0.656-3.022,2.799-3.022s2.799,1.783,2.799,3.022
		S439.929,203.746,437.787,203.746z M437.787,198.389c-1.247,0-1.999,0.983-1.999,2.335c0,1.351,0.752,2.334,1.999,2.334
		s1.999-0.983,1.999-2.334C439.786,199.372,439.034,198.389,437.787,198.389z"/>
	<path d="M445.313,197.853h0.752v5.741h-0.871l-2.919-4.638h-0.016v4.638h-0.752v-5.741h0.92l2.87,4.638h0.016V197.853z"/>
</g>
<g>
	<path d="M202.734,157.753c-2.143,0-2.798-1.783-2.798-3.022s0.655-3.022,2.798-3.022c2.143,0,2.798,1.783,2.798,3.022
		S204.877,157.753,202.734,157.753z M202.734,152.396c-1.248,0-1.999,0.983-1.999,2.335c0,1.351,0.751,2.334,1.999,2.334
		c1.247,0,1.999-0.983,1.999-2.334C204.733,153.379,203.981,152.396,202.734,152.396z"/>
	<path d="M207.312,157.601h-0.776v-5.741h3.974v0.688h-3.198v1.759h2.814v0.688h-2.814V157.601z"/>
	<path d="M212.199,157.601h-0.776v-5.741h3.974v0.688h-3.198v1.759h2.814v0.688h-2.814V157.601z"/>
</g>
<g>
	<path d="M202.51,203.746c-2.143,0-2.798-1.783-2.798-3.022s0.655-3.022,2.798-3.022c2.143,0,2.798,1.783,2.798,3.022
		S204.653,203.746,202.51,203.746z M202.51,198.389c-1.248,0-1.999,0.983-1.999,2.335c0,1.351,0.751,2.334,1.999,2.334
		c1.247,0,1.999-0.983,1.999-2.334C204.509,199.372,203.757,198.389,202.51,198.389z"/>
	<path d="M210.038,197.853h0.751v5.741h-0.872L207,198.956h-0.016v4.638h-0.751v-5.741h0.919l2.87,4.638h0.016V197.853z"/>
</g>
<g>
	<path d="M73.926,107.258c-2.143,0-2.798-1.783-2.798-3.022s0.655-3.022,2.798-3.022c2.143,0,2.798,1.783,2.798,3.022
		S76.068,107.258,73.926,107.258z M73.926,101.901c-1.248,0-1.999,0.983-1.999,2.334c0,1.352,0.751,2.335,1.999,2.335
		c1.247,0,1.999-0.983,1.999-2.335C75.925,102.884,75.173,101.901,73.926,101.901z"/>
	<path d="M81.453,101.365h0.751v5.741h-0.872l-2.918-4.637h-0.016v4.637h-0.752v-5.741h0.92l2.87,4.637h0.016V101.365z"/>
</g>
<g>
	<path d="M70.535,122.238c-2.143,0-2.798-1.783-2.798-3.022s0.655-3.022,2.798-3.022c2.143,0,2.798,1.783,2.798,3.022
		S72.678,122.238,70.535,122.238z M70.535,116.881c-1.248,0-1.999,0.983-1.999,2.334c0,1.352,0.751,2.335,1.999,2.335
		c1.247,0,1.999-0.983,1.999-2.335C72.534,117.865,71.782,116.881,70.535,116.881z"/>
	<path d="M75.112,122.086h-0.776v-5.741h3.974v0.688h-3.198v1.759h2.814v0.688h-2.814V122.086z"/>
	<path d="M80,122.086h-0.776v-5.741h3.974v0.688H80v1.759h2.814v0.688H80V122.086z"/>
</g>
<g>
	<path d="M73.926,151.318c-2.143,0-2.798-1.783-2.798-3.022s0.655-3.022,2.798-3.022c2.143,0,2.798,1.783,2.798,3.022
		S76.068,151.318,73.926,151.318z M73.926,145.961c-1.248,0-1.999,0.983-1.999,2.335c0,1.351,0.751,2.334,1.999,2.334
		c1.247,0,1.999-0.983,1.999-2.334C75.925,146.944,75.173,145.961,73.926,145.961z"/>
	<path d="M81.453,145.425h0.751v5.741h-0.872l-2.918-4.638h-0.016v4.638h-0.752v-5.741h0.92l2.87,4.638h0.016V145.425z"/>
</g>
<g>
	<path d="M70.535,166.299c-2.143,0-2.798-1.783-2.798-3.022s0.655-3.022,2.798-3.022c2.143,0,2.798,1.783,2.798,3.022
		S72.678,166.299,70.535,166.299z M70.535,160.941c-1.248,0-1.999,0.983-1.999,2.335c0,1.351,0.751,2.334,1.999,2.334
		c1.247,0,1.999-0.983,1.999-2.334C72.534,161.925,71.782,160.941,70.535,160.941z"/>
	<path d="M75.112,166.146h-0.776v-5.741h3.974v0.688h-3.198v1.76h2.814v0.688h-2.814V166.146z"/>
	<path d="M80,166.146h-0.776v-5.741h3.974v0.688H80v1.76h2.814v0.688H80V166.146z"/>
</g>
<g>
	<path d="M73.926,194.057c-2.143,0-2.798-1.783-2.798-3.022s0.655-3.022,2.798-3.022c2.143,0,2.798,1.783,2.798,3.022
		S76.068,194.057,73.926,194.057z M73.926,188.699c-1.248,0-1.999,0.983-1.999,2.335c0,1.351,0.751,2.334,1.999,2.334
		c1.247,0,1.999-0.983,1.999-2.334C75.925,189.683,75.173,188.699,73.926,188.699z"/>
	<path d="M81.453,188.163h0.751v5.741h-0.872l-2.918-4.638h-0.016v4.638h-0.752v-5.741h0.92l2.87,4.638h0.016V188.163z"/>
</g>
<g>
	<path d="M70.535,209.037c-2.143,0-2.798-1.783-2.798-3.022s0.655-3.022,2.798-3.022c2.143,0,2.798,1.783,2.798,3.022
		S72.678,209.037,70.535,209.037z M70.535,203.68c-1.248,0-1.999,0.983-1.999,2.335c0,1.351,0.751,2.334,1.999,2.334
		c1.247,0,1.999-0.983,1.999-2.334C72.534,204.663,71.782,203.68,70.535,203.68z"/>
	<path d="M75.112,208.885h-0.776v-5.741h3.974v0.688h-3.198v1.76h2.814v0.688h-2.814V208.885z"/>
	<path d="M80,208.885h-0.776v-5.741h3.974v0.688H80v1.76h2.814v0.688H80V208.885z"/>
</g>
<g>
	<path d="M32.537,115.037h-0.775v-5.741h2.654c0.944,0,1.887,0.328,1.887,1.543c0,0.848-0.432,1.159-0.799,1.375
		c0.328,0.136,0.655,0.28,0.688,1.079l0.048,1.04c0.008,0.32,0.048,0.44,0.288,0.576v0.128h-0.952
		c-0.112-0.352-0.136-1.223-0.136-1.439c0-0.472-0.096-1.023-1.023-1.023h-1.879V115.037z M32.537,111.91h1.799
		c0.567,0,1.167-0.144,1.167-0.991c0-0.888-0.648-0.959-1.032-0.959h-1.935V111.91z"/>
	<path d="M39.056,115.188c-1.615,0-1.927-1.719-1.927-2.886s0.312-2.887,1.927-2.887s1.927,1.719,1.927,2.887
		S40.671,115.188,39.056,115.188z M39.056,110.047c-0.808,0-1.175,0.848-1.175,2.255s0.368,2.254,1.175,2.254
		s1.175-0.847,1.175-2.254S39.864,110.047,39.056,110.047z"/>
	<path d="M43.504,115.188c-1.615,0-1.927-1.719-1.927-2.886s0.312-2.887,1.927-2.887s1.927,1.719,1.927,2.887
		S45.12,115.188,43.504,115.188z M43.504,110.047c-0.808,0-1.175,0.848-1.175,2.255s0.368,2.254,1.175,2.254
		s1.175-0.847,1.175-2.254S44.312,110.047,43.504,110.047z"/>
	<path d="M47.952,115.188c-1.615,0-1.927-1.719-1.927-2.886s0.312-2.887,1.927-2.887c1.615,0,1.927,1.719,1.927,2.887
		S49.567,115.188,47.952,115.188z M47.952,110.047c-0.808,0-1.175,0.848-1.175,2.255s0.368,2.254,1.175,2.254
		s1.175-0.847,1.175-2.254S48.76,110.047,47.952,110.047z"/>
</g>
<g>
	<path d="M32.837,159.977h-0.775v-5.741h2.655c0.943,0,1.887,0.328,1.887,1.544c0,0.847-0.432,1.159-0.8,1.375
		c0.328,0.136,0.656,0.279,0.688,1.079l0.048,1.039c0.008,0.32,0.048,0.44,0.288,0.576v0.128h-0.951
		c-0.112-0.352-0.136-1.224-0.136-1.439c0-0.472-0.096-1.023-1.023-1.023h-1.879V159.977z M32.837,156.851h1.799
		c0.567,0,1.167-0.145,1.167-0.992c0-0.887-0.647-0.959-1.031-0.959h-1.935V156.851z"/>
	<path d="M39.356,160.129c-1.615,0-1.927-1.72-1.927-2.887s0.312-2.887,1.927-2.887c1.615,0,1.927,1.72,1.927,2.887
		S40.972,160.129,39.356,160.129z M39.356,154.987c-0.808,0-1.175,0.848-1.175,2.255s0.368,2.255,1.175,2.255
		s1.175-0.848,1.175-2.255S40.164,154.987,39.356,154.987z"/>
	<path d="M43.804,160.129c-1.615,0-1.927-1.72-1.927-2.887s0.312-2.887,1.927-2.887s1.927,1.72,1.927,2.887
		S45.419,160.129,43.804,160.129z M43.804,154.987c-0.808,0-1.175,0.848-1.175,2.255s0.368,2.255,1.175,2.255
		s1.175-0.848,1.175-2.255S44.612,154.987,43.804,154.987z"/>
	<path d="M48.3,159.977h-0.752v-3.99h-1.311v-0.56c0.912-0.063,1.287-0.151,1.511-1.071H48.3V159.977z"/>
</g>
<g>
	<path d="M32.837,203.154h-0.775v-5.741h2.655c0.943,0,1.887,0.328,1.887,1.544c0,0.847-0.432,1.159-0.8,1.375
		c0.328,0.136,0.656,0.279,0.688,1.079l0.048,1.039c0.008,0.32,0.048,0.44,0.288,0.576v0.128h-0.951
		c-0.112-0.352-0.136-1.224-0.136-1.439c0-0.472-0.096-1.023-1.023-1.023h-1.879V203.154z M32.837,200.028h1.799
		c0.567,0,1.167-0.145,1.167-0.992c0-0.887-0.647-0.959-1.031-0.959h-1.935V200.028z"/>
	<path d="M39.356,203.307c-1.615,0-1.927-1.72-1.927-2.887s0.312-2.887,1.927-2.887c1.615,0,1.927,1.72,1.927,2.887
		S40.972,203.307,39.356,203.307z M39.356,198.165c-0.808,0-1.175,0.848-1.175,2.255s0.368,2.255,1.175,2.255
		s1.175-0.848,1.175-2.255S40.164,198.165,39.356,198.165z"/>
	<path d="M43.804,203.307c-1.615,0-1.927-1.72-1.927-2.887s0.312-2.887,1.927-2.887s1.927,1.72,1.927,2.887
		S45.419,203.307,43.804,203.307z M43.804,198.165c-0.808,0-1.175,0.848-1.175,2.255s0.368,2.255,1.175,2.255
		s1.175-0.848,1.175-2.255S44.612,198.165,43.804,198.165z"/>
	<path d="M48.3,203.154h-0.752v-3.99h-1.311v-0.56c0.912-0.063,1.287-0.151,1.511-1.071H48.3V203.154z"/>
</g>
<g>
	<path d="M8.042,136.305c0.12,0.021,0.245,0.031,0.375,0.031h0.656v-1c0-0.317-0.021-0.63-0.062-0.938
		c0.192,0.016,0.432,0.023,0.719,0.023c-0.068,0.151-0.102,0.341-0.102,0.57v1.344h0.477c0.12,0,0.245-0.011,0.375-0.031
		c-0.021,0.089-0.031,0.18-0.031,0.273c0,0.109,0.01,0.214,0.031,0.312c-0.13-0.021-0.255-0.031-0.375-0.031H9.628v1.016
		c0.151-0.036,0.278-0.091,0.383-0.164c0.135,0.312,0.32,0.636,0.555,0.969c-0.151,0.031-0.294,0.102-0.43,0.211
		c-0.151-0.339-0.32-0.638-0.508-0.898v2.688c0,0.359,0.023,0.722,0.07,1.086c-0.12-0.016-0.234-0.023-0.344-0.023
		c-0.12,0-0.234,0.008-0.344,0.023c0.042-0.364,0.062-0.727,0.062-1.086v-2.688c-0.255,0.761-0.56,1.466-0.914,2.117
		c-0.094-0.245-0.227-0.442-0.398-0.594c0.297-0.401,0.544-0.864,0.742-1.391c0.161-0.38,0.302-0.802,0.422-1.266H8.417
		c-0.13,0-0.255,0.011-0.375,0.031c0.021-0.099,0.031-0.203,0.031-0.312C8.074,136.484,8.063,136.394,8.042,136.305z
		 M10.386,135.305c0.271,0.042,0.539,0.062,0.805,0.062h0.406v-0.406c0-0.198-0.021-0.396-0.062-0.594
		c0.192,0.052,0.422,0.081,0.688,0.086c-0.058,0.13-0.086,0.3-0.086,0.508v0.406h0.875v-0.406c0-0.198-0.023-0.396-0.07-0.594
		c0.192,0.052,0.422,0.081,0.688,0.086c-0.062,0.13-0.094,0.3-0.094,0.508v0.406h0.602c0.266,0,0.534-0.021,0.805-0.062
		c-0.021,0.099-0.031,0.203-0.031,0.312c0,0.089,0.01,0.18,0.031,0.273c-0.271-0.042-0.539-0.062-0.805-0.062h-0.602v0.82
		c0.26-0.005,0.523-0.016,0.789-0.031c-0.026,0.151-0.039,0.308-0.039,0.469v1.461c0,0.188,0.013,0.375,0.039,0.562
		c-0.308-0.016-0.609-0.023-0.906-0.023h-0.672c-0.021,0.192-0.05,0.37-0.086,0.531h1.477c0.266,0,0.534-0.023,0.805-0.07
		c-0.021,0.109-0.031,0.214-0.031,0.312s0.01,0.192,0.031,0.281c-0.271-0.036-0.539-0.055-0.805-0.055h-1.18
		c0.224,0.308,0.489,0.531,0.797,0.672c0.281,0.146,0.721,0.263,1.32,0.352c-0.214,0.188-0.362,0.406-0.445,0.656
		c-0.599-0.198-1.05-0.417-1.352-0.656c-0.308-0.214-0.56-0.547-0.758-1c-0.099,0.271-0.219,0.497-0.359,0.68
		c-0.302,0.396-0.873,0.731-1.711,1.008c-0.109-0.203-0.269-0.378-0.477-0.523c0.802-0.104,1.364-0.328,1.688-0.672
		c0.125-0.136,0.229-0.308,0.312-0.516h-0.961c-0.276,0-0.55,0.019-0.82,0.055c0.021-0.089,0.031-0.183,0.031-0.281
		s-0.011-0.203-0.031-0.312c0.271,0.047,0.544,0.07,0.82,0.07h1.125c0.042-0.167,0.075-0.344,0.102-0.531h-0.477
		c-0.308,0-0.612,0.008-0.914,0.023c0.021-0.188,0.031-0.375,0.031-0.562v-1.461c-0.021-0.161-0.031-0.317-0.031-0.469
		c0.25,0.016,0.5,0.026,0.75,0.031v-0.82h-0.406c-0.266,0-0.534,0.021-0.805,0.062c0.021-0.094,0.031-0.185,0.031-0.273
		C10.417,135.508,10.407,135.403,10.386,135.305z M11.417,137.648h2.344v-0.562h-2.344V137.648z M13.761,138.648v-0.625h-2.344
		v0.625H13.761z M12.136,136.648h0.875v-0.82h-0.875V136.648z"/>
	<path d="M15.847,135.859c0.302,0.047,0.606,0.07,0.914,0.07h2.805c-0.037-0.521-0.065-1.052-0.086-1.594
		c0.302,0.058,0.549,0.086,0.742,0.086c-0.058,0.297-0.086,0.591-0.086,0.883c0,0.214,0.005,0.422,0.016,0.625h1.695
		c0.302,0,0.606-0.023,0.914-0.07c-0.021,0.12-0.031,0.234-0.031,0.344s0.01,0.214,0.031,0.312
		c-0.308-0.042-0.612-0.062-0.914-0.062h-1.664c0.052,0.75,0.156,1.469,0.312,2.156c0.198,0.859,0.484,1.513,0.859,1.961
		c0.307,0.302,0.526,0.453,0.656,0.453c0.088,0,0.192-0.409,0.312-1.227c0.156,0.192,0.362,0.339,0.617,0.438
		c-0.115,0.594-0.222,0.992-0.32,1.195c-0.125,0.245-0.269,0.367-0.43,0.367c-0.224,0-0.451-0.078-0.68-0.234
		c-0.63-0.433-1.094-1.133-1.391-2.102c-0.151-0.464-0.284-1.125-0.398-1.984c-0.042-0.333-0.078-0.675-0.109-1.023h-2.852
		c-0.308,0-0.612,0.021-0.914,0.062c0.021-0.099,0.031-0.203,0.031-0.312S15.868,135.979,15.847,135.859z M16.253,137.891
		c0.13,0.026,0.255,0.039,0.375,0.039h2.312c0.13,0,0.258-0.013,0.383-0.039c-0.026,0.099-0.039,0.192-0.039,0.281
		c0,0.109,0.013,0.214,0.039,0.312c-0.125-0.021-0.253-0.031-0.383-0.031h-0.805v1.898c0.458-0.12,0.896-0.25,1.312-0.391
		c-0.021,0.286-0.031,0.481-0.031,0.586c-1.698,0.386-2.784,0.688-3.258,0.906c-0.011-0.188-0.073-0.406-0.188-0.656
		c0.557-0.083,1.088-0.185,1.594-0.305v-2.039h-0.938c-0.12,0-0.245,0.011-0.375,0.031c0.021-0.099,0.031-0.203,0.031-0.312
		C16.285,138.083,16.274,137.989,16.253,137.891z M21.222,134.547c0.192,0.261,0.477,0.523,0.852,0.789
		c-0.183,0.094-0.362,0.229-0.539,0.406c-0.208-0.344-0.487-0.638-0.836-0.883C20.896,134.786,21.071,134.683,21.222,134.547z"/>
	<path d="M24.991,139.29l-0.6,1.671h-0.8l2.159-5.741h0.88l2.079,5.741h-0.847l-0.568-1.671H24.991z M27.014,138.603l-0.848-2.527
		H26.15l-0.919,2.527H27.014z"/>
</g>
<g>
	<path d="M8.042,181.245c0.12,0.021,0.245,0.031,0.375,0.031h0.656v-1c0-0.317-0.021-0.63-0.062-0.938
		c0.192,0.016,0.432,0.023,0.719,0.023c-0.068,0.151-0.102,0.341-0.102,0.57v1.344h0.477c0.12,0,0.245-0.011,0.375-0.031
		c-0.021,0.089-0.031,0.18-0.031,0.273c0,0.109,0.01,0.214,0.031,0.312c-0.13-0.021-0.255-0.031-0.375-0.031H9.628v1.016
		c0.151-0.036,0.278-0.091,0.383-0.164c0.135,0.312,0.32,0.636,0.555,0.969c-0.151,0.031-0.294,0.102-0.43,0.211
		c-0.151-0.339-0.32-0.638-0.508-0.898v2.688c0,0.359,0.023,0.722,0.07,1.086c-0.12-0.016-0.234-0.023-0.344-0.023
		c-0.12,0-0.234,0.008-0.344,0.023c0.042-0.364,0.062-0.727,0.062-1.086v-2.688c-0.255,0.761-0.56,1.466-0.914,2.117
		c-0.094-0.245-0.227-0.442-0.398-0.594c0.297-0.401,0.544-0.864,0.742-1.391c0.161-0.38,0.302-0.802,0.422-1.266H8.417
		c-0.13,0-0.255,0.011-0.375,0.031c0.021-0.099,0.031-0.203,0.031-0.312C8.074,181.425,8.063,181.334,8.042,181.245z
		 M10.386,180.245c0.271,0.042,0.539,0.062,0.805,0.062h0.406v-0.406c0-0.198-0.021-0.396-0.062-0.594
		c0.192,0.052,0.422,0.081,0.688,0.086c-0.058,0.13-0.086,0.3-0.086,0.508v0.406h0.875v-0.406c0-0.198-0.023-0.396-0.07-0.594
		c0.192,0.052,0.422,0.081,0.688,0.086c-0.062,0.13-0.094,0.3-0.094,0.508v0.406h0.602c0.266,0,0.534-0.021,0.805-0.062
		c-0.021,0.099-0.031,0.203-0.031,0.312c0,0.089,0.01,0.18,0.031,0.273c-0.271-0.042-0.539-0.062-0.805-0.062h-0.602v0.82
		c0.26-0.005,0.523-0.016,0.789-0.031c-0.026,0.151-0.039,0.308-0.039,0.469v1.461c0,0.188,0.013,0.375,0.039,0.562
		c-0.308-0.016-0.609-0.023-0.906-0.023h-0.672c-0.021,0.192-0.05,0.37-0.086,0.531h1.477c0.266,0,0.534-0.023,0.805-0.07
		c-0.021,0.109-0.031,0.214-0.031,0.312s0.01,0.192,0.031,0.281c-0.271-0.036-0.539-0.055-0.805-0.055h-1.18
		c0.224,0.308,0.489,0.531,0.797,0.672c0.281,0.146,0.721,0.263,1.32,0.352c-0.214,0.188-0.362,0.406-0.445,0.656
		c-0.599-0.198-1.05-0.417-1.352-0.656c-0.308-0.214-0.56-0.547-0.758-1c-0.099,0.271-0.219,0.497-0.359,0.68
		c-0.302,0.396-0.873,0.731-1.711,1.008c-0.109-0.203-0.269-0.378-0.477-0.523c0.802-0.104,1.364-0.328,1.688-0.672
		c0.125-0.136,0.229-0.308,0.312-0.516h-0.961c-0.276,0-0.55,0.019-0.82,0.055c0.021-0.089,0.031-0.183,0.031-0.281
		s-0.011-0.203-0.031-0.312c0.271,0.047,0.544,0.07,0.82,0.07h1.125c0.042-0.167,0.075-0.344,0.102-0.531h-0.477
		c-0.308,0-0.612,0.008-0.914,0.023c0.021-0.188,0.031-0.375,0.031-0.562v-1.461c-0.021-0.161-0.031-0.317-0.031-0.469
		c0.25,0.016,0.5,0.026,0.75,0.031v-0.82h-0.406c-0.266,0-0.534,0.021-0.805,0.062c0.021-0.094,0.031-0.185,0.031-0.273
		C10.417,180.448,10.407,180.344,10.386,180.245z M11.417,182.589h2.344v-0.562h-2.344V182.589z M13.761,183.589v-0.625h-2.344
		v0.625H13.761z M12.136,181.589h0.875v-0.82h-0.875V181.589z"/>
	<path d="M15.847,180.8c0.302,0.047,0.606,0.07,0.914,0.07h2.805c-0.037-0.521-0.065-1.052-0.086-1.594
		c0.302,0.058,0.549,0.086,0.742,0.086c-0.058,0.297-0.086,0.591-0.086,0.883c0,0.214,0.005,0.422,0.016,0.625h1.695
		c0.302,0,0.606-0.023,0.914-0.07c-0.021,0.12-0.031,0.234-0.031,0.344s0.01,0.214,0.031,0.312
		c-0.308-0.042-0.612-0.062-0.914-0.062h-1.664c0.052,0.75,0.156,1.469,0.312,2.156c0.198,0.859,0.484,1.513,0.859,1.961
		c0.307,0.302,0.526,0.453,0.656,0.453c0.088,0,0.192-0.409,0.312-1.227c0.156,0.192,0.362,0.339,0.617,0.438
		c-0.115,0.594-0.222,0.992-0.32,1.195c-0.125,0.245-0.269,0.367-0.43,0.367c-0.224,0-0.451-0.078-0.68-0.234
		c-0.63-0.433-1.094-1.133-1.391-2.102c-0.151-0.464-0.284-1.125-0.398-1.984c-0.042-0.333-0.078-0.675-0.109-1.023h-2.852
		c-0.308,0-0.612,0.021-0.914,0.062c0.021-0.099,0.031-0.203,0.031-0.312S15.868,180.92,15.847,180.8z M16.253,182.831
		c0.13,0.026,0.255,0.039,0.375,0.039h2.312c0.13,0,0.258-0.013,0.383-0.039c-0.026,0.099-0.039,0.192-0.039,0.281
		c0,0.109,0.013,0.214,0.039,0.312c-0.125-0.021-0.253-0.031-0.383-0.031h-0.805v1.898c0.458-0.12,0.896-0.25,1.312-0.391
		c-0.021,0.286-0.031,0.481-0.031,0.586c-1.698,0.386-2.784,0.688-3.258,0.906c-0.011-0.188-0.073-0.406-0.188-0.656
		c0.557-0.083,1.088-0.185,1.594-0.305v-2.039h-0.938c-0.12,0-0.245,0.011-0.375,0.031c0.021-0.099,0.031-0.203,0.031-0.312
		C16.285,183.023,16.274,182.93,16.253,182.831z M21.222,179.487c0.192,0.261,0.477,0.523,0.852,0.789
		c-0.183,0.094-0.362,0.229-0.539,0.406c-0.208-0.344-0.487-0.638-0.836-0.883C20.896,179.727,21.071,179.623,21.222,179.487z"/>
	<path d="M24.072,180.16h2.526c1.071,0,1.623,0.664,1.623,1.447c0,0.376-0.136,0.903-0.768,1.199c0.376,0.152,1.04,0.416,1.04,1.399
		c0,0.92-0.68,1.695-1.951,1.695h-2.471V180.16z M24.847,182.591h1.399c0.744,0,1.199-0.224,1.199-0.927
		c0-0.536-0.328-0.84-1.191-0.84h-1.407V182.591z M24.847,185.237h1.655c0.808,0,1.215-0.407,1.215-1.047
		c0-0.808-0.712-0.968-1.343-0.968h-1.527V185.237z"/>
</g>
</svg>
