<?xml version="1.0" encoding="utf-8"?>
<!-- Generator: Adobe Illustrator 28.2.0, SVG Export Plug-In . SVG Version: 6.00 Build 0)  -->
<svg version="1.1" id="レイヤー_1" xmlns="http://www.w3.org/2000/svg" xmlns:xlink="http://www.w3.org/1999/xlink" x="0px"
	 y="0px" width="483.123px" height="221.64px" viewBox="0 0 483.123 221.64" style="enable-background:new 0 0 483.123 221.64;"
	 xml:space="preserve">
<style type="text/css">
	.st0{fill:none;stroke:#9FA0A0;}
	.st1{fill:#CCCCCC;}
	.st2{fill:none;stroke:#000000;}
	.st3{fill:none;stroke:#000000;stroke-width:0.5;}
	.st4{fill:none;stroke:#000000;stroke-width:0.5;stroke-dasharray:1;}
</style>
<path class="st0" d="M434.934,146.759c0,4.971-4.03,8.999-9,8.999c-4.969,0-9-4.028-9-8.999s4.031-9,9-9
	C430.905,137.759,434.934,141.788,434.934,146.759z"/>
<path class="st0" d="M434.934,188.44c0,4.971-4.03,8.999-9,8.999c-4.969,0-9-4.028-9-8.999c0-4.971,4.031-9,9-9
	C430.905,179.439,434.934,183.469,434.934,188.44z"/>
<path class="st0" d="M198.576,164.206c0,4.971-4.03,8.999-9,8.999c-4.971,0-9-4.028-9-8.999c0-4.971,4.03-9,9-9
	C194.547,155.206,198.576,159.236,198.576,164.206z"/>
<path class="st0" d="M198.576,188.44c0,4.971-4.03,8.999-9,8.999c-4.971,0-9-4.028-9-8.999c0-4.971,4.03-9,9-9
	C194.547,179.439,198.576,183.469,198.576,188.44z"/>
<rect x="107.033" y="32.981" class="st1" width="10.63" height="18.25"/>
<rect x="185.178" y="32.981" class="st1" width="10.63" height="18.25"/>
<rect x="421.737" y="33.514" class="st1" width="10.63" height="17.717"/>
<rect x="89.317" y="33.514" class="st2" width="393.306" height="17.717"/>
<line class="st2" x1="89.317" y1="32.981" x2="89.317" y2="51.231"/>
<line class="st2" x1="107.033" y1="32.981" x2="107.033" y2="51.231"/>
<line class="st2" x1="117.663" y1="32.981" x2="117.663" y2="51.231"/>
<line class="st2" x1="482.623" y1="32.981" x2="482.623" y2="51.231"/>
<line class="st2" x1="403.964" y1="33.826" x2="403.964" y2="50.386"/>
<line class="st2" x1="421.679" y1="33.826" x2="421.679" y2="50.386"/>
<line class="st2" x1="432.309" y1="33.826" x2="432.309" y2="50.386"/>
<line class="st2" x1="246.64" y1="33.826" x2="246.64" y2="51.477"/>
<line class="st2" x1="325.302" y1="33.826" x2="325.302" y2="50.386"/>
<line class="st2" x1="167.978" y1="33.826" x2="167.978" y2="51.477"/>
<line class="st2" x1="185.695" y1="33.826" x2="185.695" y2="51.477"/>
<line class="st2" x1="196.325" y1="33.826" x2="196.325" y2="51.477"/>
<path d="M117.077,42.214c0,2.642-2.142,4.783-4.783,4.783c-2.642,0-4.783-2.142-4.783-4.783c0-2.642,2.142-4.783,4.783-4.783
	C114.935,37.431,117.077,39.573,117.077,42.214z"/>
<path d="M195.755,42.214c0,2.642-2.142,4.783-4.783,4.783c-2.642,0-4.783-2.142-4.783-4.783c0-2.642,2.142-4.783,4.783-4.783
	C193.613,37.431,195.755,39.573,195.755,42.214z"/>
<path d="M431.537,42.214c0,2.642-2.144,4.783-4.785,4.783c-2.641,0-4.783-2.142-4.783-4.783c0-2.642,2.141-4.783,4.783-4.783
	C429.393,37.431,431.537,39.573,431.537,42.214z"/>
<path class="st3" d="M89.462,33.785c0,0,0-5.458,4.831-5.458c4.832,0,31.552,0,31.552,0s2.842,1.091,2.842-4.731"/>
<path class="st3" d="M168.197,33.785c0,0,0-5.458-4.86-5.458c-4.86,0-31.736,0-31.736,0s-2.859,1.091-2.859-4.731v-11.55"/>
<g>
	<path class="st3" d="M117.951,51.573c0,0,0,2.7-0.687,2.7c-1.736,0,0.22,0-3.904,0c0,0-0.991,2.023-0.991,3.187"/>
	<path class="st3" d="M106.746,51.573c0,0,0,2.7,0.687,2.7c0.687,0,3.896,0,3.896,0s0.998,2.023,0.998,3.187
		c0,0-0.094,6.833,3.757,6.833c3.851,0,10.664,0,10.664,0s6.517-1.777,6.517,4.443"/>
</g>
<g>
	<path d="M109.74,1.876c0.307,0.042,0.611,0.062,0.914,0.062h4.68c0.302,0,0.606-0.021,0.914-0.062
		c-0.021,0.12-0.031,0.234-0.031,0.344s0.01,0.214,0.031,0.312c-0.308-0.036-0.612-0.055-0.914-0.055h-2.086v1.836h1.625
		c0.302,0,0.602-0.021,0.898-0.062c-0.021,0.12-0.031,0.234-0.031,0.344s0.01,0.214,0.031,0.312
		c-0.297-0.042-0.597-0.062-0.898-0.062h-1.625V6.97h2.43c0.302,0,0.606-0.021,0.914-0.062c-0.021,0.12-0.031,0.234-0.031,0.344
		s0.01,0.213,0.031,0.312c-0.308-0.042-0.612-0.062-0.914-0.062h-5.344c-0.297,0-0.6,0.021-0.906,0.062
		c0.021-0.1,0.031-0.203,0.031-0.312s-0.011-0.224-0.031-0.344c0.307,0.042,0.609,0.062,0.906,0.062h2.32V4.845h-1.656
		c-0.303,0-0.607,0.021-0.914,0.062c0.021-0.099,0.031-0.203,0.031-0.312s-0.011-0.224-0.031-0.344
		c0.307,0.042,0.611,0.062,0.914,0.062h1.656V2.478h-2c-0.303,0-0.607,0.019-0.914,0.055c0.021-0.099,0.031-0.203,0.031-0.312
		S109.761,1.996,109.74,1.876z M112.842,0.446c0.182,0.401,0.422,0.753,0.719,1.055c-0.214,0.026-0.443,0.112-0.688,0.258
		c-0.203-0.442-0.422-0.797-0.656-1.062C112.425,0.649,112.633,0.566,112.842,0.446z"/>
	<path d="M120.084,0.97c-0.25,0.067-0.479,0.13-0.688,0.188v1.539h0.094c0.297,0,0.588-0.023,0.875-0.07
		c-0.021,0.109-0.031,0.214-0.031,0.312c0,0.109,0.01,0.214,0.031,0.312c-0.287-0.042-0.578-0.062-0.875-0.062h-0.094v0.883
		c0.15-0.052,0.275-0.117,0.375-0.195c0.172,0.349,0.4,0.703,0.688,1.062c-0.172,0.036-0.336,0.12-0.492,0.25
		c-0.172-0.354-0.362-0.667-0.57-0.938v2.688c0,0.307,0.021,0.609,0.062,0.906c-0.109-0.016-0.225-0.023-0.344-0.023
		c-0.109,0-0.225,0.008-0.344,0.023c0.047-0.297,0.07-0.6,0.07-0.906V4.392c-0.328,0.734-0.717,1.419-1.164,2.055
		c-0.094-0.261-0.227-0.469-0.398-0.625c0.385-0.401,0.708-0.859,0.969-1.375c0.203-0.375,0.385-0.794,0.547-1.258h-0.398
		c-0.287,0-0.576,0.021-0.867,0.062c0.021-0.099,0.031-0.203,0.031-0.312c0-0.099-0.011-0.203-0.031-0.312
		c0.291,0.047,0.58,0.07,0.867,0.07h0.445V1.306c-0.511,0.141-0.878,0.247-1.102,0.32c-0.031-0.192-0.125-0.398-0.281-0.617
		c0.911-0.026,1.786-0.258,2.625-0.695c0.088,0.214,0.224,0.445,0.406,0.695C120.328,0.982,120.193,0.97,120.084,0.97z
		 M120.49,3.759c0.297,0.042,0.588,0.062,0.875,0.062h2.125c0.297,0,0.588-0.021,0.875-0.062c-0.021,0.099-0.031,0.203-0.031,0.312
		c0,0.099,0.01,0.203,0.031,0.312c-0.287-0.047-0.578-0.07-0.875-0.07h-0.781v1.039h0.57c0.286,0,0.575-0.023,0.867-0.07
		c-0.021,0.109-0.031,0.214-0.031,0.312c0,0.109,0.01,0.214,0.031,0.312c-0.292-0.042-0.581-0.062-0.867-0.062h-0.57v1.164h1.062
		c0.297,0,0.591-0.023,0.883-0.07c-0.021,0.109-0.031,0.213-0.031,0.312c0,0.109,0.01,0.213,0.031,0.312
		c-0.292-0.042-0.586-0.062-0.883-0.062h-2.773c-0.292,0-0.586,0.021-0.883,0.062c0.021-0.1,0.031-0.203,0.031-0.312
		c0-0.1-0.011-0.203-0.031-0.312c0.297,0.047,0.591,0.07,0.883,0.07h1.117V5.845h-0.586c-0.297,0-0.589,0.021-0.875,0.062
		c0.016-0.099,0.023-0.203,0.023-0.312c0-0.099-0.008-0.203-0.023-0.312c0.286,0.047,0.578,0.07,0.875,0.07h0.586V4.313h-0.75
		c-0.287,0-0.578,0.023-0.875,0.07c0.025-0.109,0.039-0.214,0.039-0.312C120.529,3.962,120.516,3.857,120.49,3.759z M120.842,0.728
		c0.338,0.021,0.682,0.031,1.031,0.031h1.18c0.349,0,0.692-0.011,1.031-0.031c-0.021,0.172-0.031,0.347-0.031,0.523v1.281
		c0,0.208,0.01,0.419,0.031,0.633c-0.339-0.021-0.683-0.031-1.031-0.031h-1.18c-0.35,0-0.693,0.011-1.031,0.031
		c0.021-0.214,0.031-0.425,0.031-0.633V1.251C120.852,1.074,120.842,0.899,120.842,0.728z M123.459,2.626V1.251h-2v1.375H123.459z"
		/>
	<path d="M129.459,0.446c0.094,0.271,0.189,0.573,0.289,0.906h2.055c0.219,0,0.438-0.013,0.656-0.039
		c-0.021,0.099-0.031,0.192-0.031,0.281c0,0.109,0.01,0.214,0.031,0.312c-0.219-0.021-0.438-0.031-0.656-0.031h-4.805v2.227
		c-0.021,0.677-0.112,1.315-0.273,1.914c-0.109,0.479-0.362,1.07-0.758,1.773c-0.183-0.183-0.401-0.287-0.656-0.312
		c0.354-0.495,0.611-1.003,0.773-1.523c0.188-0.63,0.281-1.247,0.281-1.852V2.071c0-0.25-0.019-0.503-0.055-0.758
		c0.234,0.026,0.471,0.039,0.711,0.039h2.195c-0.115-0.333-0.229-0.617-0.344-0.852C129.061,0.49,129.256,0.473,129.459,0.446z
		 M127.623,2.501c0.197,0.021,0.361,0.031,0.492,0.031h3.102c0.229,0,0.447-0.011,0.656-0.031c-0.021,0.078-0.031,0.164-0.031,0.258
		c0,0.183,0.01,0.356,0.031,0.523c-0.292,0.062-0.573,0.159-0.844,0.289c-0.198,0.109-0.516,0.325-0.953,0.648
		c0.021,0.016,0.033,0.026,0.039,0.031c-0.053,0.036-0.104,0.081-0.156,0.133h1.719c0.203,0,0.393-0.011,0.57-0.031
		c-0.225,0.558-0.394,1.086-0.508,1.586c-0.203-0.052-0.401-0.083-0.594-0.094c0.15-0.312,0.266-0.636,0.344-0.969h-1.469v2.57
		c0,0.161-0.094,0.278-0.281,0.352c-0.178,0.072-0.531,0.109-1.062,0.109c-0.011-0.245-0.084-0.464-0.219-0.656
		c0.338,0.041,0.602,0.062,0.789,0.062c0.135,0,0.205-0.05,0.211-0.148V4.876h-2.211V4.384h2.258
		c-0.312-0.312-0.628-0.586-0.945-0.82c0.13-0.099,0.244-0.203,0.344-0.312c0.271,0.239,0.555,0.477,0.852,0.711l1.266-0.953h-2.906
		c-0.172,0-0.336,0.011-0.492,0.031c0.021-0.12,0.031-0.214,0.031-0.281C127.654,2.67,127.644,2.584,127.623,2.501z"/>
	<path d="M133.529,2.103c0.302,0.042,0.602,0.062,0.898,0.062h0.344V1.009c0-0.188-0.011-0.375-0.031-0.562
		c0.224,0.036,0.463,0.055,0.719,0.055c-0.062,0.177-0.094,0.378-0.094,0.602v1.062h0.289c0.297,0,0.599-0.021,0.906-0.062
		c-0.021,0.109-0.031,0.224-0.031,0.344c0,0.099,0.01,0.203,0.031,0.312c-0.308-0.042-0.609-0.062-0.906-0.062h-0.289v1.438
		c0.385-0.151,0.75-0.32,1.094-0.508c-0.021,0.323-0.031,0.542-0.031,0.656c-0.391,0.141-0.745,0.271-1.062,0.391v2.461
		c0,0.281-0.104,0.466-0.312,0.555c-0.209,0.088-0.511,0.133-0.906,0.133c-0.053-0.276-0.167-0.506-0.344-0.688h0.508
		c0.307,0,0.461-0.104,0.461-0.312V4.899c-0.542,0.224-0.925,0.417-1.148,0.578c-0.011-0.208-0.076-0.448-0.195-0.719
		c0.463-0.114,0.911-0.247,1.344-0.398V2.696h-0.344c-0.297,0-0.597,0.021-0.898,0.062c0.021-0.109,0.031-0.214,0.031-0.312
		C133.561,2.326,133.55,2.212,133.529,2.103z M136.592,1.313c0.219,0.026,0.438,0.039,0.656,0.039h2.062
		c0.297,0,0.599-0.013,0.906-0.039c-0.021,0.297-0.031,0.589-0.031,0.875v4.633c0,0.297,0.01,0.599,0.031,0.906
		c-0.109-0.021-0.214-0.031-0.312-0.031c-0.12,0-0.234,0.01-0.344,0.031c0.021-0.281,0.031-0.555,0.031-0.82h-2.508
		c-0.25,0-0.519,0.011-0.805,0.031c0.021-0.109,0.031-0.214,0.031-0.312c0-0.104-0.011-0.195-0.031-0.273
		c0.275,0.021,0.544,0.031,0.805,0.031h2.508v-2.07h-1.938c-0.25,0-0.521,0.013-0.812,0.039c0.021-0.12,0.031-0.224,0.031-0.312
		c0-0.109-0.011-0.203-0.031-0.281c0.281,0.021,0.552,0.031,0.812,0.031h1.938V1.876h-2.344c-0.219,0-0.438,0.011-0.656,0.031
		c0.021-0.099,0.031-0.203,0.031-0.312C136.623,1.506,136.612,1.412,136.592,1.313z"/>
	<path d="M141.334,2.22c0.291,0.042,0.586,0.062,0.883,0.062h0.211V1.009c0-0.177-0.011-0.354-0.031-0.531
		c0.219,0.036,0.447,0.055,0.688,0.055c-0.058,0.167-0.086,0.356-0.086,0.57v1.18h0.023c0.275,0,0.555-0.019,0.836-0.055
		c0.01-0.073,0.016-0.146,0.016-0.219c0-0.12-0.011-0.237-0.031-0.352c0.302,0.047,0.602,0.07,0.898,0.07h0.312v-1
		c0-0.078-0.011-0.153-0.031-0.227c0.224,0.042,0.453,0.062,0.688,0.062c-0.058,0.12-0.086,0.224-0.086,0.312v0.852h1.117V0.696
		c0-0.078-0.011-0.151-0.031-0.219c0.224,0.036,0.453,0.055,0.688,0.055c-0.058,0.12-0.086,0.224-0.086,0.312v0.883h0.398
		c0.307,0,0.611-0.023,0.914-0.07c-0.021,0.114-0.031,0.231-0.031,0.352c0,0.104,0.01,0.206,0.031,0.305
		c-0.303-0.042-0.607-0.062-0.914-0.062h-0.398V3.04c0,0.083,0.008,0.164,0.023,0.242c-0.1-0.021-0.203-0.031-0.312-0.031
		c-0.1,0-0.203,0.011-0.312,0.031c0.021-0.078,0.031-0.159,0.031-0.242V2.251h-1.117v0.758c0,0.083,0.01,0.164,0.031,0.242
		c-0.109-0.021-0.217-0.031-0.32-0.031c-0.1,0-0.203,0.011-0.312,0.031c0.021-0.078,0.031-0.159,0.031-0.242V2.251h-0.312
		c-0.281,0-0.565,0.019-0.852,0.055c-0.011,0.083-0.016,0.159-0.016,0.227c0,0.109,0.01,0.214,0.031,0.312
		c-0.297-0.036-0.592-0.055-0.883-0.055h-0.023v1.281c0.312-0.125,0.614-0.263,0.906-0.414c-0.021,0.292-0.031,0.489-0.031,0.594
		c-0.328,0.114-0.62,0.219-0.875,0.312v2.539c0,0.271-0.104,0.447-0.312,0.531c-0.203,0.083-0.498,0.125-0.883,0.125
		c-0.053-0.261-0.156-0.479-0.312-0.656h0.477c0.307,0,0.461-0.104,0.461-0.312V4.782c-0.453,0.188-0.776,0.344-0.969,0.469
		c-0.011-0.188-0.07-0.406-0.18-0.656c0.406-0.089,0.789-0.195,1.148-0.32V2.79h-0.211c-0.297,0-0.592,0.019-0.883,0.055
		c0.021-0.099,0.031-0.203,0.031-0.312C141.365,2.434,141.354,2.329,141.334,2.22z M144.186,3.563
		c0.281,0.042,0.56,0.062,0.836,0.062h2.312c0.281,0,0.564-0.021,0.852-0.062c-0.047,0.271-0.07,0.544-0.07,0.82V6.97
		c0,0.275,0.023,0.549,0.07,0.82c-0.156-0.021-0.261-0.031-0.312-0.031c-0.062,0-0.178,0.01-0.344,0.031
		c0.025-0.183,0.044-0.362,0.055-0.539h-2.805c0.01,0.182,0.031,0.361,0.062,0.539c-0.172-0.021-0.289-0.031-0.352-0.031
		c-0.053,0-0.154,0.01-0.305,0.031c0.041-0.271,0.062-0.545,0.062-0.82V4.384C144.248,4.107,144.227,3.834,144.186,3.563z
		 M144.771,5.22h1.133V4.134h-1.133V5.22z M144.771,6.759h1.133V5.696h-1.133V6.759z M146.396,4.134V5.22h1.195V4.134H146.396z
		 M146.396,5.696v1.062h1.195V5.696H146.396z"/>
</g>
<g>
	<path d="M108.413,76.406c-0.217-1.008-1.056-1.191-1.607-1.191c-1.04,0-1.879,0.768-1.879,2.278c0,1.352,0.479,2.391,1.902,2.391
		c0.504,0,1.376-0.239,1.64-1.575h0.751c-0.319,2.167-2.078,2.263-2.51,2.263c-1.304,0-2.583-0.848-2.583-3.054
		c0-1.768,1.008-2.99,2.679-2.99c1.479,0,2.247,0.919,2.358,1.879H108.413z"/>
	<path d="M110.415,78.572v0.4c0,0.688,0.327,0.936,0.863,0.936c0.72,0,0.919-0.432,0.919-0.991v-4.238h0.776v4.189
		c0,1.344-0.88,1.703-1.655,1.703c-1.336,0-1.632-0.896-1.632-1.431v-0.568H110.415z"/>
	<path d="M121.246,77.178c-0.255,0.458-0.513,0.786-0.773,0.984c-0.312,0.234-0.706,0.352-1.18,0.352
		c-0.458,0-1.058-0.214-1.797-0.641c-0.386-0.219-0.656-0.362-0.812-0.43c-0.317-0.146-0.609-0.219-0.875-0.219
		c-0.354,0-0.641,0.086-0.859,0.258c-0.172,0.13-0.349,0.364-0.531,0.703l-0.562-0.266c0.255-0.458,0.513-0.786,0.773-0.984
		c0.317-0.239,0.711-0.359,1.18-0.359c0.464,0,1.06,0.214,1.789,0.641c0.38,0.224,0.651,0.37,0.812,0.438
		c0.317,0.141,0.612,0.211,0.883,0.211c0.344,0,0.628-0.086,0.852-0.258c0.177-0.136,0.356-0.37,0.539-0.703L121.246,77.178z"/>
	<path d="M122.935,79.732h2.91v0.688h-3.686v-5.741h0.775V79.732z"/>
	<path d="M127.51,78.749l-0.6,1.671h-0.8l2.159-5.741h0.88l2.078,5.741h-0.847l-0.568-1.671H127.51z M129.533,78.061l-0.848-2.526
		h-0.017l-0.919,2.526H129.533z"/>
	<path d="M131.927,74.679h2.526c1.071,0,1.623,0.664,1.623,1.447c0,0.376-0.136,0.903-0.768,1.199
		c0.376,0.152,1.039,0.416,1.039,1.399c0,0.92-0.68,1.695-1.95,1.695h-2.471V74.679z M132.702,77.109h1.399
		c0.743,0,1.199-0.224,1.199-0.928c0-0.535-0.328-0.839-1.191-0.839h-1.407V77.109z M132.702,79.756h1.655
		c0.808,0,1.215-0.407,1.215-1.047c0-0.808-0.712-0.968-1.343-0.968h-1.527V79.756z"/>
	<path d="M141.596,80.42h-4.237v-5.741h4.182v0.688h-3.406v1.76h3.143v0.688h-3.143v1.919h3.462V80.42z"/>
	<path d="M143.39,79.732h2.91v0.688h-3.686v-5.741h0.775V79.732z"/>
	<path d="M147.299,75.545c0.161,0.016,0.325,0.023,0.492,0.023h4.344c0.291,0,0.586-0.008,0.883-0.023
		c-0.443,0.969-0.987,1.786-1.633,2.453c-0.578,0.604-1.482,1.253-2.711,1.945c0.453,0.125,0.867,0.208,1.242,0.25
		c0.38,0.042,0.854,0.062,1.422,0.062c0.479,0,1.422-0.039,2.828-0.117c-0.146,0.219-0.25,0.466-0.312,0.742
		c-1.787-0.011-3.006-0.061-3.656-0.148c-0.797-0.1-1.448-0.269-1.953-0.508c-0.058-0.042-0.123-0.062-0.195-0.062
		c-0.089,0-0.328,0.281-0.719,0.844c-0.156-0.381-0.295-0.669-0.414-0.867c0.422-0.229,0.932-0.495,1.531-0.797
		c0.614-0.292,1.224-0.692,1.828-1.203c0.562-0.458,1.088-1.114,1.578-1.969h-4.062c-0.167,0-0.331,0.011-0.492,0.031
		c0.021-0.12,0.031-0.234,0.031-0.344S147.319,75.644,147.299,75.545z M150.33,73.857c0.188,0.484,0.438,0.911,0.75,1.281
		c-0.225,0.026-0.464,0.12-0.719,0.281c-0.214-0.536-0.443-0.964-0.688-1.281C149.893,74.092,150.111,73.998,150.33,73.857z"/>
	<path d="M155.393,75.318c0.208,0.021,0.455,0.031,0.742,0.031c-0.058,0.156-0.086,0.354-0.086,0.594v3.969
		c0,0.391,0.021,0.778,0.062,1.164c-0.131-0.026-0.256-0.039-0.375-0.039c-0.12,0-0.234,0.013-0.344,0.039
		c0.041-0.386,0.062-0.773,0.062-1.164v-3.594C155.455,75.99,155.434,75.657,155.393,75.318z M156.479,73.912
		c0.234,0.417,0.539,0.781,0.914,1.094c-0.203,0.031-0.422,0.114-0.656,0.25c-0.261-0.453-0.545-0.815-0.852-1.086
		C156.082,74.128,156.28,74.042,156.479,73.912z M156.916,76.076c0.328,0.021,0.65,0.031,0.969,0.031h0.969
		c0.328,0,0.65-0.011,0.969-0.031c-0.021,0.151-0.031,0.308-0.031,0.469v2.656c0,0.198,0.01,0.396,0.031,0.594
		c-0.318-0.021-0.641-0.031-0.969-0.031h-0.969c-0.318,0-0.641,0.011-0.969,0.031c0.021-0.198,0.031-0.396,0.031-0.594v-2.656
		C156.926,76.384,156.916,76.228,156.916,76.076z M157.51,77.662h1.719v-1.117h-1.719V77.662z M159.229,79.318V78.17h-1.719v1.148
		H159.229z M157.791,74.287c0.25,0.021,0.5,0.031,0.75,0.031h2.031c0.297,0,0.591-0.011,0.883-0.031
		c-0.021,0.219-0.031,0.438-0.031,0.656v5.508c0,0.317-0.092,0.521-0.273,0.609c-0.261,0.13-0.639,0.195-1.133,0.195
		c-0.026-0.256-0.12-0.484-0.281-0.688c0.458,0.021,0.727,0.031,0.805,0.031c0.15,0,0.227-0.104,0.227-0.312v-5.43h-2.227
		c-0.25,0-0.5,0.008-0.75,0.023c0.021-0.099,0.031-0.203,0.031-0.312C157.822,74.479,157.812,74.386,157.791,74.287z"/>
	<path d="M164.26,73.857c0.192,0.083,0.435,0.133,0.727,0.148c-0.146,0.276-0.292,0.714-0.438,1.312h0.617
		c0.281,0,0.564-0.021,0.852-0.062c-0.047,0.271-0.07,0.544-0.07,0.82v4.125c0,0.266,0.023,0.533,0.07,0.805
		c-0.156-0.021-0.261-0.031-0.312-0.031c-0.062,0-0.178,0.01-0.344,0.031c0.041-0.271,0.062-0.539,0.062-0.805h-1.656v0.023
		c0,0.271,0.018,0.541,0.055,0.812c-0.172-0.021-0.287-0.031-0.344-0.031c-0.047,0-0.151,0.01-0.312,0.031
		c0.041-0.271,0.062-0.542,0.062-0.812v-4.148c0-0.276-0.021-0.55-0.062-0.82c0.281,0.042,0.564,0.062,0.852,0.062h0.023
		C164.108,74.917,164.182,74.431,164.26,73.857z M163.768,77.545h1.656v-1.719h-1.656V77.545z M163.768,79.693h1.656v-1.688h-1.656
		V79.693z M167.479,73.826c0.224,0.104,0.474,0.175,0.75,0.211c-0.125,0.172-0.292,0.472-0.5,0.898
		c-0.053,0.12-0.107,0.237-0.164,0.352h1.484c0.271,0,0.539-0.021,0.805-0.062c-0.062,0.198-0.102,0.417-0.117,0.656l-0.164,4.438
		c-0.037,0.369-0.237,0.609-0.602,0.719c-0.266,0.083-0.688,0.146-1.266,0.188c0-0.203-0.094-0.422-0.281-0.656
		c0.312,0.021,0.531,0.031,0.656,0.031c0.391,0,0.653-0.076,0.789-0.227c0.099-0.089,0.148-0.211,0.148-0.367l0.148-4.211h-1.828
		c-0.219,0.464-0.464,0.94-0.734,1.43c-0.178-0.141-0.383-0.234-0.617-0.281c0.317-0.339,0.633-0.839,0.945-1.5
		C167.088,75.151,167.27,74.612,167.479,73.826z M167.361,77.201c0.203,0.469,0.502,0.945,0.898,1.43
		c-0.178,0.099-0.352,0.234-0.523,0.406c-0.229-0.589-0.534-1.097-0.914-1.523C167.025,77.436,167.205,77.331,167.361,77.201z"/>
	<path d="M173.541,74.35c-0.25,0.067-0.479,0.13-0.688,0.188v1.539h0.094c0.297,0,0.588-0.023,0.875-0.07
		c-0.021,0.109-0.031,0.214-0.031,0.312c0,0.109,0.01,0.214,0.031,0.312c-0.287-0.042-0.578-0.062-0.875-0.062h-0.094v0.883
		c0.15-0.052,0.275-0.117,0.375-0.195c0.172,0.349,0.4,0.703,0.688,1.062c-0.172,0.036-0.336,0.12-0.492,0.25
		c-0.172-0.354-0.362-0.667-0.57-0.938v2.688c0,0.307,0.021,0.609,0.062,0.906c-0.109-0.016-0.225-0.023-0.344-0.023
		c-0.109,0-0.225,0.008-0.344,0.023c0.047-0.297,0.07-0.6,0.07-0.906v-2.547c-0.328,0.734-0.717,1.419-1.164,2.055
		c-0.094-0.261-0.227-0.469-0.398-0.625c0.385-0.401,0.708-0.859,0.969-1.375c0.203-0.375,0.385-0.794,0.547-1.258h-0.398
		c-0.287,0-0.576,0.021-0.867,0.062c0.021-0.099,0.031-0.203,0.031-0.312c0-0.099-0.011-0.203-0.031-0.312
		c0.291,0.047,0.58,0.07,0.867,0.07h0.445v-1.391c-0.511,0.141-0.878,0.247-1.102,0.32c-0.031-0.192-0.125-0.398-0.281-0.617
		c0.911-0.026,1.786-0.258,2.625-0.695c0.088,0.214,0.224,0.445,0.406,0.695C173.785,74.362,173.65,74.35,173.541,74.35z
		 M173.947,77.139c0.297,0.042,0.588,0.062,0.875,0.062h2.125c0.297,0,0.588-0.021,0.875-0.062
		c-0.021,0.099-0.031,0.203-0.031,0.312c0,0.099,0.01,0.203,0.031,0.312c-0.287-0.047-0.578-0.07-0.875-0.07h-0.781v1.039h0.57
		c0.286,0,0.575-0.023,0.867-0.07c-0.021,0.109-0.031,0.214-0.031,0.312c0,0.109,0.01,0.214,0.031,0.312
		c-0.292-0.042-0.581-0.062-0.867-0.062h-0.57v1.164h1.062c0.297,0,0.591-0.023,0.883-0.07c-0.021,0.109-0.031,0.213-0.031,0.312
		c0,0.109,0.01,0.213,0.031,0.312c-0.292-0.042-0.586-0.062-0.883-0.062h-2.773c-0.292,0-0.586,0.021-0.883,0.062
		c0.021-0.1,0.031-0.203,0.031-0.312c0-0.1-0.011-0.203-0.031-0.312c0.297,0.047,0.591,0.07,0.883,0.07h1.117v-1.164h-0.586
		c-0.297,0-0.589,0.021-0.875,0.062c0.016-0.099,0.023-0.203,0.023-0.312c0-0.099-0.008-0.203-0.023-0.312
		c0.286,0.047,0.578,0.07,0.875,0.07h0.586v-1.039h-0.75c-0.287,0-0.578,0.023-0.875,0.07c0.025-0.109,0.039-0.214,0.039-0.312
		C173.986,77.342,173.973,77.237,173.947,77.139z M174.299,74.107c0.338,0.021,0.682,0.031,1.031,0.031h1.18
		c0.349,0,0.692-0.011,1.031-0.031c-0.021,0.172-0.031,0.347-0.031,0.523v1.281c0,0.208,0.01,0.419,0.031,0.633
		c-0.339-0.021-0.683-0.031-1.031-0.031h-1.18c-0.35,0-0.693,0.011-1.031,0.031c0.021-0.214,0.031-0.425,0.031-0.633v-1.281
		C174.309,74.454,174.299,74.279,174.299,74.107z M176.916,76.006v-1.375h-2v1.375H176.916z"/>
	<path d="M182.916,73.826c0.094,0.271,0.189,0.573,0.289,0.906h2.055c0.219,0,0.438-0.013,0.656-0.039
		c-0.021,0.099-0.031,0.192-0.031,0.281c0,0.109,0.01,0.214,0.031,0.312c-0.219-0.021-0.438-0.031-0.656-0.031h-4.805v2.227
		c-0.021,0.677-0.112,1.315-0.273,1.914c-0.109,0.479-0.362,1.07-0.758,1.773c-0.183-0.183-0.401-0.287-0.656-0.312
		c0.354-0.495,0.611-1.003,0.773-1.523c0.188-0.63,0.281-1.247,0.281-1.852v-2.031c0-0.25-0.019-0.503-0.055-0.758
		c0.234,0.026,0.471,0.039,0.711,0.039h2.195c-0.115-0.333-0.229-0.617-0.344-0.852C182.518,73.87,182.713,73.853,182.916,73.826z
		 M181.08,75.881c0.197,0.021,0.361,0.031,0.492,0.031h3.102c0.229,0,0.447-0.011,0.656-0.031c-0.021,0.078-0.031,0.164-0.031,0.258
		c0,0.183,0.01,0.356,0.031,0.523c-0.292,0.062-0.573,0.159-0.844,0.289c-0.198,0.109-0.516,0.325-0.953,0.648
		c0.021,0.016,0.033,0.026,0.039,0.031c-0.053,0.036-0.104,0.081-0.156,0.133h1.719c0.203,0,0.393-0.011,0.57-0.031
		c-0.225,0.558-0.394,1.086-0.508,1.586c-0.203-0.052-0.401-0.083-0.594-0.094c0.15-0.312,0.266-0.636,0.344-0.969h-1.469v2.57
		c0,0.161-0.094,0.278-0.281,0.352c-0.178,0.072-0.531,0.109-1.062,0.109c-0.011-0.245-0.084-0.464-0.219-0.656
		c0.338,0.041,0.602,0.062,0.789,0.062c0.135,0,0.205-0.05,0.211-0.148v-2.289h-2.211v-0.492h2.258
		c-0.312-0.312-0.628-0.586-0.945-0.82c0.13-0.099,0.244-0.203,0.344-0.312c0.271,0.239,0.555,0.477,0.852,0.711l1.266-0.953h-2.906
		c-0.172,0-0.336,0.011-0.492,0.031c0.021-0.12,0.031-0.214,0.031-0.281C181.111,76.05,181.101,75.964,181.08,75.881z"/>
</g>
<g>
	<path d="M455.013,73.795c0.234,0.104,0.497,0.175,0.789,0.211c-0.146,0.114-0.336,0.31-0.57,0.586
		c-0.011,0.016-0.021,0.028-0.031,0.039h1.125c0.224,0,0.464-0.011,0.719-0.031c-0.021,0.094-0.031,0.18-0.031,0.258
		c0,0.104,0.011,0.198,0.031,0.281c-0.167-0.021-0.406-0.031-0.719-0.031h-0.438l0.32,0.688c-0.229,0.026-0.44,0.065-0.633,0.117
		c-0.083-0.323-0.183-0.591-0.297-0.805h-0.445c-0.255,0.323-0.539,0.656-0.852,1c-0.188-0.156-0.406-0.261-0.656-0.312
		c0.37-0.219,0.724-0.539,1.062-0.961C454.564,74.642,454.773,74.295,455.013,73.795z M454.146,76.037
		c0.286,0.026,0.575,0.039,0.867,0.039h3.539c0.344,0,0.685-0.013,1.023-0.039c-0.016,0.177-0.023,0.354-0.023,0.531v0.781
		c0,0.177,0.008,0.354,0.023,0.531c-0.339-0.016-0.68-0.023-1.023-0.023h-1.258v0.805h1.656c0.38,0,0.758-0.011,1.133-0.031
		c-0.089,1.021-0.231,1.589-0.43,1.703c-0.219,0.182-0.651,0.281-1.297,0.297c0-0.198-0.07-0.406-0.211-0.625
		c0.208,0.021,0.344,0.031,0.406,0.031c0.25,0,0.433-0.031,0.547-0.094c0.219-0.062,0.328-0.32,0.328-0.773h-2.133v1.117
		c0,0.328,0.021,0.65,0.062,0.969c-0.12-0.021-0.245-0.031-0.375-0.031c-0.109,0-0.224,0.01-0.344,0.031
		c0.042-0.318,0.062-0.641,0.062-0.969v-0.992c-0.573,0.609-1.528,1.213-2.867,1.812c-0.104-0.167-0.273-0.326-0.508-0.477
		c0.719-0.183,1.347-0.427,1.883-0.734c0.401-0.198,0.753-0.44,1.055-0.727h-1.219c-0.271,0-0.542,0.011-0.812,0.031l0.125-1.883
		c0.276,0.021,0.55,0.031,0.82,0.031h1.523v-0.781h-1.688c-0.292,0-0.581,0.011-0.867,0.031c0.021-0.089,0.031-0.183,0.031-0.281
		C454.177,76.229,454.166,76.136,454.146,76.037z M456.7,78.662v-0.805h-1.805l-0.062,0.805H456.7z M458.013,73.795
		c0.224,0.104,0.477,0.175,0.758,0.211c-0.13,0.114-0.297,0.302-0.5,0.562c-0.011,0.016-0.019,0.026-0.023,0.031h1.523
		c0.224,0,0.464-0.011,0.719-0.031c-0.021,0.089-0.031,0.175-0.031,0.258c0,0.104,0.011,0.198,0.031,0.281
		c-0.177-0.021-0.417-0.031-0.719-0.031h-0.602l0.352,0.719c-0.229,0.026-0.438,0.065-0.625,0.117
		c-0.094-0.333-0.206-0.612-0.336-0.836h-0.648c-0.224,0.302-0.469,0.612-0.734,0.93c-0.188-0.136-0.396-0.227-0.625-0.273
		c0.312-0.214,0.62-0.526,0.922-0.938C457.625,74.612,457.805,74.279,458.013,73.795z M457.294,76.568v0.781h1.656v-0.781H457.294z"
		/>
	<path d="M464.821,80.42h-0.703v-2.575c0-0.728-0.208-1.095-0.896-1.095c-0.4,0-1.104,0.256-1.104,1.391v2.279h-0.704v-4.182h0.664
		v0.592h0.016c0.152-0.225,0.544-0.712,1.264-0.712c0.647,0,1.463,0.264,1.463,1.455V80.42z"/>
	<path d="M467.391,76.382h0.584v1.728h1.727v0.583h-1.727v1.728h-0.584v-1.728h-1.735v-0.583h1.735V76.382z"/>
	<path d="M472.886,80.42h-0.751v-3.99h-1.312v-0.56c0.911-0.063,1.287-0.151,1.511-1.071h0.552V80.42z"/>
	<path d="M476.339,77.318c0.136,0.125,0.32,0.239,0.555,0.344c-0.594,1.047-1.081,2.047-1.461,3
		c-0.261-0.183-0.489-0.317-0.688-0.406C475.261,79.631,475.792,78.651,476.339,77.318z M475.683,74.545
		c0.292,0.651,0.664,1.222,1.117,1.711c-0.219,0.031-0.456,0.128-0.711,0.289c-0.328-0.719-0.683-1.292-1.062-1.719
		C475.245,74.779,475.464,74.686,475.683,74.545z M478.683,76.42c0.245,0.094,0.505,0.164,0.781,0.211
		c-0.058,0.156-0.089,0.325-0.094,0.508c0,0.578,0.073,1.067,0.219,1.469s0.364,0.731,0.656,0.992
		c0.386,0.38,0.979,0.703,1.781,0.969c-0.271,0.146-0.489,0.364-0.656,0.656c-0.536-0.287-0.992-0.654-1.367-1.102
		c-0.38-0.422-0.695-0.979-0.945-1.672c-0.151,0.589-0.401,1.086-0.75,1.492c-0.396,0.479-0.961,0.927-1.695,1.344
		c-0.136-0.261-0.341-0.469-0.617-0.625c0.823-0.24,1.419-0.531,1.789-0.875c0.364-0.317,0.614-0.75,0.75-1.297
		c0.12-0.479,0.18-0.93,0.18-1.352C478.714,76.899,478.703,76.659,478.683,76.42z M478.37,73.826c0.25,0.12,0.528,0.203,0.836,0.25
		c-0.146,0.183-0.341,0.503-0.586,0.961c-0.062,0.141-0.125,0.278-0.188,0.414h2.562c0.25,0,0.489-0.011,0.719-0.031
		c-0.339,0.708-0.591,1.375-0.758,2c-0.255-0.073-0.505-0.117-0.75-0.133c0.245-0.438,0.435-0.886,0.57-1.344h-2.594
		c-0.255,0.521-0.536,1.055-0.844,1.602c-0.208-0.177-0.45-0.292-0.727-0.344c0.38-0.375,0.75-0.919,1.109-1.633
		C477.904,75.256,478.12,74.675,478.37,73.826z"/>
</g>
<g>
	<path d="M60.954,73.795c0.234,0.104,0.497,0.175,0.789,0.211c-0.146,0.114-0.336,0.31-0.57,0.586
		c-0.011,0.016-0.021,0.028-0.031,0.039h1.125c0.224,0,0.464-0.011,0.719-0.031c-0.021,0.094-0.031,0.18-0.031,0.258
		c0,0.104,0.011,0.198,0.031,0.281c-0.167-0.021-0.406-0.031-0.719-0.031h-0.438l0.32,0.688c-0.229,0.026-0.44,0.065-0.633,0.117
		c-0.083-0.323-0.183-0.591-0.297-0.805h-0.445c-0.255,0.323-0.539,0.656-0.852,1c-0.188-0.156-0.406-0.261-0.656-0.312
		c0.37-0.219,0.724-0.539,1.062-0.961C60.506,74.642,60.715,74.295,60.954,73.795z M60.087,76.037
		c0.286,0.026,0.575,0.039,0.867,0.039h3.539c0.344,0,0.685-0.013,1.023-0.039c-0.016,0.177-0.023,0.354-0.023,0.531v0.781
		c0,0.177,0.008,0.354,0.023,0.531c-0.339-0.016-0.68-0.023-1.023-0.023h-1.258v0.805h1.656c0.38,0,0.758-0.011,1.133-0.031
		c-0.089,1.021-0.231,1.589-0.43,1.703c-0.219,0.182-0.651,0.281-1.297,0.297c0-0.198-0.07-0.406-0.211-0.625
		c0.208,0.021,0.344,0.031,0.406,0.031c0.25,0,0.433-0.031,0.547-0.094c0.219-0.062,0.328-0.32,0.328-0.773h-2.133v1.117
		c0,0.328,0.021,0.65,0.062,0.969c-0.12-0.021-0.245-0.031-0.375-0.031c-0.109,0-0.224,0.01-0.344,0.031
		c0.042-0.318,0.062-0.641,0.062-0.969v-0.992c-0.573,0.609-1.528,1.213-2.867,1.812c-0.104-0.167-0.273-0.326-0.508-0.477
		c0.719-0.183,1.347-0.427,1.883-0.734c0.401-0.198,0.753-0.44,1.055-0.727h-1.219c-0.271,0-0.542,0.011-0.812,0.031l0.125-1.883
		c0.276,0.021,0.55,0.031,0.82,0.031h1.523v-0.781h-1.688c-0.292,0-0.581,0.011-0.867,0.031c0.021-0.089,0.031-0.183,0.031-0.281
		C60.118,76.229,60.107,76.136,60.087,76.037z M62.642,78.662v-0.805h-1.805l-0.062,0.805H62.642z M63.954,73.795
		c0.224,0.104,0.477,0.175,0.758,0.211c-0.13,0.114-0.297,0.302-0.5,0.562c-0.011,0.016-0.019,0.026-0.023,0.031h1.523
		c0.224,0,0.464-0.011,0.719-0.031c-0.021,0.089-0.031,0.175-0.031,0.258c0,0.104,0.011,0.198,0.031,0.281
		c-0.177-0.021-0.417-0.031-0.719-0.031H65.11l0.352,0.719c-0.229,0.026-0.438,0.065-0.625,0.117
		c-0.094-0.333-0.206-0.612-0.336-0.836h-0.648c-0.224,0.302-0.469,0.612-0.734,0.93c-0.188-0.136-0.396-0.227-0.625-0.273
		c0.312-0.214,0.62-0.526,0.922-0.938C63.566,74.612,63.746,74.279,63.954,73.795z M63.235,76.568v0.781h1.656v-0.781H63.235z"/>
	<path d="M70.446,78.092v2.266h-0.578v-2.266c0-0.427-0.067-0.737-0.203-0.93c-0.13-0.198-0.356-0.297-0.68-0.297
		c-0.484,0-0.878,0.292-1.18,0.875v2.617h-0.578v-3.953h0.578v0.633c0.219-0.255,0.419-0.435,0.602-0.539
		c0.183-0.109,0.391-0.164,0.625-0.164C69.975,76.334,70.446,76.92,70.446,78.092z"/>
	<path d="M74.54,77.693h-3.406v-0.492h3.406V77.693z"/>
	<path d="M77.267,80.357h-0.562v-4.711h-0.859V75.35c0.495-0.026,0.828-0.297,1-0.812h0.422V80.357z"/>
	<path d="M80.712,77.318c0.136,0.125,0.32,0.239,0.555,0.344c-0.594,1.047-1.081,2.047-1.461,3
		c-0.261-0.183-0.489-0.317-0.688-0.406C79.634,79.631,80.165,78.651,80.712,77.318z M80.056,74.545
		c0.292,0.651,0.664,1.222,1.117,1.711c-0.219,0.031-0.456,0.128-0.711,0.289c-0.328-0.719-0.683-1.292-1.062-1.719
		C79.618,74.779,79.837,74.686,80.056,74.545z M83.056,76.42c0.245,0.094,0.505,0.164,0.781,0.211
		c-0.058,0.156-0.089,0.325-0.094,0.508c0,0.578,0.073,1.067,0.219,1.469s0.364,0.731,0.656,0.992
		c0.386,0.38,0.979,0.703,1.781,0.969c-0.271,0.146-0.489,0.364-0.656,0.656c-0.536-0.287-0.992-0.654-1.367-1.102
		c-0.38-0.422-0.695-0.979-0.945-1.672c-0.151,0.589-0.401,1.086-0.75,1.492c-0.396,0.479-0.961,0.927-1.695,1.344
		c-0.136-0.261-0.341-0.469-0.617-0.625c0.823-0.24,1.419-0.531,1.789-0.875c0.364-0.317,0.614-0.75,0.75-1.297
		c0.12-0.479,0.18-0.93,0.18-1.352C83.087,76.899,83.076,76.659,83.056,76.42z M82.743,73.826c0.25,0.12,0.528,0.203,0.836,0.25
		c-0.146,0.183-0.341,0.503-0.586,0.961c-0.062,0.141-0.125,0.278-0.188,0.414h2.562c0.25,0,0.489-0.011,0.719-0.031
		c-0.339,0.708-0.591,1.375-0.758,2c-0.255-0.073-0.505-0.117-0.75-0.133c0.245-0.438,0.435-0.886,0.57-1.344h-2.594
		c-0.255,0.521-0.536,1.055-0.844,1.602c-0.208-0.177-0.45-0.292-0.727-0.344c0.38-0.375,0.75-0.919,1.109-1.633
		C82.277,75.256,82.493,74.675,82.743,73.826z"/>
</g>
<line class="st3" x1="109.966" y1="43.465" x2="73.554" y2="68.914"/>
<line class="st3" x1="465.95" y1="68.914" x2="429.539" y2="43.465"/>
<g>
	<path d="M230.479,73.795c0.234,0.104,0.497,0.175,0.789,0.211c-0.146,0.114-0.336,0.31-0.57,0.586
		c-0.011,0.016-0.021,0.028-0.031,0.039h1.125c0.224,0,0.463-0.011,0.719-0.031c-0.021,0.094-0.031,0.18-0.031,0.258
		c0,0.104,0.01,0.198,0.031,0.281c-0.167-0.021-0.406-0.031-0.719-0.031h-0.438l0.32,0.688c-0.229,0.026-0.44,0.065-0.633,0.117
		c-0.084-0.323-0.183-0.591-0.297-0.805H230.3c-0.256,0.323-0.539,0.656-0.852,1c-0.188-0.156-0.406-0.261-0.656-0.312
		c0.369-0.219,0.724-0.539,1.062-0.961C230.031,74.642,230.239,74.295,230.479,73.795z M229.612,76.037
		c0.286,0.026,0.575,0.039,0.867,0.039h3.539c0.344,0,0.685-0.013,1.023-0.039c-0.016,0.177-0.023,0.354-0.023,0.531v0.781
		c0,0.177,0.008,0.354,0.023,0.531c-0.339-0.016-0.68-0.023-1.023-0.023h-1.258v0.805h1.656c0.38,0,0.758-0.011,1.133-0.031
		c-0.089,1.021-0.232,1.589-0.43,1.703c-0.219,0.182-0.651,0.281-1.297,0.297c0-0.198-0.07-0.406-0.211-0.625
		c0.208,0.021,0.344,0.031,0.406,0.031c0.25,0,0.432-0.031,0.547-0.094c0.219-0.062,0.328-0.32,0.328-0.773h-2.133v1.117
		c0,0.328,0.021,0.65,0.062,0.969c-0.12-0.021-0.245-0.031-0.375-0.031c-0.109,0-0.225,0.01-0.344,0.031
		c0.041-0.318,0.062-0.641,0.062-0.969v-0.992c-0.573,0.609-1.529,1.213-2.867,1.812c-0.104-0.167-0.273-0.326-0.508-0.477
		c0.719-0.183,1.346-0.427,1.883-0.734c0.4-0.198,0.752-0.44,1.055-0.727h-1.219c-0.271,0-0.542,0.011-0.812,0.031l0.125-1.883
		c0.275,0.021,0.549,0.031,0.82,0.031h1.523v-0.781h-1.688c-0.292,0-0.581,0.011-0.867,0.031c0.021-0.089,0.031-0.183,0.031-0.281
		C229.644,76.229,229.633,76.136,229.612,76.037z M232.167,78.662v-0.805h-1.805l-0.062,0.805H232.167z M233.479,73.795
		c0.224,0.104,0.477,0.175,0.758,0.211c-0.131,0.114-0.297,0.302-0.5,0.562c-0.011,0.016-0.019,0.026-0.023,0.031h1.523
		c0.224,0,0.463-0.011,0.719-0.031c-0.021,0.089-0.031,0.175-0.031,0.258c0,0.104,0.01,0.198,0.031,0.281
		c-0.178-0.021-0.417-0.031-0.719-0.031h-0.602l0.352,0.719c-0.229,0.026-0.438,0.065-0.625,0.117
		c-0.094-0.333-0.206-0.612-0.336-0.836h-0.648c-0.225,0.302-0.469,0.612-0.734,0.93c-0.188-0.136-0.396-0.227-0.625-0.273
		c0.312-0.214,0.619-0.526,0.922-0.938C233.091,74.612,233.271,74.279,233.479,73.795z M232.761,76.568v0.781h1.656v-0.781H232.761z
		"/>
	<path d="M244.288,80.42h-0.704v-2.575c0-0.728-0.208-1.095-0.896-1.095c-0.399,0-1.104,0.256-1.104,1.391v2.279h-0.703v-4.182
		h0.664v0.592h0.016c0.151-0.225,0.544-0.712,1.264-0.712c0.647,0,1.463,0.264,1.463,1.455V80.42z"/>
	<path d="M248.909,77.318c0.135,0.125,0.32,0.239,0.555,0.344c-0.594,1.047-1.081,2.047-1.461,3
		c-0.261-0.183-0.49-0.317-0.688-0.406C247.831,79.631,248.362,78.651,248.909,77.318z M248.253,74.545
		c0.291,0.651,0.664,1.222,1.117,1.711c-0.219,0.031-0.456,0.128-0.711,0.289c-0.328-0.719-0.683-1.292-1.062-1.719
		C247.815,74.779,248.034,74.686,248.253,74.545z M251.253,76.42c0.244,0.094,0.505,0.164,0.781,0.211
		c-0.058,0.156-0.089,0.325-0.094,0.508c0,0.578,0.072,1.067,0.219,1.469c0.146,0.401,0.364,0.731,0.656,0.992
		c0.385,0.38,0.979,0.703,1.781,0.969c-0.271,0.146-0.49,0.364-0.656,0.656c-0.537-0.287-0.992-0.654-1.367-1.102
		c-0.381-0.422-0.695-0.979-0.945-1.672c-0.151,0.589-0.401,1.086-0.75,1.492c-0.396,0.479-0.961,0.927-1.695,1.344
		c-0.136-0.261-0.342-0.469-0.617-0.625c0.822-0.24,1.419-0.531,1.789-0.875c0.364-0.317,0.614-0.75,0.75-1.297
		c0.119-0.479,0.18-0.93,0.18-1.352C251.284,76.899,251.273,76.659,251.253,76.42z M250.94,73.826c0.25,0.12,0.528,0.203,0.836,0.25
		c-0.146,0.183-0.342,0.503-0.586,0.961c-0.062,0.141-0.125,0.278-0.188,0.414h2.562c0.25,0,0.489-0.011,0.719-0.031
		c-0.339,0.708-0.592,1.375-0.758,2c-0.256-0.073-0.506-0.117-0.75-0.133c0.244-0.438,0.435-0.886,0.57-1.344h-2.594
		c-0.256,0.521-0.537,1.055-0.844,1.602c-0.209-0.177-0.451-0.292-0.727-0.344c0.38-0.375,0.75-0.919,1.109-1.633
		C250.474,75.256,250.69,74.675,250.94,73.826z"/>
</g>
<line class="st3" x1="229.803" y1="68.914" x2="193.392" y2="43.465"/>
<g>
	<path d="M437.854,21.337c0.188,0.058,0.417,0.089,0.688,0.094c-0.067,0.125-0.102,0.295-0.102,0.508v2h0.344
		c0.255,0,0.528-0.01,0.82-0.031c-0.021,0.1-0.031,0.193-0.031,0.281c0,0.115,0.011,0.219,0.031,0.312
		c-0.192-0.021-0.466-0.031-0.82-0.031h-0.344v2.648c0.396-0.083,0.773-0.174,1.133-0.273c-0.021,0.287-0.031,0.482-0.031,0.586
		c-1.953,0.35-3.206,0.622-3.758,0.82c-0.011-0.192-0.07-0.411-0.18-0.656c0.281-0.036,0.56-0.072,0.836-0.109v-4.055
		c0-0.192-0.021-0.388-0.062-0.586c0.192,0.058,0.422,0.089,0.688,0.094c-0.058,0.125-0.086,0.289-0.086,0.492v3.961
		c0.317-0.047,0.63-0.102,0.938-0.164v-5.289C437.916,21.735,437.896,21.535,437.854,21.337z M439.854,21.274
		c0.229,0.042,0.458,0.062,0.688,0.062c-0.047,0.104-0.07,0.219-0.07,0.344v2.898c0.63-0.391,1.216-0.854,1.758-1.391
		c0.099,0.214,0.263,0.433,0.492,0.656c-0.141,0.053-0.344,0.164-0.609,0.336c-0.411,0.292-0.958,0.609-1.641,0.953v2.461
		c0,0.188,0.073,0.281,0.219,0.281h0.945c0.208,0,0.356-0.067,0.445-0.203c0.099-0.114,0.148-0.424,0.148-0.93
		c0.125,0.178,0.32,0.305,0.586,0.383c-0.052,0.453-0.133,0.771-0.242,0.953c-0.141,0.234-0.403,0.352-0.789,0.352h-1.312
		c-0.364,0-0.55-0.136-0.555-0.406v-6.18C439.916,21.657,439.896,21.468,439.854,21.274z"/>
	<path d="M445.197,24.712c0.136,0.125,0.32,0.24,0.555,0.344c-0.594,1.047-1.081,2.047-1.461,3
		c-0.261-0.183-0.489-0.317-0.688-0.406C444.119,27.024,444.65,26.046,445.197,24.712z M444.541,21.938
		c0.292,0.651,0.664,1.222,1.117,1.711c-0.219,0.031-0.456,0.128-0.711,0.289c-0.328-0.719-0.683-1.291-1.062-1.719
		C444.104,22.173,444.322,22.079,444.541,21.938z M447.541,23.813c0.245,0.094,0.505,0.164,0.781,0.211
		c-0.058,0.156-0.089,0.326-0.094,0.508c0,0.578,0.073,1.068,0.219,1.469c0.146,0.401,0.364,0.732,0.656,0.992
		c0.386,0.381,0.979,0.703,1.781,0.969c-0.271,0.146-0.489,0.364-0.656,0.656c-0.536-0.286-0.992-0.653-1.367-1.102
		c-0.38-0.422-0.695-0.979-0.945-1.672c-0.151,0.589-0.401,1.086-0.75,1.492c-0.396,0.479-0.961,0.927-1.695,1.344
		c-0.136-0.261-0.341-0.469-0.617-0.625c0.823-0.239,1.419-0.531,1.789-0.875c0.364-0.317,0.614-0.75,0.75-1.297
		c0.12-0.479,0.18-0.93,0.18-1.352C447.572,24.293,447.562,24.054,447.541,23.813z M447.229,21.22c0.25,0.12,0.528,0.203,0.836,0.25
		c-0.146,0.183-0.341,0.503-0.586,0.961c-0.062,0.141-0.125,0.279-0.188,0.414h2.562c0.25,0,0.489-0.01,0.719-0.031
		c-0.339,0.709-0.591,1.375-0.758,2c-0.255-0.072-0.505-0.117-0.75-0.133c0.245-0.438,0.435-0.885,0.57-1.344h-2.594
		c-0.255,0.521-0.536,1.055-0.844,1.602c-0.208-0.177-0.45-0.291-0.727-0.344c0.38-0.375,0.75-0.919,1.109-1.633
		C446.763,22.649,446.979,22.069,447.229,21.22z"/>
</g>
<g>
	<path d="M198.584,21.188c0.229,0.073,0.497,0.112,0.805,0.117c-0.062,0.151-0.094,0.352-0.094,0.602v1.773h2
		c0.276,0,0.57-0.01,0.883-0.031c-0.021,0.115-0.031,0.219-0.031,0.312c0,0.125,0.011,0.229,0.031,0.312
		c-0.208-0.016-0.503-0.023-0.883-0.023h-2v3.281h2.539c0.339,0,0.683-0.021,1.031-0.062c-0.021,0.12-0.031,0.245-0.031,0.375
		c0,0.109,0.011,0.224,0.031,0.344c-0.349-0.042-0.692-0.062-1.031-0.062h-5.195c-0.339,0-0.683,0.021-1.031,0.062
		c0.021-0.12,0.031-0.234,0.031-0.344c0-0.13-0.011-0.255-0.031-0.375c0.349,0.042,0.692,0.062,1.031,0.062h2v-5.625
		C198.639,21.668,198.62,21.429,198.584,21.188z"/>
	<path d="M203.834,24.274c0.349,0.042,0.703,0.062,1.062,0.062h4.688c0.354,0,0.706-0.021,1.055-0.062
		c-0.021,0.131-0.031,0.256-0.031,0.375c0,0.131,0.011,0.256,0.031,0.375c-0.349-0.041-0.7-0.062-1.055-0.062h-4.688
		c-0.359,0-0.714,0.021-1.062,0.062c0.021-0.119,0.031-0.244,0.031-0.375C203.865,24.53,203.854,24.405,203.834,24.274z"/>
	<path d="M213.146,24.712c0.136,0.125,0.32,0.24,0.555,0.344c-0.594,1.047-1.081,2.047-1.461,3
		c-0.261-0.183-0.489-0.317-0.688-0.406C212.068,27.024,212.6,26.046,213.146,24.712z M212.49,21.938
		c0.292,0.651,0.664,1.222,1.117,1.711c-0.219,0.031-0.456,0.128-0.711,0.289c-0.328-0.719-0.683-1.291-1.062-1.719
		C212.053,22.173,212.271,22.079,212.49,21.938z M215.49,23.813c0.245,0.094,0.505,0.164,0.781,0.211
		c-0.058,0.156-0.089,0.326-0.094,0.508c0,0.578,0.073,1.068,0.219,1.469c0.146,0.401,0.364,0.732,0.656,0.992
		c0.386,0.381,0.979,0.703,1.781,0.969c-0.271,0.146-0.489,0.364-0.656,0.656c-0.536-0.286-0.992-0.653-1.367-1.102
		c-0.38-0.422-0.695-0.979-0.945-1.672c-0.151,0.589-0.401,1.086-0.75,1.492c-0.396,0.479-0.961,0.927-1.695,1.344
		c-0.136-0.261-0.341-0.469-0.617-0.625c0.823-0.239,1.419-0.531,1.789-0.875c0.364-0.317,0.614-0.75,0.75-1.297
		c0.12-0.479,0.18-0.93,0.18-1.352C215.521,24.293,215.511,24.054,215.49,23.813z M215.178,21.22c0.25,0.12,0.528,0.203,0.836,0.25
		c-0.146,0.183-0.341,0.503-0.586,0.961c-0.062,0.141-0.125,0.279-0.188,0.414h2.562c0.25,0,0.489-0.01,0.719-0.031
		c-0.339,0.709-0.591,1.375-0.758,2c-0.255-0.072-0.505-0.117-0.75-0.133c0.245-0.438,0.435-0.885,0.57-1.344h-2.594
		c-0.255,0.521-0.536,1.055-0.844,1.602c-0.208-0.177-0.45-0.291-0.727-0.344c0.38-0.375,0.75-0.919,1.109-1.633
		C214.712,22.649,214.928,22.069,215.178,21.22z"/>
</g>
<line class="st4" x1="190.232" y1="50.281" x2="190.232" y2="220.934"/>
<line class="st4" x1="426.142" y1="50.989" x2="426.142" y2="221.64"/>
<polyline class="st2" points="481.997,121.8 405.809,121.8 405.809,104.666 "/>
<polyline class="st2" points="406.46,104.092 247.576,104.092 247.576,121.809 88.692,121.809 "/>
<polyline class="st2" points="247.22,206.848 247.576,206.809 247.576,188.948 168.155,188.948 "/>
<polyline class="st2" points="482.177,146.612 325.835,146.612 325.835,164.328 88.692,164.328 "/>
<polyline class="st2" points="482.177,189.132 325.656,189.132 325.656,206.848 246.948,206.848 "/>
<polyline class="st2" points="168.155,188.803 168.155,188.803 168.155,206.837 89.448,206.837 "/>
<g>
	<path d="M438.906,161.01c-2.143,0-2.799-1.783-2.799-3.022s0.656-3.022,2.799-3.022s2.799,1.783,2.799,3.022
		S441.049,161.01,438.906,161.01z M438.906,155.652c-1.247,0-1.999,0.983-1.999,2.335c0,1.351,0.752,2.334,1.999,2.334
		s1.999-0.983,1.999-2.334C440.905,156.636,440.153,155.652,438.906,155.652z"/>
	<path d="M446.433,155.116h0.752v5.741h-0.871l-2.919-4.638h-0.016v4.638h-0.752v-5.741h0.92l2.87,4.638h0.016V155.116z"/>
</g>
<g>
	<path d="M438.906,203.746c-2.143,0-2.799-1.783-2.799-3.022s0.656-3.022,2.799-3.022s2.799,1.783,2.799,3.022
		S441.049,203.746,438.906,203.746z M438.906,198.389c-1.247,0-1.999,0.983-1.999,2.335c0,1.351,0.752,2.334,1.999,2.334
		s1.999-0.983,1.999-2.334C440.905,199.372,440.153,198.389,438.906,198.389z"/>
	<path d="M446.433,197.853h0.752v5.741h-0.871l-2.919-4.638h-0.016v4.638h-0.752v-5.741h0.92l2.87,4.638h0.016V197.853z"/>
</g>
<g>
	<path d="M203.854,157.753c-2.143,0-2.798-1.783-2.798-3.022s0.655-3.022,2.798-3.022s2.799,1.783,2.799,3.022
		S205.996,157.753,203.854,157.753z M203.854,152.396c-1.247,0-1.999,0.983-1.999,2.335c0,1.351,0.752,2.334,1.999,2.334
		s1.999-0.983,1.999-2.334C205.853,153.379,205.101,152.396,203.854,152.396z"/>
	<path d="M208.431,157.601h-0.775v-5.741h3.974v0.688h-3.198v1.759h2.814v0.688h-2.814V157.601z"/>
	<path d="M213.318,157.601h-0.775v-5.741h3.974v0.688h-3.198v1.759h2.814v0.688h-2.814V157.601z"/>
</g>
<g>
	<path d="M203.63,203.746c-2.144,0-2.799-1.783-2.799-3.022s0.655-3.022,2.799-3.022c2.143,0,2.798,1.783,2.798,3.022
		S205.772,203.746,203.63,203.746z M203.63,198.389c-1.248,0-1.999,0.983-1.999,2.335c0,1.351,0.751,2.334,1.999,2.334
		c1.247,0,1.999-0.983,1.999-2.334C205.629,199.372,204.877,198.389,203.63,198.389z"/>
	<path d="M211.157,197.853h0.751v5.741h-0.871l-2.918-4.638h-0.017v4.638h-0.751v-5.741h0.919l2.87,4.638h0.017V197.853z"/>
</g>
<g>
	<path d="M75.045,107.258c-2.143,0-2.798-1.783-2.798-3.022s0.655-3.022,2.798-3.022s2.799,1.783,2.799,3.022
		S77.188,107.258,75.045,107.258z M75.045,101.9c-1.247,0-1.999,0.983-1.999,2.335s0.752,2.335,1.999,2.335s1.999-0.983,1.999-2.335
		S76.292,101.9,75.045,101.9z"/>
	<path d="M82.572,101.365h0.752v5.74h-0.872l-2.918-4.637h-0.016v4.637h-0.752v-5.74h0.92l2.87,4.637h0.016V101.365z"/>
</g>
<g>
	<path d="M71.654,122.238c-2.143,0-2.798-1.783-2.798-3.022s0.655-3.022,2.798-3.022s2.799,1.783,2.799,3.022
		S73.797,122.238,71.654,122.238z M71.654,116.881c-1.247,0-1.999,0.983-1.999,2.335s0.752,2.335,1.999,2.335
		s1.999-0.983,1.999-2.335S72.901,116.881,71.654,116.881z"/>
	<path d="M76.231,122.086h-0.775v-5.74h3.974v0.688h-3.198v1.759h2.814v0.688h-2.814V122.086z"/>
	<path d="M81.119,122.086h-0.775v-5.74h3.974v0.688h-3.198v1.759h2.814v0.688h-2.814V122.086z"/>
</g>
<g>
	<path d="M75.045,151.318c-2.143,0-2.798-1.783-2.798-3.022s0.655-3.022,2.798-3.022s2.799,1.783,2.799,3.022
		S77.188,151.318,75.045,151.318z M75.045,145.961c-1.247,0-1.999,0.983-1.999,2.335c0,1.351,0.752,2.334,1.999,2.334
		s1.999-0.983,1.999-2.334C77.044,146.944,76.292,145.961,75.045,145.961z"/>
	<path d="M82.572,145.425h0.752v5.741h-0.872l-2.918-4.638h-0.016v4.638h-0.752v-5.741h0.92l2.87,4.638h0.016V145.425z"/>
</g>
<g>
	<path d="M71.654,166.299c-2.143,0-2.798-1.783-2.798-3.022s0.655-3.022,2.798-3.022s2.799,1.783,2.799,3.022
		S73.797,166.299,71.654,166.299z M71.654,160.941c-1.247,0-1.999,0.983-1.999,2.335c0,1.351,0.752,2.334,1.999,2.334
		s1.999-0.983,1.999-2.334C73.653,161.925,72.901,160.941,71.654,160.941z"/>
	<path d="M76.231,166.146h-0.775v-5.741h3.974v0.688h-3.198v1.76h2.814v0.688h-2.814V166.146z"/>
	<path d="M81.119,166.146h-0.775v-5.741h3.974v0.688h-3.198v1.76h2.814v0.688h-2.814V166.146z"/>
</g>
<g>
	<path d="M75.045,194.057c-2.143,0-2.798-1.783-2.798-3.022s0.655-3.022,2.798-3.022s2.799,1.783,2.799,3.022
		S77.188,194.057,75.045,194.057z M75.045,188.699c-1.247,0-1.999,0.983-1.999,2.335c0,1.351,0.752,2.334,1.999,2.334
		s1.999-0.983,1.999-2.334C77.044,189.683,76.292,188.699,75.045,188.699z"/>
	<path d="M82.572,188.163h0.752v5.741h-0.872l-2.918-4.638h-0.016v4.638h-0.752v-5.741h0.92l2.87,4.638h0.016V188.163z"/>
</g>
<g>
	<path d="M71.654,209.037c-2.143,0-2.798-1.783-2.798-3.022s0.655-3.022,2.798-3.022s2.799,1.783,2.799,3.022
		S73.797,209.037,71.654,209.037z M71.654,203.68c-1.247,0-1.999,0.983-1.999,2.335c0,1.351,0.752,2.334,1.999,2.334
		s1.999-0.983,1.999-2.334C73.653,204.663,72.901,203.68,71.654,203.68z"/>
	<path d="M76.231,208.885h-0.775v-5.741h3.974v0.688h-3.198v1.76h2.814v0.688h-2.814V208.885z"/>
	<path d="M81.119,208.885h-0.775v-5.741h3.974v0.688h-3.198v1.76h2.814v0.688h-2.814V208.885z"/>
</g>
<g>
	<path d="M33.656,115.036h-0.775v-5.74h2.654c0.943,0,1.887,0.327,1.887,1.543c0,0.848-0.432,1.159-0.799,1.375
		c0.327,0.136,0.655,0.28,0.688,1.079l0.048,1.04c0.008,0.319,0.048,0.439,0.288,0.575v0.128h-0.952
		c-0.111-0.352-0.136-1.223-0.136-1.438c0-0.473-0.096-1.023-1.023-1.023h-1.879V115.036z M33.656,111.91h1.799
		c0.567,0,1.168-0.144,1.168-0.991c0-0.888-0.648-0.96-1.032-0.96h-1.935V111.91z"/>
	<path d="M40.176,115.188c-1.615,0-1.927-1.719-1.927-2.887c0-1.167,0.312-2.887,1.927-2.887s1.927,1.72,1.927,2.887
		C42.103,113.47,41.791,115.188,40.176,115.188z M40.176,110.047c-0.808,0-1.176,0.848-1.176,2.255s0.368,2.255,1.176,2.255
		s1.175-0.848,1.175-2.255S40.983,110.047,40.176,110.047z"/>
	<path d="M44.624,115.188c-1.615,0-1.927-1.719-1.927-2.887c0-1.167,0.312-2.887,1.927-2.887s1.927,1.72,1.927,2.887
		C46.551,113.47,46.239,115.188,44.624,115.188z M44.624,110.047c-0.808,0-1.176,0.848-1.176,2.255s0.368,2.255,1.176,2.255
		s1.175-0.848,1.175-2.255S45.432,110.047,44.624,110.047z"/>
	<path d="M49.071,115.188c-1.614,0-1.927-1.719-1.927-2.887c0-1.167,0.312-2.887,1.927-2.887c1.615,0,1.928,1.72,1.928,2.887
		C50.999,113.47,50.687,115.188,49.071,115.188z M49.071,110.047c-0.808,0-1.175,0.848-1.175,2.255s0.367,2.255,1.175,2.255
		s1.176-0.848,1.176-2.255S49.879,110.047,49.071,110.047z"/>
</g>
<g>
	<path d="M33.656,159.977h-0.775v-5.741h2.654c0.943,0,1.887,0.328,1.887,1.544c0,0.847-0.432,1.159-0.799,1.375
		c0.327,0.136,0.655,0.279,0.688,1.079l0.048,1.039c0.008,0.32,0.048,0.44,0.288,0.576v0.128h-0.952
		c-0.111-0.352-0.136-1.224-0.136-1.439c0-0.472-0.096-1.023-1.023-1.023h-1.879V159.977z M33.656,156.851h1.799
		c0.567,0,1.168-0.145,1.168-0.992c0-0.887-0.648-0.959-1.032-0.959h-1.935V156.851z"/>
	<path d="M40.176,160.129c-1.615,0-1.927-1.72-1.927-2.887s0.312-2.887,1.927-2.887s1.927,1.72,1.927,2.887
		S41.791,160.129,40.176,160.129z M40.176,154.987c-0.808,0-1.176,0.848-1.176,2.255s0.368,2.255,1.176,2.255
		s1.175-0.848,1.175-2.255S40.983,154.987,40.176,154.987z"/>
	<path d="M44.624,160.129c-1.615,0-1.927-1.72-1.927-2.887s0.312-2.887,1.927-2.887s1.927,1.72,1.927,2.887
		S46.239,160.129,44.624,160.129z M44.624,154.987c-0.808,0-1.176,0.848-1.176,2.255s0.368,2.255,1.176,2.255
		s1.175-0.848,1.175-2.255S45.432,154.987,44.624,154.987z"/>
	<path d="M49.72,159.977h-0.752v-3.99h-1.312v-0.56c0.912-0.063,1.287-0.151,1.512-1.071h0.552V159.977z"/>
</g>
<g>
	<path d="M33.656,203.154h-0.775v-5.741h2.654c0.943,0,1.887,0.328,1.887,1.544c0,0.847-0.432,1.159-0.799,1.375
		c0.327,0.136,0.655,0.279,0.688,1.079l0.048,1.039c0.008,0.32,0.048,0.44,0.288,0.576v0.128h-0.952
		c-0.111-0.352-0.136-1.224-0.136-1.439c0-0.472-0.096-1.023-1.023-1.023h-1.879V203.154z M33.656,200.028h1.799
		c0.567,0,1.168-0.145,1.168-0.992c0-0.887-0.648-0.959-1.032-0.959h-1.935V200.028z"/>
	<path d="M40.176,203.307c-1.615,0-1.927-1.72-1.927-2.887s0.312-2.887,1.927-2.887s1.927,1.72,1.927,2.887
		S41.791,203.307,40.176,203.307z M40.176,198.165c-0.808,0-1.176,0.848-1.176,2.255s0.368,2.255,1.176,2.255
		s1.175-0.848,1.175-2.255S40.983,198.165,40.176,198.165z"/>
	<path d="M44.624,203.307c-1.615,0-1.927-1.72-1.927-2.887s0.312-2.887,1.927-2.887s1.927,1.72,1.927,2.887
		S46.239,203.307,44.624,203.307z M44.624,198.165c-0.808,0-1.176,0.848-1.176,2.255s0.368,2.255,1.176,2.255
		s1.175-0.848,1.175-2.255S45.432,198.165,44.624,198.165z"/>
	<path d="M49.72,203.154h-0.752v-3.99h-1.312v-0.56c0.912-0.063,1.287-0.151,1.512-1.071h0.552V203.154z"/>
</g>
<g>
	<path d="M0.492,136.887c0.105,0.019,0.214,0.027,0.328,0.027h0.574v-0.875c0-0.278-0.018-0.552-0.055-0.82
		c0.168,0.014,0.378,0.021,0.629,0.021c-0.059,0.132-0.089,0.299-0.089,0.499v1.176h0.417c0.105,0,0.214-0.009,0.328-0.027
		c-0.018,0.077-0.027,0.157-0.027,0.239c0,0.096,0.009,0.187,0.027,0.273c-0.114-0.019-0.223-0.027-0.328-0.027H1.88v0.889
		c0.132-0.032,0.244-0.08,0.335-0.144c0.119,0.273,0.28,0.556,0.485,0.848c-0.132,0.027-0.257,0.089-0.376,0.185
		c-0.132-0.296-0.28-0.559-0.444-0.786v2.352c0,0.314,0.021,0.631,0.062,0.95c-0.105-0.014-0.205-0.021-0.301-0.021
		c-0.105,0-0.205,0.007-0.301,0.021c0.037-0.319,0.055-0.636,0.055-0.95v-2.352c-0.223,0.665-0.49,1.283-0.8,1.853
		c-0.082-0.214-0.198-0.388-0.349-0.52c0.26-0.351,0.476-0.757,0.649-1.217c0.141-0.333,0.264-0.702,0.369-1.107H0.82
		c-0.114,0-0.223,0.009-0.328,0.027c0.018-0.087,0.027-0.178,0.027-0.273C0.52,137.044,0.51,136.964,0.492,136.887z M2.543,136.012
		c0.237,0.036,0.472,0.055,0.704,0.055h0.355v-0.355c0-0.173-0.018-0.347-0.055-0.52c0.168,0.046,0.369,0.07,0.602,0.075
		c-0.05,0.114-0.075,0.262-0.075,0.444v0.355H4.84v-0.355c0-0.173-0.021-0.347-0.062-0.52c0.168,0.046,0.369,0.07,0.602,0.075
		c-0.055,0.114-0.082,0.262-0.082,0.444v0.355h0.526c0.232,0,0.467-0.019,0.704-0.055c-0.018,0.087-0.027,0.178-0.027,0.273
		c0,0.077,0.009,0.157,0.027,0.239c-0.237-0.036-0.472-0.055-0.704-0.055H5.298v0.718c0.228-0.005,0.458-0.014,0.69-0.027
		c-0.023,0.132-0.034,0.269-0.034,0.41v1.278c0,0.164,0.011,0.328,0.034,0.492c-0.269-0.014-0.533-0.021-0.793-0.021H4.607
		c-0.018,0.169-0.043,0.323-0.075,0.465h1.292c0.232,0,0.467-0.021,0.704-0.062c-0.018,0.096-0.027,0.187-0.027,0.273
		s0.009,0.169,0.027,0.246c-0.237-0.032-0.472-0.048-0.704-0.048H4.792c0.196,0.269,0.428,0.465,0.697,0.588
		c0.246,0.128,0.631,0.23,1.155,0.308c-0.187,0.164-0.317,0.355-0.39,0.574c-0.524-0.173-0.918-0.364-1.183-0.574
		c-0.269-0.187-0.49-0.479-0.663-0.875c-0.086,0.237-0.191,0.436-0.314,0.595c-0.264,0.347-0.763,0.641-1.497,0.882
		c-0.096-0.178-0.235-0.33-0.417-0.458c0.702-0.091,1.194-0.287,1.477-0.588c0.109-0.118,0.201-0.269,0.273-0.451H3.09
		c-0.242,0-0.481,0.016-0.718,0.048c0.018-0.077,0.027-0.159,0.027-0.246s-0.009-0.178-0.027-0.273
		c0.237,0.041,0.476,0.062,0.718,0.062h0.984c0.037-0.146,0.066-0.301,0.089-0.465H3.746c-0.269,0-0.536,0.007-0.8,0.021
		c0.018-0.164,0.027-0.328,0.027-0.492v-1.278c-0.018-0.142-0.027-0.278-0.027-0.41c0.219,0.014,0.438,0.022,0.656,0.027v-0.718
		H3.247c-0.232,0-0.467,0.019-0.704,0.055c0.018-0.082,0.027-0.162,0.027-0.239C2.57,136.189,2.561,136.099,2.543,136.012z
		 M3.445,138.062h2.051v-0.492H3.445V138.062z M5.496,138.938v-0.547H3.445v0.547H5.496z M4.074,137.188H4.84v-0.718H4.074V137.188z
		"/>
	<path d="M7.321,136.497c0.264,0.041,0.531,0.062,0.8,0.062h2.454c-0.032-0.456-0.057-0.921-0.075-1.395
		c0.264,0.05,0.481,0.075,0.649,0.075c-0.05,0.26-0.075,0.518-0.075,0.772c0,0.187,0.004,0.369,0.014,0.547h1.483
		c0.264,0,0.531-0.021,0.8-0.062c-0.018,0.104-0.027,0.205-0.027,0.301s0.009,0.187,0.027,0.273c-0.269-0.036-0.536-0.055-0.8-0.055
		h-1.456c0.045,0.656,0.137,1.285,0.273,1.887c0.173,0.752,0.424,1.324,0.752,1.716c0.269,0.265,0.46,0.396,0.574,0.396
		c0.078,0,0.168-0.357,0.273-1.073c0.137,0.169,0.317,0.296,0.54,0.383c-0.1,0.52-0.194,0.868-0.28,1.046
		c-0.109,0.214-0.235,0.321-0.376,0.321c-0.196,0-0.394-0.068-0.595-0.205c-0.551-0.378-0.957-0.991-1.217-1.839
		c-0.132-0.405-0.249-0.984-0.349-1.736c-0.037-0.292-0.068-0.59-0.096-0.896H8.121c-0.269,0-0.536,0.019-0.8,0.055
		c0.018-0.087,0.027-0.178,0.027-0.273S7.339,136.602,7.321,136.497z M7.677,138.274c0.114,0.022,0.223,0.034,0.328,0.034h2.023
		c0.114,0,0.226-0.012,0.335-0.034c-0.023,0.087-0.034,0.169-0.034,0.246c0,0.096,0.011,0.187,0.034,0.273
		c-0.109-0.019-0.221-0.027-0.335-0.027H9.324v1.661c0.401-0.104,0.784-0.219,1.148-0.342c-0.018,0.251-0.027,0.422-0.027,0.513
		c-1.486,0.337-2.436,0.602-2.851,0.793c-0.009-0.164-0.064-0.355-0.164-0.574c0.488-0.073,0.953-0.162,1.395-0.267v-1.784h-0.82
		c-0.105,0-0.214,0.009-0.328,0.027c0.018-0.087,0.027-0.178,0.027-0.273C7.704,138.443,7.695,138.361,7.677,138.274z
		 M12.024,135.349c0.168,0.228,0.417,0.458,0.745,0.69c-0.16,0.082-0.317,0.2-0.472,0.355c-0.182-0.301-0.426-0.559-0.731-0.772
		C11.74,135.559,11.892,135.467,12.024,135.349z"/>
	<path d="M15.324,139.497l-0.525,1.464h-0.7l1.891-5.028h0.77l1.821,5.028h-0.743l-0.497-1.464H15.324z M17.096,138.895
		l-0.742-2.213h-0.014l-0.806,2.213H17.096z"/>
</g>
<g>
	<path d="M0.492,181.827c0.105,0.019,0.214,0.027,0.328,0.027h0.574v-0.875c0-0.278-0.018-0.552-0.055-0.82
		c0.168,0.014,0.378,0.021,0.629,0.021c-0.059,0.132-0.089,0.299-0.089,0.499v1.176h0.417c0.105,0,0.214-0.009,0.328-0.027
		c-0.018,0.077-0.027,0.157-0.027,0.239c0,0.096,0.009,0.187,0.027,0.273c-0.114-0.019-0.223-0.027-0.328-0.027H1.88v0.889
		c0.132-0.032,0.244-0.08,0.335-0.144c0.119,0.273,0.28,0.556,0.485,0.848c-0.132,0.027-0.257,0.089-0.376,0.185
		c-0.132-0.296-0.28-0.559-0.444-0.786v2.352c0,0.314,0.021,0.631,0.062,0.95c-0.105-0.014-0.205-0.021-0.301-0.021
		c-0.105,0-0.205,0.007-0.301,0.021c0.037-0.319,0.055-0.636,0.055-0.95v-2.352c-0.223,0.665-0.49,1.283-0.8,1.853
		c-0.082-0.214-0.198-0.388-0.349-0.52c0.26-0.351,0.476-0.757,0.649-1.217c0.141-0.333,0.264-0.702,0.369-1.107H0.82
		c-0.114,0-0.223,0.009-0.328,0.027c0.018-0.087,0.027-0.178,0.027-0.273C0.52,181.984,0.51,181.904,0.492,181.827z M2.543,180.952
		c0.237,0.036,0.472,0.055,0.704,0.055h0.355v-0.355c0-0.173-0.018-0.347-0.055-0.52c0.168,0.046,0.369,0.07,0.602,0.075
		c-0.05,0.114-0.075,0.262-0.075,0.444v0.355H4.84v-0.355c0-0.173-0.021-0.347-0.062-0.52c0.168,0.046,0.369,0.07,0.602,0.075
		c-0.055,0.114-0.082,0.262-0.082,0.444v0.355h0.526c0.232,0,0.467-0.019,0.704-0.055c-0.018,0.087-0.027,0.178-0.027,0.273
		c0,0.077,0.009,0.157,0.027,0.239c-0.237-0.036-0.472-0.055-0.704-0.055H5.298v0.718c0.228-0.005,0.458-0.014,0.69-0.027
		c-0.023,0.132-0.034,0.269-0.034,0.41v1.278c0,0.164,0.011,0.328,0.034,0.492c-0.269-0.014-0.533-0.021-0.793-0.021H4.607
		c-0.018,0.169-0.043,0.323-0.075,0.465h1.292c0.232,0,0.467-0.021,0.704-0.062c-0.018,0.096-0.027,0.187-0.027,0.273
		s0.009,0.169,0.027,0.246c-0.237-0.032-0.472-0.048-0.704-0.048H4.792c0.196,0.269,0.428,0.465,0.697,0.588
		c0.246,0.128,0.631,0.23,1.155,0.308c-0.187,0.164-0.317,0.355-0.39,0.574c-0.524-0.173-0.918-0.364-1.183-0.574
		c-0.269-0.187-0.49-0.479-0.663-0.875c-0.086,0.237-0.191,0.436-0.314,0.595c-0.264,0.347-0.763,0.641-1.497,0.882
		c-0.096-0.178-0.235-0.33-0.417-0.458c0.702-0.091,1.194-0.287,1.477-0.588c0.109-0.118,0.201-0.269,0.273-0.451H3.09
		c-0.242,0-0.481,0.016-0.718,0.048c0.018-0.077,0.027-0.159,0.027-0.246s-0.009-0.178-0.027-0.273
		c0.237,0.041,0.476,0.062,0.718,0.062h0.984c0.037-0.146,0.066-0.301,0.089-0.465H3.746c-0.269,0-0.536,0.007-0.8,0.021
		c0.018-0.164,0.027-0.328,0.027-0.492v-1.278c-0.018-0.142-0.027-0.278-0.027-0.41c0.219,0.014,0.438,0.022,0.656,0.027v-0.718
		H3.247c-0.232,0-0.467,0.019-0.704,0.055c0.018-0.082,0.027-0.162,0.027-0.239C2.57,181.13,2.561,181.039,2.543,180.952z
		 M3.445,183.003h2.051v-0.492H3.445V183.003z M5.496,183.878v-0.547H3.445v0.547H5.496z M4.074,182.128H4.84v-0.718H4.074V182.128z
		"/>
	<path d="M7.321,181.438c0.264,0.041,0.531,0.062,0.8,0.062h2.454c-0.032-0.456-0.057-0.921-0.075-1.395
		c0.264,0.05,0.481,0.075,0.649,0.075c-0.05,0.26-0.075,0.518-0.075,0.772c0,0.187,0.004,0.369,0.014,0.547h1.483
		c0.264,0,0.531-0.021,0.8-0.062c-0.018,0.104-0.027,0.205-0.027,0.301s0.009,0.187,0.027,0.273c-0.269-0.036-0.536-0.055-0.8-0.055
		h-1.456c0.045,0.656,0.137,1.285,0.273,1.887c0.173,0.752,0.424,1.324,0.752,1.716c0.269,0.265,0.46,0.396,0.574,0.396
		c0.078,0,0.168-0.357,0.273-1.073c0.137,0.169,0.317,0.296,0.54,0.383c-0.1,0.52-0.194,0.868-0.28,1.046
		c-0.109,0.214-0.235,0.321-0.376,0.321c-0.196,0-0.394-0.068-0.595-0.205c-0.551-0.378-0.957-0.991-1.217-1.839
		c-0.132-0.405-0.249-0.984-0.349-1.736c-0.037-0.292-0.068-0.59-0.096-0.896H8.121c-0.269,0-0.536,0.019-0.8,0.055
		c0.018-0.087,0.027-0.178,0.027-0.273S7.339,181.542,7.321,181.438z M7.677,183.215c0.114,0.022,0.223,0.034,0.328,0.034h2.023
		c0.114,0,0.226-0.012,0.335-0.034c-0.023,0.087-0.034,0.169-0.034,0.246c0,0.096,0.011,0.187,0.034,0.273
		c-0.109-0.019-0.221-0.027-0.335-0.027H9.324v1.661c0.401-0.104,0.784-0.219,1.148-0.342c-0.018,0.251-0.027,0.422-0.027,0.513
		c-1.486,0.337-2.436,0.602-2.851,0.793c-0.009-0.164-0.064-0.355-0.164-0.574c0.488-0.073,0.953-0.162,1.395-0.267v-1.784h-0.82
		c-0.105,0-0.214,0.009-0.328,0.027c0.018-0.087,0.027-0.178,0.027-0.273C7.704,183.384,7.695,183.302,7.677,183.215z
		 M12.024,180.289c0.168,0.228,0.417,0.458,0.745,0.69c-0.16,0.082-0.317,0.2-0.472,0.355c-0.182-0.301-0.426-0.559-0.731-0.772
		C11.74,180.499,11.892,180.407,12.024,180.289z"/>
	<path d="M14.518,180.873h2.213c0.938,0,1.422,0.581,1.422,1.268c0,0.329-0.119,0.791-0.672,1.05
		c0.329,0.134,0.911,0.364,0.911,1.227c0,0.805-0.596,1.484-1.709,1.484h-2.165V180.873z M15.198,183.002h1.226
		c0.651,0,1.05-0.196,1.05-0.812c0-0.47-0.287-0.735-1.043-0.735h-1.232V183.002z M15.198,185.32h1.45
		c0.708,0,1.064-0.357,1.064-0.918c0-0.707-0.623-0.848-1.177-0.848h-1.337V185.32z"/>
</g>
</svg>
