<?xml version="1.0" encoding="utf-8"?>
<!-- Generator: Adobe Illustrator 28.2.0, SVG Export Plug-In . SVG Version: 6.00 Build 0)  -->
<svg version="1.1" xmlns="http://www.w3.org/2000/svg" xmlns:xlink="http://www.w3.org/1999/xlink" x="0px" y="0px"
	 width="467.112px" height="194.504px" viewBox="0 0 467.112 194.504" style="enable-background:new 0 0 467.112 194.504;"
	 xml:space="preserve">
<style type="text/css">
	.st0{fill:none;stroke:#D9D9D9;stroke-width:0.5;stroke-linejoin:round;stroke-miterlimit:10;}
	.st1{fill:none;stroke:#B3B3B3;stroke-width:0.5;stroke-linejoin:round;stroke-miterlimit:10;}
	.st2{fill:none;stroke:#00B050;stroke-width:2.28;stroke-linecap:round;stroke-linejoin:round;stroke-miterlimit:10;}
	.st3{fill:none;stroke:#0070C0;stroke-width:2.28;stroke-linecap:round;stroke-linejoin:round;stroke-miterlimit:10;}
	.st4{clip-path:url(#SVGID_00000045617694987981607410000005166746708630953111_);}
	.st5{fill:none;stroke:#00B050;stroke-width:1.5;stroke-linecap:round;stroke-linejoin:round;stroke-miterlimit:10;}
	
		.st6{clip-path:url(#SVGID_00000045617694987981607410000005166746708630953111_);fill:none;stroke:#0070C0;stroke-width:1.5;stroke-linecap:round;stroke-linejoin:round;stroke-miterlimit:10;}
</style>
<g id="レイヤー_1">
	<g>
		<g>
			<path class="st0" d="M43.587,160.295v2.88"/>
		</g>
		<rect x="43.587" y="4.055" class="st1" width="304.56" height="159.12"/>
		<line class="st1" x1="43.587" y1="23.975" x2="348.147" y2="23.975"/>
		<line class="st1" x1="43.587" y1="43.895" x2="348.147" y2="43.895"/>
		<line class="st1" x1="43.587" y1="63.815" x2="348.147" y2="63.815"/>
		<line class="st1" x1="43.587" y1="83.615" x2="348.147" y2="83.615"/>
		<line class="st1" x1="43.587" y1="103.535" x2="348.147" y2="103.535"/>
		<line class="st1" x1="43.587" y1="123.455" x2="348.147" y2="123.455"/>
		<line class="st1" x1="43.587" y1="143.255" x2="348.147" y2="143.255"/>
		<line class="st1" x1="94.347" y1="163.175" x2="94.347" y2="4.055"/>
		<line class="st1" x1="145.107" y1="163.175" x2="145.107" y2="4.055"/>
		<line class="st1" x1="195.867" y1="163.175" x2="195.867" y2="4.055"/>
		<line class="st1" x1="246.627" y1="163.175" x2="246.627" y2="4.055"/>
		<line class="st1" x1="297.387" y1="163.175" x2="297.387" y2="4.055"/>
	</g>
	<g>
		<g>
			<line class="st2" x1="375.207" y1="92.675" x2="394.407" y2="92.675"/>
		</g>
		<g>
			<line class="st3" x1="375.207" y1="109.595" x2="394.407" y2="109.595"/>
		</g>
	</g>
	<g>
		<defs>
			<rect id="SVGID_1_" x="43.587" y="4.055" width="304.56" height="159.12"/>
		</defs>
		<clipPath id="SVGID_00000054238889490567483860000004621365692847320194_">
			<use xlink:href="#SVGID_1_"  style="overflow:visible;"/>
		</clipPath>
		<g style="clip-path:url(#SVGID_00000054238889490567483860000004621365692847320194_);">
			<line class="st5" x1="43.587" y1="163.175" x2="348.147" y2="23.975"/>
		</g>
		
			<line style="clip-path:url(#SVGID_00000054238889490567483860000004621365692847320194_);fill:none;stroke:#0070C0;stroke-width:1.5;stroke-linecap:round;stroke-linejoin:round;stroke-miterlimit:10;" x1="43.587" y1="163.175" x2="348.147" y2="102.275"/>
		
			<use xlink:href="#SVGID_1_"  style="overflow:visible;fill:none;stroke:#B3B3B3;stroke-width:0.5;stroke-linejoin:round;stroke-miterlimit:10;"/>
	</g>
</g>
<g id="レイヤー_2">
	<g>
		<g>
			<g>
				<path d="M34.838,162.992c0,1.495-0.352,2.831-1.903,2.831c-1.559,0-1.911-1.327-1.911-2.887c0-1.423,0.288-2.862,1.911-2.862
					C34.606,160.074,34.838,161.681,34.838,162.992z M32.919,160.505c-1.12,0-1.383,1.239-1.383,2.486
					c0,1.447,0.32,2.398,1.399,2.398c1.215,0,1.392-1.318,1.392-2.454C34.327,161.72,34.11,160.505,32.919,160.505z"/>
			</g>
		</g>
	</g>
	<g>
		<g>
			<g>
				<path d="M22.147,142.03c0-1.111,0.72-1.847,1.831-1.847c1.135,0,1.735,0.695,1.735,1.559c0,1.495-1.615,1.871-2.455,2.511
					c-0.368,0.28-0.711,0.6-0.735,1.136h3.142v0.432h-3.686c0.008-0.536,0.08-0.959,0.44-1.375c1.175-1.359,2.734-1.344,2.734-2.671
					c0-0.735-0.544-1.159-1.239-1.159c-0.736,0-1.255,0.655-1.224,1.415H22.147z"/>
				<path d="M30.169,143.101c0,1.495-0.352,2.831-1.903,2.831c-1.559,0-1.911-1.327-1.911-2.887c0-1.423,0.288-2.862,1.911-2.862
					C29.938,140.183,30.169,141.791,30.169,143.101z M28.25,140.615c-1.12,0-1.383,1.239-1.383,2.486
					c0,1.447,0.32,2.398,1.399,2.398c1.215,0,1.392-1.318,1.392-2.454C29.658,141.83,29.441,140.615,28.25,140.615z"/>
				<path d="M34.617,143.101c0,1.495-0.352,2.831-1.903,2.831c-1.559,0-1.911-1.327-1.911-2.887c0-1.423,0.288-2.862,1.911-2.862
					C34.385,140.183,34.617,141.791,34.617,143.101z M32.698,140.615c-1.119,0-1.383,1.239-1.383,2.486
					c0,1.447,0.32,2.398,1.399,2.398c1.215,0,1.391-1.318,1.391-2.454C34.105,141.83,33.889,140.615,32.698,140.615z"/>
			</g>
		</g>
	</g>
	<g>
		<g>
			<g>
				<path d="M24.458,124.545h-2.574v-0.439l2.622-3.75h0.464v3.758h0.784v0.432h-0.784v1.392h-0.512V124.545z M22.387,124.114h2.071
					v-2.99L22.387,124.114z"/>
				<path d="M30.169,123.218c0,1.495-0.352,2.831-1.903,2.831c-1.559,0-1.911-1.327-1.911-2.887c0-1.423,0.288-2.862,1.911-2.862
					C29.938,120.3,30.169,121.908,30.169,123.218z M28.25,120.732c-1.12,0-1.383,1.239-1.383,2.486c0,1.447,0.32,2.398,1.399,2.398
					c1.215,0,1.392-1.318,1.392-2.454C29.658,121.947,29.441,120.732,28.25,120.732z"/>
				<path d="M34.617,123.218c0,1.495-0.352,2.831-1.903,2.831c-1.559,0-1.911-1.327-1.911-2.887c0-1.423,0.288-2.862,1.911-2.862
					C34.385,120.3,34.617,121.908,34.617,123.218z M32.698,120.732c-1.119,0-1.383,1.239-1.383,2.486
					c0,1.447,0.32,2.398,1.399,2.398c1.215,0,1.391-1.318,1.391-2.454C34.105,121.947,33.889,120.732,32.698,120.732z"/>
			</g>
		</g>
	</g>
	<g>
		<g>
			<g>
				<path d="M25.089,101.8c-0.112-0.575-0.472-0.951-1.071-0.951c-1.383,0-1.503,1.487-1.583,2.551
					c0.32-0.432,0.656-0.88,1.479-0.88c1.135,0,1.791,0.688,1.791,1.815c0,1.135-0.664,1.831-1.807,1.831
					c-1.127,0-1.975-0.704-1.975-2.695c0-1.335,0.392-3.054,2.047-3.054c0.888,0,1.543,0.479,1.647,1.383H25.089z M22.626,104.351
					c0,0.632,0.352,1.383,1.279,1.383c0.952,0,1.288-0.735,1.288-1.415c0-0.871-0.416-1.367-1.295-1.367
					C23.106,102.952,22.626,103.591,22.626,104.351z"/>
				<path d="M30.169,103.335c0,1.495-0.352,2.831-1.903,2.831c-1.559,0-1.911-1.327-1.911-2.887c0-1.423,0.288-2.862,1.911-2.862
					C29.938,100.417,30.169,102.025,30.169,103.335z M28.25,100.849c-1.12,0-1.383,1.239-1.383,2.486
					c0,1.447,0.32,2.398,1.399,2.398c1.215,0,1.392-1.318,1.392-2.454C29.658,102.064,29.441,100.849,28.25,100.849z"/>
				<path d="M34.617,103.335c0,1.495-0.352,2.831-1.903,2.831c-1.559,0-1.911-1.327-1.911-2.887c0-1.423,0.288-2.862,1.911-2.862
					C34.385,100.417,34.617,102.025,34.617,103.335z M32.698,100.849c-1.119,0-1.383,1.239-1.383,2.486
					c0,1.447,0.32,2.398,1.399,2.398c1.215,0,1.391-1.318,1.391-2.454C34.105,102.064,33.889,100.849,32.698,100.849z"/>
			</g>
		</g>
	</g>
	<g>
		<g>
			<g>
				<path d="M22.147,81.91c0-0.775,0.72-1.407,1.607-1.375c0.864,0,1.703,0.408,1.703,1.375c0,0.584-0.232,1-0.768,1.263
					c0.616,0.224,1,0.744,1,1.399c0,1.104-0.784,1.711-1.983,1.711c-0.815,0-1.759-0.56-1.759-1.663
					c0-0.671,0.344-1.231,0.984-1.479C22.387,82.797,22.147,82.582,22.147,81.91z M22.458,84.62c0,0.696,0.544,1.231,1.399,1.231
					c0.744,0,1.319-0.512,1.319-1.263c0-0.792-0.6-1.175-1.351-1.175C23.042,83.413,22.458,83.789,22.458,84.62z M22.659,81.982
					c0,0.695,0.576,0.999,1.199,0.999c0.616,0,1.087-0.312,1.087-1.111c0-0.567-0.368-0.903-1.143-0.903
					C23.17,80.966,22.659,81.318,22.659,81.982z"/>
				<path d="M30.169,83.453c0,1.496-0.352,2.831-1.903,2.831c-1.559,0-1.911-1.327-1.911-2.886c0-1.423,0.288-2.862,1.911-2.862
					C29.938,80.535,30.169,82.142,30.169,83.453z M28.25,80.966c-1.12,0-1.383,1.239-1.383,2.486c0,1.447,0.32,2.399,1.399,2.399
					c1.215,0,1.392-1.319,1.392-2.455C29.658,82.182,29.441,80.966,28.25,80.966z"/>
				<path d="M34.617,83.453c0,1.496-0.352,2.831-1.903,2.831c-1.559,0-1.911-1.327-1.911-2.886c0-1.423,0.288-2.862,1.911-2.862
					C34.385,80.535,34.617,82.142,34.617,83.453z M32.698,80.966c-1.119,0-1.383,1.239-1.383,2.486c0,1.447,0.32,2.399,1.399,2.399
					c1.215,0,1.391-1.319,1.391-2.455C34.105,82.182,33.889,80.966,32.698,80.966z"/>
			</g>
		</g>
	</g>
	<g>
		<g>
			<g>
				<path d="M19.447,62.099h-1.455v-0.336c0.855-0.056,1.391-0.144,1.559-1.111h0.408v5.637h-0.512V62.099z"/>
				<path d="M25.607,63.57c0,1.496-0.352,2.831-1.903,2.831c-1.559,0-1.911-1.327-1.911-2.886c0-1.423,0.288-2.862,1.911-2.862
					C25.375,60.652,25.607,62.259,25.607,63.57z M23.688,61.083c-1.12,0-1.383,1.239-1.383,2.486c0,1.447,0.32,2.399,1.399,2.399
					c1.215,0,1.392-1.319,1.392-2.455C25.095,62.299,24.879,61.083,23.688,61.083z"/>
				<path d="M30.054,63.57c0,1.496-0.352,2.831-1.903,2.831c-1.559,0-1.911-1.327-1.911-2.886c0-1.423,0.288-2.862,1.911-2.862
					C29.823,60.652,30.054,62.259,30.054,63.57z M28.135,61.083c-1.119,0-1.383,1.239-1.383,2.486c0,1.447,0.32,2.399,1.399,2.399
					c1.215,0,1.391-1.319,1.391-2.455C29.542,62.299,29.327,61.083,28.135,61.083z"/>
				<path d="M34.502,63.57c0,1.496-0.352,2.831-1.903,2.831c-1.559,0-1.911-1.327-1.911-2.886c0-1.423,0.288-2.862,1.911-2.862
					C34.271,60.652,34.502,62.259,34.502,63.57z M32.583,61.083c-1.12,0-1.383,1.239-1.383,2.486c0,1.447,0.32,2.399,1.399,2.399
					c1.215,0,1.392-1.319,1.392-2.455C33.991,62.299,33.774,61.083,32.583,61.083z"/>
			</g>
		</g>
	</g>
	<g>
		<g>
			<g>
				<path d="M19.447,42.216h-1.455V41.88c0.855-0.056,1.391-0.144,1.559-1.111h0.408v5.637h-0.512V42.216z"/>
				<path d="M22.033,42.616c0-1.111,0.72-1.847,1.831-1.847c1.135,0,1.735,0.695,1.735,1.559c0,1.495-1.615,1.871-2.455,2.51
					c-0.368,0.28-0.711,0.6-0.735,1.136h3.142v0.432h-3.686c0.008-0.536,0.08-0.959,0.44-1.375c1.175-1.359,2.734-1.344,2.734-2.671
					c0-0.735-0.544-1.159-1.239-1.159c-0.736,0-1.255,0.656-1.224,1.415H22.033z"/>
				<path d="M30.054,43.687c0,1.496-0.352,2.831-1.903,2.831c-1.559,0-1.911-1.327-1.911-2.886c0-1.423,0.288-2.862,1.911-2.862
					C29.823,40.769,30.054,42.376,30.054,43.687z M28.135,41.201c-1.119,0-1.383,1.239-1.383,2.486c0,1.447,0.32,2.399,1.399,2.399
					c1.215,0,1.391-1.319,1.391-2.455C29.542,42.416,29.327,41.201,28.135,41.201z"/>
				<path d="M34.502,43.687c0,1.496-0.352,2.831-1.903,2.831c-1.559,0-1.911-1.327-1.911-2.886c0-1.423,0.288-2.862,1.911-2.862
					C34.271,40.769,34.502,42.376,34.502,43.687z M32.583,41.201c-1.12,0-1.383,1.239-1.383,2.486c0,1.447,0.32,2.399,1.399,2.399
					c1.215,0,1.392-1.319,1.392-2.455C33.991,42.416,33.774,41.201,32.583,41.201z"/>
			</g>
		</g>
	</g>
	<g>
		<g>
			<g>
				<path d="M19.447,22.333h-1.455v-0.336c0.855-0.056,1.391-0.144,1.559-1.111h0.408v5.637h-0.512V22.333z"/>
				<path d="M24.343,25.132h-2.574v-0.44l2.622-3.75h0.464V24.7h0.784v0.432h-0.784v1.391h-0.512V25.132z M22.272,24.7h2.071v-2.99
					L22.272,24.7z"/>
				<path d="M30.054,23.804c0,1.496-0.352,2.831-1.903,2.831c-1.559,0-1.911-1.327-1.911-2.886c0-1.423,0.288-2.862,1.911-2.862
					C29.823,20.886,30.054,22.493,30.054,23.804z M28.135,21.318c-1.119,0-1.383,1.239-1.383,2.486c0,1.447,0.32,2.399,1.399,2.399
					c1.215,0,1.391-1.319,1.391-2.455C29.542,22.533,29.327,21.318,28.135,21.318z"/>
				<path d="M34.502,23.804c0,1.496-0.352,2.831-1.903,2.831c-1.559,0-1.911-1.327-1.911-2.886c0-1.423,0.288-2.862,1.911-2.862
					C34.271,20.886,34.502,22.493,34.502,23.804z M32.583,21.318c-1.12,0-1.383,1.239-1.383,2.486c0,1.447,0.32,2.399,1.399,2.399
					c1.215,0,1.392-1.319,1.392-2.455C33.991,22.533,33.774,21.318,32.583,21.318z"/>
			</g>
		</g>
	</g>
	<g>
		<g>
			<g>
				<path d="M19.447,2.451h-1.455V2.115c0.855-0.056,1.391-0.144,1.559-1.111h0.408V6.64h-0.512V2.451z"/>
				<path d="M24.975,2.386c-0.112-0.575-0.472-0.951-1.071-0.951c-1.383,0-1.503,1.487-1.583,2.551
					c0.32-0.432,0.656-0.88,1.479-0.88c1.135,0,1.791,0.688,1.791,1.815c0,1.136-0.664,1.831-1.807,1.831
					c-1.127,0-1.975-0.704-1.975-2.694c0-1.335,0.392-3.054,2.047-3.054c0.888,0,1.543,0.479,1.647,1.383H24.975z M22.512,4.937
					c0,0.632,0.352,1.383,1.279,1.383c0.952,0,1.288-0.736,1.288-1.415c0-0.872-0.416-1.368-1.295-1.368
					C22.992,3.538,22.512,4.177,22.512,4.937z"/>
				<path d="M30.054,3.921c0,1.496-0.352,2.831-1.903,2.831c-1.559,0-1.911-1.327-1.911-2.886c0-1.423,0.288-2.862,1.911-2.862
					C29.823,1.003,30.054,2.61,30.054,3.921z M28.135,1.435c-1.119,0-1.383,1.239-1.383,2.486c0,1.447,0.32,2.399,1.399,2.399
					c1.215,0,1.391-1.319,1.391-2.455C29.542,2.65,29.327,1.435,28.135,1.435z"/>
				<path d="M34.502,3.921c0,1.496-0.352,2.831-1.903,2.831c-1.559,0-1.911-1.327-1.911-2.886c0-1.423,0.288-2.862,1.911-2.862
					C34.271,1.003,34.502,2.61,34.502,3.921z M32.583,1.435c-1.12,0-1.383,1.239-1.383,2.486c0,1.447,0.32,2.399,1.399,2.399
					c1.215,0,1.392-1.319,1.392-2.455C33.991,2.65,33.774,1.435,32.583,1.435z"/>
			</g>
		</g>
	</g>
	<g>
		<g>
			<g>
				<path d="M45.463,171.695c0,1.495-0.352,2.831-1.903,2.831c-1.559,0-1.911-1.327-1.911-2.887c0-1.423,0.288-2.862,1.911-2.862
					C45.231,168.777,45.463,170.384,45.463,171.695z M43.544,169.208c-1.12,0-1.383,1.239-1.383,2.486
					c0,1.447,0.32,2.398,1.399,2.398c1.215,0,1.392-1.318,1.392-2.454C44.952,170.423,44.735,169.208,43.544,169.208z"/>
			</g>
		</g>
	</g>
	<g>
		<g>
			<g>
				<path d="M85.385,170.224H83.93v-0.336c0.855-0.056,1.391-0.145,1.559-1.111h0.408v5.637h-0.512V170.224z"/>
				<path d="M91.544,171.695c0,1.495-0.352,2.831-1.903,2.831c-1.559,0-1.911-1.327-1.911-2.887c0-1.423,0.288-2.862,1.911-2.862
					C91.312,168.777,91.544,170.384,91.544,171.695z M89.625,169.208c-1.12,0-1.383,1.239-1.383,2.486
					c0,1.447,0.32,2.398,1.399,2.398c1.215,0,1.392-1.318,1.392-2.454C91.033,170.423,90.816,169.208,89.625,169.208z"/>
				<path d="M95.992,171.695c0,1.495-0.352,2.831-1.903,2.831c-1.559,0-1.911-1.327-1.911-2.887c0-1.423,0.288-2.862,1.911-2.862
					C95.76,168.777,95.992,170.384,95.992,171.695z M94.073,169.208c-1.119,0-1.383,1.239-1.383,2.486
					c0,1.447,0.32,2.398,1.399,2.398c1.215,0,1.391-1.318,1.391-2.454C95.48,170.423,95.264,169.208,94.073,169.208z"/>
				<path d="M100.44,171.695c0,1.495-0.352,2.831-1.903,2.831c-1.559,0-1.911-1.327-1.911-2.887c0-1.423,0.288-2.862,1.911-2.862
					C100.208,168.777,100.44,170.384,100.44,171.695z M98.521,169.208c-1.12,0-1.383,1.239-1.383,2.486
					c0,1.447,0.32,2.398,1.399,2.398c1.215,0,1.392-1.318,1.392-2.454C99.928,170.423,99.712,169.208,98.521,169.208z"/>
				<path d="M104.888,171.695c0,1.495-0.352,2.831-1.903,2.831c-1.559,0-1.911-1.327-1.911-2.887c0-1.423,0.288-2.862,1.911-2.862
					C104.656,168.777,104.888,170.384,104.888,171.695z M102.969,169.208c-1.12,0-1.383,1.239-1.383,2.486
					c0,1.447,0.32,2.398,1.399,2.398c1.215,0,1.392-1.318,1.392-2.454C104.376,170.423,104.16,169.208,102.969,169.208z"/>
			</g>
		</g>
	</g>
	<g>
		<g>
			<g>
				<path d="M134.28,170.624c0-1.111,0.72-1.847,1.831-1.847c1.135,0,1.735,0.695,1.735,1.559c0,1.495-1.615,1.871-2.455,2.511
					c-0.368,0.28-0.711,0.6-0.735,1.136h3.142v0.432h-3.686c0.008-0.536,0.08-0.959,0.44-1.375c1.175-1.359,2.734-1.344,2.734-2.671
					c0-0.735-0.544-1.159-1.239-1.159c-0.736,0-1.255,0.655-1.224,1.415H134.28z"/>
				<path d="M142.302,171.695c0,1.495-0.352,2.831-1.903,2.831c-1.559,0-1.911-1.327-1.911-2.887c0-1.423,0.288-2.862,1.911-2.862
					C142.07,168.777,142.302,170.384,142.302,171.695z M140.383,169.208c-1.12,0-1.383,1.239-1.383,2.486
					c0,1.447,0.32,2.398,1.399,2.398c1.215,0,1.392-1.318,1.392-2.454C141.791,170.423,141.574,169.208,140.383,169.208z"/>
				<path d="M146.75,171.695c0,1.495-0.352,2.831-1.903,2.831c-1.559,0-1.911-1.327-1.911-2.887c0-1.423,0.288-2.862,1.911-2.862
					C146.518,168.777,146.75,170.384,146.75,171.695z M144.831,169.208c-1.119,0-1.383,1.239-1.383,2.486
					c0,1.447,0.32,2.398,1.399,2.398c1.215,0,1.391-1.318,1.391-2.454C146.238,170.423,146.022,169.208,144.831,169.208z"/>
				<path d="M151.198,171.695c0,1.495-0.352,2.831-1.903,2.831c-1.559,0-1.911-1.327-1.911-2.887c0-1.423,0.288-2.862,1.911-2.862
					C150.966,168.777,151.198,170.384,151.198,171.695z M149.279,169.208c-1.12,0-1.383,1.239-1.383,2.486
					c0,1.447,0.32,2.398,1.399,2.398c1.215,0,1.392-1.318,1.392-2.454C150.686,170.423,150.47,169.208,149.279,169.208z"/>
				<path d="M155.646,171.695c0,1.495-0.352,2.831-1.903,2.831c-1.559,0-1.911-1.327-1.911-2.887c0-1.423,0.288-2.862,1.911-2.862
					C155.414,168.777,155.646,170.384,155.646,171.695z M153.727,169.208c-1.12,0-1.383,1.239-1.383,2.486
					c0,1.447,0.32,2.398,1.399,2.398c1.215,0,1.392-1.318,1.392-2.454C155.134,170.423,154.918,169.208,153.727,169.208z"/>
			</g>
		</g>
	</g>
	<g>
		<g>
			<g>
				<path d="M186.253,171.279c0.952,0.009,1.615-0.216,1.615-1.079c0-0.695-0.552-0.991-1.2-0.991c-0.719,0-1.207,0.504-1.207,1.207
					h-0.512c0-0.504,0.168-0.911,0.543-1.263c0.352-0.32,0.816-0.376,1.279-0.376c0.888,0,1.607,0.447,1.607,1.391
					c0,0.584-0.256,1.023-0.8,1.256c0.815,0.256,1,0.871,1,1.391c0,0.928-0.656,1.68-1.815,1.712c-1.303,0-1.887-0.433-2.007-1.743
					h0.512c0,0.855,0.567,1.311,1.399,1.311c0.816,0,1.432-0.607,1.399-1.271c-0.032-0.912-0.824-1.199-1.815-1.128V171.279z"/>
				<path d="M193.06,171.695c0,1.495-0.352,2.831-1.903,2.831c-1.559,0-1.911-1.327-1.911-2.887c0-1.423,0.288-2.862,1.911-2.862
					C192.828,168.777,193.06,170.384,193.06,171.695z M191.141,169.208c-1.12,0-1.383,1.239-1.383,2.486
					c0,1.447,0.32,2.398,1.399,2.398c1.215,0,1.392-1.318,1.392-2.454C192.548,170.423,192.332,169.208,191.141,169.208z"/>
				<path d="M197.507,171.695c0,1.495-0.352,2.831-1.903,2.831c-1.559,0-1.911-1.327-1.911-2.887c0-1.423,0.288-2.862,1.911-2.862
					C197.276,168.777,197.507,170.384,197.507,171.695z M195.588,169.208c-1.119,0-1.383,1.239-1.383,2.486
					c0,1.447,0.32,2.398,1.399,2.398c1.215,0,1.391-1.318,1.391-2.454C196.996,170.423,196.78,169.208,195.588,169.208z"/>
				<path d="M201.956,171.695c0,1.495-0.352,2.831-1.903,2.831c-1.559,0-1.911-1.327-1.911-2.887c0-1.423,0.288-2.862,1.911-2.862
					C201.724,168.777,201.956,170.384,201.956,171.695z M200.037,169.208c-1.12,0-1.383,1.239-1.383,2.486
					c0,1.447,0.32,2.398,1.399,2.398c1.215,0,1.392-1.318,1.392-2.454C201.444,170.423,201.228,169.208,200.037,169.208z"/>
				<path d="M206.404,171.695c0,1.495-0.352,2.831-1.903,2.831c-1.559,0-1.911-1.327-1.911-2.887c0-1.423,0.288-2.862,1.911-2.862
					C206.172,168.777,206.404,170.384,206.404,171.695z M204.485,169.208c-1.12,0-1.383,1.239-1.383,2.486
					c0,1.447,0.32,2.398,1.399,2.398c1.215,0,1.392-1.318,1.392-2.454C205.892,170.423,205.676,169.208,204.485,169.208z"/>
			</g>
		</g>
	</g>
	<g>
		<g>
			<g>
				<path d="M238.098,173.022h-2.574v-0.439l2.622-3.75h0.464v3.758h0.784v0.432h-0.784v1.392h-0.512V173.022z M236.028,172.59h2.07
					v-2.99L236.028,172.59z"/>
				<path d="M243.81,171.695c0,1.495-0.352,2.831-1.903,2.831c-1.559,0-1.911-1.327-1.911-2.887c0-1.423,0.288-2.862,1.911-2.862
					C243.578,168.777,243.81,170.384,243.81,171.695z M241.891,169.208c-1.12,0-1.384,1.239-1.384,2.486
					c0,1.447,0.32,2.398,1.399,2.398c1.216,0,1.392-1.318,1.392-2.454C243.298,170.423,243.083,169.208,241.891,169.208z"/>
				<path d="M248.258,171.695c0,1.495-0.353,2.831-1.903,2.831c-1.559,0-1.911-1.327-1.911-2.887c0-1.423,0.288-2.862,1.911-2.862
					C248.026,168.777,248.258,170.384,248.258,171.695z M246.339,169.208c-1.119,0-1.384,1.239-1.384,2.486
					c0,1.447,0.32,2.398,1.399,2.398c1.216,0,1.392-1.318,1.392-2.454C247.747,170.423,247.531,169.208,246.339,169.208z"/>
				<path d="M252.706,171.695c0,1.495-0.353,2.831-1.903,2.831c-1.559,0-1.911-1.327-1.911-2.887c0-1.423,0.288-2.862,1.911-2.862
					C252.473,168.777,252.706,170.384,252.706,171.695z M250.787,169.208c-1.119,0-1.384,1.239-1.384,2.486
					c0,1.447,0.32,2.398,1.399,2.398c1.216,0,1.392-1.318,1.392-2.454C252.194,170.423,251.978,169.208,250.787,169.208z"/>
				<path d="M257.154,171.695c0,1.495-0.352,2.831-1.903,2.831c-1.559,0-1.911-1.327-1.911-2.887c0-1.423,0.288-2.862,1.911-2.862
					C256.921,168.777,257.154,170.384,257.154,171.695z M255.235,169.208c-1.12,0-1.384,1.239-1.384,2.486
					c0,1.447,0.32,2.398,1.399,2.398c1.216,0,1.392-1.318,1.392-2.454C256.642,170.423,256.426,169.208,255.235,169.208z"/>
			</g>
		</g>
	</g>
	<g>
		<g>
			<g>
				<path d="M286.778,172.951c0.104,0.76,0.655,1.143,1.391,1.143c0.84,0,1.352-0.639,1.352-1.438c0-0.84-0.544-1.432-1.399-1.432
					c-0.504,0-0.911,0.176-1.224,0.584l-0.424-0.056l0.456-2.919h2.799v0.432h-2.367l-0.352,1.896
					c0.439-0.288,0.728-0.368,1.239-0.368c1.031,0,1.783,0.704,1.783,1.863c0,1.183-0.855,1.871-1.783,1.871
					c-1.063,0-1.895-0.408-1.982-1.575H286.778z"/>
				<path d="M294.56,171.695c0,1.495-0.352,2.831-1.903,2.831c-1.559,0-1.911-1.327-1.911-2.887c0-1.423,0.288-2.862,1.911-2.862
					C294.328,168.777,294.56,170.384,294.56,171.695z M292.641,169.208c-1.12,0-1.384,1.239-1.384,2.486
					c0,1.447,0.32,2.398,1.399,2.398c1.216,0,1.392-1.318,1.392-2.454C294.048,170.423,293.833,169.208,292.641,169.208z"/>
				<path d="M299.008,171.695c0,1.495-0.353,2.831-1.903,2.831c-1.559,0-1.911-1.327-1.911-2.887c0-1.423,0.288-2.862,1.911-2.862
					C298.776,168.777,299.008,170.384,299.008,171.695z M297.089,169.208c-1.119,0-1.384,1.239-1.384,2.486
					c0,1.447,0.32,2.398,1.399,2.398c1.216,0,1.392-1.318,1.392-2.454C298.497,170.423,298.281,169.208,297.089,169.208z"/>
				<path d="M303.456,171.695c0,1.495-0.353,2.831-1.903,2.831c-1.559,0-1.911-1.327-1.911-2.887c0-1.423,0.288-2.862,1.911-2.862
					C303.223,168.777,303.456,170.384,303.456,171.695z M301.537,169.208c-1.119,0-1.384,1.239-1.384,2.486
					c0,1.447,0.32,2.398,1.399,2.398c1.216,0,1.392-1.318,1.392-2.454C302.944,170.423,302.728,169.208,301.537,169.208z"/>
				<path d="M307.904,171.695c0,1.495-0.352,2.831-1.903,2.831c-1.559,0-1.911-1.327-1.911-2.887c0-1.423,0.288-2.862,1.911-2.862
					C307.671,168.777,307.904,170.384,307.904,171.695z M305.985,169.208c-1.12,0-1.384,1.239-1.384,2.486
					c0,1.447,0.32,2.398,1.399,2.398c1.216,0,1.392-1.318,1.392-2.454C307.392,170.423,307.176,169.208,305.985,169.208z"/>
			</g>
		</g>
	</g>
	<g>
		<g>
			<g>
				<path d="M340.23,170.16c-0.112-0.575-0.472-0.951-1.071-0.951c-1.384,0-1.503,1.487-1.583,2.551
					c0.319-0.432,0.655-0.88,1.479-0.88c1.136,0,1.791,0.688,1.791,1.815c0,1.135-0.663,1.831-1.807,1.831
					c-1.127,0-1.975-0.704-1.975-2.695c0-1.335,0.392-3.054,2.047-3.054c0.887,0,1.543,0.479,1.646,1.383H340.23z M337.767,172.71
					c0,0.632,0.352,1.383,1.279,1.383c0.951,0,1.287-0.735,1.287-1.415c0-0.871-0.415-1.367-1.295-1.367
					C338.247,171.311,337.767,171.951,337.767,172.71z"/>
				<path d="M345.31,171.695c0,1.495-0.352,2.831-1.903,2.831c-1.559,0-1.911-1.327-1.911-2.887c0-1.423,0.288-2.862,1.911-2.862
					C345.078,168.777,345.31,170.384,345.31,171.695z M343.391,169.208c-1.12,0-1.384,1.239-1.384,2.486
					c0,1.447,0.32,2.398,1.399,2.398c1.216,0,1.392-1.318,1.392-2.454C344.798,170.423,344.583,169.208,343.391,169.208z"/>
				<path d="M349.758,171.695c0,1.495-0.353,2.831-1.903,2.831c-1.559,0-1.911-1.327-1.911-2.887c0-1.423,0.288-2.862,1.911-2.862
					C349.526,168.777,349.758,170.384,349.758,171.695z M347.839,169.208c-1.119,0-1.384,1.239-1.384,2.486
					c0,1.447,0.32,2.398,1.399,2.398c1.216,0,1.392-1.318,1.392-2.454C349.247,170.423,349.031,169.208,347.839,169.208z"/>
				<path d="M354.206,171.695c0,1.495-0.353,2.831-1.903,2.831c-1.559,0-1.911-1.327-1.911-2.887c0-1.423,0.288-2.862,1.911-2.862
					C353.973,168.777,354.206,170.384,354.206,171.695z M352.287,169.208c-1.119,0-1.384,1.239-1.384,2.486
					c0,1.447,0.32,2.398,1.399,2.398c1.216,0,1.392-1.318,1.392-2.454C353.694,170.423,353.478,169.208,352.287,169.208z"/>
				<path d="M358.654,171.695c0,1.495-0.352,2.831-1.903,2.831c-1.559,0-1.911-1.327-1.911-2.887c0-1.423,0.288-2.862,1.911-2.862
					C358.421,168.777,358.654,170.384,358.654,171.695z M356.735,169.208c-1.12,0-1.384,1.239-1.384,2.486
					c0,1.447,0.32,2.398,1.399,2.398c1.216,0,1.392-1.318,1.392-2.454C358.142,170.423,357.926,169.208,356.735,169.208z"/>
			</g>
		</g>
	</g>
	<g>
		<g>
			<g>
				<path d="M0.448,101.9c0.037-0.177,0.055-0.406,0.055-0.688c0.312,0.089,0.675,0.133,1.086,0.133h0.453v-0.789
					c0-0.297-0.023-0.597-0.07-0.898c0.198,0.042,0.396,0.062,0.594,0.062c1.953,0,3.141-0.058,3.562-0.172
					c0.542-0.125,0.812-0.227,0.812-0.305c-0.094-0.036-0.438-0.086-1.031-0.148c0.219-0.172,0.378-0.372,0.477-0.602
					c0.917,0.219,1.375,0.409,1.375,0.57c-0.016,0.183-0.162,0.375-0.438,0.578c-0.297,0.203-0.713,0.359-1.25,0.469
					c-0.635,0.109-1.805,0.164-3.508,0.164v1.07h0.164c0.859,0,1.576,0.039,2.148,0.117c0.188-0.25,0.378-0.508,0.57-0.773
					c0.183,0.192,0.357,0.328,0.523,0.406c-0.161,0.167-0.312,0.325-0.453,0.477c0.229,0.062,0.425,0.128,0.586,0.195
					c0.641,0.292,1.213,0.794,1.719,1.508c-0.193,0.13-0.339,0.3-0.438,0.508c-0.516-0.812-1.057-1.344-1.625-1.594
					c-0.167-0.067-0.37-0.125-0.609-0.172c-0.266,0.328-0.5,0.656-0.703,0.984c-0.135-0.161-0.281-0.3-0.438-0.414
					c0.167-0.214,0.339-0.438,0.516-0.672c-0.5-0.052-1.099-0.078-1.797-0.078H2.565v0.289c0,0.266,0.021,0.534,0.062,0.805
					c-0.109-0.021-0.224-0.031-0.344-0.031c-0.099,0-0.203,0.011-0.312,0.031c0.047-0.271,0.07-0.539,0.07-0.805v-0.289H1.877
					C1.456,101.838,0.979,101.858,0.448,101.9z M2.01,105.752c0.042-0.297,0.062-0.591,0.062-0.883v-0.281H0.94
					c-0.161,0-0.325,0.011-0.492,0.031c0.021-0.198,0.031-0.417,0.031-0.656c0.151,0.067,0.328,0.102,0.531,0.102h1.062v-0.031
					c0-0.297-0.021-0.591-0.062-0.883c0.104,0.021,0.206,0.031,0.305,0.031c0.109,0,0.214-0.011,0.312-0.031
					c-0.042,0.292-0.062,0.586-0.062,0.883v0.031h1.719c-0.135-0.323-0.281-0.628-0.438-0.914c0.302,0.021,0.513,0.031,0.633,0.031
					c0.109,0.328,0.216,0.622,0.32,0.883h2.367c0.255,0,0.424,0.104,0.508,0.312c0.078,0.208,0.117,0.508,0.117,0.898
					c-0.25,0.058-0.458,0.161-0.625,0.312v-0.438c0-0.375-0.097-0.562-0.289-0.562H5.018c0.219,0.526,0.401,0.894,0.547,1.102
					c-0.198,0.011-0.427,0.07-0.688,0.18c-0.104-0.448-0.231-0.875-0.383-1.281h-1.93v0.281c0,0.292,0.021,0.586,0.062,0.883
					c-0.099-0.021-0.203-0.031-0.312-0.031C2.216,105.721,2.115,105.731,2.01,105.752z"/>
				<path d="M0.509,95.68c1.495,0.92,1.975,1.688,2.175,2.007l-0.44,0.168c-0.392-0.735-1.263-1.439-1.935-1.814L0.509,95.68z
					 M1.133,90.811v4.109H0.709v-4.109H1.133z M4.563,97.91c-0.76-1.079-1.775-1.719-2.511-2.095l0.192-0.352
					c0.224,0.112,0.656,0.328,1.303,0.815h4.118v0.456H4.099c0.568,0.535,0.775,0.848,0.903,1.031L4.563,97.91z M3.292,90.49v1.359
					h3.782c0.184,0,0.591,0.008,0.591,0.544v1.287l-0.479,0.072l0.024-1.239c0-0.176-0.04-0.208-0.224-0.208H3.292v2.95H2.884V90.49
					H3.292z"/>
				<path d="M6.506,82.746c-0.376,0.704-0.864,1.487-1.759,2.151h1.951v0.432H4.795c0.167,0.12,1.039,0.8,1.663,2.062l-0.36,0.256
					c-0.48-1.063-1.264-1.854-1.855-2.271v1.911H2.22v-1.959H1.517v2.391H1.133v-2.391h-0.8v-0.432h0.8v-2.398h0.384v2.398H2.22
					v-1.983h2.023v1.919c0.607-0.399,1.439-1.215,1.855-2.358L6.506,82.746z M1.932,88.224c-0.456,0.392-1.023,1.175-1.175,1.391
					l-0.328-0.271c0.328-0.496,0.751-1.023,1.151-1.423L1.932,88.224z M2.596,83.346v1.552h1.279v-1.552H2.596z M2.596,85.329v1.543
					h1.279v-1.543H2.596z M3.507,88.264h2.151c0.384-0.08,1.431-0.296,1.431-2.119v-3.702l0.416,0.08v3.654
					c0,1.519-0.784,2.03-1.12,2.255c0.584,0.424,1.04,0.888,1.303,1.183l-0.416,0.248c-0.272-0.359-0.824-0.928-1.175-1.167H3.907
					v1.136h-0.4V88.264z"/>
				<path d="M1.053,78.28h-0.72v-0.464h0.72v-3.334h0.4v1.495H2.3v-1.495h0.392v1.495h1.319v3.326H2.692v1.447h1.319
					c0.216,0,1.079,0.017,2.063,0.216c0.896,0.176,1.359,0.496,1.535,0.616l-0.328,0.392c-0.248-0.16-0.647-0.416-1.359-0.56
					c-1.008-0.208-1.583-0.208-1.951-0.208H1.053V78.28z M1.453,76.409v2.463H2.3v-2.463H1.453z M1.453,79.304v1.447H2.3v-1.447
					H1.453z M2.692,76.409v2.463h0.952v-2.463H2.692z M7.665,74.587c-0.048,0.424-0.176,1.623-0.768,2.99
					c0.568,1.207,0.704,2.318,0.776,2.895L7.25,80.663c-0.064-0.607-0.176-1.503-0.6-2.566c-0.288,0.544-0.688,1.151-1.239,1.567
					l-0.2-0.36c0.256-0.256,0.768-0.751,1.224-1.695c-0.264-0.535-0.696-1.23-1.383-1.631v4.397h-0.4v-4.98h0.416
					c0.592,0.335,1.112,0.863,1.583,1.679c0.416-1.216,0.52-2.199,0.567-2.671L7.665,74.587z"/>
				<path d="M8.041,73.015v-0.864h0.568v1.495h-7.34v-1.495h0.568v0.864H8.041z"/>
				<path d="M7.042,68.68H6.434l-0.016,0.016c0.488,0.295,0.744,0.655,0.744,1.327c0,0.16-0.032,0.456-0.272,0.64v0.016h1.807v0.704
					H5.866H2.86v-0.704h2.774c0.688,0,0.919-0.352,0.919-0.807c0-0.888-0.784-1.151-1.391-1.151H2.86v-0.704h4.182V68.68z"/>
				<path d="M4.051,64.408c-0.264,0.008-0.704,0.104-0.704,0.992c0,0.216,0.072,0.832,0.591,0.832c0.344,0,0.424-0.216,0.56-0.76
					l0.176-0.704c0.216-0.872,0.536-1.175,1.104-1.175c0.863,0,1.383,0.711,1.383,1.655c0,1.655-0.959,1.775-1.463,1.799v-0.68
					c0.328-0.024,0.855-0.12,0.855-1.111c0-0.504-0.2-0.959-0.664-0.959c-0.336,0-0.448,0.232-0.6,0.832l-0.2,0.815
					c-0.144,0.584-0.439,0.968-1.015,0.968c-0.919,0-1.335-0.76-1.335-1.583c0-1.495,1.104-1.599,1.312-1.599V64.408z"/>
				<path d="M1.836,62.215v0.864H1.269v-1.496h7.34v1.496H8.041v-0.864H1.836z"/>
			</g>
		</g>
	</g>
	<g>
		<g>
			<g>
				<path d="M178.072,186.57c0.13,0.026,0.255,0.039,0.375,0.039h0.852v-1.039c0-0.172-0.011-0.347-0.031-0.523
					c0.213,0.036,0.442,0.055,0.688,0.055c-0.062,0.167-0.094,0.356-0.094,0.57v0.938h0.492c0.13,0,0.255-0.013,0.375-0.039
					c-0.021,0.099-0.031,0.192-0.031,0.281c0,0.109,0.01,0.214,0.031,0.312c-0.12-0.021-0.245-0.031-0.375-0.031h-0.492v1.398
					c0.307-0.114,0.596-0.237,0.867-0.367c-0.021,0.308-0.031,0.516-0.031,0.625c-0.312,0.104-0.591,0.198-0.836,0.281v2.695
					c0,0.271-0.102,0.448-0.305,0.531c-0.193,0.083-0.479,0.125-0.859,0.125c-0.047-0.261-0.151-0.479-0.312-0.656h0.477
					c0.292,0,0.438-0.106,0.438-0.32v-2.172c-0.521,0.192-0.886,0.356-1.094,0.492c-0.011-0.203-0.076-0.433-0.195-0.688
					c0.448-0.094,0.877-0.208,1.289-0.344v-1.602h-0.852c-0.12,0-0.245,0.011-0.375,0.031c0.021-0.099,0.031-0.203,0.031-0.312
					C178.104,186.762,178.093,186.668,178.072,186.57z M181.135,188.539c0.286,0.047,0.567,0.07,0.844,0.07h1.852
					c0.281,0,0.56-0.023,0.836-0.07c-0.037,0.25-0.055,0.503-0.055,0.758v2.273c0,0.276,0.018,0.55,0.055,0.82
					c-0.156-0.021-0.261-0.031-0.312-0.031c-0.052,0-0.167,0.011-0.344,0.031c0.036-0.219,0.055-0.438,0.055-0.656h-2.328
					c0.005,0.219,0.023,0.438,0.055,0.656c-0.167-0.021-0.281-0.031-0.344-0.031c-0.052,0-0.156,0.011-0.312,0.031
					c0.047-0.271,0.07-0.544,0.07-0.82v-2.273C181.205,189.042,181.182,188.789,181.135,188.539z M184.518,185.421
					c0.109,0.229,0.255,0.417,0.438,0.562c-0.141,0.016-0.378,0.065-0.711,0.148c-0.802,0.234-1.62,0.445-2.453,0.633v0.625
					c0,0.146,0.062,0.219,0.188,0.219h2.031c0.234,0,0.403-0.05,0.508-0.148c0.099-0.083,0.148-0.308,0.148-0.672
					c0.114,0.151,0.284,0.255,0.508,0.312c-0.058,0.339-0.141,0.575-0.25,0.711c-0.141,0.177-0.404,0.266-0.789,0.266h-2.375
					c-0.323,0-0.487-0.114-0.492-0.344v-2.164c0-0.172-0.021-0.347-0.062-0.523c0.219,0.036,0.438,0.055,0.656,0.055
					c-0.047,0.094-0.07,0.2-0.07,0.32v0.938c0.438-0.109,0.864-0.229,1.281-0.359C183.645,185.828,184.127,185.635,184.518,185.421z
					 M181.729,189.882h2.344v-0.805h-2.344V189.882z M181.729,191.257h2.344v-0.898h-2.344V191.257z"/>
				<path d="M189.322,185.015c0.286,0.141,0.591,0.234,0.914,0.281c-0.13,0.089-0.258,0.2-0.383,0.336
					c0.328,0.511,0.747,0.948,1.258,1.312c0.505,0.364,1.242,0.688,2.211,0.969c-0.208,0.198-0.373,0.44-0.492,0.727
					c-0.943-0.433-1.662-0.862-2.156-1.289c-0.464-0.364-0.839-0.82-1.125-1.367c-0.781,0.958-1.802,1.844-3.062,2.656
					c-0.136-0.192-0.344-0.38-0.625-0.562c0.849-0.396,1.565-0.867,2.148-1.414C188.583,186.148,189.02,185.598,189.322,185.015z
					 M186.729,188.851c0.208,0.021,0.417,0.031,0.625,0.031h3.781c0.328,0,0.651-0.011,0.969-0.031
					c-0.484,0.567-1.195,1.427-2.133,2.578c0.417,0.172,0.838,0.347,1.266,0.523c-0.214,0.198-0.362,0.394-0.445,0.586
					c-1.167-0.646-2.341-1.175-3.523-1.586c0.172-0.151,0.315-0.32,0.43-0.508c0.536,0.239,1.094,0.484,1.672,0.734l1.555-1.734
					h-3.57c-0.208,0-0.417,0.011-0.625,0.031c0.021-0.099,0.031-0.203,0.031-0.312C186.76,189.065,186.749,188.96,186.729,188.851z
					 M189.611,187.015c0.12,0.354,0.284,0.737,0.492,1.148c-0.203,0.042-0.409,0.117-0.617,0.227
					c-0.089-0.375-0.248-0.784-0.477-1.227C189.223,187.137,189.424,187.088,189.611,187.015z"/>
				<path d="M194.174,186.82c0.292,0.042,0.581,0.062,0.867,0.062h0.82v-0.969c0-0.292-0.023-0.581-0.07-0.867
					c0.192,0.021,0.424,0.031,0.695,0.031c-0.068,0.141-0.102,0.317-0.102,0.531v1.273h0.656c0.297,0,0.591-0.021,0.883-0.062
					c-0.021,0.109-0.031,0.214-0.031,0.312c0,0.109,0.01,0.214,0.031,0.312c-0.292-0.036-0.586-0.055-0.883-0.055h-0.656v0.18
					c0,0.349,0.021,0.695,0.062,1.039c-0.109-0.026-0.224-0.039-0.344-0.039c-0.099,0-0.203,0.013-0.312,0.039
					c0.047-0.344,0.07-0.69,0.07-1.039v-0.18h-0.062c-0.271,0.531-0.742,1.062-1.414,1.594c-0.083-0.146-0.227-0.284-0.43-0.414
					c0.338-0.151,0.638-0.354,0.898-0.609c0.182-0.156,0.344-0.347,0.484-0.57h-0.297c-0.287,0-0.576,0.019-0.867,0.055
					c0.021-0.099,0.031-0.203,0.031-0.312C194.205,187.034,194.194,186.929,194.174,186.82z M195.697,188.671
					c0.182,0.067,0.411,0.128,0.688,0.18c-0.177,0.156-0.308,0.325-0.391,0.508h1.047c0.219,0,0.438-0.011,0.656-0.031
					c-0.38,0.761-0.706,1.289-0.977,1.586l-0.008,0.023c0.317,0.099,0.635,0.206,0.953,0.32c-0.151,0.172-0.266,0.349-0.344,0.531
					c-0.24-0.13-0.565-0.281-0.977-0.453c-0.13,0.125-0.281,0.253-0.453,0.383c-0.505,0.323-0.953,0.547-1.344,0.672
					c-0.167-0.161-0.347-0.308-0.539-0.438c0.797-0.219,1.37-0.472,1.719-0.758c0.031-0.021,0.062-0.042,0.094-0.062
					c-0.328-0.109-0.732-0.224-1.211-0.344c0.281-0.396,0.477-0.706,0.586-0.93c0-0.005,0.002-0.008,0.008-0.008h-0.375
					c-0.219,0-0.438,0.011-0.656,0.031c0.021-0.109,0.031-0.224,0.031-0.344c0-0.073-0.011-0.144-0.031-0.211
					c0.219,0.021,0.438,0.031,0.656,0.031h0.609C195.528,189.161,195.614,188.932,195.697,188.671z M195.01,185.421l0.508,1.023
					c-0.208,0.026-0.396,0.067-0.562,0.125c-0.125-0.438-0.271-0.792-0.438-1.062C194.663,185.502,194.827,185.473,195.01,185.421z
					 M196.213,190.765c0.224-0.239,0.45-0.544,0.68-0.914h-1.125c-0.089,0.208-0.195,0.438-0.32,0.688
					C195.702,190.612,195.958,190.687,196.213,190.765z M196.861,187.507c0.208,0.229,0.487,0.492,0.836,0.789
					c-0.151,0.089-0.284,0.224-0.398,0.406c-0.078-0.12-0.19-0.258-0.336-0.414c-0.162-0.167-0.31-0.302-0.445-0.406
					C196.647,187.789,196.762,187.664,196.861,187.507z M197.174,185.476c0.161,0.073,0.367,0.117,0.617,0.133
					c-0.193,0.183-0.388,0.503-0.586,0.961h-0.445C196.89,186.289,197.028,185.924,197.174,185.476z M198.791,185.101
					c0.224,0.114,0.477,0.19,0.758,0.227c-0.109,0.198-0.248,0.536-0.414,1.016c-0.031,0.099-0.062,0.198-0.094,0.297h1.195
					c0.25,0,0.518-0.011,0.805-0.031c-0.021,0.099-0.031,0.19-0.031,0.273c0,0.125,0.01,0.229,0.031,0.312
					c-0.167-0.016-0.391-0.026-0.672-0.031c-0.052,1.125-0.115,1.87-0.188,2.234c-0.12,0.562-0.294,1.016-0.523,1.359
					c0.088,0.136,0.19,0.255,0.305,0.359c0.333,0.281,0.747,0.505,1.242,0.672c-0.219,0.208-0.357,0.409-0.414,0.602
					c-0.302-0.136-0.669-0.396-1.102-0.781c-0.13-0.146-0.25-0.294-0.359-0.445c-0.417,0.464-0.99,0.901-1.719,1.312
					c-0.12-0.192-0.31-0.325-0.57-0.398c0.797-0.37,1.356-0.722,1.68-1.055c0.125-0.109,0.231-0.222,0.32-0.336
					c-0.083-0.167-0.156-0.339-0.219-0.516c-0.203-0.683-0.315-1.315-0.336-1.898c0-0.021,0-0.036,0-0.047h0.016
					c0.167,0,0.356-0.011,0.57-0.031c-0.021,0.151-0.031,0.289-0.031,0.414c0,0.411,0.096,0.911,0.289,1.5
					c0.01,0.031,0.021,0.058,0.031,0.078c0.094-0.183,0.169-0.37,0.227-0.562c0.135-0.495,0.231-1.315,0.289-2.461h-1
					c-0.12,0.354-0.245,0.708-0.375,1.062c-0.005,0.016-0.011,0.031-0.016,0.047c-0.083,0.229-0.167,0.456-0.25,0.68
					c-0.183-0.141-0.391-0.234-0.625-0.281c0.25-0.391,0.497-0.964,0.742-1.719C198.479,186.62,198.624,186.002,198.791,185.101z"/>
				<path d="M202.778,192.639h0.864v0.568h-1.495v-7.34h1.495v0.567h-0.864V192.639z"/>
				<path d="M207.546,185.015c0.229,0.151,0.479,0.266,0.75,0.344c-0.078,0.078-0.169,0.183-0.273,0.312
					c0.328,0.583,0.758,1.073,1.289,1.469c0.474,0.364,1.169,0.685,2.086,0.961c-0.208,0.198-0.378,0.438-0.508,0.719
					c-0.88-0.427-1.552-0.852-2.016-1.273c-0.469-0.38-0.841-0.87-1.117-1.469c-0.479,0.781-0.987,1.406-1.523,1.875
					c-0.37,0.344-0.867,0.698-1.492,1.062c-0.125-0.198-0.323-0.378-0.594-0.539c0.547-0.219,1.031-0.503,1.453-0.852
					c0.401-0.308,0.789-0.708,1.164-1.203C207.109,185.968,207.369,185.5,207.546,185.015z M207.398,187.64
					c0.224,0.021,0.492,0.031,0.805,0.031c-0.058,0.183-0.086,0.411-0.086,0.688v2.867c0,0.417,0.021,0.833,0.062,1.25
					c-0.141-0.021-0.276-0.031-0.406-0.031c-0.13,0-0.255,0.011-0.375,0.031c0.042-0.417,0.062-0.833,0.062-1.25v-2.492
					C207.46,188.364,207.439,188,207.398,187.64z"/>
				<path d="M212.954,186.435h-0.864v-0.567h1.496v7.34h-1.496v-0.568h0.864V186.435z"/>
			</g>
		</g>
	</g>
	<g>
		<path d="M401.408,95.806h-0.775v-5.741h0.775v2.782l2.782-2.782h1.072l-2.391,2.318l2.455,3.422h-1.008l-2.007-2.878l-0.903,0.863
			V95.806z"/>
		<path d="M409.663,90.065h0.872l-2.095,5.741h-0.823l-2.095-5.741h0.864l1.639,4.893h0.016L409.663,90.065z"/>
		<path d="M413.007,93.951h-1.958v-0.72h1.958V93.951z"/>
		<path d="M418.542,95.806h-0.959l-1.543-2.359l-1.591,2.359h-0.936l2.055-2.942l-1.927-2.798h0.976l1.455,2.199l1.455-2.199h0.928
			l-1.927,2.798L418.542,95.806z"/>
		<path d="M420.488,92.607c0.12,0.008,0.248,0.016,0.368,0.016c0.544,0,1.071-0.216,1.071-0.919c0-0.336-0.2-0.888-1.039-0.888
			c-1,0-1.063,0.815-1.096,1.208h-0.688c0-0.824,0.336-1.839,1.815-1.839c1.087,0,1.735,0.624,1.735,1.479
			c0,0.719-0.416,1.063-0.72,1.159v0.016c0.543,0.176,0.936,0.56,0.936,1.311c0,0.919-0.592,1.807-2.023,1.807
			c-0.416,0-0.768-0.104-1.04-0.248c-0.624-0.328-0.792-0.975-0.839-1.623h0.728c0.024,0.528,0.152,1.239,1.199,1.239
			c0.72,0,1.224-0.439,1.224-1.087c0-0.944-0.832-1.032-1.312-1.032c-0.104,0-0.216,0.008-0.32,0.008V92.607z"/>
		<path d="M425.367,95.958c-1.615,0-1.927-1.719-1.927-2.886s0.312-2.887,1.927-2.887s1.927,1.719,1.927,2.887
			S426.982,95.958,425.367,95.958z M425.367,90.816c-0.808,0-1.175,0.848-1.175,2.255s0.368,2.254,1.175,2.254
			s1.175-0.847,1.175-2.254S426.175,90.816,425.367,90.816z"/>
		<path d="M429.815,95.958c-1.615,0-1.927-1.719-1.927-2.886s0.312-2.887,1.927-2.887s1.927,1.719,1.927,2.887
			S431.431,95.958,429.815,95.958z M429.815,90.816c-0.808,0-1.175,0.848-1.175,2.255s0.368,2.254,1.175,2.254
			s1.175-0.847,1.175-2.254S430.623,90.816,429.815,90.816z"/>
		<path d="M434.229,94.596c0.182,0.167,0.411,0.292,0.688,0.375c-0.641,0.516-1.237,1.026-1.789,1.531
			c-0.219-0.203-0.417-0.336-0.594-0.398c0.297-0.161,0.581-0.354,0.852-0.578C433.733,95.25,434.015,94.939,434.229,94.596z
			 M438.502,90.314c-0.203,0-1.123,0.091-2.758,0.273c0.151,0.13,0.323,0.237,0.516,0.32c-0.667,0.276-1.367,0.724-2.102,1.344
			l2.398-0.281c0.396-0.323,0.711-0.656,0.945-1c0.219,0.203,0.492,0.362,0.82,0.477c-0.469,0.25-0.917,0.526-1.344,0.828
			c-0.547,0.391-1.373,0.914-2.477,1.57l3.523-0.258c-0.292-0.266-0.57-0.481-0.836-0.648c0.172-0.125,0.32-0.289,0.445-0.492
			c0.463,0.474,1.075,1.016,1.836,1.625c-0.183,0.12-0.347,0.294-0.492,0.523c-0.141-0.192-0.339-0.414-0.594-0.664
			c-0.745,0.062-1.414,0.12-2.008,0.172v2.25c0,0.172-0.091,0.297-0.273,0.375c-0.172,0.078-0.519,0.117-1.039,0.117
			c-0.011-0.255-0.083-0.482-0.219-0.68c0.302,0.036,0.531,0.055,0.688,0.055c0.161,0,0.245-0.06,0.25-0.18V94.15
			c-1.412,0.13-2.308,0.229-2.688,0.297c-0.026-0.203-0.097-0.411-0.211-0.625c0.635-0.125,1.127-0.273,1.477-0.445
			c0.521-0.239,1.065-0.565,1.633-0.977c-1.203,0.104-2.044,0.234-2.523,0.391c-0.031-0.245-0.112-0.445-0.242-0.602
			c0.885-0.364,1.625-0.888,2.219-1.57c-0.714,0.083-1.547,0.18-2.5,0.289c-0.073-0.239-0.188-0.479-0.344-0.719
			c0.292,0.021,0.664,0.031,1.117,0.031c2.021-0.099,3.638-0.307,4.852-0.625c0.13,0.318,0.286,0.57,0.469,0.758
			C438.854,90.328,438.674,90.314,438.502,90.314z M437.572,94.627c0.448,0.412,1.042,0.883,1.781,1.414
			c-0.188,0.114-0.357,0.278-0.508,0.492c-0.156-0.198-0.398-0.44-0.727-0.727c-0.339-0.297-0.659-0.531-0.961-0.703
			C437.314,94.979,437.452,94.82,437.572,94.627z"/>
		<path d="M440.846,89.939c0.328,0.047,0.651,0.07,0.969,0.07h1.883c0.317,0,0.641-0.023,0.969-0.07
			c-0.021,0.12-0.031,0.234-0.031,0.344c0,0.12,0.01,0.234,0.031,0.344c-0.328-0.042-0.651-0.062-0.969-0.062h-0.789
			c-0.068,0.443-0.159,0.852-0.273,1.227h1.148c0.208,0,0.417-0.01,0.625-0.031c-0.183,1.042-0.333,1.771-0.453,2.188
			c-0.141,0.495-0.406,0.987-0.797,1.477c-0.365,0.453-0.873,0.888-1.523,1.305c-0.167-0.208-0.365-0.378-0.594-0.508
			c0.656-0.323,1.159-0.664,1.508-1.023c0.198-0.208,0.362-0.409,0.492-0.602c-0.344-0.297-0.719-0.555-1.125-0.773
			c0.167-0.109,0.312-0.245,0.438-0.406c0.297,0.224,0.622,0.438,0.977,0.641c0.167-0.385,0.307-0.966,0.422-1.742h-1.312
			c-0.292,0.688-0.708,1.312-1.25,1.875c-0.162-0.182-0.38-0.305-0.656-0.367c0.542-0.417,0.963-0.919,1.266-1.508
			c0.286-0.536,0.456-1.12,0.508-1.75h-0.492c-0.318,0-0.641,0.021-0.969,0.062c0.026-0.109,0.039-0.224,0.039-0.344
			C440.885,90.174,440.872,90.06,440.846,89.939z M445.01,90.596c0.208,0.021,0.456,0.031,0.742,0.031
			c-0.058,0.156-0.086,0.354-0.086,0.594v2.789c0,0.38,0.018,0.766,0.055,1.156c-0.125-0.021-0.248-0.031-0.367-0.031
			c-0.12,0-0.234,0.011-0.344,0.031c0.036-0.391,0.055-0.776,0.055-1.156v-2.414C445.064,91.268,445.046,90.935,445.01,90.596z
			 M446.502,89.533c0.234,0.042,0.487,0.062,0.758,0.062c-0.068,0.183-0.102,0.391-0.102,0.625v5.914
			c0,0.297-0.125,0.492-0.375,0.586c-0.25,0.083-0.612,0.125-1.086,0.125c-0.058-0.281-0.172-0.519-0.344-0.711h0.531
			c0.432,0,0.648-0.114,0.648-0.344v-5.656C446.533,89.932,446.522,89.731,446.502,89.533z"/>
	</g>
	<g>
		<path d="M401.408,112.467h-0.775v-5.741h0.775v2.782l2.782-2.782h1.072l-2.391,2.318l2.455,3.422h-1.008l-2.007-2.878
			l-0.903,0.863V112.467z"/>
		<path d="M409.663,106.727h0.872l-2.095,5.741h-0.823l-2.095-5.741h0.864l1.639,4.893h0.016L409.663,106.727z"/>
		<path d="M413.007,110.612h-1.958v-0.72h1.958V110.612z"/>
		<path d="M418.542,112.467h-0.959l-1.543-2.359l-1.591,2.359h-0.936l2.055-2.942l-1.927-2.798h0.976l1.455,2.199l1.455-2.199h0.928
			l-1.927,2.798L418.542,112.467z"/>
		<path d="M419.872,109.197c0.24-0.184,0.584-0.352,1.087-0.352c0.912,0,1.847,0.64,1.847,1.799c0,0.624-0.28,1.975-2.039,1.975
			c-0.735,0-1.679-0.296-1.815-1.551h0.728c0.072,0.656,0.56,0.944,1.191,0.944c0.728,0,1.183-0.584,1.183-1.288
			c0-0.808-0.551-1.247-1.247-1.247c-0.408,0-0.775,0.192-1.04,0.536l-0.607-0.032l0.424-3.014h2.91v0.688h-2.383L419.872,109.197z"
			/>
		<path d="M425.367,112.619c-1.615,0-1.927-1.719-1.927-2.886s0.312-2.887,1.927-2.887s1.927,1.719,1.927,2.887
			S426.982,112.619,425.367,112.619z M425.367,107.478c-0.808,0-1.175,0.848-1.175,2.255s0.368,2.254,1.175,2.254
			s1.175-0.847,1.175-2.254S426.175,107.478,425.367,107.478z"/>
		<path d="M429.815,112.619c-1.615,0-1.927-1.719-1.927-2.886s0.312-2.887,1.927-2.887s1.927,1.719,1.927,2.887
			S431.431,112.619,429.815,112.619z M429.815,107.478c-0.808,0-1.175,0.848-1.175,2.255s0.368,2.254,1.175,2.254
			s1.175-0.847,1.175-2.254S430.623,107.478,429.815,107.478z"/>
		<path d="M434.229,111.257c0.182,0.167,0.411,0.292,0.688,0.375c-0.641,0.516-1.237,1.026-1.789,1.531
			c-0.219-0.203-0.417-0.336-0.594-0.398c0.297-0.161,0.581-0.354,0.852-0.578C433.733,111.911,434.015,111.601,434.229,111.257z
			 M438.502,106.976c-0.203,0-1.123,0.091-2.758,0.273c0.151,0.13,0.323,0.237,0.516,0.32c-0.667,0.276-1.367,0.724-2.102,1.344
			l2.398-0.281c0.396-0.323,0.711-0.656,0.945-1c0.219,0.203,0.492,0.362,0.82,0.477c-0.469,0.25-0.917,0.526-1.344,0.828
			c-0.547,0.391-1.373,0.914-2.477,1.57l3.523-0.258c-0.292-0.266-0.57-0.481-0.836-0.648c0.172-0.125,0.32-0.289,0.445-0.492
			c0.463,0.474,1.075,1.016,1.836,1.625c-0.183,0.12-0.347,0.294-0.492,0.523c-0.141-0.192-0.339-0.414-0.594-0.664
			c-0.745,0.062-1.414,0.12-2.008,0.172v2.25c0,0.172-0.091,0.297-0.273,0.375c-0.172,0.078-0.519,0.117-1.039,0.117
			c-0.011-0.255-0.083-0.482-0.219-0.68c0.302,0.036,0.531,0.055,0.688,0.055c0.161,0,0.245-0.06,0.25-0.18v-1.891
			c-1.412,0.13-2.308,0.229-2.688,0.297c-0.026-0.203-0.097-0.411-0.211-0.625c0.635-0.125,1.127-0.273,1.477-0.445
			c0.521-0.239,1.065-0.565,1.633-0.977c-1.203,0.104-2.044,0.234-2.523,0.391c-0.031-0.245-0.112-0.445-0.242-0.602
			c0.885-0.364,1.625-0.888,2.219-1.57c-0.714,0.083-1.547,0.18-2.5,0.289c-0.073-0.239-0.188-0.479-0.344-0.719
			c0.292,0.021,0.664,0.031,1.117,0.031c2.021-0.099,3.638-0.307,4.852-0.625c0.13,0.318,0.286,0.57,0.469,0.758
			C438.854,106.989,438.674,106.976,438.502,106.976z M437.572,111.289c0.448,0.412,1.042,0.883,1.781,1.414
			c-0.188,0.114-0.357,0.278-0.508,0.492c-0.156-0.198-0.398-0.44-0.727-0.727c-0.339-0.297-0.659-0.531-0.961-0.703
			C437.314,111.64,437.452,111.481,437.572,111.289z"/>
		<path d="M440.846,106.601c0.328,0.047,0.651,0.07,0.969,0.07h1.883c0.317,0,0.641-0.023,0.969-0.07
			c-0.021,0.12-0.031,0.234-0.031,0.344c0,0.12,0.01,0.234,0.031,0.344c-0.328-0.042-0.651-0.062-0.969-0.062h-0.789
			c-0.068,0.443-0.159,0.852-0.273,1.227h1.148c0.208,0,0.417-0.01,0.625-0.031c-0.183,1.042-0.333,1.771-0.453,2.188
			c-0.141,0.495-0.406,0.987-0.797,1.477c-0.365,0.453-0.873,0.888-1.523,1.305c-0.167-0.208-0.365-0.378-0.594-0.508
			c0.656-0.323,1.159-0.664,1.508-1.023c0.198-0.208,0.362-0.409,0.492-0.602c-0.344-0.297-0.719-0.555-1.125-0.773
			c0.167-0.109,0.312-0.245,0.438-0.406c0.297,0.224,0.622,0.438,0.977,0.641c0.167-0.385,0.307-0.966,0.422-1.742h-1.312
			c-0.292,0.688-0.708,1.312-1.25,1.875c-0.162-0.182-0.38-0.305-0.656-0.367c0.542-0.417,0.963-0.919,1.266-1.508
			c0.286-0.536,0.456-1.12,0.508-1.75h-0.492c-0.318,0-0.641,0.021-0.969,0.062c0.026-0.109,0.039-0.224,0.039-0.344
			C440.885,106.835,440.872,106.721,440.846,106.601z M445.01,107.257c0.208,0.021,0.456,0.031,0.742,0.031
			c-0.058,0.156-0.086,0.354-0.086,0.594v2.789c0,0.38,0.018,0.766,0.055,1.156c-0.125-0.021-0.248-0.031-0.367-0.031
			c-0.12,0-0.234,0.011-0.344,0.031c0.036-0.391,0.055-0.776,0.055-1.156v-2.414C445.064,107.929,445.046,107.596,445.01,107.257z
			 M446.502,106.195c0.234,0.042,0.487,0.062,0.758,0.062c-0.068,0.183-0.102,0.391-0.102,0.625v5.914
			c0,0.297-0.125,0.492-0.375,0.586c-0.25,0.083-0.612,0.125-1.086,0.125c-0.058-0.281-0.172-0.519-0.344-0.711h0.531
			c0.432,0,0.648-0.114,0.648-0.344v-5.656C446.533,106.593,446.522,106.393,446.502,106.195z"/>
	</g>
	<g>
	</g>
	<g>
	</g>
	<g>
	</g>
	<g>
	</g>
	<g>
	</g>
	<g>
	</g>
	<g>
	</g>
	<g>
	</g>
	<g>
	</g>
	<g>
	</g>
	<g>
	</g>
	<g>
	</g>
	<g>
	</g>
	<g>
	</g>
	<g>
	</g>
</g>
</svg>
