<?xml version="1.0" encoding="utf-8"?>
<!-- Generator: Adobe Illustrator 28.0.0, SVG Export Plug-In . SVG Version: 6.00 Build 0)  -->
<svg version="1.1" id="レイヤー_1" xmlns="http://www.w3.org/2000/svg" xmlns:xlink="http://www.w3.org/1999/xlink" x="0px"
	 y="0px" width="42.4px" height="12.8px" viewBox="0 0 42.4 12.8" style="enable-background:new 0 0 42.4 12.8;"
	 xml:space="preserve">
<style type="text/css">
	.st0{fill:#231815;}
	.st1{fill:#CCCCCC;}
	.st2{fill:none;}
</style>
<g>
	<path class="st0" d="M42.1,0.3v7.293h-4.184h-0.3v0.3V12.5H0.3V0.3H42.1 M42.4,0H0v12.8h37.916V7.893H42.4V0L42.4,0z"/>
</g>
<g>
	<rect x="0.15" y="0.15" class="st1" width="7.7" height="12.5"/>
	<path class="st0" d="M7.7,0.3v12.2H0.3V0.3H7.7 M8,0H0v12.8h8V0L8,0z"/>
</g>
<g>
	<path class="st0" d="M42.1,0.3v7.477L37.783,12.5H0.3V0.3H42.1 M42.4,0H0v12.8h37.916L42.4,7.893V0L42.4,0z"/>
</g>
<g>
	<rect x="10.492" y="2.588" class="st2" width="27.212" height="7.623"/>
	<path class="st0" d="M17.797,2.796c0.178,0.144,0.416,0.272,0.712,0.386c-0.212,0.109-0.428,0.255-0.646,0.438
		c-0.168,0.153-0.445,0.351-0.831,0.594h2.516c-0.203-0.178-0.408-0.344-0.616-0.498c0.183-0.138,0.339-0.279,0.467-0.423
		c0.45,0.42,0.948,0.856,1.492,1.306c-0.168,0.109-0.329,0.27-0.482,0.482c-0.094-0.109-0.191-0.212-0.29-0.312
		c-0.203-0.01-0.401-0.015-0.594-0.015h-1.38c-0.074,0.198-0.156,0.386-0.245,0.564h2.746c0.332,0,0.658-0.022,0.979-0.067
		c-0.02,0.124-0.029,0.245-0.029,0.364c0,0.104,0.01,0.212,0.029,0.326c-0.321-0.044-0.648-0.066-0.979-0.066h-0.965
		c0.292,0.341,0.564,0.569,0.816,0.683c0.287,0.153,0.745,0.294,1.374,0.423c-0.263,0.183-0.471,0.408-0.624,0.676
		c-0.633-0.282-1.113-0.589-1.44-0.92c-0.247-0.218-0.465-0.505-0.653-0.861h-1.566c-0.148,0.247-0.307,0.46-0.475,0.638
		C16.683,6.99,16.112,7.41,15.4,7.777c-0.104-0.248-0.272-0.466-0.505-0.654c0.648-0.193,1.212-0.517,1.692-0.972
		c0.094-0.084,0.18-0.176,0.26-0.274h-0.735c-0.332,0-0.658,0.022-0.98,0.066c0.02-0.114,0.03-0.223,0.03-0.326
		c0-0.119-0.01-0.24-0.03-0.364c0.322,0.044,0.648,0.067,0.98,0.067h1.128c0.114-0.173,0.218-0.361,0.312-0.564h-0.223
		c-0.376,0-0.762,0.027-1.158,0.082l-0.186-0.653c0.376-0.119,0.678-0.265,0.906-0.438C17.149,3.548,17.45,3.232,17.797,2.796z
		 M20.209,7.45c0.178,0.198,0.386,0.349,0.624,0.452c-0.876,0.693-1.586,1.156-2.13,1.389c-0.604,0.292-1.487,0.482-2.65,0.571
		c-0.04-0.144-0.148-0.344-0.327-0.602c0.975,0,1.771-0.116,2.39-0.349C18.828,8.65,19.526,8.163,20.209,7.45z M18.509,6.062
		c0.124,0.173,0.294,0.341,0.512,0.504c-0.158,0.035-0.304,0.106-0.438,0.215c-0.549,0.51-1.244,0.911-2.085,1.202
		c-0.054-0.188-0.173-0.365-0.356-0.534c0.479-0.089,0.917-0.245,1.313-0.468C17.802,6.784,18.153,6.478,18.509,6.062z M19.4,6.767
		c0.134,0.183,0.314,0.363,0.542,0.542c-0.203,0.035-0.398,0.117-0.586,0.246c-0.737,0.568-1.672,1.021-2.805,1.357
		C16.5,8.71,16.374,8.518,16.171,8.34c0.653-0.099,1.25-0.276,1.789-0.534C18.435,7.584,18.915,7.237,19.4,6.767z"/>
	<path class="st0" d="M27.386,3.716c0.332,0.04,0.658,0.06,0.979,0.06h0.661V3.509c0-0.238-0.022-0.475-0.067-0.712
		c0.248,0.069,0.535,0.106,0.861,0.111c-0.094,0.153-0.141,0.354-0.141,0.601v0.267h0.386c0.321,0,0.647-0.02,0.979-0.06
		c-0.02,0.114-0.029,0.233-0.029,0.356V4.11c0.262-0.297,0.526-0.616,0.794-0.958c0.237,0.213,0.497,0.389,0.779,0.527
		c-0.436,0.193-0.911,0.564-1.425,1.113c-0.104,0.109-0.206,0.215-0.305,0.319h1.373c0.331,0,0.668-0.02,1.01-0.06
		c-0.021,0.114-0.03,0.233-0.03,0.356c0,0.114,0.01,0.23,0.03,0.349c-0.342-0.034-0.679-0.052-1.01-0.052h-1.981
		c-0.268,0.243-0.522,0.45-0.765,0.624h1.907c0.287,0,0.597-0.01,0.928-0.03c-0.02,0.114-0.029,0.223-0.029,0.327
		c0,0.124,0.01,0.232,0.029,0.327c-0.223-0.02-0.532-0.03-0.928-0.03h-2.145l-0.49,0.712h2.694c0.247,0,0.497-0.01,0.75-0.03
		c-0.069,0.164-0.127,0.345-0.171,0.542l-0.253,1.032c-0.059,0.218-0.213,0.383-0.46,0.497c-0.203,0.113-0.729,0.176-1.581,0.186
		c-0.02-0.258-0.139-0.537-0.355-0.839c0.415,0.064,0.66,0.097,0.734,0.097c0.336,0,0.591-0.027,0.765-0.082
		c0.144-0.034,0.239-0.105,0.289-0.215l0.253-0.653h-2.576c-0.287,0-0.576,0.067-0.868,0.2c-0.05-0.192-0.148-0.391-0.297-0.593
		c0.302-0.061,0.48-0.146,0.534-0.26l0.416-0.602c-0.524,0.341-1.126,0.697-1.804,1.068c-0.129-0.223-0.307-0.41-0.534-0.564
		c1.202-0.509,2.227-1.081,3.072-1.714h-1.885c-0.342,0-0.681,0.018-1.017,0.052c0.024-0.119,0.037-0.235,0.037-0.349
		c0-0.124-0.013-0.242-0.037-0.356c0.336,0.04,0.675,0.06,1.017,0.06h1.544V4.34h-0.661c-0.321,0-0.647,0.02-0.979,0.06
		c0.02-0.114,0.03-0.223,0.03-0.327C27.416,3.949,27.405,3.831,27.386,3.716z M30.065,5.112c0.228-0.218,0.465-0.462,0.712-0.735
		c-0.242-0.024-0.479-0.037-0.712-0.037h-0.386v0.772H30.065z"/>
</g>
<g>
</g>
</svg>
