<?xml version="1.0" encoding="utf-8"?>
<!-- Generator: Adobe Illustrator 28.2.0, SVG Export Plug-In . SVG Version: 6.00 Build 0)  -->
<svg version="1.1" id="レイヤー_1" xmlns="http://www.w3.org/2000/svg" xmlns:xlink="http://www.w3.org/1999/xlink" x="0px"
	 y="0px" width="178.087px" height="24.044px" viewBox="0 0 178.087 24.044" style="enable-background:new 0 0 178.087 24.044;"
	 xml:space="preserve">
<style type="text/css">
	.st0{fill:none;stroke:#000000;stroke-width:0.5;}
	.st1{fill:#FFFFFF;stroke:#000000;stroke-width:0.5;}
	.st2{fill:#FFFFFF;}
</style>
<line class="st0" x1="0" y1="14.658" x2="177.166" y2="14.658"/>
<rect x="79.539" y="5.828" class="st1" width="88.027" height="17.717"/>
<line class="st0" x1="123.064" y1="5.828" x2="123.064" y2="23.544"/>
<rect x="83.474" y="1.099" class="st2" width="34.841" height="8.51"/>
<g>
	<path d="M89.615,8.3V2.543h0.831l1.887,5.077h0.017l1.854-5.077h0.824V8.3h-0.544V3.167h-0.017L92.581,8.3h-0.512l-1.895-5.133
		h-0.017V8.3H89.615z"/>
	<path d="M98.733,2.391c1.799,0,2.711,1.351,2.711,3.038c0,1.655-0.912,3.022-2.687,3.022c-1.775,0-2.679-1.367-2.679-3.022
		C96.071,3.75,97.015,2.391,98.733,2.391z M100.9,5.429c0-1.599-0.823-2.574-2.15-2.574c-1.479,0-2.127,1.239-2.127,2.574
		c0,1.359,0.64,2.559,2.143,2.559C100.261,7.988,100.9,6.772,100.9,5.429z"/>
	<path d="M102.022,2.543h0.568l1.734,5.117l1.728-5.117h0.567L104.621,8.3h-0.6L102.022,2.543z"/>
	<path d="M106.55,8.3V7.596h0.584V8.3H106.55z"/>
	<path d="M108.55,8.3V2.543h3.71v0.464h-3.166v2.079h2.878v0.464h-2.878V8.3H108.55z"/>
</g>
<g>
	<path d="M93.991,19.367V13.61h1.967c0.64,0,1.239,0.04,1.775,0.432c0.76,0.552,0.959,1.671,0.959,2.439
		c0,0.759-0.168,1.607-0.695,2.183c-0.527,0.592-1.279,0.704-2.039,0.704H93.991z M94.535,18.903h1.304
		c0.487,0,0.911-0.032,1.351-0.264c0.768-0.392,0.96-1.375,0.96-2.159c0-0.84-0.185-1.759-0.992-2.191
		c-0.344-0.184-0.839-0.216-1.318-0.216h-1.304V18.903z"/>
	<path d="M99.744,19.367V13.61h0.831l1.887,5.077h0.017l1.854-5.077h0.824v5.757h-0.544v-5.133h-0.017l-1.887,5.133h-0.512
		l-1.895-5.133h-0.017v5.133H99.744z"/>
	<path d="M109.91,16.648c0,1.496-0.353,2.831-1.903,2.831c-1.559,0-1.911-1.327-1.911-2.886c0-1.423,0.288-2.862,1.911-2.862
		C109.678,13.73,109.91,15.337,109.91,16.648z M107.991,14.162c-1.119,0-1.384,1.239-1.384,2.486c0,1.447,0.32,2.399,1.399,2.399
		c1.216,0,1.392-1.319,1.392-2.455C109.398,15.377,109.183,14.162,107.991,14.162z"/>
</g>
<g>
	<path d="M135.862,19.367V13.61h1.967c0.64,0,1.239,0.04,1.775,0.432c0.76,0.552,0.959,1.671,0.959,2.439
		c0,0.759-0.168,1.607-0.695,2.183c-0.527,0.592-1.279,0.704-2.039,0.704H135.862z M136.406,18.903h1.304
		c0.487,0,0.911-0.032,1.351-0.264c0.768-0.392,0.96-1.375,0.96-2.159c0-0.84-0.185-1.759-0.992-2.191
		c-0.344-0.184-0.839-0.216-1.318-0.216h-1.304V18.903z"/>
	<path d="M141.615,19.367V13.61h0.831l1.887,5.077h0.017l1.854-5.077h0.824v5.757h-0.544v-5.133h-0.017l-1.887,5.133h-0.512
		l-1.895-5.133h-0.017v5.133H141.615z"/>
	<path d="M150.07,15.177h-1.456v-0.336c0.856-0.056,1.392-0.144,1.56-1.111h0.408v5.637h-0.512V15.177z"/>
	<path d="M156.229,16.648c0,1.496-0.352,2.831-1.903,2.831c-1.559,0-1.911-1.327-1.911-2.886c0-1.423,0.288-2.862,1.911-2.862
		C155.997,13.73,156.229,15.337,156.229,16.648z M154.31,14.162c-1.12,0-1.384,1.239-1.384,2.486c0,1.447,0.32,2.399,1.399,2.399
		c1.216,0,1.392-1.319,1.392-2.455C155.718,15.377,155.502,14.162,154.31,14.162z"/>
</g>
<line class="st1" x1="177.587" y1="5.828" x2="177.587" y2="23.544"/>
</svg>
