<?xml version="1.0" encoding="utf-8"?>
<!-- Generator: Adobe Illustrator 28.2.0, SVG Export Plug-In . SVG Version: 6.00 Build 0)  -->
<svg version="1.1" xmlns="http://www.w3.org/2000/svg" xmlns:xlink="http://www.w3.org/1999/xlink" x="0px" y="0px"
	 width="337.323px" height="184.428px" viewBox="0 0 337.323 184.428" style="enable-background:new 0 0 337.323 184.428;"
	 xml:space="preserve">
<style type="text/css">
	.st0{fill:none;stroke:#666666;stroke-width:0.5;stroke-miterlimit:10;stroke-dasharray:1;}
	.st1{fill:none;stroke:#000000;stroke-width:0.5;stroke-miterlimit:10;}
	.st2{fill:#3574F2;}
</style>
<g id="レイヤー_1">
	<g>
		<line class="st0" x1="103.465" y1="10.806" x2="103.465" y2="184.428"/>
		<line class="st0" x1="131.811" y1="10.806" x2="131.811" y2="184.428"/>
		<line class="st0" x1="252.283" y1="10.806" x2="252.283" y2="184.428"/>
		<line class="st0" x1="266.457" y1="10.806" x2="266.457" y2="184.428"/>
		<line class="st0" x1="294.803" y1="10.806" x2="294.803" y2="184.428"/>
	</g>
	<g>
		<polyline class="st1" points="337.323,63.955 294.803,63.955 294.803,21.435 252.283,21.435 252.283,63.955 145.984,63.955 
			145.984,21.435 103.465,21.435 103.465,63.955 60.945,63.955 		"/>
		<polyline class="st1" points="337.323,120.648 266.457,120.648 266.457,78.128 223.937,78.128 223.937,120.648 174.331,120.648 
			174.331,78.128 131.811,78.128 131.811,120.648 60.945,120.648 		"/>
		<polyline class="st1" points="337.323,134.821 266.457,134.821 266.457,177.341 131.811,177.341 131.811,134.821 103.465,134.821 
			103.465,177.341 60.945,177.341 		"/>
	</g>
</g>
<g id="レイヤー_2">
	<g>
		<path d="M26.384,44.52c0.088,1.032,0.775,1.407,1.655,1.407c1.031,0,1.463-0.56,1.463-1.191c0-1.783-3.51-0.6-3.51-2.863
			c0-0.799,0.664-1.543,1.951-1.543c1.295,0,1.943,0.784,1.935,1.719h-0.52c0-0.88-0.679-1.255-1.415-1.255
			c-1.104,0-1.503,0.679-1.407,1.271c0.248,1.487,3.51,0.416,3.51,2.646c0,1.056-0.776,1.679-2.103,1.679
			c-1.199,0-2.087-0.624-2.087-1.871H26.384z"/>
		<path d="M31.272,44.28c-0.008,0.896,0.472,1.639,1.391,1.639c0.624,0,1.111-0.344,1.255-0.952h0.536
			c-0.24,0.784-0.735,1.383-1.791,1.383c-1.327,0-1.903-0.943-1.903-2.167c0-1.208,0.72-2.199,1.903-2.199
			c1.135,0,1.831,0.808,1.823,2.295H31.272z M33.974,43.88c0-0.807-0.448-1.463-1.312-1.463c-0.848,0-1.295,0.68-1.391,1.463H33.974
			z"/>
		<path d="M36.879,46.255c-0.112,0.024-0.32,0.096-0.552,0.096c-0.472,0-0.735-0.208-0.735-0.823v-3.031h-0.583v-0.399h0.583v-1.151
			h0.479v1.151h0.776v0.399h-0.776v2.839c0,0.408,0.016,0.583,0.416,0.583c0.128,0,0.264-0.024,0.392-0.056V46.255z"/>
	</g>
	<g>
		<path d="M26.695,100.317v2.615h-0.544v-5.757h2.255c1.263,0,1.959,0.448,1.959,1.511c0,0.728-0.272,1.111-0.936,1.407
			c0.68,0.232,0.72,0.951,0.735,1.559c0.024,0.872,0.096,1.111,0.24,1.223v0.056h-0.6c-0.224-0.392-0.167-1.471-0.256-1.911
			c-0.128-0.624-0.6-0.704-1.143-0.704H26.695z M28.39,99.854c0.808,0,1.431-0.336,1.431-1.144c0-0.864-0.671-1.071-1.399-1.071
			h-1.727v2.215H28.39z"/>
		<path d="M31.719,100.973c-0.008,0.896,0.472,1.639,1.391,1.639c0.624,0,1.111-0.344,1.255-0.952h0.536
			c-0.24,0.784-0.735,1.383-1.791,1.383c-1.327,0-1.903-0.943-1.903-2.167c0-1.208,0.72-2.199,1.903-2.199
			c1.135,0,1.831,0.807,1.823,2.294H31.719z M34.422,100.573c0-0.808-0.448-1.463-1.312-1.463c-0.848,0-1.295,0.68-1.391,1.463
			H34.422z"/>
		<path d="M36.151,101.636c0.152,0.712,0.52,0.976,1.239,0.976c0.696,0,1.023-0.368,1.023-0.768c0-1.199-2.654-0.352-2.654-1.983
			c0-0.688,0.536-1.183,1.455-1.183c0.896,0,1.479,0.368,1.599,1.303h-0.488c-0.088-0.64-0.52-0.872-1.119-0.872
			c-0.608,0-0.936,0.288-0.936,0.711c0,1.127,2.654,0.424,2.654,2.015c0,0.792-0.711,1.207-1.687,1.207s-1.535-0.624-1.575-1.407
			H36.151z"/>
		<path d="M40.167,100.973c-0.008,0.896,0.472,1.639,1.391,1.639c0.624,0,1.111-0.344,1.255-0.952h0.536
			c-0.24,0.784-0.735,1.383-1.791,1.383c-1.327,0-1.903-0.943-1.903-2.167c0-1.208,0.72-2.199,1.903-2.199
			c1.135,0,1.831,0.807,1.823,2.294H40.167z M42.87,100.573c0-0.808-0.448-1.463-1.312-1.463c-0.848,0-1.295,0.68-1.391,1.463H42.87
			z"/>
		<path d="M45.775,102.948c-0.112,0.024-0.32,0.096-0.552,0.096c-0.472,0-0.735-0.208-0.735-0.823v-3.03h-0.583v-0.4h0.583v-1.151
			h0.479v1.151h0.776v0.4h-0.776v2.838c0,0.408,0.016,0.583,0.416,0.583c0.128,0,0.264-0.024,0.392-0.056V102.948z"/>
		<path d="M48.383,98.742h-1.455v-0.335c0.855-0.056,1.391-0.144,1.559-1.111h0.408v5.637h-0.512V98.742z"/>
	</g>
	<g>
		<path d="M31.164,159.672l-0.304,0.368l-0.848-0.655c-0.392,0.248-0.872,0.392-1.439,0.392c-1.775,0-2.679-1.367-2.679-3.022
			c0-1.599,0.863-3.038,2.654-3.038c1.615,0,2.711,1.079,2.711,3.038c0,0.928-0.288,1.767-0.864,2.327L31.164,159.672z
			 M29.997,158.769c0.488-0.464,0.72-1.215,0.72-2.015c0-1.719-0.919-2.574-2.151-2.574c-1.479,0-2.126,1.247-2.126,2.574
			c0,1.367,0.64,2.559,2.143,2.559c0.4,0,0.735-0.096,1.007-0.256l-0.656-0.503l0.288-0.376L29.997,158.769z"/>
		<path d="M34.15,155.434h-1.455v-0.335c0.855-0.056,1.391-0.144,1.559-1.111h0.408v5.637H34.15V155.434z"/>
	</g>
	<g>
		<path class="st2" d="M100.791,1.354c-0.76,1.104-1.224,2.398-1.224,3.742c0,1.328,0.488,2.599,1.224,3.694h-0.408
			c-0.879-1.215-1.367-2.215-1.367-3.734c0-1.463,0.503-2.551,1.367-3.702H100.791z"/>
		<path class="st2" d="M103.655,3.073h-1.455V2.737c0.855-0.056,1.391-0.144,1.559-1.111h0.408v5.637h-0.512V3.073z"/>
		<path class="st2" d="M106.136,8.79c0.76-1.104,1.223-2.399,1.223-3.742c0-1.327-0.487-2.599-1.223-3.694h0.408
			c0.879,1.215,1.367,2.215,1.367,3.734c0,1.463-0.503,2.551-1.367,3.702H106.136z"/>
	</g>
	<g>
		<path class="st2" d="M129.137,1.354c-0.76,1.104-1.224,2.398-1.224,3.742c0,1.328,0.488,2.599,1.224,3.694h-0.408
			c-0.879-1.215-1.367-2.215-1.367-3.734c0-1.463,0.503-2.551,1.367-3.702H129.137z"/>
		<path class="st2" d="M130.138,3.473c0-1.111,0.72-1.847,1.831-1.847c1.135,0,1.735,0.695,1.735,1.559
			c0,1.495-1.615,1.871-2.455,2.511c-0.368,0.28-0.711,0.6-0.735,1.135h3.142v0.432h-3.686c0.008-0.536,0.08-0.959,0.44-1.375
			c1.175-1.359,2.734-1.343,2.734-2.67c0-0.735-0.544-1.159-1.239-1.159c-0.736,0-1.255,0.656-1.224,1.415H130.138z"/>
		<path class="st2" d="M134.483,8.79c0.76-1.104,1.223-2.399,1.223-3.742c0-1.327-0.487-2.599-1.223-3.694h0.408
			c0.879,1.215,1.367,2.215,1.367,3.734c0,1.463-0.503,2.551-1.367,3.702H134.483z"/>
	</g>
	<g>
		<path class="st2" d="M249.61,1.354c-0.76,1.104-1.224,2.398-1.224,3.742c0,1.328,0.488,2.599,1.224,3.694h-0.408
			c-0.879-1.215-1.367-2.215-1.367-3.734c0-1.463,0.503-2.551,1.367-3.702H249.61z"/>
		<path class="st2" d="M251.826,4.128c0.952,0.008,1.615-0.216,1.615-1.08c0-0.695-0.552-0.991-1.2-0.991
			c-0.719,0-1.207,0.503-1.207,1.208h-0.512c0-0.504,0.168-0.912,0.543-1.264c0.352-0.32,0.816-0.375,1.279-0.375
			c0.888,0,1.607,0.448,1.607,1.391c0,0.583-0.256,1.023-0.8,1.255c0.815,0.256,1,0.872,1,1.391c0,0.928-0.656,1.679-1.815,1.711
			c-1.303,0-1.887-0.432-2.007-1.743h0.512c0,0.856,0.567,1.312,1.399,1.312c0.816,0,1.432-0.607,1.399-1.271
			c-0.032-0.911-0.824-1.199-1.815-1.127V4.128z"/>
		<path class="st2" d="M254.955,8.79c0.76-1.104,1.223-2.399,1.223-3.742c0-1.327-0.487-2.599-1.223-3.694h0.408
			c0.879,1.215,1.367,2.215,1.367,3.734c0,1.463-0.503,2.551-1.367,3.702H254.955z"/>
	</g>
	<g>
		<path class="st2" d="M263.783,1.354c-0.76,1.104-1.224,2.398-1.224,3.742c0,1.328,0.488,2.599,1.224,3.694h-0.408
			c-0.879-1.215-1.367-2.215-1.367-3.734c0-1.463,0.503-2.551,1.367-3.702H263.783z"/>
		<path class="st2" d="M267.095,5.872h-2.574v-0.44l2.622-3.75h0.464V5.44h0.784v0.432h-0.784v1.391h-0.512V5.872z M265.024,5.44
			h2.071V2.449L265.024,5.44z"/>
		<path class="st2" d="M269.128,8.79c0.76-1.104,1.223-2.399,1.223-3.742c0-1.327-0.487-2.599-1.223-3.694h0.408
			c0.879,1.215,1.367,2.215,1.367,3.734c0,1.463-0.503,2.551-1.367,3.702H269.128z"/>
	</g>
	<g>
		<path class="st2" d="M292.13,1.354c-0.76,1.104-1.224,2.398-1.224,3.742c0,1.328,0.488,2.599,1.224,3.694h-0.408
			c-0.879-1.215-1.367-2.215-1.367-3.734c0-1.463,0.503-2.551,1.367-3.702H292.13z"/>
		<path class="st2" d="M293.37,5.799c0.104,0.76,0.656,1.144,1.391,1.144c0.84,0,1.352-0.64,1.352-1.439
			c0-0.839-0.544-1.431-1.399-1.431c-0.504,0-0.912,0.176-1.223,0.584L293.067,4.6l0.456-2.918h2.799v0.432h-2.367l-0.352,1.895
			c0.44-0.288,0.728-0.368,1.239-0.368c1.031,0,1.783,0.704,1.783,1.863c0,1.184-0.855,1.871-1.783,1.871
			c-1.063,0-1.895-0.408-1.983-1.575H293.37z"/>
		<path class="st2" d="M297.475,8.79c0.76-1.104,1.223-2.399,1.223-3.742c0-1.327-0.487-2.599-1.223-3.694h0.408
			c0.879,1.215,1.367,2.215,1.367,3.734c0,1.463-0.503,2.551-1.367,3.702H297.475z"/>
	</g>
	<g>
	</g>
	<g>
	</g>
	<g>
	</g>
	<g>
	</g>
	<g>
	</g>
	<g>
	</g>
	<g>
	</g>
	<g>
	</g>
	<g>
	</g>
	<g>
	</g>
	<g>
	</g>
	<g>
	</g>
	<g>
	</g>
	<g>
	</g>
	<g>
	</g>
</g>
</svg>
