<?xml version="1.0" encoding="utf-8"?>
<!-- Generator: Adobe Illustrator 28.5.0, SVG Export Plug-In . SVG Version: 9.03 Build 54727)  -->
<svg version="1.1" id="レイヤー_1" xmlns="http://www.w3.org/2000/svg" xmlns:xlink="http://www.w3.org/1999/xlink" x="0px"
	 y="0px" width="496.325px" height="110.468px" viewBox="0 0 496.325 110.468" style="enable-background:new 0 0 496.325 110.468;"
	 xml:space="preserve">
<style type="text/css">
	.st0{fill:none;stroke:#000000;stroke-miterlimit:10;}
	.st1{fill:none;stroke:#000000;stroke-miterlimit:10;stroke-dasharray:7.9781,3.9891;}
	.st2{fill:#FFFFFF;stroke:#000000;stroke-miterlimit:10;}
	.st3{fill:#FFFFFF;}
</style>
<g>
	<g>
		<line class="st0" x1="105.476" y1="2.242" x2="105.476" y2="6.242"/>
		<line class="st1" x1="105.476" y1="10.231" x2="105.476" y2="103.974"/>
		<line class="st0" x1="105.476" y1="105.968" x2="105.476" y2="109.968"/>
	</g>
</g>
<g>
	<g>
		<line class="st0" x1="130.723" y1="2.242" x2="130.723" y2="6.242"/>
		<line class="st1" x1="130.723" y1="10.231" x2="130.723" y2="103.974"/>
		<line class="st0" x1="130.723" y1="105.968" x2="130.723" y2="109.968"/>
	</g>
</g>
<rect x="1.683" y="47.268" class="st2" width="103.793" height="62.701"/>
<rect x="105.476" y="64.923" class="st2" width="390.349" height="45.045"/>
<rect x="130.723" y="47.268" class="st2" width="52.738" height="17.656"/>
<g>
	<line class="st3" x1="53.579" y1="5.03" x2="105.476" y2="5.03"/>
	<g>
		<line class="st0" x1="53.579" y1="5.03" x2="104.274" y2="5.03"/>
		<g>
			<path d="M97.439,9.83c-0.148-0.232-0.079-0.542,0.154-0.69l6.452-4.109l-6.452-4.109c-0.233-0.148-0.303-0.458-0.154-0.69
				c0.148-0.232,0.46-0.3,0.691-0.153l7.114,4.531c0.143,0.092,0.231,0.251,0.231,0.422s-0.088,0.33-0.231,0.422L98.13,9.984
				c-0.084,0.053-0.177,0.078-0.269,0.078C97.697,10.062,97.535,9.98,97.439,9.83z"/>
		</g>
	</g>
</g>
<g>
	<line class="st3" x1="131.144" y1="5.03" x2="183.041" y2="5.03"/>
	<g>
		<line class="st0" x1="132.346" y1="5.03" x2="183.041" y2="5.03"/>
		<g>
			<path d="M139.181,9.83c0.148-0.232,0.079-0.542-0.154-0.69l-6.452-4.109l6.452-4.109c0.233-0.148,0.303-0.458,0.154-0.69
				c-0.148-0.232-0.46-0.3-0.691-0.153l-7.114,4.531c-0.143,0.092-0.231,0.251-0.231,0.422s0.088,0.33,0.231,0.422l7.114,4.531
				c0.084,0.053,0.177,0.078,0.269,0.078C138.923,10.062,139.085,9.98,139.181,9.83z"/>
		</g>
	</g>
</g>
<g>
	<path d="M2.928,5.746v0.62H0.4v-0.62H2.928z"/>
	<path d="M4.319,6.825c0.13,0.95,0.82,1.429,1.739,1.429c1.049,0,1.689-0.799,1.689-1.799c0-1.049-0.68-1.789-1.749-1.789
		c-0.629,0-1.139,0.22-1.529,0.729L3.94,5.326l0.569-3.648h3.498v0.54H5.049l-0.44,2.369c0.55-0.36,0.91-0.459,1.549-0.459
		c1.289,0,2.229,0.879,2.229,2.329c0,1.479-1.069,2.339-2.229,2.339c-1.33,0-2.369-0.51-2.479-1.969H4.319z"/>
	<path d="M9.91,8.654V7.774h0.729v0.879H9.91z"/>
	<path d="M16.827,5.256c0,1.869-0.44,3.538-2.379,3.538c-1.949,0-2.389-1.659-2.389-3.608c0-1.779,0.36-3.578,2.389-3.578
		C16.537,1.608,16.827,3.617,16.827,5.256z M14.428,2.147c-1.399,0-1.729,1.549-1.729,3.108c0,1.809,0.4,2.998,1.749,2.998
		c1.52,0,1.739-1.649,1.739-3.068C16.188,3.667,15.917,2.147,14.428,2.147z"/>
	<path d="M22.387,5.256c0,1.869-0.44,3.538-2.379,3.538c-1.949,0-2.389-1.659-2.389-3.608c0-1.779,0.36-3.578,2.389-3.578
		C22.097,1.608,22.387,3.617,22.387,5.256z M19.988,2.147c-1.399,0-1.729,1.549-1.729,3.108c0,1.809,0.4,2.998,1.749,2.998
		c1.52,0,1.739-1.649,1.739-3.068C21.748,3.667,21.478,2.147,19.988,2.147z"/>
	<path d="M27.947,5.256c0,1.869-0.44,3.538-2.379,3.538c-1.949,0-2.389-1.659-2.389-3.608c0-1.779,0.36-3.578,2.389-3.578
		C27.657,1.608,27.947,3.617,27.947,5.256z M25.548,2.147c-1.399,0-1.729,1.549-1.729,3.108c0,1.809,0.4,2.998,1.749,2.998
		c1.52,0,1.739-1.649,1.739-3.068C27.308,3.667,27.038,2.147,25.548,2.147z"/>
	<path d="M32.369,8.654h-0.6V3.477h0.6v0.78h0.02c0.31-0.59,0.93-0.919,1.599-0.919c0.959,0,1.299,0.45,1.519,1
		c0.34-0.67,0.95-1,1.689-1c1.409,0,1.609,1.009,1.609,2.049v3.268h-0.6V5.076c0-0.739-0.26-1.199-1.109-1.199
		c-0.44,0-0.87,0.19-1.169,0.59c-0.26,0.34-0.34,0.969-0.34,1.399v2.789h-0.6V5.076c0-0.739-0.26-1.199-1.109-1.199
		c-0.44,0-0.87,0.19-1.169,0.59c-0.26,0.34-0.34,0.969-0.34,1.399V8.654z"/>
	<path d="M40.699,8.654h-0.6V3.477h0.6v0.78h0.02c0.31-0.59,0.93-0.919,1.599-0.919c0.959,0,1.299,0.45,1.519,1
		c0.34-0.67,0.95-1,1.689-1c1.409,0,1.609,1.009,1.609,2.049v3.268h-0.6V5.076c0-0.739-0.26-1.199-1.109-1.199
		c-0.44,0-0.87,0.19-1.169,0.59c-0.26,0.34-0.34,0.969-0.34,1.399v2.789h-0.6V5.076c0-0.739-0.26-1.199-1.109-1.199
		c-0.44,0-0.87,0.19-1.169,0.59c-0.26,0.34-0.34,0.969-0.34,1.399V8.654z"/>
</g>
<g>
	<path d="M194.407,5.256c0,1.869-0.44,3.538-2.379,3.538c-1.949,0-2.389-1.659-2.389-3.608c0-1.779,0.36-3.578,2.389-3.578
		C194.117,1.608,194.407,3.617,194.407,5.256z M192.008,2.147c-1.399,0-1.729,1.549-1.729,3.108c0,1.809,0.4,2.998,1.749,2.998
		c1.52,0,1.739-1.649,1.739-3.068C193.767,3.667,193.497,2.147,192.008,2.147z"/>
	<path d="M195.829,8.654V7.774h0.729v0.879H195.829z"/>
	<path d="M202.747,5.256c0,1.869-0.44,3.538-2.379,3.538c-1.949,0-2.389-1.659-2.389-3.608c0-1.779,0.36-3.578,2.389-3.578
		C202.457,1.608,202.747,3.617,202.747,5.256z M200.348,2.147c-1.399,0-1.729,1.549-1.729,3.108c0,1.809,0.4,2.998,1.749,2.998
		c1.52,0,1.739-1.649,1.739-3.068C202.107,3.667,201.837,2.147,200.348,2.147z"/>
	<path d="M208.307,5.256c0,1.869-0.44,3.538-2.379,3.538c-1.949,0-2.389-1.659-2.389-3.608c0-1.779,0.36-3.578,2.389-3.578
		C208.017,1.608,208.307,3.617,208.307,5.256z M205.908,2.147c-1.399,0-1.729,1.549-1.729,3.108c0,1.809,0.4,2.998,1.749,2.998
		c1.52,0,1.739-1.649,1.739-3.068C207.667,3.667,207.397,2.147,205.908,2.147z"/>
	<path d="M213.867,5.256c0,1.869-0.44,3.538-2.379,3.538c-1.949,0-2.389-1.659-2.389-3.608c0-1.779,0.36-3.578,2.389-3.578
		C213.577,1.608,213.867,3.617,213.867,5.256z M211.468,2.147c-1.399,0-1.729,1.549-1.729,3.108c0,1.809,0.4,2.998,1.749,2.998
		c1.52,0,1.739-1.649,1.739-3.068C213.227,3.667,212.957,2.147,211.468,2.147z"/>
	<path d="M218.289,8.654h-0.6V3.477h0.6v0.78h0.02c0.31-0.59,0.93-0.919,1.599-0.919c0.959,0,1.299,0.45,1.519,1
		c0.34-0.67,0.95-1,1.689-1c1.409,0,1.609,1.009,1.609,2.049v3.268h-0.6V5.076c0-0.739-0.26-1.199-1.109-1.199
		c-0.44,0-0.87,0.19-1.169,0.59c-0.26,0.34-0.34,0.969-0.34,1.399v2.789h-0.6V5.076c0-0.739-0.26-1.199-1.109-1.199
		c-0.44,0-0.87,0.19-1.169,0.59c-0.26,0.34-0.34,0.969-0.34,1.399V8.654z"/>
	<path d="M226.618,8.654h-0.6V3.477h0.6v0.78h0.021c0.31-0.59,0.929-0.919,1.599-0.919c0.96,0,1.299,0.45,1.52,1
		c0.34-0.67,0.949-1,1.688-1c1.409,0,1.609,1.009,1.609,2.049v3.268h-0.6V5.076c0-0.739-0.26-1.199-1.109-1.199
		c-0.439,0-0.869,0.19-1.169,0.59c-0.261,0.34-0.34,0.969-0.34,1.399v2.789h-0.601V5.076c0-0.739-0.26-1.199-1.109-1.199
		c-0.439,0-0.869,0.19-1.169,0.59c-0.26,0.34-0.34,0.969-0.34,1.399V8.654z"/>
</g>
<g>
</g>
<g>
</g>
<g>
</g>
<g>
</g>
<g>
</g>
<g>
</g>
<g>
</g>
<g>
</g>
<g>
</g>
<g>
</g>
<g>
</g>
<g>
</g>
<g>
</g>
<g>
</g>
<g>
</g>
<g>
</g>
</svg>
