<?xml version="1.0" encoding="utf-8"?>
<!-- Generator: Adobe Illustrator 28.5.0, SVG Export Plug-In . SVG Version: 9.03 Build 54727)  -->
<svg version="1.1" xmlns="http://www.w3.org/2000/svg" xmlns:xlink="http://www.w3.org/1999/xlink" x="0px" y="0px"
	 width="506.862px" height="212.972px" viewBox="0 0 506.862 212.972" style="enable-background:new 0 0 506.862 212.972;"
	 xml:space="preserve">
<style type="text/css">
	.st0{fill:none;stroke:#000000;stroke-width:0.5;stroke-miterlimit:10;}
	.st1{fill:none;stroke:#000000;stroke-miterlimit:10;}
	.st2{fill:none;stroke:#000000;stroke-width:0.5;stroke-miterlimit:10;stroke-dasharray:4,2;}
</style>
<g id="レイヤー_1">
	<polyline class="st0" points="27.081,11.134 27.081,184.43 506.862,184.43 	"/>
	<polyline class="st1" points="496.842,184.478 413.544,40.203 395.824,40.007 362.96,96.929 294.188,96.929 278.228,69.285 
		244.917,69.089 178.211,184.626 111.506,69.089 93.786,68.893 27.081,184.43 	"/>
	<line class="st2" x1="19.515" y1="96.929" x2="294.188" y2="96.929"/>
	<line class="st2" x1="19.515" y1="69.089" x2="244.917" y2="69.089"/>
	<line class="st2" x1="19.515" y1="40.007" x2="395.824" y2="40.007"/>
	<line class="st2" x1="178.211" y1="11.134" x2="178.211" y2="212.972"/>
	<line class="st2" x1="294.188" y1="11.134" x2="294.188" y2="212.972"/>
	<line class="st2" x1="395.824" y1="11.134" x2="395.824" y2="212.972"/>
</g>
<g id="レイヤー_2">
	<g>
		<path d="M9.755,1.104h0.71L12.634,7.5l2.159-6.396h0.709L13.004,8.3h-0.75L9.755,1.104z"/>
		<path d="M16.775,5.851c-0.01,1.12,0.59,2.049,1.739,2.049c0.779,0,1.389-0.43,1.569-1.189h0.67
			c-0.3,0.979-0.919,1.729-2.239,1.729c-1.659,0-2.379-1.18-2.379-2.708c0-1.509,0.899-2.749,2.379-2.749
			c1.419,0,2.289,1.009,2.279,2.868H16.775z M20.153,5.352c0-1.01-0.56-1.829-1.639-1.829c-1.06,0-1.619,0.85-1.739,1.829H20.153z"
			/>
		<path d="M22.055,8.3V1.104h0.6V8.3H22.055z"/>
		<path d="M23.845,5.711c0-1.509,0.799-2.729,2.398-2.729c1.619,0,2.399,1.209,2.399,2.729c0,1.639-0.95,2.729-2.399,2.729
			C24.924,8.42,23.845,7.52,23.845,5.711z M26.244,3.522c-1.259,0-1.759,1.069-1.759,2.189C24.485,7,25.094,7.9,26.244,7.9
			c1.259,0,1.759-1.079,1.759-2.188C27.993,4.492,27.513,3.522,26.244,3.522z"/>
		<path d="M33.413,4.752c-0.21-0.77-0.74-1.229-1.539-1.229c-1.229,0-1.739,1.119-1.739,2.199c0,1.089,0.5,2.179,1.739,2.179
			c0.889,0,1.449-0.53,1.589-1.389h0.64c-0.21,1.149-0.929,1.929-2.229,1.929c-1.649,0-2.379-1.189-2.379-2.719
			c0-1.439,0.83-2.738,2.379-2.738c1.189,0,1.969,0.569,2.148,1.769H33.413z"/>
		<path d="M35.365,1.993v-0.89h0.659v0.89H35.365z M35.395,8.3V3.123h0.6V8.3H35.395z"/>
		<path d="M39.344,8.32c-0.14,0.03-0.4,0.12-0.689,0.12c-0.59,0-0.919-0.26-0.919-1.03V3.623h-0.73v-0.5h0.73V1.684h0.6v1.439h0.969
			v0.5h-0.969V7.17c0,0.51,0.02,0.729,0.52,0.729c0.16,0,0.33-0.03,0.49-0.07V8.32z"/>
		<path d="M40.265,9.709c0.16,0.03,0.33,0.06,0.5,0.06c0.68,0,0.78-0.979,1.01-1.429l-2.009-5.217h0.67l1.659,4.448l1.659-4.448
			h0.65L42.473,8.23c-0.49,1.299-0.809,2.109-1.639,2.109c-0.21,0-0.41-0.03-0.57-0.07V9.709z"/>
	</g>
	<g>
		<path d="M174.315,0.914c-0.95,1.379-1.529,2.998-1.529,4.677c0,1.659,0.61,3.248,1.529,4.618h-0.51
			c-1.1-1.52-1.709-2.769-1.709-4.667c0-1.829,0.629-3.188,1.709-4.627H174.315z"/>
		<path d="M175.026,8.3l2.829-7.196h0.77l2.758,7.196h-0.7l-0.83-2.259h-3.278l-0.85,2.259H175.026z M176.805,5.461h2.819
			l-1.409-3.778L176.805,5.461z"/>
		<path d="M182.106,10.209c0.95-1.379,1.529-2.999,1.529-4.678c0-1.659-0.61-3.248-1.529-4.617h0.51
			c1.1,1.519,1.709,2.768,1.709,4.667c0,1.829-0.629,3.188-1.709,4.628H182.106z"/>
	</g>
	<g>
		<path d="M290.292,0.914c-0.95,1.379-1.529,2.998-1.529,4.677c0,1.659,0.609,3.248,1.529,4.618h-0.51
			c-1.1-1.52-1.709-2.769-1.709-4.667c0-1.829,0.629-3.188,1.709-4.627H290.292z"/>
		<path d="M291.663,8.3V1.104h2.599c1.688,0,2.358,0.73,2.358,1.809c0,1-0.569,1.449-1.149,1.549v0.02
			c0.989,0.15,1.479,0.839,1.479,1.789c0,1.499-0.979,2.029-2.349,2.029H291.663z M292.343,4.282h1.719
			c1.419,0,1.879-0.5,1.879-1.37c0-0.899-0.54-1.229-2.029-1.229h-1.568V4.282z M292.343,7.72h1.729c1.499,0,2.199-0.2,2.199-1.449
			c0-1.189-0.84-1.409-2.119-1.409h-1.809V7.72z"/>
		<path d="M298.083,10.209c0.949-1.379,1.529-2.999,1.529-4.678c0-1.659-0.61-3.248-1.529-4.617h0.51
			c1.1,1.519,1.709,2.768,1.709,4.667c0,1.829-0.63,3.188-1.709,4.628H298.083z"/>
	</g>
	<g>
		<path d="M391.652,0.914c-0.949,1.379-1.529,2.998-1.529,4.677c0,1.659,0.61,3.248,1.529,4.618h-0.51
			c-1.1-1.52-1.709-2.769-1.709-4.667c0-1.829,0.63-3.188,1.709-4.627H391.652z"/>
		<path d="M398.131,3.192c-0.28-1.229-1.039-1.699-2.269-1.699c-1.739,0-2.489,1.489-2.489,3.188c0,1.609,0.59,3.229,2.549,3.229
			c1.239,0,2.009-0.84,2.279-1.979h0.709c-0.319,1.389-1.189,2.559-3.118,2.559c-2.219,0-3.099-1.749-3.099-3.788
			c0-2.749,1.439-3.788,3.349-3.788c1.479,0,2.559,0.79,2.788,2.278H398.131z"/>
		<path d="M399.993,10.209c0.95-1.379,1.529-2.999,1.529-4.678c0-1.659-0.609-3.248-1.529-4.617h0.51
			c1.1,1.519,1.709,2.768,1.709,4.667c0,1.829-0.629,3.188-1.709,4.628H399.993z"/>
	</g>
	<g>
		<path d="M0.989,41.296c0.13,0.95,0.82,1.429,1.739,1.429c1.049,0,1.689-0.799,1.689-1.799c0-1.049-0.68-1.789-1.749-1.789
			c-0.629,0-1.139,0.22-1.529,0.729l-0.529-0.07l0.569-3.648h3.498v0.54H1.719l-0.44,2.369c0.55-0.36,0.91-0.459,1.549-0.459
			c1.289,0,2.229,0.879,2.229,2.329c0,1.479-1.069,2.339-2.229,2.339c-1.33,0-2.369-0.51-2.479-1.969H0.989z"/>
		<path d="M10.717,39.727c0,1.869-0.44,3.538-2.379,3.538c-1.949,0-2.389-1.659-2.389-3.608c0-1.779,0.36-3.578,2.389-3.578
			C10.427,36.079,10.717,38.088,10.717,39.727z M8.318,36.619c-1.399,0-1.729,1.549-1.729,3.108c0,1.809,0.4,2.998,1.749,2.998
			c1.52,0,1.739-1.649,1.739-3.068C10.078,38.138,9.808,36.619,8.318,36.619z"/>
		<path d="M16.277,39.727c0,1.869-0.44,3.538-2.379,3.538c-1.949,0-2.389-1.659-2.389-3.608c0-1.779,0.36-3.578,2.389-3.578
			C15.987,36.079,16.277,38.088,16.277,39.727z M13.878,36.619c-1.399,0-1.729,1.549-1.729,3.108c0,1.809,0.4,2.998,1.749,2.998
			c1.52,0,1.739-1.649,1.739-3.068C15.638,38.138,15.368,36.619,13.878,36.619z"/>
	</g>
	<g>
		<path d="M3.578,70.751H0.36v-0.549l3.278-4.688h0.58v4.697h0.979v0.54H4.218v1.739h-0.64V70.751z M0.989,70.211h2.589v-3.738
			L0.989,70.211z"/>
		<path d="M10.717,69.092c0,1.869-0.44,3.538-2.379,3.538c-1.949,0-2.389-1.659-2.389-3.608c0-1.779,0.36-3.578,2.389-3.578
			C10.427,65.444,10.717,67.453,10.717,69.092z M8.318,65.984c-1.399,0-1.729,1.549-1.729,3.108c0,1.809,0.4,2.998,1.749,2.998
			c1.52,0,1.739-1.649,1.739-3.068C10.078,67.503,9.808,65.984,8.318,65.984z"/>
		<path d="M16.277,69.092c0,1.869-0.44,3.538-2.379,3.538c-1.949,0-2.389-1.659-2.389-3.608c0-1.779,0.36-3.578,2.389-3.578
			C15.987,65.444,16.277,67.453,16.277,69.092z M13.878,65.984c-1.399,0-1.729,1.549-1.729,3.108c0,1.809,0.4,2.998,1.749,2.998
			c1.52,0,1.739-1.649,1.739-3.068C15.638,67.503,15.368,65.984,13.878,65.984z"/>
	</g>
	<g>
		<path d="M2.209,96.13c1.189,0.01,2.019-0.27,2.019-1.349c0-0.87-0.689-1.239-1.499-1.239c-0.899,0-1.509,0.629-1.509,1.509H0.58
			c0-0.63,0.21-1.14,0.68-1.579c0.44-0.4,1.02-0.47,1.599-0.47c1.109,0,2.009,0.56,2.009,1.739c0,0.729-0.32,1.279-1,1.569
			c1.02,0.32,1.25,1.089,1.25,1.739c0,1.16-0.819,2.099-2.269,2.139c-1.629,0-2.359-0.54-2.509-2.179h0.64
			c0,1.07,0.709,1.639,1.749,1.639c1.02,0,1.789-0.759,1.749-1.589c-0.04-1.14-1.029-1.5-2.269-1.409V96.13z"/>
		<path d="M10.717,96.65c0,1.869-0.44,3.538-2.379,3.538c-1.949,0-2.389-1.659-2.389-3.608c0-1.779,0.36-3.578,2.389-3.578
			C10.427,93.002,10.717,95.011,10.717,96.65z M8.318,93.542c-1.399,0-1.729,1.549-1.729,3.108c0,1.809,0.4,2.998,1.749,2.998
			c1.52,0,1.739-1.649,1.739-3.068C10.078,95.061,9.808,93.542,8.318,93.542z"/>
		<path d="M16.277,96.65c0,1.869-0.44,3.538-2.379,3.538c-1.949,0-2.389-1.659-2.389-3.608c0-1.779,0.36-3.578,2.389-3.578
			C15.987,93.002,16.277,95.011,16.277,96.65z M13.878,93.542c-1.399,0-1.729,1.549-1.729,3.108c0,1.809,0.4,2.998,1.749,2.998
			c1.52,0,1.739-1.649,1.739-3.068C15.638,95.061,15.368,93.542,13.878,93.542z"/>
	</g>
	<g>
		<path d="M57.795,201.935v-7.196h1.039l2.359,6.347h0.02l2.319-6.347h1.029v7.196h-0.68v-6.417h-0.02l-2.359,6.417h-0.64
			l-2.369-6.417h-0.02v6.417H57.795z"/>
		<path d="M71.262,196.827c-0.28-1.229-1.039-1.699-2.269-1.699c-1.739,0-2.489,1.489-2.489,3.188c0,1.609,0.59,3.229,2.549,3.229
			c1.239,0,2.009-0.84,2.279-1.979h0.709c-0.32,1.39-1.189,2.559-3.118,2.559c-2.219,0-3.098-1.749-3.098-3.788
			c0-2.748,1.439-3.787,3.348-3.787c1.479,0,2.559,0.789,2.788,2.278H71.262z"/>
		<path d="M77.562,202.684v0.5h-4.997v-0.5H77.562z"/>
		<path d="M78.345,201.935v-7.196h1.039l2.359,6.347h0.02l2.319-6.347h1.029v7.196h-0.68v-6.417h-0.02l-2.359,6.417h-0.64
			l-2.369-6.417h-0.02v6.417H78.345z"/>
		<path d="M86.275,199.346c0-1.509,0.799-2.729,2.398-2.729c1.619,0,2.399,1.209,2.399,2.729c0,1.639-0.95,2.729-2.399,2.729
			C87.354,202.055,86.275,201.154,86.275,199.346z M88.673,197.157c-1.259,0-1.759,1.069-1.759,2.188
			c0,1.289,0.609,2.188,1.759,2.188c1.259,0,1.759-1.079,1.759-2.188C90.422,198.126,89.943,197.157,88.673,197.157z"/>
		<path d="M91.625,196.757h0.649l1.679,4.438l1.679-4.438h0.649l-2.009,5.178h-0.669L91.625,196.757z"/>
		<path d="M97.544,199.485c-0.01,1.12,0.59,2.049,1.739,2.049c0.779,0,1.389-0.43,1.569-1.189h0.67
			c-0.3,0.979-0.919,1.729-2.239,1.729c-1.659,0-2.379-1.18-2.379-2.708c0-1.51,0.899-2.749,2.379-2.749
			c1.419,0,2.289,1.01,2.279,2.868H97.544z M100.923,198.986c0-1.01-0.56-1.829-1.639-1.829c-1.06,0-1.619,0.85-1.739,1.829H100.923
			z"/>
		<path d="M102.165,201.935l2.829-7.196h0.77l2.758,7.196h-0.7l-0.83-2.259h-3.278l-0.85,2.259H102.165z M103.944,199.096h2.819
			l-1.409-3.777L103.944,199.096z"/>
		<path d="M110.074,201.935h-0.6v-7.196h0.6v2.849c0.38-0.63,1.12-0.97,1.849-0.97c1.579,0,2.309,1.289,2.309,2.738
			c0,1.529-0.669,2.719-2.339,2.719c-0.659,0-1.449-0.37-1.799-1.05h-0.02V201.935z M111.823,201.534
			c1.01,0,1.759-0.729,1.769-2.028c0.05-1.3-0.53-2.349-1.769-2.349c-1.089,0-1.749,0.999-1.749,2.169
			C110.074,200.575,110.694,201.534,111.823,201.534z"/>
		<path d="M115.864,200.315c0.19,0.89,0.65,1.219,1.549,1.219c0.87,0,1.279-0.459,1.279-0.959c0-1.499-3.318-0.439-3.318-2.479
			c0-0.859,0.67-1.479,1.819-1.479c1.12,0,1.849,0.46,1.999,1.629h-0.609c-0.11-0.799-0.65-1.089-1.399-1.089
			c-0.76,0-1.169,0.359-1.169,0.89c0,1.409,3.318,0.529,3.318,2.519c0,0.989-0.89,1.509-2.109,1.509s-1.919-0.779-1.969-1.759
			H115.864z"/>
		<path d="M120.175,199.346c0-1.509,0.799-2.729,2.398-2.729c1.619,0,2.399,1.209,2.399,2.729c0,1.639-0.95,2.729-2.399,2.729
			C121.254,202.055,120.175,201.154,120.175,199.346z M122.573,197.157c-1.259,0-1.759,1.069-1.759,2.188
			c0,1.289,0.609,2.188,1.759,2.188c1.259,0,1.759-1.079,1.759-2.188C124.322,198.126,123.843,197.157,122.573,197.157z"/>
		<path d="M126.165,201.935v-7.196h0.6v7.196H126.165z"/>
		<path d="M131.802,196.757h0.6v5.178h-0.6v-0.72c-0.32,0.359-0.759,0.859-1.669,0.859c-1.379,0-1.839-0.829-1.839-1.909v-3.408h0.6
			v3.398c0,0.89,0.39,1.379,1.329,1.379c0.99,0,1.579-0.819,1.579-1.959V196.757z"/>
		<path d="M135.673,201.954c-0.14,0.03-0.4,0.12-0.689,0.12c-0.59,0-0.919-0.26-0.919-1.029v-3.788h-0.73v-0.5h0.73v-1.438h0.6
			v1.438h0.969v0.5h-0.969v3.548c0,0.51,0.02,0.729,0.52,0.729c0.16,0,0.33-0.029,0.49-0.069V201.954z"/>
		<path d="M137.004,199.485c-0.01,1.12,0.59,2.049,1.739,2.049c0.779,0,1.389-0.43,1.569-1.189h0.67
			c-0.3,0.979-0.919,1.729-2.239,1.729c-1.659,0-2.379-1.18-2.379-2.708c0-1.51,0.899-2.749,2.379-2.749
			c1.419,0,2.289,1.01,2.279,2.868H137.004z M140.382,198.986c0-1.01-0.56-1.829-1.639-1.829c-1.06,0-1.619,0.85-1.739,1.829
			H140.382z"/>
		<path d="M144.493,196.697h-1.819v-0.42c1.069-0.07,1.739-0.18,1.949-1.389h0.51v7.046h-0.64V196.697z"/>
	</g>
	<g>
		<path d="M192.626,201.935v-7.196h1.039l2.359,6.347h0.02l2.319-6.347h1.029v7.196h-0.68v-6.417h-0.02l-2.359,6.417h-0.64
			l-2.369-6.417h-0.02v6.417H192.626z"/>
		<path d="M206.093,196.827c-0.28-1.229-1.039-1.699-2.269-1.699c-1.739,0-2.489,1.489-2.489,3.188c0,1.609,0.59,3.229,2.549,3.229
			c1.239,0,2.009-0.84,2.279-1.979h0.709c-0.32,1.39-1.189,2.559-3.118,2.559c-2.219,0-3.098-1.749-3.098-3.788
			c0-2.748,1.439-3.787,3.348-3.787c1.479,0,2.559,0.789,2.788,2.278H206.093z"/>
		<path d="M212.394,202.684v0.5h-4.997v-0.5H212.394z"/>
		<path d="M213.176,201.935v-7.196h1.039l2.359,6.347h0.02l2.319-6.347h1.029v7.196h-0.68v-6.417h-0.02l-2.359,6.417h-0.64
			l-2.369-6.417h-0.02v6.417H213.176z"/>
		<path d="M221.106,199.346c0-1.509,0.799-2.729,2.398-2.729c1.619,0,2.399,1.209,2.399,2.729c0,1.639-0.95,2.729-2.399,2.729
			C222.186,202.055,221.106,201.154,221.106,199.346z M223.505,197.157c-1.259,0-1.759,1.069-1.759,2.188
			c0,1.289,0.609,2.188,1.759,2.188c1.259,0,1.759-1.079,1.759-2.188C225.254,198.126,224.774,197.157,223.505,197.157z"/>
		<path d="M226.457,196.757h0.649l1.679,4.438l1.679-4.438h0.649l-2.009,5.178h-0.669L226.457,196.757z"/>
		<path d="M232.376,199.485c-0.01,1.12,0.59,2.049,1.739,2.049c0.779,0,1.389-0.43,1.569-1.189h0.67
			c-0.3,0.979-0.919,1.729-2.239,1.729c-1.659,0-2.379-1.18-2.379-2.708c0-1.51,0.899-2.749,2.379-2.749
			c1.419,0,2.289,1.01,2.279,2.868H232.376z M235.754,198.986c0-1.01-0.56-1.829-1.639-1.829c-1.06,0-1.619,0.85-1.739,1.829
			H235.754z"/>
		<path d="M236.997,201.935l2.829-7.196h0.77l2.758,7.196h-0.7l-0.83-2.259h-3.278l-0.85,2.259H236.997z M238.775,199.096h2.819
			l-1.409-3.777L238.775,199.096z"/>
		<path d="M244.906,201.935h-0.6v-7.196h0.6v2.849c0.38-0.63,1.12-0.97,1.849-0.97c1.579,0,2.309,1.289,2.309,2.738
			c0,1.529-0.669,2.719-2.339,2.719c-0.659,0-1.449-0.37-1.799-1.05h-0.02V201.935z M246.655,201.534
			c1.01,0,1.759-0.729,1.769-2.028c0.05-1.3-0.53-2.349-1.769-2.349c-1.089,0-1.749,0.999-1.749,2.169
			C244.906,200.575,245.525,201.534,246.655,201.534z"/>
		<path d="M250.696,200.315c0.19,0.89,0.65,1.219,1.549,1.219c0.87,0,1.279-0.459,1.279-0.959c0-1.499-3.318-0.439-3.318-2.479
			c0-0.859,0.67-1.479,1.819-1.479c1.12,0,1.849,0.46,2,1.629h-0.609c-0.11-0.799-0.65-1.089-1.4-1.089
			c-0.76,0-1.169,0.359-1.169,0.89c0,1.409,3.318,0.529,3.318,2.519c0,0.989-0.89,1.509-2.109,1.509s-1.919-0.779-1.969-1.759
			H250.696z"/>
		<path d="M255.007,199.346c0-1.509,0.799-2.729,2.398-2.729c1.619,0,2.398,1.209,2.398,2.729c0,1.639-0.949,2.729-2.398,2.729
			C256.086,202.055,255.007,201.154,255.007,199.346z M257.405,197.157c-1.26,0-1.759,1.069-1.759,2.188
			c0,1.289,0.609,2.188,1.759,2.188c1.259,0,1.759-1.079,1.759-2.188C259.154,198.126,258.675,197.157,257.405,197.157z"/>
		<path d="M260.996,201.935v-7.196h0.6v7.196H260.996z"/>
		<path d="M266.634,196.757h0.6v5.178h-0.6v-0.72c-0.319,0.359-0.759,0.859-1.669,0.859c-1.379,0-1.839-0.829-1.839-1.909v-3.408
			h0.6v3.398c0,0.89,0.39,1.379,1.329,1.379c0.99,0,1.579-0.819,1.579-1.959V196.757z"/>
		<path d="M270.505,201.954c-0.14,0.03-0.399,0.12-0.689,0.12c-0.59,0-0.919-0.26-0.919-1.029v-3.788h-0.73v-0.5h0.73v-1.438h0.6
			v1.438h0.969v0.5h-0.969v3.548c0,0.51,0.02,0.729,0.52,0.729c0.16,0,0.33-0.029,0.489-0.069V201.954z"/>
		<path d="M271.836,199.485c-0.01,1.12,0.59,2.049,1.739,2.049c0.779,0,1.389-0.43,1.568-1.189h0.67
			c-0.3,0.979-0.919,1.729-2.238,1.729c-1.659,0-2.379-1.18-2.379-2.708c0-1.51,0.899-2.749,2.379-2.749
			c1.419,0,2.288,1.01,2.278,2.868H271.836z M275.214,198.986c0-1.01-0.56-1.829-1.639-1.829c-1.06,0-1.619,0.85-1.739,1.829
			H275.214z"/>
		<path d="M276.996,197.197c0-1.39,0.899-2.309,2.289-2.309c1.419,0,2.168,0.869,2.168,1.948c0,1.869-2.019,2.339-3.067,3.139
			c-0.46,0.35-0.89,0.749-0.92,1.419h3.928v0.54h-4.607c0.01-0.67,0.1-1.199,0.55-1.72c1.469-1.698,3.418-1.679,3.418-3.338
			c0-0.919-0.68-1.449-1.549-1.449c-0.92,0-1.569,0.819-1.529,1.77H276.996z"/>
	</g>
	<g>
		<path d="M301.054,201.935v-7.196h1.039l2.358,6.347h0.021l2.318-6.347h1.029v7.196h-0.68v-6.417h-0.02l-2.359,6.417h-0.64
			l-2.368-6.417h-0.021v6.417H301.054z"/>
		<path d="M314.521,196.827c-0.28-1.229-1.039-1.699-2.269-1.699c-1.739,0-2.489,1.489-2.489,3.188c0,1.609,0.59,3.229,2.549,3.229
			c1.239,0,2.009-0.84,2.279-1.979h0.709c-0.319,1.39-1.189,2.559-3.118,2.559c-2.219,0-3.098-1.749-3.098-3.788
			c0-2.748,1.438-3.787,3.348-3.787c1.479,0,2.559,0.789,2.788,2.278H314.521z"/>
		<path d="M320.82,202.684v0.5h-4.997v-0.5H320.82z"/>
		<path d="M321.604,201.935v-7.196h1.039l2.358,6.347h0.021l2.318-6.347h1.029v7.196h-0.68v-6.417h-0.02l-2.359,6.417h-0.64
			l-2.368-6.417h-0.021v6.417H321.604z"/>
		<path d="M329.533,199.346c0-1.509,0.8-2.729,2.398-2.729c1.619,0,2.399,1.209,2.399,2.729c0,1.639-0.95,2.729-2.399,2.729
			C330.612,202.055,329.533,201.154,329.533,199.346z M331.932,197.157c-1.259,0-1.759,1.069-1.759,2.188
			c0,1.289,0.609,2.188,1.759,2.188c1.26,0,1.76-1.079,1.76-2.188C333.681,198.126,333.201,197.157,331.932,197.157z"/>
		<path d="M334.884,196.757h0.649l1.679,4.438l1.68-4.438h0.649l-2.009,5.178h-0.67L334.884,196.757z"/>
		<path d="M340.803,199.485c-0.01,1.12,0.59,2.049,1.739,2.049c0.779,0,1.39-0.43,1.569-1.189h0.67
			c-0.3,0.979-0.92,1.729-2.239,1.729c-1.659,0-2.379-1.18-2.379-2.708c0-1.51,0.899-2.749,2.379-2.749
			c1.419,0,2.289,1.01,2.279,2.868H340.803z M344.182,198.986c0-1.01-0.561-1.829-1.64-1.829c-1.06,0-1.619,0.85-1.739,1.829
			H344.182z"/>
		<path d="M345.424,201.935l2.828-7.196h0.77l2.759,7.196h-0.7l-0.829-2.259h-3.278l-0.85,2.259H345.424z M347.202,199.096h2.819
			l-1.409-3.777L347.202,199.096z"/>
		<path d="M353.333,201.935h-0.6v-7.196h0.6v2.849c0.38-0.63,1.119-0.97,1.849-0.97c1.579,0,2.309,1.289,2.309,2.738
			c0,1.529-0.669,2.719-2.339,2.719c-0.659,0-1.448-0.37-1.799-1.05h-0.02V201.935z M355.082,201.534
			c1.01,0,1.759-0.729,1.769-2.028c0.051-1.3-0.529-2.349-1.769-2.349c-1.09,0-1.749,0.999-1.749,2.169
			C353.333,200.575,353.952,201.534,355.082,201.534z"/>
		<path d="M359.123,200.315c0.189,0.89,0.649,1.219,1.549,1.219c0.87,0,1.279-0.459,1.279-0.959c0-1.499-3.318-0.439-3.318-2.479
			c0-0.859,0.67-1.479,1.819-1.479c1.119,0,1.849,0.46,1.999,1.629h-0.609c-0.11-0.799-0.65-1.089-1.399-1.089
			c-0.76,0-1.17,0.359-1.17,0.89c0,1.409,3.318,0.529,3.318,2.519c0,0.989-0.89,1.509-2.108,1.509c-1.22,0-1.919-0.779-1.969-1.759
			H359.123z"/>
		<path d="M363.434,199.346c0-1.509,0.799-2.729,2.398-2.729c1.619,0,2.398,1.209,2.398,2.729c0,1.639-0.949,2.729-2.398,2.729
			C364.513,202.055,363.434,201.154,363.434,199.346z M365.832,197.157c-1.26,0-1.759,1.069-1.759,2.188
			c0,1.289,0.609,2.188,1.759,2.188c1.259,0,1.759-1.079,1.759-2.188C367.581,198.126,367.102,197.157,365.832,197.157z"/>
		<path d="M369.423,201.935v-7.196h0.6v7.196H369.423z"/>
		<path d="M375.061,196.757h0.6v5.178h-0.6v-0.72c-0.319,0.359-0.759,0.859-1.669,0.859c-1.379,0-1.839-0.829-1.839-1.909v-3.408
			h0.6v3.398c0,0.89,0.39,1.379,1.329,1.379c0.99,0,1.579-0.819,1.579-1.959V196.757z"/>
		<path d="M378.932,201.954c-0.14,0.03-0.399,0.12-0.689,0.12c-0.59,0-0.919-0.26-0.919-1.029v-3.788h-0.73v-0.5h0.73v-1.438h0.6
			v1.438h0.969v0.5h-0.969v3.548c0,0.51,0.02,0.729,0.52,0.729c0.16,0,0.33-0.029,0.489-0.069V201.954z"/>
		<path d="M380.263,199.485c-0.01,1.12,0.59,2.049,1.739,2.049c0.779,0,1.389-0.43,1.568-1.189h0.67
			c-0.3,0.979-0.919,1.729-2.238,1.729c-1.659,0-2.379-1.18-2.379-2.708c0-1.51,0.899-2.749,2.379-2.749
			c1.419,0,2.288,1.01,2.278,2.868H380.263z M383.641,198.986c0-1.01-0.56-1.829-1.639-1.829c-1.06,0-1.619,0.85-1.739,1.829
			H383.641z"/>
		<path d="M386.942,198.017c1.188,0.01,2.019-0.27,2.019-1.35c0-0.869-0.689-1.239-1.499-1.239c-0.899,0-1.51,0.63-1.51,1.51h-0.64
			c0-0.63,0.21-1.14,0.68-1.579c0.44-0.4,1.02-0.47,1.6-0.47c1.109,0,2.009,0.56,2.009,1.738c0,0.729-0.32,1.279-1,1.569
			c1.02,0.32,1.25,1.09,1.25,1.739c0,1.159-0.819,2.099-2.269,2.139c-1.63,0-2.359-0.54-2.509-2.179h0.64
			c0,1.069,0.709,1.639,1.749,1.639c1.02,0,1.789-0.759,1.749-1.589c-0.04-1.14-1.029-1.499-2.269-1.409V198.017z"/>
	</g>
	<g>
		<path d="M402.739,201.935v-7.196h1.039l2.358,6.347h0.021l2.318-6.347h1.029v7.196h-0.68v-6.417h-0.02l-2.359,6.417h-0.64
			l-2.368-6.417h-0.021v6.417H402.739z"/>
		<path d="M416.206,196.827c-0.28-1.229-1.039-1.699-2.269-1.699c-1.739,0-2.489,1.489-2.489,3.188c0,1.609,0.59,3.229,2.549,3.229
			c1.239,0,2.009-0.84,2.279-1.979h0.709c-0.319,1.39-1.189,2.559-3.118,2.559c-2.219,0-3.098-1.749-3.098-3.788
			c0-2.748,1.438-3.787,3.348-3.787c1.479,0,2.559,0.789,2.788,2.278H416.206z"/>
		<path d="M422.506,202.684v0.5h-4.997v-0.5H422.506z"/>
		<path d="M423.289,201.935v-7.196h1.039l2.358,6.347h0.021l2.318-6.347h1.029v7.196h-0.68v-6.417h-0.02l-2.359,6.417h-0.64
			l-2.368-6.417h-0.021v6.417H423.289z"/>
		<path d="M431.219,199.346c0-1.509,0.8-2.729,2.398-2.729c1.619,0,2.399,1.209,2.399,2.729c0,1.639-0.95,2.729-2.399,2.729
			C432.298,202.055,431.219,201.154,431.219,199.346z M433.617,197.157c-1.259,0-1.759,1.069-1.759,2.188
			c0,1.289,0.609,2.188,1.759,2.188c1.26,0,1.76-1.079,1.76-2.188C435.366,198.126,434.887,197.157,433.617,197.157z"/>
		<path d="M436.569,196.757h0.649l1.679,4.438l1.68-4.438h0.649l-2.009,5.178h-0.67L436.569,196.757z"/>
		<path d="M442.488,199.485c-0.01,1.12,0.59,2.049,1.739,2.049c0.779,0,1.39-0.43,1.569-1.189h0.67
			c-0.3,0.979-0.92,1.729-2.239,1.729c-1.659,0-2.379-1.18-2.379-2.708c0-1.51,0.899-2.749,2.379-2.749
			c1.419,0,2.289,1.01,2.279,2.868H442.488z M445.867,198.986c0-1.01-0.561-1.829-1.64-1.829c-1.06,0-1.619,0.85-1.739,1.829
			H445.867z"/>
		<path d="M447.109,201.935l2.828-7.196h0.77l2.759,7.196h-0.7l-0.829-2.259h-3.278l-0.85,2.259H447.109z M448.888,199.096h2.819
			l-1.409-3.777L448.888,199.096z"/>
		<path d="M455.019,201.935h-0.6v-7.196h0.6v2.849c0.38-0.63,1.119-0.97,1.849-0.97c1.579,0,2.309,1.289,2.309,2.738
			c0,1.529-0.669,2.719-2.339,2.719c-0.659,0-1.448-0.37-1.799-1.05h-0.02V201.935z M456.768,201.534
			c1.01,0,1.759-0.729,1.769-2.028c0.051-1.3-0.529-2.349-1.769-2.349c-1.09,0-1.749,0.999-1.749,2.169
			C455.019,200.575,455.638,201.534,456.768,201.534z"/>
		<path d="M460.809,200.315c0.189,0.89,0.649,1.219,1.549,1.219c0.87,0,1.279-0.459,1.279-0.959c0-1.499-3.318-0.439-3.318-2.479
			c0-0.859,0.67-1.479,1.819-1.479c1.119,0,1.849,0.46,1.999,1.629h-0.609c-0.11-0.799-0.65-1.089-1.399-1.089
			c-0.76,0-1.17,0.359-1.17,0.89c0,1.409,3.318,0.529,3.318,2.519c0,0.989-0.89,1.509-2.108,1.509c-1.22,0-1.919-0.779-1.969-1.759
			H460.809z"/>
		<path d="M465.119,199.346c0-1.509,0.799-2.729,2.398-2.729c1.619,0,2.398,1.209,2.398,2.729c0,1.639-0.949,2.729-2.398,2.729
			C466.198,202.055,465.119,201.154,465.119,199.346z M467.518,197.157c-1.26,0-1.759,1.069-1.759,2.188
			c0,1.289,0.609,2.188,1.759,2.188c1.259,0,1.759-1.079,1.759-2.188C469.267,198.126,468.787,197.157,467.518,197.157z"/>
		<path d="M471.108,201.935v-7.196h0.6v7.196H471.108z"/>
		<path d="M476.746,196.757h0.6v5.178h-0.6v-0.72c-0.319,0.359-0.759,0.859-1.669,0.859c-1.379,0-1.839-0.829-1.839-1.909v-3.408
			h0.6v3.398c0,0.89,0.39,1.379,1.329,1.379c0.99,0,1.579-0.819,1.579-1.959V196.757z"/>
		<path d="M480.617,201.954c-0.14,0.03-0.399,0.12-0.689,0.12c-0.59,0-0.919-0.26-0.919-1.029v-3.788h-0.73v-0.5h0.73v-1.438h0.6
			v1.438h0.969v0.5h-0.969v3.548c0,0.51,0.02,0.729,0.52,0.729c0.16,0,0.33-0.029,0.489-0.069V201.954z"/>
		<path d="M481.948,199.485c-0.01,1.12,0.59,2.049,1.739,2.049c0.779,0,1.389-0.43,1.568-1.189h0.67
			c-0.3,0.979-0.919,1.729-2.238,1.729c-1.659,0-2.379-1.18-2.379-2.708c0-1.51,0.899-2.749,2.379-2.749
			c1.419,0,2.288,1.01,2.278,2.868H481.948z M485.326,198.986c0-1.01-0.56-1.829-1.639-1.829c-1.06,0-1.619,0.85-1.739,1.829
			H485.326z"/>
		<path d="M489.997,200.195h-3.219v-0.55l3.278-4.688h0.58v4.697h0.979v0.54h-0.979v1.739h-0.64V200.195z M487.408,199.655h2.589
			v-3.737L487.408,199.655z"/>
	</g>
	<g>
	</g>
	<g>
	</g>
	<g>
	</g>
	<g>
	</g>
	<g>
	</g>
	<g>
	</g>
	<g>
	</g>
	<g>
	</g>
	<g>
	</g>
	<g>
	</g>
	<g>
	</g>
	<g>
	</g>
	<g>
	</g>
	<g>
	</g>
	<g>
	</g>
</g>
</svg>
