<?xml version="1.0" encoding="utf-8"?>
<!-- Generator: Adobe Illustrator 28.2.0, SVG Export Plug-In . SVG Version: 6.00 Build 0)  -->
<svg version="1.1" id="儗僀儎乕_1" xmlns="http://www.w3.org/2000/svg" xmlns:xlink="http://www.w3.org/1999/xlink" x="0px"
	 y="0px" width="311.808px" height="97.647px" viewBox="0 0 311.808 97.647" style="enable-background:new 0 0 311.808 97.647;"
	 xml:space="preserve">
<style type="text/css">
	.st0{fill:none;stroke:#B3B3B3;stroke-width:0.3;}
	.st1{fill:#CCCCCC;stroke:#000000;stroke-width:0.8;}
	.st2{fill:none;stroke:#000000;stroke-width:0.8;}
	.st3{fill:none;stroke:#000000;stroke-width:0.3;}
	.st4{stroke:#000000;stroke-width:0.8;}
</style>
<line class="st0" x1="225.633" y1="0" x2="225.633" y2="97.135"/>
<line class="st0" x1="231.391" y1="0" x2="231.391" y2="97.057"/>
<rect x="225.411" y="52.891" class="st1" width="40.442" height="17.891"/>
<rect x="87.076" y="52.891" class="st1" width="98.033" height="17.891"/>
<rect x="87.076" y="79.557" class="st1" width="5.833" height="17.578"/>
<rect x="225.826" y="79.557" class="st1" width="5.835" height="17.578"/>
<g>
	<line class="st2" x1="87.128" y1="42.539" x2="87.154" y2="24.761"/>
</g>
<g>
	<line class="st2" x1="225.37" y1="42.539" x2="225.615" y2="23.738"/>
</g>
<line class="st3" x1="75.852" y1="0" x2="75.852" y2="9.973"/>
<line class="st3" x1="81.61" y1="0" x2="81.61" y2="9.973"/>
<line class="st0" x1="87.368" y1="0" x2="87.368" y2="97.031"/>
<line class="st0" x1="93.126" y1="0" x2="93.126" y2="97.031"/>
<line class="st3" x1="98.884" y1="0" x2="98.884" y2="9.973"/>
<line class="st3" x1="104.642" y1="0" x2="104.642" y2="9.973"/>
<line class="st2" x1="76.373" y1="42.539" x2="87.467" y2="42.539"/>
<line class="st2" x1="185.566" y1="42.539" x2="225.801" y2="42.539"/>
<line class="st2" x1="87.154" y1="23.738" x2="184.992" y2="23.738"/>
<line class="st3" x1="110.399" y1="0" x2="110.399" y2="9.973"/>
<line class="st3" x1="116.157" y1="0" x2="116.157" y2="9.973"/>
<line class="st3" x1="121.915" y1="0" x2="121.915" y2="9.973"/>
<line class="st3" x1="127.674" y1="0" x2="127.674" y2="9.973"/>
<line class="st3" x1="133.431" y1="0" x2="133.431" y2="9.973"/>
<line class="st3" x1="139.189" y1="0" x2="139.189" y2="9.973"/>
<line class="st3" x1="144.947" y1="0" x2="144.947" y2="9.973"/>
<line class="st3" x1="150.704" y1="0" x2="150.704" y2="9.973"/>
<line class="st3" x1="156.462" y1="0" x2="156.462" y2="9.973"/>
<line class="st3" x1="162.221" y1="0" x2="162.221" y2="9.973"/>
<line class="st3" x1="167.978" y1="0" x2="167.978" y2="9.973"/>
<line class="st3" x1="173.736" y1="0" x2="173.736" y2="9.973"/>
<line class="st3" x1="179.494" y1="0" x2="179.494" y2="9.973"/>
<line class="st3" x1="185.251" y1="0" x2="185.251" y2="9.973"/>
<line class="st3" x1="191.01" y1="0" x2="191.01" y2="9.973"/>
<line class="st3" x1="196.767" y1="0" x2="196.767" y2="9.973"/>
<line class="st3" x1="202.525" y1="0" x2="202.525" y2="9.973"/>
<line class="st3" x1="208.283" y1="0" x2="208.283" y2="9.973"/>
<line class="st3" x1="214.041" y1="0" x2="214.041" y2="9.973"/>
<path class="st0" d="M225.633,97.135"/>
<path class="st0" d="M225.633,0"/>
<path class="st0" d="M231.391,97.057"/>
<path class="st0" d="M231.391,0"/>
<line class="st3" x1="237.073" y1="0" x2="237.073" y2="9.973"/>
<line class="st3" x1="242.83" y1="0" x2="242.83" y2="9.973"/>
<line class="st3" x1="248.588" y1="0" x2="248.588" y2="9.973"/>
<line class="st3" x1="254.346" y1="0" x2="254.346" y2="9.973"/>
<line class="st3" x1="260.104" y1="0" x2="260.104" y2="9.973"/>
<line class="st3" x1="265.861" y1="0" x2="265.861" y2="9.973"/>
<line class="st3" x1="271.62" y1="0" x2="271.62" y2="9.973"/>
<line class="st3" x1="277.377" y1="0" x2="277.377" y2="9.973"/>
<line class="st3" x1="283.135" y1="0" x2="283.135" y2="9.973"/>
<line class="st3" x1="288.893" y1="0" x2="288.893" y2="9.973"/>
<line class="st3" x1="294.651" y1="0" x2="294.651" y2="9.973"/>
<line class="st3" x1="300.408" y1="0" x2="300.408" y2="9.973"/>
<line class="st3" x1="305.901" y1="0" x2="305.901" y2="9.973"/>
<line class="st3" x1="311.658" y1="0" x2="311.658" y2="9.973"/>
<line class="st2" x1="185.444" y1="42.864" x2="185.444" y2="23.254"/>
<line class="st2" x1="75.826" y1="52.957" x2="311.034" y2="52.957"/>
<line class="st2" x1="75.826" y1="70.673" x2="311.034" y2="70.673"/>
<line class="st2" x1="75.826" y1="79.53" x2="311.034" y2="79.53"/>
<line class="st2" x1="75.826" y1="97.247" x2="311.034" y2="97.247"/>
<g>
	<line class="st2" x1="152.206" y1="88.311" x2="95.638" y2="88.311"/>
	<polygon class="st4" points="93.432,88.311 96.541,87.04 95.804,88.311 96.541,89.581 	"/>
</g>
<g>
	<line class="st2" x1="160.888" y1="88.322" x2="222.889" y2="88.322"/>
	<polygon class="st4" points="225.096,88.322 221.985,89.591 222.724,88.322 221.985,87.051 	"/>
</g>
<g>
	<line class="st2" x1="241.752" y1="88.311" x2="234.507" y2="88.311"/>
	<polygon class="st4" points="232.3,88.311 235.411,87.04 234.672,88.311 235.411,89.581 	"/>
</g>
<g>
	<line class="st2" x1="77.052" y1="88.373" x2="83.697" y2="88.373"/>
	<polygon class="st4" points="85.904,88.373 82.795,89.644 83.533,88.373 82.795,87.103 	"/>
</g>
<g>
	<path d="M60.484,26.326c-2.143,0-2.798-1.783-2.798-3.022s0.655-3.022,2.798-3.022c2.143,0,2.798,1.783,2.798,3.022
		S62.626,26.326,60.484,26.326z M60.484,20.969c-1.248,0-1.999,0.983-1.999,2.335c0,1.351,0.751,2.334,1.999,2.334
		c1.247,0,1.999-0.983,1.999-2.334C62.483,21.952,61.731,20.969,60.484,20.969z"/>
	<path d="M68.011,20.433h0.751v5.741h-0.872l-2.918-4.638h-0.016v4.638h-0.752v-5.741h0.92l2.87,4.638h0.016V20.433z"/>
</g>
<g>
	<path d="M60.484,44.243c-2.143,0-2.798-1.783-2.798-3.022s0.655-3.022,2.798-3.022c2.143,0,2.798,1.783,2.798,3.022
		S62.626,44.243,60.484,44.243z M60.484,38.886c-1.248,0-1.999,0.983-1.999,2.335c0,1.351,0.751,2.334,1.999,2.334
		c1.247,0,1.999-0.983,1.999-2.334C62.483,39.869,61.731,38.886,60.484,38.886z"/>
	<path d="M65.061,44.091h-0.776V38.35h3.974v0.688h-3.198v1.76h2.814v0.688h-2.814V44.091z"/>
	<path d="M69.949,44.091h-0.776V38.35h3.974v0.688h-3.198v1.76h2.814v0.688h-2.814V44.091z"/>
</g>
<g>
	<path d="M4.07,5.148C4.03,4.26,3.294,3.98,2.646,3.98c-0.488,0-1.311,0.137-1.311,1.008c0,0.487,0.344,0.647,0.679,0.728
		l1.639,0.376c0.744,0.176,1.303,0.624,1.303,1.535c0,1.359-1.263,1.735-2.247,1.735c-1.063,0-1.479-0.32-1.735-0.552
		c-0.488-0.44-0.584-0.92-0.584-1.456h0.728c0,1.04,0.848,1.344,1.583,1.344c0.56,0,1.503-0.144,1.503-0.968
		c0-0.6-0.28-0.791-1.223-1.015L1.807,6.442C1.431,6.355,0.583,6.091,0.583,5.091c0-0.896,0.584-1.774,1.975-1.774
		c2.007,0,2.207,1.199,2.239,1.831H4.07z"/>
	<path d="M8.47,6.435c-0.088-0.56-0.4-0.896-0.992-0.896c-0.871,0-1.151,0.831-1.151,1.575c0,0.72,0.176,1.607,1.144,1.607
		c0.472,0,0.879-0.353,1-0.992h0.68c-0.072,0.664-0.48,1.6-1.703,1.6c-1.175,0-1.871-0.888-1.871-2.095
		c0-1.296,0.624-2.327,2.007-2.327c1.096,0,1.511,0.8,1.567,1.527H8.47z"/>
	<path d="M9.832,6.299c0.032-1,0.696-1.392,1.727-1.392c0.336,0,1.551,0.096,1.551,1.167v2.407c0,0.176,0.088,0.248,0.232,0.248
		c0.064,0,0.152-0.017,0.232-0.032v0.512c-0.12,0.032-0.224,0.08-0.384,0.08c-0.624,0-0.72-0.32-0.744-0.64
		c-0.272,0.296-0.696,0.68-1.511,0.68c-0.768,0-1.311-0.488-1.311-1.208c0-0.352,0.104-1.167,1.271-1.311l1.16-0.145
		c0.167-0.016,0.368-0.08,0.368-0.495c0-0.44-0.32-0.68-0.983-0.68c-0.8,0-0.912,0.487-0.959,0.808H9.832z M12.406,7.074
		c-0.112,0.088-0.288,0.152-1.159,0.264c-0.344,0.048-0.896,0.152-0.896,0.68c0,0.456,0.231,0.728,0.759,0.728
		c0.656,0,1.295-0.424,1.295-0.983V7.074z"/>
	<path d="M17.71,9.209h-0.704V6.635c0-0.728-0.208-1.096-0.896-1.096c-0.4,0-1.104,0.256-1.104,1.392v2.278h-0.704V5.027h0.664
		v0.592h0.016c0.152-0.224,0.544-0.712,1.264-0.712c0.647,0,1.463,0.264,1.463,1.455V9.209z"/>
</g>
<g>
	<path d="M155.377,86.128l0.84,0.304v-0.88h0.479v0.88l0.839-0.304l0.16,0.439l-0.864,0.272l0.536,0.735l-0.392,0.271l-0.52-0.751
		l-0.52,0.751l-0.392-0.271l0.536-0.735l-0.863-0.272L155.377,86.128z"/>
</g>
<g>
	<path d="M0.112,32.635h4.662v0.688H2.831v5.054H2.055v-5.054H0.112V32.635z"/>
	<path d="M5.247,38.376H4.543v-4.182h0.664v0.695h0.016c0.28-0.487,0.647-0.815,1.175-0.815c0.088,0,0.128,0.008,0.184,0.024v0.728
		H6.318c-0.656,0-1.071,0.512-1.071,1.119V38.376z"/>
	<path d="M7.248,33.435v-0.8h0.704v0.8H7.248z M7.951,38.376H7.248v-4.182h0.704V38.376z"/>
	<path d="M12.478,38.032c0,0.6-0.008,2.103-1.943,2.103c-0.496,0-1.463-0.136-1.599-1.247h0.704
		c0.128,0.664,0.775,0.664,0.943,0.664c1.215,0,1.191-0.976,1.191-1.472v-0.176h-0.016v0.032c-0.184,0.296-0.552,0.56-1.111,0.56
		c-1.423,0-1.839-1.336-1.839-2.335c0-1.175,0.632-2.087,1.743-2.087c0.759,0,1.079,0.472,1.247,0.712h0.016v-0.592h0.664V38.032z
		 M10.663,37.889c0.448,0,1.144-0.296,1.144-1.407c0-0.68-0.112-1.775-1.127-1.775c-1.087,0-1.144,1.031-1.144,1.567
		C9.535,37.192,9.895,37.889,10.663,37.889z"/>
	<path d="M16.925,38.032c0,0.6-0.008,2.103-1.943,2.103c-0.496,0-1.463-0.136-1.599-1.247h0.704
		c0.128,0.664,0.775,0.664,0.943,0.664c1.215,0,1.191-0.976,1.191-1.472v-0.176h-0.016v0.032c-0.184,0.296-0.551,0.56-1.111,0.56
		c-1.423,0-1.839-1.336-1.839-2.335c0-1.175,0.632-2.087,1.743-2.087c0.759,0,1.079,0.472,1.247,0.712h0.016v-0.592h0.664V38.032z
		 M15.11,37.889c0.448,0,1.144-0.296,1.144-1.407c0-0.68-0.112-1.775-1.127-1.775c-1.087,0-1.144,1.031-1.144,1.567
		C13.983,37.192,14.343,37.889,15.11,37.889z"/>
	<path d="M21.454,37.065c-0.024,0.2-0.216,0.792-0.744,1.144c-0.192,0.128-0.464,0.288-1.135,0.288
		c-1.175,0-1.871-0.888-1.871-2.095c0-1.296,0.624-2.327,2.007-2.327c1.208,0,1.799,0.96,1.799,2.438h-3.055
		c0,0.872,0.408,1.376,1.215,1.376c0.664,0,1.056-0.512,1.08-0.824H21.454z M20.782,35.953c-0.04-0.647-0.312-1.247-1.167-1.247
		c-0.648,0-1.16,0.6-1.16,1.247H20.782z"/>
	<path d="M23.151,38.376h-0.704v-4.182h0.664v0.695h0.016c0.28-0.487,0.647-0.815,1.175-0.815c0.088,0,0.128,0.008,0.184,0.024
		v0.728h-0.264c-0.656,0-1.071,0.512-1.071,1.119V38.376z"/>
</g>
<g>
	<path d="M128.491,60.844c0.297,0.042,0.591,0.062,0.883,0.062h0.281v-1.133c0-0.161-0.011-0.325-0.031-0.492
		c0.198,0.021,0.417,0.031,0.656,0.031c-0.068,0.151-0.102,0.328-0.102,0.531v1.062h0.031c0.297,0,0.591-0.021,0.883-0.062
		c-0.021,0.104-0.031,0.206-0.031,0.305c0,0.109,0.01,0.214,0.031,0.312c-0.292-0.042-0.586-0.062-0.883-0.062h-0.031v1.719
		c0.323-0.136,0.627-0.281,0.914-0.438c-0.021,0.302-0.031,0.513-0.031,0.633c-0.328,0.109-0.623,0.216-0.883,0.32V66
		c0,0.255-0.104,0.425-0.312,0.508c-0.208,0.078-0.508,0.117-0.898,0.117c-0.058-0.25-0.162-0.458-0.312-0.625h0.438
		c0.375,0,0.562-0.097,0.562-0.289v-1.859c-0.526,0.219-0.894,0.401-1.102,0.547c-0.011-0.198-0.07-0.427-0.18-0.688
		c0.448-0.104,0.875-0.231,1.281-0.383v-1.93h-0.281c-0.292,0-0.586,0.021-0.883,0.062c0.021-0.099,0.031-0.203,0.031-0.312
		C128.522,61.05,128.512,60.948,128.491,60.844z M132.343,59.281c0.177,0.036,0.406,0.055,0.688,0.055
		c-0.089,0.312-0.133,0.675-0.133,1.086v0.453h0.789c0.297,0,0.596-0.023,0.898-0.07c-0.042,0.198-0.062,0.396-0.062,0.594
		c0,1.953,0.057,3.141,0.172,3.562c0.125,0.542,0.227,0.812,0.305,0.812c0.036-0.094,0.086-0.438,0.148-1.031
		c0.172,0.219,0.372,0.378,0.602,0.477c-0.219,0.917-0.409,1.375-0.57,1.375c-0.183-0.016-0.375-0.161-0.578-0.438
		c-0.203-0.297-0.359-0.714-0.469-1.25c-0.109-0.636-0.164-1.805-0.164-3.508h-1.07v0.164c0,0.859-0.039,1.575-0.117,2.148
		c0.25,0.188,0.508,0.378,0.773,0.57c-0.193,0.183-0.328,0.356-0.406,0.523c-0.167-0.161-0.326-0.312-0.477-0.453
		c-0.062,0.229-0.128,0.425-0.195,0.586c-0.292,0.641-0.794,1.214-1.508,1.719c-0.13-0.192-0.3-0.339-0.508-0.438
		c0.812-0.516,1.344-1.058,1.594-1.625c0.067-0.167,0.125-0.37,0.172-0.609c-0.328-0.266-0.656-0.5-0.984-0.703
		c0.161-0.136,0.299-0.281,0.414-0.438c0.213,0.167,0.438,0.339,0.672,0.516c0.052-0.5,0.078-1.099,0.078-1.797v-0.164h-0.289
		c-0.266,0-0.534,0.021-0.805,0.062c0.021-0.109,0.031-0.224,0.031-0.344c0-0.099-0.011-0.203-0.031-0.312
		c0.271,0.047,0.539,0.07,0.805,0.07h0.289v-0.164C132.405,60.289,132.384,59.813,132.343,59.281z"/>
	<path d="M138.179,59.367c0.198,0.104,0.438,0.19,0.719,0.258c-0.109,0.067-0.232,0.192-0.367,0.375
		c-0.453,0.641-1.008,1.231-1.664,1.773c-0.13-0.156-0.315-0.292-0.555-0.406c0.516-0.312,0.917-0.644,1.203-0.992
		C137.853,59.989,138.074,59.653,138.179,59.367z M138.585,61c0.224,0.141,0.466,0.234,0.727,0.281
		c-0.172,0.099-0.357,0.308-0.555,0.625c-0.13,0.239-0.279,0.469-0.445,0.688v2.938c0,0.391,0.021,0.784,0.062,1.18
		c-0.13-0.021-0.255-0.031-0.375-0.031c-0.13,0-0.255,0.011-0.375,0.031c0.042-0.396,0.062-0.789,0.062-1.18v-2.219
		c-0.276,0.281-0.589,0.56-0.938,0.836c-0.094-0.229-0.208-0.414-0.344-0.555c0.583-0.37,1.047-0.761,1.391-1.172
		C138.15,62.016,138.413,61.542,138.585,61z M139.374,61.875c0.338,0.042,0.682,0.062,1.031,0.062h2.344
		c0.344,0,0.685-0.021,1.023-0.062c-0.016,0.12-0.023,0.245-0.023,0.375c0,0.109,0.008,0.224,0.023,0.344
		c-0.339-0.042-0.68-0.062-1.023-0.062h-0.539v3.719c0,0.172-0.097,0.297-0.289,0.375c-0.177,0.078-0.539,0.117-1.086,0.117
		c-0.011-0.266-0.094-0.505-0.25-0.719c0.328,0.042,0.581,0.062,0.758,0.062c0.156,0,0.237-0.06,0.242-0.18v-3.375h-1.18
		c-0.349,0-0.693,0.021-1.031,0.062c0.021-0.12,0.031-0.234,0.031-0.344C139.405,62.12,139.395,61.995,139.374,61.875z
		 M139.835,59.742c0.349,0.042,0.692,0.062,1.031,0.062h1.312c0.349,0,0.692-0.021,1.031-0.062c-0.021,0.13-0.031,0.255-0.031,0.375
		s0.01,0.234,0.031,0.344c-0.339-0.042-0.683-0.062-1.031-0.062h-1.312c-0.339,0-0.683,0.021-1.031,0.062
		c0.021-0.109,0.031-0.224,0.031-0.344S139.855,59.872,139.835,59.742z"/>
</g>
<g>
	<path d="M238.718,60.428c0.297,0.042,0.591,0.062,0.883,0.062h0.281v-1.133c0-0.161-0.011-0.325-0.031-0.492
		c0.198,0.021,0.417,0.031,0.656,0.031c-0.067,0.151-0.102,0.328-0.102,0.531v1.062h0.031c0.297,0,0.591-0.021,0.883-0.062
		c-0.021,0.104-0.031,0.206-0.031,0.305c0,0.109,0.011,0.214,0.031,0.312c-0.292-0.042-0.586-0.062-0.883-0.062h-0.031v1.719
		c0.323-0.136,0.628-0.281,0.914-0.438c-0.021,0.302-0.031,0.513-0.031,0.633c-0.328,0.109-0.622,0.216-0.883,0.32v2.367
		c0,0.255-0.104,0.425-0.312,0.508c-0.208,0.078-0.508,0.117-0.898,0.117c-0.058-0.25-0.161-0.458-0.312-0.625h0.438
		c0.375,0,0.562-0.097,0.562-0.289v-1.859c-0.526,0.219-0.894,0.401-1.102,0.547c-0.011-0.198-0.07-0.427-0.18-0.688
		c0.448-0.104,0.875-0.231,1.281-0.383v-1.93h-0.281c-0.292,0-0.586,0.021-0.883,0.062c0.021-0.099,0.031-0.203,0.031-0.312
		C238.75,60.634,238.739,60.532,238.718,60.428z M242.57,58.865c0.177,0.036,0.406,0.055,0.688,0.055
		c-0.089,0.312-0.133,0.675-0.133,1.086v0.453h0.789c0.297,0,0.597-0.023,0.898-0.07c-0.042,0.198-0.062,0.396-0.062,0.594
		c0,1.953,0.058,3.141,0.172,3.562c0.125,0.542,0.227,0.812,0.305,0.812c0.036-0.094,0.086-0.438,0.148-1.031
		c0.172,0.219,0.372,0.378,0.602,0.477c-0.219,0.917-0.409,1.375-0.57,1.375c-0.183-0.016-0.375-0.161-0.578-0.438
		c-0.203-0.297-0.359-0.714-0.469-1.25c-0.109-0.636-0.164-1.805-0.164-3.508h-1.07v0.164c0,0.859-0.039,1.575-0.117,2.148
		c0.25,0.188,0.508,0.378,0.773,0.57c-0.192,0.183-0.328,0.356-0.406,0.523c-0.167-0.161-0.325-0.312-0.477-0.453
		c-0.062,0.229-0.128,0.425-0.195,0.586c-0.292,0.641-0.794,1.214-1.508,1.719c-0.13-0.192-0.3-0.339-0.508-0.438
		c0.812-0.516,1.344-1.058,1.594-1.625c0.067-0.167,0.125-0.37,0.172-0.609c-0.328-0.266-0.656-0.5-0.984-0.703
		c0.161-0.136,0.3-0.281,0.414-0.438c0.214,0.167,0.438,0.339,0.672,0.516c0.052-0.5,0.078-1.099,0.078-1.797v-0.164h-0.289
		c-0.266,0-0.534,0.021-0.805,0.062c0.021-0.109,0.031-0.224,0.031-0.344c0-0.099-0.011-0.203-0.031-0.312
		c0.271,0.047,0.539,0.07,0.805,0.07h0.289v-0.164C242.632,59.873,242.612,59.397,242.57,58.865z"/>
	<path d="M248.406,58.951c0.198,0.104,0.438,0.19,0.719,0.258c-0.109,0.067-0.231,0.192-0.367,0.375
		c-0.453,0.641-1.008,1.231-1.664,1.773c-0.13-0.156-0.315-0.292-0.555-0.406c0.516-0.312,0.917-0.644,1.203-0.992
		C248.081,59.573,248.301,59.237,248.406,58.951z M248.812,60.584c0.224,0.141,0.466,0.234,0.727,0.281
		c-0.172,0.099-0.356,0.308-0.555,0.625c-0.13,0.239-0.278,0.469-0.445,0.688v2.938c0,0.391,0.021,0.784,0.062,1.18
		c-0.13-0.021-0.255-0.031-0.375-0.031c-0.13,0-0.255,0.011-0.375,0.031c0.042-0.396,0.062-0.789,0.062-1.18v-2.219
		c-0.276,0.281-0.589,0.56-0.938,0.836c-0.094-0.229-0.208-0.414-0.344-0.555c0.583-0.37,1.047-0.761,1.391-1.172
		C248.377,61.6,248.64,61.126,248.812,60.584z M249.601,61.459c0.339,0.042,0.683,0.062,1.031,0.062h2.344
		c0.344,0,0.685-0.021,1.023-0.062c-0.016,0.12-0.023,0.245-0.023,0.375c0,0.109,0.008,0.224,0.023,0.344
		c-0.339-0.042-0.68-0.062-1.023-0.062h-0.539v3.719c0,0.172-0.097,0.297-0.289,0.375c-0.177,0.078-0.539,0.117-1.086,0.117
		c-0.011-0.266-0.094-0.505-0.25-0.719c0.328,0.042,0.581,0.062,0.758,0.062c0.156,0,0.237-0.06,0.242-0.18v-3.375h-1.18
		c-0.349,0-0.692,0.021-1.031,0.062c0.021-0.12,0.031-0.234,0.031-0.344C249.632,61.704,249.622,61.579,249.601,61.459z
		 M250.062,59.326c0.349,0.042,0.692,0.062,1.031,0.062h1.312c0.349,0,0.692-0.021,1.031-0.062c-0.021,0.13-0.031,0.255-0.031,0.375
		s0.011,0.234,0.031,0.344c-0.339-0.042-0.683-0.062-1.031-0.062h-1.312c-0.339,0-0.683,0.021-1.031,0.062
		c0.021-0.109,0.031-0.224,0.031-0.344S250.083,59.456,250.062,59.326z"/>
</g>
<g>
	<path d="M4.07,60.564c-0.04-0.888-0.776-1.168-1.423-1.168c-0.488,0-1.311,0.137-1.311,1.008c0,0.487,0.344,0.647,0.679,0.728
		l1.639,0.376c0.744,0.176,1.303,0.624,1.303,1.535c0,1.359-1.263,1.735-2.247,1.735c-1.063,0-1.479-0.32-1.735-0.552
		c-0.488-0.44-0.584-0.92-0.584-1.456h0.728c0,1.04,0.848,1.344,1.583,1.344c0.56,0,1.503-0.144,1.503-0.968
		c0-0.6-0.28-0.791-1.223-1.015l-1.175-0.272c-0.376-0.088-1.224-0.352-1.224-1.352c0-0.896,0.584-1.774,1.975-1.774
		c2.007,0,2.207,1.199,2.239,1.831H4.07z"/>
	<path d="M10.261,64.625H6.023v-5.741h4.182v0.688H6.799v1.759h3.142v0.688H6.799v1.919h3.462V64.625z"/>
	<path d="M10.784,58.884h4.662v0.688h-1.943v5.053h-0.776v-5.053h-1.943V58.884z"/>
	<path d="M15.295,63.777h0.832v0.783c0,1.088-0.672,1.216-0.832,1.24v-0.368c0.335-0.032,0.423-0.432,0.423-0.808h-0.423V63.777z"/>
	<path d="M20.527,64.625h-0.775v-5.741h2.655c0.943,0,1.887,0.328,1.887,1.544c0,0.847-0.432,1.159-0.8,1.375
		c0.328,0.136,0.656,0.279,0.688,1.079l0.048,1.04c0.008,0.319,0.048,0.439,0.288,0.575v0.128h-0.951
		c-0.112-0.352-0.136-1.224-0.136-1.439c0-0.472-0.096-1.023-1.023-1.023h-1.879V64.625z M20.527,61.499h1.799
		c0.567,0,1.167-0.145,1.167-0.992c0-0.887-0.647-0.959-1.031-0.959h-1.935V61.499z"/>
	<path d="M29.749,64.625h-4.238v-5.741h4.182v0.688h-3.406v1.759h3.142v0.688h-3.142v1.919h3.462V64.625z"/>
	<path d="M34.229,60.564c-0.04-0.888-0.775-1.168-1.423-1.168c-0.488,0-1.311,0.137-1.311,1.008c0,0.487,0.344,0.647,0.68,0.728
		l1.639,0.376c0.744,0.176,1.304,0.624,1.304,1.535c0,1.359-1.264,1.735-2.247,1.735c-1.063,0-1.479-0.32-1.735-0.552
		c-0.488-0.44-0.584-0.92-0.584-1.456h0.728c0,1.04,0.847,1.344,1.583,1.344c0.56,0,1.503-0.144,1.503-0.968
		c0-0.6-0.28-0.791-1.223-1.015l-1.175-0.272c-0.376-0.088-1.224-0.352-1.224-1.352c0-0.896,0.584-1.774,1.975-1.774
		c2.007,0,2.207,1.199,2.239,1.831H34.229z"/>
</g>
<g>
	<path d="M5.293,86.014h0.544c-0.304,1.119-0.72,2.391-0.72,2.606c0,0.151,0.04,0.231,0.168,0.231c0.543,0,1.135-0.871,1.135-1.727
		c0-1.279-1.023-2.063-2.231-2.063c-1.423,0-2.431,1.144-2.431,2.559c0,1.416,1.088,2.495,2.487,2.495
		c0.744,0,1.487-0.352,1.943-0.911h0.536c-0.52,0.871-1.471,1.407-2.495,1.407c-1.711,0-3.054-1.336-3.054-3.039
		c0-1.671,1.367-3.006,3.014-3.006c1.479,0,2.751,1.039,2.751,2.494c0,1.447-1.2,2.311-1.911,2.311
		c-0.272,0-0.496-0.159-0.512-0.503l-0.016,0.008c-0.232,0.248-0.583,0.495-0.959,0.495c-0.688,0-1.175-0.583-1.175-1.279
		c0-1.079,0.736-2.206,1.847-2.206c0.384,0,0.711,0.176,0.919,0.623L5.293,86.014z M4.229,86.461c-0.711,0-1.207,0.896-1.207,1.56
		c0,0.456,0.271,0.775,0.671,0.775c0.68,0,1.191-0.96,1.191-1.599C4.885,86.805,4.582,86.461,4.229,86.461z"/>
	<path d="M12.19,86.398c-0.04-0.888-0.776-1.168-1.423-1.168c-0.488,0-1.311,0.137-1.311,1.008c0,0.487,0.344,0.647,0.679,0.728
		l1.639,0.376c0.744,0.176,1.303,0.624,1.303,1.535c0,1.359-1.263,1.735-2.247,1.735c-1.063,0-1.479-0.32-1.735-0.552
		c-0.488-0.44-0.584-0.92-0.584-1.456h0.728c0,1.04,0.848,1.344,1.583,1.344c0.56,0,1.503-0.144,1.503-0.968
		c0-0.6-0.28-0.791-1.223-1.015l-1.175-0.272c-0.376-0.088-1.224-0.352-1.224-1.352c0-0.896,0.584-1.774,1.975-1.774
		c2.007,0,2.207,1.199,2.239,1.831H12.19z"/>
	<path d="M18.381,90.459h-4.238v-5.741h4.182v0.688h-3.406v1.759h3.142v0.688h-3.142v1.919h3.462V90.459z"/>
	<path d="M18.904,84.718h4.662v0.688h-1.943v5.053h-0.776v-5.053h-1.943V84.718z"/>
	<path d="M23.416,89.611h0.832v0.783c0,1.088-0.672,1.216-0.832,1.24v-0.368c0.335-0.032,0.423-0.432,0.423-0.808h-0.423V89.611z"/>
	<path d="M32.461,86.014h0.544c-0.304,1.119-0.72,2.391-0.72,2.606c0,0.151,0.04,0.231,0.168,0.231c0.543,0,1.135-0.871,1.135-1.727
		c0-1.279-1.023-2.063-2.231-2.063c-1.423,0-2.431,1.144-2.431,2.559c0,1.416,1.088,2.495,2.487,2.495
		c0.744,0,1.487-0.352,1.943-0.911h0.536c-0.52,0.871-1.471,1.407-2.495,1.407c-1.711,0-3.054-1.336-3.054-3.039
		c0-1.671,1.367-3.006,3.014-3.006c1.479,0,2.751,1.039,2.751,2.494c0,1.447-1.2,2.311-1.911,2.311
		c-0.272,0-0.496-0.159-0.512-0.503l-0.016,0.008c-0.232,0.248-0.583,0.495-0.959,0.495c-0.688,0-1.175-0.583-1.175-1.279
		c0-1.079,0.736-2.206,1.847-2.206c0.384,0,0.711,0.176,0.919,0.623L32.461,86.014z M31.397,86.461c-0.711,0-1.207,0.896-1.207,1.56
		c0,0.456,0.271,0.775,0.671,0.775c0.68,0,1.191-0.96,1.191-1.599C32.053,86.805,31.75,86.461,31.397,86.461z"/>
	<path d="M36.767,90.459h-0.775v-5.741h2.655c0.943,0,1.887,0.328,1.887,1.544c0,0.847-0.432,1.159-0.8,1.375
		c0.328,0.136,0.656,0.279,0.688,1.079l0.048,1.04c0.008,0.319,0.048,0.439,0.288,0.575v0.128h-0.951
		c-0.112-0.352-0.136-1.224-0.136-1.439c0-0.472-0.096-1.023-1.023-1.023h-1.879V90.459z M36.767,87.333h1.799
		c0.567,0,1.167-0.145,1.167-0.992c0-0.887-0.647-0.959-1.031-0.959h-1.935V87.333z"/>
	<path d="M45.989,90.459h-4.238v-5.741h4.182v0.688h-3.406v1.759h3.142v0.688h-3.142v1.919h3.462V90.459z"/>
	<path d="M50.469,86.398c-0.04-0.888-0.776-1.168-1.423-1.168c-0.488,0-1.311,0.137-1.311,1.008c0,0.487,0.344,0.647,0.679,0.728
		l1.639,0.376c0.744,0.176,1.303,0.624,1.303,1.535c0,1.359-1.263,1.735-2.247,1.735c-1.063,0-1.479-0.32-1.735-0.552
		c-0.488-0.44-0.584-0.92-0.584-1.456h0.728c0,1.04,0.848,1.344,1.583,1.344c0.56,0,1.503-0.144,1.503-0.968
		c0-0.6-0.28-0.791-1.223-1.015l-1.175-0.272c-0.376-0.088-1.224-0.352-1.224-1.352c0-0.896,0.584-1.774,1.975-1.774
		c2.007,0,2.207,1.199,2.239,1.831H50.469z"/>
</g>
<line class="st2" x1="225.615" y1="23.738" x2="266.27" y2="23.738"/>
<line class="st2" x1="265.86" y1="42.864" x2="265.86" y2="24.058"/>
<line class="st2" x1="266.036" y1="42.539" x2="311.034" y2="42.539"/>
<line class="st3" x1="220.291" y1="0" x2="220.291" y2="9.973"/>
<path d="M87.154,23.393l3.093,7.14h-6.158L87.154,23.393z"/>
<path d="M225.615,22.917l3.093,7.14h-6.158L225.615,22.917z"/>
</svg>
