<?xml version="1.0" encoding="utf-8"?>
<!-- Generator: Adobe Illustrator 28.2.0, SVG Export Plug-In . SVG Version: 6.00 Build 0)  -->
<svg version="1.1" xmlns="http://www.w3.org/2000/svg" xmlns:xlink="http://www.w3.org/1999/xlink" x="0px" y="0px"
	 width="375.309px" height="67.992px" viewBox="0 0 375.309 67.992" style="enable-background:new 0 0 375.309 67.992;"
	 xml:space="preserve">
<style type="text/css">
	.st0{fill:none;stroke:#000000;stroke-width:0.5;stroke-miterlimit:10;}
	.st1{fill:none;stroke:#000000;stroke-width:1.5;stroke-miterlimit:10;}
</style>
<g id="レイヤー_1">
	<g>
		<g>
			<path d="M374.059,50.026v16.716H34.901V50.026H374.059 M374.559,49.526H34.401v17.716h340.158V49.526L374.559,49.526z"/>
		</g>
		<line class="st0" x1="55.661" y1="67.242" x2="55.661" y2="49.526"/>
		<line class="st0" x1="76.921" y1="67.242" x2="76.921" y2="49.526"/>
		<line class="st0" x1="98.181" y1="67.242" x2="98.181" y2="49.526"/>
		<line class="st0" x1="119.441" y1="67.242" x2="119.441" y2="49.526"/>
		<line class="st0" x1="140.7" y1="67.242" x2="140.7" y2="49.526"/>
		<line class="st0" x1="161.96" y1="67.242" x2="161.96" y2="49.526"/>
		<line class="st0" x1="183.22" y1="67.242" x2="183.22" y2="49.526"/>
		<line class="st0" x1="204.48" y1="67.242" x2="204.48" y2="49.526"/>
		<line class="st0" x1="225.74" y1="67.242" x2="225.74" y2="49.526"/>
		<line class="st0" x1="247" y1="67.242" x2="247" y2="49.526"/>
		<line class="st0" x1="268.259" y1="67.242" x2="268.259" y2="49.526"/>
		<line class="st0" x1="289.519" y1="67.242" x2="289.519" y2="49.526"/>
		<line class="st0" x1="310.779" y1="67.242" x2="310.779" y2="49.526"/>
		<line class="st0" x1="332.039" y1="67.242" x2="332.039" y2="49.526"/>
		<line class="st0" x1="353.299" y1="67.242" x2="353.299" y2="49.526"/>
	</g>
	<g>
		<g>
			<path d="M374.059,9.341v16.716H34.901V9.341H374.059 M374.559,8.841H34.401v17.716h340.158V8.841L374.559,8.841z"/>
		</g>
		<line class="st0" x1="55.661" y1="26.558" x2="55.661" y2="8.841"/>
		<line class="st0" x1="76.921" y1="26.558" x2="76.921" y2="8.841"/>
		<line class="st0" x1="98.181" y1="26.558" x2="98.181" y2="8.841"/>
		<line class="st0" x1="119.441" y1="26.558" x2="119.441" y2="8.841"/>
		<line class="st0" x1="140.7" y1="26.558" x2="140.7" y2="8.841"/>
		<line class="st0" x1="161.96" y1="26.558" x2="161.96" y2="8.841"/>
		<line class="st0" x1="183.22" y1="26.558" x2="183.22" y2="8.841"/>
		<line class="st0" x1="204.48" y1="26.558" x2="204.48" y2="8.841"/>
		<line class="st0" x1="225.74" y1="26.558" x2="225.74" y2="8.841"/>
		<line class="st0" x1="247" y1="26.558" x2="247" y2="8.841"/>
		<line class="st0" x1="268.259" y1="26.558" x2="268.259" y2="8.841"/>
		<line class="st0" x1="289.519" y1="26.558" x2="289.519" y2="8.841"/>
		<line class="st0" x1="310.779" y1="26.558" x2="310.779" y2="8.841"/>
		<line class="st0" x1="332.039" y1="26.558" x2="332.039" y2="8.841"/>
		<line class="st0" x1="353.299" y1="26.558" x2="353.299" y2="8.841"/>
	</g>
</g>
<g id="レイヤー_2">
	<g>
		<g>
			<path d="M45.222,16.776h-1.455V16.44c0.855-0.056,1.391-0.144,1.559-1.111h0.408v5.637h-0.512V16.776z"/>
		</g>
		<g>
			<path d="M39.196,4.98h-0.36V0.663h0.36v1.709c0.228-0.378,0.672-0.582,1.109-0.582c0.948,0,1.385,0.774,1.385,1.643
				c0,0.917-0.402,1.631-1.403,1.631c-0.396,0-0.869-0.222-1.079-0.63h-0.012V4.98z M40.245,4.74c0.606,0,1.056-0.438,1.062-1.217
				c0.03-0.78-0.318-1.409-1.062-1.409c-0.653,0-1.049,0.6-1.049,1.301C39.196,4.165,39.568,4.74,40.245,4.74z"/>
			<path d="M42.496,1.196V0.663h0.396v0.534H42.496z M42.514,4.98V1.874h0.36V4.98H42.514z"/>
			<path d="M44.883,4.992C44.8,5.01,44.644,5.064,44.47,5.064c-0.354,0-0.552-0.156-0.552-0.618V2.173H43.48v-0.3h0.438V1.01h0.36
				v0.863h0.582v0.3h-0.582v2.129c0,0.306,0.012,0.438,0.312,0.438c0.096,0,0.198-0.018,0.293-0.042V4.992z"/>
			<path d="M46.839,1.838h-1.091V1.586c0.642-0.042,1.043-0.108,1.169-0.833h0.306V4.98h-0.384V1.838z"/>
			<path d="M48.958,3.883c0.078,0.569,0.492,0.857,1.043,0.857c0.629,0,1.013-0.48,1.013-1.08c0-0.629-0.408-1.073-1.049-1.073
				c-0.378,0-0.684,0.132-0.917,0.438L48.73,2.983l0.342-2.188h2.099v0.324h-1.775L49.132,2.54c0.33-0.216,0.546-0.276,0.93-0.276
				c0.773,0,1.337,0.527,1.337,1.397c0,0.888-0.642,1.403-1.337,1.403c-0.798,0-1.421-0.306-1.487-1.181H48.958z"/>
		</g>
		<g>
			<path d="M359.762,4.98h-0.36V0.663h0.36v1.709c0.228-0.378,0.671-0.582,1.109-0.582c0.947,0,1.385,0.774,1.385,1.643
				c0,0.917-0.401,1.631-1.403,1.631c-0.396,0-0.869-0.222-1.079-0.63h-0.012V4.98z M360.811,4.74c0.605,0,1.056-0.438,1.062-1.217
				c0.03-0.78-0.317-1.409-1.062-1.409c-0.653,0-1.049,0.6-1.049,1.301C359.762,4.165,360.133,4.74,360.811,4.74z"/>
			<path d="M363.062,1.196V0.663h0.396v0.534H363.062z M363.079,4.98V1.874h0.36V4.98H363.079z"/>
			<path d="M365.449,4.992c-0.084,0.018-0.24,0.072-0.414,0.072c-0.354,0-0.552-0.156-0.552-0.618V2.173h-0.438v-0.3h0.438V1.01
				h0.36v0.863h0.581v0.3h-0.581v2.129c0,0.306,0.012,0.438,0.312,0.438c0.096,0,0.197-0.018,0.294-0.042V4.992z"/>
			<path d="M368.688,2.941c0,1.122-0.265,2.123-1.428,2.123c-1.169,0-1.434-0.996-1.434-2.165c0-1.067,0.217-2.146,1.434-2.146
				C368.514,0.752,368.688,1.958,368.688,2.941z M367.249,1.076c-0.84,0-1.038,0.929-1.038,1.865c0,1.085,0.24,1.799,1.05,1.799
				c0.911,0,1.044-0.99,1.044-1.841C368.305,1.988,368.143,1.076,367.249,1.076z"/>
		</g>
		<g>
			<path d="M68.192,18.248c0,1.495-0.352,2.83-1.903,2.83c-1.559,0-1.911-1.327-1.911-2.886c0-1.423,0.288-2.862,1.911-2.862
				C67.961,15.329,68.192,16.936,68.192,18.248z M66.273,15.761c-1.119,0-1.383,1.239-1.383,2.487c0,1.447,0.32,2.398,1.399,2.398
				c1.215,0,1.391-1.319,1.391-2.455C67.681,16.976,67.465,15.761,66.273,15.761z"/>
		</g>
		<g>
			<path d="M87.741,16.776h-1.455V16.44c0.855-0.056,1.391-0.144,1.559-1.111h0.408v5.637h-0.512V16.776z"/>
		</g>
		<g>
			<path d="M109.001,16.776h-1.455V16.44c0.855-0.056,1.391-0.144,1.559-1.111h0.408v5.637h-0.512V16.776z"/>
		</g>
		<g>
			<path d="M131.972,18.248c0,1.495-0.352,2.83-1.903,2.83c-1.559,0-1.911-1.327-1.911-2.886c0-1.423,0.288-2.862,1.911-2.862
				C131.74,15.329,131.972,16.936,131.972,18.248z M130.053,15.761c-1.119,0-1.383,1.239-1.383,2.487
				c0,1.447,0.32,2.398,1.399,2.398c1.215,0,1.391-1.319,1.391-2.455C131.46,16.976,131.244,15.761,130.053,15.761z"/>
		</g>
		<g>
			<path d="M151.521,16.776h-1.455V16.44c0.855-0.056,1.391-0.144,1.559-1.111h0.408v5.637h-0.512V16.776z"/>
		</g>
		<g>
			<path d="M174.492,18.248c0,1.495-0.352,2.83-1.903,2.83c-1.559,0-1.911-1.327-1.911-2.886c0-1.423,0.288-2.862,1.911-2.862
				C174.26,15.329,174.492,16.936,174.492,18.248z M172.573,15.761c-1.12,0-1.383,1.239-1.383,2.487c0,1.447,0.32,2.398,1.399,2.398
				c1.215,0,1.392-1.319,1.392-2.455C173.98,16.976,173.764,15.761,172.573,15.761z"/>
		</g>
		<g>
			<path d="M194.042,16.776h-1.455V16.44c0.855-0.056,1.391-0.144,1.559-1.111h0.408v5.637h-0.512V16.776z"/>
		</g>
		<g>
			<path d="M215.302,16.776h-1.455V16.44c0.855-0.056,1.391-0.144,1.559-1.111h0.408v5.637h-0.512V16.776z"/>
		</g>
		<g>
			<path d="M238.272,18.248c0,1.495-0.352,2.83-1.903,2.83c-1.559,0-1.911-1.327-1.911-2.886c0-1.423,0.288-2.862,1.911-2.862
				C238.04,15.329,238.272,16.936,238.272,18.248z M236.354,15.761c-1.12,0-1.384,1.239-1.384,2.487c0,1.447,0.32,2.398,1.399,2.398
				c1.216,0,1.392-1.319,1.392-2.455C237.761,16.976,237.545,15.761,236.354,15.761z"/>
		</g>
		<g>
			<path d="M259.532,18.248c0,1.495-0.352,2.83-1.903,2.83c-1.559,0-1.911-1.327-1.911-2.886c0-1.423,0.288-2.862,1.911-2.862
				C259.3,15.329,259.532,16.936,259.532,18.248z M257.613,15.761c-1.12,0-1.384,1.239-1.384,2.487c0,1.447,0.32,2.398,1.399,2.398
				c1.216,0,1.392-1.319,1.392-2.455C259.021,16.976,258.805,15.761,257.613,15.761z"/>
		</g>
		<g>
			<path d="M279.081,16.776h-1.455V16.44c0.855-0.056,1.391-0.144,1.559-1.111h0.408v5.637h-0.512V16.776z"/>
		</g>
		<g>
			<path d="M302.052,18.248c0,1.495-0.352,2.83-1.903,2.83c-1.559,0-1.911-1.327-1.911-2.886c0-1.423,0.288-2.862,1.911-2.862
				C301.819,15.329,302.052,16.936,302.052,18.248z M300.133,15.761c-1.12,0-1.384,1.239-1.384,2.487
				c0,1.447,0.32,2.398,1.399,2.398c1.216,0,1.392-1.319,1.392-2.455C301.54,16.976,301.324,15.761,300.133,15.761z"/>
		</g>
		<g>
			<path d="M321.601,16.776h-1.455V16.44c0.855-0.056,1.391-0.144,1.559-1.111h0.408v5.637h-0.512V16.776z"/>
		</g>
		<g>
			<path d="M342.86,16.776h-1.455V16.44c0.855-0.056,1.391-0.144,1.559-1.111h0.408v5.637h-0.512V16.776z"/>
		</g>
		<g>
			<path d="M364.12,16.776h-1.455V16.44c0.855-0.056,1.391-0.144,1.559-1.111h0.408v5.637h-0.512V16.776z"/>
		</g>
	</g>
	<g>
		<g>
			<path d="M45.222,57.535h-1.455v-0.336c0.855-0.056,1.391-0.144,1.559-1.111h0.408v5.637h-0.512V57.535z"/>
		</g>
		<g>
			<path d="M11.398,20.966v-5.757h0.544v5.757H11.398z"/>
			<path d="M13.839,20.966h-0.48v-4.142h0.48V17.4c0.384-0.408,0.759-0.688,1.335-0.688c0.504,0,0.968,0.16,1.263,0.591
				c0.2,0.296,0.208,0.608,0.208,0.952v2.71h-0.479v-2.703c0-0.744-0.304-1.119-1.072-1.119c-0.591,0-0.999,0.384-1.151,0.808
				c-0.096,0.264-0.104,0.496-0.104,0.783V20.966z"/>
		</g>
		<g>
			<path d="M3.962,59.109v2.615H3.418v-5.757h2.255c1.263,0,1.959,0.448,1.959,1.511c0,0.728-0.272,1.111-0.936,1.407
				c0.68,0.232,0.719,0.952,0.735,1.559c0.024,0.872,0.096,1.111,0.24,1.223v0.056h-0.6c-0.224-0.392-0.168-1.471-0.256-1.911
				c-0.128-0.624-0.6-0.704-1.143-0.704H3.962z M5.657,58.646c0.808,0,1.431-0.336,1.431-1.144c0-0.863-0.671-1.071-1.399-1.071
				H3.962v2.215H5.657z"/>
			<path d="M8.986,59.765c-0.008,0.896,0.472,1.639,1.391,1.639c0.624,0,1.111-0.344,1.255-0.952h0.536
				c-0.24,0.784-0.735,1.383-1.791,1.383c-1.327,0-1.903-0.943-1.903-2.167c0-1.208,0.72-2.199,1.903-2.199
				c1.135,0,1.831,0.808,1.823,2.295H8.986z M11.689,59.365c0-0.807-0.448-1.463-1.312-1.463c-0.848,0-1.295,0.68-1.391,1.463
				H11.689z"/>
			<path d="M13.418,60.429c0.152,0.712,0.52,0.976,1.239,0.976c0.696,0,1.023-0.368,1.023-0.768c0-1.199-2.654-0.352-2.654-1.983
				c0-0.688,0.536-1.184,1.455-1.184c0.896,0,1.479,0.368,1.599,1.304h-0.488c-0.088-0.64-0.52-0.872-1.119-0.872
				c-0.608,0-0.936,0.288-0.936,0.711c0,1.127,2.654,0.424,2.654,2.015c0,0.792-0.711,1.207-1.687,1.207s-1.535-0.624-1.575-1.407
				H13.418z"/>
			<path d="M19.945,57.583h0.479v4.142h-0.479v-0.576c-0.256,0.288-0.608,0.688-1.335,0.688c-1.104,0-1.471-0.664-1.471-1.527
				v-2.727h0.479v2.718c0,0.712,0.312,1.104,1.063,1.104c0.792,0,1.264-0.656,1.264-1.567V57.583z"/>
			<path d="M21.658,61.724v-5.757h0.48v5.757H21.658z"/>
			<path d="M24.817,61.74c-0.112,0.024-0.32,0.096-0.552,0.096c-0.472,0-0.735-0.208-0.735-0.823v-3.031h-0.584v-0.399h0.584v-1.151
				h0.479v1.151h0.776v0.399H24.01v2.839c0,0.408,0.016,0.583,0.416,0.583c0.128,0,0.264-0.024,0.392-0.056V61.74z"/>
		</g>
		<g>
			<path d="M68.192,59.005c0,1.496-0.352,2.831-1.903,2.831c-1.559,0-1.911-1.327-1.911-2.886c0-1.423,0.288-2.862,1.911-2.862
				C67.961,56.087,68.192,57.694,68.192,59.005z M66.273,56.519c-1.119,0-1.383,1.239-1.383,2.486c0,1.447,0.32,2.399,1.399,2.399
				c1.215,0,1.391-1.319,1.391-2.455C67.681,57.734,67.465,56.519,66.273,56.519z"/>
		</g>
		<g>
			<path d="M87.741,57.535h-1.455v-0.336c0.855-0.056,1.391-0.144,1.559-1.111h0.408v5.637h-0.512V57.535z"/>
		</g>
		<g>
			<path d="M109.001,57.535h-1.455v-0.336c0.855-0.056,1.391-0.144,1.559-1.111h0.408v5.637h-0.512V57.535z"/>
		</g>
		<g>
			<path d="M131.972,59.005c0,1.496-0.352,2.831-1.903,2.831c-1.559,0-1.911-1.327-1.911-2.886c0-1.423,0.288-2.862,1.911-2.862
				C131.74,56.087,131.972,57.694,131.972,59.005z M130.053,56.519c-1.119,0-1.383,1.239-1.383,2.486
				c0,1.447,0.32,2.399,1.399,2.399c1.215,0,1.391-1.319,1.391-2.455C131.46,57.734,131.244,56.519,130.053,56.519z"/>
		</g>
		<g>
			<path d="M153.232,59.005c0,1.496-0.352,2.831-1.903,2.831c-1.559,0-1.911-1.327-1.911-2.886c0-1.423,0.288-2.862,1.911-2.862
				C153,56.087,153.232,57.694,153.232,59.005z M151.313,56.519c-1.12,0-1.383,1.239-1.383,2.486c0,1.447,0.32,2.399,1.399,2.399
				c1.215,0,1.392-1.319,1.392-2.455C152.721,57.734,152.504,56.519,151.313,56.519z"/>
		</g>
		<g>
			<path d="M172.781,57.535h-1.455v-0.336c0.855-0.056,1.391-0.144,1.559-1.111h0.408v5.637h-0.512V57.535z"/>
		</g>
		<g>
			<path d="M195.753,59.005c0,1.496-0.352,2.831-1.903,2.831c-1.559,0-1.911-1.327-1.911-2.886c0-1.423,0.288-2.862,1.911-2.862
				C195.521,56.087,195.753,57.694,195.753,59.005z M193.834,56.519c-1.12,0-1.384,1.239-1.384,2.486
				c0,1.447,0.32,2.399,1.399,2.399c1.216,0,1.392-1.319,1.392-2.455C195.241,57.734,195.025,56.519,193.834,56.519z"/>
		</g>
		<g>
			<path d="M215.302,57.535h-1.455v-0.336c0.855-0.056,1.391-0.144,1.559-1.111h0.408v5.637h-0.512V57.535z"/>
		</g>
		<g>
			<path d="M236.562,57.535h-1.455v-0.336c0.855-0.056,1.391-0.144,1.559-1.111h0.408v5.637h-0.512V57.535z"/>
		</g>
		<g>
			<path d="M257.821,57.535h-1.455v-0.336c0.855-0.056,1.391-0.144,1.559-1.111h0.408v5.637h-0.512V57.535z"/>
		</g>
		<g>
			<path d="M280.792,59.005c0,1.496-0.352,2.831-1.903,2.831c-1.559,0-1.911-1.327-1.911-2.886c0-1.423,0.288-2.862,1.911-2.862
				C280.56,56.087,280.792,57.694,280.792,59.005z M278.873,56.519c-1.12,0-1.384,1.239-1.384,2.486c0,1.447,0.32,2.399,1.399,2.399
				c1.216,0,1.392-1.319,1.392-2.455C280.28,57.734,280.064,56.519,278.873,56.519z"/>
		</g>
		<g>
			<path d="M302.052,59.005c0,1.496-0.352,2.831-1.903,2.831c-1.559,0-1.911-1.327-1.911-2.886c0-1.423,0.288-2.862,1.911-2.862
				C301.819,56.087,302.052,57.694,302.052,59.005z M300.133,56.519c-1.12,0-1.384,1.239-1.384,2.486
				c0,1.447,0.32,2.399,1.399,2.399c1.216,0,1.392-1.319,1.392-2.455C301.54,57.734,301.324,56.519,300.133,56.519z"/>
		</g>
		<g>
			<path d="M323.312,59.005c0,1.496-0.352,2.831-1.903,2.831c-1.559,0-1.911-1.327-1.911-2.886c0-1.423,0.288-2.862,1.911-2.862
				C323.079,56.087,323.312,57.694,323.312,59.005z M321.393,56.519c-1.12,0-1.384,1.239-1.384,2.486
				c0,1.447,0.32,2.399,1.399,2.399c1.216,0,1.392-1.319,1.392-2.455C322.8,57.734,322.584,56.519,321.393,56.519z"/>
		</g>
		<g>
			<path d="M344.571,59.005c0,1.496-0.352,2.831-1.903,2.831c-1.559,0-1.911-1.327-1.911-2.886c0-1.423,0.288-2.862,1.911-2.862
				C344.339,56.087,344.571,57.694,344.571,59.005z M342.652,56.519c-1.12,0-1.384,1.239-1.384,2.486
				c0,1.447,0.32,2.399,1.399,2.399c1.216,0,1.392-1.319,1.392-2.455C344.06,57.734,343.844,56.519,342.652,56.519z"/>
		</g>
		<g>
			<path d="M365.831,59.005c0,1.496-0.352,2.831-1.903,2.831c-1.559,0-1.911-1.327-1.911-2.886c0-1.423,0.288-2.862,1.911-2.862
				C365.599,56.087,365.831,57.694,365.831,59.005z M363.912,56.519c-1.12,0-1.384,1.239-1.384,2.486
				c0,1.447,0.32,2.399,1.399,2.399c1.216,0,1.392-1.319,1.392-2.455C365.319,57.734,365.104,56.519,363.912,56.519z"/>
		</g>
	</g>
	<rect x="140.7" y="8.841" class="st1" width="233.858" height="17.716"/>
	<rect x="34.401" y="49.526" class="st1" width="233.858" height="17.716"/>
	<g>
		<g>
			<line class="st0" x1="193.85" y1="26.541" x2="163.106" y2="48.711"/>
			<g>
				<polygon points="164.573,45.692 164.987,45.974 163.146,48.682 166.297,47.791 166.433,48.272 161.96,49.537 				"/>
			</g>
		</g>
	</g>
	<g>
	</g>
	<g>
	</g>
	<g>
	</g>
	<g>
	</g>
	<g>
	</g>
	<g>
	</g>
	<g>
	</g>
	<g>
	</g>
	<g>
	</g>
	<g>
	</g>
	<g>
	</g>
	<g>
	</g>
	<g>
	</g>
	<g>
	</g>
	<g>
	</g>
	<g>
	</g>
</g>
</svg>
