<?xml version="1.0" encoding="utf-8"?>
<!-- Generator: Adobe Illustrator 28.2.0, SVG Export Plug-In . SVG Version: 6.00 Build 0)  -->
<svg version="1.1" id="图层_1" xmlns="http://www.w3.org/2000/svg" xmlns:xlink="http://www.w3.org/1999/xlink" x="0px" y="0px"
	 width="374.283px" height="81.947px" viewBox="0 0 374.283 81.947" style="enable-background:new 0 0 374.283 81.947;"
	 xml:space="preserve">
<style type="text/css">
	.st0{fill:none;stroke:#B3B3B3;stroke-width:0.3;}
	.st1{fill:none;stroke:#000000;stroke-width:0.8;}
	.st2{fill:none;stroke:#000000;stroke-width:0.3;}
	.st3{fill:#231815;}
	.st4{fill:none;stroke:#231815;stroke-width:0.5;}
</style>
<line class="st0" x1="59.648" y1="4.218" x2="59.648" y2="64.455"/>
<line class="st0" x1="160.761" y1="4.218" x2="160.761" y2="64.455"/>
<line class="st0" x1="261.876" y1="4.218" x2="261.876" y2="64.455"/>
<g>
	<path d="M38.069,24.709c-2.143,0-2.798-1.783-2.798-3.022c0-1.239,0.655-3.022,2.798-3.022c2.143,0,2.798,1.783,2.798,3.022
		C40.867,22.926,40.211,24.709,38.069,24.709z M38.069,19.352c-1.248,0-1.999,0.983-1.999,2.334c0,1.352,0.751,2.335,1.999,2.335
		c1.247,0,1.999-0.983,1.999-2.335C40.068,20.335,39.316,19.352,38.069,19.352z"/>
	<path d="M42.646,24.557H41.87v-5.741h3.974v0.688h-3.198v1.759h2.814v0.688h-2.814V24.557z"/>
	<path d="M47.534,24.557h-0.776v-5.741h3.974v0.688h-3.198v1.759h2.814v0.688h-2.814V24.557z"/>
</g>
<g>
	<path d="M38.069,6.792c-2.143,0-2.798-1.783-2.798-3.022c0-1.239,0.655-3.022,2.798-3.022c2.143,0,2.798,1.783,2.798,3.022
		C40.867,5.009,40.211,6.792,38.069,6.792z M38.069,1.435c-1.248,0-1.999,0.983-1.999,2.334c0,1.352,0.751,2.335,1.999,2.335
		c1.247,0,1.999-0.983,1.999-2.335C40.068,2.418,39.316,1.435,38.069,1.435z"/>
	<path d="M45.596,0.899h0.751V6.64h-0.872l-2.918-4.638h-0.016V6.64h-0.751V0.899h0.919l2.87,4.637h0.016V0.899z"/>
</g>
<polyline class="st1" points="54.031,22.638 59.366,22.638 59.366,4.218 132.889,4.218 132.889,22.638 160.794,22.638 
	160.794,4.218 188.555,4.218 188.555,22.638 261.812,22.638 261.812,3.858 273.062,3.858 273.062,22.597 289.937,22.597 
	289.937,3.858 374.283,3.858 "/>
<g>
	<path d="M38.069,53.455c-2.143,0-2.798-1.783-2.798-3.022s0.655-3.022,2.798-3.022c2.143,0,2.798,1.783,2.798,3.022
		S40.211,53.455,38.069,53.455z M38.069,48.097c-1.248,0-1.999,0.983-1.999,2.335c0,1.351,0.751,2.334,1.999,2.334
		c1.247,0,1.999-0.983,1.999-2.334C40.068,49.081,39.316,48.097,38.069,48.097z"/>
	<path d="M42.646,53.302H41.87v-5.741h3.974v0.688h-3.198v1.76h2.814v0.688h-2.814V53.302z"/>
	<path d="M47.534,53.302h-0.776v-5.741h3.974v0.688h-3.198v1.76h2.814v0.688h-2.814V53.302z"/>
</g>
<g>
	<path d="M38.069,35.539c-2.143,0-2.798-1.783-2.798-3.022c0-1.239,0.655-3.022,2.798-3.022c2.143,0,2.798,1.783,2.798,3.022
		C40.867,33.756,40.211,35.539,38.069,35.539z M38.069,30.182c-1.248,0-1.999,0.983-1.999,2.334c0,1.352,0.751,2.335,1.999,2.335
		c1.247,0,1.999-0.983,1.999-2.335C40.068,31.166,39.316,30.182,38.069,30.182z"/>
	<path d="M45.596,29.646h0.751v5.741h-0.872l-2.918-4.638h-0.016v4.638h-0.751v-5.741h0.919l2.87,4.637h0.016V29.646z"/>
</g>
<polyline class="st1" points="54.031,51.386 59.787,51.386 59.787,32.965 104.723,32.965 104.723,51.386 160.696,51.386 
	160.696,32.965 205.43,32.965 205.43,51.386 261.812,51.386 261.812,32.785 306.447,32.785 306.447,51.324 374.283,51.324 "/>
<line class="st2" x1="104.587" y1="33.261" x2="104.587" y2="64.455"/>
<line class="st2" x1="205.701" y1="32.524" x2="205.701" y2="65.489"/>
<line class="st2" x1="306.677" y1="32.945" x2="306.677" y2="65.489"/>
<g>
	<path class="st3" d="M104.281,63.687l-6.467,3.652v-7.271L104.281,63.687z"/>
	<path class="st3" d="M60.009,63.687l6.468-3.65l0,7.271L60.009,63.687z"/>
	<line class="st4" x1="64.06" y1="63.479" x2="98.017" y2="63.479"/>
</g>
<g>
	<path class="st3" d="M205.404,63.687l-6.467,3.652v-7.271L205.404,63.687z"/>
	<path class="st3" d="M161.132,63.687l6.468-3.65l-0.001,7.271L161.132,63.687z"/>
	<line class="st4" x1="165.183" y1="63.479" x2="199.14" y2="63.479"/>
</g>
<g>
	<path class="st3" d="M306.837,63.687l-6.467,3.652v-7.271L306.837,63.687z"/>
	<path class="st3" d="M262.565,63.687l6.468-3.65l-0.001,7.271L262.565,63.687z"/>
	<line class="st4" x1="266.616" y1="63.479" x2="300.573" y2="63.479"/>
</g>
<path class="st3" d="M59.335,4.063l3.322,6.617h-6.614L59.335,4.063z"/>
<path class="st3" d="M160.676,4.063l3.322,6.617h-6.614L160.676,4.063z"/>
<path class="st3" d="M261.79,4.063l3.322,6.617h-6.614L261.79,4.063z"/>
<path class="st3" d="M289.812,4.063l3.322,6.617h-6.614L289.812,4.063z"/>
<g>
	<path class="st3" d="M0.112,11.757h4.662v0.688H2.831v5.053H2.055v-5.053H0.112V11.757z"/>
	<path class="st3" d="M6.208,17.498H5.504v-4.182h0.664v0.695h0.016c0.28-0.487,0.647-0.815,1.175-0.815
		c0.088,0,0.128,0.008,0.184,0.024v0.728H7.279c-0.656,0-1.071,0.512-1.071,1.119V17.498z"/>
	<path class="st3" d="M8.087,12.556v-0.799h0.704v0.799H8.087z M8.791,17.498H8.087v-4.182h0.704V17.498z"/>
	<path class="st3" d="M13.317,17.154c0,0.6-0.008,2.103-1.943,2.103c-0.496,0-1.463-0.136-1.599-1.247h0.704
		c0.128,0.664,0.775,0.664,0.943,0.664c1.215,0,1.191-0.976,1.191-1.471v-0.176h-0.016v0.032c-0.184,0.296-0.551,0.56-1.111,0.56
		c-1.423,0-1.839-1.335-1.839-2.335c0-1.175,0.632-2.087,1.743-2.087c0.759,0,1.079,0.472,1.247,0.712h0.016v-0.592h0.664V17.154z
		 M11.502,17.01c0.448,0,1.144-0.296,1.144-1.407c0-0.68-0.112-1.775-1.127-1.775c-1.087,0-1.144,1.031-1.144,1.567
		C10.375,16.314,10.735,17.01,11.502,17.01z"/>
	<path class="st3" d="M17.766,17.154c0,0.6-0.008,2.103-1.943,2.103c-0.496,0-1.463-0.136-1.599-1.247h0.704
		c0.128,0.664,0.775,0.664,0.943,0.664c1.215,0,1.191-0.976,1.191-1.471v-0.176h-0.016v0.032c-0.184,0.296-0.551,0.56-1.111,0.56
		c-1.423,0-1.839-1.335-1.839-2.335c0-1.175,0.632-2.087,1.743-2.087c0.759,0,1.079,0.472,1.247,0.712h0.016v-0.592h0.664V17.154z
		 M15.951,17.01c0.448,0,1.144-0.296,1.144-1.407c0-0.68-0.112-1.775-1.127-1.775c-1.087,0-1.144,1.031-1.144,1.567
		C14.823,16.314,15.183,17.01,15.951,17.01z"/>
	<path class="st3" d="M22.293,16.186c-0.024,0.2-0.216,0.792-0.744,1.144c-0.192,0.128-0.464,0.288-1.135,0.288
		c-1.175,0-1.871-0.888-1.871-2.095c0-1.295,0.624-2.327,2.007-2.327c1.208,0,1.799,0.959,1.799,2.439h-3.054
		c0,0.872,0.408,1.375,1.215,1.375c0.664,0,1.056-0.512,1.08-0.824H22.293z M21.622,15.075c-0.04-0.647-0.312-1.247-1.167-1.247
		c-0.648,0-1.16,0.6-1.16,1.247H21.622z"/>
	<path class="st3" d="M23.991,17.498h-0.704v-4.182h0.664v0.695h0.016c0.28-0.487,0.647-0.815,1.175-0.815
		c0.088,0,0.128,0.008,0.184,0.024v0.728h-0.264c-0.656,0-1.071,0.512-1.071,1.119V17.498z"/>
</g>
<g>
	<path class="st3" d="M0.647,38.944h2.327c1.496,0,2.415,1.135,2.415,2.791c0,1.287-0.56,2.95-2.447,2.95H0.647V38.944z
		 M1.423,44.021h1.503c1.008,0,1.663-0.791,1.663-2.238s-0.664-2.175-1.719-2.175H1.423V44.021z"/>
	<path class="st3" d="M8.67,41.695c-0.008-0.264-0.104-0.704-0.992-0.704c-0.216,0-0.832,0.072-0.832,0.591
		c0,0.344,0.216,0.424,0.76,0.56l0.704,0.177c0.872,0.216,1.175,0.535,1.175,1.103c0,0.864-0.711,1.384-1.655,1.384
		c-1.655,0-1.775-0.96-1.799-1.463h0.68c0.024,0.327,0.12,0.855,1.111,0.855c0.504,0,0.959-0.2,0.959-0.664
		c0-0.336-0.232-0.447-0.832-0.6l-0.815-0.2c-0.584-0.144-0.968-0.439-0.968-1.015c0-0.919,0.76-1.335,1.583-1.335
		c1.495,0,1.599,1.104,1.599,1.312H8.67z"/>
	<path class="st3" d="M11.159,41.087v2.718c0,0.328,0.28,0.328,0.424,0.328h0.248v0.552c-0.256,0.024-0.456,0.056-0.527,0.056
		c-0.696,0-0.848-0.392-0.848-0.896v-2.758H9.888v-0.583h0.568v-1.167h0.704v1.167h0.671v0.583H11.159z"/>
</g>
<g>
	<path class="st3" d="M65.316,74.154h0.751v5.741h-0.872l-2.918-4.638h-0.016v4.638H61.51v-5.741h0.92l2.87,4.638h0.016V74.154z"/>
	<path class="st3" d="M69.925,79.895v-0.607l-0.016-0.017c-0.295,0.488-0.655,0.744-1.327,0.744c-0.616,0-1.359-0.296-1.359-1.296
		v-3.006h0.704v2.774c0,0.688,0.352,0.92,0.807,0.92c0.888,0,1.151-0.784,1.151-1.392v-2.303h0.704v4.182H69.925z"/>
	<path class="st3" d="M71.646,75.713h0.664v0.592h0.016c0.152-0.224,0.512-0.712,1.264-0.712c0.751,0,0.991,0.456,1.111,0.68
		c0.352-0.392,0.631-0.68,1.279-0.68c0.448,0,1.295,0.232,1.295,1.407v2.895h-0.704v-2.702c0-0.576-0.176-0.968-0.775-0.968
		c-0.592,0-0.983,0.56-0.983,1.119v2.551h-0.704V77c0-0.352-0.136-0.775-0.656-0.775c-0.4,0-1.104,0.256-1.104,1.392v2.278h-0.704
		V75.713z"/>
</g>
<g>
	<path class="st3" d="M80.761,76.509l0.416-0.408l1.607,1.607l1.615-1.607l0.408,0.408L83.2,78.125l1.607,1.614l-0.408,0.408
		l-1.615-1.607l-1.615,1.607l-0.408-0.408l1.615-1.614L80.761,76.509z"/>
	<path class="st3" d="M90.216,80.147h-0.752v-3.99h-1.311v-0.56c0.912-0.063,1.287-0.151,1.511-1.071h0.552V80.147z"/>
	<path class="st3" d="M94.016,80.299c-1.615,0-1.927-1.72-1.927-2.887c0-1.168,0.312-2.887,1.927-2.887s1.927,1.719,1.927,2.887
		C95.943,78.58,95.631,80.299,94.016,80.299z M94.016,75.158c-0.808,0-1.175,0.848-1.175,2.255s0.368,2.255,1.175,2.255
		s1.175-0.848,1.175-2.255S94.823,75.158,94.016,75.158z"/>
	<path class="st3" d="M96.761,75.965h0.664v0.592h0.016c0.152-0.224,0.512-0.712,1.264-0.712c0.751,0,0.991,0.456,1.111,0.68
		c0.352-0.392,0.631-0.68,1.279-0.68c0.448,0,1.295,0.232,1.295,1.407v2.895h-0.704v-2.702c0-0.576-0.176-0.968-0.775-0.968
		c-0.592,0-0.983,0.56-0.983,1.119v2.551h-0.704v-2.895c0-0.352-0.136-0.775-0.656-0.775c-0.4,0-1.104,0.256-1.104,1.392v2.278
		h-0.704V75.965z"/>
	<path class="st3" d="M105.8,77.157c-0.008-0.264-0.104-0.704-0.992-0.704c-0.216,0-0.832,0.072-0.832,0.592
		c0,0.344,0.216,0.424,0.76,0.56l0.704,0.176c0.872,0.217,1.175,0.536,1.175,1.104c0,0.864-0.711,1.384-1.655,1.384
		c-1.655,0-1.775-0.96-1.799-1.464h0.68c0.024,0.328,0.12,0.856,1.111,0.856c0.504,0,0.959-0.2,0.959-0.664
		c0-0.336-0.232-0.448-0.832-0.6l-0.815-0.2c-0.584-0.144-0.968-0.439-0.968-1.016c0-0.919,0.76-1.335,1.583-1.335
		c1.495,0,1.599,1.104,1.599,1.312H105.8z"/>
</g>
<g>
	<path class="st3" d="M166.405,74.154h0.751v5.741h-0.872l-2.918-4.638h-0.016v4.638h-0.751v-5.741h0.919l2.87,4.638h0.016V74.154z"
		/>
	<path class="st3" d="M171.013,79.895v-0.607l-0.016-0.017c-0.296,0.488-0.656,0.744-1.328,0.744c-0.616,0-1.359-0.296-1.359-1.296
		v-3.006h0.703v2.774c0,0.688,0.352,0.92,0.808,0.92c0.888,0,1.151-0.784,1.151-1.392v-2.303h0.704v4.182H171.013z"/>
	<path class="st3" d="M172.735,75.713h0.664v0.592h0.016c0.152-0.224,0.512-0.712,1.264-0.712c0.751,0,0.991,0.456,1.111,0.68
		c0.352-0.392,0.631-0.68,1.279-0.68c0.448,0,1.295,0.232,1.295,1.407v2.895h-0.704v-2.702c0-0.576-0.176-0.968-0.775-0.968
		c-0.592,0-0.983,0.56-0.983,1.119v2.551h-0.704V77c0-0.352-0.136-0.775-0.656-0.775c-0.4,0-1.104,0.256-1.104,1.392v2.278h-0.704
		V75.713z"/>
</g>
<g>
	<path class="st3" d="M181.849,76.509l0.416-0.408l1.607,1.607l1.615-1.607l0.407,0.408l-1.607,1.615l1.607,1.614l-0.407,0.408
		l-1.615-1.607l-1.615,1.607l-0.408-0.408l1.615-1.614L181.849,76.509z"/>
	<path class="st3" d="M191.304,80.147h-0.751v-3.99h-1.312v-0.56c0.911-0.063,1.287-0.151,1.511-1.071h0.552V80.147z"/>
	<path class="st3" d="M195.104,80.299c-1.615,0-1.927-1.72-1.927-2.887c0-1.168,0.312-2.887,1.927-2.887s1.927,1.719,1.927,2.887
		C197.03,78.58,196.719,80.299,195.104,80.299z M195.104,75.158c-0.808,0-1.175,0.848-1.175,2.255s0.367,2.255,1.175,2.255
		s1.176-0.848,1.176-2.255S195.911,75.158,195.104,75.158z"/>
	<path class="st3" d="M197.849,75.965h0.664v0.592h0.016c0.152-0.224,0.512-0.712,1.264-0.712c0.751,0,0.991,0.456,1.111,0.68
		c0.352-0.392,0.632-0.68,1.279-0.68c0.447,0,1.295,0.232,1.295,1.407v2.895h-0.703v-2.702c0-0.576-0.176-0.968-0.776-0.968
		c-0.591,0-0.983,0.56-0.983,1.119v2.551h-0.703v-2.895c0-0.352-0.136-0.775-0.655-0.775c-0.4,0-1.104,0.256-1.104,1.392v2.278
		h-0.704V75.965z"/>
	<path class="st3" d="M206.888,77.157c-0.008-0.264-0.104-0.704-0.991-0.704c-0.216,0-0.832,0.072-0.832,0.592
		c0,0.344,0.216,0.424,0.76,0.56l0.703,0.176c0.872,0.217,1.176,0.536,1.176,1.104c0,0.864-0.712,1.384-1.655,1.384
		c-1.655,0-1.774-0.96-1.799-1.464h0.68c0.024,0.328,0.12,0.856,1.111,0.856c0.504,0,0.96-0.2,0.96-0.664
		c0-0.336-0.232-0.448-0.832-0.6l-0.815-0.2c-0.584-0.144-0.968-0.439-0.968-1.016c0-0.919,0.76-1.335,1.583-1.335
		c1.495,0,1.6,1.104,1.6,1.312H206.888z"/>
</g>
<g>
	<path class="st3" d="M266.716,74.154h0.751v5.741h-0.871l-2.919-4.638h-0.016v4.638h-0.752v-5.741h0.92l2.87,4.638h0.017V74.154z"
		/>
	<path class="st3" d="M271.323,79.895v-0.607l-0.016-0.017c-0.296,0.488-0.656,0.744-1.327,0.744c-0.616,0-1.359-0.296-1.359-1.296
		v-3.006h0.703v2.774c0,0.688,0.353,0.92,0.808,0.92c0.888,0,1.151-0.784,1.151-1.392v-2.303h0.704v4.182H271.323z"/>
	<path class="st3" d="M273.045,75.713h0.664v0.592h0.016c0.152-0.224,0.512-0.712,1.264-0.712c0.751,0,0.991,0.456,1.111,0.68
		c0.352-0.392,0.632-0.68,1.279-0.68c0.447,0,1.295,0.232,1.295,1.407v2.895h-0.703v-2.702c0-0.576-0.176-0.968-0.776-0.968
		c-0.591,0-0.983,0.56-0.983,1.119v2.551h-0.703V77c0-0.352-0.136-0.775-0.655-0.775c-0.4,0-1.104,0.256-1.104,1.392v2.278h-0.704
		V75.713z"/>
</g>
<g>
	<path class="st3" d="M282.161,76.509l0.416-0.408l1.607,1.607l1.615-1.607l0.407,0.408l-1.607,1.615l1.607,1.614l-0.407,0.408
		l-1.615-1.607l-1.615,1.607l-0.408-0.408l1.615-1.614L282.161,76.509z"/>
	<path class="st3" d="M291.616,80.147h-0.751v-3.99h-1.312v-0.56c0.911-0.063,1.287-0.151,1.511-1.071h0.552V80.147z"/>
	<path class="st3" d="M295.416,80.299c-1.615,0-1.927-1.72-1.927-2.887c0-1.168,0.312-2.887,1.927-2.887s1.927,1.719,1.927,2.887
		C297.343,78.58,297.031,80.299,295.416,80.299z M295.416,75.158c-0.808,0-1.175,0.848-1.175,2.255s0.367,2.255,1.175,2.255
		s1.176-0.848,1.176-2.255S296.224,75.158,295.416,75.158z"/>
	<path class="st3" d="M298.161,75.965h0.664v0.592h0.016c0.152-0.224,0.512-0.712,1.264-0.712c0.751,0,0.991,0.456,1.111,0.68
		c0.352-0.392,0.632-0.68,1.279-0.68c0.447,0,1.295,0.232,1.295,1.407v2.895h-0.703v-2.702c0-0.576-0.176-0.968-0.776-0.968
		c-0.591,0-0.983,0.56-0.983,1.119v2.551h-0.703v-2.895c0-0.352-0.136-0.775-0.655-0.775c-0.4,0-1.104,0.256-1.104,1.392v2.278
		h-0.704V75.965z"/>
	<path class="st3" d="M307.2,77.157c-0.008-0.264-0.104-0.704-0.991-0.704c-0.216,0-0.832,0.072-0.832,0.592
		c0,0.344,0.216,0.424,0.76,0.56l0.703,0.176c0.872,0.217,1.176,0.536,1.176,1.104c0,0.864-0.712,1.384-1.655,1.384
		c-1.655,0-1.774-0.96-1.799-1.464h0.68c0.024,0.328,0.12,0.856,1.111,0.856c0.504,0,0.96-0.2,0.96-0.664
		c0-0.336-0.232-0.448-0.832-0.6l-0.815-0.2c-0.584-0.144-0.968-0.439-0.968-1.016c0-0.919,0.76-1.335,1.583-1.335
		c1.495,0,1.6,1.104,1.6,1.312H307.2z"/>
</g>
<g>
</g>
<g>
</g>
<g>
</g>
<g>
</g>
<g>
</g>
</svg>
