<?xml version="1.0" encoding="utf-8"?>
<!-- Generator: Adobe Illustrator 28.2.0, SVG Export Plug-In . SVG Version: 6.00 Build 0)  -->
<svg version="1.1" id="レイヤー_1" xmlns="http://www.w3.org/2000/svg" xmlns:xlink="http://www.w3.org/1999/xlink" x="0px"
	 y="0px" width="319.597px" height="292.708px" viewBox="0 0 319.597 292.708" style="enable-background:new 0 0 319.597 292.708;"
	 xml:space="preserve">
<style type="text/css">
	.st0{fill:none;stroke:#000000;stroke-width:0.7;}
	.st1{fill:#FFFFFF;stroke:#000000;stroke-width:0.7;}
	.st2{fill:#FFFFFF;}
	.st3{fill:none;}
	.st4{fill:none;stroke:#000000;}
</style>
<line class="st0" x1="319.238" y1="223.419" x2="57.068" y2="223.419"/>
<line class="st0" x1="0.451" y1="168.783" x2="319.522" y2="168.783"/>
<polyline class="st0" points="319.238,276.676 57.08,276.676 57.08,169.236 "/>
<line class="st0" x1="0.35" y1="0" x2="0.35" y2="292.708"/>
<line class="st0" x1="319.247" y1="0" x2="319.247" y2="292.708"/>
<line class="st0" x1="0.451" y1="21.378" x2="319.522" y2="21.378"/>
<polyline class="st0" points="319.522,74.527 53.024,74.527 53.024,21.381 "/>
<g>
	<path d="M17.999,14.059v-3.39c0-0.168,0.016-0.896,0.016-1.431h-0.016l-1.615,4.821h-0.768l-1.615-4.813h-0.016
		c0,0.528,0.016,1.255,0.016,1.423v3.39h-0.752V8.318h1.111L16,13.171h0.016l1.631-4.853h1.103v5.741H17.999z"/>
	<path d="M20.809,14.059h-0.775V8.318h2.654c0.944,0,1.887,0.328,1.887,1.543c0,0.848-0.432,1.159-0.799,1.375
		c0.328,0.136,0.655,0.28,0.688,1.079l0.048,1.04c0.008,0.32,0.048,0.44,0.288,0.576v0.128h-0.952
		c-0.112-0.352-0.136-1.223-0.136-1.439c0-0.472-0.096-1.023-1.023-1.023h-1.879V14.059z M20.809,10.932h1.799
		c0.567,0,1.167-0.144,1.167-0.991c0-0.888-0.648-0.959-1.032-0.959h-1.935V10.932z"/>
	<path d="M27.328,14.211c-1.615,0-1.927-1.719-1.927-2.886s0.312-2.887,1.927-2.887s1.927,1.719,1.927,2.887
		S28.943,14.211,27.328,14.211z M27.328,9.069c-0.808,0-1.175,0.848-1.175,2.255s0.368,2.254,1.175,2.254s1.175-0.847,1.175-2.254
		S28.136,9.069,27.328,9.069z"/>
	<path d="M31.776,14.211c-1.615,0-1.927-1.719-1.927-2.886s0.312-2.887,1.927-2.887c1.615,0,1.927,1.719,1.927,2.887
		S33.391,14.211,31.776,14.211z M31.776,9.069c-0.808,0-1.175,0.848-1.175,2.255s0.368,2.254,1.175,2.254s1.175-0.847,1.175-2.254
		S32.584,9.069,31.776,9.069z"/>
	<path d="M36.224,14.211c-1.615,0-1.927-1.719-1.927-2.886s0.312-2.887,1.927-2.887c1.615,0,1.927,1.719,1.927,2.887
		S37.839,14.211,36.224,14.211z M36.224,9.069c-0.808,0-1.175,0.848-1.175,2.255s0.368,2.254,1.175,2.254s1.175-0.847,1.175-2.254
		S37.032,9.069,36.224,9.069z"/>
</g>
<rect x="210.849" y="59.868" class="st1" width="49.607" height="69.45"/>
<g>
	<path d="M233.987,77.756h-0.527l0.231-1.68h-0.999l-0.231,1.68h-0.528l0.232-1.68h-0.824l0.072-0.503h0.823l0.152-1.136h-0.824
		l0.072-0.504h0.824l0.231-1.679h0.536l-0.232,1.679h0.991l0.232-1.679h0.535l-0.231,1.679h0.823l-0.071,0.504h-0.824l-0.16,1.136
		h0.824l-0.072,0.503h-0.823L233.987,77.756z M232.924,74.438l-0.159,1.136h0.999l0.152-1.136H232.924z"/>
	<path d="M238.436,77.756h-0.751v-3.99h-1.312v-0.56c0.911-0.063,1.287-0.152,1.511-1.071h0.552V77.756z"/>
	<path d="M227.769,114.535h2.327c1.495,0,2.414,1.136,2.414,2.791c0,1.287-0.56,2.95-2.446,2.95h-2.295V114.535z M228.544,119.612
		h1.504c1.007,0,1.663-0.791,1.663-2.238s-0.664-2.175-1.72-2.175h-1.447V119.612z"/>
	<path d="M238.23,120.276v-3.39c0-0.168,0.016-0.896,0.016-1.432h-0.016l-1.615,4.821h-0.768l-1.615-4.813h-0.016
		c0,0.527,0.016,1.256,0.016,1.424v3.39h-0.751v-5.741h1.111l1.639,4.854h0.017l1.631-4.854h1.104v5.741H238.23z"/>
	<path d="M241.783,120.428c-1.615,0-1.927-1.72-1.927-2.887s0.312-2.887,1.927-2.887s1.927,1.72,1.927,2.887
		S243.399,120.428,241.783,120.428z M241.783,115.287c-0.808,0-1.175,0.848-1.175,2.255s0.367,2.255,1.175,2.255
		s1.176-0.848,1.176-2.255S242.591,115.287,241.783,115.287z"/>
</g>
<rect x="161.242" y="59.868" class="st1" width="49.607" height="69.45"/>
<rect x="163.703" y="56.405" class="st2" width="26.636" height="8.51"/>
<g>
	<path d="M169.489,58.89c-0.04-0.887-0.775-1.167-1.423-1.167c-0.488,0-1.311,0.136-1.311,1.007c0,0.488,0.344,0.647,0.68,0.728
		l1.639,0.376c0.744,0.176,1.304,0.624,1.304,1.535c0,1.359-1.264,1.735-2.247,1.735c-1.063,0-1.479-0.32-1.735-0.552
		c-0.488-0.439-0.584-0.919-0.584-1.455h0.728c0,1.04,0.847,1.343,1.583,1.343c0.56,0,1.503-0.144,1.503-0.967
		c0-0.6-0.28-0.792-1.223-1.016l-1.175-0.272c-0.376-0.088-1.224-0.352-1.224-1.351c0-0.896,0.584-1.775,1.975-1.775
		c2.007,0,2.207,1.199,2.239,1.831H169.489z"/>
	<path d="M172.219,62.952h-0.776v-5.741h2.583c1.063,0,1.703,0.688,1.703,1.615c0,0.799-0.456,1.703-1.703,1.703h-1.807V62.952z
		 M172.219,59.866h1.543c0.696,0,1.167-0.256,1.167-1.031c0-0.728-0.496-0.959-1.135-0.959h-1.575V59.866z"/>
	<path d="M178.53,62.952h-0.815l-1.495-5.741h0.84l1.071,4.669h0.016l1.287-4.669h0.848l1.287,4.669h0.017l1.071-4.669h0.855
		l-1.511,5.741h-0.816l-1.311-4.757h-0.017L178.53,62.952z"/>
	<path d="M185.123,62.952h-0.775v-5.741h2.654c0.943,0,1.887,0.328,1.887,1.543c0,0.848-0.432,1.159-0.8,1.375
		c0.328,0.136,0.656,0.28,0.688,1.079l0.048,1.04c0.009,0.32,0.049,0.44,0.288,0.576v0.128h-0.951
		c-0.112-0.352-0.136-1.223-0.136-1.439c0-0.472-0.096-1.023-1.023-1.023h-1.879V62.952z M185.123,59.826h1.799
		c0.567,0,1.167-0.144,1.167-0.991c0-0.888-0.647-0.959-1.031-0.959h-1.935V59.826z"/>
</g>
<g>
	<path d="M184.382,77.756h-0.527l0.231-1.68h-0.999l-0.231,1.68h-0.528l0.232-1.68h-0.824l0.072-0.503h0.823l0.152-1.136h-0.824
		l0.072-0.504h0.824l0.231-1.679h0.536l-0.232,1.679h0.991l0.232-1.679h0.535l-0.231,1.679h0.823l-0.071,0.504h-0.824l-0.16,1.136
		h0.824l-0.072,0.503h-0.823L184.382,77.756z M183.318,74.438l-0.159,1.136h0.999l0.152-1.136H183.318z"/>
	<path d="M188.183,77.908c-1.615,0-1.927-1.719-1.927-2.886c0-1.168,0.312-2.887,1.927-2.887s1.927,1.719,1.927,2.887
		C190.109,76.189,189.798,77.908,188.183,77.908z M188.183,72.767c-0.808,0-1.175,0.848-1.175,2.255s0.367,2.254,1.175,2.254
		s1.176-0.847,1.176-2.254S188.99,72.767,188.183,72.767z"/>
	<path d="M179.935,120.276h-0.527l0.231-1.679h-0.999l-0.231,1.679h-0.528l0.232-1.679h-0.824l0.072-0.504h0.823l0.152-1.136h-0.824
		l0.072-0.504h0.824l0.231-1.679h0.536l-0.232,1.679h0.991l0.232-1.679h0.535l-0.231,1.679h0.823l-0.071,0.504h-0.824l-0.16,1.136
		h0.824l-0.072,0.504h-0.823L179.935,120.276z M178.871,116.958l-0.159,1.136h0.999l0.152-1.136H178.871z"/>
	<path d="M184.727,117.286c0.76,0.319,0.92,0.943,0.92,1.367c0,0.903-0.576,1.775-1.903,1.775c-0.312,0-0.903-0.08-1.351-0.433
		c-0.576-0.455-0.576-1.062-0.576-1.335c0-0.688,0.36-1.127,0.951-1.367c-0.479-0.184-0.759-0.567-0.759-1.096
		c0-0.583,0.359-1.543,1.703-1.543c1.247,0,1.734,0.792,1.734,1.447C185.446,116.91,184.975,117.158,184.727,117.286z
		 M182.568,118.677c0,0.447,0.224,1.119,1.199,1.119c0.512,0,1.127-0.185,1.127-1.063c0-0.76-0.527-1.096-1.167-1.096
		C182.936,117.637,182.568,118.157,182.568,118.677z M184.719,116.127c0-0.344-0.224-0.84-1.047-0.84
		c-0.752,0-0.936,0.52-0.936,0.88c0,0.535,0.472,0.863,0.983,0.863C184.327,117.03,184.719,116.638,184.719,116.127z"/>
	<path d="M187.752,117.078c0.12,0.008,0.248,0.016,0.368,0.016c0.543,0,1.071-0.216,1.071-0.919c0-0.336-0.2-0.888-1.04-0.888
		c-0.999,0-1.063,0.815-1.095,1.207h-0.688c0-0.823,0.335-1.839,1.814-1.839c1.088,0,1.735,0.624,1.735,1.479
		c0,0.72-0.416,1.063-0.72,1.159v0.016c0.544,0.177,0.936,0.561,0.936,1.312c0,0.92-0.592,1.808-2.023,1.808
		c-0.415,0-0.768-0.104-1.039-0.248c-0.624-0.328-0.791-0.976-0.84-1.623h0.728c0.024,0.527,0.152,1.239,1.2,1.239
		c0.719,0,1.223-0.44,1.223-1.088c0-0.943-0.831-1.031-1.311-1.031c-0.104,0-0.217,0.008-0.32,0.008V117.078z"/>
	<path d="M192.199,117.078c0.12,0.008,0.248,0.016,0.368,0.016c0.543,0,1.071-0.216,1.071-0.919c0-0.336-0.2-0.888-1.04-0.888
		c-0.999,0-1.063,0.815-1.095,1.207h-0.688c0-0.823,0.335-1.839,1.814-1.839c1.088,0,1.735,0.624,1.735,1.479
		c0,0.72-0.416,1.063-0.72,1.159v0.016c0.544,0.177,0.936,0.561,0.936,1.312c0,0.92-0.592,1.808-2.023,1.808
		c-0.415,0-0.768-0.104-1.039-0.248c-0.624-0.328-0.791-0.976-0.84-1.623h0.728c0.024,0.527,0.152,1.239,1.2,1.239
		c0.719,0,1.223-0.44,1.223-1.088c0-0.943-0.831-1.031-1.311-1.031c-0.104,0-0.217,0.008-0.32,0.008V117.078z"/>
</g>
<rect x="260.456" y="59.868" class="st1" width="49.607" height="69.45"/>
<g>
	<path d="M283.594,77.756h-0.527l0.231-1.68h-0.999l-0.232,1.68h-0.527l0.232-1.68h-0.824l0.072-0.503h0.823l0.152-1.136h-0.823
		l0.071-0.504h0.823l0.232-1.679h0.535l-0.231,1.679h0.991l0.232-1.679h0.535l-0.231,1.679h0.823l-0.072,0.504h-0.823l-0.16,1.136
		h0.824l-0.072,0.503h-0.823L283.594,77.756z M282.53,74.438l-0.159,1.136h0.999l0.152-1.136H282.53z"/>
	<path d="M288.042,77.756h-0.751v-3.99h-1.312v-0.56c0.911-0.063,1.287-0.152,1.511-1.071h0.552V77.756z"/>
</g>
<g>
	<line class="st3" x1="18.543" y1="26.371" x2="32.573" y2="16.349"/>
	<g>
		<rect x="22.049" y="16.349" class="st2" width="7.016" height="10.021"/>
		<line class="st0" x1="22.049" y1="26.37" x2="22.049" y2="16.349"/>
		<line class="st0" x1="29.066" y1="16.349" x2="29.066" y2="26.37"/>
	</g>
	<g>
		<line class="st3" x1="25.584" y1="28.499" x2="25.584" y2="21.843"/>
		<path class="st3" d="M24.991,18.987c-0.291,0.962-0.559,1.589-0.869,2.361h2.939c-0.133-0.276-0.58-1.399-0.869-2.361
			c-0.312-1.03-0.525-1.965-0.601-2.571C25.514,17.021,25.304,17.957,24.991,18.987z"/>
	</g>
</g>
<g>
	<rect x="270.882" y="260.21" class="st2" width="29.184" height="28.583"/>
	<g>
		<path class="st0" d="M273.738,280.537c-1.609,0-2.913-1.855-2.913-4.141c0-2.288,1.304-4.143,2.913-4.143"/>
		<path class="st0" d="M296.858,272.2c1.607,0,2.91,1.855,2.91,4.141c0,2.288-1.304,4.143-2.91,4.143"/>
	</g>
	<g>
		<g>
			<path d="M277.251,270.733v-3.39c0-0.168,0.016-0.896,0.016-1.432h-0.016l-1.615,4.821h-0.768l-1.615-4.813h-0.016
				c0,0.527,0.016,1.256,0.016,1.424v3.39h-0.751v-5.741h1.111l1.639,4.854h0.017l1.631-4.854h1.104v5.741H277.251z"/>
			<path d="M280.062,270.733h-0.776v-5.741h2.655c0.943,0,1.887,0.328,1.887,1.544c0,0.847-0.432,1.159-0.8,1.375
				c0.328,0.136,0.656,0.279,0.688,1.079l0.049,1.039c0.008,0.32,0.048,0.44,0.287,0.576v0.128H283.1
				c-0.112-0.352-0.136-1.224-0.136-1.439c0-0.472-0.097-1.023-1.023-1.023h-1.879V270.733z M280.062,267.607h1.799
				c0.567,0,1.167-0.145,1.167-0.992c0-0.887-0.647-0.959-1.031-0.959h-1.935V267.607z"/>
			<path d="M286.58,270.885c-1.615,0-1.927-1.72-1.927-2.887s0.312-2.887,1.927-2.887s1.927,1.72,1.927,2.887
				S288.195,270.885,286.58,270.885z M286.58,265.744c-0.808,0-1.175,0.848-1.175,2.255s0.367,2.255,1.175,2.255
				s1.176-0.848,1.176-2.255S287.388,265.744,286.58,265.744z"/>
			<path d="M291.028,270.885c-1.615,0-1.927-1.72-1.927-2.887s0.312-2.887,1.927-2.887s1.927,1.72,1.927,2.887
				S292.644,270.885,291.028,270.885z M291.028,265.744c-0.808,0-1.175,0.848-1.175,2.255s0.367,2.255,1.175,2.255
				s1.176-0.848,1.176-2.255S291.836,265.744,291.028,265.744z"/>
			<path d="M295.477,270.885c-1.615,0-1.927-1.72-1.927-2.887s0.312-2.887,1.927-2.887s1.927,1.72,1.927,2.887
				S297.092,270.885,295.477,270.885z M295.477,265.744c-0.808,0-1.175,0.848-1.175,2.255s0.367,2.255,1.175,2.255
				s1.176-0.848,1.176-2.255S296.284,265.744,295.477,265.744z"/>
		</g>
		<g>
			<path d="M278.066,280.347h-0.776v-5.741h2.655c0.943,0,1.887,0.328,1.887,1.544c0,0.847-0.432,1.159-0.8,1.375
				c0.328,0.136,0.656,0.279,0.688,1.079l0.049,1.04c0.008,0.319,0.048,0.439,0.287,0.575v0.128h-0.951
				c-0.112-0.352-0.136-1.224-0.136-1.439c0-0.472-0.097-1.023-1.023-1.023h-1.879V280.347z M278.066,277.221h1.799
				c0.567,0,1.167-0.145,1.167-0.992c0-0.887-0.647-0.959-1.031-0.959h-1.935V277.221z"/>
			<path d="M287.287,280.347h-4.238v-5.741h4.182v0.688h-3.406v1.759h3.143v0.688h-3.143v1.919h3.463V280.347z"/>
			<path d="M291.767,276.286c-0.04-0.888-0.775-1.168-1.423-1.168c-0.487,0-1.312,0.137-1.312,1.008c0,0.487,0.344,0.647,0.68,0.728
				l1.64,0.376c0.743,0.176,1.303,0.624,1.303,1.535c0,1.359-1.263,1.735-2.246,1.735c-1.063,0-1.479-0.32-1.735-0.552
				c-0.488-0.44-0.584-0.92-0.584-1.456h0.728c0,1.04,0.848,1.344,1.583,1.344c0.56,0,1.504-0.144,1.504-0.968
				c0-0.6-0.28-0.791-1.224-1.015l-1.176-0.272c-0.375-0.088-1.223-0.352-1.223-1.352c0-0.896,0.583-1.774,1.975-1.774
				c2.007,0,2.207,1.199,2.238,1.831H291.767z"/>
		</g>
	</g>
</g>
<g>
	<path d="M211.84,132.491c0.297,0.036,0.599,0.055,0.906,0.055h1.367c0.141-0.339,0.278-0.7,0.414-1.086
		c0.255,0.104,0.503,0.175,0.742,0.211c-0.136,0.146-0.323,0.438-0.562,0.875h3.133c0.297,0,0.599-0.019,0.906-0.055
		c-0.026,0.109-0.039,0.224-0.039,0.344c0,0.099,0.013,0.203,0.039,0.312c-0.308-0.042-0.609-0.062-0.906-0.062h-3.391
		c-0.271,0.552-0.55,1.047-0.836,1.484v3.266c0,0.339,0.021,0.683,0.062,1.031c-0.109-0.021-0.224-0.031-0.344-0.031
		c-0.099,0-0.203,0.011-0.312,0.031c0.047-0.349,0.07-0.692,0.07-1.031v-2.547c-0.308,0.396-0.62,0.766-0.938,1.109
		c-0.167-0.141-0.386-0.255-0.656-0.344c0.578-0.479,1.102-1.031,1.57-1.656c-0.016-0.13-0.031-0.258-0.047-0.383
		c0.094,0.011,0.192,0.019,0.297,0.023c0.192-0.281,0.375-0.599,0.547-0.953h-1.117c-0.308,0-0.609,0.021-0.906,0.062
		c0.021-0.109,0.031-0.214,0.031-0.312C211.871,132.714,211.86,132.6,211.84,132.491z M214.613,134.014
		c0.25,0.026,0.5,0.039,0.75,0.039h2.164c0.255,0,0.513-0.013,0.773-0.039c-0.021,0.099-0.031,0.192-0.031,0.281
		c0.021,0.12,0.031,0.234,0.031,0.344c-0.531,0.297-1.019,0.591-1.461,0.883v0.531h1.031c0.297,0,0.599-0.023,0.906-0.07
		c-0.021,0.12-0.031,0.234-0.031,0.344s0.011,0.214,0.031,0.312c-0.308-0.042-0.609-0.062-0.906-0.062h-1.031v1.57
		c0,0.245-0.112,0.409-0.336,0.492c-0.292,0.109-0.628,0.164-1.008,0.164c-0.026-0.224-0.12-0.442-0.281-0.656
		c0.271,0.021,0.448,0.031,0.531,0.031c0.359,0,0.544-0.104,0.555-0.312v-1.289h-1.375c-0.297,0-0.599,0.021-0.906,0.062
		c0.026-0.099,0.039-0.203,0.039-0.312s-0.013-0.224-0.039-0.344c0.308,0.047,0.609,0.07,0.906,0.07h1.375v-0.656l1.227-0.82h-2.164
		c-0.25,0-0.5,0.011-0.75,0.031c0.021-0.099,0.031-0.203,0.031-0.312C214.645,134.207,214.634,134.113,214.613,134.014z"/>
	<path d="M221.02,131.491c0.177,0.094,0.43,0.164,0.758,0.211c-0.161,0.208-0.359,0.614-0.594,1.219
		c-0.031,0.078-0.062,0.159-0.094,0.242v4.703c0,0.344,0.021,0.685,0.062,1.023c-0.12-0.016-0.234-0.023-0.344-0.023
		s-0.214,0.008-0.312,0.023c0.036-0.339,0.055-0.68,0.055-1.023v-3.547c-0.183,0.349-0.38,0.685-0.594,1.008
		c-0.094-0.141-0.258-0.276-0.492-0.406c0.464-0.589,0.823-1.177,1.078-1.766C220.762,132.603,220.921,132.048,221.02,131.491z
		 M221.27,133.952c0.109,0.021,0.214,0.031,0.312,0.031h0.57c0.156,0,0.31-0.011,0.461-0.031c-0.031,0.161-0.052,0.32-0.062,0.477
		v2.703c0.192-0.125,0.383-0.269,0.57-0.43c0.047,0.156,0.128,0.294,0.242,0.414c-0.438,0.349-0.896,0.763-1.375,1.242
		c-0.094-0.146-0.208-0.271-0.344-0.375c0.167-0.161,0.281-0.312,0.344-0.453c0.047-0.136,0.07-0.247,0.07-0.336v-2.766h-0.477
		c-0.099,0-0.203,0.011-0.312,0.031c0.021-0.089,0.031-0.172,0.031-0.25C221.301,134.127,221.29,134.041,221.27,133.952z
		 M222.434,131.952c0.136,0.448,0.32,0.93,0.555,1.445c-0.192,0.031-0.388,0.091-0.586,0.18c-0.099-0.458-0.276-0.956-0.531-1.492
		C222.069,132.064,222.257,132.019,222.434,131.952z M223.301,132.522c0.25,0.036,0.503,0.055,0.758,0.055h0.344v-0.562
		c0-0.183-0.023-0.367-0.07-0.555c0.188,0.052,0.406,0.081,0.656,0.086c-0.062,0.12-0.094,0.276-0.094,0.469v0.562
		c0.25,0,0.5-0.019,0.75-0.055c-0.021,0.089-0.031,0.183-0.031,0.281c0,0.089,0.011,0.183,0.031,0.281
		c-0.25-0.047-0.5-0.07-0.75-0.07v1.039h0.164c0.386-0.521,0.789-1.2,1.211-2.039c0.177,0.167,0.367,0.305,0.57,0.414
		c-0.125,0.094-0.394,0.458-0.805,1.094c-0.114,0.188-0.231,0.364-0.352,0.531h0.438c0.25,0,0.5-0.023,0.75-0.07
		c-0.021,0.099-0.031,0.192-0.031,0.281c0,0.099,0.011,0.192,0.031,0.281c-0.25-0.036-0.5-0.055-0.75-0.055h-0.766
		c-0.146,0.198-0.3,0.38-0.461,0.547c-0.058,0.073-0.114,0.138-0.172,0.195h0.805c0.266,0,0.534-0.019,0.805-0.055
		c-0.042,0.239-0.062,0.477-0.062,0.711v2.227c0,0.261,0.021,0.519,0.062,0.773c-0.151-0.016-0.255-0.023-0.312-0.023
		c-0.052,0-0.156,0.008-0.312,0.023c0.042-0.219,0.062-0.438,0.062-0.656h-1.523c0,0.224,0.019,0.442,0.055,0.656
		c-0.151-0.016-0.255-0.023-0.312-0.023c-0.052,0-0.156,0.008-0.312,0.023c0.047-0.255,0.07-0.513,0.07-0.773v-1.898
		c-0.161,0.151-0.331,0.302-0.508,0.453c-0.104-0.156-0.258-0.292-0.461-0.406c0.328-0.234,0.644-0.487,0.945-0.758
		c-0.011-0.114-0.026-0.224-0.047-0.328c0.12,0.016,0.234,0.026,0.344,0.031c0.245-0.229,0.469-0.469,0.672-0.719h-0.945
		c-0.255,0-0.508,0.019-0.758,0.055c0.021-0.089,0.031-0.183,0.031-0.281c0-0.089-0.011-0.183-0.031-0.281
		c0.25,0.047,0.503,0.07,0.758,0.07h0.656v-1.039h-0.344c-0.255,0-0.508,0.023-0.758,0.07c0.021-0.099,0.031-0.192,0.031-0.281
		C223.332,132.705,223.321,132.611,223.301,132.522z M224.238,136.545h1.539v-0.875h-1.477c-0.026,0.031-0.047,0.055-0.062,0.07
		V136.545z M224.238,137.803h1.539v-0.852h-1.539V137.803z"/>
	<path d="M230.434,137.295c-0.021,0.292-0.031,0.489-0.031,0.594c-1.339,0.203-2.192,0.359-2.562,0.469
		c-0.011-0.188-0.075-0.406-0.195-0.656C228.66,137.608,229.59,137.472,230.434,137.295z M229.09,131.545
		c0.198,0.125,0.427,0.239,0.688,0.344c-0.208,0.317-0.409,0.677-0.602,1.078c-0.214,0.469-0.43,0.862-0.648,1.18
		c0.339-0.094,0.68-0.148,1.023-0.164l0.008,0.008c0.219-0.422,0.352-0.734,0.398-0.938l0.656,0.406
		c-0.172,0.114-0.362,0.352-0.57,0.711c-0.625,1.052-1.058,1.722-1.297,2.008l1.617-0.227c-0.021,0.172-0.031,0.341-0.031,0.508
		c-0.901,0.062-1.672,0.167-2.312,0.312l-0.125-0.688c0.302-0.125,0.539-0.308,0.711-0.547c0.281-0.422,0.513-0.786,0.695-1.094
		c-0.641,0.042-1.117,0.128-1.43,0.258l-0.125-0.648c0.286-0.156,0.528-0.422,0.727-0.797
		C228.649,132.944,228.856,132.374,229.09,131.545z M230.465,132.741c0.286,0.042,0.575,0.062,0.867,0.062h0.82v-0.625
		c0-0.219-0.021-0.438-0.062-0.656c0.208,0.073,0.458,0.112,0.75,0.117c-0.062,0.136-0.094,0.315-0.094,0.539v0.625h1.031
		c0.292,0,0.581-0.021,0.867-0.062c-0.021,0.099-0.031,0.203-0.031,0.312c0,0.104,0.011,0.206,0.031,0.305
		c-0.286-0.042-0.575-0.062-0.867-0.062h-1.031v1.164h0.656c0.292,0,0.581-0.021,0.867-0.062c-0.021,0.099-0.031,0.2-0.031,0.305
		c0,0.109,0.011,0.214,0.031,0.312c-0.286-0.042-0.575-0.062-0.867-0.062h-1.852c-0.286,0-0.578,0.021-0.875,0.062
		c0.021-0.099,0.031-0.203,0.031-0.312c0-0.104-0.011-0.206-0.031-0.305c0.297,0.042,0.589,0.062,0.875,0.062h0.602v-1.164h-0.82
		c-0.292,0-0.581,0.021-0.867,0.062c0.021-0.099,0.031-0.2,0.031-0.305C230.496,132.944,230.485,132.839,230.465,132.741z
		 M230.84,135.639c0.308,0.042,0.62,0.062,0.938,0.062h1.438c0.308,0,0.62-0.021,0.938-0.062c-0.042,0.276-0.062,0.55-0.062,0.82
		v1.594c0,0.302,0.021,0.602,0.062,0.898c-0.177-0.021-0.292-0.031-0.344-0.031c-0.067,0-0.192,0.011-0.375,0.031
		c0.036-0.261,0.055-0.519,0.055-0.773h-1.992c0.005,0.261,0.023,0.519,0.055,0.773c-0.188-0.021-0.31-0.031-0.367-0.031
		s-0.172,0.011-0.344,0.031c0.036-0.297,0.055-0.597,0.055-0.898v-1.594C230.895,136.189,230.876,135.916,230.84,135.639z
		 M231.496,137.67h2v-1.461h-2V137.67z"/>
	<path d="M236.707,131.772c0.344,0.021,0.69,0.031,1.039,0.031h3.031c0.339,0,0.683-0.011,1.031-0.031
		c-0.021,0.188-0.031,0.372-0.031,0.555v2.195c0,0.208,0.011,0.417,0.031,0.625c-0.349-0.021-0.692-0.031-1.031-0.031h-1.195v0.656
		h2.164c0.302,0,0.602-0.023,0.898-0.07c-0.021,0.114-0.031,0.231-0.031,0.352c0,0.104,0.011,0.206,0.031,0.305
		c-0.297-0.042-0.597-0.062-0.898-0.062h-1.664c0.297,0.386,0.63,0.69,1,0.914c0.375,0.255,0.95,0.453,1.727,0.594
		c-0.239,0.192-0.419,0.401-0.539,0.625c-0.552-0.203-1.052-0.477-1.5-0.82c-0.458-0.339-0.852-0.776-1.18-1.312h-0.008v1.625
		c0,0.328,0.021,0.651,0.062,0.969c-0.12-0.016-0.245-0.023-0.375-0.023c-0.109,0-0.224,0.008-0.344,0.023
		c0.042-0.317,0.062-0.641,0.062-0.969v-1.625h-0.039c-0.302,0.521-0.659,0.935-1.07,1.242c-0.458,0.344-1.065,0.651-1.82,0.922
		c-0.094-0.229-0.242-0.427-0.445-0.594c0.719-0.136,1.341-0.359,1.867-0.672c0.364-0.234,0.698-0.534,1-0.898h-1.703
		c-0.308,0-0.609,0.021-0.906,0.062c0.016-0.099,0.023-0.2,0.023-0.305c0-0.12-0.008-0.237-0.023-0.352
		c0.297,0.047,0.599,0.07,0.906,0.07h2.211v-0.656h-1.242c-0.349,0-0.695,0.011-1.039,0.031c0.026-0.208,0.039-0.417,0.039-0.625
		v-2.195C236.72,132.144,236.707,131.96,236.707,131.772z M237.332,133.21h1.656v-0.883h-1.656V133.21z M238.988,134.577v-0.875
		h-1.656v0.875H238.988z M239.582,132.327v0.883h1.602v-0.883H239.582z M241.184,134.577v-0.875h-1.602v0.875H241.184z"/>
</g>
<g>
	<path d="M261.754,39.826c0.12,0.016,0.245,0.023,0.375,0.023h0.773c0.188,0,0.378-0.008,0.57-0.023
		c-0.036,0.193-0.058,0.38-0.062,0.562v2.812c0.302-0.177,0.604-0.388,0.906-0.633c0.062,0.198,0.164,0.367,0.305,0.508
		c-0.573,0.401-1.177,0.878-1.812,1.43c-0.12-0.172-0.253-0.315-0.398-0.43c0.161-0.172,0.273-0.328,0.336-0.469
		c0.042-0.13,0.062-0.245,0.062-0.344v-2.875h-0.68c-0.13,0-0.255,0.011-0.375,0.031c0.021-0.109,0.031-0.213,0.031-0.312
		C261.785,40.008,261.775,39.915,261.754,39.826z M263.004,37.599c0.224,0.417,0.523,0.844,0.898,1.281
		c-0.219,0.052-0.427,0.156-0.625,0.312c-0.255-0.495-0.544-0.932-0.867-1.312C262.65,37.823,262.848,37.73,263.004,37.599z
		 M264.215,40.662c0.229,0.026,0.458,0.039,0.688,0.039h2.789c0.229,0,0.458-0.013,0.688-0.039
		c-0.375,0.891-0.745,1.597-1.109,2.117c-0.141,0.198-0.292,0.378-0.453,0.539c0.661,0.312,1.433,0.521,2.312,0.625
		c-0.239,0.208-0.396,0.438-0.469,0.688c-0.927-0.172-1.7-0.466-2.32-0.883c-0.214,0.162-0.438,0.31-0.672,0.445
		c-0.594,0.307-1.117,0.526-1.57,0.656c-0.099-0.224-0.245-0.422-0.438-0.594c0.688-0.104,1.269-0.286,1.742-0.547
		c0.167-0.094,0.32-0.195,0.461-0.305c-0.417-0.359-0.808-0.867-1.172-1.523l0.625-0.25c0.177,0.562,0.511,1.026,1,1.391
		c0.109-0.114,0.211-0.229,0.305-0.344c0.276-0.359,0.55-0.833,0.82-1.422h-2.539c-0.229,0-0.458,0.011-0.688,0.031
		c0.021-0.099,0.031-0.203,0.031-0.312C264.246,40.876,264.235,40.771,264.215,40.662z M265.066,37.63
		c0.208,0.021,0.417,0.031,0.625,0.031h1.406c0.208,0,0.417-0.01,0.625-0.031c-0.021,0.188-0.031,0.375-0.031,0.562v1.258
		c0,0.12,0.07,0.18,0.211,0.18c0.401,0,0.755-0.031,1.062-0.094c-0.078,0.224-0.12,0.443-0.125,0.656
		c-0.458,0.021-0.864,0.031-1.219,0.031c-0.328,0-0.492-0.143-0.492-0.43v-1.602h-1.469v0.633c0,0.323-0.089,0.628-0.266,0.914
		c-0.188,0.287-0.445,0.534-0.773,0.742c-0.188-0.156-0.362-0.281-0.523-0.375c0.406-0.188,0.667-0.383,0.781-0.586
		c0.146-0.234,0.219-0.497,0.219-0.789v-0.625C265.098,37.946,265.087,37.787,265.066,37.63z"/>
	<path d="M271.152,39.974c0.292,0.047,0.586,0.07,0.883,0.07h2.969c0.292,0,0.581-0.023,0.867-0.07
		c-0.021,0.109-0.031,0.214-0.031,0.312c0,0.109,0.011,0.214,0.031,0.312c-0.286-0.042-0.575-0.062-0.867-0.062h-1.133v1.344h1.75
		c0.224,0,0.466-0.01,0.727-0.031c-0.021,0.089-0.031,0.175-0.031,0.258c0,0.104,0.011,0.198,0.031,0.281
		c-0.172-0.021-0.414-0.031-0.727-0.031h-1.75v1.68c0.234,0.026,0.503,0.039,0.805,0.039c0.802,0,1.599-0.055,2.391-0.164
		c-0.156,0.219-0.242,0.458-0.258,0.719h-1.82c-0.411,0-0.823-0.029-1.234-0.086c-0.531-0.062-0.956-0.216-1.273-0.461
		c-0.281-0.192-0.589-0.542-0.922-1.047c-0.297,0.662-0.69,1.237-1.18,1.727c-0.188-0.183-0.386-0.308-0.594-0.375
		c0.375-0.302,0.731-0.719,1.07-1.25c0.344-0.557,0.558-1.206,0.641-1.945c0.292,0.104,0.552,0.169,0.781,0.195
		c-0.099,0.177-0.269,0.558-0.508,1.141c0.312,0.464,0.567,0.776,0.766,0.938c0.219,0.208,0.466,0.357,0.742,0.445v-3.375h-1.242
		c-0.297,0-0.591,0.021-0.883,0.062c0.021-0.099,0.031-0.203,0.031-0.312C271.184,40.188,271.173,40.084,271.152,39.974z
		 M273.754,37.482c0.078,0.261,0.167,0.539,0.266,0.836h1.766c0.317,0,0.641-0.01,0.969-0.031c-0.021,0.198-0.031,0.396-0.031,0.594
		c0,0.349,0.011,0.693,0.031,1.031c-0.109-0.021-0.214-0.031-0.312-0.031c-0.12,0-0.234,0.011-0.344,0.031
		c0.021-0.359,0.031-0.721,0.031-1.086h-5.258c0,0.396,0.011,0.792,0.031,1.188c-0.109-0.026-0.224-0.039-0.344-0.039
		c-0.099,0-0.203,0.013-0.312,0.039c0.021-0.354,0.031-0.711,0.031-1.07c0-0.219-0.011-0.438-0.031-0.656
		c0.328,0.021,0.651,0.031,0.969,0.031h2.141c-0.109-0.292-0.216-0.542-0.32-0.75C273.265,37.547,273.504,37.519,273.754,37.482z"/>
	<path d="M279.441,37.482c0.188,0.094,0.417,0.177,0.688,0.25c-0.109,0.109-0.224,0.302-0.344,0.578
		c-0.12,0.271-0.245,0.534-0.375,0.789v4.602c0,0.339,0.021,0.682,0.062,1.031c-0.12-0.021-0.234-0.031-0.344-0.031
		s-0.216,0.01-0.32,0.031c0.042-0.349,0.062-0.692,0.062-1.031v-3.633c-0.208,0.333-0.427,0.659-0.656,0.977
		c-0.125-0.161-0.3-0.299-0.523-0.414c0.479-0.5,0.852-1.021,1.117-1.562C279.126,38.459,279.337,37.93,279.441,37.482z
		 M279.934,38.255c0.276,0.042,0.55,0.062,0.82,0.062h1.211v-0.242c0-0.198-0.021-0.396-0.062-0.594
		c0.192,0.052,0.422,0.081,0.688,0.086c-0.062,0.13-0.094,0.3-0.094,0.508v0.242h1.508c0.271,0,0.539-0.021,0.805-0.062
		c-0.016,0.109-0.023,0.214-0.023,0.312c0,0.099,0.008,0.193,0.023,0.281c-0.266-0.036-0.534-0.055-0.805-0.055h-1.508v0.836h1
		c0.203,0,0.403-0.01,0.602-0.031c-0.021,0.167-0.031,0.336-0.031,0.508v3.969h0.062c0.286,0,0.578-0.021,0.875-0.062
		c-0.026,0.104-0.039,0.206-0.039,0.305c0,0.109,0.013,0.213,0.039,0.312c-0.297-0.042-0.589-0.062-0.875-0.062h-3.602
		c-0.286,0-0.575,0.021-0.867,0.062c0.021-0.099,0.031-0.203,0.031-0.312c0-0.099-0.011-0.201-0.031-0.305
		c0.281,0.042,0.56,0.062,0.836,0.062v-3.969c0-0.172-0.008-0.341-0.023-0.508c0.198,0.021,0.396,0.031,0.594,0.031h0.898v-0.836
		h-1.211c-0.271,0-0.544,0.019-0.82,0.055c0.021-0.088,0.031-0.182,0.031-0.281C279.965,38.469,279.954,38.365,279.934,38.255z
		 M281.035,40.763h2.492v-0.656h-2.492V40.763z M281.035,41.826h2.492v-0.688h-2.492V41.826z M281.035,42.912h2.492v-0.719h-2.492
		V42.912z M281.035,44.076h2.492v-0.789h-2.492V44.076z"/>
</g>
<g>
	<path d="M214.434,245.182c-0.021,0.292-0.031,0.489-0.031,0.594c-1.339,0.203-2.192,0.359-2.562,0.469
		c-0.011-0.188-0.075-0.406-0.195-0.656C212.66,245.495,213.59,245.359,214.434,245.182z M213.09,239.432
		c0.198,0.125,0.427,0.239,0.688,0.344c-0.208,0.317-0.409,0.677-0.602,1.078c-0.214,0.469-0.43,0.862-0.648,1.18
		c0.339-0.094,0.68-0.148,1.023-0.164l0.008,0.008c0.219-0.422,0.352-0.734,0.398-0.938l0.656,0.406
		c-0.172,0.114-0.362,0.352-0.57,0.711c-0.625,1.052-1.058,1.722-1.297,2.008l1.617-0.227c-0.021,0.172-0.031,0.341-0.031,0.508
		c-0.901,0.062-1.672,0.167-2.312,0.312l-0.125-0.688c0.302-0.125,0.539-0.308,0.711-0.547c0.281-0.422,0.513-0.786,0.695-1.094
		c-0.641,0.042-1.117,0.128-1.43,0.258l-0.125-0.648c0.286-0.156,0.528-0.422,0.727-0.797
		C212.649,240.831,212.856,240.26,213.09,239.432z M214.465,240.628c0.286,0.042,0.575,0.062,0.867,0.062h0.82v-0.625
		c0-0.219-0.021-0.438-0.062-0.656c0.208,0.073,0.458,0.112,0.75,0.117c-0.062,0.136-0.094,0.315-0.094,0.539v0.625h1.031
		c0.292,0,0.581-0.021,0.867-0.062c-0.021,0.099-0.031,0.203-0.031,0.312c0,0.104,0.011,0.206,0.031,0.305
		c-0.286-0.042-0.575-0.062-0.867-0.062h-1.031v1.164h0.656c0.292,0,0.581-0.021,0.867-0.062c-0.021,0.099-0.031,0.2-0.031,0.305
		c0,0.109,0.011,0.214,0.031,0.312c-0.286-0.042-0.575-0.062-0.867-0.062h-1.852c-0.286,0-0.578,0.021-0.875,0.062
		c0.021-0.099,0.031-0.203,0.031-0.312c0-0.104-0.011-0.206-0.031-0.305c0.297,0.042,0.589,0.062,0.875,0.062h0.602v-1.164h-0.82
		c-0.292,0-0.581,0.021-0.867,0.062c0.021-0.099,0.031-0.2,0.031-0.305C214.496,240.831,214.485,240.726,214.465,240.628z
		 M214.84,243.526c0.308,0.042,0.62,0.062,0.938,0.062h1.438c0.308,0,0.62-0.021,0.938-0.062c-0.042,0.276-0.062,0.55-0.062,0.82
		v1.594c0,0.302,0.021,0.602,0.062,0.898c-0.177-0.021-0.292-0.031-0.344-0.031c-0.067,0-0.192,0.011-0.375,0.031
		c0.036-0.261,0.055-0.519,0.055-0.773h-1.992c0.005,0.261,0.023,0.519,0.055,0.773c-0.188-0.021-0.31-0.031-0.367-0.031
		s-0.172,0.011-0.344,0.031c0.036-0.297,0.055-0.597,0.055-0.898v-1.594C214.895,244.076,214.876,243.802,214.84,243.526z
		 M215.496,245.557h2v-1.461h-2V245.557z"/>
	<path d="M219.871,240.495c0.286,0.042,0.578,0.062,0.875,0.062h2.242v-0.273c0-0.317-0.021-0.63-0.062-0.938
		c0.198,0.021,0.438,0.031,0.719,0.031c-0.062,0.141-0.094,0.328-0.094,0.562v0.617h2.289c0.286,0,0.575-0.021,0.867-0.062
		c-0.021,0.109-0.031,0.214-0.031,0.312c0,0.109,0.011,0.214,0.031,0.312c-0.292-0.036-0.581-0.055-0.867-0.055h-2.289v0.875h1.289
		c0.339,0,0.683-0.013,1.031-0.039c-0.021,0.177-0.031,0.354-0.031,0.531v1.031c0,0.208,0.011,0.419,0.031,0.633
		c-0.349-0.021-0.692-0.031-1.031-0.031h-0.688c0.308,0.469,0.644,0.839,1.008,1.109c0.375,0.308,0.945,0.539,1.711,0.695
		c-0.239,0.198-0.419,0.406-0.539,0.625c-0.547-0.229-1.042-0.536-1.484-0.922c-0.464-0.391-0.859-0.894-1.188-1.508h-0.109v1.656
		c0,0.364,0.021,0.727,0.062,1.086c-0.109-0.021-0.224-0.031-0.344-0.031c-0.109,0-0.224,0.011-0.344,0.031
		c0.042-0.359,0.062-0.722,0.062-1.086v-1.656h-0.016c-0.511,0.833-1.461,1.664-2.852,2.492c-0.114-0.183-0.305-0.356-0.57-0.523
		c0.667-0.239,1.25-0.555,1.75-0.945c0.406-0.276,0.755-0.617,1.047-1.023h-0.539c-0.349,0-0.692,0.011-1.031,0.031
		c0.021-0.214,0.031-0.425,0.031-0.633v-1.031c-0.021-0.177-0.031-0.354-0.031-0.531c0.339,0.026,0.683,0.039,1.031,0.039h1.18
		v-0.875h-2.242c-0.297,0-0.589,0.019-0.875,0.055c0.016-0.099,0.023-0.203,0.023-0.312
		C219.895,240.709,219.887,240.604,219.871,240.495z M222.988,243.557v-1.125h-1.586v1.125H222.988z M225.238,243.557v-1.125h-1.688
		v1.125H225.238z"/>
	<path d="M229.301,239.409c0.198,0.12,0.481,0.214,0.852,0.281c-0.183,0.229-0.403,0.677-0.664,1.344
		c-0.011,0.021-0.019,0.039-0.023,0.055v4.602c0,0.386,0.021,0.769,0.062,1.148c-0.13-0.021-0.255-0.031-0.375-0.031
		s-0.234,0.011-0.344,0.031c0.042-0.38,0.062-0.763,0.062-1.148v-3.289c-0.224,0.438-0.474,0.867-0.75,1.289
		c-0.12-0.172-0.317-0.331-0.594-0.477c0.526-0.656,0.935-1.312,1.227-1.969C229.004,240.646,229.187,240.034,229.301,239.409z
		 M234.707,241.182c0,0.239,0.034,0.469,0.102,0.688c-0.964,0.12-1.886,0.284-2.766,0.492h-0.008
		c0.058,0.411,0.125,0.808,0.203,1.188c0.183,0.864,0.448,1.521,0.797,1.969c0.292,0.302,0.495,0.453,0.609,0.453
		c0.136,0,0.284-0.367,0.445-1.102c0.146,0.177,0.341,0.315,0.586,0.414c-0.13,0.542-0.25,0.906-0.359,1.094
		c-0.141,0.229-0.3,0.344-0.477,0.344c-0.214,0-0.427-0.078-0.641-0.234c-0.599-0.427-1.039-1.117-1.32-2.07
		c-0.141-0.458-0.263-1.104-0.367-1.938c-0.583,0.136-1.161,0.289-1.734,0.461c0-0.266-0.034-0.508-0.102-0.727
		c0.651-0.083,1.242-0.172,1.773-0.266c-0.083-0.828-0.144-1.695-0.18-2.602c0.292,0.058,0.531,0.086,0.719,0.086
		c-0.062,0.276-0.094,0.547-0.094,0.812c0.005,0.547,0.031,1.075,0.078,1.586c0.073-0.011,0.141-0.023,0.203-0.039
		C233.103,241.615,233.946,241.412,234.707,241.182z M233.152,239.659c0.042,0.067,0.114,0.169,0.219,0.305
		c0.188,0.229,0.344,0.435,0.469,0.617c0.083,0.125,0.167,0.245,0.25,0.359c-0.141,0.036-0.328,0.128-0.562,0.273
		c-0.058-0.156-0.167-0.354-0.328-0.594c-0.177-0.276-0.362-0.503-0.555-0.68C232.848,239.862,233.017,239.768,233.152,239.659z"/>
	<path d="M235.84,239.776c0.297,0.042,0.599,0.062,0.906,0.062h1.148c0.302,0,0.606-0.021,0.914-0.062
		c-0.021,0.12-0.031,0.234-0.031,0.344s0.011,0.214,0.031,0.312c-0.308-0.036-0.612-0.055-0.914-0.055h-0.25
		c-0.141,0.594-0.325,1.151-0.555,1.672v0.016h0.586c0.308,0,0.609-0.011,0.906-0.031c-0.021,0.188-0.031,0.372-0.031,0.555v2.508
		c0,0.167,0.011,0.331,0.031,0.492c-0.089-0.021-0.183-0.031-0.281-0.031s-0.203,0.011-0.312,0.031
		c0.021-0.161,0.031-0.325,0.031-0.492v-0.062h-0.93v0.117c0,0.349,0.021,0.692,0.062,1.031c-0.12-0.021-0.234-0.031-0.344-0.031
		s-0.214,0.011-0.312,0.031c0.036-0.339,0.055-0.683,0.055-1.031v-2.07c-0.214,0.323-0.472,0.669-0.773,1.039
		c-0.067-0.229-0.161-0.438-0.281-0.625c0.364-0.333,0.703-0.808,1.016-1.422c0.261-0.5,0.45-1.065,0.57-1.695h-0.336
		c-0.308,0-0.609,0.019-0.906,0.055c0.021-0.099,0.031-0.203,0.031-0.312S235.86,239.896,235.84,239.776z M237.09,244.557h0.93v-2
		h-0.93V244.557z M238.926,244.526c0.292,0.042,0.586,0.062,0.883,0.062h0.836c0.297,0,0.591-0.021,0.883-0.062
		c-0.021,0.109-0.031,0.214-0.031,0.312c0,0.109,0.011,0.214,0.031,0.312c-0.292-0.036-0.586-0.055-0.883-0.055h-0.836
		c-0.297,0-0.591,0.019-0.883,0.055c0.021-0.099,0.031-0.203,0.031-0.312C238.957,244.74,238.946,244.635,238.926,244.526z
		 M239.152,239.628c0.261,0.042,0.519,0.062,0.773,0.062h1.477c0.271,0,0.542-0.011,0.812-0.031
		c-0.052,0.141-0.091,0.32-0.117,0.539l-0.328,2.898h0.289c0.229,0,0.458-0.011,0.688-0.031c-0.067,0.375-0.104,0.667-0.109,0.875
		l-0.141,1.867c-0.036,0.328-0.133,0.55-0.289,0.664c-0.161,0.136-0.567,0.237-1.219,0.305c-0.036-0.276-0.106-0.534-0.211-0.773
		c0.167,0.021,0.32,0.031,0.461,0.031c0.203,0,0.349-0.028,0.438-0.086c0.136-0.083,0.208-0.203,0.219-0.359l0.164-2h-1.938
		c-0.219,0-0.438,0.023-0.656,0.07c0.042-1.042,0.062-1.823,0.062-2.344c0-0.188-0.011-0.375-0.031-0.562
		c0.208,0.031,0.448,0.05,0.719,0.055c-0.062,0.183-0.106,0.388-0.133,0.617c-0.026,0.188-0.047,0.745-0.062,1.672h1.195
		l0.336-2.914h-1.625c-0.255,0-0.513,0.021-0.773,0.062c0.021-0.099,0.031-0.2,0.031-0.305
		C239.184,239.831,239.173,239.726,239.152,239.628z"/>
</g>
<rect x="210.849" y="208.739" class="st1" width="49.607" height="28.347"/>
<rect x="213.31" y="205.276" class="st2" width="21.041" height="8.509"/>
<g>
	<path d="M220.358,211.823v-3.39c0-0.168,0.016-0.896,0.016-1.432h-0.016l-1.615,4.821h-0.768l-1.615-4.813h-0.016
		c0,0.527,0.016,1.256,0.016,1.424v3.39h-0.751v-5.741h1.111l1.639,4.854h0.017l1.631-4.854h1.104v5.741H220.358z"/>
	<path d="M224.8,211.975c-2.143,0-2.799-1.783-2.799-3.022s0.656-3.022,2.799-3.022s2.799,1.783,2.799,3.022
		S226.942,211.975,224.8,211.975z M224.8,206.618c-1.247,0-1.999,0.983-1.999,2.335c0,1.351,0.752,2.334,1.999,2.334
		s1.999-0.983,1.999-2.334C226.799,207.601,226.047,206.618,224.8,206.618z"/>
	<path d="M231.816,206.082h0.871l-2.095,5.741h-0.823l-2.095-5.741h0.863l1.639,4.894h0.017L231.816,206.082z"/>
</g>
<g>
	<path d="M227.769,220.885h2.327c1.495,0,2.414,1.136,2.414,2.791c0,1.287-0.56,2.95-2.446,2.95h-2.295V220.885z M228.544,225.962
		h1.504c1.007,0,1.663-0.791,1.663-2.238s-0.664-2.175-1.72-2.175h-1.447V225.962z"/>
	<path d="M238.23,226.627v-3.391c0-0.167,0.016-0.895,0.016-1.431h-0.016l-1.615,4.821h-0.768l-1.615-4.813h-0.016
		c0,0.528,0.016,1.256,0.016,1.423v3.391h-0.751v-5.741h1.111l1.639,4.854h0.017l1.631-4.854h1.104v5.741H238.23z"/>
	<path d="M242.431,226.627h-0.751v-3.99h-1.312v-0.56c0.911-0.063,1.287-0.151,1.511-1.071h0.552V226.627z"/>
</g>
<rect x="260.456" y="208.739" class="st1" width="49.607" height="28.347"/>
<g>
	<path d="M281.873,226.627h-4.237v-5.741h4.182v0.688h-3.406v1.759h3.143v0.688h-3.143v1.919h3.462V226.627z"/>
	<path d="M287.617,226.627v-3.391c0-0.167,0.016-0.895,0.016-1.431h-0.016l-1.615,4.821h-0.768l-1.615-4.813h-0.016
		c0,0.528,0.016,1.256,0.016,1.423v3.391h-0.751v-5.741h1.111l1.639,4.854h0.017l1.631-4.854h1.104v5.741H287.617z"/>
	<path d="M291.171,226.779c-1.615,0-1.927-1.72-1.927-2.887c0-1.168,0.312-2.887,1.927-2.887s1.927,1.719,1.927,2.887
		C293.098,225.059,292.786,226.779,291.171,226.779z M291.171,221.637c-0.808,0-1.175,0.848-1.175,2.255s0.367,2.255,1.175,2.255
		s1.176-0.848,1.176-2.255S291.979,221.637,291.171,221.637z"/>
</g>
<g>
	<path d="M14.425,155.722h2.327c1.496,0,2.415,1.136,2.415,2.791c0,1.287-0.56,2.95-2.447,2.95h-2.295V155.722z M15.201,160.799
		h1.503c1.008,0,1.663-0.791,1.663-2.238s-0.664-2.175-1.719-2.175h-1.447V160.799z"/>
	<path d="M24.887,161.463v-3.39c0-0.168,0.016-0.896,0.016-1.432h-0.016l-1.615,4.821h-0.768l-1.615-4.813h-0.016
		c0,0.527,0.016,1.256,0.016,1.424v3.39h-0.752v-5.741h1.112l1.639,4.854h0.016l1.631-4.854h1.103v5.741H24.887z"/>
	<path d="M28.441,161.616c-1.615,0-1.927-1.72-1.927-2.887s0.312-2.887,1.927-2.887s1.927,1.72,1.927,2.887
		S30.056,161.616,28.441,161.616z M28.441,156.474c-0.808,0-1.175,0.848-1.175,2.255s0.368,2.255,1.175,2.255
		s1.175-0.848,1.175-2.255S29.248,156.474,28.441,156.474z"/>
	<path d="M32.193,161.463h-0.832v-0.848h0.832V161.463z"/>
	<path d="M35.112,161.616c-1.615,0-1.927-1.72-1.927-2.887s0.312-2.887,1.927-2.887s1.927,1.72,1.927,2.887
		S36.728,161.616,35.112,161.616z M35.112,156.474c-0.808,0-1.175,0.848-1.175,2.255s0.368,2.255,1.175,2.255
		s1.175-0.848,1.175-2.255S35.92,156.474,35.112,156.474z"/>
</g>
<g>
	<path d="M71.574,177.37c0.297,0.042,0.591,0.062,0.883,0.062h0.281v-1.133c0-0.161-0.011-0.325-0.031-0.492
		c0.198,0.021,0.417,0.031,0.656,0.031c-0.068,0.151-0.102,0.328-0.102,0.531v1.062h0.031c0.297,0,0.591-0.021,0.883-0.062
		c-0.021,0.104-0.031,0.206-0.031,0.305c0,0.109,0.01,0.214,0.031,0.312c-0.292-0.042-0.586-0.062-0.883-0.062h-0.031v1.719
		c0.323-0.136,0.627-0.281,0.914-0.438c-0.021,0.302-0.031,0.513-0.031,0.633c-0.328,0.109-0.623,0.216-0.883,0.32v2.367
		c0,0.255-0.104,0.425-0.312,0.508c-0.208,0.078-0.508,0.117-0.898,0.117c-0.058-0.25-0.162-0.458-0.312-0.625h0.438
		c0.375,0,0.562-0.097,0.562-0.289v-1.859c-0.526,0.219-0.894,0.401-1.102,0.547c-0.011-0.198-0.07-0.427-0.18-0.688
		c0.448-0.104,0.875-0.231,1.281-0.383v-1.93h-0.281c-0.292,0-0.586,0.021-0.883,0.062c0.021-0.099,0.031-0.203,0.031-0.312
		C71.606,177.576,71.595,177.474,71.574,177.37z M75.426,175.807c0.177,0.036,0.406,0.055,0.688,0.055
		c-0.089,0.312-0.133,0.675-0.133,1.086v0.453h0.789c0.297,0,0.596-0.023,0.898-0.07c-0.042,0.198-0.062,0.396-0.062,0.594
		c0,1.953,0.057,3.141,0.172,3.562c0.125,0.542,0.227,0.812,0.305,0.812c0.036-0.094,0.086-0.438,0.148-1.031
		c0.172,0.219,0.372,0.378,0.602,0.477c-0.219,0.917-0.409,1.375-0.57,1.375c-0.183-0.016-0.375-0.161-0.578-0.438
		c-0.203-0.297-0.359-0.714-0.469-1.25c-0.109-0.636-0.164-1.805-0.164-3.508h-1.07v0.164c0,0.859-0.039,1.575-0.117,2.148
		c0.25,0.188,0.508,0.378,0.773,0.57c-0.193,0.183-0.328,0.356-0.406,0.523c-0.167-0.161-0.326-0.312-0.477-0.453
		c-0.062,0.229-0.128,0.425-0.195,0.586c-0.292,0.641-0.794,1.214-1.508,1.719c-0.13-0.192-0.3-0.339-0.508-0.438
		c0.812-0.516,1.344-1.058,1.594-1.625c0.067-0.167,0.125-0.37,0.172-0.609c-0.328-0.266-0.656-0.5-0.984-0.703
		c0.161-0.136,0.299-0.281,0.414-0.438c0.213,0.167,0.438,0.339,0.672,0.516c0.052-0.5,0.078-1.099,0.078-1.797v-0.164h-0.289
		c-0.266,0-0.534,0.021-0.805,0.062c0.021-0.109,0.031-0.224,0.031-0.344c0-0.099-0.011-0.203-0.031-0.312
		c0.271,0.047,0.539,0.07,0.805,0.07h0.289v-0.164C75.488,176.815,75.467,176.338,75.426,175.807z"/>
	<path d="M81.262,175.893c0.198,0.104,0.438,0.19,0.719,0.258c-0.109,0.067-0.232,0.192-0.367,0.375
		c-0.453,0.641-1.008,1.231-1.664,1.773c-0.13-0.156-0.315-0.292-0.555-0.406c0.516-0.312,0.917-0.644,1.203-0.992
		C80.936,176.515,81.157,176.179,81.262,175.893z M81.668,177.526c0.224,0.141,0.466,0.234,0.727,0.281
		c-0.172,0.099-0.357,0.308-0.555,0.625c-0.13,0.239-0.279,0.469-0.445,0.688v2.938c0,0.391,0.021,0.784,0.062,1.18
		c-0.13-0.021-0.255-0.031-0.375-0.031c-0.13,0-0.255,0.011-0.375,0.031c0.042-0.396,0.062-0.789,0.062-1.18v-2.219
		c-0.276,0.281-0.589,0.56-0.938,0.836c-0.094-0.229-0.208-0.414-0.344-0.555c0.583-0.37,1.047-0.761,1.391-1.172
		C81.233,178.542,81.496,178.068,81.668,177.526z M82.457,178.401c0.338,0.042,0.682,0.062,1.031,0.062h2.344
		c0.344,0,0.685-0.021,1.023-0.062c-0.016,0.12-0.023,0.245-0.023,0.375c0,0.109,0.008,0.224,0.023,0.344
		c-0.339-0.042-0.68-0.062-1.023-0.062h-0.539v3.719c0,0.172-0.097,0.297-0.289,0.375c-0.177,0.078-0.539,0.117-1.086,0.117
		c-0.011-0.266-0.094-0.505-0.25-0.719c0.328,0.042,0.581,0.062,0.758,0.062c0.156,0,0.237-0.06,0.242-0.18v-3.375h-1.18
		c-0.349,0-0.693,0.021-1.031,0.062c0.021-0.12,0.031-0.234,0.031-0.344C82.488,178.646,82.478,178.521,82.457,178.401z
		 M82.918,176.268c0.349,0.042,0.692,0.062,1.031,0.062h1.312c0.349,0,0.692-0.021,1.031-0.062c-0.021,0.13-0.031,0.255-0.031,0.375
		s0.01,0.234,0.031,0.344c-0.339-0.042-0.683-0.062-1.031-0.062h-1.312c-0.339,0-0.683,0.021-1.031,0.062
		c0.021-0.109,0.031-0.224,0.031-0.344S82.939,176.398,82.918,176.268z"/>
	<path d="M89.199,176.151c0.192,0.083,0.442,0.144,0.75,0.18c-0.115,0.141-0.263,0.409-0.445,0.805
		c-0.042,0.109-0.086,0.219-0.133,0.328h1.516v-0.367c0-0.406,0.021-0.836,0.062-1.289c0.224,0.021,0.463,0.031,0.719,0.031
		c-0.083,0.239-0.125,0.547-0.125,0.922v0.703h1.633c0.25,0,0.518-0.011,0.805-0.031c-0.021,0.099-0.031,0.192-0.031,0.281
		c0,0.114,0.01,0.216,0.031,0.305c-0.188-0.021-0.456-0.031-0.805-0.031h-1.633v0.055c-0.016,0.521-0.052,0.984-0.109,1.391h2.273
		c0.302,0,0.602-0.021,0.898-0.062c-0.021,0.109-0.031,0.224-0.031,0.344c0,0.099,0.01,0.2,0.031,0.305
		c-0.297-0.042-0.597-0.062-0.898-0.062h-1.922c0.239,0.708,0.523,1.222,0.852,1.539c0.474,0.422,1.164,0.745,2.07,0.969
		c-0.24,0.177-0.427,0.386-0.562,0.625c-0.984-0.396-1.667-0.841-2.047-1.336c-0.276-0.349-0.539-0.909-0.789-1.68
		c-0.099,0.417-0.224,0.755-0.375,1.016c-0.391,0.823-1.32,1.511-2.789,2.062c-0.125-0.198-0.305-0.367-0.539-0.508
		c1.292-0.359,2.125-0.828,2.5-1.406c0.25-0.354,0.435-0.781,0.555-1.281h-1.992c-0.302,0-0.602,0.021-0.898,0.062
		c0.021-0.104,0.031-0.206,0.031-0.305c0-0.12-0.011-0.234-0.031-0.344c0.297,0.042,0.596,0.062,0.898,0.062h2.109
		c0.073-0.422,0.109-0.886,0.109-1.391v-0.055h-1.758c-0.203,0.422-0.417,0.81-0.641,1.164c-0.183-0.172-0.383-0.269-0.602-0.289
		c0.307-0.349,0.591-0.797,0.852-1.344C88.967,177.034,89.121,176.578,89.199,176.151z"/>
	<path d="M97.082,177.495c0.224,0.058,0.474,0.086,0.75,0.086c-0.083,0.214-0.125,0.766-0.125,1.656
		c0,1.161-0.141,1.956-0.422,2.383c-0.318,0.489-0.74,0.903-1.266,1.242c-0.203-0.13-0.412-0.234-0.625-0.312
		c0.828-0.479,1.346-1.044,1.555-1.695c0.151-0.386,0.227-0.925,0.227-1.617C97.176,178.523,97.145,177.943,97.082,177.495z
		 M95.949,176.299c0.307,0.047,0.609,0.07,0.906,0.07h1.164c0.302,0,0.602-0.023,0.898-0.07c-0.042,0.276-0.062,0.55-0.062,0.82
		v1.398c0.338-0.401,0.604-0.815,0.797-1.242c0.229-0.495,0.383-0.925,0.461-1.289c0.188,0.104,0.417,0.188,0.688,0.25
		c-0.089,0.094-0.177,0.255-0.266,0.484c-0.104,0.271-0.219,0.528-0.344,0.773h1.609c0.239,0,0.497-0.011,0.773-0.031
		c-0.021,0.099-0.031,0.192-0.031,0.281c0,0.104,0.01,0.195,0.031,0.273c-0.188-0.021-0.445-0.031-0.773-0.031h-0.039
		c-0.021,0.901-0.12,1.659-0.297,2.273c-0.141,0.458-0.32,0.856-0.539,1.195c0.01,0.016,0.021,0.028,0.031,0.039
		c0.469,0.521,1.094,0.894,1.875,1.117c-0.198,0.167-0.367,0.356-0.508,0.57c-0.787-0.464-1.352-0.901-1.695-1.312
		c-0.094,0.12-0.198,0.229-0.312,0.328c-0.438,0.417-0.974,0.753-1.609,1.008c-0.172-0.25-0.349-0.438-0.531-0.562
		c0.547-0.151,1.042-0.38,1.484-0.688c0.239-0.172,0.445-0.364,0.617-0.578c-0.287-0.474-0.57-1.144-0.852-2.008
		c0.177,0,0.362-0.034,0.555-0.102c0.156,0.667,0.356,1.222,0.602,1.664c0.047-0.089,0.091-0.172,0.133-0.25
		c0.188-0.375,0.323-0.847,0.406-1.414c0.047-0.406,0.073-0.833,0.078-1.281h-1.258c-0.183,0.339-0.375,0.661-0.578,0.969
		c-0.125-0.151-0.294-0.281-0.508-0.391v1.422c0,0.297,0.021,0.589,0.062,0.875c-0.172-0.016-0.287-0.023-0.344-0.023
		c-0.052,0-0.167,0.008-0.344,0.023c0.042-0.286,0.062-0.578,0.062-0.875v-3.125h-1.719v3.156c0,0.297,0.021,0.589,0.062,0.875
		c-0.167-0.021-0.281-0.031-0.344-0.031c-0.058,0-0.172,0.011-0.344,0.031c0.047-0.286,0.07-0.578,0.07-0.875v-2.898
		C96.02,176.849,95.996,176.576,95.949,176.299z M97.887,180.862c0.328,0.219,0.716,0.523,1.164,0.914
		c-0.193,0.172-0.331,0.325-0.414,0.461c-0.271-0.37-0.625-0.692-1.062-0.969C97.684,181.185,97.788,181.049,97.887,180.862z"/>
	<path d="M103.64,182.401v-5.741h0.704v2.087h0.016c0.304-0.439,0.72-0.64,1.208-0.647c1.111,0,1.743,0.912,1.743,2.087
		c0,0.999-0.416,2.335-1.839,2.335c-0.712,0-1.008-0.408-1.151-0.64h-0.016v0.52H103.64z M105.439,178.731
		c-1.015,0-1.127,1.096-1.127,1.775c0,1.111,0.696,1.407,1.144,1.407c0.768,0,1.127-0.696,1.127-1.615
		C106.582,179.762,106.526,178.731,105.439,178.731z"/>
	<path d="M108.159,177.46v-0.8h0.704v0.8H108.159z M108.863,182.401h-0.704v-4.182h0.704V182.401z"/>
	<path d="M110.783,178.803v2.718c0,0.328,0.28,0.328,0.424,0.328h0.248v0.552c-0.256,0.024-0.456,0.056-0.527,0.056
		c-0.696,0-0.848-0.392-0.848-0.896v-2.758h-0.568v-0.584h0.568v-1.167h0.704v1.167h0.671v0.584H110.783z"/>
</g>
<g>
	<path d="M18.472,183.382c-0.021,0.292-0.031,0.489-0.031,0.594c-1.339,0.203-2.193,0.359-2.563,0.469
		c-0.011-0.188-0.076-0.406-0.195-0.656C16.699,183.695,17.628,183.559,18.472,183.382z M17.128,177.632
		c0.198,0.125,0.427,0.239,0.688,0.344c-0.208,0.317-0.409,0.677-0.602,1.078c-0.214,0.469-0.43,0.862-0.648,1.18
		c0.338-0.094,0.68-0.148,1.023-0.164l0.008,0.008c0.219-0.422,0.352-0.734,0.398-0.938l0.656,0.406
		c-0.172,0.114-0.362,0.352-0.57,0.711c-0.625,1.052-1.058,1.722-1.297,2.008l1.617-0.227c-0.021,0.172-0.031,0.341-0.031,0.508
		c-0.901,0.062-1.672,0.167-2.312,0.312l-0.125-0.688c0.302-0.125,0.539-0.308,0.711-0.547c0.281-0.422,0.513-0.786,0.695-1.094
		c-0.641,0.042-1.117,0.128-1.43,0.258l-0.125-0.648c0.286-0.156,0.528-0.422,0.727-0.797
		C16.688,179.031,16.894,178.461,17.128,177.632z M18.503,178.828c0.286,0.042,0.575,0.062,0.867,0.062h0.82v-0.625
		c0-0.219-0.021-0.438-0.062-0.656c0.208,0.073,0.458,0.112,0.75,0.117c-0.062,0.136-0.094,0.315-0.094,0.539v0.625h1.031
		c0.292,0,0.581-0.021,0.867-0.062c-0.021,0.099-0.031,0.203-0.031,0.312c0,0.104,0.01,0.206,0.031,0.305
		c-0.287-0.042-0.576-0.062-0.867-0.062h-1.031v1.164h0.656c0.292,0,0.581-0.021,0.867-0.062c-0.021,0.099-0.031,0.2-0.031,0.305
		c0,0.109,0.01,0.214,0.031,0.312c-0.287-0.042-0.576-0.062-0.867-0.062h-1.852c-0.287,0-0.578,0.021-0.875,0.062
		c0.021-0.099,0.031-0.203,0.031-0.312c0-0.104-0.011-0.206-0.031-0.305c0.297,0.042,0.588,0.062,0.875,0.062h0.602v-1.164h-0.82
		c-0.292,0-0.581,0.021-0.867,0.062c0.021-0.099,0.031-0.2,0.031-0.305C18.535,179.031,18.524,178.926,18.503,178.828z
		 M18.878,181.726c0.307,0.042,0.62,0.062,0.938,0.062h1.438c0.307,0,0.62-0.021,0.938-0.062c-0.042,0.276-0.062,0.55-0.062,0.82
		v1.594c0,0.302,0.021,0.602,0.062,0.898c-0.177-0.021-0.292-0.031-0.344-0.031c-0.068,0-0.193,0.011-0.375,0.031
		c0.036-0.261,0.055-0.519,0.055-0.773h-1.992c0.005,0.261,0.023,0.519,0.055,0.773c-0.188-0.021-0.31-0.031-0.367-0.031
		c-0.058,0-0.172,0.011-0.344,0.031c0.036-0.297,0.055-0.597,0.055-0.898v-1.594C18.933,182.276,18.915,182.003,18.878,181.726z
		 M19.535,183.757h2v-1.461h-2V183.757z"/>
	<path d="M23.91,178.695c0.286,0.042,0.578,0.062,0.875,0.062h2.242v-0.273c0-0.317-0.021-0.63-0.062-0.938
		c0.198,0.021,0.438,0.031,0.719,0.031c-0.062,0.141-0.094,0.328-0.094,0.562v0.617h2.289c0.286,0,0.575-0.021,0.867-0.062
		c-0.021,0.109-0.031,0.214-0.031,0.312c0,0.109,0.01,0.214,0.031,0.312c-0.292-0.036-0.581-0.055-0.867-0.055h-2.289v0.875h1.289
		c0.338,0,0.682-0.013,1.031-0.039c-0.021,0.177-0.031,0.354-0.031,0.531v1.031c0,0.208,0.01,0.419,0.031,0.633
		c-0.349-0.021-0.693-0.031-1.031-0.031h-0.688c0.307,0.469,0.643,0.839,1.008,1.109c0.375,0.308,0.945,0.539,1.711,0.695
		c-0.24,0.198-0.419,0.406-0.539,0.625c-0.547-0.229-1.042-0.536-1.484-0.922c-0.464-0.391-0.859-0.894-1.188-1.508h-0.109v1.656
		c0,0.364,0.021,0.727,0.062,1.086c-0.109-0.021-0.224-0.031-0.344-0.031c-0.109,0-0.224,0.011-0.344,0.031
		c0.042-0.359,0.062-0.722,0.062-1.086v-1.656h-0.016c-0.511,0.833-1.461,1.664-2.852,2.492c-0.115-0.183-0.305-0.356-0.57-0.523
		c0.667-0.239,1.25-0.555,1.75-0.945c0.406-0.276,0.755-0.617,1.047-1.023h-0.539c-0.349,0-0.693,0.011-1.031,0.031
		c0.021-0.214,0.031-0.425,0.031-0.633v-1.031c-0.021-0.177-0.031-0.354-0.031-0.531c0.338,0.026,0.682,0.039,1.031,0.039h1.18
		v-0.875h-2.242c-0.297,0-0.589,0.019-0.875,0.055c0.016-0.099,0.023-0.203,0.023-0.312
		C23.933,178.909,23.925,178.804,23.91,178.695z M27.027,181.757v-1.125h-1.586v1.125H27.027z M29.277,181.757v-1.125h-1.688v1.125
		H29.277z"/>
	<path d="M31.717,184.171v-5.741h0.704v2.087h0.016c0.304-0.439,0.719-0.64,1.207-0.647c1.111,0,1.743,0.911,1.743,2.087
		c0,1-0.416,2.335-1.839,2.335c-0.712,0-1.008-0.408-1.151-0.64h-0.016v0.52H31.717z M33.516,180.502
		c-1.016,0-1.127,1.096-1.127,1.775c0,1.111,0.696,1.407,1.144,1.407c0.768,0,1.127-0.696,1.127-1.615
		C34.66,181.533,34.604,180.502,33.516,180.502z"/>
	<path d="M36.237,179.23v-0.8h0.704v0.8H36.237z M36.941,184.171h-0.704v-4.182h0.704V184.171z"/>
	<path d="M38.86,180.574v2.718c0,0.328,0.28,0.328,0.424,0.328h0.248v0.552c-0.256,0.024-0.456,0.056-0.527,0.056
		c-0.696,0-0.848-0.392-0.848-0.896v-2.758h-0.568v-0.584h0.568v-1.167h0.704v1.167h0.671v0.584H38.86z"/>
</g>
<g>
	<path d="M77.106,155.722h2.327c1.496,0,2.415,1.136,2.415,2.791c0,1.287-0.56,2.95-2.447,2.95h-2.295V155.722z M77.882,160.799
		h1.503c1.008,0,1.663-0.791,1.663-2.238s-0.664-2.175-1.719-2.175h-1.447V160.799z"/>
	<path d="M87.567,161.463v-3.39c0-0.168,0.016-0.896,0.016-1.432h-0.016l-1.615,4.821h-0.768l-1.615-4.813h-0.016
		c0,0.527,0.016,1.256,0.016,1.424v3.39h-0.752v-5.741h1.112l1.639,4.854h0.016l1.631-4.854h1.103v5.741H87.567z"/>
	<path d="M91.121,161.616c-1.615,0-1.927-1.72-1.927-2.887s0.312-2.887,1.927-2.887s1.927,1.72,1.927,2.887
		S92.736,161.616,91.121,161.616z M91.121,156.474c-0.808,0-1.175,0.848-1.175,2.255s0.368,2.255,1.175,2.255
		s1.175-0.848,1.175-2.255S91.929,156.474,91.121,156.474z"/>
	<path d="M94.874,161.463h-0.832v-0.848h0.832V161.463z"/>
	<path d="M98.441,161.463h-0.752v-3.99h-1.311v-0.56c0.912-0.063,1.287-0.151,1.511-1.071h0.552V161.463z"/>
</g>
<g>
	<g>
		<rect x="84.729" y="163.754" class="st2" width="7.017" height="10.022"/>
		<line class="st0" x1="84.729" y1="173.776" x2="84.729" y2="163.754"/>
		<line class="st0" x1="91.746" y1="163.754" x2="91.746" y2="173.776"/>
	</g>
	<g>
		<line class="st3" x1="88.264" y1="175.905" x2="88.264" y2="169.249"/>
		<path class="st3" d="M87.671,166.393c-0.29,0.962-0.559,1.589-0.869,2.361h2.94c-0.133-0.276-0.58-1.399-0.869-2.361
			c-0.312-1.03-0.525-1.965-0.601-2.571C88.194,164.428,87.984,165.363,87.671,166.393z"/>
	</g>
	<line class="st4" x1="81.223" y1="173.776" x2="95.253" y2="163.754"/>
</g>
<g>
	<line class="st3" x1="18.543" y1="173.776" x2="32.573" y2="163.754"/>
	<g>
		<rect x="22.049" y="163.754" class="st2" width="7.016" height="10.022"/>
		<line class="st0" x1="22.049" y1="173.776" x2="22.049" y2="163.754"/>
		<line class="st0" x1="29.066" y1="163.754" x2="29.066" y2="173.776"/>
	</g>
	<g>
		<line class="st0" x1="25.584" y1="175.905" x2="25.584" y2="169.249"/>
		<path d="M24.991,166.393c-0.291,0.962-0.559,1.589-0.869,2.361h2.939c-0.133-0.276-0.58-1.399-0.869-2.361
			c-0.312-1.03-0.525-1.965-0.601-2.571C25.514,164.428,25.304,165.363,24.991,166.393z"/>
	</g>
</g>
<g>
	<path d="M71.574,231.969c0.297,0.042,0.591,0.062,0.883,0.062h0.281v-1.133c0-0.161-0.011-0.325-0.031-0.492
		c0.198,0.021,0.417,0.031,0.656,0.031c-0.068,0.151-0.102,0.328-0.102,0.531v1.062h0.031c0.297,0,0.591-0.021,0.883-0.062
		c-0.021,0.104-0.031,0.206-0.031,0.305c0,0.109,0.01,0.214,0.031,0.312c-0.292-0.042-0.586-0.062-0.883-0.062h-0.031v1.719
		c0.323-0.136,0.627-0.281,0.914-0.438c-0.021,0.302-0.031,0.513-0.031,0.633c-0.328,0.109-0.623,0.216-0.883,0.32v2.367
		c0,0.255-0.104,0.425-0.312,0.508c-0.208,0.078-0.508,0.117-0.898,0.117c-0.058-0.25-0.162-0.458-0.312-0.625h0.438
		c0.375,0,0.562-0.097,0.562-0.289v-1.859c-0.526,0.219-0.894,0.401-1.102,0.547c-0.011-0.198-0.07-0.427-0.18-0.688
		c0.448-0.104,0.875-0.231,1.281-0.383v-1.93h-0.281c-0.292,0-0.586,0.021-0.883,0.062c0.021-0.099,0.031-0.203,0.031-0.312
		C71.606,232.175,71.595,232.074,71.574,231.969z M75.426,230.407c0.177,0.036,0.406,0.055,0.688,0.055
		c-0.089,0.312-0.133,0.675-0.133,1.086v0.453h0.789c0.297,0,0.596-0.023,0.898-0.07c-0.042,0.198-0.062,0.396-0.062,0.594
		c0,1.953,0.057,3.141,0.172,3.562c0.125,0.542,0.227,0.812,0.305,0.812c0.036-0.094,0.086-0.438,0.148-1.031
		c0.172,0.219,0.372,0.378,0.602,0.477c-0.219,0.917-0.409,1.375-0.57,1.375c-0.183-0.016-0.375-0.161-0.578-0.438
		c-0.203-0.297-0.359-0.714-0.469-1.25c-0.109-0.636-0.164-1.805-0.164-3.508h-1.07v0.164c0,0.859-0.039,1.575-0.117,2.148
		c0.25,0.188,0.508,0.378,0.773,0.57c-0.193,0.183-0.328,0.356-0.406,0.523c-0.167-0.161-0.326-0.312-0.477-0.453
		c-0.062,0.229-0.128,0.425-0.195,0.586c-0.292,0.641-0.794,1.214-1.508,1.719c-0.13-0.192-0.3-0.339-0.508-0.438
		c0.812-0.516,1.344-1.058,1.594-1.625c0.067-0.167,0.125-0.37,0.172-0.609c-0.328-0.266-0.656-0.5-0.984-0.703
		c0.161-0.136,0.299-0.281,0.414-0.438c0.213,0.167,0.438,0.339,0.672,0.516c0.052-0.5,0.078-1.099,0.078-1.797v-0.164h-0.289
		c-0.266,0-0.534,0.021-0.805,0.062c0.021-0.109,0.031-0.224,0.031-0.344c0-0.099-0.011-0.203-0.031-0.312
		c0.271,0.047,0.539,0.07,0.805,0.07h0.289v-0.164C75.488,231.415,75.467,230.938,75.426,230.407z"/>
	<path d="M81.262,230.493c0.198,0.104,0.438,0.19,0.719,0.258c-0.109,0.067-0.232,0.192-0.367,0.375
		c-0.453,0.641-1.008,1.231-1.664,1.773c-0.13-0.156-0.315-0.292-0.555-0.406c0.516-0.312,0.917-0.644,1.203-0.992
		C80.936,231.115,81.157,230.779,81.262,230.493z M81.668,232.126c0.224,0.141,0.466,0.234,0.727,0.281
		c-0.172,0.099-0.357,0.308-0.555,0.625c-0.13,0.239-0.279,0.469-0.445,0.688v2.938c0,0.391,0.021,0.784,0.062,1.18
		c-0.13-0.021-0.255-0.031-0.375-0.031c-0.13,0-0.255,0.011-0.375,0.031c0.042-0.396,0.062-0.789,0.062-1.18v-2.219
		c-0.276,0.281-0.589,0.56-0.938,0.836c-0.094-0.229-0.208-0.414-0.344-0.555c0.583-0.37,1.047-0.761,1.391-1.172
		C81.233,233.141,81.496,232.668,81.668,232.126z M82.457,233.001c0.338,0.042,0.682,0.062,1.031,0.062h2.344
		c0.344,0,0.685-0.021,1.023-0.062c-0.016,0.12-0.023,0.245-0.023,0.375c0,0.109,0.008,0.224,0.023,0.344
		c-0.339-0.042-0.68-0.062-1.023-0.062h-0.539v3.719c0,0.172-0.097,0.297-0.289,0.375c-0.177,0.078-0.539,0.117-1.086,0.117
		c-0.011-0.266-0.094-0.505-0.25-0.719c0.328,0.042,0.581,0.062,0.758,0.062c0.156,0,0.237-0.06,0.242-0.18v-3.375h-1.18
		c-0.349,0-0.693,0.021-1.031,0.062c0.021-0.12,0.031-0.234,0.031-0.344C82.488,233.246,82.478,233.121,82.457,233.001z
		 M82.918,230.868c0.349,0.042,0.692,0.062,1.031,0.062h1.312c0.349,0,0.692-0.021,1.031-0.062c-0.021,0.13-0.031,0.255-0.031,0.375
		s0.01,0.234,0.031,0.344c-0.339-0.042-0.683-0.062-1.031-0.062h-1.312c-0.339,0-0.683,0.021-1.031,0.062
		c0.021-0.109,0.031-0.224,0.031-0.344S82.939,230.998,82.918,230.868z"/>
	<path d="M89.199,230.751c0.192,0.083,0.442,0.144,0.75,0.18c-0.115,0.141-0.263,0.409-0.445,0.805
		c-0.042,0.109-0.086,0.219-0.133,0.328h1.516v-0.367c0-0.406,0.021-0.836,0.062-1.289c0.224,0.021,0.463,0.031,0.719,0.031
		c-0.083,0.239-0.125,0.547-0.125,0.922v0.703h1.633c0.25,0,0.518-0.011,0.805-0.031c-0.021,0.099-0.031,0.192-0.031,0.281
		c0,0.114,0.01,0.216,0.031,0.305c-0.188-0.021-0.456-0.031-0.805-0.031h-1.633v0.055c-0.016,0.521-0.052,0.984-0.109,1.391h2.273
		c0.302,0,0.602-0.021,0.898-0.062c-0.021,0.109-0.031,0.224-0.031,0.344c0,0.099,0.01,0.2,0.031,0.305
		c-0.297-0.042-0.597-0.062-0.898-0.062h-1.922c0.239,0.708,0.523,1.222,0.852,1.539c0.474,0.422,1.164,0.745,2.07,0.969
		c-0.24,0.177-0.427,0.386-0.562,0.625c-0.984-0.396-1.667-0.841-2.047-1.336c-0.276-0.349-0.539-0.909-0.789-1.68
		c-0.099,0.417-0.224,0.755-0.375,1.016c-0.391,0.823-1.32,1.511-2.789,2.062c-0.125-0.198-0.305-0.367-0.539-0.508
		c1.292-0.359,2.125-0.828,2.5-1.406c0.25-0.354,0.435-0.781,0.555-1.281h-1.992c-0.302,0-0.602,0.021-0.898,0.062
		c0.021-0.104,0.031-0.206,0.031-0.305c0-0.12-0.011-0.234-0.031-0.344c0.297,0.042,0.596,0.062,0.898,0.062h2.109
		c0.073-0.422,0.109-0.886,0.109-1.391v-0.055h-1.758c-0.203,0.422-0.417,0.81-0.641,1.164c-0.183-0.172-0.383-0.269-0.602-0.289
		c0.307-0.349,0.591-0.797,0.852-1.344C88.967,231.633,89.121,231.177,89.199,230.751z"/>
	<path d="M97.082,232.094c0.224,0.058,0.474,0.086,0.75,0.086c-0.083,0.214-0.125,0.766-0.125,1.656
		c0,1.161-0.141,1.956-0.422,2.383c-0.318,0.489-0.74,0.903-1.266,1.242c-0.203-0.13-0.412-0.234-0.625-0.312
		c0.828-0.479,1.346-1.044,1.555-1.695c0.151-0.386,0.227-0.925,0.227-1.617C97.176,233.123,97.145,232.543,97.082,232.094z
		 M95.949,230.899c0.307,0.047,0.609,0.07,0.906,0.07h1.164c0.302,0,0.602-0.023,0.898-0.07c-0.042,0.276-0.062,0.55-0.062,0.82
		v1.398c0.338-0.401,0.604-0.815,0.797-1.242c0.229-0.495,0.383-0.925,0.461-1.289c0.188,0.104,0.417,0.188,0.688,0.25
		c-0.089,0.094-0.177,0.255-0.266,0.484c-0.104,0.271-0.219,0.528-0.344,0.773h1.609c0.239,0,0.497-0.011,0.773-0.031
		c-0.021,0.099-0.031,0.192-0.031,0.281c0,0.104,0.01,0.195,0.031,0.273c-0.188-0.021-0.445-0.031-0.773-0.031h-0.039
		c-0.021,0.901-0.12,1.659-0.297,2.273c-0.141,0.458-0.32,0.856-0.539,1.195c0.01,0.016,0.021,0.028,0.031,0.039
		c0.469,0.521,1.094,0.894,1.875,1.117c-0.198,0.167-0.367,0.356-0.508,0.57c-0.787-0.464-1.352-0.901-1.695-1.312
		c-0.094,0.12-0.198,0.229-0.312,0.328c-0.438,0.417-0.974,0.753-1.609,1.008c-0.172-0.25-0.349-0.438-0.531-0.562
		c0.547-0.151,1.042-0.38,1.484-0.688c0.239-0.172,0.445-0.364,0.617-0.578c-0.287-0.474-0.57-1.144-0.852-2.008
		c0.177,0,0.362-0.034,0.555-0.102c0.156,0.667,0.356,1.222,0.602,1.664c0.047-0.089,0.091-0.172,0.133-0.25
		c0.188-0.375,0.323-0.847,0.406-1.414c0.047-0.406,0.073-0.833,0.078-1.281h-1.258c-0.183,0.339-0.375,0.661-0.578,0.969
		c-0.125-0.151-0.294-0.281-0.508-0.391v1.422c0,0.297,0.021,0.589,0.062,0.875c-0.172-0.016-0.287-0.023-0.344-0.023
		c-0.052,0-0.167,0.008-0.344,0.023c0.042-0.286,0.062-0.578,0.062-0.875v-3.125h-1.719v3.156c0,0.297,0.021,0.589,0.062,0.875
		c-0.167-0.021-0.281-0.031-0.344-0.031c-0.058,0-0.172,0.011-0.344,0.031c0.047-0.286,0.07-0.578,0.07-0.875v-2.898
		C96.02,231.449,95.996,231.175,95.949,230.899z M97.887,235.461c0.328,0.219,0.716,0.523,1.164,0.914
		c-0.193,0.172-0.331,0.325-0.414,0.461c-0.271-0.37-0.625-0.692-1.062-0.969C97.684,235.785,97.788,235.649,97.887,235.461z"/>
	<path d="M103.64,237.001v-5.741h0.704v2.087h0.016c0.304-0.439,0.72-0.64,1.208-0.647c1.111,0,1.743,0.912,1.743,2.087
		c0,0.999-0.416,2.335-1.839,2.335c-0.712,0-1.008-0.408-1.151-0.64h-0.016v0.52H103.64z M105.439,233.331
		c-1.015,0-1.127,1.096-1.127,1.775c0,1.111,0.696,1.407,1.144,1.407c0.768,0,1.127-0.696,1.127-1.615
		C106.582,234.362,106.526,233.331,105.439,233.331z"/>
	<path d="M108.159,232.059v-0.8h0.704v0.8H108.159z M108.863,237.001h-0.704v-4.182h0.704V237.001z"/>
	<path d="M110.783,233.403v2.718c0,0.328,0.28,0.328,0.424,0.328h0.248v0.552c-0.256,0.024-0.456,0.056-0.527,0.056
		c-0.696,0-0.848-0.392-0.848-0.896v-2.758h-0.568v-0.584h0.568v-1.167h0.704v1.167h0.671v0.584H110.783z"/>
</g>
<g>
	<path d="M77.106,210.322h2.327c1.496,0,2.415,1.136,2.415,2.791c0,1.287-0.56,2.95-2.447,2.95h-2.295V210.322z M77.882,215.399
		h1.503c1.008,0,1.663-0.791,1.663-2.238s-0.664-2.175-1.719-2.175h-1.447V215.399z"/>
	<path d="M87.567,216.063v-3.39c0-0.168,0.016-0.896,0.016-1.432h-0.016l-1.615,4.821h-0.768l-1.615-4.813h-0.016
		c0,0.527,0.016,1.256,0.016,1.424v3.39h-0.752v-5.741h1.112l1.639,4.854h0.016l1.631-4.854h1.103v5.741H87.567z"/>
	<path d="M91.121,216.215c-1.615,0-1.927-1.72-1.927-2.887s0.312-2.887,1.927-2.887s1.927,1.72,1.927,2.887
		S92.736,216.215,91.121,216.215z M91.121,211.074c-0.808,0-1.175,0.848-1.175,2.255s0.368,2.255,1.175,2.255
		s1.175-0.848,1.175-2.255S91.929,211.074,91.121,211.074z"/>
	<path d="M94.874,216.063h-0.832v-0.848h0.832V216.063z"/>
	<path d="M98.441,216.063h-0.752v-3.99h-1.311v-0.56c0.912-0.063,1.287-0.151,1.511-1.071h0.552V216.063z"/>
</g>
<g>
	<g>
		<rect x="84.729" y="218.353" class="st2" width="7.017" height="10.022"/>
		<line class="st0" x1="84.729" y1="228.375" x2="84.729" y2="218.353"/>
		<line class="st0" x1="91.746" y1="218.353" x2="91.746" y2="228.375"/>
	</g>
	<g>
		<line class="st3" x1="88.264" y1="230.504" x2="88.264" y2="223.849"/>
		<path class="st3" d="M87.671,220.993c-0.29,0.962-0.559,1.589-0.869,2.361h2.94c-0.133-0.276-0.58-1.399-0.869-2.361
			c-0.312-1.03-0.525-1.965-0.601-2.571C88.194,219.027,87.984,219.962,87.671,220.993z"/>
	</g>
	<line class="st3" x1="81.223" y1="228.375" x2="95.253" y2="218.353"/>
</g>
<rect x="210.849" y="6.628" class="st1" width="49.607" height="28.347"/>
<rect x="213.31" y="3.165" class="st2" width="20.756" height="8.509"/>
<g>
	<path d="M229.54,24.515h-0.527l0.231-1.679h-0.999l-0.231,1.679h-0.528l0.232-1.679h-0.824l0.072-0.503h0.823l0.152-1.136h-0.824
		l0.072-0.503h0.824l0.231-1.679h0.536l-0.232,1.679h0.991l0.232-1.679h0.535l-0.231,1.679h0.823l-0.071,0.503h-0.824l-0.16,1.136
		h0.824l-0.072,0.503h-0.823L229.54,24.515z M228.477,21.197l-0.159,1.136h0.999l0.152-1.136H228.477z"/>
	<path d="M232.294,21.245c0.239-0.184,0.583-0.352,1.087-0.352c0.911,0,1.847,0.64,1.847,1.799c0,0.624-0.279,1.975-2.038,1.975
		c-0.736,0-1.68-0.296-1.815-1.551h0.728c0.072,0.656,0.56,0.944,1.191,0.944c0.728,0,1.184-0.584,1.184-1.288
		c0-0.808-0.552-1.247-1.248-1.247c-0.407,0-0.775,0.192-1.039,0.536l-0.607-0.032l0.424-3.014h2.91v0.688h-2.383L232.294,21.245z"
		/>
	<path d="M237.789,24.667c-1.615,0-1.927-1.719-1.927-2.886c0-1.167,0.312-2.887,1.927-2.887s1.927,1.719,1.927,2.887
		C239.716,22.948,239.404,24.667,237.789,24.667z M237.789,19.526c-0.808,0-1.175,0.848-1.175,2.255s0.367,2.255,1.175,2.255
		s1.176-0.848,1.176-2.255S238.597,19.526,237.789,19.526z"/>
	<path d="M242.236,24.667c-1.615,0-1.927-1.719-1.927-2.886c0-1.167,0.312-2.887,1.927-2.887s1.927,1.719,1.927,2.887
		C244.163,22.948,243.852,24.667,242.236,24.667z M242.236,19.526c-0.808,0-1.175,0.848-1.175,2.255s0.367,2.255,1.175,2.255
		s1.176-0.848,1.176-2.255S243.044,19.526,242.236,19.526z"/>
</g>
<rect x="260.456" y="6.628" class="st1" width="49.607" height="28.347"/>
<g>
	<path d="M277.375,18.774h2.327c1.495,0,2.414,1.135,2.414,2.791c0,1.287-0.56,2.95-2.446,2.95h-2.295V18.774z M278.15,23.852h1.504
		c1.007,0,1.663-0.792,1.663-2.239s-0.664-2.175-1.72-2.175h-1.447V23.852z"/>
	<path d="M287.837,24.515v-3.39c0-0.168,0.016-0.896,0.016-1.431h-0.016l-1.615,4.821h-0.768l-1.615-4.813h-0.016
		c0,0.528,0.016,1.255,0.016,1.423v3.39h-0.751v-5.741h1.111l1.639,4.853h0.017l1.631-4.853h1.104v5.741H287.837z"/>
	<path d="M292.525,23.148v1.367h-0.704v-1.367h-2.454v-0.688l2.574-3.566h0.584v3.646h0.823v0.608H292.525z M290.015,22.54h1.807
		v-2.55h-0.016L290.015,22.54z"/>
</g>
<g>
	<path d="M220.358,9.712v-3.39c0-0.168,0.016-0.896,0.016-1.431h-0.016l-1.615,4.821h-0.768l-1.615-4.813h-0.016
		c0,0.528,0.016,1.255,0.016,1.423v3.39h-0.751V3.971h1.111l1.639,4.853h0.017l1.631-4.853h1.104v5.741H220.358z"/>
	<path d="M224.8,9.864c-2.143,0-2.799-1.783-2.799-3.022s0.656-3.022,2.799-3.022s2.799,1.783,2.799,3.022
		S226.942,9.864,224.8,9.864z M224.8,4.507c-1.247,0-1.999,0.983-1.999,2.334c0,1.352,0.752,2.335,1.999,2.335
		s1.999-0.983,1.999-2.335C226.799,5.49,226.047,4.507,224.8,4.507z"/>
	<path d="M231.816,3.971h0.871l-2.095,5.741h-0.823l-2.095-5.741h0.863l1.639,4.893h0.017L231.816,3.971z"/>
</g>
<g>
	<g>
		<g>
			<path d="M277.178,162.795h-0.775v-5.741h2.654c0.943,0,1.887,0.328,1.887,1.544c0,0.847-0.432,1.159-0.8,1.375
				c0.328,0.136,0.656,0.279,0.688,1.079l0.048,1.039c0.009,0.32,0.049,0.44,0.288,0.576v0.128h-0.951
				c-0.112-0.352-0.136-1.224-0.136-1.439c0-0.472-0.096-1.023-1.023-1.023h-1.879V162.795z M277.178,159.669h1.799
				c0.567,0,1.167-0.145,1.167-0.992c0-0.887-0.647-0.959-1.031-0.959h-1.935V159.669z"/>
			<path d="M282.65,159.525c0.239-0.184,0.583-0.352,1.087-0.352c0.911,0,1.847,0.64,1.847,1.799c0,0.624-0.279,1.976-2.038,1.976
				c-0.736,0-1.68-0.296-1.815-1.552h0.728c0.072,0.656,0.56,0.943,1.191,0.943c0.728,0,1.184-0.583,1.184-1.287
				c0-0.808-0.552-1.247-1.247-1.247c-0.408,0-0.776,0.191-1.04,0.535l-0.607-0.031l0.424-3.015h2.91v0.688h-2.383L282.65,159.525z"
				/>
			<path d="M288.145,162.948c-1.615,0-1.927-1.72-1.927-2.887s0.312-2.887,1.927-2.887s1.927,1.72,1.927,2.887
				S289.76,162.948,288.145,162.948z M288.145,157.806c-0.808,0-1.175,0.848-1.175,2.255s0.367,2.255,1.175,2.255
				s1.176-0.848,1.176-2.255S288.952,157.806,288.145,157.806z"/>
			<path d="M292.593,162.948c-1.615,0-1.927-1.72-1.927-2.887s0.312-2.887,1.927-2.887s1.927,1.72,1.927,2.887
				S294.208,162.948,292.593,162.948z M292.593,157.806c-0.808,0-1.175,0.848-1.175,2.255s0.367,2.255,1.175,2.255
				s1.176-0.848,1.176-2.255S293.4,157.806,292.593,157.806z"/>
		</g>
	</g>
	<path class="st1" d="M289.4,168.821c0,2.288-1.854,4.141-4.142,4.141c-2.288,0-4.142-1.853-4.142-4.141
		c0-2.288,1.854-4.143,4.142-4.143C287.545,164.678,289.4,166.533,289.4,168.821z"/>
</g>
</svg>
