<?xml version="1.0" encoding="utf-8"?>
<!-- Generator: Adobe Illustrator 28.2.0, SVG Export Plug-In . SVG Version: 6.00 Build 0)  -->
<svg version="1.1" id="レイヤー_1" xmlns="http://www.w3.org/2000/svg" xmlns:xlink="http://www.w3.org/1999/xlink" x="0px"
	 y="0px" width="319.597px" height="236.724px" viewBox="0 0 319.597 236.724" style="enable-background:new 0 0 319.597 236.724;"
	 xml:space="preserve">
<style type="text/css">
	.st0{fill:none;stroke:#000000;stroke-width:0.7;}
	.st1{fill:#FFFFFF;stroke:#000000;stroke-width:0.7;}
	.st2{fill:#FFFFFF;}
	.st3{fill:none;}
	.st4{fill:none;stroke:#000000;}
</style>
<line class="st0" x1="319.238" y1="167.435" x2="57.068" y2="167.435"/>
<line class="st0" x1="0.451" y1="112.799" x2="319.522" y2="112.799"/>
<polyline class="st0" points="319.238,220.692 57.08,220.692 57.08,113.252 "/>
<line class="st0" x1="0.35" y1="0" x2="0.35" y2="236.724"/>
<line class="st0" x1="319.247" y1="0" x2="319.247" y2="236.724"/>
<line class="st0" x1="0.451" y1="21.378" x2="319.522" y2="21.378"/>
<g>
	<path d="M17.999,14.059v-3.39c0-0.168,0.016-0.896,0.016-1.431h-0.016l-1.615,4.821h-0.768l-1.615-4.813h-0.016
		c0,0.528,0.016,1.255,0.016,1.423v3.39h-0.752V8.318h1.111L16,13.171h0.016l1.631-4.853h1.103v5.741H17.999z"/>
	<path d="M20.809,14.059h-0.775V8.318h2.654c0.944,0,1.887,0.328,1.887,1.543c0,0.848-0.432,1.16-0.799,1.375
		c0.328,0.136,0.655,0.28,0.688,1.079l0.048,1.04c0.008,0.32,0.048,0.44,0.288,0.576v0.128h-0.952
		c-0.112-0.352-0.136-1.223-0.136-1.439c0-0.472-0.096-1.023-1.023-1.023h-1.879V14.059z M20.809,10.932h1.799
		c0.567,0,1.167-0.144,1.167-0.991c0-0.888-0.648-0.959-1.032-0.959h-1.935V10.932z"/>
	<path d="M27.328,14.211c-1.615,0-1.927-1.719-1.927-2.886c0-1.167,0.312-2.887,1.927-2.887s1.927,1.719,1.927,2.887
		C29.255,12.491,28.943,14.211,27.328,14.211z M27.328,9.069c-0.808,0-1.175,0.848-1.175,2.255s0.368,2.255,1.175,2.255
		s1.175-0.848,1.175-2.255S28.136,9.069,27.328,9.069z"/>
	<path d="M31.776,14.211c-1.615,0-1.927-1.719-1.927-2.886c0-1.167,0.312-2.887,1.927-2.887c1.615,0,1.927,1.719,1.927,2.887
		C33.703,12.491,33.391,14.211,31.776,14.211z M31.776,9.069c-0.808,0-1.175,0.848-1.175,2.255s0.368,2.255,1.175,2.255
		s1.175-0.848,1.175-2.255S32.584,9.069,31.776,9.069z"/>
	<path d="M36.224,14.211c-1.615,0-1.927-1.719-1.927-2.886c0-1.167,0.312-2.887,1.927-2.887c1.615,0,1.927,1.719,1.927,2.887
		C38.151,12.491,37.839,14.211,36.224,14.211z M36.224,9.069c-0.808,0-1.175,0.848-1.175,2.255s0.368,2.255,1.175,2.255
		s1.175-0.848,1.175-2.255S37.032,9.069,36.224,9.069z"/>
</g>
<rect x="210.849" y="6.719" class="st1" width="49.607" height="66.615"/>
<g>
	<path d="M233.987,24.607h-0.527l0.231-1.679h-0.999l-0.231,1.679h-0.528l0.232-1.679h-0.824l0.072-0.503h0.823l0.152-1.136h-0.824
		l0.072-0.503h0.824l0.231-1.679h0.536l-0.232,1.679h0.991l0.232-1.679h0.535l-0.231,1.679h0.823l-0.071,0.503h-0.824l-0.16,1.136
		h0.824l-0.072,0.503h-0.823L233.987,24.607z M232.924,21.288l-0.159,1.136h0.999l0.152-1.136H232.924z"/>
	<path d="M238.436,24.607h-0.751v-3.99h-1.312v-0.56c0.911-0.064,1.287-0.152,1.511-1.072h0.552V24.607z"/>
	<path d="M227.769,58.866h2.327c1.495,0,2.414,1.135,2.414,2.791c0,1.287-0.56,2.95-2.446,2.95h-2.295V58.866z M228.544,63.943
		h1.504c1.007,0,1.663-0.792,1.663-2.239s-0.664-2.175-1.72-2.175h-1.447V63.943z"/>
	<path d="M238.23,64.607v-3.39c0-0.168,0.016-0.896,0.016-1.431h-0.016l-1.615,4.821h-0.768l-1.615-4.813h-0.016
		c0,0.528,0.016,1.255,0.016,1.423v3.39h-0.751v-5.741h1.111l1.639,4.853h0.017l1.631-4.853h1.104v5.741H238.23z"/>
	<path d="M241.783,64.758c-1.615,0-1.927-1.719-1.927-2.886c0-1.167,0.312-2.887,1.927-2.887s1.927,1.719,1.927,2.887
		C243.71,63.039,243.399,64.758,241.783,64.758z M241.783,59.617c-0.808,0-1.175,0.848-1.175,2.255s0.367,2.255,1.175,2.255
		s1.176-0.848,1.176-2.255S242.591,59.617,241.783,59.617z"/>
</g>
<rect x="161.242" y="6.719" class="st1" width="49.607" height="66.615"/>
<rect x="163.703" y="3.256" class="st2" width="23.874" height="8.51"/>
<g>
	<path d="M169.489,5.741c-0.04-0.888-0.775-1.167-1.423-1.167c-0.488,0-1.311,0.136-1.311,1.007c0,0.488,0.344,0.647,0.68,0.728
		l1.639,0.376c0.744,0.176,1.304,0.624,1.304,1.535c0,1.359-1.264,1.735-2.247,1.735c-1.063,0-1.479-0.32-1.735-0.552
		c-0.488-0.439-0.584-0.919-0.584-1.455h0.728c0,1.04,0.847,1.343,1.583,1.343c0.56,0,1.503-0.144,1.503-0.967
		c0-0.6-0.28-0.792-1.223-1.016l-1.175-0.272c-0.376-0.088-1.224-0.352-1.224-1.351c0-0.896,0.584-1.775,1.975-1.775
		c2.007,0,2.207,1.199,2.239,1.831H169.489z"/>
	<path d="M174.825,5.741c-0.04-0.888-0.775-1.167-1.423-1.167c-0.488,0-1.311,0.136-1.311,1.007c0,0.488,0.344,0.647,0.68,0.728
		l1.639,0.376c0.744,0.176,1.304,0.624,1.304,1.535c0,1.359-1.264,1.735-2.247,1.735c-1.063,0-1.479-0.32-1.735-0.552
		c-0.488-0.439-0.584-0.919-0.584-1.455h0.728c0,1.04,0.847,1.343,1.583,1.343c0.56,0,1.503-0.144,1.503-0.967
		c0-0.6-0.28-0.792-1.223-1.016l-1.175-0.272c-0.376-0.088-1.224-0.352-1.224-1.351c0-0.896,0.584-1.775,1.975-1.775
		c2.007,0,2.207,1.199,2.239,1.831H174.825z"/>
	<path d="M179.993,4.062h0.871l-2.095,5.741h-0.823l-2.095-5.741h0.863l1.639,4.893h0.017L179.993,4.062z"/>
	<path d="M185.226,5.789c-0.216-1.008-1.056-1.191-1.607-1.191c-1.039,0-1.879,0.768-1.879,2.279c0,1.351,0.479,2.391,1.903,2.391
		c0.503,0,1.375-0.24,1.639-1.575h0.752c-0.32,2.167-2.079,2.263-2.511,2.263c-1.304,0-2.583-0.848-2.583-3.054
		c0-1.767,1.008-2.99,2.679-2.99c1.479,0,2.247,0.919,2.358,1.879H185.226z"/>
</g>
<g>
	<path d="M184.382,24.607h-0.527l0.231-1.679h-0.999l-0.231,1.679h-0.528l0.232-1.679h-0.824l0.072-0.503h0.823l0.152-1.136h-0.824
		l0.072-0.503h0.824l0.231-1.679h0.536l-0.232,1.679h0.991l0.232-1.679h0.535l-0.231,1.679h0.823l-0.071,0.503h-0.824l-0.16,1.136
		h0.824l-0.072,0.503h-0.823L184.382,24.607z M183.318,21.288l-0.159,1.136h0.999l0.152-1.136H183.318z"/>
	<path d="M188.183,24.758c-1.615,0-1.927-1.719-1.927-2.886c0-1.167,0.312-2.887,1.927-2.887s1.927,1.719,1.927,2.887
		C190.109,23.039,189.798,24.758,188.183,24.758z M188.183,19.617c-0.808,0-1.175,0.848-1.175,2.255s0.367,2.255,1.175,2.255
		s1.176-0.848,1.176-2.255S188.99,19.617,188.183,19.617z"/>
	<path d="M182.618,64.607h-0.527l0.231-1.679h-0.999l-0.231,1.679h-0.528l0.232-1.679h-0.824l0.072-0.503h0.823l0.152-1.136h-0.824
		l0.072-0.503h0.824l0.231-1.679h0.536l-0.232,1.679h0.991l0.232-1.679h0.535l-0.231,1.679h0.823l-0.071,0.503h-0.824l-0.16,1.136
		h0.824l-0.072,0.503h-0.823L182.618,64.607z M181.555,61.288l-0.159,1.136h0.999l0.152-1.136H181.555z"/>
	<path d="M187.066,64.607h-0.751v-3.99h-1.312v-0.56c0.911-0.064,1.287-0.152,1.511-1.072h0.552V64.607z"/>
	<path d="M190.595,64.607h-0.751v-3.99h-1.312v-0.56c0.911-0.064,1.287-0.152,1.511-1.072h0.552V64.607z"/>
</g>
<rect x="260.456" y="6.719" class="st1" width="49.607" height="66.615"/>
<g>
	<path d="M283.594,24.607h-0.527l0.231-1.679h-0.999l-0.232,1.679h-0.527l0.232-1.679h-0.824l0.072-0.503h0.823l0.152-1.136h-0.823
		l0.071-0.503h0.823l0.232-1.679h0.535l-0.231,1.679h0.991l0.232-1.679h0.535l-0.231,1.679h0.823l-0.072,0.503h-0.823l-0.16,1.136
		h0.824l-0.072,0.503h-0.823L283.594,24.607z M282.53,21.288l-0.159,1.136h0.999l0.152-1.136H282.53z"/>
	<path d="M288.042,24.607h-0.751v-3.99h-1.312v-0.56c0.911-0.064,1.287-0.152,1.511-1.072h0.552V24.607z"/>
</g>
<g>
	<line class="st3" x1="18.543" y1="26.371" x2="32.573" y2="16.349"/>
	<g>
		<rect x="22.049" y="16.349" class="st2" width="7.016" height="10.021"/>
		<line class="st0" x1="22.049" y1="26.37" x2="22.049" y2="16.349"/>
		<line class="st0" x1="29.066" y1="16.349" x2="29.066" y2="26.37"/>
	</g>
	<g>
		<line class="st3" x1="25.584" y1="28.499" x2="25.584" y2="21.843"/>
		<path class="st3" d="M24.991,18.987c-0.291,0.962-0.559,1.589-0.869,2.361h2.939c-0.133-0.276-0.58-1.399-0.869-2.361
			c-0.312-1.03-0.525-1.965-0.601-2.571C25.514,17.021,25.304,17.957,24.991,18.987z"/>
	</g>
</g>
<g>
	<rect x="270.882" y="204.226" class="st2" width="29.184" height="28.583"/>
	<g>
		<path class="st0" d="M273.738,224.553c-1.609,0-2.913-1.855-2.913-4.141c0-2.288,1.304-4.143,2.913-4.143"/>
		<path class="st0" d="M296.858,216.216c1.607,0,2.91,1.855,2.91,4.141c0,2.288-1.304,4.143-2.91,4.143"/>
	</g>
	<g>
		<g>
			<path d="M277.251,214.748v-3.391c0-0.167,0.016-0.895,0.016-1.431h-0.016l-1.615,4.821h-0.768l-1.615-4.813h-0.016
				c0,0.528,0.016,1.256,0.016,1.423v3.391h-0.751v-5.741h1.111l1.639,4.854h0.017l1.631-4.854h1.104v5.741H277.251z"/>
			<path d="M280.062,214.748h-0.776v-5.741h2.655c0.943,0,1.887,0.328,1.887,1.544c0,0.847-0.432,1.159-0.8,1.375
				c0.328,0.136,0.656,0.279,0.688,1.079l0.049,1.04c0.008,0.319,0.048,0.439,0.287,0.575v0.128H283.1
				c-0.112-0.352-0.136-1.224-0.136-1.439c0-0.472-0.097-1.023-1.023-1.023h-1.879V214.748z M280.062,211.622h1.799
				c0.567,0,1.167-0.145,1.167-0.992c0-0.887-0.647-0.959-1.031-0.959h-1.935V211.622z"/>
			<path d="M286.58,214.9c-1.615,0-1.927-1.72-1.927-2.887c0-1.168,0.312-2.887,1.927-2.887s1.927,1.719,1.927,2.887
				C288.507,213.181,288.195,214.9,286.58,214.9z M286.58,209.759c-0.808,0-1.175,0.848-1.175,2.255s0.367,2.255,1.175,2.255
				s1.176-0.848,1.176-2.255S287.388,209.759,286.58,209.759z"/>
			<path d="M291.028,214.9c-1.615,0-1.927-1.72-1.927-2.887c0-1.168,0.312-2.887,1.927-2.887s1.927,1.719,1.927,2.887
				C292.955,213.181,292.644,214.9,291.028,214.9z M291.028,209.759c-0.808,0-1.175,0.848-1.175,2.255s0.367,2.255,1.175,2.255
				s1.176-0.848,1.176-2.255S291.836,209.759,291.028,209.759z"/>
			<path d="M295.477,214.9c-1.615,0-1.927-1.72-1.927-2.887c0-1.168,0.312-2.887,1.927-2.887s1.927,1.719,1.927,2.887
				C297.403,213.181,297.092,214.9,295.477,214.9z M295.477,209.759c-0.808,0-1.175,0.848-1.175,2.255s0.367,2.255,1.175,2.255
				s1.176-0.848,1.176-2.255S296.284,209.759,295.477,209.759z"/>
		</g>
		<g>
			<path d="M278.066,224.362h-0.776v-5.741h2.655c0.943,0,1.887,0.328,1.887,1.544c0,0.847-0.432,1.159-0.8,1.375
				c0.328,0.136,0.656,0.279,0.688,1.079l0.049,1.039c0.008,0.32,0.048,0.44,0.287,0.576v0.128h-0.951
				c-0.112-0.352-0.136-1.224-0.136-1.439c0-0.472-0.097-1.023-1.023-1.023h-1.879V224.362z M278.066,221.236h1.799
				c0.567,0,1.167-0.145,1.167-0.992c0-0.887-0.647-0.959-1.031-0.959h-1.935V221.236z"/>
			<path d="M287.287,224.362h-4.238v-5.741h4.182v0.688h-3.406v1.76h3.143v0.688h-3.143v1.919h3.463V224.362z"/>
			<path d="M291.767,220.301c-0.04-0.888-0.775-1.168-1.423-1.168c-0.487,0-1.312,0.137-1.312,1.008c0,0.487,0.344,0.647,0.68,0.728
				l1.64,0.376c0.743,0.176,1.303,0.623,1.303,1.535c0,1.359-1.263,1.735-2.246,1.735c-1.063,0-1.479-0.32-1.735-0.552
				c-0.488-0.44-0.584-0.92-0.584-1.455h0.728c0,1.039,0.848,1.343,1.583,1.343c0.56,0,1.504-0.144,1.504-0.968
				c0-0.6-0.28-0.791-1.224-1.016l-1.176-0.271c-0.375-0.088-1.223-0.352-1.223-1.352c0-0.896,0.583-1.774,1.975-1.774
				c2.007,0,2.207,1.199,2.238,1.831H291.767z"/>
		</g>
	</g>
</g>
<g>
	<path d="M211.84,76.506c0.297,0.036,0.599,0.055,0.906,0.055h1.367c0.141-0.339,0.278-0.7,0.414-1.086
		c0.255,0.104,0.503,0.175,0.742,0.211c-0.136,0.146-0.323,0.438-0.562,0.875h3.133c0.297,0,0.599-0.019,0.906-0.055
		c-0.026,0.109-0.039,0.224-0.039,0.344c0,0.099,0.013,0.203,0.039,0.312c-0.308-0.042-0.609-0.062-0.906-0.062h-3.391
		c-0.271,0.552-0.55,1.047-0.836,1.484v3.266c0,0.339,0.021,0.683,0.062,1.031c-0.109-0.021-0.224-0.031-0.344-0.031
		c-0.099,0-0.203,0.011-0.312,0.031c0.047-0.349,0.07-0.692,0.07-1.031v-2.547c-0.308,0.396-0.62,0.766-0.938,1.109
		c-0.167-0.141-0.386-0.255-0.656-0.344c0.578-0.479,1.102-1.031,1.57-1.656c-0.016-0.13-0.031-0.258-0.047-0.383
		c0.094,0.011,0.192,0.019,0.297,0.023c0.192-0.281,0.375-0.599,0.547-0.953h-1.117c-0.308,0-0.609,0.021-0.906,0.062
		c0.021-0.109,0.031-0.214,0.031-0.312C211.871,76.73,211.86,76.615,211.84,76.506z M214.613,78.029
		c0.25,0.026,0.5,0.039,0.75,0.039h2.164c0.255,0,0.513-0.013,0.773-0.039c-0.021,0.099-0.031,0.192-0.031,0.281
		c0.021,0.12,0.031,0.234,0.031,0.344c-0.531,0.297-1.019,0.591-1.461,0.883v0.531h1.031c0.297,0,0.599-0.023,0.906-0.07
		c-0.021,0.12-0.031,0.234-0.031,0.344s0.011,0.214,0.031,0.312c-0.308-0.042-0.609-0.062-0.906-0.062h-1.031v1.57
		c0,0.245-0.112,0.409-0.336,0.492c-0.292,0.109-0.628,0.164-1.008,0.164c-0.026-0.224-0.12-0.442-0.281-0.656
		c0.271,0.021,0.448,0.031,0.531,0.031c0.359,0,0.544-0.104,0.555-0.312v-1.289h-1.375c-0.297,0-0.599,0.021-0.906,0.062
		c0.026-0.099,0.039-0.203,0.039-0.312s-0.013-0.224-0.039-0.344c0.308,0.047,0.609,0.07,0.906,0.07h1.375v-0.656l1.227-0.82h-2.164
		c-0.25,0-0.5,0.011-0.75,0.031c0.021-0.099,0.031-0.203,0.031-0.312C214.645,78.222,214.634,78.128,214.613,78.029z"/>
	<path d="M221.02,75.506c0.177,0.094,0.43,0.164,0.758,0.211c-0.161,0.208-0.359,0.614-0.594,1.219
		c-0.031,0.078-0.062,0.159-0.094,0.242v4.703c0,0.344,0.021,0.685,0.062,1.023c-0.12-0.016-0.234-0.023-0.344-0.023
		s-0.214,0.008-0.312,0.023c0.036-0.339,0.055-0.68,0.055-1.023v-3.547c-0.183,0.349-0.38,0.685-0.594,1.008
		c-0.094-0.141-0.258-0.276-0.492-0.406c0.464-0.589,0.823-1.177,1.078-1.766C220.762,76.618,220.921,76.064,221.02,75.506z
		 M221.27,77.967c0.109,0.021,0.214,0.031,0.312,0.031h0.57c0.156,0,0.31-0.011,0.461-0.031c-0.031,0.161-0.052,0.32-0.062,0.477
		v2.703c0.192-0.125,0.383-0.269,0.57-0.43c0.047,0.156,0.128,0.294,0.242,0.414c-0.438,0.349-0.896,0.763-1.375,1.242
		c-0.094-0.146-0.208-0.271-0.344-0.375c0.167-0.161,0.281-0.312,0.344-0.453c0.047-0.136,0.07-0.247,0.07-0.336v-2.766h-0.477
		c-0.099,0-0.203,0.011-0.312,0.031c0.021-0.089,0.031-0.172,0.031-0.25C221.301,78.142,221.29,78.056,221.27,77.967z
		 M222.434,75.967c0.136,0.448,0.32,0.93,0.555,1.445c-0.192,0.031-0.388,0.091-0.586,0.18c-0.099-0.458-0.276-0.956-0.531-1.492
		C222.069,76.079,222.257,76.034,222.434,75.967z M223.301,76.537c0.25,0.036,0.503,0.055,0.758,0.055h0.344v-0.562
		c0-0.183-0.023-0.367-0.07-0.555c0.188,0.052,0.406,0.081,0.656,0.086c-0.062,0.12-0.094,0.276-0.094,0.469v0.562
		c0.25,0,0.5-0.019,0.75-0.055c-0.021,0.089-0.031,0.183-0.031,0.281c0,0.089,0.011,0.183,0.031,0.281
		c-0.25-0.047-0.5-0.07-0.75-0.07v1.039h0.164c0.386-0.521,0.789-1.2,1.211-2.039c0.177,0.167,0.367,0.305,0.57,0.414
		c-0.125,0.094-0.394,0.458-0.805,1.094c-0.114,0.188-0.231,0.364-0.352,0.531h0.438c0.25,0,0.5-0.023,0.75-0.07
		c-0.021,0.099-0.031,0.192-0.031,0.281c0,0.099,0.011,0.192,0.031,0.281c-0.25-0.036-0.5-0.055-0.75-0.055h-0.766
		c-0.146,0.198-0.3,0.38-0.461,0.547c-0.058,0.073-0.114,0.138-0.172,0.195h0.805c0.266,0,0.534-0.019,0.805-0.055
		c-0.042,0.239-0.062,0.477-0.062,0.711v2.227c0,0.261,0.021,0.519,0.062,0.773c-0.151-0.016-0.255-0.023-0.312-0.023
		c-0.052,0-0.156,0.008-0.312,0.023c0.042-0.219,0.062-0.438,0.062-0.656h-1.523c0,0.224,0.019,0.442,0.055,0.656
		c-0.151-0.016-0.255-0.023-0.312-0.023c-0.052,0-0.156,0.008-0.312,0.023c0.047-0.255,0.07-0.513,0.07-0.773v-1.898
		c-0.161,0.151-0.331,0.302-0.508,0.453c-0.104-0.156-0.258-0.292-0.461-0.406c0.328-0.234,0.644-0.487,0.945-0.758
		c-0.011-0.114-0.026-0.224-0.047-0.328c0.12,0.016,0.234,0.026,0.344,0.031c0.245-0.229,0.469-0.469,0.672-0.719h-0.945
		c-0.255,0-0.508,0.019-0.758,0.055c0.021-0.089,0.031-0.183,0.031-0.281c0-0.089-0.011-0.183-0.031-0.281
		c0.25,0.047,0.503,0.07,0.758,0.07h0.656v-1.039h-0.344c-0.255,0-0.508,0.023-0.758,0.07c0.021-0.099,0.031-0.192,0.031-0.281
		C223.332,76.72,223.321,76.626,223.301,76.537z M224.238,80.561h1.539v-0.875h-1.477c-0.026,0.031-0.047,0.055-0.062,0.07V80.561z
		 M224.238,81.818h1.539v-0.852h-1.539V81.818z"/>
	<path d="M230.434,81.311c-0.021,0.292-0.031,0.489-0.031,0.594c-1.339,0.203-2.192,0.359-2.562,0.469
		c-0.011-0.188-0.075-0.406-0.195-0.656C228.66,81.623,229.59,81.487,230.434,81.311z M229.09,75.561
		c0.198,0.125,0.427,0.239,0.688,0.344c-0.208,0.317-0.409,0.677-0.602,1.078c-0.214,0.469-0.43,0.862-0.648,1.18
		c0.339-0.094,0.68-0.148,1.023-0.164l0.008,0.008c0.219-0.422,0.352-0.734,0.398-0.938l0.656,0.406
		c-0.172,0.114-0.362,0.352-0.57,0.711c-0.625,1.052-1.058,1.722-1.297,2.008l1.617-0.227c-0.021,0.172-0.031,0.341-0.031,0.508
		c-0.901,0.062-1.672,0.167-2.312,0.312l-0.125-0.688c0.302-0.125,0.539-0.308,0.711-0.547c0.281-0.422,0.513-0.786,0.695-1.094
		c-0.641,0.042-1.117,0.128-1.43,0.258l-0.125-0.648c0.286-0.156,0.528-0.422,0.727-0.797
		C228.649,76.959,228.856,76.389,229.09,75.561z M230.465,76.756c0.286,0.042,0.575,0.062,0.867,0.062h0.82v-0.625
		c0-0.219-0.021-0.438-0.062-0.656c0.208,0.073,0.458,0.112,0.75,0.117c-0.062,0.136-0.094,0.315-0.094,0.539v0.625h1.031
		c0.292,0,0.581-0.021,0.867-0.062c-0.021,0.099-0.031,0.203-0.031,0.312c0,0.104,0.011,0.206,0.031,0.305
		c-0.286-0.042-0.575-0.062-0.867-0.062h-1.031v1.164h0.656c0.292,0,0.581-0.021,0.867-0.062c-0.021,0.099-0.031,0.2-0.031,0.305
		c0,0.109,0.011,0.214,0.031,0.312c-0.286-0.042-0.575-0.062-0.867-0.062h-1.852c-0.286,0-0.578,0.021-0.875,0.062
		c0.021-0.099,0.031-0.203,0.031-0.312c0-0.104-0.011-0.206-0.031-0.305c0.297,0.042,0.589,0.062,0.875,0.062h0.602v-1.164h-0.82
		c-0.292,0-0.581,0.021-0.867,0.062c0.021-0.099,0.031-0.2,0.031-0.305C230.496,76.959,230.485,76.855,230.465,76.756z
		 M230.84,79.654c0.308,0.042,0.62,0.062,0.938,0.062h1.438c0.308,0,0.62-0.021,0.938-0.062c-0.042,0.276-0.062,0.55-0.062,0.82
		v1.594c0,0.302,0.021,0.602,0.062,0.898c-0.177-0.021-0.292-0.031-0.344-0.031c-0.067,0-0.192,0.011-0.375,0.031
		c0.036-0.261,0.055-0.519,0.055-0.773h-1.992c0.005,0.261,0.023,0.519,0.055,0.773c-0.188-0.021-0.31-0.031-0.367-0.031
		s-0.172,0.011-0.344,0.031c0.036-0.297,0.055-0.597,0.055-0.898v-1.594C230.895,80.204,230.876,79.931,230.84,79.654z
		 M231.496,81.686h2v-1.461h-2V81.686z"/>
	<path d="M236.707,75.787c0.344,0.021,0.69,0.031,1.039,0.031h3.031c0.339,0,0.683-0.011,1.031-0.031
		c-0.021,0.188-0.031,0.372-0.031,0.555v2.195c0,0.208,0.011,0.417,0.031,0.625c-0.349-0.021-0.692-0.031-1.031-0.031h-1.195v0.656
		h2.164c0.302,0,0.602-0.023,0.898-0.07c-0.021,0.114-0.031,0.231-0.031,0.352c0,0.104,0.011,0.206,0.031,0.305
		c-0.297-0.042-0.597-0.062-0.898-0.062h-1.664c0.297,0.386,0.63,0.69,1,0.914c0.375,0.255,0.95,0.453,1.727,0.594
		c-0.239,0.192-0.419,0.401-0.539,0.625c-0.552-0.203-1.052-0.477-1.5-0.82c-0.458-0.339-0.852-0.776-1.18-1.312h-0.008v1.625
		c0,0.328,0.021,0.651,0.062,0.969c-0.12-0.016-0.245-0.023-0.375-0.023c-0.109,0-0.224,0.008-0.344,0.023
		c0.042-0.317,0.062-0.641,0.062-0.969v-1.625h-0.039c-0.302,0.521-0.659,0.935-1.07,1.242c-0.458,0.344-1.065,0.651-1.82,0.922
		c-0.094-0.229-0.242-0.427-0.445-0.594c0.719-0.136,1.341-0.359,1.867-0.672c0.364-0.234,0.698-0.534,1-0.898h-1.703
		c-0.308,0-0.609,0.021-0.906,0.062c0.016-0.099,0.023-0.2,0.023-0.305c0-0.12-0.008-0.237-0.023-0.352
		c0.297,0.047,0.599,0.07,0.906,0.07h2.211v-0.656h-1.242c-0.349,0-0.695,0.011-1.039,0.031c0.026-0.208,0.039-0.417,0.039-0.625
		v-2.195C236.72,76.159,236.707,75.975,236.707,75.787z M237.332,77.225h1.656v-0.883h-1.656V77.225z M238.988,78.592v-0.875h-1.656
		v0.875H238.988z M239.582,76.342v0.883h1.602v-0.883H239.582z M241.184,78.592v-0.875h-1.602v0.875H241.184z"/>
</g>
<g>
	<path d="M214.434,189.198c-0.021,0.292-0.031,0.489-0.031,0.594c-1.339,0.203-2.192,0.359-2.562,0.469
		c-0.011-0.188-0.075-0.406-0.195-0.656C212.66,189.511,213.59,189.375,214.434,189.198z M213.09,183.448
		c0.198,0.125,0.427,0.239,0.688,0.344c-0.208,0.317-0.409,0.677-0.602,1.078c-0.214,0.469-0.43,0.862-0.648,1.18
		c0.339-0.094,0.68-0.148,1.023-0.164l0.008,0.008c0.219-0.422,0.352-0.734,0.398-0.938l0.656,0.406
		c-0.172,0.114-0.362,0.352-0.57,0.711c-0.625,1.052-1.058,1.722-1.297,2.008l1.617-0.227c-0.021,0.172-0.031,0.341-0.031,0.508
		c-0.901,0.062-1.672,0.167-2.312,0.312l-0.125-0.688c0.302-0.125,0.539-0.308,0.711-0.547c0.281-0.422,0.513-0.786,0.695-1.094
		c-0.641,0.042-1.117,0.128-1.43,0.258l-0.125-0.648c0.286-0.156,0.528-0.422,0.727-0.797
		C212.649,184.847,212.856,184.276,213.09,183.448z M214.465,184.644c0.286,0.042,0.575,0.062,0.867,0.062h0.82v-0.625
		c0-0.219-0.021-0.438-0.062-0.656c0.208,0.073,0.458,0.112,0.75,0.117c-0.062,0.136-0.094,0.315-0.094,0.539v0.625h1.031
		c0.292,0,0.581-0.021,0.867-0.062c-0.021,0.099-0.031,0.203-0.031,0.312c0,0.104,0.011,0.206,0.031,0.305
		c-0.286-0.042-0.575-0.062-0.867-0.062h-1.031v1.164h0.656c0.292,0,0.581-0.021,0.867-0.062c-0.021,0.099-0.031,0.2-0.031,0.305
		c0,0.109,0.011,0.214,0.031,0.312c-0.286-0.042-0.575-0.062-0.867-0.062h-1.852c-0.286,0-0.578,0.021-0.875,0.062
		c0.021-0.099,0.031-0.203,0.031-0.312c0-0.104-0.011-0.206-0.031-0.305c0.297,0.042,0.589,0.062,0.875,0.062h0.602v-1.164h-0.82
		c-0.292,0-0.581,0.021-0.867,0.062c0.021-0.099,0.031-0.2,0.031-0.305C214.496,184.847,214.485,184.742,214.465,184.644z
		 M214.84,187.542c0.308,0.042,0.62,0.062,0.938,0.062h1.438c0.308,0,0.62-0.021,0.938-0.062c-0.042,0.276-0.062,0.55-0.062,0.82
		v1.594c0,0.302,0.021,0.602,0.062,0.898c-0.177-0.021-0.292-0.031-0.344-0.031c-0.067,0-0.192,0.011-0.375,0.031
		c0.036-0.261,0.055-0.519,0.055-0.773h-1.992c0.005,0.261,0.023,0.519,0.055,0.773c-0.188-0.021-0.31-0.031-0.367-0.031
		s-0.172,0.011-0.344,0.031c0.036-0.297,0.055-0.597,0.055-0.898v-1.594C214.895,188.092,214.876,187.818,214.84,187.542z
		 M215.496,189.573h2v-1.461h-2V189.573z"/>
	<path d="M219.871,184.511c0.286,0.042,0.578,0.062,0.875,0.062h2.242V184.3c0-0.317-0.021-0.63-0.062-0.938
		c0.198,0.021,0.438,0.031,0.719,0.031c-0.062,0.141-0.094,0.328-0.094,0.562v0.617h2.289c0.286,0,0.575-0.021,0.867-0.062
		c-0.021,0.109-0.031,0.214-0.031,0.312c0,0.109,0.011,0.214,0.031,0.312c-0.292-0.036-0.581-0.055-0.867-0.055h-2.289v0.875h1.289
		c0.339,0,0.683-0.013,1.031-0.039c-0.021,0.177-0.031,0.354-0.031,0.531v1.031c0,0.208,0.011,0.419,0.031,0.633
		c-0.349-0.021-0.692-0.031-1.031-0.031h-0.688c0.308,0.469,0.644,0.839,1.008,1.109c0.375,0.308,0.945,0.539,1.711,0.695
		c-0.239,0.198-0.419,0.406-0.539,0.625c-0.547-0.229-1.042-0.536-1.484-0.922c-0.464-0.391-0.859-0.894-1.188-1.508h-0.109v1.656
		c0,0.364,0.021,0.727,0.062,1.086c-0.109-0.021-0.224-0.031-0.344-0.031c-0.109,0-0.224,0.011-0.344,0.031
		c0.042-0.359,0.062-0.722,0.062-1.086v-1.656h-0.016c-0.511,0.833-1.461,1.664-2.852,2.492c-0.114-0.183-0.305-0.356-0.57-0.523
		c0.667-0.239,1.25-0.555,1.75-0.945c0.406-0.276,0.755-0.617,1.047-1.023h-0.539c-0.349,0-0.692,0.011-1.031,0.031
		c0.021-0.214,0.031-0.425,0.031-0.633v-1.031c-0.021-0.177-0.031-0.354-0.031-0.531c0.339,0.026,0.683,0.039,1.031,0.039h1.18
		v-0.875h-2.242c-0.297,0-0.589,0.019-0.875,0.055c0.016-0.099,0.023-0.203,0.023-0.312
		C219.895,184.725,219.887,184.62,219.871,184.511z M222.988,187.573v-1.125h-1.586v1.125H222.988z M225.238,187.573v-1.125h-1.688
		v1.125H225.238z"/>
	<path d="M229.301,183.425c0.198,0.12,0.481,0.214,0.852,0.281c-0.183,0.229-0.403,0.677-0.664,1.344
		c-0.011,0.021-0.019,0.039-0.023,0.055v4.602c0,0.386,0.021,0.769,0.062,1.148c-0.13-0.021-0.255-0.031-0.375-0.031
		s-0.234,0.011-0.344,0.031c0.042-0.38,0.062-0.763,0.062-1.148v-3.289c-0.224,0.438-0.474,0.867-0.75,1.289
		c-0.12-0.172-0.317-0.331-0.594-0.477c0.526-0.656,0.935-1.312,1.227-1.969C229.004,184.662,229.187,184.05,229.301,183.425z
		 M234.707,185.198c0,0.239,0.034,0.469,0.102,0.688c-0.964,0.12-1.886,0.284-2.766,0.492h-0.008
		c0.058,0.411,0.125,0.808,0.203,1.188c0.183,0.864,0.448,1.521,0.797,1.969c0.292,0.302,0.495,0.453,0.609,0.453
		c0.136,0,0.284-0.367,0.445-1.102c0.146,0.177,0.341,0.315,0.586,0.414c-0.13,0.542-0.25,0.906-0.359,1.094
		c-0.141,0.229-0.3,0.344-0.477,0.344c-0.214,0-0.427-0.078-0.641-0.234c-0.599-0.427-1.039-1.117-1.32-2.07
		c-0.141-0.458-0.263-1.104-0.367-1.938c-0.583,0.136-1.161,0.289-1.734,0.461c0-0.266-0.034-0.508-0.102-0.727
		c0.651-0.083,1.242-0.172,1.773-0.266c-0.083-0.828-0.144-1.695-0.18-2.602c0.292,0.058,0.531,0.086,0.719,0.086
		c-0.062,0.276-0.094,0.547-0.094,0.812c0.005,0.547,0.031,1.075,0.078,1.586c0.073-0.011,0.141-0.023,0.203-0.039
		C233.103,185.631,233.946,185.428,234.707,185.198z M233.152,183.675c0.042,0.067,0.114,0.169,0.219,0.305
		c0.188,0.229,0.344,0.435,0.469,0.617c0.083,0.125,0.167,0.245,0.25,0.359c-0.141,0.036-0.328,0.128-0.562,0.273
		c-0.058-0.156-0.167-0.354-0.328-0.594c-0.177-0.276-0.362-0.503-0.555-0.68C232.848,183.878,233.017,183.784,233.152,183.675z"/>
	<path d="M235.84,183.792c0.297,0.042,0.599,0.062,0.906,0.062h1.148c0.302,0,0.606-0.021,0.914-0.062
		c-0.021,0.12-0.031,0.234-0.031,0.344s0.011,0.214,0.031,0.312c-0.308-0.036-0.612-0.055-0.914-0.055h-0.25
		c-0.141,0.594-0.325,1.151-0.555,1.672v0.016h0.586c0.308,0,0.609-0.011,0.906-0.031c-0.021,0.188-0.031,0.372-0.031,0.555v2.508
		c0,0.167,0.011,0.331,0.031,0.492c-0.089-0.021-0.183-0.031-0.281-0.031s-0.203,0.011-0.312,0.031
		c0.021-0.161,0.031-0.325,0.031-0.492v-0.062h-0.93v0.117c0,0.349,0.021,0.692,0.062,1.031c-0.12-0.021-0.234-0.031-0.344-0.031
		s-0.214,0.011-0.312,0.031c0.036-0.339,0.055-0.683,0.055-1.031v-2.07c-0.214,0.323-0.472,0.669-0.773,1.039
		c-0.067-0.229-0.161-0.438-0.281-0.625c0.364-0.333,0.703-0.808,1.016-1.422c0.261-0.5,0.45-1.065,0.57-1.695h-0.336
		c-0.308,0-0.609,0.019-0.906,0.055c0.021-0.099,0.031-0.203,0.031-0.312S235.86,183.912,235.84,183.792z M237.09,188.573h0.93v-2
		h-0.93V188.573z M238.926,188.542c0.292,0.042,0.586,0.062,0.883,0.062h0.836c0.297,0,0.591-0.021,0.883-0.062
		c-0.021,0.109-0.031,0.214-0.031,0.312c0,0.109,0.011,0.214,0.031,0.312c-0.292-0.036-0.586-0.055-0.883-0.055h-0.836
		c-0.297,0-0.591,0.019-0.883,0.055c0.021-0.099,0.031-0.203,0.031-0.312C238.957,188.756,238.946,188.651,238.926,188.542z
		 M239.152,183.644c0.261,0.042,0.519,0.062,0.773,0.062h1.477c0.271,0,0.542-0.011,0.812-0.031
		c-0.052,0.141-0.091,0.32-0.117,0.539l-0.328,2.898h0.289c0.229,0,0.458-0.011,0.688-0.031c-0.067,0.375-0.104,0.667-0.109,0.875
		l-0.141,1.867c-0.036,0.328-0.133,0.55-0.289,0.664c-0.161,0.136-0.567,0.237-1.219,0.305c-0.036-0.276-0.106-0.534-0.211-0.773
		c0.167,0.021,0.32,0.031,0.461,0.031c0.203,0,0.349-0.028,0.438-0.086c0.136-0.083,0.208-0.203,0.219-0.359l0.164-2h-1.938
		c-0.219,0-0.438,0.023-0.656,0.07c0.042-1.042,0.062-1.823,0.062-2.344c0-0.188-0.011-0.375-0.031-0.562
		c0.208,0.031,0.448,0.05,0.719,0.055c-0.062,0.183-0.106,0.388-0.133,0.617c-0.026,0.188-0.047,0.745-0.062,1.672h1.195
		l0.336-2.914h-1.625c-0.255,0-0.513,0.021-0.773,0.062c0.021-0.099,0.031-0.2,0.031-0.305
		C239.184,183.847,239.173,183.742,239.152,183.644z"/>
</g>
<rect x="210.849" y="152.755" class="st1" width="49.607" height="28.347"/>
<rect x="213.31" y="149.292" class="st2" width="24.442" height="8.51"/>
<g>
	<path d="M220.358,155.554v-3.391c0-0.167,0.016-0.895,0.016-1.431h-0.016l-1.615,4.821h-0.768l-1.615-4.813h-0.016
		c0,0.528,0.016,1.256,0.016,1.423v3.391h-0.751v-5.741h1.111l1.639,4.854h0.017l1.631-4.854h1.104v5.741H220.358z"/>
	<path d="M224.8,155.706c-2.143,0-2.799-1.783-2.799-3.022s0.656-3.022,2.799-3.022s2.799,1.783,2.799,3.022
		S226.942,155.706,224.8,155.706z M224.8,150.349c-1.247,0-1.999,0.983-1.999,2.335c0,1.351,0.752,2.334,1.999,2.334
		s1.999-0.983,1.999-2.334C226.799,151.332,226.047,150.349,224.8,150.349z"/>
	<path d="M231.816,149.813h0.871l-2.095,5.741h-0.823l-2.095-5.741h0.863l1.639,4.894h0.017L231.816,149.813z"/>
</g>
<g>
	<path d="M227.769,164.9h2.327c1.495,0,2.414,1.136,2.414,2.791c0,1.287-0.56,2.95-2.446,2.95h-2.295V164.9z M228.544,169.978h1.504
		c1.007,0,1.663-0.791,1.663-2.238s-0.664-2.175-1.72-2.175h-1.447V169.978z"/>
	<path d="M238.23,170.642v-3.39c0-0.168,0.016-0.896,0.016-1.432h-0.016l-1.615,4.821h-0.768l-1.615-4.813h-0.016
		c0,0.527,0.016,1.256,0.016,1.424v3.39h-0.751V164.9h1.111l1.639,4.854h0.017l1.631-4.854h1.104v5.741H238.23z"/>
	<path d="M242.431,170.642h-0.751v-3.99h-1.312v-0.56c0.911-0.063,1.287-0.151,1.511-1.071h0.552V170.642z"/>
</g>
<rect x="260.456" y="152.755" class="st1" width="49.607" height="28.347"/>
<g>
	<path d="M281.873,170.642h-4.237V164.9h4.182v0.688h-3.406v1.76h3.143v0.688h-3.143v1.919h3.462V170.642z"/>
	<path d="M287.617,170.642v-3.39c0-0.168,0.016-0.896,0.016-1.432h-0.016l-1.615,4.821h-0.768l-1.615-4.813h-0.016
		c0,0.527,0.016,1.256,0.016,1.424v3.39h-0.751V164.9h1.111l1.639,4.854h0.017l1.631-4.854h1.104v5.741H287.617z"/>
	<path d="M291.171,170.794c-1.615,0-1.927-1.72-1.927-2.887s0.312-2.887,1.927-2.887s1.927,1.72,1.927,2.887
		S292.786,170.794,291.171,170.794z M291.171,165.652c-0.808,0-1.175,0.848-1.175,2.255s0.367,2.255,1.175,2.255
		s1.176-0.848,1.176-2.255S291.979,165.652,291.171,165.652z"/>
</g>
<g>
	<path d="M14.425,99.738h2.327c1.496,0,2.415,1.136,2.415,2.791c0,1.287-0.56,2.95-2.447,2.95h-2.295V99.738z M15.201,104.816h1.503
		c1.008,0,1.663-0.791,1.663-2.238s-0.664-2.175-1.719-2.175h-1.447V104.816z"/>
	<path d="M24.887,105.48v-3.39c0-0.168,0.016-0.896,0.016-1.432h-0.016l-1.615,4.821h-0.768l-1.615-4.813h-0.016
		c0,0.527,0.016,1.256,0.016,1.424v3.39h-0.752v-5.741h1.112l1.639,4.854h0.016l1.631-4.854h1.103v5.741H24.887z"/>
	<path d="M28.441,105.632c-1.615,0-1.927-1.72-1.927-2.887s0.312-2.887,1.927-2.887s1.927,1.72,1.927,2.887
		S30.056,105.632,28.441,105.632z M28.441,100.49c-0.808,0-1.175,0.848-1.175,2.255S27.633,105,28.441,105s1.175-0.848,1.175-2.255
		S29.248,100.49,28.441,100.49z"/>
	<path d="M32.193,105.48h-0.832v-0.848h0.832V105.48z"/>
	<path d="M35.112,105.632c-1.615,0-1.927-1.72-1.927-2.887s0.312-2.887,1.927-2.887s1.927,1.72,1.927,2.887
		S36.728,105.632,35.112,105.632z M35.112,100.49c-0.808,0-1.175,0.848-1.175,2.255S34.305,105,35.112,105s1.175-0.848,1.175-2.255
		S35.92,100.49,35.112,100.49z"/>
</g>
<g>
	<path d="M71.007,121.386c0.297,0.042,0.591,0.062,0.883,0.062h0.281v-1.133c0-0.161-0.011-0.325-0.031-0.492
		c0.198,0.021,0.417,0.031,0.656,0.031c-0.068,0.151-0.102,0.328-0.102,0.531v1.062h0.031c0.297,0,0.591-0.021,0.883-0.062
		c-0.021,0.104-0.031,0.206-0.031,0.305c0,0.109,0.01,0.214,0.031,0.312c-0.292-0.042-0.586-0.062-0.883-0.062h-0.031v1.719
		c0.323-0.136,0.627-0.281,0.914-0.438c-0.021,0.302-0.031,0.513-0.031,0.633c-0.328,0.109-0.623,0.216-0.883,0.32v2.367
		c0,0.255-0.104,0.425-0.312,0.508c-0.208,0.078-0.508,0.117-0.898,0.117c-0.058-0.25-0.162-0.458-0.312-0.625h0.438
		c0.375,0,0.562-0.097,0.562-0.289v-1.859c-0.526,0.219-0.894,0.401-1.102,0.547c-0.011-0.198-0.07-0.427-0.18-0.688
		c0.448-0.104,0.875-0.231,1.281-0.383v-1.93H71.89c-0.292,0-0.586,0.021-0.883,0.062c0.021-0.099,0.031-0.203,0.031-0.312
		C71.039,121.592,71.028,121.49,71.007,121.386z M74.859,119.823c0.177,0.036,0.406,0.055,0.688,0.055
		c-0.089,0.312-0.133,0.675-0.133,1.086v0.453h0.789c0.297,0,0.596-0.023,0.898-0.07c-0.042,0.198-0.062,0.396-0.062,0.594
		c0,1.953,0.057,3.141,0.172,3.562c0.125,0.542,0.227,0.812,0.305,0.812c0.036-0.094,0.086-0.438,0.148-1.031
		c0.172,0.219,0.372,0.378,0.602,0.477c-0.219,0.917-0.409,1.375-0.57,1.375c-0.183-0.016-0.375-0.161-0.578-0.438
		c-0.203-0.297-0.359-0.714-0.469-1.25c-0.109-0.636-0.164-1.805-0.164-3.508h-1.07v0.164c0,0.859-0.039,1.575-0.117,2.148
		c0.25,0.188,0.508,0.378,0.773,0.57c-0.193,0.183-0.328,0.356-0.406,0.523c-0.167-0.161-0.326-0.312-0.477-0.453
		c-0.062,0.229-0.128,0.425-0.195,0.586c-0.292,0.641-0.794,1.214-1.508,1.719c-0.13-0.192-0.3-0.339-0.508-0.438
		c0.812-0.516,1.344-1.058,1.594-1.625c0.067-0.167,0.125-0.37,0.172-0.609c-0.328-0.266-0.656-0.5-0.984-0.703
		c0.161-0.136,0.299-0.281,0.414-0.438c0.213,0.167,0.438,0.339,0.672,0.516c0.052-0.5,0.078-1.099,0.078-1.797v-0.164h-0.289
		c-0.266,0-0.534,0.021-0.805,0.062c0.021-0.109,0.031-0.224,0.031-0.344c0-0.099-0.011-0.203-0.031-0.312
		c0.271,0.047,0.539,0.07,0.805,0.07h0.289v-0.164C74.921,120.831,74.9,120.355,74.859,119.823z"/>
	<path d="M80.695,119.909c0.198,0.104,0.438,0.19,0.719,0.258c-0.109,0.067-0.232,0.192-0.367,0.375
		c-0.453,0.641-1.008,1.231-1.664,1.773c-0.13-0.156-0.315-0.292-0.555-0.406c0.516-0.312,0.917-0.644,1.203-0.992
		C80.369,120.531,80.59,120.195,80.695,119.909z M81.101,121.542c0.224,0.141,0.466,0.234,0.727,0.281
		c-0.172,0.099-0.357,0.308-0.555,0.625c-0.13,0.239-0.279,0.469-0.445,0.688v2.938c0,0.391,0.021,0.784,0.062,1.18
		c-0.13-0.021-0.255-0.031-0.375-0.031c-0.13,0-0.255,0.011-0.375,0.031c0.042-0.396,0.062-0.789,0.062-1.18v-2.219
		c-0.276,0.281-0.589,0.56-0.938,0.836c-0.094-0.229-0.208-0.414-0.344-0.555c0.583-0.37,1.047-0.761,1.391-1.172
		C80.666,122.558,80.929,122.084,81.101,121.542z M81.89,122.417c0.338,0.042,0.682,0.062,1.031,0.062h2.344
		c0.344,0,0.685-0.021,1.023-0.062c-0.016,0.12-0.023,0.245-0.023,0.375c0,0.109,0.008,0.224,0.023,0.344
		c-0.339-0.042-0.68-0.062-1.023-0.062h-0.539v3.719c0,0.172-0.097,0.297-0.289,0.375c-0.177,0.078-0.539,0.117-1.086,0.117
		c-0.011-0.266-0.094-0.505-0.25-0.719c0.328,0.042,0.581,0.062,0.758,0.062c0.156,0,0.237-0.06,0.242-0.18v-3.375h-1.18
		c-0.349,0-0.693,0.021-1.031,0.062c0.021-0.12,0.031-0.234,0.031-0.344C81.921,122.662,81.911,122.537,81.89,122.417z
		 M82.351,120.284c0.349,0.042,0.692,0.062,1.031,0.062h1.312c0.349,0,0.692-0.021,1.031-0.062c-0.021,0.13-0.031,0.255-0.031,0.375
		s0.01,0.234,0.031,0.344c-0.339-0.042-0.683-0.062-1.031-0.062h-1.312c-0.339,0-0.683,0.021-1.031,0.062
		c0.021-0.109,0.031-0.224,0.031-0.344S82.372,120.414,82.351,120.284z"/>
	<path d="M88.632,120.167c0.192,0.083,0.442,0.144,0.75,0.18c-0.115,0.141-0.263,0.409-0.445,0.805
		c-0.042,0.109-0.086,0.219-0.133,0.328h1.516v-0.367c0-0.406,0.021-0.836,0.062-1.289c0.224,0.021,0.463,0.031,0.719,0.031
		c-0.083,0.239-0.125,0.547-0.125,0.922v0.703h1.633c0.25,0,0.518-0.011,0.805-0.031c-0.021,0.099-0.031,0.192-0.031,0.281
		c0,0.114,0.01,0.216,0.031,0.305c-0.188-0.021-0.456-0.031-0.805-0.031h-1.633v0.055c-0.016,0.521-0.052,0.984-0.109,1.391h2.273
		c0.302,0,0.602-0.021,0.898-0.062c-0.021,0.109-0.031,0.224-0.031,0.344c0,0.099,0.01,0.2,0.031,0.305
		c-0.297-0.042-0.597-0.062-0.898-0.062h-1.922c0.239,0.708,0.523,1.222,0.852,1.539c0.474,0.422,1.164,0.745,2.07,0.969
		c-0.24,0.177-0.427,0.386-0.562,0.625c-0.984-0.396-1.667-0.841-2.047-1.336c-0.276-0.349-0.539-0.909-0.789-1.68
		c-0.099,0.417-0.224,0.755-0.375,1.016c-0.391,0.823-1.32,1.511-2.789,2.062c-0.125-0.198-0.305-0.367-0.539-0.508
		c1.292-0.359,2.125-0.828,2.5-1.406c0.25-0.354,0.435-0.781,0.555-1.281h-1.992c-0.302,0-0.602,0.021-0.898,0.062
		c0.021-0.104,0.031-0.206,0.031-0.305c0-0.12-0.011-0.234-0.031-0.344c0.297,0.042,0.596,0.062,0.898,0.062h2.109
		c0.073-0.422,0.109-0.886,0.109-1.391v-0.055h-1.758c-0.203,0.422-0.417,0.81-0.641,1.164c-0.183-0.172-0.383-0.269-0.602-0.289
		c0.307-0.349,0.591-0.797,0.852-1.344C88.4,121.05,88.554,120.594,88.632,120.167z"/>
	<path d="M96.515,121.511c0.224,0.058,0.474,0.086,0.75,0.086c-0.083,0.214-0.125,0.766-0.125,1.656
		c0,1.161-0.141,1.956-0.422,2.383c-0.318,0.489-0.74,0.903-1.266,1.242c-0.203-0.13-0.412-0.234-0.625-0.312
		c0.828-0.479,1.346-1.044,1.555-1.695c0.151-0.386,0.227-0.925,0.227-1.617C96.609,122.539,96.578,121.959,96.515,121.511z
		 M95.382,120.316c0.307,0.047,0.609,0.07,0.906,0.07h1.164c0.302,0,0.602-0.023,0.898-0.07c-0.042,0.276-0.062,0.55-0.062,0.82
		v1.398c0.338-0.401,0.604-0.815,0.797-1.242c0.229-0.495,0.383-0.925,0.461-1.289c0.188,0.104,0.417,0.188,0.688,0.25
		c-0.089,0.094-0.177,0.255-0.266,0.484c-0.104,0.271-0.219,0.528-0.344,0.773h1.609c0.239,0,0.497-0.011,0.773-0.031
		c-0.021,0.099-0.031,0.192-0.031,0.281c0,0.104,0.01,0.195,0.031,0.273c-0.188-0.021-0.445-0.031-0.773-0.031h-0.039
		c-0.021,0.901-0.12,1.659-0.297,2.273c-0.141,0.458-0.32,0.856-0.539,1.195c0.01,0.016,0.021,0.028,0.031,0.039
		c0.469,0.521,1.094,0.894,1.875,1.117c-0.198,0.167-0.367,0.356-0.508,0.57c-0.787-0.464-1.352-0.901-1.695-1.312
		c-0.094,0.12-0.198,0.229-0.312,0.328c-0.438,0.417-0.974,0.753-1.609,1.008c-0.172-0.25-0.349-0.438-0.531-0.562
		c0.547-0.151,1.042-0.38,1.484-0.688c0.239-0.172,0.445-0.364,0.617-0.578c-0.287-0.474-0.57-1.144-0.852-2.008
		c0.177,0,0.362-0.034,0.555-0.102c0.156,0.667,0.356,1.222,0.602,1.664c0.047-0.089,0.091-0.172,0.133-0.25
		c0.188-0.375,0.323-0.847,0.406-1.414c0.047-0.406,0.073-0.833,0.078-1.281h-1.258c-0.183,0.339-0.375,0.661-0.578,0.969
		c-0.125-0.151-0.294-0.281-0.508-0.391v1.422c0,0.297,0.021,0.589,0.062,0.875c-0.172-0.016-0.287-0.023-0.344-0.023
		c-0.052,0-0.167,0.008-0.344,0.023c0.042-0.286,0.062-0.578,0.062-0.875v-3.125h-1.719v3.156c0,0.297,0.021,0.589,0.062,0.875
		c-0.167-0.021-0.281-0.031-0.344-0.031c-0.058,0-0.172,0.011-0.344,0.031c0.047-0.286,0.07-0.578,0.07-0.875v-2.898
		C95.453,120.865,95.429,120.592,95.382,120.316z M97.32,124.878c0.328,0.219,0.716,0.523,1.164,0.914
		c-0.193,0.172-0.331,0.325-0.414,0.461c-0.271-0.37-0.625-0.692-1.062-0.969C97.117,125.201,97.221,125.066,97.32,124.878z"/>
	<path d="M103.073,126.417v-5.741h0.704v2.087h0.016c0.304-0.439,0.72-0.64,1.208-0.647c1.111,0,1.743,0.912,1.743,2.087
		c0,0.999-0.416,2.335-1.839,2.335c-0.712,0-1.008-0.408-1.151-0.64h-0.016v0.52H103.073z M104.872,122.747
		c-1.015,0-1.127,1.096-1.127,1.775c0,1.111,0.696,1.407,1.144,1.407c0.768,0,1.127-0.696,1.127-1.615
		C106.015,123.778,105.959,122.747,104.872,122.747z"/>
	<path d="M107.592,121.476v-0.8h0.704v0.8H107.592z M108.296,126.417h-0.704v-4.182h0.704V126.417z"/>
	<path d="M110.216,122.819v2.718c0,0.328,0.28,0.328,0.424,0.328h0.248v0.552c-0.256,0.024-0.456,0.056-0.527,0.056
		c-0.696,0-0.848-0.392-0.848-0.896v-2.758h-0.568v-0.584h0.568v-1.167h0.704v1.167h0.671v0.584H110.216z"/>
</g>
<g>
	<path d="M17.622,127.398c-0.021,0.292-0.031,0.489-0.031,0.594c-1.339,0.203-2.193,0.359-2.563,0.469
		c-0.011-0.188-0.076-0.406-0.195-0.656C15.849,127.71,16.778,127.574,17.622,127.398z M16.278,121.648
		c0.198,0.125,0.427,0.239,0.688,0.344c-0.208,0.317-0.409,0.677-0.602,1.078c-0.214,0.469-0.43,0.862-0.648,1.18
		c0.338-0.094,0.68-0.148,1.023-0.164l0.008,0.008c0.219-0.422,0.352-0.734,0.398-0.938l0.656,0.406
		c-0.172,0.114-0.362,0.352-0.57,0.711c-0.625,1.052-1.058,1.722-1.297,2.008l1.617-0.227c-0.021,0.172-0.031,0.341-0.031,0.508
		c-0.901,0.062-1.672,0.167-2.313,0.312l-0.125-0.688c0.302-0.125,0.539-0.308,0.711-0.547c0.281-0.422,0.513-0.786,0.695-1.094
		c-0.641,0.042-1.117,0.128-1.43,0.258l-0.125-0.648c0.286-0.156,0.528-0.422,0.727-0.797
		C15.838,123.046,16.044,122.476,16.278,121.648z M17.653,122.843c0.286,0.042,0.575,0.062,0.867,0.062h0.82v-0.625
		c0-0.219-0.021-0.438-0.062-0.656c0.208,0.073,0.458,0.112,0.75,0.117c-0.062,0.136-0.094,0.315-0.094,0.539v0.625h1.031
		c0.292,0,0.581-0.021,0.867-0.062c-0.021,0.099-0.031,0.203-0.031,0.312c0,0.104,0.01,0.206,0.031,0.305
		c-0.287-0.042-0.576-0.062-0.867-0.062h-1.031v1.164h0.656c0.292,0,0.581-0.021,0.867-0.062c-0.021,0.099-0.031,0.2-0.031,0.305
		c0,0.109,0.01,0.214,0.031,0.312c-0.287-0.042-0.576-0.062-0.867-0.062h-1.852c-0.287,0-0.578,0.021-0.875,0.062
		c0.021-0.099,0.031-0.203,0.031-0.312c0-0.104-0.011-0.206-0.031-0.305c0.297,0.042,0.588,0.062,0.875,0.062h0.602v-1.164h-0.82
		c-0.292,0-0.581,0.021-0.867,0.062c0.021-0.099,0.031-0.2,0.031-0.305C17.685,123.046,17.674,122.941,17.653,122.843z
		 M18.028,125.741c0.307,0.042,0.62,0.062,0.938,0.062h1.438c0.307,0,0.62-0.021,0.938-0.062c-0.042,0.276-0.062,0.55-0.062,0.82
		v1.594c0,0.302,0.021,0.602,0.062,0.898c-0.177-0.021-0.292-0.031-0.344-0.031c-0.068,0-0.193,0.011-0.375,0.031
		c0.036-0.261,0.055-0.519,0.055-0.773h-1.992c0.005,0.261,0.023,0.519,0.055,0.773c-0.188-0.021-0.31-0.031-0.367-0.031
		c-0.058,0-0.172,0.011-0.344,0.031c0.036-0.297,0.055-0.597,0.055-0.898v-1.594C18.083,126.291,18.065,126.018,18.028,125.741z
		 M18.685,127.773h2v-1.461h-2V127.773z"/>
	<path d="M23.06,122.71c0.286,0.042,0.578,0.062,0.875,0.062h2.242v-0.273c0-0.317-0.021-0.63-0.062-0.938
		c0.198,0.021,0.438,0.031,0.719,0.031c-0.062,0.141-0.094,0.328-0.094,0.562v0.617h2.289c0.286,0,0.575-0.021,0.867-0.062
		c-0.021,0.109-0.031,0.214-0.031,0.312c0,0.109,0.01,0.214,0.031,0.312c-0.292-0.036-0.581-0.055-0.867-0.055h-2.289v0.875h1.289
		c0.338,0,0.682-0.013,1.031-0.039c-0.021,0.177-0.031,0.354-0.031,0.531v1.031c0,0.208,0.01,0.419,0.031,0.633
		c-0.349-0.021-0.693-0.031-1.031-0.031h-0.688c0.307,0.469,0.643,0.839,1.008,1.109c0.375,0.308,0.945,0.539,1.711,0.695
		c-0.24,0.198-0.419,0.406-0.539,0.625c-0.547-0.229-1.042-0.536-1.484-0.922c-0.464-0.391-0.859-0.894-1.188-1.508h-0.109v1.656
		c0,0.364,0.021,0.727,0.062,1.086c-0.109-0.021-0.224-0.031-0.344-0.031c-0.109,0-0.224,0.011-0.344,0.031
		c0.042-0.359,0.062-0.722,0.062-1.086v-1.656h-0.016c-0.511,0.833-1.461,1.664-2.852,2.492c-0.115-0.183-0.305-0.356-0.57-0.523
		c0.667-0.239,1.25-0.555,1.75-0.945c0.406-0.276,0.755-0.617,1.047-1.023h-0.539c-0.349,0-0.693,0.011-1.031,0.031
		c0.021-0.214,0.031-0.425,0.031-0.633v-1.031c-0.021-0.177-0.031-0.354-0.031-0.531c0.338,0.026,0.682,0.039,1.031,0.039h1.18
		v-0.875h-2.242c-0.297,0-0.589,0.019-0.875,0.055c0.016-0.099,0.023-0.203,0.023-0.312C23.083,122.924,23.075,122.819,23.06,122.71
		z M26.177,125.773v-1.125h-1.586v1.125H26.177z M28.427,125.773v-1.125h-1.688v1.125H28.427z"/>
	<path d="M30.867,128.187v-5.741h0.704v2.087h0.016c0.304-0.439,0.719-0.64,1.207-0.647c1.111,0,1.743,0.912,1.743,2.087
		c0,0.999-0.416,2.335-1.839,2.335c-0.712,0-1.008-0.408-1.151-0.64h-0.016v0.52H30.867z M32.666,124.517
		c-1.016,0-1.127,1.096-1.127,1.775c0,1.111,0.696,1.407,1.144,1.407c0.768,0,1.127-0.696,1.127-1.615
		C33.81,125.548,33.753,124.517,32.666,124.517z"/>
	<path d="M35.387,123.245v-0.8h0.704v0.8H35.387z M36.091,128.187h-0.704v-4.182h0.704V128.187z"/>
	<path d="M38.01,124.589v2.718c0,0.328,0.28,0.328,0.424,0.328h0.248v0.552c-0.256,0.024-0.456,0.056-0.527,0.056
		c-0.696,0-0.848-0.392-0.848-0.896v-2.758h-0.568v-0.584h0.568v-1.167h0.704v1.167h0.671v0.584H38.01z"/>
</g>
<g>
	<path d="M77.106,99.738h2.327c1.496,0,2.415,1.136,2.415,2.791c0,1.287-0.56,2.95-2.447,2.95h-2.295V99.738z M77.882,104.816h1.503
		c1.008,0,1.663-0.791,1.663-2.238s-0.664-2.175-1.719-2.175h-1.447V104.816z"/>
	<path d="M87.567,105.48v-3.39c0-0.168,0.016-0.896,0.016-1.432h-0.016l-1.615,4.821h-0.768l-1.615-4.813h-0.016
		c0,0.527,0.016,1.256,0.016,1.424v3.39h-0.752v-5.741h1.112l1.639,4.854h0.016l1.631-4.854h1.103v5.741H87.567z"/>
	<path d="M91.121,105.632c-1.615,0-1.927-1.72-1.927-2.887s0.312-2.887,1.927-2.887s1.927,1.72,1.927,2.887
		S92.736,105.632,91.121,105.632z M91.121,100.49c-0.808,0-1.175,0.848-1.175,2.255S90.314,105,91.121,105s1.175-0.848,1.175-2.255
		S91.929,100.49,91.121,100.49z"/>
	<path d="M94.874,105.48h-0.832v-0.848h0.832V105.48z"/>
	<path d="M98.441,105.48h-0.752v-3.99h-1.311v-0.56c0.912-0.063,1.287-0.151,1.511-1.071h0.552V105.48z"/>
</g>
<g>
	<g>
		<rect x="84.729" y="107.77" class="st2" width="7.017" height="10.022"/>
		<line class="st0" x1="84.729" y1="117.792" x2="84.729" y2="107.77"/>
		<line class="st0" x1="91.746" y1="107.77" x2="91.746" y2="117.792"/>
	</g>
	<g>
		<line class="st3" x1="88.264" y1="119.921" x2="88.264" y2="113.265"/>
		<path class="st3" d="M87.671,110.409c-0.29,0.962-0.559,1.589-0.869,2.361h2.94c-0.133-0.276-0.58-1.399-0.869-2.361
			c-0.312-1.03-0.525-1.965-0.601-2.571C88.194,108.444,87.984,109.379,87.671,110.409z"/>
	</g>
	<line class="st4" x1="81.223" y1="117.792" x2="95.253" y2="107.77"/>
</g>
<g>
	<line class="st3" x1="18.543" y1="117.792" x2="32.573" y2="107.77"/>
	<g>
		<rect x="22.049" y="107.77" class="st2" width="7.016" height="10.022"/>
		<line class="st0" x1="22.049" y1="117.792" x2="22.049" y2="107.77"/>
		<line class="st0" x1="29.066" y1="107.77" x2="29.066" y2="117.792"/>
	</g>
	<g>
		<line class="st0" x1="25.584" y1="119.921" x2="25.584" y2="113.265"/>
		<path d="M24.991,110.409c-0.291,0.962-0.559,1.589-0.869,2.361h2.939c-0.133-0.276-0.58-1.399-0.869-2.361
			c-0.312-1.03-0.525-1.965-0.601-2.571C25.514,108.444,25.304,109.379,24.991,110.409z"/>
	</g>
</g>
<g>
	<path d="M71.007,175.985c0.297,0.042,0.591,0.062,0.883,0.062h0.281v-1.133c0-0.161-0.011-0.325-0.031-0.492
		c0.198,0.021,0.417,0.031,0.656,0.031c-0.068,0.151-0.102,0.328-0.102,0.531v1.062h0.031c0.297,0,0.591-0.021,0.883-0.062
		c-0.021,0.104-0.031,0.206-0.031,0.305c0,0.109,0.01,0.214,0.031,0.312c-0.292-0.042-0.586-0.062-0.883-0.062h-0.031v1.719
		c0.323-0.136,0.627-0.281,0.914-0.438c-0.021,0.302-0.031,0.513-0.031,0.633c-0.328,0.109-0.623,0.216-0.883,0.32v2.367
		c0,0.255-0.104,0.425-0.312,0.508c-0.208,0.078-0.508,0.117-0.898,0.117c-0.058-0.25-0.162-0.458-0.312-0.625h0.438
		c0.375,0,0.562-0.097,0.562-0.289v-1.859c-0.526,0.219-0.894,0.401-1.102,0.547c-0.011-0.198-0.07-0.427-0.18-0.688
		c0.448-0.104,0.875-0.231,1.281-0.383v-1.93H71.89c-0.292,0-0.586,0.021-0.883,0.062c0.021-0.099,0.031-0.203,0.031-0.312
		C71.039,176.191,71.028,176.09,71.007,175.985z M74.859,174.423c0.177,0.036,0.406,0.055,0.688,0.055
		c-0.089,0.312-0.133,0.675-0.133,1.086v0.453h0.789c0.297,0,0.596-0.023,0.898-0.07c-0.042,0.198-0.062,0.396-0.062,0.594
		c0,1.953,0.057,3.141,0.172,3.562c0.125,0.542,0.227,0.812,0.305,0.812c0.036-0.094,0.086-0.438,0.148-1.031
		c0.172,0.219,0.372,0.378,0.602,0.477c-0.219,0.917-0.409,1.375-0.57,1.375c-0.183-0.016-0.375-0.161-0.578-0.438
		c-0.203-0.297-0.359-0.714-0.469-1.25c-0.109-0.636-0.164-1.805-0.164-3.508h-1.07v0.164c0,0.859-0.039,1.575-0.117,2.148
		c0.25,0.188,0.508,0.378,0.773,0.57c-0.193,0.183-0.328,0.356-0.406,0.523c-0.167-0.161-0.326-0.312-0.477-0.453
		c-0.062,0.229-0.128,0.425-0.195,0.586c-0.292,0.641-0.794,1.214-1.508,1.719c-0.13-0.192-0.3-0.339-0.508-0.438
		c0.812-0.516,1.344-1.058,1.594-1.625c0.067-0.167,0.125-0.37,0.172-0.609c-0.328-0.266-0.656-0.5-0.984-0.703
		c0.161-0.136,0.299-0.281,0.414-0.438c0.213,0.167,0.438,0.339,0.672,0.516c0.052-0.5,0.078-1.099,0.078-1.797v-0.164h-0.289
		c-0.266,0-0.534,0.021-0.805,0.062c0.021-0.109,0.031-0.224,0.031-0.344c0-0.099-0.011-0.203-0.031-0.312
		c0.271,0.047,0.539,0.07,0.805,0.07h0.289v-0.164C74.921,175.431,74.9,174.954,74.859,174.423z"/>
	<path d="M80.695,174.509c0.198,0.104,0.438,0.19,0.719,0.258c-0.109,0.067-0.232,0.192-0.367,0.375
		c-0.453,0.641-1.008,1.231-1.664,1.773c-0.13-0.156-0.315-0.292-0.555-0.406c0.516-0.312,0.917-0.644,1.203-0.992
		C80.369,175.131,80.59,174.795,80.695,174.509z M81.101,176.142c0.224,0.141,0.466,0.234,0.727,0.281
		c-0.172,0.099-0.357,0.308-0.555,0.625c-0.13,0.239-0.279,0.469-0.445,0.688v2.938c0,0.391,0.021,0.784,0.062,1.18
		c-0.13-0.021-0.255-0.031-0.375-0.031c-0.13,0-0.255,0.011-0.375,0.031c0.042-0.396,0.062-0.789,0.062-1.18v-2.219
		c-0.276,0.281-0.589,0.56-0.938,0.836c-0.094-0.229-0.208-0.414-0.344-0.555c0.583-0.37,1.047-0.761,1.391-1.172
		C80.666,177.157,80.929,176.684,81.101,176.142z M81.89,177.017c0.338,0.042,0.682,0.062,1.031,0.062h2.344
		c0.344,0,0.685-0.021,1.023-0.062c-0.016,0.12-0.023,0.245-0.023,0.375c0,0.109,0.008,0.224,0.023,0.344
		c-0.339-0.042-0.68-0.062-1.023-0.062h-0.539v3.719c0,0.172-0.097,0.297-0.289,0.375c-0.177,0.078-0.539,0.117-1.086,0.117
		c-0.011-0.266-0.094-0.505-0.25-0.719c0.328,0.042,0.581,0.062,0.758,0.062c0.156,0,0.237-0.06,0.242-0.18v-3.375h-1.18
		c-0.349,0-0.693,0.021-1.031,0.062c0.021-0.12,0.031-0.234,0.031-0.344C81.921,177.262,81.911,177.137,81.89,177.017z
		 M82.351,174.884c0.349,0.042,0.692,0.062,1.031,0.062h1.312c0.349,0,0.692-0.021,1.031-0.062c-0.021,0.13-0.031,0.255-0.031,0.375
		s0.01,0.234,0.031,0.344c-0.339-0.042-0.683-0.062-1.031-0.062h-1.312c-0.339,0-0.683,0.021-1.031,0.062
		c0.021-0.109,0.031-0.224,0.031-0.344S82.372,175.014,82.351,174.884z"/>
	<path d="M88.632,174.767c0.192,0.083,0.442,0.144,0.75,0.18c-0.115,0.141-0.263,0.409-0.445,0.805
		c-0.042,0.109-0.086,0.219-0.133,0.328h1.516v-0.367c0-0.406,0.021-0.836,0.062-1.289c0.224,0.021,0.463,0.031,0.719,0.031
		c-0.083,0.239-0.125,0.547-0.125,0.922v0.703h1.633c0.25,0,0.518-0.011,0.805-0.031c-0.021,0.099-0.031,0.192-0.031,0.281
		c0,0.114,0.01,0.216,0.031,0.305c-0.188-0.021-0.456-0.031-0.805-0.031h-1.633v0.055c-0.016,0.521-0.052,0.984-0.109,1.391h2.273
		c0.302,0,0.602-0.021,0.898-0.062c-0.021,0.109-0.031,0.224-0.031,0.344c0,0.099,0.01,0.2,0.031,0.305
		c-0.297-0.042-0.597-0.062-0.898-0.062h-1.922c0.239,0.708,0.523,1.222,0.852,1.539c0.474,0.422,1.164,0.745,2.07,0.969
		c-0.24,0.177-0.427,0.386-0.562,0.625c-0.984-0.396-1.667-0.841-2.047-1.336c-0.276-0.349-0.539-0.909-0.789-1.68
		c-0.099,0.417-0.224,0.755-0.375,1.016c-0.391,0.823-1.32,1.511-2.789,2.062c-0.125-0.198-0.305-0.367-0.539-0.508
		c1.292-0.359,2.125-0.828,2.5-1.406c0.25-0.354,0.435-0.781,0.555-1.281h-1.992c-0.302,0-0.602,0.021-0.898,0.062
		c0.021-0.104,0.031-0.206,0.031-0.305c0-0.12-0.011-0.234-0.031-0.344c0.297,0.042,0.596,0.062,0.898,0.062h2.109
		c0.073-0.422,0.109-0.886,0.109-1.391v-0.055h-1.758c-0.203,0.422-0.417,0.81-0.641,1.164c-0.183-0.172-0.383-0.269-0.602-0.289
		c0.307-0.349,0.591-0.797,0.852-1.344C88.4,175.65,88.554,175.193,88.632,174.767z"/>
	<path d="M96.515,176.11c0.224,0.058,0.474,0.086,0.75,0.086c-0.083,0.214-0.125,0.766-0.125,1.656c0,1.161-0.141,1.956-0.422,2.383
		c-0.318,0.489-0.74,0.903-1.266,1.242c-0.203-0.13-0.412-0.234-0.625-0.312c0.828-0.479,1.346-1.044,1.555-1.695
		c0.151-0.386,0.227-0.925,0.227-1.617C96.609,177.139,96.578,176.559,96.515,176.11z M95.382,174.915
		c0.307,0.047,0.609,0.07,0.906,0.07h1.164c0.302,0,0.602-0.023,0.898-0.07c-0.042,0.276-0.062,0.55-0.062,0.82v1.398
		c0.338-0.401,0.604-0.815,0.797-1.242c0.229-0.495,0.383-0.925,0.461-1.289c0.188,0.104,0.417,0.188,0.688,0.25
		c-0.089,0.094-0.177,0.255-0.266,0.484c-0.104,0.271-0.219,0.528-0.344,0.773h1.609c0.239,0,0.497-0.011,0.773-0.031
		c-0.021,0.099-0.031,0.192-0.031,0.281c0,0.104,0.01,0.195,0.031,0.273c-0.188-0.021-0.445-0.031-0.773-0.031h-0.039
		c-0.021,0.901-0.12,1.659-0.297,2.273c-0.141,0.458-0.32,0.856-0.539,1.195c0.01,0.016,0.021,0.028,0.031,0.039
		c0.469,0.521,1.094,0.894,1.875,1.117c-0.198,0.167-0.367,0.356-0.508,0.57c-0.787-0.464-1.352-0.901-1.695-1.312
		c-0.094,0.12-0.198,0.229-0.312,0.328c-0.438,0.417-0.974,0.753-1.609,1.008c-0.172-0.25-0.349-0.438-0.531-0.562
		c0.547-0.151,1.042-0.38,1.484-0.688c0.239-0.172,0.445-0.364,0.617-0.578c-0.287-0.474-0.57-1.144-0.852-2.008
		c0.177,0,0.362-0.034,0.555-0.102c0.156,0.667,0.356,1.222,0.602,1.664c0.047-0.089,0.091-0.172,0.133-0.25
		c0.188-0.375,0.323-0.847,0.406-1.414c0.047-0.406,0.073-0.833,0.078-1.281h-1.258c-0.183,0.339-0.375,0.661-0.578,0.969
		c-0.125-0.151-0.294-0.281-0.508-0.391v1.422c0,0.297,0.021,0.589,0.062,0.875c-0.172-0.016-0.287-0.023-0.344-0.023
		c-0.052,0-0.167,0.008-0.344,0.023c0.042-0.286,0.062-0.578,0.062-0.875v-3.125h-1.719v3.156c0,0.297,0.021,0.589,0.062,0.875
		c-0.167-0.021-0.281-0.031-0.344-0.031c-0.058,0-0.172,0.011-0.344,0.031c0.047-0.286,0.07-0.578,0.07-0.875v-2.898
		C95.453,175.465,95.429,175.191,95.382,174.915z M97.32,179.478c0.328,0.219,0.716,0.523,1.164,0.914
		c-0.193,0.172-0.331,0.325-0.414,0.461c-0.271-0.37-0.625-0.692-1.062-0.969C97.117,179.801,97.221,179.665,97.32,179.478z"/>
	<path d="M103.073,181.017v-5.741h0.704v2.087h0.016c0.304-0.439,0.72-0.64,1.208-0.647c1.111,0,1.743,0.912,1.743,2.087
		c0,0.999-0.416,2.335-1.839,2.335c-0.712,0-1.008-0.408-1.151-0.64h-0.016v0.52H103.073z M104.872,177.347
		c-1.015,0-1.127,1.096-1.127,1.775c0,1.111,0.696,1.407,1.144,1.407c0.768,0,1.127-0.696,1.127-1.615
		C106.015,178.378,105.959,177.347,104.872,177.347z"/>
	<path d="M107.592,176.075v-0.8h0.704v0.8H107.592z M108.296,181.017h-0.704v-4.182h0.704V181.017z"/>
	<path d="M110.216,177.419v2.718c0,0.328,0.28,0.328,0.424,0.328h0.248v0.552c-0.256,0.024-0.456,0.056-0.527,0.056
		c-0.696,0-0.848-0.392-0.848-0.896v-2.758h-0.568v-0.584h0.568v-1.167h0.704v1.167h0.671v0.584H110.216z"/>
</g>
<g>
	<path d="M77.106,154.338h2.327c1.496,0,2.415,1.136,2.415,2.791c0,1.287-0.56,2.95-2.447,2.95h-2.295V154.338z M77.882,159.415
		h1.503c1.008,0,1.663-0.791,1.663-2.238s-0.664-2.175-1.719-2.175h-1.447V159.415z"/>
	<path d="M87.567,160.079v-3.39c0-0.168,0.016-0.896,0.016-1.432h-0.016l-1.615,4.821h-0.768l-1.615-4.813h-0.016
		c0,0.527,0.016,1.256,0.016,1.424v3.39h-0.752v-5.741h1.112l1.639,4.854h0.016l1.631-4.854h1.103v5.741H87.567z"/>
	<path d="M91.121,160.232c-1.615,0-1.927-1.72-1.927-2.887s0.312-2.887,1.927-2.887s1.927,1.72,1.927,2.887
		S92.736,160.232,91.121,160.232z M91.121,155.09c-0.808,0-1.175,0.848-1.175,2.255s0.368,2.255,1.175,2.255
		s1.175-0.848,1.175-2.255S91.929,155.09,91.121,155.09z"/>
	<path d="M94.874,160.079h-0.832v-0.848h0.832V160.079z"/>
	<path d="M98.441,160.079h-0.752v-3.99h-1.311v-0.56c0.912-0.063,1.287-0.151,1.511-1.071h0.552V160.079z"/>
</g>
<g>
	<g>
		<rect x="84.729" y="162.369" class="st2" width="7.017" height="10.022"/>
		<line class="st0" x1="84.729" y1="172.391" x2="84.729" y2="162.369"/>
		<line class="st0" x1="91.746" y1="162.369" x2="91.746" y2="172.391"/>
	</g>
	<g>
		<line class="st3" x1="88.264" y1="174.52" x2="88.264" y2="167.865"/>
		<path class="st3" d="M87.671,165.009c-0.29,0.962-0.559,1.589-0.869,2.361h2.94c-0.133-0.276-0.58-1.399-0.869-2.361
			c-0.312-1.03-0.525-1.965-0.601-2.571C88.194,163.043,87.984,163.978,87.671,165.009z"/>
	</g>
	<line class="st3" x1="81.223" y1="172.391" x2="95.253" y2="162.369"/>
</g>
<g>
	<g>
		<g>
			<path d="M277.178,106.812h-0.775v-5.741h2.654c0.943,0,1.887,0.328,1.887,1.544c0,0.847-0.432,1.159-0.8,1.375
				c0.328,0.136,0.656,0.279,0.688,1.079l0.048,1.039c0.009,0.32,0.049,0.44,0.288,0.576v0.128h-0.951
				c-0.112-0.352-0.136-1.224-0.136-1.439c0-0.472-0.096-1.023-1.023-1.023h-1.879V106.812z M277.178,103.686h1.799
				c0.567,0,1.167-0.145,1.167-0.992c0-0.887-0.647-0.959-1.031-0.959h-1.935V103.686z"/>
			<path d="M282.65,103.541c0.239-0.184,0.583-0.352,1.087-0.352c0.911,0,1.847,0.64,1.847,1.799c0,0.624-0.279,1.976-2.038,1.976
				c-0.736,0-1.68-0.296-1.815-1.552h0.728c0.072,0.656,0.56,0.943,1.191,0.943c0.728,0,1.184-0.583,1.184-1.287
				c0-0.808-0.552-1.247-1.247-1.247c-0.408,0-0.776,0.191-1.04,0.535l-0.607-0.031l0.424-3.015h2.91v0.688h-2.383L282.65,103.541z"
				/>
			<path d="M288.145,106.964c-1.615,0-1.927-1.72-1.927-2.887s0.312-2.887,1.927-2.887s1.927,1.72,1.927,2.887
				S289.76,106.964,288.145,106.964z M288.145,101.822c-0.808,0-1.175,0.848-1.175,2.255s0.367,2.255,1.175,2.255
				s1.176-0.848,1.176-2.255S288.952,101.822,288.145,101.822z"/>
			<path d="M292.593,106.964c-1.615,0-1.927-1.72-1.927-2.887s0.312-2.887,1.927-2.887s1.927,1.72,1.927,2.887
				S294.208,106.964,292.593,106.964z M292.593,101.822c-0.808,0-1.175,0.848-1.175,2.255s0.367,2.255,1.175,2.255
				s1.176-0.848,1.176-2.255S293.4,101.822,292.593,101.822z"/>
		</g>
	</g>
	<path class="st1" d="M289.4,112.837c0,2.288-1.854,4.141-4.142,4.141c-2.288,0-4.142-1.853-4.142-4.141s1.854-4.143,4.142-4.143
		C287.545,108.694,289.4,110.549,289.4,112.837z"/>
</g>
</svg>
