<?xml version="1.0" encoding="utf-8"?>
<!-- Generator: Adobe Illustrator 28.2.0, SVG Export Plug-In . SVG Version: 6.00 Build 0)  -->
<svg version="1.1" id="儗僀儎乕_1" xmlns="http://www.w3.org/2000/svg" xmlns:xlink="http://www.w3.org/1999/xlink" x="0px"
	 y="0px" width="460.638px" height="102.55px" viewBox="0 0 460.638 102.55" style="enable-background:new 0 0 460.638 102.55;"
	 xml:space="preserve">
<style type="text/css">
	.st0{fill:none;stroke:#000000;}
	.st1{fill:#FFFFFF;}
	.st2{fill:#FFFFFF;stroke:#000000;}
</style>
<line class="st0" x1="0.5" y1="0" x2="0.5" y2="102.55"/>
<line class="st0" x1="460.138" y1="0" x2="460.138" y2="102.55"/>
<g>
	<line class="st0" x1="0.5" y1="34.603" x2="460.138" y2="34.603"/>
	<g>
		<rect x="35.103" y="27.682" class="st1" width="13.842" height="13.843"/>
		<line class="st0" x1="48.944" y1="27.682" x2="48.944" y2="41.524"/>
		<line class="st0" x1="35.103" y1="41.524" x2="35.103" y2="27.682"/>
	</g>
	<rect x="165.879" y="17.301" class="st2" width="280.418" height="34.603"/>
	<line class="st2" x1="259.308" y1="51.904" x2="259.308" y2="17.301"/>
	<line class="st2" x1="352.735" y1="51.904" x2="352.735" y2="17.301"/>
	<g>
		<path d="M29.887,17.511h4.662v0.688h-1.943v5.053H31.83v-5.053h-1.943V17.511z"/>
		<path d="M35.022,23.252h-0.704v-4.182h0.664v0.695h0.016c0.28-0.487,0.647-0.815,1.175-0.815c0.088,0,0.128,0.008,0.184,0.024
			v0.728h-0.264c-0.656,0-1.071,0.512-1.071,1.119V23.252z"/>
		<path d="M37.022,18.311v-0.799h0.704v0.799H37.022z M37.726,23.252h-0.704v-4.182h0.704V23.252z"/>
		<path d="M42.252,22.908c0,0.6-0.008,2.103-1.943,2.103c-0.496,0-1.463-0.136-1.599-1.247h0.704
			c0.128,0.664,0.775,0.664,0.943,0.664c1.215,0,1.191-0.976,1.191-1.471v-0.176h-0.016v0.032c-0.184,0.296-0.552,0.56-1.111,0.56
			c-1.423,0-1.839-1.335-1.839-2.335c0-1.175,0.632-2.087,1.743-2.087c0.759,0,1.079,0.472,1.247,0.712h0.016v-0.592h0.664V22.908z
			 M40.437,22.764c0.448,0,1.144-0.296,1.144-1.407c0-0.68-0.112-1.775-1.127-1.775c-1.087,0-1.144,1.031-1.144,1.567
			C39.31,22.069,39.67,22.764,40.437,22.764z"/>
		<path d="M46.7,22.908c0,0.6-0.008,2.103-1.943,2.103c-0.496,0-1.463-0.136-1.599-1.247h0.704c0.128,0.664,0.775,0.664,0.943,0.664
			c1.215,0,1.191-0.976,1.191-1.471v-0.176H45.98v0.032c-0.184,0.296-0.551,0.56-1.111,0.56c-1.423,0-1.839-1.335-1.839-2.335
			c0-1.175,0.632-2.087,1.743-2.087c0.759,0,1.079,0.472,1.247,0.712h0.016v-0.592H46.7V22.908z M44.885,22.764
			c0.448,0,1.144-0.296,1.144-1.407c0-0.68-0.112-1.775-1.127-1.775c-1.087,0-1.144,1.031-1.144,1.567
			C43.758,22.069,44.118,22.764,44.885,22.764z"/>
		<path d="M51.229,21.941c-0.024,0.2-0.216,0.792-0.744,1.144c-0.192,0.128-0.464,0.288-1.135,0.288
			c-1.175,0-1.871-0.888-1.871-2.095c0-1.295,0.624-2.327,2.007-2.327c1.208,0,1.799,0.959,1.799,2.439H48.23
			c0,0.872,0.408,1.375,1.215,1.375c0.664,0,1.056-0.512,1.08-0.824H51.229z M50.557,20.829c-0.04-0.647-0.312-1.247-1.167-1.247
			c-0.648,0-1.16,0.6-1.16,1.247H50.557z"/>
		<path d="M52.926,23.252h-0.704v-4.182h0.664v0.695h0.016c0.28-0.487,0.647-0.815,1.175-0.815c0.088,0,0.128,0.008,0.184,0.024
			v0.728h-0.264c-0.656,0-1.071,0.512-1.071,1.119V23.252z"/>
	</g>
	<g>
		<path d="M205.821,33.712h0.751v5.741h-0.872l-2.918-4.638h-0.016v4.638h-0.752v-5.741h0.92l2.87,4.637h0.016V33.712z"/>
		<path d="M210.43,39.452v-0.607l-0.016-0.016c-0.295,0.488-0.655,0.744-1.327,0.744c-0.616,0-1.359-0.296-1.359-1.295v-3.006h0.704
			v2.774c0,0.688,0.352,0.919,0.807,0.919c0.888,0,1.151-0.784,1.151-1.391v-2.303h0.704v4.182H210.43z"/>
		<path d="M212.151,35.271h0.664v0.592h0.016c0.152-0.224,0.512-0.712,1.264-0.712c0.751,0,0.991,0.456,1.111,0.68
			c0.352-0.392,0.631-0.68,1.279-0.68c0.448,0,1.295,0.232,1.295,1.407v2.895h-0.704V36.75c0-0.576-0.176-0.967-0.775-0.967
			c-0.592,0-0.983,0.56-0.983,1.119v2.551h-0.704v-2.895c0-0.352-0.136-0.775-0.656-0.775c-0.4,0-1.104,0.256-1.104,1.391v2.279
			h-0.704V35.271z"/>
		<path d="M221.166,39.452h-0.752v-3.99h-1.311v-0.56c0.912-0.064,1.287-0.152,1.511-1.072h0.552V39.452z"/>
	</g>
	<g>
		<path d="M299.247,33.712h0.751v5.741h-0.871l-2.919-4.638h-0.016v4.638h-0.752v-5.741h0.92l2.87,4.637h0.017V33.712z"/>
		<path d="M303.854,39.452v-0.607l-0.016-0.016c-0.296,0.488-0.656,0.744-1.327,0.744c-0.616,0-1.359-0.296-1.359-1.295v-3.006
			h0.703v2.774c0,0.688,0.353,0.919,0.808,0.919c0.888,0,1.151-0.784,1.151-1.391v-2.303h0.704v4.182H303.854z"/>
		<path d="M305.576,35.271h0.664v0.592h0.016c0.152-0.224,0.512-0.712,1.264-0.712c0.751,0,0.991,0.456,1.111,0.68
			c0.352-0.392,0.632-0.68,1.279-0.68c0.447,0,1.295,0.232,1.295,1.407v2.895h-0.703V36.75c0-0.576-0.176-0.967-0.776-0.967
			c-0.591,0-0.983,0.56-0.983,1.119v2.551h-0.703v-2.895c0-0.352-0.136-0.775-0.655-0.775c-0.4,0-1.104,0.256-1.104,1.391v2.279
			h-0.704V35.271z"/>
		<path d="M312.072,35.846c0-1.831,1.336-2.015,1.943-2.015c0.976,0,1.759,0.632,1.759,1.679c0,1.007-0.664,1.431-1.503,1.879
			l-0.584,0.32c-0.768,0.424-0.936,0.864-0.968,1.08h3.055v0.664h-3.846c0.04-1.167,0.567-1.791,1.319-2.231l0.743-0.432
			c0.6-0.344,1.031-0.576,1.031-1.311c0-0.448-0.287-1.016-1.111-1.016c-1.063,0-1.111,0.991-1.135,1.383H312.072z"/>
	</g>
	<g>
		<path d="M391.409,33.712h0.752v5.741h-0.871l-2.919-4.638h-0.016v4.638h-0.752v-5.741h0.92l2.87,4.637h0.016V33.712z"/>
		<path d="M396.018,39.452v-0.607l-0.016-0.016c-0.296,0.488-0.656,0.744-1.327,0.744c-0.616,0-1.359-0.296-1.359-1.295v-3.006
			h0.703v2.774c0,0.688,0.353,0.919,0.808,0.919c0.888,0,1.151-0.784,1.151-1.391v-2.303h0.704v4.182H396.018z"/>
		<path d="M397.739,35.271h0.664v0.592h0.016c0.152-0.224,0.512-0.712,1.264-0.712c0.751,0,0.991,0.456,1.111,0.68
			c0.352-0.392,0.632-0.68,1.279-0.68c0.447,0,1.295,0.232,1.295,1.407v2.895h-0.703V36.75c0-0.576-0.176-0.967-0.775-0.967
			c-0.592,0-0.984,0.56-0.984,1.119v2.551h-0.703v-2.895c0-0.352-0.136-0.775-0.655-0.775c-0.4,0-1.104,0.256-1.104,1.391v2.279
			h-0.704V35.271z"/>
		<path d="M405.674,36.254c0.12,0.008,0.248,0.016,0.368,0.016c0.543,0,1.071-0.216,1.071-0.919c0-0.336-0.2-0.888-1.04-0.888
			c-0.999,0-1.063,0.815-1.095,1.208h-0.688c0-0.824,0.335-1.839,1.814-1.839c1.088,0,1.735,0.624,1.735,1.479
			c0,0.72-0.416,1.063-0.72,1.159v0.016c0.544,0.176,0.936,0.56,0.936,1.311c0,0.92-0.592,1.807-2.023,1.807
			c-0.415,0-0.768-0.104-1.039-0.248c-0.624-0.328-0.791-0.976-0.84-1.624h0.728c0.024,0.528,0.152,1.24,1.2,1.24
			c0.719,0,1.223-0.44,1.223-1.088c0-0.943-0.831-1.031-1.311-1.031c-0.104,0-0.217,0.008-0.32,0.008V36.254z"/>
	</g>
</g>
<g>
	<rect x="165.879" y="51.903" class="st2" width="280.418" height="34.602"/>
	<line class="st2" x1="259.308" y1="86.504" x2="259.308" y2="51.903"/>
	<line class="st2" x1="352.735" y1="86.504" x2="352.735" y2="51.903"/>
	<g>
		<path d="M205.821,68.312h0.751v5.741h-0.872l-2.918-4.638h-0.016v4.638h-0.752v-5.741h0.92l2.87,4.637h0.016V68.312z"/>
		<path d="M210.43,74.053v-0.607l-0.016-0.017c-0.295,0.488-0.655,0.744-1.327,0.744c-0.616,0-1.359-0.296-1.359-1.296v-3.006h0.704
			v2.774c0,0.688,0.352,0.92,0.807,0.92c0.888,0,1.151-0.784,1.151-1.392v-2.303h0.704v4.182H210.43z"/>
		<path d="M212.151,69.871h0.664v0.592h0.016c0.152-0.224,0.512-0.712,1.264-0.712c0.751,0,0.991,0.456,1.111,0.68
			c0.352-0.392,0.631-0.68,1.279-0.68c0.448,0,1.295,0.232,1.295,1.407v2.895h-0.704V71.35c0-0.576-0.176-0.967-0.775-0.967
			c-0.592,0-0.983,0.56-0.983,1.119v2.551h-0.704v-2.895c0-0.352-0.136-0.775-0.656-0.775c-0.4,0-1.104,0.256-1.104,1.391v2.279
			h-0.704V69.871z"/>
		<path d="M221.654,72.686v1.367h-0.704v-1.367h-2.455v-0.688l2.575-3.566h0.584v3.646h0.823v0.608H221.654z M219.143,72.078h1.807
			v-2.55h-0.016L219.143,72.078z"/>
	</g>
	<g>
		<path d="M300.148,68.312h2.327c1.495,0,2.414,1.135,2.414,2.791c0,1.287-0.56,2.95-2.446,2.95h-2.295V68.312z M300.923,73.389
			h1.504c1.007,0,1.663-0.791,1.663-2.238s-0.664-2.175-1.72-2.175h-1.447V73.389z"/>
		<path d="M308.17,71.063c-0.008-0.264-0.104-0.704-0.991-0.704c-0.216,0-0.832,0.072-0.832,0.591c0,0.344,0.216,0.424,0.76,0.56
			l0.703,0.176c0.872,0.216,1.176,0.536,1.176,1.104c0,0.864-0.712,1.383-1.655,1.383c-1.655,0-1.774-0.96-1.799-1.463h0.68
			c0.023,0.328,0.12,0.856,1.111,0.856c0.504,0,0.959-0.2,0.959-0.664c0-0.336-0.231-0.448-0.831-0.6l-0.815-0.2
			c-0.584-0.144-0.968-0.439-0.968-1.015c0-0.919,0.76-1.335,1.583-1.335c1.495,0,1.6,1.104,1.6,1.312H308.17z"/>
		<path d="M310.659,70.455v2.718c0,0.328,0.28,0.328,0.424,0.328h0.248v0.552c-0.256,0.024-0.455,0.056-0.527,0.056
			c-0.695,0-0.848-0.392-0.848-0.896v-2.758h-0.567v-0.583h0.567v-1.167h0.703v1.167h0.672v0.583H310.659z"/>
	</g>
</g>
<rect x="176.974" y="10.015" class="st1" width="44.328" height="14.143"/>
<g>
	<path d="M192.858,16.349c-0.04-0.888-0.776-1.167-1.423-1.167c-0.488,0-1.311,0.136-1.311,1.007c0,0.488,0.344,0.647,0.679,0.728
		l1.639,0.376c0.744,0.176,1.303,0.624,1.303,1.535c0,1.359-1.263,1.735-2.247,1.735c-1.063,0-1.479-0.32-1.735-0.552
		c-0.488-0.439-0.584-0.919-0.584-1.455h0.728c0,1.04,0.848,1.343,1.583,1.343c0.56,0,1.503-0.144,1.503-0.967
		c0-0.6-0.28-0.792-1.223-1.016l-1.175-0.272c-0.376-0.088-1.224-0.352-1.224-1.351c0-0.896,0.584-1.775,1.975-1.775
		c2.007,0,2.207,1.199,2.239,1.831H192.858z"/>
	<path d="M198.194,16.349c-0.04-0.888-0.776-1.167-1.423-1.167c-0.488,0-1.311,0.136-1.311,1.007c0,0.488,0.344,0.647,0.679,0.728
		l1.639,0.376c0.744,0.176,1.303,0.624,1.303,1.535c0,1.359-1.263,1.735-2.247,1.735c-1.063,0-1.479-0.32-1.735-0.552
		c-0.488-0.439-0.584-0.919-0.584-1.455h0.728c0,1.04,0.848,1.343,1.583,1.343c0.56,0,1.503-0.144,1.503-0.967
		c0-0.6-0.28-0.792-1.223-1.016l-1.175-0.272c-0.376-0.088-1.224-0.352-1.224-1.351c0-0.896,0.584-1.775,1.975-1.775
		c2.007,0,2.207,1.199,2.239,1.831H198.194z"/>
	<path d="M203.362,14.67h0.872l-2.095,5.741h-0.823l-2.095-5.741h0.864l1.639,4.893h0.016L203.362,14.67z"/>
	<path d="M208.594,16.397c-0.216-1.008-1.056-1.191-1.607-1.191c-1.04,0-1.879,0.768-1.879,2.279c0,1.351,0.479,2.391,1.903,2.391
		c0.504,0,1.375-0.24,1.639-1.575h0.751c-0.32,2.167-2.079,2.263-2.51,2.263c-1.304,0-2.583-0.848-2.583-3.054
		c0-1.767,1.008-2.99,2.679-2.99c1.479,0,2.247,0.919,2.359,1.879H208.594z"/>
</g>
</svg>
