<?xml version="1.0" encoding="utf-8"?>
<!-- Generator: Adobe Illustrator 28.2.0, SVG Export Plug-In . SVG Version: 6.00 Build 0)  -->
<svg version="1.1" xmlns="http://www.w3.org/2000/svg" xmlns:xlink="http://www.w3.org/1999/xlink" x="0px" y="0px"
	 width="344.298px" height="213.556px" viewBox="0 0 344.298 213.556" style="enable-background:new 0 0 344.298 213.556;"
	 xml:space="preserve">
<style type="text/css">
	.st0{fill:none;stroke:#000000;stroke-width:0.5;stroke-miterlimit:10;}
	.st1{fill:none;stroke:#FF0000;stroke-width:1.5;stroke-miterlimit:10;}
</style>
<g id="レイヤー_1">
	<g>
		<polygon class="st0" points="87.622,104.187 87.549,121.904 23.842,121.904 23.842,33.321 257.7,33.321 257.7,104.187 		"/>
		<line class="st0" x1="45.102" y1="121.904" x2="45.102" y2="33.321"/>
		<line class="st0" x1="66.362" y1="121.904" x2="66.362" y2="33.321"/>
		<line class="st0" x1="87.622" y1="104.187" x2="87.622" y2="33.321"/>
		<line class="st0" x1="108.881" y1="104.187" x2="108.881" y2="33.321"/>
		<line class="st0" x1="130.141" y1="104.187" x2="130.141" y2="33.321"/>
		<line class="st0" x1="151.401" y1="104.187" x2="151.401" y2="33.321"/>
		<line class="st0" x1="172.661" y1="104.187" x2="172.661" y2="33.321"/>
		<line class="st0" x1="193.921" y1="104.187" x2="193.921" y2="33.321"/>
		<line class="st0" x1="215.181" y1="104.187" x2="215.181" y2="33.321"/>
		<line class="st0" x1="236.44" y1="104.187" x2="236.44" y2="33.321"/>
		<line class="st0" x1="23.842" y1="51.038" x2="257.7" y2="51.038"/>
		<line class="st0" x1="23.842" y1="68.754" x2="257.7" y2="68.754"/>
		<line class="st0" x1="23.842" y1="86.471" x2="257.7" y2="86.471"/>
		<line class="st0" x1="23.842" y1="104.187" x2="87.622" y2="104.187"/>
	</g>
	<g>
		<polygon class="st0" points="236.44,192.77 87.549,192.77 23.842,192.77 23.842,139.62 151.401,139.62 151.401,157.337 
			257.7,157.337 257.7,175.053 236.44,175.053 		"/>
		<line class="st0" x1="45.102" y1="192.77" x2="45.102" y2="139.62"/>
		<line class="st0" x1="66.362" y1="192.77" x2="66.362" y2="139.62"/>
		<line class="st0" x1="87.622" y1="192.77" x2="87.622" y2="139.62"/>
		<line class="st0" x1="108.881" y1="192.77" x2="108.881" y2="139.62"/>
		<line class="st0" x1="130.141" y1="192.77" x2="130.141" y2="139.62"/>
		<line class="st0" x1="151.401" y1="192.77" x2="151.401" y2="139.62"/>
		<line class="st0" x1="172.661" y1="192.77" x2="172.661" y2="157.337"/>
		<line class="st0" x1="193.921" y1="192.77" x2="193.921" y2="157.337"/>
		<line class="st0" x1="215.181" y1="192.77" x2="215.181" y2="157.337"/>
		<line class="st0" x1="236.44" y1="175.053" x2="236.44" y2="157.337"/>
		<line class="st0" x1="23.842" y1="157.337" x2="236.44" y2="157.337"/>
		<line class="st0" x1="23.842" y1="175.053" x2="236.44" y2="175.053"/>
	</g>
	<g>
		<g>
			<line class="st0" x1="140.771" y1="9.475" x2="140.771" y2="19.447"/>
			<g>
				<polygon points="138.726,17.791 139.092,17.45 140.771,19.255 142.449,17.45 142.816,17.791 140.771,19.99 				"/>
			</g>
		</g>
	</g>
	<g>
		<g>
			<line class="st0" x1="140.771" y1="113.894" x2="140.771" y2="133.889"/>
			<g>
				<polygon points="138.726,132.232 139.092,131.891 140.771,133.697 142.449,131.891 142.816,132.232 140.771,134.431 				"/>
			</g>
		</g>
	</g>
	<g>
		<path class="st0" d="M23.843,195.305c0,3.339,50.669,3.339,58.465,3.339s58.465,0,58.465,3.339c0-3.339,50.669-3.339,58.465-3.339
			s58.465,0,58.465-3.339"/>
	</g>
	<g>
		<path class="st0" d="M259.846,87.213c3.339,0,3.339-11.861,3.339-13.686c0-1.825,0-13.686,3.339-13.686
			c-3.339,0-3.339-11.861-3.339-13.686c0-1.825,0-13.686-3.339-13.686"/>
	</g>
	<g>
		<path class="st0" d="M259.846,192.77c3.339,0,3.339-7.677,3.339-8.858c0-1.181,0-8.858,3.339-8.858
			c-3.339,0-3.339-7.677-3.339-8.858c0-1.181,0-8.858-3.339-8.858"/>
	</g>
</g>
<g id="レイヤー_2">
	<g>
		<g>
			<path d="M31.924,45.446l2.263-5.757h0.616l2.207,5.757h-0.56l-0.664-1.807h-2.623l-0.68,1.807H31.924z M33.347,43.175h2.255
				l-1.127-3.022L33.347,43.175z"/>
		</g>
		<g>
			<path d="M53.711,45.446v-5.757h2.079c1.351,0,1.887,0.583,1.887,1.447c0,0.799-0.456,1.159-0.919,1.239v0.016
				c0.792,0.12,1.184,0.671,1.184,1.431c0,1.199-0.784,1.623-1.879,1.623H53.711z M54.255,42.231h1.375
				c1.136,0,1.503-0.399,1.503-1.095c0-0.72-0.432-0.983-1.623-0.983h-1.255V42.231z M54.255,44.982h1.383
				c1.199,0,1.759-0.16,1.759-1.159c0-0.952-0.671-1.127-1.695-1.127h-1.447V44.982z"/>
		</g>
		<g>
			<path d="M78.837,41.36c-0.224-0.983-0.832-1.359-1.815-1.359c-1.391,0-1.991,1.191-1.991,2.55c0,1.288,0.472,2.583,2.039,2.583
				c0.992,0,1.607-0.671,1.823-1.583h0.567c-0.256,1.111-0.951,2.047-2.495,2.047c-1.775,0-2.479-1.399-2.479-3.03
				c0-2.199,1.151-3.03,2.679-3.03c1.183,0,2.047,0.632,2.23,1.823H78.837z"/>
		</g>
		<g>
			<path d="M96.011,45.446v-5.757h1.967c0.64,0,1.239,0.04,1.775,0.432c0.76,0.552,0.959,1.671,0.959,2.439
				c0,0.759-0.168,1.607-0.696,2.183c-0.527,0.592-1.279,0.704-2.039,0.704H96.011z M96.555,44.982h1.303
				c0.488,0,0.912-0.032,1.351-0.264c0.768-0.392,0.959-1.375,0.959-2.159c0-0.84-0.184-1.759-0.991-2.191
				c-0.344-0.184-0.839-0.216-1.319-0.216h-1.303V44.982z"/>
		</g>
		<g>
			<path d="M117.715,45.162v-5.757h3.83v0.464h-3.286v2.079h2.966v0.464h-2.966v2.287h3.366v0.464H117.715z"/>
		</g>
		<g>
			<path d="M139.139,45.162v-5.757h3.71v0.464h-3.167v2.079h2.878v0.464h-2.878v2.75H139.139z"/>
		</g>
		<g>
			<path d="M162.014,42.651v-0.463h2.463v2.974h-0.464v-0.983c-0.4,0.688-1.016,1.135-2.151,1.135c-1.455,0-2.519-1.016-2.519-3.062
				c0-1.687,0.848-2.998,2.663-2.998c1.207,0,2.159,0.592,2.407,1.823h-0.56c-0.192-0.863-0.951-1.359-1.807-1.359
				c-1.52,0-2.159,1.119-2.159,2.75c0,1.271,0.768,2.382,2.087,2.382c0.624,0,1.359-0.264,1.735-1.007
				c0.184-0.36,0.24-0.759,0.248-1.191H162.014z"/>
		</g>
		<g>
			<path d="M181.042,45.162v-5.757h0.544v2.471h3.406v-2.471h0.544v5.757h-0.544V42.34h-3.406v2.822H181.042z"/>
		</g>
		<g>
			<path d="M204.279,45.162v-5.757h0.544v5.757H204.279z"/>
		</g>
		<g>
			<path d="M224.53,43.339c-0.008,0.719,0.032,1.479,1.039,1.479c0.744,0,1.016-0.44,1.016-1.248v-4.166h0.544v4.182
				c0,1.111-0.512,1.727-1.623,1.727c-1.295,0-1.52-0.951-1.52-1.975H224.53z"/>
		</g>
		<g>
			<path d="M55.922,25.965h-1.455v-0.335c0.855-0.056,1.391-0.144,1.559-1.111h0.408v5.637h-0.512V25.965z"/>
		</g>
		<g>
			<path d="M36.374,27.437c0,1.495-0.352,2.83-1.903,2.83c-1.559,0-1.911-1.327-1.911-2.886c0-1.423,0.288-2.862,1.911-2.862
				C36.142,24.518,36.374,26.125,36.374,27.437z M34.455,24.95c-1.119,0-1.383,1.239-1.383,2.487c0,1.447,0.32,2.398,1.399,2.398
				c1.215,0,1.391-1.319,1.391-2.455C35.862,26.165,35.646,24.95,34.455,24.95z"/>
		</g>
		<g>
			<path d="M75.319,26.365c0-1.111,0.72-1.847,1.831-1.847c1.135,0,1.735,0.695,1.735,1.559c0,1.495-1.615,1.871-2.455,2.511
				c-0.368,0.28-0.711,0.6-0.736,1.135h3.143v0.432h-3.686c0.008-0.536,0.08-0.959,0.44-1.375c1.175-1.359,2.734-1.343,2.734-2.67
				c0-0.735-0.544-1.159-1.239-1.159c-0.736,0-1.255,0.656-1.224,1.415H75.319z"/>
		</g>
		<g>
			<path d="M97.794,27.021c0.951,0.008,1.615-0.216,1.615-1.08c0-0.695-0.552-0.991-1.2-0.991c-0.719,0-1.207,0.503-1.207,1.208
				h-0.512c0-0.504,0.168-0.912,0.543-1.264c0.352-0.32,0.815-0.375,1.279-0.375c0.888,0,1.607,0.448,1.607,1.391
				c0,0.583-0.256,1.023-0.8,1.255c0.815,0.256,1,0.872,1,1.391c0,0.928-0.656,1.679-1.815,1.711c-1.303,0-1.887-0.432-2.007-1.743
				h0.512c0,0.856,0.567,1.312,1.399,1.312c0.816,0,1.431-0.607,1.399-1.271c-0.032-0.911-0.824-1.199-1.815-1.127V27.021z"/>
		</g>
		<g>
			<path d="M120.149,28.764h-2.575v-0.44l2.623-3.75h0.463v3.758h0.784v0.432h-0.784v1.391h-0.512V28.764z M118.079,28.332h2.071
				v-2.991L118.079,28.332z"/>
		</g>
		<g>
			<path d="M139.338,28.408c0.104,0.76,0.656,1.144,1.391,1.144c0.84,0,1.352-0.64,1.352-1.439c0-0.839-0.544-1.431-1.399-1.431
				c-0.503,0-0.912,0.176-1.223,0.584l-0.424-0.056l0.456-2.918h2.798v0.432h-2.366l-0.352,1.895
				c0.44-0.288,0.728-0.368,1.239-0.368c1.032,0,1.783,0.704,1.783,1.863c0,1.184-0.855,1.871-1.783,1.871
				c-1.063,0-1.895-0.408-1.983-1.575H139.338z"/>
		</g>
		<g>
			<path d="M163.301,25.618c-0.112-0.576-0.472-0.952-1.071-0.952c-1.383,0-1.503,1.487-1.583,2.55
				c0.32-0.432,0.656-0.879,1.479-0.879c1.135,0,1.791,0.688,1.791,1.815c0,1.136-0.664,1.831-1.807,1.831
				c-1.127,0-1.975-0.704-1.975-2.694c0-1.335,0.392-3.054,2.047-3.054c0.888,0,1.543,0.479,1.647,1.383H163.301z M160.838,28.168
				c0,0.632,0.352,1.383,1.279,1.383c0.952,0,1.288-0.735,1.288-1.415c0-0.872-0.416-1.367-1.295-1.367
				C161.318,26.769,160.838,27.409,160.838,28.168z"/>
		</g>
		<g>
			<path d="M181.539,24.29h3.59v0.48c-1.615,1.823-2.223,3.998-2.287,5.101h-0.56c0.112-1.631,1.151-3.742,2.231-5.069h-2.975V24.29
				z"/>
		</g>
		<g>
			<path d="M202.878,25.609c0-0.775,0.72-1.407,1.606-1.375c0.864,0,1.703,0.408,1.703,1.375c0,0.583-0.231,1-0.768,1.263
				c0.616,0.224,1,0.744,1,1.399c0,1.104-0.784,1.711-1.983,1.711c-0.815,0-1.759-0.56-1.759-1.663c0-0.671,0.344-1.231,0.983-1.479
				C203.118,26.497,202.878,26.281,202.878,25.609z M203.19,28.32c0,0.696,0.544,1.231,1.399,1.231c0.743,0,1.319-0.512,1.319-1.263
				c0-0.792-0.6-1.175-1.352-1.175C203.774,27.113,203.19,27.488,203.19,28.32z M203.39,25.681c0,0.696,0.575,1,1.199,1
				c0.615,0,1.087-0.312,1.087-1.111c0-0.567-0.367-0.903-1.144-0.903C203.902,24.666,203.39,25.018,203.39,25.681z"/>
		</g>
		<g>
			<path d="M224.53,28.632c0.12,0.6,0.472,0.919,1.096,0.919c1.335,0,1.52-1.487,1.567-2.502l-0.017-0.016
				c-0.344,0.567-0.847,0.879-1.519,0.879c-1.056,0-1.743-0.72-1.743-1.815c0-1.063,0.584-1.863,1.815-1.863
				c1.519,0,1.975,1.271,1.975,2.846c0,1.911-0.863,2.902-2.055,2.902c-0.88,0-1.552-0.432-1.64-1.351H224.53z M224.426,26.113
				c0,0.855,0.479,1.367,1.304,1.367c0.799,0,1.263-0.64,1.263-1.399c0-0.832-0.472-1.399-1.263-1.415
				C224.866,24.682,224.426,25.234,224.426,26.113z"/>
		</g>
	</g>
	<g>
		<g>
			<path d="M0.647,169.701v-5.757h1.967c0.64,0,1.239,0.04,1.775,0.432c0.759,0.552,0.959,1.671,0.959,2.439
				c0,0.759-0.168,1.607-0.696,2.183c-0.528,0.592-1.279,0.704-2.039,0.704H0.647z M1.191,169.237h1.303
				c0.488,0,0.912-0.032,1.351-0.264c0.768-0.392,0.959-1.375,0.959-2.159c0-0.84-0.184-1.759-0.991-2.191
				c-0.344-0.184-0.84-0.216-1.319-0.216H1.191V169.237z"/>
			<path d="M6.631,168.406c0.152,0.712,0.52,0.976,1.239,0.976c0.696,0,1.023-0.368,1.023-0.768c0-1.199-2.654-0.352-2.654-1.983
				c0-0.688,0.536-1.183,1.455-1.183c0.896,0,1.479,0.368,1.599,1.303H8.806c-0.088-0.64-0.52-0.872-1.119-0.872
				c-0.608,0-0.936,0.288-0.936,0.711c0,1.127,2.654,0.424,2.654,2.015c0,0.792-0.711,1.207-1.687,1.207s-1.535-0.624-1.575-1.407
				H6.631z"/>
			<path d="M11.807,169.717c-0.112,0.024-0.32,0.096-0.552,0.096c-0.472,0-0.735-0.208-0.735-0.823v-3.03H9.936v-0.4h0.583v-1.151
				h0.479v1.151h0.776v0.4h-0.776v2.838c0,0.408,0.016,0.583,0.416,0.583c0.128,0,0.264-0.024,0.392-0.056V169.717z"/>
		</g>
		<g>
			<path d="M120.863,4.025V6.64h-0.543V0.883h2.255c1.263,0,1.959,0.448,1.959,1.511c0,0.728-0.272,1.111-0.936,1.407
				c0.68,0.232,0.719,0.952,0.735,1.559c0.024,0.872,0.096,1.111,0.24,1.223V6.64h-0.6c-0.224-0.392-0.168-1.471-0.256-1.911
				c-0.128-0.624-0.6-0.704-1.143-0.704H120.863z M122.558,3.562c0.808,0,1.431-0.336,1.431-1.144c0-0.863-0.671-1.071-1.399-1.071
				h-1.728v2.215H122.558z"/>
			<path d="M125.887,4.681c-0.008,0.896,0.472,1.639,1.391,1.639c0.624,0,1.111-0.344,1.255-0.952h0.536
				c-0.24,0.784-0.735,1.383-1.791,1.383c-1.327,0-1.903-0.943-1.903-2.167c0-1.208,0.72-2.199,1.903-2.199
				c1.135,0,1.831,0.808,1.823,2.295H125.887z M128.59,4.281c0-0.807-0.448-1.463-1.312-1.463c-0.848,0-1.295,0.68-1.391,1.463
				H128.59z"/>
			<path d="M131.942,4.226c0.176-0.016,0.472-0.064,0.632-0.136c0.16-0.072,0.176-0.288,0.176-0.432
				c0-0.488-0.288-0.839-1.031-0.839c-0.664,0-1.12,0.216-1.208,0.936h-0.488c0.072-0.976,0.8-1.368,1.703-1.368
				c0.839,0,1.503,0.328,1.503,1.288v2.255c0,0.375,0.096,0.463,0.503,0.32v0.375c-0.072,0.024-0.24,0.08-0.375,0.08
				c-0.08,0-0.144-0.008-0.216-0.024c-0.32-0.048-0.376-0.328-0.384-0.616c-0.4,0.448-0.944,0.688-1.543,0.688
				c-0.728,0-1.383-0.392-1.383-1.191c0-0.695,0.48-1.119,1.447-1.247L131.942,4.226z M132.75,4.465
				c-0.408,0.168-0.824,0.2-1.239,0.232c-0.728,0.056-1.167,0.32-1.167,0.879c0,0.504,0.44,0.744,0.896,0.744
				c0.76,0,1.511-0.368,1.511-1.208V4.465z"/>
			<path d="M137.686,0.883h0.48V6.64h-0.48V5.913h-0.016c-0.28,0.543-0.911,0.839-1.439,0.839c-1.335,0-1.871-0.951-1.871-2.175
				c0-1.159,0.583-2.191,1.847-2.191c0.583,0,1.175,0.272,1.479,0.776V0.883z M136.286,2.818c-0.991,0-1.455,0.839-1.415,1.879
				c0.008,1.04,0.608,1.623,1.415,1.623c0.904,0,1.399-0.768,1.399-1.767C137.686,3.618,137.158,2.818,136.286,2.818z"/>
			<path d="M139.423,6.64V0.883h2.103c1.495,0,1.879,0.744,1.879,1.607c0,1.288-1.144,1.607-2.207,1.607h-1.231V6.64H139.423z
				 M141.214,3.634c1.016,0,1.647-0.208,1.647-1.183c0-0.72-0.464-1.104-1.487-1.104h-1.407v2.287H141.214z"/>
			<path d="M143.991,4.569c0-1.208,0.64-2.183,1.919-2.183c1.295,0,1.919,0.968,1.919,2.183c0,1.311-0.759,2.183-1.919,2.183
				C144.855,6.736,143.991,6.017,143.991,4.569z M145.91,2.818c-1.007,0-1.407,0.855-1.407,1.751c0,1.031,0.488,1.751,1.407,1.751
				c1.007,0,1.407-0.864,1.407-1.751C147.31,3.594,146.926,2.818,145.91,2.818z"/>
			<path d="M148.991,5.345c0.152,0.712,0.52,0.976,1.239,0.976c0.696,0,1.023-0.368,1.023-0.768c0-1.199-2.654-0.352-2.654-1.983
				c0-0.688,0.536-1.184,1.455-1.184c0.896,0,1.479,0.368,1.599,1.304h-0.488c-0.088-0.64-0.52-0.872-1.119-0.872
				c-0.608,0-0.936,0.288-0.936,0.711c0,1.127,2.654,0.424,2.654,2.015c0,0.792-0.711,1.207-1.687,1.207s-1.535-0.624-1.575-1.407
				H148.991z"/>
			<path d="M156.773,4.098h-3.998v-0.48h3.998V4.098z M156.773,5.649h-3.998v-0.48h3.998V5.649z"/>
			<path d="M158.207,5.177c0.104,0.76,0.656,1.144,1.391,1.144c0.84,0,1.352-0.64,1.352-1.439c0-0.84-0.544-1.432-1.399-1.432
				c-0.504,0-0.912,0.176-1.223,0.584l-0.424-0.056l0.456-2.918h2.799v0.432h-2.367l-0.352,1.895
				c0.44-0.288,0.728-0.368,1.239-0.368c1.031,0,1.783,0.704,1.783,1.863c0,1.183-0.855,1.871-1.783,1.871
				c-1.063,0-1.895-0.408-1.983-1.575H158.207z"/>
		</g>
	</g>
	<g>
		<g>
			<path d="M73.079,211.556v-5.757h2.079c1.351,0,1.887,0.583,1.887,1.447c0,0.799-0.456,1.159-0.919,1.239v0.016
				c0.792,0.12,1.184,0.672,1.184,1.432c0,1.199-0.784,1.623-1.879,1.623H73.079z M73.623,208.341h1.375
				c1.136,0,1.503-0.399,1.503-1.095c0-0.72-0.432-0.983-1.623-0.983h-1.255V208.341z M73.623,211.092h1.383
				c1.199,0,1.759-0.16,1.759-1.159c0-0.952-0.671-1.128-1.695-1.128h-1.447V211.092z"/>
			<path d="M78.311,212.683c0.128,0.024,0.264,0.048,0.4,0.048c0.544,0,0.624-0.783,0.808-1.143l-1.607-4.174h0.536l1.327,3.558
				l1.327-3.558h0.52l-1.543,4.085c-0.392,1.04-0.647,1.688-1.311,1.688c-0.168,0-0.328-0.024-0.456-0.056V212.683z"/>
			<path d="M83.798,211.571c-0.112,0.024-0.32,0.096-0.552,0.096c-0.472,0-0.735-0.207-0.735-0.823v-3.03h-0.584v-0.399h0.584
				v-1.151h0.479v1.151h0.776v0.399h-0.776v2.839c0,0.407,0.016,0.583,0.416,0.583c0.128,0,0.264-0.023,0.392-0.056V211.571z"/>
			<path d="M84.863,209.597c-0.008,0.896,0.472,1.639,1.391,1.639c0.624,0,1.111-0.344,1.255-0.951h0.536
				c-0.24,0.783-0.735,1.383-1.791,1.383c-1.327,0-1.903-0.943-1.903-2.166c0-1.208,0.72-2.199,1.903-2.199
				c1.135,0,1.831,0.808,1.823,2.295H84.863z M87.566,209.196c0-0.807-0.448-1.463-1.312-1.463c-0.848,0-1.295,0.68-1.391,1.463
				H87.566z"/>
			<path d="M89.312,209.836c0.088,1.032,0.775,1.407,1.655,1.407c1.032,0,1.463-0.56,1.463-1.19c0-1.783-3.51-0.601-3.51-2.863
				c0-0.799,0.664-1.543,1.951-1.543c1.295,0,1.943,0.784,1.935,1.72h-0.52c0-0.88-0.68-1.256-1.415-1.256
				c-1.104,0-1.503,0.68-1.407,1.271c0.248,1.487,3.51,0.416,3.51,2.646c0,1.056-0.776,1.679-2.103,1.679
				c-1.199,0-2.087-0.623-2.087-1.871H89.312z"/>
			<path d="M93.951,206.51v-0.711h0.528v0.711H93.951z M93.975,211.556v-4.142h0.48v4.142H93.975z"/>
			<path d="M95.367,211.556v-0.424l2.75-3.318h-2.566v-0.399h3.182v0.424l-2.75,3.317h2.854v0.4H95.367z"/>
			<path d="M99.975,209.597c-0.008,0.896,0.472,1.639,1.391,1.639c0.624,0,1.111-0.344,1.255-0.951h0.536
				c-0.24,0.783-0.735,1.383-1.791,1.383c-1.327,0-1.903-0.943-1.903-2.166c0-1.208,0.72-2.199,1.903-2.199
				c1.135,0,1.831,0.808,1.823,2.295H99.975z M102.678,209.196c0-0.807-0.448-1.463-1.312-1.463c-0.848,0-1.295,0.68-1.391,1.463
				H102.678z"/>
			<path d="M104.735,208.94v2.615h-0.543v-5.757h2.255c1.263,0,1.959,0.447,1.959,1.511c0,0.728-0.272,1.111-0.936,1.407
				c0.68,0.232,0.719,0.952,0.735,1.56c0.024,0.871,0.096,1.111,0.24,1.223v0.057h-0.6c-0.224-0.392-0.168-1.472-0.256-1.911
				c-0.128-0.624-0.6-0.704-1.143-0.704H104.735z M106.43,208.478c0.808,0,1.431-0.336,1.431-1.144c0-0.863-0.671-1.071-1.399-1.071
				h-1.728v2.215H106.43z"/>
			<path d="M109.759,209.597c-0.008,0.896,0.472,1.639,1.391,1.639c0.624,0,1.111-0.344,1.255-0.951h0.536
				c-0.24,0.783-0.735,1.383-1.791,1.383c-1.327,0-1.903-0.943-1.903-2.166c0-1.208,0.72-2.199,1.903-2.199
				c1.135,0,1.831,0.808,1.823,2.295H109.759z M112.462,209.196c0-0.807-0.448-1.463-1.312-1.463c-0.848,0-1.295,0.68-1.391,1.463
				H112.462z"/>
			<path d="M114.191,210.26c0.152,0.712,0.52,0.976,1.239,0.976c0.696,0,1.023-0.367,1.023-0.768c0-1.199-2.654-0.352-2.654-1.982
				c0-0.688,0.536-1.184,1.455-1.184c0.896,0,1.479,0.368,1.599,1.304h-0.488c-0.088-0.64-0.52-0.872-1.119-0.872
				c-0.608,0-0.936,0.288-0.936,0.712c0,1.127,2.654,0.424,2.654,2.015c0,0.792-0.711,1.207-1.687,1.207s-1.535-0.623-1.575-1.407
				H114.191z"/>
			<path d="M121.973,209.013h-3.998v-0.479h3.998V209.013z M121.973,210.564h-3.998v-0.48h3.998V210.564z"/>
			<path d="M123.167,207.766c0-1.111,0.72-1.847,1.831-1.847c1.135,0,1.735,0.695,1.735,1.559c0,1.495-1.615,1.871-2.455,2.511
				c-0.368,0.28-0.711,0.6-0.735,1.136h3.142v0.432H123c0.008-0.536,0.08-0.96,0.44-1.375c1.175-1.359,2.734-1.344,2.734-2.671
				c0-0.735-0.544-1.159-1.239-1.159c-0.736,0-1.255,0.655-1.224,1.415H123.167z"/>
			<path d="M128.007,210.316c0.12,0.6,0.472,0.919,1.096,0.919c1.335,0,1.519-1.487,1.567-2.502l-0.016-0.017
				c-0.344,0.568-0.847,0.88-1.519,0.88c-1.055,0-1.743-0.72-1.743-1.815c0-1.063,0.584-1.862,1.815-1.862
				c1.519,0,1.975,1.271,1.975,2.846c0,1.911-0.863,2.902-2.055,2.902c-0.88,0-1.551-0.432-1.639-1.351H128.007z M127.903,207.798
				c0,0.855,0.48,1.367,1.304,1.367c0.799,0,1.263-0.64,1.263-1.399c0-0.832-0.472-1.399-1.263-1.415
				C128.343,206.366,127.903,206.918,127.903,207.798z"/>
			<path d="M135.951,205.646c-0.76,1.104-1.224,2.398-1.224,3.742c0,1.327,0.488,2.599,1.224,3.694h-0.408
				c-0.879-1.216-1.367-2.215-1.367-3.734c0-1.463,0.503-2.551,1.367-3.702H135.951z"/>
			<path d="M137.191,210.092c0.104,0.76,0.656,1.144,1.391,1.144c0.84,0,1.352-0.64,1.352-1.438c0-0.84-0.544-1.432-1.399-1.432
				c-0.504,0-0.912,0.176-1.223,0.584l-0.424-0.057l0.456-2.918h2.799v0.432h-2.367l-0.352,1.895
				c0.44-0.287,0.728-0.367,1.239-0.367c1.031,0,1.783,0.703,1.783,1.863c0,1.183-0.855,1.87-1.783,1.87
				c-1.063,0-1.895-0.407-1.983-1.575H137.191z"/>
			<path d="M145.47,207.558h0.48v1.759h1.759v0.48h-1.759v1.759h-0.48v-1.759h-1.759v-0.48h1.759V207.558z"/>
			<path d="M151.127,207.766c0-1.111,0.72-1.847,1.831-1.847c1.135,0,1.735,0.695,1.735,1.559c0,1.495-1.615,1.871-2.455,2.511
				c-0.368,0.28-0.711,0.6-0.735,1.136h3.142v0.432h-3.686c0.008-0.536,0.08-0.96,0.44-1.375c1.175-1.359,2.734-1.344,2.734-2.671
				c0-0.735-0.544-1.159-1.239-1.159c-0.736,0-1.255,0.655-1.224,1.415H151.127z"/>
			<path d="M159.646,207.558h0.48v1.759h1.759v0.48h-1.759v1.759h-0.48v-1.759h-1.759v-0.48h1.759V207.558z"/>
			<path d="M167.166,207.366h-1.455v-0.336c0.855-0.057,1.391-0.145,1.559-1.111h0.408v5.637h-0.512V207.366z"/>
			<path d="M173.326,208.837c0,1.495-0.353,2.83-1.903,2.83c-1.559,0-1.911-1.327-1.911-2.886c0-1.424,0.288-2.862,1.911-2.862
				C173.093,205.919,173.326,207.525,173.326,208.837z M171.407,206.351c-1.12,0-1.383,1.239-1.383,2.486
				c0,1.447,0.32,2.398,1.399,2.398c1.215,0,1.392-1.319,1.392-2.454C172.814,207.565,172.597,206.351,171.407,206.351z"/>
			<path d="M178.27,207.558h0.479v1.759h1.76v0.48h-1.76v1.759h-0.479v-1.759h-1.759v-0.48h1.759V207.558z"/>
			<path d="M183.927,207.766c0-1.111,0.72-1.847,1.831-1.847c1.135,0,1.734,0.695,1.734,1.559c0,1.495-1.615,1.871-2.454,2.511
				c-0.368,0.28-0.712,0.6-0.735,1.136h3.142v0.432h-3.686c0.008-0.536,0.08-0.96,0.439-1.375c1.176-1.359,2.734-1.344,2.734-2.671
				c0-0.735-0.544-1.159-1.239-1.159c-0.735,0-1.255,0.655-1.224,1.415H183.927z"/>
			<path d="M192.447,207.558h0.479v1.759h1.759v0.48h-1.759v1.759h-0.479v-1.759h-1.76v-0.48h1.76V207.558z"/>
			<path d="M199.966,207.366h-1.455v-0.336c0.855-0.057,1.391-0.145,1.559-1.111h0.408v5.637h-0.512V207.366z"/>
			<path d="M206.125,208.837c0,1.495-0.353,2.83-1.903,2.83c-1.56,0-1.911-1.327-1.911-2.886c0-1.424,0.288-2.862,1.911-2.862
				C205.893,205.919,206.125,207.525,206.125,208.837z M204.207,206.351c-1.12,0-1.384,1.239-1.384,2.486
				c0,1.447,0.32,2.398,1.399,2.398c1.215,0,1.392-1.319,1.392-2.454C205.614,207.565,205.397,206.351,204.207,206.351z"/>
			<path d="M206.895,213.083c0.76-1.104,1.224-2.399,1.224-3.742c0-1.327-0.487-2.599-1.224-3.694h0.408
				c0.879,1.216,1.367,2.215,1.367,3.734c0,1.463-0.504,2.551-1.367,3.702H206.895z"/>
		</g>
	</g>
	<g>
		<g>
			<polyline class="st0" points="244.246,43.881 252.369,43.881 252.369,37.839 			"/>
			<g>
				<polygon points="244.975,46.374 240.658,43.881 244.975,41.388 				"/>
			</g>
		</g>
	</g>
	<g>
		<path d="M32.484,63.686v-5.757h0.543v2.982l2.951-2.982h0.616l-2.271,2.295l2.67,3.462H36.33l-2.398-3.126l-0.904,0.904v2.223
			H32.484z"/>
	</g>
	<g>
		<path d="M54.155,63.686v-5.757h0.544v5.293h3.086v0.464H54.155z"/>
	</g>
	<g>
		<path d="M74.283,63.686v-5.757h0.832l1.887,5.077h0.016l1.854-5.077h0.824v5.757h-0.543v-5.133h-0.016l-1.887,5.133h-0.512
			l-1.895-5.133h-0.016v5.133H74.283z"/>
	</g>
	<g>
		<path d="M96.555,58.665h-0.016v5.021h-0.543v-5.757h0.615l3.326,5.029h0.016v-5.029h0.544v5.757h-0.632L96.555,58.665z"/>
	</g>
	<g>
		<path d="M119.478,57.494c1.799,0,2.71,1.351,2.71,3.038c0,1.655-0.911,3.022-2.687,3.022c-1.775,0-2.678-1.367-2.678-3.022
			C116.815,58.853,117.759,57.494,119.478,57.494z M121.645,60.532c0-1.599-0.824-2.574-2.151-2.574
			c-1.479,0-2.127,1.239-2.127,2.574c0,1.359,0.64,2.559,2.143,2.559C121.005,63.09,121.645,61.875,121.645,60.532z"/>
	</g>
	<g>
		<path d="M138.951,63.402v-5.757h2.103c1.495,0,1.879,0.744,1.879,1.607c0,1.288-1.144,1.607-2.207,1.607h-1.231v2.542H138.951z
			 M140.742,60.396c1.016,0,1.647-0.208,1.647-1.184c0-0.719-0.464-1.103-1.487-1.103h-1.407v2.287H140.742z"/>
	</g>
	<g>
		<path d="M164.572,63.45l-0.304,0.368l-0.848-0.655c-0.392,0.248-0.872,0.392-1.439,0.392c-1.775,0-2.679-1.367-2.679-3.022
			c0-1.599,0.864-3.038,2.655-3.038c1.615,0,2.71,1.079,2.71,3.038c0,0.928-0.288,1.767-0.864,2.327L164.572,63.45z M163.405,62.547
			c0.488-0.464,0.72-1.215,0.72-2.015c0-1.719-0.919-2.574-2.151-2.574c-1.479,0-2.127,1.247-2.127,2.574
			c0,1.367,0.64,2.559,2.143,2.559c0.4,0,0.736-0.096,1.007-0.256l-0.655-0.503l0.288-0.376L163.405,62.547z"/>
	</g>
	<g>
		<path d="M181.806,60.788v2.615h-0.544v-5.757h2.255c1.264,0,1.959,0.448,1.959,1.511c0,0.728-0.271,1.111-0.936,1.407
			c0.68,0.232,0.72,0.951,0.735,1.559c0.024,0.872,0.097,1.111,0.24,1.223v0.056h-0.6c-0.224-0.392-0.168-1.471-0.256-1.911
			c-0.128-0.624-0.6-0.704-1.144-0.704H181.806z M183.501,60.324c0.808,0,1.431-0.336,1.431-1.144c0-0.864-0.671-1.071-1.399-1.071
			h-1.727v2.215H183.501z"/>
	</g>
	<g>
		<path d="M202.979,61.683c0.088,1.032,0.775,1.407,1.655,1.407c1.031,0,1.463-0.56,1.463-1.191c0-1.783-3.51-0.6-3.51-2.862
			c0-0.799,0.663-1.543,1.95-1.543c1.296,0,1.943,0.784,1.936,1.719h-0.521c0-0.879-0.679-1.255-1.415-1.255
			c-1.104,0-1.503,0.68-1.407,1.271c0.248,1.487,3.511,0.416,3.511,2.646c0,1.056-0.776,1.679-2.104,1.679
			c-1.199,0-2.087-0.624-2.087-1.871H202.979z"/>
	</g>
	<g>
		<path d="M223.714,57.646h4.189v0.464h-1.823v5.293h-0.544v-5.293h-1.822V57.646z"/>
	</g>
	<g>
		<g>
			<polyline class="st0" points="244.246,62.121 252.369,62.121 252.369,56.079 			"/>
			<g>
				<polygon points="244.975,64.614 240.658,62.121 244.975,59.628 				"/>
			</g>
		</g>
	</g>
	<g>
		<path d="M32.24,76.169h0.543v3.43c0,1.423,0.512,2.015,1.687,2.015c1.24,0,1.687-0.655,1.687-2.015v-3.43h0.544v3.59
			c0,1.496-0.744,2.319-2.231,2.319c-1.503,0-2.23-0.848-2.23-2.319V76.169z"/>
	</g>
	<g>
		<path d="M53.432,76.169H54l1.735,5.117l1.727-5.117h0.567l-1.999,5.757h-0.6L53.432,76.169z"/>
	</g>
	<g>
		<path d="M78.601,81.158h0.016l1.255-4.989h0.56l-1.511,5.757h-0.6l-1.335-5.085H76.97l-1.335,5.085h-0.6l-1.487-5.757h0.544
			l1.239,4.989h0.016l1.335-4.989h0.608L78.601,81.158z"/>
	</g>
	<g>
		<path d="M98.238,79.383l-1.671,2.542h-0.616l1.983-2.958l-1.903-2.798h0.631l1.575,2.423l1.583-2.423h0.632l-1.887,2.798
			l1.975,2.958h-0.624L98.238,79.383z"/>
	</g>
	<g>
		<path d="M119.482,78.66l1.735-2.774h0.631l-2.087,3.246v2.511h-0.543v-2.471l-2.055-3.286h0.624L119.482,78.66z"/>
	</g>
	<g>
		<path d="M138.575,81.642v-0.456l3.686-4.837h-3.375v-0.464h4.046v0.456l-3.686,4.837h3.71v0.464H138.575z"/>
	</g>
	<g>
		<path d="M159.483,81.642l2.263-5.757h0.616l2.207,5.757h-0.56l-0.664-1.807h-2.623l-0.68,1.807H159.483z M160.906,79.371h2.255
			l-1.127-3.022L160.906,79.371z"/>
	</g>
	<g>
		<path d="M181.27,81.642v-5.757h2.079c1.352,0,1.887,0.583,1.887,1.447c0,0.799-0.455,1.159-0.919,1.239v0.016
			c0.791,0.12,1.184,0.671,1.184,1.431c0,1.199-0.784,1.623-1.879,1.623H181.27z M181.814,78.428h1.375
			c1.136,0,1.504-0.399,1.504-1.095c0-0.72-0.432-0.983-1.623-0.983h-1.256V78.428z M181.814,81.178h1.384
			c1.199,0,1.759-0.16,1.759-1.159c0-0.952-0.672-1.127-1.695-1.127h-1.447V81.178z"/>
	</g>
	<g>
		<path d="M206.397,77.556c-0.224-0.983-0.832-1.359-1.815-1.359c-1.391,0-1.99,1.191-1.99,2.55c0,1.288,0.472,2.583,2.038,2.583
			c0.992,0,1.607-0.671,1.823-1.583h0.567c-0.256,1.111-0.951,2.047-2.494,2.047c-1.775,0-2.479-1.399-2.479-3.03
			c0-2.199,1.151-3.03,2.679-3.03c1.183,0,2.047,0.632,2.23,1.823H206.397z"/>
	</g>
	<g>
		<path d="M223.57,81.642v-5.757h1.968c0.64,0,1.239,0.04,1.774,0.432c0.76,0.552,0.96,1.671,0.96,2.439
			c0,0.759-0.168,1.607-0.696,2.183c-0.527,0.592-1.279,0.704-2.038,0.704H223.57z M224.114,81.178h1.304
			c0.487,0,0.911-0.032,1.351-0.264c0.768-0.392,0.96-1.375,0.96-2.159c0-0.84-0.184-1.759-0.991-2.191
			c-0.344-0.184-0.84-0.216-1.319-0.216h-1.304V81.178z"/>
	</g>
	<g>
		<g>
			<polyline class="st0" points="244.246,80.361 252.369,80.361 252.369,74.319 			"/>
			<g>
				<polygon points="244.975,82.854 240.658,80.361 244.975,77.868 				"/>
			</g>
		</g>
	</g>
	<g>
		<path d="M32.676,100.166v-5.757h3.83v0.464H33.22v2.079h2.966v0.464H33.22v2.287h3.366v0.464H32.676z"/>
	</g>
	<g>
		<path d="M54.1,100.166v-5.757h3.71v0.464h-3.167v2.079h2.878v0.464h-2.878v2.75H54.1z"/>
	</g>
	<g>
		<path d="M76.974,97.655v-0.463h2.463v2.974h-0.464v-0.983c-0.4,0.688-1.016,1.135-2.151,1.135c-1.455,0-2.519-1.016-2.519-3.062
			c0-1.687,0.848-2.998,2.663-2.998c1.207,0,2.159,0.592,2.407,1.823h-0.56c-0.192-0.863-0.951-1.359-1.807-1.359
			c-1.52,0-2.159,1.119-2.159,2.75c0,1.271,0.768,2.382,2.087,2.382c0.624,0,1.359-0.264,1.735-1.007
			c0.184-0.36,0.24-0.759,0.248-1.191H76.974z"/>
	</g>
	<g>
		<path d="M96.003,100.166v-5.757h0.544v2.471h3.406v-2.471h0.544v5.757h-0.544v-2.822h-3.406v2.822H96.003z"/>
	</g>
	<g>
		<path d="M119.239,99.882v-5.757h0.544v5.757H119.239z"/>
	</g>
	<g>
		<path d="M139.491,98.06c-0.008,0.719,0.032,1.479,1.039,1.479c0.744,0,1.016-0.44,1.016-1.248v-4.166h0.544v4.182
			c0,1.111-0.512,1.727-1.623,1.727c-1.295,0-1.52-0.951-1.52-1.975H139.491z"/>
	</g>
	<g>
		<path d="M160.043,99.882v-5.757h0.543v2.982l2.951-2.982h0.616l-2.271,2.295l2.67,3.462h-0.664l-2.398-3.126l-0.904,0.904v2.223
			H160.043z"/>
	</g>
	<g>
		<path d="M181.714,99.882v-5.757h0.544v5.293h3.086v0.464H181.714z"/>
	</g>
	<g>
		<path d="M201.842,99.882v-5.757h0.832l1.887,5.077h0.017l1.854-5.077h0.823v5.757h-0.543v-5.133h-0.017l-1.887,5.133h-0.512
			l-1.895-5.133h-0.017v5.133H201.842z"/>
	</g>
	<g>
		<path d="M224.114,94.861h-0.016v5.021h-0.544v-5.757h0.615l3.326,5.029h0.017v-5.029h0.544v5.757h-0.632L224.114,94.861z"/>
	</g>
	<g>
		<g>
			<polyline class="st0" points="244.246,98.601 252.369,98.601 252.369,92.558 			"/>
			<g>
				<polygon points="244.975,101.094 240.658,98.601 244.975,96.108 				"/>
			</g>
		</g>
	</g>
	<g>
		<path d="M34.438,112.497c1.799,0,2.71,1.351,2.71,3.038c0,1.655-0.911,3.022-2.687,3.022c-1.775,0-2.678-1.367-2.678-3.022
			C31.776,113.856,32.72,112.497,34.438,112.497z M36.605,115.535c0-1.599-0.824-2.574-2.151-2.574
			c-1.479,0-2.127,1.239-2.127,2.574c0,1.359,0.64,2.559,2.143,2.559C35.966,118.094,36.605,116.878,36.605,115.535z"/>
	</g>
	<g>
		<path d="M53.912,118.406v-5.757h2.103c1.495,0,1.879,0.744,1.879,1.607c0,1.288-1.144,1.607-2.207,1.607h-1.231v2.542H53.912z
			 M55.703,115.399c1.016,0,1.647-0.208,1.647-1.184c0-0.719-0.464-1.103-1.487-1.103h-1.407v2.287H55.703z"/>
	</g>
	<g>
		<path d="M79.533,118.454l-0.304,0.368l-0.848-0.655c-0.392,0.248-0.872,0.392-1.439,0.392c-1.775,0-2.679-1.367-2.679-3.022
			c0-1.599,0.864-3.038,2.655-3.038c1.615,0,2.71,1.079,2.71,3.038c0,0.928-0.288,1.767-0.864,2.327L79.533,118.454z M78.365,117.55
			c0.488-0.464,0.72-1.215,0.72-2.015c0-1.719-0.919-2.574-2.151-2.574c-1.479,0-2.127,1.247-2.127,2.574
			c0,1.367,0.64,2.559,2.143,2.559c0.4,0,0.736-0.096,1.007-0.256l-0.655-0.503l0.288-0.376L78.365,117.55z"/>
	</g>
	<g>
		<g>
			<path d="M32.84,151.461v-5.757h3.71v0.464h-3.167v2.079h2.878v0.464h-2.878v2.75H32.84z"/>
		</g>
		<g>
			<path d="M55.715,148.95v-0.463h2.463v2.974h-0.464v-0.983c-0.4,0.688-1.016,1.135-2.151,1.135c-1.455,0-2.519-1.016-2.519-3.062
				c0-1.687,0.848-2.998,2.663-2.998c1.207,0,2.159,0.592,2.407,1.823h-0.56c-0.192-0.863-0.951-1.359-1.807-1.359
				c-1.52,0-2.159,1.119-2.159,2.75c0,1.271,0.768,2.382,2.087,2.382c0.624,0,1.359-0.264,1.735-1.007
				c0.184-0.36,0.24-0.759,0.248-1.191H55.715z"/>
		</g>
		<g>
			<path d="M74.744,151.461v-5.757h0.544v2.471h3.406v-2.471h0.544v5.757h-0.544v-2.822h-3.406v2.822H74.744z"/>
		</g>
		<g>
			<path d="M97.979,151.461v-5.757h0.544v5.757H97.979z"/>
		</g>
		<g>
			<path d="M118.231,149.638c-0.008,0.719,0.032,1.479,1.039,1.479c0.744,0,1.016-0.44,1.016-1.248v-4.166h0.544v4.182
				c0,1.111-0.512,1.727-1.623,1.727c-1.295,0-1.52-0.951-1.52-1.975H118.231z"/>
		</g>
	</g>
	<g>
		<g>
			<polyline class="st0" points="137.947,150.179 146.07,150.179 146.07,144.137 			"/>
			<g>
				<polygon points="138.676,152.673 134.359,150.18 138.676,147.687 				"/>
			</g>
		</g>
	</g>
	<g>
		<path d="M32.484,169.984v-5.757h0.543v2.982l2.951-2.982h0.616l-2.271,2.295l2.67,3.462H36.33l-2.398-3.126l-0.904,0.904v2.223
			H32.484z"/>
	</g>
	<g>
		<path d="M54.155,169.984v-5.757h0.544v5.293h3.086v0.464H54.155z"/>
	</g>
	<g>
		<path d="M74.283,169.984v-5.757h0.832l1.887,5.077h0.016l1.854-5.077h0.824v5.757h-0.543v-5.133h-0.016l-1.887,5.133h-0.512
			l-1.895-5.133h-0.016v5.133H74.283z"/>
	</g>
	<g>
		<path d="M96.555,164.963h-0.016v5.021h-0.543v-5.757h0.615l3.326,5.029h0.016v-5.029h0.544v5.757h-0.632L96.555,164.963z"/>
	</g>
	<g>
		<path d="M119.478,163.792c1.799,0,2.71,1.351,2.71,3.038c0,1.655-0.911,3.022-2.687,3.022c-1.775,0-2.678-1.367-2.678-3.022
			C116.815,165.152,117.759,163.792,119.478,163.792z M121.645,166.831c0-1.599-0.824-2.574-2.151-2.574
			c-1.479,0-2.127,1.239-2.127,2.574c0,1.359,0.64,2.559,2.143,2.559C121.005,169.389,121.645,168.174,121.645,166.831z"/>
	</g>
	<g>
		<path d="M138.951,169.701v-5.757h2.103c1.495,0,1.879,0.744,1.879,1.607c0,1.288-1.144,1.607-2.207,1.607h-1.231v2.542H138.951z
			 M140.742,166.695c1.016,0,1.647-0.208,1.647-1.184c0-0.719-0.464-1.103-1.487-1.103h-1.407v2.287H140.742z"/>
	</g>
	<g>
		<path d="M164.572,169.749l-0.304,0.368l-0.848-0.655c-0.392,0.248-0.872,0.392-1.439,0.392c-1.775,0-2.679-1.367-2.679-3.022
			c0-1.599,0.864-3.038,2.655-3.038c1.615,0,2.71,1.079,2.71,3.038c0,0.928-0.288,1.767-0.864,2.327L164.572,169.749z
			 M163.405,168.846c0.488-0.464,0.72-1.215,0.72-2.015c0-1.719-0.919-2.574-2.151-2.574c-1.479,0-2.127,1.247-2.127,2.574
			c0,1.367,0.64,2.559,2.143,2.559c0.4,0,0.736-0.096,1.007-0.256l-0.655-0.503l0.288-0.376L163.405,168.846z"/>
	</g>
	<g>
		<path d="M181.806,167.086v2.615h-0.544v-5.757h2.255c1.264,0,1.959,0.448,1.959,1.511c0,0.728-0.271,1.111-0.936,1.407
			c0.68,0.232,0.72,0.951,0.735,1.559c0.024,0.872,0.097,1.111,0.24,1.223v0.056h-0.6c-0.224-0.392-0.168-1.471-0.256-1.911
			c-0.128-0.624-0.6-0.704-1.144-0.704H181.806z M183.501,166.623c0.808,0,1.431-0.336,1.431-1.144c0-0.864-0.671-1.071-1.399-1.071
			h-1.727v2.215H183.501z"/>
	</g>
	<g>
		<path d="M202.979,167.982c0.088,1.032,0.775,1.407,1.655,1.407c1.031,0,1.463-0.56,1.463-1.191c0-1.783-3.51-0.6-3.51-2.862
			c0-0.799,0.663-1.543,1.95-1.543c1.296,0,1.943,0.784,1.936,1.719h-0.521c0-0.879-0.679-1.255-1.415-1.255
			c-1.104,0-1.503,0.68-1.407,1.271c0.248,1.487,3.511,0.416,3.511,2.646c0,1.056-0.776,1.679-2.104,1.679
			c-1.199,0-2.087-0.624-2.087-1.871H202.979z"/>
	</g>
	<g>
		<path d="M223.714,163.944h4.189v0.464h-1.823v5.293h-0.544v-5.293h-1.822V163.944z"/>
	</g>
	<g>
		<g>
			<polyline class="st0" points="244.246,168.419 252.369,168.419 252.369,162.377 			"/>
			<g>
				<polygon points="244.975,170.913 240.658,168.42 244.975,165.926 				"/>
			</g>
		</g>
	</g>
	<g>
		<path d="M32.24,182.468h0.543v3.43c0,1.423,0.512,2.015,1.687,2.015c1.24,0,1.687-0.655,1.687-2.015v-3.43h0.544v3.59
			c0,1.496-0.744,2.319-2.231,2.319c-1.503,0-2.23-0.848-2.23-2.319V182.468z"/>
	</g>
	<g>
		<path d="M53.432,182.468H54l1.735,5.117l1.727-5.117h0.567l-1.999,5.757h-0.6L53.432,182.468z"/>
	</g>
	<g>
		<path d="M78.601,187.457h0.016l1.255-4.989h0.56l-1.511,5.757h-0.6l-1.335-5.085H76.97l-1.335,5.085h-0.6l-1.487-5.757h0.544
			l1.239,4.989h0.016l1.335-4.989h0.608L78.601,187.457z"/>
	</g>
	<g>
		<path d="M98.238,185.682l-1.671,2.542h-0.616l1.983-2.958l-1.903-2.798h0.631l1.575,2.423l1.583-2.423h0.632l-1.887,2.798
			l1.975,2.958h-0.624L98.238,185.682z"/>
	</g>
	<g>
		<path d="M119.482,184.958l1.735-2.774h0.631l-2.087,3.246v2.511h-0.543v-2.471l-2.055-3.286h0.624L119.482,184.958z"/>
	</g>
	<g>
		<path d="M138.575,187.941v-0.456l3.686-4.837h-3.375v-0.464h4.046v0.456l-3.686,4.837h3.71v0.464H138.575z"/>
	</g>
	<g>
		<path d="M159.483,187.941l2.263-5.757h0.616l2.207,5.757h-0.56l-0.664-1.807h-2.623l-0.68,1.807H159.483z M160.906,185.67h2.255
			l-1.127-3.022L160.906,185.67z"/>
	</g>
	<g>
		<path d="M181.27,187.941v-5.757h2.079c1.352,0,1.887,0.583,1.887,1.447c0,0.799-0.455,1.159-0.919,1.239v0.016
			c0.791,0.12,1.184,0.671,1.184,1.431c0,1.199-0.784,1.623-1.879,1.623H181.27z M181.814,184.727h1.375
			c1.136,0,1.504-0.399,1.504-1.095c0-0.72-0.432-0.983-1.623-0.983h-1.256V184.727z M181.814,187.477h1.384
			c1.199,0,1.759-0.16,1.759-1.159c0-0.952-0.672-1.127-1.695-1.127h-1.447V187.477z"/>
	</g>
	<g>
		<path d="M206.397,183.855c-0.224-0.983-0.832-1.359-1.815-1.359c-1.391,0-1.99,1.191-1.99,2.55c0,1.288,0.472,2.583,2.038,2.583
			c0.992,0,1.607-0.671,1.823-1.583h0.567c-0.256,1.111-0.951,2.047-2.494,2.047c-1.775,0-2.479-1.399-2.479-3.03
			c0-2.199,1.151-3.03,2.679-3.03c1.183,0,2.047,0.632,2.23,1.823H206.397z"/>
	</g>
	<g>
		<path d="M223.57,187.941v-5.757h1.968c0.64,0,1.239,0.04,1.774,0.432c0.76,0.552,0.96,1.671,0.96,2.439
			c0,0.759-0.168,1.607-0.696,2.183c-0.527,0.592-1.279,0.704-2.038,0.704H223.57z M224.114,187.477h1.304
			c0.487,0,0.911-0.032,1.351-0.264c0.768-0.392,0.96-1.375,0.96-2.159c0-0.84-0.184-1.759-0.991-2.191
			c-0.344-0.184-0.84-0.216-1.319-0.216h-1.304V187.477z"/>
	</g>
	<polygon class="st1" points="108.837,33.321 108.837,51.038 23.842,51.038 23.842,86.471 108.837,86.471 150.281,86.471 
		257.7,86.471 257.7,33.321 	"/>
	<g>
		<path d="M268.954,62.121v-5.757h0.832l1.887,5.077h0.016l1.855-5.077h0.823v5.757h-0.543v-5.133h-0.017l-1.887,5.133h-0.512
			l-1.896-5.133h-0.016v5.133H268.954z"/>
		<path d="M277.473,59.706c0.176-0.016,0.472-0.064,0.632-0.136c0.159-0.072,0.176-0.288,0.176-0.432
			c0-0.488-0.288-0.839-1.031-0.839c-0.664,0-1.12,0.216-1.208,0.936h-0.487c0.072-0.976,0.8-1.368,1.703-1.368
			c0.839,0,1.503,0.328,1.503,1.288v2.255c0,0.375,0.096,0.463,0.504,0.32v0.375c-0.072,0.024-0.24,0.08-0.376,0.08
			c-0.08,0-0.144-0.008-0.216-0.024c-0.32-0.048-0.376-0.328-0.384-0.616c-0.399,0.448-0.943,0.688-1.543,0.688
			c-0.728,0-1.384-0.392-1.384-1.191c0-0.695,0.48-1.119,1.447-1.247L277.473,59.706z M278.281,59.946
			c-0.408,0.168-0.824,0.2-1.239,0.232c-0.728,0.056-1.168,0.32-1.168,0.879c0,0.504,0.44,0.744,0.896,0.744
			c0.76,0,1.512-0.368,1.512-1.208V59.946z"/>
		<path d="M281.457,60.33l-1.287,1.791h-0.583l1.591-2.143l-1.463-1.999h0.591l1.144,1.647l1.176-1.647h0.607l-1.495,1.999
			l1.551,2.143h-0.575L281.457,60.33z"/>
		<path d="M284.625,59.506v2.615h-0.544v-5.757h2.255c1.264,0,1.959,0.448,1.959,1.511c0,0.728-0.271,1.111-0.936,1.407
			c0.68,0.232,0.72,0.952,0.735,1.559c0.024,0.872,0.097,1.111,0.24,1.223v0.056h-0.6c-0.224-0.392-0.168-1.471-0.256-1.911
			c-0.128-0.624-0.6-0.704-1.144-0.704H284.625z M286.321,59.042c0.808,0,1.431-0.336,1.431-1.144c0-0.863-0.671-1.071-1.399-1.071
			h-1.727v2.215H286.321z"/>
		<path d="M289.65,60.162c-0.008,0.896,0.472,1.639,1.392,1.639c0.623,0,1.111-0.344,1.255-0.952h0.536
			c-0.24,0.784-0.735,1.383-1.791,1.383c-1.327,0-1.903-0.943-1.903-2.167c0-1.208,0.72-2.199,1.903-2.199
			c1.135,0,1.831,0.808,1.823,2.295H289.65z M292.353,59.762c0-0.807-0.448-1.463-1.312-1.463c-0.848,0-1.296,0.68-1.392,1.463
			H292.353z"/>
		<path d="M295.705,59.706c0.176-0.016,0.472-0.064,0.632-0.136c0.16-0.072,0.176-0.288,0.176-0.432
			c0-0.488-0.287-0.839-1.031-0.839c-0.663,0-1.119,0.216-1.207,0.936h-0.488c0.072-0.976,0.8-1.368,1.703-1.368
			c0.84,0,1.504,0.328,1.504,1.288v2.255c0,0.375,0.096,0.463,0.503,0.32v0.375c-0.071,0.024-0.239,0.08-0.375,0.08
			c-0.08,0-0.145-0.008-0.217-0.024c-0.319-0.048-0.375-0.328-0.384-0.616c-0.399,0.448-0.943,0.688-1.543,0.688
			c-0.728,0-1.383-0.392-1.383-1.191c0-0.695,0.479-1.119,1.447-1.247L295.705,59.706z M296.512,59.946
			c-0.407,0.168-0.823,0.2-1.239,0.232c-0.728,0.056-1.167,0.32-1.167,0.879c0,0.504,0.439,0.744,0.896,0.744
			c0.76,0,1.511-0.368,1.511-1.208V59.946z"/>
		<path d="M301.449,56.364h0.479v5.757h-0.479v-0.728h-0.017c-0.279,0.543-0.911,0.839-1.438,0.839
			c-1.336,0-1.871-0.951-1.871-2.175c0-1.159,0.583-2.191,1.847-2.191c0.584,0,1.176,0.272,1.479,0.776V56.364z M300.049,58.299
			c-0.991,0-1.455,0.839-1.415,1.879c0.008,1.04,0.607,1.623,1.415,1.623c0.903,0,1.399-0.768,1.399-1.767
			C301.449,59.098,300.92,58.299,300.049,58.299z"/>
		<path d="M303.209,62.121v-5.757h0.544v5.293h3.087v0.464H303.209z"/>
		<path d="M307.634,57.075v-0.711h0.527v0.711H307.634z M307.658,62.121v-4.142h0.48v4.142H307.658z"/>
		<path d="M309.841,62.121h-0.479v-4.142h0.479v0.576c0.384-0.408,0.76-0.688,1.336-0.688c0.504,0,0.967,0.16,1.263,0.592
			c0.2,0.296,0.208,0.608,0.208,0.952v2.71h-0.479v-2.703c0-0.744-0.304-1.119-1.071-1.119c-0.592,0-1,0.384-1.151,0.808
			c-0.096,0.264-0.104,0.496-0.104,0.783V62.121z"/>
		<path d="M314.106,60.162c-0.009,0.896,0.472,1.639,1.391,1.639c0.624,0,1.111-0.344,1.256-0.952h0.535
			c-0.239,0.784-0.735,1.383-1.791,1.383c-1.327,0-1.902-0.943-1.902-2.167c0-1.208,0.72-2.199,1.902-2.199
			c1.136,0,1.831,0.808,1.823,2.295H314.106z M316.808,59.762c0-0.807-0.447-1.463-1.312-1.463c-0.848,0-1.295,0.68-1.391,1.463
			H316.808z"/>
		<path d="M318.874,57.099h-0.016v5.021h-0.544v-5.757h0.615l3.326,5.029h0.017v-5.029h0.544v5.757h-0.632L318.874,57.099z"/>
		<path d="M326.84,57.979h0.479v4.142h-0.479v-0.576c-0.256,0.288-0.607,0.688-1.335,0.688c-1.104,0-1.472-0.664-1.472-1.527v-2.727
			h0.479v2.718c0,0.712,0.312,1.104,1.063,1.104c0.792,0,1.264-0.656,1.264-1.567V57.979z"/>
		<path d="M328.898,62.121h-0.479v-4.142h0.479v0.624h0.016c0.248-0.472,0.744-0.736,1.279-0.736c0.768,0,1.04,0.36,1.216,0.8
			c0.271-0.536,0.76-0.8,1.352-0.8c1.127,0,1.287,0.808,1.287,1.639v2.615h-0.48v-2.862c0-0.592-0.207-0.959-0.887-0.959
			c-0.353,0-0.696,0.152-0.936,0.472c-0.208,0.272-0.272,0.775-0.272,1.119v2.231h-0.479v-2.862c0-0.592-0.208-0.959-0.888-0.959
			c-0.352,0-0.695,0.152-0.936,0.472c-0.208,0.272-0.271,0.775-0.271,1.119V62.121z"/>
		<path d="M339.208,59.578h-3.997v-0.48h3.997V59.578z M339.208,61.129h-3.997v-0.48h3.997V61.129z"/>
		<path d="M341.618,58.986c0.951,0.008,1.615-0.216,1.615-1.08c0-0.695-0.552-0.991-1.2-0.991c-0.719,0-1.207,0.504-1.207,1.207
			h-0.512c0-0.503,0.168-0.911,0.544-1.263c0.352-0.32,0.815-0.375,1.279-0.375c0.888,0,1.607,0.448,1.607,1.391
			c0,0.583-0.256,1.023-0.8,1.255c0.815,0.256,0.999,0.872,0.999,1.391c0,0.927-0.655,1.679-1.814,1.711
			c-1.304,0-1.888-0.432-2.007-1.743h0.512c0,0.855,0.567,1.311,1.398,1.311c0.816,0,1.432-0.608,1.399-1.271
			c-0.032-0.911-0.823-1.199-1.814-1.127V58.986z"/>
	</g>
	<g>
		<path d="M269.513,174.717v2.615h-0.543v-5.757h2.255c1.263,0,1.959,0.448,1.959,1.511c0,0.728-0.272,1.111-0.936,1.407
			c0.68,0.232,0.719,0.952,0.735,1.559c0.023,0.872,0.096,1.111,0.239,1.223v0.056h-0.6c-0.224-0.392-0.168-1.471-0.256-1.911
			c-0.128-0.624-0.6-0.704-1.143-0.704H269.513z M271.208,174.253c0.808,0,1.432-0.336,1.432-1.144c0-0.863-0.672-1.071-1.399-1.071
			h-1.728v2.215H271.208z"/>
		<path d="M274.538,175.373c-0.008,0.896,0.472,1.639,1.392,1.639c0.623,0,1.111-0.344,1.255-0.952h0.536
			c-0.24,0.784-0.735,1.383-1.791,1.383c-1.327,0-1.903-0.943-1.903-2.167c0-1.208,0.72-2.199,1.903-2.199
			c1.135,0,1.831,0.808,1.823,2.295H274.538z M277.241,174.973c0-0.807-0.448-1.463-1.312-1.463c-0.848,0-1.296,0.68-1.392,1.463
			H277.241z"/>
		<path d="M280.593,174.917c0.176-0.016,0.472-0.064,0.632-0.136c0.159-0.072,0.176-0.288,0.176-0.432
			c0-0.488-0.288-0.839-1.031-0.839c-0.664,0-1.12,0.216-1.208,0.936h-0.487c0.072-0.976,0.8-1.368,1.703-1.368
			c0.839,0,1.503,0.328,1.503,1.288v2.255c0,0.375,0.096,0.463,0.504,0.32v0.375c-0.072,0.024-0.24,0.08-0.376,0.08
			c-0.08,0-0.144-0.008-0.216-0.024c-0.32-0.048-0.376-0.328-0.384-0.616c-0.399,0.448-0.943,0.688-1.543,0.688
			c-0.728,0-1.384-0.392-1.384-1.191c0-0.695,0.48-1.119,1.447-1.247L280.593,174.917z M281.401,175.157
			c-0.408,0.168-0.824,0.2-1.239,0.232c-0.728,0.056-1.168,0.32-1.168,0.879c0,0.504,0.44,0.744,0.896,0.744
			c0.76,0,1.512-0.368,1.512-1.208V175.157z"/>
		<path d="M286.336,171.575h0.479v5.757h-0.479v-0.728h-0.017c-0.279,0.543-0.911,0.839-1.438,0.839
			c-1.336,0-1.871-0.951-1.871-2.175c0-1.159,0.583-2.191,1.847-2.191c0.584,0,1.176,0.272,1.479,0.776V171.575z M284.937,173.51
			c-0.991,0-1.455,0.839-1.415,1.879c0.008,1.04,0.607,1.623,1.415,1.623c0.903,0,1.399-0.768,1.399-1.767
			C286.336,174.309,285.808,173.51,284.937,173.51z"/>
		<path d="M288.098,177.332v-5.757h0.544v5.293h3.086v0.464H288.098z"/>
		<path d="M292.522,172.286v-0.711h0.527v0.711H292.522z M292.545,177.332v-4.142h0.48v4.142H292.545z"/>
		<path d="M294.729,177.332h-0.479v-4.142h0.479v0.576c0.384-0.408,0.76-0.688,1.336-0.688c0.504,0,0.967,0.16,1.263,0.592
			c0.2,0.296,0.208,0.608,0.208,0.952v2.71h-0.479v-2.703c0-0.744-0.304-1.119-1.071-1.119c-0.592,0-1,0.384-1.151,0.808
			c-0.096,0.264-0.104,0.496-0.104,0.783V177.332z"/>
		<path d="M298.994,175.373c-0.008,0.896,0.472,1.639,1.392,1.639c0.623,0,1.111-0.344,1.255-0.952h0.536
			c-0.24,0.784-0.735,1.383-1.791,1.383c-1.327,0-1.903-0.943-1.903-2.167c0-1.208,0.72-2.199,1.903-2.199
			c1.135,0,1.831,0.808,1.823,2.295H298.994z M301.697,174.973c0-0.807-0.448-1.463-1.312-1.463c-0.848,0-1.296,0.68-1.392,1.463
			H301.697z"/>
		<path d="M303.762,172.31h-0.017v5.021h-0.543v-5.757h0.615l3.326,5.029h0.016v-5.029h0.544v5.757h-0.632L303.762,172.31z"/>
		<path d="M311.729,173.19h0.479v4.142h-0.479v-0.576c-0.256,0.288-0.608,0.688-1.336,0.688c-1.104,0-1.471-0.664-1.471-1.527
			v-2.727h0.479v2.718c0,0.712,0.312,1.104,1.063,1.104c0.791,0,1.264-0.656,1.264-1.567V173.19z"/>
		<path d="M313.786,177.332h-0.479v-4.142h0.479v0.624h0.016c0.248-0.472,0.744-0.736,1.279-0.736c0.768,0,1.04,0.36,1.216,0.8
			c0.271-0.536,0.76-0.8,1.352-0.8c1.127,0,1.287,0.808,1.287,1.639v2.615h-0.48v-2.862c0-0.592-0.207-0.959-0.887-0.959
			c-0.353,0-0.696,0.152-0.936,0.472c-0.208,0.272-0.272,0.775-0.272,1.119v2.231h-0.479v-2.862c0-0.592-0.208-0.959-0.888-0.959
			c-0.352,0-0.695,0.152-0.936,0.472c-0.208,0.272-0.271,0.775-0.271,1.119V177.332z"/>
		<path d="M324.095,174.789h-3.997v-0.48h3.997V174.789z M324.095,176.34h-3.997v-0.48h3.997V176.34z"/>
		<path d="M326.505,174.197c0.951,0.008,1.615-0.216,1.615-1.08c0-0.695-0.552-0.991-1.2-0.991c-0.719,0-1.207,0.504-1.207,1.207
			h-0.512c0-0.503,0.168-0.911,0.544-1.263c0.352-0.32,0.815-0.375,1.279-0.375c0.888,0,1.607,0.448,1.607,1.391
			c0,0.583-0.256,1.023-0.8,1.255c0.815,0.256,0.999,0.872,0.999,1.391c0,0.927-0.655,1.679-1.814,1.711
			c-1.304,0-1.888-0.432-2.007-1.743h0.512c0,0.855,0.567,1.311,1.398,1.311c0.816,0,1.432-0.608,1.399-1.271
			c-0.032-0.911-0.823-1.199-1.814-1.127V174.197z"/>
	</g>
	<g>
	</g>
	<g>
	</g>
	<g>
	</g>
	<g>
	</g>
	<g>
	</g>
	<g>
	</g>
	<g>
	</g>
	<g>
	</g>
	<g>
	</g>
	<g>
	</g>
	<g>
	</g>
	<g>
	</g>
	<g>
	</g>
	<g>
	</g>
	<g>
	</g>
	<g>
	</g>
	<g>
	</g>
</g>
</svg>
