<?xml version="1.0" encoding="utf-8"?>
<!-- Generator: Adobe Illustrator 28.2.0, SVG Export Plug-In . SVG Version: 6.00 Build 0)  -->
<svg version="1.1" xmlns="http://www.w3.org/2000/svg" xmlns:xlink="http://www.w3.org/1999/xlink" x="0px" y="0px"
	 width="400.408px" height="54.329px" viewBox="0 0 400.408 54.329" style="enable-background:new 0 0 400.408 54.329;"
	 xml:space="preserve">
<style type="text/css">
	.st0{fill:#B3B3B3;}
	.st1{fill:none;stroke:#000000;stroke-width:0.5;stroke-miterlimit:10;}
	.st2{fill:none;stroke:#FF0000;stroke-width:1.5;stroke-miterlimit:10;}
</style>
<g id="レイヤー_1">
	<g>
		<rect x="23.842" y="10.09" class="st0" width="85.039" height="17.716"/>
	</g>
	<g>
		<rect x="236.441" y="10.09" class="st0" width="85.039" height="17.716"/>
	</g>
	<g>
		<g>
			<path d="M320.98,10.59v16.716H24.342V10.59H320.98 M321.48,10.09H23.842v17.716H321.48V10.09L321.48,10.09z"/>
		</g>
		<line class="st1" x1="45.102" y1="27.807" x2="45.102" y2="10.09"/>
		<line class="st1" x1="66.362" y1="27.807" x2="66.362" y2="10.09"/>
		<line class="st1" x1="87.622" y1="27.807" x2="87.622" y2="10.09"/>
		<line class="st1" x1="108.881" y1="27.807" x2="108.881" y2="10.09"/>
		<line class="st1" x1="130.141" y1="27.807" x2="130.141" y2="10.09"/>
		<line class="st1" x1="151.401" y1="27.807" x2="151.401" y2="10.09"/>
		<line class="st1" x1="172.661" y1="27.807" x2="172.661" y2="10.09"/>
	</g>
	<g>
		<line class="st1" x1="193.921" y1="27.807" x2="193.921" y2="10.09"/>
		<line class="st1" x1="215.181" y1="27.807" x2="215.181" y2="10.09"/>
		<line class="st1" x1="236.441" y1="27.807" x2="236.441" y2="10.09"/>
		<line class="st1" x1="257.7" y1="27.807" x2="257.7" y2="10.09"/>
		<line class="st1" x1="278.96" y1="27.807" x2="278.96" y2="10.09"/>
		<line class="st1" x1="300.22" y1="27.807" x2="300.22" y2="10.09"/>
	</g>
	<g>
		<g>
			<path d="M65.862,37.113v16.716h-41.52V37.113H65.862 M66.362,36.613h-42.52v17.716h42.52V36.613L66.362,36.613z"/>
		</g>
		<line class="st1" x1="45.102" y1="54.329" x2="45.102" y2="36.613"/>
	</g>
	<g>
		<g>
			<line class="st1" x1="335.653" y1="18.949" x2="356.964" y2="18.949"/>
			<g>
				<polygon points="355.308,20.994 354.967,20.627 356.773,18.949 354.967,17.27 355.308,16.904 357.507,18.949 				"/>
			</g>
		</g>
	</g>
</g>
<g id="レイヤー_2">
	<g>
		<g>
			<path d="M31.924,22.215l2.263-5.757h0.616l2.207,5.757h-0.56l-0.664-1.807h-2.623l-0.68,1.807H31.924z M33.347,19.944h2.255
				l-1.127-3.022L33.347,19.944z"/>
		</g>
		<g>
			<path d="M53.711,22.215v-5.757h2.079c1.351,0,1.887,0.583,1.887,1.447c0,0.799-0.456,1.159-0.919,1.239v0.016
				c0.792,0.12,1.184,0.671,1.184,1.431c0,1.199-0.784,1.623-1.879,1.623H53.711z M54.255,19h1.375c1.136,0,1.503-0.399,1.503-1.095
				c0-0.72-0.432-0.983-1.623-0.983h-1.255V19z M54.255,21.751h1.383c1.199,0,1.759-0.16,1.759-1.159
				c0-0.952-0.671-1.127-1.695-1.127h-1.447V21.751z"/>
		</g>
		<g>
			<path d="M78.837,18.129c-0.224-0.983-0.832-1.359-1.815-1.359c-1.391,0-1.991,1.191-1.991,2.55c0,1.288,0.472,2.583,2.039,2.583
				c0.992,0,1.607-0.671,1.823-1.583h0.567c-0.256,1.111-0.951,2.047-2.495,2.047c-1.775,0-2.479-1.399-2.479-3.03
				c0-2.199,1.151-3.03,2.679-3.03c1.183,0,2.047,0.632,2.23,1.823H78.837z"/>
		</g>
		<g>
			<path d="M96.011,22.215v-5.757h1.967c0.64,0,1.239,0.04,1.775,0.432c0.76,0.552,0.959,1.671,0.959,2.439
				c0,0.759-0.168,1.607-0.696,2.183c-0.527,0.592-1.279,0.704-2.039,0.704H96.011z M96.555,21.751h1.303
				c0.488,0,0.912-0.032,1.351-0.264c0.768-0.392,0.959-1.375,0.959-2.159c0-0.84-0.184-1.759-0.991-2.191
				c-0.344-0.184-0.839-0.216-1.319-0.216h-1.303V21.751z"/>
		</g>
		<g>
			<path d="M117.715,21.931v-5.757h3.83v0.464h-3.286v2.079h2.966v0.464h-2.966v2.287h3.366v0.464H117.715z"/>
		</g>
		<g>
			<path d="M139.139,21.931v-5.757h3.71v0.464h-3.167v2.079h2.878v0.464h-2.878v2.75H139.139z"/>
		</g>
		<g>
			<path d="M162.014,19.42v-0.463h2.463v2.974h-0.464v-0.983c-0.4,0.688-1.016,1.135-2.151,1.135c-1.455,0-2.519-1.016-2.519-3.062
				c0-1.687,0.848-2.998,2.663-2.998c1.207,0,2.159,0.592,2.407,1.823h-0.56c-0.192-0.863-0.951-1.359-1.807-1.359
				c-1.52,0-2.159,1.119-2.159,2.75c0,1.271,0.768,2.382,2.087,2.382c0.624,0,1.359-0.264,1.735-1.007
				c0.184-0.36,0.24-0.759,0.248-1.191H162.014z"/>
		</g>
		<g>
			<path d="M31.924,48.737l2.263-5.757h0.616l2.207,5.757h-0.56l-0.664-1.807h-2.623l-0.68,1.807H31.924z M33.347,46.466h2.255
				l-1.127-3.022L33.347,46.466z"/>
		</g>
		<g>
			<path d="M53.711,48.737V42.98h2.079c1.351,0,1.887,0.583,1.887,1.447c0,0.799-0.456,1.159-0.919,1.239v0.016
				c0.792,0.12,1.184,0.671,1.184,1.431c0,1.199-0.784,1.623-1.879,1.623H53.711z M54.255,45.523h1.375
				c1.136,0,1.503-0.399,1.503-1.095c0-0.72-0.432-0.983-1.623-0.983h-1.255V45.523z M54.255,48.273h1.383
				c1.199,0,1.759-0.16,1.759-1.159c0-0.952-0.671-1.127-1.695-1.127h-1.447V48.273z"/>
		</g>
		<g>
			<path d="M34.663,2.734h-1.455V2.398c0.855-0.056,1.391-0.144,1.559-1.111h0.408v5.637h-0.512V2.734z"/>
		</g>
		<g>
			<path d="M54.06,3.134c0-1.111,0.72-1.847,1.831-1.847c1.135,0,1.735,0.695,1.735,1.559c0,1.495-1.615,1.871-2.455,2.511
				c-0.368,0.28-0.711,0.6-0.736,1.135h3.143v0.432h-3.686c0.008-0.536,0.08-0.959,0.44-1.375c1.175-1.359,2.734-1.343,2.734-2.67
				c0-0.735-0.544-1.159-1.239-1.159c-0.736,0-1.255,0.656-1.224,1.415H54.06z"/>
		</g>
		<g>
			<path d="M76.535,3.79c0.951,0.008,1.615-0.216,1.615-1.08c0-0.695-0.552-0.991-1.2-0.991c-0.719,0-1.207,0.503-1.207,1.208
				h-0.512c0-0.504,0.168-0.912,0.543-1.264c0.352-0.32,0.815-0.375,1.279-0.375c0.888,0,1.607,0.448,1.607,1.391
				c0,0.583-0.256,1.023-0.8,1.255c0.815,0.256,1,0.872,1,1.391c0,0.928-0.656,1.679-1.815,1.711c-1.303,0-1.887-0.432-2.007-1.743
				h0.512c0,0.856,0.567,1.312,1.399,1.312c0.816,0,1.431-0.607,1.399-1.271c-0.032-0.911-0.824-1.199-1.815-1.127V3.79z"/>
		</g>
		<g>
			<path d="M98.89,5.533h-2.575v-0.44l2.623-3.75h0.463v3.758h0.784v0.432h-0.784v1.391H98.89V5.533z M96.819,5.101h2.071V2.11
				L96.819,5.101z"/>
		</g>
		<g>
			<path d="M118.079,5.177c0.104,0.76,0.656,1.144,1.391,1.144c0.84,0,1.352-0.64,1.352-1.439c0-0.839-0.544-1.431-1.399-1.431
				c-0.503,0-0.912,0.176-1.223,0.584l-0.424-0.056l0.456-2.918h2.798v0.432h-2.366l-0.352,1.895
				c0.44-0.288,0.728-0.368,1.239-0.368c1.032,0,1.783,0.704,1.783,1.863c0,1.184-0.855,1.871-1.783,1.871
				c-1.063,0-1.895-0.408-1.983-1.575H118.079z"/>
		</g>
		<g>
			<path d="M142.041,2.387c-0.112-0.576-0.472-0.952-1.071-0.952c-1.383,0-1.503,1.487-1.583,2.55
				c0.32-0.432,0.656-0.879,1.479-0.879c1.135,0,1.791,0.688,1.791,1.815c0,1.136-0.664,1.831-1.807,1.831
				c-1.127,0-1.975-0.704-1.975-2.694c0-1.335,0.392-3.054,2.047-3.054c0.888,0,1.543,0.479,1.647,1.383H142.041z M139.578,4.937
				c0,0.632,0.352,1.383,1.279,1.383c0.952,0,1.288-0.735,1.288-1.415c0-0.872-0.416-1.367-1.295-1.367
				C140.058,3.538,139.578,4.178,139.578,4.937z"/>
		</g>
		<g>
			<path d="M160.279,1.059h3.59v0.48c-1.615,1.823-2.223,3.998-2.287,5.101h-0.56c0.112-1.631,1.151-3.742,2.231-5.069h-2.975V1.059
				z"/>
		</g>
		<g>
			<path d="M180.744,22.215l2.263-5.757h0.615l2.207,5.757h-0.56l-0.664-1.807h-2.622l-0.68,1.807H180.744z M182.167,19.944h2.255
				l-1.128-3.022L182.167,19.944z"/>
		</g>
		<g>
			<path d="M202.531,22.215v-5.757h2.079c1.351,0,1.887,0.583,1.887,1.447c0,0.799-0.456,1.159-0.92,1.239v0.016
				c0.792,0.12,1.184,0.671,1.184,1.431c0,1.199-0.783,1.623-1.879,1.623H202.531z M203.075,19h1.375
				c1.136,0,1.503-0.399,1.503-1.095c0-0.72-0.432-0.983-1.623-0.983h-1.255V19z M203.075,21.751h1.383
				c1.199,0,1.759-0.16,1.759-1.159c0-0.952-0.671-1.127-1.694-1.127h-1.447V21.751z"/>
		</g>
		<g>
			<path d="M227.657,18.129c-0.224-0.983-0.832-1.359-1.815-1.359c-1.391,0-1.99,1.191-1.99,2.55c0,1.288,0.472,2.583,2.038,2.583
				c0.992,0,1.607-0.671,1.823-1.583h0.567c-0.256,1.111-0.951,2.047-2.494,2.047c-1.775,0-2.479-1.399-2.479-3.03
				c0-2.199,1.151-3.03,2.679-3.03c1.183,0,2.047,0.632,2.23,1.823H227.657z"/>
		</g>
		<g>
			<path d="M244.831,22.215v-5.757h1.967c0.64,0,1.239,0.04,1.775,0.432c0.76,0.552,0.959,1.671,0.959,2.439
				c0,0.759-0.168,1.607-0.695,2.183c-0.527,0.592-1.279,0.704-2.039,0.704H244.831z M245.375,21.751h1.303
				c0.488,0,0.912-0.032,1.352-0.264c0.768-0.392,0.959-1.375,0.959-2.159c0-0.84-0.184-1.759-0.991-2.191
				c-0.344-0.184-0.839-0.216-1.319-0.216h-1.303V21.751z"/>
		</g>
		<g>
			<path d="M266.534,21.931v-5.757h3.83v0.464h-3.286v2.079h2.967v0.464h-2.967v2.287h3.366v0.464H266.534z"/>
		</g>
		<g>
			<path d="M287.958,21.931v-5.757h3.71v0.464h-3.166v2.079h2.878v0.464h-2.878v2.75H287.958z"/>
		</g>
		<g>
			<path d="M310.833,19.42v-0.463h2.463v2.974h-0.464v-0.983c-0.399,0.688-1.016,1.135-2.15,1.135c-1.455,0-2.519-1.016-2.519-3.062
				c0-1.687,0.848-2.998,2.662-2.998c1.207,0,2.159,0.592,2.407,1.823h-0.561c-0.191-0.863-0.951-1.359-1.807-1.359
				c-1.52,0-2.159,1.119-2.159,2.75c0,1.271,0.768,2.382,2.087,2.382c0.624,0,1.359-0.264,1.735-1.007
				c0.184-0.36,0.24-0.759,0.248-1.191H310.833z"/>
		</g>
		<g>
			<path d="M181.619,2.662c0-0.775,0.72-1.407,1.607-1.375c0.863,0,1.703,0.408,1.703,1.375c0,0.583-0.232,1-0.768,1.263
				c0.615,0.224,0.999,0.744,0.999,1.399c0,1.104-0.783,1.711-1.982,1.711c-0.815,0-1.759-0.56-1.759-1.663
				c0-0.671,0.344-1.231,0.983-1.479C181.859,3.55,181.619,3.334,181.619,2.662z M181.931,5.373c0,0.696,0.543,1.231,1.398,1.231
				c0.744,0,1.319-0.512,1.319-1.263c0-0.792-0.6-1.175-1.351-1.175C182.514,4.166,181.931,4.541,181.931,5.373z M182.13,2.734
				c0,0.696,0.576,1,1.199,1c0.616,0,1.088-0.312,1.088-1.111c0-0.567-0.368-0.903-1.144-0.903
				C182.642,1.719,182.13,2.07,182.13,2.734z"/>
		</g>
		<g>
			<path d="M203.27,5.685c0.12,0.6,0.472,0.919,1.096,0.919c1.335,0,1.52-1.487,1.567-2.502l-0.017-0.016
				c-0.344,0.567-0.847,0.879-1.519,0.879c-1.056,0-1.743-0.72-1.743-1.815c0-1.063,0.584-1.863,1.815-1.863
				c1.519,0,1.975,1.271,1.975,2.846c0,1.911-0.863,2.902-2.055,2.902c-0.88,0-1.552-0.432-1.64-1.351H203.27z M203.167,3.166
				c0,0.855,0.479,1.367,1.304,1.367c0.799,0,1.263-0.64,1.263-1.399c0-0.832-0.472-1.399-1.263-1.415
				C203.606,1.735,203.167,2.287,203.167,3.166z"/>
		</g>
		<g>
			<path d="M223.777,2.734h-1.455V2.398c0.855-0.056,1.392-0.144,1.56-1.111h0.407v5.637h-0.512V2.734z"/>
			<path d="M229.937,4.206c0,1.495-0.353,2.83-1.903,2.83c-1.56,0-1.911-1.327-1.911-2.886c0-1.423,0.288-2.862,1.911-2.862
				C229.705,1.287,229.937,2.894,229.937,4.206z M228.018,1.719c-1.12,0-1.384,1.239-1.384,2.487c0,1.447,0.32,2.398,1.399,2.398
				c1.215,0,1.392-1.319,1.392-2.455C229.425,2.934,229.208,1.719,228.018,1.719z"/>
		</g>
		<g>
			<path d="M245.037,2.734h-1.455V2.398c0.855-0.056,1.392-0.144,1.56-1.111h0.407v5.637h-0.512V2.734z"/>
			<path d="M249.485,2.734h-1.455V2.398c0.855-0.056,1.392-0.144,1.56-1.111h0.407v5.637h-0.512V2.734z"/>
		</g>
		<g>
			<path d="M266.296,2.45h-1.455V2.115c0.855-0.056,1.392-0.144,1.56-1.111h0.407V6.64h-0.512V2.45z"/>
			<path d="M268.882,2.85c0-1.111,0.72-1.847,1.831-1.847c1.135,0,1.734,0.695,1.734,1.559c0,1.495-1.615,1.871-2.454,2.511
				c-0.368,0.28-0.712,0.6-0.735,1.135h3.142V6.64h-3.686c0.008-0.536,0.08-0.959,0.439-1.375c1.176-1.359,2.734-1.343,2.734-2.67
				c0-0.735-0.544-1.159-1.239-1.159c-0.735,0-1.255,0.656-1.224,1.415H268.882z"/>
		</g>
		<g>
			<path d="M287.556,2.45h-1.455V2.115c0.855-0.056,1.392-0.144,1.56-1.111h0.407V6.64h-0.512V2.45z"/>
			<path d="M291.357,3.506c0.952,0.008,1.615-0.216,1.615-1.08c0-0.695-0.552-0.991-1.199-0.991c-0.72,0-1.207,0.503-1.207,1.208
				h-0.512c0-0.504,0.168-0.912,0.543-1.264c0.353-0.32,0.816-0.375,1.279-0.375c0.888,0,1.607,0.448,1.607,1.391
				c0,0.583-0.256,1.023-0.8,1.255c0.815,0.256,1,0.872,1,1.391c0,0.928-0.656,1.679-1.815,1.711c-1.303,0-1.887-0.432-2.007-1.743
				h0.512c0,0.856,0.567,1.312,1.399,1.312c0.815,0,1.432-0.607,1.399-1.271c-0.032-0.911-0.824-1.199-1.815-1.127V3.506z"/>
		</g>
		<g>
			<path d="M308.817,2.45h-1.455V2.115c0.855-0.056,1.391-0.144,1.559-1.111h0.408V6.64h-0.512V2.45z"/>
			<path d="M313.712,5.249h-2.574v-0.44l2.622-3.75h0.464v3.758h0.784v0.432h-0.784V6.64h-0.512V5.249z M311.642,4.817h2.07V1.827
				L311.642,4.817z"/>
		</g>
	</g>
	<g>
		<g>
			<path d="M0.839,22.215v-5.757h0.544v5.757H0.839z"/>
			<path d="M3.28,22.215H2.8v-4.142h0.48v0.576c0.384-0.408,0.759-0.688,1.335-0.688c0.504,0,0.968,0.16,1.263,0.591
				c0.2,0.296,0.208,0.608,0.208,0.952v2.71H5.606v-2.703c0-0.744-0.304-1.119-1.072-1.119c-0.591,0-0.999,0.384-1.151,0.808
				c-0.096,0.264-0.104,0.496-0.104,0.783V22.215z"/>
			<path d="M9.086,18.025H7.631v-0.335c0.855-0.056,1.391-0.144,1.559-1.111h0.408v5.637H9.086V18.025z"/>
		</g>
		<g>
			<path d="M0.839,47.415v-5.757h0.544v5.757H0.839z"/>
			<path d="M3.28,47.415H2.8v-4.142h0.48v0.576c0.384-0.408,0.759-0.688,1.335-0.688c0.504,0,0.968,0.16,1.263,0.591
				c0.2,0.296,0.208,0.608,0.208,0.952v2.71H5.606v-2.703c0-0.744-0.304-1.119-1.072-1.119c-0.591,0-0.999,0.384-1.151,0.808
				c-0.096,0.264-0.104,0.496-0.104,0.783V47.415z"/>
			<path d="M7.224,43.625c0-1.111,0.72-1.847,1.831-1.847c1.135,0,1.735,0.695,1.735,1.559c0,1.495-1.615,1.871-2.455,2.511
				c-0.368,0.28-0.711,0.6-0.736,1.135h3.143v0.432H7.056c0.008-0.536,0.08-0.959,0.44-1.375c1.175-1.359,2.734-1.343,2.734-2.67
				c0-0.735-0.544-1.159-1.239-1.159c-0.736,0-1.255,0.656-1.224,1.415H7.224z"/>
		</g>
		<g>
			<path d="M365.182,19.674v2.615h-0.543v-5.757h2.255c1.263,0,1.959,0.448,1.959,1.511c0,0.728-0.272,1.111-0.936,1.407
				c0.68,0.232,0.719,0.952,0.735,1.559c0.023,0.872,0.096,1.111,0.239,1.223v0.056h-0.6c-0.224-0.392-0.168-1.471-0.256-1.911
				c-0.128-0.624-0.6-0.704-1.143-0.704H365.182z M366.877,19.211c0.808,0,1.432-0.336,1.432-1.144c0-0.863-0.672-1.071-1.399-1.071
				h-1.728v2.215H366.877z"/>
			<path d="M370.207,20.33c-0.008,0.896,0.472,1.639,1.392,1.639c0.623,0,1.111-0.344,1.255-0.952h0.536
				c-0.24,0.784-0.735,1.383-1.791,1.383c-1.327,0-1.903-0.943-1.903-2.167c0-1.208,0.72-2.199,1.903-2.199
				c1.135,0,1.831,0.808,1.823,2.295H370.207z M372.91,19.93c0-0.807-0.448-1.463-1.312-1.463c-0.848,0-1.296,0.68-1.392,1.463
				H372.91z"/>
			<path d="M374.639,20.994c0.151,0.712,0.52,0.976,1.239,0.976c0.695,0,1.023-0.368,1.023-0.768c0-1.199-2.654-0.352-2.654-1.983
				c0-0.688,0.535-1.184,1.455-1.184c0.896,0,1.479,0.368,1.599,1.304h-0.487c-0.088-0.64-0.52-0.872-1.119-0.872
				c-0.608,0-0.936,0.288-0.936,0.711c0,1.127,2.654,0.424,2.654,2.015c0,0.792-0.712,1.207-1.688,1.207s-1.535-0.624-1.575-1.407
				H374.639z"/>
			<path d="M381.166,18.147h0.479v4.142h-0.479v-0.576c-0.256,0.288-0.607,0.688-1.335,0.688c-1.104,0-1.472-0.664-1.472-1.527
				v-2.727h0.479v2.718c0,0.712,0.312,1.104,1.063,1.104c0.792,0,1.264-0.656,1.264-1.567V18.147z"/>
			<path d="M382.878,22.289v-5.757h0.48v5.757H382.878z"/>
			<path d="M386.038,22.305c-0.111,0.024-0.319,0.096-0.552,0.096c-0.472,0-0.735-0.208-0.735-0.823v-3.031h-0.584v-0.399h0.584
				v-1.151h0.479v1.151h0.776v0.399h-0.776v2.839c0,0.408,0.017,0.583,0.416,0.583c0.128,0,0.264-0.024,0.392-0.056V22.305z"/>
			<path d="M393.092,19.747h-3.997v-0.48h3.997V19.747z M393.092,21.298h-3.997v-0.48h3.997V21.298z"/>
			<path d="M396.511,18.027c0-0.775,0.72-1.407,1.606-1.375c0.864,0,1.703,0.408,1.703,1.375c0,0.584-0.231,1-0.768,1.263
				c0.616,0.224,1,0.744,1,1.399c0,1.104-0.784,1.711-1.983,1.711c-0.815,0-1.759-0.56-1.759-1.663c0-0.671,0.344-1.231,0.983-1.479
				C396.75,18.915,396.511,18.699,396.511,18.027z M396.823,20.738c0,0.696,0.544,1.231,1.399,1.231
				c0.743,0,1.319-0.512,1.319-1.263c0-0.792-0.6-1.175-1.352-1.175C397.407,19.531,396.823,19.906,396.823,20.738z M397.023,18.1
				c0,0.695,0.575,0.999,1.199,0.999c0.615,0,1.087-0.312,1.087-1.111c0-0.567-0.367-0.903-1.144-0.903
				C397.535,17.084,397.023,17.436,397.023,18.1z"/>
		</g>
	</g>
	<rect x="172.661" y="10.09" class="st2" width="42.52" height="17.716"/>
	<g>
	</g>
	<g>
	</g>
	<g>
	</g>
	<g>
	</g>
	<g>
	</g>
	<g>
	</g>
	<g>
	</g>
	<g>
	</g>
	<g>
	</g>
	<g>
	</g>
	<g>
	</g>
	<g>
	</g>
	<g>
	</g>
	<g>
	</g>
	<g>
	</g>
	<g>
	</g>
</g>
</svg>
