<?xml version="1.0" encoding="utf-8"?>
<!-- Generator: Adobe Illustrator 28.2.0, SVG Export Plug-In . SVG Version: 6.00 Build 0)  -->
<svg version="1.1" xmlns="http://www.w3.org/2000/svg" xmlns:xlink="http://www.w3.org/1999/xlink" x="0px" y="0px"
	 width="497.068px" height="127.992px" viewBox="0 0 497.068 127.992" style="enable-background:new 0 0 497.068 127.992;"
	 xml:space="preserve">
<style type="text/css">
	.st0{fill:#BDC4CD;}
	.st1{fill:none;stroke:#000000;stroke-width:0.5;stroke-miterlimit:10;}
	.st2{fill:none;stroke:#FF0000;stroke-width:1.5;stroke-miterlimit:10;}
	.st3{fill:#233B59;}
</style>
<g id="レイヤー_1">
	<rect x="0.25" y="0.25" class="st0" width="226.772" height="18.142"/>
	<rect x="269.547" y="0.25" class="st0" width="226.772" height="18.142"/>
	<g>
		<rect x="0.25" y="0.25" class="st1" width="226.772" height="126.992"/>
		<line class="st1" x1="0.25" y1="36.533" x2="227.022" y2="36.533"/>
		<line class="st1" x1="0.25" y1="54.675" x2="227.022" y2="54.675"/>
		<line class="st1" x1="0.25" y1="72.817" x2="227.022" y2="72.817"/>
		<line class="st1" x1="0.25" y1="90.959" x2="227.022" y2="90.959"/>
		<line class="st1" x1="0.25" y1="109.1" x2="227.022" y2="109.1"/>
		<line class="st1" x1="56.943" y1="127.242" x2="56.943" y2="0.25"/>
		<line class="st1" x1="113.636" y1="127.242" x2="113.636" y2="18.392"/>
		<line class="st1" x1="170.329" y1="127.242" x2="170.329" y2="18.392"/>
		<line class="st1" x1="0.25" y1="18.392" x2="227.022" y2="18.392"/>
	</g>
	<g>
		<rect x="269.547" y="0.25" class="st1" width="226.772" height="126.992"/>
		<line class="st1" x1="269.547" y1="36.533" x2="496.318" y2="36.533"/>
		<line class="st1" x1="269.547" y1="54.675" x2="496.318" y2="54.675"/>
		<line class="st1" x1="269.547" y1="72.817" x2="496.318" y2="72.817"/>
		<line class="st1" x1="269.547" y1="90.959" x2="496.318" y2="90.959"/>
		<line class="st1" x1="269.547" y1="109.1" x2="496.318" y2="109.1"/>
		<line class="st1" x1="326.24" y1="127.242" x2="326.24" y2="0.25"/>
		<line class="st1" x1="382.932" y1="127.242" x2="382.932" y2="18.392"/>
		<line class="st1" x1="439.625" y1="127.242" x2="439.625" y2="18.392"/>
		<line class="st1" x1="269.547" y1="18.392" x2="496.318" y2="18.392"/>
	</g>
</g>
<g id="レイヤー_2">
	<g>
		<g>
			<path d="M7.201,46.488c0.088,1.032,0.775,1.407,1.655,1.407c1.032,0,1.463-0.56,1.463-1.191c0-1.783-3.51-0.6-3.51-2.863
				c0-0.799,0.664-1.543,1.951-1.543c1.295,0,1.943,0.784,1.935,1.719h-0.52c0-0.88-0.68-1.255-1.415-1.255
				c-1.104,0-1.503,0.679-1.407,1.271c0.248,1.487,3.51,0.416,3.51,2.646c0,1.056-0.776,1.679-2.103,1.679
				c-1.199,0-2.087-0.624-2.087-1.871H7.201z"/>
			<path d="M13.248,48.223c-0.112,0.024-0.32,0.096-0.552,0.096c-0.472,0-0.735-0.208-0.735-0.823v-3.031h-0.583v-0.399h0.583
				v-1.151h0.479v1.151h0.776v0.399H12.44v2.839c0,0.408,0.016,0.583,0.416,0.583c0.128,0,0.264-0.024,0.392-0.056V48.223z"/>
			<path d="M14.089,48.207V42.45h1.967c0.64,0,1.239,0.04,1.775,0.432c0.759,0.552,0.959,1.671,0.959,2.439
				c0,0.759-0.168,1.607-0.696,2.183c-0.528,0.592-1.279,0.704-2.039,0.704H14.089z M14.633,47.743h1.303
				c0.488,0,0.912-0.032,1.351-0.264c0.768-0.392,0.959-1.375,0.959-2.159c0-0.84-0.184-1.759-0.991-2.191
				c-0.344-0.184-0.84-0.216-1.319-0.216h-1.303V47.743z"/>
			<path d="M21.696,45.792c0.176-0.016,0.472-0.064,0.632-0.136c0.16-0.072,0.176-0.288,0.176-0.432
				c0-0.488-0.288-0.839-1.031-0.839c-0.664,0-1.12,0.216-1.208,0.936h-0.488c0.072-0.976,0.8-1.368,1.703-1.368
				c0.84,0,1.503,0.328,1.503,1.288v2.255c0,0.375,0.096,0.463,0.503,0.32v0.375c-0.072,0.024-0.24,0.08-0.375,0.08
				c-0.08,0-0.144-0.008-0.216-0.024c-0.319-0.048-0.375-0.328-0.384-0.616c-0.399,0.448-0.943,0.688-1.543,0.688
				c-0.728,0-1.383-0.392-1.383-1.191c0-0.695,0.48-1.119,1.447-1.247L21.696,45.792z M22.503,46.032
				c-0.408,0.168-0.823,0.2-1.239,0.232c-0.728,0.056-1.167,0.32-1.167,0.879c0,0.504,0.44,0.744,0.896,0.744
				c0.76,0,1.511-0.368,1.511-1.208V46.032z"/>
			<path d="M25.696,48.223c-0.112,0.024-0.32,0.096-0.552,0.096c-0.472,0-0.735-0.208-0.735-0.823v-3.031h-0.583v-0.399h0.583
				v-1.151h0.479v1.151h0.776v0.399h-0.776v2.839c0,0.408,0.016,0.583,0.416,0.583c0.128,0,0.264-0.024,0.392-0.056V48.223z"/>
			<path d="M28.368,45.792c0.176-0.016,0.472-0.064,0.632-0.136c0.16-0.072,0.176-0.288,0.176-0.432
				c0-0.488-0.288-0.839-1.031-0.839c-0.664,0-1.12,0.216-1.208,0.936h-0.488c0.072-0.976,0.8-1.368,1.703-1.368
				c0.839,0,1.503,0.328,1.503,1.288v2.255c0,0.375,0.096,0.463,0.503,0.32v0.375c-0.072,0.024-0.24,0.08-0.375,0.08
				c-0.08,0-0.144-0.008-0.216-0.024c-0.32-0.048-0.376-0.328-0.384-0.616c-0.4,0.448-0.944,0.688-1.543,0.688
				c-0.728,0-1.383-0.392-1.383-1.191c0-0.695,0.48-1.119,1.447-1.247L28.368,45.792z M29.176,46.032
				c-0.408,0.168-0.824,0.2-1.239,0.232c-0.728,0.056-1.167,0.32-1.167,0.879c0,0.504,0.44,0.744,0.896,0.744
				c0.76,0,1.511-0.368,1.511-1.208V46.032z"/>
			<path d="M31.065,49.734v-7.436h1.527v0.4h-1.016v6.636h1v0.4H31.065z"/>
			<path d="M37.127,45.488c0,1.496-0.352,2.831-1.903,2.831c-1.559,0-1.911-1.327-1.911-2.886c0-1.423,0.288-2.862,1.911-2.862
				C36.895,42.57,37.127,44.177,37.127,45.488z M35.208,43.002c-1.12,0-1.383,1.239-1.383,2.486c0,1.447,0.32,2.399,1.399,2.399
				c1.215,0,1.392-1.319,1.392-2.455C36.616,44.217,36.399,43.002,35.208,43.002z"/>
			<path d="M39.384,49.734h-1.527v-0.4h1.015v-6.636h-0.999v-0.4h1.511V49.734z"/>
		</g>
		<g>
			<path d="M7.201,64.621c0.088,1.032,0.775,1.407,1.655,1.407c1.032,0,1.463-0.56,1.463-1.191c0-1.783-3.51-0.6-3.51-2.863
				c0-0.799,0.664-1.543,1.951-1.543c1.295,0,1.943,0.784,1.935,1.719h-0.52c0-0.88-0.68-1.255-1.415-1.255
				c-1.104,0-1.503,0.679-1.407,1.271c0.248,1.487,3.51,0.416,3.51,2.646c0,1.056-0.776,1.679-2.103,1.679
				c-1.199,0-2.087-0.624-2.087-1.871H7.201z"/>
			<path d="M13.248,66.356c-0.112,0.024-0.32,0.096-0.552,0.096c-0.472,0-0.735-0.208-0.735-0.823v-3.031h-0.583v-0.399h0.583
				v-1.151h0.479v1.151h0.776v0.399H12.44v2.839c0,0.408,0.016,0.583,0.416,0.583c0.128,0,0.264-0.024,0.392-0.056V66.356z"/>
			<path d="M14.089,66.34v-5.757h1.967c0.64,0,1.239,0.04,1.775,0.432c0.759,0.552,0.959,1.671,0.959,2.439
				c0,0.759-0.168,1.607-0.696,2.183c-0.528,0.592-1.279,0.704-2.039,0.704H14.089z M14.633,65.876h1.303
				c0.488,0,0.912-0.032,1.351-0.264c0.768-0.392,0.959-1.375,0.959-2.159c0-0.84-0.184-1.759-0.991-2.191
				c-0.344-0.184-0.84-0.216-1.319-0.216h-1.303V65.876z"/>
			<path d="M21.696,63.926c0.176-0.016,0.472-0.064,0.632-0.136c0.16-0.072,0.176-0.288,0.176-0.432
				c0-0.488-0.288-0.839-1.031-0.839c-0.664,0-1.12,0.216-1.208,0.936h-0.488c0.072-0.976,0.8-1.368,1.703-1.368
				c0.84,0,1.503,0.328,1.503,1.288v2.255c0,0.375,0.096,0.463,0.503,0.32v0.375c-0.072,0.024-0.24,0.08-0.375,0.08
				c-0.08,0-0.144-0.008-0.216-0.024c-0.319-0.048-0.375-0.328-0.384-0.616c-0.399,0.448-0.943,0.688-1.543,0.688
				c-0.728,0-1.383-0.392-1.383-1.191c0-0.695,0.48-1.119,1.447-1.247L21.696,63.926z M22.503,64.166
				c-0.408,0.168-0.823,0.2-1.239,0.232c-0.728,0.056-1.167,0.32-1.167,0.879c0,0.504,0.44,0.744,0.896,0.744
				c0.76,0,1.511-0.368,1.511-1.208V64.166z"/>
			<path d="M25.696,66.356c-0.112,0.024-0.32,0.096-0.552,0.096c-0.472,0-0.735-0.208-0.735-0.823v-3.031h-0.583v-0.399h0.583
				v-1.151h0.479v1.151h0.776v0.399h-0.776v2.839c0,0.408,0.016,0.583,0.416,0.583c0.128,0,0.264-0.024,0.392-0.056V66.356z"/>
			<path d="M28.368,63.926C28.544,63.91,28.84,63.862,29,63.79c0.16-0.072,0.176-0.288,0.176-0.432c0-0.488-0.288-0.839-1.031-0.839
				c-0.664,0-1.12,0.216-1.208,0.936h-0.488c0.072-0.976,0.8-1.368,1.703-1.368c0.839,0,1.503,0.328,1.503,1.288v2.255
				c0,0.375,0.096,0.463,0.503,0.32v0.375c-0.072,0.024-0.24,0.08-0.375,0.08c-0.08,0-0.144-0.008-0.216-0.024
				c-0.32-0.048-0.376-0.328-0.384-0.616c-0.4,0.448-0.944,0.688-1.543,0.688c-0.728,0-1.383-0.392-1.383-1.191
				c0-0.695,0.48-1.119,1.447-1.247L28.368,63.926z M29.176,64.166c-0.408,0.168-0.824,0.2-1.239,0.232
				c-0.728,0.056-1.167,0.32-1.167,0.879c0,0.504,0.44,0.744,0.896,0.744c0.76,0,1.511-0.368,1.511-1.208V64.166z"/>
			<path d="M31.065,67.868v-7.436h1.527v0.4h-1.016v6.636h1v0.4H31.065z"/>
			<path d="M35.416,62.151h-1.455v-0.336c0.855-0.056,1.391-0.144,1.559-1.111h0.408v5.637h-0.512V62.151z"/>
			<path d="M39.384,67.868h-1.527v-0.4h1.015v-6.636h-0.999v-0.4h1.511V67.868z"/>
		</g>
		<g>
			<path d="M7.201,83.037c0.088,1.032,0.775,1.407,1.655,1.407c1.032,0,1.463-0.56,1.463-1.191c0-1.783-3.51-0.6-3.51-2.863
				c0-0.799,0.664-1.543,1.951-1.543c1.295,0,1.943,0.784,1.935,1.719h-0.52c0-0.88-0.68-1.255-1.415-1.255
				c-1.104,0-1.503,0.679-1.407,1.271c0.248,1.487,3.51,0.416,3.51,2.646c0,1.056-0.776,1.679-2.103,1.679
				c-1.199,0-2.087-0.624-2.087-1.871H7.201z"/>
			<path d="M13.248,84.772c-0.112,0.024-0.32,0.096-0.552,0.096c-0.472,0-0.735-0.208-0.735-0.823v-3.031h-0.583v-0.399h0.583
				v-1.151h0.479v1.151h0.776v0.399H12.44v2.839c0,0.408,0.016,0.583,0.416,0.583c0.128,0,0.264-0.024,0.392-0.056V84.772z"/>
			<path d="M14.089,84.756v-5.757h1.967c0.64,0,1.239,0.04,1.775,0.432c0.759,0.552,0.959,1.671,0.959,2.439
				c0,0.759-0.168,1.607-0.696,2.183c-0.528,0.592-1.279,0.704-2.039,0.704H14.089z M14.633,84.292h1.303
				c0.488,0,0.912-0.032,1.351-0.264c0.768-0.392,0.959-1.375,0.959-2.159c0-0.84-0.184-1.759-0.991-2.191
				c-0.344-0.184-0.84-0.216-1.319-0.216h-1.303V84.292z"/>
			<path d="M21.696,82.341c0.176-0.016,0.472-0.064,0.632-0.136c0.16-0.072,0.176-0.288,0.176-0.432
				c0-0.488-0.288-0.839-1.031-0.839c-0.664,0-1.12,0.216-1.208,0.936h-0.488c0.072-0.976,0.8-1.368,1.703-1.368
				c0.84,0,1.503,0.328,1.503,1.288v2.255c0,0.375,0.096,0.463,0.503,0.32v0.375c-0.072,0.024-0.24,0.08-0.375,0.08
				c-0.08,0-0.144-0.008-0.216-0.024c-0.319-0.048-0.375-0.328-0.384-0.616c-0.399,0.448-0.943,0.688-1.543,0.688
				c-0.728,0-1.383-0.392-1.383-1.191c0-0.695,0.48-1.119,1.447-1.247L21.696,82.341z M22.503,82.581
				c-0.408,0.168-0.823,0.2-1.239,0.232c-0.728,0.056-1.167,0.32-1.167,0.879c0,0.504,0.44,0.744,0.896,0.744
				c0.76,0,1.511-0.368,1.511-1.208V82.581z"/>
			<path d="M25.696,84.772c-0.112,0.024-0.32,0.096-0.552,0.096c-0.472,0-0.735-0.208-0.735-0.823v-3.031h-0.583v-0.399h0.583
				v-1.151h0.479v1.151h0.776v0.399h-0.776v2.839c0,0.408,0.016,0.583,0.416,0.583c0.128,0,0.264-0.024,0.392-0.056V84.772z"/>
			<path d="M28.368,82.341c0.176-0.016,0.472-0.064,0.632-0.136c0.16-0.072,0.176-0.288,0.176-0.432
				c0-0.488-0.288-0.839-1.031-0.839c-0.664,0-1.12,0.216-1.208,0.936h-0.488c0.072-0.976,0.8-1.368,1.703-1.368
				c0.839,0,1.503,0.328,1.503,1.288v2.255c0,0.375,0.096,0.463,0.503,0.32v0.375c-0.072,0.024-0.24,0.08-0.375,0.08
				c-0.08,0-0.144-0.008-0.216-0.024c-0.32-0.048-0.376-0.328-0.384-0.616c-0.4,0.448-0.944,0.688-1.543,0.688
				c-0.728,0-1.383-0.392-1.383-1.191c0-0.695,0.48-1.119,1.447-1.247L28.368,82.341z M29.176,82.581
				c-0.408,0.168-0.824,0.2-1.239,0.232c-0.728,0.056-1.167,0.32-1.167,0.879c0,0.504,0.44,0.744,0.896,0.744
				c0.76,0,1.511-0.368,1.511-1.208V82.581z"/>
			<path d="M31.065,86.283v-7.436h1.527v0.4h-1.016v6.636h1v0.4H31.065z"/>
			<path d="M33.553,80.966c0-1.111,0.72-1.847,1.831-1.847c1.135,0,1.735,0.695,1.735,1.559c0,1.495-1.615,1.871-2.455,2.51
				c-0.368,0.28-0.711,0.6-0.735,1.136h3.142v0.432h-3.686c0.008-0.536,0.08-0.959,0.44-1.375c1.175-1.359,2.734-1.344,2.734-2.671
				c0-0.735-0.544-1.159-1.239-1.159c-0.736,0-1.255,0.656-1.224,1.415H33.553z"/>
			<path d="M39.384,86.283h-1.527v-0.4h1.015v-6.636h-0.999v-0.4h1.511V86.283z"/>
		</g>
		<g>
			<path d="M7.201,100.886c0.088,1.032,0.775,1.407,1.655,1.407c1.032,0,1.463-0.56,1.463-1.191c0-1.783-3.51-0.6-3.51-2.863
				c0-0.799,0.664-1.543,1.951-1.543c1.295,0,1.943,0.784,1.935,1.719h-0.52c0-0.88-0.68-1.255-1.415-1.255
				c-1.104,0-1.503,0.679-1.407,1.271c0.248,1.487,3.51,0.416,3.51,2.646c0,1.056-0.776,1.679-2.103,1.679
				c-1.199,0-2.087-0.624-2.087-1.871H7.201z"/>
			<path d="M13.248,102.622c-0.112,0.024-0.32,0.096-0.552,0.096c-0.472,0-0.735-0.208-0.735-0.823v-3.031h-0.583v-0.399h0.583
				v-1.151h0.479v1.151h0.776v0.399H12.44v2.839c0,0.408,0.016,0.583,0.416,0.583c0.128,0,0.264-0.024,0.392-0.056V102.622z"/>
			<path d="M14.089,102.605v-5.757h1.967c0.64,0,1.239,0.04,1.775,0.432c0.759,0.552,0.959,1.671,0.959,2.439
				c0,0.759-0.168,1.607-0.696,2.183c-0.528,0.592-1.279,0.704-2.039,0.704H14.089z M14.633,102.142h1.303
				c0.488,0,0.912-0.032,1.351-0.264c0.768-0.392,0.959-1.375,0.959-2.159c0-0.84-0.184-1.759-0.991-2.191
				c-0.344-0.184-0.84-0.216-1.319-0.216h-1.303V102.142z"/>
			<path d="M21.696,100.191c0.176-0.016,0.472-0.064,0.632-0.136c0.16-0.072,0.176-0.288,0.176-0.432
				c0-0.488-0.288-0.839-1.031-0.839c-0.664,0-1.12,0.216-1.208,0.936h-0.488c0.072-0.976,0.8-1.368,1.703-1.368
				c0.84,0,1.503,0.328,1.503,1.288v2.255c0,0.375,0.096,0.463,0.503,0.32v0.375c-0.072,0.024-0.24,0.08-0.375,0.08
				c-0.08,0-0.144-0.008-0.216-0.024c-0.319-0.048-0.375-0.328-0.384-0.616c-0.399,0.448-0.943,0.688-1.543,0.688
				c-0.728,0-1.383-0.392-1.383-1.191c0-0.695,0.48-1.119,1.447-1.247L21.696,100.191z M22.503,100.431
				c-0.408,0.168-0.823,0.2-1.239,0.232c-0.728,0.056-1.167,0.32-1.167,0.879c0,0.504,0.44,0.744,0.896,0.744
				c0.76,0,1.511-0.368,1.511-1.208V100.431z"/>
			<path d="M25.696,102.622c-0.112,0.024-0.32,0.096-0.552,0.096c-0.472,0-0.735-0.208-0.735-0.823v-3.031h-0.583v-0.399h0.583
				v-1.151h0.479v1.151h0.776v0.399h-0.776v2.839c0,0.408,0.016,0.583,0.416,0.583c0.128,0,0.264-0.024,0.392-0.056V102.622z"/>
			<path d="M28.368,100.191c0.176-0.016,0.472-0.064,0.632-0.136c0.16-0.072,0.176-0.288,0.176-0.432
				c0-0.488-0.288-0.839-1.031-0.839c-0.664,0-1.12,0.216-1.208,0.936h-0.488c0.072-0.976,0.8-1.368,1.703-1.368
				c0.839,0,1.503,0.328,1.503,1.288v2.255c0,0.375,0.096,0.463,0.503,0.32v0.375c-0.072,0.024-0.24,0.08-0.375,0.08
				c-0.08,0-0.144-0.008-0.216-0.024c-0.32-0.048-0.376-0.328-0.384-0.616c-0.4,0.448-0.944,0.688-1.543,0.688
				c-0.728,0-1.383-0.392-1.383-1.191c0-0.695,0.48-1.119,1.447-1.247L28.368,100.191z M29.176,100.431
				c-0.408,0.168-0.824,0.2-1.239,0.232c-0.728,0.056-1.167,0.32-1.167,0.879c0,0.504,0.44,0.744,0.896,0.744
				c0.76,0,1.511-0.368,1.511-1.208V100.431z"/>
			<path d="M31.065,104.133v-7.436h1.527v0.4h-1.016v6.636h1v0.4H31.065z"/>
			<path d="M34.768,99.471c0.952,0.008,1.615-0.216,1.615-1.08c0-0.695-0.552-0.991-1.2-0.991c-0.719,0-1.207,0.504-1.207,1.207
				h-0.512c0-0.503,0.168-0.911,0.543-1.263c0.352-0.32,0.816-0.375,1.279-0.375c0.888,0,1.607,0.448,1.607,1.391
				c0,0.583-0.256,1.023-0.8,1.255c0.815,0.256,1,0.872,1,1.391c0,0.927-0.656,1.679-1.815,1.711c-1.303,0-1.887-0.432-2.007-1.743
				h0.512c0,0.855,0.567,1.311,1.399,1.311c0.816,0,1.432-0.608,1.399-1.271c-0.032-0.911-0.824-1.199-1.815-1.127V99.471z"/>
			<path d="M39.384,104.133h-1.527v-0.4h1.015v-6.636h-0.999v-0.4h1.511V104.133z"/>
		</g>
		<g>
			<path d="M7.201,119.302c0.088,1.032,0.775,1.407,1.655,1.407c1.032,0,1.463-0.56,1.463-1.191c0-1.783-3.51-0.6-3.51-2.863
				c0-0.799,0.664-1.543,1.951-1.543c1.295,0,1.943,0.784,1.935,1.719h-0.52c0-0.88-0.68-1.255-1.415-1.255
				c-1.104,0-1.503,0.679-1.407,1.271c0.248,1.487,3.51,0.416,3.51,2.646c0,1.056-0.776,1.679-2.103,1.679
				c-1.199,0-2.087-0.624-2.087-1.871H7.201z"/>
			<path d="M13.248,121.037c-0.112,0.024-0.32,0.096-0.552,0.096c-0.472,0-0.735-0.208-0.735-0.823v-3.031h-0.583v-0.399h0.583
				v-1.151h0.479v1.151h0.776v0.399H12.44v2.839c0,0.408,0.016,0.583,0.416,0.583c0.128,0,0.264-0.024,0.392-0.056V121.037z"/>
			<path d="M14.089,121.021v-5.757h1.967c0.64,0,1.239,0.04,1.775,0.432c0.759,0.552,0.959,1.671,0.959,2.439
				c0,0.759-0.168,1.607-0.696,2.183c-0.528,0.592-1.279,0.704-2.039,0.704H14.089z M14.633,120.557h1.303
				c0.488,0,0.912-0.032,1.351-0.264c0.768-0.392,0.959-1.375,0.959-2.159c0-0.84-0.184-1.759-0.991-2.191
				c-0.344-0.184-0.84-0.216-1.319-0.216h-1.303V120.557z"/>
			<path d="M21.696,118.606c0.176-0.016,0.472-0.064,0.632-0.136c0.16-0.072,0.176-0.288,0.176-0.432
				c0-0.488-0.288-0.839-1.031-0.839c-0.664,0-1.12,0.216-1.208,0.936h-0.488c0.072-0.976,0.8-1.368,1.703-1.368
				c0.84,0,1.503,0.328,1.503,1.288v2.255c0,0.375,0.096,0.463,0.503,0.32v0.375c-0.072,0.024-0.24,0.08-0.375,0.08
				c-0.08,0-0.144-0.008-0.216-0.024c-0.319-0.048-0.375-0.328-0.384-0.616c-0.399,0.448-0.943,0.688-1.543,0.688
				c-0.728,0-1.383-0.392-1.383-1.191c0-0.695,0.48-1.119,1.447-1.247L21.696,118.606z M22.503,118.846
				c-0.408,0.168-0.823,0.2-1.239,0.232c-0.728,0.056-1.167,0.32-1.167,0.879c0,0.504,0.44,0.744,0.896,0.744
				c0.76,0,1.511-0.368,1.511-1.208V118.846z"/>
			<path d="M25.696,121.037c-0.112,0.024-0.32,0.096-0.552,0.096c-0.472,0-0.735-0.208-0.735-0.823v-3.031h-0.583v-0.399h0.583
				v-1.151h0.479v1.151h0.776v0.399h-0.776v2.839c0,0.408,0.016,0.583,0.416,0.583c0.128,0,0.264-0.024,0.392-0.056V121.037z"/>
			<path d="M28.368,118.606c0.176-0.016,0.472-0.064,0.632-0.136c0.16-0.072,0.176-0.288,0.176-0.432
				c0-0.488-0.288-0.839-1.031-0.839c-0.664,0-1.12,0.216-1.208,0.936h-0.488c0.072-0.976,0.8-1.368,1.703-1.368
				c0.839,0,1.503,0.328,1.503,1.288v2.255c0,0.375,0.096,0.463,0.503,0.32v0.375c-0.072,0.024-0.24,0.08-0.375,0.08
				c-0.08,0-0.144-0.008-0.216-0.024c-0.32-0.048-0.376-0.328-0.384-0.616c-0.4,0.448-0.944,0.688-1.543,0.688
				c-0.728,0-1.383-0.392-1.383-1.191c0-0.695,0.48-1.119,1.447-1.247L28.368,118.606z M29.176,118.846
				c-0.408,0.168-0.824,0.2-1.239,0.232c-0.728,0.056-1.167,0.32-1.167,0.879c0,0.504,0.44,0.744,0.896,0.744
				c0.76,0,1.511-0.368,1.511-1.208V118.846z"/>
			<path d="M31.065,122.548v-7.436h1.527v0.4h-1.016v6.636h1v0.4H31.065z"/>
			<path d="M35.864,119.63h-2.574v-0.44l2.622-3.75h0.464v3.758h0.784v0.432h-0.784v1.391h-0.512V119.63z M33.793,119.198h2.071
				v-2.99L33.793,119.198z"/>
			<path d="M39.384,122.548h-1.527v-0.4h1.015v-6.636h-0.999v-0.4h1.511V122.548z"/>
		</g>
		<g>
			<path d="M276.497,46.488c0.088,1.032,0.775,1.407,1.655,1.407c1.031,0,1.463-0.56,1.463-1.191c0-1.783-3.51-0.6-3.51-2.863
				c0-0.799,0.664-1.543,1.951-1.543c1.295,0,1.942,0.784,1.935,1.719h-0.52c0-0.88-0.68-1.255-1.415-1.255
				c-1.104,0-1.503,0.679-1.407,1.271c0.248,1.487,3.51,0.416,3.51,2.646c0,1.056-0.775,1.679-2.103,1.679
				c-1.199,0-2.087-0.624-2.087-1.871H276.497z"/>
			<path d="M282.544,48.223c-0.111,0.024-0.319,0.096-0.552,0.096c-0.472,0-0.735-0.208-0.735-0.823v-3.031h-0.583v-0.399h0.583
				v-1.151h0.479v1.151h0.776v0.399h-0.776v2.839c0,0.408,0.017,0.583,0.416,0.583c0.128,0,0.264-0.024,0.392-0.056V48.223z"/>
			<path d="M283.385,48.207V42.45h1.968c0.64,0,1.239,0.04,1.774,0.432c0.76,0.552,0.96,1.671,0.96,2.439
				c0,0.759-0.168,1.607-0.696,2.183c-0.527,0.592-1.279,0.704-2.038,0.704H283.385z M283.929,47.743h1.304
				c0.487,0,0.911-0.032,1.351-0.264c0.768-0.392,0.96-1.375,0.96-2.159c0-0.84-0.184-1.759-0.991-2.191
				c-0.344-0.184-0.84-0.216-1.319-0.216h-1.304V47.743z"/>
			<path d="M290.993,45.792c0.176-0.016,0.472-0.064,0.632-0.136c0.159-0.072,0.176-0.288,0.176-0.432
				c0-0.488-0.288-0.839-1.031-0.839c-0.664,0-1.12,0.216-1.208,0.936h-0.487c0.072-0.976,0.8-1.368,1.703-1.368
				c0.84,0,1.503,0.328,1.503,1.288v2.255c0,0.375,0.096,0.463,0.504,0.32v0.375c-0.072,0.024-0.24,0.08-0.376,0.08
				c-0.08,0-0.144-0.008-0.216-0.024c-0.319-0.048-0.376-0.328-0.384-0.616c-0.399,0.448-0.943,0.688-1.543,0.688
				c-0.728,0-1.384-0.392-1.384-1.191c0-0.695,0.48-1.119,1.447-1.247L290.993,45.792z M291.8,46.032
				c-0.408,0.168-0.823,0.2-1.239,0.232c-0.728,0.056-1.168,0.32-1.168,0.879c0,0.504,0.44,0.744,0.896,0.744
				c0.76,0,1.512-0.368,1.512-1.208V46.032z"/>
			<path d="M294.993,48.223c-0.111,0.024-0.319,0.096-0.552,0.096c-0.472,0-0.735-0.208-0.735-0.823v-3.031h-0.583v-0.399h0.583
				v-1.151h0.479v1.151h0.776v0.399h-0.776v2.839c0,0.408,0.017,0.583,0.416,0.583c0.128,0,0.264-0.024,0.392-0.056V48.223z"/>
			<path d="M297.664,45.792c0.177-0.016,0.472-0.064,0.632-0.136c0.16-0.072,0.176-0.288,0.176-0.432
				c0-0.488-0.287-0.839-1.031-0.839c-0.663,0-1.119,0.216-1.207,0.936h-0.488c0.072-0.976,0.8-1.368,1.703-1.368
				c0.84,0,1.504,0.328,1.504,1.288v2.255c0,0.375,0.096,0.463,0.503,0.32v0.375c-0.071,0.024-0.239,0.08-0.375,0.08
				c-0.08,0-0.145-0.008-0.216-0.024c-0.32-0.048-0.376-0.328-0.384-0.616c-0.4,0.448-0.944,0.688-1.544,0.688
				c-0.728,0-1.383-0.392-1.383-1.191c0-0.695,0.479-1.119,1.447-1.247L297.664,45.792z M298.472,46.032
				c-0.407,0.168-0.823,0.2-1.239,0.232c-0.728,0.056-1.167,0.32-1.167,0.879c0,0.504,0.439,0.744,0.896,0.744
				c0.76,0,1.511-0.368,1.511-1.208V46.032z"/>
			<path d="M300.362,49.734v-7.436h1.527v0.4h-1.016v6.636h0.999v0.4H300.362z"/>
			<path d="M306.424,45.488c0,1.496-0.353,2.831-1.903,2.831c-1.56,0-1.911-1.327-1.911-2.886c0-1.423,0.288-2.862,1.911-2.862
				C306.192,42.57,306.424,44.177,306.424,45.488z M304.505,43.002c-1.12,0-1.384,1.239-1.384,2.486c0,1.447,0.32,2.399,1.399,2.399
				c1.215,0,1.392-1.319,1.392-2.455C305.912,44.217,305.696,43.002,304.505,43.002z"/>
			<path d="M308.681,49.734h-1.527v-0.4h1.016v-6.636h-0.999v-0.4h1.511V49.734z"/>
		</g>
		<g>
			<path d="M276.497,64.621c0.088,1.032,0.775,1.407,1.655,1.407c1.031,0,1.463-0.56,1.463-1.191c0-1.783-3.51-0.6-3.51-2.863
				c0-0.799,0.664-1.543,1.951-1.543c1.295,0,1.942,0.784,1.935,1.719h-0.52c0-0.88-0.68-1.255-1.415-1.255
				c-1.104,0-1.503,0.679-1.407,1.271c0.248,1.487,3.51,0.416,3.51,2.646c0,1.056-0.775,1.679-2.103,1.679
				c-1.199,0-2.087-0.624-2.087-1.871H276.497z"/>
			<path d="M282.544,66.356c-0.111,0.024-0.319,0.096-0.552,0.096c-0.472,0-0.735-0.208-0.735-0.823v-3.031h-0.583v-0.399h0.583
				v-1.151h0.479v1.151h0.776v0.399h-0.776v2.839c0,0.408,0.017,0.583,0.416,0.583c0.128,0,0.264-0.024,0.392-0.056V66.356z"/>
			<path d="M283.385,66.34v-5.757h1.968c0.64,0,1.239,0.04,1.774,0.432c0.76,0.552,0.96,1.671,0.96,2.439
				c0,0.759-0.168,1.607-0.696,2.183c-0.527,0.592-1.279,0.704-2.038,0.704H283.385z M283.929,65.876h1.304
				c0.487,0,0.911-0.032,1.351-0.264c0.768-0.392,0.96-1.375,0.96-2.159c0-0.84-0.184-1.759-0.991-2.191
				c-0.344-0.184-0.84-0.216-1.319-0.216h-1.304V65.876z"/>
			<path d="M290.993,63.926c0.176-0.016,0.472-0.064,0.632-0.136c0.159-0.072,0.176-0.288,0.176-0.432
				c0-0.488-0.288-0.839-1.031-0.839c-0.664,0-1.12,0.216-1.208,0.936h-0.487c0.072-0.976,0.8-1.368,1.703-1.368
				c0.84,0,1.503,0.328,1.503,1.288v2.255c0,0.375,0.096,0.463,0.504,0.32v0.375c-0.072,0.024-0.24,0.08-0.376,0.08
				c-0.08,0-0.144-0.008-0.216-0.024c-0.319-0.048-0.376-0.328-0.384-0.616c-0.399,0.448-0.943,0.688-1.543,0.688
				c-0.728,0-1.384-0.392-1.384-1.191c0-0.695,0.48-1.119,1.447-1.247L290.993,63.926z M291.8,64.166
				c-0.408,0.168-0.823,0.2-1.239,0.232c-0.728,0.056-1.168,0.32-1.168,0.879c0,0.504,0.44,0.744,0.896,0.744
				c0.76,0,1.512-0.368,1.512-1.208V64.166z"/>
			<path d="M294.993,66.356c-0.111,0.024-0.319,0.096-0.552,0.096c-0.472,0-0.735-0.208-0.735-0.823v-3.031h-0.583v-0.399h0.583
				v-1.151h0.479v1.151h0.776v0.399h-0.776v2.839c0,0.408,0.017,0.583,0.416,0.583c0.128,0,0.264-0.024,0.392-0.056V66.356z"/>
			<path d="M297.664,63.926c0.177-0.016,0.472-0.064,0.632-0.136c0.16-0.072,0.176-0.288,0.176-0.432
				c0-0.488-0.287-0.839-1.031-0.839c-0.663,0-1.119,0.216-1.207,0.936h-0.488c0.072-0.976,0.8-1.368,1.703-1.368
				c0.84,0,1.504,0.328,1.504,1.288v2.255c0,0.375,0.096,0.463,0.503,0.32v0.375c-0.071,0.024-0.239,0.08-0.375,0.08
				c-0.08,0-0.145-0.008-0.216-0.024c-0.32-0.048-0.376-0.328-0.384-0.616c-0.4,0.448-0.944,0.688-1.544,0.688
				c-0.728,0-1.383-0.392-1.383-1.191c0-0.695,0.479-1.119,1.447-1.247L297.664,63.926z M298.472,64.166
				c-0.407,0.168-0.823,0.2-1.239,0.232c-0.728,0.056-1.167,0.32-1.167,0.879c0,0.504,0.439,0.744,0.896,0.744
				c0.76,0,1.511-0.368,1.511-1.208V64.166z"/>
			<path d="M300.362,67.868v-7.436h1.527v0.4h-1.016v6.636h0.999v0.4H300.362z"/>
			<path d="M304.712,62.151h-1.455v-0.336c0.855-0.056,1.392-0.144,1.56-1.111h0.407v5.637h-0.512V62.151z"/>
			<path d="M308.681,67.868h-1.527v-0.4h1.016v-6.636h-0.999v-0.4h1.511V67.868z"/>
		</g>
		<g>
			<path d="M276.497,83.037c0.088,1.032,0.775,1.407,1.655,1.407c1.031,0,1.463-0.56,1.463-1.191c0-1.783-3.51-0.6-3.51-2.863
				c0-0.799,0.664-1.543,1.951-1.543c1.295,0,1.942,0.784,1.935,1.719h-0.52c0-0.88-0.68-1.255-1.415-1.255
				c-1.104,0-1.503,0.679-1.407,1.271c0.248,1.487,3.51,0.416,3.51,2.646c0,1.056-0.775,1.679-2.103,1.679
				c-1.199,0-2.087-0.624-2.087-1.871H276.497z"/>
			<path d="M282.544,84.772c-0.111,0.024-0.319,0.096-0.552,0.096c-0.472,0-0.735-0.208-0.735-0.823v-3.031h-0.583v-0.399h0.583
				v-1.151h0.479v1.151h0.776v0.399h-0.776v2.839c0,0.408,0.017,0.583,0.416,0.583c0.128,0,0.264-0.024,0.392-0.056V84.772z"/>
			<path d="M283.385,84.756v-5.757h1.968c0.64,0,1.239,0.04,1.774,0.432c0.76,0.552,0.96,1.671,0.96,2.439
				c0,0.759-0.168,1.607-0.696,2.183c-0.527,0.592-1.279,0.704-2.038,0.704H283.385z M283.929,84.292h1.304
				c0.487,0,0.911-0.032,1.351-0.264c0.768-0.392,0.96-1.375,0.96-2.159c0-0.84-0.184-1.759-0.991-2.191
				c-0.344-0.184-0.84-0.216-1.319-0.216h-1.304V84.292z"/>
			<path d="M290.993,82.341c0.176-0.016,0.472-0.064,0.632-0.136c0.159-0.072,0.176-0.288,0.176-0.432
				c0-0.488-0.288-0.839-1.031-0.839c-0.664,0-1.12,0.216-1.208,0.936h-0.487c0.072-0.976,0.8-1.368,1.703-1.368
				c0.84,0,1.503,0.328,1.503,1.288v2.255c0,0.375,0.096,0.463,0.504,0.32v0.375c-0.072,0.024-0.24,0.08-0.376,0.08
				c-0.08,0-0.144-0.008-0.216-0.024c-0.319-0.048-0.376-0.328-0.384-0.616c-0.399,0.448-0.943,0.688-1.543,0.688
				c-0.728,0-1.384-0.392-1.384-1.191c0-0.695,0.48-1.119,1.447-1.247L290.993,82.341z M291.8,82.581
				c-0.408,0.168-0.823,0.2-1.239,0.232c-0.728,0.056-1.168,0.32-1.168,0.879c0,0.504,0.44,0.744,0.896,0.744
				c0.76,0,1.512-0.368,1.512-1.208V82.581z"/>
			<path d="M294.993,84.772c-0.111,0.024-0.319,0.096-0.552,0.096c-0.472,0-0.735-0.208-0.735-0.823v-3.031h-0.583v-0.399h0.583
				v-1.151h0.479v1.151h0.776v0.399h-0.776v2.839c0,0.408,0.017,0.583,0.416,0.583c0.128,0,0.264-0.024,0.392-0.056V84.772z"/>
			<path d="M297.664,82.341c0.177-0.016,0.472-0.064,0.632-0.136c0.16-0.072,0.176-0.288,0.176-0.432
				c0-0.488-0.287-0.839-1.031-0.839c-0.663,0-1.119,0.216-1.207,0.936h-0.488c0.072-0.976,0.8-1.368,1.703-1.368
				c0.84,0,1.504,0.328,1.504,1.288v2.255c0,0.375,0.096,0.463,0.503,0.32v0.375c-0.071,0.024-0.239,0.08-0.375,0.08
				c-0.08,0-0.145-0.008-0.216-0.024c-0.32-0.048-0.376-0.328-0.384-0.616c-0.4,0.448-0.944,0.688-1.544,0.688
				c-0.728,0-1.383-0.392-1.383-1.191c0-0.695,0.479-1.119,1.447-1.247L297.664,82.341z M298.472,82.581
				c-0.407,0.168-0.823,0.2-1.239,0.232c-0.728,0.056-1.167,0.32-1.167,0.879c0,0.504,0.439,0.744,0.896,0.744
				c0.76,0,1.511-0.368,1.511-1.208V82.581z"/>
			<path d="M300.362,86.283v-7.436h1.527v0.4h-1.016v6.636h0.999v0.4H300.362z"/>
			<path d="M302.85,80.966c0-1.111,0.72-1.847,1.831-1.847c1.135,0,1.734,0.695,1.734,1.559c0,1.495-1.615,1.871-2.454,2.51
				c-0.368,0.28-0.712,0.6-0.735,1.136h3.142v0.432h-3.686c0.008-0.536,0.08-0.959,0.439-1.375c1.176-1.359,2.734-1.344,2.734-2.671
				c0-0.735-0.544-1.159-1.239-1.159c-0.735,0-1.255,0.656-1.224,1.415H302.85z"/>
			<path d="M308.681,86.283h-1.527v-0.4h1.016v-6.636h-0.999v-0.4h1.511V86.283z"/>
		</g>
		<g>
			<path d="M276.497,100.886c0.088,1.032,0.775,1.407,1.655,1.407c1.031,0,1.463-0.56,1.463-1.191c0-1.783-3.51-0.6-3.51-2.863
				c0-0.799,0.664-1.543,1.951-1.543c1.295,0,1.942,0.784,1.935,1.719h-0.52c0-0.88-0.68-1.255-1.415-1.255
				c-1.104,0-1.503,0.679-1.407,1.271c0.248,1.487,3.51,0.416,3.51,2.646c0,1.056-0.775,1.679-2.103,1.679
				c-1.199,0-2.087-0.624-2.087-1.871H276.497z"/>
			<path d="M282.544,102.622c-0.111,0.024-0.319,0.096-0.552,0.096c-0.472,0-0.735-0.208-0.735-0.823v-3.031h-0.583v-0.399h0.583
				v-1.151h0.479v1.151h0.776v0.399h-0.776v2.839c0,0.408,0.017,0.583,0.416,0.583c0.128,0,0.264-0.024,0.392-0.056V102.622z"/>
			<path d="M283.385,102.605v-5.757h1.968c0.64,0,1.239,0.04,1.774,0.432c0.76,0.552,0.96,1.671,0.96,2.439
				c0,0.759-0.168,1.607-0.696,2.183c-0.527,0.592-1.279,0.704-2.038,0.704H283.385z M283.929,102.142h1.304
				c0.487,0,0.911-0.032,1.351-0.264c0.768-0.392,0.96-1.375,0.96-2.159c0-0.84-0.184-1.759-0.991-2.191
				c-0.344-0.184-0.84-0.216-1.319-0.216h-1.304V102.142z"/>
			<path d="M290.993,100.191c0.176-0.016,0.472-0.064,0.632-0.136c0.159-0.072,0.176-0.288,0.176-0.432
				c0-0.488-0.288-0.839-1.031-0.839c-0.664,0-1.12,0.216-1.208,0.936h-0.487c0.072-0.976,0.8-1.368,1.703-1.368
				c0.84,0,1.503,0.328,1.503,1.288v2.255c0,0.375,0.096,0.463,0.504,0.32v0.375c-0.072,0.024-0.24,0.08-0.376,0.08
				c-0.08,0-0.144-0.008-0.216-0.024c-0.319-0.048-0.376-0.328-0.384-0.616c-0.399,0.448-0.943,0.688-1.543,0.688
				c-0.728,0-1.384-0.392-1.384-1.191c0-0.695,0.48-1.119,1.447-1.247L290.993,100.191z M291.8,100.431
				c-0.408,0.168-0.823,0.2-1.239,0.232c-0.728,0.056-1.168,0.32-1.168,0.879c0,0.504,0.44,0.744,0.896,0.744
				c0.76,0,1.512-0.368,1.512-1.208V100.431z"/>
			<path d="M294.993,102.622c-0.111,0.024-0.319,0.096-0.552,0.096c-0.472,0-0.735-0.208-0.735-0.823v-3.031h-0.583v-0.399h0.583
				v-1.151h0.479v1.151h0.776v0.399h-0.776v2.839c0,0.408,0.017,0.583,0.416,0.583c0.128,0,0.264-0.024,0.392-0.056V102.622z"/>
			<path d="M297.664,100.191c0.177-0.016,0.472-0.064,0.632-0.136c0.16-0.072,0.176-0.288,0.176-0.432
				c0-0.488-0.287-0.839-1.031-0.839c-0.663,0-1.119,0.216-1.207,0.936h-0.488c0.072-0.976,0.8-1.368,1.703-1.368
				c0.84,0,1.504,0.328,1.504,1.288v2.255c0,0.375,0.096,0.463,0.503,0.32v0.375c-0.071,0.024-0.239,0.08-0.375,0.08
				c-0.08,0-0.145-0.008-0.216-0.024c-0.32-0.048-0.376-0.328-0.384-0.616c-0.4,0.448-0.944,0.688-1.544,0.688
				c-0.728,0-1.383-0.392-1.383-1.191c0-0.695,0.479-1.119,1.447-1.247L297.664,100.191z M298.472,100.431
				c-0.407,0.168-0.823,0.2-1.239,0.232c-0.728,0.056-1.167,0.32-1.167,0.879c0,0.504,0.439,0.744,0.896,0.744
				c0.76,0,1.511-0.368,1.511-1.208V100.431z"/>
			<path d="M300.362,104.133v-7.436h1.527v0.4h-1.016v6.636h0.999v0.4H300.362z"/>
			<path d="M304.065,99.471c0.952,0.008,1.615-0.216,1.615-1.08c0-0.695-0.552-0.991-1.199-0.991c-0.72,0-1.207,0.504-1.207,1.207
				h-0.512c0-0.503,0.168-0.911,0.543-1.263c0.353-0.32,0.816-0.375,1.279-0.375c0.888,0,1.607,0.448,1.607,1.391
				c0,0.583-0.256,1.023-0.8,1.255c0.815,0.256,1,0.872,1,1.391c0,0.927-0.656,1.679-1.815,1.711c-1.303,0-1.887-0.432-2.007-1.743
				h0.512c0,0.855,0.567,1.311,1.399,1.311c0.815,0,1.432-0.608,1.399-1.271c-0.032-0.911-0.824-1.199-1.815-1.127V99.471z"/>
			<path d="M308.681,104.133h-1.527v-0.4h1.016v-6.636h-0.999v-0.4h1.511V104.133z"/>
		</g>
		<g>
			<path d="M276.497,119.302c0.088,1.032,0.775,1.407,1.655,1.407c1.031,0,1.463-0.56,1.463-1.191c0-1.783-3.51-0.6-3.51-2.863
				c0-0.799,0.664-1.543,1.951-1.543c1.295,0,1.942,0.784,1.935,1.719h-0.52c0-0.88-0.68-1.255-1.415-1.255
				c-1.104,0-1.503,0.679-1.407,1.271c0.248,1.487,3.51,0.416,3.51,2.646c0,1.056-0.775,1.679-2.103,1.679
				c-1.199,0-2.087-0.624-2.087-1.871H276.497z"/>
			<path d="M282.544,121.037c-0.111,0.024-0.319,0.096-0.552,0.096c-0.472,0-0.735-0.208-0.735-0.823v-3.031h-0.583v-0.399h0.583
				v-1.151h0.479v1.151h0.776v0.399h-0.776v2.839c0,0.408,0.017,0.583,0.416,0.583c0.128,0,0.264-0.024,0.392-0.056V121.037z"/>
			<path d="M283.385,121.021v-5.757h1.968c0.64,0,1.239,0.04,1.774,0.432c0.76,0.552,0.96,1.671,0.96,2.439
				c0,0.759-0.168,1.607-0.696,2.183c-0.527,0.592-1.279,0.704-2.038,0.704H283.385z M283.929,120.557h1.304
				c0.487,0,0.911-0.032,1.351-0.264c0.768-0.392,0.96-1.375,0.96-2.159c0-0.84-0.184-1.759-0.991-2.191
				c-0.344-0.184-0.84-0.216-1.319-0.216h-1.304V120.557z"/>
			<path d="M290.993,118.606c0.176-0.016,0.472-0.064,0.632-0.136c0.159-0.072,0.176-0.288,0.176-0.432
				c0-0.488-0.288-0.839-1.031-0.839c-0.664,0-1.12,0.216-1.208,0.936h-0.487c0.072-0.976,0.8-1.368,1.703-1.368
				c0.84,0,1.503,0.328,1.503,1.288v2.255c0,0.375,0.096,0.463,0.504,0.32v0.375c-0.072,0.024-0.24,0.08-0.376,0.08
				c-0.08,0-0.144-0.008-0.216-0.024c-0.319-0.048-0.376-0.328-0.384-0.616c-0.399,0.448-0.943,0.688-1.543,0.688
				c-0.728,0-1.384-0.392-1.384-1.191c0-0.695,0.48-1.119,1.447-1.247L290.993,118.606z M291.8,118.846
				c-0.408,0.168-0.823,0.2-1.239,0.232c-0.728,0.056-1.168,0.32-1.168,0.879c0,0.504,0.44,0.744,0.896,0.744
				c0.76,0,1.512-0.368,1.512-1.208V118.846z"/>
			<path d="M294.993,121.037c-0.111,0.024-0.319,0.096-0.552,0.096c-0.472,0-0.735-0.208-0.735-0.823v-3.031h-0.583v-0.399h0.583
				v-1.151h0.479v1.151h0.776v0.399h-0.776v2.839c0,0.408,0.017,0.583,0.416,0.583c0.128,0,0.264-0.024,0.392-0.056V121.037z"/>
			<path d="M297.664,118.606c0.177-0.016,0.472-0.064,0.632-0.136c0.16-0.072,0.176-0.288,0.176-0.432
				c0-0.488-0.287-0.839-1.031-0.839c-0.663,0-1.119,0.216-1.207,0.936h-0.488c0.072-0.976,0.8-1.368,1.703-1.368
				c0.84,0,1.504,0.328,1.504,1.288v2.255c0,0.375,0.096,0.463,0.503,0.32v0.375c-0.071,0.024-0.239,0.08-0.375,0.08
				c-0.08,0-0.145-0.008-0.216-0.024c-0.32-0.048-0.376-0.328-0.384-0.616c-0.4,0.448-0.944,0.688-1.544,0.688
				c-0.728,0-1.383-0.392-1.383-1.191c0-0.695,0.479-1.119,1.447-1.247L297.664,118.606z M298.472,118.846
				c-0.407,0.168-0.823,0.2-1.239,0.232c-0.728,0.056-1.167,0.32-1.167,0.879c0,0.504,0.439,0.744,0.896,0.744
				c0.76,0,1.511-0.368,1.511-1.208V118.846z"/>
			<path d="M300.362,122.548v-7.436h1.527v0.4h-1.016v6.636h0.999v0.4H300.362z"/>
			<path d="M305.16,119.63h-2.574v-0.44l2.622-3.75h0.464v3.758h0.783v0.432h-0.783v1.391h-0.512V119.63z M303.089,119.198h2.071
				v-2.99L303.089,119.198z"/>
			<path d="M308.681,122.548h-1.527v-0.4h1.016v-6.636h-0.999v-0.4h1.511V122.548z"/>
		</g>
		<g>
			<path d="M75.06,30.358v-5.757h1.967c0.64,0,1.239,0.04,1.775,0.432c0.76,0.552,0.959,1.671,0.959,2.439
				c0,0.759-0.167,1.607-0.695,2.183c-0.527,0.592-1.279,0.704-2.039,0.704H75.06z M75.604,29.895h1.303
				c0.488,0,0.912-0.032,1.352-0.264c0.768-0.392,0.96-1.375,0.96-2.159c0-0.84-0.185-1.759-0.992-2.191
				c-0.344-0.184-0.839-0.216-1.319-0.216h-1.303V29.895z"/>
			<path d="M82.666,27.944c0.176-0.016,0.472-0.064,0.632-0.136c0.16-0.072,0.176-0.288,0.176-0.432
				c0-0.488-0.288-0.839-1.031-0.839c-0.664,0-1.119,0.216-1.207,0.936h-0.488c0.072-0.976,0.8-1.368,1.703-1.368
				c0.84,0,1.503,0.328,1.503,1.288v2.255c0,0.375,0.097,0.463,0.504,0.32v0.375c-0.072,0.024-0.24,0.08-0.376,0.08
				c-0.08,0-0.144-0.008-0.216-0.024c-0.319-0.048-0.376-0.328-0.384-0.616c-0.399,0.448-0.943,0.688-1.543,0.688
				c-0.728,0-1.383-0.392-1.383-1.191c0-0.695,0.479-1.119,1.447-1.247L82.666,27.944z M83.474,28.184
				c-0.407,0.168-0.823,0.2-1.239,0.232c-0.728,0.056-1.167,0.32-1.167,0.879c0,0.504,0.439,0.744,0.896,0.744
				c0.759,0,1.511-0.368,1.511-1.208V28.184z"/>
			<path d="M86.667,30.374c-0.112,0.024-0.32,0.096-0.552,0.096c-0.472,0-0.736-0.208-0.736-0.823v-3.031h-0.583v-0.399h0.583
				v-1.151h0.48v1.151h0.775v0.399H85.86v2.839c0,0.408,0.016,0.583,0.415,0.583c0.128,0,0.265-0.024,0.393-0.056V30.374z"/>
			<path d="M89.338,27.944c0.176-0.016,0.472-0.064,0.632-0.136c0.16-0.072,0.176-0.288,0.176-0.432
				c0-0.488-0.288-0.839-1.031-0.839c-0.664,0-1.119,0.216-1.207,0.936h-0.488c0.072-0.976,0.8-1.368,1.703-1.368
				c0.84,0,1.503,0.328,1.503,1.288v2.255c0,0.375,0.097,0.463,0.504,0.32v0.375c-0.072,0.024-0.24,0.08-0.376,0.08
				c-0.08,0-0.144-0.008-0.216-0.024c-0.319-0.048-0.376-0.328-0.384-0.616c-0.399,0.448-0.943,0.688-1.543,0.688
				c-0.728,0-1.383-0.392-1.383-1.191c0-0.695,0.479-1.119,1.447-1.247L89.338,27.944z M90.146,28.184
				c-0.407,0.168-0.823,0.2-1.239,0.232c-0.728,0.056-1.167,0.32-1.167,0.879c0,0.504,0.439,0.744,0.896,0.744
				c0.759,0,1.511-0.368,1.511-1.208V28.184z"/>
			<path d="M93.723,26.169h-1.455v-0.336c0.855-0.056,1.391-0.144,1.559-1.111h0.408v5.637h-0.512V26.169z"/>
		</g>
		<g>
			<path d="M92.369,44.018h-1.455v-0.336c0.855-0.056,1.391-0.144,1.559-1.111h0.408v5.637h-0.512V44.018z"/>
			<path d="M94.953,44.417c0-1.111,0.72-1.847,1.831-1.847c1.135,0,1.735,0.695,1.735,1.559c0,1.495-1.615,1.871-2.455,2.51
				c-0.368,0.28-0.712,0.6-0.735,1.136h3.142v0.432h-3.686c0.008-0.536,0.08-0.959,0.439-1.375c1.176-1.359,2.734-1.344,2.734-2.671
				c0-0.735-0.543-1.159-1.239-1.159c-0.735,0-1.255,0.656-1.223,1.415H94.953z"/>
			<path d="M100.617,45.073c0.952,0.008,1.615-0.216,1.615-1.08c0-0.695-0.552-0.991-1.199-0.991c-0.72,0-1.207,0.504-1.207,1.207
				h-0.512c0-0.503,0.168-0.911,0.544-1.263c0.352-0.32,0.815-0.375,1.279-0.375c0.887,0,1.606,0.448,1.606,1.391
				c0,0.583-0.256,1.023-0.799,1.255c0.815,0.256,0.999,0.872,0.999,1.391c0,0.927-0.655,1.679-1.815,1.711
				c-1.303,0-1.887-0.432-2.007-1.743h0.512c0,0.855,0.568,1.311,1.399,1.311c0.815,0,1.432-0.608,1.399-1.271
				c-0.032-0.911-0.823-1.199-1.815-1.127V45.073z"/>
			<path d="M106.16,46.816h-2.574v-0.44l2.622-3.75h0.464v3.758h0.784v0.432h-0.784v1.391h-0.512V46.816z M104.09,46.384h2.07v-2.99
				L104.09,46.384z"/>
		</g>
		<g>
			<path d="M10.631,6.501h0.872l-2.095,5.741H8.584L6.49,6.501h0.863l1.639,4.893h0.016L10.631,6.501z"/>
			<path d="M12.161,9.332c0.032-1,0.696-1.392,1.727-1.392c0.336,0,1.551,0.096,1.551,1.167v2.407c0,0.176,0.088,0.248,0.232,0.248
				c0.064,0,0.152-0.016,0.232-0.032v0.512c-0.12,0.032-0.224,0.08-0.384,0.08c-0.624,0-0.72-0.32-0.744-0.64
				c-0.272,0.296-0.696,0.68-1.511,0.68c-0.768,0-1.311-0.488-1.311-1.208c0-0.352,0.104-1.167,1.271-1.311l1.16-0.144
				c0.167-0.016,0.368-0.08,0.368-0.496c0-0.44-0.32-0.68-0.983-0.68c-0.8,0-0.912,0.487-0.959,0.808H12.161z M14.736,10.107
				c-0.112,0.088-0.288,0.152-1.159,0.264c-0.344,0.048-0.896,0.152-0.896,0.68c0,0.456,0.231,0.728,0.759,0.728
				c0.656,0,1.295-0.424,1.295-0.983V10.107z"/>
			<path d="M17.433,12.242h-0.704V8.061h0.664v0.695h0.016c0.28-0.487,0.647-0.815,1.175-0.815c0.088,0,0.128,0.008,0.184,0.024
				v0.728h-0.264c-0.656,0-1.071,0.512-1.071,1.119V12.242z"/>
			<path d="M19.313,7.301V6.501h0.704v0.799H19.313z M20.017,12.242h-0.704V8.061h0.704V12.242z"/>
			<path d="M21.049,9.332c0.032-1,0.696-1.392,1.727-1.392c0.336,0,1.551,0.096,1.551,1.167v2.407c0,0.176,0.088,0.248,0.232,0.248
				c0.064,0,0.152-0.016,0.232-0.032v0.512c-0.12,0.032-0.224,0.08-0.384,0.08c-0.624,0-0.72-0.32-0.744-0.64
				c-0.272,0.296-0.696,0.68-1.511,0.68c-0.768,0-1.312-0.488-1.312-1.208c0-0.352,0.104-1.167,1.271-1.311L23.272,9.7
				c0.168-0.016,0.368-0.08,0.368-0.496c0-0.44-0.32-0.68-0.983-0.68c-0.8,0-0.912,0.487-0.959,0.808H21.049z M23.624,10.107
				c-0.112,0.088-0.288,0.152-1.159,0.264c-0.344,0.048-0.896,0.152-0.896,0.68c0,0.456,0.232,0.728,0.759,0.728
				c0.656,0,1.295-0.424,1.295-0.983V10.107z"/>
			<path d="M25.465,12.242V6.501h0.704v2.087h0.016c0.304-0.44,0.719-0.64,1.207-0.648c1.111,0,1.743,0.912,1.743,2.087
				c0,1-0.416,2.335-1.839,2.335c-0.712,0-1.008-0.408-1.151-0.64h-0.016v0.52H25.465z M27.264,8.572
				c-1.016,0-1.127,1.095-1.127,1.775c0,1.111,0.696,1.407,1.144,1.407c0.768,0,1.127-0.696,1.127-1.615
				C28.408,9.604,28.351,8.572,27.264,8.572z"/>
			<path d="M30.689,12.242h-0.704V6.501h0.704V12.242z"/>
			<path d="M35.295,10.931c-0.024,0.2-0.216,0.792-0.744,1.144c-0.192,0.128-0.464,0.288-1.135,0.288
				c-1.175,0-1.871-0.888-1.871-2.095c0-1.295,0.624-2.327,2.007-2.327c1.208,0,1.799,0.959,1.799,2.439h-3.054
				c0,0.872,0.408,1.375,1.215,1.375c0.664,0,1.056-0.512,1.08-0.824H35.295z M34.623,9.819c-0.04-0.647-0.312-1.247-1.167-1.247
				c-0.648,0-1.16,0.6-1.16,1.247H34.623z"/>
		</g>
		<g>
			<path d="M133.352,12.242v-3.39c0-0.168,0.016-0.896,0.016-1.431h-0.016l-1.615,4.821h-0.768l-1.615-4.813h-0.016
				c0,0.528,0.016,1.255,0.016,1.423v3.39h-0.751V6.501h1.111l1.639,4.853h0.017L133,6.501h1.104v5.741H133.352z"/>
			<path d="M138.752,10.931c-0.023,0.2-0.216,0.792-0.743,1.144c-0.191,0.128-0.464,0.288-1.136,0.288
				c-1.175,0-1.87-0.888-1.87-2.095c0-1.295,0.623-2.327,2.007-2.327c1.207,0,1.799,0.959,1.799,2.439h-3.055
				c0,0.872,0.408,1.375,1.216,1.375c0.663,0,1.055-0.512,1.079-0.824H138.752z M138.081,9.819c-0.04-0.647-0.312-1.247-1.168-1.247
				c-0.647,0-1.159,0.6-1.159,1.247H138.081z"/>
			<path d="M139.651,8.061h0.664v0.592h0.016c0.152-0.224,0.512-0.712,1.264-0.712c0.751,0,0.991,0.456,1.111,0.68
				c0.352-0.392,0.632-0.68,1.279-0.68c0.447,0,1.295,0.232,1.295,1.407v2.895h-0.703V9.54c0-0.576-0.176-0.967-0.776-0.967
				c-0.591,0-0.983,0.56-0.983,1.119v2.551h-0.703V9.348c0-0.352-0.136-0.775-0.655-0.775c-0.4,0-1.104,0.256-1.104,1.391v2.279
				h-0.704V8.061z"/>
			<path d="M146.259,12.242V6.501h0.703v2.087h0.017c0.304-0.44,0.72-0.64,1.207-0.648c1.111,0,1.743,0.912,1.743,2.087
				c0,1-0.416,2.335-1.839,2.335c-0.712,0-1.008-0.408-1.151-0.64h-0.017v0.52H146.259z M148.058,8.572
				c-1.016,0-1.127,1.095-1.127,1.775c0,1.111,0.695,1.407,1.143,1.407c0.768,0,1.128-0.696,1.128-1.615
				C149.202,9.604,149.146,8.572,148.058,8.572z"/>
			<path d="M154.313,10.931c-0.023,0.2-0.216,0.792-0.743,1.144c-0.191,0.128-0.464,0.288-1.136,0.288
				c-1.175,0-1.87-0.888-1.87-2.095c0-1.295,0.623-2.327,2.007-2.327c1.207,0,1.799,0.959,1.799,2.439h-3.055
				c0,0.872,0.408,1.375,1.216,1.375c0.663,0,1.055-0.512,1.079-0.824H154.313z M153.642,9.819c-0.04-0.647-0.312-1.247-1.168-1.247
				c-0.647,0-1.159,0.6-1.159,1.247H153.642z"/>
			<path d="M156.011,12.242h-0.704V8.061h0.664v0.695h0.016c0.28-0.487,0.648-0.815,1.176-0.815c0.088,0,0.128,0.008,0.184,0.024
				v0.728h-0.264c-0.655,0-1.071,0.512-1.071,1.119V12.242z"/>
		</g>
		<g>
			<path d="M102.343,62.086c-0.112-0.575-0.472-0.951-1.071-0.951c-1.384,0-1.503,1.487-1.583,2.551
				c0.319-0.432,0.655-0.88,1.479-0.88c1.136,0,1.791,0.688,1.791,1.815c0,1.136-0.663,1.831-1.807,1.831
				c-1.127,0-1.975-0.704-1.975-2.694c0-1.335,0.392-3.054,2.047-3.054c0.887,0,1.543,0.479,1.646,1.383H102.343z M99.88,64.637
				c0,0.632,0.352,1.383,1.279,1.383c0.951,0,1.287-0.736,1.287-1.415c0-0.872-0.415-1.368-1.295-1.368
				C100.36,63.238,99.88,63.877,99.88,64.637z"/>
			<path d="M104.089,64.877c0.104,0.76,0.655,1.144,1.391,1.144c0.84,0,1.352-0.64,1.352-1.439c0-0.84-0.544-1.432-1.399-1.432
				c-0.504,0-0.911,0.176-1.224,0.584l-0.424-0.056l0.456-2.918h2.799v0.432h-2.367l-0.352,1.895
				c0.439-0.288,0.728-0.368,1.239-0.368c1.031,0,1.783,0.704,1.783,1.863c0,1.183-0.855,1.871-1.783,1.871
				c-1.063,0-1.895-0.408-1.982-1.575H104.089z"/>
		</g>
		<g>
			<path d="M90.745,83.292c0.104,0.76,0.655,1.144,1.391,1.144c0.84,0,1.352-0.64,1.352-1.439c0-0.84-0.544-1.432-1.399-1.432
				c-0.504,0-0.911,0.176-1.224,0.584l-0.424-0.056l0.456-2.918h2.799v0.432h-2.367l-0.352,1.895
				c0.439-0.288,0.728-0.368,1.239-0.368c1.031,0,1.783,0.704,1.783,1.863c0,1.183-0.855,1.871-1.783,1.871
				c-1.063,0-1.895-0.408-1.982-1.575H90.745z"/>
			<path d="M97.264,83.365H94.69v-0.44l2.622-3.75h0.464v3.758h0.784v0.432h-0.784v1.391h-0.512V83.365z M95.194,82.933h2.07v-2.99
				L95.194,82.933z"/>
			<path d="M102.344,80.502c-0.112-0.575-0.472-0.951-1.071-0.951c-1.384,0-1.503,1.487-1.583,2.551
				c0.319-0.432,0.655-0.88,1.479-0.88c1.136,0,1.791,0.688,1.791,1.815c0,1.136-0.663,1.831-1.807,1.831
				c-1.127,0-1.975-0.704-1.975-2.694c0-1.335,0.392-3.054,2.047-3.054c0.888,0,1.543,0.479,1.646,1.383H102.344z M99.881,83.053
				c0,0.632,0.352,1.383,1.279,1.383c0.952,0,1.287-0.736,1.287-1.415c0-0.872-0.415-1.368-1.295-1.368
				C100.361,81.653,99.881,82.293,99.881,83.053z"/>
			<path d="M104.09,83.292c0.104,0.76,0.655,1.144,1.391,1.144c0.84,0,1.352-0.64,1.352-1.439c0-0.84-0.544-1.432-1.399-1.432
				c-0.504,0-0.911,0.176-1.224,0.584l-0.424-0.056l0.456-2.918h2.799v0.432h-2.367l-0.352,1.895
				c0.439-0.288,0.728-0.368,1.239-0.368c1.031,0,1.783,0.704,1.783,1.863c0,1.183-0.855,1.871-1.783,1.871
				c-1.063,0-1.895-0.408-1.982-1.575H104.09z"/>
		</g>
		<g>
			<path d="M90.745,101.142c0.104,0.76,0.655,1.144,1.391,1.144c0.84,0,1.352-0.64,1.352-1.439c0-0.84-0.544-1.432-1.399-1.432
				c-0.504,0-0.911,0.176-1.224,0.584l-0.424-0.056l0.456-2.918h2.799v0.432h-2.367l-0.352,1.895
				c0.439-0.288,0.728-0.368,1.239-0.368c1.031,0,1.783,0.704,1.783,1.863c0,1.183-0.855,1.871-1.783,1.871
				c-1.063,0-1.895-0.408-1.982-1.575H90.745z"/>
			<path d="M97.896,98.352c-0.112-0.575-0.472-0.951-1.071-0.951c-1.384,0-1.503,1.487-1.583,2.551
				c0.319-0.432,0.655-0.88,1.479-0.88c1.136,0,1.791,0.688,1.791,1.815c0,1.136-0.663,1.831-1.807,1.831
				c-1.127,0-1.975-0.704-1.975-2.694c0-1.335,0.392-3.054,2.047-3.054c0.887,0,1.543,0.479,1.646,1.383H97.896z M95.433,100.902
				c0,0.632,0.352,1.383,1.279,1.383c0.951,0,1.287-0.736,1.287-1.415c0-0.872-0.415-1.368-1.295-1.368
				C95.912,99.503,95.433,100.143,95.433,100.902z"/>
			<path d="M99.642,101.142c0.104,0.76,0.655,1.144,1.391,1.144c0.84,0,1.352-0.64,1.352-1.439c0-0.84-0.544-1.432-1.399-1.432
				c-0.504,0-0.911,0.176-1.224,0.584l-0.424-0.056l0.456-2.918h2.799v0.432h-2.367l-0.352,1.895
				c0.439-0.288,0.728-0.368,1.239-0.368c1.031,0,1.783,0.704,1.783,1.863c0,1.183-0.855,1.871-1.783,1.871
				c-1.063,0-1.895-0.408-1.982-1.575H99.642z"/>
			<path d="M106.792,98.352c-0.112-0.575-0.472-0.951-1.071-0.951c-1.384,0-1.503,1.487-1.583,2.551
				c0.319-0.432,0.655-0.88,1.479-0.88c1.136,0,1.791,0.688,1.791,1.815c0,1.136-0.663,1.831-1.807,1.831
				c-1.127,0-1.975-0.704-1.975-2.694c0-1.335,0.392-3.054,2.047-3.054c0.887,0,1.543,0.479,1.646,1.383H106.792z M104.329,100.902
				c0,0.632,0.352,1.383,1.279,1.383c0.951,0,1.287-0.736,1.287-1.415c0-0.872-0.415-1.368-1.295-1.368
				C104.809,99.503,104.329,100.143,104.329,100.902z"/>
		</g>
		<g>
			<path d="M95.194,119.558c0.104,0.76,0.655,1.144,1.391,1.144c0.84,0,1.352-0.64,1.352-1.439c0-0.84-0.544-1.432-1.399-1.432
				c-0.504,0-0.911,0.176-1.224,0.584l-0.424-0.056l0.456-2.918h2.799v0.432h-2.367l-0.352,1.895
				c0.439-0.288,0.728-0.368,1.239-0.368c1.031,0,1.783,0.704,1.783,1.863c0,1.183-0.855,1.871-1.783,1.871
				c-1.063,0-1.895-0.408-1.982-1.575H95.194z"/>
			<path d="M102.344,116.767c-0.112-0.575-0.472-0.951-1.071-0.951c-1.384,0-1.503,1.487-1.583,2.551
				c0.319-0.432,0.655-0.88,1.479-0.88c1.136,0,1.791,0.688,1.791,1.815c0,1.136-0.663,1.831-1.807,1.831
				c-1.127,0-1.975-0.704-1.975-2.694c0-1.335,0.392-3.054,2.047-3.054c0.888,0,1.543,0.479,1.646,1.383H102.344z M99.881,119.318
				c0,0.632,0.352,1.383,1.279,1.383c0.952,0,1.287-0.736,1.287-1.415c0-0.872-0.415-1.368-1.295-1.368
				C100.361,117.918,99.881,118.558,99.881,119.318z"/>
			<path d="M104.09,119.558c0.104,0.76,0.655,1.144,1.391,1.144c0.84,0,1.352-0.64,1.352-1.439c0-0.84-0.544-1.432-1.399-1.432
				c-0.504,0-0.911,0.176-1.224,0.584l-0.424-0.056l0.456-2.918h2.799v0.432h-2.367l-0.352,1.895
				c0.439-0.288,0.728-0.368,1.239-0.368c1.031,0,1.783,0.704,1.783,1.863c0,1.183-0.855,1.871-1.783,1.871
				c-1.063,0-1.895-0.408-1.982-1.575H104.09z"/>
		</g>
		<g>
			<path d="M132.662,30.358v-5.757h1.967c0.64,0,1.239,0.04,1.775,0.432c0.76,0.552,0.959,1.671,0.959,2.439
				c0,0.759-0.167,1.607-0.695,2.183c-0.527,0.592-1.279,0.704-2.039,0.704H132.662z M133.206,29.895h1.303
				c0.488,0,0.912-0.032,1.352-0.264c0.768-0.392,0.96-1.375,0.96-2.159c0-0.84-0.185-1.759-0.992-2.191
				c-0.344-0.184-0.839-0.216-1.319-0.216h-1.303V29.895z"/>
			<path d="M140.269,27.944c0.176-0.016,0.472-0.064,0.632-0.136c0.16-0.072,0.176-0.288,0.176-0.432
				c0-0.488-0.288-0.839-1.031-0.839c-0.664,0-1.119,0.216-1.207,0.936h-0.488c0.072-0.976,0.8-1.368,1.703-1.368
				c0.84,0,1.503,0.328,1.503,1.288v2.255c0,0.375,0.097,0.463,0.504,0.32v0.375c-0.072,0.024-0.24,0.08-0.376,0.08
				c-0.08,0-0.144-0.008-0.216-0.024c-0.319-0.048-0.376-0.328-0.384-0.616c-0.399,0.448-0.943,0.688-1.543,0.688
				c-0.728,0-1.383-0.392-1.383-1.191c0-0.695,0.479-1.119,1.447-1.247L140.269,27.944z M141.077,28.184
				c-0.407,0.168-0.823,0.2-1.239,0.232c-0.728,0.056-1.167,0.32-1.167,0.879c0,0.504,0.439,0.744,0.896,0.744
				c0.759,0,1.511-0.368,1.511-1.208V28.184z"/>
			<path d="M144.27,30.374c-0.112,0.024-0.32,0.096-0.552,0.096c-0.472,0-0.736-0.208-0.736-0.823v-3.031h-0.583v-0.399h0.583
				v-1.151h0.48v1.151h0.775v0.399h-0.775v2.839c0,0.408,0.016,0.583,0.415,0.583c0.128,0,0.265-0.024,0.393-0.056V30.374z"/>
			<path d="M146.941,27.944c0.176-0.016,0.472-0.064,0.632-0.136c0.16-0.072,0.176-0.288,0.176-0.432
				c0-0.488-0.288-0.839-1.031-0.839c-0.664,0-1.119,0.216-1.207,0.936h-0.488c0.072-0.976,0.8-1.368,1.703-1.368
				c0.84,0,1.503,0.328,1.503,1.288v2.255c0,0.375,0.097,0.463,0.504,0.32v0.375c-0.072,0.024-0.24,0.08-0.376,0.08
				c-0.08,0-0.144-0.008-0.216-0.024c-0.319-0.048-0.376-0.328-0.384-0.616c-0.399,0.448-0.943,0.688-1.543,0.688
				c-0.728,0-1.383-0.392-1.383-1.191c0-0.695,0.479-1.119,1.447-1.247L146.941,27.944z M147.748,28.184
				c-0.407,0.168-0.823,0.2-1.239,0.232c-0.728,0.056-1.167,0.32-1.167,0.879c0,0.504,0.439,0.744,0.896,0.744
				c0.759,0,1.511-0.368,1.511-1.208V28.184z"/>
			<path d="M149.462,26.568c0-1.111,0.72-1.847,1.831-1.847c1.136,0,1.735,0.695,1.735,1.559c0,1.495-1.615,1.871-2.455,2.51
				c-0.368,0.28-0.712,0.6-0.735,1.136h3.142v0.432h-3.686c0.008-0.536,0.08-0.959,0.439-1.375c1.176-1.359,2.734-1.344,2.734-2.671
				c0-0.735-0.543-1.159-1.239-1.159c-0.735,0-1.255,0.656-1.223,1.415H149.462z"/>
		</g>
		<g>
			<path d="M156.131,45.88v0.496h-2.023V45.88H156.131z"/>
			<path d="M157.244,46.744c0.104,0.76,0.655,1.144,1.391,1.144c0.84,0,1.352-0.64,1.352-1.439c0-0.84-0.544-1.432-1.399-1.432
				c-0.504,0-0.911,0.176-1.224,0.584l-0.424-0.056l0.456-2.918h2.799v0.432h-2.367l-0.352,1.895
				c0.439-0.288,0.728-0.368,1.239-0.368c1.031,0,1.783,0.704,1.783,1.863c0,1.183-0.855,1.871-1.783,1.871
				c-1.063,0-1.895-0.408-1.982-1.575H157.244z"/>
			<path d="M161.452,43.945c0-0.775,0.72-1.407,1.607-1.375c0.863,0,1.703,0.408,1.703,1.375c0,0.584-0.232,1-0.768,1.263
				c0.615,0.224,0.999,0.744,0.999,1.399c0,1.104-0.783,1.711-1.982,1.711c-0.816,0-1.76-0.56-1.76-1.663
				c0-0.671,0.344-1.231,0.983-1.479C161.693,44.833,161.452,44.617,161.452,43.945z M161.764,46.656
				c0,0.696,0.544,1.231,1.399,1.231c0.743,0,1.319-0.512,1.319-1.263c0-0.792-0.6-1.175-1.352-1.175
				C162.348,45.449,161.764,45.824,161.764,46.656z M161.964,44.018c0,0.695,0.575,0.999,1.199,0.999
				c0.616,0,1.088-0.312,1.088-1.111c0-0.567-0.368-0.903-1.144-0.903C162.476,43.002,161.964,43.354,161.964,44.018z"/>
		</g>
		<g>
			<path d="M144.874,63.206c0.952,0.008,1.615-0.216,1.615-1.08c0-0.695-0.552-0.991-1.199-0.991c-0.72,0-1.207,0.504-1.207,1.207
				h-0.512c0-0.503,0.168-0.911,0.544-1.263c0.352-0.32,0.815-0.375,1.279-0.375c0.887,0,1.606,0.448,1.606,1.391
				c0,0.583-0.256,1.023-0.799,1.255c0.815,0.256,0.999,0.872,0.999,1.391c0,0.927-0.655,1.679-1.815,1.711
				c-1.303,0-1.887-0.432-2.007-1.743h0.512c0,0.855,0.568,1.311,1.399,1.311c0.815,0,1.432-0.608,1.399-1.271
				c-0.032-0.911-0.823-1.199-1.815-1.127V63.206z"/>
			<path d="M148.348,64.877c0.104,0.76,0.655,1.144,1.391,1.144c0.84,0,1.352-0.64,1.352-1.439c0-0.84-0.544-1.432-1.399-1.432
				c-0.504,0-0.911,0.176-1.224,0.584l-0.424-0.056l0.456-2.918h2.799v0.432h-2.367l-0.352,1.895
				c0.439-0.288,0.728-0.368,1.239-0.368c1.031,0,1.783,0.704,1.783,1.863c0,1.183-0.855,1.871-1.783,1.871
				c-1.063,0-1.895-0.408-1.982-1.575H148.348z"/>
			<path d="M154.867,64.949h-2.574v-0.44l2.622-3.75h0.464v3.758h0.784v0.432h-0.784v1.391h-0.512V64.949z M152.796,64.517h2.07
				v-2.99L152.796,64.517z"/>
			<path d="M157.244,64.877c0.104,0.76,0.655,1.144,1.391,1.144c0.84,0,1.352-0.64,1.352-1.439c0-0.84-0.544-1.432-1.399-1.432
				c-0.504,0-0.911,0.176-1.224,0.584l-0.424-0.056l0.456-2.918h2.799v0.432h-2.367l-0.352,1.895
				c0.439-0.288,0.728-0.368,1.239-0.368c1.031,0,1.783,0.704,1.783,1.863c0,1.183-0.855,1.871-1.783,1.871
				c-1.063,0-1.895-0.408-1.982-1.575H157.244z"/>
			<path d="M164.395,62.086c-0.112-0.575-0.472-0.951-1.071-0.951c-1.384,0-1.503,1.487-1.583,2.551
				c0.319-0.432,0.655-0.88,1.479-0.88c1.136,0,1.791,0.688,1.791,1.815c0,1.136-0.663,1.831-1.807,1.831
				c-1.127,0-1.975-0.704-1.975-2.694c0-1.335,0.392-3.054,2.047-3.054c0.887,0,1.543,0.479,1.646,1.383H164.395z M161.932,64.637
				c0,0.632,0.352,1.383,1.279,1.383c0.951,0,1.287-0.736,1.287-1.415c0-0.872-0.415-1.368-1.295-1.368
				C162.411,63.238,161.932,63.877,161.932,64.637z"/>
		</g>
		<g>
			<path d="M151.683,82.429v0.496h-2.022v-0.496H151.683z"/>
			<path d="M152.796,83.292c0.104,0.76,0.655,1.144,1.391,1.144c0.84,0,1.352-0.64,1.352-1.439c0-0.84-0.544-1.432-1.399-1.432
				c-0.504,0-0.911,0.176-1.224,0.584l-0.424-0.056l0.456-2.918h2.799v0.432h-2.367l-0.352,1.895
				c0.439-0.288,0.728-0.368,1.239-0.368c1.031,0,1.783,0.704,1.783,1.863c0,1.183-0.855,1.871-1.783,1.871
				c-1.063,0-1.895-0.408-1.982-1.575H152.796z"/>
			<path d="M157.004,80.966c0-1.111,0.72-1.847,1.831-1.847c1.136,0,1.735,0.695,1.735,1.559c0,1.495-1.615,1.871-2.455,2.51
				c-0.368,0.28-0.712,0.6-0.735,1.136h3.142v0.432h-3.686c0.008-0.536,0.08-0.959,0.439-1.375c1.176-1.359,2.734-1.344,2.734-2.671
				c0-0.735-0.543-1.159-1.239-1.159c-0.735,0-1.255,0.656-1.223,1.415H157.004z"/>
			<path d="M161.452,80.966c0-1.111,0.72-1.847,1.831-1.847c1.135,0,1.735,0.695,1.735,1.559c0,1.495-1.615,1.871-2.455,2.51
				c-0.368,0.28-0.712,0.6-0.735,1.136h3.142v0.432h-3.686c0.008-0.536,0.08-0.959,0.439-1.375c1.176-1.359,2.734-1.344,2.734-2.671
				c0-0.735-0.543-1.159-1.239-1.159c-0.735,0-1.255,0.656-1.223,1.415H161.452z"/>
		</g>
		<g>
			<path d="M153.771,99.471c0.952,0.008,1.615-0.216,1.615-1.08c0-0.695-0.552-0.991-1.199-0.991c-0.72,0-1.207,0.504-1.207,1.207
				h-0.512c0-0.503,0.168-0.911,0.544-1.263c0.352-0.32,0.815-0.375,1.279-0.375c0.887,0,1.606,0.448,1.606,1.391
				c0,0.583-0.256,1.023-0.799,1.255c0.815,0.256,0.999,0.872,0.999,1.391c0,0.927-0.655,1.679-1.815,1.711
				c-1.303,0-1.887-0.432-2.007-1.743h0.512c0,0.855,0.568,1.311,1.399,1.311c0.815,0,1.432-0.608,1.399-1.271
				c-0.032-0.911-0.823-1.199-1.815-1.127V99.471z"/>
			<path d="M159.315,101.214h-2.574v-0.44l2.622-3.75h0.464v3.758h0.783v0.432h-0.783v1.391h-0.512V101.214z M157.244,100.782h2.07
				v-2.99L157.244,100.782z"/>
			<path d="M161.452,98.815c0-1.111,0.72-1.847,1.831-1.847c1.135,0,1.735,0.695,1.735,1.559c0,1.495-1.615,1.871-2.455,2.51
				c-0.368,0.28-0.712,0.6-0.735,1.136h3.142v0.432h-3.686c0.008-0.536,0.08-0.959,0.439-1.375c1.176-1.359,2.734-1.344,2.734-2.671
				c0-0.735-0.543-1.159-1.239-1.159c-0.735,0-1.255,0.656-1.223,1.415H161.452z"/>
		</g>
		<g>
			<path d="M145.523,116.832h-1.456v-0.336c0.856-0.056,1.392-0.144,1.56-1.111h0.408v5.637h-0.512V116.832z"/>
			<path d="M148.348,119.558c0.104,0.76,0.655,1.144,1.391,1.144c0.84,0,1.352-0.64,1.352-1.439c0-0.84-0.544-1.432-1.399-1.432
				c-0.504,0-0.911,0.176-1.224,0.584l-0.424-0.056l0.456-2.918h2.799v0.432h-2.367l-0.352,1.895
				c0.439-0.288,0.728-0.368,1.239-0.368c1.031,0,1.783,0.704,1.783,1.863c0,1.183-0.855,1.871-1.783,1.871
				c-1.063,0-1.895-0.408-1.982-1.575H148.348z"/>
			<path d="M155.498,116.767c-0.112-0.575-0.472-0.951-1.071-0.951c-1.384,0-1.503,1.487-1.583,2.551
				c0.319-0.432,0.655-0.88,1.479-0.88c1.136,0,1.791,0.688,1.791,1.815c0,1.136-0.663,1.831-1.807,1.831
				c-1.127,0-1.975-0.704-1.975-2.694c0-1.335,0.392-3.054,2.047-3.054c0.887,0,1.543,0.479,1.646,1.383H155.498z M153.036,119.318
				c0,0.632,0.352,1.383,1.279,1.383c0.951,0,1.287-0.736,1.287-1.415c0-0.872-0.415-1.368-1.295-1.368
				C153.515,117.918,153.036,118.558,153.036,119.318z"/>
			<path d="M158.868,116.832h-1.455v-0.336c0.855-0.056,1.391-0.144,1.559-1.111h0.408v5.637h-0.512V116.832z"/>
			<path d="M164.395,116.767c-0.112-0.575-0.472-0.951-1.071-0.951c-1.384,0-1.503,1.487-1.583,2.551
				c0.319-0.432,0.655-0.88,1.479-0.88c1.136,0,1.791,0.688,1.791,1.815c0,1.136-0.663,1.831-1.807,1.831
				c-1.127,0-1.975-0.704-1.975-2.694c0-1.335,0.392-3.054,2.047-3.054c0.887,0,1.543,0.479,1.646,1.383H164.395z M161.932,119.318
				c0,0.632,0.352,1.383,1.279,1.383c0.951,0,1.287-0.736,1.287-1.415c0-0.872-0.415-1.368-1.295-1.368
				C162.411,117.918,161.932,118.558,161.932,119.318z"/>
		</g>
		<g>
			<path d="M188.652,30.358v-5.757h1.967c0.64,0,1.239,0.04,1.775,0.432c0.76,0.552,0.959,1.671,0.959,2.439
				c0,0.759-0.167,1.607-0.695,2.183c-0.527,0.592-1.279,0.704-2.039,0.704H188.652z M189.196,29.895h1.303
				c0.488,0,0.912-0.032,1.352-0.264c0.768-0.392,0.96-1.375,0.96-2.159c0-0.84-0.185-1.759-0.992-2.191
				c-0.344-0.184-0.839-0.216-1.319-0.216h-1.303V29.895z"/>
			<path d="M196.258,27.944c0.176-0.016,0.472-0.064,0.632-0.136c0.16-0.072,0.176-0.288,0.176-0.432
				c0-0.488-0.288-0.839-1.031-0.839c-0.664,0-1.119,0.216-1.207,0.936h-0.488c0.072-0.976,0.8-1.368,1.703-1.368
				c0.84,0,1.503,0.328,1.503,1.288v2.255c0,0.375,0.097,0.463,0.504,0.32v0.375c-0.072,0.024-0.24,0.08-0.376,0.08
				c-0.08,0-0.144-0.008-0.216-0.024c-0.319-0.048-0.376-0.328-0.384-0.616c-0.399,0.448-0.943,0.688-1.543,0.688
				c-0.728,0-1.383-0.392-1.383-1.191c0-0.695,0.479-1.119,1.447-1.247L196.258,27.944z M197.066,28.184
				c-0.407,0.168-0.823,0.2-1.239,0.232c-0.728,0.056-1.167,0.32-1.167,0.879c0,0.504,0.439,0.744,0.896,0.744
				c0.759,0,1.511-0.368,1.511-1.208V28.184z"/>
			<path d="M200.259,30.374c-0.112,0.024-0.32,0.096-0.552,0.096c-0.472,0-0.736-0.208-0.736-0.823v-3.031h-0.583v-0.399h0.583
				v-1.151h0.48v1.151h0.775v0.399h-0.775v2.839c0,0.408,0.016,0.583,0.415,0.583c0.128,0,0.265-0.024,0.393-0.056V30.374z"/>
			<path d="M202.93,27.944c0.176-0.016,0.472-0.064,0.632-0.136c0.16-0.072,0.176-0.288,0.176-0.432
				c0-0.488-0.288-0.839-1.031-0.839c-0.664,0-1.119,0.216-1.207,0.936h-0.488c0.072-0.976,0.8-1.368,1.703-1.368
				c0.84,0,1.503,0.328,1.503,1.288v2.255c0,0.375,0.097,0.463,0.504,0.32v0.375c-0.072,0.024-0.24,0.08-0.376,0.08
				c-0.08,0-0.144-0.008-0.216-0.024c-0.319-0.048-0.376-0.328-0.384-0.616c-0.399,0.448-0.943,0.688-1.543,0.688
				c-0.728,0-1.383-0.392-1.383-1.191c0-0.695,0.479-1.119,1.447-1.247L202.93,27.944z M203.738,28.184
				c-0.407,0.168-0.823,0.2-1.239,0.232c-0.728,0.056-1.167,0.32-1.167,0.879c0,0.504,0.439,0.744,0.896,0.744
				c0.759,0,1.511-0.368,1.511-1.208V28.184z"/>
			<path d="M206.666,27.224c0.952,0.008,1.615-0.216,1.615-1.08c0-0.695-0.552-0.991-1.199-0.991c-0.72,0-1.207,0.504-1.207,1.207
				h-0.512c0-0.503,0.168-0.911,0.544-1.263c0.352-0.32,0.815-0.375,1.279-0.375c0.887,0,1.606,0.448,1.606,1.391
				c0,0.583-0.256,1.023-0.799,1.255c0.815,0.256,0.999,0.872,0.999,1.391c0,0.927-0.655,1.679-1.815,1.711
				c-1.303,0-1.887-0.432-2.007-1.743h0.512c0,0.855,0.568,1.311,1.399,1.311c0.815,0,1.432-0.608,1.399-1.271
				c-0.032-0.911-0.823-1.199-1.815-1.127V27.224z"/>
		</g>
		<g>
			<path d="M221.014,45.488c0,1.496-0.352,2.831-1.903,2.831c-1.559,0-1.911-1.327-1.911-2.886c0-1.423,0.288-2.862,1.911-2.862
				C220.782,42.57,221.014,44.177,221.014,45.488z M219.095,43.002c-1.12,0-1.384,1.239-1.384,2.486c0,1.447,0.32,2.399,1.399,2.399
				c1.216,0,1.392-1.319,1.392-2.455C220.502,44.217,220.286,43.002,219.095,43.002z"/>
		</g>
		<g>
			<path d="M218.655,63.206c0.952,0.008,1.615-0.216,1.615-1.08c0-0.695-0.552-0.991-1.199-0.991c-0.72,0-1.207,0.504-1.207,1.207
				h-0.512c0-0.503,0.168-0.911,0.544-1.263c0.352-0.32,0.815-0.375,1.279-0.375c0.887,0,1.606,0.448,1.606,1.391
				c0,0.583-0.256,1.023-0.799,1.255c0.815,0.256,0.999,0.872,0.999,1.391c0,0.927-0.655,1.679-1.815,1.711
				c-1.303,0-1.887-0.432-2.007-1.743h0.512c0,0.855,0.568,1.311,1.399,1.311c0.815,0,1.432-0.608,1.399-1.271
				c-0.032-0.911-0.823-1.199-1.815-1.127V63.206z"/>
		</g>
		<g>
			<path d="M217.44,80.966c0-1.111,0.72-1.847,1.831-1.847c1.136,0,1.735,0.695,1.735,1.559c0,1.495-1.615,1.871-2.455,2.51
				c-0.368,0.28-0.712,0.6-0.735,1.136h3.142v0.432h-3.686c0.008-0.536,0.08-0.959,0.439-1.375c1.176-1.359,2.734-1.344,2.734-2.671
				c0-0.735-0.543-1.159-1.239-1.159c-0.735,0-1.255,0.656-1.223,1.415H217.44z"/>
		</g>
		<g>
			<path d="M219.75,101.214h-2.574v-0.44l2.622-3.75h0.464v3.758h0.783v0.432h-0.783v1.391h-0.512V101.214z M217.68,100.782h2.07
				v-2.99L217.68,100.782z"/>
		</g>
		<g>
			<path d="M219.303,116.832h-1.455v-0.336c0.855-0.056,1.391-0.144,1.559-1.111h0.408v5.637h-0.512V116.832z"/>
		</g>
		<rect x="170.329" y="18.392" class="st2" width="56.693" height="108.85"/>
	</g>
	<g>
		<g>
			<path d="M344.357,30.358v-5.757h1.967c0.64,0,1.239,0.04,1.775,0.432c0.76,0.552,0.959,1.671,0.959,2.439
				c0,0.759-0.167,1.607-0.695,2.183c-0.527,0.592-1.279,0.704-2.039,0.704H344.357z M344.901,29.895h1.303
				c0.488,0,0.912-0.032,1.352-0.264c0.768-0.392,0.96-1.375,0.96-2.159c0-0.84-0.185-1.759-0.992-2.191
				c-0.344-0.184-0.839-0.216-1.319-0.216h-1.303V29.895z"/>
			<path d="M351.963,27.944c0.176-0.016,0.472-0.064,0.632-0.136c0.16-0.072,0.176-0.288,0.176-0.432
				c0-0.488-0.288-0.839-1.031-0.839c-0.664,0-1.119,0.216-1.207,0.936h-0.488c0.072-0.976,0.8-1.368,1.703-1.368
				c0.84,0,1.503,0.328,1.503,1.288v2.255c0,0.375,0.097,0.463,0.504,0.32v0.375c-0.072,0.024-0.24,0.08-0.376,0.08
				c-0.08,0-0.144-0.008-0.216-0.024c-0.319-0.048-0.376-0.328-0.384-0.616c-0.399,0.448-0.943,0.688-1.543,0.688
				c-0.728,0-1.383-0.392-1.383-1.191c0-0.695,0.479-1.119,1.447-1.247L351.963,27.944z M352.771,28.184
				c-0.407,0.168-0.823,0.2-1.239,0.232c-0.728,0.056-1.167,0.32-1.167,0.879c0,0.504,0.439,0.744,0.896,0.744
				c0.759,0,1.511-0.368,1.511-1.208V28.184z"/>
			<path d="M355.964,30.374c-0.112,0.024-0.32,0.096-0.552,0.096c-0.472,0-0.736-0.208-0.736-0.823v-3.031h-0.583v-0.399h0.583
				v-1.151h0.48v1.151h0.775v0.399h-0.775v2.839c0,0.408,0.016,0.583,0.415,0.583c0.128,0,0.265-0.024,0.393-0.056V30.374z"/>
			<path d="M358.635,27.944c0.176-0.016,0.472-0.064,0.632-0.136c0.16-0.072,0.176-0.288,0.176-0.432
				c0-0.488-0.288-0.839-1.031-0.839c-0.664,0-1.119,0.216-1.207,0.936h-0.488c0.072-0.976,0.8-1.368,1.703-1.368
				c0.84,0,1.503,0.328,1.503,1.288v2.255c0,0.375,0.097,0.463,0.504,0.32v0.375c-0.072,0.024-0.24,0.08-0.376,0.08
				c-0.08,0-0.144-0.008-0.216-0.024c-0.319-0.048-0.376-0.328-0.384-0.616c-0.399,0.448-0.943,0.688-1.543,0.688
				c-0.728,0-1.383-0.392-1.383-1.191c0-0.695,0.479-1.119,1.447-1.247L358.635,27.944z M359.443,28.184
				c-0.407,0.168-0.823,0.2-1.239,0.232c-0.728,0.056-1.167,0.32-1.167,0.879c0,0.504,0.439,0.744,0.896,0.744
				c0.759,0,1.511-0.368,1.511-1.208V28.184z"/>
			<path d="M363.02,26.169h-1.455v-0.336c0.855-0.056,1.391-0.144,1.559-1.111h0.408v5.637h-0.512V26.169z"/>
		</g>
		<g>
			<path d="M361.665,44.018h-1.455v-0.336c0.855-0.056,1.391-0.144,1.559-1.111h0.408v5.637h-0.512V44.018z"/>
			<path d="M364.25,44.417c0-1.111,0.72-1.847,1.831-1.847c1.135,0,1.735,0.695,1.735,1.559c0,1.495-1.615,1.871-2.455,2.51
				c-0.368,0.28-0.712,0.6-0.735,1.136h3.142v0.432h-3.686c0.008-0.536,0.08-0.959,0.439-1.375c1.176-1.359,2.734-1.344,2.734-2.671
				c0-0.735-0.543-1.159-1.239-1.159c-0.735,0-1.255,0.656-1.223,1.415H364.25z"/>
			<path d="M369.913,45.073c0.952,0.008,1.615-0.216,1.615-1.08c0-0.695-0.552-0.991-1.199-0.991c-0.72,0-1.207,0.504-1.207,1.207
				h-0.512c0-0.503,0.168-0.911,0.544-1.263c0.352-0.32,0.815-0.375,1.279-0.375c0.887,0,1.606,0.448,1.606,1.391
				c0,0.583-0.256,1.023-0.799,1.255c0.815,0.256,0.999,0.872,0.999,1.391c0,0.927-0.655,1.679-1.815,1.711
				c-1.303,0-1.887-0.432-2.007-1.743h0.512c0,0.855,0.568,1.311,1.399,1.311c0.815,0,1.432-0.608,1.399-1.271
				c-0.032-0.911-0.823-1.199-1.815-1.127V45.073z"/>
			<path d="M375.457,46.816h-2.574v-0.44l2.622-3.75h0.464v3.758h0.784v0.432h-0.784v1.391h-0.512V46.816z M373.387,46.384h2.07
				v-2.99L373.387,46.384z"/>
		</g>
		<g>
			<path d="M279.928,6.501h0.871l-2.095,5.741h-0.823l-2.095-5.741h0.863l1.639,4.893h0.017L279.928,6.501z"/>
			<path d="M281.457,9.332c0.032-1,0.696-1.392,1.728-1.392c0.336,0,1.551,0.096,1.551,1.167v2.407c0,0.176,0.088,0.248,0.232,0.248
				c0.063,0,0.151-0.016,0.231-0.032v0.512c-0.12,0.032-0.224,0.08-0.384,0.08c-0.623,0-0.72-0.32-0.743-0.64
				c-0.272,0.296-0.696,0.68-1.512,0.68c-0.768,0-1.311-0.488-1.311-1.208c0-0.352,0.104-1.167,1.271-1.311l1.16-0.144
				c0.167-0.016,0.367-0.08,0.367-0.496c0-0.44-0.319-0.68-0.983-0.68c-0.8,0-0.911,0.487-0.959,0.808H281.457z M284.033,10.107
				c-0.112,0.088-0.288,0.152-1.159,0.264c-0.344,0.048-0.896,0.152-0.896,0.68c0,0.456,0.231,0.728,0.759,0.728
				c0.656,0,1.296-0.424,1.296-0.983V10.107z"/>
			<path d="M286.73,12.242h-0.704V8.061h0.664v0.695h0.016c0.28-0.487,0.647-0.815,1.176-0.815c0.088,0,0.128,0.008,0.184,0.024
				v0.728h-0.264c-0.656,0-1.071,0.512-1.071,1.119V12.242z"/>
			<path d="M288.61,7.301V6.501h0.704v0.799H288.61z M289.314,12.242h-0.704V8.061h0.704V12.242z"/>
			<path d="M290.346,9.332c0.032-1,0.695-1.392,1.727-1.392c0.336,0,1.552,0.096,1.552,1.167v2.407c0,0.176,0.088,0.248,0.231,0.248
				c0.064,0,0.152-0.016,0.232-0.032v0.512c-0.12,0.032-0.225,0.08-0.384,0.08c-0.624,0-0.72-0.32-0.744-0.64
				c-0.271,0.296-0.695,0.68-1.511,0.68c-0.768,0-1.312-0.488-1.312-1.208c0-0.352,0.104-1.167,1.271-1.311l1.159-0.144
				c0.168-0.016,0.368-0.08,0.368-0.496c0-0.44-0.32-0.68-0.983-0.68c-0.8,0-0.912,0.487-0.96,0.808H290.346z M292.92,10.107
				c-0.111,0.088-0.287,0.152-1.159,0.264c-0.344,0.048-0.896,0.152-0.896,0.68c0,0.456,0.232,0.728,0.76,0.728
				c0.655,0,1.295-0.424,1.295-0.983V10.107z"/>
			<path d="M294.762,12.242V6.501h0.703v2.087h0.017c0.304-0.44,0.719-0.64,1.207-0.648c1.111,0,1.743,0.912,1.743,2.087
				c0,1-0.416,2.335-1.839,2.335c-0.712,0-1.008-0.408-1.151-0.64h-0.017v0.52H294.762z M296.561,8.572
				c-1.016,0-1.128,1.095-1.128,1.775c0,1.111,0.696,1.407,1.144,1.407c0.768,0,1.128-0.696,1.128-1.615
				C297.704,9.604,297.648,8.572,296.561,8.572z"/>
			<path d="M299.986,12.242h-0.704V6.501h0.704V12.242z"/>
			<path d="M304.592,10.931c-0.024,0.2-0.216,0.792-0.744,1.144c-0.191,0.128-0.464,0.288-1.135,0.288
				c-1.176,0-1.871-0.888-1.871-2.095c0-1.295,0.623-2.327,2.007-2.327c1.207,0,1.799,0.959,1.799,2.439h-3.055
				c0,0.872,0.408,1.375,1.216,1.375c0.663,0,1.056-0.512,1.079-0.824H304.592z M303.92,9.819c-0.04-0.647-0.312-1.247-1.167-1.247
				c-0.648,0-1.16,0.6-1.16,1.247H303.92z"/>
		</g>
		<g>
			<path d="M402.649,12.242v-3.39c0-0.168,0.016-0.896,0.016-1.431h-0.016l-1.615,4.821h-0.768l-1.615-4.813h-0.016
				c0,0.528,0.016,1.255,0.016,1.423v3.39H397.9V6.501h1.111l1.639,4.853h0.017l1.631-4.853h1.104v5.741H402.649z"/>
			<path d="M408.049,10.931c-0.023,0.2-0.216,0.792-0.743,1.144c-0.191,0.128-0.464,0.288-1.136,0.288
				c-1.175,0-1.87-0.888-1.87-2.095c0-1.295,0.623-2.327,2.007-2.327c1.207,0,1.799,0.959,1.799,2.439h-3.055
				c0,0.872,0.408,1.375,1.216,1.375c0.663,0,1.055-0.512,1.079-0.824H408.049z M407.378,9.819c-0.04-0.647-0.312-1.247-1.168-1.247
				c-0.647,0-1.159,0.6-1.159,1.247H407.378z"/>
			<path d="M408.948,8.061h0.664v0.592h0.016c0.152-0.224,0.512-0.712,1.264-0.712c0.751,0,0.991,0.456,1.111,0.68
				c0.352-0.392,0.632-0.68,1.279-0.68c0.447,0,1.295,0.232,1.295,1.407v2.895h-0.703V9.54c0-0.576-0.176-0.967-0.776-0.967
				c-0.591,0-0.983,0.56-0.983,1.119v2.551h-0.703V9.348c0-0.352-0.136-0.775-0.655-0.775c-0.4,0-1.104,0.256-1.104,1.391v2.279
				h-0.704V8.061z"/>
			<path d="M415.556,12.242V6.501h0.703v2.087h0.017c0.304-0.44,0.72-0.64,1.207-0.648c1.111,0,1.743,0.912,1.743,2.087
				c0,1-0.416,2.335-1.839,2.335c-0.712,0-1.008-0.408-1.151-0.64h-0.017v0.52H415.556z M417.355,8.572
				c-1.016,0-1.127,1.095-1.127,1.775c0,1.111,0.695,1.407,1.143,1.407c0.768,0,1.128-0.696,1.128-1.615
				C418.498,9.604,418.443,8.572,417.355,8.572z"/>
			<path d="M423.61,10.931c-0.023,0.2-0.216,0.792-0.743,1.144c-0.191,0.128-0.464,0.288-1.136,0.288
				c-1.175,0-1.87-0.888-1.87-2.095c0-1.295,0.623-2.327,2.007-2.327c1.207,0,1.799,0.959,1.799,2.439h-3.055
				c0,0.872,0.408,1.375,1.216,1.375c0.663,0,1.055-0.512,1.079-0.824H423.61z M422.939,9.819c-0.04-0.647-0.312-1.247-1.168-1.247
				c-0.647,0-1.159,0.6-1.159,1.247H422.939z"/>
			<path d="M425.308,12.242h-0.704V8.061h0.664v0.695h0.016c0.28-0.487,0.648-0.815,1.176-0.815c0.088,0,0.128,0.008,0.184,0.024
				v0.728h-0.264c-0.655,0-1.071,0.512-1.071,1.119V12.242z"/>
		</g>
		<g>
			<path d="M364.491,64.877c0.104,0.76,0.655,1.144,1.391,1.144c0.84,0,1.352-0.64,1.352-1.439c0-0.84-0.544-1.432-1.399-1.432
				c-0.504,0-0.911,0.176-1.224,0.584l-0.424-0.056l0.456-2.918h2.799v0.432h-2.367l-0.352,1.895
				c0.439-0.288,0.728-0.368,1.239-0.368c1.031,0,1.783,0.704,1.783,1.863c0,1.183-0.855,1.871-1.783,1.871
				c-1.063,0-1.895-0.408-1.982-1.575H364.491z"/>
			<path d="M371.641,62.086c-0.112-0.575-0.472-0.951-1.071-0.951c-1.384,0-1.503,1.487-1.583,2.551
				c0.319-0.432,0.655-0.88,1.479-0.88c1.136,0,1.791,0.688,1.791,1.815c0,1.136-0.663,1.831-1.807,1.831
				c-1.127,0-1.975-0.704-1.975-2.694c0-1.335,0.392-3.054,2.047-3.054c0.888,0,1.543,0.479,1.646,1.383H371.641z M369.178,64.637
				c0,0.632,0.352,1.383,1.279,1.383c0.952,0,1.287-0.736,1.287-1.415c0-0.872-0.415-1.368-1.295-1.368
				C369.658,63.238,369.178,63.877,369.178,64.637z"/>
			<path d="M373.387,64.877c0.104,0.76,0.655,1.144,1.391,1.144c0.84,0,1.352-0.64,1.352-1.439c0-0.84-0.544-1.432-1.399-1.432
				c-0.504,0-0.911,0.176-1.224,0.584l-0.424-0.056l0.456-2.918h2.799v0.432h-2.367l-0.352,1.895
				c0.439-0.288,0.728-0.368,1.239-0.368c1.031,0,1.783,0.704,1.783,1.863c0,1.183-0.855,1.871-1.783,1.871
				c-1.063,0-1.895-0.408-1.982-1.575H373.387z"/>
		</g>
		<g>
			<path d="M360.042,83.292c0.104,0.76,0.655,1.144,1.391,1.144c0.84,0,1.352-0.64,1.352-1.439c0-0.84-0.544-1.432-1.399-1.432
				c-0.504,0-0.911,0.176-1.224,0.584l-0.424-0.056l0.456-2.918h2.799v0.432h-2.367l-0.352,1.895
				c0.439-0.288,0.728-0.368,1.239-0.368c1.031,0,1.783,0.704,1.783,1.863c0,1.183-0.855,1.871-1.783,1.871
				c-1.063,0-1.895-0.408-1.982-1.575H360.042z"/>
			<path d="M366.561,83.365h-2.574v-0.44l2.622-3.75h0.464v3.758h0.784v0.432h-0.784v1.391h-0.512V83.365z M364.491,82.933h2.07
				v-2.99L364.491,82.933z"/>
			<path d="M371.641,80.502c-0.112-0.575-0.472-0.951-1.071-0.951c-1.384,0-1.503,1.487-1.583,2.551
				c0.319-0.432,0.655-0.88,1.479-0.88c1.136,0,1.791,0.688,1.791,1.815c0,1.136-0.663,1.831-1.807,1.831
				c-1.127,0-1.975-0.704-1.975-2.694c0-1.335,0.392-3.054,2.047-3.054c0.888,0,1.543,0.479,1.646,1.383H371.641z M369.178,83.053
				c0,0.632,0.352,1.383,1.279,1.383c0.952,0,1.287-0.736,1.287-1.415c0-0.872-0.415-1.368-1.295-1.368
				C369.658,81.653,369.178,82.293,369.178,83.053z"/>
			<path d="M373.387,83.292c0.104,0.76,0.655,1.144,1.391,1.144c0.84,0,1.352-0.64,1.352-1.439c0-0.84-0.544-1.432-1.399-1.432
				c-0.504,0-0.911,0.176-1.224,0.584l-0.424-0.056l0.456-2.918h2.799v0.432h-2.367l-0.352,1.895
				c0.439-0.288,0.728-0.368,1.239-0.368c1.031,0,1.783,0.704,1.783,1.863c0,1.183-0.855,1.871-1.783,1.871
				c-1.063,0-1.895-0.408-1.982-1.575H373.387z"/>
		</g>
		<g>
			<path d="M371.64,98.352c-0.112-0.575-0.472-0.951-1.071-0.951c-1.384,0-1.503,1.487-1.583,2.551
				c0.319-0.432,0.655-0.88,1.479-0.88c1.136,0,1.791,0.688,1.791,1.815c0,1.136-0.663,1.831-1.807,1.831
				c-1.127,0-1.975-0.704-1.975-2.694c0-1.335,0.392-3.054,2.047-3.054c0.887,0,1.543,0.479,1.646,1.383H371.64z M369.177,100.902
				c0,0.632,0.352,1.383,1.279,1.383c0.951,0,1.287-0.736,1.287-1.415c0-0.872-0.415-1.368-1.295-1.368
				C369.657,99.503,369.177,100.143,369.177,100.902z"/>
			<path d="M373.386,101.142c0.104,0.76,0.655,1.144,1.391,1.144c0.84,0,1.352-0.64,1.352-1.439c0-0.84-0.544-1.432-1.399-1.432
				c-0.504,0-0.911,0.176-1.224,0.584l-0.424-0.056l0.456-2.918h2.799v0.432h-2.367l-0.352,1.895
				c0.439-0.288,0.728-0.368,1.239-0.368c1.031,0,1.783,0.704,1.783,1.863c0,1.183-0.855,1.871-1.783,1.871
				c-1.063,0-1.895-0.408-1.982-1.575H373.386z"/>
		</g>
		<g>
			<path d="M360.042,119.558c0.104,0.76,0.655,1.144,1.391,1.144c0.84,0,1.352-0.64,1.352-1.439c0-0.84-0.544-1.432-1.399-1.432
				c-0.504,0-0.911,0.176-1.224,0.584l-0.424-0.056l0.456-2.918h2.799v0.432h-2.367l-0.352,1.895
				c0.439-0.288,0.728-0.368,1.239-0.368c1.031,0,1.783,0.704,1.783,1.863c0,1.183-0.855,1.871-1.783,1.871
				c-1.063,0-1.895-0.408-1.982-1.575H360.042z"/>
			<path d="M367.193,116.767c-0.112-0.575-0.472-0.951-1.071-0.951c-1.384,0-1.503,1.487-1.583,2.551
				c0.319-0.432,0.655-0.88,1.479-0.88c1.136,0,1.791,0.688,1.791,1.815c0,1.136-0.663,1.831-1.807,1.831
				c-1.127,0-1.975-0.704-1.975-2.694c0-1.335,0.392-3.054,2.047-3.054c0.887,0,1.543,0.479,1.646,1.383H367.193z M364.73,119.318
				c0,0.632,0.352,1.383,1.279,1.383c0.951,0,1.287-0.736,1.287-1.415c0-0.872-0.415-1.368-1.295-1.368
				C365.209,117.918,364.73,118.558,364.73,119.318z"/>
			<path d="M368.939,119.558c0.104,0.76,0.655,1.144,1.391,1.144c0.84,0,1.352-0.64,1.352-1.439c0-0.84-0.544-1.432-1.399-1.432
				c-0.504,0-0.911,0.176-1.224,0.584l-0.424-0.056l0.456-2.918h2.799v0.432h-2.367l-0.352,1.895
				c0.439-0.288,0.728-0.368,1.239-0.368c1.031,0,1.783,0.704,1.783,1.863c0,1.183-0.855,1.871-1.783,1.871
				c-1.063,0-1.895-0.408-1.982-1.575H368.939z"/>
			<path d="M376.089,116.767c-0.112-0.575-0.472-0.951-1.071-0.951c-1.384,0-1.503,1.487-1.583,2.551
				c0.319-0.432,0.655-0.88,1.479-0.88c1.136,0,1.791,0.688,1.791,1.815c0,1.136-0.663,1.831-1.807,1.831
				c-1.127,0-1.975-0.704-1.975-2.694c0-1.335,0.392-3.054,2.047-3.054c0.887,0,1.543,0.479,1.646,1.383H376.089z M373.626,119.318
				c0,0.632,0.352,1.383,1.279,1.383c0.951,0,1.287-0.736,1.287-1.415c0-0.872-0.415-1.368-1.295-1.368
				C374.106,117.918,373.626,118.558,373.626,119.318z"/>
		</g>
		<g>
			<path d="M401.959,30.358v-5.757h1.967c0.64,0,1.239,0.04,1.775,0.432c0.76,0.552,0.959,1.671,0.959,2.439
				c0,0.759-0.167,1.607-0.695,2.183c-0.527,0.592-1.279,0.704-2.039,0.704H401.959z M402.503,29.895h1.303
				c0.488,0,0.912-0.032,1.352-0.264c0.768-0.392,0.96-1.375,0.96-2.159c0-0.84-0.185-1.759-0.992-2.191
				c-0.344-0.184-0.839-0.216-1.319-0.216h-1.303V29.895z"/>
			<path d="M409.566,27.944c0.176-0.016,0.472-0.064,0.632-0.136c0.16-0.072,0.176-0.288,0.176-0.432
				c0-0.488-0.288-0.839-1.031-0.839c-0.664,0-1.119,0.216-1.207,0.936h-0.488c0.072-0.976,0.8-1.368,1.703-1.368
				c0.84,0,1.503,0.328,1.503,1.288v2.255c0,0.375,0.097,0.463,0.504,0.32v0.375c-0.072,0.024-0.24,0.08-0.376,0.08
				c-0.08,0-0.144-0.008-0.216-0.024c-0.319-0.048-0.376-0.328-0.384-0.616c-0.399,0.448-0.943,0.688-1.543,0.688
				c-0.728,0-1.383-0.392-1.383-1.191c0-0.695,0.479-1.119,1.447-1.247L409.566,27.944z M410.373,28.184
				c-0.407,0.168-0.823,0.2-1.239,0.232c-0.728,0.056-1.167,0.32-1.167,0.879c0,0.504,0.439,0.744,0.896,0.744
				c0.759,0,1.511-0.368,1.511-1.208V28.184z"/>
			<path d="M413.567,30.374c-0.112,0.024-0.32,0.096-0.552,0.096c-0.472,0-0.736-0.208-0.736-0.823v-3.031h-0.583v-0.399h0.583
				v-1.151h0.48v1.151h0.775v0.399h-0.775v2.839c0,0.408,0.016,0.583,0.415,0.583c0.128,0,0.265-0.024,0.393-0.056V30.374z"/>
			<path d="M416.238,27.944c0.176-0.016,0.472-0.064,0.632-0.136c0.16-0.072,0.176-0.288,0.176-0.432
				c0-0.488-0.288-0.839-1.031-0.839c-0.664,0-1.119,0.216-1.207,0.936h-0.488c0.072-0.976,0.8-1.368,1.703-1.368
				c0.84,0,1.503,0.328,1.503,1.288v2.255c0,0.375,0.097,0.463,0.504,0.32v0.375c-0.072,0.024-0.24,0.08-0.376,0.08
				c-0.08,0-0.144-0.008-0.216-0.024c-0.319-0.048-0.376-0.328-0.384-0.616c-0.399,0.448-0.943,0.688-1.543,0.688
				c-0.728,0-1.383-0.392-1.383-1.191c0-0.695,0.479-1.119,1.447-1.247L416.238,27.944z M417.045,28.184
				c-0.407,0.168-0.823,0.2-1.239,0.232c-0.728,0.056-1.167,0.32-1.167,0.879c0,0.504,0.439,0.744,0.896,0.744
				c0.759,0,1.511-0.368,1.511-1.208V28.184z"/>
			<path d="M418.759,26.568c0-1.111,0.72-1.847,1.831-1.847c1.136,0,1.735,0.695,1.735,1.559c0,1.495-1.615,1.871-2.455,2.51
				c-0.368,0.28-0.712,0.6-0.735,1.136h3.142v0.432h-3.686c0.008-0.536,0.08-0.959,0.439-1.375c1.176-1.359,2.734-1.344,2.734-2.671
				c0-0.735-0.543-1.159-1.239-1.159c-0.735,0-1.255,0.656-1.223,1.415H418.759z"/>
		</g>
		<g>
			<path d="M425.428,45.88v0.496h-2.023V45.88H425.428z"/>
			<path d="M426.541,46.744c0.104,0.76,0.655,1.144,1.391,1.144c0.84,0,1.352-0.64,1.352-1.439c0-0.84-0.544-1.432-1.399-1.432
				c-0.504,0-0.911,0.176-1.224,0.584l-0.424-0.056l0.456-2.918h2.799v0.432h-2.367l-0.352,1.895
				c0.439-0.288,0.728-0.368,1.239-0.368c1.031,0,1.783,0.704,1.783,1.863c0,1.183-0.855,1.871-1.783,1.871
				c-1.063,0-1.895-0.408-1.982-1.575H426.541z"/>
			<path d="M430.749,43.945c0-0.775,0.72-1.407,1.607-1.375c0.863,0,1.703,0.408,1.703,1.375c0,0.584-0.232,1-0.768,1.263
				c0.615,0.224,0.999,0.744,0.999,1.399c0,1.104-0.783,1.711-1.982,1.711c-0.816,0-1.76-0.56-1.76-1.663
				c0-0.671,0.344-1.231,0.983-1.479C430.99,44.833,430.749,44.617,430.749,43.945z M431.061,46.656
				c0,0.696,0.544,1.231,1.399,1.231c0.743,0,1.319-0.512,1.319-1.263c0-0.792-0.6-1.175-1.352-1.175
				C431.645,45.449,431.061,45.824,431.061,46.656z M431.261,44.018c0,0.695,0.575,0.999,1.199,0.999
				c0.616,0,1.088-0.312,1.088-1.111c0-0.567-0.368-0.903-1.144-0.903C431.773,43.002,431.261,43.354,431.261,44.018z"/>
		</g>
		<g>
			<path d="M414.82,62.151h-1.456v-0.336c0.856-0.056,1.392-0.144,1.56-1.111h0.408v5.637h-0.512V62.151z"/>
			<path d="M417.645,64.877c0.104,0.76,0.655,1.144,1.391,1.144c0.84,0,1.352-0.64,1.352-1.439c0-0.84-0.544-1.432-1.399-1.432
				c-0.504,0-0.911,0.176-1.224,0.584l-0.424-0.056l0.456-2.918h2.799v0.432h-2.367l-0.352,1.895
				c0.439-0.288,0.728-0.368,1.239-0.368c1.031,0,1.783,0.704,1.783,1.863c0,1.183-0.855,1.871-1.783,1.871
				c-1.063,0-1.895-0.408-1.982-1.575H417.645z"/>
			<path d="M424.795,62.086c-0.112-0.575-0.472-0.951-1.071-0.951c-1.384,0-1.503,1.487-1.583,2.551
				c0.319-0.432,0.655-0.88,1.479-0.88c1.136,0,1.791,0.688,1.791,1.815c0,1.136-0.663,1.831-1.807,1.831
				c-1.127,0-1.975-0.704-1.975-2.694c0-1.335,0.392-3.054,2.047-3.054c0.887,0,1.543,0.479,1.646,1.383H424.795z M422.332,64.637
				c0,0.632,0.352,1.383,1.279,1.383c0.951,0,1.287-0.736,1.287-1.415c0-0.872-0.415-1.368-1.295-1.368
				C422.812,63.238,422.332,63.877,422.332,64.637z"/>
			<path d="M428.164,62.151h-1.455v-0.336c0.855-0.056,1.391-0.144,1.559-1.111h0.408v5.637h-0.512V62.151z"/>
			<path d="M433.692,62.086c-0.112-0.575-0.472-0.951-1.071-0.951c-1.384,0-1.503,1.487-1.583,2.551
				c0.319-0.432,0.655-0.88,1.479-0.88c1.136,0,1.791,0.688,1.791,1.815c0,1.136-0.663,1.831-1.807,1.831
				c-1.127,0-1.975-0.704-1.975-2.694c0-1.335,0.392-3.054,2.047-3.054c0.887,0,1.543,0.479,1.646,1.383H433.692z M431.229,64.637
				c0,0.632,0.352,1.383,1.279,1.383c0.951,0,1.287-0.736,1.287-1.415c0-0.872-0.415-1.368-1.295-1.368
				C431.708,63.238,431.229,63.877,431.229,64.637z"/>
		</g>
		<g>
			<path d="M420.98,82.429v0.496h-2.022v-0.496H420.98z"/>
			<path d="M422.093,83.292c0.104,0.76,0.655,1.144,1.391,1.144c0.84,0,1.352-0.64,1.352-1.439c0-0.84-0.544-1.432-1.399-1.432
				c-0.504,0-0.911,0.176-1.224,0.584l-0.424-0.056l0.456-2.918h2.799v0.432h-2.367l-0.352,1.895
				c0.439-0.288,0.728-0.368,1.239-0.368c1.031,0,1.783,0.704,1.783,1.863c0,1.183-0.855,1.871-1.783,1.871
				c-1.063,0-1.895-0.408-1.982-1.575H422.093z"/>
			<path d="M426.301,80.966c0-1.111,0.72-1.847,1.831-1.847c1.136,0,1.735,0.695,1.735,1.559c0,1.495-1.615,1.871-2.455,2.51
				c-0.368,0.28-0.712,0.6-0.735,1.136h3.142v0.432h-3.686c0.008-0.536,0.08-0.959,0.439-1.375c1.176-1.359,2.734-1.344,2.734-2.671
				c0-0.735-0.543-1.159-1.239-1.159c-0.735,0-1.255,0.656-1.223,1.415H426.301z"/>
			<path d="M430.749,80.966c0-1.111,0.72-1.847,1.831-1.847c1.135,0,1.735,0.695,1.735,1.559c0,1.495-1.615,1.871-2.455,2.51
				c-0.368,0.28-0.712,0.6-0.735,1.136h3.142v0.432h-3.686c0.008-0.536,0.08-0.959,0.439-1.375c1.176-1.359,2.734-1.344,2.734-2.671
				c0-0.735-0.543-1.159-1.239-1.159c-0.735,0-1.255,0.656-1.223,1.415H430.749z"/>
		</g>
		<g>
			<path d="M414.171,99.471c0.952,0.008,1.615-0.216,1.615-1.08c0-0.695-0.552-0.991-1.199-0.991c-0.72,0-1.207,0.504-1.207,1.207
				h-0.512c0-0.503,0.168-0.911,0.544-1.263c0.352-0.32,0.815-0.375,1.279-0.375c0.887,0,1.606,0.448,1.606,1.391
				c0,0.583-0.256,1.023-0.799,1.255c0.815,0.256,0.999,0.872,0.999,1.391c0,0.927-0.655,1.679-1.815,1.711
				c-1.303,0-1.887-0.432-2.007-1.743h0.512c0,0.855,0.568,1.311,1.399,1.311c0.815,0,1.432-0.608,1.399-1.271
				c-0.032-0.911-0.823-1.199-1.815-1.127V99.471z"/>
			<path d="M417.645,101.142c0.104,0.76,0.655,1.144,1.391,1.144c0.84,0,1.352-0.64,1.352-1.439c0-0.84-0.544-1.432-1.399-1.432
				c-0.504,0-0.911,0.176-1.224,0.584l-0.424-0.056l0.456-2.918h2.799v0.432h-2.367l-0.352,1.895
				c0.439-0.288,0.728-0.368,1.239-0.368c1.031,0,1.783,0.704,1.783,1.863c0,1.183-0.855,1.871-1.783,1.871
				c-1.063,0-1.895-0.408-1.982-1.575H417.645z"/>
			<path d="M424.163,101.214h-2.574v-0.44l2.622-3.75h0.464v3.758h0.784v0.432h-0.784v1.391h-0.512V101.214z M422.093,100.782h2.07
				v-2.99L422.093,100.782z"/>
			<path d="M426.541,101.142c0.104,0.76,0.655,1.144,1.391,1.144c0.84,0,1.352-0.64,1.352-1.439c0-0.84-0.544-1.432-1.399-1.432
				c-0.504,0-0.911,0.176-1.224,0.584l-0.424-0.056l0.456-2.918h2.799v0.432h-2.367l-0.352,1.895
				c0.439-0.288,0.728-0.368,1.239-0.368c1.031,0,1.783,0.704,1.783,1.863c0,1.183-0.855,1.871-1.783,1.871
				c-1.063,0-1.895-0.408-1.982-1.575H426.541z"/>
			<path d="M433.692,98.352c-0.112-0.575-0.472-0.951-1.071-0.951c-1.384,0-1.503,1.487-1.583,2.551
				c0.319-0.432,0.655-0.88,1.479-0.88c1.136,0,1.791,0.688,1.791,1.815c0,1.136-0.663,1.831-1.807,1.831
				c-1.127,0-1.975-0.704-1.975-2.694c0-1.335,0.392-3.054,2.047-3.054c0.887,0,1.543,0.479,1.646,1.383H433.692z M431.229,100.902
				c0,0.632,0.352,1.383,1.279,1.383c0.951,0,1.287-0.736,1.287-1.415c0-0.872-0.415-1.368-1.295-1.368
				C431.708,99.503,431.229,100.143,431.229,100.902z"/>
		</g>
		<g>
			<path d="M423.068,117.887c0.952,0.008,1.615-0.216,1.615-1.08c0-0.695-0.552-0.991-1.199-0.991c-0.72,0-1.207,0.504-1.207,1.207
				h-0.512c0-0.503,0.168-0.911,0.544-1.263c0.352-0.32,0.815-0.375,1.279-0.375c0.887,0,1.606,0.448,1.606,1.391
				c0,0.583-0.256,1.023-0.799,1.255c0.815,0.256,0.999,0.872,0.999,1.391c0,0.927-0.655,1.679-1.815,1.711
				c-1.303,0-1.887-0.432-2.007-1.743h0.512c0,0.855,0.568,1.311,1.399,1.311c0.815,0,1.432-0.608,1.399-1.271
				c-0.032-0.911-0.823-1.199-1.815-1.127V117.887z"/>
			<path d="M428.612,119.63h-2.574v-0.44l2.622-3.75h0.464v3.758h0.783v0.432h-0.783v1.391h-0.512V119.63z M426.541,119.198h2.07
				v-2.99L426.541,119.198z"/>
			<path d="M430.749,117.231c0-1.111,0.72-1.847,1.831-1.847c1.135,0,1.735,0.695,1.735,1.559c0,1.495-1.615,1.871-2.455,2.51
				c-0.368,0.28-0.712,0.6-0.735,1.136h3.142v0.432h-3.686c0.008-0.536,0.08-0.959,0.439-1.375c1.176-1.359,2.734-1.344,2.734-2.671
				c0-0.735-0.543-1.159-1.239-1.159c-0.735,0-1.255,0.656-1.223,1.415H430.749z"/>
		</g>
		<g>
			<path d="M457.948,30.358v-5.757h1.967c0.64,0,1.239,0.04,1.775,0.432c0.76,0.552,0.959,1.671,0.959,2.439
				c0,0.759-0.167,1.607-0.695,2.183c-0.527,0.592-1.279,0.704-2.039,0.704H457.948z M458.492,29.895h1.303
				c0.488,0,0.912-0.032,1.352-0.264c0.768-0.392,0.96-1.375,0.96-2.159c0-0.84-0.185-1.759-0.992-2.191
				c-0.344-0.184-0.839-0.216-1.319-0.216h-1.303V29.895z"/>
			<path d="M465.554,27.944c0.176-0.016,0.472-0.064,0.632-0.136c0.16-0.072,0.176-0.288,0.176-0.432
				c0-0.488-0.288-0.839-1.031-0.839c-0.664,0-1.119,0.216-1.207,0.936h-0.488c0.072-0.976,0.8-1.368,1.703-1.368
				c0.84,0,1.503,0.328,1.503,1.288v2.255c0,0.375,0.097,0.463,0.504,0.32v0.375c-0.072,0.024-0.24,0.08-0.376,0.08
				c-0.08,0-0.144-0.008-0.216-0.024c-0.319-0.048-0.376-0.328-0.384-0.616c-0.399,0.448-0.943,0.688-1.543,0.688
				c-0.728,0-1.383-0.392-1.383-1.191c0-0.695,0.479-1.119,1.447-1.247L465.554,27.944z M466.362,28.184
				c-0.407,0.168-0.823,0.2-1.239,0.232c-0.728,0.056-1.167,0.32-1.167,0.879c0,0.504,0.439,0.744,0.896,0.744
				c0.759,0,1.511-0.368,1.511-1.208V28.184z"/>
			<path d="M469.555,30.374c-0.112,0.024-0.32,0.096-0.552,0.096c-0.472,0-0.736-0.208-0.736-0.823v-3.031h-0.583v-0.399h0.583
				v-1.151h0.48v1.151h0.775v0.399h-0.775v2.839c0,0.408,0.016,0.583,0.415,0.583c0.128,0,0.265-0.024,0.393-0.056V30.374z"/>
			<path d="M472.226,27.944c0.176-0.016,0.472-0.064,0.632-0.136c0.16-0.072,0.176-0.288,0.176-0.432
				c0-0.488-0.288-0.839-1.031-0.839c-0.664,0-1.119,0.216-1.207,0.936h-0.488c0.072-0.976,0.8-1.368,1.703-1.368
				c0.84,0,1.503,0.328,1.503,1.288v2.255c0,0.375,0.097,0.463,0.504,0.32v0.375c-0.072,0.024-0.24,0.08-0.376,0.08
				c-0.08,0-0.144-0.008-0.216-0.024c-0.319-0.048-0.376-0.328-0.384-0.616c-0.399,0.448-0.943,0.688-1.543,0.688
				c-0.728,0-1.383-0.392-1.383-1.191c0-0.695,0.479-1.119,1.447-1.247L472.226,27.944z M473.034,28.184
				c-0.407,0.168-0.823,0.2-1.239,0.232c-0.728,0.056-1.167,0.32-1.167,0.879c0,0.504,0.439,0.744,0.896,0.744
				c0.759,0,1.511-0.368,1.511-1.208V28.184z"/>
			<path d="M475.962,27.224c0.952,0.008,1.615-0.216,1.615-1.08c0-0.695-0.552-0.991-1.199-0.991c-0.72,0-1.207,0.504-1.207,1.207
				h-0.512c0-0.503,0.168-0.911,0.544-1.263c0.352-0.32,0.815-0.375,1.279-0.375c0.887,0,1.606,0.448,1.606,1.391
				c0,0.583-0.256,1.023-0.799,1.255c0.815,0.256,0.999,0.872,0.999,1.391c0,0.927-0.655,1.679-1.815,1.711
				c-1.303,0-1.887-0.432-2.007-1.743h0.512c0,0.855,0.568,1.311,1.399,1.311c0.815,0,1.432-0.608,1.399-1.271
				c-0.032-0.911-0.823-1.199-1.815-1.127V27.224z"/>
		</g>
		<g>
			<path d="M490.311,45.488c0,1.496-0.352,2.831-1.903,2.831c-1.559,0-1.911-1.327-1.911-2.886c0-1.423,0.288-2.862,1.911-2.862
				C490.078,42.57,490.311,44.177,490.311,45.488z M488.392,43.002c-1.12,0-1.384,1.239-1.384,2.486c0,1.447,0.32,2.399,1.399,2.399
				c1.216,0,1.392-1.319,1.392-2.455C489.799,44.217,489.583,43.002,488.392,43.002z"/>
		</g>
		<g>
			<path d="M488.6,62.151h-1.455v-0.336c0.855-0.056,1.391-0.144,1.559-1.111h0.408v5.637H488.6V62.151z"/>
		</g>
		<g>
			<path d="M486.737,80.966c0-1.111,0.72-1.847,1.831-1.847c1.136,0,1.735,0.695,1.735,1.559c0,1.495-1.615,1.871-2.455,2.51
				c-0.368,0.28-0.712,0.6-0.735,1.136h3.142v0.432h-3.686c0.008-0.536,0.08-0.959,0.439-1.375c1.176-1.359,2.734-1.344,2.734-2.671
				c0-0.735-0.543-1.159-1.239-1.159c-0.735,0-1.255,0.656-1.223,1.415H486.737z"/>
		</g>
		<g>
			<path d="M487.952,99.471c0.952,0.008,1.615-0.216,1.615-1.08c0-0.695-0.552-0.991-1.199-0.991c-0.72,0-1.207,0.504-1.207,1.207
				h-0.512c0-0.503,0.168-0.911,0.544-1.263c0.352-0.32,0.815-0.375,1.279-0.375c0.887,0,1.606,0.448,1.606,1.391
				c0,0.583-0.256,1.023-0.799,1.255c0.815,0.256,0.999,0.872,0.999,1.391c0,0.927-0.655,1.679-1.815,1.711
				c-1.303,0-1.887-0.432-2.007-1.743h0.512c0,0.855,0.568,1.311,1.399,1.311c0.815,0,1.432-0.608,1.399-1.271
				c-0.032-0.911-0.823-1.199-1.815-1.127V99.471z"/>
		</g>
		<g>
			<path d="M489.047,119.63h-2.574v-0.44l2.622-3.75h0.464v3.758h0.783v0.432h-0.783v1.391h-0.512V119.63z M486.977,119.198h2.07
				v-2.99L486.977,119.198z"/>
		</g>
		<rect x="439.625" y="18.392" class="st2" width="56.693" height="108.85"/>
	</g>
	<polygon class="st3" points="259.368,72.817 246.613,60.543 246.613,65.985 237.2,65.985 237.2,79.649 246.613,79.649 
		246.613,85.091 	"/>
	<g>
	</g>
	<g>
	</g>
	<g>
	</g>
	<g>
	</g>
	<g>
	</g>
	<g>
	</g>
	<g>
	</g>
	<g>
	</g>
	<g>
	</g>
	<g>
	</g>
	<g>
	</g>
	<g>
	</g>
	<g>
	</g>
	<g>
	</g>
	<g>
	</g>
</g>
</svg>
