<?xml version="1.0" encoding="utf-8"?>
<!-- Generator: Adobe Illustrator 28.2.0, SVG Export Plug-In . SVG Version: 6.00 Build 0)  -->
<svg version="1.1" xmlns="http://www.w3.org/2000/svg" xmlns:xlink="http://www.w3.org/1999/xlink" x="0px" y="0px"
	 width="308.702px" height="65.333px" viewBox="0 0 308.702 65.333" style="enable-background:new 0 0 308.702 65.333;"
	 xml:space="preserve">
<style type="text/css">
	.st0{fill:none;stroke:#666666;stroke-width:0.5;stroke-miterlimit:10;stroke-dasharray:1;}
	.st1{fill:none;stroke:#000000;stroke-width:0.5;stroke-miterlimit:10;}
</style>
<g id="レイヤー_1">
	<g>
		<line class="st0" x1="47.87" y1="3.806" x2="47.87" y2="60.498"/>
		<line class="st0" x1="138.564" y1="9.475" x2="138.564" y2="60.498"/>
		<line class="st0" x1="81.93" y1="3.806" x2="81.93" y2="46.311"/>
	</g>
	<g>
		<g>
			<g>
				<line class="st1" x1="138.081" y1="54.829" x2="48.457" y2="54.829"/>
				<g>
					<polygon points="136.424,52.784 136.083,53.15 137.889,54.829 136.083,56.507 136.424,56.874 138.623,54.829 					"/>
				</g>
				<g>
					<polygon points="50.113,52.784 50.454,53.15 48.648,54.829 50.454,56.507 50.113,56.874 47.914,54.829 					"/>
				</g>
			</g>
		</g>
	</g>
	<polyline class="st1" points="308.702,46.325 263.347,46.311 263.347,17.966 229.332,17.979 229.332,46.325 172.639,46.311 
		172.639,17.966 138.623,17.979 138.623,46.325 81.93,46.311 81.93,17.966 47.914,17.979 47.914,46.325 25.237,46.325 	"/>
	<g>
		<g>
			<g>
				<line class="st1" x1="81.388" y1="9.475" x2="48.457" y2="9.475"/>
				<g>
					<polygon points="79.731,7.43 79.39,7.796 81.196,9.474 79.39,11.153 79.731,11.519 81.93,9.474 					"/>
				</g>
				<g>
					<polygon points="50.113,7.43 50.454,7.796 48.648,9.474 50.454,11.153 50.113,11.519 47.914,9.474 					"/>
				</g>
			</g>
		</g>
	</g>
</g>
<g id="レイヤー_2">
	<g>
		<path d="M0.839,32.152v-5.757h0.544v5.757H0.839z"/>
		<path d="M3.28,32.152H2.8v-4.142h0.48v0.576c0.384-0.408,0.759-0.688,1.335-0.688c0.504,0,0.968,0.16,1.263,0.591
			c0.2,0.296,0.208,0.608,0.208,0.952v2.71H5.606V29.45c0-0.744-0.304-1.119-1.072-1.119c-0.591,0-0.999,0.384-1.151,0.808
			c-0.096,0.264-0.104,0.496-0.104,0.783V32.152z"/>
		<path d="M9.75,26.244c1.799,0,2.711,1.351,2.711,3.038c0,1.655-0.912,3.022-2.687,3.022c-1.775,0-2.679-1.367-2.679-3.022
			C7.088,27.603,8.032,26.244,9.75,26.244z M11.917,29.282c0-1.599-0.824-2.574-2.151-2.574c-1.479,0-2.127,1.239-2.127,2.574
			c0,1.359,0.64,2.559,2.143,2.559C11.278,31.84,11.917,30.625,11.917,29.282z"/>
		<path d="M16.279,28.011h0.479v4.142h-0.479v-0.576c-0.256,0.288-0.608,0.688-1.335,0.688c-1.104,0-1.471-0.664-1.471-1.527v-2.727
			h0.479v2.718c0,0.712,0.312,1.104,1.063,1.104c0.792,0,1.264-0.656,1.264-1.567V28.011z"/>
		<path d="M19.375,32.168c-0.112,0.024-0.32,0.096-0.552,0.096c-0.472,0-0.735-0.208-0.735-0.823v-3.03h-0.583v-0.4h0.583v-1.151
			h0.479v1.151h0.776v0.4h-0.776v2.838c0,0.408,0.016,0.583,0.416,0.583c0.128,0,0.264-0.024,0.392-0.056V32.168z"/>
	</g>
	<g>
		<path d="M90.613,59.247c-0.224-0.983-0.832-1.359-1.815-1.359c-1.391,0-1.991,1.191-1.991,2.55c0,1.288,0.472,2.583,2.039,2.583
			c0.992,0,1.607-0.671,1.823-1.583h0.567c-0.256,1.111-0.951,2.047-2.495,2.047c-1.775,0-2.479-1.399-2.479-3.03
			c0-2.199,1.151-3.03,2.679-3.03c1.183,0,2.047,0.632,2.23,1.823H90.613z"/>
		<path d="M92.199,64.46c0.128,0.024,0.264,0.048,0.4,0.048c0.544,0,0.624-0.784,0.808-1.144L91.8,59.191h0.536l1.327,3.558
			l1.327-3.558h0.52l-1.543,4.085c-0.392,1.04-0.647,1.688-1.311,1.688c-0.168,0-0.328-0.024-0.456-0.056V64.46z"/>
		<path d="M99.166,60.495c-0.168-0.616-0.592-0.983-1.231-0.983c-0.983,0-1.391,0.896-1.391,1.759c0,0.872,0.399,1.743,1.391,1.743
			c0.711,0,1.159-0.424,1.271-1.111h0.512c-0.168,0.919-0.744,1.543-1.783,1.543c-1.319,0-1.903-0.951-1.903-2.175
			c0-1.151,0.664-2.19,1.903-2.19c0.951,0,1.575,0.456,1.719,1.415H99.166z"/>
		<path d="M100.751,63.333v-5.757h0.48v5.757H100.751z"/>
		<path d="M102.751,61.374c-0.008,0.896,0.472,1.639,1.391,1.639c0.624,0,1.111-0.344,1.255-0.952h0.536
			c-0.24,0.784-0.735,1.383-1.791,1.383c-1.327,0-1.903-0.943-1.903-2.167c0-1.208,0.72-2.199,1.903-2.199
			c1.135,0,1.831,0.807,1.823,2.294H102.751z M105.454,60.974c0-0.808-0.448-1.463-1.312-1.463c-0.848,0-1.295,0.68-1.391,1.463
			H105.454z"/>
	</g>
	<g>
		<path d="M53.332,0.731c1.799,0,2.711,1.351,2.711,3.038c0,1.655-0.912,3.022-2.687,3.022c-1.775,0-2.679-1.367-2.679-3.022
			C50.67,2.091,51.613,0.731,53.332,0.731z M55.499,3.77c0-1.599-0.824-2.574-2.151-2.574c-1.479,0-2.127,1.239-2.127,2.574
			c0,1.359,0.64,2.559,2.143,2.559C54.859,6.328,55.499,5.113,55.499,3.77z"/>
		<path d="M57.669,1.619h-0.016V6.64H57.11V0.883h0.616l3.326,5.029h0.016V0.883h0.544V6.64h-0.632L57.669,1.619z"/>
		<path d="M62.382,0.883h4.189v0.464h-1.823V6.64h-0.543V1.347h-1.823V0.883z"/>
		<path d="M67.326,1.595V0.883h0.528v0.711H67.326z M67.35,6.64V2.499h0.48V6.64H67.35z"/>
		<path d="M69.47,6.64h-0.48V2.499h0.48v0.624h0.016c0.248-0.472,0.744-0.735,1.279-0.735c0.768,0,1.04,0.359,1.215,0.799
			c0.272-0.536,0.76-0.799,1.352-0.799c1.127,0,1.287,0.807,1.287,1.639V6.64h-0.48V3.778c0-0.592-0.208-0.959-0.887-0.959
			c-0.352,0-0.696,0.152-0.936,0.472c-0.208,0.272-0.272,0.775-0.272,1.119V6.64h-0.479V3.778c0-0.592-0.208-0.959-0.888-0.959
			c-0.352,0-0.695,0.152-0.936,0.472c-0.208,0.272-0.271,0.775-0.271,1.119V6.64z"/>
		<path d="M76.014,4.681c-0.008,0.896,0.472,1.639,1.391,1.639c0.624,0,1.111-0.344,1.255-0.952h0.536
			c-0.24,0.784-0.735,1.383-1.791,1.383c-1.327,0-1.903-0.943-1.903-2.167c0-1.208,0.72-2.199,1.903-2.199
			c1.135,0,1.831,0.807,1.823,2.294H76.014z M78.716,4.281c0-0.808-0.448-1.463-1.312-1.463c-0.848,0-1.295,0.68-1.391,1.463H78.716
			z"/>
	</g>
	<g>
	</g>
	<g>
	</g>
	<g>
	</g>
	<g>
	</g>
	<g>
	</g>
	<g>
	</g>
	<g>
	</g>
	<g>
	</g>
	<g>
	</g>
	<g>
	</g>
	<g>
	</g>
	<g>
	</g>
	<g>
	</g>
	<g>
	</g>
	<g>
	</g>
	<g>
	</g>
</g>
</svg>
