<?xml version="1.0" encoding="utf-8"?>
<!-- Generator: Adobe Illustrator 28.2.0, SVG Export Plug-In . SVG Version: 6.00 Build 0)  -->
<svg version="1.1" xmlns="http://www.w3.org/2000/svg" xmlns:xlink="http://www.w3.org/1999/xlink" x="0px" y="0px"
	 width="310.975px" height="72.066px" viewBox="0 0 310.975 72.066" style="enable-background:new 0 0 310.975 72.066;"
	 xml:space="preserve">
<style type="text/css">
	.st0{fill:none;stroke:#000000;}
	.st1{fill:#FFFFFF;}
	.st2{fill:#FFFFFF;stroke:#000000;}
</style>
<g id="儗僀儎乕_1">
	<g>
		<line class="st0" x1="0.5" y1="49.08" x2="310.475" y2="49.08"/>
		<g>
			<rect x="20.629" y="45.055" class="st1" width="8.051" height="8.05"/>
			<line class="st0" x1="28.68" y1="45.055" x2="28.68" y2="53.105"/>
			<line class="st0" x1="20.629" y1="53.105" x2="20.629" y2="45.055"/>
		</g>
		<rect x="213.139" y="39.015" class="st2" width="89.285" height="20.128"/>
		<line class="st2" x1="258.163" y1="59.143" x2="258.163" y2="39.015"/>
		<rect x="223.426" y="32.614" class="st1" width="27.502" height="11.188"/>
		<g>
			<path d="M229.985,41.934v-3.39c0-0.168,0.016-0.896,0.016-1.432h-0.016l-1.615,4.821h-0.768l-1.615-4.813h-0.016
				c0,0.527,0.016,1.256,0.016,1.424v3.39h-0.751v-5.741h1.111l1.639,4.854h0.017l1.631-4.854h1.104v5.741H229.985z"/>
			<path d="M234.426,42.086c-2.143,0-2.799-1.783-2.799-3.022s0.656-3.022,2.799-3.022s2.799,1.783,2.799,3.022
				S236.569,42.086,234.426,42.086z M234.426,36.729c-1.247,0-1.999,0.983-1.999,2.335c0,1.351,0.752,2.334,1.999,2.334
				s1.999-0.983,1.999-2.334C236.425,37.712,235.673,36.729,234.426,36.729z"/>
			<path d="M241.442,36.193h0.871l-2.095,5.741h-0.823l-2.095-5.741h0.863l1.639,4.894h0.017L241.442,36.193z"/>
			<path d="M243.003,41.934h-0.832v-0.848h0.832V41.934z"/>
			<path d="M244.347,36.193h2.327c1.495,0,2.414,1.136,2.414,2.791c0,1.287-0.56,2.95-2.446,2.95h-2.295V36.193z M245.123,41.27
				h1.504c1.007,0,1.663-0.791,1.663-2.238s-0.664-2.175-1.72-2.175h-1.447V41.27z"/>
		</g>
		<g>
			<path d="M228.837,46.224h2.327c1.495,0,2.414,1.136,2.414,2.791c0,1.287-0.56,2.95-2.446,2.95h-2.295V46.224z M229.613,51.301
				h1.504c1.007,0,1.663-0.791,1.663-2.238s-0.664-2.175-1.72-2.175h-1.447V51.301z"/>
			<path d="M239.298,51.965v-3.39c0-0.168,0.016-0.896,0.016-1.432h-0.016l-1.615,4.821h-0.768l-1.615-4.813h-0.016
				c0,0.527,0.016,1.256,0.016,1.424v3.39h-0.751v-5.741h1.111l1.639,4.854h0.017l1.631-4.854h1.104v5.741H239.298z"/>
			<path d="M242.852,52.117c-1.615,0-1.927-1.72-1.927-2.887s0.312-2.887,1.927-2.887s1.927,1.72,1.927,2.887
				S244.467,52.117,242.852,52.117z M242.852,46.976c-0.808,0-1.175,0.848-1.175,2.255s0.367,2.255,1.175,2.255
				s1.176-0.848,1.176-2.255S243.66,46.976,242.852,46.976z"/>
		</g>
		<g>
			<path d="M270.462,46.224h2.327c1.495,0,2.414,1.136,2.414,2.791c0,1.287-0.56,2.95-2.446,2.95h-2.295V46.224z M271.238,51.301
				h1.504c1.007,0,1.663-0.791,1.663-2.238s-0.664-2.175-1.72-2.175h-1.447V51.301z"/>
			<path d="M280.923,51.965v-3.39c0-0.168,0.016-0.896,0.016-1.432h-0.016l-1.615,4.821h-0.768l-1.615-4.813h-0.016
				c0,0.527,0.016,1.256,0.016,1.424v3.39h-0.751v-5.741h1.111l1.639,4.854h0.017l1.631-4.854h1.104v5.741H280.923z"/>
			<path d="M285.125,51.965h-0.751v-3.99h-1.312v-0.56c0.911-0.063,1.287-0.151,1.511-1.071h0.552V51.965z"/>
			<path d="M288.486,52.117c-1.615,0-1.927-1.72-1.927-2.887s0.312-2.887,1.927-2.887s1.927,1.72,1.927,2.887
				S290.101,52.117,288.486,52.117z M288.486,46.976c-0.808,0-1.175,0.848-1.175,2.255s0.367,2.255,1.175,2.255
				s1.176-0.848,1.176-2.255S289.294,46.976,288.486,46.976z"/>
		</g>
		<line class="st0" x1="0.5" y1="19.031" x2="310.475" y2="19.031"/>
		<g>
			<rect x="261.875" y="14.733" class="st1" width="40.254" height="8.053"/>
			<line class="st0" x1="302.13" y1="14.733" x2="302.13" y2="22.786"/>
			<line class="st0" x1="261.875" y1="22.786" x2="261.875" y2="14.733"/>
		</g>
		<g>
			<path d="M274.912,3.233h2.327c1.495,0,2.414,1.135,2.414,2.791c0,1.287-0.56,2.95-2.446,2.95h-2.295V3.233z M275.687,8.31h1.504
				c1.007,0,1.663-0.792,1.663-2.239s-0.664-2.175-1.72-2.175h-1.447V8.31z"/>
			<path d="M285.373,8.974v-3.39c0-0.168,0.016-0.896,0.016-1.431h-0.016l-1.615,4.821h-0.768l-1.615-4.813h-0.016
				c0,0.528,0.016,1.255,0.016,1.423v3.39h-0.751V3.233h1.111l1.639,4.853h0.017l1.631-4.853h1.104v5.741H285.373z"/>
			<path d="M288.926,9.126c-1.615,0-1.927-1.719-1.927-2.886c0-1.167,0.312-2.887,1.927-2.887s1.927,1.719,1.927,2.887
				C290.853,7.406,290.542,9.126,288.926,9.126z M288.926,3.985c-0.808,0-1.175,0.848-1.175,2.255s0.367,2.255,1.175,2.255
				s1.176-0.848,1.176-2.255S289.734,3.985,288.926,3.985z"/>
		</g>
		<g>
			<path d="M278.153,16.635h4.661v0.688h-1.943v5.053h-0.775v-5.053h-1.942V16.635z"/>
			<path d="M285.151,22.528c-1.615,0-1.927-1.719-1.927-2.886c0-1.167,0.312-2.887,1.927-2.887s1.927,1.719,1.927,2.887
				C287.078,20.809,286.766,22.528,285.151,22.528z M285.151,17.387c-0.808,0-1.175,0.848-1.175,2.255s0.367,2.255,1.175,2.255
				s1.176-0.848,1.176-2.255S285.959,17.387,285.151,17.387z"/>
		</g>
		<g>
			<rect x="20.628" y="15.005" class="st1" width="8.052" height="8.053"/>
			<line class="st0" x1="28.68" y1="15.005" x2="28.68" y2="23.058"/>
			<line class="st0" x1="20.628" y1="23.058" x2="20.628" y2="15.005"/>
		</g>
		<line class="st0" x1="0.5" y1="0" x2="0.5" y2="72.066"/>
		<line class="st0" x1="310.475" y1="0" x2="310.475" y2="72.066"/>
		<g>
		</g>
	</g>
</g>
<g id="儗僀儎乕_2">
</g>
</svg>
