<?xml version="1.0" encoding="utf-8"?>
<!-- Generator: Adobe Illustrator 28.2.0, SVG Export Plug-In . SVG Version: 6.00 Build 0)  -->
<svg version="1.1" id="儗僀儎乕_1" xmlns="http://www.w3.org/2000/svg" xmlns:xlink="http://www.w3.org/1999/xlink" x="0px"
	 y="0px" width="503.772px" height="468.427px" viewBox="0 0 503.772 468.427" style="enable-background:new 0 0 503.772 468.427;"
	 xml:space="preserve">
<style type="text/css">
	.st0{fill:none;stroke:#000000;}
	.st1{fill:#FFFFFF;}
	.st2{fill:#FFFFFF;stroke:#000000;}
</style>
<g>
	<line class="st0" x1="0.5" y1="27.682" x2="503.272" y2="27.682"/>
	<line class="st0" x1="0.5" y1="0" x2="0.5" y2="110.729"/>
	<line class="st0" x1="503.272" y1="0" x2="503.272" y2="110.729"/>
	<g>
		<rect x="35.103" y="20.763" class="st1" width="13.841" height="13.843"/>
		<line class="st0" x1="48.944" y1="20.763" x2="48.944" y2="34.605"/>
		<line class="st0" x1="35.103" y1="34.605" x2="35.103" y2="20.763"/>
	</g>
	<line class="st0" x1="0.5" y1="83.046" x2="503.272" y2="83.046"/>
	<g>
		<rect x="35.103" y="76.127" class="st1" width="13.841" height="13.843"/>
		<line class="st0" x1="48.944" y1="76.127" x2="48.944" y2="89.97"/>
		<line class="st0" x1="35.103" y1="89.97" x2="35.103" y2="76.127"/>
	</g>
	<path class="st2" d="M461.749,83.043c0,3.824-3.099,6.924-6.924,6.924c-3.82,0-6.919-3.099-6.919-6.924
		c0-3.819,3.099-6.917,6.919-6.917C458.65,76.127,461.749,79.224,461.749,83.043z"/>
	<g>
		<rect x="420.226" y="20.76" class="st1" width="69.203" height="13.842"/>
		<line class="st0" x1="489.43" y1="20.76" x2="489.43" y2="34.603"/>
		<line class="st0" x1="420.226" y1="34.603" x2="420.226" y2="20.76"/>
	</g>
	<g>
		<path d="M29.888,9.353h4.662v0.688h-1.943v5.053H31.83V10.04h-1.943V9.353z"/>
		<path d="M35.023,15.093h-0.704v-4.182h0.664v0.695h0.016c0.28-0.487,0.647-0.815,1.175-0.815c0.088,0,0.128,0.008,0.184,0.024
			v0.728h-0.264c-0.656,0-1.071,0.512-1.071,1.119V15.093z"/>
		<path d="M37.023,10.152V9.353h0.704v0.799H37.023z M37.727,15.093h-0.704v-4.182h0.704V15.093z"/>
		<path d="M42.253,14.75c0,0.6-0.008,2.103-1.943,2.103c-0.496,0-1.463-0.136-1.599-1.247h0.704
			c0.128,0.664,0.775,0.664,0.943,0.664c1.215,0,1.191-0.976,1.191-1.471v-0.176h-0.016v0.032c-0.184,0.296-0.552,0.56-1.111,0.56
			c-1.423,0-1.839-1.335-1.839-2.335c0-1.175,0.632-2.087,1.743-2.087c0.759,0,1.079,0.472,1.247,0.712h0.016v-0.592h0.664V14.75z
			 M40.438,14.606c0.448,0,1.144-0.296,1.144-1.407c0-0.68-0.112-1.775-1.127-1.775c-1.087,0-1.144,1.031-1.144,1.567
			C39.311,13.91,39.671,14.606,40.438,14.606z"/>
		<path d="M46.701,14.75c0,0.6-0.008,2.103-1.943,2.103c-0.496,0-1.463-0.136-1.599-1.247h0.704
			c0.128,0.664,0.775,0.664,0.943,0.664c1.215,0,1.191-0.976,1.191-1.471v-0.176h-0.016v0.032c-0.184,0.296-0.551,0.56-1.111,0.56
			c-1.423,0-1.839-1.335-1.839-2.335c0-1.175,0.632-2.087,1.743-2.087c0.759,0,1.079,0.472,1.247,0.712h0.016v-0.592h0.664V14.75z
			 M44.886,14.606c0.448,0,1.144-0.296,1.144-1.407c0-0.68-0.112-1.775-1.127-1.775c-1.087,0-1.144,1.031-1.144,1.567
			C43.759,13.91,44.119,14.606,44.886,14.606z"/>
		<path d="M51.229,13.782c-0.024,0.2-0.216,0.792-0.744,1.144c-0.192,0.128-0.464,0.288-1.135,0.288
			c-1.175,0-1.871-0.888-1.871-2.095c0-1.295,0.624-2.327,2.007-2.327c1.208,0,1.799,0.959,1.799,2.439h-3.055
			c0,0.872,0.408,1.375,1.215,1.375c0.664,0,1.056-0.512,1.08-0.824H51.229z M50.557,12.671c-0.04-0.647-0.312-1.247-1.167-1.247
			c-0.648,0-1.16,0.6-1.16,1.247H50.557z"/>
		<path d="M52.927,15.093h-0.704v-4.182h0.664v0.695h0.016c0.28-0.487,0.647-0.815,1.175-0.815c0.088,0,0.128,0.008,0.184,0.024
			v0.728h-0.264c-0.656,0-1.071,0.512-1.071,1.119V15.093z"/>
	</g>
	<g>
		<path d="M452.671,11.659c-0.04-0.888-0.775-1.167-1.423-1.167c-0.487,0-1.312,0.136-1.312,1.007c0,0.488,0.344,0.647,0.68,0.728
			l1.64,0.376c0.743,0.176,1.303,0.624,1.303,1.535c0,1.359-1.263,1.735-2.246,1.735c-1.063,0-1.479-0.32-1.735-0.552
			c-0.488-0.439-0.584-0.919-0.584-1.455h0.728c0,1.04,0.848,1.343,1.583,1.343c0.56,0,1.504-0.144,1.504-0.967
			c0-0.6-0.28-0.792-1.224-1.016l-1.176-0.272c-0.375-0.088-1.223-0.352-1.223-1.351c0-0.896,0.583-1.775,1.975-1.775
			c2.007,0,2.207,1.199,2.238,1.831H452.671z"/>
		<path d="M455.257,15.72h-0.704v-4.182h0.664v0.695h0.016c0.28-0.487,0.648-0.815,1.176-0.815c0.088,0,0.128,0.008,0.184,0.024
			v0.728h-0.264c-0.655,0-1.071,0.512-1.071,1.119V15.72z"/>
		<path d="M459.577,12.946c-0.089-0.56-0.4-0.896-0.992-0.896c-0.871,0-1.151,0.832-1.151,1.575c0,0.72,0.176,1.607,1.144,1.607
			c0.472,0,0.88-0.352,1-0.991h0.679c-0.071,0.664-0.479,1.599-1.702,1.599c-1.176,0-1.871-0.888-1.871-2.095
			c0-1.295,0.623-2.327,2.007-2.327c1.095,0,1.511,0.8,1.566,1.527H459.577z"/>
	</g>
	<g>
		<path d="M29.936,65.792h4.662v0.688h-1.943v5.053h-0.776V66.48h-1.943V65.792z"/>
	</g>
	<g>
		<path d="M45.117,65.791h0.714v5.741h-0.828l-2.773-4.638h-0.015v4.638H41.5v-5.741h0.874l2.728,4.637h0.015V65.791z"/>
		<path d="M49.495,71.532v-0.607l-0.015-0.016c-0.281,0.488-0.623,0.744-1.261,0.744c-0.585,0-1.292-0.296-1.292-1.295V67.35h0.669
			v2.774c0,0.688,0.334,0.919,0.768,0.919c0.843,0,1.094-0.784,1.094-1.391V67.35h0.668v4.182H49.495z"/>
		<path d="M51.13,67.35h0.63v0.592h0.015c0.145-0.224,0.486-0.712,1.201-0.712s0.942,0.456,1.056,0.68
			c0.334-0.392,0.601-0.68,1.216-0.68c0.426,0,1.231,0.232,1.231,1.407v2.895H55.81v-2.703c0-0.576-0.167-0.967-0.737-0.967
			c-0.562,0-0.935,0.56-0.935,1.119v2.551H53.47v-2.895c0-0.352-0.129-0.775-0.623-0.775c-0.38,0-1.049,0.256-1.049,1.391v2.279
			H51.13V67.35z"/>
	</g>
	<g>
		<path d="M431.689,25.537h4.661v0.688h-1.943v5.053h-0.775v-5.053h-1.942V25.537z"/>
	</g>
	<g>
		<path d="M458.952,25.538h0.715v5.741h-0.828l-2.774-4.638h-0.015v4.638h-0.715v-5.741h0.874l2.729,4.637h0.015V25.538z"/>
		<path d="M463.33,31.279v-0.607l-0.015-0.016c-0.281,0.488-0.623,0.744-1.262,0.744c-0.585,0-1.292-0.296-1.292-1.295v-3.006h0.669
			v2.774c0,0.688,0.334,0.919,0.768,0.919c0.843,0,1.094-0.784,1.094-1.391v-2.303h0.669v4.182H463.33z"/>
		<path d="M464.965,27.097h0.631v0.592h0.015c0.145-0.224,0.486-0.712,1.201-0.712c0.714,0,0.942,0.456,1.056,0.68
			c0.335-0.392,0.601-0.68,1.216-0.68c0.426,0,1.231,0.232,1.231,1.407v2.895h-0.669v-2.703c0-0.576-0.167-0.967-0.737-0.967
			c-0.562,0-0.935,0.56-0.935,1.119v2.551h-0.669v-2.895c0-0.352-0.129-0.775-0.623-0.775c-0.38,0-1.048,0.256-1.048,1.391v2.279
			h-0.669V27.097z"/>
	</g>
</g>
<g>
	<g>
		<path d="M45.117,184.942h0.714v5.741h-0.828l-2.773-4.638h-0.015v4.638H41.5v-5.741h0.874l2.728,4.638h0.015V184.942z"/>
		<path d="M49.495,190.684v-0.607l-0.015-0.017c-0.281,0.488-0.623,0.744-1.261,0.744c-0.585,0-1.292-0.296-1.292-1.296v-3.006
			h0.669v2.774c0,0.688,0.334,0.92,0.768,0.92c0.843,0,1.094-0.784,1.094-1.392v-2.303h0.668v4.182H49.495z"/>
		<path d="M51.13,186.502h0.63v0.592h0.015c0.145-0.224,0.486-0.712,1.201-0.712s0.942,0.456,1.056,0.68
			c0.334-0.392,0.601-0.68,1.216-0.68c0.426,0,1.231,0.232,1.231,1.407v2.895H55.81v-2.702c0-0.576-0.167-0.968-0.737-0.968
			c-0.562,0-0.935,0.56-0.935,1.119v2.551H53.47v-2.895c0-0.352-0.129-0.775-0.623-0.775c-0.38,0-1.049,0.256-1.049,1.392v2.278
			H51.13V186.502z"/>
	</g>
	<line class="st0" x1="0.5" y1="146.916" x2="503.272" y2="146.916"/>
	<line class="st0" x1="0.5" y1="119.233" x2="0.5" y2="229.961"/>
	<line class="st0" x1="503.272" y1="119.233" x2="503.272" y2="229.961"/>
	<g>
		<rect x="35.103" y="139.997" class="st1" width="13.841" height="13.843"/>
		<line class="st0" x1="48.944" y1="139.997" x2="48.944" y2="153.839"/>
		<line class="st0" x1="35.103" y1="153.839" x2="35.103" y2="139.997"/>
	</g>
	<line class="st0" x1="0.5" y1="202.279" x2="503.272" y2="202.279"/>
	<g>
		<rect x="35.103" y="195.36" class="st1" width="13.841" height="13.843"/>
		<line class="st0" x1="48.944" y1="195.36" x2="48.944" y2="209.202"/>
		<line class="st0" x1="35.103" y1="209.202" x2="35.103" y2="195.36"/>
	</g>
	<path class="st2" d="M461.749,202.276c0,3.824-3.099,6.924-6.924,6.924c-3.82,0-6.919-3.099-6.919-6.924
		c0-3.82,3.099-6.917,6.919-6.917C458.65,195.36,461.749,198.457,461.749,202.276z"/>
	<g>
		<rect x="420.226" y="139.997" class="st1" width="69.203" height="13.843"/>
		<line class="st0" x1="489.43" y1="139.997" x2="489.43" y2="153.839"/>
		<line class="st0" x1="420.226" y1="153.839" x2="420.226" y2="139.997"/>
	</g>
	<g>
		<path d="M29.888,126.92h4.662v0.688h-1.943v5.053H31.83v-5.053h-1.943V126.92z"/>
		<path d="M35.023,132.661h-0.704v-4.182h0.664v0.695h0.016c0.28-0.487,0.647-0.815,1.175-0.815c0.088,0,0.128,0.008,0.184,0.024
			v0.728h-0.264c-0.656,0-1.071,0.512-1.071,1.119V132.661z"/>
		<path d="M37.023,127.719v-0.799h0.704v0.799H37.023z M37.727,132.661h-0.704v-4.182h0.704V132.661z"/>
		<path d="M42.253,132.317c0,0.6-0.008,2.103-1.943,2.103c-0.496,0-1.463-0.136-1.599-1.247h0.704
			c0.128,0.664,0.775,0.664,0.943,0.664c1.215,0,1.191-0.976,1.191-1.471v-0.176h-0.016v0.032c-0.184,0.296-0.552,0.56-1.111,0.56
			c-1.423,0-1.839-1.335-1.839-2.335c0-1.175,0.632-2.087,1.743-2.087c0.759,0,1.079,0.472,1.247,0.712h0.016v-0.592h0.664V132.317z
			 M40.438,132.173c0.448,0,1.144-0.296,1.144-1.407c0-0.68-0.112-1.775-1.127-1.775c-1.087,0-1.144,1.031-1.144,1.567
			C39.311,131.477,39.671,132.173,40.438,132.173z"/>
		<path d="M46.701,132.317c0,0.6-0.008,2.103-1.943,2.103c-0.496,0-1.463-0.136-1.599-1.247h0.704
			c0.128,0.664,0.775,0.664,0.943,0.664c1.215,0,1.191-0.976,1.191-1.471v-0.176h-0.016v0.032c-0.184,0.296-0.551,0.56-1.111,0.56
			c-1.423,0-1.839-1.335-1.839-2.335c0-1.175,0.632-2.087,1.743-2.087c0.759,0,1.079,0.472,1.247,0.712h0.016v-0.592h0.664V132.317z
			 M44.886,132.173c0.448,0,1.144-0.296,1.144-1.407c0-0.68-0.112-1.775-1.127-1.775c-1.087,0-1.144,1.031-1.144,1.567
			C43.759,131.477,44.119,132.173,44.886,132.173z"/>
		<path d="M51.229,131.349c-0.024,0.2-0.216,0.792-0.744,1.144c-0.192,0.128-0.464,0.288-1.135,0.288
			c-1.175,0-1.871-0.888-1.871-2.095c0-1.295,0.624-2.327,2.007-2.327c1.208,0,1.799,0.959,1.799,2.439h-3.055
			c0,0.872,0.408,1.375,1.215,1.375c0.664,0,1.056-0.512,1.08-0.824H51.229z M50.557,130.238c-0.04-0.647-0.312-1.247-1.167-1.247
			c-0.648,0-1.16,0.6-1.16,1.247H50.557z"/>
		<path d="M52.927,132.661h-0.704v-4.182h0.664v0.695h0.016c0.28-0.487,0.647-0.815,1.175-0.815c0.088,0,0.128,0.008,0.184,0.024
			v0.728h-0.264c-0.656,0-1.071,0.512-1.071,1.119V132.661z"/>
	</g>
	<g>
		<path d="M451.855,129.048c-0.04-0.888-0.775-1.167-1.423-1.167c-0.487,0-1.312,0.136-1.312,1.007c0,0.488,0.344,0.647,0.68,0.728
			l1.64,0.376c0.743,0.176,1.303,0.624,1.303,1.535c0,1.359-1.263,1.735-2.246,1.735c-1.063,0-1.479-0.32-1.735-0.552
			c-0.488-0.439-0.584-0.919-0.584-1.455h0.728c0,1.04,0.848,1.343,1.583,1.343c0.56,0,1.504-0.144,1.504-0.967
			c0-0.6-0.28-0.792-1.224-1.016l-1.176-0.272c-0.375-0.088-1.223-0.352-1.223-1.351c0-0.896,0.583-1.775,1.975-1.775
			c2.007,0,2.207,1.199,2.238,1.831H451.855z"/>
		<path d="M454.441,133.109h-0.704v-4.182h0.664v0.695h0.016c0.28-0.487,0.648-0.815,1.176-0.815c0.088,0,0.128,0.008,0.184,0.024
			v0.728h-0.264c-0.655,0-1.071,0.512-1.071,1.119V133.109z"/>
		<path d="M458.76,130.335c-0.089-0.56-0.4-0.896-0.992-0.896c-0.871,0-1.151,0.832-1.151,1.575c0,0.72,0.176,1.607,1.144,1.607
			c0.472,0,0.88-0.352,1-0.991h0.679c-0.071,0.664-0.479,1.599-1.702,1.599c-1.176,0-1.871-0.888-1.871-2.095
			c0-1.295,0.623-2.327,2.007-2.327c1.095,0,1.511,0.8,1.566,1.527H458.76z"/>
	</g>
	<g>
		<path d="M29.936,184.942h4.662v0.688h-1.943v5.054h-0.776v-5.054h-1.943V184.942z"/>
	</g>
	<g>
		<path d="M458.903,145.348h0.715v5.741h-0.828l-2.774-4.638H456v4.638h-0.715v-5.741h0.874l2.729,4.637h0.015V145.348z"/>
		<path d="M463.281,151.089v-0.607l-0.015-0.016c-0.281,0.488-0.623,0.744-1.262,0.744c-0.585,0-1.292-0.296-1.292-1.295v-3.006
			h0.669v2.774c0,0.688,0.334,0.919,0.768,0.919c0.844,0,1.094-0.784,1.094-1.391v-2.303h0.669v4.182H463.281z"/>
		<path d="M464.915,146.907h0.631v0.592h0.015c0.145-0.224,0.486-0.712,1.201-0.712c0.714,0,0.941,0.456,1.056,0.68
			c0.335-0.392,0.601-0.68,1.216-0.68c0.426,0,1.231,0.232,1.231,1.407v2.895h-0.669v-2.703c0-0.576-0.167-0.967-0.737-0.967
			c-0.562,0-0.935,0.56-0.935,1.119v2.551h-0.669v-2.895c0-0.352-0.129-0.775-0.623-0.775c-0.38,0-1.048,0.256-1.048,1.391v2.279
			h-0.669V146.907z"/>
	</g>
	<g>
		<path d="M432.287,140.482h4.661v0.688h-1.943v5.053h-0.775v-5.053h-1.942V140.482z"/>
	</g>
	<g>
		<path d="M436.121,149.638h0.775v5.741h-0.775V152.7h-2.998v2.679h-0.776v-5.741h0.776v2.375h2.998V149.638z"/>
	</g>
</g>
<g>
	<g>
		<path d="M45.117,304.555h0.714v5.741h-0.828l-2.773-4.638h-0.015v4.638H41.5v-5.741h0.874l2.728,4.638h0.015V304.555z"/>
		<path d="M49.495,310.296v-0.607l-0.015-0.017c-0.281,0.488-0.623,0.744-1.261,0.744c-0.585,0-1.292-0.296-1.292-1.296v-3.006
			h0.669v2.774c0,0.688,0.334,0.92,0.768,0.92c0.843,0,1.094-0.784,1.094-1.392v-2.303h0.668v4.182H49.495z"/>
		<path d="M51.13,306.114h0.63v0.592h0.015c0.145-0.224,0.486-0.712,1.201-0.712s0.942,0.456,1.056,0.68
			c0.334-0.392,0.601-0.68,1.216-0.68c0.426,0,1.231,0.232,1.231,1.407v2.895H55.81v-2.702c0-0.576-0.167-0.968-0.737-0.968
			c-0.562,0-0.935,0.56-0.935,1.119v2.551H53.47v-2.895c0-0.352-0.129-0.775-0.623-0.775c-0.38,0-1.049,0.256-1.049,1.392v2.278
			H51.13V306.114z"/>
	</g>
	<line class="st0" x1="0.5" y1="266.148" x2="503.272" y2="266.148"/>
	<line class="st0" x1="0.5" y1="238.465" x2="0.5" y2="349.194"/>
	<line class="st0" x1="503.272" y1="238.465" x2="503.272" y2="349.194"/>
	<g>
		<rect x="35.103" y="259.229" class="st1" width="13.841" height="13.843"/>
		<line class="st0" x1="48.944" y1="259.229" x2="48.944" y2="273.072"/>
		<line class="st0" x1="35.103" y1="273.072" x2="35.103" y2="259.229"/>
	</g>
	<line class="st0" x1="0.5" y1="321.511" x2="503.272" y2="321.511"/>
	<g>
		<rect x="35.103" y="314.592" class="st1" width="13.841" height="13.843"/>
		<line class="st0" x1="48.944" y1="314.592" x2="48.944" y2="328.435"/>
		<line class="st0" x1="35.103" y1="328.435" x2="35.103" y2="314.592"/>
	</g>
	<path class="st2" d="M461.749,321.509c0,3.824-3.099,6.924-6.924,6.924c-3.82,0-6.919-3.1-6.919-6.924
		c0-3.819,3.099-6.917,6.919-6.917C458.65,314.592,461.749,317.69,461.749,321.509z"/>
	<g>
		<rect x="420.226" y="259.227" class="st1" width="69.203" height="13.843"/>
		<line class="st0" x1="489.43" y1="259.227" x2="489.43" y2="273.069"/>
		<line class="st0" x1="420.226" y1="273.069" x2="420.226" y2="259.227"/>
	</g>
	<g>
		<path d="M29.888,247.264h4.662v0.688h-1.943v5.054H31.83v-5.054h-1.943V247.264z"/>
		<path d="M35.023,253.005h-0.704v-4.182h0.664v0.695h0.016c0.28-0.487,0.647-0.815,1.175-0.815c0.088,0,0.128,0.008,0.184,0.024
			v0.728h-0.264c-0.656,0-1.071,0.512-1.071,1.119V253.005z"/>
		<path d="M37.023,248.064v-0.8h0.704v0.8H37.023z M37.727,253.005h-0.704v-4.182h0.704V253.005z"/>
		<path d="M42.253,252.661c0,0.6-0.008,2.103-1.943,2.103c-0.496,0-1.463-0.136-1.599-1.247h0.704
			c0.128,0.664,0.775,0.664,0.943,0.664c1.215,0,1.191-0.976,1.191-1.472v-0.176h-0.016v0.032c-0.184,0.296-0.552,0.56-1.111,0.56
			c-1.423,0-1.839-1.336-1.839-2.335c0-1.175,0.632-2.087,1.743-2.087c0.759,0,1.079,0.472,1.247,0.712h0.016v-0.592h0.664V252.661z
			 M40.438,252.518c0.448,0,1.144-0.296,1.144-1.407c0-0.68-0.112-1.775-1.127-1.775c-1.087,0-1.144,1.031-1.144,1.567
			C39.311,251.821,39.671,252.518,40.438,252.518z"/>
		<path d="M46.701,252.661c0,0.6-0.008,2.103-1.943,2.103c-0.496,0-1.463-0.136-1.599-1.247h0.704
			c0.128,0.664,0.775,0.664,0.943,0.664c1.215,0,1.191-0.976,1.191-1.472v-0.176h-0.016v0.032c-0.184,0.296-0.551,0.56-1.111,0.56
			c-1.423,0-1.839-1.336-1.839-2.335c0-1.175,0.632-2.087,1.743-2.087c0.759,0,1.079,0.472,1.247,0.712h0.016v-0.592h0.664V252.661z
			 M44.886,252.518c0.448,0,1.144-0.296,1.144-1.407c0-0.68-0.112-1.775-1.127-1.775c-1.087,0-1.144,1.031-1.144,1.567
			C43.759,251.821,44.119,252.518,44.886,252.518z"/>
		<path d="M51.229,251.693c-0.024,0.2-0.216,0.792-0.744,1.144c-0.192,0.128-0.464,0.288-1.135,0.288
			c-1.175,0-1.871-0.888-1.871-2.095c0-1.296,0.624-2.327,2.007-2.327c1.208,0,1.799,0.96,1.799,2.438h-3.055
			c0,0.872,0.408,1.376,1.215,1.376c0.664,0,1.056-0.512,1.08-0.824H51.229z M50.557,250.582c-0.04-0.647-0.312-1.247-1.167-1.247
			c-0.648,0-1.16,0.6-1.16,1.247H50.557z"/>
		<path d="M52.927,253.005h-0.704v-4.182h0.664v0.695h0.016c0.28-0.487,0.647-0.815,1.175-0.815c0.088,0,0.128,0.008,0.184,0.024
			v0.728h-0.264c-0.656,0-1.071,0.512-1.071,1.119V253.005z"/>
	</g>
	<g>
		<path d="M451.818,248.171c-0.04-0.888-0.775-1.168-1.423-1.168c-0.487,0-1.312,0.137-1.312,1.008c0,0.487,0.344,0.647,0.68,0.728
			l1.64,0.376c0.743,0.176,1.303,0.623,1.303,1.535c0,1.359-1.263,1.735-2.246,1.735c-1.063,0-1.479-0.32-1.735-0.552
			c-0.488-0.44-0.584-0.92-0.584-1.455h0.728c0,1.039,0.848,1.343,1.583,1.343c0.56,0,1.504-0.144,1.504-0.968
			c0-0.6-0.28-0.791-1.224-1.016l-1.176-0.271c-0.375-0.088-1.223-0.352-1.223-1.352c0-0.896,0.583-1.774,1.975-1.774
			c2.007,0,2.207,1.199,2.238,1.831H451.818z"/>
		<path d="M454.404,252.233H453.7v-4.182h0.664v0.695h0.016c0.28-0.487,0.648-0.815,1.176-0.815c0.088,0,0.128,0.008,0.184,0.024
			v0.728h-0.264c-0.655,0-1.071,0.512-1.071,1.119V252.233z"/>
		<path d="M458.723,249.458c-0.089-0.56-0.4-0.896-0.992-0.896c-0.871,0-1.151,0.831-1.151,1.575c0,0.72,0.176,1.607,1.144,1.607
			c0.472,0,0.88-0.353,1-0.992h0.679c-0.071,0.664-0.479,1.6-1.702,1.6c-1.176,0-1.871-0.888-1.871-2.095
			c0-1.296,0.623-2.327,2.007-2.327c1.095,0,1.511,0.8,1.566,1.527H458.723z"/>
	</g>
	<g>
		<path d="M458.734,263.717h0.715v5.741h-0.828l-2.774-4.638h-0.015v4.638h-0.715v-5.741h0.874l2.729,4.638h0.015V263.717z"/>
		<path d="M463.112,269.458v-0.607l-0.015-0.017c-0.281,0.488-0.623,0.744-1.262,0.744c-0.585,0-1.292-0.296-1.292-1.296v-3.006
			h0.669v2.774c0,0.688,0.334,0.92,0.768,0.92c0.843,0,1.094-0.784,1.094-1.392v-2.303h0.669v4.182H463.112z"/>
		<path d="M464.746,265.276h0.631v0.592h0.015c0.145-0.224,0.486-0.712,1.201-0.712c0.714,0,0.942,0.456,1.056,0.68
			c0.335-0.392,0.601-0.68,1.216-0.68c0.426,0,1.231,0.232,1.231,1.407v2.895h-0.669v-2.702c0-0.576-0.167-0.968-0.737-0.968
			c-0.562,0-0.935,0.56-0.935,1.119v2.551h-0.669v-2.895c0-0.352-0.129-0.775-0.623-0.775c-0.38,0-1.048,0.256-1.048,1.392v2.278
			h-0.669V265.276z"/>
	</g>
	<g>
		<path d="M29.936,304.555h4.662v0.688h-1.943v5.053h-0.776v-5.053h-1.943V304.555z"/>
	</g>
	<g>
		<g>
			<path d="M431.677,258.994h4.661v0.688h-1.943v5.053h-0.775v-5.053h-1.942V258.994z"/>
		</g>
		<g>
			<path d="M435.41,271.66c-0.039-0.888-0.775-1.168-1.423-1.168c-0.487,0-1.312,0.137-1.312,1.008c0,0.487,0.344,0.647,0.68,0.728
				l1.64,0.376c0.743,0.176,1.303,0.624,1.303,1.535c0,1.359-1.263,1.735-2.246,1.735c-1.063,0-1.479-0.32-1.735-0.552
				c-0.488-0.44-0.584-0.92-0.584-1.456h0.728c0,1.04,0.848,1.344,1.583,1.344c0.561,0,1.504-0.144,1.504-0.968
				c0-0.6-0.28-0.791-1.224-1.015l-1.176-0.272c-0.375-0.088-1.223-0.352-1.223-1.352c0-0.896,0.583-1.774,1.975-1.774
				c2.007,0,2.207,1.199,2.239,1.831H435.41z"/>
		</g>
	</g>
</g>
<g>
	<line class="st0" x1="0.5" y1="385.381" x2="503.272" y2="385.381"/>
	<line class="st0" x1="0.5" y1="357.698" x2="0.5" y2="468.427"/>
	<line class="st0" x1="503.272" y1="357.698" x2="503.272" y2="468.427"/>
	<g>
		<rect x="35.103" y="378.462" class="st1" width="13.841" height="13.843"/>
		<line class="st0" x1="48.944" y1="378.462" x2="48.944" y2="392.305"/>
		<line class="st0" x1="35.103" y1="392.305" x2="35.103" y2="378.462"/>
	</g>
	<line class="st0" x1="0.5" y1="440.744" x2="503.272" y2="440.744"/>
	<g>
		<rect x="35.103" y="433.825" class="st1" width="13.841" height="13.843"/>
		<line class="st0" x1="48.944" y1="433.825" x2="48.944" y2="447.668"/>
		<line class="st0" x1="35.103" y1="447.668" x2="35.103" y2="433.825"/>
	</g>
	<path class="st2" d="M461.749,440.742c0,3.824-3.099,6.924-6.924,6.924c-3.82,0-6.919-3.099-6.919-6.924
		c0-3.82,3.099-6.917,6.919-6.917C458.65,433.825,461.749,436.922,461.749,440.742z"/>
	<g>
		<rect x="420.226" y="378.46" class="st1" width="69.203" height="13.842"/>
		<line class="st0" x1="489.43" y1="378.46" x2="489.43" y2="392.302"/>
		<line class="st0" x1="420.226" y1="392.302" x2="420.226" y2="378.46"/>
	</g>
	<g>
		<path d="M29.888,366.494h4.662v0.688h-1.943v5.053H31.83v-5.053h-1.943V366.494z"/>
		<path d="M35.023,372.235h-0.704v-4.182h0.664v0.695h0.016c0.28-0.487,0.647-0.815,1.175-0.815c0.088,0,0.128,0.008,0.184,0.024
			v0.728h-0.264c-0.656,0-1.071,0.512-1.071,1.119V372.235z"/>
		<path d="M37.023,367.294v-0.8h0.704v0.8H37.023z M37.727,372.235h-0.704v-4.182h0.704V372.235z"/>
		<path d="M42.253,371.892c0,0.6-0.008,2.103-1.943,2.103c-0.496,0-1.463-0.136-1.599-1.247h0.704
			c0.128,0.664,0.775,0.664,0.943,0.664c1.215,0,1.191-0.976,1.191-1.472v-0.176h-0.016v0.032c-0.184,0.296-0.552,0.56-1.111,0.56
			c-1.423,0-1.839-1.335-1.839-2.335c0-1.176,0.632-2.087,1.743-2.087c0.759,0,1.079,0.472,1.247,0.712h0.016v-0.592h0.664V371.892z
			 M40.438,371.748c0.448,0,1.144-0.296,1.144-1.407c0-0.68-0.112-1.775-1.127-1.775c-1.087,0-1.144,1.031-1.144,1.567
			C39.311,371.052,39.671,371.748,40.438,371.748z"/>
		<path d="M46.701,371.892c0,0.6-0.008,2.103-1.943,2.103c-0.496,0-1.463-0.136-1.599-1.247h0.704
			c0.128,0.664,0.775,0.664,0.943,0.664c1.215,0,1.191-0.976,1.191-1.472v-0.176h-0.016v0.032c-0.184,0.296-0.551,0.56-1.111,0.56
			c-1.423,0-1.839-1.335-1.839-2.335c0-1.176,0.632-2.087,1.743-2.087c0.759,0,1.079,0.472,1.247,0.712h0.016v-0.592h0.664V371.892z
			 M44.886,371.748c0.448,0,1.144-0.296,1.144-1.407c0-0.68-0.112-1.775-1.127-1.775c-1.087,0-1.144,1.031-1.144,1.567
			C43.759,371.052,44.119,371.748,44.886,371.748z"/>
		<path d="M51.229,370.924c-0.024,0.2-0.216,0.792-0.744,1.144c-0.192,0.128-0.464,0.288-1.135,0.288
			c-1.175,0-1.871-0.888-1.871-2.095c0-1.296,0.624-2.327,2.007-2.327c1.208,0,1.799,0.96,1.799,2.438h-3.055
			c0,0.872,0.408,1.376,1.215,1.376c0.664,0,1.056-0.512,1.08-0.824H51.229z M50.557,369.813c-0.04-0.647-0.312-1.247-1.167-1.247
			c-0.648,0-1.16,0.6-1.16,1.247H50.557z"/>
		<path d="M52.927,372.235h-0.704v-4.182h0.664v0.695h0.016c0.28-0.487,0.647-0.815,1.175-0.815c0.088,0,0.128,0.008,0.184,0.024
			v0.728h-0.264c-0.656,0-1.071,0.512-1.071,1.119V372.235z"/>
	</g>
	<g>
		<path d="M451.818,367.401c-0.04-0.888-0.775-1.168-1.423-1.168c-0.487,0-1.312,0.137-1.312,1.008c0,0.487,0.344,0.647,0.68,0.728
			l1.64,0.376c0.743,0.176,1.303,0.623,1.303,1.535c0,1.359-1.263,1.735-2.246,1.735c-1.063,0-1.479-0.32-1.735-0.552
			c-0.488-0.44-0.584-0.92-0.584-1.455h0.728c0,1.039,0.848,1.343,1.583,1.343c0.56,0,1.504-0.144,1.504-0.968
			c0-0.6-0.28-0.791-1.224-1.016l-1.176-0.271c-0.375-0.088-1.223-0.352-1.223-1.352c0-0.896,0.583-1.774,1.975-1.774
			c2.007,0,2.207,1.199,2.238,1.831H451.818z"/>
		<path d="M454.404,371.462H453.7v-4.182h0.664v0.695h0.016c0.28-0.487,0.648-0.815,1.176-0.815c0.088,0,0.128,0.008,0.184,0.024
			v0.728h-0.264c-0.655,0-1.071,0.512-1.071,1.119V371.462z"/>
		<path d="M458.723,368.688c-0.089-0.56-0.4-0.896-0.992-0.896c-0.871,0-1.151,0.831-1.151,1.575c0,0.72,0.176,1.607,1.144,1.607
			c0.472,0,0.88-0.353,1-0.992h0.679c-0.071,0.664-0.479,1.6-1.702,1.6c-1.176,0-1.871-0.888-1.871-2.095
			c0-1.296,0.623-2.327,2.007-2.327c1.095,0,1.511,0.8,1.566,1.527H458.723z"/>
	</g>
	<g>
		<path d="M458.53,383.392h0.752v5.741h-0.871l-2.919-4.638h-0.016v4.638h-0.752v-5.741h0.92l2.87,4.638h0.016V383.392z"/>
		<path d="M463.139,389.133v-0.607l-0.016-0.017c-0.296,0.488-0.656,0.744-1.327,0.744c-0.616,0-1.359-0.296-1.359-1.296v-3.006
			h0.703v2.774c0,0.688,0.353,0.92,0.808,0.92c0.888,0,1.151-0.784,1.151-1.392v-2.303h0.704v4.182H463.139z"/>
		<path d="M464.86,384.951h0.664v0.592h0.016c0.152-0.224,0.512-0.712,1.264-0.712c0.751,0,0.991,0.456,1.111,0.68
			c0.352-0.392,0.632-0.68,1.279-0.68c0.447,0,1.295,0.232,1.295,1.407v2.895h-0.703v-2.702c0-0.576-0.176-0.968-0.775-0.968
			c-0.592,0-0.984,0.56-0.984,1.119v2.551h-0.703v-2.895c0-0.352-0.136-0.775-0.655-0.775c-0.4,0-1.104,0.256-1.104,1.392v2.278
			h-0.704V384.951z"/>
	</g>
	<g>
		<path d="M29.936,423.784h4.662v0.688h-1.943v5.053h-0.776v-5.053h-1.943V423.784z"/>
	</g>
	<g>
		<path d="M44.914,423.784h0.751v5.741h-0.872l-2.918-4.638H41.86v4.638h-0.751v-5.741h0.919l2.87,4.638h0.016V423.784z"/>
		<path d="M49.522,429.526v-0.607l-0.016-0.017c-0.296,0.488-0.656,0.744-1.328,0.744c-0.616,0-1.359-0.296-1.359-1.296v-3.006
			h0.703v2.774c0,0.688,0.352,0.92,0.808,0.92c0.888,0,1.151-0.784,1.151-1.392v-2.303h0.704v4.182H49.522z"/>
		<path d="M51.244,425.344h0.664v0.592h0.016c0.152-0.224,0.512-0.712,1.264-0.712c0.751,0,0.991,0.456,1.111,0.68
			c0.352-0.392,0.631-0.68,1.279-0.68c0.448,0,1.295,0.232,1.295,1.407v2.895h-0.704v-2.702c0-0.576-0.176-0.968-0.775-0.968
			c-0.592,0-0.983,0.56-0.983,1.119v2.551h-0.704v-2.895c0-0.352-0.136-0.775-0.656-0.775c-0.4,0-1.104,0.256-1.104,1.392v2.278
			h-0.704V425.344z"/>
	</g>
	<g>
		<g>
			<path d="M432.654,379.202h4.661v0.688h-1.943v5.053h-0.775v-5.053h-1.942V379.202z"/>
		</g>
		<g>
			<path d="M437.247,390.189v3.727c0,1.175-0.735,2.167-2.311,2.167c-1.544,0-2.207-0.992-2.207-2.063v-3.83h0.775v3.614
				c0,1.247,0.76,1.591,1.455,1.591c0.712,0,1.512-0.327,1.512-1.575v-3.63H437.247z"/>
		</g>
	</g>
</g>
</svg>
