<?xml version="1.0" encoding="utf-8"?>
<!-- Generator: Adobe Illustrator 28.2.0, SVG Export Plug-In . SVG Version: 6.00 Build 0)  -->
<svg version="1.1" id="儗僀儎乕_1" xmlns="http://www.w3.org/2000/svg" xmlns:xlink="http://www.w3.org/1999/xlink" x="0px"
	 y="0px" width="273.835px" height="76.889px" viewBox="0 0 273.835 76.889" style="enable-background:new 0 0 273.835 76.889;"
	 xml:space="preserve">
<style type="text/css">
	.st0{fill:none;stroke:#000000;}
	.st1{fill:#FFFFFF;}
	.st2{fill:#FFFFFF;stroke:#000000;}
</style>
<line class="st0" x1="0.5" y1="17.716" x2="273.335" y2="17.716"/>
<line class="st0" x1="0.5" y1="0" x2="0.5" y2="76.889"/>
<line class="st0" x1="273.335" y1="0" x2="273.335" y2="76.889"/>
<g>
	<rect x="18.217" y="14.174" class="st1" width="7.087" height="7.087"/>
	<line class="st0" x1="25.304" y1="14.174" x2="25.304" y2="21.261"/>
	<line class="st0" x1="18.217" y1="21.261" x2="18.217" y2="14.174"/>
</g>
<line class="st0" x1="0.5" y1="57.401" x2="273.335" y2="57.401"/>
<g>
	<rect x="18.217" y="53.858" class="st1" width="7.087" height="7.087"/>
	<line class="st0" x1="25.304" y1="53.858" x2="25.304" y2="60.946"/>
	<line class="st0" x1="18.217" y1="60.946" x2="18.217" y2="53.858"/>
</g>
<path class="st2" d="M252.075,57.4c0,1.958-1.587,3.545-3.545,3.545c-1.956,0-3.542-1.587-3.542-3.545
	c0-1.956,1.587-3.541,3.542-3.541C250.488,53.858,252.075,55.444,252.075,57.4z"/>
<g>
	<rect x="230.815" y="14.173" class="st1" width="35.432" height="7.087"/>
	<line class="st0" x1="266.247" y1="14.173" x2="266.247" y2="21.26"/>
	<line class="st0" x1="230.815" y1="21.26" x2="230.815" y2="14.173"/>
</g>
<g>
	<path d="M14.613,11.339h-0.775V5.598h2.654c0.944,0,1.887,0.328,1.887,1.543c0,0.848-0.432,1.16-0.799,1.375
		c0.328,0.136,0.655,0.28,0.688,1.079l0.048,1.04c0.008,0.32,0.048,0.44,0.288,0.576v0.128h-0.952
		c-0.112-0.352-0.136-1.223-0.136-1.439c0-0.472-0.096-1.023-1.023-1.023h-1.879V11.339z M14.613,8.212h1.799
		c0.567,0,1.167-0.144,1.167-0.991c0-0.888-0.648-0.959-1.032-0.959h-1.935V8.212z"/>
	<path d="M20.732,11.491c-1.615,0-1.927-1.719-1.927-2.886c0-1.167,0.312-2.887,1.927-2.887c1.615,0,1.927,1.719,1.927,2.887
		C22.659,9.772,22.347,11.491,20.732,11.491z M20.732,6.35c-0.808,0-1.175,0.848-1.175,2.255s0.368,2.255,1.175,2.255
		s1.175-0.848,1.175-2.255S21.54,6.35,20.732,6.35z"/>
	<path d="M24.78,11.491c-1.615,0-1.927-1.719-1.927-2.886c0-1.167,0.312-2.887,1.927-2.887c1.615,0,1.927,1.719,1.927,2.887
		C26.707,9.772,26.395,11.491,24.78,11.491z M24.78,6.35c-0.808,0-1.175,0.848-1.175,2.255s0.368,2.255,1.175,2.255
		s1.175-0.848,1.175-2.255S25.588,6.35,24.78,6.35z"/>
	<path d="M28.828,11.491c-1.615,0-1.927-1.719-1.927-2.886c0-1.167,0.312-2.887,1.927-2.887c1.615,0,1.927,1.719,1.927,2.887
		C30.755,9.772,30.443,11.491,28.828,11.491z M28.828,6.35c-0.808,0-1.175,0.848-1.175,2.255s0.368,2.255,1.175,2.255
		s1.175-0.848,1.175-2.255S29.636,6.35,28.828,6.35z"/>
</g>
<g>
	<path d="M17.319,45.283h4.662v0.688h-1.943v5.053h-0.776v-5.053h-1.943V45.283z"/>
	<path d="M24.318,51.176c-1.615,0-1.927-1.719-1.927-2.886c0-1.167,0.312-2.887,1.927-2.887s1.927,1.719,1.927,2.887
		C26.245,49.457,25.933,51.176,24.318,51.176z M24.318,46.035c-0.808,0-1.175,0.848-1.175,2.255s0.368,2.255,1.175,2.255
		s1.175-0.848,1.175-2.255S25.125,46.035,24.318,46.035z"/>
</g>
<g>
	<path d="M246.717,9.312h-0.527l0.231-1.679h-0.999l-0.231,1.679h-0.528l0.232-1.679h-0.824l0.072-0.503h0.823l0.152-1.136h-0.824
		l0.072-0.503h0.824l0.231-1.679h0.536l-0.232,1.679h0.991l0.232-1.679h0.535l-0.231,1.679h0.823l-0.071,0.503h-0.824l-0.16,1.136
		h0.824l-0.072,0.503h-0.823L246.717,9.312z M245.654,5.993l-0.159,1.136h0.999l0.152-1.136H245.654z"/>
	<path d="M248.591,3.811h3.886v0.616c-0.56,0.583-1.903,2.375-2.311,4.885h-0.775c0.191-1.543,1.215-3.558,2.294-4.813h-3.094V3.811
		z"/>
</g>
<g>
	<path d="M241.033,51.024h-0.776v-5.741h2.655c0.943,0,1.887,0.328,1.887,1.543c0,0.848-0.432,1.16-0.8,1.375
		c0.328,0.136,0.656,0.28,0.688,1.079l0.049,1.04c0.008,0.32,0.048,0.44,0.287,0.576v0.128h-0.951
		c-0.112-0.352-0.136-1.223-0.136-1.439c0-0.472-0.097-1.023-1.023-1.023h-1.879V51.024z M241.033,47.897h1.799
		c0.567,0,1.167-0.144,1.167-0.991c0-0.888-0.647-0.959-1.031-0.959h-1.935V47.897z"/>
	<path d="M246.106,47.754c0.239-0.184,0.583-0.352,1.087-0.352c0.911,0,1.847,0.64,1.847,1.799c0,0.624-0.279,1.975-2.038,1.975
		c-0.736,0-1.68-0.296-1.815-1.551h0.728c0.072,0.656,0.56,0.944,1.191,0.944c0.728,0,1.184-0.584,1.184-1.288
		c0-0.808-0.552-1.247-1.248-1.247c-0.407,0-0.775,0.192-1.039,0.536l-0.607-0.032l0.424-3.014h2.91v0.688h-2.383L246.106,47.754z"
		/>
	<path d="M251.2,51.176c-1.615,0-1.927-1.719-1.927-2.886c0-1.167,0.312-2.887,1.927-2.887s1.927,1.719,1.927,2.887
		C253.127,49.457,252.816,51.176,251.2,51.176z M251.2,46.035c-0.808,0-1.175,0.848-1.175,2.255s0.367,2.255,1.175,2.255
		s1.176-0.848,1.176-2.255S252.008,46.035,251.2,46.035z"/>
	<path d="M255.248,51.176c-1.615,0-1.927-1.719-1.927-2.886c0-1.167,0.312-2.887,1.927-2.887c1.615,0,1.927,1.719,1.927,2.887
		C257.175,49.457,256.864,51.176,255.248,51.176z M255.248,46.035c-0.808,0-1.175,0.848-1.175,2.255s0.367,2.255,1.175,2.255
		c0.808,0,1.176-0.848,1.176-2.255S256.056,46.035,255.248,46.035z"/>
</g>
<g>
	<path d="M250.493,21.186c-1.455,0-1.735-1.719-1.735-2.886c0-1.167,0.28-2.887,1.735-2.887s1.736,1.719,1.736,2.887
		C252.23,19.466,251.949,21.186,250.493,21.186z M250.493,16.044c-0.728,0-1.059,0.848-1.059,2.255s0.331,2.255,1.059,2.255
		s1.059-0.848,1.059-2.255S251.221,16.044,250.493,16.044z"/>
</g>
<g>
	<path d="M243.25,11.28h4.084v0.603h-1.702v4.426h-0.68v-4.426h-1.702V11.28z"/>
</g>
<g>
	<path d="M246.521,20.273c-0.034-0.777-0.679-1.022-1.246-1.022c-0.428,0-1.148,0.119-1.148,0.882c0,0.427,0.301,0.567,0.595,0.638
		l1.437,0.329c0.651,0.154,1.142,0.546,1.142,1.345c0,1.19-1.107,1.52-1.969,1.52c-0.932,0-1.296-0.28-1.52-0.483
		c-0.428-0.385-0.512-0.806-0.512-1.275h0.638c0,0.911,0.742,1.177,1.387,1.177c0.49,0,1.316-0.126,1.316-0.848
		c0-0.525-0.245-0.693-1.071-0.889l-1.029-0.238c-0.329-0.077-1.071-0.308-1.071-1.184c0-0.785,0.511-1.555,1.729-1.555
		c1.758,0,1.933,1.05,1.961,1.604H246.521z"/>
</g>
</svg>
