<?xml version="1.0" encoding="utf-8"?>
<!-- Generator: Adobe Illustrator 28.2.0, SVG Export Plug-In . SVG Version: 6.00 Build 0)  -->
<svg version="1.1" id="儗僀儎乕_1" xmlns="http://www.w3.org/2000/svg" xmlns:xlink="http://www.w3.org/1999/xlink" x="0px"
	 y="0px" width="273.835px" height="79.724px" viewBox="0 0 273.835 79.724" style="enable-background:new 0 0 273.835 79.724;"
	 xml:space="preserve">
<style type="text/css">
	.st0{fill:none;stroke:#000000;}
	.st1{fill:#FFFFFF;}
	.st2{fill:#FFFFFF;stroke:#000000;}
</style>
<line class="st0" x1="0.5" y1="17.716" x2="273.335" y2="17.716"/>
<line class="st0" x1="0.5" y1="0" x2="0.5" y2="79.724"/>
<line class="st0" x1="273.335" y1="0" x2="273.335" y2="79.724"/>
<g>
	<rect x="18.217" y="14.174" class="st1" width="7.087" height="7.087"/>
	<line class="st0" x1="25.304" y1="14.174" x2="25.304" y2="21.261"/>
	<line class="st0" x1="18.217" y1="21.261" x2="18.217" y2="14.174"/>
</g>
<line class="st0" x1="0.5" y1="60.236" x2="273.335" y2="60.236"/>
<g>
	<rect x="18.217" y="56.693" class="st1" width="7.087" height="7.087"/>
	<line class="st0" x1="25.304" y1="56.693" x2="25.304" y2="63.78"/>
	<line class="st0" x1="18.217" y1="63.78" x2="18.217" y2="56.693"/>
</g>
<path class="st2" d="M252.075,60.234c0,1.958-1.587,3.545-3.545,3.545c-1.956,0-3.542-1.587-3.542-3.545
	c0-1.956,1.587-3.541,3.542-3.541C250.488,56.693,252.075,58.279,252.075,60.234z"/>
<g>
	<rect x="230.815" y="14.173" class="st1" width="35.432" height="7.087"/>
	<line class="st0" x1="266.247" y1="14.173" x2="266.247" y2="21.26"/>
	<line class="st0" x1="230.815" y1="21.26" x2="230.815" y2="14.173"/>
</g>
<g>
	<path d="M14.325,11.339H13.55V5.598h2.654c0.944,0,1.887,0.328,1.887,1.543c0,0.848-0.432,1.159-0.799,1.375
		c0.328,0.136,0.655,0.28,0.688,1.079l0.048,1.04c0.008,0.32,0.048,0.44,0.288,0.576v0.128h-0.952
		c-0.112-0.352-0.136-1.223-0.136-1.439c0-0.472-0.096-1.023-1.023-1.023h-1.879V11.339z M14.325,8.213h1.799
		c0.567,0,1.167-0.144,1.167-0.991c0-0.888-0.648-0.959-1.032-0.959h-1.935V8.213z"/>
	<path d="M20.445,11.491c-1.615,0-1.927-1.719-1.927-2.886s0.312-2.887,1.927-2.887c1.615,0,1.927,1.719,1.927,2.887
		S22.06,11.491,20.445,11.491z M20.445,6.35c-0.808,0-1.175,0.848-1.175,2.255s0.368,2.254,1.175,2.254s1.175-0.847,1.175-2.254
		S21.253,6.35,20.445,6.35z"/>
	<path d="M24.493,11.491c-1.615,0-1.927-1.719-1.927-2.886s0.312-2.887,1.927-2.887c1.615,0,1.927,1.719,1.927,2.887
		S26.108,11.491,24.493,11.491z M24.493,6.35c-0.808,0-1.175,0.848-1.175,2.255s0.368,2.254,1.175,2.254s1.175-0.847,1.175-2.254
		S25.301,6.35,24.493,6.35z"/>
	<path d="M28.541,11.491c-1.615,0-1.927-1.719-1.927-2.886s0.312-2.887,1.927-2.887c1.615,0,1.927,1.719,1.927,2.887
		S30.156,11.491,28.541,11.491z M28.541,6.35c-0.808,0-1.175,0.848-1.175,2.255s0.368,2.254,1.175,2.254s1.175-0.847,1.175-2.254
		S29.348,6.35,28.541,6.35z"/>
</g>
<g>
	<path d="M17.591,48.117h4.662v0.688h-1.943v5.054h-0.776v-5.054h-1.943V48.117z"/>
	<path d="M24.589,54.01c-1.615,0-1.927-1.72-1.927-2.887s0.312-2.887,1.927-2.887s1.927,1.72,1.927,2.887S26.204,54.01,24.589,54.01
		z M24.589,48.869c-0.808,0-1.175,0.848-1.175,2.255s0.368,2.255,1.175,2.255s1.175-0.848,1.175-2.255S25.397,48.869,24.589,48.869z
		"/>
</g>
<g>
	<path d="M244.429,11.338h-0.527l0.231-1.679h-0.999l-0.232,1.679h-0.527l0.232-1.679h-0.824l0.072-0.503h0.823l0.152-1.136h-0.823
		l0.071-0.503h0.823l0.232-1.679h0.535l-0.231,1.679h0.991l0.232-1.679h0.535l-0.231,1.679h0.823l-0.072,0.503h-0.823l-0.16,1.136
		h0.824l-0.072,0.503h-0.823L244.429,11.338z M243.365,8.02l-0.159,1.136h0.999l0.152-1.136H243.365z"/>
	<path d="M247.798,8.14c0.12,0.008,0.248,0.016,0.368,0.016c0.543,0,1.071-0.216,1.071-0.919c0-0.336-0.2-0.888-1.04-0.888
		c-0.999,0-1.063,0.815-1.095,1.208h-0.688c0-0.824,0.335-1.839,1.814-1.839c1.088,0,1.735,0.624,1.735,1.479
		c0,0.719-0.416,1.063-0.72,1.159v0.016c0.544,0.176,0.936,0.56,0.936,1.311c0,0.919-0.592,1.807-2.023,1.807
		c-0.415,0-0.768-0.104-1.039-0.248c-0.624-0.328-0.791-0.975-0.84-1.623h0.728c0.024,0.528,0.152,1.239,1.2,1.239
		c0.719,0,1.223-0.439,1.223-1.087c0-0.944-0.831-1.032-1.311-1.032c-0.104,0-0.217,0.008-0.32,0.008V8.14z"/>
	<path d="M252.677,11.49c-1.615,0-1.927-1.719-1.927-2.886s0.312-2.887,1.927-2.887s1.927,1.719,1.927,2.887
		S254.292,11.49,252.677,11.49z M252.677,6.349c-0.808,0-1.175,0.848-1.175,2.255s0.367,2.254,1.175,2.254s1.176-0.847,1.176-2.254
		S253.485,6.349,252.677,6.349z"/>
</g>
<g>
	<path d="M240.97,53.858h-0.775v-5.741h2.654c0.943,0,1.887,0.328,1.887,1.544c0,0.847-0.432,1.159-0.8,1.375
		c0.328,0.136,0.656,0.279,0.688,1.079l0.048,1.039c0.009,0.32,0.049,0.44,0.288,0.576v0.128h-0.951
		c-0.112-0.352-0.136-1.224-0.136-1.439c0-0.472-0.096-1.023-1.023-1.023h-1.879V53.858z M240.97,50.732h1.799
		c0.567,0,1.167-0.145,1.167-0.992c0-0.887-0.647-0.959-1.031-0.959h-1.935V50.732z"/>
	<path d="M246.042,50.588c0.239-0.184,0.583-0.352,1.087-0.352c0.911,0,1.847,0.64,1.847,1.799c0,0.624-0.279,1.976-2.038,1.976
		c-0.736,0-1.68-0.296-1.815-1.552h0.728c0.072,0.656,0.56,0.943,1.191,0.943c0.728,0,1.184-0.583,1.184-1.287
		c0-0.808-0.552-1.247-1.247-1.247c-0.408,0-0.776,0.191-1.04,0.535l-0.607-0.031l0.424-3.015h2.91v0.688h-2.383L246.042,50.588z"/>
	<path d="M251.137,54.01c-1.615,0-1.927-1.72-1.927-2.887s0.312-2.887,1.927-2.887s1.927,1.72,1.927,2.887
		S252.752,54.01,251.137,54.01z M251.137,48.869c-0.808,0-1.175,0.848-1.175,2.255s0.367,2.255,1.175,2.255s1.176-0.848,1.176-2.255
		S251.945,48.869,251.137,48.869z"/>
	<path d="M255.185,54.01c-1.615,0-1.927-1.72-1.927-2.887s0.312-2.887,1.927-2.887c1.615,0,1.927,1.72,1.927,2.887
		S256.8,54.01,255.185,54.01z M255.185,48.869c-0.808,0-1.175,0.848-1.175,2.255s0.367,2.255,1.175,2.255s1.176-0.848,1.176-2.255
		S255.992,48.869,255.185,48.869z"/>
</g>
<g>
	<path d="M243.898,15.159h4.661v0.688h-1.943V20.9h-0.775v-5.053h-1.942V15.159z"/>
	<path d="M250.675,21.051c-1.455,0-1.735-1.719-1.735-2.886s0.28-2.887,1.735-2.887s1.736,1.719,1.736,2.887
		S252.13,21.051,250.675,21.051z M250.675,15.91c-0.728,0-1.059,0.848-1.059,2.255s0.331,2.254,1.059,2.254s1.059-0.847,1.059-2.254
		S251.403,15.91,250.675,15.91z"/>
</g>
</svg>
