<?xml version="1.0" encoding="utf-8"?>
<!-- Generator: Adobe Illustrator 28.2.0, SVG Export Plug-In . SVG Version: 6.00 Build 0)  -->
<svg version="1.1" xmlns="http://www.w3.org/2000/svg" xmlns:xlink="http://www.w3.org/1999/xlink" x="0px" y="0px"
	 width="26.306px" height="13.609px" viewBox="0 0 26.306 13.609" style="enable-background:new 0 0 26.306 13.609;"
	 xml:space="preserve">
<style type="text/css">
	.st0{fill:none;stroke:#000000;}
	.st1{fill:#FFFFFF;}
	.st2{fill:#231815;}
</style>
<g id="レイヤー_1">
</g>
<g id="儗僀儎乕_1">
	<line class="st0" x1="0" y1="10.354" x2="26.306" y2="10.354"/>
	<g>
		<rect x="4.535" y="6.915" class="st1" width="17.236" height="6.442"/>
		<line class="st0" x1="21.771" y1="6.915" x2="21.771" y2="13.358"/>
		<line class="st0" x1="4.535" y1="13.358" x2="4.535" y2="6.915"/>
	</g>
	<g>
		<path class="st2" d="M8.975,4.648h-0.37l0.162-1.176H8.067L7.904,4.648H7.535l0.162-1.176H7.121l0.05-0.353h0.577l0.106-0.795
			H7.277l0.051-0.353h0.576l0.163-1.176h0.375L8.28,1.971h0.694l0.162-1.176h0.375L9.35,1.971h0.576l-0.05,0.353H9.299L9.187,3.119
			h0.576l-0.05,0.353H9.137L8.975,4.648z M8.229,2.324L8.117,3.119h0.7l0.106-0.795H8.229z"/>
		<path class="st2" d="M12.088,4.648h-0.526V1.854h-0.919V1.461c0.639-0.044,0.901-0.106,1.059-0.75h0.387V4.648z"/>
		<path class="st2" d="M14.439,4.754c-1.131,0-1.35-1.204-1.35-2.021c0-0.818,0.219-2.022,1.35-2.022c1.132,0,1.35,1.204,1.35,2.022
			C15.789,3.55,15.571,4.754,14.439,4.754z M14.439,1.154c-0.565,0-0.823,0.593-0.823,1.579c0,0.985,0.258,1.579,0.823,1.579
			s0.823-0.594,0.823-1.579C15.263,1.747,15.005,1.154,14.439,1.154z"/>
		<path class="st2" d="M17.554,4.754c-1.131,0-1.35-1.204-1.35-2.021c0-0.818,0.219-2.022,1.35-2.022s1.35,1.204,1.35,2.022
			C18.903,3.55,18.684,4.754,17.554,4.754z M17.554,1.154c-0.565,0-0.823,0.593-0.823,1.579c0,0.985,0.258,1.579,0.823,1.579
			s0.823-0.594,0.823-1.579C18.377,1.747,18.119,1.154,17.554,1.154z"/>
	</g>
	<g>
		<path class="st2" d="M9.848,8.328h3.265V8.81h-1.36v3.539h-0.543V8.81H9.848V8.328z"/>
		<path class="st2" d="M14.748,12.456c-1.131,0-1.35-1.204-1.35-2.021c0-0.818,0.219-2.022,1.35-2.022
			c1.132,0,1.35,1.204,1.35,2.022C16.098,11.251,15.88,12.456,14.748,12.456z M14.748,8.855c-0.565,0-0.823,0.593-0.823,1.579
			c0,0.985,0.258,1.579,0.823,1.579s0.823-0.594,0.823-1.579C15.571,9.448,15.313,8.855,14.748,8.855z"/>
	</g>
	<g>
	</g>
	<g>
	</g>
	<g>
	</g>
	<g>
	</g>
	<g>
	</g>
	<g>
	</g>
	<g>
	</g>
	<g>
	</g>
	<g>
	</g>
	<g>
	</g>
	<g>
	</g>
	<g>
	</g>
	<g>
	</g>
	<g>
	</g>
	<g>
	</g>
</g>
</svg>
