<?xml version="1.0" encoding="utf-8"?>
<!-- Generator: Adobe Illustrator 28.2.0, SVG Export Plug-In . SVG Version: 6.00 Build 0)  -->
<svg version="1.1" xmlns="http://www.w3.org/2000/svg" xmlns:xlink="http://www.w3.org/1999/xlink" x="0px" y="0px"
	 width="307.939px" height="71.36px" viewBox="0 0 307.939 71.36" style="enable-background:new 0 0 307.939 71.36;"
	 xml:space="preserve">
<style type="text/css">
	.st0{fill:none;stroke:#000000;}
	.st1{fill:#FFFFFF;}
	.st2{fill:#FFFFFF;stroke:#000000;}
</style>
<g id="儗僀儎乕_1">
	<g>
		<line class="st0" x1="0.5" y1="48.6" x2="307.439" y2="48.6"/>
		<g>
			<rect x="20.431" y="44.613" class="st1" width="7.973" height="7.972"/>
			<line class="st0" x1="28.404" y1="44.613" x2="28.404" y2="52.585"/>
			<line class="st0" x1="20.431" y1="52.585" x2="20.431" y2="44.613"/>
		</g>
		<rect x="211.055" y="38.634" class="st2" width="88.411" height="19.93"/>
		<line class="st2" x1="255.638" y1="58.564" x2="255.638" y2="38.634"/>
		<rect x="221.242" y="32.295" class="st1" width="27.232" height="11.078"/>
		<g>
			<path d="M227.666,41.523v-3.39c0-0.168,0.016-0.896,0.016-1.431h-0.016l-1.615,4.821h-0.768l-1.615-4.813h-0.016
				c0,0.528,0.016,1.255,0.016,1.423v3.39h-0.751v-5.741h1.111l1.639,4.853h0.017l1.631-4.853h1.104v5.741H227.666z"/>
			<path d="M232.108,41.675c-2.143,0-2.799-1.783-2.799-3.022s0.656-3.022,2.799-3.022s2.799,1.783,2.799,3.022
				S234.25,41.675,232.108,41.675z M232.108,36.318c-1.247,0-1.999,0.983-1.999,2.334c0,1.352,0.752,2.335,1.999,2.335
				s1.999-0.983,1.999-2.335C234.107,37.302,233.355,36.318,232.108,36.318z"/>
			<path d="M239.124,35.783h0.871l-2.095,5.741h-0.823l-2.095-5.741h0.863l1.639,4.893h0.017L239.124,35.783z"/>
			<path d="M240.685,41.523h-0.832v-0.848h0.832V41.523z"/>
			<path d="M242.029,35.783h2.327c1.495,0,2.414,1.135,2.414,2.791c0,1.287-0.56,2.95-2.446,2.95h-2.295V35.783z M242.804,40.86
				h1.504c1.007,0,1.663-0.792,1.663-2.239s-0.664-2.175-1.72-2.175h-1.447V40.86z"/>
		</g>
		<g>
			<path d="M224.521,46.544h2.327c1.495,0,2.414,1.135,2.414,2.791c0,1.287-0.56,2.95-2.446,2.95h-2.295V46.544z M225.296,51.621
				h1.504c1.007,0,1.663-0.792,1.663-2.239s-0.664-2.175-1.72-2.175h-1.447V51.621z"/>
			<path d="M234.982,52.285v-3.39c0-0.168,0.016-0.896,0.016-1.431h-0.016l-1.615,4.821h-0.768l-1.615-4.813h-0.016
				c0,0.528,0.016,1.255,0.016,1.423v3.39h-0.751v-5.741h1.111l1.639,4.853h0.017l1.631-4.853h1.104v5.741H234.982z"/>
			<path d="M239.183,52.285h-0.751v-3.99h-1.312v-0.56c0.911-0.064,1.287-0.152,1.511-1.072h0.552V52.285z"/>
			<path d="M242.544,52.437c-1.615,0-1.927-1.719-1.927-2.886s0.312-2.887,1.927-2.887s1.927,1.719,1.927,2.887
				S244.16,52.437,242.544,52.437z M242.544,47.295c-0.808,0-1.175,0.848-1.175,2.255s0.367,2.254,1.175,2.254
				s1.176-0.847,1.176-2.254S243.352,47.295,242.544,47.295z"/>
		</g>
		<g>
			<path d="M269.727,46.544h2.327c1.495,0,2.414,1.135,2.414,2.791c0,1.287-0.56,2.95-2.446,2.95h-2.295V46.544z M270.502,51.621
				h1.504c1.007,0,1.663-0.792,1.663-2.239s-0.664-2.175-1.72-2.175h-1.447V51.621z"/>
			<path d="M280.189,52.285v-3.39c0-0.168,0.016-0.896,0.016-1.431h-0.016l-1.615,4.821h-0.768l-1.615-4.813h-0.016
				c0,0.528,0.016,1.255,0.016,1.423v3.39h-0.751v-5.741h1.111l1.639,4.853h0.017l1.631-4.853h1.104v5.741H280.189z"/>
			<path d="M283.742,52.437c-1.615,0-1.927-1.719-1.927-2.886s0.312-2.887,1.927-2.887s1.927,1.719,1.927,2.887
				S285.357,52.437,283.742,52.437z M283.742,47.295c-0.808,0-1.175,0.848-1.175,2.255s0.367,2.254,1.175,2.254
				s1.176-0.847,1.176-2.254S284.549,47.295,283.742,47.295z"/>
		</g>
		<line class="st0" x1="0.5" y1="18.845" x2="307.439" y2="18.845"/>
		<g>
			<rect x="259.314" y="14.59" class="st1" width="39.86" height="7.973"/>
			<line class="st0" x1="299.175" y1="14.59" x2="299.175" y2="22.562"/>
			<line class="st0" x1="259.314" y1="22.562" x2="259.314" y2="14.59"/>
		</g>
		<g>
			<path d="M270.891,6.014h2.327c1.495,0,2.414,1.135,2.414,2.791c0,1.287-0.56,2.95-2.446,2.95h-2.295V6.014z M271.666,11.091
				h1.504c1.007,0,1.663-0.792,1.663-2.239s-0.664-2.175-1.72-2.175h-1.447V11.091z"/>
			<path d="M281.353,11.755v-3.39c0-0.168,0.016-0.896,0.016-1.431h-0.016l-1.615,4.821h-0.768l-1.615-4.813h-0.016
				c0,0.528,0.016,1.255,0.016,1.423v3.39h-0.751V6.014h1.111l1.639,4.853h0.017l1.631-4.853h1.104v5.741H281.353z"/>
			<path d="M284.906,11.907c-1.615,0-1.927-1.719-1.927-2.886s0.312-2.887,1.927-2.887s1.927,1.719,1.927,2.887
				S286.521,11.907,284.906,11.907z M284.906,6.766c-0.808,0-1.175,0.848-1.175,2.255s0.367,2.254,1.175,2.254
				s1.176-0.847,1.176-2.254S285.713,6.766,284.906,6.766z"/>
		</g>
		<g>
			<path d="M274.132,16.418h4.661v0.688h-1.943v5.053h-0.775v-5.053h-1.942V16.418z"/>
			<path d="M281.13,22.31c-1.615,0-1.927-1.719-1.927-2.886s0.312-2.887,1.927-2.887s1.927,1.719,1.927,2.887
				S282.746,22.31,281.13,22.31z M281.13,17.169c-0.808,0-1.175,0.848-1.175,2.255s0.367,2.254,1.175,2.254s1.176-0.847,1.176-2.254
				S281.938,17.169,281.13,17.169z"/>
		</g>
		<g>
			<rect x="20.43" y="14.858" class="st1" width="7.973" height="7.973"/>
			<line class="st0" x1="28.404" y1="14.858" x2="28.404" y2="22.832"/>
			<line class="st0" x1="20.43" y1="22.832" x2="20.43" y2="14.858"/>
		</g>
		<line class="st0" x1="0.5" y1="0" x2="0.5" y2="71.36"/>
		<line class="st0" x1="307.439" y1="0" x2="307.439" y2="71.36"/>
		<g>
		</g>
	</g>
</g>
<g id="儗僀儎乕_2">
</g>
</svg>
