<?xml version="1.0" encoding="utf-8"?>
<!-- Generator: Adobe Illustrator 28.2.0, SVG Export Plug-In . SVG Version: 6.00 Build 0)  -->
<svg version="1.1" id="儗僀儎乕_1" xmlns="http://www.w3.org/2000/svg" xmlns:xlink="http://www.w3.org/1999/xlink" x="0px"
	 y="0px" width="307.938px" height="37.467px" viewBox="0 0 307.938 37.467" style="enable-background:new 0 0 307.938 37.467;"
	 xml:space="preserve">
<style type="text/css">
	.st0{fill:none;stroke:#000000;}
	.st1{fill:#FFFFFF;}
	.st2{fill:#FFFFFF;stroke:#000000;}
</style>
<g>
	<line class="st0" x1="0.5" y1="17.538" x2="307.438" y2="17.538"/>
	<line class="st0" x1="0.5" y1="0" x2="0.5" y2="37.467"/>
	<line class="st0" x1="307.438" y1="0" x2="307.438" y2="37.467"/>
	<g>
		<rect x="20.431" y="13.552" class="st1" width="7.973" height="7.971"/>
		<line class="st0" x1="28.404" y1="13.552" x2="28.404" y2="21.523"/>
		<line class="st0" x1="20.431" y1="21.523" x2="20.431" y2="13.552"/>
	</g>
	<rect x="219.741" y="7.573" class="st2" width="79.726" height="19.93"/>
	<line class="st2" x1="259.605" y1="27.503" x2="259.605" y2="7.573"/>
	<rect x="225.894" y="4.402" class="st1" width="27.232" height="6.673"/>
	<g>
		<path d="M232.318,10.462v-3.39c0-0.168,0.016-0.896,0.016-1.431h-0.016l-1.615,4.821h-0.768l-1.615-4.813h-0.016
			c0,0.528,0.016,1.255,0.016,1.423v3.39h-0.751V4.722h1.111l1.639,4.853h0.017l1.631-4.853h1.104v5.741H232.318z"/>
		<path d="M236.76,10.614c-2.143,0-2.799-1.783-2.799-3.022c0-1.239,0.656-3.022,2.799-3.022s2.799,1.783,2.799,3.022
			C239.558,8.831,238.902,10.614,236.76,10.614z M236.76,5.257c-1.247,0-1.999,0.983-1.999,2.334c0,1.352,0.752,2.335,1.999,2.335
			s1.999-0.983,1.999-2.335C238.759,6.241,238.007,5.257,236.76,5.257z"/>
		<path d="M243.775,4.722h0.871l-2.095,5.741h-0.823l-2.095-5.741h0.863l1.639,4.893h0.017L243.775,4.722z"/>
		<path d="M245.337,10.462h-0.832V9.615h0.832V10.462z"/>
		<path d="M246.681,4.722h2.327c1.495,0,2.414,1.135,2.414,2.791c0,1.287-0.56,2.95-2.446,2.95h-2.295V4.722z M247.456,9.799h1.504
			c1.007,0,1.663-0.792,1.663-2.239s-0.664-2.175-1.72-2.175h-1.447V9.799z"/>
	</g>
	<g>
		<path d="M234.724,14.066h4.661v0.688h-1.943v5.053h-0.775v-5.053h-1.942V14.066z"/>
		<path d="M241.723,19.959c-1.615,0-1.927-1.72-1.927-2.887c0-1.167,0.312-2.887,1.927-2.887s1.927,1.719,1.927,2.887
			C243.649,18.239,243.338,19.959,241.723,19.959z M241.723,14.817c-0.808,0-1.175,0.848-1.175,2.255s0.367,2.255,1.175,2.255
			s1.176-0.848,1.176-2.255S242.53,14.817,241.723,14.817z"/>
	</g>
	<g>
		<path d="M271.214,14.066h2.327c1.495,0,2.414,1.135,2.414,2.791c0,1.287-0.56,2.95-2.446,2.95h-2.295V14.066z M271.989,19.142
			h1.504c1.007,0,1.663-0.791,1.663-2.238s-0.664-2.175-1.72-2.175h-1.447V19.142z"/>
		<path d="M281.676,19.807v-3.39c0-0.168,0.016-0.896,0.016-1.431h-0.016l-1.615,4.821h-0.768l-1.615-4.813h-0.016
			c0,0.528,0.016,1.255,0.016,1.423v3.39h-0.751v-5.741h1.111l1.639,4.853h0.017l1.631-4.853h1.104v5.741H281.676z"/>
		<path d="M285.228,19.959c-1.615,0-1.927-1.72-1.927-2.887c0-1.167,0.312-2.887,1.927-2.887s1.927,1.719,1.927,2.887
			C287.155,18.239,286.844,19.959,285.228,19.959z M285.228,14.817c-0.808,0-1.175,0.848-1.175,2.255s0.367,2.255,1.175,2.255
			s1.176-0.848,1.176-2.255S286.036,14.817,285.228,14.817z"/>
	</g>
</g>
</svg>
