<?xml version="1.0" encoding="utf-8"?>
<!-- Generator: Adobe Illustrator 28.2.0, SVG Export Plug-In . SVG Version: 6.00 Build 0)  -->
<svg version="1.1" xmlns="http://www.w3.org/2000/svg" xmlns:xlink="http://www.w3.org/1999/xlink" x="0px" y="0px"
	 width="337.323px" height="184.428px" viewBox="0 0 337.323 184.428" style="enable-background:new 0 0 337.323 184.428;"
	 xml:space="preserve">
<style type="text/css">
	.st0{fill:none;stroke:#666666;stroke-width:0.5;stroke-miterlimit:10;stroke-dasharray:1;}
	.st1{fill:none;stroke:#000000;stroke-width:0.5;stroke-miterlimit:10;}
	.st2{fill:#3574F2;}
</style>
<g id="レイヤー_1">
	<g>
		<line class="st0" x1="89.292" y1="10.806" x2="89.292" y2="184.428"/>
		<line class="st0" x1="117.638" y1="10.806" x2="117.638" y2="184.428"/>
		<line class="st0" x1="153.071" y1="10.806" x2="153.071" y2="184.428"/>
		<line class="st0" x1="231.024" y1="10.806" x2="231.024" y2="184.428"/>
		<line class="st0" x1="60.945" y1="134.821" x2="337.323" y2="134.821"/>
	</g>
	<g>
		<polyline class="st1" points="337.323,63.955 245.197,63.955 245.197,21.435 238.11,21.435 238.11,63.955 231.024,63.955 
			231.024,21.435 223.937,21.435 223.937,63.955 153.071,63.955 153.071,21.435 89.291,21.435 89.291,63.955 60.945,63.955 		"/>
		<polyline class="st1" points="337.323,177.341 252.283,177.341 252.283,134.821 223.937,177.341 153.071,177.341 153.071,134.822 
			117.638,134.822 89.291,177.341 60.945,177.341 		"/>
	</g>
	<polyline class="st1" points="337.323,120.473 252.283,120.473 252.283,77.953 223.937,77.953 223.937,120.648 117.638,120.648 
		117.638,78.128 89.291,78.128 89.291,120.648 60.945,120.648 	"/>
</g>
<g id="レイヤー_2">
	<g>
		<path d="M26.351,46.239v-5.757h0.544v5.757H26.351z"/>
		<path d="M28.792,46.239h-0.48v-4.142h0.48v0.576c0.384-0.408,0.759-0.688,1.335-0.688c0.504,0,0.968,0.16,1.263,0.592
			c0.2,0.296,0.208,0.608,0.208,0.952v2.71h-0.479v-2.703c0-0.744-0.304-1.119-1.072-1.119c-0.591,0-0.999,0.384-1.151,0.808
			c-0.096,0.264-0.104,0.496-0.104,0.783V46.239z"/>
	</g>
	<g>
		<path d="M31.164,102.979l-0.304,0.368l-0.848-0.655c-0.392,0.248-0.872,0.392-1.439,0.392c-1.775,0-2.679-1.367-2.679-3.022
			c0-1.599,0.863-3.038,2.654-3.038c1.615,0,2.711,1.079,2.711,3.038c0,0.928-0.288,1.767-0.864,2.327L31.164,102.979z
			 M29.997,102.076c0.488-0.464,0.72-1.215,0.72-2.015c0-1.719-0.919-2.574-2.151-2.574c-1.479,0-2.126,1.247-2.126,2.574
			c0,1.367,0.64,2.559,2.143,2.559c0.4,0,0.735-0.096,1.007-0.256l-0.656-0.503l0.288-0.376L29.997,102.076z"/>
	</g>
	<g>
		<path d="M26.135,138.365v-5.757h2.103c1.495,0,1.879,0.744,1.879,1.607c0,1.288-1.144,1.607-2.207,1.607h-1.231v2.542H26.135z
			 M27.926,135.359c1.016,0,1.647-0.208,1.647-1.184c0-0.719-0.463-1.103-1.487-1.103h-1.407v2.287H27.926z"/>
		<path d="M30.527,132.608h4.189v0.464h-1.823v5.293H32.35v-5.293h-1.823V132.608z"/>
	</g>
	<g>
		<path d="M26.159,159.624v-5.757h3.83v0.464h-3.286v2.079h2.966v0.464h-2.966v2.287h3.366v0.464H26.159z"/>
		<path d="M30.527,153.867h4.189v0.464h-1.823v5.293H32.35v-5.293h-1.823V153.867z"/>
	</g>
	<g>
		<path class="st2" d="M86.618,1.354c-0.76,1.104-1.224,2.398-1.224,3.742c0,1.328,0.488,2.599,1.224,3.694H86.21
			c-0.879-1.215-1.367-2.215-1.367-3.734c0-1.463,0.503-2.551,1.367-3.702H86.618z"/>
		<path class="st2" d="M89.482,3.073h-1.455V2.737c0.855-0.056,1.391-0.144,1.559-1.111h0.408v5.637h-0.512V3.073z"/>
		<path class="st2" d="M91.963,8.79c0.76-1.104,1.223-2.399,1.223-3.742c0-1.327-0.487-2.599-1.223-3.694h0.408
			c0.879,1.215,1.367,2.215,1.367,3.734c0,1.463-0.503,2.551-1.367,3.702H91.963z"/>
	</g>
	<g>
		<path class="st2" d="M114.965,1.354c-0.76,1.104-1.224,2.398-1.224,3.742c0,1.328,0.488,2.599,1.224,3.694h-0.408
			c-0.879-1.215-1.367-2.215-1.367-3.734c0-1.463,0.503-2.551,1.367-3.702H114.965z"/>
		<path class="st2" d="M115.966,3.473c0-1.111,0.72-1.847,1.831-1.847c1.135,0,1.735,0.695,1.735,1.559
			c0,1.495-1.615,1.871-2.455,2.511c-0.368,0.28-0.711,0.6-0.735,1.135h3.142v0.432h-3.686c0.008-0.536,0.08-0.959,0.44-1.375
			c1.175-1.359,2.734-1.343,2.734-2.67c0-0.735-0.544-1.159-1.239-1.159c-0.736,0-1.255,0.656-1.224,1.415H115.966z"/>
		<path class="st2" d="M120.31,8.79c0.76-1.104,1.223-2.399,1.223-3.742c0-1.327-0.487-2.599-1.223-3.694h0.408
			c0.879,1.215,1.367,2.215,1.367,3.734c0,1.463-0.503,2.551-1.367,3.702H120.31z"/>
	</g>
	<g>
		<path class="st2" d="M150.397,1.354c-0.76,1.104-1.224,2.398-1.224,3.742c0,1.328,0.488,2.599,1.224,3.694h-0.408
			c-0.879-1.215-1.367-2.215-1.367-3.734c0-1.463,0.503-2.551,1.367-3.702H150.397z"/>
		<path class="st2" d="M152.614,4.128c0.952,0.008,1.615-0.216,1.615-1.08c0-0.695-0.552-0.991-1.2-0.991
			c-0.719,0-1.207,0.503-1.207,1.208h-0.512c0-0.504,0.168-0.912,0.543-1.264c0.352-0.32,0.816-0.375,1.279-0.375
			c0.888,0,1.607,0.448,1.607,1.391c0,0.583-0.256,1.023-0.8,1.255c0.815,0.256,1,0.872,1,1.391c0,0.928-0.656,1.679-1.815,1.711
			c-1.303,0-1.887-0.432-2.007-1.743h0.512c0,0.856,0.567,1.312,1.399,1.312c0.816,0,1.432-0.607,1.399-1.271
			c-0.032-0.911-0.824-1.199-1.815-1.127V4.128z"/>
		<path class="st2" d="M155.742,8.79c0.76-1.104,1.223-2.399,1.223-3.742c0-1.327-0.487-2.599-1.223-3.694h0.408
			c0.879,1.215,1.367,2.215,1.367,3.734c0,1.463-0.503,2.551-1.367,3.702H155.742z"/>
	</g>
	<g>
		<path class="st2" d="M228.35,1.354c-0.76,1.104-1.224,2.398-1.224,3.742c0,1.328,0.488,2.599,1.224,3.694h-0.408
			c-0.879-1.215-1.367-2.215-1.367-3.734c0-1.463,0.503-2.551,1.367-3.702H228.35z"/>
		<path class="st2" d="M231.662,5.872h-2.574v-0.44l2.622-3.75h0.464V5.44h0.784v0.432h-0.784v1.391h-0.512V5.872z M229.591,5.44
			h2.071V2.449L229.591,5.44z"/>
		<path class="st2" d="M233.696,8.79c0.76-1.104,1.223-2.399,1.223-3.742c0-1.327-0.487-2.599-1.223-3.694h0.408
			c0.879,1.215,1.367,2.215,1.367,3.734c0,1.463-0.503,2.551-1.367,3.702H233.696z"/>
	</g>
	<g>
	</g>
	<g>
	</g>
	<g>
	</g>
	<g>
	</g>
	<g>
	</g>
	<g>
	</g>
	<g>
	</g>
	<g>
	</g>
	<g>
	</g>
	<g>
	</g>
	<g>
	</g>
	<g>
	</g>
	<g>
	</g>
	<g>
	</g>
	<g>
	</g>
</g>
</svg>
