<?xml version="1.0" encoding="utf-8"?>
<!-- Generator: Adobe Illustrator 28.2.0, SVG Export Plug-In . SVG Version: 6.00 Build 0)  -->
<svg version="1.1" xmlns="http://www.w3.org/2000/svg" xmlns:xlink="http://www.w3.org/1999/xlink" x="0px" y="0px"
	 width="194.567px" height="99.621px" viewBox="0 0 194.567 99.621" style="enable-background:new 0 0 194.567 99.621;"
	 xml:space="preserve">
<style type="text/css">
	.st0{fill:#B3B3B3;}
	.st1{fill:none;stroke:#000000;stroke-width:0.5;stroke-miterlimit:10;}
</style>
<g id="レイヤー_1">
	<g>
		<rect x="24.488" class="st0" width="21.176" height="70.866"/>
	</g>
	<g>
		<g>
			<path d="M194.067,82.405v16.716h-84.039V82.405H194.067 M194.567,81.905h-85.039v17.716h85.039V81.905L194.567,81.905z"/>
		</g>
		<line class="st1" x1="130.787" y1="99.621" x2="130.787" y2="81.905"/>
		<line class="st1" x1="152.047" y1="99.621" x2="152.047" y2="81.905"/>
		<line class="st1" x1="173.307" y1="99.621" x2="173.307" y2="81.905"/>
	</g>
	<g>
		<g>
			<path d="M66.508,0.5v69.866h-41.52V0.5H66.508 M67.008,0h-42.52v70.866h42.52V0L67.008,0z"/>
		</g>
		<line class="st1" x1="45.748" y1="17.716" x2="45.748" y2="0"/>
	</g>
	<g>
		<line class="st1" x1="45.748" y1="35.433" x2="45.748" y2="17.716"/>
	</g>
	<g>
		<line class="st1" x1="45.748" y1="53.149" x2="45.748" y2="35.433"/>
	</g>
	<g>
		<line class="st1" x1="45.748" y1="70.866" x2="45.748" y2="53.149"/>
	</g>
	<line class="st1" x1="67.008" y1="17.716" x2="24.488" y2="17.716"/>
	<line class="st1" x1="67.008" y1="35.433" x2="24.488" y2="35.433"/>
	<line class="st1" x1="67.008" y1="53.149" x2="24.488" y2="53.149"/>
	<g>
		<g>
			<polyline class="st1" points="183.937,79.945 183.937,62.062 67.008,62.062 			"/>
			<g>
				<polygon points="185.982,78.289 185.615,77.948 183.937,79.753 182.259,77.948 181.892,78.289 183.937,80.488 				"/>
			</g>
		</g>
	</g>
	<g>
		<g>
			<polyline class="st1" points="162.677,79.918 162.677,44.291 67.008,44.291 			"/>
			<g>
				<polygon points="164.722,78.262 164.356,77.921 162.677,79.727 160.999,77.921 160.632,78.262 162.677,80.461 				"/>
			</g>
		</g>
	</g>
	<g>
		<g>
			<polyline class="st1" points="141.417,79.932 141.417,26.52 67.008,26.52 			"/>
			<g>
				<polygon points="143.462,78.275 143.096,77.934 141.417,79.74 139.739,77.934 139.373,78.275 141.417,80.474 				"/>
			</g>
		</g>
	</g>
	<g>
		<g>
			<polyline class="st1" points="120.157,79.932 120.157,8.749 67.008,8.749 			"/>
			<g>
				<polygon points="122.202,78.275 121.836,77.934 120.158,79.74 118.479,77.934 118.113,78.275 120.158,80.474 				"/>
			</g>
		</g>
	</g>
</g>
<g id="レイヤー_2">
	<g>
		<g>
			<path d="M117.61,94.029l2.263-5.757h0.615l2.207,5.757h-0.56l-0.664-1.807h-2.622l-0.68,1.807H117.61z M119.033,91.758h2.255
				l-1.128-3.022L119.033,91.758z"/>
		</g>
		<g>
			<path d="M143.263,89.943c-0.224-0.983-0.832-1.359-1.815-1.359c-1.391,0-1.99,1.191-1.99,2.55c0,1.288,0.472,2.583,2.038,2.583
				c0.992,0,1.607-0.671,1.823-1.583h0.567c-0.256,1.111-0.951,2.047-2.494,2.047c-1.775,0-2.479-1.399-2.479-3.03
				c0-2.199,1.151-3.03,2.679-3.03c1.183,0,2.047,0.632,2.23,1.823H143.263z"/>
		</g>
		<g>
			<path d="M160.88,94.029v-5.757h3.83v0.464h-3.286v2.079h2.967v0.464h-2.967v2.287h3.366v0.464H160.88z"/>
		</g>
		<g>
			<path d="M183.919,91.519v-0.463h2.463v2.974h-0.464v-0.983c-0.4,0.688-1.016,1.135-2.151,1.135c-1.455,0-2.519-1.016-2.519-3.062
				c0-1.687,0.848-2.998,2.663-2.998c1.207,0,2.158,0.592,2.406,1.823h-0.56c-0.192-0.863-0.951-1.359-1.807-1.359
				c-1.52,0-2.159,1.119-2.159,2.75c0,1.271,0.768,2.382,2.087,2.382c0.624,0,1.359-0.264,1.735-1.007
				c0.184-0.36,0.239-0.759,0.247-1.191H183.919z"/>
		</g>
	</g>
	<g>
		<g>
			<path d="M86.333,94.029v-5.757H88.3c0.64,0,1.239,0.04,1.774,0.432c0.76,0.552,0.96,1.671,0.96,2.439
				c0,0.759-0.168,1.607-0.696,2.183c-0.527,0.592-1.279,0.704-2.038,0.704H86.333z M86.876,93.565h1.304
				c0.487,0,0.911-0.032,1.351-0.264c0.768-0.392,0.96-1.375,0.96-2.159c0-0.84-0.184-1.759-0.991-2.191
				c-0.344-0.184-0.84-0.216-1.319-0.216h-1.304V93.565z"/>
			<path d="M92.317,92.734c0.151,0.712,0.52,0.976,1.239,0.976c0.695,0,1.023-0.368,1.023-0.768c0-1.199-2.654-0.352-2.654-1.983
				c0-0.688,0.535-1.183,1.455-1.183c0.896,0,1.479,0.368,1.599,1.303h-0.487c-0.088-0.64-0.52-0.872-1.119-0.872
				c-0.608,0-0.936,0.288-0.936,0.711c0,1.127,2.654,0.424,2.654,2.015c0,0.792-0.712,1.207-1.688,1.207s-1.535-0.624-1.575-1.407
				H92.317z"/>
			<path d="M97.492,94.045c-0.111,0.024-0.319,0.096-0.552,0.096c-0.472,0-0.735-0.208-0.735-0.823v-3.03h-0.583v-0.4h0.583v-1.151
				h0.479v1.151h0.776v0.4h-0.776v2.838c0,0.408,0.017,0.583,0.416,0.583c0.128,0,0.264-0.024,0.392-0.056V94.045z"/>
		</g>
	</g>
	<g>
		<g>
			<path d="M33.098,12.125V6.368h2.079c1.351,0,1.887,0.583,1.887,1.447c0,0.799-0.456,1.159-0.919,1.239V9.07
				c0.792,0.12,1.184,0.671,1.184,1.431c0,1.199-0.784,1.623-1.879,1.623H33.098z M33.642,8.91h1.375
				c1.136,0,1.503-0.399,1.503-1.095c0-0.72-0.432-0.983-1.623-0.983h-1.255V8.91z M33.642,11.661h1.383
				c1.199,0,1.759-0.16,1.759-1.159c0-0.952-0.671-1.127-1.695-1.127h-1.447V11.661z"/>
		</g>
		<g>
			<path d="M53.83,12.125l2.263-5.757h0.616l2.207,5.757h-0.56l-0.664-1.807h-2.623l-0.68,1.807H53.83z M55.253,9.854h2.255
				L56.38,6.832L55.253,9.854z"/>
		</g>
	</g>
	<g>
		<g>
			<path d="M32.878,29.841v-5.757h1.967c0.64,0,1.239,0.04,1.775,0.432c0.76,0.552,0.959,1.671,0.959,2.439
				c0,0.759-0.168,1.607-0.696,2.183c-0.527,0.592-1.279,0.704-2.039,0.704H32.878z M33.422,29.377h1.303
				c0.488,0,0.912-0.032,1.351-0.264c0.768-0.392,0.959-1.375,0.959-2.159c0-0.84-0.184-1.759-0.991-2.191
				c-0.344-0.184-0.839-0.216-1.319-0.216h-1.303V29.377z"/>
		</g>
		<g>
			<path d="M58.224,25.755c-0.224-0.983-0.832-1.359-1.815-1.359c-1.391,0-1.991,1.191-1.991,2.55c0,1.288,0.472,2.583,2.039,2.583
				c0.992,0,1.607-0.671,1.823-1.583h0.567c-0.256,1.111-0.951,2.047-2.495,2.047c-1.775,0-2.479-1.399-2.479-3.03
				c0-2.199,1.151-3.03,2.679-3.03c1.183,0,2.047,0.632,2.23,1.823H58.224z"/>
		</g>
	</g>
	<g>
		<g>
			<path d="M33.486,47.557V41.8h3.71v0.464h-3.167v2.079h2.878v0.464h-2.878v2.75H33.486z"/>
		</g>
		<g>
			<path d="M54.582,47.557V41.8h3.83v0.464h-3.286v2.079h2.966v0.464h-2.966v2.287h3.366v0.464H54.582z"/>
		</g>
	</g>
	<g>
		<g>
			<path d="M32.87,65.274v-5.757h0.544v2.471h3.406v-2.471h0.544v5.757H36.82v-2.822h-3.406v2.822H32.87z"/>
		</g>
		<g>
			<path d="M56.36,62.763V62.3h2.463v2.974h-0.464v-0.983c-0.4,0.688-1.016,1.135-2.151,1.135c-1.455,0-2.519-1.016-2.519-3.062
				c0-1.687,0.848-2.998,2.663-2.998c1.207,0,2.159,0.592,2.407,1.823h-0.56c-0.192-0.863-0.951-1.359-1.807-1.359
				c-1.52,0-2.159,1.119-2.159,2.75c0,1.271,0.768,2.382,2.087,2.382c0.624,0,1.359-0.264,1.735-1.007
				c0.184-0.36,0.24-0.759,0.248-1.191H56.36z"/>
		</g>
		<g>
			<path d="M0.872,10.405c0.088,1.032,0.775,1.407,1.655,1.407c1.032,0,1.463-0.56,1.463-1.191c0-1.783-3.51-0.6-3.51-2.862
				c0-0.799,0.664-1.543,1.951-1.543c1.295,0,1.943,0.784,1.935,1.719h-0.52c0-0.879-0.68-1.255-1.415-1.255
				c-1.104,0-1.503,0.68-1.407,1.271c0.248,1.487,3.51,0.416,3.51,2.646c0,1.056-0.776,1.679-2.103,1.679
				c-1.199,0-2.087-0.624-2.087-1.871H0.872z"/>
			<path d="M5.967,12.125h-0.48V7.983h0.48v0.775h0.016c0.264-0.664,0.656-0.887,1.352-0.887v0.52
				c-1.08-0.024-1.367,0.775-1.367,1.703V12.125z"/>
			<path d="M10.918,9.286C10.75,8.67,10.327,8.303,9.687,8.303c-0.983,0-1.391,0.896-1.391,1.759c0,0.872,0.399,1.743,1.391,1.743
				c0.711,0,1.159-0.424,1.271-1.111h0.512c-0.167,0.919-0.743,1.543-1.783,1.543c-1.319,0-1.903-0.951-1.903-2.175
				c0-1.151,0.664-2.19,1.903-2.19c0.952,0,1.575,0.456,1.719,1.415H10.918z"/>
		</g>
		<g>
			<path d="M0.872,28.122c0.088,1.032,0.775,1.407,1.655,1.407c1.032,0,1.463-0.56,1.463-1.191c0-1.783-3.51-0.6-3.51-2.862
				c0-0.799,0.664-1.543,1.951-1.543c1.295,0,1.943,0.784,1.935,1.719h-0.52c0-0.879-0.68-1.255-1.415-1.255
				c-1.104,0-1.503,0.68-1.407,1.271c0.248,1.487,3.51,0.416,3.51,2.646c0,1.056-0.776,1.679-2.103,1.679
				c-1.199,0-2.087-0.624-2.087-1.871H0.872z"/>
			<path d="M5.967,29.841h-0.48v-4.142h0.48v0.775h0.016c0.264-0.664,0.656-0.887,1.352-0.887v0.52
				c-1.08-0.024-1.367,0.775-1.367,1.703V29.841z"/>
			<path d="M10.918,27.002c-0.168-0.616-0.592-0.983-1.231-0.983c-0.983,0-1.391,0.896-1.391,1.759c0,0.872,0.399,1.743,1.391,1.743
				c0.711,0,1.159-0.424,1.271-1.111h0.512c-0.167,0.919-0.743,1.543-1.783,1.543c-1.319,0-1.903-0.951-1.903-2.175
				c0-1.151,0.664-2.19,1.903-2.19c0.952,0,1.575,0.456,1.719,1.415H10.918z"/>
			<path d="M14.255,25.843h0.479v1.759h1.759v0.479h-1.759v1.759h-0.479v-1.759h-1.759v-0.479h1.759V25.843z"/>
			<path d="M19.55,25.651h-1.455v-0.335c0.855-0.056,1.391-0.144,1.559-1.111h0.408v5.637H19.55V25.651z"/>
		</g>
		<g>
			<path d="M0.872,45.838c0.088,1.032,0.775,1.407,1.655,1.407c1.032,0,1.463-0.56,1.463-1.191c0-1.783-3.51-0.6-3.51-2.862
				c0-0.799,0.664-1.543,1.951-1.543c1.295,0,1.943,0.784,1.935,1.719h-0.52c0-0.879-0.68-1.255-1.415-1.255
				c-1.104,0-1.503,0.68-1.407,1.271c0.248,1.487,3.51,0.416,3.51,2.646c0,1.056-0.776,1.679-2.103,1.679
				c-1.199,0-2.087-0.624-2.087-1.871H0.872z"/>
			<path d="M5.967,47.557h-0.48v-4.142h0.48v0.775h0.016c0.264-0.664,0.656-0.887,1.352-0.887v0.52
				c-1.08-0.024-1.367,0.775-1.367,1.703V47.557z"/>
			<path d="M10.918,44.719c-0.168-0.616-0.592-0.983-1.231-0.983c-0.983,0-1.391,0.896-1.391,1.759c0,0.872,0.399,1.743,1.391,1.743
				c0.711,0,1.159-0.424,1.271-1.111h0.512c-0.167,0.919-0.743,1.543-1.783,1.543c-1.319,0-1.903-0.951-1.903-2.175
				c0-1.151,0.664-2.19,1.903-2.19c0.952,0,1.575,0.456,1.719,1.415H10.918z"/>
			<path d="M14.255,43.56h0.479v1.759h1.759v0.479h-1.759v1.759h-0.479v-1.759h-1.759v-0.479h1.759V43.56z"/>
			<path d="M17.688,43.767c0-1.111,0.72-1.847,1.831-1.847c1.135,0,1.735,0.695,1.735,1.559c0,1.495-1.615,1.871-2.455,2.511
				c-0.368,0.28-0.711,0.6-0.735,1.135h3.142v0.432H17.52c0.008-0.536,0.08-0.959,0.44-1.375c1.175-1.359,2.734-1.343,2.734-2.67
				c0-0.735-0.544-1.159-1.239-1.159c-0.736,0-1.255,0.656-1.224,1.415H17.688z"/>
		</g>
		<g>
			<path d="M0.872,63.555c0.088,1.032,0.775,1.407,1.655,1.407c1.032,0,1.463-0.56,1.463-1.191c0-1.783-3.51-0.6-3.51-2.862
				c0-0.799,0.664-1.543,1.951-1.543c1.295,0,1.943,0.784,1.935,1.719h-0.52c0-0.879-0.68-1.255-1.415-1.255
				c-1.104,0-1.503,0.68-1.407,1.271c0.248,1.487,3.51,0.416,3.51,2.646c0,1.056-0.776,1.679-2.103,1.679
				c-1.199,0-2.087-0.624-2.087-1.871H0.872z"/>
			<path d="M5.967,65.274h-0.48v-4.142h0.48v0.775h0.016c0.264-0.664,0.656-0.887,1.352-0.887v0.52
				c-1.08-0.024-1.367,0.775-1.367,1.703V65.274z"/>
			<path d="M10.918,62.436c-0.168-0.616-0.592-0.983-1.231-0.983c-0.983,0-1.391,0.896-1.391,1.759c0,0.872,0.399,1.743,1.391,1.743
				c0.711,0,1.159-0.424,1.271-1.111h0.512c-0.167,0.919-0.743,1.543-1.783,1.543c-1.319,0-1.903-0.951-1.903-2.175
				c0-1.151,0.664-2.19,1.903-2.19c0.952,0,1.575,0.456,1.719,1.415H10.918z"/>
			<path d="M14.255,61.276h0.479v1.759h1.759v0.479h-1.759v1.759h-0.479v-1.759h-1.759v-0.479h1.759V61.276z"/>
			<path d="M18.903,62.14c0.952,0.008,1.615-0.216,1.615-1.08c0-0.695-0.552-0.991-1.2-0.991c-0.719,0-1.207,0.503-1.207,1.208H17.6
				c0-0.504,0.168-0.912,0.543-1.264c0.352-0.32,0.816-0.375,1.279-0.375c0.888,0,1.607,0.448,1.607,1.391
				c0,0.583-0.256,1.023-0.8,1.255c0.815,0.256,1,0.872,1,1.391c0,0.928-0.656,1.679-1.815,1.711c-1.303,0-1.887-0.432-2.007-1.743
				h0.512c0,0.856,0.567,1.312,1.399,1.312c0.816,0,1.432-0.607,1.399-1.271c-0.032-0.911-0.824-1.199-1.815-1.127V62.14z"/>
		</g>
	</g>
	<g>
	</g>
	<g>
	</g>
	<g>
	</g>
	<g>
	</g>
	<g>
	</g>
	<g>
	</g>
	<g>
	</g>
	<g>
	</g>
	<g>
	</g>
	<g>
	</g>
	<g>
	</g>
	<g>
	</g>
	<g>
	</g>
	<g>
	</g>
	<g>
	</g>
	<g>
	</g>
</g>
</svg>
