<?xml version="1.0" encoding="utf-8"?>
<!-- Generator: Adobe Illustrator 28.2.0, SVG Export Plug-In . SVG Version: 6.00 Build 0)  -->
<svg version="1.1" xmlns="http://www.w3.org/2000/svg" xmlns:xlink="http://www.w3.org/1999/xlink" x="0px" y="0px"
	 width="440.738px" height="128.784px" viewBox="0 0 440.738 128.784" style="enable-background:new 0 0 440.738 128.784;"
	 xml:space="preserve">
<style type="text/css">
	.st0{fill:#BDC4CD;}
	.st1{fill:none;stroke:#000000;stroke-width:0.5;stroke-miterlimit:10;}
	.st2{fill:none;stroke:#FF0000;stroke-width:1.5;stroke-miterlimit:10;}
</style>
<g id="レイヤー_1">
	<rect x="48.574" y="9.475" class="st0" width="119.049" height="72.567"/>
	<rect x="235.656" y="110.392" class="st1" width="39.683" height="18.142"/>
	<rect x="275.338" y="110.392" class="st1" width="39.683" height="18.142"/>
	<rect x="315.021" y="110.392" class="st1" width="39.683" height="18.142"/>
	<rect x="354.704" y="110.392" class="st1" width="39.683" height="18.142"/>
	<rect x="394.387" y="110.392" class="st1" width="39.683" height="18.142"/>
	<g>
		<rect x="8.891" y="9.475" class="st1" width="198.415" height="72.567"/>
		<line class="st1" x1="8.891" y1="27.617" x2="207.306" y2="27.617"/>
		<line class="st1" x1="8.891" y1="45.759" x2="207.306" y2="45.759"/>
		<line class="st1" x1="8.891" y1="63.9" x2="207.306" y2="63.9"/>
		<line class="st1" x1="48.574" y1="82.042" x2="48.574" y2="9.475"/>
		<line class="st1" x1="88.257" y1="82.042" x2="88.257" y2="9.475"/>
		<line class="st1" x1="127.94" y1="82.042" x2="127.94" y2="9.475"/>
		<line class="st1" x1="167.623" y1="82.042" x2="167.623" y2="9.475"/>
		<line class="st1" x1="207.306" y1="82.042" x2="207.306" y2="9.475"/>
	</g>
	<g>
		<g>
			<polyline class="st1" points="295.18,107.015 295.18,72.971 209.645,72.971 			"/>
			<g>
				<polygon points="297.225,105.358 296.859,105.017 295.18,106.823 293.502,105.017 293.135,105.358 295.18,107.557 				"/>
			</g>
		</g>
	</g>
	<g>
		<g>
			<polyline class="st1" points="334.302,107.015 334.302,54.83 209.631,54.83 			"/>
			<g>
				<polygon points="336.347,105.358 335.981,105.017 334.302,106.823 332.624,105.017 332.257,105.358 334.302,107.557 				"/>
			</g>
		</g>
	</g>
	<g>
		<g>
			<polyline class="st1" points="374.547,107.015 374.547,36.688 209.618,36.688 			"/>
			<g>
				<polygon points="376.592,105.358 376.225,105.017 374.547,106.823 372.868,105.017 372.502,105.358 374.547,107.557 				"/>
			</g>
		</g>
	</g>
	<g>
		<g>
			<polyline class="st1" points="414.229,107.015 414.229,18.546 209.631,18.546 			"/>
			<g>
				<polygon points="416.274,105.358 415.907,105.017 414.229,106.823 412.55,105.017 412.184,105.358 414.229,107.557 				"/>
			</g>
		</g>
	</g>
</g>
<g id="レイヤー_2">
	<g>
		<g>
			<path d="M15.842,19.43c0.088,1.032,0.775,1.407,1.655,1.407c1.031,0,1.463-0.56,1.463-1.191c0-1.783-3.51-0.6-3.51-2.863
				c0-0.799,0.664-1.543,1.951-1.543c1.295,0,1.942,0.784,1.935,1.719h-0.52c0-0.88-0.68-1.255-1.415-1.255
				c-1.104,0-1.503,0.679-1.407,1.271c0.248,1.487,3.51,0.416,3.51,2.646c0,1.056-0.775,1.679-2.103,1.679
				c-1.199,0-2.087-0.624-2.087-1.871H15.842z"/>
			<path d="M20.938,21.149h-0.479v-4.142h0.479v0.775h0.016c0.265-0.664,0.656-0.888,1.352-0.888v0.52
				c-1.079-0.024-1.367,0.775-1.367,1.703V21.149z"/>
			<path d="M26.032,18.311c-0.168-0.616-0.592-0.983-1.231-0.983c-0.983,0-1.391,0.896-1.391,1.759c0,0.872,0.399,1.743,1.391,1.743
				c0.712,0,1.159-0.424,1.271-1.111h0.512c-0.168,0.919-0.743,1.543-1.783,1.543c-1.319,0-1.902-0.951-1.902-2.175
				c0-1.151,0.663-2.191,1.902-2.191c0.952,0,1.575,0.456,1.72,1.416H26.032z"/>
			<path d="M27.698,22.676V15.24h1.527v0.4H28.21v6.636h0.999v0.4H27.698z"/>
			<path d="M33.761,18.43c0,1.496-0.353,2.831-1.903,2.831c-1.56,0-1.911-1.327-1.911-2.886c0-1.423,0.288-2.862,1.911-2.862
				C33.528,15.512,33.761,17.119,33.761,18.43z M31.842,15.944c-1.12,0-1.384,1.239-1.384,2.486c0,1.447,0.32,2.399,1.399,2.399
				c1.215,0,1.392-1.319,1.392-2.455C33.249,17.159,33.032,15.944,31.842,15.944z"/>
			<path d="M36.018,22.676H34.49v-0.4h1.016V15.64h-0.999v-0.4h1.511V22.676z"/>
		</g>
		<g>
			<path d="M15.842,37.563c0.088,1.032,0.775,1.407,1.655,1.407c1.031,0,1.463-0.56,1.463-1.191c0-1.783-3.51-0.6-3.51-2.863
				c0-0.799,0.664-1.543,1.951-1.543c1.295,0,1.942,0.784,1.935,1.719h-0.52c0-0.88-0.68-1.255-1.415-1.255
				c-1.104,0-1.503,0.679-1.407,1.271c0.248,1.487,3.51,0.416,3.51,2.646c0,1.056-0.775,1.679-2.103,1.679
				c-1.199,0-2.087-0.624-2.087-1.871H15.842z"/>
			<path d="M20.938,39.282h-0.479v-4.142h0.479v0.775h0.016c0.265-0.664,0.656-0.888,1.352-0.888v0.52
				c-1.079-0.024-1.367,0.775-1.367,1.703V39.282z"/>
			<path d="M26.032,36.444c-0.168-0.616-0.592-0.983-1.231-0.983c-0.983,0-1.391,0.896-1.391,1.759c0,0.872,0.399,1.743,1.391,1.743
				c0.712,0,1.159-0.424,1.271-1.111h0.512c-0.168,0.919-0.743,1.543-1.783,1.543c-1.319,0-1.902-0.951-1.902-2.175
				c0-1.151,0.663-2.191,1.902-2.191c0.952,0,1.575,0.456,1.72,1.416H26.032z"/>
			<path d="M27.698,40.81v-7.436h1.527v0.4H28.21v6.636h0.999v0.4H27.698z"/>
			<path d="M32.049,35.093h-1.455v-0.336c0.855-0.056,1.392-0.144,1.56-1.111h0.407v5.637h-0.512V35.093z"/>
			<path d="M36.018,40.81H34.49v-0.4h1.016v-6.636h-0.999v-0.4h1.511V40.81z"/>
		</g>
		<g>
			<path d="M15.842,55.979c0.088,1.032,0.775,1.407,1.655,1.407c1.031,0,1.463-0.56,1.463-1.191c0-1.783-3.51-0.6-3.51-2.863
				c0-0.799,0.664-1.543,1.951-1.543c1.295,0,1.942,0.784,1.935,1.719h-0.52c0-0.88-0.68-1.255-1.415-1.255
				c-1.104,0-1.503,0.679-1.407,1.271c0.248,1.487,3.51,0.416,3.51,2.646c0,1.056-0.775,1.679-2.103,1.679
				c-1.199,0-2.087-0.624-2.087-1.871H15.842z"/>
			<path d="M20.938,57.698h-0.479v-4.142h0.479v0.775h0.016c0.265-0.664,0.656-0.888,1.352-0.888v0.52
				c-1.079-0.024-1.367,0.775-1.367,1.703V57.698z"/>
			<path d="M26.032,54.859c-0.168-0.616-0.592-0.983-1.231-0.983c-0.983,0-1.391,0.896-1.391,1.759c0,0.872,0.399,1.743,1.391,1.743
				c0.712,0,1.159-0.424,1.271-1.111h0.512c-0.168,0.919-0.743,1.543-1.783,1.543c-1.319,0-1.902-0.951-1.902-2.175
				c0-1.151,0.663-2.191,1.902-2.191c0.952,0,1.575,0.456,1.72,1.416H26.032z"/>
			<path d="M27.698,59.225v-7.436h1.527v0.4H28.21v6.636h0.999v0.4H27.698z"/>
			<path d="M30.187,53.908c0-1.111,0.72-1.847,1.831-1.847c1.135,0,1.734,0.695,1.734,1.559c0,1.495-1.615,1.871-2.454,2.51
				c-0.368,0.28-0.712,0.6-0.735,1.136h3.142v0.432h-3.686c0.008-0.536,0.08-0.959,0.439-1.375c1.176-1.359,2.734-1.344,2.734-2.671
				c0-0.735-0.544-1.159-1.239-1.159c-0.735,0-1.255,0.656-1.224,1.415H30.187z"/>
			<path d="M36.018,59.225H34.49v-0.4h1.016v-6.636h-0.999v-0.4h1.511V59.225z"/>
		</g>
		<g>
			<path d="M15.842,73.828c0.088,1.032,0.775,1.407,1.655,1.407c1.031,0,1.463-0.56,1.463-1.191c0-1.783-3.51-0.6-3.51-2.863
				c0-0.799,0.664-1.543,1.951-1.543c1.295,0,1.942,0.784,1.935,1.719h-0.52c0-0.88-0.68-1.255-1.415-1.255
				c-1.104,0-1.503,0.679-1.407,1.271c0.248,1.487,3.51,0.416,3.51,2.646c0,1.056-0.775,1.679-2.103,1.679
				c-1.199,0-2.087-0.624-2.087-1.871H15.842z"/>
			<path d="M20.938,75.547h-0.479v-4.142h0.479v0.775h0.016c0.265-0.664,0.656-0.888,1.352-0.888v0.52
				c-1.079-0.024-1.367,0.775-1.367,1.703V75.547z"/>
			<path d="M26.032,72.709c-0.168-0.616-0.592-0.983-1.231-0.983c-0.983,0-1.391,0.896-1.391,1.759c0,0.872,0.399,1.743,1.391,1.743
				c0.712,0,1.159-0.424,1.271-1.111h0.512c-0.168,0.919-0.743,1.543-1.783,1.543c-1.319,0-1.902-0.951-1.902-2.175
				c0-1.151,0.663-2.191,1.902-2.191c0.952,0,1.575,0.456,1.72,1.416H26.032z"/>
			<path d="M27.698,77.075v-7.436h1.527v0.4H28.21v6.636h0.999v0.4H27.698z"/>
			<path d="M31.401,72.413c0.952,0.008,1.615-0.216,1.615-1.08c0-0.695-0.552-0.991-1.199-0.991c-0.72,0-1.207,0.504-1.207,1.207
				h-0.512c0-0.503,0.168-0.911,0.543-1.263c0.353-0.32,0.816-0.375,1.279-0.375c0.888,0,1.607,0.448,1.607,1.391
				c0,0.583-0.256,1.023-0.8,1.255c0.815,0.256,1,0.872,1,1.391c0,0.927-0.656,1.679-1.815,1.711c-1.303,0-1.887-0.432-2.007-1.743
				h0.512c0,0.855,0.567,1.311,1.399,1.311c0.815,0,1.432-0.608,1.399-1.271c-0.032-0.911-0.824-1.199-1.815-1.127V72.413z"/>
			<path d="M36.018,77.075H34.49v-0.4h1.016v-6.636h-0.999v-0.4h1.511V77.075z"/>
		</g>
		<g>
			<path d="M1.111,6.64H0.632V0.883h0.479v2.279c0.304-0.504,0.896-0.776,1.479-0.776c1.263,0,1.847,1.032,1.847,2.191
				c0,1.224-0.536,2.175-1.871,2.175c-0.527,0-1.159-0.296-1.439-0.839H1.111V6.64z M2.511,6.32c0.808,0,1.407-0.583,1.415-1.623
				c0.04-1.04-0.424-1.879-1.415-1.879c-0.872,0-1.399,0.799-1.399,1.735C1.111,5.553,1.607,6.32,2.511,6.32z"/>
			<path d="M5.512,1.595V0.883h0.527v0.711H5.512z M5.535,6.64V2.499h0.479V6.64H5.535z"/>
			<path d="M8.694,6.656C8.582,6.68,8.374,6.752,8.143,6.752c-0.472,0-0.736-0.208-0.736-0.823V2.898H6.823V2.499h0.583V1.347h0.48
				v1.151h0.775v0.399H7.887v2.839c0,0.408,0.016,0.583,0.415,0.583c0.128,0,0.265-0.024,0.393-0.056V6.656z"/>
			<path d="M11.302,2.451H9.847V2.115c0.855-0.056,1.391-0.144,1.559-1.111h0.408V6.64h-0.512V2.451z"/>
			<path d="M14.127,5.177c0.104,0.76,0.655,1.144,1.391,1.144c0.84,0,1.352-0.64,1.352-1.439c0-0.84-0.544-1.432-1.399-1.432
				c-0.504,0-0.911,0.176-1.224,0.584l-0.424-0.056l0.456-2.918h2.799v0.432H14.71l-0.352,1.895
				c0.439-0.288,0.728-0.368,1.239-0.368c1.031,0,1.783,0.704,1.783,1.863c0,1.183-0.855,1.871-1.783,1.871
				c-1.063,0-1.895-0.408-1.982-1.575H14.127z"/>
		</g>
		<g>
			<path d="M201.749,6.64h-0.479V0.883h0.479v2.279c0.304-0.504,0.896-0.776,1.479-0.776c1.263,0,1.847,1.032,1.847,2.191
				c0,1.224-0.535,2.175-1.871,2.175c-0.527,0-1.159-0.296-1.439-0.839h-0.016V6.64z M203.148,6.32c0.808,0,1.407-0.583,1.415-1.623
				c0.04-1.04-0.424-1.879-1.415-1.879c-0.872,0-1.399,0.799-1.399,1.735C201.749,5.553,202.245,6.32,203.148,6.32z"/>
			<path d="M206.149,1.595V0.883h0.527v0.711H206.149z M206.173,6.64V2.499h0.479V6.64H206.173z"/>
			<path d="M209.333,6.656c-0.112,0.024-0.32,0.096-0.552,0.096c-0.472,0-0.736-0.208-0.736-0.823V2.898h-0.583V2.499h0.583V1.347
				h0.48v1.151h0.775v0.399h-0.775v2.839c0,0.408,0.016,0.583,0.415,0.583c0.128,0,0.265-0.024,0.393-0.056V6.656z"/>
			<path d="M213.651,3.921c0,1.496-0.352,2.831-1.903,2.831c-1.559,0-1.911-1.327-1.911-2.886c0-1.423,0.288-2.862,1.911-2.862
				C213.419,1.003,213.651,2.61,213.651,3.921z M211.732,1.435c-1.12,0-1.384,1.239-1.384,2.486c0,1.447,0.32,2.399,1.399,2.399
				c1.216,0,1.392-1.319,1.392-2.455C213.14,2.65,212.924,1.435,211.732,1.435z"/>
		</g>
		<g>
			<path d="M241.97,122.344v-5.757h1.967c0.64,0,1.239,0.04,1.775,0.432c0.76,0.552,0.959,1.671,0.959,2.439
				c0,0.759-0.167,1.607-0.695,2.183c-0.527,0.592-1.279,0.704-2.039,0.704H241.97z M242.514,121.88h1.303
				c0.488,0,0.912-0.032,1.352-0.264c0.768-0.392,0.96-1.375,0.96-2.159c0-0.84-0.185-1.759-0.992-2.191
				c-0.344-0.184-0.839-0.216-1.319-0.216h-1.303V121.88z"/>
			<path d="M247.953,121.049c0.152,0.712,0.52,0.976,1.239,0.976c0.695,0,1.023-0.368,1.023-0.768c0-1.199-2.654-0.352-2.654-1.983
				c0-0.688,0.535-1.184,1.455-1.184c0.896,0,1.479,0.368,1.599,1.304h-0.487c-0.088-0.64-0.52-0.872-1.119-0.872
				c-0.607,0-0.936,0.288-0.936,0.711c0,1.127,2.654,0.424,2.654,2.015c0,0.792-0.712,1.207-1.687,1.207
				c-0.976,0-1.535-0.624-1.575-1.407H247.953z"/>
			<path d="M253.129,122.36c-0.112,0.024-0.32,0.096-0.552,0.096c-0.472,0-0.736-0.208-0.736-0.823v-3.031h-0.583v-0.399h0.583
				v-1.151h0.48v1.151h0.775v0.399h-0.775v2.839c0,0.408,0.016,0.583,0.415,0.583c0.128,0,0.265-0.024,0.393-0.056V122.36z"/>
		</g>
		<g>
			<path d="M295.818,120.953h-2.574v-0.44l2.622-3.75h0.464v3.758h0.783v0.432h-0.783v1.391h-0.512V120.953z M293.748,120.521h2.07
				v-2.99L293.748,120.521z"/>
		</g>
		<g>
			<path d="M334.406,119.21c0.952,0.008,1.615-0.216,1.615-1.08c0-0.695-0.552-0.991-1.199-0.991c-0.72,0-1.207,0.504-1.207,1.207
				h-0.512c0-0.503,0.168-0.911,0.544-1.263c0.352-0.32,0.815-0.375,1.279-0.375c0.887,0,1.606,0.448,1.606,1.391
				c0,0.583-0.256,1.023-0.799,1.255c0.815,0.256,0.999,0.872,0.999,1.391c0,0.927-0.655,1.679-1.815,1.711
				c-1.303,0-1.887-0.432-2.007-1.743h0.512c0,0.855,0.568,1.311,1.399,1.311c0.815,0,1.432-0.608,1.399-1.271
				c-0.032-0.911-0.823-1.199-1.815-1.127V119.21z"/>
		</g>
		<g>
			<path d="M372.875,118.554c0-1.111,0.72-1.847,1.831-1.847c1.136,0,1.735,0.695,1.735,1.559c0,1.495-1.615,1.871-2.455,2.51
				c-0.368,0.28-0.712,0.6-0.735,1.136h3.142v0.432h-3.686c0.008-0.536,0.08-0.959,0.439-1.375c1.176-1.359,2.734-1.344,2.734-2.671
				c0-0.735-0.543-1.159-1.239-1.159c-0.735,0-1.255,0.656-1.223,1.415H372.875z"/>
		</g>
		<g>
			<path d="M414.42,118.155h-1.455v-0.336c0.855-0.056,1.391-0.144,1.559-1.111h0.408v5.637h-0.512V118.155z"/>
		</g>
		<g>
			<path d="M187.691,16.959h-1.455v-0.336c0.855-0.056,1.391-0.144,1.559-1.111h0.408v5.637h-0.512V16.959z"/>
		</g>
		<g>
			<path d="M185.828,35.492c0-1.111,0.72-1.847,1.831-1.847c1.136,0,1.735,0.695,1.735,1.559c0,1.495-1.615,1.871-2.455,2.51
				c-0.368,0.28-0.712,0.6-0.735,1.136h3.142v0.432h-3.686c0.008-0.536,0.08-0.959,0.439-1.375c1.176-1.359,2.734-1.344,2.734-2.671
				c0-0.735-0.543-1.159-1.239-1.159c-0.735,0-1.255,0.656-1.223,1.415H185.828z"/>
		</g>
		<g>
			<path d="M187.043,54.563c0.952,0.008,1.615-0.216,1.615-1.08c0-0.695-0.552-0.991-1.199-0.991c-0.72,0-1.207,0.504-1.207,1.207
				h-0.512c0-0.503,0.168-0.911,0.544-1.263c0.352-0.32,0.815-0.375,1.279-0.375c0.887,0,1.606,0.448,1.606,1.391
				c0,0.583-0.256,1.023-0.799,1.255c0.815,0.256,0.999,0.872,0.999,1.391c0,0.927-0.655,1.679-1.815,1.711
				c-1.303,0-1.887-0.432-2.007-1.743h0.512c0,0.855,0.568,1.311,1.399,1.311c0.815,0,1.432-0.608,1.399-1.271
				c-0.032-0.911-0.823-1.199-1.815-1.127V54.563z"/>
		</g>
		<g>
			<path d="M188.139,74.156h-2.574v-0.44l2.622-3.75h0.464v3.758h0.783v0.432h-0.783v1.391h-0.512V74.156z M186.068,73.724h2.07
				v-2.99L186.068,73.724z"/>
		</g>
	</g>
	<g>
		<path d="M227.876,107.557h-0.479V101.8h0.479v2.279c0.304-0.504,0.896-0.776,1.479-0.776c1.263,0,1.847,1.032,1.847,2.191
			c0,1.224-0.536,2.175-1.871,2.175c-0.527,0-1.159-0.296-1.439-0.839h-0.016V107.557z M229.275,107.237
			c0.808,0,1.407-0.583,1.415-1.623c0.04-1.04-0.424-1.879-1.415-1.879c-0.872,0-1.399,0.799-1.399,1.735
			C227.876,106.47,228.372,107.237,229.275,107.237z"/>
		<path d="M232.276,102.512V101.8h0.527v0.711H232.276z M232.3,107.557v-4.142h0.479v4.142H232.3z"/>
		<path d="M235.459,107.573c-0.112,0.024-0.32,0.096-0.552,0.096c-0.472,0-0.736-0.208-0.736-0.823v-3.031h-0.583v-0.399h0.583
			v-1.151h0.48v1.151h0.775v0.399h-0.775v2.839c0,0.408,0.016,0.583,0.415,0.583c0.128,0,0.265-0.024,0.393-0.056V107.573z"/>
		<path d="M238.066,103.368h-1.455v-0.336c0.855-0.056,1.391-0.144,1.559-1.111h0.408v5.637h-0.512V103.368z"/>
		<path d="M240.892,106.094c0.104,0.76,0.655,1.144,1.391,1.144c0.84,0,1.352-0.64,1.352-1.439c0-0.84-0.544-1.432-1.399-1.432
			c-0.504,0-0.911,0.176-1.224,0.584l-0.424-0.056l0.456-2.918h2.799v0.432h-2.367l-0.352,1.895
			c0.439-0.288,0.728-0.368,1.239-0.368c1.031,0,1.783,0.704,1.783,1.863c0,1.183-0.855,1.871-1.783,1.871
			c-1.063,0-1.895-0.408-1.982-1.575H240.892z"/>
	</g>
	<g>
		<path d="M428.514,107.557h-0.479V101.8h0.479v2.279c0.304-0.504,0.896-0.776,1.479-0.776c1.263,0,1.847,1.032,1.847,2.191
			c0,1.224-0.535,2.175-1.871,2.175c-0.527,0-1.159-0.296-1.439-0.839h-0.016V107.557z M429.913,107.237
			c0.808,0,1.407-0.583,1.415-1.623c0.04-1.04-0.424-1.879-1.415-1.879c-0.872,0-1.399,0.799-1.399,1.735
			C428.514,106.47,429.01,107.237,429.913,107.237z"/>
		<path d="M432.914,102.512V101.8h0.527v0.711H432.914z M432.938,107.557v-4.142h0.479v4.142H432.938z"/>
		<path d="M436.098,107.573c-0.112,0.024-0.32,0.096-0.552,0.096c-0.472,0-0.736-0.208-0.736-0.823v-3.031h-0.583v-0.399h0.583
			v-1.151h0.48v1.151h0.775v0.399h-0.775v2.839c0,0.408,0.016,0.583,0.415,0.583c0.128,0,0.265-0.024,0.393-0.056V107.573z"/>
		<path d="M440.416,104.838c0,1.496-0.352,2.831-1.903,2.831c-1.559,0-1.911-1.327-1.911-2.886c0-1.423,0.288-2.862,1.911-2.862
			C440.184,101.92,440.416,103.527,440.416,104.838z M438.497,102.352c-1.12,0-1.384,1.239-1.384,2.486
			c0,1.447,0.32,2.399,1.399,2.399c1.216,0,1.392-1.319,1.392-2.455C439.904,103.567,439.688,102.352,438.497,102.352z"/>
	</g>
	<rect x="167.623" y="9.475" class="st2" width="39.683" height="72.567"/>
	<g>
	</g>
	<g>
	</g>
	<g>
	</g>
	<g>
	</g>
	<g>
	</g>
	<g>
	</g>
	<g>
	</g>
	<g>
	</g>
	<g>
	</g>
	<g>
	</g>
	<g>
	</g>
	<g>
	</g>
	<g>
	</g>
	<g>
	</g>
	<g>
	</g>
	<g>
	</g>
</g>
</svg>
