<?xml version="1.0" encoding="utf-8"?>
<!-- Generator: Adobe Illustrator 28.2.0, SVG Export Plug-In . SVG Version: 6.00 Build 0)  -->
<svg version="1.1" xmlns="http://www.w3.org/2000/svg" xmlns:xlink="http://www.w3.org/1999/xlink" x="0px" y="0px"
	 width="394.725px" height="282.922px" viewBox="0 0 394.725 282.922" style="enable-background:new 0 0 394.725 282.922;"
	 xml:space="preserve">
<style type="text/css">
	.st0{fill:none;stroke:#666666;stroke-width:0.5;stroke-miterlimit:10;stroke-dasharray:1;}
	.st1{fill:none;stroke:#000000;stroke-width:0.5;stroke-miterlimit:10;}
	.st2{fill:#3574F2;}
</style>
<g id="レイヤー_1">
	<g>
		<line class="st0" x1="68.741" y1="10.265" x2="68.741" y2="282.922"/>
		<line class="st0" x1="118.347" y1="10.265" x2="118.347" y2="282.922"/>
		<line class="st0" x1="153.78" y1="10.265" x2="153.78" y2="282.922"/>
		<line class="st0" x1="167.953" y1="10.265" x2="167.953" y2="282.922"/>
		<line class="st0" x1="217.56" y1="10.265" x2="217.56" y2="282.922"/>
		<line class="st0" x1="245.906" y1="10.265" x2="245.906" y2="282.922"/>
		<line class="st0" x1="359.291" y1="10.265" x2="359.291" y2="282.922"/>
		<line class="st0" x1="54.567" y1="235.796" x2="394.725" y2="235.796"/>
	</g>
	<g>
		<polyline class="st1" points="394.725,20.363 309.686,20.363 309.686,60.757 281.339,60.757 281.339,20.363 238.819,20.363 
			238.819,60.757 153.78,60.757 153.78,20.363 68.74,20.363 68.74,60.757 54.567,60.757 		"/>
		<polyline class="st1" points="394.725,276.19 359.292,276.19 359.292,235.796 302.599,276.19 288.426,276.19 274.253,269.458 
			245.906,269.458 231.733,276.19 217.56,276.19 167.953,235.797 118.347,235.797 68.74,276.19 54.567,276.19 		"/>
		<polyline class="st1" points="394.725,222.165 231.733,222.165 231.733,181.772 217.56,181.772 217.56,222.332 153.78,222.332 
			153.78,181.938 118.347,181.938 118.347,222.332 54.567,222.332 		"/>
		<polyline class="st1" points="394.725,128.08 359.292,128.08 359.292,168.474 54.567,168.474 		"/>
		<polyline class="st1" points="394.725,114.615 288.426,114.615 288.426,74.222 245.906,74.222 245.906,114.782 231.733,114.782 
			231.733,74.388 167.953,74.388 167.953,114.782 54.567,114.782 		"/>
	</g>
</g>
<g id="レイヤー_2">
	<g>
		<path d="M19.85,37.938h0.595v3.567c0,1.48,0.56,2.096,1.845,2.096c1.355,0,1.845-0.682,1.845-2.096v-3.567h0.595v3.734
			c0,1.555-0.813,2.412-2.439,2.412c-1.644,0-2.439-0.882-2.439-2.412V37.938z"/>
		<path d="M26.666,45.622h-0.524v-6.004h0.524v0.757h0.018c0.306-0.565,0.997-0.874,1.574-0.874c1.46,0,2.046,0.99,2.046,2.262
			c0,1.206-0.638,2.278-2.02,2.278c-0.639,0-1.286-0.283-1.618-0.807V45.622z M28.197,43.593c1.084,0,1.591-0.874,1.547-1.955
			c-0.009-1.081-0.665-1.688-1.547-1.688c-0.988,0-1.53,0.798-1.53,1.838C26.666,42.762,27.243,43.593,28.197,43.593z"/>
	</g>
	<g>
		<path d="M19.842,97.785v-5.987h2.151c0.7,0,1.355,0.042,1.941,0.449c0.831,0.574,1.049,1.738,1.049,2.537
			c0,0.79-0.184,1.671-0.761,2.27c-0.577,0.616-1.399,0.732-2.229,0.732H19.842z M20.436,97.303h1.425
			c0.533,0,0.997-0.033,1.478-0.274c0.839-0.407,1.049-1.43,1.049-2.245c0-0.874-0.201-1.83-1.084-2.279
			c-0.376-0.191-0.918-0.225-1.442-0.225h-1.425V97.303z"/>
		<path d="M25.783,95.631c0-1.256,0.7-2.271,2.099-2.271c1.417,0,2.098,1.006,2.098,2.271c0,1.364-0.831,2.27-2.098,2.27
			C26.727,97.885,25.783,97.137,25.783,95.631z M27.882,93.81c-1.102,0-1.539,0.89-1.539,1.821c0,1.073,0.534,1.821,1.539,1.821
			c1.102,0,1.539-0.898,1.539-1.821C29.412,94.617,28.992,93.81,27.882,93.81z"/>
		<path d="M34.775,97.12l1.189-3.643h0.534l-1.469,4.308h-0.56l-0.988-3.618h-0.018l-1.005,3.618h-0.629l-1.381-4.308h0.524
			l1.171,3.676l1.049-3.676h0.586L34.775,97.12z"/>
		<path d="M37.788,97.785h-0.525v-4.308h0.525v0.599c0.419-0.424,0.831-0.715,1.46-0.715c0.551,0,1.058,0.167,1.381,0.616
			c0.219,0.308,0.228,0.632,0.228,0.989v2.819h-0.525v-2.811c0-0.773-0.332-1.164-1.171-1.164c-0.647,0-1.093,0.399-1.259,0.84
			c-0.104,0.274-0.113,0.516-0.113,0.815V97.785z"/>
	</g>
	<g>
		<path d="M20.428,148.923v2.719h-0.595v-5.987h2.466c1.381,0,2.142,0.465,2.142,1.571c0,0.757-0.297,1.156-1.023,1.464
			c0.743,0.241,0.787,0.99,0.804,1.622c0.026,0.906,0.105,1.156,0.263,1.272v0.058h-0.656c-0.245-0.408-0.184-1.53-0.28-1.987
			c-0.14-0.649-0.656-0.732-1.25-0.732H20.428z M22.281,148.441c0.883,0,1.565-0.349,1.565-1.189c0-0.898-0.734-1.115-1.53-1.115
			h-1.889v2.304H22.281z"/>
	</g>
	<g>
		<path d="M25.315,205.551l-0.333,0.383l-0.927-0.682c-0.428,0.258-0.953,0.408-1.574,0.408c-1.941,0-2.929-1.422-2.929-3.144
			c0-1.663,0.944-3.16,2.902-3.16c1.766,0,2.964,1.123,2.964,3.16c0,0.964-0.315,1.838-0.944,2.42L25.315,205.551z M24.038,204.611
			c0.534-0.482,0.787-1.264,0.787-2.096c0-1.788-1.005-2.678-2.352-2.678c-1.617,0-2.326,1.297-2.326,2.678
			c0,1.422,0.7,2.661,2.343,2.661c0.437,0,0.804-0.1,1.102-0.266l-0.717-0.524l0.314-0.391L24.038,204.611z"/>
	</g>
	<g>
		<path d="M19.816,239.163v-5.987h2.299c1.635,0,2.055,0.773,2.055,1.671c0,1.339-1.25,1.671-2.413,1.671H20.41v2.645H19.816z
			 M21.774,236.036c1.11,0,1.801-0.216,1.801-1.23c0-0.749-0.507-1.148-1.626-1.148H20.41v2.378H21.774z"/>
		<path d="M24.62,233.176h4.581v0.482h-1.993v5.505h-0.595v-5.505H24.62V233.176z"/>
	</g>
	<g>
		<path d="M19.842,259.359v-5.987h4.188v0.482h-3.594v2.162h3.244v0.482h-3.244v2.378h3.681v0.482H19.842z"/>
		<path d="M24.62,253.372h4.581v0.482h-1.993v5.505h-0.595v-5.505H24.62V253.372z"/>
	</g>
	<g>
		<path class="st2" d="M65.816,0.754c-0.831,1.147-1.338,2.495-1.338,3.892c0,1.38,0.534,2.703,1.338,3.842H65.37
			c-0.962-1.264-1.495-2.304-1.495-3.884c0-1.521,0.551-2.653,1.495-3.85H65.816z"/>
		<path class="st2" d="M68.948,2.542h-1.591v-0.35c0.936-0.058,1.521-0.149,1.705-1.156h0.446v5.863h-0.56V2.542z"/>
		<path class="st2" d="M71.662,8.488C72.493,7.34,73,5.993,73,4.596c0-1.38-0.533-2.703-1.337-3.842h0.446
			c0.962,1.264,1.495,2.304,1.495,3.884c0,1.521-0.551,2.652-1.495,3.85H71.662z"/>
	</g>
	<g>
		<path class="st2" d="M115.423,0.754c-0.831,1.147-1.338,2.495-1.338,3.892c0,1.38,0.534,2.703,1.338,3.842h-0.446
			c-0.962-1.264-1.495-2.304-1.495-3.884c0-1.521,0.551-2.653,1.495-3.85H115.423z"/>
		<path class="st2" d="M116.518,2.958c0-1.156,0.787-1.921,2.002-1.921c1.242,0,1.897,0.724,1.897,1.622
			c0,1.555-1.766,1.946-2.684,2.611c-0.402,0.291-0.778,0.624-0.805,1.181h3.436v0.449h-4.031c0.009-0.557,0.088-0.998,0.481-1.43
			c1.286-1.414,2.99-1.397,2.99-2.778c0-0.765-0.594-1.206-1.355-1.206c-0.805,0-1.373,0.682-1.338,1.472H116.518z"/>
		<path class="st2" d="M121.269,8.488c0.831-1.147,1.337-2.495,1.337-3.892c0-1.38-0.533-2.703-1.337-3.842h0.446
			c0.962,1.264,1.495,2.304,1.495,3.884c0,1.521-0.551,2.652-1.495,3.85H121.269z"/>
	</g>
	<g>
		<path class="st2" d="M150.855,0.754c-0.831,1.147-1.338,2.495-1.338,3.892c0,1.38,0.534,2.703,1.338,3.842h-0.446
			c-0.962-1.264-1.495-2.304-1.495-3.884c0-1.521,0.551-2.653,1.495-3.85H150.855z"/>
		<path class="st2" d="M153.279,3.64c1.041,0.008,1.766-0.225,1.766-1.123c0-0.724-0.603-1.031-1.312-1.031
			c-0.787,0-1.32,0.524-1.32,1.255h-0.56c0-0.524,0.184-0.948,0.594-1.314c0.385-0.333,0.892-0.391,1.399-0.391
			c0.971,0,1.757,0.466,1.757,1.447c0,0.607-0.28,1.064-0.874,1.306c0.892,0.266,1.093,0.907,1.093,1.447
			c0,0.964-0.717,1.746-1.985,1.779c-1.425,0-2.063-0.449-2.194-1.812h0.56c0,0.89,0.621,1.364,1.53,1.364
			c0.892,0,1.565-0.632,1.53-1.322c-0.035-0.948-0.9-1.248-1.985-1.173V3.64z"/>
		<path class="st2" d="M156.701,8.488c0.831-1.147,1.337-2.495,1.337-3.892c0-1.38-0.533-2.703-1.337-3.842h0.446
			c0.962,1.264,1.495,2.304,1.495,3.884c0,1.521-0.551,2.652-1.495,3.85H156.701z"/>
	</g>
	<g>
		<path class="st2" d="M242.982,0.754c-0.831,1.147-1.338,2.495-1.338,3.892c0,1.38,0.534,2.703,1.338,3.842h-0.446
			c-0.962-1.264-1.495-2.304-1.495-3.884c0-1.521,0.551-2.653,1.495-3.85H242.982z"/>
		<path class="st2" d="M247.294,2.475c-0.123-0.599-0.516-0.989-1.171-0.989c-1.513,0-1.644,1.546-1.731,2.653
			c0.35-0.449,0.717-0.915,1.618-0.915c1.242,0,1.958,0.715,1.958,1.888c0,1.181-0.726,1.904-1.976,1.904
			c-1.233,0-2.16-0.731-2.16-2.802c0-1.389,0.429-3.177,2.238-3.177c0.971,0,1.688,0.499,1.801,1.438H247.294z M244.601,5.128
			c0,0.657,0.385,1.439,1.399,1.439c1.041,0,1.408-0.765,1.408-1.472c0-0.906-0.455-1.422-1.417-1.422
			C245.126,3.673,244.601,4.338,244.601,5.128z"/>
		<path class="st2" d="M248.828,8.488c0.831-1.147,1.337-2.495,1.337-3.892c0-1.38-0.533-2.703-1.337-3.842h0.446
			c0.962,1.264,1.495,2.304,1.495,3.884c0,1.521-0.551,2.652-1.495,3.85H248.828z"/>
	</g>
	<g>
		<path class="st2" d="M356.367,0.754c-0.831,1.147-1.338,2.495-1.338,3.892c0,1.38,0.534,2.703,1.338,3.842h-0.446
			c-0.962-1.264-1.495-2.304-1.495-3.884c0-1.521,0.551-2.653,1.495-3.85H356.367z"/>
		<path class="st2" d="M357.374,1.095h3.926v0.499c-1.766,1.896-2.431,4.158-2.5,5.306h-0.612c0.122-1.696,1.259-3.892,2.439-5.272
			h-3.253V1.095z"/>
		<path class="st2" d="M362.213,8.488c0.831-1.147,1.337-2.495,1.337-3.892c0-1.38-0.533-2.703-1.337-3.842h0.446
			c0.962,1.264,1.495,2.304,1.495,3.884c0,1.521-0.551,2.652-1.495,3.85H362.213z"/>
	</g>
	<g>
		<path class="st2" d="M214.635,0.754c-0.831,1.147-1.338,2.495-1.338,3.892c0,1.38,0.534,2.703,1.338,3.842h-0.446
			c-0.962-1.264-1.495-2.304-1.495-3.884c0-1.521,0.551-2.653,1.495-3.85H214.635z"/>
		<path class="st2" d="M215.992,5.377c0.113,0.79,0.717,1.189,1.521,1.189c0.918,0,1.478-0.666,1.478-1.497
			c0-0.873-0.595-1.488-1.53-1.488c-0.551,0-0.997,0.183-1.338,0.607l-0.463-0.058l0.499-3.036h3.06v0.449h-2.588l-0.385,1.971
			c0.481-0.299,0.795-0.382,1.355-0.382c1.128,0,1.95,0.732,1.95,1.938c0,1.231-0.936,1.946-1.95,1.946
			c-1.163,0-2.072-0.424-2.168-1.638H215.992z"/>
		<path class="st2" d="M220.481,8.488c0.831-1.147,1.337-2.495,1.337-3.892c0-1.38-0.533-2.703-1.337-3.842h0.446
			c0.962,1.264,1.495,2.304,1.495,3.884c0,1.521-0.551,2.652-1.495,3.85H220.481z"/>
	</g>
	<g>
		<path class="st2" d="M165.029,0.754c-0.831,1.147-1.338,2.495-1.338,3.892c0,1.38,0.534,2.703,1.338,3.842h-0.446
			c-0.962-1.264-1.495-2.304-1.495-3.884c0-1.521,0.551-2.653,1.495-3.85H165.029z"/>
		<path class="st2" d="M168.65,5.453h-2.815V4.995l2.868-3.9h0.507v3.909h0.857v0.449h-0.857v1.447h-0.56V5.453z M166.386,5.003
			h2.264v-3.11L166.386,5.003z"/>
		<path class="st2" d="M170.875,8.488c0.831-1.147,1.337-2.495,1.337-3.892c0-1.38-0.533-2.703-1.337-3.842h0.446
			c0.962,1.264,1.495,2.304,1.495,3.884c0,1.521-0.551,2.652-1.495,3.85H170.875z"/>
	</g>
	<g>
	</g>
	<g>
	</g>
	<g>
	</g>
	<g>
	</g>
	<g>
	</g>
	<g>
	</g>
	<g>
	</g>
	<g>
	</g>
	<g>
	</g>
	<g>
	</g>
	<g>
	</g>
	<g>
	</g>
	<g>
	</g>
	<g>
	</g>
	<g>
	</g>
</g>
</svg>
