<?xml version="1.0" encoding="utf-8"?>
<!-- Generator: Adobe Illustrator 28.0.0, SVG Export Plug-In . SVG Version: 6.00 Build 0)  -->
<svg version="1.1" id="レイヤー_1" xmlns="http://www.w3.org/2000/svg" xmlns:xlink="http://www.w3.org/1999/xlink" x="0px"
	 y="0px" width="42.4px" height="12.8px" viewBox="0 0 42.4 12.8" style="enable-background:new 0 0 42.4 12.8;"
	 xml:space="preserve">
<style type="text/css">
	.st0{fill:#F39800;}
	.st1{fill:#231815;}
	.st2{fill:none;stroke:#231815;}
	.st3{fill:none;}
</style>
<g>
	<g>
		<g>
			<rect x="0.25" y="0.25" class="st0" width="41.9" height="12.3"/>
			<path class="st1" d="M41.9,0.5v11.8H0.5V0.5H41.9 M42.4,0H0v12.8h42.4V0L42.4,0z"/>
		</g>
		<g>
			<g>
				<path class="st1" d="M3.314,10.992c-0.78,0-1.098-0.552-0.709-1.227l3.885-6.729c0.39-0.675,1.028-0.675,1.417,0l3.886,6.73
					c0.39,0.675,0.071,1.227-0.709,1.227H3.314z"/>
				<path class="st2" d="M3.314,10.992c-0.78,0-1.098-0.552-0.709-1.227l3.885-6.729c0.39-0.675,1.028-0.675,1.417,0l3.886,6.73
					c0.39,0.675,0.071,1.227-0.709,1.227H3.314z"/>
			</g>
			<g>
				<circle class="st0" cx="7.199" cy="9.815" r="0.701"/>
				<path class="st0" d="M7.705,8.509C7.671,8.717,7.463,8.877,7.211,8.877c-0.275,0-0.498-0.191-0.498-0.427L6.246,4.885
					c-0.005-0.03-0.009-0.062-0.009-0.093c0-0.381,0.43-0.689,0.962-0.689c0.531,0,0.962,0.308,0.962,0.689
					c0,0.033-0.002,0.066-0.009,0.098L7.705,8.509z"/>
			</g>
		</g>
	</g>
	<g>
		<rect x="13.042" y="2.521" class="st3" width="29.116" height="7.759"/>
		<path class="st1" d="M18.694,3.256c0.237,0.044,0.473,0.067,0.705,0.067h0.512V2.989c0-0.06-0.01-0.116-0.03-0.171
			c0.198,0.035,0.406,0.052,0.624,0.052c-0.064,0.114-0.097,0.213-0.097,0.297v0.156h0.624V2.989c0-0.06-0.01-0.116-0.03-0.171
			c0.203,0.035,0.411,0.052,0.624,0.052c-0.055,0.114-0.082,0.213-0.082,0.297v0.156h0.267c0.237,0,0.475-0.022,0.713-0.067
			c-0.021,0.094-0.03,0.183-0.03,0.267c0,0.094,0.01,0.183,0.03,0.267c-0.238-0.035-0.476-0.052-0.713-0.052h-0.267V3.82
			c0,0.069,0.01,0.141,0.03,0.215c-0.104-0.02-0.206-0.03-0.305-0.03c-0.084,0-0.173,0.01-0.267,0.03
			c0.02-0.074,0.03-0.146,0.03-0.215V3.738h-0.624V3.85c0,0.074,0.01,0.146,0.03,0.215c-0.094-0.02-0.193-0.03-0.297-0.03
			c-0.035,0-0.067,0.002-0.097,0.007c-0.069,0.049-0.121,0.094-0.156,0.134h1.44c0.312,0,0.619-0.02,0.92-0.06
			c-0.049,0.139-0.086,0.274-0.111,0.408c0.232-0.287,0.416-0.589,0.55-0.905c0.134-0.282,0.225-0.569,0.274-0.861
			c0.163,0.08,0.361,0.146,0.594,0.201c-0.089,0.119-0.153,0.235-0.193,0.349c-0.029,0.069-0.057,0.131-0.081,0.186h1.321
			c0.228,0,0.475-0.007,0.742-0.022c-0.021,0.094-0.03,0.183-0.03,0.267c0,0.099,0.01,0.188,0.03,0.267
			c-0.174-0.02-0.401-0.03-0.684-0.03c-0.079,0.297-0.173,0.532-0.281,0.705c-0.064,0.148-0.154,0.282-0.268,0.401
			c0.316,0.119,0.737,0.206,1.262,0.26c-0.188,0.158-0.307,0.336-0.356,0.534c-0.52-0.094-0.947-0.25-1.284-0.467
			c-0.302,0.188-0.636,0.354-1.002,0.497c-0.118-0.183-0.279-0.334-0.482-0.453c0.371-0.079,0.693-0.198,0.965-0.356
			c0.025-0.01,0.047-0.022,0.067-0.037c-0.158-0.163-0.312-0.368-0.46-0.616l0.467-0.171c0.079,0.223,0.195,0.401,0.35,0.535
			c0.084-0.069,0.15-0.144,0.2-0.223c0.113-0.164,0.205-0.366,0.274-0.609h-1.047c-0.158,0.322-0.331,0.626-0.52,0.913
			c-0.099-0.119-0.237-0.22-0.415-0.304c-0.01,0.049-0.018,0.094-0.022,0.133l-0.104,0.594c-0.03,0.198-0.119,0.322-0.268,0.371
			c-0.158,0.064-0.304,0.097-0.438,0.097c-0.005-0.228-0.074-0.436-0.208-0.624c0.163,0.044,0.294,0.067,0.393,0.067
			c0.049,0,0.079-0.077,0.089-0.23l0.022-0.431h-2.004c-0.059,0.069-0.114,0.131-0.163,0.186c0.228,0.015,0.455,0.022,0.683,0.022
			h0.238c0.257,0,0.517-0.01,0.779-0.03c-0.025,0.133-0.037,0.262-0.037,0.386v0.245c0,0.158,0.012,0.314,0.037,0.467
			c-0.263-0.02-0.522-0.029-0.779-0.029h-0.238c-0.257,0-0.512,0.01-0.764,0.029c0.015-0.153,0.022-0.309,0.022-0.467V5.126
			c-0.01-0.099-0.017-0.198-0.022-0.297c-0.154,0.164-0.314,0.314-0.482,0.453c-0.104-0.133-0.252-0.242-0.445-0.326
			c0.312-0.188,0.557-0.384,0.734-0.586c0.159-0.178,0.27-0.361,0.334-0.549c0.119,0.064,0.255,0.121,0.408,0.171
			c0.01-0.05,0.015-0.097,0.015-0.141V3.738h-0.512c-0.232,0-0.468,0.017-0.705,0.052c0.02-0.084,0.03-0.173,0.03-0.267
			C18.724,3.439,18.714,3.35,18.694,3.256z M22.22,5.638c0.074,0.158,0.168,0.324,0.282,0.497h2.101c0.257,0,0.514-0.02,0.771-0.059
			c-0.02,0.104-0.029,0.203-0.029,0.297c0,0.094,0.01,0.183,0.029,0.267c-0.258-0.035-0.515-0.052-0.771-0.052h-5.203
			c-0.252,0-0.507,0.017-0.765,0.052c0.02-0.084,0.03-0.173,0.03-0.267c0-0.094-0.01-0.193-0.03-0.297
			c0.257,0.04,0.512,0.059,0.765,0.059h2.39c-0.054-0.114-0.119-0.232-0.193-0.356C21.819,5.754,22.026,5.708,22.22,5.638z
			 M19.555,6.826c0.257,0.04,0.512,0.06,0.765,0.06h3.154c0.253,0,0.508-0.02,0.765-0.06c-0.02,0.094-0.029,0.193-0.029,0.297
			c0,0.089,0.01,0.176,0.029,0.26c-0.257-0.04-0.512-0.06-0.765-0.06H20.32c-0.252,0-0.507,0.02-0.765,0.06
			c0.02-0.084,0.03-0.171,0.03-0.26C19.585,7.019,19.575,6.92,19.555,6.826z M19.555,7.539c0.257,0.034,0.512,0.052,0.765,0.052
			h3.154c0.253,0,0.508-0.018,0.765-0.052c-0.02,0.094-0.029,0.192-0.029,0.297c0,0.084,0.01,0.173,0.029,0.267
			c-0.257-0.044-0.512-0.066-0.765-0.066H20.32c-0.252,0-0.507,0.022-0.765,0.066c0.02-0.094,0.03-0.183,0.03-0.267
			C19.585,7.731,19.575,7.632,19.555,7.539z M19.615,8.273c0.312,0.02,0.628,0.029,0.95,0.029h2.754c0.321,0,0.638-0.01,0.95-0.029
			c-0.021,0.173-0.03,0.344-0.03,0.512c0,0.366,0.01,0.73,0.03,1.092c-0.104-0.021-0.213-0.03-0.327-0.03
			c-0.104,0-0.213,0.01-0.326,0.03c0.005-0.109,0.01-0.218,0.015-0.327h-3.377c0.005,0.114,0.01,0.223,0.015,0.327
			c-0.114-0.021-0.223-0.03-0.326-0.03c-0.114,0-0.223,0.01-0.327,0.03c0.02-0.332,0.03-0.668,0.03-1.01
			C19.644,8.669,19.634,8.471,19.615,8.273z M20.646,5.453V5.126h-0.832v0.327H20.646z M20.245,9.112h3.392
			c0.01-0.124,0.015-0.242,0.015-0.356h-3.414C20.238,8.875,20.241,8.993,20.245,9.112z"/>
		<path class="st1" d="M31.4,2.84c0.212,0.099,0.499,0.17,0.86,0.215c-0.134,0.109-0.26,0.322-0.378,0.639
			c-0.045,0.094-0.087,0.188-0.127,0.282h1.329V3.471c0-0.248-0.021-0.495-0.06-0.742c0.252,0.089,0.552,0.136,0.898,0.141
			c-0.104,0.154-0.156,0.354-0.156,0.602v0.504h1.284c0.297,0,0.613-0.012,0.95-0.037c-0.025,0.119-0.037,0.23-0.037,0.334
			c0,0.134,0.012,0.252,0.037,0.356c-0.229-0.02-0.545-0.03-0.95-0.03h-1.284v0.95h1.967c0.352,0,0.705-0.022,1.062-0.067
			c-0.015,0.133-0.022,0.265-0.022,0.393c0,0.114,0.008,0.233,0.022,0.356c-0.356-0.04-0.71-0.06-1.062-0.06h-4.876
			c-0.352,0-0.705,0.02-1.062,0.06c0.015-0.124,0.022-0.242,0.022-0.356c0-0.128-0.008-0.26-0.022-0.393
			c0.356,0.044,0.71,0.067,1.062,0.067h2.227v-0.95h-1.633c-0.144,0.267-0.29,0.515-0.438,0.742
			c-0.207-0.198-0.436-0.307-0.683-0.327c0.297-0.321,0.534-0.683,0.713-1.083C31.217,3.555,31.336,3.192,31.4,2.84z M31.013,6.789
			c0.352,0.044,0.705,0.067,1.062,0.067h2.472c0.356,0,0.71-0.022,1.062-0.067c-0.04,0.322-0.06,0.639-0.06,0.95v1.046
			c0,0.342,0.02,0.686,0.06,1.032c-0.193-0.015-0.322-0.022-0.386-0.022c-0.064,0-0.201,0.008-0.408,0.022
			c0.024-0.208,0.039-0.416,0.044-0.624h-3.103c0.01,0.223,0.027,0.44,0.053,0.653C31.6,9.827,31.464,9.817,31.4,9.817
			c-0.064,0-0.193,0.01-0.387,0.029c0.04-0.341,0.06-0.686,0.06-1.031V7.739C31.073,7.427,31.054,7.11,31.013,6.789z M31.749,8.599
			h3.124v-1.15h-3.124V8.599z"/>
	</g>
</g>
<g>
</g>
</svg>
